<svg height="500" viewBox="0 0 500 500" width="500" xmlns="http://www.w3.org/2000/svg" xmlns:xlink="http://www.w3.org/1999/xlink"><filter id="a" color-interpolation-filters="sRGB" height="1.080248" width="2.146796" x="-.573398" y="-.040124"><feGaussianBlur stdDeviation="4.0188026"/></filter><filter id="b" color-interpolation-filters="sRGB" height="1.044685" width="1.055633" x="-.027816" y="-.022343"><feGaussianBlur stdDeviation="2.3249149"/></filter><g transform="translate(-1000 -500)"><circle cx="1250" cy="750" fill="#8f29a3" r="250"/><path d="m1250.0521 500.09326-.061 248.75004-15.9199-248.2399a249.99917 250.18666 0 0 0 -31.6776 4.06945l45.0428 231.17052c-.102.0363-.2268.0547-.3789.0547l2.377 12.94521-.25-.53361-.5352-1.34279-3.3574-10.61339c-.1814.0698-.3456.12506-.5117.12506l-.1211.0782-83.1951-220.24831a249.99917 250.18666 0 0 0 -14.7401 6.13348l96.9 214.60543-.2187.11532 2.3047 4.43886 2.3437 5.21678.055.0488.416.7486.7461 1.26658v.0314l-.7461-1.29782-.4707-.79746-5.5273-9.21c-.1841.12151-.3808.23754-.5664.39678l-123.4077-200.53639a249.99917 250.18666 0 0 0 -34.1776 25.40763l164.5483 186.40079-.3984-.58052.832 1.02616v.0508l-.3262-.32448-.094-.12903v-.006-.002l-176.1809-175.46484a249.99917 250.18666 0 0 0 -21.0273 24.05115l186.5306 143.42536-.1425.18569 10.4687 8.26398-2.0957-1.07698-9.4082-5.66242c-.1395.18156-.2273.33335-.3066.47301l-208.0031-109.74966a249.99917 250.18666 0 0 0 -7 14.40723l214.5266 96.34337c-.074.17741-.1655.3791-.2578.59419l12.1758 4.73596-.037-.0253.5254.23653-.4863-.21109.3574.18179.2129.0802-.2129-.0508v-.0295l-12.8066-4.08117c-.056.14944-.1255.33501-.1758.5082l-224.9661-68.33223a249.99917 250.18666 0 0 0 -8.7656 41.69908l246.1613 30.77687h-1.2363l-246.3644-14.82161a249.99917 250.18666 0 0 0 -.4219 14.51082 249.99917 250.18666 0 0 0 .6113 17.47203l234.4934-16.18786h-.027l.3066-.0234-.2773.0234 12.9687-.73492-7.6699 1.8549-.3028.0508-4.789.9382.07.23845-228.2004 55.91086a249.99917 250.18666 0 0 0 4.2871 15.37279l224.173-70.26921c.093.36314.1859.69573.2793.95971l11.9648-4.46623-6.7285 3.52803-218.2141 100.03556a249.99917 250.18666 0 0 0 21.0155 36.99246l204.0072-139.70972-2.9414 2.38851-191.599 150.2058a249.99917 250.18666 0 0 0 21.2792 23.80097l164.7143-167.43742c.2793.26396.5666.50585.8359.80333l7.6309-8.62753v-.0314l.7578-.86587.1855-.23653.7754-.84633.02-.0645.057-.0272-.023.15832-.1035.11531.051-.18179-.068.18179-1.3203 1.73762.6133-1.0457-.1856.20916-.7578.89715-2.5996 3.67852-4.2753 5.57643.287.1818-133.9214 192.92518a249.99917 250.18666 0 0 0 13.3768 8.68037l121.3629-200.99764c.1115.0698.2562.1641.4043.23263l6.9082-11.76855-.2793.71929-100.1481 226.51466a249.99917 250.18666 0 0 0 40.1346 13.79743l59.6931-236.78211-1.5742 9.22563.2364.0566-42.7675 230.89101a249.99917 250.18666 0 0 0 31.6386 3.76263l12.9316-234.50119c.2415.0238.455.0234.6602.0234h.031v-12.36276l.055-.87175.3809 3.35211.6328 9.85892c.1939 0 .3385-.0234.5058-.0234l27.248 233.23258a249.99917 250.18666 0 0 0 15.7831-2.3455l-42.1484-231.0161c.254-.028.4739-.0916.707-.11531l-2.0644-10.71502-.055-.13878-.3203-1.79235.018.0295.3575 1.90182 74.3923 234.18055a249.99917 250.18666 0 0 0 39.205-16.19959l-111.1503-215.75097 4.1406 6.7179.2696-.18569 120.6715 201.44522a249.99917 250.18666 0 0 0 26.2108-18.10533l-145.5071-184.32505c.254-.18717.4204-.39029.6562-.60397l-8.457-9.554 3.3672 3.03156 5.8437 5.83834.2872-.30686 174.8256 156.82795a249.99917 250.18666 0 0 0 10.2715-12.18293l-184.478-145.35845c.1296-.15783.305-.33279.4082-.48083l-9.3632-7.21437 211.5852 126.78601a249.99917 250.18666 0 0 0 18.7245-38.19257l-229.6555-89.16613 11.0274 3.36579.012-.18569 223.9289 70.91228a249.99917 250.18666 0 0 0 7.6836-30.99187l-231.1887-41.80463c0-.16199.037-.30149.037-.44955l-7.3671-.90693-4.5508-.79941 12.0312.70755c.03-.32965.029-.62841.029-.96361l235.009 1.78454a249.99917 250.18666 0 0 0 .011-2.19892 249.99917 250.18666 0 0 0 -.3809-13.81303l-234.6691 13.37131v-.33226l-11.7754.81114-2.207.14075 2.1641-.14075h.043l242.6422-45.60435a249.99917 250.18666 0 0 0 -11.2772-41.04821l-231.0032 85.65376-.2598.0684 10.5078-4.79069c-.1716-.35894-.395-.80876-.6601-1.20402l208.1651-109.51534a249.99917 250.18666 0 0 0 -7.877-13.90491l-200.7337 122.63837-.2109-.32833-5.6211 3.9033-4.707 2.86542 9.6699-7.59747-.1446-.20719 183.392-147.45376a249.99917 250.18666 0 0 0 -29.3651-30.85701l-161.2514 182.96656-2.3184 2.37091 151.2905-195.53064a249.99917 250.18666 0 0 0 -26.4154-17.96062l-119.2496 202.94829-.094-.0664-7.0644 11.68841 5.539-12.45265c-.2748-.15364-.5655-.24794-.8711-.35962l83.404-220.18189a249.99917 250.18666 0 0 0 -15.121-5.19332l-69.2811 225.07807c-.1088-.0378-.2229-.0651-.3808-.11531l-1.8809 7.53882-1.1289 3.69807 2.1055-11.46558c-.2011-.0197-.4082-.0561-.6133-.0743l40.1268-232.08917a249.99917 250.18666 0 0 0 -42.4354-3.64138zm-1.9453 235.66215 1.0117 8.77021v.043l.8711 4.45646v.46128l.029-.16807.023.62741v.1036l-.057-.1036v-.43977l-.066.30686-.2383-.49451-.5625-4.74964zm-9.3652 5.00568 7.0859 6.37391-.025-.0197zm25.7675 6.02013-11.8261 2.9006h-.057zm-12.1504.11531-1.6269 2.78332-.3496.40069.1113-.44954-.092.20719-.02.18179-.051.10553v-.0253l.051-.0802v-.16221l.02-.0197v-.10556l.012-.0234.082-.12118v-.0234l.033-.0272.061-.1505v.0197l-.061.13096-.033.0508zm-6.5292.23849 3.3242 2.54682.3633.56682-.4493-.16807.2012.13878h-.022l-.2188-.13878h.037zm5.0331.24627-.2968 1.58908.2968-.84047-.3339 1.37603-.1016.1505.1387-.68606.2617-1.56758zm-.582.38505-.086 1.71808-.057.19351-.1172-.46715zm3.1445.7447-2.2754 1.58908h-.023l-.4121.27757-.2871.11728.2129-.27557.074-.0215.8867-.71342zm-4.0429.57856.1348.14075v.0469l-.084-.1251zm3.8633.31665h.029l-.1738.0802zm-3.5254.18179.1835.3577v.0392l-.1835-.35376zm.416.0938.02.26385v.0392l.039.0958.047.11728-.047.0215-.039-.1192.039-.0197-.039-.0605v-.0352l-.057-.26192zm2.2207.0644-.07.0272-1.0156.30686.1562-.0605zm-5.6387.0665 2.3692.40655.3457.21498.029.0606-.3124.0644zm2.1641.31271h.053l.094.0314zm.7265.19155h.02v.0196zm-.164.0606h.02l.074.0802zm.2148.1818h.024l-.024.0314zm-.3359.16808h.057l.2461.0352-.8125.32836zm-.3887.0352h.2168l-.9316.47886.2637-.0527-.025.0272-.2383.0253-2.0253.39287v.0234l-5.2422.93428 5.2422-.95774zm1.7774.0234.5078.043.7519.2228-.8457-.0841zm-.2188.16418.035.0178.1113.22088.3282.16611 1.4394 1.4034-1.3496-1.00858-.2344-.2971-.1855-.26385-.018-.0333-.092-.18766h-.035zm-1.0625.0802-.25.27364h-.029l-2.7812 1.26461 2.2988-1.41316zm1.5703.0997.1485.0253.031.0314zm.2207.0253 1.9356.60398-1.9063-.57074zm-1.1796.17201.031.1251.022-.0978-.022.13092v.006l.076.23066.125 1.89594-.2324-1.35256.031-.77402-.088.50819v-.0919l-.031-.18569.031.14272v-.26385zm.7226.0919.061.0664.088.14661-.037-.0314zm-1.1406.1818-.2442.52578-3.9492 12.85138 3.9219-12.85138h.027l.084-.28732.01-.0117zm-.088.10552-.065.11339.041-.0978zm1.4648.0802.033.0234.1152.18962-.092-.0919zm-.4375.21306.023.0295.029.22669zm-1.7304.26581v.0295l.051-.0295zm2.2929 1.35257 4.8828 10.7893-4.8828-10.73457z" fill="#aa40bf"/></g><path d="m250.0293 19.150391c-33.62368-.000475-60.47935 4.798655-80.73828 12.824218-10.14801 4.020334-18.86494 9.005422-26.01563 15.541016-2.84368 2.598741-5.53431 5.802003-7.96875 9.441406-21.40457 20.376745-35.523134 49.165269-44.802734 80.095699-9.054027 30.18009-13.298611 62.94492-11.05664 93.80274-1.388698 27.65114 11.269765 56.45516 24.683594 80.79297l-.33594-.63867 1.36328 2.7246 2.0918 2.09375-.19141-.19726c3.17422 3.27259 6.59123 6.3706 10.01172 9.46289l-1.86328 5.94727c-1.37164 4.37606-2.11914 8.98612-2.11914 13.62695 0 5.00887.94714 9.75421 2.42969 14.32422l-6.7793-7.86914c-18.436529 13.64324-31.201171 31.51727-31.201171 52.1289 0 21.08942 12.590829 37.45814 29.728521 52.36719 15.03329 13.08025 33.13673 22.73901 52.18164 25.0957l13.4375 1.66211 5.32421-12.44922c8.29391-19.39234 17.17281-35.10653 26.22852-46.92382l4.38086-5.7168c13.0317 2.21639 26.85984 3.43164 41.26562 3.43164 14.34331 0 28.1157-1.2029 41.09766-3.40039l4.38086 5.7168c9.05178 11.81067 17.94194 27.52851 26.23242 46.87695l5.39649 12.5918 13.57421-1.84571c18.39337-2.50112 36.23012-11.98914 51.34571-24.96289h.002c8.66868-7.44205 15.79374-15.81511 21.09375-24.45508 5.30001-8.63996 9.25586-17.26148 9.25586-27.98828 0-20.54321-12.67823-38.39778-31.03516-52.02734l-4.63671-3.44141c.0707-1.04652.29101-2.05119.29101-3.11718 0-5.06412-.8844-10.10867-2.52734-14.88282l-1.83985-5.34765c10.57516-9.68333 19.9908-20.27474 27.92969-31.58008l1.48633-2.11524.83008-2.44726c6.1511-18.14137 8.95271-37.08285 7.55859-54.62695 2.73099-31.67415-1.49497-65.51644-10.82422-96.61329-9.34245-31.14149-23.56461-60.130391-45.22461-80.527339-2.34805-3.432504-4.92961-6.490894-7.68554-9.009766l-.002-.002c-7.14921-6.531893-15.86591-11.519055-26.01563-15.539016-20.25894-8.023684-47.11454-12.823744-80.73828-12.824218z" fill="#6a1f7a"/><path d="m367.53415 335.63995c-32.913 25.227-74.412 42.291-117.504 45.9567l-.7047.054-.7308-.054c-42.6006-3.6324-83.5173-20.4282-116.2125-45.171-.8604 2.745-1.2942 5.499-1.2942 8.2422 0 13.9905 11.2932 28.332 32.7942 39.5433 21.501 11.2122 52.2054 18.5067 86.202 18.5067 33.9993 0 64.7037-7.2945 86.2047-18.5067s32.7933-25.5528 32.7933-39.5442c0-3.0042-.5157-6.0273-1.548-9.027zm-248.0895 29.952c-15.633 11.5686-23.906702 24.723-23.906702 37.6605 0 10.3815 9.263702 26.3646 23.541302 38.7855 12.6396 10.998 28.6947 19.0944 42.579 20.8125 8.73-20.412 18.2268-37.3995 28.4913-50.7942-12.5217-3.3318-23.9994-7.6914-34.0587-12.9375-16.5825-8.6472-29.7846-20.0583-36.648-33.525zm261.252.0855c-6.8724 13.4325-20.0673 24.8112-36.6174 33.4422-10.1052 5.2686-21.6432 9.6273-34.2297 12.9654 10.2582 13.3848 19.764 30.3696 28.4913 50.7375 13.2174-1.7973 29.3004-9.8442 42.048-20.7855 14.5017-12.4497 24.0732-28.512 24.0732-38.7846 0-12.8988-8.217-26.0307-23.7654-37.575zm-122.1156-1.9962c55.773-7.7526 108.4743-40.0734 137.3328-81.1692 5.679-16.749 8.1207-34.614 6.6096-49.3875 2.6694-29.1942-1.2537-61.5186-10.0683-90.9-8.964-29.88-22.7943-56.844-41.625-73.9125-1.5786-2.754-3.7296-5.2623-6.1884-7.5096-5.139-4.6953-11.808-8.649-20.502-12.0924-17.3907-6.8877-42.246-11.5596-74.1105-11.56005s-56.7198 4.67055-74.1087 11.55915c-8.694 3.4443-15.3648 7.398-20.502 12.0933-2.5704 2.349-4.8195 4.977-6.4134 7.875-18.6363 17.0874-32.3595 43.8795-41.2605 73.548-8.505002 28.35-12.453302 59.4315-10.323002 87.8067-1.602 20.4912 9.619202 49.6053 22.473002 72.927l.0567.1134.027.027c30.5217 31.4676 75.1122 54.7443 121.7817 60.8067z" fill="#eed9f2" stroke-width="36"/><path d="m241.76005 363.90625v-229.6692c5.77113.23189 11.44729.19408 16.821-.0288v229.473c-6.20136 17.34659-11.64866 11.38759-16.821.225z" fill="#6a1f7a" filter="url(#a)" stroke-width=".9"/><path d="m149.68015 93.23035c.5112 1.1646 1.062 2.313 1.6866 3.4317 4.9518 23.3757.864 49.3533-7.9875 72.225-7.1487 18.468-17.2584 35.118-29.673 46.575-.072-22.3668 3.5262-46.4067 10.125-68.4 6.2514-20.8377 15.3243-39.753 25.848-53.8317z" fill="#6a1f7a"/><path d="m350.26765 92.89375c10.629 14.112 19.7982 33.165 26.1 54.1683 6.831 22.77 10.4382 47.7342 10.098 70.7625-14.625-12.0627-25.6878-31.2003-32.9643-51.6654-7.7985-21.9348-11.3157-45.9-7.227-66.4596 1.5696-2.1654 2.898-4.4478 3.9933-6.8067z" fill="#6a1f7a"/><path d="m250.03105 53.96875c30.2157 0 53.1513 4.7124 67.8078 10.5183 7.3287 2.9016 12.7512 5.6682 15.75 8.4096 2.9997 2.7387 3.15 4.9338 3.15 5.2587 0 9.486-7.4745 19.0332-23.1183 26.802-15.6438 7.7697-38.4057 12.6288-63.5904 12.6288-25.2882 0-48.0087-4.572-63.5922-12.0942-15.5826-7.5195-23.1462-16.6113-23.1462-27.3366 0-.324.684-2.52 3.6846-5.2596 2.9988-2.7423 7.9146-5.508 15.2433-8.4105 14.6565-5.805 37.593-10.5192 67.8096-10.5192z" fill="#6a1f7a"/><g stroke-width=".9"><path d="m421.52422 316.4523-2.07 13.86-10.44-8.37-10.08 12.6 11.34 9.09-13.59 5.31 5.94 15.12 12.33-4.77-2.07 13.77 16.02 2.52 2.34-15.21 12.42 9.99 10.08-12.6-11.34-9.09 13.59-5.31-5.94-15.12-14.76 5.76 2.25-15.03z" fill="#eed9f2" opacity=".9"/><path d="m455.62608 425.25237-2.07 13.86-10.44-8.37-10.08 12.6 11.34 9.09-13.59 5.31 5.94 15.12 12.33-4.77-2.07 13.77 16.02 2.52 2.34-15.21 12.42 9.99 10.08-12.6-11.34-9.09 13.59-5.31-5.94-15.12-14.76 5.76 2.25-15.03z" fill="#eed9f2" opacity=".9"/><path d="m68.078106 277.8873v19.26l-16.02-9.27-8.099996 14.04 17.378996 9.99-17.378996 10.08 8.099996 14.04 16.02-9.27v19.26h16.200002v-20.79l18.738002 10.8 8.1-14.04-17.370002-10.08 17.370002-9.99-8.1-14.04-18.738002 10.8v-20.79z" fill="#eed9f2" opacity=".9"/><path d="m450.7268 75.342048-5.67 18.450002-12.6-13.590002-11.88 10.98 13.68 14.760002-19.62 4.5 3.6 15.84 18.18-4.14-5.67 18.45 15.48 4.68 6.12-19.98 14.76 15.93 11.88-10.98-13.77-14.76 19.62-4.5-3.6-15.84-21.15 4.86 6.12-19.980002z" fill="#eed9f2" opacity=".9"/><path d="m308.8389 121.68733-2.43 12.879-9.45-8.118-10.62 12.294 10.44 8.928-12.96 4.554 5.4 15.282 11.88-4.176-2.43 12.897 15.84 2.925 2.61-14.031 11.34 9.711 10.62-12.294-10.44-8.928 12.96-4.554-5.4-15.282-14.13 4.986 2.61-14.103zm-1.35 169.18847-7.74 23.58-15.93-17.73-12.06 10.8 17.19 19.17-25.11 5.22 3.24 15.84 23.4-4.86-7.74 23.49 15.48 5.04 8.28-25.2 18.36 20.43 12.06-10.8-17.19-19.08 25.2-5.31-3.24-15.84-27 5.67 8.28-25.38zm-119.5045-111.12323-7.74 23.58-15.93-17.73-12.06 10.8 17.19 19.17-25.11 5.22 3.24 15.84 23.4-4.86-7.74 23.49 15.48 5.04 8.28-25.2 18.36 20.43 12.06-10.8-17.19-19.08 25.2-5.31-3.24-15.84-27 5.67 8.28-25.38z" fill="#6a1f7a" filter="url(#b)"/><path d="m308.8389 121.68733-2.43 12.879-9.45-8.118-10.62 12.294 10.44 8.928-12.96 4.554 5.4 15.282 11.88-4.176-2.43 12.897 15.84 2.925 2.61-14.031 11.34 9.711 10.62-12.294-10.44-8.928 12.96-4.554-5.4-15.282-14.13 4.986 2.61-14.103zm-1.35 169.18847-7.74 23.58-15.93-17.73-12.06 10.8 17.19 19.17-25.11 5.22 3.24 15.84 23.4-4.86-7.74 23.49 15.48 5.04 8.28-25.2 18.36 20.43 12.06-10.8-17.19-19.08 25.2-5.31-3.24-15.84-27 5.67 8.28-25.38zm-119.5045-111.12323-7.74 23.58-15.93-17.73-12.06 10.8 17.19 19.17-25.11 5.22 3.24 15.84 23.4-4.86-7.74 23.49 15.48 5.04 8.28-25.2 18.36 20.43 12.06-10.8-17.19-19.08 25.2-5.31-3.24-15.84-27 5.67 8.28-25.38z" fill="#eed9f2"/><path d="m60.417265 10.217049-15.569996 4.5 7.811996 27.072-26.423996-6.534-3.888 15.732 28.359 7.02-20.277 21.078 11.673 11.16 18.881996-19.602 7.812 27.072002 15.57-4.500002-8.352-28.944 30.204005 7.47 3.96-15.732-28.341005-7.011 20.241005-21.015-11.682003-11.232-21.609002 22.464z" fill="#eed9f2" opacity=".9"/></g></svg>