<svg height="500" viewBox="0 0 500.00052 500" width="500.00052" xmlns="http://www.w3.org/2000/svg" xmlns:xlink="http://www.w3.org/1999/xlink"><radialGradient id="a" cx="249.99998617249" cy="750.00002617249" gradientUnits="userSpaceOnUse" r="250.00000617249"><stop offset="0" stop-color="#d5f6ff"/><stop offset=".09472227" stop-color="#d5f6ff"/><stop offset=".20889115" stop-color="#aef"/><stop offset=".41332352" stop-color="#80e5ff"/><stop offset=".54340753" stop-color="#5df"/><stop offset=".74956214" stop-color="#2ad4ff"/><stop offset="1" stop-color="#0cf"/></radialGradient><radialGradient id="b" cx="250.00002" cy="749.99994" gradientTransform="matrix(.0000002 -.99999868 .99999894 .00000003 -499.9992 999.9996)" gradientUnits="userSpaceOnUse" r="250.00026"><stop offset="0" stop-color="#d5f6ff"/><stop offset=".80876225" stop-color="#d5f6ff" stop-opacity=".498039"/><stop offset="1" stop-color="#d5f6ff" stop-opacity=".1"/></radialGradient><filter id="c" color-interpolation-filters="sRGB" height="1.037627" width="1.036758" x="-.018379" y="-.018814"><feGaussianBlur stdDeviation="4.2771257"/></filter><filter id="d" color-interpolation-filters="sRGB" height="1.006065" width="1.005937" x="-.002968" y="-.003032"><feGaussianBlur stdDeviation=".68434011"/></filter><g transform="translate(0 -500)"><circle cx="250" cy="750" fill="url(#a)" r="250"/><path d="m250.5954 750.5602c-.0408.006-.1266-.0175-.17105-.0361-.0445-.0186-.0476-.0324.0769-.007-.12491-.0254-.10839-.0312-.0548-.0267.0536.004.14433.0192.16778.0347-.0232-.0155.0811.0108.16055.0336.0795.0228.13397.0421.011.0128.12284.0293.0546.0293-.0341.0205-.0887-.009-.19795-.0265-.15713-.0326l.00037.0004zm-.0786.0862c-.017-.008-.002-.009.013-.007.0154.001.0314.005.0172.007.0132-.002.024.002.0271.005.003.003-.002.006-.0191.003.017.004-.002-.002-.0199-.007-.0183-.005-.0364-.001-.0186-.001h.00015zm.39012.51097c.18919.17747.0741.10822-.0693-.00052-.14334-.10874-.31494-.25696-.23878-.23744-.0762-.0193-.15024-.0749-.175-.10563-.0248-.0307-.00021-.0365.1209.0437-.12095-.0799-.20967-.16284-.22861-.19259-.0189-.0298.0319-.006.19011.12629-.15799-.13264-.24085-.20382-.24329-.20725-.002-.003.0756.0609.23929.19925-.16384-.1385-.24576-.20775-.24576-.20775s.0819.0693.24576.20775c-.16384-.1385-.2604-.23503-.27055-.25406-.0102-.019.0661.0394.24785.21096-.18141-.17161-.27698-.25742-.28041-.25742-.003 0 .0853.0858.27241.25742-.18727-.17161-.28091-.25938-.28091-.26036 0-.00099.0936.0848.28091.26036-.18727-.17554-.276-.26135-.27254-.26036.003.00098.0991.0888.28054.26036-.18141-.17161-.26239-.25452-.25564-.25206.007.002.10124.0902.27074.26006-.1697-.16969-.25455-.25453-.25455-.25453s.0849.0848.25455.25453c-.1697-.16969-.2643-.25746-.27106-.25992-.007-.002.0743.0804.25596.25192-.18141-.17161-.2536-.22524-.24103-.20279.0126.0224.10991.12097.26753.25369-.15798-.13264-.18728-.17361-.15374-.1561.0335.0175.12991.0935.22324.1948-.0935-.1014.084.0693.23753.22092.15356.15164.26962.0942.0939.10673h-.00007zm3.66289 1.60326c1.17612.62414-.0829-.0449-1.34871-.71678-1.26582-.67193-2.53847-1.34678-1.38967-.73434-1.1488-.61244-1.74564-.92744-1.76017-.93376-.0145-.006.55325.29602 1.73367.91826-1.18-.62219.0995.0566 1.37996.73482 1.28047.67827 2.56191 1.35605 1.38579.73191l-.00044-.00006zm-2.41463 2.46924c0 1.05323-.0439-.0868-.56366-1.22877-.51978-1.14197-1.03957-2.2859-.56366-1.24047-.47591-1.04543-.71387-1.57595-.71387-1.58136 0-.005.23796.51427.71387 1.56926-.47591-1.05519.0439.0917.56366 1.239.51979 1.14734 1.03958 2.29516.56366 1.24193v.0002zm-1.62663-4.26364c-.004.002-.0156-.0157-.0223-.0279-.007-.0122-.008-.019.007.005-.0151-.0232-.0161-.0309-.0118-.029.004.002.0138.0135.0198.029-.006-.0155.008.006.0189.0261.011.0201.0195.0386.004.017.0151.0216.009.0177.00093.008-.009-.01-.0198-.0256-.016-.0279h-.00025zm-.0896-.14045c.006.0155-.009-.006-.0211-.0261-.0121-.02-.0215-.0386-.005-.017-.0151-.0216-.0131-.0216-.007-.0142.006.007.0166.022.0182.0297-.002-.008.0115.0108.0216.0258.0101.0151.0168.0267.001.005.0151.0216.0161.0285.0118.026-.004-.002-.0138-.0142-.0198-.03l.00025.0003zm-.10167.30429c.008.0293 0-.0107-.008-.0478s-.0165-.0714-.0109-.0307c-.006-.0409-.005-.0575-.002-.0555s.008.0224.01.0555c-.002-.0331.005.009.01.0492.005.0405.009.0794.001.0404.008.0393.0113.0508.0113.0453 0-.006-.004-.0282-.0113-.0574l-.0002.0005zm.20674-.95957c-.28235.20633-.40371.25065-.38125.22195.0225-.0287.1805-.14171.43225-.28385-.25162.14238-.31209.19407-.26729.18087s.19489-.0913.36439-.20847c-.1697.11705-.30817.18923-.34518.19893-.037.01.0275-.0431.26358-.17593-.23604.13265-.21639.0897-.12171.0146.0947-.0751.26438-.18239.32845-.17852-.0643-.004.18737-.15612.38142-.25898.19406-.10286.33055-.15645.036.0366.29452-.19312.0887-.0439-.15313.12434-.24186.16824-.5198.3555-.36958.23845-.15023.11706-.22923.17558-.23166.17558-.002 0 .0717-.0585.22766-.17558-.15609.11706-.29849.21945-.3428.24967-.0443.0302.009-.0117.2457-.18337-.23601.17161-.39788.27497-.42808.28664-.0302.0117.0713-.0684.36198-.26354l-.00039.00029zm-.30425.0509c-.008.006-.0113.009-.0113.009s.004-.003.0113-.009c-.008.006-.008.004-.005.00054.003-.004.009-.009.0127-.009-.004 0 .003-.005.008-.009.006-.003.0105-.005.003.0005.008-.006.0113-.009.0113-.009s-.004.003-.0113.009c.008-.006.003-.004-.003-.00054-.006.004-.0123.009-.008.009-.004 0-.01.005-.0125.009-.003.004-.003.005.005-.0005zm.74505-1.20927c-.79969 1.1371-1.18099 1.67347-1.16841 1.65101.0126-.0225.41905-.60372 1.19491-1.70191-.77626 1.0981-1.15757 1.63252-1.15316 1.6227.004-.01.39455-.56386 1.16116-1.6427-.76652 1.07859-1.15369 1.62373-1.15614 1.62766-.002.004.37981-.53337 1.15214-1.61966-.77236 1.08639-1.14392 1.61105-1.13424 1.5989.01-.0122.40058-.56111 1.15314-1.622-.75286 1.06104-1.1293 1.58668-1.1293 1.58324 0-.003.37644-.53595 1.1293-1.59124-.75286 1.05519-1.12442 1.5779-1.12098 1.57447.003-.003.38187-.53303 1.12898-1.58247-.74702 1.04934-1.11176 1.54962-1.10548 1.53355.006-.0161.38356-.54848 1.12058-1.56455-.73725 1.01618-1.10587 1.52816-1.10588 1.53011.00001.002.36863-.50613 1.10588-1.53011-.73725 1.02398-1.11465 1.55645-1.12093 1.57056-.006.0141.35858-.49012 1.10583-1.53956-.74702 1.04934-1.12541 1.58376-1.12885 1.59057-.003.007.36808-.51398 1.12085-1.57507-.75286 1.06104-.84065 1.17319-.64268.8855s.68169-.97523 1.07181-1.51357c-.3901.53834-.57151.78799-.56232.77573.009-.0122.20897-.28642.58122-.79573-.37253.50909.37058-.56657 1.00691-1.47792.63633-.91134 1.16587-1.65837.3662-.49201.79967-1.16636.25648-.39984-.38912.52369-.64559.92353-1.39357 2.00407-1.00349 1.46575-.3901.53834-.83676 1.23854-1.00938 1.53452-.17262.29597-.0712.18772.63483-.89086-.70605 1.07858-1.11369 1.68029-1.15083 1.72325-.0371.043.29625-.47284 1.07223-1.62925-.77628 1.15661-1.14686 1.66372-1.13525 1.61541.0116-.0483.40543-.65205 1.15795-1.71715-.75286 1.06494-1.14392 1.63251-1.15359 1.65546-.01.0229.36203-.49875 1.13469-1.61236-.77237 1.1137-1.16146 1.69688-1.16342 1.71543-.002.0186.38322-.52752 1.15942-1.67233-.77626 1.14491-1.17219 1.73491-1.17751 1.74714-.005.0122.37999-.55332 1.16621-1.71954-.78601 1.16636-1.17901 1.74466-1.17901 1.74122 0-.003.393-.58861 1.17901-1.74922-.78601 1.16051-1.17122 1.72809-1.16591 1.71925.005-.009.40114-.5941 1.17721-1.73925-.77626 1.14491-1.16439 1.692-1.16439 1.67488 0-.0171.38813-.59844 1.16439-1.71038-.77626 1.11175-1.16147 1.66665-1.15951 1.66516.002-.001.39109-.55936 1.16351-1.67316-.77237 1.11369-1.15855 1.65006-1.15855 1.63637 0-.0137.38618-.57744 1.15855-1.66397-.77237 1.08639-1.17999 1.67054-1.19449 1.69876-.0145.0282.36413-.4995 1.16429-1.63686l.00081.001zm-.84542.97129c0 .21651.006.32183.01.31936.004-.002.006-.11271-.002-.32736.008.21452.006.31204.002.30567-.004-.006-.01-.11666-.01-.31777v-.004-.004c0 .19506-.008.25065-.0146.22236-.006-.0283-.01-.14046-.00046-.28096-.009.14043-.008.20578-.004.20234.004-.003.0118-.0756.0155-.21034-.004.13457-.0237.12882-.0358.0786-.0121-.0502-.0168-.14485.009-.18807-.0255.0431-.0383.0744-.0383.0807 0 .006.0127-.0122.0383-.0686-.0255.0566-.0383.0701-.0383.0602 0-.01.0127-.0431.0383-.0802-.0255.037-.0383.0409-.0383.0311 0-.01.0127-.0333.0383-.0511-.0255.0178-.0383.046-.0383.0592s.0127.0112.0383-.0316c-.0255.0432.002-.1597.0297-.31385.0278-.15415.0561-.25959.0323-.0216.0232-.23796.0213-.0897.0116.0936-.01.18334-.0269.40178-.0343.30425.008.0975.003.17654-.003.19746-.006.0209-.0123-.0162-.008-.15106-.004.13457-.003.24282-.001.27063.002.0278.005-.0248.005-.21203v.004.004c0 .19505.006.30721.01.31702.004.01.006-.0827-.002-.29702.008.21452.0183.33836.0232.35011.005.0117.004-.0886-.0119-.32251.0151.23403.0161.35594.0114.3599-.005.004-.0151-.11003-.0227-.3478.008.23796.006.33842.002.32528-.004-.0131-.01-.13986-.01-.35628l-.00085.00019zm-.23811-1.19757c.19113 1.38871.27693 2.06844.27015 2.05824-.007-.0102-.10611-.71033-.28525-2.08134.17934 1.37115.26901 2.07916.26901 2.09481 0 .0156-.0897-.66105-.26901-2.05931.17934 1.39846.26901 2.10354.26901 2.10747 0 .004-.0897-.6933-.26901-2.09947.17934 1.40627.26901 2.1094.26901 2.1094s-.0897-.70313-.26901-2.1094c.17934 1.40627.26901 2.10355.26901 2.09962 0-.004-.0897-.70906-.26901-2.10762.17934 1.39846.26901 2.09769.26901 2.09769s-.0897-.69923-.26901-2.09769c.17934 1.39846.26901 2.07526.26901 2.05961 0-.0156-.0897-.72376-.26901-2.09511.17934 1.37115.26901 1.98749.26901 1.94015 0-.0473-.0897-.75835-.26901-2.0419.17934 1.28338.25833 1.97188.25158 2.00455-.007.0327-.0992-.59049-.26288-1.93045.16385 1.33995.20873 1.93483.18346 1.88266-.0253-.0522-.1207-.75138-.23746-1.99964.11698 1.24828.0887 1.13516.0292.6305s-.15018-1.40087-.15812-1.71878c.008.31791-.14654-.89039-.25472-1.82659-.10818-.93621-.17044-1.60032.0208-.19406-.19113-1.40627-.12867-.74897-.0204.18285.10826.93182.26232 2.13816.25438 1.82999.008.30817.0113.46909.0113.4735 0 .004-.004-.14767-.0113-.4655.008.3179.14601 1.16829.23773 1.64225.0917.47396.13671.57149-.0427-.61633.17934 1.18781.26901 1.85388.26901 1.9031 0 .0492-.0897-.51844-.26901-1.79807.17934 1.27949.2749 1.8929.27926 1.87434.004-.0186-.0825-.66907-.26796-1.91744.18519 1.24828.28173 1.96994.2842 2.03673.002.0668-.0891-.52126-.2802-1.89243.19113 1.37116.2867 2.07136.2867 2.08156s-.0956-.6696-.2867-2.05846l-.00052.00029zm.15988 2.16108c0 .0194.001.00083-.002-.0187-.003-.0195-.006-.0399-.002-.0244-.004-.0155-.001-.00085.002.0152.003.016.006.0335.002.0235.004.01.006.0208.006.0242 0 .003-.002-.00061-.006-.0202v.0002zm-.0465-.83474c.017.037-.003-.00002-.0232-.038-.0198-.038-.0391-.077-.0199-.0438-.0193-.0331-.0289-.0536-.0289-.0565 0-.003.01.0116.0289.0485-.0193-.0371.0004-.00098.0204.0366.02.0375.0404.0765.0227.0453.017.0309.0255.0514.0255.0549 0 .003-.008-.01-.0255-.0469zm-.0862.29258c-.002.002-.003-.002-.003-.005s.001-.006.003-.003c-.002-.004 0-.006.002-.006s.004.002.002.006c.002-.004.003-.006.003-.006s-.001.002-.003.006c.002-.004 0-.00097-.002.003-.002.004-.004.008-.002.005zm-.008.37839c.006.004-.005.0256-.0148.0392-.01.0137-.0181.0194-.008-.008-.009.0271-.005-.00026.002-.0285.007-.0282.0151-.0572.0132-.0334.002-.0232.0105-.0367.0157-.0382.005-.001.007.009-.004.0342.0113-.0254.0134-.0147.011.002-.002.0162-.009.0378-.015.034l.00015-.0003zm-.47591 1.48232c.36279-1.20537-.0683.1853-.48761 1.5506-.41936 1.36531-.82703 2.70525-.41748 1.39845-.40957 1.3068-.006-.0331.41107-1.39845.4169-1.3653.84695-2.75597.49001-1.5506.35694-1.20537.53931-1.80805.54176-1.80805.002 0-.17502.60268-.53776 1.80805.36279-1.20537.55782-1.85291.56747-1.88362.01-.0307-.16608.55539-.54477 1.81732.37838-1.26193.59293-1.92898.61042-1.95338.0175-.0244-.16208.59384-.57192 1.90248.40957-1.30873.57535-1.88216.5481-1.82707-.0273.0551-.24754.73871-.6101 1.94405l.0004.00011zm.42126-1.3692c.002-.008.006-.0147.008-.0167s.002.00086-.004.0127c.006-.0116-.002.002-.009.0155s-.0137.0271-.006.0155c-.008.0116-.004.00077.001-.0109.005-.0117.0124-.0242.01-.0167l-.0001.0003zm.0465-.59678c.002.002-.00083-.001-.004-.004-.003-.003-.006-.005-.004-.00046-.002-.004.00082-.006.004-.006.003 0 .006.002.004.006.002-.004.003-.002.003.0005 0 .002-.001.005-.003.003.002.002.003.003.003.003s-.001-.001-.003-.003zm-.0431.0464c.006.01-.004.00032-.013-.01-.009-.01-.0176-.0198-.01-.0105-.008-.01-.009-.015-.006-.015.002 0 .008.005.0142.015-.006-.01.00098-.00032.008.01.007.01.0132.0198.008.0105.006.01.008.015.008.015s-.003-.005-.008-.015h-.0002zm-.36283-.0276c.20678.0741-.0673-.006-.32618-.0853-.25893-.0795-.50275-.15849-.23553-.0824-.26722-.0761-.0332-.0498.21894-.006.2521.0434.52224.10379.3272.0961.19504.008.34523.0448.38139.0682.0361.0234-.0417.0331-.30279-.014.26133.047.39787.0802.4013.0865.003.006-.12623-.0141-.3973-.0744.27112.0605.35796.10046.32528.10684-.0327.006-.19578.001-.39178-.0947l-.00027-.00013zm.13644-.094c.0151.004-.0004.00012-.0162-.004-.0158-.004-.0318-.008-.0178-.004-.0132-.004-.0113-.006-.005-.006.006 0 .0166.002.0202.006-.004-.004.009-.00013.0185.004.01.004.0165.008.00041.004zm-1.67735-1.60324c.33155.31597.49247.47102.48903.46906-.003-.002-.17121-.16096-.49703-.47306.3257.31204-.60758-.51884-1.35849-1.19515s-1.31944-1.19804-.26425-.26768c-1.05519-.93036-.48176-.40569.27257.27258.75433.67826 1.68957 1.51012 1.35799 1.19415.33156.31597 1.01323.86892 1.36724 1.13954.35401.27063.38035.25894-.59875-.55437.97912.81333 1.52525 1.30874 1.56335 1.3692.0381.0605-.4318-.31403-1.48475-1.24051 1.05324.92645 1.50964 1.36335 1.46183 1.34575-.0478-.0176-.59986-.48971-1.5635-1.38125.96351.89135 1.47744 1.35945 1.49934 1.37454.0219.0151-.44823-.42284-1.45284-1.34354 1.00446.9206 1.54766 1.39065 1.57589 1.39747.0282.007-.45851-.44961-1.51389-1.38197 1.05518.93231 1.54182 1.38871 1.51359 1.3819-.0282-.007-.57133-.47685-1.57559-1.3974 1.00446.9206 1.5067 1.3809 1.5067 1.3809s-.50224-.4603-1.5067-1.3809c1.00446.9206 1.50279 1.3809 1.49984 1.3809-.003 0-.50718-.4603-1.50784-1.3809 1.00057.9206 1.46673 1.35847 1.44385 1.34338-.0229-.0151-.53479-.48314-1.49035-1.37438.95571.89135 1.43942 1.33702 1.44335 1.33702.004 0-.47193-.44567-1.43535-1.33702.96351.89135.94311.87975.5989.56627-.34421-.31347-1.01223-.92883-1.34396-1.24498l-.00009.00022zm1.88802 1.19756c.0132.01.0199.0216.0199.0264 0 .005-.007.003-.0199-.0143.0132.0177.007.007-.002-.006-.009-.0133-.0203-.029-.0165-.0213-.004-.008-.0148-.0205-.0206-.0268-.006-.006-.007-.006.009.0113-.0151-.0177-.00045-.005.0144.01.0149.0147.03.0313.0158.0213zm1.55252.10946c-.0151.01-.0226.015-.0226.015s.008-.005.0226-.015c-.0151.01-.00045.002.0149-.006.0154-.008.0314-.0172.0191-.009.0113-.008.021-.0116.024-.0116.003-.00001-.00069.004-.016.0116.0151-.008-.003.001-.0219.009-.0184.008-.0368.0161-.0213.006h.00055zm-.45245.15991c.0874-.0359-.0195.009-.12728.0408-.10775.0321-.21207.0623-.10667.0289-.10526.0331-.13351.04-.11707.0333.0164-.007.0776-.0272.15107-.0488-.0741.0215.0322-.01.13019-.0384.098-.0287.18765-.055.0803-.0235.10715-.0309.15005-.0417.1433-.0384-.007.003-.0632.0208-.1546.0464l.00036-.00015zm-1.47844.71775c.24967-.0975.37059-.1463.36763-.1463-.003 0-.1298.0488-.37563.1463.24576-.0975-.0643.0497-.36081.18431-.29647.13458-.57929.25649-.27895.10826-.30038.14823-.0927.003.15212-.14772.24478-.15067.52663-.3067.37452-.17993.15212-.12678.34618-.20869.4271-.22084.0809-.0121.0487.0455-.25173.19774.30038-.15215.41156-.18629.38531-.15799-.0263.0283-.18994.11901-.43931.21659l-.00013-.00021zm4.0023.0121c2.90418.46419 3.21332.55683 2.43071.46125-.78262-.0956-2.65698-.37937-4.11979-.66803 1.46281.28866 1.48633.30911 1.00172.22425-.48462-.0849-1.47738-.27502-2.04713-.40759.56953.13264 2.72184.30818 4.00084.38278 1.27899.0746 1.68468.0482-1.23903-.22287 2.93541.16968 4.40312.20773 4.40411.15702.001-.0507-1.4647-.19018-4.39611-.37551 2.9315.0819 76.25114.66804 125.46589 1.04204 49.21474.37399 74.32459.53587-19.16351-.23064 93.5096-2.39708 140.22635-5.18327 140.18536-6.85869-.041-1.67542-46.83971-2.24007-140.36106-.19407 93.33785-5.23301 68.266-3.76433 19.12877-.96595-49.13724 2.79838-122.33987 6.92647-125.26358 7.01229 2.92371-.12484 4.38557-.20675 4.38557-.22576 0-.019-1.46186.0249-4.38557.15166 2.92371-.15602 2.55802-.10726 1.30633-.0209-1.25168.0863-3.38936.21015-4.00959.20429.62023.006.58801.0323.35345.0478-.23455.0155-.67145.0202-.86055-.0168.18918.0371.54123-.0644.71775-.1463.17651-.0819.17748-.14436-.33549-.0293.51295-.11505.76943-.17258.76943-.17258s-.25648.0575-.76943.17258c.51295-.11505 2.61454-.62411 3.87842-.93326 1.26388-.30914 1.69005-.41837-1.14783.26626 2.83788-.6846 2.42049-.57538 1.16246-.26624-1.25803.30913-3.3567.81818-3.88137.93324.52469-.11505.78703-.17258.78703-.17258s-.26234.0575-.78703.17258c.52469-.11505.77824-.17258.77243-.17258-.006 0-.27099.0575-.78373.17258.51295-.11505.51195-.0526.33543.0293s-.52856.18334-.71769.14631c.1892.0371.61927.0321.84943.0164.23016-.0156.26041-.0419-.35004-.0474.61046.006.92253.009.92695.009.004 0-.29882-.003-.91895-.009.62024.006 73.34696-13.58943 122.94742-22.90328 49.60045-9.31384 76.07463-14.34606-15.81022 2.78653 90.3635-25.3088 134.42765-42.02204 133.2496-46.29398-1.17805-4.27193-47.5983 3.89745-138.2036 28.35391 87.66405-32.41227 62.48493-23.04824 15.2167-5.53434-47.26823 17.51389-116.62558 43.17767-117.31799 43.36491.69241-.18726.99765-.2721.96985-.26576-.0278.006-.38867.10383-1.02845.28126.63974-.17747 2.59213-1.00836 3.71021-1.51743s1.40187-.69634-1.29558.41344c2.64089-1.22487 3.92719-1.90557 3.89109-1.97382-.0361-.0683-1.39464.47592-4.0434 1.70083 2.56675-1.34775 67.45659-35.45885 111.02238-58.3613 43.5658-22.90246 65.80754-34.59627-16.92191 8.89056 81.25885-46.29154 121.1071-70.81724 120.28399-72.2708-.82312-1.45356-42.31759 20.16502-123.74419 66.16205 79.7824-48.69058 58.33745-35.58953 16.32617-9.94136-42.01127 25.64817-104.58888 63.84347-107.07178 65.34141 2.45949-1.53499 3.67754-2.32102 3.66588-2.34009-.0117-.0191-1.25304.72879-3.71238 2.26159 2.43999-1.56425 2.78717-1.74076 2.18936-1.3258s-2.14061 1.42139-3.48056 2.22301c1.33995-.80163 1.27948-.75773.77919-.45345s-1.4404.86894-1.85972 1.10883c.41936-.2399 2.12989-1.53693 3.15825-2.34295s1.37456-1.12102-.93475.60317c2.29564-1.75344 3.43567-2.64089 3.42752-2.65261-.008-.0117-1.16447.85226-3.46152 2.60171 2.28397-1.76514 59.45893-47.66464 97.83806-78.49755s57.96243-46.59923-14.93692 11.90201c67.563-65.15611 98.41982-100.78951 95.34205-104.01162-3.07778-3.22212-40.09015 25.96706-108.26555 90.45613 61.89305-70.0478 44.41815-50.16998 11.25252-12.56663-33.16564 37.60334-82.02201 92.9322-82.8919 93.7865.86989-.8543.94397-.91475.69722-.66362s-.81433.81384-1.22775 1.20588c.41349-.39205 45.75517-58.87768 76.66951-98.80155 30.91434-39.92386 47.40135-61.28596-9.8945 12.56907 52.29305-77.72859 75.82207-118.36778 73.06611-120.23677-2.75596-1.869-31.79691 35.03218-84.64381 112.38434 47.4325-80.53721 34.71468-58.84646 9.75938-16.408s-62.14809 105.62463-63.66553 108.07828c1.50574-2.46145 2.25276-3.69997 2.24747-3.70581-.005-.006-.76289 1.22101-2.26637 3.69031 1.49792-2.46924 2.24688-3.70387 2.24688-3.70387s-.74896 1.23463-2.24688 3.70387c1.49792-2.46924 1.14977-1.88997.39788-.64754-.75189 1.24242-1.90752 3.148-2.02455 3.33134.11697-.18333 1.03465-2.2069 1.6237-3.53076.58904-1.32386.84945-1.94801-.34811.66752 1.11175-2.66234 1.62276-4.00814 1.57548-4.02526-.0473-.0171-.65286 1.29442-1.77428 3.94676 1.02788-2.6877 27.02126-71.24731 44.47274-117.28578 17.45147-46.03846 26.36103-69.55579-6.77872 17.84109 30.19655-88.52228 43.80083-133.30028 42.22733-133.84299-1.57349-.5427-18.32477 43.14989-48.83931 131.56879 27.50499-89.33561 20.09336-65.29459 5.59727-18.23361-14.4961 47.06099-36.07665 117.14194-36.90949 119.88619.79969-2.75986 1.18198-4.14272 1.16243-4.14806-.0195-.005-.44095 1.36685-1.24863 4.11706.75872-2.76961.84555-2.98319.64516-2.18108s-.688 2.61992-1.07818 3.91306c.39006-1.29314.40859-1.36432.28764-.97032-.12094.39401-.38136 1.25319-.54918 1.82076.16781-.56758.20485-.60465.17315-.43545-.0317.16919-.13213.54464-.23925.8021.10733-.25747.20779-.51592.23945-.60515.0317-.0892-.005-.009-.17335.41009.16781-.41936.19899-.41736.1628-.27153-.0362.14583-.13974.43548-.2414.59143.10148-.15602.13757-.20868.12789-.19213-.01.0165-.0651.10231-.14679.22313.082-.12091.14343-.28865.15741-.3618.014-.0731-.0195-.0517-.12721.20578.10734-.25747.20193-.62903.22914-.7958.0272-.16676-.013-.12872-.17514.433.16195-.56172.24878-.84649.25313-.84894.004-.002-.0738.27742-.24183.84494.16781-.56758.57935-2.63211.80363-3.85113.22427-1.21902.26128-1.59253-.31997 1.22194.52074-2.82227.74798-4.2373.71336-4.24175-.0346-.004-.33108 1.40168-.85773 4.22175.46032-2.82617 12.94894-75.08771 21.34506-123.61395 8.39612-48.52625 12.69973-73.3172-3.20995 18.79777 7.65154-93.55049 7.26047-140.69924 2.82031-141.08787-4.44016-.38862-12.92941 45.98289-21.47424 139.47291.0215-93.49002.014-66.27565.002-15.61905s-.0284 124.75544-.0247 125.03435c-.004-.27892-4.74063-74.22173-7.98417-124.77154s-4.99401-77.70664.97432 15.58639c-12.23857-92.89709-21.50828-138.94093-24.82572-138.51476s-.68261 47.32235 10.88792 140.30526c-17.84703-91.76389-13.00703-67.07143-3.57996-18.73243 9.42707 48.33901 23.44121 120.32456 23.94247 123.14683-.53441-2.81447-.82113-4.21781-.84208-4.21392-.021.004.22385 1.415.75248 4.22942-.57538-2.81447-.86306-4.2217-.86306-4.2217s.28768 1.40723.86306 4.2217c-.57538-2.81447-.4944-2.21276-.2418-.83771.2526 1.37506.67682 3.52346.78794 3.80237-.11112-.27893-.20571-.50127-.23255-.55783-.0268-.0566.0141.0526.17395.43684-.15988-.38425-.32273-.78604-.3793-.92939-.0566-.14335-.007-.0283.25836.62121-.26527-.64949-.91964-2.6204-1.27657-3.74824s-.41642-1.4126.50807 1.3102c-.98107-2.6994-1.49598-4.04032-1.52282-4.03206-.0268.008.43441 1.36571 1.40566 4.06306-1.03372-2.67989-1.55351-4.01594-1.55875-4.0111-.005.005.50407 1.35056 1.52855 4.0342-1.04347-2.6838-26.98304-71.26389-44.39186-117.31748-17.40882-46.05358-26.28689-69.58066 6.79263 17.84157-36.02194-86.30853-55.48432-128.865-57.0138-128.23354-1.52948.63145 14.87394 44.45082 50.58362 130.89394-38.55536-85.14804-28.23066-62.21097-7.95553-17.34032 20.27512 44.87065 50.50066 111.67488 51.74698 114.26115-1.26777-2.58042-1.91336-3.8599-1.92502-3.85066-.0117.009.61059 1.3072 1.87852 3.88166-1.2912-2.56677-1.57889-3.16166-1.33412-2.68965.24478.472 1.02202 2.0109 1.86068 3.71169-.8387-1.70078-.89426-1.74175-.64508-1.18832s.8031 1.70126 1.18336 2.37809c-.38034-.6768-.56173-1.0074-.55546-1.00199.006.005.20021.34684.57056 1.01409-.37059-.66705-.49152-.88452-.44758-.80504.0439.0795.25276.4559.54168.97667-.28866-.52076-.31786-.58415-.23884-.44908.079.13506.26624.46858.41043.74165-.14438-.27307-.21657-.4057-.21657-.40275 0 .003.0722.14148.21657.41075-.14438-.26915-.33162-.60462-.41059-.74261-.079-.13799-.0497-.0785.239.44229-.28866-.52076-.50614-.905-.55641-.98984-.0503-.0849.0667.12969.4468.80649-.38034-.6768-1.42967-2.44194-2.01773-3.41911-.58806-.97716-.71485-1.16636.74993 1.30874-1.51939-2.43999-2.31127-3.64243-2.34347-3.62245-.0322.02.69527 1.26237 2.21459 3.71205-1.57401-2.40294-40.06021-64.81772-65.88178-106.74516-25.82156-41.92745-38.97849-63.36757 10.10608 16.17882-56.36201-75.06235-87.94409-110.06089-91.52742-107.39953-3.583333 2.66137 20.83207 42.98263 76.46502 118.5599-61.91255-70.04194-43.91046-49.64238-10.3766-11.68357s82.59949 93.47687 82.81404 93.67191c-.21457-.19506-.38231-.38229-.4243-.44323-.042-.0609.0418.004.3302.31454-.28866-.31011-.30331-.30708-.21457-.19878.0887.1083.28089.32188.40581.43288-.12491-.1112-.18737-.15703-.18737-.15021 0 .007.0625.0663.18737.16571-.12491-.0995-.239-.19992-.27407-.23509-.0351-.0352.009-.005.19997.15659-.19114-.16188-.30426-.26624-.31587-.28238-.0116-.0162.0783.0559.29317.24688-.21456-.19113-.31892-.28279-.31695-.27984.002.003.11025.10051.32095.28784-.21064-.18726-52.72776-52.44322-88.62633-88.17073s-55.17859-54.92657 11.08497 10.99996c-70.73934-61.42955-108.192845-89.7492-110.388182-87.23235-2.195336 2.51685 30.8675 35.87021 101.160852 97.78665-74.125557-56.93699-54.19663-41.61831-15.16142-11.62701 39.0352 29.9913 97.17669 74.6552 99.47625 76.40864-2.31712-1.73003-3.48055-2.58432-3.48676-2.57316-.006.0112 1.1448.88778 3.45656 2.61956-2.32687-1.71638-1.86462-1.29216-.75141-.41398 1.1132.87818 2.87736 2.21033 3.15432 2.3098-.27693-.0995-.74112-.31694-.96397-.43202-.22284-.11508-.20432-.12777.4842.18234-.68852-.31011-2.49365-1.34384-3.49422-1.94555s-1.19659-.7714 1.33312.64657c-2.57261-1.36335-3.87354-2.02064-3.88969-1.99432-.0162.0263 1.25247.73629 3.81899 2.10744-2.59238-1.3242-67.44425-35.49567-110.97614-58.4483-43.531892-22.95263-65.743797-34.68642 16.94376 8.86476-84.154282-40.76987-126.920123-59.73977-127.646899-58.24671-.726777 1.49306 40.585512 23.44906 124.587489 64.531-85.291017-38.2031-62.385447-27.88824-17.48715-7.74029 44.8983 20.14796 111.78932 50.12901 114.46922 51.25831-2.70526-1.07273-4.07251-1.57692-4.08757-1.54327-.0151.0337 1.32206.60512 4.02557 1.68372-2.72865-1.01422-2.20398-.78505-.90938-.28088 1.29459.50418 3.35912 1.28336 3.7102 1.36917-.35108-.0858-.53248-.13361-.53682-.13705-.004-.003.16837.0375.52552.12905-.35694-.0917-.45349-.10135-.39742-.0759.0561.0254.26478.0859.51837.13454-.25355-.0487-.3745-.0672-.37058-.0633.004.004.13269.0302.37858.0713-.24575-.0409-.36862-.0613-.36862-.0613s.12287.0204.36862.0613c-.24575-.0409-.37448-.0672-.37841-.0711-.004-.004.11694.0145.37041.0631-.25355-.0487-.4564-.10425-.50814-.12625-.0517-.022.0476-.0104.39853.0753-.35108-.0858-.47006-.10129-.43196-.0822.0381.0191.2333.0728.51056.12529-.27695-.0525-.38324-.0652-.36077-.056.0225.009.17369.0405.41177.076-.23796-.0349-.38912-.0622-.41159-.0687-.0225-.006.0838.008.36059.0566-.27695-.0486-.41542-.0769-.41542-.0799s.13847.0194.41542.0719c-.27695-.0525-2.40292-.71079-3.76433-1.14431s-1.95826-.64229.82306.2042c-2.80082-.80163-4.21196-1.17318-4.22213-1.14343-.0102.0298 1.38061.4608 4.18363 1.26441-2.82076-.75285-72.9815-21.99401-120.07146-36.2853-47.089955-14.29129-71.109127-21.63271 18.35326 5.41392-91.892817-19.02059-138.7221855-24.40476-139.6483943-20.05774-.9262087 4.34703 44.0507423 18.42524 135.7705643 38.32939-92.765257-11.48219-65.846677-8.06503-15.64024-1.79244 50.20645 6.27259 123.70075 15.40061 124.08694 15.34015-.38619.0605-.77043.0907-.9011.0907-.13068 0-.008-.0302.62028-.0907-.62805.0605-74.49137-4.32993-124.86775-7.35799-50.376372-3.02805-77.265802-4.69373 16.05394.81624-93.700667.77822-140.5376405 4.34849-140.5227855 7.69982.014855 3.35132 46.8815385 6.48372 140.5881855 6.38621-93.266312 6.48323-68.20814 4.77855-19.10442 1.39016s122.25299-8.46049 125.16888-8.71209c-2.91589.25161-4.37676.37741-4.37922.37742-.002-.00001 1.45348-.12581 4.37122-.37742-2.91786.25161-4.32997.37352-4.29731.37107.0327-.002 1.51012-.12926 4.37141-.37507-2.86129.24575-4.33582.37252-4.36602.37497-.0302.002 1.38392-.11942 4.29992-.37097-2.91591.25161-2.36004.26434-.9806.18731 1.37944-.077 3.58245-.2438 3.96084-.35119-.37839.10726-1.78953.45541-2.62674.65728-.83722.20187-1.10052.25746.81676-.2204-1.91728.47785-2.75987.69532-2.6804.68016.0795-.0152 1.08101-.26296 2.85199-.71566-1.771.45254-1.84215.52958-1.2843.42717.55784-.1024 1.74468-.38425 2.48967-.64952-.74506.26527-.69243.26225-.40086.17003.29157-.0922.82208-.27361 1.03279-.36509-.21063.0917-.31595.13751-.31595.13751s.10532-.0458.31595-.13751c-.21063.0917-.28084.13751-.25691.13751.0239 0 .142-.0458.30791-.13751-.16574.0917-.22328.13361-.20637.13066.0169-.003.10828-.0508.24037-.13866-.13266.0878-.19313.1317-.1892.1317.004 0 .0722-.0439.1972-.1317-.12492.0878-.18444.1317-.18248.1317.002 0 .0654-.0439.18648-.1317-.12095.0878-.18142.1317-.18142.1317s.0605-.0439.18142-.1317c-.12095.0878-.1425.13559-.11571.13854.0268.003.10191-.0389.17431-.13054-.0722.0917-.23504.1882-.3218.22226-.0868.0341-.0974.006.13472-.15256-.23209.15795-.26913.18227-.21498.14513.0541-.0371.19948-.13573.33214-.22363-.13266.0878-.22431.13559-.24122.13853-.0169.003.0409-.0389.20722-.13053-.16574.0917-.2486.13751-.2486.13751s.0829-.0458.2486-.13751c-.16574.0917-.39491.21259-.4949.26326-.1.0507-.0708.0311.28022-.15822-.35108.1892-.48469.27404-.4564.26764.0283-.006.21848-.10401.515-.27974-.29645.17554-.44956.26917-.45301.2731-.003.004.14277-.0818.44501-.2651-.30233.18333-.49056.27889-.51546.28134-.0249.002.1135-.0882.46446-.27734-.35108.1892-.84063.34425-1.05615.38568-.21551.0414-.15699-.0308.58809-.29608-.74508.26527-1.11761.4018-1.11761.40425 0 .002.37253-.12918 1.11761-.40025-.74508.27113-1.93191.55199-2.48973.65194-.55782.0999-.48663.019 1.28437-.43356-1.771.45253-2.7862.70025-2.87495.71541-.0888.0152.74892-.20222 2.6837-.67991-1.93482.47786-3.64632.86112-4.15586.95961-.50955.0985.18286-.0878 3.05587-.74898-2.86713.68266-4.3007 1.03861-4.29881 1.0527.002.0141 1.43923-.31369 4.31391-.9985-2.86128.70802-74.07864 18.14975-121.87835 29.8538-47.799715 11.70406-72.181767 17.67043 18.62759-4.57228-90.072482 25.2971-134.684798 39.4622-134.2395155 41.06111s45.9481635-9.36837 136.1060755-34.33604c-89.219167 27.97485-65.262795 20.48617-18.29947 5.77654 46.96332-14.70962 116.93358-36.64017 119.74221-37.54907-2.77937 1.02008-4.15638 1.58278-4.14229 1.6364.0141.0536 1.41928-.40181 4.20429-1.41802-2.75596 1.0981-2.27517.95474-1.00203.48126 1.27315-.47348 3.33865-1.27707 3.75213-1.49944-.41348.22237-1.66566.87967-2.38146 1.25317-.71581.3735-.89526.4632.83673-.44962-1.73199.91281-68.64983 31.628-113.8913 52.35319-45.241477 20.72519-68.806587 31.46036 16.16689-7.58688-81.434412 46.7965-120.064073 73.87541-117.871206 77.75004 2.192868 3.87464 45.208264-15.455 127.063966-61.47562-77.148727 52.90954-54.82467 37.68934-13.11397 9.14521 41.71071-28.54412 102.80807-70.41218 103.20596-70.79837-.39791.38619-1.05325.95181-1.3658 1.20634-.31255.25454-.2823.19798.69097-.66021-.97327.8582-59.08862 46.43314-98.56013 77.35489s-60.299192 47.19031 13.30287-10.56429c-69.670772 62.78067-102.393843 96.54049-100.167818 99.03835 2.226025 2.49787 39.401148-26.26621 109.526758-88.53334-65.62655 66.69909-48.0085 48.82241-13.46646 13.73654 34.54205-35.08587 86.00808-87.38093 88.07751-89.51861-1.98359 2.21959-2.92955 3.36742-2.88273 3.40936.0468.0419 1.08643-1.02202 3.07397-3.22601-1.90167 2.29566-1.66957 2.10549-.85868 1.18879s2.20058-2.55993 2.61408-3.17043c-.4135.61049-.62025.90987-.62025.90595 0-.004.20675-.31117.62025-.91395-.4135.60269-.50326.77043-.42332.67828.0799-.0922.32959-.44419.59491-.88109-.26527.43689-.36765.61729-.34714.59191.0205-.0254.16391-.25655.39024-.64281-.22624.38619-.22057.44957-.13873.36082.0818-.0888.23984-.32964.31826-.55199-.078.22237-.12775.36183-.13498.38081-.007.019.028-.0825.11988-.34211-.0917.25941-.34228.65925-.48223.84405-.13996.18479-.16925.15455.18176-.4462-.35108.60073-.43007.73823-.36474.62705.0653-.11118.27497-.47103.50118-.86501-.22625.39398-.3696.62315-.39011.64462-.0205.0215.0818-.16474.34701-.60152-.26527.43688-.51491.79479-.59487.89085-.08.0961.01-.0697.42328-.68021-.41348.61048-1.02493 1.48524-1.30188 1.87581s-.2194.29694.70513-1.02936c-.92451 1.32629-2.04894 2.85543-2.5029 3.44788-.45397.59244-.23747.24819 1.51988-2.17229-1.73199 2.43412-2.57945 3.6668-2.56192 3.67999.0175.0132.90004-1.1931 2.62802-3.63689-1.70077 2.45559-43.56483 62.71894-71.65641 103.15416s-42.41068 61.04231 10.97847-15.81462c-50.79118 78.67473-74.86788 118.85976-73.47513 119.76057 1.39276.90081 28.25497-37.4826 79.34164-115.94476-48.38961 80.10771-35.41134 58.63834-9.95045 16.49938 25.46089-42.13897 63.40438-104.94753 64.94522-107.51819-1.50378 2.59797-2.23422 3.91061-2.21136 3.92422.0229.0136.79903-1.27184 2.30846-3.87002-1.46475 2.61942-1.1244 2.10354-.39006.85331.73434-1.25022 1.86266-3.23478 1.97384-3.5527-.11112.3179-.20865.58804-.23696.66412-.0283.0761.0126-.0419.17836-.50024-.16573.45833-30.14366 68.25122-50.61983 114.52793-20.47618 46.27672-31.45059 71.03726 6.3907-14.56908-30.17688 88.99834-41.28059 134.87657-37.088 136.3253 4.1926 1.44872 23.6815-41.53204 54.68986-130.25167-22.84093 90.78123-16.31674 65.05036-4.02575 16.33698 12.29098-48.71339 30.34876-120.40928 30.57501-121.55808-.22625 1.1488-.58415 3.15482-.75137 4.13492-.16723.98009-.14378.93425.39269-2.02066-.51489 2.95491-.76064 4.43724-.74805 4.44162.0126.004.28354-1.46921.80205-4.42612-.49151 2.96271-13.84173 75.14134-22.81786 123.5642-8.97613 48.42287-13.57818 73.08997 3.42665-18.97035-10.81066 93.21302-13.07131 140.19979-9.75675 140.59963 3.31457.39984 12.20435-45.78724 23.69455-138.9219-5.1316 93.48961-3.73314 68.42842-1.01814 19.24587 2.715-49.18256 6.74655-122.48648 6.88113-125.48234-.0624 2.99977-.0604 4.49966-.0248 4.50066s.10475-1.49689.17672-4.49266c-.008 2.99586-.008 4.49379-.005 4.49379s.009-1.49793.0127-4.49379c-.004 2.99586-.006 2.57651-.006 1.26241 0-1.31411.002-3.52298.006-4.10615-.004.58317-.006.89232-.006.90497 0 .0127.002-.27119.006-.87397-.004.60268-.006.69631-.006.55393s.002-.52077.006-.86212c-.004.34135-.006.5081-.006.50563 0-.002.002-.17414.006-.50963-.004.33549-.006.4964-.006.49148 0-.005.002-.1757.006-.50358-.004.32769-.006.49836-.006.50329 0 .005.002-.1559.006-.49119-.004.33549-.006.49151-.006.48315 0-.008.002-.18111.006-.50315-.004.32183-.006.48761-.006.49104 0 .003.002-.15548.006-.48304-.004.32769-.006.43691-.006.39937 0-.0375.002-.22183.006-.48117-.004.25941-.006.39301-.006.39546 0 .002.002-.12625.006-.39146-.004.26527-.006.32279-.006.27156 0-.0512.002-.21124.006-.38101-.004.16968-.006.25452-.006.25452s.002-.0848.006-.25452c-.004.16968-.006.32573-.006.37446 0 .0487.002-.01.006-.26943-.004.25941.004.34621.0102.31702.007-.0292.0124-.17438.005-.37892.008.20478.0161.32669.0194.34033.003.0136.002-.081-.0114-.30933.0132.22817.0199.34226.0199.34226s-.007-.11409-.0199-.34226c.0132.22817.024.3257.0261.31397.002-.0117-.005-.13272-.0261-.34157.0215.20871.0323.31306.0323.31306s-.0108-.10435-.0323-.31306c.0215.20871.0282.33452.0261.34968-.002.0152-.0128-.0803-.0261-.31418.0132.23403.0329.38715.0413.41156.008.0244.006-.0799-.0262-.36066.031.28086.0661.71678.0797.91914.0136.20235.006.17114-.0495-.48225.0548.65339.0452.76847.0199.62366-.0253-.14482-.0662-.54952-.0739-.9357.008.38618.016.45933.0194.3774.003-.0819.002-.31892-.0114-.553.0132.23403.006.43102-.004.48563-.01.0546-.0222-.0332-.0185-.36865-.004.33548-.006.69729-.006.82942 0 .13214.002.0346.006-.54857-.004.58317.004.74019.0102.64804.007-.0921.0124-.43346.005-.84695.008.41349.071 1.13905.11197 1.49501.041.35595.0596.34229-.0224-.72264.082 1.06493.2205 3.1285.28729 4.17686.0668 1.04836.0619 1.08151-.14291-1.91436.26529 2.99587.42034 4.48893.44567 4.4855.0253-.003-.0791-1.50338-.33267-4.4935.30425 2.99001 8.80814 75.90504 14.52827 124.82337s8.65651 73.83997-2.17424-19.15679c13.97095 92.62421 22.52262 138.70011 24.17513 138.45138s-3.59414-46.82211-17.21985-139.49645c16.75417 92.10679 12.21648 67.42594 3.37079 18.97771s-21.99938-120.66384-22.47725-123.62655c.55782 2.95685.8699 4.42456.90698 4.41574.0371-.009-.20081-1.49414-.74295-4.44334.61633 2.94124.9245 4.41187.92449 4.41187.00001 0-.30816-1.47063-.92449-4.41187.61633 2.94124.60471 2.75011.38532 1.61156-.21938-1.13856-.64653-3.22454-.86124-4.073.21453.84843.31303 1.2512.30723 1.23659-.006-.0146-.11589-.44657-.31853-1.26759.20285.82113.25358.95376.21898.7636s-.15455-.70312-.29308-1.17317c.13852.47005.21165.70898.21409.71193.002.003-.0658-.23008-.21009-.70393.14438.47393.27211 1.0064.31009 1.20828.038.20187-.0138.0732-.22849-.77526.21453.84843 22.61523 71.40051 37.88516 119.4334 15.26992 48.03288 23.40909 73.54657-4.89944-15.68178 30.50858 88.5297 46.86392 132.41322 48.02298 132.01285 1.15905-.40038-12.87817-45.08467-43.15472-133.69058 38.17185 85.68261 60.03423 127.29117 62.95743 125.99804 2.9232-1.29312-13.09278-45.48794-50.67763-131.41206 42.9173 83.18137 30.87049 59.7878 7.92125 15.27755-22.94923-44.51025-56.8009-110.13718-57.49331-111.42251.69241 1.28533 1.68128 2.96856 2.12109 3.68193s.33058.45689-1.17322-2.13718c1.53303 2.57652 2.31223 3.85405 2.32683 3.84289.0146-.0112-.73539-1.31102-2.26073-3.88929 1.55256 2.56093 39.29145 65.49949 64.60805 107.73126 25.3166 42.23176 38.21089 63.75671-9.92576-16.50957 53.61345 76.97727 83.02985 113.65415 85.78045 111.74907s-21.1646-42.39213-74.21435-119.7427c57.98435 73.45575 42.41308 53.77511 11.8898 15.13907-30.52328-38.63605-75.99856-96.22751-77.82222-98.59338 1.90167 2.31127 2.87786 3.43277 2.90906 3.39815.0312-.0346-.88259-1.22538-2.76091-3.5386 1.95238 2.2469 1.6169 1.89095.71823.87819-.89866-1.01276-2.36051-2.68233-2.66087-3.06266.30038.38032.97328 1.04054 1.33118 1.36187.35789.32133.40079.30378-.55883-.67144.95962.97521 2.3454 2.36782 2.96662 2.98758.62121.61975.47786.46664-1.6208-1.64958 2.12791 2.08696 3.2104 3.11288 3.22797 3.09539.0176-.0175-1.02975-1.07839-3.16147-3.16509 2.15522 2.05575 56.75561 51.05829 93.41542 83.91813 36.65982 32.85983 55.37907 49.57698-14.22798-12.93804 71.71735 60.15714 108.5893 89.0285 109.65816 87.75443 1.06887-1.27407-33.66536-32.69357-105.16036-93.11811 73.44545 57.94907 53.6983 42.46362 15.02026 12.0111-38.67805-30.45252-96.28698-75.87212-98.56509-77.79134 2.31712 1.86656 3.50298 2.77351 3.5284 2.74722.0254-.0263-1.10962-.98584-3.4343-2.85225 2.35807 1.81974 2.08307 1.61103 1.08738.84402-.99568-.76702-2.71206-2.09234-3.23676-2.5058.5247.4135 64.01125 38.47314 107.31521 64.40018 43.30397 25.92703 66.42535 39.72146-13.7803-8.39547 84.51215 40.91028 128.6192 57.57769 130.56671 53.59297 1.94752-3.98473-38.26451-28.62159-122.39051-70.31987 87.1667 33.86299 62.10366 24.16154 15.08559 5.91876s-115.99116-45.02688-116.64457-45.32919c.65341.30231.65541.35497.43308.28816-.22232-.0668-.66896-.25307-.91285-.42861.24382.17554.36083.25844.35738.25501-.003-.003-.12735-.0932-.36538-.26301.23796.16968.67194.35498.88746.42374.21552.0688.21259.021-.42326-.27547.63585.29645.9684.44761.97855.44908.0102.001-.3021-.14677-.95585-.44908.65339.30231 2.69158.97521 3.86379 1.33263 1.1722.35742 1.47842.39935-1.33215-.56025 2.81057.9362 4.21586 1.39455 4.21586 1.38524 0-.009-1.40529-.48629-4.21586-1.42074 2.81057.9206 72.71207 23.0542 119.62774 37.8985 46.91568 14.8443 70.84552 22.39929-18.28723-5.83731 91.03245 22.24467 137.31227 30.29118 138.11487 27.05395.8026-3.23722-43.87202-17.75819-134.74847-40.64846 92.00375 16.65278 67.2996 12.20287 18.87042 3.45178-48.42919-8.7511-120.58341-21.80339-123.47982-22.35536 2.89641.50323 4.35046.73143 4.35438.7066.004-.0248-1.44228-.30271-4.34638-.81163" fill="url(#b)"/></g><g opacity=".9"><path d="m81.904297-18.923828c-1.947411 5.916992-3.266975 12.0170453-4.668915 18.07991182-1.699173 7.75211358-3.384796 15.51454718-4.644214 23.35249718-1.231084 8.498046-1.240399 17.4266 1.799457 25.565638 1.86994 5.029237 5.045505 9.555222 9.154787 13.008045 11.517678 10.265001 25.071218 17.905067 38.865338 24.657274 16.70652 8.132268 33.95373 15.085752 50.75136 23.024132-5.98392 16.74639-10.14674 34.3402-10.28202 52.19655-.11856 13.7817 2.297 27.62368 7.48995 40.41037 6.05831 15.10068 15.76634 28.54366 27.29808 39.94206 4.84963 4.83744 10.06898 9.28704 15.44126 13.5311.96133-.78692 1.92395-1.57226 2.88671-2.35742.38616-.2955 1.05082-.82155 1.54368-1.20538 3.98152-3.09683 8.28407-5.74267 12.67426-8.21415.81922-.28439-.53138-.7016-.76206-1.05026-8.96965-6.61616-17.45039-13.97944-24.66306-22.50378-3.11714-3.66827-5.98193-7.55229-8.55063-11.62409-.20864-.33472-.62698-1.02401-.91589-1.49445-6.61868-10.94732-10.79895-23.39189-11.85149-36.15539-.0663-.63154-.0966-1.20459-.1491-1.9225-.76245-11.33335.61912-22.72256 3.19773-33.75578.33796-1.43296.74654-3.08202 1.149-4.58935 1.09089-4.10791 2.34003-8.17278 3.70452-12.19776 4.86848 2.54772 9.71775 5.2399 14.37691 8.03064 12.5242 7.53391 24.55509 16.18535 34.40762 27.06131 2.85851 3.1494 5.54416 6.55142 7.86707 10.02444.99003 1.47307 1.92256 2.97007 2.76832 4.4422 3.14742 5.63855 4.80552 11.96118 6.08936 18.24797 1.90536 9.69474 2.69782 19.65727 3.00634 29.46883.18821 6.13293.12138 12.27031-.0664 18.40234 4.65483-.59236 9.34478-.91243 14.03865-.82475 2.08868.0271 4.17506.13331 6.26213.21342.447-15.69688.36713-31.51332-2.29269-47.03342-1.85094-10.72993-5.01414-21.40537-10.79212-30.71469-8.02793-13.32039-19.18452-24.51687-31.54127-33.85372-11.46233-8.67792-23.95501-15.89431-36.73135-22.443088 7.49906-16.997498 16.55098-33.24154 24.91238-49.816528 5.41753-10.708486 10.65551-21.52301 15.15347-32.654252 2.89412-7.9459519 5.35717-16.04172816 7.85693-24.1178906 1.27848-4.1457754 2.49285-8.3105274 3.67879-12.4835954-7.04623 0-14.09245 0-21.13867 0-2.9864 9.546635-5.8155 19.1459618-9.05485 28.6109331-1.4753 3.9352889-3.3087 7.7267119-5.07029 11.5398489-9.79208 20.571617-21.41715 40.229207-30.72881 61.035383-1.34583 3.007102-2.64384 6.035528-3.88043 9.089226-20.93941-8.526151-41.43614-18.190197-60.95706-29.662762-8.17456-4.832172-16.18686-9.962386-23.838259-15.587636-2.705368-2.798401-3.454322-6.849854-3.644045-10.600076-.292644-6.916057 1.417105-13.690146 2.765536-20.419057 2.006788-9.2162856 4.126909-18.5023367 6.862898-27.57355.65481-2.181298 1.49383-4.299476 2.28749-6.43231-7.20182 0-14.403643 0-21.605466 0-.153645.451172-.307291.902344-.460937 1.353516zm247.134763 4.908203c.81103 3.894975 1.42183 7.8723239 1.95505 11.7454438.45469 3.2979232.82882 6.5565138 1.15828 9.8228788.50753 5.5726864 1.03766 11.1752504.75386 16.7754274-.30252 4.051079-2.29822 7.755775-4.58813 11.026723-2.9881 4.161297-6.82427 7.818041-10.615 11.098277-8.23091 7.078349-17.27965 13.113671-25.74329 19.897451-6.92434 5.617889-13.50151 11.962429-17.84744 19.839558-4.45878 7.915802-6.47324 17.391776-4.63963 26.369396 1.61589 8.227 6.19907 15.59235 11.91022 21.61637 8.06967 8.64623 18.09713 15.06007 27.54169 22.05732 5.35115 3.99497 10.75164 8.06306 15.08938 13.18554 3.02525 3.52304 5.5266 7.80829 5.72484 12.5543.20725 4.69122-1.19583 9.27155-2.76049 13.63978-1.11104 3.01267-2.48812 6.09063-3.86707 8.87935-4.92406 9.91112-11.07931 19.17213-17.89453 27.87695-1.66792.46241-3.33585.9248-5.00391 1.38672.46822.63531.14854.96716-.53174 1.12101-5.69848 2.31574-11.53929 3.97279-17.41532 5.75846-10.72512 3.16366-21.51325 6.10982-32.32442 8.96428-1.56511.89258-3.13021 1.78516-4.69532 2.67773 1.82113.39893 3.62759.93813 5.45775 1.25064 19.79266-.51435 39.58502-1.04134 59.37819-1.53579 18.78376-5.21482 37.37219-11.24368 55.36967-18.7623 14.88722-6.29701 29.45464-13.67565 42.35138-23.50151 9.25912-7.08914 17.67342-15.57414 23.4187-25.79945 3.99496-7.26329 5.30665-15.74848 4.72258-23.95233-.73514-10.18923-3.87152-20.00453-7.24543-29.58341-2.88184-8.1488-6.04483-16.21435-8.35323-24.55335-.1866-.70049-.45474-1.70359-.64579-2.52653-1.16461-4.953038-2.00454-10.119079-1.22921-15.198076.7195-4.635256 3.55276-8.742173 7.28471-11.503043 5.40623-4.066923 11.82982-6.528882 18.29504-8.346389 11.15996-3.088448 22.73539-4.33536 34.26631-5.001044 4.6369-.02628 9.28555.393996 13.87565.689477 9.90856.696922 19.80252 1.606882 29.71579 2.225453.9362.03383 1.8724.06769 2.8086.101562 2.15467-6.677403 4.30773-13.355328 6.46093-20.033203-4.1448-.155525-8.17361-.444868-12.30664-.740235-11.51302-.821153-23.08759-1.774672-34.64551-2.303683-3.61072-.190681-7.22901-.165311-10.83376.123926-14.44045.942114-28.93665 3.062508-42.61493 7.939167-8.60814 3.122042-16.96678 7.648277-23.11084 14.572339-5.09295 5.668201-8.28785 12.934485-9.25006 20.478042-.99002 7.20385-.11788 14.530107 1.60878 21.552907 2.66425 11.08211 7.09703 21.61591 10.735 32.39121 1.85969 5.54903 3.67739 11.35036 4.60573 17.21699.82768 5.35087.93248 11.12034-1.55519 16.07536-2.99471 5.61439-7.43291 10.31364-12.15733 14.51342-9.02326 7.87512-19.37947 14.05497-29.99378 19.52389-11.25348 5.75884-22.94453 10.63128-34.83303 14.91448 5.54264-9.16234 10.31619-19.00293 12.31723-29.59444 1.37501-7.356 1.32033-15.13626-1.26095-22.23115-2.67912-7.62465-7.75095-14.15895-13.54549-19.68873-10.41576-10.05293-23.15604-17.21391-34.08357-26.64783-3.59356-3.19315-7.06752-6.68746-9.35976-10.95847-2.8172-5.23872-2.3915-11.85047.55144-16.941956 2.8139-4.892716 6.88068-8.921505 11.10563-12.603873 3.0826-2.656097 6.16059-5.024681 9.43782-7.473179 9.86465-7.364577 20.29775-14.220066 28.53025-23.490189 5.80766-6.492763 10.31316-14.33341 12.03941-22.931417.89281-5.236417.74061-10.582222.54885-15.870063-.44843-9.1853344-1.37962-18.3567229-2.95524-27.419102-.18933-1.021861-.37858-2.043736-.56781-3.065617-7.00846 0-14.01692 0-21.02539 0 .16016.798177.32032 1.596354.48047 2.394531zm-355.857419 128.960935c1.207949 5.99279 2.413593 11.98604 3.623047 17.97852 15.4028098 4.14577 30.840322 8.16906 46.173923 12.56634 1.26247.42403 2.619526.66318 3.797679 1.28466 4.736023 3.24855 7.915728 8.2063 10.690085 13.12581 2.225666 4.01555 4.229834 8.15188 6.293974 12.24926 4.940844 12.92873 8.460705 26.32 12.923868 39.40977 3.511074 10.22463 7.340816 20.46458 13.167144 29.62939 4.508794 7.10469 10.472974 13.42579 17.863011 17.55762 11.487389 6.62304 24.442158 10.22719 37.452118 12.37289 16.35866 2.6966 32.95928 3.20428 49.45265 4.62066 8.12612.80466 16.4053 1.15489 24.59725 1.68789 5.01263.30488 10.06957.64238 14.94767 1.05821 1.27395.12472 2.51108.22359 3.69913.36555 2.42927.22355 4.83369.6381 7.21298 1.17156.72372-5.30144 1.73618-10.57029 3.28321-15.69727.14137-.46977.3955-1.28189.58007-1.88281.21485-.69466.42969-1.38932.64453-2.08398-5.71309-1.38843-11.59701-1.78478-17.43724-2.27733-10.75592-.85578-21.54199-1.28421-32.29928-2.12234-12.56167-1.23185-25.17712-1.99388-37.6834-3.31127-10.04084-1.09221-20.17565-2.52214-29.93215-5.41868-5.78731-1.75703-11.49553-4.00976-16.558082-7.36062-3.071767-2.20122-5.556175-5.11162-7.703125-8.19726-.253462-.38212-.721402-1.05966-1.038055-1.56623-2.95238-4.62535-5.308415-9.64533-7.328833-14.67661-4.261645-10.67819-7.361962-21.76565-10.847696-32.70892-3.529213-11.06625-7.237377-22.16556-12.751151-32.42845-4.233194-7.82305-9.822189-15.14863-17.322228-20.09045-2.649542-1.71581-5.451691-3.27159-8.524572-4.07627-11.023475-3.22499-22.1643724-6.03081-33.3060618-8.8124-6.652948-1.61116-13.2946802-3.30148-20.0259342-4.55864-1.383365-.22678-2.785472-.30355-4.177734-.45899.177734.88347.355468 1.76693.533203 2.65039zm4.449218 135.05469v20.94141c5.330662 4.31236 10.498709 8.8219 15.7360196 13.24658 15.0440744 12.77784 30.0105834 25.6346 45.1172774 38.34085 2.599011 2.25236 5.569313 4.01305 8.371288 5.99328 17.042908 11.50175 34.668597 22.28654 53.455986 30.71456 12.9668 5.76224 26.55998 10.45255 40.68482 12.27168 5.78821.7443 11.66128.9813 17.46974.31852 9.63531-1.01504 19.17151-2.95921 28.46757-5.67992 5.38691-1.61073 10.71866-3.54213 15.5886-6.38906.22981-.41137-.37916-1.12904-.47739-1.66021-2.33266-5.75961-3.97712-11.77063-5.22419-17.8514.0589-1.02996-.67163-.3247-1.19629-.072-5.85236 3.40566-12.36991 5.42023-18.86005 7.21575-6.45515 1.73127-13.11141 3.15963-19.78244 4.12752-2.99393.4434-6.02871.7069-9.0508.40329-3.44778-.24437-6.86782-.79603-10.24545-1.52046-1.06743-.23306-2.38101-.53276-3.53575-.83299-6.85751-1.74338-13.59-4.15151-20.06645-6.83148-16.386432-6.84579-31.925256-15.56322-46.921207-25.0391-5.329082-3.40109-10.625103-6.8623-15.780057-10.52199-8.191916-6.5147-16.125634-13.29561-24.162972-19.97873-14.47733-12.1207-28.8748955-24.33623-43.407248-36.38905-2.014771-1.6911-4.109671-3.28231-6.181007-4.90275zm412.607421 27.95508c-11.33366.31296-22.61129 2.26103-33.40961 5.71135-13.72731 3.38214-27.35805 7.1393-41.00951 10.81289-13.38324 3.62434-26.75145 7.29386-40.11604 10.98162 2.2315 6.03502 4.46496 12.06931 6.69336 18.10547 22.88682-6.34367 45.78982-12.71692 68.7481-18.72735 3.57729-.90454 7.14226-1.86622 10.75581-2.61836.45288.35995 1.11499-.22823 1.65782-.27546 12.34971-3.91982 25.50487-5.06914 38.37865-3.78256 1.30543.12294 2.65084.27561 4.02887.45834 7.81939 1.04295 15.54588 2.77921 23.08556 5.09142 3.46399 1.1885 6.67459 3.01585 9.67332 5.10006.28621.21781.9408.66864 1.36289.99075 7.95963 5.99656 14.52338 13.62195 20.46328 21.5698 1.14241 1.54568 2.19908 3.15751 3.56151 4.52497 16.84747 18.80276 33.69381 37.60652 50.54201 56.40862 0-10.22656 0-20.45312 0-30.67969-16.40271-18.79881-32.78214-37.6187-49.19941-56.40433-7.58502-8.23884-16.5363-15.51442-27.02369-19.68374-4.79194-1.90033-9.83535-3.0554-14.84136-4.23419-10.93306-2.42928-22.1473-3.66512-33.35156-3.34961zm-70.16211 81.5957c-.44173.61928-.95544 1.3655-1.31586 1.85587-3.08426 4.27085-6.65943 8.15604-10.4107 11.8453 8.83743 7.79663 18.3035 14.84436 27.89205 21.68155 10.60777 7.46781 21.44901 14.65807 32.90187 20.77451 5.58723 2.88314 11.32888 5.727 17.5713 6.84531 8.44842 1.608 17.04053 2.2679 25.60674 2.89839 20.03672 1.3175 40.1267 1.69164 60.2034 1.54947 13.1843-.15592 26.38305-.44584 39.52129-1.62324 2.41572-.21983 4.82306-.51414 7.22718-.83497 0-6.74154 0-13.48307 0-20.22461-8.37905.8625-16.83277 1.17003-25.20814 1.41063-21.19612.53269-42.40732.44237-63.60046-.18211-10.34324-.34792-20.79467-.7734-31.13914-1.76164-4.65169-.49676-9.37287-.90951-13.83742-2.39266-.4556-.1565-1.25928-.43386-1.83789-.65625-7.46389-2.91366-14.35985-7.07541-21.08005-11.39515-2.17026-1.40861-4.39508-2.90758-6.50393-4.37048-11.7425-8.18382-23.10313-17.15169-33.95979-26.56465-.47248-.53473-.91937-.86085-1.22073-.00082-.2699.38185-.53981.7637-.80972 1.14555zm-122.81836 27.8086c-22.6282 8.87793-45.26724 17.73238-67.88867 26.625-17.1458 8.69705-33.743024 18.68669-48.572265 30.97851-5.731836 4.809-11.212524 9.96295-16.033203 15.69141-8.164913 13.09711-15.76128 26.54167-22.91582 40.21533-4.282057 8.16009-8.515641 16.34529-12.867383 24.47021h24.085937c6.585803-14.5371 13.282385-29.12171 22.148397-42.44276 1.351974-2.0412 2.648207-3.91981 4.089722-5.89847 3.554224-4.87723 7.359448-9.58352 11.480976-13.99139 6.979669-6.17652 14.555959-11.64711 22.403949-16.66347 1.27217-.79564 2.73126-1.7263 4.09059-2.54924 8.31714-5.07578 16.89658-9.72989 25.66795-13.96758 19.01333-6.82931 38.02748-13.65635 57.04029-20.48709 0-7.68359 0-15.36718 0-23.05078-.91016.35677-1.82031.71354-2.73047 1.07032z" fill="#00b7e5" filter="url(#c)" opacity="1"/><path d="m141.97688 428.05119c-15.03 7.344-29.7 15.804-42.120005 25.029-3.78 2.808-7.29 5.697-10.62 8.622-18.499134 20.11604-28.022905 40.87317-37.456955 61.63671h-19.470354c10.397778-19.4478 18.274614-36.09456 34.157309-61.63671 6.66-7.758 14.76-14.922 23.76-21.609 12.150005-9.045 25.920005-17.19 40.050005-24.327l67.71079-26.5453v18.71219zm240.41338-8.63319c-18.9-6.165-57.52955-34.29561-71.11955-46.27461 3.87-3.825 7.38-7.992 10.44-12.438 13.14 11.448 47.17955 38.77761 65.89955 43.38561s105.18374 4.941 129.66374 2.421v16.272c-28.62 3.843-115.98374 2.799-134.88374-3.366zm-231.66-49.194c-35.01-.585-75.717001-24.534-109.035001-47.664-1.998-1.35-60.128938-51.23-62.063938-52.58v-19.98c4.797 3.6 66.014938 55.64 71.297938 59.33 32.355 22.41 72.801001 44.28 99.981001 44.73 6.93.09 33.22927-5.04 44.38927-11.43 1.17 5.58 2.79 10.98 4.86 16.137-11.16 6.381-37.45927 11.655-49.42927 11.457zm313.47-37.224c-10.8-15.21-23.58-28.17-36.09-31.68-22.77-6.57-44.01-8.01-65.52-1.17-.23748-.94991-78.95588 20.99617-78.95588 20.99617l-5.29959-14.33617s62.73623-17.34274 79.12547-21.24c25.02-8.01 49.95-7.11 75.15.09 12.33 3.51 22.68 11.43 31.59 21.15l48.4536 55.56767v24.69984zm-240.78564-55.36229c-7.30959-1.64897-37.42084-2.76729-45.85897-3.63806-29.39193-2.8008-63.48256-1.90082-89.785881-17.53428-13.699308-8.16545-20.983188-23.03995-26.767837-38.6755-5.811245-15.72201-10.079913-32.76465-15.482628-46.64099-4.96941-9.58866-9.734877-20.97558-18.009348-26.28955-1.553319-.99756-47.165514-13.02852-48.990714-13.54599l-3.37693-16.76324c4.774775.23163 53.159475 12.60248 57.256942 14.43949 14.456149 6.63586 22.268883 21.03659 28.220653 36.27125 5.960721 15.32466 10.229517 32.45909 15.571239 46.89856s11.773121 25.53796 19.854893 30.33646c20.447441 12.22271 52.412671 12.39354 83.040431 15.40443 8.89705.87013 39.55543 1.97004 47.94216 3.95287-1.63438 5.10326-2.86254 10.40011-3.61401 15.78455zm86.36682-27.63778c-.92173 0-59.33115 1.53396-59.33115 1.53396s53.77206-14.05958 52.41104-16.43702c7.7777-2.12555 16.20745-4.51365 24.7753-7.33004 35.71921-11.64975 74.52676-30.53066 87.18202-51.88735 3.2764-5.46836 3.72613-11.84823 2.33828-19.86086-1.44588-8.12591-4.78179-17.42868-8.2918-27.07129-3.45198-9.52932-7.05045-19.48414-8.43021-29.574564-1.26649-10.148463-.008-21.090169 7.18752-30.353938 7.19552-9.26377 18.58416-14.669396 30.9594-18.149292 12.28958-3.507519 25.96363-5.150135 38.73703-5.759289 8.07905-.420795 44.31869 2.797245 51.15167 3.014835l-5.19286 16.103434c-5.18068-.06303-39.34253-3.272995-45.11722-2.960184-12.0329.658814-24.62662 2.176985-35.1562 5.211849-10.50196 2.949207-18.68282 7.497971-22.64586 12.603062-3.96303 5.10509-4.79138 10.606357-3.83461 18.19629.95677 7.589937 4.09096 16.638527 7.54293 26.167847 3.45198 9.52933 7.22176 19.53939 9.02981 29.76792 1.80805 10.22854 1.48864 21.18949-4.3072 30.95184-17.38752 29.28706-58.9969 46.8862-96.19152 59.00582-7.91581 2.55383-15.54982 4.82028-22.81638 6.82697zm-96.68118 2.27007c-26.1-20.61-40.14-43.11-45.54-66.42-6.12-26.46-1.08-53.01 8.1-78.12-34.83-16.56-69.237-27.99-92.475001-49.68-9.324-9.09-10.512-22.5-8.586-35.46 1.098-7.38 6.515212-33.307051 9.197212-40.867051h17.288999c-3.401999 8.7300004-9.341211 35.647051-10.457211 43.207051-1.557 10.53-.09 17.64 3.843 21.42 27.369001 19.98 60.759001 35.64 87.129001 46.26 11.34-28.71 28.71-55.71 39.78-81.81 1.62-3.78 8.24223-25.657051 9.32223-29.077051h17.01c-1.53 5.58-8.87223 29.527051-11.30223 35.287051-12.51 30.15-29.07 56.79-40.23 82.71 28.26 14.31 55.17 31.86 70.38 58.5 11.07 19.35 12.33 47.34 11.61 72.54-5.49-.27-11.25-.18-16.29.45.72-24.39-1.62-51.39-9.36-64.89-12.51-21.69-35.91-37.8-62.28-51.39-8.01 22.77-11.88 45.54-6.93 67.23 4.77 20.52 17.37 40.95 43.65 60.48-4.95 2.79-9.54 6.03-13.86 9.63zm106.65-8.82c-4.77-2.79-9.81-5.22-15.12-7.11 1.71-2.16 3.51-4.41 5.22-6.75 12.15-16.2 22.77-36.63 21.87-47.97-.36-5.67-3.24-10.53-8.28-15.84-5.04-5.22-12.24-10.44-19.8-15.84-7.47-5.4-15.3-10.98-21.6-18-6.3-6.93-11.25-15.75-11.25-26.28.09-10.62 4.77-19.62 10.89-26.82 6.21-7.2 13.95-12.96 21.51-18.54 15.03-11.16 28.62-21.42 31.41-33.57 1.44-6.3-1.35-30.6107514-3.6-41.140751h16.92c2.07 10.4399996 4.68 35.290751 2.52 44.740751-4.68 20.34-22.86 32.04-37.62 42.93-7.47 5.49-14.22 10.8-18.81 16.2-4.59 5.31-7.02 10.17-7.02 16.2 0 5.67 2.34 10.26 7.02 15.39 4.68 5.22 11.7 10.35 19.17 15.75 7.38 5.31 15.3 10.89 21.87 17.73 6.66 6.84 12.06 15.39 12.87 25.83 1.53 20.61-12.15 41.67-25.02 58.95-1.08 1.44-2.16 2.79-3.15 4.14z" fill="#e5f9ff" filter="url(#d)" opacity="1"/></g><path d="m203.8398 174.52349c-37.42307 6.05434-75.38939 6.98318-109.673824 2.70117l-58.751954-7.33789 44.726563 38.79687c33.443585 29.00967 79.297635 43.77365 126.044925 45.18946-10.37609 64.62786-36.5483 132.22483-61.39844 200.86523l-18.59989 45.26167 46.11555-24.58008c35.01137-25.47615 69.2725-65.33934 90.82618-106.97851 8.30194 25.18989 13.294 52.49578 21.56836 96.58203 3.29904 11.518 7.67659 23.14086 7.67659 34.97656 15.44328-13.1427 18.31208-14.67242 26.70231-31.54688 27.64401-68.32545 28.36402-158.25125-3.60547-238.15429 41.76913-21.89084 75.28959-59.88212 84.76563-113.05469l9.44726-53.015624-39.42773 36.679684c-22.05018 20.5122-50.45196 37.45054-82.07031 50.28516 1.13327-7.95134 1.08535-16.36938-.35938-25.03616-2.78237-16.67898-9.97927-30.977702-20.33203-41.266575-8.8596-8.806955-20.57111-14.775525-33.2217-14.445313 0 0-12.34808 1.704229-17.53029 4.851563-8.31757 5.051548-15.489 12.46066-19.88282 21.376953-6.45286 13.093552-8.61624 28.954342-5.83398 45.633812 2.04372 12.24997 6.50635 23.17786 12.81445 32.21585z" fill="#00b7e5"/><path d="m213.00451 104.63109c-4.48554 9.10164-6.42225 21.54416-4.22525 34.71424 2.19701 13.16769 8.06683 24.30872 15.2636 31.46172 7.19758 7.153 15.2437 10.22721 22.9746 8.93766 7.72932-1.28954 14.34182-6.80991 18.82737-15.91235 4.48554-9.10244 6.42225-21.54575 4.22684-34.71424-2.19701-13.16928-8.07001-24.31032-15.26758-31.46252-6.29648-6.259068-13.24411-9.394573-21.51631-9.076564-9.18601 1.429245-15.79772 6.949612-20.28327 16.052054zm63.77598 70.12659c-6.23838 10.15954-15.67912 17.71532-27.31607 19.6568-9.04911 1.50925-17.9422-.62407-25.77738-5.21151-44.42404 9.01408-90.28647 11.06143-131.75172 5.88256 34.0432 29.52979 85.05426 43.4927 135.02494 40.56813-7.94583 74.13055-37.93253 149.76238-65.24781 225.21192 42.91559-31.22769 87.39058-90.35414 101.15766-139.69755 21.57999 42.68474 27.00563 73.86228 39.51899 140.53416h.002c24.10611-59.58111 26.27765-139.51142 1.2245-211.70226-3.36751-9.70351-7.2269-19.26718-11.59101-28.62281 44.92473-18.18577 80.90703-53.51214 90.49097-107.29016-28.35019 26.37279-65.29964 46.66323-105.73484 60.67072z" fill="#e5f9ff" stroke-width="36"/></svg>