<svg height="500" viewBox="0 0 500 500" width="500" xmlns="http://www.w3.org/2000/svg" xmlns:xlink="http://www.w3.org/1999/xlink"><radialGradient id="a" cx="1362.7291" cy="216.11429" gradientTransform="matrix(1.0000001 -.0000059 .0000001 1.0000003 -112.72927 33.893757)" gradientUnits="userSpaceOnUse" r="250"><stop offset="0" stop-color="#ff851a"/><stop offset=".42441937" stop-color="#f87000"/><stop offset=".86367416" stop-color="#f26900"/><stop offset="1" stop-color="#e55f00"/></radialGradient><g transform="translate(-1000)"><path d="m1500 250a250 250 0 0 1 -250 250 250 250 0 0 1 -250-250 250 250 0 0 1 250-250 250 250 0 0 1 250 250z" fill="url(#a)" stroke-linecap="round" stroke-linejoin="round" stroke-width="1.002"/><path d="m1309.2298 33.82789c128.5196 30.706851 207.8974 167.48127 169.5927 291.56949-31.3771 95.69524-112.8693 162.03793-212.5543 174.60263 153.1796-8.09118 266.0956-163.0043 218.7012-309.92978-36.4562-114.666588-154.6038-191.5214848-270.6514-169.822657-18.8526 4.215647-38.4387 10.498641-55.8829 18.694487-112.5353 47.459213-168.47522 196.206-99.9632 307.85319 57.6978 93.63045 168.5136 141.8489 267.9993 100.77239-134.92 68.97589-303.283-51.46877-311.488-201.30723-4.4167-117.68321 76.8182-219.674136 190.654-246.26040176-89.0147 9.18391126-152.6601 79.39239576-187.7408 157.21169176-38.45522 102.70317 5.2337 231.75078 109.038 294.08388 114.5107 66.1048 260.3537 29.37245 323.6836-83.60152 42.2104-77.69758 34.3514-177.62383-23.1776-249.88923-57.5404-72.257811-157.5429-102.460489-246.4118-71.877168-81.7429 30.682061-131.1298 101.133078-134.0478 190.176958.6692 92.68536 61.7912 168.55972 147.5399 198.52472 128.5549 37.82014 266.7725-70.33038 233.6823-209.88949-14.7104-64.39775-57.8855-122.14991-125.7378-141.121386-71.391-15.467036-138.9716 1.205-181.2869 64.641366-18.8995 29.2286-28.9384 85.21395-26.105 97.65297m0 0c13.5324-50.18833 30.6277-97.66354 72.2125-128.94941 53.182-38.308183 124.4576-37.093813 181.7444-.48035 50.1457 36.48017 75.4845 90.37713 72.3557 150.91678-6.6674 64.04407-38.4038 109.83277-91.6401 141.00844-63.9019 34.56125-135.3795 4.83213-189.1258-35.28385-78.8706-65.48566-79.7477-186.67235-8.9744-256.76104 63.7369-55.941605 167.0207-64.891564 238.7167-6.65053 78.8163 58.35315 90.3045 169.04089 40.972 246.62443-35.2274 56.41892-88.4571 87.60135-152.5581 93.63158-81.9488 2.18264-160.666-41.91503-196.8695-120.9383-36.2055-79.02511-22.5771-164.33167 26.8727-227.66064 49.4316-63.30896 138.3491-86.746364 220.4504-67.54202" fill="#c50"/></g><path d="m26.619141 460.15625h42.769531c11.642309 14.99948 29.778083 24.75 50.080078 24.75 20.302 0 38.43776-9.75052 50.08008-24.75h166.54101c11.64232 14.99931 29.77822 24.75 50.08008 24.75 20.302 0 38.43777-9.75052 50.08008-24.75h42.16992v-77.39844h-29.95312l-68.39453-205.18945-64.89063 21.625 7.78711 23.36133-77.30078 50.24609-58.29492-45.04883-146.569196-114.63501-11.348776 16.83618c-16.876521 32.51662-6.829706 78.6107 32.117188 109.47071 18.925355 14.99619 39.775094 22.44893 59.392574 23.45117l13.29297 10.27148 50.65821 39.14454-70.75196 45.98828c-18.140185 1.52995-34.157355 10.80193-44.773435 24.47851h-42.771484m318.701169-93.15234 23.61914 70.86523c-2.31679.66133-4.58985 1.42218-6.79297 2.33399l-59.13671-45.69727zm-103.0664 66.99414 33.85351 26.1582h-74.09765z" fill="#994100"/><path d="m45.431121 138.24517c-12.1248 23.3613-5.9985 60.6708 27.3204 87.0714 33.335999 26.415 70.926309 23.7564 90.769509 6.5007l-118.089009-93.5721zm292.519809 72.333 6.4953 19.485-204.84 133.146c11.2743 3.9195 21.0744 11.025 28.3194 20.2356l187.1073-121.6206 32.6727 98.0217c15.0543.3726 28.7955 6.1794 39.33 15.5376l-58.34745-175.04775zm-192.6864 48.3255 57.1464 44.1576 28.7784-18.7011-54.7344-42.2982c-8.4222 8.1504-19.1664 13.8807-31.1904 16.8417zm140.2488 67.4325-28.7784 18.7056 51.138 39.5154h28.9647c2.9664-3.951 6.3936-7.5393 10.2024-10.6785zm-166.04461 49.671c-25.197299 0-45.449999 20.2527-45.449999 45.45s20.2527 45.45 45.449999 45.45c25.19731 0 45.45001-20.2527 45.45001-45.45s-20.2527-45.45-45.45001-45.45zm266.70061 0c-25.1973 0-45.45 20.2527-45.45 45.45s20.2527 45.45 45.45 45.45 45.45-20.2527 45.45-45.45-20.2527-45.45-45.45-45.45zm-341.550009 24.75v41.4h16.794c-2.322-6.4764-3.5946-13.4433-3.5946-20.7s1.2735-14.2236 3.5946-20.7zm132.904809 0c2.322 6.4764 3.5946 13.4433 3.5946 20.7s-1.2735 14.2236-3.5946 20.7h150.5898c-2.322-6.4764-3.5946-13.4433-3.5946-20.7s1.2735-14.2236 3.5946-20.7zm266.7006 0c2.322 6.4764 3.5946 13.4433 3.5946 20.7s-1.2735 14.2236-3.5946 20.7h16.1946v-41.4zm-324.75601 2.8494c9.85883-.0005 17.85111 7.99178 17.85061 17.8506.0005 9.85882-7.99178 17.8511-17.85061 17.8506-9.85812-.0005-17.8493-7.99248-17.8488-17.8506-.0005-9.85812 7.99068-17.8501 17.8488-17.8506zm266.70061 0c9.85882-.0005 17.8511 7.99178 17.8506 17.8506.0005 9.85882-7.99178 17.8511-17.8506 17.8506-9.85882.0005-17.8511-7.99178-17.8506-17.8506-.0005-9.85882 7.99178-17.8511 17.8506-17.8506z" fill="#ffa348" stroke-width="36"/><path d="m241.59961 0-12.47461 38.955078-32.02344 14.390625-40.36719 39.333984 45.00586 51.798833 49.04493-4.7461 39.79882 9.21485 40.13086-43.63086-5.24414-69.757816z" fill="#994100"/><path d="m243.81948 52.08352-36.4365 16.3746-25.911 25.249498 27.7695 31.960802 42.7374-4.1364 32.454 7.515 27.747-30.168002-3.8367-51.029998-55.61505-23.580002z" fill="#ffa348" stroke-width="36"/></svg>