<svg height="500" viewBox="0 0 500 500" width="500" xmlns="http://www.w3.org/2000/svg" xmlns:xlink="http://www.w3.org/1999/xlink"><filter id="a" color-interpolation-filters="sRGB" height="1.037393" width="1.037607" x="-.018804" y="-.018697"><feGaussianBlur stdDeviation="3.4037381"/></filter><filter id="b" color-interpolation-filters="sRGB" height="1.037037" width="1.037975" x="-.018987" y="-.018518"><feGaussianBlur stdDeviation="2.6921121"/></filter><g transform="translate(.000015)"><circle cx="-249.99998" cy="250" fill="#e51a1a" r="250" transform="scale(-1 1)"/><path d="m181.33938 83.856939c97.52275-31.84694 203.27597 26.159281 217.12696 131.568651 10.04116 85.89723-45.79566 162.6049-131.11288 174.6444-76.26503 6.65-147.16573-45.4981-149.44603-126.3231.16679-50.89801 30.03241-87.97493 76.60677-108.40662 44.00125-16.48183 90.46555-3.00917 112.28155 39.63622 17.95322 40.0953 3.57775 87.31302-40.4313 103.80676-21.98685 8.23292-51.6578-5.55285-56.72562-31.5612 24.48155 21.7253 69.7211 11.74379 80.1808-21.06198 5.24648-24.88185-11.48198-41.52298-24.36368-55.64156-23.21161-15.22125-63.26956-13.16738-85.32502 12.05139-41.51846 46.43224-18.48961 112.52397 35.72777 131.08081 60.66482 17.11352 118.96473-29.63961 126.96137-92.39988 2.7637-54.83226-40.99398-106.19486-96.51046-114.27807-76.21988-10.3001-138.45939 50.84936-147.743191 124.09106-9.31956 73.21828 47.315731 138.67973 111.863041 158.33924 49.05305 9.49897 98.18701 2.07129 139.64056-27.40671 82.90715-58.95602 100.11901-177.97214 43.55644-260.39974-52.71171-79.885311-158.575-103.987181-249.15842-67.061741-86.705021 39.45169-149.0660905 134.549061-117.102931 229.167621 15.77888-74.65377 50.93986-153.5943 123.407351-187.514491 9.28724-4.60517 19.44718-8.7232 30.56692-12.33106zm-160.722321 286.075591c-52.57825-113.8254-.38403-260.89182 113.777041-317.643861 10.84604-5.32012 22.21219-9.7712 34.03518-13.36069 115.76394-28.75816 246.03978 34.00351 263.68455 158.897471 10.04526 85.91695-27.72044 168.80365-107.97396 206.83173-102.24035 46.26108-224.798841-11.43986-234.690511-131.24969-7.33455-123.78718 127.307171-194.136761 222.718561-137.24102-42.54074-27.89653-94.21826-33.44528-140.80825-12.98978-71.17376 32.62266-105.080851 118.0397-80.762351 190.63139 30.697281 88.13423 123.572931 132.04164 212.817841 105.59803 82.80488-25.06359 132.16266-100.33164 140.19255-180.04986 12.12434-145.020371-132.23823-245.3588802-265.59709-221.973611 7.92036-4.10499 20.5989-8.4277792 35.61563-11.7452592 60.06317-13.23825 124.63426-3.45807 179.45368 32.4903392 109.65077 71.904621 141.09454 217.803071 65.16008 333.599141-143.00482 218.07486-377.311781 117.06797-437.622951-1.79433" fill="#b21a1a"/></g><g stroke-width=".9"><path d="m40.544922 32.716797c-5.193789 11.153281-8.308892 23.467716-7.684181 35.827317.509034 11.016685 4.162565 21.888018 10.575636 30.875179 7.339461 10.412687 18.042846 18.189787 29.827273 22.863347 4.435748 1.77214 9.071621 2.98816 13.490568 4.80909 1.800245.70849 3.455857 1.41478 5.239556 2.23077 8.758886 4.01868 17.100456 9.52687 22.955226 17.30457 5.03347 6.58801 7.86232 14.66982 8.73798 22.87178.83257 7.60582.2119 15.30138-1.11862 22.81365-.13085.68986-.30764 1.68143-.4755 2.48784-1.93412 8.61156-2.74209 17.52904-1.76148 26.32309 1.17558 11.04134 5.2849 21.89316 12.44881 30.45112 6.83786 8.30063 16.28962 14.19633 26.45006 17.54671 3.599 1.2478 7.32923 2.03323 11.03928 2.86312 8.4114 2.22877 15.8567 7.2193 22.03516 13.24414.50465.50347 1.22798 1.22919 1.79883 1.83398 3.42782 3.61581 6.548 7.75473 9.11328 11.89258 4.93929 7.95237 8.46907 16.74016 10.70312 25.82031.17778.77227.43656 1.83437.62263 2.72284.77791 3.66741 1.40709 7.37885 1.73995 11.11182-.82238 21.82505 4.24347 43.83058 14.51696 63.10276 11.36776 21.48919 29.11166 39.55031 50.43054 51.24354 19.77517 10.92783 42.55803 16.24663 65.12405 15.42086 21.9271-.74871 43.59974-7.45853 62.14483-19.17557 20.05275-12.58396 36.43711-30.94645 46.57924-52.34587 12.06509-25.2722 15.2852-54.63973 8.99154-81.92715-4.27235-18.7007-12.95277-36.3608-25.07552-51.22159-4.74337-8.19786-11.35943-15.12701-18.35512-21.43549-11.43004-10.16413-24.16637-18.75565-37.31754-26.52157-17.43788-10.22581-35.72832-19.0016-54.60378-26.23749-12.94954-4.90555-26.19858-9.17772-39.83293-11.7117-7.25081-1.29689-14.6767-2.12219-22.0293-1.24414-9.80497.82832-19.8978.79549-29.64214-1.1556-1.28111-.25337-2.67578-.57919-3.82001-.8756-8.97784-2.28825-17.53002-6.67769-24.09783-13.28194-6.81751-6.75956-11.35066-15.49808-14.2152-24.58827-3.39101-10.28803-8.08204-20.36923-15.33097-28.53007-5.53548-6.27862-12.72155-11.103334-20.69082-13.695109-9.9828-3.303392-20.70734-3.414714-31.07134-2.318015-4.35971.429415-8.66892 1.226917-12.99518 1.890674-9.95727 1.32143-20.18254-.897243-29.061342-5.473998-12.121665-6.221077-21.901318-16.322301-29.169565-27.730759-5.754836-9.028219-9.963499-18.980588-12.905604-29.258891-.927084.000001-1.854167 0-2.78125 0-.176433.392579-.352865.785157-.529297 1.177735z" fill="#ff8066" filter="url(#a)"/><path d="m42.367996 33.539549c-19.422 41.742.45 77.145301 36.7884 88.734601 33.390004 10.656 54.130504 29.9223 44.577004 74.475-7.1838 33.5367 6.7023 65.1195 45.0576 72.8433 21.3453 4.302 45.3825 29.4858 49.5 68.7384-2.484 64.629 45.7155 120.8772 110.952 127.4904 67.8618 6.8796 128.4597-42.5592 135.3384-110.4183 3.4398-33.93-7.2153-66.0168-27.198-90.5067-.007-.009-.018-.018-.027-.027-23.409-41.3973-130.4955-90.1863-168.525-86.4846-38.943 3.7908-64.9152-7.893-75.4596-40.5288-14.004-43.368301-41.3208-48.366901-75.8241-42.216301-30.729604 5.481001-62.752504-19.9026-75.177004-62.1z" fill="#861313"/><path d="m135.30859 105.28125c-8.35759.26863-16.51015 2.98896-23.678 7.22554-1.24405.69956-2.4881 1.39912-3.73215 2.09868 6.43193 1.80631 12.85433 3.69562 19.04771 6.22062 5.6828 2.28023 11.20699 4.96312 16.47768 8.08211 1.33256.79796 2.84416 1.72712 4.21236 2.63145 10.40838 6.77261 19.45792 15.49725 27.08179 25.27149 2.74876 3.48373 5.29279 7.12115 7.89725 10.7123.71157-4.56441 1.58148-9.14038 1.45774-13.7816-.0921-12.51667-5.19042-24.88013-13.86203-33.89418-7.62298-8.0138-18.09559-13.37614-29.14906-14.38938-1.91153-.18434-3.83406-.23389-5.75329-.17703zm17.27539 52.04687c-3.19343.0255-5.95521 2.14629-7.64767 4.72336-3.03039 4.58492-3.975 10.22297-3.96779 15.63249.0845 8.60868 2.66365 17.29427 7.78978 24.25999 2.39835 3.17187 5.44481 6.07673 9.25537 7.42323 2.93215 1.02401 6.32199.18118 8.53906-1.96289 3.26029-3.07639 4.78018-7.52604 5.50658-11.84737 1.23123-8.03495-.10217-16.39965-3.46075-23.77942-2.41446-5.17089-5.89401-10.12663-10.92668-13.0236-1.54694-.87182-3.29448-1.47253-5.0879-1.42579zm103.00977 40.36915c.31641.42666.33758 1.33104 1.05469 1.10937.54693.062.91519.68883 1.52669.60817 9.34813 1.21596 17.79055 6.5581 23.88682 13.60801 4.81428 5.57536 8.36631 12.25267 10.22321 19.38538.10003.38621.28329 1.16459.40176 1.70398.78842 3.6677 1.10706 7.44231.86581 11.1886-.0323.56026-.10948 1.44569-.1981 2.12732-.91699 7.83131-4.69841 15.52643-11.10531 20.28778-5.40307 4.09587-12.44467 5.70752-19.13128 4.90669-8.96252-1.01866-17.1586-5.88605-23.24707-12.40929-1.30901-1.43513-2.60159-2.88548-3.90417-4.32656-.56953 4.36464-1.3025 8.75286-.95899 13.16992.37327 6.47323 2.73088 12.77927 6.59927 17.97333 5.13464 6.96816 12.21979 12.1447 19.31111 16.95839 6.18571 4.1514 12.50904 8.04937 18.65408 12.21086 9.54577 1.10424 18.57428 5.93845 24.82374 13.2312 6.43845 7.37899 9.89344 17.27483 9.38651 27.06042-.12206 2.64882-.52795 5.28298-1.18682 7.85096-.0935.31964-.29844 1.09832-.45297 1.58711-3.25631 10.78368-11.47754 19.90669-21.83248 24.3252-10.08609 4.40472-22.06911 4.15633-31.95585-.68313-1.34336-.6194-2.58026-1.4424-3.97058-1.95466-1.7045-.87469-3.06488-2.2719-4.6105-3.38556-1.01233-.79437-2.02466-1.58874-3.03699-2.3831 2.08701 5.31042 4.19064 10.62208 6.7449 15.72931 6.93062 14.09848 16.30674 27.19699 28.51918 37.19425 10.6698 8.80005 23.50824 14.96376 37.08281 17.65212 16.43811 3.3196 33.63423 1.7096 49.53675-3.38728 16.75357-5.36881 32.27295-14.43403 45.39969-26.12297 13.74627-12.30913 24.58646-28.09328 30.08843-45.77618 4.5362-14.39087 5.30173-29.941 2.19269-44.70671-3.43963-16.70271-11.57721-32.16524-22.11047-45.47101-9.46825-12.0055-20.85246-22.37942-33.04028-31.5626-.91524-.70511-1.83049-1.41023-2.74573-2.11534 1.01165 4.75752 2.23504 9.50414 2.43993 14.38688.40564 7.8417-.91772 16.01448-5.09745 22.77348-3.26987 5.36772-8.77706 9.51486-15.06857 10.44634-6.97786 1.08749-14.1291-1.44945-19.60879-5.72721-7.62678-5.8796-12.75555-14.48039-15.74495-23.53138-1.33096-3.99569-2.16458-8.15046-2.60836-12.33014-3.28949-8.35726-5.82151-16.99015-7.9804-25.7015-2.37089-8.78457-7.63459-16.6801-14.59532-22.5041-8.62954-7.2913-19.37469-11.66921-30.33304-14.04654-7.16072-1.54369-14.49278-2.25551-21.81516-2.24044-1.92188-1.2819-3.84375-2.5638-5.76563-3.8457 1.1224 2.24544 2.24479 4.49088 3.36719 6.73633zm-119.62695 15.88281c.009 7.52711.97245 15.30858 4.61972 22.01107 2.9389 5.52911 7.85496 9.78829 13.36984 12.63653 7.49266 3.92799 15.73314 6.0553 23.60246 9.06366 8.19353 3.04394 16.15695 7.11219 22.59395 13.11531 4.7941 4.38247 8.78264 9.85227 11.78668 15.45468.53538 1.00908.96934 1.85581 1.47582 2.91185.43674.89833.82622 1.7498 1.24908 2.72403.91544 2.08103 1.78605 4.37722 2.50167 6.41295.84134 2.31432 1.44331 4.70816 2.23938 7.03427.71969 1.87269 1.43937 3.74538 2.15905 5.61807.6606-3.1188 1.57538-6.19327 1.86818-9.37782 1.37366-11.29611 1.18739-23.00638-2.3799-33.90538-2.74216-8.48687-7.74185-16.21725-14.35742-22.19922-8.49109-7.75472-19.10351-12.68391-29.84636-16.4848-8.3368-2.98409-16.92918-5.19521-25.23937-8.25524-3.67635-1.442-7.47974-2.97285-10.371-5.75128-1.55189-1.56407-2.38657-3.65327-3.56336-5.48568-.5877-1.00572-1.17541-2.01143-1.76311-3.01714.0182 2.49804.0365 4.99609.0547 7.49414zm117.29101-1.63672c-4.56904.26506-8.85731 3.06613-10.96113 7.12702-2.57196 4.8642-2.74062 10.66697-1.63614 15.96459 1.92499 8.96832 7.52963 17.21511 15.45665 21.91815 4.20748 2.43008 9.32121 3.91465 14.13867 2.60938 4.1428-1.09073 7.51446-4.35508 9.03481-8.32283 2.32594-5.89669 1.76334-12.57701-.30117-18.4631-2.75345-7.74093-8.24341-14.66191-15.59606-18.46865-3.10667-1.58973-6.57859-2.53504-10.08485-2.4173zm102.89063 24.76758c-3.26829.0228-6.08482 2.2835-7.67079 5.00967-2.66015 4.49699-3.2835 9.89741-3.02553 15.03315.52046 8.92845 3.79094 17.78957 9.63577 24.60952 2.6506 2.99641 5.90358 5.70208 9.8202 6.7959 3.03881.85971 6.42757-.25341 8.50011-2.60254 3.03089-3.35628 4.20356-7.95349 4.57674-12.35927.57024-8.06883-1.41217-16.26164-5.33729-23.31309-2.8007-4.92151-6.61799-9.54267-11.79371-12.06461-1.46429-.69839-3.07206-1.15646-4.7055-1.10873zm-81.72071 92.0332c-7.60424.1336-15.06329 3.81216-19.7357 9.82358-5.18312 6.47004-6.85995 15.49399-4.5125 23.42505 2.16165 7.65248 8.10832 14.09607 15.55763 16.87497 8.03824 3.10678 17.60127 1.92633 24.56864-3.17495 6.27698-4.4542 10.29161-11.86622 10.6619-19.54735.47332-7.60123-2.57828-15.35091-8.20518-20.50265-4.90115-4.59771-11.62645-7.08806-18.33479-6.89865z" fill="#e51a1a" filter="url(#b)"/><path d="m136.7843 107.25495c27.3807-.0342 49.5306 26.244 44.6067 55.152-12.4884-17.4915-30.4272-37.692-68.3442-48.402 8.0073-4.6575 16.0713-6.741 23.7384-6.75zm15.525 52.0875c1.9008-.1494 4.077.6228 6.8346 2.8413 3.681 2.9592 7.524 8.559 9.675 15.8625 2.1546 7.3053 2.1303 14.6745.648 20.0817s-4.1103 8.2998-6.4692 9.225c-2.358.9252-4.9833.567-8.6625-2.3904-3.6783-2.961-7.5213-8.559-9.675-15.8634-2.1528-7.3053-2.1294-14.6745-.6462-20.0817 1.4814-5.4063 4.1085-8.3268 6.4674-9.252.5895-.2313 1.1952-.3717 1.827-.423zm105.075 37.4634c29.691-.2187 59.5845 11.8062 65.898 39.177 2.2347 8.946 4.7655 16.893 7.5087 23.8797.4833 5.0058 1.6947 10.1367 3.627 15.1866 3.7872 9.891 9.7443 17.8956 17.1576 22.95 7.4124 5.0535 17.145 7.0488 25.623 2.925 8.4753-4.1247 13.1742-12.6486 14.904-21.7125 1.26-6.6024 1.062-13.7763-.5895-21.0105 76.905 58.59 62.9694 128.808 17.6616 166.248-47.619 39.3453-124.1073 44.6535-157.8375-36.45.99.8604 2.1546 1.4922 3.429 1.9395 5.9904 3.4677 12.9276 5.4567 20.3076 5.4567 22.4028 0 40.752-18.3222 40.752-40.725 0-20.6334-15.561-37.8-35.5212-40.3875-24.0174-16.2387-46.926-26.1495-42.9183-53.8317 4.5882 5.2353 10.089 9.2322 16.0587 11.7 8.6976 3.5964 18.801 3.8367 27.2808-1.0404 8.478-4.878 13.3434-13.7412 14.5692-23.0634 1.224-9.3222-.8865-19.4058-6.2163-28.602-5.3298-9.198-13.0428-16.0362-21.7404-19.6326-2.8755-1.188-5.8977-1.9944-8.973-2.3904-.333-.2007-.6435-.4212-.9828-.6192zm-119.4183 16.7607c10.6704 19.4616 95.0274 8.3718 83.1096 90.171-20.1942-72.414-83.178-32.4162-83.1096-90.171zm116.1567.3384c2.0844-.0297 4.3605.4518 6.8058 1.4625 4.8906 2.0232 10.0323 6.3378 13.6125 12.5163 3.5802 6.1794 4.7628 12.7602 4.077 17.973-.684 5.211-2.925 8.7615-6.2703 10.6866-3.348 1.926-7.569 2.079-12.4596.0576-4.8915-2.0223-10.0332-6.336-13.6134-12.5154s-4.7637-12.789-4.077-18c.684-5.2128 2.925-8.7345 6.2703-10.6596 1.674-.963 3.5694-1.4886 5.6538-1.5192zm102.0375 24.8067c1.7208-.063 3.7116.5877 6.2712 2.3337 3.9006 2.6595 8.217 7.9623 10.9404 15.075 2.7234 7.1118 3.2742 14.4324 2.223 19.9404-1.053 5.5062-3.4596 8.622-5.7384 9.729-2.277 1.1097-4.9023.972-8.802-1.6866-3.9015-2.6595-8.2188-7.9344-10.9413-15.048-2.7243-7.11-3.2742-14.4603-2.223-19.9674 1.0512-5.508 3.4587-8.622 5.7375-9.7317.5697-.2763 1.1727-.4905 1.8-.5904.234-.036.486-.045.7317-.054zm-81.0846 92.025c13.311 0 23.9346 10.62 23.9346 23.9328s-10.6227 23.9067-23.9346 23.9067c-13.311 0-23.9346-10.593-23.9346-23.9067 0-13.311 10.6227-23.9337 23.9346-23.9337z" fill="#ff8066"/></g></svg>