<svg height="500" viewBox="0 0 500 500" width="500" xmlns="http://www.w3.org/2000/svg" xmlns:xlink="http://www.w3.org/1999/xlink"><filter id="a" color-interpolation-filters="sRGB" height="1.0375" width="1.0375" x="-.01875" y="-.01875"><feGaussianBlur stdDeviation="3.283521"/></filter><filter id="b" color-interpolation-filters="sRGB" height="1.0375" width="1.0375" x="-.01875" y="-.01875"><feGaussianBlur stdDeviation="3.5647355"/></filter><g transform="translate(.000015)"><circle cx="-249.99998" cy="250" fill="#e51a1a" r="250" transform="scale(-1 1)"/><path d="m181.33938 83.856939c97.52275-31.84694 203.27597 26.159281 217.12696 131.568651 10.04116 85.89723-45.79566 162.6049-131.11288 174.6444-76.26503 6.65-147.16573-45.4981-149.44603-126.3231.16679-50.89801 30.03241-87.97493 76.60677-108.40662 44.00125-16.48183 90.46555-3.00917 112.28155 39.63622 17.95322 40.0953 3.57775 87.31302-40.4313 103.80676-21.98685 8.23292-51.6578-5.55285-56.72562-31.5612 24.48155 21.7253 69.7211 11.74379 80.1808-21.06198 5.24648-24.88185-11.48198-41.52298-24.36368-55.64156-23.21161-15.22125-63.26956-13.16738-85.32502 12.05139-41.51846 46.43224-18.48961 112.52397 35.72777 131.08081 60.66482 17.11352 118.96473-29.63961 126.96137-92.39988 2.7637-54.83226-40.99398-106.19486-96.51046-114.27807-76.21988-10.3001-138.45939 50.84936-147.743191 124.09106-9.31956 73.21828 47.315731 138.67973 111.863041 158.33924 49.05305 9.49897 98.18701 2.07129 139.64056-27.40671 82.90715-58.95602 100.11901-177.97214 43.55644-260.39974-52.71171-79.885311-158.575-103.987181-249.15842-67.061741-86.705021 39.45169-149.0660905 134.549061-117.102931 229.167621 15.77888-74.65377 50.93986-153.5943 123.407351-187.514491 9.28724-4.60517 19.44718-8.7232 30.56692-12.33106zm-160.722321 286.075591c-52.57825-113.8254-.38403-260.89182 113.777041-317.643861 10.84604-5.32012 22.21219-9.7712 34.03518-13.36069 115.76394-28.75816 246.03978 34.00351 263.68455 158.897471 10.04526 85.91695-27.72044 168.80365-107.97396 206.83173-102.24035 46.26108-224.798841-11.43986-234.690511-131.24969-7.33455-123.78718 127.307171-194.136761 222.718561-137.24102-42.54074-27.89653-94.21826-33.44528-140.80825-12.98978-71.17376 32.62266-105.080851 118.0397-80.762351 190.63139 30.697281 88.13423 123.572931 132.04164 212.817841 105.59803 82.80488-25.06359 132.16266-100.33164 140.19255-180.04986 12.12434-145.020371-132.23823-245.3588802-265.59709-221.973611 7.92036-4.10499 20.5989-8.4277792 35.61563-11.7452592 60.06317-13.23825 124.63426-3.45807 179.45368 32.4903392 109.65077 71.904621 141.09454 217.803071 65.16008 333.599141-143.00482 218.07486-377.311781 117.06797-437.622951-1.79433" fill="#b21a1a"/></g><path d="m247.06836 21.875c-28.20485.340168-56.34081 5.970406-82.47414 16.595318-31.59164 12.790746-60.20177 32.811112-83.146815 58.00497-21.721242 23.795652-38.367672 52.214602-48.369202 82.848122-9.513939 29.02219-13.003888 59.97427-10.373553 90.3945 2.627761 30.80979 11.677195 61.04839 26.39512 88.24176 17.348891 32.19227 42.552709 60.09278 72.77812 80.67094 26.08569 17.81064 55.91356 30.12425 86.99271 35.78964 35.94604 6.58694 73.47951 4.42151 108.39008-6.41289 30.84886-9.53194 59.57758-25.77645 83.73737-47.18714 25.40082-22.45814 45.7616-50.59823 59.03041-81.8053 11.81046-27.66622 17.9806-57.70914 18.10793-87.78715.19611-30.55308-5.8331-61.13819-17.70712-89.2954-13.18513-31.41309-33.55051-59.75889-59.01265-82.383483-23.35656-20.794573-51.00557-36.758647-80.73772-46.469788-23.70027-7.759167-48.67715-11.530205-73.61054-11.204099z" fill="#ff8066" filter="url(#b)"/><path d="m249.99805 23.855469c-124.60339.001067-226.142581 101.541521-226.142581 226.142581 0 124.60428 101.540581 226.14648 226.142581 226.14648 124.60465 0 226.14648-101.54366 226.14648-226.14648 0-124.60226-101.54289-226.141514-226.14453-226.142581-.00065 0-.001 0-.002 0z" fill="#861313"/><g stroke-width="36"><path d="m247.30078 39.871094c-26.87361.323896-53.68188 5.839323-78.45974 16.261997-29.72189 12.447795-56.46441 31.88169-77.569764 56.223679-20.472684 23.54816-35.633424 51.70024-43.896259 81.79682-10.829345 39.21957-9.949862 81.59371 2.576031 120.31049 9.605737 29.86013 26.071418 57.46353 47.686149 80.18561 22.096193 23.30087 49.576333 41.47524 79.716603 52.57188 28.13607 10.41509 58.52903 14.58019 88.43665 12.33425 29.06972-2.13549 57.66594-10.45236 83.33625-24.26176 31.22779-16.72115 58.08965-41.47894 77.33054-71.2183 16.49593-25.38987 27.37909-54.40325 31.59862-84.38861 4.69668-33.08953 1.4634-67.30423-9.58733-98.85965-10.33421-29.67914-27.49399-56.93082-49.69436-79.166-22.5622-22.660127-50.33782-40.112298-80.59751-50.473268-22.74009-7.826945-46.8335-11.626642-70.87588-11.317138zm-18.66992 22.392578c5.16984.768414 10.29972 1.804441 15.36328 3.099609.93215.24876 1.92251.499238 2.90191.77631 13.48525 3.73943 26.55336 9.417293 38.53953 16.76191 11.45614 6.990898 22.31712 15.789036 31.64609 25.723369 10.96484 11.64167 20.19257 25.14322 27.01929 39.67925 1.73151 3.66311 3.3915 7.60905 4.8128 11.40554 1.19029 3.18033 2.2551 6.34712 3.22002 9.55968 1.132 3.77021 2.10137 7.51874 2.9434 11.40324.52354 2.4132.97434 4.75632 1.36642 7.11001.42037 2.49586.76717 4.96766 1.07007 7.52014.68287 5.88606 1.03805 12.00044 1.02809 17.99883-.006 3.14192-.10116 6.17633-.29524 9.33511-.0678.97919-.1345 2.05588-.22135 3.05321-1.92261 23.78802-9.6213 47.07565-22.24451 67.3286-14.55394 23.47427-35.61801 42.84616-60.21497 55.40703-2.71604 1.38727-5.51197 2.717-8.23458 3.90928-7.50851 3.29906-15.39875 6.00972-23.27252 8.02849-7.81979 2.00504-15.91066 3.4045-24.0186 4.1425-1.35589.12532-3.01756.2468-4.37225.33773-2.54317.15458-5.06437.25291-7.5514.28618-3.9048.0554-7.80324-.0408-11.61829-.27422-4.51984-.27695-9.13346-.76781-13.48821-1.43277-11.6624-1.75579-23.28454-4.93445-34.27495-9.40486-1.90636-.77047-3.62862-1.52503-5.51601-2.36746-22.29717-10.08842-42.07902-25.64864-57.164181-44.91677-11.085128-14.11912-19.656377-30.21188-25.14259-47.30588-.301383-6.09996-.307556-12.23303-.02318-18.39212.133825-2.82507.323289-5.57744.583375-8.4279.100599-1.12486.196017-2.0953.31871-3.22294 3.260499 22.9676 12.386881 45.05706 26.233798 63.66397 15.008176 20.26287 35.540276 36.39316 58.818606 46.1004 20.37041 8.5481 42.78225 12.12542 64.80502 10.44461 1.53515-.65299 3.07031-1.30599 4.60547-1.95898-1.56086-.66843-3.09919-1.42525-4.67389-2.03935-3.93731-.29779-7.88986-.79817-11.82747-1.50696-2.15483-.3855-4.08561-.78984-6.23843-1.29553-14.56835-3.44009-28.45069-9.73379-40.6567-18.39645-15.50873-10.95999-28.42798-25.86344-37.03781-42.8726-5.31715-10.45086-9.03738-21.70973-11.00906-33.26802-.12054-.76081-.26818-1.61888-.38763-2.44889-.856-5.73629-1.27512-11.54145-1.2823-17.39291.003-2.52138.0822-5.0495.24024-7.51172.1548-2.3892.36094-4.63145.65949-7.02758 1.95646-15.86401 7.25174-31.3013 15.42449-45.03687 1.22235-2.05536 2.64379-4.29663 4.07615-6.37888 4.94871-7.22831 10.71323-13.89606 17.1387-19.84963 1.25381-1.16335 2.69334-2.4372 4.06459-3.59374 6.17236-5.21937 12.88701-9.79263 19.994-13.64259 1.45851-.77966 3.11894-1.64424 4.68642-2.3963 3.02092-1.46752 6.08622-2.78524 9.17394-3.96845 5.05937-1.94329 10.3915-3.55654 15.58691-4.75244 5.27372-1.2111 10.62982-2.05899 16.01953-2.53711 1.10369-.0905 2.44371-.19818 3.55609-.25815 1.92595-.11264 3.77017-.17583 5.64781-.19629 2.83676-.028 5.58597.0381 8.38399.20249 9.66287.56518 19.51559 2.39533 28.72812 5.35591 19.30303 6.15596 36.91062 17.46438 50.60782 32.38627 5.15234 5.59902 9.88196 11.84739 13.8754 18.41234 4.92568 8.06014 8.90175 16.80782 11.74478 25.87892.51637 1.65704 1.05579 3.50088 1.49268 5.18091 1.55467 5.88944 2.63621 11.90238 3.25628 17.96143.69531 1.55794 1.39062 3.11588 2.08593 4.67383.62443-1.6203 1.33158-3.22184 1.90504-4.85369.25909-3.48144.50933-6.96872.36-10.46209-.4672-22.10244-6.24216-44.07497-16.76946-63.51965-12.304258-22.86446-31.071448-42.18763-53.558108-55.168933-19.6065-11.383293-42.01781-17.860717-64.67039-18.731433-3.70673-.152906-7.41906-.143728-11.12645-.01421 10.26589-3.062917 20.79534-5.235362 31.43164-6.511718.49154.06966.98307.139322 1.47461.208984zm52.56055.964844c13.84492 2.288785 27.43007 6.133217 40.42382 11.43164 1.60756.667324 3.40724 1.418278 5.07058 2.162185 28.64563 12.651362 54.0159 32.582909 73.15163 57.365239 4.81959 6.21717 9.30025 12.84076 13.26803 19.54875 13.76718 23.26034 22.42246 49.51744 25.18784 76.4047.2559 2.45384.44978 4.79775.61527 7.28382.16464 2.44241.28549 5.22414.35119 7.6689.0895 3.72741.0808 7.53931-.043 11.18248-.0827 2.58909-.21877 5.15564-.40444 7.67762-.18277 2.54357-.40871 4.96327-.69331 7.52081-2.27031 20.24736-7.85171 40.11829-16.47061 58.58003-.76385 1.63034-1.63706 3.44171-2.48715 5.12102-2.25374 4.4801-4.7111 8.90059-7.284 13.13212-16.0357 26.41391-38.63961 48.79596-65.21779 64.55944-3.4175 2.0293-6.89918 3.95276-10.43684 5.76554-3.54107 1.80215-7.30672 3.59474-11.02619 5.19574-16.50377 7.15158-34.22731 11.95279-52.16553 14.10571-3.66959.44856-7.19933.76333-10.87274 1.00324-1.64646.10152-3.51133.19686-5.24354.25696-3.95996.13961-8.02992.16727-12.06226.0555-3.66744-.0938-7.53054-.31124-11.18527-.62449-4.98374-.42223-9.96338-1.04851-14.82533-1.85007-13.51398-2.23176-26.78314-5.94027-39.49219-11.04883-9.0473-3.63044-17.99791-8.06498-26.44994-13.12323-21.57784-12.8823-40.66698-30.23169-55.567258-50.55083-2.245015-3.05365-4.399848-6.17363-6.453506-9.35914 18.968714 23.2251 43.765984 41.6609 71.517854 53.03706 20.7908 8.57398 43.20256 13.14544 65.68332 13.5313.42651.116 1.21095.009 1.77458.04 16.32015.0962 32.66068-1.92364 48.42765-6.15574 28.27809-7.53274 54.61953-22.11905 76.08534-41.99936 22.06753-20.35104 38.9878-46.24838 48.65235-74.67586 11.82201-34.55601 12.81304-72.69964 2.88605-107.84048-7.85514-27.9938-22.64946-53.98394-42.61145-75.11352-20.21793-21.481373-45.73667-37.947377-73.68727-47.399902-3.49169-1.186326-7.02102-2.259678-10.57803-3.232082.7207.114583 1.4414.229166 2.16211.34375zm-60.29883 61.003904c-2.64658.0255-5.31066.0846-7.93794.34137-1.51288.6336-3.02575 1.26721-4.53862 1.90082 1.56409.6747 3.10559 1.43648 4.6836 2.05755 15.42732 1.15246 30.49903 6.56293 43.14391 15.47386 15.27684 10.68637 26.99179 26.38568 32.77746 44.1176 6.4293 19.44301 5.68637 41.17701-2.17993 60.09581-7.21039 17.57961-20.41805 32.59275-36.87255 42.0784-13.70244 7.97079-29.6238 12.02772-45.4676 11.67068-16.59187-.30321-33.05572-5.51645-46.77993-14.84903-7.23692-4.88556-13.72245-10.87661-19.19168-17.68198-.25699-.32116-.74139-.94442-1.08542-1.38121-9.76945-12.64243-15.93032-28.03273-17.54476-43.93051-.61104-1.64745-1.4291-3.23837-2.11982-4.86406-.61893 1.6345-1.31847 3.25099-1.88746 4.89666-.26256 3.06777-.38373 6.14696-.22541 9.22425.6489 19.37744 6.82057 38.53266 17.63702 54.62537 11.98903 17.9971 29.64295 32.1606 49.84642 39.88717 22.68767 8.77021 48.43368 9.28047 71.4639 1.46781 19.9167-6.68752 37.67592-19.5505 50.32492-36.31655 11.7231-15.41926 19.03113-34.14747 20.81752-53.4366 1.78677-18.56572-1.42278-37.59863-9.33288-54.4993-8.35487-17.9628-21.9015-33.45579-38.56662-44.16497-15.96246-10.32365-34.78354-16.14542-53.78553-16.66221-1.08266-.0439-2.06816-.0902-3.1786-.0509zm-22.97461 10.04688c-13.94219.34087-27.75102 4.72947-39.32159 12.51763-13.38177 8.93842-23.73551 22.32498-28.94604 37.55683-6.0374 17.41965-5.27396 37.09484 2.17529 53.96685 6.89002 15.84889 19.51845 29.10388 35.00408 36.7717 11.88108 5.95234 25.39051 8.55736 38.63513 7.55027 1.54427-.64714 3.08855-1.29427 4.63282-1.94141-1.56539-.67407-3.10826-1.43507-4.68752-2.05556-13.34458-.98155-26.2681-6.63666-36.08218-15.72495-5.23698-4.80934-9.61209-10.55258-12.86702-16.87378-.14754-.313-.54352-1.07851-.68868-1.38605-6.73473-13.8616-7.7976-30.34889-2.9112-44.96304 4.55393-13.88132 14.42067-25.89509 27.08093-33.16455 12.2811-7.15011 27.13846-9.66761 41.10197-7.0769 13.56998 2.44017 26.15655 9.79177 35.03863 20.32483 7.49647 8.81686 12.36246 19.8392 13.77874 31.32821.0897.37315.0383 1.20036.28396 1.6921.65795 1.48024 1.3159 2.96047 1.97385 4.44071.61368-1.67189 1.38578-3.30808 1.90048-5.00226.45053-5.17601.0401-10.39439-.74414-15.51833-2.46865-15.68764-10.20419-30.46605-21.62502-41.49203-11.2926-11.01604-26.18314-18.279-41.83191-20.31984-3.94139-.54447-7.92494-.70095-11.90058-.65973z" fill="#e51a1a" filter="url(#a)"/><path d="m249.99955 41.85475c-114.858 0-208.1448 93.2877-208.1448 208.143 0 114.858 93.2877 208.1475 208.143 208.1475 114.858 0 208.1475-93.2913 208.1475-208.1475s-93.2904-208.143-208.1466-208.143zm0 16.8237c105.7635 0 191.322 85.5567 191.322 191.3202s-85.5585 191.322-191.322 191.322c-80.7804 0-149.7663-49.9122-177.8544-120.6153 29.9223 57.3903 89.964 96.5844 159.1578 96.5844l-.002.004c99.0612 0 179.3844-80.3232 179.3844-179.3853 0-95.4414-74.565-173.4786-168.6105-179.0532 2.628-.1062 5.2686-.1755 7.9236-.1755zm-22.8258 1.3572c75.2616 10.2852 133.3692 74.9943 133.3692 153.0558 0 85.2003-69.3702 154.0548-154.5714 154.0548-68.8275 0-127.1637-45.1062-147.0465-107.3592-.162-3.2427-.2466-6.507-.2466-9.7893 0-12.906 1.2834-25.506 3.7116-37.6893 1.638 75.2094 63.126 135.6912 138.7305 135.6912 3.456 0 7.0038-.153 10.3968-.4014-61.677-4.6404-110.376-56.3148-110.376-119.1708 0-65.907 53.6625-119.1708 119.5722-119.1708 61.7895 0 112.6548 46.9917 118.773 107.1738.135-2.4318.3996-4.7358.3996-7.2 0-76.6305-62.1342-138.7665-138.7647-138.7665-7.4754 0-14.8086.5967-21.9627 1.7343 15.1452-6.03 31.2462-10.1754 48.015-12.1635zm-6.2595 66.1977c-2.574 0-5.2146.1188-7.74.2988 45.9216 3.4542 82.179 41.9274 82.179 88.7283 0 49.0716-39.9555 88.7292-89.028 88.7292-46.0062 0-83.8746-34.9875-88.4313-79.7976-.1008 1.8108-.2988 3.528-.2988 5.3604 0 57.0564 46.2636 103.32 103.32 103.32 57.0546 0 103.3182-46.2636 103.3182-103.32 0-57.0555-46.2636-103.3182-103.32-103.3182zm-20.9952 10.017-.002.002c-39.9267 0-72.3024 32.3757-72.3024 72.3024s32.3757 72.3006 72.3024 72.3006c1.8 0 3.6495-.0846 5.418-.2088-32.1345-2.4174-57.5073-29.3418-57.5073-62.091 0-34.3395 27.9594-62.091 62.3007-62.091 32.193 0 58.6935 24.48 61.8822 55.8378.0675-1.2663.207-2.466.207-3.7494 0-39.9267-32.373-72.3024-72.2997-72.3024z" fill="#ff8066"/></g></svg>