<svg height="500" viewBox="0 0 500 500" width="500" xmlns="http://www.w3.org/2000/svg"><g transform="translate(0 -1000)"><path d="m0 1250a250 250 0 0 1 -250 250 250 250 0 0 1 -250-250 250 250 0 0 1 250-250 250 250 0 0 1 250 250z" fill="#9db3df" stroke-linecap="round" stroke-linejoin="round" stroke-width="9.39799" transform="scale(-1 1)"/><path d="m263.85417 1289.4759c11.1612 3.7204 14.8816-7.4408 18.46913-11.0283 7.04219-8.7696 15.28021-26.0428 14.48299-54.6102-10.49685-61.1209-92.21278-68.5617-125.69638-20.1965-11.1612 18.602-11.1612 33.4836-14.8816 52.0856 0 29.7632 14.8816 52.0856 40.9244 70.6876 11.1612 11.1612 26.0428 11.1612 37.204 14.8816 70.6876 11.1612 130.214-48.3652 119.0528-119.0528-7.4408-29.7632-22.3224-59.5264-48.3652-78.1284-44.6448-29.7632-96.7304-29.7632-137.6548-3.7204-18.602 11.1612-29.7632 22.3224-40.9244 40.9244-63.2468 100.4508 26.0428 219.3708 133.9344 208.2096 22.3224 0 40.9244-11.1612 63.2468-18.602 22.3224-14.8816 44.6448-37.204 59.5264-59.5264 40.92441-78.1284 7.4408-171.0056-66.9672-215.6504-26.0428-11.1612-52.0856-22.3224-81.8488-22.3224-37.204 0-70.6876 11.1612-100.4508 33.4836-33.4836 26.0428-52.0856 59.5264-66.9672 96.7304-7.4408 14.8816-3.7204 33.4836-7.4408 52.0856 0 119.0528 126.4936 215.6504 241.69313 174.726 29.7632-14.8816 63.2468-26.0428 89.2896-52.0856 22.3224-29.7632 44.6448-59.5264 52.0856-96.7304 3.7204-26.0428 7.4408-44.6448 3.7204-70.6876-18.602-152.5364-189.60753-234.25236-319.82153-156.2568-22.3224 14.8816-44.6448 29.7632-59.5264 52.0856-29.7632 37.204-44.6448 74.408-52.0856 119.0528-18.602 137.6548 96.7304 260.2951 230.53193 260.2951 29.7632 0 63.2468-11.1612 93.01-18.602 37.204-14.8816 70.6876-33.4836 96.7304-66.9672 18.602-26.0428 29.7632-52.0856 44.6448-81.8488 11.1612-33.4836 18.602-70.6876 14.8816-104.1712-7.4408-44.6448-18.602-85.5692-44.6448-119.0528 96.59753 111.7449 44.51193 297.7649-81.8488 364.7321-22.3224 14.8816-48.3652 18.602-70.6876 26.0428-89.2896 22.3224-178.44633-14.8816-234.25233-78.1284-14.8816-14.8816-18.602-33.4836-29.7632-52.0856-48.3652-70.6876-33.4836-152.5364 3.7204-226.8116 52.0856-89.2896 159.9772-130.21396 264.01553-100.4508 63.2468 18.602 115.3324 63.2468 141.3752 126.4936 7.4408 29.7632 14.8816 59.5264 14.8816 89.2896 0 37.204-11.1612 70.6876-29.7632 104.1712-14.8816 22.3224-26.0428 40.9244-48.3652 55.806-18.602 11.1612-33.4836 18.602-52.0856 29.7632-33.4836 11.1612-70.6876 18.602-111.612 14.8816-122.7732-18.602-200.76873-148.816-156.2568-267.7359 14.8816-29.7632 29.7632-59.5264 55.806-78.1284 55.806-40.9244 119.0528-52.0856 185.88713-29.7632 100.4508 40.9244 148.816 156.2568 89.2896 245.4135-11.1612 18.602-18.602 33.4836-33.4836 48.3652-55.806 40.9244-130.214 55.806-189.60753 18.602-14.8816-14.8816-33.4836-18.602-44.6448-37.204-44.6448-66.9672-44.6448-156.2568 18.602-211.9299 63.2468-55.806 174.72593-40.9244 215.65033 37.204 7.4408 22.3224 18.602 40.9244 14.8816 66.9672 0 22.3224-11.1612 40.9244-14.8816 59.5264-26.0428 55.806-96.7304 74.408-152.5364 55.806-18.602-11.1612-40.9244-18.602-52.0856-37.204-48.3652-70.6876-7.4408-178.4463 85.5692-174.7259 22.3224 0 44.6448 14.8816 63.2468 26.0428 29.7632 22.3224 33.4836 55.806 29.7632 89.2896-11.1612 48.3652-63.2468 70.6876-111.612 59.5264-22.3224-7.4408-37.204-29.7632-44.6448-52.0856-3.7204-26.0428 3.7204-48.3652 22.3224-66.9672 33.4836-33.4836 89.2896-7.4408 96.7304 37.204-3.7204 18.602-14.8816 37.204-29.7632 52.0856" fill="#c6d2ec" opacity=".9"/><path d="m262.92407 1285.7555c10.2311 3.4546 13.68576-6.7765 17.00754-10.0982 6.37783-7.8395 13.9515-23.6512 13.15428-49.9597-9.56675-56.2046-84.77198-62.9811-115.59815-18.602-10.2311 17.1404-10.2311 30.6933-13.68576 47.8337 0 27.3715 13.68576 47.8337 37.60262 64.9741 10.2311 10.2311 23.91686 10.2311 34.14796 13.6858 64.97413 10.2311 119.58428-44.3791 109.35318-109.3532-6.77644-27.3715-20.4622-54.743-44.37905-71.7506-41.05728-27.3715-88.89099-27.3715-126.49361-3.4546-17.14041 10.2311-27.37151 20.4622-37.60261 37.6026-58.06482 92.3456 23.91686 201.6988 123.03894 191.3349 20.4622 0 37.60262-10.2311 58.06482-17.1405 20.4622-13.6857 41.05727-34.1479 54.74303-54.743 37.60261-71.7506 6.77644-157.1869-61.51947-198.2442-23.91686-10.2311-47.83372-20.4622-75.20523-20.4622-34.14796 0-64.97413 10.2311-92.21278 30.8262-30.6933 23.9169-47.83371 54.743-61.51947 88.891-6.77644 13.6858-3.45466 30.6933-6.77644 47.8337 0 109.3532 116.2625 198.2442 222.16103 160.6416 27.37151-13.6858 58.06481-23.9169 81.98167-47.8337 20.4622-27.3716 41.05727-54.7431 47.83372-88.891 3.45465-23.9169 6.77644-41.0573 3.45465-64.9742-17.14041-140.0464-174.32731-215.25168-293.9116-143.5011-20.4622 13.6858-41.05727 27.3715-54.74303 47.8337-27.37151 34.148-41.05727 68.2959-47.83371 109.3532-17.14042 126.4936 88.89098 239.3014 211.92993 239.3014 27.37151 0 58.06481-10.2311 85.43633-17.1404 34.14795-13.6857 64.97413-30.8261 88.89098-61.5194 17.14042-23.9169 27.37152-47.8338 41.05728-75.2053 10.2311-30.6933 17.14041-64.9741 13.68575-95.6674-6.77644-41.0573-17.14041-78.6599-41.05727-109.3532 88.89099 102.5768 41.05727 273.4494-75.20523 334.9689-20.4622 13.6857-44.37906 17.1404-64.97413 23.9168-81.98167 20.4622-164.09621-13.6857-215.25171-71.7505-13.68576-13.6858-17.14042-30.6933-27.37152-47.8337-44.37906-64.9742-30.6933-140.1794 3.45466-208.4753 47.83371-81.9817 146.9558-119.5843 242.62323-92.2128 58.06481 17.1404 105.89853 58.0648 129.81539 116.2625 6.77644 27.3715 13.68575 54.743 13.68575 81.9817 0 34.1479-10.2311 64.9741-27.37151 95.6674-13.68576 20.4622-23.91686 37.6026-44.37906 51.2884-17.14041 10.2311-30.6933 17.1404-47.83371 27.3715-30.82617 10.2311-64.97413 17.1404-102.57675 13.6858-112.80784-17.1405-184.55841-136.7247-143.50114-246.0779 13.68576-27.3715 27.37151-54.7431 51.28837-71.7506 51.28837-37.6026 109.35319-47.8337 170.87266-27.3715 92.21277 37.6026 136.7247 143.5011 81.98167 225.6157-10.2311 17.1404-17.14041 30.6933-30.82617 44.379-51.28837 37.6026-119.58429 51.2884-174.32732 17.1404-13.68575-13.6857-30.82617-17.1404-41.05727-34.1479-41.05727-61.5195-41.05727-143.5012 17.14042-194.7895 58.19768-51.5541 160.77443-37.8684 198.37704 33.8822 6.77644 20.4622 17.14042 37.6026 13.68576 61.5195 0 20.4622-10.2311 37.6026-13.68576 54.743-23.91686 51.2884-88.89099 68.2959-140.17936 51.2884-17.14041-10.2311-37.60261-17.1405-47.83371-34.148-44.37906-64.9741-6.77644-164.0962 78.65988-160.6416 20.4622 0 41.05728 13.6858 58.06482 23.9169 27.37151 20.4622 30.6933 51.2884 27.37151 81.9817-10.2311 44.379-58.06481 64.9741-102.57674 54.743-20.4622-6.7764-34.14796-27.3715-41.05727-47.8337-3.45466-23.9169 3.45466-44.3791 20.4622-61.5195 30.6933-30.8262 81.98167-6.7764 88.89099 34.148-3.45466 17.1404-13.68576 34.1479-27.37152 47.8337" fill="#ecf0f9" opacity=".9"/><path d="m226.91591 1287.6157c5.31486 10.4968 15.8117 5.3148 20.86082 5.3148 10.62971-1.0629 28.56735-7.4408 48.23233-28.3016 35.87528-50.624-16.7418-113.7379-74.54088-103.2411-20.99368 5.3149-31.49052 15.8117-47.30222 26.3086-20.99369 20.9937-26.30855 47.3022-20.99369 78.9256 0 15.8117 10.49684 26.3085 15.8117 36.8054 42.12024 57.7991 126.22786 57.7991 168.3481 0 15.8117-26.3086 26.30854-57.7991 20.99369-89.4225-10.49685-52.6171-47.30223-89.4225-94.60446-99.9193-20.99369-5.3149-36.80539-5.3149-57.79907 0-115.73102 26.3085-136.7247 173.5301-52.61709 241.9589 15.8117 15.8117 36.80539 20.9937 57.79907 31.4905 26.30855 5.3149 57.79907 5.3149 84.10762 0 84.10761-26.3085 126.22786-115.731 105.23417-199.8386-10.49684-26.3086-20.99369-52.6171-42.12024-73.6108-26.30855-26.3085-57.79907-42.1202-94.60446-47.3022-42.12024-5.3149-78.92563 5.3148-115.73102 20.9937-15.8117 5.3148-26.30854 20.9936-42.12024 31.4905-84.10761 84.1076-63.11393 241.9589 47.30223 294.5759 31.49053 10.4969 63.11393 26.3086 99.91931 26.3086 36.80539-5.3149 73.61078-10.4969 105.23418-31.6234 20.99368-15.8117 36.80538-26.3086 52.61708-47.3022 94.60446-120.913 31.49053-299.758-115.73101-336.5634-26.30855-5.3148-52.61709-10.4968-78.92563-5.3148-47.30223 5.3148-84.10762 20.9937-120.913 47.3022-110.41616 84.1076-115.73102 252.4557-20.99369 347.0602 20.99369 20.9937 52.61709 36.8054 78.92563 52.6171 36.80539 15.8117 73.61077 26.3085 115.73102 20.9936 31.49053-5.3148 57.79907-15.8117 89.42247-26.3085 31.49053-15.8117 63.11393-36.8054 84.10761-63.1139 26.30855-36.8054 47.30223-73.6108 52.61709-115.731-10.76259 147.4872-179.11069 242.2246-315.83539 200.1043-26.30854-5.3148-47.30223-20.9937-68.42879-31.4905-78.92562-47.3022-115.73101-136.7247-110.41615-220.8323 0-20.9937 10.49684-36.8054 15.8117-57.7991 15.8117-84.1076 84.10761-131.5427 163.03324-157.7184 99.91932-26.30852 205.15349 20.9937 257.77058 115.731 31.49052 57.7991 36.80538 126.2279 10.49684 189.3418-15.8117 26.3086-31.49053 52.6171-52.61709 73.6108-26.30854 26.3085-57.79907 42.1202-94.60446 52.6171-26.30854 5.3148-47.30223 10.4968-73.61077 5.3148-20.99368-5.3148-36.80538-10.4968-57.79907-15.8117-31.49053-15.8117-63.11393-36.8053-89.42247-68.4287-73.61078-99.9194-36.80539-247.1409 78.92563-299.758 31.49053-10.4968 63.11393-20.9937 94.60445-15.8117 68.42879 10.4969 120.91301 47.3022 152.53641 110.4162 42.12024 99.9193-5.31486 215.6503-110.41616 236.644-20.99369 5.3148-36.80539 10.4968-57.79907 10.4968-68.42879-10.4968-131.54272-52.6171-147.22155-120.913 0-20.9937-10.49684-36.8054-5.31486-57.799 15.8117-78.9257 78.92563-142.0396 163.03325-136.7247 84.10761 5.3148 152.5364 94.6044 126.22786 178.8449-10.49685 20.9937-15.8117 42.1202-36.80539 57.7991-15.8117 15.8117-36.80538 20.9937-52.61708 31.4905-57.79908 20.9937-120.91301-15.8117-147.22155-68.4288-5.31486-20.9937-15.8117-42.1202-10.49684-63.1139 15.8117-84.1076 120.913-131.5427 184.02693-63.1139 15.67883 15.6788 20.86081 41.9873 26.17567 62.981 5.31486 36.8054-15.8117 63.1139-42.12024 84.1076-42.12025 26.3086-94.60446 5.3149-120.913-36.8054-10.49685-20.9936-5.31486-47.3022 5.31485-68.4287 15.8117-20.9937 36.80539-31.4906 63.11393-31.4906 23.98451 0 41.23931 14.86 48.993 34.3086 7.53814 18.9078 6.09609 42.1526-6.87275 60.2959-15.81171 10.4968-36.80539 15.8117-57.79908 15.8117" fill="#fff" opacity=".9"/></g><path d="m210.45703 3.4277344a250 250 0 0 0 -126.865233 60.3281246c-26.182392 20.71228-46.997237 46.570561-59.072266 78.861331a250 250 0 0 0 -21.2656248 68.54687c-1.6214091 5.9669-2.74999995 12.10237-2.74999995 18.78516-.38435885 6.08249-.44785241 12.19601-.37890625 18.3164a250 250 0 0 0 -.125 1.73438 250 250 0 0 0 .34179688 4.78711c.21445687 6.18579.66341382 12.36857 1.32617192 18.54297a250 250 0 0 0 30.7617192 97.91015c11.696194-5.34224 24.970389-10.96031 34.189453-13.58007 26.666559-7.57779 53.465789-13.24272 78.562499-11.82618 28.84186 1.62797 58.3616 10.60682 86.11133 23 19.28846 8.61437 63.73437 42.01954 63.73437 42.01954l15.35352 11.91406 30.60742-46.38672.32617.68555.10938-1.34766 8.31445-12.59961-6.82422-5.64062 1.08789-13.32813.67188-.6543 14.73242 4.82227c20.90044-39.43279 42.18185-94.92139 35.85352-143.9707-4.81759-37.33986-31.04841-69.40896-54.21875-99.08399-20.56191-26.334306-46.91462-47.946606-73.63672-68.001951-17.02096-12.774474-35.23962-24.307004-54.69336-32.9355471-.66752-.2960718-1.54452-.6003621-2.25391-.8984375zm-95.44922 272.5820356c8.28371-.039 16.46041.45513 24.47852 1.52148 9.55812 1.78494 18.92105 3.80769 27.96484 6.29492 18.15973 5.62185 36.08578 13.99996 54.0918 23.5918 4.0165 2.67817 7.89995 5.50833 11.59961 8.58984l2.30273 1.91992 16.13086 6.1543c7.60506 4.35395 15.27288 8.77444 23.02149 13.0957 11.32006 6.31306 22.64788 14.27285 34.30078 22.47071l-7.30274 11.06836c-14.71737-10.8801-36.93195-26.40635-55.62304-34.75391-30.46716-13.60683-63.94788-24.10516-98.76368-26.07031-31.75467-1.79237-62.322926 5.15165-90.429683 13.13867-12.538337 3.563-26.685142 9.41485-38.779297 14.95313v-40.48243c13.855206-6.21834 26.470056-12.25142 37.931641-14.58203 19.71444-4.00873 39.757557-6.81931 59.076169-6.91015z" fill="#7896d3"/><path d="m114.92383 258.00977c-20.988185.0987-42.153668 3.11836-62.578127 7.27148-17.129854 3.48319-32.703679 11.98795-48.8359374 18.95703a250 250 0 0 0 20.8417964 70.78516c12.104208-5.56746 26.155312-11.49723 37.347657-14.67774 27.386713-7.78241 56.070331-14.08689 84.496091-12.48242 31.82889 1.79656 63.329 11.53512 92.4375 24.53516 24.54401 10.96151 67.42774 44.23437 67.42774 44.23437l28.65429-43.42773-1.49414 1.45703c-16.5133-11.22371-32.41713-23.47998-49.85547-33.20508-8.00931-4.46667-16.0426-9.10192-24.08593-13.70312l-14.61719-5.57618c-4.41671-3.67877-8.99725-7.04379-13.70508-10.15429-18.91374-10.1172-38.23244-19.25055-58.42773-25.47656-9.9733-2.75549-20.11249-4.93011-30.28125-6.81836-9.02468-1.21987-18.15559-1.76187-27.32422-1.71875z" fill="#9db3df"/><path d="m73.826172 95.837891c-3.332082-.000032-6.661354.06719-9.986328.207031-4.121187.173322-8.919081.716607-13.923828 1.392578-10.4876 13.46162-19.13667 28.43983-25.396485 45.17969a250 250 0 0 0 -11.246093 28.7539c14.271302-5.55142 35.383867-14.435 51.414062-15.36718 49.58708-2.88361 101.35087 6.23807 146.5957 26.73437 35.63555 16.14322 65.91381 41.41022 91.96875 72.91016l25.55078 53.47656c.28262-3.46136.53626-6.87757.59766-9.57031.43718-19.17365 3.24663-39.32892-3.01367-57.45703-1.37577-3.98385-3.11371-7.81102-4.9961-11.57227-22.33711-38.44298-58.90526-70.8382-97.46289-93.17969-40.95983-23.7334-88.83495-37.05961-136.605464-41.103512-4.498593-.238457-8.999503-.404254-13.496094-.404297z" fill="#ecf0f9"/><path d="m92.126953 170.4668c-8.982707.05233-17.943975.64917-26.796875 1.88086-17.849075 2.48329-43.554036 12.92899-57.205078 17.89843a250 250 0 0 0 -4.8710938 20.91797c-1.6214091 5.9669-2.74999995 12.10237-2.74999995 18.78516-.38435885 6.08249-.44785241 12.19601-.37890625 18.3164a250 250 0 0 0 -.125 1.73438 250 250 0 0 0 .34179688 4.78711c.13815167 3.98485.52626978 7.9644.85351562 11.94531 10.7465655-3.78593 32.7542455-15.35319 49.8847655-19.78125 21.093759-5.45251 43.038124-8.8637 64.820312-8.40234 20.27636.42947 40.43519 4.85868 59.95313 10.36914 21.86234 6.17235 43.06589 14.91658 63.3125 25.21875 36.63812 18.64274 104.33593 65.75195 104.33593 65.75195s-44.06083-66.89551-72.55859-94.58984c-20.30394-19.73152-43.60033-36.92804-68.84375-49.74805-20.4033-10.36192-42.74293-17.31547-65.29297-21.20898-14.67974-2.53463-29.70851-3.96222-44.679687-3.875z" fill="#c6d2ec"/><path d="m177.33789 10.96875a250 250 0 0 0 -93.746093 52.787109c-5.640319 4.461925-10.975573 9.213611-16.083985 14.166016 26.779231-.937511 53.821678 2.931995 79.890628 9.091797 30.08546 7.108858 59.92645 17.345728 86.83594 32.562498 23.28467 13.16702 44.5977 30.3355 62.875 49.86719 18.62721 19.90563 38.36053 41.27472 46.46289 67.30469 10.21783 32.82624-.07032 103.14062-.07032 103.14062 20.13189-37.98277 39.86639-87.77199 33.91016-133.19922-4.48239-34.18641-29.13377-63.21108-50.49805-90.27343-19.74266-25.008238-44.82189-45.635523-70.31054-64.753911-15.94218-11.957812-32.97547-22.800645-51.19141-30.882812-7.41609-3.290418-17.71303-6.700803-28.07422-9.810547z" fill="#fff"/><path d="m401.71094 183.47266-29.78516 26.50976-54.83984 48.8125-107.88477-34.36914 45.43555 103.51953 3.30273-4.43554-3.25781 4.54101 2.24023 5.10156-2.27148-5.05664-65.88086 91.84375 112.54883-11.11328 66.99023 91.17383 24.17578-110.53516 107.51563-35.53906-97.77148-57.21875z" fill="#7896d3"/><path d="m383.89292 223.42869-58.95 52.47-3.6 3.15-4.5-1.44-75.15-23.94 31.68 72.18 1.98 4.41-2.88 3.87-45.9 63.99 78.39-7.74 4.77-.45 2.88 3.87 46.62 63.45 16.83-76.95 1.08-4.77 4.5-1.44 74.88-24.75-68.13-39.87-4.05-2.43-.09-4.77z" fill="#fff" stroke-width="36"/></svg>