<svg height="500" viewBox="0 0 500 500" width="500" xmlns="http://www.w3.org/2000/svg"><g transform="translate(.000015)"><circle cx="-249.99998" cy="250" fill="#e51a1a" r="250" transform="scale(-1 1)"/><path d="m181.33938 83.856939c97.52275-31.84694 203.27597 26.159281 217.12696 131.568651 10.04116 85.89723-45.79566 162.6049-131.11288 174.6444-76.26503 6.65-147.16573-45.4981-149.44603-126.3231.16679-50.89801 30.03241-87.97493 76.60677-108.40662 44.00125-16.48183 90.46555-3.00917 112.28155 39.63622 17.95322 40.0953 3.57775 87.31302-40.4313 103.80676-21.98685 8.23292-51.6578-5.55285-56.72562-31.5612 24.48155 21.7253 69.7211 11.74379 80.1808-21.06198 5.24648-24.88185-11.48198-41.52298-24.36368-55.64156-23.21161-15.22125-63.26956-13.16738-85.32502 12.05139-41.51846 46.43224-18.48961 112.52397 35.72777 131.08081 60.66482 17.11352 118.96473-29.63961 126.96137-92.39988 2.7637-54.83226-40.99398-106.19486-96.51046-114.27807-76.21988-10.3001-138.45939 50.84936-147.743191 124.09106-9.31956 73.21828 47.315731 138.67973 111.863041 158.33924 49.05305 9.49897 98.18701 2.07129 139.64056-27.40671 82.90715-58.95602 100.11901-177.97214 43.55644-260.39974-52.71171-79.885311-158.575-103.987181-249.15842-67.061741-86.705021 39.45169-149.0660905 134.549061-117.102931 229.167621 15.77888-74.65377 50.93986-153.5943 123.407351-187.514491 9.28724-4.60517 19.44718-8.7232 30.56692-12.33106zm-160.722321 286.075591c-52.57825-113.8254-.38403-260.89182 113.777041-317.643861 10.84604-5.32012 22.21219-9.7712 34.03518-13.36069 115.76394-28.75816 246.03978 34.00351 263.68455 158.897471 10.04526 85.91695-27.72044 168.80365-107.97396 206.83173-102.24035 46.26108-224.798841-11.43986-234.690511-131.24969-7.33455-123.78718 127.307171-194.136761 222.718561-137.24102-42.54074-27.89653-94.21826-33.44528-140.80825-12.98978-71.17376 32.62266-105.080851 118.0397-80.762351 190.63139 30.697281 88.13423 123.572931 132.04164 212.817841 105.59803 82.80488-25.06359 132.16266-100.33164 140.19255-180.04986 12.12434-145.020371-132.23823-245.3588802-265.59709-221.973611 7.92036-4.10499 20.5989-8.4277792 35.61563-11.7452592 60.06317-13.23825 124.63426-3.45807 179.45368 32.4903392 109.65077 71.904621 141.09454 217.803071 65.16008 333.599141-143.00482 218.07486-377.311781 117.06797-437.622951-1.79433" fill="#b21a1a"/></g><path d="m301.40234 3.1171875c-1.23101.1825069-2.29265.2895949-3.55664.4902344-23.13098 3.6717184-49.90814 8.6468301-69.16992 25.1718751-42.68351 36.618971-44.65631 95.930963-58.60156 134.712893l-.17578.48437-52.42188 176.96094-.10547.42773c-8.15313 33.44465-15.17847 73.9822-21.685543 110.5 33.717333 23.16536 74.462873 40.05561 117.748043 45.77149l29.61719-112.04688 41.45313-135.80078c-4.30715 106.60553-2.67579 245.39649-2.67579 245.39649l.01758 1.45117a250 249.99998 0 0 0 218.1543-246.63672 250 249.99998 0 0 0 -.28125-11.47266c1.10253-78.87883-36.84625-154.633286-106.63867-200.400387-28.57955-18.741337-59.8205-30.1133768-91.67774-35.0097655z" fill="#861313"/><path d="m349.10352 15.722656c-1.50616.298276-7.88477 1.523438-7.88477 1.523438s-74.53104 2.639571-100.82227 25.195312c-34.88549 29.928915-38.05188 84.499684-53.38476 127.140624l-52.15234 176.04688c-8.19538 33.61787-15.45358 75.75392-22.16211 113.30859 25.3313 16.64301 53.47802 28.54103 83.0664 35.11328l29.97266-113.39062 51.48242-168.66211 9.40234-30.88867 19.69727 3.80468c-8.89617 98.30227-6.52881 306.50379-6.49805 309.17774a250 249.99998 0 0 0 200.17969-244.0918 250 249.99998 0 0 0 -.28125-11.47266c1.10253-78.87883-36.84625-154.633286-106.63867-200.400387-14.08696-9.237669-28.84507-16.603771-43.97656-22.404297z" fill="#ff8066" stroke-width="36"/><g clip-rule="evenodd" fill-rule="evenodd" opacity=".25" stroke-width=".558484" transform="matrix(.93285205 -.71452799 .71452799 .93285205 -1033.7451 833.35278)"><path d="m1134.8 281v4.2c12.5-4.2 16.7-16.7 20.8-25 4.2 4.2 12.5 8.3 12.5 16.7 8.3 29.2-20.8 54.2-50 45.8-25-8.3-33.3-37.5-29.2-62.5 4.2-16.7 16.7-29.2 37.5-33.3 25-4.2 50 8.3 62.5 29.2 12.5 20.8 12.5 37.5 0 58.3-25 41.7-79.2 41.7-112.5 8.3-25-33.3-16.7-87.5 20.8-108.3 12.5-8.3 29.2-12.5 45.8-12.5 8.3 0 20.8 4.2 29.2 8.3 20.8 8.3 29.2 29.2 41.7 45.8 4.2 12.5 4.2 20.8 4.2 33.3-4.2 54.2-54.2 91.7-108.3 79.2-62.5-16.7-91.7-91.7-54.2-145.8 8.3-12.5 16.7-20.8 29.2-29.2 58.3-33.3 125-4.2 150 50 29.2 70.8-29.2 154.2-104.2 150-20.8-4.2-41.7-4.2-58.3-16.7-16.7-8.3-20.8-20.8-29.2-29.2-50-58.3-25-145.8 41.7-179.2 29.2-12.5 62.5-12.5 95.8-4.2 70.8 25 104.2 108.3 70.8 175-8.3 20.8-25 33.3-41.7 50-16.7 12.5-37.5 20.8-58.3 25-33.3 4.2-66.7-4.2-95.8-20.8-70.8-50-87.5-158.3-16.7-216.7 12.5-8.3 20.8-25 37.5-29.2 25-8.3 50-16.7 79.2-12.5 20.8 4.2 41.7 12.5 58.3 20.8 12.5 12.5 29.2 16.7 37.5 33.3 8.3 12.5 20.8 25 25 41.7 16.7 50 12.5 104.2-20.8 145.8-12.5 16.7-25 33.3-45.8 41.7-16.7 4.2-29.2 16.7-45.8 16.7-29.2 0-62.5 4.2-91.7-8.3-87.5-33.3-125-145.8-79.2-229.2 12.5-25 33.3-45.8 58.3-62.5 33.3-16.7 66.7-25 104.2-20.8 45.8 4.2 83.3 29.2 116.7 62.5 16.7 16.7 20.8 37.5 29.2 58.3 8.3 12.5 4.2 29.2 8.3 45.8 8.3 129.2-145.8 225-262.5 158.3-20.8-12.5-37.5-20.8-50-37.5-45.8-54.2-58.3-125-37.5-191.7 12.5-25 29.2-45.8 45.8-66.7 29.2-29.2 70.8-41.7 108.3-54.2-95.8 16.7-175 104.2-166.7 204.2 4.2 33.3 12.5 62.5 33.3 91.7l37.5 37.5c25 16.7 54.2 33.3 83.3 37.5 29.2 4.2 58.3 4.2 83.3-4.2 29.2-12.5 54.2-25 75-45.8 25-29.2 41.7-62.5 50-104.2 0-16.7 0-29.2 0-45.8-4.2-20.8-8.3-37.5-16.7-58.3-8.3-16.7-20.8-33.3-37.5-45.8-20.8-20.8-45.8-33.3-75-41.7-20.8-4.2-41.7-8.3-66.7-4.2-58.3 8.3-104.2 45.8-129.2 95.8-8.3 20.8-12.5 45.8-16.7 66.7 0 25 4.2 50 12.5 70.8 16.7 33.3 41.7 66.7 79.2 83.3 12.5 4.2 25 8.3 41.7 12.5 91.7 16.7 175-41.7 187.5-133.3 8.3-58.3-16.7-104.2-54.2-141.7-75-66.7-200-33.3-233.3 58.3-4.2 20.8-12.5 41.7-12.5 62.5 4.2 58.3 41.7 112.5 100 129.2 45.8 12.5 91.7 4.2 129.2-25 8.3-8.3 16.7-16.7 25-25 45.8-62.5 33.3-145.8-33.3-191.7-20.8-12.5-41.7-16.7-66.7-20.8-16.7-4.2-33.3 4.2-50 8.3-20.8 12.5-37.5 16.7-54.2 37.5-20.8 25-25 50-29.2 79.2 0 41.7 20.8 87.5 62.5 108.3 58.3 33.3 137.5 8.3 166.7-54.2 16.7-41.7 8.3-95.8-29.2-129.2-25-20.8-50-29.2-83.3-29.2-50 4.2-83.3 41.7-91.7 91.7-8.3 54.2 25 104.2 79.2 112.5 75 12.5 137.5-66.7 104.2-133.3-8.3-12.5-20.8-29.2-37.5-37.5-20.8-8.3-41.7-12.5-62.5-8.3-25 4.2-41.7 20.8-54.2 37.5-12.5 20.8-12.5 41.7-8.3 62.5 8.3 25 29.2 45.8 54.2 54.2 33.3 12.5 66.7-4.2 83.3-29.2 25-41.7 4.2-87.5-37.5-104.2-37.5-12.5-91.7 20.8-79.2 66.7 4.2 12.5 8.3 29.2 20.8 37.5 16.7 12.5 37.5 12.5 54.2 8.3 16.7-8.3 29.2-25 29.2-45.8-4.2-12.5-4.2-29.2-16.7-37.5-20.8-12.5-45.8-8.3-58.3 12.5-4.2 12.5-8.3 25 7.1 33.5 31.2-36.7 26.4.3 22.3-12.3z" fill="#e51a1a"/><path d="m1134.4 280.7v3.9c11.8-3.9 15.7-15.7 19.6-23.5 3.9 3.9 11.7 7.8 11.7 15.7 7.8 27.4-19.6 50.9-47 43.1-23.5-7.8-31.3-35.3-27.4-58.8 3.9-15.7 15.7-27.4 35.2-31.3 23.5-3.9 47 7.8 58.8 27.4 11.7 19.6 11.7 35.3 0 54.8-23.5 39.2-74.4 39.2-105.8 7.8-23.5-31.3-15.7-82.3 19.6-101.8 11.8-7.8 27.4-11.7 43.1-11.7 7.8 0 19.6 3.9 27.4 7.8 19.6 7.8 27.4 27.4 39.2 43.1 3.9 11.8 3.9 19.6 3.9 31.3-3.9 50.9-50.9 86.2-101.8 74.4-58.8-15.7-86.2-86.2-50.9-137.1 7.8-11.7 15.7-19.6 27.4-27.4 54.8-31.3 117.5-3.9 141 47 27.4 66.6-27.4 144.9-97.9 141-19.6-3.9-39.2-3.9-54.8-15.7-15.7-7.8-19.6-19.6-27.4-27.4-47-54.8-23.5-137.1 39.2-168.4 27.4-11.8 58.8-11.8 90.1-3.9 66.6 23.5 97.9 101.8 66.6 164.5-7.8 19.6-23.5 31.3-39.2 47-15.7 11.8-35.3 19.6-54.8 23.5-31.3 3.9-62.7-3.9-90.1-19.6-66.6-47-82.3-148.8-15.7-203.7 11.7-7.8 19.6-23.5 35.2-27.4 23.5-7.8 47-15.7 74.4-11.7 19.6 3.9 39.2 11.7 54.8 19.6 11.7 11.8 27.4 15.7 35.2 31.3 7.8 11.8 19.6 23.5 23.5 39.2 15.7 47 11.8 97.9-19.6 137.1-11.8 15.7-23.5 31.3-43.1 39.2-15.7 3.9-27.4 15.7-43.1 15.7-27.4 0-58.8 3.9-86.2-7.8-82.3-31.3-117.5-137.1-74.4-215.4 11.8-23.5 31.3-43.1 54.8-58.8 31.3-15.7 62.7-23.5 97.9-19.6 43.1 3.9 78.3 27.4 109.7 58.8 15.7 15.7 19.6 35.2 27.4 54.8 7.8 11.8 3.9 27.4 7.8 43.1 7.8 121.4-137.1 211.5-246.8 148.8-19.6-11.7-35.3-19.6-47-35.3-43.1-50.9-54.8-117.5-35.3-180.2 11.8-23.5 27.4-43.1 43.1-62.7 27.4-27.4 66.6-39.2 101.8-50.9-90.1 15.7-164.5 97.9-156.7 191.9 3.9 31.3 11.8 58.8 31.3 86.2 11.8 11.7 23.5 23.5 35.3 35.2 23.5 15.7 50.9 31.3 78.3 35.3 27.4 3.9 54.8 3.9 78.3-3.9 27.4-11.7 50.9-23.5 70.5-43.1 23.5-27.4 39.2-58.8 47-97.9 0-15.7 0-27.4 0-43.1-3.9-19.6-7.8-35.3-15.7-54.8-7.8-15.7-19.6-31.3-35.2-43.1-19.6-19.6-43.1-31.3-70.5-39.2-19.6-3.9-39.2-7.8-62.7-3.9-54.8 7.8-97.9 43.1-121.4 90.1-7.8 19.6-11.8 43.1-15.7 62.7 0 23.5 3.9 47 11.8 66.6 15.7 31.3 39.2 62.7 74.4 78.3 11.8 3.9 23.5 7.8 39.2 11.7 86.2 15.7 164.5-39.2 176.3-125.3 7.8-54.8-15.7-97.9-50.9-133.2-70.5-62.7-188-31.3-219.3 54.8-3.9 19.6-11.8 39.2-11.8 58.8 3.9 54.8 39.2 105.8 94 121.4 43.1 11.8 86.2 3.9 121.4-23.5 7.8-7.8 15.7-15.7 23.5-23.5 43.1-58.8 31.3-137.1-31.3-180.2-19.6-11.8-39.2-15.7-62.7-19.6-15.7-3.9-31.3 3.9-47 7.8-19.6 11.8-35.3 15.7-50.9 35.2-19.6 23.5-23.5 47-27.4 74.4 0 39.2 19.6 82.3 58.8 101.8 54.8 31.3 129.3 7.8 156.7-50.9 15.7-39.2 7.8-90.1-27.4-121.4-23.5-19.6-47-27.4-78.3-27.4-47 3.9-78.3 39.2-86.2 86.2-7.8 50.9 23.5 97.9 74.4 105.8 70.5 11.7 129.3-62.7 97.9-125.3-7.8-11.8-19.6-27.4-35.2-35.3-19.6-7.8-39.2-11.7-58.8-7.8-23.5 3.9-39.2 19.6-50.9 35.3-11.8 19.6-11.8 39.2-7.8 58.8 7.8 23.5 27.4 43.1 50.9 50.9 31.3 11.8 62.7-3.9 78.3-27.4 23.5-39.2 3.9-82.3-35.2-97.9-35.3-11.8-86.2 19.6-74.4 62.7 3.9 11.7 7.8 27.4 19.6 35.3 15.7 11.8 35.2 11.8 50.9 7.8 15.7-7.8 27.4-23.5 27.4-43.1-3.9-11.8-3.9-27.4-15.7-35.3-19.6-11.8-43.1-7.8-54.8 11.8-3.9 11.7-7.8 23.5 6.7 31.5 29.3-34.9 24.7-.2 20.9-12z" fill="#fff"/></g><path d="m187.01165 169.58203c-9.50932-3.07922-29.46477-5.56834-29.46477-5.56834-3.10503 5.97013-6.08692 12.77422-8.74023 18.54102-8.2676-24.48203-21.92526-48.74734-43.49023-66.91602l-22.558608-19.005878s-4.94602 25.570238-10.442406 37.227588c-3.689575 7.82527-14.819359 21.30766-14.819359 21.30766 11.917605 10.83166 24.147727 24.13319 28.802734 38.09375l.002.008.002.006c3.249247 11.23403 4.222736 22.04076 5.962891 34.07227-2.022139 8.4277-4.195479 17.83924-4.484375 25.76953-19.738823 16.10143-41.673905 26.72899-61.435594 41.59919-9.136031 6.87465-26.345703 21.96484-26.345703 21.96484l31.021484 10.875c29.187278 7.69177 55.701611 2.59212 76.761716-9.25977l-1.2539 5.31055s17.91678 16.13725 28.33 22.02149c28.26459 15.97159 59.44088 26.92248 90.87695 35.03127 9.28079 2.39394 28.48445 3.92576 28.48445 3.92576 23.55362-48.50431 34.58464-98.2971 44.24611-150.64061 0 0-12.96403-16.02623-21.24813-21.94728-27.03216-19.32123-58.59579-32.17997-90.20703-42.41602z" fill="#861313"/><path d="m93.71867 129.4043c-.794684 3.46948-1.801969 6.93737-3.15625 10.29492-2.1264 5.26019-4.881275 10.18519-8.417967 14.32617 10.822488 10.52035 17.505679 22.04796 21.277337 33.6875 1.74588 5.37209 2.85228 10.74373 3.61329 16.00391 7.45371-6.49128 17.0803-10.52023 27.04101-8.16992-7.1627-24.62209-20.03294-49.01903-40.35742-66.14258zm73.5957 55.73437c-3.46949 7.16279-6.71308 14.54893-9.62304 21.93555 21.82416-2.57412 43.42348-2.79825 64.57618-2.91016-17.57124-7.83431-36.3746-14.21289-54.95314-19.02539zm-39.61914 29.99414c-2.01456.11195-4.81172 1.23092-8.28125 4.47657 3.02185 9.28924 8.5062 20.70409 15.10938 30.88867.22374-.6715.33713-1.34217.56054-2.01367 2.57412-9.28926 2.46197-18.13159.78321-24.28711-1.67882-6.0436-4.3663-8.39354-6.38087-8.95313-.44759-.11195-.89615-.11135-1.34374-.11135zm130.94531 8.72852c-34.80668 1.00727-68.60717-.55896-101.62304 3.58203.4476 5.03634.33801 10.1865-.33399 15.55859 47.67723 1.34302 86.17743 8.16987 118.07422 18.91407 1.45489-7.27471 2.90698-14.44015 4.25-21.71485-5.93163-5.70786-12.75677-11.19157-20.36719-16.33984zm-151.57225 19.58594c-1.88022 8.28198-1.64262 16.22889-.10938 21.71289 1.70117 6.04361 4.28361 8.39352 6.41016 8.95312 2.01449.55958 5.48615-.11036 9.96289-4.36328-6.2674-8.17008-11.86525-17.23732-16.26367-26.30273zm44.35545 19.58593c-2.01451 4.70058-4.2534 8.95453-6.93945 12.75977 32.79209 24.39825 74.20211 41.96979 112.14259 54.72851 5.37199-16.00436 9.84851-32.34424 13.76563-48.9082-31.33721-10.74417-69.50064-17.68473-118.96877-18.58008zm-62.373036 11.97657c-15.814152 12.42295-34.795751 23.94876-53.441408 35.14062 31.426734 8.28194 56.74236-.11029 75.746094-15.89062-1.11912-.11195-2.23831-.33615-3.35743-.67188-9.300424-2.57413-15.5001-9.96039-18.947256-18.57812zm43.345696 17.00976c-1.90264 7.94623-3.69312 16.00632-5.5957 24.06445 35.59008 25.85315 75.09804 39.17077 116.84376 47.9004 2.1264-4.81248 4.14034-9.62699 6.04297-14.43946-38.72383-13.09443-81.70077-31.11263-117.29103-57.52539z" fill="#ff8066" stroke-width="36"/></svg>