<svg height="500.0004" viewBox="0 0 500 500.0004" width="500" xmlns="http://www.w3.org/2000/svg"><g transform="translate(-500 -500)"><path d="m999.99997 750a249.99997 250 0 0 1 -249.99997 250 249.99997 250 0 0 1 -249.99997-250 249.99997 250 0 0 1 249.99997-250 249.99997 250 0 0 1 249.99997 250z" fill="#ffe24c"/><path d="m1000 750.00632-194.05817-2.60063 192.98367-20.4591-193.45987 15.31075 190.28547-38.19139-191.22567 33.10816 185.92267-55.58184-187.34707 50.61663 180.01317-72.50831-181.88127 67.68555 172.56127-88.82024-174.86477 84.18876 163.62798-104.35075-166.35478 99.94311 153.30278-119.00625-156.40808 114.88758 141.65488-132.65651-145.14668 128.82271 128.82258-145.14278-132.65648 141.65492 114.88758-156.42029-119.00218 153.31093 99.94719-166.3385-104.34669 163.60764 84.17649-174.84041-88.81609 172.54909 67.67739-181.89345-72.48799 180.02133 50.6167-187.35925-55.5941 185.94294 33.1-191.23373-38.1995 190.27732 15.3474-193.45586-20.4957 192.97968-2.59249-194.05413-2.5681 194.05413-20.4916-192.97968 15.327 193.45586-38.2004-190.27732 33.1171 191.23373-55.5936-185.94294 50.6162 187.35925-72.51029-180.02133 67.69979 181.89345-88.81699-172.54909 84.17729 174.84041-104.36289-163.60764 99.96869 166.3385-119.00618-153.31093 114.86968 156.42029-132.64018-141.65492 128.81968 145.14278-145.14988-128.82271 141.67318 132.65651-156.42638-114.88758 153.29788 119.00625-166.34218-99.94311 163.62828 104.35075-174.86477-84.18876 172.54667 88.82024-181.87387-67.68555 180.00617 72.50831-187.35587-50.61663 185.94077 55.58184-191.21897-33.10816 190.28097 38.19139-193.47947-15.31075 192.98647 20.4591-194.04384 2.60063 194.04384 2.58435-192.98647 20.46723 193.47947-15.31481-190.28097 38.20361 191.21897-33.12445-185.94077 55.58997 187.35587-50.60849-180.00617 72.5083 181.87387-67.68553-172.54667 88.81211 174.86477-84.17656-163.62828 104.33851 166.34218-99.95936-153.29788 119.0103 156.42638-114.87941-141.67318 132.66054 145.14988-128.83082-128.81968 145.13868 132.64018-141.66304-114.86968 156.42028 119.00618-153.28243-99.96869 166.32222 104.36289-163.59543-84.17729 174.84852 88.81699-172.55719-67.69979 181.8975 72.51029-180.02538-50.6162 187.35108 55.5936-185.93884-33.1171 191.21336 38.2004-190.26101-15.327 193.47618 20.4916-192.99594 2.5681 194.05003 2.59249-194.05003 20.4957 192.99594-15.3474-193.47618 38.1995 190.26101-33.1-191.21336 55.5941 185.93884-50.6167-187.35108 72.48799 180.02538-67.67739-181.8975 88.81609 172.55719-84.17649-174.84852 104.34669 163.59543-99.94719-166.32222 119.00218 153.28243-114.88758-156.42028 132.65648 141.66304-128.82258-145.13868 145.14668 128.83082-141.65488-132.66054 156.40808 114.87941-153.30278-119.0103 166.35478 99.95936-163.62798-104.33851 174.86477 84.17656-172.56127-88.81211 181.88127 67.68553-180.01317-72.5083 187.34707 50.60849-185.92267-55.58997 191.22567 33.12445-190.28547-38.20361 193.45987 15.31481-192.98367-20.46723z" fill="#fffbb3" fill-rule="evenodd"/></g><path d="m116.33982 292.36804-.36325 23.65073c-3.04743 16.67195-1.15676 32.81366 3.9414 47.16016 6.23137 17.53544 15.52509 33.41341 27.63672 46.94141 6.196 6.92057 14.87375 11.13151 22.31062 16.69726-.67646-8.73958-1.35291-17.47917-2.02937-26.21875 4.50077 9.30658 9.93451 18.10782 16.2207 26.21875l41.18164 43.99819-6.31836-36.99623c5.42104 15.38021 15.09329 21.62188 20.51433 37.00209 0-23.95536 5.49005-26.10626 10.36067-43.72866 4.87098 17.6224 10.1393 17.49891 10.1393 43.72866 5.42069-15.37956 15.31501-21.62058 20.7357-37.00014l-6.32226 37.00014 41.1875-44.00405c6.28726-8.11192 11.72104-16.91288 16.22265-26.2207v26.2207c6.76107-5.56575 14.59497-10.03892 20.28321-16.69726 11.80313-13.81609 21.41931-29.43078 27.64844-46.98243 4.72968-24.0464 8.47222-44.50017-1.51758-64.23046 9.48929-11.69055 17.46888-24.66027 23.51758-38.69141l7.25781-20.8418c3.98036-14.23739 6.21289-29.21266 6.21289-44.68359 0-35.75406-11.38216-69.02028-30.70508-96.089836l-13.42383-16.335942c-21.94639-23.668473-50.71801-40.88174-83.24219-48.525401-11.6589-2.904977-23.88194-5.025954-38.02929-4.472656-44.18503.000434-84.40395 17.486128-114.07422 45.769531l-18.40039 20.730468c-18.163926 24.301336-29.935277 53.766336-32.445317 85.820306l.667969 31.60939c3.280054 29.36733 14.20834 56.43609 30.812508 79.11914z" fill="#f2c80d"/><path d="m145.33664 90.566774 41.848 47.375996c17.4304-13.1744 39.12-21 62.60001-21 2.5464 0 5.076.0936 7.57599.27439l10.1-68.899988c-5.80239-.692803-11.70879-1.050403-17.69999-1.050002-40.82721.000401-77.744 16.544402-104.42401 43.299604zm126.84881 28.825596c16.576 3.648 31.66399 11.244 44.2504 21.7744l43.9736-43.975996c-20.168-22.884804-47.35601-39.411204-78.19921-46.324002zm-136.9008-17.6264c-18.29121 22.5168-30.09601 50.536-32.49921 81.2256l47.05041 9.124c4.89919-16.952 13.99519-32.14 26.09919-44.3504l-40.65039-46zm191.9 49.8c16.54 18.424 26.62639 42.7488 26.62639 69.4 0 3.6104-.18958 7.1824-.55039 10.7l37.17598 7.224c4.36641-13.9472 6.724-28.7976 6.724-44.2 0-31.9784-10.14799-61.5584-27.39998-85.6988zm-77.4-19.6752c-49.28001 0-89.0744 39.7952-89.0744 89.0752s39.7952 89.0744 89.0752 89.0744 89.0752-39.792 89.0752-89.0736-39.7952-89.0752-89.0752-89.0752zm-6.3744 24.4496c-1.84 3.8264-2.8744 8.096-2.8744 12.624 0 16.1344 13.0672 29.2264 29.19999 29.2264 13.90961 0 25.55601-9.7312 28.5-22.752 8.928 10.2616 14.34881 23.6576 14.34881 38.3256 0 32.2664-26.16 58.4256-58.424 58.4256-32.2664 0-58.42561-26.16-58.42561-58.4264 0-28.592 20.54561-52.376 47.67521-57.424zm-141.02401 41.8c.9792 42.7056 20.07521 80.888 49.8992 107.176l17.70081-17.7008c-15.11441-18.064-24.22401-41.308-24.22401-66.6504 0-4.8176.336-9.5544.9744-14.2l-44.3504-8.624zm148.8496 12.7504c-10.488 0-18.99999 8.488-18.99999 18.976 0 10.4856 8.51199 19 18.99999 19 10.4856-.002 18.97361-8.5144 18.97361-19.0016 0-10.4864-8.48801-18.9744-18.9744-18.9744zm99.424 35.5c-4.51839 17.924-13.69919 33.9904-26.17599 46.8736l15.776 17.8504c19.464-15.144 35.0056-35.072 44.89999-58.024l-34.5-6.7008zm-170.2752 51.9736-16.32399 16.328c17.688 12.64 38.2928 21.46 60.62399 25.2752l2.55201-17.4504c-17.74641-3.936-33.77601-12.4128-46.8512-24.1504zm132.976 4.8752c-17.59359 13.6264-39.65199 21.752-63.57599 21.752-2.59521 0-5.176-.088-7.7248-.27602l-2.50001 17.024c3.37121.2304 6.7704.35199 10.2.35199 28.724 0 55.50401-8.208 78.15041-22.376l-14.5504-16.4752zm50.3744 7c-7.75999 7.656-16.2864 14.5216-25.45039 20.5008 7.672 24.868 4.288 46.79521-.448 68.32479 21.06959-27.072 36.6696-55.17919 25.8992-88.82399zm-227.9.076c-10.7248 33.6128 4.8696 61.69758 25.92401 88.75038-4.73201-21.50801-8.09841-43.41358-.45041-68.25038-9.1744-5.976-17.70559-12.8464-25.47439-20.5zm190.09921 27.7504c-8.44321 4.5-17.32801 8.256-26.576 11.224 5.82 24.7224 4.68319 46.55759 1.9504 66.5008 17.2424-22.24641 27.3632-47.86163 24.6256-77.7264zm-152.27521.0238c-2.7296 29.8544 7.388 55.46157 24.624 77.7008-2.7304-19.93761-3.8624-41.7648 1.952-66.476-9.2496-2.9648-18.128-6.728-26.576-11.224zm111.80001 15c-8.2048 1.8456-16.65441 3.0528-25.2752 3.6 4.0352 23.80557 5.10399 47.2112 4.224 70.35038 9.8368-23.85041 17.76479-48.2448 21.0512-73.94878zm-71.30001.0257c3.28801 25.69439 11.192 50.0824 21.02401 73.92479-.8784-23.1312.21199-46.52799 4.2512-70.32399-8.6216-.5424-17.06961-1.76-25.27601-3.6z" fill="#fffdcc" stroke-width="36"/></svg>