<svg height="500.0004" viewBox="0 0 500 500.0004" width="500" xmlns="http://www.w3.org/2000/svg"><g transform="translate(-500 -500)"><path d="m999.99997 750a249.99997 250 0 0 1 -249.99997 250 249.99997 250 0 0 1 -249.99997-250 249.99997 250 0 0 1 249.99997-250 249.99997 250 0 0 1 249.99997 250z" fill="#ffe24c"/><path d="m1000 750.00632-194.05817-2.60063 192.98367-20.4591-193.45987 15.31075 190.28547-38.19139-191.22567 33.10816 185.92267-55.58184-187.34707 50.61663 180.01317-72.50831-181.88127 67.68555 172.56127-88.82024-174.86477 84.18876 163.62798-104.35075-166.35478 99.94311 153.30278-119.00625-156.40808 114.88758 141.65488-132.65651-145.14668 128.82271 128.82258-145.14278-132.65648 141.65492 114.88758-156.42029-119.00218 153.31093 99.94719-166.3385-104.34669 163.60764 84.17649-174.84041-88.81609 172.54909 67.67739-181.89345-72.48799 180.02133 50.6167-187.35925-55.5941 185.94294 33.1-191.23373-38.1995 190.27732 15.3474-193.45586-20.4957 192.97968-2.59249-194.05413-2.5681 194.05413-20.4916-192.97968 15.327 193.45586-38.2004-190.27732 33.1171 191.23373-55.5936-185.94294 50.6162 187.35925-72.51029-180.02133 67.69979 181.89345-88.81699-172.54909 84.17729 174.84041-104.36289-163.60764 99.96869 166.3385-119.00618-153.31093 114.86968 156.42029-132.64018-141.65492 128.81968 145.14278-145.14988-128.82271 141.67318 132.65651-156.42638-114.88758 153.29788 119.00625-166.34218-99.94311 163.62828 104.35075-174.86477-84.18876 172.54667 88.82024-181.87387-67.68555 180.00617 72.50831-187.35587-50.61663 185.94077 55.58184-191.21897-33.10816 190.28097 38.19139-193.47947-15.31075 192.98647 20.4591-194.04384 2.60063 194.04384 2.58435-192.98647 20.46723 193.47947-15.31481-190.28097 38.20361 191.21897-33.12445-185.94077 55.58997 187.35587-50.60849-180.00617 72.5083 181.87387-67.68553-172.54667 88.81211 174.86477-84.17656-163.62828 104.33851 166.34218-99.95936-153.29788 119.0103 156.42638-114.87941-141.67318 132.66054 145.14988-128.83082-128.81968 145.13868 132.64018-141.66304-114.86968 156.42028 119.00618-153.28243-99.96869 166.32222 104.36289-163.59543-84.17729 174.84852 88.81699-172.55719-67.69979 181.8975 72.51029-180.02538-50.6162 187.35108 55.5936-185.93884-33.1171 191.21336 38.2004-190.26101-15.327 193.47618 20.4916-192.99594 2.5681 194.05003 2.59249-194.05003 20.4957 192.99594-15.3474-193.47618 38.1995 190.26101-33.1-191.21336 55.5941 185.93884-50.6167-187.35108 72.48799 180.02538-67.67739-181.8975 88.81609 172.55719-84.17649-174.84852 104.34669 163.59543-99.94719-166.32222 119.00218 153.28243-114.88758-156.42028 132.65648 141.66304-128.82258-145.13868 145.14668 128.83082-141.65488-132.66054 156.40808 114.87941-153.30278-119.0103 166.35478 99.95936-163.62798-104.33851 174.86477 84.17656-172.56127-88.81211 181.88127 67.68553-180.01317-72.5083 187.34707 50.60849-185.92267-55.58997 191.22567 33.12445-190.28547-38.20361 193.45987 15.31481-192.98367-20.46723z" fill="#fffbb3" fill-rule="evenodd"/></g><g transform="translate(.411247 12.619952)"><path d="m130.93945 348.93164c-1.03162 15.12083.60261 30.79352 5.51078 45.13275 4.75101 13.88012 13.37859 26.34699 22.55563 37.79303 4.43284 5.52885 10.29997 9.73568 15.44996 14.60352.72826-7.61068 1.45653-6.99284 2.1848-14.60352 3.93684 8.10783 9.33254 9.78722 14.07813 14.60352 13.58462 13.78705 41.20312 40.91364 41.20312 40.91364l-6.65039-36.28474c4.07878 9.36991 11.38722 18.73983 15.466 28.10974 4.07878-11.13619 4.92788-22.27237 9.00666-33.40856 4.07747 11.13586 4.94476 22.27173 9.02223 33.40759 4.07747-9.37024 11.36514-18.74048 15.44261-28.11072l-6.65625 36.29255s27.62389-27.13031 41.21094-40.9195c4.74564-4.81625 10.14073-6.49535 14.07813-14.60352.89607 7.61068 1.79213 6.99284 2.6882 14.60352 0 0 10.68674-9.09337 14.94852-14.60352 10.01243-12.94529 20.01494-26.84345 24.37799-42.61662 4.58284-16.56772 4.4345-34.70818 1.03802-51.55916-.30078-1.49228-1.16316-2.81221-1.85351-4.17383 7.74539-9.79781 14.27648-20.60282 17.28472-26.31801 4.79531-10.9159 8.30891-22.2862 12.02651-33.59488.68428-6.14728 2.43095-18.65901 2.43095-31.55781 0-31.06989-9.6674-60.00995-17.50069-72.26962-9.31217-14.34853-20.69649-26.95616-31.92164-39.78373-9.91452-9.21351-33.93109-23.57295-47.36571-27.62601-15.99221-4.523867-33.67336-7.273401-49.28618-7.303063-38.13643.000377-72.91638 14.887423-98.92773 39.005863-6.50998 6.61045-12.50316 13.6734-18.53711 20.71093-15.78007 21.48027-25.99076 47.43701-28.18359 75.63477-1.72406 13.93317.29022 27.69345 1.61778 41.56369 2.01816 12.09494 10.7852 34.23244 23.77479 53.23123l5.30746 9.23464s-3.481 9.51042-3.82113 14.49583z" fill="#f2c80d"/><path d="m158.97803 150.93798 36.36085 41.45014c15.14491-11.52653 33.99055-18.37329 54.39184-18.37329 2.21252 0 4.41043.0819 6.58262.24007l8.77568-60.28188c-5.04158-.60614-10.17352-.91902-15.37915-.91866-35.47391.00035-67.55014 14.475-90.73184 37.88362zm110.21628 25.22005c14.40254 3.1917 27.51218 9.83759 38.44825 19.05083l38.20774-38.47542c-17.52356-20.02233-41.14665-34.48159-67.94566-40.52973zm-118.95024-15.42166c-15.89285 19.70036-26.1498 44.21488-28.23789 71.06578l40.88112 7.98276c4.2568-14.83162 12.16013-28.11989 22.67704-38.80299l-35.32027-40.24625zm166.73789 43.57094c14.37126 16.1195 23.13512 37.40172 23.13512 60.71935 0 3.1588-.16473 6.28401-.47823 9.36162l32.30143 6.32041c3.79389-12.20266 5.84235-25.19555 5.84235-38.67139 0-27.9785-8.81738-53.85859-23.80727-74.97947zm-67.25124-17.2142c-42.81837 0-77.39488 34.81756-77.39488 77.93355 0 43.11598 34.57722 77.93284 77.39558 77.93284s77.39557-34.81476 77.39557-77.93214c0-43.11739-34.57721-77.93355-77.39557-77.93355zm-5.53858 21.39141c-1.59874 3.34779-2.49751 7.08334-2.49751 11.04497 0 14.11629 11.35382 25.57072 25.37126 25.57072 12.08577 0 22.20509-8.51401 24.76306-19.90615 7.75735 8.97807 12.46738 20.69848 12.46738 33.53178 0 28.23047-22.72988 51.11764-50.76339 51.11764-28.0356 0-50.76479-22.88787-50.76479-51.11834 0-25.01567 17.85165-45.82473 41.42399-50.24132zm-122.53281 36.5716c.8508 37.36392 17.44293 70.7704 43.35637 93.77026l15.37986-15.48676c-13.13259-15.80452-21.04773-36.14113-21.04773-58.31366 0-4.21501.29194-8.35933.84663-12.42385l-38.53513-7.5453zm129.3323 11.15556c-9.1128 0-16.50869 7.4263-16.50869 16.60245 0 9.17405 7.39589 16.62345 16.50869 16.62345 9.11072-.002 16.48577-7.4494 16.48577-16.62485 0-9.17475-7.37505-16.60105-16.48646-16.60105zm86.38743 31.0596c-3.92593 15.68204-11.90294 29.73883-22.74377 41.01058l13.70744 15.61765c16.91186-13.24977 30.41563-30.68514 39.01266-50.76627l-29.97633-5.86266zm-147.94855 45.47267-14.18358 14.28567c15.36873 11.05897 33.27181 18.77575 52.67492 22.11374l2.21739-15.26768c-15.41949-3.44368-29.34727-10.86019-40.70803-21.12963zm115.54006 4.2654c-15.2867 11.92199-34.45278 19.03123-55.23985 19.03123-2.25492 0-4.49732-.077-6.71192-.2415l-2.1722 14.89462c2.92917.20158 5.88266.30796 8.86257.30796 24.95768 0 48.22627-7.18133 67.90325-19.57718l-12.64254-14.41445zm43.76926 6.12443c-6.74249 6.69838-14.15091 12.70522-22.11331 17.93653 6.66604 21.75747 3.72575 40.942-.38926 59.77862 18.30693-23.68579 31.86145-48.27729 22.50328-77.71375zm-198.01754.0665c-9.31855 29.40846 4.23109 53.98035 22.52483 77.64935-4.11154-18.81776-7.03654-37.98335-.39135-59.71353-7.97145-5.22851-15.38402-11.23955-22.13417-17.93582zm165.17323 24.27933c-7.33613 3.93714-15.05595 7.22333-23.09133 9.82009 5.05687 21.63008 4.06912 40.7341 1.69466 58.18278 14.98156-19.4638 23.77531-41.87503 21.39667-68.00427zm-132.30875.0208c-2.37169 26.12016 6.41928 48.52435 21.39528 67.98187-2.37239-17.44379-3.35596-36.5408 1.69605-58.16109-8.03678-2.59396-15.75104-5.88645-23.09133-9.82008zm97.14069 13.12377c-7.12898 1.61475-14.47067 2.67096-21.96109 3.14971 3.5061 20.82794 4.43475 41.30595 3.67014 61.55085 8.54699-20.86716 15.43546-42.21027 18.29095-64.69916zm-61.95109.0225c2.85689 22.4805 9.7245 43.81802 18.26733 64.67817-.76323-20.23792.18419-40.7082 3.69378-61.52776-7.49113-.47456-14.83143-1.53986-21.9618-3.14971z" fill="#fffdcc" stroke-width="36"/></g><g opacity=".75" stroke-linecap="round" stroke-linejoin="round" transform="translate(-.093077 -9.734375)"><path d="m387.66992 32.634766c-38.23159-18.970497-92.06847-22.900391-138.19336-22.900391-46.1249 0-99.96176 3.929899-138.19336 22.900391 0 0-13.807366 8.305448-18.304684 14.71289-6.291003 8.962951-10.48561 20.127044-10.652344 31.076172-.159215 10.455357 3.175976 21.468949 9.263672 29.970702 6.96795 9.73107 17.546536 16.80068 29.060546 21.08789 11.51401 4.28723 26.25022 7.86168 39.7207 10.17578 29.3925 5.04935 59.28827 7.99898 89.11133 7.99414 29.83178-.005 59.73621-2.95985 89.13477-8.02539 13.48027-2.32273 28.21924-5.90414 39.74609-10.21093 11.50347-4.29807 21.942-11.4436 29.0332-21.07227 6.44036-8.744933 10.76491-20.003275 10.45313-30.859375-.32535-11.328618-5.86876-22.509385-12.73828-31.523437-4.43484-5.819311-17.44141-13.326172-17.44141-13.326172zm-138.19341 50.039062c-26.72264 0-53.45099-1.773268-76.13281-5.387695 23.92255-4.332832 49.7798-5.643555 76.13283-5.643555 26.35305 0 52.2103 1.310723 76.13282 5.643555-22.68196 3.615193-49.40927 5.387695-76.13284 5.387695z" fill="#f2c80d"/><g fill="#fffdcc" stroke-width="36"><path d="m249.47658 27.734022c-44.82456 0-97.60925 4.857624-130.19337 21.025839.1666 6.382248 1.29435 15.843988 6.64398 21.45058 39.3833-13.417398 81.42806-16.56805 123.54939-16.56805 42.12132 0 84.16607 3.150652 123.54939 16.56805 5.34891-5.606592 6.47737-15.068332 6.64395-21.45058-32.5841-16.168215-85.3688-21.025839-130.19334-21.025839z"/><path d="m391.73332 58.002779h-.00071c-.23067 1.325374-.51118 2.677432-.88711 4.039274-1.58479 5.750693-4.42337 11.767353-11.38417 16.002323-10.2778 8.288913-29.05211 13.548154-51.87172 17.168908-23.12507 3.669683-50.60802 5.460706-78.11303 5.460706-27.50431 0-54.98796-1.791471-78.11233-5.460253-22.71639-3.604305-41.41449-8.836416-51.7222-17.060844-8.53138-5.329065-11.55792-12.802746-12.65148-19.505661-9.77516 12.12227-8.188925 25.028956.47914 41.274119 10.17529 19.069349 92.08371 29.748019 142.00687 29.730149 49.9704-.0178 131.83298-10.6608 142.08659-29.860031 10.85308-16.457742 11.19124-29.544559.17015-41.78869z"/></g></g></svg>