<svg height="500.0004" viewBox="0 0 500 500.0004" width="500" xmlns="http://www.w3.org/2000/svg"><g transform="translate(-500 -500)"><path d="m999.99997 750a249.99997 250 0 0 1 -249.99997 250 249.99997 250 0 0 1 -249.99997-250 249.99997 250 0 0 1 249.99997-250 249.99997 250 0 0 1 249.99997 250z" fill="#ffe24c"/><path d="m1000 750.00632-194.05817-2.60063 192.98367-20.4591-193.45987 15.31075 190.28547-38.19139-191.22567 33.10816 185.92267-55.58184-187.34707 50.61663 180.01317-72.50831-181.88127 67.68555 172.56127-88.82024-174.86477 84.18876 163.62798-104.35075-166.35478 99.94311 153.30278-119.00625-156.40808 114.88758 141.65488-132.65651-145.14668 128.82271 128.82258-145.14278-132.65648 141.65492 114.88758-156.42029-119.00218 153.31093 99.94719-166.3385-104.34669 163.60764 84.17649-174.84041-88.81609 172.54909 67.67739-181.89345-72.48799 180.02133 50.6167-187.35925-55.5941 185.94294 33.1-191.23373-38.1995 190.27732 15.3474-193.45586-20.4957 192.97968-2.59249-194.05413-2.5681 194.05413-20.4916-192.97968 15.327 193.45586-38.2004-190.27732 33.1171 191.23373-55.5936-185.94294 50.6162 187.35925-72.51029-180.02133 67.69979 181.89345-88.81699-172.54909 84.17729 174.84041-104.36289-163.60764 99.96869 166.3385-119.00618-153.31093 114.86968 156.42029-132.64018-141.65492 128.81968 145.14278-145.14988-128.82271 141.67318 132.65651-156.42638-114.88758 153.29788 119.00625-166.34218-99.94311 163.62828 104.35075-174.86477-84.18876 172.54667 88.82024-181.87387-67.68555 180.00617 72.50831-187.35587-50.61663 185.94077 55.58184-191.21897-33.10816 190.28097 38.19139-193.47947-15.31075 192.98647 20.4591-194.04384 2.60063 194.04384 2.58435-192.98647 20.46723 193.47947-15.31481-190.28097 38.20361 191.21897-33.12445-185.94077 55.58997 187.35587-50.60849-180.00617 72.5083 181.87387-67.68553-172.54667 88.81211 174.86477-84.17656-163.62828 104.33851 166.34218-99.95936-153.29788 119.0103 156.42638-114.87941-141.67318 132.66054 145.14988-128.83082-128.81968 145.13868 132.64018-141.66304-114.86968 156.42028 119.00618-153.28243-99.96869 166.32222 104.36289-163.59543-84.17729 174.84852 88.81699-172.55719-67.69979 181.8975 72.51029-180.02538-50.6162 187.35108 55.5936-185.93884-33.1171 191.21336 38.2004-190.26101-15.327 193.47618 20.4916-192.99594 2.5681 194.05003 2.59249-194.05003 20.4957 192.99594-15.3474-193.47618 38.1995 190.26101-33.1-191.21336 55.5941 185.93884-50.6167-187.35108 72.48799 180.02538-67.67739-181.8975 88.81609 172.55719-84.17649-174.84852 104.34669 163.59543-99.94719-166.32222 119.00218 153.28243-114.88758-156.42028 132.65648 141.66304-128.82258-145.13868 145.14668 128.83082-141.65488-132.66054 156.40808 114.87941-153.30278-119.0103 166.35478 99.95936-163.62798-104.33851 174.86477 84.17656-172.56127-88.81211 181.88127 67.68553-180.01317-72.5083 187.34707 50.60849-185.92267-55.58997 191.22567 33.12445-190.28547-38.20361 193.45987 15.31481-192.98367-20.46723z" fill="#fffbb3" fill-rule="evenodd"/></g><path d="m320.50195 24.20703c-26.28866-25.5998693-82.48242-14.3496232-82.48242 33.755859 0 6.99558 2.27054 28.013237 10.69742 38.205907 5.62989 6.809584 23.72636 11.817534 23.72636 11.817534s-13.3243 155.11807 12.3883 226.07397c5.70267 15.73696 30.12978 30.1607 45.27386 27.81079 37.61054.93794 75.94531-23.25251 75.94531-72.60156l-.002-.16993c15.83558 1.25404 32.29319-4.41752 42.39455-17.00391 13.68763 12.44822 41.71873 6.51436 41.71873-17.81054 0-19.83634-18.63723-27.42487-32.94138-22.8086-3.51296-17.81816-15.79533-29.08799-30.40823-33.81836 5.37831-7.33055 8.68751-16.82423 8.68751-28.48632 0-22.89501-12.73542-37.43187-28.91017-43.63086.61925-3.47984.63713-6.89949.004-10.17383 16.65826-9.80826 28.70891-27.505039 28.70891-53.113284.00003-41.501379-37.59593-62.25389752-63.28417-62.25389752s-39.45673 8.07103202-51.51658 24.20703152zm-280.269526 37.347657c-13.346361 61.358673 80.212126 81.709323 93.560546 20.349608.50455-2.319644.83751-4.574026 1.04687-6.775389 12.29331 3.33397 26.9238-1.681021 30.47657-18.01172 6.09639-28.022102-31.30947-39.348738-44.3711-19.240233-9.37071-8.583537-22.249446-13.314135-38.711977-13.431894-16.462532-.11776-36.369307 11.225034-42.000909 37.109628zm433.964856 46.431643c-11.30766.00085-22.61525 7.41899-22.61525 22.25195 0 29.66868 45.2344 29.66868 45.2344 0 0-14.83191-11.30853-22.2511-22.61722-22.25195zm-7.58203 60.10156v.002c-7.77963 0-15.55861 5.10271-15.55861 15.30664 0 20.40683 31.11719 20.40683 31.11719 0 0-10.20393-7.77899-15.30859-15.55858-15.30859zm-433.652359 13.27734c-16.455264 0-32.91406287 10.79251-32.91406287 32.37696 0 29.26357 30.24464987 38.68463 49.73242087 28.27343 1.350327 66.02309 89.361611 74.42133 112.769531 25.20313 0 0 8.38914-37.15326-.11718-52.41406-10.01644-17.97003-31.91947-30.87257-52.42188-32.57617-16.623075-1.38126-34.651759 6.08448-46.279298 19.03515-4.974262-13.26261-17.870116-19.89844-30.769531-19.89844zm-8.109375 87.04883c-7.780017.00086-15.5566411 5.09966-15.5566411 15.30274 0 20.41206 31.1152351 20.41206 31.1152351 0 0-10.20099-7.77872-15.30188-15.556641-15.30274zm147.830074 34.08203c-15.89734.68878-31.28906 11.46811-31.28906 32.3418 0 8.11457 2.32465 14.70149 6.10352 19.76367-8.53644 7.84348-14.18164 19.36979-14.18164 34.60352 0 25.0241 15.20869 40.06258 33.5 45.14257-2.44943 3.648-3.93164 8.2656-3.93164 13.85744 0 30.03398 42.73248 32.03358 48.43945 6.00975 0 0 45.17888-95.62934 21.11232-133.8533-11.07646-17.59229-59.75295-17.86545-59.75295-17.86545zm92.72054 99.71213c-11.11067 13.30918-.73616 52.00662-.73616 52.00662 11.92062 27.68089 48.42883 34.04818 71.66406 19.10548 5.52696 37.38024 65.41602 35.47978 65.41602-5.69923 0-27.14275-26.01943-37.2139-45.3418-30.22461.0609-1.08548.0996-2.18529.0996-3.31053 0-23.26371-13.35435-37.18486-29.69141-43.92578-19.28331-7.9566-48.04187-3.96564-61.41031 12.04805zm222.12128-5.19845c-7.47606.0922-15.05371 6.26536-12.50589 15.77733 4.29177 16.01983 28.71953 9.47294 24.42777-6.54686-1.74395-6.51091-6.80844-9.29325-11.92188-9.23047zm-440.759786 22.24804c-13.749391 0-27.498046 9.01595-27.498046 27.05079 0 18.03587 13.754559 27.0539 27.503905 27.0508-.272202 1.43407-.421875 2.96133-.421875 4.58593 0 27.74158 42.298832 27.74158 42.298832 0 0-11.8348-7.698992-18.60416-16.525391-20.3418 1.360811-3.26173 2.140622-7.0241 2.140622-11.29493 0-18.0359-13.748696-27.05079-27.498047-27.05079zm406.148426 24.17382c-14.03097-9.15614-38.06502 2.11271-32.42185 23.17579 6.32667 23.61521 38.80056 17.91164 41.51172-2.11521 10.10552 2.91209 23.26043-5.00186 19.6543-18.45706-2.10712-7.8675-8.23135-11.15625-14.41504-11.15625-5.84508.0714-11.72689 3.22673-14.32913 8.55273zm-334.12108-6.60741c-7.77754 0-15.55664 5.10278-15.55664 15.30663 0 20.40794 31.11328 20.40794 31.11328 0 0-10.20597-7.77714-15.30663-15.55469-15.30663z" fill="#fffdcc" fill-opacity=".75"/><path d="m317.97461 452.6543 21.74219-186.9961h78.50195l-45.2832-187.488278-236.18164-.001953-45.28516 187.490231h78.50391l21.74414 186.9961z" fill="#f2c80d"/><path d="m114.33351 247.658h71.66832l21.74357 186.99545h94.20114l21.74148-186.99545h71.66624l-36.58887-151.488907-207.84142-.000526z" fill="#fffdcc" stroke-width="36"/><path d="m159.60547 158.22852-12.32031 56.8457 82.75976-7.4082zm190.25391 0-70.4375 49.4375 82.76171 7.4082-12.32226-56.8457zm-95.12305 66.11132-33.37695 44.06641 15.59765 11.8125 17.77735-23.47656 17.77734 23.47656 15.5957-11.81055z" fill="#f2c80d" stroke-width="1.04677"/></svg>