<svg height="500" viewBox="0 0 500 500" width="500" xmlns="http://www.w3.org/2000/svg"><g transform="translate(0 -1000)"><path d="m0 1250a250 250 0 0 1 -250 250 250 250 0 0 1 -250-250 250 250 0 0 1 250-250 250 250 0 0 1 250 250z" fill="#9db3df" stroke-linecap="round" stroke-linejoin="round" stroke-width="9.39799" transform="scale(-1 1)"/><path d="m263.85417 1289.4759c11.1612 3.7204 14.8816-7.4408 18.46913-11.0283 7.04219-8.7696 15.28021-26.0428 14.48299-54.6102-10.49685-61.1209-92.21278-68.5617-125.69638-20.1965-11.1612 18.602-11.1612 33.4836-14.8816 52.0856 0 29.7632 14.8816 52.0856 40.9244 70.6876 11.1612 11.1612 26.0428 11.1612 37.204 14.8816 70.6876 11.1612 130.214-48.3652 119.0528-119.0528-7.4408-29.7632-22.3224-59.5264-48.3652-78.1284-44.6448-29.7632-96.7304-29.7632-137.6548-3.7204-18.602 11.1612-29.7632 22.3224-40.9244 40.9244-63.2468 100.4508 26.0428 219.3708 133.9344 208.2096 22.3224 0 40.9244-11.1612 63.2468-18.602 22.3224-14.8816 44.6448-37.204 59.5264-59.5264 40.92441-78.1284 7.4408-171.0056-66.9672-215.6504-26.0428-11.1612-52.0856-22.3224-81.8488-22.3224-37.204 0-70.6876 11.1612-100.4508 33.4836-33.4836 26.0428-52.0856 59.5264-66.9672 96.7304-7.4408 14.8816-3.7204 33.4836-7.4408 52.0856 0 119.0528 126.4936 215.6504 241.69313 174.726 29.7632-14.8816 63.2468-26.0428 89.2896-52.0856 22.3224-29.7632 44.6448-59.5264 52.0856-96.7304 3.7204-26.0428 7.4408-44.6448 3.7204-70.6876-18.602-152.5364-189.60753-234.25236-319.82153-156.2568-22.3224 14.8816-44.6448 29.7632-59.5264 52.0856-29.7632 37.204-44.6448 74.408-52.0856 119.0528-18.602 137.6548 96.7304 260.2951 230.53193 260.2951 29.7632 0 63.2468-11.1612 93.01-18.602 37.204-14.8816 70.6876-33.4836 96.7304-66.9672 18.602-26.0428 29.7632-52.0856 44.6448-81.8488 11.1612-33.4836 18.602-70.6876 14.8816-104.1712-7.4408-44.6448-18.602-85.5692-44.6448-119.0528 96.59753 111.7449 44.51193 297.7649-81.8488 364.7321-22.3224 14.8816-48.3652 18.602-70.6876 26.0428-89.2896 22.3224-178.44633-14.8816-234.25233-78.1284-14.8816-14.8816-18.602-33.4836-29.7632-52.0856-48.3652-70.6876-33.4836-152.5364 3.7204-226.8116 52.0856-89.2896 159.9772-130.21396 264.01553-100.4508 63.2468 18.602 115.3324 63.2468 141.3752 126.4936 7.4408 29.7632 14.8816 59.5264 14.8816 89.2896 0 37.204-11.1612 70.6876-29.7632 104.1712-14.8816 22.3224-26.0428 40.9244-48.3652 55.806-18.602 11.1612-33.4836 18.602-52.0856 29.7632-33.4836 11.1612-70.6876 18.602-111.612 14.8816-122.7732-18.602-200.76873-148.816-156.2568-267.7359 14.8816-29.7632 29.7632-59.5264 55.806-78.1284 55.806-40.9244 119.0528-52.0856 185.88713-29.7632 100.4508 40.9244 148.816 156.2568 89.2896 245.4135-11.1612 18.602-18.602 33.4836-33.4836 48.3652-55.806 40.9244-130.214 55.806-189.60753 18.602-14.8816-14.8816-33.4836-18.602-44.6448-37.204-44.6448-66.9672-44.6448-156.2568 18.602-211.9299 63.2468-55.806 174.72593-40.9244 215.65033 37.204 7.4408 22.3224 18.602 40.9244 14.8816 66.9672 0 22.3224-11.1612 40.9244-14.8816 59.5264-26.0428 55.806-96.7304 74.408-152.5364 55.806-18.602-11.1612-40.9244-18.602-52.0856-37.204-48.3652-70.6876-7.4408-178.4463 85.5692-174.7259 22.3224 0 44.6448 14.8816 63.2468 26.0428 29.7632 22.3224 33.4836 55.806 29.7632 89.2896-11.1612 48.3652-63.2468 70.6876-111.612 59.5264-22.3224-7.4408-37.204-29.7632-44.6448-52.0856-3.7204-26.0428 3.7204-48.3652 22.3224-66.9672 33.4836-33.4836 89.2896-7.4408 96.7304 37.204-3.7204 18.602-14.8816 37.204-29.7632 52.0856" fill="#c6d2ec" opacity=".9"/><path d="m262.92407 1285.7555c10.2311 3.4546 13.68576-6.7765 17.00754-10.0982 6.37783-7.8395 13.9515-23.6512 13.15428-49.9597-9.56675-56.2046-84.77198-62.9811-115.59815-18.602-10.2311 17.1404-10.2311 30.6933-13.68576 47.8337 0 27.3715 13.68576 47.8337 37.60262 64.9741 10.2311 10.2311 23.91686 10.2311 34.14796 13.6858 64.97413 10.2311 119.58428-44.3791 109.35318-109.3532-6.77644-27.3715-20.4622-54.743-44.37905-71.7506-41.05728-27.3715-88.89099-27.3715-126.49361-3.4546-17.14041 10.2311-27.37151 20.4622-37.60261 37.6026-58.06482 92.3456 23.91686 201.6988 123.03894 191.3349 20.4622 0 37.60262-10.2311 58.06482-17.1405 20.4622-13.6857 41.05727-34.1479 54.74303-54.743 37.60261-71.7506 6.77644-157.1869-61.51947-198.2442-23.91686-10.2311-47.83372-20.4622-75.20523-20.4622-34.14796 0-64.97413 10.2311-92.21278 30.8262-30.6933 23.9169-47.83371 54.743-61.51947 88.891-6.77644 13.6858-3.45466 30.6933-6.77644 47.8337 0 109.3532 116.2625 198.2442 222.16103 160.6416 27.37151-13.6858 58.06481-23.9169 81.98167-47.8337 20.4622-27.3716 41.05727-54.7431 47.83372-88.891 3.45465-23.9169 6.77644-41.0573 3.45465-64.9742-17.14041-140.0464-174.32731-215.25168-293.9116-143.5011-20.4622 13.6858-41.05727 27.3715-54.74303 47.8337-27.37151 34.148-41.05727 68.2959-47.83371 109.3532-17.14042 126.4936 88.89098 239.3014 211.92993 239.3014 27.37151 0 58.06481-10.2311 85.43633-17.1404 34.14795-13.6857 64.97413-30.8261 88.89098-61.5194 17.14042-23.9169 27.37152-47.8338 41.05728-75.2053 10.2311-30.6933 17.14041-64.9741 13.68575-95.6674-6.77644-41.0573-17.14041-78.6599-41.05727-109.3532 88.89099 102.5768 41.05727 273.4494-75.20523 334.9689-20.4622 13.6857-44.37906 17.1404-64.97413 23.9168-81.98167 20.4622-164.09621-13.6857-215.25171-71.7505-13.68576-13.6858-17.14042-30.6933-27.37152-47.8337-44.37906-64.9742-30.6933-140.1794 3.45466-208.4753 47.83371-81.9817 146.9558-119.5843 242.62323-92.2128 58.06481 17.1404 105.89853 58.0648 129.81539 116.2625 6.77644 27.3715 13.68575 54.743 13.68575 81.9817 0 34.1479-10.2311 64.9741-27.37151 95.6674-13.68576 20.4622-23.91686 37.6026-44.37906 51.2884-17.14041 10.2311-30.6933 17.1404-47.83371 27.3715-30.82617 10.2311-64.97413 17.1404-102.57675 13.6858-112.80784-17.1405-184.55841-136.7247-143.50114-246.0779 13.68576-27.3715 27.37151-54.7431 51.28837-71.7506 51.28837-37.6026 109.35319-47.8337 170.87266-27.3715 92.21277 37.6026 136.7247 143.5011 81.98167 225.6157-10.2311 17.1404-17.14041 30.6933-30.82617 44.379-51.28837 37.6026-119.58429 51.2884-174.32732 17.1404-13.68575-13.6857-30.82617-17.1404-41.05727-34.1479-41.05727-61.5195-41.05727-143.5012 17.14042-194.7895 58.19768-51.5541 160.77443-37.8684 198.37704 33.8822 6.77644 20.4622 17.14042 37.6026 13.68576 61.5195 0 20.4622-10.2311 37.6026-13.68576 54.743-23.91686 51.2884-88.89099 68.2959-140.17936 51.2884-17.14041-10.2311-37.60261-17.1405-47.83371-34.148-44.37906-64.9741-6.77644-164.0962 78.65988-160.6416 20.4622 0 41.05728 13.6858 58.06482 23.9169 27.37151 20.4622 30.6933 51.2884 27.37151 81.9817-10.2311 44.379-58.06481 64.9741-102.57674 54.743-20.4622-6.7764-34.14796-27.3715-41.05727-47.8337-3.45466-23.9169 3.45466-44.3791 20.4622-61.5195 30.6933-30.8262 81.98167-6.7764 88.89099 34.148-3.45466 17.1404-13.68576 34.1479-27.37152 47.8337" fill="#ecf0f9" opacity=".9"/><path d="m226.91591 1287.6157c5.31486 10.4968 15.8117 5.3148 20.86082 5.3148 10.62971-1.0629 28.56735-7.4408 48.23233-28.3016 35.87528-50.624-16.7418-113.7379-74.54088-103.2411-20.99368 5.3149-31.49052 15.8117-47.30222 26.3086-20.99369 20.9937-26.30855 47.3022-20.99369 78.9256 0 15.8117 10.49684 26.3085 15.8117 36.8054 42.12024 57.7991 126.22786 57.7991 168.3481 0 15.8117-26.3086 26.30854-57.7991 20.99369-89.4225-10.49685-52.6171-47.30223-89.4225-94.60446-99.9193-20.99369-5.3149-36.80539-5.3149-57.79907 0-115.73102 26.3085-136.7247 173.5301-52.61709 241.9589 15.8117 15.8117 36.80539 20.9937 57.79907 31.4905 26.30855 5.3149 57.79907 5.3149 84.10762 0 84.10761-26.3085 126.22786-115.731 105.23417-199.8386-10.49684-26.3086-20.99369-52.6171-42.12024-73.6108-26.30855-26.3085-57.79907-42.1202-94.60446-47.3022-42.12024-5.3149-78.92563 5.3148-115.73102 20.9937-15.8117 5.3148-26.30854 20.9936-42.12024 31.4905-84.10761 84.1076-63.11393 241.9589 47.30223 294.5759 31.49053 10.4969 63.11393 26.3086 99.91931 26.3086 36.80539-5.3149 73.61078-10.4969 105.23418-31.6234 20.99368-15.8117 36.80538-26.3086 52.61708-47.3022 94.60446-120.913 31.49053-299.758-115.73101-336.5634-26.30855-5.3148-52.61709-10.4968-78.92563-5.3148-47.30223 5.3148-84.10762 20.9937-120.913 47.3022-110.41616 84.1076-115.73102 252.4557-20.99369 347.0602 20.99369 20.9937 52.61709 36.8054 78.92563 52.6171 36.80539 15.8117 73.61077 26.3085 115.73102 20.9936 31.49053-5.3148 57.79907-15.8117 89.42247-26.3085 31.49053-15.8117 63.11393-36.8054 84.10761-63.1139 26.30855-36.8054 47.30223-73.6108 52.61709-115.731-10.76259 147.4872-179.11069 242.2246-315.83539 200.1043-26.30854-5.3148-47.30223-20.9937-68.42879-31.4905-78.92562-47.3022-115.73101-136.7247-110.41615-220.8323 0-20.9937 10.49684-36.8054 15.8117-57.7991 15.8117-84.1076 84.10761-131.5427 163.03324-157.7184 99.91932-26.30852 205.15349 20.9937 257.77058 115.731 31.49052 57.7991 36.80538 126.2279 10.49684 189.3418-15.8117 26.3086-31.49053 52.6171-52.61709 73.6108-26.30854 26.3085-57.79907 42.1202-94.60446 52.6171-26.30854 5.3148-47.30223 10.4968-73.61077 5.3148-20.99368-5.3148-36.80538-10.4968-57.79907-15.8117-31.49053-15.8117-63.11393-36.8053-89.42247-68.4287-73.61078-99.9194-36.80539-247.1409 78.92563-299.758 31.49053-10.4968 63.11393-20.9937 94.60445-15.8117 68.42879 10.4969 120.91301 47.3022 152.53641 110.4162 42.12024 99.9193-5.31486 215.6503-110.41616 236.644-20.99369 5.3148-36.80539 10.4968-57.79907 10.4968-68.42879-10.4968-131.54272-52.6171-147.22155-120.913 0-20.9937-10.49684-36.8054-5.31486-57.799 15.8117-78.9257 78.92563-142.0396 163.03325-136.7247 84.10761 5.3148 152.5364 94.6044 126.22786 178.8449-10.49685 20.9937-15.8117 42.1202-36.80539 57.7991-15.8117 15.8117-36.80538 20.9937-52.61708 31.4905-57.79908 20.9937-120.91301-15.8117-147.22155-68.4288-5.31486-20.9937-15.8117-42.1202-10.49684-63.1139 15.8117-84.1076 120.913-131.5427 184.02693-63.1139 15.67883 15.6788 20.86081 41.9873 26.17567 62.981 5.31486 36.8054-15.8117 63.1139-42.12024 84.1076-42.12025 26.3086-94.60446 5.3149-120.913-36.8054-10.49685-20.9936-5.31486-47.3022 5.31485-68.4287 15.8117-20.9937 36.80539-31.4906 63.11393-31.4906 23.98451 0 41.23931 14.86 48.993 34.3086 7.53814 18.9078 6.09609 42.1526-6.87275 60.2959-15.81171 10.4968-36.80539 15.8117-57.79908 15.8117" fill="#fff" opacity=".9"/></g><path d="m190.95898 126.51019c-22.91971 0-44.18632 8.21018-60.38086 22.04297l.53516-.4414-131.11328 103.51757 9.5390625 82.03321 54.3886715-6.30664-6.011718-51.73633 44.318364-35.00781c10.83935 38.11224 46.66196 66.16796 88.7246 66.16796 5.25359 0 10.40252-.44749 15.41993-1.28125-3.361 14.21529-5.13714 29.29309-3.54102 45.19922l1.10938 11.05664-75.30665 35.09961 28.2461 17.55469c9.26395 5.75725 30.9257 17.79241 59.88281 21.67578 25.92149 3.47629 58.14286-.53871 88.97461-21.44531 26.34483 14.89205 53.9912 16.42306 76.42774 12.57031 25.6726-4.40841 45.34661-15.10933 54.67968-20.87695l30.27735-18.71289-33.01563-13.29688-48.34375-19.4707-.42187-12.75586c-.42427-12.84922-2.41657-25.16629-5.26172-36.96484 42.4084-7.94755 74.93164-44.56012 74.93164-88.53125 0-49.70336-41.64672-90.08985-92.16016-90.08985-35.97085 0-67.50582 20.23601-82.66797 50.12891h-6.58984c-15.19914-29.85924-46.66005-50.12891-82.64063-50.12891zm0 54.71875c21.12943 0 37.43946 15.98528 37.43946 35.3711 0 19.50661-16.31003 35.45898-37.43946 35.45898-21.12941 0-37.4414-15.95237-37.4414-35.45898 0-10.40488 4.50843-19.42473 12.13086-26.06641l2.73242-2.14648c6.25602-4.45674 14.04069-7.15821 22.57812-7.15821zm171.89844 0c21.12943 0 37.44141 15.98528 37.44141 35.3711 0 19.50661-16.31198 35.45898-37.44141 35.45898-.98556 0-1.92834-.12155-2.88672-.19336-10.47516-20.46984-22.06884-37.0541-31.48437-49.13672 5.6416-12.37654 18.65158-21.5 34.37109-21.5zm-18.81445 195.62891 35.08789 14.13086c-1.04409.21476-1.98903.55791-3.05078.74023-15.69526 2.69515-32.62275 2.04083-49.85938-6.98242 5.87879-1.92391 11.84781-4.50091 17.82227-7.88867zm-88.625.62695c6.95169 3.8747 15.71855 7.71781 26.33594 9.92774-21.70658 13.64385-42.09665 15.41989-60.19922 12.99218-3.74373-.50206-7.31616-1.2596-10.79102-2.10742z" fill="#7896d3"/><path d="m427.38806 391.01981c-16.02 9.9-71.91 38.7-122.31 1.8-60.12 49.5-122.76 16.2-138.69 6.3l90.18-42.03c13.41 9.45 46.89 26.73 85.68-.36z" fill="#fff" stroke-width="36"/><path d="m190.95898 144.51019c-18.62998 0-35.73141 6.66048-48.6914 17.73047l-123.226564 97.28906 6.298828 54.17969 18.630859-2.16015-5.09375-43.83008 78.730467-62.18946c-.54 3.6-.80859 7.29032-.80859 11.07032 0 39.77996 33.1202 72.17968 74.16015 72.17968 16.73999 0 32.039-5.4004 44.45899-14.40039-9.17999 23.57998-17.27992 48.50956-14.66992 74.51954l39.50976-18.35938 5.58008 5.2207s30.95957 28.70911 67.76953-.63086l5.13086-4.04882 28.61914 11.60937c-.63-19.07998-4.85868-37.3497-10.88867-54.17969 2.07.18 4.22867.26953 6.38867.26953 41.03996 0 74.16016-32.39972 74.16016-72.17968 0-39.68996-33.1202-72.08985-74.16016-72.08985-33.11997 0-61.20024 21.05894-70.74023 50.12891h-30.41992c-9.62999-29.06997-37.61832-50.12891-70.73829-50.12891zm0 18.71875c30.50997 0 55.43946 23.85113 55.43946 53.3711 0 29.60997-24.92949 53.45898-55.43946 53.45898s-55.4414-23.84901-55.4414-53.45898c0-15.83999 7.11118-29.96931 18.45117-39.7793l3.7793-2.9707c9.26999-6.66 20.79095-10.6211 33.21093-10.6211zm171.89844 0c30.50997 0 55.44141 23.85113 55.44141 53.3711 0 29.60997-24.93144 53.45898-55.44141 53.45898-5.21999 0-10.16946-.71852-14.93945-1.97851-12.77999-27.26998-29.06978-49.14025-39.50977-61.74024 4.95-24.56997 27.53925-43.11133 54.44922-43.11133z" fill="#fff" stroke-width="36"/><path d="m145.59806 113.48981s44.64-29.880002 89.91.09l20.7-31.320002c-66.15-43.829995-131.49.09-131.49.09z" fill="#7896d3"/><path d="m429.63806 82.349808s-65.34-43.919995-131.58-.09l20.79 31.320002c45.18-29.970002 89.82-.09 89.82-.09z" fill="#7896d3"/><path d="m362.85806 270.05981c30.51 0 55.44-23.85 55.44-53.46 0-29.52-24.93-53.37-55.44-53.37-26.91 0-49.5 18.54-54.45 43.11 10.44 12.6 26.73 34.47 39.51 61.74 4.77 1.26 9.72 1.98 14.94 1.98zm-227.34-53.46c0 29.61 24.93 53.46 55.44 53.46s55.44-23.85 55.44-53.46c0-29.52-24.93-53.37-55.44-53.37-12.42 0-23.94 3.96-33.21 10.62l-3.78 2.97c-11.34 9.81-18.45 23.94-18.45 39.78z" fill="#9db3df" opacity=".75"/></svg>