<svg height="500" viewBox="0 0 500 500" width="500" xmlns="http://www.w3.org/2000/svg" xmlns:xlink="http://www.w3.org/1999/xlink"><filter id="a" color-interpolation-filters="sRGB" height="1.053177" width="1.054849" x="-.027424" y="-.026589"><feGaussianBlur stdDeviation="5.3731165"/></filter><g transform="translate(.000015)"><circle cx="-249.99998" cy="250" fill="#e51a1a" r="250" transform="scale(-1 1)"/><path d="m181.33938 83.856939c97.52275-31.84694 203.27597 26.159281 217.12696 131.568651 10.04116 85.89723-45.79566 162.6049-131.11288 174.6444-76.26503 6.65-147.16573-45.4981-149.44603-126.3231.16679-50.89801 30.03241-87.97493 76.60677-108.40662 44.00125-16.48183 90.46555-3.00917 112.28155 39.63622 17.95322 40.0953 3.57775 87.31302-40.4313 103.80676-21.98685 8.23292-51.6578-5.55285-56.72562-31.5612 24.48155 21.7253 69.7211 11.74379 80.1808-21.06198 5.24648-24.88185-11.48198-41.52298-24.36368-55.64156-23.21161-15.22125-63.26956-13.16738-85.32502 12.05139-41.51846 46.43224-18.48961 112.52397 35.72777 131.08081 60.66482 17.11352 118.96473-29.63961 126.96137-92.39988 2.7637-54.83226-40.99398-106.19486-96.51046-114.27807-76.21988-10.3001-138.45939 50.84936-147.743191 124.09106-9.31956 73.21828 47.315731 138.67973 111.863041 158.33924 49.05305 9.49897 98.18701 2.07129 139.64056-27.40671 82.90715-58.95602 100.11901-177.97214 43.55644-260.39974-52.71171-79.885311-158.575-103.987181-249.15842-67.061741-86.705021 39.45169-149.0660905 134.549061-117.102931 229.167621 15.77888-74.65377 50.93986-153.5943 123.407351-187.514491 9.28724-4.60517 19.44718-8.7232 30.56692-12.33106zm-160.722321 286.075591c-52.57825-113.8254-.38403-260.89182 113.777041-317.643861 10.84604-5.32012 22.21219-9.7712 34.03518-13.36069 115.76394-28.75816 246.03978 34.00351 263.68455 158.897471 10.04526 85.91695-27.72044 168.80365-107.97396 206.83173-102.24035 46.26108-224.798841-11.43986-234.690511-131.24969-7.33455-123.78718 127.307171-194.136761 222.718561-137.24102-42.54074-27.89653-94.21826-33.44528-140.80825-12.98978-71.17376 32.62266-105.080851 118.0397-80.762351 190.63139 30.697281 88.13423 123.572931 132.04164 212.817841 105.59803 82.80488-25.06359 132.16266-100.33164 140.19255-180.04986 12.12434-145.020371-132.23823-245.3588802-265.59709-221.973611 7.92036-4.10499 20.5989-8.4277792 35.61563-11.7452592 60.06317-13.23825 124.63426-3.45807 179.45368 32.4903392 109.65077 71.904621 141.09454 217.803071 65.16008 333.599141-143.00482 218.07486-377.311781 117.06797-437.622951-1.79433" fill="#b21a1a"/></g><g fill="#ff8066" opacity=".9"><path d="m223.63281 11.566406c-.34585 2.331481-.72538 4.647027-1.19141 7.010868-.18657.950775-.4037 1.998574-.61144 2.937944-2.48201 11.22558-6.517 22.338719-13.4823 31.59611-5.35562 7.159932-12.62968 12.889169-20.9302 16.243705-8.12279 3.339608-16.97549 4.555873-25.71629 4.510201-1.57161.558594-3.14323 1.117188-4.71484 1.675782 1.51705.76177 3.00624 1.61045 4.5404 2.318811 8.60031 1.233293 17.41771 2.384605 25.7096 4.679235 7.97255 2.196785 15.80795 5.709363 21.79153 11.548603 6.01796 5.773972 9.77095 13.528615 11.83529 21.527525.87232 3.33802 1.48306 6.74048 1.91615 10.16215.048.4009.13508 1.19306.19803 1.74372.44091 4.12977.61628 8.28387.63205 12.43597.67643 1.33659 1.35286 2.67318 2.02929 4.00977.64207-1.38306 1.40196-2.73913 1.97033-4.13906-.0204-2.04126.006-4.08271.0824-6.12266.0268-.45244.0791-1.47147.0996-1.93555.61795-10.07853 2.73613-20.29918 7.88729-29.09271 4.19488-7.267467 10.60193-13.163631 18.05546-16.97994.45205-.244317.9161-.456821 1.47403-.738938 9.75997-4.664371 20.62638-6.429991 31.35001-6.973797 1.09839-.0816 2.2225-.03714 3.30655-.162487 1.40329-.642375 2.80657-1.284751 4.20986-1.927127-1.4611-.663929-2.89627-1.432069-4.37334-2.031803-2.29896-.08921-4.59589-.243464-6.79072-.429134-5.35164-.48135-10.6837-1.28302-15.89454-2.609375-.59844-.165544-1.51969-.398291-2.23593-.612637-3.47118-.99227-6.86561-2.260277-10.11563-3.834629-.31088-.168167-1.0432-.517093-1.51043-.772721-7.16553-3.727341-13.34822-9.387281-17.4575-16.36209-4.19445-7.028316-6.38868-15.075181-7.3934-23.150345-.0479-.400902-.13486-1.193081-.19771-1.743751-.42179-4.140652-.56019-8.306604-.49564-12.467187-.54232-1.570963-1.08464-3.1419267-1.62696-4.7128902-.7832 1.4661458-1.5664 2.9322912-2.34961 4.3984372zm128.10547 10.783203c-3.23289 4.994898-7.11408 9.876422-12.4668 12.705079-4.06796 2.184525-8.93701 2.574717-13.38223 1.450621-3.72309-.866826-7.17266-2.615747-10.45211-4.517326-1.59884-.323468-3.19768-.646937-4.79652-.970405.90347 1.433546 1.73924 2.926326 2.68503 4.322829 5.08991 4.070247 9.85278 8.951118 12.30315 15.09748 1.93998 4.761537 1.92758 10.192388.24815 15.026957-.7187 2.223163-1.81714 4.303861-2.92492 6.342381-.30823 1.62155-.61646 3.2431-.92469 4.86465 1.42931-.944507 2.9175-1.823846 4.31034-2.808699 3.624-4.489097 7.15736-9.292892 12.14099-12.373033 3.58203-2.252293 8.01167-2.937301 12.14396-2.140537 4.31027.766945 8.33059 2.649891 12.10198 4.81641 1.49674.08789 2.99349.175781 4.49023.263672-.87376-1.251135-1.6652-2.590301-2.59051-3.786319-.94183-.536714-1.90342-1.118405-2.71406-1.655842-1.49711-.982022-3.15667-2.220582-4.55871-3.507058-3.62616-3.249758-6.41352-7.649599-6.96794-12.557915-.71809-5.902685 1.3048-11.740229 3.9411-16.934336.41392-.837528 1.01779-1.611635.95298-2.594136.13074-1.251804.26148-2.503607.39222-3.75541-1.31054.903646-2.62109 1.807292-3.93164 2.710937zm-305.824218 10.164063c-.964413 6.52191-2.794118 13.174156-6.929784 18.440207-3.152034 4.079972-7.873285 6.800359-12.914449 7.762588-1.262483.258577-2.595656.427216-3.771001.514002-1.035589.110833-2.103526.0072-3.121972.160934-1.519889.542058-3.039779 1.084117-4.559668 1.626175 1.53315.756309 3.039557 1.597154 4.589232 2.301231 5.687802.851761 11.603386 1.464725 16.759993 4.21006 3.720761 1.94134 6.528876 5.3844 7.929771 9.316546.944401 2.502252 1.450106 5.149677 1.730769 7.803023.03397.439092.103545 1.023155.130087 1.530155.03861.487267.06291 1.132668.08782 1.560032.119171.957555-.201972 2.016354.408527 2.847444.558765 1.098264 1.117531 2.196527 1.676297 3.29479.638749-1.385612 1.395269-2.744588 1.9603-4.146873-.06274-5.807147.741268-11.918487 4.013077-16.860588 2.754778-4.241004 7.366117-6.941861 12.185875-8.191866 3.38046-.91044 6.88377-1.267653 10.375904-1.359266 1.451172-.654948 2.902343-1.309896 4.353515-1.964844-1.477846-.666253-2.930636-1.432427-4.424082-2.036473-5.918488-.27941-12.0599-1.20131-17.171621-4.393215-3.915041-2.407254-6.694307-6.390484-7.978511-10.769531-1.109987-3.657376-1.421415-7.507855-1.353516-11.314453-.535807-1.579427-1.071615-3.158854-1.607422-4.738281-.789713 1.469401-1.579427 2.938802-2.369141 4.408203zm371.320318 24.589844c-.96891 6.550308-2.81266 13.233389-6.98438 18.509765-3.17096 4.070189-7.91001 6.769078-12.958 7.712231-1.23386.249026-2.53008.410344-3.67677.4948-1.03427.110943-2.10093.0072-3.11806.160934-1.51989.542059-3.03978 1.084117-4.55967 1.626176 1.53315.756308 3.03956 1.597154 4.58923 2.301231 5.72085.857619 11.67667 1.470682 16.85137 4.260476 3.73819 1.976961 6.5298 5.478317 7.90587 9.449791 1.01631 2.75701 1.50328 5.67919 1.75314 8.59788.032.40871.0787 1.05818.0997 1.56793.0494.80719.0635 1.7584.0742 2.67816.67969 1.33594 1.35937 2.67188 2.03906 4.00781.63875-1.38561 1.39527-2.74459 1.9603-4.14687-.0634-5.80821.74198-11.91712 4.01289-16.860717 2.73563-4.212659 7.30535-6.907684 12.08961-8.165343 3.40977-.930399 6.9471-1.293085 10.47236-1.385661 1.45117-.654948 2.90234-1.309895 4.35351-1.964843-1.47784-.666249-2.93063-1.432436-4.42408-2.036467-5.95145-.281225-12.13281-1.211612-17.25908-4.448162-3.91201-2.436063-6.66942-6.450262-7.93081-10.847689-1.11087-3.646454-1.3407-7.494872-1.34589-11.276053-.5251-1.547861-1.0502-3.095722-1.57529-4.643583-.78972 1.469402-1.57943 2.938803-2.36914 4.408204zm-310.63868 49.849604c-2.88427 9.67579-6.674054 19.25731-12.720229 27.42467-4.593031 6.25959-10.803681 11.44827-18.104961 14.21886-4.267484 1.66464-8.80613 2.55258-13.362307 2.92288-.431408.0304-1.233614.0952-1.809921.11876-3.009627.16345-6.109146.11113-9.029148-.0509-7.420628-.42378-14.772527-1.57043-22.121868-2.63033-1.633464.32227-3.266927.64453-4.900391.9668 1.38523.97594 2.730748 2.03259 4.140812 2.95806 10.06887 2.87527 19.822495 7.63277 27.314609 15.07444 6.44325 6.32541 10.890568 14.50871 13.241845 23.19208 2.305504 8.39377 2.878496 17.17437 2.511718 25.84378-.05596 1.15811-.132262 2.56664-.22915 3.81848-.147211 1.92568-.331171 3.82691-.567464 5.79926-.119152 1.22553-.34078 2.31685-.431015 3.55437.332387 1.59367.664774 3.18734.997161 4.78101.961762-1.39115 2.005269-2.74305 2.916037-4.15868 2.80102-10.06178 6.824226-19.99207 13.378924-28.22429 5.088121-6.44228 11.931567-11.53474 19.704638-14.2417 9.54253-3.38554 19.91711-3.48318 29.85799-2.1731 4.10662.5403 8.25132 1.34438 12.20501 2.28205.94143.19975 1.8725.62156 2.83529.29314 1.2313-.19468 2.4626-.38937 3.69391-.58406-1.23238-1.03311-2.41221-2.15884-3.67702-3.13479-10.39298-3.3795-20.61616-7.89682-29.12351-14.87427-6.54382-5.3311-11.80172-12.35633-14.514-20.38903-3.2597-9.47109-3.12715-19.77396-1.35256-29.53177.48838-2.72839 1.11668-5.43003 1.82529-8.1092.19746-.68048.4552-1.66851.69513-2.46172.22445-.79914.61531-1.58836.30337-2.41951-.20198-1.17956-.40395-2.35913-.60592-3.53869-1.02409 1.09114-2.04818 2.18229-3.07227 3.27343zm186.93555 5.28711c-2.32691 16.09512-6.29702 32.1299-13.58799 46.7416-5.47196 10.95348-13.00528 21.01721-22.7156 28.56229-9.65438 7.5931-21.28427 12.4474-33.30769 14.74892-7.24524 1.41931-14.64077 1.97365-22.01763 1.94134-1.56836.55924-3.13671 1.11848-4.70507 1.67773 1.51428.76156 3.0012 1.60868 4.53261 2.3167 14.69832 2.10271 29.56501 3.92903 43.70957 8.64619 9.83507 3.29316 19.29578 8.24386 26.73186 15.5756 7.55603 7.33916 12.74178 16.82878 15.91896 26.8077 3.61823 11.33014 4.99425 23.25098 5.34332 35.10108.0442 1.79143.0775 3.73354.0762 5.58398.67187 1.33203 1.34375 2.66406 2.01562 3.99609.64624-1.37343 1.41236-2.71902 1.98406-4.10976-.0292-3.00637.0156-6.01292.13117-9.01719.0339-.5627.0766-1.46505.11387-2.15799.0356-.85625.10717-1.66738.17142-2.5984.30433-4.09925.7936-8.23859 1.4868-12.22044.39775-2.30283.89065-4.69109 1.4369-6.92551 1.87119-7.70768 4.69898-15.21763 8.74219-22.05664.54582-.90935 1.23452-2.03219 1.88329-2.99605.75376-1.12863 1.43236-2.09394 2.265-3.19644 4.40323-5.85278 9.84405-10.90912 15.95132-14.94619 1.15662-.77361 2.53871-1.62191 3.82288-2.36079 11.56821-6.64948 24.70042-10.07085 37.8529-11.78178.68994-.0791 1.66957-.20125 2.4707-.29688.9993-.10379 2.26526-.2473 3.37106-.33963 4.04569-.37601 8.105-.58698 12.16605-.70334 1.4349-.6569 2.86979-1.3138 4.30469-1.9707-1.46303-.66336-2.90027-1.43053-4.3792-2.02988-2.37522-.0984-4.68341-.22415-7.00276-.3951-2.40605-.17705-4.67006-.37907-7.08732-.65264-6.49154-.72366-12.94638-1.82358-19.27877-3.4341-.50578-.13211-1.3531-.36106-1.98979-.53028-11.6644-3.19983-22.97355-8.43081-32.05894-16.53432-3.58786-3.18546-6.80225-6.78833-9.57822-10.70102-.44927-.64948-1.06756-1.53958-1.55589-2.30334-3.48942-5.39626-6.15844-11.29811-8.13552-17.40565-.4234-1.33472-.89631-2.89526-1.27745-4.33714-.62685-2.34111-1.15649-4.66729-1.60332-6.98995-.50358-2.62014-.90848-5.24645-1.22348-7.83178-.41957-3.42096-.69317-6.86591-.84959-10.24711-.16511-3.41451-.18813-6.85667-.14967-10.32058-.54493-1.56966-1.08985-3.13932-1.63477-4.70899-.78125 1.4668-1.5625 2.9336-2.34375 4.40039zm137.07617 37.54688c-1.32724 2.185-2.79536 4.39107-4.27197 6.35702-3.19111 4.25939-6.90065 8.19707-11.32373 11.19376-.28254.19451-.92384.60854-1.35156.87109-5.26175 3.26699-11.57565 4.80225-17.74812 4.21153-4.3309-.36939-8.54737-1.61752-12.52923-3.32871-1.65625-.0911-3.3125-.18229-4.96875-.27344 1.09341 1.28698 2.12738 2.64332 3.25779 3.88711 2.33504 1.39078 4.66458 2.76494 6.86812 4.17123 5.33742 3.42249 10.68392 7.34863 13.87576 12.96596 2.79884 4.83405 3.3665 10.65402 2.5434 16.10274-.69054 4.77798-2.23409 9.38944-4.0978 13.82804.10351 1.49218.20703 2.98437.31055 4.47656 1.1287-1.02146 2.35615-1.97171 3.42324-3.03761.87507-2.13632 1.8571-4.22982 2.96543-6.25536.23175-.42185.64842-1.1514.9674-1.68121 3.31901-5.58765 8.03163-10.62156 14.15158-13.09695 6.32227-2.62011 13.44973-2.29309 19.98613-.69982 1.61109.38839 3.0124.79461 4.59479 1.31095 1.53509.46252 3.01987 1.11876 4.53289 1.61042 1.56107-.0299 3.12215-.0599 4.68322-.0899-1.09889-1.19457-2.13577-2.47077-3.27334-3.61442-6.77395-3.28227-13.44494-7.34015-18.14438-13.34622-3.40865-4.31721-5.32366-9.76671-5.34488-15.26879-.0804-6.40211 1.8619-12.64284 4.42862-18.4444.11588-1.65625.23177-3.3125.34765-4.96875-1.29427 1.03971-2.58854 2.07943-3.88281 3.11914zm-393.462889 85.48828c3.105004 5.71894 5.618077 12.03323 5.570875 18.63552.0047 5.15271-2.036006 10.20356-5.432312 14.05333-1.54595 1.8364-3.406693 3.38415-5.265725 4.87716-.904878 1.37773-1.809757 2.75547-2.714635 4.13321 1.681007-.32294 3.391563-.56269 5.054289-.9371 4.542525-2.48854 9.084635-5.17396 14.160555-6.42032.423929-.0987 1.185433-.26013 1.755268-.3382 4.13909-.69659 8.458139.35907 11.941259 2.66126 3.731382 2.38659 6.742034 5.72081 9.412848 9.216l4.033203 1.9707c-.320607-1.48833-.530188-3.02658-.920088-4.48375-3.537909-4.59261-6.55796-9.94167-6.930453-15.84465-.21237-3.23036.517156-6.48641 1.938432-9.38449.160896-.31897.508303-1.01259.776732-1.45792 2.396264-4.12458 5.866784-7.50638 9.561159-10.47176.761718-1.39779 1.523437-2.79558 2.285156-4.19336-1.580449.36008-3.201286.6252-4.756592 1.0444-.585195.39163-1.094755.7543-1.603067 1.07618-4.803441 3.1031-10.224602 5.75124-16.053227 5.85544-4.827478.12732-9.476323-1.96897-13.080246-5.0856-2.46252-2.0534-4.512612-4.55391-6.441073-7.08931-1.351359-.92068-2.702718-1.84137-4.054077-2.76205.253907 1.64844.507813 3.29687.761719 4.94531zm137.117189.125c2.87628 6.80615 4.9354 14.24808 4.05078 21.69336-.65517 5.76929-3.46265 11.16537-7.51054 15.28594-4.83499 4.98957-10.96998 8.47459-17.23751 11.34297-1.07487 1.16796-2.14974 2.33593-3.22461 3.5039 1.61521.0374 3.24655.17764 4.85174.15123 3.20566-1.19788 6.64192-2.24374 9.89826-2.91099 6.83274-1.43536 14.25721-1.47703 20.76004 1.60922 6.17892 2.87915 10.79234 8.28109 14.02714 14.16139 1.38388 2.48416 2.54566 5.0858 3.57415 7.73525 1.11133 1.0039 2.22266 2.00781 3.33399 3.01172.10247-1.5211.32483-3.0594.35234-4.56973-2.62098-6.67056-4.65822-13.81926-4.06719-21.05527.40147-5.15927 2.60942-10.11393 6.09065-13.93148 4.72214-5.25088 10.94567-8.78557 16.98732-12.29037.9186-.56088 1.97635-.95292 2.57764-1.89879.85308-.98518 1.70616-1.97036 2.55924-2.95554-1.69728.0874-3.41309.0859-5.09897.22789-6.72932 2.73666-14.24824 4.12892-21.43424 2.53383-7.01399-1.50141-13.1351-5.76835-17.93079-10.98519-2.17899-2.34124-4.18412-4.96359-5.92468-7.53434-1.11246-1.61219-2.0937-3.32401-3.13926-4.96838-1.2472-1.04114-2.4944-2.08228-3.7416-3.12342.082 1.6556.16407 3.3112.2461 4.9668zm228.00195 11.0625c-2.00218 4.85812-4.14948 9.65677-6.4707 14.37109-.52783 1.02931-1.14432 2.29723-1.73111 3.40863-7.30184 14.09125-16.34927 27.46924-28.02236 38.31769-9.34101 8.70732-20.50061 15.56399-32.72663 19.35918-2.06841.6476-4.02537 1.18125-6.15822 1.67205-3.16859.72878-6.38313 1.2721-9.55292 1.63077-3.71606.42376-7.65606.6237-11.47436.58563-1.29904-.0147-2.57049-.0417-3.74778-.10557-8.64404-.38878-17.21502-1.85242-25.58662-4.009-1.6569.15885-3.3138.31771-4.9707.47656 1.28094 1.10852 2.51433 2.29342 3.82501 3.35418 6.01314 2.45353 12.01468 4.87683 17.94837 7.42682 5.52352 2.38968 11.14891 4.95679 16.5347 7.78173 1.95672 1.01931 3.94849 2.11663 5.7753 3.176 10.38072 5.99155 20.12411 13.50354 27.20337 23.28006 2.66275 3.65744 4.92567 7.60209 6.76403 11.73512.29731.68959.71337 1.64918 1.02711 2.45717 4.71784 11.9112 5.84267 24.94445 5.08972 37.64559-.12001 2.01505-.30622 4.28503-.52181 6.30399-.35707 3.40935-.83606 6.80886-1.39881 10.12818-.88752 5.24496-2.01917 10.44592-3.30168 15.60765.33073 1.45833.66146 2.91666.99219 4.375.95855-1.18252 2.02559-2.30982 2.91644-3.5268 2.00105-8.39203 4.522-16.67404 7.80231-24.65875.68385-1.63981 1.46732-3.46582 2.25284-5.15101 5.65414-12.2402 13.49327-23.68663 24.00257-32.25892 2.12522-1.7484 4.50432-3.46278 6.72701-4.8889 1.0724-.68394 2.11595-1.32089 3.27598-1.97607 8.23141-4.69621 17.37918-7.66707 26.7162-9.17627 10.02864-1.62387 20.43318-1.67403 30.59719-.71688 3.24589.29355 6.47997.70586 9.7036 1.18367 1.11371.17774 2.48472.38223 3.69339.59721 3.59766.61082 7.17543 1.33383 10.73825 2.12154l4.65039-.86718c-1.25648-.99875-2.46261-2.09207-3.75011-3.03256-4.12402-1.21362-8.29471-2.5444-12.27187-3.96029-14.05554-5.00739-27.75685-11.53693-39.45142-20.91468-9.28511-7.42752-17.07574-16.85905-21.95997-27.74242-4.56423-10.02412-6.64965-21.04578-6.91038-32.01998-.0226-1.18032-.0416-2.60875-.022-3.88707.0239-2.00824.10458-4.10852.23289-6.08753.0961-1.53595.22919-3.03357.36915-4.4961.76587-7.65486 2.21547-15.32914 4.06054-22.73047.26431-1.24011.72591-2.46136.89302-3.70707-.13621-1.58397-.27243-3.16794-.40864-4.75191-1.11784 1.22331-2.23568 2.44661-3.35352 3.66992zm-316.046873 40.68164c2.884 10.68427 4.982427 21.61341 5.6875 32.66992.02549.56227.07701 1.46503.112487 2.15786.05571 1.26208.102148 2.83426.114683 4.22005.138479 12.92092-2.010883 26.04417-7.637285 37.75682-5.079361 10.73988-13.065072 19.97642-22.586159 27.02842-6.724137 5.02639-14.157717 9.04625-21.87482 12.32318-1.222005 1.13281-2.44401 2.26563-3.666015 3.39844 1.693217.10194 3.394983.29288 5.082848.33908 11.296639-3.05071 22.59042-6.25957 34.176917-8.02853 1.133799-.16377 2.524503-.36002 3.760177-.50874 10.399933-1.25866 21.17963-1.02257 31.19024 2.32589 9.49988 3.10706 17.91081 9.00825 24.70615 16.27137 4.8272 5.11315 9.00636 10.95526 12.59343 16.90757 3.7265 6.1973 6.93519 12.69428 9.80078 19.33008 1.14454.95768 2.28907 1.91536 3.4336 2.87304.049-1.51804.21877-3.05797.19254-4.5624-4.63138-10.4563-8.32382-21.41277-9.96989-32.75986-.27823-1.92265-.51333-4.05347-.65699-6.06894-.32218-4.47165-.2696-8.97395.22731-13.43106.11669-.98359.27503-2.22712.45752-3.30569.3045-1.86147.69236-3.70918 1.16162-5.53611.28469-1.09155.66219-2.41643 1.04176-3.58315.86917-2.68277 1.93618-5.33538 3.1341-7.80486 5.2644-10.94005 13.73191-20.05554 23.32591-27.3647 8.51184-6.51005 17.92835-11.74842 27.63495-16.24729 1.05924-1.17122 2.11849-2.34245 3.17773-3.51367-1.60645-.0308-3.23019-.16684-4.82598-.13266-5.94379 2.27578-11.98706 4.30051-18.13691 5.94516-1.00935.25422-2.27259.59428-3.38736.85123-12.24405 2.94346-25.09475 4.27677-37.57212 2.03644-2.04518-.36107-4.24399-.8711-6.13427-1.4072-8.26721-2.31684-15.99271-6.45419-22.59375-11.9336-.74525-.61597-1.68268-1.42081-2.47402-2.14383-3.88954-3.52593-7.45334-7.57687-10.53379-11.72726-3.36788-4.52557-6.317789-9.35078-8.966799-14.32812-.21801-.43635-.612027-1.18516-.897473-1.74123-.378499-.71443-.657051-1.29425-1.036587-2.06836-1.542863-3.12203-2.949398-6.30945-4.286643-9.5244-1.120443-1.22656-2.240886-2.45312-3.361329-3.67969-.13802 1.6556-.276041 3.3112-.414062 4.9668zm169.927733 59.02735c-2.47848 2.34517-5.19074 4.67341-7.99023 6.76757-.87449.64873-1.9736 1.43507-2.96094 2.09961-6.88339 4.63567-14.85502 8.09718-23.25303 8.33378-2.37742.0749-4.76145-.10744-7.10049-.53886-.34091-.0621-1.1425-.22515-1.65351-.34759-6.52022-1.52872-12.45889-4.93599-17.6336-9.1192-1.57291-.53646-3.14583-1.07292-4.71875-1.60938.70756 1.53607 1.33962 3.12259 2.09427 4.62719 3.98058 4.19235 8.0121 8.3624 11.49753 12.98609.64483.87378 1.43148 1.96326 2.07463 2.96146 3.37025 5.08841 5.68819 11.07024 5.53429 17.24593-.11358 7.32864-3.19852 14.24137-7.05223 20.34226-1.54938 2.45491-3.2589 4.80573-5.05278 7.08707-.30209 1.46875-.60417 2.9375-.90625 4.40625 1.36345-.68505 2.80224-1.27596 4.11854-2.01994 1.1205-1.4525 2.44318-3.02457 3.57091-4.29256 5.24936-5.83781 11.64981-10.98899 19.2793-13.25586 4.82824-1.45155 10.00795-1.58532 14.9375-.58008.36724.0735 1.16103.24703 1.68606.38029 3.46459.86002 6.79467 2.20595 9.96823 3.83065.38044.19622.97095.50449 1.40162.7457 3.37079 1.84171 6.56677 3.99063 9.62378 6.3129 1.5319.38802 3.0638.77604 4.5957 1.16406-.72593-1.43504-1.36705-2.93457-2.14532-4.32981-6.41473-5.56845-12.4236-11.93413-16.03875-19.716-2.73172-5.79615-3.67288-12.44597-2.41468-18.7463 1.57325-8.1229 6.03334-15.35765 11.19769-21.6913.60336-.79665.71905-1.86563 1.12112-2.77469.26193-.74665.52386-1.4933.7858-2.23995-1.52214.6569-3.04427 1.3138-4.56641 1.97071zm173.28906 48.65234c-.95047 6.4257-2.73819 12.97087-6.74437 18.20436-3.07435 4.08005-7.69383 6.87844-12.68145 7.90885-2.36446.55175-4.80829.65999-7.21719.73093-1.55129.55325-3.10258 1.10651-4.65386 1.65976 1.53315.75631 3.03956 1.59716 4.58923 2.30124 1.71895.24135 3.5173.50278 5.1178.75541 1.22972.20149 2.33269.40301 3.59481.67185 4.64759.98403 9.4356 2.7126 12.63701 6.39434 3.27501 3.65727 4.58573 8.8233 5.06505 13.45138.0832.85796.14268 1.49538.18621 2.38387.0547.91249.0726 1.87016.0833 2.8759.67968 1.33594 1.35937 2.67187 2.03906 4.00781.63875-1.38561 1.39527-2.74459 1.9603-4.14687-.0634-5.83629.7508-11.98023 4.06731-16.9316 2.77808-4.23089 7.41202-6.89157 12.23403-8.13135 3.349-.88593 6.81531-1.24032 10.27156-1.32729 1.44987-.65429 2.89974-1.30859 4.34961-1.96289-1.47591-.66685-2.92664-1.43391-4.41822-2.03845-5.87165-.2838-11.96315-1.18276-17.05089-4.32074-3.96245-2.39099-6.78512-6.39175-8.08418-10.79974-1.15688-3.69683-1.39416-7.60994-1.40071-11.45139-.5251-1.54786-1.0502-3.09572-1.5753-4.64358-.78971 1.4694-1.57942 2.9388-2.36914 4.4082zm-169.69921 36c-.7879 5.37229-2.17117 10.75235-4.91211 15.48242-.17485.30566-.56329.93944-.84913 1.35411-2.79368 4.29725-7.16114 7.5305-12.11043 8.88438-2.84302.84476-5.82969 1.05999-8.77135 1.12323-1.55129.55325-3.10257 1.10651-4.65386 1.65976 1.53315.75631 3.03956 1.59716 4.58923 2.30124 1.72035.24133 3.50959.50205 5.1178.75541 1.14624.18947 2.12929.36312 3.30102.61113 4.73905.97388 9.63737 2.68933 12.91142 6.43269 3.50544 3.96292 4.7469 9.35115 5.18014 14.49329.0319.40474.0788 1.05928.0997 1.56792.0493.80125.0634 1.7532.0741 2.67231.67969 1.33594 1.35937 2.67187 2.03906 4.00781.63875-1.38561 1.39527-2.74459 1.9603-4.14687-.0636-5.8055.74159-11.91251 4.01289-16.85291 2.74724-4.22695 7.34311-6.91717 12.14497-8.17054 3.39225-.91714 6.90967-1.2777 10.41504-1.36679 1.44987-.65429 2.89974-1.30859 4.34961-1.96289-1.47591-.66685-2.92664-1.43391-4.41822-2.03845-5.91789-.28422-12.06004-1.20008-17.17162-4.39319-3.95496-2.43272-6.74864-6.47153-8.01827-10.90263-1.1106-3.64648-1.34068-7.49489-1.34589-11.27605-.5251-1.54786-1.0502-3.09572-1.57529-4.64358-.78972 1.4694-1.57943 2.9388-2.36914 4.4082z" filter="url(#a)"/><path d="m225.61 11.864995c-6.1 42.1-26.8 64.2-63.9 64 31.6 4.5 63.8 8 63.9 64.070005-.6-46.100005 24.5-63.070005 64.1-64.070005-38-1.5-64.9-16.3-64.1-64zm127.8 11.58c-9.1 14.25-20.8 21.29-38.9 10.28 14.9 11.79 18.6 24.76 10.2 38.97 8.9-11.18 17.5-22.73 39-10.27-17.8-10.06-18.8-23.57-10.3-38.98zm-305.52 9.38c-2.7 18.8-12 28.6-28.5 28.5 14.1 2 28.4 3.6 28.5 28.52-.3-20.5 10.9-28.12 28.5-28.52-16.9-.7-28.9-7.3-28.5-28.5zm371.32 24.59c-2.7 18.8-12 28.6-28.5 28.5 14.1 2 28.4 3.6 28.5 28.520005-.3-20.500005 10.9-28.120005 28.5-28.520005-16.9-.7-28.9-7.3-28.5-28.5zm-310.7 50.120005c-15.8 53.7-47.76 48-79.35 43.4 35.65 10.2 49.35 37.3 43.33 79.4 12.66-46 42.62-52.6 79.42-43.4-37.6-12.1-56.9-35.4-43.4-79.4zm187 5c-8.8 61.6-39.3 94-93.6 93.7 46.2 6.5 93.6 11.7 93.6 93.7-.8-67.3 35.9-92.2 93.8-93.7-55.5-2.2-94.9-23.9-93.8-93.7zm136.8 38.3c-13.1 21.6-29.5 28.8-49.7 20.1 16.3 9.7 33 19.1 20.1 49.6 10.3-25.2 27.9-28.7 49.7-20-20.3-9.7-31.6-23.9-20.1-49.7zm-393.4 83.5c9.16 16.7 7.63 30.1-5.61 40 12.46-6.9 24.85-14.3 39.91 5.6-12.57-16.2-8.2-29 5.61-40-13.92 9.7-27.47 11.6-39.91-5.6zm137.2.3c11.4 26.8-.5 41.3-21.7 50.9 22.7-8.5 40.8-4.5 50.9 21.7-12.7-31.8 4.8-41.2 21.7-50.9-21 8.5-37.8.9-50.9-21.7zm228 12.6c-26.6 64.7-68.7 91.7-127.8 76.4 48.6 19.8 98.8 38.5 76.4 127.9 17.5-73.7 64.4-90.7 127.9-76.5-59.9-17.5-96.9-52-76.5-127.8zm-315.96 39.4c15.66 57.8.86 98.1-47.32 118.5 43.46-11.8 87.38-25.2 118.68 47.4-26.4-59.3-3.4-95.4 47.3-118.8-50 19.2-93.1 15-118.66-47.1zm169.36 61c-21.8 20.6-43 23.6-63.2 7.3 15.5 16.3 31.6 32.4 7.2 63.3 19.8-25.6 41.2-24.1 63.3-7.3-20.2-17.4-28.6-37.5-7.3-63.3zm173.9 47.5c-2.7 18.8-12 28.6-28.5 28.5 14.1 2 28.4 3.6 28.5 28.5-.3-20.5 10.9-28.1 28.5-28.5-16.9-.7-28.9-7.3-28.5-28.5zm-169.7 36c-2.7 18.8-12 28.6-28.5 28.5 14.1 2 28.4 3.6 28.5 28.5-.3-20.5 10.9-28.1 28.5-28.5-16.9-.7-28.9-7.3-28.5-28.5z"/></g></svg>