<svg height="500.00003" viewBox="0 0 500 500.00003" width="500" xmlns="http://www.w3.org/2000/svg" xmlns:xlink="http://www.w3.org/1999/xlink"><filter id="a" color-interpolation-filters="sRGB" height="1.090315" width="1.102449" x="-.051224" y="-.045158"><feGaussianBlur stdDeviation="6.7999461"/></filter><filter id="b" color-interpolation-filters="sRGB" height="1.005945" width="1.006056" x="-.003028" y="-.002973"><feGaussianBlur stdDeviation=".35438328"/></filter><g transform="translate(-500)"><path d="m926.7767 73.223311c45.24113 45.241099 73.2233 107.741109 73.2233 176.776699 0 69.0356-27.98221 131.53559-73.2233 176.77669-45.2411 45.2411-107.74109 73.22332-176.77669 73.22332-69.03559 0-131.5356-27.98219-176.7767-73.22332-45.2411-45.2411-73.22331-107.74109-73.22331-176.77669 0-69.03559 27.9822-131.5356 73.22331-176.776699 45.2411-45.241105 107.74111-73.22330934 176.7767-73.22330934 69.0356 0 131.53559 27.98220534 176.77669 73.22330934z" fill="#3b2f4f"/><g transform="translate(500)"><path d="m230.6486 0c-128.19182 22.346591-234.17086 139.43202-223.06447 273.24395 5.6201 44.55936 16.72649 83.63245 44.55937 122.70552l50.17947 50.17947c33.45298 22.34661 72.52606 44.55938 111.46533 50.17946 39.07308 5.62012 78.01235 5.62012 111.46534-5.62008 39.07308-16.72649 72.52607-33.45297 100.35893-61.28587 33.45297-39.07306 55.79958-83.63245 66.90595-139.43201v-61.28587c-5.62008-27.83287-11.10637-50.17947-22.34657-78.01235-11.10641-22.34659-27.8329-44.55937-50.17947-61.285858-27.83289-27.832879-61.28586-44.559368-100.35895-55.799569-27.83288-5.620101-55.79957-11.10639-89.25255-5.620101-78.01235 11.106391-139.43202 61.28586-172.885 128.191818-11.10639 27.83288-16.72649 61.28586-22.34659 89.25255 0 33.45298 5.6201 66.90596 16.72649 94.73885 22.34659 44.55936 55.79957 89.25254 105.97904 111.46532 16.72649 5.62012 33.45298 11.1064 55.79957 16.72648 122.70553 22.34661 234.17085-55.79954 250.89734-178.37127 11.10641-78.01236-22.34657-139.43203-72.52604-189.6115-100.35895-89.25255-267.62385-44.559369-312.18322 78.01235-5.6201 27.83288-16.72649 55.79958-16.72649 83.63245 5.6201 78.01235 55.79957 150.53843 133.81192 172.885 61.28586 16.72649 122.70553 5.62012 172.885-33.45298 11.10639-11.10637 22.34659-22.34657 33.45299-33.45297 61.28584-83.63246 44.55935-195.09778-44.55937-256.51746-27.83288-16.726488-55.79958-22.346588-89.25256-27.832879-22.34659-5.620101-44.55937 5.620101-66.90596 11.106391-27.83288 16.726488-50.17947 22.346588-72.52606 50.179468-27.83288 33.45298-33.45298 66.90596-39.07308 105.97904 0 55.79958 27.83288 117.08544 83.63245 144.91833 78.01235 44.55934 183.99139 11.10637 223.06447-72.52607 22.3466-55.79958 11.1064-128.19183-39.07308-172.88501-33.45298-27.83288-66.90596-39.07308-111.46533-39.07308-66.90596 5.6201-111.46533 55.79957-122.70553 122.70553-11.10639 72.52606 33.45298 139.43202 105.97904 150.53843 100.35894 16.72649 183.99138-89.25257 139.43202-178.37131-11.10638-16.72649-27.83288-39.07308-50.17947-50.17947-27.83288-11.10639-55.79957-16.72649-83.63245-11.10639-33.45298 5.6201-55.79957 27.83288-72.52606 50.17947-16.72649 27.83288-16.72649 55.79957-11.10639 83.63245 11.10639 33.45298 39.07308 61.28586 72.52606 72.52607 44.55937 16.72649 89.25255-5.62011 111.46533-39.07309 33.45298-55.79957 5.6201-117.08543-50.17947-139.43202-50.17947-16.72649-122.70553 27.83288-105.97904 89.25255 5.6201 16.72649 11.10639 39.07309 27.83288 50.17947 22.34659 16.7265 50.17947 16.7265 72.52606 11.1064 22.34659-11.1064 39.07308-33.45299 39.07308-61.28587-5.6201-16.72649-5.6201-39.07308-22.34659-50.17947-13.91644-8.36324-29.2379-11.13984-43.17107-8.34651-13.93317 2.79332-26.47803 11.15656-34.84128 25.073-5.6201 16.72649-11.10639 33.45298 9.50065 44.827 41.74932-49.10898 35.32635.40143 29.84006-16.45887v5.6201c16.72649-5.6201 22.34659-22.34659 27.83288-33.45298 5.6201 5.6201 16.72649 11.10639 16.72649 22.34659 11.10639 39.07308-27.83288 72.52606-66.90596 61.28586-33.45298-11.10639-44.55937-50.17947-39.07309-83.63245 5.62011-22.34659 22.3466-39.07308 50.17948-44.55937 33.45298-5.6201 66.90596 11.10639 83.63245 39.07308 16.72649 27.83288 16.72649 50.17947 0 78.01235-33.45298 55.79958-105.97905 55.79958-150.53841 11.10639-33.45298-44.55937-22.3466-117.08543 27.83288-144.91831 16.72648-11.10639 39.07308-16.72649 61.28586-16.72649 11.10638 0 27.83288 5.6201 39.07308 11.10639 27.83288 11.10639 39.07308 39.07308 55.79957 61.28586 5.6201 16.72649 5.6201 27.83288 5.6201 44.55937-5.6201 72.52606-72.52606 122.70554-144.91831 105.97904-83.63246-22.34659-122.70554-122.70553-72.52606-195.09778 11.10638-16.72649 22.34659-27.83288 39.07308-39.07308 78.01235-44.559372 167.2649-5.6201 200.71788 66.90596 39.07309 94.73884-39.07308 206.33797-139.43202 200.71788-27.83288-5.62012-55.79958-5.62012-78.01235-22.3466-22.34659-11.10638-27.83288-27.83287-39.07309-39.07307-66.90596-78.01235-33.45298-195.09778 55.79958-239.79097 39.07308-16.726484 83.63245-16.726484 128.19182-5.6201 94.73883 33.45298 139.43201 144.91832 94.73883 234.17087-11.10637 27.83288-33.45297 44.55935-55.79956 66.90596-22.34659 16.72649-50.17947 27.83289-78.01235 33.45298-44.55937 5.62012-89.25256-5.62009-128.19182-27.83286-94.73884-66.90598-117.08544-211.82429-22.3466-289.97045 16.7265-11.1064 27.83288-33.452984 50.17948-39.073085 33.45298-11.106392 66.90596-22.346593 105.97904-16.726492 27.83288 5.6201 55.79957 16.726492 78.01235 27.832879 16.72649 16.726488 39.07309 22.346598 50.17946 44.559368 11.10641 16.72649 27.8329 33.45298 33.45298 55.79957 22.34661 66.90596 16.72649 139.43203-27.83286 195.09781-16.72649 22.34657-33.45298 44.55934-61.28587 55.79954-22.34659 5.62012-39.07308 22.34661-61.28586 22.34661-39.07308 0-83.63245 5.62008-122.70553-11.10641-117.08543-44.55934-167.26491-195.09777-105.97905-306.69691 16.7265-33.45298 44.55937-61.285864 78.01236-83.632457 44.55936-22.34659 89.25255-33.452979 139.43202-27.832879 61.28586 5.6201 111.46532 39.07308 156.1585 83.632456 22.34661 22.34659 27.8329 50.17947 39.0731 78.01234 11.10637 16.7265 5.62008 39.07309 11.10637 61.28586 11.10645 172.88502-195.09777 301.07685-351.25629 211.82429-27.83287-16.72649-50.17946-27.8329-66.90596-50.17947-61.28586-72.52608-78.01235-167.26492-50.17947-256.51747 16.72649-33.45298 39.07309-61.28586 61.28587-89.252546 39.07308-39.073083 94.73884-55.799574 144.9183-72.526064" fill="#221b35" opacity=".9"/><path d="m231.45148 15.388371c-120.56454 21.008472-220.12061 131.001869-209.68329 256.785079 5.21867 41.88313 15.78981 78.68141 41.88314 115.34586 15.7898 15.65602 31.4458 31.44582 47.23561 47.1018 31.4458 21.0085 68.11026 41.88314 104.77473 47.23563 36.66447 5.21866 73.32893 5.21866 104.77473-5.21866 36.66447-15.65601 68.11026-31.44582 94.33742-57.67295 31.44579-36.66448 52.45425-78.68141 62.89161-131.00187v-57.67294c-5.2187-26.22714-10.43736-47.23561-21.00851-73.32894-10.43731-21.00847-26.22712-41.88313-47.10179-57.672935-26.22713-26.227136-57.67292-41.88313-94.33739-52.454272-26.22714-5.218666-52.45427-10.43733-83.90008-5.218666-73.32893 10.437332-131.00187 57.672938-162.44767 120.564543-10.43733 26.22713-15.78981 57.67294-21.00847 83.90008 0 31.44579 5.21866 62.8916 15.78981 89.11874 21.00847 41.88313 52.45427 83.90006 99.55607 104.77473 15.7898 5.21866 31.4458 10.43732 52.45427 15.65601 115.34588 21.00847 220.12062-52.45428 235.91043-167.66635 10.43732-73.32894-21.00847-131.00188-68.11026-178.23748-94.33742-83.900079-251.56643-41.883137-293.44956 73.32893-5.21867 26.22713-15.78981 52.45427-15.78981 78.68141 5.21866 73.32893 52.45427 141.573 125.78321 162.44767 57.67293 15.78981 115.34587 5.21866 162.44767-31.44578 10.43733-10.43736 21.00849-21.00849 31.4458-31.44582 57.67295-78.68141 41.88314-183.45615-41.88313-241.12909-26.22714-15.7898-52.45428-21.008465-83.90008-26.227131-21.00847-5.218666-41.88313 5.218666-62.8916 10.437331-26.22714 15.7898-47.23561 21.00847-68.11027 47.1018-26.22713 31.4458-31.4458 62.8916-36.66447 99.55606 0 52.45428 26.22714 110.12722 78.68142 136.22052 73.32893 41.88314 173.01881 10.43736 209.68327-68.11025 21.00847-52.45427 10.43736-120.56454-36.66446-162.44767-31.4458-26.22714-62.8916-36.66447-104.77473-36.66447-62.89161 5.21867-104.77474 52.45428-115.34588 115.34588-10.43733 68.11027 31.4458 131.00187 99.55607 141.57302 94.3374 15.65599 173.01881-83.90008 131.00187-167.66635-10.43733-15.7898-26.22714-36.66446-47.1018-47.2356-26.22713-10.43733-52.45427-15.656-78.68141-10.43733-31.4458 5.21866-52.45427 26.22713-68.11027 47.23561-15.7898 26.22713-15.7898 52.45427-10.43732 78.6814 10.43732 31.44581 36.66446 57.67295 68.11026 68.11027 41.88314 15.78981 83.90008-5.21866 104.77474-36.66446 31.4458-52.45428 5.21866-110.12721-47.1018-131.00187-47.23561-15.78981-115.34588 26.22713-99.55607 83.90007 5.21867 15.65599 10.43733 36.66447 26.22714 47.23561 21.00847 15.78981 47.10179 15.78981 68.11027 10.43733 21.00847-10.43733 36.66446-31.4458 36.66446-57.67294-5.21866-15.7898-5.21866-36.66447-21.00847-47.23561-13.11356-7.8949-27.5318-10.50423-40.62864-7.86145-13.09684 2.64279-24.87229 10.53769-32.70029 23.65126-5.21867 15.656-10.43733 31.4458 8.9654 42.15076 39.20689-46.70036 33.05154-.26763 27.96669-16.05744v5.21867c15.78981-5.21867 21.00847-21.00847 26.22714-31.4458 5.21866 5.21866 15.65599 10.43733 15.65599 21.00847 10.43733 36.66447-26.22714 68.11027-62.8916 57.67294-31.4458-10.43733-41.88313-47.23561-36.66447-78.68141 5.21867-21.00848 21.00847-36.66447 47.1018-41.88314 31.4458-5.21866 62.8916 10.43734 78.68141 36.66447 15.65599 26.22714 15.65599 47.23561 0 73.32893-31.4458 52.45428-99.55607 52.45428-141.57302 10.43734-31.4458-41.88313-21.00847-110.12722 26.22714-136.22054 15.78981-10.43733 36.66447-15.656 57.67294-15.656 10.43733 0 26.22714 5.21867 36.66447 10.43733 26.22713 10.43733 36.66446 36.66447 52.45427 57.67294 5.21866 15.78981 5.21866 26.22714 5.21866 41.88314-5.21866 68.11026-68.11026 115.34586-136.22053 99.55606-78.68141-21.00847-115.34588-115.34587-68.11027-183.45614 10.43733-15.656 21.00847-26.22714 36.66447-36.66447 73.32893-41.88313 157.22901-5.21866 188.67481 62.8916 36.66448 89.11874-36.66447 193.89349-131.00188 188.67483-26.22713-5.21866-52.45427-5.21866-73.32893-21.00848-21.00847-10.43734-26.22713-26.22714-36.66447-36.66447-62.8916-73.32893-31.4458-183.45615 52.45428-225.33928 36.66446-15.789805 78.68141-15.789805 120.56454-5.21866 89.11872 31.4458 131.00186 136.22053 89.11872 220.12061-10.43731 26.22714-31.44578 41.88313-52.45425 62.89162-21.00847 15.78977-47.23561 26.22712-73.32894 31.44578-41.88313 5.21866-83.90007-5.21866-120.56454-26.22712-89.11874-62.89162-110.12721-199.11215-21.00847-272.5749 15.656-10.43733 26.22714-31.445801 47.1018-36.664467 31.4458-10.437328 62.8916-21.00847 99.55607-15.655994 26.22713 5.218666 52.45427 15.655994 73.32893 26.227136 15.65599 15.789805 36.66446 21.008475 47.10181 41.883135 10.43732 15.7898 26.22713 31.4458 31.44578 52.45427 21.00847 62.8916 15.78981 131.00187-26.22712 183.45615-15.78981 21.00846-31.44582 41.88313-57.67295 52.45428-21.00847 5.21866-36.66446 21.00847-57.67294 21.00847-36.66446 0-78.68141 5.21866-115.34587-10.43735-110.12721-41.8831-157.22901-183.45614-99.55607-288.23087 15.7898-31.4458 41.88313-57.672937 73.32893-78.681407 41.88313-21.008474 83.90008-31.445802 131.00187-26.22714 57.67294 5.218666 104.77473 36.664468 146.79166 78.681417 21.00851 21.00847 26.22717 47.10179 36.66448 73.32893 10.43732 15.78981 5.21866 36.66446 10.43732 57.67293 10.43735 162.44767-183.45613 283.01222-330.24781 199.11215-26.22713-15.65601-47.23561-26.22713-62.8916-47.23563-57.67294-68.11025-73.32893-157.22899-47.23561-241.12907 15.78981-31.4458 36.66447-57.67293 57.67294-83.900069 36.66447-36.664468 89.11874-52.454275 136.22054-68.11027" opacity=".9"/></g></g><g opacity=".8" transform="translate(16.319871 16.319871)"><path d="m222.47857 303.31391 26.1289-9.82031-19.72656-19.74805c-7.08601-7.09407-17.46856-29.16195-18.67383-49.4707l11.4785-5.96484-1.93946 22.48633 29.4375 9.88086-2.98047 39.20703 35.0254-37.64063c17.03789-18.31085 26.63121-38.64861 31.1914-61.75195s4.98013-48.94509 5.92578-83.20899l.25-9.054677-7.125-5.597659c-20.464-16.072943-44.38544-25.728768-70.05468-29.234375.33731-3.437977.46527-6.91682.10156-10.460938v-.002c-3.18032-30.977463-32.8271-52.4742069-68.39652-52.9257341-2.37129-.030102-4.76768.032964-7.18554.1933593-37.23533 2.470114-66.986846 28.8443688-67.519534 61.1249998-9.222917-1.050101-17.736872-1.75383-24.96875-1.775391h-.002c-35.958104-.109598-51.314082 13.759088-61.130813 18.00586l-12.314453 5.328125 1.5878906 13.322265c4.8893122 41.021815 19.7793634 76.745815 10.5937504 135.578125l-6.822266 43.6875 35.394531-26.50196c7.110581-5.32405 10.340243-10.7104 14.650391-17.23046.673073-1.01818 1.326417-2.14747 1.996094-3.20118l11.791015 3.63282c-14.306954 30.06349-19.384765 58.66015-19.384765 58.66015l-8.475587 53.79591 17.507813-19.05469-6.541016 21.53711 42.362305-29.07716c5.486454-4.4915 10.276544-9.2054 14.681664-13.7539l8.56044 48.99782 26.80286-44.68532 37.08203 52.80762.62012-60.29883c12.08955 4.04744 25.43758 7.71399 40.0713 2.21386z" filter="url(#a)"/><path d="m116.59384 65.896082c1.47368 14.367841 11.22518 26.110167 25.99921 32.695131l1.18255.52885.82478.982147 10.09067 11.97503 43.06991-3.45718 5.02792-13.843831.60028-1.64398 1.40704-1.00028c13.12327-9.48549 20.28939-22.993875 18.8151-37.359905-2.24263-21.844297-24.6834-38.719804-56.48521-36.610139-31.8018 2.109665-52.91716 24.506989-50.53225 47.734157zm82.57477-19.869711c7.95488 0 14.40665 6.477376 14.40665 14.487516 0 8.008326-6.45177 14.505647-14.40665 14.505647s-14.40667-6.497321-14.40667-14.505647c0-8.01014 6.45179-14.487516 14.40667-14.487516zm-51.906 5.741818c7.95547 0 14.40666 6.477377 14.40666 14.487517 0 8.008326-6.45119 14.505646-14.40666 14.505646-7.95368 0-14.40665-6.49732-14.40665-14.505646 0-8.01014 6.45297-14.487517 14.40665-14.487517zm24.85569 21.418799 14.35084 23.496131-24.91152 1.849474 10.56008-25.34621zm-152.657768 20.889341c4.476269 37.556341 20.325396 77.587091 10.504856 140.486001 11.492312-8.60488 35.67929-58.36288 35.67929-58.36288l-4.577716 49.59965 30.802034-55.60498 2.94497 27.66952 17.315004-27.31111c-.65611 15.06471-2.67843 31.08016-12.755894 45.19838-23.010444 32.23457-31.890348 78.47556-31.890348 78.47556l28.044958-30.52231-12.269665 40.40066c22.667679-18.55696 33.353819-39.63548 40.162769-61.76203l3.90181 61.06274 15.96377-36.35842 21.14117 36.00121c-.078-14.75527-2.10097-28.74234 3.4516-42.36495 5.11137 17.60622 33.5375 31.31769 48.26591 25.78197-24.03991-24.06728-41.69107-97.74811 5.94635-123.5446 1.5187 13.56036-2.21082 27.10502-11.31103 40.66538 16.0154-6.89381 26.95666-16.79331 32.8832-30.63593l-5.98476 69.3932c14.2758-22.68925 26.36178-49.69998 27.14454-69.01666 6.2729 17.48958 4.83224 45.54049 3.2265 66.65526 30.04988-32.29501 30.40886-64.57431 32.30273-133.19508-20.35541-15.987651-44.22965-24.673511-70.7391-26.537487-3.87779 7.585246-9.66147 14.366636-16.80777 19.851587l-5.74045 15.80874-.52465 1.43605 1.63276 19.51011-11.18078.94528-1.48267-17.66063-12.62384 1.02145 1.5187 18.26382-11.16036.94406-1.53851-18.32123-11.34885.9066 1.55653 18.60471-11.16156.94286-1.65077-19.62372-1.10751-1.30309-11.23719-13.31498c-12.5374-5.92737-22.57044-15.516811-27.74363-27.500292-14.560333-2.231455-26.161297-3.182784-35.621671-3.210887-32.06502-.098214-39.505459 10.286018-53.930727 16.526468z" fill="#775fa0" filter="url(#b)" stroke-width="36"/></g><path d="m310.69531 65.126953c-35.77694 1.940893-60.0664 36.398697-60.0664 74.759767 0 16.11343 4.14511 30.95145 11.20703 43.29492-10.10217 4.66331-18.67492 12.02677-25.07813 20.76367l-.002.002v.002c-9.28109 12.66842-15.19726 28.17073-19.36133 45.20312v.002c-7.61616 31.16641-8.9372 66.81509-9.14844 97.69531l-.12304 18.12305h38.86523l-.64253-8.88685 10.81641 143.91406h114.85351l8.95704-135.02734h36.83984l-.01-18.00977c-.0154-30.85502-.12008-66.87427-7.05664-98.43945v-.002c-3.78876-17.237-9.4887-32.96496-19.10156-45.77734-6.71627-8.95254-16.0159-16.39923-27.05859-20.88867 6.57205-12.09997 10.38476-26.46369 10.38476-41.96875 0-20.39632-6.33374-38.87614-17.53906-52.689454-11.20508-13.813275-28.17786-23.077054-46.7361-22.070273z"/><path d="m268.62948 139.88664c0 17.18459 5.9715 32.40629 14.7942 42.97499l9.198 11.025-14.121 2.6442c-11.5506 2.16-20.0538 8.271-27.225 18.0558-7.1685 9.7848-12.6 23.3127-16.3962 38.8404-6.9543 28.458-8.4258 63.153-8.6337 93.546h37.4895l.5625 7.7895 9.5625 127.2375h81.3096l8.4366-127.1817.5346-7.8462h35.6625c-.0153-30.7368-.3357-65.9088-6.6375-94.5855-3.4362-15.633-8.6508-29.1528-15.9192-38.8404-7.2684-9.6885-16.191-15.759-29.1096-17.748l-14.4-2.223 9.1125-11.3616c8.442-10.5138 14.121-25.56 14.121-42.32699 0-33.228-20.9466-58.107606-45.3006-56.786406s-43.0407 25.620306-43.0407 56.786406z" fill="#775fa0" stroke-width="36"/></svg>