<svg height="500" viewBox="0 0 500 500" width="500" xmlns="http://www.w3.org/2000/svg" xmlns:xlink="http://www.w3.org/1999/xlink"><radialGradient id="a" cx="1362.7291" cy="216.11429" gradientTransform="matrix(1.0000001 -.0000059 .0000001 1.0000003 -112.72927 33.893757)" gradientUnits="userSpaceOnUse" r="250"><stop offset="0" stop-color="#ff851a"/><stop offset=".42441937" stop-color="#f87000"/><stop offset=".86367416" stop-color="#f26900"/><stop offset="1" stop-color="#e55f00"/></radialGradient><g transform="translate(-1000)"><path d="m1500 250a250 250 0 0 1 -250 250 250 250 0 0 1 -250-250 250 250 0 0 1 250-250 250 250 0 0 1 250 250z" fill="url(#a)" stroke-linecap="round" stroke-linejoin="round" stroke-width="1.002"/><path d="m1309.2298 33.82789c128.5196 30.706851 207.8974 167.48127 169.5927 291.56949-31.3771 95.69524-112.8693 162.03793-212.5543 174.60263 153.1796-8.09118 266.0956-163.0043 218.7012-309.92978-36.4562-114.666588-154.6038-191.5214848-270.6514-169.822657-18.8526 4.215647-38.4387 10.498641-55.8829 18.694487-112.5353 47.459213-168.47522 196.206-99.9632 307.85319 57.6978 93.63045 168.5136 141.8489 267.9993 100.77239-134.92 68.97589-303.283-51.46877-311.488-201.30723-4.4167-117.68321 76.8182-219.674136 190.654-246.26040176-89.0147 9.18391126-152.6601 79.39239576-187.7408 157.21169176-38.45522 102.70317 5.2337 231.75078 109.038 294.08388 114.5107 66.1048 260.3537 29.37245 323.6836-83.60152 42.2104-77.69758 34.3514-177.62383-23.1776-249.88923-57.5404-72.257811-157.5429-102.460489-246.4118-71.877168-81.7429 30.682061-131.1298 101.133078-134.0478 190.176958.6692 92.68536 61.7912 168.55972 147.5399 198.52472 128.5549 37.82014 266.7725-70.33038 233.6823-209.88949-14.7104-64.39775-57.8855-122.14991-125.7378-141.121386-71.391-15.467036-138.9716 1.205-181.2869 64.641366-18.8995 29.2286-28.9384 85.21395-26.105 97.65297m0 0c13.5324-50.18833 30.6277-97.66354 72.2125-128.94941 53.182-38.308183 124.4576-37.093813 181.7444-.48035 50.1457 36.48017 75.4845 90.37713 72.3557 150.91678-6.6674 64.04407-38.4038 109.83277-91.6401 141.00844-63.9019 34.56125-135.3795 4.83213-189.1258-35.28385-78.8706-65.48566-79.7477-186.67235-8.9744-256.76104 63.7369-55.941605 167.0207-64.891564 238.7167-6.65053 78.8163 58.35315 90.3045 169.04089 40.972 246.62443-35.2274 56.41892-88.4571 87.60135-152.5581 93.63158-81.9488 2.18264-160.666-41.91503-196.8695-120.9383-36.2055-79.02511-22.5771-164.33167 26.8727-227.66064 49.4316-63.30896 138.3491-86.746364 220.4504-67.54202" fill="#c50"/></g><path d="m113.91573 206.79896c-14.623964 0-28.457586 9.01502-35.611971 23.58659l-.0068.007c-5.027773 10.25881-5.754618 21.41039-2.678872 31.2164-5.401429-1.35894-10.88516-2.3805-16.250491-3.86555l-16.427727-4.54939-11.042379-3.69729c4.039854 8.7192 8.226571 17.37073 12.21048 26.11577 8.943719 19.63034 23.38975 43.95666 43.320483 70.0473 19.930737 26.09064 46.730947 52.93654 74.617627 67.77229l1.02799.8423c1.16687 5.12383 3.9627 10.4691 7.91172 13.83832 5.5898 4.84827 12.33369 7.98036 24.65741 12.10568 12.32373 4.12532 33.39244 6.6768 54.56091 6.6768 21.16845 0 42.23212-2.55148 54.55586-6.67593s19.06294-7.25669 24.65069-12.09978c3.9518-3.36884 6.74926-8.71846 7.91678-13.84509l1.02799-.8423c27.89687-14.84104 54.70844-41.6976 76.76897-70.59258 17.61268-23.0664 31.98577-47.13468 40.9714-66.66463l12.00681-26.10003c-9.99685 3.09808-20.68237 6.17868-30.50234 9.02242-.20258-9.80026-3.58137-18.89861-9.31446-25.97343l-4.68929-5.78651c.82412-2.11884 1.62353-4.25375 2.07288-6.56467 4.57689-23.53834-13.33886-45.96085-38.63014-50.81589l-.0828-.0136-.0828-.0185c-7.81591-1.50251-15.52492-.93935-22.75102.92993 2.4468-4.61786 4.05123-9.67205 4.05123-15.22249 0-20.18668-18.27718-35.68793-39.58048-35.68793-4.353 0-8.51881.76296-12.47272 1.93952-.97775-14.63183-10.49289-27.879348-25.175-33.718026l-.0136-.0068-.0117-.0068c-4.96383-1.961302-10.16627-2.965617-20.31162-3.046582-10.14536-.081-24.61389 8.555656-30.35028 22.995818-1.94306 4.80437-2.40834 9.71579-2.18935 14.53378-5.63665-3.33547-13.40438-4.7929-19.26696-4.86148h-.0321-.0253c-14.52691 0-28.66148 7.48746-34.36115 21.22506l-.007.0136-.007.0136c-2.1927 5.31934-2.57191 10.77579-2.42199 13.33336l.14994 13.58198c-8.30695-10.08542-19.94193-16.13132-29.40508-16.30489-9.46314-.17356-16.17171 1.54615-22.10626 4.97496l-.0574.0253-.0506.0336c-17.64121 10.41321-22.64045 33.10202-14.2215 52.52585z" fill="#994100"/><path d="m275.52548 98.108772c-10.37114-.08655-19.61874 5.617698-23.24864 14.813458-2.07422 5.09913-1.98779 10.61312-.34571 15.70363 2.24709 2.15201 4.23489 4.53737 5.96342 6.95732 3.6299-1.03711 7.43266-1.6421 11.40826-1.6421 7.60549 0 14.77886 2.16066 20.82871 5.87696 3.02491-6.04982 7.69192-11.20083 13.48249-15.03816.25935-10.07728-6.30912-20.13729-17.45811-24.57095-3.54347-1.400084-7.08694-2.074223-10.63041-2.100158zm-56.78202 32.625878c-10.19828 0-19.01374 5.1078-22.38438 13.23185-4.66702 11.32185 2.16066 26.01428 16.93955 32.15054 14.86529 6.13628 30.07631.60498 34.74332-10.71684 4.75345-11.23539-2.07422-25.92786-16.93951-32.06411-4.14846-1.81496-8.38335-2.58413-12.35898-2.60144zm109.8477 2.16932c-13.48248 0-23.85362 8.29691-26.10071 18.49519 3.97559 5.70413 6.39555 12.61823 6.82767 19.96446 4.75345 4.23486 11.49469 7.00051 19.27304 7.00051 15.29742 0 26.61925-10.63041 26.61925-22.73008 0-12.09968-11.32183-22.73008-26.61925-22.73008zm-59.28837 16.59382c-1.72853 0-3.45703.1728-5.09913.51856 1.6421 7.0005 1.20994 14.34673-1.72854 21.34727-2.85204 6.82764-7.51906 12.18608-13.30962 15.98884 4.40772 6.30912 11.75395 10.37114 20.13729 10.37114 13.65535 0 24.54505-10.80326 24.54505-24.11292 0-13.30962-10.8897-24.11289-24.54505-24.11289zm-119.52742 13.05036c-4.40772-.0865-8.81547 1.03711-12.70463 3.28418-12.44537 7.34623-16.50739 24.89074-7.77835 39.92889 8.72903 14.95172 26.10067 20.0509 38.54604 12.7911 12.53181-7.2598 16.50744-24.89074 7.77837-39.8425-5.9634-10.37114-16.07528-15.98884-25.84143-16.16167zm227.64656 19.35944c-16.24814-.25935-29.81702 9.50689-32.49623 23.16224-3.02491 15.55671 8.98833 31.89125 28.34777 35.60758 19.35949 3.80276 36.64471-6.82768 39.66962-22.38439 3.02494-15.55671-8.98832-31.89124-28.34778-35.60757-2.41992-.43213-4.83988-.69143-7.17338-.77786zm-182.35923 1.12355c-.34567.0866-.60499.0866-.86425.1728 4.49415 17.11239-.69142 35.34832-14.26034 45.89232 5.44487 5.3584 13.1368 8.72904 21.7794 8.72904 16.76669 0 29.81705-12.61824 29.81705-27.74282 0-5.87696-1.9878-11.40826-5.35843-15.90241-6.22269 0-12.70467-1.12354-18.84092-3.71633-4.58058-1.90137-8.72904-4.40772-12.27251-7.43266zm111.66264 5.272c-.0866.0865-.1728.0865-.25936.1728-2.24709 5.44484-5.70412 10.37114-10.02545 14.26034-.25935 1.12351-.34567 2.24706-.34567 3.45703 0 11.49469 9.85258 21.08798 22.73008 21.08798 4.66701 0 8.9019-1.29637 12.44537-3.45703-2.41993-6.82768-3.11135-14.17391-1.64211-21.69297.60499-2.93851 1.46924-5.70413 2.59279-8.38334-1.20998.0865-2.41992.1728-3.6299.1728-7.95122 0-15.47028-2.07423-21.86583-5.6177zm-59.80693 18.1495c.0866 1.20998.1728 2.41992.1728 3.6299 0 11.14896-4.40772 21.26084-11.66751 28.86633 7.77835 1.20998 14.86528 4.32132 20.82868 8.72904 4.83987-11.58108 14.60603-21.60653 27.05139-27.74279-1.03711-2.50635-1.81493-5.18557-2.24705-7.86478-.1728-.1728-.34572-.25936-.51856-.43213-3.6299 1.03711-7.34623 1.6421-11.23543 1.6421-8.21048 0-15.98883-2.50635-22.38438-6.82767zm-133.00125 13.30962c-9.16116 0-18.797701 5.79056-23.974614 16.33457-4.701608 9.59328-4.079339 19.70516.311282 26.96496 9.913072 2.24706 19.869372 4.32129 29.877512 6.13626 4.58061-2.76565 8.64264-7.00054 11.40825-12.70467 4.58062-9.42042 4.06206-19.44587-.25935-26.61924-3.54346-2.41996-6.91407-5.272-9.85258-8.64264-2.33349-.95068-4.92628-1.38281-7.51044-1.46924zm178.54784 12.96393c-13.91461 5.96342-22.90294 17.54451-23.85363 29.38492 2.67922 5.09914 4.23489 10.71683 4.49419 16.76666.60495.95068 1.38281 1.81496 2.07423 2.67921 22.55721-.60499 44.76874-2.33349 66.63457-5.09914 5.53126-7.08693 7.86478-15.55671 6.22268-23.59436-1.29638-5.96339-4.66702-11.23539-9.50689-15.29742-5.79053 3.37061-12.53177 5.27201-19.70517 5.27201-10.11185 0-19.44587-3.80277-26.35998-10.11188zm-126.96006 3.37064c-5.09914 1.29637-10.45757 1.55566-15.64313.77782 1.20997 8.64263-.25935 17.97666-4.40772 26.53284-1.6421 3.37063-3.6299 6.39554-5.96342 9.16116 12.87749 2.07423 25.75497 3.71633 38.63251 5.09917.60496-.1728 1.12352-.43216 1.7285-.60499.95069-.34571 1.9878-.60499 2.93852-.86428.86425-8.21048 4.32128-15.72954 9.50685-21.86579-.1728-.69143-.34567-1.38285-.60499-2.07424-10.54397-2.24709-19.79156-8.03764-26.18712-16.16169zm252.71013 5.18556c-11.2354 12.27251-29.47132 18.23593-47.88008 14.69243-1.46924-.25935-2.85208-.60495-4.23488-1.03711-.25935 1.6421-.43213 3.28421-.43213 5.01274 0 4.49415 1.03711 8.81547 2.76561 12.6182 19.18662-3.28417 38.02753-7.3462 56.34989-12.27251v-.34567c0-7.08697-2.50636-13.65535-6.56841-18.66806zm-190.39684 12.61821c-14.1739 0-25.58216 8.72906-28.86637 20.05089 4.23489.0866 8.55621.60499 12.87753 1.64211l.69139.1728.69142.25935c3.02491 1.46924 5.87699 3.11134 8.55618 5.0127 11.92684.60499 23.94005.86426 35.86686.77782v-1.12351c0-14.5196-12.96392-26.79214-29.81701-26.79214zm-171.91031 16.33456c8.426528 18.49519 22.505378 42.26242 39.730094 64.7332 21.986826 28.86637 49.297516 55.74494 75.052506 68.62247l4.32132 2.16064v4.83987c0 2.5928 1.03711 4.83984 4.40772 7.69195 3.37064 2.93847 9.07476 5.87697 16.1617 8.29689 14.34673 4.75344 34.57046 7.34623 54.62136 7.34623 20.05086 0 40.27458-2.59279 54.62132-7.34623 7.08697-2.41992 12.79109-5.35842 16.1617-8.29689 3.37064-2.85211 4.40775-5.09915 4.40775-7.69195v-4.83987l4.32129-2.16064c25.75502-12.87753 53.0657-39.7561 75.10435-68.62247 17.02594-22.29795 31.02697-45.80585 39.49674-64.21464-64.73317 19.4459-135.94833 28.17494-208.45992 26.27355 3.71633 7.25979 5.01274 15.90243 2.33352 24.19935-8.98833 27.22422-36.90398 45.71945-66.3753 58.0784l-5.09915 2.16064-3.71633-4.06202c-9.76615-10.8033-13.22322-26.27358-13.56891-41.57099-.34567-15.21102 2.50635-30.42204 8.2969-41.65743v-.0866c.51856-1.03711 1.12355-2.07422 1.81494-3.02491-34.82972-4.49414-69.598974-11.40821-103.6336-20.82867zm141.22901 19.27304c-.34568.0865-.60499.0865-.95068.0865-3.97563.25935-7.77836 1.03712-11.23543 2.24709-6.82764 2.3335-11.84038 6.48195-13.39605 9.50686-4.06203 7.69193-6.82768 21.17441-6.56839 34.13834.25935 10.37114 2.59279 20.13732 6.39556 26.87857 24.97714-11.40826 45.97872-27.74282 51.94214-45.97875 1.55567-4.58058.69139-9.16117-2.24709-13.91461-1.9878-3.19778-4.92631-6.22269-8.46978-8.72904-8.9019 16.50739-16.68026 32.49623-17.8902 41.3117l-15.38388-2.07422c1.81496-13.13676 9.42046-28.08852 17.8038-43.47237z" fill="#ffa348"/></svg>