<svg height="500" viewBox="0 0 500 500" width="500" xmlns="http://www.w3.org/2000/svg" xmlns:xlink="http://www.w3.org/1999/xlink"><filter id="a" color-interpolation-filters="sRGB" height="1.07236" width="1.074987" x="-.037494" y="-.03618"><feGaussianBlur stdDeviation="2.211912"/></filter><filter id="b" color-interpolation-filters="sRGB" height="1.185367" width="1.204165" x="-.102082" y="-.092684"><feGaussianBlur stdDeviation="2.211912"/></filter><filter id="c" color-interpolation-filters="sRGB" height="1.256873" width="1.296134" x="-.148067" y="-.128437"><feGaussianBlur stdDeviation="2.211912"/></filter><g transform="translate(.000015)"><circle cx="-249.99998" cy="250" fill="#e51a1a" r="250" transform="scale(-1 1)"/><path d="m181.33938 83.856939c97.52275-31.84694 203.27597 26.159281 217.12696 131.568651 10.04116 85.89723-45.79566 162.6049-131.11288 174.6444-76.26503 6.65-147.16573-45.4981-149.44603-126.3231.16679-50.89801 30.03241-87.97493 76.60677-108.40662 44.00125-16.48183 90.46555-3.00917 112.28155 39.63622 17.95322 40.0953 3.57775 87.31302-40.4313 103.80676-21.98685 8.23292-51.6578-5.55285-56.72562-31.5612 24.48155 21.7253 69.7211 11.74379 80.1808-21.06198 5.24648-24.88185-11.48198-41.52298-24.36368-55.64156-23.21161-15.22125-63.26956-13.16738-85.32502 12.05139-41.51846 46.43224-18.48961 112.52397 35.72777 131.08081 60.66482 17.11352 118.96473-29.63961 126.96137-92.39988 2.7637-54.83226-40.99398-106.19486-96.51046-114.27807-76.21988-10.3001-138.45939 50.84936-147.743191 124.09106-9.31956 73.21828 47.315731 138.67973 111.863041 158.33924 49.05305 9.49897 98.18701 2.07129 139.64056-27.40671 82.90715-58.95602 100.11901-177.97214 43.55644-260.39974-52.71171-79.885311-158.575-103.987181-249.15842-67.061741-86.705021 39.45169-149.0660905 134.549061-117.102931 229.167621 15.77888-74.65377 50.93986-153.5943 123.407351-187.514491 9.28724-4.60517 19.44718-8.7232 30.56692-12.33106zm-160.722321 286.075591c-52.57825-113.8254-.38403-260.89182 113.777041-317.643861 10.84604-5.32012 22.21219-9.7712 34.03518-13.36069 115.76394-28.75816 246.03978 34.00351 263.68455 158.897471 10.04526 85.91695-27.72044 168.80365-107.97396 206.83173-102.24035 46.26108-224.798841-11.43986-234.690511-131.24969-7.33455-123.78718 127.307171-194.136761 222.718561-137.24102-42.54074-27.89653-94.21826-33.44528-140.80825-12.98978-71.17376 32.62266-105.080851 118.0397-80.762351 190.63139 30.697281 88.13423 123.572931 132.04164 212.817841 105.59803 82.80488-25.06359 132.16266-100.33164 140.19255-180.04986 12.12434-145.020371-132.23823-245.3588802-265.59709-221.973611 7.92036-4.10499 20.5989-8.4277792 35.61563-11.7452592 60.06317-13.23825 124.63426-3.45807 179.45368 32.4903392 109.65077 71.904621 141.09454 217.803071 65.16008 333.599141-143.00482 218.07486-377.311781 117.06797-437.622951-1.79433" fill="#b21a1a"/></g><path d="m243.80738.0000099-1.09063.13584948c-35.41888 4.43106672-59.82155 40.59951962-59.82155 83.12258762 0 19.651093 5.56822 37.454143 14.70426 51.727993-12.74716 4.77236-23.43398 13.577-31.2798 24.4701-10.28356 13.93803-17.05408 31.13111-21.63257 50.58571-8.45581 34.61437-10.18679 74.72587-10.18679 110.10495v17.63363h43.95014l11.21618 153.86376 12.68374 2.91979c32.65474 7.51917 67.06561 6.96141 98.20952.0287l12.88655-2.86814 10.26141-153.94412h41.79186v-17.63362c0-35.13738-.29108-75.84863-8.04956-111.24149-4.17548-19.1552-10.62048-36.63706-20.73902-50.70434l-.065-.0899-.067-.0899c-8.268-11.19208-20.02936-19.7734-33.96233-24.18118 8.84907-14.18304 14.00013-31.64064 14.00013-50.581893-.00006-45.076231-28.42922-83.2584969-66.91065-83.2584969z" fill="#861313"/><path d="m244.90603 17.632878c-23.41353 2.929141-44.37799 30.026153-44.37799 65.626494 0 19.504748 6.66162 36.648568 16.45806 48.600248l11.9517 14.20487-18.31939 3.42876c-12.73539 2.44911-22.13999 9.30664-30.07515 20.37664-8.32699 11.26593-14.49874 26.35248-18.71123 44.28-7.83718 32.03443-9.69847 71.22027-9.69847 105.99771h42.71256l11.46184 157.23323c29.78126 6.85751 61.81566 6.36769 90.42136 0l10.4822-157.23323h40.65533c0-34.97337-.48986-74.84496-7.64124-107.46718-3.82064-17.53566-9.79649-33.01407-17.82958-44.18204-8.03308-10.87407-18.12345-17.4377-32.62223-19.69088l-18.51529-2.93894 11.65778-14.59673c9.69852-11.85372 16.06621-28.99753 16.06621-48.012458 0-37.755561-23.51151-65.626494-49.27619-65.626494z" fill="#ff8066" stroke-width="36"/><ellipse cx="250.0002" cy="106.10362" fill="#861313" rx="16.492384" ry="20.711367"/><path d="m293.4812 127.15471c-3.97181.0945-7.66893 2.61745-9.45117 6.12891-3.31199-2.2468-7.93998-2.50746-11.33833-.29939-3.32954 2.03848-5.07835 6.08414-4.72222 9.91658.18728 3.39829 1.92378 6.56312 4.42385 8.82204 4.29199 4.02059 9.94529 5.99074 14.93871 8.92989 1.17781.69226 2.27502 1.58298 2.86897 2.84384 1.01722 1.66208 2.03445 3.32417 3.05167 4.98626.10441-2.48677.0625-4.98656.25769-7.46529.73831-2.80178 2.59417-5.11651 4.10367-7.53653 2.75756-4.20095 5.62083-8.66002 6.10517-13.78735.38354-4.12559-1.15039-8.68788-4.73606-11.01943-1.6285-1.05168-3.56602-1.57695-5.50195-1.51953z" fill="#e51a1a" filter="url(#c)" stroke-width=".9"/><path d="m335.87964 114.50042c-4.74647.0699-9.22435 2.93432-11.50934 7.05678-2.74664 4.87956-3.02802 11.02016-.86231 16.17218 2.37447 5.79567 6.75112 10.44659 11.10959 14.82107 3.14363 3.20591 6.60253 6.15624 9.24057 9.81715 1.29164 1.68515 1.50534 3.84496 2.08049 5.82277.30716 1.19319.61431 2.38638.92147 3.57958.84714-2.56076 1.54659-5.1758 2.49023-7.70117 1.54943-2.9534 4.17622-5.12998 6.61204-7.33091 5.43636-4.78209 11.30676-9.38348 15.03835-15.71206 2.91194-4.87871 4.01578-11.01456 2.16797-16.47071-1.41902-4.28659-5.08695-7.74967-9.49219-8.80468-5.07608-1.32514-10.67522.47995-14.30049 4.20189-.37504.36493-.72258.75697-1.05888 1.15748-2.81069-3.99525-7.46813-6.77349-12.4375-6.60937z" fill="#e51a1a" filter="url(#b)" stroke-width=".900001"/><path d="m456.55707 5.3141335c-12.02791.1397161-23.71695 6.0463815-31.3189 15.3079685-3.02648 3.644442-5.45658 7.77472-7.23578 12.162734-7.39316-5.90702-16.64215-9.678948-26.16291-9.829291-10.52141-.247917-21.10813 4.040882-28.3197 11.740718-6.27324 6.614474-9.90074 15.557435-10.34194 24.637159-.40665 7.361553.88602 14.835022 3.82069 21.60314 3.92642 8.864172 10.67472 16.176478 18.22717 22.117648 10.84888 8.55912 23.28218 14.76127 35.61638 20.85289 5.65661 2.77514 11.33554 5.51007 16.87124 8.52227 3.41271 1.85908 6.94086 3.91746 10.11701 6.28539 2.64509 1.97738 5.07855 4.32952 6.66106 7.26115.99982 1.70984 1.99454 3.42487 3.0442 5.10189.39236.46666.97999.66241 1.49609.95704.54181-.27218 1.23658-.38765 1.6903-.75185.39413-.6991.55518-1.45097.49459-2.25101.12663-3.78374-.21538-7.65634.89113-11.33225 1.31975-4.78908 3.73591-9.17878 6.20914-13.45396.97961-1.65789 2.09423-3.4687 3.17256-5.15824 7.88559-12.26148 16.62464-24.015578 23.35832-36.98236 4.81694-9.316629 8.70425-19.332533 9.62404-29.859501.89651-9.659031-.945-19.63321-5.6393-28.154192-3.92713-7.171404-10.26058-13.06881-17.88875-16.0998396-4.548-1.8537278-9.47721-2.7632518-14.38664-2.6775039z" fill="#e51a1a" filter="url(#a)" stroke-width=".900004"/><g fill="#ff8066" stroke-width="36"><path d="m293.60562 129.15056c-3.68278.0744-7.47117 2.66933-8.71188 7.42824-6.73342-6.92078-16.82428-1.5388-14.66208 7.93532 2.19486 9.61568 18.47608 12.3121 21.20434 17.16983 0-6.1302 12.34214-15.74321 10.05745-25.77859-1.06309-4.6679-4.42869-6.82463-7.88783-6.75461z"/><path d="m363.64885 117.81477c-5.25853-1.55944-11.71406.52605-15.4522 6.93612-6.68287-13.18999-23.24243-9.87653-24.10905 4.98336-.87906 15.08207 21.1116 26.4086 22.96628 34.76156 2.54665-8.98122 24.05954-17.47355 24.98545-33.21122.43013-7.32047-3.4513-12.00499-8.39055-13.46954z"/><path d="m456.41362 9.314674c-15.452.3055472-31.3471 10.96209-36.5528 30.505354-28.2517-28.421366-70.59031-6.319341-61.51831 32.587776 9.20906 39.488446 77.52081 50.561786 88.96791 70.510886 0-25.17474 51.7844-64.652216 42.1984-105.864255-4.4604-19.169557-18.5816-28.0265052-33.0952-27.7389775z"/></g></svg>