<svg height="500.0004" viewBox="0 0 500 500.0004" width="500" xmlns="http://www.w3.org/2000/svg" xmlns:xlink="http://www.w3.org/1999/xlink"><filter id="a" color-interpolation-filters="sRGB" height="1.038409" width="1.036633" x="-.018317" y="-.019204"><feGaussianBlur stdDeviation="1.6286981"/></filter><g transform="translate(-500 -500)"><path d="m999.99997 750a249.99997 250 0 0 1 -249.99997 250 249.99997 250 0 0 1 -249.99997-250 249.99997 250 0 0 1 249.99997-250 249.99997 250 0 0 1 249.99997 250z" fill="#ffe24c"/><path d="m1000 750.00632-194.05817-2.60063 192.98367-20.4591-193.45987 15.31075 190.28547-38.19139-191.22567 33.10816 185.92267-55.58184-187.34707 50.61663 180.01317-72.50831-181.88127 67.68555 172.56127-88.82024-174.86477 84.18876 163.62798-104.35075-166.35478 99.94311 153.30278-119.00625-156.40808 114.88758 141.65488-132.65651-145.14668 128.82271 128.82258-145.14278-132.65648 141.65492 114.88758-156.42029-119.00218 153.31093 99.94719-166.3385-104.34669 163.60764 84.17649-174.84041-88.81609 172.54909 67.67739-181.89345-72.48799 180.02133 50.6167-187.35925-55.5941 185.94294 33.1-191.23373-38.1995 190.27732 15.3474-193.45586-20.4957 192.97968-2.59249-194.05413-2.5681 194.05413-20.4916-192.97968 15.327 193.45586-38.2004-190.27732 33.1171 191.23373-55.5936-185.94294 50.6162 187.35925-72.51029-180.02133 67.69979 181.89345-88.81699-172.54909 84.17729 174.84041-104.36289-163.60764 99.96869 166.3385-119.00618-153.31093 114.86968 156.42029-132.64018-141.65492 128.81968 145.14278-145.14988-128.82271 141.67318 132.65651-156.42638-114.88758 153.29788 119.00625-166.34218-99.94311 163.62828 104.35075-174.86477-84.18876 172.54667 88.82024-181.87387-67.68555 180.00617 72.50831-187.35587-50.61663 185.94077 55.58184-191.21897-33.10816 190.28097 38.19139-193.47947-15.31075 192.98647 20.4591-194.04384 2.60063 194.04384 2.58435-192.98647 20.46723 193.47947-15.31481-190.28097 38.20361 191.21897-33.12445-185.94077 55.58997 187.35587-50.60849-180.00617 72.5083 181.87387-67.68553-172.54667 88.81211 174.86477-84.17656-163.62828 104.33851 166.34218-99.95936-153.29788 119.0103 156.42638-114.87941-141.67318 132.66054 145.14988-128.83082-128.81968 145.13868 132.64018-141.66304-114.86968 156.42028 119.00618-153.28243-99.96869 166.32222 104.36289-163.59543-84.17729 174.84852 88.81699-172.55719-67.69979 181.8975 72.51029-180.02538-50.6162 187.35108 55.5936-185.93884-33.1171 191.21336 38.2004-190.26101-15.327 193.47618 20.4916-192.99594 2.5681 194.05003 2.59249-194.05003 20.4957 192.99594-15.3474-193.47618 38.1995 190.26101-33.1-191.21336 55.5941 185.93884-50.6167-187.35108 72.48799 180.02538-67.67739-181.8975 88.81609 172.55719-84.17649-174.84852 104.34669 163.59543-99.94719-166.32222 119.00218 153.28243-114.88758-156.42028 132.65648 141.66304-128.82258-145.13868 145.14668 128.83082-141.65488-132.66054 156.40808 114.87941-153.30278-119.0103 166.35478 99.95936-163.62798-104.33851 174.86477 84.17656-172.56127-88.81211 181.88127 67.68553-180.01317-72.5083 187.34707 50.60849-185.92267-55.58997 191.22567 33.12445-190.28547-38.20361 193.45987 15.31481-192.98367-20.46723z" fill="#fffbb3" fill-rule="evenodd"/></g><g transform="translate(-40.189453 41.529697)"><path d="m181.67578 259.42578-141.486327 141.48633 2.8125 10.12109c6.085819 21.89621 23.688926 35.69865 41.707031 42.97657l11.044922 4.46093 142.484374-142.48242z" fill="#f2c80d"/><path d="m60.344103 406.2127c4.373632 15.73592 15.979729 24.99694 31.1058 31.1067l121.332597-121.3317-31.10715-31.10625z" fill="#fffdcc" stroke-width="36"/><path d="m304.86133 17.130859v1.134766c-34.38121 3.914556-67.81356 18.951136-94.0918 45.228516-55.33095 55.330949-61.02933 142.006339-17.07031 203.853519l-15.64063 15.60742 37.40625 37.40625 15.60938-15.63867c61.84589 43.96066 148.52132 38.26094 203.85351-17.07032 61.69656-61.69553 61.69634-162.45979 0-224.156246-30.8467-30.849757-71.5238-46.365235-112.0664-46.365235zm18 18c35.97566 0 71.94012 13.691325 99.33789 41.091797 54.79914 54.797344 54.79824 143.905784 0 198.703124-52.80115 52.80025-137.44912 54.71658-192.57227 5.76563l-14.17383 14.20117-11.92578-11.92383 14.20508-14.17383c-48.95095-55.12494-47.03657-139.77202 5.76367-192.572264 27.40048-27.399572 63.39227-41.089844 99.36524-41.089844z" fill="#f2c80d"/><path d="m322.8615 35.131901c-35.973 0-71.964 13.6908-99.3645 41.0904-52.8003 52.800299-54.7164 137.447999-5.7654 192.572999l-14.2038 14.1732 11.925 11.925 14.175-14.202c55.1232 48.951 139.77 47.034 192.5712-5.7663 54.7983-54.7974 54.7992-143.9046 0-198.701999-27.3978-27.4005-63.3618-41.0922-99.3375-41.0922z" fill="#fffdcc" opacity=".75" stroke-width="36"/><path d="m322.8615 68.769401c-27.279 0-54.567 10.44-75.429 31.301999-41.7258 41.7258-41.7258 109.1106 0 150.8346 9.126 9.1278 19.4688 16.2693 30.5145 21.4038-22.419-17.1783-36.873-44.2197-36.873-74.646 0-13.7907 2.9628-26.8992 8.298-38.7-3.7485 18.4365.396 36.792 13.023 49.4163 22.1247 22.1265 61.8696 18.2862 88.7616-8.6058s30.7314-66.636 8.604-88.7625c-2.1375-2.1384-4.4487-4.0257-6.8895-5.6817 40.617 7.7832 71.9586 41.7105 75.825 83.5884 3.996-31.563-6.138-64.5534-30.4317-88.848-20.862-20.861999-48.123-31.301999-75.402-31.301999z" fill="#fff" filter="url(#a)" opacity=".75" stroke-width=".9"/></g></svg>