<svg height="500.00003" viewBox="0 0 500 500.00003" width="500" xmlns="http://www.w3.org/2000/svg" xmlns:xlink="http://www.w3.org/1999/xlink"><filter id="a" color-interpolation-filters="sRGB" height="1.006279" width="1.005745" x="-.002872" y="-.00314"><feGaussianBlur stdDeviation=".50860691"/></filter><filter id="b" color-interpolation-filters="sRGB" height="1.03899" width="1.035186" x="-.017593" y="-.019495"><feGaussianBlur stdDeviation="3.2231752"/></filter><g transform="translate(-500)"><path d="m926.7767 73.223311c45.24113 45.241099 73.2233 107.741109 73.2233 176.776699 0 69.0356-27.98221 131.53559-73.2233 176.77669-45.2411 45.2411-107.74109 73.22332-176.77669 73.22332-69.03559 0-131.5356-27.98219-176.7767-73.22332-45.2411-45.2411-73.22331-107.74109-73.22331-176.77669 0-69.03559 27.9822-131.5356 73.22331-176.776699 45.2411-45.241105 107.74111-73.22330934 176.7767-73.22330934 69.0356 0 131.53559 27.98220534 176.77669 73.22330934z" fill="#3b2f4f"/><g transform="translate(500)"><path d="m230.6486 0c-128.19182 22.346591-234.17086 139.43202-223.06447 273.24395 5.6201 44.55936 16.72649 83.63245 44.55937 122.70552l50.17947 50.17947c33.45298 22.34661 72.52606 44.55938 111.46533 50.17946 39.07308 5.62012 78.01235 5.62012 111.46534-5.62008 39.07308-16.72649 72.52607-33.45297 100.35893-61.28587 33.45297-39.07306 55.79958-83.63245 66.90595-139.43201v-61.28587c-5.62008-27.83287-11.10637-50.17947-22.34657-78.01235-11.10641-22.34659-27.8329-44.55937-50.17947-61.285858-27.83289-27.832879-61.28586-44.559368-100.35895-55.799569-27.83288-5.620101-55.79957-11.10639-89.25255-5.620101-78.01235 11.106391-139.43202 61.28586-172.885 128.191818-11.10639 27.83288-16.72649 61.28586-22.34659 89.25255 0 33.45298 5.6201 66.90596 16.72649 94.73885 22.34659 44.55936 55.79957 89.25254 105.97904 111.46532 16.72649 5.62012 33.45298 11.1064 55.79957 16.72648 122.70553 22.34661 234.17085-55.79954 250.89734-178.37127 11.10641-78.01236-22.34657-139.43203-72.52604-189.6115-100.35895-89.25255-267.62385-44.559369-312.18322 78.01235-5.6201 27.83288-16.72649 55.79958-16.72649 83.63245 5.6201 78.01235 55.79957 150.53843 133.81192 172.885 61.28586 16.72649 122.70553 5.62012 172.885-33.45298 11.10639-11.10637 22.34659-22.34657 33.45299-33.45297 61.28584-83.63246 44.55935-195.09778-44.55937-256.51746-27.83288-16.726488-55.79958-22.346588-89.25256-27.832879-22.34659-5.620101-44.55937 5.620101-66.90596 11.106391-27.83288 16.726488-50.17947 22.346588-72.52606 50.179468-27.83288 33.45298-33.45298 66.90596-39.07308 105.97904 0 55.79958 27.83288 117.08544 83.63245 144.91833 78.01235 44.55934 183.99139 11.10637 223.06447-72.52607 22.3466-55.79958 11.1064-128.19183-39.07308-172.88501-33.45298-27.83288-66.90596-39.07308-111.46533-39.07308-66.90596 5.6201-111.46533 55.79957-122.70553 122.70553-11.10639 72.52606 33.45298 139.43202 105.97904 150.53843 100.35894 16.72649 183.99138-89.25257 139.43202-178.37131-11.10638-16.72649-27.83288-39.07308-50.17947-50.17947-27.83288-11.10639-55.79957-16.72649-83.63245-11.10639-33.45298 5.6201-55.79957 27.83288-72.52606 50.17947-16.72649 27.83288-16.72649 55.79957-11.10639 83.63245 11.10639 33.45298 39.07308 61.28586 72.52606 72.52607 44.55937 16.72649 89.25255-5.62011 111.46533-39.07309 33.45298-55.79957 5.6201-117.08543-50.17947-139.43202-50.17947-16.72649-122.70553 27.83288-105.97904 89.25255 5.6201 16.72649 11.10639 39.07309 27.83288 50.17947 22.34659 16.7265 50.17947 16.7265 72.52606 11.1064 22.34659-11.1064 39.07308-33.45299 39.07308-61.28587-5.6201-16.72649-5.6201-39.07308-22.34659-50.17947-13.91644-8.36324-29.2379-11.13984-43.17107-8.34651-13.93317 2.79332-26.47803 11.15656-34.84128 25.073-5.6201 16.72649-11.10639 33.45298 9.50065 44.827 41.74932-49.10898 35.32635.40143 29.84006-16.45887v5.6201c16.72649-5.6201 22.34659-22.34659 27.83288-33.45298 5.6201 5.6201 16.72649 11.10639 16.72649 22.34659 11.10639 39.07308-27.83288 72.52606-66.90596 61.28586-33.45298-11.10639-44.55937-50.17947-39.07309-83.63245 5.62011-22.34659 22.3466-39.07308 50.17948-44.55937 33.45298-5.6201 66.90596 11.10639 83.63245 39.07308 16.72649 27.83288 16.72649 50.17947 0 78.01235-33.45298 55.79958-105.97905 55.79958-150.53841 11.10639-33.45298-44.55937-22.3466-117.08543 27.83288-144.91831 16.72648-11.10639 39.07308-16.72649 61.28586-16.72649 11.10638 0 27.83288 5.6201 39.07308 11.10639 27.83288 11.10639 39.07308 39.07308 55.79957 61.28586 5.6201 16.72649 5.6201 27.83288 5.6201 44.55937-5.6201 72.52606-72.52606 122.70554-144.91831 105.97904-83.63246-22.34659-122.70554-122.70553-72.52606-195.09778 11.10638-16.72649 22.34659-27.83288 39.07308-39.07308 78.01235-44.559372 167.2649-5.6201 200.71788 66.90596 39.07309 94.73884-39.07308 206.33797-139.43202 200.71788-27.83288-5.62012-55.79958-5.62012-78.01235-22.3466-22.34659-11.10638-27.83288-27.83287-39.07309-39.07307-66.90596-78.01235-33.45298-195.09778 55.79958-239.79097 39.07308-16.726484 83.63245-16.726484 128.19182-5.6201 94.73883 33.45298 139.43201 144.91832 94.73883 234.17087-11.10637 27.83288-33.45297 44.55935-55.79956 66.90596-22.34659 16.72649-50.17947 27.83289-78.01235 33.45298-44.55937 5.62012-89.25256-5.62009-128.19182-27.83286-94.73884-66.90598-117.08544-211.82429-22.3466-289.97045 16.7265-11.1064 27.83288-33.452984 50.17948-39.073085 33.45298-11.106392 66.90596-22.346593 105.97904-16.726492 27.83288 5.6201 55.79957 16.726492 78.01235 27.832879 16.72649 16.726488 39.07309 22.346598 50.17946 44.559368 11.10641 16.72649 27.8329 33.45298 33.45298 55.79957 22.34661 66.90596 16.72649 139.43203-27.83286 195.09781-16.72649 22.34657-33.45298 44.55934-61.28587 55.79954-22.34659 5.62012-39.07308 22.34661-61.28586 22.34661-39.07308 0-83.63245 5.62008-122.70553-11.10641-117.08543-44.55934-167.26491-195.09777-105.97905-306.69691 16.7265-33.45298 44.55937-61.285864 78.01236-83.632457 44.55936-22.34659 89.25255-33.452979 139.43202-27.832879 61.28586 5.6201 111.46532 39.07308 156.1585 83.632456 22.34661 22.34659 27.8329 50.17947 39.0731 78.01234 11.10637 16.7265 5.62008 39.07309 11.10637 61.28586 11.10645 172.88502-195.09777 301.07685-351.25629 211.82429-27.83287-16.72649-50.17946-27.8329-66.90596-50.17947-61.28586-72.52608-78.01235-167.26492-50.17947-256.51747 16.72649-33.45298 39.07309-61.28586 61.28587-89.252546 39.07308-39.073083 94.73884-55.799574 144.9183-72.526064" fill="#221b35" opacity=".9"/><path d="m231.45148 15.388371c-120.56454 21.008472-220.12061 131.001869-209.68329 256.785079 5.21867 41.88313 15.78981 78.68141 41.88314 115.34586 15.7898 15.65602 31.4458 31.44582 47.23561 47.1018 31.4458 21.0085 68.11026 41.88314 104.77473 47.23563 36.66447 5.21866 73.32893 5.21866 104.77473-5.21866 36.66447-15.65601 68.11026-31.44582 94.33742-57.67295 31.44579-36.66448 52.45425-78.68141 62.89161-131.00187v-57.67294c-5.2187-26.22714-10.43736-47.23561-21.00851-73.32894-10.43731-21.00847-26.22712-41.88313-47.10179-57.672935-26.22713-26.227136-57.67292-41.88313-94.33739-52.454272-26.22714-5.218666-52.45427-10.43733-83.90008-5.218666-73.32893 10.437332-131.00187 57.672938-162.44767 120.564543-10.43733 26.22713-15.78981 57.67294-21.00847 83.90008 0 31.44579 5.21866 62.8916 15.78981 89.11874 21.00847 41.88313 52.45427 83.90006 99.55607 104.77473 15.7898 5.21866 31.4458 10.43732 52.45427 15.65601 115.34588 21.00847 220.12062-52.45428 235.91043-167.66635 10.43732-73.32894-21.00847-131.00188-68.11026-178.23748-94.33742-83.900079-251.56643-41.883137-293.44956 73.32893-5.21867 26.22713-15.78981 52.45427-15.78981 78.68141 5.21866 73.32893 52.45427 141.573 125.78321 162.44767 57.67293 15.78981 115.34587 5.21866 162.44767-31.44578 10.43733-10.43736 21.00849-21.00849 31.4458-31.44582 57.67295-78.68141 41.88314-183.45615-41.88313-241.12909-26.22714-15.7898-52.45428-21.008465-83.90008-26.227131-21.00847-5.218666-41.88313 5.218666-62.8916 10.437331-26.22714 15.7898-47.23561 21.00847-68.11027 47.1018-26.22713 31.4458-31.4458 62.8916-36.66447 99.55606 0 52.45428 26.22714 110.12722 78.68142 136.22052 73.32893 41.88314 173.01881 10.43736 209.68327-68.11025 21.00847-52.45427 10.43736-120.56454-36.66446-162.44767-31.4458-26.22714-62.8916-36.66447-104.77473-36.66447-62.89161 5.21867-104.77474 52.45428-115.34588 115.34588-10.43733 68.11027 31.4458 131.00187 99.55607 141.57302 94.3374 15.65599 173.01881-83.90008 131.00187-167.66635-10.43733-15.7898-26.22714-36.66446-47.1018-47.2356-26.22713-10.43733-52.45427-15.656-78.68141-10.43733-31.4458 5.21866-52.45427 26.22713-68.11027 47.23561-15.7898 26.22713-15.7898 52.45427-10.43732 78.6814 10.43732 31.44581 36.66446 57.67295 68.11026 68.11027 41.88314 15.78981 83.90008-5.21866 104.77474-36.66446 31.4458-52.45428 5.21866-110.12721-47.1018-131.00187-47.23561-15.78981-115.34588 26.22713-99.55607 83.90007 5.21867 15.65599 10.43733 36.66447 26.22714 47.23561 21.00847 15.78981 47.10179 15.78981 68.11027 10.43733 21.00847-10.43733 36.66446-31.4458 36.66446-57.67294-5.21866-15.7898-5.21866-36.66447-21.00847-47.23561-13.11356-7.8949-27.5318-10.50423-40.62864-7.86145-13.09684 2.64279-24.87229 10.53769-32.70029 23.65126-5.21867 15.656-10.43733 31.4458 8.9654 42.15076 39.20689-46.70036 33.05154-.26763 27.96669-16.05744v5.21867c15.78981-5.21867 21.00847-21.00847 26.22714-31.4458 5.21866 5.21866 15.65599 10.43733 15.65599 21.00847 10.43733 36.66447-26.22714 68.11027-62.8916 57.67294-31.4458-10.43733-41.88313-47.23561-36.66447-78.68141 5.21867-21.00848 21.00847-36.66447 47.1018-41.88314 31.4458-5.21866 62.8916 10.43734 78.68141 36.66447 15.65599 26.22714 15.65599 47.23561 0 73.32893-31.4458 52.45428-99.55607 52.45428-141.57302 10.43734-31.4458-41.88313-21.00847-110.12722 26.22714-136.22054 15.78981-10.43733 36.66447-15.656 57.67294-15.656 10.43733 0 26.22714 5.21867 36.66447 10.43733 26.22713 10.43733 36.66446 36.66447 52.45427 57.67294 5.21866 15.78981 5.21866 26.22714 5.21866 41.88314-5.21866 68.11026-68.11026 115.34586-136.22053 99.55606-78.68141-21.00847-115.34588-115.34587-68.11027-183.45614 10.43733-15.656 21.00847-26.22714 36.66447-36.66447 73.32893-41.88313 157.22901-5.21866 188.67481 62.8916 36.66448 89.11874-36.66447 193.89349-131.00188 188.67483-26.22713-5.21866-52.45427-5.21866-73.32893-21.00848-21.00847-10.43734-26.22713-26.22714-36.66447-36.66447-62.8916-73.32893-31.4458-183.45615 52.45428-225.33928 36.66446-15.789805 78.68141-15.789805 120.56454-5.21866 89.11872 31.4458 131.00186 136.22053 89.11872 220.12061-10.43731 26.22714-31.44578 41.88313-52.45425 62.89162-21.00847 15.78977-47.23561 26.22712-73.32894 31.44578-41.88313 5.21866-83.90007-5.21866-120.56454-26.22712-89.11874-62.89162-110.12721-199.11215-21.00847-272.5749 15.656-10.43733 26.22714-31.445801 47.1018-36.664467 31.4458-10.437328 62.8916-21.00847 99.55607-15.655994 26.22713 5.218666 52.45427 15.655994 73.32893 26.227136 15.65599 15.789805 36.66446 21.008475 47.10181 41.883135 10.43732 15.7898 26.22713 31.4458 31.44578 52.45427 21.00847 62.8916 15.78981 131.00187-26.22712 183.45615-15.78981 21.00846-31.44582 41.88313-57.67295 52.45428-21.00847 5.21866-36.66446 21.00847-57.67294 21.00847-36.66446 0-78.68141 5.21866-115.34587-10.43735-110.12721-41.8831-157.22901-183.45614-99.55607-288.23087 15.7898-31.4458 41.88313-57.672937 73.32893-78.681407 41.88313-21.008474 83.90008-31.445802 131.00187-26.22714 57.67294 5.218666 104.77473 36.664468 146.79166 78.681417 21.00851 21.00847 26.22717 47.10179 36.66448 73.32893 10.43732 15.78981 5.21866 36.66446 10.43732 57.67293 10.43735 162.44767-183.45613 283.01222-330.24781 199.11215-26.22713-15.65601-47.23561-26.22713-62.8916-47.23563-57.67294-68.11025-73.32893-157.22899-47.23561-241.12907 15.78981-31.4458 36.66447-57.67293 57.67294-83.900069 36.66447-36.664468 89.11874-52.454275 136.22054-68.11027" opacity=".9"/></g></g><path d="m453.90234 51.619141c-18.78743.291789-37.462 4.781777-54.41501 12.861397-19.20205 9.078919-36.15685 22.415775-50.71256 37.792522-16.91175 17.84363-30.7672 38.37632-42.54982 59.89672-.26813.26809-.6531 1.6971-.83238 1.08245-1.79351-5.94945-4.7006-11.79632-9.46664-15.91677-4.01022-3.45032-9.29567-5.30505-14.57647-5.23525-7.31947.003-14.31552 2.7717-20.65219 6.23182-9.72204 5.39039-18.2701 12.65422-26.10959 20.47996-8.52217 8.58044-16.18901 18.03582-22.64108 28.26966-1.85186 2.95477-3.5792 5.98983-5.12629 9.11562-11.19805-10.79185-27.59419-16.11527-42.96679-13.38868-10.24252 1.76198-19.69384 7.38517-26.34523 15.34146-7.14188 8.418-11.35153 18.95221-13.617 29.6647-1.97068 9.30568-2.583 18.85511-2.38543 28.35127-6.77983-4.08572-14.66159-6.65357-22.638697-6.27397-8.562887.36159-16.723959 4.05411-23.346049 9.37288-8.459899 6.72131-14.925972 15.60571-20.192413 24.96142-7.806692 13.98005-13.065619 29.25702-16.720254 44.80871-2.589481 11.19382-4.346857 22.5913-5.094856 34.05788-.05812 4.36746-.11601 8.73491-.173747 13.10237 2.706352-4.14309 5.541692-8.19465 8.14834-12.39912 6.509514-11.38364 13.561524-22.56746 22.350855-32.34996 4.519704-4.92907 9.535083-9.67254 15.720897-12.41496 3.424739-1.47762 7.521402-1.97816 10.957198-.2601 4.065913 1.97094 6.847618 5.77042 9.059038 9.5843 4.683728 8.41987 6.991238 17.86573 9.093538 27.19151.19008 1.06281.6084 2.12356.65376 3.18767-.71936 3.12817-1.24222 6.30557-2.10694 9.39772-1.25152 3.97102-3.03811 7.74586-4.61214 11.5944-4.250204 10.06625-8.572255 20.22931-10.640281 31.0119-1.017604 5.47626-1.367596 11.30702.547481 16.63253 1.530791 4.16193 4.834055 7.64947 8.98552 9.25688 4.76512 1.95223 10.07955 2.07586 15.12366 1.40247 4.73046-.71394 9.42237-2.97776 12.20735-6.98367 3.16864-4.47048 3.81043-10.19297 3.39258-15.5254-.6368-8.28716-3.29486-16.24598-6.18492-23.98259-2.9735-7.81458-6.56135-15.36832-9.79821-23.07055-1.13873-2.91915-2.00157-5.93459-3.00124-8.90193 1.97698-6.49822 3.70463-13.11916 6.65846-19.27235 1.17237-2.55423 2.54697-5.18797 3.89818-7.53625 1.24965-2.16611 2.59642-4.32115 3.95152-6.32453 8.30064-12.25347 18.99061-22.83392 31.07954-31.34365 8.35159-5.78853 17.42845-10.69055 27.19527-13.60939 6.21077-1.80734 12.81967-2.89523 19.25804-1.75954 3.87888.69485 7.65835 2.39737 10.36945 5.31776 3.61266 3.76777 5.17633 9.00496 5.76127 14.08109.54921 4.63184.13516 9.29774.18069 13.94584-.028 2.9717-.0566 5.94339-.0848 8.91508 4.20495-6.98861 8.39378-13.98762 12.34749-21.12214 10.31439-18.17739 20.59288-36.44222 32.79976-53.43976 5.16614-7.08732 10.64864-14.01926 17.13955-19.95044 3.31087-2.91527 6.88237-5.68884 11.0239-7.31075 3.1551-1.26132 6.89586-1.52545 9.95142.16002 4.05959 2.15225 6.72567 6.10881 8.91952 10.01463 1.72134 3.11407 3.14927 6.54429 4.31836 9.80078 2.05692 5.76889 3.68542 11.88303 5.00899 17.94325 1.53264 6.93926 2.70753 13.95952 3.70715 20.95069.36386 2.42458.62976 4.86939.99493 7.28947 1.29813 3.40681 2.59863 6.81272 3.8983 10.21894 1.27266-3.46571 2.69296-6.87741 3.9082-10.36328.56247-3.64006.97132-7.31553 1.51183-10.96418 2.78768-19.79031 6.20292-39.5046 10.70497-58.98114 1.87301-8.05805 4.00948-16.31746 6.37142-24.26575 2.93698-9.7342 6.2618-19.43015 10.64517-28.6611 2.08409-4.32216 4.39593-8.55845 7.26661-12.41494.45003-.59574 1.0872-1.42563 1.6504-2.08008 2.08312-2.37723 4.50428-4.66616 7.54101-5.72657 2.29864-.75901 4.85758-.36376 6.90625.89258 3.91593 2.24193 6.71217 5.93141 9.22518 9.58649 2.36939 3.52322 4.36946 7.32436 6.17991 11.08774 1.95069 4.05641 3.78065 8.16927 5.66327 12.25741 3.65787-12.03443 7.18088-24.10862 10.58403-36.21717 3.31318-11.6356 6.67583-23.26588 10.67183-34.68908 4.66321-13.29675 10.18739-26.537738 17.96468-38.396083 4.85738-7.405363 10.73872-14.187504 17.70913-19.677793 2.30599-1.916787 4.61199-3.833563 6.91799-5.750339-6.37536-.228532-12.7507-.655622-19.13282-.552734zm-48.19726 143.402339c-.92536 3.78759-1.47662 7.69184-2.96921 11.31733-3.81595 9.35197-8.27532 18.43197-11.92642 27.8535-3.06494 7.93606-5.81994 16.08532-6.91585 24.55526-.59521 5.15131-.54232 10.56201 1.42085 15.43602 1.62052 4.05603 4.70722 7.50859 8.62927 9.45508 5.27865 2.72158 11.39563 3.16266 17.23141 2.82246 5.59898-.35477 11.37254-2.02368 15.53581-5.94746 3.82873-3.64799 5.7864-8.88742 6.14269-14.09333.577-7.15216-.95996-14.27626-2.93781-21.10882-3.99293-13.63679-10.38622-26.37564-16.23267-39.27401-1.83296-3.99593-3.03869-8.23527-4.52699-12.36353-.63539-1.8451-1.27077-3.6902-1.90616-5.53531-.51497 2.29427-1.02995 4.58854-1.54492 6.88281zm-76.92188 116.73633c-.81684 3.35793-1.57272 6.73006-2.35861 10.09413-1.50345 5.51546-3.5711 10.85553-5.48802 16.23577-5.99258 16.50165-12.19553 33.02676-15.78988 50.25682-1.79257 8.78457-2.98613 17.85592-1.76154 26.80164.86244 6.12029 3.26366 12.27725 7.90807 16.51689 4.59216 4.25412 10.89121 6.19189 17.04941 6.48811 6.23857.3915 12.74607-.40176 18.29892-3.42853 4.73869-2.60525 8.41682-6.95849 10.37554-11.98303 2.75092-6.84491 3.02055-14.39168 2.47543-21.66274-.91012-11.72603-3.93769-23.16027-7.36728-34.36912-4.4795-14.42936-10.1499-28.44417-15.37762-42.60903-.32258-.93724-.62975-1.78183-.90388-2.65226-1.72108-5.53572-3.61941-11.01419-5.44335-16.51677-.53906 2.27604-1.07812 4.55208-1.61719 6.82812z" fill="#775fa0" filter="url(#b)" stroke-width=".9"/><path d="m75.880859 22.242188c-14.447124.426114-28.053008 7.086211-39.05664 18.089843-9.259458 9.260067-15.347706 20.386236-17.408203 32.273438-2.060498 11.887202.394429 25.69716 10.095703 35.398441l.002.002c9.904438 9.90196 23.108675 12.18197 35.673828 9.92383 15.970996 24.72301 37.89749 46.53552 62.68555 62.35351l5.70703 3.64063 1.9043 34.8125 5.51953 4.97265c114.441763 103.09982 229.436933 200.18767 315.189403 261.0937l43.80664 15.1973-18.55273-40.0723c-60.07547-87.34866-160.5691-203.82451-261.28516-315.42578l-4.97266-5.50976-34.78906-1.89453-3.5-5.50196c-15.83229-24.88234-37.69903-46.909319-62.50977-62.933591 2.25362-12.537314-.003-25.723585-9.89453-35.615234-7.856282-7.85629-18.696763-11.095308-28.611324-10.804687h-.002z"/><path d="m161.71415 141.25919c-16.8264-26.4447-41.75101-49.931998-68.877006-64.517398 6.1155-11.4732 6.1164-23.7807-1.0692-30.9663-3.9168-3.9168-9.3537-5.7168-15.35625-5.54085-8.77275.25875-18.74205 4.70655-26.86005 12.82455-13.6728 13.6737-16.9542 32.5746-7.3125 42.2163 7.191 7.189198 19.5444 7.224298 31.023 1.098 14.5503 27.044998 37.938596 51.918298 64.294206 68.736598z" fill="#775fa0" stroke-width="36"/><path d="m151.11215 174.87149 1.9404 35.4645c114.1587 102.8448 228.9897 199.7226 313.5645 259.7922-58.986-85.7646-159.291-202.1742-259.8183-313.5663l-35.073-1.9116z" fill="#775fa0" stroke-width="36"/><path d="m92.583984 243.7481v18h52.818356v-18c0-21.60682 7.21628-41.2694 19.35157-57.04493l18.54882-18.19726c15.5507-11.51482 34.68925-18.32588 55.67383-18.32813l17.99805-.002v-52.820311l-18.00195.002c-32.97527.0023-63.60365 11.025701-88.58399 29.897461l-26.68262 26.34473c-19.60489 25.23098-31.122066 56.45647-31.122066 90.14844z"/><path d="m171.72575 154.65029c18.6876-14.112 41.9742-22.4703 67.248-22.473v-16.8201c-28.98.002-55.7505 9.6525-77.2596 25.902l-24.1578 23.8509c-16.89301 21.7404-26.97301 49.032-26.97301 78.6384h16.8192c0-26.01 8.84521-49.9266 23.70961-68.877z" fill="#775fa0" stroke-width="36"/><path d="m456.71875 55.60049c1.917.0072 3.8376.0486 5.7663.1404-30.9321 24.9966-40.8681 76.4064-54.0855 119.8692-33.0723-72.9072-63.279 14.004-76.7817 119.8683-17.604-141.399-73.5228-35.4258-105.975 21.771 2.8917-65.4786-95.562-20.1474-113.9625 43.5924-12.2355-54.4635-40.5342-47.862-74.1654 11.8404 5.0283-67.8825 42.9282-134.9244 88.3422-98.6058-6.0003-88.6464 58.635-90.4635 82.125-60.6654 14.166-36.4824 86.8203-107.388 95.85-38.0817 40.1274-79.5708 93.483-119.9556 152.8866-119.7288zm-48.6558 147.177c4.6404 14.3604 44.6715 79.7913 0 79.7913-44.7003 0-2.8206-65.349 0-79.7904zm-77.0067 116.721c5.472 20.6487 52.6698 114.75 0 114.75-52.7022 0-3.3246-93.9834 0-114.75zm-219.4875 57.852c3.7197 12.0645 35.7966 67.05 0 67.05-35.8173 0-2.259-54.9162 0-67.05z" fill="#fff" filter="url(#a)" opacity=".25" stroke-width=".9"/></svg>