<svg height="500" viewBox="0 0 500 500" width="500" xmlns="http://www.w3.org/2000/svg" xmlns:xlink="http://www.w3.org/1999/xlink"><radialGradient id="a" cx="1362.7291" cy="216.11429" gradientTransform="matrix(1.0000001 -.0000059 .0000001 1.0000003 -112.72927 33.893757)" gradientUnits="userSpaceOnUse" r="250"><stop offset="0" stop-color="#ff851a"/><stop offset=".42441937" stop-color="#f87000"/><stop offset=".86367416" stop-color="#f26900"/><stop offset="1" stop-color="#e55f00"/></radialGradient><g transform="translate(-1000)"><path d="m1500 250a250 250 0 0 1 -250 250 250 250 0 0 1 -250-250 250 250 0 0 1 250-250 250 250 0 0 1 250 250z" fill="url(#a)" stroke-linecap="round" stroke-linejoin="round" stroke-width="1.002"/><path d="m1309.2298 33.82789c128.5196 30.706851 207.8974 167.48127 169.5927 291.56949-31.3771 95.69524-112.8693 162.03793-212.5543 174.60263 153.1796-8.09118 266.0956-163.0043 218.7012-309.92978-36.4562-114.666588-154.6038-191.5214848-270.6514-169.822657-18.8526 4.215647-38.4387 10.498641-55.8829 18.694487-112.5353 47.459213-168.47522 196.206-99.9632 307.85319 57.6978 93.63045 168.5136 141.8489 267.9993 100.77239-134.92 68.97589-303.283-51.46877-311.488-201.30723-4.4167-117.68321 76.8182-219.674136 190.654-246.26040176-89.0147 9.18391126-152.6601 79.39239576-187.7408 157.21169176-38.45522 102.70317 5.2337 231.75078 109.038 294.08388 114.5107 66.1048 260.3537 29.37245 323.6836-83.60152 42.2104-77.69758 34.3514-177.62383-23.1776-249.88923-57.5404-72.257811-157.5429-102.460489-246.4118-71.877168-81.7429 30.682061-131.1298 101.133078-134.0478 190.176958.6692 92.68536 61.7912 168.55972 147.5399 198.52472 128.5549 37.82014 266.7725-70.33038 233.6823-209.88949-14.7104-64.39775-57.8855-122.14991-125.7378-141.121386-71.391-15.467036-138.9716 1.205-181.2869 64.641366-18.8995 29.2286-28.9384 85.21395-26.105 97.65297m0 0c13.5324-50.18833 30.6277-97.66354 72.2125-128.94941 53.182-38.308183 124.4576-37.093813 181.7444-.48035 50.1457 36.48017 75.4845 90.37713 72.3557 150.91678-6.6674 64.04407-38.4038 109.83277-91.6401 141.00844-63.9019 34.56125-135.3795 4.83213-189.1258-35.28385-78.8706-65.48566-79.7477-186.67235-8.9744-256.76104 63.7369-55.941605 167.0207-64.891564 238.7167-6.65053 78.8163 58.35315 90.3045 169.04089 40.972 246.62443-35.2274 56.41892-88.4571 87.60135-152.5581 93.63158-81.9488 2.18264-160.666-41.91503-196.8695-120.9383-36.2055-79.02511-22.5771-164.33167 26.8727-227.66064 49.4316-63.30896 138.3491-86.746364 220.4504-67.54202" fill="#c50"/></g><path d="m398.05903 185.91151c8.36896-7.774 15.48357-16.57155 21.64123-25.09548 10.39043-14.54247 14.74816-26.28847 22.20569-40.9983 7.29341 1.60968 14.68252 4.17081 21.70573 5.01968 9.46498 1.02613 21.20999-3.68388 28.19662-10.66452 7.57013-10.51021 12.27372-24.874371 3.4415-35.426835-4.52707-5.197561-10.41907-9.095177-15.53952-12.683971-.95287-14.266414-11.52722-22.908975-24.57176-27.54531-4.39803-11.001579-12.31348-19.60099-20.7057-25.701935-11.3413-8.8992247-22.30706-10.4004921-36.31161-12.80799781-10.80373.25187589-17.15695 4.54816751-26.55545 9.64188791 1.95862 13.2551009 3.62609 29.2465879 9.03932 39.0792859 2.10655 3.721808 4.74118 6.8341 7.67015 9.693647-2.7792 5.038176-5.0233 13.65437-9.66044 15.887191-4.28255 2.046815-25.94364 3.796388-78.01599-2.679768-49.68543-6.208931-91.39887 3.577442-128.53711 31.531285-48.60885 36.62261-68.84015 62.67987-94.208966 129.54104-11.044865 29.11726-10.420285 65.08764-15.679002 87.05614-2.629359 10.98424-6.489586 16.24364-7.679917 16.97902-16.070323.33642-28.090878-11.79236-42.063748-6.14862-13.437078 9.28596-15.2241094 20.94659-7.8029665 33.50783 6.6279865 10.23472 16.0612715 19.1056 28.5379565 23.96458 12.476686 4.85897 27.816875 4.99372 42.659471-.98636l.02734-.0117.02734-.0117c24.009409-9.7666 35.175212-31.99249 42.491502-54.22036-.43532 40.83931-6.6684 69.67832-27.746924 100.21586l32.526354 25.49685c21.51695-15.69649 43.94307-32.46733 50.13332-51.21539 1.23687-18.32934 3.66011-25.06776 2.8331-57.90308 13.99569-13.50686 29.9977-28.22 44.22982-52.80236 30.44298-11.50288 48.53163-35.47347 69.40637-54.88249l.008-.006.006-.006c7.71197-7.76716 14.39874-13.83981 17.92631-23.57297 6.28822-.2648 12.98539-.77312 18.43219-1.40434l-39.58516 50.11087c25.28731-3.13141 53.65557-6.2684 76.26203-11.99841 9.00933-2.57115 18.20069-4.87154 25.01051-9.7249 3.00342-2.16617 8.83083-6.04179 9.1663-16.14402.54881-11.3725 3.70272-26.44533 1.08011-43.08235z" fill="#994100"/><path d="m362.84876 219.00946c-5.11921 6.98768-12.69951 5.11773-19.68915 5.21615l-15.16062 19.1916c13.09329-1.6731 50.79796-9.25135 50.99487-15.15645.78754-16.33742 4.33158-33.85588-.98448-49.01229 10.1399-7.47983 19.39378-18.30582 27.07254-28.93499 10.82903-15.15645 14.17617-27.8524 26.28501-49.11075 2.5596-4.527281 31.99484 7.38135 37.40936 5.70825 8.56476-2.65728 14.07772-6.29877 13.19169-15.550119-.19682-2.558856-13.48705-10.924414-20.57514-16.239001 0 0 1.18136-9.448161-1.47666-13.060118-4.13471-5.659072-19.49224-9.271021-19.49224-9.271021-2.85495-21.258374-27.26944-34.918809-42.2332-34.790883v-.000079c-2.75647 0-5.21761.521624-7.08809 1.535326 2.65805 19.250674 4.52849 23.66966 19.78759 33.846109-20.57517 37.881204-7.28498 49.199326-112.5234 36.109672-46.46645-5.806673-81.61144 2.558896-115.47676 28.049214-47.54923 35.8243-63.30053 55.90163-88.207281 121.54663-17.769438 46.84714.0986 143.10028-67.01196 109.04753-6.339918-2.16521-13.073598-2.55888-7.73784 6.49563 9.381869 14.46748 26.93473 24.703 49.16378 15.74692 34.839901-14.17224 31.984981-61.8067 57.580861-119.28303 8.86011-20.17576 29.04143-68.20389 48.04145-45.96135 6.49741 7.67663 13.5855 23.42355 9.94301 30.90332-15.65284 32.77334-25.00518 55.70481-49.51817 74.50269 3.6425 41.53255 2.26426 86.41132-20.0829 118.79098l8.66324 6.79088c12.99483-9.15292 27.76168-18.6995 31.9948-31.986.98448-19.19159 3.83941-21.65206 2.26429-62.2004 17.12954-17.12479 34.7513-31.00175 50.01038-59.93674 28.35235-8.16873 45.58034-31.19862 69.50261-53.44118 4.33162-4.03515 7.97412-8.16872 11.51816-12.10543 7.87556-15.55012 3.15017-34.15116-2.75657-51.96489 15.7514 8.36557 22.54413 22.43938 24.02084 35.52902 12.60094-.59051 23.13473-1.86994 34.06219-5.21615-3.44561-18.40424 2.85491-30.50972 18.01557-43.20567-8.95856 23.62041-12.0104 29.91917-4.52851 38.58001 4.92227 9.44819 4.82382 18.69951 5.02073 28.83661zm86.92751-154.064132c2.85492 0 5.11916 2.224266 5.11916 4.920936 0 2.736021-2.26424 4.861854-5.11916 4.861854s-5.11919-2.125833-5.11919-4.861854c0-2.69667 2.26427-4.901256 5.11919-4.920936z" fill="#ffa348" stroke-width="36"/></svg>