<svg height="500" viewBox="0 0 500 500" width="500" xmlns="http://www.w3.org/2000/svg" xmlns:xlink="http://www.w3.org/1999/xlink"><filter id="a" color-interpolation-filters="sRGB" height="1.498978" width="1.213384" x="-.106692" y="-.249489"><feGaussianBlur stdDeviation="8.1080524"/></filter><filter id="b" color-interpolation-filters="sRGB" height="1.227259" width="1.249167" x="-.124584" y="-.11363"><feGaussianBlur stdDeviation="8.1080524"/></filter><filter id="c" color-interpolation-filters="sRGB" height="1.00663" width="1.01289" x="-.006445" y="-.003315"><feGaussianBlur stdDeviation=".58644987"/></filter><filter id="d" color-interpolation-filters="sRGB" height="1.006811" width="1.00704" x="-.00352" y="-.003405"><feGaussianBlur stdDeviation=".58644987"/></filter><filter id="e" color-interpolation-filters="sRGB" height="1.016467" width="1.007708" x="-.003854" y="-.008233"><feGaussianBlur stdDeviation=".58644987"/></filter><g transform="translate(.000015)"><circle cx="-249.99998" cy="250" fill="#e51a1a" r="250" transform="scale(-1 1)"/><path d="m181.33938 83.856939c97.52275-31.84694 203.27597 26.159281 217.12696 131.568651 10.04116 85.89723-45.79566 162.6049-131.11288 174.6444-76.26503 6.65-147.16573-45.4981-149.44603-126.3231.16679-50.89801 30.03241-87.97493 76.60677-108.40662 44.00125-16.48183 90.46555-3.00917 112.28155 39.63622 17.95322 40.0953 3.57775 87.31302-40.4313 103.80676-21.98685 8.23292-51.6578-5.55285-56.72562-31.5612 24.48155 21.7253 69.7211 11.74379 80.1808-21.06198 5.24648-24.88185-11.48198-41.52298-24.36368-55.64156-23.21161-15.22125-63.26956-13.16738-85.32502 12.05139-41.51846 46.43224-18.48961 112.52397 35.72777 131.08081 60.66482 17.11352 118.96473-29.63961 126.96137-92.39988 2.7637-54.83226-40.99398-106.19486-96.51046-114.27807-76.21988-10.3001-138.45939 50.84936-147.743191 124.09106-9.31956 73.21828 47.315731 138.67973 111.863041 158.33924 49.05305 9.49897 98.18701 2.07129 139.64056-27.40671 82.90715-58.95602 100.11901-177.97214 43.55644-260.39974-52.71171-79.885311-158.575-103.987181-249.15842-67.061741-86.705021 39.45169-149.0660905 134.549061-117.102931 229.167621 15.77888-74.65377 50.93986-153.5943 123.407351-187.514491 9.28724-4.60517 19.44718-8.7232 30.56692-12.33106zm-160.722321 286.075591c-52.57825-113.8254-.38403-260.89182 113.777041-317.643861 10.84604-5.32012 22.21219-9.7712 34.03518-13.36069 115.76394-28.75816 246.03978 34.00351 263.68455 158.897471 10.04526 85.91695-27.72044 168.80365-107.97396 206.83173-102.24035 46.26108-224.798841-11.43986-234.690511-131.24969-7.33455-123.78718 127.307171-194.136761 222.718561-137.24102-42.54074-27.89653-94.21826-33.44528-140.80825-12.98978-71.17376 32.62266-105.080851 118.0397-80.762351 190.63139 30.697281 88.13423 123.572931 132.04164 212.817841 105.59803 82.80488-25.06359 132.16266-100.33164 140.19255-180.04986 12.12434-145.020371-132.23823-245.3588802-265.59709-221.973611 7.92036-4.10499 20.5989-8.4277792 35.61563-11.7452592 60.06317-13.23825 124.63426-3.45807 179.45368 32.4903392 109.65077 71.904621 141.09454 217.803071 65.16008 333.599141-143.00482 218.07486-377.311781 117.06797-437.622951-1.79433" fill="#b21a1a"/></g><path d="m219.79169 370.23006-218.3842104-354.657207 45.1983294 128.191517 64.644641 170.8837-44.718-46.58945 24.529235 146.69283s58.494505 34.12854 86.206925 23.26937c24.83589-9.73199 42.52308-67.79076 42.52308-67.79076z" fill="#ff8066" filter="url(#c)" opacity=".75"/><path d="m473.88762 344.48332-396.589534-281.048551v.001l190.735734 220.096971-75.51483-60.06136 148.25058 247.76977s89.79083 17.50055 118.37143-9.9022c28.3394-27.17149 14.74662-116.85563 14.74662-116.85563z" fill="#ff8066" filter="url(#d)" opacity=".75"/><path d="m333.71468 352.8416-76.67356-113.36323 112.23103 82.47636s62.70262 65.99606 38.34281 85.58954c-23.88137 19.20866-73.90028-54.70267-73.90028-54.70267z" fill="#e51a1a" filter="url(#b)"/><path d="m400.80019 206.49941s58.9295-25.76596 65.98391-53.10326c6.98983-27.08703-31.75578-77.683026-31.75578-77.683026l-332.62489-40.16069z" fill="#ff8066" filter="url(#e)" opacity=".75"/><path d="m348.62195 144.7378-112.4912-70.53488 128.42609 21.993351s60.8757 23.320709 53.31051 45.402039c-7.48877 21.85825-69.2454 3.13949-69.2454 3.13949z" fill="#e51a1a" filter="url(#a)"/><path d="m87.649667 386.07422c-3.603718 37.3299 24.031853 70.89234 61.357423 74.5 37.32682 3.60625 70.8735-24.04812 74.47851-61.37695 3.60517-37.33017-24.8833-71.01371-64.84375-74.65919-37.18887-.051-67.611861 26.54671-70.992183 61.53614z" fill="#861313"/><path d="m105.5655 387.80463c-2.67766 27.73712 17.44699 52.17395 45.17277 54.85375 27.72683 2.67877 52.15262-17.45413 54.83132-45.19125 2.67872-27.73713-17.44595-52.17291-47.75729-54.96672-28.12385-.01-49.73459 19.30054-52.2468 45.30422z" fill="#ff8066" stroke-width="36.0001"/><path d="m499.86723 412.47851c2.70654-50.80385-37.39101-94.55347-92.04885-97.19923-50.64757 2.12578-89.92115 39.74795-92.45705 87.37891-2.70704 50.81339 34.63464 97.20899 87.36037 97.20899 55.02252.13282 94.44045-36.59046 97.14553-87.38867z" fill="#861313"/><path d="m333.33645 403.61482c-2.19271 41.15905 29.20147 76.08397 70.34369 78.27862 41.14118 2.19361 76.02163-29.21549 78.2133-70.37246 2.19272-41.15905-29.17025-76.05274-74.13229-78.26093-41.56421 1.77509-72.37039 31.76933-74.4247 70.35477z" fill="#ff8066" stroke-width="36.0001"/><path d="m350.59375 149.81641c5.0834 37.14561 39.69002 63.42544 76.82812 58.33789 37.14195-5.08599 63.43918-39.69472 58.35352-76.85157-4.45051-32.508524-32.9703-57.040391-69.97754-58.641597-42.42936 5.0094-70.29108 40.009237-65.2041 77.155277z" fill="#861313"/><path d="m368.42712 147.37491c3.77767 27.61012 28.95586 46.72689 56.5526 42.9456 27.59883-3.77921 46.74004-28.96875 42.96133-56.57678-3.30727-24.15781-23.01254-41.828487-51.48085-43.156937-32.70387 3.958288-51.81387 29.180087-48.03308 56.788117z" fill="#ff8066" stroke-width="36.0001"/></svg>