<svg height="500" viewBox="0 0 500 500" width="500" xmlns="http://www.w3.org/2000/svg" xmlns:xlink="http://www.w3.org/1999/xlink"><radialGradient id="a" cx="1362.7291" cy="216.11429" gradientTransform="matrix(1.0000001 -.0000059 .0000001 1.0000003 -112.72927 33.893757)" gradientUnits="userSpaceOnUse" r="250"><stop offset="0" stop-color="#ff851a"/><stop offset=".42441937" stop-color="#f87000"/><stop offset=".86367416" stop-color="#f26900"/><stop offset="1" stop-color="#e55f00"/></radialGradient><filter id="b" color-interpolation-filters="sRGB" height="1.06919" width="1.080843" x="-.040422" y="-.034595"><feGaussianBlur stdDeviation=".92237097"/></filter><g transform="translate(-1000)"><path d="m1500 250a250 250 0 0 1 -250 250 250 250 0 0 1 -250-250 250 250 0 0 1 250-250 250 250 0 0 1 250 250z" fill="url(#a)" stroke-linecap="round" stroke-linejoin="round" stroke-width="1.002"/><path d="m1309.2298 33.82789c128.5196 30.706851 207.8974 167.48127 169.5927 291.56949-31.3771 95.69524-112.8693 162.03793-212.5543 174.60263 153.1796-8.09118 266.0956-163.0043 218.7012-309.92978-36.4562-114.666588-154.6038-191.5214848-270.6514-169.822657-18.8526 4.215647-38.4387 10.498641-55.8829 18.694487-112.5353 47.459213-168.47522 196.206-99.9632 307.85319 57.6978 93.63045 168.5136 141.8489 267.9993 100.77239-134.92 68.97589-303.283-51.46877-311.488-201.30723-4.4167-117.68321 76.8182-219.674136 190.654-246.26040176-89.0147 9.18391126-152.6601 79.39239576-187.7408 157.21169176-38.45522 102.70317 5.2337 231.75078 109.038 294.08388 114.5107 66.1048 260.3537 29.37245 323.6836-83.60152 42.2104-77.69758 34.3514-177.62383-23.1776-249.88923-57.5404-72.257811-157.5429-102.460489-246.4118-71.877168-81.7429 30.682061-131.1298 101.133078-134.0478 190.176958.6692 92.68536 61.7912 168.55972 147.5399 198.52472 128.5549 37.82014 266.7725-70.33038 233.6823-209.88949-14.7104-64.39775-57.8855-122.14991-125.7378-141.121386-71.391-15.467036-138.9716 1.205-181.2869 64.641366-18.8995 29.2286-28.9384 85.21395-26.105 97.65297m0 0c13.5324-50.18833 30.6277-97.66354 72.2125-128.94941 53.182-38.308183 124.4576-37.093813 181.7444-.48035 50.1457 36.48017 75.4845 90.37713 72.3557 150.91678-6.6674 64.04407-38.4038 109.83277-91.6401 141.00844-63.9019 34.56125-135.3795 4.83213-189.1258-35.28385-78.8706-65.48566-79.7477-186.67235-8.9744-256.76104 63.7369-55.941605 167.0207-64.891564 238.7167-6.65053 78.8163 58.35315 90.3045 169.04089 40.972 246.62443-35.2274 56.41892-88.4571 87.60135-152.5581 93.63158-81.9488 2.18264-160.666-41.91503-196.8695-120.9383-36.2055-79.02511-22.5771-164.33167 26.8727-227.66064 49.4316-63.30896 138.3491-86.746364 220.4504-67.54202" fill="#c50"/></g><g transform="translate(-39.190218 -606.1524)"><path d="m272.57227 680.87891-154.1211.40234 2.84375 22.01367c-13.43337-1.43869-26.832289-4.21282-40.287108-8.0918l-16.683593-4.81054-5.40625 16.5c-14.652699 44.71661-21.102955 90.56205-19.484375 137.13086l.392578 11.34179 10.40625 4.53321c15.22752 6.63388 30.389525 8.98652 45 9.94531l-19.367188 50.33594h26.212886 211.05469l-27.25-60.73047h-4.49219c-4.60627-25.09639-8.73091-52.62234-10.95703-78.27734-1.92555-22.20004-2.50854-42.60538-1.05078-57.89844l.0176-.17969zm-169.77539 74.50195c6.985.88464 13.97512 1.36843 20.96093 1.41992-.31975 7.80653-.76854 15.90215-1.49023 24.40625-1.00667 11.85962-2.48748 24.07132-4.23633 36.10352-8.99491.36054-17.15925.25985-24.492188-.86133.293554-21.14239 3.444286-40.09965 9.257818-61.06836z" fill="#994100"/><path d="m102.07772 902.18021h183.2485l-11.09649-24.73008h-162.63671z" fill="#ffa348" stroke-width="36"/><path d="m57.421991 843.39739c20.205633 8.80261 41.597543 9.24963 63.062519 9.19599 1.20211-5.65706 2.3271-11.51542 3.36879-17.48261-16.40053.85729-32.744866 1.28744-48.183413-4.66133-1.190372-34.16823 3.533828-62.13528 14.304886-95.55147 13.956437 3.32079 28.103967 4.39877 42.531447 3.81482-.0357-5.98507-.1977-11.5236-.52621-16.50681-18.98869-.88179-37.597804-4.4151-55.957596-9.70815-14.008568 42.75088-20.147396 86.39097-18.600423 130.89956z" fill="#ffa348" stroke-width="36"/><path d="m272.57227 672.42773-154.1211.40039 4.95313 38.33399c1.38993 15.2126.91308 37.43764-1.13672 61.5918-2.36929 27.91375-6.93727 57.9744-13.0332 82.32421l-5.60157 22.3711h182.64258l-4.0332-21.3418c-4.981-26.36178-9.43573-56.04249-11.8086-83.38867-1.92556-22.20006-2.50854-42.60536-1.05078-57.89844l.0176-.17969zm-38.81446 36.09961-.24219 3.23633.0293-.35937c-1.81498 19.04062-1.00529 41.03625 1.02344 64.42578 1.88767 21.7546 5.14051 44.0759 8.74414 65.61914h-94.22852c4.15295-21.22014 7.21093-43.92814 9.05469-65.65039 2.12953-25.09359 2.80488-48.27747 1.16406-67.07617z" fill="#994100"/><path d="m141.31904 709.34499c1.57967 17.09228.99471 40.04957-1.1168 64.93086-2.44051 28.7528-7.08397 59.51848-13.50686 85.17428h137.86017c-5.07416-26.85485-9.61085-57.02026-12.0539-85.1753-1.97715-22.79482-2.67349-43.99517-1.03712-61.16204l1.70064-22.6353-114.24529.29792z" fill="#ffa348" stroke-width="36"/><path d="m137.44491 660.68656c-7.39808-.0975-14.56118 1.50913-20.74604 5.58156-8.37456 5.51524-14.26065 17.09071-14.40645 27.78332-.10311 7.57196 1.66007 14.90885 5.64191 20.68193 3.76244 5.45419 10.53073 9.76877 16.277 11.29511 9.45192 2.5109 17.747 1.28461 26.44075-1.94035 4.26331 2.12947 7.71105 3.76151 11.87035 4.60667 3.08564.62699 6.35912.5653 9.44162.29039 6.03193 8.54496 15.76871 14.13869 26.94232 14.13869 10.65086 0 19.88989-5.6627 26.34081-14.17285 1.9886-2.75021 2.91732-5.11977 4.05206-7.59383 2.04012 1.16103 3.80531 2.53992 6.61088 3.9431 10.428 4.95635 20.66075 6.26154 29.71424 3.22848 1.19225-.39943 2.3563-.86167 3.48293-1.38607 13.02262-6.05406 20.95137-21.34147 20.23137-36.96473v-.008-.004c-.73306-15.68359-11.97046-29.61371-24.77758-34.34165-9.74389-3.59665-20.65656-3.35097-32.38431.32999-6.1742-3.51117-11.23107-6.10895-17.42926-6.84684-5.89946-.70232-11.82899.0834-17.65555 2.44005-7.6432-5.56091-16.57774-9.28587-25.53553-8.6132-12.75158.95755-26.06858 6.31599-34.11152 17.55223z" fill="#994100" stroke-width="1.93092"/><path d="m271.35649 691.00706c-.44958-9.61851-5.60445-15.55554-13.02766-18.29594-7.42422-2.74041-17.24759-1.84431-26.19938 4.19847l-3.79896 2.57081-2.73018-3.70395c-3.59564-4.89686-8.73108-7.91112-13.65094-8.6851-4.91884-.77451-9.44479.47409-12.96329 4.29453l-3.78363 4.10242s-2.01719-3.20471-3.46383-4.37319c-5.85264-4.72731-12.72121-10.01578-20.24447-9.97842-7.37501.0366-15.17065 4.19522-19.74741 9.97842-2.02105 2.55381-2.28463 9.49945-2.28463 9.49945l-5.81187-1.27723c-7.31389-1.61951-13.17685-.58752-17.0509 1.96336-3.8751 2.55138-6.21956 6.58943-6.30692 12.99598-.0664 4.87386.98601 8.08225 2.45891 10.21775 1.47236 2.13552 3.40915 3.40865 6.08262 4.11878 5.34646 1.42029 13.6254-.18228 20.99445-4.47026l3.049-1.77278 2.58661 2.37972c4.29401 3.95631 7.413 5.65552 10.50386 6.25837 3.0919.60285 6.66506.16239 11.97524-1.46881l5.02816-1.549 1.05395 5.1564c1.37684 6.72227 7.61735 11.95836 14.87963 11.95836 6.76263 0 12.09273-4.6123 13.9539-10.96776l1.13314-3.84801 3.97626.43069c4.52391.50577 9.91634-2.06654 12.7722-5.28413l3.06533-3.4485 3.55988 2.95396c8.69024 7.23194 16.6293 8.48238 23.34946 6.18011 6.84556-3.12805 11.11659-9.82478 10.64147-20.1345z" fill="#ffa348" stroke-width="36"/><path d="m271.35649 691.00706c-.44958-9.61851-5.60445-15.55554-13.02766-18.29594-7.42422-2.74041-17.24759-1.84431-26.19938 4.19847l-3.79896 2.57081-2.73018-3.70395c-3.59564-4.89686-8.73108-7.91112-13.65094-8.6851-4.91884-.77451-9.44479.47409-12.96329 4.29453l-3.78363 4.10242s-2.01719-3.20471-3.46383-4.37319c-5.85264-4.72731-12.72121-10.01578-20.24447-9.97842-7.37501.0366-15.17065 4.19522-19.74741 9.97842-2.02105 2.55381-2.28463 9.49945-2.28463 9.49945l-5.81187-1.27723c-7.31389-1.61951-13.17685-.58752-17.0509 1.96336-3.8751 2.55138-6.21956 6.58943-6.30692 12.99598-.0664 4.87386.98601 8.08225 2.45891 10.21775 1.47236 2.13552 3.40915 3.40865 6.08262 4.11878 5.34646 1.42029 13.6254-.18228 20.99445-4.47026l3.049-1.77278 2.58661 2.37972c4.29401 3.95631 7.413 5.65552 10.50386 6.25837 3.0919.60285 6.66506.16239 11.97524-1.46881l5.02816-1.549 1.05395 5.1564c1.37684 6.72227 7.61735 11.95836 14.87963 11.95836 6.76263 0 12.09273-4.6123 13.9539-10.96776l1.13314-3.84801 3.97626.43069c4.52391.50577 9.91634-2.06654 12.7722-5.28413l3.06533-3.4485 3.55988 2.95396c8.69024 7.23194 16.6293 8.48238 23.34946 6.18011 6.84556-3.12805 11.11659-9.82478 10.64147-20.1345z" fill="#f8efed" filter="url(#b)" opacity=".5"/></g><g stroke-width="1.76549"><g transform="matrix(2.1407779 0 0 2.1407779 74.25633 -428.05208)"><path d="m170.93798 333.22877c1.59029-4.79348 1.32753-10.18262-.5766-14.16779-1.93688-4.82934-4.12756-9.65867-9.9336-14.48801-1.77263-1.84856-3.51561-3.34479-5.33469-4.94947-2.24696-1.98214-6.88799-5.7754-6.88799-5.7754-2.26402-1.77212-4.01012-3.05752-6.02573-4.5723-2.9689-2.2312-8.93762-6.65227-8.93762-6.65227-9.65459-6.65241-21.7541-9.12031-27.48992-9.11822l-14.140319.22953c-9.590735 1.19623-18.382018 4.05707-24.554815 10.71456-3.293864 3.55242-4.991309 8.02416-5.613651 12.04659-.622339 4.02242-.445126 7.74031-.291037 11.46724.308177 7.45389.735911 14.99383-2.005331 24.29298-1.855278 6.29412.848211 10.639 3.288998 14.44696 2.440789 3.80795 5.61945 7.47668 9.166316 11.28934 7.093736 7.62529 15.730531 15.72212 26.048321 23.66437 6.792398 2.70105 9.512768 3.18955 12.107718 3.18955 1.94596 0 4.9748-.019 25.33943-1.28549 9.60329-.5972 15.02575-.0269 18.95941.46255 1.96683.24476 3.57918.52938 5.69941.57478s5.20555-.41216 7.70474-1.9807c4.4447-2.78957 5.491-6.60358 6.07438-9.57596.58337-2.97238.86098-5.28519-.42103-8.80548-4.04298-11.96152-5.59394-20.70552-2.17639-31.00736z" fill="#994100"/><path d="m100.01986 281.91532c-11.292951.005-21.901684 2.97128-26.797534 8.25156-8.110009 8.7466.327554 22.96319-6.011334 44.46667-2.278856 7.73113 19.626263 25.91171 32.328909 40.11745-.826823-2.24631-.834231-4.55295-.305858-6.53203v-.18203l.124354-.38021c4.644493-14.13034 3.357033-21.61434-.330729-33.15573-1.374246-4.29948-1.1176-8.39523.470958-11.85651 1.588554-3.46128 4.392084-6.23835 7.838284-8.41719 6.89239-4.35769 16.45576-6.51219 26.01198-6.78815 1.19433-.0344 2.38284-.0415 3.57188-.0164 6.19918.13017 12.25285 1.07764 17.43762 2.96862-1.53246-1.59808-3.26575-3.20754-5.1181-4.82071-11.07281-6.39048-41.14456-4.86621-55.041268 4.26641 8.748448-11.70146 30.366228-17.51383 48.823568-9.3681-2.18467-1.71001-4.4286-3.40307-6.64766-5.06042-10.87782-6.54844-41.277648-5.07101-55.272784 4.12591 8.518261-11.39296 29.244394-17.21035 47.368354-9.98802-7.60756-5.24193-18.30308-7.63588-28.45064-7.63138z" fill="#ffa348" stroke-width="16.8163"/></g><g transform="matrix(2.1407779 0 0 2.1407779 74.25633 -428.05208)"><path d="m134.54102 304.18555c-11.15907.0438-21.27119 2.20074-29.05079 7.11914-3.84791 2.43264-7.184376 5.61988-9.144527 9.89062h.002c-1.882803 4.10116-2.173533 9.48736-.617187 14.35938v.002c3.547451 11.09984 4.708884 17.41879.445312 30.63477l-.04102.12695-.160157.55664.09375-.30078c-1.432318 4.35109-1.287276 6.89367 1.06836 11.25l.002.002v.002c.835127 1.54234 2.477469 3.72886 4.890629 5.12891 2.41315 1.40005 5.13356 1.88867 7.72851 1.88867 1.94597 0 4.9752-.0187 25.33985-1.28515 9.6033-.5972 15.02532-.0266 18.95898.46289 1.96683.24476 3.57899.52882 5.69922.57422s5.20589-.41193 7.70508-1.98047c4.4447-2.78958 5.49084-6.60379 6.07422-9.57617.58337-2.97239.86128-5.28542-.45313-8.89649l.0644.18164c-4.07538-12.05231-5.62654-20.79579-2.20898-31.09765 1.59029-4.79348 1.32796-10.1828-.57617-14.16797-1.99524-4.17481-5.40062-7.19729-9.29883-9.4043v-.002c-6.88712-3.89818-15.63176-5.51144-26.52148-5.46875z" fill="#994100"/><path d="m109.98274 318.41113c-2.86597 1.81186-4.9141 3.93805-5.9944 6.29179-1.08082 2.35426-1.30783 4.97787-.24871 8.29336 3.75444 11.7475 5.17314 21.10052.43842 35.77696l-.12383.42967c-.34316 1.04245-.31829 3.14801.4789 4.62227.79798 1.47373 2.03729 2.61223 5.22552 2.61223 1.93146 0 4.49448-.005 24.81681-1.26878 20.32234-1.26378 24.92287 2.51863 28.416.32627 2.47137-1.55108 2.9137-6.48542 2.18946-8.47513-4.29207-12.69312-6.3791-23.91304-2.22409-36.43789 1.0795-3.25385.85461-5.72664-.18203-7.89623-1.03664-2.16905-3.02048-4.10897-5.85391-5.71314-4.95829-2.80644-12.37985-4.41854-22.34657-4.37947-9.96672.0391-18.85937 2.19409-24.59157 5.81809z" fill="#ffa348" stroke-width="16.8163"/></g><g transform="matrix(2.1407779 0 0 2.1407779 74.25635140778 -416.59377394571)"><path d="m141.66016 363.11719c-3.89551-.10285-7.38692 1.85384-10.20293 4.37984-6.90609 5.34288-14.13415 10.29072-20.81384 15.91295-3.53992 3.3717-2.21009 8.83808-.33224 12.70718 1.73015 3.94712 5.85797 6.35497 10.13317 5.71977 10.83759.0907 21.33233 3.19964 31.42426 6.90252 9.82526 2.88541 21.03994 3.44871 30.25699-1.66669 5.98745-3.29322 11.3183-8.02118 15.00163-13.79341 2.13843-4.4241 2.56517-10.16438-.15321-14.42097-4.29939-5.55528-11.87668-5.79995-18.27497-6.55513-9.6946-1.06771-19.30687-3.41968-28.07622-7.76412-2.80303-1.2801-5.92243-1.51426-8.96264-1.42194z" fill="#994100"/><path d="m137.22636 369.75754c-6.4479 5.01121-15.50379 11.56494-21.76992 16.45365-1.2356.96361-1.63618 1.72614-1.73672 2.1246-.10055.39952-.0651.57283.2151.96785.55986.78978 2.59027 1.84229 4.60534 1.82721 14.47906-.10716 25.76777 3.35915 35.29674 7.94544 5.16731 2.48708 11.49562 2.57228 17.653 1.075 6.15686-1.49754 12.07506-4.57994 16.14752-7.98724 4.07247-3.40731 5.90815-7.04056 5.57292-8.97943-.16774-.96943-.68315-1.84944-2.3151-2.8194-1.63248-.96943-4.38256-1.85605-8.38412-2.28997-13.0683-1.41631-22.21256-3.04324-33.86667-8.62383-.88053-.42174-3.23956-1.05304-5.8334-1.05197-2.59384.001-4.46471.48762-5.58469 1.35809z" fill="#ffa348"/></g></g><g transform="translate(424.89474 -498.93426)"><path d="m-264.4084 911.44728c2.80401-.25978 5.59609-.68454 10.85153-1.47558 4.80847.46882 7.17076.75823 9.71873.99515 6.43864.59868 12.44053.19763 18.30078-1.0918 40.83204-8.98292 66.55515-50.78927 65.98828-93.95508-.2867-21.85857-8.32269-41.22433-22.2832-54.0957-10.4033-9.59256-23.50857-15.50298-37.60156-15.59375l-.11303-.002-.11133.002c-7.55931.0453-12.52982.59856-16.4043 1.45117-6.30856 1.38767-12.36494 3.62576-18.05469 6.56445l-.0293.0156-.0274.0137c-.75493.39335-1.43575.91571-2.16015 1.36719-.61564-.46693-1.1523-1.02465-1.80664-1.43946l-1.125-.71289-1.21875-.53906c-4.90549-2.17457-10.04753-3.84312-15.36133-4.91015h-.002c-4.84652-.97354-9.86276-1.57228-15.14062-1.38868h-.002c-34.58961 1.20431-62.93414 32.12212-62.42188 71.10743.57707 43.9704 30.17826 84.42116 71.07322 92.63181 5.42785 1.08984 11.36853 1.66348 17.93064 1.05565z" fill="#994100"/><path d="m-261.13409 785.59146c-.25567-5.55393 0-11.97315-6.64433-16.18516-3.76189-1.66762-7.65117-2.92226-11.61338-3.71778-3.82206-.76783-7.53597-1.16728-10.97171-1.04763-24.53118.8533-45.45409 22.18239-45.05069 52.88286.46289 35.27052 26.48529 69.16925 56.62066 75.22024 3.82136.76784 8.52428 1.1696 12.72443.78055 4.19913-.38903 7.78573-1.62804 9.71044-3.47207l2.04117-1.9557 2.1894 1.79479c1.83855 1.5131 5.65512 2.75226 9.95681 3.15224 4.30168.39998 9.06412.0668 12.76652-.74784 29.92443-6.58328 52.32187-40.70949 51.85659-76.13967-.23144-17.64534-6.61669-32.00082-16.48495-41.0992-7.40035-6.82363-16.73591-10.77094-25.51733-10.8275-6.97039.0418-9.77578.40073-12.64265 1.03161-4.70406 1.03447-9.29009 2.71869-13.66391 4.97772-7.35043 3.82983-8.48335 9.63627-8.84573 15.36284z" fill="#ffa348" stroke-width="36"/><path d="m-205.55852 778.1882c18.45054 39.66742 2.42088 86.4673-35.46979 109.18304 16.29429.8567 37.72948-17.34384 48.14952-40.59643 13.08132-29.19363 5.67465-57.48332-12.67973-68.58661z" fill="#f8efed" filter="url(#b)" opacity=".5"/><path d="m-229.21289 774.9082c-1.57137 2.6038-3.96252 4.95006-7.04883 6.86133 1.44274-11.35378 5.1881-20.20281 12.57227-32.20117l5.40429-8.78516-4.84375-9.10547c-4.30904-8.09849-11.72378-12.60513-17.79101-14.84765-5.47791-2.02501-10.33294-2.65167-14.53906-2.86719l-15.07618-.77148-3.38672 14.71093c-4.31069 18.72693-5.83609 34.39022-5.42382 51.98633-3.04224-2.14987-5.50457-4.73153-7.10742-7.66211-.71176 2.70312-.43399 5.55419 1.05859 8.32227 4.98164 9.23991 18.98969 15.19779 34.13086 12.08203.89021-.18255 1.76571-.40134 2.6289-.64063 4.23242-1.17463 8.09612-3.00258 11.59181-5.43848 4.87271-3.58095 7.77086-7.68378 7.83007-11.64355z" fill="#994100"/><path d="m-261.13409 785.59146 6.43134.0103c1.13157-16.96191 6.34532-30.29537 15.68303-45.468-1.66147-3.12259-4.60303-5.11336-8.14065-6.42065-3.04533-1.12576-6.4345-1.63052-9.21968-1.77323-4.55021 19.76749-5.68321 34.42101-4.75404 53.65158z" fill="#ffa348" stroke-width="36"/></g></svg>