<svg height="500" viewBox="0 0 500 500" width="500" xmlns="http://www.w3.org/2000/svg"><g transform="translate(-1000 -500)"><circle cx="1250" cy="750" fill="#8f29a3" r="250"/><path d="m1250.0521 500.09326-.061 248.75004-15.9199-248.2399a249.99917 250.18666 0 0 0 -31.6776 4.06945l45.0428 231.17052c-.102.0363-.2268.0547-.3789.0547l2.377 12.94521-.25-.53361-.5352-1.34279-3.3574-10.61339c-.1814.0698-.3456.12506-.5117.12506l-.1211.0782-83.1951-220.24831a249.99917 250.18666 0 0 0 -14.7401 6.13348l96.9 214.60543-.2187.11532 2.3047 4.43886 2.3437 5.21678.055.0488.416.7486.7461 1.26658v.0314l-.7461-1.29782-.4707-.79746-5.5273-9.21c-.1841.12151-.3808.23754-.5664.39678l-123.4077-200.53639a249.99917 250.18666 0 0 0 -34.1776 25.40763l164.5483 186.40079-.3984-.58052.832 1.02616v.0508l-.3262-.32448-.094-.12903v-.006-.002l-176.1809-175.46484a249.99917 250.18666 0 0 0 -21.0273 24.05115l186.5306 143.42536-.1425.18569 10.4687 8.26398-2.0957-1.07698-9.4082-5.66242c-.1395.18156-.2273.33335-.3066.47301l-208.0031-109.74966a249.99917 250.18666 0 0 0 -7 14.40723l214.5266 96.34337c-.074.17741-.1655.3791-.2578.59419l12.1758 4.73596-.037-.0253.5254.23653-.4863-.21109.3574.18179.2129.0802-.2129-.0508v-.0295l-12.8066-4.08117c-.056.14944-.1255.33501-.1758.5082l-224.9661-68.33223a249.99917 250.18666 0 0 0 -8.7656 41.69908l246.1613 30.77687h-1.2363l-246.3644-14.82161a249.99917 250.18666 0 0 0 -.4219 14.51082 249.99917 250.18666 0 0 0 .6113 17.47203l234.4934-16.18786h-.027l.3066-.0234-.2773.0234 12.9687-.73492-7.6699 1.8549-.3028.0508-4.789.9382.07.23845-228.2004 55.91086a249.99917 250.18666 0 0 0 4.2871 15.37279l224.173-70.26921c.093.36314.1859.69573.2793.95971l11.9648-4.46623-6.7285 3.52803-218.2141 100.03556a249.99917 250.18666 0 0 0 21.0155 36.99246l204.0072-139.70972-2.9414 2.38851-191.599 150.2058a249.99917 250.18666 0 0 0 21.2792 23.80097l164.7143-167.43742c.2793.26396.5666.50585.8359.80333l7.6309-8.62753v-.0314l.7578-.86587.1855-.23653.7754-.84633.02-.0645.057-.0272-.023.15832-.1035.11531.051-.18179-.068.18179-1.3203 1.73762.6133-1.0457-.1856.20916-.7578.89715-2.5996 3.67852-4.2753 5.57643.287.1818-133.9214 192.92518a249.99917 250.18666 0 0 0 13.3768 8.68037l121.3629-200.99764c.1115.0698.2562.1641.4043.23263l6.9082-11.76855-.2793.71929-100.1481 226.51466a249.99917 250.18666 0 0 0 40.1346 13.79743l59.6931-236.78211-1.5742 9.22563.2364.0566-42.7675 230.89101a249.99917 250.18666 0 0 0 31.6386 3.76263l12.9316-234.50119c.2415.0238.455.0234.6602.0234h.031v-12.36276l.055-.87175.3809 3.35211.6328 9.85892c.1939 0 .3385-.0234.5058-.0234l27.248 233.23258a249.99917 250.18666 0 0 0 15.7831-2.3455l-42.1484-231.0161c.254-.028.4739-.0916.707-.11531l-2.0644-10.71502-.055-.13878-.3203-1.79235.018.0295.3575 1.90182 74.3923 234.18055a249.99917 250.18666 0 0 0 39.205-16.19959l-111.1503-215.75097 4.1406 6.7179.2696-.18569 120.6715 201.44522a249.99917 250.18666 0 0 0 26.2108-18.10533l-145.5071-184.32505c.254-.18717.4204-.39029.6562-.60397l-8.457-9.554 3.3672 3.03156 5.8437 5.83834.2872-.30686 174.8256 156.82795a249.99917 250.18666 0 0 0 10.2715-12.18293l-184.478-145.35845c.1296-.15783.305-.33279.4082-.48083l-9.3632-7.21437 211.5852 126.78601a249.99917 250.18666 0 0 0 18.7245-38.19257l-229.6555-89.16613 11.0274 3.36579.012-.18569 223.9289 70.91228a249.99917 250.18666 0 0 0 7.6836-30.99187l-231.1887-41.80463c0-.16199.037-.30149.037-.44955l-7.3671-.90693-4.5508-.79941 12.0312.70755c.03-.32965.029-.62841.029-.96361l235.009 1.78454a249.99917 250.18666 0 0 0 .011-2.19892 249.99917 250.18666 0 0 0 -.3809-13.81303l-234.6691 13.37131v-.33226l-11.7754.81114-2.207.14075 2.1641-.14075h.043l242.6422-45.60435a249.99917 250.18666 0 0 0 -11.2772-41.04821l-231.0032 85.65376-.2598.0684 10.5078-4.79069c-.1716-.35894-.395-.80876-.6601-1.20402l208.1651-109.51534a249.99917 250.18666 0 0 0 -7.877-13.90491l-200.7337 122.63837-.2109-.32833-5.6211 3.9033-4.707 2.86542 9.6699-7.59747-.1446-.20719 183.392-147.45376a249.99917 250.18666 0 0 0 -29.3651-30.85701l-161.2514 182.96656-2.3184 2.37091 151.2905-195.53064a249.99917 250.18666 0 0 0 -26.4154-17.96062l-119.2496 202.94829-.094-.0664-7.0644 11.68841 5.539-12.45265c-.2748-.15364-.5655-.24794-.8711-.35962l83.404-220.18189a249.99917 250.18666 0 0 0 -15.121-5.19332l-69.2811 225.07807c-.1088-.0378-.2229-.0651-.3808-.11531l-1.8809 7.53882-1.1289 3.69807 2.1055-11.46558c-.2011-.0197-.4082-.0561-.6133-.0743l40.1268-232.08917a249.99917 250.18666 0 0 0 -42.4354-3.64138zm-1.9453 235.66215 1.0117 8.77021v.043l.8711 4.45646v.46128l.029-.16807.023.62741v.1036l-.057-.1036v-.43977l-.066.30686-.2383-.49451-.5625-4.74964zm-9.3652 5.00568 7.0859 6.37391-.025-.0197zm25.7675 6.02013-11.8261 2.9006h-.057zm-12.1504.11531-1.6269 2.78332-.3496.40069.1113-.44954-.092.20719-.02.18179-.051.10553v-.0253l.051-.0802v-.16221l.02-.0197v-.10556l.012-.0234.082-.12118v-.0234l.033-.0272.061-.1505v.0197l-.061.13096-.033.0508zm-6.5292.23849 3.3242 2.54682.3633.56682-.4493-.16807.2012.13878h-.022l-.2188-.13878h.037zm5.0331.24627-.2968 1.58908.2968-.84047-.3339 1.37603-.1016.1505.1387-.68606.2617-1.56758zm-.582.38505-.086 1.71808-.057.19351-.1172-.46715zm3.1445.7447-2.2754 1.58908h-.023l-.4121.27757-.2871.11728.2129-.27557.074-.0215.8867-.71342zm-4.0429.57856.1348.14075v.0469l-.084-.1251zm3.8633.31665h.029l-.1738.0802zm-3.5254.18179.1835.3577v.0392l-.1835-.35376zm.416.0938.02.26385v.0392l.039.0958.047.11728-.047.0215-.039-.1192.039-.0197-.039-.0605v-.0352l-.057-.26192zm2.2207.0644-.07.0272-1.0156.30686.1562-.0605zm-5.6387.0665 2.3692.40655.3457.21498.029.0606-.3124.0644zm2.1641.31271h.053l.094.0314zm.7265.19155h.02v.0196zm-.164.0606h.02l.074.0802zm.2148.1818h.024l-.024.0314zm-.3359.16808h.057l.2461.0352-.8125.32836zm-.3887.0352h.2168l-.9316.47886.2637-.0527-.025.0272-.2383.0253-2.0253.39287v.0234l-5.2422.93428 5.2422-.95774zm1.7774.0234.5078.043.7519.2228-.8457-.0841zm-.2188.16418.035.0178.1113.22088.3282.16611 1.4394 1.4034-1.3496-1.00858-.2344-.2971-.1855-.26385-.018-.0333-.092-.18766h-.035zm-1.0625.0802-.25.27364h-.029l-2.7812 1.26461 2.2988-1.41316zm1.5703.0997.1485.0253.031.0314zm.2207.0253 1.9356.60398-1.9063-.57074zm-1.1796.17201.031.1251.022-.0978-.022.13092v.006l.076.23066.125 1.89594-.2324-1.35256.031-.77402-.088.50819v-.0919l-.031-.18569.031.14272v-.26385zm.7226.0919.061.0664.088.14661-.037-.0314zm-1.1406.1818-.2442.52578-3.9492 12.85138 3.9219-12.85138h.027l.084-.28732.01-.0117zm-.088.10552-.065.11339.041-.0978zm1.4648.0802.033.0234.1152.18962-.092-.0919zm-.4375.21306.023.0295.029.22669zm-1.7304.26581v.0295l.051-.0295zm2.2929 1.35257 4.8828 10.7893-4.8828-10.73457z" fill="#aa40bf"/></g><path d="m93.069925 16.3793c-.829684.375065-1.646651.776143-2.436577 1.19174-6.637814 3.496657-12.107154 8.547547-16.855718 16.894146l74.72142 126.259234c-5.00195 4.02538-9.8617 8.16181-14.53764 12.44321l-103.070337-100.075235c-5.26717 1.020963-11.850752 5.182715-16.85818 11.49326-5.2990256 6.678144-8.5584526 15.206385-8.2974246 22.505645l99.7103916 97.96863c-3.65654 5.21805-7.014624 10.66395-10.026374 16.39244l-79.21495-40.58425c-10.7997496 5.51526-19.1081117 20.53942-15.23984576 33.61033 7.46560116 3.36444 74.52212376 33.88098 114.52045976 64.19629 12.86629 9.75249 35.57635 25.07417 48.04892 35.13337 7.54021 6.08266 18.27186 11.39853 28.75485 13.20654 10.48367 1.80771 20.30021.34243 28.11112-6.1201l66.78377-55.23047c3.24914-2.68686 4.5352-6.47268 5.22659-12.12855.68933-5.65328.40624-12.53059 1.59872-19.48917 4.57461-26.71157 10.5075-66.86114 43.05262-111.10606-6.46484-9.31529-12.57754-14.27713-17.70203-16.00213-5.8146-1.9586-11.17315-.89498-17.77134 3.37377-11.36412 7.34933-24.05527 24.932-35.53095 46.3439-.70339 1.45571-1.37168 2.91329-2.02532 4.36903l-23.62951-39.13051-19.42518-118.0950783c-5.28948-3.57569915-13.40021-4.67519426-21.6792-3.09530115-8.1548 1.55726525-15.69616 5.80372095-19.92017 10.42373445l20.14891 112.997715c-5.8254 3.95642-11.64907 7.9202-17.43309 11.90824l-68.90001-125.354138c-7.55771 1.406146-14.318794 3.073773-20.122889 5.698477z" fill="#eed9f2" opacity=".9"/><path d="m203.83008 149.26953-3.57032 22.21875-.008.0527-1.53711 9.9375-.002.0156c-14.98735 98.06295 13.54114 202.71799 85.43554 298.4375l15.07446 20.06842 20.60352-14.36328.0156-.01c97.62583-68.33664 158.23895-158.6881 174.74221-256.70875v-.004l5.41602-32.13867-32.57617 1.89063c-66.28563 3.85587-171.7917-12.89153-233.39063-37.38672h-.002z" fill="#6a1f7a"/><path d="m218.04019 174.2924-1.53434 9.92162c-14.18708 92.82673 12.53217 192.37332 82.03416 284.9076l4.64054 6.17776 6.33844-4.41855c94.40884-66.08503 151.70727-152.24355 167.31541-244.95421l1.66345-9.87323-10.02884.58228c-70.17868 4.08234-175.7674-12.65483-241.08819-38.63051l-9.34036-3.71444z" fill="#eed9f2" stroke-width="36"/><path d="m242.2868 206.27262 9.31333 3.71012c49.646 19.74058 130.49698 32.5598 183.8455 29.45829l10.02742-.58425-1.66176 9.8735c-12.04511 71.55003-56.28707 137.96093-128.92125 188.80349l-6.31057 4.42302-4.64054-6.17776c-53.47647-71.19428-74.13402-147.95409-63.18718-219.58578l1.53518-9.92147z" fill="#8f29a3"/><path d="m426.16798 255.61294c-52.54409 1.30854-121.28181-9.58097-170.81159-27.34385-6.85061 62.16124 11.28254 128.34304 56.74263 191.53883 62.63951-45.78111 101.06992-103.00681 114.06994-164.19569z" fill="#eed9f2"/></svg>