<svg height="500" viewBox="0 0 500 500" width="500" xmlns="http://www.w3.org/2000/svg" xmlns:xlink="http://www.w3.org/1999/xlink"><filter id="a" color-interpolation-filters="sRGB" height="1.066987" width="1.092663" x="-.046331" y="-.033493"><feGaussianBlur stdDeviation="8.797895"/></filter><filter id="b" color-interpolation-filters="sRGB" height="1.070471" width="1.068298" x="-.034149" y="-.035235"><feGaussianBlur stdDeviation="2.4781495"/></filter><g transform="translate(0 -1000)"><path d="m0 1250a250 250 0 0 1 -250 250 250 250 0 0 1 -250-250 250 250 0 0 1 250-250 250 250 0 0 1 250 250z" fill="#9db3df" stroke-linecap="round" stroke-linejoin="round" stroke-width="9.39799" transform="scale(-1 1)"/><path d="m263.85417 1289.4759c11.1612 3.7204 14.8816-7.4408 18.46913-11.0283 7.04219-8.7696 15.28021-26.0428 14.48299-54.6102-10.49685-61.1209-92.21278-68.5617-125.69638-20.1965-11.1612 18.602-11.1612 33.4836-14.8816 52.0856 0 29.7632 14.8816 52.0856 40.9244 70.6876 11.1612 11.1612 26.0428 11.1612 37.204 14.8816 70.6876 11.1612 130.214-48.3652 119.0528-119.0528-7.4408-29.7632-22.3224-59.5264-48.3652-78.1284-44.6448-29.7632-96.7304-29.7632-137.6548-3.7204-18.602 11.1612-29.7632 22.3224-40.9244 40.9244-63.2468 100.4508 26.0428 219.3708 133.9344 208.2096 22.3224 0 40.9244-11.1612 63.2468-18.602 22.3224-14.8816 44.6448-37.204 59.5264-59.5264 40.92441-78.1284 7.4408-171.0056-66.9672-215.6504-26.0428-11.1612-52.0856-22.3224-81.8488-22.3224-37.204 0-70.6876 11.1612-100.4508 33.4836-33.4836 26.0428-52.0856 59.5264-66.9672 96.7304-7.4408 14.8816-3.7204 33.4836-7.4408 52.0856 0 119.0528 126.4936 215.6504 241.69313 174.726 29.7632-14.8816 63.2468-26.0428 89.2896-52.0856 22.3224-29.7632 44.6448-59.5264 52.0856-96.7304 3.7204-26.0428 7.4408-44.6448 3.7204-70.6876-18.602-152.5364-189.60753-234.25236-319.82153-156.2568-22.3224 14.8816-44.6448 29.7632-59.5264 52.0856-29.7632 37.204-44.6448 74.408-52.0856 119.0528-18.602 137.6548 96.7304 260.2951 230.53193 260.2951 29.7632 0 63.2468-11.1612 93.01-18.602 37.204-14.8816 70.6876-33.4836 96.7304-66.9672 18.602-26.0428 29.7632-52.0856 44.6448-81.8488 11.1612-33.4836 18.602-70.6876 14.8816-104.1712-7.4408-44.6448-18.602-85.5692-44.6448-119.0528 96.59753 111.7449 44.51193 297.7649-81.8488 364.7321-22.3224 14.8816-48.3652 18.602-70.6876 26.0428-89.2896 22.3224-178.44633-14.8816-234.25233-78.1284-14.8816-14.8816-18.602-33.4836-29.7632-52.0856-48.3652-70.6876-33.4836-152.5364 3.7204-226.8116 52.0856-89.2896 159.9772-130.21396 264.01553-100.4508 63.2468 18.602 115.3324 63.2468 141.3752 126.4936 7.4408 29.7632 14.8816 59.5264 14.8816 89.2896 0 37.204-11.1612 70.6876-29.7632 104.1712-14.8816 22.3224-26.0428 40.9244-48.3652 55.806-18.602 11.1612-33.4836 18.602-52.0856 29.7632-33.4836 11.1612-70.6876 18.602-111.612 14.8816-122.7732-18.602-200.76873-148.816-156.2568-267.7359 14.8816-29.7632 29.7632-59.5264 55.806-78.1284 55.806-40.9244 119.0528-52.0856 185.88713-29.7632 100.4508 40.9244 148.816 156.2568 89.2896 245.4135-11.1612 18.602-18.602 33.4836-33.4836 48.3652-55.806 40.9244-130.214 55.806-189.60753 18.602-14.8816-14.8816-33.4836-18.602-44.6448-37.204-44.6448-66.9672-44.6448-156.2568 18.602-211.9299 63.2468-55.806 174.72593-40.9244 215.65033 37.204 7.4408 22.3224 18.602 40.9244 14.8816 66.9672 0 22.3224-11.1612 40.9244-14.8816 59.5264-26.0428 55.806-96.7304 74.408-152.5364 55.806-18.602-11.1612-40.9244-18.602-52.0856-37.204-48.3652-70.6876-7.4408-178.4463 85.5692-174.7259 22.3224 0 44.6448 14.8816 63.2468 26.0428 29.7632 22.3224 33.4836 55.806 29.7632 89.2896-11.1612 48.3652-63.2468 70.6876-111.612 59.5264-22.3224-7.4408-37.204-29.7632-44.6448-52.0856-3.7204-26.0428 3.7204-48.3652 22.3224-66.9672 33.4836-33.4836 89.2896-7.4408 96.7304 37.204-3.7204 18.602-14.8816 37.204-29.7632 52.0856" fill="#c6d2ec" opacity=".9"/><path d="m262.92407 1285.7555c10.2311 3.4546 13.68576-6.7765 17.00754-10.0982 6.37783-7.8395 13.9515-23.6512 13.15428-49.9597-9.56675-56.2046-84.77198-62.9811-115.59815-18.602-10.2311 17.1404-10.2311 30.6933-13.68576 47.8337 0 27.3715 13.68576 47.8337 37.60262 64.9741 10.2311 10.2311 23.91686 10.2311 34.14796 13.6858 64.97413 10.2311 119.58428-44.3791 109.35318-109.3532-6.77644-27.3715-20.4622-54.743-44.37905-71.7506-41.05728-27.3715-88.89099-27.3715-126.49361-3.4546-17.14041 10.2311-27.37151 20.4622-37.60261 37.6026-58.06482 92.3456 23.91686 201.6988 123.03894 191.3349 20.4622 0 37.60262-10.2311 58.06482-17.1405 20.4622-13.6857 41.05727-34.1479 54.74303-54.743 37.60261-71.7506 6.77644-157.1869-61.51947-198.2442-23.91686-10.2311-47.83372-20.4622-75.20523-20.4622-34.14796 0-64.97413 10.2311-92.21278 30.8262-30.6933 23.9169-47.83371 54.743-61.51947 88.891-6.77644 13.6858-3.45466 30.6933-6.77644 47.8337 0 109.3532 116.2625 198.2442 222.16103 160.6416 27.37151-13.6858 58.06481-23.9169 81.98167-47.8337 20.4622-27.3716 41.05727-54.7431 47.83372-88.891 3.45465-23.9169 6.77644-41.0573 3.45465-64.9742-17.14041-140.0464-174.32731-215.25168-293.9116-143.5011-20.4622 13.6858-41.05727 27.3715-54.74303 47.8337-27.37151 34.148-41.05727 68.2959-47.83371 109.3532-17.14042 126.4936 88.89098 239.3014 211.92993 239.3014 27.37151 0 58.06481-10.2311 85.43633-17.1404 34.14795-13.6857 64.97413-30.8261 88.89098-61.5194 17.14042-23.9169 27.37152-47.8338 41.05728-75.2053 10.2311-30.6933 17.14041-64.9741 13.68575-95.6674-6.77644-41.0573-17.14041-78.6599-41.05727-109.3532 88.89099 102.5768 41.05727 273.4494-75.20523 334.9689-20.4622 13.6857-44.37906 17.1404-64.97413 23.9168-81.98167 20.4622-164.09621-13.6857-215.25171-71.7505-13.68576-13.6858-17.14042-30.6933-27.37152-47.8337-44.37906-64.9742-30.6933-140.1794 3.45466-208.4753 47.83371-81.9817 146.9558-119.5843 242.62323-92.2128 58.06481 17.1404 105.89853 58.0648 129.81539 116.2625 6.77644 27.3715 13.68575 54.743 13.68575 81.9817 0 34.1479-10.2311 64.9741-27.37151 95.6674-13.68576 20.4622-23.91686 37.6026-44.37906 51.2884-17.14041 10.2311-30.6933 17.1404-47.83371 27.3715-30.82617 10.2311-64.97413 17.1404-102.57675 13.6858-112.80784-17.1405-184.55841-136.7247-143.50114-246.0779 13.68576-27.3715 27.37151-54.7431 51.28837-71.7506 51.28837-37.6026 109.35319-47.8337 170.87266-27.3715 92.21277 37.6026 136.7247 143.5011 81.98167 225.6157-10.2311 17.1404-17.14041 30.6933-30.82617 44.379-51.28837 37.6026-119.58429 51.2884-174.32732 17.1404-13.68575-13.6857-30.82617-17.1404-41.05727-34.1479-41.05727-61.5195-41.05727-143.5012 17.14042-194.7895 58.19768-51.5541 160.77443-37.8684 198.37704 33.8822 6.77644 20.4622 17.14042 37.6026 13.68576 61.5195 0 20.4622-10.2311 37.6026-13.68576 54.743-23.91686 51.2884-88.89099 68.2959-140.17936 51.2884-17.14041-10.2311-37.60261-17.1405-47.83371-34.148-44.37906-64.9741-6.77644-164.0962 78.65988-160.6416 20.4622 0 41.05728 13.6858 58.06482 23.9169 27.37151 20.4622 30.6933 51.2884 27.37151 81.9817-10.2311 44.379-58.06481 64.9741-102.57674 54.743-20.4622-6.7764-34.14796-27.3715-41.05727-47.8337-3.45466-23.9169 3.45466-44.3791 20.4622-61.5195 30.6933-30.8262 81.98167-6.7764 88.89099 34.148-3.45466 17.1404-13.68576 34.1479-27.37152 47.8337" fill="#ecf0f9" opacity=".9"/><path d="m226.91591 1287.6157c5.31486 10.4968 15.8117 5.3148 20.86082 5.3148 10.62971-1.0629 28.56735-7.4408 48.23233-28.3016 35.87528-50.624-16.7418-113.7379-74.54088-103.2411-20.99368 5.3149-31.49052 15.8117-47.30222 26.3086-20.99369 20.9937-26.30855 47.3022-20.99369 78.9256 0 15.8117 10.49684 26.3085 15.8117 36.8054 42.12024 57.7991 126.22786 57.7991 168.3481 0 15.8117-26.3086 26.30854-57.7991 20.99369-89.4225-10.49685-52.6171-47.30223-89.4225-94.60446-99.9193-20.99369-5.3149-36.80539-5.3149-57.79907 0-115.73102 26.3085-136.7247 173.5301-52.61709 241.9589 15.8117 15.8117 36.80539 20.9937 57.79907 31.4905 26.30855 5.3149 57.79907 5.3149 84.10762 0 84.10761-26.3085 126.22786-115.731 105.23417-199.8386-10.49684-26.3086-20.99369-52.6171-42.12024-73.6108-26.30855-26.3085-57.79907-42.1202-94.60446-47.3022-42.12024-5.3149-78.92563 5.3148-115.73102 20.9937-15.8117 5.3148-26.30854 20.9936-42.12024 31.4905-84.10761 84.1076-63.11393 241.9589 47.30223 294.5759 31.49053 10.4969 63.11393 26.3086 99.91931 26.3086 36.80539-5.3149 73.61078-10.4969 105.23418-31.6234 20.99368-15.8117 36.80538-26.3086 52.61708-47.3022 94.60446-120.913 31.49053-299.758-115.73101-336.5634-26.30855-5.3148-52.61709-10.4968-78.92563-5.3148-47.30223 5.3148-84.10762 20.9937-120.913 47.3022-110.41616 84.1076-115.73102 252.4557-20.99369 347.0602 20.99369 20.9937 52.61709 36.8054 78.92563 52.6171 36.80539 15.8117 73.61077 26.3085 115.73102 20.9936 31.49053-5.3148 57.79907-15.8117 89.42247-26.3085 31.49053-15.8117 63.11393-36.8054 84.10761-63.1139 26.30855-36.8054 47.30223-73.6108 52.61709-115.731-10.76259 147.4872-179.11069 242.2246-315.83539 200.1043-26.30854-5.3148-47.30223-20.9937-68.42879-31.4905-78.92562-47.3022-115.73101-136.7247-110.41615-220.8323 0-20.9937 10.49684-36.8054 15.8117-57.7991 15.8117-84.1076 84.10761-131.5427 163.03324-157.7184 99.91932-26.30852 205.15349 20.9937 257.77058 115.731 31.49052 57.7991 36.80538 126.2279 10.49684 189.3418-15.8117 26.3086-31.49053 52.6171-52.61709 73.6108-26.30854 26.3085-57.79907 42.1202-94.60446 52.6171-26.30854 5.3148-47.30223 10.4968-73.61077 5.3148-20.99368-5.3148-36.80538-10.4968-57.79907-15.8117-31.49053-15.8117-63.11393-36.8053-89.42247-68.4287-73.61078-99.9194-36.80539-247.1409 78.92563-299.758 31.49053-10.4968 63.11393-20.9937 94.60445-15.8117 68.42879 10.4969 120.91301 47.3022 152.53641 110.4162 42.12024 99.9193-5.31486 215.6503-110.41616 236.644-20.99369 5.3148-36.80539 10.4968-57.79907 10.4968-68.42879-10.4968-131.54272-52.6171-147.22155-120.913 0-20.9937-10.49684-36.8054-5.31486-57.799 15.8117-78.9257 78.92563-142.0396 163.03325-136.7247 84.10761 5.3148 152.5364 94.6044 126.22786 178.8449-10.49685 20.9937-15.8117 42.1202-36.80539 57.7991-15.8117 15.8117-36.80538 20.9937-52.61708 31.4905-57.79908 20.9937-120.91301-15.8117-147.22155-68.4288-5.31486-20.9937-15.8117-42.1202-10.49684-63.1139 15.8117-84.1076 120.913-131.5427 184.02693-63.1139 15.67883 15.6788 20.86081 41.9873 26.17567 62.981 5.31486 36.8054-15.8117 63.1139-42.12024 84.1076-42.12025 26.3086-94.60446 5.3149-120.913-36.8054-10.49685-20.9936-5.31486-47.3022 5.31485-68.4287 15.8117-20.9937 36.80539-31.4906 63.11393-31.4906 23.98451 0 41.23931 14.86 48.993 34.3086 7.53814 18.9078 6.09609 42.1526-6.87275 60.2959-15.81171 10.4968-36.80539 15.8117-57.79908 15.8117" fill="#fff" opacity=".9"/></g><path d="m74.181633 109.15592 14.674644 31.27821-34.851332-18.83529c2.912111-8.0017 10.548334-13.09876 20.17714-12.44238zm52.150557 5.86027c7.97495 5.43518 10.8294 14.16211 8.17197 22.25106l-9.03356-4.94758-18.44811 7.07021 9.22516-12.29327-5.52562-3.95237 15.61021-8.12854zm-33.60059 6.30674 11.94786 3.26339-7.642598 18.34721zm-10.848722 28.62586-1.644629 10.87429 11.303825 2.29211-21.934104 25.25723c-17.21728-3.36337-24.963129-19.87572-15.950812-37.42288l28.225821-1.00178zm15.096735 10.94122 25.162267 10.82103c.47505 5.77512-2.37312 10.12321-7.88161 11.57536l3.46998 4.6513c-3.00167 6.3452-9.17147 8.44575-16.19689 4.61447l-.16503-24.17957zm77.923417-64.516972c7.36462 8.942002 15.1869 17.240692 22.81494 24.056772-5.32282 1.04474-10.59373 3.49155-15.16928 7.04307-12.98785 10.1038-17.21611 26.39311-9.4438 36.38397 7.77196 9.99041 24.60122 9.89895 37.58907-.20485 12.98784-10.1038 17.21574-26.39358 9.44378-36.38399-13.7949-15.57791-27.59554-28.936744-39.66715-42.840685zm-23.81123-70.695304c-20.32149.123188-40.26085 3.791495-51.138675 8.515625-8.070267 24.715599-15.119741 35.670442-9.622674 65.808051l15.437499 17.28125c-3.53292-28.182639-4.05091-26.454523-.891-55.284613 21.63303-4.424469 44.39959-9.983529 65.71289-6.140625-1.18949 10.970642-1.623 22.77757-1.30078 34.357422l11.72852-6.009766c-.99066-18.386438-.28136-36.140671 5.19336-54.380859-10.59534-3.017829-22.92578-4.220398-35.11914-4.146485zm3.12695 8.958985c6.70202-.04183 13.35706.403705 19.58008 1.464843-.67896 2.978868-1.27917 6.112933-1.8086 9.359376-21.72297-3.231546-45.02187.794174-65.50781 5.533203.53034-2.862887 1.1559-5.706445 1.87696-8.527344 11.30008-4.422177 28.73217-7.723506 45.85937-7.830078z" fill="#fff" filter="url(#b)"/><path d="m312.64641 51.371094c-11.88149-.09254-24.96253 2.962686-36.71289 10.738281v-.002c-19.28668 12.760566-31.91436 28.063425-37.86523 44.712885-5.95087 16.64947-5.02728 33.53753-1.42188 48.72656 6.95189 29.28733 22.83996 55.198 29.4375 74.35743-61.46283 15.43738-108.64271 28.70928-169.695305 28.88476-8.17392-1.15548-12.53094-2.85462-17.64063-5.41601-5.356195-2.68496-11.917813-6.905-21.765623-11.15039l-34.851563-15.02539 10.417969 36.49609c6.675981 23.3867 7.280568 44.28173 14.078125 66.54492s21.854564 44.39207 52.068362 62.11328l.66015.38867.691415.33008c20.67746 9.87158 42.56908 18.39015 64.99218 25.25196l-.18554 31.20117c-8.69064 5.84179-16.23187 13.57917-22.07618 22.95703l-17.15039 27.51958-93.078122 181.79051h400.735482l-102.17494-181.79051-30.72851-30.72852c-11.78202-11.78201-28.68494-25.35528-52.47461-31.125l.0234-3.64648c3.80058.29963 7.60877.69085 11.39648.85547 54.24704 2.3576 107.66298-9.66727 148.27735-44.93945 20.48166-17.78763 27.99958-45.0482 30.46289-70.64649s1.16716-49.23777-11.17969-67.44726v-.002c-10.18014-15.01295-27.52578-30.18343-38.14254-39.5898l-7.66211-6.78906c.0576-.75189.16817-2.10063.83008-4.0918.54495-1.63932 1.41204-3.48424 2.2793-5.30274l69.67773-7.01171 3.57422-2.2461c7.18021-4.51165 14.62473-8.83803 19.07422-20.71679 2.22474-5.93938 1.98261-15.89315-2.84571-22.55469-4.82831-6.66155-11.11784-9.33572-17.23242-11.07422l-1.21289-.34375-59.75-8.25391c-1.52053-12.53816-6.89247-24.09854-13.24219-33.941403-9.60122-14.883124-20.60982-26.853397-36.46875-32.226563h-.002c-9.4056-3.187122-20.4504-6.707988-33.11719-6.80664z" fill="#7896d3" filter="url(#a)"/><path d="m312.64641 51.371094c-11.88149-.09254-24.96253 2.962686-36.71289 10.738281v-.002c-19.28668 12.760566-31.91436 28.063425-37.86523 44.712885-5.95087 16.64947-5.02728 33.53753-1.42188 48.72656 6.95189 29.28733 22.83996 55.198 29.4375 74.35743-61.46283 15.43738-108.64271 28.70928-169.695305 28.88476-8.17392-1.15548-12.53094-2.85462-17.64063-5.41601-5.356195-2.68496-11.917813-6.905-21.765623-11.15039l-34.851563-15.02539 10.417969 36.49609c6.675981 23.3867 7.280568 44.28173 14.078125 66.54492s21.854564 44.39207 52.068362 62.11328l.66015.38867.691415.33008c20.67746 9.87158 42.56908 18.39015 64.99218 25.25196l-.18554 31.20117c-8.69064 5.84179-16.23187 13.57917-22.07618 22.95703l-17.15039 27.51958-44.48856 86.89043h298.80755l-48.83657-86.89043-30.72851-30.72852c-11.78202-11.78201-28.68494-25.35528-52.47461-31.125l.0234-3.64648c3.80058.29963 7.60877.69085 11.39648.85547 54.24704 2.3576 107.66298-9.66727 148.27735-44.93945 20.48166-17.78763 27.99958-45.0482 30.46289-70.64649s1.16716-49.23777-11.17969-67.44726v-.002c-10.18014-15.01295-27.52578-30.18343-38.14254-39.5898l-7.66211-6.78906c.0576-.75189.16817-2.10063.83008-4.0918.54495-1.63932 1.41204-3.48424 2.2793-5.30274l69.67773-7.01171 3.57422-2.2461c7.18021-4.51165 14.62473-8.83803 19.07422-20.71679 2.22474-5.93938 1.98261-15.89315-2.84571-22.55469-4.82831-6.66155-11.11784-9.33572-17.23242-11.07422l-1.21289-.34375-59.75-8.25391c-1.52053-12.53816-6.89247-24.09854-13.24219-33.941403-9.60122-14.883124-20.60982-26.853397-36.46875-32.226563h-.002c-9.4056-3.187122-20.4504-6.707988-33.11719-6.80664z" fill="#fff" filter="url(#b)"/><path d="m312.64638 51.371094c-12.73959.521518-24.9625 2.962686-36.71286 10.737281-19.28668 12.759566-31.91436 28.062425-37.86523 44.711885-5.95087 16.64947-5.02728 33.53753-1.42188 48.72656 6.95189 29.28733 22.83996 55.198 29.4375 74.35743-61.46283 15.43738-108.64271 28.70928-169.695305 28.88476-8.17392-1.15548-12.53094-2.85462-17.64063-5.41601-5.356195-2.68496-11.917813-6.905-21.765623-11.15039l-34.851563-15.02539 10.417969 36.49609c6.675981 23.3867 7.280568 44.28173 14.078125 66.54492s21.854564 44.39207 52.068362 62.11328l.66015.38867.691415.33008c20.67746 9.87158 42.56908 18.39015 64.99218 25.25196l-.18554 31.20117c-8.69064 5.84179-16.23187 13.57917-22.07618 22.95703l-17.15039 27.51958h205.48242l-30.72851-30.72852c-11.78202-11.78201-28.68494-25.35528-52.47461-31.125l.0234-3.64648c3.80058.29963 7.60877.69085 11.39648.85547 54.24704 2.3576 107.66298-9.66727 148.27735-44.93945 20.48166-17.78763 27.99958-45.0482 30.46289-70.64649s1.16716-49.23777-11.17969-67.44726v-.002c-10.18014-15.01295-27.52578-30.18343-38.14254-39.5898l-7.66211-6.78906c.0576-.75189.16817-2.10063.83008-4.0918.54495-1.63932 1.41204-3.48424 2.2793-5.30274l69.67773-7.01171 3.57422-2.2461c7.18021-4.51165 14.62473-8.83803 19.07422-20.71679 2.22474-5.93938 1.98261-15.89315-2.84571-22.55469-4.82831-6.66155-11.11784-9.33572-17.23242-11.07422l-1.21289-.34375-59.75-8.25391c-1.52053-12.53816-6.89247-24.09854-13.24219-33.941403-9.60122-14.883124-20.60982-26.853397-36.46975-32.226563-9.4066-3.187122-21.85746-7.267617-33.11817-6.80664z" fill="#7896d3"/><path d="m285.86614 77.119703c-67.6062 44.729997-16.3386 103.472997-1.8234 149.558397 10.6938 2.475 23.4612 3.1464 36.5166 1.6074 15.3108-1.8054 30.9114-6.5358 44.1198-13.8285-5.562-10.5012 3.258-26.64 8.1315-34.8552l75.0564-7.5528c10.8972-6.8472 19.3374-17.3313 3.6495-21.7917l-74.5965-10.3032c6.3117-25.488-20.1627-59.047197-36.9315-64.727997-8.9082-3.0186-18.3537-5.7843-27.48285-5.8554s-17.88345 1.9548-26.63955 7.749zm52.2081 36.535497c7.4574 0 13.5 6.0444 13.5 13.5 0 7.4565-6.0426 13.5-13.5 13.5-7.4547 0-13.5-6.0435-13.5-13.5 0-7.4556 6.0453-13.5 13.5-13.5zm-15.615 130.7187c-12.8376 1.5138-25.5348 1.35-37.1547-.738-69.3135 17.0055-120.591 33.1884-190.116005 33.1884-21.788995-2.8035-28.454395-10.7964-45.331195-18.072 14.6133 51.192 3.3678 86.0634 57.9438 118.0737 94.6305 45.1773 215.51843 62.94777 288 0 29.07874-25.25389 30.4542-93.3615 16.1874-114.4026-7.443-10.9764-24.8904-27.1026-35.18055-36.2196-16.28415 10.0107-35.50095 15.9489-54.34875 18.1701zm28.3122 31.5738c.2475 25.2648-12.0042 45.8712-30.222 60.336-18.216 14.4666-42.264 23.4432-67.5117 27.8325-25.2477 4.3884-51.7437 4.1517-75.1482-.6453s-43.9686-14.0238-56.583-29.241l12.4704-10.3383c8.9964 10.8522 26.2422 19.377 47.367 23.7078 21.123 4.329 45.8766 4.5963 69.12.5553s44.9298-12.4236 60.2118-24.5583 24.2946-27.3672 24.0966-47.4885l16.1973-.1602zm-167.9805 184.0428c-10.1547 4.5117-18.225 11.5596-24.7374 22.0095h129.6c-13.4028-13.4028-30.0672-26.8407-57.8466-28.5993l.1692-26.2107c-5.2974-.504-10.7208-1.125-16.1874-1.854l-.1836 28.1385c-5.1966.2925-10.053.828-14.5845 1.6596l.189-32.0094c-5.5152-.9396-10.9584-1.9746-16.1802-3.1266z" fill="#fff" stroke-width="36"/><path d="m74.181633 109.15592 14.674644 31.27821-34.851332-18.83529c2.912111-8.0017 10.548334-13.09876 20.17714-12.44238zm52.150557 5.86027c7.97495 5.43518 10.8294 14.16211 8.17197 22.25106l-9.03356-4.94758-18.44811 7.07021 9.22516-12.29327-5.52562-3.95237 15.61021-8.12854zm-33.60059 6.30674 11.94786 3.26339-7.642598 18.34721zm-10.848722 28.62586-1.644629 10.87429 11.303825 2.29211-21.934104 25.25723c-17.21728-3.36337-24.963129-19.87572-15.950812-37.42288l28.225821-1.00178zm15.096735 10.94122 25.162267 10.82103c.47505 5.77512-2.37312 10.12321-7.88161 11.57536l3.46998 4.6513c-3.00167 6.3452-9.17147 8.44575-16.19689 4.61447l-.16503-24.17957zm77.923417-64.516972c7.36462 8.942002 15.1869 17.240692 22.81494 24.056772-5.32282 1.04474-10.59373 3.49155-15.16928 7.04307-12.98785 10.1038-17.21611 26.39311-9.4438 36.38397 7.77196 9.99041 24.60122 9.89895 37.58907-.20485 12.98784-10.1038 17.21574-26.39358 9.44378-36.38399-13.7949-15.57791-27.59554-28.936744-39.66715-42.840685zm-23.81123-70.695304c-20.32149.123188-40.26085 3.791495-51.138675 8.515625-8.070267 24.715599-15.119741 35.670442-9.622674 65.808051l15.437499 17.28125c-3.53292-28.182639-4.05091-26.454523-.891-55.284613 21.63303-4.424469 44.39959-9.983529 65.71289-6.140625-1.18949 10.970642-1.623 22.77757-1.30078 34.357422l11.72852-6.009766c-.99066-18.386438-.28136-36.140671 5.19336-54.380859-10.59534-3.017829-22.92578-4.220398-35.11914-4.146485zm3.12695 8.958985c6.70202-.04183 13.35706.403705 19.58008 1.464843-.67896 2.978868-1.27917 6.112933-1.8086 9.359376-21.72297-3.231546-45.02187.794174-65.50781 5.533203.53034-2.862887 1.1559-5.706445 1.87696-8.527344 11.30008-4.422177 28.73217-7.723506 45.85937-7.830078z" fill="#7896d3"/></svg>