<svg height="500.0004" viewBox="0 0 500 500.0004" width="500" xmlns="http://www.w3.org/2000/svg"><g transform="translate(-500 -500)"><path d="m999.99997 750a249.99997 250 0 0 1 -249.99997 250 249.99997 250 0 0 1 -249.99997-250 249.99997 250 0 0 1 249.99997-250 249.99997 250 0 0 1 249.99997 250z" fill="#ffe24c"/><path d="m1000 750.00632-194.05817-2.60063 192.98367-20.4591-193.45987 15.31075 190.28547-38.19139-191.22567 33.10816 185.92267-55.58184-187.34707 50.61663 180.01317-72.50831-181.88127 67.68555 172.56127-88.82024-174.86477 84.18876 163.62798-104.35075-166.35478 99.94311 153.30278-119.00625-156.40808 114.88758 141.65488-132.65651-145.14668 128.82271 128.82258-145.14278-132.65648 141.65492 114.88758-156.42029-119.00218 153.31093 99.94719-166.3385-104.34669 163.60764 84.17649-174.84041-88.81609 172.54909 67.67739-181.89345-72.48799 180.02133 50.6167-187.35925-55.5941 185.94294 33.1-191.23373-38.1995 190.27732 15.3474-193.45586-20.4957 192.97968-2.59249-194.05413-2.5681 194.05413-20.4916-192.97968 15.327 193.45586-38.2004-190.27732 33.1171 191.23373-55.5936-185.94294 50.6162 187.35925-72.51029-180.02133 67.69979 181.89345-88.81699-172.54909 84.17729 174.84041-104.36289-163.60764 99.96869 166.3385-119.00618-153.31093 114.86968 156.42029-132.64018-141.65492 128.81968 145.14278-145.14988-128.82271 141.67318 132.65651-156.42638-114.88758 153.29788 119.00625-166.34218-99.94311 163.62828 104.35075-174.86477-84.18876 172.54667 88.82024-181.87387-67.68555 180.00617 72.50831-187.35587-50.61663 185.94077 55.58184-191.21897-33.10816 190.28097 38.19139-193.47947-15.31075 192.98647 20.4591-194.04384 2.60063 194.04384 2.58435-192.98647 20.46723 193.47947-15.31481-190.28097 38.20361 191.21897-33.12445-185.94077 55.58997 187.35587-50.60849-180.00617 72.5083 181.87387-67.68553-172.54667 88.81211 174.86477-84.17656-163.62828 104.33851 166.34218-99.95936-153.29788 119.0103 156.42638-114.87941-141.67318 132.66054 145.14988-128.83082-128.81968 145.13868 132.64018-141.66304-114.86968 156.42028 119.00618-153.28243-99.96869 166.32222 104.36289-163.59543-84.17729 174.84852 88.81699-172.55719-67.69979 181.8975 72.51029-180.02538-50.6162 187.35108 55.5936-185.93884-33.1171 191.21336 38.2004-190.26101-15.327 193.47618 20.4916-192.99594 2.5681 194.05003 2.59249-194.05003 20.4957 192.99594-15.3474-193.47618 38.1995 190.26101-33.1-191.21336 55.5941 185.93884-50.6167-187.35108 72.48799 180.02538-67.67739-181.8975 88.81609 172.55719-84.17649-174.84852 104.34669 163.59543-99.94719-166.32222 119.00218 153.28243-114.88758-156.42028 132.65648 141.66304-128.82258-145.13868 145.14668 128.83082-141.65488-132.66054 156.40808 114.87941-153.30278-119.0103 166.35478 99.95936-163.62798-104.33851 174.86477 84.17656-172.56127-88.81211 181.88127 67.68553-180.01317-72.5083 187.34707 50.60849-185.92267-55.58997 191.22567 33.12445-190.28547-38.20361 193.45987 15.31481-192.98367-20.46723z" fill="#fffbb3" fill-rule="evenodd"/></g><path d="m238.78125 54.927734c-52.16027 2.135275-89.00189 26.744357-110.14063 58.029296-24.07756 7.35803-49.65931 18.78964-66.447261 32.27149-24.844318 20.34463-41.130627 42.35101-57.8046871 61.76562a249.99997 250 0 0 0 -2.7421875 20l-.5898438-.04687.5878906.0625a249.99997 250 0 0 0 -1.6445312 22.99023 249.99997 250 0 0 0 0 .00586 249.99997 250 0 0 0 1.6445312 22.99023l-.5878906.0625.5898438-.04687a249.99997 250 0 0 0 3.1308594 22.83008l-.5214844.10547.5253906-.0918a249.99997 250 0 0 0 4.8964844 22.51367l-.1445313.04297.1445313-.03906a249.99997 250 0 0 0 7.7773436 21.70898l-.572266.23047.578126-.21484a249.99997 250 0 0 0 9.158203 21.13086l-.408203.21093.414062-.19922a249.99997 250 0 0 0 11.041016 20.21875l-.21875.14063.222656-.13477a249.99997 250 0 0 0 13.324219 18.79883l-.501953.38867.511718-.375a249.99997 250 0 0 0 14.517578 17.89649l-.277343.25976.285156-.25195a249.99997 250 0 0 0 16.287109 16.28711l-.242187.27148.248047-.26562a249.99997 250 0 0 0 17.894531 14.51758l-.371094.50586.384766-.4961a249.99997 250 0 0 0 18.783201 13.31641l-.13086.21875.13672-.21484a249.99997 250 0 0 0 20.24805 11.05664l-.19922.41211.20898-.40625a249.99997 250 0 0 0 21.12891 9.15429l-.2207.5918.23633-.58594a249.99997 250 0 0 0 21.69531 7.77344l-.03711.13867.04101-.13672a249.99997 250 0 0 0 22.52344 4.89844l-.08789.51172.10156-.50781a249.99997 250 0 0 0 15.09375 2.07031c18.04498-24.43702 42.25977-61.29688 42.25977-61.29688 9.17369-20.34188 16.78164-39.88092 21.63867-57.63867 17.93466-2.39238 32.66027-6.4763 48.02344-14.375-1.48169 9.10859-4.23482 19.16189-8.88867 30.53906l-24.07227 58.85157 51.34766-37.5c79.93381-58.37538 105.3102-136.37799 90.89453-204.29297-6.70644-31.59319-21.76608-60.99109-43.17383-85.62696 0 0-21.7728-23.3316-35.0332-31.917964-24.67084-15.974842-52.38458-27.870644-80.85352-35.175781-13.81679-3.545393-27.3387-4.12105-42.61328-3.931641zm76.82227 252.789066c6.42316 6.54495 11.06458 13.87948 13.85546 22.36328l-2.49414-.40625c-1.55716-.25399-2.92535-.67335-4.41015-.99024-3.39862-6.24314-5.93314-13.83489-6.95117-20.96679z" fill="#f2c80d"/><g fill="#fffdcc" stroke-width="36"><path d="m241.63281 72.861324c-1.60895.01512-3.20245.05186-4.77929.117203-54.68256 2.28641-89.8336 34.539843-104.02735 70.214843-8.73517 21.9536-9.19797 45.11797-1.35156 63.26367 7.84641 18.1479 23.52177 31.75147 49.92578 35.70117 14.06615 2.1028 27.90921 4.39605 41.27539 7.08985 44.68331-18.7673 53.14296-53.84744 64.64063-85.95703 5.77198-16.1197 12.14624-31.66569 25.27734-42.2754 9.52021-7.6935 22.23165-12.09747 39.1543-12.35937-21.27455-15.278682-46.28095-26.525002-73.94532-32.158203-12.84909-2.616808-24.90221-3.747004-36.16796-3.636718zm-12.125 81.404296c17.47034 0 31.64453 14.15324 31.64453 31.61914 0 17.46671-14.17419 31.6211-31.64453 31.6211-17.47037 0-31.62109-14.15439-31.62109-31.6211 0-17.4659 14.15072-31.61911 31.62109-31.61914z"/><path d="m351.67773 122.50781c-14.20792.181-23.44155 3.8202-30.3164 9.375-9.56497 7.72781-15.31793 20.46156-20.91602 36.09766-9.86199 27.5383-19.8248 63.54349-56.52734 86.02539 31.36713 7.8129 58.8971 18.65321 78.49414 35.44531 15.94212 13.6601 26.37191 31.77831 27.91211 54.28711 1.14916 16.7838-2.46164 35.79783-11.37891 57.59766 75.40945-55.07132 96.90585-124.75568 83.90235-186.01758-7.3375-34.5661-25.85462-66.52766-52.49219-91.41016-7.04946-1.0313-13.23635-1.46979-18.67774-1.40039zm-197.51562 125.91602v.002c-2.61177 36.5093 17.44753 70.69174 48.52734 91.80664 33.35052 22.6587 78.56893 29.80383 121.37696 7.20703-4.51983-.7372-8.83677-1.71391-12.96485-2.91601-9.86048-13.1453-14.96688-31.76269-13.94531-47.15039.18255-2.7513.56994-5.37968 1.11914-7.85938-3.99224-2.3192-8.24575-4.51507-12.75586-6.57617-1.2387 4.3057-1.97617 8.84855-2.28515 13.50195-.85066 12.811 1.49919 26.63914 6.85546 39.24414-26.78006-15.2563-41.3495-41.36276-43.44336-66.31836-20.60144-5.57049-43.52072-9.8518-67.29882-13.4082-9.32769-1.3954-17.73092-3.979-25.18555-7.5332z"/><path d="m121.56055 134.04297c-15.28172 4.79477-34.000729 13.67782-47.962894 25.11133-29.901282 24.48571-47.274076 53.25053-72.68164038 78.0332a249.99997 250 0 0 0 -.91601562 12.8125 249.99997 250 0 0 0 0 .00586 249.99997 250 0 0 0 1.6445312 22.99023l-.5878906.0625.5898438-.04687a249.99997 250 0 0 0 3.1308594 22.83008l-.5214844.10547.5253906-.0918a249.99997 250 0 0 0 4.8964844 22.51367l-.1445313.04297.1445313-.03906a249.99997 250 0 0 0 7.7773436 21.70898l-.572266.23047.578126-.21484a249.99997 250 0 0 0 9.158203 21.13086l-.408203.21093.414062-.19922a249.99997 250 0 0 0 11.041016 20.21875l-.21875.14063.222656-.13477a249.99997 250 0 0 0 13.324219 18.79883l-.501953.38867.511718-.375a249.99997 250 0 0 0 14.517578 17.89649l-.277343.25976.285156-.25195a249.99997 250 0 0 0 16.287109 16.28711l-.242187.27148.248047-.26562a249.99997 250 0 0 0 17.894531 14.51758l-.371094.50586.384766-.4961a249.99997 250 0 0 0 18.783201 13.31641l-.13086.21875.13672-.21484a249.99997 250 0 0 0 20.24805 11.05664l-.19922.41211.20898-.40625a249.99997 250 0 0 0 21.12891 9.15429l-.2207.5918.23633-.58594a249.99997 250 0 0 0 21.69531 7.77344l-.03711.13867.04101-.13672a249.99997 250 0 0 0 17.61914 3.83203c16.90923-21.85307 46.63868-66.99414 46.63868-66.99414 8.33222-17.38527 14.79109-34.87868 19.54297-52.21093-25.77771-.85659-50.27572-9.39517-70.56446-23.17774-36.49879-24.79805-60.06062-66.98495-53.91406-111.34961-10.03059-7.61729-17.50272-17.40324-22.26953-28.42773-8.0642-28.28616-6.69286-55.02895 2.88672-77.94922z"/></g></svg>