<svg height="500" viewBox="0 0 500 500" width="500" xmlns="http://www.w3.org/2000/svg" xmlns:xlink="http://www.w3.org/1999/xlink"><filter id="a" color-interpolation-filters="sRGB" height="1.060031" width="1.060028" x="-.030014" y="-.030015"><feGaussianBlur stdDeviation=".46605513"/></filter><filter id="b" color-interpolation-filters="sRGB" height="1.108118" width="1.108123" x="-.054061" y="-.054059"><feGaussianBlur stdDeviation=".46605513"/></filter><filter id="c" color-interpolation-filters="sRGB" height="1.076924" width="1.076926" x="-.038463" y="-.038462"><feGaussianBlur stdDeviation=".46605513"/></filter><filter id="d" color-interpolation-filters="sRGB" height="1.006957" width="1.005275" x="-.002637" y="-.003478"><feGaussianBlur stdDeviation=".46605513"/></filter><g transform="translate(.000015)"><circle cx="-249.99998" cy="250" fill="#e51a1a" r="250" transform="scale(-1 1)"/><path d="m181.33938 83.856939c97.52275-31.84694 203.27597 26.159281 217.12696 131.568651 10.04116 85.89723-45.79566 162.6049-131.11288 174.6444-76.26503 6.65-147.16573-45.4981-149.44603-126.3231.16679-50.89801 30.03241-87.97493 76.60677-108.40662 44.00125-16.48183 90.46555-3.00917 112.28155 39.63622 17.95322 40.0953 3.57775 87.31302-40.4313 103.80676-21.98685 8.23292-51.6578-5.55285-56.72562-31.5612 24.48155 21.7253 69.7211 11.74379 80.1808-21.06198 5.24648-24.88185-11.48198-41.52298-24.36368-55.64156-23.21161-15.22125-63.26956-13.16738-85.32502 12.05139-41.51846 46.43224-18.48961 112.52397 35.72777 131.08081 60.66482 17.11352 118.96473-29.63961 126.96137-92.39988 2.7637-54.83226-40.99398-106.19486-96.51046-114.27807-76.21988-10.3001-138.45939 50.84936-147.743191 124.09106-9.31956 73.21828 47.315731 138.67973 111.863041 158.33924 49.05305 9.49897 98.18701 2.07129 139.64056-27.40671 82.90715-58.95602 100.11901-177.97214 43.55644-260.39974-52.71171-79.885311-158.575-103.987181-249.15842-67.061741-86.705021 39.45169-149.0660905 134.549061-117.102931 229.167621 15.77888-74.65377 50.93986-153.5943 123.407351-187.514491 9.28724-4.60517 19.44718-8.7232 30.56692-12.33106zm-160.722321 286.075591c-52.57825-113.8254-.38403-260.89182 113.777041-317.643861 10.84604-5.32012 22.21219-9.7712 34.03518-13.36069 115.76394-28.75816 246.03978 34.00351 263.68455 158.897471 10.04526 85.91695-27.72044 168.80365-107.97396 206.83173-102.24035 46.26108-224.798841-11.43986-234.690511-131.24969-7.33455-123.78718 127.307171-194.136761 222.718561-137.24102-42.54074-27.89653-94.21826-33.44528-140.80825-12.98978-71.17376 32.62266-105.080851 118.0397-80.762351 190.63139 30.697281 88.13423 123.572931 132.04164 212.817841 105.59803 82.80488-25.06359 132.16266-100.33164 140.19255-180.04986 12.12434-145.020371-132.23823-245.3588802-265.59709-221.973611 7.92036-4.10499 20.5989-8.4277792 35.61563-11.7452592 60.06317-13.23825 124.63426-3.45807 179.45368 32.4903392 109.65077 71.904621 141.09454 217.803071 65.16008 333.599141-143.00482 218.07486-377.311781 117.06797-437.622951-1.79433" fill="#b21a1a"/></g><g fill="#ff8066"><path d="m447.54755 243.35673c31.5747-15.525 5.3793-59.9697-21.2625-39.6558 2.214-43.209-41.409-70.362-73.0674-56.7558-7.2144-35.0172-70.8012-31.4892-81.477-4.2192l-22.6143-7.875c-1.6848-28.998-25.7598-52.030796-55.1808-52.030796-19.071 0-35.802 9.9963-45.7317 24.693296l-11.025-6.3c-.288-15.716696-13.1238-28.376996-28.9125-28.376996-10.378797 0-19.087197 5.427-24.186597 13.6404l-8.916296-7.875c5.452196-13.5882-4.8168-25.605-16.3125-25.9875l-.0036-.0018c-4.4973-.1485-9.1773 1.503-13.1895 5.5134-13.6017 10.4103-7.8597 26.496 5.3154 30.9942-10.6983 24.082196 16.452 34.936196 29.420996 20.501996 1.593 5.7177 5.0463 10.476 9.477 14.175-6.1506 15.9444-.4077 31.6638 9.423 41.4 15.367497 15.2226 31.192197 10.35 48.401997 2.7576 4.509 6.9912 10.7568 13.005 17.8596 17.352-7.7796 2.2428-14.2884 7.5987-17.8596 14.7105-11.1213-11.4408-29.2167-4.293-30.852 7.7058-2.5713 18.8397 21.0726 28.3023 29.7837 15.948 3.744 9.315 12.3822 15.8184 22.6125 17.352-18.2853 14.2767-16.7652 41.8167-.873 59.4 17.0523 18.864 39.0915 14.8482 55.5192 2.6154 1.7244 8.0055 5.598 14.8536 10.5192 21.0384-16.6707 20.034 0 45.16972 20.502 49.3875 27.46457 5.65016 77.74663-24.04674 110.91015-46.5885 32.21258-21.89539 32.97645-83.5191 81.71955-83.5191z" filter="url(#d)" opacity=".9"/><path d="m191.32655 332.79693c-10.2915 0-18.621 8.3277-18.621 18.6174 0 10.2915 8.3295 18.648 18.621 18.648 10.2888 0 18.6462-8.3565 18.6462-18.648 0-10.2888-8.3574-18.6174-18.648-18.6174z" filter="url(#a)" opacity=".9"/><path d="m61.857957 125.88693c-5.7132 0-10.3446 4.6314-10.3446 10.3446 0 5.7123 4.6323 10.3446 10.3455 10.3446s10.3446-4.6323 10.3446-10.3455c0-5.715-4.6323-10.3455-10.3455-10.3455z" filter="url(#b)" opacity=".9"/><path d="m271.65335 85.941334c-8.0334 0-14.5422 6.5088-14.5422 14.541296 0 8.0307 6.5088 14.5395 14.5413 14.5395 8.0307 0 14.5395-6.5088 14.5395-14.5404 0-8.033396-6.5088-14.541296-14.5404-14.541296z" filter="url(#c)" opacity=".9"/></g><path d="m319.25 208.58203c-12.97326 3.76852-22.04503 10.32146-31.92383 17.14063-22.34804 15.42647-32.43356 41.18206-37.20117 53.43945-4.71082 12.11137-7.32813 25.24898-7.32813 38.86914 0 19.09715 8.77649 36.39788 20.19141 52.13672v.002c9.28142 12.79453 20.36035 24.08484 30.75977 33.1836l6.51562 5.70117c-2.1033 7.72477-4.61203 15.45086-7.33789 23.31445l-16.59375 47.86719 53.76953-33.28906.19336 21.68164v31.37104c.32845.11876 22.51953-23.26753 22.51953-23.26753l12.60352-11.54883 1.66015 15.72852 4.609 19.08784 21.0785-17.41011 14.74805-19.78911 21.06055 37.19922 13.77344-35.27734c2.74227-7.02359 9.29352-24.262 16.89453-48.56546 4.07698-13.04271 8.12025-27.3455 11.48047-41.64163 0 0 5.75284-19.2021 7.08008-29.09472 1.40858-10.49896.89062-31.7666.89062-31.7666-2.29273-57.36685-49.56919-103.99502-116.92969-108.29783-21.99224-.63869-32.78373.39923-42.51367 3.22561z" fill="#861313"/><path d="m266.90045 285.68733c-3.9375 10.1232-6.1038 21.0195-6.1038 32.3442 0 12.8088 6.7122 27.711 16.7625 41.5683 8.208 11.3148 18.4644 21.8268 28.0422 30.2067 2.079-14.2047 1.9332-28.8135-2.1942-44.6067l16.2846-4.248c9.5868 36.684.351 68.1462-9.7596 97.3134l37.8846-23.454.3654 41.1453c.1593.0576.3186.1125.477.1692l30.9105-28.323 3.8817 36.7605.252.027c.009.002.0198 0 .0288 0l25.8462-34.6797 16.002 28.2654c2.646-6.777 9.036-23.5845 16.4817-47.3904 3.969-12.6963 7.902-26.622 11.1375-40.3875h-.2538c-15.777 0-28.575-12.7737-28.575-28.548 0-15.7725 12.798-28.575 28.575-28.575 2.6982 0 5.2893.3987 7.7625 1.098-1.9143-47.898-41.3757-87.3234-92.3895-90.702-43.06257-2.852-50.80987 3.08961-70.76649 16.86533-14.9705 10.33388-26.67454 34.92553-30.65181 45.15097z" fill="#ff8066" stroke-width="36"/><path d="m411.01025 351.35853 10.5183 56.6424-37.6317-3.9933 27.1125-52.65z" fill="#861313"/><path d="m365.84195 293.89893c18.2115 0 32.9625 14.7825 32.9625 32.9904 0 18.2097-14.751 32.9634-32.9625 32.9634s-32.9904-14.7537-32.9904-32.9625c0-18.207 14.778-32.9895 32.9895-32.9895z" fill="#861313"/></svg>