<svg height="500" viewBox="0 0 500 500" width="500" xmlns="http://www.w3.org/2000/svg"><g transform="translate(.000015)"><circle cx="-249.99998" cy="250" fill="#e51a1a" r="250" transform="scale(-1 1)"/><path d="m181.33938 83.856939c97.52275-31.84694 203.27597 26.159281 217.12696 131.568651 10.04116 85.89723-45.79566 162.6049-131.11288 174.6444-76.26503 6.65-147.16573-45.4981-149.44603-126.3231.16679-50.89801 30.03241-87.97493 76.60677-108.40662 44.00125-16.48183 90.46555-3.00917 112.28155 39.63622 17.95322 40.0953 3.57775 87.31302-40.4313 103.80676-21.98685 8.23292-51.6578-5.55285-56.72562-31.5612 24.48155 21.7253 69.7211 11.74379 80.1808-21.06198 5.24648-24.88185-11.48198-41.52298-24.36368-55.64156-23.21161-15.22125-63.26956-13.16738-85.32502 12.05139-41.51846 46.43224-18.48961 112.52397 35.72777 131.08081 60.66482 17.11352 118.96473-29.63961 126.96137-92.39988 2.7637-54.83226-40.99398-106.19486-96.51046-114.27807-76.21988-10.3001-138.45939 50.84936-147.743191 124.09106-9.31956 73.21828 47.315731 138.67973 111.863041 158.33924 49.05305 9.49897 98.18701 2.07129 139.64056-27.40671 82.90715-58.95602 100.11901-177.97214 43.55644-260.39974-52.71171-79.885311-158.575-103.987181-249.15842-67.061741-86.705021 39.45169-149.0660905 134.549061-117.102931 229.167621 15.77888-74.65377 50.93986-153.5943 123.407351-187.514491 9.28724-4.60517 19.44718-8.7232 30.56692-12.33106zm-160.722321 286.075591c-52.57825-113.8254-.38403-260.89182 113.777041-317.643861 10.84604-5.32012 22.21219-9.7712 34.03518-13.36069 115.76394-28.75816 246.03978 34.00351 263.68455 158.897471 10.04526 85.91695-27.72044 168.80365-107.97396 206.83173-102.24035 46.26108-224.798841-11.43986-234.690511-131.24969-7.33455-123.78718 127.307171-194.136761 222.718561-137.24102-42.54074-27.89653-94.21826-33.44528-140.80825-12.98978-71.17376 32.62266-105.080851 118.0397-80.762351 190.63139 30.697281 88.13423 123.572931 132.04164 212.817841 105.59803 82.80488-25.06359 132.16266-100.33164 140.19255-180.04986 12.12434-145.020371-132.23823-245.3588802-265.59709-221.973611 7.92036-4.10499 20.5989-8.4277792 35.61563-11.7452592 60.06317-13.23825 124.63426-3.45807 179.45368 32.4903392 109.65077 71.904621 141.09454 217.803071 65.16008 333.599141-143.00482 218.07486-377.311781 117.06797-437.622951-1.79433" fill="#b21a1a"/></g><g fill="#ff8066"><path d="m347.71086 419.57108 7.29498 40.02626 1.15837 6.47867 5.38617-7.67009 7.05718-10.23077c4.04888 17.19494 7.92979 34.92122 12.26882 51.82485l-7.39533-62.29129-1.15947-6.47866-5.38832 7.63735-7.05393 10.22859-5.38616-29.5238c-14.83227-84.40904-18.18461-91.73851-6.78231-.001z" stroke-width=".899999"/><path d="m271.87693 340.26377-33.71307 26.01609 1.56851-12.30703 1.12348-9.27393-5.21382 3.98778-47.14246 41.35733c14.53432-9.65796 29.25407-20.24225 43.76765-30.30935l-1.60339 12.34196h.036l-1.16057 9.30665 5.21381-4.02271 38.0761-29.38851c35.88568-24.77253 47.4575-49.27413-.9544-7.70608z" stroke-width=".899999"/><path d="m375.93469 212.69351 2.62436-6.00078c6.3458-16.71629 12.08524-33.64017 17.81921-50.57174-7.33955 12.79279-14.26477 27.47701-20.13925 39.25093l-4.53536-11.59241-3.47625-8.69566c-5.38985 12.39671-10.81379 24.77858-16.22608 37.16551-15.46651 31.81662-22.52582 48.88607 4.2605 6.88452l11.65798-26.6958c2.62116 6.7719 5.31436 13.51497 8.01489 20.25543z" stroke-width=".899999"/><path d="m208.34885 228.49562c-3.96974 21.01307-7.91506 42.03075-11.89469 63.04195l18.03128-12.24042c-2.3953 17.50042-5.13745 35.44384-7.15754 52.77952l15.47128-60.79328 1.2282-6.47867-18.03028 12.20668 8.24939-43.57436 68.17225 57.45142c56.00812 39.24674 68.96497 42.56419 8.11194-15.37835l-62.88862-52.98464 55.21843-4.87381-12.81639-10.77519-47.68784-40.19974 41.79013-8.62584-11.89579 18.24024 6.4442-1.33107 60.46821-16.50103c-17.29503 2.30973-35.14415 5.35704-52.59623 8.04649l11.93286-18.24244c-20.87373 4.31373-41.74557 8.63666-62.6181 12.95621l-39.91454-33.65018c-93.52778-62.655044-41.46699-6.02978.20347 22.36868l64.56183 54.41721-55.15407 4.90978z" stroke-width=".899999"/><path d="m90.1992 382.05408c22.89272-18.62037 41.9683-40.05297 61.98824-61.5304-26.30913 18.91238-49.69486 41.1417-73.47723 63.02866l-4.8496 4.47939 21.80643.92404c-12.36238 12.6175-25.29329 25.37918-37.25162 38.08133 0 0 32.87536-25.88104 48.70284-39.55013 1.65899-1.43276 4.84449-4.44706 4.84449-4.44706z" stroke-width=".899999"/><path d="m441.58458 250.37113c-12.56877 12.09975-25.1561 25.13779-37.63108 37.64122l-.6479-12.4096-.54539-9.37539-4.39573 4.90972-37.15442 41.21986c1.6405 1.47837-50.61679 53.21201 4.56591 4.90972l31.22288-34.64083.649 12.37687v.035l.54537 9.33939 4.39576-4.90973 38.9945-49.09723z" stroke-width=".899999"/></g><path d="m292.35606 422.76719h71.32813l4.80469-63.07812h16.20507l2.66407-14.81446c3.40826-18.961 3.03918-37.85343-2.28125-54.4375-3.68845-11.4988-10.58168-22.35376-20.29492-29.42578 1.65153-5.02816 2.61328-10.42143 2.61328-16.11523 0-21.73611-13.36021-42.49523-36.4463-45.14749-24.70036-.0636-40.55956 22.09661-40.55956 45.14549 0 5.37708.8741 10.48321 2.3457 15.29101-10.43219 7.28212-17.66713 18.88269-21.02148 30.69141v.002c-4.78304 16.84295-4.49595 35.5346-1.50391 53.73047l2.47852 15.08008h15.50585z" fill="#861313"/><path d="m308.38969 244.89404c0 7.85228 2.62327 14.88518 6.54454 19.8091l4.15905 5.21522-6.61325 1.02339c-12.24919 1.89844-19.5289 11.04579-23.45126 24.85412-3.68239 12.96713-3.72383 29.68091-1.05802 45.89283h17.07904l.2378 3.61573 3.92017 59.46221h37.76741l4.43174-59.49494.23779-3.58192h17.99638c2.96686-16.5054 2.38876-32.9977-1.70375-45.75426-4.34667-13.55083-12.07467-22.53454-23.14584-24.61735l-6.47582-1.22635 4.19286-5.07992c4.09906-4.94464 6.88703-12.07137 6.88703-20.11678 0-14.59278-8.68678-25.93752-19.49834-27.20859-11.79436-.00095-21.50753 11.65132-21.50753 27.20751z" fill="#ff8066" stroke-width="36"/><path d="m89.61192 240.63051h71.33008l4.70117-63.11132h16.34961l2.65821-14.82227c3.40157-18.96711 2.9906-37.848-2.31641-54.39648v-.002c-3.6876-11.493287-10.57829-22.34055-20.2832-29.412104 1.649-5.041116 2.59961-10.444075 2.59961-16.130859 0-21.73701-13.342-42.49035-36.4297-45.145532-24.66673-.06045-40.57421 22.03733-40.57421 45.112279 0 5.390446.87201 10.511476 2.34766 15.333984-10.42358 7.287861-17.64215 18.893356-20.99219 30.683592v.002.002c-4.7722 16.80832-4.5297 35.48365-1.53711 53.69531l2.47656 15.08008h15.49805z" fill="#861313"/><path d="m105.64766 62.722563c0 7.853376 2.62217 14.920097 6.54452 19.84292l4.19178 5.217401-6.64817 1.023408c-12.24918 1.898422-19.49507 11.045782-23.41852 24.854108-3.6813 12.96602-3.75438 29.64927-1.09075 45.85899h17.07796l.23778 3.64847 3.92127 59.46222h37.76851l4.43173-59.49495.2727-3.61574h17.99747c2.95813-16.49448 2.34949-32.97371-1.73866-45.72151-4.34776-13.55084-12.07685-22.53345-23.14585-24.616265l-6.4769-1.227423 4.22668-5.081019c4.09906-4.945728 6.85213-12.072476 6.85213-20.116785 0-14.592787-8.68787-25.937522-19.482-27.20805-11.77471.000544-21.52168 11.618042-21.52168 27.174225z" fill="#ff8066" stroke-width="36"/></svg>