<svg height="500" viewBox="0 0 132.29167 132.29167" width="500" xmlns="http://www.w3.org/2000/svg" xmlns:xlink="http://www.w3.org/1999/xlink"><radialGradient id="a" cx="66.145805" cy="66.145836" gradientTransform="matrix(0 1.0000236 -1 -.00000011 132.29167 -.001526)" gradientUnits="userSpaceOnUse" r="66.145836"><stop offset="0" stop-color="#ffd42a"/><stop offset="1" stop-color="#fea"/></radialGradient><g><circle cx="66.145836" cy="66.145836" fill="url(#a)" r="66.145836"/><path d="m87.316892 96.838911c-.60721-.40587-1.2166-.60841-1.82271-1.01165-10.53621-6.68714-18.0331-17.22213-19.24751-29.57886.40444.60612.40444 1.21441.6083 1.82162 3.44375 7.90133 9.11574 14.38439 16.81431 18.84197 8.103 4.65914 17.017068 6.68594 26.134998 6.28007 6.28029-.20254 12.55948-1.62093 18.43534-3.84895 2.43101-5.87487 3.84928-12.35793 4.05205-18.84099-3.44375 3.03822-7.69857 5.26646-11.95338 7.09136-2.63268 1.21551-5.26646 2.22934-8.1041 2.83436-2.63158.81106-5.26646 1.21769-7.90023 1.62213-2.22825.20276-4.660348.40444-6.888598.20276-12.15505-.60721-23.90675-6.28139-31.19869-16.00434 1.62104 1.21441 3.03931 2.42992 4.86312 3.44265.6072.20276 1.21441.6083 1.82271 1.01384 8.103 4.25372 17.22093 5.47032 26.33667 4.05095 10.129568-1.61994 18.639198-6.27919 26.136098-12.96612.6061-.6061 1.01164-1.2155 1.82161-1.8238.40553-.20167.6072-.60501.80997-1.01274.40553-.20167.6094-.40553 1.01493-.80888.80888-1.01383 1.61885-2.22824 2.63158-3.0393-.6072-2.22825-1.01273-4.45759-1.61994-6.8886-1.01164-4.05095-2.83654-7.4947-4.25481-11.34507-5.26756 12.56058-14.78883 23.29955-27.350509 28.97154-10.332339 4.45648-21.879089 4.45648-32.21143.40553 8.509631 1.41718 17.21984 0 24.9184-3.85038.60721-.40553 1.2166-.6083 1.82271-1.01273 13.777179-7.90133 21.881279-22.28572 24.515059-37.478986-1.82381-2.229339-3.84928-4.053144-5.67199-6.078619-2.63378-2.633777-5.67309-4.659255-8.7124-6.887498.60721 3.850377.60721 7.697466.40554 11.54675-.60831 8.306864-2.63488 16.208193-7.091369 23.501223-6.68582 10.94064-17.62536 18.84197-30.18595 20.05638 4.86312-1.41718 8.91407-4.45649 12.96502-7.69856 5.672-5.26756 9.52237-11.54675 11.75171-18.84197 3.64652-11.74952 2.83654-24.310102-1.62213-35.4524145-2.42992-1.012739-4.65926-1.62104-7.29194-2.229339-.20275 0-.60939-.404437-.81216-.404437-3.64432-.607205-6.8864-1.216603-10.53401-1.419371 1.41718 1.622138 2.22934 3.444846 3.64761 5.26865 2.22824 3.240982 3.24208 6.6847315 4.86092 10.1284795.6094 1.622135.81107 3.040405 1.41827 4.660349 3.24208 11.751707 2.22934 24.109523-4.25371 34.845203-.81107 1.2166-1.41828 2.22934-2.22825 3.44485-2.43101 3.03931-4.86202 5.67308-7.90133 7.69856 5.47032-6.48306 8.50963-14.78883 9.11684-23.29846.81107-16.207096-7.4958-32.009757-20.26024-41.9354655-6.2792 1.011642-12.560589 3.038214-18.233674 5.873661 16.816494 6.6869215 30.794254 22.0818565 32.212524 40.5193945.6083 6.48305-.20275 12.96721-2.83545 18.84087.80997-4.05205.80997-8.103.20276-12.15615-.6083-4.45648-2.02658-8.7102-4.05205-12.76225-.40663-.6083-.6083-1.21551-1.01274-1.8238-4.659249-8.104101-11.345078-13.97886-19.449172-18.436441-.406631-.202755-.811069-.202755-1.215506-.404438-1.418271-1.012739-2.837641-1.62104-4.456488-2.025478-.406628-.202755-.609395-.405531-1.013833-.608298-3.646516-1.21441-7.294125-2.432107-11.142312-2.836544-5.064786 4.052047-9.318506 8.915163-12.966116 14.182716 5.875855-.609395 11.547846-.609395 17.625368.404438 1.621041.405534 3.038215.607204 4.659255 1.013836 7.496893 2.024378 13.979949 5.265359 19.650845 10.534009 2.63487 2.43101 4.86312 4.86202 6.88969 7.90133 1.82271 3.03822 3.24207 5.87366 4.45648 9.11683.80998 2.63269 1.41828 5.26646 1.82381 7.90024-2.43101-6.28029-6.28029-11.95228-11.54675-16.40877-2.02767-1.62214-3.850377-2.83654-6.079716-4.25482-3.84928-2.4321-7.697466-3.84927-12.153954-4.86311-11.144502-2.63487-22.08295-1.41827-32.4163865 2.43101-2.227149 6.07862-3.646516 12.35782-4.049857 18.6392 4.253718-2.83654 8.304671-5.67199 13.1666905-7.49579 5.673088-2.22934 11.345079-3.64652 17.220934-4.05205 13.573321-.81217 27.552179 4.86092 35.656279 16.00433-.81107-1.01274-2.02658-1.62104-3.03932-2.42992-.40443-.20387-.6072-.20387-1.01383-.40662-6.2792-4.25482-13.166692-5.67199-20.25805-6.2792-3.646516-.20275-7.293032.20167-10.940641 1.01274-12.153954 2.83545-22.4873915 9.72404-29.9831875 19.24531.809972 6.28139 3.038215 12.56036 5.874759 18.23367.811065-2.43101 2.229339-4.65947 3.4448425-7.09136.809972-1.41717 1.619944-2.83545 2.632683-4.25481 1.622134-2.02438 3.040405-3.84819 4.659252-5.6709 1.622134-1.8238 3.242078-3.23988 5.065883-4.86311 1.621037-1.21551 3.038214-2.22825 4.659252-3.44485 1.419366-.80887 2.633776-1.41717 3.849283-2.22824 4.862019-2.42991 9.725134-4.04986 15.195455-4.65925 6.886399-.80998 13.573319.20275 19.853619 2.83654-3.24099-.40444-6.68474-.6072-9.92681-.40444-3.04041.20276-6.077529 1.01165-9.117934 1.82271-11.547846 3.64652-20.459722 12.36001-26.133907 22.89281-.403341.81008-.607201 1.41839-1.012736 2.22847-.202755.40542-.202755.81085-.404437 1.2155-.203874.4063-.405535.60841-.608302 1.01384-1.621038 4.45648-3.242078 8.912979-3.850377 13.574099 4.053144 5.06412 8.915163 9.31849 14.385484 12.96413-1.011643-5.4691-.608302-10.93854 0-16.61141.202755-1.62136.809972-3.03933 1.012739-4.66069 2.835447-12.153739 9.724038-22.284409 20.461912-28.767469.608302-.20275 1.216604-.6072 1.822707-1.01274 4.25482-2.22933 8.7124-3.6476 13.371661-4.05095-2.42992.80997-4.659261 2.025479-6.888601 3.442649-.404439.202761-.6072.202761-1.012739.40444-2.02547 1.41827-3.646511 2.83764-5.47032 4.25482-.404433.40553-.809968 1.01493-1.417172 1.41827-4.66035 5.06588-7.902428 10.73787-9.927904 17.220931-3.645419 11.750739-2.835447 24.108549 1.823805 35.250869.201668.40542 1.012739.40542 1.619944.60929.202755 0 .608299.20288.812162.40333.403341 0 .607205.20381 1.011643.20381.202755.20288.608301.40542.811065.40542 1.214411.40467 2.431014.60621 3.849285.81009.202754 0 .607204.40454.811068.40454 3.240974.40542 6.481964 1.21638 9.722944 1.21638-8.50854-10.94152-13.168886-25.12192-11.141217-39.10112 0-.40542 0-.80964 0-1.21638 1.822707-10.33015 7.088067-19.65085 15.396037-25.72728-6.8886 8.30468-9.92681 19.04365-8.91407 29.78053 1.01273 10.53481 5.47032 20.25905 12.56058 28.36293 1.01274.81009 1.62104 1.82393 2.63377 2.83556.60831.60842 1.21441 1.2155 1.82381 1.82513 1.012739.80962 2.02657 1.61971 3.03821 2.42967 6.2803-.80996 12.560589-3.0393 18.23368-5.87485-8.508541-3.44485-15.802661-8.71097-21.881291-15.80353-.404429-.60712-.808869-1.21464-1.41827-1.82262-5.063689-6.68495-7.90023-13.77533-8.91188-21.8803-.811059-6.88749 0-13.77609 3.03822-19.85252-2.229339 10.93845.809971 22.08077 7.698571 31.19848.6072.60753 1.01273 1.2155 1.41827 1.82304 8.508529 10.13067 20.259139 16.2081 33.021398 18.03068 1.8238-1.62092 3.64761-3.24109 5.47141-4.86201 2.83545-2.83642 5.06369-6.07742 7.4947-9.3197-11.54675 1.21551-23.702888-.20163-34.034139-6.27998" fill="#fc0" fill-rule="evenodd"/></g><g transform="matrix(.97204521 0 0 .97204521 2.132978 6.151628)"><path d="m309.53853 490.46047-17.87251-25.99953-8.81446-4.44336c3.30943-18.13754 7.0011-37.74944 4.31055-60.0586.47396-19.00066-4.16501-35.31936-7.5293-49.97656 8.62572-13.39966 12.07725-26.50101 13.70899-36.92383 1.94533-12.42588 2.56196-20.9089 8.51172-32.29492l.008-.008c.001-.002-.001-.005 0-.008 5.0874-9.32566 9.32344-15.21236 16.29883-22.64844 29.91993-31.90123 83.33604-51.66692 129.55078-67.69141-.58832.20402.91829-.16551 7.07226 2.23633 6.15402 2.40183 15.22746 6.86498 27.14453 8.71094 20.53042 2.99167 28.02492-30.32073 22.29297-45.6875-7.8633-10.99923-15.53914-13.04771-24.47851-16.97656-8.93938-3.92885-16.84714-7.27982-27.60938-7.42774-7.03903-.0977-10.02554 1.16785-14.36523 2.24414-3.53488.8767-6.29386 1.71941-8.84961 2.53321-52.53146 10.11028-98.46336 13.32609-154.70313 30.36914-35.613-35.98587-72.90626-71.806057-115.5665-108.417972-7.06585-6.669207-12.72935-13.164716-21.81913-16.07524-3.7763-1.147658-11.78838-1.109927-11.78838-1.109927-12.51199.171326-30.32497 3.59197-52.521489 7.189453 0 0-15.200099 4.319569-14.628058 9.895379 2.49489 22.410145 8.117785 50.332267 27.569465 47.950327 19.934792-2.6646 28.897052-3.98921 34.037112-4.5625 29.77413 45.80709 57.08791 88.35223 71.92968 134.58008-10.02346 16.7801-17.42111 22.67796-30.62109 31.52734-16.03749-4.07928-33.81155-8.01655-55.02344-5.5957-11.317599-.86555-21.592228.50167-30.177731 3.42578-8.412374 2.86513-16.21832 6.42332-25.806641 10.01758-17.776307-1.33899-37.622327 8.38459-48.189453 19.26562-6.4579178 6.78623-11.938114 19.0781-9.165039 32.11133 2.3291365 7.62273 7.14870461 13.93407 12.8193359 17.49609 12.4759241 7.27344 27.7411871 5.32752 39.9326171.13574 7.719548-3.67385 12.733901-8.12999 16.944336-12.30957 15.554116-.11501 29.272665-1.85151 46.091795-8.48047 13.76673 4.6177 28.13484 6.66321 42.26172 7.74219-2.7207 4.07706-5.57898 8.01998-7.56641 12.85938-5.78094 14.07978-7.03789 28.29996-3.93359 41.05859 2.99387 12.30652 11.0717 23.79143 23.00977 28.52344 11.9348 4.73068 25.55985 1.98273 36.28906-4.76172 8.63633-5.42854 15.50714-13.90307 21.10351-23.74609 2.15816 5.73282 5.2038 12.27941 8.43164 18.97851-3.45759 19.03162-3.08667 36.96203-2.17187 54.25586l-18.35156 6.88867-10.24593 25.20852z" fill="#665600" opacity=".998" transform="scale(.26458334)"/><path d="m33.149189 15.559259c-2.145802.02938-7.317476.88754-13.200669 1.841053l2.030953 5.883201c11.735416-1.568622 11.665974-1.884056 12.523867-.686957 8.584287 11.976067 15.919389 23.543486 19.945248 36.063349 8.707948.643688 19.105778 2.441205 26.25765 6.37064 9.103248-9.706066 23.950802-14.90685 36.189952-19.150649 3.24702-1.126054 6.74296 1.976469 11.34333 2.689066l1.29486-4.611049c-1.30127-1.820221-7.42699-4.430229-9.97263-4.465217-1.07771-.01496-4.13883.841334-5.06644 1.159439-15.218812 2.938529-27.608326 3.520786-43.321792 8.70047-9.943243-10.126465-20.353621-20.142356-32.299775-30.39569-2.46738-2.118027-2.588376-3.440123-5.724554-3.397389zm22.400878 47.973977c-3.975375 6.992427-6.498842 8.680438-11.943751 12.331564-4.784127-1.249983-9.557563-2.524004-15.159516-1.865893-5.613442-.749189-7.902135 1.328774-14.712945 3.712556-2.063812-.694435-4.5301229.266289-6.1158373.942295-2.6060015 1.329042-5.7002459 3.280405-5.0122177 6.56722 1.0547404 3.395252 5.4013705 2.376569 7.3863836 1.523215 1.6679864-.795929 3.2197724-2.344252 4.3687984-3.562985 5.710391.151974 8.246153-.03419 14.152584-2.647401 4.471896 1.816483 10.127271 2.538695 15.19611 2.663427.312574-.232657.633944-.453258.963403-.661317 2.931578-1.842924 6.486819-2.547241 9.698849-1.274021 3.211758 1.273487 5.27343 4.204804 6.082454 7.530882.477825 1.963648.555807 4.101439.228626 6.287041 1.268678 3.559781 2.232879 6.829771 4.515434 11.194301-1.387009 6.08432-.946575 12.09466-.604161 18.2535l-6.084583 2.28362-1.159181 2.95643h18.753219l-2.17331-3.17919-4.372008-2.20536c.935884-6.14495 2.571548-12.21938 1.668249-18.54837.146899-4.72857-1.41264-9.456872-2.336502-14.185441 5.690091-7.008185 2.770788-11.949892 6.757389-19.574255.576197-1.099783 1.219866-2.162873 1.927321-3.183183-7.308401-3.028805-14.552155-5.031717-22.024546-5.358635zm-4.847693 21.859213c-1.082784.03205-2.254775.416661-3.470042 1.180539-1.943877 1.222207-3.841559 3.420093-5.010613 6.266743-1.168791 2.84665-1.354948 5.723747-.818362 7.929109.536577 2.20564 1.68 3.63591 3.214968 4.24434s3.368539.3587 5.312426-.86324c1.944421-1.2222 3.842356-3.42062 5.01142-6.267275 1.168781-2.84665 1.354413-5.723213.817826-7.928846-.536586-2.205633-1.679726-3.636168-3.214432-4.244601-.575583-.228362-1.193362-.335999-1.842929-.316769z" fill="#ffe57c"/></g></svg>