<svg height="500" viewBox="0 0 132.29167 132.29167" width="500" xmlns="http://www.w3.org/2000/svg" xmlns:xlink="http://www.w3.org/1999/xlink"><radialGradient id="a" cx="66.145859" cy="66.145882" gradientTransform="matrix(-.00004147 1 -1 -.00004147 132.294459 .002719)" gradientUnits="userSpaceOnUse" r="66.14584"><stop offset="0" stop-color="#fa0"/><stop offset="1" stop-color="#ff8000"/></radialGradient><radialGradient id="b" cx="66.145828" cy="66.145836" gradientTransform="matrix(0 1.0000017 -1 .00000032 132.29167 -.000124)" gradientUnits="userSpaceOnUse" r="66.145836"><stop offset="0" stop-color="#d45500"/><stop offset="1" stop-color="#a40"/></radialGradient><circle cx="66.145836" cy="66.145836" fill="url(#b)" r="66.145836"/><path d="m80.94711 66.831282 51.34457-.683777-51.34457-.688083 51.06027-5.413135-51.18627 4.050967 50.34637-10.104804-50.59511 8.759867 49.19203-14.706028-49.56891 13.392317 47.62848-19.184491-48.12275 17.908467 45.65685-23.500353-46.26632 22.274941 43.29324-27.609469-44.0147 26.443283 40.56136-31.487072-41.38297 30.397338 37.47952-35.098701-38.40341 34.084343 34.08432-38.40236-35.09869 37.47953 30.39735-41.386203-31.48601 40.563519 26.44436-44.010396-27.60839 43.287855 22.2717-46.259858-23.49927 45.653612 17.90633-48.125974-19.17912 47.630643 13.39233-49.572134-14.70928 49.197402 8.75771-50.597258-10.10695 50.344207 4.06067-51.185196-5.42283 51.059209-.68593-51.34349-.67946 51.34349-5.42176-51.059209 4.05527 51.185196-10.10716-50.344207 8.76222 50.597258-14.70915-49.197402 13.3922 49.572134-19.18501-47.630643 17.91223 48.125974-23.49949-45.653612 22.27191 46.259858-27.61269-43.287855 26.45007 44.010396-31.48705-40.563519 30.39259 41.386203-35.09439-37.47953 34.08356 38.40236-38.40426-34.084343 37.48437 35.098701-41.38782-30.397338 40.56007 31.487072-44.01137-26.443283 43.29333 27.609469-46.26632-22.274941 45.65298 23.500353-48.1208-17.908467 47.62665 19.184491-49.57126-13.392317 49.19685 14.706028-50.59337-8.759867 50.34518 10.104804-51.19145-4.050967 51.06102 5.413135-51.34078.688083 51.34078.683777-51.06102 5.415287 51.19145-4.052042-50.34518 10.108037 50.59337-8.764177-49.19685 14.70818 49.57126-13.390162-47.62665 19.184487 48.1208-17.908464-45.65298 23.498204 46.26632-22.271714-43.29333 27.606232 44.01137-26.447582-40.56007 31.488142 41.38782-30.395178-37.48437 35.099768 38.40426-34.086488-34.08356 38.401278 35.09439-37.481681-30.39259 41.386201 31.48705-40.555977-26.45007 44.006087 27.61269-43.284624-22.27191 46.262004 23.49949-45.655758-17.91223 48.127048 19.18501-47.631714-13.3922 49.569974 14.70915-49.196319-8.76222 50.591869 10.10716-50.339895-4.05527 51.190575 5.42176-51.063511.67946 51.342411.68593-51.342411 5.42283 51.063511-4.06067-51.190575 10.10695 50.339895-8.75771-50.591869 14.70928 49.196319-13.39233-49.569974 19.17912 47.631714-17.90633-48.127048 23.49927 45.655758-22.2717-46.262004 27.60839 43.284624-26.44436-44.006087 31.48601 40.555977-30.39735-41.386201 35.09869 37.481681-34.08432-38.401278 38.40341 34.086488-37.47952-35.099768 41.38297 30.395178-40.56136-31.488142 44.0147 26.447582-43.29324-27.606232 46.26632 22.271714-45.65685-23.498204 48.12275 17.908464-47.62848-19.184487 49.56891 13.390162-49.19203-14.70818 50.59511 8.764177-50.34637-10.108037 51.18627 4.052042z" fill="url(#a)" fill-rule="evenodd"/><path d="m58.220993 13.290887c-14.64255.02504-30.215629 8.509454-39.546875 19.326171l-6.134765 7.111329 9.355468-.830079s4.65765-.393404 9.539063.253907c2.440706.323655 4.886787.928998 6.636719 1.785156 1.749931.856158 2.657249 1.776076 3.046875 2.900391.966293 2.788294.591163 3.581522-.636719 5.142578-1.227883 1.561056-3.873286 3.429702-7.021485 5.658203-6.296397 4.457002-14.619947 11.364624-14.839843 24.52539-.170502 10.208659 5.137627 19.998845 12.777343 27.330077 7.517015 7.21349 17.455483 12.15168 27.69336 12.31641.05059-.006.305884.067.36914.0723.184038.0154.349692.0229.541016.0312.382648.0167.85291.0286 1.425781.0391 1.145744.0209 2.693135.034 4.523438.041 3.660607.014 8.438382.005 13.1875-.0137 9.498236-.0371 18.880859-.11133 18.880859-.11133h.01172.01172c1.757744-.0249 3.712842-.36524 5.195312-2.32617.74124-.98047 1.12783-2.42916.96484-3.66797-.16298-1.23881-.71807-2.21419-1.35351-2.99414-1.69152-2.07622-4.596782-3.40456-8.289064-4.57227 5.015713-6.097614 7.346724-11.397929 7.035154-16.255855-.0761-1.186109-.46779-2.2654-.87695-3.324218 2.83142.316006 5.75173.235763 9.05859-.492188 2.31729-.51008 3.0608-1.968772 3.58594-3.078125s.7755-2.254432.76563-3.537109c-.01-1.282678-.30276-2.774517-1.33789-4.142578-1.03514-1.368061-2.8769-2.324584-4.68164-2.46875l-5.2754-.421875c-1.96599-1.952144-2.981679-3.314876-3.05859-3.365235.0982-.144864.68654-.613934.99609-.917969 5.9342 1.521024 9.90128 2.367744 13.3418 1.587891 1.94039-.439822 3.93702-1.927314 4.77539-3.683594.83803-1.755555.8671-3.33669.86524-4.880859-.004-3.103785-.50085-8.244158-2.85743-13.236328-1.9682-4.169439-5.79444-8.143658-11.28125-9.638672.0804-.4931.13395-.895035.2461-1.513672.1913-1.055283.46533-2.145211.26172-3.753906-.10181-.804348-.36543-1.870582-1.23438-2.865235-.86895-.994652-2.30073-1.576011-3.41797-1.65039-4.114126-.273907-7.05537 1.940681-9.589842 4.335937-1.267236 1.197629-2.372094 2.525318-3.193359 4.048828-.396808.736111-.756039 1.559757-.962891 2.462891-.235497.144632-.481698.262024-.71289.417969-.002-.678834.07102-1.34102-.07227-2.046875-3.299617-16.256179-16.482-23.618616-28.716797-23.597656z" fill="#592d0d"/><path d="m58.22809 17.099503c-13.082367.02237-28.111687 8.085807-36.66894 18.005317 0 0 19.949058-1.769976 23.156711 7.48611 5.180777 14.949427-21.898128 13.258368-22.288744 36.63671-.294175 17.613464 18.857613 35.82114 37.16232 35.83253.889283.29648 38.397485 0 38.397485 0 4.174798-.0591 4.348478-4.75854-10.300777-7.73088 30.724235-31.198899-18.305138-33.566466-18.033757-9.659965-3.789249-3.967672.121769-21.062466 20.615914-20.22179 6.944979 4.954585 10.934918 5.776058 18.688788 4.069174 1.47341-.324327 2.54291-5.415649-1.15265-5.710857l-6.70652-.535972c-5.931197-5.418182-7.347634-7.697121-1.407574-12.12544 14.533624 3.810473 16.259214 2.548193 16.252674-2.812803-.006-5.244729-2.01048-19.124743-13.89252-19.796186-1.62513-2.175755 2.066-8.871408-.83419-9.064485-4.01252-.267142-10.653202 5.996356-9.763504 9.239626-3.869224 1.636406-8.172754 6.574321-12.4824 12.57933-14.627734 5.366061-25.215932 30.098684-25.355216 36.00557-.122183-38.496157 32.338607-38.107683 29.589738-51.649652-2.96919-14.628266-14.137303-20.564906-24.976838-20.546337zm47.8345 30.892726c1.51183 0 2.7375 1.225563 2.7375 2.737472 0 1.511697-1.22567 2.73726-2.7375 2.73726-1.51202 0-2.73767-1.225563-2.73767-2.73726 0-1.511909 1.22565-2.737472 2.73767-2.737472z" fill="#f6c155" stroke-width="7.61825"/></svg>