<svg height="500" viewBox="0 0 132.29167 132.29167" width="500" xmlns="http://www.w3.org/2000/svg" xmlns:xlink="http://www.w3.org/1999/xlink"><radialGradient id="a" cx="66.145859" cy="66.145882" gradientTransform="matrix(-.00004147 1 -1 -.00004147 132.294459 .002719)" gradientUnits="userSpaceOnUse" r="66.14584"><stop offset="0" stop-color="#fa0"/><stop offset="1" stop-color="#ff8000"/></radialGradient><radialGradient id="b" cx="66.145828" cy="66.145836" gradientTransform="matrix(0 1.0000017 -1 .00000032 132.29167 -.000124)" gradientUnits="userSpaceOnUse" r="66.145836"><stop offset="0" stop-color="#d45500"/><stop offset="1" stop-color="#a40"/></radialGradient><circle cx="66.145836" cy="66.145836" fill="url(#b)" r="66.145836"/><path d="m80.94711 66.831282 51.34457-.683777-51.34457-.688083 51.06027-5.413135-51.18627 4.050967 50.34637-10.104804-50.59511 8.759867 49.19203-14.706028-49.56891 13.392317 47.62848-19.184491-48.12275 17.908467 45.65685-23.500353-46.26632 22.274941 43.29324-27.609469-44.0147 26.443283 40.56136-31.487072-41.38297 30.397338 37.47952-35.098701-38.40341 34.084343 34.08432-38.40236-35.09869 37.47953 30.39735-41.386203-31.48601 40.563519 26.44436-44.010396-27.60839 43.287855 22.2717-46.259858-23.49927 45.653612 17.90633-48.125974-19.17912 47.630643 13.39233-49.572134-14.70928 49.197402 8.75771-50.597258-10.10695 50.344207 4.06067-51.185196-5.42283 51.059209-.68593-51.34349-.67946 51.34349-5.42176-51.059209 4.05527 51.185196-10.10716-50.344207 8.76222 50.597258-14.70915-49.197402 13.3922 49.572134-19.18501-47.630643 17.91223 48.125974-23.49949-45.653612 22.27191 46.259858-27.61269-43.287855 26.45007 44.010396-31.48705-40.563519 30.39259 41.386203-35.09439-37.47953 34.08356 38.40236-38.40426-34.084343 37.48437 35.098701-41.38782-30.397338 40.56007 31.487072-44.01137-26.443283 43.29333 27.609469-46.26632-22.274941 45.65298 23.500353-48.1208-17.908467 47.62665 19.184491-49.57126-13.392317 49.19685 14.706028-50.59337-8.759867 50.34518 10.104804-51.19145-4.050967 51.06102 5.413135-51.34078.688083 51.34078.683777-51.06102 5.415287 51.19145-4.052042-50.34518 10.108037 50.59337-8.764177-49.19685 14.70818 49.57126-13.390162-47.62665 19.184487 48.1208-17.908464-45.65298 23.498204 46.26632-22.271714-43.29333 27.606232 44.01137-26.447582-40.56007 31.488142 41.38782-30.395178-37.48437 35.099768 38.40426-34.086488-34.08356 38.401278 35.09439-37.481681-30.39259 41.386201 31.48705-40.555977-26.45007 44.006087 27.61269-43.284624-22.27191 46.262004 23.49949-45.655758-17.91223 48.127048 19.18501-47.631714-13.3922 49.569974 14.70915-49.196319-8.76222 50.591869 10.10716-50.339895-4.05527 51.190575 5.42176-51.063511.67946 51.342411.68593-51.342411 5.42283 51.063511-4.06067-51.190575 10.10695 50.339895-8.75771-50.591869 14.70928 49.196319-13.39233-49.569974 19.17912 47.631714-17.90633-48.127048 23.49927 45.655758-22.2717-46.262004 27.60839 43.284624-26.44436-44.006087 31.48601 40.555977-30.39735-41.386201 35.09869 37.481681-34.08432-38.401278 38.40341 34.086488-37.47952-35.099768 41.38297 30.395178-40.56136-31.488142 44.0147 26.447582-43.29324-27.606232 46.26632 22.271714-45.65685-23.498204 48.12275 17.908464-47.62848-19.184487 49.56891 13.390162-49.19203-14.70818 50.59511 8.764177-50.34637-10.108037 51.18627 4.052042z" fill="url(#a)" fill-rule="evenodd"/><g transform="scale(.26458334)"><path d="m250 0c-16.29502-.00000049-32.21877 1.5777079-47.64453 4.5546875l1.93555 25.5468745c-22.76176 9.117234-39.50697 19.574325-50.29102 31.152344-.004.0042-.004.01342-.008.01758-12.59445 13.416971-17.24626 29.251151-14.53125 43.369134l.01.0391v.0293c5.46825 27.62896 34.40086 50.47844 77.79102 65.26563 0 0 3.23656 1.83167 3.96289 3.41797 1.64326 3.58888 0 11.84179 0 11.8418-11.85555 3.60976-17.73004 7.97297-27.53906 13.71484l-.0762.0469-.0742.043c-9.772 5.91148-17.55145 13.14594-19.58204 23.70508l-.008.0234v.0156c-3.57802 18.9289.92592 34.40222 10.44531 45.23047 7.13052 8.33281 16.81947 14.44579 28.02735 20.37305 0 0 4.57326 4.43667 5.74414 7.30469 1.7299 4.23732 1.49414 13.64843 1.49414 13.64843s-1.16931 3.29387-5.18359 5.39454c-8.01444 4.19394-15.05036 8.34246-19.91993 16.19335-3.65426 8.02543-5.69957 18.84378-4.96484 26.57227.7832 7.34253 4.1698 13.69864 7.93164 18.28906 5.33688 6.57624 13.7452 9.25177 19.64453 15.00391 2.28374 2.22675 5.99805 7.45508 5.99805 7.45508l1.875 22.45507c-8.23387 1.99427-11.28005 5.46027-16.23633 9.22657-6.55575 4.98172-14.08358 11.25467-17.50976 17.42187l-.0312.0586-.0371.0625c-3.01682 5.58104-3.69258 13.63223-2.1836 18.66211l.0449.13671.0371.13477c3.0708 9.44889 9.91373 15.27659 19.63672 21.39844l19.35559 12.19527-.51953-22.88281c-.0768-3.37448.25107-5.42431 1.20508-7.60547l.01-.008c1.73005-2.69061 3.83979-3.72578 6.70313-4.47461l1.98633 34.6582 20.22265.18164c4.88005-.14809 9.72152-.44131 14.52735-.86523l3.13867-44.60938c4.53805-1.57848 9.07492-2.77223 13.48242-4.92773 15.73711-7.69625 29.84865-19.95534 32.01172-38.26953l.008-.11329.0137-.11328c.72324-7.23469-2.36982-12.53524-6.5664-17.82031l-.008-.008c-4.42947-5.60795-10.21061-9.85569-15.94726-14.23828-5.91386-4.51797-10.3091-7.48152-16.65039-11.17188l1.09961-14.28125c7.06709-5.77486 14.85605-12.11304 22.91797-18.97656 9.1074-7.56072 15.69879-15.52095 17.30078-25.98438 1.33308-8.4305-1.65969-13.84008-5.7461-20.48046l-.0762-.11915-.0742-.11328c-4.27109-6.60081-10.00898-12.75637-16.04492-18.35156-4.986-4.9276-10.91193-10.28147-16.00976-11.10742v-15.7793s3.15497-1.53657 6.54687-3.1875c10.02214-4.22864 26.46426-14.0386 36.21875-30.16601l.0215-.0371.0215-.0371c5.79125-9.73423 7.60586-19.65239 6.11719-27.82422-1.48567-8.60191-6.11307-15.96256-13.4375-24.13477-7.32443-8.1722-18.51332-16.1695-29.41016-24.21484l-4.66406-3.44141-.42578-4.65039c18.5161 4.62242 27.31588 4.27855 42.49804.875l23.15625 7.66211c12.12288 4.01189 24.78316 7.47078 37.73438 9.99414 3.51965 12.03845 8.76083 24.11957 18.01758 35.18946l7.9082 9.46093 32.9082-27.66601-7.87109-9.40625c-3.62528-4.33146-6.10476-8.59052-8.0293-12.96289 4.87552-.72508 9.8718-.98464 13.85157-.22657l12.20312 2.32032 7.66016-42.601565-12.24024-2.078125c-5.46391-.93004-11.02157-1.418349-16.60937-1.296875h-.0215-.0156c-12.50366.30497-24.0383 3.449367-34.21094 8.095705-9.04475-1.38578-18.59612-3.651142-28.88477-6.837892l-8.05304-2.491828c-1.34938-4.892734-4.73234-9.260973-9.29297-13.226562-13.9049-12.51315-36.28694-21.054406-52.52148-25.144532-3.39485-1.798609-6.40038-4.095362-9.51563-6.210937l3.3086-43.6718752c-15.55517-3.0294155-31.625-4.6210933-48.06641-4.6210938zm-26.11133 102.4043c1.42372.71025 2.36905 1.03904 3.77344 1.7207l-.48047 9.47852c-3.99253-2.15496-4.45258-2.72362-5.35547-4.99024-.37796-.94883-.10971-2.08264.19141-3.05859.36022-1.16766 1.87109-3.15039 1.87109-3.15039z" fill="#592d0d"/><path d="m249.52539 0a250 250 0 0 0 -34.54492 2.4648438l.83594 16.6464842.4082-.101562c5.91804-1.26523 11.52867-1.928543 16.73242-2.091797 15.71338-.489767 28.46893 3.51871 38.97852 9.18164 3.97933 2.173339 7.65144 4.521029 11.22265 6.898438l1.41992-30.5937501a250 250 0 0 0 -34.57812-2.4042969zm-13.60937 35.089844c-.71425 0-1.52989-.000477-2.24414.101562-3.97938.173462-8.26492.744638-13.06055 1.734375-28.26363 9.693306-47.03877 21.336658-57.65039 32.744141-10.71363 11.407487-13.46845 22.038778-11.42774 32.650388 3.87733 19.59067 28.67345 42.03882 69.69141 56.01758v-33.97851c-5.10171-2.75494-9.08282-6.02043-11.02149-11.73438-1.32645-3.77529-.91723-7.95802.20508-11.12109 1.12238-3.265115 2.85578-5.815377 4.89649-8.570316l4.59179-6.22461 6.93946 3.572266c49.07872 24.89648 83.26065 31.22234 110.5039 19.89648 13.06046-5.40784 16.7325-10.510018 17.14063-12.142574.30618-1.632555-.50866-4.592031-5.81445-9.183594-10.40755-9.407602-33.8758-19.162755-48.0586-22.652343l-1.02148-.275391-1.01953-.529297c-13.97876-7.377127-24.18242-17.040901-35.40625-23.142578-7.95871-4.285459-16.12235-7.253942-27.24414-7.162109zm50.81445 37.947265c4.45527.0087 8.06169 3.605171 8.06055 8.039063.0238 4.449811-3.58922 8.073104-8.06055 8.082031-4.47131-.0087-8.0844-3.632235-8.06055-8.082031-.001-4.433881 3.60529-8.030086 8.06055-8.039063zm150.80664 33.365231c-12.55026.30607-24.4888 3.57061-33.67188 8.57032-10.71367-1.42849-21.83533-4.28621-33.36523-7.85743-2.75492 5.71395-7.75403 10.40837-14.89648 14.5918 14.18283 4.6936 28.67077 8.87633 43.26171 11.12109 2.75494 13.06045 8.16318 26.01945 18.06055 37.85547l14.08203-11.83593c-7.85669-9.3872-12.14239-19.08027-14.28515-29.58985 8.57094-3.36714 21.12038-5.61296 31.83398-3.57226l3.26563-18.16211c-4.79562-.81628-9.59155-1.22313-14.28516-1.1211zm-197.94727 10.10157v58.87304c6.83634-1.83662 13.06132-3.57104 17.95899-5.10156 3.67325-1.22442 6.2234-2.24427 7.7539-3.06055l.30665-40.81445c-8.36682-2.6529-16.93841-5.91713-26.01954-9.89648zm44.28321 26.32421-.20313 27.95704v-.30469c.1022 3.67325-1.73464 6.83525-3.36719 8.67187-1.73458 1.83663-3.47045 2.85661-5.20507 3.87696-3.57121 1.93866-7.44748 3.26487-12.03907 4.69336-9.08108 2.85697-20.50962 5.7144-31.9375 9.18359-11.42788 3.46918-22.85582 7.75468-31.22265 12.65234-8.2648 4.99971-12.85662 10.20396-13.87696 15.50977-3.16308 16.7337-.10244 26.12149 7.65235 34.89648 5.30583 6.22413 13.87669 11.93692 24.48828 17.54883l-2.44727-21.73242 6.22266-2.6543c18.67238-8.26481 39.07986-14.08076 56.42578-21.52929 17.44796-7.34651 31.32394-16.12113 38.97656-28.77344 4.79563-8.06075 5.61217-13.87684 4.5918-19.38672-.91829-5.40784-4.0814-10.91644-9.28516-16.73242-7.14245-7.95871-17.85572-15.81621-28.77343-23.87696zm-17.44727 113.15626c-10.61163 3.87732-21.22467 7.44837-30.91797 11.42773l3.36719 30.81445h.10352c9.18312-2.959 17.75331-5.50914 23.36523-7.7539 2.34679-1.02035 3.77502-1.83701 4.69336-2.44922zm18.67188 15.71289.30664 18.57031v.20508c0 5.40784-3.47069 9.38758-6.42969 11.73437-2.959 2.24477-6.12215 3.77464-9.69336 5.20313-7.14242 2.95901-15.7128 5.40865-24.58984 8.26562-17.44796 5.61191-34.6917 13.67167-39.69141 21.73242-5.61192 16.12147-3.57086 23.775 2.04102 30.61133 3.4692 4.28546 9.18271 8.16178 16.12109 12.03906l-2.24414-19.08007 7.44922-2.14258s20.30453-6.01964 41.01758-16.1211c10.40754-5.10171 20.81421-11.12212 28.46679-17.65234 7.75463-6.42819 12.2443-13.06091 13.06055-18.46875.40816-2.55087-.81691-6.83678-4.08203-12.14258-3.36715-5.20378-8.57021-10.91779-14.08008-16.01953-2.55087-2.44883-5.20351-4.69368-7.65234-6.73437zm-20.30469 93.36328c-10.10142 4.28546-18.16248 7.03885-23.57031 8.77343l.50976 7.14258 3.52149 30.40625c5.9691-1.32646 11.06974-2.85672 13.72265-4.28515 2.75492-1.42851 2.24414-1.32569 2.24414-1.42774l3.36719-37.95703zm16.9375 17.95703-2.14258 24.28515c-.71425 7.6526-6.6327 13.26412-12.14258 16.1211-5.61191 2.85698-11.73438 4.38741-18.06054 5.91797-12.6523 2.95899-26.42694 5.91874-33.77344 10.8164-7.24446 4.79562-11.52965 9.48883-13.57031 13.16211-2.04071 3.77522-2.14294 6.22408-1.22461 9.28516 1.32642 4.0814 6.2254 9.59115 14.49023 14.79492-.1022-4.48951.40752-8.67394 2.24414-12.85742 1.93867-4.3875 5.91862-7.95781 10-9.89649 4.08138-1.93863 8.36505-2.85707 13.4668-3.77539 11.32587-1.93863 28.46851-5.61093 42.44726-12.44726 13.97876-6.83634 23.67262-15.71346 25.20313-28.67188.20402-2.04071-.81743-5.00108-3.98047-8.98047-3.06104-3.8773-8.05992-8.05917-13.26367-11.73242-3.36717-2.24481-6.63232-4.28687-9.69336-6.02148zm-19.18359 82.13867c-5.3058 1.32646-10.20283 2.34588-14.48829 3.16211l-.3125 31.67187a250 250 0 0 0 2.25391.00977 250 250 0 0 0 11.95508-.28516z" fill="#f6c155"/></g></svg>