<svg height="500" viewBox="0 0 132.29167 132.29167" width="500" xmlns="http://www.w3.org/2000/svg" xmlns:xlink="http://www.w3.org/1999/xlink"><radialGradient id="a" cx="66.421852" cy="66.422104" gradientTransform="matrix(0 .9652088 -1 .00000664 132.84419 2.310697)" gradientUnits="userSpaceOnUse" r="66.145836"><stop offset="0" stop-color="#8a0"/><stop offset="1" stop-color="#dde9af"/></radialGradient><radialGradient id="b" cx="67.809837" cy="64.481827" gradientTransform="matrix(0 1.0251567 -1 -.00000016 132.29167 -5.03387)" gradientUnits="userSpaceOnUse" r="66.145835"><stop offset="0" stop-color="#dde9af"/><stop offset="1" stop-color="#bcd35f"/></radialGradient><g><circle cx="66.145836" cy="66.145836" fill="url(#a)" r="66.145836"/><path d="m66.159567 0-.01603 65.815118-4.212132-65.6801423a66.145615 66.195221 0 0 0 -8.381374 1.0767074l11.91758 61.1638679c-.027.0096-.06001.01448-.10025.01448l.628898 3.425086-.06615-.141184-.141594-.355281-.888314-2.808126c-.048.01848-.09145.03309-.135392.03309l-.032039.020682-22.01202-58.2740328a66.145615 66.195221 0 0 0 -3.900009 1.6228171l25.638144 56.7810207-.05788.03051.609781 1.174449.620115 1.380274.01447.01292.110069.198067.197405.335115v.0083l-.197405-.34338-.124539-.210997-1.462437-2.436812c-.0487.03215-.100753.06285-.149862.104982l-32.651629-53.0585855a66.145615 66.195221 0 0 0 -9.04283 6.7224355l43.536734 49.318544-.105421-.153595.220142.271504v.01345l-.0863-.08585-.02479-.03414-.0011-.0016-.00053-.000531-46.61453-46.425072a66.145615 66.195221 0 0 0 -5.563466 6.363534l49.352897 37.94796-.03772.04913 2.769848 2.186511-.554486-.28495-2.489247-1.498183c-.0369.04804-.06013.0882-.08113.125152l-55.032615-29.03793a66.145615 66.195221 0 0 0 -1.8520773 3.811914l56.7601713 25.49085c-.0196.04694-.04381.100304-.06821.157213l3.221499 1.253055-.0098-.0067.139008.06258-.128674-.05585.09457.0481.05633.02121-.05633-.01345v-.0078l-3.388412-1.079811c-.01479.03954-.03321.08864-.04651.134461l-59.5222895-18.079568a66.145615 66.195221 0 0 0 -2.31922923 11.03288l65.13017673 8.143048h-.327111l-65.18391895-3.921551a66.145615 66.195221 0 0 0 -.11162205 3.839322 66.145615 66.195221 0 0 0 .16174719 4.622807l62.04303681-4.283037h-.0072l.08113-.0062-.07338.0062 3.431304-.194449-2.029327.490776-.0801.01345-1.267104.248232.0186.06309-60.3780271 14.79308a66.145615 66.195221 0 0 0 1.1342941 4.067384l59.31244-18.59206c.02471.09608.0492.184078.0739.253922l3.165686-1.181689-1.780246.933457-57.7358222 26.467743a66.145615 66.195221 0 0 0 5.5603672 9.787586l53.976889-36.964861-.778244.631959-50.693896 39.741952a66.145615 66.195221 0 0 0 5.630127 6.29734l43.58066-44.301151c.0739.06984.149905.133839.221173.212547l2.018992-2.2827v-.0083l.200505-.229096.04909-.06258.205154-.223925.0052-.01708.01498-.0072-.0062.04189-.02739.03051.01344-.0481-.0181.0481-.34933.459745.162262-.276675-.04909.05534-.200505.23737-.687812.973276-1.131193 1.475431.07596.0481-35.433379 51.044788a66.145615 66.195221 0 0 0 3.53928 2.29668l32.110595-53.180626c.0295.01848.06779.04342.106971.06155l1.827788-3.11376-.0739.190312-26.497521 59.932004a66.145615 66.195221 0 0 0 10.618954 3.65057l15.793815-62.648602-.416511 2.440949.06253.01498-11.315547 61.089913a66.145615 66.195221 0 0 0 8.371039.99551l3.421486-62.045086c.0639.0063.120384.0062.174663.0062h.0083v-3.270974l.01447-.230651.100769.886913.16743 2.608505c.0513 0 .08957-.0062.133843-.0062l7.209356 61.709453a66.145615 66.195221 0 0 0 4.175957-.62058l-11.151779-61.123009c.0672-.0074.125399-.02423.18707-.03051l-.546219-2.835016-.01447-.03672-.08475-.474225.0047.0078.09457.503189 19.682972 61.960271a66.145615 66.195221 0 0 0 10.372976-4.28614l-29.408494-57.084113 1.095536 1.777445.07131-.04913 31.927669 53.299048a66.145615 66.195221 0 0 0 6.93495-4.79037l-38.498278-48.76932c.0672-.04952.111222-.103262.173632-.1598l-2.237582-2.527829.890897.802101 1.546154 1.544726.07597-.08119 46.255947 41.494062a66.145615 66.195221 0 0 0 2.71766-3.2234l-48.809799-38.459423c.0343-.04176.08071-.08805.108004-.12722l-2.477359-1.9088 55.981924 33.545463a66.145615 66.195221 0 0 0 4.9542-10.105115l-60.76301-23.591874 2.917643.890532.0031-.04913 59.247867 18.762207a66.145615 66.195221 0 0 0 2.03294-8.199932l-61.168673-11.060808c0-.04286.0098-.07977.0098-.118944l-1.949227-.239957-1.20406-.211513 3.183259.187208c.008-.08722.0078-.166267.0078-.254955l62.179461.472158a66.145615 66.195221 0 0 0 .003-.581796 66.145615 66.195221 0 0 0 -.10077-3.654699l-62.089546 3.537825v-.08791l-3.115562.214616-.583941.03724.572572-.03724h.01138l64.199097-12.066152a66.145615 66.195221 0 0 0 -2.98378-10.860672l-61.119584 22.662557-.06873.01811 2.780182-1.267536c-.0454-.09497-.104507-.213984-.174667-.318564l55.077019-28.975934a66.145615 66.195221 0 0 0 -2.08411-3.679007l-53.110794 32.448069-.05581-.08687-1.487242 1.032748-1.245397.758143 2.558491-2.010164-.03824-.05482 48.522462-39.013808a66.145615 66.195221 0 0 0 -7.76953-8.164252l-42.664438 48.409904-.613398.627303 40.028946-51.73415a66.145615 66.195221 0 0 0 -6.989211-4.752094l-31.551458 53.696738-.02479-.01758-1.86913 3.092559 1.465539-3.294764c-.0727-.04065-.149616-.0656-.230478-.09515l22.067313-58.2564578a66.145615 66.195221 0 0 0 -4.000776-1.3740679l-18.330616 59.5519077c-.0288-.01001-.05899-.01721-.100768-.03051l-.497644 1.994648-.298689.978447.55707-3.033602c-.0532-.0052-.107984-.01485-.162263-.01965l10.616888-61.40692615a66.145615 66.195221 0 0 0 -11.2277-.96345085zm-.514698 62.352279.267684 2.320453v.01139l.230477 1.179104v.122048l.0078-.04447.0062.166004v.02741l-.01498-.02741v-.116358l-.01757.08119-.06305-.130838-.148827-1.256677zm-2.477875 1.32442 1.874815 1.68643-.0067-.0052zm6.817649 1.592825-3.128997.767451h-.01498zm-3.21478.03051-.430465.736421-.0925.106016.02946-.118943-.02429.05482-.0052.0481-.01344.02792v-.0067l.01344-.02121v-.04292l.0052-.0052v-.02793l.0031-.0062.02169-.03206v-.0062l.0088-.0072.01603-.03982v.0052l-.01603.03465-.0088.01345zm-1.727538.0631.87953.673846.09612.149972-.118855-.04447.05323.03672h-.0057l-.05788-.03672h.0098zm1.331696.06516-.07855.420443.07855-.222374-.08836.364074-.02687.03982.03669-.18152.06925-.414755zm-.153994.101877-.02273.454575-.01498.0512-.031-.1236zm.831987.197036-.602028.420444h-.0062l-.109034.07344-.07596.03103.05633-.07291.01963-.0057.234609-.188759zm-1.069699.153076.03566.03724v.01242l-.02222-.0331zm1.022159.08378h.0078l-.04599.02121zm-.932757.0481.04857.09464v.01036l-.04857-.0936zm.110069.02481.0052.06981v.01036l.01035.02534.01241.03103-.01241.0057-.01035-.03154.01035-.0052-.01035-.01602v-.0093l-.01498-.0693zm.587559.01705-.0186.0072-.268715.08119.04134-.01602zm-1.491894.01758.626833.107567.09147.05688.0078.01604-.08268.01705zm.572573.08274h.01394l.02479.0083zm.192237.05068h.0052v.0052zm-.04341.01604h.0052l.01963.02121zm.05685.0481h.0062l-.0062.0083zm-.08888.04447h.01498l.06511.0093-.214973.08688zm-.102835.0093h.05736l-.246495.126699.06976-.01395-.0067.0072-.06305.0067h-.000529l-.535883.103948v.0062l-1.386991.247197 1.386991-.253403zm.470252.0062.134361.01139.198953.05895-.22376-.02224zm-.05788.04344.0093.0047.02946.05844.08682.04395.380856.371316-.357083-.266852-.06201-.07861-.04909-.06981-.0047-.0088-.02429-.04965h-.0093zm-.28112.02121-.06615.0724h-.0078l-.735871.334595.608228-.3739zm.415477.02637.03928.0067.0083.0083zm.0584.0067.512112.159801-.504362-.151007zm-.312125.04551.0083.0331.0057-.02587-.0057.03464.000529.0016.02016.06103.03307.501635-.0615-.357867.0083-.204791-.02326.134458v-.02431l-.0083-.04913.0083.03776v-.06981zm.191202.02431.01601.01758.02326.03879-.0098-.0083zm-.30179.0481-.0646.139114-1.044894 3.40026 1.037661-3.40026h.0072l.02223-.07602.0016-.0031zm-.02326.02792-.01707.03.01085-.02587zm.387571.02121.0088.0062.03049.05017-.02429-.02431zm-.115755.05637.0062.0078.0078.05998zm-.457849.07033v.0078l.01344-.0078zm.606677.357867 1.291909 2.854669-1.291909-2.840188z" fill="url(#b)"/></g><path d="m388.07845 500s-18.48042-11.3885-28.3304-15.88049c-25.72434-11.73135-54.76363-22.92718-79.82617-28.67187-9.64415-18.57752-14.95276-38.33211-16.94141-58.39649 8.87516-38.93437 24.32815-58.21066 50.1988-83.25877l8.07621-7.37245c11.5443 6.63456 26.18619 7.625 42.05604 5.08202 15.53721 18.81121 34.63225 29.93988 54.40723 31.71875 21.45294 1.92969 43.50974-6.72346 60.88672-24.22656 15.47006-15.58283 21.75299-35.60066 19.67587-53.80664-1.80893-15.88332-9.49618-30.65083-20.82804-43.125 8.60588-10.18068 11.30029-23.6542 8.98438-35.75781-2.28797-11.95713-10.80214-23.89485-23.24627-28.92969 3.53658-45.01944-18.44741-83.890494-52.69922-105.494141-34.51449-21.770758-81.40579-26.56898-127.16788-6.56738-16.93855-17.265463-39.06673-26.616335-61.03329-27.729495l-.50977-.0293-9.32227.07422-.49609.03516c-23.93784 1.53752-47.19284 13.106781-59.2207 35.116211-28.30589-15.290097-60.145836-11.247599-82.798831 4.030272-12.292425 8.288288-22.383883 19.681733-27.667968 33.757812-4.521199 12.043851-4.769429 25.959181-.782227 39.969731-20.226007 15.43524-33.4054554 33.45656-38.0908202 53.58886-4.8270407 20.73432-.9109616 43.21864 9.6298812 66.66895-6.7776336 11.78476-9.7550311 24.37448-7.9306665 36.16113 2.0663145 13.34982 9.5420195 24.83656 19.5019535 33.12891 13.096533 10.90704 30.344644 14.32209 44.46875 10.75204 13.686995-3.45777 25.651752-12.42659 36.676758-24.51544 16.82018-1.44216 31.59592-5.73089 44.4795-12.47842l1.46875 1.93359c9.84778 12.98444 17.93313 29.56619 25.93359 47.96094 6.14885 35.98825 5.35406 75.70082-1.18945 112.60352-24.37519 5.8117-54.18958 13.97313-78.19532 27.69726-7.184052 4.10714-19.015063 15.96057-19.015063 15.96057zm-192.62728-260.10352c3.55456 12.69784 6.42504 25.85632 8.65039 39.2793-3.63764-5.91336-6.96032-11.94727-11.3457-17.5625l-4.07422-5.21094c2.74185-5.22095 5.06324-10.70997 6.76953-16.50586z" fill="#536020" transform="scale(.26458334)"/><path d="m56.379516 9.3090402c-5.183255.3329187-9.68491 2.6690438-11.968394 6.9758568l4.548894 3.234239h-7.564798c-2.666724-1.356461.10633-.06865-2.935636-1.362654-5.976579-3.385473-12.590875-2.487876-17.355774.725717-5.177569 3.491026-7.931788 9.240756-5.226086 15.508706l.798231 1.846809-1.669764 1.112318c-5.5319164 3.706006-8.5158165 7.843777-9.5809009 12.420282-1.065611 4.577279-.2113723 9.803366 2.7178169 15.70304l.6374528 1.298134-.8387491 1.17787c-3.5604482 5.001559-2.2917363 9.979376 1.5402087 13.169742 2.5918806 2.158567 5.0273736 2.576138 7.6535796 1.911587 2.62646-.664295 5.458351-2.619496 7.928169-5.645208l.68519-.838755 1.072322-.04826c7.156001-.309694 12.82391-3.002743 16.50927-7.153934s5.476426-9.801819 4.572636-16.492759l-.266337-1.959851 1.871069-.645196c2.081661-.714361 3.801493-2.10334 4.855487-4.007958l1.362654-2.468262 2.226188 1.734287c1.649124 1.284198 5.932705 2.167085 8.097208 1.540212l2.65305-.766493.403636 2.734341c1.109729 7.577699 6.295305 13.557892 12.919403 15.524707l2.129145.629196-.451636 2.177407c-.816042 3.868595.386342 6.729395 2.694338 8.621367 2.307216 1.892231 5.882383 2.757052 10.000535 1.66151l1.604478-.427378.976049 1.354911c3.487429 4.863488 7.728169 7.248649 11.959879 7.629315 4.23197.380665 8.59143-1.224583 12.39602-5.056789 3.25798-3.281725 4.29804-6.841659 3.88718-10.435917-.41034-3.595032-2.40477-7.257165-5.6132-10.202614l-2.19367-2.016109 2.42748-1.726028c2.03315-1.44524 2.77176-4.108609 2.2987-6.581-.47305-2.472392-1.94255-4.303974-4.21828-4.588634l-2.41949-.298597.33034-2.419485c1.50769-10.985624-3.51503-20.039273-11.70179-25.202906-8.18703-5.164149-19.529579-6.319308-30.655079-.798753l-1.734286.863014-1.217357-1.516469c-3.474768-4.334685-8.780603-6.6501589-13.944749-6.9118529zm.78197 41.3325558c-1.033081 1.239809-2.288381 2.251477-3.677615 3.04068 3.088689 7.739772 4.859623 15.686781 5.944322 24.138591-1.17555 2.900027-2.497168 5.775795-4.000213 8.629368l-.04048.01651c-2.203988-5.042073-4.664256-10.053957-8.048954-14.387868-.131613.156654-.267108.31434-.403373.467638-.93631 1.055025-1.974815 2.022819-3.096941 2.903383 3.105719 4.09493 5.432034 8.988871 7.670093 14.178312 1.993396 11.19802 1.64809 23.55405-.717973 34.79207-6.897663 1.30923-14.245411 3.92795-22.864203 7.87139h65.277838c-8.368968-3.94395-15.553871-6.57068-22.372301-7.87914-3.600196-6.22381-5.428942-12.93746-6.000321-19.61395 2.501295-11.658439 7.356264-18.502163 14.71047-25.622546-4.974721 1.982042-9.657813 4.467338-13.597385 8.24225.181173-.880047.38403-1.746158.596163-2.604527 2.44555-6.225626 6.160338-11.825154 11.081889-16.880135-1.492725-.698102-2.90338-1.546922-4.20229-2.548266-3.280173 3.497478-6.079037 7.259229-8.339033 11.298672 1.84681-4.95175 3.324056-9.915888 4.661671-14.863251-1.404714-1.691963-2.588525-3.595807-3.500314-5.661725-1.075413 4.136997-2.19676 8.244574-3.484063 12.315502-1.196707-6.022001-2.869825-11.892253-5.258342-17.670629-.113041-.05265-.227106-.105812-.338859-.161299z" fill="#d7e698"/></svg>