<svg height="500" viewBox="0 0 132.29167 132.29167" width="500" xmlns="http://www.w3.org/2000/svg" xmlns:xlink="http://www.w3.org/1999/xlink"><radialGradient id="a" cx="66.421852" cy="66.422104" gradientTransform="matrix(0 .9652088 -1 .00000664 132.84419 2.310697)" gradientUnits="userSpaceOnUse" r="66.145836"><stop offset="0" stop-color="#8a0"/><stop offset="1" stop-color="#dde9af"/></radialGradient><radialGradient id="b" cx="67.809837" cy="64.481827" gradientTransform="matrix(0 1.0251567 -1 -.00000016 132.29167 -5.03387)" gradientUnits="userSpaceOnUse" r="66.145835"><stop offset="0" stop-color="#dde9af"/><stop offset="1" stop-color="#bcd35f"/></radialGradient><circle cx="66.145836" cy="66.145836" fill="url(#a)" r="66.145836"/><path d="m66.159567 0-.01603 65.815118-4.212132-65.6801423a66.145615 66.195221 0 0 0 -8.381374 1.0767074l11.91758 61.1638679c-.027.0096-.06001.01448-.10025.01448l.628898 3.425086-.06615-.141184-.141594-.355281-.888314-2.808126c-.048.01848-.09145.03309-.135392.03309l-.032039.020682-22.01202-58.2740328a66.145615 66.195221 0 0 0 -3.900009 1.6228171l25.638144 56.7810207-.05788.03051.609781 1.174449.620115 1.380274.01447.01292.110069.198067.197405.335115v.0083l-.197405-.34338-.124539-.210997-1.462437-2.436812c-.0487.03215-.100753.06285-.149862.104982l-32.651629-53.0585855a66.145615 66.195221 0 0 0 -9.04283 6.7224355l43.536734 49.318544-.105421-.153595.220142.271504v.01345l-.0863-.08585-.02479-.03414-.0011-.0016-.00053-.000531-46.61453-46.425072a66.145615 66.195221 0 0 0 -5.563466 6.363534l49.352897 37.94796-.03772.04913 2.769848 2.186511-.554486-.28495-2.489247-1.498183c-.0369.04804-.06013.0882-.08113.125152l-55.032615-29.03793a66.145615 66.195221 0 0 0 -1.8520773 3.811914l56.7601713 25.49085c-.0196.04694-.04381.100304-.06821.157213l3.221499 1.253055-.0098-.0067.139008.06258-.128674-.05585.09457.0481.05633.02121-.05633-.01345v-.0078l-3.388412-1.079811c-.01479.03954-.03321.08864-.04651.134461l-59.5222895-18.079568a66.145615 66.195221 0 0 0 -2.31922923 11.03288l65.13017673 8.143048h-.327111l-65.18391895-3.921551a66.145615 66.195221 0 0 0 -.11162205 3.839322 66.145615 66.195221 0 0 0 .16174719 4.622807l62.04303681-4.283037h-.0072l.08113-.0062-.07338.0062 3.431304-.194449-2.029327.490776-.0801.01345-1.267104.248232.0186.06309-60.3780271 14.79308a66.145615 66.195221 0 0 0 1.1342941 4.067384l59.31244-18.59206c.02471.09608.0492.184078.0739.253922l3.165686-1.181689-1.780246.933457-57.7358222 26.467743a66.145615 66.195221 0 0 0 5.5603672 9.787586l53.976889-36.964861-.778244.631959-50.693896 39.741952a66.145615 66.195221 0 0 0 5.630127 6.29734l43.58066-44.301151c.0739.06984.149905.133839.221173.212547l2.018992-2.2827v-.0083l.200505-.229096.04909-.06258.205154-.223925.0052-.01708.01498-.0072-.0062.04189-.02739.03051.01344-.0481-.0181.0481-.34933.459745.162262-.276675-.04909.05534-.200505.23737-.687812.973276-1.131193 1.475431.07596.0481-35.433379 51.044788a66.145615 66.195221 0 0 0 3.53928 2.29668l32.110595-53.180626c.0295.01848.06779.04342.106971.06155l1.827788-3.11376-.0739.190312-26.497521 59.932004a66.145615 66.195221 0 0 0 10.618954 3.65057l15.793815-62.648602-.416511 2.440949.06253.01498-11.315547 61.089913a66.145615 66.195221 0 0 0 8.371039.99551l3.421486-62.045086c.0639.0063.120384.0062.174663.0062h.0083v-3.270974l.01447-.230651.100769.886913.16743 2.608505c.0513 0 .08957-.0062.133843-.0062l7.209356 61.709453a66.145615 66.195221 0 0 0 4.175957-.62058l-11.151779-61.123009c.0672-.0074.125399-.02423.18707-.03051l-.546219-2.835016-.01447-.03672-.08475-.474225.0047.0078.09457.503189 19.682972 61.960271a66.145615 66.195221 0 0 0 10.372976-4.28614l-29.408494-57.084113 1.095536 1.777445.07131-.04913 31.927669 53.299048a66.145615 66.195221 0 0 0 6.93495-4.79037l-38.498278-48.76932c.0672-.04952.111222-.103262.173632-.1598l-2.237582-2.527829.890897.802101 1.546154 1.544726.07597-.08119 46.255947 41.494062a66.145615 66.195221 0 0 0 2.71766-3.2234l-48.809799-38.459423c.0343-.04176.08071-.08805.108004-.12722l-2.477359-1.9088 55.981924 33.545463a66.145615 66.195221 0 0 0 4.9542-10.105115l-60.76301-23.591874 2.917643.890532.0031-.04913 59.247867 18.762207a66.145615 66.195221 0 0 0 2.03294-8.199932l-61.168673-11.060808c0-.04286.0098-.07977.0098-.118944l-1.949227-.239957-1.20406-.211513 3.183259.187208c.008-.08722.0078-.166267.0078-.254955l62.179461.472158a66.145615 66.195221 0 0 0 .003-.581796 66.145615 66.195221 0 0 0 -.10077-3.654699l-62.089546 3.537825v-.08791l-3.115562.214616-.583941.03724.572572-.03724h.01138l64.199097-12.066152a66.145615 66.195221 0 0 0 -2.98378-10.860672l-61.119584 22.662557-.06873.01811 2.780182-1.267536c-.0454-.09497-.104507-.213984-.174667-.318564l55.077019-28.975934a66.145615 66.195221 0 0 0 -2.08411-3.679007l-53.110794 32.448069-.05581-.08687-1.487242 1.032748-1.245397.758143 2.558491-2.010164-.03824-.05482 48.522462-39.013808a66.145615 66.195221 0 0 0 -7.76953-8.164252l-42.664438 48.409904-.613398.627303 40.028946-51.73415a66.145615 66.195221 0 0 0 -6.989211-4.752094l-31.551458 53.696738-.02479-.01758-1.86913 3.092559 1.465539-3.294764c-.0727-.04065-.149616-.0656-.230478-.09515l22.067313-58.2564578a66.145615 66.195221 0 0 0 -4.000776-1.3740679l-18.330616 59.5519077c-.0288-.01001-.05899-.01721-.100768-.03051l-.497644 1.994648-.298689.978447.55707-3.033602c-.0532-.0052-.107984-.01485-.162263-.01965l10.616888-61.40692615a66.145615 66.195221 0 0 0 -11.2277-.96345085zm-.514698 62.352279.267684 2.320453v.01139l.230477 1.179104v.122048l.0078-.04447.0062.166004v.02741l-.01498-.02741v-.116358l-.01757.08119-.06305-.130838-.148827-1.256677zm-2.477875 1.32442 1.874815 1.68643-.0067-.0052zm6.817649 1.592825-3.128997.767451h-.01498zm-3.21478.03051-.430465.736421-.0925.106016.02946-.118943-.02429.05482-.0052.0481-.01344.02792v-.0067l.01344-.02121v-.04292l.0052-.0052v-.02793l.0031-.0062.02169-.03206v-.0062l.0088-.0072.01603-.03982v.0052l-.01603.03465-.0088.01345zm-1.727538.0631.87953.673846.09612.149972-.118855-.04447.05323.03672h-.0057l-.05788-.03672h.0098zm1.331696.06516-.07855.420443.07855-.222374-.08836.364074-.02687.03982.03669-.18152.06925-.414755zm-.153994.101877-.02273.454575-.01498.0512-.031-.1236zm.831987.197036-.602028.420444h-.0062l-.109034.07344-.07596.03103.05633-.07291.01963-.0057.234609-.188759zm-1.069699.153076.03566.03724v.01242l-.02222-.0331zm1.022159.08378h.0078l-.04599.02121zm-.932757.0481.04857.09464v.01036l-.04857-.0936zm.110069.02481.0052.06981v.01036l.01035.02534.01241.03103-.01241.0057-.01035-.03154.01035-.0052-.01035-.01602v-.0093l-.01498-.0693zm.587559.01705-.0186.0072-.268715.08119.04134-.01602zm-1.491894.01758.626833.107567.09147.05688.0078.01604-.08268.01705zm.572573.08274h.01394l.02479.0083zm.192237.05068h.0052v.0052zm-.04341.01604h.0052l.01963.02121zm.05685.0481h.0062l-.0062.0083zm-.08888.04447h.01498l.06511.0093-.214973.08688zm-.102835.0093h.05736l-.246495.126699.06976-.01395-.0067.0072-.06305.0067h-.000529l-.535883.103948v.0062l-1.386991.247197 1.386991-.253403zm.470252.0062.134361.01139.198953.05895-.22376-.02224zm-.05788.04344.0093.0047.02946.05844.08682.04395.380856.371316-.357083-.266852-.06201-.07861-.04909-.06981-.0047-.0088-.02429-.04965h-.0093zm-.28112.02121-.06615.0724h-.0078l-.735871.334595.608228-.3739zm.415477.02637.03928.0067.0083.0083zm.0584.0067.512112.159801-.504362-.151007zm-.312125.04551.0083.0331.0057-.02587-.0057.03464.000529.0016.02016.06103.03307.501635-.0615-.357867.0083-.204791-.02326.134458v-.02431l-.0083-.04913.0083.03776v-.06981zm.191202.02431.01601.01758.02326.03879-.0098-.0083zm-.30179.0481-.0646.139114-1.044894 3.40026 1.037661-3.40026h.0072l.02223-.07602.0016-.0031zm-.02326.02792-.01707.03.01085-.02587zm.387571.02121.0088.0062.03049.05017-.02429-.02431zm-.115755.05637.0062.0078.0078.05998zm-.457849.07033v.0078l.01344-.0078zm.606677.357867 1.291909 2.854669-1.291909-2.840188z" fill="url(#b)"/><path d="m66.855866 20.433594c-14.541403.000279-26.158203 12.732406-26.158203 28.074218 0 2.830542.511731 5.518198 1.248046 8.107422a4.7629761 4.7629761 0 0 0 -.703125.173828c-9.116403 6.149228-15.967812 13.881145-20.609375 22.896485a4.7629761 4.7629761 0 0 0 -.175781.382812c-4.249939 10.423796-7.493531 21.256561-7.666015 31.494141a4.7629761 4.7629761 0 0 0 -.002.082c0 5.69318 4.76389 10.39361 10.455078 10.43164a4.7629761 4.7629761 0 0 0 .0293 0l11.570313.006a4.7629761 4.7629761 0 0 0 -.09766.38086l2.076172 10.73242a4.7629761 4.7629761 0 0 0 4.675781 3.85938h49.839844a4.7629761 4.7629761 0 0 0 4.6875-3.92774l1.914062-10.73242a4.7629761 4.7629761 0 0 0 -.01367-.31055l11.093757-.006a4.7629761 4.7629761 0 0 0 .0273-.002c5.69154-.0379 10.45507-4.7385 10.45507-10.43164a4.7629761 4.7629761 0 0 0 -.0273-.50586c-1.12034-10.5111-3.1379-21.927672-7.53906-30.945311a4.7629761 4.7629761 0 0 0 -.0195-.03906c-4.42443-8.857985-10.96415-16.504029-19.699206-22.636641a4.7629761 4.7629761 0 0 0 -.669922-.123047c.885634-2.815232 1.474609-5.773171 1.474609-8.888672 0-15.343712-11.623997-28.072545-26.166015-28.072265z" fill="#536020" stroke-linecap="round" stroke-linejoin="round"/><path d="m45.459503 48.506913c0 12.98301 9.644775 23.309761 21.39626 23.309761 11.751938 0 21.403724-10.326751 21.403724-23.309987 0-12.983462-9.651786-23.310213-21.403835-23.309987-11.751374.000226-21.396149 10.326978-21.396149 23.310213zm8.113619 8.685318c2.999957.829304 5.964206 1.366204 8.897503 1.631491v4.236907c-3.315862-.273422-6.657936-.869979-10.027347-1.800969zm26.523031 0 1.108596 4.074209c-3.265695.889863-6.571156 1.487549-9.914134 1.772721v-4.229675c2.956801-.276359 5.887605-.822072 8.805991-1.617029zm-16.198977 60.142819v-27.885616c-5.780267 1.089167-10.218288 6.437837-10.218288 14.144256v2.11145c-11.226552.29731-19.780031.77178-30.403128-2.0545l10.596082-2.16839c.827953-7.949116 5.993132-17.62508 10.246088-22.900537l3.283314 2.648349c-3.529171 4.377684-8.271115 13.93411-9.243232 20.252188h11.404619c.912915-9.50875 7.946857-16.467445 16.545407-16.467445 7.904367 0 15.513403 6.543591 16.700187 16.467665h12.597738c-1.222949-6.39603-5.994947-15.89009-9.511914-20.252408l3.291001-2.64767c4.267415 5.293081 9.409999 15.023503 10.521541 22.900308l9.309899 2.16794c-9.612084 3.5525-20.048572 2.05495-30.226885 2.05495l-.05654-2.05495c-.230439-8.057127-5.326029-13.15904-10.613687-14.207759v27.893079l40.897112-.0213c3.19497-.0213 5.72355-2.55061 5.72355-5.67055-1.09181-10.24343-3.14856-21.299011-7.084-29.362411-4.08121-8.170873-10.03921-15.154029-18.175197-20.866056-4.299271 8.667015-12.787999 14.62467-22.62508 14.62467-10.092196 0-18.765989-6.268361-22.949339-15.302575l-.000115-.00012-.000115-.00012c-8.50861 5.739256-14.756859 12.812516-19.038337 21.12846-4.127433 10.123324-7.159436 20.519392-7.315421 29.777682 0 3.12017 2.528579 5.64921 5.723324 5.67056zm-24.475549 4.22312 2.076196 10.7335h49.840022l1.91396-10.7335z" fill="#d7e698" stroke-linecap="round" stroke-linejoin="round" stroke-width="9.525"/><path d="m66.146231 7.6977877c-14.428522 0-26.185812 5.7425173-26.185812 12.7825503 0 7.040563 11.75729 12.774084 26.185812 12.774084 14.42773 0 26.185021-5.733521 26.185021-12.774084s-11.75729-12.7825503-26.185021-12.7825503zm0 3.5057293c10.601855 0 18.99973 4.103158 18.99973 9.276821s-8.397875 9.384771-18.99973 9.384771c-10.602647 0-19.232562-4.211108-19.232562-9.384771 0-5.173133 8.629915-9.27735 19.232562-9.276821z" fill="#536020" stroke-width=".264583"/></svg>