<svg height="500" viewBox="0 0 132.29167 132.29167" width="500" xmlns="http://www.w3.org/2000/svg" xmlns:xlink="http://www.w3.org/1999/xlink"><radialGradient id="a" cx="66.145805" cy="66.145836" gradientTransform="matrix(0 1.0000236 -1 -.00000011 132.29167 -.001526)" gradientUnits="userSpaceOnUse" r="66.145836"><stop offset="0" stop-color="#ffd42a"/><stop offset="1" stop-color="#fea"/></radialGradient><circle cx="66.145836" cy="66.145836" fill="url(#a)" r="66.145836"/><path d="m87.316892 96.838911c-.60721-.40587-1.2166-.60841-1.82271-1.01165-10.53621-6.68714-18.0331-17.22213-19.24751-29.57886.40444.60612.40444 1.21441.6083 1.82162 3.44375 7.90133 9.11574 14.38439 16.81431 18.84197 8.103 4.65914 17.017068 6.68594 26.134998 6.28007 6.28029-.20254 12.55948-1.62093 18.43534-3.84895 2.43101-5.87487 3.84928-12.35793 4.05205-18.84099-3.44375 3.03822-7.69857 5.26646-11.95338 7.09136-2.63268 1.21551-5.26646 2.22934-8.1041 2.83436-2.63158.81106-5.26646 1.21769-7.90023 1.62213-2.22825.20276-4.660348.40444-6.888598.20276-12.15505-.60721-23.90675-6.28139-31.19869-16.00434 1.62104 1.21441 3.03931 2.42992 4.86312 3.44265.6072.20276 1.21441.6083 1.82271 1.01384 8.103 4.25372 17.22093 5.47032 26.33667 4.05095 10.129568-1.61994 18.639198-6.27919 26.136098-12.96612.6061-.6061 1.01164-1.2155 1.82161-1.8238.40553-.20167.6072-.60501.80997-1.01274.40553-.20167.6094-.40553 1.01493-.80888.80888-1.01383 1.61885-2.22824 2.63158-3.0393-.6072-2.22825-1.01273-4.45759-1.61994-6.8886-1.01164-4.05095-2.83654-7.4947-4.25481-11.34507-5.26756 12.56058-14.78883 23.29955-27.350509 28.97154-10.332339 4.45648-21.879089 4.45648-32.21143.40553 8.509631 1.41718 17.21984 0 24.9184-3.85038.60721-.40553 1.2166-.6083 1.82271-1.01273 13.777179-7.90133 21.881279-22.28572 24.515059-37.478986-1.82381-2.229339-3.84928-4.053144-5.67199-6.078619-2.63378-2.633777-5.67309-4.659255-8.7124-6.887498.60721 3.850377.60721 7.697466.40554 11.54675-.60831 8.306864-2.63488 16.208193-7.091369 23.501223-6.68582 10.94064-17.62536 18.84197-30.18595 20.05638 4.86312-1.41718 8.91407-4.45649 12.96502-7.69856 5.672-5.26756 9.52237-11.54675 11.75171-18.84197 3.64652-11.74952 2.83654-24.310102-1.62213-35.4524145-2.42992-1.012739-4.65926-1.62104-7.29194-2.229339-.20275 0-.60939-.404437-.81216-.404437-3.64432-.607205-6.8864-1.216603-10.53401-1.419371 1.41718 1.622138 2.22934 3.444846 3.64761 5.26865 2.22824 3.240982 3.24208 6.6847315 4.86092 10.1284795.6094 1.622135.81107 3.040405 1.41827 4.660349 3.24208 11.751707 2.22934 24.109523-4.25371 34.845203-.81107 1.2166-1.41828 2.22934-2.22825 3.44485-2.43101 3.03931-4.86202 5.67308-7.90133 7.69856 5.47032-6.48306 8.50963-14.78883 9.11684-23.29846.81107-16.207096-7.4958-32.009757-20.26024-41.9354655-6.2792 1.011642-12.560589 3.038214-18.233674 5.873661 16.816494 6.6869215 30.794254 22.0818565 32.212524 40.5193945.6083 6.48305-.20275 12.96721-2.83545 18.84087.80997-4.05205.80997-8.103.20276-12.15615-.6083-4.45648-2.02658-8.7102-4.05205-12.76225-.40663-.6083-.6083-1.21551-1.01274-1.8238-4.659249-8.104101-11.345078-13.97886-19.449172-18.436441-.406631-.202755-.811069-.202755-1.215506-.404438-1.418271-1.012739-2.837641-1.62104-4.456488-2.025478-.406628-.202755-.609395-.405531-1.013833-.608298-3.646516-1.21441-7.294125-2.432107-11.142312-2.836544-5.064786 4.052047-9.318506 8.915163-12.966116 14.182716 5.875855-.609395 11.547846-.609395 17.625368.404438 1.621041.405534 3.038215.607204 4.659255 1.013836 7.496893 2.024378 13.979949 5.265359 19.650845 10.534009 2.63487 2.43101 4.86312 4.86202 6.88969 7.90133 1.82271 3.03822 3.24207 5.87366 4.45648 9.11683.80998 2.63269 1.41828 5.26646 1.82381 7.90024-2.43101-6.28029-6.28029-11.95228-11.54675-16.40877-2.02767-1.62214-3.850377-2.83654-6.079716-4.25482-3.84928-2.4321-7.697466-3.84927-12.153954-4.86311-11.144502-2.63487-22.08295-1.41827-32.4163865 2.43101-2.227149 6.07862-3.646516 12.35782-4.049857 18.6392 4.253718-2.83654 8.304671-5.67199 13.1666905-7.49579 5.673088-2.22934 11.345079-3.64652 17.220934-4.05205 13.573321-.81217 27.552179 4.86092 35.656279 16.00433-.81107-1.01274-2.02658-1.62104-3.03932-2.42992-.40443-.20387-.6072-.20387-1.01383-.40662-6.2792-4.25482-13.166692-5.67199-20.25805-6.2792-3.646516-.20275-7.293032.20167-10.940641 1.01274-12.153954 2.83545-22.4873915 9.72404-29.9831875 19.24531.809972 6.28139 3.038215 12.56036 5.874759 18.23367.811065-2.43101 2.229339-4.65947 3.4448425-7.09136.809972-1.41717 1.619944-2.83545 2.632683-4.25481 1.622134-2.02438 3.040405-3.84819 4.659252-5.6709 1.622134-1.8238 3.242078-3.23988 5.065883-4.86311 1.621037-1.21551 3.038214-2.22825 4.659252-3.44485 1.419366-.80887 2.633776-1.41717 3.849283-2.22824 4.862019-2.42991 9.725134-4.04986 15.195455-4.65925 6.886399-.80998 13.573319.20275 19.853619 2.83654-3.24099-.40444-6.68474-.6072-9.92681-.40444-3.04041.20276-6.077529 1.01165-9.117934 1.82271-11.547846 3.64652-20.459722 12.36001-26.133907 22.89281-.403341.81008-.607201 1.41839-1.012736 2.22847-.202755.40542-.202755.81085-.404437 1.2155-.203874.4063-.405535.60841-.608302 1.01384-1.621038 4.45648-3.242078 8.912979-3.850377 13.574099 4.053144 5.06412 8.915163 9.31849 14.385484 12.96413-1.011643-5.4691-.608302-10.93854 0-16.61141.202755-1.62136.809972-3.03933 1.012739-4.66069 2.835447-12.153739 9.724038-22.284409 20.461912-28.767469.608302-.20275 1.216604-.6072 1.822707-1.01274 4.25482-2.22933 8.7124-3.6476 13.371661-4.05095-2.42992.80997-4.659261 2.025479-6.888601 3.442649-.404439.202761-.6072.202761-1.012739.40444-2.02547 1.41827-3.646511 2.83764-5.47032 4.25482-.404433.40553-.809968 1.01493-1.417172 1.41827-4.66035 5.06588-7.902428 10.73787-9.927904 17.220931-3.645419 11.750739-2.835447 24.108549 1.823805 35.250869.201668.40542 1.012739.40542 1.619944.60929.202755 0 .608299.20288.812162.40333.403341 0 .607205.20381 1.011643.20381.202755.20288.608301.40542.811065.40542 1.214411.40467 2.431014.60621 3.849285.81009.202754 0 .607204.40454.811068.40454 3.240974.40542 6.481964 1.21638 9.722944 1.21638-8.50854-10.94152-13.168886-25.12192-11.141217-39.10112 0-.40542 0-.80964 0-1.21638 1.822707-10.33015 7.088067-19.65085 15.396037-25.72728-6.8886 8.30468-9.92681 19.04365-8.91407 29.78053 1.01273 10.53481 5.47032 20.25905 12.56058 28.36293 1.01274.81009 1.62104 1.82393 2.63377 2.83556.60831.60842 1.21441 1.2155 1.82381 1.82513 1.012739.80962 2.02657 1.61971 3.03821 2.42967 6.2803-.80996 12.560589-3.0393 18.23368-5.87485-8.508541-3.44485-15.802661-8.71097-21.881291-15.80353-.404429-.60712-.808869-1.21464-1.41827-1.82262-5.063689-6.68495-7.90023-13.77533-8.91188-21.8803-.811059-6.88749 0-13.77609 3.03822-19.85252-2.229339 10.93845.809971 22.08077 7.698571 31.19848.6072.60753 1.01273 1.2155 1.41827 1.82304 8.508529 10.13067 20.259139 16.2081 33.021398 18.03068 1.8238-1.62092 3.64761-3.24109 5.47141-4.86201 2.83545-2.83642 5.06369-6.07742 7.4947-9.3197-11.54675 1.21551-23.702888-.20163-34.034139-6.27998" fill="#fc0" fill-rule="evenodd"/><g transform="matrix(-1 0 0 1 132.67474 0)"><path d="m3.8464558 475.96404c6.8561262 5.63048 33.3967712.77344 43.7295312-4.78395 14.48649-7.91354 31.332017-19.10854 43.884766-30 7.323575-4.42602 13.660877-9.34277 17.414057-11.88477 1.39621-.94564 1.66603-1.02189 2.22852-1.30664 23.00794 9.69502 53.3221 17.98044 80.96484 23.33399 14.42702 2.79405 27.8865 4.76935 39.1543 5.56445 5.6339.39753 10.68795.52501 15.48632.16406 4.79837-.36094 9.20475-.17575 15.96875-4.82812l.006-.008c9.1913-6.32802 13.54995-18.26841 13.72461-27.02539.17466-8.75697-1.60026-16.16477-3.09375-24.07226-2.14861-11.37619-4.11852-23.48133-2.9375-37.30078 10.89883 3.02236 21.92272 5.93012 34.19922 6.93945.13213 29.89297 2.1304 43.72415-3.70508 82.48437l-2.12695 14.12305 91.34375 32.63477 6.2832-45.44336-31.83203-21.16407c11.22482-41.88162 13.74929-67.63125 12.32813-111.84179-.18773-6.30341-2.69097-9.40957-4.27344-11.40625-1.58246-1.99669-2.91271-3.12339-4.18555-4.14844-2.54567-2.05011-4.95925-3.5162-7.72265-5.08594-5.52681-3.13946-12.29282-6.35348-19.9375-9.68554-8.80265-3.83678-18.53544-6.94957-28.22852-10.45899l6.79102-11.10937c10.80454-15.85986 38.48182-31.18666 65.30078-43.95313 13.42582-6.39102 26.43383-12.31753 37.44726-19.0664 11.01343-6.74888 22.6941-14.26806 25.03321-30.43555 1.61989-5.59627.31385-7.50312-2.70313-12.0625-3.9758-6.00831-1.12188-4.01248-4.60547-15.41406-.87091-2.8504-3.0204-7.37237-7.05664-10.60743-4.03627-3.23506-8.63646-4.37044-12.0039-4.70117-6.73493-.66146-11.33174.42785-18.64649 1.85156l-.11719.0234-.11914.0215c-10.78624 2.25832-12.97487 7.7892-15.48632 11.41992-2.5115 3.63071-4.31947 7.14571-5.99414 10.44531-1.67468 3.2996-3.16339 6.37553-4.30665 8.46387-3.77834 2.40446-10.84583 6.40003-17.79492 9.65137 1.57982-7.26333 3.08403-14.63586 2.79883-22.80274v-.0156-.006c-.11977-3.30901-.68835-6.34003-1.52148-9.1543 2.14018-6.62242 15.28675-46.027686 47.44336-79.820312l11.6715-13.369516-15.29645-15.14618c-24.11966-23.83851-54.32709-35.11619634-82.92774-34.976562-39.1925.19082267-76.63235 22.511013-89.32812 61.314453l-7.74414 23.658203 22.01367-.818359c1.30013 2.131007 3.22051 7.047463 4.48047 12.511719 2.14243 9.291434 2.39179 16.361544 2.56836 19.435544l-3.29883 3.6836c-17.52782 19.61601-33.28816 41.07105-46.75781 56.36132v.008h-.008c-15.19226 17.26365-33.79641 36.5813-55.00976 57.95508 0 0-16.75588 18.62112-25.48245 27.60145-26.22301 26.98555-63.423844 61.22653-80.712883 78.91911-.892172.91419-5.186204 4.80437-9.3828 9.41911-4.196597 4.61474-9.189326 9.7752-11.611328 19.42969-1.211001 4.82724-1.281145 11.60146 1.779297 17.63476 1.844064 3.63534 4.594628 6.33349 7.566406 8.58594-10.961374 17.40321-15.999265 28.20295-19.082031 36.55469-3.1224782 8.4593-4.6535564 14.97926-6.5356441 22.62057-3.14442114 12.76641-3.32874333 15.98197-.033731 21.08916z" fill="#665600" transform="scale(.26458334)"/><path d="m84.802155 4.592675c-8.708821.042402-16.592582 4.8053421-19.292469 13.057294 5.522065-.204263 5.999367 13.942087 5.999367 13.942087l10.761026 1.619105c-3.467291 3.351716-12.934476 1.542829-12.934476 1.542829-4.431725 4.959704-8.564552 10.59218-12.348322 14.887383-4.124559 4.686923-9.101327 9.851922-14.742596 15.535852-1.755624 1.764158 10.754557-2.53932 8.879476-.673289-6.352042 3.296901-10.936323 4.162043-15.969711 8.291768-8.096036 6.638278-16.251292 15.697196-20.981133 20.537702-1.993756 2.045212-11.4702549 9.741014 5.292473 8.982394.621572 1.94436-.419125 2.44494-1.937398 3.95416-1.118789 1.11258-4.675281.0732-5.756329.7312-5.7327961 9.06384-4.4591264 9.81883-7.0923073 15.00865-1.0993998 3.00835 10.7767983-3.7243 16.6267163-8.8376 3.613124-1.95988 6.502018-5.59834 9.050132-4.44774 11.146536 4.90851 33.567849 9.18664 36.541801 7.14117 4.749239-3.26976-2.668595-11.98245.99081-25.316152 6.068409 1.504045 11.331399 3.531157 17.263288 2.962841-.408778 12.748841.920479 14.299941-1.005282 27.091171l15.28842 5.46261.493847-3.57047-8.743219-5.81191c3.766707-13.09841 4.346144-18.765792 3.937102-31.471702-.04137-1.388987-11.678656-6.289479-19.260675-8.566878l4.807413-7.863336c7.858421-11.580397 32.097931-16.044958 33.078141-22.820012-3.36645-5.087431.78136-7.080414-6.48779-5.665572-1.62765.340782-3.56064 6.294908-4.66004 7.0362-2.02789 1.364164-10.511779 6.32878-13.432475 4.751563-.491266-.265283 1.873527-8.646515 1.771142-11.578331-.03-.828684-.307693-1.71296-.741038-2.585861.04779-.165478 3.940459-13.56976 14.171441-24.308802-11.370976 6.498653-16.89227 20.66543-16.897958 20.67965-.570647-.551767-1.15731-1.029845-1.716582-1.402171-.495401-3.800836-1.245995-18.880071 17.73672-20.368345-5.540173-5.4755307-12.334357-7.9584852-18.689515-7.927458z" fill="#ffe57c"/></g></svg>