<svg height="500" viewBox="0 0 500 500" width="500" xmlns="http://www.w3.org/2000/svg"><g transform="translate(.000015)"><circle cx="-249.99998" cy="250" fill="#e51a1a" r="250" transform="scale(-1 1)"/><path d="m181.33938 83.856939c97.52275-31.84694 203.27597 26.159281 217.12696 131.568651 10.04116 85.89723-45.79566 162.6049-131.11288 174.6444-76.26503 6.65-147.16573-45.4981-149.44603-126.3231.16679-50.89801 30.03241-87.97493 76.60677-108.40662 44.00125-16.48183 90.46555-3.00917 112.28155 39.63622 17.95322 40.0953 3.57775 87.31302-40.4313 103.80676-21.98685 8.23292-51.6578-5.55285-56.72562-31.5612 24.48155 21.7253 69.7211 11.74379 80.1808-21.06198 5.24648-24.88185-11.48198-41.52298-24.36368-55.64156-23.21161-15.22125-63.26956-13.16738-85.32502 12.05139-41.51846 46.43224-18.48961 112.52397 35.72777 131.08081 60.66482 17.11352 118.96473-29.63961 126.96137-92.39988 2.7637-54.83226-40.99398-106.19486-96.51046-114.27807-76.21988-10.3001-138.45939 50.84936-147.743191 124.09106-9.31956 73.21828 47.315731 138.67973 111.863041 158.33924 49.05305 9.49897 98.18701 2.07129 139.64056-27.40671 82.90715-58.95602 100.11901-177.97214 43.55644-260.39974-52.71171-79.885311-158.575-103.987181-249.15842-67.061741-86.705021 39.45169-149.0660905 134.549061-117.102931 229.167621 15.77888-74.65377 50.93986-153.5943 123.407351-187.514491 9.28724-4.60517 19.44718-8.7232 30.56692-12.33106zm-160.722321 286.075591c-52.57825-113.8254-.38403-260.89182 113.777041-317.643861 10.84604-5.32012 22.21219-9.7712 34.03518-13.36069 115.76394-28.75816 246.03978 34.00351 263.68455 158.897471 10.04526 85.91695-27.72044 168.80365-107.97396 206.83173-102.24035 46.26108-224.798841-11.43986-234.690511-131.24969-7.33455-123.78718 127.307171-194.136761 222.718561-137.24102-42.54074-27.89653-94.21826-33.44528-140.80825-12.98978-71.17376 32.62266-105.080851 118.0397-80.762351 190.63139 30.697281 88.13423 123.572931 132.04164 212.817841 105.59803 82.80488-25.06359 132.16266-100.33164 140.19255-180.04986 12.12434-145.020371-132.23823-245.3588802-265.59709-221.973611 7.92036-4.10499 20.5989-8.4277792 35.61563-11.7452592 60.06317-13.23825 124.63426-3.45807 179.45368 32.4903392 109.65077 71.904621 141.09454 217.803071 65.16008 333.599141-143.00482 218.07486-377.311781 117.06797-437.622951-1.79433" fill="#b21a1a"/></g><g stroke-linecap="round" stroke-linejoin="round"><g transform="translate(0 .231495)"><path d="m343.03125 324.51953c-22.77047 4.28348-32.69208 29.08879-44.92908 46.49287-11.64835 18.96531-16.10526 42.48199-40.09045 46.68291-13.64266 13.10748-.47227 30.03975 4.71464 39.59263-17.11039 21.15255 8.26821 53.08945 32.91027 39.01085 8.02162-14.863 13.57986-15.84156 29.90475-15.78862 18.98963-10.27224 12.17261-32.58291 9.14005-45.71265 12.78413-28.99766 24.85085-59.07869 28.55407-90.73701-.48252-10.46528-9.72734-19.40745-20.20425-19.54098z" fill="#861313"/><path d="m290.70976 447.07908-13.63832 28.80698 6.6835 3.19134 13.25932-28.00873 18.17614 11.5025 3.94545-6.28777-13.43099-8.50084c15.90003-33.68507 29.80752-64.7591 36.65387-102.35523-23.70618 25.77493-38.07028 57.8208-53.91732 91.4299l-12.70694-8.0411-3.94575 6.28802z" fill="#ff8066" stroke-width="41.8466"/></g><path d="m285.05078 139.54297c-15.94942 3.71925-18.83594 21.28868-38.01295 17.22225-25.23728 6.22775-81.33242 3.90533-68.65405 42.4173 31.00205 22.7235 76.35042-3.4573 103.37989 20.53037 16.36437 5.19428 21.88717-13.60603 27.88019-20.51377 15.12907 1.86056 29.26381-10.57096 24.65106-26.35146 1.01177-24.59168-31.475-5.85597-31.0498-27.84147-5.11094-5.92068-11.80039-5.06997-18.19434-5.46322z" fill="#861313"/><path d="m289.64663 182.72344 27.21297-2.12229-.49244-6.36788-26.45841 2.06424.7558-18.52641-6.35436-.26167-.55943 13.69035c-31.80076 2.5174-60.81113 5.40857-91.63903 16.37586 29.27217 6.71037 59.19916 3.745 90.92082 1.22041l-.5282 12.95169 6.35472.26185z" fill="#ff8066" stroke-width="35.9622"/><path d="m154.53711 165.76562c-15.98698-2.73286-34.62105 12.43476-25.76172 29.25-26.40661 9.52874-8.52398 41.97778 8.66943 45.12279 11.60677 24.77344 23.11195 81.85487 58.83689 61.70575 12.16286-26.05737-6.85031-57.38412-5.68845-81.08572 17.99875-19.72144-8.78841-37.01002-21.85511-39.95776-1.83657-6.92347-6.49324-13.76134-14.20104-15.03506z" fill="#861313"/><path d="m144.56193 185.26581 7.16461 22.51519-18.47083 4.63732 1.56349 6.17434 13.28231-3.335c8.67606 27.12699 17.20016 51.71983 33.90259 75.63202.79028-27.53097-7.91927-52.91719-16.58847-79.97875l12.92994-3.24576-1.56348-6.17435-18.84375 4.73066-7.28001-22.879z" fill="#ff8066" stroke-width="36"/><path d="m20.699219 216.5293c-21.00521514 5.87087-20.4395951 31.93382-5.861328 42.71093-25.166393 21.6689 8.221665 44.33261 26.549027 37.39732 25.141387 25.73602 52.05057 50.11046 82.751752 69.09097 31.03603 12.59091 31.47523-27.65073 14.70491-42.36885-14.05508-21.80561-31.73917-40.93917-49.699049-59.54522 13.078069-17.05994-12.216103-45.20145-29.930348-30.08689-7.68975 8.3603-12.303513-4.99965-18.232404-9.07318-4.948523-5.69805-12.227408-10.60204-20.28256-8.12508z" fill="#861313"/><path d="m20.383442 238.42148 23.82634 24.69502-20.400387 11.72805 3.197777 5.51519 15.086664-8.67306c28.475666 29.46146 54.992663 55.93061 91.578554 78.77351-16.65488-33.09795-44.128505-60.35025-72.537076-89.71974l13.744845-7.90248-3.197438-5.5152-21.767163 12.51357-24.919677-25.82718z" fill="#ff8066" stroke-width="36"/><path d="m217.16797 184.26953c-21.48511-4.63959-14.75727 25.69199-33.30437 25.5723-18.27049 21.47981 15.17152 30.94282 9.16612 53.13868 3.69307 20.31026 3.62475 64.26197 34.74604 52.76907 21.7047-25.00055 1.56359-64.99972 24.34924-86.39997 6.47496-17.39743-16.97928-17.93433-18.08784-28.13386.0396-8.68404-7.19237-17.91683-16.86919-16.94622z" fill="#861313"/><path d="m211.81186 200.81068.61168 21.48962-17.33036-.54406-.18342 5.79312 12.46225.39095c.77548 25.90228 2.05486 49.54893 10.66263 74.63774 7.61056-23.89708 6.36832-48.28427 5.58243-74.12759l12.13145.38124.18342-5.79311-17.6802-.55528-.62133-21.83679z" fill="#ff8066" stroke-width="32.7684"/><path d="m232.63281 390.85742c-11.48498.76114-14.73408 15.97976-25.51758 5.83203-25.21287-9.54908-35.1928 32.66112-10.73242 37.55469-8.60949 25.26735 23.01548 29.24676 35.91671 22.10448 26.39243 7.51757 66.39858 37.21124 86.3611 9.01721-4.32808-31.18615-47.28881-37.67981-65.29652-55.4209-.007-10.96863-11.30975-17.27903-20.73129-19.08751z" fill="#861313"/><path d="m222.7943 422.09692-22.61287-10.56312-2.47178 5.24641 21.98628 10.26956-8.93291 14.2793 4.93969 3.06408 6.60181-10.55149c26.44196 12.31444 50.83109 23.07915 80.29865 28.2883-20.27966-18.45899-45.43174-29.57733-71.81388-41.85057l6.24479-9.98267-4.93994-3.06431z" fill="#ff8066" stroke-width="32.7684"/><path d="m70.128906 338.25391c-19.648985-.2435-25.363653 23.09451-15.873047 35.91601-28.289397 14.47347-2.878066 38.98986 13.891132 39.35809 15.532764 28.78195 32.957139 56.81399 55.052229 81.0716 34.26358 19.13243 30.27075-28.35602 18.95985-46.77589-6.59224-17.68493-15.18853-34.52884-24.03798-51.16942 17.0748-13.26346-1.90398-43.51408-21.574507-33.01686-9.483962.13294-8.810919-19.0375-18.329703-22.89439z" fill="#861313"/><path d="m64.371162 357.33915 14.645539 27.54899-20.801071 5.18067 1.412549 5.62346 15.382862-3.83111c17.516572 32.87888 34.071029 62.65098 60.348689 91.75843-6.25756-33.11596-23.45239-63.81181-40.93335-96.59348l14.01491-3.49109-1.41213-5.62337-22.194582 5.52756-15.317887-28.81225z" fill="#ff8066" stroke-width="32.7684"/><path d="m359.61719 312.48437c-13.36064-2.4498-26.50239 11.37997-19.31446 24.27735-20.74735 9.15374-4.91734 31.16981 6.95239 35.09524 10.51238 20.70662 15.16977 62.58981 44.16091 58.71516 17.22178-20.67368-4.36974-51.42598-2.82289-72.68647 12.77215-14.71322-6.47369-27.99262-16.83311-30.25659-1.80892-6.37012-4.42854-13.92704-12.14284-15.14469z" fill="#861313"/><path d="m363.11041 346.17086-6.45384-20.10315-4.70425 1.4974 6.27559 19.54558-14.07667 2.70951.93716 4.82817 10.40232-2.00153c7.57003 23.48568 14.9233 44.80539 28.67854 66.06374-.17453-23.21572-7.74726-45.21206-15.30858-68.63695l9.84088-1.89434-.93716-4.82847z" fill="#ff8066" stroke-width="27.8071"/><path d="m382.30664 54.453125c-15.48997-1.303241-6.52692 27.991625-24.2663 15.132831-12.8024 3.504685-19.6944 24.248776-5.20245 30.812484-9.36316 26.98745-17.20904 54.75426-19.68945 83.31054 9.89082 34.41606 37.12553-2.01973 42.28346-19.54777 9.81537-18.56091 10.80906-41.74055 31.65403-48.26866 14.63728-14.17312-12.44054-20.334185-8.15616-30.831166 6.1891-10.984219 6.23476-27.987118-9.45711-30.084822zm8.9043 37.701172c.21452.0548-.0655.0689 0 0z" fill="#861313"/><path d="m384.9065 68.110083-8.75625 24.973027-15.24319-9.893265-2.69768 4.120861 11.27263 7.316393c-10.42853 29.827811-19.47159 57.266431-22.48697 90.343661 17.07554-22.99109 26.32613-51.35951 36.71448-81.10919l10.27059 6.6654 2.69785-4.12063-16.26435-10.556142 9.15728-26.118657z" fill="#ff8066" stroke-width="27.8071"/><g transform="translate(.313847)"><path d="m451.46875 353.33984c-25.31283.38732-17.02814 31.50506-39.68642 37.5261-16.77937 14.25334-57.47389 37.6425-30.20734 60.23996 34.71892 6.5948 60.88957-33.38715 92.87228-23.8852 17.56309-3.28781 10.48469-23.23095 14.87776-30.74561 25.23236-11.03478-.85506-53.25781-22.64271-34.30639-5.33782 3.86992-6.76097-16.83099-15.21357-8.82886z" fill="#861313"/><path d="m479.28194 374.90114-19.54631 12.06532-8.77461-16.18186-5.45569 2.93314 6.3101 11.63623c-23.53953 14.57778-44.72318 28.41007-63.31744 49.73395 26.17461-5.8149 48.06301-20.00961 71.54239-34.56541l6.14199 11.32771 5.45568-2.93315-8.95152-16.5086 19.86223-12.26001z" fill="#ff8066" stroke-width="34.9038"/></g><path d="m158.44727 247.00391c-24.19856-3.63707-13.79223 29.06963-32.78458 31.1226-13.89569 15.12456 2.22741 30.48632 10.12531 39.74905 6.60192 28.63699 1.96447 73.14351 33.42225 84.91736 37.80071-16.53753 5.78865-71.75571 25.79473-95.48127 11.75943-16.74881-4.95631-32.45367-16.9142-36.18556-.0483-11.2751-4.87248-25.82607-19.64351-24.12218z" fill="#861313"/><path d="m162.31008 290.77873-2.33686-26.38919-6.17523.54224 2.27296 25.65746-17.98782-.5464-.18925 6.16965 13.29237.40466c2.76715 30.83769 5.86856 58.96352 16.82655 88.7717 6.21425-28.47688 3.03153-57.49153.2583-88.25238l12.57519.38181.18927-6.17z" fill="#ff8066" stroke-width="34.9038"/><path d="m358.99609 232.28711c-17.25709-7.89467-16.57475 29.82234-30.43208 12.5864-26.27765-4.60701-28.6329 25.32768-22.14912 39.36093-19.14431 30.30733-36.55866 62.01777-47.84848 96.164-4.73832 33.56791 33.89572 23.44578 44.68263 4.36825 18.03275-18.81602 32.59603-40.56389 46.59666-62.44638 22.3663 8.87162 40.91957-24.72412 20.09571-37.67312-6.52125-5.77582 6.22463-13.42403 7.98639-20.00479 11.12727-14.62602-4.19993-30.44376-18.93171-32.35529zm-.0254 50.11719c.18978.0995-.075.0535 0 0z" fill="#861313"/><path d="m358.2137 250.25044-18.47565 28.84089-16.23271-16.96358-4.62555 4.38833 12.00437 12.54505c-22.02968 34.45642-41.60239 66.31571-55.27152 107.05603 28.35527-23.88411 48.46657-56.85231 70.4224-91.22227l10.93743 11.42913 4.62564-4.38798-17.32004-18.10013 19.32236-30.16413z" fill="#ff8066" stroke-width="35.9622"/><path d="m224.10937 336.4707c-14.41849-1.41888-15.48531 14.77377-31.22189 8.77784-10.85293 6.6686-10.21952 26.90035 4.30197 28.45458-4.41954 19.98481 20.75488 20.57215 29.36905 12.62196 18.77883 3.25703 60.40675 19.4025 58.96239-11.26969-11.10887-17.58592-40.17946-15.68722-49.881-30.03345-1.838-5.06589-6.82802-7.06774-11.53052-8.55124zm-18.38867 26.76953c3.09971 1.18851-3.32876 4.59752 0 0z" fill="#861313"/><path d="m197.64755 360.65218 15.98084 4.71137-4.56075 12.52993 4.22436 1.52454 3.27942-9.01034c19.27152 5.65093 37.00197 10.39229 57.55414 10.12616-15.7811-11.29598-34.04836-16.24222-53.27885-21.87136l3.19287-8.77099-4.22444-1.52455-4.65305 12.78277-16.23897-4.78767z" fill="#ff8066" stroke-width="25.2953"/><g transform="translate(-7.452024)"><path d="m47.253906 326.05664c-16.59366 3.14258-8.860676 25.38146-28.633693 21.87043-23.9623679 8.04578-4.391832 35.973 12.364163 28.42254-1.216259 18.48271 31.697614 18.36128 29.882812-.24805 27.47527-8.30548 69.692642-6.56244 82.698222-34.54536-18.23111-28.67645-63.837005 2.20703-85.016548-12.51004-3.310282-3.00508-7.38867-2.61884-11.294956-2.98952z" fill="#861313"/><path d="m20.961541 364.89859 23.814157-4.08645-1.175742 16.43951 4.482573.31795.869559-12.15741c28.430488-4.90449 54.340872-9.85189 82.095462-22.06197-25.90269-3.37754-52.647358 1.81591-80.997725 6.71774l.791808-11.07646-4.482403-.31815-1.254677 17.54082-24.906309 4.27442z" fill="#ff8066" stroke-width="25.2953"/></g><path d="m459.73437 294.34766c-36.77321-1.19842-64.3608 38.77603-98.66601 30.5-17.03384 2.86665-13.36294 22.20819-15.55964 31.14779-28.05229 8.15506-12.04583 56.06566 16.07179 40.18636 9.66278-9.89252 17.4555 17.01429 30.12549 3.39374 19.17889-6.3707 8.14248-30.5583 29.83359-34.62923 18.58094-17.39671 60.83641-33.65805 49.10408-64.10431l-4.86718-4.23402z" fill="#861313"/><path d="m371.04465 361.54832-23.49139 14.46128 3.38407 5.45016 22.83961-14.06102 7.8773 16.8671 5.83505-2.70164-5.82016-12.46462c27.43445-16.93255 52.18703-32.90948 74.84389-56.92654-29.42272 7.53722-54.96533 24.00369-82.32533 40.90608l-5.50712-11.79162-5.83548 2.70171z" fill="#ff8066" stroke-width="36.2328"/><path d="m363.03906 157.2793c-17.60212-.0562-9.97254 29.37612-28.01255 21.28059-22.57298-8.06231-43.67162 20.88727-23.92153 38.19315 5.36182 8.45977 28.28067-3.58337 19.37442 14.08142 8.3624 26.37141 35.5016 13.12901 45.51884 1.65968 36.13567 3.07816 72.72124 3.96795 108.6541-1.74023 35.06608-14.41853.27795-43.17396-22.79073-43.64039-23.28253-6.15476-47.2939-8.81686-71.22099-11.00024-.46596-13.79252-16.19052-19.44925-27.60156-18.83398z" fill="#861313"/><path d="m321.55728 201.95653 34.46884 3.15178-7.75717 22.3081 6.08268 2.09723 5.73675-16.49733c41.16033 3.72695 78.85039 6.46276 121.8001-.16696-34.57476-14.24983-73.51077-16.95374-114.55927-20.6547l5.22599-15.03068-6.08243-2.09746-8.27698 23.80248-36.04993-3.29558z" fill="#ff8066" stroke-width="36.2328"/><path d="m103.01367 98.222656c-15.549352-2.078696-30.97594 10.202134-27.744139 26.833984-26.065721-1.49774-30.182733 43.028-5.302734 48.10156 1.063082 28.00874 4.444543 56.21098 13.541015 82.83985 14.796573 31.49092 47.091468 3.32978 45.028038-20.92249 7.50989-27.79667-4.34207-59.6544 18.81767-79.05212 6.84507-19.49978-16.42162-25.40976-22.84427-33.2142.88119-12.57103-7.63923-25.160423-21.49558-24.586584z" fill="#861313"/><path d="m96.063639 119.31157.63833 27.44677-22.127653-.80895-.272763 7.39672 15.912056.58137c.818121 33.08292 2.294799 63.28868 13.120391 95.38437 9.87777-30.46696 8.45337-61.61816 7.62146-94.62588l15.48964.56679.27275-7.39672-22.57427-.82561-.64833-27.89017z" fill="#ff8066" stroke-width="41.8466"/><g transform="translate(-3.265061)"><path d="m487.69336 80.873047c-12.06468-5.893376-16.40536 17.459706-27.52544 2.48631-26.0655 2.898629-10.8571 32.250163-30.8553 43.393713-13.76698 14.29061-38.38858 56.14857-.22082 52.45396 24.76038-9.71445 37.76646-39.52389 63.84457-39.9447 16.90986-11.11539-5.46468-25.62048 9.87901-36.64196 2.63012-10.155502-6.78094-18.366271-15.12202-21.747323z" fill="#861313"/><path d="m484.26735 95.529244-13.57563 14.397606-10.93913-11.527944-3.88662 3.656684 7.86657 8.28957c-16.33839 17.37858-30.88156 33.61225-41.58718 55.51047 20.49904-10.66517 35.54789-27.35746 51.84109-44.70437l7.65725 8.06996 3.88671-3.65669-11.15978-11.76078 13.79503-14.630042z" fill="#ff8066" stroke-width="30.1019"/></g><path d="m231.18164 237.67187c-14.57216-2.04909-28.10947 13.48864-19.82812 27.10352-22.02753 10.8236-3.91665 33.89802 9.06591 37.65955 12.28427 21.93656 19.16473 67.03631 50.35364 61.57464 17.3922-23.03964-6.32015-55.05248-6.53747-78.19557 12.2379-13.73336-4.52004-33.51121-18.71581-30.81866-2.50996-7.19278-5.17082-16.21072-14.33815-17.32348z" fill="#861313"/><path d="m236.4399 273.95631-7.86622-21.46243-5.02226 1.82508 7.64879 20.86712-15.10647 3.54545 1.22634 5.18139 11.16333-2.6192c9.22251 25.07234 18.11506 47.81136 33.92958 70.20445-1.21137-25.10331-10.3711-48.56464-19.58142-73.57162l10.56077-2.47874-1.22634-5.18172z" fill="#ff8066" stroke-width="30.1019"/><g transform="translate(-.019531)"><path d="m47.498047 117.34961c-16.780859-.84981-5.781088 30.73626-25.580573 17.42954-13.7018401 4.36299-20.211737 27.09916-4.27099 33.55874-8.9278433 29.60697-16.2166635 59.96736-17.62695275 90.9707 6.55598885 32.23786 36.79755575 5.46784 40.54718075-13.51858 13.220266-22.0785 11.479334-53.48651 36.323544-62.88093 15.018796-15.63169-13.204175-21.76906-10.195815-32.75769 5.109525-11.23989 7.292849-29.06541-8.877342-31.77701-3.335167-.97532-6.605327-2.34483-10.319052-1.02477zm11.287109 40.38672c.247089.0541-.07073.0818 0 0z" fill="#861313"/><path d="m50.90974 132.00819-8.371056 27.3941-16.923417-10.03521-2.736347 4.57507 12.515213 7.42137c-9.966094 32.71826-18.538846 62.79175-20.343449 98.70094 17.456846-25.61369 26.213018-56.70196 36.139094-89.33394l11.40267 6.761 2.736515-4.57482-18.057026-10.70762 8.754397-28.65077z" fill="#ff8066" stroke-width="30.1019"/></g><path d="m448.53711 228.94922c-15.93411-.97714-8.40075 26.07354-24.86741 17.69819-23.54452 6.25286-16.75361 34.1194-8.47972 46.24737-3.7765 28.87667-21.71051 69.3088 5.26776 89.95443 35.47291-2.7631 39.8864-49.45633 50.60671-76.94491 26.21975-1.5058 26.24105-39.41776 6.02432-45.53973 9.45244-18.5151-10.51715-35.49634-28.55166-31.41533z" fill="#861313"/><path d="m453.49012 247.57958-6.63278 24.41835-19.34021-6.46743-2.1805 6.46496 13.90762 4.65041c-7.95167 29.44527-14.56711 56.51943-13.41734 87.69405 16.7169-24.35313 23.6265-52.24908 31.54637-81.63148l13.53824 4.52772 2.18049-6.46496-19.73048-6.59824 6.74014-24.81273z" fill="#ff8066" stroke-width="38.5567"/><path d="m136.25 346.375c-23.6702-3.62196-37.677309 31.1539-15.97852 43.13867-17.28894 20.77268 12.97511 44.559 30.93078 35.31464 21.66434 18.86159 44.78646 36.37567 70.57508 49.2381 32.43735 10.77379 31.92945-30.72413 13.11403-44.86882-16.80621-23.59831-44.26052-37.02051-46.20582-65.65853-8.04695-15.72045-26.60602-7.66285-36.39422-6.28163-4.9818-4.16148-9.16278-9.50566-16.04133-10.88243z" fill="#861313"/><path d="m154.16956 384.7822-21.87816-19.54008-4.57242 5.07596 21.27214 18.99767-14.92964 13.07038 4.52141 5.1209 11.0332-9.65783c25.5955 22.80676 49.40627 43.17406 80.83165 58.99763-16.55911-27.64796-41.10898-48.6714-66.65118-71.41157l10.43709-9.13757-4.52158-5.12125z" fill="#ff8066" stroke-width="38.5567"/><path d="m363.24219 142.00586c-18.81984.244-25.68007 20.23057-19.58594 35.80469-35.76834 4.15361-19.28913 44.87265 1.69816 49.01618 7.69186 37.65829 17.77221 75.11564 34.3995 109.90764 25.7517 31.41182 43.73985-12.96773 37.72726-36.39154-.69049-25.62383-5.20634-50.93969-10.17648-76.02447 21.03029-7.63357 16.22928-46.0711-7.79939-43.87114-11.5497 3.23862-10.39234-8.26392-12.25771-16.25987-1.16276-12.22623-9.51681-25.4284-24.0054-22.18149zm21.44922 44.57031c.49625-.14311-.0364.21228 0 0z" fill="#861313"/><path d="m360.2293 162.2417 7.11418 35.98609-25.20107-1.18999-.32454 6.81295 18.63673.88016c8.53291 42.96101 17.04042 82.09669 36.72913 123.76812 4.23307-39.42464-4.68106-79.81738-13.20711-122.65685l16.97976.80115.32488-6.81274-26.88925-1.26991-7.44135-37.6365z" fill="#ff8066" stroke-width="38.5567"/><path d="m310.76953 223.05469c-9.47669 12.67179-22.51005-5.57195-32.10156 7.92578.90205 28.19823-38.03783 42.37809-37.51964 72.76826 25.38793 27.58805 47.09309-25.2379 70.78487-22.66295 19.61767-1.54324 12.34692-21.66053 14.48984-30.14223 13.27325-10.53411-1.66623-30.86568-15.65351-27.88886z" fill="#861313"/><path d="m314.23806 236.51861-13.07147 12.7832-9.66364-11.04808-3.72486 3.23032 6.94928 7.94451c-15.73363 15.4317-29.76722 29.87352-40.47174 49.68679 19.3216-9.08009 33.8393-23.92639 49.53004-39.33054l6.76442 7.734 3.72486-3.23031-9.85856-11.27119 13.28291-12.98955z" fill="#ff8066" stroke-width="27.8071"/></g></svg>