<svg height="500" viewBox="0 0 500 500" width="500" xmlns="http://www.w3.org/2000/svg"><g transform="translate(.000015)"><circle cx="-249.99998" cy="250" fill="#e51a1a" r="250" transform="scale(-1 1)"/><path d="m181.33938 83.856939c97.52275-31.84694 203.27597 26.159281 217.12696 131.568651 10.04116 85.89723-45.79566 162.6049-131.11288 174.6444-76.26503 6.65-147.16573-45.4981-149.44603-126.3231.16679-50.89801 30.03241-87.97493 76.60677-108.40662 44.00125-16.48183 90.46555-3.00917 112.28155 39.63622 17.95322 40.0953 3.57775 87.31302-40.4313 103.80676-21.98685 8.23292-51.6578-5.55285-56.72562-31.5612 24.48155 21.7253 69.7211 11.74379 80.1808-21.06198 5.24648-24.88185-11.48198-41.52298-24.36368-55.64156-23.21161-15.22125-63.26956-13.16738-85.32502 12.05139-41.51846 46.43224-18.48961 112.52397 35.72777 131.08081 60.66482 17.11352 118.96473-29.63961 126.96137-92.39988 2.7637-54.83226-40.99398-106.19486-96.51046-114.27807-76.21988-10.3001-138.45939 50.84936-147.743191 124.09106-9.31956 73.21828 47.315731 138.67973 111.863041 158.33924 49.05305 9.49897 98.18701 2.07129 139.64056-27.40671 82.90715-58.95602 100.11901-177.97214 43.55644-260.39974-52.71171-79.885311-158.575-103.987181-249.15842-67.061741-86.705021 39.45169-149.0660905 134.549061-117.102931 229.167621 15.77888-74.65377 50.93986-153.5943 123.407351-187.514491 9.28724-4.60517 19.44718-8.7232 30.56692-12.33106zm-160.722321 286.075591c-52.57825-113.8254-.38403-260.89182 113.777041-317.643861 10.84604-5.32012 22.21219-9.7712 34.03518-13.36069 115.76394-28.75816 246.03978 34.00351 263.68455 158.897471 10.04526 85.91695-27.72044 168.80365-107.97396 206.83173-102.24035 46.26108-224.798841-11.43986-234.690511-131.24969-7.33455-123.78718 127.307171-194.136761 222.718561-137.24102-42.54074-27.89653-94.21826-33.44528-140.80825-12.98978-71.17376 32.62266-105.080851 118.0397-80.762351 190.63139 30.697281 88.13423 123.572931 132.04164 212.817841 105.59803 82.80488-25.06359 132.16266-100.33164 140.19255-180.04986 12.12434-145.020371-132.23823-245.3588802-265.59709-221.973611 7.92036-4.10499 20.5989-8.4277792 35.61563-11.7452592 60.06317-13.23825 124.63426-3.45807 179.45368 32.4903392 109.65077 71.904621 141.09454 217.803071 65.16008 333.599141-143.00482 218.07486-377.311781 117.06797-437.622951-1.79433" fill="#b21a1a"/></g><path d="m518 177.63281-97.25391-117.357419-109.2207 12.910156-152.62109-91.183594h-176.9043v90.515625l73.867188 29.759762c.07685 75.04395-9.025589 151.09202-38.306641 217.59961l109.562503 198.125h63.63281l-52.91406-95.6875 29.78711 4.75 52.60742 90.93555h64.33203l-74.16406-128.19922 90.5664-2.77539-20.40234 104.69141 54.63867 26.2832h49.51563l7.80273-34.2207-49.07422-23.60742.72852-3.73438 74.45117 19.86719 34.25976 41.69531h65.10743v-46.34375l-59.72657-71.06836c-22.80412 1.96782-47.4752-3.31939-64.11523-12.50977.0798-1.29326.05-2.6251.16602-3.90624l49.2539-1.50977 74.42188 69.18945v-76.0332l-53.26367-49.51367-53.30665 1.63086c7.14925-13.68099 14.15174-23.6988 22.76758-36.61328l83.80469 12.12109zm-218.76562-46.91797 97.96484-11.58007 104.11914 125.63671-46.35938-6.70703-57.02539-88.5957-20.69336 7.17969h-.004c-58.35409 20.26766-116.93624 20.7401-177.66602 11.23828-26.10143-30.12397-35.25634-75.049837-2.73237-98.353517zm75.10156 84.97852 40.6875 63.21094c-30.95858-16.42778-53.8099-35.42532-70.1836-56.3086 9.82066-1.87525 19.6533-4.15393 29.4961-6.90234zm-270.42578 16.22461c32.74207 36.67845 72.95064 65.85155 119.26367 87.88867l-40.29492 53.30078-79.23829-12.63476-24.263667-43.87891c9.893452-25.11356 18.385597-54.32061 24.533207-84.67578zm191.57422 57.51758-18.83594-7.15235c-17.08631-6.48725-33.08697-13.87037-45.75489-22.12793 27.00931 2.03765 50.8849 8.80593 64.59083 29.28028zm8.20312 16.20898c2.79677 7.4303 4.91219 15.87751 6.27148 25.39649l-26.07421.79882z" fill="#861313"/><path d="m0 .00000894v60.36336706l74.062449 29.837764-1.997191.45716c12.864811 56.24153-6.20751 164.18878-32.47329 223.84955l-1.96453 4.46208 100.110182 181.03216h22.49471l-56.00347-101.27415 74.69236 11.9094 51.69729 89.36265h22.74226l-62.09089-107.32787-99.132651-15.80687-32.627081-59.00452c14.999981-35.56493 27.509811-82.92761 33.300181-128.9346 38.660791 55.49996 92.159341 96.39389 158.328891 123.73727l-44.79351 59.25206 116.60385-3.57092-22.05547 113.17618 38.41641 18.47927h45.41289l-61.59898-29.6313 7.07338-36.2907 98.66496 26.32793 32.53438 39.59407h38.6018v-21.78369l-49.60741-59.0277c-24.88059 1.75597-51.6067-5.46488-74.64179-21.40026-.0948-10.73595.92486-21.099 2.89992-31.14605l71.7661-2.19733 49.58213 46.09547v-26.87884l-42.1032-39.13901-74.00135 2.26474c5.87148-17.69662 14.6292-34.42834 25.35462-50.50382-45.66991-23.66923-76.27453-53.50699-94.87283-87.1611 22.57372-2.54495 45.18536-7.2019 67.81596-14.48384l50.37216 78.26012 67.43675 9.75421v-19.88657l-55.73697-8.0625-53.80403-83.59017-7.31671 2.53862c-63.88057 22.18713-127.87701 21.91431-192.65506 11.09409-52.95712-54.94589-38.74084-113.888258 6.39396-136.154393l106.32506 63.528743 101.60491-12.01052 95.18884 114.85946v-30.84794l-86.86511-104.820848-105.58243 12.480328-153.61611-91.78012806h-153.93634zm230.4268 242.10656106c1.0302-.007 2.05407-.005 3.06742.008 58.73064.75842 89.97043 35.79035 95.40372 95.69866l-2.08778 10.72015-79.96132 2.44698 35.68818-47.20678-12.27809-4.66222c-34.29983-13.02281-64.90655-29.47329-91.76959-49.56737 19.17133-4.8908 36.48136-7.32514 51.93746-7.4368z" fill="#ff8066" stroke-width="36"/></svg>