<svg height="500.00003" viewBox="0 0 500 500.00003" width="500" xmlns="http://www.w3.org/2000/svg" xmlns:xlink="http://www.w3.org/1999/xlink"><filter id="a" color-interpolation-filters="sRGB" height="1.023917" width="1.024084" x="-.012042" y="-.011958"><feGaussianBlur stdDeviation="2.4188074"/></filter><filter id="b" color-interpolation-filters="sRGB" height="1.081505" width="1.081658" x="-.040829" y="-.040752"><feGaussianBlur stdDeviation="3.8044676"/></filter><filter id="c" color-interpolation-filters="sRGB" height="1.079081" width="1.07899" x="-.039495" y="-.03954"><feGaussianBlur stdDeviation="3.8044676"/></filter><g transform="translate(-500)"><path d="m926.7767 73.223311c45.24113 45.241099 73.2233 107.741109 73.2233 176.776699 0 69.0356-27.98221 131.53559-73.2233 176.77669-45.2411 45.2411-107.74109 73.22332-176.77669 73.22332-69.03559 0-131.5356-27.98219-176.7767-73.22332-45.2411-45.2411-73.22331-107.74109-73.22331-176.77669 0-69.03559 27.9822-131.5356 73.22331-176.776699 45.2411-45.241105 107.74111-73.22330934 176.7767-73.22330934 69.0356 0 131.53559 27.98220534 176.77669 73.22330934z" fill="#3b2f4f"/><g transform="translate(500)"><path d="m230.6486 0c-128.19182 22.346591-234.17086 139.43202-223.06447 273.24395 5.6201 44.55936 16.72649 83.63245 44.55937 122.70552l50.17947 50.17947c33.45298 22.34661 72.52606 44.55938 111.46533 50.17946 39.07308 5.62012 78.01235 5.62012 111.46534-5.62008 39.07308-16.72649 72.52607-33.45297 100.35893-61.28587 33.45297-39.07306 55.79958-83.63245 66.90595-139.43201v-61.28587c-5.62008-27.83287-11.10637-50.17947-22.34657-78.01235-11.10641-22.34659-27.8329-44.55937-50.17947-61.285858-27.83289-27.832879-61.28586-44.559368-100.35895-55.799569-27.83288-5.620101-55.79957-11.10639-89.25255-5.620101-78.01235 11.106391-139.43202 61.28586-172.885 128.191818-11.10639 27.83288-16.72649 61.28586-22.34659 89.25255 0 33.45298 5.6201 66.90596 16.72649 94.73885 22.34659 44.55936 55.79957 89.25254 105.97904 111.46532 16.72649 5.62012 33.45298 11.1064 55.79957 16.72648 122.70553 22.34661 234.17085-55.79954 250.89734-178.37127 11.10641-78.01236-22.34657-139.43203-72.52604-189.6115-100.35895-89.25255-267.62385-44.559369-312.18322 78.01235-5.6201 27.83288-16.72649 55.79958-16.72649 83.63245 5.6201 78.01235 55.79957 150.53843 133.81192 172.885 61.28586 16.72649 122.70553 5.62012 172.885-33.45298 11.10639-11.10637 22.34659-22.34657 33.45299-33.45297 61.28584-83.63246 44.55935-195.09778-44.55937-256.51746-27.83288-16.726488-55.79958-22.346588-89.25256-27.832879-22.34659-5.620101-44.55937 5.620101-66.90596 11.106391-27.83288 16.726488-50.17947 22.346588-72.52606 50.179468-27.83288 33.45298-33.45298 66.90596-39.07308 105.97904 0 55.79958 27.83288 117.08544 83.63245 144.91833 78.01235 44.55934 183.99139 11.10637 223.06447-72.52607 22.3466-55.79958 11.1064-128.19183-39.07308-172.88501-33.45298-27.83288-66.90596-39.07308-111.46533-39.07308-66.90596 5.6201-111.46533 55.79957-122.70553 122.70553-11.10639 72.52606 33.45298 139.43202 105.97904 150.53843 100.35894 16.72649 183.99138-89.25257 139.43202-178.37131-11.10638-16.72649-27.83288-39.07308-50.17947-50.17947-27.83288-11.10639-55.79957-16.72649-83.63245-11.10639-33.45298 5.6201-55.79957 27.83288-72.52606 50.17947-16.72649 27.83288-16.72649 55.79957-11.10639 83.63245 11.10639 33.45298 39.07308 61.28586 72.52606 72.52607 44.55937 16.72649 89.25255-5.62011 111.46533-39.07309 33.45298-55.79957 5.6201-117.08543-50.17947-139.43202-50.17947-16.72649-122.70553 27.83288-105.97904 89.25255 5.6201 16.72649 11.10639 39.07309 27.83288 50.17947 22.34659 16.7265 50.17947 16.7265 72.52606 11.1064 22.34659-11.1064 39.07308-33.45299 39.07308-61.28587-5.6201-16.72649-5.6201-39.07308-22.34659-50.17947-13.91644-8.36324-29.2379-11.13984-43.17107-8.34651-13.93317 2.79332-26.47803 11.15656-34.84128 25.073-5.6201 16.72649-11.10639 33.45298 9.50065 44.827 41.74932-49.10898 35.32635.40143 29.84006-16.45887v5.6201c16.72649-5.6201 22.34659-22.34659 27.83288-33.45298 5.6201 5.6201 16.72649 11.10639 16.72649 22.34659 11.10639 39.07308-27.83288 72.52606-66.90596 61.28586-33.45298-11.10639-44.55937-50.17947-39.07309-83.63245 5.62011-22.34659 22.3466-39.07308 50.17948-44.55937 33.45298-5.6201 66.90596 11.10639 83.63245 39.07308 16.72649 27.83288 16.72649 50.17947 0 78.01235-33.45298 55.79958-105.97905 55.79958-150.53841 11.10639-33.45298-44.55937-22.3466-117.08543 27.83288-144.91831 16.72648-11.10639 39.07308-16.72649 61.28586-16.72649 11.10638 0 27.83288 5.6201 39.07308 11.10639 27.83288 11.10639 39.07308 39.07308 55.79957 61.28586 5.6201 16.72649 5.6201 27.83288 5.6201 44.55937-5.6201 72.52606-72.52606 122.70554-144.91831 105.97904-83.63246-22.34659-122.70554-122.70553-72.52606-195.09778 11.10638-16.72649 22.34659-27.83288 39.07308-39.07308 78.01235-44.559372 167.2649-5.6201 200.71788 66.90596 39.07309 94.73884-39.07308 206.33797-139.43202 200.71788-27.83288-5.62012-55.79958-5.62012-78.01235-22.3466-22.34659-11.10638-27.83288-27.83287-39.07309-39.07307-66.90596-78.01235-33.45298-195.09778 55.79958-239.79097 39.07308-16.726484 83.63245-16.726484 128.19182-5.6201 94.73883 33.45298 139.43201 144.91832 94.73883 234.17087-11.10637 27.83288-33.45297 44.55935-55.79956 66.90596-22.34659 16.72649-50.17947 27.83289-78.01235 33.45298-44.55937 5.62012-89.25256-5.62009-128.19182-27.83286-94.73884-66.90598-117.08544-211.82429-22.3466-289.97045 16.7265-11.1064 27.83288-33.452984 50.17948-39.073085 33.45298-11.106392 66.90596-22.346593 105.97904-16.726492 27.83288 5.6201 55.79957 16.726492 78.01235 27.832879 16.72649 16.726488 39.07309 22.346598 50.17946 44.559368 11.10641 16.72649 27.8329 33.45298 33.45298 55.79957 22.34661 66.90596 16.72649 139.43203-27.83286 195.09781-16.72649 22.34657-33.45298 44.55934-61.28587 55.79954-22.34659 5.62012-39.07308 22.34661-61.28586 22.34661-39.07308 0-83.63245 5.62008-122.70553-11.10641-117.08543-44.55934-167.26491-195.09777-105.97905-306.69691 16.7265-33.45298 44.55937-61.285864 78.01236-83.632457 44.55936-22.34659 89.25255-33.452979 139.43202-27.832879 61.28586 5.6201 111.46532 39.07308 156.1585 83.632456 22.34661 22.34659 27.8329 50.17947 39.0731 78.01234 11.10637 16.7265 5.62008 39.07309 11.10637 61.28586 11.10645 172.88502-195.09777 301.07685-351.25629 211.82429-27.83287-16.72649-50.17946-27.8329-66.90596-50.17947-61.28586-72.52608-78.01235-167.26492-50.17947-256.51747 16.72649-33.45298 39.07309-61.28586 61.28587-89.252546 39.07308-39.073083 94.73884-55.799574 144.9183-72.526064" fill="#221b35" opacity=".9"/><path d="m231.45148 15.388371c-120.56454 21.008472-220.12061 131.001869-209.68329 256.785079 5.21867 41.88313 15.78981 78.68141 41.88314 115.34586 15.7898 15.65602 31.4458 31.44582 47.23561 47.1018 31.4458 21.0085 68.11026 41.88314 104.77473 47.23563 36.66447 5.21866 73.32893 5.21866 104.77473-5.21866 36.66447-15.65601 68.11026-31.44582 94.33742-57.67295 31.44579-36.66448 52.45425-78.68141 62.89161-131.00187v-57.67294c-5.2187-26.22714-10.43736-47.23561-21.00851-73.32894-10.43731-21.00847-26.22712-41.88313-47.10179-57.672935-26.22713-26.227136-57.67292-41.88313-94.33739-52.454272-26.22714-5.218666-52.45427-10.43733-83.90008-5.218666-73.32893 10.437332-131.00187 57.672938-162.44767 120.564543-10.43733 26.22713-15.78981 57.67294-21.00847 83.90008 0 31.44579 5.21866 62.8916 15.78981 89.11874 21.00847 41.88313 52.45427 83.90006 99.55607 104.77473 15.7898 5.21866 31.4458 10.43732 52.45427 15.65601 115.34588 21.00847 220.12062-52.45428 235.91043-167.66635 10.43732-73.32894-21.00847-131.00188-68.11026-178.23748-94.33742-83.900079-251.56643-41.883137-293.44956 73.32893-5.21867 26.22713-15.78981 52.45427-15.78981 78.68141 5.21866 73.32893 52.45427 141.573 125.78321 162.44767 57.67293 15.78981 115.34587 5.21866 162.44767-31.44578 10.43733-10.43736 21.00849-21.00849 31.4458-31.44582 57.67295-78.68141 41.88314-183.45615-41.88313-241.12909-26.22714-15.7898-52.45428-21.008465-83.90008-26.227131-21.00847-5.218666-41.88313 5.218666-62.8916 10.437331-26.22714 15.7898-47.23561 21.00847-68.11027 47.1018-26.22713 31.4458-31.4458 62.8916-36.66447 99.55606 0 52.45428 26.22714 110.12722 78.68142 136.22052 73.32893 41.88314 173.01881 10.43736 209.68327-68.11025 21.00847-52.45427 10.43736-120.56454-36.66446-162.44767-31.4458-26.22714-62.8916-36.66447-104.77473-36.66447-62.89161 5.21867-104.77474 52.45428-115.34588 115.34588-10.43733 68.11027 31.4458 131.00187 99.55607 141.57302 94.3374 15.65599 173.01881-83.90008 131.00187-167.66635-10.43733-15.7898-26.22714-36.66446-47.1018-47.2356-26.22713-10.43733-52.45427-15.656-78.68141-10.43733-31.4458 5.21866-52.45427 26.22713-68.11027 47.23561-15.7898 26.22713-15.7898 52.45427-10.43732 78.6814 10.43732 31.44581 36.66446 57.67295 68.11026 68.11027 41.88314 15.78981 83.90008-5.21866 104.77474-36.66446 31.4458-52.45428 5.21866-110.12721-47.1018-131.00187-47.23561-15.78981-115.34588 26.22713-99.55607 83.90007 5.21867 15.65599 10.43733 36.66447 26.22714 47.23561 21.00847 15.78981 47.10179 15.78981 68.11027 10.43733 21.00847-10.43733 36.66446-31.4458 36.66446-57.67294-5.21866-15.7898-5.21866-36.66447-21.00847-47.23561-13.11356-7.8949-27.5318-10.50423-40.62864-7.86145-13.09684 2.64279-24.87229 10.53769-32.70029 23.65126-5.21867 15.656-10.43733 31.4458 8.9654 42.15076 39.20689-46.70036 33.05154-.26763 27.96669-16.05744v5.21867c15.78981-5.21867 21.00847-21.00847 26.22714-31.4458 5.21866 5.21866 15.65599 10.43733 15.65599 21.00847 10.43733 36.66447-26.22714 68.11027-62.8916 57.67294-31.4458-10.43733-41.88313-47.23561-36.66447-78.68141 5.21867-21.00848 21.00847-36.66447 47.1018-41.88314 31.4458-5.21866 62.8916 10.43734 78.68141 36.66447 15.65599 26.22714 15.65599 47.23561 0 73.32893-31.4458 52.45428-99.55607 52.45428-141.57302 10.43734-31.4458-41.88313-21.00847-110.12722 26.22714-136.22054 15.78981-10.43733 36.66447-15.656 57.67294-15.656 10.43733 0 26.22714 5.21867 36.66447 10.43733 26.22713 10.43733 36.66446 36.66447 52.45427 57.67294 5.21866 15.78981 5.21866 26.22714 5.21866 41.88314-5.21866 68.11026-68.11026 115.34586-136.22053 99.55606-78.68141-21.00847-115.34588-115.34587-68.11027-183.45614 10.43733-15.656 21.00847-26.22714 36.66447-36.66447 73.32893-41.88313 157.22901-5.21866 188.67481 62.8916 36.66448 89.11874-36.66447 193.89349-131.00188 188.67483-26.22713-5.21866-52.45427-5.21866-73.32893-21.00848-21.00847-10.43734-26.22713-26.22714-36.66447-36.66447-62.8916-73.32893-31.4458-183.45615 52.45428-225.33928 36.66446-15.789805 78.68141-15.789805 120.56454-5.21866 89.11872 31.4458 131.00186 136.22053 89.11872 220.12061-10.43731 26.22714-31.44578 41.88313-52.45425 62.89162-21.00847 15.78977-47.23561 26.22712-73.32894 31.44578-41.88313 5.21866-83.90007-5.21866-120.56454-26.22712-89.11874-62.89162-110.12721-199.11215-21.00847-272.5749 15.656-10.43733 26.22714-31.445801 47.1018-36.664467 31.4458-10.437328 62.8916-21.00847 99.55607-15.655994 26.22713 5.218666 52.45427 15.655994 73.32893 26.227136 15.65599 15.789805 36.66446 21.008475 47.10181 41.883135 10.43732 15.7898 26.22713 31.4458 31.44578 52.45427 21.00847 62.8916 15.78981 131.00187-26.22712 183.45615-15.78981 21.00846-31.44582 41.88313-57.67295 52.45428-21.00847 5.21866-36.66446 21.00847-57.67294 21.00847-36.66446 0-78.68141 5.21866-115.34587-10.43735-110.12721-41.8831-157.22901-183.45614-99.55607-288.23087 15.7898-31.4458 41.88313-57.672937 73.32893-78.681407 41.88313-21.008474 83.90008-31.445802 131.00187-26.22714 57.67294 5.218666 104.77473 36.664468 146.79166 78.681417 21.00851 21.00847 26.22717 47.10179 36.66448 73.32893 10.43732 15.78981 5.21866 36.66446 10.43732 57.67293 10.43735 162.44767-183.45613 283.01222-330.24781 199.11215-26.22713-15.65601-47.23561-26.22713-62.8916-47.23563-57.67294-68.11025-73.32893-157.22899-47.23561-241.12907 15.78981-31.4458 36.66447-57.67293 57.67294-83.900069 36.66447-36.664468 89.11874-52.454275 136.22054-68.11027" opacity=".9"/></g></g><g stroke-linecap="round" stroke-linejoin="round"><g opacity=".75"><path d="m149.46094 188.57617a18.0018 18.0018 0 0 0 -12.90039 10.53711c-5.99637 14.01756-9.30434 28.92087-9.97266 43.91992-2.79965-11.12406-4.35743-22.09619-4.34375-32.55273a18.0018 18.0018 0 0 0 -35.374999-4.72266c-15.300839 56.5847-.972844 119.65912 43.421879 164.05469 44.63269 44.63358 108.13114 58.84281 164.94335 43.13867a18.0018 18.0018 0 0 0 -4.93945-35.34765c-10.59857.0851-21.71825-1.43044-32.98633-4.21094 15.02431-.72163 29.94692-4.08958 43.97266-10.14453a18.0018 18.0018 0 0 0 -9.89063-34.31446c-2.30243.35682-4.74549.45045-7.17578.56446 2.36977-.95448 4.71317-1.99039 7.00977-3.16407a18.0018 18.0018 0 0 0 -11.48438-33.72265c-13.10678 2.44045-34.48946-3.72742-51.50586-20.74414-16.75928-16.75963-23.1078-38.0036-20.92578-51.08789a18.0018 18.0018 0 0 0 -33.87695-10.96875c-1.16554 2.34635-2.18525 4.74371-3.125 7.16406.0795-2.75881.20932-5.49687.60156-8.0918a18.0018 18.0018 0 0 0 -21.44726-20.30664z" filter="url(#c)" opacity=".5"/><path d="m251.54492 80.878906c-14.27804-.09897-28.5651 1.589295-42.49023 5.054688a18.0018 18.0018 0 0 0 4.09765 35.464846c7.64809.10644 15.58029 1.13668 23.60743 2.73633-6.68185.79998-13.31543 2.06839-19.81641 3.9375a18.0018 18.0018 0 0 0 5.83594 35.27929c2.86771-.13747 5.83201-.0627 8.84765.15625-3.90006.91322-7.75613 2.0672-11.52343 3.52344a18.0018 18.0018 0 0 0 8.09179 34.7168c12.86954-1.14988 32.50302 5.84646 48.40625 21.75 16.14503 16.14534 22.94405 35.89497 21.55274 48.85547a18.0018 18.0018 0 0 0 34.60937 8.60742c1.51842-3.79587 2.72589-7.68392 3.6875-11.61914.16495 2.91228.2167 5.78583.0508 8.56445a18.0018 18.0018 0 0 0 35.22657 6.18164c1.94842-6.5826 3.28182-13.3054 4.13085-20.08008 1.50328 7.85923 2.48231 15.63319 2.56836 23.13867a18.0018 18.0018 0 0 0 35.45704 4.17774c14.00614-55.77228-.40814-117.43069-44.04495-161.06836-32.70254-32.703177-75.46078-49.080043-118.29492-49.376954z" filter="url(#b)" opacity=".5"/><g fill="#775fa0" stroke-width="36"><path d="m339.04828 161.0504c37.35384 37.35457 56.89538 83.75894 57.37841 125.88926 12.54179-49.94117-.25653-104.89732-39.31414-143.9557-39.05579-39.05655-93.85398-51.991105-143.71026-39.58393 42.04194.58514 88.3913 20.39496 125.64599 57.65037zm-24.43409 24.43275c27.80525 27.80579 41.69378 62.70789 39.85538 93.49648 10.80481-36.50312 1.97713-77.7033-26.8342-106.51519-28.60211-28.60265-69.41443-37.53012-105.7183-27.09237 30.5376-1.46389 65.21025 12.62367 92.69712 40.11108zm-88.0213-1.66288c19.90403-1.7784 43.69136 7.9041 62.73669 26.94979 19.33642 19.3368 28.87682 43.42297 26.72094 63.50568 9.98477-24.96081 4.83434-54.63506-15.37898-74.84876-20.01228-20.01268-49.27707-25.19369-74.07865-15.60671z"/><path d="m143.01841 357.08408c39.95998 39.96077 96.58155 52.57103 147.42049 38.51804-42.81902.34385-90.41687-19.23719-128.55892-57.37998-37.87325-37.87398-57.69087-85.1803-57.63515-127.76569-13.690904 50.63093-.97492 106.87837 38.77358 146.62763zm32.67595-32.67841c32.02557 32.02618 79.25639 39.23712 118.45272 22.31595-32.56545 5.04683-71.70038-8.50721-101.97986-38.7873-30.18536-30.18593-43.97064-69.23656-39.05717-101.74215-16.74072 39.13433-9.35346 86.27509 22.58431 118.2135zm13.85852-106.58659c-12.87609 25.92096-8.49203 58.0272 13.10486 79.62451 21.79064 21.79107 54.33881 26.1693 80.37661 12.8627-20.74137 3.86199-46.96065-5.14417-67.52782-25.71174-20.27289-20.2733-29.38848-46.1788-25.95365-66.77547z"/></g></g><path d="m216.69922 9.9453125a5.0005 5.0005 0 0 0 -4.9336 7.3007815c-3.65533.362194-7.20807.889785-10.47265 1.689453a5.0005 5.0005 0 0 0 -2.94336 7.554687c-1.25272-.897471-2.00577-1.346338-3.66797-2.55664-3.18637-2.3201-7.0959-4.918524-11.94336-6.015625-4.84746-1.097102-10.77649-.188388-15.76758 3.849609-6.21468 5.027807-6.93881 11.687895-7.6875 16.181641-.78884 4.73472-1.59632 8.441322-7.62304 15.228515a5.0005 5.0005 0 0 0 4.35937 8.28125c1.85881-.231982 3.47083-.487297 4.98047-.849609-1.05343.895869-2.11988 1.770687-3.10156 2.789062-5.64534 5.856331-9.49226 14.388572-8.20313 25.402344a5.0005 5.0005 0 0 0 7.41406 3.320313c.65706.569836 1.34497 1.116491 2.14258 1.5625 3.77561 2.111241 8.55802 2.579495 14.37891 1.646484a5.0005 5.0005 0 0 0 .20703-9.835937c-2.00537-.40827-4.36499-2.272159-5.2793-3.867188-.45715-.797514-.52311-1.410829-.51367-1.527344.009-.116514-.20716.15321.10156-.07031 3.83025-2.773142 7.82762-2.546152 14.79688-2.261719a5.0005 5.0005 0 0 0 .30078.0039c9.19445-.177914 14.29647-.686988 19.28906-1.398437a5.0005 5.0005 0 0 0 1.35938 5.634765c-.40257.574308-.73061 1.168015-1.14844 1.71875a5.0005 5.0005 0 0 0 5.66797 7.527344c-.21254.285427-.52242.808352-.6582.935547a5.0005 5.0005 0 0 0 4.64062 8.498051c6.0689-1.531251 11.33096-3.528984 15.5918-8.001957 4.29476-4.508572 7.0012-10.455929 10.54883-19.580078 2.45084-6.302978.36282-12.005762-1.37696-15.414063-.84574-1.656852-1.44058-2.878349-1.54883-3.310547-.10824-.432197-.25408.239523.01-.125 5.4502-7.529034 8.19772-14.220353 7.59766-20.714843.28575-6.290708-3.09821-11.838024-7.92188-15.507813-4.9336-3.75342-11.34135-6.226478-18.5957-8.0878905zm117.26758 12.1874995c-7.97803-.522708-13.03815 3.844323-16.66407 6.625-3.82688 2.934795-6.93992 5.081393-16.02929 5.966797a5.0005 5.0005 0 0 0 -2.41602 9.048828c1.48892 1.06011 2.81389 1.955193 4.13281 2.701172-1.35499-.05369-2.70355-.134635-4.09375-.05078-8.13786.490862-16.78042 4.205607-23.14062 13.160156a5.0005 5.0005 0 0 0 3.16406 7.433594c.0991.872225.24012 1.748866.53125 2.621094 1.36068 4.076562 4.52867 7.569955 9.31836 10.800781a5.0005 5.0005 0 0 0 6.87695-7.037109c-1.16272-1.640932-1.63556-4.626964-1.22851-6.419922.20352-.896479.57067-1.388809.64648-1.458985.0758-.07018-.28983-.0137.082.03125 4.64618.561667 7.3951 3.43714 12.27539 8.402344a5.0005 5.0005 0 0 0 .2168.207031c6.78639 6.121517 10.93251 9.295784 15.15625 12.242188a5.0005 5.0005 0 0 0 -2.88476 5.082031c-.67925.138854-1.31578.345671-1.99024.457031a5.0005 5.0005 0 0 0 -.96094 9.453127c-.33912.056-.90884.21845-1.09961.21679a5.0005 5.0005 0 0 0 -2.47265 9.3711c5.78241 3.21269 11.12374 5.31236 17.28515 4.94531 6.16142-.36705 12.45489-2.87709 21.41016-7.38476 6.10511-3.07292 8.31409-8.819329 9.25586-12.50977.46002-1.802634.8246-3.111249 1.0293-3.503906.20257-.388594-.32512-.0041.10351-.09375 9.13416-2.028888 15.60219-5.348995 19.39844-10.611328 4.31032-4.527614 5.46396-10.840934 4.37891-16.746094-1.11008-6.041374-4.11551-12.108148-8.09766-18.271484a5.0005 5.0005 0 0 0 -8.58984 2.068359c-2.87341-2.13923-5.78361-4.094167-8.67188-5.675781a5.0005 5.0005 0 0 0 -7.24023 3.529297c-.29564-1.481984-.53183-2.273776-.90625-4.222656-.74201-3.862187-1.81443-8.417661-4.60938-12.513672-2.79495-4.096012-7.76366-7.443895-14.16601-7.863282zm-108.7168 1.654297c1.41655.725055 2.97333 1.431432 3.99023 2.205078 3.19949 2.434128 4.24065 4.373738 4.03321 7.246094a5.0005 5.0005 0 0 0 .0234.964844c.0517.423295-.016.954159-.0371 1.443359-1.45639-.440634-2.96595-.534816-4.49415-.355468.009-.05289.0387-.103317.0469-.15625.5231-3.377849-.37739-6.346857-1.47656-9.056641a5.0005 5.0005 0 0 0 -2.2168-2.023438 5.0005 5.0005 0 0 0 .13086-.267578zm-9.00977 3.212891c-.0113.01244-.0278.02073-.0391.0332a5.0005 5.0005 0 0 0 .01-.03125c.01-.000602.0195-.0014.0293-.002zm-17.15039.0059a5.0005 5.0005 0 0 0 3.25196 1.714844c-.0244.03251-.0538.05134-.0781.08398a5.0005 5.0005 0 0 0 -.002 0c-.48611.652246-.41832.404659-.11719.337891.30113-.06677.3268.06344-.2793-.203125-.4683-.205957-1.91374-1.334185-2.77539-1.933594zm-22.05468.515625c1.1453-.247332 2.24315-.132739 3.49414.150391 2.50197.56626 5.4705 2.310489 8.26562 4.345703 2.88933 2.103816 5.49775 4.516137 9.04492 6.076172 1.77359.780017 4.03844 1.351358 6.46875.8125 2.43032-.538858 4.51625-2.170841 5.97266-4.125 1.12466-1.508966 2.28414-2.637696 3.4375-3.699219-.12756.351417-.3084.667621-.40234 1.041016-.39649 1.575829-.28882 3.190068.0781 4.755859-.264-.0134-.50642-.08505-.77539-.08398-2.21141.0088-4.69248.681783-6.69727 2.339844-2.00478 1.65806-3.31716 4.147075-3.8496 6.882812a5.0005 5.0005 0 0 0 -.0781 1.330078c.16435 2.190815 2.24062 5.014809 4.1582 5.765625 1.66768.652966 2.71367.593499 3.52344.566406-.21295.537897-.4691 1.235316-.41992 2.785157.0322 1.013774.43066 2.548481 1.42773 3.693359.99707 1.144879 2.2517 1.676579 3.20703 1.917969 5.05484 1.277419 8.96258-1.289262 11.50586-5.1875.22213-.340469.30236-.78792.48243-1.164063.0445.345038-.0491.771148.0293 1.083985.59943 2.393359 1.62973 4.030876 2.34375 5.429687 1.47214 2.883981 2.19827 4.065095.96289 7.242188-2.60233 6.692939-4.60106 10.55893-6.5664 13.46289.43706-2.006552.71823-4.02224.74023-5.992187a5.0005 5.0005 0 0 0 -6.62695-4.6875 5.0005 5.0005 0 0 0 -.25781-.291016c.0675-.177024.18272-.30188.24609-.482422a5.0005 5.0005 0 0 0 -5.53516-6.589843c-11.48854 1.900984-13.6015 2.583924-28.09961 2.867187-5.89321-.24385-12.17186-.387029-18.15039 2.734375.0496-.05211.0827-.110115.13282-.162109 4.10727-4.260775 10.35086-7.685829 16.50195-11.421875 2.67448-1.624615 5.06389-4.223668 5.11523-7.666016a5.0005 5.0005 0 0 0 -4.66211-5.0625c-.46431-.03148-.86838.100531-1.32031.105469a5.0005 5.0005 0 0 0 -3.89648-4.142578c-2.71191-.344379-5.7624.110677-8.56641 1.460937.37968-1.409685.66924-2.761076.87891-4.019531.8603-5.163679.5743-7.191203 4.11133-10.052734 1.43833-1.163672 2.63009-1.772199 3.77539-2.019532zm156.27734 4.589844c3.70278.242551 5.13442 1.431489 6.56055 3.521484 1.42612 2.089996 2.39678 5.369725 3.04882 8.763672.67219 3.498746.93201 7.041447 2.46485 10.59961.76642 1.779081 2.04011 3.747102 4.20508 5 2.16439 1.252566 4.81758 1.444747 7.20898.972656 1.79149-.353906 3.34433-.408 4.86328-.435547-.32431.174707-.66427.289777-.97851.501953-1.34007.904819-2.33983 2.168227-3.11719 3.572266-.17371-.174373-.29309-.376915-.47852-.544922-1.63895-1.48496-3.92712-2.657835-6.52343-2.78125-2.59632-.123415-5.23619.829414-7.47461 2.484375a5.0005 5.0005 0 0 0 -.95313.921875c-1.36117 1.724772-1.756 5.180091-.86328 7.041016.78365 1.63356 1.61175 2.314039 2.24023 2.857421-.52409.25507-1.19336.595614-2.21484 1.791016-.66084.773363-1.3988 2.179138-1.43164 3.697266-.0328 1.518128.53445 2.753723 1.07813 3.576172 2.82145 4.268491 7.81968 5.191174 12.22265 3.873046.39043-.116884.7491-.398868 1.13281-.568359-.23314.330455-.63088.625432-.80273.955078-1.14488 2.196184-1.45897 4.115856-1.85156 5.654297-.80517 3.15515-1.01462 4.514725-4.0625 6.048828-7.02938 3.538268-11.74507 5.323678-15.29492 5.994138 2.04079-1.32889 3.96325-2.78911 5.56445-4.48828a5.0005 5.0005 0 0 0 -1.78906-7.929686 5.0005 5.0005 0 0 0 .01-.470703c.16893-.08324.33759-.09499.50586-.183594a5.0005 5.0005 0 0 0 .41211-8.605469c-9.71052-6.369282-11.93458-7.526765-22.60937-17.152343-4.11317-4.189228-8.58189-8.563095-15.0293-10.353516.0493-.0032.0932-.01655.14258-.01953 5.87999-.354671 12.62427 1.386073 19.82422 2.876953 3.06522.63455 6.58214.360477 8.96679-2.119141a5.0005 5.0005 0 0 0 .0449-6.884765c-.31621-.337404-.69943-.51565-1.03125-.81836a5.0005 5.0005 0 0 0 -.0293-5.691406c-1.7482-2.095887-4.28695-3.830941-7.25196-4.751953 1.22902-.76599 2.35874-1.550852 3.36719-2.324219 4.1623-3.192027 5.36015-4.879084 9.92383-4.580078zm20.58594 15.787109a5.0005 5.0005 0 0 0 1.14843 3.244141c-.0641.01237-.11933.0029-.18359.01563-.79279.156632-.55265.01523-.26172.183594.29093.168365.22971.300454-.0293-.300781-.19082-.442935-.46477-2.187854-.67383-3.142579zm12.45703 11.248047c.007.0052.013.01037.0195.01563-.0198.0019-.0407-.002-.0605 0a5.0005 5.0005 0 0 0 .041-.01563zm9.01367 4.640625c.33594 1.02903.87619 2.193873 1.04297 3.101563.72405 3.940518.19652 6.150742-1.85352 8.193359a5.0005 5.0005 0 0 0 -.60547.732422c-.23396.344308-.62524.689094-.94921 1.035156-.78007-1.248576-1.79705-2.287866-3.01368-3.146484.0534-.04219.12346-.06614.17579-.109375 2.62977-2.172814 3.93703-4.973242 4.9375-7.712891a5.0005 5.0005 0 0 0 .26562-2.09375zm-283.078124 19.484334c-6.145758.105276-12.627705 2.067994-19.367188 4.964844a5.0005 5.0005 0 0 0 .628906 8.822266c-2.57921 2.472381-4.984205 5.012446-7.017578 7.587886a5.0005 5.0005 0 0 0 2.267578 7.72071c-1.504672.0396-2.312373.13925-4.277343.17578-3.938491.0732-8.607995.34721-13.119141 2.39062-4.511146 2.04342-8.658925 6.36304-10.142578 12.58789-1.849359 7.75876 1.603472 13.4741 3.732422 17.5293 2.239986 4.2667 3.836871 7.72458 3.117187 16.78516a5.0005 5.0005 0 0 0 8.472656 3.98047c1.324162-1.2884 2.448126-2.44952 3.425782-3.63282-.298469 1.34514-.619078 2.68001-.78711 4.08985-.96433 8.09099 1.111818 17.23682 8.699219 25.15039a5.0005 5.0005 0 0 0 7.902344-1.74219c.887967.065 1.789752.0846 2.714844-.0449 4.275362-.59852 8.309008-3.10036 12.390625-7.27539a5.0005 5.0005 0 0 0 -5.697266-8.02149c-1.862304.87315-4.876425.79357-6.5625.0684-.843038-.3626-1.259792-.81342-1.318359-.90625-.05857-.0928-.06948.26376.04297-.0976 1.404186-4.51314 4.743604-6.72466 10.53125-10.71485a5.0005 5.0005 0 0 0 .240235-.17773c7.186768-5.61854 11.103652-9.26102 14.791009-13.01563a5.0005 5.0005 0 0 0 4.5625 3.73633c.0215.70028.11702 1.36916.11133 2.06055a5.0005 5.0005 0 0 0 9.2168 2.5039c-.003.35575.0617.9529.0254 1.15235a5.0005 5.0005 0 0 0 8.82813 4.01172c4.18166-5.24776 7.15743-10.23276 7.81445-16.42383.65701-6.19107-.80322-12.85898-3.8086-22.45508-2.04723-6.53723-7.37197-9.64946-10.86523-11.17578-1.70701-.74585-2.94267-1.31711-3.29883-1.58398-.35615-.26688-.0518.34175-.0781-.12696-.52489-9.3522-2.76143-16.274113-7.33789-20.871091-3.77502-4.995831-9.825621-7.155724-15.837892-7.052735zm.171875 9.998047c4.021585-.06889 6.130274.815819 7.818359 3.171875a5.0005 5.0005 0 0 0 .625.716797c.30264.286984.58128.727462.87109 1.103516-1.36576.568894-2.560785 1.409165-3.609371 2.476561-.03719-.0676-.0511-.15035-.08984-.2168-1.720031-2.949759-4.272599-4.694817-6.816406-6.130855a5.0005 5.0005 0 0 0 -2.769532-.183594 5.0005 5.0005 0 0 0 -.01172-.298828c1.356022-.239379 2.844488-.619179 3.982422-.638672zm-9.242188 8.587889c-.0014.0203-.01039.0403-.01172.0605a5.0005 5.0005 0 0 0 -.01367-.0371c.0086-.008.01674-.0158.02539-.0234zm.556641 4.85547c.125238.37262.188229.75094.357422 1.11914.676747 1.47278 1.764829 2.6682 3.027343 3.66602-.200923.14283-.420625.22734-.617187.38281-1.737003 1.37391-3.273631 3.44262-3.822266 5.98633-.548634 2.5437-.04111 5.30535 1.22461 7.78906a5.0005 5.0005 0 0 0 .751953 1.0918c1.477707 1.62791 4.819017 2.5885 6.804687 2.01562 1.761476-.50819 2.572975-1.22697 3.216797-1.75976.166092.56231.386046 1.28696 1.416016 2.51171.655589.77958 1.924755 1.7389 3.417968 2.01954 1.493213.28063 2.805913-.0783 3.707033-.48047 4.6824-2.08959 6.41195-6.87973 5.82812-11.44922-.0545-.42681-.28307-.84866-.39648-1.27734.3026.30133.5424.7615.85547.99609 1.98479 1.48725 3.83239 2.10877 5.29101 2.74609 2.99006 1.30646 4.30198 1.72954 5.32618 5 2.39904 7.66011 3.38811 12.66732 3.43359 16.33008-.98443-2.28558-2.1218-4.47484-3.5625-6.37305a5.0005 5.0005 0 0 0 -8.21289 1.1211 5.0005 5.0005 0 0 0 -.30274-.15625c-.10072-.37448-.0777-.72581-.20117-1.10157a5.0005 5.0005 0 0 0 -8.42578-1.83007c-7.79599 8.44867-9.59415 10.73771-20.83203 19.52734-4.884912 3.36345-9.997799 7.00807-12.916016 13.08203.0082-.0725-.000854-.14018.0078-.21289.706748-5.92981 3.593775-12.20741 6.310547-19.08008 1.153908-2.91948 1.47773-6.44145-.560547-9.21289a5.0005 5.0005 0 0 0 -6.767578-1.2207c-.388259.25438-.629792.60306-.986328.87891a5.0005 5.0005 0 0 0 -5.621094-.9668c-2.367052 1.35692-4.516329 3.55646-5.935547 6.3164-.552853-1.36643-1.145275-2.62882-1.744141-3.76953-2.445718-4.65857-3.911431-6.14677-2.859375-10.56054a5.0005 5.0005 0 0 0 0-.002c.852572-3.57706 2.245001-4.75596 4.542969-5.79687 2.297969-1.04091 5.707027-1.43544 9.179688-1.5 3.575279-.0665 7.125376.27599 10.898437-.63672 1.886531-.45636 4.044477-1.38303 5.644531-3.31445 1.600055-1.93143 2.225718-4.52401 2.150391-6.96485-.0569-1.84504.1458-3.40058.371094-4.91406zm-10.34961 5.00977c.0019.0756-.01797.13701-.01563.21289.0061.19679.0023.17883 0 .26367-.01669.004.174748-.0928-.152343-.0137-.475876.11511-2.262662.0881-3.259766.13281a5.0005 5.0005 0 0 0 3.427734-.5957zm352.228516 6.97461a5.0005 5.0005 0 0 0 -7.43359 5.67773c.54699 1.82802 1.08312 3.39763 1.70898 4.84961-1.08697-.91104-2.15995-1.8345-3.36719-2.65234-6.76117-4.58036-15.85288-6.95663-26.45898-3.90821a5.0005 5.0005 0 0 0 -2.05274 7.86719c-.46188.75118-.89423 1.533-1.20703 2.40625-1.46553 4.09141-1.12808 8.91212.7793 14.54102a5.0005 5.0005 0 0 0 9.73242-1.44532c.0661-2.07887 1.5165-4.71687 2.94531-5.88672.71441-.58492 1.31438-.75309 1.43946-.76367.12508-.0106-.16461-.17583.11133.0957 3.40364 3.34944 3.8522 7.36044 4.78125 14.33789a5.0005 5.0005 0 0 0 .0469.29492c1.74306 8.9476 3.19483 14.03537 4.83594 18.95117a5.0005 5.0005 0 0 0 -5.33594 2.3457c-.64342-.29943-1.29101-.52006-1.91406-.83984a5.0005 5.0005 0 0 0 -6.4043 6.9668c-.32064-.16244-.88873-.37457-1.04883-.49414a5.0005 5.0005 0 0 0 -7.52929 6.10546c2.68711 5.80958 5.69888 10.67821 10.9414 14.08789 5.27982 3.43394 11.71559 5.03547 21.36328 6.79883 6.6562 1.21672 11.85288-1.94078 14.83789-4.28711 1.45384-1.14277 2.5324-1.95565 2.92774-2.14062.39533-.18497-.29794-.1997.10742-.0117 8.39419 3.89321 15.45591 5.25724 21.65625 3.43164 6.18487-.93112 10.9488-5.26738 13.6582-10.64453 2.76804-5.4935 4.04377-12.17687 4.59766-19.5625a5.0005 5.0005 0 0 0 -8.05078-3.58008c-.99055-3.4532-2.12243-6.77957-3.46094-9.78906a5.0005 5.0005 0 0 0 -7.87305-1.58594c.65665-1.36509.94396-2.14318 1.82032-3.92969 1.73456-3.53598 3.62618-7.8231 3.88672-12.77343.26053-4.95034-1.64228-10.63191-6.47071-14.82618-6.01859-5.22825-12.69577-4.77162-17.26367-4.73046-4.80038.0433-8.60763-.11003-16.30664-4.90625zm12.21289 14.73242c1.48368.13621 2.88663.18551 4.18359.17383 5.25197-.0473 7.21362-.67539 10.61719 2.28125 2.7607 2.3981 3.17518 4.20079 3.04102 6.75-.13417 2.54921-1.35012 5.77802-2.87891 8.89453-1.57784 3.21649-3.50077 6.21084-4.41797 9.97461-.4586 1.88188-.62744 4.21366.33789 6.51562s2.95909 4.06108 5.14649 5.13086c1.65292.80843 2.93335 1.71512 4.16211 2.625-.36512-.0581-.70585-.17561-1.08594-.19727-1.60422-.0914-3.15096.31059-4.60742.95118-.0332-.24237-.007-.4744-.0527-.71875-.40986-2.17014-1.52362-4.48449-3.51953-6.15039-1.99591-1.66591-4.68023-2.49778-7.46289-2.52149a5.0005 5.0005 0 0 0 -1.31836.16602c-2.12423.56078-4.5106 3.08356-4.91601 5.10351-.35365 1.76204-.10791 2.79763.0664 3.60742-.56847-.11036-1.30114-.23294-2.81445.10157-.99178.21923-2.42885.89715-3.36914 2.08984s-1.22883 2.52283-1.28906 3.50586c-.31831 5.1923 2.94919 8.60588 7.25976 10.35938.36617.14895.80777.14236 1.19922.24609-.32154.1075-.74806.0971-1.0332.23047-2.2316 1.04411-3.63706 2.36747-4.86914 3.33594-2.53524 1.99278-3.51482 2.92386-6.85938 2.3125-7.37795-1.34852-12.08259-2.60136-15.36133-4.11133 2.3053.12375 4.58956.0719 6.76368-.30469a5.0005 5.0005 0 0 0 3.3496-7.40625 5.0005 5.0005 0 0 0 .25-.31836c.18644.0347.33041.1263.51954.15625a5.0005 5.0005 0 0 0 5.47851-6.6543c-3.92082-10.74298-5.13627-13.25655-7.87305-27.28711-.7833-5.91165-1.70357-12.17004-5.8457-17.58203.0933.0619.19195.099.28516.16211 4.91821 3.33184 9.24194 8.82557 14.09765 14.375 2.06665 2.36164 5.05235 4.26403 8.45118 3.71485a5.0005 5.0005 0 0 0 4.17382-5.45899c-.0489-.46581-.24902-.84386-.33203-1.29101a5.0005 5.0005 0 0 0 3.43164-4.54883c-.12065-2.73724-1.09086-5.67501-2.9082-8.21289zm21.52148 27.72656a5.0005 5.0005 0 0 0 -.98437 3.08203c-.0433-.0213-.0718-.051-.11523-.0723-.71948-.35188-.44353-.3168-.31641-.0137.12712.30313-.00002.36196.15625-.27929.10695-.4389.89644-1.91281 1.25976-2.7168zm3.125 16.30273a5.0005 5.0005 0 0 0 .0352.01c.002.007.002.0144.004.0215-.014-.009-.025-.0227-.0391-.0312zm4.38282 9.28321c-.35695 1.03627-.63424 2.30811-1.05274 3.13867-1.80329 3.57886-3.52608 4.97565-6.34765 5.32812a5.0005 5.0005 0 0 0 -.93555.20899c-.38133.12497-.88708.157-1.33789.23047.14181-1.46827-.036-2.91511-.48047-4.33985.0542-.001.11001.0177.16406.0156 3.40529-.1294 6.13749-1.56663 8.58399-3.14453a5.0005 5.0005 0 0 0 1.40625-1.4375zm-434.949221 30.71484c-4.611275.0918-9.02462 2.13855-12.572266 5.18164-4.730194 4.05746-8.566529 9.82261-11.9589843 16.54102a5.0005 5.0005 0 0 0 6.2734373 6.30859c-.166558 1.38688-.500883 2.77287-.601562 4.14649a5.0005 5.0005 0 0 0 -.0098.15429c-.09864 2.32765-.09497 4.57601.01953 6.70899a5.0005 5.0005 0 0 0 9.820313.76367c.03947.0442.06572.0906.105469.13476.569259.63269.361592.56081.353515.28516-.0081-.27564.114342-.26525-.265625.28906-.759932 1.10863-3.34823 3.39443-6.298828 6.17969-2.888914 2.72703-6.174788 6.13158-8.1289061 10.74414-1.9541179 4.61256-2.108218 10.642.9824219 16.3457 3.8405762 7.08792 10.2730112 9.05272 14.5664062 10.62696 4.540267 1.66475 8.040167 3.15255 13.683594 10.32812a5.0005 5.0005 0 0 0 8.923828-2.83984c.09242-1.83715.131433-3.44487.04687-4.9668.683577 1.17471 1.341524 2.36043 2.154297 3.48633 4.759448 6.59306 12.486118 11.8607 23.527343 12.46484a5.0005 5.0005 0 0 0 4.554728-6.70898c.66177-.53935 1.309331-1.10797 1.876953-1.80078 2.723866-3.32462 4.027989-7.91026 4.164063-13.7461a5.0005 5.0005 0 0 0 -9.634766-1.98828c-.756318 1.87201-3.013468 3.87476-4.740234 4.4961-.863384.31067-1.473061.26669-1.574219.24023-.101159-.0265.138341.24816-.02539-.0918-2.030715-4.2164-1.098746-8.08434.470703-14.83203a5.0005 5.0005 0 0 0 .05859-.29492c1.586355-9.33583 2.056072-14.23983 2.332031-19.14258a5.0005 5.0005 0 0 0 5.869141-.23633c.480137.5001.995229.93431 1.449219 1.44336a5.0005 5.0005 0 0 0 8.501953-4.16211c.260031.28142.732432.70959.826172.86133a5.0005 5.0005 0 0 0 9.251953-2.80078c-.170221-4.95999-.639692-9.43684-2.75586-13.76953a5.0005 5.0005 0 0 0 -.103515-.20117c-3.456806-6.33496-9.300216-10.71175-19.177735-17.0625-5.691753-3.65966-11.683723-2.77531-15.367187-1.75977-1.789169.49328-3.104656.82897-3.550781.84766-.446126.0187.179159.29555-.125-.0371-6.259627-6.84681-12.21478-10.86384-18.660157-11.5918-1.425905-.36367-2.853717-.57295-4.261718-.54492zm-.0059 9.92383c.632069.005 1.272664.10565 1.94336.29492a5.0005 5.0005 0 0 0 .949218.17188c.405262.0332.885587.20161 1.333985.31054-.733203 1.34563-1.132593 2.81304-1.265625 4.35547-.06832-.0275-.128491-.0797-.197266-.10547-3.214316-1.2046-6.312578-.91494-9.203125-.38281a5.0005 5.0005 0 0 0 -2.238281 1.61133 5.0005 5.0005 0 0 0 -.183594-.20703c.941771-1.11842 1.895942-2.42 2.806641-3.20117 2.337746-2.00527 4.158481-2.863 6.054687-2.84766zm32.990235 10.2832c1.071272.007 2.117069.35536 3.572265 1.29102 6.088146 3.91437 9.829509 6.70991 12.392578 9.22851-1.972602-.87746-3.994466-1.58343-6.023437-2.01367a5.0005 5.0005 0 0 0 -5.582031 6.06641 5.0005 5.0005 0 0 0 -.314453.0781c-.329555-.22042-.549951-.50301-.898438-.70898a5.0005 5.0005 0 0 0 -7.539062 4.09961c-.496709 12.14131-.166378 13.41863-2.671875 28.17578-1.331805 5.71522-2.604243 11.84327-.634766 18.24023-.0264-.0363-.05767-.0632-.08398-.0996-3.45169-4.78147-5.710596-11.5457-8.25586-18.28125-1.106888-2.92871-3.20569-5.75473-6.582031-6.45117a5.0005 5.0005 0 0 0 -5.851563 3.65625c-.0965.37619-.04341.72722-.113281 1.09961a5.0005 5.0005 0 0 0 -4.814453 3.31055c-.828566 2.61596-.926884 5.70494-.101562 8.71289-1.300791-.62322-2.566098-1.15556-3.75586-1.5918-4.924093-1.80549-6.99584-1.90475-9.214844-6-1.811702-3.34345-1.578746-5.29669-.568359-7.68164s3.266201-4.99329 5.785156-7.37109c2.605855-2.45984 5.47767-4.58267 7.683594-7.80078 1.102962-1.60906 2.086711-3.74169 2.013672-6.23438-.07304-2.49269-1.270308-4.85475-2.914063-6.68164-1.040753-1.15675-1.925833-2.30632-2.671875-3.43359-.255117-.40476-.474959-.80251-.693359-1.19922.468575.32721.911376.67913 1.447266.93945 1.485249.72151 3.111132.94574 4.742187.89453-.116658.45146-.302318.86199-.375 1.33789a5.0005 5.0005 0 0 0 -.0098.0625c-.605873 4.33698 2.156851 9.65216 7.121093 11.69532a5.0005 5.0005 0 0 0 1.289063.33984c2.031525.25136 4.994346-.91345 6.220703-2.55859 1.226357-1.64515 1.353102-2.90023 1.533203-3.78125.01-.0489.0133-.0357.02344-.082.420582.26231.640054.49538 1.826171.85547.898837.27288 2.460375.52351 4.097657-.14843s2.688798-2.05182 3.189453-3.08985c.132155-.27398.248-.55245.349609-.83203a5.0005 5.0005 0 0 0 .0059-.0176c1.642172-4.57592-.207118-8.98902-3.597657-11.91211-.158043-.13625-.387423-.2082-.55664-.33593.327757.0228.706331.19248 1.011718.17968 2.466567-.10333 4.279923-.7826 5.791016-1.19922 1.560862-.43033 2.657243-.76446 3.728516-.75781zm-40.810547 5.42578c.148183.20717.255809.44631.414062.64453a5.0005 5.0005 0 0 0 -.453125-.37695c.01419-.0899.0246-.1776.03906-.26758zm418.111323 2.37696a5.0005 5.0005 0 0 0 -6.72851 4.51172c-.80721.2451-1.61321.51846-2.39258.93554-3.78913 2.02778-6.75082 5.75846-9.0957 11.07031a5.0005 5.0005 0 0 0 8.125 5.53907c1.39244-1.40598 4.28348-2.41041 6.15039-2.32227.93345.0441 1.49712.32166 1.58594.38867.0888.067-.0309-.28103-.01.10157.25751 4.67295-2.11353 7.88033-6.17187 13.48242a5.0005 5.0005 0 0 0 -.16993.25c-4.94337 7.77015-7.338 12.24725-9.51367 16.76953a5.0005 5.0005 0 0 0 -5.44336-2.00586c-.2518-.65179-.56111-1.25366-.78515-1.9043a5.0005 5.0005 0 0 0 -9.41993.53516c-.11581-.33144-.3744-.8764-.40429-1.06055a5.0005 5.0005 0 0 0 -9.64258-.88281c-2.11875 5.91846-3.40739 11.46585-2.06445 17.57422 1.35009 6.14093 4.82728 11.8317 10.53711 19.85547 3.94387 5.54238 9.92342 6.86928 13.70507 7.25 1.84513.18575 3.18661.34999 3.60157.49218.41495.1422-.0686-.34671.0957.0781 3.3564 8.6817 7.56454 14.56619 13.31445 17.53906 5.10842 3.59643 11.5286 3.79187 17.20313 1.82031 5.80006-2.01517 11.34115-5.91729 16.83203-10.82421a5.0005 5.0005 0 0 0 -3.33594-8.16407c1.68128-3.18087 3.17456-6.37376 4.29883-9.48828a5.0005 5.0005 0 0 0 -4.62305-6.61719c1.43087-.53657 2.20147-.90324 4.10156-1.60156 3.69605-1.35836 8.03356-3.1684 11.63868-6.60742 3.60511-3.43902 6.12931-8.89289 5.54492-15.32031-.72822-8.01044-5.86751-12.33876-9.20117-15.47266-3.52974-3.3182-6.144-6.03476-8.55664-14.95312a5.0005 5.0005 0 0 0 -9.33399-.85938c-.81934 1.70612-1.4837 3.20536-2.0039 4.67188-.17874-1.3807-.33299-2.75995-.66211-4.15625-1.88333-7.99013-7.10258-15.93426-17.17579-20.625zm7.36329 22.67968c.0205.084.0582.15574.0781.24024 1.37021 5.81318.76605 12.7235.4668 20.07617-.12711 3.12702.70437 6.55296 3.54297 8.50781a5.0005 5.0005 0 0 0 6.80468-1.07812c.23686-.30932.32639-.65436.53711-.97071a5.0005 5.0005 0 0 0 5.72266-1.16406c1.79892-2.0935 3.11003-4.91902 3.52344-8.03711.95625 1.09099 1.91448 2.07955 2.84375 2.95313 3.82212 3.59308 5.67261 4.48072 6.09179 9.09179.34045 3.74435-.63094 5.40793-2.48828 7.17969-1.85733 1.77177-4.94686 3.26676-8.18554 4.45703-3.34656 1.22992-6.79889 2.05406-10.06446 4.13086-1.63278 1.0384-3.36784 2.60199-4.26758 4.92774-.89973 2.32575-.68787 4.97155.14063 7.26172.61948 1.71251.9045 3.23769 1.16016 4.73437-.2124-.27945-.36657-.58432-.61133-.84961-1.09227-1.18387-2.48828-1.97531-3.98633-2.5293.14594-.1988.327-.34915.46484-.55859 1.21431-1.84502 2.02341-4.28136 1.74805-6.86523-.27536-2.58388-1.62315-5.04762-3.60352-7.00196a5.0005 5.0005 0 0 0 -1.0625-.79882c-1.91504-1.07666-5.3878-.9275-7.08398.24218-1.47473 1.01698-2.01814 1.92916-2.45508 2.63086-.33116-.47487-.77372-1.07365-2.08789-1.88476-.86421-.5334-2.3644-1.04783-3.86914-.84766-1.50473.20017-2.63878.95221-3.36719 1.61523-3.7748 3.43576-3.91624 8.4993-1.94922 12.63477.15775.33165.46262.61157.66211.93164-.32647-.15857-.64523-.47903-.96289-.58789-2.33643-.80066-4.27349-.82434-5.84375-.98242-3.22482-.32466-4.58949-.33045-6.55859-3.09766-4.4126-6.20084-6.89515-10.42531-8.1543-13.8164 1.58935 1.73177 3.28647 3.32552 5.14649 4.5957a5.0005 5.0005 0 0 0 7.5664-2.95703 5.0005 5.0005 0 0 0 .41016-.0566c.10868.15321.14788.31702.26172.46875a5.0005 5.0005 0 0 0 8.55664-.94532c4.83424-10.72348 5.39965-12.67007 13.19531-24.92968 3.4572-4.76813 7.05756-9.97477 7.67774-16.72071zm17.23632 52.6543a5.0005 5.0005 0 0 0 -3.05273 1.65625c-.0168-.047-.0162-.0897-.0332-.13672-.27469-.75929-.10206-.55165-.21875-.25-.1167.30165-.24765.25414.30859-.0996.40914-.26019 2.08741-.81068 2.99609-1.16992zm-23.03515 19.94531c.042.039.0706.0947.11328.13282 2.53955 2.272 5.50287 3.13828 8.35742 3.70898a5.0005 5.0005 0 0 0 2.06641-.0547c-.96584.48968-2.0359 1.20347-2.90625 1.50586-3.77131 1.31031-6.00829 1.11921-8.31446-.59375a5.0005 5.0005 0 0 0 -.8164-.49219c-.36966-.17762-.76403-.50877-1.14844-.77343 1.11163-.95412 1.98322-2.10913 2.64844-3.4336zm-327.14649 3.61719c-3.69354.0803-7.84153.54774-12.7539 1.25195-6.767199.97-10.693294 5.70499-12.761721 8.90039-1.010281 1.56073-1.774359 2.68532-2.09375 2.99219-.315333.30298.300418.10716-.128907.0547-9.287017-.99086-16.45926.0788-21.730468 3.83789-5.539539 2.90776-8.64867 8.52867-9.521485 14.47852-.891933 6.08018-.0119 12.79821 1.746094 19.93164a5.0005 5.0005 0 0 0 8.802734.83007c2.013157 2.94396 4.118389 5.72756 6.320313 8.1504a5.0005 5.0005 0 0 0 7.980469-.96485c-.206383 1.49059-.238879 2.30005-.523438 4.24024-.572376 3.90257-1.069809 8.55732.197266 13.3457s4.837529 9.60012 10.728515 12.08398c7.345018 3.09707 13.548958.6151 17.904298-.82617 4.57381-1.51356 8.26437-2.53089 17.06836-.31055a5.0005 5.0005 0 0 0 5.3457-7.67773c-1.07311-1.56451-2.05616-2.89076-3.08984-4.07812 1.31088.53651 2.61116 1.08851 4.01172 1.50195 7.82984 2.31135 17.20442 1.82088 26.3457-4.29297a5.0005 5.0005 0 0 0 -.37891-8.09766c.22086-.87753.39424-1.77834.42383-2.72851.13513-4.33948-1.66545-8.7715-5.13867-13.53516a5.0005 5.0005 0 0 0 -8.85547 4.29297c.56263 2.01203-.0257 4.97039-1.03125 6.51563-.50276.77261-1.02166 1.11032-1.13281 1.15625-.11116.0459.2226.11628-.1211-.0586-4.25457-2.16477-5.89398-5.85254-8.90625-12.2539a5.0005 5.0005 0 0 0 -.13476-.26758c-4.3702-8.00485-7.3691-12.50324-10.51172-16.7793a5.0005 5.0005 0 0 0 4.43359-3.9082c.70371.0922 1.38747.10435 2.07813.22265a5.0005 5.0005 0 0 0 3.94531-8.69922c.36074.0612.96953.092 1.16797.16211a5.0005 5.0005 0 0 0 5.35352-8.08984c-4.42048-4.83118-8.87749-8.63152-15.01953-10.31055-3.08863-.84432-6.326-1.15058-10.01954-1.07031zm.12696 10.0332c2.04179-.0473 3.67994.0942 5.17187.31836-2.40023.60487-4.72941 1.37347-6.82031 2.48243a5.0005 5.0005 0 0 0 -.20703 8.28906 5.0005 5.0005 0 0 0 -.19922.26758c-.38744.0393-.73267-.0403-1.125.0215a5.0005 5.0005 0 0 0 -3.15625 8.02734c7.05096 8.98043 9.14485 11.27549 15.95898 23.74805 2.54835 5.42409 5.31511 11.11914 10.89844 15.03125-.10562-.03-.20857-.0351-.31445-.0664-5.75285-1.69822-11.48506-5.60065-17.83399-9.41796-2.69629-1.62098-6.12716-2.51608-9.19531-.95508a5.0005 5.0005 0 0 0 -2.30859 6.4707c.16081.36526.42504.61623.60547.96094a5.0005 5.0005 0 0 0 -1.78711 5.55859c.94947 2.56891 2.77124 5.06412 5.27343 6.92383-1.46362.32513-2.8229.70893-4.0625 1.11914-5.00567 1.65647-6.71832 2.86175-10.878902 1.10742-3.369549-1.42073-4.297797-2.98267-4.945312-5.42968-.647516-2.44702-.476408-5.88795.0293-9.33594.520658-3.54995 1.437875-7.00503 1.152344-10.87891-.142765-1.93694-.702694-4.21852-2.347656-6.11328s-4.10427-2.93441-6.525391-3.25586c-1.837583-.24401-3.348904-.69627-4.808593-1.16797.397101-.0638.789447-.0657 1.189453-.17578 1.559176-.42887 2.911684-1.30772 4.097656-2.38867.107398.21913.155086.44713.275391.66406 1.074013 1.93669 2.864629 3.78866 5.287109 4.74219s5.232648.8981 7.888672.0488a5.0005 5.0005 0 0 0 1.199219-.56641c1.84334-1.19538 3.3317-4.35927 3.07617-6.41016-.22767-1.82719-.80808-2.73275-1.22461-3.4414.58258-.0732 1.33568-.16818 2.72461-.9961.87501-.52158 2.02774-1.61975 2.54492-3.04882.51718-1.42908.37327-2.78236.12109-3.73633-1.31048-4.95804-5.76061-7.43263-10.361321-7.5918-.418526-.0145-.859669.14131-1.289063.18164.335098-.24366.815655-.40062 1.089844-.66406 1.786328-1.71633 2.696283-3.43739 3.558594-4.76953 1.768696-2.73237 2.392726-3.94928 5.785156-4.43555 4.71665-.67615 8.44033-1.04711 11.46289-1.11719zm278.37304 10.58204a5.0005 5.0005 0 0 0 -4.82617 1.86523c-.81125-.35028-1.64729-.66699-2.55859-.85156-4.26305-.86342-8.99062.1623-14.30274 2.86133a5.0005 5.0005 0 0 0 2.82618 9.42578c2.08284-.23532 4.90437.82334 6.26953 2.07031.68258.62349.93614 1.19309.96484 1.31641.0287.12331.15006-.18482-.0801.1289-2.8343 3.86361-6.74889 4.88903-13.55078 6.83789a5.0005 5.0005 0 0 0 -.28516.0918c-8.5918 3.02941-13.48997 5.2571-18.18359 7.65625a5.0005 5.0005 0 0 0 -3.13476-4.97461c.20319-.68326.32582-1.35919.55273-2.02539a5.0005 5.0005 0 0 0 -7.9082-5.28906c.11677-.3468.24433-.94333.34375-1.12696a5.0005 5.0005 0 0 0 -7.15039-6.55468c-5.42649 3.57959-9.84332 7.34709-12.45704 13.10351-2.63037 5.79313-3.25431 12.48892-3.48632 22.35352-.16001 6.79811 3.81854 11.44146 6.61328 14.01172 1.36332 1.25381 2.33752 2.19035 2.58398 2.55273.24647.36238.15463-.31901.0312.11914-2.51908 8.94531-2.69944 16.16056.10938 21.98242 1.92342 5.93857 6.94204 9.93867 12.66015 11.78125 5.84637 1.88392 12.62342 2.12604 19.97071 1.5625a5.0005 5.0005 0 0 0 2.29492-8.52148c3.23919-1.4983 6.33339-3.11572 9.08789-4.88672a5.0005 5.0005 0 0 0 .375-8.01563c1.4392.44532 2.23563.60897 4.10937 1.20508 3.75725 1.19534 8.27482 2.44037 13.20704 1.97071 4.93221-.46967 10.26756-3.1971 13.68554-8.59766 4.26213-6.73413 2.81543-13.26547 2.09766-17.79102-.75351-4.75085-1.16311-8.5554 2.45898-16.87695a5.0005 5.0005 0 0 0 -6.69922-6.52734c-1.74311.8136-3.22719 1.57992-4.58203 2.41992.75287-1.22062 1.51885-2.42989 2.16016-3.75781 3.55412-7.35929 4.59651-16.69916.0566-26.75196a5.0005 5.0005 0 0 0 -3.25391-2.76757zm-321.195309 3.99414c.340014 1.43672.97439 2.74958 1.855469 3.95507-.0715.0254-.153971.0257-.224609.0527-3.188082 1.22006-5.320247 3.45837-7.146485 5.73633a5.0005 5.0005 0 0 0 -.753906 3.23632 5.0005 5.0005 0 0 0 -.150391-.01c-.04704-1.61228-.169361-3.32563.01953-4.61328.584271-3.98289 1.7967-5.91277 4.380859-7.1875a5.0005 5.0005 0 0 0 .808594-.50196c.326565-.24767.800977-.44666 1.210937-.66796zm.550781 18.88671c.05845.0138.113328.0474.171875.0605a5.0005 5.0005 0 0 0 -.132812.004c-.01342-.0213-.02565-.0431-.03906-.0645zm314.968748 1.94727c-.0531.11328-.0781.22847-.13281.3418-2.5886 5.36004-7.40226 10.4486-12.1875 16.08398-2.03573 2.39757-3.47563 5.63935-2.42969 8.91992a5.0005 5.0005 0 0 0 6.01172 3.32227c.38652-.0996.67745-.31917 1.04688-.44141a5.0005 5.0005 0 0 0 5.19531 2.66016c2.6937-.52095 5.46029-1.91721 7.70508-4.0918.0837 1.50377.24408 2.9117.44922 4.20508.82521 5.20297 1.73659 7.06964-.67188 10.875-1.95099 3.08265-3.65194 3.75111-6.18359 3.99219-2.53166.24107-5.90556-.48899-9.22461-1.54492-3.4207-1.08827-6.67857-2.54945-10.54297-2.89649-1.9322-.17352-4.26904.007-6.4043 1.31445-2.13526 1.30794-3.56748 3.55793-4.28515 5.88868-.54264 1.76218-1.23762 3.16846-1.94336 4.52343.002-.38766.0638-.76064.0234-1.1582-.16239-1.60024-.80213-3.06886-1.66406-4.41016.23158-.0693.46181-.08.69336-.1621 2.08413-.73918 4.20187-2.19896 5.54102-4.42969 1.33914-2.23073 1.74669-5.01132 1.34375-7.76758a5.0005 5.0005 0 0 0 -.36329-1.27539c-.87806-2.01281-3.75613-3.9979-5.81835-4.08008-1.82387-.0727-2.80677.34657-3.57032.64063.023-.58352.0457-1.33795-.53515-2.82422-.37034-.94766-1.26152-2.26304-2.58594-3.00782-1.32442-.74477-2.68261-.8247-3.66406-.73242-5.09613.47901-8.2572 4.45262-9.16993 8.94922-.0752.37038.001.78885-.0312 1.17578-.16904-.33045-.23293-.78677-.42578-1.07031-1.3889-2.04212-2.92407-3.22232-4.08398-4.28906-2.38253-2.19116-3.46703-3.00386-3.38672-6.41602.18243-7.75664.74249-12.68644 1.81836-16.21484.21737 2.38547.60693 4.725 1.33594 6.89453a5.0005 5.0005 0 0 0 8.13086 1.58398 5.0005 5.0005 0 0 0 .19726.20313c-.0239.39031-.15769.72032-.16015 1.11914a5.0005 5.0005 0 0 0 7.41015 4.41016c9.98-5.49307 12.52599-7.17842 25.94531-11.91407 5.76884-1.64882 11.84774-3.47009 16.61719-8.37695zm-306.833982 9.32617c.07337.0101.12946.039.203125.0488.192935.0256.173172.0272.255859.043.0017.0175-.06395-.18726-.03906.15039.03546.48112-.278422 2.21659-.392578 3.18359a5.0005 5.0005 0 0 0 -.02734-3.42578zm143.460942 4.15235c-2.86467.18415-5.62291.78077-8.36915 2.00195-5.49247 2.44235-10.43665 6.83087-17.36523 13.97851-4.70921 4.85794-4.97034 10.93431-4.67773 14.72071.14248 1.84374.22014 3.19135.15429 3.62304-.0658.4317.33021-.13663-.0508.0957-7.90731 4.82163-12.95732 9.94558-14.8789 16.11719-2.64898 5.64978-1.70503 12.01251 1.26171 17.25585 3.03165 5.35807 7.89601 10.1364 13.78321 14.69532a5.0005 5.0005 0 0 0 7.42578-4.73633c3.47069 1.09936 6.92034 2.01022 10.23047 2.56445a5.0005 5.0005 0 0 0 5.70117-5.82422c.82638 1.33974 1.36936 2.08309 2.46875 3.89258 2.06441 3.39782 4.71909 7.35625 8.83594 10.2793 4.11685 2.92304 10.00306 4.42176 16.30664 2.66015 2.27188-.63487 4.24779-1.56429 5.90234-2.70117a5.0005 5.0005 0 0 0 .0977-.0684c4.8222-3.48503 6.56553-8.00211 8.74218-11.23242 2.30043-3.41401 4.91259-6.33065 11.94922-9.96484a5.0005 5.0005 0 0 0 -1.12695-9.30469c-1.79164-.42992-3.36493-.76873-4.875-.9707 1.58567-.55121 3.16583-1.15121 4.70898-1.91602 7.08859-3.51317 13.33082-10.07527 15.84571-20.41211a5.0005 5.0005 0 0 0 -5.73242-5.71679c-.40207-.74405-.83237-1.48033-1.39844-2.16211-2.73494-3.29403-6.95532-5.45971-12.6211-6.75586a5.0005 5.0005 0 0 0 -3.875 9.04101c1.69467 1.12269 3.25734 3.76845 3.54688 5.60156.14477.91656-.0147 1.50984-.0566 1.59766-.0419.0878.28405-.10172-.0898-.004-4.52573 1.18401-8.15849-.48393-14.47852-3.40625l-.39453.92774a5.0005 5.0005 0 0 0 -.18555-.23438c.0504-.12737.31458-.80659.31445-.80664-.00056-.00022-.001-.002-.002-.002h-.002c-.002-.00072-.003-.003-.006-.004-.00042-.00016-.001.0002-.002 0-.005-.002-.007-.002-.0156-.006-.0297-.0116-.0834-.0324-.15039-.0586-.13396-.0524-.32619-.12756-.51953-.20312-.19334-.0756-.38734-.1507-.52149-.20313-.0671-.0262-.118-.0467-.14843-.0586-.006-.002-.01-.004-.0137-.006-.005-.002-.0102-.004-.01-.004-.001-.00042-.003-.002-.004-.002.00001 0-.25921.66399-.30664.78515a5.0005 5.0005 0 0 0 -.041.006l.30859-.80468c-7.84854-2.96932-12.40013-4.32926-16.89648-5.48243a5.0005 5.0005 0 0 0 .89843-5.73828c.61456-.39855 1.17122-.8412 1.78907-1.21093a5.0005 5.0005 0 0 0 -2.36524-9.06836c.34822-.21682.87505-.61309 1.06446-.6875a5.0005 5.0005 0 0 0 -1.14844-9.60743c-3.17194-.43564-6.14315-.66462-9.00781-.48046zm-7.25391 13.08789c-1.15758 1.65801-2.18983 3.37563-2.96289 5.15039a5.0005 5.0005 0 0 0 4.85547 6.67578 5.0005 5.0005 0 0 0 .008.18359c-.28449.28156-.60896.44499-.88281.74805a5.0005 5.0005 0 0 0 2.56054 8.21875c11.01852 2.60172 13.02335 2.72981 25.76563 7.54883.002.0006.00034.001.002.002.0294.0115.0835.0305.15039.0566.13388.0523.32623.12953.51953.20508.19331.0756.38744.15073.52149.20312.028.011.0402.0147.0625.0234 5.41958 2.50715 11.26128 5.00358 17.98828 4.28125-5.00672 2.36012-11.53254 3.39789-18.2207 4.45899l.0469-.006c-.55366.0824-1.10819.16524-1.66601.25195a5.0005 5.0005 0 0 0 -.002 0c-3.11566.48469-6.33119 1.96197-7.70508 5.14648a5.0005 5.0005 0 0 0 2.38086 6.4668c.37186.18317.75965.24388 1.13672.39453a5.0005 5.0005 0 0 0 2.25 5.40235c.85115.47976 1.76167.89128 2.72852 1.2207a5.0005 5.0005 0 0 0 .082.0273c1.80354.5803 3.83157.84068 5.9082.67774-.32232.4357-.70713.87685-.99804 1.30859-2.83604 4.20887-4.14111 7.10879-6.27344 8.67383-.71373.48346-1.57724.92468-2.86719 1.28516-3.71055 1.03695-5.65115.36127-7.82422-1.18165-2.17306-1.54291-4.27273-4.34364-6.08008-7.31835-1.87465-3.08551-3.35748-6.33461-6.02148-9.15821-1.332-1.4118-3.18961-2.82057-5.63672-3.28125-2.44711-.46067-5.01482.21806-7.125 1.44531-1.63239.94933-3.14485 1.53297-4.62305 2.05469.26312-.28178.56155-.5107.80079-.82812.97077-1.28804 1.49619-2.80391 1.76953-4.37696.22883.11109.41596.26655.65429.36719 2.03718.86022 4.58344 1.2166 7.08203.47461 2.4986-.74199 4.6827-2.52583 6.24219-4.8418a5.0005 5.0005 0 0 0 .5918-1.19726c.70257-2.08503-.11159-5.49379-1.58399-6.93164-1.28598-1.25582-2.27782-1.60648-3.03515-1.89844.40593-.41238.91594-.95398 1.47656-2.40625.36532-.94635.59628-2.51749.12305-3.96094-.47324-1.44344-1.42085-2.41982-2.20703-3.01367-4.06889-3.07372-9.05928-2.27672-12.75586.40234-.27103.19643-.47102.51892-.72657.74805.0856-.31753.32497-.65656.3711-.95898.37145-2.43539.0524-4.33983-.0684-5.90235-.24862-3.21719-.47916-4.54768 1.88672-6.98828 4.98537-5.143 8.38616-7.93442 11.30078-9.85351zm148.61523 24.75586c.01.002-.1994.0329.15235.0644.45752.0411 2.05491.61019 2.92578.85742a5.0005 5.0005 0 0 0 -3.23242-.51367c.0184-.0589.0501-.10098.0684-.16016.058-.18848.0568-.16971.0859-.24804zm-27.13281 2.875c.0113.0633-.00086.13239.0117.19531.6686 3.34313 2.51979 5.81532 4.46094 7.98828a5.0005 5.0005 0 0 0 2.69726 1.125 5.0005 5.0005 0 0 0 .0371.2207c-1.49042-.21661-3.12281-.36052-4.28906-.73633-3.82273-1.23182-5.49942-2.73091-6.30859-5.46875a5.0005 5.0005 0 0 0 -.35743-.88671c-.1847-.35583-.29759-.84793-.44336-1.2793 1.46638-.0945 2.86036-.49636 4.19141-1.1582zm-90.44141.6289-.17968.41992c.0111-.0333.13799-.35043.16211-.41601.00004-.00011.002.0001.002 0a5.0005 5.0005 0 0 0 .0156-.004zm105.02344 2.94531a5.0005 5.0005 0 0 0 -.01.0801c-.0143.006-.0286.0116-.043.0176.0141-.0337.0389-.0639.0527-.0977zm-164.03515 8.20313c1.14188.93176 2.44278 1.58704 3.87304 2.00781-.028.0439-.0724.0788-.0996.12305-1.78611 2.90505-2.10504 5.97616-2.14843 8.88867a5.0005 5.0005 0 0 0 1.25195 2.72656 5.0005 5.0005 0 0 0 -.1543.13477c-.97963-1.19207-2.10512-2.42331-2.71875-3.50781-1.96986-3.48149-2.16992-5.69603-.89844-8.23828a5.0005 5.0005 0 0 0 .34375-.89454c.10796-.38731.36204-.82435.55079-1.24023zm12.29882 14.46289a5.0005 5.0005 0 0 0 -.0723.0586c-.0169-.006-.0339-.0115-.0508-.0176.0387-.0178.0845-.0229.12304-.041zm13.64844 3.62109c-.29412-.0554-.25249-.1749.21289.31836.38025.40303 1.32592 2.08393 1.93946 3.0586a5.0005 5.0005 0 0 0 -2.48633-3.07617c.0287-.0166.0572-.0204.0859-.0371.7012-.40781.54218-.20831.24805-.26368z" fill="#775fa0" fill-rule="evenodd" filter="url(#a)"/><path d="m459.361 341.75188c3.50576-5.41463 6.55036-11.19841 8.44282-16.44102-2.29873 3.42965-4.68452 5.5366-7.02981 5.80001-.26398-2.22398-.827-4.59781-1.72826-7.08929-2.20638-6.09893 4.09262-7.3096 11.21322-9.92655 6.93474-2.54863 14.8547-6.61001 13.92986-16.78179-.5737-6.31076-4.06862-8.91848-7.64652-12.28197-3.77183-3.54579-7.33923-7.60764-9.95866-17.2904-2.97129 6.18715-3.21599 7.85176-1.45405 13.63587 1.04573 3.4333-.22445 6.85573-2.1724 9.12266.0154-3.16431-1.02759-7.39832-3.74838-12.45382.43314 4.97155.29323 10.91361-2.68778 14.80658-.92249-.63529-1.47325-1.9638-1.38293-4.18586.29083-7.14583 1.03512-14.51118-.59494-21.42677-1.62111-6.87765-5.58295-13.12491-14.41891-17.23951 1.2731 1.68629 2.13794 3.32154 2.87403 4.87288-4.98512-1.63009-10.28076-.21707-14.40751 9.13123 5.1802-5.23054 15.89666-5.36788 16.27023 1.41147.36079 6.54725-3.08491 11.12956-7.11418 16.69151-7.93717 12.47589-8.76245 14.94799-13.57997 25.63438-1.96896-2.62431-3.1538-6.14792-4.05764-9.13826-.44035 2.66977-.64811 4.9344-.63804 6.8918-3.2732-2.91007-5.07786-7.70609-6.41304-11.5835-1.10307 7.74375-.42992 12.47037 1.69172 15.2473-5.20476-3.55425-10.94581-11.79983-11.72495-16.59893-2.01676 5.63356-2.96798 9.90241-1.88759 14.81658 1.08934 4.95489 4.12571 10.15841 9.7269 18.02952 2.95649 4.1548 6.62852 4.82155 10.13176 5.17424 3.41539.34384 6.55965.37445 7.86129 3.74083 3.21348 8.31202 6.93115 13.05007 11.27586 15.13783 7.46635 5.54579 17.67374.77088 28.07815-8.52703-3.81374 1.90647-6.90209 2.3361-8.85028.82001zm-6.11154-2.06698c-4.87545-.97473-8.44849-2.98225-8.05459-8.39512 5.43894-.64122 7.9346 2.39868 8.05459 8.39512zm-17.57581 2.22172c-2.63833-4.70059-1.07268-6.185 3.59873-9.55937 1.05422 4.03812 1.21889 6.3782-1.6621 8.43563-.64461.37897-1.29017.75354-1.93663 1.12374zm4.75464-13.99287c-4.46377.63137-7.13311-1.42289-8.2723-3.81794-1.15119-2.42026-.8319-5.30432.79908-6.78881 1.91266-1.74098 2.41315 3.35735 6.37852 3.36163 3.43524.004 3.73664-6.10645 6.66952-4.45756 5.41524 5.34408-.3797 10.91658-5.57482 11.70268zm-88.2419 126.27494c6.06485-2.1831 11.98701-4.92968 16.6467-7.92562-3.89965 1.315-7.07665 1.53968-9.11361.32621 1.12613-1.92706 2.10289-4.15456 2.88148-6.68297 1.90674-6.19241 7.68441-3.31979 14.93725-1.01236 7.07631 2.25127 15.78143 3.94576 21.15041-4.53746 3.3353-5.26975 2.15614-9.46964 1.38465-14.3339-.80666-5.08594-1.1449-10.5644 2.81217-19.65554-6.12618 2.85941-7.38846 4.04544-9.54881 9.63867-1.2867 3.33101-4.37685 5.2127-7.3049 5.77897 1.95033-2.48016 3.71166-6.43978 4.7101-12.10287-2.73964 4.15078-6.50486 8.72921-11.25094 9.95168-.34242-1.07399.0354-2.46737 1.4762-4.16426 4.63665-5.46039 9.81035-10.79101 12.8797-17.14651 3.07291-6.36287 3.99768-13.67145.002-22.51923-.14465 2.11314-.55314 3.92089-1.00023 5.58924-2.75567-4.45661-7.73433-6.85037-17.11949-2.08187 7.52963-.85068 15.76634 5.96347 11.7483 11.44073-3.91917 5.34246-9.48118 6.76079-16.20589 8.68754-13.68914 4.8267-16.81961 6.80256-26.76856 12.27854.0205-3.31432 1.22784-6.87415 2.35497-9.85276-2.00499 1.89573-3.56502 3.60871-4.75371 5.19867-.85066-4.34241.64992-9.31166 2.00657-13.29475-5.71435 5.62407-8.05014 9.97074-8.03496 13.41908-2.0232-6.02107-1.60076-16.15891.80567-20.60376-5.15869 3.40294-8.54858 6.35164-10.65784 10.99706-2.1292 4.68935-2.81243 10.72435-3.04006 20.40269-.12016 5.10514 2.41063 7.83403 4.99927 10.21474 2.52323 2.32055 5.02155 4.23206 4.04316 7.70653-2.41371 8.57022-2.29498 14.57142-.0796 18.83931 2.63036 8.89983 13.68093 11.21618 27.62586 10.14661-4.20297-.79903-6.93659-2.32066-7.58545-4.70241zm-3.65344-5.33239c-3.31912-3.71549-4.9755-7.46623-1.40329-11.54834 4.74541 2.76991 4.91366 6.70737 1.40329 11.54834zm-15.40944-8.80377c.71439-5.33125 2.85385-5.58381 8.62488-5.46856-1.58328 3.86081-2.85815 5.82445-6.4005 5.73512-.7435-.0849-1.48498-.17373-2.22438-.26656zm12.21797-8.31594c-3.95638-2.18596-4.86079-5.43273-4.33147-8.04043.53454-2.63345 2.5299-4.75927 4.73673-4.9667 2.58682-.24324-.0927 4.14876 3.08369 6.54908 1.37916 1.04225 3.06211.3993 4.55888-.1302 1.49116-.52751 2.8046-.94274 3.48033.60626 1.10327 7.54663-6.88804 8.48764-11.52816 5.98199zm-148.76379 41.51198c6.0015 2.50989 12.29884 4.49029 17.86601 5.42244-3.8411-1.65553-6.37525-3.63492-7.0735-5.89755 2.15285-.65376 4.39807-1.63115 6.69487-2.96686 5.62274-3.27011 8.00639 2.70242 11.99544 9.26801 3.87176 6.37254 9.50865 13.51749 19.52279 10.71892 1.79492-.50159 3.22846-1.18969 4.4167-2.00615 3.489-2.52152 5.0097-6.24157 7.52475-9.97408 2.62918-3.90191 6.1714-7.67275 13.80282-11.61413-6.65652-1.5973-8.33985-1.49024-13.70142 1.47228-2.47788 1.36905-5.26023 1.3626-7.62615.60136-.66859-.2278-1.30208-.51418-1.88679-.84376.60137-.1134 1.23079-.27165 1.88679-.4787 2.8033-.93447 6.11752-2.7787 9.71715-5.80987-3.00644.9158-6.42382 1.69801-9.71715 1.62596-1.97103-.07-3.86112-.44654-5.51935-1.26334.44736-1.03693 1.65705-1.84048 3.88414-2.18694.54361-.0845 1.08885-.16685 1.63521-.24813 13.62403-2.16149 28.89166-4.02862 33.31534-22.21106-1.39383 1.55535-2.81347 2.70901-4.18016 3.72707.59717-5.16245-1.82387-10.01774-11.82776-12.30632 6.16873 4.08668 8.46389 14.48501 1.90611 16.20065-6.34015 1.65869-11.54085-.79214-17.84266-3.70603.17569.0687-1.54656-.6045-1.37087-.53576v-.00001c-12.93452-4.89348-15.4799-5.16965-26.42243-7.75343 2.19832-2.43277 5.42563-4.28952 8.17026-5.77155-2.68872.0998-4.93457.33966-6.84301.72982 2.23023-3.76699 6.5767-6.50119 10.08852-8.60272-7.73636.50476-12.19692 2.06432-14.52169 4.68179 2.50291-5.74606 9.49831-13.04843 13.95979-14.80123-12.06071-1.65645-16.88856.0138-30.47182 14.02654-3.53755 3.64927-3.55302 7.35282-3.28241 10.85462.26324 3.40626.79237 6.501-2.27829 8.37358-7.58731 4.6265-11.59532 9.07329-12.88655 13.70588-4.14239 8.28245 2.35387 17.50091 13.5098 26.13981-2.59816-3.42567-3.58699-6.39121-2.44448-8.57111zm.92612-6.3724c.074-4.96718 1.41019-8.82307 6.81332-9.39901 1.62508 5.23228-.90681 8.23262-6.81332 9.39901zm-5.3479-16.88113c4.1568-3.41042 5.88113-2.13688 10.04446 1.85125-3.7807 1.75283-6.0598 2.32312-8.59568-.14597-.48743-.56673-.97035-1.13517-1.44878-1.70528zm14.61601 2.19441c-1.43434-4.27018.10667-7.26137 2.24821-8.81343 2.16538-1.56934 5.05152-1.78734 6.80703-.46119 2.05984 1.55592-2.85549 2.9876-2.12851 6.88558.31572 1.69303 1.99132 2.34983 3.45562 2.96299 1.4579.61047 2.71279 1.18284 2.17545 2.77751-4.26113 6.32809-10.84183 1.59812-12.5578-3.35146zm-139.10279-65.84226c3.156327 5.60644 6.841088 10.98493 10.562895 15.08013-1.935741-3.62559-2.677275-6.7199-1.810089-8.93158 2.090578.78851 4.454018 1.38108 7.082257 1.73008 6.43826.85479 4.535795 7.03874 3.431852 14.56565-1.078082 7.35058-1.340129 16.19378 7.920416 20.09838 5.752809 2.4257 9.710989.58226 14.391499-.96661 4.89602-1.62019 10.24622-2.83759 19.86142-.41266-3.82002-5.56931-5.18965-6.62148-11.06302-7.84624-3.49738-.7294-5.8566-3.46997-6.8899-6.26568 2.76545 1.52141 6.96165 2.61731 12.71107 2.687-4.53796-2.02935-9.66945-5.00261-11.64369-9.48675 1.00571-.51168 2.4431-.36409 4.35151.78322 6.14739 3.69614 12.18844 7.91882 18.99517 9.92815 6.76722 1.99767 14.11259 1.72064 22.14968-3.65471-2.09764.20353-3.93967.0967-5.65134-.0716 4.05468-3.54158 5.45512-8.7402-.70337-17.18681 2.03391 7.27355-3.32692 16.49102-9.368 13.41725-5.89207-2.99795-8.18293-8.25192-11.16189-14.5825-6.9511-12.73227-9.42457-15.55667-16.45942-24.51658 3.28522-.51692 7.00352.10745 10.13318.74786-2.20057-1.68474-4.15062-2.95733-5.91944-3.88064 4.16132-1.54615 9.32115-.85168 13.47947-.13939-6.48436-4.77621-11.18203-6.40158-14.59528-5.82816 5.63931-2.99093 15.73382-4.18873 20.52774-2.49601-4.2017-4.59207-7.68914-7.50702-12.64762-8.8625-5.00094-1.36709-11.11817-1.07304-20.7472.30733-5.079817.72813-7.35501 3.70539-9.273576 6.66928-1.872593 2.89287-3.344723 5.68514-6.950754 5.30055-8.89063-.94857-14.812563.2076-18.657912 3.12401-8.355705 4.12175-8.798667 15.41716-5.461863 28.95691.102428-4.27316 1.157297-7.22481 3.406205-8.26742zm4.67257-4.50372c3.126915-3.90036 6.564595-6.17382 11.195107-3.32643-1.958027 5.15274-5.828434 5.97027-11.195107 3.32643zm6.146679-16.70555c5.395017-.20006 6.009244 1.87941 6.853467 7.60423-4.085483-.91907-6.239038-1.84446-6.744071-5.36063-.04055-.74915-.07701-1.49703-.109396-2.2436zm10.267404 10.68194c1.510062-4.27737 4.571775-5.7144 7.243096-5.62196 2.696834.0933 5.131701 1.72064 5.700551 3.87281.66676 2.52226-4.122109.59163-5.975675 4.13032-.804779 1.53633.107892 3.09504.87695 4.48809.766285 1.38802 1.391517 2.6184-.03076 3.54073-7.282976 2.32875-9.528394-5.40098-7.814162-10.40999zm-68.828646-138.53955c-.893354 4.21624-1.545286 8.54874-1.850998 12.71971-.09269 2.18731-.08911 4.28182.01543 6.22928.488865-2.59098 1.218675-4.71775 2.204586-6.22928.621046-.9115 1.327088-1.59761 2.123541-2.03299.353072.67523.744363 1.3535 1.174976 2.03299.894049 1.35458 1.941354 2.70977 3.148383 4.05133 4.426033 4.91914-.940474 8.4905-6.496932 13.7356-5.407875 5.10484-11.0841275 12.02387-6.18178 21.07104 3.029793 5.59159 7.282251 6.62399 11.891 8.31386 4.851321 1.7788 9.751091 4.12236 15.892847 11.93155.340536-6.7695-.09185-8.4042-3.967303-13.0112-2.304835-2.74008-2.484126-6.37741-1.58168-9.22663 1.231666 2.92512 3.851989 6.40275 8.325301 9.98453-2.333371-4.38499-4.541144-9.90738-3.32116-14.66316 1.099585.22681 2.127732 1.23837 2.914856 3.32102 4.957039 13.11785 9.175583 28.77587 28.62604 29.84014-1.792263-1.08917-3.193369-2.27407-4.451353-3.4298 5.183562-.37106 9.535094-3.66273 9.774973-13.95048-2.777437 6.8746-12.552871 11.0213-15.481114 4.94133-2.837703-5.89197-1.454918-11.42959.104404-18.13374 2.542786-14.9645 2.251901-16.80324 2.745414-28.86644 2.826237 1.6704 5.265385 4.45979 7.234729 6.85139-.599879-2.61626-1.256432-4.77097-1.999198-6.56436 4.146057 1.4305 7.635046 5.13222 10.329675 8.15366-1.87945-7.46758-4.309609-11.57336-7.263225-13.28804 6.196483 1.31396 14.634423 6.67169 17.114876 10.68693-.162642-4.73915-.601862-8.37217-2.25094-11.74853-2.763735-5.06483-7.761088-8.9943-17.492574-15.25116-4.301078-2.76549-7.931637-2.08454-11.334234-1.14643-3.300265.90989-6.256508 2.03223-8.694536-.63426-6.025071-6.59025-11.123929-9.70902-15.937244-10.10372-8.908203-2.51388-16.93513 5.84163-23.361862 18.5691 2.919695-3.28833 5.675308-4.86062 8.045099-4.15324zm6.481915-.33829c4.93147-.90785 8.987807-.33318 10.594811 4.91603-4.870197 2.65438-8.333606.74118-10.594811-4.91603zm15.675185-8.59454c4.146867 3.45607 3.223236 5.39092.0829 10.29849-2.459689-3.39994-3.451197-5.55272-1.492471-8.53775.467394-.59152.937268-1.17843 1.409574-1.76074zm.628845 14.89804c3.827363-2.20134 7.011397-1.3795 8.981929.31936 1.991218 1.71669 2.883311 4.40979 2.156469 6.43514-.04536.12481-.09685.24728-.154611.36703-.667869 1.38472-1.769309.40647-3.329857-.36703-1.082473-.53643-2.396386-.97656-3.922636-.35887-.237646.0962-.447366.21719-.633285.35887-2.327094 1.77965-.765071 6.76719-3.886016 6.38104-3.355822-1.38117-4.42399-3.86848-4.072987-6.38104.414616-2.7148 2.451044-5.33727 4.860994-6.7545zm40.88713-148.39044c-5.011124 4.030336-9.710047 8.54424-13.140217 12.88885 3.256873-2.5028 6.185083-3.73803 8.505527-3.23993-.437514 2.19379-.638093 4.62494-.556281 7.27771.200502 6.49689-6.202197 5.62024-13.789943 5.7613-7.411159.13778-16.155708 1.33659-18.491935 11.13852-1.450709 6.08627 1.008416 9.68824 3.295752 14.04513 2.397108 4.56598 4.460449 9.62122 3.675357 19.50527 4.838531-4.70783 5.642866-6.21817 5.883665-12.21243.143405-3.5671 2.452789-6.34693 5.033766-7.82649-1.04524 2.9751-1.438412 7.29286-.56086 12.96124 1.247131-4.8027 3.331769-10.34813 7.422019-13.02801.666928.90682.755243 2.34618-.06173 4.41319-2.632338 6.65907-5.787399 13.29836-6.62498 20.32589-.832346 6.98361.683007 14.15173 7.343455 21.0985-.5628-2.01707-.77489-3.83912-.9029-5.54338 4.173754 3.37713 9.493354 3.84469 16.726308-3.55381-6.774301 3.17615-16.741202-.50084-14.735347-6.94778 1.952872-6.27664 6.737931-9.39662 12.467471-13.34675 11.445849-8.94824 13.706597-11.69679 21.480271-20.12127 1.03651 3.15367 1.01578 6.9147.88668 10.09301 1.30824-2.43217 2.25183-4.55327 2.88052-6.44259 2.19191 3.85085 2.33108 9.03945 2.29656 13.23283 3.67538-7.13744 4.55233-11.94971 3.42021-15.28309 3.85847 5.08377 6.64277 14.82869 5.73982 19.79351 7.93712-9.96065 9.01856-15.51109 3.1442-34.26782-1.53572-4.90385-4.8544-6.67189-8.09606-8.08828-3.16563-1.38318-6.16286-2.38621-6.36659-6.01347-.502-8.94445-2.6188-14.616399-6.12895-17.944964-5.440904-7.59385-16.661957-6.196603-29.448364-.700588 4.225842-.592884 7.307662-.02857 8.702572 2.025702zm5.202623 3.889218c4.356105 2.459122 7.160398 5.489832 5.100952 10.526372-5.401195-1.10147-6.833261-4.79261-5.100952-10.526372zm17.490425 3.369122c1.07729 5.30266-.88126 6.24749-6.396927 8.0073.245637-4.18644.807907-6.4653 4.198457-7.53502.73334-.16162 1.46618-.31903 2.19847-.47228zm-8.882893 11.87775c4.466923.80121 6.381023 3.59422 6.720003 6.2474.34225 2.6787-.87411 5.34338-2.9071 6.25063-2.382674 1.0634-1.247762-3.97342-5.038385-5.23285-3.283832-1.09114-5.504042 4.64034-7.782533 2.13024-3.471097-6.81129 3.785078-10.28031 9.008015-9.39542zm123.663223-92.27657c-6.55831.06507-13.1368.741472-18.59058 2.077388 4.15964.0082 7.26401.825182 8.78961 2.632327-1.72887 1.452128-3.41216 3.236488-5.00089 5.368097-3.88505 5.212814-8.38907.657074-14.53351-3.816892-5.9815-4.355319-13.75575-8.687059-21.62351-2.321711-4.87586 3.944673-5.09407 8.28897-5.89857 13.117687-.8439 5.065186-2.24303 10.322584-8.81628 17.725261 6.70953-.83736 8.25599-1.564314 12.06101-6.187379 2.26446-2.751126 5.79121-3.572209 8.74507-3.197105-2.63291 1.733828-5.55304 4.927589-8.25955 9.969669 3.88634-3.078825 8.88955-6.234507 13.7687-5.903681-.0167 1.119625-.81495 2.314004-2.71056 3.465492-11.95104 7.258816-26.61765 14.150565-24.34388 33.576714.77342-1.964505 1.70624-3.558005 2.63365-5.005577 1.26521 5.064811 5.27974 8.823868 15.54536 7.178426-7.33625-1.493573-13.10524-10.446822-7.62569-14.41408 5.32542-3.855666 11.02814-3.489542 17.93318-3.20773 14.74198-.28526 17.45882-1.046964 28.88429-2.937511-1.08459 3.090153-3.34454 6.029663-5.32366 8.442979 2.45795-1.117341 4.44727-2.200825 6.05903-3.291903-.59781 4.333266-3.55975 8.493291-6.04021 11.762729 7.02339-3.384286 10.56563-6.628075 11.66336-9.852842-.0702 6.284354-3.68208 15.631886-7.21772 18.943769 5.78015-1.458393 9.77639-3.015962 13.19282-6.602486 3.45763-3.629765 6.01963-8.965732 9.51031-17.94341 1.84311-4.74004.43632-8.182053-1.16964-11.328197-1.55977-3.055666-3.2532-5.717325-1.13728-8.640578 5.23519-7.232009 7.27875-12.916891 6.69167-17.726076.67462-9.341192-9.05392-15.28164-22.80383-18.809767 3.74794 2.122466 5.82777 4.46186 5.6173 6.926387zm1.62821 6.243511c1.87189 4.614756 2.12791 8.697875-2.64645 11.352724-3.5387-4.181505-2.38166-7.945809 2.64645-11.352724zm11.55344 13.506157c-2.54882 4.780566-4.634 4.267104-10.04643 2.212251 2.81574-3.097374 4.71567-4.521931 8.03481-3.2267.67403.334377 1.34459.672532 2.01162 1.014449zm-14.40636 3.684988c6.15868 6.956644-.9543 13.035305-4.73415 12.08009-2.50347-.632564 1.46623-3.864775-.72164-7.170813-.95022-1.435931-2.74882-1.385996-4.33361-1.378811-1.57828.0072-2.95299-.03024-3.07872-1.706268 1.4541-7.47126 9.34278-5.729456 12.86812-1.824198zm153.54087 13.265404c-4.80548-4.278209-10.03877-8.163042-14.90349-10.82696 3.01618 2.793393 4.72196 5.472312 4.61576 7.835453-2.2367-.07312-4.6679.125998-7.26934.639908-6.36938 1.258397-6.57209-5.17403-8.00073-12.610124-1.39406-7.256142-4.08661-15.669128-14.19176-16.331066-6.27086-.410858-9.40067 2.616414-13.29478 5.602769-4.09299 3.138864-8.69223 6.012042-18.5871 6.97591 5.52242 3.93196 7.13142 4.454539 13.08689 3.661117 3.53993-.4715 6.68394 1.325477 8.58877 3.609154-3.1089-.522209-7.43367-.174599-12.85337 1.668291 4.94588.392672 10.76432 1.49265 14.1046 5.05676-.77721.808162-2.17668 1.138043-4.34928.68828-6.99137-1.44769-14.13419-3.392667-21.13867-2.970169-7.01184.422942-13.7891 3.213336-19.36571 11.064661 1.87146-.93301 3.61924-1.481711 5.26539-1.923152-2.55578 4.737998-2.00967 10.018482 6.46944 15.737963-4.27756-6.036865-2.5146-16.511876 4.18004-15.702574 6.49449.785105 10.40356 4.93804 15.24213 9.860795 10.8489 9.786017 13.58847 11.313249 23.2641 17.659646-2.91974 1.537485-6.60763 2.142649-9.73223 2.548628 2.59044.8753 4.81668 1.448679 6.7681 1.75333-3.41133 2.786387-8.46625 3.7899-12.55483 4.46497 7.55802 2.394643 12.39473 2.47365 15.48251.811115-4.35342 4.619795-13.44456 8.968865-18.40106 8.925735 10.97764 6.09915 16.5103 6.27797 34.01875-2.53499 4.5765-2.30351 5.78538-5.856807 6.65885-9.279606.85261-3.341079 1.3562-6.455159 4.89469-7.241293 8.73075-1.939283 13.98384-4.937338 16.70045-8.935232 6.61178-6.587861 3.41247-17.415256-4.13722-29.100212 1.28698 4.060894 1.23688 7.185231-.5609 8.890893zm-2.98233 5.750171c-1.71141 4.686479-4.24265 7.93508-9.54213 6.726854.20092-5.491429 3.59918-7.502 9.54213-6.726854zm-.47111 17.764039c-5.05445 1.917719-6.29827.140193-8.93005-5.002964 4.16351-.436779 6.50342-.251749 8.10797 2.913978.27833.696078.55235 1.392424.82208 2.088986zm-13.14697-6.82082c-.0594 4.524475-2.50007 6.861228-5.05335 7.625612-2.57884.772033-5.39448.0098-6.61693-1.83961-1.43317-2.168049 3.7027-1.875674 4.3206-5.807884.53539-3.406505-5.46825-4.649306-3.37609-7.300334 6.13087-4.532809 10.74411 2.042785 10.72577 7.322216zm111.80958 106.1037c-1.22841-6.35898-3.04516-12.65166-5.30431-17.73113.71453 4.06462.45767 7.24475-1.04612 9.06976-1.72984-1.41661-3.77851-2.73034-6.15344-3.89189-5.81375-2.84331-2.1217-8.10107 1.22689-14.92732 3.26336-6.6525 6.21564-15.02916-1.3735-21.62154-4.71109-4.09245-9.03047-3.54966-13.94041-3.50542-5.13823.0463-10.58795-.42543-18.99564-5.66314 1.93844 6.47814 2.9251 7.89367 8.13251 10.85083 3.1005 1.76083 4.50699 5.09399 4.6382 8.07082-2.16136-2.29368-5.81154-4.61857-11.256-6.43155 3.7002 3.31351 7.66792 7.70537 8.1785 12.5737-1.10917.17922-2.42751-.39968-3.89057-2.07158-4.70803-5.38065-9.21963-11.26734-15.05527-15.22069-5.84244-3.95796-12.93658-5.92619-22.27254-3.24283 2.07198.44646 3.80302 1.11007 5.38975 1.7917-4.80621 2.08526-7.88407 6.67489-4.51668 16.61242.2401-7.54957 8.16184-14.71985 12.99954-9.95919 4.71293 4.63787 5.31139 10.33908 6.23037 17.24096 2.78538 14.29813 4.19674 17.41906 8.10142 28.11782-3.25385-.51534-6.57353-2.22768-9.33063-3.76851 1.56113 2.24381 3.00635 4.02534 4.38698 5.42665-4.39516.18802-9.0563-2.01234-12.76443-3.91554 4.66641 6.40853 8.56396 9.33647 11.95407 9.83754-6.21836 1.07697-16.12939-.83005-20.11444-3.80639 2.55581 5.52569 4.90769 9.24964 9.12962 11.99554 4.26664 2.77497 10.05856 4.34053 19.53655 6.07288 5.00038.91404 8.08931-1.13077 10.84944-3.30033 2.68592-2.11124 4.96511-4.27048 8.22856-2.75707 8.05816 3.73736 13.98549 4.60818 18.55145 3.1118 9.20389-1.14975 13.21923-11.71416 14.26998-25.72507-1.42301 4.04073-3.34154 6.50499-5.78985 6.76677zm-5.81767 2.76516c-4.17506 2.69277-8.12529 3.72538-11.59704-.44183 3.4571-4.24664 7.36115-3.80525 11.59704.44183zm-11.07723 13.81787c-5.14164-1.56361-5.04545-3.70474-4.03482-9.37931 3.55545 2.16916 5.29413 3.74512 4.64855 7.22659-.2007.7203-.40528 1.43789-.61373 2.15272zm-6.28253-13.3685c-5.6647 7.29687-12.98273 1.5454-12.74037-2.40805.15814-2.58102 4.06927.72843 6.91828-2.0307 2.4682-2.39021-1.56573-6.98914 1.69049-7.84876 7.60553.0648 7.31336 8.10627 4.1316 12.28751z" fill-rule="evenodd" stroke-width="10"/></g></svg>