<svg height="500" viewBox="0 0 500 500" width="500" xmlns="http://www.w3.org/2000/svg"><g transform="translate(.000015)"><circle cx="-249.99998" cy="250" fill="#e51a1a" r="250" transform="scale(-1 1)"/><path d="m181.33938 83.856939c97.52275-31.84694 203.27597 26.159281 217.12696 131.568651 10.04116 85.89723-45.79566 162.6049-131.11288 174.6444-76.26503 6.65-147.16573-45.4981-149.44603-126.3231.16679-50.89801 30.03241-87.97493 76.60677-108.40662 44.00125-16.48183 90.46555-3.00917 112.28155 39.63622 17.95322 40.0953 3.57775 87.31302-40.4313 103.80676-21.98685 8.23292-51.6578-5.55285-56.72562-31.5612 24.48155 21.7253 69.7211 11.74379 80.1808-21.06198 5.24648-24.88185-11.48198-41.52298-24.36368-55.64156-23.21161-15.22125-63.26956-13.16738-85.32502 12.05139-41.51846 46.43224-18.48961 112.52397 35.72777 131.08081 60.66482 17.11352 118.96473-29.63961 126.96137-92.39988 2.7637-54.83226-40.99398-106.19486-96.51046-114.27807-76.21988-10.3001-138.45939 50.84936-147.743191 124.09106-9.31956 73.21828 47.315731 138.67973 111.863041 158.33924 49.05305 9.49897 98.18701 2.07129 139.64056-27.40671 82.90715-58.95602 100.11901-177.97214 43.55644-260.39974-52.71171-79.885311-158.575-103.987181-249.15842-67.061741-86.705021 39.45169-149.0660905 134.549061-117.102931 229.167621 15.77888-74.65377 50.93986-153.5943 123.407351-187.514491 9.28724-4.60517 19.44718-8.7232 30.56692-12.33106zm-160.722321 286.075591c-52.57825-113.8254-.38403-260.89182 113.777041-317.643861 10.84604-5.32012 22.21219-9.7712 34.03518-13.36069 115.76394-28.75816 246.03978 34.00351 263.68455 158.897471 10.04526 85.91695-27.72044 168.80365-107.97396 206.83173-102.24035 46.26108-224.798841-11.43986-234.690511-131.24969-7.33455-123.78718 127.307171-194.136761 222.718561-137.24102-42.54074-27.89653-94.21826-33.44528-140.80825-12.98978-71.17376 32.62266-105.080851 118.0397-80.762351 190.63139 30.697281 88.13423 123.572931 132.04164 212.817841 105.59803 82.80488-25.06359 132.16266-100.33164 140.19255-180.04986 12.12434-145.020371-132.23823-245.3588802-265.59709-221.973611 7.92036-4.10499 20.5989-8.4277792 35.61563-11.7452592 60.06317-13.23825 124.63426-3.45807 179.45368 32.4903392 109.65077 71.904621 141.09454 217.803071 65.16008 333.599141-143.00482 218.07486-377.311781 117.06797-437.622951-1.79433" fill="#b21a1a"/></g><path d="m43.65 148.56462-7.74 23.58-15.93-17.73-12.06 10.8 17.19 19.17-25.11 5.22 3.24 15.84 23.4-4.86-7.74 23.49 15.48 5.04 8.28-25.2 18.36 20.43 12.06-10.8-17.19-19.08 25.2-5.31-3.24-15.84-27 5.67 8.28-25.38z" fill="#ff8066" opacity=".75"/><path d="m265.50781 76.576172-109.09961 156.400388-6.5 69.19922-86.101559-108.69922-62.7109379 102.01953c1.0083034 11.39128 2.8051023 22.72176 5.5039063 33.88672.0836524.34929.1783136.69596.2636718 1.04492.9406121 3.81116 1.9843861 7.59923 3.1289063 11.36719.2972985.98471.5967285 1.96779.9082035 2.94922 1.032357 3.23553 2.151729 6.44811 3.33789 9.64453.407612 1.10192.788568 2.20976 1.214844 3.30664 1.602757 4.11406 3.299764 8.20035 5.164063 12.23633 2.04114 4.02272 4.318606 8.01815 6.748046 11.98828.779321 1.27312 1.654771 2.525 2.472657 3.79102 1.749195 2.7089 3.53437 5.40676 5.455078 8.07812 1.016262 1.41251 2.097299 2.80285 3.160156 4.20313 1.91819 2.52921 3.885689 5.03882 5.951172 7.52343 1.120799 1.34694 2.266839 2.67951 3.429687 4.01172 2.249557 2.58011 4.578575 5.12296 6.980469 7.64258 1.087395 1.13925 2.163638 2.27863 3.28125 3.4043 2.815762 2.84 5.741475 5.62093 8.742188 8.36719.808434.73872 1.582902 1.49322 2.404297 2.22461 16.306225 14.54314 35.152822 27.57166 55.771482 38.32226.04934.02566.09908.05054.14844.07617 36.71245 19.11426 79.00136 30.78912 122.67187 30.2793a250 249.99998 0 0 0 2.16602.15625 250 249.99998 0 0 0 3.27539-.23438c12.4084-.43512 24.89939-1.83283 37.39649-4.3789a250 249.99998 0 0 0 207.92968-226.83594l-30.70117-105.99609-84.16992 125.58203-3.02344-45.46094-57.29883 33.80078z" fill="#ff8066"/><path d="m265.50781 76.576172-109.09961 156.400388-6.5 69.19922-86.101559-108.69922-62.7109379 102.01953c1.0083034 11.39128 2.8051023 22.72176 5.5039063 33.88672.0836524.34929.1783136.69596.2636718 1.04492.9406121 3.81116 1.9843861 7.59923 3.1289063 11.36719.2972985.98471.5967285 1.96779.9082035 2.94922 1.032357 3.23553 2.151729 6.44811 3.33789 9.64453.407612 1.10192.788568 2.20976 1.214844 3.30664 1.602757 4.11406 3.299764 8.20035 5.164063 12.23633 2.04114 4.02272 4.318606 8.01815 6.748046 11.98828.779321 1.27312 1.654771 2.525 2.472657 3.79102 1.749195 2.7089 3.53437 5.40676 5.455078 8.07812 1.016262 1.41251 2.097299 2.80285 3.160156 4.20313 1.91819 2.52921 3.885689 5.03882 5.951172 7.52343 1.120799 1.34694 2.266839 2.67951 3.429687 4.01172 2.249557 2.58011 4.578575 5.12296 6.980469 7.64258 1.087395 1.13925 2.163638 2.27863 3.28125 3.4043 2.815762 2.84 5.741475 5.62093 8.742188 8.36719.808434.73872 1.582902 1.49322 2.404297 2.22461 11.238615 10.02346 23.7557 19.25722 37.156252 27.59179l18.30859-18.38086-69.499999-93.5 45.400389-24.80078-34.499998-96.5 136.300778 180.19922 9-14.69922-19.10156-86 66.80078-28.59961.30078-156.40039 51.69922 178.69922-44.59961 62.80078-9 39.40039-50.80078 54.79883 135.59961-34.09961-37.09961-21.19922 34.5-31.80078-27.79883-23.29883 52.79883-72.30078 6.09961 90.59961 52 49.90039 12.40039-13-17.2793-16.58008 43.57227-21.54101.30078-156.40039 30.07617 103.95703a250 249.99998 0 0 0 6.72461-41.46094l-30.70117-105.99609-84.16992 125.58203-3.02344-45.46094-57.29883 33.80078zm122.5586 276.781248 1.35937 3.28711-1.21875-1.16797z" fill="#861313"/><g fill="#ff8066"><path d="m174.75643 134.68736-2.07 13.86-10.44-8.37-10.08 12.6 11.34 9.09-13.59 5.31 5.94 15.12 12.33-4.77-2.07 13.77 16.02 2.52 2.34-15.21 12.42 9.99 10.08-12.6-11.34-9.09 13.59-5.31-5.94-15.12-14.76 5.76 2.25-15.03z" opacity=".75"/><path d="m299.39199 13.18304-2.07 13.86-10.44-8.37-10.08 12.6 11.34 9.09-13.59 5.31 5.94 15.12 12.33-4.77-2.07 13.77 16.02 2.52 2.34-15.21 12.42 9.99 10.08-12.6-11.34-9.09 13.59-5.31-5.94-15.12-14.76 5.76 2.25-15.03z" opacity=".75"/><path d="m346.75879 125.68736v19.26l-16.02-9.27-8.1 14.04 17.379 9.99-17.379 10.08 8.1 14.04 16.02-9.27v19.26h16.2v-20.79l18.738 10.8 8.1-14.04-17.37-10.08 17.37-9.99-8.1-14.04-18.738 10.8v-20.79z" opacity=".75"/><path d="m440.04235 7.78304-5.67 18.45-12.6-13.59-11.88 10.98 13.68 14.76-19.62 4.5 3.6 15.84 18.18-4.14-5.67 18.45 15.48 4.68 6.12-19.98 14.76 15.93 11.88-10.98-13.77-14.76 19.62-4.5-3.6-15.84-21.15 4.86 6.12-19.98z" opacity=".75"/><path d="m461.27516 430.0253-2.43 12.87901-9.45-8.118-10.62 12.29399 10.44 8.92802-12.96 4.55399 5.4 15.282 11.88-4.176-2.43 12.897 15.84 2.925 2.61-14.031 11.34 9.71101 10.62-12.294-10.44-8.928 12.96-4.554-5.4-15.28201-14.13 4.986 2.61-14.103z" opacity=".75"/><path d="m90.615012 31.250999-15.57 4.5 7.812 27.072-26.424-6.534-3.888 15.732003 28.359 7.019999-20.277 21.077999 11.673 11.16 18.882-19.601999 7.812 27.071999 15.569998-4.5-8.352-28.943998 30.20401 7.47 3.96-15.732-28.34101-7.011001 20.241-21.015003-11.682-11.232-21.608998 22.464z" opacity=".75"/></g></svg>