<svg height="512" viewBox="0 0 512 512" width="512" xmlns="http://www.w3.org/2000/svg"><path d="m167.38086.00390625c-.61357-.01184279-1.23977-.0036372-1.87695.02539063-3.39833.15481505-7.13457.91656269-11.21875 2.55664062-16.32336 6.5549621-18.92007 19.4321535-20.32618 26.5253905-1.4061 7.093238-1.4267 13.19321-1.21093 19.933594.27044 8.448209 1.29068 17.937424 2.56445 27.849609-21.75118 14.603116-40.653202 33.019579-55.816406 54.384769-9.898044-1.48106-19.370346-2.69427-27.814453-3.1211-6.722208-.33979-12.815511-.4266-19.927735.85938-7.112223 1.28597-19.936206 3.68963-26.7929685 19.74023-6.8690231 16.07924.2933005 27.02007 4.2929687 33.04688 3.9996688 6.0268 8.2867888 10.36724 13.1914058 14.99023 6.164477 5.81051 13.611261 11.82448 21.544922 17.96094-4.946002 25.65748-5.200835 51.97595-.755859 77.72461-8.083453 5.96821-15.680998 11.82682-21.994141 17.50781-5.0256 4.52237-9.421367 8.77143-13.568359 14.70117-4.1469923 5.92974-11.6445341 16.68291-5.0859375 33.01953v.002.002c6.5539715 16.32056 19.4316085 18.91969 26.5253905 20.32617 7.093783 1.40648 13.193009 1.42674 19.933594 1.21094 8.44846-.27047 17.937281-1.29046 27.849609-2.56445 14.603692 21.7523 33.020249 40.65462 54.386719 55.81836-1.48101 9.89829-2.69432 19.37064-3.12109 27.81445-.33976 6.72206-.42847 12.81388.85742 19.92578 1.28588 7.1119 3.68917 19.93806 19.74023 26.79492 16.07904 6.86885 27.02197-.29527 33.04883-4.29492s10.36717-8.28481 14.99024-13.18945c5.81096-6.16492 11.8239-13.61245 17.96093-21.54688 25.65755 4.94627 51.97577 5.20241 77.72461.75781 5.96797 8.0823 11.82738 15.67951 17.50781 21.99219 4.52205 5.02536 8.77032 9.42131 14.69922 13.56836 5.92891 4.14705 16.68078 11.64733 33.01953 5.08985v-.002h.002c16.32317-6.55307 18.92361-19.43168 20.33008-26.52539 1.40646-7.09371 1.42671-13.19302 1.21093-19.93359-.27043-8.44792-1.29254-17.93598-2.5664-27.84766 21.75203-14.60368 40.65486-33.02048 55.81836-54.38672 9.89853 1.48106 19.37239 2.69443 27.8164 3.1211 6.72224.33966 12.81355.42688 19.92578-.85938 7.11224-1.28625 19.9369-3.69133 26.79297-19.74023 6.86897-16.07919-.29339-27.02191-4.29297-33.04883-3.99957-6.02692-8.28672-10.36709-13.1914-14.99024-6.16479-5.81092-13.61065-11.82613-21.54492-17.96289 4.94574-25.65749 5.20108-51.976.75585-77.72461 8.08252-5.96762 15.68145-11.82337 21.99415-17.5039 5.02562-4.52235 9.42129-8.7735 13.56835-14.70313 4.14707-5.92962 11.64486-16.68207 5.08594-33.01953v-.002c-6.55394-16.32058-19.4316-18.92164-26.52539-20.32813-7.09379-1.40648-13.19301-1.42673-19.93359-1.21093-8.44852.27047-17.93721 1.2924-27.84961 2.5664-14.60324-21.75138-33.01928-40.655019-54.38477-55.818356 1.48097-9.897012 2.69218-19.369157 3.11914-27.8125.33993-6.72207.42843-12.815448-.85742-19.927735-1.28584-7.112286-3.68977-19.936361-19.74023-26.7929684-16.07908-6.8688482-27.02005.2933537-33.04688 4.2929688-6.02683 3.9996146-10.36916 8.2848806-14.99219 13.1894526-5.81101 6.164907-11.82391 13.612546-17.96093 21.546876-25.65678-4.945657-51.97471-5.200444-77.72266-.75586-5.9682-8.083551-11.82667-15.68263-17.50785-21.996094-4.52253-5.025856-8.77298-9.421119-14.70313-13.568359-4.16963-2.9160282-10.72419-7.49032693-19.92773-7.66796875z" fill="#2db8d2"/><path d="m166.36914 32.671875c-.20314.394142-.58835 1.184264-.88672 2.689453-.55921 2.820701-.78662 7.241249-.61328 12.65625.34668 10.830002 2.18984 25.722605 4.71094 42.148438l.49219 3.207031-2.84571 1.560547c-29.28045 16.066026-53.64106 39.791986-70.47656 68.636716l-1.628906 2.78907-3.181641-.5586c-16.337609-2.87541-31.120998-5.00104-41.880859-5.54492-5.379928-.27195-9.774526-.11967-12.585938.38867-1.533069.27719-2.321022.65036-2.708984.84375.1291.41363.404759 1.24382 1.269531 2.54688 1.583836 2.38656 4.525247 5.67082 8.455078 9.375 7.859659 7.40836 19.650813 16.63368 33.052735 26.46875l2.605468 1.91211-.892578 3.10546c-9.191866 32.03952-9.516663 65.97158-.941406 98.18164l.833984 3.13282-2.654296 1.86133c-13.633627 9.54712-25.682891 18.54009-33.75586 25.80468-4.036484 3.6323-7.074576 6.86747-8.728516 9.23243-.887687 1.26929-1.192023 2.09806-1.335937 2.51953.394222.20324 1.1843.58829 2.689453.88671 2.820636.55921 7.241297.78665 12.65625.61329 10.829904-.34672 25.722269-2.18941 42.148438-4.71094l3.208984-.49219 1.560547 2.8457c16.065953 29.28053 39.789763 53.64088 68.634763 70.47657l2.78907 1.6289-.5586 3.18164c-2.87555 16.33907-5.00109 31.12316-5.54492 41.88282-.27191 5.37983-.11962 9.77275.38867 12.58398.27768 1.53581.65278 2.324.8457 2.71094.41456-.12943 1.2442-.40632 2.54493-1.26953 2.38659-1.58384 5.67076-4.52718 9.375-8.45703 7.40845-7.85969 16.6334-19.65047 26.46875-33.05274l1.91211-2.60547 3.10546.89258c32.03942 9.19229 65.97337 9.51774 98.1836.94336l3.13281-.83398 1.85938 2.65429c9.54792 13.63227 18.54197 25.67872 25.80664 33.75196 3.63235 4.03663 6.8674 7.0782 9.23242 8.73242 1.26931.88785 2.09805 1.19001 2.51953 1.33398.20329-.39443.58854-1.18352.88672-2.6875.55922-2.82055.78661-7.24128.61328-12.65625-.34669-10.82993-2.18938-25.72047-4.71094-42.14648l-.49219-3.20899 2.84571-1.56054c29.28016-16.06627 53.63943-39.79195 70.47461-68.63672l1.6289-2.78907 3.18164.5586c16.33966 2.87574 31.1232 5.00126 41.88282 5.54492 5.37982.27184 9.77476.11974 12.58593-.38867 1.53294-.27723 2.32105-.6523 2.70899-.8457-.12911-.4137-.40478-1.24183-1.26953-2.54493-1.58382-2.38664-4.52724-5.67079-8.45703-9.375-7.85958-7.40844-19.64873-16.6342-33.05079-26.46875l-2.60546-1.91211.89257-3.10742c9.19215-32.03976 9.51667-65.97124.94141-98.18164l-.83398-3.13281 2.65429-1.86133c13.63297-9.54685 25.68075-18.54001 33.75391-25.80469 4.03658-3.63234 7.07643-6.86739 8.73047-9.23242.88776-1.26932 1.192-2.09806 1.33593-2.51953-.39423-.20323-1.18429-.5883-2.68945-.88672-2.82063-.55931-7.24129-.78664-12.65625-.61328-10.8299.3467-25.72228 2.18942-42.14844 4.71094l-3.20898.49219-1.56055-2.84571c-16.06618-29.28024-39.79171-53.64117-68.63672-70.47656l-2.78711-1.626953.5586-3.181641c2.87541-16.337513 5.00083-31.121181 5.54492-41.880859.27204-5.37984.11959-9.774613-.38867-12.585938-.27712-1.532792-.65035-2.320992-.84375-2.708984-.41366.129101-1.24381.402815-2.54688 1.267578-2.38658 1.583822-5.67081 4.527241-9.375 8.457031-7.4084 7.859582-16.6336 19.650941-26.46875 33.052735l-1.91211 2.605469-3.10742-.892579c-32.03982-9.191835-65.97132-9.51655-98.18164-.941406l-3.13281.833985-1.85938-2.65625c-9.54675-13.633332-18.54176-25.6805-25.80664-33.753907-3.63243-4.036704-6.86735-7.076451-9.23242-8.730469-1.26937-.887729-2.09808-1.19203-2.51953-1.335937z"/><path d="m158.19402 100.22913c-7.10026 4.22283-24.84577 9.87313-31.35525 14.39636-20.20368 14.84609-11.49699 17.7513-24.22106 39.55184 0 0 33.68494 22.75682 44.28673 39.44131 13.9165 21.90099 18.62049 56.50663 22.17955 74.61881 3.20497 16.3103 1.37273 33.46903-7.65332 49.75871l.4856-.57128-3.13066 5.39671 5.47864 3.17444 82.88409 47.8411 5.48053 3.15158 2.68886-4.65405c18.77844-17.86353 42.78479-4.82564 69.25321 11.19143l31.56987 31.4878c4.00473-2.47684 7.90393-5.10559 20.78462-14.87836 12.88068-9.77276 29.03046-20.89967 40.64424-40.49475l-32.54142-39.73844c-15.20394-19.1446-24.11458-36.91608-21.68984-57.21586 12.0865-39.98676-3.3577-95.15987-17.45659-108.65605-5.35056-5.24897-11.24577-10.03236-18.30401-13.81741-14.33114-8.27429-31.82138-10.30534-47.65097-9.7975-11.22793.35889-22.42886 2.74741-33.07176 6.83445-10.68326 2.44337-20.60853 1.85689-30.28426-1.10341-12.83694-3.9275-30.16768-1.90415-41.86352-10.24695-8.28304-5.90841-16.51328-25.67048-16.51328-25.67048zm124.43881 43.03074h.002c1.88236-.0176 3.75698.0347 5.62716.14852-.0243.0657-.06.12284-.0838.18852-4.57189 12.65791 26.09478 25.71003 33.26407 10.13646 37.24607 23.10777 46.76824 79.23129 24.41869 117.94511-.48074.8308-.98302 1.62675-1.50438 2.38986l-4.27324 4.63501c5.05129 2.9346 8.62835 7.97974 8.23223 14.4306-.003.029.002.0553 0 .0838 3.94354.6067 7.56538 3.55227 7.29724 7.89322-.53831 8.78214-9.34346 9.64531-13.98509 6.00989-10.51219 7.89714-29.58741.97478-29.51835-13.0976-1.32375.47262-2.62721.93332-3.97806 1.41677l-18.36684-18.68475-9.03585 8.86822 14.60207 14.85334c-7.32639 3.29755-14.54174 7.53839-20.90526 13.90121l-.59414.59223-.42275.71983-4.50935 7.78657-10.02988-5.79661 6.98302-12.10357-10.96108-6.32791-6.98302 12.10357-9.24531-5.33197 6.98112-12.10357-10.96107-6.3241-6.98114 12.10166-9.43953-5.45954 6.98491-12.10359-10.96106-6.326-6.98303 12.10357-10.32505-5.94514 4.50555-7.78658c3.74444-8.53837 2.75646-19.42907 1.98997-26.61796l20.48253 5.28626 3.17444-12.2483-25.75167-6.64591c-.41711-2.30218-.82884-4.58039-1.20733-6.81349-1.49101-8.78213-2.47796-16.8395-1.35394-24.48138l3.53435-11.29806c.32637-.65004.66217-1.3021 1.03593-1.94807 6.58563-11.40592 15.8633-21.16541 26.66194-28.73551 1.31632 13.21517 19.70721 19.38403 29.92015 11.55323 5.33838 8.5228 22.74539 9.12165 23.67981-6.07273.5417-8.82275-9.59651-13.83332-17.18428-11.42755-.57354-3.44446-2.32915-6.37524-4.78167-8.65303 6.05339-1.55397 12.22066-2.50319 18.36685-2.75169.86129-.0338 1.72297-.0541 2.58222-.0628zm4.21228 38.82816c-4.34572-.0434-8.60595 2.58129-8.99396 8.90821-.62157 10.12959 17.79204 13.49754 18.62012 0 .3318-5.38033-4.70286-8.85809-9.62616-8.90821zm-54.28743 3.23156.002.002c-.36318-.008-.72635-.007-1.08923.004h-.002c-6.199.18757-12.3205 3.14072-17.01291 10.11361-12.98028 19.29089 23.00877 49.34497 41.09452 25.921 5.34109 2.72334 13.34069 1.08541 13.88034-7.7028.36159-5.88275-5.69642-9.47876-11.00297-8.8206-3.34144-10.21447-14.61117-19.2782-25.86974-19.51692zm76.94845 44.75999c-6.19899.18687-12.3205 3.1191-17.01291 10.09267-13.2552 19.69918 24.54898 50.62767 42.21424 24.37471 9.73421-14.46713-8.06018-34.9847-25.20133-34.46738zm-38.25714 6.00799-33.41071 23.48923 29.77162 17.20132 3.63909-40.68865zm-80.59705 56.83691 10.32505 5.94324-7.5543 13.07856 10.96107 6.326 7.55431-13.07666 9.43955 5.45956-7.5543 13.07666 10.95916 6.326 7.55431-13.07666 9.24532 5.33197-7.5524 13.07666 10.96106 6.326 7.55242-13.07475 10.02988 5.79471-14.60018 25.26782-71.92302-41.517zm123.59395 25.09263c6.18003-.1693 12.02337 7.29836 8.25319 12.99288-2.35232 3.55145-5.43229 4.61197-8.27414 4.16845 1.65623 4.49805 1.51251 9.51996-1.45867 14.00784-14.78956 22.33315-43.0513-1.69404-31.95205-18.45051 7.32503-11.06126 17.96298-10.7535 25.47556-5.58715.14625-.97638.48924-1.93283 1.10068-2.85641 1.96635-2.96846 4.43746-4.20616 6.85543-4.2732zm31.76161.48749h.002c6.97632.0704 14.11468 4.98586 13.64612 12.61011-1.17479 19.12569-27.24645 14.35274-26.36486 0 .5505-8.96494 6.56185-12.67242 12.71684-12.61011zm30.38481 22.45141c4.43848.0446 8.99549 3.16808 8.69687 8.01891-.74618 12.16768-17.34069 9.1315-16.77867 0 .34938-5.70128 4.16536-8.05819 8.0818-8.01891zm-40.22426 10.74773c4.43847.0454 8.99549 3.17066 8.69687 8.0208-.74685 12.16769-17.36285 9.13152-16.80152 0 .35007-5.70127 4.18753-8.05818 8.10465-8.0189z" fill="#2db8d2"/></svg>