<svg height="512" viewBox="0 0 512 512" width="512" xmlns="http://www.w3.org/2000/svg"><path d="m167.38086.00390625c-.61357-.01184279-1.23977-.0036372-1.87695.02539063-3.39833.15481505-7.13457.91656269-11.21875 2.55664062-16.32336 6.5549621-18.92007 19.4321535-20.32618 26.5253905-1.4061 7.093238-1.4267 13.19321-1.21093 19.933594.27044 8.448209 1.29068 17.937424 2.56445 27.849609-21.75118 14.603116-40.653202 33.019579-55.816406 54.384769-9.898044-1.48106-19.370346-2.69427-27.814453-3.1211-6.722208-.33979-12.815511-.4266-19.927735.85938-7.112223 1.28597-19.936206 3.68963-26.7929685 19.74023-6.8690231 16.07924.2933005 27.02007 4.2929687 33.04688 3.9996688 6.0268 8.2867888 10.36724 13.1914058 14.99023 6.164477 5.81051 13.611261 11.82448 21.544922 17.96094-4.946002 25.65748-5.200835 51.97595-.755859 77.72461-8.083453 5.96821-15.680998 11.82682-21.994141 17.50781-5.0256 4.52237-9.421367 8.77143-13.568359 14.70117-4.1469923 5.92974-11.6445341 16.68291-5.0859375 33.01953v.002.002c6.5539715 16.32056 19.4316085 18.91969 26.5253905 20.32617 7.093783 1.40648 13.193009 1.42674 19.933594 1.21094 8.44846-.27047 17.937281-1.29046 27.849609-2.56445 14.603692 21.7523 33.020249 40.65462 54.386719 55.81836-1.48101 9.89829-2.69432 19.37064-3.12109 27.81445-.33976 6.72206-.42847 12.81388.85742 19.92578 1.28588 7.1119 3.68917 19.93806 19.74023 26.79492 16.07904 6.86885 27.02197-.29527 33.04883-4.29492s10.36717-8.28481 14.99024-13.18945c5.81096-6.16492 11.8239-13.61245 17.96093-21.54688 25.65755 4.94627 51.97577 5.20241 77.72461.75781 5.96797 8.0823 11.82738 15.67951 17.50781 21.99219 4.52205 5.02536 8.77032 9.42131 14.69922 13.56836 5.92891 4.14705 16.68078 11.64733 33.01953 5.08985v-.002h.002c16.32317-6.55307 18.92361-19.43168 20.33008-26.52539 1.40646-7.09371 1.42671-13.19302 1.21093-19.93359-.27043-8.44792-1.29254-17.93598-2.5664-27.84766 21.75203-14.60368 40.65486-33.02048 55.81836-54.38672 9.89853 1.48106 19.37239 2.69443 27.8164 3.1211 6.72224.33966 12.81355.42688 19.92578-.85938 7.11224-1.28625 19.9369-3.69133 26.79297-19.74023 6.86897-16.07919-.29339-27.02191-4.29297-33.04883-3.99957-6.02692-8.28672-10.36709-13.1914-14.99024-6.16479-5.81092-13.61065-11.82613-21.54492-17.96289 4.94574-25.65749 5.20108-51.976.75585-77.72461 8.08252-5.96762 15.68145-11.82337 21.99415-17.5039 5.02562-4.52235 9.42129-8.7735 13.56835-14.70313 4.14707-5.92962 11.64486-16.68207 5.08594-33.01953v-.002c-6.55394-16.32058-19.4316-18.92164-26.52539-20.32813-7.09379-1.40648-13.19301-1.42673-19.93359-1.21093-8.44852.27047-17.93721 1.2924-27.84961 2.5664-14.60324-21.75138-33.01928-40.655019-54.38477-55.818356 1.48097-9.897012 2.69218-19.369157 3.11914-27.8125.33993-6.72207.42843-12.815448-.85742-19.927735-1.28584-7.112286-3.68977-19.936361-19.74023-26.7929684-16.07908-6.8688482-27.02005.2933537-33.04688 4.2929688-6.02683 3.9996146-10.36916 8.2848806-14.99219 13.1894526-5.81101 6.164907-11.82391 13.612546-17.96093 21.546876-25.65678-4.945657-51.97471-5.200444-77.72266-.75586-5.9682-8.083551-11.82667-15.68263-17.50785-21.996094-4.52253-5.025856-8.77298-9.421119-14.70313-13.568359-4.16963-2.9160282-10.72419-7.49032693-19.92773-7.66796875z" fill="#a6ecf2"/><path d="m166.36914 32.671875c-.20314.394142-.58835 1.184264-.88672 2.689453-.55921 2.820701-.78662 7.241249-.61328 12.65625.34668 10.830002 2.18984 25.722605 4.71094 42.148438l.49219 3.207031-2.84571 1.560547c-29.28045 16.066026-53.64106 39.791986-70.47656 68.636716l-1.628906 2.78907-3.181641-.5586c-16.337609-2.87541-31.120998-5.00104-41.880859-5.54492-5.379928-.27195-9.774526-.11967-12.585938.38867-1.533069.27719-2.321022.65036-2.708984.84375.1291.41363.404759 1.24382 1.269531 2.54688 1.583836 2.38656 4.525247 5.67082 8.455078 9.375 7.859659 7.40836 19.650813 16.63368 33.052735 26.46875l2.605468 1.91211-.892578 3.10546c-9.191866 32.03952-9.516663 65.97158-.941406 98.18164l.833984 3.13282-2.654296 1.86133c-13.633627 9.54712-25.682891 18.54009-33.75586 25.80468-4.036484 3.6323-7.074576 6.86747-8.728516 9.23243-.887687 1.26929-1.192023 2.09806-1.335937 2.51953.394222.20324 1.1843.58829 2.689453.88671 2.820636.55921 7.241297.78665 12.65625.61329 10.829904-.34672 25.722269-2.18941 42.148438-4.71094l3.208984-.49219 1.560547 2.8457c16.065953 29.28053 39.789763 53.64088 68.634763 70.47657l2.78907 1.6289-.5586 3.18164c-2.87555 16.33907-5.00109 31.12316-5.54492 41.88282-.27191 5.37983-.11962 9.77275.38867 12.58398.27768 1.53581.65278 2.324.8457 2.71094.41456-.12943 1.2442-.40632 2.54493-1.26953 2.38659-1.58384 5.67076-4.52718 9.375-8.45703 7.40845-7.85969 16.6334-19.65047 26.46875-33.05274l1.91211-2.60547 3.10546.89258c32.03942 9.19229 65.97337 9.51774 98.1836.94336l3.13281-.83398 1.85938 2.65429c9.54792 13.63227 18.54197 25.67872 25.80664 33.75196 3.63235 4.03663 6.8674 7.0782 9.23242 8.73242 1.26931.88785 2.09805 1.19001 2.51953 1.33398.20329-.39443.58854-1.18352.88672-2.6875.55922-2.82055.78661-7.24128.61328-12.65625-.34669-10.82993-2.18938-25.72047-4.71094-42.14648l-.49219-3.20899 2.84571-1.56054c29.28016-16.06627 53.63943-39.79195 70.47461-68.63672l1.6289-2.78907 3.18164.5586c16.33966 2.87574 31.1232 5.00126 41.88282 5.54492 5.37982.27184 9.77476.11974 12.58593-.38867 1.53294-.27723 2.32105-.6523 2.70899-.8457-.12911-.4137-.40478-1.24183-1.26953-2.54493-1.58382-2.38664-4.52724-5.67079-8.45703-9.375-7.85958-7.40844-19.64873-16.6342-33.05079-26.46875l-2.60546-1.91211.89257-3.10742c9.19215-32.03976 9.51667-65.97124.94141-98.18164l-.83398-3.13281 2.65429-1.86133c13.63297-9.54685 25.68075-18.54001 33.75391-25.80469 4.03658-3.63234 7.07643-6.86739 8.73047-9.23242.88776-1.26932 1.192-2.09806 1.33593-2.51953-.39423-.20323-1.18429-.5883-2.68945-.88672-2.82063-.55931-7.24129-.78664-12.65625-.61328-10.8299.3467-25.72228 2.18942-42.14844 4.71094l-3.20898.49219-1.56055-2.84571c-16.06618-29.28024-39.79171-53.64117-68.63672-70.47656l-2.78711-1.626953.5586-3.181641c2.87541-16.337513 5.00083-31.121181 5.54492-41.880859.27204-5.37984.11959-9.774613-.38867-12.585938-.27712-1.532792-.65035-2.320992-.84375-2.708984-.41366.129101-1.24381.402815-2.54688 1.267578-2.38658 1.583822-5.67081 4.527241-9.375 8.457031-7.4084 7.859582-16.6336 19.650941-26.46875 33.052735l-1.91211 2.605469-3.10742-.892579c-32.03982-9.191835-65.97132-9.51655-98.18164-.941406l-3.13281.833985-1.85938-2.65625c-9.54675-13.633332-18.54176-25.6805-25.80664-33.753907-3.63243-4.036704-6.86735-7.076451-9.23242-8.730469-1.26937-.887729-2.09808-1.19203-2.51953-1.335937z"/><path d="m256.00001 83.215846v.0033l-6.19652 6.225771-38.31244 38.285013 12.41864 12.41864 23.30917-23.311v26.51163l-11.86113 11.86113 1.54455 6.47802-16.03236 20.87076-27.3561-31.35185 13.51902 39.52798-21.66224 3.01052-6.35189-6.0046-16.17859 4.31563-22.95822-13.24118 31.82528-8.51612-4.54961-16.97006-52.29024 14.00525-8.48504 2.29215 2.26109 8.48139 14.03449 52.29207 16.93899-4.55142-8.54353-31.82528 22.96187 13.27044 4.34305 16.17859 7.59302 2.26293 8.86342 21.40998-40.69782 7.99334 40.98844 8.04999-9.41725 23.16112-7.32981 2.18431-4.34671 16.17859-22.96003 13.26862 8.54352-31.82528-16.97007-4.55142-14.00341 52.31949-2.26109 8.45579 8.48321 2.2885 52.29207 14.00341 4.54961-16.96823-31.82527-8.51428 22.96004-13.27043 16.17859 4.34488 8.21816-7.76852 20.58928 2.72538-13.47516 39.40002 27.55351-31.57667 15.72894 20.20541-2.27571 9.54704 11.86113 11.86113v26.50978l-23.30917-23.31281-12.4223 12.4223 38.3161 38.285 6.19652 6.22212 6.19469-6.22212 38.31243-38.285-12.41681-12.4223-23.31282 23.31465v-26.51344l11.86296-11.86113-3.24267-13.60128 12.43693-15.96839 27.49319 31.50905-13.48247-39.3854 24.49729-3.25181 8.63675 8.16516 16.17676-4.34305 22.96004 13.27044-31.82527 8.51427 4.54777 16.97007 52.32316-14.00524 8.45578-2.29034-2.26109-8.45578-14.00342-52.31767-16.97006 4.54959 8.54353 31.82528-22.96187-13.27043-4.34304-16.17859-12.23221-3.64481-8.7848-21.66224 41.16027-8.09387-40.87877-8.01893 8.23644-19.91661 12.49907-3.72339 4.3467-16.18043 22.96004-13.2686-8.54352 31.82528 16.97006 4.55325 14.00341-52.29208 2.26108-8.48503-8.45578-2.29034-52.3195-14.00341-4.5496 16.97006 31.82527 8.51429-22.96003 13.23936-16.1786-4.31564-6.78692 6.4177-25.55564-3.55157 13.51537-39.49324-27.29029 31.26044-12.74401-16.5862 2.52248-10.57979-11.86113-11.86113v-26.51348l23.30916 23.31465 12.42229-12.42229-38.31608-38.285015zm-17.30274 86.001904 8.52524 35.75888v2.08196l-3.3103 1.91013-12.13897-13.91201zm32.6405 8.24192 4.66293 17.385-10.93257 12.52466-.28697-.16633v-2.23186zm49.2907 21.95837-24.75502 23.40421-2.02895 1.17349-3.86415-2.23183 5.27711-15.41454zm-127.37969 1.77669 19.15621 5.23324 5.91138 17.30822-.30709.1773-1.8809-1.08759zm62.60317 21.13034 3.97748 2.29581-6.20384 6.21299-4.5825-4.58069zm-80.13988 6.31168 31.64065 9.42639 1.72919.99985v1.35081l-18.03938 3.55522zm154.43054 1.82787-13.46967 13.4642-14.04912-2.7656v-1.9284l2.0253-1.17533zm-53.41807 3.90254 8.34064 4.81281v6.55662l-10.61818-2.84601zm-45.59836 2.22271 1.67616 6.26598-6.16362 1.64875v-5.32463zm53.939 27.44931v8.84696l-7.81238 4.51487-2.81494-10.5213zm-58.42646 1.22652 6.17641 1.65972-2.21174 8.25289-3.96467-2.29217zm-35.18858 1.13511 17.63177 3.46383v3.08l-1.73101.99803-33.63489 10.02227zm124.79689.0183 15.85872 15.70152-27.45846-8.17978-2.02347-1.17349v-3.66125zm-62.63424 12.48261 7.71001 7.70453-5.47085 3.16224-8.30407-4.79819zm40.31579 9.13394 1.88089 1.08576 21.97115 20.77207-23.30733-6.23673-4.5496-13.30701zm-76.00704.0877.46977.27053-5.19667 15.18422-17.16017 4.59713 20.15241-19.05203zm25.23759 14.56823 4.05973 2.34334v1.99605l-7.77947 32.63868-6.60232-25.1407zm22.65296 1.59574 9.12844 10.45914-4.36681 16.59902-5.79805-24.31634v-2.14227z" fill="#a6ecf2"/></svg>