<svg height="512" viewBox="0 0 512 512" width="512" xmlns="http://www.w3.org/2000/svg"><path d="m167.38086.00390625c-.61357-.01184279-1.23977-.0036372-1.87695.02539063-3.39833.15481505-7.13457.91656269-11.21875 2.55664062-16.32336 6.5549621-18.92007 19.4321535-20.32618 26.5253905-1.4061 7.093238-1.4267 13.19321-1.21093 19.933594.27044 8.448209 1.29068 17.937424 2.56445 27.849609-21.75118 14.603116-40.653202 33.019579-55.816406 54.384769-9.898044-1.48106-19.370346-2.69427-27.814453-3.1211-6.722208-.33979-12.815511-.4266-19.927735.85938-7.112223 1.28597-19.936206 3.68963-26.7929685 19.74023-6.8690231 16.07924.2933005 27.02007 4.2929687 33.04688 3.9996688 6.0268 8.2867888 10.36724 13.1914058 14.99023 6.164477 5.81051 13.611261 11.82448 21.544922 17.96094-4.946002 25.65748-5.200835 51.97595-.755859 77.72461-8.083453 5.96821-15.680998 11.82682-21.994141 17.50781-5.0256 4.52237-9.421367 8.77143-13.568359 14.70117-4.1469923 5.92974-11.6445341 16.68291-5.0859375 33.01953v.002.002c6.5539715 16.32056 19.4316085 18.91969 26.5253905 20.32617 7.093783 1.40648 13.193009 1.42674 19.933594 1.21094 8.44846-.27047 17.937281-1.29046 27.849609-2.56445 14.603692 21.7523 33.020249 40.65462 54.386719 55.81836-1.48101 9.89829-2.69432 19.37064-3.12109 27.81445-.33976 6.72206-.42847 12.81388.85742 19.92578 1.28588 7.1119 3.68917 19.93806 19.74023 26.79492 16.07904 6.86885 27.02197-.29527 33.04883-4.29492s10.36717-8.28481 14.99024-13.18945c5.81096-6.16492 11.8239-13.61245 17.96093-21.54688 25.65755 4.94627 51.97577 5.20241 77.72461.75781 5.96797 8.0823 11.82738 15.67951 17.50781 21.99219 4.52205 5.02536 8.77032 9.42131 14.69922 13.56836 5.92891 4.14705 16.68078 11.64733 33.01953 5.08985v-.002h.002c16.32317-6.55307 18.92361-19.43168 20.33008-26.52539 1.40646-7.09371 1.42671-13.19302 1.21093-19.93359-.27043-8.44792-1.29254-17.93598-2.5664-27.84766 21.75203-14.60368 40.65486-33.02048 55.81836-54.38672 9.89853 1.48106 19.37239 2.69443 27.8164 3.1211 6.72224.33966 12.81355.42688 19.92578-.85938 7.11224-1.28625 19.9369-3.69133 26.79297-19.74023 6.86897-16.07919-.29339-27.02191-4.29297-33.04883-3.99957-6.02692-8.28672-10.36709-13.1914-14.99024-6.16479-5.81092-13.61065-11.82613-21.54492-17.96289 4.94574-25.65749 5.20108-51.976.75585-77.72461 8.08252-5.96762 15.68145-11.82337 21.99415-17.5039 5.02562-4.52235 9.42129-8.7735 13.56835-14.70313 4.14707-5.92962 11.64486-16.68207 5.08594-33.01953v-.002c-6.55394-16.32058-19.4316-18.92164-26.52539-20.32813-7.09379-1.40648-13.19301-1.42673-19.93359-1.21093-8.44852.27047-17.93721 1.2924-27.84961 2.5664-14.60324-21.75138-33.01928-40.655019-54.38477-55.818356 1.48097-9.897012 2.69218-19.369157 3.11914-27.8125.33993-6.72207.42843-12.815448-.85742-19.927735-1.28584-7.112286-3.68977-19.936361-19.74023-26.7929684-16.07908-6.8688482-27.02005.2933537-33.04688 4.2929688-6.02683 3.9996146-10.36916 8.2848806-14.99219 13.1894526-5.81101 6.164907-11.82391 13.612546-17.96093 21.546876-25.65678-4.945657-51.97471-5.200444-77.72266-.75586-5.9682-8.083551-11.82667-15.68263-17.50785-21.996094-4.52253-5.025856-8.77298-9.421119-14.70313-13.568359-4.16963-2.9160282-10.72419-7.49032693-19.92773-7.66796875z" fill="#d7d8db"/><path d="m166.36914 32.671875c-.20314.394142-.58835 1.184264-.88672 2.689453-.55921 2.820701-.78662 7.241249-.61328 12.65625.34668 10.830002 2.18984 25.722605 4.71094 42.148438l.49219 3.207031-2.84571 1.560547c-29.28045 16.066026-53.64106 39.791986-70.47656 68.636716l-1.628906 2.78907-3.181641-.5586c-16.337609-2.87541-31.120998-5.00104-41.880859-5.54492-5.379928-.27195-9.774526-.11967-12.585938.38867-1.533069.27719-2.321022.65036-2.708984.84375.1291.41363.404759 1.24382 1.269531 2.54688 1.583836 2.38656 4.525247 5.67082 8.455078 9.375 7.859659 7.40836 19.650813 16.63368 33.052735 26.46875l2.605468 1.91211-.892578 3.10546c-9.191866 32.03952-9.516663 65.97158-.941406 98.18164l.833984 3.13282-2.654296 1.86133c-13.633627 9.54712-25.682891 18.54009-33.75586 25.80468-4.036484 3.6323-7.074576 6.86747-8.728516 9.23243-.887687 1.26929-1.192023 2.09806-1.335937 2.51953.394222.20324 1.1843.58829 2.689453.88671 2.820636.55921 7.241297.78665 12.65625.61329 10.829904-.34672 25.722269-2.18941 42.148438-4.71094l3.208984-.49219 1.560547 2.8457c16.065953 29.28053 39.789763 53.64088 68.634763 70.47657l2.78907 1.6289-.5586 3.18164c-2.87555 16.33907-5.00109 31.12316-5.54492 41.88282-.27191 5.37983-.11962 9.77275.38867 12.58398.27768 1.53581.65278 2.324.8457 2.71094.41456-.12943 1.2442-.40632 2.54493-1.26953 2.38659-1.58384 5.67076-4.52718 9.375-8.45703 7.40845-7.85969 16.6334-19.65047 26.46875-33.05274l1.91211-2.60547 3.10546.89258c32.03942 9.19229 65.97337 9.51774 98.1836.94336l3.13281-.83398 1.85938 2.65429c9.54792 13.63227 18.54197 25.67872 25.80664 33.75196 3.63235 4.03663 6.8674 7.0782 9.23242 8.73242 1.26931.88785 2.09805 1.19001 2.51953 1.33398.20329-.39443.58854-1.18352.88672-2.6875.55922-2.82055.78661-7.24128.61328-12.65625-.34669-10.82993-2.18938-25.72047-4.71094-42.14648l-.49219-3.20899 2.84571-1.56054c29.28016-16.06627 53.63943-39.79195 70.47461-68.63672l1.6289-2.78907 3.18164.5586c16.33966 2.87574 31.1232 5.00126 41.88282 5.54492 5.37982.27184 9.77476.11974 12.58593-.38867 1.53294-.27723 2.32105-.6523 2.70899-.8457-.12911-.4137-.40478-1.24183-1.26953-2.54493-1.58382-2.38664-4.52724-5.67079-8.45703-9.375-7.85958-7.40844-19.64873-16.6342-33.05079-26.46875l-2.60546-1.91211.89257-3.10742c9.19215-32.03976 9.51667-65.97124.94141-98.18164l-.83398-3.13281 2.65429-1.86133c13.63297-9.54685 25.68075-18.54001 33.75391-25.80469 4.03658-3.63234 7.07643-6.86739 8.73047-9.23242.88776-1.26932 1.192-2.09806 1.33593-2.51953-.39423-.20323-1.18429-.5883-2.68945-.88672-2.82063-.55931-7.24129-.78664-12.65625-.61328-10.8299.3467-25.72228 2.18942-42.14844 4.71094l-3.20898.49219-1.56055-2.84571c-16.06618-29.28024-39.79171-53.64117-68.63672-70.47656l-2.78711-1.626953.5586-3.181641c2.87541-16.337513 5.00083-31.121181 5.54492-41.880859.27204-5.37984.11959-9.774613-.38867-12.585938-.27712-1.532792-.65035-2.320992-.84375-2.708984-.41366.129101-1.24381.402815-2.54688 1.267578-2.38658 1.583822-5.67081 4.527241-9.375 8.457031-7.4084 7.859582-16.6336 19.650941-26.46875 33.052735l-1.91211 2.605469-3.10742-.892579c-32.03982-9.191835-65.97132-9.51655-98.18164-.941406l-3.13281.833985-1.85938-2.65625c-9.54675-13.633332-18.54176-25.6805-25.80664-33.753907-3.63243-4.036704-6.86735-7.076451-9.23242-8.730469-1.26937-.887729-2.09808-1.19203-2.51953-1.335937z"/><path d="m270.10174 93.910899c-64.23096-.581701-114.84298 57.519541-131.16904 119.096411 0 .002 0 .003-.002.005-4.19117 12.36945-6.4643 25.6174-6.4643 39.39074 0 1.87893.0491 3.74594.13249 5.60367-11.63527-36.62087-11.31991-91.26834 13.30766-136.79939-58.072747 42.27671-66.092011 157.05806 6.79557 222.42527-15.09243-1.54038-30.70959-6.51731-46.47449-16.04979 52.04837 64.05076 106.36258 67.20506 150.6547 60.61289-15.33757 8.3194-33.61015 13.17507-55.1702 12.73913 61.58018 24.87933 104.50088-5.06306 128.94161-40.35338-2.2314 12.86368-7.02944 26.05731-15.07255 39.35826 49.88983-40.54022 62.83301-82.45519 63.00461-119.93981 3.33054 34.74639-4.81129 80.03695-36.66706 127.1064 91.08066-53.16805 93.59364-204.70194-29.47596-263.54322-1.13823-.59959-2.28839-1.17798-3.44782-1.74246 23.03817-.20736 46.97207 6.86117 69.67698 25.34179-36.01768-62.34038-94.40381-60.41639-136.54338-44.02938 17.68757-13.39171 40.18576-21.83698 68.29228-21.26853-13.88-5.335358-27.37706-7.835747-40.32158-7.953015zm-13.44406 47.980421c18.14339.20539 35.22473 4.7636 50.2529 12.68746 7.30771 22.95667 7.13148 56.37072-23.73182 73.36195 38.01598-5.34197 45.54695-37.37332 43.67399-59.88344 20.93859 17.75581 35.15715 43.17577 38.35652 71.96203-7.58068-7.32228-17.9082-12.37738-31.69015-12.58476-2.80118-.0417-5.74414.11595-8.8355.49558 37.33357 8.70963 38.45722 34.92991 37.1262 54.39902-3.55514 12.70402-9.32313 24.47519-16.85809 34.88022 2.16317-25.88041-3.65716-46.821-16.69907-60.49695-16.70039-17.51265-44.25833-21.18771-76.01339-9.16013-28.87307 10.93174-49.9932 7.15731-62.6674-6.13305-12.29193-12.89019-17.56567-36.54053-10.57399-68.96276 14.50543-13.86013 32.78861-23.79543 53.15943-28.13765 16.69908 3.77509 30.95672 16.40424 35.29696 32.95159 5.0551 19.27168-5.20418 41.1842-24.76206 46.21149-14.40871 3.70354-30.79308-4.03945-34.45687-18.67342-2.6435-10.55807 3.03107-22.5194 13.56199-25.092 1.85707-.45384 3.77643-.53864 5.63813-.29615-1.91803 2.35596-3.07149 5.35987-3.07149 8.63475 0 7.55947 6.1284 13.68919 13.6892 13.68919 7.55947 0 13.69052-6.1284 13.69052-13.68919 0-3.58032-1.38602-6.82936-3.63596-9.2688-6.09329-9.46954-18.26728-13.77863-29.24872-11.09605-17.83929 4.3568-26.82386 23.38201-22.63203 40.12548 5.4778 21.87872 28.91944 32.9569 49.54731 27.65533 26.79934-6.889 40.33616-35.86939 33.65454-61.34367-3.51802-13.4096-11.86591-24.58649-22.77115-32.23607zm-92.8112 48.476c-1.95248 25.46369 3.8758 46.0803 16.76532 59.59658 16.70041 17.51333 44.25702 21.19103 76.01208 9.16611h.002c28.87307-10.93705 49.99254-7.16461 62.66674 6.12575 12.27337 12.87163 17.54843 36.47229 10.60181 68.8223-14.83406 13.53947-33.38158 23.07791-53.94983 26.93849l.0251-.13583c-15.70064-3.05824-29.54883-13.90916-35.25321-28.76971-7.28121-18.96294.66914-42.32242 19.93089-49.62019 14.20994-5.3824 31.70008.63603 37.06393 15.08382 3.87579 10.44148-.55388 23.25481-10.98608 27.06303-2.30826.84275-4.78149 1.10642-7.16726.84804 1.99157-2.37649 3.19339-5.43738 3.19339-8.78118 0-7.56078-6.12972-13.69117-13.68986-13.69117-7.56145 0-13.69051 6.13104-13.69051 13.69184 0 2.43811.64463 4.72384 1.76232 6.70679 5.9853 12.6106 21.26193 17.44574 33.83741 12.85507v-.002c17.49742-6.38812 24.44073-26.57674 18.34545-42.99821-5.97137-16.08622-21.45935-24.92438-37.35609-25.10591-5.30025-.061-10.64421.83942-15.69799 2.75348-26.25276 9.94457-36.68099 40.68465-27.10278 65.63354 4.14081 10.784 11.44322 19.76195 20.55035 26.23818-18.61046-.93616-35.99195-6.46431-51.04794-15.4681-5.63548-22.55914-3.38751-52.39949 25.20795-68.14386-34.83782 4.89609-44.06753 32.20028-43.92774 54.05582-18.84633-17.59149-31.51656-41.7076-34.44229-68.78122 9.11442 8.72419 22.16825 14.17616 40.36796 11.94144-36.30003-8.46846-38.37109-33.50746-37.23419-52.78377 3.22454-12.01432 8.41413-23.2177 15.21302-33.23913z" fill="#d7d8db"/></svg>