<svg height="512" viewBox="0 0 512 512" width="512" xmlns="http://www.w3.org/2000/svg"><path d="m167.38086.00390625c-.61357-.01184279-1.23977-.0036372-1.87695.02539063-3.39833.15481505-7.13457.91656269-11.21875 2.55664062-16.32336 6.5549621-18.92007 19.4321535-20.32618 26.5253905-1.4061 7.093238-1.4267 13.19321-1.21093 19.933594.27044 8.448209 1.29068 17.937424 2.56445 27.849609-21.75118 14.603116-40.653202 33.019579-55.816406 54.384769-9.898044-1.48106-19.370346-2.69427-27.814453-3.1211-6.722208-.33979-12.815511-.4266-19.927735.85938-7.112223 1.28597-19.936206 3.68963-26.7929685 19.74023-6.8690231 16.07924.2933005 27.02007 4.2929687 33.04688 3.9996688 6.0268 8.2867888 10.36724 13.1914058 14.99023 6.164477 5.81051 13.611261 11.82448 21.544922 17.96094-4.946002 25.65748-5.200835 51.97595-.755859 77.72461-8.083453 5.96821-15.680998 11.82682-21.994141 17.50781-5.0256 4.52237-9.421367 8.77143-13.568359 14.70117-4.1469923 5.92974-11.6445341 16.68291-5.0859375 33.01953v.002.002c6.5539715 16.32056 19.4316085 18.91969 26.5253905 20.32617 7.093783 1.40648 13.193009 1.42674 19.933594 1.21094 8.44846-.27047 17.937281-1.29046 27.849609-2.56445 14.603692 21.7523 33.020249 40.65462 54.386719 55.81836-1.48101 9.89829-2.69432 19.37064-3.12109 27.81445-.33976 6.72206-.42847 12.81388.85742 19.92578 1.28588 7.1119 3.68917 19.93806 19.74023 26.79492 16.07904 6.86885 27.02197-.29527 33.04883-4.29492s10.36717-8.28481 14.99024-13.18945c5.81096-6.16492 11.8239-13.61245 17.96093-21.54688 25.65755 4.94627 51.97577 5.20241 77.72461.75781 5.96797 8.0823 11.82738 15.67951 17.50781 21.99219 4.52205 5.02536 8.77032 9.42131 14.69922 13.56836 5.92891 4.14705 16.68078 11.64733 33.01953 5.08985v-.002h.002c16.32317-6.55307 18.92361-19.43168 20.33008-26.52539 1.40646-7.09371 1.42671-13.19302 1.21093-19.93359-.27043-8.44792-1.29254-17.93598-2.5664-27.84766 21.75203-14.60368 40.65486-33.02048 55.81836-54.38672 9.89853 1.48106 19.37239 2.69443 27.8164 3.1211 6.72224.33966 12.81355.42688 19.92578-.85938 7.11224-1.28625 19.9369-3.69133 26.79297-19.74023 6.86897-16.07919-.29339-27.02191-4.29297-33.04883-3.99957-6.02692-8.28672-10.36709-13.1914-14.99024-6.16479-5.81092-13.61065-11.82613-21.54492-17.96289 4.94574-25.65749 5.20108-51.976.75585-77.72461 8.08252-5.96762 15.68145-11.82337 21.99415-17.5039 5.02562-4.52235 9.42129-8.7735 13.56835-14.70313 4.14707-5.92962 11.64486-16.68207 5.08594-33.01953v-.002c-6.55394-16.32058-19.4316-18.92164-26.52539-20.32813-7.09379-1.40648-13.19301-1.42673-19.93359-1.21093-8.44852.27047-17.93721 1.2924-27.84961 2.5664-14.60324-21.75138-33.01928-40.655019-54.38477-55.818356 1.48097-9.897012 2.69218-19.369157 3.11914-27.8125.33993-6.72207.42843-12.815448-.85742-19.927735-1.28584-7.112286-3.68977-19.936361-19.74023-26.7929684-16.07908-6.8688482-27.02005.2933537-33.04688 4.2929688-6.02683 3.9996146-10.36916 8.2848806-14.99219 13.1894526-5.81101 6.164907-11.82391 13.612546-17.96093 21.546876-25.65678-4.945657-51.97471-5.200444-77.72266-.75586-5.9682-8.083551-11.82667-15.68263-17.50785-21.996094-4.52253-5.025856-8.77298-9.421119-14.70313-13.568359-4.16963-2.9160282-10.72419-7.49032693-19.92773-7.66796875z" fill="#93a824"/><path d="m166.36914 32.671875c-.20314.394142-.58835 1.184264-.88672 2.689453-.55921 2.820701-.78662 7.241249-.61328 12.65625.34668 10.830002 2.18984 25.722605 4.71094 42.148438l.49219 3.207031-2.84571 1.560547c-29.28045 16.066026-53.64106 39.791986-70.47656 68.636716l-1.628906 2.78907-3.181641-.5586c-16.337609-2.87541-31.120998-5.00104-41.880859-5.54492-5.379928-.27195-9.774526-.11967-12.585938.38867-1.533069.27719-2.321022.65036-2.708984.84375.1291.41363.404759 1.24382 1.269531 2.54688 1.583836 2.38656 4.525247 5.67082 8.455078 9.375 7.859659 7.40836 19.650813 16.63368 33.052735 26.46875l2.605468 1.91211-.892578 3.10546c-9.191866 32.03952-9.516663 65.97158-.941406 98.18164l.833984 3.13282-2.654296 1.86133c-13.633627 9.54712-25.682891 18.54009-33.75586 25.80468-4.036484 3.6323-7.074576 6.86747-8.728516 9.23243-.887687 1.26929-1.192023 2.09806-1.335937 2.51953.394222.20324 1.1843.58829 2.689453.88671 2.820636.55921 7.241297.78665 12.65625.61329 10.829904-.34672 25.722269-2.18941 42.148438-4.71094l3.208984-.49219 1.560547 2.8457c16.065953 29.28053 39.789763 53.64088 68.634763 70.47657l2.78907 1.6289-.5586 3.18164c-2.87555 16.33907-5.00109 31.12316-5.54492 41.88282-.27191 5.37983-.11962 9.77275.38867 12.58398.27768 1.53581.65278 2.324.8457 2.71094.41456-.12943 1.2442-.40632 2.54493-1.26953 2.38659-1.58384 5.67076-4.52718 9.375-8.45703 7.40845-7.85969 16.6334-19.65047 26.46875-33.05274l1.91211-2.60547 3.10546.89258c32.03942 9.19229 65.97337 9.51774 98.1836.94336l3.13281-.83398 1.85938 2.65429c9.54792 13.63227 18.54197 25.67872 25.80664 33.75196 3.63235 4.03663 6.8674 7.0782 9.23242 8.73242 1.26931.88785 2.09805 1.19001 2.51953 1.33398.20329-.39443.58854-1.18352.88672-2.6875.55922-2.82055.78661-7.24128.61328-12.65625-.34669-10.82993-2.18938-25.72047-4.71094-42.14648l-.49219-3.20899 2.84571-1.56054c29.28016-16.06627 53.63943-39.79195 70.47461-68.63672l1.6289-2.78907 3.18164.5586c16.33966 2.87574 31.1232 5.00126 41.88282 5.54492 5.37982.27184 9.77476.11974 12.58593-.38867 1.53294-.27723 2.32105-.6523 2.70899-.8457-.12911-.4137-.40478-1.24183-1.26953-2.54493-1.58382-2.38664-4.52724-5.67079-8.45703-9.375-7.85958-7.40844-19.64873-16.6342-33.05079-26.46875l-2.60546-1.91211.89257-3.10742c9.19215-32.03976 9.51667-65.97124.94141-98.18164l-.83398-3.13281 2.65429-1.86133c13.63297-9.54685 25.68075-18.54001 33.75391-25.80469 4.03658-3.63234 7.07643-6.86739 8.73047-9.23242.88776-1.26932 1.192-2.09806 1.33593-2.51953-.39423-.20323-1.18429-.5883-2.68945-.88672-2.82063-.55931-7.24129-.78664-12.65625-.61328-10.8299.3467-25.72228 2.18942-42.14844 4.71094l-3.20898.49219-1.56055-2.84571c-16.06618-29.28024-39.79171-53.64117-68.63672-70.47656l-2.78711-1.626953.5586-3.181641c2.87541-16.337513 5.00083-31.121181 5.54492-41.880859.27204-5.37984.11959-9.774613-.38867-12.585938-.27712-1.532792-.65035-2.320992-.84375-2.708984-.41366.129101-1.24381.402815-2.54688 1.267578-2.38658 1.583822-5.67081 4.527241-9.375 8.457031-7.4084 7.859582-16.6336 19.650941-26.46875 33.052735l-1.91211 2.605469-3.10742-.892579c-32.03982-9.191835-65.97132-9.51655-98.18164-.941406l-3.13281.833985-1.85938-2.65625c-9.54675-13.633332-18.54176-25.6805-25.80664-33.753907-3.63243-4.036704-6.86735-7.076451-9.23242-8.730469-1.26937-.887729-2.09808-1.19203-2.51953-1.335937z"/><path d="m334.08793 89.648341c-12.62773 0-25.25078 5.164979-32.96876 15.491579-16.82404-16.383224-52.78595-9.18307-52.78595 21.60315 0 4.47698.76369 8.45221 2.11422 11.93102h85.01514l29.46249 121.98862h-50.61679l-7.04339 60.57294c24.06973.60024 48.60371-14.87996 48.60371-46.46202l-.00096-.10987c10.13435.80255 20.66661-2.82701 27.13121-10.88196 8.7597 7.96653 26.69913 4.16949 26.69913-11.39779 0-12.69473-11.92769-17.55155-21.08196-14.59726-2.2482-11.40314-10.10889-18.61536-19.46078-21.64266 3.44198-4.69136 5.56022-10.76674 5.56022-18.23017 0-14.65219-8.15008-23.95586-18.50147-27.92303.20231-1.01827.31217-2.10619.31217-3.2658 0-1.15224-.10986-2.2328-.30949-3.24503 10.66088-6.27702 18.37285-17.60246 18.37285-33.99105 0-26.55978-20.24993-39.839328-40.50053-39.840669zm-183.10551 15.660399c-12.88364-.0918-25.62392 7.168-29.22802 23.73344-8.54131 39.2679 51.33359 52.29156 59.87623 13.02298.3229-1.4845.53593-2.92749.66991-4.3363 7.86738 2.13365 17.23-1.07587 19.50366-11.52708 3.90154-17.93339-20.0369-25.18178-28.396-12.31288-5.997-5.49323-14.23886-8.52121-22.42512-8.58016zm41.6119 45.88456-23.41725 96.94954h45.86582l13.91529 119.67208h60.28622l13.91396-119.67208h45.86447l-23.41591-96.94886h-133.01326zm206.8872 7.56325c-7.237 0-14.47467 4.74763-14.47467 14.24087 0 18.98716 28.94934 18.98716 28.94934 0 0-9.49257-7.23767-14.24087-14.47534-14.24087zm-201.33099 32.15416 45.07934 31.63835-52.96414 4.7416zm121.75749 0 7.88615 36.37995-52.96481-4.7416 45.078-31.63835zm74.71936 6.31053c-4.97875 0-9.95682 3.26579-9.95682 9.79604 0 13.05983 19.91431 13.05983 19.91431 0 0-6.53025-4.97875-9.79672-9.95749-9.79672zm-277.52548 8.49642c-10.53093 0-21.063871 6.90674-21.063871 20.7202 0 18.72791 19.355611 24.75706 31.827251 18.09418.86419 42.25301 57.18858 47.627 72.16903 16.12866h-46.75947l13.13686-54.39104c-11.05078-.16479-22.17658 3.8935-29.6179 12.18158-3.18339-8.48771-11.43664-12.73358-19.6919-12.73358zm141.92972 27.50167 21.35662 28.20306-9.98161 7.55855-11.37635-15.02466-11.37769 15.02466-9.9816-7.55922 21.36063-28.20307zm-147.11814 28.20641c-4.97942 0-9.9575 3.26378-9.9575 9.79403 0 13.06317 19.91365 13.06317 19.91365 0 0-6.52891-4.97875-9.79403-9.95682-9.79403zm94.60552 21.81215c-10.17387.4408-20.0235 7.33949-20.0235 20.6981 0 5.19312 1.48719 9.40816 3.90555 12.64784-5.46309 5.0196-9.07589 12.39661-9.07589 22.14575 0 16.01479 9.73374 25.63866 21.43968 28.88972-1.56758 2.33462-2.51616 5.28959-2.51616 8.86822 0 19.22095 27.34692 20.50114 30.99925 3.84661h-13.43833zm98.6397 56.10265-4.76705 40.99359h-35.00462c7.62888 17.715 30.99322 21.79004 45.86313 12.22713 3.5371 23.92235 41.86512 22.70581 41.86512-3.64764 0-17.37068-16.65252-23.81651-29.01833-19.34356.0388-.69469.0643-1.39808.0643-2.11823 0-14.88868-8.41402-24.25531-19.00324-28.11129zm102.85073 4.3832c-4.78448.059-9.63325 4.00939-8.0027 10.09683 2.74661 10.25224 18.37955 6.06265 15.63293-4.1896-1.11606-4.16682-4.35774-5.94742-7.63023-5.90723zm-262.9878 63.14012c4.52673.50826 7.71795-5.04898 7.71795-11.34363 0-7.57396-4.92716-11.90558-10.57581-13.01762.87087-2.08742 1.36996-4.49507 1.36996-7.22829 0-11.54249-8.79923-17.31239-17.59844-17.31239h.00067c-8.79922 0-17.59845 5.7699-17.59845 17.31172 3.00695 6.62694 5.21019 8.04467 15.30336 18.40087 8.47808 7.38659 15.41217 12.51919 21.38076 13.18934zm250.00769-38.90424c-3.74009.0456-7.50429 2.06464-9.16968 5.47313-8.97943-5.85967-24.36115 1.35187-20.74968 14.83173 4.04891 15.11308 24.83209 11.46343 26.56715-1.35322 8.17172-8.22502 6.43288-6.97611 12.57749-11.81178-1.34852-5.03502-5.26815-7.1881-9.22461-7.13986zm-222.99844 1.24401c-4.9774 0-9.95615 3.26579-9.95615 9.79604 0 13.0605 19.9123 13.0605 19.9123 0 0-6.53159-4.9774-9.79604-9.95482-9.79604z" fill="#93a824"/></svg>