<svg height="512" viewBox="0 0 512 512" width="512" xmlns="http://www.w3.org/2000/svg"><path d="m167.38086.00390625c-.61357-.01184279-1.23977-.0036372-1.87695.02539063-3.39833.15481505-7.13457.91656269-11.21875 2.55664062-16.32336 6.5549621-18.92007 19.4321535-20.32618 26.5253905-1.4061 7.093238-1.4267 13.19321-1.21093 19.933594.27044 8.448209 1.29068 17.937424 2.56445 27.849609-21.75118 14.603116-40.653202 33.019579-55.816406 54.384769-9.898044-1.48106-19.370346-2.69427-27.814453-3.1211-6.722208-.33979-12.815511-.4266-19.927735.85938-7.112223 1.28597-19.936206 3.68963-26.7929685 19.74023-6.8690231 16.07924.2933005 27.02007 4.2929687 33.04688 3.9996688 6.0268 8.2867888 10.36724 13.1914058 14.99023 6.164477 5.81051 13.611261 11.82448 21.544922 17.96094-4.946002 25.65748-5.200835 51.97595-.755859 77.72461-8.083453 5.96821-15.680998 11.82682-21.994141 17.50781-5.0256 4.52237-9.421367 8.77143-13.568359 14.70117-4.1469923 5.92974-11.6445341 16.68291-5.0859375 33.01953v.002.002c6.5539715 16.32056 19.4316085 18.91969 26.5253905 20.32617 7.093783 1.40648 13.193009 1.42674 19.933594 1.21094 8.44846-.27047 17.937281-1.29046 27.849609-2.56445 14.603692 21.7523 33.020249 40.65462 54.386719 55.81836-1.48101 9.89829-2.69432 19.37064-3.12109 27.81445-.33976 6.72206-.42847 12.81388.85742 19.92578 1.28588 7.1119 3.68917 19.93806 19.74023 26.79492 16.07904 6.86885 27.02197-.29527 33.04883-4.29492s10.36717-8.28481 14.99024-13.18945c5.81096-6.16492 11.8239-13.61245 17.96093-21.54688 25.65755 4.94627 51.97577 5.20241 77.72461.75781 5.96797 8.0823 11.82738 15.67951 17.50781 21.99219 4.52205 5.02536 8.77032 9.42131 14.69922 13.56836 5.92891 4.14705 16.68078 11.64733 33.01953 5.08985v-.002h.002c16.32317-6.55307 18.92361-19.43168 20.33008-26.52539 1.40646-7.09371 1.42671-13.19302 1.21093-19.93359-.27043-8.44792-1.29254-17.93598-2.5664-27.84766 21.75203-14.60368 40.65486-33.02048 55.81836-54.38672 9.89853 1.48106 19.37239 2.69443 27.8164 3.1211 6.72224.33966 12.81355.42688 19.92578-.85938 7.11224-1.28625 19.9369-3.69133 26.79297-19.74023 6.86897-16.07919-.29339-27.02191-4.29297-33.04883-3.99957-6.02692-8.28672-10.36709-13.1914-14.99024-6.16479-5.81092-13.61065-11.82613-21.54492-17.96289 4.94574-25.65749 5.20108-51.976.75585-77.72461 8.08252-5.96762 15.68145-11.82337 21.99415-17.5039 5.02562-4.52235 9.42129-8.7735 13.56835-14.70313 4.14707-5.92962 11.64486-16.68207 5.08594-33.01953v-.002c-6.55394-16.32058-19.4316-18.92164-26.52539-20.32813-7.09379-1.40648-13.19301-1.42673-19.93359-1.21093-8.44852.27047-17.93721 1.2924-27.84961 2.5664-14.60324-21.75138-33.01928-40.655019-54.38477-55.818356 1.48097-9.897012 2.69218-19.369157 3.11914-27.8125.33993-6.72207.42843-12.815448-.85742-19.927735-1.28584-7.112286-3.68977-19.936361-19.74023-26.7929684-16.07908-6.8688482-27.02005.2933537-33.04688 4.2929688-6.02683 3.9996146-10.36916 8.2848806-14.99219 13.1894526-5.81101 6.164907-11.82391 13.612546-17.96093 21.546876-25.65678-4.945657-51.97471-5.200444-77.72266-.75586-5.9682-8.083551-11.82667-15.68263-17.50785-21.996094-4.52253-5.025856-8.77298-9.421119-14.70313-13.568359-4.16963-2.9160282-10.72419-7.49032693-19.92773-7.66796875z" fill="#e29ccb"/><path d="m166.36914 32.671875c-.20314.394142-.58835 1.184264-.88672 2.689453-.55921 2.820701-.78662 7.241249-.61328 12.65625.34668 10.830002 2.18984 25.722605 4.71094 42.148438l.49219 3.207031-2.84571 1.560547c-29.28045 16.066026-53.64106 39.791986-70.47656 68.636716l-1.628906 2.78907-3.181641-.5586c-16.337609-2.87541-31.120998-5.00104-41.880859-5.54492-5.379928-.27195-9.774526-.11967-12.585938.38867-1.533069.27719-2.321022.65036-2.708984.84375.1291.41363.404759 1.24382 1.269531 2.54688 1.583836 2.38656 4.525247 5.67082 8.455078 9.375 7.859659 7.40836 19.650813 16.63368 33.052735 26.46875l2.605468 1.91211-.892578 3.10546c-9.191866 32.03952-9.516663 65.97158-.941406 98.18164l.833984 3.13282-2.654296 1.86133c-13.633627 9.54712-25.682891 18.54009-33.75586 25.80468-4.036484 3.6323-7.074576 6.86747-8.728516 9.23243-.887687 1.26929-1.192023 2.09806-1.335937 2.51953.394222.20324 1.1843.58829 2.689453.88671 2.820636.55921 7.241297.78665 12.65625.61329 10.829904-.34672 25.722269-2.18941 42.148438-4.71094l3.208984-.49219 1.560547 2.8457c16.065953 29.28053 39.789763 53.64088 68.634763 70.47657l2.78907 1.6289-.5586 3.18164c-2.87555 16.33907-5.00109 31.12316-5.54492 41.88282-.27191 5.37983-.11962 9.77275.38867 12.58398.27768 1.53581.65278 2.324.8457 2.71094.41456-.12943 1.2442-.40632 2.54493-1.26953 2.38659-1.58384 5.67076-4.52718 9.375-8.45703 7.40845-7.85969 16.6334-19.65047 26.46875-33.05274l1.91211-2.60547 3.10546.89258c32.03942 9.19229 65.97337 9.51774 98.1836.94336l3.13281-.83398 1.85938 2.65429c9.54792 13.63227 18.54197 25.67872 25.80664 33.75196 3.63235 4.03663 6.8674 7.0782 9.23242 8.73242 1.26931.88785 2.09805 1.19001 2.51953 1.33398.20329-.39443.58854-1.18352.88672-2.6875.55922-2.82055.78661-7.24128.61328-12.65625-.34669-10.82993-2.18938-25.72047-4.71094-42.14648l-.49219-3.20899 2.84571-1.56054c29.28016-16.06627 53.63943-39.79195 70.47461-68.63672l1.6289-2.78907 3.18164.5586c16.33966 2.87574 31.1232 5.00126 41.88282 5.54492 5.37982.27184 9.77476.11974 12.58593-.38867 1.53294-.27723 2.32105-.6523 2.70899-.8457-.12911-.4137-.40478-1.24183-1.26953-2.54493-1.58382-2.38664-4.52724-5.67079-8.45703-9.375-7.85958-7.40844-19.64873-16.6342-33.05079-26.46875l-2.60546-1.91211.89257-3.10742c9.19215-32.03976 9.51667-65.97124.94141-98.18164l-.83398-3.13281 2.65429-1.86133c13.63297-9.54685 25.68075-18.54001 33.75391-25.80469 4.03658-3.63234 7.07643-6.86739 8.73047-9.23242.88776-1.26932 1.192-2.09806 1.33593-2.51953-.39423-.20323-1.18429-.5883-2.68945-.88672-2.82063-.55931-7.24129-.78664-12.65625-.61328-10.8299.3467-25.72228 2.18942-42.14844 4.71094l-3.20898.49219-1.56055-2.84571c-16.06618-29.28024-39.79171-53.64117-68.63672-70.47656l-2.78711-1.626953.5586-3.181641c2.87541-16.337513 5.00083-31.121181 5.54492-41.880859.27204-5.37984.11959-9.774613-.38867-12.585938-.27712-1.532792-.65035-2.320992-.84375-2.708984-.41366.129101-1.24381.402815-2.54688 1.267578-2.38658 1.583822-5.67081 4.527241-9.375 8.457031-7.4084 7.859582-16.6336 19.650941-26.46875 33.052735l-1.91211 2.605469-3.10742-.892579c-32.03982-9.191835-65.97132-9.51655-98.18164-.941406l-3.13281.833985-1.85938-2.65625c-9.54675-13.633332-18.54176-25.6805-25.80664-33.753907-3.63243-4.036704-6.86735-7.076451-9.23242-8.730469-1.26937-.887729-2.09808-1.19203-2.51953-1.335937z"/><path d="m178.3171 116.23832c-5.57626 5.6652-10.78568 11.91761-15.57163 18.69508-20.07419 28.4244-33.10644 66.0082-35.76704 107.7183-12.47099 5.35821-25.47883 8.91618-36.947775 9.88912h-17.951072c-27.556877 3.98065-9.610522 9.47807.361396 14.70968h16.311326c11.831035.81235 25.426885 4.45533 38.422915 10.05992 3.06049 40.57973 15.95183 77.11268 35.57025 104.88924 4.78595 6.77746 9.99537 13.03067 15.57005 18.69508v64.64079l14.73567-17.41698v-34.30885c17.74733 13.26996 38.18519 20.95817 60.02105 20.95817 21.81774 0 42.23357-7.6827 59.97145-20.93298v33.45436l14.71048 18.52353v-64.84404c5.60301-5.68488 10.83684-11.96249 15.64483-18.76908 19.6137-27.77105 32.48614-64.29533 35.54506-104.86327 12.94722-5.62269 26.5352-9.2696 38.37412-10.08589l22.24461.00001c9.22683-2.8953 18.70052-5.74572-.25369-13.76484l-23.24489-.94565c-11.47836-.97372-24.49094-4.53641-36.92258-9.91272-2.66059-41.70144-15.67239-79.2766-35.74185-107.69469-4.80798-6.80659-10.04182-13.08419-15.64483-18.76907v-63.780565l-14.71047 18.498028v32.417957c-17.73789-13.249505-38.1537-20.932986-59.97224-20.932986-21.83586 0-42.27293 7.688204-60.02105 20.958166v-47.026978l-14.73409-16.946961zm74.75514-19.161875c21.89095 0 42.46892 9.107455 59.97145 25.262365v70.99252c-2.59763 22.30578-29.39259 46.3142-59.99742 46.29452-32.00285 0-59.77389-26.64777-59.77389-49.78795h-.22199v-67.47547c17.51434-16.1683 38.11987-25.286773 60.02105-25.286773zm-.0496 14.759275c-24.24299 0-45.53255 25.3891-45.53255 58.69233 0 33.30322 21.29035 58.71751 45.53334 58.71751s45.53256-25.41508 45.53256-58.71831c0-33.30321-21.29035-58.6931-45.53334-58.6931zm74.73153 26.6895c1.22797 1.59321 2.43389 3.21948 3.61542 4.89456 16.89092 23.91554 28.65267 55.72315 32.32322 91.38393-20.10017-11.8153-35.71824-28.14338-35.71824-44.96581h-.2204l-.002-51.31268zm-149.43786.0732v54.83051c-2.04427 15.58579-17.05386 30.4899-35.91502 41.47238 3.65872-35.70091 15.44095-67.54474 32.3476-91.48389 1.165-1.64831 2.35676-3.24861 3.56584-4.82058zm5.41094 97.65681c15.67554.008 32.42004 6.8609 50.37833 21.37615l.19679 4.37977c-17.58911 14.43024-34.19823 21.37142-49.91076 21.45014-16.60438.0834-33.13634-7.35208-50.15791-23.63845 16.63901-16.09745 32.94112-23.57391 49.49355-23.56761zm134.3094 0c16.47372.008 34.12896 7.55911 53.13339 23.63845-18.53607 15.88806-35.97485 23.48338-52.44541 23.56761-15.56454.0771-31.05744-6.4563-46.95889-20.68895l.24559-6.17372c15.44411-13.87135 30.62058-20.35047 46.02532-20.34418zm-132.17068 9.44593c-7.51582 0-13.60215 6.1131-13.60215 13.62814 0 7.51424 6.08633 13.60214 13.60215 13.60214 7.51581 0 13.62813-6.0879 13.62813-13.60214 0-7.51583-6.11153-13.62814-13.62813-13.62814zm134.33458 0c-7.51738 0-13.6045 6.1131-13.6045 13.62814 0 7.51424 6.08791 13.60214 13.60372 13.60214 7.51505 0 13.60216-6.0879 13.60216-13.60214 0-7.51583-6.08711-13.62814-13.60215-13.62814zm-67.15588 34.53671c30.60484 0 57.39826 24.01393 59.99744 46.31972v68.23666c-17.50331 16.15648-38.08286 25.26394-59.97224 25.26394-21.90119 0-42.5067-9.11691-60.02105-25.28756v-64.72041h.22041c0-23.1394 27.77105-49.79267 59.77545-49.81157zm-110.34663 4.92055c18.725 10.96751 33.58975 25.79133 35.61905 41.30235v52.07465c-1.21065-1.57195-2.40319-3.17226-3.56741-4.82136-16.44379-23.28423-28.05601-54.04099-32.05321-88.55564zm220.72398.0984c-4.00665 34.47531-15.62359 65.19586-32.05322 88.45726-1.18075 1.67351-2.38746 3.30136-3.61464 4.89615v-48.55999h.22039c0-16.74292 15.48505-32.98992 35.44747-44.79342z" fill="#e29ccb"/></svg>