<svg height="512" viewBox="0 0 512 512" width="512" xmlns="http://www.w3.org/2000/svg"><path d="m167.38086.00390625c-.61357-.01184279-1.23977-.0036372-1.87695.02539063-3.39833.15481505-7.13457.91656269-11.21875 2.55664062-16.32336 6.5549621-18.92007 19.4321535-20.32618 26.5253905-1.4061 7.093238-1.4267 13.19321-1.21093 19.933594.27044 8.448209 1.29068 17.937424 2.56445 27.849609-21.75118 14.603116-40.653202 33.019579-55.816406 54.384769-9.898044-1.48106-19.370346-2.69427-27.814453-3.1211-6.722208-.33979-12.815511-.4266-19.927735.85938-7.112223 1.28597-19.936206 3.68963-26.7929685 19.74023-6.8690231 16.07924.2933005 27.02007 4.2929687 33.04688 3.9996688 6.0268 8.2867888 10.36724 13.1914058 14.99023 6.164477 5.81051 13.611261 11.82448 21.544922 17.96094-4.946002 25.65748-5.200835 51.97595-.755859 77.72461-8.083453 5.96821-15.680998 11.82682-21.994141 17.50781-5.0256 4.52237-9.421367 8.77143-13.568359 14.70117-4.1469923 5.92974-11.6445341 16.68291-5.0859375 33.01953v.002.002c6.5539715 16.32056 19.4316085 18.91969 26.5253905 20.32617 7.093783 1.40648 13.193009 1.42674 19.933594 1.21094 8.44846-.27047 17.937281-1.29046 27.849609-2.56445 14.603692 21.7523 33.020249 40.65462 54.386719 55.81836-1.48101 9.89829-2.69432 19.37064-3.12109 27.81445-.33976 6.72206-.42847 12.81388.85742 19.92578 1.28588 7.1119 3.68917 19.93806 19.74023 26.79492 16.07904 6.86885 27.02197-.29527 33.04883-4.29492s10.36717-8.28481 14.99024-13.18945c5.81096-6.16492 11.8239-13.61245 17.96093-21.54688 25.65755 4.94627 51.97577 5.20241 77.72461.75781 5.96797 8.0823 11.82738 15.67951 17.50781 21.99219 4.52205 5.02536 8.77032 9.42131 14.69922 13.56836 5.92891 4.14705 16.68078 11.64733 33.01953 5.08985v-.002h.002c16.32317-6.55307 18.92361-19.43168 20.33008-26.52539 1.40646-7.09371 1.42671-13.19302 1.21093-19.93359-.27043-8.44792-1.29254-17.93598-2.5664-27.84766 21.75203-14.60368 40.65486-33.02048 55.81836-54.38672 9.89853 1.48106 19.37239 2.69443 27.8164 3.1211 6.72224.33966 12.81355.42688 19.92578-.85938 7.11224-1.28625 19.9369-3.69133 26.79297-19.74023 6.86897-16.07919-.29339-27.02191-4.29297-33.04883-3.99957-6.02692-8.28672-10.36709-13.1914-14.99024-6.16479-5.81092-13.61065-11.82613-21.54492-17.96289 4.94574-25.65749 5.20108-51.976.75585-77.72461 8.08252-5.96762 15.68145-11.82337 21.99415-17.5039 5.02562-4.52235 9.42129-8.7735 13.56835-14.70313 4.14707-5.92962 11.64486-16.68207 5.08594-33.01953v-.002c-6.55394-16.32058-19.4316-18.92164-26.52539-20.32813-7.09379-1.40648-13.19301-1.42673-19.93359-1.21093-8.44852.27047-17.93721 1.2924-27.84961 2.5664-14.60324-21.75138-33.01928-40.655019-54.38477-55.818356 1.48097-9.897012 2.69218-19.369157 3.11914-27.8125.33993-6.72207.42843-12.815448-.85742-19.927735-1.28584-7.112286-3.68977-19.936361-19.74023-26.7929684-16.07908-6.8688482-27.02005.2933537-33.04688 4.2929688-6.02683 3.9996146-10.36916 8.2848806-14.99219 13.1894526-5.81101 6.164907-11.82391 13.612546-17.96093 21.546876-25.65678-4.945657-51.97471-5.200444-77.72266-.75586-5.9682-8.083551-11.82667-15.68263-17.50785-21.996094-4.52253-5.025856-8.77298-9.421119-14.70313-13.568359-4.16963-2.9160282-10.72419-7.49032693-19.92773-7.66796875z" fill="#fbd937"/><path d="m166.36914 32.671875c-.20314.394142-.58835 1.184264-.88672 2.689453-.55921 2.820701-.78662 7.241249-.61328 12.65625.34668 10.830002 2.18984 25.722605 4.71094 42.148438l.49219 3.207031-2.84571 1.560547c-29.28045 16.066026-53.64106 39.791986-70.47656 68.636716l-1.628906 2.78907-3.181641-.5586c-16.337609-2.87541-31.120998-5.00104-41.880859-5.54492-5.379928-.27195-9.774526-.11967-12.585938.38867-1.533069.27719-2.321022.65036-2.708984.84375.1291.41363.404759 1.24382 1.269531 2.54688 1.583836 2.38656 4.525247 5.67082 8.455078 9.375 7.859659 7.40836 19.650813 16.63368 33.052735 26.46875l2.605468 1.91211-.892578 3.10546c-9.191866 32.03952-9.516663 65.97158-.941406 98.18164l.833984 3.13282-2.654296 1.86133c-13.633627 9.54712-25.682891 18.54009-33.75586 25.80468-4.036484 3.6323-7.074576 6.86747-8.728516 9.23243-.887687 1.26929-1.192023 2.09806-1.335937 2.51953.394222.20324 1.1843.58829 2.689453.88671 2.820636.55921 7.241297.78665 12.65625.61329 10.829904-.34672 25.722269-2.18941 42.148438-4.71094l3.208984-.49219 1.560547 2.8457c16.065953 29.28053 39.789763 53.64088 68.634763 70.47657l2.78907 1.6289-.5586 3.18164c-2.87555 16.33907-5.00109 31.12316-5.54492 41.88282-.27191 5.37983-.11962 9.77275.38867 12.58398.27768 1.53581.65278 2.324.8457 2.71094.41456-.12943 1.2442-.40632 2.54493-1.26953 2.38659-1.58384 5.67076-4.52718 9.375-8.45703 7.40845-7.85969 16.6334-19.65047 26.46875-33.05274l1.91211-2.60547 3.10546.89258c32.03942 9.19229 65.97337 9.51774 98.1836.94336l3.13281-.83398 1.85938 2.65429c9.54792 13.63227 18.54197 25.67872 25.80664 33.75196 3.63235 4.03663 6.8674 7.0782 9.23242 8.73242 1.26931.88785 2.09805 1.19001 2.51953 1.33398.20329-.39443.58854-1.18352.88672-2.6875.55922-2.82055.78661-7.24128.61328-12.65625-.34669-10.82993-2.18938-25.72047-4.71094-42.14648l-.49219-3.20899 2.84571-1.56054c29.28016-16.06627 53.63943-39.79195 70.47461-68.63672l1.6289-2.78907 3.18164.5586c16.33966 2.87574 31.1232 5.00126 41.88282 5.54492 5.37982.27184 9.77476.11974 12.58593-.38867 1.53294-.27723 2.32105-.6523 2.70899-.8457-.12911-.4137-.40478-1.24183-1.26953-2.54493-1.58382-2.38664-4.52724-5.67079-8.45703-9.375-7.85958-7.40844-19.64873-16.6342-33.05079-26.46875l-2.60546-1.91211.89257-3.10742c9.19215-32.03976 9.51667-65.97124.94141-98.18164l-.83398-3.13281 2.65429-1.86133c13.63297-9.54685 25.68075-18.54001 33.75391-25.80469 4.03658-3.63234 7.07643-6.86739 8.73047-9.23242.88776-1.26932 1.192-2.09806 1.33593-2.51953-.39423-.20323-1.18429-.5883-2.68945-.88672-2.82063-.55931-7.24129-.78664-12.65625-.61328-10.8299.3467-25.72228 2.18942-42.14844 4.71094l-3.20898.49219-1.56055-2.84571c-16.06618-29.28024-39.79171-53.64117-68.63672-70.47656l-2.78711-1.626953.5586-3.181641c2.87541-16.337513 5.00083-31.121181 5.54492-41.880859.27204-5.37984.11959-9.774613-.38867-12.585938-.27712-1.532792-.65035-2.320992-.84375-2.708984-.41366.129101-1.24381.402815-2.54688 1.267578-2.38658 1.583822-5.67081 4.527241-9.375 8.457031-7.4084 7.859582-16.6336 19.650941-26.46875 33.052735l-1.91211 2.605469-3.10742-.892579c-32.03982-9.191835-65.97132-9.51655-98.18164-.941406l-3.13281.833985-1.85938-2.65625c-9.54675-13.633332-18.54176-25.6805-25.80664-33.753907-3.63243-4.036704-6.86735-7.076451-9.23242-8.730469-1.26937-.887729-2.09808-1.19203-2.51953-1.335937z"/><path d="m108.02631 165.57628c2.98572 12.43952 7.44345 24.31267 13.18765 35.41734l-50.002658 19.85163c-2.382848 11.92662-3.607232 24.02757-3.675487 36.13712 1.170186 13.10427 2.331904 25.2878 3.493262 37.3708.000228.00093-.000228.003 0 .004l73.449603-59.84292c8.11442 8.96394 17.2465 16.98609 27.20443 23.89886l-76.394361 98.78988c13.950361 22.94243 32.596591 42.64815 54.689491 57.83471l56.49717-138.41844c10.95418 4.08205 22.47949 6.98183 34.42239 8.5409l-36.44326 155.44923c1.15968.33133 2.31439.64963 3.46593.95669.0273.007.0547.0128.082.0201 1.02032.2716 2.03644.53253 3.05046.78539.61337.15234 1.22779.29851 1.84229.44463.3706.0886.7418.17806 1.11157.26422.97202.22498 1.94463.44474 2.91926.65419 12.46218 2.67828 25.13169 4.08608 37.8136 4.22581 17.73857.12356 34.60977-2.33301 50.94841-6.37789l-25.56622-156.19668c12.07682-1.43117 23.7417-4.22752 34.83056-8.23658l54.51274 134.05231c20.98571-15.35819 38.67009-34.9141 51.86682-57.52493.75412.13273 1.48665.25677 2.23409.38633l-73.47696-94.89208c9.79541-6.67801 18.79832-14.43145 26.84728-23.08614l67.52182 51.9543c.002-.0128.004-.0256.006-.0383v-58.66929c-.53237-3.40446-1.15253-6.79989-1.87145-10.17911l-41.50236-17.0909c5.85705-11.1122 10.42451-23.0041 13.50653-35.47747l2.46754.64257c.52824-17.36057-12.17367-29.02273-23.91911-41.15129h-.00001l-54.7387 7.3692c.0301-.88563 0-1.55445 0-2.44911 0-5.42969-.58352-11.19571-1.63092-16.31464l28.99571-11.97222c-4.30971-3.022707-8.75238-5.874614-13.32068-8.540906 1.52177-8.646341 2.83211-16.848125 3.82491-24.328918l-28.06636 21.590069c-3.4989-6.127203-7.69157-11.359755-12.64645-16.314642l-3.29645-2.30333c-.813 1.096924-1.62353 2.187393-2.44547 3.307392-33.03541-9.477466-68.02229-9.812872-101.23351-.971262-3.00248-4.287719-5.94129-8.396946-8.80696-12.312973l5.23898 11.461981c-5.22201 5.063992-9.38913 10.790113-13.0528 17.131012l-29.62257-23.080673c.83951 7.381476 1.96379 15.454283 3.26548 23.93531-4.87332 2.673964-9.61225 5.557548-14.20994 8.63202l31.18241 12.94894c-1.16327 5.37701-1.63091 11.40713-1.63091 17.13101 0 .89542-.0301 1.56197 0 2.44911l-59.29068-7.92316c-11.04731 11.21651-26.538494-.90651-26.539326 40.8399zm209.90364-100.305996c-1.73343 2.273655-3.49452 4.616692-5.28089 7.022969zm-132.49428 89.791586c1.88866 5.70961 4.26768 11.26979 7.34368 16.31647l-58.57089 24.23598c-5.26941-10.00609-9.39058-20.70909-12.1927-31.93865zm148.88911.81637 66.26809 8.83611c-2.89993 11.25816-7.13339 21.97907-12.51342 31.98968l-61.50472-25.32569c2.93456-4.81192 5.89375-10.08245 7.75005-15.5001zm-129.30899 31.40838c4.22126 4.09106 8.41053 7.53628 13.46099 10.60552l-38.22907 49.43958c-9.03694-6.19567-17.32918-13.3979-24.71524-21.44612zm108.50431.002 52.28776 40.23356c-7.30329 7.71412-15.45093 14.6216-24.29976 20.56596l-39.81625-51.4186c4.2965-2.74643 8.15404-5.87605 11.82825-9.38096zm-28.14472 17.13284 24.28519 59.71709c-10.00307 3.56061-20.5186 6.04302-31.40655 7.31089l-8.37691-62.54159c5.24552-.70948 10.6326-2.79349 15.49827-4.48639zm-49.76577.81455c4.91652 1.55757 10.21973 3.106 15.50193 3.67184l-8.34957 62.32292c-10.7465-1.39201-21.12099-3.9708-30.98562-7.60062z" fill="#fbd937"/></svg>