<svg height="512" viewBox="0 0 512 512" width="512" xmlns="http://www.w3.org/2000/svg"><path d="m167.38086.00390625c-.61357-.01184279-1.23977-.0036372-1.87695.02539063-3.39833.15481505-7.13457.91656269-11.21875 2.55664062-16.32336 6.5549621-18.92007 19.4321535-20.32618 26.5253905-1.4061 7.093238-1.4267 13.19321-1.21093 19.933594.27044 8.448209 1.29068 17.937424 2.56445 27.849609-21.75118 14.603116-40.653202 33.019579-55.816406 54.384769-9.898044-1.48106-19.370346-2.69427-27.814453-3.1211-6.722208-.33979-12.815511-.4266-19.927735.85938-7.112223 1.28597-19.936206 3.68963-26.7929685 19.74023-6.8690231 16.07924.2933005 27.02007 4.2929687 33.04688 3.9996688 6.0268 8.2867888 10.36724 13.1914058 14.99023 6.164477 5.81051 13.611261 11.82448 21.544922 17.96094-4.946002 25.65748-5.200835 51.97595-.755859 77.72461-8.083453 5.96821-15.680998 11.82682-21.994141 17.50781-5.0256 4.52237-9.421367 8.77143-13.568359 14.70117-4.1469923 5.92974-11.6445341 16.68291-5.0859375 33.01953v.002.002c6.5539715 16.32056 19.4316085 18.91969 26.5253905 20.32617 7.093783 1.40648 13.193009 1.42674 19.933594 1.21094 8.44846-.27047 17.937281-1.29046 27.849609-2.56445 14.603692 21.7523 33.020249 40.65462 54.386719 55.81836-1.48101 9.89829-2.69432 19.37064-3.12109 27.81445-.33976 6.72206-.42847 12.81388.85742 19.92578 1.28588 7.1119 3.68917 19.93806 19.74023 26.79492 16.07904 6.86885 27.02197-.29527 33.04883-4.29492s10.36717-8.28481 14.99024-13.18945c5.81096-6.16492 11.8239-13.61245 17.96093-21.54688 25.65755 4.94627 51.97577 5.20241 77.72461.75781 5.96797 8.0823 11.82738 15.67951 17.50781 21.99219 4.52205 5.02536 8.77032 9.42131 14.69922 13.56836 5.92891 4.14705 16.68078 11.64733 33.01953 5.08985v-.002h.002c16.32317-6.55307 18.92361-19.43168 20.33008-26.52539 1.40646-7.09371 1.42671-13.19302 1.21093-19.93359-.27043-8.44792-1.29254-17.93598-2.5664-27.84766 21.75203-14.60368 40.65486-33.02048 55.81836-54.38672 9.89853 1.48106 19.37239 2.69443 27.8164 3.1211 6.72224.33966 12.81355.42688 19.92578-.85938 7.11224-1.28625 19.9369-3.69133 26.79297-19.74023 6.86897-16.07919-.29339-27.02191-4.29297-33.04883-3.99957-6.02692-8.28672-10.36709-13.1914-14.99024-6.16479-5.81092-13.61065-11.82613-21.54492-17.96289 4.94574-25.65749 5.20108-51.976.75585-77.72461 8.08252-5.96762 15.68145-11.82337 21.99415-17.5039 5.02562-4.52235 9.42129-8.7735 13.56835-14.70313 4.14707-5.92962 11.64486-16.68207 5.08594-33.01953v-.002c-6.55394-16.32058-19.4316-18.92164-26.52539-20.32813-7.09379-1.40648-13.19301-1.42673-19.93359-1.21093-8.44852.27047-17.93721 1.2924-27.84961 2.5664-14.60324-21.75138-33.01928-40.655019-54.38477-55.818356 1.48097-9.897012 2.69218-19.369157 3.11914-27.8125.33993-6.72207.42843-12.815448-.85742-19.927735-1.28584-7.112286-3.68977-19.936361-19.74023-26.7929684-16.07908-6.8688482-27.02005.2933537-33.04688 4.2929688-6.02683 3.9996146-10.36916 8.2848806-14.99219 13.1894526-5.81101 6.164907-11.82391 13.612546-17.96093 21.546876-25.65678-4.945657-51.97471-5.200444-77.72266-.75586-5.9682-8.083551-11.82667-15.68263-17.50785-21.996094-4.52253-5.025856-8.77298-9.421119-14.70313-13.568359-4.16963-2.9160282-10.72419-7.49032693-19.92773-7.66796875z" fill="#f7ec6d"/><path d="m166.36914 32.671875c-.20314.394142-.58835 1.184264-.88672 2.689453-.55921 2.820701-.78662 7.241249-.61328 12.65625.34668 10.830002 2.18984 25.722605 4.71094 42.148438l.49219 3.207031-2.84571 1.560547c-29.28045 16.066026-53.64106 39.791986-70.47656 68.636716l-1.628906 2.78907-3.181641-.5586c-16.337609-2.87541-31.120998-5.00104-41.880859-5.54492-5.379928-.27195-9.774526-.11967-12.585938.38867-1.533069.27719-2.321022.65036-2.708984.84375.1291.41363.404759 1.24382 1.269531 2.54688 1.583836 2.38656 4.525247 5.67082 8.455078 9.375 7.859659 7.40836 19.650813 16.63368 33.052735 26.46875l2.605468 1.91211-.892578 3.10546c-9.191866 32.03952-9.516663 65.97158-.941406 98.18164l.833984 3.13282-2.654296 1.86133c-13.633627 9.54712-25.682891 18.54009-33.75586 25.80468-4.036484 3.6323-7.074576 6.86747-8.728516 9.23243-.887687 1.26929-1.192023 2.09806-1.335937 2.51953.394222.20324 1.1843.58829 2.689453.88671 2.820636.55921 7.241297.78665 12.65625.61329 10.829904-.34672 25.722269-2.18941 42.148438-4.71094l3.208984-.49219 1.560547 2.8457c16.065953 29.28053 39.789763 53.64088 68.634763 70.47657l2.78907 1.6289-.5586 3.18164c-2.87555 16.33907-5.00109 31.12316-5.54492 41.88282-.27191 5.37983-.11962 9.77275.38867 12.58398.27768 1.53581.65278 2.324.8457 2.71094.41456-.12943 1.2442-.40632 2.54493-1.26953 2.38659-1.58384 5.67076-4.52718 9.375-8.45703 7.40845-7.85969 16.6334-19.65047 26.46875-33.05274l1.91211-2.60547 3.10546.89258c32.03942 9.19229 65.97337 9.51774 98.1836.94336l3.13281-.83398 1.85938 2.65429c9.54792 13.63227 18.54197 25.67872 25.80664 33.75196 3.63235 4.03663 6.8674 7.0782 9.23242 8.73242 1.26931.88785 2.09805 1.19001 2.51953 1.33398.20329-.39443.58854-1.18352.88672-2.6875.55922-2.82055.78661-7.24128.61328-12.65625-.34669-10.82993-2.18938-25.72047-4.71094-42.14648l-.49219-3.20899 2.84571-1.56054c29.28016-16.06627 53.63943-39.79195 70.47461-68.63672l1.6289-2.78907 3.18164.5586c16.33966 2.87574 31.1232 5.00126 41.88282 5.54492 5.37982.27184 9.77476.11974 12.58593-.38867 1.53294-.27723 2.32105-.6523 2.70899-.8457-.12911-.4137-.40478-1.24183-1.26953-2.54493-1.58382-2.38664-4.52724-5.67079-8.45703-9.375-7.85958-7.40844-19.64873-16.6342-33.05079-26.46875l-2.60546-1.91211.89257-3.10742c9.19215-32.03976 9.51667-65.97124.94141-98.18164l-.83398-3.13281 2.65429-1.86133c13.63297-9.54685 25.68075-18.54001 33.75391-25.80469 4.03658-3.63234 7.07643-6.86739 8.73047-9.23242.88776-1.26932 1.192-2.09806 1.33593-2.51953-.39423-.20323-1.18429-.5883-2.68945-.88672-2.82063-.55931-7.24129-.78664-12.65625-.61328-10.8299.3467-25.72228 2.18942-42.14844 4.71094l-3.20898.49219-1.56055-2.84571c-16.06618-29.28024-39.79171-53.64117-68.63672-70.47656l-2.78711-1.626953.5586-3.181641c2.87541-16.337513 5.00083-31.121181 5.54492-41.880859.27204-5.37984.11959-9.774613-.38867-12.585938-.27712-1.532792-.65035-2.320992-.84375-2.708984-.41366.129101-1.24381.402815-2.54688 1.267578-2.38658 1.583822-5.67081 4.527241-9.375 8.457031-7.4084 7.859582-16.6336 19.650941-26.46875 33.052735l-1.91211 2.605469-3.10742-.892579c-32.03982-9.191835-65.97132-9.51655-98.18164-.941406l-3.13281.833985-1.85938-2.65625c-9.54675-13.633332-18.54176-25.6805-25.80664-33.753907-3.63243-4.036704-6.86735-7.076451-9.23242-8.730469-1.26937-.887729-2.09808-1.19203-2.51953-1.335937z"/><path d="m163.55733 67.293609c.47729 4.689922 1.09265 9.720005 1.81448 15.002131l41.74705 22.54122-17.78573 43.0752c-20.97602 12.9925-37.77885 32.08976-47.91027 54.80208l-28.11551-12.45197 17.64603-27.61856-22.31485-17.31885c-2.57057 3.41097-5.02408 6.9169-7.35871 10.51015l12.551 9.59762-19.522397 30.55603 42.475677 18.8097c-3.88558 11.97286-5.99519 24.74248-5.99519 37.99785 0 2.23713.0638 4.45915.18216 6.66722l-17.89893 4.996-46.683456-19.68157c-.302637 5.17292-.386957 10.3569-.252895 15.53622l44.566571 18.22787 21.66582-6.04649c1.71278 10.63224 4.78802 20.81169 9.04231 30.35443l-46.415891 13.96049 15.316921 30.6303-18.550258 5.68691c2.489922 4.21952 5.144842 8.32698 7.951152 12.31933l29.911056-8.28659-16.19586-32.3935 33.96569-10.21482c11.00925 18.95057 26.92336 34.70962 45.99498 45.53694l3.3566 23.4909-33.98691 7.1571 35.621 50.69209c.15405-.20366.31062-.41419.46511-.61897l6.02703-8.09616-21.038-33.20169 27.42049-5.77414-3.83232-26.82274c14.41889 5.91449 30.19601 9.18732 46.7289 9.18732 10.469 0 20.63544-1.31448 30.34558-3.77573l55.52364 19.7187 17.5293 17.31356c12.56279 6.81881 11.94621.42808 10.137-7.17656l-16.59201-16.91917 25.17275-22.77643-31.56231-26.02516c13.47881-14.56555 23.49061-32.37849 28.7168-52.12457l8.22703 12.02221 37.66892-44.85961 25.98677 20.72507c.61596-7.49598-5.13346-16.00668-5.43688-23.51929l-20.54989-18.85921-37.22856 44.26716-5.31963-7.7796c.48768-4.44797.74454-8.96187.74454-13.53782 0-22.24884-5.9193-43.13289-16.26307-61.16689l14.83589-19.12802-11.37142-32.70299h20.81871l3.87955-17.2112c-5.03798-4.71046-10.34495-9.13804-15.89522-13.26547l-3.61781 17.54721h-48.6212l-8.97156 17.19683c-17.33394-9.29439-37.13556-14.57415-58.15515-14.57415-4.11455 0-8.18121.20875-12.19199.60305l-22.90023-20.30407 4.26561-10.329771zm50.28181 55.141631 11.72864 10.39874c-6.36964 1.51494-12.54929 3.52579-18.4949 5.98635zm115.27749 17.36307h21.90987l10.54552 30.32259-7.78137 10.03621c-8.37228-11.44437-18.66243-21.39893-30.40217-29.38176zm-74.8904 2.52895.002.004c60.95312 0 110.50432 49.52906 110.50432 110.45657 0 60.92958-49.55298 110.4548-110.50608 110.45481-13.18965 0-25.84383-2.32375-37.57873-6.57526-.9477-.3438-1.8908-.69592-2.82605-1.06463l-.0831-.0319c-.83563-.32997-1.66692-.66932-2.49357-1.01866-2.02407-.85293-4.01885-1.75818-5.97928-2.72525l-.005-.0319c-4.97923-2.46956-9.74583-5.30132-14.26643-8.46401l.0106.0725c-12.73379-8.87311-23.50376-20.35511-31.53224-33.68449l-.0831-.27412c-2.00401-3.34118-3.83389-6.79646-5.48233-10.35276l-.0549.0159c-4.34144-9.394-7.40274-19.50404-8.95919-30.10861l.0195-.007c-.63365-4.29233-1.02424-8.66272-1.14598-13.101l-.0106.004c-.0277-1.03071-.046-2.06254-.046-3.10017 0-11.40701 1.7249-22.40342 4.92702-32.7472l.0301.0124c1.28873-4.14913 2.82319-8.18918 4.57332-12.11418l-.046-.0195c7.53526-16.94378 19.20891-31.62411 33.74816-42.77101l.0513.0195c4.01701-3.08522 8.24966-5.90682 12.6748-8.42687l.0141-.0336c2.86386-1.62285 5.80697-3.12153 8.82302-4.48843.0228-.0104.0462-.0201.069-.0319 13.92221-6.33369 29.37979-9.86642 45.65189-9.86642zm0 12.93653c-28.45385.0005-54.02557 12.12204-71.84682 31.48449l9.26337 18.83976 44.95157-38.93338 39.99979 34.857-41.78067-17.86001-27.2684 27.71583 23.94894 8.22526 5.97397 36.57246 68.87576 53.94966-77.59266-37.57165-46.74659 5.29841 51.08471 40.94593-43.56685 7.04391c17.20943 15.23585 39.85681 24.48126 64.70388 24.48126 9.27226 0 18.24059-1.28739 26.73255-3.69262l-71.76371-15.72367 70.35422 4.55387-27.10747-34.65894 51.38004 36.02952c13.30241-7.84863 24.57095-18.76165 32.8374-31.77629l-84.28111-68.16482 69.55663-13.79425-46.63872-54.96125 70.09248 49.78664c-14.01445-36.66238-49.49635-62.64639-91.16054-62.64712zm-80.83254 42.82761c-10.56947 15.59048-16.74056 34.41085-16.74056 54.69597 0 3.80118.22245 7.54643.64373 11.23347l58.92444-9.29874-2.6492-25.05248-35.90573-9.15195zm176.2799 34.33707-61.24116 10.33507 51.495 56.74743c7.57192-13.86756 11.87366-29.78465 11.87366-46.7236 0-6.98393-.73707-13.7924-2.1275-20.35714zm-189.15807 47.64853c4.06405 14.00591 11.18157 26.70195 20.58527 37.32936l18.25085-6.80694zm174.86865 65.45725 21.11228 17.40728-16.85551 15.25149-35.57856-12.63588c11.46373-5.08438 22.01079-11.86367 31.32179-20.02289z" fill="#f7ec6d"/></svg>