<svg height="500" viewBox="0 0 500 500" width="500" xmlns="http://www.w3.org/2000/svg" xmlns:xlink="http://www.w3.org/1999/xlink"><radialGradient id="a" cx="1362.7291" cy="216.11429" gradientTransform="matrix(1.0000001 -.0000059 .0000001 1.0000003 -112.72927 33.893757)" gradientUnits="userSpaceOnUse" r="250"><stop offset="0" stop-color="#ff851a"/><stop offset=".42441937" stop-color="#f87000"/><stop offset=".86367416" stop-color="#f26900"/><stop offset="1" stop-color="#e55f00"/></radialGradient><g transform="translate(-1000)"><path d="m1500 250a250 250 0 0 1 -250 250 250 250 0 0 1 -250-250 250 250 0 0 1 250-250 250 250 0 0 1 250 250z" fill="url(#a)" stroke-linecap="round" stroke-linejoin="round" stroke-width="1.002"/><path d="m1309.2298 33.82789c128.5196 30.706851 207.8974 167.48127 169.5927 291.56949-31.3771 95.69524-112.8693 162.03793-212.5543 174.60263 153.1796-8.09118 266.0956-163.0043 218.7012-309.92978-36.4562-114.666588-154.6038-191.5214848-270.6514-169.822657-18.8526 4.215647-38.4387 10.498641-55.8829 18.694487-112.5353 47.459213-168.47522 196.206-99.9632 307.85319 57.6978 93.63045 168.5136 141.8489 267.9993 100.77239-134.92 68.97589-303.283-51.46877-311.488-201.30723-4.4167-117.68321 76.8182-219.674136 190.654-246.26040176-89.0147 9.18391126-152.6601 79.39239576-187.7408 157.21169176-38.45522 102.70317 5.2337 231.75078 109.038 294.08388 114.5107 66.1048 260.3537 29.37245 323.6836-83.60152 42.2104-77.69758 34.3514-177.62383-23.1776-249.88923-57.5404-72.257811-157.5429-102.460489-246.4118-71.877168-81.7429 30.682061-131.1298 101.133078-134.0478 190.176958.6692 92.68536 61.7912 168.55972 147.5399 198.52472 128.5549 37.82014 266.7725-70.33038 233.6823-209.88949-14.7104-64.39775-57.8855-122.14991-125.7378-141.121386-71.391-15.467036-138.9716 1.205-181.2869 64.641366-18.8995 29.2286-28.9384 85.21395-26.105 97.65297m0 0c13.5324-50.18833 30.6277-97.66354 72.2125-128.94941 53.182-38.308183 124.4576-37.093813 181.7444-.48035 50.1457 36.48017 75.4845 90.37713 72.3557 150.91678-6.6674 64.04407-38.4038 109.83277-91.6401 141.00844-63.9019 34.56125-135.3795 4.83213-189.1258-35.28385-78.8706-65.48566-79.7477-186.67235-8.9744-256.76104 63.7369-55.941605 167.0207-64.891564 238.7167-6.65053 78.8163 58.35315 90.3045 169.04089 40.972 246.62443-35.2274 56.41892-88.4571 87.60135-152.5581 93.63158-81.9488 2.18264-160.666-41.91503-196.8695-120.9383-36.2055-79.02511-22.5771-164.33167 26.8727-227.66064 49.4316-63.30896 138.3491-86.746364 220.4504-67.54202" fill="#c50"/></g><path d="m358.01953 97.179687c-1.81997.04019-3.655.174567-5.49609.40625l-220.17383 27.707033c-14.72875 1.85345-27.43883 9.71194-35.677735 19.79101v.002c-8.476604 10.3723-13.347547 22.97262-15.996094 36.26953v.002c-3.345407 16.79931-2.853092 34.31201.04492 50.0586-.658611.40934-1.327609.76906-1.980469 1.20507-17.338835 11.58038-20.656005 31.9645-16.695312 50.18555 3.959641 18.21622 18.672991 37.0354 42.12891 41.71484l-5.707035-1.13476 30.392575 71.18945-32.400388 41.72656 30.808598 4.29688c7.21158 1.00582 14.72076.78809 22.46289-.32617s15.21352-2.02873 23.68164-8.85157l2.9082-2.34375 1.73633-3.30664c4.63066-8.81986 5.50082-15.81846 6.94141-19.91015l1.45507-4.13477 182.67774-22.98828.0762.19922c1.60652 4.15978 3.59475 7.83361 6.07422 11.83594 1.23973 2.00116 2.55129 3.96499 4.16992 5.98633 1.61864 2.02133 2.71115 4.16803 8.06445 7.05273l1.80665.97266 1.98046.54296c15.55931 4.25961 31.36711 2.56232 45.09571-3.89062l26.58203-12.49414-40.35938-31.33594 11.80664-76.49805-5.25195 2.51758c21.57018-10.34354 31.1634-32.22408 30.48633-50.85547-.67718-18.63442-8.94181-37.56117-28.60938-44.48437-.73526-.25884-1.47676-.42463-2.21484-.65039-1.09119-15.98121-4.954-33.0819-12.36133-48.53711-5.86057-12.22728-13.70088-23.22938-24.48242-31.17773h-.002c-9.16929-6.75814-21.23285-11.0235-33.97266-10.742193z" fill="#994100"/><path d="m134.59651 143.15118c-10.51183 1.3228-18.04301 6.05258-23.98759 13.32489-5.94373 7.27298-10.06284 17.26433-12.28018 28.39638-2.80152 14.06812-2.41812 29.8649.13303 43.55921a44.109522 44.109522 0 0 1 1.86343-.37972c6.36752-1.11581 12.57954-.7334 18.36841.97666 11.57851 3.42003 21.20339 11.52031 29.14193 21.40152 13.90809 17.30998 23.08937 40.38693 26.83444 59.20569 85.85843-21.85003 93.92999-22.86576 182.52582-22.96902-1.03503-19.16057 2.14264-43.792 11.32836-64.00887 5.24224-11.53911 12.5609-21.77156 22.93098-27.95437 5.68909-3.39053 12.27296-5.34823 19.45326-5.59013-.92124-13.89942-4.46354-29.29869-10.66319-42.2341-4.90633-10.23639-11.37235-18.89493-18.93269-24.46856-7.561-5.57276-16.02921-8.28918-26.54104-6.96637zm-30.38201 98.18205c-.5252.06-1.05447.13701-1.58784.23088-4.26991.75788-8.83076 2.64739-13.88994 6.02621-16.772893 11.20239-13.824356 52.75237 18.96941 59.28292l3.58855.71488 34.62178 81.09824 258.72089-32.55741 13.44976-87.14755 3.29879-1.58158c30.15411-14.4519 22.71645-55.43697 3.69027-62.1344-11.47475-4.03961-19.55167-2.80111-26.51925 1.35295-6.96759 4.15407-12.91933 11.90023-17.40706 21.77642-8.97509 19.75547-11.62319 47.50278-9.5067 64.3217l.9808 7.79405-7.85611.006c-99.39481.0822-97.68692-.13273-194.0032 24.41334l-7.61271 1.94039-.98081-7.79404c-2.11648-16.81893-11.5566-43.04506-25.1463-59.9602-6.79557-8.45709-14.48015-14.48726-22.2596-16.78478-3.40387-1.00604-6.87586-1.41795-10.55073-.99822zm41.09199 161.40873-15.5526 20.02946c9.48098 1.32234 26.16378-.37009 32.36523-5.36665 2.04975-3.90409 3.87889-11.77682 5.90132-17.52113zm240.691-30.28852c1.72101 4.45624 7.15421 13.94836 10.05754 15.51286 10.61692 2.90655 23.41698 1.53732 32.68578-2.81935l-20.03013-15.55173z" fill="#ffa348" stroke-width="36"/><path d="m238.13162 199.01949 5.22422-9.01299-21.16136-8.05761 8.32932-5.31742c-12.28515-.0342-20.49212-10.39233-29.67873-18.2712-.92162 31.7051 19.66007 40.90899 37.28655 40.65922zm31.22141-22.39716 4.60196 6.55622-13.07331 9.36796 6.92204 6.33276c15.31876-5.19219 31.06914-19.70197 23.13452-47.62752-6.18034 9.83162-10.95574 21.5673-21.58521 25.37058zm21.11324 49.11918-7.48207-19.53952-14.79694 26.9943-23.56284-16.58177-5.56858 18.29644-36.1049-26.75511 19.04758 48.28047 7.60593-11.74156 20.57258 27.88485 11.82299-24.5796 18.72061 22.01715 11.01307-27.34208 8.91237 13.71578 8.95314-62.32199z" fill="#994100"/></svg>