<svg height="500" viewBox="0 0 500 500" width="500" xmlns="http://www.w3.org/2000/svg" xmlns:xlink="http://www.w3.org/1999/xlink"><filter id="a" color-interpolation-filters="sRGB" height="1.053638" width="1.054367" x="-.027184" y="-.026819"><feGaussianBlur stdDeviation=".65405503"/></filter><filter id="b" color-interpolation-filters="sRGB" height="1.183102" width="1.03673" x="-.018365" y="-.091551"><feGaussianBlur stdDeviation="3.37422"/></filter><filter id="c" color-interpolation-filters="sRGB" height="1.062852" width="1.048507" x="-.024254" y="-.031426"><feGaussianBlur stdDeviation="4.457029"/></filter><filter id="d" color-interpolation-filters="sRGB" height="1.086755" width="1.107451" x="-.053725" y="-.043377"><feGaussianBlur stdDeviation="1.672662"/></filter><filter id="e" color-interpolation-filters="sRGB" height="1.10307" width="1.103581" x="-.051791" y="-.051535"><feGaussianBlur stdDeviation="2.7328038"/></filter><g transform="translate(-1000 -500)"><circle cx="1250" cy="750" fill="#8f29a3" r="250"/><path d="m1250.0521 500.09326-.061 248.75004-15.9199-248.2399a249.99917 250.18666 0 0 0 -31.6776 4.06945l45.0428 231.17052c-.102.0363-.2268.0547-.3789.0547l2.377 12.94521-.25-.53361-.5352-1.34279-3.3574-10.61339c-.1814.0698-.3456.12506-.5117.12506l-.1211.0782-83.1951-220.24831a249.99917 250.18666 0 0 0 -14.7401 6.13348l96.9 214.60543-.2187.11532 2.3047 4.43886 2.3437 5.21678.055.0488.416.7486.7461 1.26658v.0314l-.7461-1.29782-.4707-.79746-5.5273-9.21c-.1841.12151-.3808.23754-.5664.39678l-123.4077-200.53639a249.99917 250.18666 0 0 0 -34.1776 25.40763l164.5483 186.40079-.3984-.58052.832 1.02616v.0508l-.3262-.32448-.094-.12903v-.006-.002l-176.1809-175.46484a249.99917 250.18666 0 0 0 -21.0273 24.05115l186.5306 143.42536-.1425.18569 10.4687 8.26398-2.0957-1.07698-9.4082-5.66242c-.1395.18156-.2273.33335-.3066.47301l-208.0031-109.74966a249.99917 250.18666 0 0 0 -7 14.40723l214.5266 96.34337c-.074.17741-.1655.3791-.2578.59419l12.1758 4.73596-.037-.0253.5254.23653-.4863-.21109.3574.18179.2129.0802-.2129-.0508v-.0295l-12.8066-4.08117c-.056.14944-.1255.33501-.1758.5082l-224.9661-68.33223a249.99917 250.18666 0 0 0 -8.7656 41.69908l246.1613 30.77687h-1.2363l-246.3644-14.82161a249.99917 250.18666 0 0 0 -.4219 14.51082 249.99917 250.18666 0 0 0 .6113 17.47203l234.4934-16.18786h-.027l.3066-.0234-.2773.0234 12.9687-.73492-7.6699 1.8549-.3028.0508-4.789.9382.07.23845-228.2004 55.91086a249.99917 250.18666 0 0 0 4.2871 15.37279l224.173-70.26921c.093.36314.1859.69573.2793.95971l11.9648-4.46623-6.7285 3.52803-218.2141 100.03556a249.99917 250.18666 0 0 0 21.0155 36.99246l204.0072-139.70972-2.9414 2.38851-191.599 150.2058a249.99917 250.18666 0 0 0 21.2792 23.80097l164.7143-167.43742c.2793.26396.5666.50585.8359.80333l7.6309-8.62753v-.0314l.7578-.86587.1855-.23653.7754-.84633.02-.0645.057-.0272-.023.15832-.1035.11531.051-.18179-.068.18179-1.3203 1.73762.6133-1.0457-.1856.20916-.7578.89715-2.5996 3.67852-4.2753 5.57643.287.1818-133.9214 192.92518a249.99917 250.18666 0 0 0 13.3768 8.68037l121.3629-200.99764c.1115.0698.2562.1641.4043.23263l6.9082-11.76855-.2793.71929-100.1481 226.51466a249.99917 250.18666 0 0 0 40.1346 13.79743l59.6931-236.78211-1.5742 9.22563.2364.0566-42.7675 230.89101a249.99917 250.18666 0 0 0 31.6386 3.76263l12.9316-234.50119c.2415.0238.455.0234.6602.0234h.031v-12.36276l.055-.87175.3809 3.35211.6328 9.85892c.1939 0 .3385-.0234.5058-.0234l27.248 233.23258a249.99917 250.18666 0 0 0 15.7831-2.3455l-42.1484-231.0161c.254-.028.4739-.0916.707-.11531l-2.0644-10.71502-.055-.13878-.3203-1.79235.018.0295.3575 1.90182 74.3923 234.18055a249.99917 250.18666 0 0 0 39.205-16.19959l-111.1503-215.75097 4.1406 6.7179.2696-.18569 120.6715 201.44522a249.99917 250.18666 0 0 0 26.2108-18.10533l-145.5071-184.32505c.254-.18717.4204-.39029.6562-.60397l-8.457-9.554 3.3672 3.03156 5.8437 5.83834.2872-.30686 174.8256 156.82795a249.99917 250.18666 0 0 0 10.2715-12.18293l-184.478-145.35845c.1296-.15783.305-.33279.4082-.48083l-9.3632-7.21437 211.5852 126.78601a249.99917 250.18666 0 0 0 18.7245-38.19257l-229.6555-89.16613 11.0274 3.36579.012-.18569 223.9289 70.91228a249.99917 250.18666 0 0 0 7.6836-30.99187l-231.1887-41.80463c0-.16199.037-.30149.037-.44955l-7.3671-.90693-4.5508-.79941 12.0312.70755c.03-.32965.029-.62841.029-.96361l235.009 1.78454a249.99917 250.18666 0 0 0 .011-2.19892 249.99917 250.18666 0 0 0 -.3809-13.81303l-234.6691 13.37131v-.33226l-11.7754.81114-2.207.14075 2.1641-.14075h.043l242.6422-45.60435a249.99917 250.18666 0 0 0 -11.2772-41.04821l-231.0032 85.65376-.2598.0684 10.5078-4.79069c-.1716-.35894-.395-.80876-.6601-1.20402l208.1651-109.51534a249.99917 250.18666 0 0 0 -7.877-13.90491l-200.7337 122.63837-.2109-.32833-5.6211 3.9033-4.707 2.86542 9.6699-7.59747-.1446-.20719 183.392-147.45376a249.99917 250.18666 0 0 0 -29.3651-30.85701l-161.2514 182.96656-2.3184 2.37091 151.2905-195.53064a249.99917 250.18666 0 0 0 -26.4154-17.96062l-119.2496 202.94829-.094-.0664-7.0644 11.68841 5.539-12.45265c-.2748-.15364-.5655-.24794-.8711-.35962l83.404-220.18189a249.99917 250.18666 0 0 0 -15.121-5.19332l-69.2811 225.07807c-.1088-.0378-.2229-.0651-.3808-.11531l-1.8809 7.53882-1.1289 3.69807 2.1055-11.46558c-.2011-.0197-.4082-.0561-.6133-.0743l40.1268-232.08917a249.99917 250.18666 0 0 0 -42.4354-3.64138zm-1.9453 235.66215 1.0117 8.77021v.043l.8711 4.45646v.46128l.029-.16807.023.62741v.1036l-.057-.1036v-.43977l-.066.30686-.2383-.49451-.5625-4.74964zm-9.3652 5.00568 7.0859 6.37391-.025-.0197zm25.7675 6.02013-11.8261 2.9006h-.057zm-12.1504.11531-1.6269 2.78332-.3496.40069.1113-.44954-.092.20719-.02.18179-.051.10553v-.0253l.051-.0802v-.16221l.02-.0197v-.10556l.012-.0234.082-.12118v-.0234l.033-.0272.061-.1505v.0197l-.061.13096-.033.0508zm-6.5292.23849 3.3242 2.54682.3633.56682-.4493-.16807.2012.13878h-.022l-.2188-.13878h.037zm5.0331.24627-.2968 1.58908.2968-.84047-.3339 1.37603-.1016.1505.1387-.68606.2617-1.56758zm-.582.38505-.086 1.71808-.057.19351-.1172-.46715zm3.1445.7447-2.2754 1.58908h-.023l-.4121.27757-.2871.11728.2129-.27557.074-.0215.8867-.71342zm-4.0429.57856.1348.14075v.0469l-.084-.1251zm3.8633.31665h.029l-.1738.0802zm-3.5254.18179.1835.3577v.0392l-.1835-.35376zm.416.0938.02.26385v.0392l.039.0958.047.11728-.047.0215-.039-.1192.039-.0197-.039-.0605v-.0352l-.057-.26192zm2.2207.0644-.07.0272-1.0156.30686.1562-.0605zm-5.6387.0665 2.3692.40655.3457.21498.029.0606-.3124.0644zm2.1641.31271h.053l.094.0314zm.7265.19155h.02v.0196zm-.164.0606h.02l.074.0802zm.2148.1818h.024l-.024.0314zm-.3359.16808h.057l.2461.0352-.8125.32836zm-.3887.0352h.2168l-.9316.47886.2637-.0527-.025.0272-.2383.0253-2.0253.39287v.0234l-5.2422.93428 5.2422-.95774zm1.7774.0234.5078.043.7519.2228-.8457-.0841zm-.2188.16418.035.0178.1113.22088.3282.16611 1.4394 1.4034-1.3496-1.00858-.2344-.2971-.1855-.26385-.018-.0333-.092-.18766h-.035zm-1.0625.0802-.25.27364h-.029l-2.7812 1.26461 2.2988-1.41316zm1.5703.0997.1485.0253.031.0314zm.2207.0253 1.9356.60398-1.9063-.57074zm-1.1796.17201.031.1251.022-.0978-.022.13092v.006l.076.23066.125 1.89594-.2324-1.35256.031-.77402-.088.50819v-.0919l-.031-.18569.031.14272v-.26385zm.7226.0919.061.0664.088.14661-.037-.0314zm-1.1406.1818-.2442.52578-3.9492 12.85138 3.9219-12.85138h.027l.084-.28732.01-.0117zm-.088.10552-.065.11339.041-.0978zm1.4648.0802.033.0234.1152.18962-.092-.0919zm-.4375.21306.023.0295.029.22669zm-1.7304.26581v.0295l.051-.0295zm2.2929 1.35257 4.8828 10.7893-4.8828-10.73457z" fill="#aa40bf"/></g><g transform="translate(0 24.248986)"><path d="m52.941406 314.46641c12.769435-9.16361 29.120371-16.2045 48.658204-22.13477 39.07566-11.86055 91.01209-18.7754 148.40039-18.7754s109.32473 6.91485 148.40039 18.7754c19.53783 5.93027 35.88878 12.97116 48.6582 22.13477 12.76944 9.16359 23.41602 22.0491 23.41602 38.54687 0 0-4.75736 9-9 9s-9-9-9-9c.00013-33.94166-90.65073-61.45688-202.47461-61.45704-111.82388.00016-202.474738 27.51538-202.474609 61.45704 0 0-4.757359 9-9 9s-9-9-9-9c-.000001-16.49776 10.646581-29.38327 23.416015-38.54687z" fill="#6a1f7a" filter="url(#b)"/><path d="m250.00098 39.630461c-51.65592 0-104.69296 24.442965-143.17187 61.615229-21.536496 20.80517-34.565056 50.05657-43.349616 78.68359-12.68004 41.3216-15.31309 98.24566-15.83594 138.71485 1.71293-1.4609 3.47437-2.86846 5.29883-4.17773 12.76943-9.1636 29.12038-16.2045 48.658206-22.13477 39.07562-11.86053 91.01215-18.77539 148.40039-18.77539s109.32477 6.91485 148.40039 18.77539c19.53781 5.93027 35.88879 12.97117 48.6582 22.13477 1.82446 1.30927 3.58395 2.71683 5.29688 4.17773-.52285-40.46919-3.15393-97.39325-15.83399-138.71484-8.78455-28.62702-21.81313-57.87842-43.34961-78.6836-38.47891-37.172264-91.51595-61.615229-143.17187-61.615229z" fill="#eed9f2" opacity=".25" stroke-width="35.9999"/><path d="m248.91016 84.742187c-12.29579.000001-22.60106 7.108-28.73438 15.667973-6.13332 8.55997-9.20703 18.99135-9.20703 30.16015 0 3.75276.43187 7.39165 1.11523 10.94336l-17.94726 5.42383-63.7832-8.58984v54.54687l65.58203 13.07813 10.58203-2.50782c2.02236 8.08391 3.85404 17.76595 3.94726 21.44336.2157 8.50914-5.23439 21.28053-6.78906 39.32617-1.24176 14.41354-.6714 28.10214-.35742 40.90625.62063 25.30903 4.14648 73.22852 4.14648 73.22852l1.2168 16.69336h27.47266 23.9082 28.45703l1.16016-16.75586s3.36668-48.27316 4.17578-73.44922c.39452-12.2758 1.65515-26.03149.21484-41.05664-1.84727-19.27049-8.52588-31.71771-8.24609-38.90039.12015-3.08451 2.57727-13.499 5.29101-21.60156.0326-.0973.0319-.0771.0645-.17383l12.01758 2.84766 66.44921-13.25391-.002-54.49219-64.65234 8.71094-19.17578-5.79102c.63954-3.43369 1.03711-6.9528 1.03711-10.57617 0-11.16925-3.07551-21.60025-9.20899-30.16015-6.13348-8.55991-16.43854-15.667972-28.73437-15.667973z" fill="#6a1f7a"/><path d="m275.864 304.28003c-.78054 24.28729-4.1407 72.7818-4.1407 72.7818h-18.39278l-5.22283-111.544-5.22282 111.544h-17.46716s-3.51267-48.20983-4.10493-72.36203c-.31804-12.96966-.81649-25.99386.29709-38.91954 1.19856-13.91214 7.20345-27.36806 6.8496-41.32726-.36735-14.49141-9.27534-42.48756-9.27534-42.48756l-23.57862 5.58616-47.25136-9.4229v-19.1944l47.25136 6.36249 41.31574-12.48459c-4.83463-5.07716-7.95321-13.1497-7.95321-22.24197 0-15.36663 8.92673-27.82898 19.94249-27.82898 11.01534 0 19.94292 12.46235 19.94292 27.82941 0 8.91689-3.01036 16.84188-7.68631 21.934l42.35812 12.79213 48.11967-6.48268.00062 19.1405-48.11967 9.59699-23.69839-5.61353s-11.41931 27.62997-11.98928 42.26215c-.54682 14.03792 6.97298 27.33315 8.31353 41.31761 1.23296 12.86213.1273 25.84778-.28774 38.7622z" fill="#eed9f2" stroke-width="36"/><path d="m250 39.630461c-51.65597 0-104.69293 24.442935-143.17188 61.615229-21.536505 20.8052-34.565038 50.05655-43.349604 78.6836-16.997043 55.3898-15.953125 138.88342-15.953125 173.08398.0034 33.9409 90.653239 61.45493 202.474609 61.45508 111.82137-.00015 202.47119-27.51418 202.47461-61.45508 0-34.20055 1.04393-117.69418-15.95313-173.08398-8.78456-28.62705-21.8131-57.8784-43.3496-78.6836-38.47895-37.172294-91.51591-61.615229-143.17188-61.615229z" fill="#eed9f2" opacity=".25" stroke-width="35.9999"/><path d="m250 21.632414c-59.87439 0-115.35904 27.718395-155.677734 66.66797-24.990863 24.142256-38.810794 56.236496-48.050782 86.347656-18.545782 60.43682-16.746093 144.53051-16.746093 178.36524 0 0 4.757359 9 9 9s9-9 9-9c0-34.20052-1.043901-117.69424 15.953125-173.08398 8.784557-28.62702 21.813126-57.87843 43.349604-78.68361 38.47892-37.172254 91.51596-61.615229 143.17188-61.615229s104.69296 24.442975 143.17188 61.615229c21.53647 20.80517 34.56505 50.05658 43.3496 78.6836 16.99705 55.38974 15.95313 138.88347 15.95313 173.08398 0 0 4.75736 9 9 9s9-9 9-9c0-33.83471 1.7997-117.9284-16.74609-178.36523-9.24-30.11118-23.05992-62.20542-48.05079-86.347656-40.31869-38.949575-95.80334-66.66797-155.67773-66.66797z" fill="#6a1f7a" filter="url(#c)"/><path d="m38.525391 344.01327c-4.242641 0-9 9-9 9-.000001 16.49776 10.646581 29.38132 23.416015 38.54492 12.769435 9.16361 29.120371 16.20449 48.658204 22.13477 39.07566 11.86055 91.01209 18.77539 148.40039 18.77539s109.32473-6.91484 148.40039-18.77539c19.53783-5.93028 35.88878-12.97116 48.6582-22.13477 12.76944-9.1636 23.41602-22.04716 23.41602-38.54492 0 0-4.75736-9-9-9s-9 9-9 9c-.003 33.9409-90.65324 61.45493-202.47461 61.45508-111.82137-.00015-202.47119-27.51418-202.474609-61.45508 0 0-4.757359-9-9-9z" fill="#6a1f7a" filter="url(#b)"/><path d="m261.74285 74.454056c-8.22854 2.320396-16.95979 6.646333-24.07708 12.943417 2.01083 1.137708 3.99521 2.407708 5.92666 3.81 6.64105-6.217709 15.24-11.20775 26.00855-13.562542-2.93688-1.775354-5.82084-2.878667-7.85813-3.190875zm13.04396 7.104062c-11.69458 1.658938-20.66396 6.447896-27.43729 12.665605 2.72521 2.407708 5.23875 5.132917 7.43479 8.149167 5.60917-4.7625 13.89063-8.440209 26.19375-10.451042-.82021-4.074584-3.25437-7.593542-6.19125-10.36373zm-40.69292 9.331855c-5.50333 5.926667-9.54616 13.308537-10.86114 22.066247.55827 3.25438 1.55045 6.00605 2.83368 8.36084 1.7833-7.11729 5.22288-15.13417 10.72621-22.489587 1.05834-1.42875 2.19604-2.804583 3.41313-4.153958-1.98438-1.455209-4.04813-2.69875-6.11188-3.783542zm9.86896 6.746875c-1.21708 1.296458-2.32833 2.645832-3.36021 4.048122-6.11187 8.17563-9.49854 17.43605-10.74208 24.73855 3.88937 3.88937 8.73125 5.82083 12.83229 6.56166.66146-9.97479 2.16958-19.63208 8.67833-27.22562-2.14312-3.01625-4.65666-5.74146-7.40833-8.122712z" fill="#eed9f2" filter="url(#a)" opacity=".5" transform="matrix(2.2427336 0 0 2.5989493 -397.10954 -114.42266)"/></g><path d="m827.27347 433.59763c-6.68449.0439-12.53774 5.59984-13.28794 12.1884-2.71184 2.3695-7.16917 3.76539-9.85929 6.79132-5.57542 5.06154-9.71234 11.63656-12.14616 18.73046 1.5931 4.82553 9.08171 4.1595 13.27459 5.60277 2.19771.0228 4.3888.0723 2.34206 2.57441-4.2991 10.19501-6.68652 22.48797-1.64122 32.85705 3.74395 7.96868 12.93489 11.8836 21.40529 11.235 4.10792-1.15874 7.6783 1.44884 11.70003 1.95627 8.41161 1.80524 18.23216-.4235 23.43725-7.70571 6.12012-8.27117 5.20459-20.12616-.475-28.37942-2.06924-4.1816-5.43842-9.07506-3.67586-13.88109 1.89675-3.58138 10.19234-3.45957 5.71391-8.27827-2.04014-2.53734-2.54132-9.84079-6.6626-5.96644-6.4674 2.9435-11.90905 9.12313-11.80484 16.53993-.0343 7.90553 4.35282 14.75498 7.92503 21.47916 2.29329 5.11287.7557 12.85896-5.35982 14.33376-2.95663 1.05935-3.58076.11459-1.80633-2.30322 4.41168-10.70245 1.54822-22.84378-2.95617-33.02124-.52824-2.70633-5.44724-6.67274-.52684-7.11804 7.18567-3.15809 10.05537-12.81133 5.88855-19.40855-1.62791-2.84976-4.38656-4.92778-7.45339-6.01952-.67143-6.92074-7.05-12.55013-14.03125-12.20703z" fill="#eed9f2" filter="url(#d)" transform="matrix(-1 0 0 1 892.14243 -67.365691)"/><path d="m64.682356 370.22846c3.2834.0735 6.45635 1.81261 8.21819 4.86398.76223 1.3196 1.38818 3.97571 1.89989 7.10502 8.10173 1.87429 16.89422 10.74025 20.79266 21.02223-6.56681 2.4606-13.12314 3.15826-18.77451 2.54656 13.2082 21.98598 11.00924 46.47422-10.62625 46.47755-2.01747 0-3.86236-.20263-5.53891-.59856-12.87352 5.51799-22.44382 3.11662-27.34721-2.99236-4.99113-6.21787-5.10981-15.55635-.73796-22.81079 4.00244-6.64118 5.92727-11.86768 5.79633-15.58039-.13026-3.71296-1.89232-6.26619-6.65209-8.65665l1.86494-3.71652c5.58524 2.80487 8.76643 7.04824 8.94881 12.22664.18259 5.17862-2.20765 10.94022-6.38822 17.87711-3.52434 5.848-3.28185 13.4487.41753 18.05749 3.21548 4.00644 9.07082 6.29135 18.55895 3.24287-11.83449-7.85722-9.21669-29.98484 4.43265-49.03124-1.80281.58008-3.33796.93971-4.37008.93971-5.3699-.00064-9.72818-4.35182-9.72818-9.7215 0-5.28573 4.22422-9.58121 9.47789-9.71437-.7482-3.94809 1.01364-8.11376 4.69007-10.23655 1.59838-.92256 3.34597-1.33964 5.06594-1.30112z" fill="#6a1f7a"/><path d="m794.17127 92.332066c-14.1982.938373-27.88679 6.844366-39.28552 15.123644-.3788 5.86766 10.24974 5.06758 14.00015 8.3642 13.7715 6.10985 26.32589 14.75357 37.64474 24.66059-6.92223 8.83576-12.67716 18.65536-20.49558 26.74452-9.13579 6.54094-20.69593 8.45845-30.08973 14.6124-2.12865 1.47816-8.52276 3.69003-2.63319 3.8168 8.2583 1.85509 18.08701 2.01221 24.24314 8.60504 5.06139 7.43486 5.30561 16.81737 7.22341 25.32672 5.39131-8.52101 9.40809-17.75001 13.07924-27.11311 2.14477-6.70421 7.21674-11.59754 12.8599-15.47192 6.13038-4.67929 12.54195-8.97571 18.67023-13.65717 12.91119 14.5196 23.1448 31.40244 29.56802 49.7578 1.00528 3.02591 1.97384 6.45549 3.78981 1.72146 8.17531-12.17775 14.69084-26.33166 14.77494-41.24699-.72852-9.26401-8.83036-15.44762-15.26309-21.17758-3.23094-3.84953-11.8053-6.46874-12.11579-10.30989 4.63398-4.67801 8.49185-13.31238 13.2618-15.7851 3.25324 2.78497 7.69136 9.27172 9.93776 9.87968-.32858-8.44614.90373-18.2422-5.67187-24.79366-4.41303-3.91492-9.2878-9.32073-15.92307-7.75112-7.54995 1.97742-12.9575 8.21044-19.29362 12.42858-3.18009 2.61316-6.45961 6.51472-8.24524.70794-6.11973-8.76039-12.76982-17.900388-22.33487-23.119873-2.3924-1.161009-5.07885-1.402541-7.70157-1.322961z" fill="#eed9f2" filter="url(#e)" transform="matrix(-.32315546 .94634589 .94634589 .32315546 526.52078 -732.10025)"/><path d="m360.72273 51.49269c1.52216-4.53 5.08933-10.56513 9.47696-15.9682 4.13702-5.09426 8.96769-9.71093 12.85173-12.70724a152.86703 152.86703 0 0 0 .68427 11.13583c-2.83072 3.59319-5.29751 7.67886-7.57693 12.01825 2.74997-2.11263 5.36998-4.49161 8.24889-6.34321a141.11622 141.11622 0 0 0 1.36523 8.08834c-3.44905 2.95723-6.64144 6.45878-9.70155 10.24059 3.5902-1.77191 7.07748-3.93085 10.81429-5.14927 2.15828 9.11462 5.31728 18.55504 9.71312 28.77962 9.79483-3.68372 19.57215-5.69677 33.20459-10.83391 6.02068-2.26883 11.07697-8.67627 16.23939-14.58582 2.58153-2.95468 5.08389-5.80609 7.29558-7.92341.11477-.1102.2207-.19015.33389-.29559-.13099.99008-.27797 1.73255-.38244 2.83472-.50388 5.30114-.82705 11.49347 1.52839 16.29013 2.35448 4.79738 7.45105 8.3284 11.95235 11.17255.93343.58921 1.60851.9263 2.47034 1.42664-.14904.0249-.27334.0582-.42598.0811-3.03027.45566-6.82083.6942-10.74042.93116-7.84089.47473-16.00217.55757-21.46779 3.92861-12.42135 7.66067-19.98151 14.15269-28.87903 19.64281 5.40035 9.73069 10.93658 18.00388 16.82693 25.28566-3.24854 2.21143-7.09037 3.65031-10.68786 5.40626 4.86403-.1081 9.58704-.49164 14.03512-1.41159a141.09947 141.09947 0 0 0 5.56525 6.02762c-3.22539 1.14523-6.70966 1.76308-10.06377 2.64557 4.82629.85152 9.56739 1.39887 14.14022 1.35665a152.85698 152.85698 0 0 0 8.39286 7.35358c-4.74602 1.23986-11.35283 2.23726-17.91451 2.3944-9.27687.22195-18.55138-1.39801-22.04044-4.05474-3.64912-2.77796-7.94779-10.84451-11.0959-20.22456-1.78035-5.30407-3.28749-11.02464-4.46189-16.4776-11.26355 4.28569-24.69196 8.37023-24.69196 8.37023l-.0829.0249-.0816.0295a18.284877 18.284877 0 0 1 -1.60922.50335c-2.37476 3.22212-1.05758 5.23068 1.39691 9.7829-7.59791-2.67314-10.8138-7.33452-11.72921-12.47705a8.7811097 8.7811097 0 0 1 -.98153-1.56081c-.89465-1.82249-1.19659-3.98319-.50718-6.17211.68958-2.18959 2.37051-4.40813 5.44299-6.34763l.073-.0459.0703-.0504s11.44557-8.12593 21.72468-14.41593c-3.59511-4.26411-7.1993-8.95473-10.30738-13.6073-5.49535-8.22701-9.24781-16.56302-9.21449-21.14864.008-1.09651.28843-2.43915.79626-3.94912z" fill="#6a1f7a"/></svg>