<svg height="500" viewBox="0 0 500 500" width="500" xmlns="http://www.w3.org/2000/svg" xmlns:xlink="http://www.w3.org/1999/xlink"><filter id="a" color-interpolation-filters="sRGB" height="1.0375" width="1.0375" x="-.01875" y="-.01875"><feGaussianBlur stdDeviation="3.7632912"/></filter><g transform="translate(-1000 -500)"><circle cx="1250" cy="750" fill="#8f29a3" r="250"/><path d="m1250.0521 500.09326-.061 248.75004-15.9199-248.2399a249.99917 250.18666 0 0 0 -31.6776 4.06945l45.0428 231.17052c-.102.0363-.2268.0547-.3789.0547l2.377 12.94521-.25-.53361-.5352-1.34279-3.3574-10.61339c-.1814.0698-.3456.12506-.5117.12506l-.1211.0782-83.1951-220.24831a249.99917 250.18666 0 0 0 -14.7401 6.13348l96.9 214.60543-.2187.11532 2.3047 4.43886 2.3437 5.21678.055.0488.416.7486.7461 1.26658v.0314l-.7461-1.29782-.4707-.79746-5.5273-9.21c-.1841.12151-.3808.23754-.5664.39678l-123.4077-200.53639a249.99917 250.18666 0 0 0 -34.1776 25.40763l164.5483 186.40079-.3984-.58052.832 1.02616v.0508l-.3262-.32448-.094-.12903v-.006-.002l-176.1809-175.46484a249.99917 250.18666 0 0 0 -21.0273 24.05115l186.5306 143.42536-.1425.18569 10.4687 8.26398-2.0957-1.07698-9.4082-5.66242c-.1395.18156-.2273.33335-.3066.47301l-208.0031-109.74966a249.99917 250.18666 0 0 0 -7 14.40723l214.5266 96.34337c-.074.17741-.1655.3791-.2578.59419l12.1758 4.73596-.037-.0253.5254.23653-.4863-.21109.3574.18179.2129.0802-.2129-.0508v-.0295l-12.8066-4.08117c-.056.14944-.1255.33501-.1758.5082l-224.9661-68.33223a249.99917 250.18666 0 0 0 -8.7656 41.69908l246.1613 30.77687h-1.2363l-246.3644-14.82161a249.99917 250.18666 0 0 0 -.4219 14.51082 249.99917 250.18666 0 0 0 .6113 17.47203l234.4934-16.18786h-.027l.3066-.0234-.2773.0234 12.9687-.73492-7.6699 1.8549-.3028.0508-4.789.9382.07.23845-228.2004 55.91086a249.99917 250.18666 0 0 0 4.2871 15.37279l224.173-70.26921c.093.36314.1859.69573.2793.95971l11.9648-4.46623-6.7285 3.52803-218.2141 100.03556a249.99917 250.18666 0 0 0 21.0155 36.99246l204.0072-139.70972-2.9414 2.38851-191.599 150.2058a249.99917 250.18666 0 0 0 21.2792 23.80097l164.7143-167.43742c.2793.26396.5666.50585.8359.80333l7.6309-8.62753v-.0314l.7578-.86587.1855-.23653.7754-.84633.02-.0645.057-.0272-.023.15832-.1035.11531.051-.18179-.068.18179-1.3203 1.73762.6133-1.0457-.1856.20916-.7578.89715-2.5996 3.67852-4.2753 5.57643.287.1818-133.9214 192.92518a249.99917 250.18666 0 0 0 13.3768 8.68037l121.3629-200.99764c.1115.0698.2562.1641.4043.23263l6.9082-11.76855-.2793.71929-100.1481 226.51466a249.99917 250.18666 0 0 0 40.1346 13.79743l59.6931-236.78211-1.5742 9.22563.2364.0566-42.7675 230.89101a249.99917 250.18666 0 0 0 31.6386 3.76263l12.9316-234.50119c.2415.0238.455.0234.6602.0234h.031v-12.36276l.055-.87175.3809 3.35211.6328 9.85892c.1939 0 .3385-.0234.5058-.0234l27.248 233.23258a249.99917 250.18666 0 0 0 15.7831-2.3455l-42.1484-231.0161c.254-.028.4739-.0916.707-.11531l-2.0644-10.71502-.055-.13878-.3203-1.79235.018.0295.3575 1.90182 74.3923 234.18055a249.99917 250.18666 0 0 0 39.205-16.19959l-111.1503-215.75097 4.1406 6.7179.2696-.18569 120.6715 201.44522a249.99917 250.18666 0 0 0 26.2108-18.10533l-145.5071-184.32505c.254-.18717.4204-.39029.6562-.60397l-8.457-9.554 3.3672 3.03156 5.8437 5.83834.2872-.30686 174.8256 156.82795a249.99917 250.18666 0 0 0 10.2715-12.18293l-184.478-145.35845c.1296-.15783.305-.33279.4082-.48083l-9.3632-7.21437 211.5852 126.78601a249.99917 250.18666 0 0 0 18.7245-38.19257l-229.6555-89.16613 11.0274 3.36579.012-.18569 223.9289 70.91228a249.99917 250.18666 0 0 0 7.6836-30.99187l-231.1887-41.80463c0-.16199.037-.30149.037-.44955l-7.3671-.90693-4.5508-.79941 12.0312.70755c.03-.32965.029-.62841.029-.96361l235.009 1.78454a249.99917 250.18666 0 0 0 .011-2.19892 249.99917 250.18666 0 0 0 -.3809-13.81303l-234.6691 13.37131v-.33226l-11.7754.81114-2.207.14075 2.1641-.14075h.043l242.6422-45.60435a249.99917 250.18666 0 0 0 -11.2772-41.04821l-231.0032 85.65376-.2598.0684 10.5078-4.79069c-.1716-.35894-.395-.80876-.6601-1.20402l208.1651-109.51534a249.99917 250.18666 0 0 0 -7.877-13.90491l-200.7337 122.63837-.2109-.32833-5.6211 3.9033-4.707 2.86542 9.6699-7.59747-.1446-.20719 183.392-147.45376a249.99917 250.18666 0 0 0 -29.3651-30.85701l-161.2514 182.96656-2.3184 2.37091 151.2905-195.53064a249.99917 250.18666 0 0 0 -26.4154-17.96062l-119.2496 202.94829-.094-.0664-7.0644 11.68841 5.539-12.45265c-.2748-.15364-.5655-.24794-.8711-.35962l83.404-220.18189a249.99917 250.18666 0 0 0 -15.121-5.19332l-69.2811 225.07807c-.1088-.0378-.2229-.0651-.3808-.11531l-1.8809 7.53882-1.1289 3.69807 2.1055-11.46558c-.2011-.0197-.4082-.0561-.6133-.0743l40.1268-232.08917a249.99917 250.18666 0 0 0 -42.4354-3.64138zm-1.9453 235.66215 1.0117 8.77021v.043l.8711 4.45646v.46128l.029-.16807.023.62741v.1036l-.057-.1036v-.43977l-.066.30686-.2383-.49451-.5625-4.74964zm-9.3652 5.00568 7.0859 6.37391-.025-.0197zm25.7675 6.02013-11.8261 2.9006h-.057zm-12.1504.11531-1.6269 2.78332-.3496.40069.1113-.44954-.092.20719-.02.18179-.051.10553v-.0253l.051-.0802v-.16221l.02-.0197v-.10556l.012-.0234.082-.12118v-.0234l.033-.0272.061-.1505v.0197l-.061.13096-.033.0508zm-6.5292.23849 3.3242 2.54682.3633.56682-.4493-.16807.2012.13878h-.022l-.2188-.13878h.037zm5.0331.24627-.2968 1.58908.2968-.84047-.3339 1.37603-.1016.1505.1387-.68606.2617-1.56758zm-.582.38505-.086 1.71808-.057.19351-.1172-.46715zm3.1445.7447-2.2754 1.58908h-.023l-.4121.27757-.2871.11728.2129-.27557.074-.0215.8867-.71342zm-4.0429.57856.1348.14075v.0469l-.084-.1251zm3.8633.31665h.029l-.1738.0802zm-3.5254.18179.1835.3577v.0392l-.1835-.35376zm.416.0938.02.26385v.0392l.039.0958.047.11728-.047.0215-.039-.1192.039-.0197-.039-.0605v-.0352l-.057-.26192zm2.2207.0644-.07.0272-1.0156.30686.1562-.0605zm-5.6387.0665 2.3692.40655.3457.21498.029.0606-.3124.0644zm2.1641.31271h.053l.094.0314zm.7265.19155h.02v.0196zm-.164.0606h.02l.074.0802zm.2148.1818h.024l-.024.0314zm-.3359.16808h.057l.2461.0352-.8125.32836zm-.3887.0352h.2168l-.9316.47886.2637-.0527-.025.0272-.2383.0253-2.0253.39287v.0234l-5.2422.93428 5.2422-.95774zm1.7774.0234.5078.043.7519.2228-.8457-.0841zm-.2188.16418.035.0178.1113.22088.3282.16611 1.4394 1.4034-1.3496-1.00858-.2344-.2971-.1855-.26385-.018-.0333-.092-.18766h-.035zm-1.0625.0802-.25.27364h-.029l-2.7812 1.26461 2.2988-1.41316zm1.5703.0997.1485.0253.031.0314zm.2207.0253 1.9356.60398-1.9063-.57074zm-1.1796.17201.031.1251.022-.0978-.022.13092v.006l.076.23066.125 1.89594-.2324-1.35256.031-.77402-.088.50819v-.0919l-.031-.18569.031.14272v-.26385zm.7226.0919.061.0664.088.14661-.037-.0314zm-1.1406.1818-.2442.52578-3.9492 12.85138 3.9219-12.85138h.027l.084-.28732.01-.0117zm-.088.10552-.065.11339.041-.0978zm1.4648.0802.033.0234.1152.18962-.092-.0919zm-.4375.21306.023.0295.029.22669zm-1.7304.26581v.0295l.051-.0295zm2.2929 1.35257 4.8828 10.7893-4.8828-10.73457z" fill="#aa40bf"/></g><path d="m283.60938 9.1464844c-4.62345.1157015-9.05866 3.0566666-10.84219 7.3446176-1.11423 2.472891-1.13506 5.236479-1.62281 7.864452-7.29813 49.112602-14.59625 98.225206-21.89438 147.337806-8.52464-50.66165-17.03503-101.326122-25.57759-151.9845-.84937-4.475702-4.39344-8.286761-8.80327-9.439329-4.39028-1.2389304-9.3903.251054-12.37125 3.708543-2.44695 2.700285-3.49117 6.517278-2.92012 10.100408 8.34349 49.638549 16.69769 99.277108 25.04528 148.915658-23.62166-45.27755-47.22741-90.563957-70.87124-135.829595-2.30171-4.116411-7.12225-6.654299-11.82201-6.125146-4.98365.395663-9.43514 4.205605-10.65181 9.044839-.90565 3.299186-.24989 6.8955 1.50089 9.80475 24.19096 46.386633 48.38363 92.772382 72.5805 139.155932-37.33979-36.63042-74.67234-73.26885-112.02575-109.884982-3.424534-3.21762-8.758826-4.185138-13.071381-2.288432-4.480476 1.800555-7.552598 6.492015-7.480182 11.309351-.02887 3.602078 1.705804 7.082857 4.402597 9.431069 36.339256 35.657634 72.679946 71.313794 109.024316 106.966194-45.99741-22.88354-91.989834-45.77813-137.995691-68.64409-4.291992-2.02328-9.726235-1.25671-13.241018 1.94958-3.56448 3.0628-5.020167 8.27734-3.595569 12.75066 1.038846 3.61474 3.926338 6.48334 7.346342 7.93025 45.522006 22.64907 91.044016 45.29813 136.566016 67.9472-50.81601-7.5491-101.630806-15.10846-152.449082-22.64109-4.611425-.57712-9.442985 1.7082-11.843884 5.70359-2.4756601 3.86149-2.4368262 9.10444.02344 12.96289 2.025085 3.28505 5.677844 5.40191 9.500148 5.74186 50.38885 7.49319 100.777981 14.98452 151.167821 22.47103-50.66142 8.52217-101.325125 17.03322-151.98254 25.57762-4.665727.88504-8.608963 4.70932-9.57082 9.36953-1.059424 4.51995.764722 9.52615 4.46699 12.32211 2.698481 2.13559 6.304187 2.94944 9.679255 2.37277 50.488814-8.49953 100.981325-16.98559 151.471565-25.47992-45.54753 23.75998-91.099588 47.51205-136.637403 71.29019-4.128688 2.27138-6.710019 7.06511-6.21558 11.76836.349357 4.92354 4.029644 9.35127 8.769406 10.67719 3.341282.99283 7.035279.40115 10.002237-1.39086 45.152199-23.51804 90.27812-47.08789 135.42119-70.62418-35.97948 36.67566-71.96664 73.34422-107.931953 110.03348-3.167745 3.37703-4.157499 8.60207-2.368831 12.88449 1.719395 4.45199 6.259153 7.58613 11.022739 7.66802 3.688422.12752 7.319992-1.56757 9.73204-4.33599 35.679675-36.36175 71.357885-72.72492 107.032325-109.09179-22.88269 45.9985-45.77597 91.99209-68.64393 137.99771-2.01968 4.29213-1.25543 9.72376 1.94942 13.239 3.08527 3.59308 8.35494 5.03768 12.85028 3.56657 3.5312-1.05484 6.34679-3.86989 7.7818-7.21969 22.666-45.55651 45.33199-91.11302 67.99798-136.66953-7.54895 50.81928-15.10987 101.63714-22.64096 152.45886-.57204 4.57402 1.67497 9.35945 5.60776 11.78333 3.7582 2.43472 8.85198 2.53495 12.69922.24218 3.51706-1.96512 5.75248-5.79192 6.11348-9.76284 7.48561-50.37202 14.97122-100.74404 22.45683-151.11606 8.52206 50.66338 17.03472 101.32876 25.57793 151.98833.86445 4.51749 4.47094 8.36471 8.94409 9.4653 4.51417 1.21484 9.64917-.42725 12.55842-4.1019 2.3198-2.8024 3.25905-6.80335 2.5055-10.2658-8.62956-51.30338-17.25912-102.60677-25.88867-153.91015 23.91636 45.84561 47.8227 91.69682 71.75525 137.53376 2.26984 4.13065 7.06763 6.70038 11.76696 6.21718 4.5212-.35889 8.70268-3.43034 10.3173-7.68145 1.40353-3.54833 1.02854-7.71061-.94966-10.96984-22.90274-43.90691-45.80548-87.81383-68.70821-131.72075 36.00879 35.32405 72.01028 70.65614 108.03132 105.96734 3.43386 3.23466 8.79828 4.19772 13.11914 2.27578 3.85727-1.58784 6.73754-5.27725 7.30657-9.41499.61757-3.76113-.69218-7.73428-3.37874-10.42943-17.55063-17.23933-35.12387-34.46125-52.68355-51.69355-19.07884-18.71682-38.15769-37.43364-57.23654-56.15046 46.02772 22.89349 92.04592 45.80721 138.08299 68.68121 4.26816 1.97332 9.64503 1.20546 13.13506-1.96618 3.23261-2.76883 4.80134-7.30218 3.94237-11.47489-.6576-3.75679-3.22797-7.05497-6.64643-8.71778-45.86691-22.81464-91.7318-45.63944-137.59798-68.4579 50.81733 7.54907 101.63342 15.10844 152.453 22.64109 4.67598.59205 9.58204-1.7731 11.94599-5.86775 2.21108-3.58198 2.35529-8.31353.33061-12.00964-1.75221-3.42381-5.21709-5.84251-9.01404-6.39428-50.325-7.48227-100.77068-14.97575-151.14228-22.46222-.91927-.0891-1.10015-.18519-.0783-.29279 50.46003-8.4897 100.92347-16.96226 151.37841-25.48022 5.35437-1.08825 9.55327-6.17818 9.59148-11.64591.1702-5.08026-3.16091-10.06721-7.96537-11.76993-2.462-.95734-5.18434-.94442-7.73554-.37694-50.07547 8.41701-100.1506 16.83605-150.22487 25.26015 45.59853-23.78716 91.20353-47.56258 136.7916-71.36936 4.8325-2.6656 7.31666-8.88198 5.61254-14.13922-1.38837-4.77418-5.93379-8.42068-10.90846-8.6774-2.72885-.2149-5.42916.63568-7.76005 2.01568-45.0232 23.47941-90.04553 46.96049-135.06571 70.44569 36.03998-36.73969 72.09135-73.46882 108.11495-110.224206 3.6976-4.031582 4.1141-10.637588.9066-15.080323-2.84386-4.200789-8.46004-6.275377-13.33976-4.830976-2.55637.672832-4.75549 2.279939-6.48597 4.242398-35.56426 36.244077-71.12701 72.489617-106.68605 108.738807 22.91988-46.07624 45.85808-92.143794 68.75489-138.231244 2.2667-4.956298.65404-11.339706-3.73282-14.590466-3.97715-3.13561-9.94421-3.410556-14.15484-.570049-2.26371 1.429006-3.88951 3.662551-4.9414 6.093723-22.6232 45.458663-45.24456 90.918236-67.86138 136.380066 7.5582-50.87638 15.12556-101.751729 22.66491-152.630682.67321-5.459158-2.8788-11.093353-8.10524-12.8225256-1.4182-.5042183-2.93468-.7107224-4.43662-.689368z" fill="#eed9f2" filter="url(#a)"/><path d="m84.936505 79.891463a8.25 8.25 0 0 0 -5.81055 2.47265 8.25 8.25 0 0 0 .11133 11.66602l164.986325 161.859367 164.98437 161.85743a8.25 8.25 0 0 0 11.66602-.11133 8.25 8.25 0 0 0 -.11133-11.66602l-164.98438-161.85937-164.984365-161.857417a8.25 8.25 0 0 0 -5.85742-2.36133zm-44.48828 59.333977a8.25 8.25 0 0 0 -4.76172 4.14649 8.25 8.25 0 0 0 3.71093 11.06054l206.927735 102.95313 206.92773 102.95312a8.25 8.25 0 0 0 11.06055-3.71093 8.25 8.25 0 0 0 -3.71094-11.06055l-206.92773-102.95313-206.925775-102.95507a8.25 8.25 0 0 0 -6.30078-.4336zm-17.84961 68.64258a8.25 8.25 0 0 0 -9.37305 6.94922 8.25 8.25 0 0 0 6.94922 9.37305l228.613275 33.9707 228.61328 33.96875a8.25 8.25 0 0 0 9.37305-6.94727 8.25 8.25 0 0 0 -6.94727-9.37304l-228.61328-33.97071zm453.955065-4.3418-227.92187 38.33789-227.921875 38.33789a8.25 8.25 0 0 0 -6.76757 9.50391 8.25 8.25 0 0 0 9.5039 6.76758l227.921875-38.33789 227.92383-38.33789a8.25 8.25 0 0 0 6.76562-9.50391 8.25 8.25 0 0 0 -9.50391-6.76758zm-19.1582-68.29101a8.25 8.25 0 0 0 -6.29101.55664l-204.91993 106.89258-204.919915 106.89453a8.25 8.25 0 0 0 -3.49804 11.1289 8.25 8.25 0 0 0 11.1289 3.5l204.919915-106.89453 204.91993-106.89258a8.25 8.25 0 0 0 3.5-11.13085 8.25 8.25 0 0 0 -4.83985-4.05469zm-45.61523-58.470707a8.25 8.25 0 0 0 -5.81055 2.47266l-161.85742 164.984377-161.859375 164.98632a8.25 8.25 0 0 0 .11133 11.66602 8.25 8.25 0 0 0 11.66797-.11133l161.857415-164.98437 161.85938-164.986327a8.25 8.25 0 0 0 -.11328-11.66602 8.25 8.25 0 0 0 -5.85547-2.36133zm-61.45117-41.51367a8.25 8.25 0 0 0 -4.76172 4.14649l-102.95313 206.927727-102.95312 206.92774a8.25 8.25 0 0 0 3.71093 11.06055 8.25 8.25 0 0 0 11.06055-3.71094l102.95508-206.92774 102.95312-206.927727a8.25 8.25 0 0 0 -3.71289-11.06055 8.25 8.25 0 0 0 -6.29882-.43555zm-65.14649-22.02539a8.25 8.25 0 0 0 -9.37109 6.94727l-33.97071 228.615227-33.9707 228.61329a8.25 8.25 0 0 0 6.94727 9.37304 8.25 8.25 0 0 0 9.37304-6.94726l33.97071-228.61524 33.9707-228.613277a8.25 8.25 0 0 0 -6.94922-9.37305zm-74.88867.7168a8.25 8.25 0 0 0 -6.76758 9.50391l38.33789 227.921867 38.33789 227.92188a8.25 8.25 0 0 0 9.50391 6.76758 8.25 8.25 0 0 0 6.76758-9.50391l-38.33789-227.92188-38.33789-227.921867a8.25 8.25 0 0 0 -9.50391-6.76758zm-64.71289 21.40039a8.25 8.25 0 0 0 -6.28906.55664 8.25 8.25 0 0 0 -3.5 11.12891l106.89453 204.919917 106.89258 204.91992a8.25 8.25 0 0 0 11.13085 3.5 8.25 8.25 0 0 0 3.49805-11.13086l-106.89258-204.91992-106.89257-204.919917a8.25 8.25 0 0 0 -4.8418-4.05469z" fill="#eed9f2"/><path d="m250 13.429688c-18.52088-.000692-35.17505 10.377645-46.36719 25.427734-11.34204 15.253662-17.92773 35.467391-17.92773 57.765625 0 17.286043 4.00129 33.277123 11.06445 46.708983-25.59348 10.10963-40.46302 34.39672-48.08594 61.64453l-.002.002c-8.98892 32.14388-9.58283 87.06859-9.80273 119.2871l-.125 18.12305h42.70507l9.33013 157.61129h49.98633 19.17969 52.63086l8.26172-157.61133h40.39648l-.0117-18.00976c-.0181-32.26674.51797-87.73759-7.60156-120.0625v-.002c-4.08289-16.25258-10.34372-31.02974-20.64063-42.86523v-.002c-7.36099-8.46007-17.31139-15.25096-29.03515-19.36329 6.64922-13.16448 10.36719-28.72034 10.36719-45.460933v-.002c-.00242-22.295509-6.58558-42.508645-17.92971-57.763535-11.20286-15.064911-27.87295-25.427043-46.39258-25.427734z" fill="#6a1f7a"/><path d="m218.07655 49.59806c-8.6796 11.673-14.3712 28.3923-14.3712 47.025 0 18.6318 5.6916 35.3232 14.373 46.9962 8.6796 11.6748 19.8666 18.171 31.9212 18.171 12.0537 0 23.2695-6.4962 31.95-18.171 8.6805-11.673 14.373-28.3644 14.373-46.9962-.002-18.6318-5.6925-35.352-14.373-47.025s-19.8963-18.1683-31.95-18.16875c-12.0546-.00045-23.2416 6.49485-31.923 18.16875zm31.9243 129.0087c-16.2504 0-30.87-7.9965-41.7375-20.3904-22.6116 6.2046-34.74 24.7797-42.246 51.6096-7.371 26.3583-8.9226 82.78434-9.1395 114.56244h23.4l13.69052-85.41981 3.69078 72.47277 10.0962 170.55864h34.2v-142.46064h16.8192v142.46064h36.7308l8.973-171.17694 3.66192-70.9596 13.66128 84.52494h21.4317c-.018-32.1426-.3825-89.10504-7.0596-115.68744-3.6288-14.445-9.0648-26.5896-16.7625-35.4375-6.7752-7.7868-15.1983-13.2795-26.8585-15.97545-10.9465 12.92355-25.9 21.31875-42.5518 21.31875z" fill="#eed9f2" stroke-width="36"/></svg>