<svg height="500.0004" viewBox="0 0 500 500.0004" width="500" xmlns="http://www.w3.org/2000/svg" xmlns:xlink="http://www.w3.org/1999/xlink"><filter id="a" color-interpolation-filters="sRGB" height="1.094496" width="1.097553" x="-.048777" y="-.047248"><feGaussianBlur stdDeviation="5.8536474"/></filter><filter id="b" color-interpolation-filters="sRGB" height="1.005903" width="1.0061" x="-.00305" y="-.002952"><feGaussianBlur stdDeviation=".3558599"/></filter><filter id="c" color-interpolation-filters="sRGB" height="1.133788" width="1.170682" x="-.085341" y="-.066894"><feGaussianBlur stdDeviation="6.3125028"/></filter><filter id="d" color-interpolation-filters="sRGB" height="1.048988" width="1.060155" x="-.030078" y="-.024494"><feGaussianBlur stdDeviation="1.8632643"/></filter><g transform="translate(-500 -500)"><path d="m999.99997 750a249.99997 250 0 0 1 -249.99997 250 249.99997 250 0 0 1 -249.99997-250 249.99997 250 0 0 1 249.99997-250 249.99997 250 0 0 1 249.99997 250z" fill="#ffe24c"/><path d="m1000 750.00632-194.05817-2.60063 192.98367-20.4591-193.45987 15.31075 190.28547-38.19139-191.22567 33.10816 185.92267-55.58184-187.34707 50.61663 180.01317-72.50831-181.88127 67.68555 172.56127-88.82024-174.86477 84.18876 163.62798-104.35075-166.35478 99.94311 153.30278-119.00625-156.40808 114.88758 141.65488-132.65651-145.14668 128.82271 128.82258-145.14278-132.65648 141.65492 114.88758-156.42029-119.00218 153.31093 99.94719-166.3385-104.34669 163.60764 84.17649-174.84041-88.81609 172.54909 67.67739-181.89345-72.48799 180.02133 50.6167-187.35925-55.5941 185.94294 33.1-191.23373-38.1995 190.27732 15.3474-193.45586-20.4957 192.97968-2.59249-194.05413-2.5681 194.05413-20.4916-192.97968 15.327 193.45586-38.2004-190.27732 33.1171 191.23373-55.5936-185.94294 50.6162 187.35925-72.51029-180.02133 67.69979 181.89345-88.81699-172.54909 84.17729 174.84041-104.36289-163.60764 99.96869 166.3385-119.00618-153.31093 114.86968 156.42029-132.64018-141.65492 128.81968 145.14278-145.14988-128.82271 141.67318 132.65651-156.42638-114.88758 153.29788 119.00625-166.34218-99.94311 163.62828 104.35075-174.86477-84.18876 172.54667 88.82024-181.87387-67.68555 180.00617 72.50831-187.35587-50.61663 185.94077 55.58184-191.21897-33.10816 190.28097 38.19139-193.47947-15.31075 192.98647 20.4591-194.04384 2.60063 194.04384 2.58435-192.98647 20.46723 193.47947-15.31481-190.28097 38.20361 191.21897-33.12445-185.94077 55.58997 187.35587-50.60849-180.00617 72.5083 181.87387-67.68553-172.54667 88.81211 174.86477-84.17656-163.62828 104.33851 166.34218-99.95936-153.29788 119.0103 156.42638-114.87941-141.67318 132.66054 145.14988-128.83082-128.81968 145.13868 132.64018-141.66304-114.86968 156.42028 119.00618-153.28243-99.96869 166.32222 104.36289-163.59543-84.17729 174.84852 88.81699-172.55719-67.69979 181.8975 72.51029-180.02538-50.6162 187.35108 55.5936-185.93884-33.1171 191.21336 38.2004-190.26101-15.327 193.47618 20.4916-192.99594 2.5681 194.05003 2.59249-194.05003 20.4957 192.99594-15.3474-193.47618 38.1995 190.26101-33.1-191.21336 55.5941 185.93884-50.6167-187.35108 72.48799 180.02538-67.67739-181.8975 88.81609 172.55719-84.17649-174.84852 104.34669 163.59543-99.94719-166.32222 119.00218 153.28243-114.88758-156.42028 132.65648 141.66304-128.82258-145.13868 145.14668 128.83082-141.65488-132.66054 156.40808 114.87941-153.30278-119.0103 166.35478 99.95936-163.62798-104.33851 174.86477 84.17656-172.56127-88.81211 181.88127 67.68553-180.01317-72.5083 187.34707 50.60849-185.92267-55.58997 191.22567 33.12445-190.28547-38.20361 193.45987 15.31481-192.98367-20.46723z" fill="#fffbb3" fill-rule="evenodd"/></g><path d="m333.50781-3.9746094c-17.12572.3300329-34.23539 3.99708098-49.80456 11.1951737-21.45284 9.8297807-40.10995 25.9839697-52.24828 46.2823517-3.74549 6.212886-6.76038 12.842428-9.39392 19.593167-6.15878 16.498315-7.39884 34.587037-4.82301 51.936737 3.06084 20.87179 11.22253 40.76974 22.31738 58.62667 15.74782 25.2857 37.38733 46.73892 62.29687 62.99822 20.84642 13.55545 44.08625 23.65199 68.50756 28.5705 9.17773 1.83834 18.51257 2.91473 27.87257 3.09991-3.13895.84788-6.18259 1.54099-9.39521 2.11266-2.21786.39348-4.66657.74439-6.99138.99126-2.82189.33348-5.66874.42463-8.49875.58866-3.8482.73415-7.69632 1.46878-11.54435 2.20391 3.53642 1.752 7.02136 3.60867 10.57144 5.33123 2.28016.93297 4.70102 1.49163 7.09466 2.05919 14.61395 3.22697 29.963 1.71095 44.17298-2.6674 15.03226-4.65528 29.03664-12.4853 41.09262-22.5768 12.6963-10.67458 23.27566-24.04781 29.93313-39.28949 1.84367-4.21856 3.24568-8.60806 4.72021-12.96331 5.29095-16.59431 5.78511-34.48448 2.71035-51.55803-4.06215-22.73129-14.00442-44.12235-27.14695-62.9975-19.24964-27.54601-45.49848-50.030812-75.30664-65.462891-16.00969-8.255268-33.10968-14.494728-50.80273-17.960937 1.28717-.07262 2.36369-.11893 3.6582-.15625 12.08494-.353546 24.39327.824602 36.17691 3.82574 2.52416.581333 4.96155 1.595969 7.57062 1.736358 3.18516.360693 6.37018.722579 9.5552 1.084386-2.84241-2.775778-5.58817-5.651103-8.46672-8.388723-3.4979-2.599535-7.28771-4.8041215-11.15782-6.8064909-16.19527-8.25187662-34.5729-11.7523202-52.67038-11.4083015z" fill="#f2c80d" filter="url(#a)"/><path d="m495.58758 212.89614c19.18502-60.56566-25.97365-139.722499-100.86479-176.802335-26.6215-13.180374-53.41447-19.264073-77.75696-18.917872 4.69654-1.251894 9.51429-2.301638 14.43501-3.123463 22.91335-3.826409 44.63465-2.389495 63.55015 3.351922-19.84446-14.1651876-48.73993-20.8638774-80.04245-15.6351308-38.42695 6.4182815-71.83624 31.9849948-86.49401 66.4740588-1.53537 3.310956-2.88745 6.767892-4.03065 10.376897-19.18503 60.565663 25.97326 139.723723 100.86479 176.802333 34.92289 17.29049 70.14239 22.37295 99.73526 16.73822-17.51562 8.96507-34.99027 13.45319-51.00858 13.78654 18.42664 6.25502 42.83047 4.12825 66.97742-8.45503 27.00725-14.07455 45.97273-37.26756 53.1557-60.33985.52175-1.39714 1.02243-2.81035 1.48033-4.2559z" fill="#fffdcc" filter="url(#b)"/><path d="m474.494 202.45607c-7.77134 24.53356-26.63703 40.99176-51.14208 48.0294-29.23392 1.42093-68.4825-13.29684-90.37362-27.96939-30.41728-20.38676-50.73163-43.31688-61.50541-73.01949-11.49516-31.68817 4.14421-64.758915 25.92404-69.555792 1.70501-.376018 3.42772-.583342 5.15743-.634761-10.84089 4.434434-16.49309 20.405049-12.73637 37.453393 4.04929 18.3833 17.49853 31.04821 30.0387 28.28561 12.54219-2.76264 19.42451-19.90467 15.37481-38.28877-1.56279-7.092339-4.52815-13.326946-8.29765-18.158565.69191.559442 1.37822 1.136571 2.0524 1.741402-11.32694-16.129548-27.04811-25.052393-41.68759-21.827929-35.48768 14.733212-34.50303 54.889312-23.27359 87.087932 9.98519 28.63269 30.88828 58.32109 63.24039 80.00261 2.40273 1.61009 4.82565 3.15006 7.26423 4.62789-1.29759-.60298-2.59535-1.21809-3.89271-1.85992-63.24827-31.31461-101.38556-98.16346-85.18326-149.312896 6.88666-21.740644 22.48651-37.141402 43.00242-45.264143 34.637-6.808063 89.75086 17.699673 112.02685 38.623657 28.83188 27.082522 62.10481 64.057022 45.29097 104.496662-11.34952 27.29743-47.95591 27.15684-78.44683 1.41121-10.95307-9.24805-19.88468-20.52154-26.13157-32.5795 5.3122 18.40079 16.67009 36.63611 33.0158 50.43933 30.49092 25.74564 67.83958 26.14685 78.80403-1.2994 20.40512-51.07786-9.11933-95.26294-44.06566-133.113828-10.35834-9.462343-21.48455-17.665908-32.97464-24.523668 4.43945 1.7378 8.88949 3.696405 13.33466 5.897091 63.24885 31.312785 101.38675 98.161825 85.18445 149.311255z" fill="#f2c80d"/><path d="m288.14063 217.52315c-8.23477-14.83224-24.48068-22.01463-40.94825-23.35357-14.62296-.19754-28.03976 3.3087-39.8916 9.89058-17.56602 11.90327-30.66431 24.27511-35.2832 43.27343-37.94012 12.29803-61.0958 33.2978-72.875002 57.61719-13.016594 26.87413-13.601679 55.07564-16.106469 79.23438-1.996887 19.26041-.01474 35.54658 5.827125 48.50595-4.611935.0725-7.698595.0663-12.941406.0801l-19.094726 18.96484-56.827102 48.26395 167.4707.0004c23.95725-.19524 47.05064-1.30218 65.8418-4.85022 19.6229-3.52431 41.46111-14.48064 42.38086-33.72656-2.01425-24.07057-19.44796-34.95805-38.04785-43.00783 3.9163-1.51679 6.85249-3.77986 9.26075-5.83986 33.31798-39.42958 48.20605-76.49662 75.06445-114.76758l-17.38476-9.73632c-15.60073-8.73714-33.04517-3.63098-44.375 3.6875-12.56114 8.9056-20.9027 18.99829-28.24024 31.08007.19906 5.35742.59936 11.20126 1.02539 15.91211-4.28393-11.23699-7.86548-23.46536-10.70312-35.68164 11.7155-.39143 23.51694-3.69388 34.53711-9.8125 13.54656-7.52172 24.32357-18.17287 30.79297-30.98147 6.57848-13.02794 8.75219-29.92187.51757-44.75295zm-103.66407 158.71297c6.59119 11.23508 13.48967 21.67627 21.03516 30.68164-6.29403-1.99514-12.37565-3.9227-18.07617-5.81055-2.65711-8.30514-3.06184-16.80534-2.95899-24.87109z" fill="#f2c80d"/><path d="m216.03897 219.79734c-10.70845 5.94587-18.87178 14.26654-23.46289 23.35622-2.90929 5.75906-4.37248 11.99486-3.85038 17.96134-83.81664 21.17588-82.61155 75.00391-87.78545 124.92619-5.203372 50.21279 18.51408 60.72913 49.51153 64.92482-44.66881-1.02122-38.73591-.29287-67.053304-.21449 0 0-27.083439 27.08344-29.167143 28.7511 30.973882-1.33177 202.784007 14.06618 203.465217-18.45633.46729-22.28845-46.07367-32.51427-80.05112-44.18208-12.53759-4.30529-17.45457-54.50983-.11787-99.65951 11.81159 36.09829 38.67817 82.52141 51.41376 84.79427 14.46217.12729 48.32826-71.83122 66.85-98.22167-16.59007-9.29121-37.0541 9.66248-45.58397 23.70981.36065 7.71076.94757 18.42451 3.28054 20.74275l-24.12937 24.93432c-15.40974-25.6998-25.53126-62.29309-29.82949-93.54865-.15144.0742-.29346.15086-.44197.2257.10902-.12964.22393-.25752.33413-.38775 4.64944 3.22515 10.3814 5.09141 16.43981 5.63355 10.14333.90867 21.52238-1.62053 32.23142-7.5664 10.70845-5.94586 18.87237-14.26889 23.46406-23.35916 4.59051-9.09028 5.5864-19.36502.8468-27.90136-4.73901-8.53576-13.98781-13.12333-26.06074-14.12187-11.04935-.13286-20.93397 2.45583-30.30357 7.6592z" fill="#fffdcc" stroke-width="36"/><path d="m283.23697 108.26429-21.3129-14.925442 58.18488 142.926062 13.27428-21.50479 25.5811 33.46501 13.92677-30.32744 22.49899 25.45396 10.25886-26.69178 17.31349 25.76797 15.33381-115.45334 1.15055-38.634046-1.47267-35.985557-15.28146 31.154361-3.64554 6.195734c.0507-2.669901.0174-5.310706-.16388-7.895583-.81342-11.598372-3.38283-22.378861-5.08987-34.737699l-3.49781-25.32403-26.27571 43.857203c-3.82679 6.38676-6.9054 12.100016-9.56907 16.083573-2.66368 3.983567-4.82902 5.765979-5.615 6.083294l-13.85371 5.368855-21.37053-4.657907c-4.59584-.948268-6.02804-.973406-8.9614-3.070325-3.24998-2.323255-7.83965-6.692885-13.3645-11.295229l-22.70678-34.595483-7.80338 46.87474c-.16122 8.099107.73169 15.297499 2.46148 21.867889z" fill="#ffe24c" filter="url(#c)"/><path d="m337.12763 156.99164-55.3539-38.76547 39.98783 98.22791 10.83182-17.54747 24.43568 31.96703 13.45048-29.29356 21.83072 24.69844 11.15079-29.01339 13.71 20.4059 12.14215-91.42545 1.13699-38.172785-18.37269 31.225475-10.87947 18.88689-4.87402-12.33388c2.96062-2.86627 5.74748-6.00974 8.00799-9.79917 10.58876-24.959545 4.08985-42.091873.54602-67.748988l-13.13702 21.927501c-7.37955 12.316205-12.26468 22.951606-19.53628 25.88718l-10.68613 4.313227 6.83824 9.41069-9.3984 7.22693-16.2313-7.14125 1.84732-9.993238-12.78182-2.637278c-4.24599-.876078-7.90621-1.367719-12.37541-4.562552-4.46922-3.194822-9.28589-7.989975-14.96371-12.624068l-10.79385-16.445392-3.89319 23.239519c-.39443 19.842549 6.25452 34.455969 16.68871 43.013699 10.43421 8.55773 23.45007 10.88121 35.24239 10.21945z" fill="#f2c80d" filter="url(#d)"/><path d="m298.76408 87.083269c-.71124 35.780181 22.40213 45.191881 42.11473 44.085841l5.75232-10.40362-23.75012-8.09251 9.26266-6.38332c-13.74124.53617-23.02517-10.755461-33.3801-19.206896zm100.69681-12.227329c-6.81344 11.371371-12.0363 24.822962-23.88702 29.60714l5.21336 7.17477-14.52783 11.17089 7.80609 6.81438c17.08165-6.56911 34.55204-23.66097 25.39548-54.766615zm21.30453 47.38961-21.08097 36.59603-8.56575-21.67452-16.27802 31.11954-26.52221-17.58847-6.04382 20.88386-40.65309-28.46894 21.79169 53.52974 8.38876-13.59061 23.29166 30.46889 12.97597-28.25862 21.16109 23.94157 12.04222-31.33459 10.10686 15.04326 9.385-70.66648z" fill="#fffdcc" stroke-width="18"/></svg>