<svg height="500.00003" viewBox="0 0 500 500.00003" width="500" xmlns="http://www.w3.org/2000/svg"><g transform="translate(-500)"><path d="m926.7767 73.223311c45.24113 45.241099 73.2233 107.741109 73.2233 176.776699 0 69.0356-27.98221 131.53559-73.2233 176.77669-45.2411 45.2411-107.74109 73.22332-176.77669 73.22332-69.03559 0-131.5356-27.98219-176.7767-73.22332-45.2411-45.2411-73.22331-107.74109-73.22331-176.77669 0-69.03559 27.9822-131.5356 73.22331-176.776699 45.2411-45.241105 107.74111-73.22330934 176.7767-73.22330934 69.0356 0 131.53559 27.98220534 176.77669 73.22330934z" fill="#3b2f4f"/><g transform="translate(500)"><path d="m230.6486 0c-128.19182 22.346591-234.17086 139.43202-223.06447 273.24395 5.6201 44.55936 16.72649 83.63245 44.55937 122.70552l50.17947 50.17947c33.45298 22.34661 72.52606 44.55938 111.46533 50.17946 39.07308 5.62012 78.01235 5.62012 111.46534-5.62008 39.07308-16.72649 72.52607-33.45297 100.35893-61.28587 33.45297-39.07306 55.79958-83.63245 66.90595-139.43201v-61.28587c-5.62008-27.83287-11.10637-50.17947-22.34657-78.01235-11.10641-22.34659-27.8329-44.55937-50.17947-61.285858-27.83289-27.832879-61.28586-44.559368-100.35895-55.799569-27.83288-5.620101-55.79957-11.10639-89.25255-5.620101-78.01235 11.106391-139.43202 61.28586-172.885 128.191818-11.10639 27.83288-16.72649 61.28586-22.34659 89.25255 0 33.45298 5.6201 66.90596 16.72649 94.73885 22.34659 44.55936 55.79957 89.25254 105.97904 111.46532 16.72649 5.62012 33.45298 11.1064 55.79957 16.72648 122.70553 22.34661 234.17085-55.79954 250.89734-178.37127 11.10641-78.01236-22.34657-139.43203-72.52604-189.6115-100.35895-89.25255-267.62385-44.559369-312.18322 78.01235-5.6201 27.83288-16.72649 55.79958-16.72649 83.63245 5.6201 78.01235 55.79957 150.53843 133.81192 172.885 61.28586 16.72649 122.70553 5.62012 172.885-33.45298 11.10639-11.10637 22.34659-22.34657 33.45299-33.45297 61.28584-83.63246 44.55935-195.09778-44.55937-256.51746-27.83288-16.726488-55.79958-22.346588-89.25256-27.832879-22.34659-5.620101-44.55937 5.620101-66.90596 11.106391-27.83288 16.726488-50.17947 22.346588-72.52606 50.179468-27.83288 33.45298-33.45298 66.90596-39.07308 105.97904 0 55.79958 27.83288 117.08544 83.63245 144.91833 78.01235 44.55934 183.99139 11.10637 223.06447-72.52607 22.3466-55.79958 11.1064-128.19183-39.07308-172.88501-33.45298-27.83288-66.90596-39.07308-111.46533-39.07308-66.90596 5.6201-111.46533 55.79957-122.70553 122.70553-11.10639 72.52606 33.45298 139.43202 105.97904 150.53843 100.35894 16.72649 183.99138-89.25257 139.43202-178.37131-11.10638-16.72649-27.83288-39.07308-50.17947-50.17947-27.83288-11.10639-55.79957-16.72649-83.63245-11.10639-33.45298 5.6201-55.79957 27.83288-72.52606 50.17947-16.72649 27.83288-16.72649 55.79957-11.10639 83.63245 11.10639 33.45298 39.07308 61.28586 72.52606 72.52607 44.55937 16.72649 89.25255-5.62011 111.46533-39.07309 33.45298-55.79957 5.6201-117.08543-50.17947-139.43202-50.17947-16.72649-122.70553 27.83288-105.97904 89.25255 5.6201 16.72649 11.10639 39.07309 27.83288 50.17947 22.34659 16.7265 50.17947 16.7265 72.52606 11.1064 22.34659-11.1064 39.07308-33.45299 39.07308-61.28587-5.6201-16.72649-5.6201-39.07308-22.34659-50.17947-13.91644-8.36324-29.2379-11.13984-43.17107-8.34651-13.93317 2.79332-26.47803 11.15656-34.84128 25.073-5.6201 16.72649-11.10639 33.45298 9.50065 44.827 41.74932-49.10898 35.32635.40143 29.84006-16.45887v5.6201c16.72649-5.6201 22.34659-22.34659 27.83288-33.45298 5.6201 5.6201 16.72649 11.10639 16.72649 22.34659 11.10639 39.07308-27.83288 72.52606-66.90596 61.28586-33.45298-11.10639-44.55937-50.17947-39.07309-83.63245 5.62011-22.34659 22.3466-39.07308 50.17948-44.55937 33.45298-5.6201 66.90596 11.10639 83.63245 39.07308 16.72649 27.83288 16.72649 50.17947 0 78.01235-33.45298 55.79958-105.97905 55.79958-150.53841 11.10639-33.45298-44.55937-22.3466-117.08543 27.83288-144.91831 16.72648-11.10639 39.07308-16.72649 61.28586-16.72649 11.10638 0 27.83288 5.6201 39.07308 11.10639 27.83288 11.10639 39.07308 39.07308 55.79957 61.28586 5.6201 16.72649 5.6201 27.83288 5.6201 44.55937-5.6201 72.52606-72.52606 122.70554-144.91831 105.97904-83.63246-22.34659-122.70554-122.70553-72.52606-195.09778 11.10638-16.72649 22.34659-27.83288 39.07308-39.07308 78.01235-44.559372 167.2649-5.6201 200.71788 66.90596 39.07309 94.73884-39.07308 206.33797-139.43202 200.71788-27.83288-5.62012-55.79958-5.62012-78.01235-22.3466-22.34659-11.10638-27.83288-27.83287-39.07309-39.07307-66.90596-78.01235-33.45298-195.09778 55.79958-239.79097 39.07308-16.726484 83.63245-16.726484 128.19182-5.6201 94.73883 33.45298 139.43201 144.91832 94.73883 234.17087-11.10637 27.83288-33.45297 44.55935-55.79956 66.90596-22.34659 16.72649-50.17947 27.83289-78.01235 33.45298-44.55937 5.62012-89.25256-5.62009-128.19182-27.83286-94.73884-66.90598-117.08544-211.82429-22.3466-289.97045 16.7265-11.1064 27.83288-33.452984 50.17948-39.073085 33.45298-11.106392 66.90596-22.346593 105.97904-16.726492 27.83288 5.6201 55.79957 16.726492 78.01235 27.832879 16.72649 16.726488 39.07309 22.346598 50.17946 44.559368 11.10641 16.72649 27.8329 33.45298 33.45298 55.79957 22.34661 66.90596 16.72649 139.43203-27.83286 195.09781-16.72649 22.34657-33.45298 44.55934-61.28587 55.79954-22.34659 5.62012-39.07308 22.34661-61.28586 22.34661-39.07308 0-83.63245 5.62008-122.70553-11.10641-117.08543-44.55934-167.26491-195.09777-105.97905-306.69691 16.7265-33.45298 44.55937-61.285864 78.01236-83.632457 44.55936-22.34659 89.25255-33.452979 139.43202-27.832879 61.28586 5.6201 111.46532 39.07308 156.1585 83.632456 22.34661 22.34659 27.8329 50.17947 39.0731 78.01234 11.10637 16.7265 5.62008 39.07309 11.10637 61.28586 11.10645 172.88502-195.09777 301.07685-351.25629 211.82429-27.83287-16.72649-50.17946-27.8329-66.90596-50.17947-61.28586-72.52608-78.01235-167.26492-50.17947-256.51747 16.72649-33.45298 39.07309-61.28586 61.28587-89.252546 39.07308-39.073083 94.73884-55.799574 144.9183-72.526064" fill="#221b35" opacity=".9"/><path d="m231.45148 15.388371c-120.56454 21.008472-220.12061 131.001869-209.68329 256.785079 5.21867 41.88313 15.78981 78.68141 41.88314 115.34586 15.7898 15.65602 31.4458 31.44582 47.23561 47.1018 31.4458 21.0085 68.11026 41.88314 104.77473 47.23563 36.66447 5.21866 73.32893 5.21866 104.77473-5.21866 36.66447-15.65601 68.11026-31.44582 94.33742-57.67295 31.44579-36.66448 52.45425-78.68141 62.89161-131.00187v-57.67294c-5.2187-26.22714-10.43736-47.23561-21.00851-73.32894-10.43731-21.00847-26.22712-41.88313-47.10179-57.672935-26.22713-26.227136-57.67292-41.88313-94.33739-52.454272-26.22714-5.218666-52.45427-10.43733-83.90008-5.218666-73.32893 10.437332-131.00187 57.672938-162.44767 120.564543-10.43733 26.22713-15.78981 57.67294-21.00847 83.90008 0 31.44579 5.21866 62.8916 15.78981 89.11874 21.00847 41.88313 52.45427 83.90006 99.55607 104.77473 15.7898 5.21866 31.4458 10.43732 52.45427 15.65601 115.34588 21.00847 220.12062-52.45428 235.91043-167.66635 10.43732-73.32894-21.00847-131.00188-68.11026-178.23748-94.33742-83.900079-251.56643-41.883137-293.44956 73.32893-5.21867 26.22713-15.78981 52.45427-15.78981 78.68141 5.21866 73.32893 52.45427 141.573 125.78321 162.44767 57.67293 15.78981 115.34587 5.21866 162.44767-31.44578 10.43733-10.43736 21.00849-21.00849 31.4458-31.44582 57.67295-78.68141 41.88314-183.45615-41.88313-241.12909-26.22714-15.7898-52.45428-21.008465-83.90008-26.227131-21.00847-5.218666-41.88313 5.218666-62.8916 10.437331-26.22714 15.7898-47.23561 21.00847-68.11027 47.1018-26.22713 31.4458-31.4458 62.8916-36.66447 99.55606 0 52.45428 26.22714 110.12722 78.68142 136.22052 73.32893 41.88314 173.01881 10.43736 209.68327-68.11025 21.00847-52.45427 10.43736-120.56454-36.66446-162.44767-31.4458-26.22714-62.8916-36.66447-104.77473-36.66447-62.89161 5.21867-104.77474 52.45428-115.34588 115.34588-10.43733 68.11027 31.4458 131.00187 99.55607 141.57302 94.3374 15.65599 173.01881-83.90008 131.00187-167.66635-10.43733-15.7898-26.22714-36.66446-47.1018-47.2356-26.22713-10.43733-52.45427-15.656-78.68141-10.43733-31.4458 5.21866-52.45427 26.22713-68.11027 47.23561-15.7898 26.22713-15.7898 52.45427-10.43732 78.6814 10.43732 31.44581 36.66446 57.67295 68.11026 68.11027 41.88314 15.78981 83.90008-5.21866 104.77474-36.66446 31.4458-52.45428 5.21866-110.12721-47.1018-131.00187-47.23561-15.78981-115.34588 26.22713-99.55607 83.90007 5.21867 15.65599 10.43733 36.66447 26.22714 47.23561 21.00847 15.78981 47.10179 15.78981 68.11027 10.43733 21.00847-10.43733 36.66446-31.4458 36.66446-57.67294-5.21866-15.7898-5.21866-36.66447-21.00847-47.23561-13.11356-7.8949-27.5318-10.50423-40.62864-7.86145-13.09684 2.64279-24.87229 10.53769-32.70029 23.65126-5.21867 15.656-10.43733 31.4458 8.9654 42.15076 39.20689-46.70036 33.05154-.26763 27.96669-16.05744v5.21867c15.78981-5.21867 21.00847-21.00847 26.22714-31.4458 5.21866 5.21866 15.65599 10.43733 15.65599 21.00847 10.43733 36.66447-26.22714 68.11027-62.8916 57.67294-31.4458-10.43733-41.88313-47.23561-36.66447-78.68141 5.21867-21.00848 21.00847-36.66447 47.1018-41.88314 31.4458-5.21866 62.8916 10.43734 78.68141 36.66447 15.65599 26.22714 15.65599 47.23561 0 73.32893-31.4458 52.45428-99.55607 52.45428-141.57302 10.43734-31.4458-41.88313-21.00847-110.12722 26.22714-136.22054 15.78981-10.43733 36.66447-15.656 57.67294-15.656 10.43733 0 26.22714 5.21867 36.66447 10.43733 26.22713 10.43733 36.66446 36.66447 52.45427 57.67294 5.21866 15.78981 5.21866 26.22714 5.21866 41.88314-5.21866 68.11026-68.11026 115.34586-136.22053 99.55606-78.68141-21.00847-115.34588-115.34587-68.11027-183.45614 10.43733-15.656 21.00847-26.22714 36.66447-36.66447 73.32893-41.88313 157.22901-5.21866 188.67481 62.8916 36.66448 89.11874-36.66447 193.89349-131.00188 188.67483-26.22713-5.21866-52.45427-5.21866-73.32893-21.00848-21.00847-10.43734-26.22713-26.22714-36.66447-36.66447-62.8916-73.32893-31.4458-183.45615 52.45428-225.33928 36.66446-15.789805 78.68141-15.789805 120.56454-5.21866 89.11872 31.4458 131.00186 136.22053 89.11872 220.12061-10.43731 26.22714-31.44578 41.88313-52.45425 62.89162-21.00847 15.78977-47.23561 26.22712-73.32894 31.44578-41.88313 5.21866-83.90007-5.21866-120.56454-26.22712-89.11874-62.89162-110.12721-199.11215-21.00847-272.5749 15.656-10.43733 26.22714-31.445801 47.1018-36.664467 31.4458-10.437328 62.8916-21.00847 99.55607-15.655994 26.22713 5.218666 52.45427 15.655994 73.32893 26.227136 15.65599 15.789805 36.66446 21.008475 47.10181 41.883135 10.43732 15.7898 26.22713 31.4458 31.44578 52.45427 21.00847 62.8916 15.78981 131.00187-26.22712 183.45615-15.78981 21.00846-31.44582 41.88313-57.67295 52.45428-21.00847 5.21866-36.66446 21.00847-57.67294 21.00847-36.66446 0-78.68141 5.21866-115.34587-10.43735-110.12721-41.8831-157.22901-183.45614-99.55607-288.23087 15.7898-31.4458 41.88313-57.672937 73.32893-78.681407 41.88313-21.008474 83.90008-31.445802 131.00187-26.22714 57.67294 5.218666 104.77473 36.664468 146.79166 78.681417 21.00851 21.00847 26.22717 47.10179 36.66448 73.32893 10.43732 15.78981 5.21866 36.66446 10.43732 57.67293 10.43735 162.44767-183.45613 283.01222-330.24781 199.11215-26.22713-15.65601-47.23561-26.22713-62.8916-47.23563-57.67294-68.11025-73.32893-157.22899-47.23561-241.12907 15.78981-31.4458 36.66447-57.67293 57.67294-83.900069 36.66447-36.664468 89.11874-52.454275 136.22054-68.11027" opacity=".9"/></g></g><path d="m262.98827 11.54288c-11.12995-6.7058019-24.26872-12.22512936-37.24316-11.51260656-12.50327.6866478-26.82564 5.03224746-34.45995 14.95800756-7.87477 10.238405-8.78342 25.749321-5.79102 38.314453 6.88612 17.265307 18.22088 31.928122 33.15434 40.589891-.65304 8.750485-.47308 16.993805-.19723 25.484375-.82221 21.28446 6.27729 40.16679 13.32836 58.42188 8.80156 21.9171 20.85268 45.97353 32.36132 63.0332 9.85186 14.60666 21.52731 47.54393 23.1875 63.96875l-37.32617 94.62109 132.17578 1.38086 1.89844-49.24218-41.18945-7.17578c3.23651-11.86011 13.75805-22.46568 14.20898-34.93946.48028-13.40673-.91598-25.0503-3.11328-36.02539 23.33455 17.5281 47.91928 39.76654 63.98047 59.92969l16.48407 20.92964 65.55273-114.16407-40.30469-22.30859-31.04883 29.48438c-18.70591-20.2972-41.23626-36.54285-64.41211-53.11133 11.69348 2.32039 21.8419-3.53072 28.89258-11.49514 5.60836-6.42403 9.00756-14.24058 12.01367-22.58693 0 0 12.73221-5.34413 18.5625-8.98633 15.0708-9.32957 25.60311-18.13556 26.11329-36.10256-1.08316-21.039135-10.88467-38.497051-29.65235-45.815451-20.82739-2.796293-43.86129-1.350215-62.66211-1.503906-25.7549-.214888-52.32035-1.035953-63.49218-1.925781.17361-18.60926-18.75755-46.231083-31.0215-54.220712z"/><path d="m224.57426 18.000029c-8.4269.01403-15.03702 2.857291-19.09927 8.062142-4.33348 5.551686-5.35216 13.259201-2.72323 22.12179 2.62814 8.86181 9.04263 18.429758 18.68463 25.94476 9.64277 7.513443 20.49049 11.398768 29.73421 11.788469 9.2406.389702 16.47346-2.476942 20.80694-8.027851 4.33348-5.552465 5.35138-13.2592 2.72245-22.12101a39.596779 39.596779 0 0 0 -.91346-2.676469c-6.85095 5.264087-11.40422 14.47351-17.15777 10.634172-1.57439-1.049856 3.27739-13.471198 10.51414-22.587093a58.630575 58.630575 0 0 0 -7.33418-8.097995l-19.74071 9.485332-10.6747-9.854769c1.58063-1.360058 14.19682-3.478475 24.58236-4.366994-9.11122-6.517358-19.0977-9.90776-27.69374-10.269403a39.071462 39.071462 0 0 0 -1.70923-.03507zm60.70535 65.245369a32.158159 32.158159 0 0 1 -2.23455 3.267256c-7.59918 9.737079-19.85373 13.947416-32.46836 13.41586-4.65538-.196409-9.41519-1.009326-14.15863-2.413031-.53935 6.782367-.51597 13.657477-.014 20.555187l5.68964-2.62658.3897 13.16021 10.06209 1.93682-5.80499 11.61154 13.54602 11.99891-12.77286 5.0326 6.58128 7.35367-5.4301 5.02714c8.33727 22.58476 19.6542 43.27401 30.39827 59.20032 13.07838 19.38921 26.03751 54.90581 26.58231 76.65583l-29.30087 74.27474 88.52067.92515.61807-16.02764-5.90553-1.02881-9.87738 9.6038-8.12917-6.96786h-6.96786l-1.02257-7.16505-16.5857-2.89002 22.11166-49.34399c1.03972-29.0234-7.93977-49.24267-14.59042-78.26607 13.51485 9.26476 26.60102 18.32921 39.14161 27.64853 2.64217-2.46135 6.04037-4.41921 11.58972-4.94297 3.72554 6.22743 3.93364 11.45177 3.4395 16.47424 19.63004 15.63482 37.63736 32.46212 53.41715 52.49745l43.18126-75.20302-12.76272-7.0645-35.35372 33.57199c-19.73603-26.79586-48.35882-46.75637-79.41724-69.02391-2.34912-7.44719-5.68341-14.4283-9.5056-21.08674-2.61645 3.73802-6.13624 7.11049-9.06212 9.45026-5.70055 4.55951-15.81252 1.66948-18.19126-3.09657-2.37717-4.76683 8.6467-7.52747 6.19314-11.9989-2.45356-4.47222-13.3691 2.46135-17.03151-1.54868-3.66086-4.01002-4.6959-10.21017 0-15.48283 2.93679-3.29532 9.68018-4.68967 16.17261-4.64135a42.820389 42.820389 0 0 1 3.87207.20732c-6.86888-9.79475-13.1836-19.27307-16.76963-29.00002 22.96588 2.50189 45.92787 5.01312 67.6771 13.59435 4.4161 11.86017.92593 23.72112-3.83154 35.58129 3.51978.7116 7.58982.78486 11.23119-4.28515 9.45728-13.17191 15.8515-29.56743 11.21327-45.52804-1.07713-3.70684-31.1956-11.07999-60.63364-17.323 21.67519-2.72557 45.19757-4.52677 69.76123-5.80811 11.18598 3.87363 16.57478 15.15159 17.0128 31.38343 12.1431-5.87904 15.51012-12.04411 15.98243-20.86461.7303-13.62396-9.68953-25.46543-17.02995-27.682052-2.93055-.966459-107.118.204983-129.53284-3.121508z" fill="#775fa0" stroke-width="36"/><g transform="translate(-72.427485)"><path d="m264.63427 454.83598 20.3418-45.39453c.67088-21.32094-2.35363-43.6611-6.75-61.60743 3.20153 2.31846 20.29086 14.57484 29.71604 22.74606 22.6903 19.67151 45.19164 38.72542 64.35027 63.0508l16.48437 20.92969 77.77344-135.44727-43.91602-24.30859-40.875 38.8125c-24.98085-28.23697-56.17074-50.3728-88.46484-73.47657-1.13701-3.08138-2.34872-6.09939-3.66211-9.02734 8.56766 1.95723 18.54148 3.61236 25.54687 1.77734 17.63937-6.37285 27.88997-27.75978 33.14944-43.10942l25.10643-11.40039c18.38651-9.77221 29.35744-21.32984 30.63672-42.00881-.20551-23.6342-14.26008-47.1283-34.47265-53.64943-26.49899-2.60237-55.23586-1.50361-78.92578-1.69727-35.12441-.29306-73.83383-1.328722-86.83985-2.691406 1.30617-18.384535-4.73219-37.033862-16.80201-50.575824-18.42096-19.927134-41.29746-32.311351-65.40496-33.548129-16.33729-.0056-31.073415 5.601656-40.156245 17.239258-9.689318 12.414175-11.103064 29.262514-6.560547 44.576172 4.638088 15.637602 15.003857 30.549329 30.164072 42.365229v.002h.002c4.14871 3.23258 8.44299 6.02068 12.81445 8.4375-.48268 20.89262-1.75454 40.89509 1.38667 60.98437 1.95204 12.48405 6.7667 24.35946 10.74805 36.35157 11.80153 32.29158 27.75392 65.0664 45.1289 91.06445 13.55745 20.09943 28.94884 63.31218 30.72266 85.63476l-45.63086 115.67383 157.23047 1.64258 2.07227-53.77734c-18.30483-3.18859-36.60952-6.378-54.91405-9.56836zm28.05075-251.41996c-.98003 14.05141-4.82836 22.12369-9.78906 34.48828-9.38732-14.36972-18.59493-28.86748-28.23828-43.06838 13.1606 2.04862 25.92673 4.61227 38.02734 8.5801z"/><path d="m120.16493 32.179035c-10.812.018-19.293 3.666-24.505005 10.344-5.56 7.123-6.867 17.012-3.494 28.383 3.372 11.37 11.602005 23.646 23.973005 33.287995 12.372 9.64 26.29 14.625 38.15 15.125 11.856.5 21.136-3.178 26.696-10.3 5.56-7.124 6.866-17.011995 3.493-28.381995a50.804 50.804 0 0 0 -1.172-3.434c-8.79 6.754-14.632 18.57-22.014 13.644-2.02-1.347 4.205-17.284 13.49-28.98a75.225 75.225 0 0 0 -9.41-10.39l-25.328 12.17-13.696-12.644c2.028-1.745 18.215-4.463 31.54-5.603-11.69-8.362-24.503-12.712-35.532-13.176a50.13 50.13 0 0 0 -2.193-.045zm77.887 83.711995a41.26 41.26 0 0 1 -2.867 4.192c-9.75 12.493-25.473 17.895-41.658 17.213-5.973-.252-12.08-1.295-18.166-3.096-.692 8.702-.662 17.523-.018 26.373l7.3-3.37.5 16.885 12.91 2.485-7.448 14.898 17.38 15.395-16.388 6.457 8.444 9.435-6.967 6.45c10.697 28.977 25.217 55.522 39.002 75.956 16.78 24.877 33.407 70.446 34.106 98.352l-37.594 95.297 113.575 1.187.793-20.564-7.577-1.32-12.673 12.322-10.43-8.94h-8.94l-1.312-9.193-21.28-3.708 28.37-63.31c1.334-37.238-10.187-63.18-18.72-100.418 17.34 11.887 34.13 23.517 50.22 35.474 3.39-3.158 7.75-5.67 14.87-6.342 4.78 7.99 5.047 14.693 4.413 21.137 25.186 20.06 48.29 41.65 68.536 67.356l55.403-96.488-16.375-9.064-45.36 43.074c-25.322-34.38-62.046-59.99-101.895-88.56-3.014-9.555-7.292-18.512-12.196-27.055-3.357 4.796-7.873 9.123-11.627 12.125-7.314 5.85-20.288 2.142-23.34-3.973-3.05-6.116 11.094-9.658 7.946-15.395-3.148-5.738-17.153 3.158-21.852-1.987-4.697-5.145-6.025-13.1 0-19.865 3.768-4.228 12.42-6.017 20.75-5.955a54.94 54.94 0 0 1 4.968.266c-8.813-12.567-16.915-24.728-21.516-37.208 29.466 3.21 58.927 6.432 86.832 17.442 5.666 15.217 1.188 30.435-4.916 45.652 4.516.913 9.738 1.007 14.41-5.498 12.134-16.9 20.338-37.936 14.387-58.414-1.382-4.756-40.025-14.216-77.795-22.226 27.81-3.497 57.99-5.808 89.506-7.452 14.352 4.97 21.266 19.44 21.828 40.266 15.58-7.543 19.9-15.453 20.506-26.77.937-17.48-12.432-32.673-21.85-35.517-3.76-1.24-137.436.263-166.195-4.005z" fill="#775fa0" stroke-width="36"/></g></svg>