<svg height="500" viewBox="0 0 500 500" width="500" xmlns="http://www.w3.org/2000/svg"><g transform="translate(.000015)"><circle cx="-249.99998" cy="250" fill="#e51a1a" r="250" transform="scale(-1 1)"/><path d="m181.33938 83.856939c97.52275-31.84694 203.27597 26.159281 217.12696 131.568651 10.04116 85.89723-45.79566 162.6049-131.11288 174.6444-76.26503 6.65-147.16573-45.4981-149.44603-126.3231.16679-50.89801 30.03241-87.97493 76.60677-108.40662 44.00125-16.48183 90.46555-3.00917 112.28155 39.63622 17.95322 40.0953 3.57775 87.31302-40.4313 103.80676-21.98685 8.23292-51.6578-5.55285-56.72562-31.5612 24.48155 21.7253 69.7211 11.74379 80.1808-21.06198 5.24648-24.88185-11.48198-41.52298-24.36368-55.64156-23.21161-15.22125-63.26956-13.16738-85.32502 12.05139-41.51846 46.43224-18.48961 112.52397 35.72777 131.08081 60.66482 17.11352 118.96473-29.63961 126.96137-92.39988 2.7637-54.83226-40.99398-106.19486-96.51046-114.27807-76.21988-10.3001-138.45939 50.84936-147.743191 124.09106-9.31956 73.21828 47.315731 138.67973 111.863041 158.33924 49.05305 9.49897 98.18701 2.07129 139.64056-27.40671 82.90715-58.95602 100.11901-177.97214 43.55644-260.39974-52.71171-79.885311-158.575-103.987181-249.15842-67.061741-86.705021 39.45169-149.0660905 134.549061-117.102931 229.167621 15.77888-74.65377 50.93986-153.5943 123.407351-187.514491 9.28724-4.60517 19.44718-8.7232 30.56692-12.33106zm-160.722321 286.075591c-52.57825-113.8254-.38403-260.89182 113.777041-317.643861 10.84604-5.32012 22.21219-9.7712 34.03518-13.36069 115.76394-28.75816 246.03978 34.00351 263.68455 158.897471 10.04526 85.91695-27.72044 168.80365-107.97396 206.83173-102.24035 46.26108-224.798841-11.43986-234.690511-131.24969-7.33455-123.78718 127.307171-194.136761 222.718561-137.24102-42.54074-27.89653-94.21826-33.44528-140.80825-12.98978-71.17376 32.62266-105.080851 118.0397-80.762351 190.63139 30.697281 88.13423 123.572931 132.04164 212.817841 105.59803 82.80488-25.06359 132.16266-100.33164 140.19255-180.04986 12.12434-145.020371-132.23823-245.3588802-265.59709-221.973611 7.92036-4.10499 20.5989-8.4277792 35.61563-11.7452592 60.06317-13.23825 124.63426-3.45807 179.45368 32.4903392 109.65077 71.904621 141.09454 217.803071 65.16008 333.599141-143.00482 218.07486-377.311781 117.06797-437.622951-1.79433" fill="#b21a1a"/></g><path d="m0 0v108.01562l140.09766 181.17774-140.09766-109.28906v70.0957c.17104981 3.3306.40872807 6.65743.71289062 9.97852-1.08155011 17.91862-.18047724 35.92175 2.75195318 53.64257l96.6992162 40.01563-90.28906-12.26172c2.905002 9.69159 6.439256 19.24133 10.742188 28.55664 11.419247 22.50525 29.169286 44.29532 51.265624 63.45117l26.964844-3.60351-20.914062 8.68554c44.692506 36.44733 105.610926 61.9901 169.505856 61.35157.8532.0656 1.70672.12678 2.56055.18359 2.93641-.15787 5.86981-.36754 8.79883-.62891 2.52516-.14858 5.04927-.30989 7.58008-.54297 55.65831-3.65415 106.03916-25.38046 145.67578-59.17187l-22.38086-9.24023 28.52539 3.83984c28.49543-25.94345 50.90222-58.3442 65.0039-94.82617l-95.54882 12.74023 105.19531-43.3164c4.61629-18.89206 7.09896-38.59991 7.15039-58.85352-.006-3.82587-.0997-7.6511-.28125-11.47266l.08203-69.74218-148.7168 114.42968 148.8086-192.173824.10742-91.041016h-116.24219l-102.74609 252.66211 33.84766-252.66211h-143.38477l33.6543 251.23242-102.54297-251.23242z" fill="#861313"/><path d="m403.18945 0-125.28515 308.08594c-6.79287-2.36405-14.31481-5.27309-21.63868-6.26367l40.43165-301.81836375h-107.06055l40.42969 301.81640375c-7.37429.78995-14.77492 2.9525-21.63868 5.12696l-125.283199-306.94336375h-83.144531v78.58593775l184.50781 238.607426c-7.05074 4.28483-12.89984 9.09722-18.79297 14.80859l-165.71288687-129.27148v47.29296c.17094524 3.32145.40760843 6.63919.71093749 9.95118-.66699514 11.05046-.50672647 22.12905.32812498 33.16015l147.5917944 61.07617c-4.29431 7.04546-7.61528 14.80644-10.25195 22.77735l-121.763672-16.53711c1.284225 3.17317 2.556142 6.35079 4 9.47656 8.358514 16.47311 20.130926 32.56467 34.46875 47.53516l77.033202-10.29297c-.27327 8.61093.66941 17.68875 2.27734 27.33594l-39.86523 16.55273c12.85695 8.93024 26.8041 16.87184 41.48633 23.71484l11.48047-8.94531c4.03037 6.97552 8.52901 13.39608 13.80859 19.27344 27.18808 9.53244 56.32563 15.00881 86.13281 14.71094.84409.06487 1.68851.12534 2.53321.18164h.05468c2.92727-.15771 5.85158-.3664 8.77149-.62696 2.52516-.14858 5.04927-.30989 7.58008-.54297 18.70761-1.22821 36.79547-4.55646 54.10937-9.63281l-.4414-.58984c6.91733-6.91729 12.76961-14.22341 17.65429-22.77735l14.92578 11.48243c15.28153-6.88448 29.73586-15.22834 43.17383-24.89258l-46.14062-19.05078c1.56248-7.80385 2.29374-17.48028 2.27734-26.19531l82.32227 11.08203c16.23399-17.70913 29.91206-37.75059 40.53125-59.54493l-128.55079 17.14258c-2.5915-7.56284-6.72339-14.92096-10.82031-21.63867l161.63086-66.55469c1.89329-12.29299 2.91673-24.86344 2.94922-37.6582-.00595-3.82586-.09973-7.6511-.28125-11.47266l.05469-47.00976-182.58008 140.48633c-5.12944-4.89306-10.51355-9.26347-16.51172-13.09766l199.24609-257.310547.07227-61.595703z" fill="#ff8066" stroke-width="36"/></svg>