<svg height="500" viewBox="0 0 500 500" width="500" xmlns="http://www.w3.org/2000/svg" xmlns:xlink="http://www.w3.org/1999/xlink"><filter id="a" color-interpolation-filters="sRGB" height="1.03726" width="1.037743" x="-.018871" y="-.01863"><feGaussianBlur stdDeviation="3.5738343"/></filter><g transform="translate(-1000 -500)"><circle cx="1250" cy="750" fill="#8f29a3" r="250"/><path d="m1250.0521 500.09326-.061 248.75004-15.9199-248.2399a249.99917 250.18666 0 0 0 -31.6776 4.06945l45.0428 231.17052c-.102.0363-.2268.0547-.3789.0547l2.377 12.94521-.25-.53361-.5352-1.34279-3.3574-10.61339c-.1814.0698-.3456.12506-.5117.12506l-.1211.0782-83.1951-220.24831a249.99917 250.18666 0 0 0 -14.7401 6.13348l96.9 214.60543-.2187.11532 2.3047 4.43886 2.3437 5.21678.055.0488.416.7486.7461 1.26658v.0314l-.7461-1.29782-.4707-.79746-5.5273-9.21c-.1841.12151-.3808.23754-.5664.39678l-123.4077-200.53639a249.99917 250.18666 0 0 0 -34.1776 25.40763l164.5483 186.40079-.3984-.58052.832 1.02616v.0508l-.3262-.32448-.094-.12903v-.006-.002l-176.1809-175.46484a249.99917 250.18666 0 0 0 -21.0273 24.05115l186.5306 143.42536-.1425.18569 10.4687 8.26398-2.0957-1.07698-9.4082-5.66242c-.1395.18156-.2273.33335-.3066.47301l-208.0031-109.74966a249.99917 250.18666 0 0 0 -7 14.40723l214.5266 96.34337c-.074.17741-.1655.3791-.2578.59419l12.1758 4.73596-.037-.0253.5254.23653-.4863-.21109.3574.18179.2129.0802-.2129-.0508v-.0295l-12.8066-4.08117c-.056.14944-.1255.33501-.1758.5082l-224.9661-68.33223a249.99917 250.18666 0 0 0 -8.7656 41.69908l246.1613 30.77687h-1.2363l-246.3644-14.82161a249.99917 250.18666 0 0 0 -.4219 14.51082 249.99917 250.18666 0 0 0 .6113 17.47203l234.4934-16.18786h-.027l.3066-.0234-.2773.0234 12.9687-.73492-7.6699 1.8549-.3028.0508-4.789.9382.07.23845-228.2004 55.91086a249.99917 250.18666 0 0 0 4.2871 15.37279l224.173-70.26921c.093.36314.1859.69573.2793.95971l11.9648-4.46623-6.7285 3.52803-218.2141 100.03556a249.99917 250.18666 0 0 0 21.0155 36.99246l204.0072-139.70972-2.9414 2.38851-191.599 150.2058a249.99917 250.18666 0 0 0 21.2792 23.80097l164.7143-167.43742c.2793.26396.5666.50585.8359.80333l7.6309-8.62753v-.0314l.7578-.86587.1855-.23653.7754-.84633.02-.0645.057-.0272-.023.15832-.1035.11531.051-.18179-.068.18179-1.3203 1.73762.6133-1.0457-.1856.20916-.7578.89715-2.5996 3.67852-4.2753 5.57643.287.1818-133.9214 192.92518a249.99917 250.18666 0 0 0 13.3768 8.68037l121.3629-200.99764c.1115.0698.2562.1641.4043.23263l6.9082-11.76855-.2793.71929-100.1481 226.51466a249.99917 250.18666 0 0 0 40.1346 13.79743l59.6931-236.78211-1.5742 9.22563.2364.0566-42.7675 230.89101a249.99917 250.18666 0 0 0 31.6386 3.76263l12.9316-234.50119c.2415.0238.455.0234.6602.0234h.031v-12.36276l.055-.87175.3809 3.35211.6328 9.85892c.1939 0 .3385-.0234.5058-.0234l27.248 233.23258a249.99917 250.18666 0 0 0 15.7831-2.3455l-42.1484-231.0161c.254-.028.4739-.0916.707-.11531l-2.0644-10.71502-.055-.13878-.3203-1.79235.018.0295.3575 1.90182 74.3923 234.18055a249.99917 250.18666 0 0 0 39.205-16.19959l-111.1503-215.75097 4.1406 6.7179.2696-.18569 120.6715 201.44522a249.99917 250.18666 0 0 0 26.2108-18.10533l-145.5071-184.32505c.254-.18717.4204-.39029.6562-.60397l-8.457-9.554 3.3672 3.03156 5.8437 5.83834.2872-.30686 174.8256 156.82795a249.99917 250.18666 0 0 0 10.2715-12.18293l-184.478-145.35845c.1296-.15783.305-.33279.4082-.48083l-9.3632-7.21437 211.5852 126.78601a249.99917 250.18666 0 0 0 18.7245-38.19257l-229.6555-89.16613 11.0274 3.36579.012-.18569 223.9289 70.91228a249.99917 250.18666 0 0 0 7.6836-30.99187l-231.1887-41.80463c0-.16199.037-.30149.037-.44955l-7.3671-.90693-4.5508-.79941 12.0312.70755c.03-.32965.029-.62841.029-.96361l235.009 1.78454a249.99917 250.18666 0 0 0 .011-2.19892 249.99917 250.18666 0 0 0 -.3809-13.81303l-234.6691 13.37131v-.33226l-11.7754.81114-2.207.14075 2.1641-.14075h.043l242.6422-45.60435a249.99917 250.18666 0 0 0 -11.2772-41.04821l-231.0032 85.65376-.2598.0684 10.5078-4.79069c-.1716-.35894-.395-.80876-.6601-1.20402l208.1651-109.51534a249.99917 250.18666 0 0 0 -7.877-13.90491l-200.7337 122.63837-.2109-.32833-5.6211 3.9033-4.707 2.86542 9.6699-7.59747-.1446-.20719 183.392-147.45376a249.99917 250.18666 0 0 0 -29.3651-30.85701l-161.2514 182.96656-2.3184 2.37091 151.2905-195.53064a249.99917 250.18666 0 0 0 -26.4154-17.96062l-119.2496 202.94829-.094-.0664-7.0644 11.68841 5.539-12.45265c-.2748-.15364-.5655-.24794-.8711-.35962l83.404-220.18189a249.99917 250.18666 0 0 0 -15.121-5.19332l-69.2811 225.07807c-.1088-.0378-.2229-.0651-.3808-.11531l-1.8809 7.53882-1.1289 3.69807 2.1055-11.46558c-.2011-.0197-.4082-.0561-.6133-.0743l40.1268-232.08917a249.99917 250.18666 0 0 0 -42.4354-3.64138zm-1.9453 235.66215 1.0117 8.77021v.043l.8711 4.45646v.46128l.029-.16807.023.62741v.1036l-.057-.1036v-.43977l-.066.30686-.2383-.49451-.5625-4.74964zm-9.3652 5.00568 7.0859 6.37391-.025-.0197zm25.7675 6.02013-11.8261 2.9006h-.057zm-12.1504.11531-1.6269 2.78332-.3496.40069.1113-.44954-.092.20719-.02.18179-.051.10553v-.0253l.051-.0802v-.16221l.02-.0197v-.10556l.012-.0234.082-.12118v-.0234l.033-.0272.061-.1505v.0197l-.061.13096-.033.0508zm-6.5292.23849 3.3242 2.54682.3633.56682-.4493-.16807.2012.13878h-.022l-.2188-.13878h.037zm5.0331.24627-.2968 1.58908.2968-.84047-.3339 1.37603-.1016.1505.1387-.68606.2617-1.56758zm-.582.38505-.086 1.71808-.057.19351-.1172-.46715zm3.1445.7447-2.2754 1.58908h-.023l-.4121.27757-.2871.11728.2129-.27557.074-.0215.8867-.71342zm-4.0429.57856.1348.14075v.0469l-.084-.1251zm3.8633.31665h.029l-.1738.0802zm-3.5254.18179.1835.3577v.0392l-.1835-.35376zm.416.0938.02.26385v.0392l.039.0958.047.11728-.047.0215-.039-.1192.039-.0197-.039-.0605v-.0352l-.057-.26192zm2.2207.0644-.07.0272-1.0156.30686.1562-.0605zm-5.6387.0665 2.3692.40655.3457.21498.029.0606-.3124.0644zm2.1641.31271h.053l.094.0314zm.7265.19155h.02v.0196zm-.164.0606h.02l.074.0802zm.2148.1818h.024l-.024.0314zm-.3359.16808h.057l.2461.0352-.8125.32836zm-.3887.0352h.2168l-.9316.47886.2637-.0527-.025.0272-.2383.0253-2.0253.39287v.0234l-5.2422.93428 5.2422-.95774zm1.7774.0234.5078.043.7519.2228-.8457-.0841zm-.2188.16418.035.0178.1113.22088.3282.16611 1.4394 1.4034-1.3496-1.00858-.2344-.2971-.1855-.26385-.018-.0333-.092-.18766h-.035zm-1.0625.0802-.25.27364h-.029l-2.7812 1.26461 2.2988-1.41316zm1.5703.0997.1485.0253.031.0314zm.2207.0253 1.9356.60398-1.9063-.57074zm-1.1796.17201.031.1251.022-.0978-.022.13092v.006l.076.23066.125 1.89594-.2324-1.35256.031-.77402-.088.50819v-.0919l-.031-.18569.031.14272v-.26385zm.7226.0919.061.0664.088.14661-.037-.0314zm-1.1406.1818-.2442.52578-3.9492 12.85138 3.9219-12.85138h.027l.084-.28732.01-.0117zm-.088.10552-.065.11339.041-.0978zm1.4648.0802.033.0234.1152.18962-.092-.0919zm-.4375.21306.023.0295.029.22669zm-1.7304.26581v.0295l.051-.0295zm2.2929 1.35257 4.8828 10.7893-4.8828-10.73457z" fill="#aa40bf"/></g><g><path d="m177.39014 36.383358c-5.52201 4.421181-10.74122 9.053021-15.66036 13.862066a8.0008 8.0008 0 0 0 -.19156.58726 8.0008 8.0008 0 0 0 -.88909-.06715c-6.59969.765104-13.2517 1.871633-19.91859 3.259109a8.0008 8.0008 0 0 0 -.002.000685c-.23307.04851-.46319.0649-.69631.114175l.11265.297792a8.0008 8.0008 0 0 0 -1.84467 1.299103c.52655.968561 1.77103 3.26146 2.61406 4.812166a8.0008 8.0008 0 0 0 -.97892.873836l-1.78244-5.582504a8.0008 8.0008 0 0 0 -3.39131 10.132314c.66782 1.154531 1.33647 2.310569 2.0051 3.464564a8.0008 8.0008 0 0 0 1.01414.890434 8.0008 8.0008 0 0 0 .10089.911063c.90716 1.470046 1.87161 2.935134 2.9298 4.360533a8.0008 8.0008 0 0 0 .90994.604122 8.0008 8.0008 0 0 0 .25191.897664c.004.0042.007.0084.011.01264l-.002.000684a8.0008 8.0008 0 0 0 .008.0035c1.09423 1.364232 2.27169 2.694467 3.57228 3.950017a8.0008 8.0008 0 0 0 1.15336.513444 8.0008 8.0008 0 0 0 .38685.885964c1.3434 1.149166 2.78842 2.198496 4.35848 3.100599a8.0008 8.0008 0 0 0 1.47033.265053 8.0008 8.0008 0 0 0 .67339.833634c1.98058.890587 4.15871 1.529022 6.45343 1.781068a8.0008 8.0008 0 0 0 5.99652-2.27816c2.03134.797715 4.05964 1.599581 6.03262 2.458006a8.0008 8.0008 0 0 0 .0225.0105c.25649.110638.51231.221997.76785.333675a8.0008 8.0008 0 0 0 10.93039-5.25452c.0724-.269185.14498-.53942.21887-.809204a8.0008 8.0008 0 0 0 .00054-.0043c.57056-2.087748 1.21782-4.174397 1.87157-6.261892a8.0008 8.0008 0 0 0 5.59141-3.2427c1.2379-1.934921 2.10397-4.017653 2.65555-6.106603a8.0008 8.0008 0 0 0 .11716-1.659693 8.0008 8.0008 0 0 0 .37791-.686267c.28688-1.779018.38268-3.55295.33868-5.311135a8.0008 8.0008 0 0 0 -.29293-1.404432 8.0008 8.0008 0 0 0 .18018-.664181c-.15317-1.800271-.44078-3.554882-.80801-5.263741a8.0008 8.0008 0 0 0 -.48965-1.230986 8.0008 8.0008 0 0 0 .0606-.610251c-.46207-1.819241-1.01297-3.591941-1.61934-5.311391a8.0008 8.0008 0 0 0 -.57064-.985347 8.0008 8.0008 0 0 0 -.15774-.661738c-.47145-1.240899-.9422-2.48049-1.41459-3.721059a8.0008 8.0008 0 0 0 -12.47729-3.398399zm70.81224-18.083201c-7.8093 4.4239-12.08258 12.115075-13.38395 20.133581-7.14047-4.319334-15.86434-5.965184-24.26969-3.099066a8.0008 8.0008 0 0 0 .76578 15.36386c.26559.06191 1.20963.611135 1.76018 1.375466.55055.76433.50777 1.400912.56017 1.122179a8.0008 8.0008 0 0 0 8.98142 8.983625c.0899.195996.4543.57905 1.05614 2.404907a8.0008 8.0008 0 0 0 10.09607 4.982168c3.69386 5.072431 10.73676 7.528134 16.78838 4.809822 6.24872-2.806855 9.38706-9.482885 8.06113-15.970189a8.0008 8.0008 0 0 0 3.63467-10.817375c-.88357-1.646548-.90849-2.040025-1.03078-2.403743a8.0008 8.0008 0 0 0 -.98322-13.168833c.0282.01543-.56388-.522908-.83609-1.429132-.27217-.906243-.063-1.824605-.0945-1.761421a8.0008 8.0008 0 0 0 -11.10571-10.525849zm-126.04962 62.300318c-3.38361.991833-6.41259 2.667548-8.87021 4.833074-2.63026 2.317626-4.56504 5.131247-5.86333 8.057722-.19764.445442-.22364.914162-.39273 1.365083-.88717.373931-1.79225.694671-2.62863 1.212397-.61519.380808-1.06495.922359-1.62422 1.362278-6.613115-1.405819-14.053364-.665912-20.555713 3.707161a8.0008 8.0008 0 0 0 -2.054985 10.1094l-1.295741-.61336c2.784577 7.76927 7.39151 13.62686 13.477072 16.67553 3.102889 1.55433 6.792646 2.03157 10.388417 1.57099 1.05266 1.96298 2.36992 3.76746 4.02737 5.20605a8.0008 8.0008 0 0 0 9.78939.54194c2.64841-1.82851 4.76357-4.35571 6.20234-7.11486 3.36397.30797 6.91227-.20521 9.89981-1.93006a8.0008 8.0008 0 0 0 3.72681-9.00523c-.41629-1.54896-1.14679-3.02799-2.00254-4.45692 2.04219-2.58641 3.15191-5.82868 3.33888-8.88897.40353-6.60851-2.17566-12.998244-6.7602-19.54428a8.0008 8.0008 0 0 0 -8.80179-3.087945zm168.9294-51.419231a8.0008 8.0008 0 0 0 -3.20522 2.112308c-5.6036 6.066025-8.67892 12.850699-8.57766 19.65626.0518 3.472875 1.3322 6.969803 3.40384 9.951597-1.25945 1.841235-2.25684 3.844608-2.76956 5.981821a8.0008 8.0008 0 0 0 4.01277 8.923517c2.8621 1.527464 6.10661 2.24768 9.24359 2.25164 1.28762 3.161339 3.40357 6.109454 6.3548 7.985877a8.0008 8.0008 0 0 0 9.69754-.85255c1.20033-1.099846 2.18569-2.450824 3.06453-3.892232 3.27749.629838 6.71832.09932 9.55628-1.183565 6.08934-2.752921 10.55369-8.086747 14.19202-15.275162a8.0008 8.0008 0 0 0 -1.42627-9.212292c-2.47296-2.5226-5.3784-4.411401-8.45059-5.566522-3.28715-1.235953-6.6852-1.62586-9.88278-1.403769-.48816.03388-.91677.230423-1.39641.292091-.74403-.612387-1.4478-1.266206-2.29544-1.766774-.62333-.368101-1.31251-.514074-1.96209-.80522-1.85034-6.656619-6.06065-13.065393-13.21378-16.763043a8.0008 8.0008 0 0 0 -6.34557-.433982zm-238.441054 97.339926a8.0008 8.0008 0 0 0 -3.076476 5.82956c-.549648 9.02596 3.639553 16.83662 9.73023 22.27935-7.551024 3.76664-13.670023 10.39693-15.655441 19.22066a8.0008 8.0008 0 0 0 1.44017 6.60082s6.365706-4.84435 6.365706-4.84435l-6.237003 5.00951 9.18138-2.12792 2.772958 2.71327c.22869-.23373 1.176367-.73628 2.113966-.80475.937595-.0685 1.477764.29896 1.289918.12911a8.0008 8.0008 0 0 0 12.306741-2.88926c.229514.0279.721313-.0745 2.561014.38353a8.0008 8.0008 0 0 0 9.38421-5.78503c6.263127-.33777 12.2051-4.9402 13.160391-11.51385.983285-6.76628-2.924888-12.96422-9.086917-15.35523a8.0008 8.0008 0 0 0 -7.098467-8.90409c-1.860977-.15366-2.203285-.34331-2.579224-.43926a8.0008 8.0008 0 0 0 -11.593431-6.32651c.01743-.009-.766365.19436-1.672518-.0668-.906163-.26111-1.549991-.92657-1.509395-.85775a8.0008 8.0008 0 0 0 -11.797812-2.25106zm61.268974-16.89813c.009.10155.12726.33793.12613.34068l-.2373-.0695a8.0008 8.0008 0 0 0 .11121-.27119zm132.25354-47.082571.0189.103293c-.10814.07502-.18365.173089-.30397.227031-.23381.104819-.49944.130795-.75402.149734a8.0008 8.0008 0 0 0 .81119-.386705 8.0008 8.0008 0 0 0 .22789-.09338zm58.50495-.6964a8.0008 8.0008 0 0 0 .43867-.06821c-.15392.119191-.3558.396559-.35247.39641zm51.05272-7.305959a8.0008 8.0008 0 0 0 -.11127.0883 8.0008 8.0008 0 0 0 -.34216.27627 8.0008 8.0008 0 0 0 -3.55876 2.854132c-.71663 1.125126-1.43122 2.24988-2.14691 3.375344a8.0008 8.0008 0 0 0 -.28417 1.155134 8.0008 8.0008 0 0 0 -.66935.422373c-.93722 1.55473-1.8324 3.172907-2.65024 4.853435a8.0008 8.0008 0 0 0 -.0722.681 8.0008 8.0008 0 0 0 -.32182.25224 8.0008 8.0008 0 0 0 -.1504.917302l-.25251-.128412c-.70966 1.60649-1.34688 3.275061-1.86359 5.016072a8.0008 8.0008 0 0 0 .0758 1.258981 8.0008 8.0008 0 0 0 -.60968.751918c-.40034 1.722407-.6644 3.4915-.74117 5.301738a8.0008 8.0008 0 0 0 .44309 1.42876 8.0008 8.0008 0 0 0 -.42857.981139c.12256 2.170127.55799 4.398148 1.39194 6.553951a8.0008 8.0008 0 0 0 4.8097 4.283216c.23667 2.204329.4645 4.406738.62319 6.594725a8.0008 8.0008 0 0 0 .003.0259c.0213.28261.042.56297.062.84416a8.0008 8.0008 0 0 0 9.68842 7.2485c.27621-.0604.55231-.1195.82677-.17829a8.0008 8.0008 0 0 0 .004-.001c2.15568-.46287 4.3506-.86371 6.54898-1.25709a8.0008 8.0008 0 0 0 5.50797 3.4949c2.30951.19603 4.57672-.0129 6.69921-.50742a8.0008 8.0008 0 0 0 1.53481-.6771 8.0008 8.0008 0 0 0 .79178.0111c1.72098-.58627 3.34667-1.34286 4.89039-2.21643a8.0008 8.0008 0 0 0 1.11272-.92878 8.0008 8.0008 0 0 0 .67293-.15553c1.52822-.99108 2.95192-2.07742 4.29587-3.21595a8.0008 8.0008 0 0 0 .82704-1.00562 8.0008 8.0008 0 0 0 .60481-.25131c1.39639-1.27493 2.71042-2.60803 3.94924-3.962746a8.0008 8.0008 0 0 0 .7497-1.212348 8.0008 8.0008 0 0 0 .36671-.214558c.87954-1.009119 1.75832-2.018237 2.6371-3.027907a8.0008 8.0008 0 0 0 -2.91528-12.617759c-6.49647-2.751906-13.03646-5.181073-19.58946-7.286307a8.0008 8.0008 0 0 0 -.60636.104309 8.0008 8.0008 0 0 0 -.34968-.812205c-3.87432-5.687079-8.05771-11.265612-12.55281-16.70015l-.1091.122822a8.0008 8.0008 0 0 0 -1.76497-1.776947 8.0008 8.0008 0 0 0 -7.03646-.664727zm-325.006391 144.14053a8.0008 8.0008 0 0 0 -2.626661 6.75704c.705512 7.0654 1.761522 14.01505 3.171766 20.81502a8.0008 8.0008 0 0 0 .601441.73305 8.0008 8.0008 0 0 0 -.758078.56689c-3.00756 6.28632-5.734255 12.85539-8.145628 19.70687l.647974.1071a8.0008 8.0008 0 0 0 -1.072322 2.70156 8.0008 8.0008 0 0 0 8.467263 7.17127l-.671106.6745c1.342451.0292 2.686766.0577 4.03019.0857a8.0008 8.0008 0 0 0 1.140099-.35675 8.0008 8.0008 0 0 0 .706619.35388l.0019-.00068a8.0008 8.0008 0 0 0 .0062-.00014c1.831477-.006 3.690979-.0827 5.561761-.25761a8.0008 8.0008 0 0 0 .601452-.2834 8.0008 8.0008 0 0 0 .244668.13543 8.0008 8.0008 0 0 0 1.030295-.39575l.02012.32938c1.750312-.22879 3.512935-.5501 5.273027-1.01093a8.0008 8.0008 0 0 0 1.039368-.71916 8.0008 8.0008 0 0 0 .96069.13253c1.682115-.5487 3.328974-1.23335 4.915276-2.09662a8.0008 8.0008 0 0 0 .988525-1.11012 8.0008 8.0008 0 0 0 1.063903-.13781c1.790806-1.21451 3.473347-2.72318 4.891362-4.53221a8.0008 8.0008 0 0 0 1.500403-6.4365c1.632341-1.18952 3.263339-2.38436 4.916033-3.49363a8.0008 8.0008 0 0 0 .02181-.0143c.228799-.15458.457898-.30699.686858-.45992a8.0008 8.0008 0 0 0 1.402779-12.11261c-.188144-.20153-.374204-.40329-.561519-.60623a8.0008 8.0008 0 0 0 -.0032-.003c-1.365943-1.47825-2.685711-3.03404-4.007323-4.58566a8.0008 8.0008 0 0 0 .05527-6.66084c-.9564-2.07837-2.234997-3.92795-3.688045-5.51869a8.0008 8.0008 0 0 0 -.412707-.1574 8.0008 8.0008 0 0 0 -1.284824-1.52562c-1.336106-1.20282-2.772232-2.24498-4.270552-3.1617a8.0008 8.0008 0 0 0 -.446048-.0434 8.0008 8.0008 0 0 0 -1.350909-.98195c-1.593127-.84861-3.220227-1.56215-4.853627-2.18251a8.0008 8.0008 0 0 0 -.427168.037 8.0008 8.0008 0 0 0 -1.349986-.67675c-1.777752-.60089-3.567442-1.10166-5.34052-1.52726a8.0008 8.0008 0 0 0 -.590013.13781 8.0008 8.0008 0 0 0 -1.186715-.42233c-1.297785-.27854-2.596913-.55588-3.894914-.83335a8.0008 8.0008 0 0 0 -7.005186 1.85962zm375.644381-92.83643a8.0008 8.0008 0 0 0 -6.40176 9.87907c.0649.2523.016 1.34434-.40918 2.1879-.42521.84356-1.01215 1.10224-.7426 1.02061a8.0008 8.0008 0 0 0 -3.82117 12.13234c-.13077.16863-.31278.69647-1.67155 2.0945a8.0008 8.0008 0 0 0 .29484 11.26609c-2.85776 5.67262-1.75526 13.12692 3.50729 17.28837 5.4437 4.30464 12.96138 3.93865 18.10894-.3848a8.0008 8.0008 0 0 0 11.2553-1.77494c1.14424-1.72074 1.66874-2.08211 1.81701-2.26592a8.0008 8.0008 0 0 0 11.06207-6.88c-.00032.0345.1948-.74613.88531-1.42798.6905-.68185 1.64177-.95324 1.61132-.95229a8.0008 8.0008 0 0 0 4.00178-14.77122c-7.60552-4.77341-16.42057-4.93236-24.1488-2.31583.5315-8.35481-2.0471-16.87079-8.48461-23.00291a8.0008 8.0008 0 0 0 -6.86419-2.09299zm-365.385835 168.93883a8.0008 8.0008 0 0 0 -2.769965 4.04483c-1.006353 3.38602-1.242726 6.84533-.753598 10.09298.523364 3.47508 1.846385 6.63582 3.612742 9.32061.274442.41719.66421.70009.95981 1.09521-.164439.96642-.381237 1.91932-.391612 2.92144-.0077.74843.214786 1.44195.292324 2.17369-4.816304 4.99524-8.238291 11.97251-7.756862 20.16396a8.0008 8.0008 0 0 0 .000684.002 8.0008 8.0008 0 0 0 3.990189 6.46875 8.0008 8.0008 0 0 0 2.28867.88588c8.174244 1.78581 15.671774.85564 21.454738-2.77898 2.951154-1.85493 5.279172-4.75986 6.761398-8.06867 2.241676.12923 4.48467-.0546 6.589024-.7188a8.0008 8.0008 0 0 0 5.580647-8.06915c-.172454-3.13333-1.180665-6.1971-2.727369-8.82394 2.021164-2.64243 3.455315-5.86145 3.605266-9.24782a8.0008 8.0008 0 0 0 -5.643456-8.0016c-1.514494-.46504-3.13792-.63767-4.787273-.68107-1.080562-3.08291-3.191962-5.73662-5.64048-7.53087-5.321274-3.8991-12.072779-5.209-20.056162-4.91949a8.0008 8.0008 0 0 0 -4.608749 1.67106zm363.726635-123.24455a8.0008 8.0008 0 0 0 .2038.15445 8.0008 8.0008 0 0 0 -.026.0656c-.0606-.0755-.12925-.1405-.17778-.22004zm-346.67884 149.91901c.171496.073.508234.10665.508975.10781l-.246063.2205a8.0008 8.0008 0 0 0 -.262912-.32831zm388.61049-128.85127c-1.64384.57042-3.19683 1.30903-4.64257 2.21769-2.95116 1.85494-5.27918 4.75985-6.76141 8.06867-2.24168-.12922-4.4865.0552-6.59085.71947a8.0008 8.0008 0 0 0 -5.57881 8.06848c.17245 3.13332 1.18066 6.1971 2.72736 8.82395-2.02115 2.64242-3.45714 5.86212-3.60709 9.24848a8.0008 8.0008 0 0 0 5.64528 8.00093c1.5145.46504 3.13793.63767 4.78728.68107 1.08058 3.08292 3.19015 5.73731 5.63865 7.53154 5.32125 3.89908 12.0746 5.20833 20.05799 4.91882a8.0008 8.0008 0 0 0 7.37683-5.71535c1.00635-3.38602 1.24273-6.84532.7536-10.09299-.52337-3.47507-1.84454-6.63648-3.61091-9.32129-.27444-.41717-.66421-.70008-.95981-1.09519.16444-.96644.38125-1.91931.39161-2.92146.008-.74842-.21479-1.44194-.29232-2.17368 4.81915-4.99819 8.24213-11.98051 7.75586-20.17815l-.73558 3.85518-1.14749 2.46079-2.40935 1.25521a8.0008 8.0008 0 0 0 -1.98611-14.91346c-6.13068-1.33935-11.88065-1.14997-16.81216.56129zm-371.963562 159.87222a8.0008 8.0008 0 0 0 -3.435433 2.89032c-1.144241 1.72072-1.668736 2.0821-1.817012 2.26591a8.0008 8.0008 0 0 0 -11.062071 6.88001c.00036-.0345-.195463.74429-.885975 1.42614-.690513.68185-1.643619.95391-1.613154.95295a8.0008 8.0008 0 0 0 -3.999279 14.77239c7.605387 4.77333 16.418839 4.93287 24.146968 2.3165-.531129 8.35439 2.047446 16.87111 8.484615 23.00292a8.0008 8.0008 0 0 0 6.395136 2.1577 8.0008 8.0008 0 0 0 6.870809-9.94378c-.0649-.25232-.01669-1.34619.408511-2.18975.425206-.84356 1.012163-1.10223.74259-1.02061a8.0008 8.0008 0 0 0 3.966967-12.31426c.19415-.30032.2862-.63597 1.5276-1.91325a8.0008 8.0008 0 0 0 -.35988-11.13641c2.93931-5.68792 1.85988-13.22532-3.44226-17.41804-5.411362-4.27909-12.876416-3.9454-18.021515.30517a8.0008 8.0008 0 0 0 -7.906617-1.03391zm371.555322-130.7622c-.026.36553-.0995.65136-.2015.85692-.26385-.0883-.66153-.13979-.6625-.1413zm2.8312 42.3618c-1.68212.5487-3.32892 1.23323-4.91528 2.09662a8.0008 8.0008 0 0 0 -.51979.58202 8.0008 8.0008 0 0 0 -1.53264.66591c-1.79086 1.21454-3.47336 2.72318-4.89136 4.53221a8.0008 8.0008 0 0 0 -1.24048 6.24835c-1.71786 1.25725-3.43613 2.51173-5.17662 3.67994a8.0008 8.0008 0 0 0 -.0218.0143c-.22873.15455-.45718.30878-.68619.46176a8.0008 8.0008 0 0 0 -1.40345 12.11076c.1881.20149.37475.40502.56219.60807a8.0008 8.0008 0 0 0 .003.003c1.43865 1.55693 2.83088 3.18994 4.22031 4.82821a8.0008 8.0008 0 0 0 -.26893 6.41644c.9564 2.07835 2.23497 3.92794 3.68805 5.5187a8.0008 8.0008 0 0 0 .99397.37816 8.0008 8.0008 0 0 0 .70357 1.30486c1.33615 1.20289 2.7729 2.24683 4.27122 3.16353a8.0008 8.0008 0 0 0 .959.0937 8.0008 8.0008 0 0 0 .83795.9317c1.59318.84866 3.21964 1.56035 4.85296 2.18069a8.0008 8.0008 0 0 0 .87653-.0759 8.0008 8.0008 0 0 0 .90129.71744c1.77781.60092 3.5675 1.10166 5.34052 1.52724a8.0008 8.0008 0 0 0 .93256-.21886 8.0008 8.0008 0 0 0 .84415.50335c1.29782.27856 2.59689.55589 3.89492.83336a8.0008 8.0008 0 0 0 9.63118-8.61851c-.70553-7.06538-1.76334-14.01436-3.1736-20.81435a8.0008 8.0008 0 0 0 -.37741-.8998 8.0008 8.0008 0 0 0 .53586-.4008c3.00755-6.28632 5.73427-12.85539 8.14563-19.70686l-.74961-.14078a8.0008 8.0008 0 0 0 .5683-4.14347 8.0008 8.0008 0 0 0 -7.48573-5.95928l.29522-.4109c-1.34252-.0293-2.68613-.0559-4.02952-.0839a8.0008 8.0008 0 0 0 -.71428.22465 8.0008 8.0008 0 0 0 -1.30213-.21403c-1.77989.01-3.58543.0816-5.40189.25138a8.0008 8.0008 0 0 0 -.52892.2486 8.0008 8.0008 0 0 0 -.25116-.10189 8.0008 8.0008 0 0 0 -1.09468.41301l-.02-.34608c-1.75024.2288-3.51285.55008-5.27302 1.01094a8.0008 8.0008 0 0 0 -.56824.39181 8.0008 8.0008 0 0 0 -1.43182.19482zm-329.58316 145.46547c-1.72098.58626-3.34664 1.34283-4.89038 2.21642a8.0008 8.0008 0 0 0 -.55093.79912 8.0008 8.0008 0 0 0 -1.2354.28337c-1.52829.99112-2.95129 2.07931-4.2952 3.21779a8.0008 8.0008 0 0 0 -.36269.81375 8.0008 8.0008 0 0 0 -1.06915.4432c-1.39637 1.27492-2.71041 2.608-3.94924 3.96274a8.0008 8.0008 0 0 0 -.26137.92652 8.0008 8.0008 0 0 0 -.85504.50036c-.87956 1.00913-1.75833 2.01824-2.637106 3.0279a8.0008 8.0008 0 0 0 2.915046 12.61743c6.49648 2.7519 13.03648 5.18108 19.58946 7.28631a8.0008 8.0008 0 0 0 .85482-.14693 8.0008 8.0008 0 0 0 .1012.85482c3.87432 5.68707 8.05769 11.26562 12.55281 16.70016l.51745-.577a8.0008 8.0008 0 0 0 1.43209 1.28495c.58974-.81227 2.10072-2.89567 3.1892-4.39488a8.0008 8.0008 0 0 0 6.85654.52444l.91713 2.3599c.71655-1.12501 1.43185-2.24798 2.14758-3.37351a8.0008 8.0008 0 0 0 .34086-.73098 8.0008 8.0008 0 0 0 .61199-.84836c.93722-1.55474 1.8324-3.17293 2.65025-4.85343a8.0008 8.0008 0 0 0 .35276-1.08658 8.0008 8.0008 0 0 0 .23489-.19981l.002-.00068a8.0008 8.0008 0 0 0 .15989-.45727l.0476.0222c.70966-1.60651 1.34756-3.27325 1.86426-5.01423a8.0008 8.0008 0 0 0 .24931-1.66206 8.0008 8.0008 0 0 0 .28391-.35067c.40031-1.72238.66505-3.48968.74183-5.2999a8.0008 8.0008 0 0 0 -.19016-2.00719 8.0008 8.0008 0 0 0 .17559-.4027c-.12266-2.1694-.55851-4.39965-1.39259-6.55578a8.0008 8.0008 0 0 0 -4.80836-4.27955c-.2368-2.2051-.4658-4.40966-.62453-6.59839a8.0008 8.0008 0 0 0 -.002-.0241c-.0214-.28307-.0426-.56485-.0627-.846a8.0008 8.0008 0 0 0 -9.68775-7.24666c-.27619.0604-.55226.11949-.82678.17829a8.0008 8.0008 0 0 0 -.004.001c-2.04826.43982-4.13575.81733-6.22261 1.19443a8.0008 8.0008 0 0 0 -5.835-3.43406c-2.30951-.19603-4.57672.0129-6.69922.50741a8.0008 8.0008 0 0 0 -.82329.69041 8.0008 8.0008 0 0 0 -1.50264-.0226zm296.83709-71.78716a8.0008 8.0008 0 0 0 -3.65442 4.96119c-6.17428.44087-11.97786 4.99102-12.92094 11.48073-.98623 6.78649 2.94898 12.99712 9.14298 15.37225a8.0008 8.0008 0 0 0 7.04173 8.88524c2.02563.16726 2.56428.43704 2.80584.47942a8.0008 8.0008 0 0 0 11.36748 6.28819c-.0174.01.76568-.19622 1.67185.0649s1.54817.92725 1.50757.85843a8.0008 8.0008 0 0 0 14.87678-3.57734c.54966-9.02592-3.64144-16.83596-9.73206-22.27868 7.2446-3.61379 13.12273-9.88056 15.33954-18.18699a8.0008 8.0008 0 0 0 .0227-.0748c.0861-.32645.21782-.6285.29257-.96074a8.0008 8.0008 0 0 0 .17587-2.29213 8.0008 8.0008 0 0 0 -.003-.0259 8.0008 8.0008 0 0 0 -.91454-3.19223 8.0008 8.0008 0 0 0 -.01-.0152 8.0008 8.0008 0 0 0 -.57647-.92711s-.12177.0883-.12661.0919a8.0008 8.0008 0 0 0 -4.45544-3.16716 8.0008 8.0008 0 0 0 -7.4274 2.82391l-.18573-.6474c-.22869.23373-1.17569.73811-2.11328.80663-.93759.0685-1.4766-.30148-1.28874-.13161a8.0008 8.0008 0 0 0 -12.30858 2.88992c-.22966-.0279-.72079.0763-2.56035-.38171a8.0008 8.0008 0 0 0 -5.9674.85629zm-216.95714 98.9754a8.0008 8.0008 0 0 0 -4.70404 2.0717c-1.20014 1.09967-2.18577 2.4511-3.06453 3.89223-3.27746-.6298-6.71831-.0993-9.55627 1.18357-6.08933 2.75291-10.55369 8.08673-14.19202 15.27516a8.0008 8.0008 0 0 0 1.42626 9.21229c2.47296 2.52258 5.37842 4.4114 8.4506 5.56653 3.28715 1.23594 6.68521 1.62584 9.88277 1.40377.48814-.0339.91679-.23046 1.39641-.2921.74403.61239 1.44781 1.26621 2.29545 1.76677.62333.36811 1.31251.51408 1.96209.80523 1.85035 6.65661 6.06064 13.0654 13.21377 16.76303a8.0008 8.0008 0 0 0 9.0732-1.20311 8.0008 8.0008 0 0 0 .4776-.4752c5.6036-6.06604 8.67891-12.85071 8.57766-19.65626-.0518-3.47289-1.33221-6.96981-3.40385-9.95161 1.25946-1.84122 2.25684-3.84461 2.76956-5.98182a8.0008 8.0008 0 0 0 -4.01277-8.92351c-2.86209-1.52746-6.1066-2.24768-9.24358-2.25164-1.28762-3.16133-3.40359-6.10945-6.3548-7.98588a8.0008 8.0008 0 0 0 -4.99351-1.21915zm3.03288 5.94006c.9576.30085 1.76903.89818 2.48094 1.61403-.0849.10464-.79593.98165-1.38431 1.70729-.41079-.0752-.81977-.11772-1.23337-.16216a8.0008 8.0008 0 0 0 .13674-3.15916zm184.95589-53.30538c-2.64806 1.82827-4.76356 4.35613-6.20234 7.11485-3.36396-.30796-6.91225.20521-9.8998 1.93006a8.0008 8.0008 0 0 0 -3.72682 9.00523c.4163 1.54897 1.1468 3.02799 2.00255 4.45692-2.04219 2.5864-3.15192 5.82866-3.33888 8.88898-.40354 6.60852 2.17567 12.99825 6.76019 19.54427a8.0008 8.0008 0 0 0 8.8018 3.08795c3.3836-.99184 6.41327-2.66574 8.87087-4.83124 2.63024-2.31763 4.56437-5.13309 5.86266-8.05956.19764-.44544.22364-.91416.39274-1.36508.88714-.37397 1.79226-.69468 2.62863-1.2124.61517-.38081 1.06494-.92236 1.62421-1.36228 6.74806 1.4345 14.36736.66427 20.96063-3.94806a8.0008 8.0008 0 0 0 2.63283-9.62966l.31298.37452c-2.78457-7.76927-7.39149-13.62685-13.47707-16.67552-3.10289-1.55435-6.79264-2.03158-10.38842-1.57099-1.05266-1.96299-2.36992-3.76746-4.02736-5.20606a8.0008 8.0008 0 0 0 -9.7894-.54193zm-140.185 51.17697c-6.27201 2.81732-9.40767 9.5326-8.04309 16.04261a8.0008 8.0008 0 0 0 -3.65522 10.74379c.96091 1.79067 1.02717 2.391 1.12178 2.6138a8.0008 8.0008 0 0 0 .89473 12.95994c-.0282-.0154.56321.52107.83541 1.4273.27217.90625.0619 1.8271.0933 1.76392a8.0008 8.0008 0 0 0 11.10508 10.52401c7.80921-4.42386 12.08253-12.11513 13.38395-20.13357 7.14056 4.31961 15.86595 5.96459 24.27151 3.0984a8.0008 8.0008 0 0 0 5.36531-6.65639s-7.94663-.91543-7.94663-.91543a8.0008 8.0008 0 0 0 1.81555-7.79205c-.26559-.0619-1.20965-.61113-1.76018-1.37546-.55055-.76434-.50983-1.40017-.56202-1.12151a8.0008 8.0008 0 0 0 -9.07509-9.20103c-.17879-.3152-.41488-.52627-.96246-2.1875a8.0008 8.0008 0 0 0 -9.97989-4.84571c-3.6642-5.17042-10.79317-7.68914-16.90205-4.94512zm-48.02032 21.27949.13877.42131a8.0008 8.0008 0 0 0 -.55832.12212c-.008-.0107-.0276-.0223-.0349-.0331.20937-.19465.45825-.51058.4544-.51041zm52.69614-9.77474c.23393-.10483.50122-.13145.75587-.1504a8.0008 8.0008 0 0 0 -.81305.38734 8.0008 8.0008 0 0 0 -.5798.24008c.17705-.17971.38417-.36375.63695-.47709zm68.62229-20.89642a8.0008 8.0008 0 0 0 -4.26076 5.13408c-.0723.26911-.14499.53943-.21886.80919a8.0008 8.0008 0 0 0 -.001.003c-.57059 2.08787-1.21711 4.17613-1.8709 6.26373a8.0008 8.0008 0 0 0 -5.59208 3.24086c-1.23782 1.93485-2.10329 4.01939-2.65489 6.10844a8.0008 8.0008 0 0 0 .22057 1.04002 8.0008 8.0008 0 0 0 -.71631 1.30411c-.28684 1.77895-.38201 3.55471-.338 5.31297a8.0008 8.0008 0 0 0 .44162.85355 8.0008 8.0008 0 0 0 -.32887 1.21506c.1532 1.80019.44012 3.55305.80734 5.2619a8.0008 8.0008 0 0 0 .54052.69702 8.0008 8.0008 0 0 0 -.11146 1.14423c.46208 1.81924 1.01367 3.5938 1.62001 5.31323a8.0008 8.0008 0 0 0 .69102.66509 8.0008 8.0008 0 0 0 .0367.98016c.47144 1.2409.94287 2.48234 1.41526 3.7229a8.0008 8.0008 0 0 0 12.47729 3.3984c5.522-4.42119 10.74056-9.05486 15.65969-13.8639a8.0008 8.0008 0 0 0 .50873-.73803 8.0008 8.0008 0 0 0 .57258.21976c6.82839-.79163 13.70879-1.91703 20.60805-3.37495a8.0008 8.0008 0 0 0 .00068.002 8.0008 8.0008 0 0 0 .006-.002 8.0008 8.0008 0 0 0 .002-.00068 8.0008 8.0008 0 0 0 2.23824-.93729c-.06-.10621-1.66255-2.94368-2.78796-4.93592a8.0008 8.0008 0 0 0 .78649-.4089l2.01165 5.33895a8.0008 8.0008 0 0 0 3.02224-10.88961c-.66777-1.15445-1.33577-2.3087-2.00441-3.46273a8.0008 8.0008 0 0 0 -.54696-.48058 8.0008 8.0008 0 0 0 -.41413-1.09219c-.94741-1.54856-1.9696-3.08852-3.08371-4.58927a8.0008 8.0008 0 0 0 -.66076-.43916 8.0008 8.0008 0 0 0 -.11477-.53812 8.0008 8.0008 0 0 0 -.5583-.39748l.17202-.12699c-1.09832-1.3706-2.2825-2.70579-3.5888-3.96687a8.0008 8.0008 0 0 0 -.63234-.28116 8.0008 8.0008 0 0 0 -.90792-1.11824c-1.3434-1.14916-2.78906-2.20032-4.35914-3.10243a8.0008 8.0008 0 0 0 -.77431-.1401 8.0008 8.0008 0 0 0 -1.36875-.95675c-1.98065-.89063-4.15877-1.52903-6.45343-1.78107a8.0008 8.0008 0 0 0 -5.99653 2.27812c-2.03134-.79772-4.05965-1.59957-6.03263-2.45799a8.0008 8.0008 0 0 0 -.0226-.0105c-.25651-.11065-.51233-.22202-.76785-.33368a8.0008 8.0008 0 0 0 -6.66962.12044zm69.40017-17.1203.25466.0715a8.0008 8.0008 0 0 0 -.11856.29673c-.0118-.11585-.13721-.36529-.13615-.36821zm-31.67778 46.54163a8.0008 8.0008 0 0 0 -.086 1.57975l-.63079-1.24197a8.0008 8.0008 0 0 0 .71675-.33782z" fill="#6a1f7a" fill-rule="evenodd" filter="url(#a)" stroke-linejoin="round"/><path d="m461.73664 179.85913c-6.52652-1.42584-11.99737-.45862-15.49016 1.73662-3.52904 2.21816-5.19985 5.53583-4.68574 9.86682-.61376.21487-1.19721.49225-1.7449.82451-.00078-.00005-.002.00079-.003.00092-2.89949-1.64779-5.95933-1.93479-8.76701-1.04856.2264 4.11343 1.72467 6.53041 4.09018 7.96164-.10136.57837-.1544 1.17218-.15439 1.77876.0001.60853.0533 1.20259.15527 1.78069-.0731.0319-.14499.0636-.2166.0969-2.80342 1.29577-4.58586 3.55955-4.74916 7.24728 2.64837.8132 5.50719.62652 8.85363-.95059.45018.34766.93168.65951 1.43777.93053-.77663 2.08076-.88685 3.84871-.46642 5.3743.42991 1.55976 1.42116 2.90809 2.98245 4.05219 3.00462 2.20159 8.33508 3.62073 15.03803 3.37766.6882-2.31553.82371-4.54694.51095-6.62351-.33686-2.23674-1.18329-4.29058-2.38357-6.11495-.87862-1.3356-1.95084-2.53762-3.15416-3.58504.78669-1.41708 1.24956-3.08988 1.2684-4.91123.0114-1.09932-.13906-2.17225-.42911-3.18692-.17269-.60428-.39624-1.18602-.6623-1.74189 5.08196-3.5504 9.00737-9.48202 8.56936-16.86596v-.00001zm-4.51528 3.953c.54716 1.71937-.22608 3.44117-1.69805 3.89092-1.4734.45018-3.05069-.52097-3.58272-2.17912-.53207-1.65833.18414-3.38227 1.64525-3.88362 1.46095-.50131 3.0914.46225 3.63539 2.17166.00005.00005.00009.0001.00013.00016zm-7.19112-.044c.30232.90282-.10592 1.82132-.9089 2.08453-.80325.2633-1.66577-.22907-1.96339-1.11339-.29665-.88141.0909-1.80154.8912-2.08045.79955-.27866 1.67972.20972 1.98105 1.10942.00002-.00004.00003-.00007.00004-.00011zm2.06718 14.34929c-1.70143-2.65842-4.7462-3.94701-7.66789-3.12042-3.74256 1.05882-5.87022 5.02212-4.93832 8.89208.73231 3.04109 3.2081 5.28875 6.09376 5.74059-.39985.03-.80729.0312-1.22065-.001-4.44912-.34898-7.84642-4.20005-7.84363-8.63577.003-4.51527 3.42301-8.34735 7.92362-8.38791 3.40168-.0306 6.39058 2.21759 7.65301 5.51246.00004.00002.00006.00004.0001.00007zm2.45693 19.42828c.23975 1.66259-.8073 3.1499-2.32379 3.34391-1.51664.19402-2.89251-.94409-3.12627-2.5583-.23376-1.6142.76316-3.09845 2.27357-3.34092 1.51048-.24247 2.93674.89272 3.1765 2.55539 0-.00003 0-.00005-.00001-.00008zm-8.2997-30.84531c.25014.76328-.10925 1.53777-.80613 1.76051-.69703.22284-1.43526-.19354-1.68194-.94321-.24593-.74733.10016-1.52356.79505-1.75802.69434-.23431 1.44373.17964 1.6931.9407-.00004 0-.00005.00001-.00008.00002zm1.23174 30.66815c.13297.87678-.4244 1.66365-1.25399 1.7815-.82983.11789-1.58451-.47086-1.71562-1.33312-.13109-.8621.41517-1.64736 1.2429-1.77973.82781-.13237 1.59377.45483 1.72672 1.33144 0-.00004 0-.00006-.00001-.00009zm-3.57425-3.02161c.12847.74438-.33978 1.42679-1.05647 1.54398-.71685.11719-1.37684-.37191-1.50377-1.10544-.12694-.7336.33159-1.41185 1.04664-1.53997.71505-.12813 1.38509.35679 1.51358 1.10127 0 .00005.00002.00011.00002.00016zm-8.27975-21.11971c.22465.71342-.1566 1.43924-.8562 1.64993-.69993.2108-1.42045-.17577-1.6419-.87576-.22067-.69751.14808-1.42494.8455-1.64717.6972-.22216 1.42859.16192 1.65258.87319 0-.00006.00001-.00012.00002-.00019zm-.59751 14.18631c.16028.70645-.27848 1.38717-.9897 1.53998-.7113.15279-1.39184-.27835-1.55019-.97375-.15842-.69547.27074-1.37162.97993-1.53554.70931-.16399 1.39969.26261 1.56.96914-.00002.00006-.00003.00011-.00004.00017zm-17.54357 188.6452c-2.23704-6.24152-5.86631-10.38763-9.52942-12.22273-3.69668-1.85179-7.38516-1.55966-10.80075 1.15589-.50362-.40742-1.0448-.75599-1.61414-1.04527-.00037-.00069-.002-.002-.002-.002-.1134-3.3332-1.44753-6.07762-3.6589-7.997-3.42542 2.36497-4.71721 4.93614-4.69411 7.70387-.5477.22351-1.08315.49672-1.60131.82215-.5198.32657-.99897.69078-1.43835 1.08802-.0658-.0449-.13117-.0885-.19751-.13119-2.59067-1.67437-5.47718-1.96351-8.71723-.0929.72048 2.6808 2.41551 4.98846 5.54761 6.95876-.0536.56793-.0596 1.14278-.0174 1.71621-2.17979.47105-3.73681 1.33902-4.79976 2.52234-1.0868 1.20999-1.68905 2.77801-1.80728 4.71326-.22753 3.72614 1.47723 8.97151 5.32644 14.46762 2.31646-.67903 4.25983-1.7732 5.83125-3.15784 1.69266-1.49148 2.95653-3.30966 3.83978-5.30059.64664-1.45741 1.07846-3.00552 1.31217-4.58084 1.61487-.0969 3.26912-.60117 4.80996-1.55496.93004-.57572 1.75134-1.27251 2.44962-2.05507.41588-.46602.78589-.96267 1.11186-1.48114 5.70014 2.41843 12.78762 2.57378 18.64947-1.52687-.00001-.00001-.00001-.00001 0-.00002zm-5.66984-1.78951c-1.14442 1.34062-2.99902 1.58908-4.15299.57757-1.15428-1.01178-1.16858-2.85221-.0529-4.16091 1.11581-1.30884 2.93914-1.58859 4.12206-.60909 1.1828.97938 1.22847 2.85147.0839 4.19223-.00002.00006-.00004.00013-.00007.0002zm-3.72678-6.10822c-.6006.71945-1.58916.85209-2.23101.30824-.64179-.5438-.67648-1.53023-.0845-2.23996.5921-.70981 1.5689-.85284 2.21951-.31841.65028.53416.69637 1.53077.0958 2.25016.00004-.00001.00008-.00002.00012-.00003zm-10.99413 9.25819c1.32954-2.84179.80902-6.0995-1.43145-8.13378-2.87187-2.60757-7.37257-2.30241-10.1646.56522-2.19653 2.25601-2.77016 5.55779-1.59925 8.23425-.24041-.32077-.46054-.66353-.65547-1.02939-2.10073-3.94555-.70939-8.85382 3.14329-11.27198 3.8525-2.41821 8.91065-1.53744 11.31094 2.25236 1.81272 2.86221 1.49469 6.57473-.60345 9.3832-.00001.00004-.00001.00007-.00001.00012zm-15.01141 12.49222c-1.26578 1.10163-3.08253 1.02905-4.06898-.1394-.98655-1.16861-.77721-2.94301.45377-4.01543 1.23097-1.07242 3.01983-1.03772 4.0411.10144 1.02131 1.13922.83988 2.95177-.42595 4.05345.00001-.00002.00004-.00004.00006-.00006zm21.56186-23.43069c-.51353.60686-1.35751.70818-1.91054.23377-.55297-.47436-.58579-1.31765-.0786-1.91741.5071-.59967 1.34401-.70737 1.90367-.23998.5594.46717.59907 1.31682.0855 1.92368-.00002-.00002-.00004-.00004-.00006-.00006zm-25.24361 17.39323c-.66608.58758-1.63029.54645-2.17922-.0868-.54909-.63348-.46231-1.58809.19341-2.16689.65561-.57868 1.61333-.54538 2.17259.0791.55932.62459.47914 1.58719-.18685 2.17466.00002-.00002.00005-.00004.00007-.00006zm.61388-4.64612c-.55892.51178-1.38764.48813-1.87388-.0513-.48636-.53961-.42999-1.36091.12141-1.86612.55147-.50526 1.37224-.487 1.86603.0457.49379.53277.44552 1.35972-.11344 1.87156-.00005.00004-.00008.00008-.00012.00012zm13.53886-18.33364c-.4916.56623-1.31268.62966-1.85879.14771-.54617-.48199-.59114-1.29907-.10595-1.85835.48504-.5591 1.29963-.62869 1.85224-.15393s.60397 1.29835.11232 1.86465c.00005-.00003.00011-.00005.00018-.00008zm-12.43003 7.09182c-.51623.51771-1.33014.51606-1.84048-.002-.51041-.51783-.50653-1.32677.003-1.83772.50916-.51099 1.31527-.51436 1.83278-.003.5176.51098.52154 1.32503.005 1.84279-.00006.00002-.00012.00004-.00017.00006zm-169.9934 79.2843c4.51094-4.8832 6.51605-10.01181 6.4551-14.10867-.0616-4.13159-2.021-7.27502-6.0142-9.05899.12927-.63613.18884-1.2785.18264-1.91866.00044-.00064.00014-.002.00025-.002 2.9111-1.63871 4.7328-4.08745 5.41655-6.93754-3.68409-1.96614-6.57302-1.93845-9.02891-.64057-.45375-.38552-.94632-.73729-1.47771-1.04951-.53315-.31316-1.08123-.57271-1.64049-.78141.009-.0795.0177-.158.0249-.23699.2844-3.08499-.80429-5.80255-4.00244-7.83598-2.0591 1.88672-3.32033 4.47468-3.60799 8.18953-.53214.21646-1.04805.47883-1.54.78387-1.44509-1.72624-2.956-2.71201-4.5161-3.1071-1.59595-.40411-3.28215-.20574-5.06562.60048-3.43912 1.55478-7.29138 5.55513-10.34986 11.59792 1.69872 1.73279 3.58587 2.93899 5.55483 3.6793 2.12059.79733 4.32887 1.06204 6.51278.91036 1.59866-.11096 3.17784-.45387 4.68887-.98405.84053 1.39162 2.06033 2.62669 3.62568 3.55109.94484.55797 1.94633.96279 2.96662 1.21858.60763.15235 1.2211.24977 1.83345.29802.49351 6.19334 3.63283 12.55118 9.98131 15.83287v.00001zm-1.02841-5.8539c-1.71941-.39155-2.79723-1.92056-2.43175-3.41437.36557-1.49422 1.99464-2.36118 3.67258-1.97803 1.67812.38318 2.76802 1.8703 2.4442 3.37266-.32378 1.5022-1.96524 2.4113-3.68482 2.01971-.00007.00001-.00014.00003-.00021.00003zm3.70481-6.137c-.91622-.19966-1.4906-1.01535-1.3039-1.83676.18669-.82132 1.04702-1.30849 1.95062-1.11125.9037.19727 1.48137.99773 1.3071 1.82185-.17419.82372-1.03777 1.3257-1.95389 1.12606.00002.00004.00004.00007.00007.0001zm-13.31785-5.46762c3.14463-.14156 5.80148-2.11689 6.5727-5.05132.98871-3.76328-1.37031-7.63451-5.23101-8.7955-3.0392-.91395-6.25331.11148-8.09076 2.40802.17313-.36431.3754-.72081.61014-1.06557 2.53214-3.71684 7.57138-4.75271 11.52082-2.43262 3.9494 2.3199 5.50412 7.22933 3.24496 11.11769-1.7056 2.93549-5.15503 4.37649-8.62674 3.81924-.00003.00002-.00007.00003-.00011.00006zm-18.13542-7.4926c-1.57661-.60433-2.37161-2.25372-1.79961-3.68553.57205-1.43196 2.25156-2.08639 3.78938-1.49646 1.53782.58991 2.35067 2.20014 1.81758 3.64631-.53313 1.44626-2.23074 2.14-3.80743 1.53564.00002.00002.00005.00003.00008.00004zm30.89401 8.23923c-.77628-.17542-1.25631-.87819-1.09028-1.58887.16601-.7106.90028-1.12942 1.6673-.95584.76694.17356 1.2489.86713 1.09215 1.57992-.15667.71246-.89292 1.14029-1.66919.96487 0-.00002.00001-.00006.00002-.00008zm-27.25836-14.36871c-.83877-.3166-1.25918-1.19501-.95501-1.98309.30425-.78832 1.19698-1.16109 2.0241-.84874.82696.31229 1.25032 1.1822.95779 1.97451-.29255.7924-1.18836 1.17381-2.02697.85729.00004.00001.00006.00002.00009.00003zm4.43297-1.63709c-.7204-.25857-1.09117-1.00881-.8398-1.69589.25144-.68722 1.01143-1.02216 1.72312-.76658.71177.2556 1.08283.99688.84028 1.68689-.24255.69002-1.00293 1.03423-1.72343.77563-.00006-.00002-.00011-.00003-.00017-.00005zm22.66405 3.56521c-.731-.17715-1.16778-.87947-.99197-1.58806.17585-.70866.88208-1.1247 1.60407-.94947.72175.17517 1.16023.86891.9937 1.57941-.16652.71049-.87483 1.13519-1.60594.958.00005.00004.0001.00009.00014.00012zm-12.10674-7.81632c-.7044-.22131-1.08532-.9494-.86261-1.64579.22274-.69647.94757-1.06791 1.64307-.84921.69557.21874 1.07637.93798.86265 1.6369-.21374.6991-.93849 1.07956-1.64298.85823-.00004-.00003-.00008-.00008-.00013-.00013zm-157.832706-106.16747c6.526522 1.42583 11.997375.45861 15.490163-1.73662 3.529036-2.21817 5.199849-5.53584 4.685743-9.86682.613747-.21488 1.197209-.49226 1.744892-.82452.000778.00005.0017-.00075.0025-.00077 2.899496 1.64778 5.959332 1.93478 8.76701 1.04856-.226399-4.11344-1.724671-6.53042-4.090181-7.96165.101353-.57837.154403-1.17218.154391-1.77876-.000103-.60852-.0533-1.20258-.155266-1.78068.07304-.0319.144991-.0636.216604-.0969 2.803412-1.29576 4.585847-3.55955 4.749145-7.24728-2.648359-.8132-5.507184-.62652-8.853624.9506-.450178-.34767-.931677-.65952-1.437759-.93053.776616-2.08076.886835-3.84872.466409-5.37431-.429907-1.55976-1.421154-2.90809-2.982454-4.05219-3.004612-2.20159-8.335082-3.62073-15.038033-3.37766-.688195 2.31553-.823697 4.54694-.510946 6.62351.336864 2.23674 1.1833 4.29058 2.383572 6.11495.878619 1.3356 1.950843 2.53762 3.154164 3.58504-.786696 1.41708-1.249557 3.08989-1.268409 4.91123-.01137 1.09933.139061 2.17225.429118 3.18692.172709.60427.396278 1.18601.662275 1.7419-5.081956 3.55039-9.00736 9.48202-8.569355 16.86596-.000001 0 .000001.00001 0 .00001zm4.515271-3.953c-.547158-1.71938.226091-3.44118 1.698059-3.89093 1.473395-.45018 3.050693.52097 3.582711 2.17912.53208 1.65833-.184136 3.38228-1.645244 3.88363-1.460949.50131-3.0914-.46226-3.635389-2.17166-.000047-.00006-.000091-.00011-.000137-.00016zm7.191119.044c-.302361-.9028.105924-1.82131.90891-2.08452.803249-.26331 1.665773.22906 1.963389 1.11338.29664.88141-.09095 1.80155-.891204 2.08045-.799549.27867-1.679723-.20972-1.981045-1.10942-.000017.00004-.000033.00008-.00005.00011zm-2.067173-14.34929c1.701425 2.65842 4.746206 3.94702 7.667897 3.12043 3.742549-1.05882 5.87022-5.02212 4.938314-8.89209-.732308-3.04109-3.208105-5.28874-6.09376-5.74058.399844-.03.807298-.0312 1.220659.001 4.449108.34899 7.846416 4.20006 7.843618 8.63578-.0027 4.51526-3.42301 8.34735-7.923618 8.38791-3.401676.0306-6.390579-2.21759-7.653007-5.51247-.000034-.00002-.000067-.00004-.000103-.00007zm-2.456929-19.42825c-.239746-1.66259.807305-3.14989 2.323793-3.34389 1.516645-.19404 2.892506.94408 3.126267 2.55828.233762 1.61421-.763154 3.09846-2.273562 3.34093-1.510488.24247-2.936752-.89273-3.17651-2.5554.000006.00003.00001.00006.000012.00008zm8.299703 30.84532c-.250095-.7633.109245-1.53778.806119-1.76051.697035-.22284 1.435262.19354 1.68195.94321.245922.74733-.100163 1.52356-.795055 1.75801-.694333.23431-1.443728-.17964-1.693094-.9407.000029 0 .000054 0 .00008-.00001zm-1.231739-30.66815c-.132975-.87679.424392-1.66365 1.253986-1.78151.829837-.11788 1.584512.47087 1.715623 1.33313.131081.86209-.415174 1.64736-1.2429 1.77972-.827811.13237-1.593775-.45483-1.726721-1.33143zm3.574245 3.0216c-.128469-.74438.339784-1.42679 1.056471-1.54398.716853-.11719 1.376848.37191 1.503774 1.10544.126937.73361-.331589 1.41185-1.04664 1.53997-.715048.12813-1.385097-.35678-1.513576-1.10126-.000011-.00006-.000022-.00012-.000029-.00017zm8.279751 21.11971c-.224658-.7134.1566-1.43923.856208-1.64992.699925-.2108 1.420444.17576 1.641892.87576.220661.69751-.148075 1.42493-.8455 1.64717-.697199.22215-1.428594-.16193-1.652571-.87319-.00001.00006-.000021.00012-.000029.00018zm.597518-14.18631c-.160287-.70645.278475-1.38717.98969-1.53996.7113-.1528 1.391837.27834 1.550191.97373.158372.69549-.270741 1.37162-.97992 1.53554-.709326.16399-1.399697-.2626-1.560004-.96913.000014-.00006.000028-.00012.000043-.00018zm17.543574-188.6452c2.237036 6.24152 5.866304 10.38764 9.529407 12.22274 3.696697 1.85179 7.385179 1.55966 10.800759-1.15589.50363.40742 1.0448.75598 1.61414 1.04527.00036.00069.001.001.002.002.11341 3.3332 1.44755 6.07762 3.65892 7.997 3.42542-2.36498 4.7172-4.93614 4.6941-7.70388.5477-.22351 1.08315-.4967 1.60132-.82214.51978-.32657.99896-.69079 1.43834-1.08802.0657.0449.13117.0885.19752.13119 2.59067 1.67437 5.47716 1.96351 8.71721.0929-.72047-2.68079-2.41549-4.98846-5.5476-6.95877.0536-.56792.0596-1.14277.0174-1.7162 2.17977-.47105 3.7368-1.33902 4.79975-2.52235 1.08681-1.20998 1.68904-2.778 1.80728-4.71325.22753-3.726139-1.47722-8.971506-5.32644-14.467613-2.31647.679024-4.25983 1.773186-5.83125 3.157837-1.69267 1.491477-2.95654 3.309654-3.83978 5.300585-.64665 1.457414-1.07847 3.005514-1.31218 4.580841-1.61488.0969-3.26912.60117-4.80995 1.55497-.93006.57571-1.75134 1.2725-2.44962 2.05506-.41588.46602-.78589.96267-1.11186 1.48114-5.700145-2.41843-12.787628-2.57379-18.649471 1.52688h-.000009zm5.669823 1.78952c1.144431-1.34062 2.999038-1.58908 4.153007-.57757 1.154271 1.01178 1.168576 2.85221.05291 4.16091-1.1158 1.30884-2.939133 1.58858-4.122058.60909-1.1828-.97938-1.228468-2.85148-.08391-4.19224.000019-.00006.000037-.00013.000056-.00019zm3.726786 6.10821c.600605-.71945 1.589168-.85208 2.231013-.30823.641793.54379.676488 1.53023.08446 2.23996-.5921.70981-1.568911.85283-2.21951.31841-.650281-.53416-.696374-1.53078-.09583-2.25016-.00005.00001-.00009.00002-.000131.00002zm10.994147-9.25818c-1.32956 2.84179-.80902 6.09949 1.43145 8.13378 2.87187 2.60757 7.37255 2.30241 10.16459-.56522 2.19654-2.25601 2.77016-5.5578 1.59925-8.23425.24041.32077.46054.66353.65547 1.02938 2.10073 3.94556.7094 8.85382-3.14329 11.27198-3.85251 2.41821-8.91066 1.53745-11.31093-2.25235-1.81273-2.86222-1.49469-6.57473.60345-9.3832 0-.00004 0-.00008.00001-.00012zm15.0114-12.492221c1.26578-1.10163 3.08252-1.029086 4.06898.139399.98655 1.16861.77721 2.943007-.45377 4.015432-1.23096 1.072421-3.01983 1.037714-4.0411-.101442-1.02132-1.139221-.83988-2.951762.42596-4.053448-.00003.000021-.00004.000038-.00007.000059zm-21.56186 23.430691c.51353-.60687 1.35751-.70819 1.91055-.23378.55297.47437.58579 1.31765.0786 1.91741-.50709.59968-1.34401.70738-1.90367.23999-.559396-.46718-.599062-1.31682-.0855-1.92368.00002.00002.00003.00004.00005.00006zm25.24361-17.39324c.66608-.587573 1.63029-.546462 2.17922.0868.5491.63349.46232 1.5881-.19341 2.16689-.6556.57869-1.61331.54541-2.17258-.0791-.55933-.6246-.47915-1.58719.18684-2.17467-.00002.00002-.00004.00004-.00007.00006zm-.61387 4.64613c.55891-.51179 1.38762-.48816 1.87388.0513.48634.53961.42999 1.36091-.12142 1.86611-.55146.50527-1.37224.48702-1.86603-.0457-.49379-.53277-.44552-1.35972.11344-1.87156.00004-.00004.00009-.00008.00013-.00012zm-13.53886 18.33364c.49159-.56622 1.31267-.62965 1.85879-.14772.54616.482.59114 1.29908.10594 1.85836-.48504.5591-1.29963.62869-1.85224.15393s-.60397-1.29836-.11232-1.86465c-.00006.00003-.00012.00005-.00017.00008zm12.43003-7.09182c.51622-.51772 1.33011-.5161 1.84047.002.51041.51782.50653 1.32677-.003 1.83772-.50914.511-1.31526.51433-1.83276.003-.51762-.51099-.52164-1.325-.005-1.84279.00006-.00002.00012-.00004.00018-.00006zm169.99339-79.284286c-4.51093 4.883192-6.51605 10.011805-6.45509 14.10866.0616 4.131586 2.02098 7.275028 6.01419 9.059-.12926.636123-.18884 1.278493-.18264 1.91865-.00044.000641-.00024.0019-.00019.0024-2.9111 1.638705-4.73281 4.087461-5.41655 6.937539 3.68408 1.966143 6.57302 1.938448 9.02891.640579.45375.38551.94633.737278 1.47771 1.049505.53315.313161 1.08123.572704 1.64048.78141-.009.07948-.0177.158-.0249.236986-.28441 3.084997.80427 5.80256 4.00244 7.835983 2.05908-1.88672 3.32032-4.474672 3.60798-8.189535.53214-.216447 1.04804-.47887 1.54001-.783868 1.44509 1.726251 2.956 2.712018 4.51609 3.107101 1.59594.404117 3.28215.205748 5.06561-.600464 3.43914-1.554789 7.29139-5.555146 10.34986-11.597928-1.69871-1.732799-3.58586-2.938997-5.55482-3.67931-2.12058-.797332-4.32887-1.062043-6.51277-.910358-1.59867.110962-3.17785.453868-4.68887.984045-.84053-1.391607-2.06034-2.626691-3.62568-3.551085-.94485-.557964-1.94633-.962791-2.96664-1.21857-.60762-.152362-1.22109-.24978-1.83345-.298029-.49351-6.193339-3.63283-12.55118-9.9813-15.832873 0-.000003 0-.000005-.00001-.000004zm1.02841 5.853892c1.71941.391552 2.79722 1.920556 2.43175 3.414373-.36558 1.494218-1.99464 2.361172-3.67257 1.978029-1.67812-.383182-2.76803-1.870309-2.4442-3.372664.32378-1.502198 1.96522-2.411298 3.68482-2.019705.00007-.000013.00014-.000024.0002-.000033zm-3.70481 6.136999c.91621.199666 1.4906 1.015345 1.3039 1.836755-.18669.821327-1.04701 1.308494-1.95062 1.11125-.90369-.197265-1.48136-.997718-1.30709-1.821845.17418-.823725 1.03777-1.325704 1.95389-1.12606-.00002-.000035-.00005-.000069-.00008-.0001zm13.31785 5.467626c-3.14463.141548-5.80164 2.116415-6.5727 5.051317-.98872 3.76328 1.37032 7.634511 5.23102 8.795501 3.03919.913947 6.25331-.111484 8.09076-2.408026-.17313.36431-.37541.720815-.61014 1.065576-2.53215 3.716834-7.57139 4.752708-11.52083 2.432616-3.9494-2.319905-5.50412-7.229319-3.24495-11.117688 1.7056-2.935496 5.15502-4.376492 8.62673-3.819242.00004-.000018.00008-.000036.00011-.000054zm18.13542 7.492603c1.57661.604321 2.37161 2.253714 1.79962 3.685526-.57206 1.431967-2.25157 2.086378-3.78939 1.496464-1.53783-.589917-2.35067-2.200152-1.81758-3.646326.53313-1.446243 2.23075-2.139989 3.80744-1.535636-.00003-.000011-.00006-.000017-.00009-.000028zm-30.89401-8.23924c.77628.175416 1.25631.878192 1.09029 1.588877-.16601.710602-.90028 1.129408-1.66732.955832-.76693-.173558-1.24889-.86713-1.09213-1.579916.15667-.712464.8929-1.140289 1.66918-.964873-.00001.000028-.00001.000052-.00002.00008zm27.25836 14.368717c.83877.316587 1.25918 1.195003.95502 1.98309-.30426.788305-1.19698 1.161084-2.0241.84873-.82696-.312287-1.25033-1.182188-.9578-1.974509.29256-.792397 1.18836-1.173807 2.02697-.857277-.00003-.000013-.00005-.000025-.00009-.000034zm-4.43298 1.637066c.72041.258561 1.09117 1.008809.83979 1.695881-.25144.687222-1.01142 1.022171-1.72311.766588-.71178-.255612-1.08283-.99689-.84028-1.686898.24255-.690011 1.00294-1.034229 1.72344-.775632.00005.000022.00011.00004.00016.000061zm-22.66406-3.56522c.73102.177156 1.1678.87947.99197 1.588058-.17584.708657-.88207 1.124702-1.60405.949472-.72175-.175169-1.16023-.868911-.99371-1.579405.16653-.710496.87484-1.135188 1.60594-.958008-.00004-.00004-.0001-.000077-.00015-.000117zm12.10676 7.816315c.7044.221306 1.08532.949414.86261 1.645804-.22276.696457-.94757 1.06791-1.64307.849195-.69558-.21873-1.07637-.937968-.86267-1.636898.21375-.699086.93851-1.079557 1.643-.858224.00003.00004.00008.000086.00013.000123zm165.59168 176.394238c-1.34049-.0292-2.68104-.0579-4.02166-.0859-1.40169 4.66157-2.9608 9.19916-4.66573 13.61247-.10408.27101-.20873.54154-.31392.81161-.24034-.11409-.48079-.22782-.72138-.34118-3.53069-1.65819-7.66818-2.16156-11.54981-1.19678-1.49237.24575-2.8652.78763-4.01554 1.53496-.27445-.29101-.54976-.58071-.82587-.8691-.16032-.16767-.32095-.33487-.48185-.50164-.18294.13991-.36599.27936-.5492.4183-2.34891 1.76448-4.72116 3.44904-7.11399 5.05511-.2406.1626-.48143.3244-.72245.4854.19843.21255.3964.42581.59391.63977 1.96503 2.12658 3.88445 4.32309 5.75679 6.58678.14589.17687.29149.35417.43682.53187.19385-.12344.38762-.24729.58124-.37169.34034-.21869.68028-.43894 1.01987-.66065.94099.98767 2.13952 1.82826 3.51984 2.4116 3.53322 1.84008 7.65133 2.31545 11.46067 1.53736.25978-.0535.5195-.10736.7793-.16152.0376.28549.0746.57122.1109.85717.60103 4.65905 1.03126 9.37819 1.29097 14.14583 1.29562.27808 2.59137.55562 3.88725.83263-.67851-6.79492-1.69459-13.46784-3.04626-19.98526-1.91606 1.21003-4.85993 1.69832-8.06405 1.22092-2.8704-.42769-5.35358-1.53879-6.92357-2.87736 1.11125-.7614 2.21829-1.53912 3.32086-2.33327.24433-.17619.48847-.35312.73237-.53089-.19532-.23104-.39112-.46139-.58738-.69104-.89081-1.0368-1.79137-2.05929-2.70158-3.06721 1.84103-.93933 4.53035-1.44255 7.43845-1.18296 3.23551.28883 5.98492 1.4567 7.55884 3.08513 2.88359-6.02721 5.50013-12.33008 7.81615-18.91064v.00017zm-11.02015 44.19897c-.24191-4.30265-.62413-8.56464-1.14691-12.77725-.73689.11308-1.48457.18132-2.23588.20815-.30962 3.75219-.73127 7.50083-1.26232 11.24127 1.51318.51148 3.07357.9506 4.64511 1.32783zm5.33527-44.27885c-1.62207.005-3.24649.0737-4.84306.22297-.36156 3.77255-.83663 7.51027-1.42067 11.21061.72317.20239 1.43275.4439 2.12145.72642 1.50174-3.95359 2.88533-8.007 4.14237-12.16-.00003 0-.00006 0-.00009 0zm-6.44631.40477c-1.4769.19306-2.91447.45862-4.28385.81716.25334 3.17397.41942 6.35398.49992 9.53708.82037.0516 1.63242.15766 2.43459.31302.55111-3.52261 1.00219-7.07911 1.34925-10.66726zm-5.03356 42.0061c.50062-3.56357.90081-7.13422 1.19825-10.7078-.80386-.0367-1.60588-.12326-2.40294-.26236-.83233 3.10053-1.74254 6.16995-2.72759 9.20649 1.23502.65787 2.55705 1.24145 3.93226 1.76376.00001-.00003.00001-.00006.00002-.00009zm-2.72952-11.30182c-.58531-.15354-1.16491-.3365-1.73558-.54859-1.26887 2.38339-2.58404 4.72125-3.94292 7.01355.92245.83045 1.9603 1.59047 3.09327 2.28365.93106-2.88704 1.79368-5.80382 2.58519-8.7488.00001.00006.00003.00013.00004.00019zm2.4102-20.38425c-.08-3.0207-.23802-6.03819-.47562-9.04992-1.27618.41628-2.4742.92012-3.57321 1.51826.7911 2.52514 1.5223 5.08139 2.19366 7.6663.61728-.0758 1.23684-.12142 1.85516-.13447 0-.00007.00001-.00012.00001-.00017zm-5.59561 19.22327c-.58855-.27959-1.16467-.59187-1.72574-.93942-1.39878 1.35548-2.81213 2.67715-4.23906 3.96539.58311 1.26716 1.37009 2.41867 2.32782 3.46715 1.25101-2.12514 2.46404-4.28955 3.637-6.49321-.00001.00003-.00001.00006-.00002.00009zm2.18217-18.8286c-.62224-2.38699-1.29612-4.74903-2.02168-7.08414-1.18342.80258-2.22113 1.74409-3.08477 2.84589 1.08091 1.56039 2.13708 3.14944 3.16818 4.7662.63979-.21371 1.28679-.38939 1.93853-.5281-.00009.00005-.00017.0001-.00026.00015zm-1.04901 9.359-5.52726-.65675c-.17964 1.54705-.3808 3.09098-.60313 4.63147-1.48989-1.76656-3.00873-3.49126-4.55583-5.17277 1.97013-1.32789 3.92637-2.70872 5.86722-4.14328 1.63644 1.73447 3.24303 3.51534 4.81903 5.34116-.00001.00006-.00002.00011-.00003.00017zm-89.23557 167.54787c-.66682-1.15281-1.33407-2.30539-2.00174-3.45774-4.61493 1.2029-9.22896 2.24606-13.83048 3.12915-.28223.0547-.56443.10891-.84659.1624-.0313-.2635-.063-.5269-.095-.79024-.47347-3.85913-2.2244-7.63096-5.09558-10.40247-.99819-1.13242-2.18572-2.00598-3.43337-2.58119.10226-.38672.20322-.77341.30288-1.16007.058-.22462.11563-.44923.17281-.67382-.21639-.0804-.4325-.16114-.64833-.24221-2.75263-1.0484-5.45902-2.15142-8.11643-3.30763-.26815-.11566-.5358-.23187-.80295-.34861-.0757.28168-.15213.56337-.22927.84506-.7656 2.80142-1.60212 5.60313-2.511 8.40239-.0712.21839-.14292.43676-.21506.65512.20918.0966.41866.19279.62846.28869.36884.16849.73864.33597 1.10939.50245-.32946 1.32548-.3934 2.78818-.14112 4.26534.35287 3.96775 2.1806 7.69047 4.88294 10.47991.18465.19005.36961.37991.55482.56959-.219.18517-.43848.36999-.65849.55443-3.57962 3.01291-7.29427 5.92759-11.14365 8.73244.47076 1.23901.94198 2.47786 1.41369 3.71654 5.31368-4.2544 10.33588-8.71176 15.0686-13.33856-2.03854-.96819-4.03178-3.18764-5.35249-6.14385-1.18375-2.64966-1.58271-5.33798-1.29323-7.38216 1.24126.52748 2.49263 1.04386 3.75386 1.54901.27965.11186.55977.22317.84038.33393.0908-.2884.18077-.57682.27006-.86524.40059-1.30609.78616-2.61236 1.15683-3.91853 1.77922 1.05532 3.63037 3.05978 4.9549 5.65674 1.47225 2.88664 1.94883 5.83272 1.42247 8.02485 6.58085-.76293 13.2196-1.84752 19.88276-3.25579-.00004.00003-.00008.00005-.00014.00008zm-42.77902 14.15777c3.47122-2.53826 6.83168-5.16676 10.08114-7.87678-.49216-.55946-.95276-1.15206-1.38074-1.76999-3.31589 1.76322-6.6871 3.43979-10.11104 5.02504.39328 1.5484.87303 3.09723 1.41064 4.62173zm39.91485-19.02419c-.84056-1.37393-1.73535-2.71802-2.68426-3.99621-3.36172 1.63448-6.75582 3.17875-10.17776 4.63028.21046.71857.38109 1.44623.50672 2.17772 4.11145-.80861 8.23271-1.74593 12.35535-2.81172-.00002-.00002-.00003-.00005-.00005-.00007zm-3.66443-5.2634c-.92477-1.15402-1.89146-2.23729-2.90322-3.21402-2.5604 1.85521-5.16551 3.65583-7.81364 5.39895.38823.72159.72604 1.46489 1.0173 2.22563 3.25981-1.38606 6.4943-2.85701 9.69951-4.41063zm-38.02282 18.11332c3.26037-1.51509 6.47262-3.11384 9.63444-4.79214-.40321-.69634-.7636-1.41807-1.07717-2.16396-3.05677.97407-6.12906 1.87327-9.21384 2.69585.11867 1.39454.34736 2.82181.65649 4.26028.00003-.00001.00005-.00003.00008-.00003zm8.01256-8.41846c-.18702-.5755-.34615-1.16211-.47576-1.75698-2.69356.22019-5.37505.38233-8.04188.48637-.1977 1.22604-.27276 2.51074-.23952 3.83885 2.93119-.78676 5.85118-1.64341 8.75729-2.56838-.00004.00005-.00009.00009-.00013.00014zm18.49636-8.8561c2.51538-1.65824 4.99169-3.36884 7.42744-5.12923-1.01401-.8674-2.06364-1.62254-3.14466-2.24366-1.7436 1.98403-3.53494 3.94268-5.374 5.87349.3895.48254.75445.98294 1.09106 1.49949.00006-.00003.0001-.00006.00016-.00009zm-19.23924 5.54805c-.0822-.64641-.12991-1.30009-.13948-1.96016-1.90019-.44474-3.78153-.91742-5.64303-1.41766-.75356 1.1779-1.29712 2.46473-1.65995 3.83889 2.46887-.10353 4.95042-.25725 7.44254-.4611-.00002.00001-.00005.00002-.00008.00003zm17.10596-8.22918c1.69994-1.78631 3.35879-3.59664 4.9765-5.42899-1.30138-.58519-2.64914-.97275-4.04481-1.12604-.77064 1.73493-1.57165 3.46647-2.40337 5.1937.51971.42833 1.01044.88309 1.47194 1.36146-.00009-.00004-.00018-.00009-.00026-.00013zm-8.49521 4.08924-2.40039-5.01593c-1.41227.67796-2.83192 1.33866-4.2586 1.98178.69662-2.20762 1.34869-4.41638 1.95688-6.62496 2.19083.94867 4.41466 1.86142 6.66999 2.73747-.6093 2.30674-1.26495 4.61441-1.96774 6.92156-.00004.00003-.00009.00006-.00014.00008zm-188.0999 7.79599c.71552-1.1234 1.43063-2.24704 2.14531-3.37093-3.2027-3.52831-6.26356-7.13488-9.18224-10.80811-.17953-.22503-.35852-.45033-.53698-.67587.21989-.15037.43959-.30088.65904-.45165 3.2134-2.21363 5.75814-5.51717 6.89247-9.35746.54467-1.41352.77122-2.87643.70376-4.25586.3917-.0879.78272-.17678 1.17307-.26676.22682-.0522.45342-.10469.67981-.1575-.0288-.23027-.0573-.46047-.0853-.69061-.3446-2.94179-.62193-5.87213-.83342-8.78827-.0222-.29379-.0438-.58744-.0647-.88094-.28647.0627-.57326.12479-.86043.18628-2.8551.61306-5.7453 1.16785-8.66788 1.66293-.22815.0383-.45652.0763-.68509.11387.0123.23214.0251.46437.0383.6967.0232.40839.0477.81708.0735 1.22606-1.33615.32493-2.66931.95228-3.86695 1.8696-3.36914 2.17388-5.82482 5.55418-7.0434 9.26463-.0828.25333-.16529.5068-.24752.7604-.26721-.10735-.53435-.21526-.80141-.32376-4.35598-1.75978-8.69288-3.67248-12.99912-5.73779-.8783 1.00768-1.75622 2.01568-2.63381 3.02399 6.27645 2.65868 12.59337 5.00283 18.91727 7.03446-.0883-2.26199.95628-5.07523 2.97082-7.63507 1.80634-2.29528 4.01285-3.90793 5.97026-4.6037.11095 1.35366.2356 2.71028.37408 4.06958.0308.30133.0623.60278.0945.90436.29912-.0535.59793-.10764.89638-.16237 1.34977-.25117 2.69246-.51473 4.02782-.79056-.11188 2.07668-1.03639 4.65483-2.73261 7.03961-1.88506 2.65025-4.28636 4.44465-6.48131 5 3.73599 5.48401 7.77064 10.86346 12.10599 16.10485-.00005-.00003-.0001-.00006-.00014-.00009zm-32.52006-31.26932c3.89328 1.86052 7.81135 3.5955 11.74549 5.20471.26738-.70047.57892-1.38871.92823-2.05999-3.1248-2.11648-6.20452-4.31664-9.23447-6.59787-1.18984 1.08635-2.3391 2.25006-3.43925 3.45315zm35.51767 26.48357c.83153-1.37939 1.6115-2.79302 2.30804-4.22428-3.00365-2.22437-5.94477-4.52167-8.82084-6.88739-.54167.52018-1.10984 1.00935-1.70231 1.46046 2.62417 3.27407 5.3626 6.49398 8.21506 9.65128zm2.98042-5.67825c.59751-1.35263 1.11299-2.71002 1.51321-4.05853-2.82794-1.41647-5.63161-2.89894-8.40808-4.44569-.46199.67937-.96663 1.32401-1.50835 1.93543 2.74245 2.25357 5.54427 4.44447 8.40326 6.56871zm-33.85024-25.31876c2.89175 2.17226 5.82887 4.27024 8.80723 6.29164.43064-.68633.90394-1.34664 1.42073-1.97663-2.30391-2.26239-4.55484-4.57148-6.75101-6.92422-1.18415.76794-2.34481 1.65002-3.47702 2.60916.00002.00001.00005.00003.00007.00005zm11.27413 3.14226c.4246-.43714.87222-.85463 1.34108-1.24965-1.46342-2.2973-2.87506-4.61171-4.23486-6.94066-1.18561.40386-2.3647.94582-3.53067 1.60564 2.09225 2.23562 4.23432 4.43142 6.42464 6.58472-.00006-.00001-.00012-.00003-.00019-.00005zm16.5094 12.34012c2.63949 1.46938 5.30355 2.88019 7.98963 4.23095.30223-1.30036.48855-2.58108.54145-3.82838-2.56557-.63536-5.134-1.32453-7.70284-2.06748-.2488.56995-.52485 1.12626-.82838 1.66481.00005.00003.00009.00006.00014.0001zm-13.91233-14.55631c.5372-.37673 1.09712-.72599 1.68076-1.04397-.49806-1.90459-.96527-3.80704-1.40197-5.70636-1.4071-.11944-2.81168.002-4.20798.32732 1.26504 2.15437 2.5748 4.29609 3.92926 6.42306-.00002-.00002-.00004-.00004-.00007-.00005zm15.30901 11.41696c2.37614.68703 4.75181 1.3277 7.12503 1.92196-.0807-1.42723-.35821-2.80573-.86653-4.11975-1.89747.1134-3.80757.19925-5.72936.2572-.14023.6612-.3174 1.30865-.52914 1.94089 0-.0001 0-.0002 0-.0003zm-7.58741-5.67236 3.34771-4.4752c-1.26336-.94681-2.51653-1.90807-3.7592-2.88344 2.29443-.40699 4.5685-.85074 6.82088-1.33055.17874 2.40139.4019 4.81234.67029 7.23134-2.33666.52434-4.69699 1.01058-7.07954 1.45795-.00005-.00003-.00009-.00007-.00014-.0001zm-104.758849-158.91954c1.340488.0292 2.681043.0579 4.021663.0859 1.401691-4.66156 2.960807-9.19915 4.665748-13.61246.104095-.271.208734-.54154.313927-.81161.24033.11409.480791.22782.721369.34118 3.53069 1.6582 7.668181 2.16157 11.549816 1.19681 1.49237-.24576 2.865198-.78763 4.015538-1.53496.274458.291.549754.58071.825879.86909.160333.16767.320947.33488.481841.50165.182931-.1399.365987-.27936.549198-.41831 2.348912-1.76447 4.72116-3.44903 7.11401-5.05509.240602-.1626.481411-.3244.722433-.48539-.198428-.21255-.396396-.42581-.593903-.63979-1.96503-2.12659-3.884435-4.32308-5.756778-6.58676-.145888-.17689-.291498-.35419-.436814-.53189-.193854.12345-.387623.24729-.581252.37169-.340332.21868-.680277.43894-1.019872.66064-.940988-.98765-2.139511-1.82825-3.519832-2.4116-3.533205-1.84008-7.651326-2.31546-11.460668-1.53737-.259772.0535-.519537.10727-.779292.16151-.03761-.28549-.07458-.57122-.110902-.85718-.60103-4.65904-1.03124-9.37818-1.290948-14.14581-1.295625-.27808-2.591377-.55563-3.887255-.83265.678501 6.79493 1.694582 13.46785 3.046228 19.98527 1.916072-1.21002 4.859929-1.69831 8.064063-1.2209 2.870392.42769 5.353569 1.53879 6.923558 2.87737-1.111255.7614-2.218295 1.53911-3.320864 2.33325-.244328.1762-.488467.35313-.732369.5309.195316.23104.391113.46139.587389.69104.890798 1.0368 1.791368 2.05929 2.701567 3.06721-1.841038.93933-4.530351 1.44253-7.438457 1.18295-3.235509-.28882-5.984909-1.4567-7.558833-3.08514-2.883595 6.0272-5.500154 12.33006-7.816182 18.91063-.000001-.00006.000002-.00011 0-.00017zm11.020215-44.19895c.241902 4.30265.624124 8.56464 1.146899 12.77725.736889-.11308 1.484564-.18132 2.235875-.20816.309629-3.75218.731279-7.50082 1.262339-11.24126-1.513178-.51147-3.073558-.9506-4.645113-1.32783zm-5.335332 44.27883c1.622068-.005 3.246493-.0737 4.843062-.22296.361564-3.77256.836631-7.51027 1.420684-11.2106-.723169-.2024-1.432753-.44391-2.12145-.72643-1.50175 3.95359-2.885355 8.007-4.142384 12.15999zm6.446306-.40475c1.476903-.19306 2.914469-.45863 4.283857-.81716-.253346-3.17397-.419415-6.35397-.499908-9.53707-.820372-.0516-1.632424-.15767-2.434585-.31304-.551124 3.52261-1.002209 7.07911-1.349276 10.66727zm5.033625-42.0061c-.500623 3.56357-.900816 7.13422-1.198266 10.7078.803857.0367 1.605883.12327 2.402942.26237.832337-3.10053 1.742551-6.16994 2.727606-9.20648-1.235027-.65787-2.557051-1.24146-3.932263-1.76377-.000005.00003-.00001.00005-.000019.00008zm2.7295 11.30183c.585313.15354 1.164917.3365 1.735585.54859 1.268872-2.38339 2.584043-4.72125 3.942929-7.01354-.922451-.83044-1.960297-1.59047-3.093267-2.28365-.93106 2.88703-1.793685 5.80382-2.585198 8.74879-.000016-.00006-.000034-.00013-.000049-.00019zm-2.410226 20.38425c.07997 3.0207.238008 6.03819.475598 9.04991 1.276184-.41629 2.474204-.92012 3.573215-1.51825-.79109-2.52514-1.522289-5.08139-2.193643-7.6663-.617276.0758-1.236844.12142-1.85516.13446-.000005.00006-.000008.00012-.00001.00018zm5.595636-19.22327c.588548.2796 1.16467.59188 1.725744.93942 1.398777-1.35547 2.812132-2.67714 4.239066-3.96537-.583108-1.26717-1.370085-2.41867-2.327817-3.46716-1.25101 2.12514-2.464047 4.28955-3.637008 6.4932.000004-.00003.000011-.00006.000015-.00009zm-2.182197 18.8286c.622239 2.38699 1.296116 4.74904 2.021667 7.08414 1.183425-.80258 2.221135-1.74409 3.084775-2.84588-1.080904-1.5604-2.137078-3.14945-3.168185-4.7662-.639775.2137-1.286779.38938-1.938516.52809.000089-.00005.000173-.0001.000259-.00015zm1.049022-9.359 5.527263.65676c.179643-1.54704.380798-3.09098.603135-4.63146 1.489884 1.76656 3.008723 3.49126 4.555824 5.17276-1.970132 1.32789-3.926379 2.70872-5.867229 4.14328-1.636436-1.73447-3.243023-3.51534-4.819013-5.34117.000004-.00006.000012-.00011.00002-.00017zm89.2358-167.547751c.66682 1.152816 1.33407 2.305394 2.00174 3.457738 4.61493-1.202893 9.22896-2.246039 13.83048-3.129124.28224-.05474.56444-.108863.84659-.162398.0313.263495.063.526913.095.790237.47347 3.859129 2.2244 7.630964 5.09557 10.40248.99819 1.132413 2.1857 2.005986 3.43336 2.581188-.10225.386723-.20321.773417-.30288 1.160079-.058.224615-.11564.449224-.1728.673813.21638.0804.43249.161143.64832.242215 2.75263 1.048398 5.45902 2.151422 8.11643 3.307635.26814.115664.53579.231872.80294.348618.0757-.281686.15214-.563373.22928-.845063.7656-2.801417 1.60213-5.603124 2.51101-8.402386.0712-.218389.14293-.436765.21506-.655121-.20918-.09655-.41866-.192785-.62846-.288693-.36884-.168484-.73864-.335963-1.10939-.502436.32946-1.325494.3934-2.788192.14113-4.265349-.35287-3.967748-2.18059-7.690476-4.88293-10.479919-.18466-.190048-.3696-.37991-.55482-.569589.21899-.185177.43848-.369992.65849-.554435 3.57962-3.012905 7.29428-5.927581 11.14366-8.732424-.47075-1.23901-.94198-2.477854-1.41368-3.716534-5.31369 4.254393-10.3359 8.71174-15.06863 13.338541 2.03854.968188 4.03179 3.187641 5.35249 6.143859 1.18374 2.649655 1.5827 5.337979 1.29321 7.382159-1.24126-.527482-2.49263-1.043867-3.75386-1.549021-.27964-.111862-.55977-.223171-.84037-.333929-.0908.288404-.18078.576816-.27006.865238-.4006 1.306099-.78616 2.612358-1.15685 3.918527-1.77921-1.055318-3.63035-3.059778-4.95487-5.656743-1.47226-2.886638-1.94884-5.832721-1.42247-8.024852-6.58085.762918-13.21961 1.847501-19.88277 3.255767.00005-.00003.00009-.000056.00014-.000085zm42.77904-14.157711c-3.47122 2.538252-6.83168 5.166748-10.08115 7.876765.49216.559463.95276 1.152062 1.38074 1.769988 3.31589-1.763208 6.68711-3.439773 10.11105-5.025023-.39328-1.548408-.87303-3.09723-1.41064-4.62173zm-39.91488 19.024136c.84056 1.37393 1.73536 2.718024 2.68426 3.996209 3.36173-1.634474 6.75582-3.178735 10.17776-4.630263-.21046-.718563-.38108-1.446227-.50671-2.17772-4.11145.808608-8.23271 1.745917-12.35535 2.811703zm3.66443 5.263404c.92476 1.154019 1.89145 2.237296 2.90322 3.214022 2.5604-1.855201 5.16551-3.655817 7.81364-5.398932-.38822-.72159-.72604-1.464893-1.01729-2.225634-3.25981 1.386053-6.49431 2.857002-9.69952 4.410617zm38.02284-18.113269c-3.26036 1.515085-6.47262 3.113839-9.63444 4.79213.4032.696344.7636 1.418075 1.07717 2.163963 3.05677-.97407 6.12906-1.873273 9.21383-2.69584-.11866-1.394542-.34734-2.821806-.65647-4.26028-.00003.000009-.00006.000018-.00009.000027zm-8.01257 8.418451c.18701.575501.34614 1.162114.47576 1.756981 2.69356-.220189 5.37505-.382322 8.04189-.486362.1977-1.226036.27275-2.510737.23952-3.838842-2.9312.786755-5.85119 1.643399-8.7573 2.568364.00004-.000047.00009-.000092.00013-.000141zm-18.49637 8.856071c-2.51538 1.658244-4.99169 3.368835-7.42744 5.129227 1.01401.867397 2.06363 1.622539 3.14465 2.243661 1.7436-1.984029 3.53495-3.942679 5.374-5.873478-.38949-.482546-.75444-.982947-1.09105-1.499494-.00005.000029-.00011.000055-.00016.000084zm19.23925-5.548023c.0822.646415.12991 1.300092.13947 1.960156 1.90019.444755 3.78153.917435 5.64302 1.417681.75358-1.177904 1.29713-2.464734 1.65997-3.838889-2.46887.103528-4.95042.257234-7.44255.461089.00003-.000011.00006-.000022.00009-.000037zm-17.10597 8.229163c-1.69994 1.786305-3.35879 3.596631-4.97651 5.428981 1.30137.585176 2.64913.972751 4.04481 1.126048.77064-1.734939 1.57165-3.466481 2.40337-5.193695-.51971-.428346-1.01044-.883097-1.47194-1.361472.00009.000046.00018.000094.00027.000138zm8.49522-4.089231 2.40038 5.015931c1.41227-.677951 2.83191-1.338654 4.2586-1.981769-.69663 2.207614-1.34869 4.416372-1.95689 6.624948-2.19083-.948668-4.41466-1.861424-6.66999-2.737471.6093-2.306738 1.26496-4.61441 1.96774-6.921563.00005-.000027.0001-.00005.00016-.000076zm188.09991-7.795714c-.71553 1.123397-1.43063 2.247048-2.14532 3.370935 3.2027 3.528306 6.26356 7.134885 9.18222 10.808115.1795.225051.35854.450333.53699.67587-.21993.150282-.43959.300882-.65905.451657-3.2134 2.213625-5.75814 5.517165-6.89248 9.357451-.54467 1.413512-.77123 2.876424-.70377 4.25586-.39169.08787-.78271.176775-1.17307.266751-.22683.05213-.45341.104692-.6798.157507.0288.230278.0573.460482.0853.690615.3446 2.941794.62193 5.872123.83341 8.788273.0222.29378.0438.58744.0647.88094.28647-.0627.57326-.12479.86043-.18628 2.85511-.61306 5.74531-1.16784 8.66789-1.662915.22815-.03835.45654-.07625.68509-.113872-.0124-.232124-.0251-.464371-.0383-.696695-.0232-.408395-.0477-.817084-.0734-1.226068 1.33614-.324922 2.6693-.952284 3.86694-1.869594 3.36915-2.173876 5.82484-5.554168 7.04343-9.264627.0828-.253327.16528-.506794.24751-.760403.26721.107343.53434.215276.80141.323778 4.35598 1.759776 8.69288 3.672488 12.99912 5.737802.87829-1.007683 1.75621-2.015683 2.6338-3.023983-6.27644-2.658698-12.59336-5.002856-18.91727-7.034485.0883 2.261984-.95628 5.075221-2.97081 7.63506-1.80634 2.295275-4.01286 3.907924-5.97028 4.603701-.11093-1.353675-.23559-2.710284-.37407-4.069587-.0308-.301322-.0623-.602784-.0945-.904368-.29912.05353-.59792.107643-.89637.162379-1.34977.251165-2.69246.514727-4.02782.790543.11189-2.076678 1.0364-4.654832 2.73263-7.039595 1.88505-2.650247 4.28636-4.444656 6.48131-4.999987-3.73598-5.484025-7.77063-10.863484-12.10597-16.104876.00005.000027.0001.00006.00014.000087zm32.52001 31.269365c-3.89327-1.860527-7.81134-3.595511-11.74548-5.204723-.26738.700473-.57893 1.388705-.92823 2.059987 3.1248 2.116485 6.20451 4.316649 9.23446 6.597878 1.18984-1.086342 2.3391-2.250051 3.43925-3.453142zm-35.51763-26.483611c-.83153 1.379387-1.61151 2.793018-2.30805 4.224273 3.00365 2.22438 5.94477 4.52168 8.82083 6.887399.54167-.52018 1.10984-1.009346 1.70232-1.460453-2.62417-3.274083-5.3626-6.493988-8.21505-9.65129-.00002.000016-.00003.000042-.00005.000071zm-2.98043 5.678246c-.59751 1.352624-1.113 2.710014-1.51322 4.058522 2.82795 1.416478 5.6316 2.898945 8.40807 4.445709.46199-.679372.96664-1.32402 1.50836-1.93543-2.74244-2.253578-5.54427-4.444482-8.40325-6.568733zm33.85021 25.318798c-2.89175-2.172256-5.82887-4.270248-8.80723-6.291642-.43064.686316-.90393 1.346633-1.42073 1.976621 2.30391 2.262387 4.55484 4.571478 6.75101 6.924227 1.18415-.767939 2.34481-1.650004 3.47701-2.609154-.00002-.000015-.00004-.000027-.00006-.000052zm-11.27413-3.142275c-.4246.437147-.87221.854638-1.34108 1.249651 1.46342 2.297296 2.87505 4.61172 4.23485 6.94066 1.18561-.40386 2.3647-.94582 3.53068-1.60563-2.09225-2.23562-4.23432-4.431421-6.42464-6.584726.00006.000008.00012.000028.00019.000045zm-16.50939-12.340136c-2.63948-1.469389-5.30354-2.8802-7.98961-4.230962-.30224 1.300354-.48856 2.581077-.54146 3.828381 2.56556.635364 5.134 1.324539 7.70284 2.067488.2488-.569947.52485-1.126261.82838-1.664813-.00005-.000024-.00009-.00006-.00015-.000094zm13.91231 14.556333c-.53719.376719-1.09712.725981-1.68076 1.043964.49807 1.904589.96527 3.80704 1.40197 5.70636 1.4071.11944 2.81168-.002 4.20798-.32732-1.26504-2.15437-2.5748-4.296093-3.92926-6.423062.00003.000021.00005.000037.00007.000058zm-15.30899-11.416984c-2.37613-.68704-4.75181-1.327706-7.12502-1.921968.0806 1.427226.3582 2.805722.86652 4.119743 1.89747-.113391 3.80757-.199241 5.72936-.257187.14023-.661198.31741-1.308651.52914-1.940886 0 .000095-.00001.000194 0 .000298zm7.58741 5.672368-3.34772 4.475197c1.26335.946819 2.51653 1.908075 3.75919 2.883443-2.29443.406987-4.56849.85073-6.82087 1.330536-.17874-2.401388-.4019-4.81234-.67029-7.231342 2.33666-.524334 4.697-1.010563 7.07955-1.457941.00004.000037.00009.000074.00014.000107zm81.52914 228.14346c-3.72102 3.80301-10.78255 4.36338-14.48721 1.01345-1.04403 5.22872-5.37568 5.84513-11.43524 4.33631 1.49283 2.70842.58817 5.83855-2.8906 7.33691-.85203-.65178-1.87616-1.10324-2.99798-1.2819-3.37156-.53696-6.35023 1.49697-6.80569 4.63114-.45548 3.1343 1.75432 6.36318 5.09526 7.0935 1.11224.24313 2.21108.17047 3.2075-.16426 2.85261 2.64689 2.8345 5.99615.62374 8.20586 6.20582.51242 10.21847 2.15446 9.70732 7.70405 4.54693-2.46081 11.34596-.39803 13.87842 3.89543.47676-7.8288-4.0736-14.67561-10.4837-18.54393-4.1404 3.85297-9.64446.94968-10.78074-3.48074.47964-.69926.81196-1.51377.94242-2.40714.13052-.89352.0454-1.77221-.21274-2.5884 2.29441-3.73563 8.45116-4.85439 11.31396-.21004 7.28342-2.1055 13.63516-8.0286 15.32533-15.54016-.00004-.00005-.00007-.00008-.00009-.00009zm-27.92613 18.08594c-.0469.32096-.12695.62832-.23717.91887-.0895-1.45077-1.21352-2.69093-2.72194-2.95642-1.7313-.30472-3.3076.76285-3.56517 2.41205-.20711 1.32608.5047 2.65698 1.69141 3.30967-.16663-.0174-.33502-.0429-.50332-.0784-2.54339-.53756-4.22637-2.94566-3.87703-5.34646.34934-2.40077 2.60891-3.94136 5.16997-3.51489 2.5609.42643 4.41024 2.74357 4.04331 5.25549-.00003.00002-.00006.00005-.00009.00007zm-133.75931 114.61335c-5.08776-1.18605-9.28508-6.87043-8.36899-11.7616-5.00032 1.837-7.81538-1.47493-9.772-7.41097-1.52181 2.69482-4.67106 3.59358-7.82596 1.4624.0945-1.06786-.0743-2.17372-.5298-3.21595-1.36903-3.13236-4.73677-4.55385-7.6516-3.24455-2.91495 1.30937-4.43684 4.91927-3.23415 8.12369.40039 1.06673 1.05981 1.95129 1.8842 2.60816-.6853 3.83165-3.51452 5.63077-6.57568 4.97503 2.94684 5.49149 3.73367 9.75211-1.19269 12.33817 4.5303 2.48004 6.46939 9.31431 4.25055 13.77228 6.78079-3.84127 10.07538-11.37634 9.87967-18.85202-5.46082-1.40879-6.02304-7.60164-2.8872-10.95466.85132.0265 1.72034-.13267 2.54754-.50351.82731-.37093 1.52625-.91488 2.07947-1.57063 4.4351-.0711 8.64748 4.54323 6.25698 9.43346 5.67128 5.02863 13.97248 7.24473 21.13963 4.80082.00001-.00005.00003-.00009.00003-.00012zm-30.07397-14.06303c-.29737.13335-.60117.23147-.90699.29521 1.17535-.85375 1.62422-2.47177 1.03138-3.88505-.68068-1.62279-2.44703-2.37587-3.98633-1.70174-1.23801.54222-1.97627 1.86125-1.88232 3.2126-.0761-.14948-.14621-.30492-.20771-.46571-.9302-2.42998.18884-5.15038 2.42078-6.15236 2.23194-1.00197 4.78032.0757 5.80614 2.46437 1.02576 2.38851.0527 5.1893-2.27489 6.23267-.00004-.00001-.00008-.00003-.00012-.00003zm-164.501456-56.75665c-1.29974-5.05318 1.808374-11.41432 6.580128-12.85925-3.938817-3.60152-2.302346-7.6412 2.075707-12.14578-3.101997-.11192-5.365105-2.5072-4.940571-6.32742.995035-.41356 1.901255-1.08052 2.616634-1.97562 2.150136-2.69036 1.83947-6.38985-.70318-8.40048-2.542773-2.01072-6.480991-1.6712-8.763836.92067-.759916.86279-1.235278 1.87124-1.43068 2.91884-3.735553 1.19233-6.672773-.4814-7.545909-3.52456-3.485439 5.24149-6.908296 7.93412-11.541376 4.80361-.05668 5.1915-5.232071 10.13004-10.244593 10.28806 6.6087 4.14779 14.865018 3.53857 21.429845-.14006-1.303711-5.51293 3.932604-8.94821 8.40106-7.71582.376836.77396.926715 1.47646 1.64494 2.04267.718315.56628 1.530157.93709 2.372988 1.12567 2.143235 3.94467-.02187 9.83756-5.480914 9.9859-1.836797 7.39409.04505 15.77918 5.529631 21.00358.000045-.00001.000082-.00001.000126-.00001zm-1.455828-33.30583c-.258309-.20375-.488372-.42967-.68885-.67351 1.312579.6517 2.964.29682 3.944572-.89679 1.125947-1.37055.966669-3.31098-.360002-4.37676-1.067456-.85755-2.590906-.89832-3.749971-.17695.09718-.1387.202408-.27483.316469-.40586 1.723643-1.98013 4.677047-2.25877 6.622446-.72064 1.945389 1.53812 2.180169 4.33685.532721 6.37364-1.647335 2.03667-4.595693 2.47172-6.617364.877-.000008-.00005-.000014-.00008-.000021-.00013zm-37.104912-172.27712c3.721013-3.80301 10.782541-4.36339 14.48721-1.01347 1.044029-5.22871 5.375677-5.84511 11.435227-4.3363-1.492819-2.70841-.588169-5.83854 2.890615-7.33691.852025.65178 1.876151 1.10326 2.99797 1.28192 3.371558.53695 6.35024-1.49698 6.805701-4.63114.455484-3.13431-1.754319-6.3632-5.095274-7.09351-1.112231-.24313-2.211069-.17047-3.207488.16425-2.852608-2.64687-2.834514-5.99614-.623745-8.20586-6.205817-.51242-10.218475-2.15445-9.707315-7.70405-4.546933 2.46082-11.345959.39803-13.878425-3.89542-.476747 7.82879 4.073602 14.6756 10.483701 18.54392 4.140404-3.85297 9.644464-.94967 10.780745 3.48075-.479656.69926-.811959 1.51377-.942452 2.40712-.130527.89353-.04539 1.77221.212743 2.5884-2.294415 3.73564-8.451157 4.85439-11.313963.21005-7.283416 2.10549-13.635163 8.02859-15.32533 15.54015.000058.00007.000078.0001.000095.00011m27.926101-18.08595c.04689-.32095.126954-.62834.237154-.91889.08946 1.45078 1.213509 2.69094 2.721931 2.95643 1.731303.30473 3.307612-.76286 3.565184-2.41206.207105-1.32608-.504703-2.65697-1.691409-3.30967.166626.0174.335005.0429.503319.0784 2.543391.53756 4.226367 2.94566 3.877026 5.34645-.34934 2.40078-2.608917 3.94137-5.169977 3.51491-2.560895-.42645-4.410233-2.74359-4.043303-5.25552.000025-.00002.000059-.00004.000093-.00006zm133.75934-114.613333c5.08776 1.186056 9.28507 6.870437 8.36899 11.761596 5.00032-1.836953 7.81537 1.47493 9.77199 7.41098 1.52181-2.694829 4.67107-3.593584 7.82597-1.462398-.0945 1.067846.0743 2.173705.52978 3.215948 1.36906 3.132362 4.73679 4.553835 7.65161 3.244536 2.91495-1.309365 4.43684-4.919268 3.23416-8.123684-.40039-1.066731-1.05981-1.951284-1.8842-2.608155.68529-3.831645 3.51451-5.630763 6.57569-4.975028-2.94685-5.491486-3.73369-9.752119 1.19268-12.338173-4.5303-2.480038-6.4694-9.314307-4.25054-13.772282-6.78081 3.841268-10.0754 11.376347-9.87968 18.852018 5.46081 1.408794 6.02304 7.601647 2.88718 10.95466-.85131-.02647-1.72033.132672-2.54751.50352-.82732.37091-1.52627.914872-2.07949 1.570617-4.4351.07112-8.64747-4.543215-6.25697-9.433454-5.67129-5.028633-13.97247-7.244727-21.13964-4.800813-.00001.000035-.00001.000076-.00002.000112zm30.07396 14.063027c.29739-.133313.60117-.231461.90697-.29525-1.17533.853749-1.62421 2.471778-1.03137 3.885053.68068 1.622788 2.44704 2.375866 3.98633 1.701748 1.23802-.542187 1.97626-1.861261 1.88233-3.212616.0761.14948.14611.304958.20771.465724.9302 2.429974-.18884 5.150373-2.42078 6.152347-2.23193 1.001976-4.78033-.07572-5.80614-2.464372-1.02575-2.388501-.0527-5.18929 2.27488-6.232664.00005.000009.00009.000021.00012.000033zm164.50146 56.756686c1.29974 5.05317-1.80837 11.41431-6.58013 12.85924 3.9388 3.60153 2.30234 7.6412-2.07572 12.14579 3.102.11191 5.36511 2.50719 4.94057 6.3274-.99503.41356-1.90125 1.08052-2.61663 1.97564-2.15013 2.69036-1.83947 6.38984.70318 8.40048 2.54278 2.01072 6.48099 1.67119 8.76384-.92067.75991-.86279 1.23527-1.87124 1.43067-2.91884 3.73556-1.19233 6.67278.4814 7.54592 3.52455 3.48543-5.24149 6.90828-7.93411 11.54138-4.8036.0567-5.19152 5.23206-10.13004 10.24459-10.28807-6.6087-4.14778-14.86503-3.53857-21.42985.14007 1.30372 5.51292-3.93261 8.9482-8.40106 7.71581-.37683-.77395-.92672-1.47646-1.64493-2.04267-.71833-.56629-1.53016-.93709-2.373-1.12566-2.14323-3.94467.0219-9.83757 5.48092-9.98591 1.8368-7.39409-.0451-15.77918-5.52964-21.00358-.00003.00001-.00008.00002-.00011.00002zm1.45582 33.30582c.2583.20376.48837.42968.68885.67351-1.31259-.65169-2.96401-.29682-3.94458.8968-1.12595 1.37055-.96667 3.31098.36 4.37676 1.06746.85755 2.59091.89831 3.74997.17695-.0972.1387-.20241.27483-.31646.40584-1.72365 1.98014-4.67705 2.25879-6.62245.72065-1.94539-1.53812-2.18017-4.33684-.53272-6.37363 1.64733-2.03667 4.59569-2.47174 6.61736-.877.00001.00005.00002.00007.00003.00012z" fill="#eed9f2" fill-rule="evenodd" stroke-linejoin="round" stroke-width="16"/><path d="m243.80738.0000099-1.09063.13584948c-35.41888 4.43106672-59.82155 40.59951962-59.82155 83.12258762 0 19.651093 5.56822 37.454143 14.70426 51.727993-12.74716 4.77236-23.43398 13.577-31.2798 24.4701-10.28356 13.93803-17.05408 31.13111-21.63257 50.58571-8.45581 34.61437-10.18679 74.72587-10.18679 110.10495v17.63363h43.95014l11.21618 153.86376 12.68374 2.91979c32.65474 7.51917 67.06561 6.96141 98.20952.0287l12.88655-2.86814 10.26141-153.94412h41.79186v-17.63362c0-35.13738-.29108-75.84863-8.04956-111.24149-4.17548-19.1552-10.62048-36.63706-20.73902-50.70434l-.065-.0899-.067-.0899c-8.268-11.19208-20.02936-19.7734-33.96233-24.18118 8.84907-14.18304 14.00013-31.64064 14.00013-50.581893-.00006-45.076231-28.42922-83.2584969-66.91065-83.2584969z" fill="#6a1f7a"/><path d="m244.90603 17.632878c-23.41353 2.929141-44.37799 30.026153-44.37799 65.626494 0 19.504748 6.66162 36.648568 16.45806 48.600248l11.9517 14.20487-18.31939 3.42876c-12.73539 2.44911-22.13999 9.30664-30.07515 20.37664-8.32699 11.26593-14.49874 26.35248-18.71123 44.28-7.83718 32.03443-9.69847 71.22027-9.69847 105.99771h42.71256l11.46184 157.23323c29.78126 6.85751 61.81566 6.36769 90.42136 0l10.4822-157.23323h40.65533c0-34.97337-.48986-74.84496-7.64124-107.46718-3.82064-17.53566-9.79649-33.01407-17.82958-44.18204-8.03308-10.87407-18.12345-17.4377-32.62223-19.69088l-18.51529-2.93894 11.65778-14.59673c9.69852-11.85372 16.06621-28.99753 16.06621-48.012458 0-37.755561-23.51151-65.626494-49.27619-65.626494z" fill="#eed9f2"/></g></svg>