<svg height="500" viewBox="0 0 500 500" width="500" xmlns="http://www.w3.org/2000/svg"><g transform="translate(0 -1000)"><path d="m0 1250a250 250 0 0 1 -250 250 250 250 0 0 1 -250-250 250 250 0 0 1 250-250 250 250 0 0 1 250 250z" fill="#9db3df" stroke-linecap="round" stroke-linejoin="round" stroke-width="9.39799" transform="scale(-1 1)"/><path d="m263.85417 1289.4759c11.1612 3.7204 14.8816-7.4408 18.46913-11.0283 7.04219-8.7696 15.28021-26.0428 14.48299-54.6102-10.49685-61.1209-92.21278-68.5617-125.69638-20.1965-11.1612 18.602-11.1612 33.4836-14.8816 52.0856 0 29.7632 14.8816 52.0856 40.9244 70.6876 11.1612 11.1612 26.0428 11.1612 37.204 14.8816 70.6876 11.1612 130.214-48.3652 119.0528-119.0528-7.4408-29.7632-22.3224-59.5264-48.3652-78.1284-44.6448-29.7632-96.7304-29.7632-137.6548-3.7204-18.602 11.1612-29.7632 22.3224-40.9244 40.9244-63.2468 100.4508 26.0428 219.3708 133.9344 208.2096 22.3224 0 40.9244-11.1612 63.2468-18.602 22.3224-14.8816 44.6448-37.204 59.5264-59.5264 40.92441-78.1284 7.4408-171.0056-66.9672-215.6504-26.0428-11.1612-52.0856-22.3224-81.8488-22.3224-37.204 0-70.6876 11.1612-100.4508 33.4836-33.4836 26.0428-52.0856 59.5264-66.9672 96.7304-7.4408 14.8816-3.7204 33.4836-7.4408 52.0856 0 119.0528 126.4936 215.6504 241.69313 174.726 29.7632-14.8816 63.2468-26.0428 89.2896-52.0856 22.3224-29.7632 44.6448-59.5264 52.0856-96.7304 3.7204-26.0428 7.4408-44.6448 3.7204-70.6876-18.602-152.5364-189.60753-234.25236-319.82153-156.2568-22.3224 14.8816-44.6448 29.7632-59.5264 52.0856-29.7632 37.204-44.6448 74.408-52.0856 119.0528-18.602 137.6548 96.7304 260.2951 230.53193 260.2951 29.7632 0 63.2468-11.1612 93.01-18.602 37.204-14.8816 70.6876-33.4836 96.7304-66.9672 18.602-26.0428 29.7632-52.0856 44.6448-81.8488 11.1612-33.4836 18.602-70.6876 14.8816-104.1712-7.4408-44.6448-18.602-85.5692-44.6448-119.0528 96.59753 111.7449 44.51193 297.7649-81.8488 364.7321-22.3224 14.8816-48.3652 18.602-70.6876 26.0428-89.2896 22.3224-178.44633-14.8816-234.25233-78.1284-14.8816-14.8816-18.602-33.4836-29.7632-52.0856-48.3652-70.6876-33.4836-152.5364 3.7204-226.8116 52.0856-89.2896 159.9772-130.21396 264.01553-100.4508 63.2468 18.602 115.3324 63.2468 141.3752 126.4936 7.4408 29.7632 14.8816 59.5264 14.8816 89.2896 0 37.204-11.1612 70.6876-29.7632 104.1712-14.8816 22.3224-26.0428 40.9244-48.3652 55.806-18.602 11.1612-33.4836 18.602-52.0856 29.7632-33.4836 11.1612-70.6876 18.602-111.612 14.8816-122.7732-18.602-200.76873-148.816-156.2568-267.7359 14.8816-29.7632 29.7632-59.5264 55.806-78.1284 55.806-40.9244 119.0528-52.0856 185.88713-29.7632 100.4508 40.9244 148.816 156.2568 89.2896 245.4135-11.1612 18.602-18.602 33.4836-33.4836 48.3652-55.806 40.9244-130.214 55.806-189.60753 18.602-14.8816-14.8816-33.4836-18.602-44.6448-37.204-44.6448-66.9672-44.6448-156.2568 18.602-211.9299 63.2468-55.806 174.72593-40.9244 215.65033 37.204 7.4408 22.3224 18.602 40.9244 14.8816 66.9672 0 22.3224-11.1612 40.9244-14.8816 59.5264-26.0428 55.806-96.7304 74.408-152.5364 55.806-18.602-11.1612-40.9244-18.602-52.0856-37.204-48.3652-70.6876-7.4408-178.4463 85.5692-174.7259 22.3224 0 44.6448 14.8816 63.2468 26.0428 29.7632 22.3224 33.4836 55.806 29.7632 89.2896-11.1612 48.3652-63.2468 70.6876-111.612 59.5264-22.3224-7.4408-37.204-29.7632-44.6448-52.0856-3.7204-26.0428 3.7204-48.3652 22.3224-66.9672 33.4836-33.4836 89.2896-7.4408 96.7304 37.204-3.7204 18.602-14.8816 37.204-29.7632 52.0856" fill="#c6d2ec" opacity=".9"/><path d="m262.92407 1285.7555c10.2311 3.4546 13.68576-6.7765 17.00754-10.0982 6.37783-7.8395 13.9515-23.6512 13.15428-49.9597-9.56675-56.2046-84.77198-62.9811-115.59815-18.602-10.2311 17.1404-10.2311 30.6933-13.68576 47.8337 0 27.3715 13.68576 47.8337 37.60262 64.9741 10.2311 10.2311 23.91686 10.2311 34.14796 13.6858 64.97413 10.2311 119.58428-44.3791 109.35318-109.3532-6.77644-27.3715-20.4622-54.743-44.37905-71.7506-41.05728-27.3715-88.89099-27.3715-126.49361-3.4546-17.14041 10.2311-27.37151 20.4622-37.60261 37.6026-58.06482 92.3456 23.91686 201.6988 123.03894 191.3349 20.4622 0 37.60262-10.2311 58.06482-17.1405 20.4622-13.6857 41.05727-34.1479 54.74303-54.743 37.60261-71.7506 6.77644-157.1869-61.51947-198.2442-23.91686-10.2311-47.83372-20.4622-75.20523-20.4622-34.14796 0-64.97413 10.2311-92.21278 30.8262-30.6933 23.9169-47.83371 54.743-61.51947 88.891-6.77644 13.6858-3.45466 30.6933-6.77644 47.8337 0 109.3532 116.2625 198.2442 222.16103 160.6416 27.37151-13.6858 58.06481-23.9169 81.98167-47.8337 20.4622-27.3716 41.05727-54.7431 47.83372-88.891 3.45465-23.9169 6.77644-41.0573 3.45465-64.9742-17.14041-140.0464-174.32731-215.25168-293.9116-143.5011-20.4622 13.6858-41.05727 27.3715-54.74303 47.8337-27.37151 34.148-41.05727 68.2959-47.83371 109.3532-17.14042 126.4936 88.89098 239.3014 211.92993 239.3014 27.37151 0 58.06481-10.2311 85.43633-17.1404 34.14795-13.6857 64.97413-30.8261 88.89098-61.5194 17.14042-23.9169 27.37152-47.8338 41.05728-75.2053 10.2311-30.6933 17.14041-64.9741 13.68575-95.6674-6.77644-41.0573-17.14041-78.6599-41.05727-109.3532 88.89099 102.5768 41.05727 273.4494-75.20523 334.9689-20.4622 13.6857-44.37906 17.1404-64.97413 23.9168-81.98167 20.4622-164.09621-13.6857-215.25171-71.7505-13.68576-13.6858-17.14042-30.6933-27.37152-47.8337-44.37906-64.9742-30.6933-140.1794 3.45466-208.4753 47.83371-81.9817 146.9558-119.5843 242.62323-92.2128 58.06481 17.1404 105.89853 58.0648 129.81539 116.2625 6.77644 27.3715 13.68575 54.743 13.68575 81.9817 0 34.1479-10.2311 64.9741-27.37151 95.6674-13.68576 20.4622-23.91686 37.6026-44.37906 51.2884-17.14041 10.2311-30.6933 17.1404-47.83371 27.3715-30.82617 10.2311-64.97413 17.1404-102.57675 13.6858-112.80784-17.1405-184.55841-136.7247-143.50114-246.0779 13.68576-27.3715 27.37151-54.7431 51.28837-71.7506 51.28837-37.6026 109.35319-47.8337 170.87266-27.3715 92.21277 37.6026 136.7247 143.5011 81.98167 225.6157-10.2311 17.1404-17.14041 30.6933-30.82617 44.379-51.28837 37.6026-119.58429 51.2884-174.32732 17.1404-13.68575-13.6857-30.82617-17.1404-41.05727-34.1479-41.05727-61.5195-41.05727-143.5012 17.14042-194.7895 58.19768-51.5541 160.77443-37.8684 198.37704 33.8822 6.77644 20.4622 17.14042 37.6026 13.68576 61.5195 0 20.4622-10.2311 37.6026-13.68576 54.743-23.91686 51.2884-88.89099 68.2959-140.17936 51.2884-17.14041-10.2311-37.60261-17.1405-47.83371-34.148-44.37906-64.9741-6.77644-164.0962 78.65988-160.6416 20.4622 0 41.05728 13.6858 58.06482 23.9169 27.37151 20.4622 30.6933 51.2884 27.37151 81.9817-10.2311 44.379-58.06481 64.9741-102.57674 54.743-20.4622-6.7764-34.14796-27.3715-41.05727-47.8337-3.45466-23.9169 3.45466-44.3791 20.4622-61.5195 30.6933-30.8262 81.98167-6.7764 88.89099 34.148-3.45466 17.1404-13.68576 34.1479-27.37152 47.8337" fill="#ecf0f9" opacity=".9"/><path d="m226.91591 1287.6157c5.31486 10.4968 15.8117 5.3148 20.86082 5.3148 10.62971-1.0629 28.56735-7.4408 48.23233-28.3016 35.87528-50.624-16.7418-113.7379-74.54088-103.2411-20.99368 5.3149-31.49052 15.8117-47.30222 26.3086-20.99369 20.9937-26.30855 47.3022-20.99369 78.9256 0 15.8117 10.49684 26.3085 15.8117 36.8054 42.12024 57.7991 126.22786 57.7991 168.3481 0 15.8117-26.3086 26.30854-57.7991 20.99369-89.4225-10.49685-52.6171-47.30223-89.4225-94.60446-99.9193-20.99369-5.3149-36.80539-5.3149-57.79907 0-115.73102 26.3085-136.7247 173.5301-52.61709 241.9589 15.8117 15.8117 36.80539 20.9937 57.79907 31.4905 26.30855 5.3149 57.79907 5.3149 84.10762 0 84.10761-26.3085 126.22786-115.731 105.23417-199.8386-10.49684-26.3086-20.99369-52.6171-42.12024-73.6108-26.30855-26.3085-57.79907-42.1202-94.60446-47.3022-42.12024-5.3149-78.92563 5.3148-115.73102 20.9937-15.8117 5.3148-26.30854 20.9936-42.12024 31.4905-84.10761 84.1076-63.11393 241.9589 47.30223 294.5759 31.49053 10.4969 63.11393 26.3086 99.91931 26.3086 36.80539-5.3149 73.61078-10.4969 105.23418-31.6234 20.99368-15.8117 36.80538-26.3086 52.61708-47.3022 94.60446-120.913 31.49053-299.758-115.73101-336.5634-26.30855-5.3148-52.61709-10.4968-78.92563-5.3148-47.30223 5.3148-84.10762 20.9937-120.913 47.3022-110.41616 84.1076-115.73102 252.4557-20.99369 347.0602 20.99369 20.9937 52.61709 36.8054 78.92563 52.6171 36.80539 15.8117 73.61077 26.3085 115.73102 20.9936 31.49053-5.3148 57.79907-15.8117 89.42247-26.3085 31.49053-15.8117 63.11393-36.8054 84.10761-63.1139 26.30855-36.8054 47.30223-73.6108 52.61709-115.731-10.76259 147.4872-179.11069 242.2246-315.83539 200.1043-26.30854-5.3148-47.30223-20.9937-68.42879-31.4905-78.92562-47.3022-115.73101-136.7247-110.41615-220.8323 0-20.9937 10.49684-36.8054 15.8117-57.7991 15.8117-84.1076 84.10761-131.5427 163.03324-157.7184 99.91932-26.30852 205.15349 20.9937 257.77058 115.731 31.49052 57.7991 36.80538 126.2279 10.49684 189.3418-15.8117 26.3086-31.49053 52.6171-52.61709 73.6108-26.30854 26.3085-57.79907 42.1202-94.60446 52.6171-26.30854 5.3148-47.30223 10.4968-73.61077 5.3148-20.99368-5.3148-36.80538-10.4968-57.79907-15.8117-31.49053-15.8117-63.11393-36.8053-89.42247-68.4287-73.61078-99.9194-36.80539-247.1409 78.92563-299.758 31.49053-10.4968 63.11393-20.9937 94.60445-15.8117 68.42879 10.4969 120.91301 47.3022 152.53641 110.4162 42.12024 99.9193-5.31486 215.6503-110.41616 236.644-20.99369 5.3148-36.80539 10.4968-57.79907 10.4968-68.42879-10.4968-131.54272-52.6171-147.22155-120.913 0-20.9937-10.49684-36.8054-5.31486-57.799 15.8117-78.9257 78.92563-142.0396 163.03325-136.7247 84.10761 5.3148 152.5364 94.6044 126.22786 178.8449-10.49685 20.9937-15.8117 42.1202-36.80539 57.7991-15.8117 15.8117-36.80538 20.9937-52.61708 31.4905-57.79908 20.9937-120.91301-15.8117-147.22155-68.4288-5.31486-20.9937-15.8117-42.1202-10.49684-63.1139 15.8117-84.1076 120.913-131.5427 184.02693-63.1139 15.67883 15.6788 20.86081 41.9873 26.17567 62.981 5.31486 36.8054-15.8117 63.1139-42.12024 84.1076-42.12025 26.3086-94.60446 5.3149-120.913-36.8054-10.49685-20.9936-5.31486-47.3022 5.31485-68.4287 15.8117-20.9937 36.80539-31.4906 63.11393-31.4906 23.98451 0 41.23931 14.86 48.993 34.3086 7.53814 18.9078 6.09609 42.1526-6.87275 60.2959-15.81171 10.4968-36.80539 15.8117-57.79908 15.8117" fill="#fff" opacity=".9"/></g><path d="m208.65014 317.28723c-2.83255 5.65097-4.44336 12.00376-4.44336 18.70898 0 8.49349 2.68053 16.36177 6.85937 23.24707-7.76159 9.00541-12.81691 20.20758-11.00976 29.9834 4.07397 20.41989 7.77526 42.7121 12.81055 61.57422 2.51796 9.43225 5.27972 18.00708 9.34765 25.76172 10.60543 16.2666 15.47656 17.29847 31.58203 23.43738l7.47071-8.50965c27.67023-27.81141 26.81189-70.78569 30.64258-107.92968.96268-10.13476-4.79504-18.08382-10.75977-24.59766 4.38849-6.62455 7.05664-14.46774 7.05664-22.9668 0-6.70585-1.60836-13.05957-4.44141-18.71093 27.59784-6.95224 52.25172-21.32767 71.70118-40.95313-1.34768 15.89161-.93098 35.95698 1.28333 56.28944 1.92508 16.67 5.77136 32.83479 9.92551 49.03842 7.58094 27.0138 19.07019 52.88567 36.19531 74.20703l17.22071 21.43945 12.75976-24.35937c6.23018-11.89398 10.9452-24.70578 13.32709-33.57749l9.24496-39.53061c2.83766-15.65695 4.45887-49.03615 4.18186-82.09305-.15422-8.56562-.21816-18.19884-.61719-26.14662-.33996-10.69028-5.54812-17.16665-10.67187-22.51563-6.72518-6.44079-13.00452-10.58383-20.41563-14.40013l-1.40039-17.57226c13.11098-9.07623 21.70508-24.15714 21.70508-41.11328 0-27.41799-22.58201-50-50-50-1.3202 0-2.59437.18763-3.89063.29101-15.97573-56.547581-63.37354-99.922482-122.10742-109.970701v-34.318359h-52v34.318359c-58.733 10.048829-106.13186 53.423733-122.107421 109.970701-1.296252-.10338-2.570428-.29101-3.890625-.29101-27.409155 0-50 22.56837-50 50 0 18.39321 10.109793 34.49025 25.097657 43.1875l.664062 6.35156c-7.163775 4.46354-14.173733 9.89419-18.855469 15.34961-4.995996 5.90669-9.649544 12.91226-9.933593 23.19531-2.025197 43.71199-.678663 93.03998 8.943359 149.44141 3.419581 26.71372 14.872206 51.22897 26.373047 68.125l13.314453-5.17578c21.94178-8.53088 29.72998-29.77506 35.62109-49.7461 5.89112-19.97103 9.0702-41.63984 13.44494-65.91224 4.37475-24.27241 5.52634-25.27314 6.7968-38.11631 1.21038-12.23578 1.07159-26.13393.76489-36.87857 17.68467 14.45825 38.90421 25.59718 62.20992 31.46779z" fill="#7896d3"/><path d="m238.20741-18v50.239708c-64.99939 3.789965-117.7989 53.359508-126.69881 116.858912-4.99996-3.19996-10.8999-5.09994-17.299846-5.09994-17.579835 0-31.999699 14.39986-31.999699 31.99969 0 14.79988 10.209904 27.39975 23.919775 30.99972l3.159971 30.19972c-.249998 63.79941 2.619975 135.69875-2.379978 202.29813-2.799974-7.29993-3.039971-12.09989-4.519958-20.89979l-12.219885 2.19998c2.199979 13.69986 4.979953 26.99975 13.119877 38.89963 23.919783-9.29992 30.219723-60.89943 36.619663-93.89914l-20.899811-11.59989 24.299781-6.99994c2.29997-14.29986 3.79996-23.29978 4.59995-32.3997l-19.49981-15.19986 20.19981.2c0-3.89996 0-8.09992-.1-12.89988-.4-12.99988-11.79989-41.99961-23.29978-48.19956l-3.29997-31.6997c4.59995-1.09999 8.69991-3.19996 12.29988-6.09995 14.19987 56.69949 63.8994 99.3991 123.99884 102.89906v9.59992c-9.29992 3.29997-15.99985 12.19988-15.99985 22.59979 0 11.59989 8.29992 21.2998 19.29982 23.49978-12.49989 3.59997-25.19977 19.19982-23.79978 26.19976 8.29992 41.59962 14.89986 88.59918 30.79971 93.09914 19.59982-19.69982 21.5998-59.29945 25.49976-97.0991.5-4.79996-11.59989-18.79983-22.99978-22.1998 10.89989-2.29998 19.19982-11.99989 19.19982-23.49978 0-10.39991-6.69994-19.29982-15.99985-22.59979v-9.59992c60.09943-3.49996 109.79896-46.19957 123.99883-102.89906 3.89997 3.09997 8.49992 5.39996 13.49987 6.39995l3.29997 42.09962c-11.59989 5.39995-21.69979 20.59981-22.09979 32.0997-.59999 22.19979.89999 46.39957 5.29995 70.19935l23.19978 10.19991-21.1998-.3c.4 1.89997.8 3.69997 1.29999 5.59995l7.59993 8.19992-5.09995 1.39999c7.09993 25.29977 17.79983 48.99955 32.89969 67.79938 5.49995-10.49991 9.79991-22.09981 13.09988-34.39969l-12.19989-1.89998c-.59999 7.79993-1.29999 15.59986-2.09998 23.29979-4.99995-58.49946-4.59996-127.19883-4.79996-183.59831l-3.29996-41.39962c13.09987-4.09996 22.59978-16.29985 22.59978-30.59972 0-17.59984-14.39986-31.9997-31.9997-31.9997-6.39994 0-12.29988 1.89998-17.29983 5.09995-8.89992-63.499414-61.69942-113.068957-126.69881-116.858922v-50.239708zm7.99992 65.999562c66.39938 0 119.99887 53.599508 119.99887 119.998898 0 66.39937-53.59949 119.99888-119.99887 119.99888s-119.99887-53.59951-119.99887-119.99888c0-66.39939 53.59949-119.998898 119.99887-119.998898zm-4.79995 15.009862c-6.79994.309997-13.39988 1.249989-19.79982 2.779974-3.69996 7.839928-6.19994 16.069852-7.59993 24.409775-6.99993-4.899954-14.59986-8.909917-22.69978-11.86989-5.69995 3.499968-10.9999 7.56993-15.99985 11.969889 14.29986 3.099972 27.09974 9.899908 37.39965 19.399818.39999 10.59991 2.59997 21.19981 6.49993 31.29971-10.0999-3.89996-20.6998-6.09994-31.2997-6.49994-9.49991-10.2999-16.29985-23.09978-19.39982-37.299651-4.49996 4.899951-8.49992 10.199901-11.99989 15.899851 2.99998 8.09993 7.09994 15.69986 11.99989 22.69979-8.39992 1.39999-16.69984 3.89997-24.49977 7.59993-1.49999 6.39993-2.49998 12.99987-2.79997 19.79981 12.19988-7.89993 26.09975-12.19988 40.09962-12.69987 7.79993 7.19992 16.79984 13.19987 26.69975 17.49984-9.89991 4.29996-18.89982 10.2999-26.69975 17.59982-13.99987-.59999-27.89974-4.79995-40.09962-12.69987.29999 6.79994 1.29998 13.29988 2.79997 19.69981 7.79993 3.69997 16.09985 6.19994 24.49977 7.59993-4.89995 6.99993-8.99991 14.59986-11.99989 22.69979 3.49997 5.69995 7.49993 10.9999 11.99989 15.89985 3.09997-14.19987 9.89991-26.99975 19.39982-37.29965 10.5999-.4 21.1998-2.59998 31.2997-6.49994-3.89996 10.0999-6.09994 20.59981-6.49993 31.29972-10.29991 9.49991-23.09979 16.29985-37.39965 19.29982 4.89995 4.49996 10.2999 8.59992 15.99985 12.09989 8.19992-2.99997 15.79985-6.99994 22.69978-11.89989 1.39999 8.39992 3.89997 16.59985 7.59993 24.39977 6.39994 1.49999 12.89988 2.49998 19.69982 2.79998-7.89993-12.19989-12.09989-25.99976-12.69988-40.09963 7.29993-7.79993 13.29987-16.79985 17.59983-26.69976 4.29996 9.89991 10.2999 18.89983 17.49984 26.69976-.5 13.99987-4.79996 27.89974-12.69988 40.09963 6.79993-.3 13.39987-1.29999 19.79981-2.79998 3.69997-7.79992 6.19994-15.99985 7.59993-24.39977 6.99993 4.89995 14.59986 8.89992 22.69979 11.89989 5.69994-3.49997 11.09989-7.59993 15.99985-12.09989-14.29987-2.99997-27.09975-9.79991-37.39965-19.29982-.4-10.5999-2.49998-21.19981-6.49994-31.29972 10.0999 3.99996 20.6998 6.09994 31.2997 6.49994 9.49991 10.29991 16.29985 23.09978 19.39982 37.29966 4.49996-4.89996 8.49992-10.1999 11.99989-15.89986-2.99997-8.09992-6.99994-15.69985-11.89989-22.69978 8.39992-1.39999 16.59984-3.89996 24.39977-7.59993 1.49999-6.39994 2.49998-12.99988 2.79998-19.79982-12.19989 7.89993-26.09976 12.19988-40.09963 12.69987-7.79993-7.19992-16.79984-13.19986-26.69975-17.49982 9.89991-4.29997 18.89982-10.29992 26.69975-17.59984 13.99987.59999 27.89974 4.79995 40.09963 12.69987-.3-6.79994-1.29999-13.29988-2.79998-19.69981-7.79993-3.69996-16.09985-6.19994-24.49977-7.59993 4.89996-6.99993 8.99992-14.59986 11.99989-22.69979-3.49997-5.69995-7.59993-11.0999-12.09989-15.99985-2.99997 14.29987-9.79991 27.09975-19.29982 37.39965-10.6999.4-21.1998 2.59998-31.2997 6.49994 3.89996-10.0999 6.09994-20.6998 6.49994-31.29971 10.2999-9.49991 23.09978-16.399845 37.39965-19.399818-4.99996-4.499958-10.29991-8.469921-15.99985-11.969889-8.09993 2.959973-15.69986 6.969936-22.69979 11.86989-1.39999-8.339923-3.89996-16.569847-7.59993-24.409775-6.39994-1.529985-12.99988-2.469977-19.79981-2.779974 7.99992 12.199888 12.19988 26.089759 12.79988 40.089626-7.29994 7.79993-13.29988 16.79985-17.59984 26.69976-4.29996-9.89991-10.2999-18.89983-17.59983-26.69976.59999-13.999867 4.79995-27.889738 12.79988-40.089626zm4.79995 80.989256c13.19988 0 23.99978 10.7999 23.99978 23.99978 0 13.19986-10.7999 23.99976-23.99978 23.99976-13.19987 0-23.99977-10.7999-23.99977-23.99976 0-13.19988 10.7999-23.99978 23.99977-23.99978zm-151.998576 15.99985c8.899916 0 15.999856 7.09992 15.999856 15.99984s-7.09994 15.99985-15.999856 15.99985c-8.929916 0-15.999849-7.09993-15.999849-15.99985s7.069933-15.99984 15.999849-15.99984zm151.998576 0c-4.49996 0-7.99992 3.49997-7.99992 7.99993 0 4.49995 3.49996 7.99991 7.99992 7.99991s7.99993-3.49996 7.99993-7.99991c0-4.49996-3.49997-7.99993-7.99993-7.99993zm151.99857 0c8.89992 0 15.99985 7.09992 15.99985 15.99984s-7.09993 15.99985-15.99985 15.99985c-8.89991 0-15.99985-7.09993-15.99985-15.99985s7.09994-15.99984 15.99985-15.99984zm-320.216993 81.69924c-10.119905 5.89994-18.619825 15.29986-18.819824 22.89979-1.999981 42.7996-.699993 90.79916 8.699919 145.89865l14.419864 5.59996c-3.799964-58.39946-3.699965-116.29893-4.299959-174.3984zm344.216773 10.2999c-.6 51.29954-.5 102.49906-4.29996 154.09859l14.39986-4.99995c7.59993-31.69971 9.59991-67.39938 9.29992-103.19905l-14.59987-.3 14.39987-8.39992c0-5.69995-.1-11.3999-.4-16.99984-.2-6.69994-8.69992-14.99987-18.79982-20.19983zm-175.99835 75.9993c4.49996 0 7.99993 3.49997 7.99993 7.99993s-3.49997 7.99992-7.99993 7.99992-7.99992-3.49996-7.99992-7.99992 3.49996-7.99993 7.99992-7.99993zm-4.19996 31.59972c1.39999.3 2.79997.39999 4.19996.39999 1.29999 0 2.49998-.1 3.69997-.3l-2.29998 90.59916z" fill="#fff" stroke-width="36"/></svg>