<svg height="500.00003" viewBox="0 0 500 500.00003" width="500" xmlns="http://www.w3.org/2000/svg" xmlns:xlink="http://www.w3.org/1999/xlink"><filter id="a" color-interpolation-filters="sRGB" height="1.094353" width="1.090339" x="-.045169" y="-.047176"><feGaussianBlur stdDeviation="7.899743"/></filter><filter id="b" color-interpolation-filters="sRGB" height="1.093567" width="1.090228" x="-.045114" y="-.046784"><feGaussianBlur stdDeviation="7.7558963"/></filter><filter id="c" color-interpolation-filters="sRGB" height="1.005744" width="1.005584" x="-.002792" y="-.002872"><feGaussianBlur stdDeviation=".4784572"/></filter><g transform="translate(-500)"><path d="m926.7767 73.223311c45.24113 45.241099 73.2233 107.741109 73.2233 176.776699 0 69.0356-27.98221 131.53559-73.2233 176.77669-45.2411 45.2411-107.74109 73.22332-176.77669 73.22332-69.03559 0-131.5356-27.98219-176.7767-73.22332-45.2411-45.2411-73.22331-107.74109-73.22331-176.77669 0-69.03559 27.9822-131.5356 73.22331-176.776699 45.2411-45.241105 107.74111-73.22330934 176.7767-73.22330934 69.0356 0 131.53559 27.98220534 176.77669 73.22330934z" fill="#3b2f4f"/><g transform="translate(500)"><path d="m230.6486 0c-128.19182 22.346591-234.17086 139.43202-223.06447 273.24395 5.6201 44.55936 16.72649 83.63245 44.55937 122.70552l50.17947 50.17947c33.45298 22.34661 72.52606 44.55938 111.46533 50.17946 39.07308 5.62012 78.01235 5.62012 111.46534-5.62008 39.07308-16.72649 72.52607-33.45297 100.35893-61.28587 33.45297-39.07306 55.79958-83.63245 66.90595-139.43201v-61.28587c-5.62008-27.83287-11.10637-50.17947-22.34657-78.01235-11.10641-22.34659-27.8329-44.55937-50.17947-61.285858-27.83289-27.832879-61.28586-44.559368-100.35895-55.799569-27.83288-5.620101-55.79957-11.10639-89.25255-5.620101-78.01235 11.106391-139.43202 61.28586-172.885 128.191818-11.10639 27.83288-16.72649 61.28586-22.34659 89.25255 0 33.45298 5.6201 66.90596 16.72649 94.73885 22.34659 44.55936 55.79957 89.25254 105.97904 111.46532 16.72649 5.62012 33.45298 11.1064 55.79957 16.72648 122.70553 22.34661 234.17085-55.79954 250.89734-178.37127 11.10641-78.01236-22.34657-139.43203-72.52604-189.6115-100.35895-89.25255-267.62385-44.559369-312.18322 78.01235-5.6201 27.83288-16.72649 55.79958-16.72649 83.63245 5.6201 78.01235 55.79957 150.53843 133.81192 172.885 61.28586 16.72649 122.70553 5.62012 172.885-33.45298 11.10639-11.10637 22.34659-22.34657 33.45299-33.45297 61.28584-83.63246 44.55935-195.09778-44.55937-256.51746-27.83288-16.726488-55.79958-22.346588-89.25256-27.832879-22.34659-5.620101-44.55937 5.620101-66.90596 11.106391-27.83288 16.726488-50.17947 22.346588-72.52606 50.179468-27.83288 33.45298-33.45298 66.90596-39.07308 105.97904 0 55.79958 27.83288 117.08544 83.63245 144.91833 78.01235 44.55934 183.99139 11.10637 223.06447-72.52607 22.3466-55.79958 11.1064-128.19183-39.07308-172.88501-33.45298-27.83288-66.90596-39.07308-111.46533-39.07308-66.90596 5.6201-111.46533 55.79957-122.70553 122.70553-11.10639 72.52606 33.45298 139.43202 105.97904 150.53843 100.35894 16.72649 183.99138-89.25257 139.43202-178.37131-11.10638-16.72649-27.83288-39.07308-50.17947-50.17947-27.83288-11.10639-55.79957-16.72649-83.63245-11.10639-33.45298 5.6201-55.79957 27.83288-72.52606 50.17947-16.72649 27.83288-16.72649 55.79957-11.10639 83.63245 11.10639 33.45298 39.07308 61.28586 72.52606 72.52607 44.55937 16.72649 89.25255-5.62011 111.46533-39.07309 33.45298-55.79957 5.6201-117.08543-50.17947-139.43202-50.17947-16.72649-122.70553 27.83288-105.97904 89.25255 5.6201 16.72649 11.10639 39.07309 27.83288 50.17947 22.34659 16.7265 50.17947 16.7265 72.52606 11.1064 22.34659-11.1064 39.07308-33.45299 39.07308-61.28587-5.6201-16.72649-5.6201-39.07308-22.34659-50.17947-13.91644-8.36324-29.2379-11.13984-43.17107-8.34651-13.93317 2.79332-26.47803 11.15656-34.84128 25.073-5.6201 16.72649-11.10639 33.45298 9.50065 44.827 41.74932-49.10898 35.32635.40143 29.84006-16.45887v5.6201c16.72649-5.6201 22.34659-22.34659 27.83288-33.45298 5.6201 5.6201 16.72649 11.10639 16.72649 22.34659 11.10639 39.07308-27.83288 72.52606-66.90596 61.28586-33.45298-11.10639-44.55937-50.17947-39.07309-83.63245 5.62011-22.34659 22.3466-39.07308 50.17948-44.55937 33.45298-5.6201 66.90596 11.10639 83.63245 39.07308 16.72649 27.83288 16.72649 50.17947 0 78.01235-33.45298 55.79958-105.97905 55.79958-150.53841 11.10639-33.45298-44.55937-22.3466-117.08543 27.83288-144.91831 16.72648-11.10639 39.07308-16.72649 61.28586-16.72649 11.10638 0 27.83288 5.6201 39.07308 11.10639 27.83288 11.10639 39.07308 39.07308 55.79957 61.28586 5.6201 16.72649 5.6201 27.83288 5.6201 44.55937-5.6201 72.52606-72.52606 122.70554-144.91831 105.97904-83.63246-22.34659-122.70554-122.70553-72.52606-195.09778 11.10638-16.72649 22.34659-27.83288 39.07308-39.07308 78.01235-44.559372 167.2649-5.6201 200.71788 66.90596 39.07309 94.73884-39.07308 206.33797-139.43202 200.71788-27.83288-5.62012-55.79958-5.62012-78.01235-22.3466-22.34659-11.10638-27.83288-27.83287-39.07309-39.07307-66.90596-78.01235-33.45298-195.09778 55.79958-239.79097 39.07308-16.726484 83.63245-16.726484 128.19182-5.6201 94.73883 33.45298 139.43201 144.91832 94.73883 234.17087-11.10637 27.83288-33.45297 44.55935-55.79956 66.90596-22.34659 16.72649-50.17947 27.83289-78.01235 33.45298-44.55937 5.62012-89.25256-5.62009-128.19182-27.83286-94.73884-66.90598-117.08544-211.82429-22.3466-289.97045 16.7265-11.1064 27.83288-33.452984 50.17948-39.073085 33.45298-11.106392 66.90596-22.346593 105.97904-16.726492 27.83288 5.6201 55.79957 16.726492 78.01235 27.832879 16.72649 16.726488 39.07309 22.346598 50.17946 44.559368 11.10641 16.72649 27.8329 33.45298 33.45298 55.79957 22.34661 66.90596 16.72649 139.43203-27.83286 195.09781-16.72649 22.34657-33.45298 44.55934-61.28587 55.79954-22.34659 5.62012-39.07308 22.34661-61.28586 22.34661-39.07308 0-83.63245 5.62008-122.70553-11.10641-117.08543-44.55934-167.26491-195.09777-105.97905-306.69691 16.7265-33.45298 44.55937-61.285864 78.01236-83.632457 44.55936-22.34659 89.25255-33.452979 139.43202-27.832879 61.28586 5.6201 111.46532 39.07308 156.1585 83.632456 22.34661 22.34659 27.8329 50.17947 39.0731 78.01234 11.10637 16.7265 5.62008 39.07309 11.10637 61.28586 11.10645 172.88502-195.09777 301.07685-351.25629 211.82429-27.83287-16.72649-50.17946-27.8329-66.90596-50.17947-61.28586-72.52608-78.01235-167.26492-50.17947-256.51747 16.72649-33.45298 39.07309-61.28586 61.28587-89.252546 39.07308-39.073083 94.73884-55.799574 144.9183-72.526064" fill="#221b35" opacity=".9"/><path d="m231.45148 15.388371c-120.56454 21.008472-220.12061 131.001869-209.68329 256.785079 5.21867 41.88313 15.78981 78.68141 41.88314 115.34586 15.7898 15.65602 31.4458 31.44582 47.23561 47.1018 31.4458 21.0085 68.11026 41.88314 104.77473 47.23563 36.66447 5.21866 73.32893 5.21866 104.77473-5.21866 36.66447-15.65601 68.11026-31.44582 94.33742-57.67295 31.44579-36.66448 52.45425-78.68141 62.89161-131.00187v-57.67294c-5.2187-26.22714-10.43736-47.23561-21.00851-73.32894-10.43731-21.00847-26.22712-41.88313-47.10179-57.672935-26.22713-26.227136-57.67292-41.88313-94.33739-52.454272-26.22714-5.218666-52.45427-10.43733-83.90008-5.218666-73.32893 10.437332-131.00187 57.672938-162.44767 120.564543-10.43733 26.22713-15.78981 57.67294-21.00847 83.90008 0 31.44579 5.21866 62.8916 15.78981 89.11874 21.00847 41.88313 52.45427 83.90006 99.55607 104.77473 15.7898 5.21866 31.4458 10.43732 52.45427 15.65601 115.34588 21.00847 220.12062-52.45428 235.91043-167.66635 10.43732-73.32894-21.00847-131.00188-68.11026-178.23748-94.33742-83.900079-251.56643-41.883137-293.44956 73.32893-5.21867 26.22713-15.78981 52.45427-15.78981 78.68141 5.21866 73.32893 52.45427 141.573 125.78321 162.44767 57.67293 15.78981 115.34587 5.21866 162.44767-31.44578 10.43733-10.43736 21.00849-21.00849 31.4458-31.44582 57.67295-78.68141 41.88314-183.45615-41.88313-241.12909-26.22714-15.7898-52.45428-21.008465-83.90008-26.227131-21.00847-5.218666-41.88313 5.218666-62.8916 10.437331-26.22714 15.7898-47.23561 21.00847-68.11027 47.1018-26.22713 31.4458-31.4458 62.8916-36.66447 99.55606 0 52.45428 26.22714 110.12722 78.68142 136.22052 73.32893 41.88314 173.01881 10.43736 209.68327-68.11025 21.00847-52.45427 10.43736-120.56454-36.66446-162.44767-31.4458-26.22714-62.8916-36.66447-104.77473-36.66447-62.89161 5.21867-104.77474 52.45428-115.34588 115.34588-10.43733 68.11027 31.4458 131.00187 99.55607 141.57302 94.3374 15.65599 173.01881-83.90008 131.00187-167.66635-10.43733-15.7898-26.22714-36.66446-47.1018-47.2356-26.22713-10.43733-52.45427-15.656-78.68141-10.43733-31.4458 5.21866-52.45427 26.22713-68.11027 47.23561-15.7898 26.22713-15.7898 52.45427-10.43732 78.6814 10.43732 31.44581 36.66446 57.67295 68.11026 68.11027 41.88314 15.78981 83.90008-5.21866 104.77474-36.66446 31.4458-52.45428 5.21866-110.12721-47.1018-131.00187-47.23561-15.78981-115.34588 26.22713-99.55607 83.90007 5.21867 15.65599 10.43733 36.66447 26.22714 47.23561 21.00847 15.78981 47.10179 15.78981 68.11027 10.43733 21.00847-10.43733 36.66446-31.4458 36.66446-57.67294-5.21866-15.7898-5.21866-36.66447-21.00847-47.23561-13.11356-7.8949-27.5318-10.50423-40.62864-7.86145-13.09684 2.64279-24.87229 10.53769-32.70029 23.65126-5.21867 15.656-10.43733 31.4458 8.9654 42.15076 39.20689-46.70036 33.05154-.26763 27.96669-16.05744v5.21867c15.78981-5.21867 21.00847-21.00847 26.22714-31.4458 5.21866 5.21866 15.65599 10.43733 15.65599 21.00847 10.43733 36.66447-26.22714 68.11027-62.8916 57.67294-31.4458-10.43733-41.88313-47.23561-36.66447-78.68141 5.21867-21.00848 21.00847-36.66447 47.1018-41.88314 31.4458-5.21866 62.8916 10.43734 78.68141 36.66447 15.65599 26.22714 15.65599 47.23561 0 73.32893-31.4458 52.45428-99.55607 52.45428-141.57302 10.43734-31.4458-41.88313-21.00847-110.12722 26.22714-136.22054 15.78981-10.43733 36.66447-15.656 57.67294-15.656 10.43733 0 26.22714 5.21867 36.66447 10.43733 26.22713 10.43733 36.66446 36.66447 52.45427 57.67294 5.21866 15.78981 5.21866 26.22714 5.21866 41.88314-5.21866 68.11026-68.11026 115.34586-136.22053 99.55606-78.68141-21.00847-115.34588-115.34587-68.11027-183.45614 10.43733-15.656 21.00847-26.22714 36.66447-36.66447 73.32893-41.88313 157.22901-5.21866 188.67481 62.8916 36.66448 89.11874-36.66447 193.89349-131.00188 188.67483-26.22713-5.21866-52.45427-5.21866-73.32893-21.00848-21.00847-10.43734-26.22713-26.22714-36.66447-36.66447-62.8916-73.32893-31.4458-183.45615 52.45428-225.33928 36.66446-15.789805 78.68141-15.789805 120.56454-5.21866 89.11872 31.4458 131.00186 136.22053 89.11872 220.12061-10.43731 26.22714-31.44578 41.88313-52.45425 62.89162-21.00847 15.78977-47.23561 26.22712-73.32894 31.44578-41.88313 5.21866-83.90007-5.21866-120.56454-26.22712-89.11874-62.89162-110.12721-199.11215-21.00847-272.5749 15.656-10.43733 26.22714-31.445801 47.1018-36.664467 31.4458-10.437328 62.8916-21.00847 99.55607-15.655994 26.22713 5.218666 52.45427 15.655994 73.32893 26.227136 15.65599 15.789805 36.66446 21.008475 47.10181 41.883135 10.43732 15.7898 26.22713 31.4458 31.44578 52.45427 21.00847 62.8916 15.78981 131.00187-26.22712 183.45615-15.78981 21.00846-31.44582 41.88313-57.67295 52.45428-21.00847 5.21866-36.66446 21.00847-57.67294 21.00847-36.66446 0-78.68141 5.21866-115.34587-10.43735-110.12721-41.8831-157.22901-183.45614-99.55607-288.23087 15.7898-31.4458 41.88313-57.672937 73.32893-78.681407 41.88313-21.008474 83.90008-31.445802 131.00187-26.22714 57.67294 5.218666 104.77473 36.664468 146.79166 78.681417 21.00851 21.00847 26.22717 47.10179 36.66448 73.32893 10.43732 15.78981 5.21866 36.66446 10.43732 57.67293 10.43735 162.44767-183.45613 283.01222-330.24781 199.11215-26.22713-15.65601-47.23561-26.22713-62.8916-47.23563-57.67294-68.11025-73.32893-157.22899-47.23561-241.12907 15.78981-31.4458 36.66447-57.67293 57.67294-83.900069 36.66447-36.664468 89.11874-52.454275 136.22054-68.11027" opacity=".9"/></g></g><g stroke-linecap="round" stroke-linejoin="round" transform="matrix(-1 0 0 1 426.91994 -74.267578)"><path d="m277.70312 173.16406c-18.94002-.18634-39.72853 6.39177-55.03515 19.60547l-35.00977 46.21875c-2.54293 1.55767-4.87471 2.6953-7.10937 3.65234-.25382 1.20889-.39831 2.44384-.39844 3.69336.74639 5.68005 3.1993 11.13095 6.80859 14.09961 8.32991 6.61386 20.47514 9.28681 30.09375 6.83594 6.03833-1.53859 10.91475-4.32007 15.25391-7.56641 7.94202.0882 16.06272-2.41102 21.46289-6.88281 8.61311-7.13235 13.14842-16.14428 17.70508-27.65429 2.8718-11.29274 4.47576-15.03362 17.07227-28.24414 6.37306-6.68772 6.25846-15.95514 1.88671-22.5-4.09158-.76819-8.35074-1.21473-12.73047-1.25782z"/><path d="m198.15082 246.33484 35.1414-46.197c11.1906-9.4293 26.559-15.9075 42.22798-15.6375-13.73758 14.4072-18.14218 23.0013-21.12748 35.1414-7.2 17.7975-15.966 26.721-27.3294 20.9664-9.6408 9.2898-19.2708 13.383-28.9125 5.7276z" fill="#775fa0" stroke-width="36"/></g><g opacity=".9" stroke-width=".872423" transform="matrix(-1.0935857 0 0 1.2014166 513.21218 -11.48199)"><path d="m307.55766 57.305602c-22.21354 14.87296-50.67106 17.94529-67.4154 40.29683-48.50494 49.922298-81.03039 112.167018-122.61136 167.457618-32.389614 44.7004-72.036677 87.69845-93.618128 138.42423-.108968 15.10368-18.4794151 38.66079-16.7885271 53.56054 25.6765761 4.48212 84.8385211-1.59569 111.4564451-.24033 27.19975-1.40834 55.20584 2.82049 81.90803-2.18025 18.60701-8.58917 27.75718-28.60063 43.51048-40.88245 50.60183-52.24748 93.34667-111.8442 127.04678-176.28071 19.23101-35.1718 40.59862-69.84704 55.70696-106.83176-8.63134-12.50694-36.53555-27.91046-42.04605-4.37184-19.49622 31.84359-43.32807 60.71565-65.59165 90.61357 15.47329-38.82473 31.30901-77.90434 55.42382-112.34823-11.14811-20.750578-41.59027-30.048578-59.49109-46.972338-2.54132-1.31443-4.20954-.4483-7.49031-.24488zm-37.37016 50.549868c-18.65545 34.46929-44.4994 64.69646-73.66663 90.69464 22.0241-31.97299 46.58733-63.71248 73.66663-90.69464zm23.90039 71.54492c-10.16248 19.93225-21.19005 40.16133-39.42969 53.85742 11.79701-14.83509 17.52577-33.15866 32.30505-46.11705.3433.17905 10.20629-12.92842 7.12464-7.74037zm-48.63672 20.60351c-15.4351 9.23022-25.15062 46.7428 2.88603 38.30735 12.3515-10.29217-12.65041 13.26725-4.38448 21.99719 2.3195 13.54768 21.60726 8.61043 23.45616 6.96721-17.59697 41.85109-43.15913 80.25354-75.88302 111.79878-9.70685 9.56449-16.72396 22.07273-24.42234 32.5701-4.52539-24.29152 25.32148-36.14431 24.83146-58.38708-10.70764-11.72709-36.69438 30.0086-24.00932 4.49216 9.39247-23.70133 22.45465-45.54591 36.45706-66.73207 9.80714-19.74368-12.81213-14.90463-18.77919-2.55756-14.20851 16.44455-30.13686 31.24097-42.69407 48.93402-7.84698 5.53815 6.91525-18.46917 9.28955-24.33009 22.9396-44.42366 56.07176-82.77594 94.38302-114.6518zm82.68164 51.98633c-21.21363 40.97226-43.69049 82.09438-75.98371 115.52538-5.15996 10.31768-28.90409 26.90627-12.79535 6.72102 18.65374-31.603 35.46898-64.58923 60.1001-92.18307 7.88481-9.3039 24.11618-27.84547 28.67896-30.06333zm-223.44335 133.10547c-4.48443 16.90402-19.323161 43.70749-26.581833 48.58039 6.39353-16.30123 18.107751-40.06597 26.581833-48.58039z" filter="url(#a)" opacity="1"/><path d="m306.5779 58.346032c-20.82603 13.71004-44.65509 18.95727-60.71453 39.13026-36.28621 36.603778-64.04608 80.268568-92.0506 123.191398-30.6114 43.56065-62.932711 86.26405-86.365392 134.32838-9.409457 18.27947-31.69552 31.32077-39.843117 50.00103l-17.272235 49.8852c50.085228.0455 131.285114-2.11353 181.501964-2.08543 20.15993-2.56747 28.99295-24.96418 44.19209-36.54341 47.66007-49.00579 89.87706-103.63748 122.11238-164.05649 22.43153-39.83653 45.34543-79.47532 64.79514-120.88838-9.99481-8.0639-29.8879-24.932-34.59641-3.04374-21.15638 33.93934-46.71901 64.87529-70.42833 96.90651-3.07096 12.51321-14.80458 12.74814-6.7774-.75056 12.6898-25.51035 20.42779-53.27307 34.27753-78.31575 7.67395-15.09155 16.24223-29.73181 25.77851-43.72419-21.24571-16.931138-42.10217-28.443538-63.34788-45.374678zm-24.47634 34.47819c-20.83839 46.092988-54.50899 84.921098-92.79896 117.434328-6.84218 5.89147-21.33743 25.91963-9.7823 6.41288 28.47034-43.31731 59.8081-85.3901 97.42254-121.112688.49411.3876 7.2611-5.90225 5.15872-2.73452zm29.65625 60.386718c-11.49625 22.43404-21.97347 45.83089-36.85511 66.21499-9.7119 12.66744-34.1561 23.79945-26.15331 42.4858 17.76904 15.58694 23.3612-17.0084 34.51038-25.2379-12.81951 38.78838-31.56051 76.04506-56.13076 108.72472-17.62055 23.54685-42.60098 41.53553-55.45962 68.43239-16.77853 10.87416-6.17987-28.00453 2.51611-34.09945 7.67036-8.06933 25.96671-36.04209 4.45888-19.97118-8.12198 6.80148-28.49055 25.49444-29.56436 23.3254 15.87589-21.69529 22.23123-48.76201 37.39402-71.03627 4.58332-9.5109 20.367-26.40333 15.25465-32.09335-17.16615 11.6566-28.35543 30.86855-44.3209 44.43545-4.14138 8.20732-26.62156 36.8088-20.99807 11.82208 21.00489-46.77398 50.48002-89.9046 88.92906-124.08213 9.57885-8.22622 27.48781-25.91828 32.62847-27.01604-4.89723 15.74862-18.49477 26.10381-25.13131 40.61502 4.96747 26.09074 28.19125-1.57617 30.36927-15.71309 15.58998-20.36289 32.95416-39.43316 49.59167-58.98027zm30.36329 80.96093c-24.94245 46.29527-47.56477 95.23279-84.85866 133.19471-5.53501 7.6331-25.88904 33.39476-29.38744 16.6842 18.12457-24.79467 29.68469-53.75398 48.25872-78.36196 19.52869-27.36018 42.23067-52.49624 67.64558-74.50913zm-206.99805 46.13282c-13.2525 35.43518-32.63884 68.59678-57.009767 97.5332 16.612786-34.44506 35.969457-67.55214 57.578127-99.09766zm-22.03125 87.0664c-4.86537 27.43822-17.190815 54.1526-35.885935 74.90045-13.29858 6.92624 2.860447-20.93597 4.410043-27.21642 8.177629-17.02681 19.449812-34.42625 31.475892-47.68403z" fill="#3b2f4f" filter="url(#b)" opacity="1"/><path d="m191.38431 448.79721 10.06523-2.2821c28.43579-30.63975 38.33477-38.68667 56.17646-59.23318 20.52615-23.63793 40.58874-47.80691 58.40966-73.54578 17.48773-25.25763 32.25661-52.31038 47.38307-79.04909 19.18842-33.91895 38.32587-67.88954 54.98709-103.17284l-20.58798-11.07791c-14.83965 25.34516-46.16856 68.65457-72.46882 100.49857-5.48332 6.63913-10.11518 22.83462-17.72018 18.79622-9.725-5.16417 3.57459-21.84456 7.22075-32.23445 12.81141-36.50664 30.59383-74.02342 50.97039-104.27764l-57.98036-46.212828c-5.91413 6.5193-27.14386 13.52718-38.37946 23.45438-41.98855 37.098938-76.86792 85.948078-104.65131 131.538708-5.21728 7.3107-10.32982 14.67309-15.43759 22.04942-18.11971 26.16734-35.67029 52.69245-53.95228 78.78219-19.315837 27.56512-46.328698 52.83972-58.885512 82.14453-1.65514 3.27386-5.871901 7.63025-8.163063 11.77708-8.829973 15.98159-21.2716261 50.052-21.2716261 50.052zm-125.421196 3.99966c-7.469003-3.71249 3.117576-23.06476 3.117576-23.06476 5.744277-17.85068 24.810516-47.55008 47.92338-73.76819 3.17601 16.52306-13.96925 57.18306-31.932569 82.37247 0 0-11.838444 18.07402-19.108387 14.46048zm99.090466-30.9501c-6.47929-1.34206-6.68023-12.36643-5.93805-18.94149 1.8424-16.3221 24.85149-42.55175 24.85149-42.55175s-15.99688 14.67411-24.85149 20.89878c-4.36481 3.0684-9.82967 11.55806-13.84062 8.0397-5.3434-4.68717 5.16336-13.25828 8.21691-19.6768 13.53375-28.44769 15.4143-39.48716 44.68873-83.27555-11.94781 14.16271-24.33972 27.41579-37.37579 40.28388-8.46837 8.35924-16.14518 29.83322-26.48152 23.93828-9.59544-5.4724 1.7318-22.56209 6.60999-32.47284 29.18206-59.28755 61.54911-95.41643 129.81821-149.82219 0 0-11.02391 22.31533-16.53587 33.47299-5.00747 10.13646-24.51605 24.26986-15.02242 30.40938 10.33134 6.68127 15.5319-19.08752 23.47385-28.4844 21.19973-25.08344 47.58001-56.69104 64.52895-74.45458-15.59389 35.25643-27.5783 57.42283-43.34318 85.06834-9.227 16.18059-44.61837 35.72917-29.93253 47.1867 8.99808 7.02008 15.89711-17.28884 23.58167-24.8219 4.16827-4.0861 8.26513-7.90846 12.25862-11.39268-2.59579 22.9077-25.67611 71.28803-45.58081 103.19106-16.22295 26.00196-39.32615 47.01817-59.2099 70.34031-6.59025 7.72987-9.96951 25.12503-19.91624 23.06476zm4.46535-190.88678c-2.13386-1.37912.80141-5.0668 1.78039-7.41135 3.33026-7.97559 8.86554-14.66509 13.6705-22.03233 24.37546-37.37388 54.87514-75.01633 87.52229-107.956928 5.56153-2.95496 19.93199-14.4189 17.37487-8.37114-10.61321 25.100888-24.78351 48.640818-41.31008 70.172648-17.19963 22.40874-38.31147 41.65314-59.43109 60.41323-6.18046 5.48997-12.66404 19.67306-19.60688 15.18587zm55.56014 161.04655c-7.96789-6.33269 7.09949-19.12621 11.71958-28.19511 12.06323-23.67923 27.0803-48.62596 41.56334-68.03335 23.25113-30.99582 50.99021-59.57583 80.21068-81.73358-18.86811 29.52654-35.5938 68.64469-56.51365 101.08983-10.34355 16.04208-20.40489 32.67716-33.99598 46.07938-12.54977 12.37538-29.18593 41.75918-42.98397 30.79283zm-160.996651 6.77547c21.142108-48.49702 50.410601-98.79532 82.783321-142.64431-12.77499 50.20131-45.12625 105.9639-82.783321 142.64431z" fill="#775fa0" filter="url(#c)" opacity="1"/></g><g stroke-linecap="round" stroke-linejoin="round" transform="matrix(-1 0 0 1 426.91994 -74.267578)"><path d="m324.08008 73.5c-15.08718.310959-27.86611 2.971069-38.33594 9.980469-29.88559 16.270895-51.6662 20.758611-89.98047 49.283201l-51.99414 69.20117c-9.36786 14.43034-11.42288 31.21317-1.71094 46.54297 4.85598 7.6649 14.52476 14.01498 24.82422 14.74805 13.11179-1.2794 27.58637-3.59427 35.12305-13.39844l33.52539-44.25781c16.78-13.65357 44.70018-17.23606 59.42187-11.28711 7.51366 3.03623 11.08937 6.73904 12.66797 12.68945 1.57862 5.95042.98313 16.65865-8.61132 33.84961-11.82016 24.85953-16.51297 45.37147-11.55469 63.97071 4.95826 18.59922 20.72777 31.15989 37.78906 36.89648 9.65566 3.24457 20.0777-2.16171 22.98633-11.92383l12.02344-40.36914c9.22672-20.28201 21.96102-32.16687 34.88476-45.71289 9.42388-9.87764 19.35193-22.17688 23.83203-37.8457l77.82227 5.51367a250.00001 250.00001 0 0 0 -69.87305-137.113282z"/><path d="m324.20117 91.496094c-13.43608.280799-23.09304 2.921567-29.49023 7.601562l-87.44336 46.931644-48.69531 66.16406c-10.23569 15.80038-2.94863 46.4176 29.08593 26.79492l35.00977-46.21875c44.52805-38.4396 135.43596-20.7271 92.32812 56.33399-21.17593 44.62352-11.21055 66.41081 15.98438 75.55468l12.43164-41.74218c21.55408-48.44246 61.64987-57.16029 60.01367-96.21485l89.39844 6.4375a250.00001 250.00001 0 0 0 -49.31641-100.748045z" fill="#775fa0" stroke-width="36"/></g></svg>