<svg height="500" viewBox="0 0 500 500" width="500" xmlns="http://www.w3.org/2000/svg"><g transform="translate(.000015)"><circle cx="-249.99998" cy="250" fill="#e51a1a" r="250" transform="scale(-1 1)"/><path d="m181.33938 83.856939c97.52275-31.84694 203.27597 26.159281 217.12696 131.568651 10.04116 85.89723-45.79566 162.6049-131.11288 174.6444-76.26503 6.65-147.16573-45.4981-149.44603-126.3231.16679-50.89801 30.03241-87.97493 76.60677-108.40662 44.00125-16.48183 90.46555-3.00917 112.28155 39.63622 17.95322 40.0953 3.57775 87.31302-40.4313 103.80676-21.98685 8.23292-51.6578-5.55285-56.72562-31.5612 24.48155 21.7253 69.7211 11.74379 80.1808-21.06198 5.24648-24.88185-11.48198-41.52298-24.36368-55.64156-23.21161-15.22125-63.26956-13.16738-85.32502 12.05139-41.51846 46.43224-18.48961 112.52397 35.72777 131.08081 60.66482 17.11352 118.96473-29.63961 126.96137-92.39988 2.7637-54.83226-40.99398-106.19486-96.51046-114.27807-76.21988-10.3001-138.45939 50.84936-147.743191 124.09106-9.31956 73.21828 47.315731 138.67973 111.863041 158.33924 49.05305 9.49897 98.18701 2.07129 139.64056-27.40671 82.90715-58.95602 100.11901-177.97214 43.55644-260.39974-52.71171-79.885311-158.575-103.987181-249.15842-67.061741-86.705021 39.45169-149.0660905 134.549061-117.102931 229.167621 15.77888-74.65377 50.93986-153.5943 123.407351-187.514491 9.28724-4.60517 19.44718-8.7232 30.56692-12.33106zm-160.722321 286.075591c-52.57825-113.8254-.38403-260.89182 113.777041-317.643861 10.84604-5.32012 22.21219-9.7712 34.03518-13.36069 115.76394-28.75816 246.03978 34.00351 263.68455 158.897471 10.04526 85.91695-27.72044 168.80365-107.97396 206.83173-102.24035 46.26108-224.798841-11.43986-234.690511-131.24969-7.33455-123.78718 127.307171-194.136761 222.718561-137.24102-42.54074-27.89653-94.21826-33.44528-140.80825-12.98978-71.17376 32.62266-105.080851 118.0397-80.762351 190.63139 30.697281 88.13423 123.572931 132.04164 212.817841 105.59803 82.80488-25.06359 132.16266-100.33164 140.19255-180.04986 12.12434-145.020371-132.23823-245.3588802-265.59709-221.973611 7.92036-4.10499 20.5989-8.4277792 35.61563-11.7452592 60.06317-13.23825 124.63426-3.45807 179.45368 32.4903392 109.65077 71.904621 141.09454 217.803071 65.16008 333.599141-143.00482 218.07486-377.311781 117.06797-437.622951-1.79433" fill="#b21a1a"/></g><path d="m250 0c-17.11308 0-33.82026 1.7302769-49.9668 5.0058594 6.55025 39.4122976 7.64094 86.8768006 2.77539 111.5214806-.50851 2.5757-1.10489 4.67705-1.68945 6.64258-2.00734-2.48665-4.37656-5.75783-6.97852-9.97265l-34.51171-55.908208 1.19921 65.691408c.72516 39.70254 14.62983 64.06232 23.00196 88.20508 8.37212 24.14273 13.73794 50.28093 1.93554 104.63086-4.52604 20.84209-12.48791 28.41373-20.16601 31.5039-7.6781 3.09019-18.30184 2.02403-29.80859-4.61914-10.08295-7.89115-26.95724-28.40908-25.95508-41.4414 17.16897 4.76063 36.99053 8.98827 55.76367 13.2832-9.33528-13.34244-15.36103-24.97415-28.00586-40.02735-12.64483-15.05319-35.07666-24.68176-52.599609-23.99609l38.275389-30.49414-65.820311 9.55078c-18.018786 2.61454-33.131966 12.38627-43.414063 25.23242-5.9373753 7.418-10.3152717 15.83393-13.63476538 24.72071.58253747 30.92656 6.96655478 61.71721 20.21679738 90.40234 2.477168 4.88205 5.748902 10.52098 8.794921 15.32031 39.685293 62.52852 125.588011 115.48825 218.027341 114.56446.8532.0656 1.70672.12678 2.56055.18359 2.93641-.15787 5.86981-.36754 8.79883-.62891 2.52516-.14858 5.04927-.30989 7.58008-.54297 93.20166-6.119 172.00043-62.8321 209.77734-142.27539 17.20777-24.9724 21.83994-49.58675 23.18945-75.65234-1.62547-3.02741-3.48744-5.92572-5.61328-8.6543-9.45083-12.13038-24.73683-20.23437-41.49023-20.16601-16.75343.0683-44.82823 13.71451-58.68946 27.5957-15.11225 1.18076-31.64376.33682-45.63671 5.39258 1.50517-2.66848 3.01082-5.34028 4.40429-8.08203 7.18502-14.13704 13.13001-31.13062 7.6211-49.19531l-11.44727-37.54297c-9.50233 13.15764-16.64879 29.3244-27.06445 41.32226-3.40368-10.53294-7.7893-32.2588-9.79883-57.48437-4.49564-56.43385-3.05921-129.822902-4.35156-170.0117212-15.39453-2.7687409-30.95255-4.09968998-46.47266-3.8085938-3.59988-.1664194-7.20293-.25498195-10.80664-.265625zm115.89648 335.55664c10.4442 1.94672 32.64756-.19337 39.55079 9.15625 7.35807 15.22002-19.34768 41.76706-31.75196 45.88086-21.23597.49624-10.96613-45.66817-7.79883-55.03711z" fill="#861313"/><path d="m250 0c-10.91816 0-21.64846.77738709-32.19727 2.1347656 13.83137 83.0709014 5.83356 193.1075844-38.97851 120.5175744 1.30397 71.39276 49.21639 83.30756 24.53125 196.98243-10.74044 49.45875-46.49985 56.01135-76.56445 38.65429-38.634301-22.30693-53.39672-92.15172-2.23243-71.36133-36.812934-38.65847-73.14044-12.07568-75.707028 26.41797-11.642848-23.90619-7.44756-51.11565 11.181641-65.95703-46.382874 6.73017-59.41453834 72.06474-41.349609 117.95899.531585 1.22525.998868 2.46958 1.554687 3.6875.262994.59589.567789 1.15998.841797 1.74804 2.420161 4.68644 5.454609 9.93506 8.332031 14.46875 39.685293 62.52852 125.588011 115.48825 218.027341 114.56446.8532.0656 1.70672.12678 2.56055.18359 2.93641-.15787 5.86981-.36754 8.79883-.62891 2.52516-.14858 5.04927-.30989 7.58008-.54297 93.20166-6.119 172.00043-62.8321 209.77734-142.27539 34.72047-54.76946-4.52714-117.46587-63.55664-69.25 32.47717-13.88169 45.55738 19.3053 41.62891 65.41407-2.40685-11.95024-8.11467-22.73988-15.98243-30.10742-12.96973-12.14243-31.46758-16.08368-49.80468-2.97266 64.92188 6.22968 31.7628 75.95086-9.63282 88.21484-44.75514 13.26121-47.36222-73.41272-12.29492-108.6582-37.68034 2.07528-73.89171 63.94758-44.66015 111.31641-64.70424-80.46393 34.87689-131.54137 20.87109-177.46875-60.7499 96.0408-50.7194-153.924602-53.56641-231.4882856-9.43761-.94754513-18.90061-1.46437197-28.35156-1.2871094-3.59988-.1664194-7.20293-.25498195-10.80664-.265625z" fill="#ff8066" stroke-width="36"/></svg>