<svg height="500" viewBox="0 0 500 500" width="500" xmlns="http://www.w3.org/2000/svg"><g transform="translate(.000015)"><circle cx="-249.99998" cy="250" fill="#e51a1a" r="250" transform="scale(-1 1)"/><path d="m181.33938 83.856939c97.52275-31.84694 203.27597 26.159281 217.12696 131.568651 10.04116 85.89723-45.79566 162.6049-131.11288 174.6444-76.26503 6.65-147.16573-45.4981-149.44603-126.3231.16679-50.89801 30.03241-87.97493 76.60677-108.40662 44.00125-16.48183 90.46555-3.00917 112.28155 39.63622 17.95322 40.0953 3.57775 87.31302-40.4313 103.80676-21.98685 8.23292-51.6578-5.55285-56.72562-31.5612 24.48155 21.7253 69.7211 11.74379 80.1808-21.06198 5.24648-24.88185-11.48198-41.52298-24.36368-55.64156-23.21161-15.22125-63.26956-13.16738-85.32502 12.05139-41.51846 46.43224-18.48961 112.52397 35.72777 131.08081 60.66482 17.11352 118.96473-29.63961 126.96137-92.39988 2.7637-54.83226-40.99398-106.19486-96.51046-114.27807-76.21988-10.3001-138.45939 50.84936-147.743191 124.09106-9.31956 73.21828 47.315731 138.67973 111.863041 158.33924 49.05305 9.49897 98.18701 2.07129 139.64056-27.40671 82.90715-58.95602 100.11901-177.97214 43.55644-260.39974-52.71171-79.885311-158.575-103.987181-249.15842-67.061741-86.705021 39.45169-149.0660905 134.549061-117.102931 229.167621 15.77888-74.65377 50.93986-153.5943 123.407351-187.514491 9.28724-4.60517 19.44718-8.7232 30.56692-12.33106zm-160.722321 286.075591c-52.57825-113.8254-.38403-260.89182 113.777041-317.643861 10.84604-5.32012 22.21219-9.7712 34.03518-13.36069 115.76394-28.75816 246.03978 34.00351 263.68455 158.897471 10.04526 85.91695-27.72044 168.80365-107.97396 206.83173-102.24035 46.26108-224.798841-11.43986-234.690511-131.24969-7.33455-123.78718 127.307171-194.136761 222.718561-137.24102-42.54074-27.89653-94.21826-33.44528-140.80825-12.98978-71.17376 32.62266-105.080851 118.0397-80.762351 190.63139 30.697281 88.13423 123.572931 132.04164 212.817841 105.59803 82.80488-25.06359 132.16266-100.33164 140.19255-180.04986 12.12434-145.020371-132.23823-245.3588802-265.59709-221.973611 7.92036-4.10499 20.5989-8.4277792 35.61563-11.7452592 60.06317-13.23825 124.63426-3.45807 179.45368 32.4903392 109.65077 71.904621 141.09454 217.803071 65.16008 333.599141-143.00482 218.07486-377.311781 117.06797-437.622951-1.79433" fill="#b21a1a"/></g><path d="m46.900391 163.51953c-12.299593-.18983-23.34983 8.50006-28.904297 19.0293-5.554764 10.5298-7.928583 23.48394-7.958985 40.28906a18.0018 18.0018 0 0 0 0 .002c-.078959 44.62302-3.9123767 63.77288 18.041016 117.33789 7.524616 18.36061 13.376812 36.33533 24.970703 53.86524 10.446714 15.79538 25.778886 30.2445 48.593752 42.37695 2.48418 10.44596.86548 11.7617-2.591799 27.08985-2.417211 10.7205 4.082409 23.47199 11.714849 28.66992 7.63243 5.19792 15.4994 6.78325 23.77929 7.49414 16.55978 1.42177 35.45862-1.76655 52.92383-10.42188a18.0018 18.0018 0 0 0 .61719-.32031c21.38538-11.64628 30.77913-33.73776 33.70312-54.14062 2.92399-20.40287.57179-40.88383-2.30469-57.25586-3.65847-20.82203-12.35642-35.87557-22.21875-46.19922-9.1369-9.5643-17.96232-15.28359-24.86718-21.09571-5.95169-9.32925-11.44024-25.21705-18.32032-42.25195-7.2522-17.95628-16.69077-38.06076-36.46679-50.7832-6.19595-3.98567-12.34553-5.7684-21.529299-3.58008-4.774523 1.13768-9.437649 4.24638-13.255859 8.375-.247785-6.18552-.5563-12.40137-1.078125-18.52539-.855392-10.03593-4.058023-19.07094-9.658203-26.38477-5.60018-7.31382-14.336509-13.40317-25.189453-13.57031zm406.199219 0c12.29959-.18983 23.34983 8.50006 28.9043 19.0293 5.55476 10.5298 7.92858 23.48394 7.95898 40.28906a18.0018 18.0018 0 0 1 0 .002c.079 44.62302 3.91238 63.77288-18.04102 117.33789-7.52461 18.36061-13.37681 36.33533-24.9707 53.86524-10.44671 15.79538-25.77888 30.2445-48.59375 42.37695-2.48418 10.44596-.86548 11.7617 2.5918 27.08985 2.41721 10.7205-4.08241 23.47199-11.71485 28.66992-7.63243 5.19792-15.4994 6.78325-23.77929 7.49414-16.55978 1.42177-35.45862-1.76655-52.92383-10.42188a18.0018 18.0018 0 0 1 -.61719-.32031c-21.38538-11.64628-30.77913-33.73776-33.70312-54.14062-2.92399-20.40287-.57179-40.88383 2.30469-57.25586 3.65847-20.82203 12.35642-35.87557 22.21875-46.19922 9.1369-9.5643 17.96232-15.28359 24.86718-21.09571 5.95169-9.32925 11.44024-25.21705 18.32032-42.25195 7.2522-17.95628 16.69077-38.06076 36.46679-50.7832 6.19595-3.98567 12.34553-5.7684 21.5293-3.58008 4.77452 1.13768 9.43765 4.24638 13.25586 8.375.24778-6.18552.5563-12.40137 1.07812-18.52539.85539-10.03593 4.05803-19.07094 9.65821-26.38477 5.60018-7.31382 14.3365-13.40317 25.18945-13.57031z" fill="#861313" stroke-linecap="round" stroke-linejoin="round" transform="matrix(-1 0 0 1 500 0)"/><path d="m46.622365 181.51817c-9.157862-.14205-18.530702 11.50217-18.584705 41.35306-.08101 45.7816-4.523889 58.70429 16.696635 110.48115 15.560477 37.96868 22.538439 67.15181 72.332355 90.73369 5.89893 20.76052 3.54456 25.64217-.45696 43.38328-3.7346 16.56321 34.7112 19.6075 62.86709 5.65413 30.21222-16.45329 27.67714-61.75377 22.27984-92.47357-6.27694-35.72484-26.02585-43.14998-43.14415-58.40982-17.77463-25.37777-21.91114-71.35119-50.73899-89.89692-6.02042-3.87276-36.733216-7.80463 5.46481 97.40708-55.635718-13.75739-45.501638-77.53102-49.524949-124.74767-1.198477-14.06119-9.111126-23.36102-17.190976-23.48545zm406.755285 0c-8.07986.12443-15.99251 9.42322-17.19098 23.48545-4.02333 47.21561 6.11078 110.98924-49.52495 124.74663 42.19906-105.21274 11.48524-101.27984 5.46481-97.40708-28.82785 18.54573-32.96332 64.51915-50.739 89.89796-17.11725 15.2588-36.86823 22.68394-43.14415 58.40878-5.3973 30.7198-7.93237 76.02028 22.27984 92.47357 28.1559 13.95234 66.60168 10.90908 62.86605-5.65413-4.00046-17.74111-6.35484-22.62276-.45592-43.38328 49.79392-23.58188 56.77188-52.76501 72.33236-90.73369 21.22052-51.77686 16.77764-64.69955 16.69663-110.48011-.054-29.85193-9.42685-41.49615-18.58469-41.3541z" fill="#ff8066" stroke-linecap="round" stroke-linejoin="round" stroke-width="36"/><g stroke-width=".961881" transform="matrix(1.0404656 0 0 1.0387955 -9.704417 -18.269243)"><path d="m249.60404 17.586949c-71.55745 0-129.75963 58.202775-129.75963 129.760941 0 71.55817 58.20218 129.76095 129.75963 129.76095 71.55744 0 129.75963-58.20278 129.75963-129.76095 0-71.558166-58.20219-129.760941-129.75963-129.760941z" fill="#861313"/><path d="m241.28944 48.65671-11.75223 35.181187 52.04859-5.452954-5.17642-17.4249 14.59697 4.041555v19.331387l22.80077 1.48726-4.45974-17.348041 11.9848-6.941212c24.5036 20.490252 40.06477 51.297498 40.06477 85.816898 0 16.63735-3.6183 32.41129-10.10628 46.58618l-26.08168 4.41387v31.42011a111.93066 111.93179 0 0 1 -16.06924 12.2674l-11.19526-17.41591-21.81159 5.94904 6.12864 23.74226a112.14526 112.14639 0 0 1 -32.6575 4.8311c-30.95566 0-58.92784-12.51195-79.15038-32.76564l19.9231-2.74694 13.38521-26.2736-42.63304-21.31473 30.239-25.77851-26.27134-21.80982-26.84327 8.94652c3.10624-35.38281 22.61111-65.981443 50.89971-84.162947l5.68547 45.472228z" fill="#ff8066"/><path d="m280.09755 112.75562-36.10312 23.13338 31.54756 28.04134 22.78479-6.65973-2.1041 27.34063 41.71273-10.51562-15.77478-35.75214-25.23625.35036 22.43346-19.27849-39.25928-6.65973zm-37.50352 40.30874-19.27928 8.41151 13.66967 10.16527zm-45.27812 3.1482-13.38321 15.86078 37.07832 26.05999zm59.64949 8.76885-13.66968 25.58985 32.94897 22.43268-11.56857-16.47565 14.37139-17.17536z" fill="#861313"/></g></svg>