<svg height="500" viewBox="0 0 500.00009 500" width="500.00009" xmlns="http://www.w3.org/2000/svg" xmlns:xlink="http://www.w3.org/1999/xlink"><radialGradient id="a" cx="1249.9998" cy="1250.0005" gradientTransform="matrix(0 -1 1 0 -.0005 2499.9997)" gradientUnits="userSpaceOnUse" r="250"><stop offset="0" stop-color="#393"/><stop offset=".7379747" stop-color="#393" stop-opacity=".9"/><stop offset="1" stop-color="#393" stop-opacity=".1"/></radialGradient><g transform="translate(-1000 -1000)"><circle cx="1250" cy="1250" fill="#2ad52a" r="250"/><path d="m1258.9184 1271.0417c17.1144 30.6662 44.2259 53.4982 76.3129 67.0503 47.0888 19.252 101.3032 18.539 148.3503-.7179 3.5837-7.846 5.7089-15.6928 7.8759-23.5354-44.255 22.8273-95.5943 29.9536-144.8083 16.402-20.669-5.7007-39.2545-15.6936-56.3481-29.2453-11.4138-9.2678-21.4025-19.2524-29.245-31.383.7122 0 1.4251-.7126 1.4251-.7126 21.3984 24.9615 47.7889 42.0844 79.1674 50.6396 47.0888 12.1307 94.8859 6.4216 137.6825-16.402 1.4168-.7125 2.8336-.7125 4.2505-1.4293 4.2922-2.8504 7.8759-4.9882 12.1264-7.1343 1.4168-8.551 2.1668-16.4062 3.5837-24.9614-2.8753 1.4294-5.0006 3.5671-7.8342 5.7091-2.8753 1.4251-5.0006 2.8461-7.8759 4.9881-54.1729 34.9543-120.5139 44.2305-178.3122 16.4103-2.1251-1.4293-4.2921-2.8586-6.4173-3.5712-.7087-.7126-2.1252-1.421-2.8336-2.1336-1.4585-.7209-2.167-.7209-3.5797-1.4294-10.697-7.1342-19.2605-12.8391-27.8198-22.111 0 0 .717-1.4335 1.4252-1.4335 2.1461.7125 3.5712 3.5712 4.9964 5.0006 38.5211 29.9537 85.6097 37.8046 132.6569 27.8159 10.0011-2.1378 18.5438-4.2839 27.8364-7.8426 16.4187-7.1342 31.3787-13.5559 46.3387-24.2614 5.0005-4.2713 10.0012-7.1258 15.0017-10.6888 2.1253-2.1461 4.2505-4.2797 7.1258-6.4258-.7087-8.5594-.7087-16.3978-1.4168-24.9614-2.1669 2.1378-4.2922 4.9923-6.4174 7.1301-5.0006 4.2838-9.2928 7.8509-13.5849 12.1265-5.6674 4.9922-12.0847 8.5593-17.7937 13.5516-5.0005 3.5671-10.0012 5.7091-15.0017 8.5552-55.6313 33.5292-123.3892 37.0963-178.308-1.421 0 0 .7123-.7167.7123-1.4251 77.0421 44.9388 176.8869 9.2719 227.5177-58.4906-2.1252-7.8468-4.2504-16.4103-5.709-24.2488-28.5033 44.9347-72.0083 79.8848-126.9312 91.2946-32.1286 5.709-64.2156 3.5713-93.4523-10.6972 0-.7126.7122-1.4251.7122-1.4251 30.6494 10.7013 62.7781 11.4139 94.1567 2.8545 17.8355-4.9965 33.5039-12.8433 49.9224-22.8237 8.5844-5.7048 15.0017-11.4139 22.836-17.8313 12.1264-11.4098 22.0858-22.1153 32.087-36.3795 5.0005-7.8468 10.0011-14.981 14.2516-23.5446-3.5421-7.8385-5.709-15.6853-9.9594-22.8153-4.2922 11.4056-10.0012 22.1069-16.4186 32.8082-7.1259 11.4139-14.2517 21.3985-23.5444 31.3789-14.2516 14.9851-29.2533 27.8201-47.7971 37.8046-35.6291 19.2607-76.3004 26.395-114.8215 16.4062 0-.7084.717-2.1377.717-2.1377 33.5121 6.4174 66.3492 0 96.2694-14.981 30.6701-15.6895 54.9646-39.2299 73.4667-69.1836 10.0012-16.4062 17.127-32.0956 22.8359-49.2186-5.0005-7.1342-8.5426-14.26-14.2516-20.6817-3.5838 17.8314-9.2927 34.2334-17.8354 50.6354-.7088 1.4377-.7088 2.8587-1.4168 4.2839-15.7101 29.2453-35.6708 52.7773-64.2158 72.0422-6.4172 4.2797-13.5431 7.1301-19.9605 11.4139-6.4175 3.563-13.5433 4.9965-20.6691 7.1301-17.127 5.7048-34.9706 9.2761-53.5144 6.4174v-1.421c22.8443-.7125 45.6385-6.4174 66.3493-16.4103 2.1251-1.421 4.2504-2.1336 6.4173-3.5671 14.9602-8.5594 27.0865-18.5398 39.2129-30.6705 3.5837-4.2797 7.1258-7.8426 10.7095-12.1265 1.4169-2.1378 2.8337-4.2797 5.0006-6.4174 20.669-30.6747 33.5039-62.0494 37.796-96.9995-5.709-6.4258-11.418-12.8432-17.8354-17.8314-.7087 42.0761-12.8348 81.3101-38.5044 116.9686-27.1281 36.3753-65.6326 59.9241-109.1458 64.908 0-.7125 0-2.1377 0-2.1377 24.2611-4.9923 45.6385-14.2601 64.9324-29.9537 19.9607-16.4104 34.9207-34.9543 46.3387-57.0612 16.4185-33.525 23.5443-69.9087 21.4191-106.284-6.4591-4.9964-12.8765-9.9804-20.0024-14.2601 2.167 17.8314 2.8754 35.6628 1.4169 54.2109-1.4169 9.9804-2.8336 19.2565-4.9589 29.2369-3.5838 14.981-8.5843 28.5285-15.7101 42.0927-19.9606 37.7922-53.5062 68.471-94.1441 79.8849 0-.7126 0-1.4335 0-1.4335 30.6785-12.8391 55.6396-33.5167 74.1835-62.7661 2.8335-4.2756 5.0005-9.272 7.1258-13.5517 7.8342-13.5516 12.1264-27.0992 14.9601-42.0843 0-1.421 1.4584-2.142 1.4584-3.5672 5.7091-31.3872 5.7091-62.0534-2.1668-92.0113-7.1258-4.2797-14.2517-7.8468-22.086-10.6971 12.1265 34.2417 14.9602 70.6128 8.5427 107.7049-3.5421 15.6936-7.8342 30.6704-14.96 44.9347-4.2923 7.8468-8.5844 14.9769-13.585 22.8237-14.96 20.6817-32.7912 35.6627-54.1895 47.0724-.7122 0-1.4251-2.1336-1.4251-2.1336 12.8347-7.1342 23.5276-16.4103 33.5288-27.1033 16.3768-17.8355 27.0864-39.234 34.2539-62.0618 13.5432-46.3599 7.8342-94.8617-10.7096-138.3713-7.8759-2.1377-15.7101-4.9922-24.2527-6.4174 14.2516 27.1075 24.9611 57.0612 27.0864 88.4484 2.1253 31.3789-2.8337 62.7619-17.127 91.2946-1.4168 2.1419-2.8336 4.2797-3.5421 6.4216-.7087.7168-1.4585 2.1378-2.1668 2.8504-.7088 1.4293-.7088 2.1377-1.4169 3.5671-10.7095 14.981-20.6774 29.2411-36.3708 39.2256 0 0-.7087-.7084-1.421-1.421 12.839-9.2761 21.3941-22.1194 29.2492-35.6669 36.3791-60.6241 27.0865-131.9579-8.5676-190.4401-2.1336-2.8545-3.5672-4.9965-4.9923-7.851-8.5593-.7125-16.406-1.421-24.9653-2.1336 6.4174 8.5552 12.1263 17.1146 18.5437 26.3866 6.4216 10.7013 10.7012 20.6859 15.6935 31.3872 4.9964 12.1223 7.83 23.5362 10.7054 36.3795 9.251 50.6396-2.167 103.4169-37.1001 140.509 0-.7084-.7087-1.421-.7087-1.421 19.2563-25.6824 29.2242-53.4983 31.391-84.1687 3.5421-54.9193-20.694-109.1302-58.4983-148.36-8.5594 0-16.402.7084-24.9612 2.1336 29.9534 25.6823 52.7769 57.7738 64.9032 95.5826.717 2.8545.717 4.9923 2.1461 7.8426.7123 1.4336.7123 2.8546.7123 4.2839.7123 1.4252 1.4209 2.1419 1.4209 3.5671 8.5594 41.3676 4.9964 81.31-19.2563 117.6854 0 0-.7123-.7127-1.4252-.7127 7.8468-14.9768 12.839-30.6704 15.6935-47.785 2.1377-14.9852 2.1377-29.9537 0-44.9389-7.8467-54.2025-40.6588-101.2833-84.168-131.9538-7.8468 2.1378-15.6935 4.2797-23.5361 7.1301 52.0685 29.2411 92.0106 80.6057 99.8574 141.2299 2.8503 25.6781.7123 51.3605-9.9846 74.8925-.7122 0-1.4293-.7125-1.4293-.7125 0-2.1419 1.4293-4.2797 2.142-6.4216 7.1341-27.8159 6.4174-56.3445-2.142-83.4478-6.4132-19.2566-14.2682-36.3837-26.3946-52.7857-2.1378-2.1336-3.5588-4.2797-4.9881-6.4174-21.3983-25.6824-46.3595-44.9347-75.6046-59.199-7.8467 2.8503-14.9808 6.4174-22.1066 10.693 7.1258 2.8545 14.2599 4.9923 20.6774 9.272 1.4292.7167 2.8544.7167 4.2796 1.4251 29.9534 14.981 54.2104 34.9502 74.1835 62.7703 26.3863 37.092 37.0876 79.1764 27.8156 123.3985 0 0-1.4293 0-2.1377 0 2.8462-13.5558 1.4211-26.3907 0-39.9507-2.1377-17.8272-7.8508-33.5167-16.4102-49.2061-9.2677-18.544-22.1067-34.9543-37.8043-49.9353-12.8347-11.4056-26.3864-20.6859-41.363-29.2411-1.4336-.7126-2.8545-.7126-4.2839-1.4294-13.5557-7.1259-27.8157-12.1181-42.084-17.1146-7.1299 4.9965-13.5515 9.272-19.9689 14.9727 27.8198 5.0006 53.4936 14.9852 78.4548 29.2536 1.4335.7084 1.4335 2.1378 2.8586 2.8462 48.5014 29.962 81.3093 82.7435 78.4632 139.088h-1.4335c-2.1378-42.797-23.536-81.3101-55.6272-109.8469-2.1419-1.421-4.2839-2.8504-6.4174-4.984-.717-.7167-2.1502-1.4335-3.5754-2.1419-.717-.7168-1.4252-2.1378-2.8462-2.8503-32.1036-22.8279-67.0493-34.9544-104.862-37.8089-7.1258 4.9923-12.1222 12.1265-17.827 17.8356 44.9343-.7126 87.735 10.6971 125.5352 38.5172 34.2373 24.9614 57.0649 60.6241 63.4822 101.2792-.7087 0-2.1418 0-2.1418 0-11.4097-48.4977-45.6469-84.1646-88.4435-105.5631-4.9923-2.1336-9.9844-4.2838-14.9726-5.7048-30.6785-12.1265-63.4906-15.6895-95.586-12.8391-4.2796 7.1342-9.9843 13.5475-13.5515 21.3985 27.8199-6.4175 55.6356-5.7049 84.1638-.7084 1.4336 0 2.1461 1.421 3.5755 1.421 37.0876 7.8468 69.1828 24.9614 93.4356 53.4982.7123.7126 2.1377 1.4252 2.8504 2.1378 11.4138 14.981 21.3982 29.2494 26.3864 47.0766 0 0-.7123.7126-1.4252.7126-22.1109-50.6438-71.3249-84.1646-126.2436-92.7281-14.2684-2.1378-28.5325-2.8504-42.7966-2.1378-16.4102.7125-32.8121 3.5671-49.2223 7.8468-2.842 7.8426-7.1217 14.9769-9.2636 22.8278 54.2062-20.6859 116.9676-22.111 169.036 8.5552 24.257 14.2685 42.8008 32.8166 56.3523 56.3487-.7123 0-2.1418.7125-2.1418.7125-23.532-34.9502-56.3399-54.9193-96.2861-64.1913-46.3636-9.9887-92.7315-2.1419-133.3778 17.8314-1.4293 7.8468-5.0006 15.6894-5.0006 24.2488 12.1264-8.5594 26.3947-14.2642 40.6588-19.9774 16.4061-6.4133 32.8038-9.2637 49.9266-11.4014 53.4979-5.7091 108.4166 13.5475 142.6539 54.9151-.7123 0-1.4252.7167-1.4252.7167-32.8121-32.0997-77.7464-47.7934-122.6766-45.6514-40.6672 2.1377-79.1799 17.8313-111.9836 41.3717-.7168 8.5594-.7168 16.4104-.7168 24.9615 9.9887-9.272 20.6857-17.1146 32.8121-24.2489 1.421-.7125 2.1377-2.1419 3.5629-2.8545 54.2104-31.383 121.2556-39.2298 176.8912-6.4174 4.2796 2.8503 7.8467 5.7048 12.1263 7.8426 2.8545 1.4293 4.9881 4.2797 7.8467 6.4258 0 0-.717.7084-.717 1.421-7.8425-5.7049-16.406-9.272-24.9653-14.2684-5.7007-2.1336-11.4096-4.2756-17.1145-6.4175-32.0953-9.9846-65.6241-8.551-98.4321.7127-26.3947 7.8468-49.2181 21.4026-71.3248 38.5172-1.4252.7127-1.4252 2.8587-2.8587 3.5671-6.4174 4.9965-11.4096 9.9887-17.1103 15.6936 0 4.9881.7084 9.9887 2.1336 14.9769v3.5712c.7126 2.1336.7126 3.563 1.4252 5.7091 7.8467-11.4139 17.8353-19.9775 27.8198-29.9621 5.7091-4.9922 11.418-8.5552 17.1145-13.5558 28.5325-20.6775 59.211-32.8124 93.4482-35.6586 30.666-2.1419 62.0488 3.5671 88.4393 19.2524-.717.7168-1.4293 1.4335-1.4293 1.4335-10.6971-5.7048-21.3942-8.5635-33.5205-10.7013-14.9725-3.5671-29.2451-3.5671-44.2218-2.8545-59.9152 4.9923-111.271 43.5095-143.3622 92.0114 2.8461 7.8509 4.988 15.6894 7.8425 23.5358 21.3984-40.6588 54.9188-74.8964 97.007-94.1487 12.8348-5.7091 25.6696-9.2762 39.9379-12.1265h4.2797c24.2569-4.9923 48.5055-1.421 71.329 6.4174 0 .7126-.7123 1.4294-.7123 1.4294-41.3713-9.9846-82.0344-3.563-118.4053 17.1187-25.6737 14.9769-45.651 34.2334-63.4822 59.199-1.4251 2.8545-2.8461 4.9964-4.9922 7.8468-6.4174 10.7005-12.1222 21.4035-17.1228 32.0998 2.1418 3.5663 3.5754 7.8426 5.7131 11.4089 2.8546 2.8554 4.2755 7.143 6.4174 10.698 4.2797-14.9773 10.6971-28.5289 17.8354-42.0752 3.563-6.4225 7.13-12.1315 11.4054-18.5489 19.2606-26.395 40.6631-47.0767 69.1914-60.6284 14.9767-7.1342 29.9576-12.839 46.3678-14.9726 15.6851-2.1461 30.6618-2.1461 46.3553 0v2.1336c-40.6546-3.5671-81.3177 10.6971-113.4088 37.8005-34.954 29.2494-56.3481 69.1914-66.3368 112.701 4.9964 6.417 9.2719 13.5483 15.6976 19.2569 7.8426-84.1646 75.6004-165.4746 163.3354-167.6207v2.1461c-53.4936 5.7049-99.1447 39.9425-124.8227 87.0195-.7123 1.416-.7123 2.8454-1.4293 4.2743-15.6893 27.8159-21.3982 57.7742-23.5402 88.4455 6.4257 4.9923 11.418 12.1252 19.2688 16.4066-2.146-19.975.7088-38.519 4.2714-58.4872 5.7132-29.2453 17.1186-54.2109 34.9624-77.7471 23.5318-29.9579 53.4894-50.6438 91.2896-57.778 0 0 .7123.7126.7123 1.4252-9.9846 2.8545-19.9732 7.1342-29.9619 12.1223-2.1335 1.4335-4.2755 2.1461-6.4215 3.5755-16.4019 9.9804-29.2367 22.1069-41.3631 37.0837-17.1186 22.1153-27.8157 44.9385-34.2372 72.0464-2.1336 11.4143-4.2796 22.8236-4.9923 34.2375-.7123 14.9761 0 30.6663 1.4252 45.644 3.5671 1.4289 7.1383 4.2826 10.7012 6.4216 3.5671 2.1403 7.8467 3.5663 11.4097 5.7003-11.4097-44.2192-8.5551-92.0034 10.7011-134.0886 16.4061-36.3787 46.3554-65.6239 83.4554-80.5966v2.1419c-79.8882 39.2257-104.8536 141.9342-76.3212 221.1106 7.1341 3.5634 14.9767 5.6957 22.8193 8.5557-14.9725-34.9506-22.1067-72.0385-17.1144-110.5558 6.4215-47.7892 31.3869-92.0071 72.0374-116.9769 0 .7125.7123 1.4294.7123 1.4294-26.3864 19.9691-44.2218 46.364-53.498 76.3227-17.1102 52.0685-8.5509 107.7004 17.127 154.7766 8.5551 2.1369 16.4061 3.5629 24.9612 4.9922-48.5055-68.4705-55.6397-174.0339 12.8349-233.9538 0 0 .717.7168 1.4334.7168-20.6857 22.8195-34.2372 49.927-39.2295 81.3059-2.8628 19.9733-2.146 39.2302.7171 59.2064 0 1.426 1.421 2.139 1.421 3.5634 3.5628 23.5366 12.8347 43.5095 24.2486 64.1908.717 1.4344 2.1376 2.147 2.8544 3.5763 4.2798 8.546 9.9887 15.689 15.6935 22.8203h24.9612c-23.5361-24.2496-42.0798-52.7815-52.0685-85.5901-.7088-2.8504-.7088-4.9973-2.1418-7.851-.7123-1.421-.7123-2.8516-.7123-4.2759-.7088-1.4294-1.4252-2.1424-1.4252-3.5717-9.9886-47.0729-2.8503-94.1487 27.1073-131.2366 0 0 .7123.7125 1.4252.7125-20.6816 29.9578-27.1073 67.0462-22.8234 102.7164 6.4173 49.9232 32.8079 94.8588 70.6122 126.954 7.8468-1.426 16.3893-2.847 24.2652-4.276-12.1263-9.2719-23.5526-18.5439-34.2456-29.9582-7.1382-7.846-12.8431-14.9806-19.2647-23.5367-9.2635-12.8432-14.9767-25.6769-21.3941-39.9462-2.1419-4.9922-2.8586-9.9849-4.9922-14.9755-11.4139-38.5223-9.276-79.8899 9.2677-115.5526 0 0 1.4293.7168 2.1419.7168-19.2605 44.2179-13.5515 94.8658 9.2678 137.659 18.5521 34.2376 46.3845 60.6325 78.4714 79.8845 7.8343-2.8504 15.6685-5.7053 22.836-9.2767-14.2933-5.7006-25.7113-13.5466-38.5461-22.8186-17.8354-13.5516-32.7996-27.1046-44.2092-45.6518-13.5516-15.6886-20.6858-35.662-27.1073-55.6319-4.2796-17.1196-5.7048-34.2375-4.9922-51.3563.7123-9.9888 2.8504-18.5481 4.9922-28.5327.7123-1.4252-.7123-2.8545 2.8503-2.8545-9.9803 45.6514 2.1503 92.7285 31.387 130.5327 2.1377 2.1373 3.5629 4.2759 4.9922 6.4166 24.2528 28.529 54.2145 48.5068 88.4268 61.3455 3.5838-2.1423 7.8759-3.5667 11.418-5.7036 2.1668-2.1423 5.0005-3.5717 7.8759-5.0006.7087-.7101 1.4168-1.4214 2.1253-2.1345-36.3792-9.2765-69.1747-27.8159-97.007-54.9234-3.5671-4.2797-7.13-7.8459-10.6971-12.1273-27.8157-33.5246-41.3714-75.6085-36.3708-117.6887.7041 0 2.1377.7127 2.1377.7127-1.4334 32.0956 7.8385 62.0539 26.3905 89.8732 4.9881 7.8509 9.9804 14.2726 16.402 21.3993 5.7173 5.7036 11.4262 10.6963 17.0936 16.4015 15.7101 12.8433 32.1287 22.8283 50.6724 30.6742 15.6684 6.4171 31.3787 10.698 47.7972 14.2647 6.4174-5.7057 12.8348-11.4093 18.5437-17.1196-24.2528-1.4293-47.0887-7.138-69.2162-16.4099-2.8337-1.4244-4.9589-2.1374-7.8342-3.5634-23.5443-11.4093-43.505-25.6736-60.6236-45.6468-3.5671-4.9957-7.8468-9.2721-11.4138-14.9757-2.8545-4.2847-4.9923-8.5689-7.8426-12.8436-2.1419-4.2801-4.2838-9.2724-6.4216-13.5521-6.4216-15.6894-10.7012-31.3872-11.4138-48.5018h1.4294c7.1299 42.7969 29.9576 78.4588 65.6159 104.1458 37.0875 26.3819 78.4672 37.0845 121.2638 37.0845 5.7089-6.4216 10.7095-12.8399 15.6684-19.9729-16.3768 2.8533-33.5038 1.4289-49.9223 0-15.6685-1.431-30.6702-5.7057-45.6303-10.703-5.0005-2.1373-10.0011-4.2747-15.0017-6.4086-43.5049-19.9813-77.7297-58.4986-89.8561-104.8584h2.1378c11.4138 34.2333 34.2372 62.0535 65.6325 81.3137 5.0005 2.8504 9.251 4.9928 13.5431 7.8477 40.6714 19.9683 86.3016 24.961 129.8065 16.4016 5.0007-7.1263 8.5843-14.9772 12.1265-22.1119-67.0494 19.262-147.6419 8.5606-195.4265-48.5051-.7123-.7127-2.142-1.421-2.8587-2.1378-8.5551-10.7013-15.6893-21.3943-20.6816-33.525 0 0 .7123-.7084 1.4294-.7084" fill="url(#a)" fill-rule="evenodd"/></g><path d="m250 0a250 250 0 0 0 -11.66016.83398438c-.038-.039-.073-.0819938-.11132-.12109376-7.2422 0-14.03691.62122598-21.1211 1.64062498a250 250 0 0 0 -23.05859 4.6230469c-.2551-.1815998-.49996-.3781939-.75586-.5585937-3.8512 1.0491989-7.70204 2.1018292-11.55274 3.2363281a250 250 0 0 0 -6.93945 2.2500001c-1.6811.552699-3.36217 1.031679-5.04297 1.642578.083.047.1629.09998.2461.146484a250 250 0 0 0 -18.77149 7.001953c-.01 0-.0125-.0098-.0195-.0098-.1102.04-.20836.09397-.31836.134765a250 250 0 0 0 -6.78711 2.884766c-5.12569 2.264198-10.1097 4.739631-15 7.673828.1864.075.36829.141044.55469.214844a250 250 0 0 0 -9.96875 5.728516c.44015.61921.83434 1.246822 1.32031 1.857422l.0898.113281.0937.113281 135.89648 165.203125 5.78711-164.005859 69.8125 146.132809 63.37891-138.988278a250 250 0 0 0 -69.3847-35.623012c-.019 0-.0376-.01062-.0566-.01563a250 250 0 0 0 -17.23832-4.9199169c-.7848-.1962998-1.58822-.3558564-2.38281-.5351562a250 250 0 0 0 -23.75977-4.3710938c-.027-.053-.057-.095038-.084-.1484375-1.2535-.1042999-2.42886-.2083001-3.65625-.3125a250 250 0 0 0 -18.0078-1.53906248c-1.1101-.0939999-2.16918-.18705009-3.30078-.28124999.051.06799993.096.13727819.14649.20507812a250 250 0 0 0 -8.34766-.20703125zm-131.07812 37.765625a250 250 0 0 0 -6.52735 3.751953c-.1386-.049-.27546-.101891-.41406-.15039-7.12989 4.996495-13.553311 9.271961-19.970704 14.972656.154399.028.304584.06575.458984.09375a250 250 0 0 0 -15.058594 13.503906c-.1295-.01-.255266-.03102-.384765-.04102-7.125793 4.992295-12.121378 12.126844-17.826172 17.835938.258199 0 .511531.01667.769531.01367a250 250 0 0 0 -11.675781 15.597662c-.4062.034-.814804.0421-1.220703.0781-4.279596 7.13419-9.983585 13.54744-13.550782 21.39843.2676-.062.535235-.10005.802735-.16015a250 250 0 0 0 -9.337891 17.09961c-.2475.064-.494688.11323-.742187.17773-.795385 2.19489-1.708165 4.33011-2.650391 6.44531.208777.0941.383649.2136.59375.30664l-.599609-.29297c-.003.007-.0068.0129-.0098.0195l173.509769 92.35351-74.7793-199.626952.27735.796875c-.47318-1.469146-1.09326-2.798004-1.66406-4.173828zm282.26171 13.957031c-.65866 4.050939-.8171 8.245114-.36523 12.419922l-14.96484 159.894532 88.84765-82.61133a250 250 0 0 0 -73.51758-89.703124zm-382.945309 104.218754c-1.254813 2.89243-2.432918 5.80065-3.257812 8.82421.254099-.097.515031-.17733.769531-.27343a250 250 0 0 0 -6.5292969 19.23828c-.2154998.105-.4411502.18727-.65625.29297-1.4292985 7.84679-5.0019531 15.68865-5.0019531 24.24804.1188999-.084.2517939-.14912.3710938-.23242a250 250 0 0 0 -2.3359376 19.61133c-.2886997.2053-.5931596.38735-.88085932.59375-.61439939 7.33629-.67890627 14.21419-.69140625 21.39648a250 250 0 0 0 -.02539063.35938 250 250 0 0 0 .02148438.29297c0 .9816-.02148438 1.91566-.02148438 2.91406.07099993-.066.14589695-.12395.21679688-.18945a250 250 0 0 0 1.37890622 19.30078c-.2987997.2987-.5765065.55863-.87890622.86133 0 3.41718.45760572 6.83897 1.12500002 10.25976l148.7988231 14.80469-125.935542-135.51367.966797 1.13086c-2.312333-2.94177-4.832263-5.51319-7.433594-7.91992zm-12.7714841 143.06836a250 250 0 0 0 3.7851562 17.40039c-.2235998.3341-.4677533.65708-.6894531.99218 2.846097 7.8509 4.989353 15.68877 7.84375 23.53516.2586-.4913.567978-.95386.830078-1.44336a250 250 0 0 0 7.501953 18.29102c-.1553.3292-.340141.65908-.49414.98828 2.141797 3.56629 3.575192 7.8419 5.71289 11.4082 2.854597 2.8554 4.276071 7.14422 6.417969 10.69922.1088-.3808.253734-.73829.365234-1.11719a250 250 0 0 0 7.96875 11.67578l98.878906-30.46875-129.179687-56.30859c-3.103325-2.06965-5.946076-3.74518-8.9414061-5.65234z" fill="#2e852e"/><path d="m246.29297.265625a250 250 0 0 0 -7.95313.56835938c-.038-.039-.073-.0819938-.11132-.12109376-7.2422 0-14.03691.62122598-21.1211 1.64062498a250 250 0 0 0 -23.05859 4.6230469c-.2551-.1815998-.49996-.3781939-.75586-.5585937-3.8512 1.0491989-7.70204 2.1018292-11.55274 3.2363281a250 250 0 0 0 -6.93945 2.2500001c-1.6811.552699-3.36217 1.031679-5.04297 1.642578.083.047.1629.09998.2461.146484a250 250 0 0 0 -18.77149 7.001953c-.01 0-.0125-.0098-.0195-.0098-.1102.04-.20836.09397-.31836.134765a250 250 0 0 0 -6.78711 2.884766c-3.03423 1.340327-6.00629 2.798184-8.95117 4.337891l105.625 128.402336zm17.36133.20117188 68.66015 143.71875312 48.57813-106.531253a250 250 0 0 0 -54.20508-25.529297c-.019 0-.0376-.01062-.0566-.01563a250 250 0 0 0 -17.23832-4.9199169c-.7848-.1962998-1.58822-.3558564-2.38281-.5351562a250 250 0 0 0 -23.75977-4.3710938c-.027-.053-.057-.095038-.084-.1484375-1.2535-.1042999-2.42886-.2083001-3.65625-.3125a250 250 0 0 0 -15.85545-1.35546872zm-160.22657 46.92382812c-3.884037 2.77982-7.67679 5.625862-11.417964 8.949219.154399.028.304584.06575.458984.09375a250 250 0 0 0 -15.058594 13.503906c-.1295-.01-.255266-.03102-.384765-.04102-7.125793 4.992295-12.121378 12.126844-17.826172 17.835938.258199 0 .511531.01667.769531.01367a250 250 0 0 0 -11.675781 15.597662c-.4062.034-.814804.0421-1.220703.0781-4.279596 7.13419-9.983585 13.54744-13.550782 21.39843.2676-.062.535235-.10005.802735-.16015a250 250 0 0 0 -4.294922 7.86523l131.509763 69.99612-58.08594-155.064449c-.008-.02387-.0177-.04257-.0254-.06641zm315.3086 18.466797-10.56055 112.847658 57.74414-53.68946a250 250 0 0 0 -47.18359-59.158198zm-406.726564 109.654298a250 250 0 0 0 -2.7890629 8.21875c-.2154998.105-.4411502.18727-.65625.29297-1.4292985 7.84679-5.0019531 15.68865-5.0019531 24.24804.1188999-.084.2517939-.14912.3710938-.23242a250 250 0 0 0 -2.3359376 19.61133c-.2886997.2053-.5931596.38735-.88085932.59375-.61439939 7.33629-.67890627 14.21419-.69140625 21.39648a250 250 0 0 0 -.02539063.35938 250 250 0 0 0 .02148438.29297c0 .9816-.02148438 1.91566-.02148438 2.91406.07099993-.066.14589695-.12395.21679688-.18945a250 250 0 0 0 .87500002 12.25976l103.9492231 10.3418zm-1.751954 146.97461c2.04491 6.15126 3.910672 12.29982 6.148438 18.45117.2586-.4913.567978-.95386.830078-1.44336a250 250 0 0 0 7.501953 18.29102c-.1553.3292-.340141.65908-.49414.98828 2.141797 3.56629 3.575192 7.8419 5.71289 11.4082 1.604628 1.60508 2.760328 3.65914 3.841797 5.78516l58.083984-17.89844z" fill="#83fc83" stroke-width="36"/><path d="m408.16802 450.73629c21.54767-22.53378 34.88315-51.3732 30.28125-80.84766-4.60191-29.47446-28.09727-55.55744-67.83594-70.71679-24.70878-9.4257-40.69311-19.62885-49.67974-28.17184s-10.55589-14.73157-10.53515-17.26758c.85227-5.52286 5.68141-6.80989 10.44726-7.73633l1.59571 25.90821 126.79101 35.32226 25.46875-73.89648c-18.96993-7.98253-39.3719-17.55318-53.94531-29.10938-1.55133-21.78528-11.77817-42.5942-27.49609-61.6914l-34.87891-42.37891 2.46094 44.83594c-12.03226-6.46477-25.25911-10.16642-40.78126-10.74026-15.60144.021-29.63032 3.54857-42.67968 10.66209l-28.84275 19.20393 36.17673 5.76092c-4.3135 1.14927-8.51021 2.53172-12.60742 4.0957l-8.05273-3.79102c-41.89448-19.72844-83.69181-11.42857-120.13672 5.85547l-31.66211 15.01758 29.49414 16.34961c-31.9741 30.89562-41.62214 79.43414-32.92383 126.41992 10.24708 55.35177 45.08656 111.48216 101.876 144.26953 73.52577 42.4489 154.37052 17.71403 197.46585-27.35351zm-238.17784-141.62691c-3.60189-17.65446-.92846-35.65414 5.76563-51.5254l15.36914 40.54688c7.13758-16.34285 12.53824-35.02789 20.32619-50.46484-.92375 15.78345 3.0037 32.7308 12.52738 49.03515 14.64653 25.07462 41.19464 49.46658 82.61132 73.36133 8.48548 4.8014 13.61576 14.60615 7.61133 21.61914-5.7038 6.4872-25.19981 14.87747-63.96975-1.64062-53.37441-22.74001-74.45718-52.58152-80.24124-80.93164z" fill="#2e852e"/><path d="m318.38336 152.14501c-10.85259.0951-21.85788 2.82803-32.38768 8.56808 24.29371-1.76457 45.64971 5.67966 51.60773 23.55859-89.45016-11.69808-180.65656 78.67672-22.01893 170.20035 43.04243 24.83238 13.45293 88.71088-72.4084 52.12836-114.43456-48.75541-106.12124-139.36483-64.90586-186.77494 5.08268 8.55767 9.31432 18.18297 13.14472 28.28724 13.23565-33.73297 39.1426-47.63363 64.97042-61.65023-36.23336-17.06258-70.81182-10.26184-104.75374 5.83516 7.19295 3.98729 13.26134 9.37332 18.50298 15.77144-78.82804 47.14425-53.98733 194.644 49.56758 254.43247 131.7894 76.08748 287.93012-91.79505 144.4954-146.51195-105.12303-40.10194-77.54175-97.11722-26.39911-87.57314l1.82149 29.5888 98.11682 27.33277 14.51222-42.10599c-20.08915-8.6861-36.24029-18.44884-49.34961-30.4343.8802-19.60601-7.3998-39.22383-23.53707-58.83053.52549 9.57462.41858 19.14647-1.10511 28.72179-15.41741-19.49494-37.29959-30.74251-59.87177-30.54328zm30.15246 45.38037c15.96581 5.0452 31.04447 14.48446 43.03826 30.60854-23.4142 10.98169-47.98349-3.69296-43.03826-30.60784z" fill="#83fc83" stroke-width="36"/></svg>