<svg height="500" viewBox="0 0 500 500" width="500" xmlns="http://www.w3.org/2000/svg" xmlns:xlink="http://www.w3.org/1999/xlink"><filter id="a" color-interpolation-filters="sRGB" height="1.012038" width="1.008212" x="-.004106" y="-.006019"><feGaussianBlur stdDeviation=".61781984"/></filter><g transform="translate(.000015)"><circle cx="-249.99998" cy="250" fill="#e51a1a" r="250" transform="scale(-1 1)"/><path d="m181.33938 83.856939c97.52275-31.84694 203.27597 26.159281 217.12696 131.568651 10.04116 85.89723-45.79566 162.6049-131.11288 174.6444-76.26503 6.65-147.16573-45.4981-149.44603-126.3231.16679-50.89801 30.03241-87.97493 76.60677-108.40662 44.00125-16.48183 90.46555-3.00917 112.28155 39.63622 17.95322 40.0953 3.57775 87.31302-40.4313 103.80676-21.98685 8.23292-51.6578-5.55285-56.72562-31.5612 24.48155 21.7253 69.7211 11.74379 80.1808-21.06198 5.24648-24.88185-11.48198-41.52298-24.36368-55.64156-23.21161-15.22125-63.26956-13.16738-85.32502 12.05139-41.51846 46.43224-18.48961 112.52397 35.72777 131.08081 60.66482 17.11352 118.96473-29.63961 126.96137-92.39988 2.7637-54.83226-40.99398-106.19486-96.51046-114.27807-76.21988-10.3001-138.45939 50.84936-147.743191 124.09106-9.31956 73.21828 47.315731 138.67973 111.863041 158.33924 49.05305 9.49897 98.18701 2.07129 139.64056-27.40671 82.90715-58.95602 100.11901-177.97214 43.55644-260.39974-52.71171-79.885311-158.575-103.987181-249.15842-67.061741-86.705021 39.45169-149.0660905 134.549061-117.102931 229.167621 15.77888-74.65377 50.93986-153.5943 123.407351-187.514491 9.28724-4.60517 19.44718-8.7232 30.56692-12.33106zm-160.722321 286.075591c-52.57825-113.8254-.38403-260.89182 113.777041-317.643861 10.84604-5.32012 22.21219-9.7712 34.03518-13.36069 115.76394-28.75816 246.03978 34.00351 263.68455 158.897471 10.04526 85.91695-27.72044 168.80365-107.97396 206.83173-102.24035 46.26108-224.798841-11.43986-234.690511-131.24969-7.33455-123.78718 127.307171-194.136761 222.718561-137.24102-42.54074-27.89653-94.21826-33.44528-140.80825-12.98978-71.17376 32.62266-105.080851 118.0397-80.762351 190.63139 30.697281 88.13423 123.572931 132.04164 212.817841 105.59803 82.80488-25.06359 132.16266-100.33164 140.19255-180.04986 12.12434-145.020371-132.23823-245.3588802-265.59709-221.973611 7.92036-4.10499 20.5989-8.4277792 35.61563-11.7452592 60.06317-13.23825 124.63426-3.45807 179.45368 32.4903392 109.65077 71.904621 141.09454 217.803071 65.16008 333.599141-143.00482 218.07486-377.311781 117.06797-437.622951-1.79433" fill="#b21a1a"/></g><path d="m141.48047 134.19922c-5.79331-.15261-11.59546.0125-17.41211.57812-29.884164 2.90579-77.308533 3.21464-103.394532 16.51172a250 249.99998 0 0 0 -18.7460936 71.76172v79.95703c2.7101358 22.93381 8.8007546 45.51602 18.6894536 66.92383 34.751153 68.48818 127.287802 130.87947 226.822262 129.88477a250 249.99998 0 0 0 2.56055.18359 250 249.99998 0 0 0 8.79883-.62891c2.52516-.14858 5.04927-.30989 7.58008-.54297a250 249.99998 0 0 0 233.62109-248.82812 250 249.99998 0 0 0 -.28125-11.47266c.47731-34.14811-6.39301-67.69873-19.96875-98.49609-9.191 6.18366-19.42792 9.80315-30.12305 13.22852-59.27156 18.98311-124.6107 5.51605-186.70703 1.33007-40.81593-2.75144-80.88628-19.32234-121.43945-20.39062z" fill="#ff8066" opacity=".75"/><path d="m227.30387.00076066c-98.88566 7.59598544-219.1104201 49.98141134-221.5298065 121.81337934-.0523532 1.55441-.8392946 3.46218-2.1648983 5.62832 4.2847809 17.18981 10.5071918 33.9664 18.9665338 49.92247 38.677305 66.88002 135.062071 124.45409 234.985611 117.97426a251.49161 251.49184 89.578706 0 0 2.58207.04342 251.49161 251.49184 89.578706 0 0 8.80344-1.1162c2.52823-.28828 5.05472-.5893 7.58398-.96277a251.49161 251.49184 89.578706 0 0 214.56827-193.454554c-19.81962-56.08368-130.30268-91.3688426-249.44932-78.039326-93.38879 10.443195-171.177371 47.144808-205.597002 91.73494 18.943691-50.693054 94.110622-96.590349 191.251122-113.54393934z" fill="#ff8066" filter="url(#a)" transform="matrix(.99257776 .05441202 -.05441206 .99257857 7.859842 192.65462)"/><path d="m227.3047.00000146c-98.88578 7.59599304-221.5308865 49.94194354-221.5308865 121.81471854 0 66.97068 121.0244765 110.9702 252.6063065 96.24951 93.38793-10.44424 171.97482-47.14519 206.39244-91.73636-45.35781 84.71142-147.86872 109.42258-240.65669 119.55814 115.50807 5.29927 270.14026-33.94424 270.14026-127.83121 0-66.397532-121.02444-110.9661015-252.60631-96.245394-93.38888 10.443205-171.177337 47.145157-205.597002 91.735334 18.94371-50.693105 94.111292-96.591131 191.251882-113.54473854zm57.66448 42.04857354c79.63033-.635913 140.62873 24.35204 140.62873 59.922105 0 4.86712-1.14421 9.70644-3.32054 14.46037-32.74239-20.756752-90.60752-37.558072-153.49825-40.282829-6.28196-.271673-12.61232-.398223-18.97146-.363213-2.11971.0102-4.24149.03908-6.36634.08746-52.96407 1.19054-107.25147 13.81931-149.319577 46.160422 5.167597-37.637312 77.320257-72.469592 165.584767-78.952218 8.58894-.630769 17.0267-.969309 25.26372-1.034136zm-35.02258 52.974373c6.0175-.0381 12.0237.0793 17.99902.33751 59.15244 2.56219 115.09851 19.686612 143.12817 36.794562-6.81192 6.98889-15.83206 13.62175-26.64669 19.69484-25.61151-11.78191-65.30165-19.61252-108.99042-19.69689-3.33804-.006-6.69876.0329-10.07902.11833-45.30221 1.14938-93.82722 11.17893-132.17144 37.1362-16.28163-7.02185-28.27661-15.96373-34.512301-26.30301 39.959771-34.44846 96.032391-47.734772 151.271581-48.080502zm25.43346 56.378272c32.18986.17802 62.59748 5.289 84.5602 12.01342-27.84748 11.10588-62.5666 19.04247-100.23375 21.8084-38.77848 2.84822-74.4195-.2502-102.66629-7.72773 32.13944-17.40222 71.26772-25.04762 108.80526-25.99943 3.18985-.0824 6.36942-.11316 9.53356-.0946z" fill="#861313" filter="url(#a)" opacity=".85" transform="matrix(.99257776 .05441202 -.05441206 .99257857 7.859842 192.65462)"/><path d="m263.29464 249.54673c8.55951-.15875 16.95307-.0357 25.13247.34818l-.001.002c79.0739 3.70165 138.25991 31.82321 136.32447 67.12929-.26483 4.83099-1.66387 9.57214-4.08272 14.17237l-11.976 14.99767c-7.14163 6.56637-16.45573 12.6592-27.52054 18.09878l-24.93436 10.14657c-28.24509 9.50821-63.13835 15.49677-100.67643 16.19263-38.64568.7171-83.33095-3.4885-124.72072-22.58236-71.861464-27.99509-96.6543-39.6904-93.372946-60.73346 21.561421-49.28612 98.668496-90.75349 196.010566-102.29567-98.56514 2.15904-222.604073 37.51737-226.5148193 108.85674-3.6440129 66.47366 114.0880793 116.73182 245.4942593 109.28001 93.26308-5.2853 173.26366-37.4378 209.85211-79.82531 35.86969-65.31194-114.81956-122.02055-199.01434-93.78744z" fill="none"/><path d="m404.72555 98c-12.80284 32.0071-43.74304 51.10467-106.37026 46.83706-14.61658-1.92043-29.44653-4.37431-44.38318-7.14826-127.06818-39.6888-252.0452388-39.6888-252.0452388 39.68881 35.7199228-39.68881 125.6171988-32.86062 240.0959188-4.26762 124.61431 31.15358 257.97722 43.95642 257.97722-55.26559-19.63102 20.59124-56.97264 30.51344-103.06286 32.43386 10.66904-11.09579 13.33629-28.48631 7.7884-52.27826z" fill="#861313"/></svg>