<svg height="500" viewBox="0 0 500 500" width="500" xmlns="http://www.w3.org/2000/svg" xmlns:xlink="http://www.w3.org/1999/xlink"><radialGradient id="a" cx="1362.7291" cy="216.11429" gradientTransform="matrix(1.0000001 -.0000059 .0000001 1.0000003 -112.72927 33.893757)" gradientUnits="userSpaceOnUse" r="250"><stop offset="0" stop-color="#ff851a"/><stop offset=".42441937" stop-color="#f87000"/><stop offset=".86367416" stop-color="#f26900"/><stop offset="1" stop-color="#e55f00"/></radialGradient><filter id="b" color-interpolation-filters="sRGB" height="1.079467" width="1.121219" x="-.06061" y="-.039734"><feGaussianBlur stdDeviation="4.8858595"/></filter><g transform="translate(-1000)"><path d="m1500 250a250 250 0 0 1 -250 250 250 250 0 0 1 -250-250 250 250 0 0 1 250-250 250 250 0 0 1 250 250z" fill="url(#a)" stroke-linecap="round" stroke-linejoin="round" stroke-width="1.002"/><path d="m1309.2298 33.82789c128.5196 30.706851 207.8974 167.48127 169.5927 291.56949-31.3771 95.69524-112.8693 162.03793-212.5543 174.60263 153.1796-8.09118 266.0956-163.0043 218.7012-309.92978-36.4562-114.666588-154.6038-191.5214848-270.6514-169.822657-18.8526 4.215647-38.4387 10.498641-55.8829 18.694487-112.5353 47.459213-168.47522 196.206-99.9632 307.85319 57.6978 93.63045 168.5136 141.8489 267.9993 100.77239-134.92 68.97589-303.283-51.46877-311.488-201.30723-4.4167-117.68321 76.8182-219.674136 190.654-246.26040176-89.0147 9.18391126-152.6601 79.39239576-187.7408 157.21169176-38.45522 102.70317 5.2337 231.75078 109.038 294.08388 114.5107 66.1048 260.3537 29.37245 323.6836-83.60152 42.2104-77.69758 34.3514-177.62383-23.1776-249.88923-57.5404-72.257811-157.5429-102.460489-246.4118-71.877168-81.7429 30.682061-131.1298 101.133078-134.0478 190.176958.6692 92.68536 61.7912 168.55972 147.5399 198.52472 128.5549 37.82014 266.7725-70.33038 233.6823-209.88949-14.7104-64.39775-57.8855-122.14991-125.7378-141.121386-71.391-15.467036-138.9716 1.205-181.2869 64.641366-18.8995 29.2286-28.9384 85.21395-26.105 97.65297m0 0c13.5324-50.18833 30.6277-97.66354 72.2125-128.94941 53.182-38.308183 124.4576-37.093813 181.7444-.48035 50.1457 36.48017 75.4845 90.37713 72.3557 150.91678-6.6674 64.04407-38.4038 109.83277-91.6401 141.00844-63.9019 34.56125-135.3795 4.83213-189.1258-35.28385-78.8706-65.48566-79.7477-186.67235-8.9744-256.76104 63.7369-55.941605 167.0207-64.891564 238.7167-6.65053 78.8163 58.35315 90.3045 169.04089 40.972 246.62443-35.2274 56.41892-88.4571 87.60135-152.5581 93.63158-81.9488 2.18264-160.666-41.91503-196.8695-120.9383-36.2055-79.02511-22.5771-164.33167 26.8727-227.66064 49.4316-63.30896 138.3491-86.746364 220.4504-67.54202" fill="#c50"/></g><path d="m205.63672 0c-68.85376 7.1038456-122.451725 50.77374-159.468751 106.18164-10.12498 14.25032-18.72743 29.52338-25.666016 45.56836-.858098 1.82411-1.779069 3.62769-2.605469 5.46094-1.685696 4.50209-3.1574 9.07051-4.529296 13.66601-8.6870836 25.4825-13.20088834 52.20105-13.367188 79.12305v250h250 250v-250c0-138.07091-111.92908-250-250-250-41.89092.2225453-83.05456 10.968297-119.70898 31.25 22.77514-14.173777 48.11266-24.8897356 75.3457-31.25zm44.36328 193.95117c27.92211 0 71.73438 14.41878 71.73438 43.25586v201.86133h-143.46876v-201.86133c0-28.83708 43.81227-43.25586 71.73438-43.25586z" fill="#994100"/><path d="m275.75781 1.3164062-67.89062 5.1972657-2.57422 23.3242191 1.48828 28.339843 32.4082-1.675781 8.31055-10.888672 12.875 9.773438 32.57422-1.746094v-49.8886719c-5.67494-.9831685-11.39217-1.8419372-17.19141-2.4355469zm-86.02734 1.0996094c-23.26074 4.4438698-44.65228 13.0907584-64.0918 24.9531254l.97852 23.427734 67.72461-.626953-4.10742-42.5351564c-20.83327 5.2515134-40.99723 13.1319184-59.94336 23.6152344 18.32261-11.402805 38.32695-20.519181 59.61914-26.9785156zm115.11133 3.8964844-2.44727 50.609375 77.86914 1.046875 1.94336-20.125c-23.19454-14.4848-48.93212-25.246169-76.39453-31.5117188zm-192.88868 30.162109c-6.14768 4.42867-12.098002 9.149189-17.812495 14.183594l19.115235-.699219zm288.54297 13.91211.0566.46289.59375.04883c-.21967-.167025-.43014-.345406-.65039-.511719zm-137.31054 9.484375-2.79688 57.718746 87.90235 2.29883 2.09765-54.521482-71.07031-3.074219-3.1875-2.421875zm-17.97852 2.445312-68.07422 7.46875-4.54883 44.746094 77.44922 2.77734zm-163.859374.513672c-2.412553 2.444152-4.785262 4.930102-7.109375 7.472656l-2.402343 45.205076 88.224612-2.72265 4.89843-49.632816zm337.582034 2.91211-59.375 2.976562 3.84765 48.16602 70.66407-.62696.47461-34.888669c-4.97057-5.43646-10.1831-10.64757-15.61133-15.626953zm-362.646487 26.255859c-3.4822 4.640204-6.884717 9.348093-10.115234 14.183593-2.107592 2.96631-4.109613 6.00201-6.083985 9.05469l18.388672-.56641zm395.599607 10.601563.65235 12.82031 8.59961.77735c-2.94378-4.63532-6.01806-9.17606-9.25196-13.59766zm-313.16015 21.98437-15.11133 30.57618 1.46679 29.3164 90.04297-1.32422-5.3164-55.63672zm-28.125.97657-78.978519 3.71679c-2.945565 5.2846-5.646876 10.70101-8.203125 16.18946l3.783203 32.79687 87.246091 4.60742zm275.19336 2.00586-1.46875 29.31836 15.11132 30.57421 71.08399-2.92968 4.21484-44.11328c-1.92422-3.93865-3.96214-7.80973-6.08398-11.62891zm-94.5879.1582-61.59765 2.02344-5.24805 52.91406 66.8457-3.62891zm83.95313 1.44727-72.16992 4.60742-5.59766 48.51562 73.91992 4.1875zm-361.314453 40.27148c-.146227.48138-.330711.95157-.474609 1.43359-.635069 1.8629-1.200624 3.74539-1.791016 5.6211l3.03125-.11719zm476.298823 11.07617.17579 1.77539.33203.0137c-.16764-.5971-.33586-1.19378-.50782-1.78906zm-365.9707 11.93359-84.867186 4.65626 21.060547 47.81835 68.634769-2.51367zm81.08789.19532-64.99609.37109 2.09766 50.23242 35.90624-.33398v-5.71094c0-15.27653 12.33016-26.46469 28.04493-33.64844zm-198.3847631.85156c-3.9715219 16.6352-6.22387166 33.64283-6.72265628 50.76953l9.66406248-.32031 17.0351559-50.44922zm301.8183631 4.49805-29.1836.33203c10.8603 3.11023 21.36832 7.87137 29.1836 14.30469zm11.89257.76757-1.3125 27.13477c1.56893 3.48707 2.4629 7.24848 2.4629 11.30664v12.21875l74.26953.99805 4.82812-49.98242zm174.32032.78126-84.83789.40624 6.22851 43.34961 50.51367 4.11719 26.79493-29.03906 2.6289-11.41992c-.4299-2.47604-.82594-4.9636-1.32812-7.41406zm-464.136722 13.67382-12.3125 34.77735 28.753906-.69727-5.736328-23.74805zm463.115232 16.60938-19.16992 19.54687 25.28711 2.32813v-1.70508c0-1.27731-.0766-2.53583-.0957-3.80859zm-403.505857 25.42773-2.798828 52.70508 88.224605-2.72266 2.46289-24.96484v-24.67773zm231.357427.64258v52.92383l42.29687 3.51758 2.09961-54.51953zm-321.73438 1.24219v52.27148l74.214844-2.28906-4.826172-49.98242zm450.50781.26172-75.21093 3.76953 3.84765 48.16601 70.66211-.62695zm15.46094 5.0957 2.30859 45.375 31.72266 3.30078v-47.55859zm-311.50586 54.53711-15.11133 30.57617 1.46875 29.31836 37.44531-.55078v-58.36133zm-28.125.97851-88.992187 4.1875 5.595703 48.51563 87.244144 4.60547zm275.19531 2.00586-1.4707 29.31641 15.11133 30.57617 71.08398-2.93164 5.31836-55.63672zm-10.63476 1.60352-69.16406 4.41602v49.19531l65.31445 3.70117zm-390.89844 3.43945v44.70117l30.347656-.93164-4.828125-43.76953zm5.6367188 59.54493 2.7851562 47.81835 96.998045 6.70118-2.09961-54.51953zm112.7968712 3.00195-3.84961 48.16797 63.68164 2.49218v-50.25zm226.35547 1.02929 2.79883 52.70313h93.82227l-4.89649-49.63281zm-23.05468.69922v49.72852h-4.16211l9.02929.74023 4.82813-49.98047zm127.30273.62696 4.54687 44.74609 46.41602 4.15039v-47.67187zm-250.38086 49.10156 12.28125.48047-.006-.48047zm25.14844 5.99414-27.28516 2.51367 19.16992 19.54688zm-88.51172 1.4668-77.869142 1.04687 2.449219 50.60938 80.248043-1.67578zm143.87305 2.42382 12.31445 34.77735 10.70312-10.33008 5.73829-23.75zm-263.761723.15821-12.8750001 9.77344-2.5292969-3.31446v43.38281h47.978516v-48.0957zm173.208983.41797-33.03125 4.11914-6.22656 43.34961 70.39062.41992-4.33789-18.84766zm303.94141.54101-10.98438 15.00781.34961 32.91993 18.08008-.14453v-47.11914zm-263.84766 1.25586-.24609 47.62695h59.09961l-17.03516-45.95117zm92.36719.69922-21.0586 46.92773 84.86524 1.04688 4.82812-45.46289zm81.99609 1.67383-2.09765 45.73633 64.99609.36914 4.82813-45.47657z" fill="#ffa348" stroke-width="36"/><path d="m250 168.95117c-18.09485 0-38.78606 4.10239-57.50391 13.44531-19.06238 9.51492-39.23047 27.77211-39.23047 54.81055v226.86133h25 168.46876v-226.86133c0-27.03844-20.16809-45.29563-39.23047-54.81055-18.71785-9.34292-39.40906-13.44531-57.50391-13.44531zm0 25c27.92211 0 71.73438 14.41878 71.73438 43.25586v201.86133h-143.46876v-201.86133c0-28.83708 43.81227-43.25586 71.73438-43.25586z" fill="#ffa348" filter="url(#b)" opacity=".75"/><path d="m250 184.95117c-15.51021 0-34.32325 3.75833-50.35742 11.76172s-30.37696 21.51775-30.37696 40.49414v210.86133h9 152.46875v-210.86133c0-18.97639-14.34278-32.49075-30.37695-40.49414s-34.84721-11.76172-50.35742-11.76172zm0 18c12.4119 0 29.46611 3.45204 42.31836 9.86719s20.41601 14.52798 20.41601 24.38867v192.86133h-125.46875v-192.86133c0-9.86069 7.56377-17.97352 20.41602-24.38867s29.90646-9.86719 42.31836-9.86719z" fill="#994100" stroke-width="32"/></svg>