<svg height="500" viewBox="0 0 500 500" width="500" xmlns="http://www.w3.org/2000/svg" xmlns:xlink="http://www.w3.org/1999/xlink"><filter id="a" color-interpolation-filters="sRGB" height="1.040697" width="1.034769" x="-.017384" y="-.020348"><feGaussianBlur stdDeviation="2.8145585"/></filter><g transform="translate(-1000 -500)"><circle cx="1250" cy="750" fill="#8f29a3" r="250"/><path d="m1250.0521 500.09326-.061 248.75004-15.9199-248.2399a249.99917 250.18666 0 0 0 -31.6776 4.06945l45.0428 231.17052c-.102.0363-.2268.0547-.3789.0547l2.377 12.94521-.25-.53361-.5352-1.34279-3.3574-10.61339c-.1814.0698-.3456.12506-.5117.12506l-.1211.0782-83.1951-220.24831a249.99917 250.18666 0 0 0 -14.7401 6.13348l96.9 214.60543-.2187.11532 2.3047 4.43886 2.3437 5.21678.055.0488.416.7486.7461 1.26658v.0314l-.7461-1.29782-.4707-.79746-5.5273-9.21c-.1841.12151-.3808.23754-.5664.39678l-123.4077-200.53639a249.99917 250.18666 0 0 0 -34.1776 25.40763l164.5483 186.40079-.3984-.58052.832 1.02616v.0508l-.3262-.32448-.094-.12903v-.006-.002l-176.1809-175.46484a249.99917 250.18666 0 0 0 -21.0273 24.05115l186.5306 143.42536-.1425.18569 10.4687 8.26398-2.0957-1.07698-9.4082-5.66242c-.1395.18156-.2273.33335-.3066.47301l-208.0031-109.74966a249.99917 250.18666 0 0 0 -7 14.40723l214.5266 96.34337c-.074.17741-.1655.3791-.2578.59419l12.1758 4.73596-.037-.0253.5254.23653-.4863-.21109.3574.18179.2129.0802-.2129-.0508v-.0295l-12.8066-4.08117c-.056.14944-.1255.33501-.1758.5082l-224.9661-68.33223a249.99917 250.18666 0 0 0 -8.7656 41.69908l246.1613 30.77687h-1.2363l-246.3644-14.82161a249.99917 250.18666 0 0 0 -.4219 14.51082 249.99917 250.18666 0 0 0 .6113 17.47203l234.4934-16.18786h-.027l.3066-.0234-.2773.0234 12.9687-.73492-7.6699 1.8549-.3028.0508-4.789.9382.07.23845-228.2004 55.91086a249.99917 250.18666 0 0 0 4.2871 15.37279l224.173-70.26921c.093.36314.1859.69573.2793.95971l11.9648-4.46623-6.7285 3.52803-218.2141 100.03556a249.99917 250.18666 0 0 0 21.0155 36.99246l204.0072-139.70972-2.9414 2.38851-191.599 150.2058a249.99917 250.18666 0 0 0 21.2792 23.80097l164.7143-167.43742c.2793.26396.5666.50585.8359.80333l7.6309-8.62753v-.0314l.7578-.86587.1855-.23653.7754-.84633.02-.0645.057-.0272-.023.15832-.1035.11531.051-.18179-.068.18179-1.3203 1.73762.6133-1.0457-.1856.20916-.7578.89715-2.5996 3.67852-4.2753 5.57643.287.1818-133.9214 192.92518a249.99917 250.18666 0 0 0 13.3768 8.68037l121.3629-200.99764c.1115.0698.2562.1641.4043.23263l6.9082-11.76855-.2793.71929-100.1481 226.51466a249.99917 250.18666 0 0 0 40.1346 13.79743l59.6931-236.78211-1.5742 9.22563.2364.0566-42.7675 230.89101a249.99917 250.18666 0 0 0 31.6386 3.76263l12.9316-234.50119c.2415.0238.455.0234.6602.0234h.031v-12.36276l.055-.87175.3809 3.35211.6328 9.85892c.1939 0 .3385-.0234.5058-.0234l27.248 233.23258a249.99917 250.18666 0 0 0 15.7831-2.3455l-42.1484-231.0161c.254-.028.4739-.0916.707-.11531l-2.0644-10.71502-.055-.13878-.3203-1.79235.018.0295.3575 1.90182 74.3923 234.18055a249.99917 250.18666 0 0 0 39.205-16.19959l-111.1503-215.75097 4.1406 6.7179.2696-.18569 120.6715 201.44522a249.99917 250.18666 0 0 0 26.2108-18.10533l-145.5071-184.32505c.254-.18717.4204-.39029.6562-.60397l-8.457-9.554 3.3672 3.03156 5.8437 5.83834.2872-.30686 174.8256 156.82795a249.99917 250.18666 0 0 0 10.2715-12.18293l-184.478-145.35845c.1296-.15783.305-.33279.4082-.48083l-9.3632-7.21437 211.5852 126.78601a249.99917 250.18666 0 0 0 18.7245-38.19257l-229.6555-89.16613 11.0274 3.36579.012-.18569 223.9289 70.91228a249.99917 250.18666 0 0 0 7.6836-30.99187l-231.1887-41.80463c0-.16199.037-.30149.037-.44955l-7.3671-.90693-4.5508-.79941 12.0312.70755c.03-.32965.029-.62841.029-.96361l235.009 1.78454a249.99917 250.18666 0 0 0 .011-2.19892 249.99917 250.18666 0 0 0 -.3809-13.81303l-234.6691 13.37131v-.33226l-11.7754.81114-2.207.14075 2.1641-.14075h.043l242.6422-45.60435a249.99917 250.18666 0 0 0 -11.2772-41.04821l-231.0032 85.65376-.2598.0684 10.5078-4.79069c-.1716-.35894-.395-.80876-.6601-1.20402l208.1651-109.51534a249.99917 250.18666 0 0 0 -7.877-13.90491l-200.7337 122.63837-.2109-.32833-5.6211 3.9033-4.707 2.86542 9.6699-7.59747-.1446-.20719 183.392-147.45376a249.99917 250.18666 0 0 0 -29.3651-30.85701l-161.2514 182.96656-2.3184 2.37091 151.2905-195.53064a249.99917 250.18666 0 0 0 -26.4154-17.96062l-119.2496 202.94829-.094-.0664-7.0644 11.68841 5.539-12.45265c-.2748-.15364-.5655-.24794-.8711-.35962l83.404-220.18189a249.99917 250.18666 0 0 0 -15.121-5.19332l-69.2811 225.07807c-.1088-.0378-.2229-.0651-.3808-.11531l-1.8809 7.53882-1.1289 3.69807 2.1055-11.46558c-.2011-.0197-.4082-.0561-.6133-.0743l40.1268-232.08917a249.99917 250.18666 0 0 0 -42.4354-3.64138zm-1.9453 235.66215 1.0117 8.77021v.043l.8711 4.45646v.46128l.029-.16807.023.62741v.1036l-.057-.1036v-.43977l-.066.30686-.2383-.49451-.5625-4.74964zm-9.3652 5.00568 7.0859 6.37391-.025-.0197zm25.7675 6.02013-11.8261 2.9006h-.057zm-12.1504.11531-1.6269 2.78332-.3496.40069.1113-.44954-.092.20719-.02.18179-.051.10553v-.0253l.051-.0802v-.16221l.02-.0197v-.10556l.012-.0234.082-.12118v-.0234l.033-.0272.061-.1505v.0197l-.061.13096-.033.0508zm-6.5292.23849 3.3242 2.54682.3633.56682-.4493-.16807.2012.13878h-.022l-.2188-.13878h.037zm5.0331.24627-.2968 1.58908.2968-.84047-.3339 1.37603-.1016.1505.1387-.68606.2617-1.56758zm-.582.38505-.086 1.71808-.057.19351-.1172-.46715zm3.1445.7447-2.2754 1.58908h-.023l-.4121.27757-.2871.11728.2129-.27557.074-.0215.8867-.71342zm-4.0429.57856.1348.14075v.0469l-.084-.1251zm3.8633.31665h.029l-.1738.0802zm-3.5254.18179.1835.3577v.0392l-.1835-.35376zm.416.0938.02.26385v.0392l.039.0958.047.11728-.047.0215-.039-.1192.039-.0197-.039-.0605v-.0352l-.057-.26192zm2.2207.0644-.07.0272-1.0156.30686.1562-.0605zm-5.6387.0665 2.3692.40655.3457.21498.029.0606-.3124.0644zm2.1641.31271h.053l.094.0314zm.7265.19155h.02v.0196zm-.164.0606h.02l.074.0802zm.2148.1818h.024l-.024.0314zm-.3359.16808h.057l.2461.0352-.8125.32836zm-.3887.0352h.2168l-.9316.47886.2637-.0527-.025.0272-.2383.0253-2.0253.39287v.0234l-5.2422.93428 5.2422-.95774zm1.7774.0234.5078.043.7519.2228-.8457-.0841zm-.2188.16418.035.0178.1113.22088.3282.16611 1.4394 1.4034-1.3496-1.00858-.2344-.2971-.1855-.26385-.018-.0333-.092-.18766h-.035zm-1.0625.0802-.25.27364h-.029l-2.7812 1.26461 2.2988-1.41316zm1.5703.0997.1485.0253.031.0314zm.2207.0253 1.9356.60398-1.9063-.57074zm-1.1796.17201.031.1251.022-.0978-.022.13092v.006l.076.23066.125 1.89594-.2324-1.35256.031-.77402-.088.50819v-.0919l-.031-.18569.031.14272v-.26385zm.7226.0919.061.0664.088.14661-.037-.0314zm-1.1406.1818-.2442.52578-3.9492 12.85138 3.9219-12.85138h.027l.084-.28732.01-.0117zm-.088.10552-.065.11339.041-.0978zm1.4648.0802.033.0234.1152.18962-.092-.0919zm-.4375.21306.023.0295.029.22669zm-1.7304.26581v.0295l.051-.0295zm2.2929 1.35257 4.8828 10.7893-4.8828-10.73457z" fill="#aa40bf"/></g><path d="m74.980469-44.583984v58.226562c-9.007631 3.853259-15.634354 12.386074-17.763973 21.878606-2.413221 10.238204.464477 21.594094 7.617134 29.336534 2.825196 3.097715 6.291443 5.625155 10.146839 7.282907v20.324219c-8.943092 3.832645-15.546292 12.272266-17.718955 21.689146-2.491735 10.28874.37351 21.74011 7.572116 29.53185 2.825766 3.09689 6.291566 5.62465 10.146839 7.28291v21.4043c-9.006838 3.85415-15.63381 12.38622-17.763973 21.8786-2.412884 10.23882.464113 21.59547 7.617134 29.33849 2.826904 3.09366 6.288778 5.62866 10.146839 7.279v55.50977h22.384765c0-18.50131 0-37.00261 0-55.50391 9.003106-3.84959 15.638676-12.36361 17.787106-21.848 2.37617-10.03187-.327-21.14243-7.17715-28.87077-2.9159-3.31951-6.53972-6.04181-10.609956-7.77928 0-7.13476 0-14.26953 0-21.40429 8.969236-3.84247 15.596156-12.30431 17.764806-21.75202 2.42191-10.08882-.29918-21.28655-7.22033-29.04233-2.90324-3.287276-6.50536-5.979736-10.544476-7.705654 0-6.776041 0-13.552083 0-20.328125 9.002426-3.849538 15.638676-12.362522 17.787106-21.846044 2.38404-10.064513-.34506-21.214461-7.24172-28.947144-2.90361-3.287141-6.50646-5.979677-10.545386-7.706812 0-19.7428383 0-39.485677 0-59.228515-7.461588 0-14.923177 0-22.384765 0v1zm328.941411 0c-.00001 19.408203 0 38.8164059 0 58.224609-9.00886 3.85354-15.63366 12.388175-17.76593 21.880559-2.40033 10.205868.44417 21.521974 7.54981 29.262592 2.83816 3.131957 6.32938 5.685719 10.21612 7.356849-.00001 6.77474 0 13.549479 0 20.324219-8.94276 3.830806-15.54409 12.269496-17.71946 21.683166-2.48307 10.26358.35305 21.68666 7.51686 29.4763 2.83506 3.12488 6.32051 5.67743 10.2026 7.34249-.00001 7.13476 0 14.26953 0 21.40429-8.97515 3.8438-15.59024 12.32912-17.74307 21.78333-2.45759 10.29646.43621 21.741 7.66282 29.50837 2.81192 3.06507 6.25576 5.56457 10.08025 7.21026 0 18.50195-.00001 37.0039 0 55.50586h22.38671c0-18.50131 0-37.00261 0-55.50391 9.04304-3.86672 15.69428-12.43643 17.81749-21.96978 2.30139-9.91141-.33595-20.85181-7.02487-28.54195-2.94372-3.41875-6.63904-6.21098-10.79262-7.98827 0-7.13477 0-14.26953 0-21.4043 8.98015-3.8404 15.60644-12.32074 17.77169-21.7766 2.38217-9.96066-.24653-20.99492-6.97907-28.73317-2.94257-3.420066-6.64034-6.210188-10.79262-7.990227 0-6.774739 0-13.549479 0-20.324219 9.04335-3.866979 15.69417-12.438669 17.81749-21.971729 2.34814-10.100103-.44302-21.2705-7.40962-28.977635-2.87455-3.223256-6.43503-5.849259-10.40787-7.554542 0-19.7421874 0-39.484375 0-59.226562-7.46224 0-14.92448 0-22.38671 0v1zm-317.740239 78.308593c3.393889.02033 6.19879 2.883654 7.002045 6.044348 1.080475 3.793248.170559 8.401924-3.05403 10.900658-2.088258 1.659513-5.226805 1.867224-7.435609.319974-3.11308-2.050054-4.325134-6.08713-3.832745-9.654179.386279-3.254376 2.49314-6.549781 5.794948-7.415488.498095-.129056 1.010789-.194472 1.525391-.195313zm328.943359 0c3.46667.02315 6.30009 2.998859 7.05404 6.236041 1.01382 3.813124.0279 8.409148-3.26741 10.829721-2.11071 1.581067-5.19976 1.698971-7.35768.144131-3.08101-2.088335-4.25066-6.125072-3.73912-9.684683.41294-3.250344 2.54951-6.52805 5.8629-7.353335.4739-.11225.9604-.168743 1.44727-.171875zm-328.652344 78.833981c3.469909.19528 6.191361 3.27465 6.839076 6.55055.909537 3.79535-.182202 8.31628-3.504294 10.62623-2.129922 1.49191-5.160488 1.5338-7.270491-.0208-3.197533-2.23441-4.29555-6.54019-3.5622-10.23256.643626-3.60642 3.57312-7.09416 7.497909-6.92338zm328.945314 0c3.4623.19826 6.17554 3.26344 6.83278 6.52872.90177 3.76683-.14882 8.24926-3.41223 10.58408-2.17306 1.58634-5.34199 1.61686-7.48247-.0483-3.1992-2.32923-4.21254-6.73325-3.37258-10.45772.65748-3.08991 2.99886-6.06956 6.262-6.54481.38705-.0619.78121-.0777 1.1725-.062zm-328.871095 79.91016c3.44427.23827 6.117182 3.30333 6.77333 6.55455.885244 3.77428-.180112 8.26823-3.465384 10.58234-2.170399 1.56336-5.316749 1.57219-7.444087-.0783-3.198099-2.32939-4.210532-6.73237-3.370624-10.45577.661099-3.11281 3.040474-6.11241 6.33489-6.55598.388692-.0492.780466-.0669 1.171875-.0469zm328.937505 0c3.48085.23824 6.16409 3.35567 6.79685 6.643.84772 3.75504-.22206 8.20593-3.49084 10.49783-2.17401 1.56793-5.31988 1.55772-7.44922-.0885-3.18061-2.32941-4.19061-6.71136-3.36429-10.42484.65737-3.13483 3.05952-6.16131 6.38054-6.58642.37411-.0468.75041-.0596 1.12696-.041z" fill="#eed9f2" filter="url(#a)"/><path d="m424.30932 284.37902v-54.85101c11.00436-4.11255 18.6338-15.36619 18.6338-27.90569 0-12.5385-7.62944-23.79214-18.6338-27.90567v-24.09245c11.00436-4.11255 18.6338-15.36718 18.6338-27.90568 0-12.53752-7.62944-23.792148-18.6338-27.905683v-23.013353c11.00436-4.113536 18.6338-15.369147 18.6338-27.906669 0-12.53949-7.62944-23.794116-18.6338-27.907652v-58.568899h-18.38782v58.5689c-10.99551 4.113535-18.60234 15.369146-18.60234 27.906668 0 12.53752 7.60585 23.792147 18.60234 27.905682v23.013354c-10.99551 4.113535-18.60234 15.369142-18.60234 27.906672 0 12.53948 7.60585 23.79411 18.60234 27.90764v24.09245c-10.99551 4.11255-18.60234 15.36619-18.60234 27.90568 0 12.53851 7.60585 23.79215 18.60234 27.90568v54.85003zm-328.943126 0v-54.84904c11.003376-4.1155 18.632836-15.36915 18.632836-27.90766 0-12.5385-7.62946-23.79214-18.63382-27.90567v-24.09245c11.00436-4.11255 18.63382-15.36718 18.63382-27.90568 0-12.53752-7.62946-23.792148-18.63382-27.905683v-23.013353c11.00436-4.113536 18.63382-15.369147 18.63382-27.906669 0-12.53949-7.62946-23.794116-18.63382-27.907652v-58.568899h-18.383888v.000984 58.568899c-10.995502 4.112552-18.602323 15.367178-18.602323 27.905684 0 12.537521 7.605837 23.792148 18.602323 27.905683v23.013354c-10.995502 4.113535-18.602323 15.369142-18.602323 27.906672 0 12.53948 7.605837 23.79411 18.602323 27.90764v24.09245c-10.995502 4.11255-18.602323 15.36619-18.602323 27.90568 0 12.53851 7.605837 23.79215 18.602323 27.90568v54.85003zm-9.190959-252.655173c4.842941 0 9.439895 4.458136 9.439895 11.167984 0 6.707879-4.597938 11.167984-9.439895 11.167984-4.840972 0-9.409394-4.460105-9.409394-11.168969 0-6.710833 4.567438-11.169953 9.410378-11.169953zm328.942135 0c4.84294 0 9.4399 4.458136 9.4399 11.167984 0 6.707879-4.59794 11.167984-9.4399 11.167984-4.84097 0-9.40841-4.460105-9.40841-11.168969 0-6.710833 4.56547-11.169953 9.40841-11.169953zm-328.942135 78.824723c4.842941 0 9.439895 4.4601 9.439895 11.16995 0 6.71083-4.597938 11.16996-9.439895 11.16996-4.840972 0-9.409394-4.46012-9.409394-11.16897 0-6.70788 4.567438-11.16799 9.410378-11.16799zm328.942135 0c4.84294 0 9.4399 4.4601 9.4399 11.16995 0 6.71083-4.59794 11.16996-9.4399 11.16996-4.84097 0-9.40841-4.46012-9.40841-11.16897 0-6.70788 4.56547-11.16799 9.40841-11.16799zm-328.942135 79.90775c4.842941 0 9.439895 4.4601 9.439895 11.16896s-4.597938 11.16798-9.439895 11.16798c-4.840972 0-9.409394-4.45813-9.409394-11.16798 0-6.70886 4.567438-11.16798 9.410378-11.16798zm328.942135 0c4.84294 0 9.4399 4.4601 9.4399 11.16896s-4.59794 11.16798-9.4399 11.16798c-4.84097 0-9.40841-4.45813-9.40841-11.16798 0-6.70886 4.56547-11.16798 9.40841-11.16798z" fill="#6a1f7a"/><path d="m450.08984 224.14648-130.28125 33.23438-69.82226 8.85547-68.79883-8.61328-131.285156-33.45313-48.2109378 135.57617c-3.4885774 13.45626-1.11324208 26.60518 4.765625 35.57032 5.8788668 8.96514 15.1746698 14.77698 25.3632808 17.3164 10.188613 2.53943 20.958513 1.72939 30.779297-3.21875 9.172899-4.61921 17.980209-14.49772 21.341797-26.47656l22.837894-58.86133 41.04882 11.36914 25.2461 136.28711 3.9414 17.70899c4.01492 1.22613 8.05038 2.38321 12.125 3.40625l.25782-1.01954c5.13609 1.28926 10.31183 2.41437 15.51953 3.375l-.19141 1.03516c10.45529 1.92575 21.02338 3.18186 31.63867 3.76172l.06446-1.1582c4.51399.44645 9.03871.77039 13.57031.9707 9.59789-.13267 19.18013-.81857 28.69922-2.05273l.11133.94726c5.28469-.6134 10.54841-1.39434 15.7832-2.34375l-.18555-1.01367c9.73602-1.70781 19.34624-4.04775 28.81055-6.89453l3.70313-16.73438 25.25-136.27539 41.04492-11.37109 22.77148 58.67969c3.42556 12.12503 12.18588 22.02861 21.375 26.6582 9.84685 4.96213 20.6125 5.75971 30.86719 3.20703h.00391.00195c10.13335-2.52531 19.42698-8.33741 25.51758-17.625 5.68535-8.66614 8.06568-21.86481 4.50976-35.4043z" fill="#6a1f7a"/><path d="m438.63867 245.65039-14.33008 3.66406-18.38671 4.67578-82.74219 21.10743-73.17969 9.28125-72.16797-9.03711-83.05078-21.16797-17.800781-4.55274-15.619141-3.96875-42.371094 119.04102c-.0098.0335-.021427.0593-.029296.0918-2.381128 9.13287-.872681 15.44359 2.335937 20.33789 3.221409 4.913 8.6284 8.48744 14.820313 10.03125 6.190928 1.54282 12.932758.93251 18.386718-1.81641 5.454945-2.74696 9.894544-7.35433 12.238282-15.66016l.123046-.43164.152344-.40039 25.857422-66.70312 3.013672-7.75391 8.025388 2.21485 53.99414 14.95507 5.56446 1.53711 1.04492 5.63086 26.19726 141.41016 5.60743 25.19726c2.86344.6331 5.71136 1.33708 8.5957 1.86914l-.19141 1.03516c10.45529 1.92575 21.02338 3.18186 31.63867 3.76172l.06446-1.1582c4.51399.44645 9.03871.77039 13.57031.9707 9.59789-.13267 19.18013-.81857 28.69922-2.05273l.11133.94726c5.28469-.6134 10.54841-1.39434 15.7832-2.34375l-.18555-1.01367c3.11363-.54617 6.18994-1.27009 9.2793-1.93359l5.5918-25.2793 26.20117-141.41211 1.04297-5.63086 5.56836-1.53711 53.99414-14.95508 8.02344-2.21484 3.01171 7.7539 25.86133 66.70508.15235.40039.12304.42969c2.34375 8.3068 6.75209 12.91417 12.20703 15.66211 5.45495 2.74892 12.2241 3.35628 18.41797 1.81445 6.19094-1.54282 11.59795-5.11823 14.81836-10.03125 3.2106-4.8933 4.72-11.20305 2.33789-20.33593l-.02929-.09375z" fill="#eed9f2" stroke-width="36"/><g stroke-width=".784819" transform="matrix(1.2945124 0 0 1.2541638 -73.737518 -120.86151)"><path d="m315.07222 222.04107-6.57618-43.64844c-7.77703 15.14233-15.4104 30.36286-23.00781 45.59961-9.86409-8.62828-22.08728-13.40246-34.4375-13.42578-12.35694-.0233-24.61633 4.73152-34.50195 13.38281-7.43687-15.30862-15.28097-30.40479-22.98042-45.57427l-6.58008 43.66602c-1.76493 19.39491-7.40553 43.3156-4.35547 61.74023 2.90006 16.22868 10.39301 29.28342 22.27539 34.3418 3.75528 7.81059 8.10846 15.56175 13.29297 23.16797 2.82405 4.14317 5.69048 9.1066 10.19922 14.06445s12.10007 10.27928 21.30664 10.4707c9.81692.2041 17.78964-5.0183 22.90625-10.11914s8.57876-10.54086 11.5957-14.95312c5.1528-7.53598 9.39928-15.09758 13.05079-22.6875 11.82736-5.09964 19.27641-18.10258 22.16696-34.28611 1.74236-22.09505-1.14488-39.96081-4.35451-61.73923z" fill="#6a1f7a"/><path d="m196.53997 281.29512c2.90094 16.23584 11.15798 24.50545 18.28582 25.02392 3.68182 8.83248 8.86272 17.93998 15.0483 27.01487 6.18557 9.07488 11.0451 18.18014 20.12591 18.36895 9.81013.20396 16.37788-9.89905 22.54836-18.92336 6.17047-9.02432 11.20227-17.89789 14.76592-26.46911 7.1085-.57844 15.31682-8.84402 18.206-25.01527 2.27443-12.72678-4.41803-57.14957-4.41803-57.14957s-6.59022 12.97535-13.00629 26.90778c-15.14016-35.03782-59.00504-35.25265-74.13984-.008-6.4151-13.9304-12.99813-26.89931-12.99813-26.89931s-6.6925 44.42203-4.41802 57.1491z" fill="#eed9f2" stroke-width="28.2535"/><path d="m224.72215 257.71273c6.99565-.002 12.56406 4.12181 16.88205 11.86746-8.32466 4.93472-15.46858-.35468-21.96126-11.20108 1.76843-.44608 3.46541-.6661 5.07947-.6661zm52.34493 0c1.61431 0 3.30314.22001 5.07183.6661-6.49321 10.84697-13.62895 16.13608-21.95362 11.20136 4.31773-7.74536 9.88588-11.86891 16.88179-11.86775zm-40.35121 21.48284 7.93475 24.39328 6.79405-24.39357 6.914 24.76266 7.71937-23.77184 6.49906 24.42989 7.9031-22.45636c5.22802 12.4788-4.02026 28.60371-11.56483 39.2243l-4.80661-12.86672-6.58078 28.99703-5.12611-24.38298-7.78425 22.07581-6.26838-28.61054-5.75775 16.76095c-10.45546-15.87337-13.54932-32.303-8.32543-46.41738l6.47693 24.38656 5.97262-22.13167z" fill="#6a1f7a"/></g></svg>