<svg height="500.00003" viewBox="0 0 500 500.00003" width="500" xmlns="http://www.w3.org/2000/svg" xmlns:xlink="http://www.w3.org/1999/xlink"><filter id="a" color-interpolation-filters="sRGB" height="1.076501" width="1.128857" x="-.064428" y="-.038251"><feGaussianBlur stdDeviation="7.4443571"/></filter><filter id="b" color-interpolation-filters="sRGB" height="1.063876" width="1.026541" x="-.01327" y="-.031938"><feGaussianBlur stdDeviation="2.6896335"/></filter><g transform="translate(-500)"><path d="m926.7767 73.223311c45.24113 45.241099 73.2233 107.741109 73.2233 176.776699 0 69.0356-27.98221 131.53559-73.2233 176.77669-45.2411 45.2411-107.74109 73.22332-176.77669 73.22332-69.03559 0-131.5356-27.98219-176.7767-73.22332-45.2411-45.2411-73.22331-107.74109-73.22331-176.77669 0-69.03559 27.9822-131.5356 73.22331-176.776699 45.2411-45.241105 107.74111-73.22330934 176.7767-73.22330934 69.0356 0 131.53559 27.98220534 176.77669 73.22330934z" fill="#3b2f4f"/><g transform="translate(500)"><path d="m230.6486 0c-128.19182 22.346591-234.17086 139.43202-223.06447 273.24395 5.6201 44.55936 16.72649 83.63245 44.55937 122.70552l50.17947 50.17947c33.45298 22.34661 72.52606 44.55938 111.46533 50.17946 39.07308 5.62012 78.01235 5.62012 111.46534-5.62008 39.07308-16.72649 72.52607-33.45297 100.35893-61.28587 33.45297-39.07306 55.79958-83.63245 66.90595-139.43201v-61.28587c-5.62008-27.83287-11.10637-50.17947-22.34657-78.01235-11.10641-22.34659-27.8329-44.55937-50.17947-61.285858-27.83289-27.832879-61.28586-44.559368-100.35895-55.799569-27.83288-5.620101-55.79957-11.10639-89.25255-5.620101-78.01235 11.106391-139.43202 61.28586-172.885 128.191818-11.10639 27.83288-16.72649 61.28586-22.34659 89.25255 0 33.45298 5.6201 66.90596 16.72649 94.73885 22.34659 44.55936 55.79957 89.25254 105.97904 111.46532 16.72649 5.62012 33.45298 11.1064 55.79957 16.72648 122.70553 22.34661 234.17085-55.79954 250.89734-178.37127 11.10641-78.01236-22.34657-139.43203-72.52604-189.6115-100.35895-89.25255-267.62385-44.559369-312.18322 78.01235-5.6201 27.83288-16.72649 55.79958-16.72649 83.63245 5.6201 78.01235 55.79957 150.53843 133.81192 172.885 61.28586 16.72649 122.70553 5.62012 172.885-33.45298 11.10639-11.10637 22.34659-22.34657 33.45299-33.45297 61.28584-83.63246 44.55935-195.09778-44.55937-256.51746-27.83288-16.726488-55.79958-22.346588-89.25256-27.832879-22.34659-5.620101-44.55937 5.620101-66.90596 11.106391-27.83288 16.726488-50.17947 22.346588-72.52606 50.179468-27.83288 33.45298-33.45298 66.90596-39.07308 105.97904 0 55.79958 27.83288 117.08544 83.63245 144.91833 78.01235 44.55934 183.99139 11.10637 223.06447-72.52607 22.3466-55.79958 11.1064-128.19183-39.07308-172.88501-33.45298-27.83288-66.90596-39.07308-111.46533-39.07308-66.90596 5.6201-111.46533 55.79957-122.70553 122.70553-11.10639 72.52606 33.45298 139.43202 105.97904 150.53843 100.35894 16.72649 183.99138-89.25257 139.43202-178.37131-11.10638-16.72649-27.83288-39.07308-50.17947-50.17947-27.83288-11.10639-55.79957-16.72649-83.63245-11.10639-33.45298 5.6201-55.79957 27.83288-72.52606 50.17947-16.72649 27.83288-16.72649 55.79957-11.10639 83.63245 11.10639 33.45298 39.07308 61.28586 72.52606 72.52607 44.55937 16.72649 89.25255-5.62011 111.46533-39.07309 33.45298-55.79957 5.6201-117.08543-50.17947-139.43202-50.17947-16.72649-122.70553 27.83288-105.97904 89.25255 5.6201 16.72649 11.10639 39.07309 27.83288 50.17947 22.34659 16.7265 50.17947 16.7265 72.52606 11.1064 22.34659-11.1064 39.07308-33.45299 39.07308-61.28587-5.6201-16.72649-5.6201-39.07308-22.34659-50.17947-13.91644-8.36324-29.2379-11.13984-43.17107-8.34651-13.93317 2.79332-26.47803 11.15656-34.84128 25.073-5.6201 16.72649-11.10639 33.45298 9.50065 44.827 41.74932-49.10898 35.32635.40143 29.84006-16.45887v5.6201c16.72649-5.6201 22.34659-22.34659 27.83288-33.45298 5.6201 5.6201 16.72649 11.10639 16.72649 22.34659 11.10639 39.07308-27.83288 72.52606-66.90596 61.28586-33.45298-11.10639-44.55937-50.17947-39.07309-83.63245 5.62011-22.34659 22.3466-39.07308 50.17948-44.55937 33.45298-5.6201 66.90596 11.10639 83.63245 39.07308 16.72649 27.83288 16.72649 50.17947 0 78.01235-33.45298 55.79958-105.97905 55.79958-150.53841 11.10639-33.45298-44.55937-22.3466-117.08543 27.83288-144.91831 16.72648-11.10639 39.07308-16.72649 61.28586-16.72649 11.10638 0 27.83288 5.6201 39.07308 11.10639 27.83288 11.10639 39.07308 39.07308 55.79957 61.28586 5.6201 16.72649 5.6201 27.83288 5.6201 44.55937-5.6201 72.52606-72.52606 122.70554-144.91831 105.97904-83.63246-22.34659-122.70554-122.70553-72.52606-195.09778 11.10638-16.72649 22.34659-27.83288 39.07308-39.07308 78.01235-44.559372 167.2649-5.6201 200.71788 66.90596 39.07309 94.73884-39.07308 206.33797-139.43202 200.71788-27.83288-5.62012-55.79958-5.62012-78.01235-22.3466-22.34659-11.10638-27.83288-27.83287-39.07309-39.07307-66.90596-78.01235-33.45298-195.09778 55.79958-239.79097 39.07308-16.726484 83.63245-16.726484 128.19182-5.6201 94.73883 33.45298 139.43201 144.91832 94.73883 234.17087-11.10637 27.83288-33.45297 44.55935-55.79956 66.90596-22.34659 16.72649-50.17947 27.83289-78.01235 33.45298-44.55937 5.62012-89.25256-5.62009-128.19182-27.83286-94.73884-66.90598-117.08544-211.82429-22.3466-289.97045 16.7265-11.1064 27.83288-33.452984 50.17948-39.073085 33.45298-11.106392 66.90596-22.346593 105.97904-16.726492 27.83288 5.6201 55.79957 16.726492 78.01235 27.832879 16.72649 16.726488 39.07309 22.346598 50.17946 44.559368 11.10641 16.72649 27.8329 33.45298 33.45298 55.79957 22.34661 66.90596 16.72649 139.43203-27.83286 195.09781-16.72649 22.34657-33.45298 44.55934-61.28587 55.79954-22.34659 5.62012-39.07308 22.34661-61.28586 22.34661-39.07308 0-83.63245 5.62008-122.70553-11.10641-117.08543-44.55934-167.26491-195.09777-105.97905-306.69691 16.7265-33.45298 44.55937-61.285864 78.01236-83.632457 44.55936-22.34659 89.25255-33.452979 139.43202-27.832879 61.28586 5.6201 111.46532 39.07308 156.1585 83.632456 22.34661 22.34659 27.8329 50.17947 39.0731 78.01234 11.10637 16.7265 5.62008 39.07309 11.10637 61.28586 11.10645 172.88502-195.09777 301.07685-351.25629 211.82429-27.83287-16.72649-50.17946-27.8329-66.90596-50.17947-61.28586-72.52608-78.01235-167.26492-50.17947-256.51747 16.72649-33.45298 39.07309-61.28586 61.28587-89.252546 39.07308-39.073083 94.73884-55.799574 144.9183-72.526064" fill="#221b35" opacity=".9"/><path d="m231.45148 15.388371c-120.56454 21.008472-220.12061 131.001869-209.68329 256.785079 5.21867 41.88313 15.78981 78.68141 41.88314 115.34586 15.7898 15.65602 31.4458 31.44582 47.23561 47.1018 31.4458 21.0085 68.11026 41.88314 104.77473 47.23563 36.66447 5.21866 73.32893 5.21866 104.77473-5.21866 36.66447-15.65601 68.11026-31.44582 94.33742-57.67295 31.44579-36.66448 52.45425-78.68141 62.89161-131.00187v-57.67294c-5.2187-26.22714-10.43736-47.23561-21.00851-73.32894-10.43731-21.00847-26.22712-41.88313-47.10179-57.672935-26.22713-26.227136-57.67292-41.88313-94.33739-52.454272-26.22714-5.218666-52.45427-10.43733-83.90008-5.218666-73.32893 10.437332-131.00187 57.672938-162.44767 120.564543-10.43733 26.22713-15.78981 57.67294-21.00847 83.90008 0 31.44579 5.21866 62.8916 15.78981 89.11874 21.00847 41.88313 52.45427 83.90006 99.55607 104.77473 15.7898 5.21866 31.4458 10.43732 52.45427 15.65601 115.34588 21.00847 220.12062-52.45428 235.91043-167.66635 10.43732-73.32894-21.00847-131.00188-68.11026-178.23748-94.33742-83.900079-251.56643-41.883137-293.44956 73.32893-5.21867 26.22713-15.78981 52.45427-15.78981 78.68141 5.21866 73.32893 52.45427 141.573 125.78321 162.44767 57.67293 15.78981 115.34587 5.21866 162.44767-31.44578 10.43733-10.43736 21.00849-21.00849 31.4458-31.44582 57.67295-78.68141 41.88314-183.45615-41.88313-241.12909-26.22714-15.7898-52.45428-21.008465-83.90008-26.227131-21.00847-5.218666-41.88313 5.218666-62.8916 10.437331-26.22714 15.7898-47.23561 21.00847-68.11027 47.1018-26.22713 31.4458-31.4458 62.8916-36.66447 99.55606 0 52.45428 26.22714 110.12722 78.68142 136.22052 73.32893 41.88314 173.01881 10.43736 209.68327-68.11025 21.00847-52.45427 10.43736-120.56454-36.66446-162.44767-31.4458-26.22714-62.8916-36.66447-104.77473-36.66447-62.89161 5.21867-104.77474 52.45428-115.34588 115.34588-10.43733 68.11027 31.4458 131.00187 99.55607 141.57302 94.3374 15.65599 173.01881-83.90008 131.00187-167.66635-10.43733-15.7898-26.22714-36.66446-47.1018-47.2356-26.22713-10.43733-52.45427-15.656-78.68141-10.43733-31.4458 5.21866-52.45427 26.22713-68.11027 47.23561-15.7898 26.22713-15.7898 52.45427-10.43732 78.6814 10.43732 31.44581 36.66446 57.67295 68.11026 68.11027 41.88314 15.78981 83.90008-5.21866 104.77474-36.66446 31.4458-52.45428 5.21866-110.12721-47.1018-131.00187-47.23561-15.78981-115.34588 26.22713-99.55607 83.90007 5.21867 15.65599 10.43733 36.66447 26.22714 47.23561 21.00847 15.78981 47.10179 15.78981 68.11027 10.43733 21.00847-10.43733 36.66446-31.4458 36.66446-57.67294-5.21866-15.7898-5.21866-36.66447-21.00847-47.23561-13.11356-7.8949-27.5318-10.50423-40.62864-7.86145-13.09684 2.64279-24.87229 10.53769-32.70029 23.65126-5.21867 15.656-10.43733 31.4458 8.9654 42.15076 39.20689-46.70036 33.05154-.26763 27.96669-16.05744v5.21867c15.78981-5.21867 21.00847-21.00847 26.22714-31.4458 5.21866 5.21866 15.65599 10.43733 15.65599 21.00847 10.43733 36.66447-26.22714 68.11027-62.8916 57.67294-31.4458-10.43733-41.88313-47.23561-36.66447-78.68141 5.21867-21.00848 21.00847-36.66447 47.1018-41.88314 31.4458-5.21866 62.8916 10.43734 78.68141 36.66447 15.65599 26.22714 15.65599 47.23561 0 73.32893-31.4458 52.45428-99.55607 52.45428-141.57302 10.43734-31.4458-41.88313-21.00847-110.12722 26.22714-136.22054 15.78981-10.43733 36.66447-15.656 57.67294-15.656 10.43733 0 26.22714 5.21867 36.66447 10.43733 26.22713 10.43733 36.66446 36.66447 52.45427 57.67294 5.21866 15.78981 5.21866 26.22714 5.21866 41.88314-5.21866 68.11026-68.11026 115.34586-136.22053 99.55606-78.68141-21.00847-115.34588-115.34587-68.11027-183.45614 10.43733-15.656 21.00847-26.22714 36.66447-36.66447 73.32893-41.88313 157.22901-5.21866 188.67481 62.8916 36.66448 89.11874-36.66447 193.89349-131.00188 188.67483-26.22713-5.21866-52.45427-5.21866-73.32893-21.00848-21.00847-10.43734-26.22713-26.22714-36.66447-36.66447-62.8916-73.32893-31.4458-183.45615 52.45428-225.33928 36.66446-15.789805 78.68141-15.789805 120.56454-5.21866 89.11872 31.4458 131.00186 136.22053 89.11872 220.12061-10.43731 26.22714-31.44578 41.88313-52.45425 62.89162-21.00847 15.78977-47.23561 26.22712-73.32894 31.44578-41.88313 5.21866-83.90007-5.21866-120.56454-26.22712-89.11874-62.89162-110.12721-199.11215-21.00847-272.5749 15.656-10.43733 26.22714-31.445801 47.1018-36.664467 31.4458-10.437328 62.8916-21.00847 99.55607-15.655994 26.22713 5.218666 52.45427 15.655994 73.32893 26.227136 15.65599 15.789805 36.66446 21.008475 47.10181 41.883135 10.43732 15.7898 26.22713 31.4458 31.44578 52.45427 21.00847 62.8916 15.78981 131.00187-26.22712 183.45615-15.78981 21.00846-31.44582 41.88313-57.67295 52.45428-21.00847 5.21866-36.66446 21.00847-57.67294 21.00847-36.66446 0-78.68141 5.21866-115.34587-10.43735-110.12721-41.8831-157.22901-183.45614-99.55607-288.23087 15.7898-31.4458 41.88313-57.672937 73.32893-78.681407 41.88313-21.008474 83.90008-31.445802 131.00187-26.22714 57.67294 5.218666 104.77473 36.664468 146.79166 78.681417 21.00851 21.00847 26.22717 47.10179 36.66448 73.32893 10.43732 15.78981 5.21866 36.66446 10.43732 57.67293 10.43735 162.44767-183.45613 283.01222-330.24781 199.11215-26.22713-15.65601-47.23561-26.22713-62.8916-47.23563-57.67294-68.11025-73.32893-157.22899-47.23561-241.12907 15.78981-31.4458 36.66447-57.67293 57.67294-83.900069 36.66447-36.664468 89.11874-52.454275 136.22054-68.11027" opacity=".9"/></g></g><path d="m265.48242 17.007812c-39.79829 4.366026-65.49888 49.360376-58.52734 86.917968-28.11562 6.84923-39.8761 36.89307-49.90107 60.92863-10.79534 26.53468-14.38526 55.80273-27.80089 81.23425-21.03332 12.01051-21.42907 44.38325-12.88321 63.99415 15.03697 20.41673 46.85975 14.2206 61.85079-3.09062-2.48887 34.87523-2.89999 69.87166-1.58008 104.80664-13.65577 21.87302-17.69759 51.42287 8.74807 65.4962 20.16346 11.51278 43.40448 7.38291 47.84111-16.88664 4.75315-20.70885 24.71667-26.75349 31.53711-3.85859 6.19268 18.29674 16.29015 33.42004 37.80369 25.071 18.18364-2.58616 31.75032-20.46385 33.32416-37.70787-11.08687-20.73764-14.3364-42.75962-11.81965-65.93455.22546-23.75506-.60214-47.51519-2.50281-71.19518 15.59751 18.89508 51.10905 23.7625 64.37945-.12359 3.74658-17.68577 5.0345-42.66507-9.04314-56.21864-15.0507-11.86873-17.27254-34.41566-23.48945-52.03001-8.22295-30.92998-18.76507-63.84435-42.76786-86.25227-21.66038-6.1966 4.04802-26.142122-.0428-42.294488 2.59887-26.463119-16.28989-55.063848-45.12609-52.85639z" fill="#775fa0" filter="url(#a)" opacity=".95" stroke-width="1.00594" transform="matrix(-.99423619 0 0 .99395567 502.55905 1.08092)"/><g fill="#775fa0" filter="url(#b)" opacity=".95" stroke-width="1.00594" transform="matrix(-.99423619 0 0 .99395567 989.16107 -122.95769)"><path id="c" d="m710.02227 325.07283c-27.86297-27.48223-38.15799-61.42596-27.17658-86.26521 8.71266-19.70909 5.22636-36.84699-16.04603-39.15824-60.08798-6.53127-111.7345-36.16577-167.509-74.01886l-.00056.00089c4.86766 46.93807 84.81351 90.75622 144.48252 106.61915-38.44519-.11741-95.21087-5.12725-137.40161-19.06439 17.26953 37.56694 80.27755 48.50492 137.63839 53.90483-43.2783 11.72738-81.98358 17.07962-129.61208 15.25592 23.17686 28.06791 85.34954 27.57983 137.96568 18.95335-29.27159 15.65387-62.39935 25.63503-97.12798 30.81678 25.92289 15.11068 64.42736 11.94953 101.98253-2.36358 11.37837-4.33621 22.05366 3.77933 31.02311 16.31432" fill="#775fa0" stroke-width=".905345"/><use fill="#775fa0" stroke-width="1.00594" transform="matrix(-1 0 0 1 1486.8923 .000007)" xlink:href="#c"/></g><path d="m254 104.91823c14.70907 0 33.04321 4.31081 43.39103 8.02445 11.68073 2.90243 18.02571 11.07684 23.54321 18.89777 5.51748 7.82093 9.67316 16.26488 13.57754 24.86248 4.84796 10.67543 12.15025 33.00825 12.15025 33.00825 5.44041 22.1546 11.82524 42.23128 20.28864 60.67013 4.86906 3.64079 10.28128 6.58657 13.4921 11.14123 3.63484 7.02391.44754 13.33274 1.30493 19.93735.60136 4.63244 3.13536 9.17028 2.6856 13.75426-2.0231 9.60586-8.35287 16.19617-17.52924 18.12416-12.84527 2.84758-23.65418-2.35724-31.09512-8.42728-7.48067-6.10243-13.5824-12.93737-14.67081-25.09349-1.55749-1.67879-5.95935-9.59333-8.72675-13.78531 4.34078 17.4773 4.66961 36.74577 5.82948 54.59185 2.07662 30.9733 1.63389 64.54872.70685 91.16242l12.76778 32.70931c-3.03023 8.05211-7.54794 16.56635-12.85517 21.23804-11.81132 8.22983-19.30872 7.53299-32.48356 7.10328l-4.66048-9.91432s-9.63776-19.44228-13.17557-24.46257c-4.76603-3.76092-11.08184-8.51134-14.54071-13.68437 6.06476-2.74326-18.2393 19.21737-14.5407 13.68437-3.53782 5.02031-13.17557 24.46257-13.17557 24.46257l-4.66048 9.91432c-11.34696.92302-24.33882-.31888-32.48357-7.10328-6.80631-6.13653-9.57227-13.19605-12.85516-21.23804l12.76778-32.70931c-.92705-26.6137-1.36977-60.18912.70684-91.16242 1.70844-19.90485 1.69329-37.27135 5.82949-54.59185-3.2112 3.20068-8.99746 16.9765-8.72675 13.78531-1.0884 12.15614-7.19015 18.99106-14.67081 25.09349-7.44095 6.07004-18.24985 11.27486-31.09513 8.42728-8.83253-1.94937-16.32855-8.9452-17.52924-18.12416-.83391-4.96487 2.08425-9.12182 2.6856-13.75426.85745-6.60525-2.51186-14.31984 1.30494-19.93929 3.40907-5.14052 8.90763-7.4213 13.49209-11.13929 6.57336-15.33032 12.6901-30.34588 17.08455-46.85763 3.58402-16.97715 8.83176-31.7464 15.35435-46.82075 3.74977-8.6661 8.06005-17.04155 13.57754-24.86248 5.5175-7.82093 11.86248-15.99534 23.54321-18.89777 10.3478-3.71369 28.68195-8.02445 43.39102-8.02445zm0 220.43296c-1.32932 3.79061-2.61492 7.55181-3.2934 10.45595-3.19025 13.6552-3.60154 32.33949-4.43523 48.65723 2.95486 2.68567 5.65827 5.81883 7.72863 9.5746 2.07036-3.75577 4.77378-6.88893 7.72864-9.5746-.8337-16.31774-1.24497-35.00203-4.43523-48.65723-.67849-2.90414-1.96408-6.66534-3.29341-10.45595z"/><path d="m292.21111 130.048c19.66701 4.95523 37.12226 64.08119 37.12226 64.08119s2.01145 9.32329 3.22136 13.93473c1.16058 4.4234 3.87047 13.16245 3.87047 13.16245s11.86334 33.8645 16.15179 40.13773c3.5922 5.25579 13.85245 8.70176 13.50511 11.43062-7.69791 13.11066 6.85269 21.06834-2.95558 23.06976-11.18645 2.55073-23.43468-9.50935-24.16291-17.64273-1.20905-13.48957-32.15025-41.54913-27.66507-64.91499-12.11231-6.39933-19.34809-31.03941-23.65323-38.85347 0 0-4.17885 40.89755-1.88496 61.16737 1.5716 13.88729 8.23522 26.79255 10.62443 40.56315 2.6106 15.04659 3.15174 32.99742 3.99919 45.63756 2.0966 31.27139 1.60687 66.44714.60641 93.17346l11.45696 29.35211c-2.44671 5.99287-6.73541 11.22003-14.535 10.96604 0 0-8.80748-18.73627-14.74184-27.15735-4.42389-6.27769-15.19692-10.34487-15.37394-17.16591-.18804-7.24773 6.05412-14.19497 12.2963-17.95533-1.24848-15.86892-.70484-41.32194-5.37132-61.29585-4.22322-18.07667-16.7771-44.95123-20.72154-51.89662-3.94443 6.94539-16.49831 33.81995-20.72153 51.89662-4.66648 19.97391-4.12284 45.42693-5.37131 61.29585 6.24217 3.76036 12.48432 10.7076 12.29628 17.95533-.17701 6.82104-10.95004 10.88822-15.37394 17.16591-5.93435 8.42108-14.74184 27.15735-14.74184 27.15735-7.79958.25399-12.08828-4.97317-14.535-10.96604l11.45697-29.35211c-1.00045-26.72632-1.49018-61.90207.60641-93.17346.84746-12.64014 1.38858-30.59097 3.99919-45.63756 2.38922-13.7706 9.05284-26.67586 10.62443-40.56315 2.2939-20.26982-1.88496-61.16737-1.88496-61.16737-4.30514 7.81406-11.54091 32.45414-23.65323 38.85347 4.48518 23.36586-26.45601 51.42542-27.66507 64.91499-.72822 8.13338-12.97646 20.19346-24.16291 17.64273-9.80827-2.00142 4.74233-9.9591-2.95558-23.06976-.34734-2.72886 9.91291-6.17483 13.50511-11.43062 4.28845-6.27323 16.1518-40.13773 16.1518-40.13773s2.70988-8.73905 3.87046-13.16245c1.20992-4.61144 3.22136-13.93473 3.22136-13.93473s17.45525-59.12596 37.12225-64.08119c9.31044-3.30328 25.24674-7.2393 38.21111-7.2393 12.96438 0 28.90068 3.93602 38.21111 7.2393z" fill="#775fa0" stroke-width="36.0001"/><path d="m267.99414 34.552085c7.42192 6.717285 14.10525 18.375428 17.55666 32.311858 3.4514 13.93643 2.98498 27.373582-1.25688 39.094367-4.11217 11.36558-12.82371 21.75353-25.17304 24.86341l-.002.002-.002-.00039c-12.35457 3.10813-24.98812-1.95846-33.94965-10.07061-9.24271-8.36666-15.92625-20.0245-19.37835-33.961646-3.45182-13.936165-2.9834-27.37253 1.19359-38.916135 4.17699-11.543602 12.89036-21.930968 25.23832-25.039348 4.626-1.165394 9.52908-1.244198 15.63948-.06508 6.1104 1.179109 12.71225 5.064735 20.13416 11.78202z"/><path d="m242.95061 40.043283c3.65071.703622 7.4568 2.723028 11.21141 6.121129 6.00634 5.437044 11.3633 14.285 14.01705 24.999056 2.65445 10.714195 2.05249 21.06245-.71409 28.706852-2.76586 7.64455-7.29648 12.2372-12.71745 13.60234-5.42071 1.36373-11.5623-.54487-17.56864-5.98192s-11.36401-14.285145-14.01776-24.999199c-2.65375-10.714056-2.05178-21.062309.71408-28.706857 2.76657-7.644406 7.29845-12.236066 12.71915-13.599803 2.03244-.512014 4.16645-.564672 6.35625-.141598z" fill="#775fa0" stroke-width="36.0001"/></svg>