<svg height="500.0004" viewBox="0 0 500 500.0004" width="500" xmlns="http://www.w3.org/2000/svg" xmlns:xlink="http://www.w3.org/1999/xlink"><filter id="a" color-interpolation-filters="sRGB" height="1.10295" width="1.036598" x="-.018299" y="-.051475"><feGaussianBlur stdDeviation="2.5004571"/></filter><filter id="b" color-interpolation-filters="sRGB" height="1.169811" width="1.16988" x="-.08494" y="-.084906"><feGaussianBlur stdDeviation="1.9984989"/></filter><filter id="c" color-interpolation-filters="sRGB" height="1.239533" width="1.238963" x="-.119482" y="-.119766"><feGaussianBlur stdDeviation="1.9984989"/></filter><g transform="translate(-500 -500)"><path d="m999.99997 750a249.99997 250 0 0 1 -249.99997 250 249.99997 250 0 0 1 -249.99997-250 249.99997 250 0 0 1 249.99997-250 249.99997 250 0 0 1 249.99997 250z" fill="#ffe24c"/><path d="m1000 750.00632-194.05817-2.60063 192.98367-20.4591-193.45987 15.31075 190.28547-38.19139-191.22567 33.10816 185.92267-55.58184-187.34707 50.61663 180.01317-72.50831-181.88127 67.68555 172.56127-88.82024-174.86477 84.18876 163.62798-104.35075-166.35478 99.94311 153.30278-119.00625-156.40808 114.88758 141.65488-132.65651-145.14668 128.82271 128.82258-145.14278-132.65648 141.65492 114.88758-156.42029-119.00218 153.31093 99.94719-166.3385-104.34669 163.60764 84.17649-174.84041-88.81609 172.54909 67.67739-181.89345-72.48799 180.02133 50.6167-187.35925-55.5941 185.94294 33.1-191.23373-38.1995 190.27732 15.3474-193.45586-20.4957 192.97968-2.59249-194.05413-2.5681 194.05413-20.4916-192.97968 15.327 193.45586-38.2004-190.27732 33.1171 191.23373-55.5936-185.94294 50.6162 187.35925-72.51029-180.02133 67.69979 181.89345-88.81699-172.54909 84.17729 174.84041-104.36289-163.60764 99.96869 166.3385-119.00618-153.31093 114.86968 156.42029-132.64018-141.65492 128.81968 145.14278-145.14988-128.82271 141.67318 132.65651-156.42638-114.88758 153.29788 119.00625-166.34218-99.94311 163.62828 104.35075-174.86477-84.18876 172.54667 88.82024-181.87387-67.68555 180.00617 72.50831-187.35587-50.61663 185.94077 55.58184-191.21897-33.10816 190.28097 38.19139-193.47947-15.31075 192.98647 20.4591-194.04384 2.60063 194.04384 2.58435-192.98647 20.46723 193.47947-15.31481-190.28097 38.20361 191.21897-33.12445-185.94077 55.58997 187.35587-50.60849-180.00617 72.5083 181.87387-67.68553-172.54667 88.81211 174.86477-84.17656-163.62828 104.33851 166.34218-99.95936-153.29788 119.0103 156.42638-114.87941-141.67318 132.66054 145.14988-128.83082-128.81968 145.13868 132.64018-141.66304-114.86968 156.42028 119.00618-153.28243-99.96869 166.32222 104.36289-163.59543-84.17729 174.84852 88.81699-172.55719-67.69979 181.8975 72.51029-180.02538-50.6162 187.35108 55.5936-185.93884-33.1171 191.21336 38.2004-190.26101-15.327 193.47618 20.4916-192.99594 2.5681 194.05003 2.59249-194.05003 20.4957 192.99594-15.3474-193.47618 38.1995 190.26101-33.1-191.21336 55.5941 185.93884-50.6167-187.35108 72.48799 180.02538-67.67739-181.8975 88.81609 172.55719-84.17649-174.84852 104.34669 163.59543-99.94719-166.32222 119.00218 153.28243-114.88758-156.42028 132.65648 141.66304-128.82258-145.13868 145.14668 128.83082-141.65488-132.66054 156.40808 114.87941-153.30278-119.0103 166.35478 99.95936-163.62798-104.33851 174.86477 84.17656-172.56127-88.81211 181.88127 67.68553-180.01317-72.5083 187.34707 50.60849-185.92267-55.58997 191.22567 33.12445-190.28547-38.20361 193.45987 15.31481-192.98367-20.46723z" fill="#fffbb3" fill-rule="evenodd"/></g><g opacity=".75" stroke-width="1.73822" transform="matrix(-.5717682 .11093243 .11193661 .55714028 316.69853 19.990973)"><g fill="#f2c80d" stroke-width="1.87088"><path d="m80.558594 41.263672c-2.382795-.0035-5.067567.964907-6.097656 3.277344-1.049172 2.219531-.148116 4.81164 1.352638 6.588402 2.792328 3.317793 6.331047 5.898402 9.813377 8.440894 3.662762 2.711085 7.600893 5.01257 11.420282 7.490644 29.039955 18.395945 58.091975 36.782644 87.136355 55.175374.30464-11.98435.6066-23.968756.91016-35.953127 38.44903 23.853167 76.89957 47.703897 115.34766 71.558597-1.02341-17.53972-2.04688-35.07943-3.07032-52.61914 24.3515 13.5281 48.70351 27.05531 73.05469 40.58398 7.23085.98832 14.50525 2.10142 21.82422 1.8418 2.89773-.12045 6.08012-.57252 8.23047-2.70899 1.8749-1.98668 1.92111-5.24592.33792-7.41967-1.94891-3.03369-5.02889-5.06143-7.91605-7.10962-7.54837-5.07826-15.70919-9.12707-23.59788-13.62538-33.11062-18.357907-66.22107-36.716137-99.3318-55.073842 1.01457 17.450506 2.0286 34.901043 3.04296 52.351562-35.5392-21.003019-71.07727-42.007951-106.61718-63.009766-.30778 11.978453-.61034 23.95704-.91602 35.935547-22.61909-14.235097-45.23855-28.469626-67.85742-42.705078-5.500665-1.342337-11.032405-2.904958-16.729665-3.023663-.112247.0014-.224494.0028-.336741.0041z" filter="url(#a)" opacity="1"/><path d="m397.06836 113.1875c-8.289.36538-16.28078 4.6288-21.23158 11.28185-.53933 1.01701-.74553 2.21207-1.15618 3.29798-1.49862 4.63606-2.9951 9.27282-4.49505 13.90845.0721 7.8966 3.60354 15.69266 9.55083 20.89855 6.71403 6.02066 16.427 8.45053 25.18635 6.30935 8.42592-1.95129 15.78494-8.0048 19.26398-15.93108 3.31139-7.30222 3.2965-16.02059-.0907-23.2935-3.38288-7.50264-10.21341-13.34576-18.16842-15.47705-2.87637-.7975-5.87779-1.12984-8.85921-.99455z" filter="url(#b)"/><path d="m78.082031 26.376953c-6.71748.03961-13.280767 3.716427-16.778552 9.459452-3.475655 5.523711-3.969042 12.775644-1.238792 18.707984 2.651825 6.051734 8.488135 10.541606 15.007318 11.589474 6.547763 1.164315 13.563987-1.247621 18.056186-6.141217.657894-.983529 1.003464-2.178936 1.540794-3.244328 1.217149-2.786208 2.524782-5.549743 3.685796-8.350017.675426-6.515898-2.100751-13.257716-7.179761-17.396771-3.636568-3.023728-8.365154-4.689151-13.092989-4.624577z" filter="url(#c)"/></g><g fill="#fffdcc" opacity="1" stroke-width="1.738217"><path d="m91.275249 58.673628 89.088761 56.410312.90492-35.879292 114.73109 71.172862-3.04744-52.182897 78.76459 43.753757c37.50184 5.53017 30.73576-2.52859 5.27431-16.32626l-102.60477-56.887679 3.05946 52.593409-107.22383-63.368375-.92025 36.160842-73.271525-46.113382c-26.110606-6.79738-20.383078-.154931-4.755316 10.666703z" opacity="1"/><path d="m372.20002 141.94837c.23463 11.44267 7.97101 21.81293 19.59296 24.84315 14.0256 3.65694 28.35718-4.7468 32.01343-18.76978 3.65625-14.02299-4.75009-28.35525-18.77308-32.0115-10.59866-2.76342-21.35116 1.37709-27.559 9.61187z"/><path d="m96.376103 48.006925c.713889-8.006901-4.051037-15.783455-12.00333-18.592984-9.411715-3.325139-19.7275 1.582297-23.041058 10.961228-3.313556 9.378932 1.628618 19.677628 11.040918 23.002974 7.000193 2.473154 14.500115.383335 19.248154-4.704515z"/></g></g><path d="m337.75391.0078125c-11.75386.16163397-24.08708 5.4701664-29.91797 16.1386715-15.70404.736855-30.6897 12.599193-34.16602 28.076172-16.88324 5.339742-28.62178 25.787987-21.13454 42.694483-3.27784 9.165583-5.66551 20.833531-1.07015 30.752701 5.81019 9.02367 3.58084 22.22849 14.41269 28.39894 10.62328 7.13984 23.58938 9.75449 35.92132 12.33508 19.10021 2.63483 40.22774 1.12011 56.66357-9.78787 6.33835-3.31494 13.99811 8.29564 22.39497 7.78914 24.39758 6.54394 51.46439 2.80514 73.35567-9.68135 8.69359-5.1663 14.01045-15.50067 12.65764-25.57925 9.06189-9.94816 2.57599-23.55342 2.48548-33.585582 7.005-16.479204-3.85306-37.142791-20.8761-41.877307-4.01634-14.712223-18.59405-24.703682-33.22461-26.714844-7.80053-18.68913553-33.77465-24.1221711-49.63386-12.4851928-12.87987 1.3522098-16.41388-6.67433986-27.86809-6.4737917z" fill="#f2c80d"/><path d="m449.48039 85.756147c3.29024-3.800631 4.719-10.062069 2.72379-14.625505-2.30091-5.262719-8.8694-8.673989-14.7092-9.591871-6.51111-1.023385-19.06668 5.11993-19.06668 5.11993s7.99245-5.235408 10.32693-9.140284c1.51281-2.530455 3.23082-5.903564 1.96497-8.557397-3.69042-7.736961-14.74976-13.874556-23.35961-12.015122-6.43542 1.389825-11.83286 15.306967-11.83286 15.306967s5.19833-11.980889 4.97815-18.276646c-.13541-3.870854-1.13814-8.148357-3.83888-11.012216-2.62208-2.780486-6.79157-4.320728-10.6769-4.582457-3.38729-.228175-6.91247.972082-9.79267 2.708331-3.70959 2.236219-6.66765 5.714241-8.78317 9.409652-3.77637 6.596591-6.39036 21.753336-6.39036 21.753336s-2.75707-15.34483-6.21109-22.272562c-1.74928-3.508528-3.73933-7.362037-7.16977-9.409666-3.78819-2.261162-8.78685-2.9751-13.16646-2.194015-4.08354.728282-8.37674 2.828047-10.70922 6.145074-1.97685 2.811296-1.76059 6.669722-1.66441 10.066402.17059 6.024614 3.95806 17.672155 3.95806 17.672155s-7.21597-17.322504-15.25004-18.219656c-8.34286-.931626-18.54945 6.925971-19.89137 14.93027-1.1735 6.999802 12.24084 17.687834 12.24084 17.687834s-8.59457-5.438169-13.50931-5.812239c-5.61901-.427667-12.48612.24897-16.33283 4.226453-4.05183 4.189579-5.95112 11.689501-3.42234 16.875526 2.95163 6.053129 18.26946 9.577622 18.26946 9.577622s-13.16386-.999888-17.32513 2.992831c-3.8721 3.715266-4.45615 10.471476-2.98447 15.546896.86861 2.99557 3.5832 5.52084 6.44005 6.95922 7.15031 3.60006 24.01924 2.79075 24.01924 2.79075s-18.93249 5.31818-25.30793 3.79166c-.91806 9.10983 9.96672 10.98183 16.79035 13.34467 16.61112 5.75197 36.53541 6.27631 52.94162 0 5.79204-2.2158 10.46499-7.17191 13.61793-12.35982 2.83796-4.66966 4.08028-15.75754 4.08028-15.75754s2.12157 10.91167 5.10035 15.51132c3.34698 5.16823 7.85776 10.34335 13.71994 12.60604 16.38622 6.32476 36.33327 5.75946 52.94164 0 6.86508-2.38067 18.09084-6.09373 16.88215-13.44315-6.42643 1.625-25.80775-3.69318-25.80775-3.69318s21.3499.44721 27.18485-6.59847c3.47283-4.19338 3.60723-11.71062.40803-16.102216-3.52434-4.837945-17.4432-5.589011-17.4432-5.589011s12.39451-1.539221 16.05702-5.769916z" fill="#fffdcc" stroke-width="36"/><g opacity=".75" stroke-width="1.41232" transform="matrix(.28158551 .66938639 -.62828777 .28685164 370.71676 16.385756)"><g fill="#f2c80d" stroke-width="1.52012"><path d="m80.558594 41.263672c-2.382795-.0035-5.067567.964907-6.097656 3.277344-1.049172 2.219531-.148116 4.81164 1.352638 6.588402 2.792328 3.317793 6.331047 5.898402 9.813377 8.440894 3.662762 2.711085 7.600893 5.01257 11.420282 7.490644 29.039955 18.395945 58.091975 36.782644 87.136355 55.175374.30464-11.98435.6066-23.968756.91016-35.953127 38.44903 23.853167 76.89957 47.703897 115.34766 71.558597-1.02341-17.53972-2.04688-35.07943-3.07032-52.61914 24.3515 13.5281 48.70351 27.05531 73.05469 40.58398 7.23085.98832 14.50525 2.10142 21.82422 1.8418 2.89773-.12045 6.08012-.57252 8.23047-2.70899 1.8749-1.98668 1.92111-5.24592.33792-7.41967-1.94891-3.03369-5.02889-5.06143-7.91605-7.10962-7.54837-5.07826-15.70919-9.12707-23.59788-13.62538-33.11062-18.357907-66.22107-36.716137-99.3318-55.073842 1.01457 17.450506 2.0286 34.901043 3.04296 52.351562-35.5392-21.003019-71.07727-42.007951-106.61718-63.009766-.30778 11.978453-.61034 23.95704-.91602 35.935547-22.61909-14.235097-45.23855-28.469626-67.85742-42.705078-5.500665-1.342337-11.032405-2.904958-16.729665-3.023663-.112247.0014-.224494.0028-.336741.0041z" filter="url(#a)" opacity="1"/><path d="m397.06836 113.1875c-8.289.36538-16.28078 4.6288-21.23158 11.28185-.53933 1.01701-.74553 2.21207-1.15618 3.29798-1.49862 4.63606-2.9951 9.27282-4.49505 13.90845.0721 7.8966 3.60354 15.69266 9.55083 20.89855 6.71403 6.02066 16.427 8.45053 25.18635 6.30935 8.42592-1.95129 15.78494-8.0048 19.26398-15.93108 3.31139-7.30222 3.2965-16.02059-.0907-23.2935-3.38288-7.50264-10.21341-13.34576-18.16842-15.47705-2.87637-.7975-5.87779-1.12984-8.85921-.99455z" filter="url(#b)"/><path d="m78.082031 26.376953c-6.71748.03961-13.280767 3.716427-16.778552 9.459452-3.475655 5.523711-3.969042 12.775644-1.238792 18.707984 2.651825 6.051734 8.488135 10.541606 15.007318 11.589474 6.547763 1.164315 13.563987-1.247621 18.056186-6.141217.657894-.983529 1.003464-2.178936 1.540794-3.244328 1.217149-2.786208 2.524782-5.549743 3.685796-8.350017.675426-6.515898-2.100751-13.257716-7.179761-17.396771-3.636568-3.023728-8.365154-4.689151-13.092989-4.624577z" filter="url(#c)"/></g><g fill="#fffdcc" opacity="1" stroke-width="1.412321"><path d="m91.275249 58.673628 89.088761 56.410312.90492-35.879292 114.73109 71.172862-3.04744-52.182897 78.76459 43.753757c37.50184 5.53017 30.73576-2.52859 5.27431-16.32626l-102.60477-56.887679 3.05946 52.593409-107.22383-63.368375-.92025 36.160842-73.271525-46.113382c-26.110606-6.79738-20.383078-.154931-4.755316 10.666703z" opacity="1"/><path d="m372.20002 141.94837c.23463 11.44267 7.97101 21.81293 19.59296 24.84315 14.0256 3.65694 28.35718-4.7468 32.01343-18.76978 3.65625-14.02299-4.75009-28.35525-18.77308-32.0115-10.59866-2.76342-21.35116 1.37709-27.559 9.61187z"/><path d="m96.376103 48.006925c.713889-8.006901-4.051037-15.783455-12.00333-18.592984-9.411715-3.325139-19.7275 1.582297-23.041058 10.961228-3.313556 9.378932 1.628618 19.677628 11.040918 23.002974 7.000193 2.473154 14.500115.383335 19.248154-4.704515z"/></g></g><g transform="translate(-192 -43)"><path d="m853.15039 116.25586c-13.69481-2.95542-29.9409 2.38113-40.83203 11.38281-12.14306 10.03642-23.20214 25.50053-21.03517 42.32227-10.17192 1.08135-23.55331 5.18557-29.87695 14.22265-11.6994 16.71956-18.88756 42.92187-5.7832 60.94532-13.16561 14.37545-11.41915 31.58619-9.10352 47.56054 1.01251 6.98478 5.6103 12.43561 9.72168 18.80958-.99185 10.19103.13493 18.06489 5.08887 24.96191 8.87503 12.35608 24.77351 18.97701 39.46679 22.91992 37.50895 10.06546 79.84931 12.61244 116.50782-.20899 11.78261-4.12101 22.17564-13.75703 29.32617-23.2871 6.95646 9.19799 17.28397 19.14513 28.96094 23.26757 36.63931 12.93514 79.15921 10.73627 116.56641.22657 14.9287-4.19426 30.9381-11.48751 39.666-24.30469 4.9872-7.32382 6.4329-14.53479 4.6174-26.17772 6.1004-11.6848 8.9694-19.89959 8.7326-30.45896-.2377-10.59861-2.9675-21.70802-10.1269-30.14844 10.0465-12.99767 12.8446-32.04587 6.832-46.51953-6.395-15.39411-24.5132-26.72525-40.1855-29.76562.6253-4.66899.1591-11.0119-2.17-15.78516-5.6627-11.60501-15.7759-21.3977-27.0039-27.77539-9.5595-5.42998-20.494-8.49849-32.0859-7.63672-1.5044-7.38456-4.8879-16.27692-10.7168-21.970703-8.6558-8.455128-20.9307-14.154524-32.99025-15.144531-10.3266-.847744-21.00409 3.022563-29.98633 8.1875-7.83745 4.506664-14.47702 11.868224-19.33593 19.019534-3.37416-6.60017-9.96557-15.5857-17.65039-20.115237-9.89243-5.830731-22.44945-9.83032-33.6584-7.336934-17.58494 3.911698-37.78055 12.296337-42.94551 32.809551z" fill="#f2c80d"/><path d="m1119.9557 238.47042c6.451-7.71824 9.2523-20.43379 5.3404-29.7011-4.5113-10.68739-17.3898-17.61491-28.8396-19.47892-12.766-2.07827-37.3831 10.39742-37.3831 10.39742s15.6704-10.63193 20.2475-18.56185c2.9661-5.13878 6.3345-11.98881 3.8526-17.37815-7.2356-15.71202-28.9191-28.17609-45.8-24.4-12.6176 2.82243-23.2001 31.085-23.2001 31.085s10.1921-24.33048 9.7604-37.11574c-.2655-7.86084-2.2315-16.54747-7.5267-22.36333-5.141-5.64653-13.3159-8.77442-20.93366-9.30593-6.6413-.46338-13.55296 1.97408-19.2 5.5-7.27321 4.54127-13.07294 11.60434-17.22074 19.10889-7.40414 13.39618-12.52926 44.17611-12.52926 44.17611s-5.40565-31.16189-12.17777-45.23055c-3.42972-7.12503-7.33151-14.95063-14.05741-19.1089-7.42732-4.59191-17.22793-6.04176-25.81482-4.45555-8.0064 1.47898-16.42385 5.74312-20.99704 12.47926-3.87592 5.7091-3.4519 13.5447-3.26333 20.44259.33446 12.23463 7.76037 35.88815 7.76037 35.88815s-14.14798-35.17809-29.9-37c-16.35742-1.89193-36.36898 14.06508-39 30.32-2.30084 14.21502 24 35.92 24 35.92s-16.85095-11.0437-26.48704-11.80334c-11.01691-.8685-24.48093.5056-32.02297 8.58297-7.9442 8.50809-11.66807 23.73873-6.70999 34.27037 5.78709 12.29255 35.82 19.45 35.82 19.45s-25.80971-2.03055-33.96852 6.07777c-7.59182 7.54485-8.73693 21.2652-5.85148 31.57223 1.70302 6.08332 7.02537 11.21157 12.62667 14.1326 14.01926 7.31091 47.09333 5.6674 47.09333 5.6674s-37.12 10.8-49.62 7.7c-1.8 18.5 19.54126 22.30162 32.92 27.1 32.56862 11.68097 71.63316 12.74576 103.8 0 11.3562-4.49977 20.5182-14.56452 26.7-25.1 5.56426-9.48303 8-32 8-32s4.15967 22.15914 10 31.5c6.56227 10.4955 15.40631 21.005 26.9 25.6 32.12766 12.84416 71.23686 11.69617 103.80006 0 13.46-4.8346 35.4698-12.37499 33.1-27.3-12.6 3.3-50.6-7.5-50.6-7.5s41.8597.90818 53.3-13.4c6.809-8.51582 7.0725-23.78164.8-32.7-6.91-9.82477-34.2-11.35-34.2-11.35s24.3013-3.12582 31.4822-11.7174z" fill="#fffdcc" stroke-width="36"/></g><path d="m267.68945 297.86133c-23.55744-1.76927-47.93443 17.99336-49.12109 41.95508-26.52386 3.86564-43.38252 37.73933-28.43945 60.60546-11.9302 14.81344-9.3776 37.50124 1.47363 51.75763-2.42218 17.01487 10.95543 31.44228 26.38477 36.13373 34.27348 13.30537 74.1341 17.02847 108.21516 1.12388 9.88072-3.8119 16.09011-19.43083 24.09032-5.57207 19.36531 14.38478 45.16215 16.85524 68.57021 15.74856 21.78956-2.15658 44.34846-7.46484 62.53792-20.15635 12.80517-7.39515 10.5577-23.01211 13.02573-34.26378 10.02956-13.48347 2.88635-31.63551-.089-44.08027 13.46328-20.21058 1.58251-50.03521-21.1918-57.14812-11.66471-3.2911-8.76104-22.94252-21.66395-29.03458-9.31041-13.13682-32.05757-6.37154-36.51126-20.89477-11.90395-22.93737-45.60443-26.90119-64.18915-9.90017-8.90186 15.10054-15.51994-8.29972-28.04216-8.70567-4.93298-1.68937-10.29737-3.42156-15.37802-2.37716-15.27729 3.14046-33.68724 8.84333-39.67186 24.8086z" fill="#f2c80d"/><path d="m476.11999 395.72738c4.97119-5.87414 7.12989-15.55161 4.11535-22.60471-3.47644-8.13389-13.40071-13.40624-22.22401-14.82489-9.83758-1.58171-28.8077 7.9132-28.8077 7.9132s12.07573-8.09168 15.60287-14.12693c2.2857-3.91099 4.88142-9.12436 2.96885-13.22604-5.57581-11.958-22.28528-21.44407-35.29383-18.57019-9.72322 2.14807-17.87818 23.65796-17.87818 23.65796s7.85411-18.51728 7.52144-28.2478c-.20459-5.98267-1.71961-12.59384-5.80013-17.02013-3.96169-4.29743-10.26133-6.67798-16.13164-7.0825-5.11783-.35266-10.44401 1.50242-14.79566 4.18591-5.6048 3.45623-10.07411 8.83175-13.27044 14.54326-5.70568 10.19548-9.65514 33.62126-9.65514 33.62126s-4.16564-23.71648-9.38428-34.42376c-2.64297-5.42267-5.64972-11.37853-10.83275-14.54328-5.72355-3.49478-13.27598-4.59822-19.8931-3.391-6.16979 1.12561-12.65635 4.37094-16.18048 9.49763-2.98681 4.34505-2.66006 10.30851-2.51474 15.55831.25773 9.31145 5.9802 27.31352 5.9802 27.31352s-10.90255-26.77311-23.04117-28.15972c-12.60516-1.43989-28.02622 10.70456-30.0537 23.07575-1.77304 10.81867 18.49458 27.33775 18.49458 27.33775s-12.98547-8.40506-20.41111-8.98321c-8.48972-.66099-18.86519.3848-24.67715 6.53227-6.12186 6.47528-8.9915 18.06692-5.17077 26.08227 4.45958 9.35553 27.60317 14.80287 27.60317 14.80287s-19.88916-1.54539-26.1764 4.62563c-5.85032 5.74219-6.73275 16.18438-4.5092 24.02879 1.31236 4.62985 5.41381 8.53282 9.73021 10.75594 10.80335 5.56414 36.29048 4.31331 36.29048 4.31331s-28.60495 8.21959-38.23755 5.86026c-1.38709 14.07986 15.05864 16.97317 25.3684 20.62509 25.09762 8.89007 55.20106 9.70046 79.98908 0 8.75116-3.42466 15.81148-11.08467 20.57522-19.10294 4.28786-7.21728 6.16486-24.35435 6.16486-24.35435s3.20547 16.86473 7.70608 23.97381c5.05693 7.98785 11.87222 15.98635 20.72934 19.48348 24.75782 9.77535 54.89567 8.90164 79.98912 0 10.37238-3.67949 27.3333-9.41828 25.50711-20.7773-9.70965 2.51154-38.99274-5.70805-38.99274-5.70805s32.2574.69119 41.07338-10.19839c5.24707-6.48116 5.45013-18.09957.61649-24.88709-5.3249-7.47737-26.35479-8.63819-26.35479-8.63819s18.72677-2.37897 24.26043-8.9178z" fill="#fffdcc" stroke-width="36"/><path d="m99.035156 125.05078c-13.085279.12291-26.718712 6.41221-32.771484 18.50586-17.878485.18888-35.28573 14.0313-38.423828 31.82227-19.2080775 5.11423-32.3029061 28.57518-23.2985347 47.14613-3.82437154 9.98405-6.8557638 23.07963-1.6276527 34.11318 6.7735392 9.70412 3.5244577 24.40458 15.5108554 31.23688 11.810108 7.8862 26.206696 10.79974 39.893797 13.67195 21.693181 2.97516 45.859431 1.2457 64.248591-11.66699 6.25671-5.32258 13.38309 8.52628 21.81735 8.07084 28.32164 9.17098 60.52463 5.24819 86.28863-9.41071 9.43094-5.62965 15.20261-17.07955 13.16306-27.99332 9.36762-11.26549 2.03362-26.41395 2.51247-37.46726 8.76253-18.17296-3.77254-41.53781-23.03005-46.07375-3.64859-17.05928-20.81285-28.64819-37.48828-30.34961-7.35354-20.31833-34.88816-27.25553-52.22266-15.47266-8.36251 11.06263-15.75592-6.3215-26.77946-5.50459-2.56714-.47543-5.18305-.67817-7.792804-.62822z" fill="#f2c80d"/><path d="m226.63913 220.80463c3.7582-4.36241 5.39016-11.54934 3.11118-16.7873-2.62817-6.0406-10.13087-9.95609-16.80125-11.00965-7.43716-1.17465-21.77849 5.87671-21.77849 5.87671s9.1292-6.00926 11.7957-10.49131c1.72798-2.90448 3.69033-6.77617 2.24444-9.82227-4.21529-8.88056-16.84758-15.92535-26.68198-13.79107-7.35071 1.59525-13.51583 17.56949-13.51583 17.56949s5.93768-13.75179 5.68618-20.97812c-.15467-4.44301-1.30002-9.35277-4.38487-12.63993-2.99502-3.19147-7.75752-4.95938-12.19545-5.25979-3.86906-.26191-7.89563 1.11576-11.18546 3.10865-4.2372 2.56675-7.61598 6.55886-10.03239 10.80049-4.31347 7.57163-7.29925 24.9687-7.29925 24.9687s-3.1492-17.61295-7.09447-25.56467c-1.99807-4.02713-4.27116-8.45022-8.18951-10.80051-4.32698-2.59539-10.03658-3.41485-15.039102-2.51832-4.66433.83593-9.56814 3.24607-12.232367 7.05338-2.258015 3.22684-2.010994 7.65558-1.901132 11.55432.194842 6.91511 4.521004 20.28428 4.521004 20.28428s-8.242279-19.88295-17.419022-20.91271c-9.529445-1.06933-21.187697 7.9497-22.720463 17.13712-1.34041 8.03444 13.98182 20.30227 13.98182 20.30227s-9.816957-6.24199-15.430708-6.67135c-6.418191-.49088-14.262.28577-18.655816 4.85117-4.628099 4.80884-6.797534 13.41732-3.909079 19.36989 3.371423 6.94785 20.867874 10.9933 20.867874 10.9933s-15.036117-1.14768-19.789242 3.4352c-4.422816 4.26442-5.089929 12.01927-3.408935 17.84489.992138 3.43834 4.092816 6.33686 7.355995 7.98785 8.167285 4.13219 27.435442 3.20327 27.435442 3.20327s-21.625215 6.10424-28.907418 4.3521c-1.048634 10.45635 11.384265 12.60505 19.178397 15.31714 18.973689 6.60217 41.731756 7.20401 60.471392 0 6.61584-2.54331 11.95341-8.23199 15.55477-14.18673 3.24161-5.35988 4.66061-18.08666 4.66061-18.08666s2.42332 12.52453 5.82576 17.80406c3.82302 5.93214 8.97535 11.8722 15.67129 14.46933 18.71681 7.25962 41.50089 6.61077 60.47143 0 7.84147-2.73256 20.66385-6.99445 19.28326-15.43018-7.34046 1.86518-29.47834-4.23906-29.47834-4.23906s24.38645.51331 31.05129-7.5738c3.96676-4.81321 4.12028-13.44157.46607-18.4823-4.02561-5.55304-19.92411-6.41511-19.92411-6.41511s14.15736-1.76674 18.34078-6.62277z" fill="#fffdcc" stroke-width="36"/><g opacity=".75" stroke-width="1.22926" transform="matrix(.46757402 .67455604 .6627588 -.4592002 58.075618 187.63426)"><g fill="#f2c80d" stroke-width="1.32308"><path d="m80.558594 41.263672c-2.382795-.0035-5.067567.964907-6.097656 3.277344-1.049172 2.219531-.148116 4.81164 1.352638 6.588402 2.792328 3.317793 6.331047 5.898402 9.813377 8.440894 3.662762 2.711085 7.600893 5.01257 11.420282 7.490644 29.039955 18.395945 58.091975 36.782644 87.136355 55.175374.30464-11.98435.6066-23.968756.91016-35.953127 38.44903 23.853167 76.89957 47.703897 115.34766 71.558597-1.02341-17.53972-2.04688-35.07943-3.07032-52.61914 24.3515 13.5281 48.70351 27.05531 73.05469 40.58398 7.23085.98832 14.50525 2.10142 21.82422 1.8418 2.89773-.12045 6.08012-.57252 8.23047-2.70899 1.8749-1.98668 1.92111-5.24592.33792-7.41967-1.94891-3.03369-5.02889-5.06143-7.91605-7.10962-7.54837-5.07826-15.70919-9.12707-23.59788-13.62538-33.11062-18.357907-66.22107-36.716137-99.3318-55.073842 1.01457 17.450506 2.0286 34.901043 3.04296 52.351562-35.5392-21.003019-71.07727-42.007951-106.61718-63.009766-.30778 11.978453-.61034 23.95704-.91602 35.935547-22.61909-14.235097-45.23855-28.469626-67.85742-42.705078-5.500665-1.342337-11.032405-2.904958-16.729665-3.023663-.112247.0014-.224494.0028-.336741.0041z" filter="url(#a)" opacity="1"/><path d="m397.06836 113.1875c-8.289.36538-16.28078 4.6288-21.23158 11.28185-.53933 1.01701-.74553 2.21207-1.15618 3.29798-1.49862 4.63606-2.9951 9.27282-4.49505 13.90845.0721 7.8966 3.60354 15.69266 9.55083 20.89855 6.71403 6.02066 16.427 8.45053 25.18635 6.30935 8.42592-1.95129 15.78494-8.0048 19.26398-15.93108 3.31139-7.30222 3.2965-16.02059-.0907-23.2935-3.38288-7.50264-10.21341-13.34576-18.16842-15.47705-2.87637-.7975-5.87779-1.12984-8.85921-.99455z" filter="url(#b)"/><path d="m78.082031 26.376953c-6.71748.03961-13.280767 3.716427-16.778552 9.459452-3.475655 5.523711-3.969042 12.775644-1.238792 18.707984 2.651825 6.051734 8.488135 10.541606 15.007318 11.589474 6.547763 1.164315 13.563987-1.247621 18.056186-6.141217.657894-.983529 1.003464-2.178936 1.540794-3.244328 1.217149-2.786208 2.524782-5.549743 3.685796-8.350017.675426-6.515898-2.100751-13.257716-7.179761-17.396771-3.636568-3.023728-8.365154-4.689151-13.092989-4.624577z" filter="url(#c)"/></g><g fill="#fffdcc" opacity="1" stroke-width="1.22926"><path d="m91.275249 58.673628 89.088761 56.410312.90492-35.879292 114.73109 71.172862-3.04744-52.182897 78.76459 43.753757c37.50184 5.53017 30.73576-2.52859 5.27431-16.32626l-102.60477-56.887679 3.05946 52.593409-107.22383-63.368375-.92025 36.160842-73.271525-46.113382c-26.110606-6.79738-20.383078-.154931-4.755316 10.666703z" opacity="1"/><path d="m372.20002 141.94837c.23463 11.44267 7.97101 21.81293 19.59296 24.84315 14.0256 3.65694 28.35718-4.7468 32.01343-18.76978 3.65625-14.02299-4.75009-28.35525-18.77308-32.0115-10.59866-2.76342-21.35116 1.37709-27.559 9.61187z"/><path d="m96.376103 48.006925c.713889-8.006901-4.051037-15.783455-12.00333-18.592984-9.411715-3.325139-19.7275 1.582297-23.041058 10.961228-3.313556 9.378932 1.628618 19.677628 11.040918 23.002974 7.000193 2.473154 14.500115.383335 19.248154-4.704515z"/></g></g></svg>