<svg height="500" viewBox="0 0 500 500" width="500" xmlns="http://www.w3.org/2000/svg" xmlns:xlink="http://www.w3.org/1999/xlink"><radialGradient id="a" cx="1362.7291" cy="216.11429" gradientTransform="matrix(1.0000001 -.0000059 .0000001 1.0000003 -112.72927 33.893757)" gradientUnits="userSpaceOnUse" r="250"><stop offset="0" stop-color="#ff851a"/><stop offset=".42441937" stop-color="#f87000"/><stop offset=".86367416" stop-color="#f26900"/><stop offset="1" stop-color="#e55f00"/></radialGradient><g transform="translate(-1000)"><path d="m1500 250a250 250 0 0 1 -250 250 250 250 0 0 1 -250-250 250 250 0 0 1 250-250 250 250 0 0 1 250 250z" fill="url(#a)" stroke-linecap="round" stroke-linejoin="round" stroke-width="1.002"/><path d="m1309.2298 33.82789c128.5196 30.706851 207.8974 167.48127 169.5927 291.56949-31.3771 95.69524-112.8693 162.03793-212.5543 174.60263 153.1796-8.09118 266.0956-163.0043 218.7012-309.92978-36.4562-114.666588-154.6038-191.5214848-270.6514-169.822657-18.8526 4.215647-38.4387 10.498641-55.8829 18.694487-112.5353 47.459213-168.47522 196.206-99.9632 307.85319 57.6978 93.63045 168.5136 141.8489 267.9993 100.77239-134.92 68.97589-303.283-51.46877-311.488-201.30723-4.4167-117.68321 76.8182-219.674136 190.654-246.26040176-89.0147 9.18391126-152.6601 79.39239576-187.7408 157.21169176-38.45522 102.70317 5.2337 231.75078 109.038 294.08388 114.5107 66.1048 260.3537 29.37245 323.6836-83.60152 42.2104-77.69758 34.3514-177.62383-23.1776-249.88923-57.5404-72.257811-157.5429-102.460489-246.4118-71.877168-81.7429 30.682061-131.1298 101.133078-134.0478 190.176958.6692 92.68536 61.7912 168.55972 147.5399 198.52472 128.5549 37.82014 266.7725-70.33038 233.6823-209.88949-14.7104-64.39775-57.8855-122.14991-125.7378-141.121386-71.391-15.467036-138.9716 1.205-181.2869 64.641366-18.8995 29.2286-28.9384 85.21395-26.105 97.65297m0 0c13.5324-50.18833 30.6277-97.66354 72.2125-128.94941 53.182-38.308183 124.4576-37.093813 181.7444-.48035 50.1457 36.48017 75.4845 90.37713 72.3557 150.91678-6.6674 64.04407-38.4038 109.83277-91.6401 141.00844-63.9019 34.56125-135.3795 4.83213-189.1258-35.28385-78.8706-65.48566-79.7477-186.67235-8.9744-256.76104 63.7369-55.941605 167.0207-64.891564 238.7167-6.65053 78.8163 58.35315 90.3045 169.04089 40.972 246.62443-35.2274 56.41892-88.4571 87.60135-152.5581 93.63158-81.9488 2.18264-160.666-41.91503-196.8695-120.9383-36.2055-79.02511-22.5771-164.33167 26.8727-227.66064 49.4316-63.30896 138.3491-86.746364 220.4504-67.54202" fill="#c50"/></g><path d="m167.37891 49.980469c-31.54511.025006-65.35197 18.533681-88.675785 56.453121l-26.568359 43.19336c27.369858-8.33502 67.749474-30.99282 91.128904-16.27539 10.08397 6.38913 24.48874 20.26961 49.60938 29.42578 7.5731 12.45208 13.40498 28.19 17.64648 50.52344.74159 6.82007 1.05565 14.47933 1.11133 22.68945.12954 19.38806-1.43926 56.57881-2.0136 65.8017 7.39237 25.93274 6.95917 23.30151 21.10991 43.41309l27.35433 7.19704.98633-16.699c1.75035-35.85988 3.68126-68.76292 6.05129-98.42901 1.05335-13.18493 2.59127-25.73046 4.99011-37.612 4.66217-12.5996 10.54972-23.00499 17.5586-31.80078 28.37019-7.77228 43.87157-21.61217 54.36133-27.80274 5.63881-3.32776 9.61556-4.99103 16.58007-5.44922 31.15706 1.9261 58.62878 13.72703 91.32227 24.04297l-38.4707-46.82812c-30.8068-37.498997-69.43587-54.510638-103.25182-53.894473-23.07956.420403-44.63714 9.277556-57.59961 26.820313-5.53138 7.485897-8.93356 16.39392-10.35351 26.01367-1.94921-12.394706-6.68254-23.655144-13.83789-32.884764-13.87646-17.899108-35.78169-27.915936-59.03711-27.898437zm73.20313 83.597651c.48834 2.76058 1.1788 5.54411 1.97852 8.33399-.38772.54168-.81764 1.04222-1.19922 1.58984-.56567-1.07457-1.19541-2.08626-1.78125-3.14062.4338-2.2813.74441-4.53465 1.00195-6.78321z" fill="#994100"/><path d="m197.01953 197.48828-73.35351 1.74805-73.597661 102.49414 20.861367 31.18946-.168007 8.46093 29.912111 67.94726 5.73537 13.0293 14.05564 31.93164 157.80664 45.71094 115.16407-64.98633 9.61523-15.73047 2.29492-103.89062-64.96679-77.75-65.55469-15.11719-9.7051 14.74866-22.39842 34.03845-4.47656-15.66997-24.77539-48.36524z" fill="#994100"/><g fill="#ffa348" stroke-width="36"><path d="m197.44848 215.48294-64.39044 1.5339-59.211096 82.45924 61.521846 58.35256 76.7622-7.53236-75.95016 31.48365-48.944516-47.6517 32.159396 73.05356 94.17853 25.01468-84.77176-3.64334 4.74773 10.78593 142.46369 41.26694 109.03759-61.52974v-.008l-27.01928-39.16446-80.87702 36.77809 84.56108-62.6027 23.96643 36.4135 1.51832-68.74352-56.75789-67.92578-47.46372-10.9448-20.81806 31.63729 5.92828 22.70385-7.97801 12.84764c-.44782 13.65495-1.03724 27.77433-2.03012 42.33469l19.78936 28.23354-30.79291 36.20776 13.23413 27.65887-31.65955-30.78658 28.95898-34.04883-9.46306-13.4987-4.16259-4.57306c-8.54354-9.38745-16.81838-20.48156-23.00341-31.84304-4.17964-7.67645-7.51483-15.45014-9.04169-23.1917l-15.45445-31.7163 13.07973-34.73982.47255-.0417-12.59011-24.57977z"/><path d="m234.92798 321.89018c2.34145 4.30222 5.15887 8.66174 8.17503 12.93444 2.51206-51.46519.89053-98.20453 9.6132-140.13643 6.07328-16.85123 14.26454-30.99926 24.59423-42.6715 57.66206-12.8513 50.44577-50.78827 120.24246-28.76586-27.81341-33.855255-61.57387-47.824452-89.01538-47.324436-37.45816.682314-63.13314 28.323826-45.8422 69.146306-9.72236 11.83023-17.68929 25.61019-23.7728 41.32077-4.66841-16.62987-10.72634-30.82737-18.38192-43.14635 12.25745-44.521385-16.80388-75.294072-53.14676-75.266726-24.64925.01954-52.64437 14.206619-73.35835 47.883046 60.3686-21.163874 59.62821 16.56042 110.90565 32.07567 10.90546 15.83384 18.35035 35.66607 23.41455 62.68777.90076 7.93429 1.21551 16.43716 1.27522 25.24214.13648 20.42599-1.4842 42.29822-2.62038 60.52676-.34547 6.06496 2.53849 15.61214 7.91745 25.4944z"/></g></svg>