<svg height="500.0004" viewBox="0 0 500 500.0004" width="500" xmlns="http://www.w3.org/2000/svg" xmlns:xlink="http://www.w3.org/1999/xlink"><filter id="a" color-interpolation-filters="sRGB" height="1.214248" width="1.214248" x="-.107124" y="-.107124"><feGaussianBlur stdDeviation="3.529976"/></filter><filter id="b" color-interpolation-filters="sRGB" height="1.035519" width="1.035519" x="-.017759" y="-.017759"><feGaussianBlur stdDeviation=".38090473"/></filter><filter id="c" color-interpolation-filters="sRGB" height="1.068444" width="1.068444" x="-.034222" y="-.034222"><feGaussianBlur stdDeviation=".38090473"/></filter><g transform="translate(-500 -500)"><path d="m999.99997 750a249.99997 250 0 0 1 -249.99997 250 249.99997 250 0 0 1 -249.99997-250 249.99997 250 0 0 1 249.99997-250 249.99997 250 0 0 1 249.99997 250z" fill="#ffe24c"/><path d="m1000 750.00632-194.05817-2.60063 192.98367-20.4591-193.45987 15.31075 190.28547-38.19139-191.22567 33.10816 185.92267-55.58184-187.34707 50.61663 180.01317-72.50831-181.88127 67.68555 172.56127-88.82024-174.86477 84.18876 163.62798-104.35075-166.35478 99.94311 153.30278-119.00625-156.40808 114.88758 141.65488-132.65651-145.14668 128.82271 128.82258-145.14278-132.65648 141.65492 114.88758-156.42029-119.00218 153.31093 99.94719-166.3385-104.34669 163.60764 84.17649-174.84041-88.81609 172.54909 67.67739-181.89345-72.48799 180.02133 50.6167-187.35925-55.5941 185.94294 33.1-191.23373-38.1995 190.27732 15.3474-193.45586-20.4957 192.97968-2.59249-194.05413-2.5681 194.05413-20.4916-192.97968 15.327 193.45586-38.2004-190.27732 33.1171 191.23373-55.5936-185.94294 50.6162 187.35925-72.51029-180.02133 67.69979 181.89345-88.81699-172.54909 84.17729 174.84041-104.36289-163.60764 99.96869 166.3385-119.00618-153.31093 114.86968 156.42029-132.64018-141.65492 128.81968 145.14278-145.14988-128.82271 141.67318 132.65651-156.42638-114.88758 153.29788 119.00625-166.34218-99.94311 163.62828 104.35075-174.86477-84.18876 172.54667 88.82024-181.87387-67.68555 180.00617 72.50831-187.35587-50.61663 185.94077 55.58184-191.21897-33.10816 190.28097 38.19139-193.47947-15.31075 192.98647 20.4591-194.04384 2.60063 194.04384 2.58435-192.98647 20.46723 193.47947-15.31481-190.28097 38.20361 191.21897-33.12445-185.94077 55.58997 187.35587-50.60849-180.00617 72.5083 181.87387-67.68553-172.54667 88.81211 174.86477-84.17656-163.62828 104.33851 166.34218-99.95936-153.29788 119.0103 156.42638-114.87941-141.67318 132.66054 145.14988-128.83082-128.81968 145.13868 132.64018-141.66304-114.86968 156.42028 119.00618-153.28243-99.96869 166.32222 104.36289-163.59543-84.17729 174.84852 88.81699-172.55719-67.69979 181.8975 72.51029-180.02538-50.6162 187.35108 55.5936-185.93884-33.1171 191.21336 38.2004-190.26101-15.327 193.47618 20.4916-192.99594 2.5681 194.05003 2.59249-194.05003 20.4957 192.99594-15.3474-193.47618 38.1995 190.26101-33.1-191.21336 55.5941 185.93884-50.6167-187.35108 72.48799 180.02538-67.67739-181.8975 88.81609 172.55719-84.17649-174.84852 104.34669 163.59543-99.94719-166.32222 119.00218 153.28243-114.88758-156.42028 132.65648 141.66304-128.82258-145.13868 145.14668 128.83082-141.65488-132.66054 156.40808 114.87941-153.30278-119.0103 166.35478 99.95936-163.62798-104.33851 174.86477 84.17656-172.56127-88.81211 181.88127 67.68553-180.01317-72.5083 187.34707 50.60849-185.92267-55.58997 191.22567 33.12445-190.28547-38.20361 193.45987 15.31481-192.98367-20.46723z" fill="#fffbb3" fill-rule="evenodd"/></g><path d="m375.375 327.77021-1.18945 1.73242c1.01512 2.79492 1.59765 5.66109 1.59765 8.59179 0 30.33037-55.80679 54.91211-125.4707 54.91211-69.66308 0-126.09375-24.58008-126.09375-54.91211 0-2.51857.4075-4.99331 1.16602-7.41601l-11.50586 3.13477c-12.89366 3.51325-22.470251 11.63198-29.898441 21.21874-7.120151 9.18922-12.915117 20.21616-11.529297 33.93946.252881 14.87808 7.268017 28.42983 17.36914 39.05664 10.287498 10.82288 23.836788 19.41387 39.777348 26.49609 31.88108 14.16446 73.73461 22.24219 120.03906 22.24219 46.31626 0 87.53647-8.1555 119.10156-22.33789s56.01556-35.26155 58.80078-64.57227c2.08916-21.98529-11.83753-44.07259-38.47656-55.97265z" fill="#f2c80d"/><path d="m250.34712 397.85305c-67.29619 0-113.1218-19.98648-131.73578-46.67208-14.81504 4.03679-30.188675 23.30833-28.206335 36.97242.0016 38.97121 70.922505 70.61291 159.231945 70.61291 88.30946 0 156.29637-31.81541 159.98307-70.61291 1.04556-11.00301-7.47826-28.71182-27.89995-37.8345-18.42577 26.81557-63.86036 47.53416-131.37295 47.53416z" fill="#fffdcc"/><path d="m359.33594 289.17841c-3.34233 4.23368-6.93094 8.33466-10.83399 12.24414-54.33467 54.42661-142.72032 54.68719-197.05664.25977-3.9659-3.97249-7.60582-8.14571-10.99023-12.45508l-10.76172 7.93164c-13.29542 9.79904-23.47461 24.08696-23.47461 40.93554 0 13.16428 6.3279 24.99225 14.99023 33.91407 8.66235 8.92182 19.79941 15.78212 32.74414 21.41992 25.88949 11.27561 59.41073 17.57812 96.35938 17.57812 36.94918 0 70.33251-6.30321 96.08789-17.59765 12.87769-5.64723 23.95012-12.52307 32.54688-21.45899 8.59674-8.93591 14.83593-20.75289 14.83593-33.85547 0-16.68318-10.00865-31.01543-23.29492-40.74609z" fill="#f2c80d"/><path d="m375.78374 338.09404c0 30.3304-55.80793 54.9133-125.47191 54.9133-69.66315 0-126.09373-24.58124-126.09373-54.9133 0-9.69963 5.77855-18.79883 16.15375-26.4456 60.58542 60.69903 158.80538 61.01046 219.47989.2209 10.27535 7.52551 15.932 16.57821 15.932 26.22469z" fill="#fffdcc"/><g opacity=".9" transform="translate(0 -23.2337)"><path d="m250.10352 68.708984c-40.20108-.000469-80.53138 15.447799-111.13672 46.103516-61.211584 61.31424-61.511194 161.4691-.25977 222.82227 61.25208 61.35478 161.32323 61.05181 222.5332-.26172 61.21076-61.3127 61.21129-161.2475 0-222.56055-30.60549-30.656808-70.93621-46.103047-111.13671-46.103516z" fill="#f2c80d" opacity="1"/><path d="m151.70451 127.52952c-54.336369 54.4275-54.595037 142.96143-.25945 197.38727 54.33637 54.42748 142.7221 54.16673 197.05683-.25993 54.33633-54.42582 54.33633-142.69984 0-197.1265-27.16821-27.21376-62.78285-40.821459-98.39871-40.821874-35.61587-.000416-71.23047 13.608114-98.39867 40.821034z" fill="#ffe24c" stroke-width="36"/><circle cx="66.145836" cy="39.542774" fill="#fffdcc" filter="url(#a)" opacity="1" r="39.542774" transform="matrix(3.1334422 0 0 3.1386969 42.774207 102.04494)"/><g fill="#fff"><path d="m64.75637 40.032365a30.644657 19.640671 45 0 1 7.78099 35.557096 30.644657 19.640671 45 0 1 -35.55709-7.780994 30.644657 19.640671 45 0 1 -7.781-35.557095 30.644657 19.640671 45 0 1 35.5571 7.780993z" filter="url(#b)" opacity=".8" transform="matrix(3.1334422 0 0 3.1386969 42.774207 102.04494)"/><path d="m95.61188 9.4458012a15.608357 10.637955 45 0 1 3.5146 18.5589498 15.608357 10.637955 45 0 1 -18.55894-3.51461 15.608357 10.637955 45 0 1 -3.51461-18.5589424 15.608357 10.637955 45 0 1 18.55895 3.5146026z" filter="url(#c)" opacity=".8" transform="matrix(3.1334422 0 0 3.1386969 42.774207 102.04494)"/></g></g><path d="m250.10352 45.475284c-40.20104-.000469-80.53141 15.44783-111.13672 46.103516-61.211526 61.31418-61.511131 161.46916-.25977 222.82227 61.25202 61.35471 161.3233 61.05175 222.5332-.26172 61.2107-61.31264 61.21123-161.24756 0-222.56055-30.60546-30.656777-70.93625-46.103047-111.13671-46.103516zm0 18c35.61582.000415 71.23025 13.608536 98.39843 40.822266 54.33628 54.42661 54.33628 142.69923 0 197.125-54.33467 54.42661-142.72032 54.68719-197.05664.25977-54.33553-54.42579-54.076547-142.95928.25977-197.38672 27.16817-27.2129 62.7826-40.820732 98.39844-40.820316z" fill="#f2c80d"/></svg>