<svg height="500" viewBox="0 0 500 500" width="500" xmlns="http://www.w3.org/2000/svg"><g transform="translate(.000015)"><circle cx="-249.99998" cy="250" fill="#e51a1a" r="250" transform="scale(-1 1)"/><path d="m181.33938 83.856939c97.52275-31.84694 203.27597 26.159281 217.12696 131.568651 10.04116 85.89723-45.79566 162.6049-131.11288 174.6444-76.26503 6.65-147.16573-45.4981-149.44603-126.3231.16679-50.89801 30.03241-87.97493 76.60677-108.40662 44.00125-16.48183 90.46555-3.00917 112.28155 39.63622 17.95322 40.0953 3.57775 87.31302-40.4313 103.80676-21.98685 8.23292-51.6578-5.55285-56.72562-31.5612 24.48155 21.7253 69.7211 11.74379 80.1808-21.06198 5.24648-24.88185-11.48198-41.52298-24.36368-55.64156-23.21161-15.22125-63.26956-13.16738-85.32502 12.05139-41.51846 46.43224-18.48961 112.52397 35.72777 131.08081 60.66482 17.11352 118.96473-29.63961 126.96137-92.39988 2.7637-54.83226-40.99398-106.19486-96.51046-114.27807-76.21988-10.3001-138.45939 50.84936-147.743191 124.09106-9.31956 73.21828 47.315731 138.67973 111.863041 158.33924 49.05305 9.49897 98.18701 2.07129 139.64056-27.40671 82.90715-58.95602 100.11901-177.97214 43.55644-260.39974-52.71171-79.885311-158.575-103.987181-249.15842-67.061741-86.705021 39.45169-149.0660905 134.549061-117.102931 229.167621 15.77888-74.65377 50.93986-153.5943 123.407351-187.514491 9.28724-4.60517 19.44718-8.7232 30.56692-12.33106zm-160.722321 286.075591c-52.57825-113.8254-.38403-260.89182 113.777041-317.643861 10.84604-5.32012 22.21219-9.7712 34.03518-13.36069 115.76394-28.75816 246.03978 34.00351 263.68455 158.897471 10.04526 85.91695-27.72044 168.80365-107.97396 206.83173-102.24035 46.26108-224.798841-11.43986-234.690511-131.24969-7.33455-123.78718 127.307171-194.136761 222.718561-137.24102-42.54074-27.89653-94.21826-33.44528-140.80825-12.98978-71.17376 32.62266-105.080851 118.0397-80.762351 190.63139 30.697281 88.13423 123.572931 132.04164 212.817841 105.59803 82.80488-25.06359 132.16266-100.33164 140.19255-180.04986 12.12434-145.020371-132.23823-245.3588802-265.59709-221.973611 7.92036-4.10499 20.5989-8.4277792 35.61563-11.7452592 60.06317-13.23825 124.63426-3.45807 179.45368 32.4903392 109.65077 71.904621 141.09454 217.803071 65.16008 333.599141-143.00482 218.07486-377.311781 117.06797-437.622951-1.79433" fill="#b21a1a"/></g><path d="m51.669922 161.73828-35.816406 2.47656a250 249.99998 0 0 0 -15.853516 85.78516 250 249.99998 0 0 0 .71289062 9.97852c-2.25798542 37.40926 3.86159338 75.22266 19.90429738 109.95312 34.751153 68.48818 127.287802 130.87947 226.822262 129.88477a250 249.99998 0 0 0 2.56055.18359 250 249.99998 0 0 0 8.79883-.62891c2.52516-.14858 5.04927-.30989 7.58008-.54297a250 249.99998 0 0 0 233.62109-248.82812 250 249.99998 0 0 0 -.28125-11.47266c.30272-21.658-2.44266-43.05082-7.87891-63.68164l-69.37109.33203.48828-5.73828-118.66015-2.48242-.26954 6.32813-82.70507.94531-.97657-11.02735-16.57031.09376-84.90039.48437.14844 3.86523-70.945315 3.9004z" fill="#861313"/><path d="m203.87891 181.29688-66.30469.37695 2.14062 55.82031 69.08789-.64258zm-178.654301.3125-15.7792965 1.09179a250 249.99998 0 0 0 -8.61132812 55.62695l3.66601562-.12109zm296.302731 3.71093-2.49804 58.43555 79.4375 1.07031 4.92578-57.79297zm-200.36914.23633-86.574216 4.75977 21.482422 48.89062 70.015624-2.57031zm188.23828 5.66797-86.79687.99219-2.62695 23.8457 1.51953 28.97656 33.06054-1.71289 8.47852-11.13281 13.13281 9.99219 33.23242-1.78516zm186.49414 1.60156-83.07812.39649 6.35352 44.32422 51.52929 4.20898 27.33594-29.68945.38281-1.66993c-.61764-5.89907-1.46923-11.75596-2.52344-17.57031zm-470.01562 13.96289-12.560547 35.55664 29.333985-.71289-5.851563-24.28125zm472.44141 16.98047-19.55664 19.98633 21.13476 1.94922a250 249.99998 0 0 0 -.17578-7.17774c.05359-3.83424-.06519-7.65235-.19531-11.46875zm-219.28321 23.00195-2.85547 53.88672 89.67188 7.47461 2.14062-55.74219-72.5-3.14453-3.2539-2.47461zm-18.34179 2.49805-69.44532 7.63672-4.63867 45.75 79.00781-2.28516zm-174.005863.5-2.855469 53.88477 90.000002-2.78321 4.99609-50.74414zm-86.56445325 1.92774a250 249.99998 0 0 0 .59179687 8.28125c-.90457217 14.98653-.39551915 30.02984 1.48828128 44.92187l67.9960941-2.10156-4.923828-51.10156zm453.94531625.26562-76.72461 3.85352 3.92382 49.24609 72.0879-.64062zm15.77343 5.21094 2.35547 46.39062 20.64649 2.1543a250 249.99998 0 0 0 6.52343-47.57422zm-317.77734 55.75976-15.41602 31.26172 1.49805 29.97461 91.85547-1.35351-5.42383-56.88477zm-28.69141 1-90.785152 4.28125 5.708984 49.60352 88.999998 4.71094zm280.73438 2.05079-1.49805 29.9746 15.41602 31.26172 47.14062-1.94922a250 249.99998 0 0 0 25.00196-58.01757zm-96.49024.16015-62.83984 2.07031-5.35351 54.09961 68.19335-3.71093zm85.64258 1.48047-73.625 4.71094-5.70898 49.60351 75.4082 4.28125zm-388.3749975 3.51758c3.0696319 15.33126 7.7317765 30.39154 14.1132815 44.94922l6.451172-.19922-4.925782-44.75zm22.5390625 60.8789c11.75706 19.17876 28.014763 37.52228 47.4375 53.86133l27.171875 1.88086-2.142578-55.74219zm87.884765 3.06836-3.92773 49.24805 98.29297 3.85352-.71094-52.45899zm173.89063.07813-43.80469.75195.00781.26172-17.5957.4082-2.35547 46.39258 24.25-.92969 77.9668 6.40625 4.92578-51.10156zm57.02343.97461 2.85352 53.88672h61.85742a250 249.99998 0 0 0 30.7793-31.26172l-1.91797-19.48438zm106.34766 1.35547.70312 6.93554a250 249.99998 0 0 0 4.67774-6.80664zm-229.76953 56.33203-27.83399 2.57031 19.55664 19.98438zm-90.29297 1.5-44.925782.60547c14.571802 10.82037 30.594162 20.4565 47.730472 28.50195zm146.76953 2.47656 12.5625 35.55859 10.91992-10.5625 5.85157-24.28125zm-92.375.5918-33.69727 4.21094-3.99609 27.88085c19.43375 7.86252 39.97283 13.75262 61.22461 16.82032l8.22852.04883-4.42578-19.26954zm40.90039 1.83594-.25195 48.69531h37.41211c.47301-.03897.94454-.05796 1.41797-.10157a250 249.99998 0 0 0 20.35742-2.88281l-16.27539-43.99804zm94.22656.71484-19.12109 42.70508a250 249.99998 0 0 0 89.05078-39.32813l.08594-.80859z" fill="#ff8066" stroke-width="36"/></svg>