<svg height="500" viewBox="0 0 500 500" width="500" xmlns="http://www.w3.org/2000/svg"><g transform="translate(-1000 -500)"><circle cx="1250" cy="750" fill="#8f29a3" r="250"/><path d="m1250.0521 500.09326-.061 248.75004-15.9199-248.2399a249.99917 250.18666 0 0 0 -31.6776 4.06945l45.0428 231.17052c-.102.0363-.2268.0547-.3789.0547l2.377 12.94521-.25-.53361-.5352-1.34279-3.3574-10.61339c-.1814.0698-.3456.12506-.5117.12506l-.1211.0782-83.1951-220.24831a249.99917 250.18666 0 0 0 -14.7401 6.13348l96.9 214.60543-.2187.11532 2.3047 4.43886 2.3437 5.21678.055.0488.416.7486.7461 1.26658v.0314l-.7461-1.29782-.4707-.79746-5.5273-9.21c-.1841.12151-.3808.23754-.5664.39678l-123.4077-200.53639a249.99917 250.18666 0 0 0 -34.1776 25.40763l164.5483 186.40079-.3984-.58052.832 1.02616v.0508l-.3262-.32448-.094-.12903v-.006-.002l-176.1809-175.46484a249.99917 250.18666 0 0 0 -21.0273 24.05115l186.5306 143.42536-.1425.18569 10.4687 8.26398-2.0957-1.07698-9.4082-5.66242c-.1395.18156-.2273.33335-.3066.47301l-208.0031-109.74966a249.99917 250.18666 0 0 0 -7 14.40723l214.5266 96.34337c-.074.17741-.1655.3791-.2578.59419l12.1758 4.73596-.037-.0253.5254.23653-.4863-.21109.3574.18179.2129.0802-.2129-.0508v-.0295l-12.8066-4.08117c-.056.14944-.1255.33501-.1758.5082l-224.9661-68.33223a249.99917 250.18666 0 0 0 -8.7656 41.69908l246.1613 30.77687h-1.2363l-246.3644-14.82161a249.99917 250.18666 0 0 0 -.4219 14.51082 249.99917 250.18666 0 0 0 .6113 17.47203l234.4934-16.18786h-.027l.3066-.0234-.2773.0234 12.9687-.73492-7.6699 1.8549-.3028.0508-4.789.9382.07.23845-228.2004 55.91086a249.99917 250.18666 0 0 0 4.2871 15.37279l224.173-70.26921c.093.36314.1859.69573.2793.95971l11.9648-4.46623-6.7285 3.52803-218.2141 100.03556a249.99917 250.18666 0 0 0 21.0155 36.99246l204.0072-139.70972-2.9414 2.38851-191.599 150.2058a249.99917 250.18666 0 0 0 21.2792 23.80097l164.7143-167.43742c.2793.26396.5666.50585.8359.80333l7.6309-8.62753v-.0314l.7578-.86587.1855-.23653.7754-.84633.02-.0645.057-.0272-.023.15832-.1035.11531.051-.18179-.068.18179-1.3203 1.73762.6133-1.0457-.1856.20916-.7578.89715-2.5996 3.67852-4.2753 5.57643.287.1818-133.9214 192.92518a249.99917 250.18666 0 0 0 13.3768 8.68037l121.3629-200.99764c.1115.0698.2562.1641.4043.23263l6.9082-11.76855-.2793.71929-100.1481 226.51466a249.99917 250.18666 0 0 0 40.1346 13.79743l59.6931-236.78211-1.5742 9.22563.2364.0566-42.7675 230.89101a249.99917 250.18666 0 0 0 31.6386 3.76263l12.9316-234.50119c.2415.0238.455.0234.6602.0234h.031v-12.36276l.055-.87175.3809 3.35211.6328 9.85892c.1939 0 .3385-.0234.5058-.0234l27.248 233.23258a249.99917 250.18666 0 0 0 15.7831-2.3455l-42.1484-231.0161c.254-.028.4739-.0916.707-.11531l-2.0644-10.71502-.055-.13878-.3203-1.79235.018.0295.3575 1.90182 74.3923 234.18055a249.99917 250.18666 0 0 0 39.205-16.19959l-111.1503-215.75097 4.1406 6.7179.2696-.18569 120.6715 201.44522a249.99917 250.18666 0 0 0 26.2108-18.10533l-145.5071-184.32505c.254-.18717.4204-.39029.6562-.60397l-8.457-9.554 3.3672 3.03156 5.8437 5.83834.2872-.30686 174.8256 156.82795a249.99917 250.18666 0 0 0 10.2715-12.18293l-184.478-145.35845c.1296-.15783.305-.33279.4082-.48083l-9.3632-7.21437 211.5852 126.78601a249.99917 250.18666 0 0 0 18.7245-38.19257l-229.6555-89.16613 11.0274 3.36579.012-.18569 223.9289 70.91228a249.99917 250.18666 0 0 0 7.6836-30.99187l-231.1887-41.80463c0-.16199.037-.30149.037-.44955l-7.3671-.90693-4.5508-.79941 12.0312.70755c.03-.32965.029-.62841.029-.96361l235.009 1.78454a249.99917 250.18666 0 0 0 .011-2.19892 249.99917 250.18666 0 0 0 -.3809-13.81303l-234.6691 13.37131v-.33226l-11.7754.81114-2.207.14075 2.1641-.14075h.043l242.6422-45.60435a249.99917 250.18666 0 0 0 -11.2772-41.04821l-231.0032 85.65376-.2598.0684 10.5078-4.79069c-.1716-.35894-.395-.80876-.6601-1.20402l208.1651-109.51534a249.99917 250.18666 0 0 0 -7.877-13.90491l-200.7337 122.63837-.2109-.32833-5.6211 3.9033-4.707 2.86542 9.6699-7.59747-.1446-.20719 183.392-147.45376a249.99917 250.18666 0 0 0 -29.3651-30.85701l-161.2514 182.96656-2.3184 2.37091 151.2905-195.53064a249.99917 250.18666 0 0 0 -26.4154-17.96062l-119.2496 202.94829-.094-.0664-7.0644 11.68841 5.539-12.45265c-.2748-.15364-.5655-.24794-.8711-.35962l83.404-220.18189a249.99917 250.18666 0 0 0 -15.121-5.19332l-69.2811 225.07807c-.1088-.0378-.2229-.0651-.3808-.11531l-1.8809 7.53882-1.1289 3.69807 2.1055-11.46558c-.2011-.0197-.4082-.0561-.6133-.0743l40.1268-232.08917a249.99917 250.18666 0 0 0 -42.4354-3.64138zm-1.9453 235.66215 1.0117 8.77021v.043l.8711 4.45646v.46128l.029-.16807.023.62741v.1036l-.057-.1036v-.43977l-.066.30686-.2383-.49451-.5625-4.74964zm-9.3652 5.00568 7.0859 6.37391-.025-.0197zm25.7675 6.02013-11.8261 2.9006h-.057zm-12.1504.11531-1.6269 2.78332-.3496.40069.1113-.44954-.092.20719-.02.18179-.051.10553v-.0253l.051-.0802v-.16221l.02-.0197v-.10556l.012-.0234.082-.12118v-.0234l.033-.0272.061-.1505v.0197l-.061.13096-.033.0508zm-6.5292.23849 3.3242 2.54682.3633.56682-.4493-.16807.2012.13878h-.022l-.2188-.13878h.037zm5.0331.24627-.2968 1.58908.2968-.84047-.3339 1.37603-.1016.1505.1387-.68606.2617-1.56758zm-.582.38505-.086 1.71808-.057.19351-.1172-.46715zm3.1445.7447-2.2754 1.58908h-.023l-.4121.27757-.2871.11728.2129-.27557.074-.0215.8867-.71342zm-4.0429.57856.1348.14075v.0469l-.084-.1251zm3.8633.31665h.029l-.1738.0802zm-3.5254.18179.1835.3577v.0392l-.1835-.35376zm.416.0938.02.26385v.0392l.039.0958.047.11728-.047.0215-.039-.1192.039-.0197-.039-.0605v-.0352l-.057-.26192zm2.2207.0644-.07.0272-1.0156.30686.1562-.0605zm-5.6387.0665 2.3692.40655.3457.21498.029.0606-.3124.0644zm2.1641.31271h.053l.094.0314zm.7265.19155h.02v.0196zm-.164.0606h.02l.074.0802zm.2148.1818h.024l-.024.0314zm-.3359.16808h.057l.2461.0352-.8125.32836zm-.3887.0352h.2168l-.9316.47886.2637-.0527-.025.0272-.2383.0253-2.0253.39287v.0234l-5.2422.93428 5.2422-.95774zm1.7774.0234.5078.043.7519.2228-.8457-.0841zm-.2188.16418.035.0178.1113.22088.3282.16611 1.4394 1.4034-1.3496-1.00858-.2344-.2971-.1855-.26385-.018-.0333-.092-.18766h-.035zm-1.0625.0802-.25.27364h-.029l-2.7812 1.26461 2.2988-1.41316zm1.5703.0997.1485.0253.031.0314zm.2207.0253 1.9356.60398-1.9063-.57074zm-1.1796.17201.031.1251.022-.0978-.022.13092v.006l.076.23066.125 1.89594-.2324-1.35256.031-.77402-.088.50819v-.0919l-.031-.18569.031.14272v-.26385zm.7226.0919.061.0664.088.14661-.037-.0314zm-1.1406.1818-.2442.52578-3.9492 12.85138 3.9219-12.85138h.027l.084-.28732.01-.0117zm-.088.10552-.065.11339.041-.0978zm1.4648.0802.033.0234.1152.18962-.092-.0919zm-.4375.21306.023.0295.029.22669zm-1.7304.26581v.0295l.051-.0295zm2.2929 1.35257 4.8828 10.7893-4.8828-10.73457z" fill="#aa40bf"/></g><path d="m345.06394 9.9054159c-4.977 38.1870001-15.057 86.0309971-8.8506 91.8566941 4.6485 4.365 23.598-30.920394 38.2158-53.378994-16.506 41.623197-32.3802 72.926994-24.3738 87.190194 6.327 11.2725 22.383 3.321 44.0865-8.5716-20.7747 19.1844-31.9347 35.0883-28.2816 47.0565 7.2513 23.7555 41.211 33.0642 101.898 54.3177-31.1607-4.041-74.0547-12.15-81.2592-4.9662-4.833 4.8222 25.3638 22.7493 42.642 35.172-26.1045-9.117-59.0157-22.824-65.169-17.793-4.4442 3.636 16.1613 23.1237 27.3564 36.828-21.42-14.7213-41.031-35.3097-61.551-36-30.168-1.026-47.4516 35.2305-62.3538 90.6174 3.9168-26.2926 15.7104-67.482 7.2405-68.2722-12.015-1.1304-41.0445 41.706-62.7552 73.6524 15.1614-45.9432 28.935-72.1152 19.71-88.5483-8.3268-14.8338-39.5712-5.814-53.1 2.07 15.939-15.0417 49.7205-45.306 49.7205-58.0482 0-18.5454-33.4656-39.4146-95.1768-56.9826 37.098 5.8482 84.9285 16.5798 90.513 9.1035 4.365-5.8446-31.6116-26.1468-53.505-40.5495 38.538 16.5276 62.9604 27.6957 73.8783 21.3273 7.2135-4.2075 3.2004-21.195-7.4988-42.429594 18.7938 21.484794 35.6436 36.611994 48.5262 34.782294 27.18-3.8547 38.9178-39.809694 60.0885-108.4337941z" fill="#eed9f2" opacity=".67" stroke-width=".9"/><g transform="translate(0 14.415037)"><path d="m310.55078 177.30273c18.71483 10.30475 42.6943 3.34038 53.16992-15.74414l17.22461 30.16797 13.59961-36.49219c3.17448-8.51793 6.73482-13.34471 7.82813-14.23242 1.0933-.88771-1.09428-1.09409 3.09961.37305l29.88281 10.45312-6.29883-31.02343c-.39239-1.93306.35813-6.41798 3.33203-10.80078 2.97391-4.38281 7.83098-7.84332 10.625-8.68555l56.98633-17.177735-56.95508-17.279297c-27.92304-8.472254-57.59313-.65267-80.6289 16.246094 1.96296-28.502114-7.29302-57.756622-29.38282-76.8222658l-42.8789-20.7001932c5.44933 15.6441745 18.83302 36.719979 12.11914 52.776365-6.12981 12.513283-24.56404 15.146228-36.92774 19.855469 4.34627 4.165245 27.14189 19.791412 26.78125 22.082031-.16557 1.398781-2.33957 6.987687-7.83984 14.224609l-23.56445 31.003903 34.70214-1.57324c-10.52571 19.05669-3.58878 43.04396 15.12598 53.34863zm40.65039-73.82617c.77371 3.22464 3.18676 6.06832.45508 7.87696-2.22441-2.00816-4.82519-3.0129-7.35547-4.05079.10045-3.52751 5.26882-3.55808 6.90039-3.82617z" fill="#6a1f7a"/><path d="m321.27157 19.91208c4.39265 15.787477-4.39779 37.941565-19.93666 43.859414 13.92979 11.039645 10.08969 24.793656-2.71722 41.644216 10.56283-.58124 19.16084 6.59331 19.96683 19.68115-3.09622 1.84804-5.75686 4.51072-7.61541 7.88611-5.58667 10.14617-1.87524 22.9692 8.26341 28.55172 10.13913 5.5828 22.95912 1.86226 28.54578-8.28391 1.85856-3.37539 2.68595-7.04748 2.59277-10.65167 11.49045-6.3172 22.15086-2.88771 27.3076 6.34931 7.39142-19.83306 16.96064-30.43282 33.73799-24.56362-3.3079-16.29585 10.71295-35.570289 26.40259-40.299778-22.64867-6.871935-48.98964.341271-68.45251 16.204768 6.93737 16.71928-7.37707 31.77813-23.13619 30.27411-1.73905-2.3506-3.99057-4.37407-6.71155-5.8723-2.72099-1.49822-5.63459-2.31813-8.55055-2.53129-9.69747-12.51283-4.62622-32.661142 13.21139-35.73825 2.99884-24.929519-4.99043-51.045576-22.90789-66.510085z" fill="#eed9f2" stroke-width="36"/></g><path d="m345.06394 9.9054159c-4.977 38.1870001-15.057 86.0309971-8.8506 91.8566941 4.6485 4.365 23.598-30.920394 38.2158-53.378994-16.506 41.623197-32.3802 72.926994-24.3738 87.190194 6.327 11.2725 22.383 3.321 44.0865-8.5716-20.7747 19.1844-31.9347 35.0883-28.2816 47.0565 7.2513 23.7555 41.211 33.0642 101.898 54.3177-31.1607-4.041-74.0547-12.15-81.2592-4.9662-4.833 4.8222 25.3638 22.7493 42.642 35.172-26.1045-9.117-59.0157-22.824-65.169-17.793-4.4442 3.636 16.1613 23.1237 27.3564 36.828-21.42-14.7213-41.031-35.3097-61.551-36-30.168-1.026-47.4516 35.2305-62.3538 90.6174 3.9168-26.2926 15.7104-67.482 7.2405-68.2722-12.015-1.1304-41.0445 41.706-62.7552 73.6524 15.1614-45.9432 28.935-72.1152 19.71-88.5483-8.3268-14.8338-39.5712-5.814-53.1 2.07 15.939-15.0417 49.7205-45.306 49.7205-58.0482 0-18.5454-33.4656-39.4146-95.1768-56.9826 37.098 5.8482 84.9285 16.5798 90.513 9.1035 4.365-5.8446-31.6116-26.1468-53.505-40.5495 38.538 16.5276 62.9604 27.6957 73.8783 21.3273 7.2135-4.2075 3.2004-21.195-7.4988-42.429594 18.7938 21.484794 35.6436 36.611994 48.5262 34.782294 27.18-3.8547 38.9178-39.809694 60.0885-108.4337941z" fill="#aa40bf" opacity=".25" stroke-width=".9"/><path d="m88.817389 262.02494-19.043278-29.55814s-18.182149 29.98196-27.638672 49.46484c-7.933549 16.34514-14.731577 30.77624-22.980469 49.67969-11.1056635 5.63515-19.24015498 16.17755-19.15429668 27.04101.1551898 7.99518 2.31054068 9.47006 10.60585768 19.39394 8.295317 9.92389 14.879289 13.93155 22.993752 13.99474 8.114462.0632 13.591528-3.96644 14.474609-4.5 7.429255-4.48884 12.263157-12.89238 14.501953-19.41016 1.696029-4.93765 3.022226-9.502 4.039063-12.79102 10.541279-19.1874 15.13877-27.03214 25.210937-38.52148 8.622505-9.8357 21.955575-35.02239 21.955575-35.02239z" fill="#6a1f7a"/><path d="m38.765725 372.13468c3.336202-2.01577 5.080481-4.88458 6.786514-9.85133 1.70602-4.96674 3.286665-10.45498 4.445682-14.09389 11.296212-20.58934 16.939712-30.28447 28.293674-43.23596 11.941188-13.62132 41.186075-35.45279 41.186075-35.45279l-34.28569-27.74609s-18.25531 30.30226-26.863622 48.03761c-8.954455 18.44847-15.973646 33.09227-25.734668 55.87917-4.495474.92043-8.47126 3.71876-11.359947 6.25378-1.381442 1.17573-3.282291 4.01914-3.236532 6.37754.05772 2.97366 7.413815 11.41906 7.413815 11.41906 7.387266 6.50072 10.37204 4.21505 13.354693 2.4129z" fill="#eed9f2" stroke-width="36"/><path d="m147.60223 286.1582s34.27134-19.13669 51.80664-29.64843c15.58362-9.34178 29.16858-17.70081 46.41602-29.01172 4.52048.45151 8.52147.1481 11.69922-.29883 3.92056-.5053 6.3633-1.46 9.34765-3.02735 3.00233-1.57678 6.51312-3.6145 9.7793-8.83007 1.50413-2.40185 2.36874-4.35832 2.95508-6.10157.33704-.16177.57426-.21928.91406-.38867 3.4395-1.71457 7.12853-3.59219 11.25195-7.69922 2.06171-2.05351 4.42375-4.80836 5.99024-9.3164s1.499-11.09203-.76563-16.00977c-2.01929-4.38497-7.83143-10.94649-15.03711-12.53515-1.80141-.39717-3.42673-.56868-4.89453-.58594-4.4034-.0518-7.39413 1.29121-9.50586 2.13476-1.75081.69938-2.91982 1.29127-4.24218 1.91407-.31647-.12542-.64811-.35544-.95899-.45704-5.60201-1.83065-9.11143-1.401-10.14258-1.4375-8.6746-.30703-17.31792 4.08151-22.75781 8.3125-4.12037 3.20471-7.72832 6.29923-10.37891 8.4961-19.32202 10.29455-27.46055 14.34613-42.17773 18.45312-12.59872 3.51582-50.15625 6.51563-50.15625 6.51563z" fill="#6a1f7a"/><path d="m138.82165 270.44421s34.42408-19.23659 51.3328-29.37272c17.5886-10.54369 31.47573-18.96138 52.11303-32.69536 4.2666 1.689 9.12556 1.52175 12.93049.98016 1.79961-.22839 4.94637-1.56857 6.19833-3.56775 1.57858-2.52074.54469-8.85116.54469-8.85116s21.89526-6.65773 18.70659-13.58206c-2.7568-5.98651-7.76736-.16554-19.71304 4.05514-2.1239-4.71964-5.87284-4.43935-9.35548-4.56262-3.89546-.13788-6.92507 1.30922-11.07042 4.53336s-8.47105 6.95341-11.43207 9.36534c-20.72009 11.05457-30.74827 16.08252-47.33804 20.71208-17.44779 4.869-53.87172 7.14365-53.87172 7.14365z" fill="#eed9f2" stroke-width="36"/><path d="m147.38348 204.22266c-3.13892-.1918-6.45759-.0653-10.2168.10742-3.10412.04-9.00626.26409-16.05468.94336-7.16504.69051-14.12201 1.05994-22.570311 4.61523-9.957671 4.1905-19.835448 10.91001-27.544922 20.79883l-4.523437 5.80078.833984 7.30859c1.484496 13.00058 5.511451 27.72373 6.167969 37.79883 1.079244 16.56245-.382228 34.24785-1.652344 52.83789-1.585063 23.19992-4.381788 46.55086-7.490234 70.07422-4.016254 30.39321-9.778522 58.63421-14.660157 92.95703l-2.919922 20.53516h63.964844l3.125-14.10938c6.50636-29.39278 9.42983-53.7748 15.5039-78.24609.41907 2.06351.78337 3.93487 1.25391 6.11914 4.22241 19.6006.82105 40.87224 4.97265 70.7168l2.15821 15.51953h63.04883l-1.37305-19.2793c-2.15527-30.24231-1.26608-58.01298-4.54297-86.13476-3.39705-29.15291-12.87118-54.30868-17.21289-78.04102l-.0957-.52344-.12696-.51562c-3.49255-14.27023-.51142-22.46709.3711-39.8125.46411-9.12199 7.04557-23.86409 4.02734-43.77344-.84701-5.5872-2.02655-13.08884-4.67969-20.83398-2.65313-7.74514-6.3537-18.44479-20.06445-23.02539-3.34156-1.11638-6.44568-1.6391-9.69922-1.83789z" fill="#6a1f7a"/><path d="m137.63223 222.31363c-4.39677.049-24.34993.9007-32.10802 4.16553-7.813656 3.28823-14.604867 7.92906-20.33223 15.27546 1.157181 10.13409 5.396168 25.64117 6.245212 38.67082 1.197728 18.38074-.400842 36.86212-1.656075 55.23433-1.627068 23.81472-4.476734 47.5412-7.603832 71.20571-4.117232 31.15737-9.8877 59.41648-14.683318 93.13452h28.773099c6.460264-29.18453 9.296004-54.25868 16.108344-80.89589 4.13595-16.17214 1.10512-32.1961 15.00014-47.77853 14.92874 16.73506 16.58409 36.9808 20.82062 56.64691 5.06929 23.53185 1.45048 45.03891 5.2048 72.02751h28.0509c-2.23133-31.30961-1.4006-59.02465-4.466-85.33146-3.06541-26.3068-12.31695-51.0623-17.04084-76.88368-4.44938-18.17973-.88507-30.02283-.12278-45.00526.68396-13.44296 6.22559-26.85291 4.20807-40.16121-1.60298-10.57383-4.61016-26.79834-12.65067-29.48458-2.70887-.905-6.59951-1.15335-13.74742-.82018z" fill="#eed9f2" stroke-width="36"/><path d="m129.19794 140.63477c-3.94747-.26055-7.81151.2362-11.56836 1.26171-8.36004 2.28202-14.79139 7.03958-19.603516 13.50782-7.59551 10.2095-10.809697 22.00936-11.154297 33.44336-.350539 11.6314 1.92292 24.30205 9.648438 35.56836 4.937975 7.20114 12.587985 17.09525 28.019525 18.19531 15.47424 1.10311 25.90378-6.92364 33-16.08789 9.06512-11.70685 8.84345-24.08163 8.73047-32.53711-.15548-11.63563-3.17852-22.99301-8.65625-33.13281-2.73355-5.06007-6.83138-12.27665-16.34375-16.93555-4.09417-2.00522-8.1248-3.02266-12.07226-3.2832zm-3.10938 37.64843c2.55414 4.85514 4.11402 10.83066 4.18555 16.1836.0816 6.10756-1.3454 10.20692-1.19727 10.01562-.3086.39854-.89797.66781-1.43359.9707-.49632-.41023-.91398-.63872-1.4336-1.39648-1.95745-2.8546-3.51875-8.64031-3.35351-14.12305.12666-4.20267 1.49167-8.64335 3.23242-11.65039z" fill="#6a1f7a"/><path d="m148.2717 194.22713c-.11426-8.55076-2.42987-17.29511-6.4944-24.81895-1.99098-3.6855-4.66211-7.4826-8.42404-9.32509-3.29722-1.61489-7.44171-1.78932-10.98356-.8225-3.87882 1.05879-7.5027 3.66135-9.90266 6.88726-4.86562 6.54012-7.35775 15.09474-7.60331 23.24257-.25789 8.55708 1.65924 17.78611 6.50073 24.84657 3.35904 4.89855 8.53062 9.99677 14.45518 10.41911 6.56307.46786 13.45995-3.95141 17.48835-9.15379 4.4585-5.75778 5.061-13.99365 4.96371-21.27518z" fill="#eed9f2" stroke-width="36"/><path d="m49.997955 348.18894c-1.159016 3.63891-2.739237 9.12721-4.445255 14.09394-1.706032 4.96674-3.451359 7.83628-6.787557 9.85206-2.98265 1.80214-5.966493 4.08785-13.353751-2.41286 0 0-7.356575-8.44593-7.414293-11.4196-.04576-2.35839 1.854617-5.20091 3.236058-6.37664 2.888685-2.53502 6.864627-5.33447 11.360096-6.25491 9.761011-22.78687 16.780439-37.4306 25.734886-55.87905 6.746152-13.89882 17.98626-33.0982 23.152522-41.80012l-9.548353-9.96711s-16.240677 28.00045-25.074947 46.20132c-8.195354 16.88453-15.075739 31.43845-23.68589 51.2664-4.324663 1.96758-7.692628 4.53344-10.226992 6.7502-2.336641 1.99471-3.6523175 3.79911-5.0028146 6.22308-1.3564302 2.43462-2.7835665 5.38227 1.4841138 16.30543 4.2676808 10.92316 7.5613508 14.5232 7.5613508 14.5232 4.88935 4.30258 10.309825 7.4479 16.65345 7.4973 6.343624.0494 10.657962-3.10306 11.718428-3.7438 6.235559-3.76761 10.169047-10.55621 12.252468-16.62164 1.702188-4.95557 3.106681-9.79637 4.1561-13.16558 10.775923-19.62139 15.668063-27.98965 26.111204-39.90215 9.590337-10.93972 25.977441-31.65566 25.977441-31.65566-11.97518 1.10129-25.466236 11.73081-35.565248 23.25095-11.353948 12.95167-16.996818 22.64592-28.293017 43.23524z" fill="#6a1f7a"/><path d="m38.765725 372.13468c3.336202-2.01577 5.080481-4.88458 6.786514-9.85133 1.70602-4.96674 3.286665-10.45498 4.445682-14.09389 11.296212-20.58934 16.939712-30.28447 28.293674-43.23596 11.941188-13.62132 41.186075-35.45279 41.186075-35.45279l-34.28569-27.74609s-18.25531 30.30226-26.863622 48.03761c-8.954455 18.44847-15.973646 33.09227-25.734668 55.87917-4.495474.92043-8.47126 3.71876-11.359947 6.25378-1.381442 1.17573-3.282291 4.01914-3.236532 6.37754.05772 2.97366 7.413815 11.41906 7.413815 11.41906 7.387266 6.50072 10.37204 4.21505 13.354693 2.4129z" fill="#eed9f2"/></svg>