<svg height="500.00003" viewBox="0 0 500 500" width="500" xmlns="http://www.w3.org/2000/svg"><g transform="translate(-500)"><path d="m926.7767 73.223311c45.24113 45.241099 73.2233 107.741109 73.2233 176.776699 0 69.0356-27.98221 131.53559-73.2233 176.77669-45.2411 45.2411-107.74109 73.22332-176.77669 73.22332-69.03559 0-131.5356-27.98219-176.7767-73.22332-45.2411-45.2411-73.22331-107.74109-73.22331-176.77669 0-69.03559 27.9822-131.5356 73.22331-176.776699 45.2411-45.241105 107.74111-73.22330934 176.7767-73.22330934 69.0356 0 131.53559 27.98220534 176.77669 73.22330934z" fill="#3b2f4f"/><g clip-rule="evenodd"><path d="m730.6486 0c-128.19182 22.346591-234.17086 139.43202-223.06447 273.24395 5.6201 44.55936 16.72649 83.63245 44.55937 122.70552l50.17947 50.17947c33.45298 22.34661 72.52606 44.55938 111.46533 50.17946 39.07308 5.62012 78.01235 5.62012 111.46534-5.62008 39.07308-16.72649 72.52607-33.45297 100.35893-61.28587 33.45297-39.07306 55.79958-83.63245 66.90595-139.43201v-61.28587c-5.62008-27.83287-11.10637-50.17947-22.34657-78.01235-11.10641-22.34659-27.8329-44.55937-50.17947-61.285858-27.83289-27.832879-61.28586-44.559368-100.35895-55.799569-27.83288-5.620101-55.79957-11.10639-89.25255-5.620101-78.01235 11.106391-139.43202 61.28586-172.885 128.191818-11.10639 27.83288-16.72649 61.28586-22.34659 89.25255 0 33.45298 5.6201 66.90596 16.72649 94.73885 22.34659 44.55936 55.79957 89.25254 105.97904 111.46532 16.72649 5.62012 33.45298 11.1064 55.79957 16.72648 122.70553 22.34661 234.17085-55.79954 250.89734-178.37127 11.10641-78.01236-22.34657-139.43203-72.52604-189.6115-100.35895-89.25255-267.62385-44.559369-312.18322 78.01235-5.6201 27.83288-16.72649 55.79958-16.72649 83.63245 5.6201 78.01235 55.79957 150.53843 133.81192 172.885 61.28586 16.72649 122.70553 5.62012 172.885-33.45298 11.10639-11.10637 22.34659-22.34657 33.45299-33.45297 61.28584-83.63246 44.55935-195.09778-44.55937-256.51746-27.83288-16.726488-55.79958-22.346588-89.25256-27.832879-22.34659-5.620101-44.55937 5.620101-66.90596 11.106391-27.83288 16.726488-50.17947 22.346588-72.52606 50.179468-27.83288 33.45298-33.45298 66.90596-39.07308 105.97904 0 55.79958 27.83288 117.08544 83.63245 144.91833 78.01235 44.55934 183.99139 11.10637 223.06447-72.52607 22.3466-55.79958 11.1064-128.19183-39.07308-172.88501-33.45298-27.83288-66.90596-39.07308-111.46533-39.07308-66.90596 5.6201-111.46533 55.79957-122.70553 122.70553-11.10639 72.52606 33.45298 139.43202 105.97904 150.53843 100.35894 16.72649 183.99138-89.25257 139.43202-178.37131-11.10638-16.72649-27.83288-39.07308-50.17947-50.17947-27.83288-11.10639-55.79957-16.72649-83.63245-11.10639-33.45298 5.6201-55.79957 27.83288-72.52606 50.17947-16.72649 27.83288-16.72649 55.79957-11.10639 83.63245 11.10639 33.45298 39.07308 61.28586 72.52606 72.52607 44.55937 16.72649 89.25255-5.62011 111.46533-39.07309 33.45298-55.79957 5.6201-117.08543-50.17947-139.43202-50.17947-16.72649-122.70553 27.83288-105.97904 89.25255 5.6201 16.72649 11.10639 39.07309 27.83288 50.17947 22.34659 16.7265 50.17947 16.7265 72.52606 11.1064 22.34659-11.1064 39.07308-33.45299 39.07308-61.28587-5.6201-16.72649-5.6201-39.07308-22.34659-50.17947-13.91644-8.36324-29.2379-11.13984-43.17107-8.34651-13.93317 2.79332-26.47803 11.15656-34.84128 25.073-5.6201 16.72649-11.10639 33.45298 9.50065 44.827 41.74932-49.10898 35.32635.40143 29.84006-16.45887v5.6201c16.72649-5.6201 22.34659-22.34659 27.83288-33.45298 5.6201 5.6201 16.72649 11.10639 16.72649 22.34659 11.10639 39.07308-27.83288 72.52606-66.90596 61.28586-33.45298-11.10639-44.55937-50.17947-39.07309-83.63245 5.62011-22.34659 22.3466-39.07308 50.17948-44.55937 33.45298-5.6201 66.90596 11.10639 83.63245 39.07308 16.72649 27.83288 16.72649 50.17947 0 78.01235-33.45298 55.79958-105.97905 55.79958-150.53841 11.10639-33.45298-44.55937-22.3466-117.08543 27.83288-144.91831 16.72648-11.10639 39.07308-16.72649 61.28586-16.72649 11.10638 0 27.83288 5.6201 39.07308 11.10639 27.83288 11.10639 39.07308 39.07308 55.79957 61.28586 5.6201 16.72649 5.6201 27.83288 5.6201 44.55937-5.6201 72.52606-72.52606 122.70554-144.91831 105.97904-83.63246-22.34659-122.70554-122.70553-72.52606-195.09778 11.10638-16.72649 22.34659-27.83288 39.07308-39.07308 78.01235-44.559372 167.2649-5.6201 200.71788 66.90596 39.07309 94.73884-39.07308 206.33797-139.43202 200.71788-27.83288-5.62012-55.79958-5.62012-78.01235-22.3466-22.34659-11.10638-27.83288-27.83287-39.07309-39.07307-66.90596-78.01235-33.45298-195.09778 55.79958-239.79097 39.07308-16.726484 83.63245-16.726484 128.19182-5.6201 94.73883 33.45298 139.43201 144.91832 94.73883 234.17087-11.10637 27.83288-33.45297 44.55935-55.79956 66.90596-22.34659 16.72649-50.17947 27.83289-78.01235 33.45298-44.55937 5.62012-89.25256-5.62009-128.19182-27.83286-94.73884-66.90598-117.08544-211.82429-22.3466-289.97045 16.7265-11.1064 27.83288-33.452984 50.17948-39.073085 33.45298-11.106392 66.90596-22.346593 105.97904-16.726492 27.83288 5.6201 55.79957 16.726492 78.01235 27.832879 16.72649 16.726488 39.07309 22.346598 50.17946 44.559368 11.10641 16.72649 27.8329 33.45298 33.45298 55.79957 22.34661 66.90596 16.72649 139.43203-27.83286 195.09781-16.72649 22.34657-33.45298 44.55934-61.28587 55.79954-22.34659 5.62012-39.07308 22.34661-61.28586 22.34661-39.07308 0-83.63245 5.62008-122.70553-11.10641-117.08543-44.55934-167.26491-195.09777-105.97905-306.69691 16.7265-33.45298 44.55937-61.285864 78.01236-83.632457 44.55936-22.34659 89.25255-33.452979 139.43202-27.832879 61.28586 5.6201 111.46532 39.07308 156.1585 83.632456 22.34661 22.34659 27.8329 50.17947 39.0731 78.01234 11.10637 16.7265 5.62008 39.07309 11.10637 61.28586 11.10645 172.88502-195.09777 301.07685-351.25629 211.82429-27.83287-16.72649-50.17946-27.8329-66.90596-50.17947-61.28586-72.52608-78.01235-167.26492-50.17947-256.51747 16.72649-33.45298 39.07309-61.28586 61.28587-89.252546 39.07308-39.073083 94.73884-55.799574 144.9183-72.526064" fill="#221b35" opacity=".9"/><path d="m731.45148 15.388371c-120.56454 21.008472-220.12061 131.001869-209.68329 256.785079 5.21867 41.88313 15.78981 78.68141 41.88314 115.34586 15.7898 15.65602 31.4458 31.44582 47.23561 47.1018 31.4458 21.0085 68.11026 41.88314 104.77473 47.23563 36.66447 5.21866 73.32893 5.21866 104.77473-5.21866 36.66447-15.65601 68.11026-31.44582 94.33742-57.67295 31.44579-36.66448 52.45425-78.68141 62.89161-131.00187v-57.67294c-5.2187-26.22714-10.43736-47.23561-21.00851-73.32894-10.43731-21.00847-26.22712-41.88313-47.10179-57.672935-26.22713-26.227136-57.67292-41.88313-94.33739-52.454272-26.22714-5.218666-52.45427-10.43733-83.90008-5.218666-73.32893 10.437332-131.00187 57.672938-162.44767 120.564543-10.43733 26.22713-15.78981 57.67294-21.00847 83.90008 0 31.44579 5.21866 62.8916 15.78981 89.11874 21.00847 41.88313 52.45427 83.90006 99.55607 104.77473 15.7898 5.21866 31.4458 10.43732 52.45427 15.65601 115.34588 21.00847 220.12062-52.45428 235.91043-167.66635 10.43732-73.32894-21.00847-131.00188-68.11026-178.23748-94.33742-83.900079-251.56643-41.883137-293.44956 73.32893-5.21867 26.22713-15.78981 52.45427-15.78981 78.68141 5.21866 73.32893 52.45427 141.573 125.78321 162.44767 57.67293 15.78981 115.34587 5.21866 162.44767-31.44578 10.43733-10.43736 21.00849-21.00849 31.4458-31.44582 57.67295-78.68141 41.88314-183.45615-41.88313-241.12909-26.22714-15.7898-52.45428-21.008465-83.90008-26.227131-21.00847-5.218666-41.88313 5.218666-62.8916 10.437331-26.22714 15.7898-47.23561 21.00847-68.11027 47.1018-26.22713 31.4458-31.4458 62.8916-36.66447 99.55606 0 52.45428 26.22714 110.12722 78.68142 136.22052 73.32893 41.88314 173.01881 10.43736 209.68327-68.11025 21.00847-52.45427 10.43736-120.56454-36.66446-162.44767-31.4458-26.22714-62.8916-36.66447-104.77473-36.66447-62.89161 5.21867-104.77474 52.45428-115.34588 115.34588-10.43733 68.11027 31.4458 131.00187 99.55607 141.57302 94.3374 15.65599 173.01881-83.90008 131.00187-167.66635-10.43733-15.7898-26.22714-36.66446-47.1018-47.2356-26.22713-10.43733-52.45427-15.656-78.68141-10.43733-31.4458 5.21866-52.45427 26.22713-68.11027 47.23561-15.7898 26.22713-15.7898 52.45427-10.43732 78.6814 10.43732 31.44581 36.66446 57.67295 68.11026 68.11027 41.88314 15.78981 83.90008-5.21866 104.77474-36.66446 31.4458-52.45428 5.21866-110.12721-47.1018-131.00187-47.23561-15.78981-115.34588 26.22713-99.55607 83.90007 5.21867 15.65599 10.43733 36.66447 26.22714 47.23561 21.00847 15.78981 47.10179 15.78981 68.11027 10.43733 21.00847-10.43733 36.66446-31.4458 36.66446-57.67294-5.21866-15.7898-5.21866-36.66447-21.00847-47.23561-13.11356-7.8949-27.5318-10.50423-40.62864-7.86145-13.09684 2.64279-24.87229 10.53769-32.70029 23.65126-5.21867 15.656-10.43733 31.4458 8.9654 42.15076 39.20689-46.70036 33.05154-.26763 27.96669-16.05744v5.21867c15.78981-5.21867 21.00847-21.00847 26.22714-31.4458 5.21866 5.21866 15.65599 10.43733 15.65599 21.00847 10.43733 36.66447-26.22714 68.11027-62.8916 57.67294-31.4458-10.43733-41.88313-47.23561-36.66447-78.68141 5.21867-21.00848 21.00847-36.66447 47.1018-41.88314 31.4458-5.21866 62.8916 10.43734 78.68141 36.66447 15.65599 26.22714 15.65599 47.23561 0 73.32893-31.4458 52.45428-99.55607 52.45428-141.57302 10.43734-31.4458-41.88313-21.00847-110.12722 26.22714-136.22054 15.78981-10.43733 36.66447-15.656 57.67294-15.656 10.43733 0 26.22714 5.21867 36.66447 10.43733 26.22713 10.43733 36.66446 36.66447 52.45427 57.67294 5.21866 15.78981 5.21866 26.22714 5.21866 41.88314-5.21866 68.11026-68.11026 115.34586-136.22053 99.55606-78.68141-21.00847-115.34588-115.34587-68.11027-183.45614 10.43733-15.656 21.00847-26.22714 36.66447-36.66447 73.32893-41.88313 157.22901-5.21866 188.67481 62.8916 36.66448 89.11874-36.66447 193.89349-131.00188 188.67483-26.22713-5.21866-52.45427-5.21866-73.32893-21.00848-21.00847-10.43734-26.22713-26.22714-36.66447-36.66447-62.8916-73.32893-31.4458-183.45615 52.45428-225.33928 36.66446-15.789805 78.68141-15.789805 120.56454-5.21866 89.11872 31.4458 131.00186 136.22053 89.11872 220.12061-10.43731 26.22714-31.44578 41.88313-52.45425 62.89162-21.00847 15.78977-47.23561 26.22712-73.32894 31.44578-41.88313 5.21866-83.90007-5.21866-120.56454-26.22712-89.11874-62.89162-110.12721-199.11215-21.00847-272.5749 15.656-10.43733 26.22714-31.445801 47.1018-36.664467 31.4458-10.437328 62.8916-21.00847 99.55607-15.655994 26.22713 5.218666 52.45427 15.655994 73.32893 26.227136 15.65599 15.789805 36.66446 21.008475 47.10181 41.883135 10.43732 15.7898 26.22713 31.4458 31.44578 52.45427 21.00847 62.8916 15.78981 131.00187-26.22712 183.45615-15.78981 21.00846-31.44582 41.88313-57.67295 52.45428-21.00847 5.21866-36.66446 21.00847-57.67294 21.00847-36.66446 0-78.68141 5.21866-115.34587-10.43735-110.12721-41.8831-157.22901-183.45614-99.55607-288.23087 15.7898-31.4458 41.88313-57.672937 73.32893-78.681407 41.88313-21.008474 83.90008-31.445802 131.00187-26.22714 57.67294 5.218666 104.77473 36.664468 146.79166 78.681417 21.00851 21.00847 26.22717 47.10179 36.66448 73.32893 10.43732 15.78981 5.21866 36.66446 10.43732 57.67293 10.43735 162.44767-183.45613 283.01222-330.24781 199.11215-26.22713-15.65601-47.23561-26.22713-62.8916-47.23563-57.67294-68.11025-73.32893-157.22899-47.23561-241.12907 15.78981-31.4458 36.66447-57.67293 57.67294-83.900069 36.66447-36.664468 89.11874-52.454275 136.22054-68.11027" opacity=".9"/></g></g><path d="m236.44531 113.91406c2.56529.0604 5.05371.18979 7.46094.30078 9.62894.44397 17.48047 1.5586 17.48047 1.5586l10.67773 1.50781 3.70899 10.125s.73433 1.57442 1.13672 2.52539l11.36133-.80664-.92774 20.21289c-.61727 13.44145-1.8369 25.94126-9.65625 37.52344-8.51038 12.60572-20.39397 17.18729-28.00781 20.80078-14.07846 6.68158-27.18926 7.90774-38.06836 9.5625s-19.74716 3.42195-29.79883 9.20703l-17.95117 10.33203-7.72852-19.21875c-6.38547-15.88113-9.3233-34.28648-1.74609-51.58008 11.14373-25.43351 34.90372-40.24851 56.95117-48.44726 9.0167-3.35303 17.41155-3.78462 25.10742-3.60352z"/><path d="m262.7684 176.78919c-4.74195 7.02386-13.15001 10.97761-20.80624 14.61122-21.62391 10.26263-43.48761 4.67292-69.12823 19.42997-5.37508-13.36821-7.0026-26.13333-1.96038-37.64127 8.12602-18.54615 27.76035-31.74208 46.73886-38.79959 12.89289-4.79446 41.25888-.79212 41.25888-.79212s5.59092 15.26196 10.49136 14.91427c-.60695 13.21665-1.1786 20.25575-6.59425 28.27752z" fill="#775fa0" stroke-width="36"/><path d="m361.63086 263.59961 7.58594 18.75781c-.96999-2.39823.43979-.52121 1.58789.35547.67527.0251 2.99243.48492 5.02539.45898 3.06343-.0391 5.5625-.30078 5.5625-.30078l16.17773-1.74414 3.36133 15.91992s1.67851 7.92795 3.13281 17.80079c1.4543 9.87283 3.02795 21.20399 1.8125 32.39648-1.68497 15.51618-3.51997 36.58401-18.9707 53.36523-12.15182 13.19825-29.22081 19.27794-46.60156 20.54688l-20.6582 1.50781 1.38671-20.66601c1.6196-24.11574-8.75315-43.41113-12.71679-66.36328h.002c-2.02519-11.72605-1.2083-26.17853 6.71094-38.1211l.002-.002c6.19117-9.33446 15.63753-16.9551 28.85352-24.19336z"/><path d="m364.42425 299.76713c-4.92044-2.03324-10.05127-6.10642-11.89333-10.66077-11.60415 6.35547-18.6231 12.5099-22.49942 18.35425-5.1979 7.83867-5.63882 15.48734-3.97669 25.11122 3.09962 17.94888 14.92095 41.11417 12.93858 70.63165 14.37009-1.04914 26.16039-5.54411 34.67057-14.78712 10.25746-11.14075 12.68348-28.06059 14.31839-43.11579 1.61135-14.83814-4.6613-44.53284-4.6613-44.53284s-13.06715 1.40834-18.8968-1.0006z" fill="#775fa0" stroke-width="36"/><path d="m402.51758 257.13672c11.68717-.46814 23.53299 1.06255 36.75586 5.61914l1.10547.38086 1.04687.51953c12.80865 6.36979 20.76556 18.45696 24.87891 29.63281v.002c8.04275 21.85738 8.71176 43.77119 22.16211 63.83789l11.5332 17.20507-18.64648 9.01954c-13.55016 6.555-29.48196 10.91051-45.96485 6.48242-23.23895-6.24309-37.70548-23.91055-48.51758-38.02539-6.99707-9.13447-11.14369-19.61165-14.73242-28.80078-3.58872-9.18914-5.99023-16.84961-5.99023-16.84961l-3.8418-12.23438 22.67188-16.77734c.0432-.45305.12279-.96246.11718-1.13282l-3.36914-18.04492z"/><path d="m440.05783 372.45284c10.9051 2.92963 21.94349.26766 33.45773-5.30245-16.46599-24.56574-17.81505-50.55223-24.10391-67.64316-3.37325-9.16503-7.57996-15.54589-16.00175-19.73408-11.55218-3.98087-20.18002-5.05083-30.1711-4.65063.87468 4.68528-3.09903 13.20027-3.09903 13.20027l-16.81872 12.44494s8.94377 28.48347 17.8395 40.09657c10.15698 13.25962 22.76649 27.25504 38.89728 31.58854z" fill="#775fa0" stroke-width="36"/><path d="m328.35352 222.62305c14.66119-.31949 28.41123 4.04191 40.13867 10.21875 10.31119 5.43091 20.77533 13.12933 28.23242 24.29687 5.54588 2.96301 10.99626 8.13434 12.84375 15.01367 2.22756 8.29109-1.20826 17.29457-5.76953 22.66797-5.08019 5.98349-11.46074 9.70473-19.36719 11.82422h-.002-.002c-7.92025 2.1211-15.33421 2.05378-22.66602-.56836-6.5796-2.35152-14.09998-8.39601-16.33008-16.71289v-.002l-.002-.002c-.61464-2.2936-.72216-4.62675-.56641-6.9375-4.21268-2.56531-8.98629-4.25783-14.00781-4.77148-7.65669-.7832-17.58144 1.99635-22.54688 6.09961-5.27322 4.3576-9.99368 15.23162-12.67968 27.44531-.43511 1.97851-.65713 11.35399-.0566 18.75781.60048 7.40383 1.50976 13.3418 1.50976 13.3418l-35.58203 5.47266s-1.09718-7.10873-1.81055-15.9043c-.26271-3.23917-.42199-6.78731-.55468-10.32031l-28.68164-4.23438s1.71192-17.08876 7.16406-30.76562c4.15358-10.41942 9.29934-23.81389 21.22265-34.68945 17.05532-15.5566 39.13993-27.03129 63.17774-29.79883 2.12839-.24505 4.24148-.386 6.33594-.43164z"/><path d="m279.29112 346.03192s-4.01385-26.09582-1.24156-38.70182c3.00026-13.64266 8.02425-28.55809 18.7921-37.45626 9.57114-7.90926 23.49288-11.39401 35.84468-10.13055 12.49552 1.27815 24.85443 6.98015 33.43589 17.37774-.43615.40448-.84361.81852-1.19492 1.23196-2.10067 2.47348-2.57326 4.62015-2.11023 6.348.46363 1.72905 1.94772 3.33383 5.00432 4.42539 3.05601 1.09335 7.41149 1.34667 11.94919.13144 4.53771-1.21643 8.20611-3.61344 10.30618-6.08692 2.10066-2.47468 2.57325-4.62075 2.10903-6.3486-.46184-1.72786-1.94653-3.33263-5.00253-4.42479-.81493-.29156-1.73084-.51142-2.70769-.67274-4.90125-9.89333-14.4967-17.75618-24.37111-22.95704-10.87366-5.72715-23.81881-9.2366-36.02785-7.83094-19.46791 2.2414-38.62906 12.00928-53.10742 25.21537-8.03229 7.32646-12.60648 17.95676-16.63229 28.05566-3.38359 8.48784-6.07663 26.7302-6.07663 26.7302" fill="#775fa0" stroke-width="36"/><path d="m272.48084 215.27095c-4.86634 9.03549-13.19312 15.91211-17.9919 24.98366-5.4345 10.27331-10.58581 21.21939-11.92365 32.7643-1.8516 15.97852.20478 29.27718 5.69499 47.91911-11.89064-7.95816-22.85542-10.93868-35.19395-11.6863-9.04368-.54799-18.52888 1.35393-26.64135 5.3883-9.22434 4.58732-17.05915 12.16112-23.16564 20.45828-6.33629 8.60941-10.92733 18.79974-13.12182 29.2618-2.34695 11.18891-1.35126 22.98002.27533 34.29612 1.24188 8.63976 3.27164 17.37604 7.17355 25.1839 3.48686 6.97732 8.32766 13.44676 14.15003 18.63726 5.60999 5.00116 12.08383 9.76654 19.39899 11.49052 8.6402 2.03628 18.39973 1.57751 26.56204-1.91197 6.65993-2.8472 13.98847-7.66193 16.10273-14.5895 3.57098-11.70062 6.9094-28.17163-8.80319-35.62882v.0006.0006c5.59312 9.62118.73834 18.83819-4.84251 25.41159-5.58157 6.57426-15.99488 11.25325-24.29238 8.90243-8.91279-2.52515-13.91085-13.16856-17.20015-21.82852-3.99362-10.51431-2.8345-22.46915-1.97718-33.68364.63929-8.36248 2.24851-16.77972 5.27523-24.60141 3.15527-8.1539 5.63763-18.27412 13.19657-22.66776 8.76926-5.09713 20.74329-3.3031 30.42765-.28754 11.10769 3.45876 20.54869 11.63276 28.54285 20.08481 7.91102 8.36416 14.14667 18.5605 18.27354 29.30817 5.36977 13.98455 8.74718 29.2946 7.8563 44.24814-1.11875 18.77832-6.81987 37.80802-16.39339 54.00137-4.37964 7.40803-13.82999 14.49944-18.03013 18.47852h52.96896c6.11544-11.2869 9.3304-23.81023 10.86496-36.36934 1.59947-13.09038.24993-26.50208-1.86402-39.51928-2.21332-13.62912-6.46051-26.915-11.24228-39.86823-4.75713-12.88646-12.55856-24.51293-17.2699-37.4162-7.65829-20.97432-19.9206-42.37919-17.72182-64.59937 1.37553-13.90078 12.55638-24.95667 18.7921-37.45626 6.55799-13.14558 14.68938-25.6302 19.58455-39.48123 3.59461-10.17101 8.24439-20.87107 7.0293-31.58994-.95875-8.45752-5.35272-14.97866-10.98499-23.05145.3283-.93406.57597-1.84284.71222-2.69758.51197-3.20466-.18112-5.27811-1.47399-6.51393-1.29173-1.2379-3.40064-1.85555-6.58057-1.20373-3.17859.65187-7.04431 2.71561-10.29294 6.10926-3.24758 3.39422-5.11993 7.33487-5.63086 10.54011-.51278 3.20489.18059 5.27783 1.47366 6.51579 1.89867 1.7389 5.62269 1.58914 8.23539.74713 2.34128 5.87641 3.84205 11.23426 3.35522 16.98466-1.0512 12.41701-7.39858 23.96419-13.30755 34.93557z" fill="#775fa0" stroke-width="36"/><path d="m214.1543 291.28516c14.57876.88336 29.70228 5.04576 44.11719 14.69336l-11.67383 17.44335c8.17848 5.16556 14.98289 11.43222 20.60742 17.37891 9.68453 10.23925 17.06375 22.36905 22 35.22461l-33.60742 12.9043c-3.31748-8.63976-8.40938-16.90353-14.54688-23.39258-7.11369-7.52115-14.63247-13.34139-20.81836-15.26758-7.59798-2.36589-15.00321-1.93348-16.03125-1.33594 1.34321-.78074-1.63748 3.73606-5.45508 13.60157-2.23312 5.77087-3.579 12.48979-4.11328 19.47851-.87719 11.47459-1.1195 20.72027.85547 25.91992 1.43925 3.7892 3.14598 7.42944 4.52539 9.44727.42507.62179.56936.72975.80078.98437 1.04084-.6471 4.73528-1.7226 5.61914-2.76367 1.75851-2.07125 2.80739-4.11952 2.98829-4.74219l-2.42579-4.16796v-4.85352-28.4668l25.71875 12.20508c12.93995 6.1413 20.66445 19.62488 21.81641 30.60742s-1.49893 19.92925-3.51562 26.53711c-4.82441 15.80761-17.22663 22.03246-26.24219 25.88672-12.40662 5.30397-25.59416 5.74983-37.76758 2.88086-12.21571-2.8789-20.74318-9.77529-27.24805-15.57422-7.66876-6.83651-13.79751-15.07087-18.27343-24.02734-5.18619-10.37774-7.49694-20.98761-8.88868-30.66992-1.72994-12.03513-3.15274-25.87611-.0742-40.55274 2.74786-13.10025 8.34512-25.50693 16.24023-36.23437 7.36359-10.00525 16.98983-19.61105 29.64844-25.90625 11.1017-5.52093 23.43222-7.98431 35.74414-7.23828z"/><path d="m248.26028 320.93802c-11.89064-7.95816-22.85542-10.93868-35.19395-11.6863-9.04368-.54799-18.52888 1.35393-26.64135 5.3883-9.22434 4.58732-17.05915 12.16112-23.16564 20.45828-6.33629 8.60941-10.92733 18.79974-13.12182 29.2618-2.34695 11.18891-1.35126 22.98002.27533 34.29612 1.24188 8.63976 3.27164 17.37604 7.17355 25.1839 3.48686 6.97732 8.32766 13.44676 14.15003 18.63726 5.60998 5.00116 12.08382 9.76654 19.39898 11.49052 8.64021 2.03628 18.39974 1.57751 26.56205-1.91197 6.65993-2.8472 13.98847-7.66193 16.10273-14.5895 3.57098-11.70062 6.9094-28.17163-8.80319-35.62882v.0006.0006c5.59312 9.62118.73834 18.83819-4.84251 25.41159-5.58157 6.57426-15.99488 11.25325-24.29238 8.90243-8.91279-2.52515-13.91085-13.16856-17.20015-21.82852-3.99362-10.51431-2.8345-22.46915-1.97719-33.68364.6393-8.36248 2.24852-16.77972 5.27524-24.60141 3.15527-8.1539 5.63763-18.27412 13.19657-22.66776 8.76926-5.09713 20.74329-3.3031 30.42765-.28754 11.10769 3.45876 20.54869 11.63276 28.54285 20.08481 7.91102 8.36416 14.14667 18.5605 18.27354 29.30817" fill="#775fa0" stroke-width="36"/><path d="m273.45508.12304687 19.38867 7.28710933c14.29629 5.3733958 27.8948 14.1685398 36.14649 28.4003908 12.17817 21.003924 21.45635 50.027244 8.84179 77.130863-4.30595 9.25174-10.24557 15.606-15.79492 22.05078s-10.5 11.62109-10.5 11.62109l-9.04492 9.47266-11.79688-5.69336s-1.53181-.72931-3.45312-1.42383c-.56229-.20326-1.03147-.22216-1.58203-.29688-1.18008.89086-5.14861 3.77501-2.76758.47852l-12.38281 17.14453-14.94532-14.96289c-7.71149-7.72167-18.26105-17.4562-22.18164-33.51172-3.62517-14.84574 1.07584-26.731205 3.54297-34.755857 4.58067-14.899239 12.53739-25.399284 18.66992-34.541016 6.13254-9.141731 10.82306-16.872222 13.34766-28.183593z"/><path d="m313.41847 44.839382c-5.66385-9.76856-14.93463-16.079334-26.90762-20.579494-6.44209 28.863536-25.3453 41.215378-32.37947 64.094966-2.48873 8.094899-5.2713 16.969076-3.26233 25.196176 2.4139 9.88535 9.79685 17.41534 17.43221 25.06078 2.79075-3.86375 10.22706-7.74864 16.30336-8.35417 4.79587-.47792 13.91605 3.92465 13.91605 3.92465s18.67062-19.54977 22.9928-28.83638c8.58621-18.44831 2.11166-42.902908-8.095-60.506528z" fill="#775fa0" stroke-width="36"/><path d="m222.30859 18.90625 9.91797.837891c32.5013 2.74423 54.47764 28.252091 68.20508 50.367187 8.38689 13.511359 10.76008 29.034657 8.9043 43.609372-1.33629 10.49466-6.23389 18.63169-11.71094 25.00391-5.77047 6.71362-11.15628 8.83246-14.59375 10.45898h-.002c-15.56427 7.3657-32.25918 4.10318-43.08203-1.30664-15.35219-7.67379-25.03689-21.29895-29.83203-35.90429-8.11232-24.708982-13.77789-58.531508 6.21093-85.111332z"/><path d="m275.33084 132.91352c-10.27064 4.86105-19.17805 2.94086-27.33543-1.13662-9.78889-4.89298-17.3651-15.02117-20.77878-25.41877-7.15024-21.778622-10.31719-50.311988 3.49474-68.678184 22.55871 1.904733 42.3497 22.467067 54.42715 41.924007 5.70785 9.195407 7.70928 21.107007 6.34225 31.843217-.72679 5.70792-3.7561 11.18069-7.50673 15.54432-2.27648 2.64856-6.12227 4.72911-8.6432 5.92203z" fill="#775fa0" stroke-width="36"/><path d="m290.61328 121.28516c5.88485.0516 12.41236 1.90626 17.06055 6.35547 4.93156 4.72004 6.92937 11.60706 7.03516 17.71093 4.57709 6.93911 8.96194 15.02438 10.15234 25.52539 1.945 17.1578-4.65218 30.30278-7.94336 39.61524-5.84962 16.55166-14.51222 29.61874-20.44922 41.51953-8.17984 16.3966-16.45994 25.8738-16.98633 31.19336-1.44144 14.56672 8.28857 33.56934 16.7168 56.65234 3.71043 10.162 11.4949 21.77288 17.24805 37.35742 4.96737 13.45602 9.62238 27.81832 12.12304 43.2168 2.23323 13.75168 3.89167 28.81839 1.96485 44.58789-1.72693 14.13348-5.39286 28.89276-12.90625 42.75977l-5.10742 9.42578h-108.86133l32.79297-31.06641c6.23491-5.90676 13.74824-12.59701 14.91601-14.57226 8.02275-13.57026 12.97414-30.03706 13.91992-45.91211.68689-11.52949-1.99216-24.48633-6.6914-36.72461-3.31748-8.63976-8.40938-16.90353-14.54688-23.39258-7.11369-7.52115-14.63247-13.34139-20.81836-15.26758-7.59798-2.36589-15.00321-1.93348-16.03125-1.33594 1.34321-.78074-1.63748 3.73606-5.45508 13.60157-2.23312 5.77087-3.57901 12.4898-4.11328 19.47851-.8772 11.47457-1.1195 20.72027.85547 25.91992 1.43925 3.7892 3.14598 7.42944 4.52539 9.44727.42507.62179.56936.72975.80078.98437 1.04084-.6471 4.73528-1.7226 5.61914-2.76367 1.75851-2.07125 2.80739-4.11952 2.98829-4.74219l-2.42579-4.16796v-4.85352-28.4668l25.71875 12.20508c12.93995 6.1413 20.66445 19.62488 21.81641 30.60742s-1.49893 19.92925-3.51562 26.53711c-4.82441 15.80761-17.22663 22.03246-26.24219 25.88672-12.40662 5.30397-25.59417 5.74983-37.76758 2.88086-12.21571-2.8789-20.74318-9.7753-27.24805-15.57422-7.66876-6.83651-13.79751-15.07087-18.27343-24.02734-5.18619-10.37774-7.49694-20.98761-8.88868-30.66992-1.72994-12.03513-3.15274-25.87611-.0742-40.55274 2.74786-13.10025 8.34512-25.50693 16.24023-36.23437 7.36359-10.00525 16.98983-19.61105 29.64844-25.90625 11.1017-5.52093 23.43222-7.98431 35.74414-7.23828 3.4147.2069 6.86392.63338 10.32226 1.22851-.55541-7.09513-.6467-14.18217.20899-21.5664 1.79626-15.50087 8.18534-28.3205 13.89258-39.10938 7.06502-13.35563 15.44518-20.25642 18.05468-25.10156 5.75909-10.69309 10.20686-19.9399 11.0625-27.125-1.8587-.88119-3.75024-1.99054-5.65429-3.73438l-.14649-.13281-.14453-.13867c-6.21888-5.95383-7.90187-15.45219-6.80078-22.35156 1.22602-7.69126 4.7309-14.2249 10.40039-20.15039l.002-.002c5.66038-5.91305 11.99047-9.71996 19.67969-11.29687h.002c1.72621-.35384 3.61729-.53675 5.58008-.51953z"/><path d="m272.48084 215.27095c-4.86634 9.03549-13.19312 15.91211-17.9919 24.98366-5.4345 10.27331-10.58581 21.21939-11.92365 32.7643-1.8516 15.97852.20478 29.27718 5.69499 47.91911-11.89064-7.95816-22.85542-10.93868-35.19395-11.6863-9.04368-.54799-18.52888 1.35393-26.64135 5.3883-9.22434 4.58732-17.05915 12.16112-23.16564 20.45828-6.33629 8.60941-10.92733 18.79974-13.12182 29.2618-2.34695 11.18891-1.35126 22.98002.27533 34.29612 1.24188 8.63976 3.27164 17.37604 7.17355 25.1839 3.48686 6.97732 8.32766 13.44676 14.15003 18.63726 5.60999 5.00116 12.08383 9.76654 19.39899 11.49052 8.6402 2.03628 18.39973 1.57751 26.56204-1.91197 6.65993-2.8472 13.98847-7.66193 16.10273-14.5895 3.57098-11.70062 6.9094-28.17163-8.80319-35.62882v.0006.0006c5.59312 9.62118.73834 18.83819-4.84251 25.41159-5.58157 6.57426-15.99488 11.25325-24.29238 8.90243-8.91279-2.52515-13.91085-13.16856-17.20015-21.82852-3.99362-10.51431-2.8345-22.46915-1.97718-33.68364.63929-8.36248 2.24851-16.77972 5.27523-24.60141 3.15527-8.1539 5.63763-18.27412 13.19657-22.66776 8.76926-5.09713 20.74329-3.3031 30.42765-.28754 11.10769 3.45876 20.54869 11.63276 28.54285 20.08481 7.91102 8.36416 14.14667 18.5605 18.27354 29.30817 5.36977 13.98455 8.74718 29.2946 7.8563 44.24814-1.11875 18.77832-6.81987 37.80802-16.39339 54.00137-4.37964 7.40803-13.82999 14.49944-18.03013 18.47852h52.96896c6.11544-11.2869 9.3304-23.81023 10.86496-36.36934 1.59947-13.09038.24993-26.50208-1.86402-39.51928-2.21332-13.62912-6.46051-26.915-11.24228-39.86823-4.75713-12.88646-12.55856-24.51293-17.2699-37.4162-7.65829-20.97432-19.9206-42.37919-17.72182-64.59937 1.37553-13.90078 12.55638-24.95667 18.7921-37.45626 6.55799-13.14558 14.68938-25.6302 19.58455-39.48123 3.59461-10.17101 8.24439-20.87107 7.0293-31.58994-.95875-8.45752-5.35272-14.97866-10.98499-23.05145.3283-.93406.57597-1.84284.71222-2.69758.51197-3.20466-.18112-5.27811-1.47399-6.51393-1.29173-1.2379-3.40064-1.85555-6.58057-1.20373-3.17859.65187-7.04431 2.71561-10.29294 6.10926-3.24758 3.39422-5.11993 7.33487-5.63086 10.54011-.51278 3.20489.18059 5.27783 1.47366 6.51579 1.89867 1.7389 5.62269 1.58914 8.23539.74713 2.34128 5.87641 3.84205 11.23426 3.35522 16.98466-1.0512 12.41701-7.39858 23.96419-13.30755 34.93557z" fill="#775fa0" stroke-width="36"/><path d="m393.79492 280.83984.37696.006c11.37783.15852 22.04794 5.01592 29.42382 11.37305 11.05493 9.52551 17.80669 22.76857 21.58789 37.45117h.002v.002c7.27543 28.26685 3.54136 61.84556-18.65039 84.3711l-6.98438 7.08984-9.7207-2.14648c-31.42727-6.94097-52.40989-34.09721-60.73242-62.36133-4.32043-14.67043-5.27906-29.68696-.55078-43.67188 4.50386-13.31858 16.52997-25.93903 32.32421-30.25195 3.86434-1.05555 8.18396-1.72955 12.54688-1.85156z"/><path d="m385.61315 300.06586c-10.96159 2.99327-16.93379 9.54142-20.01489 18.65268-3.0805 9.11125-2.73039 20.94991.76594 32.82203 6.72739 22.84685 24.90928 44.91401 47.34866 49.86993 15.88824-16.12722 19.92885-44.3733 14.04029-67.25182-3.06496-11.90139-8.73485-22.12392-15.90795-28.30464-5.04375-4.34711-10.63299-6.90902-17.92319-7.01059-3.07512.086-5.6185.48753-8.30886 1.22241z" fill="#775fa0" stroke-width="36"/><path d="m5.8900367 389.97642-4.0546875 20.3125c-3.3514089 16.78549-2.8493643 35.41531 7.7832031 51.01758 15.6372087 22.94612 41.7181497 33.13285 64.8984377 37.13086 16.591207 2.86157 37.39598 3.01178 54.71679-10.2793 3.0996-2.37846 7.46137-5.83126 10.95508-11.91797 3.49371-6.0867 5.02738-15.02258 3.19336-22.99023l-.01-.043-.01-.043c-3.08223-13.09785-6.58366-25.15955-16.40234-35.10351-10.68641-10.82272-23.21031-13.13767-31.359376-15.28711-15.068183-3.97445-28.179967-2.76583-39.177734-2.38867-10.997767.37715-20.039208.27435-30.984375-3.56055z"/><path d="m114.15196 430.708c-5.95443-6.03038-14.946827-8.36798-23.141287-10.52939-23.144097-6.10459-43.604343 3.41615-71.524176-6.36622-2.821105 14.12947-2.069826 26.97597 5.005566 37.35843 11.402674 16.73234 33.131446 26.08648 53.085101 29.52798 13.555349 2.33796 29.786136 1.55385 40.698996-6.8201 4.82214-3.70025 9.45844-8.3661 7.56513-16.59135-3.03068-12.87879-4.88895-19.6922-11.68933-26.57935z" fill="#775fa0" stroke-width="36"/></svg>