<svg height="500" viewBox="0 0 500.00009 500" width="500.00009" xmlns="http://www.w3.org/2000/svg" xmlns:xlink="http://www.w3.org/1999/xlink"><radialGradient id="a" cx="1249.9998" cy="1250.0005" gradientTransform="matrix(0 -1 1 0 -.0005 2499.9997)" gradientUnits="userSpaceOnUse" r="250"><stop offset="0" stop-color="#393"/><stop offset=".7379747" stop-color="#393" stop-opacity=".9"/><stop offset="1" stop-color="#393" stop-opacity=".1"/></radialGradient><filter id="b" color-interpolation-filters="sRGB" height="1.090076" width="1.038557" x="-.019279" y="-.045038"><feGaussianBlur stdDeviation="3.4340658"/></filter><filter id="c" color-interpolation-filters="sRGB" height="1.044021" width="1.06983" x="-.034915" y="-.02201"><feGaussianBlur stdDeviation="1.691042"/></filter><filter id="d" color-interpolation-filters="sRGB" height="1.124589" width="1.200295" x="-.100148" y="-.062295"><feGaussianBlur stdDeviation="5.496549"/></filter><filter id="e" color-interpolation-filters="sRGB" height="1.0563" width="1.087602" x="-.043801" y="-.02815"><feGaussianBlur stdDeviation="1.9338424"/></filter><filter id="f" color-interpolation-filters="sRGB" height="1.044267" width="1.069219" x="-.034609" y="-.022134"><feGaussianBlur stdDeviation="1.7818685"/></filter><g transform="translate(-1000 -1000)"><circle cx="1250" cy="1250" fill="#2ad52a" r="250"/><path d="m1258.9184 1271.0417c17.1144 30.6662 44.2259 53.4982 76.3129 67.0503 47.0888 19.252 101.3032 18.539 148.3503-.7179 3.5837-7.846 5.7089-15.6928 7.8759-23.5354-44.255 22.8273-95.5943 29.9536-144.8083 16.402-20.669-5.7007-39.2545-15.6936-56.3481-29.2453-11.4138-9.2678-21.4025-19.2524-29.245-31.383.7122 0 1.4251-.7126 1.4251-.7126 21.3984 24.9615 47.7889 42.0844 79.1674 50.6396 47.0888 12.1307 94.8859 6.4216 137.6825-16.402 1.4168-.7125 2.8336-.7125 4.2505-1.4293 4.2922-2.8504 7.8759-4.9882 12.1264-7.1343 1.4168-8.551 2.1668-16.4062 3.5837-24.9614-2.8753 1.4294-5.0006 3.5671-7.8342 5.7091-2.8753 1.4251-5.0006 2.8461-7.8759 4.9881-54.1729 34.9543-120.5139 44.2305-178.3122 16.4103-2.1251-1.4293-4.2921-2.8586-6.4173-3.5712-.7087-.7126-2.1252-1.421-2.8336-2.1336-1.4585-.7209-2.167-.7209-3.5797-1.4294-10.697-7.1342-19.2605-12.8391-27.8198-22.111 0 0 .717-1.4335 1.4252-1.4335 2.1461.7125 3.5712 3.5712 4.9964 5.0006 38.5211 29.9537 85.6097 37.8046 132.6569 27.8159 10.0011-2.1378 18.5438-4.2839 27.8364-7.8426 16.4187-7.1342 31.3787-13.5559 46.3387-24.2614 5.0005-4.2713 10.0012-7.1258 15.0017-10.6888 2.1253-2.1461 4.2505-4.2797 7.1258-6.4258-.7087-8.5594-.7087-16.3978-1.4168-24.9614-2.1669 2.1378-4.2922 4.9923-6.4174 7.1301-5.0006 4.2838-9.2928 7.8509-13.5849 12.1265-5.6674 4.9922-12.0847 8.5593-17.7937 13.5516-5.0005 3.5671-10.0012 5.7091-15.0017 8.5552-55.6313 33.5292-123.3892 37.0963-178.308-1.421 0 0 .7123-.7167.7123-1.4251 77.0421 44.9388 176.8869 9.2719 227.5177-58.4906-2.1252-7.8468-4.2504-16.4103-5.709-24.2488-28.5033 44.9347-72.0083 79.8848-126.9312 91.2946-32.1286 5.709-64.2156 3.5713-93.4523-10.6972 0-.7126.7122-1.4251.7122-1.4251 30.6494 10.7013 62.7781 11.4139 94.1567 2.8545 17.8355-4.9965 33.5039-12.8433 49.9224-22.8237 8.5844-5.7048 15.0017-11.4139 22.836-17.8313 12.1264-11.4098 22.0858-22.1153 32.087-36.3795 5.0005-7.8468 10.0011-14.981 14.2516-23.5446-3.5421-7.8385-5.709-15.6853-9.9594-22.8153-4.2922 11.4056-10.0012 22.1069-16.4186 32.8082-7.1259 11.4139-14.2517 21.3985-23.5444 31.3789-14.2516 14.9851-29.2533 27.8201-47.7971 37.8046-35.6291 19.2607-76.3004 26.395-114.8215 16.4062 0-.7084.717-2.1377.717-2.1377 33.5121 6.4174 66.3492 0 96.2694-14.981 30.6701-15.6895 54.9646-39.2299 73.4667-69.1836 10.0012-16.4062 17.127-32.0956 22.8359-49.2186-5.0005-7.1342-8.5426-14.26-14.2516-20.6817-3.5838 17.8314-9.2927 34.2334-17.8354 50.6354-.7088 1.4377-.7088 2.8587-1.4168 4.2839-15.7101 29.2453-35.6708 52.7773-64.2158 72.0422-6.4172 4.2797-13.5431 7.1301-19.9605 11.4139-6.4175 3.563-13.5433 4.9965-20.6691 7.1301-17.127 5.7048-34.9706 9.2761-53.5144 6.4174v-1.421c22.8443-.7125 45.6385-6.4174 66.3493-16.4103 2.1251-1.421 4.2504-2.1336 6.4173-3.5671 14.9602-8.5594 27.0865-18.5398 39.2129-30.6705 3.5837-4.2797 7.1258-7.8426 10.7095-12.1265 1.4169-2.1378 2.8337-4.2797 5.0006-6.4174 20.669-30.6747 33.5039-62.0494 37.796-96.9995-5.709-6.4258-11.418-12.8432-17.8354-17.8314-.7087 42.0761-12.8348 81.3101-38.5044 116.9686-27.1281 36.3753-65.6326 59.9241-109.1458 64.908 0-.7125 0-2.1377 0-2.1377 24.2611-4.9923 45.6385-14.2601 64.9324-29.9537 19.9607-16.4104 34.9207-34.9543 46.3387-57.0612 16.4185-33.525 23.5443-69.9087 21.4191-106.284-6.4591-4.9964-12.8765-9.9804-20.0024-14.2601 2.167 17.8314 2.8754 35.6628 1.4169 54.2109-1.4169 9.9804-2.8336 19.2565-4.9589 29.2369-3.5838 14.981-8.5843 28.5285-15.7101 42.0927-19.9606 37.7922-53.5062 68.471-94.1441 79.8849 0-.7126 0-1.4335 0-1.4335 30.6785-12.8391 55.6396-33.5167 74.1835-62.7661 2.8335-4.2756 5.0005-9.272 7.1258-13.5517 7.8342-13.5516 12.1264-27.0992 14.9601-42.0843 0-1.421 1.4584-2.142 1.4584-3.5672 5.7091-31.3872 5.7091-62.0534-2.1668-92.0113-7.1258-4.2797-14.2517-7.8468-22.086-10.6971 12.1265 34.2417 14.9602 70.6128 8.5427 107.7049-3.5421 15.6936-7.8342 30.6704-14.96 44.9347-4.2923 7.8468-8.5844 14.9769-13.585 22.8237-14.96 20.6817-32.7912 35.6627-54.1895 47.0724-.7122 0-1.4251-2.1336-1.4251-2.1336 12.8347-7.1342 23.5276-16.4103 33.5288-27.1033 16.3768-17.8355 27.0864-39.234 34.2539-62.0618 13.5432-46.3599 7.8342-94.8617-10.7096-138.3713-7.8759-2.1377-15.7101-4.9922-24.2527-6.4174 14.2516 27.1075 24.9611 57.0612 27.0864 88.4484 2.1253 31.3789-2.8337 62.7619-17.127 91.2946-1.4168 2.1419-2.8336 4.2797-3.5421 6.4216-.7087.7168-1.4585 2.1378-2.1668 2.8504-.7088 1.4293-.7088 2.1377-1.4169 3.5671-10.7095 14.981-20.6774 29.2411-36.3708 39.2256 0 0-.7087-.7084-1.421-1.421 12.839-9.2761 21.3941-22.1194 29.2492-35.6669 36.3791-60.6241 27.0865-131.9579-8.5676-190.4401-2.1336-2.8545-3.5672-4.9965-4.9923-7.851-8.5593-.7125-16.406-1.421-24.9653-2.1336 6.4174 8.5552 12.1263 17.1146 18.5437 26.3866 6.4216 10.7013 10.7012 20.6859 15.6935 31.3872 4.9964 12.1223 7.83 23.5362 10.7054 36.3795 9.251 50.6396-2.167 103.4169-37.1001 140.509 0-.7084-.7087-1.421-.7087-1.421 19.2563-25.6824 29.2242-53.4983 31.391-84.1687 3.5421-54.9193-20.694-109.1302-58.4983-148.36-8.5594 0-16.402.7084-24.9612 2.1336 29.9534 25.6823 52.7769 57.7738 64.9032 95.5826.717 2.8545.717 4.9923 2.1461 7.8426.7123 1.4336.7123 2.8546.7123 4.2839.7123 1.4252 1.4209 2.1419 1.4209 3.5671 8.5594 41.3676 4.9964 81.31-19.2563 117.6854 0 0-.7123-.7127-1.4252-.7127 7.8468-14.9768 12.839-30.6704 15.6935-47.785 2.1377-14.9852 2.1377-29.9537 0-44.9389-7.8467-54.2025-40.6588-101.2833-84.168-131.9538-7.8468 2.1378-15.6935 4.2797-23.5361 7.1301 52.0685 29.2411 92.0106 80.6057 99.8574 141.2299 2.8503 25.6781.7123 51.3605-9.9846 74.8925-.7122 0-1.4293-.7125-1.4293-.7125 0-2.1419 1.4293-4.2797 2.142-6.4216 7.1341-27.8159 6.4174-56.3445-2.142-83.4478-6.4132-19.2566-14.2682-36.3837-26.3946-52.7857-2.1378-2.1336-3.5588-4.2797-4.9881-6.4174-21.3983-25.6824-46.3595-44.9347-75.6046-59.199-7.8467 2.8503-14.9808 6.4174-22.1066 10.693 7.1258 2.8545 14.2599 4.9923 20.6774 9.272 1.4292.7167 2.8544.7167 4.2796 1.4251 29.9534 14.981 54.2104 34.9502 74.1835 62.7703 26.3863 37.092 37.0876 79.1764 27.8156 123.3985 0 0-1.4293 0-2.1377 0 2.8462-13.5558 1.4211-26.3907 0-39.9507-2.1377-17.8272-7.8508-33.5167-16.4102-49.2061-9.2677-18.544-22.1067-34.9543-37.8043-49.9353-12.8347-11.4056-26.3864-20.6859-41.363-29.2411-1.4336-.7126-2.8545-.7126-4.2839-1.4294-13.5557-7.1259-27.8157-12.1181-42.084-17.1146-7.1299 4.9965-13.5515 9.272-19.9689 14.9727 27.8198 5.0006 53.4936 14.9852 78.4548 29.2536 1.4335.7084 1.4335 2.1378 2.8586 2.8462 48.5014 29.962 81.3093 82.7435 78.4632 139.088h-1.4335c-2.1378-42.797-23.536-81.3101-55.6272-109.8469-2.1419-1.421-4.2839-2.8504-6.4174-4.984-.717-.7167-2.1502-1.4335-3.5754-2.1419-.717-.7168-1.4252-2.1378-2.8462-2.8503-32.1036-22.8279-67.0493-34.9544-104.862-37.8089-7.1258 4.9923-12.1222 12.1265-17.827 17.8356 44.9343-.7126 87.735 10.6971 125.5352 38.5172 34.2373 24.9614 57.0649 60.6241 63.4822 101.2792-.7087 0-2.1418 0-2.1418 0-11.4097-48.4977-45.6469-84.1646-88.4435-105.5631-4.9923-2.1336-9.9844-4.2838-14.9726-5.7048-30.6785-12.1265-63.4906-15.6895-95.586-12.8391-4.2796 7.1342-9.9843 13.5475-13.5515 21.3985 27.8199-6.4175 55.6356-5.7049 84.1638-.7084 1.4336 0 2.1461 1.421 3.5755 1.421 37.0876 7.8468 69.1828 24.9614 93.4356 53.4982.7123.7126 2.1377 1.4252 2.8504 2.1378 11.4138 14.981 21.3982 29.2494 26.3864 47.0766 0 0-.7123.7126-1.4252.7126-22.1109-50.6438-71.3249-84.1646-126.2436-92.7281-14.2684-2.1378-28.5325-2.8504-42.7966-2.1378-16.4102.7125-32.8121 3.5671-49.2223 7.8468-2.842 7.8426-7.1217 14.9769-9.2636 22.8278 54.2062-20.6859 116.9676-22.111 169.036 8.5552 24.257 14.2685 42.8008 32.8166 56.3523 56.3487-.7123 0-2.1418.7125-2.1418.7125-23.532-34.9502-56.3399-54.9193-96.2861-64.1913-46.3636-9.9887-92.7315-2.1419-133.3778 17.8314-1.4293 7.8468-5.0006 15.6894-5.0006 24.2488 12.1264-8.5594 26.3947-14.2642 40.6588-19.9774 16.4061-6.4133 32.8038-9.2637 49.9266-11.4014 53.4979-5.7091 108.4166 13.5475 142.6539 54.9151-.7123 0-1.4252.7167-1.4252.7167-32.8121-32.0997-77.7464-47.7934-122.6766-45.6514-40.6672 2.1377-79.1799 17.8313-111.9836 41.3717-.7168 8.5594-.7168 16.4104-.7168 24.9615 9.9887-9.272 20.6857-17.1146 32.8121-24.2489 1.421-.7125 2.1377-2.1419 3.5629-2.8545 54.2104-31.383 121.2556-39.2298 176.8912-6.4174 4.2796 2.8503 7.8467 5.7048 12.1263 7.8426 2.8545 1.4293 4.9881 4.2797 7.8467 6.4258 0 0-.717.7084-.717 1.421-7.8425-5.7049-16.406-9.272-24.9653-14.2684-5.7007-2.1336-11.4096-4.2756-17.1145-6.4175-32.0953-9.9846-65.6241-8.551-98.4321.7127-26.3947 7.8468-49.2181 21.4026-71.3248 38.5172-1.4252.7127-1.4252 2.8587-2.8587 3.5671-6.4174 4.9965-11.4096 9.9887-17.1103 15.6936 0 4.9881.7084 9.9887 2.1336 14.9769v3.5712c.7126 2.1336.7126 3.563 1.4252 5.7091 7.8467-11.4139 17.8353-19.9775 27.8198-29.9621 5.7091-4.9922 11.418-8.5552 17.1145-13.5558 28.5325-20.6775 59.211-32.8124 93.4482-35.6586 30.666-2.1419 62.0488 3.5671 88.4393 19.2524-.717.7168-1.4293 1.4335-1.4293 1.4335-10.6971-5.7048-21.3942-8.5635-33.5205-10.7013-14.9725-3.5671-29.2451-3.5671-44.2218-2.8545-59.9152 4.9923-111.271 43.5095-143.3622 92.0114 2.8461 7.8509 4.988 15.6894 7.8425 23.5358 21.3984-40.6588 54.9188-74.8964 97.007-94.1487 12.8348-5.7091 25.6696-9.2762 39.9379-12.1265h4.2797c24.2569-4.9923 48.5055-1.421 71.329 6.4174 0 .7126-.7123 1.4294-.7123 1.4294-41.3713-9.9846-82.0344-3.563-118.4053 17.1187-25.6737 14.9769-45.651 34.2334-63.4822 59.199-1.4251 2.8545-2.8461 4.9964-4.9922 7.8468-6.4174 10.7005-12.1222 21.4035-17.1228 32.0998 2.1418 3.5663 3.5754 7.8426 5.7131 11.4089 2.8546 2.8554 4.2755 7.143 6.4174 10.698 4.2797-14.9773 10.6971-28.5289 17.8354-42.0752 3.563-6.4225 7.13-12.1315 11.4054-18.5489 19.2606-26.395 40.6631-47.0767 69.1914-60.6284 14.9767-7.1342 29.9576-12.839 46.3678-14.9726 15.6851-2.1461 30.6618-2.1461 46.3553 0v2.1336c-40.6546-3.5671-81.3177 10.6971-113.4088 37.8005-34.954 29.2494-56.3481 69.1914-66.3368 112.701 4.9964 6.417 9.2719 13.5483 15.6976 19.2569 7.8426-84.1646 75.6004-165.4746 163.3354-167.6207v2.1461c-53.4936 5.7049-99.1447 39.9425-124.8227 87.0195-.7123 1.416-.7123 2.8454-1.4293 4.2743-15.6893 27.8159-21.3982 57.7742-23.5402 88.4455 6.4257 4.9923 11.418 12.1252 19.2688 16.4066-2.146-19.975.7088-38.519 4.2714-58.4872 5.7132-29.2453 17.1186-54.2109 34.9624-77.7471 23.5318-29.9579 53.4894-50.6438 91.2896-57.778 0 0 .7123.7126.7123 1.4252-9.9846 2.8545-19.9732 7.1342-29.9619 12.1223-2.1335 1.4335-4.2755 2.1461-6.4215 3.5755-16.4019 9.9804-29.2367 22.1069-41.3631 37.0837-17.1186 22.1153-27.8157 44.9385-34.2372 72.0464-2.1336 11.4143-4.2796 22.8236-4.9923 34.2375-.7123 14.9761 0 30.6663 1.4252 45.644 3.5671 1.4289 7.1383 4.2826 10.7012 6.4216 3.5671 2.1403 7.8467 3.5663 11.4097 5.7003-11.4097-44.2192-8.5551-92.0034 10.7011-134.0886 16.4061-36.3787 46.3554-65.6239 83.4554-80.5966v2.1419c-79.8882 39.2257-104.8536 141.9342-76.3212 221.1106 7.1341 3.5634 14.9767 5.6957 22.8193 8.5557-14.9725-34.9506-22.1067-72.0385-17.1144-110.5558 6.4215-47.7892 31.3869-92.0071 72.0374-116.9769 0 .7125.7123 1.4294.7123 1.4294-26.3864 19.9691-44.2218 46.364-53.498 76.3227-17.1102 52.0685-8.5509 107.7004 17.127 154.7766 8.5551 2.1369 16.4061 3.5629 24.9612 4.9922-48.5055-68.4705-55.6397-174.0339 12.8349-233.9538 0 0 .717.7168 1.4334.7168-20.6857 22.8195-34.2372 49.927-39.2295 81.3059-2.8628 19.9733-2.146 39.2302.7171 59.2064 0 1.426 1.421 2.139 1.421 3.5634 3.5628 23.5366 12.8347 43.5095 24.2486 64.1908.717 1.4344 2.1376 2.147 2.8544 3.5763 4.2798 8.546 9.9887 15.689 15.6935 22.8203h24.9612c-23.5361-24.2496-42.0798-52.7815-52.0685-85.5901-.7088-2.8504-.7088-4.9973-2.1418-7.851-.7123-1.421-.7123-2.8516-.7123-4.2759-.7088-1.4294-1.4252-2.1424-1.4252-3.5717-9.9886-47.0729-2.8503-94.1487 27.1073-131.2366 0 0 .7123.7125 1.4252.7125-20.6816 29.9578-27.1073 67.0462-22.8234 102.7164 6.4173 49.9232 32.8079 94.8588 70.6122 126.954 7.8468-1.426 16.3893-2.847 24.2652-4.276-12.1263-9.2719-23.5526-18.5439-34.2456-29.9582-7.1382-7.846-12.8431-14.9806-19.2647-23.5367-9.2635-12.8432-14.9767-25.6769-21.3941-39.9462-2.1419-4.9922-2.8586-9.9849-4.9922-14.9755-11.4139-38.5223-9.276-79.8899 9.2677-115.5526 0 0 1.4293.7168 2.1419.7168-19.2605 44.2179-13.5515 94.8658 9.2678 137.659 18.5521 34.2376 46.3845 60.6325 78.4714 79.8845 7.8343-2.8504 15.6685-5.7053 22.836-9.2767-14.2933-5.7006-25.7113-13.5466-38.5461-22.8186-17.8354-13.5516-32.7996-27.1046-44.2092-45.6518-13.5516-15.6886-20.6858-35.662-27.1073-55.6319-4.2796-17.1196-5.7048-34.2375-4.9922-51.3563.7123-9.9888 2.8504-18.5481 4.9922-28.5327.7123-1.4252-.7123-2.8545 2.8503-2.8545-9.9803 45.6514 2.1503 92.7285 31.387 130.5327 2.1377 2.1373 3.5629 4.2759 4.9922 6.4166 24.2528 28.529 54.2145 48.5068 88.4268 61.3455 3.5838-2.1423 7.8759-3.5667 11.418-5.7036 2.1668-2.1423 5.0005-3.5717 7.8759-5.0006.7087-.7101 1.4168-1.4214 2.1253-2.1345-36.3792-9.2765-69.1747-27.8159-97.007-54.9234-3.5671-4.2797-7.13-7.8459-10.6971-12.1273-27.8157-33.5246-41.3714-75.6085-36.3708-117.6887.7041 0 2.1377.7127 2.1377.7127-1.4334 32.0956 7.8385 62.0539 26.3905 89.8732 4.9881 7.8509 9.9804 14.2726 16.402 21.3993 5.7173 5.7036 11.4262 10.6963 17.0936 16.4015 15.7101 12.8433 32.1287 22.8283 50.6724 30.6742 15.6684 6.4171 31.3787 10.698 47.7972 14.2647 6.4174-5.7057 12.8348-11.4093 18.5437-17.1196-24.2528-1.4293-47.0887-7.138-69.2162-16.4099-2.8337-1.4244-4.9589-2.1374-7.8342-3.5634-23.5443-11.4093-43.505-25.6736-60.6236-45.6468-3.5671-4.9957-7.8468-9.2721-11.4138-14.9757-2.8545-4.2847-4.9923-8.5689-7.8426-12.8436-2.1419-4.2801-4.2838-9.2724-6.4216-13.5521-6.4216-15.6894-10.7012-31.3872-11.4138-48.5018h1.4294c7.1299 42.7969 29.9576 78.4588 65.6159 104.1458 37.0875 26.3819 78.4672 37.0845 121.2638 37.0845 5.7089-6.4216 10.7095-12.8399 15.6684-19.9729-16.3768 2.8533-33.5038 1.4289-49.9223 0-15.6685-1.431-30.6702-5.7057-45.6303-10.703-5.0005-2.1373-10.0011-4.2747-15.0017-6.4086-43.5049-19.9813-77.7297-58.4986-89.8561-104.8584h2.1378c11.4138 34.2333 34.2372 62.0535 65.6325 81.3137 5.0005 2.8504 9.251 4.9928 13.5431 7.8477 40.6714 19.9683 86.3016 24.961 129.8065 16.4016 5.0007-7.1263 8.5843-14.9772 12.1265-22.1119-67.0494 19.262-147.6419 8.5606-195.4265-48.5051-.7123-.7127-2.142-1.421-2.8587-2.1378-8.5551-10.7013-15.6893-21.3943-20.6816-33.525 0 0 .7123-.7084 1.4294-.7084" fill="url(#a)" fill-rule="evenodd"/></g><g fill="#83fc83"><path d="m420.09766 311.55479c-24.29868-.40593-12.85186 31.0807-21.01495 36.19186-29.03649 9.38701-40.35398 38.75519-41.34303 67.00437 2.91198 8.04457 26.0421 3.90234 21.3336-11.12618-.39251-13.24546 15.02485-28.64421 8.32096-6.66071-3.30313 20.78922-2.44501 44.21154-12.85186 62.77312-14.00244 14.40309-26.94459 25.8128-2.13808 36.20426 13.7419-14.79943 31.54357-27.87588 34.51758-49.34179 12.64375 14.25572 24.22125 39.53008 36.05166 48.06664 29.99896-12.85186-2.5143-38.9031-10.01391-58.29005-13.06204-7.76525-12.63575-38.00027-3.04356-37.26138 14.76354 8.86669 44.46568 32.40065 44.05854.2426-22.73059-6.94191-48.58006-25.60056-42.10253-50.47356 11.90975-11.369 7.1954-37.62782-11.77442-37.32918z" filter="url(#c)"/><path d="m59.512812 302.5319c-25.374436 3.29572-16.08458 33.81082-9.718121 45.69358.966614 26.82883-23.729143 38.97223-45.5182066 47.47439 1.5475765 17.9559 9.6229326 22.87397 24.6316986 11.94138 14.750482-3.47857 28.831025-27.24459 28.84026-.8283 1.076445 26.17069-27.447446 48.10819-35.677681 74.06315 2.795874 10.23135 22.159662 25.51636 25.30098 3.83316 8.904857-9.6225 22.35583-39.87331 29.46761-34.8022 4.438566 17.91446 24.513678 45.53336 39.783368 44.30655 30.40484-12.85324-12.79743-27.12508-13.23001-47.48803-3.995066-22.82144-7.187403-45.57369-9.911148-68.54525 18.033908 9.60499 4.035549 47.42273 34.359368 37.07032-4.16282-24.71912-5.20669-53.95946-30.611584-67.01925-11.138971-7.3444-25.580719-6.32655-16.593211-22.60629-.03349-11.38095-8.82504-23.68536-21.123323-23.09321z" filter="url(#f)"/><path d="m80.744141 28.806641c-32.291457 8.10492 1.254721 36.509162-12.328591 54.085644-5.064297 21.687815-48.493115 15.889474-29.685081 42.883105 16.207103.14545 40.990223-33.582048 40.607251-5.25143-.799595 21.7063-34.660279 45.43835-27.906272 65.61604 18.268767 23.30785 25.777092-21.3344 40.371021-31.60128 5.2938 1.9991 14.081671 28.16683 27.485751 34.95195 5.78772 13.45005 32.84562-9.32455 14.31139-15.34049-19.33186-15.83757-17.67063-42.45802-21.25495-64.94119-4.22835-13.072377 1.69114-17.57446 5.12479-2.7675-6.57771 20.75565 30.35402 28.4613 19.47799 5.29277-.0354-23.33064-15.0901-43.795134-37.337621-50.897214-1.84316-7.855639 2.200351-32.593467-18.865678-32.030405z" filter="url(#e)"/><path d="m426.67425 13.216769c-21.48503.920725-22.45242 28.284103-18.94547 40.56587-19.22409 6.05726-39.63052 19.998684-45.7327 39.890592-1.90925 18.024409-19.49291 52.335619 12.7231 41.729089 2.12613-11.23999 7.84575-43.333944 16.4832-36.861583-4.01386 27.421153-5.18729 56.238863-13.99816 82.292223-10.06779 17.52813-38.94734 31.50512-8.65971 43.63949 17.47608-8.20937 38.73023-32.87893 42.54185-56.12091 14.90927 17.39435 26.93345 43.19559 42.24219 56.60353 34.73747-15.32676-5.79014-46.41469-13.68132-68.98326-15.02637-13.38276-10.79177-29.58032-5.3968-46.47768 11.48264 10.97285 39.24329 29.44151 49.53518 21.30842 16.21988-29.22324-37.97919-21.34429-40.96569-49.189367-16.92065-21.968142 21.6164-45.784461-6.0073-65.776057-3.02501-1.834475-6.59225-2.81824-10.13837-2.620357z" filter="url(#d)"/><path d="m325.96544 221.1656 71.0055 21.6207-54.7533-51.1713c1.9197-5.2416 3.4056-10.692 4.4118-16.3044l117.1233-17.3772-117.1323-17.3763c-1.008-5.6088-2.493-11.0547-4.4154-16.2927l54.765-51.183001-71.775 21.857401c-18.0279-21.468601-45.0459-35.146801-75.1959-35.146801s-57.1725 13.6773-75.195 35.147701l-71.775-21.856501 54.765 51.180301c-1.9206 5.238-3.4065 10.6848-4.4145 16.2945l-117.132292 17.3763 117.123292 17.3772c1.0062 5.6142 2.4912 11.0637 4.4118 16.3062l-54.7533 51.1695 71.0082-21.6225s50.2127-14.05897 75.96405-14.05882c25.7514.00015 75.96405 14.05972 75.96405 14.05972z" filter="url(#b)" opacity=".9"/></g><path d="m302.45503 196.2421c3.73144-8.70174 7.83138-25.61252 6.86721-38.66797-1.41314-19.13466-5.70228-40.09208-18.28122-54.58008-10.02897-11.551023-24.52809-20.539062-41.03907-20.539017-16.51134.000045-31.04316 8.959717-41.04297 20.537157-11.73068 13.58139-15.13014 33.27415-16.83258 51.13933-1.34256 14.08879 1.68762 33.40954 5.41847 42.11067-7.8036 4.33927-14.58225 10.22913-19.76758 17.27929-9.13935 12.4262-14.67306 26.37935-18.69336 42.33204-8.25718 39.2507-8.70009 72.52866-8.97851 109.99609h37.3125l9.28911 134.15039h106.58594l9.28906-134.15039h37.31445c-.80973-37.24554-1.25903-78.23246-8.97851-109.99709-4.02159-15.95387-9.55447-29.90609-18.69436-42.33208-5.1856-7.05001-11.96496-12.93906-19.76858-17.27834z" fill="#2e852e"/><path d="m250.00114 100.4558c-20.79 0-38.0313 21.1932-41.301 48.9708h32.8896v16.8174h-33.1254c1.5282 17.3187 8.4627 32.2902 18.3672 41.5197h-9.2862c-10.7523 2.1528-18.7083 7.7355-25.4007 16.6014-6.804 9.0117-11.9736 21.474-15.606 35.8875-6.6285 26.3007-8.082 58.635-8.298 87.597h35.9748l9.288 134.1504h72.9927l9.2898-134.1513h35.9757c-.216-28.962-1.6704-61.2963-8.298-87.597-3.6333-14.4126-8.8038-26.874-15.606-35.8866-6.6933-8.865-14.6502-14.4486-25.4034-16.6023h-9.2844c9.9045-9.2304 16.839-24.201 18.3672-41.5206h-33.129v-16.8147h32.8923c-3.2697-27.7785-20.511-48.9717-41.2992-48.9717z" fill="#83fc83" stroke-width="36"/><path d="m427.56244 17.195544c-8.26005 0-16.16063 7.510406-17.59717 18.392131-.963 7.315971 1.31023 13.882475 5.32796 18.005368-2.73104 1.783817-4.87884 3.735126-4.87884 3.735126-17.0588 2.828167-33.75835 18.809821-42.19796 29.628682-5.16253 14.993779-6.50972 29.942759-9.293 44.891649l12.65987-.35949c2.96284-11.31266 3.68035-23.29847 9.42647-33.847989 6.64394-3.681113 12.07613-9.247657 17.23866-15.173334-2.87305 14.769323-6.28525 32.456243-5.92612 45.699263-2.28947 11.22289-7.22724 36.31761-8.03529 48.12407-7.13776 14.23064-16.02595 23.16401-27.15906 34.29711l13.46749 10.41529c10.36995-11.22289 22.40059-21.09906 29.94238-33.13l9.25793-28.49275c14.01707 20.9971 31.00442 41.57423 42.23302 61.44252l13.42268-10.90824c-12.92876-25.0046-25.81327-47.7646-42.33336-71.91627.45933-1.55298 5.07802-19.04493 8.90721-36.98299 4.05541 4.62628 10.36805 11.6168 12.59654 13.18985 11.67181 6.8684 23.3433 11.80713 35.0151 16.47585l4.12968-13.42268-34.79103-16.87918c-1.49913-4.35797-8.47039-14.820121-12.8099-21.842785 1.13157-7.271459-.59113-15.891527-4.82428-21.723934 5.86697-2.572926 10.68183-8.880408 11.79866-17.135398 1.5712-11.608968-5.16274-21.292226-13.91661-22.378603-.5387-.06734-1.12233-.103266-1.66103-.103266z" fill="#2e852e"/><path d="m420.88083 315.53553c-7.09287 0-13.87707 6.44916-15.11062 15.79325-.82692 6.2822 1.12509 11.92083 4.5751 15.46114-2.34513 1.53176-4.18944 3.20734-4.18944 3.20734-14.64833 2.42854-28.98817 16.15192-36.23523 25.44204-4.43304 12.8751-5.58987 25.71173-7.97986 38.54828l10.87098-.30869c2.54418-9.71414 3.1603-20.0063 8.09448-29.06514 5.70512-3.16095 10.36972-7.94092 14.80277-13.02928-2.46708 12.68236-5.39712 27.87005-5.08874 39.24178-1.96596 9.63705-6.206 31.18579-6.89987 41.32396-6.12917 12.21979-13.76142 19.89084-23.32138 29.45079l11.56448 8.94357c8.90464-9.63705 19.2353-18.11768 25.71141-28.4486l7.94974-24.46662c12.03641 18.03013 26.62338 35.69963 36.26534 52.76046l11.526-9.36687c-11.10188-21.47135-22.16576-41.01527-36.35149-61.75422.39442-1.33354 4.36047-16.35381 7.64858-31.75715 3.48237 3.97257 8.90301 9.9753 10.8166 11.32607 10.02254 5.89787 20.04481 10.13874 30.06734 14.14775l3.54614-11.526-29.87493-14.49409c-1.28729-3.74217-7.27349-12.72598-10.99981-18.75631.97168-6.24398-.5076-13.646-4.14259-18.65426 5.03794-2.20936 9.17245-7.62557 10.13146-14.7141 1.34919-9.96858-4.43322-18.28356-11.95014-19.21642-.46258-.0578-.96374-.0887-1.42632-.0887z" fill="#2e852e"/><path d="m60.387511 306.50784c7.536075 0 14.744188 6.85214 16.054818 16.78011.878595 6.67474-1.195391 12.6657-4.860976 16.42724 2.49167 1.62746 4.45122 3.40775 4.45122 3.40775 15.563636 2.58028 30.799507 17.16118 38.499407 27.03179 4.71004 13.67961 5.93915 27.31835 8.47849 40.957l-11.55027-.32798c-2.70315-10.32113-3.35777-21.25641-8.60026-30.88129-6.061608-3.35847-11.017679-8.43712-15.727725-13.84343 2.621234 13.47483 5.734362 29.61153 5.406709 41.69383 2.088803 10.23923 6.593789 33.13446 7.331016 43.90611 6.51215 12.98335 14.62131 21.13373 24.77863 31.29104l-12.2871 9.50242c-9.46105-10.23923-20.437225-19.24978-27.317994-30.22623l-8.446494-25.99543c-12.788506 19.15675-28.286954 37.93034-38.531393 56.05722l-12.246213-9.95215c11.795584-22.81301 23.550796-43.57815 38.622938-65.61298-.41907-1.41686-4.632943-17.37568-8.126513-33.74152-3.699963 4.2208-9.459314 10.59862-11.492482 12.0338-10.648803 6.2664-21.297314 10.77226-31.946107 15.03178l-3.7677232-12.24622 31.7416762-15.39975c1.367735-3.97601 7.72798-13.52118 11.687142-19.92832-1.032391-6.63413.539318-14.49867 4.401443-19.81988-5.352744-2.34742-9.745593-8.10206-10.764535-15.63352-1.433488-10.59147 4.710238-19.42601 12.696851-20.41717.491484-.0614 1.02396-.0942 1.515445-.0942z" fill="#2e852e"/><path d="m81.491963 32.786496c6.379596 0 12.481566 5.800616 13.591066 14.205049.74377 5.650444-1.01195 10.722043-4.11502 13.906334 2.1093 1.37772 3.76814 2.884801 3.76814 2.884801 13.175261 2.184318 26.073061 14.527649 32.591341 22.883529 3.98724 11.58036 5.02774 23.126101 7.17739 34.671791l-9.77777-.27765c-2.28834-8.73727-2.8425-17.99443-7.28048-26.142288-5.13141-2.843085-9.32692-7.142371-13.31417-11.719031 2.21898 11.406995 4.85437 25.067379 4.577 35.295539 1.76826 8.66793 5.58191 28.04969 6.20601 37.16833 5.5128 10.99095 12.37754 17.89058 20.97613 26.48916l-10.40153 8.04419c-8.00917-8.66793-17.30096-16.29573-23.12582-25.58775l-7.150301-22.0062c-10.826 16.21698-23.946073 32.1096-32.618412 47.45475l-10.366924-8.42491c9.985448-19.31215 19.936719-36.8907 32.695906-55.54409-.35476-1.19943-3.921975-14.70923-6.879426-28.563587-3.132171 3.573077-8.007699 8.972167-9.72886 10.187107-9.01465 5.30476-18.029053 9.11916-27.043695 12.72502l-3.189533-10.36693 26.870636-13.036527c1.157844-3.365852 6.542054-11.44623 9.893647-16.870141-.873961-5.616066.456556-12.273722 3.726003-16.778345-4.531318-1.987184-8.250045-6.858728-9.112622-13.234419-1.213506-8.966114 3.98741-16.444918 10.748408-17.283975.416061-.05201.866824-.07976 1.282886-.07976z" fill="#2e852e"/></svg>