<svg height="500" viewBox="0 0 500 500" width="500" xmlns="http://www.w3.org/2000/svg" xmlns:xlink="http://www.w3.org/1999/xlink"><radialGradient id="a" cx="1362.7291" cy="216.11429" gradientTransform="matrix(1.0000001 -.0000059 .0000001 1.0000003 -112.72927 33.893757)" gradientUnits="userSpaceOnUse" r="250"><stop offset="0" stop-color="#ff851a"/><stop offset=".42441937" stop-color="#f87000"/><stop offset=".86367416" stop-color="#f26900"/><stop offset="1" stop-color="#e55f00"/></radialGradient><g transform="translate(-1000)"><path d="m1500 250a250 250 0 0 1 -250 250 250 250 0 0 1 -250-250 250 250 0 0 1 250-250 250 250 0 0 1 250 250z" fill="url(#a)" stroke-linecap="round" stroke-linejoin="round" stroke-width="1.002"/><path d="m1309.2298 33.82789c128.5196 30.706851 207.8974 167.48127 169.5927 291.56949-31.3771 95.69524-112.8693 162.03793-212.5543 174.60263 153.1796-8.09118 266.0956-163.0043 218.7012-309.92978-36.4562-114.666588-154.6038-191.5214848-270.6514-169.822657-18.8526 4.215647-38.4387 10.498641-55.8829 18.694487-112.5353 47.459213-168.47522 196.206-99.9632 307.85319 57.6978 93.63045 168.5136 141.8489 267.9993 100.77239-134.92 68.97589-303.283-51.46877-311.488-201.30723-4.4167-117.68321 76.8182-219.674136 190.654-246.26040176-89.0147 9.18391126-152.6601 79.39239576-187.7408 157.21169176-38.45522 102.70317 5.2337 231.75078 109.038 294.08388 114.5107 66.1048 260.3537 29.37245 323.6836-83.60152 42.2104-77.69758 34.3514-177.62383-23.1776-249.88923-57.5404-72.257811-157.5429-102.460489-246.4118-71.877168-81.7429 30.682061-131.1298 101.133078-134.0478 190.176958.6692 92.68536 61.7912 168.55972 147.5399 198.52472 128.5549 37.82014 266.7725-70.33038 233.6823-209.88949-14.7104-64.39775-57.8855-122.14991-125.7378-141.121386-71.391-15.467036-138.9716 1.205-181.2869 64.641366-18.8995 29.2286-28.9384 85.21395-26.105 97.65297m0 0c13.5324-50.18833 30.6277-97.66354 72.2125-128.94941 53.182-38.308183 124.4576-37.093813 181.7444-.48035 50.1457 36.48017 75.4845 90.37713 72.3557 150.91678-6.6674 64.04407-38.4038 109.83277-91.6401 141.00844-63.9019 34.56125-135.3795 4.83213-189.1258-35.28385-78.8706-65.48566-79.7477-186.67235-8.9744-256.76104 63.7369-55.941605 167.0207-64.891564 238.7167-6.65053 78.8163 58.35315 90.3045 169.04089 40.972 246.62443-35.2274 56.41892-88.4571 87.60135-152.5581 93.63158-81.9488 2.18264-160.666-41.91503-196.8695-120.9383-36.2055-79.02511-22.5771-164.33167 26.8727-227.66064 49.4316-63.30896 138.3491-86.746364 220.4504-67.54202" fill="#c50"/></g><path d="m187.48828 2.8828125c-60.16023 12.2647565-107.630075 52.8705385-141.320311 103.2988275a250 250 0 0 0 -25.666016 45.56836c-.858099 1.82411-1.779069 3.62769-2.605469 5.46094-1.685698 4.5021-3.157398 9.0705-4.529296 13.66601a250 250 0 0 0 -13.367188 79.12305 250 250 0 0 0 250 250 250 250 0 0 0 29.2207-2.08984c-4.29659.75527-8.58393 1.53913-12.95312 2.08984 54.74474-2.8917 104.28822-24.60237 143.26758-57.93359a250 250 0 0 0 11.90429-10.85352c1.9229-1.87123 3.8268-3.75716 5.6875-5.6875a250 250 0 0 0 11.34766-12.98047l-60.9668-58.38281c-11.76308-9.60586-22.90836-21.12054-32.18945-32.71094-18.0169-22.49988-31.48636-48.9421-40.82227-76.18945-8.37285-24.43672-13.57664-50.56585-12.9707-76.38281.57494-24.49626 6.93175-48.90822 15.58399-71.855472 4.10405 7.869372 7.15535 16.244062 9.33593 22.458982 7.49949 21.60873 11.57952 44.63413 14.09571 60.42578 8.35149-39.15788 20.53134-58.45614 31.72851-62.42187-8.76464-14.25296-18.93808-27.590032-30.36719-39.810549-.0133-.0171.00103-.060572-.01367-.076172-.0151-.0158-.05947-.002998-.07617-.017578-35.10351-36.780828-80.51343-61.843893-130.06445-72.1269529a250 250 0 0 0 -71.45703 25.7949219c18.92765-11.779341 39.64612-21.125748 61.73046-27.6132812-1.5112-.2516923-3.01532-.5297029-4.5332-.7539063z" fill="#c50"/><path d="m308.92578 56.589844c-.93438 1.191477-10.7283 13.717877-14.21875 21.4375-12.08633 26.730546-21.2081 55.708556-22.76172 84.990236-1.58247 29.82578 4.30589 60.22885 13.89649 88.52344 10.54822 31.11991 25.81748 61.55901 47.08398 86.64453 10.27539 12.12064 22.28713 23.91631 35.19531 33.86523l62.03516 50.00977a250 250 0 0 0 17.63281-20.16797l-70.26953-47.75781c-11.75437-9.60058-22.92864-21.1039-32.20117-32.6836-18.01689-22.49988-31.48636-48.9421-40.82227-76.18945-8.37285-24.43672-13.57664-50.56585-12.9707-76.38281.58144-24.77349 7.07074-49.46351 15.87305-72.636722 3.62526-9.543928 13.90249-25.268805 15.14453-27.16211-4.3836-4.329787-8.92576-8.496051-13.61719-12.490234zm-128.66601 44.185546c-23.6084 2.82815-53.40897 21.01204-76.07422 38.01758-30.269593 22.71097-54.473991 52.96337-77.072269 83.28125-9.265551 12.43069-18.0716349 25.24758-26.36523412 38.39453a250 250 0 0 0 29.68554712 107.74414c1.726935-11.09125 3.69271-22.13744 6.24414-33.05664 8.042812-34.4205 19.653237-68.22521 34.707032-100.2207 13.627096-28.96321 29.327944-57.51686 49.884764-82.07813 16.8284-20.10653 38.4841-41.03916 58.99024-52.08203zm34.18359 14.40039c-20.24231 12.90189-38.70105 35.88511-52.96484 57.75391-16.86152 25.8515-27.61762 55.43208-37.19922 84.7539-10.08872 30.87373-16.71215 62.94248-21.07813 95.1211-3.987414 29.38849-4.634285 59.1953-4.591795 88.85156.002765 1.93257.105999 4.40152.162109 6.62891a250 250 0 0 0 111.478516 48.26172l-2.49219-3.5c-6.80467-11.84444-20.508-36.30495-26.41211-51.39063-9.86-25.19344-17.67882-51.5075-21.26562-78.31445-4.1567-31.06615-3.31602-62.84869-.07813-94.02344 3.14857-30.31534 8.25822-60.89254 18.86719-89.47461 8.55829-23.05729 21.18041-49.49879 35.57422-64.66797zm23.07226 27.58203c-9.14709 21.62642-15.3931 45.70221-18.83203 69.43164-3.62256 24.99654-3.87752 50.58399-1.73828 75.75 2.24011 26.35247 7.47953 52.5765 15.1836 77.88282 7.98618 26.23307 19.37739 51.44148 31.92578 75.83398 3.36627 6.54364 8.33194 14.94184 13.46484 23.30273l24.49805 30.33399c26.25071-5.49691 50.87431-15.34285 73.20117-28.64258l-47.73047-40.8125c-12.6717-12.17293-24.36329-26.50051-34.3164-40.89258-16.2733-23.53094-28.27069-50.05731-37.85157-76.99804-9.72884-27.35674-16.58545-55.99377-19.55078-84.86915-2.73577-26.64005-2.71914-55.68519 1.74609-80.32031z" fill="#ffa348" opacity=".75"/><path d="m237.93945.8203125a250 250 0 0 0 -107.64843 30.4296875c21.78701-13.558824 45.93909-23.9073029 71.83203-30.3515625-3.96839.3573951-7.93017.8228093-11.88282 1.4101563-61.47416 11.5654322-109.867328 52.6743492-144.072261 103.8730462a250 250 0 0 0 -17.517578 29.14453c14.522958-16.61887 28.311139-34.33182 46.58789-46.515623 18.812581-12.541014 44.042259-25.177962 62.925779-25.400391 22.93946-.270197 41.38006 10.472979 50.17188 28.03125 2.12988-22.751414 14.16783-31.724021 27.79687-30.232422 17.42025 1.906511 37.43919 20.908005 42.67969 50.087896 7.6981-20.374547 15.83619-37.099313 26.375-36.580083 16.58764 4.600553 26.22807 30.430263 31.25781 44.765623 7.49949 21.60873 11.57956 44.63413 14.09571 60.42578 9.82101-46.04785 24.94535-64.85403 37.52734-63.25976 11.73198 1.48656 21.25345 20.70968 22.20117 52.11523 11.33886-17.4333 12.43181-37.44523 8.69922-55.94531-4.2563-21.095625-18.82457-39.596215-33.88867-55.001954-17.86968-18.274945-40.66152-32.147103-64.39063-41.714844-19.88499-8.0177949-41.25327-13.3543199-62.75-15.2812495z" fill="#ffa348"/><path d="m318.6407 271.18245-15.2255-3.31045c-5.92416-1.28808-7.03317-.40964-13.99499-3.04556-2.41706-1.09107-5.31567-5.80709-3.57922-11.04934.62346-1.88419 2.66921-4.99651 3.89224-7.66552 1.20586-2.63157 1.84932-5.07829 1.37519-6.1663-.47412-1.088-3.50916-2.1095-6.82882-1.89494-3.94255.25479-7.22861 1.68736-8.82762 3.90666-2.11388 3.07275-10.17331 2.92895-12.13366-.0865-3.37326-4.8255-4.51273-10.594-3.61253-15.59043.90022-4.99641 3.44758-9.13232 6.44851-12.49273 6.00182-6.72079 13.36034-11.08933 21.29374-11.66869 6.24228-.45582 12.37392 1.57584 18.30552 4.95819s9.96767 8.28645 13.88785 13.38136c1.22209 1.58828 2.10582 3.42387 2.92277 5.2538 2.1461 4.80728 5.14894 14.93079 5.14894 14.93079.26277-.15681-2.56745 19.79768-9.07242 30.53966z" fill="#994100" stroke-width=".842629"/><path d="m287.99049 209.53924c7.84175-.57262 20.85912 5.8759 26.51541 16.09406.083 4.01932 3.35386 8.69328 2.73228 12.72701-1.2208 7.92224-.46876 12.39544-10.18901 22.58356-6.55037-1.15134-8.87677-.75945-14.99458-3.07581 1.64675-2.50135 3.23559-6.02383 4.44222-8.65706 2.93123-6.39687 3.80224-12.5446.62126-15.56594-5.22498-4.11027-21.05704-5.26009-27.70264 3.96351-9.47379-13.55244 9.38212-27.39799 18.57506-28.06933z" fill="#ffa348" stroke-width="15"/><path d="m333.26667 230.04237c9.65165 2.54007 18.92178 6.45924 28.64169 8.72418 10.85634 2.52976 33.00263 5.40057 33.00263 5.40057l-25.1458 40.37214-16.45884 14.87504c-8.61604 2.01572-17.56398 6.98958-28.69421 11.49681-6.29211 2.54871-12.23613 4.71416-18.08421 6.04221l-33.61504 7.63236 17.49974-29.69682c9.88838-16.78205 18.47225-36.62431 22.1412-54.31467l1.96048-14.7057s12.55948 2.54408 18.75236 4.17388z" fill="#994100" stroke-width=".842629"/><path d="m327.12366 243.59597c9.73808 4.41348 21.6946 7.67929 34.4611 10.34995 2.33478.48749 9.95876 2.1622 12.30477 2.59243l20.41473 3.87763-24.53907 24.12328-16.60661.51564c-11.42991 2.38896-23.21882 7.64521-34.13216 12.06455-5.90804 2.39314-11.36972 4.31818-15.79407 5.32292 10.54889-17.90302 19.75284-38.89213 23.89131-58.84642z" fill="#ffa348" stroke-width="30"/><path d="m401.31746 242.36118-3.46231.82731s-27.40952 7.27286-42.19673 36.20212l-.25962.50569-.21894.52312c-17.14045 40.97665-48.84922 70.28293-59.83569 110.03041-4.38038 15.84759-4.33961 35.27059-3.86143 51.92296.47817 16.65237 1.84255 30.13775 1.84255 30.13775l1.05594 10.47217 10.22804 2.49162s41.26421 10.5914 66.98506 11.40991c23.3971.74467 60.63975-6.38598 60.63975-6.38598l13.06842-2.31337-.80988-13.24667c-1.41495-23.14069 4.48647-78.265 14.48473-97.29137l.12787-.24412 8.41261-17.5479c1.41293-.92615 2.99006-1.85363 4.2315-2.77643 12.17653-9.05136 19.33231-17.92104 23.15114-27.1017v-.002c3.80576-9.15193 5.52015-18.43136 5.01229-27.32257l-.01-.14338-.01-.14337c-1.48518-19.41352-14.30239-33.63394-28.59163-43.14417l-2.36568-1.57712-2.78224-.59093s-21.21179-4.51458-31.51144-6.84324c-9.7887-2.21313-29.86263-7.01955-29.86263-7.01955z" fill="#994100" stroke-linecap="square"/><path d="m401.31364 257.66159s-20.3199 4.85446-32.40662 28.50056c-18.51803 44.26995-49.91326 74.57594-59.22151 108.2518-6.80405 24.6161-1.55581 76.60278-1.55581 76.60278s42.3227 10.30744 63.93738 10.99529c19.29079.61397 57.5727-6.16511 57.5727-6.16511-1.59236-26.04201 2.7881-79.66413 16.16647-105.12273l10.06723-21.00439c2.69539-1.58031 5.06494-3.14702 6.99824-4.58412 11.01781-8.19002 15.40615-13.94175 18.28996-20.87458 2.88297-6.93285 4.22872-14.90656 3.89437-20.76028-.85345-11.15574-11.26137-24.74713-21.99833-31.89312 0 0-21.15163-4.49993-31.69766-6.88429-10.0351-2.26884-30.04642-7.06181-30.04642-7.06181z" fill="#ffa348" stroke-linecap="square" stroke-width="30"/><path d="m407.79439 352.78303-15.03902-4.07462c-5.85162-1.58541-7.00355-.76405-13.82346-3.74796-2.35893-1.21166-5.01582-6.06796-3.01703-11.2159.71775-1.85031 2.91797-4.85543 4.27413-7.45931 1.33713-2.56737 2.10325-4.97849 1.68464-6.08904-.41862-1.11055-3.39823-2.28392-6.72449-2.23717-3.95038.0555-7.30456 1.32041-9.01353 3.45619-2.26626 2.96214-10.30816 2.4118-12.11384-.69874-3.12542-4.9896-3.97233-10.80824-2.82111-15.75288 1.15121-4.94461 3.90407-8.9467 7.07074-12.15137 6.33337-6.40934 13.90298-10.40095 21.85551-10.57919 6.25732-.14021 12.27862 2.1983 18.03196 5.8757 5.75335 3.67739 9.53677 8.77893 13.19485 14.06518 1.14037 1.64794 1.93034 3.52577 2.65389 5.39462 1.90076 4.90945 4.38887 15.17162 4.38887 15.17162.27034-.14336-3.56331 19.64286-10.60211 30.04287z" fill="#994100" stroke-width=".842629"/><path d="m380.29419 289.67155c7.86065-.17614 20.53599 6.92112 25.6694 17.4117-.11988 4.0184 2.91088 8.85146 2.0865 12.84869-1.61905 7.85053-1.09372 12.35598-11.31575 22.04057-6.48391-1.48045-8.82712-1.20646-14.82024-3.82862 1.77089-2.41506 3.53547-5.85288 4.87345-8.42184 3.25033-6.2408 4.43049-12.33674 1.40604-15.51476-5.01089-4.36872-20.76474-6.31606-27.86737 2.56039-8.77776-14.01328 10.75286-26.88959 19.96797-27.09613z" fill="#ffa348" stroke-width="15"/><path d="m481.16168 324.26109c-2.88381 6.93283-7.27215 12.68456-18.28996 20.87458-11.01783 8.19002-35.51624 20.54553-60.90714 16.10447 8.97324-11.12398 14.11985-24.90346 16.43191-38.49999 14.71746.88772 25.98761-8.13863 38.45736-13.23503l1.29687-12.80466s-13.70597 5.06339-20.72792 7.05275c-5.96411 1.68967-12.75311 4.45849-18.13118 4.1341l-13.32804-.80407-2.23781 13.16335c-1.9788 11.63671-6.39463 23.0365-13.34354 31.65094l-15.85066 19.65009 24.86777 4.34967c17.21415 3.01097 33.32277-.32889 46.40691-5.17311 10.93771-4.04952 15.04021-6.83343 21.71158-10.86935 12.65315-7.65465 23.71857-20.24035 27.38264-29.87813.23037-9.46085-.30739-19.24667-11.4815-33.5325 2.19844 8.11848 2.43279 17.00493-2.25729 27.81689z" fill="#994100" stroke-width=".842629"/><path d="m463.05804 271.60737c10.73696 7.146 21.14459 20.73834 21.99803 31.89409.33436 5.85371-1.01058 13.82723-3.89356 20.76007-2.8838 6.93285-7.27388 12.68458-18.29171 20.8746-11.01781 8.19001-35.51598 20.54442-60.90687 16.10335 8.97325-11.12398 14.11979-24.90273 16.43186-38.49926 14.71745.88772 23.26459-6.9605 35.73434-12.0569l4.0206-13.98285z" fill="#ffa348" stroke-width="30"/><path d="m479.04072 227.9853c2.19725 26.78639-14.67088 51.56581-39.60176 52.56125-24.93078.99539-44.3936-21.08461-46.59088-47.87246-2.19617-26.78656 15.13086-51.59784 40.30037-51.82705 25.16952-.22921 43.76459 21.18797 45.89227 47.13826z" fill="#994100" stroke-width=".842629"/><path d="m464.21074 229.20117c1.66424 20.28864-10.48036 35.88377-25.36499 36.47809-14.88546.59431-29.50262-13.93172-31.16686-34.2212-1.66341-20.28864 10.48202-35.88377 26.06461-36.48477 15.08943.32432 28.85565 14.572 30.46724 34.22788z" fill="#ffa348" stroke-width="30"/></svg>