<svg height="500" viewBox="0 0 500 500" width="500" xmlns="http://www.w3.org/2000/svg" xmlns:xlink="http://www.w3.org/1999/xlink"><radialGradient id="a" cx="1362.7291" cy="216.11429" gradientTransform="matrix(1.0000001 -.0000059 .0000001 1.0000003 -112.72927 33.893757)" gradientUnits="userSpaceOnUse" r="250"><stop offset="0" stop-color="#ff851a"/><stop offset=".42441937" stop-color="#f87000"/><stop offset=".86367416" stop-color="#f26900"/><stop offset="1" stop-color="#e55f00"/></radialGradient><g transform="translate(-1000)"><path d="m1500 250a250 250 0 0 1 -250 250 250 250 0 0 1 -250-250 250 250 0 0 1 250-250 250 250 0 0 1 250 250z" fill="url(#a)" stroke-linecap="round" stroke-linejoin="round" stroke-width="1.002"/><path d="m1309.2298 33.82789c128.5196 30.706851 207.8974 167.48127 169.5927 291.56949-31.3771 95.69524-112.8693 162.03793-212.5543 174.60263 153.1796-8.09118 266.0956-163.0043 218.7012-309.92978-36.4562-114.666588-154.6038-191.5214848-270.6514-169.822657-18.8526 4.215647-38.4387 10.498641-55.8829 18.694487-112.5353 47.459213-168.47522 196.206-99.9632 307.85319 57.6978 93.63045 168.5136 141.8489 267.9993 100.77239-134.92 68.97589-303.283-51.46877-311.488-201.30723-4.4167-117.68321 76.8182-219.674136 190.654-246.26040176-89.0147 9.18391126-152.6601 79.39239576-187.7408 157.21169176-38.45522 102.70317 5.2337 231.75078 109.038 294.08388 114.5107 66.1048 260.3537 29.37245 323.6836-83.60152 42.2104-77.69758 34.3514-177.62383-23.1776-249.88923-57.5404-72.257811-157.5429-102.460489-246.4118-71.877168-81.7429 30.682061-131.1298 101.133078-134.0478 190.176958.6692 92.68536 61.7912 168.55972 147.5399 198.52472 128.5549 37.82014 266.7725-70.33038 233.6823-209.88949-14.7104-64.39775-57.8855-122.14991-125.7378-141.121386-71.391-15.467036-138.9716 1.205-181.2869 64.641366-18.8995 29.2286-28.9384 85.21395-26.105 97.65297m0 0c13.5324-50.18833 30.6277-97.66354 72.2125-128.94941 53.182-38.308183 124.4576-37.093813 181.7444-.48035 50.1457 36.48017 75.4845 90.37713 72.3557 150.91678-6.6674 64.04407-38.4038 109.83277-91.6401 141.00844-63.9019 34.56125-135.3795 4.83213-189.1258-35.28385-78.8706-65.48566-79.7477-186.67235-8.9744-256.76104 63.7369-55.941605 167.0207-64.891564 238.7167-6.65053 78.8163 58.35315 90.3045 169.04089 40.972 246.62443-35.2274 56.41892-88.4571 87.60135-152.5581 93.63158-81.9488 2.18264-160.666-41.91503-196.8695-120.9383-36.2055-79.02511-22.5771-164.33167 26.8727-227.66064 49.4316-63.30896 138.3491-86.746364 220.4504-67.54202" fill="#c50"/></g><path d="m345.76762 323.99755c-1.72128-52.18412 11.01712-107.90032.0801-158.41482-3.9645-15.85797-12.91667-31.50445-28.41211-41.83594 0 0-9.64865-6.35629-15.00579-8.39258-9.02454-3.43029-28.28711-6.2227-28.28711-6.2227l-.0547-21.080081c-.34165-18.10586-5.51387-33.850462-14.57907-45.937499-9.14915-12.201172-23.07884-20.830028-38.46597-20.830028s-29.31683 8.628873-38.4658 20.830078c-9.0652 12.087044-14.23741 27.831649-14.57908 45.937499l-.0547 21.080081c-17.15662 1.898-28.40082 6.28736-43.29296 14.61328-15.49686 10.33164-24.44976 25.98069-28.414062 41.83789-6.182417 52.47883-2.911044 105.73909.08203 158.41482z" fill="#994100"/><path d="m221.04271 39.283304c-9.0108 0-17.4348 4.788-24.066 13.6305-6.6312 8.8407-11.034 21.604495-11.034 35.869505 0 14.265001 4.4028 27.028801 11.034 35.869501 6.6312 8.8425 15.0552 13.6305 24.066 13.6305s17.43481-4.788 24.066-13.6305c6.6312-8.8407 11.03401-21.6045 11.03401-35.869501 0-14.26501-4.40281-27.028805-11.03401-35.869505-6.63119-8.8425-15.0552-13.6305-24.066-13.6305zm-51.3 87.766206c-5.274.6876-10.05299 1.629-14.4 2.7774v176.17083h131.40001v-176.17083c-4.34701-1.1484-9.12601-2.0898-14.40001-2.7774v53.1396l-4.4775 2.2401c-30.7314 15.3657-62.9136 15.3657-93.645 0l-4.4775-2.2392zm-30.59999 8.9838c-1.54421.8244-3.04831 1.72182-4.50721 2.6892-11.7027 7.8021-17.68229 18.2124-20.93579 31.2264-5.3118 21.2472-1.8378 110.25573-.37441 136.04883h25.81741zm163.8 0v169.96443h25.81739c1.4634-25.7931 4.9374-114.80163-.3744-136.04883-3.2535-13.014-9.234-23.4243-20.9358-31.2264-1.45889-.96738-2.96299-1.8648-4.50719-2.6892zm-117.00001.7614v33.1137c23.7285 10.5984 46.4715 10.5984 70.20001 0v-33.1137c-8.90731 10.6578-21.27601 17.6886-35.10001 17.6886s-26.1927-7.0308-35.1-17.6886z" fill="#ffa348" stroke-width="36"/><path d="m371.35156 262.48242-246.23242.002-.002 18.31055h-88.933546l10.248047 24.85938c14.837158 35.99467 44.880986 61.52154 78.689449 73.41211v34.25195h40.82227c-8.14821 12.10966-18.44143 23.25386-29.93945 33.83398h-33.72266v52.84761h291.91016v-52.84766h-36.37891c-13.1378-10.5698-23.89826-21.70309-32.15039-33.83398h45.68945v-32.3418c16.23538-7.50045 31.88396-18.09711 47.13867-31.36523l15.48438-13.46875-15.37305-13.59571c-15.32919-13.55835-31.15661-22.84516-47.25-28.62695zm-36 36v23.07617l13.89649 3.25391c9.27718 2.17248 18.31545 5.92866 27.56445 11.54687-10.14921 7.00058-20.03753 12.40899-29.4707 15.75l-11.99024 4.24805v20.96094h-65.34765l9.2207 24.36914c9.09154 24.02697 24.07964 44.5182 43.07422 62.3125h-151.72461c17.35638-17.63794 32.41114-37.92494 41.98047-62.04297l9.77539-24.63867h-61.20899v-25.93359l-13.88476-3.26172c-19.42698-4.56417-38.0415-15.64307-51.794924-31.32813h65.673824l.002-18v-.31055z" fill="#994100"/><path d="m143.11685 298.7942h-80.0442c14.3964 34.9254 46.134 58.8843 80.0478 66.852v29.673h52.7022c-10.9035 27.4806-30.1743 50.1138-52.65 69.8328h-22.8915v16.848h255.9096v-16.848h-24.696c-25.85519-19.7046-45.0216-42.3153-55.4346-69.8346h57.2913v-26.2404c17.775-6.2955 35.55-17.5869 53.325-33.0471-17.8254-15.7662-35.3115-24.525-53.325-28.7433v-26.8038l-210.2336.0008z" fill="#ffa348" stroke-width="36"/><path d="m424.53711 4.151451-8.46484 6.884766-8.58204 6.978515-25.9707-10.503906-23.10937 45.710935 46.92382 19.84571-55.89648 118.695309 48.40234 22.23047 56.16602-120.341799 15.14844 6.406249 30.8457-63.376952z" fill="#994100"/><path d="m427.42987 25-16.8309 13.689-20.484-8.2854-6.948 13.7439 77.274 32.681701 15.1263-31.078801zm-4.7376 53.452801-49.2273 104.537699 15.6303 7.1784 49.0842-105.167699-15.4863-6.5484z" fill="#ffa348" stroke-width="36"/></svg>