<svg height="500" viewBox="0 0 500 500" width="500" xmlns="http://www.w3.org/2000/svg"><g transform="translate(.000015)"><circle cx="-249.99998" cy="250" fill="#e51a1a" r="250" transform="scale(-1 1)"/><path d="m181.33938 83.856939c97.52275-31.84694 203.27597 26.159281 217.12696 131.568651 10.04116 85.89723-45.79566 162.6049-131.11288 174.6444-76.26503 6.65-147.16573-45.4981-149.44603-126.3231.16679-50.89801 30.03241-87.97493 76.60677-108.40662 44.00125-16.48183 90.46555-3.00917 112.28155 39.63622 17.95322 40.0953 3.57775 87.31302-40.4313 103.80676-21.98685 8.23292-51.6578-5.55285-56.72562-31.5612 24.48155 21.7253 69.7211 11.74379 80.1808-21.06198 5.24648-24.88185-11.48198-41.52298-24.36368-55.64156-23.21161-15.22125-63.26956-13.16738-85.32502 12.05139-41.51846 46.43224-18.48961 112.52397 35.72777 131.08081 60.66482 17.11352 118.96473-29.63961 126.96137-92.39988 2.7637-54.83226-40.99398-106.19486-96.51046-114.27807-76.21988-10.3001-138.45939 50.84936-147.743191 124.09106-9.31956 73.21828 47.315731 138.67973 111.863041 158.33924 49.05305 9.49897 98.18701 2.07129 139.64056-27.40671 82.90715-58.95602 100.11901-177.97214 43.55644-260.39974-52.71171-79.885311-158.575-103.987181-249.15842-67.061741-86.705021 39.45169-149.0660905 134.549061-117.102931 229.167621 15.77888-74.65377 50.93986-153.5943 123.407351-187.514491 9.28724-4.60517 19.44718-8.7232 30.56692-12.33106zm-160.722321 286.075591c-52.57825-113.8254-.38403-260.89182 113.777041-317.643861 10.84604-5.32012 22.21219-9.7712 34.03518-13.36069 115.76394-28.75816 246.03978 34.00351 263.68455 158.897471 10.04526 85.91695-27.72044 168.80365-107.97396 206.83173-102.24035 46.26108-224.798841-11.43986-234.690511-131.24969-7.33455-123.78718 127.307171-194.136761 222.718561-137.24102-42.54074-27.89653-94.21826-33.44528-140.80825-12.98978-71.17376 32.62266-105.080851 118.0397-80.762351 190.63139 30.697281 88.13423 123.572931 132.04164 212.817841 105.59803 82.80488-25.06359 132.16266-100.33164 140.19255-180.04986 12.12434-145.020371-132.23823-245.3588802-265.59709-221.973611 7.92036-4.10499 20.5989-8.4277792 35.61563-11.7452592 60.06317-13.23825 124.63426-3.45807 179.45368 32.4903392 109.65077 71.904621 141.09454 217.803071 65.16008 333.599141-143.00482 218.07486-377.311781 117.06797-437.622951-1.79433" fill="#b21a1a"/></g><path d="m258.375 10.751953c-5.50015-.01778-11.02029.0582-16.56055.226563l-13.45508.410156-3.41015 13.021484c-15.07112 57.549444-23.17225 110.376444-16.06055 159.753904 7.15283 49.66001 30.1515 95.17718 73.22266 136.5293l7.16015 6.875 9.63282-2.38672c56.60927-14.01957 99.07201-42.17675 130.36328-81.44141v-.002c31.2015-39.15466 51.36335-88.90304 67.17383-146.539061l3.55468-12.960938-11.41797-7.091797c-37.2126-23.110399-76.67967-40.760425-117.98046-51.83789-.00061-.000164-.001.000163-.002 0-.002-.000532-.004-.0014-.006-.002-.00061-.000164-.001.000163-.002 0-36.21895-9.714486-73.71504-14.43013-112.21266-14.554591z" fill="#861313"/><path d="m365.9332 42.693403c39.45288 10.58163 77.29114 27.475451 113.1492 49.74463-15.46943 56.392757-34.99425 103.820557-63.89142 140.083517-29.04325 36.44381-67.31187 61.98752-120.61307 75.18783-40.7094-39.08462-61.25376-80.15464-67.87309-126.1107-6.57051-45.61993.87731-96.193937 15.65623-152.627598 42.73527-1.298687 83.99628 3.106384 123.57277 13.722487z" fill="#ff8066" stroke-width="36"/><path d="m361.01446 66.977702-40.01702 10.83253 9.99825 37.388328c-3.93353.50736-7.74736 1.53959-11.3458 3.06534l-10.00328-37.369485-39.94838 10.807658-10.59736 39.573377 37.51489 10.05805c-.76392 1.81579-1.42835 3.70814-1.95263 5.66595-.52761 1.9702-.90367 3.94847-1.15071 5.92277l-37.51624-10.05841-10.72206 40.03902 29.16172 29.31646 27.50567-27.52073c2.34014 3.13587 5.10648 5.95831 8.23984 8.37699l-27.45756 27.49181 29.27765 29.43264 40.0254-10.78845-10.08219-37.61856c3.9255-.52945 7.73003-1.60662 11.32635-3.15421l10.09892 37.72833 39.55686-10.66454 10.80494-40.34856-37.30373-10.00143c.77262-1.8334 1.43532-3.73415 1.96309-5.70497.52411-1.95719.89476-3.92764 1.14026-5.88375l37.30373 10.00143 10.68566-39.90309-28.96885-29.0354-27.42694 27.45819c-2.35403-3.12366-5.134-5.93928-8.28759-8.34942l27.42018-27.438357-29.24343-29.318166zm-16.32779 60.740828c16.87036 4.52308 26.85749 21.79837 22.33642 38.68122-4.52244 16.88249-21.80057 26.84918-38.6734 22.32543-16.87283-4.52374-26.83796-21.7959-22.31722-38.67752 4.52039-16.88037 21.78322-26.85239 38.6542-22.32913z" fill="#861313" stroke-width=".899999"/><path d="m268.02539 156.61896-19.5332 8.95703c-70.82138 32.47696-145.05552 53.94936-226.927737 60.99414l-21.56054675 1.85351 5.74999995 20.86329c16.4905548 59.82146 36.6566828 111.40918 67.2871098 152.54882 31.145494 41.8304 73.481164 72.49632 131.091794 88.69141l10.29688 2.89453 7.46484-7.66015c40.85906-41.92504 62.24746-89.4968 68.65625-141.4629v-.002c6.31004-51.16988-1.47624-106.50483-17.13086-166.87695z" fill="#861313"/><path d="m255.99618 181.93722c15.34189 59.16607 22.58299 112.37642 16.69085 160.15744-5.9922 48.58817-25.30262 91.72349-63.68266 131.10483-54.24147-15.24798-92.44592-43.05747-121.525777-82.11359-28.55947-38.35815-48.1829-87.85588-64.37174-146.58284 84.066817-7.23362 160.460927-29.35194 232.889327-62.56584z" fill="#ff8066" stroke-width="36"/><path d="m166.06397 238.34915c-50.81064 31.2897-9.91157 63.16105-18.25371 88.26898-8.73828 26.30022-40.22723 30.16907-45.82564-30.58504-30.497277 62.04816 35.02454 137.11644 76.59287 149.9729-12.45652-6.50409-23.22683-20.37948-27.98073-38.1318-1.37439-5.13233-2.13861-10.24348-2.36657-15.19266 7.80528 11.09575 20.64813 16.91666 32.91913 13.62671 16.37827-4.39114 25.53521-23.3234 20.45615-42.28996-1.68394-6.28828-4.72113-11.78571-8.62835-16.17118 14.20554 5.35055 26.92034 20.29317 32.20583 40.03058 4.14276 15.47017 2.85346 30.67391-2.52856 42.17867 27.0856-28.54266 43.07034-85.94748-1.83608-137.15913 4.92119 70.3627-74.6279-10.51666-54.75512-54.54853z" fill="#861313"/></svg>