<svg height="500" viewBox="0 0 500 500" width="500" xmlns="http://www.w3.org/2000/svg" xmlns:xlink="http://www.w3.org/1999/xlink"><radialGradient id="a" cx="1362.7291" cy="216.11429" gradientTransform="matrix(1.0000001 -.0000059 .0000001 1.0000003 -112.72927 33.893757)" gradientUnits="userSpaceOnUse" r="250"><stop offset="0" stop-color="#ff851a"/><stop offset=".42441937" stop-color="#f87000"/><stop offset=".86367416" stop-color="#f26900"/><stop offset="1" stop-color="#e55f00"/></radialGradient><linearGradient id="b"><stop offset="0"/><stop offset="1" stop-color="#fff"/></linearGradient><mask id="c" maskUnits="userSpaceOnUse"><g transform="translate(.23734 .00005)"><path d="m-6.796372-.391172h130.1553v126.26928h-130.1553z" fill="url(#d)" fill-rule="evenodd"/><path d="m107.35893 0h107.71969v83.959541h-107.71969z" fill="url(#e)" fill-rule="evenodd"/><path d="m84.315506 91.724167h415.68451v408.27582h-415.68451z" fill="#fff" fill-rule="evenodd"/><path d="m205.6367 0c-68.8539 7.1038598-122.4516 50.773628-159.4687 106.18164a250 250 0 0 0 -25.666 45.56836c-.8581 1.82411-1.7791 3.62769-2.6055 5.46094-1.6857 4.50211-3.1574 9.07049-4.5293 13.66601a250 250 0 0 0 -13.3672 79.12305 250 250 0 0 0 250 250 250 250 0 0 0 29.2207-2.08984c-4.2966.75527-8.5839 1.53913-12.9531 2.08984 54.7448-2.8917 104.2882-24.60233 143.2676-57.93359a250 250 0 0 0 11.9043-10.85352c1.9229-1.87123 3.8268-3.75716 5.6875-5.6875a250 250 0 0 0 72.873-175.52539 250 250 0 0 0 -250-250 250 250 0 0 0 -119.709 31.25c22.7752-14.173805 48.1126-24.8897228 75.3457-31.25z" fill="#fff" stroke-linecap="round" stroke-linejoin="round" stroke-width="1.002"/></g></mask><linearGradient id="d" gradientUnits="userSpaceOnUse" x1="-.000005" x2="41.041809" xlink:href="#b" y1="47.696079" y2="76.254265"/><linearGradient id="e" gradientUnits="userSpaceOnUse" x1="190.46538" x2="192.04021" xlink:href="#b" y1=".128154" y2="6.005514"/><g transform="translate(-1000)"><path d="m1500 250a250 250 0 0 1 -250 250 250 250 0 0 1 -250-250 250 250 0 0 1 250-250 250 250 0 0 1 250 250z" fill="url(#a)" stroke-linecap="round" stroke-linejoin="round" stroke-width="1.002"/><path d="m1309.2298 33.82789c128.5196 30.706851 207.8974 167.48127 169.5927 291.56949-31.3771 95.69524-112.8693 162.03793-212.5543 174.60263 153.1796-8.09118 266.0956-163.0043 218.7012-309.92978-36.4562-114.666588-154.6038-191.5214848-270.6514-169.822657-18.8526 4.215647-38.4387 10.498641-55.8829 18.694487-112.5353 47.459213-168.47522 196.206-99.9632 307.85319 57.6978 93.63045 168.5136 141.8489 267.9993 100.77239-134.92 68.97589-303.283-51.46877-311.488-201.30723-4.4167-117.68321 76.8182-219.674136 190.654-246.26040176-89.0147 9.18391126-152.6601 79.39239576-187.7408 157.21169176-38.45522 102.70317 5.2337 231.75078 109.038 294.08388 114.5107 66.1048 260.3537 29.37245 323.6836-83.60152 42.2104-77.69758 34.3514-177.62383-23.1776-249.88923-57.5404-72.257811-157.5429-102.460489-246.4118-71.877168-81.7429 30.682061-131.1298 101.133078-134.0478 190.176958.6692 92.68536 61.7912 168.55972 147.5399 198.52472 128.5549 37.82014 266.7725-70.33038 233.6823-209.88949-14.7104-64.39775-57.8855-122.14991-125.7378-141.121386-71.391-15.467036-138.9716 1.205-181.2869 64.641366-18.8995 29.2286-28.9384 85.21395-26.105 97.65297m0 0c13.5324-50.18833 30.6277-97.66354 72.2125-128.94941 53.182-38.308183 124.4576-37.093813 181.7444-.48035 50.1457 36.48017 75.4845 90.37713 72.3557 150.91678-6.6674 64.04407-38.4038 109.83277-91.6401 141.00844-63.9019 34.56125-135.3795 4.83213-189.1258-35.28385-78.8706-65.48566-79.7477-186.67235-8.9744-256.76104 63.7369-55.941605 167.0207-64.891564 238.7167-6.65053 78.8163 58.35315 90.3045 169.04089 40.972 246.62443-35.2274 56.41892-88.4571 87.60135-152.5581 93.63158-81.9488 2.18264-160.666-41.91503-196.8695-120.9383-36.2055-79.02511-22.5771-164.33167 26.8727-227.66064 49.4316-63.30896 138.3491-86.746364 220.4504-67.54202" fill="#c50"/></g><g mask="url(#c)" transform="translate(-.23734 -.00005)"><use fill="#994100" height="100%" transform="translate(101.6332 -32.168786)" width="100%" xlink:href="#f"/><path d="m169.5238 101.06687s2.82438-12.553416 4.24619-18.827947c3.42126-15.098122 7.39834-30.079241 10.31009-45.283845 2.34488-12.244481 4.11743-24.596501 5.75796-36.955078.91503-6.8931961 2.27719-20.736328 2.27719-20.736328l2.16407-18.949219-53.15039-2.658203-2.01368 16.542969s-1.80939 17.2227065-2.97851 25.800781c-1.3661 10.023374-2.73864 20.058491-4.71453 29.979685-2.93935 14.758798-7.00289 29.27153-10.6082 43.881924-1.49272 6.049172-4.56406 18.126101-4.56406 18.126101 17.05321-.254472 34.07807-.640925 53.27387 9.07916z" fill="#994100"/><path d="m149.2076 30.5307c-2.88341 14.723032-8.48397 35.503995-10.50829 43.764267 5.99877.507543 11.9097 1.425026 17.5737 2.808082 1.97746-8.417415 7.41643-28.894652 10.23597-43.531967 2.14057-11.112558 3.53565-22.357609 5.06177-33.571082 1.03089-7.5746636 2.76547-22.766125 2.76547-22.766125l-17.45767-.873108s-1.91945 15.7721567-3.02107 23.639233c-1.42757 10.194788-2.67141 20.428358-4.64988 30.5307z" fill="#ffa348"/><path d="m13.548828-43.597656-54.99414 10.486328 9.980468 20.933594s9.426152 19.9730282 15.953125 31.324218c6.8028163 11.830913 9.5628458 19.268696 15.511719 28.194611 7.696728 11.548463 16.94046 22.001957 25.944785 32.562674 7.961535 9.337681 16.65831 18.024879 24.802685 27.203521 4.02354 4.5345 11.885847 13.76522 11.885847 13.76522 5.666068-8.12549 19.955093-19.08634 19.955093-19.08634 7.359984-4.574883 16.295215-7.314177 26.08275-9.060304 0 0-10.123354-10.100429-14.990757-15.335849-13.739381-14.778196-27.999925-29.201167-40.095543-45.35238-7.563346-10.099295-14.153671-20.941028-20.159107-32.037637-5.35749-9.8993618-14.091769-30.6875-14.091769-30.6875z" fill="#994100"/><path d="m-15.311776-19.878446s9.6998477 20.34465735 15.311776 30.104474c6.4940346 11.293905 13.582729 22.264839 21.194371 32.837809 8.541257 11.864252 17.81736 23.203828 27.39854 34.24532 5.301009 6.10896 14.729282 15.443373 16.621834 17.677541 4.971975-3.009148 7.832821-8.326212 13.330885-11.038642-2.459635-2.664604-10.978124-11.501313-16.162174-17.523757-9.218639-10.70953-18.276259-21.594038-26.538644-33.057473-7.737473-10.73516-15.026178-21.830927-21.509633-33.366826-4.24175-7.5472728-11.3313181-23.370605-11.3313181-23.370605z" fill="#ffa348"/><g><path d="m499.88847 350.23505c-2.68487-16.13302-9.11808-32.52507-13.91756-44.93894-5.55347-14.33253-15.78168-37.41492-21.26023-48.62216l-36.59453-68.07359c-6.03465-11.50328-15.94992-18.00673-26.09933-26.15244-6.46946-1.79028-10.87264-.40771-16.94455 1.6302-27.62563 20.28013-53.8973 46.70992-70.49024 71.82813-25.63103 39.37136-42.13291 82.99033-56.84961 125.28125-14.37853 44.84451-20.56078 83.02842-31.4375 124.89844 14.87835 5.05332 29.06453 7.73653 43.93555 9.2832 21.85451-23.34952 41.92356-50.30886 56.69726-73.91211 23.02528-37.01635 46.0223-76.12281 60.4961-119.52148 6.75239-20.2464 9.65319-40.54109 12.07812-59.90039 3.66022 9.27041 7.22712 18.55943 9.31836 25.08398 5.89738 18.39939 15.50881 61.60352 15.50881 61.60352 3.92592 14.38396 7.34294 25.65512 11.61037 39.25195 4.23679 1.16561 8.7938 2.2858 12.91992 3.24805-1.59647 24.20413-8.14763 44.92123-12.7207 68.15625l52.34766 10.30859c2.94716-18.4628 8.83724-38.54945 11.75097-53.90821z" fill="#994100"/><path d="m441.69306 324.42613c2.7954 10.11866 5.53711 19.76491 8.35105 28.72989 3.58696.93408 8.72584 2.10825 14.82613 2.56211 2.53967 12.89943 2.34055 21.91027.94871 30.94357-1.66903 10.83411-5.419 22.11329-8.66728 38.61724l17.23696 3.39468c2.71829-13.79737 6.02513-24.16688 8.10508-35.3543v-38.30978c-.70958-4.96809-1.74126-9.85124-3.16043-14.85543-1.78324-6.23693-4.6245-14.39667-8.19878-23.61737-7.14466-18.44433-17.22525-41.21351-27.82413-62.89636l-27.37124-50.84415c-1.19078-1.94721-2.36594-3.83586-3.49815-5.58786-4.11891-6.37358-7.75956-11.13961-10.42416-14.02577v-.002l-5.06275 6.46825c1.98137 4.22628 3.87002 8.475 5.69425 12.73739 0 0 16.73614 39.06617 23.21253 59.27208 6.58614 20.54828 15.83221 62.76798 15.83221 62.76798zm-112.1154-78.75809c-24.23402 37.22544-40.34582 79.45019-54.94431 121.40143-12.04039 34.60016-17.34097 70.8707-26.63259 106.63011 4.87241 1.39867 10.26507 2.43425 15.25559 2.95351 17.58443-18.73324 34.25062-41.77704 48.47724-64.64837 22.84814-36.73158 45.03018-74.69505 58.71597-115.73095 9.46558-28.38164 10.94125-59.28744 15.56597-88.39528-2.26638-5.25503-4.63231-10.4759-7.4174-16.20137-16.7895 12.957-35.71524 33.553-49.02047 53.99092z" fill="#ffa348"/></g><g><path d="m50.247018 235.38268 11.178775 14.171c21.988028 30.01896 45.700017 65.37807 75.011657 110.34117 29.31165 44.9631 37.57576 52.0371 46.23438 58.59376l15.63868 11.83984 10.35937-16.65429c4.44412-7.14483 9.39998-14.68766 14.79492-22.4961l7.375-10.67187-7.85156-10.32813c-66.90491-88.01277-106.11719-131.31599-134.05442-161.64752l-12.429101-13.37188c-8.266777 14.06927-15.985864 28.88406-26.257701 40.22402z" fill="#994100"/><path d="m80.427445 223.82024c-1.412337 2.1473-2.871525 4.31997-4.431246 6.54145-1.07365 1.5324-2.196102 3.08919-3.341003 4.65575 22.279212 30.4165 49.592864 70.34163 97.511814 149.36129 7.45699 7.07828 15.2185 13.71734 23.30797 19.84301 4.61279-7.416 9.72432-15.19118 15.26825-23.21525-66.69609-87.73769-100.72103-127.22653-128.315785-157.18625z" fill="#ffa348"/></g><path d="m139.08964 202.35324-4.3455 23.59403c-4.84963 33.17759 16.21922 63.42077 46.56055 77.50781l37.25965 11.51403-13.15418-34.50036c-4.43029-10.86855-10.34014-17.68895-12.45508-22.54688-1.00087-2.29895-.97961-3.2837-.71051-3.4856.097-.073 17.89831-20.09035 17.89831-20.09035z" fill="#994100"/><path d="m152.44984 228.53454c-3.54793 24.27231 11.79355 47.26988 36.3899 58.68961-5.15547-12.6476-24.79839-31.06459-8.46232-46.13961l-.39041-.16399c-8.40766-3.59964-17.77086-7.7742-27.53425-12.38601z" fill="#ffa348"/><path d="m210.14288 234.34592c6.93989 5.65816 16.34633 12.9254 19.91767 17.5701 3.41106 4.49771 6.66586 11.26098 13.34765 18.41406l23.28988 22.52637c4.22746-11.59473 6.67611-23.18945 7.68083-34.78418-.0749-31.33672-16.14642-61.10546-44.90625-72.67774l-30.8386-11.31567z" fill="#994100"/><path d="m222.79145 201.99586c.86576 4.45467 1.65928 8.77075 2.35423 12.85159.90967 5.34679 1.67587 10.20457 2.27028 14.60165 14.09214 1.18296 21.29243 20.34079 29.06956 28.66646-.0607-25.40451-12.74715-47.69251-33.69309-56.12066z" fill="#ffa348"/><g><path d="m29.143212 259.89627 5.604804 20.0611c13.609121 36.74532 30.652614 72.68507 52.044807 105.2908 21.392197 32.60572 47.133087 61.87741 78.137007 85.28662l19.08824-4.40932c-.30221-5.01357 3.74326-15.52796 12.04311-31.42513l-8.4237-21.88659c-30.07775-50.48157-44.3196-73.19368-64.1526-102.44474-19.833-29.25107-45.257146-65.04109-51.76413-73.98433l-10.10658-16.11237c-10.163897 13.62957-20.528529 27.13087-32.470958 39.62396z" fill="#994100"/><path d="m61.425793 249.55368c-4.096462 5.05298-8.47793 10.22896-13.157092 15.52108 26.68313 72.04582 63.509319 142.9067 120.973999 186.29486.35528-.98873.7291-2.00089 1.11952-3.03844 1.92086-5.11253 4.47029-10.75601 7.57216-16.86117-59.99361-100.69179-91.640902-147.73815-116.507611-181.91535z" fill="#ffa348"/></g><g><path d="m424.99535 201.84132c-4.49225-1.88441-9.76657-.65631-14.61347-.16752-7.53808.76017-14.41388.90064-22.21782 4.793-52.53932 24.86506-108.27021 81.55536-151.43359 136.20117v.002c-21.59909 27.34594-36.54292 48.0394-49.09299 70.14378-6.28196 11.06283-15.20371 30.06001-18.39478 38.55587-2.41893 6.40683-3.29493 11.9948-4.31287 19.16517 2.10649 9.76877 10.83265 15.75757 17.47442 20.09807 10.43187 5.95193 18.77867 7.40862 29.73632 9.36719 34.37822-23.38024 67.0492-52.35064 91.27483-78.36723 30.13483-34.05641 56.11994-67.15276 78.32088-101.55855-6.07547 28.38506-11.698 52.86613-16.55664 79.31055l7.19336 6.58007c-14.7008 16.46199-34.91677 32.14346-50.15049 45.94346l35.86328 39.50977c15.10642-14.68995 33.95236-28.75371 45.85279-40.72352 12.09122-12.27997 25.61692-31.28919 30.08861-51.84093l.0117-.0586.0117-.0586c5.83223-31.78807 7.95181-66.81173 8.9215-96.45354.76864-24.59194.58646-48.4407-1.00158-66.4469-.73173-8.29766-1.75858-14.86082-3.19726-20.28516-1.0083-7.14863-7.80339-11.20335-13.7779-13.70955z" fill="#994100"/><path d="m250.77272 353.7602c-21.10795 26.72412-38.92469 52.93094-50.85194 73.93837-5.96364 10.50224-10.45345 19.73075-13.11317 26.81196-2.44207 6.50047-2.70657 11.01956-2.78954 11.61494 4.12477 8.00943 9.57501 12.38309 24.23226 15.00182 57.09573-37.68902 111.54247-101.07145 149.54968-157.12574 19.3257-28.50344 34.46221-55.13388 43.6468-75.20038 4.59229-10.03375 7.68343-18.47655 9.06746-24.24497.52218-2.18244.59343-3.4552.67737-4.65574-4.86287-.74307-10.86349.47639-15.11699 2.60847-47.14689 22.21528-103.08601 77.80497-145.30193 131.25127zm170.70351-133.62258-7.49602 3.35564c-3.0111 63.10524-20.91178 123.11544-29.4102 169.37609 2.5504 2.33275 6.18812 5.4805 10.87314 8.53064-5.745 12.17519-11.34457 19.40183-17.94362 25.914-7.80348 7.69711-17.54344 14.51381-29.99875 25.81836l11.80819 13.00873c11.63739-10.56374 21.31684-17.23306 30.52778-26.32102 10.92487-11.34749 23.75011-31.19246 26.7046-44.7712 1.33718-6.3482 2.63337-14.89055 3.78022-24.71346 2.29371-19.6478 4.01155-44.48523 4.76603-68.60624.75351-24.12394.53097-47.62126-.94188-64.32139-.66664-7.55948-1.66123-13.47138-2.66851-17.26918z" fill="#ffa348"/></g><path d="m56.644438 161.53716s-21.993515 12.61026-32.948791 18.98701c-7.918688 4.60924-15.7853536 9.30736-23.695647 13.931-9.3085051 5.4409-27.966797 16.25186-27.966797 16.25186l1.757813 122.50195s41.858133-34.19442 60.957-53.25161c9.544231-9.5234 18.219495-19.90393 26.677777-30.40369 6.689205-8.3037 13.299092-16.72357 19.001652-25.73344 5.275462-8.33507 9.444498-17.32249 13.992799-26.07559 2.380675-4.58156 6.958666-13.8384 6.958666-13.8384l-19.759769-5.89453c-5.396596-1.6098-10.958253-4.65762-15.810547-8.98438z" fill="#994100"/><path d="m53.900483 182.38223c-10.740404 5.5049-23.116659 13.17076-35.280137 21.72385-.244012.17081-28.316534 15.63136-28.559569 15.80215l1.0745106 74.86287 26.7588804-22.94016c18.125163-18.74983 33.025472-36.31475 43.720002-51.55863 6.588306-9.39248 11.580779-17.92019 14.890549-25.11365l-3.153162-20.70978z" fill="#ffa348"/><path d="m199.58761 117.63425c-5.00191-11.06641-10.11681-22.958349-19.30806-30.895941-7.2495-6.260687-17.00358-9.319817-26.32649-11.518626-9.01587-2.126393-27.75384-1.411089-27.75384-1.411089-9.22959-.06616-18.4463.66308-27.171876 2.353515h-.002l-.002.002c-8.941398 1.735037-14.167682 4.108533-20.477714 7.783947-4.985274 2.90378-9.816786 6.463054-13.330885 11.038642-7.121121 9.272162-12.53539 19.461402-14.642572 31.870772s.576916 24.76668 6.072265 34.67969c9.303766 16.78295 21.488802 26.21438 37.775806 36.20749l13.247816 7.73791c1.36151.80673 4.01061 2.34184 6.69125 3.85348 22.70462 12.80388 46.47649 23.74134 65.49804 31.88476 9.3829 4.01726 17.39821 7.26107 23.67774 9.75586l27.78711 11.03906s-2.0906-21.78508-3.90624-32.56662c-3.89972-23.15708-9.11802-46.09872-14.98197-68.83794-3.73363-14.47828-6.6881-29.35208-12.84638-42.97691z" fill="#994100"/><path d="m115.43429 189.28483c2.54455 1.50897 5.11838 3.00037 7.71466 4.46444 21.83902 12.31574 45.10892 23.04052 63.75138 31.02165 9.1963 3.93736 17.0515 7.11536 23.24255 9.575-.55244-4.82362-1.25519-10.3002-2.31811-16.55178-2.41083-14.17609-6.00267-31.35057-10.32068-48.19712-4.319-16.84361-9.38955-33.39735-14.60164-46.16499-5.21501-12.76863-11.92044-21.52669-13.1688-22.24116l-.10444-.0615-.10541-.0625c-9.22753-5.631786-24.4148-8.779532-39.95344-9.291956-1.1654-.03904-2.33275-.06149-3.5001-.07027l.00097-.002c-8.1695-.05856-16.31948.609052-23.63982 2.027246-4.753338.922363-12.257175 4.142337-19.843 8.05628-16.867334 20.70903-18.032699 37.11268-10.292822 51.07458 7.739888 13.96189 24.38502 25.48202 43.138702 36.42399z" fill="#ffa348"/><g id="f"><path d="m50.979422 180.08117c19.586555 19.6531 49.618568 24.86649 68.250998 6.29983l.002-.002h.002c18.62757-18.56953 13.51868-48.61887-6.07032-68.27344-11.63032-11.67129-26.235258-17.80195-38.379743-17.54447-12.144484.25749-22.300402 3.70275-29.872295 11.24755-18.628056 18.57003-13.521015 48.61828 6.06736 68.27253z" fill="#994100"/><path d="m72.887494 118.50006c-6.077834.12885-11.523192 2.17659-15.343433 5.98316-9.399318 9.37004-8.183165 28.62546 6.110044 42.96552 14.291257 14.34103 33.542776 15.62648 42.945995 6.25645 9.39932-9.37003 8.18317-28.6274-6.11004-42.96845-8.484764-8.51502-18.720552-12.42506-27.602566-12.23668z" fill="#ffa348" stroke-width="35.7883"/></g></g></svg>