<svg height="500" viewBox="0 0 500 500" width="500" xmlns="http://www.w3.org/2000/svg" xmlns:xlink="http://www.w3.org/1999/xlink"><linearGradient id="a"><stop offset="0" stop-color="#ff851a"/><stop offset=".42441937" stop-color="#f87000"/><stop offset=".86367416" stop-color="#f26900"/><stop offset="1" stop-color="#e55f00"/></linearGradient><radialGradient id="b" cx="1362.7291" cy="216.11429" gradientTransform="matrix(1.0000001 -.0000059 .0000001 1.0000003 -112.72927 33.893757)" gradientUnits="userSpaceOnUse" r="250" xlink:href="#a"/><linearGradient id="c" gradientUnits="userSpaceOnUse" x1="79.026634" x2="82.047287" xlink:href="#a" y1="59.517315" y2="75.803131"/><linearGradient id="d" gradientUnits="userSpaceOnUse" x1="75.29985" x2="66.114662" xlink:href="#a" y1="60.301842" y2="69.684013"/><linearGradient id="e" gradientUnits="userSpaceOnUse" x1="83.82" x2="95.564049" xlink:href="#a" y1="59.088459" y2="64.433533"/><linearGradient id="f" gradientUnits="userSpaceOnUse" x1="73.977493" x2="62.229996" xlink:href="#a" y1="57.070625" y2="51.831879"/><linearGradient id="g" gradientUnits="userSpaceOnUse" x1="86.656158" x2="94.825447" xlink:href="#a" y1="55.067204" y2="49.150669"/><linearGradient id="h" gradientUnits="userSpaceOnUse" x1="78.898743" x2="78.687088" xlink:href="#a" y1="52.361046" y2="43.200462"/><filter id="i" color-interpolation-filters="sRGB" height="1.038997" width="1.036114" x="-.018057" y="-.019499"><feGaussianBlur stdDeviation="3.6101264"/></filter><filter id="j" color-interpolation-filters="sRGB" height="1.042633" width="1.033471" x="-.016735" y="-.021316"><feGaussianBlur stdDeviation=".88197075"/></filter><g transform="translate(-1000)"><path d="m1500 250a250 250 0 0 1 -250 250 250 250 0 0 1 -250-250 250 250 0 0 1 250-250 250 250 0 0 1 250 250z" fill="url(#b)" stroke-linecap="round" stroke-linejoin="round" stroke-width="1.002"/><path d="m1309.2298 33.82789c128.5196 30.706851 207.8974 167.48127 169.5927 291.56949-31.3771 95.69524-112.8693 162.03793-212.5543 174.60263 153.1796-8.09118 266.0956-163.0043 218.7012-309.92978-36.4562-114.666588-154.6038-191.5214848-270.6514-169.822657-18.8526 4.215647-38.4387 10.498641-55.8829 18.694487-112.5353 47.459213-168.47522 196.206-99.9632 307.85319 57.6978 93.63045 168.5136 141.8489 267.9993 100.77239-134.92 68.97589-303.283-51.46877-311.488-201.30723-4.4167-117.68321 76.8182-219.674136 190.654-246.26040176-89.0147 9.18391126-152.6601 79.39239576-187.7408 157.21169176-38.45522 102.70317 5.2337 231.75078 109.038 294.08388 114.5107 66.1048 260.3537 29.37245 323.6836-83.60152 42.2104-77.69758 34.3514-177.62383-23.1776-249.88923-57.5404-72.257811-157.5429-102.460489-246.4118-71.877168-81.7429 30.682061-131.1298 101.133078-134.0478 190.176958.6692 92.68536 61.7912 168.55972 147.5399 198.52472 128.5549 37.82014 266.7725-70.33038 233.6823-209.88949-14.7104-64.39775-57.8855-122.14991-125.7378-141.121386-71.391-15.467036-138.9716 1.205-181.2869 64.641366-18.8995 29.2286-28.9384 85.21395-26.105 97.65297m0 0c13.5324-50.18833 30.6277-97.66354 72.2125-128.94941 53.182-38.308183 124.4576-37.093813 181.7444-.48035 50.1457 36.48017 75.4845 90.37713 72.3557 150.91678-6.6674 64.04407-38.4038 109.83277-91.6401 141.00844-63.9019 34.56125-135.3795 4.83213-189.1258-35.28385-78.8706-65.48566-79.7477-186.67235-8.9744-256.76104 63.7369-55.941605 167.0207-64.891564 238.7167-6.65053 78.8163 58.35315 90.3045 169.04089 40.972 246.62443-35.2274 56.41892-88.4571 87.60135-152.5581 93.63158-81.9488 2.18264-160.666-41.91503-196.8695-120.9383-36.2055-79.02511-22.5771-164.33167 26.8727-227.66064 49.4316-63.30896 138.3491-86.746364 220.4504-67.54202" fill="#c50"/></g><g fill="#994100"><path d="m149.99994 345.16929-20.29951 22.56815c-13.54383 21.76691-34.246606 45.27519-51.418266 54.5624-9.374274 5.12732-16.494498 5.99797-21.970079 3.28921-5.485271-2.70875-11.744452-10.54486-15.807609-28.53884-15.564148-1.13761-15.132463 1.64639-16.987855 3.86966 4.662951 20.70278 12.866634 34.24661 25.056105 40.24461 12.189471 6.09476 25.926835 3.09575 38.077585-3.57945 11.222065-6.19147 22.153889-15.57543 32.118299-26.4105l22.81987-30.84138c3.3161-12.45997 5.71961-23.60403 8.41146-35.16386z" filter="url(#j)"/><path d="m364.59614 142.46356c-.77391-6.09474.38384-18.85939.9643-24.85739 5.03059 1.06416 9.96441.58045 13.64058-1.83809 14.51127-9.7806-2.80551-52.501792-2.80551-52.501792s-36.56839 19.696638-33.47267 35.72676c.96744 5.117642 5.12731 9.945062 10.35137 13.524512-2.41852 5.86255-4.93072 18.33698-5.31768 24.23823"/><path d="m88.375711 183.70174c-3.714886-2.90225-21.169075-10.96029-25.87071-12.79839 1.151213-6.28822.54173-12.67318-2.457273-16.92982-3.221493-4.54687-10.012752-6.09473-17.529619-6.09473-14.356465-.0968-31.392729 5.32079-31.392729 5.32079s18.584121 42.0827 35.755819 38.6c4.30499-.96742 8.019876-4.1599 10.81573-8.51328 3.84063 2.99899 20.675683 12.1212 23.887524 15.99087z"/><path d="m389.45567 418.39742c6.09472-1.06415 12.09273-2.61201 17.99402-5.80451 4.06316 4.83711 9.28722 8.41656 14.51128 8.80352 16.15588 1.35439 31.9248-37.05212 31.9248-37.05212s-17.31678-4.93382-32.3118-4.8371c-8.99697 0-17.22003 1.8381-20.21907 7.64261-2.12831 3.86969-1.93481 8.90026-.38695 13.73736-6.28822 1.35436-12.76993 1.54786-19.25164 1.35436"/></g><path d="m149.99994 345.16929-20.29951 22.56815c-13.54383 21.76691-34.246606 45.27519-51.418266 54.5624-9.374274 5.12732-16.494498 5.99797-21.970079 3.28921-5.485271-2.70875-11.744452-10.54486-15.807609-28.53884-15.564148-1.13761-15.132463 1.64639-16.987855 3.86966 4.662951 20.70278 12.866634 34.24661 25.056105 40.24461 12.189471 6.09476 25.926835 3.09575 38.077585-3.57945 11.222065-6.19147 22.153889-15.57543 32.118299-26.4105l22.81987-30.84138c3.3161-12.45997 5.71961-23.60403 8.41146-35.16386z" fill="#c50"/><path d="m201.32617 3.4394531-2.55859 25.0390629c-1.66981 16.345581-3.95854 29.535282-6.54883 41.509765-.002.0086-.004.01874-.006.02734l-4.97266 21.441406c-2.32888 9.015333-4.09578 16.603283-5.94921 24.464853-6.79555 2.85534-13.6193 5.39059-19.5254 6.95898l-31.24414 3.90625c-7.92586-.0326-15.66557-.45242-23.89843-.64844l-11.927738-.2832-4.908203 10.87695c-5.950216 13.19055-12.028645 26.46096-21.285156 47.51172l-.0332.0801-.03516.0781c-12.37751 28.90045-20.810483 50.86386-30.423687 80.85547l-34.0175785 68.58789 33.6835935 17.21875-3.498047 19.94922 52.56836 9.49414 1.060547-6.04101 14.824219 11.43554 27.75976-36.07226c-.69951 3.04348-1.72622 7.92139-2.42187 10.87304l-10.82617 43.01758c-5.44358 20.33966-11.3528 40.6383-17.919924 61.00586l-4.291015 13.30469 11.828129 7.45117c24.61243 15.50175 51.92187 9.91836 74.56054 4.73242l9.92383-2.27343 3.16602-9.67774s14.53735-44.42264 21.39257-67.54687c8.00002-26.98589 19.06626-68.14701 23.46875-84.58594l22.24219-.60156c5.78078 23.37667 11.25461 46.51202 18.54883 70.125 8.49046 27.48543 17.00587 55.81249 29.99609 83.73632l3.64063 7.82422 8.37695 2.0625c41.41231 10.19703 73.40906 6.68327 101.58789 2.76953l27.67774-3.8457-14.94532-23.61133c-18.41486-29.09072-32.19262-55.28362-45.42773-85.58203-10.36024-23.83476-18.75128-46.06705-27.89844-69.85156l-.0527-.13867c-.002-.005-.004-.0103-.006-.0156-4.87566-13.02998-9.76344-25.89558-14.71094-38.81836l1.31641-29.56445 25.62695 43.41406.084 24.9336 1.86719 26.58593 42.22266 32.375 12.64258-16.32226 12.40039 16.55078 41.98828-25.08398-7.72461-19.35938 23.65234-3.7207-10.76953-67.22852-27.86719-12.64844c-15.51573-15.249-24.42744-26.10084-33.16983-37.78714l-5.40039-7.21679h-.24609c-6.12626-7.73643-18.68689-23.77852-23.4336-32.4961-1.00229-1.84076-2.685-6.03202-4.10156-10.12304-1.41656-4.09103-2.31655-7.51023-4.23828-11.85938l-2.86523-6.48633-6.51954-2.78906c-17.04452-7.29072-34.83116-14.37582-55.43164-18.3457l-.47461-.0918-6.22656-.85547-2.14062-4.08398-.16797 3.76758-10.01367-1.375-.46289-.0391c-3.9942-.33992-7.4563-.41947-10.92774-.49023-.80868-5.62803-1.53368-11.150924-2.13867-16.126953l-.004-.0293-2.92578-23.410156-.0215-.154297c-1.91737-13.462545-4.51782-27.32785-9.43544-41.41403l-5.48047-15.699218-16.08398 4.222656c-10.39991 2.729975-24.11718 2.93676-37.63672-3.279297zm30.43945 50.1933589c7.48468 1.299319 14.76068 1.606951 21.67188 1.164063 1.52505 6.532369 2.7338 13.275303 3.74219 20.347656l2.87109 22.976563c1.18058 9.706196 2.75503 21.554976 4.78516 32.923826l2.70898 15.16797 15.40235-.33594c8.85372-.19248 14.64171-.34518 22.57812.31446l12.18945 1.67382-5.71093 128.17188 1.34375 3.5c5.40172 14.08306 10.70383 28.06353 16.00586 42.23437l.0293.0781.0293.0762c9.11669 23.70345 17.72872 46.55687 28.54101 71.43164l.006.0156.006.0137c10.11737 23.16384 20.79185 44.43425 33.29883 66.08984-15.81417 1.14347-32.33286.68767-51.99219-3.3125-9.7408-22.58764-17.18502-46.443-24.8125-71.13476-8.17666-26.46963-14.135-53.40762-21.52539-82.33985l-3.55664-13.92773-77.92578 2.10742-3.46289 12.99609s-17.34656 65.06389-26.70117 96.61914c-5.18667 17.49582-13.92419 44.4766-17.86328 56.59766-9.52484 1.79064-17.89857 2.70715-24.79297 1.95899 4.71408-15.38793 9.20153-30.73979 13.29883-46.05079l.0332-.13086 10.99805-43.69921.0312-.13086c3.22537-13.6833 6.25921-27.286 11.15625-50.07422l.002-.0137.004-.0137c5.45105-25.5669 8.74178-42.11867 12.0039-58.33593l6.26758-25.72071c.2562-.8529 2.83188-6.42397 6.36914-12.41015 3.06156-5.18107 4.3114-13.8036 1.71289-20.20508s-6.91053-9.70411-10.41992-11.8418c-7.01878-4.27537-13.10761-5.28132-19.24023-5.78711l-39.16016-3.22851-5.79492 9.40234c-9.08182 14.7354-15.38381 30.54782-20.3086 49.06836l-1.42382-10.93359-25.894535 54.95312-7.677734-3.29687.839843-1.69532.416016-1.30273c9.505972-29.79838 17.359377-50.2396 29.67578-78.99805.003-.007.005-.0127.008-.0195 6.99772-15.91112 11.4687-25.70197 16.1875-36.1289 4.52469.16078 8.6226.36523 13.73047.36523h1.1211l36.30468-4.53906 1.11524-.28711c11.29659-2.90804 23.29922-7.50185 34.40234-12.78906l7.82617-3.72657 1.96485-8.44336c2.6063-11.19735 4.88206-20.86646 8.02148-32.99609l.0566-.220703 5.11328-22.052735.0273-.128906c1.58578-7.32854 3.03777-15.38471 4.36718-23.996094zm112.07227 100.781248c6.14023 2.07771 12.30758 4.46497 18.56055 7.04883.44941 1.29173.47013 1.35731.97265 2.80859 1.62652 4.6974 3.52269 10.08342 6.50391 15.5586 10.37944 19.06238 31.69828 43.9059 32.16992 44.45508 8.90208 11.87615 19.09384 24.17688 34.56836 39.58593l-19.26758 3.13868 4.19141 10.50976-14.44727-19.28516-1.52734 6.3379-35.49219-60.125zm-192.51562 64.72461 8.26171.68164c-.67287 1.69758-1.29977 3.44974-1.83007 5.32617l-.0898.31446-6.64453 27.27734-.0723.35742c-3.29463 16.37628-6.55826 32.79181-12.00196 58.32422-1.88216 8.75838-2.81601 12.57089-4.25 19.07617l-3.07226-35.91406c5.04885-34.87497 10.47563-57.09113 19.69922-75.44336z" fill="#994100"/><path d="m416.15646 213.11126s-22.21656-26.72447-30.47374-41.88921c-3.98352-7.31595-7.15887-19.15489-8.99697-23.31478-16.73634-7.1589-33.18247-13.6406-51.7569-17.22005l-17.60699-2.41855c-9.09375-.77393-15.86567-.58045-24.76593-.38696-1.93481-10.83509-3.48271-22.44411-4.64361-31.992526l-2.90225-23.227715c-1.83811-12.905358-4.25662-25.549518-8.61002-38.01954-13.93083 3.656841-31.92481 3.850326-49.72529-4.334036-1.74135 17.045913-4.15991 30.996086-6.8687 43.514478l-5.03056 21.699196c-3.19247 12.334583-5.51427 22.202243-8.12632 33.424303-10.15787 4.83709-21.37994 9.09373-31.15086 11.60902l-34.05315 4.25664c-8.90022 0-17.12328-.48371-25.24959-.67719-5.97867 13.25362-12.005669 26.41052-21.215498 47.35512-12.450664 29.07092-20.625352 50.35413-30.285026 80.63432l-26.676558 53.78846 15.517402 7.93283 28.91613-50.16064-11.463916 38.64836-5.988316 34.14987 17.142664 3.09574 5.717415-32.602 16.388079-34.77869 5.185356 39.80927-13.872761 17.99398 13.795355 10.6416 17.868234-23.21804-3.72455-43.53382c6.14311-43.14686 13.10852-69.94435 27.71654-93.6461l28.15186 2.3218c7.93298.65427 17.70377 4.35338 13.93082 10.73834-3.77291 6.38497-6.96541 12.28622-8.22306 16.73634l-6.48171 26.60401c-3.28921 16.34937-6.57842 32.89222-12.04433 58.52881-4.88546 22.73433-7.88446 36.18144-11.07696 49.7253l-10.93182 43.4371c-5.51427 20.60599-11.51228 41.21202-18.18748 61.91476 17.51028 11.02857 38.98696 7.44911 60.94735 2.41855 0 0 14.57867-44.58544 21.24409-67.06942 9.54444-32.19558 26.83663-97.10133 26.83663-97.10133l50.11225-1.35454c7.29774 28.56952 13.30624 55.80892 21.76693 83.198 8.51054 27.55045 16.83308 55.04609 29.1193 81.45659 38.50324 9.48072 66.94533 6.28825 94.80702 2.41856-18.86855-29.80743-33.17189-57.00201-46.72632-88.03506-10.5977-24.38107-19.10492-46.94462-28.24862-70.71829-5.32081-14.22105-10.64162-28.24861-16.05917-42.37292l4.3534-97.70925 19.83208 37.82605 38.8902 65.8812.0969 29.21603 1.25765 17.89724 21.57347 16.54285 10.64158-13.73734-15.38193-11.89924 4.20828-17.4619 33.52103 44.74309 14.89823-8.90025-21.67015-54.32054 17.51025-2.85388 4.6436 29.40951 17.22007-2.70877-6.38496-39.85763-22.05721-10.01278c-17.6071-17.07493-27.66826-29.36115-37.14893-42.03433z" fill="#ffa348" stroke-width="36"/><path d="m126.89844 30.017578-14.70508 9.326172c4.54685 7.120194 3.96677 9.56668 2.51562 12.488281-8.1263 10.815727-21.525584 15.315897-31.257808 23.113281-6.172117 5.030573-12.121962 13.194113-10.564453 22.984376 2.099311 13.021442 16.416241 24.868582 26.564453 31.833982l31.994138 15.04883c26.13397 11.08797 22.64372 9.46244 30.91992 14.32227 3.12704 1.83619 9.72841 6.85494 16.58008 15.18359 3.49565 9.10535-5.22875 18.68188-9.57812 28.24805-4.0153 8.83136-14.18325 23.65208-11.26172 35.82421 1.57382 6.55712 5.11847 13.75324 10.37109 18.73829 5.38094 5.10682 12.1861 8.99611 18.1875 10.98242 11.7965 3.90434 19.26917 4.89499 37.94336.91601 19.10785-5.32858 38.60075-10.58728 45.70703-7.86914 3.55315 1.35908 6.62003 3.98005 10.29102 10.39063 3.50659 6.12346 7.82032 15.82836 13.55664 32.10351 5.73631 16.27515 15.1982 28.11811 30.96094 32.70899 9.39533 2.73638 18.79511-.62895 27.37109-4.54492 4.08844-1.86687 9.74917-3.83081 13.13477-5.92774 10.30327-6.38151 15.97556-13.87618 27.69726-17.58398.98496 12.16568 7.567 24.38228 8.26172 35.67187.34772 5.65-.16223 10.433-1.32031 13.59766-2.78046 6.36056-11.16954 9.40839-18.02735 10.18359-6.13141.69309-9.52861-2.91499-17.74414-5.27734-.91179-.8583-12.50037-1.33972-14.80078-.0957-5.23798 1.25376-8.27278 4.59227-10.9414 8.65234-4.80338 8.09302-1.8503 16.25079-8.21485 18.33789-8.05579 2.64174-14.3021-5.21148-22.12109-12.54883-9.41124-9.89554-14.80166-16.86824-21.99219-27.40625-23.18026-14.28053-31.08604-7.8028-34.54883-8.48437-2.65661 4.91799-5.13225 10.01774-3.73633 18.98828 11.88903 2.34008 9.33366-3.44704 28.94532 8.49805 5.52894 4.71039 11.74344 15.2238 20.17383 21.91992 5.19321 4.12486 15.1976 13.78844 26.63281 15.96289 6.36293 2.28879 15.68325-.37513 18.31054-4.48633 7.68552-7.40022 6.5058-21.29236 15.66602-23.78711 5.94548-1.61924 9.07457 3.96573 16.5918 8.15039 3.10031 1.72589 11.59673.96209 15.92968.04297 4.33292-.91925 7.19286-2.30789 12.91797-5.0625 7.43183-3.57578 12.60417-10.04648 15.12696-16.93945 2.52282-6.89299 2.91069-14.16049 2.46289-21.4375-.89559-14.55404-4.85716-18.0725-8.26758-30.71485-1.01562-3.76487-1.81225-6.97287-2.41211-9.92578 3.74124-1.59422 7.34178-3.26456 10.67773-5.06055 9.1271-4.91378 15.23396-9.86349 28.44336-22.34765 13.20941-12.48415 23.46744-36.89677 30.4961-54.17578-3.29615-4.26894-6.56183-8.57035-16.13282-6.56446-7.11615 17.49413-15.98022 37.49039-31.02539 53-7.34409 5.57559-14.15231 11.6632-22.51953 15.96289 1.97288-9.73906 5.71969-33.88325 6.16211-52.0332.11408-4.68695 1.11451-17.4672-1.45703-30.62305-2.53691-12.97878-4.3098-20.18504-13.81445-32.03125-6.56624-4.76109-11.9573-7.11953-18.46094-7.98046-12.3684-2.82411-21.28948.68076-29.26953-.10157-9.12773-.89486-16.75442-.2357-21.69141-5.86914-8.42398-9.61232-6.959-26.24453-5.07226-38.00781l3.14843-12.6543c-7.19341-.37254-13.93247-3.948379-20.00781-5.998044-1.17354 9.638874-3.97916 20.529454-3.92383 30.917964.0378 7.10242.2459 14.52473 2.90821 21.10938 3.23977 8.01289 10.89697 18.28115 15.30859 20.92773 9.07875 5.95112 21.34342 6.90437 29.28516 6.50782 8.1837-.95843 26.09305-1.94792 32.36718 2.41015 6.71191 5.13811 9.67955 13.9727 11.22657 24.17969 1.65056 10.8901 1.51279 21.5723 1.56445 27.39453-3.52382 18.42874-5.84941 38.8935-5.81055 59.03516-1.81283.62113-3.4289 1.26684-5.39453 1.8789-8.97923 2.79598-17.91012 11.00639-27.61328 16.62305-5.65745 3.43773-20.29566 12.37781-30.70312 9.73828-8.38536-2.12668-11.71959-7.6636-18.00977-18.6875-4.05753-12.34568-10.36066-28.3786-15.18359-36.80078-4.88801-8.53581-11.17331-14.94073-19.18164-18.00391-15.75399-6.02587-30.1732-1.39642-55.60352 7.11133-23.73489 3.44905-37.18816-.74737-45.85547-21.96093 2.55912-7.91581 9.48104-17.46142 14.90039-27.56446 4.52212-8.43037 7.99865-17.24823 7.01758-25.83203-1.01514-18.92305-18.67654-29.12349-31.49609-36.08984-10.80024-5.86904-14.02035-7.2553-40.43164-18.46094-10.53009-5.29695-27.53769-10.83764-34.978519-26.958984 15.844809-21.203932 31.822569-19.684746 40.099609-35.427735 5.76289-8.981186.74761-24.838265-3.28906-29.689453zm-115.150393 210.880862c-6.1369859 3.60832-10.158606 8.6602-11.748047 15.36914 17.333166 12.69984 35.371757 21.03446 51.140625 24.36914 21.670984 1.11282 41.097746 10.6029 45.738281 12.96289 25.011044 16.2412 44.320574 24.19432 57.687504 30.76562 10.33144 7.8263 28.13311 21.17388 29.11914 33.2793.25756 6.3415-2.85364 7.90619-14.79493 17.27344-8.03568 6.30353-22.66309 15.07492-24.92382 27.21875-1.25663 6.75015-.41013 14.1981 4.14062 19.30273 8.93039 9.80367 34.10639 11.43944 35.13867 21.07422.11821 10.20858-4.03938 21.02363-5.94531 30.15625 15.07136 3.84483 19.41116.57321 22.13086-3.77148 2.06177-9.94129 3.55152-28.418-.6543-36.08594-1.7312-6.15979-7.85578-10.76215-15.38476-14.05859-9.90974-4.33881-19.92449-4.56203-22.73047-9.74024-2.64575-4.8825 10.72195-14.27254 17.95312-19.57422 7.95939-5.83558 21.14387-13.04317 22.38672-28.3164 1.24285-15.27324-6.71825-24.37791-14.29492-32.38477-7.5767-8.00687-15.13981-15.21154-28.17383-22.7539-13.03401-7.54237-30.32005-15.55973-46.6289-23.60547-17.138306-10.23294-26.842998-17.01009-53.6543-18.76758-21.938342-3.41431-32.863775-12.08211-46.501953-22.71289z" fill="#994100" filter="url(#i)"/><path d="m199.43172 468.89925c2.06177-9.9413 3.5516-28.41917-.65422-36.08712-1.73121-6.1598-7.85555-10.76246-15.38454-14.05891-9.90975-4.33881-19.92575-4.56152-22.73173-9.73973-2.64575-4.88251 10.72309-14.27262 17.95427-19.5743 7.95939-5.83559 21.14341-13.04322 22.38626-28.31647s-6.71763-24.37726-14.29431-32.38413c-7.57671-8.00688-15.14051-15.2128-28.17454-22.75517s-30.3207-15.55925-46.62957-23.605c-17.13832-10.23295-26.841688-17.01043-53.653017-18.76792-21.938364-3.41431-32.864569-12.08117-46.502761-22.71196-6.1369919 3.60833-10.1581206 8.6593-11.74756315 15.36824 17.33318315 12.69985 35.37090615 21.0356 51.13979015 24.37028 21.671006 1.11282 41.098998 10.60342 45.739538 12.96341 25.011073 16.24122 44.320233 24.19259 57.687173 30.7639 10.33145 7.8263 28.13323 21.17376 29.11926 33.27919.25756 6.34151-2.85433 7.90681-14.79563 17.27407-8.03569 6.30354-22.66171 15.07459-24.92245 27.21843-1.25663 6.75016-.41132 14.19858 4.13944 19.30322 8.9304 9.80368 34.10634 11.44053 35.13862 21.07532.11821 10.20859-4.03901 21.02238-5.94494 30.15501 15.07137 3.84483 19.41122.57434 22.13092-3.77036z" fill="#c50"/><path d="m248.14137 359.92384c11.88904 2.34008 9.33231-3.44686 28.94399 8.49824 5.52895 4.7104 11.74495 15.22412 20.17534 21.92024 5.19322 4.12487 15.19733 13.78727 26.63255 15.96172 6.36294 2.28879 15.68305-.37474 18.31035-4.48594 7.68552-7.40023 6.50475-21.29204 15.66498-23.78679 5.94549-1.61924 9.07488 3.96644 16.59212 8.1511 3.10032 1.72589 11.59604.96042 15.929.0413 4.33292-.91925 7.19434-2.30671 12.91946-5.06132 7.43183-3.57578 12.60265-10.04637 15.12544-16.93935 2.52283-6.89299 2.91158-14.16139 2.46378-21.43841-.89559-14.55405-4.85728-18.07267-8.2677-30.71503-3.41042-12.64237-4.67239-19.38354-2.47223-29.11072 1.97288-9.73907 5.71961-33.8835 6.16203-52.03347.11408-4.68696 1.11509-17.4665-1.45645-30.62236-2.53691-12.9788-4.31018-20.18494-13.81484-32.03116-6.56624-4.7611-11.95853-7.12071-18.46218-7.98165-12.36841-2.82411-21.28763.68207-29.26769-.10026-9.12774-.89486-16.75472-.2365-21.69171-5.86994-8.42399-9.61233-6.95984-26.24339-5.0731-38.00668l3.14885-12.65564c-7.19342-.37254-13.93306-3.947375-20.0084-5.997042-1.17354 9.638882-3.9789 20.529542-3.92357 30.918072.0378 7.10242.24516 14.5236 2.90747 21.10826 3.23978 8.0129 10.89734 18.2809 15.30897 20.92749 9.07876 5.95112 21.34462 6.90533 29.28637 6.50878 8.18371-.95843 26.09307-1.94868 32.36721 2.4094 6.71191 5.13811 9.67921 13.97369 11.22623 24.18069 1.65056 10.89011 1.51232 21.57208 1.56398 27.39432-4.59187 24.01436-7.18724 51.49289-5.10614 77.19752.98496 12.16569 7.56809 24.38244 8.26281 35.67204.34772 5.65-.16308 10.43252-1.32116 13.59718-2.78046 6.36057-11.16956 9.40754-18.02737 10.18274-6.13142.69309-9.52795-2.91418-17.74348-5.27653-.91179-.8583-12.50109-1.34072-14.8015-.0967-5.23799 1.25377-8.2728 4.59213-10.94143 8.6522-4.80338 8.09303-1.8489 16.25166-8.21345 18.33876-8.0558 2.64174-14.30377-5.21075-22.12277-12.54811-9.41125-9.89555-14.80096-16.86823-21.9915-27.40625-23.18028-14.28055-31.08653-7.80402-34.54932-8.48559-2.65662 4.918-5.13087 10.01837-3.73494 18.98892z" fill="#c50"/><path d="m463.70378 213.99699c-7.11616 17.49414-15.9803 37.48958-31.02548 52.99921-7.3441 5.57559-14.15262 11.66297-22.51985 15.96267-6.69502 3.44039-13.95335 6.26724-22.93255 9.06322-8.97924 2.79598-17.91025 11.00528-27.61342 16.62195-5.65746 3.43773-20.29577 12.37884-30.70324 9.73931-8.38536-2.12668-11.71777-7.66423-18.00796-18.68814-4.05753-12.34569-10.36116-28.37926-15.1841-36.80145-4.88801-8.53582-11.17339-14.94022-19.18173-18.0034-15.754-6.02588-30.17373-1.39664-55.60407 7.11112-23.73491 3.44905-37.18831-.74681-45.85563-21.9604 2.55912-7.91581 9.4822-17.46134 14.90156-27.56439 4.52212-8.43038 7.99723-17.24896 7.01616-25.83277-1.01514-18.92307-18.67558-29.12266-31.49515-36.08902-10.80025-5.86904-14.02009-7.25462-40.43141-18.46027-10.5301-5.29696-27.538077-10.83868-34.978914-26.96004v-.000011c15.844824-21.203953 31.822444-19.683852 40.099494-35.426856 5.7629-8.981195.7475-24.838881-3.28918-29.690074l-14.70473 9.325915c4.54686 7.120201 3.96641 9.567767 2.51526 12.489371-8.12631 10.815738-21.525057 15.314232-31.257291 23.111624-6.172123 5.030578-12.121718 13.195588-10.564208 22.98586 2.099313 13.021451 16.41564 24.867191 26.563862 31.832601l31.993967 15.04851c26.13399 11.08798 22.64465 9.46312 30.92086 14.32295 3.12704 1.8362 9.72773 6.85465 16.57941 15.18331 3.49565 9.10536-5.22807 18.68243-9.57745 28.24861-4.0153 8.83137-14.18467 23.65256-11.26314 35.82471 1.57382 6.55712 5.1188 13.75212 10.37143 18.73717 5.38094 5.10683 12.18723 8.9973 18.18864 10.98361 11.79651 3.90435 19.26845 4.89514 37.94266.91616 19.10787-5.32859 38.60148-10.58757 45.70777-7.86942 3.55315 1.35908 6.61973 3.98012 10.29072 10.3907 3.50659 6.12347 7.81885 15.8284 13.55518 32.10357 5.73632 16.27516 15.19835 28.11659 30.9611 32.70747 9.39534 2.73638 18.79506-.62769 27.37105-4.54367 4.08844-1.86687 9.74996-3.83132 13.13556-5.92825 10.30328-6.38152 15.97481-13.87541 27.69652-17.58322 10.18073-3.11589 19.51094-6.88255 27.57133-11.22205 9.1271-4.91379 15.23268-9.8632 28.4421-22.34737 13.20942-12.48416 23.46858-36.89687 30.49724-54.1759-3.29615-4.26894-6.56138-8.56882-16.13237-6.56292z" fill="#c50" stroke-width=".967417"/><g transform="matrix(3.6563842 0 0 3.6563842 -3.606396 12.081728)"><path d="m95.677238 70.645556c3.174466-.731456 4.755282-4.731499 3.622077-7.639748-.849069-2.70826-3.141752-4.584706-5.322096-6.238212 1.923992-1.646152 3.977479-3.521355 4.583081-6.071515.543383-2.673197-2.047063-5.496703-4.792499-4.788713-3.047283.490056-5.734325 2.126303-8.317193 3.727329-1.185357-3.248131-2.010979-7.031596-5.053952-9.072319-2.240595-1.438892-5.518356-.28756-6.368891 2.230334-1.054833 2.219722-1.267767 4.690573-1.597041 7.092614-3.382188-.911572-6.891764-1.966238-10.420753-1.45329-3.237037.576458-4.677822 4.965057-2.759747 7.524433 1.722142 2.680824 4.895506 3.793932 7.85938 4.470844-2.682598 1.467819-5.067671 4.56682-4.077023 7.765193.912497 3.099062 4.448902 5.758246 7.688172 4.438198 2.182099-.963901 3.929394-2.713958 5.209501-4.698939.549952 2.994509.862446 6.182053 2.478379 8.826635.704252.924422 1.628753 1.869424 2.716691 2.262044 2.425549.48373 4.798595-1.275273 5.429179-3.598553.887375-2.635326.95827-5.495335.608142-8.234524 3.00458 1.505864 5.721948 3.822934 8.514593 3.458189z" fill="#994100"/><path d="m83.132086 65.590211c-1.24355.582083-2.64584.926041-4.10105.9525.4498 2.725208 1.0848 7.911042 3.01625 9.260417 2.30188.185208 2.61938-8.837084 1.0848-10.212917z" fill="url(#c)"/><path d="m70.749586 62.150627c-1.66688 1.058334-3.88938 2.010834-4.60375 3.995209-.29105 1.613958 1.50812 3.889375 3.22791 3.4925 2.11667-.9525 3.36021-2.645834 4.445-4.524375-1.24354-.740834-2.27541-1.74625-3.06916-2.963334z" fill="url(#d)"/><path d="m88.926456 57.441044c-.87312 1.693333-1.13771 3.677708-2.11667 5.053542.89959.820208 1.98438 1.719791 3.25438 2.645833 1.40229 1.005417 2.88396 1.852083 3.91583 2.196042 1.905.873125 2.59292-1.931459 2.27542-3.069167-.26458-1.031875-1.27-2.38125-2.64583-3.598333-1.61396-1.42875-3.33375-2.460625-4.68313-3.227917z" fill="url(#e)"/><path d="m62.229996 51.831877c-1.11125.926042-.47625 2.06375.13229 2.804583.60855.714375 2.01084 1.561042 3.70417 2.116667 1.03188.3175 2.14313.582083 3.14854.767292.0265-1.719792.42334-3.518959 1.11125-4.815417-2.09021-.582083-6.61458-1.640417-8.09625-.873125z" fill="url(#f)"/><path d="m94.059376 49.186044c-1.11125.185208-2.83104.899583-4.47146 1.799166-.47625.264584-.9525.529167-1.37583.79375 1.56104.687917 2.98979 1.42875 4.10104 2.090209.97896-.846667 1.82562-1.693334 2.32833-2.434167.84667-1.481667 1.11125-2.566458-.58208-2.248958z" fill="url(#g)"/><path d="m76.861456 44.502918c-.37042.873126-.68792 2.169584-.87312 3.545417.92604-.291041 1.905-.449791 2.91041-.449791.87313 0 1.69334.105833 2.48709.3175-.50271-1.455209-1.13771-2.804584-1.77271-3.651251-1.32292-1.74625-2.16959-1.11125-2.75167.238125z" fill="url(#h)"/><path d="m78.898746 52.361044c-2.77812 0-4.92125 2.116666-4.92125 4.709583s2.14313 4.709584 4.92125 4.709584c2.77813 0 4.92125-2.116667 4.92125-4.709584s-2.14312-4.709583-4.92125-4.709583z" fill="#ffa348"/></g><g fill="#994100" stroke="none" transform="matrix(3.6563842 0 0 3.6563842 -3.606396 12.081728)"><path d="m74.162706 26.193749-4.81542 7.011459-2.4077-5.582709-2.69875 3.995209-3.73063-3.889375-1.93146 11.800418 4.445-3.439585 4.65667 4.63021 4.63021-4.365626 4.24798 4.209545z"/><path d="m58.367077 16.885708c-3.737485 2.473126-2.262207 4.15942-1.37583 5.934605l8.86354-1.404938z"/><path d="m76.199996 16.568208-8.14916 4.942417 8.94291 1.410229c1.945039-2.224466 2.829071-4.397593-.79375-6.352646"/></g></svg>