<svg height="500.0004" viewBox="0 0 500 500.0004" width="500" xmlns="http://www.w3.org/2000/svg" xmlns:xlink="http://www.w3.org/1999/xlink"><filter id="a" color-interpolation-filters="sRGB" height="1.054" width="1.054" x="-.027" y="-.027"><feGaussianBlur stdDeviation=".88971242"/></filter><filter id="b" color-interpolation-filters="sRGB" height="1.035519" width="1.035519" x="-.017759" y="-.017759"><feGaussianBlur stdDeviation=".38090473"/></filter><filter id="c" color-interpolation-filters="sRGB" height="1.068444" width="1.068444" x="-.034222" y="-.034222"><feGaussianBlur stdDeviation=".38090473"/></filter><g transform="translate(-500 -500)"><path d="m999.99997 750a249.99997 250 0 0 1 -249.99997 250 249.99997 250 0 0 1 -249.99997-250 249.99997 250 0 0 1 249.99997-250 249.99997 250 0 0 1 249.99997 250z" fill="#ffe24c"/><path d="m1000 750.00632-194.05817-2.60063 192.98367-20.4591-193.45987 15.31075 190.28547-38.19139-191.22567 33.10816 185.92267-55.58184-187.34707 50.61663 180.01317-72.50831-181.88127 67.68555 172.56127-88.82024-174.86477 84.18876 163.62798-104.35075-166.35478 99.94311 153.30278-119.00625-156.40808 114.88758 141.65488-132.65651-145.14668 128.82271 128.82258-145.14278-132.65648 141.65492 114.88758-156.42029-119.00218 153.31093 99.94719-166.3385-104.34669 163.60764 84.17649-174.84041-88.81609 172.54909 67.67739-181.89345-72.48799 180.02133 50.6167-187.35925-55.5941 185.94294 33.1-191.23373-38.1995 190.27732 15.3474-193.45586-20.4957 192.97968-2.59249-194.05413-2.5681 194.05413-20.4916-192.97968 15.327 193.45586-38.2004-190.27732 33.1171 191.23373-55.5936-185.94294 50.6162 187.35925-72.51029-180.02133 67.69979 181.89345-88.81699-172.54909 84.17729 174.84041-104.36289-163.60764 99.96869 166.3385-119.00618-153.31093 114.86968 156.42029-132.64018-141.65492 128.81968 145.14278-145.14988-128.82271 141.67318 132.65651-156.42638-114.88758 153.29788 119.00625-166.34218-99.94311 163.62828 104.35075-174.86477-84.18876 172.54667 88.82024-181.87387-67.68555 180.00617 72.50831-187.35587-50.61663 185.94077 55.58184-191.21897-33.10816 190.28097 38.19139-193.47947-15.31075 192.98647 20.4591-194.04384 2.60063 194.04384 2.58435-192.98647 20.46723 193.47947-15.31481-190.28097 38.20361 191.21897-33.12445-185.94077 55.58997 187.35587-50.60849-180.00617 72.5083 181.87387-67.68553-172.54667 88.81211 174.86477-84.17656-163.62828 104.33851 166.34218-99.95936-153.29788 119.0103 156.42638-114.87941-141.67318 132.66054 145.14988-128.83082-128.81968 145.13868 132.64018-141.66304-114.86968 156.42028 119.00618-153.28243-99.96869 166.32222 104.36289-163.59543-84.17729 174.84852 88.81699-172.55719-67.69979 181.8975 72.51029-180.02538-50.6162 187.35108 55.5936-185.93884-33.1171 191.21336 38.2004-190.26101-15.327 193.47618 20.4916-192.99594 2.5681 194.05003 2.59249-194.05003 20.4957 192.99594-15.3474-193.47618 38.1995 190.26101-33.1-191.21336 55.5941 185.93884-50.6167-187.35108 72.48799 180.02538-67.67739-181.8975 88.81609 172.55719-84.17649-174.84852 104.34669 163.59543-99.94719-166.32222 119.00218 153.28243-114.88758-156.42028 132.65648 141.66304-128.82258-145.13868 145.14668 128.83082-141.65488-132.66054 156.40808 114.87941-153.30278-119.0103 166.35478 99.95936-163.62798-104.33851 174.86477 84.17656-172.56127-88.81211 181.88127 67.68553-180.01317-72.5083 187.34707 50.60849-185.92267-55.58997 191.22567 33.12445-190.28547-38.20361 193.45987 15.31481-192.98367-20.46723z" fill="#fffbb3" fill-rule="evenodd"/></g><path d="m387.71484 324.91211-8.48828 12.33008c-14.78351 21.47886-58.73188 44.13672-128.93554 44.13672-70.08536 0-114.56405-22.05617-129.40625-43.29883l-7.25586-10.38477-12.22266 3.32617c-13.58502 3.69546-23.877374 12.34755-31.822266 22.58399-7.625129 9.82445-13.74055 21.59581-12.273437 35.9707.246637 15.79812 7.69148 30.2234 18.554687 41.63281 11.046944 11.6024 25.690376 20.8929 42.986326 28.56446 34.5919 15.34311 80.19665 24.15234 130.66211 24.15234 50.47724 0 95.37866-8.89082 129.62891-24.25391 34.25024-15.36308 60.40107-38.06453 63.36328-69.18554 2.19124-23.02087-12.55917-46.74173-41.11914-59.47852z" fill="#f2c80d"/><path d="m250.2908 399.37805c-73.64337 0-123.79114-21.83493-144.16072-50.98856-16.212354 4.41015-33.035991 25.46401-30.866682 40.39182.0018 42.57547 77.611702 77.14356 174.250262 77.14356s171.0378-34.75786 175.07222-77.14356c1.14418-12.02062-8.18358-31.36724-30.5314-41.33362-20.16363 29.2956-69.88349 51.93036-143.76368 51.93036z" fill="#fffdcc" stroke-width="36"/><path d="m131.73437 281.53516-12.45898 9.16796c-14.27429 10.50285-25.009765 25.63103-25.009765 43.38868 0 13.87495 6.669495 26.37664 15.935545 35.90429 9.26606 9.52766 21.27361 16.92979 35.29297 23.02539 28.03871 12.19122 64.52745 19.0625 104.75781 19.0625 40.23093 0 76.57098-6.87004 104.46094-19.08007 13.94498-6.10502 25.87726-13.52658 35.07227-23.06836 9.19501-9.54179 15.77343-22.03063 15.77343-35.84375 0-17.58719-10.5549-32.75656-24.81054-43.17969l-12.44922-9.10352-10.9043 10.90625c-59.50811 59.52114-155.27869 59.21548-214.72266-.24023z" fill="#f2c80d"/><path d="m387.55827 334.09221c0 33.13552-61.07159 59.99197-137.30608 59.99197-76.23359 0-137.98653-26.85463-137.98653-59.99197 0-10.59669 6.32355-20.53744 17.67731-28.8914 66.29967 66.31277 173.78348 66.653 240.18063.24132 11.24448 8.2215 17.43467 18.11144 17.43467 28.65007z" fill="#fffdcc" stroke-width="36"/><path d="m250.02344 16.074219c-43.55258-.000506-87.23561 16.699514-120.40625 49.86914-66.342211 66.342221-66.667173 174.716711-.28516 241.097661 66.38273 66.38274 174.75916 66.05822 241.09961-.28321 66.34242-66.34044 66.34226-174.47316 0-240.814451-33.1708-33.170804-76.85619-49.868633-120.4082-49.86914z" fill="#f2c80d"/><path d="m142.3445 78.671128c-59.461223 59.461232-59.744287 156.183252-.28392 215.642662 59.46122 59.46123 156.18324 59.17635 215.64268-.28396 59.46118-59.45941 59.46118-155.89746 0-215.357776-29.73063-29.730632-68.70435-44.596847-107.6794-44.597301-38.97506-.000453-77.94874 14.866669-107.67936 44.596375z" fill="#ffe24c" stroke-width="36"/><circle cx="66.145836" cy="39.542774" fill="#fffbb3" filter="url(#a)" r="39.542774" stroke-width=".235017" transform="matrix(3.4289798 0 0 3.4289798 23.140195 50.829598)"/><path d="m151.68834 86.777902s-12.9822 76.257148-8.57015 98.105038c5.6273 27.87116 21.64441 42.06713 35.4711 42.95716 14.28408 30.32446 40.19997 62.5374 70.07495 92.41387 31.49615-31.49764 56.71356-63.00122 70.53927-92.42872 13.78907-.99299 29.71164-15.18203 35.31615-42.94231 4.41205-21.84739-8.57013-98.105536-8.57013-98.105536s-12.78371 22.274076-25.22981 46.191096c-29.36907-60.147474-114.45873-60.516257-143.81743-.01489-12.44411-23.91356-25.21395-46.176246-25.21395-46.176246zm46.09804 57.622418c13.57026-.002 24.37192 7.0757 32.74804 20.37224-16.1483 8.47114-30.00618-.60887-42.60078-19.22827 3.43044-.76579 6.72228-1.14347 9.85323-1.14347zm101.5394 0c3.13146 0 6.40745.37769 9.83838 1.14347-12.59558 18.6204-26.43762 27.69991-42.58592 19.22877 8.37562-13.29605 19.17678-20.37472 32.74754-20.37273zm-78.27383 36.87842 15.39193 41.87458 13.17919-41.87507 13.41189 42.50869 14.97411-40.80783 12.60697 41.93744 15.33055-38.54957c10.14131 21.42165-5.95502 58.06197-20.59004 76.29377l-11.16749-31.04716-10.92196 58.73717-11.78723-50.81649-13.25642 46.8559-12.15949-49.11415-11.16897 28.7726c-20.28165-27.24894-26.28318-55.45276-16.14978-79.68214l10.72049 32.90347 11.58576-37.9922z" fill="#f2c80d" stroke-width=".900002"/><g fill="#fff"><path d="m64.75637 40.032365a30.644657 19.640671 45 0 1 7.78099 35.557096 30.644657 19.640671 45 0 1 -35.55709-7.780994 30.644657 19.640671 45 0 1 -7.781-35.557095 30.644657 19.640671 45 0 1 35.5571 7.780993z" filter="url(#b)" opacity=".5" stroke-width=".380199" transform="matrix(3.4289798 0 0 3.4289798 23.140195 50.829598)"/><path d="m95.61188 9.4458012a15.608357 10.637955 45 0 1 3.5146 18.5589498 15.608357 10.637955 45 0 1 -18.55894-3.51461 15.608357 10.637955 45 0 1 -3.51461-18.5589424 15.608357 10.637955 45 0 1 18.55895 3.5146026z" filter="url(#c)" opacity=".5" stroke-width=".234206" transform="matrix(3.4289798 0 0 3.4289798 23.140195 50.829598)"/></g></svg>