<svg height="500" viewBox="0 0 500 500" width="500" xmlns="http://www.w3.org/2000/svg" xmlns:xlink="http://www.w3.org/1999/xlink"><g transform="translate(-1000 -500)"><circle cx="1250" cy="750" fill="#8f29a3" r="250"/><path d="m1250.0521 500.09326-.061 248.75004-15.9199-248.2399a249.99917 250.18666 0 0 0 -31.6776 4.06945l45.0428 231.17052c-.102.0363-.2268.0547-.3789.0547l2.377 12.94521-.25-.53361-.5352-1.34279-3.3574-10.61339c-.1814.0698-.3456.12506-.5117.12506l-.1211.0782-83.1951-220.24831a249.99917 250.18666 0 0 0 -14.7401 6.13348l96.9 214.60543-.2187.11532 2.3047 4.43886 2.3437 5.21678.055.0488.416.7486.7461 1.26658v.0314l-.7461-1.29782-.4707-.79746-5.5273-9.21c-.1841.12151-.3808.23754-.5664.39678l-123.4077-200.53639a249.99917 250.18666 0 0 0 -34.1776 25.40763l164.5483 186.40079-.3984-.58052.832 1.02616v.0508l-.3262-.32448-.094-.12903v-.006-.002l-176.1809-175.46484a249.99917 250.18666 0 0 0 -21.0273 24.05115l186.5306 143.42536-.1425.18569 10.4687 8.26398-2.0957-1.07698-9.4082-5.66242c-.1395.18156-.2273.33335-.3066.47301l-208.0031-109.74966a249.99917 250.18666 0 0 0 -7 14.40723l214.5266 96.34337c-.074.17741-.1655.3791-.2578.59419l12.1758 4.73596-.037-.0253.5254.23653-.4863-.21109.3574.18179.2129.0802-.2129-.0508v-.0295l-12.8066-4.08117c-.056.14944-.1255.33501-.1758.5082l-224.9661-68.33223a249.99917 250.18666 0 0 0 -8.7656 41.69908l246.1613 30.77687h-1.2363l-246.3644-14.82161a249.99917 250.18666 0 0 0 -.4219 14.51082 249.99917 250.18666 0 0 0 .6113 17.47203l234.4934-16.18786h-.027l.3066-.0234-.2773.0234 12.9687-.73492-7.6699 1.8549-.3028.0508-4.789.9382.07.23845-228.2004 55.91086a249.99917 250.18666 0 0 0 4.2871 15.37279l224.173-70.26921c.093.36314.1859.69573.2793.95971l11.9648-4.46623-6.7285 3.52803-218.2141 100.03556a249.99917 250.18666 0 0 0 21.0155 36.99246l204.0072-139.70972-2.9414 2.38851-191.599 150.2058a249.99917 250.18666 0 0 0 21.2792 23.80097l164.7143-167.43742c.2793.26396.5666.50585.8359.80333l7.6309-8.62753v-.0314l.7578-.86587.1855-.23653.7754-.84633.02-.0645.057-.0272-.023.15832-.1035.11531.051-.18179-.068.18179-1.3203 1.73762.6133-1.0457-.1856.20916-.7578.89715-2.5996 3.67852-4.2753 5.57643.287.1818-133.9214 192.92518a249.99917 250.18666 0 0 0 13.3768 8.68037l121.3629-200.99764c.1115.0698.2562.1641.4043.23263l6.9082-11.76855-.2793.71929-100.1481 226.51466a249.99917 250.18666 0 0 0 40.1346 13.79743l59.6931-236.78211-1.5742 9.22563.2364.0566-42.7675 230.89101a249.99917 250.18666 0 0 0 31.6386 3.76263l12.9316-234.50119c.2415.0238.455.0234.6602.0234h.031v-12.36276l.055-.87175.3809 3.35211.6328 9.85892c.1939 0 .3385-.0234.5058-.0234l27.248 233.23258a249.99917 250.18666 0 0 0 15.7831-2.3455l-42.1484-231.0161c.254-.028.4739-.0916.707-.11531l-2.0644-10.71502-.055-.13878-.3203-1.79235.018.0295.3575 1.90182 74.3923 234.18055a249.99917 250.18666 0 0 0 39.205-16.19959l-111.1503-215.75097 4.1406 6.7179.2696-.18569 120.6715 201.44522a249.99917 250.18666 0 0 0 26.2108-18.10533l-145.5071-184.32505c.254-.18717.4204-.39029.6562-.60397l-8.457-9.554 3.3672 3.03156 5.8437 5.83834.2872-.30686 174.8256 156.82795a249.99917 250.18666 0 0 0 10.2715-12.18293l-184.478-145.35845c.1296-.15783.305-.33279.4082-.48083l-9.3632-7.21437 211.5852 126.78601a249.99917 250.18666 0 0 0 18.7245-38.19257l-229.6555-89.16613 11.0274 3.36579.012-.18569 223.9289 70.91228a249.99917 250.18666 0 0 0 7.6836-30.99187l-231.1887-41.80463c0-.16199.037-.30149.037-.44955l-7.3671-.90693-4.5508-.79941 12.0312.70755c.03-.32965.029-.62841.029-.96361l235.009 1.78454a249.99917 250.18666 0 0 0 .011-2.19892 249.99917 250.18666 0 0 0 -.3809-13.81303l-234.6691 13.37131v-.33226l-11.7754.81114-2.207.14075 2.1641-.14075h.043l242.6422-45.60435a249.99917 250.18666 0 0 0 -11.2772-41.04821l-231.0032 85.65376-.2598.0684 10.5078-4.79069c-.1716-.35894-.395-.80876-.6601-1.20402l208.1651-109.51534a249.99917 250.18666 0 0 0 -7.877-13.90491l-200.7337 122.63837-.2109-.32833-5.6211 3.9033-4.707 2.86542 9.6699-7.59747-.1446-.20719 183.392-147.45376a249.99917 250.18666 0 0 0 -29.3651-30.85701l-161.2514 182.96656-2.3184 2.37091 151.2905-195.53064a249.99917 250.18666 0 0 0 -26.4154-17.96062l-119.2496 202.94829-.094-.0664-7.0644 11.68841 5.539-12.45265c-.2748-.15364-.5655-.24794-.8711-.35962l83.404-220.18189a249.99917 250.18666 0 0 0 -15.121-5.19332l-69.2811 225.07807c-.1088-.0378-.2229-.0651-.3808-.11531l-1.8809 7.53882-1.1289 3.69807 2.1055-11.46558c-.2011-.0197-.4082-.0561-.6133-.0743l40.1268-232.08917a249.99917 250.18666 0 0 0 -42.4354-3.64138zm-1.9453 235.66215 1.0117 8.77021v.043l.8711 4.45646v.46128l.029-.16807.023.62741v.1036l-.057-.1036v-.43977l-.066.30686-.2383-.49451-.5625-4.74964zm-9.3652 5.00568 7.0859 6.37391-.025-.0197zm25.7675 6.02013-11.8261 2.9006h-.057zm-12.1504.11531-1.6269 2.78332-.3496.40069.1113-.44954-.092.20719-.02.18179-.051.10553v-.0253l.051-.0802v-.16221l.02-.0197v-.10556l.012-.0234.082-.12118v-.0234l.033-.0272.061-.1505v.0197l-.061.13096-.033.0508zm-6.5292.23849 3.3242 2.54682.3633.56682-.4493-.16807.2012.13878h-.022l-.2188-.13878h.037zm5.0331.24627-.2968 1.58908.2968-.84047-.3339 1.37603-.1016.1505.1387-.68606.2617-1.56758zm-.582.38505-.086 1.71808-.057.19351-.1172-.46715zm3.1445.7447-2.2754 1.58908h-.023l-.4121.27757-.2871.11728.2129-.27557.074-.0215.8867-.71342zm-4.0429.57856.1348.14075v.0469l-.084-.1251zm3.8633.31665h.029l-.1738.0802zm-3.5254.18179.1835.3577v.0392l-.1835-.35376zm.416.0938.02.26385v.0392l.039.0958.047.11728-.047.0215-.039-.1192.039-.0197-.039-.0605v-.0352l-.057-.26192zm2.2207.0644-.07.0272-1.0156.30686.1562-.0605zm-5.6387.0665 2.3692.40655.3457.21498.029.0606-.3124.0644zm2.1641.31271h.053l.094.0314zm.7265.19155h.02v.0196zm-.164.0606h.02l.074.0802zm.2148.1818h.024l-.024.0314zm-.3359.16808h.057l.2461.0352-.8125.32836zm-.3887.0352h.2168l-.9316.47886.2637-.0527-.025.0272-.2383.0253-2.0253.39287v.0234l-5.2422.93428 5.2422-.95774zm1.7774.0234.5078.043.7519.2228-.8457-.0841zm-.2188.16418.035.0178.1113.22088.3282.16611 1.4394 1.4034-1.3496-1.00858-.2344-.2971-.1855-.26385-.018-.0333-.092-.18766h-.035zm-1.0625.0802-.25.27364h-.029l-2.7812 1.26461 2.2988-1.41316zm1.5703.0997.1485.0253.031.0314zm.2207.0253 1.9356.60398-1.9063-.57074zm-1.1796.17201.031.1251.022-.0978-.022.13092v.006l.076.23066.125 1.89594-.2324-1.35256.031-.77402-.088.50819v-.0919l-.031-.18569.031.14272v-.26385zm.7226.0919.061.0664.088.14661-.037-.0314zm-1.1406.1818-.2442.52578-3.9492 12.85138 3.9219-12.85138h.027l.084-.28732.01-.0117zm-.088.10552-.065.11339.041-.0978zm1.4648.0802.033.0234.1152.18962-.092-.0919zm-.4375.21306.023.0295.029.22669zm-1.7304.26581v.0295l.051-.0295zm2.2929 1.35257 4.8828 10.7893-4.8828-10.73457z" fill="#aa40bf"/></g><path id="a" d="m453.70154 413.36043c15.29221-4.80438 13.25807-14.95871 13.63057-25.86416l7.82894-253.90323c.0701-6.96158-3.7651-12.87035-9.75168-15.1987l-209.83862-82.492179c-16.96805-6.338675-33.71177-3.833006-49.76411 2.148622l-157.351562 57.027345c-13.24194 4.757332-15.078397 6.547332-15.571767 18.885872l-7.89387 246.23131c-.779795 12.95815 1.283525 20.03202 11.870973 24.72022.01107.005 191.414966 83.85509 191.414966 83.85509 17.72422 7.5941 26.32301 6.84848 38.17284 2.89072z" fill="#eed9f2" opacity=".5" stroke-width="36"/><g stroke-width="1.155" transform="matrix(.86579879 0 0 .86579879 33.550303 33.554942)"><path d="m195.89648 128.31641c0 13.0857 3.16591 25.14738 8.57618 35.41992-21.06464 11.62674-31.45669 35.73542-36.31446 55.90234-7.31367 35.53962-7.57617 65.46537-7.57617 99.54883h32.43359l8.11329 111.30078c16.70979 4.22143 35.23502 7.08275 50.36508 7.08583 18.49699-.24873 32.38464-3.15408 49.67007-7.00184l7.42578-111.38477h30.82813c-.5729-33.93334.11851-71.21788-5.98828-100.25781-6.69997-25.07119-13.99041-45.33865-37.668-56.32808 5.1131-10.10354 7.98437-21.78583 7.98437-34.28515 0-35.025107-22.17801-65.890629-56.82908-65.821318-32.20913 3.740003-51.0205 32.775094-51.0205 65.821268z" fill="#6a1f7a" stroke-width="1.155"/><path d="m246.28249 80.42509c-17.08618 2.13756-32.38514 21.91179-32.38514 47.89139 0 14.23372 4.86136 26.74454 12.01038 35.46636l8.72184 10.36611-13.3687 2.50216c-9.29374 1.78725-16.15681 6.79158-21.94755 14.86999-6.07668 8.22139-10.58056 19.23091-13.65465 32.31364-5.71924 23.37734-7.07753 51.97348-7.07753 77.35256h31.16979l8.36436 114.74203c21.73308 5.00432 45.1104 4.64687 65.9856 0l7.64947-114.74203h29.6685c0-25.52206-.35748-54.61863-5.57624-78.42492-2.78815-12.79677-7.14907-24.09224-13.01127-32.24215-5.86219-7.93543-13.22571-12.72528-23.8063-14.36955l-13.51166-2.14472 8.50735-10.65206c7.07756-8.65033 11.72443-21.16115 11.72443-35.03742 0-27.55238-17.15769-47.89139-35.95965-47.89139z" fill="#eed9f2" stroke-width="41.5801"/></g><use xlink:href="#a"/><path d="m202.32795 28.675097-157.282003 56.999998c-20.984 7.65-21.587 11.834-22.344 33.280005l-7.405999 234.034c-1.207 27.514-.654 33.187 23.249999 43.56l185.783003 81.41c19.34 8.29 31.906 7.655 45.186 3.218l181.938-56.53c21.95-7.295 25.04-9.627 25.875-36.845l7.686-250.155c.662-17.37-5.667-24.695-18.78-29.625l-200.813-78.878003c-12.977-5.344-23.003-7.653-32.656-7.532s-18.926 2.691-30.437 7.063zm31.25 17.813c23.637-.053 45.564 8.434 87.874 24.873998 95.545 37.123005 131.71 53.800005 69.687 77.937005-74.002 28.802-128.175 45.115-172.28 25.814l-111.03-48.594c-34.570003-15.127-44.690003-27.460005 17.843-50.094005 55.64-20.139998 82.742-29.881998 107.906-29.936998zm-116.063 104.937003c140.925 62.786 140.52 65.876 130.97 200.656-7.783 109.81-8.797 109.85-128.47 59.282-73.150003-30.91-86.806003-40.853-85.187003-88.97l5.468-162.937c.674-20.034 1.557-30.358 12.621-30.6675s29.909002 7.1805 64.598003 22.6365zm344.782 113.5c-4.118 135.132-9.05 140.184-120.375 173.72-70.42 21.21-81.49 25.614-78.97-12.032l11-164.156c3.217-48.034 7.588-51.508 94.813-83.907 31.323-11.633 52.534-18.686 74.244-18.9725s21.638 28.1725 19.288 105.3475z" fill="#6a1f7a"/><path d="m278.29595 90.238095c-38.284.402-55.285 21.205005-56.813 38.936005-.873 10.132 2.95 19.6 12.406 26.25s25.355 10.56 48.97 5.938c35.817-7.01 61.536-15.056 77.5-22.844 7.982-3.894 13.464-7.737 16.5-10.844s3.453-4.942 3.438-6c-.016-1.057-.44-2.675-3.313-5.406-2.873-2.73-8.03-6.04-15.22-9.156-14.378-6.23301-36.757-11.877005-65.717-15.720005-6.355-.842-12.28-1.213-17.75-1.155zm136.813 110.125005c-.332-.002-.674.015-1 .03-5.22.263-10.226 2.77-14.188 8.407-3.96 5.638-6.81 14.71-5.687 27.907 1.448 17.033-4.507 38.11-15.156 56.938-10.65 18.827-26.502 35.91-47.814 38.813-29.127 3.968-42.41 23.58-43.5 42.062-.545 9.24 2.108 18.03 7.688 24.594s14.088 11.335 27.187 12.03c41.146 2.185 71.336-10.766 91.595-39.155 20.26-28.39 30.396-73.76 25.875-136.595-1.876-26.076-14.708-34.977-25-35.03zm-246.25 8.844c-.644 0-1.218.063-1.72.187-2.003.494-3.685 1.53-5.655 4.813-1.913 3.186-3.688 8.618-4.406 16.343l-.064.657c-1.388 16.732-8.098 28.602-17.844 35.063-9.745 6.46-20.794 7.808-31.125 9.094-10.330001 1.286-20.177001 2.39-28.156001 5.75-7.977002 3.36-14.360002 8.38-19.468002 19.78-7.2 16.076-7.143 28.027-3.124 38.563 4.018 10.537 12.688 20.106 24.687002 28.75 23.998001 17.29 60.270001 29.956 88.906001 41.844 11.386 4.727 20.496 6.484 27.282 6.126 6.787-.358 11.278-2.423 15.375-6.562 8.195-8.28 14.057-27.692 15-57.344 2.024-63.623-18.84-110.284-38.656-130.875-8.668-9.008-16.52-12.193-21.03-12.188zm184.22 6.812c-.95-.003-1.927.035-2.97.094-35.464 1.99-48.477 12.867-52.5 24.062-4.023 11.196.826 27.07 10.844 39.78 11.488 14.58 20.59 15.736 30.437 12.283 9.848-3.455 20.542-14.108 27.376-26.908s9.512-27.397 7.188-36.28c-1.163-4.443-3.144-7.422-6.47-9.626-2.908-1.928-7.274-3.388-13.905-3.406z" fill="#fff" opacity=".210366"/></svg>