<svg height="500" viewBox="0 0 500 500" width="500" xmlns="http://www.w3.org/2000/svg" xmlns:xlink="http://www.w3.org/1999/xlink"><filter id="a" color-interpolation-filters="sRGB" height="1.02397" width="1.024601" x="-.012336" y="-.011995"><feGaussianBlur stdDeviation=".43582124"/></filter><g transform="translate(.000015)"><circle cx="-249.99998" cy="250" fill="#e51a1a" r="250" transform="scale(-1 1)"/><path d="m181.33938 83.856939c97.52275-31.84694 203.27597 26.159281 217.12696 131.568651 10.04116 85.89723-45.79566 162.6049-131.11288 174.6444-76.26503 6.65-147.16573-45.4981-149.44603-126.3231.16679-50.89801 30.03241-87.97493 76.60677-108.40662 44.00125-16.48183 90.46555-3.00917 112.28155 39.63622 17.95322 40.0953 3.57775 87.31302-40.4313 103.80676-21.98685 8.23292-51.6578-5.55285-56.72562-31.5612 24.48155 21.7253 69.7211 11.74379 80.1808-21.06198 5.24648-24.88185-11.48198-41.52298-24.36368-55.64156-23.21161-15.22125-63.26956-13.16738-85.32502 12.05139-41.51846 46.43224-18.48961 112.52397 35.72777 131.08081 60.66482 17.11352 118.96473-29.63961 126.96137-92.39988 2.7637-54.83226-40.99398-106.19486-96.51046-114.27807-76.21988-10.3001-138.45939 50.84936-147.743191 124.09106-9.31956 73.21828 47.315731 138.67973 111.863041 158.33924 49.05305 9.49897 98.18701 2.07129 139.64056-27.40671 82.90715-58.95602 100.11901-177.97214 43.55644-260.39974-52.71171-79.885311-158.575-103.987181-249.15842-67.061741-86.705021 39.45169-149.0660905 134.549061-117.102931 229.167621 15.77888-74.65377 50.93986-153.5943 123.407351-187.514491 9.28724-4.60517 19.44718-8.7232 30.56692-12.33106zm-160.722321 286.075591c-52.57825-113.8254-.38403-260.89182 113.777041-317.643861 10.84604-5.32012 22.21219-9.7712 34.03518-13.36069 115.76394-28.75816 246.03978 34.00351 263.68455 158.897471 10.04526 85.91695-27.72044 168.80365-107.97396 206.83173-102.24035 46.26108-224.798841-11.43986-234.690511-131.24969-7.33455-123.78718 127.307171-194.136761 222.718561-137.24102-42.54074-27.89653-94.21826-33.44528-140.80825-12.98978-71.17376 32.62266-105.080851 118.0397-80.762351 190.63139 30.697281 88.13423 123.572931 132.04164 212.817841 105.59803 82.80488-25.06359 132.16266-100.33164 140.19255-180.04986 12.12434-145.020371-132.23823-245.3588802-265.59709-221.973611 7.92036-4.10499 20.5989-8.4277792 35.61563-11.7452592 60.06317-13.23825 124.63426-3.45807 179.45368 32.4903392 109.65077 71.904621 141.09454 217.803071 65.16008 333.599141-143.00482 218.07486-377.311781 117.06797-437.622951-1.79433" fill="#b21a1a"/></g><path d="m452.47552 250a202.47552 202.47552 0 0 1 -202.47552 202.47552 202.47552 202.47552 0 0 1 -202.475518-202.47552 202.47552 202.47552 0 0 1 202.475518-202.475518 202.47552 202.47552 0 0 1 202.47552 202.475518z" fill="#ff8066" opacity=".5" stroke-width="35.9999"/><path d="m354.66797 95.621094-.36719.011718c-17.34216.54713-33.49955 8.351948-46.49023 20.292968l-.00586.00586-.00586.00586c-13.56288 12.49068-23.20207 28.37414-24.67188 45.31445-3.74735 1.64376-7.38888 3.45228-13.34179 7.04883-35.14457 23.12589-54.96366 61.19336-59.27344 94.92774l-.02344.18554-.02148.18555c-3.53214 33.08352-3.58586 59.50622-11.00782 74.73047l-47.95117 31.64258-34.57422 16.89453 15.60157 27.47851a202.47552 202.47552 0 0 0 74.88672 33.07422h10.3457l-21.21094-39.50976 50.11328-26.52344c12.66674-8.52641 21.57538-18.23066 29.07617-29.30664 2.85733 3.63321 5.83097 7.51459 9.35743 11.33398-4.16705 7.3351-10.93005 17.23471-19.1504 27.08203-12.37702 14.82672-26.69541 29.90235-36.79492 43.30664l-11.88476 15.75977a202.47552 202.47552 0 0 0 32.72656 2.91211 202.47552 202.47552 0 0 0 96.02734-24.80273l-16.91015-20.9668c9.4306-10.74569 19.10438-20.70349 24.92578-32.58203 1.83886-3.79436 4.22603-7.6865 2.0332-19.26563-11.2629-20.71294-22.2152-47.15222-40.94336-69.05664.70117-8.35792 1.57334-15.88133 4.06055-22.08984 2.9322-7.31929 7.96486-14.30255 19.75976-22.03321l113.08399-4.25585a202.47552 202.47552 0 0 0 -32.16406-97.50977l-8.01953 6.23047c-11.18329 8.69119-13.18296 19.6786-14.92774 29.48633-.60147 3.38095-.8841 6.69383-1.2168 10.01171l-19.52148-.56054c9.87003-10.07846 16.85571-21.76526 19.91797-34.20117 3.40209-13.81597 1.87038-29.81406-8.56055-41.58594-8.07073-9.10925-20.38129-13.556616-32.50976-13.66797z" fill="#861313"/><path d="m339.37691 360.52631c-12.1482-20.8035-24.02698-49.31134-42.87658-68.60824 1.6605-22.9275 2.07-47.4606 36.675-68.0364l109.20649-4.1094c-2.63551-21.0103-15.03987-54.22263-19.48189-59.41621-8.7318 6.786-9.7848 27.75871-10.4652 43.77331l-71.5167-2.0547c-7.6005-.567-13.4487-7.0614-19.035-11.5398 12.24 1.4004 27.018-4.419 38.8962-15.3216 18.6057-17.1018 24.5574-41.2713 13.293-53.9838-4.3155-4.8708-10.773-7.5285-19.2033-7.6059-12.0384.3798-24.5961 6.1047-34.8768 15.5547-14.1966 13.0743-21.4587 30.825-18.1503 44.37-40.5 11.115-68.9346 56.4147-73.476 91.962-3.5712 33.4494-1.73095 63.60559-15.01855 85.22089l-52.8948 34.9047-18.4122 8.9973 15.05696 26.52027c3.40529 1.84863 8.82654 4.57603 16.45924 8.26743h14.1174l-15.543-28.953 65.6154-34.7157c13.2282-7.74 29.97925-29.69809 32.87275-45.31489 14.5323 10.6884 23.61928 29.84164 36.20398 38.19184-5.724 24.9165-45.31679 62.15392-63.28799 86.00572 31.09248.54673 57.61518-4.78844 80.67149-14.58532l-7.18376-8.5553s-25.637-1.91392-29.90255-2.53042c7.32915-.4293 53.69311-47.10288 52.25671-58.43748z" fill="#ff8066" stroke-width="36"/><path d="m452.47552 250a202.47552 202.47552 0 0 1 -202.47552 202.47552 202.47552 202.47552 0 0 1 -202.475518-202.47552 202.47552 202.47552 0 0 1 202.475518-202.475518 202.47552 202.47552 0 0 1 202.47552 202.475518z" fill="#ff8066" opacity=".25" stroke-width="35.9999"/><path d="m250 37.257812c-117.28123 0-212.742187 95.460958-212.742188 212.742188 0 117.28123 95.460958 212.74219 212.742188 212.74219s212.74219-95.46096 212.74219-212.74219-95.46096-212.742187-212.74219-212.742188zm0 18a194.74292 194.74292 0 0 1 194.74219 194.742188 194.74292 194.74292 0 0 1 -194.74219 194.74219 194.74292 194.74292 0 0 1 -194.742188-194.74219 194.74292 194.74292 0 0 1 194.742188-194.742188z" fill="#861313"/><path d="m261.74285 74.454056c-8.22854 2.320396-16.95979 6.646333-24.07708 12.943417 2.01083 1.137708 3.99521 2.407708 5.92666 3.81 6.64105-6.217709 15.24-11.20775 26.00855-13.562542-2.93688-1.775354-5.82084-2.878667-7.85813-3.190875zm13.04396 7.104062c-11.69458 1.658938-20.66396 6.447896-27.43729 12.665605 2.72521 2.407708 5.23875 5.132917 7.43479 8.149167 5.60917-4.7625 13.89063-8.440209 26.19375-10.451042-.82021-4.074584-3.25437-7.593542-6.19125-10.36373zm-40.69292 9.331855c-5.50333 5.926667-9.54616 13.308537-10.86114 22.066247.55827 3.25438 1.55045 6.00605 2.83368 8.36084 1.7833-7.11729 5.22288-15.13417 10.72621-22.489587 1.05834-1.42875 2.19604-2.804583 3.41313-4.153958-1.98438-1.455209-4.04813-2.69875-6.11188-3.783542zm9.86896 6.746875c-1.21708 1.296458-2.32833 2.645832-3.36021 4.048122-6.11187 8.17563-9.49854 17.43605-10.74208 24.73855 3.88937 3.88937 8.73125 5.82083 12.83229 6.56166.66146-9.97479 2.16958-19.63208 8.67833-27.22562-2.14312-3.01625-4.65666-5.74146-7.40833-8.122712zm74.45375 30.136042c-8.62541 19.20875-29.39521 40.58709-57.94375 41.275 2.14313 2.40771 13.17625 4.78896 20.24063 2.38125 24.71208-8.41375 34.15771-31.56479 37.70312-43.65625z" fill="#fff" filter="url(#a)" opacity=".5" stroke="#e5f9ff" stroke-width=".25317" transform="matrix(3.1598935 0 0 3.1599427 -598.98384 -139.12362)"/></svg>