<svg height="500" viewBox="0 0 500 500" width="500" xmlns="http://www.w3.org/2000/svg" xmlns:xlink="http://www.w3.org/1999/xlink"><filter id="a" color-interpolation-filters="sRGB" height="1.043261" width="1.071832" x="-.035916" y="-.02163"><feGaussianBlur stdDeviation="3.0430984"/></filter><g transform="translate(0 -1000)"><path d="m0 1250a250 250 0 0 1 -250 250 250 250 0 0 1 -250-250 250 250 0 0 1 250-250 250 250 0 0 1 250 250z" fill="#9db3df" stroke-linecap="round" stroke-linejoin="round" stroke-width="9.39799" transform="scale(-1 1)"/><path d="m263.85417 1289.4759c11.1612 3.7204 14.8816-7.4408 18.46913-11.0283 7.04219-8.7696 15.28021-26.0428 14.48299-54.6102-10.49685-61.1209-92.21278-68.5617-125.69638-20.1965-11.1612 18.602-11.1612 33.4836-14.8816 52.0856 0 29.7632 14.8816 52.0856 40.9244 70.6876 11.1612 11.1612 26.0428 11.1612 37.204 14.8816 70.6876 11.1612 130.214-48.3652 119.0528-119.0528-7.4408-29.7632-22.3224-59.5264-48.3652-78.1284-44.6448-29.7632-96.7304-29.7632-137.6548-3.7204-18.602 11.1612-29.7632 22.3224-40.9244 40.9244-63.2468 100.4508 26.0428 219.3708 133.9344 208.2096 22.3224 0 40.9244-11.1612 63.2468-18.602 22.3224-14.8816 44.6448-37.204 59.5264-59.5264 40.92441-78.1284 7.4408-171.0056-66.9672-215.6504-26.0428-11.1612-52.0856-22.3224-81.8488-22.3224-37.204 0-70.6876 11.1612-100.4508 33.4836-33.4836 26.0428-52.0856 59.5264-66.9672 96.7304-7.4408 14.8816-3.7204 33.4836-7.4408 52.0856 0 119.0528 126.4936 215.6504 241.69313 174.726 29.7632-14.8816 63.2468-26.0428 89.2896-52.0856 22.3224-29.7632 44.6448-59.5264 52.0856-96.7304 3.7204-26.0428 7.4408-44.6448 3.7204-70.6876-18.602-152.5364-189.60753-234.25236-319.82153-156.2568-22.3224 14.8816-44.6448 29.7632-59.5264 52.0856-29.7632 37.204-44.6448 74.408-52.0856 119.0528-18.602 137.6548 96.7304 260.2951 230.53193 260.2951 29.7632 0 63.2468-11.1612 93.01-18.602 37.204-14.8816 70.6876-33.4836 96.7304-66.9672 18.602-26.0428 29.7632-52.0856 44.6448-81.8488 11.1612-33.4836 18.602-70.6876 14.8816-104.1712-7.4408-44.6448-18.602-85.5692-44.6448-119.0528 96.59753 111.7449 44.51193 297.7649-81.8488 364.7321-22.3224 14.8816-48.3652 18.602-70.6876 26.0428-89.2896 22.3224-178.44633-14.8816-234.25233-78.1284-14.8816-14.8816-18.602-33.4836-29.7632-52.0856-48.3652-70.6876-33.4836-152.5364 3.7204-226.8116 52.0856-89.2896 159.9772-130.21396 264.01553-100.4508 63.2468 18.602 115.3324 63.2468 141.3752 126.4936 7.4408 29.7632 14.8816 59.5264 14.8816 89.2896 0 37.204-11.1612 70.6876-29.7632 104.1712-14.8816 22.3224-26.0428 40.9244-48.3652 55.806-18.602 11.1612-33.4836 18.602-52.0856 29.7632-33.4836 11.1612-70.6876 18.602-111.612 14.8816-122.7732-18.602-200.76873-148.816-156.2568-267.7359 14.8816-29.7632 29.7632-59.5264 55.806-78.1284 55.806-40.9244 119.0528-52.0856 185.88713-29.7632 100.4508 40.9244 148.816 156.2568 89.2896 245.4135-11.1612 18.602-18.602 33.4836-33.4836 48.3652-55.806 40.9244-130.214 55.806-189.60753 18.602-14.8816-14.8816-33.4836-18.602-44.6448-37.204-44.6448-66.9672-44.6448-156.2568 18.602-211.9299 63.2468-55.806 174.72593-40.9244 215.65033 37.204 7.4408 22.3224 18.602 40.9244 14.8816 66.9672 0 22.3224-11.1612 40.9244-14.8816 59.5264-26.0428 55.806-96.7304 74.408-152.5364 55.806-18.602-11.1612-40.9244-18.602-52.0856-37.204-48.3652-70.6876-7.4408-178.4463 85.5692-174.7259 22.3224 0 44.6448 14.8816 63.2468 26.0428 29.7632 22.3224 33.4836 55.806 29.7632 89.2896-11.1612 48.3652-63.2468 70.6876-111.612 59.5264-22.3224-7.4408-37.204-29.7632-44.6448-52.0856-3.7204-26.0428 3.7204-48.3652 22.3224-66.9672 33.4836-33.4836 89.2896-7.4408 96.7304 37.204-3.7204 18.602-14.8816 37.204-29.7632 52.0856" fill="#c6d2ec" opacity=".9"/><path d="m262.92407 1285.7555c10.2311 3.4546 13.68576-6.7765 17.00754-10.0982 6.37783-7.8395 13.9515-23.6512 13.15428-49.9597-9.56675-56.2046-84.77198-62.9811-115.59815-18.602-10.2311 17.1404-10.2311 30.6933-13.68576 47.8337 0 27.3715 13.68576 47.8337 37.60262 64.9741 10.2311 10.2311 23.91686 10.2311 34.14796 13.6858 64.97413 10.2311 119.58428-44.3791 109.35318-109.3532-6.77644-27.3715-20.4622-54.743-44.37905-71.7506-41.05728-27.3715-88.89099-27.3715-126.49361-3.4546-17.14041 10.2311-27.37151 20.4622-37.60261 37.6026-58.06482 92.3456 23.91686 201.6988 123.03894 191.3349 20.4622 0 37.60262-10.2311 58.06482-17.1405 20.4622-13.6857 41.05727-34.1479 54.74303-54.743 37.60261-71.7506 6.77644-157.1869-61.51947-198.2442-23.91686-10.2311-47.83372-20.4622-75.20523-20.4622-34.14796 0-64.97413 10.2311-92.21278 30.8262-30.6933 23.9169-47.83371 54.743-61.51947 88.891-6.77644 13.6858-3.45466 30.6933-6.77644 47.8337 0 109.3532 116.2625 198.2442 222.16103 160.6416 27.37151-13.6858 58.06481-23.9169 81.98167-47.8337 20.4622-27.3716 41.05727-54.7431 47.83372-88.891 3.45465-23.9169 6.77644-41.0573 3.45465-64.9742-17.14041-140.0464-174.32731-215.25168-293.9116-143.5011-20.4622 13.6858-41.05727 27.3715-54.74303 47.8337-27.37151 34.148-41.05727 68.2959-47.83371 109.3532-17.14042 126.4936 88.89098 239.3014 211.92993 239.3014 27.37151 0 58.06481-10.2311 85.43633-17.1404 34.14795-13.6857 64.97413-30.8261 88.89098-61.5194 17.14042-23.9169 27.37152-47.8338 41.05728-75.2053 10.2311-30.6933 17.14041-64.9741 13.68575-95.6674-6.77644-41.0573-17.14041-78.6599-41.05727-109.3532 88.89099 102.5768 41.05727 273.4494-75.20523 334.9689-20.4622 13.6857-44.37906 17.1404-64.97413 23.9168-81.98167 20.4622-164.09621-13.6857-215.25171-71.7505-13.68576-13.6858-17.14042-30.6933-27.37152-47.8337-44.37906-64.9742-30.6933-140.1794 3.45466-208.4753 47.83371-81.9817 146.9558-119.5843 242.62323-92.2128 58.06481 17.1404 105.89853 58.0648 129.81539 116.2625 6.77644 27.3715 13.68575 54.743 13.68575 81.9817 0 34.1479-10.2311 64.9741-27.37151 95.6674-13.68576 20.4622-23.91686 37.6026-44.37906 51.2884-17.14041 10.2311-30.6933 17.1404-47.83371 27.3715-30.82617 10.2311-64.97413 17.1404-102.57675 13.6858-112.80784-17.1405-184.55841-136.7247-143.50114-246.0779 13.68576-27.3715 27.37151-54.7431 51.28837-71.7506 51.28837-37.6026 109.35319-47.8337 170.87266-27.3715 92.21277 37.6026 136.7247 143.5011 81.98167 225.6157-10.2311 17.1404-17.14041 30.6933-30.82617 44.379-51.28837 37.6026-119.58429 51.2884-174.32732 17.1404-13.68575-13.6857-30.82617-17.1404-41.05727-34.1479-41.05727-61.5195-41.05727-143.5012 17.14042-194.7895 58.19768-51.5541 160.77443-37.8684 198.37704 33.8822 6.77644 20.4622 17.14042 37.6026 13.68576 61.5195 0 20.4622-10.2311 37.6026-13.68576 54.743-23.91686 51.2884-88.89099 68.2959-140.17936 51.2884-17.14041-10.2311-37.60261-17.1405-47.83371-34.148-44.37906-64.9741-6.77644-164.0962 78.65988-160.6416 20.4622 0 41.05728 13.6858 58.06482 23.9169 27.37151 20.4622 30.6933 51.2884 27.37151 81.9817-10.2311 44.379-58.06481 64.9741-102.57674 54.743-20.4622-6.7764-34.14796-27.3715-41.05727-47.8337-3.45466-23.9169 3.45466-44.3791 20.4622-61.5195 30.6933-30.8262 81.98167-6.7764 88.89099 34.148-3.45466 17.1404-13.68576 34.1479-27.37152 47.8337" fill="#ecf0f9" opacity=".9"/><path d="m226.91591 1287.6157c5.31486 10.4968 15.8117 5.3148 20.86082 5.3148 10.62971-1.0629 28.56735-7.4408 48.23233-28.3016 35.87528-50.624-16.7418-113.7379-74.54088-103.2411-20.99368 5.3149-31.49052 15.8117-47.30222 26.3086-20.99369 20.9937-26.30855 47.3022-20.99369 78.9256 0 15.8117 10.49684 26.3085 15.8117 36.8054 42.12024 57.7991 126.22786 57.7991 168.3481 0 15.8117-26.3086 26.30854-57.7991 20.99369-89.4225-10.49685-52.6171-47.30223-89.4225-94.60446-99.9193-20.99369-5.3149-36.80539-5.3149-57.79907 0-115.73102 26.3085-136.7247 173.5301-52.61709 241.9589 15.8117 15.8117 36.80539 20.9937 57.79907 31.4905 26.30855 5.3149 57.79907 5.3149 84.10762 0 84.10761-26.3085 126.22786-115.731 105.23417-199.8386-10.49684-26.3086-20.99369-52.6171-42.12024-73.6108-26.30855-26.3085-57.79907-42.1202-94.60446-47.3022-42.12024-5.3149-78.92563 5.3148-115.73102 20.9937-15.8117 5.3148-26.30854 20.9936-42.12024 31.4905-84.10761 84.1076-63.11393 241.9589 47.30223 294.5759 31.49053 10.4969 63.11393 26.3086 99.91931 26.3086 36.80539-5.3149 73.61078-10.4969 105.23418-31.6234 20.99368-15.8117 36.80538-26.3086 52.61708-47.3022 94.60446-120.913 31.49053-299.758-115.73101-336.5634-26.30855-5.3148-52.61709-10.4968-78.92563-5.3148-47.30223 5.3148-84.10762 20.9937-120.913 47.3022-110.41616 84.1076-115.73102 252.4557-20.99369 347.0602 20.99369 20.9937 52.61709 36.8054 78.92563 52.6171 36.80539 15.8117 73.61077 26.3085 115.73102 20.9936 31.49053-5.3148 57.79907-15.8117 89.42247-26.3085 31.49053-15.8117 63.11393-36.8054 84.10761-63.1139 26.30855-36.8054 47.30223-73.6108 52.61709-115.731-10.76259 147.4872-179.11069 242.2246-315.83539 200.1043-26.30854-5.3148-47.30223-20.9937-68.42879-31.4905-78.92562-47.3022-115.73101-136.7247-110.41615-220.8323 0-20.9937 10.49684-36.8054 15.8117-57.7991 15.8117-84.1076 84.10761-131.5427 163.03324-157.7184 99.91932-26.30852 205.15349 20.9937 257.77058 115.731 31.49052 57.7991 36.80538 126.2279 10.49684 189.3418-15.8117 26.3086-31.49053 52.6171-52.61709 73.6108-26.30854 26.3085-57.79907 42.1202-94.60446 52.6171-26.30854 5.3148-47.30223 10.4968-73.61077 5.3148-20.99368-5.3148-36.80538-10.4968-57.79907-15.8117-31.49053-15.8117-63.11393-36.8053-89.42247-68.4287-73.61078-99.9194-36.80539-247.1409 78.92563-299.758 31.49053-10.4968 63.11393-20.9937 94.60445-15.8117 68.42879 10.4969 120.91301 47.3022 152.53641 110.4162 42.12024 99.9193-5.31486 215.6503-110.41616 236.644-20.99369 5.3148-36.80539 10.4968-57.79907 10.4968-68.42879-10.4968-131.54272-52.6171-147.22155-120.913 0-20.9937-10.49684-36.8054-5.31486-57.799 15.8117-78.9257 78.92563-142.0396 163.03325-136.7247 84.10761 5.3148 152.5364 94.6044 126.22786 178.8449-10.49685 20.9937-15.8117 42.1202-36.80539 57.7991-15.8117 15.8117-36.80538 20.9937-52.61708 31.4905-57.79908 20.9937-120.91301-15.8117-147.22155-68.4288-5.31486-20.9937-15.8117-42.1202-10.49684-63.1139 15.8117-84.1076 120.913-131.5427 184.02693-63.1139 15.67883 15.6788 20.86081 41.9873 26.17567 62.981 5.31486 36.8054-15.8117 63.1139-42.12024 84.1076-42.12025 26.3086-94.60446 5.3149-120.913-36.8054-10.49685-20.9936-5.31486-47.3022 5.31485-68.4287 15.8117-20.9937 36.80539-31.4906 63.11393-31.4906 23.98451 0 41.23931 14.86 48.993 34.3086 7.53814 18.9078 6.09609 42.1526-6.87275 60.2959-15.81171 10.4968-36.80539 15.8117-57.79908 15.8117" fill="#fff" opacity=".9"/></g><path d="m179.86134 38.779292h-.0645c-46.25722.323831-92.56284 21.62894-116.988246 64.193368-21.845229 38.06914-33.624279 79.38344-30.498047 114.42382 1.55403 17.41623 6.956556 33.36322 17.513672 45.66993 8.418734 9.81528 20.533524 17.03159 35.041015 20.52734-1.028762 5.47533-1.777343 11.09466-1.777343 17.05469 0 26.23905 3.784986 73.98371 17.513669 116.71289 6.87062 21.38364 16.07631 41.33557 29.4297 56.75976h.002c13.09674 15.12621 31.59452 25.87891 53.04097 25.87891 21.44705 0 39.96066-10.74024 53.0664-25.87695 13.35486-15.4235 22.5619-35.37436 29.43165-56.75782v-.002c13.73053-42.72894 17.51171-90.47509 17.51171-116.71289 0-5.97838-.7537-11.61629-1.78906-17.11133 14.18974-3.49053 26.11508-10.37828 34.63281-19.83984v-.002c10.64053-11.82243 16.40736-27.40677 18.04102-44.53311 3.29156-34.5069-9.08246-75.77873-33.88867-116.41406-26.57036-43.527459-73.94993-64.276128-120.21875-63.970703z" fill="#7896d3"/><g stroke-width="36"><path d="m179.92335 56.777898c-40.8825.2862-80.685009 18.8775-101.502004 55.153802-20.334596 35.4366-30.806996 74.4498-28.182596 103.8654 1.3122 14.706 5.7537 26.8137 13.248 35.55 7.4925 8.7354 18.093591 14.5557 33.776991 16.227l9.899999 1.071-2.7 9.5895c-2.1033 7.4448-3.375 14.6304-3.375 22.4145 0 24.3342 3.8628 71.4078 16.65001 111.2067 6.3936 19.899 15.0435 37.9413 25.902 50.4837 10.8612 12.5442 23.2695 19.6605 39.4326 19.6605 16.164 0 28.5993-7.1163 39.4596-19.6596 10.8594-12.5415 19.5093-30.5838 25.902-50.4828 12.789-39.798 16.65-86.8725 16.65-111.2067 0-7.785-1.269-14.9715-3.375-22.4154l-2.6712-9.4797 9.7875-1.152c15.4314-1.836 26.145-7.5303 33.723-15.948 7.5753-8.4168 12.141-19.953 13.5-34.2 2.718-28.494-8.0622-67.2075-31.3326-105.327-22.95-37.596602-63.8343-55.620002-104.7366-55.350002h-.0558z" fill="#fff"/><path d="m184.05795 247.1846c34.8858 0 61.9875 32.409 61.9875 70.7337 0 17.9442-2.2113 50.5728-10.3788 79.8183-4.0824 14.6223-9.5895 28.422-17.7174 39.2067-8.127 10.782-19.764 18.7308-33.8904 18.7308s-25.7634-7.947-33.8913-18.7317c-8.127-10.782-13.635-24.5835-17.7174-39.2058-8.1675-29.2455-10.4067-61.875-10.4067-79.8192 0-38.3256 27.1305-70.7337 62.0163-70.7337z" fill="#7896d3"/><path d="m255.74835 168.8855c22.0023 0 39.6558 17.622 39.6558 39.627 0 22.0014-17.6544 39.6567-39.6558 39.6567-22.0023 0-39.627-17.6553-39.627-39.6567-.002-22.0014 17.6247-39.627 39.627-39.627z" fill="#7896d3"/><path d="m110.45415 168.8855c22.0023 0 39.6567 17.622 39.6567 39.627 0 22.0014-17.6553 39.6567-39.6576 39.6567-22.001409 0-39.627-17.6553-39.627-39.6567s17.625591-39.627 39.627-39.627z" fill="#7896d3"/><path d="m159.50415 420.5462c1.305 2.2788 2.6604 4.3902 4.077 6.273 6.102 8.091 12.3228 12.0357 20.475 12.0357 8.154 0 14.3487-3.9447 20.448-12.0375 1.4184-1.881 2.772-3.9924 4.077-6.2712z" fill="#fff"/><path d="m184.05795 264.002c-16.137 0-30.744 10.3077-38.7567 26.1567h77.4846c-8.0055-15.849-22.5927-26.1576-38.7297-26.1576z" fill="#fff"/><path d="m257.32335 200.4692c-5.9616 0-10.602 4.6692-10.602 10.6308-.002 5.9616 4.6404 10.602 10.602 10.602s10.6308-4.6404 10.6308-10.602c0-5.9643-4.6683-10.6317-10.6308-10.6317z" fill="#eef1f9"/><path d="m109.52535 200.4692c-5.96071 0-10.602009 4.6692-10.602009 10.6308s4.641299 10.602 10.602009 10.602c5.9625 0 10.6326-4.6404 10.6326-10.602 0-5.9643-4.6692-10.6317-10.6317-10.6317z" fill="#eef1f9"/></g><path d="m382.4608-46.828125v165.109375c-16.10048 6.09222-23.85132 24.20812-23.85937 40.47461-7.78754-21.4936-5.53142-47.27821 8.4866-65.746097-3.69435-6.38867-15.28862-16.614077-18.23849-3.542967-15.3234 24.909624-16.02713 57.917124-2.55084 83.761724-18.35681-12.07955-30.28196-33.71674-28.91214-55.87696-5.70182 0-11.40365 0-17.10547 0-1.66939 29.49333 15.4117 57.99669 40.60547 72.69532-28.42271 11.40341-53.47914 38.71219-51.41993 70.94726h17.0918c-1.8282-23.85384 16.38347-43.74153 36.76758-53.22852-16.00766 24.96465-11.93967 60.45541 9.47851 81.05274 6.32338-6.16669 17.57284-11.58312 6.44731-18.9446-9.77892-13.8541-11.1311-32.97244-3.96103-48.26438 4.52082 8.28397 19.78458 3.62731 13.41526 15.25665-3.3059 10.73589 15.1903 26.58283 19.1437 21.8337-2.78922-5.19456-2.48665-29.19673 5.7474-21.62629 5.93681 6.28479-2.5413 23.19299 2.54804 23.08063 15.65876-2.82482 17.67562-23.0236 17.59785-31.41256 7.99629-.0503 14.8573-12.95954 15.8662.71452 4.65451 16.76098-.36407 35.74786-13.00009 47.7842 6.89873 6.95671 14.49038 16.46175 19.94823 2.85134 15.10075-20.78552 15.93226-50.66355 2.15724-72.32985 20.41256 9.4252 38.58432 29.45015 36.78713 53.23047h17.07617c2.05911-32.25729-22.99211-59.49106-51.41406-70.94531 24.65042-14.54009 42.38922-42.56869 40.25624-71.66969-9.99299-3.3331-20.58814-2.01633-17.34925 11.05175-2.43257 17.85908-13.49715 33.8439-28.32496 43.79935 15.01314-28.64068 12.34762-66.13955-7.97656-91.580082-10.20869 5.838031-16.95003 11.365025-6.74657 21.077732 8.34538 17.30328 8.96728 38.03491 2.42626 56.02383-.008-16.24477-7.76678-34.40221-23.86133-40.46484 0-55.704428 0-111.4088567 0-167.113285-5.70899 0-11.41797 0-17.12696 0 .00005.66674-.00009 1.333503.00006 2.00023z" fill="#fff" filter="url(#a)" stroke-width=".899998"/><path d="m386.46158-44.827753v166.118203c-13.53229 2.94446-23.86571 18.75319-23.86571 37.82867 0 7.59406 1.64362 14.66563 4.47088 20.61606-1.58697-1.60162-3.12708-3.37416-4.59295-5.35666-16.37762-22.13956-16.37762-59.52583 0-81.668325l-7.32452-5.432347c-19.18436 25.938542-19.18632 66.597892 0 92.533022 1.24175 1.67975 2.54014 3.25697 3.89176 4.73163-26.99816-10.92084-45.61072-35.23188-45.61072-63.19004h-9.12586c0 30.14282 18.76882 56.15949 46.11416 69.30846-10.35588 3.5392-19.76495 8.39779-27.83315 14.3287-17.72044 13.02543-29.0998 31.4622-29.0998 52.00404h9.12439c0-17.18331 9.43983-32.93492 25.377-44.64925 7.96418-5.85473 17.53146-10.64301 28.19937-13.96248-1.06352.98832-2.09578 2.03475-3.09827 3.12854-20.74155 22.64007-20.74155 58.9804 0 81.62195l6.73074-6.16481c-15.75405-17.19698-17.25753-44.41292-4.51678-63.52501 2.05721 6.60085 8.24398 11.44479 15.4889 11.44479 1.58698 0 3.12318-.23927 4.57734-.67141.2212.88382.5093 1.74031.86917 2.56358-2.23251 3.04065-3.55483 6.80008-3.55483 10.8647 0 7.22099 4.16619 13.46733 10.22405 16.46403-.40334-2.00203-.62503-4.17985-.62503-6.46998 0-9.61953 3.91276-17.426 8.74303-17.426 4.8293 0 8.74303 7.80647 8.74303 17.42648 0 2.29014-.22267 4.46796-.62503 6.46999 6.05689-2.99817 10.22307-9.24353 10.22307-16.4655 0-4.0114-1.29742-7.722-3.47866-10.74263.37893-.84476.6846-1.72858.91557-2.63975 1.4063.40236 2.88293.626 4.41082.626 7.26103 0 13.4605-4.86592 15.50355-11.48971 12.77396 19.11356 11.28073 46.35928-4.4865 63.56994l6.72878 6.1648c20.74302-22.64154 20.74302-58.98187 0-81.62243-1.00102-1.09379-2.03426-2.14071-3.0968-3.12904 10.66693 3.31947 20.23421 8.10775 28.19937 13.96248 15.93668 11.71434 25.37603 27.46693 25.37603 44.64926h9.12634c0-20.54184-11.37985-38.97862-29.10029-52.00404-8.06869-5.93091-17.47727-10.7895-27.83315-14.32871 27.34485-13.14994 46.11416-39.16564 46.11416-69.30845h-9.12537c0 27.95816-18.61305 52.2692-45.61023 63.18956 1.35015-1.47468 2.64854-3.05189 3.89029-4.73164 19.18632-25.93367 19.18632-66.59448 0-92.533026l-7.32451 5.432836c16.37858 22.142 16.37761 59.53023 0 81.66833-1.45856 1.97274-2.99817 3.73062-4.57783 5.32541 2.8175-5.9475 4.45575-13.00199 4.45575-20.58481 0-19.07548-10.33342-34.88422-23.86571-37.82868v-166.116245h-9.12488zm4.62421 234.465683c3.9733 0 7.09501 3.12415 7.09501 7.09501 0 3.97232-3.12171 7.09647-7.09501 7.09647-3.97477 0-7.08037-3.12415-7.08037-7.09647 0-3.97135 3.10853-7.09501 7.08037-7.09501zm-20.29574 11.9331c3.97477 0 7.09599 3.12414 7.09599 7.095 0 3.97184-3.12171 7.09599-7.09502 7.09599-3.97476 0-7.09598-3.12317-7.09598-7.095 0-3.97185 3.12415-7.09599 7.09501-7.09599zm40.42252 0c3.9738 0 7.09599 3.12414 7.09599 7.095 0 3.97184-3.12219 7.09599-7.09501 7.09599-3.97477 0-7.09648-3.12317-7.09648-7.095 0-3.97185 3.12513-7.09599 7.09648-7.09599zm-20.12678 11.65818c3.97379 0 7.09501 3.12366 7.09501 7.09501s-3.12122 7.09501-7.09501 7.09501c-3.9738 0-7.08037-3.12268-7.08037-7.09501 0-3.97135 3.10902-7.09501 7.08037-7.09501z" fill="#7896d3" stroke-width=".899998"/><path d="m391.08579 213.22921c3.97379 0 7.09501 3.12366 7.09501 7.09501s-3.12122 7.09501-7.09501 7.09501c-3.9738 0-7.08037-3.12268-7.08037-7.09501 0-3.97135 3.10902-7.09501 7.08037-7.09501z" fill="#eef2fa" stroke-width=".899998"/><path d="m411.21257 201.57103c3.9738 0 7.09599 3.12414 7.09599 7.095 0 3.97184-3.12219 7.09599-7.09501 7.09599-3.97477 0-7.09648-3.12317-7.09648-7.095 0-3.97185 3.12513-7.09599 7.09648-7.09599z" fill="#eef2fa" stroke-width=".899998"/><path d="m370.79005 201.57103c3.97477 0 7.09599 3.12414 7.09599 7.095 0 3.97184-3.12171 7.09599-7.09502 7.09599-3.97476 0-7.09598-3.12317-7.09598-7.095 0-3.97185 3.12415-7.09599 7.09501-7.09599z" fill="#eef2fa" stroke-width=".899998"/><path d="m391.08579 189.63793c3.9733 0 7.09501 3.12415 7.09501 7.09501 0 3.97232-3.12171 7.09647-7.09501 7.09647-3.97477 0-7.08037-3.12415-7.08037-7.09647 0-3.97135 3.10853-7.09501 7.08037-7.09501z" fill="#eef2fa" stroke-width=".899998"/></svg>