<svg height="500" viewBox="0 0 500 500" width="500" xmlns="http://www.w3.org/2000/svg" xmlns:xlink="http://www.w3.org/1999/xlink"><radialGradient id="a" cx="1362.7291" cy="216.11429" gradientTransform="matrix(1.0000001 -.0000059 .0000001 1.0000003 -112.72927 33.893757)" gradientUnits="userSpaceOnUse" r="250"><stop offset="0" stop-color="#ff851a"/><stop offset=".42441937" stop-color="#f87000"/><stop offset=".86367416" stop-color="#f26900"/><stop offset="1" stop-color="#e55f00"/></radialGradient><radialGradient id="b" cx="244.90408" cy="44.321293" gradientTransform="matrix(3.7403477 .00027742 -.00030862 3.9394076 -768.76231 -10.604409)" gradientUnits="userSpaceOnUse" r="10.166259" xlink:href="#c"/><linearGradient id="c"><stop offset="0" stop-color="#ffa348"/><stop offset=".55700779" stop-color="#ffa348"/><stop offset=".91951919" stop-color="#994100"/><stop offset="1" stop-color="#994100"/></linearGradient><radialGradient id="d" cx="244.90408" cy="44.321293" gradientTransform="matrix(3.7403477 .00027742 -.00030862 3.9394076 -566.55413 -10.60638)" gradientUnits="userSpaceOnUse" r="10.166259" xlink:href="#c"/><g transform="translate(-1000)"><path d="m1500 250a250 250 0 0 1 -250 250 250 250 0 0 1 -250-250 250 250 0 0 1 250-250 250 250 0 0 1 250 250z" fill="url(#a)" stroke-linecap="round" stroke-linejoin="round" stroke-width="1.002"/><path d="m1309.2298 33.82789c128.5196 30.706851 207.8974 167.48127 169.5927 291.56949-31.3771 95.69524-112.8693 162.03793-212.5543 174.60263 153.1796-8.09118 266.0956-163.0043 218.7012-309.92978-36.4562-114.666588-154.6038-191.5214848-270.6514-169.822657-18.8526 4.215647-38.4387 10.498641-55.8829 18.694487-112.5353 47.459213-168.47522 196.206-99.9632 307.85319 57.6978 93.63045 168.5136 141.8489 267.9993 100.77239-134.92 68.97589-303.283-51.46877-311.488-201.30723-4.4167-117.68321 76.8182-219.674136 190.654-246.26040176-89.0147 9.18391126-152.6601 79.39239576-187.7408 157.21169176-38.45522 102.70317 5.2337 231.75078 109.038 294.08388 114.5107 66.1048 260.3537 29.37245 323.6836-83.60152 42.2104-77.69758 34.3514-177.62383-23.1776-249.88923-57.5404-72.257811-157.5429-102.460489-246.4118-71.877168-81.7429 30.682061-131.1298 101.133078-134.0478 190.176958.6692 92.68536 61.7912 168.55972 147.5399 198.52472 128.5549 37.82014 266.7725-70.33038 233.6823-209.88949-14.7104-64.39775-57.8855-122.14991-125.7378-141.121386-71.391-15.467036-138.9716 1.205-181.2869 64.641366-18.8995 29.2286-28.9384 85.21395-26.105 97.65297m0 0c13.5324-50.18833 30.6277-97.66354 72.2125-128.94941 53.182-38.308183 124.4576-37.093813 181.7444-.48035 50.1457 36.48017 75.4845 90.37713 72.3557 150.91678-6.6674 64.04407-38.4038 109.83277-91.6401 141.00844-63.9019 34.56125-135.3795 4.83213-189.1258-35.28385-78.8706-65.48566-79.7477-186.67235-8.9744-256.76104 63.7369-55.941605 167.0207-64.891564 238.7167-6.65053 78.8163 58.35315 90.3045 169.04089 40.972 246.62443-35.2274 56.41892-88.4571 87.60135-152.5581 93.63158-81.9488 2.18264-160.666-41.91503-196.8695-120.9383-36.2055-79.02511-22.5771-164.33167 26.8727-227.66064 49.4316-63.30896 138.3491-86.746364 220.4504-67.54202" fill="#c50"/></g><path d="m122.85751 211.70536c33.47062 19.84821 49.14998 78.32586 55.08538 107.63302 5.33319 26.73198-.15497 54.71813-4.26713 81.665-1.62834 10.67088-4.12561 21.30858-8.03221 31.37126-3.03906 7.82812-6.95494 14.14512-11.85553 22.22796l-20.69192-6.6009c-8.42902-6.17038-14.00453-9.32264-18.47296-10.03318-4.46847-.71053-10.24842-.22649-22.409147 7.21749l-42.948411 26.29433 16.348506-45.61857c-20.563927-4.1211-35.689614-8.50493-57.2083727-15.98225 0 0 16.2202487-16.64942 26.0902297-22.53527 16.089794-9.59499 37.216219-14.95638 52.537775-19.95721-20.64819-24.02309-37.82368-46.74834-47.153774-67.70758-6.056242-13.60481-9.579455-26.96331-8.898162-40.35098.681293-13.38766 6.332947-26.58892 18.360536-37.26891 12.027552-10.68 27.019692-15.01104 39.266321-15.18161 12.246589-.17058 24.769629 2.29953 34.248869 4.8274z" fill="#994100" stroke-width="3.77954"/><path d="m155.70141 411.53859c-.42932 11.30547-5.38262 15.12778-12.12418 22.14969-17.63108-12.90661-31.94275-21.1899-60.624713-3.63247 5.976971-16.68012-14.136958-26.39867-41.442183-26.41555 32.741081-14.08637 57.64064-22.72623 76.675016-26.94593-59.868912-64.03453-86.205486-113.50721-58.545439-141.20718 9.744256-7.80074 20.070456-10.74575 30.747006-10.89477 8.303702-.11534 16.818513 1.46008 25.437103 3.75843 61.6869 62.98157 43.54618 122.79775 39.87739 183.18778z" fill="#ffa348" stroke-width="22.2222"/><path d="m377.14243 211.69702c-33.47062 19.84822-49.14998 78.32587-55.08538 107.63302-5.33319 26.73199.15497 54.71814 4.26713 81.66501 1.62834 10.67088 4.12561 21.30858 8.03221 31.37126 3.03906 7.82812 6.95494 14.14512 11.85553 22.22796l20.69192-6.6009c8.42902-6.17038 14.00453-9.32264 18.47296-10.03318 4.46847-.71053 10.24842-.22649 22.40915 7.21749l42.94841 26.29433-16.34851-45.61857c20.56393-4.1211 35.68962-8.50493 57.20838-15.98225 0 0-16.22025-16.64942-26.09023-22.53528-16.0898-9.59499-37.21622-14.95638-52.53778-19.9572 20.64819-24.02309 37.82368-46.74834 47.15378-67.70758 6.05624-13.60481 9.57945-26.96332 8.89816-40.35098s-6.33295-26.58892-18.36054-37.26892c-12.02755-10.67999-27.01969-15.01104-39.26632-15.18161-12.24659-.17058-24.76962 2.29953-34.24887 4.8274z" fill="#994100" stroke-width="3.77954"/><path d="m344.29853 411.53026c.42932 11.30547 5.38262 15.12778 12.12418 22.14969 17.63108-12.90661 31.94275-21.1899 60.62472-3.63247-5.97698-16.68012 14.13695-26.39867 41.44218-26.41555-32.74108-14.08637-57.64064-22.72623-76.67502-26.94593 59.86891-64.03453 86.20549-113.50721 58.54544-141.20719-9.74425-7.80073-20.07045-10.74575-30.74701-10.89477-8.3037-.11533-16.8185 1.46009-25.43709 3.75844-61.68691 62.98157-43.54619 122.79775-39.8774 183.18778z" fill="#ffa348" stroke-width="22.2222"/><path d="m250.50062 215.41136c-44.21404-.0624-88.41943 12.39883-130.90421 36.81499l-8.88497 5.69333.0887 11.59371c.41036 3.80012 1.24643 7.53416 3.63336 17.1846 2.38693 9.65045-.52189 25.5474-7.93331 39.79133l-7.028319 13.51096 12.288649 8.99276c14.75705 10.80445 26.72898 18.42031 34.41401 26.49808 6.25006 6.56979 9.77257 14.03634 10.03318 26.00328-.82054 9.89952-6.8399 28.29459-16.76319 43.31948l-7.54977 34.63484 31.23944-9.50462c6.60756-3.82562 11.2792-5.35979 14.31855-6.17705l6.07521 36.22566 24.79555-31.27817c4.73247-5.96993 7.28473-6.82873 6.86095-6.8028 10.03616 9.40079 5.7595 7.42296 16.63955 17.53698l17.06989-11.36925 15.39796 11.36925c10.96793-10.44094 10.13968-7.07582 20.98662-17.53698-.42311-.0261 2.12848.8329 6.86098 6.8028l24.80282 31.28544 6.06794-36.23293c3.03913.81715 7.70332 2.35869 14.31126 6.18435l33.58379 9.49732-9.88686-34.63484c-10.17824-15.41044-16.22826-34.45521-16.83594-44.06887.41375-11.52532 3.90284-18.80856 10.03318-25.25389 7.68603-8.07946 19.65882-15.69265 34.41401-26.49808l12.29591-9.00731-7.05015-13.51823c-7.40915-14.20146-10.36312-29.87088-7.00646-42.4391l.007-.0291c1.2711-4.72223 2.18067-9.5382 2.72112-14.39859l1.28778-11.54652-10.07684-5.79145c-41.27809-23.73625-84.38851-36.13387-127.75343-36.66944l-1.12045-.1819z" fill="#994100" stroke-width="3.77954"/><path d="m250.47231 233.15031c-40.88952-.0577-81.87489 11.37821-122.03354 34.45753a77.412154 77.412154 0 0 0 2.21234 11.80667v.003c4.83707 18.05506.52513 38.08115-8.41371 55.26069 14.09531 10.31996 26.91673 18.20585 36.79405 28.58791 9.18984 9.66002 14.89804 22.29425 15.03997 38.77571-.97219 14.46603-8.12363 34.83719-19.82381 52.55249 21.81256-12.62894 37.37591-13.60117 40.17548 3.09761 12.50478-15.77446 22.79544-18.08346 34.58168-7.12748-3.32202-27.89958-9.86134-46.91354-15.30871-57.74443-13.21356-32.43682-37.98006-54.5395-65.41302-74.00142l10.07602-14.20525c34.40701 24.40901 68.12471 55.58623 79.05852 106.06215 8.54055.62534 17.07577.57658 25.59147-.14193 10.96573-50.39342 44.64801-81.53693 79.02213-105.922l10.0778 14.20703c-27.66716 19.6278-52.63235 41.93983-65.75715 74.83437-5.36314 10.9613-11.65589 29.71003-14.89719 56.91148 11.78896-10.95508 22.07962-8.64608 34.5844 7.12834 2.79689-16.69875 18.35931-15.72741 40.17288-3.09847-11.98412-18.14463-19.20026-39.08174-19.88774-53.59922.36805-15.97581 6.03993-28.27209 15.03461-37.72898 9.87735-10.38294 22.69613-18.26884 36.78961-28.58969-8.92725-17.11124-13.29686-37.02289-8.4092-55.26601a78.599033 78.599033 0 0 0 2.22649-11.76763c-39.7843-22.87708-80.58874-34.4336-121.4916-34.49214z" fill="#ffa348" stroke-width="22.2222"/><path d="m319.36083 119.11354h-141.92839l-16.96122 13.35497-25.53764 62.83286c-11.87288 14.62113-20.64022 31.55182-23.57326 50.3696-1.89778 7.77145.20153 22.0307 1.53961 35.05428l24.32547-16.65405c37.34865-19.86417 75.35424-29.47545 113.22429-29.4229 37.89838.0526 75.78289 9.78407 112.82414 29.51748l24.0947 16.53764s3.46689-15.00916 3.51673-22.64919c.0261-4.09065-1.72452-12.15043-1.72452-12.15043-2.80452-18.9228-11.44851-36.0487-23.35496-50.7916z" fill="#994100" stroke-width="3.77954"/><path d="m177.43244 119.11354-26.90783 84.95495c-11.3321 13.23482-19.11953 28.21358-21.63256 44.33664 39.67788-21.10297 80.67565-31.55422 121.58387-31.49744 40.93743.0568 81.78351 10.6322 121.13581 31.59679-2.38615-16.09999-9.95007-31.08585-21.10743-44.28164l-31.14347-85.1093z" fill="#ffa348" stroke-width="22.2222"/><path d="m159.69274-.00000825v42.82471525 88.297783l11.15363 4.45999c35.48205 14.19282 55.07963 22.56192 77.55158 22.56192 22.47199 0 42.0695-8.3691 77.55159-22.56192l11.15363-4.45999v-131.12249825l-57.56524 57.55798825-31.13998-46.71721-31.13993 46.71721z" fill="#994100" stroke-width="3.77954"/><path d="m177.43244 42.82705v76.28649c70.96417 28.38567 70.96417 28.38567 141.92839 0v-76.28649l-42.57855 42.578505-28.38567-42.578505-28.38567 42.578505z" fill="#ffa348" stroke-width="22.2222"/><path d="m146.73472 204.11221c21.36733 0 38.38655-18.5882 38.38655-40.0454 0-21.45719-17.01743-40.05267-38.38655-40.05268-17.86375 0-33.83077 12.76575-37.004 36.91531-3.17324 24.14955 15.63763 43.18277 37.004 43.18277z" fill="#994100" stroke-width="3.77954"/><path d="m146.73472 204.11221c21.36733 0 38.38655-18.5882 38.38655-40.0454 0-21.45719-17.01743-40.05267-38.38655-40.05268-17.86375 0-33.83077 12.76575-37.004 36.91531-3.17324 24.14955 15.63763 43.18277 37.004 43.18277z" fill="url(#b)" stroke-width="3.77954"/><path d="m146.73602 141.75554-.002.002c-11.23894 0-20.64879 9.62452-20.64879 22.30937 0 12.68307 9.40985 22.3067 20.64879 22.3067 11.23893 0 20.64789-9.62452 20.64789-22.30759s-9.40896-22.30936-20.64696-22.30936z" fill="#ffa348" stroke-width="36"/><g stroke-width="3.77954"><path d="m146.7336 156.67349c6.12959 0 12.52706-.002 18.26085 2.16479 2.86673 1.08335 7.56381 5.22629 7.56381 5.22629s-4.69708 4.14293-7.56381 5.22628c-5.73379 2.16683-12.13126 2.16479-18.26085 2.16479s-12.52702.002-18.26082-2.16479c-2.86676-1.08335-7.56388-5.22628-7.56388-5.22628s4.69712-4.14294 7.56388-5.22629c5.7338-2.16682 12.13123-2.16479 18.26082-2.16479z" fill="#994100" fill-rule="evenodd"/><path d="m348.9429 204.11024c21.36733 0 38.38655-18.5882 38.38655-40.0454s-17.01743-40.05267-38.38655-40.05268c-17.86375 0-33.83077 12.76575-37.004 36.91531-3.17324 24.14955 15.63763 43.18277 37.004 43.18277z" fill="#994100"/><path d="m348.9429 204.11024c21.36733 0 38.38655-18.5882 38.38655-40.0454s-17.01743-40.05267-38.38655-40.05268c-17.86375 0-33.83077 12.76575-37.004 36.91531-3.17324 24.14955 15.63763 43.18277 37.004 43.18277z" fill="url(#d)"/></g><path d="m348.9442 141.75357-.002.002c-11.23894 0-20.64879 9.62452-20.64879 22.30937 0 12.68307 9.40985 22.30669 20.64879 22.30669 11.23893 0 20.64789-9.62451 20.64789-22.30758s-9.40896-22.30936-20.64696-22.30936z" fill="#ffa348" stroke-width="36"/><path d="m348.94178 156.67151c6.12959 0 12.52706-.002 18.26085 2.1648 2.86673 1.08335 7.56381 5.22629 7.56381 5.22629s-4.69708 4.14293-7.56381 5.22628c-5.73379 2.16683-12.13126 2.16479-18.26085 2.16479s-12.52702.002-18.26082-2.16479c-2.86676-1.08335-7.56388-5.22628-7.56388-5.22628s4.69712-4.14294 7.56388-5.22629c5.7338-2.16682 12.13123-2.1648 18.26082-2.1648z" fill="#994100" fill-rule="evenodd" stroke-width="3.77954"/></svg>