<svg height="500.00003" viewBox="0 0 500 500.00003" width="500" xmlns="http://www.w3.org/2000/svg"><g transform="translate(-500)"><path d="m926.7767 73.223311c45.24113 45.241099 73.2233 107.741109 73.2233 176.776699 0 69.0356-27.98221 131.53559-73.2233 176.77669-45.2411 45.2411-107.74109 73.22332-176.77669 73.22332-69.03559 0-131.5356-27.98219-176.7767-73.22332-45.2411-45.2411-73.22331-107.74109-73.22331-176.77669 0-69.03559 27.9822-131.5356 73.22331-176.776699 45.2411-45.241105 107.74111-73.22330934 176.7767-73.22330934 69.0356 0 131.53559 27.98220534 176.77669 73.22330934z" fill="#3b2f4f"/><g transform="translate(500)"><path d="m230.6486 0c-128.19182 22.346591-234.17086 139.43202-223.06447 273.24395 5.6201 44.55936 16.72649 83.63245 44.55937 122.70552l50.17947 50.17947c33.45298 22.34661 72.52606 44.55938 111.46533 50.17946 39.07308 5.62012 78.01235 5.62012 111.46534-5.62008 39.07308-16.72649 72.52607-33.45297 100.35893-61.28587 33.45297-39.07306 55.79958-83.63245 66.90595-139.43201v-61.28587c-5.62008-27.83287-11.10637-50.17947-22.34657-78.01235-11.10641-22.34659-27.8329-44.55937-50.17947-61.285858-27.83289-27.832879-61.28586-44.559368-100.35895-55.799569-27.83288-5.620101-55.79957-11.10639-89.25255-5.620101-78.01235 11.106391-139.43202 61.28586-172.885 128.191818-11.10639 27.83288-16.72649 61.28586-22.34659 89.25255 0 33.45298 5.6201 66.90596 16.72649 94.73885 22.34659 44.55936 55.79957 89.25254 105.97904 111.46532 16.72649 5.62012 33.45298 11.1064 55.79957 16.72648 122.70553 22.34661 234.17085-55.79954 250.89734-178.37127 11.10641-78.01236-22.34657-139.43203-72.52604-189.6115-100.35895-89.25255-267.62385-44.559369-312.18322 78.01235-5.6201 27.83288-16.72649 55.79958-16.72649 83.63245 5.6201 78.01235 55.79957 150.53843 133.81192 172.885 61.28586 16.72649 122.70553 5.62012 172.885-33.45298 11.10639-11.10637 22.34659-22.34657 33.45299-33.45297 61.28584-83.63246 44.55935-195.09778-44.55937-256.51746-27.83288-16.726488-55.79958-22.346588-89.25256-27.832879-22.34659-5.620101-44.55937 5.620101-66.90596 11.106391-27.83288 16.726488-50.17947 22.346588-72.52606 50.179468-27.83288 33.45298-33.45298 66.90596-39.07308 105.97904 0 55.79958 27.83288 117.08544 83.63245 144.91833 78.01235 44.55934 183.99139 11.10637 223.06447-72.52607 22.3466-55.79958 11.1064-128.19183-39.07308-172.88501-33.45298-27.83288-66.90596-39.07308-111.46533-39.07308-66.90596 5.6201-111.46533 55.79957-122.70553 122.70553-11.10639 72.52606 33.45298 139.43202 105.97904 150.53843 100.35894 16.72649 183.99138-89.25257 139.43202-178.37131-11.10638-16.72649-27.83288-39.07308-50.17947-50.17947-27.83288-11.10639-55.79957-16.72649-83.63245-11.10639-33.45298 5.6201-55.79957 27.83288-72.52606 50.17947-16.72649 27.83288-16.72649 55.79957-11.10639 83.63245 11.10639 33.45298 39.07308 61.28586 72.52606 72.52607 44.55937 16.72649 89.25255-5.62011 111.46533-39.07309 33.45298-55.79957 5.6201-117.08543-50.17947-139.43202-50.17947-16.72649-122.70553 27.83288-105.97904 89.25255 5.6201 16.72649 11.10639 39.07309 27.83288 50.17947 22.34659 16.7265 50.17947 16.7265 72.52606 11.1064 22.34659-11.1064 39.07308-33.45299 39.07308-61.28587-5.6201-16.72649-5.6201-39.07308-22.34659-50.17947-13.91644-8.36324-29.2379-11.13984-43.17107-8.34651-13.93317 2.79332-26.47803 11.15656-34.84128 25.073-5.6201 16.72649-11.10639 33.45298 9.50065 44.827 41.74932-49.10898 35.32635.40143 29.84006-16.45887v5.6201c16.72649-5.6201 22.34659-22.34659 27.83288-33.45298 5.6201 5.6201 16.72649 11.10639 16.72649 22.34659 11.10639 39.07308-27.83288 72.52606-66.90596 61.28586-33.45298-11.10639-44.55937-50.17947-39.07309-83.63245 5.62011-22.34659 22.3466-39.07308 50.17948-44.55937 33.45298-5.6201 66.90596 11.10639 83.63245 39.07308 16.72649 27.83288 16.72649 50.17947 0 78.01235-33.45298 55.79958-105.97905 55.79958-150.53841 11.10639-33.45298-44.55937-22.3466-117.08543 27.83288-144.91831 16.72648-11.10639 39.07308-16.72649 61.28586-16.72649 11.10638 0 27.83288 5.6201 39.07308 11.10639 27.83288 11.10639 39.07308 39.07308 55.79957 61.28586 5.6201 16.72649 5.6201 27.83288 5.6201 44.55937-5.6201 72.52606-72.52606 122.70554-144.91831 105.97904-83.63246-22.34659-122.70554-122.70553-72.52606-195.09778 11.10638-16.72649 22.34659-27.83288 39.07308-39.07308 78.01235-44.559372 167.2649-5.6201 200.71788 66.90596 39.07309 94.73884-39.07308 206.33797-139.43202 200.71788-27.83288-5.62012-55.79958-5.62012-78.01235-22.3466-22.34659-11.10638-27.83288-27.83287-39.07309-39.07307-66.90596-78.01235-33.45298-195.09778 55.79958-239.79097 39.07308-16.726484 83.63245-16.726484 128.19182-5.6201 94.73883 33.45298 139.43201 144.91832 94.73883 234.17087-11.10637 27.83288-33.45297 44.55935-55.79956 66.90596-22.34659 16.72649-50.17947 27.83289-78.01235 33.45298-44.55937 5.62012-89.25256-5.62009-128.19182-27.83286-94.73884-66.90598-117.08544-211.82429-22.3466-289.97045 16.7265-11.1064 27.83288-33.452984 50.17948-39.073085 33.45298-11.106392 66.90596-22.346593 105.97904-16.726492 27.83288 5.6201 55.79957 16.726492 78.01235 27.832879 16.72649 16.726488 39.07309 22.346598 50.17946 44.559368 11.10641 16.72649 27.8329 33.45298 33.45298 55.79957 22.34661 66.90596 16.72649 139.43203-27.83286 195.09781-16.72649 22.34657-33.45298 44.55934-61.28587 55.79954-22.34659 5.62012-39.07308 22.34661-61.28586 22.34661-39.07308 0-83.63245 5.62008-122.70553-11.10641-117.08543-44.55934-167.26491-195.09777-105.97905-306.69691 16.7265-33.45298 44.55937-61.285864 78.01236-83.632457 44.55936-22.34659 89.25255-33.452979 139.43202-27.832879 61.28586 5.6201 111.46532 39.07308 156.1585 83.632456 22.34661 22.34659 27.8329 50.17947 39.0731 78.01234 11.10637 16.7265 5.62008 39.07309 11.10637 61.28586 11.10645 172.88502-195.09777 301.07685-351.25629 211.82429-27.83287-16.72649-50.17946-27.8329-66.90596-50.17947-61.28586-72.52608-78.01235-167.26492-50.17947-256.51747 16.72649-33.45298 39.07309-61.28586 61.28587-89.252546 39.07308-39.073083 94.73884-55.799574 144.9183-72.526064" fill="#221b35" opacity=".9"/><path d="m231.45148 15.388371c-120.56454 21.008472-220.12061 131.001869-209.68329 256.785079 5.21867 41.88313 15.78981 78.68141 41.88314 115.34586 15.7898 15.65602 31.4458 31.44582 47.23561 47.1018 31.4458 21.0085 68.11026 41.88314 104.77473 47.23563 36.66447 5.21866 73.32893 5.21866 104.77473-5.21866 36.66447-15.65601 68.11026-31.44582 94.33742-57.67295 31.44579-36.66448 52.45425-78.68141 62.89161-131.00187v-57.67294c-5.2187-26.22714-10.43736-47.23561-21.00851-73.32894-10.43731-21.00847-26.22712-41.88313-47.10179-57.672935-26.22713-26.227136-57.67292-41.88313-94.33739-52.454272-26.22714-5.218666-52.45427-10.43733-83.90008-5.218666-73.32893 10.437332-131.00187 57.672938-162.44767 120.564543-10.43733 26.22713-15.78981 57.67294-21.00847 83.90008 0 31.44579 5.21866 62.8916 15.78981 89.11874 21.00847 41.88313 52.45427 83.90006 99.55607 104.77473 15.7898 5.21866 31.4458 10.43732 52.45427 15.65601 115.34588 21.00847 220.12062-52.45428 235.91043-167.66635 10.43732-73.32894-21.00847-131.00188-68.11026-178.23748-94.33742-83.900079-251.56643-41.883137-293.44956 73.32893-5.21867 26.22713-15.78981 52.45427-15.78981 78.68141 5.21866 73.32893 52.45427 141.573 125.78321 162.44767 57.67293 15.78981 115.34587 5.21866 162.44767-31.44578 10.43733-10.43736 21.00849-21.00849 31.4458-31.44582 57.67295-78.68141 41.88314-183.45615-41.88313-241.12909-26.22714-15.7898-52.45428-21.008465-83.90008-26.227131-21.00847-5.218666-41.88313 5.218666-62.8916 10.437331-26.22714 15.7898-47.23561 21.00847-68.11027 47.1018-26.22713 31.4458-31.4458 62.8916-36.66447 99.55606 0 52.45428 26.22714 110.12722 78.68142 136.22052 73.32893 41.88314 173.01881 10.43736 209.68327-68.11025 21.00847-52.45427 10.43736-120.56454-36.66446-162.44767-31.4458-26.22714-62.8916-36.66447-104.77473-36.66447-62.89161 5.21867-104.77474 52.45428-115.34588 115.34588-10.43733 68.11027 31.4458 131.00187 99.55607 141.57302 94.3374 15.65599 173.01881-83.90008 131.00187-167.66635-10.43733-15.7898-26.22714-36.66446-47.1018-47.2356-26.22713-10.43733-52.45427-15.656-78.68141-10.43733-31.4458 5.21866-52.45427 26.22713-68.11027 47.23561-15.7898 26.22713-15.7898 52.45427-10.43732 78.6814 10.43732 31.44581 36.66446 57.67295 68.11026 68.11027 41.88314 15.78981 83.90008-5.21866 104.77474-36.66446 31.4458-52.45428 5.21866-110.12721-47.1018-131.00187-47.23561-15.78981-115.34588 26.22713-99.55607 83.90007 5.21867 15.65599 10.43733 36.66447 26.22714 47.23561 21.00847 15.78981 47.10179 15.78981 68.11027 10.43733 21.00847-10.43733 36.66446-31.4458 36.66446-57.67294-5.21866-15.7898-5.21866-36.66447-21.00847-47.23561-13.11356-7.8949-27.5318-10.50423-40.62864-7.86145-13.09684 2.64279-24.87229 10.53769-32.70029 23.65126-5.21867 15.656-10.43733 31.4458 8.9654 42.15076 39.20689-46.70036 33.05154-.26763 27.96669-16.05744v5.21867c15.78981-5.21867 21.00847-21.00847 26.22714-31.4458 5.21866 5.21866 15.65599 10.43733 15.65599 21.00847 10.43733 36.66447-26.22714 68.11027-62.8916 57.67294-31.4458-10.43733-41.88313-47.23561-36.66447-78.68141 5.21867-21.00848 21.00847-36.66447 47.1018-41.88314 31.4458-5.21866 62.8916 10.43734 78.68141 36.66447 15.65599 26.22714 15.65599 47.23561 0 73.32893-31.4458 52.45428-99.55607 52.45428-141.57302 10.43734-31.4458-41.88313-21.00847-110.12722 26.22714-136.22054 15.78981-10.43733 36.66447-15.656 57.67294-15.656 10.43733 0 26.22714 5.21867 36.66447 10.43733 26.22713 10.43733 36.66446 36.66447 52.45427 57.67294 5.21866 15.78981 5.21866 26.22714 5.21866 41.88314-5.21866 68.11026-68.11026 115.34586-136.22053 99.55606-78.68141-21.00847-115.34588-115.34587-68.11027-183.45614 10.43733-15.656 21.00847-26.22714 36.66447-36.66447 73.32893-41.88313 157.22901-5.21866 188.67481 62.8916 36.66448 89.11874-36.66447 193.89349-131.00188 188.67483-26.22713-5.21866-52.45427-5.21866-73.32893-21.00848-21.00847-10.43734-26.22713-26.22714-36.66447-36.66447-62.8916-73.32893-31.4458-183.45615 52.45428-225.33928 36.66446-15.789805 78.68141-15.789805 120.56454-5.21866 89.11872 31.4458 131.00186 136.22053 89.11872 220.12061-10.43731 26.22714-31.44578 41.88313-52.45425 62.89162-21.00847 15.78977-47.23561 26.22712-73.32894 31.44578-41.88313 5.21866-83.90007-5.21866-120.56454-26.22712-89.11874-62.89162-110.12721-199.11215-21.00847-272.5749 15.656-10.43733 26.22714-31.445801 47.1018-36.664467 31.4458-10.437328 62.8916-21.00847 99.55607-15.655994 26.22713 5.218666 52.45427 15.655994 73.32893 26.227136 15.65599 15.789805 36.66446 21.008475 47.10181 41.883135 10.43732 15.7898 26.22713 31.4458 31.44578 52.45427 21.00847 62.8916 15.78981 131.00187-26.22712 183.45615-15.78981 21.00846-31.44582 41.88313-57.67295 52.45428-21.00847 5.21866-36.66446 21.00847-57.67294 21.00847-36.66446 0-78.68141 5.21866-115.34587-10.43735-110.12721-41.8831-157.22901-183.45614-99.55607-288.23087 15.7898-31.4458 41.88313-57.672937 73.32893-78.681407 41.88313-21.008474 83.90008-31.445802 131.00187-26.22714 57.67294 5.218666 104.77473 36.664468 146.79166 78.681417 21.00851 21.00847 26.22717 47.10179 36.66448 73.32893 10.43732 15.78981 5.21866 36.66446 10.43732 57.67293 10.43735 162.44767-183.45613 283.01222-330.24781 199.11215-26.22713-15.65601-47.23561-26.22713-62.8916-47.23563-57.67294-68.11025-73.32893-157.22899-47.23561-241.12907 15.78981-31.4458 36.66447-57.67293 57.67294-83.900069 36.66447-36.664468 89.11874-52.454275 136.22054-68.11027" opacity=".9"/></g></g><path d="m366.95703 500h-242.6582c1.45958 1.29182 2.87245 2.64024 4.35547 3.90234 77.98277.11603 155.96775.14183 233.94922-.00195 1.48083-1.26277 2.89565-2.60817 4.35351-3.90039z" fill="#3b2f4f"/><path d="m443.06055 91.164062c-9.6117 9.615808-18.68884 20.011908-25.75731 31.625918-7.22674 11.87406-12.25546 25.013-16.6216 38.24518 1.30606-15.25066 5.30977-29.70941 9.6139-44.13918 4.43817-14.87914 8.2058-30.470811 16.64001-43.507308 18.75089-28.982657 73.06445-73.388672 73.06445-73.388672s-64.50303 33.189268-87.61914 59.996094c-17.25424 20.009045-28.40627 45.608796-34.67791 71.274666-6.35078 25.98975-7.26975 53.16628-2.12678 80.2351 6.59567 30.64005 20.19795 60.32826 17.59961 92.45117-6.52838-42.71306-35.63464-78.31308-38.52539-122.00586-3.3659-24.64365-.21697-48.88947 5.43243-72.43347 5.70786-23.78763 17.13193-45.949453 28.31757-67.7052 7.49223-14.572174 25.84668-41.8125 25.84668-41.8125s-34.22441 16.057871-47.75879 28.802734c-12.82896 12.080595-23.1431 27.303413-29.96994 43.548945-6.76209 16.091444-10.04305 33.496081-10.03787 51.392461-9.63277-35.977351-1.6938-74.365755 18.56641-104.990234-3.00792-1.237701-6.02242-2.461564-9.0879-3.583984-3.82902-1.401994-7.70307-2.712271-11.61718-3.929688-3.91412-1.217416-7.86931-2.3415363-11.86328-3.3691402-3.99398-1.027604-8.02711-1.9584605-12.09571-2.7910157-4.06859-.8325552-8.17256-1.5669483-12.31054-2.1992187s-8.30959-1.1630941-12.51172-1.5898438c-4.20213-.42674962-8.43427-.74885083-12.69532-.96484372-4.26104-.2159929-8.55051-.32617171-12.86523-.32617188-3.82142.02061309-7.64158.1285295-11.45703.32421875s-7.62622.47915253-11.42969.84960935c1.17083-.38867544 2.36997-.78543238 3.53516-1.1738281-3.14768.54870647-6.277 1.1721931-9.39649 1.8339844-3.93876.4559505-7.84819 1.0011212-11.72461 1.6347656-3.87641.6336444-7.71913 1.3551604-11.52929 2.1621094s-7.58618 1.6999169-11.32617 2.6757812c-3.74.9758643-7.44543 2.0353914-11.11133 3.1757814-3.66591 1.14039-7.29295 2.361582-10.88086 3.662109s-7.13658 2.680445-10.64258 4.136719c-1.43944.597895-2.84046 1.263093-4.26563 1.886719 17.2042 27.394435 25.75065 60.105166 19.08204 92.421871-3.17432 22.3905-3.99177-19.220801-7.53907-28.324215-3.81-9.777593-7.24471-19.907461-12.66518-28.932511-5.44428-9.064696-11.797-17.830656-19.67661-24.881942-14.74823-13.197858-50.359378-31.451172-50.359378-31.451172s19.834453 29.64228 27.761718 45.5625c10.79197 21.673371 21.49474 43.900025 26.72264 67.54047 5.16002 23.33348 7.84685 47.33081 4.19338 71.56891-4.33222 45.36845-35.37384 82.66272-39.576176 128.0957-4.469497-34.25633 8.549886-66.71669 16.705076-99.20313 10.536-52.4701-6.26051-105.06898-32.937498-147.992184-18.403085-29.610519-81.482422-65.572266-81.482422-65.572266s51.094336 48.878163 67.298828 79.619141c13.164037 24.973039 20.150785 53.862709 22.466797 81.656249-3.94917-12.07522-8.360838-24.08892-14.815564-34.98467-6.246317-10.54395-14.206641-20.10547-22.803577-28.839548-15.743597-15.994743-52.146484-42.590821-52.146484-42.590821s29.169753 38.292769 40.107422 59.592769c13.016441 25.3482 24.702934 52.08219 29.825486 80.11286 4.976794 27.23308 6.025726 55.61001.424514 83.05121-5.694928 57.52264 15.048713 115.3794 50.662108 160.19531-46.038121-49.96099-77.442707-114.26721-82.92578-182.4043-8.022936-20.43805-10.090267 23.16445-10.052734 32.33203-3.720199 81.26458 36.252128 159.15124 96.257814 212.25977h242.6582c58.10927-51.50701 97.7367-126.10069 96.36328-204.87891-.43845-11.51927.059-50.07247-8.61133-43.76367-5.21173 27.02252-8.07148 55.1407-18.84765 80.9668-14.47704 38.82787-37.32588 74.20727-65.05469 104.87305 32.89731-44.94766 55.08166-100.24668 49.26172-156.82422-5.81458-29.31617-4.80272-59.83631 1.05974-88.87895 5.98494-29.64942 19.62523-57.54635 34.20002-84.05074 12.36445-22.484856 44.67188-62.69336 44.67188-62.69336s-39.62847 29.095684-56.93945 46.414062z" fill="#3b2f4f"/><path d="m230.63867.00195313c-3.14436.54829106-6.27047 1.17092847-9.38672 1.83203127-23.91239 2.7680964-46.70427 8.8661646-67.95312 17.7734376 27.8355 43.082432 26.94243 85.562128 7.24805 139.785158 7.37061-49.38766-1.68768-89.246115-31.57422-127.941408-7.79985 4.320136-15.3502 9.017047-22.59766 14.111328 42.50147 61.91227 48.56129 135.55642 15.00781 204.125-15.71617 32.12015-22.703026 65.31495-21.36328 97.875-6.483521-22.9413-8.456461-46.32001-5.703124-69.49023.63295-3.6247 1.186231-7.25933 1.650391-10.88086 1.637238-8.92249 3.987148-17.81094 7.052733-26.60157 20.28291-58.14592 11.70102-119.87709-21.537108-175.017574-4.917734 4.49312-9.64297 9.181894-14.183594 14.046875 20.829231 35.976129 29.871288 74.409199 26.357422 112.343749-6.588353-34.17379-20.749645-66.40745-41.509766-94.511718-4.243623 5.494028-8.25915 11.163828-12.039062 17.001948 30.150213 43.42365 43.422517 96.79511 36.179687 151.22071-.419859 2.46008-.802347 4.92048-1.123047 7.38476-.089699.54117-.168721 1.07512-.263671 1.61524h.066406c-6.912873 56.75142 11.814938 114.52898 52.316403 164.59961 6.75675 11.6811 14.74948 23.00175 23.9336 33.89062-72.36425-63.9544-110.520567-138.98201-116.699222-216.125-11.722249 87.5603 15.93953 172.17323 95.666012 242.86328h47.04297c.0348.0295.06371.06606.09961.09766h137.63477c.0338-.0316.06385-.06799.09765-.09961h46.01953c79.7286-70.68794 107.39202-155.30193 95.67188-242.86328-6.06577 75.71568-42.93217 149.39597-112.71289 212.56445 10.08291-12.3974 18.64766-25.33552 25.61328-38.69922 35.9727-48.08316 52.31991-102.61864 45.79102-156.22851-.005-.0211.004-.04421 0-.06641-.42724-3.49177-.95964-6.96994-1.58203-10.45117-7.17388-56.87466 8.02095-112.49564 41.46874-156.71289-3.88554-5.58582-7.95072-11.038337-12.26757-16.279298-23.35762 29.460548-39.19676 63.868368-46.31055 100.535158-3.64941-40.05489 6.75834-80.63862 30.18555-118.310548-4.65834-4.666834-9.54119-9.103843-14.55469-13.392578-36.09518 56.533356-45.99883 120.476066-25.0293 180.591796 3.05189 8.74738 5.38621 17.59146 7.02344 26.4707.005.0454.02695.08855.03125.13282.46416 3.62363.9853 7.25405 1.61719 10.88086h.03125c2.43054 20.43693 1.18171 41.02978-3.5918 61.34961-.0464-29.93437-7.15053-60.28846-21.55859-89.73438-34.22796-69.94415-27.3558-145.20922 17.49609-207.875-7.05662-4.70058-14.37509-9.032217-21.91211-13.009766-31.55592 39.527393-41.16671 80.077086-33.6289 130.589846-20.03151-55.15468-20.59896-98.159389 8.72265-142.005861-28.34694-11.1703222-59.1934-17.37507135-91.50586-17.38476587h-.14453c-7.62.04318801-15.23411.43317169-22.81836 1.17187497 1.16772-.38764415 2.36312-.78446567 3.52539-1.17187497z"/><path d="m235.67522 499.59649s-23.60429-5.22594-33.81462-11.30936c-3.67389-2.18894-9.37061-8.7631-9.37061-8.7631-58.91934-52.23959-79.37633-114.76148-70.71333-179.4681 4.35681 54.39162 30.23398 107.36544 79.05247 153.16159z" fill="#3b2f4f"/><path d="m202.67524 479.75612v-.23209" fill="#dc8add" stroke="#613583" stroke-width=".9"/><path d="m290.13436 479.52614v.23209" fill="#dc8add" stroke="#613583" stroke-width=".9"/><path d="m291.88447 454.40641c49.64133-46.06832 75.94362-99.48098 80.33947-154.34837 8.663 64.70662-11.76235 127.22957-70.67958 179.4681-3.93395 3.54364-6.59017 6.54148-10.60137 8.76099-10.79344 5.97231-25.10753 10.46809-35.12631 11.64655z" fill="#3b2f4f"/><path d="m200.82913 473.45932-7.4836-108.29061 2.73752-99.29531-19.71433-.55911-2.04338 74.53531h-25.71365c.25318-34.62878 1.98852-73.31899 9.92257-104.80094 4.34205-17.22261 10.51754-32.13494 18.66152-42.92255 8.14186-10.78654 17.84395-17.56018 31.05259-20.04346l16.45041-3.09829-10.68105-12.89112c-9.58183-11.54081-16.84706-32.52842-16.84706-52.21848 0-18.222676 4.51083-34.376652 12.62738-45.361524 8.11655-10.981708 19.32612-17.504272 36.62679-17.504272l-.002.0021c17.30067 0 28.50813 6.519401 36.62679 17.504273 8.11549 10.984872 12.62422 27.138848 12.62422 45.361523 0 19.689-7.26417 40.67767-16.84389 52.21848l-10.68106 12.89112 16.44935 3.09935c13.2097 2.48222 22.91284 9.25586 31.05682 20.04346 8.14187 10.78655 14.31736 25.69783 18.6573 42.92149 7.9351 31.48195 9.63668 70.17322 9.88986 104.79988h-24.59016l-.8587-74.37179-19.71328.22997 1.02011 91.18404-8.17562 117.75534-1.75022 25.35183h-34.74587v-147.39541h-19.71327v147.3933h-32.99998z" fill="#775fa0"/></svg>