<svg height="500" viewBox="0 0 500 500" width="500" xmlns="http://www.w3.org/2000/svg" xmlns:xlink="http://www.w3.org/1999/xlink"><filter id="a" color-interpolation-filters="sRGB" height="1.118309" width="1.08077" x="-.040385" y="-.059154"><feGaussianBlur stdDeviation="3.3388417"/></filter><g transform="translate(.000015)"><circle cx="-249.99998" cy="250" fill="#e51a1a" r="250" transform="scale(-1 1)"/><path d="m181.33938 83.856939c97.52275-31.84694 203.27597 26.159281 217.12696 131.568651 10.04116 85.89723-45.79566 162.6049-131.11288 174.6444-76.26503 6.65-147.16573-45.4981-149.44603-126.3231.16679-50.89801 30.03241-87.97493 76.60677-108.40662 44.00125-16.48183 90.46555-3.00917 112.28155 39.63622 17.95322 40.0953 3.57775 87.31302-40.4313 103.80676-21.98685 8.23292-51.6578-5.55285-56.72562-31.5612 24.48155 21.7253 69.7211 11.74379 80.1808-21.06198 5.24648-24.88185-11.48198-41.52298-24.36368-55.64156-23.21161-15.22125-63.26956-13.16738-85.32502 12.05139-41.51846 46.43224-18.48961 112.52397 35.72777 131.08081 60.66482 17.11352 118.96473-29.63961 126.96137-92.39988 2.7637-54.83226-40.99398-106.19486-96.51046-114.27807-76.21988-10.3001-138.45939 50.84936-147.743191 124.09106-9.31956 73.21828 47.315731 138.67973 111.863041 158.33924 49.05305 9.49897 98.18701 2.07129 139.64056-27.40671 82.90715-58.95602 100.11901-177.97214 43.55644-260.39974-52.71171-79.885311-158.575-103.987181-249.15842-67.061741-86.705021 39.45169-149.0660905 134.549061-117.102931 229.167621 15.77888-74.65377 50.93986-153.5943 123.407351-187.514491 9.28724-4.60517 19.44718-8.7232 30.56692-12.33106zm-160.722321 286.075591c-52.57825-113.8254-.38403-260.89182 113.777041-317.643861 10.84604-5.32012 22.21219-9.7712 34.03518-13.36069 115.76394-28.75816 246.03978 34.00351 263.68455 158.897471 10.04526 85.91695-27.72044 168.80365-107.97396 206.83173-102.24035 46.26108-224.798841-11.43986-234.690511-131.24969-7.33455-123.78718 127.307171-194.136761 222.718561-137.24102-42.54074-27.89653-94.21826-33.44528-140.80825-12.98978-71.17376 32.62266-105.080851 118.0397-80.762351 190.63139 30.697281 88.13423 123.572931 132.04164 212.817841 105.59803 82.80488-25.06359 132.16266-100.33164 140.19255-180.04986 12.12434-145.020371-132.23823-245.3588802-265.59709-221.973611 7.92036-4.10499 20.5989-8.4277792 35.61563-11.7452592 60.06317-13.23825 124.63426-3.45807 179.45368 32.4903392 109.65077 71.904621 141.09454 217.803071 65.16008 333.599141-143.00482 218.07486-377.311781 117.06797-437.622951-1.79433" fill="#b21a1a"/></g><path d="m68.309433 408.63289c-16.064208-14.98039-20.938573-27.75085-20.624326-27.51108l-10.53081-1.78587-6.632813 4.60742c-4.242627 2.94758-7.427858 6.62652-9.796875 10.54687v.002l-.002.002c-5.368747 8.88804-7.615957 18.89084-3.898437 30.02734l7.236799 18.47467 18.702917-6.38378c2.601878-1.23084 26.8286-5.87218 27.410839-5.31478-.373743-5.15799-1.358549-8.5812-1.52426-12.25735-.165712-3.67615-.285503-7.51612-.341034-10.40744z" fill="#861313"/><path d="m33.89838 418.82185c4.07975-.91419 33.605363-6.65741 37.673223-7.32025-3.291509-2.92292-7.05822-6.06429-8.834256-8.29051-7.423219-1.00366-14.675836-2.73581-21.945387-4.48577-1.86908 1.29855-3.4439 3.06011-4.66118 5.07452-2.78926 4.61766-3.73489 10.52103-2.2324 15.02201z" fill="#ff8066" stroke-width="36"/><path d="m109.0625 315.34766c-3.84572-.12843-7.73218.2569-11.603516 1.26171-6.208168 1.61017-12.946683 4.93651-17.904297 12.04102a18.0018 18.0018 0 0 0 -.01367.0195c-1.157689 1.66372-2.087416 3.54822-2.869141 5.49805-7.565808-2.21684-15.318636-2.07733-22.769532-.29294a18.0018 18.0018 0 0 0 -.07031.0293c-7.459251 1.79757-14.491413 5.18494-20.248047 10.78125a18.0018 18.0018 0 0 0 -.002.002c-1.560567 1.51759-2.99497 3.19873-4.271484 5.05078a18.0018 18.0018 0 0 0 -.01953.0293c-.01718.025-.280222.38935-.703125 1.05859-.142982.22491-.360966.5661-.654297 1.07422l-.002.002c-.000281.00049.00028.001 0 .002-.0053.009-.0064.0102-.01172.0195a18.0018 18.0018 0 0 0 -.01758.043c-3.144452 5.47525-5.104493 13.39576-3 21.30078.257273.96742.533053 1.77352.738281 2.33594l.0078-.0156a18.0018 18.0018 0 0 0 .04297.46484c4.934378 12.53805 12.289145 26.77975 23.773438 39.31641.303243.33104.6494.64229.958984.9707-10.761164 2.22295-21.207933 5.24478-30.646484 9.08985-1.605418.51599-3.241998 1.14371-4.873047 2.04297a18.0018 18.0018 0 0 0 -.0078.004c-4.006762 2.21154-7.3066079 5.39963-9.5937496 8.76758-.0009905.001-.00292.002-.00391.004-.1478001.21732-.4181807.61601-.7441406 1.15234-.3159045.51972-.4969267.85102-.5488281.94336a18.0018 18.0018 0 0 0 -.011719.0234c-2.7792875 4.96164-3.81478133 9.95585-3.97265622 14.61718a18.0018 18.0018 0 0 0 0 .002c-.27162279 8.03334 1.98787162 15.56383 5.77929682 22.27539a18.0018 18.0018 0 0 0 .00195.002c3.7978654 6.72115 9.0993537 12.53802 16.0800777 16.47852a18.0018 18.0018 0 0 0 .0039.002c7.303725 4.12094 18.413669 6.67033 29.048828 1.03906a18.0018 18.0018 0 0 0 .404297-.0918c9.356545-4.74848 20.440717-9.93013 30.132812-12.77735 7.076747 5.69693 15.067238 10.21954 23.949219 12.81446 31.17862 9.11091 64.72458 3.0009 91.62695-9.00391a18.0018 18.0018 0 0 0 .002-.002c13.43877-5.99794 25.15379-13.45487 34.23438-22.33985a18.0018 18.0018 0 0 0 .002-.002c9.12095-8.92578 16.14943-19.04408 16.12305-32.54297v-.002c-.036-19.22605-9.59653-35.74081-21.78711-49.07032a18.0018 18.0018 0 0 0 -5.74805-3.37304c-2.95014-9.73172-8.63298-18.91825-17.41602-25.90821-13.60867-10.83012-33.04207-16.78663-58.72656-17.46679-1.10112-1.58232-2.27757-3.04561-3.48437-4.30274-5.51042-5.73972-12.38399-9.44037-19.81641-11.54492a18.0018 18.0018 0 0 0 -.004-.002c-3.70905-1.04946-7.51689-1.6918-11.36523-1.82031z" fill="#861313" stroke-linecap="round" stroke-linejoin="round"/><path d="m43.519047 360.90615c-1.34934 2.3353-1.94998 5.00623-1.2225 7.73443.0727.27415.15883.53209.254.7929l-.10906.0268c4.37269 11.11082 10.8758 23.46754 20.29586 33.75081 10.53849 11.50457 24.39489 20.33367 42.949043 22.25163l-.82483 7.66523c-14.356717-1.48393-26.361343-6.78543-36.211093-14.08762-.0225 4.05511.50701 8.17302 1.52426 12.25735-15.4588 1.74544-31.39653 5.7286-44.19601 11.01487-.81301.20106-1.61405.49932-2.38387.92375-1.4304.78951-2.55168 1.86635-3.40294 3.12042-.0889.13071-.17302.25698-.25461.39192-.0823.13453-.16188.27738-.23935.41521-1.08097 1.92977-1.61019 4.18526-1.68621 6.42979-.1388 4.10506 1.05681 8.55666 3.46188 12.8141 2.40564 4.2573 5.62396 7.60867 9.25755 9.65977 3.63476 2.05082 8.13491 2.86154 11.95164.75608.15532-.0863.29943-.18728.44749-.28022l.0636.0975c12.03098-6.10576 28.03904-14.10707 43.34624-16.36983 6.929766 7.19023 15.288023 12.65428 23.930113 15.17911 25.37943 7.41629 55.61203 2.38161 79.24439-8.16401 11.81596-5.27365 21.96187-11.90036 28.9823-18.76956 7.01949-6.86928 10.72429-13.86261 10.71269-19.64501-.024-13.04727-6.76625-25.69397-17.06886-36.95911-.0207 3.2635-.38864 6.52979-1.09633 9.74281-3.35255 15.22371-13.74776 29.49566-28.27364 38.0965-14.52606 8.6012-33.41436 11.33617-52.79573 3.14705l3.14041-7.06817c17.10828 7.22793 32.92843 4.79696 45.54208-2.67157 12.61389-7.46886 21.79196-20.16286 24.64687-33.12622 2.85522-12.96311-.23547-25.8997-12.2545-35.46501-9.93755-7.90855-26.47052-13.54139-51.44589-13.67784-3.35435 7.23656-6.06336 15.03563-8.06541 22.49046l-7.6443-1.95599c1.41973-5.28491 3.17758-10.7245 5.26609-16.07786.64974-.88451 1.16301-1.88111 1.47864-2.99592.11924-.42032.20346-.83978.26195-1.25747.005-.0124.004-.0276.009-.0395-.003-.002-.009-.005-.0116-.007.49106-3.66117-1.25838-7.18203-3.83462-9.86569-2.8803-3.00016-6.94765-5.33622-11.73653-6.69223-4.78897-1.35502-9.49499-1.50884-13.55004-.45545-3.042117.78901-5.919017 2.42013-7.662117 4.91808-.53168.76408-.95066 1.60576-1.24202 2.53357l-.16754-.0532c-1.35164 6.91146-2.30825 14.85001-2.28086 23.15445 2.19698 5.57264 4.71288 10.40434 7.68887 14.31273 4.622867 6.07162 10.193377 10.01498 18.167017 11.73724l-1.69247 7.52152c-9.79387-2.11568-17.305557-7.42334-22.823507-14.6713-4.870976-6.39742-8.298726-14.29786-11.164486-23.12949l-.0908.022c-.0495-.32738-.10964-.65512-.19768-.98478-1.10267-4.13881-4.79692-6.74552-8.8306-7.94155-4.03345-1.19644-8.74528-1.23123-13.58618-.0719l-.025.0152c-4.82943 1.1607-8.97424 3.31344-11.93938 6.196-.74252.72207-1.41519 1.51359-1.99995 2.362-.10926.15917-.22407.32184-.32643.48504-.0969.15247-.19484.3091-.28446.46481z" fill="#ff8066" stroke-linecap="round" stroke-linejoin="round" stroke-width="36"/><path d="m50.430087 364.61111c.078-.12745.16357-.26729.26133-.40291.26233-.36105.60591-.74203 1.03086-1.15536 1.70258-1.65461 4.65993-3.32055 8.25865-4.18234 3.59754-.86149 7.04645-.73521 9.40101-.0368 2.35527.69892 3.26836 1.72828 3.47492 2.50125.20648.77391-.0637 2.01261-1.76628 3.66723-1.70301 1.65534-4.67102 3.31455-8.26953 4.176-3.59779.86187-7.04646.73522-9.40146.0375-2.35529-.69889-3.25711-1.7217-3.46366-2.49467-.13502-.50816-.0693-1.21394.47487-2.10949zm-23.73321 86.11488c.24703-.37953.53338-.63156.80056-.77904.71397-.39356 2.00906-.4611 4.0919.71438 2.08209 1.1751 4.49215 3.53357 6.27985 6.69798 1.78881 3.16504 2.57031 6.44597 2.48916 8.84304-.0808 2.39728-.86466 3.51868-1.57791 3.91266-.71375.3932-2.00862.46039-4.09146-.7151-2.08234-1.17468-4.50421-3.53962-6.29207-6.70459-1.78771-3.16441-2.55831-6.439-2.47752-8.83627.0403-1.19818.25574-2.07999.54929-2.70945.0739-.15768.14586-.2963.22812-.42269zm74.025933-107.21906c.0517-.10053.11622-.20601.18957-.30976.4465-.6168 1.36372-1.2507 3.10721-1.70305 2.32366-.60312 5.74294-.60639 9.3027.40091 3.55977 1.00731 6.48137 2.80129 8.16383 4.5537 1.68216 1.75126 1.95288 3.08858 1.73426 3.85812-.21834.77068-1.08852 1.70215-3.41204 2.30584-2.32436.60265-5.74386.60627-9.3034-.40139-3.55998-1.00695-6.48181-2.80058-8.16426-4.55298-1.68173-1.75198-1.95245-3.0893-1.73383-3.85884.0267-.0968.065-.19158.1167-.29212z" fill="#861313"/><g><path d="m439.71484 299.59375c-.74395-.01-1.48519-.05167-2.23046-.01953-1.37765.0594-2.75299.19122-4.10938.40039-.67819.10458-1.35097.22961-2.01758.37305-.66661.14343-1.32767.307-1.97851.49023-.65085.18323-1.29293.38541-1.92383.60938-.6309.22396-1.25065.46874-1.85742.73437-.60678.26564-1.19888.55308-1.77735.86133s-1.14346.63843-1.68945.99023-1.07466.7248-1.58398 1.1211c-.50933.39629-.99833.81413-1.4668 1.25586-.4322.40752-.83645.87333-1.21485 1.38672-.37839.51338-.73043 1.076-1.05859 1.67773s-.63257 1.24149-.91406 1.91406c-.2815.67257-.54089 1.37762-.7793 2.10352-.2384.7259-.45541 1.47266-.6543 2.23437-.19888.76172-.38002 1.53834-.54296 2.31836-.32589 1.56005-.58356 3.13781-.78711 4.66602s-.3531 3.00699-.46289 4.36328c-.1098 1.35629-.18 2.59049-.22461 3.63476-.08923 2.08856-.07618 3.41407-.07618 3.41407s-.68553-.30628-1.80273-.75391-2.66624-1.03759-4.39258-1.60547c-.86317-.28394-1.77122-.56183-2.6914-.81445-.92019-.25262-1.85193-.47978-2.76563-.66016s-1.80864-.31364-2.65234-.38086c-.42186-.0336-.83021-.05118-1.22266-.04882-.39245.00235-.76794.02492-1.12305.06835-.73066.08938-1.45542.22397-2.16992.40039-.7145.17643-1.41881.39351-2.11523.64649-.69643.25298-1.38412.54229-2.06055.86133s-1.34158.66837-1.99609 1.04297c-.65452.37459-1.299.77371-1.92969 1.19336s-1.24858.86024-1.85352 1.31445c-1.20988.90841-2.36555 1.87573-3.46093 2.85937-.61745.55447-1.2299 1.12612-1.83008 1.7168-.60019.59068-1.1882 1.19886-1.76172 1.82422-.57353.62536-1.13245 1.26923-1.66992 1.92773-.53747.65851-1.05486 1.33138-1.54688 2.02149-.49201.69011-.95736 1.397-1.39453 2.11719-.43717.72018-.84583 1.4544-1.21875 2.20312s-.71048 1.51138-1.00976 2.28711c-.29929.77573-.55915 1.56404-.77539 2.36523-.20796.77047-.36381 1.60726-.47461 2.48438-.11081.87712-.17706 1.79491-.20508 2.73242-.02803.93751-.01891 1.89408.02148 2.8457.04039.95163.11259 1.89891.20703 2.81836.09445.91946.21158 1.81133.34571 2.65235.13412.84101.28391 1.63135.44336 2.34765.15944.7163.32959 1.35899.5 1.9043.1704.54531.34081.99227.50781 1.32031-.23822-.52982-.53828-1.05994-.89844-1.58984s-.77886-1.05985-1.25-1.58594-.99524-1.048-1.56641-1.5664c-.57116-.51841-1.18937-1.03224-1.84961-1.53907-.66023-.50682-1.36322-1.00668-2.10156-1.49804-.73834-.49137-1.51286-.97525-2.31836-1.44727-.80549-.47202-1.64221-.93207-2.5039-1.38086s-1.74737-.88497-2.6543-1.30664-1.83418-.83003-2.77539-1.2207c-.94121-.39068-1.89679-.76335-2.86133-1.11914-.96454-.3558-1.93911-.6947-2.91601-1.01172-.97691-.31703-1.95724-.61235-2.93555-.88672-.97832-.27437-1.95311-.52802-2.92188-.75586s-1.93064-.43001-2.8789-.60742c-.94827-.17742-1.88398-.33002-2.80078-.45313-.91681-.12311-1.81507-.21633-2.68946-.28125-1.00371-.07452-2.01333-.12451-3.02734-.14843-1.01401-.02393-2.03165-.02194-3.05274.0039-1.02108.02584-2.04537.07563-3.07031.15039-1.02493.07476-2.05061.17404-3.07617.29688-1.02556.12283-2.05126.26938-3.07422.43945s-2.04341.36361-3.06054.58008c-1.01714.21647-2.03098.45477-3.03907.7168-1.00808.26202-2.01004.54678-3.00586.85351-.99581.30674-1.98452.63572-2.96484.98633s-1.95246.72355-2.91406 1.11719c-.9616.39363-1.91386.80831-2.85352 1.24414-.93965.43582-1.86676.89197-2.78125 1.36914s-1.81507.97646-2.70117 1.49414c-.8861.51767-1.7588 1.05399-2.61328 1.61133s-1.69208 1.1343-2.51172 1.73047c-.81964.59616-1.62077 1.21156-2.40234 1.8457-.65797.53385-1.30589 1.08655-1.94336 1.65625-.63747.56969-1.26405 1.1563-1.87891 1.75976-.61486.60347-1.21847 1.22422-1.80859 1.85938-.59013.63516-1.1672 1.28444-1.73047 1.94922s-1.11219 1.34478-1.64649 2.03711c-.5343.69232-1.05343 1.39744-1.55664 2.11523-.5032.71779-.99094 1.44827-1.46093 2.18946-.47.74118-.92276 1.49336-1.35743 2.25585-.43466.7625-.85083 1.53468-1.24804 2.31641-.39722.78173-.77517 1.5722-1.13282 2.37109-.35764.7989-.69576 1.60594-1.01171 2.41993-.31596.81398-.61067 1.63589-.88282 2.46289-.04939.1501-.0888.30263-.13672.45312l48.01172 67.7461 183.58594 36.55273-36.55273-183.58594z" fill="#861313"/><path d="m418.74219 306.79492c-.3011.31684-.60366.63117-.87696 1.00196-.37839.51338-.73043 1.076-1.05859 1.67773-.65631 1.20346-1.21655 2.56578-1.69336 4.01758s-.87137 2.99268-1.19726 4.55273-.58356 3.13781-.78711 4.66602c-.4071 3.05642-.59828 5.90949-.6875 7.99804-.08923 2.08856-.07618 3.41407-.07618 3.41407s-2.74264-1.22362-6.19531-2.35938c-1.72633-.56788-3.62963-1.11385-5.45703-1.47461-.9137-.18038-1.80864-.31364-2.65234-.38086-.84371-.06721-1.6355-.06734-2.34571.01953-1.46132.17875-2.8923.54091-4.28515 1.04688-1.39285.50596-2.74761 1.15511-4.05664 1.9043-1.30904.74918-2.57333 1.5994-3.78321 2.50781s-2.36555 1.87573-3.46093 2.85937c-1.2349 1.10893-2.44475 2.2903-3.5918 3.54102s-2.23276 2.56899-3.2168 3.94922c-.98403 1.38022-1.86743 2.82286-2.61328 4.32031-.74584 1.49745-1.35267 3.04996-1.78515 4.65234-.20796.77047-.36381 1.60726-.47461 2.48438-.11081.87712-.17706 1.79491-.20508 2.73242-.05605 1.87502.03963 3.82515.22851 5.66406.18889 1.83892.47017 3.5674.78907 5 .31889 1.4326.67382 2.56853 1.00781 3.22461-.47645-1.05964-1.20616-2.12359-2.14844-3.17578-.94228-1.05218-2.09555-2.09182-3.41602-3.10547-1.32046-1.01365-2.80893-2.00127-4.41992-2.94531s-3.34434-1.84415-5.1582-2.6875-3.70764-1.62826-5.63672-2.33984c-1.92907-.71159-3.89493-1.34969-5.85156-1.89844s-3.90425-1.00845-5.80078-1.36328-3.74146-.60453-5.49024-.73438c-2.00743-.14904-4.03791-.19621-6.08008-.14453-2.04216.05168-4.09537.20159-6.14648.44727-2.05111.24567-4.1005.58659-6.13476 1.01953-2.03427.43294-4.0533.95684-6.04493 1.57031s-3.9557 1.31625-5.8789 2.10352-3.80579 1.65894-5.63477 2.61328c-1.82897.95434-3.60549 1.99079-5.31445 3.10547-1.70896 1.11467-3.35091 2.30789-4.91406 3.57617-1.31593 1.06769-2.59256 2.20908-3.82227 3.41601-1.22971 1.20694-2.41252 2.47904-3.53906 3.8086-.28718.33892-.53663.71237-.81641 1.05859l48.9375 69.05274 150.12695 29.89257-29.89257-150.12695z" fill="#ff8066" stroke-width="36"/><path d="m372.03906 347.68164c-.03588.05828-.07778.1134-.11328.17188-.43717.72018-.84583 1.4544-1.21875 2.20312s-.71048 1.51138-1.00976 2.28711c-.29929.77573-.55915 1.56404-.77539 2.36523-.20796.77047-.36381 1.60726-.47461 2.48438-.11081.87712-.17706 1.79491-.20508 2.73242-.02803.93751-.01891 1.89408.02148 2.8457.04039.95163.11259 1.89891.20703 2.81836.09445.91946.21158 1.81133.34571 2.65235.13412.84101.28391 1.63135.44336 2.34765.15944.7163.32959 1.35899.5 1.9043.1704.54531.34081.99227.50781 1.32031-.23822-.52982-.53828-1.05994-.89844-1.58984s-.77886-1.05985-1.25-1.58594-.99524-1.048-1.56641-1.5664c-.57116-.51841-1.18937-1.03224-1.84961-1.53907-.66023-.50682-1.36322-1.00668-2.10156-1.49804-.73834-.49137-1.51286-.97525-2.31836-1.44727-.80549-.47202-1.64221-.93207-2.5039-1.38086s-1.74737-.88497-2.6543-1.30664-1.83418-.83003-2.77539-1.2207c-.94121-.39068-1.89679-.76335-2.86133-1.11914-.96454-.3558-1.93911-.6947-2.91601-1.01172-.97691-.31703-1.95724-.61235-2.93555-.88672-.97832-.27437-1.95311-.52802-2.92188-.75586s-1.93064-.43001-2.8789-.60742c-.94827-.17742-1.88398-.33002-2.80078-.45313-.91681-.12311-1.81507-.21633-2.68946-.28125-1.00371-.07452-2.01333-.12451-3.02734-.14843-1.01401-.02393-2.03165-.02194-3.05274.0039-1.02108.02584-2.04537.07563-3.07031.15039-1.02493.07476-2.05061.17404-3.07617.29688-.08273.00991-.16532.02493-.24805.03515l7.28711 8.24805 60.07422 23.08008z" fill="#861313"/></g><g transform="translate(-.070142 -2.585873)"><path d="m249.84537 289.62925c-4.37619.0209-8.46472 2.01866-11.86719 4.54101-18.21196 13.50106-31.57641 33.43761-41.72071 53.71191-2.68303 5.36229-4.47526 11.8239-4.7539 17.34864-3.19865 1.96384-6.52868 5.5295-7.57324 9.4209-8.60542 32.0585-8.36 74.97805 15.1377 98.42285 15.15353 15.11941 41.18019 19.94533 64.04589 9.33984 8.24174-4.50128 14.47107-10.24838 18.48926-16.96093 3.3184-.23301 6.20807-2.04207 9.21289-3.31641 7.57623-3.21306 15.14832-6.57576 22.15821-10.88672 3.00386-1.84732 6.33298-3.44795 8.44726-6.36914 4.31162.81675 9.67809 1.20003 14.54492 1.35352 11.3809.35893 22.85352.45613 34.14455-1.01563 3.06488-.3995 6.25536-.62987 9.0293-2.10937 3.4534 1.73129 7.79549 3.72556 11.99805 3.91406 23.68956 1.06254 49.85821-2.39432 69.33595-15.91992 9.09979-6.31901 15.6563-17.60522 18.2851-27.75391 10.49729-3.21805 13.03796-12.1529 16.2168-20.17387 5.689-14.35471 6.0243-30.93573 3.58956-46.1835-2.60355-16.30497-7.9051-33.53073-19.02706-45.73452-3.1152-3.41821-7.4712-6.05337-12.2617-6.49218-3.3494-7.18118-9.69415-16.21177-17.15825-21.56739-7.91477-5.67897-18.16142-12.38509-27.49215-9.91113-3.261-3.0155-8.04835-6.28954-12.79105-7.91797-13.74343-4.71888-28.8149-4.96615-43.34275-4.66402-14.7934.30766-30.11429 1.2033-43.89939 6.58013-3.3134 1.29238-6.56264 3.13989-8.83594 5.98047-3.612-.33057-8.03432-.19115-11.83204.91601-14.86872 4.33476-29.03034 12.03464-40.99414 21.87012-4.51333 3.71043-8.63925 9.32178-11.08593 13.57715z" fill="#861313"/><path d="m383.97061 424.96318c-2.3121-2.04891-3.2993-4.29747-3.5667-7.07109-.5355-5.54555 3.0951-13.13656 7.851-16.94469 7.6899-6.15742 14.5968-5.59652 18.8336-3.12473 4.2358 2.46945 6.0104 5.97475 3.4176 10.88899l10.5143 5.54433c5.3324-10.11342.7589-21.62756-7.9519-26.70821-6.534-3.80975-15.2835-4.48851-23.8457-.91368-.3566.14857-.7213.30093-1.0768.46585-2.4882 1.14584-4.9323 2.66408-7.3147 4.57054-7.9475 6.3646-13.294 16.67562-12.2615 27.36037.2681 2.77963 1.0658 5.58507 2.4017 8.20941-11.9239-.57019-24.12584-.34722-36.02315 1.05614-21.09186-.0851-35.00143-10.66271-40.03667-22.58807-5.07191-12.01423-2.24608-25.33271 13.9177-34.65499l-5.94171-10.29522c-20.30407 11.71069-26.06684 32.62281-18.91355 49.5668 4.16849 9.87228 12.34069 18.41142 23.45754 23.79993-9.78823 3.16844-18.96685 7.53091-27.12552 13.39895.13107-4.57767-.81921-9.0393-2.76663-13.01801-6.16724-12.59627-22.41929-19.60078-39.57561-12.06317-1.14366.50167-2.28972 1.07215-3.43829 1.70659l5.75043 10.40334c13.92592-7.69062 22.78802-2.56248 26.58652 5.19414 3.7557 7.67126 2.50027 18.72641-11.86031 26.61073-16.33925 7.56129-32.12179 3.98118-43.86203-6.6346-15.7178-14.21286-24.0558-42.4053-10.77447-77.64178.25127-.66722.49724-1.33695.75431-1.99911 1.25111 2.08176 2.77598 3.94133 4.48924 5.5412 8.7599 8.18056 21.68058 10.53417 32.76649 7.81161 15.29141-3.75599 24.2725-14.70626 25.6649-25.84915 1.39292-11.14174-5.58884-22.85107-18.1329-25.00631l-2.00721 11.72872c6.74633 1.15852 9.09803 5.79364 8.34674 11.80227-.75078 6.00975-5.40151 13.02307-16.70334 15.79926-7.10463 1.74443-16.82105-.30547-21.81708-4.97247-2.49975-2.33271-4.01623-5.06945-4.29061-8.86063-.22273-3.07936.44799-7.01925 2.83121-11.98082 10.47318-19.16167 23.41637-35.34989 37.90089-48.68239-.6782 8.87046 2.66699 17.03587 8.26691 23.06492 11.19954 12.05895 31.2404 16.48907 49.48805 7.49393 3.9673-1.95413 8.67801-1.74497 13.65236.57 4.97493 2.31469 9.86574 6.7891 13.0912 12.45202 6.45035 11.32612 7.22572 26.67415-9.81467 42.13709l7.9966 8.79933c20.33874-18.4551 21.00696-41.29483 12.16832-56.81504-4.41995-7.75843-10.95301-13.87177-18.42476-17.34833-7.47233-3.47628-16.21984-4.25859-23.92541-.46294-13.72518 6.76488-28.22441 2.92715-35.52128-4.92977-3.64802-3.92758-5.53003-8.62634-5.11914-14.02587.39967-5.24364 3.07783-11.46083 9.86593-18.18305 12.57063-7.5375 23.01284-13.90475 35.57176-18.89644 5.51991-1.40144 8.89046-.23108 11.32907 1.75015 2.68775 2.18489 4.34999 6.0084 4.30321 10.09765-.0471 4.09152-1.68668 8.1601-5.253 11.01509-3.5669 2.85525-9.36011 4.83198-18.76644 3.46644l-1.70577 11.76701c11.81873 1.7152 21.39013-.74993 27.8947-5.95745 6.50398-5.20725 9.63555-12.81976 9.71972-20.14648.0796-6.90297-2.45653-13.81306-7.69039-18.60153 26.69656-7.224 53.53574-7.86747 76.90884-2.26221 8.4875 3.62472 12.2993 10.57385 12.0301 16.61867-.3035 6.78774-5.0778 13.80105-20.158 15.59195l1.3895 11.80795c18.9361-2.2495 30.0684-14.004 30.6415-26.85561.1404-3.13322-.3172-6.24882-1.2931-9.23349 4.2875 2.04954 8.3649 4.35734 12.1834 6.97077 10.1052 9.14736 13.7795 16.97202 14.1026 22.98987.3222 6.01898-2.3806 11.15753-7.996 15.85485-11.2307 9.39178-33.9934 14.47641-53.5939 10.15717-8.3895-1.84826-19.4709-10.52015-23.9713-19.09602-2.2497-4.28889-2.8898-8.19118-2.0512-11.247.8386-3.05583 3.0384-6.05333 9.1773-8.75255l-4.7885-10.88078c-8.437 3.70954-13.9706 9.6349-15.8496 16.4815-1.87847 6.84632-.21772 13.81845 2.9848 19.92177 6.4054 12.20727 18.8768 22.30469 31.9365 25.1819 23.166 5.10546 48.475.1508 63.7716-12.64159 7.0865-5.92647 12.0401-14.09042 12.2939-23.38162 17.4433 23.8422 20.4665 51.94709 12.8219 75.79882-.9988 3.11846-2.1813 6.17338-3.534 9.1237-.4705-5.2936-1.8913-10.3852-4.1575-14.94095-4.0613-8.16493-10.954-14.83756-19.9482-17.53228-7.3771-2.2124-15.8927-1.56291-24.6327 2.40924-.5832.26365-1.1743.54348-1.7593.83722-1.336.67382-2.6813 1.42443-4.0211 2.25498l6.2709 10.10308c8.4992-5.27221 15.2994-5.85406 20.735-4.22517 5.4353 1.62972 9.8833 5.73463 12.7213 11.44079 5.6765 11.41346 4.3784 28.3244-9.8209 39.54422-14.3685 10.1848-33.2207 15.34394-55.7741 12.54957-4.8632-.91862-7.9849-2.5499-9.9445-4.28553z" fill="#ff8066" stroke-linecap="round" stroke-linejoin="round" stroke-width="36"/></g><path d="m438.84961 282.62695c-2.9487.24883-5.81943 1.0601-8.64807 1.89269-8.66241 2.69717-16.86783 7.65818-22.27381 15.06825-3.48055 4.76088-5.43918 10.49537-6.1858 16.31186-.0894.59001-.19834 1.20642-.32787 1.76431-1.19167-.59615-2.50592-.94308-3.84414-.80494-8.38147.0978-16.40123 3.69212-22.88423 8.85251-5.88964 4.65239-10.7558 10.49088-14.84191 16.7559-1.18301 2.0572-1.73851 4.38328-2.52542 6.60278-1.42403-1.23584-3.27416-1.70716-4.98592-2.39363-17.36993-6.34693-36.9857-5.41864-54.08328 1.36275-14.17269 5.59117-26.84848 15.36634-35.07182 28.2738-2.69493 4.16547-4.73885 8.70091-6.65976 13.26099-1.97166 5.1326-3.04508 10.69895-2.57584 16.20284.35403 3.98655 2.0493 8.11668 5.49774 10.38224 3.43033 2.25173 7.8681 2.33109 11.71485 1.24742 1.9736-.60616 3.33981-2.2728 4.59335-3.81568 2.96231-3.8841 3.97144-8.76618 5.07817-13.4144.44394-1.78074.97077-3.80735 1.77923-5.56986.68146-1.67004 1.92974-2.99346 2.80911-4.54835 1.47464-2.30635 3.19141-4.45456 5.08581-6.42952.3239-.32362.88942-.90691 1.32277-1.31469 5.67576-5.42648 12.74221-9.29615 20.2495-11.52906.7876-.23867 1.85939-.53155 2.76953-.75 7.35892-1.76983 15.12587-2.09629 22.55238-.54326 9.30461 2.03958 18.50556 6.47831 24.8591 13.88609.77889 1.06806 1.80933 1.92441 3.03513 2.43458 2.95914 1.31013 6.46509 1.66445 9.48307.33001 3.79518-1.55047 6.25153-5.24111 7.38682-9.05281 1.02308-3.47027.97153-7.28574-.38116-10.66118-1.63421-5.59116.1169-12.05653 4.4699-15.96234 2.89483-3.08263 6.15441-6.2255 10.38415-7.26752 2.06765-.45794 4.27497.0928 5.95616 1.35815 5.24449 3.09001 12.32807 3.01361 17.27239-.6586 4.13014-2.95555 6.37859-8.18284 5.92708-13.21412-.057-1.4307.3748-2.82914.49897-4.25167.24496-1.78418.48235-3.57129.85288-5.33483.0749-.36875.25958-1.14337.39724-1.6614.76196-2.82273 2.03887-5.74917 4.60637-7.36991 2.49478-1.50861 5.37629-2.18396 8.09478-3.17518 3.62641-1.2467 7.40771-2.87266 9.78145-6.02426 1.92706-2.58826 2.55573-5.95488 2.08696-9.11105-.57106-4.423-3.66516-8.34653-7.76578-10.0573-1.72422-.74888-3.60952-1.12735-5.49008-1.07161z" fill="#e51a1a" filter="url(#a)" stroke-linecap="round" stroke-linejoin="round"/><g><path d="m73.875 28.996094-.376953.01563c-11.833038.494564-23.54959 4.210962-32.144531 12.667964-8.594942 8.456991-12.555359 20.741759-12.355469 32.867187l.08594 5.121094 27.703125 43.138671 12.753907-3.49219c.838279-.22953 1.608363-.54199 2.414062-.81054l21.572266 30.43945c-12.707268 17.29398-23.662887 36.24-32.642578 56.9375l-4.873047 11.23437 50.550778 50.55274 10.97266-22.9668c5.85435-12.25392 12.41995-23.61594 19.52343-34.33203l131.34375 185.33203c.0479-.15049.0873-.30302.13672-.45312.27215-.827.56686-1.64891.88282-2.46289.31595-.81399.65407-1.62103 1.01171-2.41993.35765-.79889.7356-1.58936 1.13282-2.37109.39721-.78173.81338-1.55391 1.24804-2.31641.43467-.76249.88743-1.51467 1.35743-2.25585.46999-.74119.95773-1.47167 1.46093-2.18946.50321-.71779 1.02234-1.42291 1.55664-2.11523.5343-.69233 1.08322-1.37233 1.64649-2.03711s1.14034-1.31406 1.73047-1.94922c.59012-.63516 1.19373-1.25591 1.80859-1.85938.61486-.60346 1.24144-1.19007 1.87891-1.75976.63747-.5697 1.28539-1.1224 1.94336-1.65625.78157-.63414 1.5827-1.24954 2.40234-1.8457.81964-.59617 1.65724-1.17313 2.51172-1.73047s1.72718-1.09366 2.61328-1.61133c.8861-.51768 1.78668-1.01697 2.70117-1.49414s1.8416-.93332 2.78125-1.36914c.93966-.43583 1.89192-.85051 2.85352-1.24414.9616-.39364 1.93374-.76658 2.91406-1.11719s1.96903-.67959 2.96484-.98633c.99582-.30673 1.99778-.59149 3.00586-.85351 1.00809-.26203 2.02193-.50033 3.03907-.7168 1.01713-.21647 2.03758-.41001 3.06054-.58008s2.04866-.31662 3.07422-.43945c1.02556-.12284 2.05124-.22212 3.07617-.29688 1.02494-.0748 2.04923-.12455 3.07031-.15039 1.02109-.0258 2.03873-.0278 3.05274-.004 1.01401.0239 2.02363.0739 3.02734.14843.87439.0649 1.77265.15814 2.68946.28125.9168.12311 1.85251.27571 2.80078.45313.94826.17741 1.91013.37958 2.8789.60742s1.94356.48149 2.92188.75586c.97831.27437 1.95864.56969 2.93555.88672.9769.31702 1.95147.65592 2.91601 1.01172.96454.35579 1.92012.72846 2.86133 1.11914.94121.39067 1.86846.79903 2.77539 1.2207s1.79261.85785 2.6543 1.30664 1.69841.90884 2.5039 1.38086c.8055.47202 1.58002.9559 2.31836 1.44727.73834.49136 1.44133.99122 2.10156 1.49804.66024.50683 1.27845 1.02066 1.84961 1.53907.57117.5184 1.09527 1.04031 1.56641 1.5664s.88984 1.05604 1.25 1.58594.66022 1.06002.89844 1.58984c-.167-.32804-.33741-.775-.50781-1.32031-.17041-.54531-.34056-1.188-.5-1.9043-.15945-.7163-.30924-1.50664-.44336-2.34765-.13413-.84102-.25126-1.73289-.34571-2.65235-.0944-.91945-.16664-1.86673-.20703-2.81836-.0404-.95162-.0495-1.90819-.0215-2.8457s.0943-1.8553.20508-2.73242c.1108-.87712.26665-1.71391.47461-2.48438.21624-.80119.4761-1.5895.77539-2.36523.29928-.77573.63684-1.53839 1.00976-2.28711s.78158-1.48294 1.21875-2.20312c.43717-.72019.90252-1.42708 1.39453-2.11719.49202-.69011 1.00941-1.36298 1.54688-2.02149.53747-.6585 1.09639-1.30237 1.66992-1.92773.57352-.62536 1.16153-1.23354 1.76172-1.82422.60018-.59068 1.21263-1.16233 1.83008-1.7168 1.09538-.98364 2.25105-1.95096 3.46093-2.85937.60494-.45421 1.22283-.8948 1.85352-1.31445s1.27517-.81877 1.92969-1.19336c.65451-.3746 1.31966-.72393 1.99609-1.04297s1.36412-.60835 2.06055-.86133c.69642-.25298 1.40073-.47006 2.11523-.64649.7145-.17642 1.43926-.31101 2.16992-.40039.35511-.0434.7306-.066 1.12305-.0684.39245-.002.8008.0152 1.22266.0488.8437.0672 1.73864.20048 2.65234.38086s1.84544.40754 2.76563.66016c.92018.25262 1.82823.53051 2.6914.81445 1.72634.56788 3.27538 1.15784 4.39258 1.60547s1.80273.75391 1.80273.75391-.0131-1.32551.0762-3.41407c.0446-1.04427.11481-2.27847.22461-3.63476.10979-1.35629.25934-2.83507.46289-4.36328s.46122-3.10597.78711-4.66602c.16294-.78002.34408-1.55664.54296-2.31836.19889-.76171.4159-1.50847.6543-2.23437.23841-.7259.4978-1.43095.7793-2.10352.28149-.67257.5859-1.31233.91406-1.91406s.6802-1.16435 1.05859-1.67773c.3784-.51339.78265-.9792 1.21485-1.38672.46847-.44173.95747-.85957 1.4668-1.25586.50932-.3963 1.03799-.7693 1.58398-1.1211s1.11098-.68198 1.68945-.99023 1.17057-.59569 1.77735-.86133c.60677-.26563 1.22652-.51041 1.85742-.73437.6309-.22397 1.27298-.42615 1.92383-.60938.65084-.18323 1.3119-.3468 1.97851-.49023.66661-.14344 1.33939-.26847 2.01758-.37305 1.35639-.20917 2.73173-.34099 4.10938-.40039.74527-.0321 1.48651.01 2.23046.0195l-229.53125-162.66972c11.40464-7.69196 23.42551-14.74149 36.22071-21.01172l22.61718-11.08399-50.36718-50.35937-11.23242 4.873047c-21.42737 9.296011-40.96759 20.713916-58.73633 34.001953l-30.1875-21.396484c.25371-.75061.55091-1.467472.77148-2.244141l3.64844-12.847656-43.384767-27.859375z" fill="#861313"/><path d="m74.25 46.996094c-17.441983.728999-27.534706 10.222476-27.253906 27.255859l17.791015 27.701167c3.986996-1.09169 8.425024-3.454261 12.824219-6.601558l38.226562 53.941408c-15.31618 18.74698-28.132663 39.99558-38.439452 63.75195l23.894532 23.89649c10.14749-21.23998 22.17019-40.34238 35.92578-57.47657l140.80078 198.67383c.27978-.34622.52923-.71967.81641-1.05859 1.12654-1.32956 2.30935-2.60166 3.53906-3.8086 1.22971-1.20693 2.50634-2.34832 3.82227-3.41601 1.56315-1.26828 3.2051-2.4615 4.91406-3.57617 1.70896-1.11468 3.48548-2.15113 5.31445-3.10547 1.82898-.95434 3.71157-1.82601 5.63477-2.61328s3.88727-1.49005 5.8789-2.10352 4.01066-1.13737 6.04493-1.57031c2.03426-.43294 4.08365-.77386 6.13476-1.01953 2.05111-.24568 4.10432-.39559 6.14648-.44727 2.04217-.0517 4.07265-.005 6.08008.14453 1.74878.12985 3.59371.37955 5.49024.73438s3.84415.81453 5.80078 1.36328 3.92249 1.18685 5.85156 1.89844c1.92908.71158 3.82286 1.49649 5.63672 2.33984s3.54721 1.74346 5.1582 2.6875 3.09946 1.93166 4.41992 2.94531c1.32047 1.01365 2.47374 2.05329 3.41602 3.10547.94228 1.05219 1.67199 2.11614 2.14844 3.17578-.33399-.65608-.68892-1.79201-1.00781-3.22461-.3189-1.4326-.60018-3.16108-.78907-5-.18888-1.83891-.28456-3.78904-.22851-5.66406.028-.93751.0943-1.8553.20508-2.73242.1108-.87712.26665-1.71391.47461-2.48438.43248-1.60238 1.03931-3.15489 1.78515-4.65234.74585-1.49745 1.62925-2.94009 2.61328-4.32031.98404-1.38023 2.06975-2.6985 3.2168-3.94922s2.3569-2.43209 3.5918-3.54102c1.09538-.98364 2.25105-1.95096 3.46093-2.85937s2.47417-1.75863 3.78321-2.50781c1.30903-.74919 2.66379-1.39834 4.05664-1.9043 1.39285-.50597 2.82383-.86813 4.28515-1.04688.71021-.0869 1.502-.0867 2.34571-.0195.8437.0672 1.73864.20048 2.65234.38086 1.8274.36076 3.7307.90673 5.45703 1.47461 3.45267 1.13576 6.19531 2.35938 6.19531 2.35938s-.0131-1.32551.0762-3.41407c.0892-2.08855.2804-4.94162.6875-7.99804.20355-1.52821.46122-3.10597.78711-4.66602s.72045-3.10093 1.19726-4.55273 1.03705-2.81412 1.69336-4.01758c.32816-.60173.6802-1.16435 1.05859-1.67773.2733-.37079.57586-.68512.87696-1.00196l-239.34571-169.625c17.91629-14.49718 37.65892-26.92068 59.0879-37.421873l-23.89846-23.894561c-24.48538 10.622689-46.29726 23.918897-65.46094 39.863284l-53.779297-38.113284c3.098697-4.340696 5.455427-8.762064 6.607417-12.81836l-27.701167-17.789062z" fill="#ff8066" stroke-width="36"/><path d="m164.14844 150.42578c-4.7187 4.41-9.2939 8.98223-13.71289 13.73242l169.43554 191.74414c.0827-.0102.16532-.0252.24805-.0351 1.02556-.12284 2.05124-.22212 3.07617-.29688 1.02494-.0748 2.04923-.12455 3.07031-.15039 1.02109-.0258 2.03873-.0278 3.05274-.004 1.01401.0239 2.02363.0739 3.02734.14843.87439.0649 1.77265.15814 2.68946.28125.9168.12311 1.85251.27571 2.80078.45313.94826.17741 1.91013.37958 2.8789.60742s1.94356.48149 2.92188.75586c.97831.27437 1.95864.56969 2.93555.88672.9769.31702 1.95147.65592 2.91601 1.01172.96454.35579 1.92012.72846 2.86133 1.11914.94121.39067 1.86846.79903 2.77539 1.2207s1.79261.85785 2.6543 1.30664 1.69841.90884 2.5039 1.38086c.8055.47202 1.58002.9559 2.31836 1.44727.73834.49136 1.44133.99122 2.10156 1.49804.66024.50683 1.27845 1.02066 1.84961 1.53907.57117.5184 1.09527 1.04031 1.56641 1.5664s.88984 1.05604 1.25 1.58594.66022 1.06002.89844 1.58984c-.167-.32804-.33741-.775-.50781-1.32031-.17041-.54531-.34056-1.188-.5-1.9043-.15945-.7163-.30924-1.50664-.44336-2.34765-.13413-.84102-.25126-1.73289-.34571-2.65235-.0944-.91945-.16664-1.86673-.20703-2.81836-.0404-.95162-.0495-1.90819-.0215-2.8457s.0943-1.8553.20508-2.73242c.1108-.87712.26665-1.71391.47461-2.48438.21624-.80119.4761-1.5895.77539-2.36523.29928-.77573.63684-1.53839 1.00976-2.28711s.78158-1.48294 1.21875-2.20312c.0355-.0585.0774-.1136.11328-.17188l-7.8867-20.52534-200.00195-176.73047z" fill="#861313"/></g><path d="m437.14258 286.89453c-13.23479 2.48818-26.89611 10.5477-30.38082 24.43761-1.85428 5.18027-.0916 13.5509-7.98342 9.53281-14.73065-.3744-26.87953 10.8311-34.59738 22.33138-3.84651 4.52224-2.27013 15.10316-9.96485 8.52176-33.90787-14.55351-78.50589 1.73374-92.67101 36.38945-4.72295 9.0123-7.73123 29.52013 8.67024 25.44422 7.4705-5.77504 5.05384-17.09767 11.04975-24.36975 10.89678-18.4032 34.23594-27.27464 54.89796-24.0224 11.44462 2.11546 22.637 7.44142 29.94319 16.60684 10.22175 5.29174 14.78117-7.94181 11.93926-13.758-2.13091-7.12638-.28618-14.98595 5.15125-20.13925 5.03106-5.52515 12.41416-11.50992 20.16069-7.55473 8.60302 6.0695 19.77219.33004 18.35268-10.26047 1.20838-7.2358 1.30766-16.30881 7.72296-20.99784 6.65326-4.72013 20.82432-3.84646 18.56499-15.51512-.99515-4.7068-6.2109-7.9002-10.85549-6.64651z" fill="#861313" stroke-linecap="round" stroke-linejoin="round"/></svg>