<svg height="500" viewBox="0 0 500 500" width="500" xmlns="http://www.w3.org/2000/svg" xmlns:xlink="http://www.w3.org/1999/xlink"><filter id="a" color-interpolation-filters="sRGB" height="1.008916" width="1.004521" x="-.002261" y="-.004458"><feGaussianBlur stdDeviation=".42523181"/></filter><g transform="translate(.000015)"><circle cx="-249.99998" cy="250" fill="#e51a1a" r="250" transform="scale(-1 1)"/><path d="m181.33938 83.856939c97.52275-31.84694 203.27597 26.159281 217.12696 131.568651 10.04116 85.89723-45.79566 162.6049-131.11288 174.6444-76.26503 6.65-147.16573-45.4981-149.44603-126.3231.16679-50.89801 30.03241-87.97493 76.60677-108.40662 44.00125-16.48183 90.46555-3.00917 112.28155 39.63622 17.95322 40.0953 3.57775 87.31302-40.4313 103.80676-21.98685 8.23292-51.6578-5.55285-56.72562-31.5612 24.48155 21.7253 69.7211 11.74379 80.1808-21.06198 5.24648-24.88185-11.48198-41.52298-24.36368-55.64156-23.21161-15.22125-63.26956-13.16738-85.32502 12.05139-41.51846 46.43224-18.48961 112.52397 35.72777 131.08081 60.66482 17.11352 118.96473-29.63961 126.96137-92.39988 2.7637-54.83226-40.99398-106.19486-96.51046-114.27807-76.21988-10.3001-138.45939 50.84936-147.743191 124.09106-9.31956 73.21828 47.315731 138.67973 111.863041 158.33924 49.05305 9.49897 98.18701 2.07129 139.64056-27.40671 82.90715-58.95602 100.11901-177.97214 43.55644-260.39974-52.71171-79.885311-158.575-103.987181-249.15842-67.061741-86.705021 39.45169-149.0660905 134.549061-117.102931 229.167621 15.77888-74.65377 50.93986-153.5943 123.407351-187.514491 9.28724-4.60517 19.44718-8.7232 30.56692-12.33106zm-160.722321 286.075591c-52.57825-113.8254-.38403-260.89182 113.777041-317.643861 10.84604-5.32012 22.21219-9.7712 34.03518-13.36069 115.76394-28.75816 246.03978 34.00351 263.68455 158.897471 10.04526 85.91695-27.72044 168.80365-107.97396 206.83173-102.24035 46.26108-224.798841-11.43986-234.690511-131.24969-7.33455-123.78718 127.307171-194.136761 222.718561-137.24102-42.54074-27.89653-94.21826-33.44528-140.80825-12.98978-71.17376 32.62266-105.080851 118.0397-80.762351 190.63139 30.697281 88.13423 123.572931 132.04164 212.817841 105.59803 82.80488-25.06359 132.16266-100.33164 140.19255-180.04986 12.12434-145.020371-132.23823-245.3588802-265.59709-221.973611 7.92036-4.10499 20.5989-8.4277792 35.61563-11.7452592 60.06317-13.23825 124.63426-3.45807 179.45368 32.4903392 109.65077 71.904621 141.09454 217.803071 65.16008 333.599141-143.00482 218.07486-377.311781 117.06797-437.622951-1.79433" fill="#b21a1a"/></g><g fill="#ff8066" stroke-width=".9"><path d="m374.58594 296.93359c-22.60708-12.10454-52.03226-28.77393-54.49805-54.29882-2.62879-27.21223 24.98315-50.38943 45.94531-67.93946 37.46353-31.36538 74.1071-40.86518 133.9668-59.48633v-115.0761675h-49.38086c-26.9329 56.3242535-44.50411 92.4547975-79.40039 128.9140675-19.85849 20.74795-42.62656 46.95559-71.3125 48.35351-10.60411.51676-21.46717-6.83803-27.97461-15.22656-8.0247-10.34438-9.27248-24.99435-9.61133-38.08203-1.09017-42.10689 6.64705-70.306838 24.54102-123.95703438h-36.92969c2.47747 39.98715038 2.77565 64.82967638-1.91211 96.74023438-1.61478 10.99218-3.15864 22.62605-8.95312 32.10547-4.46987 7.31244-10.50234 15.69146-18.89258 17.43945-8.46721 1.76402-17.56006-3.37035-24.50781-8.52148-9.34367-6.9275-15.00214-17.97993-20.54297-28.20703-18.61301-34.355351-27.09996-60.006157-41.6836-109.5585975h-44.621091-.002c31.267471 39.8465805 50.760851 68.8283485 70.253951 106.6835975 7.46762 14.50198 14.73927 29.59414 17.63672 45.64648 2.03224 11.25893 5.30807 24.40308-.39648 34.32031-5.096 8.85928-16.16711 14.58528-26.32422 15.72071-13.70968 1.53256-27.15231-6.3868-39.33985-12.84961-41.228693-21.86274-64.039727-42.3701-110.64648-85.77539v92.18554c18.197302.49677 34.203707 1.44326 51.029297 4.32617 21.608482 3.70242 44.378385 6.11989 63.646483 16.57813 23.09634 12.53611 49.90953 28.21815 58.23242 53.14453 3.66576 10.97865-.74958 24.04172-6.43945 34.1211-7.12934 12.62935-19.75269 21.96434-32.43555 28.99804-40.692521 22.56737-72.174822 30.24791-134.0332 39.00781v127.85743h23.318359c32.081258-50.80069 52.576736-80.45961 88.751951-111.07813 20.4496-17.30843 43.56833-36.36269 70.21875-39.10547 9.98329-1.02745 21.15788 2.40496 28.73633 8.98438 8.69049 7.54487 13.11709 19.79891 14.82813 31.17968 5.51054 36.65268-.64679 60.07497-16.11719 110.01954h31.84179c-1.20278-27.61569.46092-47.97993 6.3086-71.01368 2.37946-9.37257 5.34495-19.18571 11.52734-26.62109 5.18303-6.23347 12.10239-12.88349 20.17969-13.57422 8.15051-.697 16.03579 4.89244 22.39258 10.04102 7.93555 6.42727 12.99364 15.87852 18.06836 24.74023 13.80063 24.09928 22.35295 45.55651 33.16015 76.42969h39.66797c-33.15404-43.91157-52.02131-72.79058-68.93164-113.78516-5.81025-14.0854-10.68135-29.18736-10.76758-44.42383-.0336-5.93199.92402-12.26716 3.9961-17.34179 3.04917-5.03679 7.82956-9.62282 13.41211-11.49414 9.48532-3.17956 20.31135-.81108 29.95508 1.84961 14.15532 3.90543 26.88527 12.12585 39.14062 20.21484 36.18522 23.88361 59.92916 44.584 100.31055 82.80078v-99.68359c-5.30584-.21139-43.27118-5.36363-64.75391-9.03125-20.3348-3.47164-42.47199-2.53403-60.6582-12.27149zm-140.20899-104.4375c26.25788 10.1059 48.60553 36.59111 55.0586 63.97657 6.72273 28.52987 6.74114 77.64335-21.56641 85.24804-28.39218 7.62742-53.93409-34.76148-61.56641-63.15234-7.6089-28.30378-.41462-65.82624 21.53516-85.24805 1.64532-1.45583 4.48874-1.61333 6.53906-.82422z" opacity=".9"/><path d="m407.38463 427.00354c-12.04911 0-21.60172 9.5505-21.60172 21.60067 0 12.05228 9.55262 21.63555 21.60172 21.63555 12.04912 0 21.60172-9.58644 21.60172-21.63555 0-12.047-9.55472-21.59962-21.60172-21.59962z"/><path d="m24.080245 265.2918c-13.07434 0-23.45349 10.37914-23.45349 23.45031 0 13.07434 10.37915 23.45349 23.45349 23.45349 13.07117 0 23.44926-10.37915 23.44926-23.45349 0-13.07117-10.37915-23.44926-23.45032-23.44926z"/><path d="m439.48811 247.38936c-20.23194 0-36.39889 16.19971-36.39889 36.4327 0 20.22983 16.16695 36.43059 36.39889 36.43059s36.4327-16.1997 36.4327-36.4327c0-20.22983-16.20077-36.43059-36.4327-36.43059z"/><path d="m77.156575 209.73483c-10.34427 0-18.53026 8.18705-18.53026 18.53026 0 10.34427 8.18599 18.49644 18.52814 18.49644 10.34533 0 18.53132-8.15217 18.53132-18.49644 0-10.34321-8.18705-18.52815-18.53026-18.52815z"/></g><path d="m409.71525 131.86521c-.55318-14.19062-1.35688-28.09524-1.78515-41.716792 2.14578 1.983866 4.52017 3.627768 7.09375 4.691406 6.5379 2.702054 12.71562 2.664517 18.3125 1.349609-1.42858 4.347217-2.39589 9.146027-2.4668 14.527347-.13772 10.45071 6.77931 24.62069 18.88672 30.24609 9.36373 4.6605 19.61835 4.38761 28.19726.57031 10.83472-4.82102 19.25981-13.29045 22.46691-23.83203 2.62726-8.63565 2.37456-15.79699 1.2715-20.261717-1.10306-4.46472-1.64064-7.023767-1.64063-7.023437-.10299-4.628622 1.07958-42.288774 6.36123-58.222657 5.18177-15.632597 17.59663-41.5396158 30.00389-62.351562 4.67763-7.846264 8.54266-13.925843 12.2832-19.841797l-594.353927.00002c1.09657 9.020306 2.3509 18.814109 3.888672 29.527344 5.381069 37.488429 13.09211 81.638971 24.962891 112.535156.492306 1.281332.76542 8.28533 3.886718 18.17969 3.1212986 9.89435 14.920577 22.80088 30.287109 25.05077 6.331751.72635 13.033958-.0717 18.830079-2.8379-1.059988 4.50498-2.507243 8.2635-3.558594 12.21875-6.90845 29.63594 24.137235 56.49239 52.257813 43.10156 18.637719-8.15312 25.599649-28.01787 21.117189-45.63867 9.65509 2.28441 21.43626.8797 30.22265-6.9375.82388 29.74979-2.61211 59.91627-9.23046 89.36328-1.86944 5.81196-4.43471 13.41326-4.84766 22.86914-.42781 9.79632 3.0112 23.01399 13.0332 31.63672 22.94114 21.18767 61.25147 4.13462 62.22961-26.93066.15171-27.67681-8.50826-49.96782-9.26649-68.93262-.55319-14.18996-1.3569-28.09392-1.78515-41.71485 2.1457 1.98378 4.52025 3.62585 7.09375 4.68946 6.53789 2.70204 12.71562 2.66451 18.3125 1.34961-1.42858 4.3472-2.39589 9.14605-2.4668 14.52734-.13772 10.45072 6.77932 24.62068 18.88672 30.24609 9.36374 4.66049 19.61835 4.38759 28.19726.57032 10.83472-4.82104 17.5683-13.29045 20.7754-23.83203 2.62726-8.63567.90384-15.79701-.19922-20.26172-1.75259-4.28135-1.47192-8.22498-.99414-12.18946 9.162 4.22454 20.01537 4.8254 30.4707-.15039 18.64337-8.15156 25.60896-28.02114 21.125-45.644528 9.65546 2.284506 21.43613.880514 30.22266-6.9375.82417 29.754288-2.61421 59.925648-9.23438 89.376958-1.86914 5.81064-4.43109 13.40605-4.84375 22.85546-.42781 9.79632 3.01121 23.01594 13.0332 31.63868 22.94114 21.18765 61.25147 4.13462 62.22861-26.93164.15068-27.67779-8.50731-49.96682-9.26554-68.93165z" fill="#861313" stroke-linecap="round" stroke-linejoin="round"/><path d="m-27.533203-50c4.938132 40.0577281 14.082201 100.598376 27.533203 135.607422 4.475918 11.649512.29422406 28.990658 19.697266 31.837888 19.241271 2.19402 15.599059-19.631752 12.322265-31.367185-.463008-13.608674 23.083515-14.877644 24.175781-1.21875 4.736132 21.382275.978649 43.487925-6.023437 63.902345-3.449184 14.79633 13.088741 29.6034 27.197266 22.69336 11.984786-5.00947 15.175009-20.77449 8.720703-31.32617-5.23985-11.765-8.010892-25.92944-3.9375-38.40625 8.516112-9.798033 19.112806-1.42696 17.667968 10.82226-1.452076 12.30444 19.292098 17.47467 26.613278 6.89844 6.76782-7.551-1.96766-24.815014 14.42969-21.50586 13.56407 4.7138 11.37846 23.53742 13.375 35.1875 1.04597 32.14874-2.67511 64.47794-9.75195 95.81836-3.75823 11.80851-8.70317 27.34942 2.66015 36.7168 11.40241 10.88917 31.79789 1.5199 32.28321-13.85547.12273-22.95653-8.33931-44.95613-9.25586-67.88086-1.11012-28.48925-3.47631-57.1282-1.08594-85.603518-.75309-12.635234 14.74975-29.50829 26.38086-18.544921 8.35264 12.828252-2.21731 26.982879-1.23828 39.923829 1.63449 21.60542 35.93724 6.39014 23.61328-10.7207-8.75597-12.123149 12.091-34.754307 16.38477-13.619145 5.04291 15.848425 6.3397 34.707725-1.48633 49.162105-5.85295 10.80884-9.70936 26.04849 3.23828 31.61133 4.21174 2.18342 9.10773 2.07029 13.09765.29492 5.07464-2.258 9.2564-7.31309 10.87305-12.62695 2.11529-6.95279-2.45161-14.37889-2.61328-21.64453-.12928-5.80996 8.5975-28.92953 15.4375-50.3125-.18927 2.031657-.48717 3.946324-1.04687 5.578125-3.44919 14.796345 13.08875 29.603415 27.19726 22.693355 11.98479-5.00945 15.17305-20.774488 8.71875-31.326168-5.23984-11.764996-8.00893-25.929439-3.93555-38.40625 8.51613-9.798029 19.11085-1.42694 17.66602 10.822266-1.45208 12.304439 19.2921 17.474666 26.61328 6.898438 6.7678-7.55101-1.96766-24.81306 14.42969-21.503907 13.56407 4.713803 11.37846 23.535471 13.375 35.185547 1.04597 32.148744-2.67511 64.477944-9.75195 95.818364-3.75823 11.80849-8.70122 27.34941 2.6621 36.71679 11.40241 10.88917 31.79594 1.52186 32.28126-13.85351.1227-22.95653-8.33933-44.95615-9.25586-67.88086-1.11012-28.48925-3.47436-57.128208-1.08399-85.603518-.75309-12.635236 14.74779-29.510244 26.37891-18.546875 8.35264 12.828252-2.21535 26.982883-1.23633 39.923828 1.6345 21.605416 35.93724 6.390139 23.61328-10.720703-8.75597-12.12314 12.08906-34.754302 16.38281-13.619141 5.04293 15.848431 6.33971 34.707718-1.48632 49.16211-5.85295 10.808839-9.70936 26.048469 3.23828 31.611329 4.21174 2.18342 9.10967 2.07029 13.09961.29492 5.07462-2.25802 9.25639-7.31114 10.87304-12.625 2.11529-6.95279-2.45356-14.380838-2.61523-21.646484-.1972-8.862412 2.1555-43.748306 8.96289-64.285156 7.43015-22.4155674 25.68197-53.847054 39.67578-76.53125z" fill="#ff8066" stroke-linecap="round" stroke-linejoin="round" stroke-width="36"/><path d="m14.270884 81.343131c11.71873 8.222694 1.252929 20.751969 5.706794 27.267659.620883 1.31484 5.266089 4.16545 4.443826 4.25193-15.584626-1.43368-9.745622-11.82474-9.348434-22.089715-.915988-5.090371-1.960281-9.308821-.802186-9.429874zm46.558069 5.118818c8.42909 20.701781 8.17471 39.875041.45409 60.212531-4.24691 9.07509 7.07185 19.68092 10.61587 21.94355-15.45968-1.68693-20.36707-17.20295-14.46503-29.21901 5.33527-17.11927 6.95972-30.23541 3.39451-52.936514zm44.626247 15.798281c-.48533 8.0308 4.99274 12.77251 16.92959 16.71316-9.75677 6.22113-23.989174-5.90762-16.92959-16.71316zm93.49658 7.37197c.90595-.005 1.98595 1.60662 2.81324 5.61308 1.78177 8.63439 9.31886 5.24713 14.73055.3838.23764 9.85496-17.51088 14.17884-19.05277 1.9469-.76536-4.47953.1841-7.93708 1.50898-7.94378zm43.61542 8.11671c.0275-.003.0553.00003.082.007.43848 3.45085.76649 7.35412.6934 10.83119 1.83533 13.43858-8.89935 24.94924-4.37018 37.39261 2.28272 6.27413 2.06404 10.43903-3.95236 5.63874-7.49637-6.96865-1.17817-20.05021 2.56165-29.03603 3.6249-5.3626 3.31194-24.68928 4.98437-24.83433zm-83.98024 33.41515c2.37196 7.41939 1.0917 18.58585 1.76057 27.2102-.59467 25.05856-5.93551 48.7359-8.02745 73.18976-.32913 3.84359 7.39708 15.93105-.7107 11.55194-9.52638-5.32969-5.77763-17.6297-3.98136-25.91766 7.64085-28.04139 9.93305-57.10141 10.95838-86.0348zm123.79746-116.041706c8.42909 20.701772 8.17471 39.875035.45409 60.212525-4.24691 9.075101 7.07185 19.680921 10.61587 21.943551-15.45968-1.68693-20.36707-17.20294-14.46503-29.219011 5.33526-17.11927 6.95972-30.235406 3.39451-52.936508zm44.62624 15.798287c-.48533 8.030788 4.99274 12.772495 16.92959 16.713148-9.75677 6.22113-23.98917-5.907623-16.92959-16.713148zm93.49658 7.37196c.90595-.0046 1.98595 1.606614 2.81324 5.613083 1.78177 8.634385 9.31886 5.247125 14.73055.383795.23764 9.85496-17.51088 14.17884-19.05277 1.9469-.76536-4.479532.1841-7.937076 1.50898-7.943778zm43.61542 8.116708c.0275-.003.0553.00003.082.007.43848 3.45085.76649 7.35412.6934 10.8312 1.83533 13.43857-8.89935 24.949231-4.37018 37.392611 2.28272 6.27413 2.06404 10.43902-3.95236 5.63873-7.49637-6.96864-1.17817-20.05021 2.56164-29.036031 3.62491-5.3626 3.31195-24.68928 4.98438-24.83432zm-83.98025 33.41515c2.37197 7.419391 1.09171 18.585851 1.76058 27.210201-.59467 25.05856-5.93552 48.7359-8.02746 73.18976-.32912 3.84359 7.39709 15.93105-.71069 11.55194-9.52638-5.32969-5.77764-17.6297-3.98137-25.91766 7.64086-28.04139 9.93306-57.10141 10.95839-86.034801z" fill="#fff" filter="url(#a)" opacity=".75" stroke-width=".900002"/><path d="m302.68759 128.27734c-17.87016-1.25205-34.40808-16.05911-30.95889-30.855465 7.00209-20.41444 17.80051-59.84925-2.76466-61.957032-19.19907-1.967767-7.91141 37.603934-14.51278 56.992188-7.15983 30.510079 23.87949 57.364239 48.23633 35.820309z" fill="#861313" stroke-linecap="round" stroke-linejoin="round"/><path d="m143.08513 420.2164c-15.79913 0-28.40525 12.60401-28.40525 28.40525 0 15.80125 12.60823 28.40525 28.4063 28.40525 15.79808 0 28.40525-12.60717 28.40525-28.40525 0-15.79807-12.60717-28.40525-28.40525-28.40525z" fill="#ff8066" stroke-width=".9"/></svg>