<svg height="500" viewBox="0 0 500 500" width="500" xmlns="http://www.w3.org/2000/svg" xmlns:xlink="http://www.w3.org/1999/xlink"><radialGradient id="a" cx="1362.7291" cy="216.11429" gradientTransform="matrix(1.0000001 -.0000059 .0000001 1.0000003 -112.72927 33.893757)" gradientUnits="userSpaceOnUse" r="250"><stop offset="0" stop-color="#ff851a"/><stop offset=".42441937" stop-color="#f87000"/><stop offset=".86367416" stop-color="#f26900"/><stop offset="1" stop-color="#e55f00"/></radialGradient><g transform="translate(-1000)"><path d="m1500 250a250 250 0 0 1 -250 250 250 250 0 0 1 -250-250 250 250 0 0 1 250-250 250 250 0 0 1 250 250z" fill="url(#a)" stroke-linecap="round" stroke-linejoin="round" stroke-width="1.002"/><path d="m1309.2298 33.82789c128.5196 30.706851 207.8974 167.48127 169.5927 291.56949-31.3771 95.69524-112.8693 162.03793-212.5543 174.60263 153.1796-8.09118 266.0956-163.0043 218.7012-309.92978-36.4562-114.666588-154.6038-191.5214848-270.6514-169.822657-18.8526 4.215647-38.4387 10.498641-55.8829 18.694487-112.5353 47.459213-168.47522 196.206-99.9632 307.85319 57.6978 93.63045 168.5136 141.8489 267.9993 100.77239-134.92 68.97589-303.283-51.46877-311.488-201.30723-4.4167-117.68321 76.8182-219.674136 190.654-246.26040176-89.0147 9.18391126-152.6601 79.39239576-187.7408 157.21169176-38.45522 102.70317 5.2337 231.75078 109.038 294.08388 114.5107 66.1048 260.3537 29.37245 323.6836-83.60152 42.2104-77.69758 34.3514-177.62383-23.1776-249.88923-57.5404-72.257811-157.5429-102.460489-246.4118-71.877168-81.7429 30.682061-131.1298 101.133078-134.0478 190.176958.6692 92.68536 61.7912 168.55972 147.5399 198.52472 128.5549 37.82014 266.7725-70.33038 233.6823-209.88949-14.7104-64.39775-57.8855-122.14991-125.7378-141.121386-71.391-15.467036-138.9716 1.205-181.2869 64.641366-18.8995 29.2286-28.9384 85.21395-26.105 97.65297m0 0c13.5324-50.18833 30.6277-97.66354 72.2125-128.94941 53.182-38.308183 124.4576-37.093813 181.7444-.48035 50.1457 36.48017 75.4845 90.37713 72.3557 150.91678-6.6674 64.04407-38.4038 109.83277-91.6401 141.00844-63.9019 34.56125-135.3795 4.83213-189.1258-35.28385-78.8706-65.48566-79.7477-186.67235-8.9744-256.76104 63.7369-55.941605 167.0207-64.891564 238.7167-6.65053 78.8163 58.35315 90.3045 169.04089 40.972 246.62443-35.2274 56.41892-88.4571 87.60135-152.5581 93.63158-81.9488 2.18264-160.666-41.91503-196.8695-120.9383-36.2055-79.02511-22.5771-164.33167 26.8727-227.66064 49.4316-63.30896 138.3491-86.746364 220.4504-67.54202" fill="#c50"/></g><path d="m205.63672 0c-68.85383 7.1038527-122.451688 50.773684-159.468751 106.18164a250 250 0 0 0 -25.666016 45.56836c-.858099 1.82411-1.779069 3.62769-2.605469 5.46094-1.685698 4.5021-3.157398 9.0705-4.529296 13.66601a250 250 0 0 0 -11.6621099 51.73828c.0835305.10833.1481329.22199.2324219.33008 10.460188 13.41481 25.679123 29.51983 48.867188 31.97657 15.176188 1.60789 26.23045-4.8953 34.451171-10.875 9.618295 9.66777 20.724231 23.6805 38.550781 25.38867 0 0 17.28384 2.07407 25.9707 2.48828 58.14076 2.77231 116.76191 6.31088 174.6211-.04102 12.10434-1.32884 24.56112-2.91739 35.66406-7.91797 6.54556-2.948 12.20684-9.52654 17.42773-12.65039 7.07671-4.23423 13.0119-9.61553 17.9336-15.54492 8.6516 5.26189 19.63155 11.08939 34.05859 11.23438 17.96345.18052 33.2049-7.61418 45.08985-16.48243 7.97542-5.95104 15.46239-12.96447 22.09375-20.82617a250 250 0 0 0 -246.66602-209.69531 250 250 0 0 0 -119.70898 31.25c22.77517-14.173791 48.11263-24.8897292 75.3457-31.25z" fill="#994100"/><path d="m205.63672 0c-68.85383 7.1038527-122.451688 50.773684-159.468751 106.18164a250 250 0 0 0 -25.666016 45.56836c-.858099 1.82411-1.779069 3.62769-2.605469 5.46094-1.685698 4.5021-3.157398 9.0705-4.529296 13.66601a250 250 0 0 0 -6.6562505 23.60352c2.3631941 6.25351 5.3615345 12.18925 9.4218745 17.39648 9.096379 11.66577 21.857652 23.58596 36.56836 25.14453 9.560113 1.01288 19.023538-5.16076 26.662109-10.99804 2.878781-2.19993 6.638672-8.60742 6.638672-8.60742s4.064113 6.07784 6.666016 8.60742c10.520631 10.22821 23.870441 23.00984 35.548831 25.96094 0 0 41.18587-10.0816 61.98632-8.54688 20.70984 1.52804 39.11849 19.3816 59.79688 17.47461 15.9573-1.4716 26.89896-20.82633 42.90039-21.69531 12.46256-.6768 22.56732 13.36376 35.04688 13.17968 14.51786-.21415 35.90394-13.89852 40.30078-16.52929 6.7058-4.01232 12.44918-9.83807 16.86523-16.28516 2.17272-3.172 4.47266-10.63086 4.47266-10.63086s5.46457 5.49479 8.74609 7.48242c9.62497 5.82991 20.07774 12.45724 31.33008 12.57032 12.16711.12227 24.39247-5.63343 34.14453-12.91016 10.8169-8.07128 20.59691-18.40794 27.80274-30.08398a250 250 0 0 0 -241.60938-186.00977 250 250 0 0 0 -119.70898 31.25c22.77517-14.173791 48.11263-24.8897292 75.3457-31.25z" fill="#ffa348" stroke-width="36"/><path d="m176.48242 21.826172-17.90039 127.732418-109.656249-33.50195 30.902344 43.20508c29.090985 40.67515 45.432365 84.07783 54.056645 131.07031 5.10343 27.80793 5.08647 57.31758-2.24415 83.31641-8.28915 29.39841-22.28872 58.51195-42.923823 75.90039-8.89829 7.49826-33.040053 17.3919-53.794922 23.42773s-38.2480469 9.33399-38.2480469 9.33399l3.3261719 17.68945h500l-62.58008-17.54107s-42.14468-10.51399-69.51953-33.04296c-10.95328-9.01434-17.02895-32.68714-21.69025-43.9549 0 0-13.53024-34.38074-16.18475-43.76971-1.15385-4.08114-6.21211-30.42113-6.21211-30.42113-2.48163-12.87816-2.63352-35.22218.58522-59.38745 2.57615-19.34096 13.35445-41.27741 23.45312-63.65625 4.45627-9.87519 15.31443-22.48689 27.91992-34.98828 12.6055-12.50139 26.6343-24.87847 37.30469-38.53906l3.81445-4.88281v-32.078099l-82.58599 30.654299 19.85937-74.472658-114.03125 69.021488z" fill="#994100"/><path d="m312.9118 138.751 12.3462-46.2942-76.6683 46.4067 17.54865 49.3164-33.10155-42.7068-3.123-4.977-42.438-67.4172-12.6417 90.2106-11.65725 37.8567-5.65425-33.0903-63.054-19.2645c30.7764 43.0317 48.11834 89.23594 57.1212 138.2913 5.50485 29.99518 5.651 62.09903-2.62499 91.45073-8.8422 31.35983-23.73384 63.78524-48.64976 84.78097-27.226575 22.94284-100.31505 36.6856-100.31505 36.6856l433.37361-.002s-44.9392-10.37006-76.91232-36.68332c-18.0819-14.88105-23.42549-42.61236-31.68029-62.57796 0 0-8.79143-22.52949-12.07611-34.14735-1.78402-6.31004-4.12299-19.23525-4.12299-19.23525-5.2902-27.4563-5.45228-52.11727-2.025-77.8482 3.15525-23.68863 15.05883-46.89999 24.88845-68.6826 12.58332-27.88489 49.33905-54.02244 67.44615-77.20374v-.00028l-74.1105 27.5067-23.47065 18.9846z" fill="#ffa348" stroke-width="36"/><path d="m306.5566 269.50564s-8.84392 4.52555-13.65562 4.71294c-9.54863.37188-27.74438-7.21674-27.74438-7.21674s17.38073-19.79178 27.74438-27.78597c8.75869-6.75617 28.66696-16.71674 28.66696-16.71674s11.6261 15.18944 9.87019 23.50325c-2.35762 11.16278-24.88153 23.50326-24.88153 23.50326zm-102.0942-38.5047c14.1179 9.92715 33.1884 39.7404 33.1884 39.7404s-60.12365.89586-69.72542-21.4443c-3.93753-9.16135 4.03475-23.10134 13.29596-26.79791 7.66134-3.05799 16.49317 3.75696 23.24106 8.50181zm104.1195 116.3529s20.00608 2.12105 20.35671 9.61763c.29387 6.28273-16.23372 9.61762-16.23372 9.61762s-46.16575 16.59261-66.57993 7.53134c-24.87294-11.0404-47.6123-66.3178-47.6123-66.3178s32.80384 30.85374 53.50977 37.78502c17.88678 5.98757 56.55947 1.76619 56.55947 1.76619z" fill="#994100"/></svg>