<svg height="500" viewBox="0 0 500 500" width="500" xmlns="http://www.w3.org/2000/svg"><g transform="translate(-1000 -500)"><circle cx="1250" cy="750" fill="#8f29a3" r="250"/><path d="m1250.0521 500.09326-.061 248.75004-15.9199-248.2399a249.99917 250.18666 0 0 0 -31.6776 4.06945l45.0428 231.17052c-.102.0363-.2268.0547-.3789.0547l2.377 12.94521-.25-.53361-.5352-1.34279-3.3574-10.61339c-.1814.0698-.3456.12506-.5117.12506l-.1211.0782-83.1951-220.24831a249.99917 250.18666 0 0 0 -14.7401 6.13348l96.9 214.60543-.2187.11532 2.3047 4.43886 2.3437 5.21678.055.0488.416.7486.7461 1.26658v.0314l-.7461-1.29782-.4707-.79746-5.5273-9.21c-.1841.12151-.3808.23754-.5664.39678l-123.4077-200.53639a249.99917 250.18666 0 0 0 -34.1776 25.40763l164.5483 186.40079-.3984-.58052.832 1.02616v.0508l-.3262-.32448-.094-.12903v-.006-.002l-176.1809-175.46484a249.99917 250.18666 0 0 0 -21.0273 24.05115l186.5306 143.42536-.1425.18569 10.4687 8.26398-2.0957-1.07698-9.4082-5.66242c-.1395.18156-.2273.33335-.3066.47301l-208.0031-109.74966a249.99917 250.18666 0 0 0 -7 14.40723l214.5266 96.34337c-.074.17741-.1655.3791-.2578.59419l12.1758 4.73596-.037-.0253.5254.23653-.4863-.21109.3574.18179.2129.0802-.2129-.0508v-.0295l-12.8066-4.08117c-.056.14944-.1255.33501-.1758.5082l-224.9661-68.33223a249.99917 250.18666 0 0 0 -8.7656 41.69908l246.1613 30.77687h-1.2363l-246.3644-14.82161a249.99917 250.18666 0 0 0 -.4219 14.51082 249.99917 250.18666 0 0 0 .6113 17.47203l234.4934-16.18786h-.027l.3066-.0234-.2773.0234 12.9687-.73492-7.6699 1.8549-.3028.0508-4.789.9382.07.23845-228.2004 55.91086a249.99917 250.18666 0 0 0 4.2871 15.37279l224.173-70.26921c.093.36314.1859.69573.2793.95971l11.9648-4.46623-6.7285 3.52803-218.2141 100.03556a249.99917 250.18666 0 0 0 21.0155 36.99246l204.0072-139.70972-2.9414 2.38851-191.599 150.2058a249.99917 250.18666 0 0 0 21.2792 23.80097l164.7143-167.43742c.2793.26396.5666.50585.8359.80333l7.6309-8.62753v-.0314l.7578-.86587.1855-.23653.7754-.84633.02-.0645.057-.0272-.023.15832-.1035.11531.051-.18179-.068.18179-1.3203 1.73762.6133-1.0457-.1856.20916-.7578.89715-2.5996 3.67852-4.2753 5.57643.287.1818-133.9214 192.92518a249.99917 250.18666 0 0 0 13.3768 8.68037l121.3629-200.99764c.1115.0698.2562.1641.4043.23263l6.9082-11.76855-.2793.71929-100.1481 226.51466a249.99917 250.18666 0 0 0 40.1346 13.79743l59.6931-236.78211-1.5742 9.22563.2364.0566-42.7675 230.89101a249.99917 250.18666 0 0 0 31.6386 3.76263l12.9316-234.50119c.2415.0238.455.0234.6602.0234h.031v-12.36276l.055-.87175.3809 3.35211.6328 9.85892c.1939 0 .3385-.0234.5058-.0234l27.248 233.23258a249.99917 250.18666 0 0 0 15.7831-2.3455l-42.1484-231.0161c.254-.028.4739-.0916.707-.11531l-2.0644-10.71502-.055-.13878-.3203-1.79235.018.0295.3575 1.90182 74.3923 234.18055a249.99917 250.18666 0 0 0 39.205-16.19959l-111.1503-215.75097 4.1406 6.7179.2696-.18569 120.6715 201.44522a249.99917 250.18666 0 0 0 26.2108-18.10533l-145.5071-184.32505c.254-.18717.4204-.39029.6562-.60397l-8.457-9.554 3.3672 3.03156 5.8437 5.83834.2872-.30686 174.8256 156.82795a249.99917 250.18666 0 0 0 10.2715-12.18293l-184.478-145.35845c.1296-.15783.305-.33279.4082-.48083l-9.3632-7.21437 211.5852 126.78601a249.99917 250.18666 0 0 0 18.7245-38.19257l-229.6555-89.16613 11.0274 3.36579.012-.18569 223.9289 70.91228a249.99917 250.18666 0 0 0 7.6836-30.99187l-231.1887-41.80463c0-.16199.037-.30149.037-.44955l-7.3671-.90693-4.5508-.79941 12.0312.70755c.03-.32965.029-.62841.029-.96361l235.009 1.78454a249.99917 250.18666 0 0 0 .011-2.19892 249.99917 250.18666 0 0 0 -.3809-13.81303l-234.6691 13.37131v-.33226l-11.7754.81114-2.207.14075 2.1641-.14075h.043l242.6422-45.60435a249.99917 250.18666 0 0 0 -11.2772-41.04821l-231.0032 85.65376-.2598.0684 10.5078-4.79069c-.1716-.35894-.395-.80876-.6601-1.20402l208.1651-109.51534a249.99917 250.18666 0 0 0 -7.877-13.90491l-200.7337 122.63837-.2109-.32833-5.6211 3.9033-4.707 2.86542 9.6699-7.59747-.1446-.20719 183.392-147.45376a249.99917 250.18666 0 0 0 -29.3651-30.85701l-161.2514 182.96656-2.3184 2.37091 151.2905-195.53064a249.99917 250.18666 0 0 0 -26.4154-17.96062l-119.2496 202.94829-.094-.0664-7.0644 11.68841 5.539-12.45265c-.2748-.15364-.5655-.24794-.8711-.35962l83.404-220.18189a249.99917 250.18666 0 0 0 -15.121-5.19332l-69.2811 225.07807c-.1088-.0378-.2229-.0651-.3808-.11531l-1.8809 7.53882-1.1289 3.69807 2.1055-11.46558c-.2011-.0197-.4082-.0561-.6133-.0743l40.1268-232.08917a249.99917 250.18666 0 0 0 -42.4354-3.64138zm-1.9453 235.66215 1.0117 8.77021v.043l.8711 4.45646v.46128l.029-.16807.023.62741v.1036l-.057-.1036v-.43977l-.066.30686-.2383-.49451-.5625-4.74964zm-9.3652 5.00568 7.0859 6.37391-.025-.0197zm25.7675 6.02013-11.8261 2.9006h-.057zm-12.1504.11531-1.6269 2.78332-.3496.40069.1113-.44954-.092.20719-.02.18179-.051.10553v-.0253l.051-.0802v-.16221l.02-.0197v-.10556l.012-.0234.082-.12118v-.0234l.033-.0272.061-.1505v.0197l-.061.13096-.033.0508zm-6.5292.23849 3.3242 2.54682.3633.56682-.4493-.16807.2012.13878h-.022l-.2188-.13878h.037zm5.0331.24627-.2968 1.58908.2968-.84047-.3339 1.37603-.1016.1505.1387-.68606.2617-1.56758zm-.582.38505-.086 1.71808-.057.19351-.1172-.46715zm3.1445.7447-2.2754 1.58908h-.023l-.4121.27757-.2871.11728.2129-.27557.074-.0215.8867-.71342zm-4.0429.57856.1348.14075v.0469l-.084-.1251zm3.8633.31665h.029l-.1738.0802zm-3.5254.18179.1835.3577v.0392l-.1835-.35376zm.416.0938.02.26385v.0392l.039.0958.047.11728-.047.0215-.039-.1192.039-.0197-.039-.0605v-.0352l-.057-.26192zm2.2207.0644-.07.0272-1.0156.30686.1562-.0605zm-5.6387.0665 2.3692.40655.3457.21498.029.0606-.3124.0644zm2.1641.31271h.053l.094.0314zm.7265.19155h.02v.0196zm-.164.0606h.02l.074.0802zm.2148.1818h.024l-.024.0314zm-.3359.16808h.057l.2461.0352-.8125.32836zm-.3887.0352h.2168l-.9316.47886.2637-.0527-.025.0272-.2383.0253-2.0253.39287v.0234l-5.2422.93428 5.2422-.95774zm1.7774.0234.5078.043.7519.2228-.8457-.0841zm-.2188.16418.035.0178.1113.22088.3282.16611 1.4394 1.4034-1.3496-1.00858-.2344-.2971-.1855-.26385-.018-.0333-.092-.18766h-.035zm-1.0625.0802-.25.27364h-.029l-2.7812 1.26461 2.2988-1.41316zm1.5703.0997.1485.0253.031.0314zm.2207.0253 1.9356.60398-1.9063-.57074zm-1.1796.17201.031.1251.022-.0978-.022.13092v.006l.076.23066.125 1.89594-.2324-1.35256.031-.77402-.088.50819v-.0919l-.031-.18569.031.14272v-.26385zm.7226.0919.061.0664.088.14661-.037-.0314zm-1.1406.1818-.2442.52578-3.9492 12.85138 3.9219-12.85138h.027l.084-.28732.01-.0117zm-.088.10552-.065.11339.041-.0978zm1.4648.0802.033.0234.1152.18962-.092-.0919zm-.4375.21306.023.0295.029.22669zm-1.7304.26581v.0295l.051-.0295zm2.2929 1.35257 4.8828 10.7893-4.8828-10.73457z" fill="#aa40bf"/></g><path d="m349.41184 97.788316c-6.1085 46.868604-18.48013 105.589674-10.86274 112.739794 5.70531 5.35736 28.96288-37.94997 46.90395-65.5144-20.25855 51.086-39.74165 89.50653-29.91505 107.01239 7.76541 13.83525 27.47166 4.07602 54.10932-10.5203-25.49771 23.54587-39.19487 43.06543-34.71126 57.75453 8.89984 29.15618 50.58009 40.58116 125.06394 66.66652-38.24492-4.95969-90.89062-14.91222-99.73303-6.09523-5.93176 5.9185 31.13012 27.92123 52.33643 43.16816-32.03922-11.1897-72.4326-28.01292-79.98482-21.83814-5.45455 4.46262 19.83549 28.38074 33.57573 45.20064-26.28971-18.06811-50.35917-43.33716-75.54428-44.1844-37.02652-1.25925-58.23946 43.23996-76.52959 111.21876 4.80726-32.27008 19.28208-82.82366 8.88659-83.7935-14.74654-1.38739-50.37573 51.18763-77.02225 90.39686 18.60826-56.38813 35.51322-88.51019 24.19097-108.67927-10.21986-18.20618-48.5675-7.13578-65.17199 2.54061 19.56264-18.46135 61.02417-55.60607 61.02417-71.24513 0-22.76159-41.07381-48.3753-116.814712-69.93728 45.532022 7.17776 104.236522 20.34913 111.090622 11.17312 5.35736-7.17332-38.79831-32.09112-65.66906-49.76819 47.2994 20.28506 77.2741 33.99216 90.67413 26.17594 8.85344-5.16406 3.92799-26.01357-9.20362-52.07572 23.06647 26.36923 43.74698 44.93552 59.55836 42.68984 33.35922-4.73104 47.76554-48.8602 73.74929-133.085604z" fill="#eed9f2" opacity=".5" stroke-width=".900001"/><path d="m73.875 28.99609-.37695.0156c-11.83305.49457-23.54958 4.21096-32.14453 12.66797-8.59495 8.457-12.55536 20.74174-12.35547 32.86718l.0859 5.1211 27.70313 43.13867 12.7539-3.49219c.83828-.22953 1.60837-.54199 2.41407-.81054l21.57226 30.43945c-12.70728 17.294-23.66288 36.23998-32.64258 56.9375l-4.87304 11.23437 50.55077 50.55274 10.97266-22.9668c5.85436-12.25393 12.41994-23.61593 19.52343-34.33203l179.35551 253.07816 183.58594 36.55273-36.55273-183.58594-253.26368-179.49023c11.40465-7.69197 23.4255-14.74148 36.22071-21.01172l22.61718-11.08398-50.36718-50.35938-11.23243 4.87305c-21.42739 9.29602-40.96756 20.7139-58.73632 34.00195l-30.1875-21.39648c.25371-.75061.55091-1.46748.77148-2.24415l3.64844-12.84765-43.38476-27.85938z" fill="#6a1f7a"/><path d="m74.25015 46.99632c-17.442.729-27.5346 10.2213-27.2538 27.2547l17.7912 27.702c3.987-1.0917 8.424-3.4542 12.8232-6.6015l38.2266 53.9415c-15.3162 18.747-28.1322 39.996-38.439 63.7524l23.895 23.8968c10.1475-21.24 22.1706-40.3434 35.9262-57.4776l189.738 267.7275 150.1263 29.8917-29.8917-150.1272-267.795-189.7875c17.9163-14.4972 37.6578-26.919 59.0868-37.4202l-23.8977-23.895c-24.4854 10.6227-46.2978 23.9184-65.4615 39.8628l-53.7786-38.1141c3.0987-4.3407 5.4558-8.7615 6.6078-12.8178l-27.702-17.7885z" fill="#eed9f2"/><path d="m164.15115 150.42502 200.0016 176.7312 23.0805 60.075-60.075-23.0805-176.7231-199.9917c4.419-4.7502 8.9955-9.324 13.7142-13.734z" fill="#6a1f7a"/><path d="m349.41184 97.788316c-6.1085 46.868604-18.48013 105.589674-10.86274 112.739794 5.70531 5.35736 28.96288-37.94997 46.90395-65.5144-20.25855 51.086-39.74165 89.50653-29.91505 107.01239 7.76541 13.83525 27.47166 4.07602 54.10932-10.5203-25.49771 23.54587-39.19487 43.06543-34.71126 57.75453 8.89984 29.15618 50.58009 40.58116 125.06394 66.66652-38.24492-4.95969-90.89062-14.91222-99.73303-6.09523-5.93176 5.9185 31.13012 27.92123 52.33643 43.16816-32.03922-11.1897-72.4326-28.01292-79.98482-21.83814-5.45455 4.46262 19.83549 28.38074 33.57573 45.20064-26.28971-18.06811-50.35917-43.33716-75.54428-44.1844-37.02652-1.25925-58.23946 43.23996-76.52959 111.21876 4.80726-32.27008 19.28208-82.82366 8.88659-83.7935-14.74654-1.38739-50.37573 51.18763-77.02225 90.39686 18.60826-56.38813 35.51322-88.51019 24.19097-108.67927-10.21986-18.20618-48.5675-7.13578-65.17199 2.54061 19.56264-18.46135 61.02417-55.60607 61.02417-71.24513 0-22.76159-41.07381-48.3753-116.814712-69.93728 45.532022 7.17776 104.236522 20.34913 111.090622 11.17312 5.35736-7.17332-38.79831-32.09112-65.66906-49.76819 47.2994 20.28506 77.2741 33.99216 90.67413 26.17594 8.85344-5.16406 3.92799-26.01357-9.20362-52.07572 23.06647 26.36923 43.74698 44.93552 59.55836 42.68984 33.35922-4.73104 47.76554-48.8602 73.74929-133.085604z" fill="#eed9f2" opacity=".5" stroke-width=".900001"/><g transform="translate(0 176.80073)"><path d="m310.55078 177.30273c18.71483 10.30475 42.6943 3.34038 53.16992-15.74414l17.22461 30.16797 13.59961-36.49219c3.17448-8.51793 6.73482-13.34471 7.82813-14.23242 1.0933-.88771-1.09428-1.09409 3.09961.37305l29.88281 10.45312-6.29883-31.02343c-.39239-1.93306.35813-6.41798 3.33203-10.80078 2.97391-4.38281 7.83098-7.84332 10.625-8.68555l56.98633-17.177735-56.95508-17.279297c-27.92304-8.472254-57.59313-.65267-80.6289 16.246094 1.96296-28.502114-7.29302-57.756622-29.38282-76.8222658l-42.8789-20.7001932c5.44933 15.6441745 18.83302 36.719979 12.11914 52.776365-6.12981 12.513283-24.56404 15.146228-36.92774 19.855469 4.34627 4.165245 27.14189 19.791412 26.78125 22.082031-.16557 1.398781-2.33957 6.987687-7.83984 14.224609l-23.56445 31.003903 34.70214-1.57324c-10.52571 19.05669-3.58878 43.04396 15.12598 53.34863zm40.65039-73.82617c.77371 3.22464 3.18676 6.06832.45508 7.87696-2.22441-2.00816-4.82519-3.0129-7.35547-4.05079.10045-3.52751 5.26882-3.55808 6.90039-3.82617z" fill="#6a1f7a"/><path d="m321.27157 19.91208c4.39265 15.787477-4.39779 37.941565-19.93666 43.859414 13.92979 11.039645 10.08969 24.793656-2.71722 41.644216 10.56283-.58124 19.16084 6.59331 19.96683 19.68115-3.09622 1.84804-5.75686 4.51072-7.61541 7.88611-5.58667 10.14617-1.87524 22.9692 8.26341 28.55172 10.13913 5.5828 22.95912 1.86226 28.54578-8.28391 1.85856-3.37539 2.68595-7.04748 2.59277-10.65167 11.49045-6.3172 22.15086-2.88771 27.3076 6.34931 7.39142-19.83306 16.96064-30.43282 33.73799-24.56362-3.3079-16.29585 10.71295-35.570289 26.40259-40.299778-22.64867-6.871935-48.98964.341271-68.45251 16.204768 6.93737 16.71928-7.37707 31.77813-23.13619 30.27411-1.73905-2.3506-3.99057-4.37407-6.71155-5.8723-2.72099-1.49822-5.63459-2.31813-8.55055-2.53129-9.69747-12.51283-4.62622-32.661142 13.21139-35.73825 2.99884-24.929519-4.99043-51.045576-22.90789-66.510085z" fill="#eed9f2" stroke-width="36"/></g><path d="m349.41184 97.788316c-6.1085 46.868604-18.48013 105.589674-10.86274 112.739794 5.70531 5.35736 28.96288-37.94997 46.90395-65.5144-20.25855 51.086-39.74165 89.50653-29.91505 107.01239 7.76541 13.83525 27.47166 4.07602 54.10932-10.5203-25.49771 23.54587-39.19487 43.06543-34.71126 57.75453 8.89984 29.15618 50.58009 40.58116 125.06394 66.66652-38.24492-4.95969-90.89062-14.91222-99.73303-6.09523-5.93176 5.9185 31.13012 27.92123 52.33643 43.16816-32.03922-11.1897-72.4326-28.01292-79.98482-21.83814-5.45455 4.46262 19.83549 28.38074 33.57573 45.20064-26.28971-18.06811-50.35917-43.33716-75.54428-44.1844-37.02652-1.25925-58.23946 43.23996-76.52959 111.21876 4.80726-32.27008 19.28208-82.82366 8.88659-83.7935-14.74654-1.38739-50.37573 51.18763-77.02225 90.39686 18.60826-56.38813 35.51322-88.51019 24.19097-108.67927-10.21986-18.20618-48.5675-7.13578-65.17199 2.54061 19.56264-18.46135 61.02417-55.60607 61.02417-71.24513 0-22.76159-41.07381-48.3753-116.814712-69.93728 45.532022 7.17776 104.236522 20.34913 111.090622 11.17312 5.35736-7.17332-38.79831-32.09112-65.66906-49.76819 47.2994 20.28506 77.2741 33.99216 90.67413 26.17594 8.85344-5.16406 3.92799-26.01357-9.20362-52.07572 23.06647 26.36923 43.74698 44.93552 59.55836 42.68984 33.35922-4.73104 47.76554-48.8602 73.74929-133.085604z" fill="#aa40bf" opacity=".25" stroke-width=".900001"/></svg>