<svg height="500" viewBox="0 0 500 500" width="500" xmlns="http://www.w3.org/2000/svg"><g transform="translate(.000015)"><circle cx="-249.99998" cy="250" fill="#e51a1a" r="250" transform="scale(-1 1)"/><path d="m181.33938 83.856939c97.52275-31.84694 203.27597 26.159281 217.12696 131.568651 10.04116 85.89723-45.79566 162.6049-131.11288 174.6444-76.26503 6.65-147.16573-45.4981-149.44603-126.3231.16679-50.89801 30.03241-87.97493 76.60677-108.40662 44.00125-16.48183 90.46555-3.00917 112.28155 39.63622 17.95322 40.0953 3.57775 87.31302-40.4313 103.80676-21.98685 8.23292-51.6578-5.55285-56.72562-31.5612 24.48155 21.7253 69.7211 11.74379 80.1808-21.06198 5.24648-24.88185-11.48198-41.52298-24.36368-55.64156-23.21161-15.22125-63.26956-13.16738-85.32502 12.05139-41.51846 46.43224-18.48961 112.52397 35.72777 131.08081 60.66482 17.11352 118.96473-29.63961 126.96137-92.39988 2.7637-54.83226-40.99398-106.19486-96.51046-114.27807-76.21988-10.3001-138.45939 50.84936-147.743191 124.09106-9.31956 73.21828 47.315731 138.67973 111.863041 158.33924 49.05305 9.49897 98.18701 2.07129 139.64056-27.40671 82.90715-58.95602 100.11901-177.97214 43.55644-260.39974-52.71171-79.885311-158.575-103.987181-249.15842-67.061741-86.705021 39.45169-149.0660905 134.549061-117.102931 229.167621 15.77888-74.65377 50.93986-153.5943 123.407351-187.514491 9.28724-4.60517 19.44718-8.7232 30.56692-12.33106zm-160.722321 286.075591c-52.57825-113.8254-.38403-260.89182 113.777041-317.643861 10.84604-5.32012 22.21219-9.7712 34.03518-13.36069 115.76394-28.75816 246.03978 34.00351 263.68455 158.897471 10.04526 85.91695-27.72044 168.80365-107.97396 206.83173-102.24035 46.26108-224.798841-11.43986-234.690511-131.24969-7.33455-123.78718 127.307171-194.136761 222.718561-137.24102-42.54074-27.89653-94.21826-33.44528-140.80825-12.98978-71.17376 32.62266-105.080851 118.0397-80.762351 190.63139 30.697281 88.13423 123.572931 132.04164 212.817841 105.59803 82.80488-25.06359 132.16266-100.33164 140.19255-180.04986 12.12434-145.020371-132.23823-245.3588802-265.59709-221.973611 7.92036-4.10499 20.5989-8.4277792 35.61563-11.7452592 60.06317-13.23825 124.63426-3.45807 179.45368 32.4903392 109.65077 71.904621 141.09454 217.803071 65.16008 333.599141-143.00482 218.07486-377.311781 117.06797-437.622951-1.79433" fill="#b21a1a"/></g><g opacity=".85" stroke-linecap="round" stroke-linejoin="round"><path d="m242.9043 69.658203c-21.17019-.197608-56.53405-.894664-84.17578 18.244141-21.11618 14.620586-35.31632 39.681966-46.83985 61.628906-8.10659 15.43929-13.033669 26.8197-15.949217 33.80078l-86.7402342.50195a250 249.99998 0 0 0 -9.1992188 66.16602 250 249.99998 0 0 0 .71289062 9.97852c-1.51115008 25.03603.83050198 50.23121 7.28710938 74.58398l77.287109.60742c10.656711 26.84483 32.551091 43.65662 55.494141 52.95313 16.52499 4.53055 53.33468 17.42504 68.39258 11.60937 29.53455 18.63558 72.91664 29.3542 103.38086 30.41797 23.62674-4.69263 37.5964-15.31766 43.55273-26.4668 5.24377-9.81428 6.02384-18.71354 7.74219-29.43359 13.43345-11.03097 26.20878-19.45347 34.37891-33.59375 8.42187-17.00418 7.47618-30.56748-.23633-46.08008 12.47807-9.51015 23.13424-21.70727 27.3789-37.53125 4.22796-15.77403 1.4862-34.74086-9.52539-55.0664 9.89676-14.15506 10.98744-52.31619 6.99414-64.81055-3.05977-8.98362-9.87752-18.0526-18.8164-23.6875-9.22652-5.81708-20.70738-9.11122-37.36524-10.49024l-40.30664 6.31055c-16.87075-19.958128-38.4087-33.824509-64.53906-38.08203z" fill="#861313"/><path d="m242.73633 87.658203c-20.43328-.19073-53.13106.75855-73.76172 15.042967-30.58637 21.17763-59.35742 94.51367-59.35742 94.51367-1.58465 2.52374-4.35013 4.06285-7.33008 4.08008l-97.0097662.5625a250 249.99998 0 0 0 -5.1679688 46.61133l.0078125 3.16797a250 249.99998 0 0 0 .59570312 8.3418c-1.14067281 18.89814-.12549258 37.89595 3.20898438 56.55078l87.826172.68945c3.799709.0305 7.140786 2.52041 8.257813 6.15234 7.70375 25.0321 25.78709 39.25802 47.53516 48.07032 18.03705 7.3097 38.31092 10.37171 55.25781 11.57031-.89459-9.35933-.84568-20.18322 1.63672-30.50781 1.78628-7.42202 4.90684-14.73016 10.49609-20.55469 4.51653-4.70919 10.71334-8.15594 17.97656-9.58399-2.34006-8.47151-1.84043-17.00531.34571-24.60546 3.25112-11.30148 9.16785-21.41082 13.66211-30.83985.00066-.008.00095-.01534.00195-.02344.87523-8.60706.37594-19.49578 1.94922-29.93945.78713-5.22232 2.10693-10.46282 4.98047-15.30078 1.84629-3.10784 4.46747-5.9802 7.70117-8.20313l-11.38477-28.59374c-7.50721 28.36358-23.01437 47.76235-38.98437 60.23242-10.81062 8.43956-21.73313 13.87737-30.49219 17.41992-8.75809 3.54351-16.35322 5.57489-16.88281 5.76562l-5.90821-16.39453c3.6868-1.32931 8.58115-2.42241 16.25391-5.52734 7.6747-3.103 17.12736-7.83552 26.30273-14.99805 18.35172-14.32895 35.90356-37.8195 36.94532-80.43554.22839-9.4835 13.30217-11.82417 16.80859-3.00977l25.31641 63.57812c12.95608 6.084 22.06235 6.3029 30.27148 3.8418 7.48204-2.24326 14.70432-7.31947 22.2793-13.08203-3.09815-25.85311-10.62177-52.05275-20.39063-78.53711-12.48264-19.58613-29.29421-30.904229-52.76562-34.728515zm124.33789 33.193357-35.98242 5.25586c8.20817 23.28068 14.79815 46.7673 17.98828 70.51367 24.54026 4.08278 35.16222-.83354 52.98047-5.51562 5.4024-19.89013 7.50739-37.07143 3.74023-48.13281-2.03317-5.96879-5.32878-10.45297-11.37695-14.26563-5.90296-3.72166-14.7716-6.61281-27.34961-7.85547zm32.53516 88.88086c-14.71187 4.06875-29.32929 8.04911-53.69141 4.02344-8.8975 6.93212-18.60065 14.51882-31.11719 18.26953-12.11668 3.63355-26.54402 2.94211-42.78125-4.64062-1.43483.71644-2.27257 1.63344-3.1875 3.17187-1.15599 1.94603-2.13601 5.05176-2.73047 8.99609-.9004 5.97363-1.01812 13.67184-1.41992 21.55665 40.92466 11.17077 81.71971 18.03506 122.40039 19.15039 10.51823-8.01647 18.02687-17.15347 20.90235-27.875 2.97518-11.10204 1.56571-24.69711-8.375-42.65235zm-138.7793 68.54297c-4.32774 8.90428-8.74364 17.05885-10.82617 24.30078-2.64698 9.20248-2.60133 15.90301 4.97656 24.88281 29.65803 18.76319 63.61675 24.77817 99.17773 29.49414 12.56688-8.3321 23.51184-16.69665 28.48438-25.30273 5.13131-8.87815 6.10929-18.05986-3.5918-34.20898-39.51113-1.72916-78.92257-8.48804-118.21875-19.16602zm-19.30664 60.39453c-.74726.24561-1.52483.3887-2.31055.42578-5.77418.3195-8.98547 2.0851-11.70312 4.91797-2.7167 2.83094-4.83352 7.17368-6.13086 12.56641-2.23454 9.29155-1.75164 21.09063-.47657 30.19726 28.40039 13.73256 57.21371 24.48597 90.10157 25.57032 18.72639-3.92788 25.35968-9.90843 29.22656-17.14649 3.00134-5.61733 4.12728-13.08473 5.62891-21.73633-34.59281-4.75856-69.73534-11.5149-101.51368-32.05468-.66494-.42992-1.2681-.95011-1.79297-1.54297-.35242-.39695-.69233-.79548-1.02539-1.19727z" fill="#ff8066" stroke-width="36"/></g></svg>