<svg height="500.0004" viewBox="0 0 500 500.0004" width="500" xmlns="http://www.w3.org/2000/svg" xmlns:xlink="http://www.w3.org/1999/xlink"><filter id="a" color-interpolation-filters="sRGB" height="1.085143" width="1.110031" x="-.055015" y="-.042571"><feGaussianBlur stdDeviation="7.3298093"/></filter><g transform="translate(-500 -500)"><path d="m999.99997 750a249.99997 250 0 0 1 -249.99997 250 249.99997 250 0 0 1 -249.99997-250 249.99997 250 0 0 1 249.99997-250 249.99997 250 0 0 1 249.99997 250z" fill="#ffe24c"/><path d="m1000 750.00632-194.05817-2.60063 192.98367-20.4591-193.45987 15.31075 190.28547-38.19139-191.22567 33.10816 185.92267-55.58184-187.34707 50.61663 180.01317-72.50831-181.88127 67.68555 172.56127-88.82024-174.86477 84.18876 163.62798-104.35075-166.35478 99.94311 153.30278-119.00625-156.40808 114.88758 141.65488-132.65651-145.14668 128.82271 128.82258-145.14278-132.65648 141.65492 114.88758-156.42029-119.00218 153.31093 99.94719-166.3385-104.34669 163.60764 84.17649-174.84041-88.81609 172.54909 67.67739-181.89345-72.48799 180.02133 50.6167-187.35925-55.5941 185.94294 33.1-191.23373-38.1995 190.27732 15.3474-193.45586-20.4957 192.97968-2.59249-194.05413-2.5681 194.05413-20.4916-192.97968 15.327 193.45586-38.2004-190.27732 33.1171 191.23373-55.5936-185.94294 50.6162 187.35925-72.51029-180.02133 67.69979 181.89345-88.81699-172.54909 84.17729 174.84041-104.36289-163.60764 99.96869 166.3385-119.00618-153.31093 114.86968 156.42029-132.64018-141.65492 128.81968 145.14278-145.14988-128.82271 141.67318 132.65651-156.42638-114.88758 153.29788 119.00625-166.34218-99.94311 163.62828 104.35075-174.86477-84.18876 172.54667 88.82024-181.87387-67.68555 180.00617 72.50831-187.35587-50.61663 185.94077 55.58184-191.21897-33.10816 190.28097 38.19139-193.47947-15.31075 192.98647 20.4591-194.04384 2.60063 194.04384 2.58435-192.98647 20.46723 193.47947-15.31481-190.28097 38.20361 191.21897-33.12445-185.94077 55.58997 187.35587-50.60849-180.00617 72.5083 181.87387-67.68553-172.54667 88.81211 174.86477-84.17656-163.62828 104.33851 166.34218-99.95936-153.29788 119.0103 156.42638-114.87941-141.67318 132.66054 145.14988-128.83082-128.81968 145.13868 132.64018-141.66304-114.86968 156.42028 119.00618-153.28243-99.96869 166.32222 104.36289-163.59543-84.17729 174.84852 88.81699-172.55719-67.69979 181.8975 72.51029-180.02538-50.6162 187.35108 55.5936-185.93884-33.1171 191.21336 38.2004-190.26101-15.327 193.47618 20.4916-192.99594 2.5681 194.05003 2.59249-194.05003 20.4957 192.99594-15.3474-193.47618 38.1995 190.26101-33.1-191.21336 55.5941 185.93884-50.6167-187.35108 72.48799 180.02538-67.67739-181.8975 88.81609 172.55719-84.17649-174.84852 104.34669 163.59543-99.94719-166.32222 119.00218 153.28243-114.88758-156.42028 132.65648 141.66304-128.82258-145.13868 145.14668 128.83082-141.65488-132.66054 156.40808 114.87941-153.30278-119.0103 166.35478 99.95936-163.62798-104.33851 174.86477 84.17656-172.56127-88.81211 181.88127 67.68553-180.01317-72.5083 187.34707 50.60849-185.92267-55.58997 191.22567 33.12445-190.28547-38.20361 193.45987 15.31481-192.98367-20.46723z" fill="#fffbb3" fill-rule="evenodd"/></g><path d="m214.20019 33.079659c-6.88294 14.576583-9.41712 32.665218-18.06542 45.918028-35.84996-21.301499-49.04692-42.284027-64.59864-78.997687-9.70285 25.732531-22.32149 49.020358-39.461911 66.681281l-9.492188 3.25c-10.551842-14.184579-18.769082-27.847749-28.625-43.300781-14.121162 29.305168-31.325722 48.993005-53.957031 63.416069v299.593531h42.826111l-.994141 27.23438 104.31445-3.23633-5.25195-31.80078h43.83399l-3.8125-37.15039c2.70996-.88294 5.40944-1.86154 8.10742-2.85156l-1.01758 32.21289h74.23437l-.19336 27.24218h84.75l-1.1914-11.4121h52.08789l-3.89649-71.94727c14.029-5.17078 27.96354-11.4879 42.10749-17.50179-13.73976-8.72966-30.84572-15.85334-43.00584-25.32813 10.55234-1.69611 40.46325-4.97129 59.59695-11.55838 9.19299-3.16484 25.98434-13.24991 25.98434-13.24991-14.80335-27.61888-46.22289-41.93647-65.11838-62.72491 15.16809.23263 28.54662-8.14945 42.23638-13.88686-19.69345-16.46602-33.09935-24.26427-52.8399-32.56919l35.26949-3.89942-34.01562-28.00976c-19.41408-15.986628-38.59921-39.713605-48.33594-60.261723l-15.6582-35.166016c-9.56834 19.850093-20.03388 42.309339-29.66602 60.066406l-20.11619-22.913347c-5.89226 21.20046-17.51845 41.083151-31.69533 54.47585-30.44839-21.625598-31.97988-37.77762-44.33985-72.324281z" fill="#f2c80d"/><path d="m131.19515 45.064545c-9.32953 14.627311-19.87354 29.836468-36.998972 44.216718.408258.391604.830052.780391 1.248069 1.171111l20.899313-.355522-3.12979 9.372626c-.44819 1.340342-.94478 2.671012-1.48883 3.988592 2.4877 1.70391 5.09835 3.39445 7.87361 5.07034l22.23404 13.42965-40.81635-.69582c-1.734197 2.16733-3.60264 4.29392-5.595107 6.37453 7.810107 10.08939 19.564387 19.89653 34.323717 28.70341l-11.00916-.31939-.0135 4.97528c7.57049 5.56988 15.79209 10.90391 24.10807 16.18821 16.07286-10.1341 28.21364-21.46228 35.06524-32.95246l-50.90102.86692 22.23212-13.42966c7.96098-4.80773 14.66775-9.73665 20.48715-14.77566-4.52453-4.79636-7.9891-9.60369-9.99223-14.62166l-3.58433-8.977194 26.39619-1.596956c-20.07992-12.681617-40.22656-26.785395-51.3382-46.633065zm208.21504 11.583655c-5.80168 11.355294-12.31793 25.42028-20.97828 39.098836 9.69786 16.090324 21.6802 31.533844 41.51165 45.887824l18.122 13.11597-46.60408-.95058c6.17354 10.63167 17.69449 23.5276 30.69124 35.08173 17.00208 15.11527 36.32348 28.53576 47.84249 34.96765l10.06543 5.62168 7.97756 4.47339-7.97952 1.36883-60.69099 7.61975c4.14113 10.0307 8.91758 17.30208 15.33694 23.64639l-.18681-8.41066c15.49152-.87252 30.80096-2.93674 45.61796-6.45056l35.46197-6.88782-35.52359-27.59885c-15.2439-10.4582-26.4183-22.59806-32.23596-36.96955l-3.65174-9.02094 38.69962-2.26045c-8.79524-3.81779-17.52654-7.23828-25.49286-10.56462-7.54208-3.14851-14.40392-6.22646-20.16743-9.8384-5.76438-3.61103-10.74151-7.845-13.1875-13.96766l-3.48803-8.72625 32.02019-2.78516c-21.51773-17.71889-41.91192-42.712364-53.16026-66.45055zm-284.44717 5.032329c-11.111655 19.84765-31.258134 33.952457-51.3363224 46.634941l26.3942744 1.59506-3.58434 8.9753c-4.242301 10.62203-14.923029 21.13271-29.4489465 32.30226-.2618165 9.82044-.3471163 15.47114-.3409037 15.53421.00493.0385.1674046.9638.256156 2.73954.033725.65003.036634 2.78287.05971 3.81749l12.2726397.69772-.00384.48289-3.4668525 8.56464c-1.0472655 2.5887-2.2171457 5.3174-3.6921925 8.08744l10.2291275-6.17491c33.171648-20.03513 44.747236-42.19288 59.812752-65.55698l-.206081 5.57603 3.96954-1.64258c-1.133354-2.36707-2.112241-4.77506-2.931415-7.22624l-3.131719-9.37452 23.591903.40303c-17.992899-14.739007-28.850577-30.394933-38.44349-45.435321zm158.89529 23.140663c-9.59225 15.039931-20.44819 30.696468-38.44159 45.431548l23.59189-.40114-3.1317 9.37453c-5.90817 17.68556-20.20866 33.19349-39.82447 46.35167l15.89935 10.13689 16.21716.60265-3.66138 9.19962c-2.04571 5.13625-4.75302 9.98631-7.99687 14.58554l7.7542-5.42204c15.89797-11.11701 32.63567-24.08714 45.97231-36.38593 8.8982-8.20414 15.9564-16.22404 20.48715-22.70151l-44.85138-3.25474 14.64357-11.19012c9.20353-7.032 18.61426-13.96374 27.4459-21.18059-13.74758-9.852-26.20959-21.045572-34.10224-35.146378zm82.59957.595051c-11.32465 23.482367-32.151 40.333987-52.45729 55.634957l27.85805 2.02091-2.83317 8.51903c-3.99646 12.0018-15.0738 24.01444-29.09647 36.94483-9.57983 8.83316-20.6305 17.77517-31.85842 26.21672l43.73622 3.06084-2.8929 8.56844c-10.00493 29.61555-41.57557 49.86781-67.28767 66.22619 11.96987 7.05744 24.55591 13.5259 35.33296 19.55132 60.65258 16.48716 130.9921 6.10741 178.32312-14.0171-11.7063-6.61763-21.16133-12.74352-29.06375-20.15399-10.47709-9.82569-17.8151-21.86698-23.41086-38.7072l-2.67717-8.06653 46.12449-5.78896c-10.53831-7.19232-22.33851-16.11171-33.60725-26.12927-17.84787-15.86779-34.07512-33.29184-38.97507-50.8688l-2.52503-9.06083 24.73213.50571c-18.79218-17.58223-29.76919-36.34215-39.42-54.454366zm-219.526603 52.672997c.000267.00047-.000265.00097 0 .002.000465-.00074.0016-.00099.0019-.002zm0 .002c-9.590999 15.0392-20.446201 30.69524-38.439643 45.42958l23.591904-.39924-3.133652 9.37072c-7.313098 21.8994-27.488311 40.45985-54.6914468 55.35172l46.9834948 1.74334-3.661376 9.19582c-9.807009 24.62607-26.411818 46.4074-54.1714339 62.71148 65.5738459 19.7688 138.9615959 27.6549 205.5320759-3.12929-11.45598-6.18051-23.87399-12.83585-35.79327-20.63879-16.03735-10.49762-30.64146-22.54599-37.01823-38.29465l-3.65366-9.02282 42.95616-2.50949c-10.4975-6.68038-20.78101-13.56194-29.78215-20.48535-14.41762-11.09334-25.79226-21.10085-30.19432-32.11973l-3.58433-8.97719 26.39427-1.59697c-20.07506-12.68131-40.220796-26.78409-51.334393-46.62923zm-35.960847 59.40688-43.503162.73953c-.1491023.19097-.2826335.38493-.4352858.57415-.2449536 18.83059-.3989076 29.24646-.4468333 37.12736 20.7163121-11.43806 36.2672081-24.82513 44.3852811-38.44061zm93.78787 10.865c2.90216 2.60011 6.10801 5.28818 9.62436 7.99429 3.12403 2.40298 6.44807 4.83867 9.88629 7.27757 4.82808-4.53529 8.95109-9.23754 12.15322-14.09696zm36.972 17.89678c-1.65965 1.94919-3.43144 3.84401-5.27923 5.69771 8.23345 5.42447 16.82113 10.72426 25.18859 15.60646l15.6605 9.13497c10.06439-8.25234 18.75631-17.01525 24.15238-26.25664zm31.81025 33.45246-58.92485 3.44107c3.46396 4.54403 8.06171 9.04662 13.39745 13.41633 5.69516 1.12483 11.45362 2.15648 17.26684 3.06845 9.44134-6.23745 19.27717-12.88859 28.26056-19.92585zm-195.0255979 2.31181-.2580888 31.20341c9.5372057-9.08458 16.5900567-19.24672 22.0376017-30.3935zm367.3838179 58.28706c-12.65771 4.00965-26.19654 7.35508-40.27515 9.83079l4.92486 41.73648h38.14301zm-161.37793 6.13498c-2.36292 1.22967-4.73584 2.4086-7.11473 3.54371l-.82241 26.05937h46.75621l-2.1533-22.74948c-12.37663-1.35955-24.66081-3.61165-36.66385-6.8536zm106.98116 5.8631c-13.38812 1.74508-27.14051 2.67073-40.98392 2.62167l-.34283 48.36007h46.64644zm-313.628414 8.01142-.3303132 31.31979h39.2871002l1.262508-22.87305c-13.633346-2.15846-27.077583-5.03651-40.219295-8.44674zm155.064414 5.49427c-10.27325 2.51404-20.61208 4.3221-30.9705 5.50382l3.47453 12.51804h29.34495zm-100.68112 4.92968-1.734388 47.54222 64.514188-2.00192-7.22164-43.73232c-18.611129 1.13008-37.21861.36985-55.55816-1.80798z" fill="#fffdcc" stroke-width="36.0001"/><path d="m247.11914 94.802734c-10.37268.400811-20.5174 4.435844-28.44419 11.117226-10.74796 8.95639-17.71494 21.87502-20.78823 35.41012-1.92006 8.47281-2.28574 17.31658-.86719 25.89648.41345.97719 1.15417 1.95864 1.00195 3.06641-1.09155 1.16493-2.78451 1.41183-4.24704 1.85477-3.66163.86143-7.42848 1.28924-11.0052 2.49634-6.81307 1.77137-13.93332.90575-20.8041-.0275-5.43557-.79041-10.87599-1.5727-16.35762-1.96825-16.37079-1.54993-32.4891-4.44417-48.762803-6.70252-2.230797-.30674-4.461607-.6134-6.692373-.92037v76.35547c9.218252 2.02792 18.642156 2.85945 28.048106 3.41534 11.70115.7352 23.49931 1.06904 35.01439 3.46161 8.52625 1.80889 16.97635 4.93721 23.83075 10.44681 5.36172 4.32008 8.97476 10.38867 11.65363 16.64304 1.98833 4.71563 3.45351 9.68414 4.67108 14.58253 1.01325 4.05373 1.81873 8.15807 2.44806 12.28856.0848.63684.22756 1.55936.31333 2.22478.64795 4.84088 1.03719 9.71465 1.20229 14.59553.0933 2.92105.13371 6.01231.0858 8.99991-.0717 6.07073-.44898 12.25702-.9569 18.31064-2.24197 26.30952-7.44759 52.44281-8.07131 78.95213-.26712 14.70333.74172 29.39204 1.89454 44.04103 1.05183 12.90116 2.23958 25.75973 3.18068 38.65723h109.42187c2.17666-37.29267 6.50865-74.48045 8.18583-111.8421.8641-19.78568 1.01584-39.63403-.4404-59.39548-1.41201-13.57696-7.92016-25.85816-11.02453-39.02614-1.39673-6.13389-1.92308-12.74163.27308-18.75861 1.77507-5.02057 5.49919-9.06624 9.52725-12.41955 4.58446-3.71713 9.72069-6.71011 15.01647-9.28999 11.2829-5.37443 23.6575-7.88648 35.97039-9.53846 15.5874-2.10791 31.3541-2.95161 46.8005-6.03939 1.42393-.0319 2.80846-1.19763 2.70704-2.69223-.12964-2.9988-.0211-6.0156-.0571-9.02149-.001-21.6914-.003-43.38281-.003-65.07422-9.062 1.06-18.06196 2.58536-27.00814 4.36614-11.15417 2.2003-22.28233 4.59995-33.55631 6.12214-.84072.10083-1.80686.23797-2.65252.32934-6.60305.77599-13.25856 1.19086-19.90803.99684-.61893-.0215-1.38337-.0414-1.99543-.0786-3.8414-.15197-7.67925-.70117-11.33829-1.90912-4.6236-1.41151-9.07525-3.31474-13.63698-4.90491 2.81461-15.07346.48986-31.02185-6.30085-44.75187-5.04218-10.13396-12.86156-19.07528-22.88152-24.50179-7.14484-3.892882-15.28694-6.061405-23.44654-5.767826z" fill="#fffdcc" filter="url(#a)"/><path d="m248.56489 102.7786c-14.04061 0-25.92349 8.09696-33.19996 18.25238-7.27649 10.15543-11.05894 22.79145-11.05894 36.39421 0 6.38588 1.04558 12.46629 2.66957 18.28068l-30.07003 9.08633-78.752499-10.6063v60.62614l80.550229 16.06375 18.12379-4.29499c.52731 1.92123.53846 1.69492 1.09047 3.83463 2.85851 11.0804 5.56903 24.93858 5.72492 31.08847.32779 12.9312-7.02595 29.964-8.96031 52.41679-1.59452 18.50819-.86737 36.32194-.45265 53.23465.80826 32.96007 5.44976 96.15361 5.44976 96.15361l1.2139 16.69127h36.31448 20.60048 37.59268l1.15989-16.75557s4.43195-63.63348 5.48832-96.50339c.526-16.36688 2.13694-34.23783.30606-53.33751-2.27194-23.70056-11.33192-40.36018-10.87891-51.98987.21042-5.40214 3.6145-19.16386 7.25517-30.03401.96046-2.8677 1.0123-2.69578 1.89546-5.12826l19.52545 4.62418 81.6947-16.29265-.003-60.55669-79.89697 10.76575-31.66714-9.56469c1.5421-5.67041 2.54613-11.58787 2.54613-17.80232 0-13.60329-3.78224-26.24138-11.05894-36.39677-7.2767-10.15538-19.16195-18.24982-33.20252-18.24982z" fill="#f2c80d"/><path d="m284.05731 386.16241c-1.02781 31.98114-5.45242 95.83799-5.45242 95.83799h-24.21934l-6.87734-146.87949-6.87733 146.87949h-23.0005s-4.62543-63.48199-5.40531-95.28525c-.41879-17.07825-1.07515-34.22833.3912-51.24867 1.57825-18.3193 9.4854-36.03786 9.01945-54.41913-.48372-19.08207-12.21363-55.94699-12.21363-55.94699l-31.04798 7.35578-62.21989-12.40794v-25.2749l62.21989 8.37803 54.40396-16.43952c-6.36617-6.68553-10.47267-17.31533-10.47267-29.2879 0-20.23455 11.75459-36.64479 26.25998-36.64479 14.50483 0 26.26054 16.41024 26.26054 36.64536 0 11.74163-3.964 22.17714-10.12122 28.88237l55.77654 16.84448 63.36327-8.53629.00082 25.20392-63.36327 12.63718-31.20569-7.39182s-15.03678 36.38274-15.78731 55.65018c-.72004 18.48492 9.18192 35.99188 10.94714 54.40641 1.62354 16.93667.16762 34.03598-.37889 51.0415z" fill="#fffdcc" stroke-width="36"/></svg>