<svg height="500.0004" viewBox="0 0 500 500.0004" width="500" xmlns="http://www.w3.org/2000/svg" xmlns:xlink="http://www.w3.org/1999/xlink"><filter id="a" color-interpolation-filters="sRGB" height="1.105938" width="1.087767" x="-.043883" y="-.052969"><feGaussianBlur stdDeviation="10.214212"/></filter><g transform="translate(-500 -500)"><path d="m999.99997 750a249.99997 250 0 0 1 -249.99997 250 249.99997 250 0 0 1 -249.99997-250 249.99997 250 0 0 1 249.99997-250 249.99997 250 0 0 1 249.99997 250z" fill="#ffe24c"/><path d="m1000 750.00632-194.05817-2.60063 192.98367-20.4591-193.45987 15.31075 190.28547-38.19139-191.22567 33.10816 185.92267-55.58184-187.34707 50.61663 180.01317-72.50831-181.88127 67.68555 172.56127-88.82024-174.86477 84.18876 163.62798-104.35075-166.35478 99.94311 153.30278-119.00625-156.40808 114.88758 141.65488-132.65651-145.14668 128.82271 128.82258-145.14278-132.65648 141.65492 114.88758-156.42029-119.00218 153.31093 99.94719-166.3385-104.34669 163.60764 84.17649-174.84041-88.81609 172.54909 67.67739-181.89345-72.48799 180.02133 50.6167-187.35925-55.5941 185.94294 33.1-191.23373-38.1995 190.27732 15.3474-193.45586-20.4957 192.97968-2.59249-194.05413-2.5681 194.05413-20.4916-192.97968 15.327 193.45586-38.2004-190.27732 33.1171 191.23373-55.5936-185.94294 50.6162 187.35925-72.51029-180.02133 67.69979 181.89345-88.81699-172.54909 84.17729 174.84041-104.36289-163.60764 99.96869 166.3385-119.00618-153.31093 114.86968 156.42029-132.64018-141.65492 128.81968 145.14278-145.14988-128.82271 141.67318 132.65651-156.42638-114.88758 153.29788 119.00625-166.34218-99.94311 163.62828 104.35075-174.86477-84.18876 172.54667 88.82024-181.87387-67.68555 180.00617 72.50831-187.35587-50.61663 185.94077 55.58184-191.21897-33.10816 190.28097 38.19139-193.47947-15.31075 192.98647 20.4591-194.04384 2.60063 194.04384 2.58435-192.98647 20.46723 193.47947-15.31481-190.28097 38.20361 191.21897-33.12445-185.94077 55.58997 187.35587-50.60849-180.00617 72.5083 181.87387-67.68553-172.54667 88.81211 174.86477-84.17656-163.62828 104.33851 166.34218-99.95936-153.29788 119.0103 156.42638-114.87941-141.67318 132.66054 145.14988-128.83082-128.81968 145.13868 132.64018-141.66304-114.86968 156.42028 119.00618-153.28243-99.96869 166.32222 104.36289-163.59543-84.17729 174.84852 88.81699-172.55719-67.69979 181.8975 72.51029-180.02538-50.6162 187.35108 55.5936-185.93884-33.1171 191.21336 38.2004-190.26101-15.327 193.47618 20.4916-192.99594 2.5681 194.05003 2.59249-194.05003 20.4957 192.99594-15.3474-193.47618 38.1995 190.26101-33.1-191.21336 55.5941 185.93884-50.6167-187.35108 72.48799 180.02538-67.67739-181.8975 88.81609 172.55719-84.17649-174.84852 104.34669 163.59543-99.94719-166.32222 119.00218 153.28243-114.88758-156.42028 132.65648 141.66304-128.82258-145.13868 145.14668 128.83082-141.65488-132.66054 156.40808 114.87941-153.30278-119.0103 166.35478 99.95936-163.62798-104.33851 174.86477 84.17656-172.56127-88.81211 181.88127 67.68553-180.01317-72.5083 187.34707 50.60849-185.92267-55.58997 191.22567 33.12445-190.28547-38.20361 193.45987 15.31481-192.98367-20.46723z" fill="#fffbb3" fill-rule="evenodd"/></g><path d="m536.72919 49.922571-122.34557 101.944659-204.01474 357.29976h-232.259772v-51.19426l324.674512-311.6189s74.0346-76.604072 122.52706-93.687252c35.04002-12.344084 111.41851-2.744007 111.41851-2.744007z" fill="#fffdcc" opacity=".5"/><path d="m288.14063 217.52315c-8.23477-14.83224-24.48068-22.01463-40.94825-23.35357-14.62296-.19754-28.03976 3.3087-39.8916 9.89058-17.56602 11.90327-30.66431 24.27511-35.2832 43.27343-37.94012 12.29803-61.0958 33.2978-72.875002 57.61719-13.016594 26.87413-13.601679 55.07564-16.106469 79.23438-1.996887 19.26041-.01474 35.54658 5.827125 48.50595-4.611935.0725-7.698595.0663-12.941406.0801l-19.094726 18.96484-56.827102 48.26395 167.4707.0004c23.95725-.19524 47.05064-1.30218 65.8418-4.85022 19.6229-3.52431 41.46111-14.48064 42.38086-33.72656-2.01425-24.07057-19.44796-34.95805-38.04785-43.00783 3.9163-1.51679 6.85249-3.77986 9.26075-5.83986 33.31798-39.42958 48.20605-76.49662 75.06445-114.76758l-17.38476-9.73632c-15.60073-8.73714-33.04517-3.63098-44.375 3.6875-12.56114 8.9056-20.9027 18.99829-28.24024 31.08007.19906 5.35742.59936 11.20126 1.02539 15.91211-4.28393-11.23699-7.86548-23.46536-10.70312-35.68164 11.7155-.39143 23.51694-3.69388 34.53711-9.8125 13.54656-7.52172 24.32357-18.17287 30.79297-30.98147 6.57848-13.02794 8.75219-29.92187.51757-44.75295zm-103.66407 158.71297c6.59119 11.23508 13.48967 21.67627 21.03516 30.68164-6.29403-1.99514-12.37565-3.9227-18.07617-5.81055-2.65711-8.30514-3.06184-16.80534-2.95899-24.87109z" fill="#f2c80d"/><path d="m216.03897 219.79734c-10.70845 5.94587-18.87178 14.26654-23.46289 23.35622-2.90929 5.75906-4.37248 11.99486-3.85038 17.96134-83.81664 21.17588-82.61155 75.00391-87.78545 124.92619-5.203372 50.21279 18.51408 60.72913 49.51153 64.92482-44.66881-1.02122-38.73591-.29287-67.053304-.21449 0 0-27.083439 27.08344-29.167143 28.7511 30.973882-1.33177 202.784007 14.06618 203.465217-18.45633.46729-22.28845-46.07367-32.51427-80.05112-44.18208-12.53759-4.30529-17.45457-54.50983-.11787-99.65951 11.81159 36.09829 38.67817 82.52141 51.41376 84.79427 14.46217.12729 48.32826-71.83122 66.85-98.22167-16.59007-9.29121-37.0541 9.66248-45.58397 23.70981.36065 7.71076.94757 18.42451 3.28054 20.74275l-24.12937 24.93432c-15.40974-25.6998-25.53126-62.29309-29.82949-93.54865-.15144.0742-.29346.15086-.44197.2257.10902-.12964.22393-.25752.33413-.38775 4.64944 3.22515 10.3814 5.09141 16.43981 5.63355 10.14333.90867 21.52238-1.62053 32.23142-7.5664 10.70845-5.94586 18.87237-14.26889 23.46406-23.35916 4.59051-9.09028 5.5864-19.36502.8468-27.90136-4.73901-8.53576-13.98781-13.12333-26.06074-14.12187-11.04935-.13286-20.93397 2.45583-30.30357 7.6592z" fill="#fffdcc" stroke-width="36"/><path d="m-30.008968 79.721971 122.345571 101.944659 204.014737 357.29976h232.25977v-51.19426l-324.67451-311.6189s-74.0346-76.604072-122.52706-93.687252c-35.040018-12.344083-111.418508-2.744007-111.418508-2.744007z" fill="#fffdcc" filter="url(#a)" opacity=".5" transform="matrix(-1 0 0 1 506.72022 -29.7994)"/><path d="m504.04211-54.990234c-14.94047-8.374545-33.15455-9.086321-50.15625-11.158203-4.5684-.55672-9.21142-.642473-13.80273-.326172-14.86824 1.024291-30.04121 2.318236-44.13086 7.175781-11.74177 4.048091-21.38283 8.198455-32.64844 17.955078-2.59645-1.612769-5.1362-3.197535-7.91797-4.351562-9.12216-3.784354-18.57057-7.981749-28.4414-8.300782-21.99764-.710981-45.58483 3.023302-64.44531 14.367188-15.64114 9.407569-27.61804 25.199941-35.57422 41.6269529-5.43879 11.2293861-7.79535 22.4982041-7.25 36.7226561-26.92355 7.553036-46.85157 32.298618-46.85157 61.564457 0 35.17057 28.86445 64.06836 64.01172 64.06836 18.50301 0 35.13112-8.09743 46.82032-20.72071 16.83032 16.15484 39.6759 26.23438 64.77929 26.23438 29.08135 0 54.81627-13.49714 71.86133-34.39258 11.60842 12.00634 27.86604 19.54101 45.78516 19.54101 15.24344 0 29.36198-5.43664 40.4082-14.42968 13.4984 10.33368 30.36139 16.62304 48.66406 16.62304 44.51076 0 81.05469-36.59978 81.05469-81.140621 0-44.513787-36.68223-80.5761715-83.28513-80.4384762-11.58852-21.9395278-28.41982-39.1511228-48.88089-50.6201168z" fill="#f2c80d"/><path d="m538.0538 15.151823c5.61071-.72656 11.97248-1.648467 17.0991-1.6596 34.7643 0 63.0558 27.835204 63.0558 62.577003 0 34.741804-28.3698 63.140404-63.0558 63.140404-16.8642 0-31.7826-6.5997-43.1154-17.4654l-6.2163-5.9625-5.8212 6.3576c-8.3898 9.1692-20.4462 14.877-33.9183 14.877-16.6914 0-30.9186-8.6256-39.0096-21.852l-7.227-11.8125-7.1442 11.8674c-13.302 22.0887-36.675 36.648-64.2654 36.648-23.7897 0-44.9667-11.0538-58.8654-28.2384l-7.425-9.198-6.2442 10.0413c-8.1315 13.032-22.6386 21.8817-39.0654 21.8817-25.4277 0-46.0125-20.5956-46.0125-46.0692 0-23.400004 17.505-42.615004 39.996-45.590404l9.6174-1.2654c-6.27982-18.639776-2.50246-30.814474 3.14606-44.6096808 5.48763-13.402287 15.81658-25.5550362 28.21623-33.0372942 15.46253-9.330483 34.93783-14.227897 52.84999-11.925178 14.73892 1.894779 33.39594 9.137558 39.59139 20.492853 12.66711-18.257717 23.57607-21.310981 38.09622-26.819524 15.91221-6.036651 33.73619-6.463437 50.73767-5.695981 14.11984.637378 29.50033 1.10421 41.54037 8.507835 19.85816 12.211119 39.39033 32.9492542 43.43947 54.809967z" fill="#fffdcc" stroke-width="36"/></svg>