<svg height="500" viewBox="0 0 500 500" width="500" xmlns="http://www.w3.org/2000/svg" xmlns:xlink="http://www.w3.org/1999/xlink"><filter id="a" color-interpolation-filters="sRGB" height="1.006269" width="1.005676" x="-.002838" y="-.003135"><feGaussianBlur stdDeviation=".29440483"/></filter><filter id="b" color-interpolation-filters="sRGB" height="1.10034" width="1.100036" x="-.050018" y="-.05017"><feGaussianBlur stdDeviation=".47886167"/></filter><filter id="c" color-interpolation-filters="sRGB" height="1.061747" width="1.06156" x="-.03078" y="-.030874"><feGaussianBlur stdDeviation=".47886167"/></filter><filter id="d" color-interpolation-filters="sRGB" height="1.073658" width="1.073167" x="-.036584" y="-.036829"><feGaussianBlur stdDeviation=".47886167"/></filter><filter id="e" color-interpolation-filters="sRGB" height="1.087085" width="1.088346" x="-.044173" y="-.043543"><feGaussianBlur stdDeviation=".47886167"/></filter><filter id="f" color-interpolation-filters="sRGB" height="1.047648" width="1.047464" x="-.023732" y="-.023824"><feGaussianBlur stdDeviation=".26892486"/></filter><filter id="g" color-interpolation-filters="sRGB" height="1.103248" width="1.102685" x="-.051342" y="-.051624"><feGaussianBlur stdDeviation=".47886167"/></filter><filter id="h" color-interpolation-filters="sRGB" height="1.038635" width="1.038489" x="-.019244" y="-.019318"><feGaussianBlur stdDeviation=".2728388"/></filter><g transform="translate(.000015)"><circle cx="-249.99998" cy="250" fill="#e51a1a" r="250" transform="scale(-1 1)"/><path d="m181.33938 83.856939c97.52275-31.84694 203.27597 26.159281 217.12696 131.568651 10.04116 85.89723-45.79566 162.6049-131.11288 174.6444-76.26503 6.65-147.16573-45.4981-149.44603-126.3231.16679-50.89801 30.03241-87.97493 76.60677-108.40662 44.00125-16.48183 90.46555-3.00917 112.28155 39.63622 17.95322 40.0953 3.57775 87.31302-40.4313 103.80676-21.98685 8.23292-51.6578-5.55285-56.72562-31.5612 24.48155 21.7253 69.7211 11.74379 80.1808-21.06198 5.24648-24.88185-11.48198-41.52298-24.36368-55.64156-23.21161-15.22125-63.26956-13.16738-85.32502 12.05139-41.51846 46.43224-18.48961 112.52397 35.72777 131.08081 60.66482 17.11352 118.96473-29.63961 126.96137-92.39988 2.7637-54.83226-40.99398-106.19486-96.51046-114.27807-76.21988-10.3001-138.45939 50.84936-147.743191 124.09106-9.31956 73.21828 47.315731 138.67973 111.863041 158.33924 49.05305 9.49897 98.18701 2.07129 139.64056-27.40671 82.90715-58.95602 100.11901-177.97214 43.55644-260.39974-52.71171-79.885311-158.575-103.987181-249.15842-67.061741-86.705021 39.45169-149.0660905 134.549061-117.102931 229.167621 15.77888-74.65377 50.93986-153.5943 123.407351-187.514491 9.28724-4.60517 19.44718-8.7232 30.56692-12.33106zm-160.722321 286.075591c-52.57825-113.8254-.38403-260.89182 113.777041-317.643861 10.84604-5.32012 22.21219-9.7712 34.03518-13.36069 115.76394-28.75816 246.03978 34.00351 263.68455 158.897471 10.04526 85.91695-27.72044 168.80365-107.97396 206.83173-102.24035 46.26108-224.798841-11.43986-234.690511-131.24969-7.33455-123.78718 127.307171-194.136761 222.718561-137.24102-42.54074-27.89653-94.21826-33.44528-140.80825-12.98978-71.17376 32.62266-105.080851 118.0397-80.762351 190.63139 30.697281 88.13423 123.572931 132.04164 212.817841 105.59803 82.80488-25.06359 132.16266-100.33164 140.19255-180.04986 12.12434-145.020371-132.23823-245.3588802-265.59709-221.973611 7.92036-4.10499 20.5989-8.4277792 35.61563-11.7452592 60.06317-13.23825 124.63426-3.45807 179.45368 32.4903392 109.65077 71.904621 141.09454 217.803071 65.16008 333.599141-143.00482 218.07486-377.311781 117.06797-437.622951-1.79433" fill="#b21a1a"/></g><path d="m-616.76367-378.24023c-.61767 12.37763-1.57801 24.76633-3.11208 37.07336-.61807 4.83288-1.34334 9.68673-2.27574 14.40772-.72757 3.44745-1.42117 6.93333-2.70789 10.22399-.23347.35213-.38668-.8161-.5406-1.09221-1.37051-4.88339-2.02637-9.93-2.84451-14.92617-1.64366-10.42913-3.05639-20.92554-5.70847-31.16042-1.08894-3.86901-2.21226-7.85574-4.56462-11.17471-1.1702-1.63672-3.19586-3.08402-5.29492-2.49414-2.08286.73498-3.02898 2.96081-3.77967 4.86564-1.75131 4.94277-2.49685 10.16724-3.26581 15.33353-1.82397 13.56016-2.72635 27.22165-3.61789 40.86898-1.9738 31.39622-3.28351 62.82259-5.69532 94.18981-.71599 8.74142-1.43454 17.39943-2.72908 26.08748-.5249 3.12979-.97005 6.3153-2.11145 9.29323-.65756-2.04946-.94268-4.19325-1.26562-6.31445-.11941-.96179-.28757-2.19515-.39845-3.26468-1.18541-11.10835-1.67757-22.23882-2.21435-33.38965-1.01593-22.94329-1.71645-45.89919-2.67018-68.84508-.67792-16.19119-1.33544-32.3887-2.51426-48.55186-.37189-4.24757-.60934-8.52881-1.47736-12.71168-.20482-1.08007-.83156-2.46282-2.1297-2.36596-1.38712.0939-1.92137 1.63689-2.20313 2.79102-.9322 4.25662-1.14466 8.62877-1.47489 12.96243-.94666 15.44304-1.28597 30.91708-1.72173 46.38027-.83217 32.01981-1.57195 64.03186-3.17956 96.02989-.33925 6.57814-.71938 13.19149-1.25077 19.68405-.15761 1.80379-.32085 3.60728-.52734 5.40625-.91332-8.14211-1.21064-16.31005-1.61414-24.53021-1.31493-31.39333-2.09685-62.81412-4.12673-94.17341-.89588-13.66654-1.87148-27.34194-3.71714-40.91823-.70464-4.71532-1.37224-9.47855-2.87944-14.01744-.60008-1.59377-1.32263-3.55888-3.11177-4.10681-1.69085-.42896-3.10469 1.04585-3.91602 2.35352-1.8808 3.22882-2.63883 6.95064-3.43118 10.56077-1.92022 9.77102-2.8408 19.7005-3.76022 29.60524-2.11412 24.16756-3.32091 48.40586-5.6679 72.53966-.40242 3.91394-.84799 7.9717-1.4227 11.8766-.27061 1.83456-.57233 3.67334-.93521 5.40583-.32289 1.47145-.64165 2.96178-1.25154 4.34588-1.29209-2.52829-1.73484-5.38267-2.29687-8.13867-1.68908-9.77891-2.49777-19.68119-3.38357-29.55728-2.11467-24.75545-3.65549-49.57418-6.76682-74.23178-1.09475-8.17485-2.2297-16.37873-4.37686-24.35597-.8908-2.99364-1.766-6.14379-3.80088-8.58934-1.04976-1.28955-2.86758-1.9131-4.45117-1.29688-2.45101.93094-3.7307 3.44792-4.7117 5.71443-2.16449 5.42575-3.13135 11.2306-4.05392 16.97112-1.99355 13.52606-2.88432 27.18412-3.73205 40.82077-.76735 12.95439-1.29228 25.92124-1.92811 38.88235-.98508-16.54954-1.52376-33.1807-2.42704-49.76027-.71459-12.78651-1.43238-25.58511-2.91177-38.31015-.51899-3.84907-.92961-7.75982-2.17308-11.45791-.41438-1.27009-1.34551-2.70327-2.8592-2.61034-1.74712.18502-2.51744 2.02808-2.96587 3.49871-1.24474 4.26981-1.63093 8.72829-2.11103 13.13298-1.33723 14.36254-1.87748 28.78265-2.64641 43.18333-.63961 12.2068-1.21084 24.39226-2.3724 36.56779-.19381 1.85126-.41936 3.86432-.68868 5.71033-.19935 1.31482-.40856 2.6317-.741 3.92053-1.16081-3.26472-1.61757-6.7501-2.12864-10.11612-1.58092-11.86016-2.35939-23.81478-3.30649-35.72001-1.00325-12.50821-1.83776-25.04356-3.49473-37.48768-.53926-3.61256-.99391-7.2889-2.27091-10.73068-.45474-1.27492-1.50314-2.75493-3.03752-2.50605-1.94224.40658-2.91273 2.39759-3.58422 4.07581-1.66018 4.55274-2.25015 9.40241-2.92359 14.17614-1.57898 12.54948-2.24655 25.22332-3.71289 37.75-.28813 2.24885-.60004 4.68277-1.11213 6.96814-.14231.61705-.29258 1.23417-.50701 1.83069-1.4353-2.7248-1.97794-5.80628-2.64448-8.78469-2.34352-11.67964-3.52952-23.59506-6.65675-35.11215-1.06203-3.56736-2.17642-7.27163-4.55665-10.20904-1.33116-1.70481-3.62151-2.81722-5.77715-2.15457-4.55169 1.43003-7.92567 5.1941-10.22169 9.23292-2.533 4.2782-3.98588 9.06427-6.07432 13.55171-.49412.87323-.8949 1.97936-1.83263 2.45824-1.01943-.27886-1.62783-1.2956-2.38196-1.97751-4.03692-4.35393-6.80719-9.88875-7.84735-15.72862-.56093-1.09145-1.12187-2.18289-1.6828-3.27434-.39303 1.2616-.95282 2.4943-1.24023 3.77421-.009 7.24347.83151 14.54753 3.04527 21.46436 1.64424 4.98835 4.14231 9.94486 8.3141 13.28682 1.65587 1.32292 4.02896 2.07286 6.02148 1.05274 2.4917-1.31659 3.74248-4.03263 4.77376-6.51797 2.6382-6.61576 3.72024-13.7545 6.57195-20.29258.78697-1.55969 1.61501-3.40896 3.33789-4.10742 1.05753-.19204 1.67434.98961 2.17725 1.72468 1.18038 2.04281 1.8819 4.38299 2.49853 6.55852 2.10767 7.96861 3.23872 16.09785 4.58334 24.2065 1.19655 7.16525 2.23761 14.39085 4.29477 21.37295.85735 2.62697 1.75486 5.43747 3.82889 7.376 1.21815 1.17204 3.26724 1.46189 4.61136.33166 1.89054-1.56134 2.62784-4.03637 3.34245-6.28932 1.76031-6.32538 2.46875-12.88073 3.17669-19.39034 1.3231-12.91307 1.77191-25.89387 2.74418-38.83415.0422-.88623.10216-1.04451.18596-.0601 1.12113 8.80901 1.67905 17.63037 2.34186 26.47628 1.19583 16.09883 2.11127 32.22792 3.99983 48.26517.73203 5.68642 1.45445 11.41616 3.10926 16.92211.67427 1.96483 1.37895 4.19255 3.21696 5.37716 1.37775.91137 3.25118.27864 4.13672-1.02149 1.68507-2.34536 2.28453-5.2508 2.96093-8.00586 1.78232-8.4469 2.54295-17.06452 3.28048-25.65291 1.81085-22.56759 2.22497-45.21238 3.04179-67.82951 1.17491 13.27988 1.7371 26.57057 2.39291 39.8871.81218 16.75289 1.3741 33.52127 2.54851 50.25369.43386 5.16599.74186 10.369 1.81135 15.45232.3663 1.4225.74965 3.28093 2.35856 3.76822 1.48382.25928 2.57334-1.07979 3.04687-2.32617 1.31855-3.41848 1.74424-7.09619 2.28667-10.69735 1.4409-11.16182 2.17747-22.3989 2.96354-33.62191 1.12108-16.28159 1.9424-32.58704 3.44939-48.8396.61975-6.28938 1.24793-12.67072 2.65716-18.87749.46607-1.67322.80447-3.48701 1.89519-4.88358 1.2758 1.37269 1.72483 3.28359 2.29282 5.02299 1.78069 6.41364 2.66612 13.03242 3.56027 19.61602 1.83245 14.42889 3.0367 29.00727 4.21765 43.53321 1.50826 18.52261 2.70708 37.07663 4.77106 55.54849.84473 6.89685 1.66676 13.83367 3.45112 20.56403.69985 2.36387 1.39373 4.90757 3.17317 6.70962 1.16031 1.20495 3.20863 1.39191 4.48719.26825 1.8798-1.61024 2.6542-4.08382 3.42166-6.35433 2.00301-6.72043 2.95404-13.69504 3.89809-20.62624 2.01585-15.98932 3.16139-32.07294 4.23861-48.14857 1.07273-16.14912 1.87589-32.31767 3.21638-48.44789.4831-5.10384.90158-10.22778 1.95678-15.27672.14425-.65761.31414-1.31079.52614-1.94987 1.22382 3.52532 1.65652 7.26156 2.20899 10.93555 1.04808 7.97627 1.72941 16.19284 2.33134 24.28529 2.40104 33.58067 3.36504 67.26644 4.73816 100.92044.54743 12.30739 1.01608 24.62668 2.2028 36.89229.42426 3.70249.7437 7.4632 1.86545 11.03499.38733 1.25831 1.28744 2.69984 2.77436 2.64238 1.68999-.11803 2.51197-1.87781 3.01479-3.27602 1.36162-4.03013 1.91184-8.27672 2.52488-12.47004 1.70505-12.98429 2.55813-26.0624 3.34274-39.12913 1.69029-29.88141 2.35671-59.80941 2.63907-89.73419.8679 25.60902 1.55367 51.22446 2.56858 76.82831.59079 13.5678 1.14949 27.15034 2.56802 40.66164.52295 4.23693.95578 8.53271 2.26379 12.61552.48861 1.4245 1.33446 3.19962 3.04467 3.31214 1.73597.0254 2.73164-1.68394 3.37385-3.0676 2.13522-4.66763 3.20184-9.7305 4.23137-14.73288 2.32533-12.03294 3.64467-24.23053 4.84121-36.41877 3.06749-32.47678 4.52154-65.07391 6.31114-97.63872.5975-10.33537 1.17819-20.67382 2.19971-30.97565.4995-4.34963.89035-8.75098 2.09766-12.97461.18327-.31007.25896-1.20562.60266-1.14161 1.37858 1.44367 1.94804 3.44405 2.58827 5.28852 1.97426 6.4907 2.97798 13.22286 4.03809 19.90895 1.67069 10.81092 2.81601 21.69976 4.75303 32.48174.63586 3.04525 1.14164 6.19675 2.60584 8.97802.62652 1.22422 2.10565 2.18794 3.4707 1.54883 1.75631-.92009 2.39365-2.97625 3.07889-4.69883 1.8391-5.54213 3.16444-11.24442 4.32143-16.96357 3.24024-16.58952 4.42354-33.54321 4.11255-50.42975-.10466-3.38342-.15217-6.79085-.49217-10.15104-.49388-1.07323-.98776-2.14647-1.48163-3.2197-.48503 1.11393-.97006 2.22786-1.45508 3.3418z" fill="#ff8066" filter="url(#a)" opacity=".75" stroke-width="26.8517" transform="matrix(1.2866304 -.37690074 .37690074 1.2866304 1506.0733 311.08185)"/><path d="m408.05836 316.50315-.80193 5.36947-4.04454-3.2426-3.90506 4.88133 4.3932 3.52153-5.26487 2.05714 2.3012 5.8576 4.77673-1.84794-.80193 5.3346 6.20627.97627.90652-5.89247 4.8116 3.8702 3.90508-4.88133-4.3932-3.52153 5.26486-2.05714-2.3012-5.8576-5.71812 2.23147.87166-5.82273z" fill="#ff8066" filter="url(#b)" opacity=".5" stroke-width=".900002"/><path d="m449.54561 86.63082-.80193 5.36947-4.04454-3.2426-3.90506 4.88133 4.3932 3.52153-5.26487 2.05714 2.3012 5.8576 4.77673-1.84794-.80193 5.3346 6.20627.97627.90653-5.89247 4.8116 3.8702 3.90507-4.88133-4.3932-3.52153 5.26486-2.05714-2.3012-5.8576-5.71813 2.23147.87167-5.82273z" fill="#ff8066" filter="url(#b)" opacity=".5" stroke-width=".900002"/><path d="m387.25345 36.440053-1.30315 8.725468-6.57243-5.269273-6.34578 7.932233 7.13901 5.722538-8.55549 3.342883 3.73948 9.518686 7.76226-3.00293-1.30315 8.668808 10.08528 1.58645 1.47313-9.575351 7.81892 6.289131 6.34579-7.932233-7.13901-5.722538 8.55547-3.342882-3.73948-9.518686-9.29205 3.626171 1.41648-9.462022z" fill="#ff8066" filter="url(#c)" opacity=".5"/><g transform="translate(-.336081)"><path d="m281.89453 249.23047c4.21115-2.39499 10.33112-6.33453 11.84961-16.4707.37423-7.17166-1.99204-14.28041-6.86914-18.91407 1.37734-8.90701 4.98335-18.04307 4.67773-25.59375-.18472-3.66821-1.15348-8.40343-4.16015-12.83789-5.05685-6.39018-11.97387-10.3091-19.46289-10.32812-6.6359.0459-12.78827 3.22157-16.9336 8.20117-3.88514 5.21047-6.0738 10.7382-8.39818 16.67527-23.2164 7.62318-49.91356 15.84867-70.24244 19.55715l-81.328126.19922-13.341797 105.81445 80.595703-41.0957c30.80552-5.80657 55.87996-12.23162 91.8125-26.04102 10.62595 4.48627 22.38827 6.17722 31.80078.83399z" fill="#861313"/><path d="m152.29698 257.28391c33.25275-6.17135 57.21216-12.12491 96.34586-27.58961l2.97677-1.16167 2.83157 1.6699c3.99323 2.46854 9.72897 4.21104 14.23043 4.57406 2.25074.21782 6.83375-1.83487 7.26042-4.68297.58616-3.91253-6.34187-5.34013-7.65071-9.07353-4.17016-11.89511 12.92878-33.76208.98875-37.80181-7.24459-2.4511-7.85888 15.8951-13.44941 18.58872-6.31657 3.00581-12.63314 6.43273-16.91679 8.60361-28.31566 7.95742-42.4009 13.25754-64.763 17.10555l-67.24553.16421-7.107807 56.37267z" fill="#ff8066" stroke-width="36"/><path d="m180.65039 518-1.37305-18c-4.53159-63.58635-5.07052-119.58948-44.57226-176.52539l-.004-.006-.006-.006c-3.67241-5.28377-3.94423-10.17221-2.01562-18.04297l.0156-.0664.0156-.0684c2.54118-9.4449 5.83826-18.54529 7.6875-26.29102 2.5793-10.99343 6.04285-23.59245 1.19922-38.63281-4.34567-13.49417-13.67065-25.74348-30.09375-30.08399-16.556774-4.45813-34.038317 2.98244-46.724333 12.14876-16.357977 11.9362-26.697882 29.33815-32.242188 46.95117-7.566859 24.03824-1.734906 45.99326-2.513672 61.26367-2.845916 55.80406-6.85153 97.51243-12.101562 169.35938l-1.410156 18h63.501953l2.976562-18c5.781851-27.86078 10.006365-55.52136 15.873047-83.9668 8.519299 25.5489 16.183309 58.08099 15.714849 83.9668l-.52149 18z" fill="#861313"/><path d="m35.874749 499.99997h29.491855c8.662741-41.74282 13.555903-94.21149 28.524389-134.00977 16.862097 17.13305 39.981527 87.82727 38.680207 134.00977h28.75128c-4.57406-64.18217-4.88705-113.62568-41.407-166.26377-7.11522-10.2372-7.40564-21.63607-4.71927-32.59931.65343-2.75896 1.52467-5.59053 2.46854-8.4947 0 0 11.62701-31.76984 6.79855-46.7631-2.58389-8.02349-9.40848-16.04488-17.55794-18.19872-10.588397-2.79846-22.669163 2.8308-31.516253 9.2864-12.308637 8.98145-21.106873 23.28077-25.68195 37.81477-5.450511 17.31507-.741849 37.86705-1.706201 56.77654-2.867106 56.21954-6.88902 96.77072-12.126207 168.44189z" fill="#ff8066" stroke-width="36"/><path d="m74.154297 218.85352c-17.18521 1.16356-27.317341 15.10154-33.558594 28.45312-9.586926 29.39487-18.43681 63.22524-24.800781 85.57813-5.537223 11.1304-11.9144828 21.79338-14.5488283 33.20312-1.70614395 4.42655-.78976038 6.64818.9101563 10.78711 4.3726547 10.65135 15.996837 18.55306 26.160156 20.49805 10.405674 1.99258 22.116665 1.3097 32.859375-5.30469 6.877997-4.2348 12.091026-10.23184 13.585938-20.04492 1.49161-9.79138-1.324745-16.64683-4.111328-21.54297 14.83144-39.00752 23.373962-77.32564 26.511718-94.22266 1.295163-6.78679 2.847571-11.70387.544922-20.2207-3.517992-10.70093-13.205065-17.01117-23.552734-17.18359z" fill="#861313"/><path d="m51.738 376.74152c-5.748762 3.53957-13.211899 4.26006-20.036701 2.95318-6.454518-1.23427-10.629263-4.13843-12.894517-9.65636.522751-2.32334 2.497587-7.98647 5.191206-13.577 3.005816-6.31657 6.432736-12.63314 8.603604-16.9168 7.957428-28.31566 13.257539-42.40089 17.105565-64.763 0 0 10.672296-40.43756 25.68195-37.81477 5.409864.94533 6.4059 3.78063 4.085795 15.96089-3.085678 16.62637-12.124909 57.21216-27.589617 96.34586l-1.161668 2.97677 1.669898 2.83156c2.468544 3.99324 5.32444 9.30477 4.574068 14.23044-.456085 2.99389-2.650774 5.84145-5.229583 7.42923z" fill="#ff8066" stroke-width="36"/><path d="m114.49609 142.82617c-13.16072.41723-24.832839 8.70135-31.977581 19.38858-10.140874 14.79161-13.990082 33.98778-9.78911 51.47094 3.420856 12.45052 11.59184 24.30589 23.606438 29.72949 10.405433 4.24996 22.250213 1.24121 31.890413-3.63151 11.10299-6.25198 19.33907-17.42914 21.59599-30.02135 2.66388-14.38313 4.03259-29.97735-2.0068-43.73263-4.90159-11.52911-15.28669-21.2039-28.00116-22.89717-1.75897-.25857-3.54096-.36894-5.31819-.30635z" fill="#861313"/><path d="m132.98426 201.68356c1.35085-9.82063 2.23191-20.41271-2.17892-29.62884-2.9108-5.9733-8.62949-11.46382-15.68174-11.24009-6.57808.18905-12.23066 4.39709-16.127366 9.42328-8.136307 10.26757-11.484041 24.15365-9.186461 37.02326 1.521281 7.4789 5.343437 15.12972 12.207647 18.9788 5.32358 2.87121 11.57675.64984 16.60387-1.7952 6.85266-3.54013 12.07805-10.16726 13.4818-17.80372.37121-1.63759.64772-3.29515.88117-4.95749z" fill="#ff8066" stroke-width="36"/></g><g fill="#ff8066"><path d="m276.84396 25.12625-2.99854 9.13506-6.17139-6.86873-4.67214 4.184 6.65954 7.4266-9.7278 2.02227 1.2552 6.13653 9.06533-1.8828-2.99853 9.1002 5.99706 1.95253 3.20773-9.76266 7.1128 7.91473 4.67214-4.184-6.65954-7.39173 9.76267-2.05714-1.2552-6.13653-10.46 2.1966 3.20773-9.8324z" filter="url(#d)" opacity=".5" stroke-width=".900002"/><path d="m334.17122 65.52799-2.99854 9.13506-6.17139-6.86873-4.67214 4.184 6.65954 7.4266-9.7278 2.02227 1.2552 6.13653 9.06533-1.8828-2.99853 9.1002 5.99706 1.95253 3.20773-9.76266 7.1128 7.91473 4.67214-4.184-6.65954-7.39173 9.76267-2.05714-1.2552-6.13653-10.46 2.1966 3.20773-9.8324z" filter="url(#d)" opacity=".5"/><path d="m319.61439 127.67712-.80194 5.36947-4.04453-3.2426-3.90506 4.88133 4.39319 3.52153-5.26486 2.05714 2.3012 5.8576 4.77672-1.84794-.80193 5.3346 6.20627.97627.90653-5.89247 4.8116 3.8702 3.90507-4.88133-4.39319-3.52153 5.26486-2.05714-2.3012-5.8576-5.71813 2.23147.87167-5.82273z" filter="url(#b)" opacity=".5" stroke-width=".900002"/><path d="m324.73075 328.29868v7.46146l-6.20627-3.59126-3.138 5.4392 6.73275 3.8702-6.73275 3.90506 3.138 5.4392 6.20627-3.59127v7.46147h6.276v-8.0542l7.25923 4.184 3.138-5.4392-6.72926-3.90506 6.72926-3.8702-3.138-5.4392-7.25923 4.184v-8.0542z" filter="url(#e)" opacity=".5"/><path d="m458.97223 379.83133-2.1966 7.14766-4.88133-5.26486-4.6024 4.25373 5.29973 5.71813-7.60093 1.74334 1.39466 6.13653 7.04307-1.60387-2.1966 7.14767 5.99707 1.81307 2.37093-7.7404 5.71814 6.1714 4.6024-4.25374-5.33461-5.71813 7.60095-1.74333-1.39467-6.13654-8.19368 1.8828 2.37094-7.7404z" filter="url(#f)" opacity=".5" transform="matrix(1.7806523 0 0 1.7806523 -365.17606 -302.10981)"/><path d="m308.78829 256.29068-.9414 4.98942-3.661-3.14497-4.11426 4.76278 4.04453 3.45878-5.0208 1.76425 2.092 5.92036 4.6024-1.61781-.9414 4.99639 6.13653 1.13316 1.01113-5.43571 4.3932 3.76211 4.11426-4.76278-4.04453-3.45877 5.0208-1.76426-2.09199-5.92036-5.47407 1.93162 1.01113-5.46361z" filter="url(#g)" opacity=".5" stroke-width=".900002"/><path d="m457.75929 11.948995-6.03194 1.743333 3.02643 10.487892-10.23685-2.53132-1.50624 6.094693 10.98647 2.7196-7.85546 8.165771 4.52221 4.32347 7.31503-7.593962 3.02642 10.487892 6.03194-1.74333-3.23563-11.213122 11.70125 2.893933 1.53413-6.094692-10.97951-2.716113 7.84151-8.141366-4.52569-4.35136-8.37148 8.702719z" filter="url(#h)" opacity=".5" transform="matrix(1.7551084 0 0 1.7551084 -338.401 -19.822513)"/><path d="m179.2029 86.39717-2.99854 9.13506-6.17139-6.86873-4.67214 4.184 6.65954 7.4266-9.7278 2.02227 1.2552 6.13653 9.06533-1.8828-2.99853 9.1002 5.99706 1.95253 3.20773-9.76266 7.1128 7.91473 4.67214-4.184-6.65954-7.39173 9.76267-2.05714-1.2552-6.13653-10.46 2.1966 3.20773-9.8324z" filter="url(#d)" opacity=".5"/><path d="m177.50074 305.86882-.9414 4.98942-3.661-3.14497-4.11426 4.76278 4.04453 3.45878-5.0208 1.76425 2.092 5.92036 4.6024-1.61781-.9414 4.99639 6.13653 1.13316 1.01113-5.43571 4.3932 3.76211 4.11426-4.76278-4.04453-3.45877 5.0208-1.76426-2.09199-5.92036-5.47407 1.93162 1.01113-5.46361z" filter="url(#g)" opacity=".5" stroke-width=".900002"/></g></svg>