<svg height="500" viewBox="0 0 500 500" width="500" xmlns="http://www.w3.org/2000/svg"><g transform="translate(0 -1000)"><path d="m77.199219 951.41406c23.664711 23.66797 47.329431 47.33594 70.994141 71.00394 1.07831 1.7417 2.05015 3.3391 3.0712 5.1271 7.10033 12.4077 12.43834 25.8664 15.36044 39.8748 1.18371 5.6906 1.9933 11.6549 2.31836 17.5332.32949 5.9131.19813 11.9662-.44085 17.9275-.21019 1.9579-.47297 3.91-.78767 5.8538-.12627.7616-.29682 1.7627-.46093 2.6113-.95385-7.6713-1.52351-15.4037-3.02126-22.9973-.63335-3.3878-2.17621-6.4967-3.32181-9.7238-3.31689-8.7619-6.79088-17.5474-11.86125-25.4706-6.26624-10.1065-13.72665-19.6807-23.25507-26.9151-8.68507-6.6225-18.05339-12.2804-27.495418-17.7441-8.405746-4.8621-11.052158-4.0537-19.68582-8.4948 9.52393 14.2997 13.006211 23.3456 21.558598 38.2539 3.03867 5.2453 5.72143 10.8267 8.42198 16.3045 8.8852 18.1869 17.29244 36.8057 21.99732 56.5721.90884 3.8744 1.74027 7.8908 2.47882 11.8076 2.60647 13.8069 4.17611 28.0059 3.86617 42.1293-.054 2.5538-.16041 4.9432-.33583 7.494-.15802 2.3009-.35721 4.4573-.62157 6.7689-.35222 2.9156-.77588 5.8212-1.08264 8.7424-1.23379 9.779-3.78167 19.4512-6.91566 28.7144-7.93557 23.3537-19.74034 45.2307-26.83474 68.8894-.82222 2.749-1.582109 5.5169-2.257058 8.3059.110789-2.9552.316469-5.8111.620558-8.7802.60796-5.9566 1.62411-12.0652 2.85764-18.0027 3.73563-18.058 9.61327-35.5725 14.05385-53.4525 4.31454-21.5098 4.09868-43.8144.18186-65.366-5.18088-28.6194-16.52244-55.8905-31.50477-80.7311-2.408292-4.1269-5.130361-8.0719-8.245261-11.6992-7.675111-8.9866-16.657695-16.7505-25.902749-24.0697-14.125494-11.0628-50.9498-31.881-50.9498-31.881s21.995892 24.9208 32.974965 37.2289c7.577011 8.5304 14.941153 17.2668 21.702769 26.4625 1.698564 2.3164 3.476516 4.8356 5.051544 7.2176 3.955956 5.8357 7.236132 12.096 10.140275 18.5121 3.734536 8.218 6.824523 16.7216 9.370681 25.3797.43254 1.4862.914872 3.1931 1.336726 4.7719 1.576217 5.8768 2.919076 11.8947 4.003438 17.8112.401554 2.1777.766632 4.362 1.109055 6.5497-3.624875-9.1644-8.125533-18.0103-13.795799-26.0857-6.215963-8.9299-13.45002-17.1264-21.264065-24.6855-9.362725-8.8362-19.435437-16.8777-29.549051-24.8296-6.598124-5.1232-21.080538-13.4724-21.080538-13.4724s17.944 27.7403 26.926261 41.4314c4.76124 7.2995 9.347215 14.7345 13.178711 22.5716 4.241708 8.3725 8.278492 16.8514 11.973153 25.4804 1.577513 3.6996 3.160207 7.5703 4.613969 11.3864 5.043227 13.1796 9.155438 26.91 11.574465 40.8849.650299 3.6559 1.224064 7.3996 1.715863 11.049 1.946566 14.5371 2.655688 29.2591 1.765625 43.9062-.09632 1.3828-.201528 3.0029-.332555 4.4738-.222058 2.7182-.540667 5.618-.894008 8.4051-.126447.8795-.27535 2.061-.405732 2.9346-.480465 3.4343-1.152431 6.8399-1.768833 10.249-2.735011 27.8082.701082 56.0795 9.062762 82.6959 4.74036 15.1035 11.030855 29.7125 18.656725 43.5815-22.477562-31.5452-39.472725-67.1356-48.792091-104.7796-2.43858-9.8666-4.391205-20.0489-5.727551-30.1983-.547052-4.1385-.995165-8.2298-1.350877-12.4229-.04529-.9324-.123885-1.857-.587792-2.6887-.927695-2.051-1.898441-4.3819-3.992861-5.4887-1.546474-.782-3.446253-.033-4.365234 1.3536-1.691492 2.4827-2.217367 5.5244-2.822861 8.4108-1.480008 8.3604-1.991293 16.8582-2.310021 25.3315-.0688 5.0403-.349068 10.0758-.314384 15.1182.02626 30.2695 6.077872 60.4266 16.946377 88.6431 14.545373 37.7818 37.481915 72.1589 65.973659 100.8509 4.779 4.8175 9.73153 9.4601 14.81043 13.9599h244.18946c28.64053-25.3052 52.69732-55.8995 69.90039-90.0605 13.54252-26.935 22.75405-56.1453 26.18553-86.1332 1.35964-11.7106 1.80813-23.523 1.39058-35.3042-.24386-9.9238-.35214-19.892-1.80658-29.7306-.60125-3.3805-1.16849-6.9203-3.06836-9.8555-1.01853-1.5753-2.97382-2.6577-4.85742-2.1172-.96102.2183-1.75747.8252-2.56641 1.3555-2.25059 11.6647-4.07805 23.4473-6.21799 35.0686-1.08065 5.903-2.2696 11.8007-3.63063 17.5946-2.32964 9.9693-5.29869 19.8058-9.23739 29.2631-10.2616 27.3761-24.74792 53.0827-42.14836 76.5444 15.34446-27.1258 26.37798-56.992 30.0258-88.0457 1.5787-13.4926 1.76616-27.1673.32264-40.6795-3.043-15.3954-4.18959-31.1409-3.7293-46.8197.0649-1.9881.15093-4.1777.27172-6.2418.14099-2.5809.33286-5.0547.55054-7.602.14555-1.6142.32642-3.4487.51394-5.1443.51045-4.5898 1.1455-9.1942 1.89972-13.6892 1.64946-10.1034 4.02104-20.0908 7.20686-29.8219.92121-2.8499 1.88396-5.6002 2.89511-8.3778.67694-1.835 1.4408-3.8525 2.18888-5.7438 2.23818-5.6724 4.63024-11.1761 7.2034-16.7167 5.18815-11.1565 10.96231-22.122 16.95244-32.9103.71047-1.2464 1.4205-2.4556 2.12851-3.6122 6.83349-11.174 14.51022-21.8037 22.29741-32.3257 6.24728-8.4081 17.60631-26.1444 17.60631-26.1444s-29.50925 19.8118-43.02414 31.1673c-6.96142 5.8608-13.74959 11.9485-19.97332 18.5966-10.14758 10.6375-19.37619 22.3258-26.00669 35.5048-1.87196 3.6467-3.56649 7.3828-5.15015 11.1629 2.65713-12.011 6.44535-23.7252 9.82778-35.5417 3.3959-11.445 7.24999-22.9956 14.09784-32.8997 6.27053-9.0979 13.73448-17.2945 21.36318-25.2596 14.88446-18.6677 36.80736-29.6926 48.8655-47.4806 0 0-32.4555 15.6392-47.48495 25.3657-11.45368 7.4886-22.71751 15.3626-32.91813 24.5137-4.56887 4.0767-8.76249 8.5658-12.50919 13.4093-12.0975 15.4012-20.78779 33.2612-26.86201 51.8202-5.57289 17.0455-9.00971 34.8188-9.78094 52.7482-.65832 14.9819.42768 30.0508 3.33036 44.7656 4.75772 21.7813 12.86934 42.7557 16.25755 64.848.39841 2.6186.72553 5.2233.9634 7.8047-5.45631-18.5491-13.98627-35.9643-21.26562-53.8242-1.51492-3.7364-3.04788-7.6543-4.43725-11.5115-3.44413-9.5688-6.3051-19.5552-7.75616-29.7007-.16991-1.1911-.31472-2.2877-.4366-3.4143-.12402-1.0127-.20023-1.9117-.30163-2.9809-.11423-2.2568-.49703-4.4856-.7168-6.7325-.0643-.6693-.17391-1.7561-.23113-2.4415-.22914-2.6434-.39425-5.34-.48196-7.9084-.14043-3.9052-.12699-7.8746.0112-11.7046.11744-3.3585.33812-6.6685.6378-9.9687.44878-5.008 1.14004-10.2424 1.95273-15.2111 1.34268-8.0402 3.00686-15.9725 5.0631-23.8425 1.80332-6.723 4.05211-13.3207 6.58534-19.8021 5.26262-13.417 11.81449-26.4711 18.42448-39.3401 1.68535-3.2986 3.33629-6.5558 5.16654-9.7323 6.98632-12.1617 21.03694-37.16 21.03694-37.16s-10.84846 2.9933-18.90715 7.4049c-8.64407 4.7289-17.2034 9.693-25.08028 15.6359-5.09822 3.8397-9.52532 8.4827-13.72409 13.2668-11.67804 13.5195-20.60152 29.4329-25.95611 46.481-2.53957 8.1095-4.267 16.4687-5.21228 24.9126-.19471-1.4922-.36496-3.1419-.49219-4.543-.35154-4.0394-.50346-7.948-.46154-12.0242.0311-2.7601.15662-5.5196.36193-8.2063.10507-1.3649.25414-2.9628.42281-4.4135.83323-7.4515 2.34801-14.8227 4.45219-22.0181.4503-1.5174.98843-3.2411 1.51758-4.8242 1.40382-4.189 3.07688-8.4472 4.91992-12.5469 2.45416-5.4406 5.3414-10.8729 8.53618-16.0057.95036-1.4316 1.71072-3.026 3.04547-4.1511 23.80863-23.65619 47.61803-47.31155 71.42616-70.9682h-345.310544l3.414063 3.41406z" fill="#fff" opacity=".9"/><path d="m0 1250a250 250 0 0 1 -250 250 250 250 0 0 1 -250-250 250 250 0 0 1 250-250 250 250 0 0 1 250 250z" fill="#9db3df" stroke-linecap="round" stroke-linejoin="round" stroke-width="9.39799" transform="scale(-1 1)"/><path d="m263.85417 1289.4759c11.1612 3.7204 14.8816-7.4408 18.46913-11.0283 7.04219-8.7696 15.28021-26.0428 14.48299-54.6102-10.49685-61.1209-92.21278-68.5617-125.69638-20.1965-11.1612 18.602-11.1612 33.4836-14.8816 52.0856 0 29.7632 14.8816 52.0856 40.9244 70.6876 11.1612 11.1612 26.0428 11.1612 37.204 14.8816 70.6876 11.1612 130.214-48.3652 119.0528-119.0528-7.4408-29.7632-22.3224-59.5264-48.3652-78.1284-44.6448-29.7632-96.7304-29.7632-137.6548-3.7204-18.602 11.1612-29.7632 22.3224-40.9244 40.9244-63.2468 100.4508 26.0428 219.3708 133.9344 208.2096 22.3224 0 40.9244-11.1612 63.2468-18.602 22.3224-14.8816 44.6448-37.204 59.5264-59.5264 40.92441-78.1284 7.4408-171.0056-66.9672-215.6504-26.0428-11.1612-52.0856-22.3224-81.8488-22.3224-37.204 0-70.6876 11.1612-100.4508 33.4836-33.4836 26.0428-52.0856 59.5264-66.9672 96.7304-7.4408 14.8816-3.7204 33.4836-7.4408 52.0856 0 119.0528 126.4936 215.6504 241.69313 174.726 29.7632-14.8816 63.2468-26.0428 89.2896-52.0856 22.3224-29.7632 44.6448-59.5264 52.0856-96.7304 3.7204-26.0428 7.4408-44.6448 3.7204-70.6876-18.602-152.5364-189.60753-234.25236-319.82153-156.2568-22.3224 14.8816-44.6448 29.7632-59.5264 52.0856-29.7632 37.204-44.6448 74.408-52.0856 119.0528-18.602 137.6548 96.7304 260.2951 230.53193 260.2951 29.7632 0 63.2468-11.1612 93.01-18.602 37.204-14.8816 70.6876-33.4836 96.7304-66.9672 18.602-26.0428 29.7632-52.0856 44.6448-81.8488 11.1612-33.4836 18.602-70.6876 14.8816-104.1712-7.4408-44.6448-18.602-85.5692-44.6448-119.0528 96.59753 111.7449 44.51193 297.7649-81.8488 364.7321-22.3224 14.8816-48.3652 18.602-70.6876 26.0428-89.2896 22.3224-178.44633-14.8816-234.25233-78.1284-14.8816-14.8816-18.602-33.4836-29.7632-52.0856-48.3652-70.6876-33.4836-152.5364 3.7204-226.8116 52.0856-89.2896 159.9772-130.21396 264.01553-100.4508 63.2468 18.602 115.3324 63.2468 141.3752 126.4936 7.4408 29.7632 14.8816 59.5264 14.8816 89.2896 0 37.204-11.1612 70.6876-29.7632 104.1712-14.8816 22.3224-26.0428 40.9244-48.3652 55.806-18.602 11.1612-33.4836 18.602-52.0856 29.7632-33.4836 11.1612-70.6876 18.602-111.612 14.8816-122.7732-18.602-200.76873-148.816-156.2568-267.7359 14.8816-29.7632 29.7632-59.5264 55.806-78.1284 55.806-40.9244 119.0528-52.0856 185.88713-29.7632 100.4508 40.9244 148.816 156.2568 89.2896 245.4135-11.1612 18.602-18.602 33.4836-33.4836 48.3652-55.806 40.9244-130.214 55.806-189.60753 18.602-14.8816-14.8816-33.4836-18.602-44.6448-37.204-44.6448-66.9672-44.6448-156.2568 18.602-211.9299 63.2468-55.806 174.72593-40.9244 215.65033 37.204 7.4408 22.3224 18.602 40.9244 14.8816 66.9672 0 22.3224-11.1612 40.9244-14.8816 59.5264-26.0428 55.806-96.7304 74.408-152.5364 55.806-18.602-11.1612-40.9244-18.602-52.0856-37.204-48.3652-70.6876-7.4408-178.4463 85.5692-174.7259 22.3224 0 44.6448 14.8816 63.2468 26.0428 29.7632 22.3224 33.4836 55.806 29.7632 89.2896-11.1612 48.3652-63.2468 70.6876-111.612 59.5264-22.3224-7.4408-37.204-29.7632-44.6448-52.0856-3.7204-26.0428 3.7204-48.3652 22.3224-66.9672 33.4836-33.4836 89.2896-7.4408 96.7304 37.204-3.7204 18.602-14.8816 37.204-29.7632 52.0856" fill="#c6d2ec" opacity=".9"/><path d="m262.92407 1285.7555c10.2311 3.4546 13.68576-6.7765 17.00754-10.0982 6.37783-7.8395 13.9515-23.6512 13.15428-49.9597-9.56675-56.2046-84.77198-62.9811-115.59815-18.602-10.2311 17.1404-10.2311 30.6933-13.68576 47.8337 0 27.3715 13.68576 47.8337 37.60262 64.9741 10.2311 10.2311 23.91686 10.2311 34.14796 13.6858 64.97413 10.2311 119.58428-44.3791 109.35318-109.3532-6.77644-27.3715-20.4622-54.743-44.37905-71.7506-41.05728-27.3715-88.89099-27.3715-126.49361-3.4546-17.14041 10.2311-27.37151 20.4622-37.60261 37.6026-58.06482 92.3456 23.91686 201.6988 123.03894 191.3349 20.4622 0 37.60262-10.2311 58.06482-17.1405 20.4622-13.6857 41.05727-34.1479 54.74303-54.743 37.60261-71.7506 6.77644-157.1869-61.51947-198.2442-23.91686-10.2311-47.83372-20.4622-75.20523-20.4622-34.14796 0-64.97413 10.2311-92.21278 30.8262-30.6933 23.9169-47.83371 54.743-61.51947 88.891-6.77644 13.6858-3.45466 30.6933-6.77644 47.8337 0 109.3532 116.2625 198.2442 222.16103 160.6416 27.37151-13.6858 58.06481-23.9169 81.98167-47.8337 20.4622-27.3716 41.05727-54.7431 47.83372-88.891 3.45465-23.9169 6.77644-41.0573 3.45465-64.9742-17.14041-140.0464-174.32731-215.25168-293.9116-143.5011-20.4622 13.6858-41.05727 27.3715-54.74303 47.8337-27.37151 34.148-41.05727 68.2959-47.83371 109.3532-17.14042 126.4936 88.89098 239.3014 211.92993 239.3014 27.37151 0 58.06481-10.2311 85.43633-17.1404 34.14795-13.6857 64.97413-30.8261 88.89098-61.5194 17.14042-23.9169 27.37152-47.8338 41.05728-75.2053 10.2311-30.6933 17.14041-64.9741 13.68575-95.6674-6.77644-41.0573-17.14041-78.6599-41.05727-109.3532 88.89099 102.5768 41.05727 273.4494-75.20523 334.9689-20.4622 13.6857-44.37906 17.1404-64.97413 23.9168-81.98167 20.4622-164.09621-13.6857-215.25171-71.7505-13.68576-13.6858-17.14042-30.6933-27.37152-47.8337-44.37906-64.9742-30.6933-140.1794 3.45466-208.4753 47.83371-81.9817 146.9558-119.5843 242.62323-92.2128 58.06481 17.1404 105.89853 58.0648 129.81539 116.2625 6.77644 27.3715 13.68575 54.743 13.68575 81.9817 0 34.1479-10.2311 64.9741-27.37151 95.6674-13.68576 20.4622-23.91686 37.6026-44.37906 51.2884-17.14041 10.2311-30.6933 17.1404-47.83371 27.3715-30.82617 10.2311-64.97413 17.1404-102.57675 13.6858-112.80784-17.1405-184.55841-136.7247-143.50114-246.0779 13.68576-27.3715 27.37151-54.7431 51.28837-71.7506 51.28837-37.6026 109.35319-47.8337 170.87266-27.3715 92.21277 37.6026 136.7247 143.5011 81.98167 225.6157-10.2311 17.1404-17.14041 30.6933-30.82617 44.379-51.28837 37.6026-119.58429 51.2884-174.32732 17.1404-13.68575-13.6857-30.82617-17.1404-41.05727-34.1479-41.05727-61.5195-41.05727-143.5012 17.14042-194.7895 58.19768-51.5541 160.77443-37.8684 198.37704 33.8822 6.77644 20.4622 17.14042 37.6026 13.68576 61.5195 0 20.4622-10.2311 37.6026-13.68576 54.743-23.91686 51.2884-88.89099 68.2959-140.17936 51.2884-17.14041-10.2311-37.60261-17.1405-47.83371-34.148-44.37906-64.9741-6.77644-164.0962 78.65988-160.6416 20.4622 0 41.05728 13.6858 58.06482 23.9169 27.37151 20.4622 30.6933 51.2884 27.37151 81.9817-10.2311 44.379-58.06481 64.9741-102.57674 54.743-20.4622-6.7764-34.14796-27.3715-41.05727-47.8337-3.45466-23.9169 3.45466-44.3791 20.4622-61.5195 30.6933-30.8262 81.98167-6.7764 88.89099 34.148-3.45466 17.1404-13.68576 34.1479-27.37152 47.8337" fill="#ecf0f9" opacity=".9"/><path d="m226.91591 1287.6157c5.31486 10.4968 15.8117 5.3148 20.86082 5.3148 10.62971-1.0629 28.56735-7.4408 48.23233-28.3016 35.87528-50.624-16.7418-113.7379-74.54088-103.2411-20.99368 5.3149-31.49052 15.8117-47.30222 26.3086-20.99369 20.9937-26.30855 47.3022-20.99369 78.9256 0 15.8117 10.49684 26.3085 15.8117 36.8054 42.12024 57.7991 126.22786 57.7991 168.3481 0 15.8117-26.3086 26.30854-57.7991 20.99369-89.4225-10.49685-52.6171-47.30223-89.4225-94.60446-99.9193-20.99369-5.3149-36.80539-5.3149-57.79907 0-115.73102 26.3085-136.7247 173.5301-52.61709 241.9589 15.8117 15.8117 36.80539 20.9937 57.79907 31.4905 26.30855 5.3149 57.79907 5.3149 84.10762 0 84.10761-26.3085 126.22786-115.731 105.23417-199.8386-10.49684-26.3086-20.99369-52.6171-42.12024-73.6108-26.30855-26.3085-57.79907-42.1202-94.60446-47.3022-42.12024-5.3149-78.92563 5.3148-115.73102 20.9937-15.8117 5.3148-26.30854 20.9936-42.12024 31.4905-84.10761 84.1076-63.11393 241.9589 47.30223 294.5759 31.49053 10.4969 63.11393 26.3086 99.91931 26.3086 36.80539-5.3149 73.61078-10.4969 105.23418-31.6234 20.99368-15.8117 36.80538-26.3086 52.61708-47.3022 94.60446-120.913 31.49053-299.758-115.73101-336.5634-26.30855-5.3148-52.61709-10.4968-78.92563-5.3148-47.30223 5.3148-84.10762 20.9937-120.913 47.3022-110.41616 84.1076-115.73102 252.4557-20.99369 347.0602 20.99369 20.9937 52.61709 36.8054 78.92563 52.6171 36.80539 15.8117 73.61077 26.3085 115.73102 20.9936 31.49053-5.3148 57.79907-15.8117 89.42247-26.3085 31.49053-15.8117 63.11393-36.8054 84.10761-63.1139 26.30855-36.8054 47.30223-73.6108 52.61709-115.731-10.76259 147.4872-179.11069 242.2246-315.83539 200.1043-26.30854-5.3148-47.30223-20.9937-68.42879-31.4905-78.92562-47.3022-115.73101-136.7247-110.41615-220.8323 0-20.9937 10.49684-36.8054 15.8117-57.7991 15.8117-84.1076 84.10761-131.5427 163.03324-157.7184 99.91932-26.30852 205.15349 20.9937 257.77058 115.731 31.49052 57.7991 36.80538 126.2279 10.49684 189.3418-15.8117 26.3086-31.49053 52.6171-52.61709 73.6108-26.30854 26.3085-57.79907 42.1202-94.60446 52.6171-26.30854 5.3148-47.30223 10.4968-73.61077 5.3148-20.99368-5.3148-36.80538-10.4968-57.79907-15.8117-31.49053-15.8117-63.11393-36.8053-89.42247-68.4287-73.61078-99.9194-36.80539-247.1409 78.92563-299.758 31.49053-10.4968 63.11393-20.9937 94.60445-15.8117 68.42879 10.4969 120.91301 47.3022 152.53641 110.4162 42.12024 99.9193-5.31486 215.6503-110.41616 236.644-20.99369 5.3148-36.80539 10.4968-57.79907 10.4968-68.42879-10.4968-131.54272-52.6171-147.22155-120.913 0-20.9937-10.49684-36.8054-5.31486-57.799 15.8117-78.9257 78.92563-142.0396 163.03325-136.7247 84.10761 5.3148 152.5364 94.6044 126.22786 178.8449-10.49685 20.9937-15.8117 42.1202-36.80539 57.7991-15.8117 15.8117-36.80538 20.9937-52.61708 31.4905-57.79908 20.9937-120.91301-15.8117-147.22155-68.4288-5.31486-20.9937-15.8117-42.1202-10.49684-63.1139 15.8117-84.1076 120.913-131.5427 184.02693-63.1139 15.67883 15.6788 20.86081 41.9873 26.17567 62.981 5.31486 36.8054-15.8117 63.1139-42.12024 84.1076-42.12025 26.3086-94.60446 5.3149-120.913-36.8054-10.49685-20.9936-5.31486-47.3022 5.31485-68.4287 15.8117-20.9937 36.80539-31.4906 63.11393-31.4906 23.98451 0 41.23931 14.86 48.993 34.3086 7.53814 18.9078 6.09609 42.1526-6.87275 60.2959-15.81171 10.4968-36.80539 15.8117-57.79908 15.8117" fill="#fff" opacity=".9"/></g><g opacity=".75"><path d="m149.77148 21.167969c17.2042 27.394435 25.75065 60.105166 19.08204 92.421871-3.17432 22.3905-3.99177-19.220801-7.53907-28.324215-3.81-9.777593-7.24471-19.907461-12.66518-28.932511-5.44428-9.064696-11.797-17.830656-19.67661-24.881942-14.74823-13.197858-50.359378-31.451172-50.359378-31.451172s19.834453 29.64228 27.761718 45.5625c10.79197 21.673371 21.49474 43.900025 26.72264 67.54047 5.16002 23.33348 7.84685 47.33081 4.19338 71.56891-4.33222 45.36845-35.37384 82.66272-39.576176 128.0957-4.469497-34.25633 8.549886-66.71669 16.705076-99.20313 10.536-52.4701-6.26051-105.06898-32.937498-147.992184-18.403085-29.610519-81.482422-65.572266-81.482422-65.572266s51.094336 48.878163 67.298828 79.619141c13.164037 24.973039 20.150785 53.862709 22.466797 81.656249-3.94917-12.07522-8.360838-24.08892-14.815564-34.98467-6.246317-10.54395-14.206641-20.10547-22.803577-28.839548-15.743597-15.994743-52.146484-42.590821-52.146484-42.590821s29.169753 38.292769 40.107422 59.592769c13.016441 25.3482 24.702934 52.08219 29.825486 80.11286 4.976794 27.23308 6.025726 55.61001.424514 83.05121-5.694928 57.52264 15.048713 115.3794 50.662108 160.19531-46.038121-49.96099-77.442707-114.26721-82.92578-182.4043-8.022936-20.43805-10.090267 23.16445-10.052734 32.33203-3.720199 81.26458 36.252128 159.15124 96.257814 212.25977h242.6582c58.10927-51.50701 97.7367-126.10069 96.36328-204.87891-.43845-11.51927.059-50.07247-8.61133-43.76367-5.21173 27.02252-8.07148 55.1407-18.84765 80.9668-14.47704 38.82787-37.32588 74.20727-65.05469 104.87305 32.89731-44.94766 55.08166-100.24668 49.26172-156.82422-5.81458-29.31617-4.80272-59.83631 1.05974-88.87895 5.98494-29.64942 19.62523-57.54635 34.20002-84.05074 12.36445-22.484856 44.67188-62.69336 44.67188-62.69336s-39.62847 29.095684-56.93945 46.414062c-9.6117 9.615808-18.68884 20.011908-25.75731 31.625918-7.22674 11.87406-12.25546 25.013-16.6216 38.24518 1.30606-15.25066 5.30977-29.70941 9.6139-44.13918 4.43817-14.87914 8.2058-30.470811 16.64001-43.507308 18.75089-28.982657 73.06445-73.388672 73.06445-73.388672s-64.50303 33.189268-87.61914 59.996094c-17.25424 20.009045-28.40627 45.608796-34.67791 71.274666-6.35078 25.98975-7.26975 53.16628-2.12678 80.2351 6.59567 30.64005 20.19795 60.32826 17.59961 92.45117-6.52838-42.71306-35.63464-78.31308-38.52539-122.00586-3.3659-24.64365-.21697-48.88947 5.43243-72.43347 5.70786-23.78763 17.13193-45.949453 28.31757-67.7052 7.49223-14.572174 25.84668-41.8125 25.84668-41.8125s-34.22441 16.057871-47.75879 28.802734c-12.82896 12.080595-23.1431 27.303413-29.96994 43.548945-6.76209 16.091444-10.04305 33.496081-10.03787 51.392461-9.63277-35.977351-1.6938-74.365755 18.56641-104.990234l69.20019-68.753906h-164.24707-171.386718z" fill="#9db3df" opacity="1"/><path d="m153.29883 19.607422c27.8355 43.082432 26.94243 85.562128 7.24805 139.785158 7.37061-49.38766-1.68768-89.246115-31.57422-127.941408-7.79985 4.320136-15.3502 9.017047-22.59766 14.111328 42.50147 61.91227 48.56129 135.55642 15.00781 204.125-15.71617 32.12015-22.703026 65.31495-21.36328 97.875-6.483521-22.9413-8.456461-46.32001-5.703124-69.49023.63295-3.6247 1.186231-7.25933 1.650391-10.88086 1.637238-8.92249 3.987148-17.81094 7.052733-26.60157 20.28291-58.14592 11.70102-119.87709-21.537108-175.017574-4.917734 4.49312-9.64297 9.181894-14.183594 14.046875 20.829231 35.976129 29.871288 74.409199 26.357422 112.343749-6.588353-34.17379-20.749645-66.40745-41.509766-94.511718-4.243623 5.494028-8.25915 11.163828-12.039062 17.001948 30.150213 43.42365 43.422517 96.79511 36.179687 151.22071-.419859 2.46008-.802347 4.92048-1.123047 7.38476-.0897.54117-.168721 1.07512-.263671 1.61524h.06641c-6.912873 56.75142 11.814938 114.52898 52.316399 164.59961 6.75675 11.6811 14.74948 23.00175 23.9336 33.89062-72.364246-63.9544-110.520563-138.98201-116.699218-216.125-11.722249 87.5603 15.93953 172.17323 95.666008 242.86328h47.04297c.0348.0295.0637.0661.0996.0977h137.63477c.0338-.0316.0639-.068.0976-.0996h46.01953c79.7286-70.68794 107.39202-155.30193 95.67188-242.86328-6.06577 75.71568-42.93217 149.39597-112.71289 212.56445 10.08291-12.3974 18.64766-25.33552 25.61328-38.69922 35.9727-48.08316 52.31991-102.61864 45.79102-156.22851-.005-.0211.004-.0442 0-.0664-.42724-3.49177-.95964-6.96994-1.58203-10.45117-7.17388-56.87466 8.02095-112.49564 41.46874-156.71289-3.88554-5.58582-7.95072-11.038337-12.26757-16.279298-23.35762 29.460548-39.19676 63.868368-46.31055 100.535158-3.64941-40.05489 6.75834-80.63862 30.18555-118.310548-4.65834-4.666834-9.54119-9.103843-14.55469-13.392578-36.09518 56.533356-45.99883 120.476066-25.0293 180.591796 3.05189 8.74738 5.38621 17.59146 7.02344 26.4707.005.0454.0269.0885.0312.13282.46416 3.62363.9853 7.25405 1.61719 10.88086h.0312c2.43054 20.43693 1.18171 41.02978-3.5918 61.34961-.0464-29.93437-7.15053-60.28846-21.55859-89.73438-34.2278-69.94421-27.35564-145.20928 17.49625-207.87506-7.05662-4.70058-14.37509-9.032217-21.91211-13.009766-31.55592 39.527393-41.16671 80.077086-33.6289 130.589846-20.03151-55.15468-20.59896-98.159389 8.72265-142.005861l46.81836-67.386719h-138.40039-143.625z" fill="#7896d3" opacity="1"/></g><g transform="matrix(-1 0 0 1 500.06641 -16)"><path d="m261.34742 275.5963c-3.84952-.0187-7.71982.0368-11.66337.16896a14.419909 14.419909 0 0 0 -6.98864 2.08392 14.419909 14.419909 0 0 0 -6.5897-1.32982c-23.06348 1.73921-43.79704 5.84882-60.56819 11.73065a14.419909 14.419909 0 0 0 -6.16728 4.35714 14.419909 14.419909 0 0 0 -.48968-.10795 14.419909 14.419909 0 0 0 -7.13101 1.50662c-6.12487 3.06242-11.41196 6.34362-15.87972 10.20212a14.419909 14.419909 0 0 0 -.11577.10013c-6.75116 5.95692-11.51162 13.88617-11.51162 22.21752a14.419909 14.419909 0 0 0 .0954.9606 14.419909 14.419909 0 0 0 -7.15605 6.585c-3.25598 7.00178-3.32415 14.50949-1.63959 21.20372a14.419909 14.419909 0 0 0 -5.56025 5.14722c-2.56867 4.64329-4.12715 9.57217-4.7733 14.47322a14.419909 14.419909 0 0 0 -11.31136 7.24522c-4.485977 8.71315-4.198113 17.19155-1.86802 24.42346a14.419909 14.419909 0 0 0 -4.670042 3.91127c-3.521382 5.74485-5.643171 12.40144-5.643171 19.06974a14.419909 14.419909 0 0 0 .175224 2.24506c2.616463 16.60632 13.367329 27.85529 23.447219 34.97917a14.419909 14.419909 0 0 0 10.45088 2.47035 14.419909 14.419909 0 0 0 7.07782 7.65669c11.16807 5.28002 23.17716 9.27556 33.43971 12.10926a14.419909 14.419909 0 0 0 9.01936-.53976 14.419909 14.419909 0 0 0 7.22332 4.36027c13.43998 2.80948 27.94311 4.83112 43.20377 6.02804a14.419909 14.419909 0 0 0 7.80374-1.60205 14.419909 14.419909 0 0 0 7.37976 2.50163c17.02574.60003 35.14632.0858 50.90739-1.34704a14.419909 14.419909 0 0 0 6.78682-2.43592 14.419909 14.419909 0 0 0 6.94796.934c20.40992-2.63595 39.02513-6.92577 55.0768-12.40494a14.419909 14.419909 0 0 0 6.23767-4.25859 14.419909 14.419909 0 0 0 6.9464-.81041c11.30782-4.82362 20.87281-10.36267 28.55062-16.71672a14.419909 14.419909 0 0 0 5.18945-12.13586c-.12408-1.73693 1.76297-7.35549-.18776-16.80903a14.419909 14.419909 0 0 0 -3.91278-7.0121c2.69826-4.61282 4.48447-9.72212 4.76547-14.96761a14.419909 14.419909 0 0 0 0-.0266c.39643-7.66482-2.25641-15.49846-6.83219-22.05013a14.419909 14.419909 0 0 0 -3.19313-2.48443c1.50032-3.42103 2.58555-7.19218 2.61895-11.5695a14.419909 14.419909 0 0 0 0-.11108c0-5.26959-1.64234-10.47673-4.11311-14.82993a14.419909 14.419909 0 0 0 -7.26708-5.87158c.12291-8.17472-3.81218-15.74076-9.2071-21.62614a14.419909 14.419909 0 0 0 -1.98223-1.25786c1.47596-4.20307 2.17035-9.46371.66804-14.68599a14.419909 14.419909 0 0 0 -10.74497-10.09262c-.94753-.20925-1.89463-.37069-2.84114-.52724a14.419909 14.419909 0 0 0 -7.4752-11.79166c-15.69701-8.47807-32.81846-12.62024-47.18074-15.14127a14.419909 14.419909 0 0 0 -6.9949.63988 14.419909 14.419909 0 0 0 -6.81497-2.65183c-12.62333-1.33463-23.98913-2.0592-35.53771-2.11521z" fill="#7896d3"/><g stroke-linecap="round" stroke-linejoin="round"><path d="m249.56445 272.18555a18.0018 18.0018 0 0 0 -7.06445 2.10742 18.0018 18.0018 0 0 0 -6.66211-1.34375c-23.33063 1.75935-44.32578 5.90222-61.48437 11.91992a18.0018 18.0018 0 0 0 -9.63477 25.98047c1.4474 2.50882 2.86098 4.67781 4.19336 6.89844a18.0018 18.0018 0 0 0 21.01367 7.85351c10.59544-3.45376 28.67029-6.56466 49.07031-7.79687a18.0018 18.0018 0 0 0 6.55664-1.80469 18.0018 18.0018 0 0 0 5.66993 1.25781c14.31162-.20842 30.0081.23211 42.25 1.42969a18.0018 18.0018 0 0 0 7.25781-.91602 18.0018 18.0018 0 0 0 5.02734 2.50196c11.41593 1.84767 20.11417 4.59329 23.37305 6.25976a18.0018 18.0018 0 0 0 14.21484.9375c2.8392-1.00745 6.12257-1.69127 9.38477-2.00195a18.0018 18.0018 0 0 0 6.84765-33.75586c-16.24742-8.77535-33.70042-12.96127-48.26367-15.51758a18.0018 18.0018 0 0 0 -6.45312.58985 18.0018 18.0018 0 0 0 -7.59961-2.63477c-16.94691-1.79175-31.74742-2.49905-47.69727-1.96484z" fill="#7896d3"/><path d="m250.16728 290.17639c0 2.66741.14419 5.69529.79302 9.08363 14.85102-.21628 30.9997.21628 44.26469 1.51394-.28837-3.09997-.28837-5.98367.14419-8.72317-16.36496-1.73022-30.1346-2.37905-45.2019-1.8744zm-12.97662.72092c-21.98816 1.65812-41.66936 5.6232-56.88085 10.95803 1.08139 1.8744 2.52323 4.10927 4.03717 6.6325 13.04872-4.25345 32.08109-7.35342 53.56461-8.65108-.50465-3.31625-.72093-6.34413-.72093-8.93945zm71.01095 3.02788c-.36046 2.30695-.28837 5.11855.43256 8.57898 12.47197 2.01859 22.34862 4.7581 28.69275 8.00225 4.46972-1.58603 9.15572-2.52323 13.69754-2.95578-13.48127-7.28133-29.26949-11.24641-42.82285-13.62545z" fill="#fff" stroke-width="36"/><path d="m234.36909 98.527344c-6.10008-1.626721-12.33377-2.352731-16.43415-2.141015-4.10038.211717-6.14207.432335-14.85812 1.925055s-20.90349 10.792876-28.54748 21.880066c-2.10849 3.29516-3.0862 7.18748-2.78516 11.08789-3.15687 2.22636-5.51384 5.40916-6.72266 9.07812-7.05113 24.9427-1.11664 53.23022 16.28907 74.51953 1.95915 2.39119 4.50106 4.23759 7.38086 5.36133.95924 2.84686 2.61568 5.40839 4.81836 7.45117 12.08306 10.9702 25.22283 19.29397 36.77929 26.93164 1.96091 1.13513 4.11848 1.88989 6.35938 2.22461 1.03525 1.78776 2.37049 3.38398 3.94726 4.71875 15.16394 10.53829 24.91497 19.93649 28.22852 28.84375.78175 1.37443 1.74118 2.63988 2.85351 3.76367-.58174 2.10299-.7763 4.29421-.57421 6.4668 1.82402 11.8037 2.1441 26.25923.85351 41.04492.0009 2.05105.35232 4.08686 1.03906 6.01953-1.16421 1.79369-1.99953 3.78047-2.46679 5.86719-1.43692 9.86907 10.43361 22.96124 21.1198 24.63691 11.16807 1.75123 27.21216-6.33736 28.89387-17.75605.34544-2.54966.14031-5.14374-.60156-7.60742 1.13826-1.92878 1.90662-4.05302 2.26562-6.26367 1.8922-20.33997 1.28514-40.34071-2.05664-58.53516-.59842-2.45012-1.70501-4.74714-3.24805-6.74219.4284-2.97291.10611-6.00577-.9375-8.82226-8.41186-22.4657-25.51239-37.26011-41.71488-48.89848-2.29637-1.60397-4.93535-2.64993-7.70703-3.05469-1.31944-2.33091-3.14238-4.33801-5.33594-5.875-13.66789-9.17082-26.30341-17.48671-35-25.70117-1.34712-.93564-2.81578-1.68278-4.36523-2.2207-.57685-1.94894-1.47959-3.78611-2.66993-5.4336-8.12574-14.7461-5.28899-22.04622-3.28515-33.55273 2.9017-1.25527 5.76534-.54901 8.71094-1.23828 1.49765 1.70945 3.09771 3.26031 9.89734 7.5381 6.79962 4.27779 22.87236.67966 30.13195-10.88771.0315-.05.0627-.10011.0937-.15039 7.17585-11.68976 3.47513-27.70793-8.55664-34.85742z" fill="#7896d3"/><path d="m231.24494 447.49962c3.53685-.58622 7.03063-1.78689 10.34458-3.38097-.0901 5.35207 1.61445 10.12159 5.23733 13.53866-4.13073 1.88816-8.50124 3.25178-13.04594 4.06089-10.80345.81639-9.91315-12.6696-2.53597-14.21858zm23.42213-.95644c3.41755-17.4948 14.58667-28.78302 21.33679-44.70973 5.39892-.32765 10.4475.13898 15.47735.21785-7.42278 19.48412-17.96454 36.82692-31.99795 47.91835-2.01193-.58642-4.43035-1.54189-4.81619-3.42647zm-72.32387-301.28831c5.18654-2.00615 11.22088-2.33095 16.18591-1.87369-5.78133 18.39298-4.17722 34.90822 6.27541 48.75802-4.25439 2.65809-7.73519 7.18203-9.55807 11.34448-13.30374-16.27211-18.05252-40.01378-12.90325-58.22881zm98.83339 242.40336c3.18874-10.01839 5.59446-20.70934 7.16468-31.49398 4.88747.46101 9.94914 1.47653 14.39452 1.66401-1.5646 10.62354-3.83355 21.09343-6.89678 31.21299-3.54431-.12377-15.14767.50339-14.66242-1.38302zm-75.56733-173.29583c1.16354-5.60493 3.3611-10.33498 8.23742-12.32614 10.46213 9.88212 23.83919 18.51109 37.33051 27.56344-3.54441 2.65062-8.19599 6.52073-10.96301 10.005-11.69859-7.7316-24.03599-15.64679-34.60492-25.2423zm-16.26008-83.95427c5.33848-7.74317 13.36249-13.77309 23.43313-15.49901 5.29628-.899 10.99191-.57754 16.94975 1.01125-3.77675 4.22327-6.1429 8.2377-6.51699 13.31532-5.3985-.88533-10.95442-.0341-15.27438 2.65395-6.15791-1.67964-12.60249-2.07889-18.59151-1.48151zm100.5399 212.84152c1.39805-16.01682 1.10825-31.73772-.99689-45.36056 2.9356-2.76867 7.2799-5.23005 13.5537-6.59173 2.98175 16.23428 3.59367 34.7408 1.83771 53.6163-5.18533-.24559-9.63819-1.14306-14.39452-1.66401zm-39.02159-96.46602c2.74268-3.71094 6.14285-6.85051 12.88124-8.58309 15.10606 10.85079 28.89699 23.33319 35.35933 40.59231-5.07486 1.20998-9.55778 3.02132-13.41315 5.33848-5.54449-14.90431-18.79595-26.20651-34.82742-37.3477zm-3.90604-123.17081c3.47681 2.05703 4.50959 6.57082 2.4196 9.9755-2.15556 3.43465-6.61334 4.43392-10.05155 2.28791-8.39752-5.53876 1.85213-15.71708 7.63195-12.26341z" fill="#fff" stroke-width="36"/><path d="m399.84185 358.94922c-1.6828-2.85076-4.1191-5.18231-7.04102-6.73828-.68309-8.23361-4.7046-15.73546-10.18262-21.58594.80392-4.46127 1.1869-9.38711-.23731-14.33789-1.82419-6.34205-6.97229-11.17762-13.41602-12.60156-10.2664-2.26717-20.39405-1.58169-29.64062.92382-4.41034 1.19539-6.65244 5.9521-10.60352 7.91016-3.1362 1.55422-.8203.25375-10.09375 2.89453-1.7902.71484-3.45396 1.71257-4.92773 2.95508-2.08499-.4703-4.23708-.56554-6.35547-.28125-11.72278 2.29216-26.29771 3.89175-41.74805 4.50977-2.26869.25286-4.46858.93489-6.48242 2.00976-2.28041-1.08336-4.76319-1.67495-7.28711-1.73633-8.02454 0-16.02201-.27368-23.66797-.75586-4.5652-.28777-16.00626-.78062-23.15815-3.97336-6.71974-2.99982-14.91135-9.80927-17.30669-13.70632-1.54554-2.5023-2.83815-4.59434-3.71289-6.18946-3.01446-5.49567-8.67054-9.02766-13.34055-9.24862-4.67002-.22096-7.73467.42667-10.49152 1.80526-6.32112 3.16056-11.82955 6.55886-17.71498 11.70579-5.88542 5.14693-11.03806 13.54261-11.57018 22.55789-2.98455 1.77716-5.3912 4.37984-6.92969 7.49414-3.25668 7.00329-3.61309 14.65222-2.22851 21.63086-1.88328 1.18617-3.53027 2.71131-4.85742 4.49804-2.35429 4.25577-3.98505 8.82163-4.8711 13.43946-4.73273 1.1522-8.79654 4.1731-11.26367 8.37304-4.610459 8.95496-4.689 17.52288-2.71289 25.00782-1.364181.8611-2.606423 1.90167-3.693359 3.09375-3.803349 6.20485-6.171875 13.5658-6.171875 20.9414-.000255.93852.07288 1.87562.21875 2.80274 2.781089 17.65122 14.538654 30.0102 24.917964 37.3457 3.09969 2.05848 6.76109 3.10586 10.48047 2.99805 1.72142 3.18773 4.3646 5.7819 7.58399 7.44336 11.44231 5.40968 23.60544 9.44922 34.01758 12.32421 2.87731.73317 5.89129.74323 8.77343.0293 2.21513 1.88344 4.8535 3.20229 7.68946 3.84375 13.60881 2.84478 28.25994 4.8841 43.6582 6.0918 2.68828.15316 5.37669-.29869 7.86719-1.32227 2.29665 1.28071 4.846 2.04271 7.46875 2.23242 17.18988.60582 35.42398.0872 51.35742-1.36132 2.41374-.26778 4.74834-1.02118 6.86328-2.21485 2.2665.69193 4.64731.92955 7.00586.69922 20.62677-2.66396 39.46322-6.99958 55.77734-12.56836 2.60537-.91836 4.96443-2.42402 6.89453-4.40039 2.2068.14908 4.42219-.1098 6.53516-.76367 11.55591-4.92944 21.40266-10.60889 29.42969-17.25195 4.47965-3.70741 6.89264-9.35033 6.47851-15.15039-.0653-.91484 1.9486-6.60371-.2539-17.27735-.6251-2.38632-1.73398-4.6187-3.25782-6.55859 2.31462-4.52818 3.91039-9.44242 4.18165-14.50586l.002-.0332c.4412-8.53009-2.54822-17.23426-7.47266-24.28516-.60032-.53544-1.23586-1.03004-1.90234-1.48047 1.10543-3.17498 1.94269-6.5709 1.97265-10.56445.00001-6.02014-1.87164-11.89599-4.58007-16.66797z" fill="#7896d3"/><path d="m168.1983 306.90181c-5.33483 2.66741-9.73246 5.47901-12.90453 8.21852-4.90228 4.32554-6.63249 8.08876-6.63249 11.40501 2.09068 10.3813 11.96733 15.42776 20.18585 19.24865 2.59533-5.26274 5.6953-10.23711 9.58828-14.63474-7.4976-2.95579-11.46268-6.41622-11.53477-9.94874 0-2.46556 1.8744-4.9167 5.47902-7.29575-1.51394-2.45114-2.95579-4.75809-4.18136-6.99295zm175.8332 15.08171c-2.45114 3.96508-9.58828 7.64179-20.47422 10.74176 1.80231 6.19994 2.37905 12.25571 2.59532 18.31146 11.39059-3.60462 23.86257-8.14643 32.72992-15.78823 3.89299-3.96508 7.71388-8.72317 6.19994-13.98591-6.92086-1.52836-14.34637-1.0958-21.05096.72092zm-33.23456 13.76964c-12.90453 2.52323-28.2602 4.18135-44.48097 4.83018-4.7581 8.93946-4.97437 12.61617-5.98367 19.75331 19.24866-.36046 37.27174-2.52324 52.77159-5.98366-.14418-6.48831-.21628-12.68826-2.30695-18.59983zm-83.77129 4.32554c-6.6325 5.47902-11.75106 11.3185-15.64404 17.30217 11.10222 1.65811 23.14164 2.7395 35.82989 3.02787 1.08138-6.92086 1.58603-12.11151 4.61391-19.53703-8.43481 0-16.79752-.28837-24.79976-.79301zm-86.77035.0721c-7.47596 16.0766 9.63155 26.3858 20.37331 31.72063.8651-4.686 2.01858-9.44409 3.46043-13.98592-9.37201-4.6139-18.23936-9.66037-23.83374-17.73471zm229.36898 2.81161c-6.84877 6.41621-15.86031 11.46268-23.06955 14.56265 2.09068 7.20923 2.59533 14.63474.72093 21.41142 8.36271-3.31625 15.13939-7.06505 19.7533-10.95804 5.6232-4.6139 7.93015-9.01154 8.07434-13.1208.14418-3.67671-1.51394-7.56969-5.47902-11.89523zm-35.25315 19.10446c-14.05801 4.61391-30.78343 8.00225-49.09488 9.80456-5.91157 5.11855-5.98366 13.04871-5.19065 19.60911 17.51844-.86511 33.73921-3.09997 47.58094-6.48831 7.35342-8.07434 9.37201-13.33708 6.70459-22.92536zm-201.77203 5.33483c-11.84477 21.41143 9.79015 33.01829 24.71326 39.43451.14418-6.92086.50464-14.20219 1.29766-21.48352-10.02083-5.26274-19.17657-10.23711-26.01092-17.95099zm251.58783.43256c-4.54181 7.13714-10.66966 12.11151-17.30216 16.0045 1.51394 5.33483 1.65813 10.38129.36046 15.21148 8.36271-4.97437 19.10447-14.05801 19.17656-23.5021 0-2.52323-.72092-5.04647-2.23486-7.71388zm-179.07735 1.73021c-2.01859 5.19065-3.38834 10.3813-4.32554 15.71613 3.6767.79302 7.4976 1.51394 11.46268 2.23486.28837-6.27203 1.94649-11.53477 5.26274-16.14868-4.25345-.50464-8.36271-1.08138-12.39988-1.80231zm28.69274 3.24416c-5.19064 4.61391-9.372 10.52548-8.57898 16.58123 15.06729 1.73022 27.97182 2.52324 41.81355 2.45114-.43255-6.92086-.36046-12.90452 1.8744-18.744-11.75105.50464-24.22302.36046-35.10897-.28837zm-117.08516 15.9324c-3.7488 7.28134-.75697 16.0045 3.09276 21.19515.96604-2.88369 2.08347-6.34413 3.58299-10.3092-2.91974-3.38834-5.20506-6.99296-6.67575-10.88595zm238.48865 1.0093c-15.64403 6.34412-34.02758 10.38129-48.66232 12.39988-4.54182 4.83018-2.66742 11.53477-1.73022 16.8696 17.66262-2.81159 33.37875-6.99295 46.21119-12.11151 2.01858-5.47901 5.26274-11.82314 4.18135-17.15797zm34.38805 8.21852c-.64883.72093-1.29766 1.36976-2.01859 2.01859 1.00929 7.56969 1.22557 16.14868 1.00929 23.06954 3.38834-4.03717 5.04647-8.00224 5.26275-12.03942.21627-4.18135-1.08139-8.50689-4.25345-13.04871zm-190.32376.28837c-.36047 6.92087-.21628 13.76964.14418 20.40213 7.64179 1.29766 15.78822 2.37905 24.22303 3.09997-1.51394-6.92086-1.58604-13.40917 1.44184-19.32074-9.01154-1.0093-17.59053-2.45114-25.80905-4.18136zm92.134 5.47902c-18.38355 1.22557-34.17177 1.36975-50.96928.21628-6.5604 4.97437-4.97437 13.1208-2.8116 18.744 18.31145.79302 37.34383 0 54.28553-1.94649-.9372-6.05576-1.87441-11.46268-.50465-17.01379zm-157.51455 5.11855c-1.39138 4.10927-2.46556 7.64179-3.79926 11.10222 9.58828 6.6325 17.70588 11.03013 27.29416 14.99521-.0721-4.32553-.14418-9.08363-.21628-14.1301-8.93945-3.46043-16.76868-7.4255-23.27862-11.96733zm241.57421.43256c-11.89523 7.06505-24.00675 11.75105-36.26244 15.35567-1.0093 8.07434-3.53253 15.86031-.79302 22.92536 11.82314-2.8837 23.57419-6.77668 33.81131-12.18361 3.53252-8.14643 3.6767-18.8161 3.24415-26.09742zm-265.81165 8.72317c-2.38626 3.89299-3.51811 7.71388-3.51811 11.53477 1.9537 12.39989 8.65108 19.17657 17.52565 25.4486-.66325-7.28133 1.36975-14.49056 5.7025-19.7533-7.7355-5.26274-14.49777-10.3813-19.71004-17.23007zm215.41911 10.30921c-12.97662 2.95578-27.10672 5.19064-42.17402 6.41621-5.33483 5.40693-5.55111 13.26499-3.09997 19.89749 16.36496-.36046 31.72063-1.9465 45.56236-4.39764-1.29766-7.20923-1.15348-15.49985-.28837-21.91606zm-125.00811 3.60461c.36046 5.11856-.0721 11.10222-2.88369 15.0673 3.67671.79302 7.4976 1.58603 11.39059 2.30695-.79302-5.69529-.86511-11.03012 1.08138-15.9324-3.24415-.43256-6.48831-.9372-9.58828-1.44185zm23.5742 2.8837c-4.18136 4.686-2.45114 11.75105-1.29767 16.65332 15.64404 1.9465 29.41368 3.02788 43.90423 3.24417-1.29766-6.6325-1.15347-13.04872.86511-19.03238-14.49056.57674-30.35087.21627-43.47167-.86511zm169.63326 1.8744c-8.00225 6.63249-17.8789 12.03942-25.95324 15.35566-1.58603 5.04647-.28837 9.66038.8651 14.1301 10.30921-4.39763 18.74401-9.372 25.01604-14.56265-.36046-5.04646 1.0093-10.3813.0721-14.92311zm-252.29434 5.04646c-6.68295 6.05576-3.97949 16.29287-1.94649 22.13235 10.06409 4.75809 21.45468 8.57898 31.11505 11.2464-1.73021-7.78597-1.65812-14.85102 2.09068-21.12305-11.39059-3.74881-21.55561-7.42551-31.25924-12.2557zm212.64355 15.13939c-14.92311 4.54182-32.22527 7.78598-51.11346 9.51619-2.8116 5.11855-.36046 11.60686 1.22557 16.22077 19.53702-2.52322 37.27173-6.63248 52.26694-11.75105-1.29766-4.90228-2.45114-9.29991-2.37905-13.98591zm-167.90304.86511c-6.48831 6.48831-2.8116 15.86031-.21628 20.97887 12.76034 2.66741 26.67416 4.61391 41.381 5.76738-2.01858-6.5604-2.16277-13.40917.28837-19.32074-14.63474-1.73022-28.54856-4.25345-41.45309-7.42551zm56.15993 8.86735c-5.6953 4.97438-3.53253 13.26499-.43256 18.74401 16.36496.57674 34.02758.0721 49.09488-1.29766-1.73021-5.55111-2.88369-11.39059-2.09068-16.72542-17.01379.57674-31.36016.43255-46.57164-.72093z" fill="#fff" stroke-width="36"/><path d="m206.9375 311.04883c-14.80356-.30794-27.40152 9.9422-35.80976 21.26174-5.20731 7.36803-9.48627 15.58278-11.60127 24.38605-1.91459 8.21374 4.36785 19.10502-2.51704 24.82302-5.57565 7.07721-4.08217 16.32384-4.74083 24.6936-.0737 10.77429-.45191 21.61084.60054 32.33367 2.32308 11.01312 11.47945 20.9628 23.16155 21.58505 10.88151 1.09959 21.33843-5.06481 27.67513-13.53147 3.07986-7.85745.86946-16.4932.86488-24.67685-.70774-6.56316.0572-13.24216-.97023-19.75525-2.02432-5.67057 2.7007-11.36767 3.0013-17.36051 4.42856-14.84122 11.55053-29.32 22.69013-40.28531 7.57866-8.76581 3.55208-22.51053-6.02423-27.87325-4.82238-3.24247-10.48793-5.3939-16.33017-5.60049z" fill="#7896d3"/><path d="m197.25151 331.93226c-9.51619 5.98367-15.78822 15.57195-19.89748 27.25092.64883 10.59756 1.15347 25.16021 9.372 32.802 3.17206-22.92536 15.35567-46.28327 28.54856-58.75525-5.91157-5.62321-11.89523-5.11856-18.02308-1.29767zm-26.24161 59.98083c-1.22557 14.9952-.79301 30.13459-.64883 42.39029 3.53253 14.56265 16.9417 5.11855 16.9417 3.17206-.21628-8.79526-1.29766-19.53702-1.22557-31.21598-7.35342-3.82089-12.03942-8.07434-15.0673-14.34637z" fill="#fff" stroke-width="36"/></g></g></svg>