<svg height="500" viewBox="0 0 500 500" width="500" xmlns="http://www.w3.org/2000/svg" xmlns:xlink="http://www.w3.org/1999/xlink"><radialGradient id="a" cx="328.81909" cy="429.40341" gradientTransform="matrix(0 -1.1720021 1.0000001 .0000021 -179.40343 678.37627)" gradientUnits="userSpaceOnUse" r="250"><stop offset="0" stop-color="#ff8066"/><stop offset=".86848593" stop-color="#ff8066"/><stop offset="1" stop-color="#ff8066" stop-opacity="0"/></radialGradient><g transform="translate(.000015)"><circle cx="-249.99998" cy="250" fill="#e51a1a" r="250" transform="scale(-1 1)"/><path d="m181.33938 83.856939c97.52275-31.84694 203.27597 26.159281 217.12696 131.568651 10.04116 85.89723-45.79566 162.6049-131.11288 174.6444-76.26503 6.65-147.16573-45.4981-149.44603-126.3231.16679-50.89801 30.03241-87.97493 76.60677-108.40662 44.00125-16.48183 90.46555-3.00917 112.28155 39.63622 17.95322 40.0953 3.57775 87.31302-40.4313 103.80676-21.98685 8.23292-51.6578-5.55285-56.72562-31.5612 24.48155 21.7253 69.7211 11.74379 80.1808-21.06198 5.24648-24.88185-11.48198-41.52298-24.36368-55.64156-23.21161-15.22125-63.26956-13.16738-85.32502 12.05139-41.51846 46.43224-18.48961 112.52397 35.72777 131.08081 60.66482 17.11352 118.96473-29.63961 126.96137-92.39988 2.7637-54.83226-40.99398-106.19486-96.51046-114.27807-76.21988-10.3001-138.45939 50.84936-147.743191 124.09106-9.31956 73.21828 47.315731 138.67973 111.863041 158.33924 49.05305 9.49897 98.18701 2.07129 139.64056-27.40671 82.90715-58.95602 100.11901-177.97214 43.55644-260.39974-52.71171-79.885311-158.575-103.987181-249.15842-67.061741-86.705021 39.45169-149.0660905 134.549061-117.102931 229.167621 15.77888-74.65377 50.93986-153.5943 123.407351-187.514491 9.28724-4.60517 19.44718-8.7232 30.56692-12.33106zm-160.722321 286.075591c-52.57825-113.8254-.38403-260.89182 113.777041-317.643861 10.84604-5.32012 22.21219-9.7712 34.03518-13.36069 115.76394-28.75816 246.03978 34.00351 263.68455 158.897471 10.04526 85.91695-27.72044 168.80365-107.97396 206.83173-102.24035 46.26108-224.798841-11.43986-234.690511-131.24969-7.33455-123.78718 127.307171-194.136761 222.718561-137.24102-42.54074-27.89653-94.21826-33.44528-140.80825-12.98978-71.17376 32.62266-105.080851 118.0397-80.762351 190.63139 30.697281 88.13423 123.572931 132.04164 212.817841 105.59803 82.80488-25.06359 132.16266-100.33164 140.19255-180.04986 12.12434-145.020371-132.23823-245.3588802-265.59709-221.973611 7.92036-4.10499 20.5989-8.4277792 35.61563-11.7452592 60.06317-13.23825 124.63426-3.45807 179.45368 32.4903392 109.65077 71.904621 141.09454 217.803071 65.16008 333.599141-143.00482 218.07486-377.311781 117.06797-437.622951-1.79433" fill="#b21a1a"/></g><g opacity=".75"><path d="m422.55902 244.31787-37.30136 152.84786-40.78554 16.01125c-10.39784-7.28779-21.86679-13.22992-33.51315-18.40683-6.24485-2.77589-12.78849-4.87587-19.36708-6.72679-6.90561-1.94293-13.90981-3.69423-21.02922-4.5754-14.34212-1.77512-28.91159-2.3316-43.3324-1.38935-8.77682.57347-17.47296 2.27319-26.03879 4.27016-6.51919 1.51984-12.94786 3.48719-19.21139 5.84897-7.9508 2.998-15.71951 6.52719-23.21735 10.5254-5.78778 3.08633-11.39854 6.53806-16.73291 10.3549-7.39774 5.29321-14.51742 11.02642-21.08182 17.32798l-68.44123-84.6527 11.112905-19.85536-21.185183-32.43629-15.145957 27.0612-18.580196 33.19713 35.592932 35.24433-25.878883 39.45239 63.59262 57.26453c-2.093454 4.66908-4.001759 9.4413-5.69651 14.31876h333.686102c-2.02613-5.83739-4.35207-11.52742-6.94732-17.06483l67.35873-68.93301-53.93748-61.8494 2.53739-10.39068 18.56757-37.72096zm-11.78646 131.21394 32.88932 37.71254-50.41122 51.58922c-8.61577-13.90406-19.08725-26.51349-31.08622-37.47255l39.76932-15.61339zm-352.216854 27.5513 45.931864 45.4824c-4.767608 6.05211-9.149135 12.42524-13.107763 19.08256l-47.262624-42.55422z" fill="#ff8066" opacity="1"/><path d="m19.068318.00105255 71.627698 114.59011745-69.687834 60.57898 103.639668 123.65775-15.97337 64.40497 33.35535 49.84517c-7.47437 5.22903-14.51742 11.02642-21.08182 17.32798l-68.44123-84.6527 31.852066-15.93336-84.358846-129.16043v83.06652l27.288545 36.79682-18.580196 33.19713 35.592932 35.24433-25.878883 39.45239 63.59262 57.26453c-2.093454 4.66908-4.001759 9.4413-5.69651 14.31876h333.686102c-2.02613-5.83739-4.35207-11.52742-6.94732-17.06483l67.35873-68.93301-53.93748-61.8494 2.53739-10.39068 18.56757-37.72096 40.90862 30.6963 21.50788-25.31676v-99.12408l-39.67043 67.44997-37.77055-33.42869-37.30136 152.84786-40.78554 16.01125c-10.39784-7.28779-21.62149-13.47778-33.51315-18.40683l78.82539-110.37364-24.90263-41.76271 50.99297-76.14711-98.65851 7.89826 48.21678-83.813816 35.67709 32.821376 72.81328-123.39251h-22.82812l-54.56236 92.458336-35.88117-33.007673-67.21462 116.837287-26.84671 2.15034 100.89188-178.43723745h-141.15563l-56.43069 258.10930745 90.33729-24.10529-29.79228 51.79133-56.4875 16.83854 8.02666 89.5628c-8.03507 2.95764-15.78822 6.48154-23.21735 10.5254l-28.90861-43.19942 16.28476-65.66803-6.98835-8.34137-62.298674-107.98016 90.202634-47.89377-49.69377-129.63933745zm298.632842 218.67060745-90.47089 163.40695c-8.8893.78731-17.58712 2.22086-26.03879 4.27016l-6.22355-69.45717 48.59654-14.48612 43.46179-75.55137 30.67279-8.18245zm35.06483 42.04479 13.54223 22.70962-74.71633 104.61729c-6.84528-1.93668-13.86519-3.46812-21.02922-4.5754l82.20227-122.75256zm58.00657 114.81536 32.88932 37.71254-50.41122 51.58922c-8.61577-13.90406-19.08725-26.51349-31.08622-37.47255l39.76932-15.61339zm-352.216854 27.5513 45.931864 45.4824c-4.767608 6.05211-9.149135 12.42524-13.107763 19.08256l-47.262624-42.55422z" fill="url(#a)" opacity="1"/></g><path d="m249.81445 120.95703c-28.30001 0-49.06445 26.07374-49.06445 55.58789 0 5.61485.96499 11.01464 2.37695 16.22461-18.21553-12.203-37.22796-29.55411-56.67383-49l-9.18945-9.18945-43.392576 21.78711 11.373046 16.95312c11.65218 17.36938 24.78129 38.45677 41.06055 56.99024 15.34931 17.47476 42.94991 40.73368 46.0957 43.37695 7.11802 9.7493 7.34069 16.42931 5.67188 26.90625-1.7329 10.87923-7.20362 24.45905-9.0918 41.29883l-.0195.18359-.0176.18555c-2.09187 22.90743-.42395 61.33385 1.50195 95.63672 1.92591 34.30287 4.3086 63.5625 4.3086 63.5625l1.34764 16.53906h42.41992 21.63282 41.39062l1.55664-16.28711s2.79865-29.25196 5.17188-63.55859c2.37323-34.30664 4.52772-72.70909 2.57226-95.77735l-.11328-1.33984-.31055-1.30859c-4.25743-17.87881-8.35786-30.0932-9.19531-39.22266-.78379-8.54462.19418-15.40706 6.78906-27.50391 4.23656-3.56772 30.31721-25.62187 45.31055-42.6914 16.27946-18.5337 29.40605-39.62147 41.0586-56.99024l11.375-16.95508-43.39258-21.78515-9.18946 9.18945c-19.44682 19.44641-38.46025 36.7969-56.67578 49 1.41201-5.21004 2.37696-10.60967 2.37696-16.22461 0-29.51415-20.76443-55.58789-49.06446-55.58789z" fill="#861313"/><path d="m255.79278 500h29.39073s11.1097-116.20154 7.72743-156.10175c-8.05783-33.8383-17.8041-50.07807.71348-82.23198 0 0 32.25669-27.38616 46.17764-43.2348 14.93247-17.00019 27.75296-37.42787 39.63569-55.13974l-13.53316-6.7946c-37.17996 37.17916-74.83546 72.03027-116.08971 72.03027s-78.91053-34.85111-116.08887-72.02948l-13.53315 6.79462c11.88193 17.71186 24.70317 38.13955 39.63563 55.13973 13.92072 15.84835 46.17685 43.234 46.17685 43.234 22.06396 28.77379 3.89771 55.17022.86338 82.23198-3.63825 39.84131 5.82664 156.10175 5.82664 156.10175h30.18843l6.45449-156.10175zm-5.9779-361.0436c-16.59584 0-31.06494 16.18676-31.06494 37.58784 0 21.40106 14.4691 37.58782 31.06494 37.58782 16.59586 0 31.06495-16.18676 31.06495-37.58782 0-21.40108-14.46909-37.58784-31.06495-37.58784z" fill="#ff8066" stroke-width="36"/></svg>