<svg height="500" viewBox="0 0 500 500" width="500" xmlns="http://www.w3.org/2000/svg" xmlns:xlink="http://www.w3.org/1999/xlink"><filter id="a" color-interpolation-filters="sRGB" height="1.148904" width="1.128081" x="-.06404" y="-.074452"><feGaussianBlur stdDeviation="10.000011"/></filter><g transform="translate(-1000 -500)"><circle cx="1250" cy="750" fill="#8f29a3" r="250"/><path d="m1250.0521 500.09326-.061 248.75004-15.9199-248.2399a249.99917 250.18666 0 0 0 -31.6776 4.06945l45.0428 231.17052c-.102.0363-.2268.0547-.3789.0547l2.377 12.94521-.25-.53361-.5352-1.34279-3.3574-10.61339c-.1814.0698-.3456.12506-.5117.12506l-.1211.0782-83.1951-220.24831a249.99917 250.18666 0 0 0 -14.7401 6.13348l96.9 214.60543-.2187.11532 2.3047 4.43886 2.3437 5.21678.055.0488.416.7486.7461 1.26658v.0314l-.7461-1.29782-.4707-.79746-5.5273-9.21c-.1841.12151-.3808.23754-.5664.39678l-123.4077-200.53639a249.99917 250.18666 0 0 0 -34.1776 25.40763l164.5483 186.40079-.3984-.58052.832 1.02616v.0508l-.3262-.32448-.094-.12903v-.006-.002l-176.1809-175.46484a249.99917 250.18666 0 0 0 -21.0273 24.05115l186.5306 143.42536-.1425.18569 10.4687 8.26398-2.0957-1.07698-9.4082-5.66242c-.1395.18156-.2273.33335-.3066.47301l-208.0031-109.74966a249.99917 250.18666 0 0 0 -7 14.40723l214.5266 96.34337c-.074.17741-.1655.3791-.2578.59419l12.1758 4.73596-.037-.0253.5254.23653-.4863-.21109.3574.18179.2129.0802-.2129-.0508v-.0295l-12.8066-4.08117c-.056.14944-.1255.33501-.1758.5082l-224.9661-68.33223a249.99917 250.18666 0 0 0 -8.7656 41.69908l246.1613 30.77687h-1.2363l-246.3644-14.82161a249.99917 250.18666 0 0 0 -.4219 14.51082 249.99917 250.18666 0 0 0 .6113 17.47203l234.4934-16.18786h-.027l.3066-.0234-.2773.0234 12.9687-.73492-7.6699 1.8549-.3028.0508-4.789.9382.07.23845-228.2004 55.91086a249.99917 250.18666 0 0 0 4.2871 15.37279l224.173-70.26921c.093.36314.1859.69573.2793.95971l11.9648-4.46623-6.7285 3.52803-218.2141 100.03556a249.99917 250.18666 0 0 0 21.0155 36.99246l204.0072-139.70972-2.9414 2.38851-191.599 150.2058a249.99917 250.18666 0 0 0 21.2792 23.80097l164.7143-167.43742c.2793.26396.5666.50585.8359.80333l7.6309-8.62753v-.0314l.7578-.86587.1855-.23653.7754-.84633.02-.0645.057-.0272-.023.15832-.1035.11531.051-.18179-.068.18179-1.3203 1.73762.6133-1.0457-.1856.20916-.7578.89715-2.5996 3.67852-4.2753 5.57643.287.1818-133.9214 192.92518a249.99917 250.18666 0 0 0 13.3768 8.68037l121.3629-200.99764c.1115.0698.2562.1641.4043.23263l6.9082-11.76855-.2793.71929-100.1481 226.51466a249.99917 250.18666 0 0 0 40.1346 13.79743l59.6931-236.78211-1.5742 9.22563.2364.0566-42.7675 230.89101a249.99917 250.18666 0 0 0 31.6386 3.76263l12.9316-234.50119c.2415.0238.455.0234.6602.0234h.031v-12.36276l.055-.87175.3809 3.35211.6328 9.85892c.1939 0 .3385-.0234.5058-.0234l27.248 233.23258a249.99917 250.18666 0 0 0 15.7831-2.3455l-42.1484-231.0161c.254-.028.4739-.0916.707-.11531l-2.0644-10.71502-.055-.13878-.3203-1.79235.018.0295.3575 1.90182 74.3923 234.18055a249.99917 250.18666 0 0 0 39.205-16.19959l-111.1503-215.75097 4.1406 6.7179.2696-.18569 120.6715 201.44522a249.99917 250.18666 0 0 0 26.2108-18.10533l-145.5071-184.32505c.254-.18717.4204-.39029.6562-.60397l-8.457-9.554 3.3672 3.03156 5.8437 5.83834.2872-.30686 174.8256 156.82795a249.99917 250.18666 0 0 0 10.2715-12.18293l-184.478-145.35845c.1296-.15783.305-.33279.4082-.48083l-9.3632-7.21437 211.5852 126.78601a249.99917 250.18666 0 0 0 18.7245-38.19257l-229.6555-89.16613 11.0274 3.36579.012-.18569 223.9289 70.91228a249.99917 250.18666 0 0 0 7.6836-30.99187l-231.1887-41.80463c0-.16199.037-.30149.037-.44955l-7.3671-.90693-4.5508-.79941 12.0312.70755c.03-.32965.029-.62841.029-.96361l235.009 1.78454a249.99917 250.18666 0 0 0 .011-2.19892 249.99917 250.18666 0 0 0 -.3809-13.81303l-234.6691 13.37131v-.33226l-11.7754.81114-2.207.14075 2.1641-.14075h.043l242.6422-45.60435a249.99917 250.18666 0 0 0 -11.2772-41.04821l-231.0032 85.65376-.2598.0684 10.5078-4.79069c-.1716-.35894-.395-.80876-.6601-1.20402l208.1651-109.51534a249.99917 250.18666 0 0 0 -7.877-13.90491l-200.7337 122.63837-.2109-.32833-5.6211 3.9033-4.707 2.86542 9.6699-7.59747-.1446-.20719 183.392-147.45376a249.99917 250.18666 0 0 0 -29.3651-30.85701l-161.2514 182.96656-2.3184 2.37091 151.2905-195.53064a249.99917 250.18666 0 0 0 -26.4154-17.96062l-119.2496 202.94829-.094-.0664-7.0644 11.68841 5.539-12.45265c-.2748-.15364-.5655-.24794-.8711-.35962l83.404-220.18189a249.99917 250.18666 0 0 0 -15.121-5.19332l-69.2811 225.07807c-.1088-.0378-.2229-.0651-.3808-.11531l-1.8809 7.53882-1.1289 3.69807 2.1055-11.46558c-.2011-.0197-.4082-.0561-.6133-.0743l40.1268-232.08917a249.99917 250.18666 0 0 0 -42.4354-3.64138zm-1.9453 235.66215 1.0117 8.77021v.043l.8711 4.45646v.46128l.029-.16807.023.62741v.1036l-.057-.1036v-.43977l-.066.30686-.2383-.49451-.5625-4.74964zm-9.3652 5.00568 7.0859 6.37391-.025-.0197zm25.7675 6.02013-11.8261 2.9006h-.057zm-12.1504.11531-1.6269 2.78332-.3496.40069.1113-.44954-.092.20719-.02.18179-.051.10553v-.0253l.051-.0802v-.16221l.02-.0197v-.10556l.012-.0234.082-.12118v-.0234l.033-.0272.061-.1505v.0197l-.061.13096-.033.0508zm-6.5292.23849 3.3242 2.54682.3633.56682-.4493-.16807.2012.13878h-.022l-.2188-.13878h.037zm5.0331.24627-.2968 1.58908.2968-.84047-.3339 1.37603-.1016.1505.1387-.68606.2617-1.56758zm-.582.38505-.086 1.71808-.057.19351-.1172-.46715zm3.1445.7447-2.2754 1.58908h-.023l-.4121.27757-.2871.11728.2129-.27557.074-.0215.8867-.71342zm-4.0429.57856.1348.14075v.0469l-.084-.1251zm3.8633.31665h.029l-.1738.0802zm-3.5254.18179.1835.3577v.0392l-.1835-.35376zm.416.0938.02.26385v.0392l.039.0958.047.11728-.047.0215-.039-.1192.039-.0197-.039-.0605v-.0352l-.057-.26192zm2.2207.0644-.07.0272-1.0156.30686.1562-.0605zm-5.6387.0665 2.3692.40655.3457.21498.029.0606-.3124.0644zm2.1641.31271h.053l.094.0314zm.7265.19155h.02v.0196zm-.164.0606h.02l.074.0802zm.2148.1818h.024l-.024.0314zm-.3359.16808h.057l.2461.0352-.8125.32836zm-.3887.0352h.2168l-.9316.47886.2637-.0527-.025.0272-.2383.0253-2.0253.39287v.0234l-5.2422.93428 5.2422-.95774zm1.7774.0234.5078.043.7519.2228-.8457-.0841zm-.2188.16418.035.0178.1113.22088.3282.16611 1.4394 1.4034-1.3496-1.00858-.2344-.2971-.1855-.26385-.018-.0333-.092-.18766h-.035zm-1.0625.0802-.25.27364h-.029l-2.7812 1.26461 2.2988-1.41316zm1.5703.0997.1485.0253.031.0314zm.2207.0253 1.9356.60398-1.9063-.57074zm-1.1796.17201.031.1251.022-.0978-.022.13092v.006l.076.23066.125 1.89594-.2324-1.35256.031-.77402-.088.50819v-.0919l-.031-.18569.031.14272v-.26385zm.7226.0919.061.0664.088.14661-.037-.0314zm-1.1406.1818-.2442.52578-3.9492 12.85138 3.9219-12.85138h.027l.084-.28732.01-.0117zm-.088.10552-.065.11339.041-.0978zm1.4648.0802.033.0234.1152.18962-.092-.0919zm-.4375.21306.023.0295.029.22669zm-1.7304.26581v.0295l.051-.0295zm2.2929 1.35257 4.8828 10.7893-4.8828-10.73457z" fill="#aa40bf"/></g><g fill="#eed9f2"><path d="m67.446409-.0000005c48.876891 39.6061145 65.714601 69.2690015 56.509281 98.2837145-39.68951-30.858944-81.620179-48.549634-123.956219-63.871429l-49.999471-21.368943v60.014409h49.999471c38.063799 9.422789 75.540655 22.291239 110.637009 49.130249-13.779487 17.56084-36.274467 35.80574-66.242439 56.72041l86.553259 37.37762c-.47821 3.56812-.67773 7.23125-.53522 10.98622.6049 15.92141 7.61973 29.57315 17.2072 41.0798 7.57645 9.09448 16.78494 17.10797 26.4727 24.77415l-67.43216 49.16192-106.660349-61.98814-49.999471-30.39346v68.59444l49.999471 10.08262c118.687439 12.18862 152.141189 118.73495 0 143.39191h-49.999471l.00053 78.02451h17.689375l56.397531-50 121.411034-57.8373c-49.020457-58.12021-3.63779-106.64768 46.87113-135.00789 21.37072 16.26767 41.65621 32.46355 50.5005 51.65327l8.95935 19.43463 8.95725-19.43463c3.98721-8.65215 10.31587-16.68992 18.00422-24.40466l16.1547 121.93886c51.75672-29.94474 140.41812 7.38642 149.26347 43.65667l10.37953 50.00105h95.41138l-49.99947-54.98375-72.70305-87.87284c-70.05547 46.65685-117.79647-5.77866-124.72368-93.28834 6.27059-4.89825 12.7671-9.76693 19.21294-14.68735 11.04217-8.4273 21.85419-17.06257 30.83889-26.91079 37.52119 16.39224 49.05318 43.95753 26.28057 84.08303l121.09433-9.13565h49.99947v-55.56932l-49.99947 9.96602-84.56335 18.15729c-5.2994-25.50782-5.93807-44.02087 23.36167-69.52975-22.88874-3.51006-45.65502-6.24632-68.27985-7.4371 1.5497-4.91408 2.51879-10.08152 2.72359-15.51814v-.002c.29558-7.73269-.80652-15.10116-3.0065-21.96821 35.15335-10.8057 68.1215-24.91138 99.1388-41.96234l-99.62757-59.12003c39.92281-27.827105 82.641-39.771856 130.25215-51.80106l50.00053-12.881934v-89.537736h-95.93555l-28.67349 49.9999995c-20.50084 41.8926655-70.85249 80.9055015-133.76432 118.3179605 40.84545 3.65574 140.77494 28.95665 66.12631 64.44781-9.55791-11.45809-22.65122-19.8495-36.78963-23.74699-14.47516-3.99037-30.46201-3.27991-44.74715 4.07062-9.31089 4.79268-17.66114 12.41135-24.38566 22.7135-6.72771-10.3032-15.07794-17.92188-24.38883-22.71245-7.14257-3.67368-14.70846-5.68998-22.30074-6.28537-7.59018-.5975-15.20779.22169-22.44537 2.21687-16.92428 4.66389-32.35586 15.76096-42.00667 30.86318l-38.3446-18.3737c30.95184-45.79754 64.97564-75.529047 102.30787-89.895473-37.36285-29.108667-61.2914-48.49474-77.28038-81.6127905l-14.24996-50.0031665h-111.748326z" filter="url(#a)" stroke-width=".9"/><path d="m140.6889 189.88513-38.3446-18.3737c30.95184-45.79754 64.97564-75.529047 102.30787-89.895473-37.36285-29.108667-61.2914-48.49474-77.28038-81.6127905h-59.925381v-.003167c48.876891 39.6061145 65.714601 69.2690015 56.509281 98.2837145-39.68951-30.858944-81.620179-48.549634-123.956219-63.871429v38.645466c38.063799 9.422789 75.540655 22.291239 110.637009 49.130249-13.779487 17.56084-36.274467 35.80574-66.242439 56.72041l86.553259 37.37762 119.47798 33.62049-76.3333 43.21968-67.43216 49.16192-106.660349-61.98814v48.2836c118.687439 12.18862 152.141189 118.73495 0 143.39191v28.02451h24.087965l121.411034-57.8373c-49.020457-58.12021-3.63779-106.64768 46.87113-135.00789l57.672-57.11321 28.74932 84.36182 16.1547 121.93886c51.75672-29.94474 140.41812 7.38642 149.26347 43.65667h55.79144v-4.9827l-72.70305-87.87284c-70.05547 46.65685-117.79647-5.77866-124.72368-93.28834l-51.73001-63.01128 101.78184 21.41314c37.52119 16.39224 49.05318 43.95753 26.28057 84.08303l121.09433-9.13565v-11.40082c0-7.60055 0-15.20111 0-22.80165v-11.40083l-84.56335 18.15729c-5.2994-25.50782-5.93807-44.02087 23.36167-69.52975-22.88874-3.51006-45.65502-6.24632-68.27985-7.4371l-120.519 9.12183 120.23609-46.61018c35.15335-10.8057 68.1215-24.91138 99.1388-41.96234l-99.62757-59.12003c39.92281-27.827105 82.641-39.771856 130.25215-51.80106v-52.4196705h-74.60851c-20.50084 41.8926655-70.85249 80.9055015-133.76432 118.3179605 40.84545 3.65574 140.77494 28.95665 66.12631 64.44781l-107.75295 70.3159z" stroke-width=".9"/><path d="m166.71484 98.728516c-1.80318.07499-3.64333-.05347-5.42109.205357-.86177.585238-1.97846.232577-2.944.483707-9.51112.85517-18.86568 3.21548-27.69279 6.84718-22.85436 9.2947-42.577257 26.42859-54.389059 48.14954-8.89238 16.23064-13.002697 35.05805-11.529821 53.51632 1.106876 13.91948 5.750462 27.4299 12.749646 39.46871 3.411902 5.93431 7.3654 11.55116 11.652899 16.87997-.118737 1.28596.831595 2.61083 2.173828 2.64843 12.888407 15.19944 28.137117 28.16861 43.707067 40.52235 22.73811 18.03994 46.55725 34.76556 68.09738 54.27883 10.56699 9.60547 20.64395 19.98856 29.12316 31.57487 6.57624 9.22178 13.05204 18.51717 19.58606 27.77044 6.77704-9.59319 13.4723-19.24386 20.33002-28.77933 12.04984-16.15289 26.97472-29.88415 42.42798-42.71126 22.41681-18.52313 46.31352-35.14534 68.50819-53.96432 13.48763-11.50062 26.41629-23.89045 36.7412-38.37105 8.84638-12.39795 15.55026-26.54884 18.10785-41.63693 2.79342-16.49004.89765-33.69622-5.06781-49.29816-6.15607-16.09463-16.59179-30.43908-29.67249-41.61502-15.4134-13.20677-34.52964-22.2268-54.67378-25.047823-15.85365-2.202913-32.36275-.329097-47.08349 6.067643-1.85741.75349-3.61295 1.7584-5.47021 2.4832-1.17475.86187-2.53394 1.42894-3.76837 2.21195-13.57277 7.99793-24.61785 19.81422-32.88274 33.13879-2.77906 4.46325-5.27105 9.10302-7.49635 13.86606-7.11039-15.24854-17.0811-29.39809-30.25734-39.99805-9.42649-7.59402-20.49294-13.1409-32.23924-16.08084-7.38069-1.860379-15.0077-2.719577-22.6167-2.610564z" filter="url(#a)" stroke-width=".9"/></g><path d="m166.71289 102.72852-4.16016.0684-.65039.33007c-6.33469.44629-12.63002 1.37664-18.77343 3.08985l-.004.002h-.002c-41.35737 11.54749-76.398027 50.05507-74.607425 97.83203.827206 22.14364 10.458104 41.58174 24.644531 58.83008v.002h.002c14.344974 17.43515 33.279234 32.96547 53.390624 48.51172 32.95677 25.47585 68.43873 50.4039 90.55664 81.82227l14.71875 20.9082 14.71875-20.9082c22.11742-31.41923 57.5998-56.34833 90.55469-81.82227 20.11358-15.54483 39.04755-31.07511 53.39258-48.51562l.002-.002c14.18851-17.24561 23.81356-36.68433 24.64649-58.82617v-.002-.002c1.78628-47.77722-33.25702-86.28469-74.61719-97.82812-20.55549-5.73689-42.94919-4.64948-62.69531 5.64063-.00049.00025-.001-.00026-.002 0-.00077.0004-.001.002-.002.002-18.56463 9.67165-35.1008 27.94172-45.99805 55.68164-10.89919-27.74078-27.43511-46.01187-45.99804-55.68555h-.002-.002c-9.87265-5.14218-20.47522-8.04685-31.11328-8.88086h-.01l-.008-.002c-2.61462-.20242-5.27359-.29005-7.9707-.24609-.004.00006-.008-.00007-.0117 0z" fill="#6a1f7a"/><path d="m167.00796 120.72516c2.1107-.0347 4.2094.0347 6.29783.19638 8.35704.65518 16.52532 2.89878 24.20627 6.89941 15.36359 8.00641 29.56029 23.21462 39.2284 50.44374l15.08902 42.4999 15.08732-42.4999c9.66638-27.22912 23.8648-42.43908 39.2284-50.44201 15.35845-8.00469 32.67316-8.97441 49.54171-4.26652 33.73711 9.41587 62.89927 41.53887 61.46812 79.81746-.66238 17.6082-7.89716 32.67738-20.56145 48.06979-12.66429 15.39762-30.70659 30.41293-50.49926 45.70975-32.38144 25.03072-69.61924 50.6888-94.26654 85.70189-24.64731-35.01136-61.88339-60.66944-94.26655-85.70189-19.79097-15.29856-37.83499-30.31385-50.49928-45.70627-12.664262-15.39764-19.900762-30.46507-20.557991-48.0698-1.434618-38.27858 27.724121-70.40159 61.459511-79.82093 6.32528-1.76392 12.71577-2.73192 19.04105-2.82925z" fill="#eed9f2" stroke-width="36.0001"/></svg>