<svg height="500" viewBox="0 0 500 500" width="500" xmlns="http://www.w3.org/2000/svg" xmlns:xlink="http://www.w3.org/1999/xlink"><filter id="a" color-interpolation-filters="sRGB" height="1.051413" width="1.051413" x="-.025707" y="-.025707"><feGaussianBlur stdDeviation="3.7997315"/></filter><g transform="translate(.000015)"><circle cx="-249.99998" cy="250" fill="#e51a1a" r="250" transform="scale(-1 1)"/><path d="m181.33938 83.856939c97.52275-31.84694 203.27597 26.159281 217.12696 131.568651 10.04116 85.89723-45.79566 162.6049-131.11288 174.6444-76.26503 6.65-147.16573-45.4981-149.44603-126.3231.16679-50.89801 30.03241-87.97493 76.60677-108.40662 44.00125-16.48183 90.46555-3.00917 112.28155 39.63622 17.95322 40.0953 3.57775 87.31302-40.4313 103.80676-21.98685 8.23292-51.6578-5.55285-56.72562-31.5612 24.48155 21.7253 69.7211 11.74379 80.1808-21.06198 5.24648-24.88185-11.48198-41.52298-24.36368-55.64156-23.21161-15.22125-63.26956-13.16738-85.32502 12.05139-41.51846 46.43224-18.48961 112.52397 35.72777 131.08081 60.66482 17.11352 118.96473-29.63961 126.96137-92.39988 2.7637-54.83226-40.99398-106.19486-96.51046-114.27807-76.21988-10.3001-138.45939 50.84936-147.743191 124.09106-9.31956 73.21828 47.315731 138.67973 111.863041 158.33924 49.05305 9.49897 98.18701 2.07129 139.64056-27.40671 82.90715-58.95602 100.11901-177.97214 43.55644-260.39974-52.71171-79.885311-158.575-103.987181-249.15842-67.061741-86.705021 39.45169-149.0660905 134.549061-117.102931 229.167621 15.77888-74.65377 50.93986-153.5943 123.407351-187.514491 9.28724-4.60517 19.44718-8.7232 30.56692-12.33106zm-160.722321 286.075591c-52.57825-113.8254-.38403-260.89182 113.777041-317.643861 10.84604-5.32012 22.21219-9.7712 34.03518-13.36069 115.76394-28.75816 246.03978 34.00351 263.68455 158.897471 10.04526 85.91695-27.72044 168.80365-107.97396 206.83173-102.24035 46.26108-224.798841-11.43986-234.690511-131.24969-7.33455-123.78718 127.307171-194.136761 222.718561-137.24102-42.54074-27.89653-94.21826-33.44528-140.80825-12.98978-71.17376 32.62266-105.080851 118.0397-80.762351 190.63139 30.697281 88.13423 123.572931 132.04164 212.817841 105.59803 82.80488-25.06359 132.16266-100.33164 140.19255-180.04986 12.12434-145.020371-132.23823-245.3588802-265.59709-221.973611 7.92036-4.10499 20.5989-8.4277792 35.61563-11.7452592 60.06317-13.23825 124.63426-3.45807 179.45368 32.4903392 109.65077 71.904621 141.09454 217.803071 65.16008 333.599141-143.00482 218.07486-377.311781 117.06797-437.622951-1.79433" fill="#b21a1a"/></g><g transform="translate(-9.71654 9.716544)"><path d="m258.73633-.26367188a27.982838 27.982838 0 0 0 -19.78516 8.19531248l-85.23828 85.2382814a27.982838 27.982838 0 0 0 -8.19531 19.785158v19.79883a27.982838 27.982838 0 0 0 4.68164 14.60742 27.982838 27.982838 0 0 0 7.24023 26.90625l48.09766 48.09765-2.8418 2.8418a27.982838 27.982838 0 0 0 0 39.57031l32.52735 32.52735a27.982838 27.982838 0 0 0 39.57031 0l2.8418-2.8418 48.0957 48.0957a27.982838 27.982838 0 0 0 26.9043 7.24024 27.982838 27.982838 0 0 0 14.60937 4.68359h19.79883a27.982838 27.982838 0 0 0 19.78515-8.19531l85.23829-85.23828a27.982838 27.982838 0 0 0 8.19531-19.78321l.002-19.79882a27.982838 27.982838 0 0 0 -4.66601-14.5918 27.982838 27.982838 0 0 0 -7.25782-26.92383l-168.29106-168.291014a27.982838 27.982838 0 0 0 -26.04492-7.2402341 27.982838 27.982838 0 0 0 -15.46875-4.68359378z" fill="#ff8066" filter="url(#a)" opacity=".5" stroke-width="36"/><path d="m251.2793 9.7167969c-31.92718 31.9275721-63.85423 63.8554811-95.78125 95.7832031v45.25391l9 16.45703 55.15429 55.15234-46.15429 46.1543c-3.12269 3.48635-4.76478 8.05187-4.92578 12.72851-5.12095.0004-9.6987 1.89655-13.07422 5.27149l-27.25586 27.25586c-3.12269 3.48635-4.76576 8.05187-4.92578 12.72851-5.12066-.00011-9.69822 1.89607-13.07422 5.27149l-27.253909 27.2539c-4.436086 4.71461-5.999191 11.44804-4.09375 17.63477-6.186731-1.90544-12.920161-.34234-17.634765 4.09375-4.039656 4.50524-9.920086 8.48099-12.212891 13.9082-4.440939-.67328-9.241887-.28125-13.826172-.28125-7.747698.00071-14.625906 4.95856-17.076172 12.3086l-7.503906 22.51171c-2.1557133 6.46788-.472648 13.5986 4.347656 18.41993l37.388672 37.38867c4.821326 4.82029 11.952049 6.50336 18.419922 4.34766l22.511719-7.50391c7.350026-2.45027 12.307886-9.32848 12.308596-17.07617-.36451-4.50511.63845-9.49373-.28125-13.82618 1.42996-.59582 2.77702-1.37374 4.00781-2.31445l9.89844-9.89844c2.205-2.24385 3.78347-5.02639 4.57812-8.07031 3.08097-.80456 5.89341-2.41195 8.15039-4.6582l23.52735-23.52734c3.37469-3.37633 5.27111-7.95483 5.27148-12.72852 4.77498.00012 9.35251-1.89607 12.72852-5.27148l27.2539-27.25391c3.3747-3.37633 5.27013-7.95482 5.27149-12.72852 4.77529-.0004 9.35299-1.89655 12.72851-5.27148l58.88477-58.88281 55.15234 55.15429 16.45313 9h45.25781l95.78125-95.78125.002-45.25781-9-16.45312-168.29302-168.292973-16.45312-9.0000001z" fill="#861313" stroke-linejoin="round"/><g fill="#ff8066" stroke-width="36"><path d="m209.7535 257.719-23.528 23.527h47.055zm-41.528 41.527-27.255 27.256h65.054l27.256-27.256zm-45.255 45.256-27.254 27.254h65.054l27.254-27.254zm-27.254 45.254 23.527 23.527 23.527-23.527zm-21.729 3.728-9.898 9.899 32.527 32.527 9.898-9.898-32.527-32.527zm-38.767 18.899-7.504 22.512 37.388 37.388 22.512-7.504v-12.414l-39.984-39.982z" stroke-linejoin="round"/><path d="m258.7355 27.717-85.238 85.238v19.799l105.037-105.037zm-81.51 126.766 168.291 168.29 123.038-123.036-168.2915-168.291zm190.019 172.019h19.799l85.238-85.238.001-19.799zm-134.864-91.41-9.9 9.9 32.527 32.528 9.9-9.9z"/></g></g></svg>