<svg height="500" viewBox="0 0 500 500" width="500" xmlns="http://www.w3.org/2000/svg"><g transform="translate(.000015)"><circle cx="-249.99998" cy="250" fill="#e51a1a" r="250" transform="scale(-1 1)"/><path d="m181.33938 83.856939c97.52275-31.84694 203.27597 26.159281 217.12696 131.568651 10.04116 85.89723-45.79566 162.6049-131.11288 174.6444-76.26503 6.65-147.16573-45.4981-149.44603-126.3231.16679-50.89801 30.03241-87.97493 76.60677-108.40662 44.00125-16.48183 90.46555-3.00917 112.28155 39.63622 17.95322 40.0953 3.57775 87.31302-40.4313 103.80676-21.98685 8.23292-51.6578-5.55285-56.72562-31.5612 24.48155 21.7253 69.7211 11.74379 80.1808-21.06198 5.24648-24.88185-11.48198-41.52298-24.36368-55.64156-23.21161-15.22125-63.26956-13.16738-85.32502 12.05139-41.51846 46.43224-18.48961 112.52397 35.72777 131.08081 60.66482 17.11352 118.96473-29.63961 126.96137-92.39988 2.7637-54.83226-40.99398-106.19486-96.51046-114.27807-76.21988-10.3001-138.45939 50.84936-147.743191 124.09106-9.31956 73.21828 47.315731 138.67973 111.863041 158.33924 49.05305 9.49897 98.18701 2.07129 139.64056-27.40671 82.90715-58.95602 100.11901-177.97214 43.55644-260.39974-52.71171-79.885311-158.575-103.987181-249.15842-67.061741-86.705021 39.45169-149.0660905 134.549061-117.102931 229.167621 15.77888-74.65377 50.93986-153.5943 123.407351-187.514491 9.28724-4.60517 19.44718-8.7232 30.56692-12.33106zm-160.722321 286.075591c-52.57825-113.8254-.38403-260.89182 113.777041-317.643861 10.84604-5.32012 22.21219-9.7712 34.03518-13.36069 115.76394-28.75816 246.03978 34.00351 263.68455 158.897471 10.04526 85.91695-27.72044 168.80365-107.97396 206.83173-102.24035 46.26108-224.798841-11.43986-234.690511-131.24969-7.33455-123.78718 127.307171-194.136761 222.718561-137.24102-42.54074-27.89653-94.21826-33.44528-140.80825-12.98978-71.17376 32.62266-105.080851 118.0397-80.762351 190.63139 30.697281 88.13423 123.572931 132.04164 212.817841 105.59803 82.80488-25.06359 132.16266-100.33164 140.19255-180.04986 12.12434-145.020371-132.23823-245.3588802-265.59709-221.973611 7.92036-4.10499 20.5989-8.4277792 35.61563-11.7452592 60.06317-13.23825 124.63426-3.45807 179.45368 32.4903392 109.65077 71.904621 141.09454 217.803071 65.16008 333.599141-143.00482 218.07486-377.311781 117.06797-437.622951-1.79433" fill="#b21a1a"/></g><path d="m339.15759 500c14.96996-144.81792 143.57757-127.01424 81.26732-246.95939 10.19089 48.22445-34.19941 98.12713-56.06037 54.61052-19.94599-39.70655 131.48741-110.09262 73.55082-225.41374 4.80631 85.36128-119.58687 126.02742-124.30938 68.95613 55.27888 24.11746 77.11261-48.08931 31.44845-75.410287-42.62606-25.504463-121.98469-38.509162-81.2887-75.7816525-158.48939 49.9828185 60.04905 116.1544695-27.79919 137.5922095-58.36506 14.24399-114.30599-54.23129-56.01114-107.626613-95.084934 34.071599-69.44638 93.936793-12.98583 118.638813 35.94257 15.72422 33.40114 64.30066 9.05425 67.71264 48.57644-56.86806-122.186962-46.86574-90.12358-154.487112-132.456433 165.584162 138.84145 171.143682 54.0553 286.193472 17.18037-53.69912-53.504271-35.01023-68.637659-81.58579-50.867503 121.49348 91.003569 100.61724 112.939949 233.5587zm-2.59791-478.383109c47.03125 16.431344 66.928 82.418619 51.04873 115.940229 19.10583-3.73777 74.17623-112.070457-51.04873-115.940229z" fill="#ff8066" opacity=".67"/><path d="m222.38358 499.9979-7.72593-113.87545h-30.52972c0-52.09003 3.32922-113.49098 47.35076-121.77632-8.11877-9.797-13.3944-25.67627-13.3944-41.0726 0-27.79867 16.52458-50.83188 37.69205-53.58388h.002c1.41214-.17809 2.91228 0 4.36213 0 23.18302 0 42.05523 23.93309 42.05523 53.58388 0 15.01606-4.99906 30.69838-12.77213 40.45034 48.08931 7.45879 47.03963 70.16294 47.03963 122.39963h-28.97196l-6.83444 113.8765z" fill="#861313"/></svg>