<svg height="500" viewBox="0 0 500.00052 500" width="500.00052" xmlns="http://www.w3.org/2000/svg" xmlns:xlink="http://www.w3.org/1999/xlink"><radialGradient id="a" cx="249.99998617249" cy="750.00002617249" gradientUnits="userSpaceOnUse" r="250.00000617249"><stop offset="0" stop-color="#d5f6ff"/><stop offset=".09472227" stop-color="#d5f6ff"/><stop offset=".20889115" stop-color="#aef"/><stop offset=".41332352" stop-color="#80e5ff"/><stop offset=".54340753" stop-color="#5df"/><stop offset=".74956214" stop-color="#2ad4ff"/><stop offset="1" stop-color="#0cf"/></radialGradient><radialGradient id="b" cx="250.00002" cy="749.99994" gradientTransform="matrix(.0000002 -.99999868 .99999894 .00000003 -499.9992 999.9996)" gradientUnits="userSpaceOnUse" r="250.00026"><stop offset="0" stop-color="#d5f6ff"/><stop offset=".80876225" stop-color="#d5f6ff" stop-opacity=".498039"/><stop offset="1" stop-color="#d5f6ff" stop-opacity=".1"/></radialGradient><filter id="c" color-interpolation-filters="sRGB" height="1.041718" width="1.044071" x="-.022036" y="-.020859"><feGaussianBlur stdDeviation="1.7081567"/></filter><filter id="d" color-interpolation-filters="sRGB" height="1.047844" width="1.041244" x="-.020622" y="-.023922"><feGaussianBlur stdDeviation="1.7081567"/></filter><filter id="e" color-interpolation-filters="sRGB" height="1.024696" width="1.033624" x="-.016812" y="-.012348"><feGaussianBlur stdDeviation="1.7081567"/></filter><g transform="translate(0 -500)"><circle cx="250" cy="750" fill="url(#a)" r="250"/><path d="m250.5954 750.5602c-.0408.006-.1266-.0175-.17105-.0361-.0445-.0186-.0476-.0324.0769-.007-.12491-.0254-.10839-.0312-.0548-.0267.0536.004.14433.0192.16778.0347-.0232-.0155.0811.0108.16055.0336.0795.0228.13397.0421.011.0128.12284.0293.0546.0293-.0341.0205-.0887-.009-.19795-.0265-.15713-.0326l.00037.0004zm-.0786.0862c-.017-.008-.002-.009.013-.007.0154.001.0314.005.0172.007.0132-.002.024.002.0271.005.003.003-.002.006-.0191.003.017.004-.002-.002-.0199-.007-.0183-.005-.0364-.001-.0186-.001h.00015zm.39012.51097c.18919.17747.0741.10822-.0693-.00052-.14334-.10874-.31494-.25696-.23878-.23744-.0762-.0193-.15024-.0749-.175-.10563-.0248-.0307-.00021-.0365.1209.0437-.12095-.0799-.20967-.16284-.22861-.19259-.0189-.0298.0319-.006.19011.12629-.15799-.13264-.24085-.20382-.24329-.20725-.002-.003.0756.0609.23929.19925-.16384-.1385-.24576-.20775-.24576-.20775s.0819.0693.24576.20775c-.16384-.1385-.2604-.23503-.27055-.25406-.0102-.019.0661.0394.24785.21096-.18141-.17161-.27698-.25742-.28041-.25742-.003 0 .0853.0858.27241.25742-.18727-.17161-.28091-.25938-.28091-.26036 0-.00099.0936.0848.28091.26036-.18727-.17554-.276-.26135-.27254-.26036.003.00098.0991.0888.28054.26036-.18141-.17161-.26239-.25452-.25564-.25206.007.002.10124.0902.27074.26006-.1697-.16969-.25455-.25453-.25455-.25453s.0849.0848.25455.25453c-.1697-.16969-.2643-.25746-.27106-.25992-.007-.002.0743.0804.25596.25192-.18141-.17161-.2536-.22524-.24103-.20279.0126.0224.10991.12097.26753.25369-.15798-.13264-.18728-.17361-.15374-.1561.0335.0175.12991.0935.22324.1948-.0935-.1014.084.0693.23753.22092.15356.15164.26962.0942.0939.10673h-.00007zm3.66289 1.60326c1.17612.62414-.0829-.0449-1.34871-.71678-1.26582-.67193-2.53847-1.34678-1.38967-.73434-1.1488-.61244-1.74564-.92744-1.76017-.93376-.0145-.006.55325.29602 1.73367.91826-1.18-.62219.0995.0566 1.37996.73482 1.28047.67827 2.56191 1.35605 1.38579.73191l-.00044-.00006zm-2.41463 2.46924c0 1.05323-.0439-.0868-.56366-1.22877-.51978-1.14197-1.03957-2.2859-.56366-1.24047-.47591-1.04543-.71387-1.57595-.71387-1.58136 0-.005.23796.51427.71387 1.56926-.47591-1.05519.0439.0917.56366 1.239.51979 1.14734 1.03958 2.29516.56366 1.24193v.0002zm-1.62663-4.26364c-.004.002-.0156-.0157-.0223-.0279-.007-.0122-.008-.019.007.005-.0151-.0232-.0161-.0309-.0118-.029.004.002.0138.0135.0198.029-.006-.0155.008.006.0189.0261.011.0201.0195.0386.004.017.0151.0216.009.0177.00093.008-.009-.01-.0198-.0256-.016-.0279h-.00025zm-.0896-.14045c.006.0155-.009-.006-.0211-.0261-.0121-.02-.0215-.0386-.005-.017-.0151-.0216-.0131-.0216-.007-.0142.006.007.0166.022.0182.0297-.002-.008.0115.0108.0216.0258.0101.0151.0168.0267.001.005.0151.0216.0161.0285.0118.026-.004-.002-.0138-.0142-.0198-.03l.00025.0003zm-.10167.30429c.008.0293 0-.0107-.008-.0478s-.0165-.0714-.0109-.0307c-.006-.0409-.005-.0575-.002-.0555s.008.0224.01.0555c-.002-.0331.005.009.01.0492.005.0405.009.0794.001.0404.008.0393.0113.0508.0113.0453 0-.006-.004-.0282-.0113-.0574l-.0002.0005zm.20674-.95957c-.28235.20633-.40371.25065-.38125.22195.0225-.0287.1805-.14171.43225-.28385-.25162.14238-.31209.19407-.26729.18087s.19489-.0913.36439-.20847c-.1697.11705-.30817.18923-.34518.19893-.037.01.0275-.0431.26358-.17593-.23604.13265-.21639.0897-.12171.0146.0947-.0751.26438-.18239.32845-.17852-.0643-.004.18737-.15612.38142-.25898.19406-.10286.33055-.15645.036.0366.29452-.19312.0887-.0439-.15313.12434-.24186.16824-.5198.3555-.36958.23845-.15023.11706-.22923.17558-.23166.17558-.002 0 .0717-.0585.22766-.17558-.15609.11706-.29849.21945-.3428.24967-.0443.0302.009-.0117.2457-.18337-.23601.17161-.39788.27497-.42808.28664-.0302.0117.0713-.0684.36198-.26354l-.00039.00029zm-.30425.0509c-.008.006-.0113.009-.0113.009s.004-.003.0113-.009c-.008.006-.008.004-.005.00054.003-.004.009-.009.0127-.009-.004 0 .003-.005.008-.009.006-.003.0105-.005.003.0005.008-.006.0113-.009.0113-.009s-.004.003-.0113.009c.008-.006.003-.004-.003-.00054-.006.004-.0123.009-.008.009-.004 0-.01.005-.0125.009-.003.004-.003.005.005-.0005zm.74505-1.20927c-.79969 1.1371-1.18099 1.67347-1.16841 1.65101.0126-.0225.41905-.60372 1.19491-1.70191-.77626 1.0981-1.15757 1.63252-1.15316 1.6227.004-.01.39455-.56386 1.16116-1.6427-.76652 1.07859-1.15369 1.62373-1.15614 1.62766-.002.004.37981-.53337 1.15214-1.61966-.77236 1.08639-1.14392 1.61105-1.13424 1.5989.01-.0122.40058-.56111 1.15314-1.622-.75286 1.06104-1.1293 1.58668-1.1293 1.58324 0-.003.37644-.53595 1.1293-1.59124-.75286 1.05519-1.12442 1.5779-1.12098 1.57447.003-.003.38187-.53303 1.12898-1.58247-.74702 1.04934-1.11176 1.54962-1.10548 1.53355.006-.0161.38356-.54848 1.12058-1.56455-.73725 1.01618-1.10587 1.52816-1.10588 1.53011.00001.002.36863-.50613 1.10588-1.53011-.73725 1.02398-1.11465 1.55645-1.12093 1.57056-.006.0141.35858-.49012 1.10583-1.53956-.74702 1.04934-1.12541 1.58376-1.12885 1.59057-.003.007.36808-.51398 1.12085-1.57507-.75286 1.06104-.84065 1.17319-.64268.8855s.68169-.97523 1.07181-1.51357c-.3901.53834-.57151.78799-.56232.77573.009-.0122.20897-.28642.58122-.79573-.37253.50909.37058-.56657 1.00691-1.47792.63633-.91134 1.16587-1.65837.3662-.49201.79967-1.16636.25648-.39984-.38912.52369-.64559.92353-1.39357 2.00407-1.00349 1.46575-.3901.53834-.83676 1.23854-1.00938 1.53452-.17262.29597-.0712.18772.63483-.89086-.70605 1.07858-1.11369 1.68029-1.15083 1.72325-.0371.043.29625-.47284 1.07223-1.62925-.77628 1.15661-1.14686 1.66372-1.13525 1.61541.0116-.0483.40543-.65205 1.15795-1.71715-.75286 1.06494-1.14392 1.63251-1.15359 1.65546-.01.0229.36203-.49875 1.13469-1.61236-.77237 1.1137-1.16146 1.69688-1.16342 1.71543-.002.0186.38322-.52752 1.15942-1.67233-.77626 1.14491-1.17219 1.73491-1.17751 1.74714-.005.0122.37999-.55332 1.16621-1.71954-.78601 1.16636-1.17901 1.74466-1.17901 1.74122 0-.003.393-.58861 1.17901-1.74922-.78601 1.16051-1.17122 1.72809-1.16591 1.71925.005-.009.40114-.5941 1.17721-1.73925-.77626 1.14491-1.16439 1.692-1.16439 1.67488 0-.0171.38813-.59844 1.16439-1.71038-.77626 1.11175-1.16147 1.66665-1.15951 1.66516.002-.001.39109-.55936 1.16351-1.67316-.77237 1.11369-1.15855 1.65006-1.15855 1.63637 0-.0137.38618-.57744 1.15855-1.66397-.77237 1.08639-1.17999 1.67054-1.19449 1.69876-.0145.0282.36413-.4995 1.16429-1.63686l.00081.001zm-.84542.97129c0 .21651.006.32183.01.31936.004-.002.006-.11271-.002-.32736.008.21452.006.31204.002.30567-.004-.006-.01-.11666-.01-.31777v-.004-.004c0 .19506-.008.25065-.0146.22236-.006-.0283-.01-.14046-.00046-.28096-.009.14043-.008.20578-.004.20234.004-.003.0118-.0756.0155-.21034-.004.13457-.0237.12882-.0358.0786-.0121-.0502-.0168-.14485.009-.18807-.0255.0431-.0383.0744-.0383.0807 0 .006.0127-.0122.0383-.0686-.0255.0566-.0383.0701-.0383.0602 0-.01.0127-.0431.0383-.0802-.0255.037-.0383.0409-.0383.0311 0-.01.0127-.0333.0383-.0511-.0255.0178-.0383.046-.0383.0592s.0127.0112.0383-.0316c-.0255.0432.002-.1597.0297-.31385.0278-.15415.0561-.25959.0323-.0216.0232-.23796.0213-.0897.0116.0936-.01.18334-.0269.40178-.0343.30425.008.0975.003.17654-.003.19746-.006.0209-.0123-.0162-.008-.15106-.004.13457-.003.24282-.001.27063.002.0278.005-.0248.005-.21203v.004.004c0 .19505.006.30721.01.31702.004.01.006-.0827-.002-.29702.008.21452.0183.33836.0232.35011.005.0117.004-.0886-.0119-.32251.0151.23403.0161.35594.0114.3599-.005.004-.0151-.11003-.0227-.3478.008.23796.006.33842.002.32528-.004-.0131-.01-.13986-.01-.35628l-.00085.00019zm-.23811-1.19757c.19113 1.38871.27693 2.06844.27015 2.05824-.007-.0102-.10611-.71033-.28525-2.08134.17934 1.37115.26901 2.07916.26901 2.09481 0 .0156-.0897-.66105-.26901-2.05931.17934 1.39846.26901 2.10354.26901 2.10747 0 .004-.0897-.6933-.26901-2.09947.17934 1.40627.26901 2.1094.26901 2.1094s-.0897-.70313-.26901-2.1094c.17934 1.40627.26901 2.10355.26901 2.09962 0-.004-.0897-.70906-.26901-2.10762.17934 1.39846.26901 2.09769.26901 2.09769s-.0897-.69923-.26901-2.09769c.17934 1.39846.26901 2.07526.26901 2.05961 0-.0156-.0897-.72376-.26901-2.09511.17934 1.37115.26901 1.98749.26901 1.94015 0-.0473-.0897-.75835-.26901-2.0419.17934 1.28338.25833 1.97188.25158 2.00455-.007.0327-.0992-.59049-.26288-1.93045.16385 1.33995.20873 1.93483.18346 1.88266-.0253-.0522-.1207-.75138-.23746-1.99964.11698 1.24828.0887 1.13516.0292.6305s-.15018-1.40087-.15812-1.71878c.008.31791-.14654-.89039-.25472-1.82659-.10818-.93621-.17044-1.60032.0208-.19406-.19113-1.40627-.12867-.74897-.0204.18285.10826.93182.26232 2.13816.25438 1.82999.008.30817.0113.46909.0113.4735 0 .004-.004-.14767-.0113-.4655.008.3179.14601 1.16829.23773 1.64225.0917.47396.13671.57149-.0427-.61633.17934 1.18781.26901 1.85388.26901 1.9031 0 .0492-.0897-.51844-.26901-1.79807.17934 1.27949.2749 1.8929.27926 1.87434.004-.0186-.0825-.66907-.26796-1.91744.18519 1.24828.28173 1.96994.2842 2.03673.002.0668-.0891-.52126-.2802-1.89243.19113 1.37116.2867 2.07136.2867 2.08156s-.0956-.6696-.2867-2.05846l-.00052.00029zm.15988 2.16108c0 .0194.001.00083-.002-.0187-.003-.0195-.006-.0399-.002-.0244-.004-.0155-.001-.00085.002.0152.003.016.006.0335.002.0235.004.01.006.0208.006.0242 0 .003-.002-.00061-.006-.0202v.0002zm-.0465-.83474c.017.037-.003-.00002-.0232-.038-.0198-.038-.0391-.077-.0199-.0438-.0193-.0331-.0289-.0536-.0289-.0565 0-.003.01.0116.0289.0485-.0193-.0371.0004-.00098.0204.0366.02.0375.0404.0765.0227.0453.017.0309.0255.0514.0255.0549 0 .003-.008-.01-.0255-.0469zm-.0862.29258c-.002.002-.003-.002-.003-.005s.001-.006.003-.003c-.002-.004 0-.006.002-.006s.004.002.002.006c.002-.004.003-.006.003-.006s-.001.002-.003.006c.002-.004 0-.00097-.002.003-.002.004-.004.008-.002.005zm-.008.37839c.006.004-.005.0256-.0148.0392-.01.0137-.0181.0194-.008-.008-.009.0271-.005-.00026.002-.0285.007-.0282.0151-.0572.0132-.0334.002-.0232.0105-.0367.0157-.0382.005-.001.007.009-.004.0342.0113-.0254.0134-.0147.011.002-.002.0162-.009.0378-.015.034l.00015-.0003zm-.47591 1.48232c.36279-1.20537-.0683.1853-.48761 1.5506-.41936 1.36531-.82703 2.70525-.41748 1.39845-.40957 1.3068-.006-.0331.41107-1.39845.4169-1.3653.84695-2.75597.49001-1.5506.35694-1.20537.53931-1.80805.54176-1.80805.002 0-.17502.60268-.53776 1.80805.36279-1.20537.55782-1.85291.56747-1.88362.01-.0307-.16608.55539-.54477 1.81732.37838-1.26193.59293-1.92898.61042-1.95338.0175-.0244-.16208.59384-.57192 1.90248.40957-1.30873.57535-1.88216.5481-1.82707-.0273.0551-.24754.73871-.6101 1.94405l.0004.00011zm.42126-1.3692c.002-.008.006-.0147.008-.0167s.002.00086-.004.0127c.006-.0116-.002.002-.009.0155s-.0137.0271-.006.0155c-.008.0116-.004.00077.001-.0109.005-.0117.0124-.0242.01-.0167l-.0001.0003zm.0465-.59678c.002.002-.00083-.001-.004-.004-.003-.003-.006-.005-.004-.00046-.002-.004.00082-.006.004-.006.003 0 .006.002.004.006.002-.004.003-.002.003.0005 0 .002-.001.005-.003.003.002.002.003.003.003.003s-.001-.001-.003-.003zm-.0431.0464c.006.01-.004.00032-.013-.01-.009-.01-.0176-.0198-.01-.0105-.008-.01-.009-.015-.006-.015.002 0 .008.005.0142.015-.006-.01.00098-.00032.008.01.007.01.0132.0198.008.0105.006.01.008.015.008.015s-.003-.005-.008-.015h-.0002zm-.36283-.0276c.20678.0741-.0673-.006-.32618-.0853-.25893-.0795-.50275-.15849-.23553-.0824-.26722-.0761-.0332-.0498.21894-.006.2521.0434.52224.10379.3272.0961.19504.008.34523.0448.38139.0682.0361.0234-.0417.0331-.30279-.014.26133.047.39787.0802.4013.0865.003.006-.12623-.0141-.3973-.0744.27112.0605.35796.10046.32528.10684-.0327.006-.19578.001-.39178-.0947l-.00027-.00013zm.13644-.094c.0151.004-.0004.00012-.0162-.004-.0158-.004-.0318-.008-.0178-.004-.0132-.004-.0113-.006-.005-.006.006 0 .0166.002.0202.006-.004-.004.009-.00013.0185.004.01.004.0165.008.00041.004zm-1.67735-1.60324c.33155.31597.49247.47102.48903.46906-.003-.002-.17121-.16096-.49703-.47306.3257.31204-.60758-.51884-1.35849-1.19515s-1.31944-1.19804-.26425-.26768c-1.05519-.93036-.48176-.40569.27257.27258.75433.67826 1.68957 1.51012 1.35799 1.19415.33156.31597 1.01323.86892 1.36724 1.13954.35401.27063.38035.25894-.59875-.55437.97912.81333 1.52525 1.30874 1.56335 1.3692.0381.0605-.4318-.31403-1.48475-1.24051 1.05324.92645 1.50964 1.36335 1.46183 1.34575-.0478-.0176-.59986-.48971-1.5635-1.38125.96351.89135 1.47744 1.35945 1.49934 1.37454.0219.0151-.44823-.42284-1.45284-1.34354 1.00446.9206 1.54766 1.39065 1.57589 1.39747.0282.007-.45851-.44961-1.51389-1.38197 1.05518.93231 1.54182 1.38871 1.51359 1.3819-.0282-.007-.57133-.47685-1.57559-1.3974 1.00446.9206 1.5067 1.3809 1.5067 1.3809s-.50224-.4603-1.5067-1.3809c1.00446.9206 1.50279 1.3809 1.49984 1.3809-.003 0-.50718-.4603-1.50784-1.3809 1.00057.9206 1.46673 1.35847 1.44385 1.34338-.0229-.0151-.53479-.48314-1.49035-1.37438.95571.89135 1.43942 1.33702 1.44335 1.33702.004 0-.47193-.44567-1.43535-1.33702.96351.89135.94311.87975.5989.56627-.34421-.31347-1.01223-.92883-1.34396-1.24498l-.00009.00022zm1.88802 1.19756c.0132.01.0199.0216.0199.0264 0 .005-.007.003-.0199-.0143.0132.0177.007.007-.002-.006-.009-.0133-.0203-.029-.0165-.0213-.004-.008-.0148-.0205-.0206-.0268-.006-.006-.007-.006.009.0113-.0151-.0177-.00045-.005.0144.01.0149.0147.03.0313.0158.0213zm1.55252.10946c-.0151.01-.0226.015-.0226.015s.008-.005.0226-.015c-.0151.01-.00045.002.0149-.006.0154-.008.0314-.0172.0191-.009.0113-.008.021-.0116.024-.0116.003-.00001-.00069.004-.016.0116.0151-.008-.003.001-.0219.009-.0184.008-.0368.0161-.0213.006h.00055zm-.45245.15991c.0874-.0359-.0195.009-.12728.0408-.10775.0321-.21207.0623-.10667.0289-.10526.0331-.13351.04-.11707.0333.0164-.007.0776-.0272.15107-.0488-.0741.0215.0322-.01.13019-.0384.098-.0287.18765-.055.0803-.0235.10715-.0309.15005-.0417.1433-.0384-.007.003-.0632.0208-.1546.0464l.00036-.00015zm-1.47844.71775c.24967-.0975.37059-.1463.36763-.1463-.003 0-.1298.0488-.37563.1463.24576-.0975-.0643.0497-.36081.18431-.29647.13458-.57929.25649-.27895.10826-.30038.14823-.0927.003.15212-.14772.24478-.15067.52663-.3067.37452-.17993.15212-.12678.34618-.20869.4271-.22084.0809-.0121.0487.0455-.25173.19774.30038-.15215.41156-.18629.38531-.15799-.0263.0283-.18994.11901-.43931.21659l-.00013-.00021zm4.0023.0121c2.90418.46419 3.21332.55683 2.43071.46125-.78262-.0956-2.65698-.37937-4.11979-.66803 1.46281.28866 1.48633.30911 1.00172.22425-.48462-.0849-1.47738-.27502-2.04713-.40759.56953.13264 2.72184.30818 4.00084.38278 1.27899.0746 1.68468.0482-1.23903-.22287 2.93541.16968 4.40312.20773 4.40411.15702.001-.0507-1.4647-.19018-4.39611-.37551 2.9315.0819 76.25114.66804 125.46589 1.04204 49.21474.37399 74.32459.53587-19.16351-.23064 93.5096-2.39708 140.22635-5.18327 140.18536-6.85869-.041-1.67542-46.83971-2.24007-140.36106-.19407 93.33785-5.23301 68.266-3.76433 19.12877-.96595-49.13724 2.79838-122.33987 6.92647-125.26358 7.01229 2.92371-.12484 4.38557-.20675 4.38557-.22576 0-.019-1.46186.0249-4.38557.15166 2.92371-.15602 2.55802-.10726 1.30633-.0209-1.25168.0863-3.38936.21015-4.00959.20429.62023.006.58801.0323.35345.0478-.23455.0155-.67145.0202-.86055-.0168.18918.0371.54123-.0644.71775-.1463.17651-.0819.17748-.14436-.33549-.0293.51295-.11505.76943-.17258.76943-.17258s-.25648.0575-.76943.17258c.51295-.11505 2.61454-.62411 3.87842-.93326 1.26388-.30914 1.69005-.41837-1.14783.26626 2.83788-.6846 2.42049-.57538 1.16246-.26624-1.25803.30913-3.3567.81818-3.88137.93324.52469-.11505.78703-.17258.78703-.17258s-.26234.0575-.78703.17258c.52469-.11505.77824-.17258.77243-.17258-.006 0-.27099.0575-.78373.17258.51295-.11505.51195-.0526.33543.0293s-.52856.18334-.71769.14631c.1892.0371.61927.0321.84943.0164.23016-.0156.26041-.0419-.35004-.0474.61046.006.92253.009.92695.009.004 0-.29882-.003-.91895-.009.62024.006 73.34696-13.58943 122.94742-22.90328 49.60045-9.31384 76.07463-14.34606-15.81022 2.78653 90.3635-25.3088 134.42765-42.02204 133.2496-46.29398-1.17805-4.27193-47.5983 3.89745-138.2036 28.35391 87.66405-32.41227 62.48493-23.04824 15.2167-5.53434-47.26823 17.51389-116.62558 43.17767-117.31799 43.36491.69241-.18726.99765-.2721.96985-.26576-.0278.006-.38867.10383-1.02845.28126.63974-.17747 2.59213-1.00836 3.71021-1.51743s1.40187-.69634-1.29558.41344c2.64089-1.22487 3.92719-1.90557 3.89109-1.97382-.0361-.0683-1.39464.47592-4.0434 1.70083 2.56675-1.34775 67.45659-35.45885 111.02238-58.3613 43.5658-22.90246 65.80754-34.59627-16.92191 8.89056 81.25885-46.29154 121.1071-70.81724 120.28399-72.2708-.82312-1.45356-42.31759 20.16502-123.74419 66.16205 79.7824-48.69058 58.33745-35.58953 16.32617-9.94136-42.01127 25.64817-104.58888 63.84347-107.07178 65.34141 2.45949-1.53499 3.67754-2.32102 3.66588-2.34009-.0117-.0191-1.25304.72879-3.71238 2.26159 2.43999-1.56425 2.78717-1.74076 2.18936-1.3258s-2.14061 1.42139-3.48056 2.22301c1.33995-.80163 1.27948-.75773.77919-.45345s-1.4404.86894-1.85972 1.10883c.41936-.2399 2.12989-1.53693 3.15825-2.34295s1.37456-1.12102-.93475.60317c2.29564-1.75344 3.43567-2.64089 3.42752-2.65261-.008-.0117-1.16447.85226-3.46152 2.60171 2.28397-1.76514 59.45893-47.66464 97.83806-78.49755s57.96243-46.59923-14.93692 11.90201c67.563-65.15611 98.41982-100.78951 95.34205-104.01162-3.07778-3.22212-40.09015 25.96706-108.26555 90.45613 61.89305-70.0478 44.41815-50.16998 11.25252-12.56663-33.16564 37.60334-82.02201 92.9322-82.8919 93.7865.86989-.8543.94397-.91475.69722-.66362s-.81433.81384-1.22775 1.20588c.41349-.39205 45.75517-58.87768 76.66951-98.80155 30.91434-39.92386 47.40135-61.28596-9.8945 12.56907 52.29305-77.72859 75.82207-118.36778 73.06611-120.23677-2.75596-1.869-31.79691 35.03218-84.64381 112.38434 47.4325-80.53721 34.71468-58.84646 9.75938-16.408s-62.14809 105.62463-63.66553 108.07828c1.50574-2.46145 2.25276-3.69997 2.24747-3.70581-.005-.006-.76289 1.22101-2.26637 3.69031 1.49792-2.46924 2.24688-3.70387 2.24688-3.70387s-.74896 1.23463-2.24688 3.70387c1.49792-2.46924 1.14977-1.88997.39788-.64754-.75189 1.24242-1.90752 3.148-2.02455 3.33134.11697-.18333 1.03465-2.2069 1.6237-3.53076.58904-1.32386.84945-1.94801-.34811.66752 1.11175-2.66234 1.62276-4.00814 1.57548-4.02526-.0473-.0171-.65286 1.29442-1.77428 3.94676 1.02788-2.6877 27.02126-71.24731 44.47274-117.28578 17.45147-46.03846 26.36103-69.55579-6.77872 17.84109 30.19655-88.52228 43.80083-133.30028 42.22733-133.84299-1.57349-.5427-18.32477 43.14989-48.83931 131.56879 27.50499-89.33561 20.09336-65.29459 5.59727-18.23361-14.4961 47.06099-36.07665 117.14194-36.90949 119.88619.79969-2.75986 1.18198-4.14272 1.16243-4.14806-.0195-.005-.44095 1.36685-1.24863 4.11706.75872-2.76961.84555-2.98319.64516-2.18108s-.688 2.61992-1.07818 3.91306c.39006-1.29314.40859-1.36432.28764-.97032-.12094.39401-.38136 1.25319-.54918 1.82076.16781-.56758.20485-.60465.17315-.43545-.0317.16919-.13213.54464-.23925.8021.10733-.25747.20779-.51592.23945-.60515.0317-.0892-.005-.009-.17335.41009.16781-.41936.19899-.41736.1628-.27153-.0362.14583-.13974.43548-.2414.59143.10148-.15602.13757-.20868.12789-.19213-.01.0165-.0651.10231-.14679.22313.082-.12091.14343-.28865.15741-.3618.014-.0731-.0195-.0517-.12721.20578.10734-.25747.20193-.62903.22914-.7958.0272-.16676-.013-.12872-.17514.433.16195-.56172.24878-.84649.25313-.84894.004-.002-.0738.27742-.24183.84494.16781-.56758.57935-2.63211.80363-3.85113.22427-1.21902.26128-1.59253-.31997 1.22194.52074-2.82227.74798-4.2373.71336-4.24175-.0346-.004-.33108 1.40168-.85773 4.22175.46032-2.82617 12.94894-75.08771 21.34506-123.61395 8.39612-48.52625 12.69973-73.3172-3.20995 18.79777 7.65154-93.55049 7.26047-140.69924 2.82031-141.08787-4.44016-.38862-12.92941 45.98289-21.47424 139.47291.0215-93.49002.014-66.27565.002-15.61905s-.0284 124.75544-.0247 125.03435c-.004-.27892-4.74063-74.22173-7.98417-124.77154s-4.99401-77.70664.97432 15.58639c-12.23857-92.89709-21.50828-138.94093-24.82572-138.51476s-.68261 47.32235 10.88792 140.30526c-17.84703-91.76389-13.00703-67.07143-3.57996-18.73243 9.42707 48.33901 23.44121 120.32456 23.94247 123.14683-.53441-2.81447-.82113-4.21781-.84208-4.21392-.021.004.22385 1.415.75248 4.22942-.57538-2.81447-.86306-4.2217-.86306-4.2217s.28768 1.40723.86306 4.2217c-.57538-2.81447-.4944-2.21276-.2418-.83771.2526 1.37506.67682 3.52346.78794 3.80237-.11112-.27893-.20571-.50127-.23255-.55783-.0268-.0566.0141.0526.17395.43684-.15988-.38425-.32273-.78604-.3793-.92939-.0566-.14335-.007-.0283.25836.62121-.26527-.64949-.91964-2.6204-1.27657-3.74824s-.41642-1.4126.50807 1.3102c-.98107-2.6994-1.49598-4.04032-1.52282-4.03206-.0268.008.43441 1.36571 1.40566 4.06306-1.03372-2.67989-1.55351-4.01594-1.55875-4.0111-.005.005.50407 1.35056 1.52855 4.0342-1.04347-2.6838-26.98304-71.26389-44.39186-117.31748-17.40882-46.05358-26.28689-69.58066 6.79263 17.84157-36.02194-86.30853-55.48432-128.865-57.0138-128.23354-1.52948.63145 14.87394 44.45082 50.58362 130.89394-38.55536-85.14804-28.23066-62.21097-7.95553-17.34032 20.27512 44.87065 50.50066 111.67488 51.74698 114.26115-1.26777-2.58042-1.91336-3.8599-1.92502-3.85066-.0117.009.61059 1.3072 1.87852 3.88166-1.2912-2.56677-1.57889-3.16166-1.33412-2.68965.24478.472 1.02202 2.0109 1.86068 3.71169-.8387-1.70078-.89426-1.74175-.64508-1.18832s.8031 1.70126 1.18336 2.37809c-.38034-.6768-.56173-1.0074-.55546-1.00199.006.005.20021.34684.57056 1.01409-.37059-.66705-.49152-.88452-.44758-.80504.0439.0795.25276.4559.54168.97667-.28866-.52076-.31786-.58415-.23884-.44908.079.13506.26624.46858.41043.74165-.14438-.27307-.21657-.4057-.21657-.40275 0 .003.0722.14148.21657.41075-.14438-.26915-.33162-.60462-.41059-.74261-.079-.13799-.0497-.0785.239.44229-.28866-.52076-.50614-.905-.55641-.98984-.0503-.0849.0667.12969.4468.80649-.38034-.6768-1.42967-2.44194-2.01773-3.41911-.58806-.97716-.71485-1.16636.74993 1.30874-1.51939-2.43999-2.31127-3.64243-2.34347-3.62245-.0322.02.69527 1.26237 2.21459 3.71205-1.57401-2.40294-40.06021-64.81772-65.88178-106.74516-25.82156-41.92745-38.97849-63.36757 10.10608 16.17882-56.36201-75.06235-87.94409-110.06089-91.52742-107.39953-3.583333 2.66137 20.83207 42.98263 76.46502 118.5599-61.91255-70.04194-43.91046-49.64238-10.3766-11.68357s82.59949 93.47687 82.81404 93.67191c-.21457-.19506-.38231-.38229-.4243-.44323-.042-.0609.0418.004.3302.31454-.28866-.31011-.30331-.30708-.21457-.19878.0887.1083.28089.32188.40581.43288-.12491-.1112-.18737-.15703-.18737-.15021 0 .007.0625.0663.18737.16571-.12491-.0995-.239-.19992-.27407-.23509-.0351-.0352.009-.005.19997.15659-.19114-.16188-.30426-.26624-.31587-.28238-.0116-.0162.0783.0559.29317.24688-.21456-.19113-.31892-.28279-.31695-.27984.002.003.11025.10051.32095.28784-.21064-.18726-52.72776-52.44322-88.62633-88.17073s-55.17859-54.92657 11.08497 10.99996c-70.73934-61.42955-108.192845-89.7492-110.388182-87.23235-2.195336 2.51685 30.8675 35.87021 101.160852 97.78665-74.125557-56.93699-54.19663-41.61831-15.16142-11.62701 39.0352 29.9913 97.17669 74.6552 99.47625 76.40864-2.31712-1.73003-3.48055-2.58432-3.48676-2.57316-.006.0112 1.1448.88778 3.45656 2.61956-2.32687-1.71638-1.86462-1.29216-.75141-.41398 1.1132.87818 2.87736 2.21033 3.15432 2.3098-.27693-.0995-.74112-.31694-.96397-.43202-.22284-.11508-.20432-.12777.4842.18234-.68852-.31011-2.49365-1.34384-3.49422-1.94555s-1.19659-.7714 1.33312.64657c-2.57261-1.36335-3.87354-2.02064-3.88969-1.99432-.0162.0263 1.25247.73629 3.81899 2.10744-2.59238-1.3242-67.44425-35.49567-110.97614-58.4483-43.531892-22.95263-65.743797-34.68642 16.94376 8.86476-84.154282-40.76987-126.920123-59.73977-127.646899-58.24671-.726777 1.49306 40.585512 23.44906 124.587489 64.531-85.291017-38.2031-62.385447-27.88824-17.48715-7.74029 44.8983 20.14796 111.78932 50.12901 114.46922 51.25831-2.70526-1.07273-4.07251-1.57692-4.08757-1.54327-.0151.0337 1.32206.60512 4.02557 1.68372-2.72865-1.01422-2.20398-.78505-.90938-.28088 1.29459.50418 3.35912 1.28336 3.7102 1.36917-.35108-.0858-.53248-.13361-.53682-.13705-.004-.003.16837.0375.52552.12905-.35694-.0917-.45349-.10135-.39742-.0759.0561.0254.26478.0859.51837.13454-.25355-.0487-.3745-.0672-.37058-.0633.004.004.13269.0302.37858.0713-.24575-.0409-.36862-.0613-.36862-.0613s.12287.0204.36862.0613c-.24575-.0409-.37448-.0672-.37841-.0711-.004-.004.11694.0145.37041.0631-.25355-.0487-.4564-.10425-.50814-.12625-.0517-.022.0476-.0104.39853.0753-.35108-.0858-.47006-.10129-.43196-.0822.0381.0191.2333.0728.51056.12529-.27695-.0525-.38324-.0652-.36077-.056.0225.009.17369.0405.41177.076-.23796-.0349-.38912-.0622-.41159-.0687-.0225-.006.0838.008.36059.0566-.27695-.0486-.41542-.0769-.41542-.0799s.13847.0194.41542.0719c-.27695-.0525-2.40292-.71079-3.76433-1.14431s-1.95826-.64229.82306.2042c-2.80082-.80163-4.21196-1.17318-4.22213-1.14343-.0102.0298 1.38061.4608 4.18363 1.26441-2.82076-.75285-72.9815-21.99401-120.07146-36.2853-47.089955-14.29129-71.109127-21.63271 18.35326 5.41392-91.892817-19.02059-138.7221855-24.40476-139.6483943-20.05774-.9262087 4.34703 44.0507423 18.42524 135.7705643 38.32939-92.765257-11.48219-65.846677-8.06503-15.64024-1.79244 50.20645 6.27259 123.70075 15.40061 124.08694 15.34015-.38619.0605-.77043.0907-.9011.0907-.13068 0-.008-.0302.62028-.0907-.62805.0605-74.49137-4.32993-124.86775-7.35799-50.376372-3.02805-77.265802-4.69373 16.05394.81624-93.700667.77822-140.5376405 4.34849-140.5227855 7.69982.014855 3.35132 46.8815385 6.48372 140.5881855 6.38621-93.266312 6.48323-68.20814 4.77855-19.10442 1.39016s122.25299-8.46049 125.16888-8.71209c-2.91589.25161-4.37676.37741-4.37922.37742-.002-.00001 1.45348-.12581 4.37122-.37742-2.91786.25161-4.32997.37352-4.29731.37107.0327-.002 1.51012-.12926 4.37141-.37507-2.86129.24575-4.33582.37252-4.36602.37497-.0302.002 1.38392-.11942 4.29992-.37097-2.91591.25161-2.36004.26434-.9806.18731 1.37944-.077 3.58245-.2438 3.96084-.35119-.37839.10726-1.78953.45541-2.62674.65728-.83722.20187-1.10052.25746.81676-.2204-1.91728.47785-2.75987.69532-2.6804.68016.0795-.0152 1.08101-.26296 2.85199-.71566-1.771.45254-1.84215.52958-1.2843.42717.55784-.1024 1.74468-.38425 2.48967-.64952-.74506.26527-.69243.26225-.40086.17003.29157-.0922.82208-.27361 1.03279-.36509-.21063.0917-.31595.13751-.31595.13751s.10532-.0458.31595-.13751c-.21063.0917-.28084.13751-.25691.13751.0239 0 .142-.0458.30791-.13751-.16574.0917-.22328.13361-.20637.13066.0169-.003.10828-.0508.24037-.13866-.13266.0878-.19313.1317-.1892.1317.004 0 .0722-.0439.1972-.1317-.12492.0878-.18444.1317-.18248.1317.002 0 .0654-.0439.18648-.1317-.12095.0878-.18142.1317-.18142.1317s.0605-.0439.18142-.1317c-.12095.0878-.1425.13559-.11571.13854.0268.003.10191-.0389.17431-.13054-.0722.0917-.23504.1882-.3218.22226-.0868.0341-.0974.006.13472-.15256-.23209.15795-.26913.18227-.21498.14513.0541-.0371.19948-.13573.33214-.22363-.13266.0878-.22431.13559-.24122.13853-.0169.003.0409-.0389.20722-.13053-.16574.0917-.2486.13751-.2486.13751s.0829-.0458.2486-.13751c-.16574.0917-.39491.21259-.4949.26326-.1.0507-.0708.0311.28022-.15822-.35108.1892-.48469.27404-.4564.26764.0283-.006.21848-.10401.515-.27974-.29645.17554-.44956.26917-.45301.2731-.003.004.14277-.0818.44501-.2651-.30233.18333-.49056.27889-.51546.28134-.0249.002.1135-.0882.46446-.27734-.35108.1892-.84063.34425-1.05615.38568-.21551.0414-.15699-.0308.58809-.29608-.74508.26527-1.11761.4018-1.11761.40425 0 .002.37253-.12918 1.11761-.40025-.74508.27113-1.93191.55199-2.48973.65194-.55782.0999-.48663.019 1.28437-.43356-1.771.45253-2.7862.70025-2.87495.71541-.0888.0152.74892-.20222 2.6837-.67991-1.93482.47786-3.64632.86112-4.15586.95961-.50955.0985.18286-.0878 3.05587-.74898-2.86713.68266-4.3007 1.03861-4.29881 1.0527.002.0141 1.43923-.31369 4.31391-.9985-2.86128.70802-74.07864 18.14975-121.87835 29.8538-47.799715 11.70406-72.181767 17.67043 18.62759-4.57228-90.072482 25.2971-134.684798 39.4622-134.2395155 41.06111s45.9481635-9.36837 136.1060755-34.33604c-89.219167 27.97485-65.262795 20.48617-18.29947 5.77654 46.96332-14.70962 116.93358-36.64017 119.74221-37.54907-2.77937 1.02008-4.15638 1.58278-4.14229 1.6364.0141.0536 1.41928-.40181 4.20429-1.41802-2.75596 1.0981-2.27517.95474-1.00203.48126 1.27315-.47348 3.33865-1.27707 3.75213-1.49944-.41348.22237-1.66566.87967-2.38146 1.25317-.71581.3735-.89526.4632.83673-.44962-1.73199.91281-68.64983 31.628-113.8913 52.35319-45.241477 20.72519-68.806587 31.46036 16.16689-7.58688-81.434412 46.7965-120.064073 73.87541-117.871206 77.75004 2.192868 3.87464 45.208264-15.455 127.063966-61.47562-77.148727 52.90954-54.82467 37.68934-13.11397 9.14521 41.71071-28.54412 102.80807-70.41218 103.20596-70.79837-.39791.38619-1.05325.95181-1.3658 1.20634-.31255.25454-.2823.19798.69097-.66021-.97327.8582-59.08862 46.43314-98.56013 77.35489s-60.299192 47.19031 13.30287-10.56429c-69.670772 62.78067-102.393843 96.54049-100.167818 99.03835 2.226025 2.49787 39.401148-26.26621 109.526758-88.53334-65.62655 66.69909-48.0085 48.82241-13.46646 13.73654 34.54205-35.08587 86.00808-87.38093 88.07751-89.51861-1.98359 2.21959-2.92955 3.36742-2.88273 3.40936.0468.0419 1.08643-1.02202 3.07397-3.22601-1.90167 2.29566-1.66957 2.10549-.85868 1.18879s2.20058-2.55993 2.61408-3.17043c-.4135.61049-.62025.90987-.62025.90595 0-.004.20675-.31117.62025-.91395-.4135.60269-.50326.77043-.42332.67828.0799-.0922.32959-.44419.59491-.88109-.26527.43689-.36765.61729-.34714.59191.0205-.0254.16391-.25655.39024-.64281-.22624.38619-.22057.44957-.13873.36082.0818-.0888.23984-.32964.31826-.55199-.078.22237-.12775.36183-.13498.38081-.007.019.028-.0825.11988-.34211-.0917.25941-.34228.65925-.48223.84405-.13996.18479-.16925.15455.18176-.4462-.35108.60073-.43007.73823-.36474.62705.0653-.11118.27497-.47103.50118-.86501-.22625.39398-.3696.62315-.39011.64462-.0205.0215.0818-.16474.34701-.60152-.26527.43688-.51491.79479-.59487.89085-.08.0961.01-.0697.42328-.68021-.41348.61048-1.02493 1.48524-1.30188 1.87581s-.2194.29694.70513-1.02936c-.92451 1.32629-2.04894 2.85543-2.5029 3.44788-.45397.59244-.23747.24819 1.51988-2.17229-1.73199 2.43412-2.57945 3.6668-2.56192 3.67999.0175.0132.90004-1.1931 2.62802-3.63689-1.70077 2.45559-43.56483 62.71894-71.65641 103.15416s-42.41068 61.04231 10.97847-15.81462c-50.79118 78.67473-74.86788 118.85976-73.47513 119.76057 1.39276.90081 28.25497-37.4826 79.34164-115.94476-48.38961 80.10771-35.41134 58.63834-9.95045 16.49938 25.46089-42.13897 63.40438-104.94753 64.94522-107.51819-1.50378 2.59797-2.23422 3.91061-2.21136 3.92422.0229.0136.79903-1.27184 2.30846-3.87002-1.46475 2.61942-1.1244 2.10354-.39006.85331.73434-1.25022 1.86266-3.23478 1.97384-3.5527-.11112.3179-.20865.58804-.23696.66412-.0283.0761.0126-.0419.17836-.50024-.16573.45833-30.14366 68.25122-50.61983 114.52793-20.47618 46.27672-31.45059 71.03726 6.3907-14.56908-30.17688 88.99834-41.28059 134.87657-37.088 136.3253 4.1926 1.44872 23.6815-41.53204 54.68986-130.25167-22.84093 90.78123-16.31674 65.05036-4.02575 16.33698 12.29098-48.71339 30.34876-120.40928 30.57501-121.55808-.22625 1.1488-.58415 3.15482-.75137 4.13492-.16723.98009-.14378.93425.39269-2.02066-.51489 2.95491-.76064 4.43724-.74805 4.44162.0126.004.28354-1.46921.80205-4.42612-.49151 2.96271-13.84173 75.14134-22.81786 123.5642-8.97613 48.42287-13.57818 73.08997 3.42665-18.97035-10.81066 93.21302-13.07131 140.19979-9.75675 140.59963 3.31457.39984 12.20435-45.78724 23.69455-138.9219-5.1316 93.48961-3.73314 68.42842-1.01814 19.24587 2.715-49.18256 6.74655-122.48648 6.88113-125.48234-.0624 2.99977-.0604 4.49966-.0248 4.50066s.10475-1.49689.17672-4.49266c-.008 2.99586-.008 4.49379-.005 4.49379s.009-1.49793.0127-4.49379c-.004 2.99586-.006 2.57651-.006 1.26241 0-1.31411.002-3.52298.006-4.10615-.004.58317-.006.89232-.006.90497 0 .0127.002-.27119.006-.87397-.004.60268-.006.69631-.006.55393s.002-.52077.006-.86212c-.004.34135-.006.5081-.006.50563 0-.002.002-.17414.006-.50963-.004.33549-.006.4964-.006.49148 0-.005.002-.1757.006-.50358-.004.32769-.006.49836-.006.50329 0 .005.002-.1559.006-.49119-.004.33549-.006.49151-.006.48315 0-.008.002-.18111.006-.50315-.004.32183-.006.48761-.006.49104 0 .003.002-.15548.006-.48304-.004.32769-.006.43691-.006.39937 0-.0375.002-.22183.006-.48117-.004.25941-.006.39301-.006.39546 0 .002.002-.12625.006-.39146-.004.26527-.006.32279-.006.27156 0-.0512.002-.21124.006-.38101-.004.16968-.006.25452-.006.25452s.002-.0848.006-.25452c-.004.16968-.006.32573-.006.37446 0 .0487.002-.01.006-.26943-.004.25941.004.34621.0102.31702.007-.0292.0124-.17438.005-.37892.008.20478.0161.32669.0194.34033.003.0136.002-.081-.0114-.30933.0132.22817.0199.34226.0199.34226s-.007-.11409-.0199-.34226c.0132.22817.024.3257.0261.31397.002-.0117-.005-.13272-.0261-.34157.0215.20871.0323.31306.0323.31306s-.0108-.10435-.0323-.31306c.0215.20871.0282.33452.0261.34968-.002.0152-.0128-.0803-.0261-.31418.0132.23403.0329.38715.0413.41156.008.0244.006-.0799-.0262-.36066.031.28086.0661.71678.0797.91914.0136.20235.006.17114-.0495-.48225.0548.65339.0452.76847.0199.62366-.0253-.14482-.0662-.54952-.0739-.9357.008.38618.016.45933.0194.3774.003-.0819.002-.31892-.0114-.553.0132.23403.006.43102-.004.48563-.01.0546-.0222-.0332-.0185-.36865-.004.33548-.006.69729-.006.82942 0 .13214.002.0346.006-.54857-.004.58317.004.74019.0102.64804.007-.0921.0124-.43346.005-.84695.008.41349.071 1.13905.11197 1.49501.041.35595.0596.34229-.0224-.72264.082 1.06493.2205 3.1285.28729 4.17686.0668 1.04836.0619 1.08151-.14291-1.91436.26529 2.99587.42034 4.48893.44567 4.4855.0253-.003-.0791-1.50338-.33267-4.4935.30425 2.99001 8.80814 75.90504 14.52827 124.82337s8.65651 73.83997-2.17424-19.15679c13.97095 92.62421 22.52262 138.70011 24.17513 138.45138s-3.59414-46.82211-17.21985-139.49645c16.75417 92.10679 12.21648 67.42594 3.37079 18.97771s-21.99938-120.66384-22.47725-123.62655c.55782 2.95685.8699 4.42456.90698 4.41574.0371-.009-.20081-1.49414-.74295-4.44334.61633 2.94124.9245 4.41187.92449 4.41187.00001 0-.30816-1.47063-.92449-4.41187.61633 2.94124.60471 2.75011.38532 1.61156-.21938-1.13856-.64653-3.22454-.86124-4.073.21453.84843.31303 1.2512.30723 1.23659-.006-.0146-.11589-.44657-.31853-1.26759.20285.82113.25358.95376.21898.7636s-.15455-.70312-.29308-1.17317c.13852.47005.21165.70898.21409.71193.002.003-.0658-.23008-.21009-.70393.14438.47393.27211 1.0064.31009 1.20828.038.20187-.0138.0732-.22849-.77526.21453.84843 22.61523 71.40051 37.88516 119.4334 15.26992 48.03288 23.40909 73.54657-4.89944-15.68178 30.50858 88.5297 46.86392 132.41322 48.02298 132.01285 1.15905-.40038-12.87817-45.08467-43.15472-133.69058 38.17185 85.68261 60.03423 127.29117 62.95743 125.99804 2.9232-1.29312-13.09278-45.48794-50.67763-131.41206 42.9173 83.18137 30.87049 59.7878 7.92125 15.27755-22.94923-44.51025-56.8009-110.13718-57.49331-111.42251.69241 1.28533 1.68128 2.96856 2.12109 3.68193s.33058.45689-1.17322-2.13718c1.53303 2.57652 2.31223 3.85405 2.32683 3.84289.0146-.0112-.73539-1.31102-2.26073-3.88929 1.55256 2.56093 39.29145 65.49949 64.60805 107.73126 25.3166 42.23176 38.21089 63.75671-9.92576-16.50957 53.61345 76.97727 83.02985 113.65415 85.78045 111.74907s-21.1646-42.39213-74.21435-119.7427c57.98435 73.45575 42.41308 53.77511 11.8898 15.13907-30.52328-38.63605-75.99856-96.22751-77.82222-98.59338 1.90167 2.31127 2.87786 3.43277 2.90906 3.39815.0312-.0346-.88259-1.22538-2.76091-3.5386 1.95238 2.2469 1.6169 1.89095.71823.87819-.89866-1.01276-2.36051-2.68233-2.66087-3.06266.30038.38032.97328 1.04054 1.33118 1.36187.35789.32133.40079.30378-.55883-.67144.95962.97521 2.3454 2.36782 2.96662 2.98758.62121.61975.47786.46664-1.6208-1.64958 2.12791 2.08696 3.2104 3.11288 3.22797 3.09539.0176-.0175-1.02975-1.07839-3.16147-3.16509 2.15522 2.05575 56.75561 51.05829 93.41542 83.91813 36.65982 32.85983 55.37907 49.57698-14.22798-12.93804 71.71735 60.15714 108.5893 89.0285 109.65816 87.75443 1.06887-1.27407-33.66536-32.69357-105.16036-93.11811 73.44545 57.94907 53.6983 42.46362 15.02026 12.0111-38.67805-30.45252-96.28698-75.87212-98.56509-77.79134 2.31712 1.86656 3.50298 2.77351 3.5284 2.74722.0254-.0263-1.10962-.98584-3.4343-2.85225 2.35807 1.81974 2.08307 1.61103 1.08738.84402-.99568-.76702-2.71206-2.09234-3.23676-2.5058.5247.4135 64.01125 38.47314 107.31521 64.40018 43.30397 25.92703 66.42535 39.72146-13.7803-8.39547 84.51215 40.91028 128.6192 57.57769 130.56671 53.59297 1.94752-3.98473-38.26451-28.62159-122.39051-70.31987 87.1667 33.86299 62.10366 24.16154 15.08559 5.91876s-115.99116-45.02688-116.64457-45.32919c.65341.30231.65541.35497.43308.28816-.22232-.0668-.66896-.25307-.91285-.42861.24382.17554.36083.25844.35738.25501-.003-.003-.12735-.0932-.36538-.26301.23796.16968.67194.35498.88746.42374.21552.0688.21259.021-.42326-.27547.63585.29645.9684.44761.97855.44908.0102.001-.3021-.14677-.95585-.44908.65339.30231 2.69158.97521 3.86379 1.33263 1.1722.35742 1.47842.39935-1.33215-.56025 2.81057.9362 4.21586 1.39455 4.21586 1.38524 0-.009-1.40529-.48629-4.21586-1.42074 2.81057.9206 72.71207 23.0542 119.62774 37.8985 46.91568 14.8443 70.84552 22.39929-18.28723-5.83731 91.03245 22.24467 137.31227 30.29118 138.11487 27.05395.8026-3.23722-43.87202-17.75819-134.74847-40.64846 92.00375 16.65278 67.2996 12.20287 18.87042 3.45178-48.42919-8.7511-120.58341-21.80339-123.47982-22.35536 2.89641.50323 4.35046.73143 4.35438.7066.004-.0248-1.44228-.30271-4.34638-.81163" fill="url(#b)"/></g><g opacity=".75" stroke-width="1.08183" transform="matrix(0 -.92436256 .92435004 0 19.370438 481.10779)"><path d="m334.698-15.397179c-5.61266 6.106849-11.22384 12.2150593-16.83399 18.3242193 5.60507 5.837189 11.6103 11.2665617 17.59571 16.7070307-9.11826-4.595917-18.87022-8.152562-29.02149-9.542969-5.96329-.7336997-12.17414-.7702117-17.9321 1.146811-4.76061 1.56173-9.13787 4.873726-11.1304 9.571939-1.85126 4.22125-1.78653 9.049621-.56621 13.433452 1.80486 6.750298 5.71771 12.721425 10.12327 18.058669 7.17695 8.58128 16.0366 15.644033 25.56805 21.443609 5.77989 3.477704 11.85291 6.478589 18.16396 8.865052-7.40811.477021-14.87436-.383644-22.01837-2.380108-8.30921-2.259349-16.21564-5.74864-24.07258-9.126511-.71571-.598703-.94117.04636-1.16438.697139-3.46084 7.880053-6.91957 15.761034-10.37944 23.641514 11.78016 5.336372 23.9647 10.086352 36.77026 12.248152 7.70008 1.34639 15.55971 1.74698 23.3606 1.2831-4.46759 3.40745-9.18743 6.6354-13.84961 9.86523 5.10927 7.41239 10.21977 14.82392 15.32617 22.23828 11.57972-7.76771 22.72682-16.29282 32.48242-26.29101 3.88955 11.51474 9.06019 22.51371 13.47503 33.79822.32127.81734.64294 1.63452.96443 2.45178 8.41647-3.20756 16.83327-6.41422 25.25-9.6211-2.71199-7.05773-5.64609-14.02618-8.50391-21.02539-.9581-2.3775-1.96138-4.86883-2.88476-7.31054 4.16699 6.37012 10.36082 11.32888 17.34765 14.29687 3.93393 9.06382 9.40339 17.40929 15.80584 24.91678.61027.7413 1.22058 1.48257 1.83088 2.22385 6.91484-5.80821 13.82554-11.62133 20.74024-17.42969-3.17003-3.7939-6.34834-7.60161-9.03711-11.75977 2.32055-1.93395 4.22504-4.38706 5.44335-7.15625 3.56214 1.62977 6.90385 3.68431 10.2793 5.66016 4.66472-7.81132 9.33092-15.62176 13.99805-23.43164-7.92002-3.757772-15.57481-8.190172-23.96075-10.866902-3.56852-1.1232-7.27299-1.85876-11.01581-2.01005-5.51521-4.492683-12.22272-7.57287-19.29708-8.493184-3.39841-.449458-6.87968-.375044-10.23417.354507-.66099-.538452-1.33789-1.056559-2.01368-1.576172 8.27972-1.474887 16.71647-1.954249 25.11719-1.755859 1.39585.04157 3.02543.106688 4.51051.199892 4.2768.254522 8.54922.741783 12.76293 1.479795 1.25473.155942 2.62951-.818204 2.61113-2.134236 1.2768-8.104989 2.55327-16.210027 3.83028-24.314982-14.23068-2.099285-28.67864-3.518335-43.0587-2.26757-2.88471.237074-5.75902.595015-8.61709 1.052726 2.56996-12.128868 3.32849-24.593947 2.80214-36.964974.2062-1.393231-.75473-2.950821-2.24745-2.995964-4.27008.264979-8.57448.380345-12.85847.582047-4.03025.169864-8.06047.340523-12.09075.50975.21485 4.775495.43605 9.439562.2733 14.224176.021.643856.008 1.162868-.38921.386474-9.05587-13.159854-20.98883-23.9490537-32.84729-34.512806-3.03487-2.703256-6.05056-5.427726-9.06609-8.152531-.44727.486328-.89452.972656-1.3418 1.458984z" fill="#e5f9ff" filter="url(#d)" opacity="1"/><path d="m336.30178-11.231953-12.91279 14.0558853c14.28874 14.4686707 29.84759 25.1058427 38.95005 41.2891627-5.92718-6.170618-13.33616-12.013125-21.48603-16.913633-25.40221-15.304827-51.75699-18.0884847-59.06012-6.234124-7.30314 11.928451 7.51481 34.081288 32.91702 49.460205 11.53683 6.879763 23.81456 11.536833 34.50465 13.018629-25.82556 6.985606-41.38441 2.116846-63.29382-7.408976l-7.62065 17.358172c21.27434 9.419982 41.38441 14.817952 68.05674 9.949202-6.98562 6.2447-14.39459 11.64267-21.48603 16.51143l10.79593 15.66469c10.6901-7.30313 22.54446-16.51143 33.23455-28.47164 3.70449 13.23032 9.84336 25.93142 14.9238 38.8442l17.78154-6.77392c-5.82134-14.92379-11.64268-26.88399-15.24132-41.066892 2.96359 1.58764 5.92718 2.963592 8.78492 4.127862 1.37596 7.19729 6.77392 14.39458 14.39459 19.05165 2.011 1.27011 4.12785 2.22269 6.2447 3.06943 3.59865 8.4674 8.04403 16.08806 15.13548 24.55546l14.60627-12.27773c-3.81033-4.55122-6.56224-8.4674-8.78493-12.38357 4.65707-2.64606 7.51482-6.66808 8.25572-11.43099 3.38696 1.27011 7.19729 3.06943 11.43099 5.60965l9.73751-16.29974c-10.58426-5.186292-20.00425-10.584262-30.80018-10.584262-1.58764-1.37595-3.38696-2.64606-5.18628-3.81033-7.72651-4.657066-16.72312-6.138862-23.81457-3.916169-3.17528-2.646063-6.77392-5.292125-10.58425-7.832346 15.77053-4.65707 36.62151-4.762913 50.8044-2.434377l2.96359-18.808214c-18.20491-2.582558-35.56308-3.281118-52.39204.465707 3.17528-12.140136 4.76291-25.709146 4.12786-40.929299l-19.05165.804403c.42337 8.774344 0 16.807791-1.05843 24.248519-9.94919-20.98857-30.3768-37.2883157-44.87722-50.508045z" fill="#00b7e5" opacity="1"/><path d="m349.26236 172.24805c-1.32847.0189-1.89351 1.38428-2.67383 2.23047-4.7792 5.97533-9.55929 11.94996-14.33789 17.92578 4.8817 3.80507 9.61347 7.90381 13.33754 12.88494 2.18093 2.8862 4.04497 6.00958 5.55895 9.29474-4.65376-6.54497-11.82806-10.99916-19.45228-13.26905-1.09314-.35254-2.2633-.52786-3.34592-.84139-10.62297-9.22342-23.47727-15.62116-36.90928-19.62612-.90217-.28255-1.80439-.56496-2.70659-.84742-2.60597 8.62199-5.21186 17.244-7.82031 25.86523 4.48624 1.33698 8.94032 2.81591 13.20899 4.75.93582.41727 2.04907.94735 3.03711 1.44336-1.28532 2.52384-2.026 5.32832-2.125 8.16016-.98581-.006-1.98332-.0279-2.86477-.0829-4.32688-.18294-8.56867-1.14319-12.73484-2.27067-2.30283 8.70211-4.60165 17.40527-6.9043 26.10743 6.80474 1.96448 13.82858 3.26043 20.92097 3.42841 7.21194.23172 14.44281-.45898 21.50676-1.91084 5.71704 2.26929 11.95271 3.33643 18.09571 2.80665-8.52451 3.82802-17.31891 7.00338-25.99805 10.45312 3.3063 8.41706 6.61498 16.83318 9.92188 25.25 9.72553-3.98035 19.7398-7.24544 29.30664-11.61133 1.14957 9.22682 3.56246 18.29345 7.12695 26.87891.19196 1.41238 1.7755 2.35379 3.10547 1.82226 7.63685-3.14058 15.28675-6.26277 22.92773-9.39843-1.72822-4.18175-3.3311-8.42727-4.43945-12.82032 6.34628 7.59084 13.99834 14.07708 22.51841 19.10732 8.71411 5.28756 18.07743 9.36403 27.32339 13.60753 3.80636 10.49493 7.56255 21.05241 9.97656 31.9707.12039.59791.30159 1.45216.44531 2.14844-5.43778-9.86103-12.23172-19.02044-20.38177-26.81035-5.34512-5.03227-11.33803-9.52747-18.13564-12.39557-4.95266-2.06933-10.59123-3.15167-15.85618-1.6718-4.35024 1.22856-8.05162 4.36965-10.11469 8.37576-2.9323 5.52116-3.38263 11.98414-2.88901 18.11268.7946 9.56734 3.84581 18.81566 7.84534 27.49476 3.88667 8.39614 8.77746 16.33033 14.55929 23.55467-7.91292-5.07611-14.60422-11.80522-20.61396-18.9802-4.94259-5.87566-9.48202-12.07286-14.0833-18.21511-7.21298 5.4133-14.42923 10.82222-21.64453 16.23242 9.24295 12.49941 18.99268 24.8182 30.94411 34.86372 9.79839 8.31645 21.10025 14.85332 33.19456 19.20269-2.86536.21113-5.74237.25964-8.61328.14648-.56132-.0351-1.46293-.0678-2.15331-.12591-.71315-.0403-1.52126-.13319-2.16114-.18463-1.12261-.0524-2.40581-.62423-3.38309.19794-1.18545.85068-.90772 2.44142-1.16397 3.69844-.92399 7.47071-1.846 14.94166-2.7713 22.41221 6.94687.90245 13.96839 1.39892 20.97127.97088 4.34499-.2548 8.67834-.75644 12.95646-1.56268-1.52528 9.99022-2.08254 20.09153-3.12695 30.13672 8.91391 1.00261 17.8279 2.00456 26.74218 3.00391.98814-8.64842 1.72397-17.32744 2.9668-25.94531.0838-.52402.19112-1.26434.28516-1.87305.71023 3.85731 2.07437 7.58569 3.90625 11.04687-4.31959 14.56925-2.20933 30.8574 5.52307 43.92093.54347.97414 1.08841 1.94746 1.63318 2.92087 7.80856-4.50704 15.61933-9.01026 23.42773-13.51758-2.05665-3.54257-4.08318-7.20992-4.82238-11.28794-.23365-1.10303-.39758-2.22065-.50379-3.34292 5.24629.47099 10.80177-.825 14.85571-4.30703.40217-.6029.73276.34197 1.09741.55508 3.78981 3.92484 6.85261 8.46147 9.75782 13.05859 7.61997-4.81221 15.24086-9.62298 22.85937-14.4375-4.4171-6.98076-9.22213-13.78097-15.10518-19.61596-4.30733-4.32387-9.10981-8.19062-14.42607-11.2063-3.6054-8.3423-10.12315-15.58026-18.45632-19.36281-.7725-.34825-1.56284-.65497-2.36204-.93602 7.40334 1.05623 14.44088 4.02851 20.63524 8.17315 1.51214.99338 2.99245 2.04784 4.39015 3.18623 1.23139.73152 2.80288.0146 3.4164-1.19064 4.71717-6.53519 9.46916-13.04642 14.19884-19.57304-6.34206-4.81232-13.15399-9.07753-20.55534-12.06395-4.34469-1.77993-8.84436-3.18055-13.43099-4.18409 5.9725-12.68165 8.54619-26.7676 8.60536-40.73028.019-.97532.0378-1.95065.0567-2.92597-6.94138-.0794-13.88282-.15468-20.82422-.23242-4.07865-15.12062-7.61886-30.38016-11.74614-45.48679-.23625-.83922-.47678-1.67713-.73042-2.51126 1.16661-2.12894 2.3325-4.25827 3.5-6.38672-6.32776-3.74606-12.87747-7.10483-19.56641-10.15625 9.19136 1.4984 18.64815 2.01146 27.86831.4586 5.92621-1.07041 11.92813-2.97607 16.61607-6.8961 3.635-3.00766 6.1642-7.47667 6.30664-12.24805.22629-4.83925-1.6687-9.51421-4.34926-13.45845-4.1926-6.18836-10.12031-10.97134-16.33849-15.00718-6.3866-4.098-13.29866-7.33632-20.43335-9.8996 8.54805.66905 17.05478 1.72797 25.5918 2.50586.80654-9.08932 1.61552-18.17842 2.42383-27.26758-10.34752-.23263-20.65627-1.25406-31.00102-2.08784-6.92137-.56104-13.87682-.91645-20.81929-.57622-2.07498-7.13539-4.14901-14.27105-6.22461-21.40625-8.61121 2.30655-17.06886 5.32516-24.93065 9.56138-5.32421 2.85749-10.38574 6.21584-15.0342 10.07924-5.41989-10.25021-13.15846-19.225-22.28836-26.34018-.53268-.56584-1.30091-1.02588-2.10031-.91958z" fill="#e5f9ff" filter="url(#e)" opacity="1"/><path d="m349.71305 176.97926-11.85436 14.81795c10.16088 8.14988 16.61727 17.56986 20.11007 29.74175-2.7519-.52921-5.50381-1.05843-8.14987-1.37595-3.17528-6.66808-10.26672-12.27774-18.94581-14.9238-1.37595-.42337-2.85775-.7409-4.2337-.95258-2.01101-1.79932-4.02202-3.38696-6.13887-4.9746-8.67908-6.35055-18.94581-11.21931-29.10669-14.28874l-5.50381 18.20491c5.82134 1.79933 11.74852 4.33955 17.04065 7.40898-3.38696 3.81033-4.55123 8.89077-3.59865 13.442-6.13886.42337-12.06604-.10584-17.04064-1.37595l-4.86876 18.41659c12.06605 3.17528 25.29636 2.96359 37.89162.21169 1.58764.63505 3.17528 1.27011 4.76291 1.69348 8.57325 2.43437 17.46402 1.69348 23.70873-2.11685 2.11685.95258 4.2337 1.90516 6.56223 2.7519-11.85436 7.62066-26.56647 12.80695-38.1033 17.35817l6.9856 17.78155c7.83235-3.17528 19.1575-6.77393 30.48265-12.48942.74089 10.90178 3.28111 21.38019 6.9856 30.3768l17.56986-7.19729c-3.17528-7.83235-5.29213-17.25233-5.60965-26.884 7.40897 13.12447 16.40559 22.22693 26.1431 28.89501 10.79593 7.30313 22.01524 11.9602 33.23454 17.14648 8.36156 22.86199 14.50043 41.38442 12.80695 61.38866-2.32854-8.89077-6.45639-18.52244-12.06605-27.51905-15.66469-25.29636-37.99746-39.79679-49.85182-32.49365-11.85436 7.40897-8.78493 33.76376 6.87976 59.06012 6.56224 10.58425 14.60627 19.6867 22.86199 25.93141-25.08468-7.40897-37.67994-22.43861-53.87384-44.24217l-15.24132 11.43099c18.94581 25.40221 38.8442 46.35902 76.31245 54.08553-10.79594 3.17527-22.01525 4.02201-31.22354 2.96359l-2.32854 18.83996c10.58425 1.27011 22.43861.7409 34.39882-2.22269-2.32854 12.17189-2.85775 23.70872-3.70449 31.75275l18.83996 2.11685c1.37596-12.17189 2.43438-27.83658 6.77393-41.27858 1.48179 1.90517 2.85774 3.81034 4.33954 5.50382-2.01101 6.87976-.52921 15.453 3.91617 22.96782-4.65707 14.07705-2.7519 29.53006 4.33954 41.80779l16.51144-9.52582c-2.96359-5.18629-4.33955-11.53684-4.02202-17.88739 7.83235 2.01101 14.71211.52921 19.05165-5.50381 4.2337 3.70449 8.36156 8.4674 11.96021 14.07705l16.08806-10.16088c-7.19729-11.2193-16.40559-21.06266-27.09569-26.77815-.84674-2.01101-1.79932-4.02202-2.96359-5.92718-4.76291-7.62066-12.06604-13.01863-19.36917-14.28874-1.05843-2.43438-2.2227-4.9746-3.59865-7.51482 12.80694 0 23.49704 3.70449 34.08129 11.53683l11.2193-15.453c-10.4784-7.62066-21.9094-12.27773-34.39881-14.1829 6.45639-11.64267 10.37256-25.82557 10.58425-42.65453l-19.05165-.21168c2.64606 16.82895-11.85436-45.19476-14.50043-52.39205l2.43438-4.44538c-19.15749-11.11347-39.16173-15.77054-53.23878-30.69433 7.51482 4.9746 16.82896 9.10246 26.67231 12.06605 28.57748 8.36155 54.82642 4.33954 58.74259-9.10246 3.81033-13.442-16.08806-31.01186-44.55969-39.37341-9.10246-2.64607-18.31076-4.12786-26.77816-4.33955 19.26334-4.02201 40.74937-.63505 56.62575.84674l1.69348-19.05165c-24.1321-.84674-43.07791-5.50381-64.14057 0 3.91618-1.79932 8.25572-3.38696 13.01863-4.76291l-5.29212-18.20491c-16.29975 4.65707-29.00085 12.17189-38.52668 21.1685-5.08044-11.32515-12.7011-21.06266-22.65029-29.00085z" fill="#00b7e5" opacity="1"/><path d="m213.18748 316.39997c-6.67195 4.99599-13.34363 9.99235-20.01562 14.98828 1.73966 2.36225 3.58999 4.74791 4.38143 7.62598.0539.42723.50194 1.14858.31017 1.42781-4.87285.50829-9.59628 2.76591-12.88106 6.42863-4.54283-3.65895-8.40524-8.06384-12.01758-12.62109-6.99349 5.71013-13.98659 11.42075-20.97851 17.13281 4.97064 6.20459 10.28423 12.19942 16.51061 17.17972 4.9236 3.98563 10.33396 7.41708 16.19642 9.84567 2.30683 3.87574 5.35261 7.28905 8.82422 10.15821-5.78382-2.21947-11.37997-4.93675-16.73438-8.04493-1.08603-.93494-2.90264-.71158-3.6855.50618-4.03173 7.19722-8.16276 14.35751-12.23246 21.5407 11.13861 6.44482 22.8366 12.12588 35.30251 15.48648 2.54101.69782 5.11142 1.28783 7.70139 1.77329-5.8026 13.341-7.26442 28.24212-5.83951 42.62689.14187 1.56077.29539 3.12099.44107 4.6817 7.3984-.74388 14.79688-1.48693 22.19532-2.23047 5.37616 16.23117 14.0034 31.11975 21.7723 46.23462.1765.91694.75677.56723 1.34305.19865 7.61277-3.90251 15.22637-7.80339 22.83972-11.70475-3.07307-7.39581-6.74804-14.51797-10.44922-21.61329 6.87989 7.40053 14.69972 14.05737 23.62756 18.86095 5.65444 2.94423 11.85953 5.29198 18.31811 5.25536 4.81757-.0133 9.79019-1.75689 13.01745-5.44588 3.10739-3.37298 4.55737-7.93612 4.91968-12.43722.57792-7.07612-1.09922-14.12933-3.45234-20.75712-4.01828-11.08622-10.36377-21.21364-17.79764-30.31984-3.59142-4.35657-7.47245-8.4805-11.6836-12.24414 1.15463.51768 2.32276 1.09372 3.50977 1.72071 9.71167 5.22628 18.41851 12.05695 27.22205 18.644 2.54971 1.92787 5.09793 3.85771 7.64904 5.78373 5.50987-7.27937 11.02036-14.55828 16.52735-21.83984-9.58508-6.05709-18.46861-13.12524-27.76742-19.59503-5.5997-3.8578-11.41539-7.48048-17.71501-10.08857 0-6.47916 0-12.95833 0-19.4375-10.26874-.22203-20.5904.27175-30.69922 2.17578 2.87437-11.43768 4.44862-23.23304 4.24024-35.0371-.18792-1.30128-1.52666-2.13431-2.78906-1.91993-7.62003.13494-15.26096.17633-22.88902.27655-.44721.15791-1.58163-.3542-1.40045.41639.28191 8.41576-.64267 16.84201-2.45014 25.05749-.82085 3.81178-1.81728 7.58635-2.99281 11.30426-.57112-.30115-.41379-.88693-.40619-1.42053.14724-6.01718-.4579-12.17151-2.85969-17.74857-1.27387-3.29431-2.97441-6.42948-4.16337-9.74535.0961-9.48202-1.6729-19.2178-6.56952-27.44903-1.41401-2.39601-3.14132-4.5841-4.75709-6.84355-.54102.4043-1.08203.80859-1.62305 1.21289z" fill="#e5f9ff" filter="url(#c)" opacity="1" transform="matrix(-.99032998 .13873375 -.13872999 -.99032998 545.005 780.57991)"/><path d="m288.60644 492.54629 13.52908-13.43788c-2.3943-2.44337-4.48268-6.74648-5.75979-11.59074 7.07537.0776 13.44811-4.02145 15.64461-10.31421 5.02531 2.60917 10.20371 6.15878 15.09501 10.7105l12.9588-13.99925c-9.67356-9.01182-21.00312-16.18851-32.78933-18.91931-5.84545-8.15871-17.99256-14.6865-26.78064-14.09664-1.13218-1.44454-2.34194-2.98508-3.61038-4.41053 13.56367-.83135 28.21573 2.67362 40.73378 7.65318l7.0173-17.65571c-12.98765-5.12752-28.93749-9.73319-45.23281-9.48105 4.70955-12.84362 5.75645-28.4873 1.27492-46.66967l-18.49829 4.51517c1.16809 4.75266 1.92106 9.13597 2.31133 13.14258-6.05616-20.9543-21.35731-40.07911-31.90975-55.05975l-15.567 10.9446c10.40169 17.03238 24.11962 31.03519 28.9512 48.74101-4.33596-7.30141-10.37841-14.5775-17.18599-21.21203-21.4542-20.40036-46.68303-28.83621-56.29002-18.83342-9.59231 10.10759-.0348 34.84646 21.43404 55.35163 10.49544 10.07232 22.58394 17.78395 33.32201 21.19597-7.53024.41364-13.92014-.18747-20.00822-1.68588-11.98121-3.13098-23.95226-10.00406-41.11002-19.57057l-9.31084 16.69449c16.59369 7.82864 31.75786 18.42255 47.16669 21.60775l2.52557 18.02887c9.76286-1.26079 20.86102-3.67052 31.48525-7.93762-2.10364 13.97482-2.12557 27.55114-.4643 38.64727l18.83806-2.85274c-1.61722-10.78168-1.18663-26.01839 2.15169-41.02119 2.31041 1.92074 4.64804 3.73079 6.96052 5.43747 1.44359 15.18793 4.59674 17.09747 10.9141 27.86197 1.15173 9.67125 4.29931 20.23853 12.20342 28.21573z" fill="#00b7e5" opacity="1"/></g><path d="m168.16602 177.81055c-7.30615-4.79247-17.11197-8.57922-25.49219-6.10545-7.86262 2.32098-14.43094 9.26374-16.97266 17.79883-2.4613-.50663-4.87331-.76983-7.23047-.25977-5.5747 1.2063-11.58027 3.31918-15.3164 7.62891-8.944121 10.31729-9.486625 25.65988-12.876956 38.88672-5.074672 19.79803-11.101563 60.30078-11.101563 60.30078-6.657707 1.47352-13.284357 2.7201-19.735352 4.76562-9.301423 2.94935-19.582095 4.7033-27.21582 10.78124-6.992061 5.56705-15.385432 13.14615-15.208984 22.08202.111202 5.63159 6.465291 9.24723 10.126953 13.52735.0012.001.0026.003.0039.004s.0025.003.0039.004c5.049014 4.15958 10.655883 7.65329 16.414062 10.75781 7.169446 3.8654 15.092449 6.95358 22.421875 9.71289l-3.365234 18.28125-43.335938 11.80274c3.166944 10.79848 6.335404 21.59651 9.503906 32.39453l-16.3125 4.44336 13.046876 44.47851 74.068359-19.24023 6.759766-40.19141c15.30679.10591 29.55609-.12988 44.29808-1.04082 13.61265-.84117 27.46822-2.30893 40.71169-4.08221-2.27908 11.9251-3.18422 23.81323-4.2793 34.39453l-.79492 7.67578 37.0625 43.38867 46.71875-23.23438-28.22852-35.04882.27344-1.69141 44.60547 37.35547 33.85156-40.16016-31.63867-26.5c5.30581-1.56941 10.73022-4.09988 15.57813-7.79297 3.35124 5.41609 7.53713 10.19003 12.55078 13.91602 11.91872 8.85762 26.30938 13.99743 40.28125 19.02734 2.57677.92764 7.96093 2.03125 7.96093 2.03125l24.86524-17.25 32.40234 42.79297 63.35938-20.84961-8.83789-30.03906 10.43164-4.03516-19.25391-49.4375-17.34961 7.3125-22.90625-33.99023c4.82775-4.38409 8.69992-9.41658 11.73795-14.9878 3.38515-6.20777 6.22255-13.00686 6.95541-20.03954.86319-8.28327.80029-17.4533-3.14982-24.78503-6.23043-11.56419-19.13307-18.14876-29.91467-25.65247-16.45172-11.44997-35.17419-19.23639-52.56198-29.20763-19.01874-10.90652-39.13137-20.25085-56.60985-33.48593-16.82239-12.73828-32.14154-25.04244-45.79492-43.70508-12.76031 9.27269-25.51971 18.54662-38.2793 27.82031l-2.77148-3.78711-38.41406 27.92188c-2.65033-5.60409-5.92288-11.32769-11.04492-14.6875zm50.89257 101.83021s-9.62006-20.52945-14.30468-30.8517c-5.13362-11.31158-9.82074-21.70688-15.125-34.05859 13.83228 16.19308 35.33499 26.03391 54.64648 36.29101 9.43834 5.01308 19.48732 8.33501 29.65039 12.19727-6.86721-.36201-13.92587-.38785-20.92187-.53125l-.50586 14.85066c-10.98271.61984-22.17548 1.32464-33.43946 2.1026z" fill="#00b7e5"/><path d="m254.74251 165.65194-13.3795 9.7238c19.52882 26.6923 63.69543 51.10264 103.09343 72.60574 4.56623 2.49192 9.04232 4.91691 13.42457 7.2933-8.98436-2.86323-18.28792-5.8218-27.88767-8.96191-24.53476-8.02676-50.09609-16.97218-71.35427-26.6703-21.25726-9.69813-38.08535-20.57895-44.94573-29.95619l-13.37766 9.7238c10.38809 14.19879 29.1203 25.05669 51.43173 35.23615 22.31143 10.17945 48.3281 19.24864 73.08362 27.34691 24.75368 8.09828 48.27566 15.22839 65.13411 21.2629 8.42876 3.01634 15.23303 5.81172 19.29701 8.00567 1.31542.71054 1.72844 1.08002 2.36315 1.54026-.40474 2.1912-1.29702 5.72371-4.39882 10.36282-6.04814 8.94908-16.73886 13.08944-27.02944 14.20154 3.84138 1.12678 6.33422 7.34373 6.3287 15.78673 9.00001-1.53292 16.30193-4.66661 22.08423-8.56493 7.21545-4.23571 12.24438-9.77514 15.3379-15.27789 4.10353-8.83723 8.28066-21.32524 2.98773-29.297-1.56653-2.26454-3.44031-4.09543-5.625-5.96483-4.3703-3.73879-10.08728-7.52709-16.99642-11.71329-13.81828-8.37332-32.32881-18.14204-51.90547-28.82758-39.15424-21.37108-82.69809-47.39594-97.6662-67.8557zm-105.23029 22.7023c-8.64677 3.55176-8.0599 9.51293-3.57646 14.96067 13.58831 16.59812 25.58341 41.25141 37.27587 53.86503 4.26284 4.59775 8.52091 9.19988 12.77422 13.80639-2.3613-4.55018-4.47792-8.60436-7.23385-13.95308-9.40474-18.25298-18.35139-43.769-27.27228-59.7831-2.94083-3.89099-6.81623-8.83356-11.9675-8.89591zm-28.22803 18.66921c-10.28874 1.62828-6.68653 10.60761-3.50746 16.16996 9.44889 20.33782 27.10027 36.29141 35.01298 52.48429 16.77842 39.63414 29.37971 78.76036 54.15547 102.91307 2.8822-4.16806 6.22853-7.99755 9.97506-11.41533 7.02044-6.39482 15.32686-10.54893 24.17141-13.1527-10.16456-20.43317-6.86315-17.48834-70.04161-85.64384-14.8007-15.96735-26.64862-40.83518-37.94277-54.62965-3.46699-3.23638-7.15291-6.39483-11.82308-6.7258zm-13.30407 31.99611-36.487538 198.17803-36.577683 9.96308 2.970258 10.12628 45.89044-11.92049 32.547733-193.50133c-2.88287-4.21531-5.66473-8.49838-8.34321-12.84557zm21.92968 31.88426-3.1947 18.98826c2.42385-.31172 4.8707-.6161 7.33135-.91682l2.77433-7.78563c-2.20309-3.54076-4.50276-6.89908-6.91098-10.28581zm140.54408 10.14461c-.21157 6.95409-.94195 13.02527.3661 17.76798 1.85078 6.71204 6.24776 13.05002 26.28067 18.80948l5.23774 1.50634.68254 5.38815c1.21699 9.60828 3.17355 19.52644 6.56695 28.77716 5.55417 2.14811 9.06899-.22829 14.44838-.39424 2.31715-.0541 4.4908.29614 6.5274.92232-.10119-1.45316-.17662-2.92465-.20882-4.4154.84628-23.17538 7.46198-40.12281 25.74899-52.01671-24.6433-11.3264-60.4391-15.82982-85.64995-16.34508zm-16.99643 14.46468c-10.84986.61243-21.96832 1.31105-33.15853 2.08393 28.45248 31.64222 27.63655 33.78941 37.71648 53.23058 4.20013-.41257 8.41681-.5996 12.58381-.5941 4.07779.005 8.10221.18795 12.01902.47858 2.60694-1.31211 5.16353-2.72134 7.66435-4.2247-1.19399-4.97009-2.10006-9.90808-2.81296-14.68655-19.58218-6.77438-29.49561-17.29489-32.61581-28.60937-.72578-2.63128-1.15167-5.19837-1.39636-7.67837zm-106.90537 8.60802c-.51973.0578-1.05417.11002-1.57298.16961-7.05224.80519-14.09576 1.68447-21.1294 2.6377l-9.40014 55.89394c19.76523 4.19629 41.70871 7.07052 64.06614 7.60503-15.199-21.39767-23.2819-43.90194-31.96362-66.30628zm223.71681 4.20912c-8.90709 4.17154-14.26257 9.60186-17.78107 15.68863-4.28659 7.41158-5.76758 16.20388-5.57901 25.03836.10579 4.92883.7451 9.80998 1.61345 14.33632 1.17928 5.03334 4.25348 9.23605 8.58054 9.89157 7.1897 1.02409 14.12092-.53542 19.48652-5.00858 5.36467-4.47409 9.74785-12.17996 10.44051-25.62238.12511-2.44791-.0846-5.03884-.5418-7.65728-.0789 1.86094-.26622 3.71574-.56112 5.55501-1.94092 12.02135-7.8934 21.06395-13.29579 20.19755-5.40147-.86823-8.208-11.31356-6.26799-23.33307 1.90229-11.77106 7.66435-20.72931 13.00695-20.22231-2.9215-4.32097-6.28455-7.24838-9.10119-8.86382zm-305.993603 9.83473c-10.06337 2.80731-17.980685 5.9355-22.655461 8.79598-3.993153 2.44332-4.619584 3.74246-4.769522 4.18987.263082.4034.847199 1.36056 2.272077 2.63127 2.565515 2.28472 6.977209 5.23046 12.747549 8.23121 5.218418 2.71379 11.593113 5.49726 18.803048 8.2138l6.493358-35.26962c-4.600267 1.03096-8.919053 2.09998-12.891049 3.20749zm346.000563 20.12879-6.68745 4.29714c-.009.30255-.009.6051-.0248.90765-.16833 3.34228-.57533 6.66837-1.2179 9.953l38.72006 53.73942 23.13747-8.94908-5.99203-15.38608-13.94522 5.87682zm-135.88953 28.92293c-1.1167-.0118-2.2335-.0104-3.35017.004-16.68827.21087-33.25603 3.31155-42.9487 12.1387-17.98988 16.38358-20.3797 45.13781-23.10067 71.42946l22.92498 26.839 14.09424-7.00909-19.33658-24.00877.66599-3.69846c2.91323-16.1452 4.56623-31.25165 20.63451-46.11422l2.6391-2.44241 3.59301.26129c12.41916.8994 23.45115 1.2863 31.74653-.46391 8.21168-1.73279 13.53864-4.80414 17.84915-12.24963 1.51778-3.09702 1.52974-4.86832.90147-6.966-.49857-1.67045-1.91057-3.74705-3.85149-5.963-6.97813-.97183-14.65812-1.6732-22.46137-1.75663zm50.03997 2.18662c-7.62204 2.96133-9.06256 13.68446-6.84015 19.70796 1.81858 4.8619 5.58637 9.53769 10.77443 13.72205 9.3937 7.57569 23.05652 12.94734 33.43357 15.59603l32.30121-22.408 35.06266 46.30676 34.58156-11.37958-3.81101-12.95467-24.75737 9.31031-37.71096-52.3431-38.25368 27.25707-4.91579-4.11286c-10.43407-8.73088-17.88042-20.23697-23.82829-25.45551-2.97394-2.60927-4.83851-3.27488-6.03618-3.24646zm-212.71978 9.72288-3.79446 22.56111c31.98017.51892 61.73703-1.93816 90.2309-6.18395.23327-.60947.47307-1.21644.71934-1.82081-1.42835-1.27183-2.81679-2.58749-4.16333-3.94508-.88033-.89675-1.74997-1.80385-2.60875-2.72112-28.10201.56385-55.78824-2.69178-80.3837-7.89015zm-69.982739 31.19755 2.971178 10.12628 13.704213-3.55909 2.152035-11.6945zm211.186359.93058c-1.97956 3.14836-2.66486 7.51976-3.76779 11.17879l35.37726 29.62704 10.65024-12.6347-27.03404-22.64179 1.48283-4.91691c-5.4585.0688-11.04487-.23195-16.7085-.61243z" fill="#e5f9ff" stroke-width="36"/></svg>