<svg height="500.0004" viewBox="0 0 500 500.0004" width="500" xmlns="http://www.w3.org/2000/svg" xmlns:xlink="http://www.w3.org/1999/xlink"><filter id="a" color-interpolation-filters="sRGB" height="1.10406" width="1.084131" x="-.042065" y="-.05203"><feGaussianBlur stdDeviation="6.9266268"/></filter><g transform="translate(-500 -500)"><path d="m999.99997 750a249.99997 250 0 0 1 -249.99997 250 249.99997 250 0 0 1 -249.99997-250 249.99997 250 0 0 1 249.99997-250 249.99997 250 0 0 1 249.99997 250z" fill="#ffe24c"/><path d="m1000 750.00632-194.05817-2.60063 192.98367-20.4591-193.45987 15.31075 190.28547-38.19139-191.22567 33.10816 185.92267-55.58184-187.34707 50.61663 180.01317-72.50831-181.88127 67.68555 172.56127-88.82024-174.86477 84.18876 163.62798-104.35075-166.35478 99.94311 153.30278-119.00625-156.40808 114.88758 141.65488-132.65651-145.14668 128.82271 128.82258-145.14278-132.65648 141.65492 114.88758-156.42029-119.00218 153.31093 99.94719-166.3385-104.34669 163.60764 84.17649-174.84041-88.81609 172.54909 67.67739-181.89345-72.48799 180.02133 50.6167-187.35925-55.5941 185.94294 33.1-191.23373-38.1995 190.27732 15.3474-193.45586-20.4957 192.97968-2.59249-194.05413-2.5681 194.05413-20.4916-192.97968 15.327 193.45586-38.2004-190.27732 33.1171 191.23373-55.5936-185.94294 50.6162 187.35925-72.51029-180.02133 67.69979 181.89345-88.81699-172.54909 84.17729 174.84041-104.36289-163.60764 99.96869 166.3385-119.00618-153.31093 114.86968 156.42029-132.64018-141.65492 128.81968 145.14278-145.14988-128.82271 141.67318 132.65651-156.42638-114.88758 153.29788 119.00625-166.34218-99.94311 163.62828 104.35075-174.86477-84.18876 172.54667 88.82024-181.87387-67.68555 180.00617 72.50831-187.35587-50.61663 185.94077 55.58184-191.21897-33.10816 190.28097 38.19139-193.47947-15.31075 192.98647 20.4591-194.04384 2.60063 194.04384 2.58435-192.98647 20.46723 193.47947-15.31481-190.28097 38.20361 191.21897-33.12445-185.94077 55.58997 187.35587-50.60849-180.00617 72.5083 181.87387-67.68553-172.54667 88.81211 174.86477-84.17656-163.62828 104.33851 166.34218-99.95936-153.29788 119.0103 156.42638-114.87941-141.67318 132.66054 145.14988-128.83082-128.81968 145.13868 132.64018-141.66304-114.86968 156.42028 119.00618-153.28243-99.96869 166.32222 104.36289-163.59543-84.17729 174.84852 88.81699-172.55719-67.69979 181.8975 72.51029-180.02538-50.6162 187.35108 55.5936-185.93884-33.1171 191.21336 38.2004-190.26101-15.327 193.47618 20.4916-192.99594 2.5681 194.05003 2.59249-194.05003 20.4957 192.99594-15.3474-193.47618 38.1995 190.26101-33.1-191.21336 55.5941 185.93884-50.6167-187.35108 72.48799 180.02538-67.67739-181.8975 88.81609 172.55719-84.17649-174.84852 104.34669 163.59543-99.94719-166.32222 119.00218 153.28243-114.88758-156.42028 132.65648 141.66304-128.82258-145.13868 145.14668 128.83082-141.65488-132.66054 156.40808 114.87941-153.30278-119.0103 166.35478 99.95936-163.62798-104.33851 174.86477 84.17656-172.56127-88.81211 181.88127 67.68553-180.01317-72.5083 187.34707 50.60849-185.92267-55.58997 191.22567 33.12445-190.28547-38.20361 193.45987 15.31481-192.98367-20.46723z" fill="#fffbb3" fill-rule="evenodd"/></g><path d="m297.62695 60.094498c-21.4811 1.503373-34.30074 9.775865-47.61718 23.732422-14.94035-14.655778-27.83433-19.008756-47.77149-18.923828-32.24524-.032296-58.76479 36.297598-90.41797 35.017578-18.727954-3.540164-30.331011-14.886459-47.144529-26.38086l-2.015625 29.41992-34.390625-2.66601-28.269531 323.26878 191.29883 12.63672v19.49023h116.80078v-19.46093l191.90039-12.66407-28.26953-323.28636-35.07422 2.75-2.6582-37.556639c-14.7083 8.73215-30.89168 25.582645-47.02149 27.181641-33.24023-.105858-59.4622-33.328736-89.34961-32.558594z" fill="#f2c80d"/><path d="m298.00586 68.84375c-20.21629-.480189-39.64899 13.100298-47.69141 31.054688-8.01757-19.037585-30.25949-29.014463-50.33064-26.158623-26.55126 3.206707-45.13142 26.264655-71.07885 31.837245-19.56202 12.38584-37.827792-10.368137-55.043546-5.870569-5.154513 11.737199-3.110618 25.293049-4.929157 37.873069-5.487835 75.48911-10.975671 150.97821-16.463507 226.46732 7.769935 20.56194 34.497321 25.13516 54.16348 22.62402 20.8066-4.35998 37.96902-18.17787 58.36703-24.02381 20.35454-10.81466 46.47312-13.67593 66.14779.21225 5.47597 7.23219 18.58077 4.83328 19.12834-2.12106 11.78726 22.00654 32.55416-11.18785 51.43805-8.60154 26.5843-5.02355 52.83055 6.03294 76.50002 16.87627 15.36461 10.58602 34.15545 27.02195 53.51813 15.19963 10.05057-5.34884 18.58099-16.12937 15.16027-27.93354-6.46357-86.21095-12.92829-172.42181-19.39381-258.632616-11.92826-20.811469-33.83036 14.537846-53.20717 2.322162-22.61328-4.201638-40.05257-19.947532-60.78247-28.570055-4.95282-1.780725-10.22575-2.797785-15.50255-2.554841z" fill="#ffe24c" filter="url(#a)" stroke-linecap="round" stroke-linejoin="round" stroke-width="1.002"/><path d="m259.51912 100v260.73837c18.60405-13.41057 35.39751-18.26415 54.6934-19.14803 20.43283-.93596 42.45994 8.36341 59.52715 14.89656s30.31291 23.14038 42.69649 22.55228 17.88864-6.66219 21.81818-14.32145l-9.98711-133.18967-9.98711-133.18966c-10.29604 7.16458-18.33522 11.22951-29.70458 12.24299s-20.28914-2.64253-35.53529-7.69047-37.20704-25.571785-54.63151-24.81359c-17.42446.758195-23.46876 4.73923-38.88962 21.92267zm-112.70921 9.0462c-15.49192 5.47774-24.59724 9.59636-36.17057 8.83488-11.573325-.76148-19.747953-4.61429-30.155198-11.72967l-18.796472 258.56632c13.165942 12.6367 24.106828 13.48997 37.318332 13.35653 16.349558-.16513 30.382808-12.12559 45.839068-17.45844 17.68423-6.10157 34.90058-16.90628 53.60558-16.61605 15.15741.23518 28.74732 4.06234 43.00011 14.80585v-257.90051c-15.71771-17.80293-21.7272-18.08089-39.13233-18.00266s-40.0166 20.66601-55.50852 26.14375zm-63.242025 289.44375c-37.05754-4.77277-47.000546-13.05427-44.188692-33.77222 2.811854-20.71796 20.587312-243.91195 20.587312-243.91195l-15.169455-1.17674-23.962868 287.18367 188.463678 12.54406v18.33362h80.80095v-18.30468l189.06704-12.573-23.96094-287.18319-15.01668 1.17722 16.60489 243.91099c.64324 8.86004 1.74824 24.08045-19.53878 30.44951s-124.81416 5.87637-187.11751 11.82448c-56.38141-3.82423-129.5114-3.729-166.568945-8.50177zm171.116505-10.0128 120.44575-11.60809c-19.14929-8.30008-39.74945-19.06722-60.70732-17.24808-22.03141 1.91232-44.45788 14.02382-59.73843 28.85617zm-111.71132-6.90407 103.49228 7.14626c-12.84624-14.46218-29.49455-25.10288-47.62211-26.687-19.6547-1.71757-38.34682 11.08504-55.87017 19.54074z" fill="#fffdcc" stroke-width="36"/><g fill="#ffe24c"><path d="m183.78125 202.71484c-13.54063-.0105-24.42673 6.45915-33.9707 11.76758-9.54398 5.30843-17.73239 9.45239-25.15235 9.40039-7.65007-.0536-9.70705.54896-15.90039-5.65625a9 9 0 0 0 -12.728513-.0117 9 9 0 0 0 -.01172 12.72852c9.476672 9.49484 20.340202 10.88216 28.515622 10.93945 13.55558.095 24.46774-6.35388 34.02539-11.66992 9.55766-5.31604 17.77355-9.50379 25.20899-9.49805 7.41555.006 12.85545 1.62515 20.03125 7.27149a9 9 0 0 0 12.63867-1.50781 9 9 0 0 0 -1.50781-12.63868c-9.78774-7.70156-20.41351-11.11672-31.14844-11.125z"/><path d="m183.06445 241.21094c-13.87578-.0109-25.03391 6.70556-34.8457 12.23633-9.81179 5.53076-18.26467 9.8709-25.9375 9.8164-7.86844-.0559-10.05816.56414-16.48242-5.95898a9 9 0 0 0 -12.726564-.0977 9 9 0 0 0 -.09766 12.72656c9.685171 9.83422 20.778821 11.27043 29.179691 11.33008 13.89093.0987 25.07682-6.59626 34.90234-12.13476 9.82552-5.53851 18.30368-9.92399 25.99219-9.91797a9.0009 9.0009 0 0 0 .002 0c7.64739.006 13.28468 1.70494 20.70117 7.61914a9 9 0 0 0 12.64844-1.42578 9 9 0 0 0 -1.42578-12.64844c-10.02277-7.99253-20.89804-11.53666-31.91016-11.54492z"/><path d="m183.35352 163.50781c-13.32105.10073-23.83446 6.75894-32.99024 12.14258-9.15577 5.38365-16.91844 9.48262-23.86719 9.43164-7.38599-.0542-8.94069.69474-14.90625-5.63086a9 9 0 0 0 -12.722653-.37305 9 9 0 0 0 -.373046 12.72266c9.125409 9.67617 19.928549 11.22299 27.869139 11.28125 13.35713.098 23.93753-6.51178 33.125-11.91406s17.01717-9.60734 24.00195-9.66016c7.42484-.0561 13.44644 1.7392 20.11329 7.29102a9 9 0 0 0 12.67578-1.15625 9 9 0 0 0 -1.15625-12.67578c-9.66988-8.05259-20.81155-11.54185-31.76953-11.45899z"/><path d="m279.48438 170.83096c-2.60267.31666-8.64637-1.59386-5.24039 3.17265 2.17164 7.13475 9.88662 10.03769 16.70925 10.28071 11.89033.62166 23.94286 2.7381 34.40413 8.72531-13.56699-2.35897-27.62435-.95994-40.52449 3.82859-3.41188 1.68226-12.72493 2.53894-6.13129 7.01699 6.05074 5.76946 14.90741 2.24019 21.90331.65691 8.4949-2.15292 17.41303-2.8662 26.09241-1.47912-15.20578 3.24026-29.09351 10.84334-41.01136 20.68232-2.31974 3.59434 7.52079 5.82485 10.92656 3.65693 9.36939-4.18438 17.5905-10.81651 27.58516-13.68221 4.80618-1.61544-4.60365 4.00375-6.32716 6.01499-8.52956 6.99696-15.60763 15.54757-22.22203 24.32558 5.44689 4.40685 11.81047-.0928 15.375-4.58232 6.11019-7.04858 12.60416-13.9208 20.22265-19.35141 3.45278 5.16162-4.0933 9.71237-4.71682 15.20078-3.3564 5.7965-4.78916 11.85686-2.31922 18.25039.25078 3.65554 1.13632 6.75529 4.03002 2.38973 3.9992-3.66334 2.36795-10.94267 4.25941-16.09083 1.23553-3.45336 1.2495-12.09534 3.59111-12.03074 5.45453 3.3817-.76608 10.40394-.74182 15.63329-.75362 5.24438-3.46435 10.56593-2.42081 15.83306 1.36823 2.79646.94832 13.37793 4.2265 6.84525 3.99946-3.37811 5.66012-7.47881 5.01727-12.71868.29823-7.24214.50781-14.48816.59977-21.73595 7.74178-1.58564 2.71695 8.71581 3.7846 13.49361.0614 5.8968-1.1761 12.19424-.40849 17.83631 2.73803 1.96915 6.59853 12.03439 8.27464 5.49617 2.48358-5.05205 5.51476-10.04354 2.20179-15.48971-2.19219-7.48573-4.26124-15.00718-6.49707-22.48019 4.32024-3.23553 5.87851 6.92761 9.0929 9.48167 4.87224 5.9496 7.05677 13.35849 10.53532 20.08814 3.89885 6.50596 9.50209 13.89435 17.83017 13.9667 2.71369-.17025 7.06068-1.79809 2.32186-3.069-11.34701-8.72079-16.57262-22.56385-23.71648-34.49233-2.47366-3.50992-5.08853-6.92686-7.4251-10.53562 6.07707 5.38332 12.17274 10.8088 16.84737 17.51229 4.09842 4.98221 8.71333 11.32423 15.76043 11.63186 4.50147.22576 10.40945-10.29401 3.43204-8.18826-8.7568-3.26254-13.92354-11.71359-20.29406-18.0766-4.15923-4.65742-9.44933-8.05961-13.97624-12.32136 7.51716 2.99493 14.96208 6.34933 21.21445 11.5982 4.21902 4.03887 14.56736 9.76819 16.69318.75197.35978-3.0574 1.78576-7.67581-2.85643-5.72769-9.63716-2.58627-16.88443-10.4308-26.45019-13.3094-2.44555-.87487-8.17671-2.61092-2.3976-2.07719 9.49764-.99691 18.10551 4.12866 27.25882 5.55706 6.21146.73378 9.31937-5.70735 10.33192-10.8052.42856-2.35273 2.30166-6.87554-.50052-2.74667-5.96051 3.89793-13.34588.74633-19.67976-.46022-6.41672-2.17803-12.94265-2.1596-19.58315-1.40055-3.00185-.68404-12.76043 1.85351-7.75665-2.83621 4.46362-8.8112-.88641-22.26035-11.23002-23.47692-7.82732-.3437-11.87322 8.98503-9.46641 15.57977 2.85303 6.33055-6.31252-3.51156-9.66445-4.04924-12.53102-7.17156-26.6034-11.81104-41.12292-12.10096-1.94532-.10377-3.89447-.16814-5.84111-.19265zm60.17578 27.01215c1.66325 4.69858 2.04344 15.00097 3.89433 16.24793 2.28813-3.09549 4.85116-9.92923 7.36727-10.40096 3.563 6.3974 3.74661 16.37341-2.93305 20.80489-5.9453 3.31219-12.03799-2.82392-13.51079-8.32888-2.06845-6.12996-1.70358-15.4255 5.18224-18.32298z"/></g></svg>