<svg height="500.0004" viewBox="0 0 500 500.0004" width="500" xmlns="http://www.w3.org/2000/svg" xmlns:xlink="http://www.w3.org/1999/xlink"><filter id="a" color-interpolation-filters="sRGB" height="1.059355" width="1.049531" x="-.024766" y="-.029678"><feGaussianBlur stdDeviation="1.8750384"/></filter><filter id="b" color-interpolation-filters="sRGB" height="1.006653" width="1.005464" x="-.002732" y="-.003326"><feGaussianBlur stdDeviation=".19772892"/></filter><g transform="translate(-500 -500)"><path d="m999.99997 750a249.99997 250 0 0 1 -249.99997 250 249.99997 250 0 0 1 -249.99997-250 249.99997 250 0 0 1 249.99997-250 249.99997 250 0 0 1 249.99997 250z" fill="#ffe24c"/><path d="m1000 750.00632-194.05817-2.60063 192.98367-20.4591-193.45987 15.31075 190.28547-38.19139-191.22567 33.10816 185.92267-55.58184-187.34707 50.61663 180.01317-72.50831-181.88127 67.68555 172.56127-88.82024-174.86477 84.18876 163.62798-104.35075-166.35478 99.94311 153.30278-119.00625-156.40808 114.88758 141.65488-132.65651-145.14668 128.82271 128.82258-145.14278-132.65648 141.65492 114.88758-156.42029-119.00218 153.31093 99.94719-166.3385-104.34669 163.60764 84.17649-174.84041-88.81609 172.54909 67.67739-181.89345-72.48799 180.02133 50.6167-187.35925-55.5941 185.94294 33.1-191.23373-38.1995 190.27732 15.3474-193.45586-20.4957 192.97968-2.59249-194.05413-2.5681 194.05413-20.4916-192.97968 15.327 193.45586-38.2004-190.27732 33.1171 191.23373-55.5936-185.94294 50.6162 187.35925-72.51029-180.02133 67.69979 181.89345-88.81699-172.54909 84.17729 174.84041-104.36289-163.60764 99.96869 166.3385-119.00618-153.31093 114.86968 156.42029-132.64018-141.65492 128.81968 145.14278-145.14988-128.82271 141.67318 132.65651-156.42638-114.88758 153.29788 119.00625-166.34218-99.94311 163.62828 104.35075-174.86477-84.18876 172.54667 88.82024-181.87387-67.68555 180.00617 72.50831-187.35587-50.61663 185.94077 55.58184-191.21897-33.10816 190.28097 38.19139-193.47947-15.31075 192.98647 20.4591-194.04384 2.60063 194.04384 2.58435-192.98647 20.46723 193.47947-15.31481-190.28097 38.20361 191.21897-33.12445-185.94077 55.58997 187.35587-50.60849-180.00617 72.5083 181.87387-67.68553-172.54667 88.81211 174.86477-84.17656-163.62828 104.33851 166.34218-99.95936-153.29788 119.0103 156.42638-114.87941-141.67318 132.66054 145.14988-128.83082-128.81968 145.13868 132.64018-141.66304-114.86968 156.42028 119.00618-153.28243-99.96869 166.32222 104.36289-163.59543-84.17729 174.84852 88.81699-172.55719-67.69979 181.8975 72.51029-180.02538-50.6162 187.35108 55.5936-185.93884-33.1171 191.21336 38.2004-190.26101-15.327 193.47618 20.4916-192.99594 2.5681 194.05003 2.59249-194.05003 20.4957 192.99594-15.3474-193.47618 38.1995 190.26101-33.1-191.21336 55.5941 185.93884-50.6167-187.35108 72.48799 180.02538-67.67739-181.8975 88.81609 172.55719-84.17649-174.84852 104.34669 163.59543-99.94719-166.32222 119.00218 153.28243-114.88758-156.42028 132.65648 141.66304-128.82258-145.13868 145.14668 128.83082-141.65488-132.66054 156.40808 114.87941-153.30278-119.0103 166.35478 99.95936-163.62798-104.33851 174.86477 84.17656-172.56127-88.81211 181.88127 67.68553-180.01317-72.5083 187.34707 50.60849-185.92267-55.58997 191.22567 33.12445-190.28547-38.20361 193.45987 15.31481-192.98367-20.46723z" fill="#fffbb3" fill-rule="evenodd"/></g><path d="m138.25195 290.74023c-44.000656.19505-70.54933 4.07799-86.535153 8.95508-18.269512 5.57383-28.341945 9.88949-36.560547 15.81836-7.2492643 5.22969-13.5557138 11.92289-14.44140625 27.41797 0 0 .45682235 13.3665 2.92773435 19.43359 1.929551 4.73784 8.9667969 12.45508 8.9667969 12.45508 7.566212 10.51134 17.873389 19.38288 30.171875 26.76563 25.075677 15.05322 58.24359 23.76367 94.75977 23.76367 36.51715 0 69.6826-8.71036 94.75781-23.76367 12.29697-7.38195 22.56842-15.67293 30.16992-26.75977 4.56689-6.66083 8.56149-19.75221 10.53906-26.88672.10171-.32177.19655-.66847.29492-1.00195.65856-2.41317 1.05469-4.00586 1.05469-4.00586-.90037-15.52419-7.19113-22.19777-14.42773-27.41797-8.21859-5.92863-18.29011-10.2428-31.6211-14.31055-13.33098-4.06774-30.45714-7.30416-70.11132-10.31445-7.01829-.13053-13.65951-.1763-19.94532-.14844z" fill="#f2c80d"/><path d="m230.17606 251.46152c-.80036-7.01419-1.66491-14.83119.0376-21.0344 10.23646 4.15508 21.79797 2.47643 32.79495 2.24395 2.38273-10.30186 3.75247-21.36379 10.53292-29.43979 6.92767 8.57879 11.73455 17.02759 17.72247 26.67703l15.09594-8.70532c37.14311-21.41829 87.13769-79.81742 103.50782-104.21986l7.32774-19.190397c-8.33309-12.536327-17.85258-16.08456-31.81824-18.724312l1.88539-4.204575-16.01879-7.516916c-21.85481-10.25476-54.40897-19.1276-90.86917-17.426276-39.52516 1.845263-83.67708 16.865532-118.88165 56.597986-27.71932 31.28541-41.53606 66.69479-34.25666 98.05623 3.56834 15.37638 13.16468 29.60719 27.54626 38.96472 13.67363 8.89446 31.36721 13.84338 57.76812 13.71064z" fill="#f2c80d" stroke-width=".999999"/><path d="m394.91998 106.95453c2.2729-3.38865 3.28846-5.507 2.6941-5.90066-7.8845-3.049732-17.0422-5.126245-26.61285-5.738353-7.23181 15.243183-15.74516 30.407923-25.66456 45.132113-14.12393 11.25225-27.97026 23.59739-42.23373 34.29501 11.45566-12.03886 21.65743-24.74105 30.68911-37.8446a314.69671 314.69671 45 0 0 4.23104-6.30323c10.02182-15.31731 18.46826-31.107984 25.57465-46.952693-19.08869-8.956833-49.46074-17.277448-82.38315-15.741203-35.8006 1.671381-74.41127 14.622239-106.2492 50.555046-25.02709 28.24682-35.47754 59.29434-30.19589 82.04902 2.64029 11.37815 8.94331 20.86439 19.82879 27.94705 10.20691 6.63937 24.67438 11.04481 43.85073 11.8439.87516-.29317 1.76131-.60525 2.66947-.94358-.88303-10.72578 3.8667-21.83296 8.78163-31.07972l5.56959-10.47944 4.81723 10.84791c1.44051 3.24511 3.98219 4.76369 8.13212 5.71969 2.64849.60943 5.73364.70381 8.8151.63861.8723-6.45559 4.18683-12.35206 7.8436-17.52653 4.81218-6.80963 10.61965-12.64573 14.21961-16.51202l4.11042-4.41718 4.23587 4.29694c6.33406 6.42462 13.67555 15.01637 19.72696 24.76736 28.96502-16.70175 84.37499-79.0125 97.55043-98.65273z" fill="#fffdcc" stroke-width="36"/><g fill="#f2c80d"><path d="m108.44899 214.02823c5.27403-8.18386 7.19948-20.00843 7.54951-32.90879a126.28921 126.28921 0 0 0 -.59512-16.1525c5.14159-1.76364 10.59445-3.55994 16.08847-5.41371a697.63817 697.63817 0 0 0 6.04058-2.06953c1.77262-4.89786 3.94347-9.82008 6.49556-14.72939-5.15722 2.01754-10.66396 3.96612-16.23343 5.84541-4.76442 1.60825-9.55248 3.17311-14.20087 4.74574-.94893-4.44791-2.17985-8.7236-3.72882-12.67148l-10.762044 4.22238c1.432464 3.65039 2.588924 7.86521 3.457134 12.36288-3.77565 1.42038-7.359003 2.87259-10.591743 4.40142l4.941795 10.45046a92.049303 92.049303 0 0 1 3.240108-1.44922c-5.63506 11.21797-13.663059 21.03592-20.106229 27.24445l8.021328 8.32483c5.013727-4.8296 10.755087-11.32655 15.913281-19.05405l.0662-.10252c-.96361 9.85012-3.4267 18.22717-5.964427 21.633l9.267537 6.9085a28.408233 28.408233 0 0 0 1.10017-1.58778z"/><path d="m234.16169 65.080047c-1.92468-8.932075-2.01974-20.334626-.76981-31.462629 6.49788-.580311 12.94325-1.560545 19.16047-3.059343l-2.71112-11.238635c-4.67609 1.12828-9.58365 1.933771-14.59318 2.476827.79346-3.884739 1.74115-7.601075 2.82605-11.004671l-11.01421-3.5095057c-1.34817 4.2337627-2.54895 8.7916357-3.5406 13.5280787-9.04231-5.992403-18.50246-13.6336296-23.82237-20.81016528l-9.28838 6.88241208c4.08866 5.5159692 9.44619 10.6898502 15.19575 15.3229952-6.21272-.436424-12.23338-1.15701-17.82183-2.092831l-1.90872 11.402703c10.83543 1.814956 23.06955 2.923155 35.49391 2.727581-1.33017 12.049356-1.03968 24.40485 1.80206 35.065949a156.85478 156.85478 0 0 1 10.99145-4.22912z"/><path d="m300.34156 130.59208-8.43419 7.9073c-3.09908-3.30675-3.83646-7.42041-4.00912-11.40271-.17408-3.98247.31868-8.16574 1.02036-12.42018.61508-3.72941 1.41179-7.47949 2.15704-11.04719-9.95051 6.69577-20.79377 16.83997-24.7028 28.27595l-1.74615 5.11029-5.21791-1.39758c-4.10279-1.09812-7.20184-4.1537-8.99153-7.47294-1.79057-3.31674-2.63672-6.99633-3.08318-10.86415-.42486-3.67711-.44474-7.55745-.22284-11.42247-.75041.66775-1.39294 1.19588-2.19959 1.94272-7.8296 7.2585-18.1841 18.16168-27.24488 29.87857-9.05972 11.71529-16.78558 24.38491-19.65631 34.39165-1.43421 5.00337-1.62785 9.20374-.77373 12.27927.85342 3.07659 2.4823 5.34178 6.36378 7.41957l-5.45753 10.19158c-6.19181-3.31525-10.39639-8.5806-12.04612-14.51877-1.64865-5.93747-1.01245-12.23665.80078-18.55897 3.6284-12.64642 12.08662-25.94259 21.62543-38.27655 9.53916-12.33449 20.20102-23.56332 28.52978-31.284685 4.16394-3.859436 7.67972-6.812375 10.49814-8.749653 1.40984-.968998 2.36393-1.729101 4.45507-2.300781 1.04583-.285662 3.07193-.921986 5.60183.944687 1.2654.932089 2.0939 2.476123 2.34658 3.631072.25285 1.153524.15006 1.977508.0344 2.617344-1.21459 6.714186-1.84669 14.616876-1.16922 20.488866a26.649096 26.649096 45 0 0 .64887 3.47266c9.10281-16.1001 25.69694-26.977344 37.11366-32.249807l9.35078-4.318948-1.18584 10.232171c-.81532 7.034864-3.14666 15.745684-4.41825 23.465944-.63749 3.86093-.99207 7.43779-.87897 10.03868.11221 2.59877.79549 3.89332.89396 3.99705z"/></g><path d="m146.07056 307.94597c10.32194.37582 30.92851 1.89221 30.92851 1.89221 18.06856 1.86995 34.20419 4.96481 47.18143 8.9246 10.93085 3.33594 19.62415 7.31365 25.21879 11.34945 5.03322 3.63076 7.22514 6.94444 7.61607 9.76022-.0579 1.04573-.15366 2.08767-.2932 3.12472-.80521 2.52367-3.02971 5.38995-7.32287 8.48643-1.3069.94312-2.78918 1.88298-4.42294 2.81253-32.87613-36.70505-173.630389-38.82422-215.67923-.47075-1.315587-.77534-2.523125-1.55666-3.61067-2.34123-4.304028-3.10572-6.529613-5.9796-7.329933-8.50815-.13574-1.02511-.229672-2.05456-.287768-3.08835.384414-2.81904 2.575793-6.13868 7.617701-9.77596 5.595182-4.03635 14.28794-8.01406 25.219313-11.34945 21.862205-6.67132 52.643037-10.91617 86.636557-10.9159 2.87007.00027 5.68718-.004 8.52824.0996z" fill="#fffdcc" stroke-width="36"/><path d="m140.57628 325.91372c-44.210096-.32138-89.518567 8.60787-110.757304 27.48136l2.477951 1.31144c5.036853 2.66451 12.280944 5.77497 18.815004 7.45153 28.126329 7.21691 52.486229 10.88508 86.430239 10.88508 33.94402 0 58.30424-3.66834 86.43142-10.88508 6.5324-1.67604 13.77382-4.7854 18.8115-7.44917l1.59183-1.04044c-16.86148-17.94209-59.76211-27.43459-103.80064-27.75472z" fill="#fffdcc" opacity=".5"/><path d="m626.92969 378.2168c-1.26202 5.66767.49485 11.84086 2.87695 17.18359-2.20998-7.80579-3.38996-14.36171-2.87695-17.18359z" fill="#dc8add"/><g opacity=".75" transform="matrix(.96844929 .24921069 -.24921069 .96844929 80.825315 -19.621524)"><path d="m70.71875 211.99219c-7.754225.23096-15.656225 2.9723-21.188516 8.55257-5.261892 5.17391-7.822592 12.78422-7.189868 20.09473.592901 7.84676 4.087976 15.20312 8.666416 21.49701 4.335458 5.88135 10.426592 10.58276 17.475426 12.67925 7.955582 2.43955 16.459707 1.94375 24.564654.58358 10.837478-1.80629 21.369828-5.03166 32.140638-7.163 3.6967-.72767 7.69465-1.38656 11.57436-1.7309 8.1419-.76353 16.5868-.21548 24.20207 2.96752 4.61566 1.89373 8.75261 4.77222 12.50507 8.02976 3.16784 2.5942 6.33575 5.18832 9.50366 7.78245-2.07048-5.61803-3.98311-11.29448-6.14258-16.87891-2.94448-7.45556-7.25547-14.6224-13.65736-19.6026-5.35988-4.26072-12.13296-6.43108-18.90732-6.91676-8.6976-.66639-17.35521.89009-25.89647 2.33452-9.87715 1.68127-19.898786 3.59622-29.958401 2.62628-3.984897-.42121-7.992148-1.23929-11.631232-2.96097-4.761169-2.52929-7.737186-8.19169-6.746595-13.54832.733244-4.29533 3.69285-7.88693 7.24314-10.25822 1.498728-1.04863 2.958701-1.93296 4.513174-2.94925 1.945425-1.2936 3.883554-2.59863 5.826218-3.89655-4.33327-.3486-8.656748-.81388-12.989171-1.16382-1.300067-.0841-2.604884-.12105-3.907313-.0784zm79.14844 4.84375c-9.8492.37732-19.73141 4.0925-26.83631 11.02926-3.08285 3.22972-5.18808 7.21035-7.72433 10.85142-1.40358 2.13159-2.80723 4.26314-4.21085 6.39471 4.32-1.79044 8.60793-3.65509 12.91034-5.48505 8.58994-3.57818 18.39227-3.44469 27.22452-.82471 8.81745 2.59848 16.79723 7.74416 23.05504 14.45026 1.9383 2.0246 3.73589 4.18753 5.31596 6.50403.15279.25034.58777.87659.83338 1.29336 2.11281 3.28432 3.37129 7.0032 4.98704 10.53616.52601 1.21308 1.05201 2.42615 1.57802 3.63923 1.39058-4.051 2.97623-8.03502 4.26172-12.12109 2.73824-9.11695 1.20583-19.32739-3.84511-27.36563-6.65122-10.62681-18.58431-17.39936-30.95177-18.66953-2.18994-.23877-4.3965-.30266-6.59765-.23242zm-115.144534 6.08789c-2.446361 2.68015-5.146071 5.15851-7.166204 8.19633-5.018221 7.16656-7.741811 15.96341-7.342156 24.72633.448122 11.61756 5.968396 22.75708 14.360318 30.70454 8.364165 7.98825 19.628225 12.83033 31.174882 13.44799 10.335758.61406 20.681565-2.0255 29.88096-6.65649 4.319671-2.06366 8.639494-4.127 12.959384-6.19019-5.62007-.40274-11.246258-.71195-16.868094-1.08126-8.222611-.63319-16.307937-2.75931-23.883888-5.99245-9.163033-3.97306-17.831056-9.59584-24.163669-17.4187-4.585499-5.64245-7.669378-12.63672-8.021979-19.94997-.253418-4.04145.426589-8.06635 1.391358-11.97705.77117-4.2429 1.541717-8.48592 2.311901-12.729-1.544271 1.63997-3.088542 3.27994-4.632813 4.91992zm98.460934 51.23828c2.78014 1.86657 5.52102 3.79274 8.39409 5.51469 3.724 2.38106 7.34751 5.28018 10.43013 8.26461 6.35199 6.14602 11.52973 13.54591 14.90039 21.72851.29188.69832.66989 1.67931.9634 2.50164 1.28724 3.58782 2.20521 7.30949 2.71043 11.08821.0709.50352.16069 1.36285.2207 2.0039.0743.87802.14959 1.93482.16689 2.6573.22177 6.84162-.96006 13.73426-3.43084 20.11643-1.39339 3.50458-3.44111 6.72308-5.93178 9.54845-1.63009 2.00718-3.26014 4.01438-4.8902 6.02157 5.26367-.60554 10.57732-.88772 15.78204-1.92225 8.29718-1.75798 16.29758-5.84656 21.81366-12.40001 4.51374-5.29256 7.05216-12.11228 7.49059-19.02603.62896-9.65344-2.51615-19.24798-7.59069-27.37482-6.37022-10.22589-15.61025-18.54369-26.14425-24.32194-5.0786-2.76606-10.47988-4.96724-16.07447-6.43522-5.61165-1.21186-11.36441-1.47621-17.08651-1.60382-2.49119-.0806-4.98238-.16139-7.47358-.24208 1.91667 1.29362 3.83334 2.58724 5.75 3.88086zm-2.94531 7.10742c-7.3049.16764-14.16785 3.13358-20.52158 6.50929-8.73296 4.67818-16.913735 10.35525-25.890528 14.58251-.582028.26073-1.45579.66932-2.160056.96269-6.311553 2.71548-13.312228 4.52442-20.204366 3.40292-3.377426-.50459-6.583648-1.75647-9.624599-3.27377-3.581016-1.65262-7.162206-3.30485-10.743401-4.95708 2.989014 4.5701 5.854318 9.22154 8.899161 13.75413 3.722694 5.45048 8.570762 10.42951 14.786994 12.94009 5.583399 2.34842 11.919591 2.11141 17.667361.50696 8.072255-2.26983 15.353332-6.54864 22.843264-10.19946 6.37716-3.12722 13.052-6.12697 20.22365-6.67983 2.48154-.11881 5.18675-.26122 7.36863 1.14296 2.87527 1.72192 4.53804 5.10433 4.33381 8.42609-.15827 3.60544-2.06683 6.87001-4.45442 9.47535-2.34045 2.78748-4.69965 5.55929-7.04736 8.34074 4.28266-.9379 8.59369-1.74283 12.8711-2.70117 7.0277-1.63361 13.5442-5.93287 17.26222-12.18957 2.87371-4.74116 3.83635-10.55699 2.72877-15.98284-1.21245-6.27441-4.91912-11.81282-9.47325-16.18269-3.64686-3.49083-8.11073-6.25419-13.09213-7.30541-1.89214-.42324-3.83501-.61097-5.77327-.57191zm32.79102 37.69141c-1.20135 1.28832-2.59554 2.41296-3.66407 3.81445-.78947 1.39764-1.39156 2.89892-2.30468 4.23047-3.99305 6.25813-10.75178 10.72279-18.13956 11.6836-6.27827.85449-12.70786-.64383-18.32919-3.44727-2.55495-1.26673-4.79432-3.04745-6.93616-4.908-2.50453-2.07226-5.00985-4.14357-7.51502-6.21505 1.17864 4.54477 2.20962 9.12736 3.43853 13.65838 2.23707 8.06907 7.20564 15.58651 14.4296 19.99281 5.69272 3.52102 12.77413 4.69485 19.29043 3.14499 7.65666-1.76345 14.16746-7.10081 18.22129-13.73139 3.18365-5.20693 5.11953-11.22037 5.37449-17.32882.0436-3.30477-.33171-6.59895-.47329-9.89872-.082-1.38065-.16392-2.76129-.24589-4.14194-1.04883 1.04883-2.09765 2.09766-3.14648 3.14649z" fill="#ffe24c" filter="url(#a)" opacity="1"/><path d="m161.3332 221.96982c-11.91282-2.90773-25.04833-.39029-34.32711 7.63363-2.3119 1.99891-3.71936 4.26449-5.2767 6.63589 15.70372-6.94386 36.9331-3.05001 52.18667 11.04294 5.62706 5.19962 10.22108 10.95294 12.72942 17.06824 4.22903-11.14738 1.67973-24.10743-8.33274-33.35836-4.84635-4.47901-10.7393-7.49936-16.97966-9.02182zm-85.431417-5.78664c-22.244978-2.37267-38.532355 15.5791-24.308623 39.612 26.058082 44.03304 82.32619-16.6927 122.7093 17.22106-18.07541-51.45927-61.65435-11.94641-96.967491-24.52438-12.583017-4.48088-17.233536-22.2894-1.433186-32.30868zm-42.891035 14.38517c-27.0279139 32.43899 12.285359 82.80878 59.99017 59.60017-29.165376-1.41181-69.446708-24.09924-59.99017-59.60017zm117.393892 45.32317c-3.1504-.67324-6.11728-.88486-9.24328-1.16689 22.11225 12.9134 36.42599 37.48518 33.45856 61.22667-1.09536 8.75753-3.76754 16.73793-8.70932 22.68404 16.83729-1.50675 29.77319-11.17577 31.72113-26.76104 2.74558-21.94792-17.09142-46.72013-44.00916-55.13689-1.10145-.34435-2.16867-.62094-3.21806-.84537zm-14.90736 9.92736c-24.65188-5.85062-52.202641 37.00927-83.610579 22.06485 22.943059 36.38521 48.568219-4.83437 77.429929-3.09025 10.28419.62006 17.01583 13.57889 6.94227 25.13403 17.17426-3.2799 26.177-21.21069 11.11011-36.86508-3.88181-4.03416-7.8388-6.28647-11.87278-7.2438zm27.21403 39.11595c-5.91965 13.21792-19.83551 20.66119-34.85721 17.13129-5.54132-1.30026-10.73949-3.55722-14.89966-7.12034 2.53358 10.84662 9.75947 19.75996 19.62148 22.07452 13.88923 3.258 27.38419-7.68499 30.05664-24.27822.43817-2.71156.242-5.17655.08-7.80754z" fill="#fffdcc" filter="url(#b)" opacity="1"/></g><path d="m423.71679 366.87735c-19.48263.37361-40.29734 3.9642-58.78516 9.97266l-2.84766-15.3418 30.97266-15.76758s12.60833-13.06769 10.52025-20.44077c-2.33477-8.24413-22.00071-13.2936-22.00071-13.2936l-74.50781 13.96289 8.1875 44.10547-32.76369 5.93262-20.3594 4.46582c-22.3738 5.35556-59.1009 15.81196-93.46679 29.95703-17.18295 7.07253-33.74626 15.02501-47.86329 24.13281-14.11702 9.1078-26.287739 19.02707-33.207027 33.35742l-15.490194 32.08008 258.304691-48.41016 8.76171 47.19336 74.81253-14.10156s13.23743-9.63893 13.25346-16.76172c.0179-7.97757-14.75931-18.83984-14.75931-18.83984l-34.78711-3.51367-2.4043-12.95313c19.63578-1.49156 40.36965-6.2382 58.50781-13.24609 7.73611 5.02707 17.31891 7.19559 27.02735 5.375 20.02287-3.75238 33.41399-23.29535 29.28027-44.73926-3.5168-12.56928-8.56937-18.22531-16.62601-23.37405-7.50794-4.79808-16.92654-6.66308-26.2754-4.91113-9.86908 1.85013-18.09661 7.49756-23.48437 15.1592z" fill="#f2c80d"/><path d="m464.03517 371.95293c.26188.16068.52244.33152.77541.50377 4.04449 2.7747 7.05165 7.08548 8.01029 12.25013 1.91687 10.32771-4.99372 20.41127-15.31691 22.34462-7.98676 1.49773-15.82656-2.29316-19.85052-8.86912-23.60683 11.18445-59.24838 18.37741-83.975 16.65054l8.779 47.2857 48.21074 4.87098-45.71658 8.56715.0171.0981-11.38873 2.12717-22.41314-120.7323-.0197.0105-3.10164-16.70853 56.84555-10.65241-42.95851 21.86921 9.30224 50.13009c21.86337-10.84707 57.55316-18.15728 83.93565-16.65238 1.33706-7.66782 7.30114-14.12872 15.34475-15.63582 4.8396-.90641 9.61004.12436 13.52013 2.54253zm-5.99879 8.97218c-1.61736-.89133-3.54715-1.22659-5.5443-.85311-4.5641.85628-7.48612 5.12419-6.638 9.69174.84833 4.56494 5.09215 7.47394 9.65726 6.61826s7.50168-5.11289 6.65384-9.68094c-.42406-2.28376-1.71404-4.15948-3.45358-5.35202-.21767-.14995-.44417-.29642-.6757-.42424zm-132.42415 5.52723 8.55756 46.11827-230.3644 43.17555c17.57402-36.39709 119.48293-67.46727 162.51816-77.76851 3.13247 9.48789 12.86825 15.44661 22.96318 13.55435 10.24119-1.918 17.24429-11.23269 16.53793-21.38598l19.78707-3.69398z" fill="#fffdcc" stroke-width="36"/><path d="m342.00886 302.46266c13.88798-2.25532 31.45437-1.52426 42.89117-6.76574 9.32789 12.54849 15.29609 27.95507 22.41195 42.18151l16.32411-42.64434c2.18523-7.71685 2.67518-10.55836 2.96137-13.46499 5.86537.20706 11.91215-.004 18.33147-.61651l40.01059-3.81437-21.92819-20.30846c2.9555-2.44749 5.48759-6.19607 6.37647-9.55613 3.11186-12.17766-6.42773-20.61209-13.90664-27.02328-10.09685-8.65144-19.15813-13.59614-29.12415-21.28619 4.7608-3.52586 9.23237-6.32791 13.74873-9.42839l19.13459-13.13413-17.47911-15.26356c-10.70705-8.26067-18.61313-13.76424-31.20547-13.23375l3.88635-18.66396-26.89814-1.63893c-4.95006.66862-15.60738 2.70325-26.21567 6.88972-7.69283 3.03601-14.74222 6.55177-24.33403 15.62067l-26.52851-14.85642-5.34176 28.76267c-.64769 3.48744-1.24445 7.58839-1.40715 27.04918-.15144 12.83474 1.52603 24.55295 4.49617 36.65737-6.57619 12.56486-10.53641 24.26614-15.57811 37.73504 17.43234 6.56828 36.00613 7.7676 52.02631 11.53333z" fill="#f2c80d" stroke-width=".999999"/><path d="m392.76135 145.25962c-6.65057.89854-16.38903 2.84476-24.82569 6.17423-6.19848 2.44625-11.74554 5.5945-15.09334 8.86869-3.34736 3.27617-4.53315 5.95556-3.8673 9.65944l1.4485 8.06584-8.0839-1.34064c-1.93458-.32156-3.15005-.40672-4.68605-.66183-1.53594-.25576-3.40496-.81389-5.15678-1.74976-2.36023-1.26073-5.48875-3.57996-9.67576-6.77121-.54468 2.93276-1.0492 6.41739-1.33475 10.19626-.6245 8.27479-.58622 17.9851.3142 26.62039.42722 4.09405 1.10589 7.95234 1.91887 11.26419 2.22703-2.80434 4.61894-5.45702 7.18279-7.87787 12.20331-11.51545 28.64208-23.84494 47.56073-23.21934 9.28212.30611 18.37853 5.37029 26.34743 10.78415 3.06571-4.60836 7.48911-8.22992 11.93468-11.44812 4.47579-3.2415 9.13666-6.15485 13.1764-8.92814-5.64996-4.9337-10.06069-7.56339-13.97479-8.47923-5.00199-1.17035-10.33501-.15009-19.01072 3.70252l-10.30352 4.57527 6.12964-29.43477zm-13.61196 50.87513a10.642169 10.642169 0 0 0 -1.06998-.0931c-13.39688-.44356-27.93046 9.39713-39.24336 20.07237-9.92361 9.36502-17.68268 24.70259-22.43317 37.39418 4.30988 1.1809 8.92803 2.36579 13.61052 3.00012 6.97199.94606 13.17549.35636 16.5732-2.02268l4.90726-3.4325 3.25743 5.02445c2.75409 4.24696 5.9537 9.72321 7.57031 15.95652.818 3.15352 1.15948 6.6625.67532 10.14991 8.15316-.84777 15.76586-2.96775 19.31276-6.27461l3.76298-3.50695 3.92108 3.33121c5.93202 5.03956 11.68504 10.64539 15.31751 17.90756.91176-2.32717 1.75072-4.76661 2.33219-7.34291 1.81535-8.03529 1.62619-16.57449-1.85528-23.11687-5.77965-7.87731-12.64531-15.57237-13.43716-25.32638-.29982-3.69641 1.11356-6.3538 2.73524-8.94086 1.62296-2.58692 3.74434-5.07431 6.17905-7.4829 2.74094-2.71092 5.86656-5.25999 9.14663-7.46606-2.38604-1.96736-4.98631-4.10836-8.28189-6.46646-7.66942-5.49215-17.35131-10.60174-22.97974-11.36652zm44.74245 23.64546-1.15317.48324c-4.0255 1.69178-9.43009 5.51824-13.34298 9.38851-1.95683 1.93574-3.56548 3.89516-4.51426 5.40732-.68662 1.09477-.87096 1.94528-.94672 2.06389.4377 3.79162 5.56203 11.50769 11.47651 19.62585l.21852.29872.17647.32401a35.246967 35.246967 0 0 1 2.47639 5.64756c7.28849 1.1298 15.3585 1.12832 24.93866.21486l-24.33433-22.53715s23.86211 2.99162 32.76578 2.38871c3.05442-.20716-14.79134-15.9097-27.76016-23.30609z" fill="#fffdcc" stroke-width="36"/><path d="m376.71045 214.57983c4.10934.43201 8.59825-6.13567 11.04011-3.1101 2.44166 3.02554-4.91398 6.05711-5.34487 10.15578-.43093 4.09914 6.13347 8.59408 3.11602 11.04561-3.01765 2.45151-6.0426-4.90631-10.15194-5.33832-4.10842-.43191-8.59763 6.13572-11.03981 3.11013-2.44226-3.0256 4.91275-6.05725 5.34362-10.15591.43095-4.09913-6.13303-8.59405-3.11517-11.04551 3.01796-2.45147 6.04321 4.90636 10.15204 5.33832z" fill="#f2c80d"/><path d="m35.63467 348.39453-17.558039-8.563-17.36178725 3.10011s.45681985 13.36649 2.92773435 19.43359c1.9295529 4.73784 8.9667969 12.45508 8.9667969 12.45508 7.56622 10.51135 17.873377 19.38288 30.171875 26.76563 25.075702 15.05324 58.24356 23.76367 94.75977 23.76367 36.51719 0 69.68258-8.71034 94.75781-23.76367 12.29698-7.38195 22.56841-15.67292 30.16992-26.75977 6.41585-9.35755 11.88877-31.89356 11.88877-31.89356l-17.34216-3.06016c-4.50362 2.3814-28.0141 13.2863-35.12574 15.45567-20.82196 6.35418-50.98573 10.57422-84.3467 10.57422-33.36099 0-63.525209-4.22003-84.346704-10.57422-7.114998-2.17049-13.059639-4.55207-17.561546-6.93359z" fill="#f2c80d"/><path d="m27.218677 364.30502c5.850373 3.09486 12.807294 5.82322 20.724708 8.23884 23.240231 7.09266 54.768175 11.35868 89.598935 11.35868 34.83075 0 66.36032-4.26602 89.6011-11.35868 7.91417-2.41453 14.86838-5.14181 20.71821-8.23504-5.80694 8.06564-14.21193 15.47213-24.82677 21.84428-21.57987 12.95498-51.92308 21.19708-85.49417 21.19708-33.57001 0-63.913763-8.2421-85.494172-21.19708-10.615915-6.3727-19.021448-13.78027-24.828384-21.84754z" fill="#fffdcc" stroke-width="36"/></svg>