<svg height="500.00003" viewBox="0 0 500 500.00003" width="500" xmlns="http://www.w3.org/2000/svg" xmlns:xlink="http://www.w3.org/1999/xlink"><filter id="a" color-interpolation-filters="sRGB" height="1.019979" width="1.023133" x="-.011567" y="-.00999"><feGaussianBlur stdDeviation="2.0515734"/></filter><filter id="b" color-interpolation-filters="sRGB" height="1.079387" width="1.092384" x="-.046192" y="-.039694"><feGaussianBlur stdDeviation="8.2180205"/></filter><filter id="c" color-interpolation-filters="sRGB" height="1.181038" width="1.208262" x="-.104131" y="-.090519"><feGaussianBlur stdDeviation="18.835559"/></filter><clipPath id="d"><path d="m-136.72418 153.07524c3.99816-2.84628 8.15259-5.56399 12.38672-8.21535a679.53226 359.28933 29.980648 0 1 763.76303 100.87895 679.53226 359.28933 29.980648 0 1 358.60638 647.59213 679.53226 359.28933 29.980648 0 1 -3.58152 4.12762c-20.21685 30.11838-47.15073 54.61791-83.24012 69.38499-72.46647 21.09514-140.04943 35.70322-228.33097 27.87416-9.72629-1.42803-19.48262-3.05042-29.25594-4.75935a679.53226 359.28933 29.980648 0 1 -448.55207-166.94884 679.53226 359.28933 29.980648 0 1 -358.60638-647.59213 679.53226 359.28933 29.980648 0 1 22.58537-24.73825c-1.91228.7937-3.86777 1.60848-5.7745 2.39607z"/></clipPath><g transform="translate(-500)"><path d="m926.7767 73.223311c45.24113 45.241099 73.2233 107.741109 73.2233 176.776699 0 69.0356-27.98221 131.53559-73.2233 176.77669-45.2411 45.2411-107.74109 73.22332-176.77669 73.22332-69.03559 0-131.5356-27.98219-176.7767-73.22332-45.2411-45.2411-73.22331-107.74109-73.22331-176.77669 0-69.03559 27.9822-131.5356 73.22331-176.776699 45.2411-45.241105 107.74111-73.22330934 176.7767-73.22330934 69.0356 0 131.53559 27.98220534 176.77669 73.22330934z" fill="#3b2f4f"/><g transform="translate(500)"><path d="m230.6486 0c-128.19182 22.346591-234.17086 139.43202-223.06447 273.24395 5.6201 44.55936 16.72649 83.63245 44.55937 122.70552l50.17947 50.17947c33.45298 22.34661 72.52606 44.55938 111.46533 50.17946 39.07308 5.62012 78.01235 5.62012 111.46534-5.62008 39.07308-16.72649 72.52607-33.45297 100.35893-61.28587 33.45297-39.07306 55.79958-83.63245 66.90595-139.43201v-61.28587c-5.62008-27.83287-11.10637-50.17947-22.34657-78.01235-11.10641-22.34659-27.8329-44.55937-50.17947-61.285858-27.83289-27.832879-61.28586-44.559368-100.35895-55.799569-27.83288-5.620101-55.79957-11.10639-89.25255-5.620101-78.01235 11.106391-139.43202 61.28586-172.885 128.191818-11.10639 27.83288-16.72649 61.28586-22.34659 89.25255 0 33.45298 5.6201 66.90596 16.72649 94.73885 22.34659 44.55936 55.79957 89.25254 105.97904 111.46532 16.72649 5.62012 33.45298 11.1064 55.79957 16.72648 122.70553 22.34661 234.17085-55.79954 250.89734-178.37127 11.10641-78.01236-22.34657-139.43203-72.52604-189.6115-100.35895-89.25255-267.62385-44.559369-312.18322 78.01235-5.6201 27.83288-16.72649 55.79958-16.72649 83.63245 5.6201 78.01235 55.79957 150.53843 133.81192 172.885 61.28586 16.72649 122.70553 5.62012 172.885-33.45298 11.10639-11.10637 22.34659-22.34657 33.45299-33.45297 61.28584-83.63246 44.55935-195.09778-44.55937-256.51746-27.83288-16.726488-55.79958-22.346588-89.25256-27.832879-22.34659-5.620101-44.55937 5.620101-66.90596 11.106391-27.83288 16.726488-50.17947 22.346588-72.52606 50.179468-27.83288 33.45298-33.45298 66.90596-39.07308 105.97904 0 55.79958 27.83288 117.08544 83.63245 144.91833 78.01235 44.55934 183.99139 11.10637 223.06447-72.52607 22.3466-55.79958 11.1064-128.19183-39.07308-172.88501-33.45298-27.83288-66.90596-39.07308-111.46533-39.07308-66.90596 5.6201-111.46533 55.79957-122.70553 122.70553-11.10639 72.52606 33.45298 139.43202 105.97904 150.53843 100.35894 16.72649 183.99138-89.25257 139.43202-178.37131-11.10638-16.72649-27.83288-39.07308-50.17947-50.17947-27.83288-11.10639-55.79957-16.72649-83.63245-11.10639-33.45298 5.6201-55.79957 27.83288-72.52606 50.17947-16.72649 27.83288-16.72649 55.79957-11.10639 83.63245 11.10639 33.45298 39.07308 61.28586 72.52606 72.52607 44.55937 16.72649 89.25255-5.62011 111.46533-39.07309 33.45298-55.79957 5.6201-117.08543-50.17947-139.43202-50.17947-16.72649-122.70553 27.83288-105.97904 89.25255 5.6201 16.72649 11.10639 39.07309 27.83288 50.17947 22.34659 16.7265 50.17947 16.7265 72.52606 11.1064 22.34659-11.1064 39.07308-33.45299 39.07308-61.28587-5.6201-16.72649-5.6201-39.07308-22.34659-50.17947-13.91644-8.36324-29.2379-11.13984-43.17107-8.34651-13.93317 2.79332-26.47803 11.15656-34.84128 25.073-5.6201 16.72649-11.10639 33.45298 9.50065 44.827 41.74932-49.10898 35.32635.40143 29.84006-16.45887v5.6201c16.72649-5.6201 22.34659-22.34659 27.83288-33.45298 5.6201 5.6201 16.72649 11.10639 16.72649 22.34659 11.10639 39.07308-27.83288 72.52606-66.90596 61.28586-33.45298-11.10639-44.55937-50.17947-39.07309-83.63245 5.62011-22.34659 22.3466-39.07308 50.17948-44.55937 33.45298-5.6201 66.90596 11.10639 83.63245 39.07308 16.72649 27.83288 16.72649 50.17947 0 78.01235-33.45298 55.79958-105.97905 55.79958-150.53841 11.10639-33.45298-44.55937-22.3466-117.08543 27.83288-144.91831 16.72648-11.10639 39.07308-16.72649 61.28586-16.72649 11.10638 0 27.83288 5.6201 39.07308 11.10639 27.83288 11.10639 39.07308 39.07308 55.79957 61.28586 5.6201 16.72649 5.6201 27.83288 5.6201 44.55937-5.6201 72.52606-72.52606 122.70554-144.91831 105.97904-83.63246-22.34659-122.70554-122.70553-72.52606-195.09778 11.10638-16.72649 22.34659-27.83288 39.07308-39.07308 78.01235-44.559372 167.2649-5.6201 200.71788 66.90596 39.07309 94.73884-39.07308 206.33797-139.43202 200.71788-27.83288-5.62012-55.79958-5.62012-78.01235-22.3466-22.34659-11.10638-27.83288-27.83287-39.07309-39.07307-66.90596-78.01235-33.45298-195.09778 55.79958-239.79097 39.07308-16.726484 83.63245-16.726484 128.19182-5.6201 94.73883 33.45298 139.43201 144.91832 94.73883 234.17087-11.10637 27.83288-33.45297 44.55935-55.79956 66.90596-22.34659 16.72649-50.17947 27.83289-78.01235 33.45298-44.55937 5.62012-89.25256-5.62009-128.19182-27.83286-94.73884-66.90598-117.08544-211.82429-22.3466-289.97045 16.7265-11.1064 27.83288-33.452984 50.17948-39.073085 33.45298-11.106392 66.90596-22.346593 105.97904-16.726492 27.83288 5.6201 55.79957 16.726492 78.01235 27.832879 16.72649 16.726488 39.07309 22.346598 50.17946 44.559368 11.10641 16.72649 27.8329 33.45298 33.45298 55.79957 22.34661 66.90596 16.72649 139.43203-27.83286 195.09781-16.72649 22.34657-33.45298 44.55934-61.28587 55.79954-22.34659 5.62012-39.07308 22.34661-61.28586 22.34661-39.07308 0-83.63245 5.62008-122.70553-11.10641-117.08543-44.55934-167.26491-195.09777-105.97905-306.69691 16.7265-33.45298 44.55937-61.285864 78.01236-83.632457 44.55936-22.34659 89.25255-33.452979 139.43202-27.832879 61.28586 5.6201 111.46532 39.07308 156.1585 83.632456 22.34661 22.34659 27.8329 50.17947 39.0731 78.01234 11.10637 16.7265 5.62008 39.07309 11.10637 61.28586 11.10645 172.88502-195.09777 301.07685-351.25629 211.82429-27.83287-16.72649-50.17946-27.8329-66.90596-50.17947-61.28586-72.52608-78.01235-167.26492-50.17947-256.51747 16.72649-33.45298 39.07309-61.28586 61.28587-89.252546 39.07308-39.073083 94.73884-55.799574 144.9183-72.526064" fill="#221b35" opacity=".9"/><path d="m231.45148 15.388371c-120.56454 21.008472-220.12061 131.001869-209.68329 256.785079 5.21867 41.88313 15.78981 78.68141 41.88314 115.34586 15.7898 15.65602 31.4458 31.44582 47.23561 47.1018 31.4458 21.0085 68.11026 41.88314 104.77473 47.23563 36.66447 5.21866 73.32893 5.21866 104.77473-5.21866 36.66447-15.65601 68.11026-31.44582 94.33742-57.67295 31.44579-36.66448 52.45425-78.68141 62.89161-131.00187v-57.67294c-5.2187-26.22714-10.43736-47.23561-21.00851-73.32894-10.43731-21.00847-26.22712-41.88313-47.10179-57.672935-26.22713-26.227136-57.67292-41.88313-94.33739-52.454272-26.22714-5.218666-52.45427-10.43733-83.90008-5.218666-73.32893 10.437332-131.00187 57.672938-162.44767 120.564543-10.43733 26.22713-15.78981 57.67294-21.00847 83.90008 0 31.44579 5.21866 62.8916 15.78981 89.11874 21.00847 41.88313 52.45427 83.90006 99.55607 104.77473 15.7898 5.21866 31.4458 10.43732 52.45427 15.65601 115.34588 21.00847 220.12062-52.45428 235.91043-167.66635 10.43732-73.32894-21.00847-131.00188-68.11026-178.23748-94.33742-83.900079-251.56643-41.883137-293.44956 73.32893-5.21867 26.22713-15.78981 52.45427-15.78981 78.68141 5.21866 73.32893 52.45427 141.573 125.78321 162.44767 57.67293 15.78981 115.34587 5.21866 162.44767-31.44578 10.43733-10.43736 21.00849-21.00849 31.4458-31.44582 57.67295-78.68141 41.88314-183.45615-41.88313-241.12909-26.22714-15.7898-52.45428-21.008465-83.90008-26.227131-21.00847-5.218666-41.88313 5.218666-62.8916 10.437331-26.22714 15.7898-47.23561 21.00847-68.11027 47.1018-26.22713 31.4458-31.4458 62.8916-36.66447 99.55606 0 52.45428 26.22714 110.12722 78.68142 136.22052 73.32893 41.88314 173.01881 10.43736 209.68327-68.11025 21.00847-52.45427 10.43736-120.56454-36.66446-162.44767-31.4458-26.22714-62.8916-36.66447-104.77473-36.66447-62.89161 5.21867-104.77474 52.45428-115.34588 115.34588-10.43733 68.11027 31.4458 131.00187 99.55607 141.57302 94.3374 15.65599 173.01881-83.90008 131.00187-167.66635-10.43733-15.7898-26.22714-36.66446-47.1018-47.2356-26.22713-10.43733-52.45427-15.656-78.68141-10.43733-31.4458 5.21866-52.45427 26.22713-68.11027 47.23561-15.7898 26.22713-15.7898 52.45427-10.43732 78.6814 10.43732 31.44581 36.66446 57.67295 68.11026 68.11027 41.88314 15.78981 83.90008-5.21866 104.77474-36.66446 31.4458-52.45428 5.21866-110.12721-47.1018-131.00187-47.23561-15.78981-115.34588 26.22713-99.55607 83.90007 5.21867 15.65599 10.43733 36.66447 26.22714 47.23561 21.00847 15.78981 47.10179 15.78981 68.11027 10.43733 21.00847-10.43733 36.66446-31.4458 36.66446-57.67294-5.21866-15.7898-5.21866-36.66447-21.00847-47.23561-13.11356-7.8949-27.5318-10.50423-40.62864-7.86145-13.09684 2.64279-24.87229 10.53769-32.70029 23.65126-5.21867 15.656-10.43733 31.4458 8.9654 42.15076 39.20689-46.70036 33.05154-.26763 27.96669-16.05744v5.21867c15.78981-5.21867 21.00847-21.00847 26.22714-31.4458 5.21866 5.21866 15.65599 10.43733 15.65599 21.00847 10.43733 36.66447-26.22714 68.11027-62.8916 57.67294-31.4458-10.43733-41.88313-47.23561-36.66447-78.68141 5.21867-21.00848 21.00847-36.66447 47.1018-41.88314 31.4458-5.21866 62.8916 10.43734 78.68141 36.66447 15.65599 26.22714 15.65599 47.23561 0 73.32893-31.4458 52.45428-99.55607 52.45428-141.57302 10.43734-31.4458-41.88313-21.00847-110.12722 26.22714-136.22054 15.78981-10.43733 36.66447-15.656 57.67294-15.656 10.43733 0 26.22714 5.21867 36.66447 10.43733 26.22713 10.43733 36.66446 36.66447 52.45427 57.67294 5.21866 15.78981 5.21866 26.22714 5.21866 41.88314-5.21866 68.11026-68.11026 115.34586-136.22053 99.55606-78.68141-21.00847-115.34588-115.34587-68.11027-183.45614 10.43733-15.656 21.00847-26.22714 36.66447-36.66447 73.32893-41.88313 157.22901-5.21866 188.67481 62.8916 36.66448 89.11874-36.66447 193.89349-131.00188 188.67483-26.22713-5.21866-52.45427-5.21866-73.32893-21.00848-21.00847-10.43734-26.22713-26.22714-36.66447-36.66447-62.8916-73.32893-31.4458-183.45615 52.45428-225.33928 36.66446-15.789805 78.68141-15.789805 120.56454-5.21866 89.11872 31.4458 131.00186 136.22053 89.11872 220.12061-10.43731 26.22714-31.44578 41.88313-52.45425 62.89162-21.00847 15.78977-47.23561 26.22712-73.32894 31.44578-41.88313 5.21866-83.90007-5.21866-120.56454-26.22712-89.11874-62.89162-110.12721-199.11215-21.00847-272.5749 15.656-10.43733 26.22714-31.445801 47.1018-36.664467 31.4458-10.437328 62.8916-21.00847 99.55607-15.655994 26.22713 5.218666 52.45427 15.655994 73.32893 26.227136 15.65599 15.789805 36.66446 21.008475 47.10181 41.883135 10.43732 15.7898 26.22713 31.4458 31.44578 52.45427 21.00847 62.8916 15.78981 131.00187-26.22712 183.45615-15.78981 21.00846-31.44582 41.88313-57.67295 52.45428-21.00847 5.21866-36.66446 21.00847-57.67294 21.00847-36.66446 0-78.68141 5.21866-115.34587-10.43735-110.12721-41.8831-157.22901-183.45614-99.55607-288.23087 15.7898-31.4458 41.88313-57.672937 73.32893-78.681407 41.88313-21.008474 83.90008-31.445802 131.00187-26.22714 57.67294 5.218666 104.77473 36.664468 146.79166 78.681417 21.00851 21.00847 26.22717 47.10179 36.66448 73.32893 10.43732 15.78981 5.21866 36.66446 10.43732 57.67293 10.43735 162.44767-183.45613 283.01222-330.24781 199.11215-26.22713-15.65601-47.23561-26.22713-62.8916-47.23563-57.67294-68.11025-73.32893-157.22899-47.23561-241.12907 15.78981-31.4458 36.66447-57.67293 57.67294-83.900069 36.66447-36.664468 89.11874-52.454275 136.22054-68.11027" opacity=".9"/></g></g><g opacity=".9"><g clip-path="url(#d)" opacity=".9" stroke-width="1.97645" transform="matrix(-.36755962 .29555286 .58958287 .22238204 90.143591 6.36804)"><path d="m335.83964 19.717943c-22.21354 14.87296-78.95304 55.532949-95.69738 77.884489-48.50494 49.922298-81.03039 112.167018-122.61136 167.457618-32.389614 44.7004-72.036677 87.69845-93.618128 138.42423-.108968 15.10368-18.4794151 38.66079-16.7885271 53.56054 25.6765761 4.48212 45.5809991 33.3612 72.1989231 34.71656 27.199752-1.40834 30.943542 31.37222 57.645732 26.37148 18.60701-8.58917 91.277-92.10925 107.0303-104.39107 50.60183-52.24748 93.34667-111.8442 127.04678-176.28071 19.23101-35.1718 54.97929-88.95941 70.08763-125.94413-8.63134-12.506939-36.53555-27.910459-42.04605-4.37184-19.49622 31.84359-57.70874 79.82802-79.97232 109.72594 15.47329-38.82473 59.59099-115.492 83.7058-149.935889-11.14811-20.750578-41.59027-30.048578-59.49109-46.972338-2.54132-1.31443-4.20954-.4483-7.49031-.24488zm-65.65214 88.137527c-18.65545 34.46929-44.4994 64.69646-73.66663 90.69464 22.0241-31.97299 46.58733-63.71248 73.66663-90.69464zm23.90039 71.54492c-10.16248 19.93225-21.19005 40.16133-39.42969 53.85742 11.79701-14.83509 17.52577-33.15866 32.30505-46.11705.3433.17905 10.20629-12.92842 7.12464-7.74037zm-48.63672 20.60351c-15.4351 9.23022-25.15062 46.7428 2.88603 38.30735 12.3515-10.29217-12.65041 13.26725-4.38448 21.99719 2.3195 13.54768 21.60726 8.61043 23.45616 6.96721-17.59697 41.85109-43.15913 80.25354-75.88302 111.79878-9.70685 9.56449-16.72396 22.07273-24.42234 32.5701-4.52539-24.29152 25.32148-36.14431 24.83146-58.38708-10.70764-11.72709-36.69438 30.0086-24.00932 4.49216 9.39247-23.70133 22.45465-45.54591 36.45706-66.73207 9.80714-19.74368-12.81213-14.90463-18.77919-2.55756-14.20851 16.44455-30.13686 31.24097-42.69407 48.93402-7.84698 5.53815 6.91525-18.46917 9.28955-24.33009 22.9396-44.42366 56.07176-82.77594 94.38302-114.6518zm82.68164 51.98633c-21.21363 40.97226-43.69049 82.09438-75.98371 115.52538-5.15996 10.31768-28.90409 26.90627-12.79535 6.72102 18.65374-31.603 35.46898-64.58923 60.1001-92.18307 7.88481-9.3039 24.11618-27.84547 28.67896-30.06333zm-223.44335 133.10547c-4.48443 16.90402-19.323161 43.70749-26.581833 48.58039 6.39353-16.30123 18.107751-40.06597 26.581833-48.58039z" filter="url(#c)" opacity="1" transform="matrix(.94570392 .07216123 .08709346 .88425 12.101129 -16.082789)"/><path d="m334.85988 20.758373c-20.82603 13.71004-72.93707 56.544929-88.99651 76.717919-36.28621 36.603778-64.04608 80.268568-92.0506 123.191398-30.6114 43.56065-62.932711 86.26405-86.365392 134.32838-9.409457 18.27947-31.69552 31.32077-39.843117 50.00103l-17.272235 49.8852c50.085228.0455 67.765292 61.39509 117.982144 61.42319 20.15993-2.56747 92.51277-88.4728 107.71191-100.05203 47.66007-49.00579 89.87706-103.63748 122.11238-164.05649 22.43153-39.83653 59.7261-98.58769 79.17581-140.00075-9.99481-8.0639-29.8879-24.931999-34.59641-3.04374-21.15638 33.93934-61.09968 83.98766-84.809 116.01888-3.07096 12.51321-14.80458 12.74814-6.7774-.75056 12.6898-25.51035 20.42779-53.27307 34.27753-78.31575 7.67395-15.09155 44.52421-67.319469 54.06049-81.311849-21.24571-16.931138-42.10217-28.443538-63.34788-45.374678zm-52.75832 72.065849c-20.83839 46.092988-54.50899 84.921098-92.79896 117.434328-6.84218 5.89147-21.33743 25.91963-9.7823 6.41288 28.47034-43.31731 59.8081-85.3901 97.42254-121.112688.49411.3876 7.2611-5.90225 5.15872-2.73452zm29.65625 60.386718c-11.49625 22.43404-21.97347 45.83089-36.85511 66.21499-9.7119 12.66744-34.1561 23.79945-26.15331 42.4858 17.76904 15.58694 23.3612-17.0084 34.51038-25.2379-12.81951 38.78838-31.56051 76.04506-56.13076 108.72472-17.62055 23.54685-42.60098 41.53553-55.45962 68.43239-16.77853 10.87416-6.17987-28.00453 2.51611-34.09945 7.67036-8.06933 25.96671-36.04209 4.45888-19.97118-8.12198 6.80148-28.49055 25.49444-29.56436 23.3254 15.87589-21.69529 22.23123-48.76201 37.39402-71.03627 4.58332-9.5109 20.367-26.40333 15.25465-32.09335-17.16615 11.6566-28.35543 30.86855-44.3209 44.43545-4.14138 8.20732-26.62156 36.8088-20.99807 11.82208 21.00489-46.77398 50.48002-89.9046 88.92906-124.08213 9.57885-8.22622 27.48781-25.91828 32.62847-27.01604-4.89723 15.74862-18.49477 26.10381-25.13131 40.61502 4.96747 26.09074 28.19125-1.57617 30.36927-15.71309 15.58998-20.36289 32.95416-39.43316 49.59167-58.98027zm30.36329 80.96093c-24.94245 46.29527-47.56477 95.23279-84.85866 133.19471-5.53501 7.6331-25.88904 33.39476-29.38744 16.6842 18.12457-24.79467 29.68469-53.75398 48.25872-78.36196 19.52869-27.36018 42.23067-52.49624 67.64558-74.50913zm-206.99805 46.13282c-13.2525 35.43518-32.63884 68.59678-57.009767 97.5332 16.612786-34.44506 35.969457-67.55214 57.578127-99.09766zm-22.03125 87.0664c-4.86537 27.43822-17.190815 54.1526-35.885935 74.90045-13.29858 6.92624 2.860447-20.93597 4.410043-27.21642 8.177629-17.02681 19.449812-34.42625 31.475892-47.68403z" fill="#3b2f4f" filter="url(#b)" opacity="1" transform="matrix(.94570392 .07216123 .08709346 .88425 12.101129 -16.082789)"/><path d="m127.86449 512.30583 10.06523-2.2821c28.43579-30.63975 82.19459-80.18665 119.69628-122.7418 20.82404-23.63013 40.58874-47.80691 58.40966-73.54578 17.48773-25.25763 31.90985-52.51882 47.38307-79.04909 23.61406-40.48851 52.70654-87.00191 69.36776-122.28521l-20.58798-11.07791c-14.83965 25.34516-55.1959 81.44998-86.84949 119.61094-5.45059 6.57112-10.11518 22.83462-17.72018 18.79622-9.725-5.16417 3.37598-22.11994 7.22075-32.23445 19.34933-50.90268 58.87581-111.611079 79.25237-141.865299l-57.98036-46.212828c-5.91413 6.5193-46.36357 39.325349-66.66144 61.042039-38.64913 41.350698-76.86792 85.948078-104.65131 131.538708-5.21728 7.3107-10.32982 14.67309-15.43759 22.04942-18.11971 26.16734-35.67029 52.69245-53.95228 78.78219-19.315837 27.56512-46.328698 52.83972-58.885512 82.14453-1.65514 3.27386-5.871901 7.63025-8.163063 11.77708-8.829973 15.98159-21.2716261 50.052-21.2716261 50.052zm-61.901376-59.50896c-7.469003-3.71249 3.117576-23.06476 3.117576-23.06476 5.744277-17.85068 24.810516-47.55008 47.92338-73.76819 3.17601 16.52306-13.96925 57.18306-31.932569 82.37247 0 0-11.838444 18.07402-19.108387 14.46048zm99.090466-30.9501c-6.47929-1.34206-6.68023-12.36643-5.93805-18.94149 1.8424-16.3221 24.85149-42.55175 24.85149-42.55175s-15.99688 14.67411-24.85149 20.89878c-4.36481 3.0684-9.82967 11.55806-13.84062 8.0397-5.3434-4.68717 5.16336-13.25828 8.21691-19.6768 13.53375-28.44769 15.4143-39.48716 44.68873-83.27555-11.94781 14.16271-24.33972 27.41579-37.37579 40.28388-8.46837 8.35924-16.14518 29.83322-26.48152 23.93828-9.59544-5.4724 1.7318-22.56209 6.60999-32.47284 29.18206-59.28755 61.54911-95.41643 129.81821-149.82219 0 0-11.02391 22.31533-16.53587 33.47299-5.00747 10.13646-24.51605 24.26986-15.02242 30.40938 10.33134 6.68127 15.5319-19.08752 23.47385-28.4844 21.19973-25.08344 47.58001-56.69104 64.52895-74.45458-15.59389 35.25643-27.5783 57.42283-43.34318 85.06834-9.227 16.18059-44.61837 35.72917-29.93253 47.1867 8.99808 7.02008 15.89711-17.28884 23.58167-24.8219 4.16827-4.0861 8.26513-7.90846 12.25862-11.39268-2.59579 22.9077-25.67611 71.28803-45.58081 103.19106-16.22295 26.00196-39.32615 47.01817-59.2099 70.34031-6.59025 7.72987-9.96951 25.12503-19.91624 23.06476zm4.46535-190.88678c-2.13386-1.37912.80141-5.0668 1.78039-7.41135 3.33026-7.97559 8.86554-14.66509 13.6705-22.03233 24.37546-37.37388 54.87514-75.01633 87.52229-107.956928 5.56153-2.95496 19.93199-14.4189 17.37487-8.37114-10.61321 25.100888-24.78351 48.640818-41.31008 70.172648-17.19963 22.40874-38.31147 41.65314-59.43109 60.41323-6.18046 5.48997-12.66404 19.67306-19.60688 15.18587zm55.56014 161.04655c-7.96789-6.33269 7.09949-19.12621 11.71958-28.19511 12.06323-23.67923 27.0803-48.62596 41.56334-68.03335 23.25113-30.99582 50.99021-59.57583 80.21068-81.73358-18.86811 29.52654-35.5938 68.64469-56.51365 101.08983-10.34355 16.04208-20.40489 32.67716-33.99598 46.07938-12.54977 12.37538-29.18593 41.75918-42.98397 30.79283zm-160.996651 6.77547c21.142108-48.49702 50.410601-98.79532 82.783321-142.64431-12.77499 50.20131-45.12625 105.9639-82.783321 142.64431z" fill="#775fa0" filter="url(#a)" opacity="1" transform="matrix(.94570392 .07216123 .08709346 .88425 12.101129 -16.082789)"/></g><g opacity="1" stroke-width="1.16674" transform="matrix(.85708921 0 0 .85708921 -273.31472 -97.356342)"><g stroke-width="1.16674" transform="translate(-378.27359 468.89076)"><path d="m1396.7396-155.27527c3.927 3.19476 7.2876 6.91102 9.8916 11.63385 4.3223 7.83401 4.7901 22.21618-.1509 30.5801-6.6035 10.55325-17.5405 16.460147-33.5921 20.023698-38.1832 7.844843-80.1274 18.884096-129.0934 13.734874-17.5364-2.130135-21.0912-4.330754-22.5299-20.810102 2.1674-39.71542 16.9457-75.9876 46.4445-99.61872 16.0045-12.82115 36.748-19.77447 56.5195-23.70144 14.9294-2.91621 32.8908-5.51723 48.5202.95386 2.2328.92444 4.4185 2.03335 6.5404 3.35359l-3.2263 33.43057z" opacity="1" transform="matrix(-.86325379 -.34773284 -.34551298 .86511603 2226.4491 405.75988)"/><path d="m1142.9247-146.95812c.7457-14.65654 9.6106-34.92015 5.7617-60.30859-1.177-7.76386-2.8321-18.02558-6.291-28.12305s-8.2962-22.74142-23.6621-27.875c-3.8992-1.30267-7.6825-1.94543-32.6237-.88117-24.9413 1.06427-34.7509 1.85888-44.7962 6.08625-19.0504 9.73121-28.8077 17.97222-40.4395 32.88867 1.2883 20.85681 8.119 41.6859 9.5742 61.02734 1.5724 24.1299-.549 49.42415-2.3359 75.578126-2.2549 33.00454-6.2252 66.12447-10.62109 99.39062-5.71134 43.22087-13.84712 83.09607-20.70313 131.300784l-2.92188 20.53516h75.8125l3.123-14.10938c9.35-42.23883 13.3632-77.494244 22.6055-113.632814 3.2468-12.69527 3.8667-23.5036 5.3184-32.5781202 4.3115 13.1166202 6.6434 27.8512702 10.2148 44.4296802 6.3095 29.28878 1.418 59.415194 7.1153 100.371104l2.1582 15.51953h74.5976l-1.373-19.2793c-3.074-43.13264-1.842-82.315154-6.3809-121.267584-4.6591-39.98354-17.9419-75.32826-24.3398-110.21191-5.4357-22.275426-.9894-35.346596.207-58.860346z" opacity="1"/><path d="m1093.6229-247.35035c-6.207.0691-34.375 1.27152-45.3271 5.88051-11.0306 4.64201-20.6178 11.19349-28.7031 21.56445 1.6336 14.30634 7.6178 36.19777 8.8164 54.5918 1.6908 25.94819-.5659 52.03846-2.3379 77.974606-2.297 33.61936-6.3199 67.11417-10.7344 100.52148-5.8123 43.98504-13.9585 83.87857-20.72851 131.478524h40.61911c9.12-41.19996 13.1232-76.597284 22.7403-114.201174 5.8387-22.8303002 1.5601-45.45142 21.1758-67.44922 21.0749 23.62498 23.4118 52.206 29.3925 79.96875 7.1564 33.22004 2.0477 63.581684 7.3477 101.681644h39.5996c-3.15-44.19996-1.9772-83.325434-6.3047-120.462894-4.3274-37.13746-17.3879-72.08493-24.0566-108.53711-6.2812-25.664426-1.2495-42.383386-.1734-63.534166.9656-18.97751 8.7887-37.9084 5.9406-56.6958-2.2629-14.92714-6.5082-37.83136-17.859-41.62355-3.8241-1.27759-9.3166-1.62819-19.4073-1.15785z" fill="#775fa0" opacity="1"/></g><g stroke-width="1.16674" transform="translate(-378.27359 468.89076)"><path d="m1026.2906-199.67633-25.4167-25.49468c-29.31892 29.22803-41.97402 65.64129-44.09042 104.42562-2.3215 17.62584-.81739 16.71034 15.676 18.83312 51.67652 6.650799 100.73712-1.28129 150.21362-11.36054l.1551-.032.1553-.036c15.6704-3.48083 26.2737-9.30074 32.4578-19.17917l.1238-.1987.1203-.20287c4.6281-7.84144 4.1853-21.46587-.01-29.05112-2.5057-4.54187-5.7611-8.14667-9.5751-11.24738-11.6269-9.50373-29.4619-14.23162-48.1631-8.2463l-3.3728 1.08033-2.7124 2.27703c-9.5808 8.04217-20.1401 12.45941-32.0447 13.70844z" opacity="1"/><path d="m1019.6513-151.2024c31.6218 9.30337 60.7347 6.22249 83.7771-13.11937 12.917-4.13408 24.4216-.58586 31.3069 5.0544 2.2514 1.82802 4.0418 3.91379 5.1905 5.99911 2.3567 4.25657 2.4144 7.54368.258 11.19737-2.2971 3.66928-8.3264 8.32088-21.1024 11.15879-48.9795 9.978-95.8969 17.38023-144.32412 11.14761 1.9491-35.71623 12.8131-66.7288 32.47082-99.03334-35.67312 22.85483-48.32822 59.26815-50.44462 98.05244-2.3215 17.62584-.81739 16.71034 15.676 18.83312 51.67642 6.650789 100.73722-1.28131 150.21362-11.36054l.1551-.032.1553-.036c15.6704-3.48084 26.2737-9.30075 32.4578-19.17917l.1238-.1987.1203-.20287c4.6281-7.84143 4.1853-21.46588-.01-29.05112-2.5057-4.54185-5.7611-8.14667-9.5751-11.24738-11.6269-9.50369-29.4619-14.23159-48.1631-8.24627-2.6047.43213-4.142 1.72611-6.0852 3.35736-9.5808 8.04222-20.1401 12.45941-32.0304 13.84946-10.4652 1.23059-21.9446-.27294-35.1087-4.15063" opacity="1"/><path d="m1013.7494-213.54693c-20.76402 26.74022-37.04392 58.06645-38.99302 93.78271 48.42722 6.23264 95.34442-1.16922 144.32402-11.14722 12.776-2.8379 18.8059-7.48978 21.103-11.15906 2.1565-3.6537 2.0982-6.94119-.2585-11.19775-1.1487-2.08532-2.9377-4.17087-5.1891-5.99888-6.8853-5.64029-18.3909-9.18944-31.3079-5.05536-23.0424 19.34188-52.1543 22.42395-83.7761 13.12057l5.0659-17.20859c13.1641 3.87771 24.6423 5.38099 35.122 4.29144l-17.3872-70.99231c-7.5602 2.95948-21.3635 12.11241-28.7031 21.56445z" fill="#775fa0" opacity="1"/></g><g stroke-width="1.25307" transform="matrix(-.86325379 -.34773284 -.34551298 .86511603 1848.1755 874.65065)"><path d="m1372.7491-222.47915c2.2328.92444 4.4185 2.03335 6.5404 3.35359l-15.4454 14.62754c-17.464-5.37552-62.7826 2.81809-84.0484 19.85393-24.4949 19.62258-37.2788 49.86861-39.2279 85.584832 48.4272 6.23263 79.3152-2.907522 128.2947-12.885512 12.776-2.8379 18.8057-7.49001 21.1028-11.15929 2.1565-3.65369 2.0987-6.94125-.2581-11.19781-1.1487-2.08532-2.9385-4.17055-5.1899-5.99855-6.8853-5.64029-18.3911-9.18911-31.3081-5.05504-23.0424 19.34186-46.1213 24.32501-77.7431 15.02164l24.7964-22.80732c13.1641 3.8777 18.5936 3.53726 29.0733 2.44771 5.6543-3.6479 10.4647-11.10063 17.9797-13.0738 19.1356-6.12432 37.4467-1.30398 49.4241 8.49196 3.927 3.19476 7.2876 6.91102 9.8916 11.63385 4.3223 7.83401 4.7901 22.21618-.1509 30.5801-6.6035 10.55325-17.5405 16.460147-33.5921 20.023698-36.0837 7.413494-82.7462 17.043907-129.0934 13.734874-20.3656-1.141437-23.6486-.271305-22.5299-20.810102 2.1674-39.71542 16.9457-75.9876 46.4445-99.61872 16.0045-12.82115 36.748-19.77447 56.5195-23.70144 14.9294-2.91621 32.8908-5.51723 48.5202.95386z" opacity="1"/><path d="m1368.2476-202.44264c-12.4253-9.0047-65.0302-.96534-88.452 17.79762-24.4949 19.6226-37.2782 49.86919-39.2273 85.585447 48.4273 6.232636 79.3139-2.906827 128.2935-12.884827 12.776-2.8379 18.8059-7.48978 21.103-11.15906 2.1565-3.6537 2.0983-6.94119-.2585-11.19775-1.1487-2.08532-2.9377-4.17087-5.1891-5.99888-6.8853-5.64029-18.3909-9.18944-31.3079-5.05536-23.0424 19.34188-46.1223 24.32538-77.7442 15.022l24.7964-22.80795c13.1641 3.87771 18.5944 3.5373 29.0741 2.44775l19.0058-22.61948c7.8656-9.36116 11.9465-9.24251 19.9062-29.12951z" fill="#775fa0" opacity="1"/></g><g stroke-width="1.16674" transform="matrix(-1 0 0 1 1777.7262 468.89076)"><path d="m1081.202-355.21789c-4.7259-.31185-9.3793.26572-13.8652 1.49024-9.9569 2.71793-17.8814 8.54741-23.6816 16.34375-9.5987 12.9021-13.8375 28.22517-14.2832 43.01367-.4568 15.1544 2.6054 31.62374 12.3242 45.79688 6.3209 9.21792 16.1 21.21043 33.9707 22.48437 18.1763 1.29573 31.4464-8.55135 40.2012-19.85742 10.9006-14.07735 10.9264-29.84158 10.7734-41.29492-.2025-15.15603-4.179-30.11416-11.3301-43.35157-3.5532-6.57739-8.7513-15.35596-19.8125-20.77343-4.7729-2.33765-9.5709-3.53972-14.2969-3.85157z" opacity="1"/><path d="m1108.6427-287.00021c-.1613-12.07116-3.4303-24.4156-9.1682-35.03705-2.8107-5.20283-6.5815-10.56323-11.8923-13.16428-4.6547-2.27975-10.5055-2.52598-15.5055-1.16113-5.4758 1.49471-10.5916 5.16875-13.9797 9.72278-6.8688 9.23273-10.3869 21.30933-10.7336 32.81167-.3641 12.08008 2.3424 25.10874 9.1771 35.07603 4.742 6.91532 12.0427 14.1125 20.4065 14.70872 9.2651.66048 19.0015-5.57823 24.6884-12.92245 6.2941-8.1283 7.1446-19.75491 7.0073-30.03429z" fill="#775fa0" opacity="1"/></g></g></g><g transform="translate(-589.23906 138.87681)"><path d="m745.09966 285.66216c17.66792-15.85344 2.04731-26.11099-4.54688-40.31055 13.8699-10.02083 30.02324-17.98202 47.47657-26.19531l-14.35357-50.36528c-29.81832 8.92212-68.40153 25.81534-87.5918 47.71289-1.82945 2.10453-6.03186 3.79813-5.50195 14.70703 1.18198 24.32762 17.11614 41.96437 32.98147 53.21389 10.32499 6.3184 20.99505 7.37161 31.53616 1.23733z"/><path d="m771.66016 287.4023c-31.03951-1.96866-61.157-4.31569-90.85743-.10547l-3.71875-29.38867c-.98696-7.79169-6.91142-14.04419-14.63867-15.44922l-14.35156-2.60933c-9.88995-1.79732-19.33566 4.85275-20.97852 14.76953l-14.16796 85.55273c-2.0809 12.57699 9.21039 23.27256 21.65625 20.51368 23.18224-5.14283 46.29101-6.71676 70.45507-6.40821 3.28883-.029 6.50687-.9585 9.30469-2.6875 2.65907 1.88213 5.77905 3.0074 9.02734 3.25586 15.20085.70376 30.84631 1.94751 47.55665 3.35057 18.49699.66848 37.01915.91291 54.79296-3.45998 15.44016-3.80203 18.72874-24.29146 5.25391-32.73438z"/><path d="m772.02604 340.23433c-16.32721-1.38148-32.19581-2.64671-47.80329-3.36929-.48764-3.57792-1.87929-7.24457-5.84405-11.16251-6.82592 2.46316-10.29378 6.37611-13.09018 10.57723-25.09347-.32042-49.68549 1.30948-74.58341 6.83292l14.16895-85.55324 14.35228 2.60885 6.12131 48.36831c32.23987-8.25329 67.03351-5.58986 105.17292-3.17089l50.91925 31.89117c-14.60319 3.59282-31.77902 3.60455-49.41378 2.97745z" fill="#775fa0"/><path d="m780.36414 202.86968c-20.9029 9.83661-41.79913 19.68082-59.57395 34.87034-.3178 12.65165 6.84092 22.73216 15.19775 32.39965-3.09686 1.81788-6.9217 3.21113-12.01429-.39857-13.22772-9.37904-24.60765-22.80281-25.41368-39.40413-.18729-3.85562 25.8946-20.62531 51.70065-36.10496l28.37697-8.13873z" fill="#775fa0"/><path d="m640.10939 244.22442c-2.81668-8.55999-11.52886-13.71844-20.38869-12.07208l-15.76953 2.93164c-9.57947 1.7819-16.00236 10.86225-14.49219 20.48829l13.72852 87.45312c1.95829 12.46407 15.79849 19.09911 26.74219 12.82031l64.4375-36.98242c26.0826 7.29036 46.40116 26.09165 69.85937 37.59375 16.79517 4.58736 47.34665 1.5908 61.47461-1.71094 5.91636-1.44232 10.70247-5.77796 12.7207-11.52343l15.93457-45.56934s9.56434-42.27215 10.19043-70.33496c.0659-3.40023-.83271-6.74957-2.85546-11.58594-.5202-6.24155-2.32136-10.32085-5.33789-13.41797.82866-3.81382.39544-7.79364-1.23438-11.33984 1.19957-3.01491 1.56196-6.29799 1.04883-9.50195 2.46769-4.13006 3.17949-9.07607 1.97656-13.73438-3.42156-7.88636-3.72909-17.74817-8.875-23.50781 11.31712-13.26684 19.00403-34.32412 18.54496-49.693411-4.10919-23.715718-14.07598-38.592664-36.94036-40.314388-21.8891-.720785-42.58696 17.386957-53.17491 32.624009-5.64696 8.318132-8.40238 18.56843-9.80175 28.5244-1.21952 8.67641-.40813 21.46476 1.35841 26.24997-33.92611 13.81926-62.82579 23.6381-96.32422 35.4336-7.26514 2.77775-17.47009 5.59465-21.85547 8.84765-8.29401 6.03303-11.95956 13.50277-14.47461 22.39258-2.52922 8.93994-3.04399 19.75413 1.33985 30.57617 2.43124 6.00281 6.74017 12.89082 13.42187 17.64258 2.83164 2.01375 5.90881 3.49559 9.11719 4.70313l-13.87305 8.82422c-1.28484-1.81683-4.11107-3.57353-4.95996-6.03524-.42043-9.68834 1.44124-10.72219-1.53809-19.78132zm121.51952-34.52715c-.94214 6.09114-2.71691 13.18772-4.98633 21.07226-1.91188 7.19336.80034 14.82157 6.82422 19.19336-10.6266 3.36256-14.4656 8.40875-15.96485 17.39648-5.08814-2.13393-10.38871-4.65776-16.36133-7.51562-10.17532-4.86884-22.58917-10.28026-36.95117-10.85938 1.20978-7.36758-3.57028-15.14094-1.9414-21.57617 25.02521-7.7629 46.23247-11.06989 69.38086-17.71093z"/><path d="m840.06003 75.277529c5.90375 3.840046 9.37428 10.796992 9.77134 20.032735.39755 9.234746-2.55561 20.368966-9.22855 30.611756-6.67418 10.24158-15.66802 17.44437-24.2822 20.81986-8.61123 3.37447-16.38323 3.01659-22.28673-.82272-5.904-3.84079-9.37354-10.79725-9.77035-20.03225-.036-.9423-.0383-1.88558-.007-2.82805 8.19073 2.74916 15.4922 9.97651 19.68387 4.47436 1.14724-1.50491-7.48134-11.67239-17.28987-17.93835 1.11794-3.47436 2.55785-6.83674 4.30099-10.043363l21.75261 2.547773 6.88836-12.791252c-1.93709-.771908-14.55623 1.328945-24.66593 3.867167 6.49556-9.126756 14.836-15.581375 23.64861-19.013976 8.77487-3.02237 15.9504-2.483992 21.48485 1.11631zm-74.36609 191.976981c3.69013 2.68358 8.11554 4.72763 11.64342 5.98835 6.8737 2.45714 15.49557-3.56513 16.19453-8.84577.69723-5.28086-10.6251-4.30528-9.75954-9.33166.86529-5.02712 13.44264-2.02149 15.60139-7.0048 2.15729-4.9828 1.11912-11.18243-5.03657-14.64073-3.84903-2.16075-10.67924-1.28563-16.80283.87204-1.21938.43069-2.41862.9164-3.59403 1.45563 3.30905-11.49645 6.19702-22.51346 6.42383-32.87789l-1.72655-16.7764-28.37697 8.13873c-21.3829 4.47362-44.21189 10.42223-67.85635 17.20114-9.31748 7.30175-10.74447 19.71931-5.87845 35.21078-13.39508-1.60912-18.58449-6.3436-21.90042-14.53071-5.12245-12.64539.87862-27.23239 7.09873-31.71628 2.45677-1.86721 101.35863-34.6517 121.47222-45.08881l.001.003c1.0091.85202 2.06972 1.64106 3.17585 2.36265 10.35333 6.73546 23.31101 6.73039 35.06662 2.12421 4.33828-1.70012 8.57477-4.01719 12.60359-6.88759 2.71632 6.23801 4.93069 12.74681 6.69985 19.43264l-6.23462-.63288 3.91252 12.57121-8.88477 5.10468 9.2665 9.09163-8.90602 15.75282 13.71526.60387-3.83118 9.0946 6.7701 2.9873c-.53698 24.06849-9.48705 65.86903-9.48705 65.86903l-15.62418 44.47158c-15.29127 3.72523-32.27978 3.51982-49.41378 2.97745-21.07813-10.13396-60.20547-42.35315-81.80525-39.74381l-69.25104 39.74381-13.72911-87.45443 15.76936-2.93162 1.87282 5.69441-8.07285 11.16353 8.07119 7.03493 1.00862 6.89447 7.23762-.0254 5.26042 15.99267 45.62354-29.0215c28.56718-5.23 49.87337 20.32576 79.55363 22.70512-.20134-7.80628.68064-15.49236 2.12895-23.032z" fill="#775fa0"/></g></svg>