<svg height="500" viewBox="0 0 500 500" width="500" xmlns="http://www.w3.org/2000/svg" xmlns:xlink="http://www.w3.org/1999/xlink"><radialGradient id="a" cx="1362.7291" cy="216.11429" gradientTransform="matrix(1.0000001 -.0000059 .0000001 1.0000003 -112.72927 33.893757)" gradientUnits="userSpaceOnUse" r="250"><stop offset="0" stop-color="#ff851a"/><stop offset=".42441937" stop-color="#f87000"/><stop offset=".86367416" stop-color="#f26900"/><stop offset="1" stop-color="#e55f00"/></radialGradient><g transform="translate(-1000)"><path d="m1500 250a250 250 0 0 1 -250 250 250 250 0 0 1 -250-250 250 250 0 0 1 250-250 250 250 0 0 1 250 250z" fill="url(#a)" stroke-linecap="round" stroke-linejoin="round" stroke-width="1.002"/><path d="m1309.2298 33.82789c128.5196 30.706851 207.8974 167.48127 169.5927 291.56949-31.3771 95.69524-112.8693 162.03793-212.5543 174.60263 153.1796-8.09118 266.0956-163.0043 218.7012-309.92978-36.4562-114.666588-154.6038-191.5214848-270.6514-169.822657-18.8526 4.215647-38.4387 10.498641-55.8829 18.694487-112.5353 47.459213-168.47522 196.206-99.9632 307.85319 57.6978 93.63045 168.5136 141.8489 267.9993 100.77239-134.92 68.97589-303.283-51.46877-311.488-201.30723-4.4167-117.68321 76.8182-219.674136 190.654-246.26040176-89.0147 9.18391126-152.6601 79.39239576-187.7408 157.21169176-38.45522 102.70317 5.2337 231.75078 109.038 294.08388 114.5107 66.1048 260.3537 29.37245 323.6836-83.60152 42.2104-77.69758 34.3514-177.62383-23.1776-249.88923-57.5404-72.257811-157.5429-102.460489-246.4118-71.877168-81.7429 30.682061-131.1298 101.133078-134.0478 190.176958.6692 92.68536 61.7912 168.55972 147.5399 198.52472 128.5549 37.82014 266.7725-70.33038 233.6823-209.88949-14.7104-64.39775-57.8855-122.14991-125.7378-141.121386-71.391-15.467036-138.9716 1.205-181.2869 64.641366-18.8995 29.2286-28.9384 85.21395-26.105 97.65297m0 0c13.5324-50.18833 30.6277-97.66354 72.2125-128.94941 53.182-38.308183 124.4576-37.093813 181.7444-.48035 50.1457 36.48017 75.4845 90.37713 72.3557 150.91678-6.6674 64.04407-38.4038 109.83277-91.6401 141.00844-63.9019 34.56125-135.3795 4.83213-189.1258-35.28385-78.8706-65.48566-79.7477-186.67235-8.9744-256.76104 63.7369-55.941605 167.0207-64.891564 238.7167-6.65053 78.8163 58.35315 90.3045 169.04089 40.972 246.62443-35.2274 56.41892-88.4571 87.60135-152.5581 93.63158-81.9488 2.18264-160.666-41.91503-196.8695-120.9383-36.2055-79.02511-22.5771-164.33167 26.8727-227.66064 49.4316-63.30896 138.3491-86.746364 220.4504-67.54202" fill="#c50"/></g><path d="m81.835937 135.43555c-18.089276 24.27915-25.565695 52.51991-28.755859 80.41992-3.798669 33.22177 19.901644 57.63668 37.838867 75.7168 25.802145 17.26097 51.693435 32.37181 71.061525 49.08007 16.47255 14.21038 27.64936 28.5871 31.83203 45.78516-27.56613 22.23483-45.89063 51.08594-45.89063 51.08594-3.97009 6.08012-3.89846 13.95019.18165 19.95703l11.30664 16.64258-45.44729 25.87695h123.82387c0-4.54727-1.56721-8.9888-5.30237-12.72656-13.22708-13.23036-12.6744-21.75191-9.33398-28.52539 3.34042-6.77349 12.61787-13.49414 27.19531-13.49414 14.60522 0 23.05102 6.66547 26.36719 13.88476s3.39736 16.25928-8.47656 28.13477c-3.70046 3.70304-5.30374 8.3518-5.30374 12.72656h122.5473l-44.267-25.73242 11.40625-16.78711c4.07984-6.00601 4.15223-13.87502.18359-19.95508 0 0-18.59589-29.32633-46.57031-51.63672 5.37362-26.27065 17.46158-37.77799 34.71094-49.34375 19.31632-12.95167 46.27608-23.12641 69.50293-46.07813 16.56624-16.93658 40.41152-41.31399 36.62793-74.5996-3.17108-27.89707-10.57598-56.12849-28.66797-80.40625s-46.55785-43.454926-87.44141-54.496096c-16.61693-4.483392-29.44728 14.672344-18.97656 28.332036l35.84375 46.73046c6.39327 15.55267 21.17504 55.22897-3.44141 56.08789-6.87171.17956-18.48685-2.4369-34.11425-10.86132 1.01649-6.03528 1.80761-12.24035 1.80761-18.62696 0-38.50104-26.20131-71.86523-61.46584-71.86523-35.26629.001-61.4678 33.36603-61.4678 71.86523 0 6.19854.75342 12.22185 1.57519 18.12696-15.9555 8.70377-27.77422 11.48788-34.80761 11.3789-26.19858-2.45304-7.31962-48.98694-3.73438-56.11328l35.83594-46.72265c8.32947-10.866121 1.9608-26.68471-15.27437-28.540044-44.40597 11.200545-72.819896 30.399554-90.909173 54.678714z" fill="#994100" stroke-linejoin="round"/><path d="m213.35325 394.14748c-28.38033 19.55815-50.36039 53.21756-50.36039 53.21756l22.25443 32.76009-34.90593 19.87487h69.41385c-34.2327-34.24117-9.9586-72.74694 30.59138-72.74694 41.10465 0 62.61812 40.74222 30.61763 72.74694h68.69914l-34.19037-19.87487 22.25698-32.76009s-22.33573-34.21153-51.04802-53.69348c9.52442-76.76396 71.44159-76.80916 111.00428-115.89934 15.76836-16.12226 34.0503-37.46486 31.50327-59.87203-5.93909-52.24829-26.99891-99.0559-102.91786-119.558863l36.94338 48.164593c31.24767 58.49834 7.2852 108.04325-61.20816 70.62988-10.06023 20.74032-28.97226 35.03634-51.39183 35.03634-22.61264 0-41.63645-14.53736-51.63062-35.56645-69.24788 38.4287-93.5838-11.32368-62.18794-70.09977l36.94126-48.163323c-75.520652 20.394243-96.803938 67.344623-102.774114 119.557593-2.559198 22.38181 15.613345 43.75163 31.349534 59.87203 47.35914 31.22846 106.09577 61.31444 111.0401 116.37526zm37.26517-265.38668c-23.19271 0-43.46728 23.33498-43.46728 53.86623 0 30.53295 20.27457 53.34544 43.46728 53.34544 23.19187 0 43.46474-22.81333 43.46474-53.34459 0-30.53464-20.27287-53.86623-43.46558-53.86623z" fill="#ffa348" stroke-linejoin="round" stroke-width="36"/><g transform="translate(0 15.451973)"><g fill="#994100"><path d="m457.04796 77.836619 1.3558.246419-1.36144-.218203z"/><path d="m42.952315 77.836619.0057.02633-1.361451.218203z"/><path d="m249.99826 41.220072c-52.88814 0-105.7793 4.116184-162.362504 12.251288l-.142914.02258-48.846775 7.832698-.176764.03197-34.0475712 6.164206 9.6956412 52.127706 33.537967-6.0758 47.868937-7.68222c.612197-.0683 104.900083-11.707959 154.473983-11.707662 49.57393.000296 153.86366 11.641182 154.47585 11.709542l47.87082 7.68221 33.53797 6.07393 9.69564-52.127706-34.22245-6.196183-48.84866-7.836461-.1448-.02069c-56.58441-8.132129-109.47438-12.249408-162.36437-12.249408z"/></g><path d="m250 59.222656c-46.37755 0-92.79387 3.239161-141.95703 9.642578l2.83008 16.048828.21093 1.19336c32.08574-3.355482 99.84357-9.926015 138.91602-9.925781 39.04355.000233 106.79942 6.56551 138.91406 9.923828l.21094-1.195313 2.83203-16.046875c-49.16402-6.401501-95.57777-9.640625-141.95703-9.640625z" fill="#ffa348"/><path d="m95.907891.00435285-17.725197 3.12630775-34.474435 6.0833205 2.62512 14.8941659-31.642466 5.579198 9.259375 52.513314 2.950438 16.752645 9.795305 55.562496 31.640585-5.58108 2.627 14.89792 52.197754-9.20962-12.2888-69.709884-2.95231-16.747002z" fill="#994100"/><path d="m81.308933 20.860595-16.751677 2.955916 8.811423 49.99213 2.953167 16.751446 9.239628 52.416313 16.751676-2.95592-9.163945-51.980593-2.953167-16.747745zm-29.016438 20.477259-16.751678 2.954073 6.13331 34.782358 2.951272 16.753277 6.66856 37.832438 16.751714-2.95408-6.651953-37.745652-2.956845-16.74959z" fill="#ffa348"/><path d="m404.0905.00059099-3.12344 17.73079101-8.88705 50.430989-2.9542 16.747002-12.28879 69.709887 52.19964 9.20963 2.62511-14.89793 31.64246 5.58108 9.79343-55.562499 2.95233-16.752644 9.25936-52.511432-31.64433-5.58108 2.62511-14.894166z" fill="#994100"/><path d="m418.69045 20.856899 16.75168 2.955918-8.81143 49.992131-2.95314 16.751443-9.23964 52.416319-16.75169-2.95592 9.16396-51.980596 2.95314-16.747747zm29.01644 20.477259 16.75169 2.954072-6.13331 34.782359-2.95129 16.753277-6.66857 37.832444-16.75168-2.95408 6.65195-37.745658 2.95683-16.74959z" fill="#ffa348"/></g></svg>