<svg height="500" viewBox="0 0 500 500" width="500" xmlns="http://www.w3.org/2000/svg" xmlns:xlink="http://www.w3.org/1999/xlink"><radialGradient id="a" cx="1362.7291" cy="216.11429" gradientTransform="matrix(1.0000001 -.0000059 .0000001 1.0000003 -112.72927 33.893757)" gradientUnits="userSpaceOnUse" r="250"><stop offset="0" stop-color="#ff851a"/><stop offset=".42441937" stop-color="#f87000"/><stop offset=".86367416" stop-color="#f26900"/><stop offset="1" stop-color="#e55f00"/></radialGradient><filter id="b" color-interpolation-filters="sRGB" height="1.077941" width="1.069971" x="-.034986" y="-.038971"><feGaussianBlur stdDeviation="6.7341563"/></filter><g transform="translate(-1000)"><path d="m1500 250a250 250 0 0 1 -250 250 250 250 0 0 1 -250-250 250 250 0 0 1 250-250 250 250 0 0 1 250 250z" fill="url(#a)" stroke-linecap="round" stroke-linejoin="round" stroke-width="1.002"/><path d="m1309.2298 33.82789c128.5196 30.706851 207.8974 167.48127 169.5927 291.56949-31.3771 95.69524-112.8693 162.03793-212.5543 174.60263 153.1796-8.09118 266.0956-163.0043 218.7012-309.92978-36.4562-114.666588-154.6038-191.5214848-270.6514-169.822657-18.8526 4.215647-38.4387 10.498641-55.8829 18.694487-112.5353 47.459213-168.47522 196.206-99.9632 307.85319 57.6978 93.63045 168.5136 141.8489 267.9993 100.77239-134.92 68.97589-303.283-51.46877-311.488-201.30723-4.4167-117.68321 76.8182-219.674136 190.654-246.26040176-89.0147 9.18391126-152.6601 79.39239576-187.7408 157.21169176-38.45522 102.70317 5.2337 231.75078 109.038 294.08388 114.5107 66.1048 260.3537 29.37245 323.6836-83.60152 42.2104-77.69758 34.3514-177.62383-23.1776-249.88923-57.5404-72.257811-157.5429-102.460489-246.4118-71.877168-81.7429 30.682061-131.1298 101.133078-134.0478 190.176958.6692 92.68536 61.7912 168.55972 147.5399 198.52472 128.5549 37.82014 266.7725-70.33038 233.6823-209.88949-14.7104-64.39775-57.8855-122.14991-125.7378-141.121386-71.391-15.467036-138.9716 1.205-181.2869 64.641366-18.8995 29.2286-28.9384 85.21395-26.105 97.65297m0 0c13.5324-50.18833 30.6277-97.66354 72.2125-128.94941 53.182-38.308183 124.4576-37.093813 181.7444-.48035 50.1457 36.48017 75.4845 90.37713 72.3557 150.91678-6.6674 64.04407-38.4038 109.83277-91.6401 141.00844-63.9019 34.56125-135.3795 4.83213-189.1258-35.28385-78.8706-65.48566-79.7477-186.67235-8.9744-256.76104 63.7369-55.941605 167.0207-64.891564 238.7167-6.65053 78.8163 58.35315 90.3045 169.04089 40.972 246.62443-35.2274 56.41892-88.4571 87.60135-152.5581 93.63158-81.9488 2.18264-160.666-41.91503-196.8695-120.9383-36.2055-79.02511-22.5771-164.33167 26.8727-227.66064 49.4316-63.30896 138.3491-86.746364 220.4504-67.54202" fill="#c50"/></g><path d="m369.75531 43.340445c-41.40051 48.009953-78.11357 98.295925-110.8472 150.518155-2.12829-42.24939-7.5557-84.70776-16.69921-127.403469-9.23777 35.257739-15.29778 70.352099-18.5726 105.302649-28.42095-44.22859-59.29748-87.314345-92.91641-129.119059 17.48718 50.139068 38.0079 98.227339 61.16562 144.529809-23.4523-14.83172-52.31505-24.59279-83.49856-28.66562 15.07975 19.55323 33.91376 38.29051 55.52109 52.23192-47.47447-9.92788-95.74241-17.67816-144.88767-23.01247 38.04268 18.36787 76.52311 34.45614 115.39799 48.51415-23.61979 2.8633-47.30676 6.78761-71.06811 11.87664 39.28292 10.2926 78.36376 16.64724 117.27045 19.58715-21.81567 16.63603-42.29789 35.3813-61.6501 55.92213 28.78115-7.90885 56.54802-17.78923 83.18284-29.87684-27.21854 52.99368-51.05008 107.63154-72.11242 163.61569 34.05811-43.21818 66.15076-87.81377 96.01203-133.97227 3.59419 30.04376 8.90353 59.99839 15.7289 89.87656 7.31323-36.69868 12.5495-73.52994 15.47134-110.508 34.02049 53.7748 71.63174 105.1217 112.16117 154.49236-24.02277-60.18586-51.06335-118.96394-81.6007-176.11316 63.57817 14.53221 128.02144 24.57081 193.16587 30.97471-44.09371-18.9336-88.81552-36.14217-134.23081-51.44449 21.17832-3.24211 42.31573-7.30923 63.41212-12.12785-35.93945-7.16369-72.00449-12.34174-108.21102-15.29817 15.98866-12.61063 31.37139-26.40552 46.08856-41.49396-18.31442 3.57518-35.89069 8.32052-52.80333 14.11655 27.73954-52.144 52.69408-106.237154 74.51893-162.522409z" fill="#ffa348" filter="url(#b)" opacity=".75" transform="matrix(-1 0 0 -1 500 499.99996)"/><path d="m255.22656 189.71289 12.19727-35.92578 10.67773-2.84375-19.55468 39.98633 53.46484 10.3125 30.87109-63.12696 10.6543-1.43554 7.26953 19.53711-34.83398 47.81836 65.08789-.0996 12.28906-16.86914 31.5957 1.25781 52.60547-72.21289-31.0459-2.0127-42.61817-30.740232-6.93554-16.375976 6.49805-13.28125-30.93164 3.361318-47.30176-22.913086-16.39551-26.3486328-28.17969 57.6347658-44.0459-13.805664-19.6162-24.059571-28.66407 84.408208 19.3125 24.96484-12.15234 35.79687z" fill="#994100"/><path d="m38.966797 447.53906c9.45428 17.19748 21.925197 32.5853 38.368492 42.05789 13.917259 8.0174 29.976961 10.637 47.084631 10.23508 42.42532-36.44739 81.15725-71.89492 118.65026-110.96779 33.83213-35.25774 64.91673-73.09979 95.63099-111.10447 16.90421-20.91664 32.66228-42.73569 48.74414-64.29102 7.20904-9.66265 21.40235-29.1543 21.40235-29.1543s-24.13682 1.33605-36.16407.50586c-43.86873-3.02807-88.19917-7.59954-130.40193-19.95112-12.00077-3.51229-23.22553-9.23188-34.28859-15.21463 0 0-4.60088 11.76297-7.2333 17.49974-11.89254 25.91714-25.12584 51.21232-38.62499 76.33012-24.20796 45.0436-49.06951 89.78755-75.937504 133.29688-14.89954 24.12793-31.486986 47.17184-47.230479 70.75776z" fill="#994100"/><path d="m60.121094 43.361328c-19.328323-1.529566-39.582302 10.404771-43.602631 30.193471-7.690234 35.256691-2.962588 71.784211-.730417 107.400711 7.708218 78.04913 18.658033 156.18078 39.649573 231.87311 3.746424 13.16316 6.975197 25.84434 16.989606 35.67712 12.730211 12.59484 38.642345 4.84651 39.136865-14.08811 1.48379-23.35913-9.61844-45.20531-13.588097-67.88988-17.58307-79.39386-29.739262-160.25732-32.852946-241.57467.954226-7.61725-3.83756-32.177812 7.651294-17.09789 36.236629 36.82882 60.655829 84.96613 103.194259 115.50777 14.02919 9.81276 34.10899 15.27801 50.05312 7.14679 11.99964-8.05159 13.17819-28.76553 1.57618-38.00977-8.13883-9.2887-22.70561-9.6281-30.98656-19.63106-38.15938-36.07756-62.2429-85.267833-104.419541-117.308148-9.449902-6.822438-20.463833-11.151717-32.070705-12.199444z" fill="#994100"/><g fill="#ffa348" stroke-width="36"><path d="m225.74449 87.176666 8.56419 19.298704-12.56817-7.505054-3.2728 9.640194 19.31267 24.9646-9.58266 28.22413c5.21033 1.87855 10.43356 3.66272 15.67981 5.35159l30.00041-88.360598-15.70375-5.280111-5.61736 16.543185-19.31131-24.96377zm61.78178 3.04234-14.7755 43.522884 11.27892-3.00385 14.77505-43.52197z"/><path d="m358.82994 64.528221-14.9035-7.216396-7.6783 15.700129-15.97541-27.197845-2.79947 5.726848 6.06399 12.071312-8.82939-6.419156-7.65251 15.647896 5.48844 12.010832-9.19958-4.420558-3.2728 6.689485 15.97725 27.200552-31.19386 63.78468c5.60074 1.18729 11.22749 2.24963 16.87603 3.18622zm12.08563 13.061406-11.0745 22.643453 16.85761-12.372803 5.78681-11.828475zm-12.74129 26.050503-7.46189 15.25753 11.56993-1.55783 8.24141-16.84559z"/><path d="m414.39118 169.49215 11.6657.4646 5.91389-8.11627-5.59895-3.29709 8.72534-.9961 10.06153-13.81149-8.95142-4.19055zm17.47092-52.13765-13.41905-9.68235-10.29911 14.13681-10.99253-29.545534-8.11019 11.133874 2.08303 26.18428-8.89016-16.83825-12.17863 16.71454 10.99345 29.5437-20.01807 27.47912c6.75465.0861 13.62901.0147 20.64243-.22909zm5.20113 21.0178 11.75963.33539 4.32997-5.94448-11.66708-.46231z"/><path d="m216.8976 175.12781c-1.56733 3.17246-3.12454 6.27712-4.68727 9.42484 5.07036 1.65405 10.06337 4.61483 14.39334 9.02989 6.56034 6.68674 10.07718 18.84602 3.87874 30.00555-3.05179 5.4927-8.70783 7.91741-13.50745 8.77147-9.48752 1.22241-18.09949-.2483-27.32709-2.94611-1.3187 2.58232-2.63648 5.16831-3.95978 7.73689 46.81749 24.81524 100.86665 20.84737 154.19016 9.75015 11.06713-14.41905 22.05229-29.09193 33.0568-44.08279-58.01078.80916-107.86257-9.70433-156.03837-27.68988zm-115.46466 211.24018c2.6816 10.06538 6.11924 21.21208 7.8993 31.52763 2.30168 13.4609-1.46046 28.96568-12.452129 33.79015-9.814155 4.30763-23.008003-1.60823-29.732884-12.23993-2.454604 2.64464-4.610382 5.7832-6.810242 8.93276 13.315111 22.66452 36.656643 34.09163 57.342335 33.60595 83.54217-70.20477 147.10677-139.39237 206.87551-215.35559-49.14917 8.49015-100.38043 9.54214-146.46181-14.81721-23.87253 45.74554-48.6055 89.96945-76.66008 134.55624z"/><path d="m57.240197 61.369917c-14.42239-1.143387-25.011541 11.35954-25.062453 25.214837-4.527123 43.521356.991237 87.323376 5.451712 130.644616 8.544516 67.72161 18.407907 135.8826 38.392987 201.2298 3.580139 13.83629 21.115032 27.71646 17.528202 6.14894-4.836781-25.80114-13.49637-50.78045-18.118029-76.67272-15.039065-75.08226-26.301232-151.2454-28.382806-227.88163 1.578374-13.41868-3.183087-32.178749 6.991786-41.916174 14.841764-1.518078 25.73799 11.836151 35.550782 21.1724 32.227612 34.039624 55.398702 76.425254 92.188592 106.105494 8.35826 6.86741 32.21699 19.29215 35.91137 3.95848 1.68558-8.46934-21.99803-10.52775-30.41578-20.72274-38.69093-34.49674-62.3306-82.80497-102.286708-116.024968-7.992332-6.101091-17.40723-11.331769-27.749655-11.256335z"/></g></svg>