<svg height="500" viewBox="0 0 500 500" width="500" xmlns="http://www.w3.org/2000/svg" xmlns:xlink="http://www.w3.org/1999/xlink"><radialGradient id="a" cx="1362.7291" cy="216.11429" gradientTransform="matrix(1.0000001 -.0000059 .0000001 1.0000003 -112.72927 33.893757)" gradientUnits="userSpaceOnUse" r="250"><stop offset="0" stop-color="#ff851a"/><stop offset=".42441937" stop-color="#f87000"/><stop offset=".86367416" stop-color="#f26900"/><stop offset="1" stop-color="#e55f00"/></radialGradient><g transform="translate(-1000)"><path d="m1500 250a250 250 0 0 1 -250 250 250 250 0 0 1 -250-250 250 250 0 0 1 250-250 250 250 0 0 1 250 250z" fill="url(#a)" stroke-linecap="round" stroke-linejoin="round" stroke-width="1.002"/><path d="m1309.2298 33.82789c128.5196 30.706851 207.8974 167.48127 169.5927 291.56949-31.3771 95.69524-112.8693 162.03793-212.5543 174.60263 153.1796-8.09118 266.0956-163.0043 218.7012-309.92978-36.4562-114.666588-154.6038-191.5214848-270.6514-169.822657-18.8526 4.215647-38.4387 10.498641-55.8829 18.694487-112.5353 47.459213-168.47522 196.206-99.9632 307.85319 57.6978 93.63045 168.5136 141.8489 267.9993 100.77239-134.92 68.97589-303.283-51.46877-311.488-201.30723-4.4167-117.68321 76.8182-219.674136 190.654-246.26040176-89.0147 9.18391126-152.6601 79.39239576-187.7408 157.21169176-38.45522 102.70317 5.2337 231.75078 109.038 294.08388 114.5107 66.1048 260.3537 29.37245 323.6836-83.60152 42.2104-77.69758 34.3514-177.62383-23.1776-249.88923-57.5404-72.257811-157.5429-102.460489-246.4118-71.877168-81.7429 30.682061-131.1298 101.133078-134.0478 190.176958.6692 92.68536 61.7912 168.55972 147.5399 198.52472 128.5549 37.82014 266.7725-70.33038 233.6823-209.88949-14.7104-64.39775-57.8855-122.14991-125.7378-141.121386-71.391-15.467036-138.9716 1.205-181.2869 64.641366-18.8995 29.2286-28.9384 85.21395-26.105 97.65297m0 0c13.5324-50.18833 30.6277-97.66354 72.2125-128.94941 53.182-38.308183 124.4576-37.093813 181.7444-.48035 50.1457 36.48017 75.4845 90.37713 72.3557 150.91678-6.6674 64.04407-38.4038 109.83277-91.6401 141.00844-63.9019 34.56125-135.3795 4.83213-189.1258-35.28385-78.8706-65.48566-79.7477-186.67235-8.9744-256.76104 63.7369-55.941605 167.0207-64.891564 238.7167-6.65053 78.8163 58.35315 90.3045 169.04089 40.972 246.62443-35.2274 56.41892-88.4571 87.60135-152.5581 93.63158-81.9488 2.18264-160.666-41.91503-196.8695-120.9383-36.2055-79.02511-22.5771-164.33167 26.8727-227.66064 49.4316-63.30896 138.3491-86.746364 220.4504-67.54202" fill="#c50"/></g><g stroke-width="1.25796" transform="matrix(.79493807 0 0 .79493807 118.51659 41.269842)"><path d="m212.86794 104.53276c-2.69598.009-5.43553.43825-7.86914 1.35743-4.86724 1.83834-8.09106 4.88884-10.22852 7.49218-4.27491 5.20669-5.61281 9.4489-7.00586 13.10743-1.25116 3.28587-2.16721 5.80307-2.84961 7.40234-7.1936 3.54604-14.0582 7.12596-18.69336 9.50391-37.40581 10.57461-56.32895 17.43927-84.33594 22.37109l-106.70312.26172-16.02539 127.08398 100.4043-51.19531c43.65655-8.19159 78.021-16.93028 129.12304-36.85547l-3.54883-2.09375-.32226-.19336c1.35384.83692 2.73232 1.49107 4.10351 2.20117 1.41192-.55093 2.53787-.90411 3.97657-1.47265l-.0703.0293-3.81836 1.49023c7.49496 3.86593 15.2365 5.99161 23.25391 6.6582 8.02247.75172 11.71649-1.21382 16.46094-3.91211 4.76975-2.71267 11.3619-7.11562 12.96094-17.78906.99537-6.64407-1.90729-13.76026-4.74024-17.33984-2.29434-2.89903-4.17942-4.32752-5.70898-5.42774.70552-3.07425 1.74379-9.72409 4.02929-17.26367 1.70101-5.61138 3.76062-11.52938 3.33789-19.92383-.21136-4.19723-1.30581-9.39817-4.57031-14.21289-3.26449-4.81472-8.54833-8.41684-13.55664-10.11133-2.25624-.76337-4.90753-1.17659-7.60351-1.16797zm-28.2168 30.04883c-.0126.0276-.0463.1239-.0586.15039-.38622.83158-.64496.60469.0586-.15039z" fill="#994100"/><path d="m53.5786 224.76353c45.8-8.5 78.8-16.7 132.7-38l4.1-1.6 3.9 2.3c5.5 3.4 13.4 5.8 19.6 6.3 3.1.3 9.41231-2.52722 10-6.45.80732-5.38883-8.73486-7.35511-10.53757-12.49723-5.74368-16.38349 17.80719-46.50152 1.36183-52.06556-9.97818-3.37597-10.82426 21.89279-18.52426 25.60279-8.7 4.14-17.4 8.86-23.3 11.85-39 10.96-58.4 18.26-89.2 23.56l-92.61925.22615-9.7898 77.64375z" fill="#ffa348"/><path d="m-21.43089 164.91558c-16.41779 1.05089-30.6799 9.40899-41.52735 17.32422-21.00239 15.32515-34.66102 38.12161-41.93164 61.21875-9.62349 30.57172-2.01556 60.28199-3.1582 82.6875-3.92776 77.01733-9.45156 132.71489-16.67773 231.60547l-1.41016 19.3125h19.36328 55.26758l2.97656-14.34375c9.36214-45.11298 15.69998-97.4602 26.70899-142.48829 4.80071 10.97736 9.68217 23.30036 13.74023 36.74219 10.2216 33.85784 17.30045 73.03638 16.49609 101.58203l-.52148 18.50782h77.44336l-1.375-19.2793c-6.25754-87.80416-6.91353-161.18463-60.19531-237.98242l-.004-.006-.006-.006c-6.35719-9.14657-6.73912-18.33623-3.79687-30.34375l.0156-.0664.0176-.0684c.70958-2.99601 1.75856-6.45934 3.00195-10.28515l-.21484.62304s4.34851-11.83763 7.79687-26.53515c3.44837-14.69753 7.55146-31.70907 1.79688-49.57813-5.32066-16.52163-17.21869-31.79599-36.7168-36.94922-5.90473-1.56058-11.61725-2.02217-17.08984-1.67187z" fill="#994100"/><path d="m-106.77319 559.06353h40.62001c11.93145-57.49362 18.67095-129.76027 39.28748-184.57562 23.22466 23.59785 55.06774 120.9671 53.27538 184.57562h39.6c-6.3-88.4-6.73108-156.5-57.03108-229-9.8-14.1-10.2-29.8-6.5-44.9.9-3.8 2.1-7.7 3.4-11.7 0 0 16.01423-43.75754 9.36385-64.40821-3.55888-11.05098-12.95858-22.09907-24.18307-25.06563-14.58373-3.85439-31.22291 3.89896-43.40827 12.79045-16.95305 12.3704-29.07112 32.06527-35.37251 52.08339-7.507152 23.84856-1.02177 52.15541-2.35 78.2-3.948952 77.43284-9.488454 133.28518-16.70179 232z" fill="#ffa348"/><path d="m-54.11058 178.62066c-11.07413-.0152-20.21244 6.51294-25.80469 12.66406-6.39113 7.02984-10.63659 14.93332-14.197263 22.59765-7.121347 15.32867-11.013667 30.38868-11.013667 30.38868l-.20118.76172-.13281.77734c-4.95117 28.77284-11.88659 47.5949-22.63086 85.60156-2.82149 5.49958-7.13449 13.4844-11.27148 22.17383-4.26929 8.86495-7.00653 15.9765-8.48047 22.52734l-1.24609 5.53711 2.15625 5.25c5.22797 12.73482 18.43147 21.73318 31.03125 24.14258 12.97944 2.48434 27.50405 1.53083 40.41406-6.41797 7.85101-4.83392 13.89353-11.90684 15.56054-22.84961 1.93833-12.72374-2.60162-21.65055-6.45312-27.97265 20.92736-54.17013 33.00187-108.31518 37.33984-131.66993 1.73441-9.10539 3.4199-15.44129.87305-24.86132-1.27343-4.71002-4.76315-10.28474-9.18945-13.47266-4.42631-3.18792-8.62107-4.17799-11.89453-4.75-1.6563-.28942-3.27736-.42557-4.85938-.42773zm-12.30078 175.26757.0391.0684-1.58008 4.05078-.0293.0723c.55278-1.39882 1.02946-2.79205 1.57031-4.19141z" fill="#994100"/><path d="m-84.92426 389.29603c-7.91794 4.87514-18.19714 5.8675-27.59714 4.0675-8.89-1.7-14.64-5.7-17.76-13.3.72-3.2 3.44-11 7.15-18.7 4.14-8.7 8.86-17.4 11.85-23.3 10.96-39 18.259998-58.4 23.56-89.2 0 0 14.69927-55.69585 35.37251-52.08339 7.45117 1.30203 8.82304 5.20717 5.62749 21.98339-4.25 22.9-16.7 78.8-38 132.7l-1.6 4.1 2.3 3.9c3.4 5.5 7.33351 12.81573 6.3 19.6-.62818 4.12356-3.65099 8.04559-7.20286 10.2325z" fill="#ffa348"/><path d="m1.75075 73.903857c-10.46338.364815-19.49234 4.374118-26.8457 10.638672-12.24111 10.428565-19.79921 24.414271-23.54102 38.728521-3.83439 14.66839-4.5333 31.40682 1.76953 47.39453 4.27075 10.83314 11.59276 23.39423 27.05469 29.16211 14.05844 5.24433 25.25957.27637 32.6543-3.03907 9.58102-4.29567 17.40048-11.13308 23.05468-19.64062 6.26272-9.42312 7.85714-18.98995 8.90625-26.46289 1.78314-12.70155 3.53529-28.19623-1.84375-44.37891-3.14691-9.467391-8.78294-18.366556-17.71875-24.96289-6.63544-4.898214-14.43817-7.75506-23.49023-7.439453z" fill="#994100"/><path d="m26.9786 148.18353c1.67833-11.955 2.7079-24.74405-1.1-36.2-2.0748-6.24198-6.03571-12.251592-11.32777-16.158146-3.43042-2.5323-7.91098-4.080426-12.17223-3.931854-5.67265.197782-11.47928 2.669046-15.8 6.35-8.75972 7.46267-14.88966 18.44654-17.8 29.58-3.05652 11.69267-3.33248 24.9966 1.1 36.24 3.07526 7.80068 8.74385 15.96936 16.6 18.9 5.9892 2.2342 13.16708.0152 19-2.6 6.1716-2.76705 11.68391-7.54644 15.42762-13.17937 3.68039-5.53765 5.14799-12.41607 6.07238-19.00063z" fill="#ffa348"/></g><path d="m438.16797 134.89648 14.7539 7.97071 5.57227-10.41992c15.73698-.29639 26.8228-4.40602 41.50586-9.08985-3.37639-13.61604-8.02076-28.689993-15.95117-38.699217l6.26562-11.714844-108.19336-58.449218-3.08984 5.777343-37.52344-20.271484-3.19922 22.794922c-2.60936 18.599301 2.61381 36.297298 12.88282 49.539062l-6.46289 12.083985 15.62695 8.441406c-3.94784 2.160228-8.13978 4.491799-13.62598 5.985079l-15.10449-8.096407-21.67188 40.527343 122.95313 66.42383 21.69922-40.57617-13.64649-7.37234c-1.58736-5.41045-2.38068-10.5171-2.79101-14.85423z" fill="#994100"/><path d="m388.65383 36.208436-22.30295 41.704388 80.03869 43.239326 22.30296-41.704388zm-34.49995-11.1907c-2.23654 15.941818 3.13131 30.946785 12.49249 40.877958l14.16068-26.479111zm114.51385 66.342367-13.38283 25.024607c7.39701.6916 15.86611-.61743 25.22977-3.60531-2.63788-9.63337-6.66356-16.396194-11.84767-21.418606zm-83.53592 3.065454c-9.22921 9.033933-20.31252 15.039073-32.18336 19.165693l72.41261 39.11868c-3.68146-12.54519-4.66131-25.09413-2.1058-37.68902l-38.12314-20.595266zm-46.94832 17.987393-6.60862 12.35749 94.80008 51.21386 6.60862-12.35748-94.7998-51.21372z" fill="#ffa348" stroke-width="32"/></svg>