<svg height="500" viewBox="0 0 500 500" width="500" xmlns="http://www.w3.org/2000/svg" xmlns:xlink="http://www.w3.org/1999/xlink"><radialGradient id="a" cx="1362.7291" cy="216.11429" gradientTransform="matrix(1.0000001 -.0000059 .0000001 1.0000003 -112.72927 33.893757)" gradientUnits="userSpaceOnUse" r="250"><stop offset="0" stop-color="#ff851a"/><stop offset=".42441937" stop-color="#f87000"/><stop offset=".86367416" stop-color="#f26900"/><stop offset="1" stop-color="#e55f00"/></radialGradient><g transform="translate(-1000)"><path d="m1500 250a250 250 0 0 1 -250 250 250 250 0 0 1 -250-250 250 250 0 0 1 250-250 250 250 0 0 1 250 250z" fill="url(#a)" stroke-linecap="round" stroke-linejoin="round" stroke-width="1.002"/><path d="m1309.2298 33.82789c128.5196 30.706851 207.8974 167.48127 169.5927 291.56949-31.3771 95.69524-112.8693 162.03793-212.5543 174.60263 153.1796-8.09118 266.0956-163.0043 218.7012-309.92978-36.4562-114.666588-154.6038-191.5214848-270.6514-169.822657-18.8526 4.215647-38.4387 10.498641-55.8829 18.694487-112.5353 47.459213-168.47522 196.206-99.9632 307.85319 57.6978 93.63045 168.5136 141.8489 267.9993 100.77239-134.92 68.97589-303.283-51.46877-311.488-201.30723-4.4167-117.68321 76.8182-219.674136 190.654-246.26040176-89.0147 9.18391126-152.6601 79.39239576-187.7408 157.21169176-38.45522 102.70317 5.2337 231.75078 109.038 294.08388 114.5107 66.1048 260.3537 29.37245 323.6836-83.60152 42.2104-77.69758 34.3514-177.62383-23.1776-249.88923-57.5404-72.257811-157.5429-102.460489-246.4118-71.877168-81.7429 30.682061-131.1298 101.133078-134.0478 190.176958.6692 92.68536 61.7912 168.55972 147.5399 198.52472 128.5549 37.82014 266.7725-70.33038 233.6823-209.88949-14.7104-64.39775-57.8855-122.14991-125.7378-141.121386-71.391-15.467036-138.9716 1.205-181.2869 64.641366-18.8995 29.2286-28.9384 85.21395-26.105 97.65297m0 0c13.5324-50.18833 30.6277-97.66354 72.2125-128.94941 53.182-38.308183 124.4576-37.093813 181.7444-.48035 50.1457 36.48017 75.4845 90.37713 72.3557 150.91678-6.6674 64.04407-38.4038 109.83277-91.6401 141.00844-63.9019 34.56125-135.3795 4.83213-189.1258-35.28385-78.8706-65.48566-79.7477-186.67235-8.9744-256.76104 63.7369-55.941605 167.0207-64.891564 238.7167-6.65053 78.8163 58.35315 90.3045 169.04089 40.972 246.62443-35.2274 56.41892-88.4571 87.60135-152.5581 93.63158-81.9488 2.18264-160.666-41.91503-196.8695-120.9383-36.2055-79.02511-22.5771-164.33167 26.8727-227.66064 49.4316-63.30896 138.3491-86.746364 220.4504-67.54202" fill="#c50"/></g><path d="m353.98828 8.34375c-13.22353.7889434-25.9684 6.84251-36.24219 15.996094h-.002c-13.86294 12.352216-24.19138 30.337932-28.86523 51.634765-3.70555 16.884662-3.25141 33.344751.75195 47.949221-31.65084-.89298-52.09194-.75344-82.67773-.7168l7.29882 23.3418c7.96539 25.47684 10.63709 57.53373 9.99414 83.375-.0664 16.19268-2.68751 31.36771-5.2207 47.1582l21.37891 4.75391-14.84766 67.65429-17.16601-3.8164-49.01368 40.91211 238.59961 53.05078-27.33007-57.88672c-5.74267-1.27745-11.4856-2.55373-17.22852-3.83008l14.84961-67.6543 21.375 4.75196c4.68218-16.82448 8.53589-30.0062 14.90039-44.79297 10.22709-23.76377 26.12044-51.84447 44.0625-71.63477l16.36133-18.04492c-25.08332-11.705-51.98483-24.50896-75.28706-34.40039 9.77304-11.56984 17.08719-26.33092 20.79687-43.23437 4.67397-21.297339 2.82977-41.971699-4.55859-59.019535h-.002c-7.30262-16.846463-20.85889-30.553094-38.61909-34.5019531-4.43997-.9871972-8.90075-1.307903-13.3086-1.0449219z" fill="#994100"/><path d="m247.32617 290.4375c-16.02773.19478-28.62986 7.47193-39.57226 14.5918-27.60772 17.95803-58.37261 39.36646-85.01758 61.00976-20.85288 16.93848-39.106064 33.4373-51.818361 50.34571-2.494093-.31481-4.981898-.35827-7.453125-.26758a250 250 0 0 0 186.535156 83.88281 250 250 0 0 0 29.2207-2.08984c-4.29659.75527-8.58393 1.53913-12.95312 2.08984 54.74474-2.8917 104.28822-24.60237 143.26758-57.93359a250 250 0 0 0 11.90429-10.85352c1.9229-1.87123 3.8268-3.75716 5.6875-5.6875a250 250 0 0 0 2.71485-3.10547c-2.79186-.24861-5.57974-.36135-8.36914-.1914-11.85357-19.02556-30.31747-37.54054-51.52735-56.24805-26.51265-23.38468-57.24928-45.89444-84.19531-62.9707-13.04911-8.26952-25.80592-12.6527-38.20508-12.55469-.0725.00057-.14632-.01848-.21875-.01758z" fill="#994100"/><path d="m258.70898 282.39648-5.79492 26.40625c-1.83337-.25022-3.62602-.38837-5.36914-.36718-10.60493.12888-19.75931 5.03294-29.97461 11.67968-51.59039 33.55797-114.269 79.38008-136.689451 113.41797a250 250 0 0 0 169.119141 66.4668 250 250 0 0 0 29.2207-2.08984c-4.29659.75527-8.58393 1.53913-12.95312 2.08984 54.74474-2.8917 104.28822-24.60237 143.26758-57.93359a250 250 0 0 0 1.61718-1.47461c-11.07068-22.64053-40.21272-51.41811-72.85742-77.73242l13.13477-59.84571zm8.9375 26.87305 64.43164 14.32617-6.4375 29.33594c-4.23118-3.24628-8.48686-6.43229-12.73828-9.54687l1.90821-8.69727-20.78907-4.62305c-6.09329-4.16339-12.11706-8.18282-17.90625-11.85156-3.27451-2.07513-6.35617-3.73963-9.30859-5.11328z" fill="#ffa348"/><path d="m231.43164 141.17773c8.86748 28.36216 11.48922 61.83767 10.8086 89.19336 18.3125 9.39539 53.09008 19.95151 74.93359 7.18555 13.19624 20.6016 46.08295 22.74413 70.83594 25.55274 10.82995-25.16459 27.26948-54.55987 47.25976-76.60938-26.98554-12.6543-46.83474-21.88414-63.72461-28.54688-11.68965 7.7265-25.25866 11.19631-38.70312 8.20704-13.44447-2.98929-24.29767-11.88961-31.66602-23.85352-18.10661-1.11844-39.97376-1.16391-69.74414-1.12891zm90.3457 41.60157 14.14454 3.14453-8.33204 37.96289-14.14453-3.14453zm-8.73721 73.63795c17.79889 13.7298 49.52339 20.30324 69.13555 21.27205-2.15321 5.83458-3.92741 11.25654-5.27097 16.05675l-137.4213-30.55467c.80042-4.99149 1.46877-10.74809 1.95926-17.05356 22.40243 6.82003 50.5183 16.88129 71.59668 10.27926z" fill="#ffa348" stroke-width="36"/><path d="m363.39079 26.960271c11.26005 2.503594 20.3748 11.087393 26.01065 24.088697 5.6349 13.00192 7.40515 30.18129 3.49417 48.002008-3.91099 17.820724-12.70616 32.650934-23.25807 42.053834-10.55253 9.40193-22.41228 13.3222-33.67153 10.81877-11.26005-2.50359-20.3748-11.08738-26.01065-24.08869-5.6349-13.00192-7.40515-30.181294-3.49417-48.002012 3.91098-17.82072 12.70537-32.65111 23.25808-42.053831 10.55252-9.401929 22.41227-13.322195 33.67152-10.818776z" fill="#ffa348" stroke-width="36"/><g fill="#994100"><path d="m381.28268 95.639416-62.8614-13.976798-3.12434 14.236328 24.35878 5.416014-3.99221 18.19086 14.14381 3.14478 3.99222-18.19086 24.35879 5.41601z"/><path d="m161.4375 477.73229c-9.59224.0358-19.17969 3.75083-19.17969 11.05273 0 15.02053 38.35938 14.88594 38.35938 0 0-7.44295-9.58915-11.08781-19.17969-11.05273z"/><path d="m391.18945 476.41002v.002c-9.41567.0358-18.83398 3.68354-18.83398 10.85157 0 14.74558 37.66797 14.61383 37.66797 0 0-7.30765-9.41832-10.88789-18.83399-10.85352z"/><path d="m106.76758 466.50182c-9.592236.0344-19.207026 3.75226-19.207026 11.05273 0 15.02055 38.386716 14.88594 38.386716 0 0-7.44224-9.58914-11.08853-19.17969-11.05273z"/><path d="m310.7832 473.97045c-5.27083.0196-10.56134 1.31955-13.73828 3.87109-9.84435-3.53709-26.1289-.74621-26.1289 8.14453-.002 10.66717 22.1875 12.55587 30.42578 5.88477 9.84436 3.59726 26.15625.80745 26.15625-8.25586 0-6.49015-8.34878-9.6741-16.71289-9.64453z"/><path d="m207.35547 469.00365c-9.59054.0344-19.17969 3.75225-19.17969 11.05274 0 8.94087 13.58704 12.49786 24.5918 10.78515 5.80966 13.39233 43.21289 12.0432 43.21289-3.69336 0-10.8963-17.9175-14.68999-30.87891-11.65625-3.02027-4.37126-10.3796-6.51477-17.74609-6.48828z"/><path d="m361.24024 449.85338v.002c-8.36479.0301-16.73829 3.27579-16.73829 9.64258 0 13.09948 33.47657 12.98134 33.47657 0 0-6.48994-8.37351-9.6746-16.73828-9.64453z"/><path d="m425.06445 444.75377c-10.99285.0401-21.99023 4.3173-21.99023 12.6875 0 17.21511 43.95508 17.05878 43.95508-.002 0-8.52987-10.97112-12.72637-21.96485-12.68555z"/><path d="m246.27149 449.71459c-8.36309.0315-16.73829 3.2797-16.73829 9.64648 0 13.09877 33.47657 12.98134 33.47657 0 0-6.49065-8.37351-9.67655-16.73828-9.64648z"/><path d="m170.5625 439.24791c-5.65093.0215-11.306 1.50262-14.3789 4.42969-11.45296-2.03349-26.20899 1.63001-26.20899 10.80859 0 13.90285 31.99292 15.16117 38.33399 4.09375 9.04387.62436 18.96679-2.61329 18.96679-9.6875 0-6.49137-8.34701-9.67532-16.71094-9.64453z"/><path d="m94.826174 431.79674c-9.0914.0336-18.19036 3.44986-18.80664 10.13672-8.83674-.37949-18.251951 2.84708-18.251951 9.59765 0 12.41712 30.054061 12.95956 33.185551 1.92578 10.513256 1.13847 22.707026-2.46845 22.707026-10.7871 0-7.30622-9.41831-10.90813-18.833986-10.87305z"/><path d="m37.303194 412.84134c-8.364118.0313-16.738281 3.27628-16.738281 9.64258 0 13.10019 33.451177 12.98133 33.451177 0 0-6.48944-8.347678-9.67286-16.710942-9.64258z"/><path d="m462.99908 408.07685c-8.36412.0313-16.73828 3.27751-16.73828 9.64454 0 13.09802 33.45117 12.98131 33.45117 0 0-6.49089-8.34681-9.67482-16.71094-9.64454z"/></g></svg>