<svg height="500" viewBox="0 0 500 500" width="500" xmlns="http://www.w3.org/2000/svg"><g transform="translate(.000015)"><circle cx="-249.99998" cy="250" fill="#e51a1a" r="250" transform="scale(-1 1)"/><path d="m181.33938 83.856939c97.52275-31.84694 203.27597 26.159281 217.12696 131.568651 10.04116 85.89723-45.79566 162.6049-131.11288 174.6444-76.26503 6.65-147.16573-45.4981-149.44603-126.3231.16679-50.89801 30.03241-87.97493 76.60677-108.40662 44.00125-16.48183 90.46555-3.00917 112.28155 39.63622 17.95322 40.0953 3.57775 87.31302-40.4313 103.80676-21.98685 8.23292-51.6578-5.55285-56.72562-31.5612 24.48155 21.7253 69.7211 11.74379 80.1808-21.06198 5.24648-24.88185-11.48198-41.52298-24.36368-55.64156-23.21161-15.22125-63.26956-13.16738-85.32502 12.05139-41.51846 46.43224-18.48961 112.52397 35.72777 131.08081 60.66482 17.11352 118.96473-29.63961 126.96137-92.39988 2.7637-54.83226-40.99398-106.19486-96.51046-114.27807-76.21988-10.3001-138.45939 50.84936-147.743191 124.09106-9.31956 73.21828 47.315731 138.67973 111.863041 158.33924 49.05305 9.49897 98.18701 2.07129 139.64056-27.40671 82.90715-58.95602 100.11901-177.97214 43.55644-260.39974-52.71171-79.885311-158.575-103.987181-249.15842-67.061741-86.705021 39.45169-149.0660905 134.549061-117.102931 229.167621 15.77888-74.65377 50.93986-153.5943 123.407351-187.514491 9.28724-4.60517 19.44718-8.7232 30.56692-12.33106zm-160.722321 286.075591c-52.57825-113.8254-.38403-260.89182 113.777041-317.643861 10.84604-5.32012 22.21219-9.7712 34.03518-13.36069 115.76394-28.75816 246.03978 34.00351 263.68455 158.897471 10.04526 85.91695-27.72044 168.80365-107.97396 206.83173-102.24035 46.26108-224.798841-11.43986-234.690511-131.24969-7.33455-123.78718 127.307171-194.136761 222.718561-137.24102-42.54074-27.89653-94.21826-33.44528-140.80825-12.98978-71.17376 32.62266-105.080851 118.0397-80.762351 190.63139 30.697281 88.13423 123.572931 132.04164 212.817841 105.59803 82.80488-25.06359 132.16266-100.33164 140.19255-180.04986 12.12434-145.020371-132.23823-245.3588802-265.59709-221.973611 7.92036-4.10499 20.5989-8.4277792 35.61563-11.7452592 60.06317-13.23825 124.63426-3.45807 179.45368 32.4903392 109.65077 71.904621 141.09454 217.803071 65.16008 333.599141-143.00482 218.07486-377.311781 117.06797-437.622951-1.79433" fill="#b21a1a"/></g><g opacity=".75"><path d="m185.50391 99.003906c-31.7022.241009-63.58996-.288005-95.037113 3.732424-16.706316 2.13586-33.075399 6.17439-49.433594 10.30664a250 249.99998 0 0 0 -41.033203 136.95703 250 249.99998 0 0 0 .71289062 9.97852c-2.25798542 37.40926 3.86159338 75.22266 19.90429738 109.95312 1.071828 2.11238 2.362689 4.19582 3.542968 6.29492 38.760709 5.90191 77.258734 12.22424 117.142574 15.57032 74.63771 13.48785 148.50674 5.6983 222.48438.47851 33.36628-2.35428 66.38323-8.04245 99.40234-13.62305a250 249.99998 0 0 0 36.81055-128.65234 250 249.99998 0 0 0 -.28125-11.47266c.60623-43.37198-10.66155-85.76634-32.4707-122.7832-23.76109-5.51621-47.41831-11.61086-71.63867-14.06445-40.43672-4.09635-121.92969-.55469-121.92969-.55469s-58.77623-2.344598-88.17578-2.121094z" fill="#861313" opacity="1"/><path d="m185.63281 117.01367c-52.17259.36271-106.023407 6.25439-156.578122 17.29492-8.230385 15.45302-14.814693 31.72787-19.6445318 48.55664 21.8748758-5.66421 52.9622228-7.39777 87.8789058-2.22851-14.996206 16.89018-58.420711 31.02247-94.179687 31.18945-2.0110793 12.62638-3.05058732 25.38843-3.109375 38.17383.17104998 3.3306.40872776 6.65743.71289062 9.97852-.14883913 2.46589-.16268602 4.93588-.23828124 7.40429 8.72238132-2.42548 22.65937362-5.23013 34.20511462-6.24207 43.7378-3.83345 131.714306.74522 131.714306.74522s-76.643819-5.52291-114.360827-12.43381c-10.103128-1.8512-29.824219-7.74707-29.824219-7.74707 14.459688-6.02788 49.342331-11.79254 74.477906-14.73422 54.00002-6.31977 162.98987-6.14664 162.98987-6.14664s-65.26502-3.6654-97.27143-9.79317c-16.94876-3.24491-33.91231-8.58995-49.78228-14.20683 27.94445-21.85062 74.04817-30.5908 127.69521-28.27264 53.64705 2.31815 114.83742 15.69463 172.95518 38.07733 0 0-27.96978 5.68327-42.11328 7.48437-28.68283 3.65261-86.4834 6.71094-86.4834 6.71094s70.05775 3.6342 104.92351 7.31358c32.13737 3.39146 72.36544 8.89163 95.98957 13.59462-31.92734 7.32714-67.06105 13.75085-101.07709 16.86067-64.11488 5.86152-193.11872 3.29287-193.11872 3.29287s74.83321 3.38256 111.62989 9.80685c9.25096 1.61511 18.89759 4.5022 27.23975 7.19-50.41077 31.3767-259.217932 44.52145-329.30468562 13.26758 1.58897772 22.22722 6.23581692 44.24333 14.39648462 65.31445 42.729067 7.30423 85.443251 12.90041 128.125001 16.46094 72.63535 13.27548 146.19794 10.74531 218.23633.46875 37.50426-3.10654 75.00921-8.01038 112.50976-14.64062 5.94053-12.11199 10.89094-24.68494 14.80274-37.59571-43.38176 2.93765-113.09426 2.23454-163.83399-10.07422 42.95554-26.52386 116.23806-41.89452 173.31641-42.96093.74053-6.35297 1.23699-12.73201 1.48828-19.12305-.006-3.82587-.0997-7.6511-.28125-11.47266.49355-35.31014-6.89533-69.96903-21.40625-101.61718-2.87065-.4381-5.74173-.92702-8.61328-1.34961-63.66938-15.03434-132.60534-20.84933-195.66406-16.4336-10.53892-.19975-21.08232-.27632-31.61914-.24804-18.53155-1.38301-37.54218-1.99901-56.78321-1.86524zm8.22852 16.54492c8.11037.0307 16.16548.20116 24.14258.51172-59.4496 26.0887-135.662935 33.43205-194.974613 18.75391 54.568373-12.87896 114.059433-19.48081 170.832033-19.26563zm118.61914.6543c47.82922-.24763 99.95264-2.10765 145.27344 15.73828 7.15015 2.81551 12.35883 8.7885 18.45898 13.81055-73.12282 18.25157-146.15797 9.07563-219.28711-23.42188 2.91321-1.38764 5.61215-3.22859 8.7168-3.97851 15.19213-3.66963 30.89482-2.0659 46.83789-2.14844zm-79.04883 188.64453c50.8785.40068 102.68181 10.12956 147.07031 28.7793-3.25273 1.61304-6.51456 3.17231-9.80468 4.66601-74.83578 11.61383-150.48481 14.96331-224.38672 1.24415-9.1976-5.32257-17.89375-11.47216-25.99219-18.50586 34.52785-11.16439 73.54112-16.49524 113.11328-16.1836z" fill="#ff8066" stroke-width="36"/></g></svg>