<svg height="500" viewBox="0 0 500 500" width="500" xmlns="http://www.w3.org/2000/svg" xmlns:xlink="http://www.w3.org/1999/xlink"><filter id="a" color-interpolation-filters="sRGB" height="1.054054" width="1.053946" x="-.026973" y="-.027027"><feGaussianBlur stdDeviation="5.619364"/></filter><clipPath id="b"><path d="m.71290588 259.97852c-2.25798768 37.4093 3.86157792 75.22262 19.90429712 109.95312 34.751188 68.48825 127.287707 130.87947 226.822267 129.88477.8532.0656 1.70672.12678 2.56055.18359 2.93641-.15787 5.86981-.36754 8.79883-.62891 2.52516-.14858 5.04927-.30989 7.58008-.54297 131.18615-8.61282 233.28727-117.35998 233.62109-248.82812l-.00002-250h-249.64353-250.35647z"/></clipPath><g transform="translate(.000015)"><circle cx="-249.99998" cy="250" fill="#e51a1a" r="250" transform="scale(-1 1)"/><path d="m181.33938 83.856939c97.52275-31.84694 203.27597 26.159281 217.12696 131.568651 10.04116 85.89723-45.79566 162.6049-131.11288 174.6444-76.26503 6.65-147.16573-45.4981-149.44603-126.3231.16679-50.89801 30.03241-87.97493 76.60677-108.40662 44.00125-16.48183 90.46555-3.00917 112.28155 39.63622 17.95322 40.0953 3.57775 87.31302-40.4313 103.80676-21.98685 8.23292-51.6578-5.55285-56.72562-31.5612 24.48155 21.7253 69.7211 11.74379 80.1808-21.06198 5.24648-24.88185-11.48198-41.52298-24.36368-55.64156-23.21161-15.22125-63.26956-13.16738-85.32502 12.05139-41.51846 46.43224-18.48961 112.52397 35.72777 131.08081 60.66482 17.11352 118.96473-29.63961 126.96137-92.39988 2.7637-54.83226-40.99398-106.19486-96.51046-114.27807-76.21988-10.3001-138.45939 50.84936-147.743191 124.09106-9.31956 73.21828 47.315731 138.67973 111.863041 158.33924 49.05305 9.49897 98.18701 2.07129 139.64056-27.40671 82.90715-58.95602 100.11901-177.97214 43.55644-260.39974-52.71171-79.885311-158.575-103.987181-249.15842-67.061741-86.705021 39.45169-149.0660905 134.549061-117.102931 229.167621 15.77888-74.65377 50.93986-153.5943 123.407351-187.514491 9.28724-4.60517 19.44718-8.7232 30.56692-12.33106zm-160.722321 286.075591c-52.57825-113.8254-.38403-260.89182 113.777041-317.643861 10.84604-5.32012 22.21219-9.7712 34.03518-13.36069 115.76394-28.75816 246.03978 34.00351 263.68455 158.897471 10.04526 85.91695-27.72044 168.80365-107.97396 206.83173-102.24035 46.26108-224.798841-11.43986-234.690511-131.24969-7.33455-123.78718 127.307171-194.136761 222.718561-137.24102-42.54074-27.89653-94.21826-33.44528-140.80825-12.98978-71.17376 32.62266-105.080851 118.0397-80.762351 190.63139 30.697281 88.13423 123.572931 132.04164 212.817841 105.59803 82.80488-25.06359 132.16266-100.33164 140.19255-180.04986 12.12434-145.020371-132.23823-245.3588802-265.59709-221.973611 7.92036-4.10499 20.5989-8.4277792 35.61563-11.7452592 60.06317-13.23825 124.63426-3.45807 179.45368 32.4903392 109.65077 71.904621 141.09454 217.803071 65.16008 333.599141-143.00482 218.07486-377.311781 117.06797-437.622951-1.79433" fill="#b21a1a"/></g><path clip-path="url(#b)" d="m0 0 .71289062 259.97852c-2.25798312 37.40922 3.86160888 75.2227 19.90429738 109.95312 32.271145 63.60055 114.390822 121.85977 205.654292 129.06641-26.86247-22.84709-53.5905-45.8881-80.01171-69.22266-15.30959-13.58014-30.59255-27.20122-45.3711-41.36133-4.636323-4.52284-9.334759-9.00999-13.505858-13.97461-.880459-1.0969-1.809388-2.23741-2.332031-3.53906-.863599-7.33297-1.537331-14.68947-2.226562-22.04101-1.542504-16.90916-2.707024-33.85641-3.263672-50.82813-.535483-16.55768-.427487-33.31586.15625-49.89063.766858-21.87157 2.117761-43.71616 3.21875-65.57226 11.524064-6.03839 23.048193-12.07682 34.572263-18.11524 7.39302 7.56254 12.90984 17.15005 14.80274 27.61915 1.26831 6.79232.95551 13.84218-.73633 20.5332-.31249.72546-.20477 1.18368.66016 1.16601 6.6831 1.52055 13.36693 3.04124 20.05078 4.5586 1.05148-4.52167 1.85388-9.11345 2.03906-13.75977.69575-14.50373-3.436-29.07288-11.10938-41.35156-1.93275-3.11844-4.08535-6.10066-6.42382-8.92773 22.70115-11.90396 45.3877-23.83672 68.09765-35.72266 6.41514-2.88611 12.83034-5.7726 19.24414-8.66211 11.38969 8.12884 23.22379 15.63053 35.59766 22.17187 14.76029 7.8498 30.12956 14.50938 45.78711 20.34961-4.6502 4.40099-9.74668 8.38323-15 11.9336-5.37076 3.60752-10.98508 6.84452-16.75977 9.75976-1.04217.51752-2.30767 1.16017-3.45117 1.69727-6.88189 3.30042-14.05626 6.21485-21.17187 8.78906-4.54902 1.63572-9.13599 3.17332-13.67383 4.58399-1.8718.58472-3.74302 1.16856-5.61524 1.75195 5.08759 6.07684 10.17784 12.15154 15.26758 18.22656 20.55694-6.6558 40.78231-14.48524 59.9961-24.41211 8.1064-4.16784 16.03411-8.68298 23.7832-13.48242 12.45231 9.22871 26.82732 15.39198 41.31445 20.6582 13.25483 4.86104 26.8035 9.00116 39.65625 14.89649l9.33789 96.67773c-11.42985-7.56013-24.18798-13.4225-37.77148-15.70117-6.92511-1.1887-14.00211-1.36835-20.99219-.70508-2.43088 5.34676-4.85954 10.69453-7.29102 16.04102 9.51569 2.40686 19.17669 4.18427 28.69532 6.57617 8.72498 2.2128 17.42756 5.27386 24.72461 10.67969 1.00709.73787 1.98042 1.52088 2.92773 2.33398-2.49326 41.68498-5.24998 83.35402-8.01758 125.02149-.01386.15623-.02715.31251-.04101.46875 59.90414-45.68507 98.3599-117.66437 98.56445-198.22266v-250h-111.59766c1.90446 15.828073 3.80845 31.656302 5.71289 47.484375.12854 1.199211.27912 2.652494.41602 3.949219 4.35557 41.482466 8.71085 82.964796 13.06641 124.447266-11.39732-3.85612-22.08017-10.48114-29.62891-19.96094-6.12575-7.60873-9.91167-17.15862-10.21094-26.95508-.3281-8.76292 2.06249-17.46785 6.07813-25.21093.0668-.47958 1.02352-1.23986.27344-1.46094-6.12774-3.348794-12.25534-6.697302-18.38477-10.04297-2.3899 4.357943-4.50951 8.8823-5.96289 13.64453-4.08849 12.94937-4.10508 26.9196-1.45313 40.1582-.008.41648.48494 1.43399.12305 1.37696-26.27457-12.87332-52.27014-26.33841-77.77344-40.63086-5.84077-3.27443-11.65532-6.6087-17.45117-9.978518 5.51987-2.48361 11.03652-4.974822 16.55859-7.453124 33.86013-14.379477 67.71998-28.759197 101.58008-43.138672 1.84571-1.065754 3.69141-2.131513 5.53711-3.197266-2.32119-.19064-4.63496-.560668-6.96093-.630859-10.05457.214862-20.10954.425855-30.16407.642578-37.26917 12.887398-74.5445 25.757156-111.81836 38.630859-10.7784-6.637759-21.46543-13.426284-31.98437-20.453125-5.06638-3.377762-10.08761-6.81776-15.11719-10.298828-4.66397 3.106872-9.3286 6.212834-13.99219 9.320313 10.71087 10.758727 21.74713 21.205705 33.33008 31.023437-14.40605 4.975205-28.81082 9.954235-43.2168 14.929685-24.93102 8.61427-49.86194 17.22949-74.792964 25.84375l-3.929688-31.96679c14.523706-11.503014 30.000642-21.892698 43.312502-34.85352 7.3793-7.238007 14.19262-15.348558 18.35351-24.900391 2.31659-5.318722 3.63218-11.078826 3.69922-16.886718-.10229-.504393.42408-1.612635-.44336-1.382813h-20.5332c-1.33478 5.742982-3.44697 11.322718-6.50195 16.376953-5.55309 9.355139-13.70924 16.804754-22.234378 23.410157-6.013441 4.655931-12.273788 8.980301-18.392578 13.49414-.276113-5.357829-.105334-10.725457-.152344-16.08789v-59.242188z" fill="#ff8066" filter="url(#a)"/><path d="m390.41602 0 5.68554 47.246094 13.80469 131.470706c-35.76465-10.63275-54.71168-42.72495-38.08594-75.39649l-15.27148-8.341794c-9.76278 17.911334-9.66708 38.113784-5.02735 56.189454-60.31666-29.38505-118.02269-61.253432-170.70312-97.830079l-10.82617 7.210937c46.0108 46.155772 83.99778 70.901292 139.1914 91.103512-21.45882 21.55548-51.9069 32.96039-75.8789 40.30664l12.4707 14.88672c32.57486-10.63274 57.51268-21.94249 83.22461-37.98828 25.03529 19.04228 56.83695 24.45544 82.74219 36.63477l9.85937 102.07422c-19.33226-13.62926-39.05182-20.39516-59.83398-18.5586l-5.79883 12.75977c22.42543 5.50969 40.88755 6.95952 55.58008 20.10547-2.5525 43.58182-7.88726 123.17583-7.99024 124.71289 58.68742-45.75825 96.23929-116.98326 96.44141-196.58594v-250z" fill="#b21a1a"/><path d="m0 0 .71289062 259.97852c-2.25798542 37.40926 3.86159338 75.22266 19.90429738 109.95312 31.853208 62.77686 112.286352 120.27825 202.126952 128.69141-1.6249-1.37841-128.533185-109.05535-138.617187-125.21289l-.976562-1.64258-.25-1.83594c-8.912186-83.61205-5.59676-116.20614-1.904297-188.60547l36.894526-19.33203c15.85247 15.65913 19.62332 34.31453 15.85352 50.07031l17.01172 3.86719c4.63974-20.00889-.38696-43.20772-17.10938-62.25l70.17774-36.82812 64.56836-29.076176 102.17187-43.390625-30.44922.648437-91.05468 31.472656-66.21289 22.859376-102.365238 35.369142-4.367188-35.533205c25.286606-20.308546 64.782356-43.768367 65.458986-75.154297h-17.40039c-6.66964 27.007173-30.408216 39.883761-50.523439 55.15625l-.306641-7.630859v-71.574219z" fill="#b21a1a"/><g stroke-width=".799462" transform="matrix(-4.7275876 0 0 4.7275876 -2144.14868159479 -321.34275949614)"><g><path d="m-2088.6814 487.74723 18.1634 8.5516c3.556-1.18318 12.2282-1.84089 17.8574-4.23633 9.1893-3.91038 19.8976-7.74533 25.1954-16.21094 3.9965-6.38608 3.9762-15.01707 2.6896-22.43991-1.6878-9.73851-6.3211-19.46825-13.2304-26.53568-7.174-7.33819-17.1274-12.57882-27.2345-14.35704-9.1511-1.61004-19.2445-.23237-27.6145 3.80228-8.6632 4.17597-20.8825 19.90806-20.8825 19.90806s25.1943 3.65238 34.1535 11.68405c2.2254 1.99496 3.7303 5.12931 3.8084 8.11695.2982 11.41015-6.8063 28.40016-12.9058 31.71696z" fill="#861313" transform="scale(.26458334)"/><path d="m-540.39113 123.25433c.32279-1.14575.381-2.40242.0792-3.77656-.78867-3.59198-3.61018-6.06573-7.57343-6.07906-1.32144-.004-2.77072.26839-4.31292.86 7.48792.86233 11.58833 7.79441 2.87062 12.5349 3.11316-1.03585 7.23294-.99318 8.93653-3.53928z" fill="#ff8066"/></g><g><path d="m-1828.0282 430.53884c-.4338 9.14535-5.8561 17.49293-7.8558 26.31952 11.8057-1.19794 29.4378-2.80855 38.6223-12.78609 9.8115-10.6586 12.3677-27.92182 10.2031-42.2461-1.4433-9.55102-7.7388-18.33368-14.8227-24.90048-4.8903-4.5333-11.4027-7.46732-17.9146-8.90277-10.1447-2.23625-21.921-3.91241-31.1533.85013-7.7674 4.00687-11.5518 13.29164-15.7754 20.94336-2.4472 4.43343-4.2366 11.88334-5.3965 14.20117l16.0973 8.05432c5.0061-5.54219 19.3309-.76822 25.4108 5.39764 3.118 3.16211 2.7952 8.63347 2.5848 13.0693z" fill="#861313" transform="scale(.26458334)"/><path d="m-491.07297 109.02736c6.98077-7.72837 12.81706-1.90542 11.69459 5.66844 3.88197-5.34565 2.0392-9.88272-2.31563-12.13761-2.03201-1.05261-3.95817-1.22491-5.74125-.7874-1.76583.97114-2.42614 4.83555-3.63771 7.25657z" fill="#ff8066"/></g><g><path d="m-1917.0964 256.92012c1.0899.03102 2.179.10072 3.265.21236 27.0575 2.78152 51.8887 21.80539 69.7905 42.28405 12.9138 14.77269 20.692 34.55028 23.4983 53.96994 1.7589 12.17181-.9129 24.8643-4.5485 36.61287-3.7593 12.14829-9.2115 24.25665-17.5023 33.89907-13.5112 15.7139-31.991 26.85551-50.3443 36.48015-10.1526 5.32409-21.9015 6.91288-32.436 11.43449-16.4129 7.04476-33.3259 13.7911-47.7241 24.36018-16.9947 12.47507-38.6583 24.81677-44.314 45.12589-7.1403 25.64021 4.6891 54.9025 18.447 77.6868 7.7615 12.85373 32.0107 28.83551 35.0608 30.81833-78.5482-20.16918-137.79-86.55805-148.2831-167.73716 8.4654-6.3278 17.2704-12.19509 25.7764-17.67248 16.4636-10.60163 36.4348-14.46701 55.1348-20.27699 38.2975-11.8988 80.0388-13.22334 116.5685-29.77216 11.8216-5.35548 24.1954-11.72693 32.119-22.00551 7.0595-9.15771 13.8178-21.30076 11.6781-32.66396-4.2421-22.52805-22.5383-47.95398-45.1197-51.90258-6.3673-1.11339-12.797 4.48189-16.9323 9.44989-7.356 8.83728-8.0347 21.57998-11.0645 32.67177-4.2982 15.73518-4.7532 32.46436-10.0479 47.89278-3.2945 9.60001-13.3644 27.35816-13.3644 27.35816s-17.7309-20.31229-21.0577-32.9013c-7.6261-28.85859-5.2735-61.29383 4.7093-89.42422 3.8918-10.96674 11.2222-21.26652 20.5518-28.22164 13.1286-9.78725 29.7908-18.14403 46.1393-17.67873z" fill="#861313" transform="scale(.26458334)"/><path d="m-507.32432 72.748476c.47091-.010881.94123.011388 1.40837.070645 5.68944.721701 10.67869 5.07326 14.36755 9.464477 2.77318 3.301199 4.5553 7.596364 5.14516 11.867261.35068 2.539079-.26918 5.172796-1.03201 7.619831-.81025 2.59919-1.92411 5.21741-3.69754 7.28313-3.1785 3.70238-7.56713 6.28022-11.89907 8.52625-2.59071 1.34324-5.58691 1.72622-8.26846 2.87748-4.69826 2.01709-9.56336 3.93534-13.63258 7.03112-5.25754 3.99984-11.81967 8.15068-13.4541 14.55139-2.05966 8.06596-2.01321 17.18067 5.32405 24.35463-12.34582-7.21251-21.45164-19.2608-24.8128-33.48075 2.72651-2.22414 5.75144-4.19369 8.54814-6.12016 1.82802-1.25921 3.96547-2.02114 6.05282-2.77626 2.28949-.82824 4.69667-1.28534 7.05054-1.90744 10.52759-2.78233 21.75564-3.57473 31.63116-8.16228 3.83509-1.78153 7.86079-3.92064 10.34569-7.3422 2.55591-3.51936 4.81469-8.205617 3.88923-12.455568-1.65607-7.605086-7.98542-15.752926-15.59744-17.37681-3.23865-.690904-6.90847 1.537493-9.0753 4.041686-5.10457 5.899287-3.54937 16.117264-6.34945 22.525692-.63707-6.862988-1.38659-14.829117.99854-21.64737.70817-2.024408 2.05073-3.934777 3.7748-5.21044 2.64975-1.960589 5.98631-3.658148 9.2827-3.734314z" fill="#ff8066"/></g></g><path d="m424.72656 338.48242 10.25586 37.65625-56.40039-18.0957 3.11719 15.87695-49.49219-22.10742c-26.36934 19.281-54.86886 35.2711-82.88086 51.98828l11.12305-27.68164-126.87305 9.16016 23.77149-33.18164-131.539066 27.05859c38.068768 64.75481 126.594996 121.6099 221.630856 120.66016a250 249.99998 0 0 0 2.56055.18359 250 249.99998 0 0 0 8.79883-.62891c2.52516-.14858 5.04927-.30989 7.58008-.54297a250 249.99998 0 0 0 203.93554-132.375z" fill="#861313"/><path d="m339.00781 374.56445-41.44922 64.70703 102.30079 7.03907 4.75976-.4961a250 249.99998 0 0 0 44.50391-46.23633l-47.00586-15.08007 3.92773 20.01367zm115.02344 3.01563 3.11328 11.42773a250 249.99998 0 0 0 4.0918-7.00781zm-338.09375 1.41211-79.566406 16.36719c25.722263 35.04482 65.980316 66.21963 113.056636 85.21874l40.20313-19.6875 37.89844-64.34765-130.937503 9.45312zm236.25977 78.40234-26.08789 22.66992 5.32617 5.14844a250 249.99998 0 0 0 52.69336-25.62891zm-151.66211 14.81836-31.49414 15.43555c24.9601 7.91751 51.39384 12.43784 78.39843 12.16797a250 249.99998 0 0 0 2.56055.18359 250 249.99998 0 0 0 8.79883-.62891c.11189-.00658.22404-.01679.33594-.02343l12.92382-21.82032z" fill="#ff8066" stroke-width="36"/></svg>