<svg height="500" viewBox="0 0 500 500" width="500" xmlns="http://www.w3.org/2000/svg" xmlns:xlink="http://www.w3.org/1999/xlink"><radialGradient id="a" cx="1362.7291" cy="216.11429" gradientTransform="matrix(1.0000001 -.0000059 .0000001 1.0000003 -112.72927 33.893757)" gradientUnits="userSpaceOnUse" r="250"><stop offset="0" stop-color="#ff851a"/><stop offset=".42441937" stop-color="#f87000"/><stop offset=".86367416" stop-color="#f26900"/><stop offset="1" stop-color="#e55f00"/></radialGradient><g transform="translate(-1000)"><path d="m1500 250a250 250 0 0 1 -250 250 250 250 0 0 1 -250-250 250 250 0 0 1 250-250 250 250 0 0 1 250 250z" fill="url(#a)" stroke-linecap="round" stroke-linejoin="round" stroke-width="1.002"/><path d="m1309.2298 33.82789c128.5196 30.706851 207.8974 167.48127 169.5927 291.56949-31.3771 95.69524-112.8693 162.03793-212.5543 174.60263 153.1796-8.09118 266.0956-163.0043 218.7012-309.92978-36.4562-114.666588-154.6038-191.5214848-270.6514-169.822657-18.8526 4.215647-38.4387 10.498641-55.8829 18.694487-112.5353 47.459213-168.47522 196.206-99.9632 307.85319 57.6978 93.63045 168.5136 141.8489 267.9993 100.77239-134.92 68.97589-303.283-51.46877-311.488-201.30723-4.4167-117.68321 76.8182-219.674136 190.654-246.26040176-89.0147 9.18391126-152.6601 79.39239576-187.7408 157.21169176-38.45522 102.70317 5.2337 231.75078 109.038 294.08388 114.5107 66.1048 260.3537 29.37245 323.6836-83.60152 42.2104-77.69758 34.3514-177.62383-23.1776-249.88923-57.5404-72.257811-157.5429-102.460489-246.4118-71.877168-81.7429 30.682061-131.1298 101.133078-134.0478 190.176958.6692 92.68536 61.7912 168.55972 147.5399 198.52472 128.5549 37.82014 266.7725-70.33038 233.6823-209.88949-14.7104-64.39775-57.8855-122.14991-125.7378-141.121386-71.391-15.467036-138.9716 1.205-181.2869 64.641366-18.8995 29.2286-28.9384 85.21395-26.105 97.65297m0 0c13.5324-50.18833 30.6277-97.66354 72.2125-128.94941 53.182-38.308183 124.4576-37.093813 181.7444-.48035 50.1457 36.48017 75.4845 90.37713 72.3557 150.91678-6.6674 64.04407-38.4038 109.83277-91.6401 141.00844-63.9019 34.56125-135.3795 4.83213-189.1258-35.28385-78.8706-65.48566-79.7477-186.67235-8.9744-256.76104 63.7369-55.941605 167.0207-64.891564 238.7167-6.65053 78.8163 58.35315 90.3045 169.04089 40.972 246.62443-35.2274 56.41892-88.4571 87.60135-152.5581 93.63158-81.9488 2.18264-160.666-41.91503-196.8695-120.9383-36.2055-79.02511-22.5771-164.33167 26.8727-227.66064 49.4316-63.30896 138.3491-86.746364 220.4504-67.54202" fill="#c50"/></g><path d="m249.95898 42.707031c-60.17348 0-100.08522 10.049645-124.38867 38.076172-18.81704 21.695757-26.500171 51.756197-29.187498 91.396487h-61.091796v50.75h75.087894c-1.30052 10.94276-2.15625 22.14295-2.15625 33.625.61231 27.65924 3.82384 49.19313 9.6582 73.82226-6.74329 7.61997-17.05989 13.5615-25.523438 13.89258h-.0098-.0078c-9.098988.22679-22.394439-10.78695-33.923828-15.40234-10.137146-4.05806-30.93283-10.78082-30.93283-10.78082 1.620941 3.19974 3.699231 30.32449 9.680876 44.15386 5.223438 12.07642 13.899898 22.78718 22.308594 32.56446 8.404249 9.77211 16.972125 18.42564 29.875 22.60156 13.695266 4.46459 26.975946 2.46419 41.248046-.74609 8.79922-1.97925 17.96766-4.85312 27.21875-8.02539 25.30529 27.22158 62.10925 48.07656 92.14453 48.6582 38.81137-5.13648 71.7611-23.97681 92.14649-48.6582 9.25556 3.17268 18.42963 6.04625 27.23047 8.02539 14.27356 3.20984 27.53806 5.22234 41.23633.74023 12.8891-4.17889 21.45023-12.82477 29.85546-22.58984 8.41322-9.77435 17.6108-20.27311 22.33399-32.55664 5.70833-14.84557 4.76411-29.34474 6.32278-47.29489 0 0-18.33135 9.46232-27.63331 13.91598-11.18687 5.35613-24.72719 15.62209-33.875 15.39453h-.008-.008c-11.53475-1.41259-18.86635-6.51758-25.52344-13.89062 6.02315-24.9253 9.56375-51.96979 9.6582-73.82422 0-11.48206-.85573-22.68225-2.15625-33.625h75.08789v-50.75h-61.10351c-2.69251-39.6354-10.35319-69.69432-29.17678-91.397487-24.3042-28.025885-64.21531-38.075172-124.3873-38.075172z" fill="#994100"/><path d="m249.95893 60.707308c-58.18087 0-91.53244 9.661302-110.78949 31.868367-16.88065 19.461915-24.11638 50.814025-25.65695 97.604555h-60.221298v14.75008h393.335468v-14.75008h-60.22949c-1.55695-46.79053-8.76811-78.14264-25.64875-97.604555-19.25705-22.207065-52.60862-31.868367-110.78949-31.868367zm-120.95066 157.334182c-1.80279 12.37368-2.78612 25.32097-2.78612 38.5141 0 20.89595 2.3764 40.97245 6.80142 59.65588 1.22917-1.80279 2.45835-3.52363 3.76947-5.32642 6.96531-9.83338 14.34035-20.07649 24.00985-28.18904 9.58755-8.0306 21.79734-13.84868 36.71131-13.84868 14.34035 0 28.76265 3.44168 40.15299 11.06256 4.83475 3.19585 9.01394 7.29309 12.29174 12.12784 3.27779-4.83475 7.45698-8.93199 12.29173-12.12784 11.39034-7.62088 25.81264-11.06256 40.153-11.06256 14.91397 0 27.12376 5.81808 36.71131 13.84868 9.66949 8.11255 17.04453 18.35566 24.00985 28.18904 1.31112 1.80279 2.54029 3.52363 3.76946 5.32642 4.42503-18.68343 6.80143-38.75993 6.80143-59.65588 0-13.19313-.98334-26.14042-2.78613-38.5141zm68.50593 65.55592c-11.3084 0-19.50288 3.93335-27.2057 10.407-7.70282 6.47364-14.58619 15.73341-21.46957 25.48486-6.88337 9.66949-13.76674 19.83066-22.53484 28.10709-8.7681 8.19449-19.85525 14.34036-33.515459 14.66814-16.438146.40972-32.220732-9.25977-45.19015-19.01122 1.701996 3.35974 3.340894 6.71949 5.299377 10.24312 11.611591 20.89594 28.311959 42.3655 42.004951 46.79053 15.544951 5.08058 44.512461-3.35974 73.766791-14.66814 29.25432-11.39034 58.34476-24.99319 81.28933-24.99319s52.035 13.60285 81.28933 24.99319c29.25432 11.3084 58.26281 19.74872 73.7504 14.66814 13.68479-4.42503 30.40155-25.89459 42.03773-46.79053 1.96667-3.52363 3.60557-6.88338 5.24447-10.24312-12.94729 9.75145-28.68071 19.42094-45.15164 19.01122-13.68479-.32778-24.74735-6.47365-33.51545-14.66814-8.76811-8.27643-15.65148-18.4376-22.53485-28.10709-6.88337-9.75145-13.76674-19.01122-21.46956-25.48486-7.70282-6.47365-15.89731-10.407-27.2057-10.407-11.88201 0-23.68208 3.1139-31.95851 8.60421s-13.11118 12.70146-20.48622 12.70146-12.20979-7.21115-20.48622-12.70146c-8.27644-5.49031-20.0765-8.60421-31.95851-8.60421zm52.44473 155.69528c28.76265 0 55.47669-14.50424 76.37263-39.82521-30.07377-11.63618-59.98365-24.0918-76.37263-24.0918s-46.29886 12.45562-76.37263 24.0918c20.89594 25.32097 47.60997 39.82521 76.37263 39.82521z" fill="#ffa348" stroke-width="36"/></svg>