<svg height="500.00003" viewBox="0 0 500 500.00003" width="500" xmlns="http://www.w3.org/2000/svg"><g transform="translate(-500)"><path d="m926.7767 73.223311c45.24113 45.241099 73.2233 107.741109 73.2233 176.776699 0 69.0356-27.98221 131.53559-73.2233 176.77669-45.2411 45.2411-107.74109 73.22332-176.77669 73.22332-69.03559 0-131.5356-27.98219-176.7767-73.22332-45.2411-45.2411-73.22331-107.74109-73.22331-176.77669 0-69.03559 27.9822-131.5356 73.22331-176.776699 45.2411-45.241105 107.74111-73.22330934 176.7767-73.22330934 69.0356 0 131.53559 27.98220534 176.77669 73.22330934z" fill="#3b2f4f"/><g transform="translate(500)"><path d="m230.6486 0c-128.19182 22.346591-234.17086 139.43202-223.06447 273.24395 5.6201 44.55936 16.72649 83.63245 44.55937 122.70552l50.17947 50.17947c33.45298 22.34661 72.52606 44.55938 111.46533 50.17946 39.07308 5.62012 78.01235 5.62012 111.46534-5.62008 39.07308-16.72649 72.52607-33.45297 100.35893-61.28587 33.45297-39.07306 55.79958-83.63245 66.90595-139.43201v-61.28587c-5.62008-27.83287-11.10637-50.17947-22.34657-78.01235-11.10641-22.34659-27.8329-44.55937-50.17947-61.285858-27.83289-27.832879-61.28586-44.559368-100.35895-55.799569-27.83288-5.620101-55.79957-11.10639-89.25255-5.620101-78.01235 11.106391-139.43202 61.28586-172.885 128.191818-11.10639 27.83288-16.72649 61.28586-22.34659 89.25255 0 33.45298 5.6201 66.90596 16.72649 94.73885 22.34659 44.55936 55.79957 89.25254 105.97904 111.46532 16.72649 5.62012 33.45298 11.1064 55.79957 16.72648 122.70553 22.34661 234.17085-55.79954 250.89734-178.37127 11.10641-78.01236-22.34657-139.43203-72.52604-189.6115-100.35895-89.25255-267.62385-44.559369-312.18322 78.01235-5.6201 27.83288-16.72649 55.79958-16.72649 83.63245 5.6201 78.01235 55.79957 150.53843 133.81192 172.885 61.28586 16.72649 122.70553 5.62012 172.885-33.45298 11.10639-11.10637 22.34659-22.34657 33.45299-33.45297 61.28584-83.63246 44.55935-195.09778-44.55937-256.51746-27.83288-16.726488-55.79958-22.346588-89.25256-27.832879-22.34659-5.620101-44.55937 5.620101-66.90596 11.106391-27.83288 16.726488-50.17947 22.346588-72.52606 50.179468-27.83288 33.45298-33.45298 66.90596-39.07308 105.97904 0 55.79958 27.83288 117.08544 83.63245 144.91833 78.01235 44.55934 183.99139 11.10637 223.06447-72.52607 22.3466-55.79958 11.1064-128.19183-39.07308-172.88501-33.45298-27.83288-66.90596-39.07308-111.46533-39.07308-66.90596 5.6201-111.46533 55.79957-122.70553 122.70553-11.10639 72.52606 33.45298 139.43202 105.97904 150.53843 100.35894 16.72649 183.99138-89.25257 139.43202-178.37131-11.10638-16.72649-27.83288-39.07308-50.17947-50.17947-27.83288-11.10639-55.79957-16.72649-83.63245-11.10639-33.45298 5.6201-55.79957 27.83288-72.52606 50.17947-16.72649 27.83288-16.72649 55.79957-11.10639 83.63245 11.10639 33.45298 39.07308 61.28586 72.52606 72.52607 44.55937 16.72649 89.25255-5.62011 111.46533-39.07309 33.45298-55.79957 5.6201-117.08543-50.17947-139.43202-50.17947-16.72649-122.70553 27.83288-105.97904 89.25255 5.6201 16.72649 11.10639 39.07309 27.83288 50.17947 22.34659 16.7265 50.17947 16.7265 72.52606 11.1064 22.34659-11.1064 39.07308-33.45299 39.07308-61.28587-5.6201-16.72649-5.6201-39.07308-22.34659-50.17947-13.91644-8.36324-29.2379-11.13984-43.17107-8.34651-13.93317 2.79332-26.47803 11.15656-34.84128 25.073-5.6201 16.72649-11.10639 33.45298 9.50065 44.827 41.74932-49.10898 35.32635.40143 29.84006-16.45887v5.6201c16.72649-5.6201 22.34659-22.34659 27.83288-33.45298 5.6201 5.6201 16.72649 11.10639 16.72649 22.34659 11.10639 39.07308-27.83288 72.52606-66.90596 61.28586-33.45298-11.10639-44.55937-50.17947-39.07309-83.63245 5.62011-22.34659 22.3466-39.07308 50.17948-44.55937 33.45298-5.6201 66.90596 11.10639 83.63245 39.07308 16.72649 27.83288 16.72649 50.17947 0 78.01235-33.45298 55.79958-105.97905 55.79958-150.53841 11.10639-33.45298-44.55937-22.3466-117.08543 27.83288-144.91831 16.72648-11.10639 39.07308-16.72649 61.28586-16.72649 11.10638 0 27.83288 5.6201 39.07308 11.10639 27.83288 11.10639 39.07308 39.07308 55.79957 61.28586 5.6201 16.72649 5.6201 27.83288 5.6201 44.55937-5.6201 72.52606-72.52606 122.70554-144.91831 105.97904-83.63246-22.34659-122.70554-122.70553-72.52606-195.09778 11.10638-16.72649 22.34659-27.83288 39.07308-39.07308 78.01235-44.559372 167.2649-5.6201 200.71788 66.90596 39.07309 94.73884-39.07308 206.33797-139.43202 200.71788-27.83288-5.62012-55.79958-5.62012-78.01235-22.3466-22.34659-11.10638-27.83288-27.83287-39.07309-39.07307-66.90596-78.01235-33.45298-195.09778 55.79958-239.79097 39.07308-16.726484 83.63245-16.726484 128.19182-5.6201 94.73883 33.45298 139.43201 144.91832 94.73883 234.17087-11.10637 27.83288-33.45297 44.55935-55.79956 66.90596-22.34659 16.72649-50.17947 27.83289-78.01235 33.45298-44.55937 5.62012-89.25256-5.62009-128.19182-27.83286-94.73884-66.90598-117.08544-211.82429-22.3466-289.97045 16.7265-11.1064 27.83288-33.452984 50.17948-39.073085 33.45298-11.106392 66.90596-22.346593 105.97904-16.726492 27.83288 5.6201 55.79957 16.726492 78.01235 27.832879 16.72649 16.726488 39.07309 22.346598 50.17946 44.559368 11.10641 16.72649 27.8329 33.45298 33.45298 55.79957 22.34661 66.90596 16.72649 139.43203-27.83286 195.09781-16.72649 22.34657-33.45298 44.55934-61.28587 55.79954-22.34659 5.62012-39.07308 22.34661-61.28586 22.34661-39.07308 0-83.63245 5.62008-122.70553-11.10641-117.08543-44.55934-167.26491-195.09777-105.97905-306.69691 16.7265-33.45298 44.55937-61.285864 78.01236-83.632457 44.55936-22.34659 89.25255-33.452979 139.43202-27.832879 61.28586 5.6201 111.46532 39.07308 156.1585 83.632456 22.34661 22.34659 27.8329 50.17947 39.0731 78.01234 11.10637 16.7265 5.62008 39.07309 11.10637 61.28586 11.10645 172.88502-195.09777 301.07685-351.25629 211.82429-27.83287-16.72649-50.17946-27.8329-66.90596-50.17947-61.28586-72.52608-78.01235-167.26492-50.17947-256.51747 16.72649-33.45298 39.07309-61.28586 61.28587-89.252546 39.07308-39.073083 94.73884-55.799574 144.9183-72.526064" fill="#221b35" opacity=".9"/><path d="m231.45148 15.388371c-120.56454 21.008472-220.12061 131.001869-209.68329 256.785079 5.21867 41.88313 15.78981 78.68141 41.88314 115.34586 15.7898 15.65602 31.4458 31.44582 47.23561 47.1018 31.4458 21.0085 68.11026 41.88314 104.77473 47.23563 36.66447 5.21866 73.32893 5.21866 104.77473-5.21866 36.66447-15.65601 68.11026-31.44582 94.33742-57.67295 31.44579-36.66448 52.45425-78.68141 62.89161-131.00187v-57.67294c-5.2187-26.22714-10.43736-47.23561-21.00851-73.32894-10.43731-21.00847-26.22712-41.88313-47.10179-57.672935-26.22713-26.227136-57.67292-41.88313-94.33739-52.454272-26.22714-5.218666-52.45427-10.43733-83.90008-5.218666-73.32893 10.437332-131.00187 57.672938-162.44767 120.564543-10.43733 26.22713-15.78981 57.67294-21.00847 83.90008 0 31.44579 5.21866 62.8916 15.78981 89.11874 21.00847 41.88313 52.45427 83.90006 99.55607 104.77473 15.7898 5.21866 31.4458 10.43732 52.45427 15.65601 115.34588 21.00847 220.12062-52.45428 235.91043-167.66635 10.43732-73.32894-21.00847-131.00188-68.11026-178.23748-94.33742-83.900079-251.56643-41.883137-293.44956 73.32893-5.21867 26.22713-15.78981 52.45427-15.78981 78.68141 5.21866 73.32893 52.45427 141.573 125.78321 162.44767 57.67293 15.78981 115.34587 5.21866 162.44767-31.44578 10.43733-10.43736 21.00849-21.00849 31.4458-31.44582 57.67295-78.68141 41.88314-183.45615-41.88313-241.12909-26.22714-15.7898-52.45428-21.008465-83.90008-26.227131-21.00847-5.218666-41.88313 5.218666-62.8916 10.437331-26.22714 15.7898-47.23561 21.00847-68.11027 47.1018-26.22713 31.4458-31.4458 62.8916-36.66447 99.55606 0 52.45428 26.22714 110.12722 78.68142 136.22052 73.32893 41.88314 173.01881 10.43736 209.68327-68.11025 21.00847-52.45427 10.43736-120.56454-36.66446-162.44767-31.4458-26.22714-62.8916-36.66447-104.77473-36.66447-62.89161 5.21867-104.77474 52.45428-115.34588 115.34588-10.43733 68.11027 31.4458 131.00187 99.55607 141.57302 94.3374 15.65599 173.01881-83.90008 131.00187-167.66635-10.43733-15.7898-26.22714-36.66446-47.1018-47.2356-26.22713-10.43733-52.45427-15.656-78.68141-10.43733-31.4458 5.21866-52.45427 26.22713-68.11027 47.23561-15.7898 26.22713-15.7898 52.45427-10.43732 78.6814 10.43732 31.44581 36.66446 57.67295 68.11026 68.11027 41.88314 15.78981 83.90008-5.21866 104.77474-36.66446 31.4458-52.45428 5.21866-110.12721-47.1018-131.00187-47.23561-15.78981-115.34588 26.22713-99.55607 83.90007 5.21867 15.65599 10.43733 36.66447 26.22714 47.23561 21.00847 15.78981 47.10179 15.78981 68.11027 10.43733 21.00847-10.43733 36.66446-31.4458 36.66446-57.67294-5.21866-15.7898-5.21866-36.66447-21.00847-47.23561-13.11356-7.8949-27.5318-10.50423-40.62864-7.86145-13.09684 2.64279-24.87229 10.53769-32.70029 23.65126-5.21867 15.656-10.43733 31.4458 8.9654 42.15076 39.20689-46.70036 33.05154-.26763 27.96669-16.05744v5.21867c15.78981-5.21867 21.00847-21.00847 26.22714-31.4458 5.21866 5.21866 15.65599 10.43733 15.65599 21.00847 10.43733 36.66447-26.22714 68.11027-62.8916 57.67294-31.4458-10.43733-41.88313-47.23561-36.66447-78.68141 5.21867-21.00848 21.00847-36.66447 47.1018-41.88314 31.4458-5.21866 62.8916 10.43734 78.68141 36.66447 15.65599 26.22714 15.65599 47.23561 0 73.32893-31.4458 52.45428-99.55607 52.45428-141.57302 10.43734-31.4458-41.88313-21.00847-110.12722 26.22714-136.22054 15.78981-10.43733 36.66447-15.656 57.67294-15.656 10.43733 0 26.22714 5.21867 36.66447 10.43733 26.22713 10.43733 36.66446 36.66447 52.45427 57.67294 5.21866 15.78981 5.21866 26.22714 5.21866 41.88314-5.21866 68.11026-68.11026 115.34586-136.22053 99.55606-78.68141-21.00847-115.34588-115.34587-68.11027-183.45614 10.43733-15.656 21.00847-26.22714 36.66447-36.66447 73.32893-41.88313 157.22901-5.21866 188.67481 62.8916 36.66448 89.11874-36.66447 193.89349-131.00188 188.67483-26.22713-5.21866-52.45427-5.21866-73.32893-21.00848-21.00847-10.43734-26.22713-26.22714-36.66447-36.66447-62.8916-73.32893-31.4458-183.45615 52.45428-225.33928 36.66446-15.789805 78.68141-15.789805 120.56454-5.21866 89.11872 31.4458 131.00186 136.22053 89.11872 220.12061-10.43731 26.22714-31.44578 41.88313-52.45425 62.89162-21.00847 15.78977-47.23561 26.22712-73.32894 31.44578-41.88313 5.21866-83.90007-5.21866-120.56454-26.22712-89.11874-62.89162-110.12721-199.11215-21.00847-272.5749 15.656-10.43733 26.22714-31.445801 47.1018-36.664467 31.4458-10.437328 62.8916-21.00847 99.55607-15.655994 26.22713 5.218666 52.45427 15.655994 73.32893 26.227136 15.65599 15.789805 36.66446 21.008475 47.10181 41.883135 10.43732 15.7898 26.22713 31.4458 31.44578 52.45427 21.00847 62.8916 15.78981 131.00187-26.22712 183.45615-15.78981 21.00846-31.44582 41.88313-57.67295 52.45428-21.00847 5.21866-36.66446 21.00847-57.67294 21.00847-36.66446 0-78.68141 5.21866-115.34587-10.43735-110.12721-41.8831-157.22901-183.45614-99.55607-288.23087 15.7898-31.4458 41.88313-57.672937 73.32893-78.681407 41.88313-21.008474 83.90008-31.445802 131.00187-26.22714 57.67294 5.218666 104.77473 36.664468 146.79166 78.681417 21.00851 21.00847 26.22717 47.10179 36.66448 73.32893 10.43732 15.78981 5.21866 36.66446 10.43732 57.67293 10.43735 162.44767-183.45613 283.01222-330.24781 199.11215-26.22713-15.65601-47.23561-26.22713-62.8916-47.23563-57.67294-68.11025-73.32893-157.22899-47.23561-241.12907 15.78981-31.4458 36.66447-57.67293 57.67294-83.900069 36.66447-36.664468 89.11874-52.454275 136.22054-68.11027" opacity=".9"/></g></g><path d="m422.99405 121.57403c-5.85445.15827-11.65886-.92711-17.15039 1.2207-4.57659-12.13043-9.07135-25.87067-16.84766-33.988279-37.60356-40.821244-81.97709-58.178351-127.73158-56.344169-45.75449 1.834183-83.92553 21.820909-110.41286 50.084588-25.59447 27.31095-40.98335 63.26358-35.97656 99.20507-13.21267 5.27985-21.830022 17.18617-25.205078 29.12305l-9.488281 27.67774c-6.414016 12.94056-13.13774 27.42917-20.22461 41.61524l-.002.002v.002c-7.985641 15.9942-16.42773 31.53392-25.111328 43.75781-9.956767 14.81815-20.496302 21.35419-34.843703 30.89249 13.820124 19.21528 26.730623 37.76416 39.236328 56.88281-3.108685 12.36954-7.247474 25.82974-5.681611 38.37421l6.419892 33.92071 29.123296-19.90966c6.365484-3.15574 16.661238-5.82607 27.191157-7.70948 10.477658-1.87328 21.009618-2.96124 25.755788-3.08413.26538-.008 25.91804-.41392 25.91804-.41392l-3.69531-20.84961c-2.15714-12.17023-3.33053-26.07226-3.79492-40.86132 28.7491 39.01012 68.51704 70.86283 133.34375 77.27539l15.04297 1.48828 4.0664-14.55664c6.82624-24.4386 9.54201-43.83398 44.95899-68.99219 36.88108.6457 61.6317-5.49154 75.66015-23.66897 6.45625-8.36634 9.66868-18.51066 10.9707-29.39358.17578-6.59832.35157-13.19663.52735-19.79495-.2476-5.41759-.84541-11.22756-1.62891-17.26758l32.81641-.53125-3.42578-20.61328c-1.37972-8.29764-4.30544-17.89324-8.35106-26.23472s-8.00366-14.65416-11.90196-20.05741l10.33301-1.31739c.11174-14.2491.18576-28.51973-.85743-42.72653-.59279-8.07292-1.00652-16.26115-3.06445-24.08984-3.58054-13.62095-9.12164-26.69442-15.96875-39.11719zm-276.18936 151.95331c2.42616 3.77787 5.0307 7.45868 7.75586 11.07227-3.14278 15.3534-6.83647 29.55114-12.48047 41.02344 1.22563-18.45685 2.94911-35.73648 4.72461-52.09571z"/><path d="m265.85116 49.099594c-79.9857.9117-147.81329 74.834996-131.52599 138.799796 2.8008 1.512 5.5026 3.3417 8.07839 5.4108 84.9276-18.5715 167.5863-33.525 247.2453-62.442-3.9564-10.2258-8.0334-23.958-13.5936-29.5713-34.7076-37.838696-73.719-52.613996-110.2032-52.198196zm146.5083 90.474296c-83.6856 32.7285-169.6995 48.7188-256.9617 67.572 2.7 3.8754 4.8924 8.055 6.219 12.4785 15.0282.504 29.961.855 44.829 1.0692 2.0835-10.3716 8.9235-20.0403 16.76385-23.08725s11.47455-3.50775 14.95665-3.37815c3.483.126 6.813.846 9.837 2.0412 6.0525 2.394 10.908 6.4134 14.9445 10.809 3.96 4.311 7.2342 9.09 9.9486 13.554 50.9796-.8946 101.3904-3.8052 151.911-9.2736-.0162-3.4245-.0378-6.7887-.0864-10.098-15.2793-1.4085-33.246-.315-57.7953 6.9003 20.538-10.7532 35.8434-17.5662 54.702-17.379.927.009 1.863.0342 2.8098.0774-.405-9.6723-1.2888-18.8856-3.2886-27.7416-30.2013 17.856-56.1924 21.177-95.382 23.7258 45.2142-9.4725 71.1063-21.663 92.2914-34.5204-1.5255-4.3218-3.393-8.568-5.697-12.7494zm-294.52049 60.3738c-4.2804 2.1726-8.7732 8.2926-10.8162 15.7077-1.9935 7.2333-1.413 14.9976.8856 19.4958 4.1535 4.1148 12.8718 5.787 21.7494 4.0437 8.712-1.71 15.49799-6.9525 16.97579-9.6552.0315-5.3694-4.491-14.4927-11.46599-21.0654-3.672-3.4632-7.7904-6.1893-11.1753-7.5753zm119.88269 10.4094c-1.5075-.0684-3.1275.144-5.004.7074-7.371 3.123-9.9144 7.587-10.665 14.4738-.7587 6.975 1.467 16.335 5.9967 25.0524 4.5306 8.7165 11.2752 16.74 18.1197 21.5577 6.8436 4.8177 13.041 6.2667 18.2142 4.5153l5.193 15.345c-11.4273 3.87-23.2092.09-32.733-6.6132-9.5238-6.705-17.5365-16.497-23.1696-27.3348-3.5037-6.741-6.12-13.905-7.2972-21.1266-14.8023-.216-29.664-.5625-44.613-1.0602-1.9476 4.7016-5.202 8.406-9.2214 11.3085 6.71947 12.76553 13.30734 22.92923 21.3363 32.9832-7.87237 29.13155-15.69732 61.44978-33.98849 77.9976 28.60019 47.358 63.73079 85.2534 135.69929 92.3724 17.91907-42.44496 28.11781-62.66923 56.6145-82.2357 21.52618-1.06332 54.09829-.74218 67.0923-16.5798 3.8898-5.04 6.3126-11.8368 7.353-20.5623l-35.136-.7173.3294-16.1964 35.271.72c-.3312-7.9335-1.3617-16.9263-3.078-27.072l-1.5705-9.2943 32.5827-.5274c-1.026-6.1704-3.591-14.7375-7.461-22.7142-5.57201-8.97679-10.2993-19.83482-19.1223-25.9731-45.2133 4.3632-90.3654 6.7347-135.918 7.5123-6.885 3.5316-5.1354 2.5992-7.0317 3.6612-3.7458-6.687-8.6166-16.1136-14.499-22.518-2.943-3.204-6.0237-5.5386-8.9712-6.705-1.4256-.5625-2.8197-.909-4.3263-.9774zm-141.412491 36.189c-6.2586 12.627-13.0104 27.1746-20.250002 41.6664-8.154 16.3314-16.9074 32.58-26.541 46.1412-7.326 10.3113-15.1164 19.2132-24.0876 25.1775 8.8776 12.4893 16.1883 22.932 22.1886 32.1066 3.9096-10.8342 8.4492-22.1283 13.2606-33.6438 10.071-24.1002 21.273302-49.0383 30.018602-71.5977 4.887-12.6108 8.9586-24.5412 11.682001-34.9677-2.2518-1.3095-4.360501-2.925-6.273001-4.8852zm34.283701 8.928c-4.0365.639-8.2404.873-12.3894.549-2.952 11.2716-7.236 23.4225-12.1995 36.2295-8.974801 23.1516-20.224801 48.168-30.177003 71.9874-9.954 23.8203-18.5805 46.521-22.3524 64.2573-1.180519 8.16068-3.013874 16.64732-1.413 24.2532 12.056425-8.28716 26.93013-10.96891 41.059802-14.0877 10.938001-2.41431 22.819491-3.48275 33.422401-3.4875-9.3528-52.767-1.9566-128.4705 4.05-179.6994z" fill="#775fa0" stroke-width="36"/></svg>