<svg height="500" viewBox="0 0 500 500" width="500" xmlns="http://www.w3.org/2000/svg" xmlns:xlink="http://www.w3.org/1999/xlink"><radialGradient id="a" cx="1362.7291" cy="216.11429" gradientTransform="matrix(1.0000001 -.0000059 .0000001 1.0000003 -112.72927 33.893757)" gradientUnits="userSpaceOnUse" r="250"><stop offset="0" stop-color="#ff851a"/><stop offset=".42441937" stop-color="#f87000"/><stop offset=".86367416" stop-color="#f26900"/><stop offset="1" stop-color="#e55f00"/></radialGradient><g transform="translate(-1000)"><path d="m1500 250a250 250 0 0 1 -250 250 250 250 0 0 1 -250-250 250 250 0 0 1 250-250 250 250 0 0 1 250 250z" fill="url(#a)" stroke-linecap="round" stroke-linejoin="round" stroke-width="1.002"/><path d="m1309.2298 33.82789c128.5196 30.706851 207.8974 167.48127 169.5927 291.56949-31.3771 95.69524-112.8693 162.03793-212.5543 174.60263 153.1796-8.09118 266.0956-163.0043 218.7012-309.92978-36.4562-114.666588-154.6038-191.5214848-270.6514-169.822657-18.8526 4.215647-38.4387 10.498641-55.8829 18.694487-112.5353 47.459213-168.47522 196.206-99.9632 307.85319 57.6978 93.63045 168.5136 141.8489 267.9993 100.77239-134.92 68.97589-303.283-51.46877-311.488-201.30723-4.4167-117.68321 76.8182-219.674136 190.654-246.26040176-89.0147 9.18391126-152.6601 79.39239576-187.7408 157.21169176-38.45522 102.70317 5.2337 231.75078 109.038 294.08388 114.5107 66.1048 260.3537 29.37245 323.6836-83.60152 42.2104-77.69758 34.3514-177.62383-23.1776-249.88923-57.5404-72.257811-157.5429-102.460489-246.4118-71.877168-81.7429 30.682061-131.1298 101.133078-134.0478 190.176958.6692 92.68536 61.7912 168.55972 147.5399 198.52472 128.5549 37.82014 266.7725-70.33038 233.6823-209.88949-14.7104-64.39775-57.8855-122.14991-125.7378-141.121386-71.391-15.467036-138.9716 1.205-181.2869 64.641366-18.8995 29.2286-28.9384 85.21395-26.105 97.65297m0 0c13.5324-50.18833 30.6277-97.66354 72.2125-128.94941 53.182-38.308183 124.4576-37.093813 181.7444-.48035 50.1457 36.48017 75.4845 90.37713 72.3557 150.91678-6.6674 64.04407-38.4038 109.83277-91.6401 141.00844-63.9019 34.56125-135.3795 4.83213-189.1258-35.28385-78.8706-65.48566-79.7477-186.67235-8.9744-256.76104 63.7369-55.941605 167.0207-64.891564 238.7167-6.65053 78.8163 58.35315 90.3045 169.04089 40.972 246.62443-35.2274 56.41892-88.4571 87.60135-152.5581 93.63158-81.9488 2.18264-160.666-41.91503-196.8695-120.9383-36.2055-79.02511-22.5771-164.33167 26.8727-227.66064 49.4316-63.30896 138.3491-86.746364 220.4504-67.54202" fill="#c50"/></g><path d="m85.212891 97.162109-85.212891 190.181641 44.935547-22.29297s2.812364-1.39155 6.412109-2.88867c3.599746-1.49712 8.599537-2.83155 8.080078-2.76953.09186-.011.358197.0265.476563.0215l-.925781 8.63672-4.021485-4.53711 2.876953 15.21875-4.863281 45.37305 13.599609 70.73242c-1.390793 8.36413-4.662693 26.52766-8.050781 46.86523-3.607925 21.65718-7.094013 43.56955-7.86914 57.28125l-1.042969 18.43555 18.457031.57227 30.695313.94922 1-17.50782c.526524-9.22739 3.900054-32.06275 7.468754-53.38867 3.56869-21.32591 7.27251-41.60875 8.66601-50.14258l.50977-3.12695-1.89063-10.00391c1.40027 1.52988 2.81953 3.04993 4.49805 4.41407 8.6389 7.03928 20.34036 9.81743 31.54687 8.70117 11.21036-1.11665 22.39026-5.47681 34.21485-12.48828l38.77734-22.99414-43.95117-10.03711c-6.39846-1.46131-7.37254-2.77751-8.40234-4.03516-1.02981-1.25765-2.12618-3.81884-4.13672-8.96875-2.01055-5.14991-5.50074-13.70863-14.18555-19.80664-8.21006-5.76466-18.59405-7.47452-30.4082-6.82227l-5.52344-2.89062c-5.36406-2.80779-8.83217-5.7671-11.72461-10.14648l4.04102-39.72071c3.28629-1.14586 5.60481-1.94821 5.88476-2.22851.66607.24513 3.71015.80687 6.66602 1.86132 3.70233 1.32075 6.61718 2.64063 6.61718 2.64063l44.84375 20.4043z" fill="#994100"/><path d="m68.620899 500c1.29584-22.92291 13.699612-89.53188 16.242612-105.3458l-13.70919-71.30525 6.55066-61.12314c4.62068 1.35952 8.85363 2.10471 13.06248 1.67137l-4.03977 39.72705c4.96825 9.95546 12.093922 17.05011 21.867639 22.16612l-5.8472 12.43551c-6.836427-3.57806-12.910639-8.22921-17.988679-13.95766l13.370162 70.73429c-2.60174 15.93315-15.031504 82.45703-16.340924 105.40475zm106.971821-130.08453c-37.3833-8.53777-12.16591-42.41656-53.74266-39.18732-3.94312 21.04342-.78455 36.94615 8.52572 44.5018 9.29185 7.57631 24.69829 6.8522 45.21694-5.31448zm-118.299929-128.39568c-7.14412.85299-20.35543 7.40665-20.35543 7.40665l48.74809-108.79654 50.196079 105.73665s-14.17055-6.44739-21.67847-6.34117c-4.44102.0628-8.51524 2.62843-12.71947 4.11224-5.340147 1.88472-10.235429 6.26599-15.874079 6.08124-5.26479-.1725-9.35918-5.21904-14.44573-6.63696-4.49119-1.25197-9.25067-2.11377-13.87099-1.56211z" fill="#ffa348" stroke-width="36"/><path d="m353.67187 272.27926-5.44531 51 13.5918 70.95703c-2.66424 13.80078-11.1919 41.95382-11.95313 67.85156-.51529 17.53106 4.56047 25.69378 4.49414 37.81445l-.0996 17.98633 17.98828.11133 31.22461.19336.0976-18.01367c.0865-15.84766-2.94062-25.06841-4.02344-31.98633 15.89739 15.25046 41.18191 16.62347 65.63672 7.04883l34.81646-13.63082-32.36914-18.71289c-13.40464-7.7492-12.0685-12.1907-15.54102-25.28125-1.73625-6.54528-4.39655-15.68058-12.08203-23.52149-7.37498-7.52413-18.06944-11.93577-30.92187-13.83008l-3.48242-18.49023.83593.43945 21.15625-45.16406-15.22265-7.99805c-5.41511-2.84506-8.9154-5.85835-11.83985-10.32226l4.07227-40.1875c3.34659-1.17147 5.68752-1.98474 5.9707-2.26953.66526.24666 3.72603.81501 6.69727 1.8789 3.71851 1.33146 6.64648 2.66211 6.64648 2.66211l44.8125 20.46485-88.20508-186.496097-85.36132 191.214847 44.91015-22.35938s2.82594-1.40285 6.44141-2.91211c3.61546-1.50926 8.63484-2.85719 8.39941-2.78127z" fill="#994100"/><path d="m405.21771 397.82246c44.62476 5.74071 16.17038 39.13429 53.40349 60.65868-43.71373 17.11497-67.09756-9.32834-53.40349-60.65868zm-32.8591 102.17754c.087-15.89828-4.86908-24.83777-4.50032-37.38348.67902-23.10111 9.76231-52.29378 12.31556-68.2307l-13.76454-71.85984 6.57713-61.59853c4.63936 1.37009 8.88941 2.12107 13.11521 1.68437l-4.05602 40.03603c4.98833 10.03289 12.14274 17.18272 21.95594 22.33852l-5.87082 12.53223c-6.86406-3.60588-12.96281-8.29321-18.06138-14.06622l13.42418 71.28444c-2.6122 16.05708-11.72958 45.1638-12.41428 68.29011-.36821 12.4365 4.57759 21.29504 4.49158 37.05462zm-19.86682-259.93963c-7.17298.85963-20.43766 7.46426-20.43766 7.46426l48.94499-109.64272 50.39885 106.55903s-14.22776-6.49753-21.76603-6.39049c-4.45892.0633-8.54966 2.64887-12.77084 4.14423-5.36171 1.89938-10.2768 6.31472-15.93817 6.12854-5.28609-.17384-9.39702-5.25963-14.50412-6.68859-4.50933-1.2617-9.28803-2.13021-13.92702-1.57426z" fill="#ffa348" stroke-width="36"/><path d="m249.03711 0-99.50781 202.30469 45.1582-19.82813s3.69686-1.61762 8.39258-3.23437c4.69572-1.61676 11.07488-2.69359 10.51953-2.70117-1.13155-.0155 2.1738 1.23176 9.92773 3.87304.007.002.0356.0246.043.0273l5.20117 49.35546c-3.95472 6.07648-8.78312 10.30013-16.21484 14.05469l-15.83594 8.00196 22.88867 46.97851 4.1875-2.11523-5.90625 30.16015-.90234.11133c-15.87039 1.96319-28.35029 6.87959-36.99609 15.36133-8.64581 8.48174-11.80787 18.63889-13.88867 26.18164-4.16162 15.08551-2.99297 21.6392-20.41211 31.32227l-33.97266 18.88476 36.375 13.69336c30.35688 11.42877 60.26357 9.33523 78.09766-10.11719 1.4475-1.57885 2.62119-3.32825 3.85937-5.03711.15299 1.5606.3632 3.18393.45117 4.67188 1.31554 22.25144-5.60984 55.00464-5.47851 78.15234l.10351 18.00586 52.02149-.31055-.10157-17.99414c-.0786-13.8062 7.21969-49.81946 5.42579-80.44726-1.70683-29.14111-11.33543-61.89248-14.53321-78.5918l2.32227-11.66015c8.52853 8.66511 20.69293 13.26845 33.32617 13.79296 12.78393.53077 26.41791-2.48658 41.42969-8.52539l43.26367-17.40429-43.73633-16.17774c-8.18283-3.02686-10.08021-5.41957-11.51562-7.67773s-2.35502-5.76769-3.92774-12.00391-4.31738-16.06886-12.90429-23.79883c-8.14711-7.33404-19.30638-10.79291-33.1211-11.93164l-4.53711-40.86328 1.09375-5.58789-1.52929 1.66602-2.38282-21.45899c2.18121-.34024 4.09986-.51015 5.35742-.36523.39466.0455 6.4851 1.73455 11.00977 3.55078s8.0625 3.50781 8.0625 3.50781l45.20117 21.64063z" fill="#994100"/><path d="m219.19825 344.85259c-54.11609 6.69423-19.60969 45.63439-64.76199 70.73393 53.01133 19.95772 81.3687-10.87775 64.76199-70.73393zm39.84799 155.05221c-.10548-18.53894 7.01056-52.98043 5.45751-79.49603-1.5778-26.93824-11.8387-60.97963-14.93503-79.56363l16.69219-83.79557-7.97603-71.82989c-5.6261 1.59766-10.7801 2.47338-15.90476 1.96414l4.91879 46.68591c-6.0493 11.69933-14.72545 20.03673-26.62584 26.04889l7.1195 14.6138c8.32397-4.20481 15.71988-9.67069 21.90285-16.40258l-16.27939 83.1246c3.16786 18.72411 13.4604 52.66551 15.05474 79.63291 1.56005 26.3872-5.55116 60.73534-5.4469 79.11255zm79.25347-182.23348c-43.71537-16.17048-7.84933-51.40521-58.51569-54.57671-8.14151 23.83938-6.89044 42.87829 3.12331 53.22583 9.98821 10.36851 28.68682 12.09376 55.39238 1.35088zm-55.16113-156.78468c8.69862 1.00241 24.7846 8.70405 24.7846 8.70405l-59.35525-127.854088-61.1183 124.258208s17.25394-7.57675 26.39551-7.45193c5.40735.0738 10.36809 3.08884 15.48711 4.83257 6.50212 2.21486 12.46257 7.36358 19.32814 7.14647 6.41037-.20271 11.39566-6.13324 17.589-7.79954 5.46843-1.47127 11.26353-2.48403 16.88919-1.83574z" fill="#ffa348" stroke-width="36"/></svg>