<svg height="500.0004" viewBox="0 0 500 500.0004" width="500" xmlns="http://www.w3.org/2000/svg"><g transform="translate(-500 -500)"><path d="m999.99997 750a249.99997 250 0 0 1 -249.99997 250 249.99997 250 0 0 1 -249.99997-250 249.99997 250 0 0 1 249.99997-250 249.99997 250 0 0 1 249.99997 250z" fill="#ffe24c"/><path d="m1000 750.00632-194.05817-2.60063 192.98367-20.4591-193.45987 15.31075 190.28547-38.19139-191.22567 33.10816 185.92267-55.58184-187.34707 50.61663 180.01317-72.50831-181.88127 67.68555 172.56127-88.82024-174.86477 84.18876 163.62798-104.35075-166.35478 99.94311 153.30278-119.00625-156.40808 114.88758 141.65488-132.65651-145.14668 128.82271 128.82258-145.14278-132.65648 141.65492 114.88758-156.42029-119.00218 153.31093 99.94719-166.3385-104.34669 163.60764 84.17649-174.84041-88.81609 172.54909 67.67739-181.89345-72.48799 180.02133 50.6167-187.35925-55.5941 185.94294 33.1-191.23373-38.1995 190.27732 15.3474-193.45586-20.4957 192.97968-2.59249-194.05413-2.5681 194.05413-20.4916-192.97968 15.327 193.45586-38.2004-190.27732 33.1171 191.23373-55.5936-185.94294 50.6162 187.35925-72.51029-180.02133 67.69979 181.89345-88.81699-172.54909 84.17729 174.84041-104.36289-163.60764 99.96869 166.3385-119.00618-153.31093 114.86968 156.42029-132.64018-141.65492 128.81968 145.14278-145.14988-128.82271 141.67318 132.65651-156.42638-114.88758 153.29788 119.00625-166.34218-99.94311 163.62828 104.35075-174.86477-84.18876 172.54667 88.82024-181.87387-67.68555 180.00617 72.50831-187.35587-50.61663 185.94077 55.58184-191.21897-33.10816 190.28097 38.19139-193.47947-15.31075 192.98647 20.4591-194.04384 2.60063 194.04384 2.58435-192.98647 20.46723 193.47947-15.31481-190.28097 38.20361 191.21897-33.12445-185.94077 55.58997 187.35587-50.60849-180.00617 72.5083 181.87387-67.68553-172.54667 88.81211 174.86477-84.17656-163.62828 104.33851 166.34218-99.95936-153.29788 119.0103 156.42638-114.87941-141.67318 132.66054 145.14988-128.83082-128.81968 145.13868 132.64018-141.66304-114.86968 156.42028 119.00618-153.28243-99.96869 166.32222 104.36289-163.59543-84.17729 174.84852 88.81699-172.55719-67.69979 181.8975 72.51029-180.02538-50.6162 187.35108 55.5936-185.93884-33.1171 191.21336 38.2004-190.26101-15.327 193.47618 20.4916-192.99594 2.5681 194.05003 2.59249-194.05003 20.4957 192.99594-15.3474-193.47618 38.1995 190.26101-33.1-191.21336 55.5941 185.93884-50.6167-187.35108 72.48799 180.02538-67.67739-181.8975 88.81609 172.55719-84.17649-174.84852 104.34669 163.59543-99.94719-166.32222 119.00218 153.28243-114.88758-156.42028 132.65648 141.66304-128.82258-145.13868 145.14668 128.83082-141.65488-132.66054 156.40808 114.87941-153.30278-119.0103 166.35478 99.95936-163.62798-104.33851 174.86477 84.17656-172.56127-88.81211 181.88127 67.68553-180.01317-72.5083 187.34707 50.60849-185.92267-55.58997 191.22567 33.12445-190.28547-38.20361 193.45987 15.31481-192.98367-20.46723z" fill="#fffbb3" fill-rule="evenodd"/></g><path d="m197.4707 81.533203c-15.6227.07154-29.42906 3.14638-39.49023 14.867188-3.73026 4.344419-7.23478 11.355859-7.91016 18.931639-6.34151-1.69049-13.80068-1.48301-19.60547.27735h-.00195-.00195c-7.6823 2.33184-14.47256 6.35453-21.62696 11.625-12.46882 9.1857-23.141446 21.48923-22.33398 39.11914.1171 2.54771.640777 5.10589 1.382812 7.65625-3.339527-.46923-6.760916-.60382-10.40625-.29883-6.084251.50901-14.743859 4.44046-19.265624 8.92578-5.4984 5.45348-9.007047 12.08048-12.115235 20.73828-4.992685 13.9058-8.962006 27.65596.009766 42.24023 1.722088 2.79935 3.879908 5.27343 6.425781 7.44922-3.672301 2.79018-7.956519 7.42177-9.537109 10.63282v.00195l-.001953.0039c-2.779286 5.65099-3.789001 10.90678-4.638672 17.83399-.910635 7.42054-.629639 14.41923 2.1875 21.25195l-.236328 52.73047c1.815287 13.48831 4.03021 26.46879 6.611328 38.99024a249.99997 250 0 0 0 4.078125 5.7539l-.501953.38867.511718-.375a249.99997 250 0 0 0 14.517578 17.89649l-.277343.25976.285156-.25195a249.99997 250 0 0 0 16.287109 16.28711l-.242187.27148.248047-.26562a249.99997 250 0 0 0 17.894531 14.51758l-.371094.50586.384766-.4961a249.99997 250 0 0 0 18.783201 13.31641l-.13086.21875.13672-.21484a249.99997 250 0 0 0 20.24805 11.05664l-.19922.41211.20898-.40625a249.99997 250 0 0 0 21.12891 9.15429l-.2207.5918.23633-.58594a249.99997 250 0 0 0 21.69531 7.77344l-.03711.13867.04101-.13672a249.99997 250 0 0 0 22.52344 4.89844l-.08789.51172.10156-.50781a249.99997 250 0 0 0 22.81836 3.13086l-.04687.59375.0625-.59375a249.99997 250 0 0 0 22.99804 1.64648 249.99997 250 0 0 0 .00977 0 249.99997 250 0 0 0 23.01562-1.64648l.0625.59375-.04687-.59375a249.99997 250 0 0 0 22.79687-3.12891l.10157.50586-.08789-.50781a249.99997 250 0 0 0 22.54101-4.9043l.04102.13867-.03711-.13867a249.99997 250 0 0 0 21.67578-7.76563l.23242.57813-.2168-.58398a249.99997 250 0 0 0 21.14649-9.16407l.20898.40821-.19921-.41407a249.99997 250 0 0 0 20.23632-11.04883l.13282.20899-.12696-.21289a249.99997 250 0 0 0 18.79688-13.32422l.38672.49805-.37305-.50782a249.99997 250 0 0 0 17.89062-14.51562l.25.26562-.24218-.27343a249.99997 250 0 0 0 16.2832-16.28321l.2832.25-.27539-.25781a249.99997 250 0 0 0 14.51953-17.89844l.50977.375-.5-.38867a249.99997 250 0 0 0 3.10352-4.37695c2.9165-13.85142 5.39772-28.26897 7.36914-43.32227l.6875-71.02539c-.84915-6.93107-1.86632-12.19144-4.64454-17.83789v-.00195l-.00195-.00195c-1.57879-3.20605-5.86344-7.83934-9.53711-10.63086 2.5457-2.17518 4.70188-4.64914 6.42383-7.44727l.00195-.00195v-.00196c8.97002-14.58571 5.00113-28.3343.00977-42.24023-3.10834-8.65828-6.61846-15.28312-12.10938-20.73438-4.53174-4.49379-13.19213-8.41778-19.26367-8.92773h-.00195-.00391c-3.64618-.30496-7.06917-.16898-10.41015.30078.74272-2.55224 1.26593-5.11295 1.38281-7.66406.80735-17.62509-9.86269-29.93031-22.33008-39.11719v-.00195h-.00195c-7.15799-5.27298-13.95199-9.28856-21.62305-11.61914l-.00391-.00195-.00585-.00196c-5.51125-1.67097-12.53878-1.97658-18.69336-1.04492-.87983-7.63351-4.35947-14.04953-7.88672-18.158203l-.00196-.001953-.00195-.001953c-10.12087-11.783102-23.65373-14.826193-40.7832-14.865235-13.34241.216912-23.61012 4.074844-30.98242 9.589844l-.00196.001953-.00195.001953c-8.82564 6.605669-14.75538 15.640194-19.98633 25.429684-5.21575-9.75151-11.10486-18.805427-19.95898-25.429684-7.89104-5.908077-19.44241-9.791542-32.27735-9.595703z" fill="#f2c80d"/><path d="m298.89844 99.492188c-7.9046.181517-13.61106 2.449512-18.41992 6.046872-5.49296 4.11128-9.86552 10.35696-13.15821 18.07813-6.58535 15.44138-8.39062 36.29494-8.39062 51.58398v.06055l-.18164 35.70312v.0918h-18.05274v-.08984l-.20898-35.70313v-.06055c0-15.29-1.80722-36.14355-8.39258-51.58398-3.29365-7.7231-7.63498-13.96782-13.12891-18.07812-5.14812-3.85674-11.34638-6.185523-21.29492-6.015629-12.23671.04165-21.72826 3.586829-26.03125 8.599609-4.09049 4.76307-5.92089 11.43973.08985 24.61914 5.85322 9.0826 10.60421 21.4741 14.72851 37.48242l-17.47656 4.49024c-7.11852-27.64505-16.04616-38.95884-22.42578-41.76172-3.18934-1.4-6.3314-1.49602-10.86524-.1211-4.53286 1.37589-10.12554 4.43128-16.17773 8.89063-9.38834 6.91704-15.39056 15.95815-15.03125 23.80273.2801 6.09171 4.08121 13.80053 16.7207 22.14649 1.06247.59008 2.11164 1.16027 3.19922 1.77734l-.08984.18164c2.95944 1.77603 6.27874 3.57702 10.11328 5.39258l-7.75586 16.30078c-5.2283-2.47602-9.91636-5.09437-14.09766-7.80469-15.639498-8.57447-27.186113-12.40913-33.593748-11.87304-3.399892.28444-5.53413 1.23177-8.089843 3.76758-2.556682 2.53579-5.338323 7.04587-7.84961 14.04101-4.169694 11.61358-4.968594 21.25001-1.599609 26.72656 2.692869 4.3774 9.350377 8.88078 24.78125 10.39453 3.723462.0771 7.679775.23099 12.013672.42188v.12109c.442374 0 .84776.004 1.298828 0l.181641 18.01758c-4.560877.0434-8.821686-.10274-12.830079-.42187-12.537102-.0771-20.211006.92606-23.572265 2.62109-2.111408 1.0635-3.010827 1.96178-4.166016 4.30859-1.154225 2.34683-2.220692 6.33357-2.925781 12.08204-.658729 5.36663-.207735 9.36167.964844 12.20312 1.170643 2.84145 2.932387 4.95638 6.972656 7.11133 8.079575 4.30989 25.895299 6.92459 55.62891 4.39844l1.53906 17.95898c-23.129894 1.96501-40.302052 1.60595-53.394532-1.7793-1.128147 4.39379-.944002 7.81343-.121094 10.69922 1.116554 3.90977 3.604106 7.249 7.365234 10.21289 7.524193 5.92684 20.331984 9.21875 27.919922 9.21875h109.05078c13.1205 0 24.48066-9.67148 28.82422-26.90625l7.78711-30.91406 9.56836 30.40234c5.55573 17.64455 17.2508 27.41797 28.97656 27.41797h109.05664c6.8307 0 19.64349-4.17662 27.40625-10.93554 3.8809-3.38043 6.54593-7.17083 7.69531-11.11914.7437-2.54545.97133-5.24374.33399-8.40625-13.2393 3.68702-30.7521 4.13611-54.60156 2.11132l1.53906-17.95898c29.73551 2.52616 47.55028-.09151 55.62891-4.40039 4.04121-2.15399 5.80104-4.26988 6.97265-7.11133 1.17162-2.84048 1.62549-6.83454.9668-12.20117-.70511-5.74943-1.77351-9.73617-2.92774-12.08203-1.15615-2.34779-2.05363-3.24609-4.16601-4.31055-3.36129-1.69407-11.03425-2.69823-23.57422-2.62109-4.00842.32009-8.26724.46625-12.82617.42382l.17969-18.02148c.45103.006.85741 0 1.29882 0v-.11914c4.33486-.1909 8.2902-.34571 12.01368-.42188 15.4299-1.51375 22.08547-6.01519 24.77929-10.39257 3.36801-5.47656 2.56914-15.11494-1.59961-26.72852-2.51126-6.99514-5.29289-11.50425-7.84765-14.04101-2.55667-2.53581-4.69186-3.48023-8.08985-3.76563-6.40954-.53609-17.95422 3.29662-33.59375 11.87109-4.1803 2.70936-8.86644 5.3277-14.0957 7.80469l-7.75781-16.30273c3.83453-1.81653 7.15285-3.61463 10.11132-5.39258l-.08984-.18164c1.08758-.61708 2.13675-1.18535 3.19922-1.77734 12.6385-8.34405 16.44058-16.05479 16.71875-22.14649.36019-7.84555-5.63901-16.88473-15.02734-23.80273-6.05219-4.45839-11.64779-7.51182-16.17969-8.88868-4.5348-1.37491-7.67784-1.27984-10.86524.1211-2.23117.98154-4.76521 3.02456-9.36328 9.61523-4.59806 6.59068-9.09825 16.85844-13.03711 32.14844l-17.50586-4.48828c4.67776-18.1652 10.15157-31.6809 17.14454-40.97852 4.17741-10.89815 2.32127-16.80158-1.38868-21.12304-4.30491-5.01183-13.82693-8.554691-24.93164-8.554691h-.21289l-.24023-.029297c-1.22281-.06147-2.39616-.078674-3.52539-.052734zm-48.84375 250.554692c-8.76535 13.14565-22.26682 21.72265-37.91211 21.72265h-109.05274c-11.891889 0-27.068517-3.63626-39.08984-13.10742-2.079536-1.63911-4.054103-3.48926-5.855469-5.54297 3.532279 26.24625 8.593949 50.42561 14.925781 72.60352a249.99997 250 0 0 0 8.746094 8.74609l-.242187.27148.248047-.26562a249.99997 250 0 0 0 17.894531 14.51758l-.371094.50586.384766-.4961a249.99997 250 0 0 0 18.783201 13.31641l-.13086.21875.13672-.21484a249.99997 250 0 0 0 20.24805 11.05664l-.19922.41211.20898-.40625a249.99997 250 0 0 0 21.12891 9.15429l-.2207.5918.23633-.58594a249.99997 250 0 0 0 21.69531 7.77344l-.03711.13867.04101-.13672a249.99997 250 0 0 0 22.52344 4.89844l-.08789.51172.10156-.50781a249.99997 250 0 0 0 22.81836 3.13086l-.04687.59375.0625-.59375a249.99997 250 0 0 0 22.99804 1.64648 249.99997 250 0 0 0 .00977 0 249.99997 250 0 0 0 23.01562-1.64648l.0625.59375-.04687-.59375a249.99997 250 0 0 0 22.79687-3.12891l.10157.50586-.08789-.50781a249.99997 250 0 0 0 22.54101-4.9043l.04102.13867-.03711-.13867a249.99997 250 0 0 0 21.67578-7.76563l.23242.57813-.2168-.58398a249.99997 250 0 0 0 21.14649-9.16407l.20898.40821-.19921-.41407a249.99997 250 0 0 0 20.23632-11.04883l.13282.20899-.12696-.21289a249.99997 250 0 0 0 18.79688-13.32422l.38672.49805-.37305-.50782a249.99997 250 0 0 0 17.89062-14.51562l.25.26562-.24218-.27343a249.99997 250 0 0 0 7.70312-7.70313c6.76201-23.26792 12.10542-48.76746 15.74219-76.53711-1.82358 2.26101-3.86358 4.31108-6.00781 6.17774-11.67941 10.17212-26.61846 15.36914-39.26758 15.36914h-109.05469c-15.17684 0-28.26533-8.62044-37.24414-21.72656zm-99.17188 36.80273v.00195c24.53815.4088 51.11124 17.39627 61.16797 49.09571-18.19715 32.20368-91.71055 29.50053-101.38672-28.25977 8.65427-13.62197 22.74523-20.41056 37.85156-20.82227.78526-.0227 1.57517-.02702 2.36719-.01562zm194.18946.01562c15.81142-.12548 30.7374 6.63141 39.75195 20.82032-9.67521 57.76034-83.22082 60.4654-101.41797 28.26172 10.12241-31.90482 36.99554-48.88728 61.66602-49.08204zm-184.15235 20.63868c-8.4495 0-15.12109 6.66009-15.12109 15.09765 0 8.43662 6.6745 15.06446 15.12305 15.06446 8.45143 0 15.09179-6.62784 15.09179-15.06446 0-8.43465-6.64229-15.0957-15.09179-15.0957zm174.55469 0c-8.45144 0-15.12305 6.66009-15.12305 15.09765 0 8.43662 6.67158 15.06446 15.1211 15.06446 8.45143 0 15.09179-6.62784 15.09179-15.06446 0-8.43465-6.64034-15.0957-15.08984-15.0957z" fill="#fffdcc" stroke-width="36"/></svg>