<svg height="500" viewBox="0 0 500 500" width="500" xmlns="http://www.w3.org/2000/svg" xmlns:xlink="http://www.w3.org/1999/xlink"><radialGradient id="a" cx="1362.7291" cy="216.11429" gradientTransform="matrix(1.0000001 -.0000059 .0000001 1.0000003 -112.72927 33.893757)" gradientUnits="userSpaceOnUse" r="250"><stop offset="0" stop-color="#ff851a"/><stop offset=".42441937" stop-color="#f87000"/><stop offset=".86367416" stop-color="#f26900"/><stop offset="1" stop-color="#e55f00"/></radialGradient><g transform="translate(-1000)"><path d="m1500 250a250 250 0 0 1 -250 250 250 250 0 0 1 -250-250 250 250 0 0 1 250-250 250 250 0 0 1 250 250z" fill="url(#a)" stroke-linecap="round" stroke-linejoin="round" stroke-width="1.002"/><path d="m1309.2298 33.82789c128.5196 30.706851 207.8974 167.48127 169.5927 291.56949-31.3771 95.69524-112.8693 162.03793-212.5543 174.60263 153.1796-8.09118 266.0956-163.0043 218.7012-309.92978-36.4562-114.666588-154.6038-191.5214848-270.6514-169.822657-18.8526 4.215647-38.4387 10.498641-55.8829 18.694487-112.5353 47.459213-168.47522 196.206-99.9632 307.85319 57.6978 93.63045 168.5136 141.8489 267.9993 100.77239-134.92 68.97589-303.283-51.46877-311.488-201.30723-4.4167-117.68321 76.8182-219.674136 190.654-246.26040176-89.0147 9.18391126-152.6601 79.39239576-187.7408 157.21169176-38.45522 102.70317 5.2337 231.75078 109.038 294.08388 114.5107 66.1048 260.3537 29.37245 323.6836-83.60152 42.2104-77.69758 34.3514-177.62383-23.1776-249.88923-57.5404-72.257811-157.5429-102.460489-246.4118-71.877168-81.7429 30.682061-131.1298 101.133078-134.0478 190.176958.6692 92.68536 61.7912 168.55972 147.5399 198.52472 128.5549 37.82014 266.7725-70.33038 233.6823-209.88949-14.7104-64.39775-57.8855-122.14991-125.7378-141.121386-71.391-15.467036-138.9716 1.205-181.2869 64.641366-18.8995 29.2286-28.9384 85.21395-26.105 97.65297m0 0c13.5324-50.18833 30.6277-97.66354 72.2125-128.94941 53.182-38.308183 124.4576-37.093813 181.7444-.48035 50.1457 36.48017 75.4845 90.37713 72.3557 150.91678-6.6674 64.04407-38.4038 109.83277-91.6401 141.00844-63.9019 34.56125-135.3795 4.83213-189.1258-35.28385-78.8706-65.48566-79.7477-186.67235-8.9744-256.76104 63.7369-55.941605 167.0207-64.891564 238.7167-6.65053 78.8163 58.35315 90.3045 169.04089 40.972 246.62443-35.2274 56.41892-88.4571 87.60135-152.5581 93.63158-81.9488 2.18264-160.666-41.91503-196.8695-120.9383-36.2055-79.02511-22.5771-164.33167 26.8727-227.66064 49.4316-63.30896 138.3491-86.746364 220.4504-67.54202" fill="#c50"/></g><path d="m205.63672 0c-68.85383 7.1038527-122.451688 50.773684-159.468751 106.18164-10.12499 14.25033-18.727423 29.52336-25.666016 45.56836-.858099 1.82411-1.779069 3.62769-2.605469 5.46094-1.685698 4.5021-3.157398 9.0705-4.529296 13.66601-8.6870918 25.48252-13.20088817 52.20102-13.367188 79.12305 0 42.23071 10.498779 82.00006 28.986328 116.88477l10.65625-.90235c10.120796-1.39603 37.417156-6.67372 57.314453-11.69922l24.060549-6.07812-13.62891-21.63477 36.75586-22.67773c6.14725 40.21943 2.26776 79.71216-11.56836 115.51367l-5.84765 15.13086-7.98243 13.84961c-7.99254 13.86767-17.6964 27.03421-29.171871 39.32617l-11.470703 12.28711h131.597654c13.92173-37.04973 20.66951-74.1593 21.45313-111.15625 6.34746 36.11457 7.65206 72.48861 4.57031 109.66602l-.12305 1.49023h185.77149l-.13282-1.54492c-3.60342-41.86272-17.82477-82.11687-39.86718-121.16211 36.6008 33.90533 70.26745 79.77898 88.2207 122.70703h30.40234v-270.01562l-2.88867.4707c-26.32918 4.2829-52.16323 6.04168-77.76758 5.0957 26.91294-4.25702 53.85325-11.9722 80.65625-23.85547v-211.69531h-2.48632l-12.67969 19.841797c-49.70998 77.787647-118.90826 119.391983-191.8711 123.330083l20.22266-37.25782c1.29595.96881 2.59066 1.79776 3.88672 2.80274l17.45312 13.5332c14.86507-30.297851 29.11702-58.451257 43.42774-87.064453-37.431-22.343084-81.18922-35.185547-127.94922-35.185547-41.89096.22254552-83.05452 10.968277-119.70898 31.25 22.77517-14.173791 48.11263-24.8897292 75.3457-31.25zm-12.42578 93.298828 71.83008 49.531252c-2.817-.21734-5.63178-.38817-8.45313-.7168l-.17187-.03125c-25.80147-4.76782-49.55823-24.72109-63.20508-48.783202zm-119.300784 62.644532c38.527084 45.87385 61.788694 96.14247 69.830074 145.45508l-61.681636-109.75586-13.207032-13.20703c1.13738-7.81268 2.844619-15.31295 5.058594-22.49219z" fill="#994100"/><path d="m205.63672 0c-68.85383 7.1038527-122.451688 50.773684-159.468751 106.18164-10.12499 14.25033-18.727423 29.52336-25.666016 45.56836-.858099 1.82411-1.779069 3.62769-2.605469 5.46094-1.685698 4.5021-3.157398 9.0705-4.529296 13.66601-8.6870918 25.48252-13.20088817 52.20102-13.367188 79.12305 0 35.5694 7.5085378 69.36138 20.898438 99.99414l6.693359-.51953c18.773578-2.59049 45.988416-7.85361 64.957031-12.64453-64.118221-101.56935-51.26609-197.14173 2.328125-249.677736 53.672227-52.612029 146.476137-59.923977 233.222657 7.339844 4.84092-9.85888 10.68317-24.263137 16.79687-36.013672 5.58695-10.738109 12.4435-20.779643 18.16016-31.447266-33.95931-17.2540005-72.35699-27.03125-113.05664-27.03125-41.89096.22254552-83.05452 10.968277-119.70898 31.25 22.77517-14.173791 48.11263-24.8897292 75.3457-31.25zm294.35937 29.533203c-61.20668 95.778257-153.27829 141.796037-246.86914 130.339847l.01758-.08985c-44.04834-8.13958-80.09387-48.28214-88.27344-90.988278l-5.10156.978516c-4.38283 1.340254-8.65385 2.906444-12.80664 4.675781 5.02096 23.960566 17.05749 46.758381 34.05273 65.005861-23.39946-10.52601-46.40937-24.87296-68.55859-43.148439-1.5303 1.36326-3.03181 2.760034-4.49609 4.195309-10.572021 10.36197-19.46508 22.71927-26.193362 36.75196 79.013062 89.63308 102.255272 198.96448 67.597652 288.64257h.02344c10.30364.2956 18.50229 8.73509 18.49805 19.04297.0881 17.76041-22.03646 25.96145-33.54688 12.43555-8.67965 15.05986-19.20905 29.34057-31.60742 42.62109h87.76172c39.76757-99.53198 23.98625-199.06178-19.25-298.59375 67.33083 99.61098 90.84452 196.96138 82.41992 298.59375h40.86719c6.33919-49.10936-1.41485-99.92922-17.83398-151.29101 27.98534 51.95991 42.67011 101.92557 46.17578 151.29297h80.43359c-7.11739-82.68575-59.36339-161.47948-136.04102-238.32813 51.85689 37.2771 99.13398 74.25406 137.69532 113.60156 4.65654-10.31089 15.05013-16.81642 26.35937-16.50195 15.18553.43691 27.26626 12.87656 27.25781 28.06836.0546 12.25935-7.85388 23.13664-19.5332 26.86328 21.47109 27.11216 38.57604 55.61998 50.11524 86.29883h10.83593v-251.77734c-90.96334 14.79682-178.18715.84916-267.41015-51.79688 28.81548 10.04192 57.6269 17.51784 86.4414 21.64063-.52164-1.52341-.7936-3.12029-.80859-4.73047.00034-8.47587 7.00236-15.27682 15.47461-15.0293 8.12978.23751 14.59592 6.898 14.5957 15.03125-.0172 2.68051-.74928 5.30761-2.12304 7.60938 51.27676 3.41765 102.55235-4.68228 153.82812-29.00391v-52.86914c-13.6406 7.01933-27.81554 13.49831-42.56836 19.39844-1.76904 15.68092-20.74819 22.52951-32.12305 11.59179-23.38245 7.59145-48.12481 13.84393-74.42382 18.58985 23.98956-9.11474 46.94883-19.3082 68.66797-30.77539-.0469-.53784-.07117-1.07731-.07227-1.61719-.004-10.73533 8.86092-19.35195 19.5918-19.04297 3.75119.11555 7.38596 1.336 10.44531 3.50977 17.90642-11.11911 34.78439-23.28975 50.48437-36.6543zm-300.3125 34.400391c-5.44903-.0055-10.79806.308183-16.03906.904297l95.57813 65.908199 18.93945-34.892574c-34.17652-22.124217-67.85768-31.891918-98.47852-31.919922zm-132.105465 138.685546c.06201 32.42618 9.328807 68.90204 30.671875 107.56641l22.33594-13.24805zm329.394535 88.95898-.00196.00196c10.30441.29616 18.50198 8.73821 18.4961 19.04687.007 10.52288-8.52009 19.05664-19.04297 19.05664-10.52287 0-19.05174-8.53376-19.04492-19.05664-.007-10.73771 8.86052-19.359 19.59375-19.04883z" fill="#ffa348" stroke-width="36"/></svg>