<svg height="500" viewBox="0 0 500 500" width="500" xmlns="http://www.w3.org/2000/svg" xmlns:xlink="http://www.w3.org/1999/xlink"><radialGradient id="a" cx="1362.7291" cy="216.11429" gradientTransform="matrix(1.0000001 -.0000059 .0000001 1.0000003 -112.72927 33.893757)" gradientUnits="userSpaceOnUse" r="250"><stop offset="0" stop-color="#ff851a"/><stop offset=".42441937" stop-color="#f87000"/><stop offset=".86367416" stop-color="#f26900"/><stop offset="1" stop-color="#e55f00"/></radialGradient><g transform="translate(-1000)"><path d="m1500 250a250 250 0 0 1 -250 250 250 250 0 0 1 -250-250 250 250 0 0 1 250-250 250 250 0 0 1 250 250z" fill="url(#a)" stroke-linecap="round" stroke-linejoin="round" stroke-width="1.002"/><path d="m1309.2298 33.82789c128.5196 30.706851 207.8974 167.48127 169.5927 291.56949-31.3771 95.69524-112.8693 162.03793-212.5543 174.60263 153.1796-8.09118 266.0956-163.0043 218.7012-309.92978-36.4562-114.666588-154.6038-191.5214848-270.6514-169.822657-18.8526 4.215647-38.4387 10.498641-55.8829 18.694487-112.5353 47.459213-168.47522 196.206-99.9632 307.85319 57.6978 93.63045 168.5136 141.8489 267.9993 100.77239-134.92 68.97589-303.283-51.46877-311.488-201.30723-4.4167-117.68321 76.8182-219.674136 190.654-246.26040176-89.0147 9.18391126-152.6601 79.39239576-187.7408 157.21169176-38.45522 102.70317 5.2337 231.75078 109.038 294.08388 114.5107 66.1048 260.3537 29.37245 323.6836-83.60152 42.2104-77.69758 34.3514-177.62383-23.1776-249.88923-57.5404-72.257811-157.5429-102.460489-246.4118-71.877168-81.7429 30.682061-131.1298 101.133078-134.0478 190.176958.6692 92.68536 61.7912 168.55972 147.5399 198.52472 128.5549 37.82014 266.7725-70.33038 233.6823-209.88949-14.7104-64.39775-57.8855-122.14991-125.7378-141.121386-71.391-15.467036-138.9716 1.205-181.2869 64.641366-18.8995 29.2286-28.9384 85.21395-26.105 97.65297m0 0c13.5324-50.18833 30.6277-97.66354 72.2125-128.94941 53.182-38.308183 124.4576-37.093813 181.7444-.48035 50.1457 36.48017 75.4845 90.37713 72.3557 150.91678-6.6674 64.04407-38.4038 109.83277-91.6401 141.00844-63.9019 34.56125-135.3795 4.83213-189.1258-35.28385-78.8706-65.48566-79.7477-186.67235-8.9744-256.76104 63.7369-55.941605 167.0207-64.891564 238.7167-6.65053 78.8163 58.35315 90.3045 169.04089 40.972 246.62443-35.2274 56.41892-88.4571 87.60135-152.5581 93.63158-81.9488 2.18264-160.666-41.91503-196.8695-120.9383-36.2055-79.02511-22.5771-164.33167 26.8727-227.66064 49.4316-63.30896 138.3491-86.746364 220.4504-67.54202" fill="#c50"/></g><path d="m132.10352 70.304687c-6.19917.174043-11.92742.900293-17.16602 1.488282l-22.132813 2.484375 7.072266 21.11914c14.100507 42.106126 30.692847 100.608546 64.011717 138.712886 6.4718 23.46545 9.71832 42.19512 26.66211 75.69727-19.27513 36.74112-32.00774 87.15985-40.07617 136.1543l-47.74219 5.9707v48.06836h99.76172l4.10156-12.30859c8.70208-26.11451 28.84612-69.73094 43.4043-100.3125 14.55817 30.58156 34.70027 74.19809 43.40234 100.3125l4.10157 12.30859h99.76171v-48.06836l-47.74023-5.9707c-8.01359-48.69601-20.68819-99.27876-42.5957-136.38282 19.18293-33.88407 20.55069-52.86044 28.65039-74.86328 33.66751-38.08934 50.36327-96.98887 64.54101-139.318356l6.31641-18.857422-19.39258-4.410156c-14.25028-3.241294-26.68459-1.512587-37.16211-.335937l-10.66406 1.197265-4.01758 9.949219c-7.67254 18.998227-19.18201 41.615817-31.78711 61.921877-5.47722-27.15116-26.53713-48.476564-53.41406-48.476564-26.87692 0-47.93878 21.325394-53.41602 48.476564-12.60495-20.30633-24.11454-42.92411-31.78711-61.921877l-3.52343-8.724609-9.17578-2.085938c-7.12442-1.619735-13.79497-1.998261-19.99414-1.824219z" fill="#994100"/><path d="m249.99917 114.38386c-19.68917 0-36.8552 19.13294-36.8552 44.42925s17.16603 44.42925 36.8552 44.42925c19.68919 0 36.85518-19.13294 36.85518-44.42925s-17.16599-44.42925-36.85518-44.42925zm117.47544-26.051829c-5.14557.15216-10.29297.753463-15.58399 1.347657-11.46405 28.386502-30.15255 63.215332-50.06054 89.535152-7.29185 24.00758-27.11728 42.02735-51.83008 42.02735-24.71359 0-44.5422-18.02057-51.83398-42.0293-19.90711-26.31988-38.59471-61.14789-50.0586-89.533202-10.57614-2.404485-20.58035-1.187714-31.16211 0 14.68536 43.852572 32.78794 103.187362 63.25391 135.755862 8.24137 28.73812 9.31938 44.81683 30.63867 84.51953-21.31929 35.92149-36.43949 96.42055-44.74609 152.19336l-45.35938 5.67187v14.17969h68.78711c15.12005-45.37449 60.48047-136.12305 60.48047-136.12305s45.36038 90.74856 60.48047 136.12305h68.78515v-14.17969l-45.35937-5.67187c-8.30658-55.77281-23.42598-116.27187-47.99609-152.19336 24.57011-39.7027 22.84534-56.32584 33.85937-84.48828 30.47637-32.56756 48.59121-91.92225 63.2832-135.787112-5.28822-1.202832-10.43255-1.499816-15.57812-1.347657z" fill="#ffa348" stroke-width="36"/><g fill="#994100"><path d="m457.04796 77.836619 1.3558.246419-1.36144-.218203z"/><path d="m42.952315 77.836619.0057.02633-1.361451.218203z"/><path d="m249.99826 41.220072c-52.88814 0-105.7793 4.116184-162.362504 12.251288l-.142914.02258-48.846775 7.832698-.176764.03197-34.0475712 6.164206 9.6956412 52.127706 33.537967-6.0758 47.868937-7.68222c.612197-.0683 104.900083-11.707959 154.473983-11.707662 49.57393.000296 153.86366 11.641182 154.47585 11.709542l47.87082 7.68221 33.53797 6.07393 9.69564-52.127706-34.22245-6.196183-48.84866-7.836461-.1448-.02069c-56.58441-8.132129-109.47438-12.249408-162.36437-12.249408z"/></g><path d="m250 59.222656c-46.37755 0-92.79387 3.239161-141.95703 9.642578l2.83008 16.048828.21093 1.19336c32.08574-3.355482 99.84357-9.926015 138.91602-9.925781 39.04355.000233 106.79942 6.56551 138.91406 9.923828l.21094-1.195313 2.83203-16.046875c-49.16402-6.401501-95.57777-9.640625-141.95703-9.640625z" fill="#ffa348"/><path d="m95.907891.00435285-17.725197 3.12630775-34.474435 6.0833205 2.62512 14.8941659-31.642466 5.579198 9.259375 52.513314 2.950438 16.752645 9.795305 55.562496 31.640585-5.58108 2.627 14.89792 52.197754-9.20962-12.2888-69.709884-2.95231-16.747002z" fill="#994100"/><path d="m81.308933 20.860595-16.751677 2.955916 8.811423 49.99213 2.953167 16.751446 9.239628 52.416313 16.751676-2.95592-9.163945-51.980593-2.953167-16.747745zm-29.016438 20.477259-16.751678 2.954073 6.13331 34.782358 2.951272 16.753277 6.66856 37.832438 16.751714-2.95408-6.651953-37.745652-2.956845-16.74959z" fill="#ffa348"/><path d="m404.0905.00059099-3.12344 17.73079101-8.88705 50.430989-2.9542 16.747002-12.28879 69.709887 52.19964 9.20963 2.62511-14.89793 31.64246 5.58108 9.79343-55.562499 2.95233-16.752644 9.25936-52.511432-31.64433-5.58108 2.62511-14.894166z" fill="#994100"/><path d="m418.69045 20.856899 16.75168 2.955918-8.81143 49.992131-2.95314 16.751443-9.23964 52.416319-16.75169-2.95592 9.16396-51.980596 2.95314-16.747747zm29.01644 20.477259 16.75169 2.954072-6.13331 34.782359-2.95129 16.753277-6.66857 37.832444-16.75168-2.95408 6.65195-37.745658 2.95683-16.74959z" fill="#ffa348"/></svg>