<svg height="500" viewBox="0 0 500 500" width="500" xmlns="http://www.w3.org/2000/svg" xmlns:xlink="http://www.w3.org/1999/xlink"><radialGradient id="a" cx="1362.7291" cy="216.11429" gradientTransform="matrix(1.0000001 -.0000059 .0000001 1.0000003 -112.72927 33.893757)" gradientUnits="userSpaceOnUse" r="250"><stop offset="0" stop-color="#ff851a"/><stop offset=".42441937" stop-color="#f87000"/><stop offset=".86367416" stop-color="#f26900"/><stop offset="1" stop-color="#e55f00"/></radialGradient><g transform="translate(-1000)"><path d="m1500 250a250 250 0 0 1 -250 250 250 250 0 0 1 -250-250 250 250 0 0 1 250-250 250 250 0 0 1 250 250z" fill="url(#a)" stroke-linecap="round" stroke-linejoin="round" stroke-width="1.002"/><path d="m1309.2298 33.82789c128.5196 30.706851 207.8974 167.48127 169.5927 291.56949-31.3771 95.69524-112.8693 162.03793-212.5543 174.60263 153.1796-8.09118 266.0956-163.0043 218.7012-309.92978-36.4562-114.666588-154.6038-191.5214848-270.6514-169.822657-18.8526 4.215647-38.4387 10.498641-55.8829 18.694487-112.5353 47.459213-168.47522 196.206-99.9632 307.85319 57.6978 93.63045 168.5136 141.8489 267.9993 100.77239-134.92 68.97589-303.283-51.46877-311.488-201.30723-4.4167-117.68321 76.8182-219.674136 190.654-246.26040176-89.0147 9.18391126-152.6601 79.39239576-187.7408 157.21169176-38.45522 102.70317 5.2337 231.75078 109.038 294.08388 114.5107 66.1048 260.3537 29.37245 323.6836-83.60152 42.2104-77.69758 34.3514-177.62383-23.1776-249.88923-57.5404-72.257811-157.5429-102.460489-246.4118-71.877168-81.7429 30.682061-131.1298 101.133078-134.0478 190.176958.6692 92.68536 61.7912 168.55972 147.5399 198.52472 128.5549 37.82014 266.7725-70.33038 233.6823-209.88949-14.7104-64.39775-57.8855-122.14991-125.7378-141.121386-71.391-15.467036-138.9716 1.205-181.2869 64.641366-18.8995 29.2286-28.9384 85.21395-26.105 97.65297m0 0c13.5324-50.18833 30.6277-97.66354 72.2125-128.94941 53.182-38.308183 124.4576-37.093813 181.7444-.48035 50.1457 36.48017 75.4845 90.37713 72.3557 150.91678-6.6674 64.04407-38.4038 109.83277-91.6401 141.00844-63.9019 34.56125-135.3795 4.83213-189.1258-35.28385-78.8706-65.48566-79.7477-186.67235-8.9744-256.76104 63.7369-55.941605 167.0207-64.891564 238.7167-6.65053 78.8163 58.35315 90.3045 169.04089 40.972 246.62443-35.2274 56.41892-88.4571 87.60135-152.5581 93.63158-81.9488 2.18264-160.666-41.91503-196.8695-120.9383-36.2055-79.02511-22.5771-164.33167 26.8727-227.66064 49.4316-63.30896 138.3491-86.746364 220.4504-67.54202" fill="#c50"/></g><path d="m148.94922 25c-16.93938 0-31.58985 14.297829-31.58984 31.328125 0 15.652755 12.40991 28.853655 27.56445 30.910156a18.0018 18.0018 0 0 0 4.73633 8.421875c9.08345 8.791204 14.95606 17.000604 20.25781 24.458984a18.0018 18.0018 0 0 0 8.21289 6.20508 18.0018 18.0018 0 0 0 .73437 4.83398c9.20566 18.2612 18.54704 29.37916 24.75196 39.91992 5.29553 9.07274 8.73989 18.2257 9.40234 32.42383-8.02398 3.85426-16.78193 8.8574-24.4375 16.64649-5.69316 5.79246-10.90614 13.76461-12.34375 23.63476s1.34661 20.42645 7.07227 29.70703a18.0018 18.0018 0 0 0 33.10351-6.67773c.61817-3.96483-.18865-2.13755 1.82227-3.27148 1.86694-1.05276 7.50315-2.68225 14.97656-4.75391 3.71893 28.85548 18.54947 54.23885 33.85352 78.80078-3.18205.94351-6.14137 1.66717-9.58008 2.84961a18.0018 18.0018 0 0 0 -2.64649 1.15625c-4.54328 2.43391-12.78663 6.28367-16.5039 18.86523a18.0018 18.0018 0 0 0 .65039 11.08594c-10.61258 2.97256-20.20843 8.28536-28.26367 15.1582-11.11731 9.30221-11.84938 20.56856-10.75 31.97461 1.13941 11.82145 4.46949 21.44019 13.19922 30.16993a18.0018 18.0018 0 0 0 .24218.23828c11.64893 11.21749 23.74285 12.88904 35.63477 14.83398 5.94595.97247 11.03058 1.7014 17.88281.51758 3.42612-.59191 8.61212-.85547 14.13086-8.14453 2.75937-3.64454 4.33279-9.46767 3.82422-13.96485-.50857-4.49716-2.2169-7.4988-3.71094-9.64648a18.0018 18.0018 0 0 0 -.10351-.14648c-5.55968-7.82473-7.89728-7.04042-10.69336-8.53907-2.7961-1.49864-5.631-2.86651-8.45508-4.33007-.12609-.0654-.22377-.13897-.34961-.20508 27.74473-1.96968 52.93225 11.82851 87.69726 21.81054a18.0018 18.0018 0 0 0 .03907.01172c38.87162 11.06495 86.45208 14.51129 130.94726-15l.00391-.0039c14.82656-9.83272 21.00322-28.03749 19.52344-42.72266-1.58564-15.82641-8.94577-29.83479-20.66016-40.0332a18.0018 18.0018 0 0 0 -.33398-.28321c-8.98015-7.44209-18.59339-10.18868-27.89258-12.68359-8.36502-2.24427-16.27282-3.738-22.20313-4.98242 8.3872-36.4979 9.34387-69.51066-.60351-99.125a18.0018 18.0018 0 0 0 -.00391-.01172c-14.21074-42.21406-50.42751-75.1847-111.38672-99.77734l-.00195-.00196c-.002-.00079-.00386-.00095-.00586-.00195-3.18625-1.29104-8.72047-6.51695-14.08984-15.16406-2.50965-4.04166-4.95002-8.67607-7.4004-13.443362.65648-.393417 1.2118-.584084 1.88672-1.021484 7.04497-4.565673 14.1553-12.406295 18.31641-22.382813 4.20022-10.047137 2.24415-23.78147-4.56055-31.529297-6.80723-7.750723-15.22275-10.668114-23.36328-12.078125-13.55158-2.347252-28.658-.932845-41.04297 8.316407-22.82726-9.672716-48.10312-7.69942-70.14062-5.023438a18.0018 18.0018 0 0 0 -3.84961 1.556641c-5.86927-6.58455-14.29812-10.886719-23.5-10.886719zm258.35351 353.35156a18.0018 18.0018 0 0 0 5.68165 3.02149c6.53565 1.37861 13.01549 2.51796 17.63281 4.24804 1.49481.56011 2.23881 1.05703 3.16015 1.56836-2.78461 1.33253-7.45524 2.85589-16.3789 4.64063a18.0018 18.0018 0 0 0 -.05469.00976c-21.75412 4.42037-45.67962-.60353-70.22852-7.02929 17.52194-1.09449 35.40597-2.40206 53.36719-3.82617a18.0018 18.0018 0 0 0 6.82031-2.63282z" fill="#994100" stroke-linecap="round" stroke-linejoin="round"/><path d="m148.94887 43c7.65 0 13.59 5.922 13.59 13.328999 0 7.407-5.94 13.329-13.59 13.329s-13.59-5.922-13.59-13.329c0-7.406999 5.94-13.328999 13.59-13.328999zm117.09 182.25c-5.22 9.81-27.27 13.68-36.09 15.66v.09c-15.66 4.32-28.71 6.3-31.32 23.04-16.38-26.55 12.96-40.5 32.58-49.05l.09-5.22c.27-21.15-4.95-35.46-12.15-47.79-7.2-12.24-15.93-22.5-24.21-38.925 8.46-1.215 16.03653-10.7934 18.17662-18.50927-12.99541 5.14427-14.48662 3.06507-28.52662 5.14427-5.31-7.47-12.06-16.947001-22.41-26.964001 11.43-8.451 17.91-18.36 16.29-30.527999 25.2-3.06 51.66-4.005 70.74 8.855999l3.6-3.348c14.13-16.082999 54.81-11.069999 45.99 9.999-5.94 14.256-15.39 16.227-27.99 22.293 10.08 18.882001 20.88 45.972001 39.15 53.352001 58.23 23.49 88.83 52.47 101.07 88.83 11.79 35.1 6.3 78.48-11.97 130.86-55.62 4.41-114.57 8.28-143.46 2.52 1.17-3.96 5.22-6.75 7.74-8.1 25.65-8.82 40.68-9.81 64.35-10.8l-.99-8.64c-1.98-17.64-.36-39.87 6.93-55.17l-14.58-7.02c-8.19 17.01-9.99 37.44-8.91 55.62-9 .54-17.01 1.44-24.12 2.61-17.28-27.63-33.3-54.36-35.55-81.63 12.42-3.6 29.16-9.63 30.87-21.96zm-27.85707-155.830228c-7.30507-5.635728-15.88293.238227-26.77293 7.024227 7.2 5.841 18.13293 13.508957 26.77293 7.946957 6.57-4.239 3.9512-11.922903 0-14.971184zm184.45707 273.280228c13.14 2.88 34.893 6.3 44.667 14.4 7.65 6.66 13.527 17.82 14.571 28.26 1.053 10.44-1.791 19.44-11.565 25.92-39.213 26.01-79.713 23.04-116.073 12.69-36.36-10.44-67.86-29.34-107.46-20.52-7.56 2.25-14.13 5.85-13.05 14.31.36 2.52 1.35 4.32 2.43 5.85 8.73 9.72 27.81 15.93 30.24 19.35 5.76 8.28-30.78 2.52-40.5-6.84-3.78-3.78-7.29-11.7-8.01-19.17s1.17-13.77 4.41-16.47c10.08-8.64 21.69-13.59 35.82-13.59 14.13-.09 30.6 1.53 48.15 5.85 35.19 8.64 75.24 24.75 114.66 16.74 15.3-3.06 24.66-6.12 30.393-13.41 2.898-3.6 3.951-9.54 2.232-13.86-6.705-13.68-25.335-16.02-36.855-18.45 2.16-6.48 4.14-14.76 5.94-21.06z" fill="#ffa348" stroke-linecap="round" stroke-linejoin="round" stroke-width="36"/><path d="m239.98012 200.06933c-1.98563-.0209-3.95904.0192-5.91797.11328-22.1681 1.06501-42.22993 9.00603-57.47461 14.8125-48.12393-.0359-87.920927 8.77908-117.378911 22.00196-30.194587 13.55352-51.8860371 30.39367-55.9550783 55.42773l-.1269532.78516-.058594.79492c-2.27140289 31.14927-3.17172285 63.12323-3.05859383 93.97851l.03125 8.13868 20.78906333 18.15234c.44305 2.01995.880152 4.04478 1.36914 5.99609-1.655371 18.52987-1.505543 35.10873-2.402344 51.96485l-.576171 10.85156 9.332031 5.56445c12.512822 7.46136 26.116362 9.24863 38.511719 9.23828 6.197677-.005 12.042769-.56258 17.626953-1.90429 3.548626-.85264 7.173952-1.70834 10.949218-4.04883 11.728981 6.07741 23.571271 6.18152 33.628911 5.1289 5.52729-.57847 10.42859-1.56284 15.42383-3.625 2.4976-1.03106 5.0795-2.14866 8.32226-5.16601.63362-.58958 1.34203-1.50695 2.03711-2.44336 4.0362 4.76996 9.42339 7.68951 13.72266 9.26758 7.18595 2.63763 14.1804 3.37589 21.14258 3.45312l19.71093.21875c6.90828 1.37126 13.68592 1.40741 20.92579 1.00977 5.65276-.31047 11.15282-.98346 17.03515-3.11914 2.94117-1.06784 6.08323-2.4777 9.41992-5.32617 3.33671-2.84849 6.99127-7.88212 7.86328-14.03125l.13282-.93164.0332-.94336c.36377-10.02572.70993-20.11725.9375-30.24414 6.33199 4.98694 13.50871 8.89145 20.90234 11.76757 17.05811 6.63563 36.51306 8.8574 54.23438.36524 15.02644-7.20091 24.72837-20.40371 30.01758-33.94727 5.28919-13.54355 7.0611-27.86108 7.76953-41.69726l.0391-.76172.78906.50781-.23437-11.33594.16797-3.2832-.23828-.0586-.26954-13.05079.18555-.54687c-.0696-.0348-.12977-.0745-.19922-.10938l-.11133-5.40234c-.10172-4.91362-.19156-9.48628-.17968-13.51562.0118-4.05674-.41191-5.32944-.91211-8.22461-.50021-2.89519-1.19761-6.38015-2.09961-10.41797-1.804-8.07565-4.42241-18.31449-7.83594-29.41992-6.82705-22.2109-16.23196-47.59118-30.79102-66.62696l-3.8125-4.98437-6.08398-1.53321c-15.2504-3.84607-29.46578-6.45514-45.25-5.6582l-23.94336-5.18555c-6.11675-1.32479-12.18373-1.93349-18.14062-1.99609zm51.1914 153.81445c6.71171 5.06165 14.37621 9.66596 22.49805 13.85743l.0859 3.78125c.0313 1.38395-.0825 2.72917-.0957 4.11914-2.28889-3.44671-5.11795-6.19593-8.28125-8.46094-4.65747-3.3349-10.63162-5.99865-18.0664-5.7168zm-136.83203 71.79688-.56641 5.0293c-.3855-1.64892-.74846-3.3209-1.15624-4.94922.5763-.0345 1.14399-.0354 1.72265-.0801z" fill="#994100"/><path d="m179.96878 232.94494c-94.924899-.94818-154.460388 34.75486-158.948719 62.36852-2.231417 30.60092-3.121871 62.14409-3.010195 92.60307l3.230571 2.82082c2.970477-11.38061 4.849599-23.6626 10.585178-32.75963.974426 20.19748 3.798729 43.51749 8.521666 60.9841-1.856635 18.56864-1.587542 35.66145-2.575453 54.23007 15.859043 9.4567 45.336703 7.91402 50.625542 1.47579 2.200687-15.37846 3.733526-31.64127 2.977991-50.92846l5.690605-26.27235c4.810634-10.83962 18.956184-12.81329 17.544034-23.62988l13.36304-1.83323c.26608 18.72318-10.77484 20.13806-18.52372 30.95241 9.7397 3.98079 11.00044 2.88768 18.0335 3.80763 17.87535 2.0376 33.90528 2.80448 50.82119-6.07484l-2.32436-13.03474 13.28434-2.32964 2.29661 12.87649c3.16312 10.47549 8.99165 77.57383 13.91097 80.5232 10.05226 4.76848 40.34319 4.76848 41.5792-3.94736 1.23451-34.02364 2.89401-66.95343-3.80022-99.01233 2.77483-3.0467 5.5017-6.02803 8.19111-8.98855-15.1245-7.54769-33.14076-19.20026-43.18925-31.0594-6.77371-12.7888-10.30634-28.74912-12.97027-41.80393-1.90836-9.61796-3.22309-19.37561-2.85578-27.85589.18287-4.24017.75178-8.18751 2.23514-11.84357 14.87715-15.00024 42.42923-26.51385 59.64943-34.55645-24.93988-5.40159-53.6305 5.48856-74.34215 13.28815zm96.64287-7.37974c-22.30446 8.15703-54.12898 16.47753-69.43335 33.63797-.60491 1.49215-1.13182 4.13388-1.27423 7.42657-.28484 6.58609.82224 15.67425 2.61367 24.70292 1.79145 9.02869 4.23049 18.07225 6.39369 24.99942 1.08085 3.46435 2.0965 6.4085 2.89702 8.50108 11.40521 16.50799 34.21412 29.44541 50.94413 33.4091l10.86477-21.33667c-8.67533-11.17625-10.32808-26.17651-3.44045-37.41666 3.69679-4.56485 7.2909-7.84192 12.72891-7.74013 3.40674.0809 6.8914 1.48322 9.63627 3.74895 19.41717 16.03018 37.08862 36.1816 62.49023 52.50755-.10193-4.92379-.19489-9.61573-.18214-13.94134.0195-6.71019-14.18455-72.64486-37.93788-103.70204-17.17825-4.33227-30.23922-6.79193-46.30064-4.79672zm51.63146 56.64813c3.24331-.0519 6.312.41836 8.88744 1.72324.0458 3.65755-.22336 7.45703-8.16037 12.00258-3.37374-3.50745-8.42422-8.05374-13.42301-11.61244 4.06785-1.11912 8.52543-2.0465 12.69594-2.11338zm-40.6505 24.40194c-1.69625 2.66997-2.93226 8.66235-2.02604 13.02733 1.05086 5.06201 6.79244 12.55915 16.15286 19.6699 9.36193 7.10925 21.91844 13.94801 35.04385 19.38528 11.69978 4.84652 23.79681 8.49736 34.52292 10.5446-37.31275-18.66521-59.57598-45.47038-81.37599-63.46754-1.1603-1.18526-1.78918.0253-2.3176.84043zm44.15916 64.49898c.39427 17.40865-1.81091 37.35202-12.80686 44.50734-8.34104 5.42909-24.9114.99575-28.79034-8.11839-2.74112-6.44046 11.6683-11.6496 10.05001-18.45269-1.28774-5.415-8.26982-10.68135-13.77303-9.59492-13.40278 2.64394-26.16316 21.42806-21.96191 34.32013 7.60047 23.32372 46.60496 37.9762 68.86518 27.30897 20.60522-9.87433 26.27784-34.71324 27.58957-60.33241-9.52233-2.3259-19.47565-5.63196-29.17262-9.63803zm-150.42105 39.02769a97.003408 96.168477 0 0 1 -7.49029 3.22507l-6.49861 57.66692c.91444 6.54077 11.85716 9.39798 22.77515 9.5191zm-75.44252 3.35809c-1.00515 7.97572-1.7742 16.18846-2.30339 23.00121-1.15804 15.02922-1.86113 30.88479-1.87087 38.2623 14.14331 8.86297 41.07401 3.36849 39.80501-1.48993-.4917-20.2703-4.49881-37.0109-9.42938-54.77919-8.98189-.93484-17.63249-2.87137-26.20212-4.99439z" fill="#ffa348" stroke-width="35.9999"/></svg>