<svg height="500" viewBox="0 0 500.00009 500" width="500.00009" xmlns="http://www.w3.org/2000/svg" xmlns:xlink="http://www.w3.org/1999/xlink"><radialGradient id="a" cx="1249.9998" cy="1250.0005" gradientTransform="matrix(0 -1 1 0 -.0005 2499.9997)" gradientUnits="userSpaceOnUse" r="250"><stop offset="0" stop-color="#393"/><stop offset=".7379747" stop-color="#393" stop-opacity=".9"/><stop offset="1" stop-color="#393" stop-opacity=".1"/></radialGradient><filter id="b" color-interpolation-filters="sRGB" height="1.03098" width="1.656061" x="-.328031" y="-.01549"><feGaussianBlur stdDeviation="1.8449058"/></filter><filter id="c" color-interpolation-filters="sRGB" height="1.031072" width="1.651162" x="-.325581" y="-.015536"><feGaussianBlur stdDeviation="1.8449058"/></filter><filter id="d" color-interpolation-filters="sRGB" height="1.031113" width="1.656062" x="-.328031" y="-.015557"><feGaussianBlur stdDeviation="1.8449058"/></filter><filter id="e" color-interpolation-filters="sRGB" height="1.031135" width="1.655576" x="-.327788" y="-.015568"><feGaussianBlur stdDeviation="1.8449058"/></filter><filter id="f" color-interpolation-filters="sRGB" height="1.031079" width="1.656061" x="-.328031" y="-.01554"><feGaussianBlur stdDeviation="1.8449058"/></filter><filter id="g" color-interpolation-filters="sRGB" height="1.031023" width="1.651068" x="-.325534" y="-.015511"><feGaussianBlur stdDeviation="1.8449058"/></filter><filter id="h" color-interpolation-filters="sRGB" height="1.030972" width="1.656156" x="-.328078" y="-.015486"><feGaussianBlur stdDeviation="1.8449058"/></filter><g transform="translate(-1000 -1000)"><circle cx="1250" cy="1250" fill="#2ad52a" r="250"/><path d="m1258.9184 1271.0417c17.1144 30.6662 44.2259 53.4982 76.3129 67.0503 47.0888 19.252 101.3032 18.539 148.3503-.7179 3.5837-7.846 5.7089-15.6928 7.8759-23.5354-44.255 22.8273-95.5943 29.9536-144.8083 16.402-20.669-5.7007-39.2545-15.6936-56.3481-29.2453-11.4138-9.2678-21.4025-19.2524-29.245-31.383.7122 0 1.4251-.7126 1.4251-.7126 21.3984 24.9615 47.7889 42.0844 79.1674 50.6396 47.0888 12.1307 94.8859 6.4216 137.6825-16.402 1.4168-.7125 2.8336-.7125 4.2505-1.4293 4.2922-2.8504 7.8759-4.9882 12.1264-7.1343 1.4168-8.551 2.1668-16.4062 3.5837-24.9614-2.8753 1.4294-5.0006 3.5671-7.8342 5.7091-2.8753 1.4251-5.0006 2.8461-7.8759 4.9881-54.1729 34.9543-120.5139 44.2305-178.3122 16.4103-2.1251-1.4293-4.2921-2.8586-6.4173-3.5712-.7087-.7126-2.1252-1.421-2.8336-2.1336-1.4585-.7209-2.167-.7209-3.5797-1.4294-10.697-7.1342-19.2605-12.8391-27.8198-22.111 0 0 .717-1.4335 1.4252-1.4335 2.1461.7125 3.5712 3.5712 4.9964 5.0006 38.5211 29.9537 85.6097 37.8046 132.6569 27.8159 10.0011-2.1378 18.5438-4.2839 27.8364-7.8426 16.4187-7.1342 31.3787-13.5559 46.3387-24.2614 5.0005-4.2713 10.0012-7.1258 15.0017-10.6888 2.1253-2.1461 4.2505-4.2797 7.1258-6.4258-.7087-8.5594-.7087-16.3978-1.4168-24.9614-2.1669 2.1378-4.2922 4.9923-6.4174 7.1301-5.0006 4.2838-9.2928 7.8509-13.5849 12.1265-5.6674 4.9922-12.0847 8.5593-17.7937 13.5516-5.0005 3.5671-10.0012 5.7091-15.0017 8.5552-55.6313 33.5292-123.3892 37.0963-178.308-1.421 0 0 .7123-.7167.7123-1.4251 77.0421 44.9388 176.8869 9.2719 227.5177-58.4906-2.1252-7.8468-4.2504-16.4103-5.709-24.2488-28.5033 44.9347-72.0083 79.8848-126.9312 91.2946-32.1286 5.709-64.2156 3.5713-93.4523-10.6972 0-.7126.7122-1.4251.7122-1.4251 30.6494 10.7013 62.7781 11.4139 94.1567 2.8545 17.8355-4.9965 33.5039-12.8433 49.9224-22.8237 8.5844-5.7048 15.0017-11.4139 22.836-17.8313 12.1264-11.4098 22.0858-22.1153 32.087-36.3795 5.0005-7.8468 10.0011-14.981 14.2516-23.5446-3.5421-7.8385-5.709-15.6853-9.9594-22.8153-4.2922 11.4056-10.0012 22.1069-16.4186 32.8082-7.1259 11.4139-14.2517 21.3985-23.5444 31.3789-14.2516 14.9851-29.2533 27.8201-47.7971 37.8046-35.6291 19.2607-76.3004 26.395-114.8215 16.4062 0-.7084.717-2.1377.717-2.1377 33.5121 6.4174 66.3492 0 96.2694-14.981 30.6701-15.6895 54.9646-39.2299 73.4667-69.1836 10.0012-16.4062 17.127-32.0956 22.8359-49.2186-5.0005-7.1342-8.5426-14.26-14.2516-20.6817-3.5838 17.8314-9.2927 34.2334-17.8354 50.6354-.7088 1.4377-.7088 2.8587-1.4168 4.2839-15.7101 29.2453-35.6708 52.7773-64.2158 72.0422-6.4172 4.2797-13.5431 7.1301-19.9605 11.4139-6.4175 3.563-13.5433 4.9965-20.6691 7.1301-17.127 5.7048-34.9706 9.2761-53.5144 6.4174v-1.421c22.8443-.7125 45.6385-6.4174 66.3493-16.4103 2.1251-1.421 4.2504-2.1336 6.4173-3.5671 14.9602-8.5594 27.0865-18.5398 39.2129-30.6705 3.5837-4.2797 7.1258-7.8426 10.7095-12.1265 1.4169-2.1378 2.8337-4.2797 5.0006-6.4174 20.669-30.6747 33.5039-62.0494 37.796-96.9995-5.709-6.4258-11.418-12.8432-17.8354-17.8314-.7087 42.0761-12.8348 81.3101-38.5044 116.9686-27.1281 36.3753-65.6326 59.9241-109.1458 64.908 0-.7125 0-2.1377 0-2.1377 24.2611-4.9923 45.6385-14.2601 64.9324-29.9537 19.9607-16.4104 34.9207-34.9543 46.3387-57.0612 16.4185-33.525 23.5443-69.9087 21.4191-106.284-6.4591-4.9964-12.8765-9.9804-20.0024-14.2601 2.167 17.8314 2.8754 35.6628 1.4169 54.2109-1.4169 9.9804-2.8336 19.2565-4.9589 29.2369-3.5838 14.981-8.5843 28.5285-15.7101 42.0927-19.9606 37.7922-53.5062 68.471-94.1441 79.8849 0-.7126 0-1.4335 0-1.4335 30.6785-12.8391 55.6396-33.5167 74.1835-62.7661 2.8335-4.2756 5.0005-9.272 7.1258-13.5517 7.8342-13.5516 12.1264-27.0992 14.9601-42.0843 0-1.421 1.4584-2.142 1.4584-3.5672 5.7091-31.3872 5.7091-62.0534-2.1668-92.0113-7.1258-4.2797-14.2517-7.8468-22.086-10.6971 12.1265 34.2417 14.9602 70.6128 8.5427 107.7049-3.5421 15.6936-7.8342 30.6704-14.96 44.9347-4.2923 7.8468-8.5844 14.9769-13.585 22.8237-14.96 20.6817-32.7912 35.6627-54.1895 47.0724-.7122 0-1.4251-2.1336-1.4251-2.1336 12.8347-7.1342 23.5276-16.4103 33.5288-27.1033 16.3768-17.8355 27.0864-39.234 34.2539-62.0618 13.5432-46.3599 7.8342-94.8617-10.7096-138.3713-7.8759-2.1377-15.7101-4.9922-24.2527-6.4174 14.2516 27.1075 24.9611 57.0612 27.0864 88.4484 2.1253 31.3789-2.8337 62.7619-17.127 91.2946-1.4168 2.1419-2.8336 4.2797-3.5421 6.4216-.7087.7168-1.4585 2.1378-2.1668 2.8504-.7088 1.4293-.7088 2.1377-1.4169 3.5671-10.7095 14.981-20.6774 29.2411-36.3708 39.2256 0 0-.7087-.7084-1.421-1.421 12.839-9.2761 21.3941-22.1194 29.2492-35.6669 36.3791-60.6241 27.0865-131.9579-8.5676-190.4401-2.1336-2.8545-3.5672-4.9965-4.9923-7.851-8.5593-.7125-16.406-1.421-24.9653-2.1336 6.4174 8.5552 12.1263 17.1146 18.5437 26.3866 6.4216 10.7013 10.7012 20.6859 15.6935 31.3872 4.9964 12.1223 7.83 23.5362 10.7054 36.3795 9.251 50.6396-2.167 103.4169-37.1001 140.509 0-.7084-.7087-1.421-.7087-1.421 19.2563-25.6824 29.2242-53.4983 31.391-84.1687 3.5421-54.9193-20.694-109.1302-58.4983-148.36-8.5594 0-16.402.7084-24.9612 2.1336 29.9534 25.6823 52.7769 57.7738 64.9032 95.5826.717 2.8545.717 4.9923 2.1461 7.8426.7123 1.4336.7123 2.8546.7123 4.2839.7123 1.4252 1.4209 2.1419 1.4209 3.5671 8.5594 41.3676 4.9964 81.31-19.2563 117.6854 0 0-.7123-.7127-1.4252-.7127 7.8468-14.9768 12.839-30.6704 15.6935-47.785 2.1377-14.9852 2.1377-29.9537 0-44.9389-7.8467-54.2025-40.6588-101.2833-84.168-131.9538-7.8468 2.1378-15.6935 4.2797-23.5361 7.1301 52.0685 29.2411 92.0106 80.6057 99.8574 141.2299 2.8503 25.6781.7123 51.3605-9.9846 74.8925-.7122 0-1.4293-.7125-1.4293-.7125 0-2.1419 1.4293-4.2797 2.142-6.4216 7.1341-27.8159 6.4174-56.3445-2.142-83.4478-6.4132-19.2566-14.2682-36.3837-26.3946-52.7857-2.1378-2.1336-3.5588-4.2797-4.9881-6.4174-21.3983-25.6824-46.3595-44.9347-75.6046-59.199-7.8467 2.8503-14.9808 6.4174-22.1066 10.693 7.1258 2.8545 14.2599 4.9923 20.6774 9.272 1.4292.7167 2.8544.7167 4.2796 1.4251 29.9534 14.981 54.2104 34.9502 74.1835 62.7703 26.3863 37.092 37.0876 79.1764 27.8156 123.3985 0 0-1.4293 0-2.1377 0 2.8462-13.5558 1.4211-26.3907 0-39.9507-2.1377-17.8272-7.8508-33.5167-16.4102-49.2061-9.2677-18.544-22.1067-34.9543-37.8043-49.9353-12.8347-11.4056-26.3864-20.6859-41.363-29.2411-1.4336-.7126-2.8545-.7126-4.2839-1.4294-13.5557-7.1259-27.8157-12.1181-42.084-17.1146-7.1299 4.9965-13.5515 9.272-19.9689 14.9727 27.8198 5.0006 53.4936 14.9852 78.4548 29.2536 1.4335.7084 1.4335 2.1378 2.8586 2.8462 48.5014 29.962 81.3093 82.7435 78.4632 139.088h-1.4335c-2.1378-42.797-23.536-81.3101-55.6272-109.8469-2.1419-1.421-4.2839-2.8504-6.4174-4.984-.717-.7167-2.1502-1.4335-3.5754-2.1419-.717-.7168-1.4252-2.1378-2.8462-2.8503-32.1036-22.8279-67.0493-34.9544-104.862-37.8089-7.1258 4.9923-12.1222 12.1265-17.827 17.8356 44.9343-.7126 87.735 10.6971 125.5352 38.5172 34.2373 24.9614 57.0649 60.6241 63.4822 101.2792-.7087 0-2.1418 0-2.1418 0-11.4097-48.4977-45.6469-84.1646-88.4435-105.5631-4.9923-2.1336-9.9844-4.2838-14.9726-5.7048-30.6785-12.1265-63.4906-15.6895-95.586-12.8391-4.2796 7.1342-9.9843 13.5475-13.5515 21.3985 27.8199-6.4175 55.6356-5.7049 84.1638-.7084 1.4336 0 2.1461 1.421 3.5755 1.421 37.0876 7.8468 69.1828 24.9614 93.4356 53.4982.7123.7126 2.1377 1.4252 2.8504 2.1378 11.4138 14.981 21.3982 29.2494 26.3864 47.0766 0 0-.7123.7126-1.4252.7126-22.1109-50.6438-71.3249-84.1646-126.2436-92.7281-14.2684-2.1378-28.5325-2.8504-42.7966-2.1378-16.4102.7125-32.8121 3.5671-49.2223 7.8468-2.842 7.8426-7.1217 14.9769-9.2636 22.8278 54.2062-20.6859 116.9676-22.111 169.036 8.5552 24.257 14.2685 42.8008 32.8166 56.3523 56.3487-.7123 0-2.1418.7125-2.1418.7125-23.532-34.9502-56.3399-54.9193-96.2861-64.1913-46.3636-9.9887-92.7315-2.1419-133.3778 17.8314-1.4293 7.8468-5.0006 15.6894-5.0006 24.2488 12.1264-8.5594 26.3947-14.2642 40.6588-19.9774 16.4061-6.4133 32.8038-9.2637 49.9266-11.4014 53.4979-5.7091 108.4166 13.5475 142.6539 54.9151-.7123 0-1.4252.7167-1.4252.7167-32.8121-32.0997-77.7464-47.7934-122.6766-45.6514-40.6672 2.1377-79.1799 17.8313-111.9836 41.3717-.7168 8.5594-.7168 16.4104-.7168 24.9615 9.9887-9.272 20.6857-17.1146 32.8121-24.2489 1.421-.7125 2.1377-2.1419 3.5629-2.8545 54.2104-31.383 121.2556-39.2298 176.8912-6.4174 4.2796 2.8503 7.8467 5.7048 12.1263 7.8426 2.8545 1.4293 4.9881 4.2797 7.8467 6.4258 0 0-.717.7084-.717 1.421-7.8425-5.7049-16.406-9.272-24.9653-14.2684-5.7007-2.1336-11.4096-4.2756-17.1145-6.4175-32.0953-9.9846-65.6241-8.551-98.4321.7127-26.3947 7.8468-49.2181 21.4026-71.3248 38.5172-1.4252.7127-1.4252 2.8587-2.8587 3.5671-6.4174 4.9965-11.4096 9.9887-17.1103 15.6936 0 4.9881.7084 9.9887 2.1336 14.9769v3.5712c.7126 2.1336.7126 3.563 1.4252 5.7091 7.8467-11.4139 17.8353-19.9775 27.8198-29.9621 5.7091-4.9922 11.418-8.5552 17.1145-13.5558 28.5325-20.6775 59.211-32.8124 93.4482-35.6586 30.666-2.1419 62.0488 3.5671 88.4393 19.2524-.717.7168-1.4293 1.4335-1.4293 1.4335-10.6971-5.7048-21.3942-8.5635-33.5205-10.7013-14.9725-3.5671-29.2451-3.5671-44.2218-2.8545-59.9152 4.9923-111.271 43.5095-143.3622 92.0114 2.8461 7.8509 4.988 15.6894 7.8425 23.5358 21.3984-40.6588 54.9188-74.8964 97.007-94.1487 12.8348-5.7091 25.6696-9.2762 39.9379-12.1265h4.2797c24.2569-4.9923 48.5055-1.421 71.329 6.4174 0 .7126-.7123 1.4294-.7123 1.4294-41.3713-9.9846-82.0344-3.563-118.4053 17.1187-25.6737 14.9769-45.651 34.2334-63.4822 59.199-1.4251 2.8545-2.8461 4.9964-4.9922 7.8468-6.4174 10.7005-12.1222 21.4035-17.1228 32.0998 2.1418 3.5663 3.5754 7.8426 5.7131 11.4089 2.8546 2.8554 4.2755 7.143 6.4174 10.698 4.2797-14.9773 10.6971-28.5289 17.8354-42.0752 3.563-6.4225 7.13-12.1315 11.4054-18.5489 19.2606-26.395 40.6631-47.0767 69.1914-60.6284 14.9767-7.1342 29.9576-12.839 46.3678-14.9726 15.6851-2.1461 30.6618-2.1461 46.3553 0v2.1336c-40.6546-3.5671-81.3177 10.6971-113.4088 37.8005-34.954 29.2494-56.3481 69.1914-66.3368 112.701 4.9964 6.417 9.2719 13.5483 15.6976 19.2569 7.8426-84.1646 75.6004-165.4746 163.3354-167.6207v2.1461c-53.4936 5.7049-99.1447 39.9425-124.8227 87.0195-.7123 1.416-.7123 2.8454-1.4293 4.2743-15.6893 27.8159-21.3982 57.7742-23.5402 88.4455 6.4257 4.9923 11.418 12.1252 19.2688 16.4066-2.146-19.975.7088-38.519 4.2714-58.4872 5.7132-29.2453 17.1186-54.2109 34.9624-77.7471 23.5318-29.9579 53.4894-50.6438 91.2896-57.778 0 0 .7123.7126.7123 1.4252-9.9846 2.8545-19.9732 7.1342-29.9619 12.1223-2.1335 1.4335-4.2755 2.1461-6.4215 3.5755-16.4019 9.9804-29.2367 22.1069-41.3631 37.0837-17.1186 22.1153-27.8157 44.9385-34.2372 72.0464-2.1336 11.4143-4.2796 22.8236-4.9923 34.2375-.7123 14.9761 0 30.6663 1.4252 45.644 3.5671 1.4289 7.1383 4.2826 10.7012 6.4216 3.5671 2.1403 7.8467 3.5663 11.4097 5.7003-11.4097-44.2192-8.5551-92.0034 10.7011-134.0886 16.4061-36.3787 46.3554-65.6239 83.4554-80.5966v2.1419c-79.8882 39.2257-104.8536 141.9342-76.3212 221.1106 7.1341 3.5634 14.9767 5.6957 22.8193 8.5557-14.9725-34.9506-22.1067-72.0385-17.1144-110.5558 6.4215-47.7892 31.3869-92.0071 72.0374-116.9769 0 .7125.7123 1.4294.7123 1.4294-26.3864 19.9691-44.2218 46.364-53.498 76.3227-17.1102 52.0685-8.5509 107.7004 17.127 154.7766 8.5551 2.1369 16.4061 3.5629 24.9612 4.9922-48.5055-68.4705-55.6397-174.0339 12.8349-233.9538 0 0 .717.7168 1.4334.7168-20.6857 22.8195-34.2372 49.927-39.2295 81.3059-2.8628 19.9733-2.146 39.2302.7171 59.2064 0 1.426 1.421 2.139 1.421 3.5634 3.5628 23.5366 12.8347 43.5095 24.2486 64.1908.717 1.4344 2.1376 2.147 2.8544 3.5763 4.2798 8.546 9.9887 15.689 15.6935 22.8203h24.9612c-23.5361-24.2496-42.0798-52.7815-52.0685-85.5901-.7088-2.8504-.7088-4.9973-2.1418-7.851-.7123-1.421-.7123-2.8516-.7123-4.2759-.7088-1.4294-1.4252-2.1424-1.4252-3.5717-9.9886-47.0729-2.8503-94.1487 27.1073-131.2366 0 0 .7123.7125 1.4252.7125-20.6816 29.9578-27.1073 67.0462-22.8234 102.7164 6.4173 49.9232 32.8079 94.8588 70.6122 126.954 7.8468-1.426 16.3893-2.847 24.2652-4.276-12.1263-9.2719-23.5526-18.5439-34.2456-29.9582-7.1382-7.846-12.8431-14.9806-19.2647-23.5367-9.2635-12.8432-14.9767-25.6769-21.3941-39.9462-2.1419-4.9922-2.8586-9.9849-4.9922-14.9755-11.4139-38.5223-9.276-79.8899 9.2677-115.5526 0 0 1.4293.7168 2.1419.7168-19.2605 44.2179-13.5515 94.8658 9.2678 137.659 18.5521 34.2376 46.3845 60.6325 78.4714 79.8845 7.8343-2.8504 15.6685-5.7053 22.836-9.2767-14.2933-5.7006-25.7113-13.5466-38.5461-22.8186-17.8354-13.5516-32.7996-27.1046-44.2092-45.6518-13.5516-15.6886-20.6858-35.662-27.1073-55.6319-4.2796-17.1196-5.7048-34.2375-4.9922-51.3563.7123-9.9888 2.8504-18.5481 4.9922-28.5327.7123-1.4252-.7123-2.8545 2.8503-2.8545-9.9803 45.6514 2.1503 92.7285 31.387 130.5327 2.1377 2.1373 3.5629 4.2759 4.9922 6.4166 24.2528 28.529 54.2145 48.5068 88.4268 61.3455 3.5838-2.1423 7.8759-3.5667 11.418-5.7036 2.1668-2.1423 5.0005-3.5717 7.8759-5.0006.7087-.7101 1.4168-1.4214 2.1253-2.1345-36.3792-9.2765-69.1747-27.8159-97.007-54.9234-3.5671-4.2797-7.13-7.8459-10.6971-12.1273-27.8157-33.5246-41.3714-75.6085-36.3708-117.6887.7041 0 2.1377.7127 2.1377.7127-1.4334 32.0956 7.8385 62.0539 26.3905 89.8732 4.9881 7.8509 9.9804 14.2726 16.402 21.3993 5.7173 5.7036 11.4262 10.6963 17.0936 16.4015 15.7101 12.8433 32.1287 22.8283 50.6724 30.6742 15.6684 6.4171 31.3787 10.698 47.7972 14.2647 6.4174-5.7057 12.8348-11.4093 18.5437-17.1196-24.2528-1.4293-47.0887-7.138-69.2162-16.4099-2.8337-1.4244-4.9589-2.1374-7.8342-3.5634-23.5443-11.4093-43.505-25.6736-60.6236-45.6468-3.5671-4.9957-7.8468-9.2721-11.4138-14.9757-2.8545-4.2847-4.9923-8.5689-7.8426-12.8436-2.1419-4.2801-4.2838-9.2724-6.4216-13.5521-6.4216-15.6894-10.7012-31.3872-11.4138-48.5018h1.4294c7.1299 42.7969 29.9576 78.4588 65.6159 104.1458 37.0875 26.3819 78.4672 37.0845 121.2638 37.0845 5.7089-6.4216 10.7095-12.8399 15.6684-19.9729-16.3768 2.8533-33.5038 1.4289-49.9223 0-15.6685-1.431-30.6702-5.7057-45.6303-10.703-5.0005-2.1373-10.0011-4.2747-15.0017-6.4086-43.5049-19.9813-77.7297-58.4986-89.8561-104.8584h2.1378c11.4138 34.2333 34.2372 62.0535 65.6325 81.3137 5.0005 2.8504 9.251 4.9928 13.5431 7.8477 40.6714 19.9683 86.3016 24.961 129.8065 16.4016 5.0007-7.1263 8.5843-14.9772 12.1265-22.1119-67.0494 19.262-147.6419 8.5606-195.4265-48.5051-.7123-.7127-2.142-1.421-2.8587-2.1378-8.5551-10.7013-15.6893-21.3943-20.6816-33.525 0 0 .7123-.7084 1.4294-.7084" fill="url(#a)" fill-rule="evenodd"/></g><g stroke-width="1.12462" transform="matrix(.88073603 .12330997 -.12327196 .88046455 -139.84 -121.84578)"><g fill-rule="evenodd"><g fill="#83fc83"><path d="m468.625 159.44531v283.59961h13.49805c0-95.2832 0-190.5664 0-285.84961-4.49935 0-8.9987 0-13.49805 0z" filter="url(#b)"/><path d="m488.43945 164.08984c-.0336 94.24805-.0693 188.4961-.10156 282.74414 4.4987.004 8.9974.003 13.49609.004.0365-94.99739.0703-189.99479.10352-284.99219-4.4987-.004-8.9974-.005-13.49609-.006-.00065.75-.001 1.5-.002 2.25z" filter="url(#c)"/><path d="m508.25391 166.42188v282.375c4.49935-.00001 8.99869 0 13.49804 0 0-94.87501 0-189.75 0-284.625-4.49935-.00001-8.99869 0-13.49804 0z" filter="url(#d)"/><path d="m527.87109 167.21094c.003 94.05794.007 188.11588.01 282.17383h13.49805c-.004-94.80795-.008-189.61589-.0117-284.42383-4.4987 0-8.9974 0-13.4961 0v2.25z" filter="url(#e)"/><path d="m549.73828 163.69531c-.75.00065-1.5.001-2.25.002v284.93164h13.49805c-.00062-94.97852-.001-189.95703-.002-284.93555-3.7487-.00014-7.4974.001-11.2461.002z" filter="url(#f)"/><path d="m569.45312 161.09375c-.75.00065-1.5.001-2.25.002.0345 95.14844.0697 190.29688.10743 285.44532 4.49804-.0004 8.99609-.002 13.49414-.006-.0339-95.14844-.0683-190.29688-.10547-285.44532-3.7487-.00027-7.4974.003-11.2461.004z" filter="url(#g)"/><path d="m586.91992 158.92773v283.66797h13.4961c0-95.30599 0-190.61198 0-285.91797-4.4987 0-8.9974 0-13.4961 0z" filter="url(#h)"/></g><path d="m470.875 159.44531v281.34961h8.99805v-281.34961z" fill="#2e852e"/><path d="m490.68945 164.08984-.10156 280.4961 8.99805.002.10156-280.49414z" fill="#2e852e"/><path d="m510.50391 166.42187v280.125h8.99804v-280.125z" fill="#2e852e"/><path d="m530.12109 167.21094.01 279.92383h8.99805l-.0117-279.92383z" fill="#2e852e"/><path d="m558.73437 165.94336-8.99609.002v280.4336h8.99805z" fill="#2e852e"/><path d="m578.45117 163.33984-8.99805.004.10547 280.94727 8.9961-.004z" fill="#2e852e"/><path d="m589.16992 158.92773v281.41797h8.9961v-281.41797z" fill="#2e852e"/></g><path d="m389.12822 83.896904c-14.48139 2.203901-28.93146 7.692451-41.38604 17.278026l-.00218.0003c-12.68123 9.76285-23.97447 26.17924-27.07083 48.01955l-.17742 1.25156-.02061 1.26288c-.453 28.1008 21.45645 52.24024 47.77422 52.24024 3.4175 0 6.71713-.47872 9.94457-1.16648-6.5583 10.13527-15.74476 21.68637-29.00174 34.77837-58.26166 57.53423-62.34789 134.61097-25.92619 194.34175 36.56232 59.964 112.19075 103.97472 210.30304 103.97472 98.11152 0 173.71573-44.01604 210.27625-103.97949 36.33383-59.58903 32.33931-136.47064-25.71694-194.11665l-.02075-.02149-.02075-.0215c-13.51803-13.34314-22.79404-25.03121-29.36524-35.25091 3.59084.87245 7.28388 1.45929 11.12152 1.45929 26.31671 0 48.08638-21.77013 48.08638-48.08789l.00104-.59465-.03437-.59412c-1.34046-22.76579-12.90249-41.21028-28.37542-53.37099l-.07748-.06235-.08212-.06392c-17.70735-13.631419-38.87414-19.106699-58.04488-18.388185l-.00218.000304c-14.44502.540268-30.22798 5.645363-44.09837 16.817156-61.6206 33.170475-112.59004 35.450435-170.10797-3.183874l1.09511.789402c-12.17923-9.419735-27.51738-13.873547-43.80052-14.438107l-.42577-.015792-.42521.004094c-4.7616.035366-9.59202.404123-14.41915 1.138756zm77.07461 93.919966c1.18713.34582 2.42684.75504 3.60568 1.09219 7.04238 2.01412 14.33535 3.79914 21.88188 5.12312 7.54497 1.3237 14.82023 2.02808 21.7244 2.57197 6.93142.54603 14.49491.93227 21.36521.84542 8.07324-.0304 14.95053-.72399 21.43348-1.36025 6.89657-.67684 14.01075-1.52514 21.27853-2.81593 7.4011-1.31446 14.45712-3.00525 21.21309-4.74111.74536-.19151 1.53236-.42403 2.28798-.62212 6.94607 28.12138 23.2464 62.0245 52.0778 103.71186 16.87414 24.40151 23.05311 45.10996 22.48661 62.17269l-.00187.00248c-.55129 16.62511-7.46918 30.763-19.38542 42.83271-22.31318 17.9482-42.75535 25.42999-69.14014 34.5901-3.43807 1.19361-8.89047 1.96715-16.03306 3.05956-5.76406.88157-11.85468 1.45021-18.21234 1.90735-6.08791.43775-12.17484.67859-18.24098.70462-6.08144.0261-12.17347-.15631-18.24742-.5456-6.35754-.40746-12.47466-.94787-18.30233-1.79346-7.21182-1.04641-12.69006-1.76584-16.11262-2.92755-26.92893-9.14049-57.82155-22.31501-70.42208-34.42768-12.25591-12.18911-19.35359-26.51947-19.91457-43.40016l-.0003-.00218c-.56538-17.06558 5.61171-37.77536 22.48818-62.17595l.00187-.00248c28.85199-41.71926 45.23815-75.66567 52.16842-103.7996z" fill="#2e852e"/><path d="m406.33006 193.01367c-6.5592 16.87768-20.13809 36.4548-42.91797 58.95117-52.54825 51.89216-55.24016 116.30749-22.86719 169.39844 32.36937 53.08735 100.94333 94.27149 193.01953 94.27149 92.07531 0 160.62388-41.18445 192.99414-94.27539 32.29377-52.96316 29.68375-117.203-22.69726-169.21388-22.97624-22.67899-36.5278-42.2561-43.08789-59.13378-4.707-14.80769-8.18212-38.68804-2.27737-52.10059 7.60899-11.574 16.64584-18.0183 29.10935-14.78027 10.55159 2.7918 19.68355 12.00321 17.21289 29.61523-4.42186-15.71134-13.89707-18.34975-21.57227-16.28515-8.97436 3.01712-9.90522 7.91016-11.25005 16.39844 0 15.37918 12.46457 27.84374 27.84375 27.84374 15.37829 0 27.84375-12.46456 27.84375-27.84374-.87101-14.79292-10.59385-30.72235-20.67382-38.64454-13.01219-10.01699-30.95002-14.72587-44.94141-14.20117-12.04019.45-22.36545 3.69677-33.87793 13.69531-66.48893 36.17592-128.98072 39.0941-192.375-3.4873-8.41873-6.51124-18.74489-9.75801-32.11816-10.22168-14.88168.11053-31.40614 4.82622-43.60737 14.2168-9.67493 7.4484-16.9002 17.34295-19.37787 34.81933-.30957 19.20348 12.155 31.66895 27.53418 31.66895 12.86369 0 23.69278-8.7349 26.88868-20.58789.46635-3.68765 1.1518-7.30226.6738-11.30469-1.2303-7.21619-6.09959-10.94005-11.33398-12.34766-7.67429-2.06369-17.1495.57276-21.58594 16.28321-2.48073-17.61112 6.67423-26.82075 17.22852-29.61524 2.2284-.5886 4.54792-.90633 6.89062-.87304 8.16479.11701 16.60018 4.39267 22.21875 15.65234 4.80048 13.94797 2.01211 39.22617-2.89648 52.10156zm69.04396-33.56739c6.5224 1.86541 13.1326 3.47316 19.81446 4.64544 6.55029 1.14919 13.18466 1.80788 19.81445 2.33015 6.52392.51393 13.75226.86685 19.61655.78836 6.98668-.0213 13.09562-.62589 19.61684-1.2659 6.59735-.64748 13.18927-1.44283 19.71617-2.60204 6.63086-1.17767 13.19271-2.73959 19.71547-4.41553 7.94312-2.04088 16.71065-4.53797 23.62696-6.86231 1.44 26.07299 15.83257 65.13368 52.42383 118.04102 18.62368 26.93068 26.81641 51.88924 26.07031 74.36133-.7452 22.47297-10.62654 41.98838-26.01562 57.23437-25.31519 20.61552-49.22773 29.31231-76.10548 38.64356-6.29925 2.18693-13.02009 2.93613-19.61152 3.94424-6.56665 1.00432-13.19324 1.61351-19.81914 2.08994-6.5239.4691-13.06701.72718-19.6077.75525-6.5452.0281-13.09513-.1687-19.62698-.58733-6.6571-.42666-13.31444-1.00201-19.91607-1.95989-6.62203-.96084-13.37622-1.64226-19.71253-3.79299-27.55247-9.35213-60.14698-21.81152-78.0459-39.09277-15.38998-15.24599-25.26952-34.7623-26.01562-57.23437-.7452-22.47299 7.44588-47.43261 26.07227-74.36328 37.18976-53.77546 51.44755-93.238 52.48046-119.3047 9.02567 3.84049 16.87666 6.17866 25.50879 8.64745z" fill="#83fc83" stroke-width="40.4864"/></g><g transform="translate(2.006188 -10.35254)"><path d="m61.984375 465.91797c2.416099 6.50914 4.872149 12.21051 6.283731 15.57986 1.377851 3.98481 10.378056 28.85471 10.378056 28.85471l26.022508-10.85485c4.01242-1.33434 9.9371-2.80756 16.5286-4.75355 13.18297-3.89198 31.07338-9.77519 42.97174-31.87014l46.07918-113.56934s5.08767-6.21624 3.77343-9.28907c-8.2904-19.38387-54.34262-117.3447-67.60756-130.91598-3.37498-3.45292-10.24186-3.20246-14.45997-.85285-8.15723 4.54382-13.31742 24.64401-13.31742 24.64401-9.56996 33.08338-21.771653 66.21087-36.888673 98.0625-4.061878-.96013-8.263526-1.30313-12.537109-.99023-5.423683-8.10936-13.433928-14.10062-22.541016-16.14648-15.991779-3.5925-34.140377 4.6612-43.1191408 20.7832-10.2576872 18.41907-4.07523351 36.98662.7539063 50.00781 2.4145699 6.5106 4.866876 12.21473 6.2791415 15.58783 1.377265 3.98647 9.814107 28.64452 9.814107 28.64452l26.50186-10.61131c3.927089-1.30458 9.625658-2.75092 15.06998-3.43564-11.003051 19.53879-4.817547 38.1067.01465 51.125zm71.087895-138.48633 19.86718 42.61524-16.80468 41.48242c-3.06653-.45909-6.18581-.63004-9.3418-.38672-5.4232-8.04042-13.39227-13.97898-22.44922-16.01367-1.96238-.44087-3.95844-.6937-5.964844-.78516 2.341554-2.58109 4.555024-5.39663 11.184494-17.43474 6.62948-12.0381 15.50245-30.66947 23.50892-49.47746z" fill="#2e852e"/><path d="m139.46281 225.70401-3.53443 12.18853c-11.55163 39.93402-26.62037 80.23943-46.462045 118.46303-5.682856-8.83365-19.216065-12.35448-31.171044-4.33276-.89689-23.02832-27.62069-29.13209-39.019248-8.66517-11.5679594 20.77184 13.221854 51.14549 10.276472 64.17833 9.878782-11.05041 47.453345-9.04852 59.535624-30.71837.446707-.79995.831023-1.59874 1.176288-2.38505 16.673093-29.8991 30.244143-61.17789 41.374213-92.6732l40.92477 87.78347-26.8245 66.2243c-6.29606-7.40215-18.71109-9.8521-29.76889-2.43266-.89793-23.02785-27.621058-29.13239-39.019947-8.66507-11.567636 20.77141 13.232011 51.13309 10.287287 64.16513 9.856974-11.02617 47.29007-9.05704 59.45746-30.5739l.009-.0343c.0205-.0378.048-.0715.0691-.11003 1.188-2.13004 2.01216-4.21375 2.51158-6.23313l44.28332-109.34354.78518-1.93311-.87682-1.83432-48.69779-101.94068-5.31601-11.12768zm1.95286 26.42458 42.589 89.17042-6.50523 16.05549-41.34199-88.71479c1.82488-5.50349 3.57216-11.01067 5.25783-16.51143z" fill="#83fc83" stroke-width="36.0001"/></g></svg>