<svg height="500.0004" viewBox="0 0 500 500.0004" width="500" xmlns="http://www.w3.org/2000/svg"><g transform="translate(-500 -500)"><path d="m999.99997 750a249.99997 250 0 0 1 -249.99997 250 249.99997 250 0 0 1 -249.99997-250 249.99997 250 0 0 1 249.99997-250 249.99997 250 0 0 1 249.99997 250z" fill="#ffe24c"/><path d="m1000 750.00632-194.05817-2.60063 192.98367-20.4591-193.45987 15.31075 190.28547-38.19139-191.22567 33.10816 185.92267-55.58184-187.34707 50.61663 180.01317-72.50831-181.88127 67.68555 172.56127-88.82024-174.86477 84.18876 163.62798-104.35075-166.35478 99.94311 153.30278-119.00625-156.40808 114.88758 141.65488-132.65651-145.14668 128.82271 128.82258-145.14278-132.65648 141.65492 114.88758-156.42029-119.00218 153.31093 99.94719-166.3385-104.34669 163.60764 84.17649-174.84041-88.81609 172.54909 67.67739-181.89345-72.48799 180.02133 50.6167-187.35925-55.5941 185.94294 33.1-191.23373-38.1995 190.27732 15.3474-193.45586-20.4957 192.97968-2.59249-194.05413-2.5681 194.05413-20.4916-192.97968 15.327 193.45586-38.2004-190.27732 33.1171 191.23373-55.5936-185.94294 50.6162 187.35925-72.51029-180.02133 67.69979 181.89345-88.81699-172.54909 84.17729 174.84041-104.36289-163.60764 99.96869 166.3385-119.00618-153.31093 114.86968 156.42029-132.64018-141.65492 128.81968 145.14278-145.14988-128.82271 141.67318 132.65651-156.42638-114.88758 153.29788 119.00625-166.34218-99.94311 163.62828 104.35075-174.86477-84.18876 172.54667 88.82024-181.87387-67.68555 180.00617 72.50831-187.35587-50.61663 185.94077 55.58184-191.21897-33.10816 190.28097 38.19139-193.47947-15.31075 192.98647 20.4591-194.04384 2.60063 194.04384 2.58435-192.98647 20.46723 193.47947-15.31481-190.28097 38.20361 191.21897-33.12445-185.94077 55.58997 187.35587-50.60849-180.00617 72.5083 181.87387-67.68553-172.54667 88.81211 174.86477-84.17656-163.62828 104.33851 166.34218-99.95936-153.29788 119.0103 156.42638-114.87941-141.67318 132.66054 145.14988-128.83082-128.81968 145.13868 132.64018-141.66304-114.86968 156.42028 119.00618-153.28243-99.96869 166.32222 104.36289-163.59543-84.17729 174.84852 88.81699-172.55719-67.69979 181.8975 72.51029-180.02538-50.6162 187.35108 55.5936-185.93884-33.1171 191.21336 38.2004-190.26101-15.327 193.47618 20.4916-192.99594 2.5681 194.05003 2.59249-194.05003 20.4957 192.99594-15.3474-193.47618 38.1995 190.26101-33.1-191.21336 55.5941 185.93884-50.6167-187.35108 72.48799 180.02538-67.67739-181.8975 88.81609 172.55719-84.17649-174.84852 104.34669 163.59543-99.94719-166.32222 119.00218 153.28243-114.88758-156.42028 132.65648 141.66304-128.82258-145.13868 145.14668 128.83082-141.65488-132.66054 156.40808 114.87941-153.30278-119.0103 166.35478 99.95936-163.62798-104.33851 174.86477 84.17656-172.56127-88.81211 181.88127 67.68553-180.01317-72.5083 187.34707 50.60849-185.92267-55.58997 191.22567 33.12445-190.28547-38.20361 193.45987 15.31481-192.98367-20.46723z" fill="#fffbb3" fill-rule="evenodd"/></g><g stroke-width="1.15195" transform="matrix(.86850412 0 0 .86769053 32.878502 55.639217)"><path d="m249.65625 15.265625c-30.32421-.0503-60.53652 6.166124-89.29297 15.080078-29.00495 8.99099-57.74017 20.93766-82.818358 38.392578-11.720403 8.157638-24.851321 21.432912-36.283203 33.615239-3.761581 4.0085-6.480198 7.09655-9.195313 10.12304l-12.365234 13.78321 12.300781 13.83789c2.694682 3.03139 5.412862 6.14737 9.175781 10.17968 11.436415 12.2552 24.41453 25.43789 36.400391 33.5293 25.164795 16.98828 54.238855 26.62329 82.777345 35.56836 28.65744 8.98238 58.10269 18.06665 88.71289 18.13477 31.25324.0695 61.46578-8.95616 90.76172-18.13477 28.84199-9.03641 58.12948-19.09046 83.49023-36.28906 11.78635-7.99301 24.53985-20.95103 35.79492-33.00196 3.63073-3.88745 6.23006-6.86655 8.83204-9.78711l12.34179-13.85351-12.40234-13.79883c-2.62506-2.92098-5.22801-5.87305-8.85352-9.73437-11.25152-11.983352-24.15461-25.031558-35.68554-33.082035-25.29364-17.659082-54.25609-29.832396-83.51758-39.007813-29.01593-9.098404-59.507-15.498744-90.13672-15.554687h-.0176z" fill="#f2c80d"/><path d="m249.6563 36c27.72641.05064 56.29171 5.926284 83.9707 14.605469 27.95928 8.767088 55.01939 20.284024 77.85157 36.224609 8.0107 5.592779 21.742 18.880202 32.43945 30.273442 3.40606 3.6276 5.84177 6.39034 8.54687 9.40039-2.68995 3.0193-5.11073 5.79463-8.5039 9.42773-10.64773 11.40064-24.39121 24.64477-32.2793 29.99414-22.21566 15.06573-49.67561 24.77196-78.05078 33.66211-28.98191 9.08022-57.46904 17.24767-84.51563 17.1875-26.33276-.0586-54.11072-8.26886-82.55859-17.18555-28.20064-8.83918-55.47011-18.17982-77.377003-32.96875-8.045737-5.43151-22.018909-18.89249-32.841796-30.49023-3.526497-3.77897-6.063513-6.68754-8.837891-9.80859 2.790943-3.11102 5.342041-6.0061 8.882812-9.7793 10.875381-11.58929 24.8345-25.09832 33.007813-30.787111 22.584265-15.719098 49.403655-27.01661 77.111325-35.605468 27.41935-8.499479 55.71577-14.200531 83.1543-14.150391z" fill="#fffdcc" stroke-width="41.4699"/><g fill-rule="evenodd"><ellipse cx="250.04918" cy="132.43637" fill="#f2c80d" rx="107.71253" ry="107.09562" stroke-width="41.4699"/><ellipse cx="250.04918" cy="135.51819" fill="#fffdcc" rx="56.306957" ry="55.984463" stroke-width="41.47"/><ellipse cx="277.39648" cy="103.69115" fill="#f2c80d" rx="31.745148" ry="31.563332" stroke-width="41.4699"/></g></g><path d="m299.48243 468.01835 200.51757-71.42582-55.87498-157.31054-33.10744 72.54492-19.17188-53.98829-31.70312 69.46875-18.35938-51.6914-31.70117 69.46484-18.36133-51.69336-41.7207 91.42969-41.72266-91.42383-18.35937 51.68945-31.70117-69.46679-18.35938 51.68945-31.70117-69.46875-19.173828 53.98828-33.108017-72.54864-55.874405 157.31622 200.53711 71.20703c5.0279 11.52199 13.93248 21.33644 26.01467 27.08008 27.01215 12.84096 59.83423.66791 72.93065-26.86129z" fill="#f2c80d"/><path d="m57.956045 287.19446-34.969467 98.45858 172.889372 61.38961c-.23057-8.51352 1.47953-17.21619 5.38679-25.41732 6.74622-14.16118 18.7822-24.22895 32.58207-28.8535l-23.48495-51.46131-18.35947 51.68868-31.70108-69.46563-18.35948 51.69059-31.70107-69.46561-19.172251 53.9871-33.109503-72.55024zm384.088665 0-33.10951 72.55024-19.1732-53.9871-31.70204 69.46561-18.35948-51.69058-31.70203 69.46561-18.35948-51.69059-30.7144 67.30763c-2.19046-.50249-4.40205-.79958-6.60693-.88269-14.18416-.53496-28.10411 7.42449-34.82631 21.53504-8.96357 18.81533-1.32965 40.74108 16.78869 49.3549 18.11929 8.61382 39.87974.73271 48.84138-18.08168 1.08563-2.2774 1.92146-4.5997 2.53152-6.93825l191.36029-67.94956-34.97042-98.45667zm-192.17019 140.66412c9.29791 0 16.83193 7.49518 16.83193 16.73853 0 9.24336-7.53594 16.73663-16.83193 16.73663s-16.83192-7.49136-16.83192-16.73663c0-9.24526 7.53401-16.73853 16.83192-16.73853z" fill="#fffdcc" stroke-width="36"/></svg>