<svg height="500.00003" viewBox="0 0 500 500.00003" width="500" xmlns="http://www.w3.org/2000/svg" xmlns:xlink="http://www.w3.org/1999/xlink"><g transform="translate(-500)"><path d="m926.7767 73.223311c45.24113 45.241099 73.2233 107.741109 73.2233 176.776699 0 69.0356-27.98221 131.53559-73.2233 176.77669-45.2411 45.2411-107.74109 73.22332-176.77669 73.22332-69.03559 0-131.5356-27.98219-176.7767-73.22332-45.2411-45.2411-73.22331-107.74109-73.22331-176.77669 0-69.03559 27.9822-131.5356 73.22331-176.776699 45.2411-45.241105 107.74111-73.22330934 176.7767-73.22330934 69.0356 0 131.53559 27.98220534 176.77669 73.22330934z" fill="#3b2f4f"/><g transform="translate(500)"><path d="m230.6486 0c-128.19182 22.346591-234.17086 139.43202-223.06447 273.24395 5.6201 44.55936 16.72649 83.63245 44.55937 122.70552l50.17947 50.17947c33.45298 22.34661 72.52606 44.55938 111.46533 50.17946 39.07308 5.62012 78.01235 5.62012 111.46534-5.62008 39.07308-16.72649 72.52607-33.45297 100.35893-61.28587 33.45297-39.07306 55.79958-83.63245 66.90595-139.43201v-61.28587c-5.62008-27.83287-11.10637-50.17947-22.34657-78.01235-11.10641-22.34659-27.8329-44.55937-50.17947-61.285858-27.83289-27.832879-61.28586-44.559368-100.35895-55.799569-27.83288-5.620101-55.79957-11.10639-89.25255-5.620101-78.01235 11.106391-139.43202 61.28586-172.885 128.191818-11.10639 27.83288-16.72649 61.28586-22.34659 89.25255 0 33.45298 5.6201 66.90596 16.72649 94.73885 22.34659 44.55936 55.79957 89.25254 105.97904 111.46532 16.72649 5.62012 33.45298 11.1064 55.79957 16.72648 122.70553 22.34661 234.17085-55.79954 250.89734-178.37127 11.10641-78.01236-22.34657-139.43203-72.52604-189.6115-100.35895-89.25255-267.62385-44.559369-312.18322 78.01235-5.6201 27.83288-16.72649 55.79958-16.72649 83.63245 5.6201 78.01235 55.79957 150.53843 133.81192 172.885 61.28586 16.72649 122.70553 5.62012 172.885-33.45298 11.10639-11.10637 22.34659-22.34657 33.45299-33.45297 61.28584-83.63246 44.55935-195.09778-44.55937-256.51746-27.83288-16.726488-55.79958-22.346588-89.25256-27.832879-22.34659-5.620101-44.55937 5.620101-66.90596 11.106391-27.83288 16.726488-50.17947 22.346588-72.52606 50.179468-27.83288 33.45298-33.45298 66.90596-39.07308 105.97904 0 55.79958 27.83288 117.08544 83.63245 144.91833 78.01235 44.55934 183.99139 11.10637 223.06447-72.52607 22.3466-55.79958 11.1064-128.19183-39.07308-172.88501-33.45298-27.83288-66.90596-39.07308-111.46533-39.07308-66.90596 5.6201-111.46533 55.79957-122.70553 122.70553-11.10639 72.52606 33.45298 139.43202 105.97904 150.53843 100.35894 16.72649 183.99138-89.25257 139.43202-178.37131-11.10638-16.72649-27.83288-39.07308-50.17947-50.17947-27.83288-11.10639-55.79957-16.72649-83.63245-11.10639-33.45298 5.6201-55.79957 27.83288-72.52606 50.17947-16.72649 27.83288-16.72649 55.79957-11.10639 83.63245 11.10639 33.45298 39.07308 61.28586 72.52606 72.52607 44.55937 16.72649 89.25255-5.62011 111.46533-39.07309 33.45298-55.79957 5.6201-117.08543-50.17947-139.43202-50.17947-16.72649-122.70553 27.83288-105.97904 89.25255 5.6201 16.72649 11.10639 39.07309 27.83288 50.17947 22.34659 16.7265 50.17947 16.7265 72.52606 11.1064 22.34659-11.1064 39.07308-33.45299 39.07308-61.28587-5.6201-16.72649-5.6201-39.07308-22.34659-50.17947-13.91644-8.36324-29.2379-11.13984-43.17107-8.34651-13.93317 2.79332-26.47803 11.15656-34.84128 25.073-5.6201 16.72649-11.10639 33.45298 9.50065 44.827 41.74932-49.10898 35.32635.40143 29.84006-16.45887v5.6201c16.72649-5.6201 22.34659-22.34659 27.83288-33.45298 5.6201 5.6201 16.72649 11.10639 16.72649 22.34659 11.10639 39.07308-27.83288 72.52606-66.90596 61.28586-33.45298-11.10639-44.55937-50.17947-39.07309-83.63245 5.62011-22.34659 22.3466-39.07308 50.17948-44.55937 33.45298-5.6201 66.90596 11.10639 83.63245 39.07308 16.72649 27.83288 16.72649 50.17947 0 78.01235-33.45298 55.79958-105.97905 55.79958-150.53841 11.10639-33.45298-44.55937-22.3466-117.08543 27.83288-144.91831 16.72648-11.10639 39.07308-16.72649 61.28586-16.72649 11.10638 0 27.83288 5.6201 39.07308 11.10639 27.83288 11.10639 39.07308 39.07308 55.79957 61.28586 5.6201 16.72649 5.6201 27.83288 5.6201 44.55937-5.6201 72.52606-72.52606 122.70554-144.91831 105.97904-83.63246-22.34659-122.70554-122.70553-72.52606-195.09778 11.10638-16.72649 22.34659-27.83288 39.07308-39.07308 78.01235-44.559372 167.2649-5.6201 200.71788 66.90596 39.07309 94.73884-39.07308 206.33797-139.43202 200.71788-27.83288-5.62012-55.79958-5.62012-78.01235-22.3466-22.34659-11.10638-27.83288-27.83287-39.07309-39.07307-66.90596-78.01235-33.45298-195.09778 55.79958-239.79097 39.07308-16.726484 83.63245-16.726484 128.19182-5.6201 94.73883 33.45298 139.43201 144.91832 94.73883 234.17087-11.10637 27.83288-33.45297 44.55935-55.79956 66.90596-22.34659 16.72649-50.17947 27.83289-78.01235 33.45298-44.55937 5.62012-89.25256-5.62009-128.19182-27.83286-94.73884-66.90598-117.08544-211.82429-22.3466-289.97045 16.7265-11.1064 27.83288-33.452984 50.17948-39.073085 33.45298-11.106392 66.90596-22.346593 105.97904-16.726492 27.83288 5.6201 55.79957 16.726492 78.01235 27.832879 16.72649 16.726488 39.07309 22.346598 50.17946 44.559368 11.10641 16.72649 27.8329 33.45298 33.45298 55.79957 22.34661 66.90596 16.72649 139.43203-27.83286 195.09781-16.72649 22.34657-33.45298 44.55934-61.28587 55.79954-22.34659 5.62012-39.07308 22.34661-61.28586 22.34661-39.07308 0-83.63245 5.62008-122.70553-11.10641-117.08543-44.55934-167.26491-195.09777-105.97905-306.69691 16.7265-33.45298 44.55937-61.285864 78.01236-83.632457 44.55936-22.34659 89.25255-33.452979 139.43202-27.832879 61.28586 5.6201 111.46532 39.07308 156.1585 83.632456 22.34661 22.34659 27.8329 50.17947 39.0731 78.01234 11.10637 16.7265 5.62008 39.07309 11.10637 61.28586 11.10645 172.88502-195.09777 301.07685-351.25629 211.82429-27.83287-16.72649-50.17946-27.8329-66.90596-50.17947-61.28586-72.52608-78.01235-167.26492-50.17947-256.51747 16.72649-33.45298 39.07309-61.28586 61.28587-89.252546 39.07308-39.073083 94.73884-55.799574 144.9183-72.526064" fill="#221b35" opacity=".9"/><path d="m231.45148 15.388371c-120.56454 21.008472-220.12061 131.001869-209.68329 256.785079 5.21867 41.88313 15.78981 78.68141 41.88314 115.34586 15.7898 15.65602 31.4458 31.44582 47.23561 47.1018 31.4458 21.0085 68.11026 41.88314 104.77473 47.23563 36.66447 5.21866 73.32893 5.21866 104.77473-5.21866 36.66447-15.65601 68.11026-31.44582 94.33742-57.67295 31.44579-36.66448 52.45425-78.68141 62.89161-131.00187v-57.67294c-5.2187-26.22714-10.43736-47.23561-21.00851-73.32894-10.43731-21.00847-26.22712-41.88313-47.10179-57.672935-26.22713-26.227136-57.67292-41.88313-94.33739-52.454272-26.22714-5.218666-52.45427-10.43733-83.90008-5.218666-73.32893 10.437332-131.00187 57.672938-162.44767 120.564543-10.43733 26.22713-15.78981 57.67294-21.00847 83.90008 0 31.44579 5.21866 62.8916 15.78981 89.11874 21.00847 41.88313 52.45427 83.90006 99.55607 104.77473 15.7898 5.21866 31.4458 10.43732 52.45427 15.65601 115.34588 21.00847 220.12062-52.45428 235.91043-167.66635 10.43732-73.32894-21.00847-131.00188-68.11026-178.23748-94.33742-83.900079-251.56643-41.883137-293.44956 73.32893-5.21867 26.22713-15.78981 52.45427-15.78981 78.68141 5.21866 73.32893 52.45427 141.573 125.78321 162.44767 57.67293 15.78981 115.34587 5.21866 162.44767-31.44578 10.43733-10.43736 21.00849-21.00849 31.4458-31.44582 57.67295-78.68141 41.88314-183.45615-41.88313-241.12909-26.22714-15.7898-52.45428-21.008465-83.90008-26.227131-21.00847-5.218666-41.88313 5.218666-62.8916 10.437331-26.22714 15.7898-47.23561 21.00847-68.11027 47.1018-26.22713 31.4458-31.4458 62.8916-36.66447 99.55606 0 52.45428 26.22714 110.12722 78.68142 136.22052 73.32893 41.88314 173.01881 10.43736 209.68327-68.11025 21.00847-52.45427 10.43736-120.56454-36.66446-162.44767-31.4458-26.22714-62.8916-36.66447-104.77473-36.66447-62.89161 5.21867-104.77474 52.45428-115.34588 115.34588-10.43733 68.11027 31.4458 131.00187 99.55607 141.57302 94.3374 15.65599 173.01881-83.90008 131.00187-167.66635-10.43733-15.7898-26.22714-36.66446-47.1018-47.2356-26.22713-10.43733-52.45427-15.656-78.68141-10.43733-31.4458 5.21866-52.45427 26.22713-68.11027 47.23561-15.7898 26.22713-15.7898 52.45427-10.43732 78.6814 10.43732 31.44581 36.66446 57.67295 68.11026 68.11027 41.88314 15.78981 83.90008-5.21866 104.77474-36.66446 31.4458-52.45428 5.21866-110.12721-47.1018-131.00187-47.23561-15.78981-115.34588 26.22713-99.55607 83.90007 5.21867 15.65599 10.43733 36.66447 26.22714 47.23561 21.00847 15.78981 47.10179 15.78981 68.11027 10.43733 21.00847-10.43733 36.66446-31.4458 36.66446-57.67294-5.21866-15.7898-5.21866-36.66447-21.00847-47.23561-13.11356-7.8949-27.5318-10.50423-40.62864-7.86145-13.09684 2.64279-24.87229 10.53769-32.70029 23.65126-5.21867 15.656-10.43733 31.4458 8.9654 42.15076 39.20689-46.70036 33.05154-.26763 27.96669-16.05744v5.21867c15.78981-5.21867 21.00847-21.00847 26.22714-31.4458 5.21866 5.21866 15.65599 10.43733 15.65599 21.00847 10.43733 36.66447-26.22714 68.11027-62.8916 57.67294-31.4458-10.43733-41.88313-47.23561-36.66447-78.68141 5.21867-21.00848 21.00847-36.66447 47.1018-41.88314 31.4458-5.21866 62.8916 10.43734 78.68141 36.66447 15.65599 26.22714 15.65599 47.23561 0 73.32893-31.4458 52.45428-99.55607 52.45428-141.57302 10.43734-31.4458-41.88313-21.00847-110.12722 26.22714-136.22054 15.78981-10.43733 36.66447-15.656 57.67294-15.656 10.43733 0 26.22714 5.21867 36.66447 10.43733 26.22713 10.43733 36.66446 36.66447 52.45427 57.67294 5.21866 15.78981 5.21866 26.22714 5.21866 41.88314-5.21866 68.11026-68.11026 115.34586-136.22053 99.55606-78.68141-21.00847-115.34588-115.34587-68.11027-183.45614 10.43733-15.656 21.00847-26.22714 36.66447-36.66447 73.32893-41.88313 157.22901-5.21866 188.67481 62.8916 36.66448 89.11874-36.66447 193.89349-131.00188 188.67483-26.22713-5.21866-52.45427-5.21866-73.32893-21.00848-21.00847-10.43734-26.22713-26.22714-36.66447-36.66447-62.8916-73.32893-31.4458-183.45615 52.45428-225.33928 36.66446-15.789805 78.68141-15.789805 120.56454-5.21866 89.11872 31.4458 131.00186 136.22053 89.11872 220.12061-10.43731 26.22714-31.44578 41.88313-52.45425 62.89162-21.00847 15.78977-47.23561 26.22712-73.32894 31.44578-41.88313 5.21866-83.90007-5.21866-120.56454-26.22712-89.11874-62.89162-110.12721-199.11215-21.00847-272.5749 15.656-10.43733 26.22714-31.445801 47.1018-36.664467 31.4458-10.437328 62.8916-21.00847 99.55607-15.655994 26.22713 5.218666 52.45427 15.655994 73.32893 26.227136 15.65599 15.789805 36.66446 21.008475 47.10181 41.883135 10.43732 15.7898 26.22713 31.4458 31.44578 52.45427 21.00847 62.8916 15.78981 131.00187-26.22712 183.45615-15.78981 21.00846-31.44582 41.88313-57.67295 52.45428-21.00847 5.21866-36.66446 21.00847-57.67294 21.00847-36.66446 0-78.68141 5.21866-115.34587-10.43735-110.12721-41.8831-157.22901-183.45614-99.55607-288.23087 15.7898-31.4458 41.88313-57.672937 73.32893-78.681407 41.88313-21.008474 83.90008-31.445802 131.00187-26.22714 57.67294 5.218666 104.77473 36.664468 146.79166 78.681417 21.00851 21.00847 26.22717 47.10179 36.66448 73.32893 10.43732 15.78981 5.21866 36.66446 10.43732 57.67293 10.43735 162.44767-183.45613 283.01222-330.24781 199.11215-26.22713-15.65601-47.23561-26.22713-62.8916-47.23563-57.67294-68.11025-73.32893-157.22899-47.23561-241.12907 15.78981-31.4458 36.66447-57.67293 57.67294-83.900069 36.66447-36.664468 89.11874-52.454275 136.22054-68.11027" opacity=".9"/></g></g><path d="m412.18899 500.00003 42.03002-210.42-108.09002-200.880002h-192.24l-108.108 200.880002 42.093 210.42z" fill="#3b2f4f" stroke-width="36"/><path d="m356.74023 518 3.44727-13.56836c7.14798-28.14516 16.9559-64.59152 23.78516-98.83008l.004-.0137.002-.0117c3.65165-18.44555 8.34719-42.81883-2.83204-66.20898-10.11147-21.15611-29.54354-31.6743-44.68554-39.43555-26.37878-13.52082-56.41574-21.33203-86.45117-21.33203l-.00014.00001c-30.03544 0-60.07436 7.81121-86.45313 21.33203-15.142 7.76125-34.57211 18.27944-44.68359 39.43555-11.17923 23.39015-6.48565 47.76343-2.83399 66.20898l.004.0117.002.0137c6.82926 34.23856 16.63718 70.68492 23.78516 98.83008l3.44712 13.56835z"/><path d="m298.64087 500.00003 13.59-109.04369 16.02 1.8-13.41 107.24369h27.9c7.2-28.35 16.92-64.53 23.58-97.92 3.51-17.73 6.48582-38.41922-1.41556-54.95118-6.91704-14.47243-22.37986-23.86225-36.65444-31.17889-23.90863-12.25471-51.37551-19.34993-78.24186-19.34993s-54.33323 7.09522-78.24186 19.34993c-14.27458 7.31664-29.7374 16.70646-36.65444 31.17889-7.90138 16.53196-4.92556 37.22118-1.41556 54.95118 6.66 33.39 16.38 69.57 23.58 97.92h27.9l-13.41-107.24369 16.02-1.8 13.59 109.04369z" fill="#775fa0" stroke-width="36"/><path d="m250.00977 140.67187c-22.94124.00001-43.85926 12.05534-58.41211 30.57813-14.79523 18.71653-23.48829 43.96334-23.48829 71.68555 0 27.7222 8.69305 52.96902 23.48829 71.68554 14.55285 18.5228 35.47088 30.57813 58.41211 30.57813 22.94122 0 43.8573-12.05533 58.41015-30.57813 14.79524-18.71652 23.48828-43.96334 23.48828-71.68554 0-27.72221-8.69305-52.96902-23.48828-71.68555-14.55285-18.52279-35.46892-30.57812-58.41015-30.57813z"/><path d="m294.28899 303.47509c-11.88 15.13488-27.45 23.72494-44.28 23.72494s-32.4-8.59006-44.28-23.72494c-11.97-15.13487-19.62-36.65094-19.62-60.5395s7.65-45.40462 19.62-60.5395c11.88-15.13487 27.45-23.72494 44.28-23.72494s32.4 8.59007 44.28 23.72494c11.97 15.13488 19.62 36.65094 19.62 60.5395s-7.65 45.40463-19.62 60.5395z" fill="#775fa0" stroke-width="36"/><path d="m215.80899 296.60003v-16.2h68.4v16.2z"/><path d="m26.859375 286.75586 46.257812 231.24414h69.792973l-44.150394-220.55273 85.316404-158.34766h131.86524l85.33398 158.34766-44.16797 220.55273h69.8418l46.18945-231.24609-116.2539-216.054691h-213.75z"/><path d="m153.88899 88.700028-108.108 200.880002 42.093 210.42h33.075l-41.112-205.38 93.492-173.52h153.36l93.51 173.52-41.13 205.38h33.12l42.03002-210.42-108.09002-200.880002z" fill="#775fa0" stroke-width="36"/><g id="a"><path d="m219.40609 219.14906c-7.66022 0-14.55326 2.16207-19.48765 5.5679-4.9402 3.40583-7.86945 8.00894-7.86945 13.00726s2.92925 9.5898 7.86945 13.00726c4.92277 3.40584 11.82743 5.5679 19.48765 5.5679 7.64859 0 14.56487-2.16206 19.50508-5.5679 4.91695-3.41746 7.85782-8.00894 7.85782-13.00726s-2.94087-9.60143-7.85782-13.00726c-4.94021-3.40699-11.84486-5.5679-19.50508-5.5679z"/><path d="m217.96471 258.43812v4.20789c.81368.0349 1.453.0232 2.26668.0232v-4.20789c-.75556 0-1.60411.0116-2.26668-.0233z"/><path d="m225.02048 258.0894c-.86018.11624-1.72035.20923-2.60378.26735v4.20789c.88343-.0697 1.7436-.16274 2.60378-.27898z"/><path d="m213.3616 258.0313v4.18464c.79044.12786 1.60412.22085 2.42942.30222v-4.20789c-.8253-.0697-1.63898-.16273-2.42942-.27897z"/><path d="m229.53059 257.21762c-.76718.1976-1.55761.37196-2.35967.52308v4.16139c.80206-.16274 1.59249-.3371 2.35967-.54633z"/><path d="m208.82824 257.10138v4.12652c.76719.22085 1.55762.41846 2.35968.59282v-4.16139c-.80206-.16274-1.59249-.34872-2.35968-.55795z"/><path d="m234.1337 255.71812c-.79043.31385-1.60411.60445-2.42942.8718v4.09165c.83693-.2906 1.65061-.60445 2.42942-.94154z"/><path d="m204.22514 255.53214v4.01028c.77881.34872 1.59249.68581 2.42941.98804v-4.08003c-.8253-.27897-1.63898-.5812-2.42941-.91829z"/><path d="m238.58569 253.50956c-.73231.44171-1.48787.84855-2.2783 1.23214v3.94054c.80205-.43009 1.55761-.88342 2.2783-1.36001z"/><path d="m199.79058 253.24221v3.7778c.74394.52308 1.57505 1.03453 2.26087 1.41813v-3.91729c-.78462-.39522-1.54018-.82531-2.26087-1.27864z"/><path d="m242.70059 250.48732c-.61607.54633-1.25539 1.08103-1.94121 1.58086v3.61507c.69744-.59283 1.34839-1.22052 1.94121-1.87147z"/><path d="m195.66406 250.08048v3.23147c.59282.68582 1.24377 1.36001 1.95283 1.98771v-3.55695c-.68582-.5347-1.33676-1.08103-1.95283-1.66223z"/><path d="m246.65275 245.7331c-.51145.8718-1.1159 1.70873-1.77847 2.49916v2.63865c.94154-1.62736 1.54599-3.34771 1.77847-5.13781z"/><path d="m192.15361 245.7331c.19761 1.4995.65094 2.94087 1.33676 4.31251v-2.35968c-.48821-.62769-.92992-1.27864-1.33676-1.95283z"/><path d="m220.62661 229.61062c1.55761 2.75489 2.91762 5.64927 4.33575 8.48553l-4.33575-5.12619-3.18498 3.75455-1.82497-1.18565c1.67386-1.97608 3.33609-3.95216 5.00995-5.92824zm-16.47122 1.37164c3.92892 1.97608 7.67185 4.70772 11.39153 7.10226l-7.9392-3.30122 3.06874 9.9269 9.95015.73232 9.98502-.73232-1.09266 2.25506-8.89236.65094-11.57751-.84855zm33.03542.0116c-2.06907 4.47524-4.25438 8.91561-6.40482 13.35598l2.96412-9.57818-6.64893 2.74326-.98804-1.95283z" fill="#775fa0"/></g><use transform="translate(61.2)" xlink:href="#a"/></svg>