<svg height="500" viewBox="0 0 500 500" width="500" xmlns="http://www.w3.org/2000/svg"><g transform="translate(.000015)"><circle cx="-249.99998" cy="250" fill="#e51a1a" r="250" transform="scale(-1 1)"/><path d="m181.33938 83.856939c97.52275-31.84694 203.27597 26.159281 217.12696 131.568651 10.04116 85.89723-45.79566 162.6049-131.11288 174.6444-76.26503 6.65-147.16573-45.4981-149.44603-126.3231.16679-50.89801 30.03241-87.97493 76.60677-108.40662 44.00125-16.48183 90.46555-3.00917 112.28155 39.63622 17.95322 40.0953 3.57775 87.31302-40.4313 103.80676-21.98685 8.23292-51.6578-5.55285-56.72562-31.5612 24.48155 21.7253 69.7211 11.74379 80.1808-21.06198 5.24648-24.88185-11.48198-41.52298-24.36368-55.64156-23.21161-15.22125-63.26956-13.16738-85.32502 12.05139-41.51846 46.43224-18.48961 112.52397 35.72777 131.08081 60.66482 17.11352 118.96473-29.63961 126.96137-92.39988 2.7637-54.83226-40.99398-106.19486-96.51046-114.27807-76.21988-10.3001-138.45939 50.84936-147.743191 124.09106-9.31956 73.21828 47.315731 138.67973 111.863041 158.33924 49.05305 9.49897 98.18701 2.07129 139.64056-27.40671 82.90715-58.95602 100.11901-177.97214 43.55644-260.39974-52.71171-79.885311-158.575-103.987181-249.15842-67.061741-86.705021 39.45169-149.0660905 134.549061-117.102931 229.167621 15.77888-74.65377 50.93986-153.5943 123.407351-187.514491 9.28724-4.60517 19.44718-8.7232 30.56692-12.33106zm-160.722321 286.075591c-52.57825-113.8254-.38403-260.89182 113.777041-317.643861 10.84604-5.32012 22.21219-9.7712 34.03518-13.36069 115.76394-28.75816 246.03978 34.00351 263.68455 158.897471 10.04526 85.91695-27.72044 168.80365-107.97396 206.83173-102.24035 46.26108-224.798841-11.43986-234.690511-131.24969-7.33455-123.78718 127.307171-194.136761 222.718561-137.24102-42.54074-27.89653-94.21826-33.44528-140.80825-12.98978-71.17376 32.62266-105.080851 118.0397-80.762351 190.63139 30.697281 88.13423 123.572931 132.04164 212.817841 105.59803 82.80488-25.06359 132.16266-100.33164 140.19255-180.04986 12.12434-145.020371-132.23823-245.3588802-265.59709-221.973611 7.92036-4.10499 20.5989-8.4277792 35.61563-11.7452592 60.06317-13.23825 124.63426-3.45807 179.45368 32.4903392 109.65077 71.904621 141.09454 217.803071 65.16008 333.599141-143.00482 218.07486-377.311781 117.06797-437.622951-1.79433" fill="#b21a1a"/></g><path d="m142.14648.00976563c-21.5543 0-47.687509 11.73177837-74.710933 22.91015637 68.387873 21.13348 163.643063 14.113018 214.005863 65.498047 10.29249 11.057032 14.19602 21.508061 14.41211 32.365231.21608 10.85717-3.63765 22.79254-12.30469 35.22071-34.6682 49.71266-147.6184 97.28504-279.1367206 64.28515l-2.5351563-.63672c-1.20500396 9.95261-1.87695392 20.06997-1.8769531 30.34766.17104981 3.3306.40872807 6.65743.71289062 9.97852-2.25798542 37.40926 3.86159338 75.22266 19.90429738 109.95312 23.864363 47.03231 74.983854 91.18325 136.902342 113.91211 111.93035-24.04614 199.07692-72.78963 255.06836-131.39453 40.02434-41.89252 64.3191-89.11508 68.79688-136.30274 4.47776-47.18764-11.91997-93.96846-49.66797-130.564449-15.55869-12.270378-36.48903-23.34619-68.86719-31.878906 13.38641 16.47714 25.72312 25.605899 40.79492 53.880855 19.82035 33.93807 22.98259 67.90307 14.33399 101.97266-8.58328 33.8122-29.53196 67.55014-58.98438 97.39648 12.01212-16.40113 22.12481-33.49008 30.0332-50.92187 20.37663-44.91443 26.55897-92.59222 13.19922-135.50781-13.35974-42.915605-55.84752-85.775432-100.8164-101.988284-51.41011-18.53513721-111.68547-18.52539037-159.26368-18.52539037z" fill="#861313" opacity=".9"/><path d="m142.04102 18.009766c-4.12729-.019487-8.29492-.007044-12.50782.03125 347.38212 33.346133 145.88616 288.532464-129.142575 219.791014-.17842659 3.71554-.34490423 7.43506-.359375 11.19141v1.41406c.16913633 3.18425.39081382 6.36554.68164062 9.54102-.12807 2.1218-.13119144 4.24732-.20507812 6.37109 203.0209075 50.32729 395.6099075-81.06424 325.8847675-181.494141 72.28867 53.058631 10.6372 222.717951-211.69141 254.363281 77.93532-17.32436 147.7392-56.47831 183.80274-109.79687v-.00391c-74.0096 72.55634-192.22877 96.55611-295.4023475 81.69922 3.1048429 20.1381 8.7961615 39.93789 17.5156255 58.81445 1.854679 3.65524 3.95471 7.28079 6.130859 10.89258 95.288803 8.68581 204.956033-21.28843 281.947263-98.97461-52.54088 75.09298-153.24385 126.46689-252.187498 137.17383 19.727822 20.23537 44.322098 38.22398 71.923828 52.11133 282.33739-49.44198 410.82188-256.22714 290.75586-372.628911 88.49447 151.527651-116.69546 329.901611-299.97266 330.287111 245.03879-36.9755 371.9127-312.48009 176.51172-393.224611-42.52942-10.962088-93.56142-17.289773-153.68359-17.558593z" fill="#ff8066" stroke-width="36"/></svg>