<svg height="500" viewBox="0 0 500 500" width="500" xmlns="http://www.w3.org/2000/svg" xmlns:xlink="http://www.w3.org/1999/xlink"><filter id="a" color-interpolation-filters="sRGB" height="1.08" width="1.08" x="-.04" y="-.04"><feGaussianBlur stdDeviation="10.000011"/></filter><g transform="translate(-1000 -500)"><circle cx="1250" cy="750" fill="#8f29a3" r="250"/><path d="m1250.0521 500.09326-.061 248.75004-15.9199-248.2399a249.99917 250.18666 0 0 0 -31.6776 4.06945l45.0428 231.17052c-.102.0363-.2268.0547-.3789.0547l2.377 12.94521-.25-.53361-.5352-1.34279-3.3574-10.61339c-.1814.0698-.3456.12506-.5117.12506l-.1211.0782-83.1951-220.24831a249.99917 250.18666 0 0 0 -14.7401 6.13348l96.9 214.60543-.2187.11532 2.3047 4.43886 2.3437 5.21678.055.0488.416.7486.7461 1.26658v.0314l-.7461-1.29782-.4707-.79746-5.5273-9.21c-.1841.12151-.3808.23754-.5664.39678l-123.4077-200.53639a249.99917 250.18666 0 0 0 -34.1776 25.40763l164.5483 186.40079-.3984-.58052.832 1.02616v.0508l-.3262-.32448-.094-.12903v-.006-.002l-176.1809-175.46484a249.99917 250.18666 0 0 0 -21.0273 24.05115l186.5306 143.42536-.1425.18569 10.4687 8.26398-2.0957-1.07698-9.4082-5.66242c-.1395.18156-.2273.33335-.3066.47301l-208.0031-109.74966a249.99917 250.18666 0 0 0 -7 14.40723l214.5266 96.34337c-.074.17741-.1655.3791-.2578.59419l12.1758 4.73596-.037-.0253.5254.23653-.4863-.21109.3574.18179.2129.0802-.2129-.0508v-.0295l-12.8066-4.08117c-.056.14944-.1255.33501-.1758.5082l-224.9661-68.33223a249.99917 250.18666 0 0 0 -8.7656 41.69908l246.1613 30.77687h-1.2363l-246.3644-14.82161a249.99917 250.18666 0 0 0 -.4219 14.51082 249.99917 250.18666 0 0 0 .6113 17.47203l234.4934-16.18786h-.027l.3066-.0234-.2773.0234 12.9687-.73492-7.6699 1.8549-.3028.0508-4.789.9382.07.23845-228.2004 55.91086a249.99917 250.18666 0 0 0 4.2871 15.37279l224.173-70.26921c.093.36314.1859.69573.2793.95971l11.9648-4.46623-6.7285 3.52803-218.2141 100.03556a249.99917 250.18666 0 0 0 21.0155 36.99246l204.0072-139.70972-2.9414 2.38851-191.599 150.2058a249.99917 250.18666 0 0 0 21.2792 23.80097l164.7143-167.43742c.2793.26396.5666.50585.8359.80333l7.6309-8.62753v-.0314l.7578-.86587.1855-.23653.7754-.84633.02-.0645.057-.0272-.023.15832-.1035.11531.051-.18179-.068.18179-1.3203 1.73762.6133-1.0457-.1856.20916-.7578.89715-2.5996 3.67852-4.2753 5.57643.287.1818-133.9214 192.92518a249.99917 250.18666 0 0 0 13.3768 8.68037l121.3629-200.99764c.1115.0698.2562.1641.4043.23263l6.9082-11.76855-.2793.71929-100.1481 226.51466a249.99917 250.18666 0 0 0 40.1346 13.79743l59.6931-236.78211-1.5742 9.22563.2364.0566-42.7675 230.89101a249.99917 250.18666 0 0 0 31.6386 3.76263l12.9316-234.50119c.2415.0238.455.0234.6602.0234h.031v-12.36276l.055-.87175.3809 3.35211.6328 9.85892c.1939 0 .3385-.0234.5058-.0234l27.248 233.23258a249.99917 250.18666 0 0 0 15.7831-2.3455l-42.1484-231.0161c.254-.028.4739-.0916.707-.11531l-2.0644-10.71502-.055-.13878-.3203-1.79235.018.0295.3575 1.90182 74.3923 234.18055a249.99917 250.18666 0 0 0 39.205-16.19959l-111.1503-215.75097 4.1406 6.7179.2696-.18569 120.6715 201.44522a249.99917 250.18666 0 0 0 26.2108-18.10533l-145.5071-184.32505c.254-.18717.4204-.39029.6562-.60397l-8.457-9.554 3.3672 3.03156 5.8437 5.83834.2872-.30686 174.8256 156.82795a249.99917 250.18666 0 0 0 10.2715-12.18293l-184.478-145.35845c.1296-.15783.305-.33279.4082-.48083l-9.3632-7.21437 211.5852 126.78601a249.99917 250.18666 0 0 0 18.7245-38.19257l-229.6555-89.16613 11.0274 3.36579.012-.18569 223.9289 70.91228a249.99917 250.18666 0 0 0 7.6836-30.99187l-231.1887-41.80463c0-.16199.037-.30149.037-.44955l-7.3671-.90693-4.5508-.79941 12.0312.70755c.03-.32965.029-.62841.029-.96361l235.009 1.78454a249.99917 250.18666 0 0 0 .011-2.19892 249.99917 250.18666 0 0 0 -.3809-13.81303l-234.6691 13.37131v-.33226l-11.7754.81114-2.207.14075 2.1641-.14075h.043l242.6422-45.60435a249.99917 250.18666 0 0 0 -11.2772-41.04821l-231.0032 85.65376-.2598.0684 10.5078-4.79069c-.1716-.35894-.395-.80876-.6601-1.20402l208.1651-109.51534a249.99917 250.18666 0 0 0 -7.877-13.90491l-200.7337 122.63837-.2109-.32833-5.6211 3.9033-4.707 2.86542 9.6699-7.59747-.1446-.20719 183.392-147.45376a249.99917 250.18666 0 0 0 -29.3651-30.85701l-161.2514 182.96656-2.3184 2.37091 151.2905-195.53064a249.99917 250.18666 0 0 0 -26.4154-17.96062l-119.2496 202.94829-.094-.0664-7.0644 11.68841 5.539-12.45265c-.2748-.15364-.5655-.24794-.8711-.35962l83.404-220.18189a249.99917 250.18666 0 0 0 -15.121-5.19332l-69.2811 225.07807c-.1088-.0378-.2229-.0651-.3808-.11531l-1.8809 7.53882-1.1289 3.69807 2.1055-11.46558c-.2011-.0197-.4082-.0561-.6133-.0743l40.1268-232.08917a249.99917 250.18666 0 0 0 -42.4354-3.64138zm-1.9453 235.66215 1.0117 8.77021v.043l.8711 4.45646v.46128l.029-.16807.023.62741v.1036l-.057-.1036v-.43977l-.066.30686-.2383-.49451-.5625-4.74964zm-9.3652 5.00568 7.0859 6.37391-.025-.0197zm25.7675 6.02013-11.8261 2.9006h-.057zm-12.1504.11531-1.6269 2.78332-.3496.40069.1113-.44954-.092.20719-.02.18179-.051.10553v-.0253l.051-.0802v-.16221l.02-.0197v-.10556l.012-.0234.082-.12118v-.0234l.033-.0272.061-.1505v.0197l-.061.13096-.033.0508zm-6.5292.23849 3.3242 2.54682.3633.56682-.4493-.16807.2012.13878h-.022l-.2188-.13878h.037zm5.0331.24627-.2968 1.58908.2968-.84047-.3339 1.37603-.1016.1505.1387-.68606.2617-1.56758zm-.582.38505-.086 1.71808-.057.19351-.1172-.46715zm3.1445.7447-2.2754 1.58908h-.023l-.4121.27757-.2871.11728.2129-.27557.074-.0215.8867-.71342zm-4.0429.57856.1348.14075v.0469l-.084-.1251zm3.8633.31665h.029l-.1738.0802zm-3.5254.18179.1835.3577v.0392l-.1835-.35376zm.416.0938.02.26385v.0392l.039.0958.047.11728-.047.0215-.039-.1192.039-.0197-.039-.0605v-.0352l-.057-.26192zm2.2207.0644-.07.0272-1.0156.30686.1562-.0605zm-5.6387.0665 2.3692.40655.3457.21498.029.0606-.3124.0644zm2.1641.31271h.053l.094.0314zm.7265.19155h.02v.0196zm-.164.0606h.02l.074.0802zm.2148.1818h.024l-.024.0314zm-.3359.16808h.057l.2461.0352-.8125.32836zm-.3887.0352h.2168l-.9316.47886.2637-.0527-.025.0272-.2383.0253-2.0253.39287v.0234l-5.2422.93428 5.2422-.95774zm1.7774.0234.5078.043.7519.2228-.8457-.0841zm-.2188.16418.035.0178.1113.22088.3282.16611 1.4394 1.4034-1.3496-1.00858-.2344-.2971-.1855-.26385-.018-.0333-.092-.18766h-.035zm-1.0625.0802-.25.27364h-.029l-2.7812 1.26461 2.2988-1.41316zm1.5703.0997.1485.0253.031.0314zm.2207.0253 1.9356.60398-1.9063-.57074zm-1.1796.17201.031.1251.022-.0978-.022.13092v.006l.076.23066.125 1.89594-.2324-1.35256.031-.77402-.088.50819v-.0919l-.031-.18569.031.14272v-.26385zm.7226.0919.061.0664.088.14661-.037-.0314zm-1.1406.1818-.2442.52578-3.9492 12.85138 3.9219-12.85138h.027l.084-.28732.01-.0117zm-.088.10552-.065.11339.041-.0978zm1.4648.0802.033.0234.1152.18962-.092-.0919zm-.4375.21306.023.0295.029.22669zm-1.7304.26581v.0295l.051-.0295zm2.2929 1.35257 4.8828 10.7893-4.8828-10.73457z" fill="#aa40bf"/></g><path d="m67.446409-.0000005c48.876891 39.6061145 65.714601 69.2690015 56.509281 98.2837145-39.68951-30.858944-81.620179-48.549634-123.956219-63.871429l-49.999471-21.368943v60.014409h49.999471c38.063799 9.422789 75.540655 22.291239 110.637009 49.130249-13.779487 17.56084-36.274467 35.80574-66.242439 56.72041l86.553259 37.37762c-.47821 3.56812-.67773 7.23125-.53522 10.98622.6049 15.92141 7.61973 29.57315 17.2072 41.0798 7.57645 9.09448 16.78494 17.10797 26.4727 24.77415l-67.43216 49.16192-106.660349-61.98814-49.999471-30.39346v68.59444l49.999471 10.08262c118.687439 12.18862 152.141189 118.73495 0 143.39191h-49.999471l.00053 78.02451h17.689375l56.397531-50 121.411034-57.8373c-49.020457-58.12021-3.63779-106.64768 46.87113-135.00789 21.37072 16.26767 41.65621 32.46355 50.5005 51.65327l8.95935 19.43463 8.95725-19.43463c3.98721-8.65215 10.31587-16.68992 18.00422-24.40466l16.1547 121.93886c51.75672-29.94474 140.41812 7.38642 149.26347 43.65667l10.37953 50.00105h95.41138l-49.99947-54.98375-72.70305-87.87284c-70.05547 46.65685-117.79647-5.77866-124.72368-93.28834 6.27059-4.89825 12.7671-9.76693 19.21294-14.68735 11.04217-8.4273 21.85419-17.06257 30.83889-26.91079 37.52119 16.39224 49.05318 43.95753 26.28057 84.08303l121.09433-9.13565h49.99947v-55.56932l-49.99947 9.96602-84.56335 18.15729c-5.2994-25.50782-5.93807-44.02087 23.36167-69.52975-22.88874-3.51006-45.65502-6.24632-68.27985-7.4371 1.5497-4.91408 2.51879-10.08152 2.72359-15.51814v-.002c.29558-7.73269-.80652-15.10116-3.0065-21.96821 35.15335-10.8057 68.1215-24.91138 99.1388-41.96234l-99.62757-59.12003c39.92281-27.827105 82.641-39.771856 130.25215-51.80106l50.00053-12.881934v-89.537736h-95.93555l-28.67349 49.9999995c-20.50084 41.8926655-70.85249 80.9055015-133.76432 118.3179605 40.84545 3.65574 140.77494 28.95665 66.12631 64.44781-9.55791-11.45809-22.65122-19.8495-36.78963-23.74699-14.47516-3.99037-30.46201-3.27991-44.74715 4.07062-9.31089 4.79268-17.66114 12.41135-24.38566 22.7135-6.72771-10.3032-15.07794-17.92188-24.38883-22.71245-7.14257-3.67368-14.70846-5.68998-22.30074-6.28537-7.59018-.5975-15.20779.22169-22.44537 2.21687-16.92428 4.66389-32.35586 15.76096-42.00667 30.86318l-38.3446-18.3737c30.95184-45.79754 64.97564-75.529047 102.30787-89.895473-37.36285-29.108667-61.2914-48.49474-77.28038-81.6127905l-14.24996-50.0031665h-111.748326z" fill="#eed9f2" filter="url(#a)" stroke-width=".9"/><path d="m140.6889 189.88513-38.3446-18.3737c30.95184-45.79754 64.97564-75.529047 102.30787-89.895473-37.36285-29.108667-61.2914-48.49474-77.28038-81.6127905h-59.925381v-.003167c48.876891 39.6061145 65.714601 69.2690015 56.509281 98.2837145-39.68951-30.858944-81.620179-48.549634-123.956219-63.871429v38.645466c38.063799 9.422789 75.540655 22.291239 110.637009 49.130249-13.779487 17.56084-36.274467 35.80574-66.242439 56.72041l86.553259 37.37762 119.47798 33.62049-76.3333 43.21968-67.43216 49.16192-106.660349-61.98814v48.2836c118.687439 12.18862 152.141189 118.73495 0 143.39191v28.02451h24.087965l121.411034-57.8373c-49.020457-58.12021-3.63779-106.64768 46.87113-135.00789l57.672-57.11321 28.74932 84.36182 16.1547 121.93886c51.75672-29.94474 140.41812 7.38642 149.26347 43.65667h55.79144v-4.9827l-72.70305-87.87284c-70.05547 46.65685-117.79647-5.77866-124.72368-93.28834l-51.73001-63.01128 101.78184 21.41314c37.52119 16.39224 49.05318 43.95753 26.28057 84.08303l121.09433-9.13565v-11.40082c0-7.60055 0-15.20111 0-22.80165v-11.40083l-84.56335 18.15729c-5.2994-25.50782-5.93807-44.02087 23.36167-69.52975-22.88874-3.51006-45.65502-6.24632-68.27985-7.4371l-120.519 9.12183 120.23609-46.61018c35.15335-10.8057 68.1215-24.91138 99.1388-41.96234l-99.62757-59.12003c39.92281-27.827105 82.641-39.771856 130.25215-51.80106v-52.4196705h-74.60851c-20.50084 41.8926655-70.85249 80.9055015-133.76432 118.3179605 40.84545 3.65574 140.77494 28.95665 66.12631 64.44781l-107.75295 70.3159z" fill="#eed9f2" stroke-width=".9"/><path d="m199.35742 158.32031-4.0957.0684-.64453.32227c-3.88184.35923-7.72847.94433-11.46289 1.97265l-.002.002h-.002c-28.29972 7.80227-52.25935 33.65077-51.01172 66.52148.57864 15.29028 7.47471 28.8384 16.80274 40.03711l.002.002c9.48809 11.38699 21.47688 21.01291 33.97266 30.55078 20.49572 15.64413 41.65497 30.52483 54.25585 48.19922l14.65625 20.5586 14.65625-20.5586c12.60041-17.6746 33.75944-32.55634 54.25391-48.19922 12.49736-9.53715 24.48651-19.16247 33.97461-30.55273l.002-.002c9.33016-11.19812 16.22231-24.74817 16.80469-40.03516l.002-.002v-.002c1.24463-32.87096-22.71769-58.718-51.01953-66.51757-14.02891-3.86614-29.6796-3.17104-43.49609 3.93945-9.5972 4.93732-18.33249 13.21943-25.17774 24.51562-6.84601-11.29675-15.58151-19.57958-25.17773-24.51757h-.002l-.002-.002c-6.90668-3.55211-14.34048-5.55652-21.73437-6.1289l-.008-.002h-.01c-1.80763-.13815-3.655-.2005-5.53711-.16992z" fill="#6a1f7a"/><path d="m199.64942 176.31888c1.29845-.0211 2.58951.0211 3.87426.11929 5.14104.39798 10.16596 1.76083 14.89108 4.19096 9.45129 4.86341 18.18474 14.10146 24.13231 30.64148l9.28238 25.81608 9.28133-25.81608c5.94651-16.54002 14.68101-25.77913 24.13231-30.64042 9.44812-4.86236 20.09969-5.45141 30.47679-2.59165 20.75421 5.71956 38.69402 25.23231 37.81361 48.4842-.40748 10.6959-4.85813 19.8495-12.64887 29.19945-7.79075 9.35311-18.88991 18.47399-31.06586 27.76587-19.92023 15.20462-42.82797 30.79033-57.99036 52.05863-15.16239-21.26725-38.06908-36.85296-57.99037-52.05863-12.17489-9.29294-23.27511-18.41381-31.06586-27.76376-7.79073-9.35312-12.24244-18.50566-12.64675-29.19945-.88254-23.25189 17.05517-42.76464 37.80832-48.48631 3.89115-1.07148 7.82241-1.65948 11.71356-1.7186z" fill="#eed9f2" stroke-width="36"/></svg>