<svg height="500.0004" viewBox="0 0 500 500.0004" width="500" xmlns="http://www.w3.org/2000/svg"><g transform="translate(-500 -500)"><path d="m999.99997 750a249.99997 250 0 0 1 -249.99997 250 249.99997 250 0 0 1 -249.99997-250 249.99997 250 0 0 1 249.99997-250 249.99997 250 0 0 1 249.99997 250z" fill="#ffe24c"/><path d="m1000 750.00632-194.05817-2.60063 192.98367-20.4591-193.45987 15.31075 190.28547-38.19139-191.22567 33.10816 185.92267-55.58184-187.34707 50.61663 180.01317-72.50831-181.88127 67.68555 172.56127-88.82024-174.86477 84.18876 163.62798-104.35075-166.35478 99.94311 153.30278-119.00625-156.40808 114.88758 141.65488-132.65651-145.14668 128.82271 128.82258-145.14278-132.65648 141.65492 114.88758-156.42029-119.00218 153.31093 99.94719-166.3385-104.34669 163.60764 84.17649-174.84041-88.81609 172.54909 67.67739-181.89345-72.48799 180.02133 50.6167-187.35925-55.5941 185.94294 33.1-191.23373-38.1995 190.27732 15.3474-193.45586-20.4957 192.97968-2.59249-194.05413-2.5681 194.05413-20.4916-192.97968 15.327 193.45586-38.2004-190.27732 33.1171 191.23373-55.5936-185.94294 50.6162 187.35925-72.51029-180.02133 67.69979 181.89345-88.81699-172.54909 84.17729 174.84041-104.36289-163.60764 99.96869 166.3385-119.00618-153.31093 114.86968 156.42029-132.64018-141.65492 128.81968 145.14278-145.14988-128.82271 141.67318 132.65651-156.42638-114.88758 153.29788 119.00625-166.34218-99.94311 163.62828 104.35075-174.86477-84.18876 172.54667 88.82024-181.87387-67.68555 180.00617 72.50831-187.35587-50.61663 185.94077 55.58184-191.21897-33.10816 190.28097 38.19139-193.47947-15.31075 192.98647 20.4591-194.04384 2.60063 194.04384 2.58435-192.98647 20.46723 193.47947-15.31481-190.28097 38.20361 191.21897-33.12445-185.94077 55.58997 187.35587-50.60849-180.00617 72.5083 181.87387-67.68553-172.54667 88.81211 174.86477-84.17656-163.62828 104.33851 166.34218-99.95936-153.29788 119.0103 156.42638-114.87941-141.67318 132.66054 145.14988-128.83082-128.81968 145.13868 132.64018-141.66304-114.86968 156.42028 119.00618-153.28243-99.96869 166.32222 104.36289-163.59543-84.17729 174.84852 88.81699-172.55719-67.69979 181.8975 72.51029-180.02538-50.6162 187.35108 55.5936-185.93884-33.1171 191.21336 38.2004-190.26101-15.327 193.47618 20.4916-192.99594 2.5681 194.05003 2.59249-194.05003 20.4957 192.99594-15.3474-193.47618 38.1995 190.26101-33.1-191.21336 55.5941 185.93884-50.6167-187.35108 72.48799 180.02538-67.67739-181.8975 88.81609 172.55719-84.17649-174.84852 104.34669 163.59543-99.94719-166.32222 119.00218 153.28243-114.88758-156.42028 132.65648 141.66304-128.82258-145.13868 145.14668 128.83082-141.65488-132.66054 156.40808 114.87941-153.30278-119.0103 166.35478 99.95936-163.62798-104.33851 174.86477 84.17656-172.56127-88.81211 181.88127 67.68553-180.01317-72.5083 187.34707 50.60849-185.92267-55.58997 191.22567 33.12445-190.28547-38.20361 193.45987 15.31481-192.98367-20.46723z" fill="#fffbb3" fill-rule="evenodd"/></g><path d="m250.80387.03014725c-7.3811.25967-14.31085.97585995-21.50976 5.31640595-7.20157 4.342146-13.79471 13.6921958-14.30664 23.6269528-3.45069 62.266212-39.27962 178.110334-60.79883 247.714854-42.84345 58.86555-61.043783 65.36923-117.808592 123.37109 0 0-7.341929 9.31319-9.177734 14.82812-2.94732 8.85403-4.415855 18.75765-2.472656 27.88477 1.908235 8.9629 6.69997 17.73901 13.373046 24.01953 6.37858 6.00336 14.970961 10.54431 23.691407 11.36914 9.17666.86799 18.42972-3.07442 26.732422-7.07812 6.105644-2.94425 16.312497-12.14063 16.312497-12.14063 50.86747-61.41312 51.47261-78.92101 113.75391-135.73242 64.2141-55.74399 182.1382-134.71344 258.36523-164.93164h.002l.002-.002c9.90639-3.9302 17.22427-12.11703 20.49609-20.69532 3.27182-8.57827 3.27212-17.42877.64844-25.62304s-8.34347-16.365272-17.77539-20.666022c-9.43192-4.300755-21.28475-3.159172-30.8711 1.93359-54.18659 28.706662-143.55977 74.816182-209.55087 125.416072 18.01718-62.07435 37.50023-137.080053 48.48242-178.433598l.0117-.04492.0117-.04297c2.9733-11.4299-2.68002-23.759848-9.97851-30.2773438 0 0-5.57753-5.124386-8.9961-6.576172-5.80381-2.46475195-12.33505-3.45802295-18.63668-3.23632895z" fill="#f2c80d"/><path d="m250.47131 18.027429c11.27943.208138 23.34254 6.726756 20.52435 17.56041-15.13671 56.997349-46.48463 178.195731-67.23475 239.223801 56.75113-61.82907 184.44741-128.76763 254.14328-165.69101 23.82061-12.654752 33.53365 24.04827 12.42055 32.42454-80.1976 31.79222-197.72888 110.90336-263.70697 168.21744-63.78347 58.14976-65.78485 77.50676-115.64084 137.69866-.637857-8.03525-3.883476-15.95223-9.582727-22.39429-8.408435-9.51418-20.628581-13.92203-32.149945-12.41774 56.637852-57.87214 76.037952-65.04195 121.237822-127.68584 21.36801-69.12385 58.68499-186.567272 62.47894-255.027243.43406-8.419805 8.7364-12.074652 17.5103-11.908742zm-178.363748 409.728981c7.278967 6.8208 13.190109 21.81611 6.513465 29.22912-6.33472 7.0334-21.290137 3.18321-28.182759-3.30282-7.423692-6.98582-12.541846-22.81223-5.430644-30.11675 6.380479-6.55402 20.425898-2.06349 27.099938 4.19045z" fill="#fffdcc" stroke-width="36"/><path d="m475.59205 109.34622c-.98938-.78491-2.08688-1.42685-3.2812-1.90563-11.78933 6.49562-23.88447 13.15546-36.27023 19.86832-1.74672.94721-3.92884 1.75896-5.66128 2.72202-2.21355 1.2335-4.00948 2.70544-6.13696 3.83683-11.06915 5.90765-22.71599 10.84529-33.75625 16.65064-5.70006 2.99577-11.52716 5.92002-17.20644 8.7217-5.55425 2.74413-11.10901 5.14755-16.54744 7.93534-8.33239 4.27174-16.28502 8.96819-24.61266 13.25641-3.60756 1.85456-7.35004 3.56305-11.12196 5.25655-3.35797 2.06643-6.70338 4.14631-10.03398 6.24065.87845-.39656 1.73407-.79144 2.61844-1.19124 4.20051-1.89974 8.49836-3.31525 12.51323-5.26778 2.83529-1.37697 5.63605-3.29911 8.42375-4.68181 2.56964-1.27219 5.10792-2.11081 7.5237-3.33687 3.06913-1.56297 5.59853-3.52729 8.6641-5.23622 2.83268-1.57968 6.1375-2.78002 9.20666-4.27266 9.39707-4.57141 20.29164-9.5991 30.62722-15.33831.50074-.4895.73915-.13578 1.021-.14221.51969-.01.84491-.71754 2.28558-.85288 1.73368-1.29532 2.77083-.97372 4.3959-2.01663 19.40311-8.99465 39.92618-18.73928 59.63233-30.61621.78406.71149-2.11347.87343-1.32625 1.58077 8.89054-4.57493 12.36987-6.99591 19.55563-10.7529-.17235-.1511-.33361-.31557-.51286-.4579zm6.32362 15.55915c-4.24831 1.36816-8.83865 3.51789-13.33219 5.44239-14.79167 4.15184-29.74149 13.90024-46.50935 22.47547-5.62897 2.87271-11.20143 5.07245-17.62892 8.95558-10.00349 3.9061-21.28499 10.74368-31.65085 15.48097-4.58704 1.14805-8.94316 3.89725-13.775 5.96177-2.16953.92692-4.636 1.49368-6.85789 2.55077-6.33913 3.01106-12.31552 7.07293-18.89578 9.65985-8.13473 4.52836-16.00579 9.08897-21.43071 14.01933-10.25709 6.41036-21.44164 14.05205-32.68061 18.59418-3.64488 2.22893-8.50389 4.27645-11.19329 6.64813-15.92441 9.22567-30.41215 18.96066-47.01387 26.55369-1.98872.69449-3.98599 1.41302-5.99844 2.16573-.80633.77371-1.60132 1.54696-2.38797 2.31968 9.74342-4.00166 19.76428-8.64349 30.34706-14.57764 9.59926-6.09237 19.96643-12.07293 30.22112-18.06989 9.01222-5.38442 21.2266-10.79999 31.35193-17.00352 5.67461-3.47535 10.46169-7.20756 14.51247-10.60678 16.74209-10.5461 34.26733-18.44088 50.36869-25.46067 5.70601-2.4862 11.2552-4.73963 16.72401-7.60716 22.33806-11.72715 45.27964-22.42668 69.08303-35.44523 8.62787-3.01695 17.6012-6.82452 26.66586-10.84182.0431-.40428.061-.8097.0808-1.21483zm-215.89581-102.082217c-.55528-.410805-1.1486-.79054-1.76469-1.150992-3.71301 2.962563-7.55672 5.905904-11.38153 8.851173-6.6138 4.950639-12.18227 10.058474-18.67586 15.029-.92712.654378-1.87344 1.297588-2.81055 1.945899-.11975 1.019599-.22658 2.019608-.35688 3.053863 5.40054-3.877508 10.66347-7.772588 15.98585-11.706095 6.06597-5.316946 12.61948-10.562127 19.3056-15.787698-.10108-.07803-.19859-.158811-.30192-.235167zm.75854.594009c-8.35447 6.463476-16.46263 12.966916-24.10269 19.536475-3.81062 2.570477-7.7265 5.378512-11.72963 8.226422-.0695.544512-.15121 1.105258-.22357 1.653687 5.28122-3.69594 10.36743-7.420096 15.6833-11.11063 6.47341-5.929328 13.70251-11.748198 21.24966-17.518941-.28111-.269901-.57097-.533647-.87707-.787013zm-3.52795-2.284667c-.62928-.325931-1.27911-.628568-1.95187-.904904-.85684.65668-1.71249 1.313598-2.57318 1.971284-5.16489 3.949301-10.08821 8.515816-15.77536 11.302313 6.35914-4.433459 12.22251-8.940689 17.87195-13.47936-.22129-.08578-.45328-.155086-.67826-.235526-8.72509 6.746511-17.72203 13.298765-27.18689 20.539116-.28812.22054-.57951.438087-.86839.657904-.0374.383899-.0677.758446-.10679 1.14474 3.57145-2.886109 6.92378-5.796119 10.90309-7.745384-3.57229 2.503559-7.18767 5.348534-10.9504 8.241833-.12266 1.193773-.26478 2.416636-.4032 3.632531 2.30734-1.629366 4.58137-3.320817 6.82806-5.130693 2.22954-1.79758 4.18731-3.883881 6.26267-5.596346 2.26008-1.862246 4.53816-3.347422 6.44782-5.273595 4.26539-3.010128 8.30991-6.054661 12.18074-9.123914zm4.93345 3.60135c-1.90464 1.40277-3.79886 2.78725-5.69754 4.248421-6.87574 5.286836-12.83746 11.660143-20.60067 16.518118-2.78767 3.346536-7.21803 5.263072-11.24394 7.92432-.1046.783854-.20833 1.566063-.31859 2.357649 3.65746-2.306807 7.20629-4.649963 10.53125-7.169853.6713-.509302 1.14266-1.35716 1.74975-1.816197 2.86237-2.163629 5.73135-3.907281 8.30985-5.891064 3.32871-2.563656 6.41484-5.29517 9.45848-7.789082 3.04666-2.266849 6.0759-4.537937 9.0796-6.811336-.37738-.548525-.79935-1.073019-1.26819-1.570976zm-14.67812-6.483351c-.34245-.04009-.68411-.08731-1.0273-.116052-3.56589 2.966359-7.31863 5.921898-11.48744 8.846569-2.64618 1.856203-5.39326 3.873389-8.22932 5.863293-.0208.308901-.0423.617877-.0645.928642 2.93814-2.060951 5.79871-4.152804 8.65205-6.145844 4.382-3.061098 8.47669-6.225477 12.15649-9.376608zm17.90084 14.310554c-1.66275 1.175178-3.31346 2.352652-4.98091 3.527086-7.41587 5.240022-14.51544 10.972271-22.22234 16.581168-4.82051 3.508103-9.83781 6.985417-14.95804 10.409514-.0653.418242-.12355.82716-.19016 1.247251 9.20526-6.236844 18.06468-12.523407 25.98476-18.949888 5.30266-3.927031 10.79424-7.826303 16.30686-11.722494.0381-.370151.057-.734045.0598-1.092637zm-20.18361-14.493888c-.25068-.0108-.50207-.0354-.75216-.04002-.32969-.0062-.65655.0035-.9845.0081l-.17575.09843c-2.13095 1.859632-3.93607 3.772677-6.86417 5.511901-.97163 1.538483-3.9303 2.775337-5.36234 4.244601-.70497.487404-2.28742.844782-1.32623 1.580782 5.80007-3.706159 10.88522-7.515932 15.46514-11.40377zm20.03322 16.24251c-8.6024 6.08458-17.08798 12.505973-25.67595 18.857122-4.30149 3.179585-8.39414 6.650141-12.82205 9.667057-1.27939.872118-2.57137 1.720385-3.86801 2.559862-.0831.516793-.17751 1.050006-.26268 1.569486 6.81162-4.635913 13.51163-9.338755 20.02355-14.233778 7.38692-5.552733 14.73601-11.109461 22.19315-16.569729.0412-.155322.11014-.418161.15114-.572523.11295-.434245.19469-.857243.26083-1.277497zm-.67993 2.863976c-3.1254 2.345576-7.02751 4.577881-9.58365 7.007006-5.27063 2.977542-7.62207 6.382459-13.00347 9.342346-5.78671 5.04931-12.59222 9.412092-19.43187 13.852538-.0641.389242-.13253.783494-.19781 1.174205 4.76762-3.195857 9.56382-6.387682 14.37928-9.576614 8.20494-6.594186 16.95829-13.11066 26.0797-19.570107.48044-.3746.97646-.736801 1.46118-1.108188.0825-.31096.21504-.813767.29664-1.121186zm-25.99703-18.630595c-5.75208 1.158489-10.42586 4.31349-11.43152 9.811254 2.82888-2.104885 5.96608-4.162819 8.40034-6.32827 1.03757-1.155876 1.91664-2.337223 3.03118-3.482984zm22.67075 31.208794c-8.97544 6.032785-18.56368 12.090923-27.78402 18.223067-2.25653 1.501475-4.7963 2.821755-6.98402 4.307653-1.53475 1.04054-3.24775 2.677057-5.36153 4.249866-.0589.04383-.11594.08564-.17489.129323-.12688.697931-.25212 1.393173-.3822 2.095068 1.65334-1.107277 3.29811-2.220016 4.88381-3.367012 9.48291-6.855655 19.50479-12.718151 31.12726-19.410413.4912-.891054 2.25019-1.768262 3.6937-2.511644.31094-1.177268.6797-2.572516.98185-3.715925zm-1.77623 6.715755c-.90135.53762-1.84508 1.069186-2.84971 1.591619-5.83087 4.673227-13.33087 9.098791-21.18646 13.472371-2.8889 2.042485-4.60414 4.261664-8.1319 6.210923-3.60974 1.674817-4.39757 3.767884-7.59091 5.504276-.3344 1.737095-.66904 3.47239-1.02131 5.230685 1.6175-.99521 2.79797-2.056231 4.0214-3.109794 1.50354-1.556147 4.90004-2.832099 5.7787-4.482914 4.12354-2.855221 8.57096-5.558518 12.94302-8.464327 4.10786-2.732047 8.05714-5.854606 12.34902-8.552677 1.41202-.886743 2.89553-1.702456 4.3933-2.505054.43288-1.639819.87618-3.309435 1.29485-4.895108zm-24.28785-14.62398c.11606.324235-2.74904 2.166643-3.67965 2.71735.64564-.992239 2.06785-1.86891 3.43382-2.753533.15186-.02465.23009-.0087.24583.03618zm22.10802 22.86295c-9.72978 6.063462-19.59032 12.303448-28.80815 19.138232-3.34679 2.480232-6.82306 4.865527-10.32797 7.252036-.58991 2.89108-1.20302 5.80847-1.83669 8.74839 1.50181-.92312 3.0191-1.87979 4.55245-2.8925 10.29681-6.06238 21.5143-13.008053 33.00146-19.311428 1.25604-4.749825 2.25046-8.508896 3.4189-12.93473zm-4.17718 15.797769c-2.25599 1.516707-4.48849 3.140854-6.9155 4.483019-3.73944 2.066249-7.39226 3.839084-10.95007 6.08649-6.26506 3.95305-12.85592 7.51489-19.43742 11.103962-.14413.66002-.28323 1.3149-.4294 1.97706.87766-.46718 1.74677-.94078 2.63943-1.39718 5.63582-2.880032 11.58707-5.183182 16.78818-8.487122 2.57802-1.63722 5.7903-3.56221 9.27194-5.154173.95686-.168426-.3467.448513-.0633.885243 2.46204-1.36506 5.11658-2.814595 7.7051-4.234294.5309-2.003606.87279-3.304302 1.39107-5.263005zm111.14498 93.392761c-.1143-.1049-.25077-.15731-.4581-.0481.23338.19931.3658.63.7818.4107-.1173-.0995-.20941-.25773-.32371-.36266zm-1.72499.65625c-3.49575 1.57836-6.02601 1.50777-8.89511 2.83174-1.54056.71326-3.26301 1.91978-5.48138 3.04561-.0886-.40653.71332-.68762.48398-1.11344-5.58345 2.55283-10.87147 4.43284-16.96808 8.16353-1.15931.716-1.51394-.4278-2.6398.19805-6.57509 3.24959-13.57826 6.9079-18.53904 10.30486-1.97654.79586.69966.45869-.48051 1.11827-7.96192 4.25901-15.25528 8.61563-21.97285 13.05838-1.26204.94844-.41512 1.11424-.72955 1.66872-1.85229 1.29919-3.33475 2.38992-6.5605 4.07222-.0229-.78392 1.13661-.92345-.11268-1.20135l-8.84687 4.91985c-.1127-.51225.9011-.85849 1.50263-1.26203 1.85034-.41679.31629-1.33537 1.74976-1.81621 6.78433-3.54126 12.55425-7.23931 16.98029-11.12965-5.91813 2.58263-14.48417 7.34453-19.8033 11.0087-1.57404.45879.11659-.90364-.11461-1.20511-1.78398.62555-1.52838 1.55706-1.99297 2.37786-1.52362.26375-1.41748.98804-3.36744 1.87049-.54743.4904.3929.32089.53511.96749-.91802.64148-.98662-.66873-1.80045-.26209-.52892.44174.28255.58151.77941.4043.2224.0993-1.0449 1.00896-1.08545 1.02898-1.52002.68398-.83824.4884-1.802-.26318-.52525.16903.86808 1.50383-.48592 1.10969.0549.70293-2.00965 1.09415-1.74738 1.82257-.98772 1.40392-2.02521-.54868-1.86327.60958-.85607.22658-1.22585 1.92171-2.10914 1.17163-.54425.80273-2.69321 1.34359-3.4338 2.75352-2.4167.29987-2.69965 1.34413-4.20815 2.33897-2.82722.86199-3.24463 2.4004-6.50114 3.19572 1.21802 1.36273 3.94248-.74284 6.19748-1.75605 1.48805-.47538-.51578.84038-1.08892 1.02414l-2.53003 1.40662c-2.67589 2.07435-6.41607 3.99481-9.32408 6.03355-1.60528.0313 2.7937-1.54112 2.58217-2.28602-1.84529-.0584-4.2628 1.20409-6.57607 2.22195-4.2996 3.4856-8.47447 6.97281-12.4474 10.45771.0426-.0191.0824-.0317.1253-.0512l21.0638-11.71064c1.80261-1.25613 5.49938-3.80233 7.82626-4.77499.21364-1.09558.84726-1.27628 1.68296-.9358.31524-.4493.0289-.98593.91014-1.34928l11.79714-6.55733c1.81909-.75123 3.18268-.47387 5.40822-2.16285 2.02675-.0748 3.45546-1.36939 5.17383-1.61342 4.89996-2.95529 10.02489-6.05626 17.93754-10.38929 1.66729-.64302 3.39337-1.43641 4.99104-1.92982 2.36062-1.53047 4.44604-3.10035 7.40231-4.5422.009-.59064 1.59411-.946 1.32817-1.57705-1.61961-.0371.87082.0467.24366-.55901 14.19645-8.73863 28.4902-15.68575 43.39229-24.1225 1.12074-1.1062 1.30363-.0619 2.04232-.29125 5.18288-3.14475 7.3925-3.15233 11.37358-6.32191zm-12.49599 4.26299c-.12972-.11497-.45532-.18647-.54639.0323-.0713.14826.47306.37816.59554.0895.0163-.039-.006-.0834-.0491-.12179zm-4.16647 2.46462c.62952.55172-1.86136 2.56867-2.10165 1.16773 1.13846.15909 1.07485-.54923 2.10165-1.16773zm-2.94872 1.63856c.32934.74005-.67101 1.28568-1.74145 1.81756-1.03331-.84225 1.02696-1.23175 1.74145-1.81756zm-2.81232 1.8422c.044.0378.0655.0809.0488.11912-.12787.28819-.67223.0674-.60497-.0894.093-.21539.4247-.14388.55623-.0299zm-96.63323-68.05097c-10.7385 6.45085-21.31561 12.80214-32.71624 19.66943-1.1716.70559-2.38635 1.42628-3.57311 2.13577-.12266.48258-.24276.9627-.36609 1.44563 3.39185-2.08777 6.78557-4.16786 10.1945-6.21508 8.88371-5.33848 17.45823-10.24313 25.99064-15.27226.16244-.6058.30849-1.15951.4703-1.76349zm94.73418 68.99309.002.00092c.14281.0757-.24501.40748-.58639.58294-.74287.19113-.21117-.32373.24475-.56054.18745-.0447.29461-.0446.34011-.0236zm-96.30785-63.12686c-6.66031 3.90756-13.38775 7.83506-20.50591 12.11268-5.05836 3.03909-10.31447 5.96564-15.50443 8.86586-.61333 2.37574-1.23204 4.75209-1.85921 7.13286l1.09114-.60589c2.04344-.81875-1.13166-.53029.90754-1.34881l11.3736-6.32191c1.32762-.69047.6395-1.6857 2.59158-2.28618 6.48877-3.37589 13.2521-7.23321 20.21918-11.31717.55632-2.06432 1.13631-4.18338 1.68653-6.23141zm101.8775 82.89067c-11.41174 5.45917-23.26816 11.88765-34.93318 18.37225-4.51771 2.51139-9.17508 4.49774-13.83944 6.84855-4.75087 2.39176-9.27654 5.22884-13.90473 7.73006-3.63188 1.95935-7.53349 3.56552-11.31425 5.4454-7.99144 3.97014-15.83704 7.68768-23.46412 11.34899-9.91738 4.76524-18.85128 10.08712-28.58752 15.04749-5.64446 2.87537-11.35488 5.87581-17.20536 8.72018-5.21556 1.70782-11.33443 5.48723-16.48562 7.04898-2.95794 1.65556-4.84313.85324-8.11966 3.24478-2.44745.48392-4.93432 1.06583-7.63484 2.13659-1.43188 1.33389-1.58442-.27407-2.39948-.35637-1.10163.5647-2.11715.93742-2.89135.75833-1.62392.81139-2.79477.57926-4.21016.91052-3.16104 4.25896-6.20193 8.25483-9.13946 12.00794l2.19679-1.22217c1.56666-.3831-.9262.99222-1.50501 1.25567l-1.26686.70429c-1.41592 1.80251-2.81497 3.56366-4.18792 5.26342 10.83552-6.36051 24.85656-14.51352 37.64313-20.47483 7.07979-3.30232 14.04972-7.23761 21.17536-10.50775 1.87088-.85872 4.06995-1.5226 5.84007-2.39688 6.49606-3.20805 12.26843-7.31632 18.95622-10.5379 3.45336-1.66565 7.89891-4.24807 12.22176-6.79425 1.01499-.63581 1.83552-.80517 2.46102-.52318 4.328-3.30996 9.50229-4.79519 15.58769-8.66586 1.08738-.30031 2.31388-.90766 3.30808-.99401l5.89857-3.27865c1.48561-.47878 3.21627-1.51891 4.57235-1.69786 10.10971-5.27652 20.57518-9.69887 30.45079-15.65709 4.88511-2.94938 10.24642-5.15199 15.52239-7.78435.73546-.36721 1.4665-.75734 2.19891-1.14148 7.64338-5.02106 15.34078-9.97106 23.05583-14.81081zm-104.52223-73.12403c-2.35482 1.31444-4.71171 2.62837-7.05142 3.95383-1.3039.73736-2.39574.83876-3.5537 1.54929-7.35585 4.52107-16.25512 9.26528-24.82149 13.60324-.37869 1.43459-.75669 2.86906-1.13987 4.3044 11.60353-6.23205 23.54038-12.95036 35.57398-19.74443.33095-1.22337.66332-2.44713.9925-3.66633zm78.44777 60.1196c-.0449-.0482-.14964-.0588-.3425.017-.23293.12937-.3341.52762.18034.32623.11759-.0655.19823-.19486.18765-.28531-.003-.0226-.0108-.042-.0254-.058zm-1.60938.72144c-3.22136 2.1307-7.28547 2.74353-9.44243 4.8304-.19253-1.02721-1.2225-.13855-1.80391-.26691-.0472.52958-2.93151 1.40705-3.97003 1.78759-1.25507.43529-3.11787 2.26583-3.97087 1.78231.45721-.23049.9917-.74813.24478-.56054l-.42465.23695c-1.92251 2.16944-6.81966 3.16376-10.35257 6.17967-4.1765 2.54591-6.46243 3.29175-8.48903 5.56331-1.07561.55023-1.65821.11526-1.50264 1.26203 1.47345-.60561 2.01941-.74031 2.94873-1.63856.6267.26823 1.19696.67037 2.21764.0293 7.0807-3.59865 14.41673-8.73493 20.04516-11.56203-.43167.33519-.46.71988-.48398 1.11342 5.28531-3.34602 12.59282-5.55138 14.98534-8.75557zm-78.43663-54.9344c-8.98747 4.84396-17.82495 9.69174-25.63753 14.32702-2.6437 1.56523-4.97073 2.77654-7.58263 4.21599-.32121.17492-.22114.65367-.66079.79206-.37985.12175-1.04255.41876-1.78634.77008-.0883.32865-.18145.65593-.26995.98457 1.77328-.91878 3.55624-1.83578 5.36329-2.74713 9.25762-5.8088 19.60199-11.52 30.28468-17.27658.0967-.3567.19276-.70959.28931-1.066zm76.69539 58.71681c.0425.038.063.0815.0461.11957-.12528.28783-.66116.0663-.59554-.0895.0959-.21616.4215-.14372.54947-.0303zm-78.44866-52.24512c-8.01329 4.21993-17.70283 8.99705-26.52948 14.72807 1.02371-.46179 2.20178-.61053 2.02526-1.02989 1.24599-.66757 1.60079.71485 3.05988-.43831 6.80339-3.73857 13.79371-7.39299 20.84711-11.05061.20212-.74228.3956-1.46775.59723-2.20926zm-1.21398 1.38048c.0829.12682-.57462.55962-1.02703.78734l-12.63895 7.0273c-.90802.17548.0641-.49277.66679-.79704l12.6341-7.02381c.22785-.0433.33778-.0355.36511.006zm71.07049 52.26086c.0441.0378.0654.0807.0488.11912-.12614.28717-.67277.0665-.60499-.0893.0928-.21514.42461-.14395.55624-.0299zm-1.89905.94212c.14281.0757-.24175.40874-.58487.58406-.74122.1902-.21116-.32372.24474-.56053.18744-.0447.29459-.0446.34012-.0236zm-1.47321.93186c.0431.0384.0642.0822.0476.12068-.12775.28827-.66562.0607-.59901-.0944.0952-.21663.42224-.1419.5514-.0264zm-68.38098-48.50745c-11.81644 6.3761-23.8403 12.93763-35.61652 19.79045-.23997.86669-.47118 1.7373-.71221 2.60312 1.9725-1.09636 3.97743-2.22798 6.16448-3.47932 5.80097-2.15255 11.5208-5.31976 16.97071-8.16396 4.69646-2.45016 8.17281-4.2518 12.05132-6.56163.38442-1.40333.75915-2.78629 1.14222-4.18866zm69.54958 54.97622c.0782.12695-.57468.55533-1.02594.7858-.90631.17464.0584-.49021.66191-.79358.22784-.0433.3366-.0341.36401.007zm-2.33298 1.36554c.0439.0378.0646.0817.0477.12068-.12387.28716-.67204.0649-.60495-.0894.0943-.2153.42643-.14554.55732-.0312zm-1.26687.70429c.0438.0377.0653.0804.0488.11912-.1269.28882-.67159.0646-.60495-.0893.0958-.21616.4256-.14417.55622-.0299zm-68.27312-48.56662c-6.67316 3.59585-13.59449 7.06345-20.56773 10.62227-5.00949 2.55379-9.94181 5.39091-14.82296 8.20285-.11254.40028-.22713.797-.33982 1.19698 11.72145-6.33627 23.40965-12.57064 35.47714-19.10231.0843-.30679.16906-.61297.25333-.91979zm-.55105 2.00064c-.42292.24297-.87997.4956-1.25147.72475-.8381.51349-2.93697 1.03701-2.16844 2.04815l3.13565-1.74283c.0947-.34349.18971-.68652.28424-1.03007zm63.83117 48.49205c.0435.0375.0641.0788.0472.11801-.12367.28684-.6656.0725-.59996-.0833.0947-.21541.42265-.14772.55276-.0347zm-79.00654-54.64445c.0142.0152.0215.0379.0243.0595.008.0902-.0734.21788-.18802.28273-.51198.2011-.41294-.19141-.17794-.31988.19083-.0779.29682-.07.34162-.0226zm-1.47973.92481c.0437.0376.0653.0804.0488.11911-.12554.28814-.66761.0705-.60148-.0844.0944-.21798.42242-.14828.55273-.0347zm11.32513 8.49468c-.13147-.11484-.46102-.18383-.55428.0338-.066.15599.47928.37775.60343.0882.0163-.0391-.006-.0835-.0492-.1218zm-2.84025.88383c-3.64251 1.88175-7.73945 4.03012-11.55391 5.99566-2.24945 1.15491-5.31151 1.62405-6.13542 3.83795 6.2701-3.88496 11.30985-4.94572 17.63-8.95712.29054-.25691.3364-.53918.0594-.87649zm4.43267 9.36295-35.83802 19.92321c-.1342.46373-.27016.91989-.40445 1.38291 11.87522-6.78818 23.59241-13.59627 35.96327-20.31198.0926-.33226.18669-.66164.27919-.99414zm-20.45144-14.40635c-2.30008.92367-4.66323 2.935-6.83292 3.91203-.0779.28505-.15612.56959-.23411.85458 2.59212-1.39307 5.55771-2.53706 7.06854-4.76549zm-.7818-.41067c-.7929-.10787-1.80023.44707-1.50264 1.26204.60063-.40532 1.61236-.75032 1.50264-1.26204zm76.28152 57.1249c.0163.0103.0212.0236.0152.0435-.0676.23781-1.5816 1.06863-2.01407 1.26846-.74274.18747-.21309-.32733.24473-.56054l1.25941-.70039c.29413-.0723.44645-.0827.49486-.0511zm-55.66586-40.09942c-6.01953 3.35172-11.9647 6.70847-17.70495 10.08999.79227 1.08479 3.33959-1.04638 4.99105-1.92982 3.99869-2.13371 8.3258-4.88542 12.47562-7.30627.0795-.2848.15883-.56891.23829-.8539zm-22.58947-15.6487c-.12932-.11577-.45829-.18821-.55247.0278-.066.156.47654.37973.6001.0928.0166-.0394-.005-.0821-.0477-.12068zm70.69948 51.97335c-.12841-.11394-.45339-.18408-.5479.0313-.066.15596.46926.37719.594.0883.0166-.0394-.004-.0816-.0461-.11956zm4.96995 3.99792c.0438.0377.0657.0811.0488.11911-.12614.28717-.66945.0646-.60497-.0894.0952-.21663.42562-.14388.55623-.0299zm-2.88052-1.84569c.0822.12585-.57623.55395-1.0294.78098l-5.89967 3.28018c-.90595.17923.0611-.48606.66541-.78872l5.89858-3.27866c.22782-.0433.33776-.0355.36509.006zm-74.05094-53.42476c-.13176-.11445-.46196-.18439-.55471.0309-.0674.15655.47938.37546.60345.0882.0163-.0391-.005-.0809-.0488-.11911zm72.24597 52.76368c-.0149-.0635-.16939-.0519-.5409.0665-.57569.18405-2.57323 1.50228-1.08895 1.02414.42749-.14208 1.66667-.91418 1.62985-1.09069zm-1.65384 3.38487c.14282.0756-.24368.41075-.58487.58405-.74416.19301-.20872-.32596.24322-.56166.18743-.0446.2955-.0445.34165-.0226zm-1.893 1.1653c.0439.0377.0654.0815.0488.11913-.12686.28882-.66933.0661-.60386-.0908.093-.21459.42359-.14177.55513-.0285zm-.52103 1.43811-.00091.002c.1436.074-.24033.41266-.58141.58887-.74618.18938-.21257-.32984.24322-.56164.18751-.0447.29114-.0543.33926-.0289zm-2.57658-.67097c.0146.0152.0212.0349.024.0569.009.0901-.0692.21979-.18655.28378-.50846.21122-.41335-.19244-.17793-.31984.19087-.0793.29574-.0689.34056-.0209zm-.57875 2.54388c.0441.0378.0644.0815.0477.12069-.12776.28823-.67513.063-.60495-.0893.0928-.21515.42578-.14586.55732-.0313zm-65.14155-46.88815-6.95499 3.86546c-.0945.33492-.18866.66817-.28319 1.00289l2.96215-1.64747c1.22283-1.10432 4.97888-1.8333 4.27605-3.22088zm65.94216 49.71713c-.0441-.0474-.14752-.0561-.34055.0208-.23478.12568-.33136.52661.17794.31988.11874-.0635.1975-.19322.18654-.2838-.003-.0219-.01-.0416-.024-.0569zm-48.00415-34.03645c-.11323-.10603-.24869-.16093-.45591-.0511.23457.19884.3634.6345.77695.41416-.11551-.0991-.20782-.25706-.32104-.36307zm-.88055.18585c-8.82821 4.87003-19.28177 9.58445-27.37845 15.22081 8.7997-4.07122 18.38343-9.95428 27.31912-14.34432.28859-.25618.33645-.53911.0594-.87649zm-1.2466-.29829c-.1288-.1141-.4535-.18219-.5475.0337-.066.15599.46825.37679.59514.0869.0163-.039-.005-.0826-.0477-.12068zm43.90483 34.4849c.27289.33701.21857.62448-.0703.87556l-7.16392 3.98404c-.1117-.51039.91093-.85706 1.51247-1.25956 1.51343-1.26112 3.47757-2.45148 5.72173-3.60004zm-48.18601-32.54339c-.04-.0493-.11291-.0914-.23873-.12646l-4.21409 2.34397c-.66693.23133-5.9012 1.9617-6.13694 3.83682 2.4995-1.47294 6.65599-3.58178 8.84202-4.91638.38091-.23697 2.01923-.80845 1.74771-1.13794zm-7.79063-4.80392-1.26538.7054c-4.7113 2.51749-9.61707 5.2777-14.4728 8.08183-.12804.44062-.25712.87778-.38522 1.31773 5.30955-3.06083 10.5867-6.10485 16.05702-9.22194.28703-.25517.34263-.54453.0679-.88192zm54.76154 40.12837c-.4657.33063-1.22748.61052-1.08545 1.02899.26898-.12568.52581-.23084.60385.0908.36913-.24118.71267-.49242.67021-.79222-.0146-.0994-.0729-.21212-.18863-.32762zm-41.08994-28.33839c-11.6794 5.92118-23.5875 11.93765-35.71896 18.39163-.10648.35599-.21294.71691-.31933 1.07217 12.13595-6.49627 24.03493-12.65086 35.77705-18.54274.0868-.30383.17436-.61673.26123-.92106zm38.9042 29.72218c-.0456-.0462-.15195-.0528-.34537.0244-.23402.13023-.33248.52832.17878.32513.1176-.0656.20512-.19618.19356-.29037l-.002-.00091c-.003-.0226-.0103-.0426-.0253-.058zm-1.05493.6973c-.12953-.1151-.45763-.18771-.55139.0264-.0674.15652.47376.38223.59902.0944.0166-.0394-.005-.0822-.0477-.12068zm-38.92805-26.64343c-1.03332.51971-2.06565 1.04544-3.1008 1.55627-8.41894 4.15416-16.84551 7.72158-25.15217 12.29507-2.44833 1.34725-4.92387 2.73349-7.37869 4.09144-.41045 1.36735-.82022 2.73741-1.22897 4.09317 11.98037-6.55834 23.94774-12.77788 35.99919-19.05912.2881-1.00116.57268-1.96951.86144-2.97683zm37.66601 27.34422c-.1315-.11405-.4613-.18287-.55469.0309-.0674.15652.47764.37826.60494.0893.0163-.0391-.006-.0822-.0503-.12023zm-1.98272-.59204c.0439.0377.0654.0807.0488.1191-.12678.28987-.67014.0659-.60149-.0845.0923-.21951.42182-.14864.55277-.0347zm-2.51893-1.558c-.12894-.11457-.45298-.1851-.54637.0323-.066.156.47123.38088.594.0883.0163-.039-.005-.0825-.0477-.12067zm2.60453 3.09589c-.0443-.0471-.14974-.0568-.34207.0198-.23402.13024-.33123.52857.1814.3247.11653-.0647.19837-.19193.18609-.28646-.003-.0226-.0108-.0424-.0254-.058zm-1.60631.72367c-1.01011.20008-2.04047 1.80322-.90671 1.35409-.28982-.53782 1.07084-.83727.90671-1.35409zm-35.75014-23.5207c-7.86119 3.95863-15.50629 8.37423-23.31728 12.40983-4.28906 2.21652-8.52867 4.47821-12.75378 6.76483-.0912.30134-.1797.59481-.27072.89555.0468-.026.0993-.0569.1459-.0828 9.93773-5.52436 20.15402-10.50652 30.26936-15.98175 1.88606-1.01877 3.75164-1.99013 5.61869-2.94612.10223-.35363.2055-.70503.30785-1.05951zm-2.13908 7.39788c-.20963.12182-.41439.23361-.62127.34817-11.94008 5.61121-23.46775 12.4283-35.56271 18.85404-.14556.47814-.29364.97019-.43879 1.44651.19266-.31099.45479-.61192 1.0389-.86487 8.35586-3.78509 14.29977-9.14575 21.06271-11.70911 2.60461-.98635-2.28199 1.65317-4.45483 2.89575-3.13891 1.79248-6.43933 3.54196-8.84842 4.91875.16769 1.3269 1.58862-.22628 2.46588-.52667l19.80328-11.0087c1.64582-.73323 3.28014-1.43938 4.91358-2.14424.0852-.29108.16997-.5824.25524-.87418-.52451.20687-1.05012.41769-1.56107.59349l-5.05148 2.80784c-1.49171.47278.50968-.84233 1.08546-1.02899l2.10166-1.16774c1.21772-.62353 2.38426-1.12755 3.54604-1.62232.0878-.30071.1779-.61628.26582-.91773zm50.47442 40.36386c-14.26827 7.67829-29.00358 15.9276-44.34367 23.84033-1.12394 1.10436-1.30672.0644-2.04718.29473-13.1802 7.35069-27.73049 13.28337-39.71635 20.80886-.68068.47371-1.40019.0583-1.26578.70276-.54245.0306-.84193-.50333-1.61767.0543-7.75531 4.0941-14.0929 8.3961-21.13061 12.59101-1.42448 1.07216-2.00368.20167-3.30656.99513-2.15665 1.16296-4.4771 2.30488-5.11829 3.68823-6.07415 3.12011-13.13193 6.42154-20.21957 10.11804-3.6425 3.94527-7.22647 7.65791-10.81602 11.25603 2.76148-1.58148 5.37892-3.33351 8.2105-4.88526 2.41869-1.32076 5.07264-2.12242 7.51625-3.33295 8.05044-3.98745 15.38812-8.92962 22.99386-13.2006 2.21622-.75853 1.21572-1.99784 3.43035-2.75838l30.33727-16.86369c8.45244-3.0881 16.1186-8.08543 24.12605-12.14258 2.65991-1.34985 5.32474-2.24202 7.94087-3.5699 2.97694-1.50459 5.72506-3.59889 8.67045-5.2386 5.10237-2.84855 10.70633-5.32626 15.94705-8.0213 1.2632-.64962 2.45986-1.28332 3.70471-1.92867 5.44158-4.1136 11.01367-8.2538 16.70434-12.40748zm-74.54179-51.49455c-.6463.002-2.29168.68425-3.44596 1.43881-.0907.30743-.18029.62096-.27091.92799 1.36089-.45291 3.4384-1.57392 3.71686-2.3668zm45.12983 32.84473c-.0811.0643-.16319.12886-.2442.19312.11773.11523.25732.17934.47418.0643-.0822-.0703-.15501-.16732-.22998-.25751zm-22.84533-15.65488c-1.17112.70183-2.34697 1.41777-3.18599 1.35252.0277 1.64778 1.88155-.90046 2.2211.0341.21918-.11464.43303-.21597.65135-.32869.10485-.35546.20854-.70109.31354-1.05773zm-22.22348-15.74658c-.0295-.0431-.13841-.0487-.36358-.006-.6005.30862-1.57237.96991-.66541.78873.45307-.22667 1.11092-.65681 1.02898-.7836zm21.77352 17.26643-.33809.18794c-5.88031 1.22445-12.89112 6.50329-20.09474 9.48223.5676 1.3991 2.82636-1.10742 4.15364-1.46593.56323-.11735 1.95566-.86841 3.54732-1.54691l6.31726-3.51059c1.98768-.63319 4.08983-1.53138 6.22295-2.49884.0642-.21695.12747-.43053.19167-.6479zm-23.89932-16.12319c-.0457-.0462-.15273-.0545-.34689.0233-.23231.12908-.33109.52312.17792.31989.12007-.066.20452-.19765.19404-.28772-.003-.0215-.0102-.0404-.025-.0554zm45.88815 34.06945c.0149.0156.0246.0366.0271.0592.008.0907-.0708.2234-.18719.28799-.51059.21227-.41489-.1939-.17881-.32511.19017-.0787.29408-.0698.33903-.0219zm-47.36524-33.14505c-.11635-.1003-.38591-.15912-.51039-.0209-.009.0309-.0194.0602-.0285.091.0181.14897.4738.31549.58771.0489.0163-.0391-.006-.0816-.0488-.11912zm15.6389 18.66535c-.0465-.0459-.1536-.052-.34537.0244-.23333.12862-.327.52896.1814.3247.11881-.0661.20427-.19746.19209-.29143-.003-.0222-.0124-.0424-.0281-.0576zm7.12209 5.36222c-11.30973 4.19377-23.23204 9.79911-35.27892 15.68905-.0859.27934-.17242.56097-.25808.83951 1.26082-.66624 2.52456-1.33717 3.79751-2.03135 6.88313-2.65631 14.02811-6.13641 20.87766-9.07307 3.62274-1.55458 7.10069-2.94142 10.48425-4.16842.12566-.41812.25161-.83553.37759-1.25572zm-8.59573-4.43299c-.13187-.11381-.46128-.18287-.5547.0309-.0661.15607.47914.37757.60495.0894.016-.0387-.006-.0823-.0503-.12022zm24.79637 18.26551-.00092.002c.0829.12688-.57371.55881-1.02744.78469-.90632.17465.0655-.49103.66826-.79595.22694-.0426.33281-.0333.36026.01zm23.97396 18.01395c-.1296-.11571-.45603-.1893-.54986.0275-.0706.14733.47013.38105.59748.0932.0163-.0392-.005-.0821-.0477-.12069zm-50.16728-35.78119c-7.29594 3.14147-15.11802 7.49373-22.78925 11.49595-.10005.32737-.19579.63251-.29562.95897 2.61767-1.53552 5.33653-3.3075 7.49718-3.78905-1.71953 1.22884-4.99284 2.22766-5.71978 3.60379 4.09492-1.33293 9.30972-5.24513 13.42228-6.61552-1.03994-1.5353-4.59605 2.72733-6.01318 2.07355 4.70517-3.2215 10.26766-4.51793 13.89836-7.72769zm5.10553 19.13878c-1.83642-.66391-4.31207 1.30269-6.86025 2.54439-2.49706 1.2259-7.75231 3.76946-10.04738 4.74111 2.5362-2.39262 7.66283-4.40606 11.19812-6.65161-3.10433-1.19185-8.82836 3.65475-13.3603 5.73861 1.49099-1.75787 4.37379-3.30967 7.23072-4.86446-3.99002.10963-10.48747 5.99375-14.86158 6.99231 2.46206-2.4373 8.12062-4.60988 10.10782-5.61913-.27584-.86524-1.67386.0689-1.61769.0543-2.14893.58993-4.83377 1.49966-7.28379 2.7798-1.06789.61744-.63919.0488-.77654-.41152-.58312.35989-1.16552.71846-1.44373.3829l-5.15781 2.86811c-1.39235 4.51088-2.62319 8.47886-3.94174 12.73503.4438-.22248.89795-.46651 1.36275-.73723.16258.51783-1.19858.81346-.90904 1.34775 2.19827-.4742 6.80154-3.14046 8.43124-4.68571 1.13866-1.15527.89788.86883 2.04121-.28973.80671-.38881 1.52593-.5698 2.04122-.28974 2.31291-1.15217 4.60713-2.28166 6.6751-2.86713.4128-.78274-.47525-.14092.48881-1.1169.595-.60037 1.26608-.65548 1.50764-1.25609 1.37578-.46902 2.28841-.76227 2.5252-1.40315 1.89994-.33818-.61821 1.03632-.30605 1.43329 3.9651-.65948 7.18043-2.49339 10.61767-3.20806.37988-1.19604.76011-2.40193 1.14464-3.62591-3.46825 2.06305-7.07846 4.17089-10.49808 6.1301-.19102-.91828 1.19012-1.59746 1.99011-2.37062 1.06877-.11706.35604-.22208 1.19897.17763 1.97232-.78868-.6937-.45404.48398-1.11343 1.82429-1.25264 2.94334-.89004 4.81709-2.25843-.37404-.36573-1.207.32052-1.86725.61832.56375-1.07206 2.6729-1.91765 4.39286-2.81963.1896-.60637.37169-1.16553.56234-1.77826-.93908.39693-1.76421.65987-2.23944.5511-.34093-.74435 1.71492-1.13231 2.35318-1.72803zm-3.02757 1.85379c.0146.0152.0226.0364.0254.058.007.0905-.0764.221-.19293.28619-.51569.20311-.41233-.18935-.17792-.31987.19157-.0797.299-.0716.34537-.0244zm-.69971 1.34117c.0436.0387.0658.0815.0503.12021-.12915.28886-.66732.0622-.59859-.0917.093-.21812.4178-.14471.54833-.0285zm1.31426 1.37856c-.12866-.11377-.45459-.18028-.54749.0337-.069.15765.47178.37494.59402.0883.0177-.0392-.004-.0843-.0465-.12217zm-25.86279-10.83045c-.016.005-.0355.0152-.052.0205-.003.008-.004.017-.006.0258.0195-.0156.0394-.0303.0587-.0459zm22.95997 23.74584c-.8255.38952-1.6567.79348-2.49996 1.22355-5.40016.91164-11.35795 3.09829-16.8917 4.31739-5.02788 2.73537-9.15622 3.41387-14.44288 6.76038-.11021.0401-.22116.0805-.33132.12068-.25535.82456-.54745 1.77241-.79877 2.58459.94846-.25445 1.88919-.49111 2.80829-.67884l7.15798-3.97904c8.13523-2.87934 16.26583-5.74694 24.54727-8.96238.14914-.45205.30102-.92892.45109-1.38634zm-21.70342-11.18185c.14243.0762-.23606.40731-.57741.58016-.74531.19488-.21878-.31509.23923-.55291.18729-.0444.28991-.0532.33819-.0271zm15.45943 55.334c-.13203-.11369-.46067-.185-.55361.0295-.065.15518.47805.37746.60345.0882.0156-.0386-.006-.0797-.0499-.11762zm-2.05666 1.2888c-2.61504.45187-5.15653 2.03716-7.52413 3.33423-9.05069 4.94782-17.23015 10.49534-26.35894 15.07748-3.77075 1.89099-7.68917 3.21979-11.49306 5.12028-3.56142 1.78063-6.95308 4.0555-10.53287 5.85344-3.74834 1.88098-7.66288 3.36242-11.48472 5.12166-9.82902 4.51738-18.92396 9.85687-27.7551 14.22384-2.70826 2.51346-5.648239 5.24783-8.512376 7.89518 2.393691-1.23767 4.757419-2.40486 6.767696-2.76043-3.135722 2.32229-6.880856 4.34745-10.62013 6.32794-3.491024 3.23574-6.991416 6.49642-10.80702 10.09862 9.016505-3.89841 18.27463-8.21881 27.83708-12.80959 7.23285-3.4757 13.28992-6.43263 20.57983-10.5972 9.59958-3.95078 19.29162-8.11411 29.72207-13.98311 4.70071-1.77945 9.30362-4.08173 14.01738-6.52869 2.98231-1.54766 6.07534-3.0704 9.20121-4.59319 1.90233-1.93241 3.90135-3.92359 5.95576-5.94684-11.14969 6.18855-21.04134 10.37538-32.77628 16.52988.026-2.46653 6.16292-4.03238 8.13187-6.21092 2.10738-.81133.15714-.75484.89917-1.35025.63833-.59563 2.70133-.98574 2.35472-1.72693 9.51112-4.60024 18.67901-11.61038 27.33173-17.30781-.99406-.40877-3.00273 1.51417-4.39204 2.0241.29874-1.85072 2.84803-1.5485 4.87602-3.13754 2.2004.0375 2.66737-2.23376 4.88102-3.13157-1.0627-1.2336-3.99983 1.82843-5.84272 2.39729-1.56514.21647 1.67608-1.29594 2.35472-1.72688.9004-.75344 3.27678-1.29237 3.18906-2.19302zm-6.43279 4.27189c.0433.0374.063.0785.0457.11689-.12539.28795-.6641.0716-.59996-.0834.0946-.21527.42449-.14614.55429-.0337zm-23.61712-14.76404c-.12914-.11483-.45537-.18417-.54749.0337-.069.15767.47234.37751.59511.0868.0166-.0392-.005-.0824-.0477-.12069zm-.66301.79513c-.12987-.11475-.45432-.18805-.54876.026-.0625.15427.47174.38316.59749.0932.0159-.0386-.006-.0809-.0488-.11912zm-6.02862 3.07265c-3.1442 1.23723-7.4208 3.51107-11.09676 5.74271-1.0334 1.27347-2.05967 2.53109-3.07186 3.75149 2.77044-1.36451 5.72469-3.15223 8.56982-4.6877-.83936-1.00431-3.01966 1.05457-4.57583 1.69304-.90915.17736.0696-.48626.67178-.79111l2.10165-1.16772c3.06411-1.42547 4.7992-3.04769 7.40121-4.5407zm2.80846 8.01116c-.13129-.11328-.45983-.18211-.55275.0347-.069.15767.47178.37378.60149.0845.0156-.0389-.005-.0813-.0488-.11912zm-1.68778.93929c-.1287-.11462-.45409-.18559-.54793.0312-.0628.15404.47192.37505.59553.0895.0166-.0394-.005-.0824-.0477-.12067zm-3.15848 1.64249c-.0453-.0233-.15373-.0219-.33927.0289-.45068.2383-.98706.74527-.24559.55528.34328-.17866.72782-.51234.58487-.58406zm-1.90486 1.13345c-.0142-.0636-.16939-.0519-.54094.0665-.57567.18401-2.57166 1.50074-1.0841 1.02065.43132-.13245 1.66241-.91099 1.62504-1.0872zm-2.72931 1.45077c-.0443-.0471-.14843-.0555-.34056.0209-.23246.1293-.33646.52182.17795.31987.11745-.0654.19708-.19329.18657-.2838-.003-.0219-.01-.0416-.024-.0568zm-1.56912 1.00665c-.11331-.1056-.24904-.15786-.45549-.0484.23241.20003.35568.63452.77544.41306-.11622-.1-.20669-.25896-.31994-.36461zm23.90599 18.44891c-4.03198 1.82334-8.14457 3.8305-12.37245 6.1054-7.10548 3.51935-16.23474 7.54361-24.73101 12.05328-16.59867 7.50641-34.04969 16.65536-50.365208 25.46553-6.123646 2.60233-12.043502 5.48203-17.918074 8.42941-2.786239 2.68241-5.68785 5.51197-8.683178 8.46274.03641-.0174.07392-.0347.11019-.0528 3.423506-1.74336 6.641414-3.84564 10.11266-5.62261 3.111641-1.59027 6.458828-2.88144 9.6273-4.50088 17.190437-8.77015 32.16733-17.34574 48.50085-24.85442 12.79706-5.88112 25.09914-12.80748 37.23939-17.31758.50143-.26124 1.01714-.50781 1.52621-.76076 2.21013-2.4081 4.51366-4.86868 6.95328-7.40734zm-18.95543 21.08597c-11.97139 6.13745-23.9846 11.73035-35.64144 18.21038-4.5618 2.5359-9.39806 4.74286-13.65913 7.17478-7.10026 4.0544-14.150613 8.48807-21.553041 12.82491-5.932545 3.47323-11.880688 7.3056-17.750879 10.71316-2.780082 1.61239-5.540793 3.17589-8.255287 4.73174 1.500034.32192 2.983355.73892 4.444222 1.25178 16.460119-9.09919 33.283399-19.82769 50.806365-29.56868 12.03221-6.6887 24.06737-12.48011 36.34699-18.94211.0132-.007.0329-.0138.0467-.0209 1.68431-2.10279 3.41473-4.22279 5.21546-6.37634zm-7.70732 9.52155c-2.42364 1.33295-5.01782 2.72128-7.79782 4.25324-4.77322 2.62961-9.72327 5.64566-14.26298 7.08396-18.42828 10.06416-36.234698 20.96335-53.627356 31.50006-2.045675 1.23873-4.015099 2.49748-5.946307 3.77249.483292.21983.960545.4573 1.436075.69865 3.147567-1.98978 6.55932-3.84914 9.861488-5.75114 13.739382-7.91206 28.69506-17.14231 41.76978-24.06469 1.89318-1.00474 3.69269-2.47173 5.71825-3.60488 3.92745-2.19536 8.35034-4.35348 12.39613-6.46304 2.63616-1.37523 5.29059-2.78021 7.93634-4.17145.83344-1.08197 1.6623-2.16546 2.5164-3.2532zm-15.62333 20.90783c-8.78946 5.3254-17.76531 11.09695-26.53067 16.81064-9.343774 6.0899-19.572339 11.07113-27.331745 17.30782-.06503.0525-.146243.13023-.21307.18544.254546.27156.517243.5324.765272.81303.49889.56394.971289 1.14404 1.432471 1.72964.362323-.26498.773483-.52275 1.317162-.76099-.190008-.51924.853774-.85655 1.505001-1.25563-.312805-.3569-1.02181-.299.06331-.88528 3.446709-1.75974 4.840341-3.82598 7.286326-5.73897 2.963748-.51569 4.566231-2.27842 8.180113-4.1228 1.2844-.40513.49574-1.1113 1.33106-1.58426 1.04227 1.45533-.0613-.46833 1.25941-.70037 6.42597-2.84942 15.25625-8.772 19.86374-11.88677 1.163-.96367 1.13769.82578 2.47222-.529.99432-.83405 2.22914-1.63237 3.56875-2.41599 1.69677-2.3558 3.38056-4.68371 5.03057-6.96654zm-30.77862-8.81816c-.34065-.13194-1.38921.22262-1.85166.71574-.70666-.0952-1.69521.459-2.706616 1.07846-1.608354 1.05031-4.206177 1.95536-4.882376 3.13991-4.00958.83369-7.914922 3.41401-12.330444 5.58413-4.017661 1.97817-8.326725 3.98016-12.15496 5.91386-4.137385 1.97988-8.132537 4.2343-12.151236 6.40078-2.778433 2.77524-5.62969 5.64551-8.604449 8.68509 1.667148-.21774 3.348925-.29587 5.031664-.26844 8.734871-5.63428 17.24139-10.7949 27.323463-15.77515.651735-.39818 1.688945-.73583 1.502634-1.26202-.90479.17745.06183-.4858.664313-.7872 6.989436-3.81379 13.173981-7.73857 19.446547-11.65369-.28624-.81409-1.41825.3209-1.80392-.26704.91968-.64124 1.64635-.84331 2.28307-.843.28864-.2799.37325-.46914.33154-.57447-.0163-.0388-.0497-.0685-.0975-.0868zm-3.01529 1.95579c.0149.0173.0229.0354.0253.058.009.091-.0769.22364-.19404.28754-.50549.20941-.41605-.19516-.18033-.32608.19473-.0726.30282-.0656.34886-.0209zm-1.47668.927c.04325.0385.06478.0812.04872.11912-.123632.29068-.665721.0632-.599019-.0942.09225-.21391.419846-.13925.550291-.0244zm18.47462 29.03809c-.29283.21879-.60138.43381-.93487.64698-.50894.41534-.54373.90193-1.49821 1.2559-1.17869.65835 1.4859.32888-.48993 1.11844-1.4405.77699-2.99112 1.52856-3.00916 2.51659.9423-.3438 2.16014-1.32117 3.16184-1.79832.95959-1.28168 1.84772-2.49363 2.77029-3.73963zm-3.65219 4.91146c-1.32628.91649-2.63216 1.83528-4.448 2.67725-.13139.7718-1.59481 1.3428-2.16845 2.04815.91992 1.03028-1.78976 1.52348-1.39549 2.471 1.51068-.97746 2.90704-1.69409 4.21632-2.21199 1.27703-1.67277 2.58549-3.37395 3.79562-4.98441zm-4.73924 6.22564c-1.19563.51428-3.38208.59037-2.7365 1.93672.55777-.14273 1.09519-.30178 1.62227-.47232.38675-.502.73388-.96825 1.11426-1.46436zm-35.235958 5.9199c-.115518.10558-.265159.25178-.370823.34591-1.176913 1.21006-2.247344 2.43532-2.887341 3.72457-1.867855.41221.711579 1.48823-1.154218 1.90566.252848.73129-1.81886 1.11871-1.145905 1.90697-3.063432 2.11448-4.061203 4.54219-6.753005 6.71219-1.827845 2.29798-4.508898 4.46736-6.745543 6.70825-1.151837 1.08192-2.381493 2.15358-3.68101 3.21454.399622.32366.821268.63598 1.257895.94198 5.119581-3.812 9.653591-7.71194 13.078229-11.77432 2.124383-1.36462 3.236025-2.87733 5.355999-4.24222.580371-1.69473 2.613523-3.17524 4.586076-4.66291-1.200705-.72886.982288-.96098.800344-1.53828-.732595-1.15845-1.516698-2.2449-2.340702-3.24224zm-11.716741-8.0429c-.642063-.23789-1.289542-.4537-1.942977-.64707-.509973.40059-1.017466.80187-1.516323 1.21022-2.609324 1.39087-3.649084 3.02168-5.785049 4.48529-2.417155 1.31996-2.163114 3.03555-5.357521 4.24112-2.224417 1.77949-4.11913 3.60967-6.058278 5.43258.094.60473.207256 1.2111.343492 1.8179 1.69572-1.55565 3.512066-3.0931 4.924246-4.69018 1.679859-1.58264 3.689337-2.46365 5.536834-3.92956.107714-.0837.319955-.96495.483975-1.11344 1.669973-1.51158 3.435716-2.05228 4.877539-3.13645 1.573047-1.17998 3.039354-2.43136 4.494062-3.67041zm30.325003 23.06639c-.665323.47278-1.32346.94228-2.003195 1.42069.03155.30283.06744.60583.09152.90899.656633-.79269 1.271433-1.55093 1.911687-2.32968zm-36.796743-24.6424c-4.306811-.47946-8.384507.30247-11.085119 3.07646-2.181072 2.24032-3.206797 5.28356-3.373358 8.62627.773827-.67151 1.528385-1.34682 2.367639-2.00852.833766-.96309 2.218232-1.8452 3.433808-2.75354-.152616-.51152.116727-1.18304 1.570945-2.14131 2.258874-1.61387 4.765603-3.19294 7.086053-4.7994zm24.56714 33.10705c-3.468812 2.34456-7.042097 4.71466-10.688425 7.09783 1.20839-.0781 2.375492-.26602 3.472123-.58412 1.856049-1.18852 3.705283-2.37858 5.544432-3.57025.717231-.89204 1.269114-1.8807 1.67187-2.94346z" fill="#ffe24c" fill-rule="evenodd"/></svg>