<svg height="500" viewBox="0 0 500 500" width="500" xmlns="http://www.w3.org/2000/svg"><g transform="translate(.000015)"><circle cx="-249.99998" cy="250" fill="#e51a1a" r="250" transform="scale(-1 1)"/><path d="m181.33938 83.856939c97.52275-31.84694 203.27597 26.159281 217.12696 131.568651 10.04116 85.89723-45.79566 162.6049-131.11288 174.6444-76.26503 6.65-147.16573-45.4981-149.44603-126.3231.16679-50.89801 30.03241-87.97493 76.60677-108.40662 44.00125-16.48183 90.46555-3.00917 112.28155 39.63622 17.95322 40.0953 3.57775 87.31302-40.4313 103.80676-21.98685 8.23292-51.6578-5.55285-56.72562-31.5612 24.48155 21.7253 69.7211 11.74379 80.1808-21.06198 5.24648-24.88185-11.48198-41.52298-24.36368-55.64156-23.21161-15.22125-63.26956-13.16738-85.32502 12.05139-41.51846 46.43224-18.48961 112.52397 35.72777 131.08081 60.66482 17.11352 118.96473-29.63961 126.96137-92.39988 2.7637-54.83226-40.99398-106.19486-96.51046-114.27807-76.21988-10.3001-138.45939 50.84936-147.743191 124.09106-9.31956 73.21828 47.315731 138.67973 111.863041 158.33924 49.05305 9.49897 98.18701 2.07129 139.64056-27.40671 82.90715-58.95602 100.11901-177.97214 43.55644-260.39974-52.71171-79.885311-158.575-103.987181-249.15842-67.061741-86.705021 39.45169-149.0660905 134.549061-117.102931 229.167621 15.77888-74.65377 50.93986-153.5943 123.407351-187.514491 9.28724-4.60517 19.44718-8.7232 30.56692-12.33106zm-160.722321 286.075591c-52.57825-113.8254-.38403-260.89182 113.777041-317.643861 10.84604-5.32012 22.21219-9.7712 34.03518-13.36069 115.76394-28.75816 246.03978 34.00351 263.68455 158.897471 10.04526 85.91695-27.72044 168.80365-107.97396 206.83173-102.24035 46.26108-224.798841-11.43986-234.690511-131.24969-7.33455-123.78718 127.307171-194.136761 222.718561-137.24102-42.54074-27.89653-94.21826-33.44528-140.80825-12.98978-71.17376 32.62266-105.080851 118.0397-80.762351 190.63139 30.697281 88.13423 123.572931 132.04164 212.817841 105.59803 82.80488-25.06359 132.16266-100.33164 140.19255-180.04986 12.12434-145.020371-132.23823-245.3588802-265.59709-221.973611 7.92036-4.10499 20.5989-8.4277792 35.61563-11.7452592 60.06317-13.23825 124.63426-3.45807 179.45368 32.4903392 109.65077 71.904621 141.09454 217.803071 65.16008 333.599141-143.00482 218.07486-377.311781 117.06797-437.622951-1.79433" fill="#b21a1a"/></g><path d="m250 .00195313c-137.77132-.00000002-250 112.22845687-250 249.99999687 0 137.76978 112.2302 249.99805 250 249.99805 137.77056 0 250-112.22835 250-249.99805-2.28823-21.26504-9.39382-43.59985-23.60156-67.51367-2.04224 21.45935-1.70363 46.13996-9.41602 67.51367-7.70656 21.35756-18.50144 45.00668-35.83594 57.92774-10.53627 7.85368-22.90882 8.85156-45.76953 8.85156-19.58706 0-38.30593-3.3868-55.70898-9.60547l-10.55469-3.77148-24.93164-14.01368c-8.55095-5.65742-16.46646-12.15928-23.80078-19.25 21.84394-9.33136 45.07604-13.63102 68-9.86523l49.45898 8.125-32.99023-37.73437c-40.13123-45.90111-89.57132-64.60489-133.92773-63.48438-.45166-4.94701-.71485-9.95012-.71485-15.02148 0-38.19968 21.45257-95.791692 43.67188-122.695316l24.33398-29.46289087zm54.23242 321.43945687 6.38672 23.55273-67.32226-11.69726-2.93555-6.03516 43.39258-4.82813zm-96.3125 55.33007 46.58594 1.01954 4.00195 10.94921c-19.02948-.67743-36.14787-5.20037-50.58789-11.96875z" fill="#861313"/><path d="m482 250.00099c0 25.40574-17.98605 55.88054-40.09522 72.36062-15.46772 11.52957-33.20839 12.42036-56.52756 12.42036-21.66696 0-42.4572-3.75532-61.76677-10.65524l11.78132 43.44114-69.89502-12.14468 18.35683 50.22899c-56.3593 6.91644-105.39305-15.03303-127.09699-48.006l79.2108 1.73398-22.95087-47.18573 70.56333-7.85357.67019.0616c-16.3949-10.8471-30.95547-24.23286-43.07677-39.63613 29.88099-17.54827 64.7223-28.06907 100.12477-22.25341-42.1163-48.17157-93.23854-62.43308-135.83219-55.95209-2.1314-11.14228-3.25849-22.63528-3.25849-34.40103 0-44.11523 21.74682-102.619788 47.7936-134.157812-128.0263 0-232.00096 103.972702-232.00096 231.999042 0 128.02432 103.97558 231.99897 232.00004 231.99897 128.02528 0 231.99996-103.97465 231.99996-231.99897z" fill="#ff8066" stroke-width="36"/><path d="m136.20703 230.875c-.41772 0 .25195.66457.25195.2832 0-.38148-.6319.25-.25195.25s-.28125-.66922-.28125-.25c0 .41911.69894-.2832.28125-.2832z" fill="#26a269"/><g stroke-width="36"><path d="m136.2693 174.68576c.62147-.006 1.23519-.0125 1.8567 0 18.96374.42569 37.2514 10.47014 47.42829 28.09928 15.51136 26.86406 6.3125 61.20566-20.54769 76.7141-26.85916 15.5084-61.20371 6.31539-76.714065-20.54866-15.508437-26.86312-6.310514-61.23491 20.548665-76.74332 8.65724-4.99738 18.09967-7.41814 27.42905-7.52042z" fill="#b21a1a"/><path d="m136.2077 195.2052c-19.73622 0-35.95191 16.21272-35.95191 35.95188 0 19.73915 16.21375 35.92164 35.9509 35.92164 19.73626 0 35.92172-16.18249 35.92172-35.92164 0-19.73916-16.18452-35.95188-35.92172-35.95188z" fill="#e51a1a"/><path d="m136.2077 213.40908c9.89731 0 17.71782 7.84969 17.71782 17.74899 0 9.89924-7.82051 17.71779-17.71781 17.71779-9.89732 0-17.74896-7.81855-17.74896-17.71779 0-9.8993 7.85164-17.74899 17.74895-17.74899z" fill="#861313"/></g></svg>