<svg height="500" viewBox="0 0 500 500" width="500" xmlns="http://www.w3.org/2000/svg" xmlns:xlink="http://www.w3.org/1999/xlink"><filter id="a" color-interpolation-filters="sRGB" height="1.088161" width="1.087978" x="-.043989" y="-.044081"><feGaussianBlur stdDeviation="2.4566564"/></filter><filter id="b" color-interpolation-filters="sRGB" height="1.211462" width="1.213185" x="-.106592" y="-.105731"><feGaussianBlur stdDeviation="2.4566564"/></filter><filter id="c" color-interpolation-filters="sRGB" height="1.183356" width="1.182184" x="-.091092" y="-.091678"><feGaussianBlur stdDeviation="2.4566564"/></filter><filter id="d" color-interpolation-filters="sRGB" height="1.091877" width="1.091668" x="-.045834" y="-.045939"><feGaussianBlur stdDeviation="2.4566564"/></filter><filter id="e" color-interpolation-filters="sRGB" height="1.155453" width="1.154502" x="-.077251" y="-.077726"><feGaussianBlur stdDeviation="2.4566564"/></filter><filter id="f" color-interpolation-filters="sRGB" height="1.228429" width="1.227269" x="-.113634" y="-.114214"><feGaussianBlur stdDeviation="2.4566564"/></filter><filter id="g" color-interpolation-filters="sRGB" height="1.149723" width="1.148999" x="-.074499" y="-.074862"><feGaussianBlur stdDeviation="2.4566564"/></filter><filter id="h" color-interpolation-filters="sRGB" height="1.077522" width="1.077526" x="-.038763" y="-.038761"><feGaussianBlur stdDeviation="2.4566564"/></filter><filter id="i" color-interpolation-filters="sRGB" height="1.0693" width="1.069128" x="-.034564" y="-.03465"><feGaussianBlur stdDeviation="2.4566564"/></filter><filter id="j" color-interpolation-filters="sRGB" height="1.156196" width="1.155882" x="-.077941" y="-.078098"><feGaussianBlur stdDeviation="2.4566564"/></filter><filter id="k" color-interpolation-filters="sRGB" height="1.183416" width="1.1822" x="-.0911" y="-.091708"><feGaussianBlur stdDeviation="2.4566564"/></filter><g transform="translate(0 -1000)"><path d="m0 1250a250 250 0 0 1 -250 250 250 250 0 0 1 -250-250 250 250 0 0 1 250-250 250 250 0 0 1 250 250z" fill="#9db3df" stroke-linecap="round" stroke-linejoin="round" stroke-width="9.39799" transform="scale(-1 1)"/><path d="m263.85417 1289.4759c11.1612 3.7204 14.8816-7.4408 18.46913-11.0283 7.04219-8.7696 15.28021-26.0428 14.48299-54.6102-10.49685-61.1209-92.21278-68.5617-125.69638-20.1965-11.1612 18.602-11.1612 33.4836-14.8816 52.0856 0 29.7632 14.8816 52.0856 40.9244 70.6876 11.1612 11.1612 26.0428 11.1612 37.204 14.8816 70.6876 11.1612 130.214-48.3652 119.0528-119.0528-7.4408-29.7632-22.3224-59.5264-48.3652-78.1284-44.6448-29.7632-96.7304-29.7632-137.6548-3.7204-18.602 11.1612-29.7632 22.3224-40.9244 40.9244-63.2468 100.4508 26.0428 219.3708 133.9344 208.2096 22.3224 0 40.9244-11.1612 63.2468-18.602 22.3224-14.8816 44.6448-37.204 59.5264-59.5264 40.92441-78.1284 7.4408-171.0056-66.9672-215.6504-26.0428-11.1612-52.0856-22.3224-81.8488-22.3224-37.204 0-70.6876 11.1612-100.4508 33.4836-33.4836 26.0428-52.0856 59.5264-66.9672 96.7304-7.4408 14.8816-3.7204 33.4836-7.4408 52.0856 0 119.0528 126.4936 215.6504 241.69313 174.726 29.7632-14.8816 63.2468-26.0428 89.2896-52.0856 22.3224-29.7632 44.6448-59.5264 52.0856-96.7304 3.7204-26.0428 7.4408-44.6448 3.7204-70.6876-18.602-152.5364-189.60753-234.25236-319.82153-156.2568-22.3224 14.8816-44.6448 29.7632-59.5264 52.0856-29.7632 37.204-44.6448 74.408-52.0856 119.0528-18.602 137.6548 96.7304 260.2951 230.53193 260.2951 29.7632 0 63.2468-11.1612 93.01-18.602 37.204-14.8816 70.6876-33.4836 96.7304-66.9672 18.602-26.0428 29.7632-52.0856 44.6448-81.8488 11.1612-33.4836 18.602-70.6876 14.8816-104.1712-7.4408-44.6448-18.602-85.5692-44.6448-119.0528 96.59753 111.7449 44.51193 297.7649-81.8488 364.7321-22.3224 14.8816-48.3652 18.602-70.6876 26.0428-89.2896 22.3224-178.44633-14.8816-234.25233-78.1284-14.8816-14.8816-18.602-33.4836-29.7632-52.0856-48.3652-70.6876-33.4836-152.5364 3.7204-226.8116 52.0856-89.2896 159.9772-130.21396 264.01553-100.4508 63.2468 18.602 115.3324 63.2468 141.3752 126.4936 7.4408 29.7632 14.8816 59.5264 14.8816 89.2896 0 37.204-11.1612 70.6876-29.7632 104.1712-14.8816 22.3224-26.0428 40.9244-48.3652 55.806-18.602 11.1612-33.4836 18.602-52.0856 29.7632-33.4836 11.1612-70.6876 18.602-111.612 14.8816-122.7732-18.602-200.76873-148.816-156.2568-267.7359 14.8816-29.7632 29.7632-59.5264 55.806-78.1284 55.806-40.9244 119.0528-52.0856 185.88713-29.7632 100.4508 40.9244 148.816 156.2568 89.2896 245.4135-11.1612 18.602-18.602 33.4836-33.4836 48.3652-55.806 40.9244-130.214 55.806-189.60753 18.602-14.8816-14.8816-33.4836-18.602-44.6448-37.204-44.6448-66.9672-44.6448-156.2568 18.602-211.9299 63.2468-55.806 174.72593-40.9244 215.65033 37.204 7.4408 22.3224 18.602 40.9244 14.8816 66.9672 0 22.3224-11.1612 40.9244-14.8816 59.5264-26.0428 55.806-96.7304 74.408-152.5364 55.806-18.602-11.1612-40.9244-18.602-52.0856-37.204-48.3652-70.6876-7.4408-178.4463 85.5692-174.7259 22.3224 0 44.6448 14.8816 63.2468 26.0428 29.7632 22.3224 33.4836 55.806 29.7632 89.2896-11.1612 48.3652-63.2468 70.6876-111.612 59.5264-22.3224-7.4408-37.204-29.7632-44.6448-52.0856-3.7204-26.0428 3.7204-48.3652 22.3224-66.9672 33.4836-33.4836 89.2896-7.4408 96.7304 37.204-3.7204 18.602-14.8816 37.204-29.7632 52.0856" fill="#c6d2ec" opacity=".9"/><path d="m262.92407 1285.7555c10.2311 3.4546 13.68576-6.7765 17.00754-10.0982 6.37783-7.8395 13.9515-23.6512 13.15428-49.9597-9.56675-56.2046-84.77198-62.9811-115.59815-18.602-10.2311 17.1404-10.2311 30.6933-13.68576 47.8337 0 27.3715 13.68576 47.8337 37.60262 64.9741 10.2311 10.2311 23.91686 10.2311 34.14796 13.6858 64.97413 10.2311 119.58428-44.3791 109.35318-109.3532-6.77644-27.3715-20.4622-54.743-44.37905-71.7506-41.05728-27.3715-88.89099-27.3715-126.49361-3.4546-17.14041 10.2311-27.37151 20.4622-37.60261 37.6026-58.06482 92.3456 23.91686 201.6988 123.03894 191.3349 20.4622 0 37.60262-10.2311 58.06482-17.1405 20.4622-13.6857 41.05727-34.1479 54.74303-54.743 37.60261-71.7506 6.77644-157.1869-61.51947-198.2442-23.91686-10.2311-47.83372-20.4622-75.20523-20.4622-34.14796 0-64.97413 10.2311-92.21278 30.8262-30.6933 23.9169-47.83371 54.743-61.51947 88.891-6.77644 13.6858-3.45466 30.6933-6.77644 47.8337 0 109.3532 116.2625 198.2442 222.16103 160.6416 27.37151-13.6858 58.06481-23.9169 81.98167-47.8337 20.4622-27.3716 41.05727-54.7431 47.83372-88.891 3.45465-23.9169 6.77644-41.0573 3.45465-64.9742-17.14041-140.0464-174.32731-215.25168-293.9116-143.5011-20.4622 13.6858-41.05727 27.3715-54.74303 47.8337-27.37151 34.148-41.05727 68.2959-47.83371 109.3532-17.14042 126.4936 88.89098 239.3014 211.92993 239.3014 27.37151 0 58.06481-10.2311 85.43633-17.1404 34.14795-13.6857 64.97413-30.8261 88.89098-61.5194 17.14042-23.9169 27.37152-47.8338 41.05728-75.2053 10.2311-30.6933 17.14041-64.9741 13.68575-95.6674-6.77644-41.0573-17.14041-78.6599-41.05727-109.3532 88.89099 102.5768 41.05727 273.4494-75.20523 334.9689-20.4622 13.6857-44.37906 17.1404-64.97413 23.9168-81.98167 20.4622-164.09621-13.6857-215.25171-71.7505-13.68576-13.6858-17.14042-30.6933-27.37152-47.8337-44.37906-64.9742-30.6933-140.1794 3.45466-208.4753 47.83371-81.9817 146.9558-119.5843 242.62323-92.2128 58.06481 17.1404 105.89853 58.0648 129.81539 116.2625 6.77644 27.3715 13.68575 54.743 13.68575 81.9817 0 34.1479-10.2311 64.9741-27.37151 95.6674-13.68576 20.4622-23.91686 37.6026-44.37906 51.2884-17.14041 10.2311-30.6933 17.1404-47.83371 27.3715-30.82617 10.2311-64.97413 17.1404-102.57675 13.6858-112.80784-17.1405-184.55841-136.7247-143.50114-246.0779 13.68576-27.3715 27.37151-54.7431 51.28837-71.7506 51.28837-37.6026 109.35319-47.8337 170.87266-27.3715 92.21277 37.6026 136.7247 143.5011 81.98167 225.6157-10.2311 17.1404-17.14041 30.6933-30.82617 44.379-51.28837 37.6026-119.58429 51.2884-174.32732 17.1404-13.68575-13.6857-30.82617-17.1404-41.05727-34.1479-41.05727-61.5195-41.05727-143.5012 17.14042-194.7895 58.19768-51.5541 160.77443-37.8684 198.37704 33.8822 6.77644 20.4622 17.14042 37.6026 13.68576 61.5195 0 20.4622-10.2311 37.6026-13.68576 54.743-23.91686 51.2884-88.89099 68.2959-140.17936 51.2884-17.14041-10.2311-37.60261-17.1405-47.83371-34.148-44.37906-64.9741-6.77644-164.0962 78.65988-160.6416 20.4622 0 41.05728 13.6858 58.06482 23.9169 27.37151 20.4622 30.6933 51.2884 27.37151 81.9817-10.2311 44.379-58.06481 64.9741-102.57674 54.743-20.4622-6.7764-34.14796-27.3715-41.05727-47.8337-3.45466-23.9169 3.45466-44.3791 20.4622-61.5195 30.6933-30.8262 81.98167-6.7764 88.89099 34.148-3.45466 17.1404-13.68576 34.1479-27.37152 47.8337" fill="#ecf0f9" opacity=".9"/><path d="m226.91591 1287.6157c5.31486 10.4968 15.8117 5.3148 20.86082 5.3148 10.62971-1.0629 28.56735-7.4408 48.23233-28.3016 35.87528-50.624-16.7418-113.7379-74.54088-103.2411-20.99368 5.3149-31.49052 15.8117-47.30222 26.3086-20.99369 20.9937-26.30855 47.3022-20.99369 78.9256 0 15.8117 10.49684 26.3085 15.8117 36.8054 42.12024 57.7991 126.22786 57.7991 168.3481 0 15.8117-26.3086 26.30854-57.7991 20.99369-89.4225-10.49685-52.6171-47.30223-89.4225-94.60446-99.9193-20.99369-5.3149-36.80539-5.3149-57.79907 0-115.73102 26.3085-136.7247 173.5301-52.61709 241.9589 15.8117 15.8117 36.80539 20.9937 57.79907 31.4905 26.30855 5.3149 57.79907 5.3149 84.10762 0 84.10761-26.3085 126.22786-115.731 105.23417-199.8386-10.49684-26.3086-20.99369-52.6171-42.12024-73.6108-26.30855-26.3085-57.79907-42.1202-94.60446-47.3022-42.12024-5.3149-78.92563 5.3148-115.73102 20.9937-15.8117 5.3148-26.30854 20.9936-42.12024 31.4905-84.10761 84.1076-63.11393 241.9589 47.30223 294.5759 31.49053 10.4969 63.11393 26.3086 99.91931 26.3086 36.80539-5.3149 73.61078-10.4969 105.23418-31.6234 20.99368-15.8117 36.80538-26.3086 52.61708-47.3022 94.60446-120.913 31.49053-299.758-115.73101-336.5634-26.30855-5.3148-52.61709-10.4968-78.92563-5.3148-47.30223 5.3148-84.10762 20.9937-120.913 47.3022-110.41616 84.1076-115.73102 252.4557-20.99369 347.0602 20.99369 20.9937 52.61709 36.8054 78.92563 52.6171 36.80539 15.8117 73.61077 26.3085 115.73102 20.9936 31.49053-5.3148 57.79907-15.8117 89.42247-26.3085 31.49053-15.8117 63.11393-36.8054 84.10761-63.1139 26.30855-36.8054 47.30223-73.6108 52.61709-115.731-10.76259 147.4872-179.11069 242.2246-315.83539 200.1043-26.30854-5.3148-47.30223-20.9937-68.42879-31.4905-78.92562-47.3022-115.73101-136.7247-110.41615-220.8323 0-20.9937 10.49684-36.8054 15.8117-57.7991 15.8117-84.1076 84.10761-131.5427 163.03324-157.7184 99.91932-26.30852 205.15349 20.9937 257.77058 115.731 31.49052 57.7991 36.80538 126.2279 10.49684 189.3418-15.8117 26.3086-31.49053 52.6171-52.61709 73.6108-26.30854 26.3085-57.79907 42.1202-94.60446 52.6171-26.30854 5.3148-47.30223 10.4968-73.61077 5.3148-20.99368-5.3148-36.80538-10.4968-57.79907-15.8117-31.49053-15.8117-63.11393-36.8053-89.42247-68.4287-73.61078-99.9194-36.80539-247.1409 78.92563-299.758 31.49053-10.4968 63.11393-20.9937 94.60445-15.8117 68.42879 10.4969 120.91301 47.3022 152.53641 110.4162 42.12024 99.9193-5.31486 215.6503-110.41616 236.644-20.99369 5.3148-36.80539 10.4968-57.79907 10.4968-68.42879-10.4968-131.54272-52.6171-147.22155-120.913 0-20.9937-10.49684-36.8054-5.31486-57.799 15.8117-78.9257 78.92563-142.0396 163.03325-136.7247 84.10761 5.3148 152.5364 94.6044 126.22786 178.8449-10.49685 20.9937-15.8117 42.1202-36.80539 57.7991-15.8117 15.8117-36.80538 20.9937-52.61708 31.4905-57.79908 20.9937-120.91301-15.8117-147.22155-68.4288-5.31486-20.9937-15.8117-42.1202-10.49684-63.1139 15.8117-84.1076 120.913-131.5427 184.02693-63.1139 15.67883 15.6788 20.86081 41.9873 26.17567 62.981 5.31486 36.8054-15.8117 63.1139-42.12024 84.1076-42.12025 26.3086-94.60446 5.3149-120.913-36.8054-10.49685-20.9936-5.31486-47.3022 5.31485-68.4287 15.8117-20.9937 36.80539-31.4906 63.11393-31.4906 23.98451 0 41.23931 14.86 48.993 34.3086 7.53814 18.9078 6.09609 42.1526-6.87275 60.2959-15.81171 10.4968-36.80539 15.8117-57.79908 15.8117" fill="#fff"/></g><g><path d="m306.59375 47.476562c-30.3673.713254-59.58906 15.607411-74.71094 44.214844v.002h-.002c-14.88714 28.174474-16.41599 68.206714 1.15625 119.572264v.41211l.95898 2.82032c1.3551 3.98059.56429 6.75985-.084 7.69336l-.0332.0469-.0332.0469c-1.36714 1.99603-4.29601 4.1298-10.3789 6.08984-12.03925 3.87931-32.29075 4.8642-55.56055 3.22852l-.0254-.002c-41.83838-3.00978-92.299807-13.86666-123.767509-24.2481l-22.632812-7.4668-.990235 23.8125c-2.265096 54.49783 12.614393 109.90847 44.236328 152.89453 33.677407 45.78872 86.921908 77.18245 155.234378 75.91016 42.25283-.74737 92.03104-6.52614 133.02343-24.43946.002-.00093.004-.003.006-.004 40.692-17.69408 73.60894-50.06605 74.97852-99.16016l.008-.25195v-.3418l-.008.54688c.45182-14.90999-5.42008-27.49174-12.25977-40.10743-6.83249-12.60243-15.33535-25.18221-23.27539-37.42382-7.80063-12.09537-14.42621-23.5192-17.66992-33.81446l-.004-.0156-.006-.0176c-2.66337-8.39538-2.80923-15.68579-.0625-22.38477l9.03125-.55664c18.13695-1.11612 36.52756-2.96384 52.80468-8.44726 10.60221-3.4398 19.7615-8.2041 26.93946-15.6875l.0918-.0977.0918-.0977c4.07061-4.37213 7.38325-10.02631 9.11914-15.86523l6.96484-23.42578-24.43554.29687c-18.86906.22918-40.96161-5.10282-58.29688-11.35351l-7.21875-2.60352c-2.20939-8.76813-5.55027-17.05498-9.98242-24.466794-16.36013-27.557773-44.08259-45.99056-73.20499-45.308414z" fill="#7896d3"/><g stroke-width="36"><path d="m390.8966 136.7876c.36 12.87-2.16 26.37-8.28 39.78 17.55-1.08 34.92-3.06 48.24-7.56 8.64-2.79 15.39-6.66 19.62-11.07 2.43-2.61 4.05-5.4 5.04-8.73-22.23.27-45.9-5.67-64.62-12.42zm-83.88-71.315999c-25.29.594-47.16 11.817-59.22 34.631999-12.06 22.824-14.49 58.464 3.24 108.414v.18c2.88 8.46 2.16 17.28-2.34 23.76-4.5 6.57-11.61 10.44-19.71 13.05-16.2 5.22-38.07 5.76-62.37 4.05-43.83-3.15-94.859999-14.13-128.142003-25.11-2.106 50.67 11.952 102.33 40.752004 141.48 30.779999 41.85 77.579999 69.75 140.399999 68.58 40.77-.72 88.92-6.66 126.18-22.95 37.26-16.2 63-41.22 64.17-83.16v-.09c.54-17.82-16.56-42.39-32.67-67.23-8.01-12.42-15.57-25.02-19.71-38.16-4.14-13.05-4.5-27.27 2.88-40.05l.18-.27.18-.27c19.98-29.34 16.83-58.05 3.51-80.316-13.23-22.310999-37.35-37.007999-57.33-36.539999z" fill="#fff"/><path d="m334.4666 103.3166a16.2 16.2 0 0 1 16.2 16.191 16.2 16.2 0 0 1 -16.2 16.2 16.2 16.2 0 0 1 -16.2-16.2 16.2 16.2 0 0 1 16.2-16.191zm-8.91 161.721c5.85 12.24 5.49 25.38.63 36.81s-13.77 21.42-24.93 30.51c-22.23 18-53.64 31.95-84.24 40.32s-59.76 11.52-79.83 4.32c-10.08-3.6-18.54-11.34-19.98-22.05-1.44-10.8 3.24-22.32 12.96-35.82l13.14 9.54c-8.46 11.7-10.62 19.98-10.08 24.12.63 4.23 2.79 6.57 9.36 9 13.23 4.68 41.31 3.15 70.2-4.77 28.8-7.83 58.77-21.42 78.3-37.26 9.72-7.92 16.83-16.38 20.16-24.3 3.42-7.92 3.69-15.12-.27-23.4z" fill="#7896d3"/></g></g><g opacity=".9"><g fill="#7896d3"><path d="m259.78475 427.12397c-.77033 5.25274-2.12277 10.51307-4.80262 15.13788-.17095.29886-.55074.91854-.83021 1.32398-2.73141 4.20162-7.00152 7.36292-11.8405 8.68667-2.77965.82596-5.69976 1.0364-8.57585 1.09824-1.51671.54094-3.03342 1.08188-4.55013 1.62282 1.49898.73948 2.97181 1.56162 4.48694 2.25003 1.68201.23596 3.43137.49088 5.00373.7386 1.12069.18526 2.08183.35504 3.22745.59753 4.63342.95221 9.42256 2.62949 12.62364 6.28954 3.42731 3.87473 4.6411 9.14306 5.06468 14.17077.0312.39573.077 1.03571.0975 1.53303.0482.78342.062 1.71418.0725 2.61284.66454 1.30621 1.32907 2.61241 1.99361 3.91862.62451-1.35477 1.36417-2.68351 1.91661-4.05459-.0622-5.6763.72506-11.64741 3.92344-16.47787 2.68601-4.13289 7.17945-6.76324 11.87428-7.98872 3.31664-.89673 6.75566-1.24927 10.1829-1.33638 1.41756-.63972 2.83511-1.27946 4.25267-1.9192-1.44302-.65201-2.86141-1.402-4.31975-1.99309-5.78599-.2779-11.79124-1.17338-16.78889-4.29543-3.86681-2.37858-6.59822-6.32752-7.83955-10.66001-1.08585-3.56533-1.3108-7.3281-1.31589-11.02512-.5134-1.51341-1.02679-3.02683-1.54018-4.54024-.77212 1.4367-1.54423 2.8734-2.31634 4.3101z" filter="url(#k)"/><path d="m425.7016 391.92509c-.92929 6.2827-2.67716 12.68222-6.59405 17.79925-3.00582 3.98926-7.52234 6.72537-12.3988 7.73285-2.31175.53947-4.70112.6453-7.05632.71467-1.51672.54093-3.03343 1.08188-4.55014 1.62282 1.49898.73948 2.97182 1.56162 4.48695 2.25003 1.68063.23598 3.4389.49159 5.00373.7386 1.20231.19701 2.28069.39404 3.51468.6569 4.54401.96213 9.2253 2.65224 12.35535 6.25204 3.20202 3.57589 4.48352 8.62696 4.95216 13.15205.0813.83886.1395 1.4621.18206 2.33082.0535.89218.071 1.82854.0814 2.8119.66453 1.30621 1.32907 2.61241 1.99361 3.91862.62452-1.35477 1.36418-2.68351 1.91661-4.05459-.062-5.70641.73407-11.71363 3.97666-16.55481 2.71616-4.13674 7.24681-6.73821 11.96135-7.9504 3.27435-.86622 6.6634-1.21272 10.04262-1.29776 1.41755-.63973 2.83511-1.27947 4.25266-1.91921-1.44301-.65201-2.86141-1.402-4.31974-1.99308-5.74078-.27749-11.69651-1.15644-16.67085-4.22459-3.87413-2.33778-6.63389-6.24951-7.904-10.55941-1.13109-3.61457-1.36308-7.4406-1.36949-11.19656-.51339-1.51342-1.02679-3.02683-1.54018-4.54025-.77211 1.43671-1.54422 2.87341-2.31634 4.31011z" filter="url(#k)"/><path d="m256.27492 344.35542c-2.42324 2.29299-5.07505 4.56941-7.81214 6.61697-.855.6343-1.92961 1.40314-2.89495 2.05289-6.72997 4.53251-14.52392 7.91699-22.73475 8.14832-2.32443.0732-4.65532-.10504-6.94223-.52686-.33331-.0607-1.11703-.22014-1.61665-.33986-6.3749-1.4947-12.1812-4.82615-17.24057-8.91627-1.53786-.52452-3.07572-1.04904-4.61358-1.57356.69179 1.50188 1.30976 3.0531 2.04759 4.52422 3.89186 4.09905 7.83352 8.17631 11.24127 12.6971.63045.85434 1.39957 1.91957 2.02839 2.89556 3.29513 4.97518 5.5614 10.82389 5.41093 16.86215-.11104 7.16556-3.12722 13.92445-6.89504 19.88958-1.51485 2.40028-3.18626 4.69879-4.94016 6.92936-.29536 1.43606-.5907 2.87213-.88605 4.3082 1.33306-.66981 2.73978-1.24757 4.02674-1.97499 1.09553-1.42018 2.38873-2.95727 3.49132-4.19704 5.13236-5.7079 11.39015-10.74445 18.84959-12.96087 4.72063-1.41925 9.78489-1.55005 14.60456-.56718.35906.0719 1.13516.24154 1.64848.37183 3.38737.84088 6.64323 2.15686 9.74606 3.74541.37196.19185.94931.49326 1.37038.7291 3.29566 1.80073 6.4204 3.90183 9.40928 6.17242 1.49775.37939 2.99551.75877 4.49326 1.13816-.70975-1.40311-1.33658-2.86927-2.0975-4.23346-6.27175-5.44453-12.1467-11.66856-15.68127-19.27726-2.67083-5.66716-3.59101-12.169-2.36086-18.32913 1.53819-7.94214 5.89887-15.01589 10.94811-21.20859.58991-.77893.70302-1.82412 1.09613-2.71295.25609-.73003.51219-1.46007.76829-2.1901-1.48822.64228-2.97642 1.28456-4.46463 1.92685z" filter="url(#j)"/><path d="m54.634506 328.80182c2.81972 10.44651 4.87138 21.13244 5.56074 31.9429.0249.54976.0753 1.43243.10998 2.10984.0545 1.234.0999 2.77119.11212 4.12614.13539 12.63339-1.96606 25.4646-7.46706 36.91661-4.96615 10.50088-12.77387 19.53188-22.08274 26.42695-6.57427 4.91453-13.84216 8.84494-21.3872604 12.04895-1.19477 1.1076-2.38954 2.21521-3.58431 3.32281 1.65548.0997 3.31932.28636 4.9695604.33153 11.04485-2.98282 22.08691-6.12027 33.41516-7.84987 1.10853-.16012 2.46824-.352 3.67637-.49741 10.16813-1.23065 20.707558-.99982 30.495048 2.27413 9.28814 3.03791 17.5116 8.80778 24.155476 15.90928 4.71962 4.99936 8.80563 10.71146 12.31275 16.53132 3.64345 6.05939 6.78062 12.41179 9.58234 18.89992 1.11903.93637 2.23805 1.87273 3.35707 2.8091.0479-1.48426.21389-2.98992.18825-4.46087-4.52816-10.22361-8.1383-20.93626-9.74768-32.03084-.27203-1.87987-.50189-3.96327-.64235-5.93389-.31499-4.37214-.26359-8.77425.22225-13.13217.11409-.96171.2689-2.17756.44732-3.23213.29771-1.82005.67693-3.62664 1.13573-5.41291.27834-1.06726.64743-2.36266 1.01854-3.50342.8498-2.62307 1.89303-5.21665 3.06425-7.63117 5.14706-10.6966 13.42584-19.60924 22.806-26.75575 8.32213-6.36518 17.52875-11.48698 27.01901-15.88573 1.03563-1.14516 2.07127-2.29032 3.1069-3.43548-1.57064-.0301-3.15819-.16313-4.71842-.12971-5.81131 2.22514-11.71988 4.20481-17.73266 5.81286-.98685.24856-2.22194.58106-3.31186.83229-11.97115 2.87796-24.53542 4.1816-36.73469 1.99112-1.99959-.35303-4.14939-.85171-5.99754-1.37588-8.082956-2.26529-15.636266-6.31057-22.090176-11.66804-.72864-.60226-1.64517-1.38919-2.41888-2.09612-3.80284-3.44747-7.28721-7.40826-10.299-11.46629-3.29282-4.42487-6.17698-9.1427-8.766938-14.00928-.21315-.42664-.59839-1.15878-.87747-1.70248-.37007-.69853-.64241-1.26545-1.01349-2.02233-1.50847-3.05255-2.88366-6.16904-4.1911-9.31245-1.09547-1.19927-2.19094-2.39853-3.28641-3.59781-.13494 1.61876-.26988 3.23752-.40483 4.85628z" filter="url(#i)"/><path d="m489.44891 248.11267c-4.11686 3.07344-8.3257 6.02419-12.63822 8.81694-.95922.59922-2.11252 1.35424-3.1624 1.99279-13.19544 8.16525-27.49823 14.85643-42.7361 18.10772-12.20676 2.62374-25.01171 2.78215-37.17631-.16382-2.06079-.49377-3.97089-1.02728-6.00712-1.68497-3.02488-.97737-5.99531-2.13345-8.83558-3.42206-3.33139-1.50794-6.73849-3.31605-9.92407-5.26288-1.0829-.66383-2.13648-1.32413-3.09255-1.96813-7.05992-4.66132-13.51945-10.18815-19.46412-16.19659-1.47029-.69761-2.94059-1.39522-4.41088-2.09283.51914 1.5728.96007 3.18587 1.52812 4.73349 3.8163 5.07492 7.63803 10.11864 11.33927 15.23466 3.43739 4.77577 6.87129 9.75156 9.97479 14.82359 1.13106 1.83683 2.25241 3.75671 3.25434 5.56202 5.7076 10.23481 10.11776 21.42613 11.15623 33.18208.40055 4.40515.32149 8.85085-.20838 13.24174-.0963.7279-.22837 1.74196-.37028 2.57746-2.01405 12.36338-7.60642 23.86662-14.60824 34.14939-1.11132 1.63109-2.40605 3.44296-3.59953 5.02941-2.00955 2.68248-4.11649 5.29555-6.2535 7.79932-3.37535 3.95714-6.93352 7.75491-10.59863 11.44409-.4538 1.38988-.90761 2.77975-1.36142 4.16963 1.39757-.5118 2.85849-.92284 4.21652-1.49752 5.88824-6.04011 12.15765-11.72715 18.91529-16.78383 1.39635-1.03338 2.96969-2.17309 4.47413-3.19357 10.8842-7.43794 23.20415-13.11387 36.32373-15.03838 2.66054-.40167 5.5171-.64747 8.09782-.72977 1.24307-.0362 2.43836-.0475 3.74055-.0156 9.26382.18643 18.43144 2.28054 27.02485 5.69636 9.23138 3.66643 17.98901 8.84222 26.03958 14.74285 2.57703 1.8742 5.0846 3.84217 7.55054 5.85986.8456.70771 1.89372 1.56691 2.80033 2.35349 2.71316 2.31691 5.35336 4.71802 7.94856 7.16592 1.44599.53478 2.89197 1.06956 4.33796 1.60434-.55367-1.4684-1.01764-2.99093-1.62656-4.426-2.85261-3.08682-5.68564-6.29538-8.31354-9.47833-9.28545-11.25171-17.51018-23.60335-22.62224-37.33917-4.06788-10.89061-5.87642-22.71375-4.5175-34.29787 1.19656-10.70247 4.97387-20.99907 10.25881-30.34074.57299-1.00201 1.27341-2.21047 1.93099-3.27354 1.02726-1.67357 2.14829-3.39595 3.24849-4.99263.851-1.24094 1.71375-2.43121 2.56471-3.58855 4.48186-6.04083 9.54731-11.75507 14.80777-17.04188.84378-.90831 1.84368-1.70184 2.60868-2.66359.68007-1.39777 1.36014-2.79555 2.04021-4.19332-1.55171.46615-3.10341.9323-4.65513 1.39845z" filter="url(#h)"/><path d="m176.21716 236.04897c2.81217 6.65469 4.8254 13.93101 3.9605 21.21061-.64057 5.6409-3.38548 10.9169-7.34314 14.94577-4.72723 4.87854-10.72548 8.28601-16.85331 11.09055-1.05092 1.14197-2.10183 2.28395-3.15274 3.42593 1.57921.0366 3.17419.17369 4.7436.14787 3.13421-1.17123 6.49388-2.19381 9.67764-2.84621 6.68045-1.40342 13.93944-1.44417 20.29733 1.5734 6.0412 2.81508 10.55179 8.09681 13.71449 13.84626 1.35304 2.42888 2.48892 4.97262 3.49449 7.56311 1.08656.98156 2.17312 1.96313 3.25968 2.9447.10019-1.48725.31759-2.99132.34449-4.46804-2.56257-6.52212-4.5544-13.51173-3.97654-20.58672.39252-5.04446 2.55126-9.88886 5.9549-13.62146 4.61689-5.13403 10.7017-8.59006 16.60869-12.01686.89813-.5484 1.9323-.93172 2.52019-1.85654.83407-.96326 1.66813-1.92651 2.5022-2.88977-1.65945.0855-3.33702.084-4.98532.22282-6.57934 2.67576-13.93067 4.03704-20.9565 2.47744-6.85766-1.468-12.84234-5.63998-17.53114-10.74073-2.13042-2.28914-4.09086-4.85313-5.79263-7.36668-1.08766-1.57631-2.04703-3.25004-3.06929-4.85781-1.2194-1.01797-2.4388-2.03595-3.6582-3.05392.0802 1.61876.16041 3.23752.24061 4.85628z" filter="url(#g)"/><path d="m42.156132 235.92675c3.0358 5.59167 5.49286 11.76545 5.44671 18.22081.005 5.03805-1.99063 9.9765-5.31124 13.7406-1.51149 1.79554-3.33076 3.30884-5.14835 4.76863-.88471 1.34707-1.76942 2.69415-2.65413 4.04123 1.64354-.31575 3.31597-.55017 4.94163-.91625 4.44128-2.43316 8.88215-5.05882 13.84494-6.27744.41448-.0965 1.15901-.25434 1.71614-.33068 4.04684-.68108 8.26962.35108 11.67511 2.60204 3.64821 2.33348 6.59176 5.59351 9.20305 9.01092 1.31443.64228 2.62887 1.28456 3.9433 1.92684-.31346-1.45521-.51837-2.95923-.89958-4.38397-3.45905-4.49041-6.41179-9.72044-6.77598-15.49205-.20764-3.15848.50563-6.34207 1.89523-9.17566.15731-.31187.49697-.99006.75942-1.42548 2.34285-4.03279 5.73602-7.33933 9.34805-10.23872.74474-1.36669 1.48948-2.73337 2.23422-4.10005-1.54522.35207-3.12993.61129-4.65057 1.02116-.57215.38292-1.07035.73752-1.56734 1.05223-4.69638 3.03405-9.99671 5.62326-15.69542 5.72514-4.71988.12449-9.26511-1.92515-12.7887-4.97243-2.40764-2.0077-4.41204-4.45257-6.29751-6.93155-1.32124-.90019-2.64248-1.80039-3.96372-2.70058.24825 1.61175.49649 3.2235.74474 4.83526z" filter="url(#f)"/><path d="m426.84927 152.34087c-1.29766 2.13638-2.73306 4.29335-4.17676 6.21555-3.11998 4.16461-6.74684 8.01466-11.07134 10.94467-.27624.19018-.90325.59499-1.32143.8517-5.14448 3.19429-11.31765 4.69538-17.35254 4.11781-4.23437-.36117-8.35686-1.58152-12.24997-3.25463-1.61934-.0891-3.23867-.17824-4.858-.26736 1.06903 1.25834 2.07996 2.5845 3.18517 3.80061 2.283 1.35983 4.56062 2.70341 6.71504 4.0784 5.21846 3.34633 10.44579 7.1851 13.56649 12.67743 2.73646 4.72647 3.29147 10.41693 2.48671 15.7444-.67515 4.67165-2.18429 9.18049-4.00646 13.52032.1012 1.45897.20241 2.91795.30362 4.37694 1.10355-.99873 2.30364-1.92783 3.34695-2.97001.85556-2.08878 1.8157-4.1357 2.89933-6.11616.22658-.41246.63397-1.12578.94584-1.6438 3.24503-5.46331 7.85261-10.3852 13.83616-12.8055 6.18135-2.5618 13.14995-2.24206 19.54066-.68425 1.57519.37975 2.94526.77693 4.49238 1.28178 1.50088.45223 2.95256 1.09386 4.43186 1.57458 1.52628-.0292 3.05256-.0586 4.57884-.0879-1.0744-1.16798-2.08817-2.41578-3.20038-3.53398-6.62297-3.20923-13.14527-7.17681-17.73997-13.04923-3.33268-4.22113-5.205-9.54936-5.22575-14.929-.0786-6.25964 1.8204-12.36149 4.32991-18.03395.1133-1.61939.22661-3.23879.3399-4.85818-1.26542 1.01657-2.53084 2.03316-3.79626 3.04973z" filter="url(#e)"/><path d="m110.05933 110.46008c-2.81999 9.46047-6.5253 18.82877-12.436718 26.81438-4.49065 6.12029-10.56288 11.1935-17.70142 13.90244-4.17237 1.6276-8.60985 2.49578-13.06448 2.85784-.42179.0297-1.20612.0931-1.76958.11611-2.94255.15982-5.97298.10866-8.8279-.0498-7.25523-.41435-14.44327-1.53548-21.6288-2.57179-1.59706.3151-3.19412.63018-4.79117.94528 1.35435.95422 2.66988 1.98736 4.04852 2.89224 9.84445 2.81128 19.38068 7.46291 26.7058 14.73898 6.29964 6.18465 10.64783 14.18584 12.9467 22.67598 2.25412 8.20698 2.81434 16.79218 2.45574 25.26867-.0547 1.13234-.12932 2.50952-.22404 3.7335-.14393 1.88283-.32379 3.74175-.55482 5.67021-.1165 1.19826-.33318 2.26529-.42141 3.47527.32498 1.55821.64996 3.11642.97494 4.67462.94032-1.36019 1.96057-2.68201 2.85104-4.06613 2.73859-9.83788 6.67212-19.54718 13.08073-27.59621 4.97471-6.29892 11.665618-11.27805 19.265438-13.92478 9.32984-3.3102 19.47319-3.40566 29.1925-2.12474 4.01509.52828 8.06741 1.31447 11.93298 2.23127.92044.19531 1.83076.60773 2.77209.28662 1.20386-.19035 2.40771-.38071 3.61158-.57107-1.20491-1.01012-2.35844-2.11079-3.59506-3.06503-10.16134-3.30429-20.15666-7.72109-28.47439-14.54326-6.39797-5.21247-11.53868-12.08136-14.1905-19.93531-3.18705-9.26033-3.05745-19.33392-1.32242-28.87459.4775-2.66767 1.09179-5.30919 1.78461-7.92874.19306-.66534.44505-1.63138.67964-2.40694.21944-.78136.60159-1.55302.2966-2.36567-.19747-1.15331-.39494-2.30663-.59241-3.45994-1.00126 1.06686-2.00253 2.13372-3.00379 3.20058z" filter="url(#d)"/><path d="m413.77429 61.719792c-.94731 6.404542-2.74997 12.938902-6.8287 18.097861-3.10029 3.979614-7.73371 6.618443-12.66919 7.540608-1.20636.243484-2.47369.401213-3.59482.483789-1.01122.108474-2.0541.007-3.04856.157353-1.48601.529996-2.97203 1.059992-4.45804 1.589988 1.49898.739478 2.97181 1.561613 4.48694 2.250021 5.59334.838535 11.41641 1.437955 16.47578 4.165667 3.65487 1.932967 6.38426 5.356401 7.72966 9.239501.99365 2.69566 1.46977 5.55281 1.71406 8.40655.0313.39961.0769 1.03463.0975 1.53304.0483.78922.0621 1.71927.0725 2.61856.66454 1.30621 1.32908 2.61242 1.99362 3.91862.62451-1.35477 1.36417-2.68351 1.9166-4.05459-.062-5.67895.72545-11.65192 3.92345-16.48551 2.67466-4.118909 7.14253-6.753961 11.82015-7.983633 3.33377-.909695 6.79226-1.26431 10.23895-1.354825 1.41882-.640374 2.83765-1.280746 4.25647-1.921119-1.4449-.651423-2.86531-1.40056-4.32547-1.991149-5.8188-.274967-11.86239-1.18465-16.8744-4.349176-3.82482-2.381853-6.52077-6.306722-7.75404-10.606292-1.08611-3.565308-1.31082-7.328086-1.31589-11.025123-.5134-1.513416-1.0268-3.026832-1.54018-4.540248-.77212 1.436703-1.54423 2.873405-2.31634 4.310107z" filter="url(#c)"/><path d="m50.730202 37.677153c-.94292 6.376776-2.73184 12.880988-6.77533 18.029852-3.08178 3.989179-7.6978 6.649028-12.6266 7.589844-1.23435.252823-2.5378.417709-3.68695.502564-1.01251.108367-2.05664.007-3.05239.157353-1.48601.529995-2.97203 1.059992-4.45804 1.589987 1.49898.739479 2.97181 1.561612 4.48695 2.250021 5.56102.832806 11.34476 1.432129 16.38643 4.116372 3.63783 1.898138 6.38336 5.264579 7.75303 9.109222.92335 2.446568 1.41778 5.035079 1.69219 7.62938.0332.429321.10124 1.000386.12719 1.496104.0378.476424.0615 1.107462.0859 1.525316.11652.936246-.19747 1.971484.39942 2.784079.54631 1.073824 1.09262 2.147647 1.63894 3.22147.62451-1.354777 1.36417-2.683512 1.9166-4.054591-.0613-5.677919.72475-11.653262 3.92364-16.485385 2.69337-4.146627 7.20193-6.787381 11.91426-8.00957 3.30512-.890179 6.73034-1.239443 10.14464-1.329017 1.41883-.640373 2.83766-1.280746 4.25648-1.92112-1.4449-.651426-2.86531-1.40055-4.32547-1.991154-5.78657-.273193-11.7911-1.174577-16.78889-4.295452-3.82778-2.353685-6.5451-6.248274-7.80068-10.529873-1.08525-3.575987-1.38973-7.340781-1.32335-11.062669-.52386-1.54428-1.04773-3.088559-1.57159-4.632839-.77212 1.436702-1.54423 2.873404-2.31634 4.310106z" filter="url(#c)"/><path d="m349.73801 27.739274c-3.16083 4.883745-6.95551 9.656639-12.18893 12.422349-3.97729 2.135912-8.73782 2.517421-13.08396 1.41834-3.64011-.847536-7.01279-2.557538-10.21914-4.416801-1.56321-.316269-3.12641-.63254-4.68962-.94881.88334 1.401645 1.70048 2.861206 2.62519 4.226632 4.97646 3.97967 9.63317 8.751926 12.02893 14.761511 1.89674 4.655577 1.88461 9.965574.24262 14.692557-.70269 2.17369-1.77664 4.208086-2.85973 6.201242-.30136 1.585465-.60272 3.17093-.90408 4.756396 1.39745-.923489 2.85247-1.78326 4.21427-2.746197 3.54322-4.389199 6.99783-9.086094 11.87038-12.097691 3.50219-2.202172 7.8331-2.871937 11.87329-2.092903 4.2142.749878 8.14491 2.590922 11.83224 4.709228 1.46338.08593 2.92677.17187 4.39015.257805-.85428-1.223293-1.62808-2.532658-2.53277-3.702061-.92084-.52477-1.861-1.093516-2.65357-1.618994-1.46374-.960168-3.08631-2.171166-4.4571-3.429014-3.54534-3.17744-6.27057-7.47937-6.81263-12.27846-.70209-5.771331 1.27571-11.47897 3.85325-16.557491.4047-.81889.99511-1.575771.93174-2.536408.12783-1.223947.25566-2.447893.38348-3.671839-1.28133.883536-2.56267 1.767073-3.84401 2.650609z" filter="url(#b)"/><path d="m224.48784 17.196033c-.33814 2.279598-.70921 4.543615-1.16486 6.854853-.18241.929617-.3947 1.954099-.59781 2.872565-2.42669 10.975774-6.37174 21.841609-13.1818 30.892992-5.23625 7.0006-12.34818 12.602342-20.46369 15.882229-7.94174 3.26529-16.59713 4.454489-25.14311 4.409834-1.53658.546163-3.07317 1.092326-4.60975 1.63849 1.48324.744818 2.93923 1.574612 4.4392 2.26721 8.40862 1.205848 17.02949 2.331539 25.13657 4.575106 7.79485 2.1479 15.45561 5.582311 21.30582 11.291609 5.88383 5.645479 9.55317 13.227559 11.5715 21.048469.85288 3.26373 1.45001 6.59048 1.87344 9.93601.0469.39197.13207 1.16651.19362 1.70491.43108 4.03787.60254 8.09953.61796 12.15923.66135 1.30685 1.32271 2.61369 1.98406 3.92054.62776-1.35228 1.37071-2.67818 1.92641-4.04695-.0199-1.99584.006-3.99186.0806-5.98641.0262-.44237.0773-1.43873.0974-1.89248.60418-9.85425 2.67514-19.84746 7.71149-28.4453 4.10138-7.105743 10.36563-12.870698 17.65303-16.602081.44197-.23888.89568-.446655 1.44118-.722494 9.54243-4.560574 20.16664-6.286903 30.65126-6.818608 1.0739-.07978 2.17296-.03631 3.23285-.158871 1.37201-.62808 2.74401-1.256161 4.11603-1.884242-1.42854-.649154-2.83172-1.400201-4.27587-1.986589-2.24772-.08722-4.49345-.238046-6.63936-.419584-5.23236-.470638-10.44558-1.254469-15.54027-2.551308-.58511-.16186-1.48582-.389427-2.1861-.599004-3.39381-.970188-6.71258-2.209978-9.89017-3.749295-.30395-.164425-1.01994-.505586-1.47676-.755526-7.00582-3.644395-13.05071-9.178382-17.0684-15.997979-4.10096-6.871912-6.24628-14.739708-7.22861-22.635173-.0468-.39198-.13185-1.166531-.1933-1.704947-.41239-4.048508-.5477-8.121754-.48459-12.18975-.53024-1.536004-1.06047-3.072009-1.5907-4.608013-.76574 1.433519-1.53149 2.867038-2.29724 4.300557z" filter="url(#a)"/></g><path d="m261.71634 427.42783c-2.63982 18.38164-11.73254 27.96356-27.86477 27.86578 13.78573 1.9555 27.767 3.51989 27.86477 27.86578-.29331-20.0438 10.65705-27.47468 27.86477-27.86578-16.52332-.68442-28.25585-7.13755-27.86477-27.86578z" fill="#fff" opacity="1"/><path d="m427.63396 392.22895c-2.63982 18.38164-11.73254 27.96356-27.86478 27.86578 13.78573 1.9555 27.76701 3.51989 27.86478 27.86578-.29332-20.0438 10.65705-27.47468 27.86477-27.86578-16.52332-.68442-28.25586-7.13755-27.86477-27.86578z" fill="#fff" opacity="1"/><path d="m257.60995 345.78598c-21.31411 20.14159-42.04159 23.07483-61.79136 7.13755 15.15453 15.93728 30.89568 31.679 7.03953 61.89137 19.35868-25.03032 40.2817-23.5637 61.88913-7.13755-19.74977-17.01279-27.96255-36.6655-7.1373-61.89137z" fill="#fff" opacity="1"/><path d="m56.524626 328.30363c15.310958 56.51375.84083 95.91695-46.26531 115.86298 42.49134-11.53741 85.432418-24.63922 116.034794 46.34519-25.81159-57.98038-3.32422-93.27703 46.24575-116.15631-48.88557 18.77274-91.024936 14.6662-116.015234-46.05186z" fill="#fff" opacity="1"/><path d="m490.61129 249.68666c-54.77358 40.96437-103.64892 42.5129-145.57797.0325 30.85961 40.99163 63.61378 81.8624-.0223 145.66439 51.64968-53.08195 99.53844-43.83002 145.71206-.0662-41.49714-44.72815-55.2486-92.24043-.11177-145.63061z" fill="#fff" opacity="1"/><path d="m178.02425 235.30061c11.14591 26.20361-.48886 40.38094-21.21634 49.7673 22.19405-8.31084 39.89062-4.39986 49.76551 21.21711-12.41693-31.09235 4.69301-40.28317 21.21634-49.76731-20.53194 8.31085-36.95749.87997-49.76551-21.2171z" fill="#fff" opacity="1"/><path d="m43.882252 235.00728c8.95584 16.32837 7.45994 29.43018-5.48496 39.10987 12.18228-6.74645 24.29613-13.98178 39.02046 5.47538-12.28983-15.83949-8.01723-28.35465 5.48496-39.10986-13.60974 9.48414-26.85773 11.34186-39.02046-5.47539z" fill="#fff" opacity="1"/><path d="m428.5139 153.36544c-12.80802 21.11933-28.84249 28.1591-48.59226 19.65271 15.9367 9.48414 32.26448 18.67496 19.652 48.49623 10.07043-24.63922 27.27815-28.06133 48.59226-19.55493-19.84754-9.48415-30.89568-23.36815-19.652-48.59401z" fill="#fff" opacity="1"/><path d="m111.93096 111.02901c-15.447838 52.505-46.695488 46.93184-77.581398 42.4342 34.85541 9.97302 48.25006 36.46995 42.36424 77.63309 12.37782-44.97635 41.670048-51.42948 77.649828-42.43421-36.76194-11.83073-55.631768-34.61223-42.43267-77.63308z" fill="#fff" opacity="1"/><path d="m415.70588 62.024339c-2.63982 18.381638-11.73254 27.963556-27.86477 27.865781 13.78573 1.955493 27.767 3.519888 27.86477 27.88534-.29331-20.043812 10.65705-27.494241 27.86477-27.88534-16.52332-.684423-28.25586-7.137551-27.86477-27.865781z" fill="#fff" opacity="1"/><path d="m52.662102 37.981548c-2.63982 18.381638-11.73254 27.963556-27.86478 27.865781 13.78573 1.955493 27.76701 3.519888 27.86478 27.885335-.29332-20.043807 10.65705-27.494236 27.86477-27.885335-16.52332-.684423-28.25586-7.137551-27.86477-27.865781z" fill="#fff" opacity="1"/><path d="m351.37247 28.810284c-8.89717 13.932891-20.33639 20.816227-38.03297 10.051236 14.5679 11.527634 18.18543 24.209008 9.97266 38.102788 8.70163-10.931207 17.10994-22.224182 38.13074-10.041458-17.40326-9.836131-18.38097-23.045489-10.07043-38.112566z" fill="#fff" opacity="1"/><path d="m226.42096 17.487978c-5.96404 41.163135-26.20266 62.771337-62.47576 62.575787 30.89568 4.39986 62.37799 7.821974 62.47576 62.644235-.58663-45.074126 23.95393-61.666488 62.6713-62.644235-37.15303-1.46662-63.45347-15.93727-62.6713-62.575787z" fill="#fff" opacity="1"/></g></svg>