<svg height="500" viewBox="0 0 500 500" width="500" xmlns="http://www.w3.org/2000/svg" xmlns:xlink="http://www.w3.org/1999/xlink"><filter id="a" color-interpolation-filters="sRGB" height="1.086518" width="1.086763" x="-.043381" y="-.043259"><feGaussianBlur stdDeviation="8.3023453"/></filter><g transform="translate(0 -1000)"><path d="m0 1250a250 250 0 0 1 -250 250 250 250 0 0 1 -250-250 250 250 0 0 1 250-250 250 250 0 0 1 250 250z" fill="#9db3df" stroke-linecap="round" stroke-linejoin="round" stroke-width="9.39799" transform="scale(-1 1)"/><path d="m263.85417 1289.4759c11.1612 3.7204 14.8816-7.4408 18.46913-11.0283 7.04219-8.7696 15.28021-26.0428 14.48299-54.6102-10.49685-61.1209-92.21278-68.5617-125.69638-20.1965-11.1612 18.602-11.1612 33.4836-14.8816 52.0856 0 29.7632 14.8816 52.0856 40.9244 70.6876 11.1612 11.1612 26.0428 11.1612 37.204 14.8816 70.6876 11.1612 130.214-48.3652 119.0528-119.0528-7.4408-29.7632-22.3224-59.5264-48.3652-78.1284-44.6448-29.7632-96.7304-29.7632-137.6548-3.7204-18.602 11.1612-29.7632 22.3224-40.9244 40.9244-63.2468 100.4508 26.0428 219.3708 133.9344 208.2096 22.3224 0 40.9244-11.1612 63.2468-18.602 22.3224-14.8816 44.6448-37.204 59.5264-59.5264 40.92441-78.1284 7.4408-171.0056-66.9672-215.6504-26.0428-11.1612-52.0856-22.3224-81.8488-22.3224-37.204 0-70.6876 11.1612-100.4508 33.4836-33.4836 26.0428-52.0856 59.5264-66.9672 96.7304-7.4408 14.8816-3.7204 33.4836-7.4408 52.0856 0 119.0528 126.4936 215.6504 241.69313 174.726 29.7632-14.8816 63.2468-26.0428 89.2896-52.0856 22.3224-29.7632 44.6448-59.5264 52.0856-96.7304 3.7204-26.0428 7.4408-44.6448 3.7204-70.6876-18.602-152.5364-189.60753-234.25236-319.82153-156.2568-22.3224 14.8816-44.6448 29.7632-59.5264 52.0856-29.7632 37.204-44.6448 74.408-52.0856 119.0528-18.602 137.6548 96.7304 260.2951 230.53193 260.2951 29.7632 0 63.2468-11.1612 93.01-18.602 37.204-14.8816 70.6876-33.4836 96.7304-66.9672 18.602-26.0428 29.7632-52.0856 44.6448-81.8488 11.1612-33.4836 18.602-70.6876 14.8816-104.1712-7.4408-44.6448-18.602-85.5692-44.6448-119.0528 96.59753 111.7449 44.51193 297.7649-81.8488 364.7321-22.3224 14.8816-48.3652 18.602-70.6876 26.0428-89.2896 22.3224-178.44633-14.8816-234.25233-78.1284-14.8816-14.8816-18.602-33.4836-29.7632-52.0856-48.3652-70.6876-33.4836-152.5364 3.7204-226.8116 52.0856-89.2896 159.9772-130.21396 264.01553-100.4508 63.2468 18.602 115.3324 63.2468 141.3752 126.4936 7.4408 29.7632 14.8816 59.5264 14.8816 89.2896 0 37.204-11.1612 70.6876-29.7632 104.1712-14.8816 22.3224-26.0428 40.9244-48.3652 55.806-18.602 11.1612-33.4836 18.602-52.0856 29.7632-33.4836 11.1612-70.6876 18.602-111.612 14.8816-122.7732-18.602-200.76873-148.816-156.2568-267.7359 14.8816-29.7632 29.7632-59.5264 55.806-78.1284 55.806-40.9244 119.0528-52.0856 185.88713-29.7632 100.4508 40.9244 148.816 156.2568 89.2896 245.4135-11.1612 18.602-18.602 33.4836-33.4836 48.3652-55.806 40.9244-130.214 55.806-189.60753 18.602-14.8816-14.8816-33.4836-18.602-44.6448-37.204-44.6448-66.9672-44.6448-156.2568 18.602-211.9299 63.2468-55.806 174.72593-40.9244 215.65033 37.204 7.4408 22.3224 18.602 40.9244 14.8816 66.9672 0 22.3224-11.1612 40.9244-14.8816 59.5264-26.0428 55.806-96.7304 74.408-152.5364 55.806-18.602-11.1612-40.9244-18.602-52.0856-37.204-48.3652-70.6876-7.4408-178.4463 85.5692-174.7259 22.3224 0 44.6448 14.8816 63.2468 26.0428 29.7632 22.3224 33.4836 55.806 29.7632 89.2896-11.1612 48.3652-63.2468 70.6876-111.612 59.5264-22.3224-7.4408-37.204-29.7632-44.6448-52.0856-3.7204-26.0428 3.7204-48.3652 22.3224-66.9672 33.4836-33.4836 89.2896-7.4408 96.7304 37.204-3.7204 18.602-14.8816 37.204-29.7632 52.0856" fill="#c6d2ec" opacity=".9"/><path d="m262.92407 1285.7555c10.2311 3.4546 13.68576-6.7765 17.00754-10.0982 6.37783-7.8395 13.9515-23.6512 13.15428-49.9597-9.56675-56.2046-84.77198-62.9811-115.59815-18.602-10.2311 17.1404-10.2311 30.6933-13.68576 47.8337 0 27.3715 13.68576 47.8337 37.60262 64.9741 10.2311 10.2311 23.91686 10.2311 34.14796 13.6858 64.97413 10.2311 119.58428-44.3791 109.35318-109.3532-6.77644-27.3715-20.4622-54.743-44.37905-71.7506-41.05728-27.3715-88.89099-27.3715-126.49361-3.4546-17.14041 10.2311-27.37151 20.4622-37.60261 37.6026-58.06482 92.3456 23.91686 201.6988 123.03894 191.3349 20.4622 0 37.60262-10.2311 58.06482-17.1405 20.4622-13.6857 41.05727-34.1479 54.74303-54.743 37.60261-71.7506 6.77644-157.1869-61.51947-198.2442-23.91686-10.2311-47.83372-20.4622-75.20523-20.4622-34.14796 0-64.97413 10.2311-92.21278 30.8262-30.6933 23.9169-47.83371 54.743-61.51947 88.891-6.77644 13.6858-3.45466 30.6933-6.77644 47.8337 0 109.3532 116.2625 198.2442 222.16103 160.6416 27.37151-13.6858 58.06481-23.9169 81.98167-47.8337 20.4622-27.3716 41.05727-54.7431 47.83372-88.891 3.45465-23.9169 6.77644-41.0573 3.45465-64.9742-17.14041-140.0464-174.32731-215.25168-293.9116-143.5011-20.4622 13.6858-41.05727 27.3715-54.74303 47.8337-27.37151 34.148-41.05727 68.2959-47.83371 109.3532-17.14042 126.4936 88.89098 239.3014 211.92993 239.3014 27.37151 0 58.06481-10.2311 85.43633-17.1404 34.14795-13.6857 64.97413-30.8261 88.89098-61.5194 17.14042-23.9169 27.37152-47.8338 41.05728-75.2053 10.2311-30.6933 17.14041-64.9741 13.68575-95.6674-6.77644-41.0573-17.14041-78.6599-41.05727-109.3532 88.89099 102.5768 41.05727 273.4494-75.20523 334.9689-20.4622 13.6857-44.37906 17.1404-64.97413 23.9168-81.98167 20.4622-164.09621-13.6857-215.25171-71.7505-13.68576-13.6858-17.14042-30.6933-27.37152-47.8337-44.37906-64.9742-30.6933-140.1794 3.45466-208.4753 47.83371-81.9817 146.9558-119.5843 242.62323-92.2128 58.06481 17.1404 105.89853 58.0648 129.81539 116.2625 6.77644 27.3715 13.68575 54.743 13.68575 81.9817 0 34.1479-10.2311 64.9741-27.37151 95.6674-13.68576 20.4622-23.91686 37.6026-44.37906 51.2884-17.14041 10.2311-30.6933 17.1404-47.83371 27.3715-30.82617 10.2311-64.97413 17.1404-102.57675 13.6858-112.80784-17.1405-184.55841-136.7247-143.50114-246.0779 13.68576-27.3715 27.37151-54.7431 51.28837-71.7506 51.28837-37.6026 109.35319-47.8337 170.87266-27.3715 92.21277 37.6026 136.7247 143.5011 81.98167 225.6157-10.2311 17.1404-17.14041 30.6933-30.82617 44.379-51.28837 37.6026-119.58429 51.2884-174.32732 17.1404-13.68575-13.6857-30.82617-17.1404-41.05727-34.1479-41.05727-61.5195-41.05727-143.5012 17.14042-194.7895 58.19768-51.5541 160.77443-37.8684 198.37704 33.8822 6.77644 20.4622 17.14042 37.6026 13.68576 61.5195 0 20.4622-10.2311 37.6026-13.68576 54.743-23.91686 51.2884-88.89099 68.2959-140.17936 51.2884-17.14041-10.2311-37.60261-17.1405-47.83371-34.148-44.37906-64.9741-6.77644-164.0962 78.65988-160.6416 20.4622 0 41.05728 13.6858 58.06482 23.9169 27.37151 20.4622 30.6933 51.2884 27.37151 81.9817-10.2311 44.379-58.06481 64.9741-102.57674 54.743-20.4622-6.7764-34.14796-27.3715-41.05727-47.8337-3.45466-23.9169 3.45466-44.3791 20.4622-61.5195 30.6933-30.8262 81.98167-6.7764 88.89099 34.148-3.45466 17.1404-13.68576 34.1479-27.37152 47.8337" fill="#ecf0f9" opacity=".9"/><path d="m226.91591 1287.6157c5.31486 10.4968 15.8117 5.3148 20.86082 5.3148 10.62971-1.0629 28.56735-7.4408 48.23233-28.3016 35.87528-50.624-16.7418-113.7379-74.54088-103.2411-20.99368 5.3149-31.49052 15.8117-47.30222 26.3086-20.99369 20.9937-26.30855 47.3022-20.99369 78.9256 0 15.8117 10.49684 26.3085 15.8117 36.8054 42.12024 57.7991 126.22786 57.7991 168.3481 0 15.8117-26.3086 26.30854-57.7991 20.99369-89.4225-10.49685-52.6171-47.30223-89.4225-94.60446-99.9193-20.99369-5.3149-36.80539-5.3149-57.79907 0-115.73102 26.3085-136.7247 173.5301-52.61709 241.9589 15.8117 15.8117 36.80539 20.9937 57.79907 31.4905 26.30855 5.3149 57.79907 5.3149 84.10762 0 84.10761-26.3085 126.22786-115.731 105.23417-199.8386-10.49684-26.3086-20.99369-52.6171-42.12024-73.6108-26.30855-26.3085-57.79907-42.1202-94.60446-47.3022-42.12024-5.3149-78.92563 5.3148-115.73102 20.9937-15.8117 5.3148-26.30854 20.9936-42.12024 31.4905-84.10761 84.1076-63.11393 241.9589 47.30223 294.5759 31.49053 10.4969 63.11393 26.3086 99.91931 26.3086 36.80539-5.3149 73.61078-10.4969 105.23418-31.6234 20.99368-15.8117 36.80538-26.3086 52.61708-47.3022 94.60446-120.913 31.49053-299.758-115.73101-336.5634-26.30855-5.3148-52.61709-10.4968-78.92563-5.3148-47.30223 5.3148-84.10762 20.9937-120.913 47.3022-110.41616 84.1076-115.73102 252.4557-20.99369 347.0602 20.99369 20.9937 52.61709 36.8054 78.92563 52.6171 36.80539 15.8117 73.61077 26.3085 115.73102 20.9936 31.49053-5.3148 57.79907-15.8117 89.42247-26.3085 31.49053-15.8117 63.11393-36.8054 84.10761-63.1139 26.30855-36.8054 47.30223-73.6108 52.61709-115.731-10.76259 147.4872-179.11069 242.2246-315.83539 200.1043-26.30854-5.3148-47.30223-20.9937-68.42879-31.4905-78.92562-47.3022-115.73101-136.7247-110.41615-220.8323 0-20.9937 10.49684-36.8054 15.8117-57.7991 15.8117-84.1076 84.10761-131.5427 163.03324-157.7184 99.91932-26.30852 205.15349 20.9937 257.77058 115.731 31.49052 57.7991 36.80538 126.2279 10.49684 189.3418-15.8117 26.3086-31.49053 52.6171-52.61709 73.6108-26.30854 26.3085-57.79907 42.1202-94.60446 52.6171-26.30854 5.3148-47.30223 10.4968-73.61077 5.3148-20.99368-5.3148-36.80538-10.4968-57.79907-15.8117-31.49053-15.8117-63.11393-36.8053-89.42247-68.4287-73.61078-99.9194-36.80539-247.1409 78.92563-299.758 31.49053-10.4968 63.11393-20.9937 94.60445-15.8117 68.42879 10.4969 120.91301 47.3022 152.53641 110.4162 42.12024 99.9193-5.31486 215.6503-110.41616 236.644-20.99369 5.3148-36.80539 10.4968-57.79907 10.4968-68.42879-10.4968-131.54272-52.6171-147.22155-120.913 0-20.9937-10.49684-36.8054-5.31486-57.799 15.8117-78.9257 78.92563-142.0396 163.03325-136.7247 84.10761 5.3148 152.5364 94.6044 126.22786 178.8449-10.49685 20.9937-15.8117 42.1202-36.80539 57.7991-15.8117 15.8117-36.80538 20.9937-52.61708 31.4905-57.79908 20.9937-120.91301-15.8117-147.22155-68.4288-5.31486-20.9937-15.8117-42.1202-10.49684-63.1139 15.8117-84.1076 120.913-131.5427 184.02693-63.1139 15.67883 15.6788 20.86081 41.9873 26.17567 62.981 5.31486 36.8054-15.8117 63.1139-42.12024 84.1076-42.12025 26.3086-94.60446 5.3149-120.913-36.8054-10.49685-20.9936-5.31486-47.3022 5.31485-68.4287 15.8117-20.9937 36.80539-31.4906 63.11393-31.4906 23.98451 0 41.23931 14.86 48.993 34.3086 7.53814 18.9078 6.09609 42.1526-6.87275 60.2959-15.81171 10.4968-36.80539 15.8117-57.79908 15.8117" fill="#fff" opacity=".9"/></g><path d="m88.894113 151.41014.05078.084.05273.084c.992426 1.58789 2.180679 2.99834 3.455078 4.33008-2.595692 2.48772-5.203018 5.44108-6.087891 7.20703-2.475316 5.03853-3.151758 9.06822-3.820312 14.50977-.809102 6.13647-.519887 12.22852 1.816406 17.93945l.05664.13672.05859.13867c1.064069 2.48283 3.473654 5.60336 6.257813 8.37891l4.441406 14.26953c3.631766 11.66801 11.536727 21.23121 21.128907 26.86524-5.93151.83213-11.89455 1.98806-18.463868 4.13183-48.158887 19.01442-80.969691 70.65057-70.541992 122.28613 5.591123 27.68578 21.851701 57.50576 44.779297 79.80079 11.463799 11.1475 24.759358 20.40828 40.037103 25.3164 15.27777 4.90814 32.87734 4.90077 49.20899-2.44336l.004-.002.004-.002c17.85036-8.03705 29.98924-22.62781 34.33203-38.48829 1.34632-4.91692 1.98985-9.84981 2.17383-14.75781 2.53936 9.63691 5.63651 19.0257 10.16602 27.71485 8.26598 15.85701 25.53726 30.28201 46.80468 29.35156 26.26666-1.1479 48.78756-18.65767 62.24219-42.01953 13.45463-23.36187 16.04473-56.5533-5.17578-82.91992l-7.36133-9.14454c10.67571-8.8323 25.83623-14.73574 38.12909-16.22475 12.0389-.43977 27.89224 1.83156 23.61719 14.39844-1.5628 4.62872-6.54197 12.26438-12.76368 20.91406-6.2217 8.6497-13.61416 18.38918-18.21289 30.89454-4.59708 12.50092-5.05338 29.21255 3.31836 43.70312 12.91411 22.38445 36.19202 37.31488 62.21485 36.94922 26.02281-.36566 52.61881-15.69171 73.82421-45.14648 6.70779-13.12201 9.78392-19.55616 10.03236-40.98306-11.1956 6.15698-21.17274 13.18689-32.83802 17.31661-14.49051 5.1299-30.66774 14.8951-45.23926 8.94575 2.22862-2.2202 7.53008-5.63329 14.64258-9.54298 8.16068-4.48585 17.91584-9.62333 26.97266-17.21289 9.05394-7.58714 17.85622-18.63045 20.15139-33.1964 6.70633-42.46538-19.54494-81.26612-52.70115-102.46496-9.69022-6.21693-20.34798-8.51223-30.7334-8.83474 8.50463-5.79357 15.4333-14.66457 18.70314-25.39821l4.56445-14.98437c2.37503-2.52908 4.34748-5.26911 5.86339-10.35077s2.17471-10.55293 1.45692-17.31525c-.60365-5.68714-2.27266-14.0153-9.51757-20.10937 9.02392-10.45416 7.2042-28.13094 3.26951-39.26762l-.0195-.0547-.0195-.0547c-1.29885-3.50123-3.02267-7.92491-6.56055-12.74609-8.29682-7.902835-14.63637-13.273812-24.99609-11.570313 2.25434-14.538016-8.49195-28.769235-17.95883-35.923828l-.0703-.05078-.0684-.05078c-5.62856-4.102347-10.85872-7.368304-17.48047-9.382812-3.71137-1.13897-8.55874-1.481335-13.13477-.931641-1.10829-5.508287-3.90637-10.39992-10.36142-16.305401-6.45505-5.90548-15.8155-8.651982-25.50967-9.323505-9.69215-.671383-20.27267.799361-28.21937 6.708219-7.94669 5.908858-12.28972 12.10847-15.54054 18.709744-3.22569-6.681359-7.60304-12.906385-15.58509-18.348783-7.98204-5.442399-16.69303-7.222197-26.56334-7.248874-9.85454-.02663-21.84808 2.092692-30.875 12.41211l-.0391.04297-.0371.04297c-2.47607 2.867449-5.25539 7.859876-6.41993 13.419922-4.76838-.662877-10.04882-.35804-13.91211.845703-6.54049 1.990489-11.86054 5.236586-17.50781 9.429688-10.60892 10.764361-21.71283 23.131972-18.1445 35.507812-7.44623.0815-16.66047 3.386422-21.551201 7.902344-4.532491 4.548415-7.501769 9.957355-10.045912 17.103535-3.967616 11.22091-7.841136 21.74515.247056 35.00979zm45.019947 169.08009c8.83355.5062 18.8195 2.9062 28.32617 6.33204l.004.002.002.002c6.99133 2.51595 12.43149 8.98726 17.5625 21.83203 3.24225 8.1165 5.83377 18.37897 8.28516 29.18164-14.32214-25.59464-30.8179-46.1438-54.17983-57.34971zm-25.35547 70.42774c-10.09026-12.51352-15.387658-30.33777-12.404293-41.96875 3.727234-10.08504 7.654133-16.46949 11.902343-20.58008l6.21484 16.96094c5.03077 20.18743 21.53279 39.09308 19.56641 59.91894-9.95913 2.18351-19.89213-7.7583-25.2793-14.33105zm171.38868-19.20117c-1.68211 7.92869-4.73222 28.9429-13.44629 31.80664 1.70358-12.65154 6.79025-22.11429 13.44629-31.80664z" fill="#eef2fa" filter="url(#a)"/><path d="m88.894113 151.41014.05078.084.05273.084c.992426 1.58789 2.180679 2.99834 3.455078 4.33008-2.595692 2.48772-5.203018 5.44108-6.087891 7.20703-2.475316 5.03853-3.151758 9.06822-3.820312 14.50977-.809102 6.13647-.519887 12.22852 1.816406 17.93945l.05664.13672.05859.13867c1.064069 2.48283 3.473654 5.60336 6.257813 8.37891l4.441406 14.26953c3.631766 11.66801 11.536727 21.23121 21.128907 26.86524-5.93151.83213-11.89455 1.98806-18.463868 4.13183-48.158887 19.01442-80.969691 70.65057-70.541992 122.28613 5.591123 27.68578 21.851701 57.50576 44.779297 79.80079 11.463799 11.1475 24.759358 20.40828 40.037103 25.3164 15.27777 4.90814 32.87734 4.90077 49.20899-2.44336l.004-.002.004-.002c17.85036-8.03705 29.98924-22.62781 34.33203-38.48829 1.34632-4.91692 1.98985-9.84981 2.17383-14.75781 2.53936 9.63691 5.63651 19.0257 10.16602 27.71485 8.26598 15.85701 25.53726 30.28201 46.80468 29.35156 26.26666-1.1479 48.78756-18.65767 62.24219-42.01953 13.45463-23.36187 16.04473-56.5533-5.17578-82.91992l-7.36133-9.14454c10.67571-8.8323 25.83623-14.73574 38.12909-16.22475 12.0389-.43977 27.89224 1.83156 23.61719 14.39844-1.5628 4.62872-6.54197 12.26438-12.76368 20.91406-6.2217 8.6497-13.61416 18.38918-18.21289 30.89454-4.59708 12.50092-5.05338 29.21255 3.31836 43.70312 12.91411 22.38445 36.19202 37.31488 62.21485 36.94922 26.02281-.36566 52.61881-15.69171 73.82421-45.14648 6.70779-13.12201 9.78392-19.55616 10.03236-40.98306-11.1956 6.15698-21.17274 13.18689-32.83802 17.31661-14.49051 5.1299-30.66774 14.8951-45.23926 8.94575 2.22862-2.2202 7.53008-5.63329 14.64258-9.54298 8.16068-4.48585 17.91584-9.62333 26.97266-17.21289 9.05394-7.58714 17.85622-18.63045 20.15139-33.1964 6.70633-42.46538-19.54494-81.26612-52.70115-102.46496-9.69022-6.21693-20.34798-8.51223-30.7334-8.83474 8.50463-5.79357 15.4333-14.66457 18.70314-25.39821l4.56445-14.98437c2.37503-2.52908 4.34748-5.26911 5.86339-10.35077s2.17471-10.55293 1.45692-17.31525c-.60365-5.68714-2.27266-14.0153-9.51757-20.10937 9.02392-10.45416 7.2042-28.13094 3.26951-39.26762l-.0195-.0547-.0195-.0547c-1.29885-3.50123-3.02267-7.92491-6.56055-12.74609-8.29682-7.902835-14.63637-13.273812-24.99609-11.570313 2.25434-14.538016-8.49195-28.769235-17.95883-35.923828l-.0703-.05078-.0684-.05078c-5.62856-4.102347-10.85872-7.368304-17.48047-9.382812-3.71137-1.13897-8.55874-1.481335-13.13477-.931641-1.10829-5.508287-3.90637-10.39992-10.36142-16.305401-6.45505-5.90548-15.8155-8.651982-25.50967-9.323505-9.69215-.671383-20.27267.799361-28.21937 6.708219-7.94669 5.908858-12.28972 12.10847-15.54054 18.709744-3.22569-6.681359-7.60304-12.906385-15.58509-18.348783-7.98204-5.442399-16.69303-7.222197-26.56334-7.248874-9.85454-.02663-21.84808 2.092692-30.875 12.41211l-.0391.04297-.0371.04297c-2.47607 2.867449-5.25539 7.859876-6.41993 13.419922-4.76838-.662877-10.04882-.35804-13.91211.845703-6.54049 1.990489-11.86054 5.236586-17.50781 9.429688-10.60892 10.764361-21.71283 23.131972-18.1445 35.507812-7.44623.0815-16.66047 3.386422-21.551201 7.902344-4.532491 4.548415-7.501769 9.957355-10.045912 17.103535-3.967616 11.22091-7.841136 21.74515.247056 35.00979zm45.019947 169.08009c8.83355.5062 18.8195 2.9062 28.32617 6.33204l.004.002.002.002c6.99133 2.51595 12.43149 8.98726 17.5625 21.83203 3.24225 8.1165 5.83377 18.37897 8.28516 29.18164-14.32214-25.59464-30.8179-46.1438-54.17983-57.34971zm-25.35547 70.42774c-10.09026-12.51352-15.387658-30.33777-12.404293-41.96875 3.727234-10.08504 7.654133-16.46949 11.902343-20.58008l6.21484 16.96094c5.03077 20.18743 21.53279 39.09308 19.56641 59.91894-9.95913 2.18351-19.89213-7.7583-25.2793-14.33105zm171.38868-19.20117c-1.68211 7.92869-4.73222 28.9429-13.44629 31.80664 1.70358-12.65154 6.79025-22.11429 13.44629-31.80664z" fill="#7896d3"/><path d="m207.13194 37.692521c-6.66-.018-13.32 1.737-17.28 6.264-2.78999 3.231-4.31999 7.614 0 17.271 4.68001 7.271995 8.37001 17.153995 11.61001 29.808005l-16.11001 4.19399c-5.48999-21.35699-12.42-29.69999-16.65-31.589995-2.16-.936-4.22999-1.026-7.47 0-3.32999.999005-7.56 3.312005-12.15 6.722995-7.11 5.22-11.33999 11.89801-11.16 17.32501 3.33 11.17799 11.79 16.740004 22.5 21.770994l-7.2 15.12c-4.14-1.88999-7.83-3.96-11.16-6.12-11.97-6.57-20.79-9.342-25.2-8.973-2.34.19801-3.68999.765-5.4 2.493-1.8 1.80001-3.96 5.13-5.85 10.44-3.15 8.91-3.6 15.93-1.35 19.62 1.8 2.88 6.48 6.21001 18.09 7.38 2.97.09 6.03.18 9.36.36v.09h.99l.18 16.83c-3.41999 0-6.56999-.09-9.53999-.36-9.99-.09-15.93001.72-18.18001 1.89-1.43999.72-1.88999 1.17-2.61 2.7-.81 1.62-1.62 4.59-2.16 9-.539997 4.05-.18 6.84.63 8.82.81 1.89 1.89 3.24 4.77 4.77 5.85 3.15 19.53 5.22001 42.57 3.33l1.35 16.74c-15.48 1.35-27.63 1.35-37.35-.45 4.23 13.59 13.05 19.71 23.13 19.71h84.6c9.54 0 17.82-6.93 21.06-19.89l7.29-28.89 8.91 28.44c4.23 13.32001 12.78 20.34 21.15 20.34h84.78c10.08 0 18.99001-6.20999 23.13-19.8-9.80999 1.89-22.14 1.89-38.15999.54l1.43999-16.74c23.04001 1.89 36.63-.18 42.48001-3.33 2.88-1.52999 3.95999-2.87999 4.76999-4.77 1.26-5.67 1.89001-17.37-4.04999-20.52-2.25-1.08-8.19001-1.98-18.18-1.89-2.97.27-6.12.36-9.54.36l.18-16.82999h.9v-.09c3.42-.18001 6.48-.27001 9.35999-.36001 11.61-1.16999 16.38-4.5 18.18-7.37999 2.25-3.69 1.8-10.71-1.44-19.62-2.07-5.58-5.4-12.393-11.16-12.93301-15.39 1.863-26.19 8.70301-36.36 15.09301l-7.2-15.12c3.96-1.782 6.93001-3.798 10.53-5.904 9.18-6.192004 11.7-11.718004 11.97-15.867004.18001-5.427-4.14-12.105-11.15999-17.325-4.68-3.411-8.82001-5.715-12.15001-6.723005-3.24-.999-5.39999-.909-7.46999 0-1.53001.648005-3.33 2.106005-5.22001 4.581005-5.12999 8.109-9.35999 19.179-11.43 27l-16.29-4.194c3.69001-14.184 7.92-24.885 13.5-32.337005 2.97-7.911 1.53-11.808-.99-14.742-8.46-6.957-25.47-8.757-34.83-1.791-4.05 3.006-7.29 7.65-9.81 13.5-4.95 11.673005-6.39 27.783005-6.39 39.591005v.09l-.18 27.711004v.09h-16.74v-.09l-.18-27.747004v-.09c0-11.808-1.44-27.918-6.47999-39.627005-2.43-5.85-5.67001-10.494-9.72-13.5-4.05001-2.574-10.80001-4.374-17.46001-4.392zm42.48 196.146009c-7.11 9.63-17.46 15.83999-29.52 15.83999h-38.52c1.8 3.87 4.86 7.38 9 10.62 10.62 8.10001 28.89 13.5 48.24 14.76l-.54.54c-7.11 7.65001-29.88 5.85001-43.2.81001-31.5-11.52001-61.11-19.71-91.152-9.99001-39.392997 15.57-67.373997 60.21-58.976997 101.79001 9.324 46.17 60.164997 111.77999 108.998997 89.82 55.17-24.84001 10.26-103.05001-22.77-118.89 7.65 20.88 35.82 71.91 10.26 82.70999-30.78 12.96-73.403997-39.24-62.531997-78.20999 18.639-51.66 59.471997-44.55 89.441997-33.75 54.27 19.53 28.08 152.91 85.68 150.39 35.01-1.53 76.86-54.63 43.83-95.67 3.51 25.74-18.36 67.95-38.60999 57.06-30.42001-16.29 10.97999-76.05 39.32999-95.94 21.96-15.39 63.54-25.29 80.55-3.33 26.82 34.74-47.88 66.78-24.93 106.47 20.25 35.1 68.13 42.66 105.84-9.72-26.19 15.66-61.74 23.22-71.64 1.44-12.69-27.99 56.43-31.77 62.19-68.4 5.22001-33.03-16.47-66.51-44.64-84.51-35.91-23.04-98.37 27.81-144.27 6.93 17.73-1.89 34.11-7.29 43.74-15.03 3.78-3.06 6.57001-6.3 8.37-9.9h-35.27999c-11.61001 0-21.78-6.3-28.89001-15.84z" fill="#fff" stroke-width="36"/></svg>