<svg height="500" viewBox="0 0 500 500" width="500" xmlns="http://www.w3.org/2000/svg" xmlns:xlink="http://www.w3.org/1999/xlink"><filter id="a" color-interpolation-filters="sRGB" height="1.004767" width="1.021247" x="-.010623" y="-.002384"><feGaussianBlur stdDeviation=".035526531"/></filter><filter id="b" color-interpolation-filters="sRGB" height="1.007532" width="1.006831" x="-.003416" y="-.003766"><feGaussianBlur stdDeviation=".070539658"/></filter><filter id="c" color-interpolation-filters="sRGB" height="1.00646" width="1.005601" x="-.002801" y="-.00323"><feGaussianBlur stdDeviation=".076054586"/></filter><g transform="translate(-1000 -500)"><circle cx="1250" cy="750" fill="#8f29a3" r="250"/><path d="m1250.0521 500.09326-.061 248.75004-15.9199-248.2399a249.99917 250.18666 0 0 0 -31.6776 4.06945l45.0428 231.17052c-.102.0363-.2268.0547-.3789.0547l2.377 12.94521-.25-.53361-.5352-1.34279-3.3574-10.61339c-.1814.0698-.3456.12506-.5117.12506l-.1211.0782-83.1951-220.24831a249.99917 250.18666 0 0 0 -14.7401 6.13348l96.9 214.60543-.2187.11532 2.3047 4.43886 2.3437 5.21678.055.0488.416.7486.7461 1.26658v.0314l-.7461-1.29782-.4707-.79746-5.5273-9.21c-.1841.12151-.3808.23754-.5664.39678l-123.4077-200.53639a249.99917 250.18666 0 0 0 -34.1776 25.40763l164.5483 186.40079-.3984-.58052.832 1.02616v.0508l-.3262-.32448-.094-.12903v-.006-.002l-176.1809-175.46484a249.99917 250.18666 0 0 0 -21.0273 24.05115l186.5306 143.42536-.1425.18569 10.4687 8.26398-2.0957-1.07698-9.4082-5.66242c-.1395.18156-.2273.33335-.3066.47301l-208.0031-109.74966a249.99917 250.18666 0 0 0 -7 14.40723l214.5266 96.34337c-.074.17741-.1655.3791-.2578.59419l12.1758 4.73596-.037-.0253.5254.23653-.4863-.21109.3574.18179.2129.0802-.2129-.0508v-.0295l-12.8066-4.08117c-.056.14944-.1255.33501-.1758.5082l-224.9661-68.33223a249.99917 250.18666 0 0 0 -8.7656 41.69908l246.1613 30.77687h-1.2363l-246.3644-14.82161a249.99917 250.18666 0 0 0 -.4219 14.51082 249.99917 250.18666 0 0 0 .6113 17.47203l234.4934-16.18786h-.027l.3066-.0234-.2773.0234 12.9687-.73492-7.6699 1.8549-.3028.0508-4.789.9382.07.23845-228.2004 55.91086a249.99917 250.18666 0 0 0 4.2871 15.37279l224.173-70.26921c.093.36314.1859.69573.2793.95971l11.9648-4.46623-6.7285 3.52803-218.2141 100.03556a249.99917 250.18666 0 0 0 21.0155 36.99246l204.0072-139.70972-2.9414 2.38851-191.599 150.2058a249.99917 250.18666 0 0 0 21.2792 23.80097l164.7143-167.43742c.2793.26396.5666.50585.8359.80333l7.6309-8.62753v-.0314l.7578-.86587.1855-.23653.7754-.84633.02-.0645.057-.0272-.023.15832-.1035.11531.051-.18179-.068.18179-1.3203 1.73762.6133-1.0457-.1856.20916-.7578.89715-2.5996 3.67852-4.2753 5.57643.287.1818-133.9214 192.92518a249.99917 250.18666 0 0 0 13.3768 8.68037l121.3629-200.99764c.1115.0698.2562.1641.4043.23263l6.9082-11.76855-.2793.71929-100.1481 226.51466a249.99917 250.18666 0 0 0 40.1346 13.79743l59.6931-236.78211-1.5742 9.22563.2364.0566-42.7675 230.89101a249.99917 250.18666 0 0 0 31.6386 3.76263l12.9316-234.50119c.2415.0238.455.0234.6602.0234h.031v-12.36276l.055-.87175.3809 3.35211.6328 9.85892c.1939 0 .3385-.0234.5058-.0234l27.248 233.23258a249.99917 250.18666 0 0 0 15.7831-2.3455l-42.1484-231.0161c.254-.028.4739-.0916.707-.11531l-2.0644-10.71502-.055-.13878-.3203-1.79235.018.0295.3575 1.90182 74.3923 234.18055a249.99917 250.18666 0 0 0 39.205-16.19959l-111.1503-215.75097 4.1406 6.7179.2696-.18569 120.6715 201.44522a249.99917 250.18666 0 0 0 26.2108-18.10533l-145.5071-184.32505c.254-.18717.4204-.39029.6562-.60397l-8.457-9.554 3.3672 3.03156 5.8437 5.83834.2872-.30686 174.8256 156.82795a249.99917 250.18666 0 0 0 10.2715-12.18293l-184.478-145.35845c.1296-.15783.305-.33279.4082-.48083l-9.3632-7.21437 211.5852 126.78601a249.99917 250.18666 0 0 0 18.7245-38.19257l-229.6555-89.16613 11.0274 3.36579.012-.18569 223.9289 70.91228a249.99917 250.18666 0 0 0 7.6836-30.99187l-231.1887-41.80463c0-.16199.037-.30149.037-.44955l-7.3671-.90693-4.5508-.79941 12.0312.70755c.03-.32965.029-.62841.029-.96361l235.009 1.78454a249.99917 250.18666 0 0 0 .011-2.19892 249.99917 250.18666 0 0 0 -.3809-13.81303l-234.6691 13.37131v-.33226l-11.7754.81114-2.207.14075 2.1641-.14075h.043l242.6422-45.60435a249.99917 250.18666 0 0 0 -11.2772-41.04821l-231.0032 85.65376-.2598.0684 10.5078-4.79069c-.1716-.35894-.395-.80876-.6601-1.20402l208.1651-109.51534a249.99917 250.18666 0 0 0 -7.877-13.90491l-200.7337 122.63837-.2109-.32833-5.6211 3.9033-4.707 2.86542 9.6699-7.59747-.1446-.20719 183.392-147.45376a249.99917 250.18666 0 0 0 -29.3651-30.85701l-161.2514 182.96656-2.3184 2.37091 151.2905-195.53064a249.99917 250.18666 0 0 0 -26.4154-17.96062l-119.2496 202.94829-.094-.0664-7.0644 11.68841 5.539-12.45265c-.2748-.15364-.5655-.24794-.8711-.35962l83.404-220.18189a249.99917 250.18666 0 0 0 -15.121-5.19332l-69.2811 225.07807c-.1088-.0378-.2229-.0651-.3808-.11531l-1.8809 7.53882-1.1289 3.69807 2.1055-11.46558c-.2011-.0197-.4082-.0561-.6133-.0743l40.1268-232.08917a249.99917 250.18666 0 0 0 -42.4354-3.64138zm-1.9453 235.66215 1.0117 8.77021v.043l.8711 4.45646v.46128l.029-.16807.023.62741v.1036l-.057-.1036v-.43977l-.066.30686-.2383-.49451-.5625-4.74964zm-9.3652 5.00568 7.0859 6.37391-.025-.0197zm25.7675 6.02013-11.8261 2.9006h-.057zm-12.1504.11531-1.6269 2.78332-.3496.40069.1113-.44954-.092.20719-.02.18179-.051.10553v-.0253l.051-.0802v-.16221l.02-.0197v-.10556l.012-.0234.082-.12118v-.0234l.033-.0272.061-.1505v.0197l-.061.13096-.033.0508zm-6.5292.23849 3.3242 2.54682.3633.56682-.4493-.16807.2012.13878h-.022l-.2188-.13878h.037zm5.0331.24627-.2968 1.58908.2968-.84047-.3339 1.37603-.1016.1505.1387-.68606.2617-1.56758zm-.582.38505-.086 1.71808-.057.19351-.1172-.46715zm3.1445.7447-2.2754 1.58908h-.023l-.4121.27757-.2871.11728.2129-.27557.074-.0215.8867-.71342zm-4.0429.57856.1348.14075v.0469l-.084-.1251zm3.8633.31665h.029l-.1738.0802zm-3.5254.18179.1835.3577v.0392l-.1835-.35376zm.416.0938.02.26385v.0392l.039.0958.047.11728-.047.0215-.039-.1192.039-.0197-.039-.0605v-.0352l-.057-.26192zm2.2207.0644-.07.0272-1.0156.30686.1562-.0605zm-5.6387.0665 2.3692.40655.3457.21498.029.0606-.3124.0644zm2.1641.31271h.053l.094.0314zm.7265.19155h.02v.0196zm-.164.0606h.02l.074.0802zm.2148.1818h.024l-.024.0314zm-.3359.16808h.057l.2461.0352-.8125.32836zm-.3887.0352h.2168l-.9316.47886.2637-.0527-.025.0272-.2383.0253-2.0253.39287v.0234l-5.2422.93428 5.2422-.95774zm1.7774.0234.5078.043.7519.2228-.8457-.0841zm-.2188.16418.035.0178.1113.22088.3282.16611 1.4394 1.4034-1.3496-1.00858-.2344-.2971-.1855-.26385-.018-.0333-.092-.18766h-.035zm-1.0625.0802-.25.27364h-.029l-2.7812 1.26461 2.2988-1.41316zm1.5703.0997.1485.0253.031.0314zm.2207.0253 1.9356.60398-1.9063-.57074zm-1.1796.17201.031.1251.022-.0978-.022.13092v.006l.076.23066.125 1.89594-.2324-1.35256.031-.77402-.088.50819v-.0919l-.031-.18569.031.14272v-.26385zm.7226.0919.061.0664.088.14661-.037-.0314zm-1.1406.1818-.2442.52578-3.9492 12.85138 3.9219-12.85138h.027l.084-.28732.01-.0117zm-.088.10552-.065.11339.041-.0978zm1.4648.0802.033.0234.1152.18962-.092-.0919zm-.4375.21306.023.0295.029.22669zm-1.7304.26581v.0295l.051-.0295zm2.2929 1.35257 4.8828 10.7893-4.8828-10.73457z" fill="#aa40bf"/></g><g transform="translate(0 -.132879)"><path d="m403.68057 3.2356697c-6.52238-5.1268922-16.00812-3.74990186-20.80354 3.0199248 0 0-11.39851 13.3068835-14.99338 21.1720585-2.02687 4.434574-2.46965 7.158849-3.49451 14.203926-2.69481 18.524248-3.90073 48.268144.49327 51.731205l23.67985 18.545856c4.44067 3.50064 31.75528-6.09213 48.16228-13.805645 6.07242-2.854867 8.44965-4.0679 12.02205-7.033196 6.6742-5.539924 17.05099-19.656675 17.05099-19.656675 5.42654-6.25891 4.51934-15.783417-1.9912-20.905326z" fill="#8f29a3" stroke-width=".999999"/><path d="m450.29892 59.869738c-4.75927-11.916826-43.31986-42.232403-52.4165-41.209483-11.67643 2.226799-22.22672 30.098247-22.22672 30.098247l25.11989 19.796151 25.50089 20.096361s28.29677-18.07834 24.02235-28.781163z" fill="#aa40bf" stroke-width=".919083"/><path d="m407.3297 126.66559c4.38255 3.30377 18.19196 12.43105 30.3507-.70295 4.49704-5.27018 5.66171-10.44482 5.05296-15.20623l.00018.00007c-1.15439-8.82543-8.72378-15.877779-11.8994-18.519957l-59.93073-47.137681c-4.98396-3.785884-22.54118-15.033827-34.19268 1.252264-6.32111 10.4818-2.5638 24.285873 7.69063 30.674614 0 0-53.5476 82.07672-89.4542 115.3681-12.24151 8.81336-24.02507 15.55783-39.61435 17.41903-82.25456 1.05851-106.6348-20.10049-113.09798-10.9699-64.542622 81.92912-71.578976 172.30048-71.578976 172.30048l81.694906 64.26849 81.81799 64.4552s85.94067-28.38822 150.58262-110.32916c7.1418-8.50676-19.16203-27.22034-37.38672-107.32472-1.87304-15.68859 1.80844-28.7169 7.60329-42.60176 26.74781-37.07103 56.4104-83.6641 92.36176-112.94589z" fill="#6a1f7a" stroke-width=".999999"/><path d="m361.95803 90.96824c-11.35856 16.34724-51.37297 70.33461-83.90876 106.0029 0 0-13.92273 9.42181-21.29412 13.43391-8.13658 4.42857-25.21382 11.688-25.21382 11.688-28.08057 10.58792-80.74999 2.17307-120.88703-9.2493l-.29883.0352c-18.097156 24.71964-32.528764 50.61284-42.998048 77.64453-9.923831 24.85161-16.142151 50.36884-19.060547 75.69336l.02344.19922 146.248045 114.87304c24.13605-8.72279 47.46176-20.87471 69.21484-36.06054 23.58491-16.71378 45.43879-36.94745 65.20313-60.35547l-.0117-.0977c-20.4749-36.53023-40.96567-85.85082-37.3418-115.38867 0 0 3.11364-18.35889 5.52736-27.33673 2.16751-8.06206 8.01561-23.72772 8.01561-23.72772 27.05015-39.98867 70.15661-91.54081 83.38658-106.41384z" fill="#aa40bf"/><g fill="#eed9f2"><path d="m272.77742 231.62828c-6.50432-5.25249-13.83625-9.69394-20.76743-12.17668-3.4759-1.24507-6.85481-2.04378-10.30311-1.93456-3.43207.10872-7.39705 1.14209-9.83192 4.31958l-2.57808 3.27712-.0638.30974c-2.89127 11.26791 12.05873 26.41827 21.5858 33.98541 7.43192 5.4806 25.41822 19.15541 37.91478 13.09291.21726-.10684.32967-.17393.37339-.24602l2.57808-3.27712c2.14505-2.72669 2.72594-6.24789 2.14406-10.47154-.58188-4.22364-3.53513-8.89554-7.32893-13.60367-3.7849-4.69708-8.58069-9.27377-13.72301-13.27531z" filter="url(#c)" opacity=".5"/><path d="m110.6543 212.84375-.29883.0352c-18.097156 24.71964-32.528764 50.61284-42.998048 77.64453-9.923831 24.85161-16.142151 50.36884-19.060547 75.69336l.02344.19922 146.248048 114.87304c24.13605-8.72279 47.46176-20.87471 69.21484-36.06054 23.58491-16.71378 45.43879-36.94745 65.20313-60.35547l-.0117-.0977c-20.4749-36.53023-40.96567-85.85082-37.3418-115.38867l.0527-.4082-2.57813 3.27734c-.0437.0721-.15579.13925-.37304.24609-12.49655 6.0625-30.48411-7.61315-37.91602-13.09375-9.52706-7.56713-24.47721-22.71647-21.58594-33.98437l.0645-.31055 2.57812-3.27734-.37305.24609c-28.04119 10.59894-80.71061 2.18409-120.84765-9.23828zm122.23242 7.87305c-.0102.01-.0211.0176-.0312.0273.0101-.01.0212-.0178.0312-.0273zm61.15234 40.77539c-.00011.032.00029.0638 0 .0957.00029-.0318-.00011-.0638 0-.0957zm-.2539 2.77148c-.005.0241-.009.0483-.0137.0723.005-.024.009-.0482.0137-.0723z" stroke-width=".999999"/><path d="m89.49099 47.721725c-1.02899-1.739928-4.17207-2.525697-4.17207-2.525697-.54256-4.62109-.72965-24.527328-.35547-29.952896l-3.49856.05612v-3.330177l7.95811-.01722c-.31805 5.257191-.84873 23.029132.068 35.76987z" filter="url(#a)" opacity=".5" stroke-width=".264583" transform="matrix(2.9705054 2.3368624 -2.3368624 2.9705054 150.86059 -132.56363)"/></g><path d="m-197.76797 96.385999c-1.47799-1.477994-3.27405-2.787621-5.5004-3.816605-8.69962-3.423723-10.83243 7.726766-6.09909 14.181326 4.28433 5.9307 14.16261 11.91754 16.55734 5.33202 1.17867-3.23663.31806-10.45825-4.95785-15.696741zm-26.62271-2.974708c-1.44059-1.478002-3.66694-2.020554-6.66036-.860605-10.08408 4.695924-11.91755 15.397394-10.38341 19.513344 2.37601 6.60424 12.2543.6174 16.53863-5.31332 3.10567-4.2282 3.23663-10.495673.50514-13.339419zm27.48332 29.878059c-2.80633-2.73149-8.56866-5.83716-20.18686-5.81845-20.67331-.0561-22.89966 9.84087-22.89966 9.84087-2.56311 6.79131 1.77734 12.8904 13.88198 7.48354 3.51727-1.57155 5.16366-2.69408 8.99897-2.67538 3.77919.00001 5.46299 1.12254 8.94284 2.69409 12.12334 5.38815 16.48251-.72966 13.86326-7.50226 0 0-.39288-1.8896-2.60053-4.02241zm-15.24772-14.12519c-.71094-.71094-1.51542-1.10383-2.43216-.86061-2.91857 1.0477.31806 4.73334 3.92887 7.25904 1.51542.91674.57997-4.20949-1.49671-6.39843zm-6.7352-.37418c-.16835-.20582-.449-.37419-.80447-.50514-3.62953-1.01027-5.93071 8.47512-3.91016 7.27775 3.12438-2.22635 6.00555-5.33203 4.71463-6.77261z" fill="#8f29a3" filter="url(#b)" opacity=".5" stroke-width=".264583" transform="matrix(2.9705054 2.3368624 -2.3368624 2.9705054 1093.7625 515.17674)"/></g></svg>