<svg height="500" viewBox="0 0 500 500" width="500" xmlns="http://www.w3.org/2000/svg" xmlns:xlink="http://www.w3.org/1999/xlink"><radialGradient id="a" cx="1362.7291" cy="216.11429" gradientTransform="matrix(1.0000001 -.0000059 .0000001 1.0000003 -112.72927 33.893757)" gradientUnits="userSpaceOnUse" r="250"><stop offset="0" stop-color="#ff851a"/><stop offset=".42441937" stop-color="#f87000"/><stop offset=".86367416" stop-color="#f26900"/><stop offset="1" stop-color="#e55f00"/></radialGradient><g transform="translate(-1000)"><path d="m1500 250a250 250 0 0 1 -250 250 250 250 0 0 1 -250-250 250 250 0 0 1 250-250 250 250 0 0 1 250 250z" fill="url(#a)" stroke-linecap="round" stroke-linejoin="round" stroke-width="1.002"/><path d="m1309.2298 33.82789c128.5196 30.706851 207.8974 167.48127 169.5927 291.56949-31.3771 95.69524-112.8693 162.03793-212.5543 174.60263 153.1796-8.09118 266.0956-163.0043 218.7012-309.92978-36.4562-114.666588-154.6038-191.5214848-270.6514-169.822657-18.8526 4.215647-38.4387 10.498641-55.8829 18.694487-112.5353 47.459213-168.47522 196.206-99.9632 307.85319 57.6978 93.63045 168.5136 141.8489 267.9993 100.77239-134.92 68.97589-303.283-51.46877-311.488-201.30723-4.4167-117.68321 76.8182-219.674136 190.654-246.26040176-89.0147 9.18391126-152.6601 79.39239576-187.7408 157.21169176-38.45522 102.70317 5.2337 231.75078 109.038 294.08388 114.5107 66.1048 260.3537 29.37245 323.6836-83.60152 42.2104-77.69758 34.3514-177.62383-23.1776-249.88923-57.5404-72.257811-157.5429-102.460489-246.4118-71.877168-81.7429 30.682061-131.1298 101.133078-134.0478 190.176958.6692 92.68536 61.7912 168.55972 147.5399 198.52472 128.5549 37.82014 266.7725-70.33038 233.6823-209.88949-14.7104-64.39775-57.8855-122.14991-125.7378-141.121386-71.391-15.467036-138.9716 1.205-181.2869 64.641366-18.8995 29.2286-28.9384 85.21395-26.105 97.65297m0 0c13.5324-50.18833 30.6277-97.66354 72.2125-128.94941 53.182-38.308183 124.4576-37.093813 181.7444-.48035 50.1457 36.48017 75.4845 90.37713 72.3557 150.91678-6.6674 64.04407-38.4038 109.83277-91.6401 141.00844-63.9019 34.56125-135.3795 4.83213-189.1258-35.28385-78.8706-65.48566-79.7477-186.67235-8.9744-256.76104 63.7369-55.941605 167.0207-64.891564 238.7167-6.65053 78.8163 58.35315 90.3045 169.04089 40.972 246.62443-35.2274 56.41892-88.4571 87.60135-152.5581 93.63158-81.9488 2.18264-160.666-41.91503-196.8695-120.9383-36.2055-79.02511-22.5771-164.33167 26.8727-227.66064 49.4316-63.30896 138.3491-86.746364 220.4504-67.54202" fill="#c50"/></g><path d="m249.38281 219.21484c-4.80574-.0233-9.63742.046-14.56054.21094a18.0018 18.0018 0 0 0 -8.72461 2.60156 18.0018 18.0018 0 0 0 -8.22657-1.66015c-28.79243 2.17123-54.67619 7.30167-75.61328 14.64453a18.0018 18.0018 0 0 0 -7.69922 5.43945 18.0018 18.0018 0 0 0 -.61132-.13476 18.0018 18.0018 0 0 0 -8.90235 1.88086c-7.64627 3.82313-14.24668 7.91937-19.82422 12.73632a18.0018 18.0018 0 0 0 -.14453.125c-8.428138 7.43661-14.371092 17.33548-14.371092 27.73633a18.0018 18.0018 0 0 0 .119141 1.19922 18.0018 18.0018 0 0 0 -8.933594 8.2207c-4.064762 8.74102-4.149871 18.11364-2.046875 26.47071a18.0018 18.0018 0 0 0 -6.941406 6.42578c-3.20672 5.79668-5.152332 11.94989-5.958985 18.06836a18.0018 18.0018 0 0 0 -14.121093 9.04492c-5.600286 10.87749-5.240919 21.46192-2.332032 30.49023a18.0018 18.0018 0 0 0 -5.830078 4.88282c-4.396085 7.17186-7.044922 15.48194-7.044922 23.80664a18.0018 18.0018 0 0 0 .21875 2.80273c3.266388 20.73132 16.687756 34.77452 29.271485 43.66797a18.0018 18.0018 0 0 0 13.046875 3.08398 18.0018 18.0018 0 0 0 8.835937 9.5586c13.942209 6.59158 28.934339 11.57961 41.746099 15.11719a18.0018 18.0018 0 0 0 11.25976-.67383 18.0018 18.0018 0 0 0 9.01758 5.44336c16.77846 3.50735 34.88416 6.03116 53.93555 7.52539a18.0018 18.0018 0 0 0 9.74218-2 18.0018 18.0018 0 0 0 9.21289 3.12304c21.25491.74908 43.87663.1071 63.55274-1.68164a18.0018 18.0018 0 0 0 8.47265-3.04101 18.0018 18.0018 0 0 0 8.67383 1.16601c25.47972-3.29072 48.71894-8.64612 68.75782-15.48632a18.0018 18.0018 0 0 0 7.7871-5.31641 18.0018 18.0018 0 0 0 8.67188-1.01172c14.11668-6.0218 26.0576-12.93675 35.64258-20.86914a18.0018 18.0018 0 0 0 6.47851-15.15039c-.15488-2.16839 2.20092-9.18259-.23437-20.98438a18.0018 18.0018 0 0 0 -4.88477-8.7539c3.36853-5.75864 5.59841-12.13709 5.94922-18.68555a18.0018 18.0018 0 0 0 .002-.0332c.49494-9.56875-2.81693-19.34826-8.52929-27.52735a18.0018 18.0018 0 0 0 -3.98633-3.10156c1.873-4.27081 3.22782-8.97872 3.26953-14.44336a18.0018 18.0018 0 0 0 0-.13867c0-6.57855-2.0503-13.07914-5.13477-18.51367a18.0018 18.0018 0 0 0 -9.07226-7.33008c.15344-10.20531-4.75912-19.65074-11.49414-26.99805a18.0018 18.0018 0 0 0 -2.47461-1.57031c1.84259-5.24711 2.70946-11.81448.83398-18.33398a18.0018 18.0018 0 0 0 -13.41601-12.59961c-1.1829-.26123-2.36525-.46277-3.54688-.65821a18.0018 18.0018 0 0 0 -9.33203-14.7207c-19.59613-10.58401-40.97053-15.75509-58.90039-18.90234a18.0018 18.0018 0 0 0 -8.73242.79883 18.0018 18.0018 0 0 0 -8.50781-3.31055c-15.75895-1.66615-29.948-2.5707-44.36524-2.64063z" fill="#994100"/><g stroke-linecap="round" stroke-linejoin="round"><path d="m249.38281 219.21484c-4.80575-.0233-9.63741.046-14.56054.21094a18.0018 18.0018 0 0 0 -8.72461 2.60156 18.0018 18.0018 0 0 0 -8.22657-1.66015c-28.79246 2.17123-54.67617 7.30166-75.61328 14.64453a18.0018 18.0018 0 0 0 -9.63281 25.98047c1.71605 2.97449 3.4869 5.69757 5.19531 8.54492a18.0018 18.0018 0 0 0 21.01367 7.85351c13.83672-4.5103 36.64046-8.39271 62.37696-9.94726a18.0018 18.0018 0 0 0 7.85351-2.37695 18.0018 18.0018 0 0 0 7.61328 1.6875c18.00062-.26215 37.7092.28672 53.2461 1.80664a18.0018 18.0018 0 0 0 8.82226-1.36524 18.0018 18.0018 0 0 0 6.79297 3.38086c14.51396 2.34908 25.66722 5.77379 30.50196 8.2461a18.0018 18.0018 0 0 0 14.21484.9375c3.94947-1.40143 8.39672-2.31625 12.78711-2.73438a18.0018 18.0018 0 0 0 6.8457-33.75586c-19.59615-10.58402-40.97051-15.75508-58.90039-18.90234a18.0018 18.0018 0 0 0 -8.73242.79883 18.0018 18.0018 0 0 0 -8.50781-3.31055c-15.75896-1.66615-29.94799-2.5707-44.36524-2.64063z" fill="#994100"/><path d="m235.42554 237.41661c0 3.33.18 7.11.99 11.34 18.54-.27 38.7.27 55.26 1.89-.36-3.87-.36-7.47.18-10.89-20.43-2.16-37.62-2.97-56.43-2.34zm-16.2.9c-27.45 2.07-52.02 7.02-71.01 13.68 1.35 2.34 3.15 5.13 5.04 8.28 16.29-5.31 40.05-9.18 66.87-10.8-.63-4.14-.9-7.92-.9-11.16zm88.65 3.78c-.45 2.88-.36 6.39.54 10.71 15.57 2.52 27.9 5.94 35.82 9.99 5.58-1.98 11.43-3.15 17.1-3.69-16.83-9.09-36.54-14.04-53.46-17.01z" fill="#ffa348" stroke-width="36"/><path d="m240.62838 14.015625-26.07612-11.5332031c-7.21-1.92270147-14.5185-2.76730667-21.69141-2.3964844-2.39096.12360742-4.7669.38197701-14.89819 2.1159745-10.13129 1.7339975-24.50558 14.654351-33.28149 25.542229-5.51707 6.84478-8.98122 17.015021-11.24805 23.855468-8.3302 29.467291-1.21619 63.651141 19.49414 88.982421 2.53507 2.85086 5.91029 4.82264 9.63867 5.63086.62352 3.75491 2.4212 7.21556 5.13477 9.88477 14.70837 13.3537 30.91261 23.64298 45.375 33.20117 2.40304 1.55488 5.14219 2.51436 7.99023 2.79883 1.20492 2.31182 2.89758 4.33434 4.96094 5.92773 19.14613 13.30575 32.19006 25.51162 36.88086 38.12109.96946 1.90028 2.26897 3.61312 3.83789 5.0586-.94741 2.75896-1.21016 5.70682-.76563 8.58984 2.34694 15.1876 2.73944 33.54826 1.10157 52.3125-.11952 2.61269.3317 5.22005 1.32226 7.64063-1.59682 2.21511-2.66879 4.76446-3.13476 7.45507-1.82696 12.54795-4.6313 24.9776-6.90959 32.41347s-2.20652 10.40753-1.66857 13.23693c-2.41222 1.8067-4.33223 4.1901-5.58398 6.93164-5.28522 12.47029-15.70172 24.6968-22.67188 42.35351-3.872-.86838-7.92243-.43305-11.52148 1.23828-2.86541 1.37832-5.66424 2.28739-8.05469 2.6836-.25229.0422-.50365.0897-.75391.14257-14.74339 3.09566-21.92492 16.44891-21.19921 28.66602.36285 6.10856 2.94975 13.03767 8.625 18.08203 5.67524 5.04436 13.72863 7.10039 20.79492 6.56641.60303-.0453 1.20341-.12087 1.79883-.22656 7.14891-1.27276 14.07058-3.42925 20.61328-6.41993 3.71043-1.76591 6.70502-4.74811 8.48632-8.45117 3.93694.10069 7.79829-1.09242 10.99219-3.39648 21.24016-16.78735 35.58551-41.23364 45.60547-67.53516 1.22133-3.27481 1.46293-6.83433.69531-10.24414 2.28863-1.9307 4.05954-4.40177 5.15235-7.18945 4.10747-13.5693 7.12106-27.50103 9.1914-41.5586.42293-2.96782.098-5.99428-.94531-8.80468 1.66632-2.46789 2.69442-5.3106 2.99219-8.27344 2.32838-25.02863 1.56876-49.62649-2.51367-71.85352-.62386-3.25276-2.133-6.27036-4.36133-8.7207.72363-3.31168.4975-6.76038-.65235-9.94922-10.01706-26.75279-30.54322-44.65069-50.49804-58.98437-2.86619-1.89716-6.21559-2.93411-9.65235-2.98829-1.33156-3.27298-3.59689-6.08172-6.51367-8.07617-17.01908-11.41941-32.97802-21.87965-44.27341-32.54882-1.82817-1.42868-3.91529-2.49048-6.14648-3.12696-.53181-2.52664-1.60091-4.90931-3.13477-6.98633-9.43764-12.504929-9.66433-30.394046-5.02929-44.628903.62446-1.917791 2.29593-3.535324 4.08789-4.460937 1.9832-1.024395 4.43439-1.144636 6.64453-.832031 4.84906.685856 13.5 5.796875 13.5 5.796875 12.34982 7.708304 29.53114 3.861952 37.37302-8.63379 7.74137-12.609895 3.78407-29.74808-9.1094-37.409179z" fill="#994100"/><path d="m211.8029 433.81879c4.4154-.73184 8.77703-2.23076 12.91417-4.2208-.11249 6.68151 2.01547 12.63578 6.53827 16.90164-5.1568 2.35718-10.61293 4.05952-16.28653 5.06962-13.48702 1.01918-12.37557-15.81672-3.16591-17.75046zm29.24017-1.19402c4.26646-21.84049 18.20998-35.9327 26.63683-55.81559 6.74-.40903 13.04264.17351 19.3219.27196-9.26658 24.32396-22.42691 45.9747-39.94621 59.82123-2.51169-.73209-5.53084-1.9249-6.01252-4.2776zm-90.28905-376.128039c6.47487-2.50447 14.00814-2.90996 20.20647-2.33911-7.2174 22.96177-5.21484 43.57938 7.83422 60.869459-5.31118 3.31836-9.6566 8.96604-11.93229 14.16244-16.60837-20.31408-22.53674-49.953159-16.1084-72.692789zm123.38351 302.616119c3.98082-12.50695 6.98412-25.85352 8.94438-39.31705 6.10151.57552 12.42049 1.84329 17.9701 2.07735-1.95324 13.26241-4.7858 26.33301-8.60993 38.96626-4.42472-.15451-18.91034.62843-18.30455-1.72656zm-94.33818-216.34234c1.45256-6.99719 4.19599-12.90218 10.28358-15.38795 13.06092 12.33683 29.76083 23.10923 46.60338 34.41017-4.42484 3.30903-10.23187 8.14048-13.68621 12.49024-14.60451-9.65212-30.00651-19.53344-43.20075-31.51246zm-20.29907-104.808429c6.66455-9.66657 16.68172-17.19432 29.2539-19.34896 6.61187-1.12231 13.72228-.72099 21.16005 1.26245-4.7149 5.27232-7.66879 10.28394-8.13581 16.62283-6.73948-1.10525-13.67548-.0426-19.06852 3.31319-7.68753-2.09686-15.73293-2.59528-23.20962-1.84951zm125.51391 265.711139c1.74533-19.99538 1.38354-39.62134-1.24451-56.62808 3.66479-3.4564 9.08822-6.52919 16.92042-8.22911 3.72241 20.26686 4.48634 43.37039 2.2942 66.93454-6.47337-.30659-12.03231-1.42699-17.97011-2.07735zm-48.71451-120.42808c3.42396-4.63274 7.66873-8.55217 16.08093-10.71512 18.85839 13.54611 36.07497 29.12913 44.14255 50.67539-6.33545 1.51054-11.93192 3.77182-16.74496 6.66456-6.92174-18.60653-23.46485-32.71618-43.47852-46.62483zm-4.8763-153.766319c4.34044 2.56799 5.62977 8.203 3.02063 12.4534-2.691 4.28782-8.25609 5.5353-12.54835 2.85623-10.48346-6.91459 2.3122-19.62119 9.52772-15.30963z" fill="#ffa348" stroke-width="36"/><path d="m409.38477 318.79492-.004.0742c.00026-.007-.002-.0129-.002-.0195.00068-.0184.005-.0362.006-.0547z" fill="#994100"/><path d="m133.94727 240.31641a18.0018 18.0018 0 0 0 -8.90235 1.88086c-7.64628 3.82314-14.24668 7.91936-19.82422 12.73632a18.0018 18.0018 0 0 0 -.14453.125c-8.428148 7.43661-14.371092 17.33547-14.371092 27.73633a18.0018 18.0018 0 0 0 .119141 1.19922 18.0018 18.0018 0 0 0 -8.933594 8.2207c-4.064766 8.74102-4.149873 18.11363-2.046875 26.47071a18.0018 18.0018 0 0 0 -6.941406 6.42578c-3.206723 5.79669-5.152332 11.94989-5.958985 18.06836a18.0018 18.0018 0 0 0 -14.121093 9.04492c-5.600291 10.8775-5.240922 21.46191-2.332032 30.49023a18.0018 18.0018 0 0 0 -5.830078 4.88282c-4.39609 7.17187-7.044922 15.48193-7.044922 23.80664a18.0018 18.0018 0 0 0 .21875 2.80273c3.266391 20.73134 16.687744 34.77451 29.271485 43.66797a18.0018 18.0018 0 0 0 13.046875 3.08398 18.0018 18.0018 0 0 0 8.835937 9.5586c13.942219 6.59159 28.934319 11.57961 41.746089 15.11719a18.0018 18.0018 0 0 0 11.25977-.67383 18.0018 18.0018 0 0 0 9.01758 5.44336c16.77848 3.50736 34.88415 6.03116 53.93555 7.52539a18.0018 18.0018 0 0 0 9.74218-2 18.0018 18.0018 0 0 0 9.21289 3.12304c21.25493.74908 43.87661.1071 63.55274-1.68164a18.0018 18.0018 0 0 0 8.47265-3.04101 18.0018 18.0018 0 0 0 8.67383 1.16601c25.47974-3.29073 48.71891-8.64611 68.75781-15.48632a18.0018 18.0018 0 0 0 7.78711-5.31641 18.0018 18.0018 0 0 0 8.67188-1.01172c14.11669-6.02181 26.05759-12.93674 35.64258-20.86914a18.0018 18.0018 0 0 0 6.47851-15.15039c-.15488-2.16839 2.20092-9.18258-.23437-20.98438a18.0018 18.0018 0 0 0 -4.88477-8.7539c3.36853-5.75864 5.59841-12.13708 5.94922-18.68555a18.0018 18.0018 0 0 0 .002-.0332c.49494-9.56876-2.81692-19.34826-8.52929-27.52735a18.0018 18.0018 0 0 0 -3.98633-3.10156c1.873-4.27082 3.22782-8.97872 3.26953-14.44336a18.0018 18.0018 0 0 0 0-.13867c0-6.57856-2.0503-13.07913-5.13477-18.51367a18.0018 18.0018 0 0 0 -9.07226-7.33008c.15344-10.20532-4.75911-19.65074-11.49414-26.99805a18.0018 18.0018 0 0 0 -2.47461-1.57031c1.84259-5.24712 2.70946-11.81447.83398-18.33398a18.0018 18.0018 0 0 0 -13.41601-12.59961c-11.98553-2.64681-23.95714-1.85329-34.86914 1.10351a18.0018 18.0018 0 0 0 -10.60352 7.90821c2.54055-4.10972-3.20218 2.15168-15.17969 5.5625a18.0018 18.0018 0 0 0 -6.31445 3.78711 18.0018 18.0018 0 0 0 -8.13867-.36133c-14.92825 2.91893-33.31731 4.93175-52.79688 5.71093a18.0018 18.0018 0 0 0 -8.70312 2.69532 18.0018 18.0018 0 0 0 -8.66602-2.34961c-10.11973 0-20.19442-.34755-29.82812-.95508a18.0018 18.0018 0 0 0 -12.5957 4.08789c-9.61574 7.94345-17.28049 16.63189-23.1543 25.66016a18.0018 18.0018 0 0 0 -2.59771 10.45703 18.0018 18.0018 0 0 0 -6.91992 8.04492c-2.99225 7.69435-5.01064 15.38526-6.35352 23.0293a18.0018 18.0018 0 0 0 1.01172 9.46875 18.0018 18.0018 0 0 0 -3.14843 8.91015c-.49505 9.50496-.29069 18.69207.18164 27.38282a18.0018 18.0018 0 0 0 2.81054 8.38476 18.0018 18.0018 0 0 0 -1.98242 8.46289c.31006 4.40281-1.25673 8.44434-.32812 7.13477a18.0018 18.0018 0 0 0 -1.9043 6.44531 18.0018 18.0018 0 0 0 -1.88477.0293 18.0018 18.0018 0 0 0 -7.04101-4.43164c-2.41336-.79427-4.45087-1.58764-6.74414-2.37305a18.0018 18.0018 0 0 0 .57617-4.58789c-.0897-5.37999-.17967-11.30745-.26953-17.59766a18.0018 18.0018 0 0 0 -2.7793-8.64648 18.0018 18.0018 0 0 0 2.95703-8.18164c.17247-8.27825.60386-16.85648 1.51758-25.2461a18.0018 18.0018 0 0 0 -1.28125-8.76172 18.0018 18.0018 0 0 0 3.60742-6.75c.95634-5.18014 2.23469-10.42801 3.77539-15.28125a18.0018 18.0018 0 0 0 .63672-7.67382 18.0018 18.0018 0 0 0 4.29102-4.93164c2.71525-5.50594 5.76657-10.30207 9.30469-14.29883a18.0018 18.0018 0 0 0 -4.23633-27.19141 18.0018 18.0018 0 0 0 -1.48633-15.72656c-1.92159-3.11114-3.57277-5.77551-4.75195-7.92578a18.0018 18.0018 0 0 0 -14.93164-9.32617z" fill="#994100"/><path d="m133.09554 258.29661c-6.66 3.33-12.15 6.84-16.11 10.26-6.12 5.4-8.28 10.098-8.28 14.238 2.61 12.96 14.94 19.26 25.2 24.03 3.24-6.57 7.11-12.78 11.97-18.27-9.36-3.69-14.31-8.01-14.4-12.42 0-3.078 2.34-6.138 6.84-9.108-1.89-3.06-3.69-5.94-5.22-8.73zm219.51 18.828c-3.06 4.95-11.97 9.54-25.56 13.41 2.25 7.74 2.97 15.30001 3.24 22.86001 14.22-4.5 29.79-10.17 40.86-19.71001 4.86-4.95 9.63-10.89 7.74-17.46-8.64-1.908-17.91-1.368-26.28.9zm-41.49 17.19c-16.11 3.15-35.28 5.22-55.53 6.03-5.94 11.16001-6.21 15.75001-7.47 24.66001 24.03-.45 46.53-3.15001 65.88-7.47-.18-8.1-.27-15.84001-2.88-23.22001zm-104.58 5.4c-8.28 6.84001-14.67 14.13001-19.53 21.60001 13.86 2.06999 28.89 3.41999 44.73 3.78 1.35-8.64 1.98-15.12 5.76-24.39001-10.53 0-20.97-.36-30.96-.99zm-108.324005.09c-9.333 20.07001 12.024005 32.94001 25.434005 39.6 1.08-5.84999 2.52-11.78999 4.32-17.46-11.7-5.75999-22.77-12.06-29.754005-22.14zm286.344005 3.51001c-8.55 8.00999-19.8 14.31-28.8 18.18 2.61 9 3.24 18.26999.9 26.72999 10.44-4.14 18.9-8.82 24.66-13.68 7.02-5.75999 9.9-11.25 10.08-16.38.18-4.59-1.89-9.44999-6.84-14.84999zm-44.01 23.84999c-17.55 5.76-38.43 9.99-61.29 12.24-7.38 6.39-7.47 16.29-6.48 24.48 21.87-1.08 42.12-3.87 59.4-8.1 9.18-10.08 11.7-16.65 8.37-28.62zm-251.892005 6.66c-14.787 26.73 12.222005 41.22 30.852005 49.23.18-8.64.63-17.73 1.62-26.82-12.51-6.57-23.940005-12.78-32.472005-22.41zm314.082005.54c-5.67 8.91-13.32 15.12-21.6 19.98 1.89 6.66 2.07 12.96.45 18.99 10.44-6.21 23.85-17.55 23.94-29.34 0-3.15-.9-6.3-2.79-9.63zm-223.56 2.16c-2.52 6.48-4.23 12.96-5.4 19.62 4.59.99 9.36 1.89 14.31 2.79.36-7.83 2.43-14.4 6.57-20.16-5.31-.63-10.44-1.35-15.48-2.25zm35.82 4.05c-6.48 5.76-11.7 13.14-10.71 20.7 18.81 2.16 34.92 3.15 52.2 3.06-.54-8.64-.45-16.11 2.34-23.4-14.67.63-30.24.45-43.83-.36zm-146.169005 19.89c-4.68 9.09001-.945 19.98 3.861 26.46 1.206-3.6 2.601-7.92 4.473-12.87-3.645-4.23-6.498-8.73-8.334-13.59zm297.729005 1.26c-19.53 7.92-42.48 12.96-60.75 15.48-5.67 6.03-3.33 14.4-2.16 21.06 22.05-3.50999 41.67-8.73 57.69-15.12 2.52-6.83999 6.57-14.76 5.22-21.42zm42.93 10.26c-.81.9-1.62 1.71-2.52 2.52 1.26 9.45 1.53 20.16 1.26 28.8 4.23-5.04 6.3-9.99 6.57-15.03.27-5.22-1.35-10.62-5.31-16.29zm-237.6.36c-.45 8.64-.27 17.19.18 25.47 9.54 1.62 19.71 2.97 30.24 3.87-1.89-8.64-1.98-16.74 1.8-24.12-11.25-1.26-21.96-3.06-32.22-5.22zm115.02 6.84c-22.95 1.53-42.66 1.71-63.63.27-8.19 6.21-6.21 16.38-3.51 23.4 22.86.99 46.62 0 67.77-2.43-1.17-7.56-2.34-14.31-.63-21.24zm-196.641005 6.39c-1.737 5.13-3.078 9.54-4.743 13.86 11.97 8.28 22.104005 13.77 34.074005 18.72-.09-5.39999-.18-11.33999-.27-17.64-11.16-4.32-20.934005-9.26999-29.061005-14.94zm301.581005.54c-14.85 8.82-29.97 14.67-45.27 19.17-1.26 10.08-4.41 19.8-.99 28.62 14.76-3.6 29.43-8.46 42.21-15.21 4.41-10.17 4.59-23.49 4.05-32.58zm-331.839005 10.89c-2.979 4.86-4.392 9.63-4.392 14.4 2.439 15.48 10.8 23.94 21.879 31.77-.828-9.09 1.71-18.09 7.119-24.66-9.657-6.57-18.099-12.96-24.606-21.51zm268.929005 12.87c-16.2 3.69-33.84 6.48-52.65 8.01-6.66 6.75-6.93 16.56-3.87 24.84 20.43-.45 39.6-2.43 56.88-5.49-1.62-9-1.44-19.35-.36-27.36zm-156.06 4.5c.45 6.39-.09 13.86-3.6 18.81 4.59.99 9.36 1.98 14.22 2.88-.99-7.11-1.08-13.77 1.35-19.89-4.05-.54-8.1-1.17-11.97-1.8zm29.43 3.6c-5.22 5.85-3.06 14.67-1.62 20.79 19.53 2.43 36.72 3.78 54.81 4.05001-1.62-8.28-1.44-16.29001 1.08-23.76-18.09.72-37.89.26999-54.27-1.08001zm211.77 2.34c-9.99 8.28-22.32 15.03-32.4 19.17-1.98 6.3-.36 12.06 1.08 17.64 12.87-5.49 23.4-11.7 31.23-18.18-.45-6.3 1.26-12.96.09-18.63zm-314.964005 6.3c-8.343 7.56-4.968 20.34-2.43 27.63 12.564005 5.94 26.784005 10.71 38.844005 14.04-2.16-9.72-2.07-18.54 2.61-26.37-14.22-4.68-26.91-9.27-39.024005-15.3zm265.464005 18.9c-18.63 5.67001-40.23 9.72001-63.81 11.88-3.51 6.39-.45 14.49 1.53 20.25 24.39-3.14999 46.53-8.27999 65.25-14.67-1.62-6.12-3.06-11.61-2.97-17.46zm-209.61 1.08c-8.1 8.1-3.51 19.8-.27 26.19 15.93 3.33 33.3 5.76 51.66 7.2-2.52-8.19-2.7-16.74.36-24.12-18.27-2.16-35.64-5.31-51.75-9.27zm70.11 11.07c-7.11 6.21-4.41 16.56-.54 23.4 20.43.72 42.48.09 61.29-1.62-2.16-6.93-3.6-14.22-2.61-20.88-21.24.72-39.15.54-58.14-.9z" fill="#ffa348" stroke-width="36"/><path d="m181.31055 267.94336c-8.46281-.27955-15.71357 2.7396-21.46875 6.32812a18.0018 18.0018 0 0 0 -.0586.0352c-16.19823 10.18525-26.22678 26.20345-32.23632 43.2832a18.0018 18.0018 0 0 0 -.98829 7.07422c.38839 6.34368.17493 15.24536 2.08399 24.6836a18.0018 18.0018 0 0 0 -9.97656 13.61132c-1.63814 20.04306-1.04621 39.54676-.86914 54.59766a18.0018 18.0018 0 0 0 .50585 4.03125c1.82258 7.51348 5.95212 15.02737 12.89649 19.50977 6.94436 4.48239 14.89986 4.7348 20.46875 3.58398 5.56888-1.15081 9.58706-3.30526 13.01172-5.73633 1.71233-1.21553 3.248-2.46651 4.93164-4.34179 1.68363-1.87529 5.33398-2.66176 5.33398-13.29883a18.0018 18.0018 0 0 0 -.006-.44336c-.29739-12.094-1.60616-25.0152-1.52343-38.41602a18.0018 18.0018 0 0 0 -2.26758-8.7832 18.0018 18.0018 0 0 0 2.9082-6.67969c3.32985-24.06573 17.8365-51.07511 30.17383-62.73828a18.0018 18.0018 0 0 0 .041-26.12109c-6.08225-5.78557-14.49812-9.90014-22.96093-10.17969z" fill="#994100"/><path d="m169.36554 289.54461c-11.88 7.47-19.71 19.44-24.84 34.02001.81 13.22999 1.44 31.40999 11.7 40.94999 3.96-28.62 19.17-57.77999 35.64-73.35-7.38-7.02-14.85-6.39-22.5-1.62zm-32.76 74.88c-1.53 18.72-.99 37.62-.81 52.92 4.41 18.18 21.15 6.39 21.15 3.96-.27-10.98-1.62-24.39-1.53-38.97-9.18-4.77-15.03-10.08-18.81-17.91z" fill="#ffa348" stroke-width="36"/></g></svg>