<svg height="500.0004" viewBox="0 0 500 500.0004" width="500" xmlns="http://www.w3.org/2000/svg" xmlns:xlink="http://www.w3.org/1999/xlink"><filter id="a" color-interpolation-filters="sRGB" height="1.024" width="1.024" x="-.012" y="-.012"><feGaussianBlur stdDeviation="3.0199995"/></filter><filter id="b" color-interpolation-filters="sRGB" height="1.203535" width="1.09698" x="-.04849" y="-.101767"><feGaussianBlur stdDeviation="2.4577563"/></filter><filter id="c" color-interpolation-filters="sRGB" height="1.229218" width="1.111474" x="-.055737" y="-.114609"><feGaussianBlur stdDeviation="2.9589033"/></filter><g transform="translate(-500 -500)"><path d="m999.99997 750a249.99997 250 0 0 1 -249.99997 250 249.99997 250 0 0 1 -249.99997-250 249.99997 250 0 0 1 249.99997-250 249.99997 250 0 0 1 249.99997 250z" fill="#ffe24c"/><path d="m1000 750.00632-194.05817-2.60063 192.98367-20.4591-193.45987 15.31075 190.28547-38.19139-191.22567 33.10816 185.92267-55.58184-187.34707 50.61663 180.01317-72.50831-181.88127 67.68555 172.56127-88.82024-174.86477 84.18876 163.62798-104.35075-166.35478 99.94311 153.30278-119.00625-156.40808 114.88758 141.65488-132.65651-145.14668 128.82271 128.82258-145.14278-132.65648 141.65492 114.88758-156.42029-119.00218 153.31093 99.94719-166.3385-104.34669 163.60764 84.17649-174.84041-88.81609 172.54909 67.67739-181.89345-72.48799 180.02133 50.6167-187.35925-55.5941 185.94294 33.1-191.23373-38.1995 190.27732 15.3474-193.45586-20.4957 192.97968-2.59249-194.05413-2.5681 194.05413-20.4916-192.97968 15.327 193.45586-38.2004-190.27732 33.1171 191.23373-55.5936-185.94294 50.6162 187.35925-72.51029-180.02133 67.69979 181.89345-88.81699-172.54909 84.17729 174.84041-104.36289-163.60764 99.96869 166.3385-119.00618-153.31093 114.86968 156.42029-132.64018-141.65492 128.81968 145.14278-145.14988-128.82271 141.67318 132.65651-156.42638-114.88758 153.29788 119.00625-166.34218-99.94311 163.62828 104.35075-174.86477-84.18876 172.54667 88.82024-181.87387-67.68555 180.00617 72.50831-187.35587-50.61663 185.94077 55.58184-191.21897-33.10816 190.28097 38.19139-193.47947-15.31075 192.98647 20.4591-194.04384 2.60063 194.04384 2.58435-192.98647 20.46723 193.47947-15.31481-190.28097 38.20361 191.21897-33.12445-185.94077 55.58997 187.35587-50.60849-180.00617 72.5083 181.87387-67.68553-172.54667 88.81211 174.86477-84.17656-163.62828 104.33851 166.34218-99.95936-153.29788 119.0103 156.42638-114.87941-141.67318 132.66054 145.14988-128.83082-128.81968 145.13868 132.64018-141.66304-114.86968 156.42028 119.00618-153.28243-99.96869 166.32222 104.36289-163.59543-84.17729 174.84852 88.81699-172.55719-67.69979 181.8975 72.51029-180.02538-50.6162 187.35108 55.5936-185.93884-33.1171 191.21336 38.2004-190.26101-15.327 193.47618 20.4916-192.99594 2.5681 194.05003 2.59249-194.05003 20.4957 192.99594-15.3474-193.47618 38.1995 190.26101-33.1-191.21336 55.5941 185.93884-50.6167-187.35108 72.48799 180.02538-67.67739-181.8975 88.81609 172.55719-84.17649-174.84852 104.34669 163.59543-99.94719-166.32222 119.00218 153.28243-114.88758-156.42028 132.65648 141.66304-128.82258-145.13868 145.14668 128.83082-141.65488-132.66054 156.40808 114.87941-153.30278-119.0103 166.35478 99.95936-163.62798-104.33851 174.86477 84.17656-172.56127-88.81211 181.88127 67.68553-180.01317-72.5083 187.34707 50.60849-185.92267-55.58997 191.22567 33.12445-190.28547-38.20361 193.45987 15.31481-192.98367-20.46723z" fill="#fffbb3" fill-rule="evenodd"/></g><path d="m250.04297 44.560547c-30.03739-.00054-58.11917 12.714649-80.83594 33.685547l-.58398.539062-.53516.589844-17.33984 19.103516-.44727.580078c-1.49677 1.945996-3.00572 3.972396-4.50781 6.097656l-.002.002-.002.004c-21.39597 30.29585-35.71542 69.50907-40.1875 113.14648l-.0996.9668.34961 59.42188.11328.97851c4.88793 42.20576 19.01799 80.10112 39.82422 109.5625 1.50666 2.13413 3.02086 4.16285 4.52149 6.11133l.44336.57617 17.86523 19.68945.58594.53907c22.71741 20.97455 50.79997 33.6875 80.83594 33.6875 30.01997 0 58.07515-12.70288 80.77734-33.65821l.58008-.53515 17.84765-19.63282.44922-.58593c1.53378-1.99322 3.06129-4.05284 4.57031-6.19141 20.7865-29.42994 34.92616-67.28106 39.82618-109.44336l.11328-.98633.32031-59.65234-.0996-.9668c-4.48561-43.58041-18.77609-82.74827-40.15227-113.01771l-.006-.008c-1.51124-2.14224-3.04096-4.20425-4.58008-6.201169l-.44531-.578125-17.8418-19.63086-.58008-.535156c-22.7008-20.952888-50.75563-33.657483-80.7772-33.658023z" fill="#f2c80d"/><path d="m181.41685 91.471949c20.025-18.486 43.5843-28.9116 68.62545-28.91115 25.02945.00045 48.55725 10.41345 68.56875 28.88415l16.8192 18.506701c1.404 1.8216 2.7828 3.681 4.1337 5.5962 19.3122 27.3438 32.76 63.711 36.9567 104.4837l-.3092 57.6857c-4.581 39.4173-17.8632 74.5416-36.648 101.1375-1.35 1.9134-2.7297 3.7746-4.1328 5.598l-16.8212 18.504c-20.0124 18.4725-43.542 28.8855-68.5692 28.8855-25.0407 0-48.6-10.4238-68.625-28.9125l-16.8435-18.5625c-1.3842-1.7973-2.7477-3.627-4.0788-5.5125-18.801-26.622-32.0778-61.7877-36.648-101.25l-.3377-57.4616c4.1832-40.8186 17.6544-77.2272 36.9846-104.598 1.332-1.8846 2.6946-3.7143 4.077-5.5116z" fill="#fffdcc" stroke-width="36"/><g opacity=".9"><path d="m162.57227-50c.001 74.193359-.002 148.386719-.002 222.58008-.8697 6.44509-3.75229 12.45556-7.43164 17.75586-.75995 1.09228-1.702 2.35109-2.59184 3.46186-7.32399 9.05845-16.6273 16.3172-26.46388 22.46032-2.22337 1.43061-4.54392 2.69145-6.9275 3.83302-4.86784 2.42084-9.69746 4.92473-14.58922 7.29359-11.591191 4.90656-23.737913 8.65033-36.224433 10.39261-1.530692.20414-3.282936.41777-4.906641.53321-38.478385 0-76.956771 0-115.435156 0v20.81836c38.063737.005 76.128255-.0102 114.191504.008 12.083421.89859 23.912475 4.00217 35.252681 8.18108 3.647695 1.39111 7.318995 2.76004 10.760365 4.619 5.03002 2.56916 10.10333 5.05948 15.10618 7.67812 6.22804 3.67317 12.1954 7.80366 17.72638 12.46533.36311.32165 1.00854.87293 1.47982 1.28257 6.27364 5.54948 12.01344 11.88032 15.96354 19.31704.27053.52947.68918 1.34316.98736 1.99776 1.52811 3.32083 2.70038 6.8546 3.10444 10.49716-.0006 75.60846-.003 151.21693-.002 226.82539h20.84766c.007-52.0901-.0142-104.18022.0102-156.2703.0483-22.4836.0554-44.96772.12949-67.45099.23618-8.41861 3.65984-16.4475 8.33351-23.33963 7.41835-10.81361 18.02747-19.29247 29.92881-24.70994 11.18466-5.08688 23.74305-7.28944 35.97001-5.78552 15.06614 1.80477 29.38128 8.66246 40.57718 18.84935.3157.30647.91466.84232 1.33028 1.25486 6.97279 6.72969 12.79386 14.93743 15.60426 24.28913.63564 2.262 1.23733 4.57849 1.30765 6.93531-.00039 75.40924.003 150.81849.002 226.22773h20.81836c.008-57.41562-.0159-114.83127.0125-172.24686.0505-17.22492.0543-34.45051.13394-51.67502.28796-7.96516 3.79851-15.45562 8.40327-21.82642 6.28436-8.6366 14.50455-15.67784 23.25266-21.71917 3.46938-2.32658 6.95244-4.66844 10.72456-6.48242 5.07085-2.56612 10.10989-5.20044 15.20066-7.72384 11.65808-4.99433 23.89549-8.79019 36.47745-10.54502 1.62845-.22397 3.47871-.42709 5.20127-.57013 2.98557-.17906 5.98344-.0366 8.97412-.0822h106.18984c0-6.93946 0-13.87891 0-20.81836-38.53436-.006-77.06983.0122-115.60349-.009-11.9952-1.08328-23.86685-4.2965-35.16468-8.61367-3.1328-1.20446-6.2576-2.44794-9.21229-4.05006-4.96199-2.53422-9.96069-5.00194-14.89973-7.57772-1.37331-.81411-2.58579-1.56308-3.95578-2.42826-1.98186-1.26162-3.92915-2.57655-5.84762-3.93249-.54537-.40509-1.35817-.9843-2.00365-1.46063-4.24479-3.15354-8.28906-6.58392-12.01198-10.34211-.26888-.27325-.83307-.86472-1.21501-1.25979-5.82688-6.17041-10.91626-13.3425-13.28694-21.582-1.02372-3.45987-1.34279-7.08246-1.24703-10.67851-.0616-29.16378-.15371-58.32753-.12016-87.491414 0-43.628256 0-87.2565108 0-130.884766-6.93945 0-13.87891 0-20.81836 0 .001 74.828125-.003 149.65625-.002 224.48438-1.09949 8.87937-5.40403 17.07389-10.93319 23.99258-5.30544 6.60684-11.85168 12.18317-19.0922 16.56796-.55738.33389-1.39597.83412-2.07479 1.208-3.26274 1.83614-6.66378 3.42507-10.16349 4.75489-.39851.1454-1.14117.42476-1.68024.60911-11.28742 3.99506-23.64565 5.04061-35.40162 2.66394-15.46412-3.08821-29.79589-11.418-40.29252-23.16477-6.18065-6.99502-11.14064-15.36926-12.87172-24.63171-.84389-4.38859-.47848-8.87374-.56882-13.3121-.0593-36.68905-.14198-73.378082-.11477-110.067202 0-34.368359 0-68.736719 0-103.105078-6.94857 0-13.89714 0-20.8457 0v2z" fill="#fffdcc" filter="url(#a)"/><path d="m318.60945 324.93845v78.0183l.002 21.7699v125.27335h16.8192v-139.98385l.0004-25.5634.126-55.521c.126-19.143 17.8308-37.719 40.6548-51.2145l17.7467-9.056c14.8032-6.4287 30.339-10.5984 43.875-11.5317h112.16645v-16.8192h-113.60015c-13.1238-1.1133-28.0017-5.1867-42.2154-11.3337l-17.6634-8.9451c-22.9815-13.509-40.8384-32.1777-40.9644-51.4116l-.128-58.6683.003-25.567201v-134.38445h-16.8192v119.67575l-.0009 21.7692v81.169201c-2.97 25.5033-33.606 52.9533-68.598 52.9308-36.5904 0-68.3424-30.4677-68.4693-56.925l-.1269-77.148001.0009-21.7674v-119.70545l-16.8462.0009v134.46995l-.0009 25.565401v62.6904c-2.3373 17.82-19.4985 34.8606-41.0634 47.4174l-17.6337 8.8614c-14.2587 6.1263-29.1312 10.1943-42.2442 11.3067h-113.62985v16.8183h112.16825c13.527.9288 29.0718 5.094 43.9308 11.502l17.7482 8.9732c21.4092 12.5397 38.4048 29.4885 40.725 47.223v59.5395l-.002 25.5643v140.06935h16.848v-125.30305l-.003-21.7681.126-73.998c.126-26.4564 31.878-56.9304 68.4702-56.95245 34.992-.00045 65.6262 27.45585 68.598 52.95915z" fill="#f2c80d"/></g><g id="d" transform="translate(-427 -108)"><path d="m248.24023 117.5957c-10.72591.28634-21.18307 3.58951-30.66913 8.47962-10.65979 5.47497-20.26084 12.7598-29.35626 20.50866 9.69256 8.30954 19.75496 16.42017 31.25624 22.10954 8.06891 3.99929 16.93647 6.48536 25.95861 6.79451 11.61243.44738 23.16778-2.54983 33.56873-7.60302 11.30335-5.45782 21.40073-13.07153 30.86226-21.25026-.21924-.40175-.91958-.80238-1.32369-1.2037-9.50326-8.01091-19.46728-15.67624-30.69254-21.13346-8.42111-4.10292-17.68623-6.65166-27.08846-6.71774-.83867-.0256-1.67708.007-2.51576.0159z" fill="#ffe24c" filter="url(#b)"/><path d="m249.48633 115.57422c-12.04417.058-23.81542 3.85503-34.35157 9.52504-10.89946 5.8076-20.67099 13.46365-30.01367 21.48277 9.4586 8.11012 19.1167 16.15631 30.09777 22.15076 9.48277 5.26818 20.16469 8.57617 31.05382 8.78133 12.71909.30133 25.29218-3.36624 36.47209-9.28177 10.85799-5.66447 20.57453-13.23743 29.78453-21.24993-.71311-1.04178-1.36345-2.16271-2.45236-2.86255-10.33958-8.74049-21.24257-17.08699-33.65043-22.68491-8.44423-3.78826-17.65999-5.97757-26.94018-5.86074z" fill="#f2c80d" filter="url(#c)"/><path d="m191.31833 146.59628c21.7287-18.3843 40.23979-27.01846 58.68168-27.02765 18.44189.009 35.08469 8.64296 56.81339 27.02726-21.1932 18.1656-39.8955 26.8497-59.1204 26.94619-19.2249-.0961-35.18147-8.7802-56.37467-26.9458z" fill="#fffdcc"/><path d="m232.9828 145.95059c0 8.5914 6.9606 15.552 15.5538 15.552 8.5923 0 15.552-6.9606 15.552-15.552 0-8.5932-6.9597-15.5817-15.55155-15.5817-8.59455 0-15.55425 6.9894-15.55425 15.5817z" fill="#f2c80d"/></g><use transform="matrix(-1 0 0 1 150.60547 210.12956)" xlink:href="#d"/><use transform="translate(349.15907 210.128)" xlink:href="#d"/></svg>