<svg height="500" viewBox="0 0 500 500" width="500" xmlns="http://www.w3.org/2000/svg" xmlns:xlink="http://www.w3.org/1999/xlink"><filter id="a" color-interpolation-filters="sRGB" height="1.006031" width="1.005969" x="-.002985" y="-.003016"><feGaussianBlur stdDeviation=".52612317"/></filter><g transform="translate(.000015)"><circle cx="-249.99998" cy="250" fill="#e51a1a" r="250" transform="scale(-1 1)"/><path d="m181.33938 83.856939c97.52275-31.84694 203.27597 26.159281 217.12696 131.568651 10.04116 85.89723-45.79566 162.6049-131.11288 174.6444-76.26503 6.65-147.16573-45.4981-149.44603-126.3231.16679-50.89801 30.03241-87.97493 76.60677-108.40662 44.00125-16.48183 90.46555-3.00917 112.28155 39.63622 17.95322 40.0953 3.57775 87.31302-40.4313 103.80676-21.98685 8.23292-51.6578-5.55285-56.72562-31.5612 24.48155 21.7253 69.7211 11.74379 80.1808-21.06198 5.24648-24.88185-11.48198-41.52298-24.36368-55.64156-23.21161-15.22125-63.26956-13.16738-85.32502 12.05139-41.51846 46.43224-18.48961 112.52397 35.72777 131.08081 60.66482 17.11352 118.96473-29.63961 126.96137-92.39988 2.7637-54.83226-40.99398-106.19486-96.51046-114.27807-76.21988-10.3001-138.45939 50.84936-147.743191 124.09106-9.31956 73.21828 47.315731 138.67973 111.863041 158.33924 49.05305 9.49897 98.18701 2.07129 139.64056-27.40671 82.90715-58.95602 100.11901-177.97214 43.55644-260.39974-52.71171-79.885311-158.575-103.987181-249.15842-67.061741-86.705021 39.45169-149.0660905 134.549061-117.102931 229.167621 15.77888-74.65377 50.93986-153.5943 123.407351-187.514491 9.28724-4.60517 19.44718-8.7232 30.56692-12.33106zm-160.722321 286.075591c-52.57825-113.8254-.38403-260.89182 113.777041-317.643861 10.84604-5.32012 22.21219-9.7712 34.03518-13.36069 115.76394-28.75816 246.03978 34.00351 263.68455 158.897471 10.04526 85.91695-27.72044 168.80365-107.97396 206.83173-102.24035 46.26108-224.798841-11.43986-234.690511-131.24969-7.33455-123.78718 127.307171-194.136761 222.718561-137.24102-42.54074-27.89653-94.21826-33.44528-140.80825-12.98978-71.17376 32.62266-105.080851 118.0397-80.762351 190.63139 30.697281 88.13423 123.572931 132.04164 212.817841 105.59803 82.80488-25.06359 132.16266-100.33164 140.19255-180.04986 12.12434-145.020371-132.23823-245.3588802-265.59709-221.973611 7.92036-4.10499 20.5989-8.4277792 35.61563-11.7452592 60.06317-13.23825 124.63426-3.45807 179.45368 32.4903392 109.65077 71.904621 141.09454 217.803071 65.16008 333.599141-143.00482 218.07486-377.311781 117.06797-437.622951-1.79433" fill="#b21a1a"/></g><path d="m250 0a250 249.99998 0 0 0 -46.7832 4.9824219l-12.36328 31.3515621-48.68555 70.398436 34.25781 14.87696 1.6875.73242 1.20899 1.34961 55.9414 62.29492 22.97852 23.37109 7.19922-22.97656-.08594-.0293 27.53711-91.234372-17.66406-58.783204-21.06836-36.2324215a250 249.99998 0 0 0 -4.16016-.1015625zm33.42383 1.0429688 9.38281 35.2910152 15.66406 52.257813 94.81055-19.351563-5.57227-27.861328c-1.55565-1.072597-3.04016-2.210117-4.6289-3.251953-33.94247-22.258129-71.6238-34.1964732-109.65625-37.0839842zm-119.32617 14.8535152a250 249.99998 0 0 0 -88.859379 56.212891l11.242188 10.408203 4.443359 1.939453 35.494142 15.439453 43.96094-63.5625zm253.85742 40.9375 3.4668 17.328125 1.63281 8.212891-8.21289 1.658203-107.66407 21.966797-14.82226 49.16211 42.94726 50.45703 128.36329-86.34375v-9.38086c-12.29308-19.526333-27.54306-37.467396-45.71094-53.060546zm-354.625002 27.183594a250 249.99998 0 0 0 -59.8730468 126.212892h32.8789068l62.126953-23.42774-17.94336-87.158199-.140625.167969zm35.753906 22.320312 16.621096 80.66211 46.09765 17.38086 32.06055-39.28906-25.84766-28.80078zm364.582036 33.1875-140.57032 94.61328-12.3457 9.47656 152.91602 95.25977 23.46093-11.17578a250 249.99998 0 0 0 12.87305-77.69922 250 249.99998 0 0 0 -.28125-11.47266c.47533-34.0067-6.34658-67.41678-19.81055-98.10937zm-356.87891 62.09961-70.451172 26.57812-35.82617238 14.65821a250 249.99998 0 0 0 -.50976562 7.13867 250 249.99998 0 0 0 .71289062 9.97852c-2.25798542 37.40926 3.86159338 75.22266 19.90429738 109.95312.77311 1.52366 1.724936 3.02402 2.554687 4.54102l13.164063 3.97461 163.349612-93.48633 42.41015-30.00977-34.05859-15.27148-.02539.08398-51.72461-19.49023-3.62695-1.04102-2.05274-1.09765-43.82031-16.50782zm218.58789 70.9043-4.86523 5.20117-40.05079 42.86328-4.35937 51.58203 61.93164 83.30469 101.13477-43.55859a250 249.99998 0 0 0 33.82617-50.05665l-9.32617-3.16211zm-136.23828 37.88281-59.0332 33.7793 91.0664 119.47461 20.92578 17.57421 81.0586-17.57421-62.4375-84.03711-1.88672-2.53321.25195-3.17578 3.63086-42.94922-73.57617-20.55664zm-73.76953 42.18555-.00196.00195-77.664058 44.44141c33.689424 44.92176 91.056678 83.40018 156.080078 97.25586l6.24023-30.63086zm290.69726 91.89062-44.52148 19.17774-95.51953 35.1875c.11865-.01062.23679-.01446.35547-.0254a250 249.99998 0 0 0 139.68554-54.33984z" fill="#ff8066" opacity=".75"/><g opacity=".9"><path d="m260.89648 83.855469c-18.50616-.183198-37.47626 4.458872-55.08203 14.65039l-2.90429 1.681641-15.62696 7.79297 8.04297 16.11328c22.30747 44.67949 33.04721 95.63314 33.51367 148.76953-14.2598-9.00626-30.54853-15.38075-47.72851-17.85937-21.96241-3.16664-42.32805.63055-57.1543 12.54492-14.82624 11.91437-21.6589 32.69649-17.00391 52.77344 9.31116 40.15267 49.67348 69.98786 93.59571 76.32226 17.97335 2.59221 34.70917.50658 48.49609-6.85351 9.07443-4.84436 16.63632-12.40844 22.84766-21.51563l3.78711-15.16406c6.4632-40.51544 7.90498-81.27404 3.91406-121 10.8518 6.01138 20.86145 16.73776 27.94141 31.55078 11.50531 24.072 14.30738 57.27754-.81836 91.58008l-15.22657 37.63672c27.33454-3.89244 47.48868-18.20451 61.04297-38.41407 8.75187-3.85255 17.75466-9.7133 27.26172-19.60742 39.23409-51.57678 34.6481-115.39177 8.32031-164.23828-26.32777-48.84651-74.12123-86.232301-127.21679-86.763671z" fill="#861313"/><path d="m260.71851 101.85475c-15.4557-.153-31.0176 3.6225-45.8856 12.2292l.117.2133-3.519 1.755c29.2356 58.5558 39.78 126.486 34.1604 195.8085-14.787-19.4913-40.5378-35.217-67.0482-39.042-36.639-5.283-60.84 14.1642-54.054 43.4385 6.7878 29.2743 41.9904 57.2886 78.6285 62.5725 29.9844 4.3245 51.624-7.92 54.783-28.5534h.004c7.632-47.8422 8.109-95.8932.513-141.7275 53.541-1.0215 99.1557 75.9717 64.7685 153.9558 72.6597-70.7337 6.084-203.94-73.152-192.1572-1.6848-6.111-3.528-12.1644-5.5296-18.1584 68.7213-20.1033 148.725 66.5964 120.9645 171.7704 69.1326-90.8811-16.0794-221.2173-104.7501-222.1047z" fill="#ff8066" stroke-width="36"/></g><path d="m224.00751 40.643951c-54.6714-.27-108.9144 23.6538-145.541699 69.796799-63.358198 79.812-50.018398 195.8706 29.792699 259.2288 5.7663 4.581 12.1338 8.9316 18.2484 12.717-65.086199-65.4336-72.595799-170.7336-13.8132-244.7748 58.779-74.047499 163.0323-90.625499 241.524-42.080399-5.067-5.094-10.7568-10.3086-16.5222-14.886-33.6708-26.73-73.7937-39.807-113.688-40.0032zm144.558 74.048399c67.0842 63.3798 77.8572 168.3954 21.4002 244.2267-56.4516 75.834-160.1433 95.6403-240.102 49.5558 5.2236 4.932 11.07 9.9684 16.9758 14.364 81.7407 60.849 197.3322 43.9182 258.1803-37.8252 60.8508-81.7407 43.9182-197.3304-37.8225-258.1812-5.904-4.3983-12.4047-8.5482-18.6327-12.141z" fill="#861313" filter="url(#a)" opacity=".5"/></svg>