<svg height="500" viewBox="0 0 500 500" width="500" xmlns="http://www.w3.org/2000/svg"><g transform="translate(0 -1000)"><path d="m0 1250a250 250 0 0 1 -250 250 250 250 0 0 1 -250-250 250 250 0 0 1 250-250 250 250 0 0 1 250 250z" fill="#9db3df" stroke-linecap="round" stroke-linejoin="round" stroke-width="9.39799" transform="scale(-1 1)"/><path d="m263.85417 1289.4759c11.1612 3.7204 14.8816-7.4408 18.46913-11.0283 7.04219-8.7696 15.28021-26.0428 14.48299-54.6102-10.49685-61.1209-92.21278-68.5617-125.69638-20.1965-11.1612 18.602-11.1612 33.4836-14.8816 52.0856 0 29.7632 14.8816 52.0856 40.9244 70.6876 11.1612 11.1612 26.0428 11.1612 37.204 14.8816 70.6876 11.1612 130.214-48.3652 119.0528-119.0528-7.4408-29.7632-22.3224-59.5264-48.3652-78.1284-44.6448-29.7632-96.7304-29.7632-137.6548-3.7204-18.602 11.1612-29.7632 22.3224-40.9244 40.9244-63.2468 100.4508 26.0428 219.3708 133.9344 208.2096 22.3224 0 40.9244-11.1612 63.2468-18.602 22.3224-14.8816 44.6448-37.204 59.5264-59.5264 40.92441-78.1284 7.4408-171.0056-66.9672-215.6504-26.0428-11.1612-52.0856-22.3224-81.8488-22.3224-37.204 0-70.6876 11.1612-100.4508 33.4836-33.4836 26.0428-52.0856 59.5264-66.9672 96.7304-7.4408 14.8816-3.7204 33.4836-7.4408 52.0856 0 119.0528 126.4936 215.6504 241.69313 174.726 29.7632-14.8816 63.2468-26.0428 89.2896-52.0856 22.3224-29.7632 44.6448-59.5264 52.0856-96.7304 3.7204-26.0428 7.4408-44.6448 3.7204-70.6876-18.602-152.5364-189.60753-234.25236-319.82153-156.2568-22.3224 14.8816-44.6448 29.7632-59.5264 52.0856-29.7632 37.204-44.6448 74.408-52.0856 119.0528-18.602 137.6548 96.7304 260.2951 230.53193 260.2951 29.7632 0 63.2468-11.1612 93.01-18.602 37.204-14.8816 70.6876-33.4836 96.7304-66.9672 18.602-26.0428 29.7632-52.0856 44.6448-81.8488 11.1612-33.4836 18.602-70.6876 14.8816-104.1712-7.4408-44.6448-18.602-85.5692-44.6448-119.0528 96.59753 111.7449 44.51193 297.7649-81.8488 364.7321-22.3224 14.8816-48.3652 18.602-70.6876 26.0428-89.2896 22.3224-178.44633-14.8816-234.25233-78.1284-14.8816-14.8816-18.602-33.4836-29.7632-52.0856-48.3652-70.6876-33.4836-152.5364 3.7204-226.8116 52.0856-89.2896 159.9772-130.21396 264.01553-100.4508 63.2468 18.602 115.3324 63.2468 141.3752 126.4936 7.4408 29.7632 14.8816 59.5264 14.8816 89.2896 0 37.204-11.1612 70.6876-29.7632 104.1712-14.8816 22.3224-26.0428 40.9244-48.3652 55.806-18.602 11.1612-33.4836 18.602-52.0856 29.7632-33.4836 11.1612-70.6876 18.602-111.612 14.8816-122.7732-18.602-200.76873-148.816-156.2568-267.7359 14.8816-29.7632 29.7632-59.5264 55.806-78.1284 55.806-40.9244 119.0528-52.0856 185.88713-29.7632 100.4508 40.9244 148.816 156.2568 89.2896 245.4135-11.1612 18.602-18.602 33.4836-33.4836 48.3652-55.806 40.9244-130.214 55.806-189.60753 18.602-14.8816-14.8816-33.4836-18.602-44.6448-37.204-44.6448-66.9672-44.6448-156.2568 18.602-211.9299 63.2468-55.806 174.72593-40.9244 215.65033 37.204 7.4408 22.3224 18.602 40.9244 14.8816 66.9672 0 22.3224-11.1612 40.9244-14.8816 59.5264-26.0428 55.806-96.7304 74.408-152.5364 55.806-18.602-11.1612-40.9244-18.602-52.0856-37.204-48.3652-70.6876-7.4408-178.4463 85.5692-174.7259 22.3224 0 44.6448 14.8816 63.2468 26.0428 29.7632 22.3224 33.4836 55.806 29.7632 89.2896-11.1612 48.3652-63.2468 70.6876-111.612 59.5264-22.3224-7.4408-37.204-29.7632-44.6448-52.0856-3.7204-26.0428 3.7204-48.3652 22.3224-66.9672 33.4836-33.4836 89.2896-7.4408 96.7304 37.204-3.7204 18.602-14.8816 37.204-29.7632 52.0856" fill="#c6d2ec" opacity=".9"/><path d="m262.92407 1285.7555c10.2311 3.4546 13.68576-6.7765 17.00754-10.0982 6.37783-7.8395 13.9515-23.6512 13.15428-49.9597-9.56675-56.2046-84.77198-62.9811-115.59815-18.602-10.2311 17.1404-10.2311 30.6933-13.68576 47.8337 0 27.3715 13.68576 47.8337 37.60262 64.9741 10.2311 10.2311 23.91686 10.2311 34.14796 13.6858 64.97413 10.2311 119.58428-44.3791 109.35318-109.3532-6.77644-27.3715-20.4622-54.743-44.37905-71.7506-41.05728-27.3715-88.89099-27.3715-126.49361-3.4546-17.14041 10.2311-27.37151 20.4622-37.60261 37.6026-58.06482 92.3456 23.91686 201.6988 123.03894 191.3349 20.4622 0 37.60262-10.2311 58.06482-17.1405 20.4622-13.6857 41.05727-34.1479 54.74303-54.743 37.60261-71.7506 6.77644-157.1869-61.51947-198.2442-23.91686-10.2311-47.83372-20.4622-75.20523-20.4622-34.14796 0-64.97413 10.2311-92.21278 30.8262-30.6933 23.9169-47.83371 54.743-61.51947 88.891-6.77644 13.6858-3.45466 30.6933-6.77644 47.8337 0 109.3532 116.2625 198.2442 222.16103 160.6416 27.37151-13.6858 58.06481-23.9169 81.98167-47.8337 20.4622-27.3716 41.05727-54.7431 47.83372-88.891 3.45465-23.9169 6.77644-41.0573 3.45465-64.9742-17.14041-140.0464-174.32731-215.25168-293.9116-143.5011-20.4622 13.6858-41.05727 27.3715-54.74303 47.8337-27.37151 34.148-41.05727 68.2959-47.83371 109.3532-17.14042 126.4936 88.89098 239.3014 211.92993 239.3014 27.37151 0 58.06481-10.2311 85.43633-17.1404 34.14795-13.6857 64.97413-30.8261 88.89098-61.5194 17.14042-23.9169 27.37152-47.8338 41.05728-75.2053 10.2311-30.6933 17.14041-64.9741 13.68575-95.6674-6.77644-41.0573-17.14041-78.6599-41.05727-109.3532 88.89099 102.5768 41.05727 273.4494-75.20523 334.9689-20.4622 13.6857-44.37906 17.1404-64.97413 23.9168-81.98167 20.4622-164.09621-13.6857-215.25171-71.7505-13.68576-13.6858-17.14042-30.6933-27.37152-47.8337-44.37906-64.9742-30.6933-140.1794 3.45466-208.4753 47.83371-81.9817 146.9558-119.5843 242.62323-92.2128 58.06481 17.1404 105.89853 58.0648 129.81539 116.2625 6.77644 27.3715 13.68575 54.743 13.68575 81.9817 0 34.1479-10.2311 64.9741-27.37151 95.6674-13.68576 20.4622-23.91686 37.6026-44.37906 51.2884-17.14041 10.2311-30.6933 17.1404-47.83371 27.3715-30.82617 10.2311-64.97413 17.1404-102.57675 13.6858-112.80784-17.1405-184.55841-136.7247-143.50114-246.0779 13.68576-27.3715 27.37151-54.7431 51.28837-71.7506 51.28837-37.6026 109.35319-47.8337 170.87266-27.3715 92.21277 37.6026 136.7247 143.5011 81.98167 225.6157-10.2311 17.1404-17.14041 30.6933-30.82617 44.379-51.28837 37.6026-119.58429 51.2884-174.32732 17.1404-13.68575-13.6857-30.82617-17.1404-41.05727-34.1479-41.05727-61.5195-41.05727-143.5012 17.14042-194.7895 58.19768-51.5541 160.77443-37.8684 198.37704 33.8822 6.77644 20.4622 17.14042 37.6026 13.68576 61.5195 0 20.4622-10.2311 37.6026-13.68576 54.743-23.91686 51.2884-88.89099 68.2959-140.17936 51.2884-17.14041-10.2311-37.60261-17.1405-47.83371-34.148-44.37906-64.9741-6.77644-164.0962 78.65988-160.6416 20.4622 0 41.05728 13.6858 58.06482 23.9169 27.37151 20.4622 30.6933 51.2884 27.37151 81.9817-10.2311 44.379-58.06481 64.9741-102.57674 54.743-20.4622-6.7764-34.14796-27.3715-41.05727-47.8337-3.45466-23.9169 3.45466-44.3791 20.4622-61.5195 30.6933-30.8262 81.98167-6.7764 88.89099 34.148-3.45466 17.1404-13.68576 34.1479-27.37152 47.8337" fill="#ecf0f9" opacity=".9"/><path d="m226.91591 1287.6157c5.31486 10.4968 15.8117 5.3148 20.86082 5.3148 10.62971-1.0629 28.56735-7.4408 48.23233-28.3016 35.87528-50.624-16.7418-113.7379-74.54088-103.2411-20.99368 5.3149-31.49052 15.8117-47.30222 26.3086-20.99369 20.9937-26.30855 47.3022-20.99369 78.9256 0 15.8117 10.49684 26.3085 15.8117 36.8054 42.12024 57.7991 126.22786 57.7991 168.3481 0 15.8117-26.3086 26.30854-57.7991 20.99369-89.4225-10.49685-52.6171-47.30223-89.4225-94.60446-99.9193-20.99369-5.3149-36.80539-5.3149-57.79907 0-115.73102 26.3085-136.7247 173.5301-52.61709 241.9589 15.8117 15.8117 36.80539 20.9937 57.79907 31.4905 26.30855 5.3149 57.79907 5.3149 84.10762 0 84.10761-26.3085 126.22786-115.731 105.23417-199.8386-10.49684-26.3086-20.99369-52.6171-42.12024-73.6108-26.30855-26.3085-57.79907-42.1202-94.60446-47.3022-42.12024-5.3149-78.92563 5.3148-115.73102 20.9937-15.8117 5.3148-26.30854 20.9936-42.12024 31.4905-84.10761 84.1076-63.11393 241.9589 47.30223 294.5759 31.49053 10.4969 63.11393 26.3086 99.91931 26.3086 36.80539-5.3149 73.61078-10.4969 105.23418-31.6234 20.99368-15.8117 36.80538-26.3086 52.61708-47.3022 94.60446-120.913 31.49053-299.758-115.73101-336.5634-26.30855-5.3148-52.61709-10.4968-78.92563-5.3148-47.30223 5.3148-84.10762 20.9937-120.913 47.3022-110.41616 84.1076-115.73102 252.4557-20.99369 347.0602 20.99369 20.9937 52.61709 36.8054 78.92563 52.6171 36.80539 15.8117 73.61077 26.3085 115.73102 20.9936 31.49053-5.3148 57.79907-15.8117 89.42247-26.3085 31.49053-15.8117 63.11393-36.8054 84.10761-63.1139 26.30855-36.8054 47.30223-73.6108 52.61709-115.731-10.76259 147.4872-179.11069 242.2246-315.83539 200.1043-26.30854-5.3148-47.30223-20.9937-68.42879-31.4905-78.92562-47.3022-115.73101-136.7247-110.41615-220.8323 0-20.9937 10.49684-36.8054 15.8117-57.7991 15.8117-84.1076 84.10761-131.5427 163.03324-157.7184 99.91932-26.30852 205.15349 20.9937 257.77058 115.731 31.49052 57.7991 36.80538 126.2279 10.49684 189.3418-15.8117 26.3086-31.49053 52.6171-52.61709 73.6108-26.30854 26.3085-57.79907 42.1202-94.60446 52.6171-26.30854 5.3148-47.30223 10.4968-73.61077 5.3148-20.99368-5.3148-36.80538-10.4968-57.79907-15.8117-31.49053-15.8117-63.11393-36.8053-89.42247-68.4287-73.61078-99.9194-36.80539-247.1409 78.92563-299.758 31.49053-10.4968 63.11393-20.9937 94.60445-15.8117 68.42879 10.4969 120.91301 47.3022 152.53641 110.4162 42.12024 99.9193-5.31486 215.6503-110.41616 236.644-20.99369 5.3148-36.80539 10.4968-57.79907 10.4968-68.42879-10.4968-131.54272-52.6171-147.22155-120.913 0-20.9937-10.49684-36.8054-5.31486-57.799 15.8117-78.9257 78.92563-142.0396 163.03325-136.7247 84.10761 5.3148 152.5364 94.6044 126.22786 178.8449-10.49685 20.9937-15.8117 42.1202-36.80539 57.7991-15.8117 15.8117-36.80538 20.9937-52.61708 31.4905-57.79908 20.9937-120.91301-15.8117-147.22155-68.4288-5.31486-20.9937-15.8117-42.1202-10.49684-63.1139 15.8117-84.1076 120.913-131.5427 184.02693-63.1139 15.67883 15.6788 20.86081 41.9873 26.17567 62.981 5.31486 36.8054-15.8117 63.1139-42.12024 84.1076-42.12025 26.3086-94.60446 5.3149-120.913-36.8054-10.49685-20.9936-5.31486-47.3022 5.31485-68.4287 15.8117-20.9937 36.80539-31.4906 63.11393-31.4906 23.98451 0 41.23931 14.86 48.993 34.3086 7.53814 18.9078 6.09609 42.1526-6.87275 60.2959-15.81171 10.4968-36.80539 15.8117-57.79908 15.8117" fill="#fff" opacity=".9"/></g><path d="m250 0c-61.41769.08962066-120.65349 22.784568-166.408203 63.755859-26.182392 20.71228-46.997237 46.570561-59.072266 78.861331-1.262648 2.64857-2.326759 5.37805-3.49414 8.0664.980103 5.08876 2.091707 10.14712 3.519531 15.13086 13.887931 48.47511 33.029898 99.66874 67.068359 135.59766 29.839789 31.49767 72.162639 53.13997 131.964839 57.89648 1.15397 9.61307 1.8585 19.03838 2.5625 28.28711-17.47582-3.85589-36.61818-8.36431-58.7246-14.25781-15.13579-4.76251-30.01013 1.75122-38.49219 11.41016l-.04492.04883-.04297.05078c-5.84068 6.75099-9.72808 14.63391-12.87305 23.30273-10.01664-.73039-20.069588 4.89087-27.246093 9.30664-14.298224 8.89388-27.700609 22.02906-28.347656 41.74024l-.115235 3.54101 13.853516 37.26172h312.632808c-4.53645-6.27507-8.66841-13.13467-9.95507-18.80859-1.28099-5.64895 2.60546-17.17969 2.60546-17.17969-.85893-3.96907-3.81135-19.10503-4.73046-22.41211-3.14645-13.31256-12.07224-25.54936-25.48243-30.56641-1.90498-.7004-3.97955-1.1819-5.95117-1.74414l-5.33984-10.66015c-7.8488-15.67139-14.13006-31.01527-19.22852-46.06836 38.07175-9.4623 67.44175-27.62416 89.72852-51.14844 34.03833-35.9288 52.27386-87.0475 66.98242-135.11719 1.54557-5.05111 2.8583-10.17659 4.06055-15.33203l1.07812-7.91797c-7.71346-16.84003-17.78598-32.85288-30.5-47.560545 12.59107 16.188485 21.65164 34.147955 28.54688 53.394535-40.01627-90.477357-129.62314-148.84664235-228.55469-148.87891z" fill="#7896d3"/><path d="m250 0c-15.07348.02208829-30.01267 1.4222886-44.65625 4.1035156-2.34725 16.2952574-5.54492 51.6821654-5.54492 58.2988284h-16.20117c0-6.176986 2.26-36.14897 4.23046-54.3886721-38.41257 9.9280771-74.23189 28.8745831-104.236323 55.7421871-18.833165 14.898478-34.821972 32.512504-46.845703 53.214841l.048828 1.81055c2.325382 22.26351 5.304687 43.23633 5.304687 43.23633 14.223572 49.5449 31.904533 94.63443 62.580081 127.01367 26.98734 28.48674 64.01884 47.85449 119.86914 52.29687-1.3185-19.45076-2.50533-39.88811-3.39453-61.81835-7.452 1.70998-16.28706 3.9492-27.49024 6.75l-3.93164-15.71485c12.41638-3.105 22.33079-5.53498 30.83399-7.30078-.5085-15.87596-.86104-32.49145-.96094-50.19531-22.19216-1.9098-46.46808-5.73886-77.4082-11.34766v4.70117h-16.19922v-28.80078h16.19922v5.22852c35.28442-4.3983 59.52401-7.30813 80.19335-8.70313 2.9376-8.89648 8.13112-16.58111 15.3086-22.28711 10.19698-8.10898 23.90719-12.10539 39.66797-11.58789 2.25.0738 4.54595.2408 6.87695.5l6.64453.73828.53516 6.66211c.7218 8.98918 1.2298 18.1149 1.6582 27.36328 17.06756 1.6137 37.14611 4.05301 63.31445 7.31641v-5.23047h16.20118v28.80078h-16.20118v-4.56054c-23.87964 4.61068-43.77489 7.90641-61.81445 9.97461.7848 18.22316 1.8409 36.93832 4 56.17578 3.2328.7938 6.64705 1.64373 10.28125 2.55273l-3.93164 15.71485c-1.5615-.3897-2.63713-.65641-4.11133-1.02539 2.439 16.49156 5.82934 33.35522 10.71094 50.61718 36.47152-8.50048 63.0909-24.97285 83.78906-46.82031 30.67554-32.37924 48.3574-77.46877 62.58008-127.01367 0 0 3.76546-18.67177 6.88086-39.52735-34.40042-57.992165-90.56575-99.262075-155.26758-115.1542925 2.2983 17.8077565 5.30888 48.3107755 5.48047 54.8535155l-16.19336.425781c-.19312-7.350936-4.34425-43.427875-6.84766-58.9238278-13.7242-2.3404151-27.72326-3.68676032-41.95312-3.6914062zm-62.0293 80.298828.00196.001953c3.53968-.036 6.87631.612015 9.84179 1.882813 6.7788 2.904294 11.31055 7.791025 15.81055 12.291015 8.99998 9.000881 16.77387 17.427731 35.67383 17.427731s26.67189-8.42775 35.67187-17.427731c4.5-4.49999 9.03372-9.385821 15.8125-12.291015 6.7788-2.906994 15.48774-2.553908 24.13672 1.771484l-.0039.007813c5.29918 2.423694 9.05078 7.784635 9.05078 13.919921 0 8.353788-6.947 15.298828-15.30078 15.298828-7.8237 0-14.40845-6.09278-15.21485-13.726562-2.0214 1.600192-4.35509 3.801302-7.02539 6.470702-9.00048 9.00178-22.82701 22.17578-47.12695 22.17578-24.29996 0-38.12697-13.17383-47.12695-22.17383-2.6712-2.67028-5.00505-4.87141-7.02735-6.470699-.8055 7.633789-7.39206 13.724609-15.21484 13.724609-8.35378 0-15.30078-6.94414-15.30078-15.298828 0-6.133486 3.75248-11.496227 9.05078-13.919921l-.00586-.007813c4.32448-2.162696 8.6648-3.332311 12.77148-3.599609.513-.0324 1.02049-.051241 1.52539-.056641zm262.03711 15.185547c5.72925 7.366155 10.64512 15.143355 15.04102 23.197265l.20898-3.02539c-4.61058-6.94003-9.64971-13.69342-15.25-20.171875zm-180.0664 61.089845c-1.90811.13545-3.77942.39745-5.53125.71875h-.00196c.243 19.97096-.1719 35.51815 2.3418 44.01953 1.395 4.7223 3.01347 6.98512 6.07617 8.76172 1.3203.7668 3.11516 1.43001 5.41016 1.91601-.828-19.27076-1.35047-37.77029-2.54297-55.37695-1.899-.1845-3.84385-.17447-5.75195-.03906zm-21.75391 7.63672c-.13435.10292-.27571.20296-.4082.30859-7.65 6.0831-11.98047 15.10296-11.98047 27.48242v.04102c-.4194 83.09684 4.46314 143.97425 8.82812 201.43555 18.01438 3.67828 33.22014 6.33521 46.07032 8.41601 12.38396 2.0043 22.48452 3.43052 31.0957 4.79492-32.30544-64.50286-39.77941-124.25154-42.75391-178.11914-5.44048-.6534-10.1967-2.07703-14.3457-4.48633-6.96598-4.04368-11.31597-10.8537-13.48047-18.17968-3.43335-11.614-3.08661-25.326-3.02539-41.69336zm-91.61914 225.58008c-5.67589.14461-10.76237 3.01146-14.11914 6.83398-5.4972 6.35398-10.26788 17.75626-13.83008 31.30664-2.9277 11.13748 8.95714 59.74558 6.97266 72.06836h29.97851c-.423-18.70196-9.45259-70.11803 7.54297-71.29883 64.32738 10.93498 133.78409 11.05392 186.57617 27.51758-.864-3.9924-1.68699-7.46446-2.49609-10.31836-2.0358-8.83798-7.17441-15.33345-14.27539-17.99023-9.01798-3.3156-26.18865-5.39026-54.80859-10.02344-28.61996-4.6323-68.84906-12.0846-125.71094-27.26758-1.98068-.62212-3.93811-.87633-5.83008-.82812zm-44.20117 36.35937c-4.4694 1.4292-9.46258 3.6812-14.142581 6.5918-11.099678 6.90478-19.534934 16.98294-19.865234 27.04492l14.951172 40.21289h25.773433c2.0133-12.47578-9.77304-61.70773-6.71484-73.84961zm64.35351 18.73047c-9.88018.1215 4.27875 49.80646 5.14453 55.11914h183.11329l-28.14844-36.19727c-26.36546-8.42578-74.75354-12.82619-160.10938-18.92187z" fill="#fff"/></svg>