<svg height="500" viewBox="0 0 500 500" width="500" xmlns="http://www.w3.org/2000/svg" xmlns:xlink="http://www.w3.org/1999/xlink"><filter id="a" color-interpolation-filters="sRGB" height="1.033889" width="1.035258" x="-.017629" y="-.016945"><feGaussianBlur stdDeviation="3.4166672"/></filter><g transform="translate(.000015)"><circle cx="-249.99998" cy="250" fill="#e51a1a" r="250" transform="scale(-1 1)"/><path d="m181.33938 83.856939c97.52275-31.84694 203.27597 26.159281 217.12696 131.568651 10.04116 85.89723-45.79566 162.6049-131.11288 174.6444-76.26503 6.65-147.16573-45.4981-149.44603-126.3231.16679-50.89801 30.03241-87.97493 76.60677-108.40662 44.00125-16.48183 90.46555-3.00917 112.28155 39.63622 17.95322 40.0953 3.57775 87.31302-40.4313 103.80676-21.98685 8.23292-51.6578-5.55285-56.72562-31.5612 24.48155 21.7253 69.7211 11.74379 80.1808-21.06198 5.24648-24.88185-11.48198-41.52298-24.36368-55.64156-23.21161-15.22125-63.26956-13.16738-85.32502 12.05139-41.51846 46.43224-18.48961 112.52397 35.72777 131.08081 60.66482 17.11352 118.96473-29.63961 126.96137-92.39988 2.7637-54.83226-40.99398-106.19486-96.51046-114.27807-76.21988-10.3001-138.45939 50.84936-147.743191 124.09106-9.31956 73.21828 47.315731 138.67973 111.863041 158.33924 49.05305 9.49897 98.18701 2.07129 139.64056-27.40671 82.90715-58.95602 100.11901-177.97214 43.55644-260.39974-52.71171-79.885311-158.575-103.987181-249.15842-67.061741-86.705021 39.45169-149.0660905 134.549061-117.102931 229.167621 15.77888-74.65377 50.93986-153.5943 123.407351-187.514491 9.28724-4.60517 19.44718-8.7232 30.56692-12.33106zm-160.722321 286.075591c-52.57825-113.8254-.38403-260.89182 113.777041-317.643861 10.84604-5.32012 22.21219-9.7712 34.03518-13.36069 115.76394-28.75816 246.03978 34.00351 263.68455 158.897471 10.04526 85.91695-27.72044 168.80365-107.97396 206.83173-102.24035 46.26108-224.798841-11.43986-234.690511-131.24969-7.33455-123.78718 127.307171-194.136761 222.718561-137.24102-42.54074-27.89653-94.21826-33.44528-140.80825-12.98978-71.17376 32.62266-105.080851 118.0397-80.762351 190.63139 30.697281 88.13423 123.572931 132.04164 212.817841 105.59803 82.80488-25.06359 132.16266-100.33164 140.19255-180.04986 12.12434-145.020371-132.23823-245.3588802-265.59709-221.973611 7.92036-4.10499 20.5989-8.4277792 35.61563-11.7452592 60.06317-13.23825 124.63426-3.45807 179.45368 32.4903392 109.65077 71.904621 141.09454 217.803071 65.16008 333.599141-143.00482 218.07486-377.311781 117.06797-437.622951-1.79433" fill="#b21a1a"/></g><path d="m220.51367 9.8742014v104.3027286c-8.17285-.81127-16.4163-1.93829-24.54089-3.38357-12.23077-2.14947-24.40651-4.99192-36.56064-7.75757-1.27937-.29188-2.55863-.58421-3.83792-.87644v50.07422c-45.96296-5.5509-91.925398-11.10605-137.888673-16.6543.205187 7.17251.963886 14.32269 2.230469 21.38477 2.340823 13.19559 6.004757 26.09862 9.032102 39.12221 3.805818 15.89435 7.967406 31.78106 14.285321 46.89142 6.550069 15.89971 14.652207 31.10636 23.195686 46.01082 7.427049 12.65949 15.966823 24.62538 24.756838 36.36487 6.326005 8.39808 12.966397 16.55607 19.831617 24.51888 23.70101-9.46361 47.40096-18.92989 71.10156-28.39453 3.88997 6.47982 7.77995 12.95964 11.66992 19.43945-1.30581 20.26182-.74496 40.57556-.75 60.86329 20.0122 30.00749 40.0296 60.01152 60.04102 90.01953 19.64466-29.83172 39.29058-59.66262 58.93554-89.49414-1.15331-22.21623-2.31016-44.43228-3.46484-66.64844 2.48177-4.79232 4.96354-9.58464 7.44531-14.37695 23.49802 9.53261 46.99625 19.06471 70.49414 28.59765 10.80502-12.57541 21.30949-25.45489 30.49415-39.27734 13.42913-19.98929 25.39158-41.04768 34.54731-63.35014 4.50031-10.89273 8.52336-21.98459 12.0654-33.2255 4.69264-15.19905 7.92347-30.78961 11.92678-46.17403 2.4851-9.76077 4.8875-19.54211 7.31011-29.31869-45.25898 4.38746-90.51825 8.77191-135.77734 13.1582 0-16.52148 0-33.04297 0-49.56445-8.98694 2.20678-18.04371 4.27794-27.07164 6.09058-12.24242 2.44895-24.67604 4.56309-37.15013 5.88005-.88894.37502-.74386-.39312-.71964-1.02766 0-35.06497 0-70.129944 0-105.1949184-20.53385 0-41.0677.0000001-61.60156 0v1.9999998z" fill="#ff8066" filter="url(#a)"/><path d="m222.51412 116.37322c-23.93031-2.18046-41.92394-6.45357-64.93946-11.70703v49.82422l-137.78799-16.64393c.685214 18.44775 5.941682 36.10227 10.174711 53.88416 3.649857 15.33213 7.434023 30.72403 13.101911 45.43018 6.422112 16.66309 14.749106 32.58059 23.541266 48.12408 5.282337 9.33854 11.267401 18.28048 17.49371 27.01801 8.638837 12.12309 17.232012 23.23295 27.509602 35.17971l71.34863-28.49316 12.86621 21.42871c-1.34358 20.21993-.78516 40.50218-.78516 60.75391l58.03321 87.00778 56.91406-86.42578-3.45899-66.5332 8.53321-16.47852 70.8457 28.74023c9.76323-11.38784 19.11401-22.86578 27.49693-35.15679 10.28531-15.08029 19.77334-30.78165 27.84383-47.15449 7.50562-15.22689 13.66442-31.1351 19.0107-47.24751 5.2268-15.75232 8.58375-32.06518 12.71439-48.13978 2.47886-9.6466 7.24274-28.98891 7.24274-28.98891l-135.15625 13.09766v-49.22656c-21.51059 5.27249-45.38764 9.9057-64.9414 11.71094v-106.5039246h-57.60156z" fill="#861313"/><path d="m240.51492 27.873251v91.097989c7.1892.2394 14.4027.2403 21.6 0v-91.098889h-21.6zm-64.9395 99.365389v27.7317h151.4817v-27.7317c-50.1795 11.457-101.7936 11.3436-151.4817 0zm-135.252008 31.5567 8.4087 33.8346 118.968308 7.2837 8.4654.5058-.5895 8.4654c-2.3346 34.2693 4.7313 70.8057 23.0067 101.196l6.8625-131.823-165.123008-19.4625zm416.867408 0-160.0578 18.873 6.4683 124.0587c14.8113-28.5975 20.4624-61.6527 18.3375-92.8413l-.5625-8.4645 8.4375-.5067 118.9692-7.2837 8.4087-33.8355zm-234.5616 12.9942-9.5913 184.1625v39.7683l39.9375 59.877 38.727-58.8078-11.7-225h-20.277v225.8433h-16.8192v-225.8442h-20.277zm-169.848908 37.9413c3.168 10.1106 7.2387 20.7234 12.0105 31.4424l94.050008-7.7058c-.3222-5.778-.4068-11.5515-.252-17.2692l-105.807608-6.4674zm391.951808 0-105.8067 6.4674c.1548 5.7177.0693 11.4912-.252 17.2692l94.05 7.7058c4.77-10.719 8.8425-21.3318 12.0078-31.4433zm-284.2596 40.5-87.948008 7.2c4.9014 9.6993 10.2834 19.3248 16.0038 28.629l75.656708-16.452c-1.5615-6.4053-2.808-12.8898-3.7134-19.377zm176.5683 0c-.9027 6.4863-2.124 12.9726-3.6828 19.377l75.627 16.452c5.7213-9.3042 11.1042-18.9297 16.0038-28.629zm-168.1569 35.577-70.596003 15.3567c6.024603 8.82 12.303003 17.145 18.675003 24.7212l58.4442-23.7078c-2.4525-5.3595-4.6287-10.8207-6.525-16.3692zm159.75 0c-1.8963 5.5494-4.0743 11.0088-6.525 16.3692l58.4433 23.7087c6.372-7.5735 12.6504-15.8994 18.675-24.7203l-70.5942-15.3567z" fill="#ff8066" stroke-width="36"/></svg>