<svg height="500" viewBox="0 0 500.00009 500" width="500.00009" xmlns="http://www.w3.org/2000/svg" xmlns:xlink="http://www.w3.org/1999/xlink"><radialGradient id="a" cx="1249.9998" cy="1250.0005" gradientTransform="matrix(0 -1 1 0 -.0005 2499.9997)" gradientUnits="userSpaceOnUse" r="250"><stop offset="0" stop-color="#393"/><stop offset=".7379747" stop-color="#393" stop-opacity=".9"/><stop offset="1" stop-color="#393" stop-opacity=".1"/></radialGradient><g transform="translate(-1000 -1000)"><circle cx="1250" cy="1250" fill="#2ad52a" r="250"/><path d="m1258.9184 1271.0417c17.1144 30.6662 44.2259 53.4982 76.3129 67.0503 47.0888 19.252 101.3032 18.539 148.3503-.7179 3.5837-7.846 5.7089-15.6928 7.8759-23.5354-44.255 22.8273-95.5943 29.9536-144.8083 16.402-20.669-5.7007-39.2545-15.6936-56.3481-29.2453-11.4138-9.2678-21.4025-19.2524-29.245-31.383.7122 0 1.4251-.7126 1.4251-.7126 21.3984 24.9615 47.7889 42.0844 79.1674 50.6396 47.0888 12.1307 94.8859 6.4216 137.6825-16.402 1.4168-.7125 2.8336-.7125 4.2505-1.4293 4.2922-2.8504 7.8759-4.9882 12.1264-7.1343 1.4168-8.551 2.1668-16.4062 3.5837-24.9614-2.8753 1.4294-5.0006 3.5671-7.8342 5.7091-2.8753 1.4251-5.0006 2.8461-7.8759 4.9881-54.1729 34.9543-120.5139 44.2305-178.3122 16.4103-2.1251-1.4293-4.2921-2.8586-6.4173-3.5712-.7087-.7126-2.1252-1.421-2.8336-2.1336-1.4585-.7209-2.167-.7209-3.5797-1.4294-10.697-7.1342-19.2605-12.8391-27.8198-22.111 0 0 .717-1.4335 1.4252-1.4335 2.1461.7125 3.5712 3.5712 4.9964 5.0006 38.5211 29.9537 85.6097 37.8046 132.6569 27.8159 10.0011-2.1378 18.5438-4.2839 27.8364-7.8426 16.4187-7.1342 31.3787-13.5559 46.3387-24.2614 5.0005-4.2713 10.0012-7.1258 15.0017-10.6888 2.1253-2.1461 4.2505-4.2797 7.1258-6.4258-.7087-8.5594-.7087-16.3978-1.4168-24.9614-2.1669 2.1378-4.2922 4.9923-6.4174 7.1301-5.0006 4.2838-9.2928 7.8509-13.5849 12.1265-5.6674 4.9922-12.0847 8.5593-17.7937 13.5516-5.0005 3.5671-10.0012 5.7091-15.0017 8.5552-55.6313 33.5292-123.3892 37.0963-178.308-1.421 0 0 .7123-.7167.7123-1.4251 77.0421 44.9388 176.8869 9.2719 227.5177-58.4906-2.1252-7.8468-4.2504-16.4103-5.709-24.2488-28.5033 44.9347-72.0083 79.8848-126.9312 91.2946-32.1286 5.709-64.2156 3.5713-93.4523-10.6972 0-.7126.7122-1.4251.7122-1.4251 30.6494 10.7013 62.7781 11.4139 94.1567 2.8545 17.8355-4.9965 33.5039-12.8433 49.9224-22.8237 8.5844-5.7048 15.0017-11.4139 22.836-17.8313 12.1264-11.4098 22.0858-22.1153 32.087-36.3795 5.0005-7.8468 10.0011-14.981 14.2516-23.5446-3.5421-7.8385-5.709-15.6853-9.9594-22.8153-4.2922 11.4056-10.0012 22.1069-16.4186 32.8082-7.1259 11.4139-14.2517 21.3985-23.5444 31.3789-14.2516 14.9851-29.2533 27.8201-47.7971 37.8046-35.6291 19.2607-76.3004 26.395-114.8215 16.4062 0-.7084.717-2.1377.717-2.1377 33.5121 6.4174 66.3492 0 96.2694-14.981 30.6701-15.6895 54.9646-39.2299 73.4667-69.1836 10.0012-16.4062 17.127-32.0956 22.8359-49.2186-5.0005-7.1342-8.5426-14.26-14.2516-20.6817-3.5838 17.8314-9.2927 34.2334-17.8354 50.6354-.7088 1.4377-.7088 2.8587-1.4168 4.2839-15.7101 29.2453-35.6708 52.7773-64.2158 72.0422-6.4172 4.2797-13.5431 7.1301-19.9605 11.4139-6.4175 3.563-13.5433 4.9965-20.6691 7.1301-17.127 5.7048-34.9706 9.2761-53.5144 6.4174v-1.421c22.8443-.7125 45.6385-6.4174 66.3493-16.4103 2.1251-1.421 4.2504-2.1336 6.4173-3.5671 14.9602-8.5594 27.0865-18.5398 39.2129-30.6705 3.5837-4.2797 7.1258-7.8426 10.7095-12.1265 1.4169-2.1378 2.8337-4.2797 5.0006-6.4174 20.669-30.6747 33.5039-62.0494 37.796-96.9995-5.709-6.4258-11.418-12.8432-17.8354-17.8314-.7087 42.0761-12.8348 81.3101-38.5044 116.9686-27.1281 36.3753-65.6326 59.9241-109.1458 64.908 0-.7125 0-2.1377 0-2.1377 24.2611-4.9923 45.6385-14.2601 64.9324-29.9537 19.9607-16.4104 34.9207-34.9543 46.3387-57.0612 16.4185-33.525 23.5443-69.9087 21.4191-106.284-6.4591-4.9964-12.8765-9.9804-20.0024-14.2601 2.167 17.8314 2.8754 35.6628 1.4169 54.2109-1.4169 9.9804-2.8336 19.2565-4.9589 29.2369-3.5838 14.981-8.5843 28.5285-15.7101 42.0927-19.9606 37.7922-53.5062 68.471-94.1441 79.8849 0-.7126 0-1.4335 0-1.4335 30.6785-12.8391 55.6396-33.5167 74.1835-62.7661 2.8335-4.2756 5.0005-9.272 7.1258-13.5517 7.8342-13.5516 12.1264-27.0992 14.9601-42.0843 0-1.421 1.4584-2.142 1.4584-3.5672 5.7091-31.3872 5.7091-62.0534-2.1668-92.0113-7.1258-4.2797-14.2517-7.8468-22.086-10.6971 12.1265 34.2417 14.9602 70.6128 8.5427 107.7049-3.5421 15.6936-7.8342 30.6704-14.96 44.9347-4.2923 7.8468-8.5844 14.9769-13.585 22.8237-14.96 20.6817-32.7912 35.6627-54.1895 47.0724-.7122 0-1.4251-2.1336-1.4251-2.1336 12.8347-7.1342 23.5276-16.4103 33.5288-27.1033 16.3768-17.8355 27.0864-39.234 34.2539-62.0618 13.5432-46.3599 7.8342-94.8617-10.7096-138.3713-7.8759-2.1377-15.7101-4.9922-24.2527-6.4174 14.2516 27.1075 24.9611 57.0612 27.0864 88.4484 2.1253 31.3789-2.8337 62.7619-17.127 91.2946-1.4168 2.1419-2.8336 4.2797-3.5421 6.4216-.7087.7168-1.4585 2.1378-2.1668 2.8504-.7088 1.4293-.7088 2.1377-1.4169 3.5671-10.7095 14.981-20.6774 29.2411-36.3708 39.2256 0 0-.7087-.7084-1.421-1.421 12.839-9.2761 21.3941-22.1194 29.2492-35.6669 36.3791-60.6241 27.0865-131.9579-8.5676-190.4401-2.1336-2.8545-3.5672-4.9965-4.9923-7.851-8.5593-.7125-16.406-1.421-24.9653-2.1336 6.4174 8.5552 12.1263 17.1146 18.5437 26.3866 6.4216 10.7013 10.7012 20.6859 15.6935 31.3872 4.9964 12.1223 7.83 23.5362 10.7054 36.3795 9.251 50.6396-2.167 103.4169-37.1001 140.509 0-.7084-.7087-1.421-.7087-1.421 19.2563-25.6824 29.2242-53.4983 31.391-84.1687 3.5421-54.9193-20.694-109.1302-58.4983-148.36-8.5594 0-16.402.7084-24.9612 2.1336 29.9534 25.6823 52.7769 57.7738 64.9032 95.5826.717 2.8545.717 4.9923 2.1461 7.8426.7123 1.4336.7123 2.8546.7123 4.2839.7123 1.4252 1.4209 2.1419 1.4209 3.5671 8.5594 41.3676 4.9964 81.31-19.2563 117.6854 0 0-.7123-.7127-1.4252-.7127 7.8468-14.9768 12.839-30.6704 15.6935-47.785 2.1377-14.9852 2.1377-29.9537 0-44.9389-7.8467-54.2025-40.6588-101.2833-84.168-131.9538-7.8468 2.1378-15.6935 4.2797-23.5361 7.1301 52.0685 29.2411 92.0106 80.6057 99.8574 141.2299 2.8503 25.6781.7123 51.3605-9.9846 74.8925-.7122 0-1.4293-.7125-1.4293-.7125 0-2.1419 1.4293-4.2797 2.142-6.4216 7.1341-27.8159 6.4174-56.3445-2.142-83.4478-6.4132-19.2566-14.2682-36.3837-26.3946-52.7857-2.1378-2.1336-3.5588-4.2797-4.9881-6.4174-21.3983-25.6824-46.3595-44.9347-75.6046-59.199-7.8467 2.8503-14.9808 6.4174-22.1066 10.693 7.1258 2.8545 14.2599 4.9923 20.6774 9.272 1.4292.7167 2.8544.7167 4.2796 1.4251 29.9534 14.981 54.2104 34.9502 74.1835 62.7703 26.3863 37.092 37.0876 79.1764 27.8156 123.3985 0 0-1.4293 0-2.1377 0 2.8462-13.5558 1.4211-26.3907 0-39.9507-2.1377-17.8272-7.8508-33.5167-16.4102-49.2061-9.2677-18.544-22.1067-34.9543-37.8043-49.9353-12.8347-11.4056-26.3864-20.6859-41.363-29.2411-1.4336-.7126-2.8545-.7126-4.2839-1.4294-13.5557-7.1259-27.8157-12.1181-42.084-17.1146-7.1299 4.9965-13.5515 9.272-19.9689 14.9727 27.8198 5.0006 53.4936 14.9852 78.4548 29.2536 1.4335.7084 1.4335 2.1378 2.8586 2.8462 48.5014 29.962 81.3093 82.7435 78.4632 139.088h-1.4335c-2.1378-42.797-23.536-81.3101-55.6272-109.8469-2.1419-1.421-4.2839-2.8504-6.4174-4.984-.717-.7167-2.1502-1.4335-3.5754-2.1419-.717-.7168-1.4252-2.1378-2.8462-2.8503-32.1036-22.8279-67.0493-34.9544-104.862-37.8089-7.1258 4.9923-12.1222 12.1265-17.827 17.8356 44.9343-.7126 87.735 10.6971 125.5352 38.5172 34.2373 24.9614 57.0649 60.6241 63.4822 101.2792-.7087 0-2.1418 0-2.1418 0-11.4097-48.4977-45.6469-84.1646-88.4435-105.5631-4.9923-2.1336-9.9844-4.2838-14.9726-5.7048-30.6785-12.1265-63.4906-15.6895-95.586-12.8391-4.2796 7.1342-9.9843 13.5475-13.5515 21.3985 27.8199-6.4175 55.6356-5.7049 84.1638-.7084 1.4336 0 2.1461 1.421 3.5755 1.421 37.0876 7.8468 69.1828 24.9614 93.4356 53.4982.7123.7126 2.1377 1.4252 2.8504 2.1378 11.4138 14.981 21.3982 29.2494 26.3864 47.0766 0 0-.7123.7126-1.4252.7126-22.1109-50.6438-71.3249-84.1646-126.2436-92.7281-14.2684-2.1378-28.5325-2.8504-42.7966-2.1378-16.4102.7125-32.8121 3.5671-49.2223 7.8468-2.842 7.8426-7.1217 14.9769-9.2636 22.8278 54.2062-20.6859 116.9676-22.111 169.036 8.5552 24.257 14.2685 42.8008 32.8166 56.3523 56.3487-.7123 0-2.1418.7125-2.1418.7125-23.532-34.9502-56.3399-54.9193-96.2861-64.1913-46.3636-9.9887-92.7315-2.1419-133.3778 17.8314-1.4293 7.8468-5.0006 15.6894-5.0006 24.2488 12.1264-8.5594 26.3947-14.2642 40.6588-19.9774 16.4061-6.4133 32.8038-9.2637 49.9266-11.4014 53.4979-5.7091 108.4166 13.5475 142.6539 54.9151-.7123 0-1.4252.7167-1.4252.7167-32.8121-32.0997-77.7464-47.7934-122.6766-45.6514-40.6672 2.1377-79.1799 17.8313-111.9836 41.3717-.7168 8.5594-.7168 16.4104-.7168 24.9615 9.9887-9.272 20.6857-17.1146 32.8121-24.2489 1.421-.7125 2.1377-2.1419 3.5629-2.8545 54.2104-31.383 121.2556-39.2298 176.8912-6.4174 4.2796 2.8503 7.8467 5.7048 12.1263 7.8426 2.8545 1.4293 4.9881 4.2797 7.8467 6.4258 0 0-.717.7084-.717 1.421-7.8425-5.7049-16.406-9.272-24.9653-14.2684-5.7007-2.1336-11.4096-4.2756-17.1145-6.4175-32.0953-9.9846-65.6241-8.551-98.4321.7127-26.3947 7.8468-49.2181 21.4026-71.3248 38.5172-1.4252.7127-1.4252 2.8587-2.8587 3.5671-6.4174 4.9965-11.4096 9.9887-17.1103 15.6936 0 4.9881.7084 9.9887 2.1336 14.9769v3.5712c.7126 2.1336.7126 3.563 1.4252 5.7091 7.8467-11.4139 17.8353-19.9775 27.8198-29.9621 5.7091-4.9922 11.418-8.5552 17.1145-13.5558 28.5325-20.6775 59.211-32.8124 93.4482-35.6586 30.666-2.1419 62.0488 3.5671 88.4393 19.2524-.717.7168-1.4293 1.4335-1.4293 1.4335-10.6971-5.7048-21.3942-8.5635-33.5205-10.7013-14.9725-3.5671-29.2451-3.5671-44.2218-2.8545-59.9152 4.9923-111.271 43.5095-143.3622 92.0114 2.8461 7.8509 4.988 15.6894 7.8425 23.5358 21.3984-40.6588 54.9188-74.8964 97.007-94.1487 12.8348-5.7091 25.6696-9.2762 39.9379-12.1265h4.2797c24.2569-4.9923 48.5055-1.421 71.329 6.4174 0 .7126-.7123 1.4294-.7123 1.4294-41.3713-9.9846-82.0344-3.563-118.4053 17.1187-25.6737 14.9769-45.651 34.2334-63.4822 59.199-1.4251 2.8545-2.8461 4.9964-4.9922 7.8468-6.4174 10.7005-12.1222 21.4035-17.1228 32.0998 2.1418 3.5663 3.5754 7.8426 5.7131 11.4089 2.8546 2.8554 4.2755 7.143 6.4174 10.698 4.2797-14.9773 10.6971-28.5289 17.8354-42.0752 3.563-6.4225 7.13-12.1315 11.4054-18.5489 19.2606-26.395 40.6631-47.0767 69.1914-60.6284 14.9767-7.1342 29.9576-12.839 46.3678-14.9726 15.6851-2.1461 30.6618-2.1461 46.3553 0v2.1336c-40.6546-3.5671-81.3177 10.6971-113.4088 37.8005-34.954 29.2494-56.3481 69.1914-66.3368 112.701 4.9964 6.417 9.2719 13.5483 15.6976 19.2569 7.8426-84.1646 75.6004-165.4746 163.3354-167.6207v2.1461c-53.4936 5.7049-99.1447 39.9425-124.8227 87.0195-.7123 1.416-.7123 2.8454-1.4293 4.2743-15.6893 27.8159-21.3982 57.7742-23.5402 88.4455 6.4257 4.9923 11.418 12.1252 19.2688 16.4066-2.146-19.975.7088-38.519 4.2714-58.4872 5.7132-29.2453 17.1186-54.2109 34.9624-77.7471 23.5318-29.9579 53.4894-50.6438 91.2896-57.778 0 0 .7123.7126.7123 1.4252-9.9846 2.8545-19.9732 7.1342-29.9619 12.1223-2.1335 1.4335-4.2755 2.1461-6.4215 3.5755-16.4019 9.9804-29.2367 22.1069-41.3631 37.0837-17.1186 22.1153-27.8157 44.9385-34.2372 72.0464-2.1336 11.4143-4.2796 22.8236-4.9923 34.2375-.7123 14.9761 0 30.6663 1.4252 45.644 3.5671 1.4289 7.1383 4.2826 10.7012 6.4216 3.5671 2.1403 7.8467 3.5663 11.4097 5.7003-11.4097-44.2192-8.5551-92.0034 10.7011-134.0886 16.4061-36.3787 46.3554-65.6239 83.4554-80.5966v2.1419c-79.8882 39.2257-104.8536 141.9342-76.3212 221.1106 7.1341 3.5634 14.9767 5.6957 22.8193 8.5557-14.9725-34.9506-22.1067-72.0385-17.1144-110.5558 6.4215-47.7892 31.3869-92.0071 72.0374-116.9769 0 .7125.7123 1.4294.7123 1.4294-26.3864 19.9691-44.2218 46.364-53.498 76.3227-17.1102 52.0685-8.5509 107.7004 17.127 154.7766 8.5551 2.1369 16.4061 3.5629 24.9612 4.9922-48.5055-68.4705-55.6397-174.0339 12.8349-233.9538 0 0 .717.7168 1.4334.7168-20.6857 22.8195-34.2372 49.927-39.2295 81.3059-2.8628 19.9733-2.146 39.2302.7171 59.2064 0 1.426 1.421 2.139 1.421 3.5634 3.5628 23.5366 12.8347 43.5095 24.2486 64.1908.717 1.4344 2.1376 2.147 2.8544 3.5763 4.2798 8.546 9.9887 15.689 15.6935 22.8203h24.9612c-23.5361-24.2496-42.0798-52.7815-52.0685-85.5901-.7088-2.8504-.7088-4.9973-2.1418-7.851-.7123-1.421-.7123-2.8516-.7123-4.2759-.7088-1.4294-1.4252-2.1424-1.4252-3.5717-9.9886-47.0729-2.8503-94.1487 27.1073-131.2366 0 0 .7123.7125 1.4252.7125-20.6816 29.9578-27.1073 67.0462-22.8234 102.7164 6.4173 49.9232 32.8079 94.8588 70.6122 126.954 7.8468-1.426 16.3893-2.847 24.2652-4.276-12.1263-9.2719-23.5526-18.5439-34.2456-29.9582-7.1382-7.846-12.8431-14.9806-19.2647-23.5367-9.2635-12.8432-14.9767-25.6769-21.3941-39.9462-2.1419-4.9922-2.8586-9.9849-4.9922-14.9755-11.4139-38.5223-9.276-79.8899 9.2677-115.5526 0 0 1.4293.7168 2.1419.7168-19.2605 44.2179-13.5515 94.8658 9.2678 137.659 18.5521 34.2376 46.3845 60.6325 78.4714 79.8845 7.8343-2.8504 15.6685-5.7053 22.836-9.2767-14.2933-5.7006-25.7113-13.5466-38.5461-22.8186-17.8354-13.5516-32.7996-27.1046-44.2092-45.6518-13.5516-15.6886-20.6858-35.662-27.1073-55.6319-4.2796-17.1196-5.7048-34.2375-4.9922-51.3563.7123-9.9888 2.8504-18.5481 4.9922-28.5327.7123-1.4252-.7123-2.8545 2.8503-2.8545-9.9803 45.6514 2.1503 92.7285 31.387 130.5327 2.1377 2.1373 3.5629 4.2759 4.9922 6.4166 24.2528 28.529 54.2145 48.5068 88.4268 61.3455 3.5838-2.1423 7.8759-3.5667 11.418-5.7036 2.1668-2.1423 5.0005-3.5717 7.8759-5.0006.7087-.7101 1.4168-1.4214 2.1253-2.1345-36.3792-9.2765-69.1747-27.8159-97.007-54.9234-3.5671-4.2797-7.13-7.8459-10.6971-12.1273-27.8157-33.5246-41.3714-75.6085-36.3708-117.6887.7041 0 2.1377.7127 2.1377.7127-1.4334 32.0956 7.8385 62.0539 26.3905 89.8732 4.9881 7.8509 9.9804 14.2726 16.402 21.3993 5.7173 5.7036 11.4262 10.6963 17.0936 16.4015 15.7101 12.8433 32.1287 22.8283 50.6724 30.6742 15.6684 6.4171 31.3787 10.698 47.7972 14.2647 6.4174-5.7057 12.8348-11.4093 18.5437-17.1196-24.2528-1.4293-47.0887-7.138-69.2162-16.4099-2.8337-1.4244-4.9589-2.1374-7.8342-3.5634-23.5443-11.4093-43.505-25.6736-60.6236-45.6468-3.5671-4.9957-7.8468-9.2721-11.4138-14.9757-2.8545-4.2847-4.9923-8.5689-7.8426-12.8436-2.1419-4.2801-4.2838-9.2724-6.4216-13.5521-6.4216-15.6894-10.7012-31.3872-11.4138-48.5018h1.4294c7.1299 42.7969 29.9576 78.4588 65.6159 104.1458 37.0875 26.3819 78.4672 37.0845 121.2638 37.0845 5.7089-6.4216 10.7095-12.8399 15.6684-19.9729-16.3768 2.8533-33.5038 1.4289-49.9223 0-15.6685-1.431-30.6702-5.7057-45.6303-10.703-5.0005-2.1373-10.0011-4.2747-15.0017-6.4086-43.5049-19.9813-77.7297-58.4986-89.8561-104.8584h2.1378c11.4138 34.2333 34.2372 62.0535 65.6325 81.3137 5.0005 2.8504 9.251 4.9928 13.5431 7.8477 40.6714 19.9683 86.3016 24.961 129.8065 16.4016 5.0007-7.1263 8.5843-14.9772 12.1265-22.1119-67.0494 19.262-147.6419 8.5606-195.4265-48.5051-.7123-.7127-2.142-1.421-2.8587-2.1378-8.5551-10.7013-15.6893-21.3943-20.6816-33.525 0 0 .7123-.7084 1.4294-.7084" fill="url(#a)" fill-rule="evenodd"/></g><path d="m258.20117.00195313c.051.06799993.09599.13727819.14649.20507812a250 250 0 0 0 -7.94336-.19726562l-.12305 43.61523437c-2.71646-6.799948-5.44658-13.712184-8.15234-20.427734l-.76953-22.5800785a250 250 0 0 0 -3.01954.21679688c-.038-.03899997-.07302-.08199379-.11132-.12109376-7.2422 0-14.03691.62122598-21.1211 1.64062498a250 250 0 0 0 -23.05859 4.6230469c-.2551-.1815998-.49996-.3781939-.75586-.5585937-3.8512 1.0491989-7.70204 2.1018292-11.55274 3.2363281a250 250 0 0 0 -6.93945 2.2500001c-1.6811.552699-3.36217 1.031679-5.04297 1.642578.083.047.1629.099984.2461.146484a250 250 0 0 0 -18.77149 7.001953c-.01 0-.01253-.009765-.01953-.009765-.1102.04-.20836.093966-.31836.134765a250 250 0 0 0 -6.78711 2.884766c-5.12569 2.264198-10.1097 4.739631-15 7.673828.1864.075.36829.141044.55469.214844a250 250 0 0 0 -17.26758 9.923828c-.1386-.049-.27546-.101891-.41406-.15039-7.12989 4.996495-13.553311 9.271961-19.970704 14.972656.154399.028.304584.06575.458984.09375a250 250 0 0 0 -15.058594 13.503906c-.1295-.01-.255266-.031016-.384765-.041016-7.125793 4.992295-12.121378 12.126844-17.826172 17.835938.258199 0 .511531.016672.769531.013672a250 250 0 0 0 -11.675781 15.597656c-.4062.034-.814804.04213-1.220703.07813-4.279596 7.13419-9.983585 13.54744-13.550782 21.39843.2676-.062.535235-.10005.802735-.16015a250 250 0 0 0 -9.337891 17.09961c-.2475.064-.494688.11323-.742187.17773-2.841998 7.84259-7.121774 14.97723-9.263672 22.82812.254099-.09699.515031-.17733.769531-.27343a250 250 0 0 0 -6.5292969 19.23828c-.2154998.105-.4411502.18727-.65625.29297-1.4292985 7.84679-5.0019531 15.68865-5.0019531 24.24804.1188999-.084.2517939-.14912.3710938-.23242a250 250 0 0 0 -2.3359376 19.61133c-.2886997.2053-.5931596.38735-.88085932.59375-.61439939 7.33629-.67890627 14.21419-.69140625 21.39648a250 250 0 0 0 -.02539063.35938 250 250 0 0 0 .02148438.29297c0 .9816-.02148438 1.91566-.02148438 2.91406.07099993-.066.14589695-.12395.21679688-.18945a250 250 0 0 0 1.37890622 19.30078c-.2987997.2987-.5765065.55863-.87890622.86133 0 4.98809.70761392 9.98836 2.13281252 14.97656v3.57227c.7125993 2.13359.7131819 3.56288 1.4257812 5.70898.2077998-.3022.4514096-.55912.6621094-.85742a250 250 0 0 0 4.3144531 19.83008c-.2235998.3341-.4677533.65708-.6894531.99218 2.846097 7.8509 4.989353 15.68877 7.84375 23.53516.2586-.4913.567978-.95386.830078-1.44336a250 250 0 0 0 7.501953 18.29102c-.1553.3292-.340141.65908-.49414.98828 2.141797 3.56629 3.575192 7.8419 5.71289 11.4082 2.854597 2.8554 4.276071 7.14422 6.417969 10.69922.1088-.3808.253734-.73829.365234-1.11719a250 250 0 0 0 11.302735 16.5586c-.076.3262-.182913.64215-.257813.96875 4.996395 6.41699 9.271572 13.54726 15.697266 19.25586.011-.1215.036828-.24189.048828-.36329a250 250 0 0 0 13.583984 13.58399c-.025.3492-.064843.69552-.089843 1.04492 6.425693 4.9923 11.418739 12.12475 19.269531 16.40625-.03-.2816-.036453-.55689-.064453-.83789a250 250 0 0 0 15.646481 11.71289c.038.4123.06207.83479.10157 1.24609 3.56709 1.4289 7.13827 4.28288 10.70117 6.42188 3.56709 2.1403 7.84716 3.56717 11.41015 5.70117-.062-.2394-.09505-.48501-.15625-.72461a250 250 0 0 0 17.82813 8.76367c.062.1729.10176.35465.16406.52735 7.13409 3.56339 14.97577 5.69664 22.81836 8.55664-.085-.1984-.15378-.40101-.23828-.59961a250 250 0 0 0 19.17383 4.95703c.1142.2109.21518.42817.33008.63867 8.55509 2.1369 16.40584 3.56289 24.96093 4.99219-.1904-.2688-.35191-.56213-.54101-.83203a250 250 0 0 0 19.86914 1.41992c.2195.2746.42493.56339.64453.83789h11.05664 13.9043c-.2954-.3043-.56753-.62789-.86133-.93359a250 250 0 0 0 20.54297-1.46875c.099.085.19347.17526.29297.25976 7.84679-1.426 16.38973-2.84639 24.26562-4.27539-.3515-.2687-.68876-.54175-1.03906-.81055a250 250 0 0 0 19.70117-5.27539c.1998.1206.38974.25696.58984.37696 6.9744-2.5375 13.88088-5.15212 20.38477-8.19922a250 250 0 0 0 19.84961-9.78906c.1334.05.26103.11005.39453.16015 3.5838-2.1423 7.87587-3.56623 11.41797-5.70312 2.1668-2.1423 5.00156-3.57306 7.87695-5.00196.7087-.7101 1.4165-1.41971 2.125-2.13281-.033-.01-.06465-.0213-.09765-.0293a250 250 0 0 0 15.51757-11.61718c.3355.074.66195.15942.99805.23242 2.2109-1.9658 4.39037-3.93089 6.57227-5.89649a250 250 0 0 0 3.32031-3c2.9901-2.74039 5.90869-5.48015 8.65039-8.22265-.1324-.01-.26213-.02521-.39453-.03321a250 250 0 0 0 18.44726-19.6289c3.8765-4.677 7.57836-9.42203 11.16016-14.57422-.093.016-.18795.02306-.28125.03906a250 250 0 0 0 10.85742-16.42578c.044-.01.08902-.01248.13281-.02148 5.0007-7.1263 8.58476-14.97664 12.12696-22.11133-.067.019-.13613.03373-.20313.05273a250 250 0 0 0 7.29688-18.58398c.011 0 .0222-.00972.0332-.01172 1.9864-4.3488 3.49229-8.69848 4.83789-13.04688a250 250 0 0 0 2.4375-8.41601c.1914-.6912.40871-1.38312.59961-2.07422-.055.029-.11257.05303-.16797.08203a250 250 0 0 0 4.18164-19.2168c.082-.04199.15333-.087.23633-.1289.1603-.9675.26105-1.87252.40625-2.82422a250 250 0 0 0 1.79492-12.50586c.4247-3.1726.83612-6.32996 1.38282-9.63086-.2663.1324-.47392.33452-.72852.47852a250 250 0 0 0 1.4375-20.0918 250 250 0 0 0 -.00977-.35352s-.00023-.00976.00977-.00976c-.01-.094-.00963-.18119-.01562-.27539a250 250 0 0 0 -173.29688-237.23633c-.019 0-.03764-.010625-.05664-.015625a250 250 0 0 0 -17.23828-4.9199219c-.7848-.1962998-1.58822-.3558564-2.38281-.5351562a250 250 0 0 0 -23.75977-4.3710938c-.027-.0529999-.05698-.0950375-.08398-.1484375-1.2535-.1042999-2.42886-.2083001-3.65625-.3125a250 250 0 0 0 -18.00782-1.53906248c-1.1101-.0939999-2.16918-.18705009-3.30078-.28124999zm1.44922 160.94531687c5.09256 11.01382 10.92739 21.31034 16.17969 29.04882 11.61443 17.11333 27.81635 38.61099 48.04883 51.125 6.60182 4.08369 13.82485 7.00791 21.42187 7.93946l3.32617 5.27148c12.2647 19.44266 22.36621 40.05769 28.76563 61.29297-7.43023-.43767-15.91941 2.35591-17.45899 3.18164l-.00586.00391-.00585.0039c-2.44698 1.31476-2.91986 1.71141-3.8086 2.3086-.41383-.76967-.5799-1.16467-1.86719-3.18164-.46003-.72081-2.81365-5.1518-7.85937-8.45508-5.04574-3.3033-9.57479-3.99576-14.13672-4.55469l.00391.00195c-3.46737-.4258-9.30442.05152-13.53321 2.125-4.22876 2.07351-6.00152 4.06196-7.4414 5.37891l-.00196.00195v.00196c-.92331.84487-1.20499 1.14179-1.8164 1.74609-.55054-.49837-.67142-.71066-1.37891-1.28516-3.98211-3.23507-14.45568-8.41726-25.43945-8.13476-4.26455.10991-8.04089.35405-12.68946 2.36523-4.45821 1.92884-8.05281 5.92275-8.27148 6.16602-.57764-.41888-.67869-.51124-1.62305-1.14453-3.65462-2.45089-12.82406-6.67599-22.91797-7-15.71831-.50563-23.5529 7.78409-30.85351 18.06836-7.31333 10.30028-11.43681 19.92712-9.24805 33.41406l.31446 1.93359.72265 1.82227c.96175 2.42418 1.55209 4.70089 2.25781 7.02344l-29.48046-36.67969c-1.79667-2.30903-6.33344-9.54798-8.60157-17.10156l-.5-22.64258c.95077-4.56857 2.45282-9.6258 4.83203-15.32813l1.7129-4.10742c12.46585.41993 26.79379 1.67564 41.94921-1.79687 7.92649-1.81604 17.24548-5.14915 24.77149-12.66993 7.43693-7.43174 11.85597-17.63807 14.2539-29.7207.71781-2.92701 1.44126-6.19993 1.95313-9.84961l.68164.04297 2.62109-16.0918c.95498-5.86196 1.79622-11.96424 2.52735-18.24023z" fill="#2e852e"/><path d="m268.40234.87304688-.11914 41.98828112c4.04992 14.965881 10.84716 32.255581 20.05469 50.28125 2.21868.0093 4.49668.03811 6.86914.125 11.44426.415487 24.28371 1.337178 35.13086 5.767578 3.61602 1.475944 7.00869 3.343344 10.05469 5.710934l6.39648 4.97071-9.93945 12.78906-6.39649-4.96875c-5.75804-4.47293-21.79741-7.56908-35.83398-8.08008-8.36864-.30419-15.73237-.0328-20.33203.23633 1.6841 4.41524 3.37072 8.85826 5.06445 13.35547l1.78516 4.73242-3.46875 3.67773c-1.89913 2.0143-4.47753 4.71402-7.63281 7.60938 5.15948 14.64143 14.00107 30.96688 20.6875 40.81836 10.86583 16.01047 27.35824 36.48311 42.625 45.92578 7.63364 4.72193 14.41169 6.5346 20.16211 5.37695 5.7507-1.1585 11.87519-5.25345 18.26953-16.5039l4.0039-7.04297 14.08399 8.00781-4.00391 7.03906c-.10207.17652-.20519.34275-.30664.51758 22.77475 21.43793 46.12978 38.06168 67.04102 46.0625 4.07768 1.55952 8.03815 2.7839 11.8789 3.68555l33.29297 7.25a250 250 0 0 0 .13867-.96094c.4247-3.1726.83612-6.32996 1.38282-9.63086-.2663.1324-.47392.33452-.72852.47852a250 250 0 0 0 1.4375-20.0918 250 250 0 0 0 -.00977-.35352s-.00023-.00976.00977-.00976c-.01-.094-.00963-.18119-.01562-.27539a250 250 0 0 0 -4.55079-44.1543l-7.18164 1.94922c-9.10138 3.11148-20.50101 6.5759-35.0332 10.41602l-4.13867-15.66016c19.99747-5.28564 32.96213-9.65223 42.74414-13.4668a250 250 0 0 0 -165.13672-176.32031c-.019 0-.03764-.010625-.05664-.015625a250 250 0 0 0 -17.23828-4.9199219c-.7848-.1962998-1.58822-.3558564-2.38281-.5351562a250 250 0 0 0 -23.75977-4.3710938c-.027-.0529999-.05698-.0950375-.08398-.1484375-1.2535-.1042999-2.42886-.2083001-3.65625-.3125a250 250 0 0 0 -11.10743-.94921872zm-45.01953.76171872c-2.08452.22753-4.15883.4141825-6.27539.71875a250 250 0 0 0 -23.05859 4.6230469c-.2551-.1815998-.49996-.3781939-.75586-.5585937-3.8512 1.0491989-7.70204 2.1018292-11.55274 3.2363281a250 250 0 0 0 -6.93945 2.2500001c-1.6811.552699-3.36217 1.031679-5.04297 1.642578.083.047.1629.099984.2461.146484a250 250 0 0 0 -18.77149 7.001953c-.01 0-.01253-.009765-.01953-.009765-.1102.04-.20836.093966-.31836.134765a250 250 0 0 0 -6.78711 2.884766c-5.12569 2.264198-10.1097 4.739631-15 7.673828.1864.075.36829.141044.55469.214844a250 250 0 0 0 -17.26758 9.923828c-.1386-.049-.27546-.101891-.41406-.15039-7.12989 4.996495-13.553311 9.271961-19.970704 14.972656.154399.028.304584.06575.458984.09375a250 250 0 0 0 -15.058594 13.503906c-.1295-.01-.255266-.031016-.384765-.041016-7.125793 4.992295-12.121378 12.126844-17.826172 17.835938.258199 0 .511531.016672.769531.013672a250 250 0 0 0 -11.675781 15.597656c-.4062.034-.814804.04213-1.220703.07813-4.279596 7.13419-9.983585 13.54744-13.550782 21.39843.2676-.062.535235-.10005.802735-.16015a250 250 0 0 0 -3.580078 6.55468c5.912754 10.49971 12.063403 20.81163 18.384765 30.59961 15.878548 24.58632 33.519754 47.78107 57.263674 66.56055 20.9209 16.54697 35.56813 25.11954 54.98242 24.97461 15.2228-.11301 32.05193 1.79832 44.85156-1.13477 12.79734-2.93199 21.55791-8.45774 25.47656-28.6875.73613-2.9814 1.39785-5.91772 1.79297-8.94726-22.39613-3.72254-32.819-11.10398-52.04687-19.10938l-1.81055-8.53906 7.9961-1.2793c19.82435-3.16807 40.19001-15.66527 53.49023-26.06445.0759-1.16877.13867-2.35233.20508-3.5293-13.60089 3.59861-30.2933 1.6626-45.67383-11.77148l-6.10156-5.32813 10.6582-12.20117 6.09961 5.32813c13.82755 12.07772 24.51501 11.25358 34.94141 6.94336 8.3745-3.46217 15.81992-9.88909 21.07812-15.08203-12.89156-34.06505-25.51895-65.837818-38.08594-96.998051zm-58.68945 34.8164064c2.86839-.08473 5.5762.082191 7.69726.677734 12.32459 3.460452 31.10352 22.525391 31.10352 22.525391s-1.31374 3.730873-10.30273-.447266c.85331 5.557183.55924 11.279244-.88868 16.769531-1.79949 6.823547-5.07527 12.250339-9.51757 15.632813-4.44171 3.380783-10.64787 4.720365-16.82813 1.341797-6.18056-3.377728-10.20158-10.307012-11.96484-17.080078-1.76388-6.771373-1.71437-13.962151.08398-20.785156 1.0201-3.863994 2.51379-7.279309 4.42383-10.128907-3.22883-3.145488-7.86584-4.413195-12.46289-5.734375 0 0 10.0511-2.517293 18.65625-2.771484zm10.53125 17.423828c-.4872.07911-1.1424.34772-2.00391 1.003906-1.72241 1.31068-3.67778 4.164371-4.71289 8.09375-1.0368 3.928768-.89127 7.933383-.20703 10.560547.68339 2.626857 1.45754 3.304843 1.84766 3.517578.39151.214192 1.28735.445446 3.00976-.865234 1.72302-1.312374 3.67882-4.161831 4.71485-8.09375 1.0368-3.928768.88931-7.931426.20507-10.558594-.68422-2.627164-1.46059-3.308443-1.85156-3.521484-.19463-.106214-.51475-.215826-1.00195-.136719zm137.76953 75.86914c1.45771-.07643 2.9165-.0736 4.37109.01172 3.87892.22751 7.73325 1.03881 11.49415 2.4707v.00196c.48447.18463.96979.37751 1.45117.58398 15.4226 6.57743 28.23476 22.11428 38.62695 45.74414l-14.83008 6.51953c-9.43445-21.45506-20.46719-33.23212-30.15234-37.36133-9.68454-4.13088-18.87896-2.34802-29.73047 6.95508l-10.54102-12.29883c8.91694-7.64554 19.10657-12.09192 29.31055-12.62695zm-283.638671 4.01367a250 250 0 0 0 -4.369141 8.00196c-.2475.064-.494688.11323-.742187.17773-2.841998 7.84259-7.121774 14.97723-9.263672 22.82812.254099-.09699.515031-.17733.769531-.27343a250 250 0 0 0 -6.5292969 19.23828c-.2154998.105-.4411502.18727-.65625.29297-1.4292985 7.84679-5.0019531 15.68865-5.0019531 24.24804.1188999-.084.2517939-.14912.3710938-.23242a250 250 0 0 0 -2.3359376 19.61133c-.2886997.2053-.5931596.38735-.88085932.59375-.61439939 7.33629-.67890627 14.21419-.69140625 21.39648a250 250 0 0 0 -.02539063.35938 250 250 0 0 0 .02148438.29297c0 .9816-.02148438 1.91566-.02148438 2.91406.07099993-.066.14589695-.12395.21679688-.18945a250 250 0 0 0 1.37890622 19.30078c-.2987997.2987-.5765065.55863-.87890622.86133 0 4.98809.70761392 9.98836 2.13281252 14.97656v3.57227c.7125993 2.13359.7131819 3.56288 1.4257812 5.70898.2077998-.3022.4514096-.55912.6621094-.85742a250 250 0 0 0 4.3144531 19.83008c-.2235998.3341-.4677533.65708-.6894531.99218 2.846097 7.8509 4.989353 15.68877 7.84375 23.53516.2586-.4913.567978-.95386.830078-1.44336a250 250 0 0 0 7.501953 18.29102c-.1553.3292-.340141.65908-.49414.98828 2.141797 3.56629 3.575192 7.8419 5.71289 11.4082 2.854597 2.8554 4.276071 7.14422 6.417969 10.69922.1088-.3808.253734-.73829.365234-1.11719a250 250 0 0 0 11.302735 16.5586c-.076.3262-.182913.64215-.257813.96875 4.996395 6.41699 9.271572 13.54726 15.697266 19.25586.011-.1215.036828-.24189.048828-.36329a250 250 0 0 0 13.583984 13.58399c-.025.3492-.064843.69552-.089843 1.04492 6.425693 4.9923 11.418739 12.12475 19.269531 16.40625-.03-.2816-.036453-.55689-.064453-.83789a250 250 0 0 0 15.646481 11.71289c.038.4123.06207.83479.10157 1.24609 3.56709 1.4289 7.13827 4.28288 10.70117 6.42188 3.24597 1.94762 7.03364 3.35294 10.38281 5.18945l4.40625-19.84765c15.42285-22.03139 38.07696-38.69982 65.07813-52.20118l-45.9004-57.11132c-3.2354-4.15806-9.37291-13.58319-12.33398-25.17188l-.60742-27.50586c1.17659-6.34431 3.2396-13.12368 6.26758-20.38086-19.14913-2.8904-35.43864-13.26523-53.62891-27.65234-21.012697-16.62131-41.482942-35.65637-54.513672-59.06641-6.853128-12.31182-8.346107-26.95617-11.296875-40.73437-.526394-2.45793-.800825-5.00847-1.177734-7.52149zm209.820311 47.39063c-6.8358 4.55353-14.56279 8.98291-22.91016 12.63476 7.30641 2.91562 13.58016 4.17812 18.52344 4.65039.70493.0671 1.33168.10236 1.97266.14258.90591-5.56076 1.71149-11.39684 2.41406-17.42773zm136.55274 55.14258c-3.70464 3.71121-7.68384 6.52863-11.87696 8.4375 19.32149 30.62949 34.35436 64.77936 38.05274 101.06054l.18945 1.84375c10.41068 33.63215 7.32042 70.76546-5.29883 103.97071a250 250 0 0 0 8.07031-6.04297c.3355.074.66195.15942.99805.23242 2.2109-1.9658 4.39037-3.93089 6.57227-5.89649a250 250 0 0 0 3.32031-3c2.9901-2.74039 5.90869-5.48015 8.65039-8.22265-.1324-.01-.26213-.02521-.39453-.03321a250 250 0 0 0 18.44726-19.6289c3.8765-4.677 7.57836-9.42203 11.16016-14.57422-.093.016-.18795.02306-.28125.03906a250 250 0 0 0 10.85742-16.42578c.044-.01.08902-.01248.13281-.02148 5.0007-7.1263 8.58476-14.97664 12.12696-22.11133-.067.019-.13613.03373-.20313.05273a250 250 0 0 0 7.29688-18.58398c.011 0 .0222-.00972.0332-.01172 1.9864-4.3488 3.49229-8.69848 4.83789-13.04688a250 250 0 0 0 2.4375-8.41601c.1914-.6912.40871-1.38312.59961-2.07422-.055.029-.11257.05303-.16797.08203a250 250 0 0 0 3.79297-17.43164l-36.14258-8.20117c-4.02909-1.03191-8.07771-2.33607-12.13086-3.88672-23.57793-9.02178-47.80349-26.29653-71.08007-48.10937zm-92.62305 86.4707c-6.32112.16291-6.98856 1.34435-8.10352 2.61328-.55764.63488-1.06495 1.51951-2.28515 3.10352-1.22051 1.58483-4.47259 4.678-8.73438 4.77734-3.64304.0846-6.83801-1.34663-8.93945-2.65234-2.10198-1.30688-3.52463-2.50407-5.00977-3.5-2.97024-1.99192-5.98614-3.71874-13.4707-3.95899-4.36085-.14028-10.83241 3.78532-15.59766 10.49805-4.67637 6.58596-6.96938 15.11291-6.1582 20.11133 15.08367 38.01988 2.42725 67.46531-2.94531 93.42578 1.42238 2.0489 6.74269 7.60335 16.45508 12.41992 4.55469 2.26011 9.85432 4.45547 15.69531 6.49805 11.38945-28.64483 17.08986-67.4522 14.9707-94.9043l16.15039-1.25c2.3385 30.26153-3.22671 69.54887-15.54101 100.86719 4.07774 1.05618 8.30431 2.02228 12.63476 2.87695 8.36293 1.64951 17.11029 2.85918 25.95703 3.53516 5.61293-32.8335 13.05909-67.95894 6.82032-102.48243l15.93945-2.88085c6.81621 37.72164-.8871 74.17757-6.43359 105.98242 8.04012-.0155 16.01352-.51808 23.71289-1.58203 11.45322-36.76923 18.29574-69.40156 11.8789-97.27735l15.78711-3.63672c6.99363 30.38184.66947 62.78537-9.58594 97.17969 5.98291-1.70045 11.64833-3.8389 16.86329-6.45703 20.83345-38.76939 26.52461-91.27293 6.15429-131.48438-.4448-.17027-.93212-.37486-1.39843-.5625-.46681-.1859-.91137-.3554-1.27344-.45507-4.22348-1.172-5.88413-.14235-8.20703 1.10351-1.5473.83136-3.23176 2.15281-5.90039 3.57422-2.66919 1.42026-7.28821 2.79816-11.73047 1.41602-4.00271-1.24534-6.9083-4.23032-8.49219-6.56055-1.58304-2.32991-2.41023-4.16492-3.24609-5.47461-1.67175-2.61939-2.11139-3.98074-9.01172-4.82617-2.90465-.3567-3.99288.50732-6.63282 2.92187-1.31953 1.20744-2.73312 2.7516-4.58203 4.39649-1.84806 1.64519-4.30732 3.73588-8.36328 4.35937-2.9396.44981-5.45482-.62359-6.86328-1.49804-1.40737-.87216-2.19939-1.66116-2.92969-2.36524-1.45975-1.40784-2.57776-2.6208-3.95703-3.74023-2.75793-2.24055-6.04156-4.30642-13.62695-4.11133zm-80.85742 94.52734c-20.33194 10.9953-36.95353 23.78971-48.94336 39.53516l-4.45508 21.24609a250 250 0 0 0 2.91211 1.43164c.062.1729.10176.35465.16406.52735 7.13409 3.56339 14.97577 5.69664 22.81836 8.55664-.085-.1984-.15378-.40101-.23828-.59961a250 250 0 0 0 19.17383 4.95703c.1142.2109.21518.42817.33008.63867 8.55509 2.1369 16.40584 3.56289 24.96093 4.99219-.1904-.2688-.35191-.56213-.54101-.83203a250 250 0 0 0 19.86914 1.41992c.2195.2746.42493.56339.64453.83789h11.05664 13.9043c-.2954-.3043-.56753-.62789-.86133-.93359a250 250 0 0 0 20.54297-1.46875c.099.085.19347.17526.29297.25976 7.26758-1.32074 15.09575-2.63657 22.47461-3.95898-12.78041-.47781-25.39647-1.97555-37.25977-4.31641-18.42925-3.63795-35.09443-9.07786-47.97461-15.4668-12.87956-6.39061-23.00664-12.81843-25.68164-25.80664 1.90503-11.92374 4.62771-21.49044 6.81055-31.01953z" fill="#83fc83" stroke-width="36"/><path d="m194.23437 443.53125-1.56445 7.56641s2.67081 4.4431 4.4043 6.34765c5.70714 6.27032 12.24116 11.92664 19.44552 16.39717 5.94479 3.68895 12.65242 6.03577 19.24775 8.37041 10.75236 3.80616 21.80899 6.81435 32.97661 9.13477 8.08655 1.68023 16.31461 2.66686 24.53711 3.44531 7.06493.66886 14.16789.94945 21.26371 1.04882 4.49787.063 9.00593.0461 13.49188-.28713 7.96143-.59146 15.93607-1.43258 23.75713-3.03418 3.20164-.65563 6.33029-1.64717 9.43065-2.68068 6.78061-2.26032 13.47941-4.79799 20.01758-7.68554 1.73518-.76634 5.08593-2.55274 5.08593-2.55274l2.69336-5.01367c23.39394-43.53423 30.1909-101.08702 6.35547-148.13867l-3.13672-6.19336-12.64465-4.36661c-6.16029-1.88419-17.83147 1.93565-19.662 2.91743l-.006.004-.006.004c-2.44698 1.31476-2.91985 1.71141-3.80859 2.3086-.41383-.76967-.5799-1.16465-1.86719-3.18164-.46003-.72081-2.81363-5.15178-7.85937-8.45508s-9.57479-3.99576-13.58744-4.48712c-4.01265-.49137-9.8497-.0141-14.07849 2.05943-4.22878 2.07351-6.00152 4.06196-7.4414 5.37891l-.002.002v.002c-.92331.84487-1.20499 1.14179-1.8164 1.74609-.55054-.49837-.67142-.71066-1.37891-1.28516-3.98213-3.23509-14.45566-8.41726-22.07969-8.22122-7.62404.19604-11.40038.44018-16.04895 2.45136-4.45823 1.92884-8.05281 5.92275-8.27148 6.16602-.57764-.41888-.67869-.51124-1.62305-1.14453-3.65464-2.45089-12.82404-6.67599-22.91797-7-15.71835-.50563-23.55288 7.78407-30.85351 18.06836-7.31335 10.3003-11.43681 19.9271-8.72949 35.29199 13.15466 33.72849 2.63884 56.20756-3.32325 85.0166z" fill="#2e852e"/><path d="m283.10547 322.76172c-6.32113.16291-6.98856 1.34435-8.10352 2.61328-.55764.63488-1.06495 1.51951-2.28515 3.10352-1.22051 1.58484-4.47259 4.678-8.73438 4.77734-3.64305.0846-6.83801-1.34662-8.93945-2.65234-2.10198-1.30688-3.52463-2.50406-5.00977-3.5-2.97025-1.99192-5.98613-3.71874-13.4707-3.95899-4.36085-.14028-10.83241 3.78532-15.59766 10.49805-4.67638 6.58597-6.96938 15.11291-6.1582 20.11133 15.08368 38.01992 2.42726 67.46529-2.94531 93.42578 1.42238 2.0489 6.74268 7.60335 16.45508 12.41992 4.5547 2.26011 9.85432 4.45547 15.69531 6.49805 11.38946-28.64485 17.08986-67.45217 14.9707-94.9043l16.15039-1.25c2.3385 30.26156-3.22669 69.54884-15.54101 100.86719 4.07775 1.05618 8.3043 2.02228 12.63476 2.87695 8.36294 1.64951 17.11028 2.85918 25.95703 3.53516 5.61293-32.83353 13.0591-67.95891 6.82032-102.48243l15.93945-2.88085c6.81622 37.72168-.88709 74.17754-6.43359 105.98242 8.04013-.0155 16.01352-.51807 23.71289-1.58203 11.45324-36.76926 18.29574-69.40153 11.8789-97.27735l15.78711-3.63672c6.99364 30.38187.66948 62.78533-9.58594 97.17969 5.98291-1.70045 11.64833-3.8389 16.86329-6.45703 20.83348-38.76943 26.52463-91.27289 6.15429-131.48438-.4448-.17027-.93211-.37486-1.39843-.5625-.46681-.1859-.91137-.3554-1.27344-.45507-4.22348-1.172-5.88412-.14235-8.20703 1.10351-1.5473.83136-3.23175 2.15281-5.90039 3.57422-2.66919 1.42026-7.2882 2.79817-11.73047 1.41602-4.00271-1.24534-6.9083-4.23032-8.49219-6.56055-1.58304-2.32991-2.41022-4.16492-3.24609-5.47461-1.67175-2.61939-2.11138-3.98074-9.01172-4.82617-2.90465-.3567-3.99288.50731-6.63282 2.92187-1.31954 1.20744-2.73312 2.7516-4.58203 4.39649-1.84806 1.64519-4.30732 3.73588-8.36328 4.35937-2.9396.44981-5.45482-.62358-6.86328-1.49804-1.40737-.87216-2.19939-1.66116-2.92969-2.36524-1.45975-1.40784-2.57776-2.6208-3.95703-3.74023-2.75793-2.24055-6.04155-4.30642-13.62695-4.11133z" fill="#83fc83" stroke-width="36"/></svg>