<svg height="500" viewBox="0 0 500 500" width="500" xmlns="http://www.w3.org/2000/svg"><g transform="translate(.000015)"><circle cx="-249.99998" cy="250" fill="#e51a1a" r="250" transform="scale(-1 1)"/><path d="m181.33938 83.856939c97.52275-31.84694 203.27597 26.159281 217.12696 131.568651 10.04116 85.89723-45.79566 162.6049-131.11288 174.6444-76.26503 6.65-147.16573-45.4981-149.44603-126.3231.16679-50.89801 30.03241-87.97493 76.60677-108.40662 44.00125-16.48183 90.46555-3.00917 112.28155 39.63622 17.95322 40.0953 3.57775 87.31302-40.4313 103.80676-21.98685 8.23292-51.6578-5.55285-56.72562-31.5612 24.48155 21.7253 69.7211 11.74379 80.1808-21.06198 5.24648-24.88185-11.48198-41.52298-24.36368-55.64156-23.21161-15.22125-63.26956-13.16738-85.32502 12.05139-41.51846 46.43224-18.48961 112.52397 35.72777 131.08081 60.66482 17.11352 118.96473-29.63961 126.96137-92.39988 2.7637-54.83226-40.99398-106.19486-96.51046-114.27807-76.21988-10.3001-138.45939 50.84936-147.743191 124.09106-9.31956 73.21828 47.315731 138.67973 111.863041 158.33924 49.05305 9.49897 98.18701 2.07129 139.64056-27.40671 82.90715-58.95602 100.11901-177.97214 43.55644-260.39974-52.71171-79.885311-158.575-103.987181-249.15842-67.061741-86.705021 39.45169-149.0660905 134.549061-117.102931 229.167621 15.77888-74.65377 50.93986-153.5943 123.407351-187.514491 9.28724-4.60517 19.44718-8.7232 30.56692-12.33106zm-160.722321 286.075591c-52.57825-113.8254-.38403-260.89182 113.777041-317.643861 10.84604-5.32012 22.21219-9.7712 34.03518-13.36069 115.76394-28.75816 246.03978 34.00351 263.68455 158.897471 10.04526 85.91695-27.72044 168.80365-107.97396 206.83173-102.24035 46.26108-224.798841-11.43986-234.690511-131.24969-7.33455-123.78718 127.307171-194.136761 222.718561-137.24102-42.54074-27.89653-94.21826-33.44528-140.80825-12.98978-71.17376 32.62266-105.080851 118.0397-80.762351 190.63139 30.697281 88.13423 123.572931 132.04164 212.817841 105.59803 82.80488-25.06359 132.16266-100.33164 140.19255-180.04986 12.12434-145.020371-132.23823-245.3588802-265.59709-221.973611 7.92036-4.10499 20.5989-8.4277792 35.61563-11.7452592 60.06317-13.23825 124.63426-3.45807 179.45368 32.4903392 109.65077 71.904621 141.09454 217.803071 65.16008 333.599141-143.00482 218.07486-377.311781 117.06797-437.622951-1.79433" fill="#b21a1a"/></g><path d="m73.53125 264.70117 73.63672 34.36914c-4.15862-18.22078-2.16274-40.94788 10.50781-62.64843l27.4961-47.0918-50.12696 21.46875c-24.79249 10.61841-46.055033 29.99782-61.51367 53.90234z" fill="#861313"/><path d="m90.085938 272.42773 37.074222 17.30469c-1.50623-19.78617 2.92651-41.75891 14.9707-62.38672-20.05106 8.5877-38.36113 24.84373-52.044922 45.08203z" fill="#ff8066" stroke-width="36"/><g transform="matrix(.8341948 -.55146989 .55146989 .8341948 -259.310031 203.342398)"><path d="m351.16211 34.345703h-.004c-.6931-.127682-1.95435-.399498-3.64648-.664062l-53.40616-8.351563 39.26367 40.251953c25.37699 29.56634 28.74745 84.730959 7.5625 117.765629-10.57843 16.49689-37.57866 37.85407-49.94731 38.98687l17.11509 46.36055c45.76031 8.41537 89.57696-16.94219 113.67578-56.89063l9.57031-26.45507c1.41764-4.70028 2.59005-9.53449 3.49805-14.48442 11.63236-63.33545-24.49437-125.629886-83.68145-136.519257z" fill="#861313"/><path d="m417.13994 167.61491c10.08651-54.90904-20.93347-106.680962-69.23712-115.56604-1.00612-.185224-2.17684-.428381-3.17074-.583777 1.33075 1.364623 2.57106 2.480177 3.85585 3.986538 30.12079 35.361853 33.5385 97.004609 7.49645 137.613169-11.00585 17.16345-26.8969 28.87003-42.2999 32.77714l-2.42873 25.1498c44.53355 8.18977 88.28681-22.91174 102.75551-70.84074 1.22601-4.06142 2.24157-8.24622 3.02868-12.53609z" fill="#ff8066" stroke-width="36"/></g><g><path d="m143.29297 206.14453-31.62109-13.71289 1.49609.73242c-21.171927-11.61699-45.159299-3.34978-57.076173 12.16797-5.958437 7.75888-9.73821 18.01168-8.119141 29.11133s9.366904 21.54704 20.042969 27.64844l.646484.36914 98.859371 46.10937 22.25977-29.30469c.38611 11.14572-3.44869 22.17273-12.21289 34.50977-4.33281-.18724-8.7754-.51482-12.9375-.48633h-.002c-19.59571.13514-36.86467 2.44871-51.42774 7.95313-14.563068 5.50441-28.085035 15.37462-32.349608 31.28711l-5.628906 21.00586 6.107422.45312c1.856441 6.46344 5.062246 12.55522 8.966797 17.94922 8.043205 11.11141 19.366975 20.83623 33.250005 30.01953l.75195.49609.79687.41993c3.11617 1.63977 6.07108 3.01295 9.10742 4.52539l-29.61914 71.74218 128.76954-40.13671c12.51002 1.81049 25.62306 3.07407 39.76953 3.97461l118.67583 37.02148-28.58399-69.19922 5.96875-3.57226c16.32061-9.76781 29.65726-20.22746 39.1875-32.09961 9.53025-11.87215 16.03237-26.96424 11.84571-42.59375-5.11196-19.08178-22.64371-29.11122-41.35743-34.17579-16.09861-4.35683-35.23677-5.63608-56.4414-4.63671-7.4766-11.26838-10.62987-21.58458-10.3711-32.05274l20.42969 26.9043 98.86133-46.11328.64648-.36914c10.67626-6.10116 18.42407-16.54864 20.04297-27.64844 1.61891-11.0998-2.16243-21.35254-8.12109-29.11133-11.91731-15.51758-35.90394-23.7835-56.3252-12.53417l-30.86425 13.33495-35.64649-53.41015c-5.32132-5.64077-11.83202-10.05663-19.02344-13.61719 1.76342-4.19414 3.28641-8.72161 4.17969-13.27344 1.83771-9.36426 3.62854-19.07314 2.35938-28.531249-2.07983-15.499403-5.7983-32.277706-16.05569-44.082078-10.49374-12.076372-26.36556-22.561211-42.36423-22.558547-15.99008.0027-31.80172 10.529171-42.33399 22.560547-10.04136 11.470594-13.78879 27.765143-15.98047 42.851563-1.36223 9.376864.21298 19.043424 1.94336 28.359374.93394 5.0281 2.57239 10.04893 4.51758 14.66211-10.69223 5.29508-19.92056 12.35916-25.82519 22.10449z" fill="#861313"/><path d="m250.1675 48.660828c-10.5912 0-20.4084 5.5233-28.0404 15.498-6.5403 8.5446-11.1573 20.286-12.348 33.525 10.026-4.4334 20.2257-7.119 30.4317-8.1v16.564502c-9.8685 1.2393-19.8072 4.5072-29.8413 9.927 1.7712 11.2383 6.0327 21.1518 11.7567 28.6326 7.632 9.9738 17.4483 15.498 28.0395 15.498s20.4363-5.5242 28.0692-15.498c5.5503-7.254 9.7047-16.8003 11.5587-27.6192-10.863-6.1488-21.7746-9.8973-32.7654-11.1096v-16.480802c11.4084.9783 22.698 4.0644 33.6096 9.1692-1.0395-13.6422-5.7024-25.7526-12.402-34.5096-7.6338-9.9738-17.478-15.498-28.071-15.498zm-100.0683 180.056702-45.5904-19.773c-26.437499-14.5062-55.416599 21.6-27.561599 37.5192l85.022999 39.6567 34.227-45.0576c16.83 30.3327 15.093 60.687-9.873 91.0404-7.5096-.5778-14.733-.8622-21.5703-.8154-36.2808.2502-62.0478 9.2286-66.516299 25.902l.027.002c-3.996 14.922 9.892799 33.003 35.213399 49.752 50.1075 26.3673 85.842 34.6212 141.2712 38.1096h1.4058l.3942.1125c.3816.0234.7407.063 1.125.0846l-.0288.2826 82.8567 25.848-19.971-48.348-162.1656-53.8596 5.2875-15.948 64.629 21.4605 64.6605-21.4596 5.2875 15.9471-43.2846 14.373 84.9942 28.2366c30.1446-18.0414 47.2752-38.2212 42.8904-54.5904-5.355-19.989-41.3325-28.8963-89.325-25.0038-23.7528-29.8935-23.5764-59.769-8.577-89.6625l33.102 43.5951 85.023-39.6576c27.855-15.9183-1.125-52.0254-27.5634-37.5183l-45.6192 19.771-37.4346-57.9933h-.0558c-3.7953-6.5214-10.9215-12.2364-20.277-16.5375-.18.243-.3528.4923-.5355.7317-10.1412 13.2525-24.8697 22.1058-41.4 22.1058s-31.2588-8.8533-41.4-22.1067c-.1827-.2385-.3546-.4887-.5346-.7308-9.3978 4.32-16.551 10.0638-20.50245 16.58025zm.8163 205.3683-15.048 36.45 62.8884-19.602c-15.8616-4.1166-31.437-9.5706-47.8404-16.848z" fill="#ff8066" stroke-width="36"/></g><path d="m500 0s-8.57403 41.058919-16.33398 60.427734c-11.58319 28.911636-28.37587 55.773026-44.64194 82.082726-36.19826 58.54919-78.64906 110.89177-123.2897 150.34696-21.21433 18.75114-48.71294 35.68656-75.5254 43.85742-26.81244 8.17088-51.73912 7.83731-72.4707-4.74804-9.40706-5.71194-17.11306-17.74872-20.57031-32.89649l-73.63672-34.36914c-4.920152 7.6083-9.264182 15.66518-12.931641 24.05664-15.190255 34.75665-18.825515 76.24169-.951171 113.43164 26.209639 54.53035 76.031362 82.81018 132.816402 88.53125 56.78456 5.72104 121.25724-8.90254 185.62305-36.35351 57.59503-24.56218 94.19936-42.98017 132.11328-69.31641l7.73047-5.36914-.002-311.542968z" fill="#861313"/><path d="m499.92969 68.138672c-44.05092 92.929038-105.17081 178.896158-172.27344 238.205078-45.80429 40.48788-116.97728 72.74849-169.25977 41.00977-17.77208-10.79115-29.31891-32.43347-31.23632-57.6211l-37.074222-17.30469c-23.662324 34.99655-33.451571 81.93425-14.212891 121.96289 47.083233 97.9588 170.254283 96.68624 295.154293 43.41797 57.14965-24.37223 92.19898-42.0443 128.9043-67.54101v-34.14258c-63.86921 45.21713-119.73906 75.72979-203.13672 99.35547 80.5345-37.35293 134.37469-72.93232 203.13477-128.5332v-56.12696c-69.87708 74.80088-150.51343 120.0837-230.91797 159.90039 82.76954-49.35267 160.74694-114.13339 230.91797-192.17968v-45.66407c-44.23245 59.20876-100.68443 106.18001-155.55469 154.73243 56.53906-62.32408 111.07677-126.25123 155.55469-198.23829z" fill="#ff8066" stroke-width="36"/></svg>