<svg height="500" viewBox="0 0 500 500" width="500" xmlns="http://www.w3.org/2000/svg" xmlns:xlink="http://www.w3.org/1999/xlink"><filter id="a" color-interpolation-filters="sRGB" height="1.096011" width="1.095989" x="-.047995" y="-.048005"><feGaussianBlur stdDeviation="8.3862018"/></filter><g transform="translate(-1000 -500)"><circle cx="1250" cy="750" fill="#8f29a3" r="250"/><path d="m1250.0521 500.09326-.061 248.75004-15.9199-248.2399a249.99917 250.18666 0 0 0 -31.6776 4.06945l45.0428 231.17052c-.102.0363-.2268.0547-.3789.0547l2.377 12.94521-.25-.53361-.5352-1.34279-3.3574-10.61339c-.1814.0698-.3456.12506-.5117.12506l-.1211.0782-83.1951-220.24831a249.99917 250.18666 0 0 0 -14.7401 6.13348l96.9 214.60543-.2187.11532 2.3047 4.43886 2.3437 5.21678.055.0488.416.7486.7461 1.26658v.0314l-.7461-1.29782-.4707-.79746-5.5273-9.21c-.1841.12151-.3808.23754-.5664.39678l-123.4077-200.53639a249.99917 250.18666 0 0 0 -34.1776 25.40763l164.5483 186.40079-.3984-.58052.832 1.02616v.0508l-.3262-.32448-.094-.12903v-.006-.002l-176.1809-175.46484a249.99917 250.18666 0 0 0 -21.0273 24.05115l186.5306 143.42536-.1425.18569 10.4687 8.26398-2.0957-1.07698-9.4082-5.66242c-.1395.18156-.2273.33335-.3066.47301l-208.0031-109.74966a249.99917 250.18666 0 0 0 -7 14.40723l214.5266 96.34337c-.074.17741-.1655.3791-.2578.59419l12.1758 4.73596-.037-.0253.5254.23653-.4863-.21109.3574.18179.2129.0802-.2129-.0508v-.0295l-12.8066-4.08117c-.056.14944-.1255.33501-.1758.5082l-224.9661-68.33223a249.99917 250.18666 0 0 0 -8.7656 41.69908l246.1613 30.77687h-1.2363l-246.3644-14.82161a249.99917 250.18666 0 0 0 -.4219 14.51082 249.99917 250.18666 0 0 0 .6113 17.47203l234.4934-16.18786h-.027l.3066-.0234-.2773.0234 12.9687-.73492-7.6699 1.8549-.3028.0508-4.789.9382.07.23845-228.2004 55.91086a249.99917 250.18666 0 0 0 4.2871 15.37279l224.173-70.26921c.093.36314.1859.69573.2793.95971l11.9648-4.46623-6.7285 3.52803-218.2141 100.03556a249.99917 250.18666 0 0 0 21.0155 36.99246l204.0072-139.70972-2.9414 2.38851-191.599 150.2058a249.99917 250.18666 0 0 0 21.2792 23.80097l164.7143-167.43742c.2793.26396.5666.50585.8359.80333l7.6309-8.62753v-.0314l.7578-.86587.1855-.23653.7754-.84633.02-.0645.057-.0272-.023.15832-.1035.11531.051-.18179-.068.18179-1.3203 1.73762.6133-1.0457-.1856.20916-.7578.89715-2.5996 3.67852-4.2753 5.57643.287.1818-133.9214 192.92518a249.99917 250.18666 0 0 0 13.3768 8.68037l121.3629-200.99764c.1115.0698.2562.1641.4043.23263l6.9082-11.76855-.2793.71929-100.1481 226.51466a249.99917 250.18666 0 0 0 40.1346 13.79743l59.6931-236.78211-1.5742 9.22563.2364.0566-42.7675 230.89101a249.99917 250.18666 0 0 0 31.6386 3.76263l12.9316-234.50119c.2415.0238.455.0234.6602.0234h.031v-12.36276l.055-.87175.3809 3.35211.6328 9.85892c.1939 0 .3385-.0234.5058-.0234l27.248 233.23258a249.99917 250.18666 0 0 0 15.7831-2.3455l-42.1484-231.0161c.254-.028.4739-.0916.707-.11531l-2.0644-10.71502-.055-.13878-.3203-1.79235.018.0295.3575 1.90182 74.3923 234.18055a249.99917 250.18666 0 0 0 39.205-16.19959l-111.1503-215.75097 4.1406 6.7179.2696-.18569 120.6715 201.44522a249.99917 250.18666 0 0 0 26.2108-18.10533l-145.5071-184.32505c.254-.18717.4204-.39029.6562-.60397l-8.457-9.554 3.3672 3.03156 5.8437 5.83834.2872-.30686 174.8256 156.82795a249.99917 250.18666 0 0 0 10.2715-12.18293l-184.478-145.35845c.1296-.15783.305-.33279.4082-.48083l-9.3632-7.21437 211.5852 126.78601a249.99917 250.18666 0 0 0 18.7245-38.19257l-229.6555-89.16613 11.0274 3.36579.012-.18569 223.9289 70.91228a249.99917 250.18666 0 0 0 7.6836-30.99187l-231.1887-41.80463c0-.16199.037-.30149.037-.44955l-7.3671-.90693-4.5508-.79941 12.0312.70755c.03-.32965.029-.62841.029-.96361l235.009 1.78454a249.99917 250.18666 0 0 0 .011-2.19892 249.99917 250.18666 0 0 0 -.3809-13.81303l-234.6691 13.37131v-.33226l-11.7754.81114-2.207.14075 2.1641-.14075h.043l242.6422-45.60435a249.99917 250.18666 0 0 0 -11.2772-41.04821l-231.0032 85.65376-.2598.0684 10.5078-4.79069c-.1716-.35894-.395-.80876-.6601-1.20402l208.1651-109.51534a249.99917 250.18666 0 0 0 -7.877-13.90491l-200.7337 122.63837-.2109-.32833-5.6211 3.9033-4.707 2.86542 9.6699-7.59747-.1446-.20719 183.392-147.45376a249.99917 250.18666 0 0 0 -29.3651-30.85701l-161.2514 182.96656-2.3184 2.37091 151.2905-195.53064a249.99917 250.18666 0 0 0 -26.4154-17.96062l-119.2496 202.94829-.094-.0664-7.0644 11.68841 5.539-12.45265c-.2748-.15364-.5655-.24794-.8711-.35962l83.404-220.18189a249.99917 250.18666 0 0 0 -15.121-5.19332l-69.2811 225.07807c-.1088-.0378-.2229-.0651-.3808-.11531l-1.8809 7.53882-1.1289 3.69807 2.1055-11.46558c-.2011-.0197-.4082-.0561-.6133-.0743l40.1268-232.08917a249.99917 250.18666 0 0 0 -42.4354-3.64138zm-1.9453 235.66215 1.0117 8.77021v.043l.8711 4.45646v.46128l.029-.16807.023.62741v.1036l-.057-.1036v-.43977l-.066.30686-.2383-.49451-.5625-4.74964zm-9.3652 5.00568 7.0859 6.37391-.025-.0197zm25.7675 6.02013-11.8261 2.9006h-.057zm-12.1504.11531-1.6269 2.78332-.3496.40069.1113-.44954-.092.20719-.02.18179-.051.10553v-.0253l.051-.0802v-.16221l.02-.0197v-.10556l.012-.0234.082-.12118v-.0234l.033-.0272.061-.1505v.0197l-.061.13096-.033.0508zm-6.5292.23849 3.3242 2.54682.3633.56682-.4493-.16807.2012.13878h-.022l-.2188-.13878h.037zm5.0331.24627-.2968 1.58908.2968-.84047-.3339 1.37603-.1016.1505.1387-.68606.2617-1.56758zm-.582.38505-.086 1.71808-.057.19351-.1172-.46715zm3.1445.7447-2.2754 1.58908h-.023l-.4121.27757-.2871.11728.2129-.27557.074-.0215.8867-.71342zm-4.0429.57856.1348.14075v.0469l-.084-.1251zm3.8633.31665h.029l-.1738.0802zm-3.5254.18179.1835.3577v.0392l-.1835-.35376zm.416.0938.02.26385v.0392l.039.0958.047.11728-.047.0215-.039-.1192.039-.0197-.039-.0605v-.0352l-.057-.26192zm2.2207.0644-.07.0272-1.0156.30686.1562-.0605zm-5.6387.0665 2.3692.40655.3457.21498.029.0606-.3124.0644zm2.1641.31271h.053l.094.0314zm.7265.19155h.02v.0196zm-.164.0606h.02l.074.0802zm.2148.1818h.024l-.024.0314zm-.3359.16808h.057l.2461.0352-.8125.32836zm-.3887.0352h.2168l-.9316.47886.2637-.0527-.025.0272-.2383.0253-2.0253.39287v.0234l-5.2422.93428 5.2422-.95774zm1.7774.0234.5078.043.7519.2228-.8457-.0841zm-.2188.16418.035.0178.1113.22088.3282.16611 1.4394 1.4034-1.3496-1.00858-.2344-.2971-.1855-.26385-.018-.0333-.092-.18766h-.035zm-1.0625.0802-.25.27364h-.029l-2.7812 1.26461 2.2988-1.41316zm1.5703.0997.1485.0253.031.0314zm.2207.0253 1.9356.60398-1.9063-.57074zm-1.1796.17201.031.1251.022-.0978-.022.13092v.006l.076.23066.125 1.89594-.2324-1.35256.031-.77402-.088.50819v-.0919l-.031-.18569.031.14272v-.26385zm.7226.0919.061.0664.088.14661-.037-.0314zm-1.1406.1818-.2442.52578-3.9492 12.85138 3.9219-12.85138h.027l.084-.28732.01-.0117zm-.088.10552-.065.11339.041-.0978zm1.4648.0802.033.0234.1152.18962-.092-.0919zm-.4375.21306.023.0295.029.22669zm-1.7304.26581v.0295l.051-.0295zm2.2929 1.35257 4.8828 10.7893-4.8828-10.73457z" fill="#aa40bf"/></g><path d="m300.75195 40.375c-28.34472.31077-56.56603 8.472091-80.66118 23.412657-24.9292 15.402251-45.43187 37.890333-58.3993 64.174103-3.88558 7.79153-6.97398 15.95083-9.66728 24.22235-.29103.40465-1.01442.37294-1.47006.61547-18.22843 5.96026-35.52466 14.90258-50.708514 26.64148-5.852429 4.53241-11.267908 9.60432-16.337804 14.99253-17.443675 18.28775-30.352262 40.86607-37.213385 65.19273-7.851363 27.60421-7.966895 57.36022-.295825 85.01767 2.075238 7.68014 4.889741 15.14611 8.241632 22.35796 9.251548 20.07787 22.35755 38.49156 38.967081 53.14616 17.494515 15.54143 38.515155 27.0906 61.035495 33.46043 26.84143 7.65086 55.71451 8.01971 82.73948 1.03907 24.49783-6.28404 47.41954-18.62013 66.1197-35.65304 19.39081-17.57411 34.31524-40.04739 42.89428-64.77729.75386-2.13251 1.47247-4.27701 2.19514-6.4204 24.72395-7.3824 47.537-21.04214 65.72028-39.3491 17.00389-17.02119 30.02883-38.0031 37.63399-60.83484 8.95203-26.71661 10.55915-55.84144 4.60776-83.3819-5.04634-23.51546-15.57414-45.84507-30.60142-64.631117-17.02403-21.382877-39.70077-38.240387-65.14748-48.239716-18.92262-7.479608-39.30772-11.228253-59.65259-10.985207zm-9.17773 94.66016c16.04709-.0369 32.08674 5.29626 44.79229 15.12588 4.24545 3.2518 8.12588 6.97608 11.57099 11.06552.29958.36372.8337 1.0005 1.21093 1.48178 2.5178 3.14424 4.76983 6.49892 6.7461 10.00846.20614.37647.59754 1.07942.86302 1.59038 8.10422 15.23363 10.49442 33.37708 6.71318 50.20461-.33447 1.51116-.67526 2.85024-1.10745 4.36126-.22739.76619-.53919 1.80869-.82952 2.67389-3.04733 9.20177-7.93232 17.79312-14.30134 25.1015-6.43673-20.33927-16.31838-39.74738-30.13549-56.08204-9.02767-10.71533-19.72462-19.93984-31.21412-27.91992-12.79742-8.82201-26.89912-15.82269-41.82422-20.2246 9.76153-8.35892 21.79684-13.99054 34.44336-16.23829.70152-.11812 1.71114-.29029 2.5323-.40541 1.13439-.16282 2.58853-.33506 3.85984-.44552 2.26626-.20756 4.44523-.28252 6.68013-.2975zm-71.80078 84.14453c10.06395 1.35734 20.00769 4.53896 28.48864 10.21975 6.69726 4.45348 12.66922 9.9801 17.76226 16.197 7.47336 9.2607 12.49758 20.41616 14.63963 32.09451.22711 1.20746.4232 2.421.58408 3.63913-3.73983-.52177-7.43758-1.34267-11.05078-2.43946-.74959-.22545-1.78376-.56017-2.63282-.85156-8.71319-3.01187-16.86751-7.65741-23.83789-13.69726-1.0328-.88367-2.20705-1.95921-3.24738-2.96925-3.47884-3.37514-6.64439-7.07557-9.3952-11.06786-.53486-.78839-1.21529-1.80441-1.77455-2.70368-2.52611-4.03884-4.65347-8.3253-6.35435-12.77484-.28267-.7616-.66299-1.79072-.95407-2.66931-1.15567-3.41994-2.04845-6.92751-2.68265-10.48108-.11948-.70008-.28759-1.7083-.4082-2.52734.031-.18584.66425.061.86328.0312zm-66.80469 26.20117c7.73477 24.29248 21.53404 46.61427 39.78605 64.41207 15.673 15.35769 34.64772 27.31232 55.25602 34.84394 1.86608.6888 3.74786 1.33505 5.63762 1.95493-4.82292 2.50067-9.79396 4.71509-14.87696 6.63281-.89016.3263-1.97032.72955-2.85937 1.03711-3.45344 1.20434-6.99961 2.28279-10.47723 3.15983-1.91649.48924-3.96263.95279-5.74152 1.31283-1.63389.32595-3.45658.63925-4.98633.88476-11.56545 1.76005-23.5621 1.67286-34.89062-1.45898-2.82581-.80883-5.595-1.81925-8.26368-3.05274-.58007-.26846-1.43679-.68815-2.11279-1.04365-6.21226-3.19088-11.62055-7.87019-15.75668-13.49073-8.16529-10.88383-14.08087-23.47448-17.11295-36.74492-.17894-.80247-.40442-1.8922-.57194-2.80943-1.1248-5.95708-1.39566-12.10167-.42784-18.10072 2.03655-14.2498 8.12285-27.80057 16.88845-39.17188.16993.54493.33985 1.08985.50977 1.63477z" fill="#eed9f2" filter="url(#a)"/><path d="m302.61133 44.363281c-39.13981 0-78.40858 15.037843-108.24024 44.865235-.002.0016-.0019.004159-.0039.005859-.001.001-.00291.000904-.00391.001953-17.27236 17.256752-29.54887 37.672672-36.8789 59.300782l-2.37891 7.01758c-24.64897 7.42756-49.29217 21.47029-66.041017 38.90429-42.827881 42.86179-54.957949 105.03165-36.207031 158.74805l.054687.15625.056641.1543c8.060003 21.80091 20.8538 42.01877 36.240234 57.37109l.00586.00586c.0013.001.002606.00291.003906.00391 59.70991 59.65401 156.93318 59.65273 216.60156-.01563 17.27913-17.27911 29.54973-37.72399 36.87891-59.34961l2.36523-6.97851c24.14056-6.91012 46.91066-19.80135 65.875-38.79102l.00391-.00586c59.66026-59.66567 59.65735-156.82407 0-216.517576l-.00195-.001953-.00196-.001953c-29.84533-29.845597-69.18487-44.873047-108.32812-44.873047zm-11.03906 86.671879c19.91048 0 39.68425 7.49354 54.87109 22.64843 30.37882 30.37882 30.37021 79.35897.01367 109.65039l-.01367.01368-.01367.01367c-.34288.34362-.71876.63097-1.06641.96679-8.76124-31.11959-23.85977-56.82636-46.04297-76.13867-18.56416-16.21856-39.35519-28.0011-63.21484-33.77343.23095-.23659.42919-.48771.66406-.72266l.00391-.00391.00586-.00586c15.20514-15.17376 34.88203-22.64843 54.79297-22.64843zm-56.45899 23.11328.20703.05078c-.0298-.007-.06004-.01223-.08984-.01953-.0397-.009-.0775-.02205-.11719-.03125zm-20.73242 60.39258c20.29009 1.81013 34.54699 7.76782 49.04883 22.20898l.01562.01562.01563.01563c13.68166 13.55896 20.98644 31.06152 22.2832 49.05859-17.83901-1.34997-35.30463-8.80263-48.95117-22.47851l-.00586-.00781-.00781-.00586c-13.64189-13.64189-21.04136-31.0485-22.39844-48.80664zm-60.10742 20.88476c6.56901 25.78287 19.95905 50.2071 40.08984 70.33789 19.91582 19.91582 44.0516 33.03622 69.54688 39.66602-21.67774 13.1045-45.06507 19.61883-65.00391 19.33789-20.73088-.2921-36.94215-7.21194-47.2832-20.32031l-.00782-.00977-.00781-.00977c-13.88892-17.55527-21.43343-40.69416-20.58398-56.4082 1.24692-19.87674 10.76917-39.21118 23.25-52.59375z" fill="#6a1f7a"/><path d="m302.61184 62.363396c-34.56 0-69.12 13.2-95.52 39.600004-15.28 15.264-26.08 33.232-32.56 52.352 13.52-1.92 26.32-2.16 38.96-.88 3.12-4.4 6.64-8.56 10.56-12.48 18.64-18.608 43.04-27.92 67.52-27.92s48.96 9.312 67.6 27.92c37.28 37.28 37.28 97.92 0 135.12-37.2 37.28-97.92 37.28-135.12 0-17.76-17.76-27.12-40.88-27.92-64.16-9.2 1.44-18.24 4.48-26.56 9.12 4.64 26.4 17.12 51.6 37.52 72 52.8 52.8 138.32 52.88 191.12 0 52.8-52.8 52.8-138.24 0-191.072-26.4-26.400004-61.04-39.600004-95.6-39.600004zm-139.28 109.472004c-22.32 6.16-47.152 20.32-61.4 35.2-37.999999 37.92-48.639999 92.8-32.079999 140.24 7.128 19.28 18.848 37.68 32.079999 50.88 52.84 52.8 138.36 52.8 191.16 0 15.28-15.28 26.08-33.28 32.56-52.4-12.96 2-26.08 2.32-39.04.96-3.04 4.32-6.56 8.48-10.48 12.4-50.16 31.76-110.24 32.48-138.64-3.52-16.456-20.8-25.64-47.04-24.44-68.64 2.064-33.28 21.48-63.92 46.2-78.8 8.16-4.72 30.08-12.08 49.28-12.08 26.96 1.2 48.48 8.88 67.6 27.92 17.84 17.68 27.04 40.88 27.84 64.24 9.28-1.44 18.32-4.48 26.64-9.12-7.52-33.28-21.52-58.56-43.12-77.36-17.12-14.96-35.28-25.12-56.48-30.08-22.72-5.6-46.88-5.2-67.68.16z" fill="#eed9f2" stroke-width="36"/></svg>