<svg height="500" viewBox="0 0 500.00052 500" width="500.00052" xmlns="http://www.w3.org/2000/svg" xmlns:xlink="http://www.w3.org/1999/xlink"><radialGradient id="a" cx="249.99998617249" cy="750.00002617249" gradientUnits="userSpaceOnUse" r="250.00000617249"><stop offset="0" stop-color="#d5f6ff"/><stop offset=".09472227" stop-color="#d5f6ff"/><stop offset=".20889115" stop-color="#aef"/><stop offset=".41332352" stop-color="#80e5ff"/><stop offset=".54340753" stop-color="#5df"/><stop offset=".74956214" stop-color="#2ad4ff"/><stop offset="1" stop-color="#0cf"/></radialGradient><radialGradient id="b" cx="250.00002" cy="749.99994" gradientTransform="matrix(.0000002 -.99999868 .99999894 .00000003 -499.9992 999.9996)" gradientUnits="userSpaceOnUse" r="250.00026"><stop offset="0" stop-color="#d5f6ff"/><stop offset=".80876225" stop-color="#d5f6ff" stop-opacity=".498039"/><stop offset="1" stop-color="#d5f6ff" stop-opacity=".1"/></radialGradient><filter id="c" color-interpolation-filters="sRGB" height="1.05396" width="1.05404" x="-.02702" y="-.02698"><feGaussianBlur stdDeviation="6.8289588"/></filter><g transform="translate(0 -500)"><circle cx="250" cy="750" fill="url(#a)" r="250"/><path d="m250.5954 750.5602c-.0408.006-.1266-.0175-.17105-.0361-.0445-.0186-.0476-.0324.0769-.007-.12491-.0254-.10839-.0312-.0548-.0267.0536.004.14433.0192.16778.0347-.0232-.0155.0811.0108.16055.0336.0795.0228.13397.0421.011.0128.12284.0293.0546.0293-.0341.0205-.0887-.009-.19795-.0265-.15713-.0326l.00037.0004zm-.0786.0862c-.017-.008-.002-.009.013-.007.0154.001.0314.005.0172.007.0132-.002.024.002.0271.005.003.003-.002.006-.0191.003.017.004-.002-.002-.0199-.007-.0183-.005-.0364-.001-.0186-.001h.00015zm.39012.51097c.18919.17747.0741.10822-.0693-.00052-.14334-.10874-.31494-.25696-.23878-.23744-.0762-.0193-.15024-.0749-.175-.10563-.0248-.0307-.00021-.0365.1209.0437-.12095-.0799-.20967-.16284-.22861-.19259-.0189-.0298.0319-.006.19011.12629-.15799-.13264-.24085-.20382-.24329-.20725-.002-.003.0756.0609.23929.19925-.16384-.1385-.24576-.20775-.24576-.20775s.0819.0693.24576.20775c-.16384-.1385-.2604-.23503-.27055-.25406-.0102-.019.0661.0394.24785.21096-.18141-.17161-.27698-.25742-.28041-.25742-.003 0 .0853.0858.27241.25742-.18727-.17161-.28091-.25938-.28091-.26036 0-.00099.0936.0848.28091.26036-.18727-.17554-.276-.26135-.27254-.26036.003.00098.0991.0888.28054.26036-.18141-.17161-.26239-.25452-.25564-.25206.007.002.10124.0902.27074.26006-.1697-.16969-.25455-.25453-.25455-.25453s.0849.0848.25455.25453c-.1697-.16969-.2643-.25746-.27106-.25992-.007-.002.0743.0804.25596.25192-.18141-.17161-.2536-.22524-.24103-.20279.0126.0224.10991.12097.26753.25369-.15798-.13264-.18728-.17361-.15374-.1561.0335.0175.12991.0935.22324.1948-.0935-.1014.084.0693.23753.22092.15356.15164.26962.0942.0939.10673h-.00007zm3.66289 1.60326c1.17612.62414-.0829-.0449-1.34871-.71678-1.26582-.67193-2.53847-1.34678-1.38967-.73434-1.1488-.61244-1.74564-.92744-1.76017-.93376-.0145-.006.55325.29602 1.73367.91826-1.18-.62219.0995.0566 1.37996.73482 1.28047.67827 2.56191 1.35605 1.38579.73191l-.00044-.00006zm-2.41463 2.46924c0 1.05323-.0439-.0868-.56366-1.22877-.51978-1.14197-1.03957-2.2859-.56366-1.24047-.47591-1.04543-.71387-1.57595-.71387-1.58136 0-.005.23796.51427.71387 1.56926-.47591-1.05519.0439.0917.56366 1.239.51979 1.14734 1.03958 2.29516.56366 1.24193v.0002zm-1.62663-4.26364c-.004.002-.0156-.0157-.0223-.0279-.007-.0122-.008-.019.007.005-.0151-.0232-.0161-.0309-.0118-.029.004.002.0138.0135.0198.029-.006-.0155.008.006.0189.0261.011.0201.0195.0386.004.017.0151.0216.009.0177.00093.008-.009-.01-.0198-.0256-.016-.0279h-.00025zm-.0896-.14045c.006.0155-.009-.006-.0211-.0261-.0121-.02-.0215-.0386-.005-.017-.0151-.0216-.0131-.0216-.007-.0142.006.007.0166.022.0182.0297-.002-.008.0115.0108.0216.0258.0101.0151.0168.0267.001.005.0151.0216.0161.0285.0118.026-.004-.002-.0138-.0142-.0198-.03l.00025.0003zm-.10167.30429c.008.0293 0-.0107-.008-.0478s-.0165-.0714-.0109-.0307c-.006-.0409-.005-.0575-.002-.0555s.008.0224.01.0555c-.002-.0331.005.009.01.0492.005.0405.009.0794.001.0404.008.0393.0113.0508.0113.0453 0-.006-.004-.0282-.0113-.0574l-.0002.0005zm.20674-.95957c-.28235.20633-.40371.25065-.38125.22195.0225-.0287.1805-.14171.43225-.28385-.25162.14238-.31209.19407-.26729.18087s.19489-.0913.36439-.20847c-.1697.11705-.30817.18923-.34518.19893-.037.01.0275-.0431.26358-.17593-.23604.13265-.21639.0897-.12171.0146.0947-.0751.26438-.18239.32845-.17852-.0643-.004.18737-.15612.38142-.25898.19406-.10286.33055-.15645.036.0366.29452-.19312.0887-.0439-.15313.12434-.24186.16824-.5198.3555-.36958.23845-.15023.11706-.22923.17558-.23166.17558-.002 0 .0717-.0585.22766-.17558-.15609.11706-.29849.21945-.3428.24967-.0443.0302.009-.0117.2457-.18337-.23601.17161-.39788.27497-.42808.28664-.0302.0117.0713-.0684.36198-.26354l-.00039.00029zm-.30425.0509c-.008.006-.0113.009-.0113.009s.004-.003.0113-.009c-.008.006-.008.004-.005.00054.003-.004.009-.009.0127-.009-.004 0 .003-.005.008-.009.006-.003.0105-.005.003.0005.008-.006.0113-.009.0113-.009s-.004.003-.0113.009c.008-.006.003-.004-.003-.00054-.006.004-.0123.009-.008.009-.004 0-.01.005-.0125.009-.003.004-.003.005.005-.0005zm.74505-1.20927c-.79969 1.1371-1.18099 1.67347-1.16841 1.65101.0126-.0225.41905-.60372 1.19491-1.70191-.77626 1.0981-1.15757 1.63252-1.15316 1.6227.004-.01.39455-.56386 1.16116-1.6427-.76652 1.07859-1.15369 1.62373-1.15614 1.62766-.002.004.37981-.53337 1.15214-1.61966-.77236 1.08639-1.14392 1.61105-1.13424 1.5989.01-.0122.40058-.56111 1.15314-1.622-.75286 1.06104-1.1293 1.58668-1.1293 1.58324 0-.003.37644-.53595 1.1293-1.59124-.75286 1.05519-1.12442 1.5779-1.12098 1.57447.003-.003.38187-.53303 1.12898-1.58247-.74702 1.04934-1.11176 1.54962-1.10548 1.53355.006-.0161.38356-.54848 1.12058-1.56455-.73725 1.01618-1.10587 1.52816-1.10588 1.53011.00001.002.36863-.50613 1.10588-1.53011-.73725 1.02398-1.11465 1.55645-1.12093 1.57056-.006.0141.35858-.49012 1.10583-1.53956-.74702 1.04934-1.12541 1.58376-1.12885 1.59057-.003.007.36808-.51398 1.12085-1.57507-.75286 1.06104-.84065 1.17319-.64268.8855s.68169-.97523 1.07181-1.51357c-.3901.53834-.57151.78799-.56232.77573.009-.0122.20897-.28642.58122-.79573-.37253.50909.37058-.56657 1.00691-1.47792.63633-.91134 1.16587-1.65837.3662-.49201.79967-1.16636.25648-.39984-.38912.52369-.64559.92353-1.39357 2.00407-1.00349 1.46575-.3901.53834-.83676 1.23854-1.00938 1.53452-.17262.29597-.0712.18772.63483-.89086-.70605 1.07858-1.11369 1.68029-1.15083 1.72325-.0371.043.29625-.47284 1.07223-1.62925-.77628 1.15661-1.14686 1.66372-1.13525 1.61541.0116-.0483.40543-.65205 1.15795-1.71715-.75286 1.06494-1.14392 1.63251-1.15359 1.65546-.01.0229.36203-.49875 1.13469-1.61236-.77237 1.1137-1.16146 1.69688-1.16342 1.71543-.002.0186.38322-.52752 1.15942-1.67233-.77626 1.14491-1.17219 1.73491-1.17751 1.74714-.005.0122.37999-.55332 1.16621-1.71954-.78601 1.16636-1.17901 1.74466-1.17901 1.74122 0-.003.393-.58861 1.17901-1.74922-.78601 1.16051-1.17122 1.72809-1.16591 1.71925.005-.009.40114-.5941 1.17721-1.73925-.77626 1.14491-1.16439 1.692-1.16439 1.67488 0-.0171.38813-.59844 1.16439-1.71038-.77626 1.11175-1.16147 1.66665-1.15951 1.66516.002-.001.39109-.55936 1.16351-1.67316-.77237 1.11369-1.15855 1.65006-1.15855 1.63637 0-.0137.38618-.57744 1.15855-1.66397-.77237 1.08639-1.17999 1.67054-1.19449 1.69876-.0145.0282.36413-.4995 1.16429-1.63686l.00081.001zm-.84542.97129c0 .21651.006.32183.01.31936.004-.002.006-.11271-.002-.32736.008.21452.006.31204.002.30567-.004-.006-.01-.11666-.01-.31777v-.004-.004c0 .19506-.008.25065-.0146.22236-.006-.0283-.01-.14046-.00046-.28096-.009.14043-.008.20578-.004.20234.004-.003.0118-.0756.0155-.21034-.004.13457-.0237.12882-.0358.0786-.0121-.0502-.0168-.14485.009-.18807-.0255.0431-.0383.0744-.0383.0807 0 .006.0127-.0122.0383-.0686-.0255.0566-.0383.0701-.0383.0602 0-.01.0127-.0431.0383-.0802-.0255.037-.0383.0409-.0383.0311 0-.01.0127-.0333.0383-.0511-.0255.0178-.0383.046-.0383.0592s.0127.0112.0383-.0316c-.0255.0432.002-.1597.0297-.31385.0278-.15415.0561-.25959.0323-.0216.0232-.23796.0213-.0897.0116.0936-.01.18334-.0269.40178-.0343.30425.008.0975.003.17654-.003.19746-.006.0209-.0123-.0162-.008-.15106-.004.13457-.003.24282-.001.27063.002.0278.005-.0248.005-.21203v.004.004c0 .19505.006.30721.01.31702.004.01.006-.0827-.002-.29702.008.21452.0183.33836.0232.35011.005.0117.004-.0886-.0119-.32251.0151.23403.0161.35594.0114.3599-.005.004-.0151-.11003-.0227-.3478.008.23796.006.33842.002.32528-.004-.0131-.01-.13986-.01-.35628l-.00085.00019zm-.23811-1.19757c.19113 1.38871.27693 2.06844.27015 2.05824-.007-.0102-.10611-.71033-.28525-2.08134.17934 1.37115.26901 2.07916.26901 2.09481 0 .0156-.0897-.66105-.26901-2.05931.17934 1.39846.26901 2.10354.26901 2.10747 0 .004-.0897-.6933-.26901-2.09947.17934 1.40627.26901 2.1094.26901 2.1094s-.0897-.70313-.26901-2.1094c.17934 1.40627.26901 2.10355.26901 2.09962 0-.004-.0897-.70906-.26901-2.10762.17934 1.39846.26901 2.09769.26901 2.09769s-.0897-.69923-.26901-2.09769c.17934 1.39846.26901 2.07526.26901 2.05961 0-.0156-.0897-.72376-.26901-2.09511.17934 1.37115.26901 1.98749.26901 1.94015 0-.0473-.0897-.75835-.26901-2.0419.17934 1.28338.25833 1.97188.25158 2.00455-.007.0327-.0992-.59049-.26288-1.93045.16385 1.33995.20873 1.93483.18346 1.88266-.0253-.0522-.1207-.75138-.23746-1.99964.11698 1.24828.0887 1.13516.0292.6305s-.15018-1.40087-.15812-1.71878c.008.31791-.14654-.89039-.25472-1.82659-.10818-.93621-.17044-1.60032.0208-.19406-.19113-1.40627-.12867-.74897-.0204.18285.10826.93182.26232 2.13816.25438 1.82999.008.30817.0113.46909.0113.4735 0 .004-.004-.14767-.0113-.4655.008.3179.14601 1.16829.23773 1.64225.0917.47396.13671.57149-.0427-.61633.17934 1.18781.26901 1.85388.26901 1.9031 0 .0492-.0897-.51844-.26901-1.79807.17934 1.27949.2749 1.8929.27926 1.87434.004-.0186-.0825-.66907-.26796-1.91744.18519 1.24828.28173 1.96994.2842 2.03673.002.0668-.0891-.52126-.2802-1.89243.19113 1.37116.2867 2.07136.2867 2.08156s-.0956-.6696-.2867-2.05846l-.00052.00029zm.15988 2.16108c0 .0194.001.00083-.002-.0187-.003-.0195-.006-.0399-.002-.0244-.004-.0155-.001-.00085.002.0152.003.016.006.0335.002.0235.004.01.006.0208.006.0242 0 .003-.002-.00061-.006-.0202v.0002zm-.0465-.83474c.017.037-.003-.00002-.0232-.038-.0198-.038-.0391-.077-.0199-.0438-.0193-.0331-.0289-.0536-.0289-.0565 0-.003.01.0116.0289.0485-.0193-.0371.0004-.00098.0204.0366.02.0375.0404.0765.0227.0453.017.0309.0255.0514.0255.0549 0 .003-.008-.01-.0255-.0469zm-.0862.29258c-.002.002-.003-.002-.003-.005s.001-.006.003-.003c-.002-.004 0-.006.002-.006s.004.002.002.006c.002-.004.003-.006.003-.006s-.001.002-.003.006c.002-.004 0-.00097-.002.003-.002.004-.004.008-.002.005zm-.008.37839c.006.004-.005.0256-.0148.0392-.01.0137-.0181.0194-.008-.008-.009.0271-.005-.00026.002-.0285.007-.0282.0151-.0572.0132-.0334.002-.0232.0105-.0367.0157-.0382.005-.001.007.009-.004.0342.0113-.0254.0134-.0147.011.002-.002.0162-.009.0378-.015.034l.00015-.0003zm-.47591 1.48232c.36279-1.20537-.0683.1853-.48761 1.5506-.41936 1.36531-.82703 2.70525-.41748 1.39845-.40957 1.3068-.006-.0331.41107-1.39845.4169-1.3653.84695-2.75597.49001-1.5506.35694-1.20537.53931-1.80805.54176-1.80805.002 0-.17502.60268-.53776 1.80805.36279-1.20537.55782-1.85291.56747-1.88362.01-.0307-.16608.55539-.54477 1.81732.37838-1.26193.59293-1.92898.61042-1.95338.0175-.0244-.16208.59384-.57192 1.90248.40957-1.30873.57535-1.88216.5481-1.82707-.0273.0551-.24754.73871-.6101 1.94405l.0004.00011zm.42126-1.3692c.002-.008.006-.0147.008-.0167s.002.00086-.004.0127c.006-.0116-.002.002-.009.0155s-.0137.0271-.006.0155c-.008.0116-.004.00077.001-.0109.005-.0117.0124-.0242.01-.0167l-.0001.0003zm.0465-.59678c.002.002-.00083-.001-.004-.004-.003-.003-.006-.005-.004-.00046-.002-.004.00082-.006.004-.006.003 0 .006.002.004.006.002-.004.003-.002.003.0005 0 .002-.001.005-.003.003.002.002.003.003.003.003s-.001-.001-.003-.003zm-.0431.0464c.006.01-.004.00032-.013-.01-.009-.01-.0176-.0198-.01-.0105-.008-.01-.009-.015-.006-.015.002 0 .008.005.0142.015-.006-.01.00098-.00032.008.01.007.01.0132.0198.008.0105.006.01.008.015.008.015s-.003-.005-.008-.015h-.0002zm-.36283-.0276c.20678.0741-.0673-.006-.32618-.0853-.25893-.0795-.50275-.15849-.23553-.0824-.26722-.0761-.0332-.0498.21894-.006.2521.0434.52224.10379.3272.0961.19504.008.34523.0448.38139.0682.0361.0234-.0417.0331-.30279-.014.26133.047.39787.0802.4013.0865.003.006-.12623-.0141-.3973-.0744.27112.0605.35796.10046.32528.10684-.0327.006-.19578.001-.39178-.0947l-.00027-.00013zm.13644-.094c.0151.004-.0004.00012-.0162-.004-.0158-.004-.0318-.008-.0178-.004-.0132-.004-.0113-.006-.005-.006.006 0 .0166.002.0202.006-.004-.004.009-.00013.0185.004.01.004.0165.008.00041.004zm-1.67735-1.60324c.33155.31597.49247.47102.48903.46906-.003-.002-.17121-.16096-.49703-.47306.3257.31204-.60758-.51884-1.35849-1.19515s-1.31944-1.19804-.26425-.26768c-1.05519-.93036-.48176-.40569.27257.27258.75433.67826 1.68957 1.51012 1.35799 1.19415.33156.31597 1.01323.86892 1.36724 1.13954.35401.27063.38035.25894-.59875-.55437.97912.81333 1.52525 1.30874 1.56335 1.3692.0381.0605-.4318-.31403-1.48475-1.24051 1.05324.92645 1.50964 1.36335 1.46183 1.34575-.0478-.0176-.59986-.48971-1.5635-1.38125.96351.89135 1.47744 1.35945 1.49934 1.37454.0219.0151-.44823-.42284-1.45284-1.34354 1.00446.9206 1.54766 1.39065 1.57589 1.39747.0282.007-.45851-.44961-1.51389-1.38197 1.05518.93231 1.54182 1.38871 1.51359 1.3819-.0282-.007-.57133-.47685-1.57559-1.3974 1.00446.9206 1.5067 1.3809 1.5067 1.3809s-.50224-.4603-1.5067-1.3809c1.00446.9206 1.50279 1.3809 1.49984 1.3809-.003 0-.50718-.4603-1.50784-1.3809 1.00057.9206 1.46673 1.35847 1.44385 1.34338-.0229-.0151-.53479-.48314-1.49035-1.37438.95571.89135 1.43942 1.33702 1.44335 1.33702.004 0-.47193-.44567-1.43535-1.33702.96351.89135.94311.87975.5989.56627-.34421-.31347-1.01223-.92883-1.34396-1.24498l-.00009.00022zm1.88802 1.19756c.0132.01.0199.0216.0199.0264 0 .005-.007.003-.0199-.0143.0132.0177.007.007-.002-.006-.009-.0133-.0203-.029-.0165-.0213-.004-.008-.0148-.0205-.0206-.0268-.006-.006-.007-.006.009.0113-.0151-.0177-.00045-.005.0144.01.0149.0147.03.0313.0158.0213zm1.55252.10946c-.0151.01-.0226.015-.0226.015s.008-.005.0226-.015c-.0151.01-.00045.002.0149-.006.0154-.008.0314-.0172.0191-.009.0113-.008.021-.0116.024-.0116.003-.00001-.00069.004-.016.0116.0151-.008-.003.001-.0219.009-.0184.008-.0368.0161-.0213.006h.00055zm-.45245.15991c.0874-.0359-.0195.009-.12728.0408-.10775.0321-.21207.0623-.10667.0289-.10526.0331-.13351.04-.11707.0333.0164-.007.0776-.0272.15107-.0488-.0741.0215.0322-.01.13019-.0384.098-.0287.18765-.055.0803-.0235.10715-.0309.15005-.0417.1433-.0384-.007.003-.0632.0208-.1546.0464l.00036-.00015zm-1.47844.71775c.24967-.0975.37059-.1463.36763-.1463-.003 0-.1298.0488-.37563.1463.24576-.0975-.0643.0497-.36081.18431-.29647.13458-.57929.25649-.27895.10826-.30038.14823-.0927.003.15212-.14772.24478-.15067.52663-.3067.37452-.17993.15212-.12678.34618-.20869.4271-.22084.0809-.0121.0487.0455-.25173.19774.30038-.15215.41156-.18629.38531-.15799-.0263.0283-.18994.11901-.43931.21659l-.00013-.00021zm4.0023.0121c2.90418.46419 3.21332.55683 2.43071.46125-.78262-.0956-2.65698-.37937-4.11979-.66803 1.46281.28866 1.48633.30911 1.00172.22425-.48462-.0849-1.47738-.27502-2.04713-.40759.56953.13264 2.72184.30818 4.00084.38278 1.27899.0746 1.68468.0482-1.23903-.22287 2.93541.16968 4.40312.20773 4.40411.15702.001-.0507-1.4647-.19018-4.39611-.37551 2.9315.0819 76.25114.66804 125.46589 1.04204 49.21474.37399 74.32459.53587-19.16351-.23064 93.5096-2.39708 140.22635-5.18327 140.18536-6.85869-.041-1.67542-46.83971-2.24007-140.36106-.19407 93.33785-5.23301 68.266-3.76433 19.12877-.96595-49.13724 2.79838-122.33987 6.92647-125.26358 7.01229 2.92371-.12484 4.38557-.20675 4.38557-.22576 0-.019-1.46186.0249-4.38557.15166 2.92371-.15602 2.55802-.10726 1.30633-.0209-1.25168.0863-3.38936.21015-4.00959.20429.62023.006.58801.0323.35345.0478-.23455.0155-.67145.0202-.86055-.0168.18918.0371.54123-.0644.71775-.1463.17651-.0819.17748-.14436-.33549-.0293.51295-.11505.76943-.17258.76943-.17258s-.25648.0575-.76943.17258c.51295-.11505 2.61454-.62411 3.87842-.93326 1.26388-.30914 1.69005-.41837-1.14783.26626 2.83788-.6846 2.42049-.57538 1.16246-.26624-1.25803.30913-3.3567.81818-3.88137.93324.52469-.11505.78703-.17258.78703-.17258s-.26234.0575-.78703.17258c.52469-.11505.77824-.17258.77243-.17258-.006 0-.27099.0575-.78373.17258.51295-.11505.51195-.0526.33543.0293s-.52856.18334-.71769.14631c.1892.0371.61927.0321.84943.0164.23016-.0156.26041-.0419-.35004-.0474.61046.006.92253.009.92695.009.004 0-.29882-.003-.91895-.009.62024.006 73.34696-13.58943 122.94742-22.90328 49.60045-9.31384 76.07463-14.34606-15.81022 2.78653 90.3635-25.3088 134.42765-42.02204 133.2496-46.29398-1.17805-4.27193-47.5983 3.89745-138.2036 28.35391 87.66405-32.41227 62.48493-23.04824 15.2167-5.53434-47.26823 17.51389-116.62558 43.17767-117.31799 43.36491.69241-.18726.99765-.2721.96985-.26576-.0278.006-.38867.10383-1.02845.28126.63974-.17747 2.59213-1.00836 3.71021-1.51743s1.40187-.69634-1.29558.41344c2.64089-1.22487 3.92719-1.90557 3.89109-1.97382-.0361-.0683-1.39464.47592-4.0434 1.70083 2.56675-1.34775 67.45659-35.45885 111.02238-58.3613 43.5658-22.90246 65.80754-34.59627-16.92191 8.89056 81.25885-46.29154 121.1071-70.81724 120.28399-72.2708-.82312-1.45356-42.31759 20.16502-123.74419 66.16205 79.7824-48.69058 58.33745-35.58953 16.32617-9.94136-42.01127 25.64817-104.58888 63.84347-107.07178 65.34141 2.45949-1.53499 3.67754-2.32102 3.66588-2.34009-.0117-.0191-1.25304.72879-3.71238 2.26159 2.43999-1.56425 2.78717-1.74076 2.18936-1.3258s-2.14061 1.42139-3.48056 2.22301c1.33995-.80163 1.27948-.75773.77919-.45345s-1.4404.86894-1.85972 1.10883c.41936-.2399 2.12989-1.53693 3.15825-2.34295s1.37456-1.12102-.93475.60317c2.29564-1.75344 3.43567-2.64089 3.42752-2.65261-.008-.0117-1.16447.85226-3.46152 2.60171 2.28397-1.76514 59.45893-47.66464 97.83806-78.49755s57.96243-46.59923-14.93692 11.90201c67.563-65.15611 98.41982-100.78951 95.34205-104.01162-3.07778-3.22212-40.09015 25.96706-108.26555 90.45613 61.89305-70.0478 44.41815-50.16998 11.25252-12.56663-33.16564 37.60334-82.02201 92.9322-82.8919 93.7865.86989-.8543.94397-.91475.69722-.66362s-.81433.81384-1.22775 1.20588c.41349-.39205 45.75517-58.87768 76.66951-98.80155 30.91434-39.92386 47.40135-61.28596-9.8945 12.56907 52.29305-77.72859 75.82207-118.36778 73.06611-120.23677-2.75596-1.869-31.79691 35.03218-84.64381 112.38434 47.4325-80.53721 34.71468-58.84646 9.75938-16.408s-62.14809 105.62463-63.66553 108.07828c1.50574-2.46145 2.25276-3.69997 2.24747-3.70581-.005-.006-.76289 1.22101-2.26637 3.69031 1.49792-2.46924 2.24688-3.70387 2.24688-3.70387s-.74896 1.23463-2.24688 3.70387c1.49792-2.46924 1.14977-1.88997.39788-.64754-.75189 1.24242-1.90752 3.148-2.02455 3.33134.11697-.18333 1.03465-2.2069 1.6237-3.53076.58904-1.32386.84945-1.94801-.34811.66752 1.11175-2.66234 1.62276-4.00814 1.57548-4.02526-.0473-.0171-.65286 1.29442-1.77428 3.94676 1.02788-2.6877 27.02126-71.24731 44.47274-117.28578 17.45147-46.03846 26.36103-69.55579-6.77872 17.84109 30.19655-88.52228 43.80083-133.30028 42.22733-133.84299-1.57349-.5427-18.32477 43.14989-48.83931 131.56879 27.50499-89.33561 20.09336-65.29459 5.59727-18.23361-14.4961 47.06099-36.07665 117.14194-36.90949 119.88619.79969-2.75986 1.18198-4.14272 1.16243-4.14806-.0195-.005-.44095 1.36685-1.24863 4.11706.75872-2.76961.84555-2.98319.64516-2.18108s-.688 2.61992-1.07818 3.91306c.39006-1.29314.40859-1.36432.28764-.97032-.12094.39401-.38136 1.25319-.54918 1.82076.16781-.56758.20485-.60465.17315-.43545-.0317.16919-.13213.54464-.23925.8021.10733-.25747.20779-.51592.23945-.60515.0317-.0892-.005-.009-.17335.41009.16781-.41936.19899-.41736.1628-.27153-.0362.14583-.13974.43548-.2414.59143.10148-.15602.13757-.20868.12789-.19213-.01.0165-.0651.10231-.14679.22313.082-.12091.14343-.28865.15741-.3618.014-.0731-.0195-.0517-.12721.20578.10734-.25747.20193-.62903.22914-.7958.0272-.16676-.013-.12872-.17514.433.16195-.56172.24878-.84649.25313-.84894.004-.002-.0738.27742-.24183.84494.16781-.56758.57935-2.63211.80363-3.85113.22427-1.21902.26128-1.59253-.31997 1.22194.52074-2.82227.74798-4.2373.71336-4.24175-.0346-.004-.33108 1.40168-.85773 4.22175.46032-2.82617 12.94894-75.08771 21.34506-123.61395 8.39612-48.52625 12.69973-73.3172-3.20995 18.79777 7.65154-93.55049 7.26047-140.69924 2.82031-141.08787-4.44016-.38862-12.92941 45.98289-21.47424 139.47291.0215-93.49002.014-66.27565.002-15.61905s-.0284 124.75544-.0247 125.03435c-.004-.27892-4.74063-74.22173-7.98417-124.77154s-4.99401-77.70664.97432 15.58639c-12.23857-92.89709-21.50828-138.94093-24.82572-138.51476s-.68261 47.32235 10.88792 140.30526c-17.84703-91.76389-13.00703-67.07143-3.57996-18.73243 9.42707 48.33901 23.44121 120.32456 23.94247 123.14683-.53441-2.81447-.82113-4.21781-.84208-4.21392-.021.004.22385 1.415.75248 4.22942-.57538-2.81447-.86306-4.2217-.86306-4.2217s.28768 1.40723.86306 4.2217c-.57538-2.81447-.4944-2.21276-.2418-.83771.2526 1.37506.67682 3.52346.78794 3.80237-.11112-.27893-.20571-.50127-.23255-.55783-.0268-.0566.0141.0526.17395.43684-.15988-.38425-.32273-.78604-.3793-.92939-.0566-.14335-.007-.0283.25836.62121-.26527-.64949-.91964-2.6204-1.27657-3.74824s-.41642-1.4126.50807 1.3102c-.98107-2.6994-1.49598-4.04032-1.52282-4.03206-.0268.008.43441 1.36571 1.40566 4.06306-1.03372-2.67989-1.55351-4.01594-1.55875-4.0111-.005.005.50407 1.35056 1.52855 4.0342-1.04347-2.6838-26.98304-71.26389-44.39186-117.31748-17.40882-46.05358-26.28689-69.58066 6.79263 17.84157-36.02194-86.30853-55.48432-128.865-57.0138-128.23354-1.52948.63145 14.87394 44.45082 50.58362 130.89394-38.55536-85.14804-28.23066-62.21097-7.95553-17.34032 20.27512 44.87065 50.50066 111.67488 51.74698 114.26115-1.26777-2.58042-1.91336-3.8599-1.92502-3.85066-.0117.009.61059 1.3072 1.87852 3.88166-1.2912-2.56677-1.57889-3.16166-1.33412-2.68965.24478.472 1.02202 2.0109 1.86068 3.71169-.8387-1.70078-.89426-1.74175-.64508-1.18832s.8031 1.70126 1.18336 2.37809c-.38034-.6768-.56173-1.0074-.55546-1.00199.006.005.20021.34684.57056 1.01409-.37059-.66705-.49152-.88452-.44758-.80504.0439.0795.25276.4559.54168.97667-.28866-.52076-.31786-.58415-.23884-.44908.079.13506.26624.46858.41043.74165-.14438-.27307-.21657-.4057-.21657-.40275 0 .003.0722.14148.21657.41075-.14438-.26915-.33162-.60462-.41059-.74261-.079-.13799-.0497-.0785.239.44229-.28866-.52076-.50614-.905-.55641-.98984-.0503-.0849.0667.12969.4468.80649-.38034-.6768-1.42967-2.44194-2.01773-3.41911-.58806-.97716-.71485-1.16636.74993 1.30874-1.51939-2.43999-2.31127-3.64243-2.34347-3.62245-.0322.02.69527 1.26237 2.21459 3.71205-1.57401-2.40294-40.06021-64.81772-65.88178-106.74516-25.82156-41.92745-38.97849-63.36757 10.10608 16.17882-56.36201-75.06235-87.94409-110.06089-91.52742-107.39953-3.583333 2.66137 20.83207 42.98263 76.46502 118.5599-61.91255-70.04194-43.91046-49.64238-10.3766-11.68357s82.59949 93.47687 82.81404 93.67191c-.21457-.19506-.38231-.38229-.4243-.44323-.042-.0609.0418.004.3302.31454-.28866-.31011-.30331-.30708-.21457-.19878.0887.1083.28089.32188.40581.43288-.12491-.1112-.18737-.15703-.18737-.15021 0 .007.0625.0663.18737.16571-.12491-.0995-.239-.19992-.27407-.23509-.0351-.0352.009-.005.19997.15659-.19114-.16188-.30426-.26624-.31587-.28238-.0116-.0162.0783.0559.29317.24688-.21456-.19113-.31892-.28279-.31695-.27984.002.003.11025.10051.32095.28784-.21064-.18726-52.72776-52.44322-88.62633-88.17073s-55.17859-54.92657 11.08497 10.99996c-70.73934-61.42955-108.192845-89.7492-110.388182-87.23235-2.195336 2.51685 30.8675 35.87021 101.160852 97.78665-74.125557-56.93699-54.19663-41.61831-15.16142-11.62701 39.0352 29.9913 97.17669 74.6552 99.47625 76.40864-2.31712-1.73003-3.48055-2.58432-3.48676-2.57316-.006.0112 1.1448.88778 3.45656 2.61956-2.32687-1.71638-1.86462-1.29216-.75141-.41398 1.1132.87818 2.87736 2.21033 3.15432 2.3098-.27693-.0995-.74112-.31694-.96397-.43202-.22284-.11508-.20432-.12777.4842.18234-.68852-.31011-2.49365-1.34384-3.49422-1.94555s-1.19659-.7714 1.33312.64657c-2.57261-1.36335-3.87354-2.02064-3.88969-1.99432-.0162.0263 1.25247.73629 3.81899 2.10744-2.59238-1.3242-67.44425-35.49567-110.97614-58.4483-43.531892-22.95263-65.743797-34.68642 16.94376 8.86476-84.154282-40.76987-126.920123-59.73977-127.646899-58.24671-.726777 1.49306 40.585512 23.44906 124.587489 64.531-85.291017-38.2031-62.385447-27.88824-17.48715-7.74029 44.8983 20.14796 111.78932 50.12901 114.46922 51.25831-2.70526-1.07273-4.07251-1.57692-4.08757-1.54327-.0151.0337 1.32206.60512 4.02557 1.68372-2.72865-1.01422-2.20398-.78505-.90938-.28088 1.29459.50418 3.35912 1.28336 3.7102 1.36917-.35108-.0858-.53248-.13361-.53682-.13705-.004-.003.16837.0375.52552.12905-.35694-.0917-.45349-.10135-.39742-.0759.0561.0254.26478.0859.51837.13454-.25355-.0487-.3745-.0672-.37058-.0633.004.004.13269.0302.37858.0713-.24575-.0409-.36862-.0613-.36862-.0613s.12287.0204.36862.0613c-.24575-.0409-.37448-.0672-.37841-.0711-.004-.004.11694.0145.37041.0631-.25355-.0487-.4564-.10425-.50814-.12625-.0517-.022.0476-.0104.39853.0753-.35108-.0858-.47006-.10129-.43196-.0822.0381.0191.2333.0728.51056.12529-.27695-.0525-.38324-.0652-.36077-.056.0225.009.17369.0405.41177.076-.23796-.0349-.38912-.0622-.41159-.0687-.0225-.006.0838.008.36059.0566-.27695-.0486-.41542-.0769-.41542-.0799s.13847.0194.41542.0719c-.27695-.0525-2.40292-.71079-3.76433-1.14431s-1.95826-.64229.82306.2042c-2.80082-.80163-4.21196-1.17318-4.22213-1.14343-.0102.0298 1.38061.4608 4.18363 1.26441-2.82076-.75285-72.9815-21.99401-120.07146-36.2853-47.089955-14.29129-71.109127-21.63271 18.35326 5.41392-91.892817-19.02059-138.7221855-24.40476-139.6483943-20.05774-.9262087 4.34703 44.0507423 18.42524 135.7705643 38.32939-92.765257-11.48219-65.846677-8.06503-15.64024-1.79244 50.20645 6.27259 123.70075 15.40061 124.08694 15.34015-.38619.0605-.77043.0907-.9011.0907-.13068 0-.008-.0302.62028-.0907-.62805.0605-74.49137-4.32993-124.86775-7.35799-50.376372-3.02805-77.265802-4.69373 16.05394.81624-93.700667.77822-140.5376405 4.34849-140.5227855 7.69982.014855 3.35132 46.8815385 6.48372 140.5881855 6.38621-93.266312 6.48323-68.20814 4.77855-19.10442 1.39016s122.25299-8.46049 125.16888-8.71209c-2.91589.25161-4.37676.37741-4.37922.37742-.002-.00001 1.45348-.12581 4.37122-.37742-2.91786.25161-4.32997.37352-4.29731.37107.0327-.002 1.51012-.12926 4.37141-.37507-2.86129.24575-4.33582.37252-4.36602.37497-.0302.002 1.38392-.11942 4.29992-.37097-2.91591.25161-2.36004.26434-.9806.18731 1.37944-.077 3.58245-.2438 3.96084-.35119-.37839.10726-1.78953.45541-2.62674.65728-.83722.20187-1.10052.25746.81676-.2204-1.91728.47785-2.75987.69532-2.6804.68016.0795-.0152 1.08101-.26296 2.85199-.71566-1.771.45254-1.84215.52958-1.2843.42717.55784-.1024 1.74468-.38425 2.48967-.64952-.74506.26527-.69243.26225-.40086.17003.29157-.0922.82208-.27361 1.03279-.36509-.21063.0917-.31595.13751-.31595.13751s.10532-.0458.31595-.13751c-.21063.0917-.28084.13751-.25691.13751.0239 0 .142-.0458.30791-.13751-.16574.0917-.22328.13361-.20637.13066.0169-.003.10828-.0508.24037-.13866-.13266.0878-.19313.1317-.1892.1317.004 0 .0722-.0439.1972-.1317-.12492.0878-.18444.1317-.18248.1317.002 0 .0654-.0439.18648-.1317-.12095.0878-.18142.1317-.18142.1317s.0605-.0439.18142-.1317c-.12095.0878-.1425.13559-.11571.13854.0268.003.10191-.0389.17431-.13054-.0722.0917-.23504.1882-.3218.22226-.0868.0341-.0974.006.13472-.15256-.23209.15795-.26913.18227-.21498.14513.0541-.0371.19948-.13573.33214-.22363-.13266.0878-.22431.13559-.24122.13853-.0169.003.0409-.0389.20722-.13053-.16574.0917-.2486.13751-.2486.13751s.0829-.0458.2486-.13751c-.16574.0917-.39491.21259-.4949.26326-.1.0507-.0708.0311.28022-.15822-.35108.1892-.48469.27404-.4564.26764.0283-.006.21848-.10401.515-.27974-.29645.17554-.44956.26917-.45301.2731-.003.004.14277-.0818.44501-.2651-.30233.18333-.49056.27889-.51546.28134-.0249.002.1135-.0882.46446-.27734-.35108.1892-.84063.34425-1.05615.38568-.21551.0414-.15699-.0308.58809-.29608-.74508.26527-1.11761.4018-1.11761.40425 0 .002.37253-.12918 1.11761-.40025-.74508.27113-1.93191.55199-2.48973.65194-.55782.0999-.48663.019 1.28437-.43356-1.771.45253-2.7862.70025-2.87495.71541-.0888.0152.74892-.20222 2.6837-.67991-1.93482.47786-3.64632.86112-4.15586.95961-.50955.0985.18286-.0878 3.05587-.74898-2.86713.68266-4.3007 1.03861-4.29881 1.0527.002.0141 1.43923-.31369 4.31391-.9985-2.86128.70802-74.07864 18.14975-121.87835 29.8538-47.799715 11.70406-72.181767 17.67043 18.62759-4.57228-90.072482 25.2971-134.684798 39.4622-134.2395155 41.06111s45.9481635-9.36837 136.1060755-34.33604c-89.219167 27.97485-65.262795 20.48617-18.29947 5.77654 46.96332-14.70962 116.93358-36.64017 119.74221-37.54907-2.77937 1.02008-4.15638 1.58278-4.14229 1.6364.0141.0536 1.41928-.40181 4.20429-1.41802-2.75596 1.0981-2.27517.95474-1.00203.48126 1.27315-.47348 3.33865-1.27707 3.75213-1.49944-.41348.22237-1.66566.87967-2.38146 1.25317-.71581.3735-.89526.4632.83673-.44962-1.73199.91281-68.64983 31.628-113.8913 52.35319-45.241477 20.72519-68.806587 31.46036 16.16689-7.58688-81.434412 46.7965-120.064073 73.87541-117.871206 77.75004 2.192868 3.87464 45.208264-15.455 127.063966-61.47562-77.148727 52.90954-54.82467 37.68934-13.11397 9.14521 41.71071-28.54412 102.80807-70.41218 103.20596-70.79837-.39791.38619-1.05325.95181-1.3658 1.20634-.31255.25454-.2823.19798.69097-.66021-.97327.8582-59.08862 46.43314-98.56013 77.35489s-60.299192 47.19031 13.30287-10.56429c-69.670772 62.78067-102.393843 96.54049-100.167818 99.03835 2.226025 2.49787 39.401148-26.26621 109.526758-88.53334-65.62655 66.69909-48.0085 48.82241-13.46646 13.73654 34.54205-35.08587 86.00808-87.38093 88.07751-89.51861-1.98359 2.21959-2.92955 3.36742-2.88273 3.40936.0468.0419 1.08643-1.02202 3.07397-3.22601-1.90167 2.29566-1.66957 2.10549-.85868 1.18879s2.20058-2.55993 2.61408-3.17043c-.4135.61049-.62025.90987-.62025.90595 0-.004.20675-.31117.62025-.91395-.4135.60269-.50326.77043-.42332.67828.0799-.0922.32959-.44419.59491-.88109-.26527.43689-.36765.61729-.34714.59191.0205-.0254.16391-.25655.39024-.64281-.22624.38619-.22057.44957-.13873.36082.0818-.0888.23984-.32964.31826-.55199-.078.22237-.12775.36183-.13498.38081-.007.019.028-.0825.11988-.34211-.0917.25941-.34228.65925-.48223.84405-.13996.18479-.16925.15455.18176-.4462-.35108.60073-.43007.73823-.36474.62705.0653-.11118.27497-.47103.50118-.86501-.22625.39398-.3696.62315-.39011.64462-.0205.0215.0818-.16474.34701-.60152-.26527.43688-.51491.79479-.59487.89085-.08.0961.01-.0697.42328-.68021-.41348.61048-1.02493 1.48524-1.30188 1.87581s-.2194.29694.70513-1.02936c-.92451 1.32629-2.04894 2.85543-2.5029 3.44788-.45397.59244-.23747.24819 1.51988-2.17229-1.73199 2.43412-2.57945 3.6668-2.56192 3.67999.0175.0132.90004-1.1931 2.62802-3.63689-1.70077 2.45559-43.56483 62.71894-71.65641 103.15416s-42.41068 61.04231 10.97847-15.81462c-50.79118 78.67473-74.86788 118.85976-73.47513 119.76057 1.39276.90081 28.25497-37.4826 79.34164-115.94476-48.38961 80.10771-35.41134 58.63834-9.95045 16.49938 25.46089-42.13897 63.40438-104.94753 64.94522-107.51819-1.50378 2.59797-2.23422 3.91061-2.21136 3.92422.0229.0136.79903-1.27184 2.30846-3.87002-1.46475 2.61942-1.1244 2.10354-.39006.85331.73434-1.25022 1.86266-3.23478 1.97384-3.5527-.11112.3179-.20865.58804-.23696.66412-.0283.0761.0126-.0419.17836-.50024-.16573.45833-30.14366 68.25122-50.61983 114.52793-20.47618 46.27672-31.45059 71.03726 6.3907-14.56908-30.17688 88.99834-41.28059 134.87657-37.088 136.3253 4.1926 1.44872 23.6815-41.53204 54.68986-130.25167-22.84093 90.78123-16.31674 65.05036-4.02575 16.33698 12.29098-48.71339 30.34876-120.40928 30.57501-121.55808-.22625 1.1488-.58415 3.15482-.75137 4.13492-.16723.98009-.14378.93425.39269-2.02066-.51489 2.95491-.76064 4.43724-.74805 4.44162.0126.004.28354-1.46921.80205-4.42612-.49151 2.96271-13.84173 75.14134-22.81786 123.5642-8.97613 48.42287-13.57818 73.08997 3.42665-18.97035-10.81066 93.21302-13.07131 140.19979-9.75675 140.59963 3.31457.39984 12.20435-45.78724 23.69455-138.9219-5.1316 93.48961-3.73314 68.42842-1.01814 19.24587 2.715-49.18256 6.74655-122.48648 6.88113-125.48234-.0624 2.99977-.0604 4.49966-.0248 4.50066s.10475-1.49689.17672-4.49266c-.008 2.99586-.008 4.49379-.005 4.49379s.009-1.49793.0127-4.49379c-.004 2.99586-.006 2.57651-.006 1.26241 0-1.31411.002-3.52298.006-4.10615-.004.58317-.006.89232-.006.90497 0 .0127.002-.27119.006-.87397-.004.60268-.006.69631-.006.55393s.002-.52077.006-.86212c-.004.34135-.006.5081-.006.50563 0-.002.002-.17414.006-.50963-.004.33549-.006.4964-.006.49148 0-.005.002-.1757.006-.50358-.004.32769-.006.49836-.006.50329 0 .005.002-.1559.006-.49119-.004.33549-.006.49151-.006.48315 0-.008.002-.18111.006-.50315-.004.32183-.006.48761-.006.49104 0 .003.002-.15548.006-.48304-.004.32769-.006.43691-.006.39937 0-.0375.002-.22183.006-.48117-.004.25941-.006.39301-.006.39546 0 .002.002-.12625.006-.39146-.004.26527-.006.32279-.006.27156 0-.0512.002-.21124.006-.38101-.004.16968-.006.25452-.006.25452s.002-.0848.006-.25452c-.004.16968-.006.32573-.006.37446 0 .0487.002-.01.006-.26943-.004.25941.004.34621.0102.31702.007-.0292.0124-.17438.005-.37892.008.20478.0161.32669.0194.34033.003.0136.002-.081-.0114-.30933.0132.22817.0199.34226.0199.34226s-.007-.11409-.0199-.34226c.0132.22817.024.3257.0261.31397.002-.0117-.005-.13272-.0261-.34157.0215.20871.0323.31306.0323.31306s-.0108-.10435-.0323-.31306c.0215.20871.0282.33452.0261.34968-.002.0152-.0128-.0803-.0261-.31418.0132.23403.0329.38715.0413.41156.008.0244.006-.0799-.0262-.36066.031.28086.0661.71678.0797.91914.0136.20235.006.17114-.0495-.48225.0548.65339.0452.76847.0199.62366-.0253-.14482-.0662-.54952-.0739-.9357.008.38618.016.45933.0194.3774.003-.0819.002-.31892-.0114-.553.0132.23403.006.43102-.004.48563-.01.0546-.0222-.0332-.0185-.36865-.004.33548-.006.69729-.006.82942 0 .13214.002.0346.006-.54857-.004.58317.004.74019.0102.64804.007-.0921.0124-.43346.005-.84695.008.41349.071 1.13905.11197 1.49501.041.35595.0596.34229-.0224-.72264.082 1.06493.2205 3.1285.28729 4.17686.0668 1.04836.0619 1.08151-.14291-1.91436.26529 2.99587.42034 4.48893.44567 4.4855.0253-.003-.0791-1.50338-.33267-4.4935.30425 2.99001 8.80814 75.90504 14.52827 124.82337s8.65651 73.83997-2.17424-19.15679c13.97095 92.62421 22.52262 138.70011 24.17513 138.45138s-3.59414-46.82211-17.21985-139.49645c16.75417 92.10679 12.21648 67.42594 3.37079 18.97771s-21.99938-120.66384-22.47725-123.62655c.55782 2.95685.8699 4.42456.90698 4.41574.0371-.009-.20081-1.49414-.74295-4.44334.61633 2.94124.9245 4.41187.92449 4.41187.00001 0-.30816-1.47063-.92449-4.41187.61633 2.94124.60471 2.75011.38532 1.61156-.21938-1.13856-.64653-3.22454-.86124-4.073.21453.84843.31303 1.2512.30723 1.23659-.006-.0146-.11589-.44657-.31853-1.26759.20285.82113.25358.95376.21898.7636s-.15455-.70312-.29308-1.17317c.13852.47005.21165.70898.21409.71193.002.003-.0658-.23008-.21009-.70393.14438.47393.27211 1.0064.31009 1.20828.038.20187-.0138.0732-.22849-.77526.21453.84843 22.61523 71.40051 37.88516 119.4334 15.26992 48.03288 23.40909 73.54657-4.89944-15.68178 30.50858 88.5297 46.86392 132.41322 48.02298 132.01285 1.15905-.40038-12.87817-45.08467-43.15472-133.69058 38.17185 85.68261 60.03423 127.29117 62.95743 125.99804 2.9232-1.29312-13.09278-45.48794-50.67763-131.41206 42.9173 83.18137 30.87049 59.7878 7.92125 15.27755-22.94923-44.51025-56.8009-110.13718-57.49331-111.42251.69241 1.28533 1.68128 2.96856 2.12109 3.68193s.33058.45689-1.17322-2.13718c1.53303 2.57652 2.31223 3.85405 2.32683 3.84289.0146-.0112-.73539-1.31102-2.26073-3.88929 1.55256 2.56093 39.29145 65.49949 64.60805 107.73126 25.3166 42.23176 38.21089 63.75671-9.92576-16.50957 53.61345 76.97727 83.02985 113.65415 85.78045 111.74907s-21.1646-42.39213-74.21435-119.7427c57.98435 73.45575 42.41308 53.77511 11.8898 15.13907-30.52328-38.63605-75.99856-96.22751-77.82222-98.59338 1.90167 2.31127 2.87786 3.43277 2.90906 3.39815.0312-.0346-.88259-1.22538-2.76091-3.5386 1.95238 2.2469 1.6169 1.89095.71823.87819-.89866-1.01276-2.36051-2.68233-2.66087-3.06266.30038.38032.97328 1.04054 1.33118 1.36187.35789.32133.40079.30378-.55883-.67144.95962.97521 2.3454 2.36782 2.96662 2.98758.62121.61975.47786.46664-1.6208-1.64958 2.12791 2.08696 3.2104 3.11288 3.22797 3.09539.0176-.0175-1.02975-1.07839-3.16147-3.16509 2.15522 2.05575 56.75561 51.05829 93.41542 83.91813 36.65982 32.85983 55.37907 49.57698-14.22798-12.93804 71.71735 60.15714 108.5893 89.0285 109.65816 87.75443 1.06887-1.27407-33.66536-32.69357-105.16036-93.11811 73.44545 57.94907 53.6983 42.46362 15.02026 12.0111-38.67805-30.45252-96.28698-75.87212-98.56509-77.79134 2.31712 1.86656 3.50298 2.77351 3.5284 2.74722.0254-.0263-1.10962-.98584-3.4343-2.85225 2.35807 1.81974 2.08307 1.61103 1.08738.84402-.99568-.76702-2.71206-2.09234-3.23676-2.5058.5247.4135 64.01125 38.47314 107.31521 64.40018 43.30397 25.92703 66.42535 39.72146-13.7803-8.39547 84.51215 40.91028 128.6192 57.57769 130.56671 53.59297 1.94752-3.98473-38.26451-28.62159-122.39051-70.31987 87.1667 33.86299 62.10366 24.16154 15.08559 5.91876s-115.99116-45.02688-116.64457-45.32919c.65341.30231.65541.35497.43308.28816-.22232-.0668-.66896-.25307-.91285-.42861.24382.17554.36083.25844.35738.25501-.003-.003-.12735-.0932-.36538-.26301.23796.16968.67194.35498.88746.42374.21552.0688.21259.021-.42326-.27547.63585.29645.9684.44761.97855.44908.0102.001-.3021-.14677-.95585-.44908.65339.30231 2.69158.97521 3.86379 1.33263 1.1722.35742 1.47842.39935-1.33215-.56025 2.81057.9362 4.21586 1.39455 4.21586 1.38524 0-.009-1.40529-.48629-4.21586-1.42074 2.81057.9206 72.71207 23.0542 119.62774 37.8985 46.91568 14.8443 70.84552 22.39929-18.28723-5.83731 91.03245 22.24467 137.31227 30.29118 138.11487 27.05395.8026-3.23722-43.87202-17.75819-134.74847-40.64846 92.00375 16.65278 67.2996 12.20287 18.87042 3.45178-48.42919-8.7511-120.58341-21.80339-123.47982-22.35536 2.89641.50323 4.35046.73143 4.35438.7066.004-.0248-1.44228-.30271-4.34638-.81163" fill="url(#b)"/></g><path d="m181.92773-70.480469c6.48112 37.934245 12.96224 75.8684898 19.44336 113.802735-5.30447 5.614518-10.90055 10.969078-16.93554 15.796875-4.4516 3.566289-9.30746 6.962703-14.32402 9.844659-1.57397.906983-3.16308 1.765508-4.71876 2.549816-1.74959.892379-3.77229 1.834366-5.68266 2.642683-6.88777 2.936417-14.14166 5.000276-21.53433 6.181592-.72553.112493-1.75505.270427-2.60052.376914-3.08112.413778-6.18267.666763-9.28815.80082-1.02331.0407-2.31788.07425-3.44584.08822-4.14386.03561-8.28938-.142706-12.41549-.525719-32.683874-41.691186-65.365495-83.3841409-98.05078-125.07422-8.8470052 0-17.6940104 0-26.541016 0 35.725677 45.5412 71.451862 91.082001 107.177735 136.623047-1.047155 17.913907-5.195751 35.641187-12.263146 52.137737-8.035249 18.93283-19.662265 36.12711-32.704957 51.94864-.438857.35753-.676965 1.32633-1.360621.93845-28.784857-7.22156-57.570526-14.43989-86.35487-21.6635v21.51367c27.426461 6.86643 54.85286 13.73309 82.279297 20.59961.86774 2.59503 1.66517 5.25444 2.362892 7.81878 1.040906 3.8172 1.966854 7.87259 2.717186 11.83943.428031 2.32199.799473 4.51119 1.139458 6.88477.812321 5.64457 1.336941 11.35384 1.608444 16.99512.209379 4.18747.27232 8.30683.23792 12.52322-.08121 8.22751-.58522 16.55578-1.364441 24.8088-1.160277 12.3076-2.911248 24.62943-4.771063 36.89864-.185132 1.22422-.370264 2.44843-.555396 3.67265-31.367212 14.9368-62.734226 29.87401-94.101563 44.81055v22.99609c33.151311-15.7715 66.300631-31.54719 99.451172-47.32031 4.269494 7.38472 7.832941 15.21377 11.152344 23.00976 4.752542 11.27866 8.949707 22.95765 12.748555 34.65481.238536.58504-.690281.89849-.951014 1.36738-35.879766 36.86436-71.75964133 73.72862-107.639338 110.59305v5h24.394531c33.646732-34.6306 67.294338-69.26035 100.941407-103.89063 27.089774-.97561 54.285484-1.09998 81.421674-.47772 20.68556.51816 41.44354 1.53832 61.98576 3.45476 7.94952.75204 15.84651 1.64042 23.77616 2.74171 4.01127.56485 8.24321 1.21134 12.2307 1.9148 4.02576.69426 8.10718 1.48943 12.15896 2.38145 1.87569.42102 3.74927.85235 5.61229 1.3268 10.46589 28.74098 20.93384 57.48121 31.39844 86.22265 7.30599.00001 14.61198 0 21.91797 0-11.32469-31.35157-22.64554-62.70453-33.96875-94.05664 17.52181-20.23173 35.57676-40.24825 56.67473-56.85027 15.82284-12.52492 33.33474-22.94785 52.02082-30.59273 2.48973-1.02809 5.0014-2.00305 7.52906-2.93395 44.57023 19.33093 89.14114 38.66027 133.71094 57.99219 0-7.48112 0-14.96224 0-22.44336-41.31153-18.01682-82.62235-36.03528-123.9336-54.05274-.82174-5.49442-1.08539-11.06757-.85742-16.61718.0437-.86715.10167-2.02258.17423-2.99657.15067-2.04116.3598-4.11509.62329-6.05721.3565-2.75268.87026-5.71962 1.45248-8.53216 3.33163-15.88724 9.5023-31.04745 16.00909-45.91584 3.19963-7.26454 6.50102-14.48316 9.74286-21.72869 30.38872-5.73414 60.77707-11.4702 91.16602-17.20313 0-7.08333 0-14.16666 0-21.25-28.93898 5.42638-57.87899 10.84724-86.81836 16.27149-5.49669-2.78427-10.9625-5.66242-16.17326-9.02936-4.50662-2.86915-8.83363-6.01746-12.97127-9.39642-.53619-.45871-1.3222-1.09756-1.95001-1.6368-12.25951-10.42683-22.40616-23.196-30.43555-37.11158-3.6016-6.19854-6.85415-12.71663-9.74725-19.20084-5.85618-13.15182-10.57225-26.852405-14.91928-40.643175-.26324-.840296-.52647-1.680593-.78971-2.520889 24.09017-35.545141 48.18296-71.088508 72.27149-106.634766-8.5573 0-17.11459 0-25.67188 0-21.8922 32.4874622-43.78804 64.972468-65.68164 97.458984-9.31376.191046-18.63219.231437-27.94531-.01563-2.40498-.0789-4.99648-.152432-7.47178-.273565-5.40911-.253668-10.92018-.630751-16.30694-1.169318-3.9677-.393753-7.88012-.869594-11.78268-1.450267-2.95533-.435465-5.88348-.935363-8.71875-1.478746-6.91021-1.321975-13.75049-3.025952-20.44837-5.182791-1.33086-.430034-2.87691-.953967-4.27785-1.454923-14.18394-5.027334-27.56803-12.415098-39.1284-22.074374-6.42065-37.4544141-12.84069-74.908932-19.26172-112.363281-7.02278 0-14.04557 0-21.06836 0 .13347.778646.26693 1.557291.40039 2.335937zm45.78125 139.400391c16.01282 9.454076 33.79472 15.654004 51.98494 19.313572 20.71079 4.189771 41.9051 5.31015 62.99358 5.342678-8.96745 12.268878-17.9349 24.537758-26.90234 36.806638-5.36924.0441-10.81008-.004-16.10401-.21718-14.66442-.59771-29.4662-2.39964-43.31205-7.48647-8.65038-3.17223-16.82538-7.69784-23.9609-13.54049-2.07552-13.710936-4.15104-27.421873-6.22656-41.132811.50912.304688 1.01823.609375 1.52734.914063zm-15.76953 44.091798c-6.97804 7.21008-14.87304 13.74571-24.05273 17.94726-.89618.41142-2.04656.9067-3.06387 1.30015-6.27008 2.4914-13.16246 3.78914-19.77597 4.05532-3.71389.14525-7.43725.0167-11.13477-.35547-8.92904-11.26627-17.85807-22.53255-26.78711-33.79882 15.38258-.74267 30.61942-4.505726 44.53192-11.121237 12.25021-5.781068 23.44843-13.634169 33.52863-22.650251 2.2513 14.874349 4.5026 29.748698 6.7539 44.623048zm150.08594-10.1875c7.01404 20.63158 15.46527 40.9451 27.33987 59.29464 9.77808 15.18125 21.97317 28.86078 36.3017 39.88518 2.56817 1.9851 5.20267 3.88319 7.88773 5.7069-13.72461 2.86849-27.44922 5.73698-41.17383 8.60547-1.29801-.67427-2.42948-1.27242-3.71554-2.0088-10.55182-5.93003-19.86273-14.05648-27.09881-23.76419-6.64586-8.83043-11.64135-18.7833-15.73643-29.01608-.33485-.8447-.76095-1.94132-1.13086-2.88281-.36214-.98646-.85802-2.27513-1.22156-3.27279-2.29942-6.29483-4.32169-12.60462-6.29211-18.99088 8.24739-11.2832 16.49479-22.56641 24.74218-33.84961.0326.0977.0651.19531.0977.29297zm-223.21094 47.60156c-1.18425 13.26186-5.08021 26.24275-11.21036 38.05276-.73783 1.45585-1.62965 3.07941-2.4903 4.60009-4.29112 7.50748-9.3408 14.55938-14.79543 21.26121-13.722006-3.60221-27.444011-7.20442-41.166016-10.80664 12.670498-16.21214 23.724975-33.81923 31.569616-52.88633 4.67166-11.31351 8.19069-23.10546 10.41866-35.14296 9.22461 11.64062 18.44922 23.28125 27.67383 34.92187zm98.31641-13.47266c14.05256 7.22535 29.61996 11.05081 45.25946 12.7945 6.07873.6853 12.18747 1.08408 18.30109 1.27972-8.80664 12.05013-17.61328 24.10026-26.41993 36.15039-1.92082-.87816-3.79229-1.86208-5.61328-2.93164-.40047-.23972-1.11455-.6643-1.62647-.99415-9.74579-6.16719-17.72447-14.60622-25.81091-22.72362-.49469-.61893-1.39605-1.03389-1.33145-1.93333-1.107-7.31291-2.21401-14.62583-3.32101-21.93874.1875.099.375.19792.5625.29687zm-17.17383 29.04493c-9.77935 6.28715-20.94909 10.01275-32.19726 12.67187-5.83399-7.36263-11.66797-14.72526-17.50196-22.08789 12.46366-1.27682 24.57449-5.49548 35.2465-12.03779 3.5255-2.13744 6.89953-4.51936 10.13631-7.07158 1.43881 9.50846 2.87761 19.01692 4.31641 28.52539zm102.57422-7.66407c5.77446 16.44394 13.1396 32.55407 23.89922 46.3748 5.04398 6.49418 10.80537 12.43539 17.19062 17.61934-15.04362 3.14454-30.08724 6.28907-45.13086 9.4336-7.46686-6.5461-13.15244-14.85786-17.74407-23.60285-2.29286-4.29333-4.37087-8.69647-6.45319-13.09442 9.26302-12.67382 18.52604-25.34765 27.78906-38.02148.14974.43034.29948.86068.44922 1.29101zm-152.4375 31.56446c-.92086 8.4881-3.59038 16.71444-7.36114 24.35188-2.02096 4.133-4.28481 8.14165-6.58808 12.12273-8.00976-2.10352-16.01953-4.20703-24.0293-6.31055 10.25102-13.84414 18.55723-29.28784 23.2147-45.92662.20415-.70802.38827-1.42164.58413-2.13197 4.72656 5.96484 9.45313 11.92968 14.17969 17.89453zm57.91211 29.29883c-2.19061.53145-4.3303 1.27063-6.38672 2.19335-6.60156-8.33007-13.20312-16.66015-19.80469-24.99023 7.38685-2.13574 14.63362-4.82395 21.48243-8.33594 1.56966 10.37761 3.13932 20.75521 4.70898 31.13282zm18.11523-25.58008c4.91951 3.97103 10.17109 7.55342 15.78516 10.47265-3.98242 5.44857-7.96484 10.89714-11.94727 16.34571-.59677-.10626-.93288-.41378-.86968-1.06053-1.34292-8.87501-2.68584-17.75001-4.02875-26.62502.35351.28906.70703.57812 1.06054.86719zm-40.38867 41.24609c-.83697 1.2617-1.6032 2.57162-2.27734 3.92774-8.80925-2.3125-17.61849-4.625-26.42774-6.9375 3.76839-6.76304 7.12378-13.78435 9.5625-21.14258 6.38086 8.05078 12.76172 16.10156 19.14258 24.15234zm75.02539-20.26562c3.98151 7.78 8.505 15.32543 14.0293 22.11718-7.69662 1.60873-15.39323 3.21745-23.08984 4.82618-1.26354-3.11711-2.94344-6.06635-4.99219-8.73438 4.58268-6.27018 9.16536-12.54036 13.74804-18.81055.10157.20052.20313.40105.30469.60157zm-175.16406 20.02539c4.13528 13.07544 5.24513 26.92637 4.66282 40.57403-.23627 5.95009-.79217 12.09361-1.49697 18.09419-.66533 5.65821-1.4888 11.35303-2.33577 17.02514-13.277997 6.21354-26.555991 12.42708-39.833986 18.64062 3.482318-23.88229 6.046296-48.0771 4.393347-72.23107-.737891-10.95015-2.364685-21.84897-5.012488-32.5033 13.207682 3.46679 26.415365 6.93359 39.623047 10.40039zm327.77344-3.86328c-8.19652 18.08021-16.03595 36.5358-20.00297 56.07393-2.0001 9.83578-2.95654 19.90377-2.52438 29.93974-11.78645-4.66406-23.57291-9.32813-35.35937-13.99219-.37149-2.995-.46936-6.02047-.35352-9.03516.0383-.85124.10465-1.97599.18937-2.93225 1.08471-12.03972 5.34092-23.4986 9.99423-34.55993 2.40438-5.64941 5.03174-11.4367 7.58101-17.1258.32363-.59095.49692-1.36876.91531-1.84193 13.47974-2.8174 26.95948-5.6348 40.43922-8.4522-.29296.64193-.58593 1.28386-.8789 1.92579zm-284.20703 15.29882c2.05045 4.96447 3.28843 10.45073 3.82226 15.6543.43774 4.20262.49647 8.50444.31841 12.64735-.0687 1.61689-.16255 3.14667-.28911 4.66152-.0916 1.04749-.15927 2.02791-.26736 2.99084-.23078 2.3439-.50977 4.68289-.82639 7.0167-7.66211 3.58463-15.32422 7.16927-22.98633 10.7539 2.22934-17.2212 3.28362-34.76749.74739-52.01805-.34968-2.39373-.7557-4.77955-1.24934-7.14796 6.91015 1.8138 13.82031 3.6276 20.73047 5.4414zm217.74023-.27929c-5.47364 12.47553-10.29266 25.4286-12.00405 39.01869-.40255 3.17427-.63954 6.37137-.67759 9.57115-9.63737-3.81315-19.27474-7.6263-28.91211-11.43945.0118-2.24736.11587-4.72088.28711-6.81836.17549-2.13211.50891-4.45421.9375-6.41992.78408-3.62935 2.09754-7.14098 3.88281-10.39649.19121-.35122.58395-1.04487.86998-1.5168 1.8145-2.98323 3.92897-5.76976 5.89174-8.65507 10.37695-2.16927 20.75391-4.33854 31.13086-6.50782-.46875 1.05469-.9375 2.10938-1.40625 3.16407zm-167.23633 13.53906c.23081 2.28504.66981 4.54953 1.31446 6.75391-9.01823 4.22005-18.03646 8.4401-27.05469 12.66015.58811-8.86083.32821-17.82824-1.4375-26.55078 9.05924 2.37891 18.11849 4.75781 27.17773 7.13672zm109.47266-3.16406c-2.29649 6.00196-3.57138 12.35896-4.10938 18.75195-10.41927-4.12174-20.83854-8.24349-31.25781-12.36523.29471-.43663 1.17006-.30762 1.69529-.51968 11.39389-2.38147 22.78778-4.76293 34.18166-7.14439-.16992.42578-.33984.85157-.50976 1.27735zm-17.24219 35.94336c-8.60659 4.91658-16.57278 10.86748-24.28519 17.07096-.40166.14619-1.11804 1.35663-1.22991.52287-2.53599-7.88088-5.07197-15.76177-7.60795-23.64266 1.99966-1.43553 3.85585-3.06923 5.53907-4.86524 9.19466 3.63802 18.38932 7.27605 27.58398 10.91407zm-113.70703 20.45312c-1.7103-3.5246-3.86216-6.82869-6.33203-9.86719 10.07096-4.71289 20.14193-9.42578 30.21289-14.13867-7.96029 8.00196-15.92057 16.00391-23.88086 24.00586zm49.86133-20.5625c3.61842.88217 7.36754 1.22835 11.08594 1.01172 2.69791 8.38346 5.39583 16.76693 8.09375 25.15039-15.80415-.0849-31.6236.50467-47.34961 2.11133 9.37825-9.42774 18.75651-18.85547 28.13476-28.2832zm110.53711 18.58399c-15.44338 8.32778-29.33895 19.2973-41.80844 31.59246-5.14937 5.05424-10.0837 10.32244-14.90055 15.69269-2.82226-8.77213-5.64453-17.54427-8.46679-26.3164 3.99232-3.54723 8.24203-7.02716 12.40429-10.22071 7.21315-5.44504 14.80093-10.47135 22.98468-14.34254 3.27268-1.54048 6.70619-2.7721 10.28602-3.35547.6524-.10633 1.32431-.43293 1.92905-.002 5.85724 2.31716 11.71449 4.63432 17.57174 6.95148zm-185.94727 1.64843c3.26349 3.24467 6.57286 6.71829 8.10352 11.15821.62949 1.74551 1.04072 3.56376 1.30664 5.39843-8.19076 8.23373-16.38151 16.46745-24.57227 24.70118-1.8064-10.07985-3.68646-20.26332-7.66868-29.75237-.15399-.52959-.8747-1.27478.0539-1.39255 7.46859-3.49466 14.93718-6.98933 22.40577-10.48399.1237.1237.24739.2474.37109.37109zm242.63867 20.78321c-19.99736 9.56492-38.49689 22.11714-55.20042 36.66189-14.73442 12.75583-28.13935 26.95566-41.03004 41.54709-3.25586-10.11979-6.51172-20.23958-9.76758-30.35937 12.09806-13.96302 24.54586-27.81355 39.21454-39.15095 11.07101-8.6361 23.40439-15.66456 36.52764-20.66937 10.08529 3.99024 20.17058 7.98047 30.25586 11.97071zm-284.88867-.97852c1.54059 4.03238 2.77369 8.17507 3.8711 12.34766.43907 1.71682.90836 3.64139 1.30764 5.4514 1.5806 7.30479 2.66989 14.7089 3.52829 22.13063-9.78125 9.83398-19.562497 19.66797-29.343747 29.50195-4.632767-13.24516-9.600894-26.40207-15.668376-39.06553-1.830353-3.80106-3.776467-7.54754-5.888265-11.20009 14-6.55209 28-13.10417 41.999998-19.65625.0645.16341.12891.32682.19336.49023zm136.63281 7.04492c2.31644.01 4.63297.007 6.94922.041 2.64323 8.21159 5.28646 16.42318 7.92969 24.63476-17.19302-2.39385-34.58439-2.92691-51.92459-2.89536-17.4888.091-34.97244.7921-52.42111 1.96372l17.53125-17.62695c3.38875-.82518 6.86538-1.51529 10.23185-2.06786 8.91001-1.47815 18.00485-2.3386 26.95369-2.94581 7.68268-.50075 15.39252-.81461 23.04642-.97304 3.90078-.0768 7.80203-.1226 11.70358-.13048zm-37.9746 42.65039c6.82159-.009 13.66172.0895 20.43039.33327 11.51901.44052 23.04872 1.22473 34.4407 3.04369 1.63931.27552 3.45733.59369 5.15625.93945 3.55924 11.0599 7.11849 22.11979 10.67773 33.17969-21.06809-4.15858-42.47192-6.33049-63.8772-7.80718-26.70311-1.78204-53.47451-2.34811-80.23294-2.32572-8.126.0123-16.25181.10149-24.37619.26376 7.903-7.94401 15.80599-15.88802 23.70899-23.83204 18.63478-1.75148 37.22605-2.91764 55.93287-3.49702 5.98449-.1821 12.10213-.27449 18.1394-.2979z" fill="#00b7e5" filter="url(#c)"/><path d="m-10.05507-41.995239 105.109587 133.986364c-2.4525 43.732795-21.3732 77.212795-47.151 108.028795l-85.575639-21.46681v17.388l81.832539 20.48761c13.815 40.5585 8.1792 81.7443 1.638 124.4646l-93.917726 44.72307v18.567l98.241326-46.74537c5.8644 9.6363 12.2922 24.3423 17.154 37.197 3.8547 10.197 6.7266 18.8856 8.3277 23.8815l-108.960793 111.94995v2.187h21.5478l100.912093-103.85895c8.343-.3267 37.593003-1.3257 74.430003-.675 42.0696.7425 92.3508 3.87 125.145 12.3003l31.28461 85.90788h17.6688l-33.39961-92.48148c32.346-37.359 64.7208-72.4725 118.5606-92.106l131.65518 57.10039v-18.0873l-123.74328-53.97019c-5.7366-35.289 11.4795-68.9985 27.558-105.012l90.56157-17.08873v-17.1828l-85.12557 15.95293-4.905-2.5227c-50.4792-25.9479-68.7006-70.1919-83.97-119.430895l70.69599-104.311807h-20.835l-65.67039 97.439407c-52.4457 1.1286-101.2275-2.2167-139.0014-34.011l-19.10292-111.432267h-17.01l19.61052 114.789267c-24.4224 26.091-51.8076 43.1586-94.1256 39.0204l-97.98159-124.988164h-21.4596zm233.60889 105.996364c36.5472 23.6736 79.6482 27.8046 123.0786 27.567l-29.826 40.805995c-32.9292.3564-62.8704-2.7306-86.2605-22.1742l-6.9912-46.198795zm-16.9506.396 7.461 49.297495c-16.0335 16.7544-33.5646 27.162-61.1955 24.1686l-29.7684-37.5633c34.7337-.665995 61.5222-15.429595 83.502-35.902795zm155.9916 33.8328c13.9824 42.270295 33.345 83.420995 76.095 110.449795l-46.5912 9.738-.7344-.3753c-33.543-17.2305-45.4005-46.476-55.7415-79.947l-.6444-2.0835 27.6147-37.781995zm-252.666 12.526195 30.9537 39.0582c-2.2707 26.6247-13.8636 47.394-29.826 66.7863l-45.363603-11.9097c21.3426-26.7966 38.376003-57.0537 44.236803-93.9357zm124.0632 22.221c21.5424 12.3246 45.945 15.66 70.5636 16.1532l-29.619 40.5252c-13.5522-5.7276-23.5233-15.9777-34.713-27.2925l-2.1087-2.133-4.1238-27.252zm-16.9002.729 5.0328 33.2595c-10.0584 6.75-21.9924 10.935-35.1414 13.9428l-20.6118-26.0073c20.439-1.2555 36.9855-9.612 50.7204-21.195zm105.642 19.0557c8.7714 26.2395 20.8314 52.2153 45.522 70.641l-50.3352 10.521c-11.6973-10.0638-17.9793-22.2606-24.4404-35.901l-1.503-3.177zm-167.7888 14.7987 17.2278 21.7386-.0702.639c-1.737 15.6285-7.9893 26.667-14.985 38.7567l-28.3824-7.452c11.8908-15.6204 21.546-33.1452 26.208-53.6823zm69.9066 17.4177 5.4108 35.7678c-3.2553.621-6.3504 1.6875-9.225 3.132l-22.6593-28.5903c9.171-2.475 18.117-5.7105 26.4726-10.3086zm17.424 2.7387c6.6195 5.9202 13.968 11.4498 22.6368 15.651l-14.2506 19.4958c-1.0584-.4437-2.1393-.846-3.2463-1.1862l-5.139-33.9615zm-56.475 18.7776 22.419 28.287c-1.4337 1.9773-2.664 4.1094-3.672 6.363l-30.5226-8.0118c4.4595-7.8813 8.847-16.4277 11.7756-26.6382zm94.9725 3.6738c4.608 9.3735 9.9936 18.9855 17.6877 27.8217l-28.0287 5.8572c-1.422-4.0464-3.5487-7.7616-6.2433-10.989l16.5843-22.6908zm-217.594803 11.2536 43.985703 11.547c8.3043 25.3935 5.2155 51.372 1.08 78.7032l-44.164803 20.6658c5.355-36.1323 9.261-73.2726-.9-110.916zm374.527803 4.6458c-13.4397 29.3715-27.1026 60.0597-24.6897 93.717l-39.366-15.5763c-3.24-22.5144 7.8984-44.5005 18.6525-68.6502l45.405-9.4896zm-311.9184 11.79 24.8526 6.5232.5058 1.26c5.49 13.6197 4.8447 28.5948 2.61 44.7372l-27.2862 12.7665c2.8926-21.1608 4.4784-43.0308-.6822-65.286zm245.9655 1.9953c-8.1387 17.8353-16.0173 36.7227-15.5268 57.4623l-32.9283-13.0293c-.004-11.8332 1.2555-20.556 8.208-30.528l4.482-6.4296 35.766-7.4763zm-201.924 9.5652 31.7133 8.3268c.198 3.2724.846 6.4215 1.8702 9.396l-31.743 14.8527c.945-10.71.8343-21.6432-1.8396-32.5755zm143.244 2.7c-4.1625 8.4897-5.742 17.001-6.2532 25.6482l-35.3502-13.986c.2394-1.0125.423-2.0457.576-3.087l41.0265-8.5752zm-49.3164 26.6958 32.8536 12.9987c-8.019 4.122-15.5844 9.4824-22.2093 14.544-3.5163 2.6874-6.3963 5.0418-8.8974 7.1478l-9.0918-28.2573c2.736-1.8 5.2074-3.9672 7.3458-6.4332zm-52.308 3.1356-33.8913 34.0713c-2.3022-5.58-5.4162-10.0323-8.6292-13.7115l.0792-.5004 42.4386-19.8594zm15.957 7.8048c3.0393.846 6.237 1.3095 9.5463 1.3095 1.215 0 2.4174-.0603 3.6018-.18l9.4257 29.286c-11.9826-.144-33.8517.0684-55.5237 2.709l32.949-33.1236zm93.1374 11.529 22.8267 9.0306c-26.46 13.428-45.3384 32.3064-62.3268 51.48l-9.9396-30.8871c3.1986-2.8566 7.857-6.867 13.509-11.1843 10.278-7.8543 23.5872-15.93 32.1165-17.6643l3.8142-.774zm-167.8482 8.1585 1.3653 1.3725c5.2632 5.2875 8.9757 9.2727 10.1007 18.675l-28.0287 28.1772c-.315-2.043-.6642-4.167-1.08-6.4278-1.809-9.855-4.0032-20.6478-8.3925-29.6136l26.0352-12.1815zm212.3352 9.4437 35.2962 13.9662c-44.4807 20.25-74.6235 51.0156-102.105 82.323l-11.1915-34.7823c21.6927-25.0542 42.9057-48.2544 78.0012-61.506zm-253.7874 9.9513c2.7018 6.1533 5.5998 16.353 7.2684 25.4394 1.4238 7.749 2.25 14.472 2.682 18.405l-32.293803 32.4675c-1.512-4.482-3.3993-9.864-5.895-16.461-4.8366-12.7944-10.7937-27.0108-17.649-38.376l45.887403-21.474zm135.7767 8.2332c3.5712-.005 6.1326.027 8.415.0585l9.3564 29.07c-23.6313-3.735-52.7697-3.771-78.3513-2.8665-14.0175.495-25.2036 1.1943-34.0713 1.8585l21.6972-21.8133.855-.207c21.3714-5.211 53.874-6.0714 72.099-6.1002zm-37.9728 42.651c22.4316-.0477 45.3294 1.1394 61.5744 4.5927l12.0852 37.5543c-34.8372-7.407-80.0856-9.8793-118.8774-10.5642-24.4998-.4338-44.3133-.1692-57.483.1557l27.72-27.8667c6.9885-.6813 27.639-2.5578 52.9677-3.4524 7.11-.252 14.535-.405 22.0122-.4203z" fill="#e5f9ff"/></svg>