<svg height="500.00003" viewBox="0 0 500 500.00003" width="500" xmlns="http://www.w3.org/2000/svg" xmlns:xlink="http://www.w3.org/1999/xlink"><linearGradient id="a" gradientTransform="matrix(-1 0 0 1 515.05138 0)" gradientUnits="userSpaceOnUse" x1="245.36711" x2="174.98285" y1="372.12054" y2="451.88284"><stop offset="0" stop-color="#775fa0"/><stop offset="1" stop-color="#3b2f4f"/></linearGradient><linearGradient id="b" gradientUnits="userSpaceOnUse" x1="370.80191" x2="391.40756" y1="329.69739" y2="401.41049"><stop offset="0" stop-opacity="0"/><stop offset="1" stop-color="#040305" stop-opacity=".75"/></linearGradient><filter id="c" color-interpolation-filters="sRGB" height="1.006472" width="1.005592" x="-.002796" y="-.003236"><feGaussianBlur stdDeviation=".17280202"/></filter><g transform="translate(-500)"><path d="m926.7767 73.223311c45.24113 45.241099 73.2233 107.741109 73.2233 176.776699 0 69.0356-27.98221 131.53559-73.2233 176.77669-45.2411 45.2411-107.74109 73.22332-176.77669 73.22332-69.03559 0-131.5356-27.98219-176.7767-73.22332-45.2411-45.2411-73.22331-107.74109-73.22331-176.77669 0-69.03559 27.9822-131.5356 73.22331-176.776699 45.2411-45.241105 107.74111-73.22330934 176.7767-73.22330934 69.0356 0 131.53559 27.98220534 176.77669 73.22330934z" fill="#3b2f4f"/><g clip-rule="evenodd"><path d="m730.6486 0c-128.19182 22.346591-234.17086 139.43202-223.06447 273.24395 5.6201 44.55936 16.72649 83.63245 44.55937 122.70552l50.17947 50.17947c33.45298 22.34661 72.52606 44.55938 111.46533 50.17946 39.07308 5.62012 78.01235 5.62012 111.46534-5.62008 39.07308-16.72649 72.52607-33.45297 100.35893-61.28587 33.45297-39.07306 55.79958-83.63245 66.90595-139.43201v-61.28587c-5.62008-27.83287-11.10637-50.17947-22.34657-78.01235-11.10641-22.34659-27.8329-44.55937-50.17947-61.285858-27.83289-27.832879-61.28586-44.559368-100.35895-55.799569-27.83288-5.620101-55.79957-11.10639-89.25255-5.620101-78.01235 11.106391-139.43202 61.28586-172.885 128.191818-11.10639 27.83288-16.72649 61.28586-22.34659 89.25255 0 33.45298 5.6201 66.90596 16.72649 94.73885 22.34659 44.55936 55.79957 89.25254 105.97904 111.46532 16.72649 5.62012 33.45298 11.1064 55.79957 16.72648 122.70553 22.34661 234.17085-55.79954 250.89734-178.37127 11.10641-78.01236-22.34657-139.43203-72.52604-189.6115-100.35895-89.25255-267.62385-44.559369-312.18322 78.01235-5.6201 27.83288-16.72649 55.79958-16.72649 83.63245 5.6201 78.01235 55.79957 150.53843 133.81192 172.885 61.28586 16.72649 122.70553 5.62012 172.885-33.45298 11.10639-11.10637 22.34659-22.34657 33.45299-33.45297 61.28584-83.63246 44.55935-195.09778-44.55937-256.51746-27.83288-16.726488-55.79958-22.346588-89.25256-27.832879-22.34659-5.620101-44.55937 5.620101-66.90596 11.106391-27.83288 16.726488-50.17947 22.346588-72.52606 50.179468-27.83288 33.45298-33.45298 66.90596-39.07308 105.97904 0 55.79958 27.83288 117.08544 83.63245 144.91833 78.01235 44.55934 183.99139 11.10637 223.06447-72.52607 22.3466-55.79958 11.1064-128.19183-39.07308-172.88501-33.45298-27.83288-66.90596-39.07308-111.46533-39.07308-66.90596 5.6201-111.46533 55.79957-122.70553 122.70553-11.10639 72.52606 33.45298 139.43202 105.97904 150.53843 100.35894 16.72649 183.99138-89.25257 139.43202-178.37131-11.10638-16.72649-27.83288-39.07308-50.17947-50.17947-27.83288-11.10639-55.79957-16.72649-83.63245-11.10639-33.45298 5.6201-55.79957 27.83288-72.52606 50.17947-16.72649 27.83288-16.72649 55.79957-11.10639 83.63245 11.10639 33.45298 39.07308 61.28586 72.52606 72.52607 44.55937 16.72649 89.25255-5.62011 111.46533-39.07309 33.45298-55.79957 5.6201-117.08543-50.17947-139.43202-50.17947-16.72649-122.70553 27.83288-105.97904 89.25255 5.6201 16.72649 11.10639 39.07309 27.83288 50.17947 22.34659 16.7265 50.17947 16.7265 72.52606 11.1064 22.34659-11.1064 39.07308-33.45299 39.07308-61.28587-5.6201-16.72649-5.6201-39.07308-22.34659-50.17947-13.91644-8.36324-29.2379-11.13984-43.17107-8.34651-13.93317 2.79332-26.47803 11.15656-34.84128 25.073-5.6201 16.72649-11.10639 33.45298 9.50065 44.827 41.74932-49.10898 35.32635.40143 29.84006-16.45887v5.6201c16.72649-5.6201 22.34659-22.34659 27.83288-33.45298 5.6201 5.6201 16.72649 11.10639 16.72649 22.34659 11.10639 39.07308-27.83288 72.52606-66.90596 61.28586-33.45298-11.10639-44.55937-50.17947-39.07309-83.63245 5.62011-22.34659 22.3466-39.07308 50.17948-44.55937 33.45298-5.6201 66.90596 11.10639 83.63245 39.07308 16.72649 27.83288 16.72649 50.17947 0 78.01235-33.45298 55.79958-105.97905 55.79958-150.53841 11.10639-33.45298-44.55937-22.3466-117.08543 27.83288-144.91831 16.72648-11.10639 39.07308-16.72649 61.28586-16.72649 11.10638 0 27.83288 5.6201 39.07308 11.10639 27.83288 11.10639 39.07308 39.07308 55.79957 61.28586 5.6201 16.72649 5.6201 27.83288 5.6201 44.55937-5.6201 72.52606-72.52606 122.70554-144.91831 105.97904-83.63246-22.34659-122.70554-122.70553-72.52606-195.09778 11.10638-16.72649 22.34659-27.83288 39.07308-39.07308 78.01235-44.559372 167.2649-5.6201 200.71788 66.90596 39.07309 94.73884-39.07308 206.33797-139.43202 200.71788-27.83288-5.62012-55.79958-5.62012-78.01235-22.3466-22.34659-11.10638-27.83288-27.83287-39.07309-39.07307-66.90596-78.01235-33.45298-195.09778 55.79958-239.79097 39.07308-16.726484 83.63245-16.726484 128.19182-5.6201 94.73883 33.45298 139.43201 144.91832 94.73883 234.17087-11.10637 27.83288-33.45297 44.55935-55.79956 66.90596-22.34659 16.72649-50.17947 27.83289-78.01235 33.45298-44.55937 5.62012-89.25256-5.62009-128.19182-27.83286-94.73884-66.90598-117.08544-211.82429-22.3466-289.97045 16.7265-11.1064 27.83288-33.452984 50.17948-39.073085 33.45298-11.106392 66.90596-22.346593 105.97904-16.726492 27.83288 5.6201 55.79957 16.726492 78.01235 27.832879 16.72649 16.726488 39.07309 22.346598 50.17946 44.559368 11.10641 16.72649 27.8329 33.45298 33.45298 55.79957 22.34661 66.90596 16.72649 139.43203-27.83286 195.09781-16.72649 22.34657-33.45298 44.55934-61.28587 55.79954-22.34659 5.62012-39.07308 22.34661-61.28586 22.34661-39.07308 0-83.63245 5.62008-122.70553-11.10641-117.08543-44.55934-167.26491-195.09777-105.97905-306.69691 16.7265-33.45298 44.55937-61.285864 78.01236-83.632457 44.55936-22.34659 89.25255-33.452979 139.43202-27.832879 61.28586 5.6201 111.46532 39.07308 156.1585 83.632456 22.34661 22.34659 27.8329 50.17947 39.0731 78.01234 11.10637 16.7265 5.62008 39.07309 11.10637 61.28586 11.10645 172.88502-195.09777 301.07685-351.25629 211.82429-27.83287-16.72649-50.17946-27.8329-66.90596-50.17947-61.28586-72.52608-78.01235-167.26492-50.17947-256.51747 16.72649-33.45298 39.07309-61.28586 61.28587-89.252546 39.07308-39.073083 94.73884-55.799574 144.9183-72.526064" fill="#221b35" opacity=".9"/><path d="m731.45148 15.388371c-120.56454 21.008472-220.12061 131.001869-209.68329 256.785079 5.21867 41.88313 15.78981 78.68141 41.88314 115.34586 15.7898 15.65602 31.4458 31.44582 47.23561 47.1018 31.4458 21.0085 68.11026 41.88314 104.77473 47.23563 36.66447 5.21866 73.32893 5.21866 104.77473-5.21866 36.66447-15.65601 68.11026-31.44582 94.33742-57.67295 31.44579-36.66448 52.45425-78.68141 62.89161-131.00187v-57.67294c-5.2187-26.22714-10.43736-47.23561-21.00851-73.32894-10.43731-21.00847-26.22712-41.88313-47.10179-57.672935-26.22713-26.227136-57.67292-41.88313-94.33739-52.454272-26.22714-5.218666-52.45427-10.43733-83.90008-5.218666-73.32893 10.437332-131.00187 57.672938-162.44767 120.564543-10.43733 26.22713-15.78981 57.67294-21.00847 83.90008 0 31.44579 5.21866 62.8916 15.78981 89.11874 21.00847 41.88313 52.45427 83.90006 99.55607 104.77473 15.7898 5.21866 31.4458 10.43732 52.45427 15.65601 115.34588 21.00847 220.12062-52.45428 235.91043-167.66635 10.43732-73.32894-21.00847-131.00188-68.11026-178.23748-94.33742-83.900079-251.56643-41.883137-293.44956 73.32893-5.21867 26.22713-15.78981 52.45427-15.78981 78.68141 5.21866 73.32893 52.45427 141.573 125.78321 162.44767 57.67293 15.78981 115.34587 5.21866 162.44767-31.44578 10.43733-10.43736 21.00849-21.00849 31.4458-31.44582 57.67295-78.68141 41.88314-183.45615-41.88313-241.12909-26.22714-15.7898-52.45428-21.008465-83.90008-26.227131-21.00847-5.218666-41.88313 5.218666-62.8916 10.437331-26.22714 15.7898-47.23561 21.00847-68.11027 47.1018-26.22713 31.4458-31.4458 62.8916-36.66447 99.55606 0 52.45428 26.22714 110.12722 78.68142 136.22052 73.32893 41.88314 173.01881 10.43736 209.68327-68.11025 21.00847-52.45427 10.43736-120.56454-36.66446-162.44767-31.4458-26.22714-62.8916-36.66447-104.77473-36.66447-62.89161 5.21867-104.77474 52.45428-115.34588 115.34588-10.43733 68.11027 31.4458 131.00187 99.55607 141.57302 94.3374 15.65599 173.01881-83.90008 131.00187-167.66635-10.43733-15.7898-26.22714-36.66446-47.1018-47.2356-26.22713-10.43733-52.45427-15.656-78.68141-10.43733-31.4458 5.21866-52.45427 26.22713-68.11027 47.23561-15.7898 26.22713-15.7898 52.45427-10.43732 78.6814 10.43732 31.44581 36.66446 57.67295 68.11026 68.11027 41.88314 15.78981 83.90008-5.21866 104.77474-36.66446 31.4458-52.45428 5.21866-110.12721-47.1018-131.00187-47.23561-15.78981-115.34588 26.22713-99.55607 83.90007 5.21867 15.65599 10.43733 36.66447 26.22714 47.23561 21.00847 15.78981 47.10179 15.78981 68.11027 10.43733 21.00847-10.43733 36.66446-31.4458 36.66446-57.67294-5.21866-15.7898-5.21866-36.66447-21.00847-47.23561-13.11356-7.8949-27.5318-10.50423-40.62864-7.86145-13.09684 2.64279-24.87229 10.53769-32.70029 23.65126-5.21867 15.656-10.43733 31.4458 8.9654 42.15076 39.20689-46.70036 33.05154-.26763 27.96669-16.05744v5.21867c15.78981-5.21867 21.00847-21.00847 26.22714-31.4458 5.21866 5.21866 15.65599 10.43733 15.65599 21.00847 10.43733 36.66447-26.22714 68.11027-62.8916 57.67294-31.4458-10.43733-41.88313-47.23561-36.66447-78.68141 5.21867-21.00848 21.00847-36.66447 47.1018-41.88314 31.4458-5.21866 62.8916 10.43734 78.68141 36.66447 15.65599 26.22714 15.65599 47.23561 0 73.32893-31.4458 52.45428-99.55607 52.45428-141.57302 10.43734-31.4458-41.88313-21.00847-110.12722 26.22714-136.22054 15.78981-10.43733 36.66447-15.656 57.67294-15.656 10.43733 0 26.22714 5.21867 36.66447 10.43733 26.22713 10.43733 36.66446 36.66447 52.45427 57.67294 5.21866 15.78981 5.21866 26.22714 5.21866 41.88314-5.21866 68.11026-68.11026 115.34586-136.22053 99.55606-78.68141-21.00847-115.34588-115.34587-68.11027-183.45614 10.43733-15.656 21.00847-26.22714 36.66447-36.66447 73.32893-41.88313 157.22901-5.21866 188.67481 62.8916 36.66448 89.11874-36.66447 193.89349-131.00188 188.67483-26.22713-5.21866-52.45427-5.21866-73.32893-21.00848-21.00847-10.43734-26.22713-26.22714-36.66447-36.66447-62.8916-73.32893-31.4458-183.45615 52.45428-225.33928 36.66446-15.789805 78.68141-15.789805 120.56454-5.21866 89.11872 31.4458 131.00186 136.22053 89.11872 220.12061-10.43731 26.22714-31.44578 41.88313-52.45425 62.89162-21.00847 15.78977-47.23561 26.22712-73.32894 31.44578-41.88313 5.21866-83.90007-5.21866-120.56454-26.22712-89.11874-62.89162-110.12721-199.11215-21.00847-272.5749 15.656-10.43733 26.22714-31.445801 47.1018-36.664467 31.4458-10.437328 62.8916-21.00847 99.55607-15.655994 26.22713 5.218666 52.45427 15.655994 73.32893 26.227136 15.65599 15.789805 36.66446 21.008475 47.10181 41.883135 10.43732 15.7898 26.22713 31.4458 31.44578 52.45427 21.00847 62.8916 15.78981 131.00187-26.22712 183.45615-15.78981 21.00846-31.44582 41.88313-57.67295 52.45428-21.00847 5.21866-36.66446 21.00847-57.67294 21.00847-36.66446 0-78.68141 5.21866-115.34587-10.43735-110.12721-41.8831-157.22901-183.45614-99.55607-288.23087 15.7898-31.4458 41.88313-57.672937 73.32893-78.681407 41.88313-21.008474 83.90008-31.445802 131.00187-26.22714 57.67294 5.218666 104.77473 36.664468 146.79166 78.681417 21.00851 21.00847 26.22717 47.10179 36.66448 73.32893 10.43732 15.78981 5.21866 36.66446 10.43732 57.67293 10.43735 162.44767-183.45613 283.01222-330.24781 199.11215-26.22713-15.65601-47.23561-26.22713-62.8916-47.23563-57.67294-68.11025-73.32893-157.22899-47.23561-241.12907 15.78981-31.4458 36.66447-57.67293 57.67294-83.900069 36.66447-36.664468 89.11874-52.454275 136.22054-68.11027" opacity=".9"/></g></g><path d="m134.83849 257.13672 20.79297.83398-3.7168 19.91407c.0251.0406.0444.10457.25195.41406l2.72852 4.06836c.51993.12458 1.08656.19598 1.5918.33398 2.07404.56645 4.07222 1.29322 6.00781 2.12891l2.54687-1.24219c3.39511-1.65583 4.04303-3.56782 3.09766-1.23047l7.58594-18.75781 17.74805 9.71875c13.21598 7.23826 22.66039 14.8589 28.85156 24.19336h.002v.002c7.91924 11.94257 8.73808 26.39505 6.71289 38.1211-3.96364 22.95215-14.33639 42.24754-12.7168 66.36328l1.38868 20.66601-20.65821-1.50781c-15.91826-1.16217-30.10649-6.91064-41.18359-15.71484-8.20637 6.32141-17.61488 11.17536-28.34375 13.54492l-9.71875 2.14648-6.98633-7.08984c-6.80718-6.90957-11.68967-14.92807-15.23828-23.44531-12.86905 1.20901-26.526106-.92918-39.580076-7.24414l-18.64648-9.01954 11.5332-17.20507c13.45035-20.0667 14.12132-41.98051 22.16406-63.83789v-.002c4.113346-11.17585 12.070256-23.26302 24.878906-29.63281l1.04492-.51953 1.10547-.38086c13.22287-4.55659 25.06869-6.08728 36.75586-5.61914z"/><path d="m275.7799-.77929688 16.875 12.01171888c11.88612 8.459982 20.54952 19.4341 25.66601 31.382812 1.49766-.194668 3.00263-.352559 4.51953-.455078 7.50688-.507346 15.23898.154624 23.08399 2.378906l9.57422 2.714844 2.79296 9.552735c3.14437 10.760966 3.26313 21.262414 1.42383 31.234375 13.17543 5.453448 25.16577 15.173354 33.91211 28.683594l11.25586 17.38672-18.78711 8.72265c-10.51943 4.88309-17.07324 11.11381-24.69336 19.05274-7.62011 7.93893-16.17597 17.94749-29.74804 25.60547-7.33995 4.14151-17.93024 11.21438-33.13672 10.9082-13.97175-.28132-24.89212-6.48342-36.23438-13.72266l-17.05664-10.88671 12.79883-15.67188c-1.59478 1.95291-.22933.46435-.41016-3.30859l-.13476-2.82227c-1.64919-1.27247-3.24136-2.68472-4.75586-4.25195v-.002h-.002c-.35508-.36741-.7995-.82928-1.20704-1.2461l-4.73046-.42187c-.37472-.0334-.44275-.0186-.48829-.0215l-15.93164 13.04883-10.61328-18.29297c-5.4762-9.43938-13.18042-21.55011-12.85742-38.07422.29871-15.278933 7.88778-25.562522 12.32818-32.687438 8.2444-13.228721 18.62487-21.341622 26.89453-28.607421 8.26964-7.265801 14.78323-13.538922 20.12109-23.826172z"/><path d="m209.00255 222.62305c2.09446.0456 4.20754.18659 6.33594.43164 24.0378 2.76754 46.12437 14.24223 63.17969 29.79883 11.92331 10.87556 17.06907 24.27003 21.22265 34.68945 5.45214 13.67686 7.16211 30.76562 7.16211 30.76562l-28.68164 4.23438c-.1327 3.533-.29197 7.08114-.55469 10.32031-.71336 8.79557-1.81054 15.9043-1.81054 15.9043l-35.58203-5.47266s.91123-5.93797 1.51172-13.3418c.60048-7.40382.37651-16.7793-.0586-18.75781-2.686-12.21369-7.40451-23.08771-12.67773-27.44531-4.96544-4.10326-14.89019-6.88281-22.54688-6.09961-5.02152.51365-9.79708 2.20617-14.00976 4.77148.15575 2.31076.0482 4.64389-.56641 6.9375v.002.002c-2.22966 8.31525-9.74945 14.35843-16.32812 16.71094-.001.00049-.003.001-.004.002-7.33181 2.62214-14.74382 2.68946-22.66406.56836h-.002-.004c-7.90645-2.11949-14.28505-5.84073-19.36524-11.82422h-.002c-4.55987-5.37175-7.99293-14.37117-5.76953-22.66015 1.84544-6.88308 7.29575-12.05734 12.84375-15.02149 7.45709-11.16754 17.92123-18.86596 28.23242-24.29687 11.72744-6.17684 25.47747-10.53824 40.13867-10.21875z"/><path d="m258.06556 346.03192s4.01386-26.09582 1.24157-38.70182c-3.00026-13.64266-8.02425-28.55809-18.7921-37.45626-9.57114-7.90926-23.49288-11.39401-35.84468-10.13055-12.49552 1.27815-24.85443 6.98015-33.43589 17.37774.43615.40448.84361.81852 1.19492 1.23196 2.10067 2.47348 2.57326 4.62015 2.11023 6.348-.46363 1.72905-1.94772 3.33383-5.00432 4.42539-3.05601 1.09335-7.41149 1.34667-11.94919.13144-4.53771-1.21643-8.20611-3.61344-10.30618-6.08692-2.10066-2.47468-2.57325-4.62075-2.10903-6.3486.46184-1.72786 1.94652-3.33263 5.00253-4.42479.81493-.29156 1.73084-.51142 2.70768-.67274 4.90126-9.89333 14.49671-17.75618 24.37112-22.95704 10.87365-5.72715 23.81881-9.2366 36.02785-7.83094 19.46791 2.2414 38.62906 12.00928 53.10742 25.21537 8.03229 7.32646 12.60648 17.95676 16.63229 28.05566 3.38359 8.48784 6.07663 26.7302 6.07663 26.7302" fill="#775fa0" stroke-width="36"/><path d="m240.27404 343.29492s.91123-5.93797 1.51172-13.3418c.60048-7.40382.37651-16.7793-.0586-18.75781-2.686-12.21369-7.40451-23.08771-12.67773-27.44531-4.96544-4.10326-14.89019-6.88281-22.54688-6.09961-5.02152.51365-9.79708 2.20617-14.00976 4.77148.15575 2.31076.0482 4.64389-.56641 6.9375v.002.002c-2.22966 8.31525-9.74945 14.35843-16.32812 16.71094-.001.00049-.003.001-.004.002-7.33181 2.62214-14.74382 2.68946-22.66406.56836h-.002-.004c-7.90645-2.11949-14.28505-5.84073-19.36524-11.82422h-.002c-4.55987-5.37175-7.99293-14.37117-5.76953-22.66015 1.84544-6.88308 7.29575-12.05734 12.84375-15.02149 7.45709-11.16754 17.92123-18.86596 28.23242-24.29687 11.72744-6.17684 25.47747-10.53824 40.13867-10.21875l.00028-.00014c2.09446.0456 4.20754.18659 6.33594.43164 24.0378 2.76754 46.12437 14.24223 63.17969 29.79883 11.92331 10.87556 17.06907 24.27003 21.22265 34.68945 5.45214 13.67686 7.16211 30.76562 7.16211 30.76562z"/><g stroke-width="36"><path d="m258.06556 346.03192s4.01386-26.09582 1.24157-38.70182c-3.00026-13.64266-8.02425-28.55809-18.7921-37.45626-9.57114-7.90926-23.49288-11.39401-35.84468-10.13055-12.49552 1.27815-24.85443 6.98015-33.43589 17.37774.43615.40448.84361.81852 1.19492 1.23196 2.10067 2.47348 2.57326 4.62015 2.11023 6.348-.46363 1.72905-1.94772 3.33383-5.00432 4.42539-3.05601 1.09335-7.41149 1.34667-11.94919.13144-4.53771-1.21643-8.20611-3.61344-10.30618-6.08692-2.10066-2.47468-2.57325-4.62075-2.10903-6.3486.46184-1.72786 1.94652-3.33263 5.00253-4.42479.81493-.29156 1.73084-.51142 2.70768-.67274 4.90126-9.89333 14.49671-17.75618 24.37112-22.95704 10.87365-5.72715 23.81881-9.2366 36.02785-7.83094 19.46791 2.2414 38.62906 12.00928 53.10742 25.21537 8.03229 7.32646 12.60648 17.95676 16.63229 28.05566 3.38359 8.48784 6.07663 26.7302 6.07663 26.7302" fill="#775fa0"/><path d="m265.66851 135.22767c7.89565 8.17158 16.90781 9.51695 25.97915 8.57913 10.88564-1.12537 21.54758-7.92994 28.40962-16.45495 14.37308-17.85633 27.40171-43.438308 20.95642-65.496067-21.78046-6.175388-47.55265 6.083767-65.71723 20.029569-8.58464 6.590826-14.65928 17.030688-17.16737 27.558958-1.33342 5.59737-.42939 11.78693 1.54085 17.1931 1.19585 3.28134 4.0605 6.58476 5.99856 8.59026z" fill="#8033cc"/><path d="m298.88013 180.40498c8.47299.1706 16.54865-4.42412 23.9295-8.58872 20.84616-11.76234 28.87322-32.8534 55.70707-45.30959-7.83015-12.09502-18.21347-19.63885-29.63749-23.28793-4.69593 12.05608-11.6301 23.28681-20.91783 32.02067-9.6037 9.03099-21.55559 16.4842-34.3758 19.55542-5.83801 1.39856-12.09942.83711-17.98973-.84535.28521 5.95079-.52059 11.74928-3.62797 15.55445 11.15257 7.11816 17.23546 10.70621 26.91225 10.90105z" fill="#8033cc"/><path d="m235.32272 131.76841c3.68737-3.01996 8.42552-4.04453 13.06409-3.63054-2.35981-6.85211-2.88898-14.20909-1.17493-21.01108 3.18859-12.653572 11.16699-24.20938 20.44731-33.383017 9.74378-9.631786 22.09134-16.721126 35.29607-21.061836-3.58308-10.086417-10.31746-19.368487-20.73821-26.785485-13.6208 26.250293-35.05734 33.347776-47.71764 53.662106-4.47927 7.187294-9.4422 15.052602-9.60771 23.519822-.19887 10.17387 5.00887 19.34382 10.43102 28.69003z" fill="#8033cc"/><path d="m134.11789 275.12252c-.87468 4.68528.50545 9.33232 3.09902 13.20027-7.14262 1.22599-13.6161 4.4451-18.98726 9.07362-9.4996 8.18758-15.94021 20.39726-19.43714 33.9811-3.3398 12.97801-4.03763 27.41024-1.49365 41.07533-10.56667 1.70874-21.94349.26766-33.457726-5.30245 16.465976-24.56574 17.815046-50.55223 24.103906-67.64316 3.37325-9.16503 7.57996-15.54589 16.00175-19.73408 11.55218-3.98087 20.18002-5.05083 30.1711-4.65063zm73.2073 32.33809c5.1979 7.83867 5.63882 15.48734 3.97669 25.11122-3.09962 17.94888-14.92095 41.11417-12.93858 70.63165-14.37009-1.04914-25.97754-6.52545-34.67057-14.78712 8.31245-9.91484 14.48959-21.76365 18.01639-33.73853 3.99521-13.5683 4.68229-27.51719.61538-39.54405-1.94174-5.74039-5.08438-11.01117-9.39206-15.36665 5.35473-2.61156 10.05127-6.10642 11.89333-10.66077 11.60415 6.35547 18.6231 12.5099 22.49942 18.35425zm-55.58165-7.39475c10.96159 2.99327 16.93379 9.54142 20.01489 18.65268 3.0805 9.11125 2.73039 20.94991-.76594 32.82203-6.72739 22.84685-24.90928 44.91401-47.34866 49.86993-15.88824-16.12722-19.92885-44.3733-14.04029-67.25182 3.06496-11.90139 8.73485-22.12392 15.90795-28.30464 5.04375-4.34711 10.63298-6.90902 17.92318-7.01059 3.07513.086 5.61851.48753 8.30887 1.22241z" fill="#7b6c93"/></g><path d="m246.74279 121.28516c1.96279-.0172 3.85387.16569 5.58007.51953h.002c7.68922 1.57691 14.01931 5.38382 19.67969 11.29687h.002l.002.002c5.66704 5.92292 9.17096 12.4538 10.39844 20.14062.0001.0006-.0001.001 0 .002 1.10343 6.89997-.57973 16.40346-6.80078 22.35938l-.14258.13867-.14648.13281c-1.90351 1.74333-3.79611 2.85324-5.6543 3.73438.85566 7.1851 5.30147 16.43194 11.06055 27.125 2.6095 4.84514 10.98965 11.74593 18.05468 25.10156 5.70723 10.78888 12.09828 23.6085 13.89453 39.10938.8557 7.38423.76245 14.47127.20704 21.5664 3.45834-.59513 6.90756-1.02161 10.32226-1.22851 12.31193-.74603 24.64244 1.71735 35.74414 7.23828 12.65861 6.2952 22.28484 15.901 29.64844 25.90625 7.8951 10.72744 13.49432 23.13412 16.24219 36.23437 3.07852 14.67663 1.65377 28.51761-.0762 40.55274-1.39173 9.68231-3.70248 20.29218-8.88867 30.66992-4.47592 8.95647-10.60467 17.19083-18.27343 24.02734-6.50488 5.79892-15.03234 12.69532-27.24805 15.57422-12.17342 2.86897-25.36096 2.42311-37.76758-2.88086-9.01556-3.85426-21.41778-10.07911-26.24219-25.88672-2.01669-6.60786-4.66759-15.55457-3.51562-26.53711 1.15196-10.98254 8.87646-24.46612 21.8164-30.60742l25.71875-12.20508v28.4668 4.85352l-2.42382 4.16601c.18022.6217 1.22901 2.672 2.98828 4.74414.88479 1.04216 4.58284 2.11875 5.61914 2.76563.23144-.25457.37521-.3638.80078-.98633 1.37941-2.01783 3.08419-5.65807 4.52344-9.44727 1.97496-5.19965 1.73462-14.44535.85742-25.91992-.53427-6.98871-1.88211-13.70764-4.11524-19.47851-3.8176-9.86551-6.79828-14.38231-5.45507-13.60157-1.02804-.59754-8.4334-1.03005-16.03137 1.33584-6.1859 1.92619-13.7026 7.74653-20.81629 15.26768-6.1375 6.48905-11.22938 14.75281-14.54688 23.39258-4.69923 12.23829-7.38024 25.19512-6.69335 36.72461.94578 15.87505 5.89717 32.34185 13.91992 45.91211 1.16777 1.97525 8.6811 8.6655 14.91601 14.57226l32.79297 31.06641h-108.86145l-5.10742-9.42578c-7.51339-13.86701-11.17737-28.62629-12.9043-42.75977-1.92682-15.7695-.27033-30.83621 1.9629-44.58789 2.50064-15.39849 7.15565-29.76077 12.12304-43.2168 5.75315-15.58454 13.53763-27.19543 17.24805-37.35742 8.42823-23.08299 18.16019-42.08562 16.71875-56.65234-.52639-5.31956-8.80649-14.79676-16.98633-31.19336-5.93699-11.90079-14.5996-24.96787-20.44922-41.51953-3.29118-9.31246-9.88836-22.45744-7.94336-39.61524 1.19047-10.50173 5.57296-18.58793 10.15039-25.52734.10618-6.10047 2.10138-12.98377 7.02735-17.70313l.004-.004c4.64847-4.45223 11.17777-6.3058 17.06446-6.35742z"/><path d="m264.87585 215.27095c4.86634 9.03549 13.19312 15.91211 17.9919 24.98366 5.4345 10.27331 10.58581 21.21939 11.92364 32.7643 1.85161 15.97852-.20478 29.27718-5.69498 47.91911 11.89064-7.95816 22.85542-10.93868 35.19394-11.6863 9.04369-.54799 18.52889 1.35393 26.64136 5.3883 9.22434 4.58732 17.05915 12.16112 23.16564 20.45828 6.33629 8.60941 10.92733 18.79974 13.12182 29.2618 2.34695 11.18891 1.35126 22.98002-.27533 34.29612-1.24188 8.63976-3.27164 17.37604-7.17355 25.1839-3.48686 6.97732-8.32766 13.44676-14.15003 18.63726-5.60999 5.00116-12.08383 9.76654-19.39899 11.49052-8.6402 2.03628-18.39973 1.57751-26.56204-1.91197-6.65993-2.8472-13.98847-7.66193-16.10273-14.5895-3.57098-11.70062-6.9094-28.17163 8.80319-35.62882v.0006.0006c-5.59312 9.62118-.73834 18.83819 4.84251 25.41159 5.58157 6.57426 15.99488 11.25325 24.29237 8.90243 8.9128-2.52515 13.91086-13.16856 17.20016-21.82852 3.99362-10.51431 2.8345-22.46915 1.97718-33.68364-.63929-8.36248-2.24851-16.77972-5.27523-24.60141-3.15527-8.1539-5.63763-18.27412-13.19657-22.66776-8.76926-5.09713-20.74329-3.3031-30.42765-.28754-11.10769 3.45876-20.54869 11.63276-28.54285 20.08481-7.91102 8.36416-14.14667 18.5605-18.27355 29.30817-5.36976 13.98455-8.74717 29.2946-7.85629 44.24814 1.11875 18.77832 6.81987 37.80802 16.39339 54.00137 4.37964 7.40803 13.82999 14.49944 18.03013 18.47852h-52.96896c-6.11544-11.2869-9.3304-23.81023-10.86496-36.36934-1.59947-13.09038-.24993-26.50208 1.86402-39.51928 2.21331-13.62912 6.4605-26.915 11.24228-39.86823 4.75713-12.88646 12.55856-24.51293 17.26989-37.4162 7.6583-20.97432 19.92061-42.37919 17.72183-64.59937-1.37553-13.90078-12.55638-24.95667-18.7921-37.45626-6.55799-13.14558-14.68938-25.6302-19.58455-39.48123-3.59461-10.17101-8.24439-20.87107-7.0293-31.58994.95874-8.45752 5.35272-14.97866 10.98499-23.05145-.3283-.93406-.57597-1.84284-.71222-2.69758-.51197-3.20466.18112-5.27811 1.47399-6.51393 1.29173-1.2379 3.40064-1.85555 6.58057-1.20373 3.17859.65187 7.04431 2.71561 10.29294 6.10926 3.24758 3.39422 5.11992 7.33487 5.63086 10.54011.51278 3.20489-.18059 5.27783-1.47366 6.51579-1.89867 1.7389-5.62269 1.58914-8.23539.74713-2.34128 5.87641-3.84205 11.23426-3.35522 16.98466 1.0512 12.41701 7.39857 23.96419 13.30755 34.93557z" fill="#775fa0" stroke-width="36"/><path d="m289.09641 320.93802c7.29676-9.58615 12.56842-25.72629 14.67169-26.40007 6.51218-1.8427 13.02554-3.25279 19.43365-3.25279h.00002c12.31193-.74603 24.64244 1.71735 35.74414 7.23828 12.65861 6.2952 22.28484 15.901 29.64844 25.90625 7.8951 10.72744 13.49432 23.13412 16.24219 36.23437 3.07852 14.67663 1.65377 28.51761-.0762 40.55274-1.39173 9.68231-3.70248 20.29218-8.88867 30.66992-4.47592 8.95647-10.60467 17.19083-18.27343 24.02734-6.50488 5.79894-15.03235 12.69532-27.24805 15.57422-12.17342 2.86897-25.36096 2.42311-37.76758-2.88086-9.01556-3.85426-21.41778-10.07911-26.24219-25.88672-2.01669-6.60786-4.66759-15.55457-3.51562-26.53711 1.15196-10.98254 8.87646-24.46612 21.8164-30.60742l25.71875-12.20508v28.4668 4.85352l-2.42382 4.16601c.18022.6217 1.22901 2.672 2.98828 4.74414.88479 1.04216 4.58284 2.11875 5.61914 2.76563.23144-.25457.37521-.3638.80078-.98633 1.37941-2.01783 3.08419-5.65807 4.52344-9.44727 1.97496-5.19965 1.73461-14.44533.85742-25.91992-.53428-6.98872-1.88211-13.70764-4.11524-19.47851-3.8176-9.86551-6.79828-14.38231-5.45507-13.60157-1.02804-.59754-8.43328-1.02995-16.03125 1.33594z"/><path d="m289.09641 320.93802c11.89064-7.95816 22.85542-10.93868 35.19394-11.6863 9.04369-.54799 18.52889 1.35393 26.64136 5.3883 9.22434 4.58732 17.05915 12.16112 23.16564 20.45828 6.33629 8.60941 10.92733 18.79974 13.12182 29.2618 2.34695 11.18891 1.35126 22.98002-.27533 34.29612-1.24188 8.63976-3.27164 17.37604-7.17355 25.1839-3.48686 6.97732-8.32766 13.44676-14.15003 18.63726-5.60998 5.00116-12.08383 9.76654-19.39898 11.49052-8.64021 2.03628-18.39974 1.57751-26.56205-1.91197-6.65993-2.8472-13.98847-7.66193-16.10273-14.5895-3.57098-11.70062-6.9094-28.17163 8.80319-35.62882v.0006.0006c-5.59312 9.62118-.73834 18.83819 4.84251 25.41159 5.58157 6.57426 15.99488 11.25325 24.29237 8.90243 8.9128-2.52515 13.91086-13.16856 17.20016-21.82852 3.99362-10.51431 2.8345-22.46915 1.97719-33.68364-.6393-8.36248-2.24852-16.77972-5.27524-24.60141-3.15527-8.1539-5.63763-18.27412-13.19657-22.66776-8.76926-5.09713-20.74329-3.3031-30.42765-.28754-11.10769 3.45876-20.54869 11.63276-28.54285 20.08481-7.91102 8.36416-14.14667 18.5605-18.27355 29.30817" fill="#775fa0" stroke-width="36"/><path d="m289.09641 320.93802c11.89064-7.95816 22.85542-10.93868 35.19394-11.6863 9.04369-.54799 18.52889 1.35393 26.64136 5.3883 9.22434 4.58732 17.05915 12.16112 23.16564 20.45828 6.33629 8.60941 10.92733 18.79974 13.12182 29.2618 2.34695 11.18891 1.35126 22.98002-.27533 34.29612-1.24188 8.63976-3.27164 17.37604-7.17355 25.1839-3.48686 6.97732-8.32766 13.44676-14.15003 18.63726-5.60998 5.00116-12.08383 9.76654-19.39898 11.49052-8.64021 2.03628-18.39974 1.57751-26.56205-1.91197-6.65993-2.8472-13.98847-7.66193-16.10273-14.5895-3.57098-11.70062-6.9094-28.17163 8.80319-35.62882v.0006.0006c-5.59312 9.62118-.73834 18.83819 4.84251 25.41159 5.58157 6.57426 15.99488 11.25325 24.29237 8.90243 8.9128-2.52515 13.91086-13.16856 17.20016-21.82852 3.99362-10.51431 2.8345-22.46915 1.97719-33.68364-.6393-8.36248-2.24852-16.77972-5.27524-24.60141-3.15527-8.1539-5.63763-18.27412-13.19657-22.66776-8.76926-5.09713-20.74329-3.3031-30.42765-.28754-11.10769 3.45876-20.54869 11.63276-28.54285 20.08481-7.91102 8.36416-14.14667 18.5605-18.27355 29.30817" fill="url(#a)" stroke-width="36"/><path d="m380.93349 275.12252c.87468 4.68528-.50545 9.33232-3.09902 13.20027 7.14262 1.22599 13.6161 4.4451 18.98726 9.07362 9.4996 8.18758 15.94021 20.39726 19.43714 33.9811 3.3398 12.97801 4.03763 27.41024 1.49365 41.07533 10.56667 1.70874 21.94349.26766 33.45773-5.30245-16.46598-24.56574-17.81505-50.55223-24.10391-67.64316-3.37325-9.16503-7.57996-15.54589-16.00175-19.73408-11.55218-3.98087-20.18002-5.05083-30.1711-4.65063zm-73.2073 32.33809c-5.1979 7.83867-5.63882 15.48734-3.97669 25.11122 3.09962 17.94888 14.92095 41.11417 12.93858 70.63165 14.37009-1.04914 25.97754-6.52545 34.67057-14.78712-8.31245-9.91484-14.48959-21.76365-18.01639-33.73853-3.99521-13.5683-4.68229-27.51719-.61538-39.54405 1.94174-5.74039 5.08438-11.01117 9.39206-15.36665-5.35473-2.61156-10.05127-6.10642-11.89333-10.66077-11.60415 6.35547-18.6231 12.5099-22.49942 18.35425zm55.58165-7.39475c-10.96159 2.99327-16.93379 9.54142-20.01489 18.65268-3.0805 9.11125-2.73039 20.94991.76594 32.82203 6.72739 22.84685 24.90928 44.91401 47.34866 49.86993 15.88824-16.12722 19.92885-44.3733 14.04029-67.25182-3.06496-11.90139-8.73485-22.12392-15.90795-28.30464-5.04375-4.34711-10.63298-6.90902-17.92318-7.01059-3.07513.086-5.61851.48753-8.30887 1.22241z" fill="url(#b)" filter="url(#c)" stroke-width="36" transform="matrix(-1 0 0 1 515.05138 0)"/></svg>