<svg height="500" viewBox="0 0 500.00009 500" width="500.00009" xmlns="http://www.w3.org/2000/svg" xmlns:xlink="http://www.w3.org/1999/xlink"><radialGradient id="a" cx="1249.9998" cy="1250.0005" gradientTransform="matrix(0 -1 1 0 -.0005 2499.9997)" gradientUnits="userSpaceOnUse" r="250"><stop offset="0" stop-color="#393"/><stop offset=".7379747" stop-color="#393" stop-opacity=".9"/><stop offset="1" stop-color="#393" stop-opacity=".1"/></radialGradient><filter id="b" color-interpolation-filters="sRGB" height="1.024" width="1.024" x="-.012" y="-.012"><feGaussianBlur stdDeviation="2.4748584"/></filter><filter id="c" color-interpolation-filters="sRGB" height="1.006" width="1.006" x="-.003" y="-.003"><feGaussianBlur stdDeviation=".60622925"/></filter><g transform="translate(-1000 -1000)"><circle cx="1250" cy="1250" fill="#2ad52a" r="250"/><path d="m1258.9184 1271.0417c17.1144 30.6662 44.2259 53.4982 76.3129 67.0503 47.0888 19.252 101.3032 18.539 148.3503-.7179 3.5837-7.846 5.7089-15.6928 7.8759-23.5354-44.255 22.8273-95.5943 29.9536-144.8083 16.402-20.669-5.7007-39.2545-15.6936-56.3481-29.2453-11.4138-9.2678-21.4025-19.2524-29.245-31.383.7122 0 1.4251-.7126 1.4251-.7126 21.3984 24.9615 47.7889 42.0844 79.1674 50.6396 47.0888 12.1307 94.8859 6.4216 137.6825-16.402 1.4168-.7125 2.8336-.7125 4.2505-1.4293 4.2922-2.8504 7.8759-4.9882 12.1264-7.1343 1.4168-8.551 2.1668-16.4062 3.5837-24.9614-2.8753 1.4294-5.0006 3.5671-7.8342 5.7091-2.8753 1.4251-5.0006 2.8461-7.8759 4.9881-54.1729 34.9543-120.5139 44.2305-178.3122 16.4103-2.1251-1.4293-4.2921-2.8586-6.4173-3.5712-.7087-.7126-2.1252-1.421-2.8336-2.1336-1.4585-.7209-2.167-.7209-3.5797-1.4294-10.697-7.1342-19.2605-12.8391-27.8198-22.111 0 0 .717-1.4335 1.4252-1.4335 2.1461.7125 3.5712 3.5712 4.9964 5.0006 38.5211 29.9537 85.6097 37.8046 132.6569 27.8159 10.0011-2.1378 18.5438-4.2839 27.8364-7.8426 16.4187-7.1342 31.3787-13.5559 46.3387-24.2614 5.0005-4.2713 10.0012-7.1258 15.0017-10.6888 2.1253-2.1461 4.2505-4.2797 7.1258-6.4258-.7087-8.5594-.7087-16.3978-1.4168-24.9614-2.1669 2.1378-4.2922 4.9923-6.4174 7.1301-5.0006 4.2838-9.2928 7.8509-13.5849 12.1265-5.6674 4.9922-12.0847 8.5593-17.7937 13.5516-5.0005 3.5671-10.0012 5.7091-15.0017 8.5552-55.6313 33.5292-123.3892 37.0963-178.308-1.421 0 0 .7123-.7167.7123-1.4251 77.0421 44.9388 176.8869 9.2719 227.5177-58.4906-2.1252-7.8468-4.2504-16.4103-5.709-24.2488-28.5033 44.9347-72.0083 79.8848-126.9312 91.2946-32.1286 5.709-64.2156 3.5713-93.4523-10.6972 0-.7126.7122-1.4251.7122-1.4251 30.6494 10.7013 62.7781 11.4139 94.1567 2.8545 17.8355-4.9965 33.5039-12.8433 49.9224-22.8237 8.5844-5.7048 15.0017-11.4139 22.836-17.8313 12.1264-11.4098 22.0858-22.1153 32.087-36.3795 5.0005-7.8468 10.0011-14.981 14.2516-23.5446-3.5421-7.8385-5.709-15.6853-9.9594-22.8153-4.2922 11.4056-10.0012 22.1069-16.4186 32.8082-7.1259 11.4139-14.2517 21.3985-23.5444 31.3789-14.2516 14.9851-29.2533 27.8201-47.7971 37.8046-35.6291 19.2607-76.3004 26.395-114.8215 16.4062 0-.7084.717-2.1377.717-2.1377 33.5121 6.4174 66.3492 0 96.2694-14.981 30.6701-15.6895 54.9646-39.2299 73.4667-69.1836 10.0012-16.4062 17.127-32.0956 22.8359-49.2186-5.0005-7.1342-8.5426-14.26-14.2516-20.6817-3.5838 17.8314-9.2927 34.2334-17.8354 50.6354-.7088 1.4377-.7088 2.8587-1.4168 4.2839-15.7101 29.2453-35.6708 52.7773-64.2158 72.0422-6.4172 4.2797-13.5431 7.1301-19.9605 11.4139-6.4175 3.563-13.5433 4.9965-20.6691 7.1301-17.127 5.7048-34.9706 9.2761-53.5144 6.4174v-1.421c22.8443-.7125 45.6385-6.4174 66.3493-16.4103 2.1251-1.421 4.2504-2.1336 6.4173-3.5671 14.9602-8.5594 27.0865-18.5398 39.2129-30.6705 3.5837-4.2797 7.1258-7.8426 10.7095-12.1265 1.4169-2.1378 2.8337-4.2797 5.0006-6.4174 20.669-30.6747 33.5039-62.0494 37.796-96.9995-5.709-6.4258-11.418-12.8432-17.8354-17.8314-.7087 42.0761-12.8348 81.3101-38.5044 116.9686-27.1281 36.3753-65.6326 59.9241-109.1458 64.908 0-.7125 0-2.1377 0-2.1377 24.2611-4.9923 45.6385-14.2601 64.9324-29.9537 19.9607-16.4104 34.9207-34.9543 46.3387-57.0612 16.4185-33.525 23.5443-69.9087 21.4191-106.284-6.4591-4.9964-12.8765-9.9804-20.0024-14.2601 2.167 17.8314 2.8754 35.6628 1.4169 54.2109-1.4169 9.9804-2.8336 19.2565-4.9589 29.2369-3.5838 14.981-8.5843 28.5285-15.7101 42.0927-19.9606 37.7922-53.5062 68.471-94.1441 79.8849 0-.7126 0-1.4335 0-1.4335 30.6785-12.8391 55.6396-33.5167 74.1835-62.7661 2.8335-4.2756 5.0005-9.272 7.1258-13.5517 7.8342-13.5516 12.1264-27.0992 14.9601-42.0843 0-1.421 1.4584-2.142 1.4584-3.5672 5.7091-31.3872 5.7091-62.0534-2.1668-92.0113-7.1258-4.2797-14.2517-7.8468-22.086-10.6971 12.1265 34.2417 14.9602 70.6128 8.5427 107.7049-3.5421 15.6936-7.8342 30.6704-14.96 44.9347-4.2923 7.8468-8.5844 14.9769-13.585 22.8237-14.96 20.6817-32.7912 35.6627-54.1895 47.0724-.7122 0-1.4251-2.1336-1.4251-2.1336 12.8347-7.1342 23.5276-16.4103 33.5288-27.1033 16.3768-17.8355 27.0864-39.234 34.2539-62.0618 13.5432-46.3599 7.8342-94.8617-10.7096-138.3713-7.8759-2.1377-15.7101-4.9922-24.2527-6.4174 14.2516 27.1075 24.9611 57.0612 27.0864 88.4484 2.1253 31.3789-2.8337 62.7619-17.127 91.2946-1.4168 2.1419-2.8336 4.2797-3.5421 6.4216-.7087.7168-1.4585 2.1378-2.1668 2.8504-.7088 1.4293-.7088 2.1377-1.4169 3.5671-10.7095 14.981-20.6774 29.2411-36.3708 39.2256 0 0-.7087-.7084-1.421-1.421 12.839-9.2761 21.3941-22.1194 29.2492-35.6669 36.3791-60.6241 27.0865-131.9579-8.5676-190.4401-2.1336-2.8545-3.5672-4.9965-4.9923-7.851-8.5593-.7125-16.406-1.421-24.9653-2.1336 6.4174 8.5552 12.1263 17.1146 18.5437 26.3866 6.4216 10.7013 10.7012 20.6859 15.6935 31.3872 4.9964 12.1223 7.83 23.5362 10.7054 36.3795 9.251 50.6396-2.167 103.4169-37.1001 140.509 0-.7084-.7087-1.421-.7087-1.421 19.2563-25.6824 29.2242-53.4983 31.391-84.1687 3.5421-54.9193-20.694-109.1302-58.4983-148.36-8.5594 0-16.402.7084-24.9612 2.1336 29.9534 25.6823 52.7769 57.7738 64.9032 95.5826.717 2.8545.717 4.9923 2.1461 7.8426.7123 1.4336.7123 2.8546.7123 4.2839.7123 1.4252 1.4209 2.1419 1.4209 3.5671 8.5594 41.3676 4.9964 81.31-19.2563 117.6854 0 0-.7123-.7127-1.4252-.7127 7.8468-14.9768 12.839-30.6704 15.6935-47.785 2.1377-14.9852 2.1377-29.9537 0-44.9389-7.8467-54.2025-40.6588-101.2833-84.168-131.9538-7.8468 2.1378-15.6935 4.2797-23.5361 7.1301 52.0685 29.2411 92.0106 80.6057 99.8574 141.2299 2.8503 25.6781.7123 51.3605-9.9846 74.8925-.7122 0-1.4293-.7125-1.4293-.7125 0-2.1419 1.4293-4.2797 2.142-6.4216 7.1341-27.8159 6.4174-56.3445-2.142-83.4478-6.4132-19.2566-14.2682-36.3837-26.3946-52.7857-2.1378-2.1336-3.5588-4.2797-4.9881-6.4174-21.3983-25.6824-46.3595-44.9347-75.6046-59.199-7.8467 2.8503-14.9808 6.4174-22.1066 10.693 7.1258 2.8545 14.2599 4.9923 20.6774 9.272 1.4292.7167 2.8544.7167 4.2796 1.4251 29.9534 14.981 54.2104 34.9502 74.1835 62.7703 26.3863 37.092 37.0876 79.1764 27.8156 123.3985 0 0-1.4293 0-2.1377 0 2.8462-13.5558 1.4211-26.3907 0-39.9507-2.1377-17.8272-7.8508-33.5167-16.4102-49.2061-9.2677-18.544-22.1067-34.9543-37.8043-49.9353-12.8347-11.4056-26.3864-20.6859-41.363-29.2411-1.4336-.7126-2.8545-.7126-4.2839-1.4294-13.5557-7.1259-27.8157-12.1181-42.084-17.1146-7.1299 4.9965-13.5515 9.272-19.9689 14.9727 27.8198 5.0006 53.4936 14.9852 78.4548 29.2536 1.4335.7084 1.4335 2.1378 2.8586 2.8462 48.5014 29.962 81.3093 82.7435 78.4632 139.088h-1.4335c-2.1378-42.797-23.536-81.3101-55.6272-109.8469-2.1419-1.421-4.2839-2.8504-6.4174-4.984-.717-.7167-2.1502-1.4335-3.5754-2.1419-.717-.7168-1.4252-2.1378-2.8462-2.8503-32.1036-22.8279-67.0493-34.9544-104.862-37.8089-7.1258 4.9923-12.1222 12.1265-17.827 17.8356 44.9343-.7126 87.735 10.6971 125.5352 38.5172 34.2373 24.9614 57.0649 60.6241 63.4822 101.2792-.7087 0-2.1418 0-2.1418 0-11.4097-48.4977-45.6469-84.1646-88.4435-105.5631-4.9923-2.1336-9.9844-4.2838-14.9726-5.7048-30.6785-12.1265-63.4906-15.6895-95.586-12.8391-4.2796 7.1342-9.9843 13.5475-13.5515 21.3985 27.8199-6.4175 55.6356-5.7049 84.1638-.7084 1.4336 0 2.1461 1.421 3.5755 1.421 37.0876 7.8468 69.1828 24.9614 93.4356 53.4982.7123.7126 2.1377 1.4252 2.8504 2.1378 11.4138 14.981 21.3982 29.2494 26.3864 47.0766 0 0-.7123.7126-1.4252.7126-22.1109-50.6438-71.3249-84.1646-126.2436-92.7281-14.2684-2.1378-28.5325-2.8504-42.7966-2.1378-16.4102.7125-32.8121 3.5671-49.2223 7.8468-2.842 7.8426-7.1217 14.9769-9.2636 22.8278 54.2062-20.6859 116.9676-22.111 169.036 8.5552 24.257 14.2685 42.8008 32.8166 56.3523 56.3487-.7123 0-2.1418.7125-2.1418.7125-23.532-34.9502-56.3399-54.9193-96.2861-64.1913-46.3636-9.9887-92.7315-2.1419-133.3778 17.8314-1.4293 7.8468-5.0006 15.6894-5.0006 24.2488 12.1264-8.5594 26.3947-14.2642 40.6588-19.9774 16.4061-6.4133 32.8038-9.2637 49.9266-11.4014 53.4979-5.7091 108.4166 13.5475 142.6539 54.9151-.7123 0-1.4252.7167-1.4252.7167-32.8121-32.0997-77.7464-47.7934-122.6766-45.6514-40.6672 2.1377-79.1799 17.8313-111.9836 41.3717-.7168 8.5594-.7168 16.4104-.7168 24.9615 9.9887-9.272 20.6857-17.1146 32.8121-24.2489 1.421-.7125 2.1377-2.1419 3.5629-2.8545 54.2104-31.383 121.2556-39.2298 176.8912-6.4174 4.2796 2.8503 7.8467 5.7048 12.1263 7.8426 2.8545 1.4293 4.9881 4.2797 7.8467 6.4258 0 0-.717.7084-.717 1.421-7.8425-5.7049-16.406-9.272-24.9653-14.2684-5.7007-2.1336-11.4096-4.2756-17.1145-6.4175-32.0953-9.9846-65.6241-8.551-98.4321.7127-26.3947 7.8468-49.2181 21.4026-71.3248 38.5172-1.4252.7127-1.4252 2.8587-2.8587 3.5671-6.4174 4.9965-11.4096 9.9887-17.1103 15.6936 0 4.9881.7084 9.9887 2.1336 14.9769v3.5712c.7126 2.1336.7126 3.563 1.4252 5.7091 7.8467-11.4139 17.8353-19.9775 27.8198-29.9621 5.7091-4.9922 11.418-8.5552 17.1145-13.5558 28.5325-20.6775 59.211-32.8124 93.4482-35.6586 30.666-2.1419 62.0488 3.5671 88.4393 19.2524-.717.7168-1.4293 1.4335-1.4293 1.4335-10.6971-5.7048-21.3942-8.5635-33.5205-10.7013-14.9725-3.5671-29.2451-3.5671-44.2218-2.8545-59.9152 4.9923-111.271 43.5095-143.3622 92.0114 2.8461 7.8509 4.988 15.6894 7.8425 23.5358 21.3984-40.6588 54.9188-74.8964 97.007-94.1487 12.8348-5.7091 25.6696-9.2762 39.9379-12.1265h4.2797c24.2569-4.9923 48.5055-1.421 71.329 6.4174 0 .7126-.7123 1.4294-.7123 1.4294-41.3713-9.9846-82.0344-3.563-118.4053 17.1187-25.6737 14.9769-45.651 34.2334-63.4822 59.199-1.4251 2.8545-2.8461 4.9964-4.9922 7.8468-6.4174 10.7005-12.1222 21.4035-17.1228 32.0998 2.1418 3.5663 3.5754 7.8426 5.7131 11.4089 2.8546 2.8554 4.2755 7.143 6.4174 10.698 4.2797-14.9773 10.6971-28.5289 17.8354-42.0752 3.563-6.4225 7.13-12.1315 11.4054-18.5489 19.2606-26.395 40.6631-47.0767 69.1914-60.6284 14.9767-7.1342 29.9576-12.839 46.3678-14.9726 15.6851-2.1461 30.6618-2.1461 46.3553 0v2.1336c-40.6546-3.5671-81.3177 10.6971-113.4088 37.8005-34.954 29.2494-56.3481 69.1914-66.3368 112.701 4.9964 6.417 9.2719 13.5483 15.6976 19.2569 7.8426-84.1646 75.6004-165.4746 163.3354-167.6207v2.1461c-53.4936 5.7049-99.1447 39.9425-124.8227 87.0195-.7123 1.416-.7123 2.8454-1.4293 4.2743-15.6893 27.8159-21.3982 57.7742-23.5402 88.4455 6.4257 4.9923 11.418 12.1252 19.2688 16.4066-2.146-19.975.7088-38.519 4.2714-58.4872 5.7132-29.2453 17.1186-54.2109 34.9624-77.7471 23.5318-29.9579 53.4894-50.6438 91.2896-57.778 0 0 .7123.7126.7123 1.4252-9.9846 2.8545-19.9732 7.1342-29.9619 12.1223-2.1335 1.4335-4.2755 2.1461-6.4215 3.5755-16.4019 9.9804-29.2367 22.1069-41.3631 37.0837-17.1186 22.1153-27.8157 44.9385-34.2372 72.0464-2.1336 11.4143-4.2796 22.8236-4.9923 34.2375-.7123 14.9761 0 30.6663 1.4252 45.644 3.5671 1.4289 7.1383 4.2826 10.7012 6.4216 3.5671 2.1403 7.8467 3.5663 11.4097 5.7003-11.4097-44.2192-8.5551-92.0034 10.7011-134.0886 16.4061-36.3787 46.3554-65.6239 83.4554-80.5966v2.1419c-79.8882 39.2257-104.8536 141.9342-76.3212 221.1106 7.1341 3.5634 14.9767 5.6957 22.8193 8.5557-14.9725-34.9506-22.1067-72.0385-17.1144-110.5558 6.4215-47.7892 31.3869-92.0071 72.0374-116.9769 0 .7125.7123 1.4294.7123 1.4294-26.3864 19.9691-44.2218 46.364-53.498 76.3227-17.1102 52.0685-8.5509 107.7004 17.127 154.7766 8.5551 2.1369 16.4061 3.5629 24.9612 4.9922-48.5055-68.4705-55.6397-174.0339 12.8349-233.9538 0 0 .717.7168 1.4334.7168-20.6857 22.8195-34.2372 49.927-39.2295 81.3059-2.8628 19.9733-2.146 39.2302.7171 59.2064 0 1.426 1.421 2.139 1.421 3.5634 3.5628 23.5366 12.8347 43.5095 24.2486 64.1908.717 1.4344 2.1376 2.147 2.8544 3.5763 4.2798 8.546 9.9887 15.689 15.6935 22.8203h24.9612c-23.5361-24.2496-42.0798-52.7815-52.0685-85.5901-.7088-2.8504-.7088-4.9973-2.1418-7.851-.7123-1.421-.7123-2.8516-.7123-4.2759-.7088-1.4294-1.4252-2.1424-1.4252-3.5717-9.9886-47.0729-2.8503-94.1487 27.1073-131.2366 0 0 .7123.7125 1.4252.7125-20.6816 29.9578-27.1073 67.0462-22.8234 102.7164 6.4173 49.9232 32.8079 94.8588 70.6122 126.954 7.8468-1.426 16.3893-2.847 24.2652-4.276-12.1263-9.2719-23.5526-18.5439-34.2456-29.9582-7.1382-7.846-12.8431-14.9806-19.2647-23.5367-9.2635-12.8432-14.9767-25.6769-21.3941-39.9462-2.1419-4.9922-2.8586-9.9849-4.9922-14.9755-11.4139-38.5223-9.276-79.8899 9.2677-115.5526 0 0 1.4293.7168 2.1419.7168-19.2605 44.2179-13.5515 94.8658 9.2678 137.659 18.5521 34.2376 46.3845 60.6325 78.4714 79.8845 7.8343-2.8504 15.6685-5.7053 22.836-9.2767-14.2933-5.7006-25.7113-13.5466-38.5461-22.8186-17.8354-13.5516-32.7996-27.1046-44.2092-45.6518-13.5516-15.6886-20.6858-35.662-27.1073-55.6319-4.2796-17.1196-5.7048-34.2375-4.9922-51.3563.7123-9.9888 2.8504-18.5481 4.9922-28.5327.7123-1.4252-.7123-2.8545 2.8503-2.8545-9.9803 45.6514 2.1503 92.7285 31.387 130.5327 2.1377 2.1373 3.5629 4.2759 4.9922 6.4166 24.2528 28.529 54.2145 48.5068 88.4268 61.3455 3.5838-2.1423 7.8759-3.5667 11.418-5.7036 2.1668-2.1423 5.0005-3.5717 7.8759-5.0006.7087-.7101 1.4168-1.4214 2.1253-2.1345-36.3792-9.2765-69.1747-27.8159-97.007-54.9234-3.5671-4.2797-7.13-7.8459-10.6971-12.1273-27.8157-33.5246-41.3714-75.6085-36.3708-117.6887.7041 0 2.1377.7127 2.1377.7127-1.4334 32.0956 7.8385 62.0539 26.3905 89.8732 4.9881 7.8509 9.9804 14.2726 16.402 21.3993 5.7173 5.7036 11.4262 10.6963 17.0936 16.4015 15.7101 12.8433 32.1287 22.8283 50.6724 30.6742 15.6684 6.4171 31.3787 10.698 47.7972 14.2647 6.4174-5.7057 12.8348-11.4093 18.5437-17.1196-24.2528-1.4293-47.0887-7.138-69.2162-16.4099-2.8337-1.4244-4.9589-2.1374-7.8342-3.5634-23.5443-11.4093-43.505-25.6736-60.6236-45.6468-3.5671-4.9957-7.8468-9.2721-11.4138-14.9757-2.8545-4.2847-4.9923-8.5689-7.8426-12.8436-2.1419-4.2801-4.2838-9.2724-6.4216-13.5521-6.4216-15.6894-10.7012-31.3872-11.4138-48.5018h1.4294c7.1299 42.7969 29.9576 78.4588 65.6159 104.1458 37.0875 26.3819 78.4672 37.0845 121.2638 37.0845 5.7089-6.4216 10.7095-12.8399 15.6684-19.9729-16.3768 2.8533-33.5038 1.4289-49.9223 0-15.6685-1.431-30.6702-5.7057-45.6303-10.703-5.0005-2.1373-10.0011-4.2747-15.0017-6.4086-43.5049-19.9813-77.7297-58.4986-89.8561-104.8584h2.1378c11.4138 34.2333 34.2372 62.0535 65.6325 81.3137 5.0005 2.8504 9.251 4.9928 13.5431 7.8477 40.6714 19.9683 86.3016 24.961 129.8065 16.4016 5.0007-7.1263 8.5843-14.9772 12.1265-22.1119-67.0494 19.262-147.6419 8.5606-195.4265-48.5051-.7123-.7127-2.142-1.421-2.8587-2.1378-8.5551-10.7013-15.6893-21.3943-20.6816-33.525 0 0 .7123-.7084 1.4294-.7084" fill="url(#a)" fill-rule="evenodd"/></g><g opacity=".5"><path d="m248.20703 6.7089844c-7.58653 17.3612716-15.17598 34.7212686-22.76367 52.0820316-31.07104 3.592615-61.19559 14.947981-86.94272 32.701004-6.60911 4.543598-12.93135 9.50216-18.93619 14.81853-5.47786-5.47787-10.95573-10.955732-16.43359-16.433597-6.19987 6.19987-12.39974 12.399737-18.59961 18.599607 5.527344 5.52735 11.054688 11.05469 16.58203 16.58203-21.282264 24.68969-36.221197 54.82668-42.806578 86.76177-1.052093 5.05458-1.904042 10.1514-2.539124 15.27534-17.750724 7.75765-35.500802 15.51677-53.251953 23.27344 17.667692 7.71985 35.334581 15.44153 53.001953 23.16211 3.520177 31.24252 14.888329 61.55289 32.724305 87.44048 4.118154 5.99794 8.580443 11.75826 13.340147 17.26069-5.682991 5.6842-11.365544 11.36883-17.048827 17.05274 6.199413 6.19967 12.398243 12.39993 18.597657 18.59961 5.6595-5.65951 11.31901-11.31901 16.97852-16.97852 24.23596 21.39921 53.90653 36.61625 85.46827 43.6657 6.96908 1.5699 14.02759 2.74108 21.12743 3.52766 7.77781 17.7963 15.55724 35.5919 23.33398 53.38867 7.84681-17.95638 15.69684-35.91136 23.54492-53.86719 30.74616-3.9986 60.45087-15.61961 85.79882-33.46532 5.21396-3.66535 10.25087-7.58243 15.08204-11.73975 5.15688 5.15627 10.31399 10.31231 15.47071 15.46875 6.19941-6.19968 12.39824-12.39994 18.59765-18.59961-5.10826-5.10854-10.21612-10.21748-15.32422-15.32618 21.62362-24.31458 37.0136-54.15224 44.12011-85.91569 1.40092-6.2104 2.49195-12.49151 3.26466-18.81087 18.96427-8.28823 37.92785-16.57805 56.89258-24.86523-19.0518-8.32469-38.10281-16.65117-57.1543-24.97657-4.13246-31.09339-16.06233-61.09894-34.33551-86.58826-3.83532-5.36522-7.94468-10.53443-12.30121-15.48595 4.94597-4.94597 9.89193-9.89193 14.83789-14.83789-6.19915-6.19994-12.39655-12.40163-18.5957-18.601567-4.97201 4.972005-9.94401 9.944011-14.91602 14.916017-24.56104-21.321042-54.56137-36.360038-86.39704-43.077042-4.55622-.978359-9.15057-1.778118-13.76702-2.413194-8.27262-18.929109-16.5467-37.857579-24.81836-56.787109-.61067 1.3977865-1.22135 2.7955729-1.83203 4.1933594zm-1.83203 123.7792956c1.22135 2.79557 2.44271 5.59115 3.66406 8.38672 7.7552-17.74732 15.51321-35.49341 23.26953-53.240234 24.7404 3.672491 48.58814 13.070872 69.2432 27.164684 4.81139 3.2775 9.4481 6.81004 13.88962 10.5736-6.08944 6.08764-12.17668 12.17748-18.26758 18.26367 5.81891 4.9591 11.4203 10.19033 16.5039 15.9082.6134.7774 1.41847 1.62746 2.50266 1.52039 1.32785-.0326 1.96708-1.35817 2.88262-2.11465 5.02615-5.02224 10.05532-10.06313 15.07957-15.07371 11.42969 13.24319 20.7694 28.28406 27.55078 44.41016 1.45853 3.46551 2.9011 7.23491 4.14859 10.91513 1.29533 3.80433 2.45143 7.67722 3.48425 11.61831.64119 2.42475 1.29733 5.24747 1.81638 7.69703.39681 1.93402.75504 3.71551 1.09248 5.67907.29299 1.67761.5636 3.35929.80205 5.04554-17.6368 7.70815-35.27288 15.41794-52.91016 23.125 17.72433 7.74459 35.44787 15.49101 53.17188 23.23633-3.17828 24.27753-11.81842 47.8108-25.07195 68.39652-.78719 1.2063-1.72241 2.63915-2.59981 3.91082-1.21746 1.79482-2.59726 3.70446-3.81262 5.35672-2.59524 3.47559-5.30469 6.8673-8.16015 10.13281-5.69206-5.69206-11.38412-11.38411-17.07618-17.07617-5.2563 6.01435-10.83427 11.76373-16.90234 16.96289-1.10448.94987-.97368 2.85354.26585 3.62464 5.00321 4.94533 9.9584 9.95013 14.94314 14.91833-14.777 12.42957-31.7392 22.24145-49.85743 28.91211-1.08262.38368-2.40211.87042-3.58595 1.26486-9.11071 3.11953-18.49808 5.42729-28.00975 6.92654-8.13004-18.60293-16.26154-37.20524-24.39062-55.80859-8.20435 18.7747-16.41167 37.54809-24.61719 56.32227-20.49768-2.74593-40.45555-9.38021-58.54102-19.40625-.72877-.41721-1.57551-.87896-2.33656-1.32414-2.41132-1.38476-4.77132-2.82338-7.05777-4.29881-6.58596-4.25135-12.8876-8.94583-18.81856-14.07237 5.59112-5.59052 11.18248-11.1808 16.77344-16.77148-5.94454-5.26919-11.64092-10.83942-16.76575-16.91467-.89326-1.14542-2.80587-1.13951-3.63464.0729-4.21653 4.31674-8.53447 8.54883-12.79003 12.83299-.69629.6963-1.39258 1.39259-2.08888 2.08889-4.72852-5.58055-9.12339-11.52565-13.04638-17.62575-5.34976-8.30607-9.95642-17.0894-13.758305-26.20824-3.820968-9.20443-6.889102-18.92801-9.001581-28.74316-.864847-3.98877-1.562443-7.8991-2.135138-11.94824 18.884194-8.25309 37.767714-16.50768 56.652344-24.75977-18.79339-8.21193-37.58588-16.42592-56.378906-24.63867.390799-2.54484.834002-5.03992 1.32714-7.51236.735394-3.68964 1.606947-7.3511 2.584969-10.98373.19709-.68258.470535-1.6685.696933-2.46751 4.461267-15.4615 11.169893-30.27234 19.855804-43.8196.972-1.49804 2.06538-3.16609 3.12976-4.69999 3.00046-4.35049 6.20684-8.55881 9.60461-12.60666 5.98242 5.98243 11.96485 11.96485 17.94727 17.94727 5.01986-5.81322 10.31295-11.40488 16.0918-16.47266.7924-.56867 1.57956-1.40556 1.45424-2.46751-.0821-1.27267-1.34947-1.91223-2.09187-2.80488-4.99319-4.99319-9.98638-9.98637-14.97956-14.97956 12.03403-10.47456 25.57305-19.21468 40.06836-25.878905 1.26751-.577926 2.74981-1.241332 4.11468-1.820046 14.10362-6.018674 29.04416-10.072548 44.25446-12.015891 6.60677 15.113282 13.21354 30.226562 19.82031 45.339842z" fill="#2e852e" filter="url(#b)" stroke-width=".912634" transform="matrix(.98615676 0 0 .98615676 3.459891 3.458861)"/><path d="m248.20703 11.703125c-7.13086 16.313802-14.26172 32.627604-21.39258 48.941406-27.6481 3.03843-54.58705 12.251716-78.32072 26.752665-10.32074 6.288649-20.04012 13.560564-29.00545 21.665304-5.45247-5.45247-10.90495-10.904948-16.35742-16.357422-5.257162 5.257162-10.514324 10.514322-15.771485 15.771482 5.494792 5.49479 10.989583 10.98959 16.484375 16.48438-19.936445 22.69216-34.432321 50.1469-41.786619 79.45169-1.997118 7.91328-3.485297 15.9559-4.447756 24.06003-16.699948 7.29865-33.399191 14.59891-50.0996094 21.89648 16.6215014 7.26274 33.2421294 14.52748 49.8632814 21.79102 3.094971 28.95567 12.967572 57.15253 28.587761 81.72764 5.454917 8.61741 11.609056 16.79014 18.357552 24.43642-5.652393 5.6536-11.304347 11.30763-16.957032 16.96094 5.256743 5.25693 10.512788 10.51455 15.769532 15.77148 5.63151-5.63151 11.26302-11.26302 16.89453-16.89453 22.51743 20.25999 49.88451 35.11123 79.19151 42.80006 9.46278 2.49859 19.12168 4.25669 28.85537 5.27416 7.32206 16.75269 14.64595 33.50458 21.96679 50.25781 7.38659-16.90362 14.77625-33.8059 22.16406-50.70898 28.62882-3.55766 56.39349-13.76465 80.53825-29.54873 7.65466-4.9882 14.94987-10.52877 21.82113-16.55088 5.12432 5.12372 10.24889 10.2472 15.37305 15.37109 5.25674-5.25693 10.51279-10.51455 15.76953-15.77148-5.08222-5.0825-10.16404-10.16539-15.2461-15.24805 20.10721-22.18354 34.95067-49.12155 42.8233-78.01609 2.52775-9.23202 4.35356-18.65688 5.46577-28.1636 17.9148-7.82988 35.82882-15.66153 53.74414-23.49023-17.99782-7.86426-35.99473-15.73061-53.99219-23.59571-3.48347-27.36185-13.03064-53.9195-27.72437-77.25974-5.84501-9.30192-12.48846-18.10141-19.82836-26.27541 4.91927-4.91927 9.83854-9.83854 14.75781-14.75781-5.25656-5.25712-10.51102-10.516327-15.76758-15.773442-4.94095 4.941211-9.88148 9.882842-14.82227 14.824222-21.57424-19.089606-47.48809-33.256155-75.24201-40.996563-8.65805-2.420549-17.48766-4.230552-26.40056-5.405784-7.81102-17.872473-15.62362-35.74426-23.4336-53.6171874-.61067 1.3977865-1.22135 2.7955734-1.83203 4.1933594zm0 117.984375c.61068 1.39779 1.22136 2.79557 1.83203 4.19336 7.3483-16.81633 14.69941-33.63143 22.04883-50.447266 5.3805.755966 10.73707 1.780665 15.97656 3.037109 25.69645 6.161231 49.872 18.496447 69.97894 35.637077.45303.37647.89692.76321 1.33942 1.15199-6.09242 6.09182-12.18506 12.18342-18.27734 18.27539 5.29601 4.5433 10.34096 9.38266 14.98626 14.59256.42965.28655.83993 1.44813 1.29307.67302 5.95116-5.95116 11.90232-11.90232 17.85348-17.85347 3.83495 4.33041 7.44693 8.86497 10.79337 13.52351 10.25573 14.26235 18.29915 30.24407 23.63632 46.90617.9968 3.10864 1.91471 6.29291 2.72265 9.42188 1.66679 6.47213 2.94819 13.04276 3.8418 19.66601-16.70386 7.30059-33.40695 14.60293-50.11133 21.90235 16.78496 7.33426 33.56895 14.67072 50.35352 22.00586-.3513 2.88281-.79272 5.78801-1.29688 8.69726-1.02719 5.791-2.3796 11.69843-4.02924 17.41252-.5226 1.81937-1.06971 3.5985-1.66607 5.441-.4045 1.23944-.87706 2.65633-1.31889 3.8931-4.64847 13.2282-10.96994 25.86404-18.7397 37.53463-2.0787 3.12106-4.41433 6.39017-6.77677 9.455-2.5145 3.26802-5.15083 6.44214-7.89511 9.51961-5.69726-5.69726-11.39453-11.39453-17.09179-17.09179-4.65025 5.27896-9.60538 10.29086-14.91835 14.90503-.35778.40566-1.33748.79327-.48551 1.23407 5.52524 5.52525 11.05049 11.05049 16.57573 16.57574-19.63018 16.95273-43.21648 29.29027-68.34708 35.71607-1.10336.27422-2.51112.62951-3.74205.91039-4.47133 1.04294-8.98666 1.89458-13.52806 2.56885-7.72445-17.6752-15.45028-35.3498-23.17382-53.02539-7.79473 17.83724-15.59267 35.67308-23.38868 53.50977-6.73708-.84996-13.42239-2.10551-20.00976-3.75391-18.84637-4.7214-37.03569-12.81383-53.19909-23.72758-6.19422-4.1701-12.11321-8.74939-17.70326-13.70015 5.60089-5.60029 11.20201-11.20035 16.80274-16.80079-5.24652-4.67991-10.2258-9.66152-14.80132-15.00205-.4065-.36107-.79274-1.3537-1.23818-.50142-5.48423 5.48423-10.96846 10.96846-16.45269 16.45269-12.6813-14.58674-22.852436-31.35497-29.888671-49.35937-2.155111-5.50875-4.075178-11.29755-5.646312-17.07095-.966809-3.54933-1.81607-7.13178-2.560719-10.77476-.436777-2.18624-.879747-4.56543-1.240218-6.8404-.248127-1.53453-.487643-3.17148-.679704-4.64788 17.948643-7.84423 35.896624-15.68998 53.845704-23.5332-17.86371-7.80566-35.726501-15.61342-53.589844-23.41992.696983-4.81533 1.57566-9.49695 2.671875-14.22656 3.726222-16.04458 9.892783-31.69884 18.158319-46.02561 5.32163-9.21873 11.50201-17.94328 18.45496-26.00369l17.97461 17.97461c4.57422-5.26242 9.43962-10.27505 14.67396-14.88501.22514-.40872 1.4336-.79227.76-1.22401-5.92916-5.92915-11.85832-11.85831-17.78747-17.78747 16.04579-14.33918 34.94706-25.650582 55.24649-32.959464 2.88465-1.043739 5.93832-2.048412 8.88847-2.932138 3.84682-1.147543 7.60151-2.131494 11.54083-3.01269 3.80196-.855789 7.74826-1.585447 11.52928-2.164063 1.79455-.268264 3.55328-.50838 5.38477-.728516 6.80664 15.570964 13.61328 31.141931 20.41992 46.712891z" fill="#2ad52a" filter="url(#c)" stroke-width=".912634" transform="matrix(.98615676 0 0 .98615676 3.459891 3.458861)"/><path d="m250.03729 15.786794-21.55329 49.313225c-41.17098 4.317423-78.39736 22.004342-107.24969 48.640991l-16.072-16.07201-12.762956 12.76489 16.172466 16.17244c-25.193651 28.1714-42.000674 63.99052-46.474562 103.51567l-46.307453 20.24068 46.0882 20.14118c4.138734 40.59532 21.268357 77.38031 47.169015 106.11964l-16.6467 16.64862 12.76295 12.76391 16.59357-16.59357c29.06868 26.63278 66.55006 44.22119 107.96445 48.28555l20.316 46.48227 20.49953-46.90049c39.07891-4.66513 74.48174-21.39682 102.38367-46.34995l15.07715 15.07716 12.76295-12.76488-14.97478-14.97479c26.39324-28.5896 43.99904-65.40066 48.52025-106.12446l49.9024-21.81214-50.13518-21.91258c-4.84864-39.65166-22.12218-75.49881-47.80067-103.52531l14.48798-14.48799-12.76102-12.765851-14.54109 14.542081c-27.68751-24.951212-62.84114-41.762098-101.6728-46.66096l-21.75031-49.764291zm-20.71975 67.371047 20.71975 47.402759 20.5343-46.979717c34.40703 4.537643 65.53397 19.379127 90.18093 41.335187l-18.02692 18.02692c4.55502 3.94073 8.85699 8.16832 12.88658 12.64124l17.97089-17.96992c22.7442 25.06806 38.0522 57.0073 42.49421 92.36088l-46.63874 20.38459 46.86379 20.4831c-4.15902 36.34938-19.79251 69.17239-43.20606 94.76106l-16.85435-16.85628c-4.00351 4.50093-8.28229 8.74783-12.81027 12.71851l16.78673 16.78674c-24.29633 21.45767-54.81286 36.03933-88.53121 40.71316l-21.64795-49.53151-21.84594 49.97967c-35.90412-4.21117-68.34657-19.62638-93.74111-42.6671l16.58585-16.58391c-4.47389-4.03249-8.69762-8.33543-12.63932-12.88948l-16.64669 16.64573c-22.250651-24.97727-37.195484-56.60938-41.510971-91.56404l50.321591-21.99275-50.082056-21.88942c4.578204-33.96755 19.203342-64.71298 40.796236-89.16192l17.74681 17.74679c3.97164-4.5299 8.21951-8.80483 12.72044-12.80736l-17.82022-17.82023c25.73743-23.5478 58.79417-39.223785 95.39467-43.272698z" fill="#83fc83" stroke-width=".9"/></g><path d="m111.80273 82.4375c-2.21953-.065562-4.45059-.062839-6.6875.015625v.001953c-2.55646.08967-5.122128.275297-7.693355.566406-15.107683 1.710459-29.697952 6.161141-43.273437 12.5a250 250 0 0 0 -5.855469 7.822266c-.4062.034-.814804.04213-1.220703.07813-4.279596 7.13419-9.983585 13.54744-13.550782 21.39843.2676-.062.535235-.10005.802735-.16015a250 250 0 0 0 -9.337891 17.09961c-.2475.064-.494688.11323-.742187.17773-2.841998 7.84259-7.121774 14.97723-9.263672 22.82812.254099-.09699.515031-.17733.769531-.27343a250 250 0 0 0 -6.5292969 19.23828c-.2154998.105-.4411502.18727-.65625.29297-1.4292985 7.84679-5.0019531 15.68865-5.0019531 24.24804.1188999-.084.2517939-.14912.3710938-.23242a250 250 0 0 0 -2.3359376 19.61133c-.2886997.2053-.5931596.38735-.88085932.59375-.61439939 7.33629-.67890627 14.21419-.69140625 21.39648a250 250 0 0 0 -.02539063.35938 250 250 0 0 0 .02148438.29297c0 .9816-.02148438 1.91566-.02148438 2.91406.07099993-.066.14589695-.12395.21679688-.18945a250 250 0 0 0 1.37890622 19.30078c-.2987997.2987-.5765065.55863-.87890622.86133 0 4.98809.70761392 9.98836 2.13281252 14.97656v3.57227c.7125993 2.13359.7131819 3.56288 1.4257812 5.70898.2077998-.3022.4514096-.55912.6621094-.85742a250 250 0 0 0 4.3144531 19.83008c-.2235998.3341-.4677533.65708-.6894531.99218 2.846097 7.8509 4.989353 15.68877 7.84375 23.53516.2586-.4913.567978-.95386.830078-1.44336a250 250 0 0 0 7.501953 18.29102c-.1553.3292-.340141.65908-.49414.98828 2.141797 3.56629 3.575192 7.8419 5.71289 11.4082 2.854597 2.8554 4.276071 7.14422 6.417969 10.69922.1088-.3808.253734-.73829.365234-1.11719a250 250 0 0 0 11.302735 16.5586c-.076.3262-.182913.64215-.257813.96875 4.996395 6.41699 9.271572 13.54726 15.697266 19.25586.011-.1215.036828-.24189.048828-.36329a250 250 0 0 0 13.583984 13.58399c-.025.3492-.064843.69552-.089843 1.04492 6.425693 4.9923 11.418739 12.12475 19.269531 16.40625-.03-.2816-.036453-.55689-.064453-.83789a250 250 0 0 0 15.646481 11.71289c.038.4123.06207.83479.10157 1.24609 3.56709 1.4289 7.13827 4.28288 10.70117 6.42188 3.56709 2.1403 7.84716 3.56717 11.41015 5.70117-.062-.2394-.09505-.48501-.15625-.72461a250 250 0 0 0 13.82618 6.79688l-6.53516-60.14258c-.76674-15.38594 7.88793-27.25857 18.91992-39.72266l4.76367-5.38086c2.15805.19315 4.46272.33776 6.45313.59571l1.83008.23828 1.83789-.13867c7.94705-.60007 17.72903-.16563 27.32226-.57227 4.79662-.20332 9.56983-.53547 14.9336-2.04883 5.36348-1.51329 12.59536-4.74122 17.02343-12.52148v-.00196c11.04961-19.41731 9.38513-39.87593 5.32422-57.4375 20.61289.21591 43.58561 3.32174 68.73047.29688 3.68727-.44358 14.12854.18365 24.79883-.69922 5.33513-.44144 11.07004-1.06642 17.66601-4.52539 6.59599-3.45897 13.82202-12.58926 14.41016-21.83203.62773-9.8648-6.73931-20.27796-13.28906-24.07031s-12.31228-4.73765-17.85938-5.56836c-11.09419-1.6614-22.49441-2.04056-26.32031-2.90235-27.56297-6.20859-50.37097-1.75164-63.45508-7.85547-2.15169-1.00378-6.07846-6.05969-12.77343-12.63867 1.32481-11.64941 2.91235-25.34621-.43555-40.54297-4.08494-18.54223-12.52454-36.42866-24.96289-51.24414-13.54811-16.1373-31.18506-28.49099-50.19336-36.404294-13.56923-5.648976-28.60975-9.519585-44.14649-9.978516z" fill="#2e852e" stroke-width="1.00001"/><path d="m105.72266 100.45117c-2.10076.07004-4.19328.21957-6.273441.45508-22.125358 2.50499-43.944007 12.0148-61.835938 25.26758-2.5084 1.858-4.944592 3.82292-7.320312 5.86719a250 250 0 0 0 -5.306641 9.71875c-.2475.064-.494688.11323-.742187.17773-2.841998 7.84259-7.121774 14.97723-9.263672 22.82812.254099-.09699.515031-.17733.769531-.27343a250 250 0 0 0 -6.5292969 19.23828c-.2154998.105-.4411502.18727-.65625.29297-1.4292985 7.84679-5.0019531 15.68865-5.0019531 24.24804.1188999-.084.2517939-.14912.3710938-.23242a250 250 0 0 0 -2.3359376 19.61133c-.2886997.2053-.5931596.38735-.88085932.59375-.61439939 7.33629-.67890627 14.21419-.69140625 21.39648a250 250 0 0 0 -.02539063.35938 250 250 0 0 0 .02148438.29297c0 .9816-.02148438 1.91566-.02148438 2.91406.07099993-.066.14589695-.12395.21679688-.18945a250 250 0 0 0 1.37890622 19.30078c-.2987997.2987-.5765065.55863-.87890622.86133 0 4.98809.70761392 9.98836 2.13281252 14.97656v3.57227c.7125993 2.13359.7131819 3.56288 1.4257812 5.70898.2077998-.3022.4514096-.55912.6621094-.85742a250 250 0 0 0 4.3144531 19.83008c-.0893393.13349-.1822232.26507-.2753906.39648 9.9628055 17.60934 18.4765625 29.93555 18.4765625 29.93555l-4.035156 7.82422a250 250 0 0 0 1.320312 3.21875c-.1553.3292-.340141.65908-.49414.98828 2.141797 3.56629 3.575192 7.8419 5.71289 11.4082 2.854597 2.8554 4.276071 7.14422 6.417969 10.69922.1088-.3808.253734-.73829.365234-1.11719a250 250 0 0 0 11.302735 16.5586c-.076.3262-.182913.64215-.257813.96875 4.996395 6.41699 9.271572 13.54726 15.697266 19.25586.011-.1215.036828-.24189.048828-.36329a250 250 0 0 0 13.583984 13.58399c-.025.3492-.064843.69552-.089843 1.04492 6.425693 4.9923 11.418739 12.12475 19.269531 16.40625-.03-.2816-.036453-.55689-.064453-.83789a250 250 0 0 0 15.646481 11.71289c.038.4123.06207.83479.10157 1.24609 3.56709 1.4289 7.13827 4.28288 10.70117 6.42188.5994.35964 1.28509.63288 1.91797.95898l3.85937-.18554-5.21094-47.95704c-1.25307-22.75769 11.68218-39.57668 23.41797-52.83593-10.34655-.69132-21.26542-1.57756-31.80273-3.58985-11.70814-2.23705-23.075718-5.91374-32.623049-12.78515-9.54805-6.87071-17.043994-17.09247-20.535156-30.98633l12.380859-3.10938c2.829518 11.25973 8.241973 18.43405 15.609375 23.73633 7.368103 5.30228 16.922171 8.57653 27.564451 10.60938 18.09477 3.45662 38.82617 3.13837 56.41602 5.41797 18.96845-1.43228 40.47222 1.84549 44.99023-6.09375 11.04011-19.39963 3.5841-45.33012-2.43945-65.58203 6.54655-.21626 10.54763-.89599 15.83594-1.05274 24.70725-.73239 49.61122 3.47568 74.15234.52344 14.0119-1.6856 40.20713 3.08149 41.06055-10.33008.85342-13.41156-28.62778-10.49714-43.45899-13.83789-22.02369-4.96088-46.65487.43851-67.11328-9.10547-9.8019-4.57264-16.25498-15.23378-24-21.83398 1.15521-14.50223 3.96671-29.52967.82617-43.78516-3.47226-15.76127-10.79396-31.18365-21.17187-43.54492-11.46316-13.6539-26.86654-24.50905-43.32617-31.36133-13.52836-5.63196-28.60133-9.070368-43.30664-8.58008z" fill="#83fc83" stroke-width="36"/><g opacity=".6"><path d="m248.20703 6.7089844c-7.58653 17.3612716-15.17598 34.7212686-22.76367 52.0820316-31.07104 3.592615-61.19559 14.947981-86.94272 32.701004-6.60911 4.543598-12.93135 9.50216-18.93619 14.81853-5.47786-5.47787-10.95573-10.955732-16.43359-16.433597-6.19987 6.19987-12.39974 12.399737-18.59961 18.599607 5.527344 5.52735 11.054688 11.05469 16.58203 16.58203-21.282264 24.68969-36.221197 54.82668-42.806578 86.76177-1.052093 5.05458-1.904042 10.1514-2.539124 15.27534-17.750724 7.75765-35.500802 15.51677-53.251953 23.27344 17.667692 7.71985 35.334581 15.44153 53.001953 23.16211 3.520177 31.24252 14.888329 61.55289 32.724305 87.44048 4.118154 5.99794 8.580443 11.75826 13.340147 17.26069-5.682991 5.6842-11.365544 11.36883-17.048827 17.05274 6.199413 6.19967 12.398243 12.39993 18.597657 18.59961 5.6595-5.65951 11.31901-11.31901 16.97852-16.97852 24.23596 21.39921 53.90653 36.61625 85.46827 43.6657 6.96908 1.5699 14.02759 2.74108 21.12743 3.52766 7.77781 17.7963 15.55724 35.5919 23.33398 53.38867 7.84681-17.95638 15.69684-35.91136 23.54492-53.86719 30.74616-3.9986 60.45087-15.61961 85.79882-33.46532 5.21396-3.66535 10.25087-7.58243 15.08204-11.73975 5.15688 5.15627 10.31399 10.31231 15.47071 15.46875 6.19941-6.19968 12.39824-12.39994 18.59765-18.59961-5.10826-5.10854-10.21612-10.21748-15.32422-15.32618 21.62362-24.31458 37.0136-54.15224 44.12011-85.91569 1.40092-6.2104 2.49195-12.49151 3.26466-18.81087 18.96427-8.28823 37.92785-16.57805 56.89258-24.86523-19.0518-8.32469-38.10281-16.65117-57.1543-24.97657-4.13246-31.09339-16.06233-61.09894-34.33551-86.58826-3.83532-5.36522-7.94468-10.53443-12.30121-15.48595 4.94597-4.94597 9.89193-9.89193 14.83789-14.83789-6.19915-6.19994-12.39655-12.40163-18.5957-18.601567-4.97201 4.972005-9.94401 9.944011-14.91602 14.916017-24.56104-21.321042-54.56137-36.360038-86.39704-43.077042-4.55622-.978359-9.15057-1.778118-13.76702-2.413194-8.27262-18.929109-16.5467-37.857579-24.81836-56.787109-.61067 1.3977865-1.22135 2.7955729-1.83203 4.1933594zm-1.83203 123.7792956c1.22135 2.79557 2.44271 5.59115 3.66406 8.38672 7.7552-17.74732 15.51321-35.49341 23.26953-53.240234 24.7404 3.672491 48.58814 13.070872 69.2432 27.164684 4.81139 3.2775 9.4481 6.81004 13.88962 10.5736-6.08944 6.08764-12.17668 12.17748-18.26758 18.26367 5.81891 4.9591 11.4203 10.19033 16.5039 15.9082.6134.7774 1.41847 1.62746 2.50266 1.52039 1.32785-.0326 1.96708-1.35817 2.88262-2.11465 5.02615-5.02224 10.05532-10.06313 15.07957-15.07371 11.42969 13.24319 20.7694 28.28406 27.55078 44.41016 1.45853 3.46551 2.9011 7.23491 4.14859 10.91513 1.29533 3.80433 2.45143 7.67722 3.48425 11.61831.64119 2.42475 1.29733 5.24747 1.81638 7.69703.39681 1.93402.75504 3.71551 1.09248 5.67907.29299 1.67761.5636 3.35929.80205 5.04554-17.6368 7.70815-35.27288 15.41794-52.91016 23.125 17.72433 7.74459 35.44787 15.49101 53.17188 23.23633-3.17828 24.27753-11.81842 47.8108-25.07195 68.39652-.78719 1.2063-1.72241 2.63915-2.59981 3.91082-1.21746 1.79482-2.59726 3.70446-3.81262 5.35672-2.59524 3.47559-5.30469 6.8673-8.16015 10.13281-5.69206-5.69206-11.38412-11.38411-17.07618-17.07617-5.2563 6.01435-10.83427 11.76373-16.90234 16.96289-1.10448.94987-.97368 2.85354.26585 3.62464 5.00321 4.94533 9.9584 9.95013 14.94314 14.91833-14.777 12.42957-31.7392 22.24145-49.85743 28.91211-1.08262.38368-2.40211.87042-3.58595 1.26486-9.11071 3.11953-18.49808 5.42729-28.00975 6.92654-8.13004-18.60293-16.26154-37.20524-24.39062-55.80859-8.20435 18.7747-16.41167 37.54809-24.61719 56.32227-20.49768-2.74593-40.45555-9.38021-58.54102-19.40625-.72877-.41721-1.57551-.87896-2.33656-1.32414-2.41132-1.38476-4.77132-2.82338-7.05777-4.29881-6.58596-4.25135-12.8876-8.94583-18.81856-14.07237 5.59112-5.59052 11.18248-11.1808 16.77344-16.77148-5.94454-5.26919-11.64092-10.83942-16.76575-16.91467-.89326-1.14542-2.80587-1.13951-3.63464.0729-4.21653 4.31674-8.53447 8.54883-12.79003 12.83299-.69629.6963-1.39258 1.39259-2.08888 2.08889-4.72852-5.58055-9.12339-11.52565-13.04638-17.62575-5.34976-8.30607-9.95642-17.0894-13.758305-26.20824-3.820968-9.20443-6.889102-18.92801-9.001581-28.74316-.864847-3.98877-1.562443-7.8991-2.135138-11.94824 18.884194-8.25309 37.767714-16.50768 56.652344-24.75977-18.79339-8.21193-37.58588-16.42592-56.378906-24.63867.390799-2.54484.834002-5.03992 1.32714-7.51236.735394-3.68964 1.606947-7.3511 2.584969-10.98373.19709-.68258.470535-1.6685.696933-2.46751 4.461267-15.4615 11.169893-30.27234 19.855804-43.8196.972-1.49804 2.06538-3.16609 3.12976-4.69999 3.00046-4.35049 6.20684-8.55881 9.60461-12.60666 5.98242 5.98243 11.96485 11.96485 17.94727 17.94727 5.01986-5.81322 10.31295-11.40488 16.0918-16.47266.7924-.56867 1.57956-1.40556 1.45424-2.46751-.0821-1.27267-1.34947-1.91223-2.09187-2.80488-4.99319-4.99319-9.98638-9.98637-14.97956-14.97956 12.03403-10.47456 25.57305-19.21468 40.06836-25.878905 1.26751-.577926 2.74981-1.241332 4.11468-1.820046 14.10362-6.018674 29.04416-10.072548 44.25446-12.015891 6.60677 15.113282 13.21354 30.226562 19.82031 45.339842z" fill="#2e852e" filter="url(#b)" stroke-width=".912634" transform="matrix(.98615676 0 0 .98615676 3.459891 3.458861)"/><path d="m248.20703 11.703125c-7.13086 16.313802-14.26172 32.627604-21.39258 48.941406-27.6481 3.03843-54.58705 12.251716-78.32072 26.752665-10.32074 6.288649-20.04012 13.560564-29.00545 21.665304-5.45247-5.45247-10.90495-10.904948-16.35742-16.357422-5.257162 5.257162-10.514324 10.514322-15.771485 15.771482 5.494792 5.49479 10.989583 10.98959 16.484375 16.48438-19.936445 22.69216-34.432321 50.1469-41.786619 79.45169-1.997118 7.91328-3.485297 15.9559-4.447756 24.06003-16.699948 7.29865-33.399191 14.59891-50.0996094 21.89648 16.6215014 7.26274 33.2421294 14.52748 49.8632814 21.79102 3.094971 28.95567 12.967572 57.15253 28.587761 81.72764 5.454917 8.61741 11.609056 16.79014 18.357552 24.43642-5.652393 5.6536-11.304347 11.30763-16.957032 16.96094 5.256743 5.25693 10.512788 10.51455 15.769532 15.77148 5.63151-5.63151 11.26302-11.26302 16.89453-16.89453 22.51743 20.25999 49.88451 35.11123 79.19151 42.80006 9.46278 2.49859 19.12168 4.25669 28.85537 5.27416 7.32206 16.75269 14.64595 33.50458 21.96679 50.25781 7.38659-16.90362 14.77625-33.8059 22.16406-50.70898 28.62882-3.55766 56.39349-13.76465 80.53825-29.54873 7.65466-4.9882 14.94987-10.52877 21.82113-16.55088 5.12432 5.12372 10.24889 10.2472 15.37305 15.37109 5.25674-5.25693 10.51279-10.51455 15.76953-15.77148-5.08222-5.0825-10.16404-10.16539-15.2461-15.24805 20.10721-22.18354 34.95067-49.12155 42.8233-78.01609 2.52775-9.23202 4.35356-18.65688 5.46577-28.1636 17.9148-7.82988 35.82882-15.66153 53.74414-23.49023-17.99782-7.86426-35.99473-15.73061-53.99219-23.59571-3.48347-27.36185-13.03064-53.9195-27.72437-77.25974-5.84501-9.30192-12.48846-18.10141-19.82836-26.27541 4.91927-4.91927 9.83854-9.83854 14.75781-14.75781-5.25656-5.25712-10.51102-10.516327-15.76758-15.773442-4.94095 4.941211-9.88148 9.882842-14.82227 14.824222-21.57424-19.089606-47.48809-33.256155-75.24201-40.996563-8.65805-2.420549-17.48766-4.230552-26.40056-5.405784-7.81102-17.872473-15.62362-35.74426-23.4336-53.6171874-.61067 1.3977865-1.22135 2.7955734-1.83203 4.1933594zm0 117.984375c.61068 1.39779 1.22136 2.79557 1.83203 4.19336 7.3483-16.81633 14.69941-33.63143 22.04883-50.447266 5.3805.755966 10.73707 1.780665 15.97656 3.037109 25.69645 6.161231 49.872 18.496447 69.97894 35.637077.45303.37647.89692.76321 1.33942 1.15199-6.09242 6.09182-12.18506 12.18342-18.27734 18.27539 5.29601 4.5433 10.34096 9.38266 14.98626 14.59256.42965.28655.83993 1.44813 1.29307.67302 5.95116-5.95116 11.90232-11.90232 17.85348-17.85347 3.83495 4.33041 7.44693 8.86497 10.79337 13.52351 10.25573 14.26235 18.29915 30.24407 23.63632 46.90617.9968 3.10864 1.91471 6.29291 2.72265 9.42188 1.66679 6.47213 2.94819 13.04276 3.8418 19.66601-16.70386 7.30059-33.40695 14.60293-50.11133 21.90235 16.78496 7.33426 33.56895 14.67072 50.35352 22.00586-.3513 2.88281-.79272 5.78801-1.29688 8.69726-1.02719 5.791-2.3796 11.69843-4.02924 17.41252-.5226 1.81937-1.06971 3.5985-1.66607 5.441-.4045 1.23944-.87706 2.65633-1.31889 3.8931-4.64847 13.2282-10.96994 25.86404-18.7397 37.53463-2.0787 3.12106-4.41433 6.39017-6.77677 9.455-2.5145 3.26802-5.15083 6.44214-7.89511 9.51961-5.69726-5.69726-11.39453-11.39453-17.09179-17.09179-4.65025 5.27896-9.60538 10.29086-14.91835 14.90503-.35778.40566-1.33748.79327-.48551 1.23407 5.52524 5.52525 11.05049 11.05049 16.57573 16.57574-19.63018 16.95273-43.21648 29.29027-68.34708 35.71607-1.10336.27422-2.51112.62951-3.74205.91039-4.47133 1.04294-8.98666 1.89458-13.52806 2.56885-7.72445-17.6752-15.45028-35.3498-23.17382-53.02539-7.79473 17.83724-15.59267 35.67308-23.38868 53.50977-6.73708-.84996-13.42239-2.10551-20.00976-3.75391-18.84637-4.7214-37.03569-12.81383-53.19909-23.72758-6.19422-4.1701-12.11321-8.74939-17.70326-13.70015 5.60089-5.60029 11.20201-11.20035 16.80274-16.80079-5.24652-4.67991-10.2258-9.66152-14.80132-15.00205-.4065-.36107-.79274-1.3537-1.23818-.50142-5.48423 5.48423-10.96846 10.96846-16.45269 16.45269-12.6813-14.58674-22.852436-31.35497-29.888671-49.35937-2.155111-5.50875-4.075178-11.29755-5.646312-17.07095-.966809-3.54933-1.81607-7.13178-2.560719-10.77476-.436777-2.18624-.879747-4.56543-1.240218-6.8404-.248127-1.53453-.487643-3.17148-.679704-4.64788 17.948643-7.84423 35.896624-15.68998 53.845704-23.5332-17.86371-7.80566-35.726501-15.61342-53.589844-23.41992.696983-4.81533 1.57566-9.49695 2.671875-14.22656 3.726222-16.04458 9.892783-31.69884 18.158319-46.02561 5.32163-9.21873 11.50201-17.94328 18.45496-26.00369l17.97461 17.97461c4.57422-5.26242 9.43962-10.27505 14.67396-14.88501.22514-.40872 1.4336-.79227.76-1.22401-5.92916-5.92915-11.85832-11.85831-17.78747-17.78747 16.04579-14.33918 34.94706-25.650582 55.24649-32.959464 2.88465-1.043739 5.93832-2.048412 8.88847-2.932138 3.84682-1.147543 7.60151-2.131494 11.54083-3.01269 3.80196-.855789 7.74826-1.585447 11.52928-2.164063 1.79455-.268264 3.55328-.50838 5.38477-.728516 6.80664 15.570964 13.61328 31.141931 20.41992 46.712891z" fill="#2ad52a" filter="url(#c)" stroke-width=".912634" transform="matrix(.98615676 0 0 .98615676 3.459891 3.458861)"/><path d="m250.03729 15.786794-21.55329 49.313225c-41.17098 4.317423-78.39736 22.004342-107.24969 48.640991l-16.072-16.07201-12.762956 12.76489 16.172466 16.17244c-25.193651 28.1714-42.000674 63.99052-46.474562 103.51567l-46.307453 20.24068 46.0882 20.14118c4.138734 40.59532 21.268357 77.38031 47.169015 106.11964l-16.6467 16.64862 12.76295 12.76391 16.59357-16.59357c29.06868 26.63278 66.55006 44.22119 107.96445 48.28555l20.316 46.48227 20.49953-46.90049c39.07891-4.66513 74.48174-21.39682 102.38367-46.34995l15.07715 15.07716 12.76295-12.76488-14.97478-14.97479c26.39324-28.5896 43.99904-65.40066 48.52025-106.12446l49.9024-21.81214-50.13518-21.91258c-4.84864-39.65166-22.12218-75.49881-47.80067-103.52531l14.48798-14.48799-12.76102-12.765851-14.54109 14.542081c-27.68751-24.951212-62.84114-41.762098-101.6728-46.66096l-21.75031-49.764291zm-20.71975 67.371047 20.71975 47.402759 20.5343-46.979717c34.40703 4.537643 65.53397 19.379127 90.18093 41.335187l-18.02692 18.02692c4.55502 3.94073 8.85699 8.16832 12.88658 12.64124l17.97089-17.96992c22.7442 25.06806 38.0522 57.0073 42.49421 92.36088l-46.63874 20.38459 46.86379 20.4831c-4.15902 36.34938-19.79251 69.17239-43.20606 94.76106l-16.85435-16.85628c-4.00351 4.50093-8.28229 8.74783-12.81027 12.71851l16.78673 16.78674c-24.29633 21.45767-54.81286 36.03933-88.53121 40.71316l-21.64795-49.53151-21.84594 49.97967c-35.90412-4.21117-68.34657-19.62638-93.74111-42.6671l16.58585-16.58391c-4.47389-4.03249-8.69762-8.33543-12.63932-12.88948l-16.64669 16.64573c-22.250651-24.97727-37.195484-56.60938-41.510971-91.56404l50.321591-21.99275-50.082056-21.88942c4.578204-33.96755 19.203342-64.71298 40.796236-89.16192l17.74681 17.74679c3.97164-4.5299 8.21951-8.80483 12.72044-12.80736l-17.82022-17.82023c25.73743-23.5478 58.79417-39.223785 95.39467-43.272698z" fill="#83fc83" stroke-width=".9"/></g></svg>