<svg height="500" viewBox="0 0 500 500" width="500" xmlns="http://www.w3.org/2000/svg"><g transform="translate(.000015)"><circle cx="-249.99998" cy="250" fill="#e51a1a" r="250" transform="scale(-1 1)"/><path d="m181.33938 83.856939c97.52275-31.84694 203.27597 26.159281 217.12696 131.568651 10.04116 85.89723-45.79566 162.6049-131.11288 174.6444-76.26503 6.65-147.16573-45.4981-149.44603-126.3231.16679-50.89801 30.03241-87.97493 76.60677-108.40662 44.00125-16.48183 90.46555-3.00917 112.28155 39.63622 17.95322 40.0953 3.57775 87.31302-40.4313 103.80676-21.98685 8.23292-51.6578-5.55285-56.72562-31.5612 24.48155 21.7253 69.7211 11.74379 80.1808-21.06198 5.24648-24.88185-11.48198-41.52298-24.36368-55.64156-23.21161-15.22125-63.26956-13.16738-85.32502 12.05139-41.51846 46.43224-18.48961 112.52397 35.72777 131.08081 60.66482 17.11352 118.96473-29.63961 126.96137-92.39988 2.7637-54.83226-40.99398-106.19486-96.51046-114.27807-76.21988-10.3001-138.45939 50.84936-147.743191 124.09106-9.31956 73.21828 47.315731 138.67973 111.863041 158.33924 49.05305 9.49897 98.18701 2.07129 139.64056-27.40671 82.90715-58.95602 100.11901-177.97214 43.55644-260.39974-52.71171-79.885311-158.575-103.987181-249.15842-67.061741-86.705021 39.45169-149.0660905 134.549061-117.102931 229.167621 15.77888-74.65377 50.93986-153.5943 123.407351-187.514491 9.28724-4.60517 19.44718-8.7232 30.56692-12.33106zm-160.722321 286.075591c-52.57825-113.8254-.38403-260.89182 113.777041-317.643861 10.84604-5.32012 22.21219-9.7712 34.03518-13.36069 115.76394-28.75816 246.03978 34.00351 263.68455 158.897471 10.04526 85.91695-27.72044 168.80365-107.97396 206.83173-102.24035 46.26108-224.798841-11.43986-234.690511-131.24969-7.33455-123.78718 127.307171-194.136761 222.718561-137.24102-42.54074-27.89653-94.21826-33.44528-140.80825-12.98978-71.17376 32.62266-105.080851 118.0397-80.762351 190.63139 30.697281 88.13423 123.572931 132.04164 212.817841 105.59803 82.80488-25.06359 132.16266-100.33164 140.19255-180.04986 12.12434-145.020371-132.23823-245.3588802-265.59709-221.973611 7.92036-4.10499 20.5989-8.4277792 35.61563-11.7452592 60.06317-13.23825 124.63426-3.45807 179.45368 32.4903392 109.65077 71.904621 141.09454 217.803071 65.16008 333.599141-143.00482 218.07486-377.311781 117.06797-437.622951-1.79433" fill="#b21a1a"/></g><path d="m430.83851 257.93748c4.04123-6.28999 10.21535-8.95973 15.65173-7.59088 5.35815 1.34915 9.89753 6.83688 9.30253 15.63921-.60321 8.91959-7.63014 15.36567-14.83067 19.99624-7.22679 4.64745-14.6846 7.52785-16.93567 11.18364.14677-4.6969-4.70562-10.73246-9.55293-16.84277-4.84732-6.11032-9.67773-12.17299-9.43983-18.84354.21756-6.08472 4.33635-9.9472 9.6907-11.11981 5.62008-1.23101 12.61829.72147 16.11414 7.57791zm-18.12493 67.46628c6.19737-4.12519 12.8254-3.98825 17.19642-.57727 4.31334 3.36595 6.33437 10.10087 2.49841 17.80348-3.89527 7.8211-12.74204 10.98052-21.1773 12.50143-8.45 1.52357-16.50801 1.41975-19.97798 4.00661 1.88603-4.34573-.38523-11.81071-2.51492-19.38908-2.13614-7.60134-4.09692-15.25202-1.09778-21.31129 2.78074-5.61679 8.22856-7.50034 13.5453-6.41672 5.59752 1.14066 11.07664 5.75683 11.52785 13.38284zm-42.36676 56.16081c7.30736-1.67348 13.48479.86226 16.37453 5.63591 2.85339 4.71362 2.35293 11.7247-3.9634 17.5398-6.41377 5.90442-15.84564 5.72493-24.28966 4.18256-8.46217-1.54569-15.96293-4.45566-20.10752-3.25391 3.32097-3.43947 3.76111-11.1609 4.40961-19.03552.64875-7.87759 1.48013-15.80616 6.46079-20.50578 4.62859-4.36666 10.45219-4.22906 15.07193-1.30444 4.86398 3.07901 8.33593 9.4106 6.04372 16.74138zm-59.325 37.57173c7.35706 1.06689 12.20764 5.59009 13.18604 11.04869.96454 5.3813-2.03297 11.71921-10.08288 14.84815-16.13461 6.27081-32.94222-14.55919-41.49202-15.55826 4.33109-1.85337 7.73608-8.81574 11.22064-15.7821 3.49115-6.97953 7.06699-13.92426 13.23588-16.42701 5.73778-2.32727 11.03058-.14045 14.2706 4.21699 3.40551 4.57971 4.41009 11.68718-.33826 17.65354zm-68.95946 11.7022c6.28998 4.04124 8.95972 10.21536 7.59086 15.65174-1.34916 5.35814-6.83689 9.89752-15.63921 9.30251-8.9196-.60322-15.36567-7.63016-19.99622-14.83068-4.64745-7.2268-7.52784-14.68461-11.18364-16.93569 4.69691.14677 10.73247-4.70561 16.84279-9.55291 6.11032-4.84731 12.173-9.67772 18.84354-9.43981 6.08473.21756 9.94721 4.33636 11.11981 9.69071 1.231 5.62008-.72149 12.61829-7.57793 16.11413zm-67.46627-18.12499c4.12519 6.19737 3.98825 12.8254.57727 17.19642-3.36597 4.31334-10.10088 6.33436-17.80349 2.49839-7.82109-3.89528-10.98051-12.74204-12.50142-21.17731-1.52356-8.44999-1.41973-16.50801-4.00659-19.97798 4.34574 1.88603 11.81071-.38522 19.38909-2.5149 7.60134-2.13614 15.25202-4.09691 21.31129-1.09777 5.61679 2.78075 7.50033 8.22857 6.41671 13.54531-1.14066 5.59752-5.75684 11.07664-13.38286 11.52784zm-56.16077-42.36681c1.67348 7.30736-.86227 13.48479-5.63592 16.37452-4.71362 2.8534-11.7247 2.35293-17.539795-3.9634-5.904418-6.41378-5.724917-15.84565-4.182542-24.28967 1.545691-8.46217 4.455668-15.96293 3.25392-20.10751 3.439476 3.32097 11.160897 3.76111 19.035517 4.40962 7.8776.64875 15.80616 1.48014 20.50578 6.4608 4.36665 4.6286 4.22905 10.4522 1.30443 15.07194-3.07901 4.86397-9.41061 8.33592-16.74139 6.0437zm-37.571675-59.32503c-1.066899 7.35706-5.590104 12.20764-11.048708 13.18603-5.381299.96453-11.719202-2.03298-14.848134-10.08289-6.270803-16.13462 14.559213-32.94221 15.558295-41.49201 1.853364 4.3311 8.815735 7.73609 15.782092 11.22065 6.979527 3.49116 13.92425 7.06701 16.427 13.2359 2.32725 5.73778.14044 11.03059-4.217013 14.27059-4.579708 3.40551-11.687183 4.41008-17.653532-.33827zm-11.702141-68.95947c-4.041242 6.28998-10.215367 8.95971-15.651743 7.59085-5.358141-1.34917-9.897513-6.8369-9.302495-15.63923.603227-8.91959 7.630171-15.36565 14.830702-19.9962 7.226798-4.64745 14.684619-7.52783 16.935696-11.18362-.146777 4.69691 4.7056 10.73247 9.552899 16.8428 4.8473 6.11032 9.677702 12.17301 9.439786 18.84355-.217569 6.08473-4.336368 9.9472-9.690719 11.1198-5.620083 1.23099-12.618285-.72151-16.114126-7.57795zm18.125058-67.46625c-6.197379 4.12519-12.825407 3.98823-17.196425.57725-4.31333-3.36597-6.334345-10.10088-2.498376-17.80349 3.895288-7.82109 12.742056-10.9805 21.177323-12.5014 8.449998-1.52355 16.508016-1.41971 19.977986-4.00657-1.88604 4.34573.38521 11.81071 2.51489 19.38909 2.13612 7.60134 4.09689 15.25203 1.09774 21.31129-2.78075 5.61678-8.22857 7.50032-13.545308 6.41669-5.597518-1.14066-11.076635-5.75685-11.52783-13.38286zm42.366848-56.16073c-7.30735 1.67346-13.48478-.86229-16.37451-5.63594-2.85339-4.71363-2.35292-11.72471 3.96342-17.539793 6.41378-5.904413 15.84565-5.724905 24.28967-4.182522 8.46217 1.545697 15.96292 4.45568 20.10751 3.253935-3.32097 3.439474-3.76112 11.1609-4.40964 19.03552-.64876 7.87759-1.48015 15.80616-6.46082 20.50576-4.6286 4.36666-10.4522 4.22905-15.07193 1.30443-4.86397-3.07902-8.33592-9.41062-6.0437-16.74139zm59.32506-37.571633c-7.35705-1.066906-12.20763-5.590115-13.18601-11.04872-.96453-5.3813 2.03299-11.7192 10.0829-14.848125 16.13463-6.270789 32.9422 14.559243 41.49199 15.558333-4.33109 1.85336-7.73609 8.815728-11.22066 15.782082-3.49116 6.979523-7.06702 13.924243-13.23591 16.426983-5.73779 2.32725-11.03059.14043-14.27059-4.217023-3.4055-4.57971-4.41007-11.687185.33828-17.65353zm68.95949-11.702075c-6.28997-4.041248-8.9597-10.215375-7.59083-15.65175 1.34917-5.358138 6.83691-9.897504 15.63923-9.302478 8.91959.603235 15.36565 7.630184 19.99619 14.83072 4.64744 7.226802 7.52781 14.684626 11.1836 16.935706-4.69691-.146781-10.73247 4.70559-16.8428 9.552883-6.11034 4.847294-12.17302 9.677689-18.84356 9.439766-6.08473-.217576-9.9472-4.336378-11.11979-9.69073-1.23099-5.620084.72151-12.618283 7.57796-16.114117zm67.46623 18.125121c-4.12518-6.197383-3.98822-12.82541-.57723-17.196426 3.36597-4.313327 10.10089-6.334336 17.80349-2.498361 7.82109 3.895295 10.98049 12.742066 12.50138 21.177334 1.52355 8.45 1.4197 16.50801 4.00656 19.97799-4.34573-1.88604-11.81071.3852-19.38909 2.51487-7.60135 2.13612-15.25204 4.09689-21.3113 1.09773-5.61678-2.78076-7.50032-8.22858-6.41668-13.545318 1.14067-5.597517 5.75686-11.07663 13.38287-11.527819zm56.1607 42.366897c-1.67346-7.30736.8623-13.48478 5.63596-16.37451 4.71362-2.85338 11.7247-2.3529 17.53978 3.96344 5.90441 6.41378 5.72489 15.84565 4.1825 24.28967-1.5457 8.46217-4.45569 15.96292-3.25395 20.10751-3.43947-3.32098-11.16089-3.76114-19.03551-4.40966-7.87759-.64876-15.80616-1.48016-20.50576-6.46083-4.36665-4.62861-4.22904-10.45221-1.30441-15.07194 3.07902-4.86397 9.41063-8.33591 16.74139-6.04368zm37.57158 59.32509c1.06691-7.35705 5.59013-12.20763 11.04873-13.186 5.3813-.96453 11.7192 2.033 14.84812 10.08291 6.27077 16.13464-14.55927 32.94219-15.55837 41.49198-1.85336-4.3311-8.81572-7.7361-15.78207-11.22068-6.97952-3.49117-13.92424-7.06703-16.42697-13.23592-2.32725-5.73779-.14042-11.03059 4.21703-14.27059 4.57972-3.4055 11.68719-4.41006 17.65353.3383z" fill="#ff8066" transform="matrix(1.0999859 0 0 1.0999859 -24.996459 -24.971446)"/><path d="m243.80738.0000099-1.09063.13584948c-35.41888 4.43106672-59.82155 40.59951962-59.82155 83.12258762 0 19.651093 5.56822 37.454143 14.70426 51.727993-12.74716 4.77236-23.43398 13.577-31.2798 24.4701-10.28356 13.93803-17.05408 31.13111-21.63257 50.58571-8.45581 34.61437-10.18679 74.72587-10.18679 110.10495v17.63363h43.95014l11.21618 153.86376 12.68374 2.91979c32.65474 7.51917 67.06561 6.96141 98.20952.0287l12.88655-2.86814 10.26141-153.94412h41.79186v-17.63362c0-35.13738-.29108-75.84863-8.04956-111.24149-4.17548-19.1552-10.62048-36.63706-20.73902-50.70434l-.065-.0899-.067-.0899c-8.268-11.19208-20.02936-19.7734-33.96233-24.18118 8.84907-14.18304 14.00013-31.64064 14.00013-50.581893-.00006-45.076231-28.42922-83.2584969-66.91065-83.2584969z" fill="#861313"/><path d="m244.90603 17.632878c-23.41353 2.929141-44.37799 30.026153-44.37799 65.626494 0 19.504748 6.66162 36.648568 16.45806 48.600248l11.9517 14.20487-18.31939 3.42876c-12.73539 2.44911-22.13999 9.30664-30.07515 20.37664-8.32699 11.26593-14.49874 26.35248-18.71123 44.28-7.83718 32.03443-9.69847 71.22027-9.69847 105.99771h42.71256l11.46184 157.23323c29.78126 6.85751 61.81566 6.36769 90.42136 0l10.4822-157.23323h40.65533c0-34.97337-.48986-74.84496-7.64124-107.46718-3.82064-17.53566-9.79649-33.01407-17.82958-44.18204-8.03308-10.87407-18.12345-17.4377-32.62223-19.69088l-18.51529-2.93894 11.65778-14.59673c9.69852-11.85372 16.06621-28.99753 16.06621-48.012458 0-37.755561-23.51151-65.626494-49.27619-65.626494z" fill="#ff8066" stroke-width="36"/></svg>