<svg height="500.00003" viewBox="0 0 500 500.00003" width="500" xmlns="http://www.w3.org/2000/svg"><g transform="translate(-500)"><path d="m926.7767 73.223311c45.24113 45.241099 73.2233 107.741109 73.2233 176.776699 0 69.0356-27.98221 131.53559-73.2233 176.77669-45.2411 45.2411-107.74109 73.22332-176.77669 73.22332-69.03559 0-131.5356-27.98219-176.7767-73.22332-45.2411-45.2411-73.22331-107.74109-73.22331-176.77669 0-69.03559 27.9822-131.5356 73.22331-176.776699 45.2411-45.241105 107.74111-73.22330934 176.7767-73.22330934 69.0356 0 131.53559 27.98220534 176.77669 73.22330934z" fill="#3b2f4f"/><g transform="translate(500)"><path d="m230.6486 0c-128.19182 22.346591-234.17086 139.43202-223.06447 273.24395 5.6201 44.55936 16.72649 83.63245 44.55937 122.70552l50.17947 50.17947c33.45298 22.34661 72.52606 44.55938 111.46533 50.17946 39.07308 5.62012 78.01235 5.62012 111.46534-5.62008 39.07308-16.72649 72.52607-33.45297 100.35893-61.28587 33.45297-39.07306 55.79958-83.63245 66.90595-139.43201v-61.28587c-5.62008-27.83287-11.10637-50.17947-22.34657-78.01235-11.10641-22.34659-27.8329-44.55937-50.17947-61.285858-27.83289-27.832879-61.28586-44.559368-100.35895-55.799569-27.83288-5.620101-55.79957-11.10639-89.25255-5.620101-78.01235 11.106391-139.43202 61.28586-172.885 128.191818-11.10639 27.83288-16.72649 61.28586-22.34659 89.25255 0 33.45298 5.6201 66.90596 16.72649 94.73885 22.34659 44.55936 55.79957 89.25254 105.97904 111.46532 16.72649 5.62012 33.45298 11.1064 55.79957 16.72648 122.70553 22.34661 234.17085-55.79954 250.89734-178.37127 11.10641-78.01236-22.34657-139.43203-72.52604-189.6115-100.35895-89.25255-267.62385-44.559369-312.18322 78.01235-5.6201 27.83288-16.72649 55.79958-16.72649 83.63245 5.6201 78.01235 55.79957 150.53843 133.81192 172.885 61.28586 16.72649 122.70553 5.62012 172.885-33.45298 11.10639-11.10637 22.34659-22.34657 33.45299-33.45297 61.28584-83.63246 44.55935-195.09778-44.55937-256.51746-27.83288-16.726488-55.79958-22.346588-89.25256-27.832879-22.34659-5.620101-44.55937 5.620101-66.90596 11.106391-27.83288 16.726488-50.17947 22.346588-72.52606 50.179468-27.83288 33.45298-33.45298 66.90596-39.07308 105.97904 0 55.79958 27.83288 117.08544 83.63245 144.91833 78.01235 44.55934 183.99139 11.10637 223.06447-72.52607 22.3466-55.79958 11.1064-128.19183-39.07308-172.88501-33.45298-27.83288-66.90596-39.07308-111.46533-39.07308-66.90596 5.6201-111.46533 55.79957-122.70553 122.70553-11.10639 72.52606 33.45298 139.43202 105.97904 150.53843 100.35894 16.72649 183.99138-89.25257 139.43202-178.37131-11.10638-16.72649-27.83288-39.07308-50.17947-50.17947-27.83288-11.10639-55.79957-16.72649-83.63245-11.10639-33.45298 5.6201-55.79957 27.83288-72.52606 50.17947-16.72649 27.83288-16.72649 55.79957-11.10639 83.63245 11.10639 33.45298 39.07308 61.28586 72.52606 72.52607 44.55937 16.72649 89.25255-5.62011 111.46533-39.07309 33.45298-55.79957 5.6201-117.08543-50.17947-139.43202-50.17947-16.72649-122.70553 27.83288-105.97904 89.25255 5.6201 16.72649 11.10639 39.07309 27.83288 50.17947 22.34659 16.7265 50.17947 16.7265 72.52606 11.1064 22.34659-11.1064 39.07308-33.45299 39.07308-61.28587-5.6201-16.72649-5.6201-39.07308-22.34659-50.17947-13.91644-8.36324-29.2379-11.13984-43.17107-8.34651-13.93317 2.79332-26.47803 11.15656-34.84128 25.073-5.6201 16.72649-11.10639 33.45298 9.50065 44.827 41.74932-49.10898 35.32635.40143 29.84006-16.45887v5.6201c16.72649-5.6201 22.34659-22.34659 27.83288-33.45298 5.6201 5.6201 16.72649 11.10639 16.72649 22.34659 11.10639 39.07308-27.83288 72.52606-66.90596 61.28586-33.45298-11.10639-44.55937-50.17947-39.07309-83.63245 5.62011-22.34659 22.3466-39.07308 50.17948-44.55937 33.45298-5.6201 66.90596 11.10639 83.63245 39.07308 16.72649 27.83288 16.72649 50.17947 0 78.01235-33.45298 55.79958-105.97905 55.79958-150.53841 11.10639-33.45298-44.55937-22.3466-117.08543 27.83288-144.91831 16.72648-11.10639 39.07308-16.72649 61.28586-16.72649 11.10638 0 27.83288 5.6201 39.07308 11.10639 27.83288 11.10639 39.07308 39.07308 55.79957 61.28586 5.6201 16.72649 5.6201 27.83288 5.6201 44.55937-5.6201 72.52606-72.52606 122.70554-144.91831 105.97904-83.63246-22.34659-122.70554-122.70553-72.52606-195.09778 11.10638-16.72649 22.34659-27.83288 39.07308-39.07308 78.01235-44.559372 167.2649-5.6201 200.71788 66.90596 39.07309 94.73884-39.07308 206.33797-139.43202 200.71788-27.83288-5.62012-55.79958-5.62012-78.01235-22.3466-22.34659-11.10638-27.83288-27.83287-39.07309-39.07307-66.90596-78.01235-33.45298-195.09778 55.79958-239.79097 39.07308-16.726484 83.63245-16.726484 128.19182-5.6201 94.73883 33.45298 139.43201 144.91832 94.73883 234.17087-11.10637 27.83288-33.45297 44.55935-55.79956 66.90596-22.34659 16.72649-50.17947 27.83289-78.01235 33.45298-44.55937 5.62012-89.25256-5.62009-128.19182-27.83286-94.73884-66.90598-117.08544-211.82429-22.3466-289.97045 16.7265-11.1064 27.83288-33.452984 50.17948-39.073085 33.45298-11.106392 66.90596-22.346593 105.97904-16.726492 27.83288 5.6201 55.79957 16.726492 78.01235 27.832879 16.72649 16.726488 39.07309 22.346598 50.17946 44.559368 11.10641 16.72649 27.8329 33.45298 33.45298 55.79957 22.34661 66.90596 16.72649 139.43203-27.83286 195.09781-16.72649 22.34657-33.45298 44.55934-61.28587 55.79954-22.34659 5.62012-39.07308 22.34661-61.28586 22.34661-39.07308 0-83.63245 5.62008-122.70553-11.10641-117.08543-44.55934-167.26491-195.09777-105.97905-306.69691 16.7265-33.45298 44.55937-61.285864 78.01236-83.632457 44.55936-22.34659 89.25255-33.452979 139.43202-27.832879 61.28586 5.6201 111.46532 39.07308 156.1585 83.632456 22.34661 22.34659 27.8329 50.17947 39.0731 78.01234 11.10637 16.7265 5.62008 39.07309 11.10637 61.28586 11.10645 172.88502-195.09777 301.07685-351.25629 211.82429-27.83287-16.72649-50.17946-27.8329-66.90596-50.17947-61.28586-72.52608-78.01235-167.26492-50.17947-256.51747 16.72649-33.45298 39.07309-61.28586 61.28587-89.252546 39.07308-39.073083 94.73884-55.799574 144.9183-72.526064" fill="#221b35" opacity=".9"/><path d="m231.45148 15.388371c-120.56454 21.008472-220.12061 131.001869-209.68329 256.785079 5.21867 41.88313 15.78981 78.68141 41.88314 115.34586 15.7898 15.65602 31.4458 31.44582 47.23561 47.1018 31.4458 21.0085 68.11026 41.88314 104.77473 47.23563 36.66447 5.21866 73.32893 5.21866 104.77473-5.21866 36.66447-15.65601 68.11026-31.44582 94.33742-57.67295 31.44579-36.66448 52.45425-78.68141 62.89161-131.00187v-57.67294c-5.2187-26.22714-10.43736-47.23561-21.00851-73.32894-10.43731-21.00847-26.22712-41.88313-47.10179-57.672935-26.22713-26.227136-57.67292-41.88313-94.33739-52.454272-26.22714-5.218666-52.45427-10.43733-83.90008-5.218666-73.32893 10.437332-131.00187 57.672938-162.44767 120.564543-10.43733 26.22713-15.78981 57.67294-21.00847 83.90008 0 31.44579 5.21866 62.8916 15.78981 89.11874 21.00847 41.88313 52.45427 83.90006 99.55607 104.77473 15.7898 5.21866 31.4458 10.43732 52.45427 15.65601 115.34588 21.00847 220.12062-52.45428 235.91043-167.66635 10.43732-73.32894-21.00847-131.00188-68.11026-178.23748-94.33742-83.900079-251.56643-41.883137-293.44956 73.32893-5.21867 26.22713-15.78981 52.45427-15.78981 78.68141 5.21866 73.32893 52.45427 141.573 125.78321 162.44767 57.67293 15.78981 115.34587 5.21866 162.44767-31.44578 10.43733-10.43736 21.00849-21.00849 31.4458-31.44582 57.67295-78.68141 41.88314-183.45615-41.88313-241.12909-26.22714-15.7898-52.45428-21.008465-83.90008-26.227131-21.00847-5.218666-41.88313 5.218666-62.8916 10.437331-26.22714 15.7898-47.23561 21.00847-68.11027 47.1018-26.22713 31.4458-31.4458 62.8916-36.66447 99.55606 0 52.45428 26.22714 110.12722 78.68142 136.22052 73.32893 41.88314 173.01881 10.43736 209.68327-68.11025 21.00847-52.45427 10.43736-120.56454-36.66446-162.44767-31.4458-26.22714-62.8916-36.66447-104.77473-36.66447-62.89161 5.21867-104.77474 52.45428-115.34588 115.34588-10.43733 68.11027 31.4458 131.00187 99.55607 141.57302 94.3374 15.65599 173.01881-83.90008 131.00187-167.66635-10.43733-15.7898-26.22714-36.66446-47.1018-47.2356-26.22713-10.43733-52.45427-15.656-78.68141-10.43733-31.4458 5.21866-52.45427 26.22713-68.11027 47.23561-15.7898 26.22713-15.7898 52.45427-10.43732 78.6814 10.43732 31.44581 36.66446 57.67295 68.11026 68.11027 41.88314 15.78981 83.90008-5.21866 104.77474-36.66446 31.4458-52.45428 5.21866-110.12721-47.1018-131.00187-47.23561-15.78981-115.34588 26.22713-99.55607 83.90007 5.21867 15.65599 10.43733 36.66447 26.22714 47.23561 21.00847 15.78981 47.10179 15.78981 68.11027 10.43733 21.00847-10.43733 36.66446-31.4458 36.66446-57.67294-5.21866-15.7898-5.21866-36.66447-21.00847-47.23561-13.11356-7.8949-27.5318-10.50423-40.62864-7.86145-13.09684 2.64279-24.87229 10.53769-32.70029 23.65126-5.21867 15.656-10.43733 31.4458 8.9654 42.15076 39.20689-46.70036 33.05154-.26763 27.96669-16.05744v5.21867c15.78981-5.21867 21.00847-21.00847 26.22714-31.4458 5.21866 5.21866 15.65599 10.43733 15.65599 21.00847 10.43733 36.66447-26.22714 68.11027-62.8916 57.67294-31.4458-10.43733-41.88313-47.23561-36.66447-78.68141 5.21867-21.00848 21.00847-36.66447 47.1018-41.88314 31.4458-5.21866 62.8916 10.43734 78.68141 36.66447 15.65599 26.22714 15.65599 47.23561 0 73.32893-31.4458 52.45428-99.55607 52.45428-141.57302 10.43734-31.4458-41.88313-21.00847-110.12722 26.22714-136.22054 15.78981-10.43733 36.66447-15.656 57.67294-15.656 10.43733 0 26.22714 5.21867 36.66447 10.43733 26.22713 10.43733 36.66446 36.66447 52.45427 57.67294 5.21866 15.78981 5.21866 26.22714 5.21866 41.88314-5.21866 68.11026-68.11026 115.34586-136.22053 99.55606-78.68141-21.00847-115.34588-115.34587-68.11027-183.45614 10.43733-15.656 21.00847-26.22714 36.66447-36.66447 73.32893-41.88313 157.22901-5.21866 188.67481 62.8916 36.66448 89.11874-36.66447 193.89349-131.00188 188.67483-26.22713-5.21866-52.45427-5.21866-73.32893-21.00848-21.00847-10.43734-26.22713-26.22714-36.66447-36.66447-62.8916-73.32893-31.4458-183.45615 52.45428-225.33928 36.66446-15.789805 78.68141-15.789805 120.56454-5.21866 89.11872 31.4458 131.00186 136.22053 89.11872 220.12061-10.43731 26.22714-31.44578 41.88313-52.45425 62.89162-21.00847 15.78977-47.23561 26.22712-73.32894 31.44578-41.88313 5.21866-83.90007-5.21866-120.56454-26.22712-89.11874-62.89162-110.12721-199.11215-21.00847-272.5749 15.656-10.43733 26.22714-31.445801 47.1018-36.664467 31.4458-10.437328 62.8916-21.00847 99.55607-15.655994 26.22713 5.218666 52.45427 15.655994 73.32893 26.227136 15.65599 15.789805 36.66446 21.008475 47.10181 41.883135 10.43732 15.7898 26.22713 31.4458 31.44578 52.45427 21.00847 62.8916 15.78981 131.00187-26.22712 183.45615-15.78981 21.00846-31.44582 41.88313-57.67295 52.45428-21.00847 5.21866-36.66446 21.00847-57.67294 21.00847-36.66446 0-78.68141 5.21866-115.34587-10.43735-110.12721-41.8831-157.22901-183.45614-99.55607-288.23087 15.7898-31.4458 41.88313-57.672937 73.32893-78.681407 41.88313-21.008474 83.90008-31.445802 131.00187-26.22714 57.67294 5.218666 104.77473 36.664468 146.79166 78.681417 21.00851 21.00847 26.22717 47.10179 36.66448 73.32893 10.43732 15.78981 5.21866 36.66446 10.43732 57.67293 10.43735 162.44767-183.45613 283.01222-330.24781 199.11215-26.22713-15.65601-47.23561-26.22713-62.8916-47.23563-57.67294-68.11025-73.32893-157.22899-47.23561-241.12907 15.78981-31.4458 36.66447-57.67293 57.67294-83.900069 36.66447-36.664468 89.11874-52.454275 136.22054-68.11027" opacity=".9"/></g></g><path d="m202.14626 24.751953c59.55041 1.335553 112.37382 49.440488 115.19727 115.095707l.40625 9.46289c17.27338-14.39409 28.11663-31.26193 51.74219-65.800784l.0176-.02539.0156-.02344c9.56184-13.880807 22.48676-22.089086 34.9043-24.26367 1.94008-.356038 3.45028-.486817 4.35937-.572266l.29102-.0293.29296-.01758c11.10072-.679326 21.71431 2.888404 30.01954 9.212896l.006.0039.006.0039c9.54231 7.277649 16.26043 18.318812 17.5664 31.06836 1.3234 12.582854-3.26788 27.156474-14.12109 39.630864-.004.005-.007.0106-.0117.0156-20.55405 23.74936-43.54897 47.18711-59.52539 68.89453l-.004.006-.004.006c-4.44423 6.02815-8.35294 11.93364-11.55079 17.58203l58.48243-21.57617-1.65039 3.52539c.55941-1.19319 1.11572-2.34607 1.67578-3.53515l3.81055-1.40625-3.76172 1.30078c4.1493-8.80844 8.31493-17.54852 12.41026-26.19166l10.8711-22.94141 18.05273 17.85157c21.20019 20.96469 26.77018 48.5583 27.53711 75.37304l.81836 28.59571-51.24609-22.82227-74.79298 27.52734c2.74402 3.17068 5.73402 6.18024 9.18165 8.89649l.0137.0117.0137.0117c9.47938 7.49869 21.2118 13.80379 33.6543 22.04687l.002.002.002.002c24.15241 16.01233 50.04855 41.67796 53.04688 93.0664v.004.002c1.09742 18.89356-5.58314 35.49787-16.39649 46.29688-10.80719 10.79286-24.79538 16.05929-38.45117 16.48242-13.66251.46841-28.11965-4.54789-37.25391-16.08594l-.0332-.041-.0312-.041c-8.86983-11.34039-12.30453-28.92202-7.38476-49.66601l-.0273.11718c1.48282-6.44242-2.56814-14.35136-11.01953-20.95898-8.51784-6.58141-19.25641-9.64144-28.21094-6.7207l-.043.0137-.043.0137c-.99733.31977-2.75046 2.17867-3.92383 6.41406-1.49494 5.39613-2.21268 13.13892-3.33203 22.47461-2.1293 18.50578-5.45093 41.877-24.41407 58.42774l-.0273.0234-.0254.0234c-30.46443 26.37934-65.97427 29.30386-88.68945 13.34375-10.36504-7.28266-17.80716-21.74856-16.61328-35.42383v-.0176l.002-.0156c1.32325-14.82802 9.92498-29.70317 26.43945-44.81055 9.68513-8.87011 11.91489-25.90941 8.63867-45.72851-.74508-4.38482-1.84123-8.77146-3.05273-13.09571l-83.54492 30.7461-1.18555.26367c-17.67039 3.91571-34.9161 6.71316-51.384758 10.18555l-69.67197 7.14812 57.18564-40.4782 45.472648-25.38086 1.13672-.44531c24.33838-9.53996 46.6908-17.93291 67.85938-25.83789-9.76285-1.62483-22.51188-2.63502-36.59375-4.85157l-.008-.002h-.006c-28.18229-4.45988-62.183328-14.40344-84.562718-46.36914l-.0156-.0215-.0137-.0215c-10.75675-15.45776-15.55993-30.28317-14.64258-43.88281.79232-12.96878 7.90011-25.01794 17.42773-31.5293l.0449-.0293.043-.0293c6.14077-4.14372 13.34177-6.33719 20.96094-6.96094l-4.1914-13.69922c-.83221-2.7198-1.44735-5.4445-1.94532-8.16797-.0303.0286-.0556.0495-.0859.0781l-37.40625 35.29883 7.11718-50.12305-27.84179 17.66992 16.00586-48.007811c5.98015-17.936192 20.32379-32.387747 39.01564-42.502043 17.002378-9.200112 38.378928-14.214441 60.820308-10.402344 13.96652-6.588648 28.72152-11.879765 44.03516-13.289063l.0762-.0078.0742-.0059c4.01701-.335345 8.01826-.454272 11.98828-.365235zm-71.23633 107.929687c-2.37592 4.2064-4.67163 8.7036-6.9082 13.82813l-6.53906 14.98046c10.49631 3.79277 20.94158 10.59212 30.17969 20.81836 4.51905 4.92559 12.04612 8.72991 21.76562 11.12305-16.56671-17.00129-30.39045-37.62792-38.49805-60.75z"/><path d="m191.65639 43.055233c54.17451-4.52256 105.11084 37.289243 107.703 97.566187l-13.85251-10.81111-10.32401 13.26434 23.22944 18.24623c-1.19646 8.42896-3.27212 17.12134-6.4062 26.09401 46.10802-24.94431 56.65804-41.57457 92.34266-93.74291 7.47705-10.854344 15.6495-15.464362 23.2739-16.768586.95035-.179723 1.90913-.269842 2.84998-.358276 6.61514-.40483 12.93239 1.695211 18.01489 5.565569 5.80369 4.426309 9.82082 11.099667 10.58205 18.621433.79708 7.51841-1.49471 16.4119-9.8085 25.96183-20.00983 23.12401-43.29133 46.73634-60.44546 70.04393-9.38047 12.72367-17.21238 25.57298-21.3368 38.43539-13.98308 5.11098-27.95772 10.31157-41.9408 15.42255l-.92296 4.60658c-2.65705 13.08608.51935 28.60694 14.78924 40.01159l3.80622 2.98692c10.65388-3.98449 21.40578-7.88779 32.14927-11.8807 4.71443 6.879 10.49267 12.57326 16.64312 17.41896 11.13301 8.8068 23.40796 15.33676 34.8795 22.93659 22.80921 15.12184 42.30069 32.45387 45.02314 79.11386 1.68152 28.94968-18.92018 43.18006-37.45247 43.74682-9.27986.32987-17.43766-2.79041-22.56643-9.26888-5.13719-6.56808-8.1276-17.225-4.04903-34.42215 3.53018-15.33766-5.42002-29.77344-17.51645-39.21287-12.18604-9.431-28.87386-14.82299-44.83667-9.61633-8.77521 2.81354-13.61483 10.95216-15.77472 18.74849-2.15989 7.79634-2.80187 16.35397-3.86661 25.22253-2.03988 17.72869-5.25305 35.47727-18.36932 46.92495-25.4123 22.00467-53.39504 21.47099-66.55831 12.22224-6.58164-4.62438-9.76975-10.65249-9.02974-19.12894.74844-8.38684 6.34327-20.03151 20.66044-33.1288 16.39727-15.01035 18.00153-39.29706 14.24095-61.99474-3.85018-22.68927-13.16627-44.86477-23.90015-59.0425-6.49577-8.5195-16.65553-10.81883-27.75883-12.57749-11.02212-1.85668-23.76896-2.82808-37.07332-4.92224-26.51911-4.19672-54.04446-12.36672-72.630338-38.91393-9.09267-13.06644-12.03559-24.17981-11.45794-32.4602.48804-8.27197 4.10454-14.0357 9.62566-17.80893 11.05067-7.45686 31.724868-6.7786 50.693038 14.21848 13.80875 15.15426 37.63433 20.50813 64.41547 19.79881 8.11499-.22038 16.62747-1.0205 25.1706-2.45627-2.27686-1.14194-4.65174-2.36507-7.03504-3.6778l-2.71737-27.94835-16.66654 1.56655 1.33915 14.2472c-30.72702-23.95967-55.63858-62.02546-57.67357-102.910445-15.21795 12.169515-25.13418 26.887075-33.61331 46.314815-4.43626-14.49847-2.56394-29.20121 3.21614-43.683667-13.951718 7.367947-24.185988 17.740207-34.814038 27.769807 2.61068-18.38801 10.38163-30.924236 22.79168-41.229806-14.85118 2.607232-22.94559 6.893526-35.48586 14.851982 7.75688-23.264991 45.221358-49.765253 85.116268-39.829062 14.41323-7.266695 29.52579-12.863507 43.32749-14.133661zm35.58003 45.777266c-9.85656.926453-16.99474 9.615584-16.07334 19.418381.92477 9.83863 9.5596 17.07232 19.41615 16.14586 9.76695-.91803 16.99222-9.64246 16.06745-19.4811-.9214-9.80279-9.64331-17.001173-19.41026-16.083141zm-37.26652 33.415081c-9.76695.91803-16.99221 9.64247-16.07418 19.40942.92645 9.85655 9.64247 16.99221 19.40942 16.07418 9.85655-.92645 17.00063-9.55286 16.07418-19.40942-3.01264-9.93165-7.46668-16.92553-19.40942-16.07418zm75.20153 29.72299-12.48904 11.38872 21.15004 23.05191 12.39943-11.38029c-7.04721-7.65411-14.10283-15.39782-21.06043-23.06034zm-23.76408 17.42032-15.46962 6.60665 11.71156 27.46455 15.46962-6.60666c-3.84131-9.1306-7.87025-18.33395-11.71156-27.46454zm217.58036 15.43631c16.86248 16.67517 21.48973 38.20663 22.2014 63.08923l-28.66223-12.76377-3.11753-1.33411-3.20375 1.1147-119.73745 44.06856c-5.47573-5.3611-6.55777-10.14082-6.01311-15.88701l119.67527-44.15311 3.23062-1.11722 1.4604-3.12036c4.6986-10.02369 9.45937-19.96283 14.16638-29.89691zm-245.5195 118.17459c2.67809 4.44891 5.33395 9.62308 7.68192 15.36856l-83.79198 30.83668c-17.00203 3.7676-34.18631 6.55797-51.205188 10.14636l44.405518-24.78428c29.72994-11.6533 58.62278-22.59514 82.90973-31.56732z" fill="#775fa0"/></svg>