<svg height="500" viewBox="0 0 500 500" width="500" xmlns="http://www.w3.org/2000/svg" xmlns:xlink="http://www.w3.org/1999/xlink"><filter id="a" color-interpolation-filters="sRGB" height="1.096" width="1.096" x="-.048" y="-.048"><feGaussianBlur stdDeviation="12"/></filter><filter id="b" color-interpolation-filters="sRGB" height="1.0375" width="1.0375" x="-.01875" y="-.01875"><feGaussianBlur stdDeviation="4.6875"/></filter><g transform="translate(.000015)"><circle cx="-249.99998" cy="250" fill="#e51a1a" r="250" transform="scale(-1 1)"/><path d="m181.33938 83.856939c97.52275-31.84694 203.27597 26.159281 217.12696 131.568651 10.04116 85.89723-45.79566 162.6049-131.11288 174.6444-76.26503 6.65-147.16573-45.4981-149.44603-126.3231.16679-50.89801 30.03241-87.97493 76.60677-108.40662 44.00125-16.48183 90.46555-3.00917 112.28155 39.63622 17.95322 40.0953 3.57775 87.31302-40.4313 103.80676-21.98685 8.23292-51.6578-5.55285-56.72562-31.5612 24.48155 21.7253 69.7211 11.74379 80.1808-21.06198 5.24648-24.88185-11.48198-41.52298-24.36368-55.64156-23.21161-15.22125-63.26956-13.16738-85.32502 12.05139-41.51846 46.43224-18.48961 112.52397 35.72777 131.08081 60.66482 17.11352 118.96473-29.63961 126.96137-92.39988 2.7637-54.83226-40.99398-106.19486-96.51046-114.27807-76.21988-10.3001-138.45939 50.84936-147.743191 124.09106-9.31956 73.21828 47.315731 138.67973 111.863041 158.33924 49.05305 9.49897 98.18701 2.07129 139.64056-27.40671 82.90715-58.95602 100.11901-177.97214 43.55644-260.39974-52.71171-79.885311-158.575-103.987181-249.15842-67.061741-86.705021 39.45169-149.0660905 134.549061-117.102931 229.167621 15.77888-74.65377 50.93986-153.5943 123.407351-187.514491 9.28724-4.60517 19.44718-8.7232 30.56692-12.33106zm-160.722321 286.075591c-52.57825-113.8254-.38403-260.89182 113.777041-317.643861 10.84604-5.32012 22.21219-9.7712 34.03518-13.36069 115.76394-28.75816 246.03978 34.00351 263.68455 158.897471 10.04526 85.91695-27.72044 168.80365-107.97396 206.83173-102.24035 46.26108-224.798841-11.43986-234.690511-131.24969-7.33455-123.78718 127.307171-194.136761 222.718561-137.24102-42.54074-27.89653-94.21826-33.44528-140.80825-12.98978-71.17376 32.62266-105.080851 118.0397-80.762351 190.63139 30.697281 88.13423 123.572931 132.04164 212.817841 105.59803 82.80488-25.06359 132.16266-100.33164 140.19255-180.04986 12.12434-145.020371-132.23823-245.3588802-265.59709-221.973611 7.92036-4.10499 20.5989-8.4277792 35.61563-11.7452592 60.06317-13.23825 124.63426-3.45807 179.45368 32.4903392 109.65077 71.904621 141.09454 217.803071 65.16008 333.599141-143.00482 218.07486-377.311781 117.06797-437.622951-1.79433" fill="#b21a1a"/></g><path d="m250 0a250 249.99998 0 0 0 -47.41406 5.1191406l45.85937 109.1171894c-18.18363 8.31062-35.62486 18.74144-51.95312 31.29883l-81.07813-106.16016a250 249.99998 0 0 0 -73.124998 71.98828l106.494138 81.33203c-12.87404 16.33552-23.59838 33.82573-32.16015 52.08399l-110.5390656-46.62696a250 249.99998 0 0 0 -6.0839844 51.84766 250 249.99998 0 0 0 .71289062 9.97852c-.74471845 12.33815-.48097771 24.71271.65234378 37.01367l94.5058596 12.01953c-3.769944 19.92165-5.281345 40.18662-4.548828 60.38672l-66.154297 8.61914c14.31841 24.77541 36.015615 48.37327 62.71289 68.14062l15.376951-6.40625c2.30719 7.45012 5.06051 14.78201 8.02735 22.04688 11.0838 6.57836 22.80879 12.41587 34.98242 17.5039-8.74089-15.63689-15.73625-31.98471-20.79688-48.80468l105.00586-43.75391c2.27021 9.36743 5.06668 19.32104 9.37305 28.11719l-87.48633 66.90234c22.21249 8.66932 45.87265 14.55168 70.26172 16.84766l39.41992-51.6836c1.03463 1.10741 1.87901 1.879 2.96094 2.96094 6.56624 6.56624 14.24602 12.83404 21.70312 17.75781l-12.49609 30.07227a250 249.99998 0 0 0 50.74805-10.56836l.22656-1.74414c1.05216.28728 2.09574.47795 3.14453.73437a250 249.99998 0 0 0 169.93945-213.93359l-24.10351 9.95899c-5.09575-7.90933-11.82211-15.76938-18.74414-22.69141-1.08283-1.08286-1.8517-1.92449-2.96094-2.96094l46.76953-35.74219c-1.43246-23.64015-6.31991-46.81552-14.58203-68.77539l-63.75977 83.79883c-9.18824-4.62041-18.78698-8.46853-28.60937-10.85156l41.52148-100.14063c16.67053 5.16926 32.85569 12.25461 48.33399 21.0586-5.027-12.29221-11.07594-24.17719-18.17774-35.51563-6.90536-2.84959-13.87107-5.51044-20.94726-7.76172l5.73633-13.835933c-15.33193-19.234895-33.95457-36.382307-55.66797-50.621094-3.75921-2.465142-7.60889-4.67398-11.45508-6.890625l-7.2832 58.945313c-20.65328-1.027341-41.39866.313511-61.80078 3.996093l-11.65235-91.1445309c-13.30615-2.0149296-26.70612-3.01845753-40.08203-2.7675781a250 249.99998 0 0 0 -10.80664-.265625zm107.40039 113.7793c4.6691-.0648 9.33961.003 14.00586.20312l-13.16211 106.51953c-10.05148.15751-19.2868 1.05737-29.10547 3.45313l-13.55469-106.01953c13.81585-2.57699 27.80913-3.96193 41.81641-4.15625zm-99.65625 22.57422 41.79297 99.4414c-7.82926 4.06204-16.11336 8.6011-23.18555 14.30469l-65.26953-85.46484c14.67942-11.31258 30.34296-20.74136 46.66211-28.28125zm-89.84766 70.9375 85.76368 65.50195c-5.48613 7.20229-9.48304 16.23785-13.32032 24.16992l-101.58398-42.84961c7.79103-16.40284 17.50685-32.12194 29.14062-46.82226zm-48.24218 104.74609 110.33008 14.03125c-1.87451 8.51718-2.75425 16.96655-2.95899 25.64844h-.002l-111.88867 14.57812c-.49684-18.16088 1.0071-36.36808 4.51953-54.25781z" fill="#ff8066" opacity=".75"/><g transform="matrix(-1 0 0 1 499.999 -180.99552)"><path d="m61.470703 330.47363s-6.334005 2.36954-11.082031 5.36035c-4.748026 2.99082-11.559442 6.31865-15.566406 17.54883-5.985663 16.77614-3.453709 32.26631-1.529297 43.85352 3.072995 18.50294 8.955081 27.03431 9.34375 33.4375.822577 13.55171-8.068933 32.49172-8.548828 57.69336-.432545 22.71494 1.873046 64.20703 1.873046 64.20703l.914063 17.03515 114.64453.002.91406-17.03516s2.30559-41.49209 1.87305-64.20703c-.4799-25.20163-4.56191-38.43136-3.87149-57.69336.40312-11.24663 1.59342-14.93455 4.66641-33.4375 1.92441-11.5872 4.45635-27.07739-1.52929-43.85351-4.00697-11.23019-10.81838-14.55802-15.56641-17.54883s-11.08203-5.36231-11.08203-5.36231-19.51837-3.8483-32.726555-3.84866c-13.208185-.00035-32.726572 3.84862-32.726572 3.84862z" fill="#861313"/><path d="m134.45972 551.61173s2.24936-41.92823 1.85001-62.90024c-.37609-19.75011-4.55587-39.38888-3.84092-59.12621.42996-11.86963 2.45654-20.72648 4.87643-35.29699 1.49135-8.97969 2.3324-26.28196-.72652-34.85527-2.3551-6.60056-14.64614-11.78423-14.64614-11.78423s-18.46225-3.02338-27.775425-3.02361c-9.313123-.00024-27.77543 3.02222-27.77543 3.02222s-12.291035 5.18367-14.646135 11.78423c-3.058925 8.57331-2.217871 25.87558-.726518 34.85527 2.419891 14.57051 8.815258 23.13036 9.553764 35.29699 1.206435 19.87564-8.142168 39.3761-8.518254 59.12621-.399355 20.97201 1.850007 62.90024 1.850007 62.90024z" fill="#ff8066" stroke-width="36"/><path d="m61.255859 330.4043c-6.911934 2.09287-14.429946 5.44124-21.125 11.85351-10.136213 9.7081-15.796118 21.1657-20.625 33.28907-.0033.008-.0064.0151-.0098.0234-.0026.007-.0052.013-.0078.0195-7.293842 18.18452-12.2462458 30.97125-18.0292746 56.12702l-.00195.01-.00391.01c-1.68653984 7.37401-2.19777403 14.50514.058594 21.09375 5.3435046 13.83437 18.9062806 26.47909 29.3105476 32.52539l.02344.0117.02148.0137c11.321768 6.41453 27.163107 15.31288 44.705078 21.64258l17.394531 6.27734 5.804687-17.55859c2.913488-8.81407 4.788728-23.27571-2.986326-35.61767-6.953628-7.76255-15.018134-13.13088-22.378906-19.61914-2.934735-2.58691-5.787843-5.04262-8.615234-7.4668 2.806671-4.8092 8.414062-14.06836 8.414062-14.06836l-9.097656-22.26953z" fill="#861313"/><path d="m64.107662 396.7005 11.134118 4.37603 38.25731 5.54888-15.455229-55.57297c-.330929.10107-.653908.21351-.989787.30692-10.352992 2.87924-21.487457.89402-30.582448-3.7271-4.957682 1.50115-10.075311 3.97166-13.889647 7.62489-7.599294 7.27833-11.849171 15.63424-16.370325 26.99117-7.287185 18.16707-11.611744 29.14505-17.210811 53.50059-2.675916 11.69984.369944 12.40961 3.244723 17.65875 3.829819 6.99298 7.914937 10.84774 17.494569 16.31144 11.205928 6.3489 26.269096 14.71891 41.940837 20.37376 2.245103-6.79141 3.153201-13.58231-1.125207-20.37376-6.008831-3.07211-32.04635-28.36322-38.258164-31.38418 7.408102-18.86913 13.341437-21.37549 21.810061-41.63442z" fill="#ff8066" stroke-width="36"/><path d="m69.69128 246.89086c-27.97278 8.6414-38.679022 41.32859-29.502748 71.03278 9.188166 29.7427 36.469964 50.71167 64.442748 42.07027 27.97276-8.6414 38.67419-41.34422 29.48603-71.08691-9.17628-29.7042-36.453265-50.65752-64.42603-42.01614z" fill="#861313"/><path d="m75.00391 264.08957c-15.625534 4.82706-24.567867 26.02285-17.617796 48.52069 6.967545 22.55439 26.306592 35.01345 41.932131 30.18638 15.625455-4.82704 24.567785-26.02283 17.600245-48.57722-6.95007-22.49783-26.289127-34.95689-41.91458-30.12985z" fill="#ff8066" stroke-width="36"/><path d="m153.59375 264.97358c-46.03923 1.9658-69.222036 8.65824-99.119141 14.56741-14.985952 1.97525-20.088684 25.53727-16.863281 36.14257 8.781761 19.2116 10.609508 19.22065 23.636719 17.04883 18.356169-2.93322 37.603158-6.27734 56.197263-7.6289l-8.53711 18.4414 13.06446 4.10352s12.29138 5.1846 14.64648 11.78515c3.05892 8.57331 2.21791 25.87579.72656 34.85547-1.01262 6.09717 8.44714 12.6215 6.74805 17.31836 13.53542-6.99844 12.264-19.24732 19.65039-28.76367 10.79226-13.90434 16.09124-31.53939 20.4375-46.89453 4.32901-15.2942 6.72315-28.06436 6.74219-28.16702 3.68331-19.24351-9.40019-38.85499-37.33008-42.80859z" fill="#861313"/><path d="m94.376053 362.70924-7.446121 40.7954 21.625188-4.32121c19.26238-2.50199 30.89949-14.40056 40.9705-27.37566 14.60534-18.81696 23.71957-67.40869 23.71957-67.40869 1.41256-7.37728-4.01798-19.22806-17.46329-21.40547-1.92076-.31106-4.00501-.42465-6.25628-.29959-39.42956 2.13081-60.892646 8.44329-91.561625 14.50501-7.053156 14.28917-1.734567 14.19972.444676 17.75886 26.808939-4.28393 57.664709-10.53803 87.301949-8.06223 0 0-10.29982 29.20753-20.89249 39.80801-8.10359 8.10956-20.21285 17.60777-30.442077 16.00557z" fill="#ff8066" stroke-width="36"/></g><path d="m74.25015 46.99632c-17.442.729-27.5346 10.2213-27.2538 27.2547l17.7912 27.702c3.987-1.0917 8.424-3.4542 12.8232-6.6015l38.2266 53.9415c-15.3162 18.747-28.1322 39.996-38.439 63.7524l23.895 23.8968c10.1475-21.24 22.1706-40.3434 35.9262-57.4776l189.738 267.7275 150.1263 29.8917-29.8917-150.1272-267.795-189.7875c17.9163-14.4972 37.6578-26.919 59.0868-37.4202l-23.8977-23.895c-24.4854 10.6227-46.2978 23.9184-65.4615 39.8628l-53.7786-38.1141c3.0987-4.3407 5.4558-8.7615 6.6078-12.8178l-27.702-17.7885z" fill="#ff8066" opacity=".5" stroke-width="36"/><path d="m47.166016-50-97.166016 90.878906 92.289062 70.484374 106.494138 81.33203 19.11328 14.59571 85.76368 65.50195c-5.48613 7.20226-9.48304 16.23788-13.32032 24.16992l-101.58398-42.84961-22.13281-9.33398-110.5390656-46.62696-56.0839844-23.65625v115.96289l145.871094 18.55274 23.783206 3.02539 110.33008 14.03125c-1.87451 8.51715-2.75522 16.96658-2.96094 25.64844l-111.88867 14.57812-23.812504 3.10352-141.322266 17.83203v115.85351l153.25781-63.33203 22.21289-9.2539 105.00586-43.75391c2.54687 9.45393 5.40974 19.91458 9.37305 28.11719l-87.48633 66.90234-87.167968 66.59375h119.675778l36.79297-48.35742 40.12696-52.74023c7.27956 8.08896 15.50304 15.27571 24.49414 21.40625l-36.00391 79.6914.37305 1.64258h76.92578l18.38086-58.89453c10.38292 1.04971 20.85205.90319 31.20117-.43945l-2.68164 59.33398h51.80664l-15.55664-67.99219c9.3956-3.57481 17.76992-7.57031 26.18359-13.16992l41.74414 81.16211h71.3418v-5.7207l-16.10352-17.42774-73.18945-79.23437c5.97539-6.48784 12.21589-13.5806 16.91992-21.35352l72.37305 46.46094v-57.06836l-58.55273-18.39063c3.42913-8.39022 5.88161-17.41255 7.01171-27.18164l51.54102 2.64454v-45.99805l-50.41797 11.34765.41797-22.10351 50-6.54688v-58.5957l-73.55664 30.39453c-6.35299-9.54471-13.88664-18.24845-22.42188-25.90429l95.97852-73.32422v-115.890628l-65.34961 85.888668-62.41601 82.03321c-9.40306-4.52657-19.29556-7.95666-29.48243-10.22266l41.05078-99.00391 9.20899-22.21875 63.26172-152.58398h-114.60156l-10.04688 81.236328-7.2832 58.945313-2.93555 23.800779-13.16211 106.51953c-10.05145.15751-19.28683 1.05737-29.10547 3.45313l-13.55469-106.01953-3.04296-23.757816-11.65235-91.1445309-6.78125-53.0332031h-114.6914l23.16992 55.1191406 45.85937 109.1171894 9.29883 22.11719 41.79297 99.4414c-7.82923 4.06204-16.11336 8.60113-23.18555 14.30469l-65.26953-85.46484-14.58984-19.09961-81.07813-106.16016z" fill="#ff8066" filter="url(#a)" opacity=".5"/><path d="m73.875 28.99609-.37695.0156c-11.83305.49457-23.54958 4.21096-32.14453 12.66797-8.59495 8.457-12.55536 20.74174-12.35547 32.86718l.0859 5.1211 27.70313 43.13867 12.7539-3.49219c.83828-.22953 1.60837-.54199 2.41407-.81054l21.57226 30.43945c-12.70728 17.294-23.66288 36.23998-32.64258 56.9375l-4.87304 11.23437 50.55077 50.55274 10.97266-22.9668c5.85436-12.25393 12.41994-23.61593 19.52343-34.33203l179.35551 253.07816 183.58594 36.55273-36.55273-183.58594-253.26368-179.49023c11.40465-7.69197 23.4255-14.74148 36.22071-21.01172l22.61718-11.08398-50.36718-50.35938-11.23243 4.87305c-21.42739 9.29602-40.96756 20.7139-58.73632 34.00195l-30.1875-21.39648c.25371-.75061.55091-1.46748.77148-2.24415l3.64844-12.84765-43.38476-27.85938z" fill="#861313"/><path d="m74.25015 46.99632c-17.442.729-27.5346 10.2213-27.2538 27.2547l17.7912 27.702c3.987-1.0917 8.424-3.4542 12.8232-6.6015l38.2266 53.9415c-15.3162 18.747-28.1322 39.996-38.439 63.7524l23.895 23.8968c10.1475-21.24 22.1706-40.3434 35.9262-57.4776l189.738 267.7275 150.1263 29.8917-29.8917-150.1272-267.795-189.7875c17.9163-14.4972 37.6578-26.919 59.0868-37.4202l-23.8977-23.895c-24.4854 10.6227-46.2978 23.9184-65.4615 39.8628l-53.7786-38.1141c3.0987-4.3407 5.4558-8.7615 6.6078-12.8178l-27.702-17.7885z" fill="#ff8066" stroke-width="36"/><path d="m164.15115 150.42502 200.0016 176.7312 23.0805 60.075-60.075-23.0805-176.7231-199.9917c4.419-4.7502 8.9955-9.324 13.7142-13.734z" fill="#861313"/><path d="m61.470703 330.47363s-6.334005 2.36954-11.082031 5.36035c-4.748026 2.99082-11.559442 6.31865-15.566406 17.54883-5.985663 16.77614-3.453709 32.26631-1.529297 43.85352 3.072995 18.50294 8.955081 27.03431 9.34375 33.4375.822577 13.55171-8.068933 32.49172-8.548828 57.69336-.432545 22.71494 1.873046 64.20703 1.873046 64.20703l.914063 17.03515 114.64453.002.91406-17.03516s2.30559-41.49209 1.87305-64.20703c-.4799-25.20163-4.56191-38.43136-3.87149-57.69336.40312-11.24663 1.59342-14.93455 4.66641-33.4375 1.92441-11.5872 4.45635-27.07739-1.52929-43.85351-4.00697-11.23019-10.81838-14.55802-15.56641-17.54883s-11.08203-5.36231-11.08203-5.36231-19.51837-3.8483-32.726555-3.84866c-13.208185-.00035-32.726572 3.84862-32.726572 3.84862z" fill="#861313"/><path d="m134.45972 551.61173s2.24936-41.92823 1.85001-62.90024c-.37609-19.75011-4.55587-39.38888-3.84092-59.12621.42996-11.86963 2.45654-20.72648 4.87643-35.29699 1.49135-8.97969 2.3324-26.28196-.72652-34.85527-2.3551-6.60056-14.64614-11.78423-14.64614-11.78423s-18.46225-3.02338-27.775425-3.02361c-9.313123-.00024-27.77543 3.02222-27.77543 3.02222s-12.291035 5.18367-14.646135 11.78423c-3.058925 8.57331-2.217871 25.87558-.726518 34.85527 2.419891 14.57051 8.815258 23.13036 9.553764 35.29699 1.206435 19.87564-8.142168 39.3761-8.518254 59.12621-.399355 20.97201 1.850007 62.90024 1.850007 62.90024z" fill="#ff8066" stroke-width="36"/><path d="m61.255859 330.4043c-6.911934 2.09287-14.429946 5.44124-21.125 11.85351-10.136213 9.7081-15.796118 21.1657-20.625 33.28907-.0033.008-.0064.0151-.0098.0234-.0026.007-.0052.013-.0078.0195-7.293842 18.18452-12.2462458 30.97125-18.0292746 56.12702l-.00195.01-.00391.01c-1.68653984 7.37401-2.19777403 14.50514.058594 21.09375 5.3435046 13.83437 18.9062806 26.47909 29.3105476 32.52539l.02344.0117.02148.0137c11.321768 6.41453 27.163107 15.31288 44.705078 21.64258l17.394531 6.27734 5.804687-17.55859c2.913488-8.81407 4.788728-23.27571-2.986326-35.61767-6.953628-7.76255-15.018134-13.13088-22.378906-19.61914-2.934735-2.58691-5.787843-5.04262-8.615234-7.4668 2.806671-4.8092 8.414062-14.06836 8.414062-14.06836l-9.097656-22.26953z" fill="#861313"/><path d="m64.107662 396.7005 11.134118 4.37603 38.25731 5.54888-15.455229-55.57297c-.330929.10107-.653908.21351-.989787.30692-10.352992 2.87924-21.487457.89402-30.582448-3.7271-4.957682 1.50115-10.075311 3.97166-13.889647 7.62489-7.599294 7.27833-11.849171 15.63424-16.370325 26.99117-7.287185 18.16707-11.611744 29.14505-17.210811 53.50059-2.675916 11.69984.369944 12.40961 3.244723 17.65875 3.829819 6.99298 7.914937 10.84774 17.494569 16.31144 11.205928 6.3489 26.269096 14.71891 41.940837 20.37376 2.245103-6.79141 3.153201-13.58231-1.125207-20.37376-6.008831-3.07211-32.04635-28.36322-38.258164-31.38418 7.408102-18.86913 13.341437-21.37549 21.810061-41.63442z" fill="#ff8066" stroke-width="36"/><path d="m69.69128 246.89086c-27.97278 8.6414-38.679022 41.32859-29.502748 71.03278 9.188166 29.7427 36.469964 50.71167 64.442748 42.07027 27.97276-8.6414 38.67419-41.34422 29.48603-71.08691-9.17628-29.7042-36.453265-50.65752-64.42603-42.01614z" fill="#861313"/><path d="m75.00391 264.08957c-15.625534 4.82706-24.567867 26.02285-17.617796 48.52069 6.967545 22.55439 26.306592 35.01345 41.932131 30.18638 15.625455-4.82704 24.567785-26.02283 17.600245-48.57722-6.95007-22.49783-26.289127-34.95689-41.91458-30.12985z" fill="#ff8066" stroke-width="36"/><path d="m153.59375 264.97358c-46.03923 1.9658-69.222036 8.65824-99.119141 14.56741-14.985952 1.97525-20.088684 25.53727-16.863281 36.14257 8.781761 19.2116 10.609508 19.22065 23.636719 17.04883 18.356169-2.93322 37.603158-6.27734 56.197263-7.6289l-8.53711 18.4414 13.06446 4.10352s12.29138 5.1846 14.64648 11.78515c3.05892 8.57331 2.21791 25.87579.72656 34.85547-1.01262 6.09717 8.44714 12.6215 6.74805 17.31836 13.53542-6.99844 12.264-19.24732 19.65039-28.76367 10.79226-13.90434 16.09124-31.53939 20.4375-46.89453 4.32901-15.2942 6.72315-28.06436 6.74219-28.16702 3.68331-19.24351-9.40019-38.85499-37.33008-42.80859z" fill="#861313"/><g fill="#ff8066"><path d="m94.376053 362.70924-7.446121 40.7954 21.625188-4.32121c19.26238-2.50199 30.89949-14.40056 40.9705-27.37566 14.60534-18.81696 23.71957-67.40869 23.71957-67.40869 1.41256-7.37728-4.01798-19.22806-17.46329-21.40547-1.92076-.31106-4.00501-.42465-6.25628-.29959-39.42956 2.13081-60.892646 8.44329-91.561625 14.50501-7.053156 14.28917-1.734567 14.19972.444676 17.75886 26.808939-4.28393 57.664709-10.53803 87.301949-8.06223 0 0-10.29982 29.20753-20.89249 39.80801-8.10359 8.10956-20.21285 17.60777-30.442077 16.00557z" stroke-width="36"/><path d="m47.166016-50-97.166016 90.878906 92.289062 70.484374 106.494138 81.33203 19.11328 14.59571 85.76368 65.50195c-5.48613 7.20226-9.48304 16.23788-13.32032 24.16992l-101.58398-42.84961-22.13281-9.33398-110.5390656-46.62696-56.0839844-23.65625v115.96289l145.871094 18.55274 23.783206 3.02539 110.33008 14.03125c-1.87451 8.51715-2.75522 16.96658-2.96094 25.64844l-111.88867 14.57812-23.812504 3.10352-141.322266 17.83203v115.85351l153.25781-63.33203 22.21289-9.2539 105.00586-43.75391c2.54687 9.45393 5.40974 19.91458 9.37305 28.11719l-87.48633 66.90234-87.167968 66.59375h119.675778l36.79297-48.35742 40.12696-52.74023c7.27956 8.08896 15.50304 15.27571 24.49414 21.40625l-36.00391 79.6914.37305 1.64258h76.92578l18.38086-58.89453c10.38292 1.04971 20.85205.90319 31.20117-.43945l-2.68164 59.33398h51.80664l-15.55664-67.99219c9.3956-3.57481 17.76992-7.57031 26.18359-13.16992l41.74414 81.16211h71.3418v-5.7207l-16.10352-17.42774-73.18945-79.23437c5.97539-6.48784 12.21589-13.5806 16.91992-21.35352l72.37305 46.46094v-57.06836l-58.55273-18.39063c3.42913-8.39022 5.88161-17.41255 7.01171-27.18164l51.54102 2.64454v-45.99805l-50.41797 11.34765.41797-22.10351 50-6.54688v-58.5957l-73.55664 30.39453c-6.35299-9.54471-13.88664-18.24845-22.42188-25.90429l95.97852-73.32422v-115.890628l-65.34961 85.888668-62.41601 82.03321c-9.40306-4.52657-19.29556-7.95666-29.48243-10.22266l41.05078-99.00391 9.20899-22.21875 63.26172-152.58398h-114.60156l-10.04688 81.236328-7.2832 58.945313-2.93555 23.800779-13.16211 106.51953c-10.05145.15751-19.28683 1.05737-29.10547 3.45313l-13.55469-106.01953-3.04296-23.757816-11.65235-91.1445309-6.78125-53.0332031h-114.6914l23.16992 55.1191406 45.85937 109.1171894 9.29883 22.11719 41.79297 99.4414c-7.82923 4.06204-16.11336 8.60113-23.18555 14.30469l-65.26953-85.46484-14.58984-19.09961-81.07813-106.16016z" filter="url(#b)" opacity=".2"/></g></svg>