<svg height="500" viewBox="0 0 500 500" width="500" xmlns="http://www.w3.org/2000/svg" xmlns:xlink="http://www.w3.org/1999/xlink"><radialGradient id="a" cx="1362.7291" cy="216.11429" gradientTransform="matrix(1.0000001 -.0000059 .0000001 1.0000003 -112.72927 33.893757)" gradientUnits="userSpaceOnUse" r="250"><stop offset="0" stop-color="#ff851a"/><stop offset=".42441937" stop-color="#f87000"/><stop offset=".86367416" stop-color="#f26900"/><stop offset="1" stop-color="#e55f00"/></radialGradient><filter id="b" color-interpolation-filters="sRGB" height="1.023181" width="1.024879" x="-.012439" y="-.011591"><feGaussianBlur stdDeviation="2.1236344"/></filter><filter id="c" color-interpolation-filters="sRGB" height="1.020816" width="1.022264" x="-.011132" y="-.010408"><feGaussianBlur stdDeviation="1.9935727"/></filter><filter id="d" color-interpolation-filters="sRGB" height="1.019948" width="1.021269" x="-.010635" y="-.009974"><feGaussianBlur stdDeviation="1.9935727"/></filter><filter id="e" color-interpolation-filters="sRGB" height="1.019149" width="1.020355" x="-.010177" y="-.009574"><feGaussianBlur stdDeviation="1.9935727"/></filter><filter id="f" color-interpolation-filters="sRGB" height="1.018412" width="1.019512" x="-.009756" y="-.009206"><feGaussianBlur stdDeviation="1.9935727"/></filter><filter id="g" color-interpolation-filters="sRGB" height="1.052065" width="1.056084" x="-.028042" y="-.026032"><feGaussianBlur stdDeviation="4.5530348"/></filter><g transform="translate(-1000)"><path d="m1500 250a250 250 0 0 1 -250 250 250 250 0 0 1 -250-250 250 250 0 0 1 250-250 250 250 0 0 1 250 250z" fill="url(#a)" stroke-linecap="round" stroke-linejoin="round" stroke-width="1.002"/><path d="m1309.2298 33.82789c128.5196 30.706851 207.8974 167.48127 169.5927 291.56949-31.3771 95.69524-112.8693 162.03793-212.5543 174.60263 153.1796-8.09118 266.0956-163.0043 218.7012-309.92978-36.4562-114.666588-154.6038-191.5214848-270.6514-169.822657-18.8526 4.215647-38.4387 10.498641-55.8829 18.694487-112.5353 47.459213-168.47522 196.206-99.9632 307.85319 57.6978 93.63045 168.5136 141.8489 267.9993 100.77239-134.92 68.97589-303.283-51.46877-311.488-201.30723-4.4167-117.68321 76.8182-219.674136 190.654-246.26040176-89.0147 9.18391126-152.6601 79.39239576-187.7408 157.21169176-38.45522 102.70317 5.2337 231.75078 109.038 294.08388 114.5107 66.1048 260.3537 29.37245 323.6836-83.60152 42.2104-77.69758 34.3514-177.62383-23.1776-249.88923-57.5404-72.257811-157.5429-102.460489-246.4118-71.877168-81.7429 30.682061-131.1298 101.133078-134.0478 190.176958.6692 92.68536 61.7912 168.55972 147.5399 198.52472 128.5549 37.82014 266.7725-70.33038 233.6823-209.88949-14.7104-64.39775-57.8855-122.14991-125.7378-141.121386-71.391-15.467036-138.9716 1.205-181.2869 64.641366-18.8995 29.2286-28.9384 85.21395-26.105 97.65297m0 0c13.5324-50.18833 30.6277-97.66354 72.2125-128.94941 53.182-38.308183 124.4576-37.093813 181.7444-.48035 50.1457 36.48017 75.4845 90.37713 72.3557 150.91678-6.6674 64.04407-38.4038 109.83277-91.6401 141.00844-63.9019 34.56125-135.3795 4.83213-189.1258-35.28385-78.8706-65.48566-79.7477-186.67235-8.9744-256.76104 63.7369-55.941605 167.0207-64.891564 238.7167-6.65053 78.8163 58.35315 90.3045 169.04089 40.972 246.62443-35.2274 56.41892-88.4571 87.60135-152.5581 93.63158-81.9488 2.18264-160.666-41.91503-196.8695-120.9383-36.2055-79.02511-22.5771-164.33167 26.8727-227.66064 49.4316-63.30896 138.3491-86.746364 220.4504-67.54202" fill="#c50"/></g><g stroke-width=".9"><path d="m353.96153 34.791018c-14.42681-.09767-28.62797 4.45583-40.9707 11.771485-18.36424 10.971258-32.47424 28.304114-40.99414 47.802734-11.15849 25.456293-13.16271 54.697703-6.07227 81.535163.15681.63375.34473 1.25923.51758 1.88867-12.38555 11.56547-21.57539 26.21635-28.06055 41.79297-8.40439 19.84382-12.91542 41.08608-15.81836 62.36719-4.87483 36.45934-4.43087 73.32122-4.87695 110.02343-.0582 5.33307-.1168 10.66693-.17383 16h42.69531c3.23621 43.52406 6.47341 87.04816 9.70899 130.57227 24.65769 8.58754 50.41974 14.36058 76.54297 15.64844 23.00234 1.25299 46.09765-1.35126 68.51172-6.50586 10.38336-2.33938 20.77314-4.65408 31.16992-6.9336 2.93023-44.26028 5.85787-88.52088 8.78711-132.78125h40.28711c-.74988-33.77381.2331-67.58393-1.51368-101.33398-.89968-16.6688-2.49648-33.33103-5.59375-49.7461-3.37852-17.73252-8.63211-35.26223-17.1875-51.22265-6.20929-11.51078-14.24149-22.1359-24.20312-30.66211 7.62383-29.71995 4.03586-62.33236-10.61524-89.367192-9.26808-17.097189-23.31241-31.763451-40.55664-40.898438-12.74144-6.722495-27.1768-10.195303-41.58398-9.951172zm-2.14258 49.955079 4.35938.08398c23.16957 0 44.45898 25.205603 44.45898 59.259773 0 17.17648-5.79435 32.56615-14.33984 43.27344l-10.5625 13.23437 16.73242 2.5918c13.03469 2.0196 21.94015 8.11724 29.30664 17.99023 7.36379 9.87389 12.71013 23.76762 16.23633 39.90821 6.39629 29.27157 6.80187 65.23269 6.82617 96.88476h-36.73438l-9.37304 142.07422c-25.91188 5.8365-54.63645 6.04976-81.54102-.0234l-10.59375-142.05082h-38.58203c.2466-31.26867 1.79873-66.74099 8.85742-95.79297 3.8988-16.03528 9.46179-29.95021 16.73828-39.9375 7.2765-9.98639 15.78845-16.12023 27.39844-18.30273l16.39649-3.08203-10.65625-12.83594c-8.9316-10.76309-15.02539-26.33141-15.02539-43.93359-.00001-31.94187 19.06827-56.610306 40.09765-59.341803zm-205.78048-49.955079c14.42681-.09767 28.62797 4.45583 40.9707 11.771485 18.36424 10.971258 32.47424 28.304114 40.99414 47.802734 11.15849 25.456293 13.16271 54.697703 6.07227 81.535163-.15681.63375-.34473 1.25923-.51758 1.88867 12.38555 11.56547 21.57539 26.21635 28.06055 41.79297 8.40439 19.84382 12.91542 41.08608 15.81836 62.36719 4.87483 36.45934 4.43087 73.32122 4.87695 110.02343.0582 5.33307.1168 10.66693.17383 16h-42.69531c-3.23621 43.52406-6.47341 87.04816-9.70899 130.57227-24.65769 8.58754-50.41974 14.36058-76.54297 15.64844-23.00234 1.25299-46.09765-1.35126-68.51172-6.50586-10.38336-2.33938-20.77314-4.65408-31.16992-6.9336-2.93023-44.26028-5.85787-88.52088-8.78711-132.78125h-40.28711c.74988-33.77381-.2331-67.58393 1.51368-101.33398.89968-16.6688 2.49648-33.33103 5.59375-49.7461 3.37852-17.73252 8.63211-35.26223 17.1875-51.22265 6.20929-11.51078 14.24149-22.1359 24.20312-30.66211-7.62383-29.71995-4.03586-62.33236 10.61524-89.367192 9.26808-17.097189 23.31241-31.763451 40.55664-40.898438 12.74144-6.722495 27.1768-10.195303 41.58398-9.951172zm2.14258 49.955079-4.35938.08398c-23.16957 0-44.45898 25.205603-44.45898 59.259773 0 17.17648 5.79435 32.56615 14.33984 43.27344l10.5625 13.23437-16.73242 2.5918c-13.03469 2.0196-21.94015 8.11724-29.30664 17.99023-7.36379 9.87389-12.71013 23.76762-16.23633 39.90821-6.39629 29.27157-6.80187 65.23269-6.82617 96.88476h36.73438l9.37304 142.07422c25.91188 5.8365 54.63645 6.04976 81.54102-.0234l10.59375-142.05082h38.58203c-.2466-31.26867-1.79873-66.74099-8.85742-95.79297-3.8988-16.03528-9.46179-29.95021-16.73828-39.9375-7.2765-9.98639-15.78845-16.12023-27.39844-18.30273l-16.39649-3.08203 10.65625-12.83594c8.9316-10.76309 15.02539-26.33141 15.02539-43.93359.00001-31.94187-19.06827-56.610306-40.09765-59.341803z" fill="#994100" filter="url(#f)" opacity=".5"/><path d="m353.9713 44.791018c-11.42917-.127721-22.6885 3.262301-32.73243 8.574219-14.52067 7.777153-26.33614 20.073917-34.60351 34.234375-13.64132 23.305748-17.86603 51.657648-12.80078 78.085938.99052 5.21073 2.38293 10.36364 4.07422 15.375-11.98857 9.66466-21.10056 22.51976-27.62696 36.38477-7.71287 16.22962-12.39835 33.72754-15.57226 51.36328-5.32117 30.09621-6.36637 60.73539-6.71289 91.23438-.14249 12.64305-.20692 25.2869-.375 37.92968h41.86328c3.30325 44.39581 6.60753 88.79166 9.91015 133.1875 24.13621 7.95669 49.38593 12.8683 74.83594 13.29688 20.20415.43921 40.37834-2.25988 60.02539-6.85547 7.46331-1.68534 14.92611-3.36868 22.40235-4.99609 2.96915-44.8775 5.93601-89.75526 8.90429-134.63282h39.49414c-.53425-33.6449.45495-67.34445-1.95898-100.93554-1.64467-21.36539-4.46387-42.81716-11.125-63.25977-5.15175-15.82967-12.71105-31.14392-23.94922-43.5625-3.85301-4.26325-8.11674-8.15972-12.74609-11.56641 9.01359-28.37224 6.60457-60.3251-7.17579-86.779296-8.51985-16.32903-21.75642-30.421643-38.25-38.820313-11.04961-5.615532-23.4844-8.504586-35.88085-8.257813zm-2.15235 39.955079 4.35938.08398c23.16957 0 44.45898 25.205603 44.45898 59.259773 0 17.17648-5.79435 32.56615-14.33984 43.27344l-10.5625 13.23437 16.73242 2.5918c13.03469 2.0196 21.94015 8.11724 29.30664 17.99023 7.36379 9.87389 12.71013 23.76762 16.23633 39.90821 6.39629 29.27157 6.80187 65.23269 6.82617 96.88476h-36.73438l-9.37304 142.07422c-25.91188 5.8365-54.63645 6.04976-81.54102-.0234l-10.59375-142.05082h-38.58203c.2466-31.26867 1.79873-66.74099 8.85742-95.79297 3.8988-16.03528 9.46179-29.95021 16.73828-39.9375 7.2765-9.98639 15.78845-16.12023 27.39844-18.30273l16.39649-3.08203-10.65625-12.83594c-8.9316-10.76309-15.02539-26.33141-15.02539-43.93359-.00001-31.94187 19.06827-56.610306 40.09765-59.341803zm-205.79025-39.955079c11.42917-.127721 22.6885 3.262301 32.73243 8.574219 14.52067 7.777153 26.33614 20.073917 34.60351 34.234375 13.64132 23.305748 17.86603 51.657648 12.80078 78.085938-.99052 5.21073-2.38293 10.36364-4.07422 15.375 11.98857 9.66466 21.10056 22.51976 27.62696 36.38477 7.71287 16.22962 12.39835 33.72754 15.57226 51.36328 5.32117 30.09621 6.36637 60.73539 6.71289 91.23438.14249 12.64305.20692 25.2869.375 37.92968h-41.86328c-3.30325 44.39581-6.60753 88.79166-9.91015 133.1875-24.13621 7.95669-49.38593 12.8683-74.83594 13.29688-20.20415.43921-40.37834-2.25988-60.02539-6.85547-7.46331-1.68534-14.92611-3.36868-22.40235-4.99609-2.96915-44.8775-5.93601-89.75526-8.90429-134.63282h-39.49414c.53425-33.6449-.45495-67.34445 1.95898-100.93554 1.64467-21.36539 4.46387-42.81716 11.125-63.25977 5.15175-15.82967 12.71105-31.14392 23.94922-43.5625 3.85301-4.26325 8.11674-8.15972 12.74609-11.56641-9.01359-28.37224-6.60457-60.3251 7.17579-86.779296 8.51985-16.32903 21.75642-30.421643 38.25-38.820313 11.04961-5.615532 23.4844-8.504586 35.88085-8.257813zm2.15235 39.955079-4.35938.08398c-23.16957 0-44.45898 25.205603-44.45898 59.259773 0 17.17648 5.79435 32.56615 14.33984 43.27344l10.5625 13.23437-16.73242 2.5918c-13.03469 2.0196-21.94015 8.11724-29.30664 17.99023-7.36379 9.87389-12.71013 23.76762-16.23633 39.90821-6.39629 29.27157-6.80187 65.23269-6.82617 96.88476h36.73438l9.37304 142.07422c25.91188 5.8365 54.63645 6.04976 81.54102-.0234l10.59375-142.05082h38.58203c-.2466-31.26867-1.79873-66.74099-8.85742-95.79297-3.8988-16.03528-9.46179-29.95021-16.73828-39.9375-7.2765-9.98639-15.78845-16.12023-27.39844-18.30273l-16.39649-3.08203 10.65625-12.83594c8.9316-10.76309 15.02539-26.33141 15.02539-43.93359.00001-31.94187-19.06827-56.610306-40.09765-59.341803z" fill="#bf651b" filter="url(#e)" opacity=".5"/><path d="m354.32481 54.798831c-2.37988-.03549-4.76306-.0049-7.11914.371094-14.4057 1.947102-27.76277 9.28717-38.01758 19.460937-13.54698 13.360316-22.24354 31.212748-25.65234 49.845708-3.73103 20.09895-1.60336 41.32069 6.45312 60.13867-11.20024 7.31156-20.10542 17.75677-26.63476 29.35547-7.58778 13.31111-12.4386 27.99229-16 42.83984-4.96825 21.29954-7.1034 43.14191-8.3086 64.94336-1.1375 22.05353-1.06167 44.14352-1.31445 66.21875h41.03125c3.36696 45.22264 6.73573 90.44527 10.10156 135.66797 24.03617 7.41703 49.21814 11.41259 74.40039 10.79688 14.9421-.30971 29.80677-2.38577 44.38868-5.60547 6.5173-1.41636 13.00121-2.9818 19.52343-4.38086 3.00834-45.49272 6.01413-90.98573 9.02149-136.47852h38.7539c-.32723-31.64121.45281-63.34755-2.1875-94.91406-1.70754-19.74085-4.60168-39.5422-11.00781-58.35937-4.50859-13.14366-10.80498-25.86413-19.94726-36.42383-5.30199-6.15472-11.55944-11.51429-18.58985-15.60156 11.08986-27.61573 9.72189-60.06627-4.11914-86.464853-7.6744-14.516105-19.46163-27.122607-34.25-34.492187-9.43105-4.685551-19.98709-7.143555-30.52539-6.917969zm-2.50586 29.947266 4.35938.08398c23.16957 0 44.45898 25.205603 44.45898 59.259773 0 17.17648-5.79435 32.56615-14.33984 43.27344l-10.5625 13.23437 16.73242 2.5918c13.03469 2.0196 21.94015 8.11724 29.30664 17.99023 7.36379 9.87389 12.71013 23.76762 16.23633 39.90821 6.39629 29.27157 6.80187 65.23269 6.82617 96.88476h-36.73438l-9.37304 142.07422c-25.91188 5.8365-54.63645 6.04976-81.54102-.0234l-10.59375-142.05082h-38.58203c.2466-31.26867 1.79873-66.74099 8.85742-95.79297 3.8988-16.03528 9.46179-29.95021 16.73828-39.9375 7.2765-9.98639 15.78845-16.12023 27.39844-18.30273l16.39649-3.08203-10.65625-12.83594c-8.9316-10.76309-15.02539-26.33141-15.02539-43.93359-.00001-31.94187 19.06827-56.610306 40.09765-59.341803zm-206.14376-29.947266c2.37988-.03549 4.76306-.0049 7.11914.371094 14.4057 1.947102 27.76277 9.28717 38.01758 19.460937 13.54698 13.360316 22.24354 31.212748 25.65234 49.845708 3.73103 20.09895 1.60336 41.32069-6.45312 60.13867 11.20024 7.31156 20.10542 17.75677 26.63476 29.35547 7.58778 13.31111 12.4386 27.99229 16 42.83984 4.96825 21.29954 7.1034 43.14191 8.3086 64.94336 1.1375 22.05353 1.06167 44.14352 1.31445 66.21875h-41.03125c-3.36696 45.22264-6.73573 90.44527-10.10156 135.66797-24.03617 7.41703-49.21814 11.41259-74.40039 10.79688-14.9421-.30971-29.80677-2.38577-44.38868-5.60547-6.5173-1.41636-13.00121-2.9818-19.52343-4.38086-3.00834-45.49272-6.01413-90.98573-9.02149-136.47852h-38.7539c.32723-31.64121-.45281-63.34755 2.1875-94.91406 1.70754-19.74085 4.60168-39.5422 11.00781-58.35937 4.50859-13.14366 10.80498-25.86413 19.94726-36.42383 5.30199-6.15472 11.55944-11.51429 18.58985-15.60156-11.08986-27.61573-9.72189-60.06627 4.11914-86.464853 7.6744-14.516105 19.46163-27.122607 34.25-34.492187 9.43105-4.685551 19.98709-7.143555 30.52539-6.917969zm2.50586 29.947266-4.35938.08398c-23.16957 0-44.45898 25.205603-44.45898 59.259773 0 17.17648 5.79435 32.56615 14.33984 43.27344l10.5625 13.23437-16.73242 2.5918c-13.03469 2.0196-21.94015 8.11724-29.30664 17.99023-7.36379 9.87389-12.71013 23.76762-16.23633 39.90821-6.39629 29.27157-6.80187 65.23269-6.82617 96.88476h36.73438l9.37304 142.07422c25.91188 5.8365 54.63645 6.04976 81.54102-.0234l10.59375-142.05082h38.58203c-.2466-31.26867-1.79873-66.74099-8.85742-95.79297-3.8988-16.03528-9.46179-29.95021-16.73828-39.9375-7.2765-9.98639-15.78845-16.12023-27.39844-18.30273l-16.39649-3.08203 10.65625-12.83594c8.9316-10.76309 15.02539-26.33141 15.02539-43.93359.00001-31.94187-19.06827-56.610306-40.09765-59.341803z" fill="none" filter="url(#d)" opacity=".5"/><path d="m351.0084 64.792972c-11.63764.960484-22.63417 6.265571-31.41796 13.832031-12.8911 11.122746-21.43675 26.742587-25.29297 43.220707-4.95739 20.99838-2.7245 43.74917 6.85156 63.14063.63929 1.26223 1.27908 2.52408 1.96875 3.75976-10.55893 4.83347-19.45418 12.86413-26.08594 22.33203-8.18384 11.49132-13.46634 24.76434-17.39844 38.23633-5.51082 19.11603-8.04876 38.94006-9.69336 58.7207-1.84625 23.26361-1.90835 46.61548-2.11914 69.9375h40.21875c3.42727 45.99735 6.85308 91.99493 10.28125 137.99219 23.88801 6.78932 48.92426 9.77701 73.72657 8.06055 13.50781-.85265 26.85898-3.32109 40.00976-6.44922 1.87914-.42002 3.75743-.8404 5.63672-1.25977 3.04806-46.11441 6.09215-92.22922 9.13867-138.34375h38.06446c-.20523-30.53748.37628-61.16502-2.79102-91.58398-2.05223-19.35864-5.46575-38.80263-12.98437-56.85938-4.92193-11.77676-11.8524-22.94326-21.5-31.42968-5.17992-4.55664-11.16266-8.18991-17.57032-10.74024 12.0508-22.73664 13.76016-50.49404 5.33399-74.73242-5.00704-14.339349-13.87416-27.5645-26.20117-36.595707-8.86554-6.499922-19.56525-10.65192-30.59375-11.136719-2.52474-.134468-5.05464-.105933-7.58204-.101562zm.81055 19.953125 4.35938.08398c23.16957 0 44.45898 25.205603 44.45898 59.259773 0 17.17648-5.79435 32.56615-14.33984 43.27344l-10.5625 13.23437 16.73242 2.5918c13.03469 2.0196 21.94015 8.11724 29.30664 17.99023 7.36379 9.87389 12.71013 23.76762 16.23633 39.90821 6.39629 29.27157 6.80187 65.23269 6.82617 96.88476h-36.73438l-9.37304 142.07422c-25.91188 5.8365-54.63645 6.04976-81.54102-.0234l-10.59375-142.05082h-38.58203c.2466-31.26867 1.79873-66.74099 8.85742-95.79297 3.8988-16.03528 9.46179-29.95021 16.73828-39.9375 7.2765-9.98639 15.78845-16.12023 27.39844-18.30273l16.39649-3.08203-10.65625-12.83594c-8.9316-10.76309-15.02539-26.33141-15.02539-43.93359-.00001-31.94187 19.06827-56.610306 40.09765-59.341803zm-202.82735-19.953125c11.63764.960484 22.63417 6.265571 31.41796 13.832031 12.8911 11.122746 21.43675 26.742587 25.29297 43.220707 4.95739 20.99838 2.7245 43.74917-6.85156 63.14063-.63929 1.26223-1.27908 2.52408-1.96875 3.75976 10.55893 4.83347 19.45418 12.86413 26.08594 22.33203 8.18384 11.49132 13.46634 24.76434 17.39844 38.23633 5.51082 19.11603 8.04876 38.94006 9.69336 58.7207 1.84625 23.26361 1.90835 46.61548 2.11914 69.9375h-40.21875c-3.42727 45.99735-6.85308 91.99493-10.28125 137.99219-23.88801 6.78932-48.92426 9.77701-73.72657 8.06055-13.50781-.85265-26.85898-3.32109-40.00976-6.44922-1.87914-.42002-3.75743-.8404-5.63672-1.25977-3.04806-46.11441-6.09215-92.22922-9.13867-138.34375h-38.06446c.20523-30.53748-.37628-61.16502 2.79102-91.58398 2.05223-19.35864 5.46575-38.80263 12.98437-56.85938 4.92193-11.77676 11.8524-22.94326 21.5-31.42968 5.17992-4.55664 11.16266-8.18991 17.57032-10.74024-12.0508-22.73664-13.76016-50.49404-5.33399-74.73242 5.00704-14.339349 13.87416-27.5645 26.20117-36.595707 8.86554-6.499922 19.56525-10.65192 30.59375-11.136719 2.52474-.134468 5.05464-.105933 7.58204-.101562zm-.81055 19.953125-4.35938.08398c-23.16957 0-44.45898 25.205603-44.45898 59.259773 0 17.17648 5.79435 32.56615 14.33984 43.27344l10.5625 13.23437-16.73242 2.5918c-13.03469 2.0196-21.94015 8.11724-29.30664 17.99023-7.36379 9.87389-12.71013 23.76762-16.23633 39.90821-6.39629 29.27157-6.80187 65.23269-6.82617 96.88476h36.73438l9.37304 142.07422c25.91188 5.8365 54.63645 6.04976 81.54102-.0234l10.59375-142.05082h38.58203c-.2466-31.26867-1.79873-66.74099-8.85742-95.79297-3.8988-16.03528-9.46179-29.95021-16.73828-39.9375-7.2765-9.98639-15.78845-16.12023-27.39844-18.30273l-16.39649-3.08203 10.65625-12.83594c8.9316-10.76309 15.02539-26.33141 15.02539-43.93359.00001-31.94187-19.06827-56.610306-40.09765-59.341803z" fill="#ffa348" filter="url(#c)" opacity=".5"/><path d="m351.24083 74.783206c-10.18861 1.056199-19.63359 6.168414-27.02735 13.117188-10.78336 10.141639-17.66857 23.959076-20.66015 38.359376-3.88768 18.59751-1.59745 38.58556 7.17187 55.51172 2.22121 4.43676 5.06137 8.53446 8.14844 12.4082-4.91403.9845-9.74548 2.51748-14.1543 4.92969-8.0612 4.23735-14.70957 10.79156-19.8789 18.22656-7.05576 10.0738-11.68308 21.62753-15.20508 33.34961-5.3925 18.17672-7.90584 37.05619-9.55469 55.89844-1.71926 20.41472-2.00927 40.91244-2.17187 61.38867h39.4082c3.48161 46.70961 6.96446 93.41926 10.44531 140.12891 21.91916 5.62285 44.78092 7.62668 67.33399 5.66601 9.85737-.83152 19.63149-2.48863 29.26562-4.71484 1.28329-.28731 2.56619-.57459 3.84961-.86133 3.08726-46.7394 6.17024-93.47923 9.25586-140.21875h37.39648c-.10763-30.19552.15089-60.52431-3.87695-90.51367-2.16679-15.88578-5.60321-31.75621-12.11133-46.47461-4.54525-10.13147-10.81781-19.72826-19.50976-26.77734-7.17595-5.79992-15.98062-9.46536-25.08203-10.8457 3.40422-4.38512 6.38094-9.10913 8.67968-14.16797 8.29294-17.72323 9.78333-38.36667 4.84375-57.24219-3.44789-13.06653-10.25252-25.447413-20.38476-34.511724-7.56524-6.738052-17.11964-11.508565-27.29102-12.402344-2.95539-.27075-5.92533-.278495-8.89062-.253906zm.57812 9.962891 4.35938.08398c23.16957 0 44.45898 25.205603 44.45898 59.259773 0 17.17648-5.79435 32.56615-14.33984 43.27344l-10.5625 13.23437 16.73242 2.5918c13.03469 2.0196 21.94015 8.11724 29.30664 17.99023 7.36379 9.87389 12.71013 23.76762 16.23633 39.90821 6.39629 29.27157 6.80187 65.23269 6.82617 96.88476h-36.73438l-9.37304 142.07422c-25.91188 5.8365-54.63645 6.04976-81.54102-.0234l-10.59375-142.05082h-38.58203c.2466-31.26867 1.79873-66.74099 8.85742-95.79297 3.8988-16.03528 9.46179-29.95021 16.73828-39.9375 7.2765-9.98639 15.78845-16.12023 27.39844-18.30273l16.39649-3.08203-10.65625-12.83594c-8.9316-10.76309-15.02539-26.33141-15.02539-43.93359-.00001-31.94187 19.06827-56.610306 40.09765-59.341803zm-203.05978-9.962891c10.18861 1.056199 19.63359 6.168414 27.02735 13.117188 10.78336 10.141639 17.66857 23.959076 20.66015 38.359376 3.88768 18.59751 1.59745 38.58556-7.17187 55.51172-2.22121 4.43676-5.06137 8.53446-8.14844 12.4082 4.91403.9845 9.74548 2.51748 14.1543 4.92969 8.0612 4.23735 14.70957 10.79156 19.8789 18.22656 7.05576 10.0738 11.68308 21.62753 15.20508 33.34961 5.3925 18.17672 7.90584 37.05619 9.55469 55.89844 1.71926 20.41472 2.00927 40.91244 2.17187 61.38867h-39.4082c-3.48161 46.70961-6.96446 93.41926-10.44531 140.12891-21.91916 5.62285-44.78092 7.62668-67.33399 5.66601-9.85737-.83152-19.63149-2.48863-29.26562-4.71484-1.28329-.28731-2.56619-.57459-3.84961-.86133-3.08726-46.7394-6.17024-93.47923-9.25586-140.21875h-37.39648c.10763-30.19552-.15089-60.52431 3.87695-90.51367 2.16679-15.88578 5.60321-31.75621 12.11133-46.47461 4.54525-10.13147 10.81781-19.72826 19.50976-26.77734 7.17595-5.79992 15.98062-9.46536 25.08203-10.8457-3.40422-4.38512-6.38094-9.10913-8.67968-14.16797-8.29294-17.72323-9.78333-38.36667-4.84375-57.24219 3.44789-13.06653 10.25252-25.447413 20.38476-34.511724 7.56524-6.738052 17.11964-11.508565 27.29102-12.402344 2.95539-.27075 5.92533-.278495 8.89062-.253906zm-.57812 9.962891-4.35938.08398c-23.16957 0-44.45898 25.205603-44.45898 59.259773 0 17.17648 5.79435 32.56615 14.33984 43.27344l10.5625 13.23437-16.73242 2.5918c-13.03469 2.0196-21.94015 8.11724-29.30664 17.99023-7.36379 9.87389-12.71013 23.76762-16.23633 39.90821-6.39629 29.27157-6.80187 65.23269-6.82617 96.88476h36.73438l9.37304 142.07422c25.91188 5.8365 54.63645 6.04976 81.54102-.0234l10.59375-142.05082h38.58203c-.2466-31.26867-1.79873-66.74099-8.85742-95.79297-3.8988-16.03528-9.46179-29.95021-16.73828-39.9375-7.2765-9.98639-15.78845-16.12023-27.39844-18.30273l-16.39649-3.08203 10.65625-12.83594c8.9316-10.76309 15.02539-26.33141 15.02539-43.93359.00001-31.94187-19.06827-56.610306-40.09765-59.341803z" fill="#fff" filter="url(#b)" opacity=".5"/><path d="m351.81867 84.746281c-21.0294 2.7315-40.0977 27.399599-40.0977 59.341499 0 17.6022 6.0939 33.1704 15.0255 43.9335l10.656 12.8367-16.3953 3.0816c-11.61 2.1825-20.1222 8.316-27.3987 18.3024-7.2765 9.9873-12.8394 23.9022-16.7382 39.9375-7.0587 29.052-8.6112 64.5237-8.8578 95.7924h38.5812l10.5939 142.0524c26.9046 6.0732 55.6299 5.859 81.5418.0225l9.3726-142.074h36.7344c-.0243-31.6521-.4293-67.6134-6.8256-96.885-3.5262-16.1406-8.8722-30.0348-16.236-39.9087-7.3665-9.873-16.272-15.9705-29.3067-17.9901l-16.7328-2.592 10.5624-13.2336c8.5455-10.7073 14.3388-26.0973 14.3388-43.2738 0-34.0542-21.2895-59.259599-44.4591-59.259599zm-203.63734 0c21.0294 2.7315 40.0977 27.399599 40.0977 59.341499 0 17.6022-6.0939 33.1704-15.0255 43.9335l-10.656 12.8367 16.3953 3.0816c11.61 2.1825 20.1222 8.316 27.3987 18.3024 7.2765 9.9873 12.8394 23.9022 16.7382 39.9375 7.0587 29.052 8.6112 64.5237 8.8578 95.7924h-38.5812l-10.5939 142.0524c-26.9046 6.0732-55.6299 5.859-81.5418.0225l-9.3726-142.074h-36.7344c.0243-31.6521.4293-67.6134 6.8256-96.885 3.5262-16.1406 8.8722-30.0348 16.236-39.9087 7.3665-9.873 16.272-15.9705 29.3067-17.9901l16.7328-2.592-10.5624-13.2336c-8.5455-10.7073-14.3388-26.0973-14.3388-43.2738 0-34.0542 21.2895-59.259599 44.4591-59.259599z" fill="#ffa348" filter="url(#g)" opacity=".75"/></g><g><path d="m244.23828 25-1.32031.171875c-34.38976 4.445631-57.82422 39.30543-57.82422 79.906255 0 18.16271 5.03415 34.7089 13.36719 48.16992-11.72054 4.70525-21.60826 12.93351-28.92383 22.92578v.002c-9.76994 13.34589-16.08516 29.85377-20.54883 48.125v.002c-8.07322 33.06955-9.55731 71.11107-9.82031 104.30079l-.14453 18.14257h41.98047l10.8789 145.18946 13.00781 2.92382c31.03141 6.97144 63.65691 6.72945 93.5625.0254l13.13282-2.94532 9.625-145.1914h39.76562l-.0137-18.01563c-.0256-33.24371-.24287-71.69089-7.5918-105.16211-4.05817-18.48729-10.14662-35.20332-20.23632-48.66797v-.002l-.002-.002c-7.62089-10.16538-18.31462-18.42667-31.10351-22.90821 7.824-13.25808 12.49023-29.35721 12.49023-46.91015 0-43.149722-27.37736-79.970705-64.71484-79.970705l.34375.0039z" fill="#994100"/><path d="m245.22522 43.022428c-22.09642 2.856447-42.13223 28.652936-42.13223 62.055952 0 18.40737 6.4031 34.68771 15.78788 45.94314l11.19668 13.42389-17.22719 3.22256c-12.19908 2.28234-21.14318 8.6964-28.78889 19.13961-7.6457 10.44415-13.49086 24.99555-17.58749 41.76436-7.41685 30.38092-9.04812 67.4752-9.30723 100.17422h40.53878l11.13143 148.55029c28.26972 6.351 58.45253 6.127 85.67918.0235l9.84816-148.57285h38.59828c-.0255-33.09996-.45108-70.70623-7.17192-101.3168-3.70512-16.87892-9.32237-31.40868-17.05981-41.73424-7.74027-10.32462-17.09763-16.70104-30.7937-18.81302l-17.58181-2.71057 11.09833-13.83894c8.97909-11.19708 15.06634-27.29107 15.06634-45.25327 0-35.611936-22.36972-61.970303-46.71493-61.970303z" fill="#ffa348" stroke-width="36"/></g></svg>