<svg height="500" viewBox="0 0 500 500" width="500" xmlns="http://www.w3.org/2000/svg" xmlns:xlink="http://www.w3.org/1999/xlink"><filter id="a" color-interpolation-filters="sRGB" height="1.06204" width="1.212098" x="-.106049" y="-.03102"><feGaussianBlur stdDeviation="3.0777087"/></filter><filter id="b" color-interpolation-filters="sRGB" height="1.167421" width="1.135425" x="-.067712" y="-.08371"><feGaussianBlur stdDeviation="7.7963001"/></filter><filter id="c" color-interpolation-filters="sRGB" height="1.166814" width="1.136265" x="-.068133" y="-.083407"><feGaussianBlur stdDeviation="8.1844389"/></filter><g transform="translate(.000015)"><circle cx="-249.99998" cy="250" fill="#e51a1a" r="250" transform="scale(-1 1)"/><path d="m181.33938 83.856939c97.52275-31.84694 203.27597 26.159281 217.12696 131.568651 10.04116 85.89723-45.79566 162.6049-131.11288 174.6444-76.26503 6.65-147.16573-45.4981-149.44603-126.3231.16679-50.89801 30.03241-87.97493 76.60677-108.40662 44.00125-16.48183 90.46555-3.00917 112.28155 39.63622 17.95322 40.0953 3.57775 87.31302-40.4313 103.80676-21.98685 8.23292-51.6578-5.55285-56.72562-31.5612 24.48155 21.7253 69.7211 11.74379 80.1808-21.06198 5.24648-24.88185-11.48198-41.52298-24.36368-55.64156-23.21161-15.22125-63.26956-13.16738-85.32502 12.05139-41.51846 46.43224-18.48961 112.52397 35.72777 131.08081 60.66482 17.11352 118.96473-29.63961 126.96137-92.39988 2.7637-54.83226-40.99398-106.19486-96.51046-114.27807-76.21988-10.3001-138.45939 50.84936-147.743191 124.09106-9.31956 73.21828 47.315731 138.67973 111.863041 158.33924 49.05305 9.49897 98.18701 2.07129 139.64056-27.40671 82.90715-58.95602 100.11901-177.97214 43.55644-260.39974-52.71171-79.885311-158.575-103.987181-249.15842-67.061741-86.705021 39.45169-149.0660905 134.549061-117.102931 229.167621 15.77888-74.65377 50.93986-153.5943 123.407351-187.514491 9.28724-4.60517 19.44718-8.7232 30.56692-12.33106zm-160.722321 286.075591c-52.57825-113.8254-.38403-260.89182 113.777041-317.643861 10.84604-5.32012 22.21219-9.7712 34.03518-13.36069 115.76394-28.75816 246.03978 34.00351 263.68455 158.897471 10.04526 85.91695-27.72044 168.80365-107.97396 206.83173-102.24035 46.26108-224.798841-11.43986-234.690511-131.24969-7.33455-123.78718 127.307171-194.136761 222.718561-137.24102-42.54074-27.89653-94.21826-33.44528-140.80825-12.98978-71.17376 32.62266-105.080851 118.0397-80.762351 190.63139 30.697281 88.13423 123.572931 132.04164 212.817841 105.59803 82.80488-25.06359 132.16266-100.33164 140.19255-180.04986 12.12434-145.020371-132.23823-245.3588802-265.59709-221.973611 7.92036-4.10499 20.5989-8.4277792 35.61563-11.7452592 60.06317-13.23825 124.63426-3.45807 179.45368 32.4903392 109.65077 71.904621 141.09454 217.803071 65.16008 333.599141-143.00482 218.07486-377.311781 117.06797-437.622951-1.79433" fill="#b21a1a"/></g><g opacity=".9" stroke-width=".900001"><path d="m69.966797 148.69336c-3.05865-.006-5.722106 2.00042-7.396848 4.42828-8.489906 9.89394-18.459254 18.56384-25.718442 29.47705-2.48738 3.81117-4.664493 7.99128-5.312514 12.54592-.222483 2.70681.654605 5.34155 1.353535 7.91907 2.870237 9.23503 8.782713 17.20093 15.539844 23.98369 3.574706 3.59666 7.437238 6.90169 11.493409 9.94286-5.999197 9.76693-13.771956 18.25059-20.594472 27.41982-2.877391 3.93791-5.652838 8.01416-7.583262 12.51183-1.70166 4.17596-2.152983 9.05492-.286266 13.2571 1.216701 2.94424 3.499298 5.38807 6.286265 6.91166 8.972771 5.71364 19.29882 8.6873 29.442832 11.56196 7.900845 2.24191 15.771662 4.39798 23.383032 7.56821 3.224971 1.34508 6.379502 2.86844 9.398746 4.6288.214494 1.04117.351524 2.175.408674 3.11201.39022 6.73797-2.019619 13.2726-5.155774 19.12482-4.759446 8.89893-11.452685 16.57477-18.438214 23.78634-5.130199 5.32743-10.286207 10.62997-15.408436 15.96511 8.655161.39761 17.283371 1.02286 25.957759 1.28588 10.179768.29994 20.379045-.37177 30.458005-1.8025 6.68724-.94694 13.28696-2.42697 19.7895-4.24241 18.68538-5.00812 37.01929-12.03994 53.2544-22.6927 11.3424-7.47727 20.99022-17.20344 29.80431-27.46916 5.36625-6.20256 10.59109-12.64134 15.91181-18.80958 4.89702-5.69789 10.03047-11.20183 15.58948-16.2623 10.05152-9.27356 20.80461-17.96037 29.20924-28.84275 6.37762-8.29291 11.14642-17.668 15.62369-27.08182 7.51892-16.14836 13.93015-32.82427 18.97314-49.91153 1.21265-4.45887 2.50877-8.97691 2.59611-13.62851.0898-2.96475-.73935-6.21968-3.20986-8.08604-1.78884-1.43301-4.10874-1.93053-6.34802-2.04602-24.11328-3.308-48.22851-6.60134-72.34589-9.87931-13.72713 3.83318-27.49869 7.54753-41.45508 10.46094-7.87445 1.63122-15.97452 3.05261-24.02413 4.04731-3.88903.48022-7.92139.87466-11.89384 1.13042-3.93187.25302-8.07487.36957-12.09284.30195-1.52008-.0247-3.08017-.0651-4.50111-.13819-4.95438-.25477-9.93054-.64105-14.77519-1.10126-1.71248-.18517-3.33901-.34204-4.99115-.55272-1.50896-.17365-2.81981-.34759-4.33563-.56183-4.22491-.60532-8.51923-1.33313-12.60765-2.24941-7.387612-1.66467-14.753076-3.8174-21.440569-7.44073-.432795-.23549-1.171113-.65832-1.710938-.98242-2.661805-1.58191-5.091967-3.52537-7.294922-5.69531-1.539223-1.27283-3.559275-1.9505-5.552734-1.89453z" fill="#861313" filter="url(#c)"/><path d="m69.904297 154.71094c-1.484831.14659-2.080231 1.67375-3.01709 2.60818-6.354775 7.37142-13.496894 14.02625-19.720777 21.51531-3.366761 4.0342-6.573108 8.31688-8.609789 13.19487-.514782 1.35213-1.023312 2.77044-1.087187 4.21696 1.169615 8.03399 5.383308 15.28714 10.511766 21.44754 8.069799 9.58934 18.279358 17.15798 29.100493 23.37038 2.455304 1.39794 4.955835 2.71706 7.498365 3.94949-5.292277-.8342-10.360275-2.83304-14.896484-5.66797-1.025358-.61789-2.050761-1.23571-3.076172-1.85351-3.177285 5.51616-6.872081 10.71348-10.818151 15.70279-5.135146 6.60621-10.688125 12.91477-15.225008 19.96409-2.003535 3.1983-4.053212 6.61726-4.321676 10.47212-.150223 2.55257.798443 5.21851 2.658131 6.99353 3.628715 2.66336 7.708939 4.67051 11.855275 6.40077 10.128076 4.0998 20.858036 6.36806 31.236456 9.71234 5.424192 1.72223 10.781885 3.69698 15.900129 6.19576 1.474946.72927 3.125632 1.59199 4.626902 2.45231.8837.5531 1.89753 1.01496 2.66623 1.67841 2.06532 6.52164 1.3983 13.64021-.79118 20.03921-.36511 1.09711-.86591 2.41802-1.35831 3.57208-3.588436 8.53978-9.133875 16.09612-15.159512 23.06835-4.150582 4.78447-8.682827 9.21649-13.052489 13.79707 7.981269.42394 15.978589.93854 23.971419.50004 11.396752-.47157 22.792822-1.88354 33.821922-4.85672 18.95315-4.83766 37.63384-11.63085 54.13194-22.29994 7.00929-4.52198 13.39598-9.95087 19.24875-15.8829 14.41257-14.53529 25.94079-31.70457 41.027-45.60297 10.11867-9.43301 21.10081-18.10534 29.61763-29.10592 5.88146-7.64841 10.27993-16.29167 14.45888-24.94955 6.83921-14.48812 12.63754-29.46085 17.51152-44.72001 1.47601-4.77601 2.90506-9.58933 3.75069-14.52251.20548-1.69429.3366-3.46601-.0671-5.13179-.40159-1.20967-1.7605-1.64752-2.92383-1.61133-15.53515-2.15965-31.08579-4.24402-46.62689-6.37473-8.56451-1.16718-17.12876-2.33619-25.69343-3.50222-7.4977 2.08585-14.99248 4.14832-22.48393 6.03017-15.78168 3.95121-31.76185 7.28808-47.96528 8.921-1.053.0925-2.20331.21192-3.30121.29838-8.27151.70789-16.59693.8199-24.87805.20184-8.1041-.50626-16.25992-1.28807-24.32795-2.57491-3.93634-.62562-8.06609-1.42735-12.02925-2.38432-3.89876-.93536-7.887603-2.11029-11.56706-3.46677-6.670738-2.46761-13.187164-5.80548-18.304688-10.82617-.53954-.67092-1.421984-1.10526-2.291015-.96875z" fill="#e51a1a" filter="url(#b)"/><path d="m83.819358 373.99366c11.279394.68941 29.395842-.22092 43.564472-3.62431 20.799-4.99605 41.70592-12.27271 59.39025-24.30697 20.466-13.92719 34.15264-35.84634 51.39061-53.61362 12.86859-13.26374 28.76921-24.06536 38.84571-39.55703 15.56587-23.93107 32.2542-73.13715 31.53257-79.62806l-71.21485-9.70898c-24.43466 6.82113-63.03353 17.30061-95.11956 15.609-24.80693-1.30785-56.211648-5.1603-71.863953-19.73378-8.033538 9.76055-26.543596 25.76106-28.856975 36.60121 3.702137 24.31486 42.144231 47.6441 63.951858 52.33308-16.251203 2.94826-27.654151.63113-37.484387-5.39475-7.741701 12.76374-20.006531 24.71481-25.938698 35.55109-2.092481 4.1514-2.468282 6.56237-.549698 9.05911 17.323067 12.11627 43.935934 11.69013 67.016093 26.76133 8.86275 23.95791-14.612456 49.39386-24.663442 59.65268z" fill="#ff8066"/></g><path d="m238.75195 145.61133a18.0018 18.0018 0 0 0 -12.375 3.6582c-19.08811 14.63117-40.48627 25.41196-63.55468 34.18164l-17.84571 2.21094a18.0018 18.0018 0 0 0 -15.65039 20.07812l3.16797 25.56446a18.0018 18.0018 0 0 0 20.07617 15.64843l20.33789-2.51953a18.0018 18.0018 0 0 0 2.97852-.6289c14.93724-4.49926 30.88481-9.70537 46.47656-18.16797 5.76291 68.69482-5.41166 140.32874-5.88281 213.56055a18.0018 18.0018 0 0 0 18.20703 18.11328c11.13114-.12817 23.45362-.005 33.42383.25976a18.0018 18.0018 0 0 0 18.41797-19.46093c-.21243-2.59713-1.8545-24.74147-.06836-48.41797 1.78617-23.67651 9.33566-48.13725 15.92968-54.13868.35415-.3223 14.41058-4.42152 27.75196-4.02343 6.27877.18735 12.07987.76058 16.58008 1.31054 5.50542 11.43305 4.93935 18.65566 2.01757 37.03125a18.0018 18.0018 0 0 0 13.27735 20.25391l28.04687 7.24023a18.0018 18.0018 0 0 0 22.24219-14.39648c3.19088-18.67609 1.78316-51.3814-6.42578-93.35547a18.0018 18.0018 0 0 0 -1.05274-3.4707c-3.10017-7.43641-7.38593-9.25321-9.97851-10.67969-1.74377-.95945-3.00633-1.37857-4.36133-1.90234 1.1962-21.86477 4.6946-45.77033-.59375-72.83399a18.0018 18.0018 0 0 0 -6.52539-10.6875c-9.5531-7.52716-20.62815-12.12665-32.36719-17.17383-11.73903-5.04716-23.98913-10.09545-33.91797-15.44726a18.0018 18.0018 0 0 0 -4.97656-1.79688s-20.94474-4.28792-33.13086-5.99609c-14.41633-2.02078-40.22461-4.01367-40.22461-4.01367zm92.22266 86.64844c1.60333.48975 3.2143.97021 4.88477 1.375.70478 8.21425.22276 17.91914-.45313 27.83789-1.06757-.36338-2.5742-.72017-3.43164-1.08399-1.76398-.74846-2.06527-.96-2.57031-1.23242.85427-10.44628 1.39031-19.26122 1.57031-26.89648z" fill="#861313" stroke-linecap="round" stroke-linejoin="round"/><path d="m237.32812 163.55469c-21.37317 16.38268-45.0533 28.15121-69.95898 37.4707l-20.17982 2.50055 3.1678 25.56455 20.33819-2.52018c23.04898-6.94259 45.84755-14.80431 65.92383-32.65039 13.29299 81.40852-1.61487 163.97686-2.13867 245.39258 11.41199-.1314 23.89438-.008 34.10937.26367-.5094-6.22799-6.92542-91.29626 21.68555-117.33594 16.86598-15.34948 68.16016-5.89257 68.16016-5.89257 11.80349 19.78648 11.75762 33.23313 8.08203 56.34961l28.04687 7.24023c2.2221-13.00589 1.53619-46.54738-6.34961-86.86914-1.1061-2.6532-9.40502-4.28703-16.23242-7.23633-.1647-27.61197 5.64159-54.04232.2461-81.6543-12.94379-10.19879-41.39167-18.89727-63.68555-30.91406 0 0-21.3074-4.30553-32.06471-5.81342-12.98752-1.8205-39.15014-3.89556-39.15014-3.89556zm73.64063 39.41797c12.39479 7.52939 24.68262 13.93404 40.375 14.86914 6.14429 21.47398 1.47059 44.91574.74609 66.39062-19.89808-3.92039-38.80245-8.53174-41.06054-20.83203 2.67479-31.01487 3.10205-44.24395-.0605-60.42773z" fill="#ff8066" stroke-linecap="round" stroke-linejoin="round" stroke-width="36"/><path d="m348.85547 368.13672c-4.1265 19.57496-11.71938 38.22594-22.41406 56.9414l-9.32032 15.34376c-24.28885-1.96864-49.95267-3.10471-76.81054-2.96485l-17.90625.09375v.31055c-49.18905 1.19958-92.40136 6.10023-128.957034 12.40234 42.791074 30.03534 97.230674 50.11998 153.992184 49.55274a250 249.99998 0 0 0 2.56055.18359 250 249.99998 0 0 0 8.79883-.62891c2.52516-.14858 5.04927-.30989 7.58008-.54297a250 249.99998 0 0 0 160.05664-73.00781c-1.98679-13.70808-6.87874-27.58746-14.20899-41.32226z" fill="#861313"/><path d="m152.49414 212.05859c1.09429 7.37321 2.3981 14.77315 2.18644 22.25737-.008 6.30836-1.15669 12.53085-2.23527 18.7231-8.4681 0-16.9362 0-25.40429 0v21.33008c1.63446-.72747 3.3016-1.50141 4.85785-2.17238 4.87386-2.0849 9.98138-3.62386 15.19683-4.57371.10685 26.02845 1.29709 52.04046 1.29363 78.07025.0538 8.69492.50602 17.41525 2.03994 25.98709.96066 5.36277 1.72201 10.75716 2.33729 16.17002 2.21591 18.05146 4.55267 36.11243 8.18043 53.94246.61858 2.02933 1.23716 4.05866 1.85574 6.08799.70402-2.34946 1.59683-4.64889 2.17061-7.03285 4.36626-20.35572 6.72524-41.06168 9.07157-61.72605 1.03647-8.55306 1.91091-17.13118 2.24054-25.74397.65469-15.99216.5011-32.00311.47822-48.00494-.0599-12.42578-.14844-24.85144-.17578-37.27735 6.62823 1.27776 13.06311 3.37712 19.35951 5.78372.84047.58218.7659-.1473.72057-.83489 0-6.66849 0-13.33698 0-20.00547-8.46224 0-16.92448 0-25.38672 0-.58794-4.10185-1.11877-8.3041-1.29606-12.36816-.241-6.42699-.11416-12.87868.63786-19.27051.0953-.74126.21741-1.78704.32299-2.64522.38954-3.00092.82681-5.99535 1.25123-8.9915-6.6823-.00004-13.36459-.002-20.04688-.002.11458.76562.22917 1.53125.34375 2.29687z" fill="#e51a1a" filter="url(#a)"/><path d="m174.58267 265.69179c6.74544 1.15046 13.45804 3.06581 20.08469 5.58471l-.00032-16.23736h-25.12199c-1.47265-9.95563-1.70618-14.05555-1.66435-21.11589.0439-7.41699.57308-12.2048 2.01115-22.16028l-15.41894-.00045c1.50028 9.9542 2.29357 14.7373 2.21521 22.16055-.0748 7.08981-.82099 11.16197-2.56201 21.11575l-25.08484.00045v16.23678c6.605-3.05557 13.30859-5.00876 20.04723-6.01068.01 24.94193 1.2829 53.9104 1.2829 77.41661s2.17293 26.80305 3.79494 40.14673c2.37444 19.53363 4.75034 38.72155 8.68618 58.3897 4.1379-19.14418 6.49548-38.40913 8.6774-57.75383 1.53002-13.56501 2.67372-20.49552 3.08909-40.83642.41538-20.3409-.0199-53.33416-.0363-76.93637z" fill="#861313"/><path d="m271.39453 73.697266c-1.53883-.03193-3.09045.04884-4.64844.253906-12.46026 1.640029-22.50093 10.809163-28.04297 21.691406-5.75087 11.291082-7.87258 24.858062-5.95507 39.435542 1.91734 14.57626 7.47497 27.13068 15.95117 36.55079 8.1677 9.07889 20.23592 15.33836 32.69726 13.69921 12.46112-1.63911 22.50165-10.80719 28.04493-21.68945h.002v-.002c5.74888-11.29016 7.87249-24.85479 5.95508-39.43164-1.9175-14.57749-7.47621-27.132297-15.95117-36.552736-7.14757-7.944971-17.28095-13.73155-28.05274-13.955078z" fill="#861313"/><path d="m254.74323 103.81119c-3.73784 7.33794-5.62005 17.74146-4.14982 28.91858 1.47011 11.17622 5.97753 20.73744 11.48685 26.85994 5.50742 6.12183 11.42802 8.62184 16.96928 7.89295 5.54217-.72901 10.61575-4.67518 14.3536-12.01312 3.73683-7.33872 5.61837-17.74034 4.14827-28.91656-1.47022-11.17712-5.97788-20.74013-11.4853-26.86196-5.50741-6.121835-11.42992-8.622506-16.97202-7.893053-5.54121.729338-10.6139 4.675395-14.35086 12.013223z" fill="#ff8066" stroke-width="36"/></svg>