<svg height="500" viewBox="0 0 500 500" width="500" xmlns="http://www.w3.org/2000/svg" xmlns:xlink="http://www.w3.org/1999/xlink"><linearGradient id="a"><stop offset="0" stop-color="#ff851a"/><stop offset=".42441937" stop-color="#f87000"/><stop offset=".86367416" stop-color="#f26900"/><stop offset="1" stop-color="#e55f00"/></linearGradient><radialGradient id="b" cx="1362.7291" cy="216.11429" gradientTransform="matrix(1.0000001 -.0000059 .0000001 1.0000003 -112.72927 33.893757)" gradientUnits="userSpaceOnUse" r="250" xlink:href="#a"/><radialGradient id="c" cx="256.12204" cy="158.31712" gradientTransform="matrix(.00000002 -.53042197 -1.0089913 -.00000006 415.86264 332.46376)" gradientUnits="userSpaceOnUse" r="89.968075" xlink:href="#a"/><g transform="translate(-1000)"><path d="m1500 250a250 250 0 0 1 -250 250 250 250 0 0 1 -250-250 250 250 0 0 1 250-250 250 250 0 0 1 250 250z" fill="url(#b)" stroke-linecap="round" stroke-linejoin="round" stroke-width="1.002"/><path d="m1309.2298 33.82789c128.5196 30.706851 207.8974 167.48127 169.5927 291.56949-31.3771 95.69524-112.8693 162.03793-212.5543 174.60263 153.1796-8.09118 266.0956-163.0043 218.7012-309.92978-36.4562-114.666588-154.6038-191.5214848-270.6514-169.822657-18.8526 4.215647-38.4387 10.498641-55.8829 18.694487-112.5353 47.459213-168.47522 196.206-99.9632 307.85319 57.6978 93.63045 168.5136 141.8489 267.9993 100.77239-134.92 68.97589-303.283-51.46877-311.488-201.30723-4.4167-117.68321 76.8182-219.674136 190.654-246.26040176-89.0147 9.18391126-152.6601 79.39239576-187.7408 157.21169176-38.45522 102.70317 5.2337 231.75078 109.038 294.08388 114.5107 66.1048 260.3537 29.37245 323.6836-83.60152 42.2104-77.69758 34.3514-177.62383-23.1776-249.88923-57.5404-72.257811-157.5429-102.460489-246.4118-71.877168-81.7429 30.682061-131.1298 101.133078-134.0478 190.176958.6692 92.68536 61.7912 168.55972 147.5399 198.52472 128.5549 37.82014 266.7725-70.33038 233.6823-209.88949-14.7104-64.39775-57.8855-122.14991-125.7378-141.121386-71.391-15.467036-138.9716 1.205-181.2869 64.641366-18.8995 29.2286-28.9384 85.21395-26.105 97.65297m0 0c13.5324-50.18833 30.6277-97.66354 72.2125-128.94941 53.182-38.308183 124.4576-37.093813 181.7444-.48035 50.1457 36.48017 75.4845 90.37713 72.3557 150.91678-6.6674 64.04407-38.4038 109.83277-91.6401 141.00844-63.9019 34.56125-135.3795 4.83213-189.1258-35.28385-78.8706-65.48566-79.7477-186.67235-8.9744-256.76104 63.7369-55.941605 167.0207-64.891564 238.7167-6.65053 78.8163 58.35315 90.3045 169.04089 40.972 246.62443-35.2274 56.41892-88.4571 87.60135-152.5581 93.63158-81.9488 2.18264-160.666-41.91503-196.8695-120.9383-36.2055-79.02511-22.5771-164.33167 26.8727-227.66064 49.4316-63.30896 138.3491-86.746364 220.4504-67.54202" fill="#c50"/></g><path d="m305.7793 75-14.84961 2.832031-47.42774 9.042969-3.95703 4.064453c-5.26936 5.414345-12.3471 8.976344-20.03906 9.490237-7.03383.46898-15.05212-1.610839-23.14063-8.093752l-10.85546-8.701172-53.12696 39.578124-1.71875 5.66992c-10.90909 35.97319-42.043388 109.63599-84.359372 165.47266l-.220704.28906-.548828.79102-17.568359 28.80664-1.265625-1.89063-11.978516 10.40235a250 250 0 0 0 235.277344 167.24609 250 250 0 0 0 29.2207-2.08984c-4.29659.75527-8.58393 1.53913-12.95312 2.08984 54.74474-2.8917 104.28822-24.60237 143.26758-57.93359a250 250 0 0 0 11.90429-10.85352c1.9229-1.87123 3.8268-3.75716 5.6875-5.6875a250 250 0 0 0 57.42774-91.31055l-20.83008-22.66992-10.70703-11.43359-.22266-.22071c-38.17564-38.01524-53.42041-80.44973-59.39258-144.42578l-.65039-6.9707-5.18945-4.69922c-20.47604-18.54074-49.21959-30.2865-77.89453-37.91211l8.68164 2.30469z" fill="#994100"/><path d="m294.30078 95.513672-41.85547 7.980468c-8.15266 8.37695-19.30851 14.06666-31.74219 14.89648-11.69427.77972-24.29488-2.95217-35.5957-12.00976l-37.21875 27.72656c-11.63875 38.37926-42.95281 112.68372-87.238279 171.11914l-.03125.04492-11.296875 18.52344 1.164062 1.74024-29.046875 25.22656a250 250 0 0 0 228.560547 149.23828 250 250 0 0 0 29.2207-2.08984c-4.29659.75527-8.58393 1.53913-12.95312 2.08984 54.74474-2.8917 104.28822-24.60237 143.26758-57.93359a250 250 0 0 0 11.90429-10.85352c1.9229-1.87123 3.8268-3.75716 5.6875-5.6875a250 250 0 0 0 49.95313-72.8418l-26.55274-28.89648-10.43359-11.14258c-41.3839-41.21002-58.43141-89.28325-64.61328-155.50586-16.77011-15.18508-43.53748-26.7072-70.43945-33.86133l-.25-.0664z" fill="#ffa348" stroke-width="36"/><path d="m139.09931 398.58605c3.24523-7.22812 6.53564-14.43594 9.72227-21.69014-7.86488-10.85094-15.73255-21.69989-23.5992-32.54955 18.52541-48.38067 41.4381-95.06987 62.72559-142.29999 17.63202 5.652 40.15679 9.2624 64.72403 9.5504l7.224 91.79999 22.85117 100.77438-4.10079-105.34958 11.77599-59.10079 21.19842 30.24957-.82401-64.34957c12.15573-3.08506 23.35342-6.5924 33.59921-12.376 5.9328 29.8192 23.38 58.19841 48.05121 86.6-11.89206-36.99629-30.70719-72.76325-30.55026-107.0744 0-3.9232-1.85839-8.052-6.624-12.6504-4.76799-4.5984-12.31839-9.2592-21.97599-13.2-19.3144-7.8824-46.92162-13.024-77.44962-13.02319s-58.16001 5.14481-77.47521 13.02641c-9.6576 3.9408-17.184 8.6016-21.9504 13.2-3.16158 3.0504-5.05837 5.8856-5.97438 8.6-.034.0984-.0695.2016-.10016.29998-10.21281 30.3552-23.808 60.7176-39.3008 91.07441 19.43999-18.71441 35.53602-39.92161 45.40002-62.25041l-10.9248 47.50001c-12.37 33.77921-24.69727 67.57407-37.07522 101.35038 7.76893 10.67781 15.50331 21.38072 23.25039 32.0744l-5.87668 12.72329c4.18223 2.4291 8.67256 4.77554 13.27922 7.0908z" fill="#994100"/><path d="m346.89692 172.76102c-.1296-4.32736-6.60277-5.7091-10.41716-7.75685-9.20655-4.94253-19.47488-7.65551-29.4974-10.61153-5.09635-1.50311-10.26397-2.87479-15.52662-3.60735-12.81943-1.78448-25.84087-1.94385-38.78373-1.8763-10.64611.0556-21.32379.52248-31.88362 1.8763-9.46041 1.21286-18.86465 3.06194-28.06435 5.57906-6.89866 1.88753-14.96173 2.29039-20.2433 7.11318-3.14562 2.87237-6.37304 7.49765-5.31165 11.62303 1.22478 4.76044 7.5644 6.36582 11.84122 8.78876 4.89883 2.77534 10.1951 4.90712 15.60735 6.45911 8.50269 2.43819 17.37841 3.42111 26.17074 4.38831 11.72372 1.28967 23.53922 1.87425 35.33366 1.87425 11.79445 0 23.64875-.27061 35.33367-1.87425 8.94162-1.22713 17.78239-3.30229 26.42501-5.90299 6.2089-1.86835 12.58505-3.64883 18.17164-6.93991 4.07193-2.39879 10.986-4.40898 10.84454-9.13282z" fill="url(#c)"/></svg>