<svg height="500" viewBox="0 0 500 500" width="500" xmlns="http://www.w3.org/2000/svg" xmlns:xlink="http://www.w3.org/1999/xlink"><radialGradient id="a" cx="1362.7291" cy="216.11429" gradientTransform="matrix(1.0000001 -.0000059 .0000001 1.0000003 -112.72927 33.893757)" gradientUnits="userSpaceOnUse" r="250"><stop offset="0" stop-color="#ff851a"/><stop offset=".42441937" stop-color="#f87000"/><stop offset=".86367416" stop-color="#f26900"/><stop offset="1" stop-color="#e55f00"/></radialGradient><filter id="b" color-interpolation-filters="sRGB" height="1.00741" width="1.007593" x="-.003797" y="-.003705"><feGaussianBlur stdDeviation=".5743796"/></filter><filter id="c" color-interpolation-filters="sRGB" height="1.006269" width="1.005753" x="-.002877" y="-.003135"><feGaussianBlur stdDeviation=".59927413"/></filter><g transform="translate(-1000)"><path d="m1500 250a250 250 0 0 1 -250 250 250 250 0 0 1 -250-250 250 250 0 0 1 250-250 250 250 0 0 1 250 250z" fill="url(#a)" stroke-linecap="round" stroke-linejoin="round" stroke-width="1.002"/><path d="m1309.2298 33.82789c128.5196 30.706851 207.8974 167.48127 169.5927 291.56949-31.3771 95.69524-112.8693 162.03793-212.5543 174.60263 153.1796-8.09118 266.0956-163.0043 218.7012-309.92978-36.4562-114.666588-154.6038-191.5214848-270.6514-169.822657-18.8526 4.215647-38.4387 10.498641-55.8829 18.694487-112.5353 47.459213-168.47522 196.206-99.9632 307.85319 57.6978 93.63045 168.5136 141.8489 267.9993 100.77239-134.92 68.97589-303.283-51.46877-311.488-201.30723-4.4167-117.68321 76.8182-219.674136 190.654-246.26040176-89.0147 9.18391126-152.6601 79.39239576-187.7408 157.21169176-38.45522 102.70317 5.2337 231.75078 109.038 294.08388 114.5107 66.1048 260.3537 29.37245 323.6836-83.60152 42.2104-77.69758 34.3514-177.62383-23.1776-249.88923-57.5404-72.257811-157.5429-102.460489-246.4118-71.877168-81.7429 30.682061-131.1298 101.133078-134.0478 190.176958.6692 92.68536 61.7912 168.55972 147.5399 198.52472 128.5549 37.82014 266.7725-70.33038 233.6823-209.88949-14.7104-64.39775-57.8855-122.14991-125.7378-141.121386-71.391-15.467036-138.9716 1.205-181.2869 64.641366-18.8995 29.2286-28.9384 85.21395-26.105 97.65297m0 0c13.5324-50.18833 30.6277-97.66354 72.2125-128.94941 53.182-38.308183 124.4576-37.093813 181.7444-.48035 50.1457 36.48017 75.4845 90.37713 72.3557 150.91678-6.6674 64.04407-38.4038 109.83277-91.6401 141.00844-63.9019 34.56125-135.3795 4.83213-189.1258-35.28385-78.8706-65.48566-79.7477-186.67235-8.9744-256.76104 63.7369-55.941605 167.0207-64.891564 238.7167-6.65053 78.8163 58.35315 90.3045 169.04089 40.972 246.62443-35.2274 56.41892-88.4571 87.60135-152.5581 93.63158-81.9488 2.18264-160.666-41.91503-196.8695-120.9383-36.2055-79.02511-22.5771-164.33167 26.8727-227.66064 49.4316-63.30896 138.3491-86.746364 220.4504-67.54202" fill="#c50"/></g><path d="m95.629394 179.04956c-33.428272 4.40101-69.836933-7.08261-94.92377777-44.49552-6.22612893 48.67 29.62808777 77.03603 72.91332477 97.18144 154.100109 71.71923 67.503739 166.45638-22.652268 73.68673 25.444972 144.77277 299.868517 245.78353 408.111807 167.09388 87.67505-63.73699 30.6237-342.89054-134.36459-385.457372 38.66525 27.845032 4.29314 42.720002-38.66418 37.652382 36.06671 19.97714 58.1408 46.62266 30.40581 70.85519-27.48043 24.01141-67.73242-21.19389-73.08053-61.24741-8.43095-63.131843-14.59452-96.444693-97.65282-92.901232 33.83279 26.589443 39.45378 56.788146 28.955 82.182402-48.13022-32.939331-113.668431-60.219854-155.252173-71.517287z" fill="#ffa348" filter="url(#c)" opacity=".5"/><path d="m-95.898437-143.57812-12.703123 13.84375-46.45117 50.621089 383.86914 384.324221-12.13086 2.49023-22.50586 62.93164 258.82031 99.26172-99.54883-258.34375-62.6875 21.97656-1.62305 7.93164z" fill="#994100"/><path d="m260.23802 201.13898c20.37353-22.05936-9.04539-59.63667-42.22073-79.57812 41.50655-7.41112 67.37481 22.15575 86.5034 58.44951 26.99169 51.21326 38.85273 74.06758 63.19797 58.75082 32.80081-20.63657 15.87233-66.69157-34.5013-111.02033 125.33216 15.68808 199.04416 224.79782 136.10703 321.04046-50.97775 77.95472-288.1773 53.07432-331.71914-86.71861 25.54053 32.00157 36.84683 1.8698 30.67267-34.78304 18.67753 30.1056 48.74892 40.67599 62.10314 23.08579 7.57739-9.98096 12.51569-27.5331-22.08744-30.42159-54.54106-4.55398-63.563 1.46928-64.05021-69.96603 24.25764 27.90745 59.38684 43.03283 71.7631 21.35944 19.59185-34.30936-41.23081-65.60179-86.85354-80.65494 0 0 35.25082-29.01082 64.56766-18.3256 26.82872 9.77838 50.12592 46.53004 66.51739 28.78224z" fill="#ffa348" filter="url(#b)" opacity=".5" transform="matrix(1.0418358 .05603416 -.05603416 1.0418358 -11.507633 -46.077642)"/><path d="m-95.339073-117.56415 395.403903 395.4039 6.28625-30.70347 36.58035-12.82419 78.71712 204.2794-204.59478-78.46442 13.17091-36.829 34.93574-7.1697-395.2992-395.768578z" fill="#ffa348" stroke-width="36"/><path d="m176.87646 170.08037c-24.4515 1.45057-47.72405 20.60136-47.72405 20.60136 45.62268 15.05314 106.44641 46.34605 86.85458 80.65538-.06009.10522-.13924.17912-.20039.28261l67.63012 60.79774-33.06688 8.66048-10.70887 35.92523 199.85069 64.56523-85.85328-191.45875-34.34977 14.15673-4.43678 29.70884-137.98042-123.89566c-.00498.0003-.00998.00051-.01495.00081z" fill="#ff851a" opacity=".75" transform="matrix(1.0418358 .05603416 -.05603416 1.0418358 -11.507633 -46.077642)"/></svg>