<svg height="500" viewBox="0 0 500 500" width="500" xmlns="http://www.w3.org/2000/svg" xmlns:xlink="http://www.w3.org/1999/xlink"><radialGradient id="a" cx="1362.7291" cy="216.11429" gradientTransform="matrix(1.0000001 -.0000059 .0000001 1.0000003 -112.72927 33.893757)" gradientUnits="userSpaceOnUse" r="250"><stop offset="0" stop-color="#ff851a"/><stop offset=".42441937" stop-color="#f87000"/><stop offset=".86367416" stop-color="#f26900"/><stop offset="1" stop-color="#e55f00"/></radialGradient><g transform="translate(-1000)"><path d="m1500 250a250 250 0 0 1 -250 250 250 250 0 0 1 -250-250 250 250 0 0 1 250-250 250 250 0 0 1 250 250z" fill="url(#a)" stroke-linecap="round" stroke-linejoin="round" stroke-width="1.002"/><path d="m1309.2298 33.82789c128.5196 30.706851 207.8974 167.48127 169.5927 291.56949-31.3771 95.69524-112.8693 162.03793-212.5543 174.60263 153.1796-8.09118 266.0956-163.0043 218.7012-309.92978-36.4562-114.666588-154.6038-191.5214848-270.6514-169.822657-18.8526 4.215647-38.4387 10.498641-55.8829 18.694487-112.5353 47.459213-168.47522 196.206-99.9632 307.85319 57.6978 93.63045 168.5136 141.8489 267.9993 100.77239-134.92 68.97589-303.283-51.46877-311.488-201.30723-4.4167-117.68321 76.8182-219.674136 190.654-246.26040176-89.0147 9.18391126-152.6601 79.39239576-187.7408 157.21169176-38.45522 102.70317 5.2337 231.75078 109.038 294.08388 114.5107 66.1048 260.3537 29.37245 323.6836-83.60152 42.2104-77.69758 34.3514-177.62383-23.1776-249.88923-57.5404-72.257811-157.5429-102.460489-246.4118-71.877168-81.7429 30.682061-131.1298 101.133078-134.0478 190.176958.6692 92.68536 61.7912 168.55972 147.5399 198.52472 128.5549 37.82014 266.7725-70.33038 233.6823-209.88949-14.7104-64.39775-57.8855-122.14991-125.7378-141.121386-71.391-15.467036-138.9716 1.205-181.2869 64.641366-18.8995 29.2286-28.9384 85.21395-26.105 97.65297m0 0c13.5324-50.18833 30.6277-97.66354 72.2125-128.94941 53.182-38.308183 124.4576-37.093813 181.7444-.48035 50.1457 36.48017 75.4845 90.37713 72.3557 150.91678-6.6674 64.04407-38.4038 109.83277-91.6401 141.00844-63.9019 34.56125-135.3795 4.83213-189.1258-35.28385-78.8706-65.48566-79.7477-186.67235-8.9744-256.76104 63.7369-55.941605 167.0207-64.891564 238.7167-6.65053 78.8163 58.35315 90.3045 169.04089 40.972 246.62443-35.2274 56.41892-88.4571 87.60135-152.5581 93.63158-81.9488 2.18264-160.666-41.91503-196.8695-120.9383-36.2055-79.02511-22.5771-164.33167 26.8727-227.66064 49.4316-63.30896 138.3491-86.746364 220.4504-67.54202" fill="#c50"/></g><g transform="matrix(.93743563 .34815863 -.34815863 .93743563 48.047699 -51.928538)"><path d="m284.22656 156.42187c-5.76117-5.63367-8.55035-13.68161-12.25-20.83997-4.68094-9.05704-5.70239-19.45947-12.54492-27.8944-25.38252-31.290758-65.97508-48.02631-105.80469-57.074219-24.8935-5.654942-49.47221-8.263506-71.021481-8.11914-12.929564.086619-23.358748 1.507303-34.931641 3.169921-15.414491 2.214521-45.8339843 9.046875-45.8339843 9.046875s26.5965973 16.210169 40.0546873 24.044922c12.619811 7.346742 25.414339 14.38945 38.152344 21.529301 16.052968 8.99794 32.330725 17.59941 48.236325 26.85534 7.75387 4.51221 15.42469 9.17008 30.8203 13.34281 15.39562 4.17274 36.45274 6.73294 52.97267 12.95797 16.38415 6.17387 31.79263 15.56397 45.06738 26.98054 5.24069 4.5071 9.84262 9.67765 25.76225-.25335 7.90455-17.85124 4.43949-20.69689 1.32076-23.7466z" fill="#994100"/><path d="m254.41903 139.54826c-1.82167-8.06257-4.6771-15.23235-8.96672-20.52025-42.41297-52.285337-148.323493-64.776927-194.292494-55.704154 11.388341 6.836537 24.126771 13.853467 37.513749 21.163783 18.182395-1.171949 36.825065-.350895 56.630805 5.494249-11.90902.445542-23.64814 1.373074-33.75587 7.041856.46914.259118.93641.516189 1.40449.776269 17.39079-1.102999 37.77121 2.527837 55.79387 12.495107-11.46127-2.40368-21.50054-.73865-31.41452 1.28524 7.95686 4.62677 15.82325 9.40695 23.59471 14.33787 16.09912.84684 38.13155 4.97268 56.51442 10.34201 10.70512 3.12679 21.13813 7.43612 30.97838 12.63836 1.84023-3.3189 3.89195-6.43834 5.99918-9.35034z" fill="#ffa348" stroke-width="36"/></g><g transform="matrix(.96380259 -.26661688 .26661688 .96380259 -64.61366 113.547481)"><path d="m271.28385 195.55082c4.55305 5.77526 8.76464 11.86572 13.03256 17.81637 9.66651 13.47779 15.71148 29.54952 32.24884 39.5645s27.10887 11.37288 37.86834 13.20503l27.41699 4.65467-3.97656-11.68203c12.64708 2.69984 18.54216 11.93042 30.14583 17.46095l6.46191-12.98732c5.01378 5.79839 5.38726 15.44651 5.38726 15.44651s27.75156 12.75154 38.97668 17.14433c10.5835 4.14138 41.1543 14.05545 41.1543 14.05545s-3.09073-21.47451-11.42188-40.61795c-8.9599-24.56614-27.27417-44.9399-48.73437-61.04102-23.95861-17.97561-52.18588-30.87517-79.24219-37.27734-6.11103-1.44588-12.16276-2.08181-18.09961-2.11524-9.61638.009-19.05812 5.65763-28.46875 3.87891-6.89401-1.30304-13.52617-4.29943-19.50544-8.27051z" fill="#994100"/><path d="m473.97646 282.8811c-11.99574-45.89855-68.65828-82.51085-117.51934-94.07257-12.39495-2.93266-25.22596-1.59584-37.93041 1.67891-5.18175 5.91373-11.10889 11.18283-18.163 14.72533 7.35574 14.47315 15.00935 28.02308 24.05572 39.01033 10.70629.82605 21.80741 2.25759 33.03661 4.16972-6.08622-5.45218-12.4986-9.97476-18.48754-15.70626 16.24958 2.59987 26.9187 7.08678 37.51899 15.19589l-9.33552-22.99712c16.48049 8.80552 28.04362 19.91585 37.10386 32.85845-2.4127-10.89496-7.50328-20.95894-11.14886-31.47065 19.23723 10.65191 28.73483 25.48557 37.88466 40.46852 15.66557 5.09057 30.30299 10.6091 42.98484 16.13944z" fill="#ffa348" stroke-width="36"/></g><g stroke-linecap="round" stroke-linejoin="round" transform="translate(-12.184296 -3.350952)"><path d="m133.85359 355.93559-24.49805 21.25195c-7.57694 6.57426-8.31838 18.07355-1.64844 25.56641l13.50977 15.17578c6.68957 7.51179 18.23669 8.08448 25.63672 1.27148l17.66015-16.26172c24.50122.34301 45.01245-6.96963 64.77539-16.73047 3.41406-1.68651 6.20539-4.41219 7.97266-7.78515 15.79672-30.15639 37.50404-62.80961 44.02344-98.23438 1.67128 2.26235 3.56376 4.80327 5.55468 6.40821l48.3086 38.52734c11.61013 9.25613 28.80297 1.26828 29.21679-13.57422l.61719-22.40039c.13592-4.91346-1.74322-9.66882-5.20117-13.16211l-40.11328-40.50781-16.67383-27.76172c7.62816-3.91485 14.54623-9.39152 22.25836-17.95331s13.74313-20.7161 15.53471-33.39058c1.79152-12.67406-1.19615-27.22913-12.00586-36.92578-12.18998-9.30309-24.15018-11.40185-37.99626-7.98037-12.41465 3.11994-23.87707 10.3879-30.57578 17.83058-6.69872 7.44268-10.07531 12.19452-12.85194 17.18703-11.23718-6.85192-22.79891-11.30627-34.30078-14.03516-19.69948-4.67382-38.95008-5.3316-59.99219-8.00976-10.60034-1.34749-20.03415 6.78175-20.26758 17.46484l-.46484 21.38086c-.22366 10.33386 8.28106 18.73326 18.61133 18.38086 30.82008-1.05291 44.57939 1.90918 67.83398 15.31445 1.3715 1.65367 2.74838 3.30715 4.02344 4.98047-4.82066 9.77292-8.96749 17.2032-11.55992 20.60746-.70579.86092-11.50509 19.58751-16.11586 29.01363-5.66067 11.57252-6.45154 18.1765-9.93359 22.9375-4.13337 5.65155-11.02637 13.74885-19.33008 23.76172l-37.24219-7.91211c-2.62652-.55792-5.34458-.52122-7.95508.10743l-36.240232 8.72851c-9.155875 2.20632-15.063641 11.09693-13.550781 20.39258l2.33789 14.37109c1.42575 8.75333 9.01431 15.16415 17.882813 15.10742l36.65234-.23632c2.82437.73686 10.08734 1.88251 14.92581 2.93457-3.29632.5664-6.32963 2.00064-8.81833 4.15919z" fill="#994100"/><path d="m310.14669 179.64418c14.50765-16.10946 17.46904-37.06122 6.61508-46.79678-10.85391-9.73655-31.413-4.56931-45.92164 11.5401-9.14098 10.17051-14.05493 22.79511-12.96845 33.32575-31.64609-32.35173-63.24796-29.83799-107.079-35.41664l-.46475 21.38148c33.84423-1.15622 53.31167 3.34748 80.27327 19.31184 4.79668 5.58012 9.19029 11.35119 13.08585 17.33465-7.43066 16.30289-13.11173 26.8149-19.25595 34.30503 0 0-9.01722 16.44381-13.13594 24.86401-4.12214 8.42719-5.31569 17.09707-11.57401 25.65405-6.22072 8.50558-15.00724 18.26587-26.93878 33.00578l-47.90315-10.17536-36.240782 8.72909 2.339041 14.37152 36.652031-.23639c7.27153-.0473 53.06947 11.75303 57.83758 9.6487 16.91171-12.68425 23.61984-25.27665 39.2716-42.97134l-24.10833 55.46919c-19.80209 4.79492-40.50009 14.07575-54.98204 16.54456l-24.49871 21.25088 13.51145 15.17471 23.11752-21.28698c24.41154 2.02977 42.71299-4.31526 63.5387-14.60099 17.24436-32.91998 39.1914-67.0536 43.28434-98.31694 6.09788-8.01935 10.4683-16.68997 12.88067-26.34011l20.58198 27.11087 48.30706 38.52871.61877-22.4007-41.63714-42.04757-23.32823-38.84487c-.0444-3.92488-.21481-7.91602-.21481-11.90897 9.76572-1.22354 20.22396-7.20584 28.33677-16.20728z" fill="#ffa348" stroke-width="36"/></g></svg>