<svg height="500" viewBox="0 0 500 500" width="500" xmlns="http://www.w3.org/2000/svg" xmlns:xlink="http://www.w3.org/1999/xlink"><radialGradient id="a" cx="1362.7291" cy="216.11429" gradientTransform="matrix(1.0000001 -.0000059 .0000001 1.0000003 -112.72927 33.893757)" gradientUnits="userSpaceOnUse" r="250"><stop offset="0" stop-color="#ff851a"/><stop offset=".42441937" stop-color="#f87000"/><stop offset=".86367416" stop-color="#f26900"/><stop offset="1" stop-color="#e55f00"/></radialGradient><g transform="translate(-1000)"><path d="m1500 250a250 250 0 0 1 -250 250 250 250 0 0 1 -250-250 250 250 0 0 1 250-250 250 250 0 0 1 250 250z" fill="url(#a)" stroke-linecap="round" stroke-linejoin="round" stroke-width="1.002"/><path d="m1309.2298 33.82789c128.5196 30.706851 207.8974 167.48127 169.5927 291.56949-31.3771 95.69524-112.8693 162.03793-212.5543 174.60263 153.1796-8.09118 266.0956-163.0043 218.7012-309.92978-36.4562-114.666588-154.6038-191.5214848-270.6514-169.822657-18.8526 4.215647-38.4387 10.498641-55.8829 18.694487-112.5353 47.459213-168.47522 196.206-99.9632 307.85319 57.6978 93.63045 168.5136 141.8489 267.9993 100.77239-134.92 68.97589-303.283-51.46877-311.488-201.30723-4.4167-117.68321 76.8182-219.674136 190.654-246.26040176-89.0147 9.18391126-152.6601 79.39239576-187.7408 157.21169176-38.45522 102.70317 5.2337 231.75078 109.038 294.08388 114.5107 66.1048 260.3537 29.37245 323.6836-83.60152 42.2104-77.69758 34.3514-177.62383-23.1776-249.88923-57.5404-72.257811-157.5429-102.460489-246.4118-71.877168-81.7429 30.682061-131.1298 101.133078-134.0478 190.176958.6692 92.68536 61.7912 168.55972 147.5399 198.52472 128.5549 37.82014 266.7725-70.33038 233.6823-209.88949-14.7104-64.39775-57.8855-122.14991-125.7378-141.121386-71.391-15.467036-138.9716 1.205-181.2869 64.641366-18.8995 29.2286-28.9384 85.21395-26.105 97.65297m0 0c13.5324-50.18833 30.6277-97.66354 72.2125-128.94941 53.182-38.308183 124.4576-37.093813 181.7444-.48035 50.1457 36.48017 75.4845 90.37713 72.3557 150.91678-6.6674 64.04407-38.4038 109.83277-91.6401 141.00844-63.9019 34.56125-135.3795 4.83213-189.1258-35.28385-78.8706-65.48566-79.7477-186.67235-8.9744-256.76104 63.7369-55.941605 167.0207-64.891564 238.7167-6.65053 78.8163 58.35315 90.3045 169.04089 40.972 246.62443-35.2274 56.41892-88.4571 87.60135-152.5581 93.63158-81.9488 2.18264-160.666-41.91503-196.8695-120.9383-36.2055-79.02511-22.5771-164.33167 26.8727-227.66064 49.4316-63.30896 138.3491-86.746364 220.4504-67.54202" fill="#c50"/></g><path d="m94.576172 34.900391c-11.161522.385255-22.140887 4.974492-29.976563 14.148437-7.836582 9.175008-11.123277 23.309239-7.607421 36.75l.191406.728516 14.992187 42.445316c2.988092 10.81394 5.359672 19.25492 8.525391 26.71679 3.241024 7.63938 8.10093 15.62748 16.787109 20.24805s17.628609 4.19818 25.431639 2.9707c7.80303-1.22747 15.83421-3.45083 26.15039-6.0957l26.7461-6.85742c4.04411 9.29177 6.4069 19.42604 8.79687 30.77539 3.35731 15.94297 6.79976 34.43876 19.17188 51.57226 4.79038 6.63396 10.75594 14.8727 18.80273 22.23243 8.04679 7.35971 19.08364 14.45484 33.07227 14.71679 12.13788.2273 21.90801-5.36834 29-11.26757 2.6495-2.20391 4.95991-4.52419 7.12304-6.85743 3.85711 7.76133 10.02606 14.38791 18.42774 18.5293 11.0475 5.44557 26.01504 4.99096 38.31054-2.24609l.6504-.38282 37.18554-26.30859c8.30759-5.8773 15.18011-10.34617 21.25781-15.04297 6.07772-4.69679 12.24285-9.87588 15.77539-18.86328 3.53256-8.9874 1.9141-19.32954-1.49804-27.25781-3.29838-7.66391-8.11803-14.95412-14.52539-24.05078l-20.87696-35.85352-.85937-1.06641s-16.12919-21.27375-31.55859-33.17773c-16.87962-13.022813-44.92188-24.742188-44.92188-24.742188l-2.19336-.986328-2.375-.376953c-35.95189-5.692089-73.20608-6.013672-109.35351-.302734-16.43733 2.596937-36.35608 9.60921-50.53125 15.080078l-10.44141-27.113281c-5.94854-18.190121-23.8633-28.611474-39.675782-28.064453zm226.455078 151.873049c2.889 4.15258 5.26387 7.5653 7.79687 10.98437l-10.71874 8.04297c.28729-2.01239.61602-4.10715.89062-6.04883.63839-4.51408 1.29104-8.81999 2.03125-12.97851z" fill="#994100"/><path d="m144.60016 155.37655c-41.62627 10.67216-43.03691 12.41331-55.27323-31.89384l-14.920286-42.239532c-4.529599-17.3162 7.942799-27.91048 20.793283-28.35291 9.377003-.32545 18.951973 4.74673 22.257993 16.54232l17.00274 44.152852s41.55089-17.328642 63.57589-20.808379c34.1536-5.395932 69.5794-5.104141 103.73123.302953 0 0 28.88545 12.991416 41.30979 22.576936 10.97414 8.46668 28.54747 30.23393 28.54747 30.23393l20.45388 35.13062c26.01444 36.80955 18.1819 36.73787-16.11691 61.003l-36.5708 25.87237c-15.84195 9.32446-29.6616-.58707-33.26357-13.29691-2.39449-8.7158.0949-18.76532 10.15647-24.92534l37.84121-28.39576s-27.74109-35.49213-37.11267-55.75609c-21.56621 33.22599-10.45703 71.43881-30.60968 99.67563-7.29111 10.21591-17.91851 22.29063-30.40508 22.0568-15.88539-.29747-28.27239-16.5449-37.61964-29.48941-19.20307-26.59334-12.7234-61.81557-33.42514-92.73494z" fill="#ffa348" stroke-width="36"/><path d="m122.98216 364.67915c-6.07351 4.78706-10.65594 11.44152-11.94685 20.04894-2.01866 13.45978 2.80677 14.71474 6.04151 21.37484.89353 1.83971 2.33781 3.2667 3.60888 4.9621-2.71214 3.6366-4.42068 7.73851-5.28183 11.55221-1.70454 7.54875-.94151 15.12456 2.28194 23.12594-3.45857 13.91993-9.04224 25.44913-17.798102 33.4096 15.489132-1.57303 27.159252-.50213 50.543312-7.54088 2.82178.29211 10.59098 2.97678 15.97888 2.63929 8.06059-.5049 17.17424-3.11237 23.22567-6.90072 1.02773.23586 1.84699.54323 3.00898.72218l.037.006.037.006c11.89654 1.78195 23.52469-1.59318 32.5019-8.25293 8.98209-6.66338 15.54951-16.85951 17.33434-28.72679.26084-1.72401.21229-3.46253.26747-5.19813 10.86095-3.31817 20.10967-10.00384 26.42101-18.3927 7.04443-1.40638 13.66541-4.22413 19.72457-8.49878 23.91012 2.53971 46.50156-11.1144 56.15165-33.39129 13.33532-7.62232 22.80376-19.86701 26.5867-34.21042 15.99641-4.82925 28.34677-18.56895 30.89014-35.52736 3.22087-21.47577-10.08545-41.91683-30.25131-48.29489-1.99439-19.07783-16.36645-35.42354-35.9689-38.81066-2.5638-10.10091-8.74609-18.83045-16.33217-25.44857-10.28928-8.9764-23.60429-14.93994-39.23226-17.28118-15.62797-2.34123-32.00044-.13195-45.60694 7.53885-6.74889-5.38776-14.78226-9.0679-23.43306-10.36368-24.50682-3.67081-47.57044 11.82046-54.59353 34.89418-16.19421 3.46994-29.27342 16.686-31.82536 33.70166-.28593 2.03814-.26257 3.72511-.27009 5.42359-3.17432 4.88115-5.31354 10.36808-6.18014 16.14628-3.28896 21.92973 12.02602 42.89692 35.67536 46.30573-5.25544 2.38281-11.61292 6.3269-15.70241 12.10081-2.93485 4.1437-4.59963 8.50852-5.51338 12.84377-1.47702.5695-3.46644 1.04069-4.84215 2.14747-4.85178 3.90333-9.24827 4.34407-11.05485 15.05895-1.3163 8.76929 1.1148 16.47477 5.51702 22.83059z" fill="#994100"/><path d="m278.87559 183.9563c23.35032 3.49758 41.26347 19.12501 40.7799 35.57657l-.0186.59355a43.222128 43.562333 40.146227 0 0 -27.74746-16.0556 43.222128 43.562333 40.146227 0 0 -38.38768 13.88469 43.222128 43.562333 40.146227 0 1 30.51807-7.11373 43.222128 43.562333 40.146227 0 1 36.43542 49.1106 43.222128 43.562333 40.146227 0 1 -10.94334 22.97723 43.222128 43.562333 40.146227 0 0 18.81155-29.75011 43.222128 43.562333 40.146227 0 0 -4.63359-26.7714c3.03533-.29034 5.93253-.48005 9.09-.0686 14.04688 2.10404 23.75482 15.30634 21.67158 29.44565l-1.10363 7.33588c3.3473.15281 6.57329.18663 9.78024.58497 14.06762 2.10715 23.78527 15.34679 21.66063 29.51321-1.80332 12.02399-11.46383 21.09574-23.49335 22.06025l-5.35923.43094c-.251 2.46565-.45702 4.85773-.77765 7.22751-1.90583 12.70749-10.06983 23.31397-21.84253 28.37085l-2.77079 1.19115-.8739 2.90205c-5.20644 17.30674-22.54219 28.35149-40.32505 25.68784-1.64179-.27748-3.6136-.69676-5.3748-1.07761l-2.44024 2.24025c-5.48136 4.90568-14.49582 8.15354-23.13334 8.53171-4.7284 11.104-12.92176 17.97427-27.36362 19.32416l-8.9887-.73125 2.21563 8.79591a25.633039 25.810792 9.2940383 0 1 .49106 10.24717c-2.12439 14.16475-15.29723 23.97482-29.36569 21.86755-2.83633-.43681-6.17419-1.65955-9.13626-2.82516-5.5223 5.60865-9.3173 8.85403-18.44402 8.91288-6.42246-1.05087-13.39543-3.50586-20.66468-2.97827l-15.73458 6.92568 4.59823-9.89664 2.42371-4.54008c-1.70033-2.56314-3.17827-4.58378-4.32325-7.41573-3.24263-8.21672-1.24519-17.05993 4.35979-19.31058a6.6247492 6.6706889 9.2940376 0 0 3.9459-4.4778c.94913-3.6016-.93879-5.97754-4.0696-9.91602-2.78614-3.5041-10.18428-12.80974-9.50029-17.37033.97209-6.48159 7.21789-11.68114 15.91501-13.24306l18.85694-3.38917-17.03636-8.76125c-7.85591-4.04135-12.3031-10.84001-11.33076-17.32327.55555-3.29147 12.02199-5.19725 15.31781-7.89201-.91766-11.5157 3.25072-20.33958 17.07169-21.16478 2.93802.45466 6.33431 1.85356 9.35064 3.12126 3.36549-3.87784 6.71686-7.48614 10.7808-10.83306l-6.76757-4.58829a22.472122 22.627957 9.2940324 0 1 -9.76857-16.17256l-.80041-7.05295c-5.27242 1.11376-9.513 2.38548-14.83685 1.69226-12.26519-1.83716-20.73719-13.37973-18.88512-25.72875.6103-4.06928 2.3013-7.88782 4.89376-11.04677l1.72966-2.10747c-.31996-3.02619-.59493-5.39633-.16008-8.50511 1.71961-11.46583 11.68006-19.75961 23.16658-19.29327l6.05806.24445c.26189-2.56654.48261-5.11874.80861-7.59793 2.59696-17.31573 18.70014-29.30717 35.89713-26.73128 7.80888 1.16967 14.84358 5.21018 19.80697 11.37876l4.09812 5.09236 5.01904-4.19918c9.80951-8.2096 25.079-11.7004 40.84865-9.33831z" fill="#ffa348" stroke-width="36.0002"/><g fill="#994100"><path d="m223.20518 343.77429a33.900976 29.509939 24.034636 0 0 -34.01161 16.24119 33.900976 29.509939 24.034636 0 0 -1.6641 5.66455 30.78136 26.783892 27.425654 0 1 .12439-.27526 30.78136 26.783892 27.425654 0 1 39.44486-10.12782 30.78136 26.783892 27.425654 0 1 15.54272 37.8144 30.78136 26.783892 27.425654 0 1 -7.52293 8.71955 33.900976 29.509939 24.034636 0 0 16.2751-14.8124 33.900976 29.509939 24.034636 0 0 -19.44512-40.6023 33.900976 29.509939 24.034636 0 0 -8.74334-2.62192z"/><path d="m199.22007 221.18169a27.016494 31.197685 30.996362 0 0 -29.92947 15.53951 27.016494 31.197685 30.996362 0 0 6.4225 40.86787 27.016494 31.197685 30.996362 0 0 1.46831.84019 25.002332 28.871365 30.996261 0 1 -1.50708-34.08535 25.002332 28.871365 30.996261 0 1 36.40635-11.23056 25.002332 28.871365 30.996261 0 1 .83524.59756 23.752161 20.503104 18.196992 0 0 -13.23908 13.17655 23.752161 20.503104 18.196992 0 0 -.32864 1.48434 26.075783 20.536528 14.377184 0 1 26.30842-5.52213 26.075783 20.536528 14.377184 0 1 19.53451 17.52346 23.752161 20.503104 18.196992 0 0 .16609-.49628 23.752161 20.503104 18.196992 0 0 -17.50415-26.29766 23.752161 20.503104 18.196992 0 0 -3.9604-.81705 23.752161 20.503104 18.196992 0 0 -7.35365.0946 27.016494 31.197685 30.996362 0 0 -7.9096-8.27159 27.016494 31.197685 30.996362 0 0 -9.40929-3.40345z"/><path d="m319.63689 220.12642c-6.82496-8.73076-16.75768-14.47816-27.74746-16.0556-14.25604-2.03091-28.64278 3.17272-38.38768 13.88469 8.96381-6.08389 19.8451-8.62031 30.51807-7.11373 23.68315 3.38169 39.99587 25.36929 36.43542 49.1106-1.28935 8.56183-5.09995 16.56277-10.94334 22.97723 10.15082-6.85734 16.97983-17.65728 18.81155-29.75011 1.36338-9.21259-.26091-18.59723-4.63359-26.7714-1.35099-2.09389-2.70198-4.18779-4.05297-6.28168z"/><path d="m291.51363 124.87305c10.05644-13.32039 15.82227-30.813106 15.82227-50.074225 0-19.258256-5.76336-36.751915-15.82227-50.074219-9.9233-13.142838-24.9259-22.4075969-41.64646-22.4082012-16.72289-.0006045-31.73495 9.2513932-41.6709 22.4092042-10.0687 13.336283-15.79787 30.832496-15.79787 50.075219 0 19.239289 5.72588 36.736032 15.79883 50.074222 9.93454 13.15774 24.94922 22.4082 41.66992 22.4082 16.7225 0 31.7229-9.26615 41.64648-22.4082"/></g><path d="m222.56158 35.571824c-7.36823 9.759669-12.16353 23.688662-12.16353 39.228397 0 15.537487 4.79307 29.467979 12.16353 39.227649 7.36822 9.75967 16.95585 15.25553 27.30486 15.25553s19.91282-5.49661 27.28179-15.25553c7.36822-9.75967 12.18734-23.688662 12.18734-39.228399 0-15.537485-4.81763-29.467978-12.1866-39.227647-7.36823-9.759669-16.93203-15.255528-27.28179-15.255903-10.34901-.000375-19.93589 5.496234-27.3056 15.255903z" fill="#ffa348" stroke-width="36.0001"/><path d="m221.51514 77.096349h22.95612v14.013734h-22.95612zm56.47113 0v14.013734h-22.95389l-.002-14.013734z" fill="#994100"/><path d="m317.01172 145.52344c-3.94538 6.6892-7.73187 13.52585-9.96484 21.81054 4.19795 7.20453 9.14059 13.85476 13.88085 20.04688.0353-.20124.0678-.40688.10352-.60742 2.889 4.15258 5.26387 7.5653 7.79687 10.98437l-10.71874 8.04297-12.53907 9.4082c-15.34704 10.2628-20.85753 29.38668-16.79883 44.16016l.0176.0684.0215.0703c3.11286 10.98404 10.35289 20.70288 21.40039 26.14844 11.04749 5.44556 26.01602 4.99093 38.63672-2.4375l37.50976-26.5c8.30758-5.87729 15.18012-10.34617 21.25781-15.04297 6.07772-4.69678 12.24286-9.87589 15.77539-18.86328l-47.42773 19.21289-36.57227 25.87109c-15.84191 9.32446-29.6617-.58705-33.26367-13.29687-2.39447-8.71578.0947-18.76578 10.15625-24.92578l37.11524-27.39453s-27.01516-36.49194-36.38672-56.75586z" fill="#994100"/><path d="m371.62504 145.89088 20.45388 35.13062c26.01444 36.80955 18.1819 36.73787-16.11691 61.003l-36.5708 25.87237c-15.84195 9.32446-29.6616-.58707-33.26357-13.29691-2.39449-8.7158.0949-18.76532 10.15647-24.92534l37.11394-27.39576s-27.01382-36.49213-36.3854-56.75609" fill="#ffa348" stroke-width="36"/></svg>