<svg height="500" viewBox="0 0 500 500" width="500" xmlns="http://www.w3.org/2000/svg" xmlns:xlink="http://www.w3.org/1999/xlink"><radialGradient id="a" cx="1362.7291" cy="216.11429" gradientTransform="matrix(1.0000001 -.0000059 .0000001 1.0000003 -112.72927 33.893757)" gradientUnits="userSpaceOnUse" r="250"><stop offset="0" stop-color="#ff851a"/><stop offset=".42441937" stop-color="#f87000"/><stop offset=".86367416" stop-color="#f26900"/><stop offset="1" stop-color="#e55f00"/></radialGradient><g transform="translate(-1000)"><path d="m1500 250a250 250 0 0 1 -250 250 250 250 0 0 1 -250-250 250 250 0 0 1 250-250 250 250 0 0 1 250 250z" fill="url(#a)" stroke-linecap="round" stroke-linejoin="round" stroke-width="1.002"/><path d="m1309.2298 33.82789c128.5196 30.706851 207.8974 167.48127 169.5927 291.56949-31.3771 95.69524-112.8693 162.03793-212.5543 174.60263 153.1796-8.09118 266.0956-163.0043 218.7012-309.92978-36.4562-114.666588-154.6038-191.5214848-270.6514-169.822657-18.8526 4.215647-38.4387 10.498641-55.8829 18.694487-112.5353 47.459213-168.47522 196.206-99.9632 307.85319 57.6978 93.63045 168.5136 141.8489 267.9993 100.77239-134.92 68.97589-303.283-51.46877-311.488-201.30723-4.4167-117.68321 76.8182-219.674136 190.654-246.26040176-89.0147 9.18391126-152.6601 79.39239576-187.7408 157.21169176-38.45522 102.70317 5.2337 231.75078 109.038 294.08388 114.5107 66.1048 260.3537 29.37245 323.6836-83.60152 42.2104-77.69758 34.3514-177.62383-23.1776-249.88923-57.5404-72.257811-157.5429-102.460489-246.4118-71.877168-81.7429 30.682061-131.1298 101.133078-134.0478 190.176958.6692 92.68536 61.7912 168.55972 147.5399 198.52472 128.5549 37.82014 266.7725-70.33038 233.6823-209.88949-14.7104-64.39775-57.8855-122.14991-125.7378-141.121386-71.391-15.467036-138.9716 1.205-181.2869 64.641366-18.8995 29.2286-28.9384 85.21395-26.105 97.65297m0 0c13.5324-50.18833 30.6277-97.66354 72.2125-128.94941 53.182-38.308183 124.4576-37.093813 181.7444-.48035 50.1457 36.48017 75.4845 90.37713 72.3557 150.91678-6.6674 64.04407-38.4038 109.83277-91.6401 141.00844-63.9019 34.56125-135.3795 4.83213-189.1258-35.28385-78.8706-65.48566-79.7477-186.67235-8.9744-256.76104 63.7369-55.941605 167.0207-64.891564 238.7167-6.65053 78.8163 58.35315 90.3045 169.04089 40.972 246.62443-35.2274 56.41892-88.4571 87.60135-152.5581 93.63158-81.9488 2.18264-160.666-41.91503-196.8695-120.9383-36.2055-79.02511-22.5771-164.33167 26.8727-227.66064 49.4316-63.30896 138.3491-86.746364 220.4504-67.54202" fill="#c50"/></g><path d="m155.82812 29.888672-80.414388-29.66290201 80.414388 64.15508901 60.36329 48.158201c-73.77599-5.39885-152.470064-5.71028-216.19141-3.59202 75.836028 39.18098 158.03952 58.31614 239.5 82.69944l-137.30859 171.35938-15.714848-19.0957c-29.910819 52.67538-50.728314 99.17395-68.410376 156.08984l42.26373-29.55225 168.724774-136.0415-33.00977 48.48047-46.51989 68.32239 70.71716-42.79114 232.34375-140.5918-105.86328-29.36328 51.20703-41.75391c14.77638 1.71209 29.10336-4.42233 39.8789-13.82617 12.26619-10.70472 21.36407-25.93094 26.15625-43.8164 4.79372-17.8875 4.52294-35.62029-.75586-51.019535-5.27879-15.399244-16.6543-29.434143-33.54101-33.958984-16.8882-4.525242-33.75728 1.94599-46.02735 12.644531-10.94459 9.542837-19.17576 22.816156-24.26953 38.238278z" fill="#994100"/><path d="m173.82889 55.714941 76.25547 60.837969 65.9313 3.63384-.87451 15.84032-137.01278-7.56144-100.847578-4.16449 192.967148 57.75939-167.86988 209.49772-12.336374-14.98959-41.789171 82.03736 211.144835-172.16595 43.98816 9.84193-32.92532 34.46545-10.90492-9.15422-48.63233 71.42451 196.65447-118.99556-99.20301-27.51701 85.08961-69.38089c.9611.39056 1.95277.76244 2.9716 1.03582 19.80274 5.30473 42.25104-14.29339 50.14361-43.75297 7.89426-29.45704-1.76598-57.626949-21.56956-62.933375-19.80359-5.306428-42.2519 14.265373-50.14617 43.724955-1.24551 4.64928-2.04021 9.26969-2.44095 13.77124l-198.59365-73.255858z" fill="#ffa348" stroke-width="36"/></svg>