<svg height="500" viewBox="0 0 500.00052 500" width="500.00052" xmlns="http://www.w3.org/2000/svg" xmlns:xlink="http://www.w3.org/1999/xlink"><radialGradient id="a" cx="249.99998617249" cy="750.00002617249" gradientUnits="userSpaceOnUse" r="250.00000617249"><stop offset="0" stop-color="#d5f6ff"/><stop offset=".09472227" stop-color="#d5f6ff"/><stop offset=".20889115" stop-color="#aef"/><stop offset=".41332352" stop-color="#80e5ff"/><stop offset=".54340753" stop-color="#5df"/><stop offset=".74956214" stop-color="#2ad4ff"/><stop offset="1" stop-color="#0cf"/></radialGradient><radialGradient id="b" cx="250.00002" cy="749.99994" gradientTransform="matrix(.0000002 -.99999868 .99999894 .00000003 -499.9992 999.9996)" gradientUnits="userSpaceOnUse" r="250.00026"><stop offset="0" stop-color="#d5f6ff"/><stop offset=".80876225" stop-color="#d5f6ff" stop-opacity=".498039"/><stop offset="1" stop-color="#d5f6ff" stop-opacity=".1"/></radialGradient><filter id="c" color-interpolation-filters="sRGB" height="1.062057" width="1.016006" x="-.008003" y="-.031028"><feGaussianBlur stdDeviation="1.6308278"/></filter><filter id="d" color-interpolation-filters="sRGB" height="1.073024" width="1.017815" x="-.008907" y="-.036512"><feGaussianBlur stdDeviation="1.6308278"/></filter><filter id="e" color-interpolation-filters="sRGB" height="1.047953" width="1.016005" x="-.008003" y="-.023977"><feGaussianBlur stdDeviation="1.6308278"/></filter><g transform="translate(0 -500)"><circle cx="250" cy="750" fill="url(#a)" r="250"/><path d="m250.5954 750.5602c-.0408.006-.1266-.0175-.17105-.0361-.0445-.0186-.0476-.0324.0769-.007-.12491-.0254-.10839-.0312-.0548-.0267.0536.004.14433.0192.16778.0347-.0232-.0155.0811.0108.16055.0336.0795.0228.13397.0421.011.0128.12284.0293.0546.0293-.0341.0205-.0887-.009-.19795-.0265-.15713-.0326l.00037.0004zm-.0786.0862c-.017-.008-.002-.009.013-.007.0154.001.0314.005.0172.007.0132-.002.024.002.0271.005.003.003-.002.006-.0191.003.017.004-.002-.002-.0199-.007-.0183-.005-.0364-.001-.0186-.001h.00015zm.39012.51097c.18919.17747.0741.10822-.0693-.00052-.14334-.10874-.31494-.25696-.23878-.23744-.0762-.0193-.15024-.0749-.175-.10563-.0248-.0307-.00021-.0365.1209.0437-.12095-.0799-.20967-.16284-.22861-.19259-.0189-.0298.0319-.006.19011.12629-.15799-.13264-.24085-.20382-.24329-.20725-.002-.003.0756.0609.23929.19925-.16384-.1385-.24576-.20775-.24576-.20775s.0819.0693.24576.20775c-.16384-.1385-.2604-.23503-.27055-.25406-.0102-.019.0661.0394.24785.21096-.18141-.17161-.27698-.25742-.28041-.25742-.003 0 .0853.0858.27241.25742-.18727-.17161-.28091-.25938-.28091-.26036 0-.00099.0936.0848.28091.26036-.18727-.17554-.276-.26135-.27254-.26036.003.00098.0991.0888.28054.26036-.18141-.17161-.26239-.25452-.25564-.25206.007.002.10124.0902.27074.26006-.1697-.16969-.25455-.25453-.25455-.25453s.0849.0848.25455.25453c-.1697-.16969-.2643-.25746-.27106-.25992-.007-.002.0743.0804.25596.25192-.18141-.17161-.2536-.22524-.24103-.20279.0126.0224.10991.12097.26753.25369-.15798-.13264-.18728-.17361-.15374-.1561.0335.0175.12991.0935.22324.1948-.0935-.1014.084.0693.23753.22092.15356.15164.26962.0942.0939.10673h-.00007zm3.66289 1.60326c1.17612.62414-.0829-.0449-1.34871-.71678-1.26582-.67193-2.53847-1.34678-1.38967-.73434-1.1488-.61244-1.74564-.92744-1.76017-.93376-.0145-.006.55325.29602 1.73367.91826-1.18-.62219.0995.0566 1.37996.73482 1.28047.67827 2.56191 1.35605 1.38579.73191l-.00044-.00006zm-2.41463 2.46924c0 1.05323-.0439-.0868-.56366-1.22877-.51978-1.14197-1.03957-2.2859-.56366-1.24047-.47591-1.04543-.71387-1.57595-.71387-1.58136 0-.005.23796.51427.71387 1.56926-.47591-1.05519.0439.0917.56366 1.239.51979 1.14734 1.03958 2.29516.56366 1.24193v.0002zm-1.62663-4.26364c-.004.002-.0156-.0157-.0223-.0279-.007-.0122-.008-.019.007.005-.0151-.0232-.0161-.0309-.0118-.029.004.002.0138.0135.0198.029-.006-.0155.008.006.0189.0261.011.0201.0195.0386.004.017.0151.0216.009.0177.00093.008-.009-.01-.0198-.0256-.016-.0279h-.00025zm-.0896-.14045c.006.0155-.009-.006-.0211-.0261-.0121-.02-.0215-.0386-.005-.017-.0151-.0216-.0131-.0216-.007-.0142.006.007.0166.022.0182.0297-.002-.008.0115.0108.0216.0258.0101.0151.0168.0267.001.005.0151.0216.0161.0285.0118.026-.004-.002-.0138-.0142-.0198-.03l.00025.0003zm-.10167.30429c.008.0293 0-.0107-.008-.0478s-.0165-.0714-.0109-.0307c-.006-.0409-.005-.0575-.002-.0555s.008.0224.01.0555c-.002-.0331.005.009.01.0492.005.0405.009.0794.001.0404.008.0393.0113.0508.0113.0453 0-.006-.004-.0282-.0113-.0574l-.0002.0005zm.20674-.95957c-.28235.20633-.40371.25065-.38125.22195.0225-.0287.1805-.14171.43225-.28385-.25162.14238-.31209.19407-.26729.18087s.19489-.0913.36439-.20847c-.1697.11705-.30817.18923-.34518.19893-.037.01.0275-.0431.26358-.17593-.23604.13265-.21639.0897-.12171.0146.0947-.0751.26438-.18239.32845-.17852-.0643-.004.18737-.15612.38142-.25898.19406-.10286.33055-.15645.036.0366.29452-.19312.0887-.0439-.15313.12434-.24186.16824-.5198.3555-.36958.23845-.15023.11706-.22923.17558-.23166.17558-.002 0 .0717-.0585.22766-.17558-.15609.11706-.29849.21945-.3428.24967-.0443.0302.009-.0117.2457-.18337-.23601.17161-.39788.27497-.42808.28664-.0302.0117.0713-.0684.36198-.26354l-.00039.00029zm-.30425.0509c-.008.006-.0113.009-.0113.009s.004-.003.0113-.009c-.008.006-.008.004-.005.00054.003-.004.009-.009.0127-.009-.004 0 .003-.005.008-.009.006-.003.0105-.005.003.0005.008-.006.0113-.009.0113-.009s-.004.003-.0113.009c.008-.006.003-.004-.003-.00054-.006.004-.0123.009-.008.009-.004 0-.01.005-.0125.009-.003.004-.003.005.005-.0005zm.74505-1.20927c-.79969 1.1371-1.18099 1.67347-1.16841 1.65101.0126-.0225.41905-.60372 1.19491-1.70191-.77626 1.0981-1.15757 1.63252-1.15316 1.6227.004-.01.39455-.56386 1.16116-1.6427-.76652 1.07859-1.15369 1.62373-1.15614 1.62766-.002.004.37981-.53337 1.15214-1.61966-.77236 1.08639-1.14392 1.61105-1.13424 1.5989.01-.0122.40058-.56111 1.15314-1.622-.75286 1.06104-1.1293 1.58668-1.1293 1.58324 0-.003.37644-.53595 1.1293-1.59124-.75286 1.05519-1.12442 1.5779-1.12098 1.57447.003-.003.38187-.53303 1.12898-1.58247-.74702 1.04934-1.11176 1.54962-1.10548 1.53355.006-.0161.38356-.54848 1.12058-1.56455-.73725 1.01618-1.10587 1.52816-1.10588 1.53011.00001.002.36863-.50613 1.10588-1.53011-.73725 1.02398-1.11465 1.55645-1.12093 1.57056-.006.0141.35858-.49012 1.10583-1.53956-.74702 1.04934-1.12541 1.58376-1.12885 1.59057-.003.007.36808-.51398 1.12085-1.57507-.75286 1.06104-.84065 1.17319-.64268.8855s.68169-.97523 1.07181-1.51357c-.3901.53834-.57151.78799-.56232.77573.009-.0122.20897-.28642.58122-.79573-.37253.50909.37058-.56657 1.00691-1.47792.63633-.91134 1.16587-1.65837.3662-.49201.79967-1.16636.25648-.39984-.38912.52369-.64559.92353-1.39357 2.00407-1.00349 1.46575-.3901.53834-.83676 1.23854-1.00938 1.53452-.17262.29597-.0712.18772.63483-.89086-.70605 1.07858-1.11369 1.68029-1.15083 1.72325-.0371.043.29625-.47284 1.07223-1.62925-.77628 1.15661-1.14686 1.66372-1.13525 1.61541.0116-.0483.40543-.65205 1.15795-1.71715-.75286 1.06494-1.14392 1.63251-1.15359 1.65546-.01.0229.36203-.49875 1.13469-1.61236-.77237 1.1137-1.16146 1.69688-1.16342 1.71543-.002.0186.38322-.52752 1.15942-1.67233-.77626 1.14491-1.17219 1.73491-1.17751 1.74714-.005.0122.37999-.55332 1.16621-1.71954-.78601 1.16636-1.17901 1.74466-1.17901 1.74122 0-.003.393-.58861 1.17901-1.74922-.78601 1.16051-1.17122 1.72809-1.16591 1.71925.005-.009.40114-.5941 1.17721-1.73925-.77626 1.14491-1.16439 1.692-1.16439 1.67488 0-.0171.38813-.59844 1.16439-1.71038-.77626 1.11175-1.16147 1.66665-1.15951 1.66516.002-.001.39109-.55936 1.16351-1.67316-.77237 1.11369-1.15855 1.65006-1.15855 1.63637 0-.0137.38618-.57744 1.15855-1.66397-.77237 1.08639-1.17999 1.67054-1.19449 1.69876-.0145.0282.36413-.4995 1.16429-1.63686l.00081.001zm-.84542.97129c0 .21651.006.32183.01.31936.004-.002.006-.11271-.002-.32736.008.21452.006.31204.002.30567-.004-.006-.01-.11666-.01-.31777v-.004-.004c0 .19506-.008.25065-.0146.22236-.006-.0283-.01-.14046-.00046-.28096-.009.14043-.008.20578-.004.20234.004-.003.0118-.0756.0155-.21034-.004.13457-.0237.12882-.0358.0786-.0121-.0502-.0168-.14485.009-.18807-.0255.0431-.0383.0744-.0383.0807 0 .006.0127-.0122.0383-.0686-.0255.0566-.0383.0701-.0383.0602 0-.01.0127-.0431.0383-.0802-.0255.037-.0383.0409-.0383.0311 0-.01.0127-.0333.0383-.0511-.0255.0178-.0383.046-.0383.0592s.0127.0112.0383-.0316c-.0255.0432.002-.1597.0297-.31385.0278-.15415.0561-.25959.0323-.0216.0232-.23796.0213-.0897.0116.0936-.01.18334-.0269.40178-.0343.30425.008.0975.003.17654-.003.19746-.006.0209-.0123-.0162-.008-.15106-.004.13457-.003.24282-.001.27063.002.0278.005-.0248.005-.21203v.004.004c0 .19505.006.30721.01.31702.004.01.006-.0827-.002-.29702.008.21452.0183.33836.0232.35011.005.0117.004-.0886-.0119-.32251.0151.23403.0161.35594.0114.3599-.005.004-.0151-.11003-.0227-.3478.008.23796.006.33842.002.32528-.004-.0131-.01-.13986-.01-.35628l-.00085.00019zm-.23811-1.19757c.19113 1.38871.27693 2.06844.27015 2.05824-.007-.0102-.10611-.71033-.28525-2.08134.17934 1.37115.26901 2.07916.26901 2.09481 0 .0156-.0897-.66105-.26901-2.05931.17934 1.39846.26901 2.10354.26901 2.10747 0 .004-.0897-.6933-.26901-2.09947.17934 1.40627.26901 2.1094.26901 2.1094s-.0897-.70313-.26901-2.1094c.17934 1.40627.26901 2.10355.26901 2.09962 0-.004-.0897-.70906-.26901-2.10762.17934 1.39846.26901 2.09769.26901 2.09769s-.0897-.69923-.26901-2.09769c.17934 1.39846.26901 2.07526.26901 2.05961 0-.0156-.0897-.72376-.26901-2.09511.17934 1.37115.26901 1.98749.26901 1.94015 0-.0473-.0897-.75835-.26901-2.0419.17934 1.28338.25833 1.97188.25158 2.00455-.007.0327-.0992-.59049-.26288-1.93045.16385 1.33995.20873 1.93483.18346 1.88266-.0253-.0522-.1207-.75138-.23746-1.99964.11698 1.24828.0887 1.13516.0292.6305s-.15018-1.40087-.15812-1.71878c.008.31791-.14654-.89039-.25472-1.82659-.10818-.93621-.17044-1.60032.0208-.19406-.19113-1.40627-.12867-.74897-.0204.18285.10826.93182.26232 2.13816.25438 1.82999.008.30817.0113.46909.0113.4735 0 .004-.004-.14767-.0113-.4655.008.3179.14601 1.16829.23773 1.64225.0917.47396.13671.57149-.0427-.61633.17934 1.18781.26901 1.85388.26901 1.9031 0 .0492-.0897-.51844-.26901-1.79807.17934 1.27949.2749 1.8929.27926 1.87434.004-.0186-.0825-.66907-.26796-1.91744.18519 1.24828.28173 1.96994.2842 2.03673.002.0668-.0891-.52126-.2802-1.89243.19113 1.37116.2867 2.07136.2867 2.08156s-.0956-.6696-.2867-2.05846l-.00052.00029zm.15988 2.16108c0 .0194.001.00083-.002-.0187-.003-.0195-.006-.0399-.002-.0244-.004-.0155-.001-.00085.002.0152.003.016.006.0335.002.0235.004.01.006.0208.006.0242 0 .003-.002-.00061-.006-.0202v.0002zm-.0465-.83474c.017.037-.003-.00002-.0232-.038-.0198-.038-.0391-.077-.0199-.0438-.0193-.0331-.0289-.0536-.0289-.0565 0-.003.01.0116.0289.0485-.0193-.0371.0004-.00098.0204.0366.02.0375.0404.0765.0227.0453.017.0309.0255.0514.0255.0549 0 .003-.008-.01-.0255-.0469zm-.0862.29258c-.002.002-.003-.002-.003-.005s.001-.006.003-.003c-.002-.004 0-.006.002-.006s.004.002.002.006c.002-.004.003-.006.003-.006s-.001.002-.003.006c.002-.004 0-.00097-.002.003-.002.004-.004.008-.002.005zm-.008.37839c.006.004-.005.0256-.0148.0392-.01.0137-.0181.0194-.008-.008-.009.0271-.005-.00026.002-.0285.007-.0282.0151-.0572.0132-.0334.002-.0232.0105-.0367.0157-.0382.005-.001.007.009-.004.0342.0113-.0254.0134-.0147.011.002-.002.0162-.009.0378-.015.034l.00015-.0003zm-.47591 1.48232c.36279-1.20537-.0683.1853-.48761 1.5506-.41936 1.36531-.82703 2.70525-.41748 1.39845-.40957 1.3068-.006-.0331.41107-1.39845.4169-1.3653.84695-2.75597.49001-1.5506.35694-1.20537.53931-1.80805.54176-1.80805.002 0-.17502.60268-.53776 1.80805.36279-1.20537.55782-1.85291.56747-1.88362.01-.0307-.16608.55539-.54477 1.81732.37838-1.26193.59293-1.92898.61042-1.95338.0175-.0244-.16208.59384-.57192 1.90248.40957-1.30873.57535-1.88216.5481-1.82707-.0273.0551-.24754.73871-.6101 1.94405l.0004.00011zm.42126-1.3692c.002-.008.006-.0147.008-.0167s.002.00086-.004.0127c.006-.0116-.002.002-.009.0155s-.0137.0271-.006.0155c-.008.0116-.004.00077.001-.0109.005-.0117.0124-.0242.01-.0167l-.0001.0003zm.0465-.59678c.002.002-.00083-.001-.004-.004-.003-.003-.006-.005-.004-.00046-.002-.004.00082-.006.004-.006.003 0 .006.002.004.006.002-.004.003-.002.003.0005 0 .002-.001.005-.003.003.002.002.003.003.003.003s-.001-.001-.003-.003zm-.0431.0464c.006.01-.004.00032-.013-.01-.009-.01-.0176-.0198-.01-.0105-.008-.01-.009-.015-.006-.015.002 0 .008.005.0142.015-.006-.01.00098-.00032.008.01.007.01.0132.0198.008.0105.006.01.008.015.008.015s-.003-.005-.008-.015h-.0002zm-.36283-.0276c.20678.0741-.0673-.006-.32618-.0853-.25893-.0795-.50275-.15849-.23553-.0824-.26722-.0761-.0332-.0498.21894-.006.2521.0434.52224.10379.3272.0961.19504.008.34523.0448.38139.0682.0361.0234-.0417.0331-.30279-.014.26133.047.39787.0802.4013.0865.003.006-.12623-.0141-.3973-.0744.27112.0605.35796.10046.32528.10684-.0327.006-.19578.001-.39178-.0947l-.00027-.00013zm.13644-.094c.0151.004-.0004.00012-.0162-.004-.0158-.004-.0318-.008-.0178-.004-.0132-.004-.0113-.006-.005-.006.006 0 .0166.002.0202.006-.004-.004.009-.00013.0185.004.01.004.0165.008.00041.004zm-1.67735-1.60324c.33155.31597.49247.47102.48903.46906-.003-.002-.17121-.16096-.49703-.47306.3257.31204-.60758-.51884-1.35849-1.19515s-1.31944-1.19804-.26425-.26768c-1.05519-.93036-.48176-.40569.27257.27258.75433.67826 1.68957 1.51012 1.35799 1.19415.33156.31597 1.01323.86892 1.36724 1.13954.35401.27063.38035.25894-.59875-.55437.97912.81333 1.52525 1.30874 1.56335 1.3692.0381.0605-.4318-.31403-1.48475-1.24051 1.05324.92645 1.50964 1.36335 1.46183 1.34575-.0478-.0176-.59986-.48971-1.5635-1.38125.96351.89135 1.47744 1.35945 1.49934 1.37454.0219.0151-.44823-.42284-1.45284-1.34354 1.00446.9206 1.54766 1.39065 1.57589 1.39747.0282.007-.45851-.44961-1.51389-1.38197 1.05518.93231 1.54182 1.38871 1.51359 1.3819-.0282-.007-.57133-.47685-1.57559-1.3974 1.00446.9206 1.5067 1.3809 1.5067 1.3809s-.50224-.4603-1.5067-1.3809c1.00446.9206 1.50279 1.3809 1.49984 1.3809-.003 0-.50718-.4603-1.50784-1.3809 1.00057.9206 1.46673 1.35847 1.44385 1.34338-.0229-.0151-.53479-.48314-1.49035-1.37438.95571.89135 1.43942 1.33702 1.44335 1.33702.004 0-.47193-.44567-1.43535-1.33702.96351.89135.94311.87975.5989.56627-.34421-.31347-1.01223-.92883-1.34396-1.24498l-.00009.00022zm1.88802 1.19756c.0132.01.0199.0216.0199.0264 0 .005-.007.003-.0199-.0143.0132.0177.007.007-.002-.006-.009-.0133-.0203-.029-.0165-.0213-.004-.008-.0148-.0205-.0206-.0268-.006-.006-.007-.006.009.0113-.0151-.0177-.00045-.005.0144.01.0149.0147.03.0313.0158.0213zm1.55252.10946c-.0151.01-.0226.015-.0226.015s.008-.005.0226-.015c-.0151.01-.00045.002.0149-.006.0154-.008.0314-.0172.0191-.009.0113-.008.021-.0116.024-.0116.003-.00001-.00069.004-.016.0116.0151-.008-.003.001-.0219.009-.0184.008-.0368.0161-.0213.006h.00055zm-.45245.15991c.0874-.0359-.0195.009-.12728.0408-.10775.0321-.21207.0623-.10667.0289-.10526.0331-.13351.04-.11707.0333.0164-.007.0776-.0272.15107-.0488-.0741.0215.0322-.01.13019-.0384.098-.0287.18765-.055.0803-.0235.10715-.0309.15005-.0417.1433-.0384-.007.003-.0632.0208-.1546.0464l.00036-.00015zm-1.47844.71775c.24967-.0975.37059-.1463.36763-.1463-.003 0-.1298.0488-.37563.1463.24576-.0975-.0643.0497-.36081.18431-.29647.13458-.57929.25649-.27895.10826-.30038.14823-.0927.003.15212-.14772.24478-.15067.52663-.3067.37452-.17993.15212-.12678.34618-.20869.4271-.22084.0809-.0121.0487.0455-.25173.19774.30038-.15215.41156-.18629.38531-.15799-.0263.0283-.18994.11901-.43931.21659l-.00013-.00021zm4.0023.0121c2.90418.46419 3.21332.55683 2.43071.46125-.78262-.0956-2.65698-.37937-4.11979-.66803 1.46281.28866 1.48633.30911 1.00172.22425-.48462-.0849-1.47738-.27502-2.04713-.40759.56953.13264 2.72184.30818 4.00084.38278 1.27899.0746 1.68468.0482-1.23903-.22287 2.93541.16968 4.40312.20773 4.40411.15702.001-.0507-1.4647-.19018-4.39611-.37551 2.9315.0819 76.25114.66804 125.46589 1.04204 49.21474.37399 74.32459.53587-19.16351-.23064 93.5096-2.39708 140.22635-5.18327 140.18536-6.85869-.041-1.67542-46.83971-2.24007-140.36106-.19407 93.33785-5.23301 68.266-3.76433 19.12877-.96595-49.13724 2.79838-122.33987 6.92647-125.26358 7.01229 2.92371-.12484 4.38557-.20675 4.38557-.22576 0-.019-1.46186.0249-4.38557.15166 2.92371-.15602 2.55802-.10726 1.30633-.0209-1.25168.0863-3.38936.21015-4.00959.20429.62023.006.58801.0323.35345.0478-.23455.0155-.67145.0202-.86055-.0168.18918.0371.54123-.0644.71775-.1463.17651-.0819.17748-.14436-.33549-.0293.51295-.11505.76943-.17258.76943-.17258s-.25648.0575-.76943.17258c.51295-.11505 2.61454-.62411 3.87842-.93326 1.26388-.30914 1.69005-.41837-1.14783.26626 2.83788-.6846 2.42049-.57538 1.16246-.26624-1.25803.30913-3.3567.81818-3.88137.93324.52469-.11505.78703-.17258.78703-.17258s-.26234.0575-.78703.17258c.52469-.11505.77824-.17258.77243-.17258-.006 0-.27099.0575-.78373.17258.51295-.11505.51195-.0526.33543.0293s-.52856.18334-.71769.14631c.1892.0371.61927.0321.84943.0164.23016-.0156.26041-.0419-.35004-.0474.61046.006.92253.009.92695.009.004 0-.29882-.003-.91895-.009.62024.006 73.34696-13.58943 122.94742-22.90328 49.60045-9.31384 76.07463-14.34606-15.81022 2.78653 90.3635-25.3088 134.42765-42.02204 133.2496-46.29398-1.17805-4.27193-47.5983 3.89745-138.2036 28.35391 87.66405-32.41227 62.48493-23.04824 15.2167-5.53434-47.26823 17.51389-116.62558 43.17767-117.31799 43.36491.69241-.18726.99765-.2721.96985-.26576-.0278.006-.38867.10383-1.02845.28126.63974-.17747 2.59213-1.00836 3.71021-1.51743s1.40187-.69634-1.29558.41344c2.64089-1.22487 3.92719-1.90557 3.89109-1.97382-.0361-.0683-1.39464.47592-4.0434 1.70083 2.56675-1.34775 67.45659-35.45885 111.02238-58.3613 43.5658-22.90246 65.80754-34.59627-16.92191 8.89056 81.25885-46.29154 121.1071-70.81724 120.28399-72.2708-.82312-1.45356-42.31759 20.16502-123.74419 66.16205 79.7824-48.69058 58.33745-35.58953 16.32617-9.94136-42.01127 25.64817-104.58888 63.84347-107.07178 65.34141 2.45949-1.53499 3.67754-2.32102 3.66588-2.34009-.0117-.0191-1.25304.72879-3.71238 2.26159 2.43999-1.56425 2.78717-1.74076 2.18936-1.3258s-2.14061 1.42139-3.48056 2.22301c1.33995-.80163 1.27948-.75773.77919-.45345s-1.4404.86894-1.85972 1.10883c.41936-.2399 2.12989-1.53693 3.15825-2.34295s1.37456-1.12102-.93475.60317c2.29564-1.75344 3.43567-2.64089 3.42752-2.65261-.008-.0117-1.16447.85226-3.46152 2.60171 2.28397-1.76514 59.45893-47.66464 97.83806-78.49755s57.96243-46.59923-14.93692 11.90201c67.563-65.15611 98.41982-100.78951 95.34205-104.01162-3.07778-3.22212-40.09015 25.96706-108.26555 90.45613 61.89305-70.0478 44.41815-50.16998 11.25252-12.56663-33.16564 37.60334-82.02201 92.9322-82.8919 93.7865.86989-.8543.94397-.91475.69722-.66362s-.81433.81384-1.22775 1.20588c.41349-.39205 45.75517-58.87768 76.66951-98.80155 30.91434-39.92386 47.40135-61.28596-9.8945 12.56907 52.29305-77.72859 75.82207-118.36778 73.06611-120.23677-2.75596-1.869-31.79691 35.03218-84.64381 112.38434 47.4325-80.53721 34.71468-58.84646 9.75938-16.408s-62.14809 105.62463-63.66553 108.07828c1.50574-2.46145 2.25276-3.69997 2.24747-3.70581-.005-.006-.76289 1.22101-2.26637 3.69031 1.49792-2.46924 2.24688-3.70387 2.24688-3.70387s-.74896 1.23463-2.24688 3.70387c1.49792-2.46924 1.14977-1.88997.39788-.64754-.75189 1.24242-1.90752 3.148-2.02455 3.33134.11697-.18333 1.03465-2.2069 1.6237-3.53076.58904-1.32386.84945-1.94801-.34811.66752 1.11175-2.66234 1.62276-4.00814 1.57548-4.02526-.0473-.0171-.65286 1.29442-1.77428 3.94676 1.02788-2.6877 27.02126-71.24731 44.47274-117.28578 17.45147-46.03846 26.36103-69.55579-6.77872 17.84109 30.19655-88.52228 43.80083-133.30028 42.22733-133.84299-1.57349-.5427-18.32477 43.14989-48.83931 131.56879 27.50499-89.33561 20.09336-65.29459 5.59727-18.23361-14.4961 47.06099-36.07665 117.14194-36.90949 119.88619.79969-2.75986 1.18198-4.14272 1.16243-4.14806-.0195-.005-.44095 1.36685-1.24863 4.11706.75872-2.76961.84555-2.98319.64516-2.18108s-.688 2.61992-1.07818 3.91306c.39006-1.29314.40859-1.36432.28764-.97032-.12094.39401-.38136 1.25319-.54918 1.82076.16781-.56758.20485-.60465.17315-.43545-.0317.16919-.13213.54464-.23925.8021.10733-.25747.20779-.51592.23945-.60515.0317-.0892-.005-.009-.17335.41009.16781-.41936.19899-.41736.1628-.27153-.0362.14583-.13974.43548-.2414.59143.10148-.15602.13757-.20868.12789-.19213-.01.0165-.0651.10231-.14679.22313.082-.12091.14343-.28865.15741-.3618.014-.0731-.0195-.0517-.12721.20578.10734-.25747.20193-.62903.22914-.7958.0272-.16676-.013-.12872-.17514.433.16195-.56172.24878-.84649.25313-.84894.004-.002-.0738.27742-.24183.84494.16781-.56758.57935-2.63211.80363-3.85113.22427-1.21902.26128-1.59253-.31997 1.22194.52074-2.82227.74798-4.2373.71336-4.24175-.0346-.004-.33108 1.40168-.85773 4.22175.46032-2.82617 12.94894-75.08771 21.34506-123.61395 8.39612-48.52625 12.69973-73.3172-3.20995 18.79777 7.65154-93.55049 7.26047-140.69924 2.82031-141.08787-4.44016-.38862-12.92941 45.98289-21.47424 139.47291.0215-93.49002.014-66.27565.002-15.61905s-.0284 124.75544-.0247 125.03435c-.004-.27892-4.74063-74.22173-7.98417-124.77154s-4.99401-77.70664.97432 15.58639c-12.23857-92.89709-21.50828-138.94093-24.82572-138.51476s-.68261 47.32235 10.88792 140.30526c-17.84703-91.76389-13.00703-67.07143-3.57996-18.73243 9.42707 48.33901 23.44121 120.32456 23.94247 123.14683-.53441-2.81447-.82113-4.21781-.84208-4.21392-.021.004.22385 1.415.75248 4.22942-.57538-2.81447-.86306-4.2217-.86306-4.2217s.28768 1.40723.86306 4.2217c-.57538-2.81447-.4944-2.21276-.2418-.83771.2526 1.37506.67682 3.52346.78794 3.80237-.11112-.27893-.20571-.50127-.23255-.55783-.0268-.0566.0141.0526.17395.43684-.15988-.38425-.32273-.78604-.3793-.92939-.0566-.14335-.007-.0283.25836.62121-.26527-.64949-.91964-2.6204-1.27657-3.74824s-.41642-1.4126.50807 1.3102c-.98107-2.6994-1.49598-4.04032-1.52282-4.03206-.0268.008.43441 1.36571 1.40566 4.06306-1.03372-2.67989-1.55351-4.01594-1.55875-4.0111-.005.005.50407 1.35056 1.52855 4.0342-1.04347-2.6838-26.98304-71.26389-44.39186-117.31748-17.40882-46.05358-26.28689-69.58066 6.79263 17.84157-36.02194-86.30853-55.48432-128.865-57.0138-128.23354-1.52948.63145 14.87394 44.45082 50.58362 130.89394-38.55536-85.14804-28.23066-62.21097-7.95553-17.34032 20.27512 44.87065 50.50066 111.67488 51.74698 114.26115-1.26777-2.58042-1.91336-3.8599-1.92502-3.85066-.0117.009.61059 1.3072 1.87852 3.88166-1.2912-2.56677-1.57889-3.16166-1.33412-2.68965.24478.472 1.02202 2.0109 1.86068 3.71169-.8387-1.70078-.89426-1.74175-.64508-1.18832s.8031 1.70126 1.18336 2.37809c-.38034-.6768-.56173-1.0074-.55546-1.00199.006.005.20021.34684.57056 1.01409-.37059-.66705-.49152-.88452-.44758-.80504.0439.0795.25276.4559.54168.97667-.28866-.52076-.31786-.58415-.23884-.44908.079.13506.26624.46858.41043.74165-.14438-.27307-.21657-.4057-.21657-.40275 0 .003.0722.14148.21657.41075-.14438-.26915-.33162-.60462-.41059-.74261-.079-.13799-.0497-.0785.239.44229-.28866-.52076-.50614-.905-.55641-.98984-.0503-.0849.0667.12969.4468.80649-.38034-.6768-1.42967-2.44194-2.01773-3.41911-.58806-.97716-.71485-1.16636.74993 1.30874-1.51939-2.43999-2.31127-3.64243-2.34347-3.62245-.0322.02.69527 1.26237 2.21459 3.71205-1.57401-2.40294-40.06021-64.81772-65.88178-106.74516-25.82156-41.92745-38.97849-63.36757 10.10608 16.17882-56.36201-75.06235-87.94409-110.06089-91.52742-107.39953-3.583333 2.66137 20.83207 42.98263 76.46502 118.5599-61.91255-70.04194-43.91046-49.64238-10.3766-11.68357s82.59949 93.47687 82.81404 93.67191c-.21457-.19506-.38231-.38229-.4243-.44323-.042-.0609.0418.004.3302.31454-.28866-.31011-.30331-.30708-.21457-.19878.0887.1083.28089.32188.40581.43288-.12491-.1112-.18737-.15703-.18737-.15021 0 .007.0625.0663.18737.16571-.12491-.0995-.239-.19992-.27407-.23509-.0351-.0352.009-.005.19997.15659-.19114-.16188-.30426-.26624-.31587-.28238-.0116-.0162.0783.0559.29317.24688-.21456-.19113-.31892-.28279-.31695-.27984.002.003.11025.10051.32095.28784-.21064-.18726-52.72776-52.44322-88.62633-88.17073s-55.17859-54.92657 11.08497 10.99996c-70.73934-61.42955-108.192845-89.7492-110.388182-87.23235-2.195336 2.51685 30.8675 35.87021 101.160852 97.78665-74.125557-56.93699-54.19663-41.61831-15.16142-11.62701 39.0352 29.9913 97.17669 74.6552 99.47625 76.40864-2.31712-1.73003-3.48055-2.58432-3.48676-2.57316-.006.0112 1.1448.88778 3.45656 2.61956-2.32687-1.71638-1.86462-1.29216-.75141-.41398 1.1132.87818 2.87736 2.21033 3.15432 2.3098-.27693-.0995-.74112-.31694-.96397-.43202-.22284-.11508-.20432-.12777.4842.18234-.68852-.31011-2.49365-1.34384-3.49422-1.94555s-1.19659-.7714 1.33312.64657c-2.57261-1.36335-3.87354-2.02064-3.88969-1.99432-.0162.0263 1.25247.73629 3.81899 2.10744-2.59238-1.3242-67.44425-35.49567-110.97614-58.4483-43.531892-22.95263-65.743797-34.68642 16.94376 8.86476-84.154282-40.76987-126.920123-59.73977-127.646899-58.24671-.726777 1.49306 40.585512 23.44906 124.587489 64.531-85.291017-38.2031-62.385447-27.88824-17.48715-7.74029 44.8983 20.14796 111.78932 50.12901 114.46922 51.25831-2.70526-1.07273-4.07251-1.57692-4.08757-1.54327-.0151.0337 1.32206.60512 4.02557 1.68372-2.72865-1.01422-2.20398-.78505-.90938-.28088 1.29459.50418 3.35912 1.28336 3.7102 1.36917-.35108-.0858-.53248-.13361-.53682-.13705-.004-.003.16837.0375.52552.12905-.35694-.0917-.45349-.10135-.39742-.0759.0561.0254.26478.0859.51837.13454-.25355-.0487-.3745-.0672-.37058-.0633.004.004.13269.0302.37858.0713-.24575-.0409-.36862-.0613-.36862-.0613s.12287.0204.36862.0613c-.24575-.0409-.37448-.0672-.37841-.0711-.004-.004.11694.0145.37041.0631-.25355-.0487-.4564-.10425-.50814-.12625-.0517-.022.0476-.0104.39853.0753-.35108-.0858-.47006-.10129-.43196-.0822.0381.0191.2333.0728.51056.12529-.27695-.0525-.38324-.0652-.36077-.056.0225.009.17369.0405.41177.076-.23796-.0349-.38912-.0622-.41159-.0687-.0225-.006.0838.008.36059.0566-.27695-.0486-.41542-.0769-.41542-.0799s.13847.0194.41542.0719c-.27695-.0525-2.40292-.71079-3.76433-1.14431s-1.95826-.64229.82306.2042c-2.80082-.80163-4.21196-1.17318-4.22213-1.14343-.0102.0298 1.38061.4608 4.18363 1.26441-2.82076-.75285-72.9815-21.99401-120.07146-36.2853-47.089955-14.29129-71.109127-21.63271 18.35326 5.41392-91.892817-19.02059-138.7221855-24.40476-139.6483943-20.05774-.9262087 4.34703 44.0507423 18.42524 135.7705643 38.32939-92.765257-11.48219-65.846677-8.06503-15.64024-1.79244 50.20645 6.27259 123.70075 15.40061 124.08694 15.34015-.38619.0605-.77043.0907-.9011.0907-.13068 0-.008-.0302.62028-.0907-.62805.0605-74.49137-4.32993-124.86775-7.35799-50.376372-3.02805-77.265802-4.69373 16.05394.81624-93.700667.77822-140.5376405 4.34849-140.5227855 7.69982.014855 3.35132 46.8815385 6.48372 140.5881855 6.38621-93.266312 6.48323-68.20814 4.77855-19.10442 1.39016s122.25299-8.46049 125.16888-8.71209c-2.91589.25161-4.37676.37741-4.37922.37742-.002-.00001 1.45348-.12581 4.37122-.37742-2.91786.25161-4.32997.37352-4.29731.37107.0327-.002 1.51012-.12926 4.37141-.37507-2.86129.24575-4.33582.37252-4.36602.37497-.0302.002 1.38392-.11942 4.29992-.37097-2.91591.25161-2.36004.26434-.9806.18731 1.37944-.077 3.58245-.2438 3.96084-.35119-.37839.10726-1.78953.45541-2.62674.65728-.83722.20187-1.10052.25746.81676-.2204-1.91728.47785-2.75987.69532-2.6804.68016.0795-.0152 1.08101-.26296 2.85199-.71566-1.771.45254-1.84215.52958-1.2843.42717.55784-.1024 1.74468-.38425 2.48967-.64952-.74506.26527-.69243.26225-.40086.17003.29157-.0922.82208-.27361 1.03279-.36509-.21063.0917-.31595.13751-.31595.13751s.10532-.0458.31595-.13751c-.21063.0917-.28084.13751-.25691.13751.0239 0 .142-.0458.30791-.13751-.16574.0917-.22328.13361-.20637.13066.0169-.003.10828-.0508.24037-.13866-.13266.0878-.19313.1317-.1892.1317.004 0 .0722-.0439.1972-.1317-.12492.0878-.18444.1317-.18248.1317.002 0 .0654-.0439.18648-.1317-.12095.0878-.18142.1317-.18142.1317s.0605-.0439.18142-.1317c-.12095.0878-.1425.13559-.11571.13854.0268.003.10191-.0389.17431-.13054-.0722.0917-.23504.1882-.3218.22226-.0868.0341-.0974.006.13472-.15256-.23209.15795-.26913.18227-.21498.14513.0541-.0371.19948-.13573.33214-.22363-.13266.0878-.22431.13559-.24122.13853-.0169.003.0409-.0389.20722-.13053-.16574.0917-.2486.13751-.2486.13751s.0829-.0458.2486-.13751c-.16574.0917-.39491.21259-.4949.26326-.1.0507-.0708.0311.28022-.15822-.35108.1892-.48469.27404-.4564.26764.0283-.006.21848-.10401.515-.27974-.29645.17554-.44956.26917-.45301.2731-.003.004.14277-.0818.44501-.2651-.30233.18333-.49056.27889-.51546.28134-.0249.002.1135-.0882.46446-.27734-.35108.1892-.84063.34425-1.05615.38568-.21551.0414-.15699-.0308.58809-.29608-.74508.26527-1.11761.4018-1.11761.40425 0 .002.37253-.12918 1.11761-.40025-.74508.27113-1.93191.55199-2.48973.65194-.55782.0999-.48663.019 1.28437-.43356-1.771.45253-2.7862.70025-2.87495.71541-.0888.0152.74892-.20222 2.6837-.67991-1.93482.47786-3.64632.86112-4.15586.95961-.50955.0985.18286-.0878 3.05587-.74898-2.86713.68266-4.3007 1.03861-4.29881 1.0527.002.0141 1.43923-.31369 4.31391-.9985-2.86128.70802-74.07864 18.14975-121.87835 29.8538-47.799715 11.70406-72.181767 17.67043 18.62759-4.57228-90.072482 25.2971-134.684798 39.4622-134.2395155 41.06111s45.9481635-9.36837 136.1060755-34.33604c-89.219167 27.97485-65.262795 20.48617-18.29947 5.77654 46.96332-14.70962 116.93358-36.64017 119.74221-37.54907-2.77937 1.02008-4.15638 1.58278-4.14229 1.6364.0141.0536 1.41928-.40181 4.20429-1.41802-2.75596 1.0981-2.27517.95474-1.00203.48126 1.27315-.47348 3.33865-1.27707 3.75213-1.49944-.41348.22237-1.66566.87967-2.38146 1.25317-.71581.3735-.89526.4632.83673-.44962-1.73199.91281-68.64983 31.628-113.8913 52.35319-45.241477 20.72519-68.806587 31.46036 16.16689-7.58688-81.434412 46.7965-120.064073 73.87541-117.871206 77.75004 2.192868 3.87464 45.208264-15.455 127.063966-61.47562-77.148727 52.90954-54.82467 37.68934-13.11397 9.14521 41.71071-28.54412 102.80807-70.41218 103.20596-70.79837-.39791.38619-1.05325.95181-1.3658 1.20634-.31255.25454-.2823.19798.69097-.66021-.97327.8582-59.08862 46.43314-98.56013 77.35489s-60.299192 47.19031 13.30287-10.56429c-69.670772 62.78067-102.393843 96.54049-100.167818 99.03835 2.226025 2.49787 39.401148-26.26621 109.526758-88.53334-65.62655 66.69909-48.0085 48.82241-13.46646 13.73654 34.54205-35.08587 86.00808-87.38093 88.07751-89.51861-1.98359 2.21959-2.92955 3.36742-2.88273 3.40936.0468.0419 1.08643-1.02202 3.07397-3.22601-1.90167 2.29566-1.66957 2.10549-.85868 1.18879s2.20058-2.55993 2.61408-3.17043c-.4135.61049-.62025.90987-.62025.90595 0-.004.20675-.31117.62025-.91395-.4135.60269-.50326.77043-.42332.67828.0799-.0922.32959-.44419.59491-.88109-.26527.43689-.36765.61729-.34714.59191.0205-.0254.16391-.25655.39024-.64281-.22624.38619-.22057.44957-.13873.36082.0818-.0888.23984-.32964.31826-.55199-.078.22237-.12775.36183-.13498.38081-.007.019.028-.0825.11988-.34211-.0917.25941-.34228.65925-.48223.84405-.13996.18479-.16925.15455.18176-.4462-.35108.60073-.43007.73823-.36474.62705.0653-.11118.27497-.47103.50118-.86501-.22625.39398-.3696.62315-.39011.64462-.0205.0215.0818-.16474.34701-.60152-.26527.43688-.51491.79479-.59487.89085-.08.0961.01-.0697.42328-.68021-.41348.61048-1.02493 1.48524-1.30188 1.87581s-.2194.29694.70513-1.02936c-.92451 1.32629-2.04894 2.85543-2.5029 3.44788-.45397.59244-.23747.24819 1.51988-2.17229-1.73199 2.43412-2.57945 3.6668-2.56192 3.67999.0175.0132.90004-1.1931 2.62802-3.63689-1.70077 2.45559-43.56483 62.71894-71.65641 103.15416s-42.41068 61.04231 10.97847-15.81462c-50.79118 78.67473-74.86788 118.85976-73.47513 119.76057 1.39276.90081 28.25497-37.4826 79.34164-115.94476-48.38961 80.10771-35.41134 58.63834-9.95045 16.49938 25.46089-42.13897 63.40438-104.94753 64.94522-107.51819-1.50378 2.59797-2.23422 3.91061-2.21136 3.92422.0229.0136.79903-1.27184 2.30846-3.87002-1.46475 2.61942-1.1244 2.10354-.39006.85331.73434-1.25022 1.86266-3.23478 1.97384-3.5527-.11112.3179-.20865.58804-.23696.66412-.0283.0761.0126-.0419.17836-.50024-.16573.45833-30.14366 68.25122-50.61983 114.52793-20.47618 46.27672-31.45059 71.03726 6.3907-14.56908-30.17688 88.99834-41.28059 134.87657-37.088 136.3253 4.1926 1.44872 23.6815-41.53204 54.68986-130.25167-22.84093 90.78123-16.31674 65.05036-4.02575 16.33698 12.29098-48.71339 30.34876-120.40928 30.57501-121.55808-.22625 1.1488-.58415 3.15482-.75137 4.13492-.16723.98009-.14378.93425.39269-2.02066-.51489 2.95491-.76064 4.43724-.74805 4.44162.0126.004.28354-1.46921.80205-4.42612-.49151 2.96271-13.84173 75.14134-22.81786 123.5642-8.97613 48.42287-13.57818 73.08997 3.42665-18.97035-10.81066 93.21302-13.07131 140.19979-9.75675 140.59963 3.31457.39984 12.20435-45.78724 23.69455-138.9219-5.1316 93.48961-3.73314 68.42842-1.01814 19.24587 2.715-49.18256 6.74655-122.48648 6.88113-125.48234-.0624 2.99977-.0604 4.49966-.0248 4.50066s.10475-1.49689.17672-4.49266c-.008 2.99586-.008 4.49379-.005 4.49379s.009-1.49793.0127-4.49379c-.004 2.99586-.006 2.57651-.006 1.26241 0-1.31411.002-3.52298.006-4.10615-.004.58317-.006.89232-.006.90497 0 .0127.002-.27119.006-.87397-.004.60268-.006.69631-.006.55393s.002-.52077.006-.86212c-.004.34135-.006.5081-.006.50563 0-.002.002-.17414.006-.50963-.004.33549-.006.4964-.006.49148 0-.005.002-.1757.006-.50358-.004.32769-.006.49836-.006.50329 0 .005.002-.1559.006-.49119-.004.33549-.006.49151-.006.48315 0-.008.002-.18111.006-.50315-.004.32183-.006.48761-.006.49104 0 .003.002-.15548.006-.48304-.004.32769-.006.43691-.006.39937 0-.0375.002-.22183.006-.48117-.004.25941-.006.39301-.006.39546 0 .002.002-.12625.006-.39146-.004.26527-.006.32279-.006.27156 0-.0512.002-.21124.006-.38101-.004.16968-.006.25452-.006.25452s.002-.0848.006-.25452c-.004.16968-.006.32573-.006.37446 0 .0487.002-.01.006-.26943-.004.25941.004.34621.0102.31702.007-.0292.0124-.17438.005-.37892.008.20478.0161.32669.0194.34033.003.0136.002-.081-.0114-.30933.0132.22817.0199.34226.0199.34226s-.007-.11409-.0199-.34226c.0132.22817.024.3257.0261.31397.002-.0117-.005-.13272-.0261-.34157.0215.20871.0323.31306.0323.31306s-.0108-.10435-.0323-.31306c.0215.20871.0282.33452.0261.34968-.002.0152-.0128-.0803-.0261-.31418.0132.23403.0329.38715.0413.41156.008.0244.006-.0799-.0262-.36066.031.28086.0661.71678.0797.91914.0136.20235.006.17114-.0495-.48225.0548.65339.0452.76847.0199.62366-.0253-.14482-.0662-.54952-.0739-.9357.008.38618.016.45933.0194.3774.003-.0819.002-.31892-.0114-.553.0132.23403.006.43102-.004.48563-.01.0546-.0222-.0332-.0185-.36865-.004.33548-.006.69729-.006.82942 0 .13214.002.0346.006-.54857-.004.58317.004.74019.0102.64804.007-.0921.0124-.43346.005-.84695.008.41349.071 1.13905.11197 1.49501.041.35595.0596.34229-.0224-.72264.082 1.06493.2205 3.1285.28729 4.17686.0668 1.04836.0619 1.08151-.14291-1.91436.26529 2.99587.42034 4.48893.44567 4.4855.0253-.003-.0791-1.50338-.33267-4.4935.30425 2.99001 8.80814 75.90504 14.52827 124.82337s8.65651 73.83997-2.17424-19.15679c13.97095 92.62421 22.52262 138.70011 24.17513 138.45138s-3.59414-46.82211-17.21985-139.49645c16.75417 92.10679 12.21648 67.42594 3.37079 18.97771s-21.99938-120.66384-22.47725-123.62655c.55782 2.95685.8699 4.42456.90698 4.41574.0371-.009-.20081-1.49414-.74295-4.44334.61633 2.94124.9245 4.41187.92449 4.41187.00001 0-.30816-1.47063-.92449-4.41187.61633 2.94124.60471 2.75011.38532 1.61156-.21938-1.13856-.64653-3.22454-.86124-4.073.21453.84843.31303 1.2512.30723 1.23659-.006-.0146-.11589-.44657-.31853-1.26759.20285.82113.25358.95376.21898.7636s-.15455-.70312-.29308-1.17317c.13852.47005.21165.70898.21409.71193.002.003-.0658-.23008-.21009-.70393.14438.47393.27211 1.0064.31009 1.20828.038.20187-.0138.0732-.22849-.77526.21453.84843 22.61523 71.40051 37.88516 119.4334 15.26992 48.03288 23.40909 73.54657-4.89944-15.68178 30.50858 88.5297 46.86392 132.41322 48.02298 132.01285 1.15905-.40038-12.87817-45.08467-43.15472-133.69058 38.17185 85.68261 60.03423 127.29117 62.95743 125.99804 2.9232-1.29312-13.09278-45.48794-50.67763-131.41206 42.9173 83.18137 30.87049 59.7878 7.92125 15.27755-22.94923-44.51025-56.8009-110.13718-57.49331-111.42251.69241 1.28533 1.68128 2.96856 2.12109 3.68193s.33058.45689-1.17322-2.13718c1.53303 2.57652 2.31223 3.85405 2.32683 3.84289.0146-.0112-.73539-1.31102-2.26073-3.88929 1.55256 2.56093 39.29145 65.49949 64.60805 107.73126 25.3166 42.23176 38.21089 63.75671-9.92576-16.50957 53.61345 76.97727 83.02985 113.65415 85.78045 111.74907s-21.1646-42.39213-74.21435-119.7427c57.98435 73.45575 42.41308 53.77511 11.8898 15.13907-30.52328-38.63605-75.99856-96.22751-77.82222-98.59338 1.90167 2.31127 2.87786 3.43277 2.90906 3.39815.0312-.0346-.88259-1.22538-2.76091-3.5386 1.95238 2.2469 1.6169 1.89095.71823.87819-.89866-1.01276-2.36051-2.68233-2.66087-3.06266.30038.38032.97328 1.04054 1.33118 1.36187.35789.32133.40079.30378-.55883-.67144.95962.97521 2.3454 2.36782 2.96662 2.98758.62121.61975.47786.46664-1.6208-1.64958 2.12791 2.08696 3.2104 3.11288 3.22797 3.09539.0176-.0175-1.02975-1.07839-3.16147-3.16509 2.15522 2.05575 56.75561 51.05829 93.41542 83.91813 36.65982 32.85983 55.37907 49.57698-14.22798-12.93804 71.71735 60.15714 108.5893 89.0285 109.65816 87.75443 1.06887-1.27407-33.66536-32.69357-105.16036-93.11811 73.44545 57.94907 53.6983 42.46362 15.02026 12.0111-38.67805-30.45252-96.28698-75.87212-98.56509-77.79134 2.31712 1.86656 3.50298 2.77351 3.5284 2.74722.0254-.0263-1.10962-.98584-3.4343-2.85225 2.35807 1.81974 2.08307 1.61103 1.08738.84402-.99568-.76702-2.71206-2.09234-3.23676-2.5058.5247.4135 64.01125 38.47314 107.31521 64.40018 43.30397 25.92703 66.42535 39.72146-13.7803-8.39547 84.51215 40.91028 128.6192 57.57769 130.56671 53.59297 1.94752-3.98473-38.26451-28.62159-122.39051-70.31987 87.1667 33.86299 62.10366 24.16154 15.08559 5.91876s-115.99116-45.02688-116.64457-45.32919c.65341.30231.65541.35497.43308.28816-.22232-.0668-.66896-.25307-.91285-.42861.24382.17554.36083.25844.35738.25501-.003-.003-.12735-.0932-.36538-.26301.23796.16968.67194.35498.88746.42374.21552.0688.21259.021-.42326-.27547.63585.29645.9684.44761.97855.44908.0102.001-.3021-.14677-.95585-.44908.65339.30231 2.69158.97521 3.86379 1.33263 1.1722.35742 1.47842.39935-1.33215-.56025 2.81057.9362 4.21586 1.39455 4.21586 1.38524 0-.009-1.40529-.48629-4.21586-1.42074 2.81057.9206 72.71207 23.0542 119.62774 37.8985 46.91568 14.8443 70.84552 22.39929-18.28723-5.83731 91.03245 22.24467 137.31227 30.29118 138.11487 27.05395.8026-3.23722-43.87202-17.75819-134.74847-40.64846 92.00375 16.65278 67.2996 12.20287 18.87042 3.45178-48.42919-8.7511-120.58341-21.80339-123.47982-22.35536 2.89641.50323 4.35046.73143 4.35438.7066.004-.0248-1.44228-.30271-4.34638-.81163" fill="url(#b)"/></g><g opacity=".5"><path d="m145.27148 325.75195c-46.104526 4.35468-94.861742 16.87695-129.054604 49.86549-17.5673941 16.47021-22.1109107 45.59826-6.4222603 64.87914 23.8637843 30.68184 64.0116123 40.64693 100.2390043 48.69173 88.04515 16.50573 179.58663 13.99656 266.95507-5.38726 11.90772-2.21517 34.45463-9.99663 39.45183-10.9312-6.61021 3.69717-13.22041 7.39434-19.83062 11.09151 32.24793 1.98454 65.63035-11.14257 88.13198-34.31082 17.11898-16.74931 21.04745-46.20669 4.4083-64.6731-27.58572-31.32152-70.9552-41.37695-110.49053-49.06582-70.4772-11.978-142.8789-11.31509-213.49564-.81009 4.88545-3.38364 15.77598-7.77504 15.77598-7.77504s-27.41207-1.75949-35.66851-1.57454zm103.58623 111.63742c48.85418 8.89128 100.43987 10.22061 148.4298-3.95178 18.21896-3.16004 43.67305-23.96244 25.26718-42.254-6.02936-7.90679-27.0693-19.00462-28.24975-20.06968 18.08121 6.7768 41.14455 13.50958 48.72488 33.24835 1.10433 24.18743-28.31287 29.49662-46.17252 35.25159-70.46841 19.6308-145.07797 25.65604-217.65419 16.02806-23.88731-4.17228-51.44109-7.6338-68.44119-26.74552 3.30895 1.59732 26.96861 15.0636 40.45285 15.37618 20.08329 2.73068 43.88656 6.08984 60.88173-7.43061 14.47408-19.73934-14.42683-33.70366-30.64334-37.35173-27.66142-6.88998-56.9645-8.85051-85.237865-1.39149-20.063268 1.98658-33.886713 28.31889-17.985153 43.4023 7.440618 6.82778 12.17183 9.74333.210764 3.38376-17.016919-5.5376-32.237213-29.80654-12.417158-41.72044 40.694622-19.9375 86.473222-26.46876 131.055092-31.65994 16.80334-1.74951 33.69691-1.81027 50.57155-1.82669 41.06889.8004 84.05149.0912 122.36156 16.95864 17.35425 4.3326 20.19351 21.37844 1.13224 24.95255-54.78536 17.05222-100.51171 8.68083-151.93408 8.8343 8.65083 7.50295 18.34843 13.43574 29.6476 16.96617z" fill="#00b7e5" opacity="1"/><path d="m142.16797 331.5332c-21.60609 1.99175-43.017533 6.43754-63.511059 13.59795-14.871874 5.24425-29.328634 11.91575-42.411516 20.77184-9.424439 6.46345-18.166682 14.30854-24.15801 24.1392-4.4522197 7.28066-7.1149152 15.82885-6.5901571 24.41378.4570058 8.68845 4.135881 16.96278 9.4357961 23.77244 1.911573 2.43658 3.963876 4.76373 6.088446 7.01578 7.213896 7.35909 16.054563 12.89865 25.191979 17.54945 13.773222 6.92574 28.455528 11.86636 43.317074 15.86119 22.239277 5.91922 45.009237 9.66566 67.871637 12.15574 31.61069 3.3986 63.46818 4.329 95.23616 3.25439 34.22027-1.19618 68.38477-4.73161 102.03256-11.12684 22.82814-4.4005 45.46431-10.10371 67.27451-18.21566 10.24832-3.84465 20.32093-8.21841 29.90813-13.51543-9.18851 9.48484-20.43761 16.76835-32.32813 22.40235-1.33724 1.17382-2.67448 2.34765-4.01172 3.52148 1.84054.0426 3.6947.23064 5.52679.18302 15.55055-3.54152 30.72635-9.33387 44.05777-18.17884 9.41868-6.30087 17.96985-14.27838 23.6027-24.20558 4.19668-7.33621 6.4945-15.90717 5.64477-24.37673-.81621-8.81059-4.95003-17.07027-10.74731-23.66167-2.13606-2.50124-4.58529-4.70371-7.04006-6.88125-6.93963-6.53253-15.15692-11.57162-23.63696-15.86009-13.76338-6.86886-28.41574-11.78954-43.25178-15.75589-22.01771-5.84373-44.55511-9.55425-67.18373-12.03736-31.80692-3.43873-63.86501-4.38068-95.83185-3.28907-32.73616 1.1497-65.41806 4.45136-97.64822 10.33543-23.28513 4.29987-46.38341 9.9327-68.676848 17.9744-.986747.36345-1.977303.71664-2.959801 1.09152 1.953657-1.17733 4.124514-2.42105 6.195312-3.56836 5.267912-2.90312 10.862162-5.67021 16.365088-8.11502 12.860319-5.73931 26.491239-10.40427 40.119659-14.01633 2.10984-.58764 4.26263-1.06073 6.36322-1.65097 1.39182-.88831 2.78365-1.77663 4.17547-2.66495-1.66951-.39109-3.33207-.86948-5.0059-1.20647-1.13801.0955-2.27601.19103-3.41402.28655zm125.67969 17.375c7.90547.003 15.82182.15442 23.6786.46792 7.801.316 15.60549.78964 23.34463 1.42811 13.11129 1.0951 26.18535 2.67392 39.15841 4.8735 2.60276.45071 5.48557.97416 8.07226 1.46485 3.90684.76022 7.80292 1.5746 11.6836 2.45898 1.87167.44623 3.94798.92113 5.88855 1.41897 9.56341 2.39099 19.02014 5.25736 28.19738 8.86814 5.4203 2.1428 10.8788 4.61826 16.02511 7.48156 1.26809.70295 2.56461 1.47111 3.74247 2.18641 3.49073 2.1594 6.8513 4.54352 9.92969 7.26367.46855.42292 1.17093 1.05571 1.70744 1.58516 4.40845 4.26351 8.23103 9.55827 9.26898 15.72653.98369 5.51405-.69874 11.19024-3.64545 15.85075-1.21786 1.96385-2.6329 3.8005-4.16691 5.52702-.41225.44983-1.03116 1.13751-1.5482 1.65925-1.66773 1.67042-3.37898 3.33413-5.2681 4.74323-8.63093 4.2401-17.69959 7.50798-26.83995 10.45884-1.37401.42078-2.96568.93245-4.42826 1.3737-3.69697 1.12031-7.3479 2.16471-11.04071 3.16581-19.10821 5.15507-38.52922 9.11191-58.07986 12.16557-10.06694 1.5442-20.31208 2.85957-30.51383 3.73722-12.50942 1.11132-25.00471 1.93346-37.57123 2.40184-12.36563.44695-24.82443.5477-37.23899.16342-4.89926-.13954-9.92274-.38389-14.87126-.67943-18.54058-1.15488-37.20612-3.47923-55.4773-7.23379-2.87297-.58175-5.75642-1.24251-8.52445-1.95574-4.66166-1.19752-9.27043-2.60793-13.78536-4.27727-1.0572-.39388-2.34784-.89425-3.48494-1.35473-3.53942-1.44456-7.00905-3.06652-10.34904-4.92847-.59937-.33828-1.47763-.83582-2.16816-1.26039-5.17351-3.16182-10.18648-6.9281-13.59436-12.02525-2.05735-3.09032-3.36496-7.04502-2.16268-10.70744.89493-2.8442 3.02819-5.11475 5.39785-6.83505-.0164 3.67321 2.30672 6.85753 4.88671 9.26119 4.65809 4.25238 10.41952 7.05757 16.22778 9.38265 10.4131 4.03718 21.42171 6.41901 32.50927 7.61849 9.48927.96793 19.13249 1.13466 28.57207-.39797 5.16485-.89682 10.43403-2.23119 14.80027-5.25498 2.62014-1.80675 4.81341-4.66689 4.80664-7.97266.017-3.72857-2.36128-6.94003-4.98464-9.36747-4.57843-4.14362-10.21043-6.90432-15.89359-9.19476-8.89839-3.49781-18.25931-5.73137-27.71162-7.09402-.0143.79427-.0286 1.58854-.043 2.38282-1.15691-.55144-2.31381-1.10287-3.47071-1.6543.70899-.30664 1.41797-.61328 2.12696-.91992-1.79564-.25965-3.6212-.3923-5.40866-.64258-.69955-.42505-1.45891-.62235-2.27672-.59712-14.3954-.98968-28.93411-.92522-43.22187 1.26386-7.80392 1.26666-15.63799 3.10066-22.716343 6.72369-1.503952.81602-3.042974 1.64133-4.354927 2.73847-3.453107 3.77967-6.281533 8.52047-6.439452 13.76242-.199688 4.91197 2.13696 9.57251 5.32637 13.17775 4.648835 5.26308 10.701654 9.03919 16.864389 12.28269 10.867503 5.59684 22.498563 9.53754 34.223893 12.89981 22.30256 6.27626 45.21468 10.20401 68.23345 12.67947 14.43707 1.54372 28.93795 2.47972 43.45151 2.8756-10.74166.24413-21.57305.18472-32.25977-.15039-7.78085-.25951-15.64985-.66864-23.35547-1.24024-14.61658-1.09328-29.19297-2.77971-43.64648-5.22656-2.32451-.40923-4.83376-.84753-7.2215-1.30773-4.11421-.77682-8.3796-1.67232-12.53241-2.6161-1.8718-.44567-3.94791-.9214-5.88882-1.41788-13.55227-3.41937-26.969016-7.68643-39.528609-13.88297-7.912032-3.97075-15.60857-8.7097-21.728264-15.1857-4.05728-4.32714-7.370491-9.74182-7.828003-15.77727-.498387-5.83142 1.850188-11.52864 5.231362-16.17021 1.208339-1.62746 2.464169-3.25744 3.937116-4.64605 7.468224-4.88015 15.770521-8.29932 24.110344-11.37734 9.568809-3.45393 19.299044-6.27624 29.187024-8.79495 13.77986-3.49656 27.8798-6.36823 41.90806-8.74702 10.06249-1.70286 20.16971-3.13974 30.30487-4.33459 12.05845-1.38843 24.33802-2.4511 36.45545-2.76773 16.72232-.31284 33.45283-.38495 50.17346.0627 6.10887.17377 12.40315.42087 18.52408.76769 6.13564.35085 12.24734.7945 18.3503 1.38184 6.09624.58408 12.14687 1.30213 18.20033 2.20762 3.40234.51223 6.72606 1.07176 10.13496 1.72487 1.36162.25453 2.64332.52011 4.03056.80275 1.56336.33715 3.34199.72984 4.98093 1.11669 1.93083.4643 3.69733.90992 5.62537 1.44105 9.05152 2.49372 17.99522 5.72342 26.03823 10.63366.39257.25359.87759.54403 1.30371.82916 3.726 2.46714 7.29321 5.2969 10.07344 8.82205 1.77941 2.30412 2.88647 5.39597 1.97256 8.27647-1.10896 3.57672-4.05091 6.19216-6.98933 8.324-6.02528 4.1903-12.95967 6.83296-19.91451 9.03773-7.39059 2.29016-14.96406 3.94726-22.58649 5.25161-11.92289 2.01954-24.17159 3.15865-36.32109 3.6723-8.20643.33921-16.49505.41394-24.76415.21643-12.36727-.29875-24.85187-1.19807-37.1863-2.79693-1.06193-.0908-2.13517-.38425-3.19013-.35016-1.4952.37192-2.9904.74385-4.4856 1.11578 1.35547.91707 2.66932 1.92683 4.0504 2.78684 20.2972 4.89513 41.1144 7.4331 61.9567 8.35216 20.27565.83302 40.64843.1732 60.76179-2.60253 12.54573-1.79116 25.05936-4.32459 36.97638-8.71498 6.24844-2.37019 12.45692-5.21093 17.59984-9.55557 3.19614-2.73294 6.01367-6.39148 6.38333-10.71718.39307-4.09654-1.65692-8.00498-4.38492-10.92454-9.03288-9.50652-20.54936-16.26301-32.49427-21.45208-16.05826-6.87753-33.10932-11.11332-50.25369-14.24371-23.56895-4.22523-47.46665-6.30244-71.36105-7.54996-14.67981-.74584-29.37501-1.18922-44.07188-1.37594-1.23064.0317-2.46128.0637-3.69193.0952 16.82141-1.43439 33.65381-2.13934 50.57032-2.15821z" fill="#e5f9ff" filter="url(#e)" opacity="1" stroke-width="15"/></g><g opacity=".5"><path d="m248.85742 437.38867c48.85413 8.89127 100.43981 10.22121 148.42969-3.95117 18.21894-3.16004 43.67343-23.96236 25.26758-42.25391-6.02936-7.90678-27.06955-19.00525-28.25-20.07031 18.08119 6.77679 41.14428 13.5093 48.72461 33.24805.0668 1.46388.0107 2.85373-.13672 4.18359 2.53093-3.1025 5.04322-6.22032 7.41992-9.4375 2.95995-4.00668 5.79756-8.10094 8.51172-12.27539s5.30453-8.42874 7.76562-12.75976c1.14333-2.01203 2.16244-4.09463 3.25-6.13868-26.34722-18.34955-59.94429-25.94679-91.17968-32.02148-70.47713-11.97799-142.87943-11.31554-213.4961-.81055 4.88545-3.38363 19.25196-9.34961 19.25196-9.34961s-30.8881-.18495-39.14454 0c-40.73831 3.84783-83.530491 14.09908-116.533199 39.18555 1.332207 2.5226 2.610245 5.07309 4.029297 7.55078-.161629.2897-.283274.55634-.34375.78906-.06048.23273-.05978.43154.02539.58204.08392.14826.248602.2504.472656.31835.224054.0679.507477.10172.830078.11329 2.115697 3.73831 4.325808 7.42021 6.628906 11.04101 2.303099 3.62081 4.699993 7.1814 7.185547 10.67774 2.485554 3.49633 5.059593 6.92806 7.722656 10.29296 1.105137 1.3964 2.288725 2.73061 3.423829 4.10352 1.500307-2.67662 3.840314-5.15622 7.310547-7.24219 40.694583-19.93748 86.472863-26.46898 131.054683-31.66015 16.80333-1.74951 33.69765-1.80976 50.57227-1.82618 41.06885.8004 84.0513.0916 122.36133 16.95899 17.35423 4.33259 20.19406 21.37902 1.13281 24.95312-41.46382 14.59881-86.75579 13.82951-129.88672 8.76758l-24.89606-2.6045c9.19915 11.77673 20.4395 17.01322 32.49567 19.63575z" fill="#00b7e5" opacity="1"/><path d="m142.16797 331.5332c-21.83778 2.01917-43.480704 6.52865-64.172347 13.83306-14.047822 4.99578-27.708036 11.28161-40.181968 19.49039-2.819069 1.86881-5.506441 3.92501-8.194514 5.97538.267371.61938.770327 1.21709.894531 1.84961-.506243 1.40832.36352 3.05976 1.824219 3.41211.482006.25927.615269.98643.962235 1.42688 5.856041 10.10943 12.412686 19.81478 19.65686 28.98172.383332.3135.782158 1.39443 1.154876 1.18222 1.783041-2.50861 3.526326-5.1022 5.758619-7.23158 7.469468-4.87919 15.771108-8.30127 24.11236-11.37726 10.105883-3.6519 20.530859-6.62711 30.898019-9.23003 21.82749-5.40478 44.11999-9.36917 66.5183-12.16221 5.92642-.74446 11.88567-1.37262 17.85865-1.9081 3.44172-.30242 6.98953-.57546 10.45508-.79687 6.25166-.40419 12.40494-.60064 18.66514-.65698 20.65332-.2888 41.27129-.21418 61.86611.92455 8.09767.45592 16.26915 1.09172 24.32843 1.98645 4.8802.53867 9.69726 1.16846 14.57374 1.93864 5.65733.88517 11.574 2.02011 17.12713 3.33468 10.69792 2.5897 21.34493 5.98053 30.86679 11.60844 3.14637 1.8813 6.32157 4.15448 9.0474 6.74842 2.50368 2.36323 5.03152 5.20776 5.35925 8.78962.28079 3.34323-1.76687 6.34356-4.08821 8.54232-4.21388 3.95699-9.4991 6.52731-14.79276 8.71458-10.83373 4.32404-22.29737 6.82578-33.78512 8.67247-12.0184 1.8808-24.30638 2.91164-36.5199 3.31389-8.18468.27817-16.54629.284-24.80109.015-10.29054-.33066-20.74447-1.08547-31.0369-2.32925-2.04729-.21085-4.09416-.56967-6.13361-.75256-1.52755.37997-3.0551.75995-4.58265 1.13992 1.35546.91708 2.66933 1.9268 4.0504 2.78686 20.32864 4.90529 41.17953 7.44125 62.05467 8.35613 20.2432.82688 40.58283.1647 60.66382-2.60654 12.54637-1.79139 25.06034-4.32544 36.97819-8.71534 6.24618-2.37415 12.45855-5.20872 17.59788-9.55731 3.19636-2.73195 6.01267-6.39042 6.38348-10.71506.3902-4.09674-1.65545-8.00503-4.38492-10.92454-9.03333-9.50613-20.5494-16.26313-32.49427-21.45208-16.05824-6.877-33.10935-11.1134-50.25369-14.24371-23.56896-4.22517-47.46665-6.30245-71.36105-7.54996-14.67981-.74574-29.37501-1.18921-44.07188-1.37595-1.23129.0317-2.46258.0637-3.69388.0952 23.20325-1.97074 46.4233-2.58963 69.70788-1.85526 8.20354.27125 16.61251.71125 24.79718 1.34986 14.14833 1.08792 28.25657 2.74716 42.24885 5.11672 2.60276.45071 5.48557.97416 8.07226 1.46485 3.9069.75994 7.80274 1.57542 11.6836 2.45898 1.87167.44623 3.94798.92113 5.88855 1.41897 13.33758 3.36114 26.53921 7.55089 38.92738 13.58657 8.03678 3.9776 15.86073 8.72929 22.10543 15.24566 3.20512 3.35952 5.84715 7.32018 7.27704 11.76303.30756.83315.61513 1.6663.92269 2.49944 4.25973-5.23545 8.06822-10.81825 11.76502-16.45985 2.93771-4.51899 5.68515-9.15703 8.36389-13.83311-10.86934-7.73854-23.07958-13.37082-35.56377-17.95925-17.5128-6.38614-35.6916-10.78648-54.00566-14.1627-28.58637-5.1976-57.59834-7.82652-86.62491-8.73679-36.87034-1.10454-73.83152.61727-110.42537 5.26503-27.21873 3.50708-54.28891 8.56018-80.66841 16.19572-8.223225 2.39276-16.372955 5.04685-24.393524 8.05228 10.365904-6.22201 21.312027-11.44862 32.556644-15.875 1.30579-.50285 2.64044-1.02996 3.98956-1.52794 3.80367-1.42335 7.63374-2.75414 11.41329-3.97392 6.92655-2.24395 13.94295-4.20694 21.01707-5.92782 1.42057-.90691 2.84114-1.81381 4.26172-2.72071-1.67081-.39048-3.33471-.86804-5.00981-1.20452-1.13801.0955-2.27601.19103-3.41402.28655z" fill="#e5f9ff" filter="url(#d)" opacity="1" stroke-width="15"/></g><path d="m303.57617 1.6875c-26.76236.113511-51.82578 5.6404601-71.68555 18.410156-18.66721 12.004047-33.14036 31.549013-36.7871 58.564453-5.81563 2.132117-11.41074 2.601688-17.03125 3.449219h-.00196-.0039c-30.91237 4.672415-61.75485 17.380804-85.710941 37.476562-23.816511 19.97984-40.779698 47.96766-41.697266 81.33203-.922271 33.57814 17.589637 59.85616 43.363281 80.8711-17.069225 13.7793-33.066283 29.02949-46.722656 46.47656-7.814062 9.98358-14.819078 20.72587-20.947266 32.19336 2.039144 4.05853 4.155827 8.08101 6.416016 12.02734-.323258.5794-.488703 1.07011-.318359 1.3711.167833.29653.657533.4085 1.302734.43164 8.462786 14.95327 18.444604 28.99431 29.787109 41.90039-.155947.43323-.179428.74998-.033203.91406.15271.17136.50531.16264.986329.03906 14.59404 16.30924 31.266539 30.63157 49.589842 42.59961-.003.0942-.19911.48526-.1582.51172.0393.0254.30689-.30269.38672-.33984 16.76844 10.62482 34.74272 19.21462 53.54297 25.58789.12712.84486.33464 1.46177.71093 1.59179.36729.12691.89462-.21363 1.49414-.76953 16.10428 5.51381 32.72964 9.36845 49.61719 11.50391.19308.63647.40881 1.08303.67578 1.11523.27697.0334.6059-.38068.95899-.99804.78682.10205 1.57952.14373 2.36718.23828-3.77132-47.0599 8.66079-82.67671 30.27149-112.08203 7.36786 6.32213 14.23556 13.05957 20.45117 20.25781 15.39768 17.83068 26.92872 38.52769 32.74805 63.46289 1.2287 9.52902 2.38604 16.1882 3.15039 22.42187 6.89318-1.78736 13.71722-3.84501 20.43945-6.21679.20215.34542.51676 1.02396.5918.99804.0758-.0262-.092-.75903-.14649-1.16406 6.40045-2.09699 12.71355-4.45179 18.92383-7.05859.43772.39501.80393.62726 1.02539.52929.2121-.0938.29496-.48032.30664-1.02539 13.87931-6.25946 27.15782-13.77377 39.66993-22.44921.56886.35049 1.02781.5406 1.25.38671.22825-.15809.20291-.68062.0625-1.36914 17.9862-12.3968 34.27009-27.09755 48.43554-43.72656.12882.0311.55374.31295.5918.26758.0394-.0469-.31911-.42795-.37695-.55664 8.29791-9.93044 15.71364-20.53834 22.36718-31.61328-5.42536-7.99063-11.32459-15.53856-17.6582-22.62891-22.50252-25.18979-50.00248-44.99941-79.06445-61.41016 31.79766-19.40349 63.1335-37.72729 87.30664-59.40234 27.65373-24.79608 46.14943-56.23785 40.71679-95.58984-5.42502-39.28878-28.51579-71.361922-58.88867-94.390628-30.44388-23.085697-68.21746-37.5059674-105.01758-42.3691408-9.21449-1.2176323-18.34083-1.8081206-27.25781-1.7695312zm-17.97265 74.644531c7.36565-.04115 14.79127.504644 22.05664 1.597657 30.36212 5.894146 55.17282 16.082978 75.98242 38.214842-3.36405 10.78589-8.40348 22.14251-15.79102 28.81836-19.61614 14.81657-36.51653 22.30952-56.77929 30.77539l-12.41993-38.8457c-6.03839-18.886-19.14941-33.24537-34.85937-42.312502-6.99372-4.036724-14.58222-7.100465-22.55274-9.380859 13.11385-5.884488 28.56142-8.778917 44.36329-8.867188zm-64.01563 68.941409c18.13349-.51907 36.34544 3.17241 50.05469 12.15625l32.4414 21.25976c-26.748 10.91339-58.09386 22.4431-90.50195 36.24805l-17.91211 7.62891c-28.06653-12.06406-45.71503-25.06763-47.04297-41.74219 14.46033-24.57109 47.54601-34.7483 72.96094-35.55078z" fill="#00b7e5"/><path d="m303.65234 19.6875c-24.20921.102682-46.15802 5.346901-62.02734 15.550781-15.31052 9.845506-25.69619 23.722234-28.43164 43.988281.84949.05131 1.6946.113971 2.54102.179688 25.74182-19.96929 62.09127-24.167336 94.60546-19.275391 20.95914 3.154504 40.72342 10.011865 56.33594 19.619141l.28516-.427734c23.84661 15.949143 38.44372 30.871114 44.67578 47.041014 6.23207 16.17096 2.34123 32.83849-7.41211 46.7832-19.50872 27.88638-60.24329 51.23708-106.33203 79.87305-2.58651 1.60703-5.24205 3.28115-7.85938 4.91797 10.41896 4.16903 20.99984 8.57654 31.59961 13.31445 9.32703 4.16904 18.67127 8.60839 27.9336 13.33399 34.72988-21.3997 68.58451-40.79014 92.4414-62.18164 25.52303-22.88556 39.50126-46.4031 34.90039-79.72461-4.66762-33.80721-24.39529-61.631715-51.93164-82.509768-27.53531-20.880117-62.77873-34.412581-96.50195-38.869141-8.43132-1.114141-16.75262-1.648195-24.82031-1.613281zm-102.28515 78.507812c-6.75594.09452-13.66536.667446-20.61133 1.714844-27.78596 4.199844-55.94377 15.944504-76.83203 33.466794-20.888262 17.52332-34.508271 40.28528-35.271486 68.03711-.749863 27.30106 13.003969 47.06944 36.513676 66.24805 23.50866 19.17861 56.38129 36.41134 89.76757 55.88672 33.38425 19.47435 67.38912 41.28023 93.08985 71.04883 17.02698 19.71873 30.12752 43.17848 36.65234 71.13672 4.08213-26.86977-1.10475-48.95192-11.75586-68.7754-15.07426-28.05784-42.14538-51.52762-71.34375-73.21484-29.19734-21.68517-60.28836-41.43453-82.88281-64.02539-22.59344-22.59086-36.91236-50.23542-27.73633-82.59375l.05078.01562c2.46736-11.79858 11.26321-21.57467 22.26563-29.18164 12.75586-8.82069 29.27514-15.24846 47.14648-18.50976 26.82861-4.894 57.52376-2.51609 81.08789 12.92578-4.66044-14.57624-14.01147-24.87436-26.71289-32.20508-13.39226-7.72991-30.8177-11.738179-49.64258-11.974608h-.00195c-1.25562-.017411-2.51526-.016421-3.7832 0zm193.61523 39.050778c-2.95323 7.91708-8.34125 15.09123-15.16601 21.16407-11.86014 10.55096-28.1937 19.24369-47.57813 27.92578-31.46953 14.09361-71.12435 27.91716-111.60351 45.16015 14.46513 5.57583 30.41715 11.41246 47.11132 17.76563 6.76622-4.28509 13.45927-8.47055 20.00977-12.54102 46.25515-28.73865 85.92512-53.40258 100.73437-74.57226 6.41388-9.16983 8.57536-16.49238 6.49219-24.90235zm-242.8457 82.3086c4.28353 9.00469 11.17213 17.63305 20.13476 26.5957 20.25037 20.24654 50.84574 39.97638 80.75391 62.19141 29.90612 22.21297 59.35758 47.06676 76.80469 79.53906 14.16385 26.36223 19.63828 57.82301 10.90234 94.63867 3.14932-1.17494 6.27499-2.41359 9.375-3.71484.43772.39501.80393.62726 1.02539.52929.2121-.0938.29496-.48032.30664-1.02539 13.87931-6.25946 27.15782-13.77377 39.66993-22.44921.56886.35049 1.02781.5406 1.25.38671.22825-.15809.20291-.68062.0625-1.36914 17.9862-12.3968 34.27009-27.09755 48.43554-43.72656.12882.0311.55374.31295.5918.26758.0394-.0469-.31911-.42795-.37695-.55664 4.109-4.91741 7.9504-10.0379 11.66406-15.24805-6.0455-9.63914-12.8819-18.6092-20.37891-27.00195-31.43255-35.18628-74.61753-60.19711-118.5625-79.83985-43.94597-19.64378-88.42636-33.85437-122.58203-48.43164-15.33148-6.54242-28.60433-13.10122-39.07617-20.78515zm-44.01367 74.33789c-17.465614 13.41486-33.323405 28.44346-46.650394 45.46875-9.589472 12.25161-17.896339 25.54799-24.632812 40.07226 7.788 13.02164 16.677502 25.3546 26.699218 36.75782-.155947.43323-.179428.74998-.033203.91406.15271.17136.50531.16264.986329.03906 6.669184 7.453 13.823859 14.43341 21.320312 21.02149 13.428482-36.29544 35.04635-67.55154 60.70703-94.59961 5.30245-5.58611 10.77241-11.004 16.37891-16.26563-19.24678-10.9504-38.06684-21.70613-54.77539-33.4082zm72.24804 43.41406c-6.8864 6.271-13.55011 12.75321-19.92187 19.4668-25.84282 27.23885-46.85402 58.05498-58.92969 94.16406 4.10009 3.05254 8.27627 6.00705 12.5625 8.80664-.003.0942-.19911.48526-.1582.51172.0393.0254.30689-.30269.38672-.33984 16.76844 10.62482 34.74272 19.21462 53.54297 25.58789.12712.84486.33464 1.46177.71093 1.59179.36729.12691.89462-.21363 1.49414-.76953 11.56057 3.95812 23.39661 7.02408 35.39844 9.25-3.03971-49.16696 10.7459-88.50692 33.92383-120.04492-16.78456-12.89938-35.33039-24.44456-54.12109-35.40625-1.62813-.94883-3.25851-1.87674-4.88868-2.81836z" fill="#e5f9ff" stroke-width="36"/><g opacity=".5"><path d="m28.738281 364.9375c-4.347209 3.30446-8.541733 6.84011-12.521484 10.67969-17.5673767 16.47019-22.1105098 45.59804-6.4218751 64.8789 23.8637601 30.68181 64.0109251 40.64662 100.2382781 48.69141 88.04507 16.50571 179.58673 13.99708 266.95508-5.38672 11.90771-2.21517 34.45593-9.99707 39.45313-10.93164-6.61021 3.69717-13.22183 7.39463-19.83203 11.0918 32.24789 1.98454 65.6312-11.14232 88.13281-34.31055 17.11896-16.74929 21.04733-46.20744 4.4082-64.67383-5.79124-6.57552-12.30954-12.16711-19.31055-17.04297-1.08756 2.04405-2.10667 4.12665-3.25 6.13868-2.46109 4.33102-5.05146 8.58531-7.76562 12.75976s-5.55177 8.26871-8.51172 12.27539c-2.3767 3.21718-4.88899 6.335-7.41992 9.4375-2.28858 20.64322-29.25643 25.6617-46.03516 31.06836-70.46834 19.63078-145.07815 25.65727-217.6543 16.0293-23.88728-4.17228-51.44132-7.63439-68.4414-26.7461 3.30895 1.59732 26.9689 15.06438 40.45312 15.37696 20.08327 2.73067 43.88571 6.08879 60.88086-7.43164 14.47407-19.73932-14.42608-33.7035-30.64258-37.35157-27.66139-6.88997-56.96494-8.84963-85.238276-1.39062-20.063248 1.98658-33.885919 28.31895-17.984375 43.40234 7.44061 6.82778 12.171991 9.74238.210937 3.38282-14.037461-4.56804-26.797129-21.8678-19.728515-34.47852-1.135104-1.37291-2.318692-2.70712-3.423829-4.10352-2.663063-3.3649-5.237102-6.79663-7.722656-10.29296-2.485554-3.49634-4.882448-7.05693-7.185547-10.67774-2.303098-3.6208-4.513209-7.3027-6.628906-11.04101-.322601-.0116-.606024-.0453-.830078-.11329-.224054-.0679-.38874-.17009-.472656-.31835-.08517-.1505-.08587-.34931-.02539-.58204.06048-.23272.182121-.49936.34375-.78906-1.419052-2.47769-2.69709-5.02818-4.029297-7.55078z" fill="#00b7e5"/><path d="m30.949219 369.82227c-8.439324 6.54893-16.103586 14.45229-20.924432 24.08024-3.6984227 7.34913-5.4170768 15.80635-4.1523044 23.98602 1.2966565 8.97138 5.9383084 17.16008 11.9563864 23.81853 6.09746 7.33673 13.931025 13.00919 22.155609 17.73668 12.741208 7.25915 26.553963 12.43352 40.558902 16.66728 20.12203 6.00587 40.79971 9.99092 61.58922 12.8386 30.69042 4.15594 61.69525 5.78038 92.65523 5.51015 35.23975-.36028 70.47414-3.20229 105.2551-8.92143 23.8941-3.96363 47.61618-9.25817 70.63342-16.85269 14.15924-4.7101 28.08974-10.27205 41.17717-17.47862-9.1891 9.48403-20.43631 16.77062-32.32813 22.40235-1.33919 1.17382-2.67838 2.34765-4.01758 3.52148 1.84187.0428 3.69725.23036 5.53073.18316 14.87995-3.38345 29.40194-8.83742 42.31456-17.04351 9.78197-6.25225 18.71431-14.22948 24.72079-24.26136 4.47254-7.41493 7.055-16.14905 6.32238-24.84712-.67222-8.9621-4.80251-17.40614-10.66623-24.11845-2.17081-2.56256-4.66662-4.81738-7.17569-7.0376-3.29637-3.19758-7.05688-5.84849-10.81216-8.48059-5.01722 8.85859-10.47475 17.4733-16.51416 25.6726-.59847.85301-1.26582 1.65383-1.90772 2.47389 1.10247 3.06248 1.73953 6.33576 1.3964 9.59637-.58863 6.26881-4.04034 11.86234-8.17655 16.44653-2.01017 2.21763-4.19329 4.29432-6.53422 6.15352-2.67545 1.32352-5.33742 2.51585-8.05108 3.64891-6.15264 2.58075-12.59095 4.82695-18.8533 6.84412-18.67693 5.91251-37.80095 10.32209-57.05087 13.90651-16.26725 2.99299-32.61644 5.3614-49.12916 6.729-10.29757.88873-20.6486 1.58294-30.92835 2.03541-12.40313.53841-24.81975.73369-37.26558.46396-6.26787-.13042-12.50331-.38396-18.79318-.76271-18.47719-1.12057-37.08048-3.40899-55.29553-7.10965-3.13251-.62306-6.28868-1.33506-9.30861-2.11416-4.6622-1.19586-9.26925-2.61131-13.78536-4.27727-1.05717-.39395-2.34789-.89412-3.4849-1.35482-7.67456-3.17015-15.19738-7.07964-21.3668-12.71611-3.28587-3.09263-6.35292-6.83452-7.20814-11.38342-.63368-3.24868.55108-6.64827 2.77621-9.04342.86793-.98118 1.86371-1.84426 2.9223-2.61356-.0168 3.67438 2.30824 6.85874 4.88896 9.26283 4.73432 4.31657 10.59592 7.14925 16.50355 9.4888 10.30063 3.95857 21.17652 6.30858 32.13178 7.50044 9.55402.98049 19.26523 1.15359 28.76827-.4039 5.13078-.8944 10.36074-2.23433 14.69963-5.23488 2.62188-1.80813 4.81465-4.66958 4.81055-7.97657.0148-3.72784-2.3608-6.9417-4.98659-9.36747-4.52501-4.10226-10.09031-6.84096-15.70545-9.12174-8.95385-3.5392-18.37966-5.79547-27.89781-7.16704-.015.79427-.0299 1.58854-.0449 2.38282-1.1556-.55079-2.3112-1.10157-3.46679-1.65235.71158-.30664 1.42317-.61328 2.13476-.91992-1.79941-.26126-3.62895-.3942-5.42038-.64452-.69811-.42484-1.4566-.62004-2.27275-.59599-13.86433-.95943-27.85672-.92476-41.63733 1.02547-8.07169 1.19902-16.172065 2.99144-23.5499 6.57831-1.773904.90801-3.569253 1.86094-5.109873 3.12306-3.451847 3.77904-6.278977 8.52011-6.437499 13.76046-.198267 4.91207 2.137993 9.57317 5.327373 13.17886 4.7191 5.33616 10.871228 9.15003 17.132401 12.4202 11.030808 5.64269 22.830688 9.60491 34.725248 12.97885 23.01224 6.41165 46.65809 10.34664 70.40434 12.77059 13.46981 1.35936 26.991 2.20022 40.52392 2.56682-10.74616.24534-21.58218.18401-32.27344-.15039-7.79841-.25542-15.59141-.66863-23.37305-1.24024-14.3442-1.07774-28.80228-2.72743-43.04615-5.13076-3.24527-.55408-6.7016-1.175-9.92813-1.81206-8.15487-1.60215-16.13607-3.45672-24.15317-5.71118-12.724279-3.6213-25.307195-8.07876-36.883179-14.5551-7.041604-4.00826-13.8432-8.78702-18.887082-15.21282-.569155-.75249-1.084024-1.44823-1.545645-2.16987-2.257877-3.43883-3.798326-7.43023-3.953125-11.57032-.01167-.34644-.02421-1.1246.0039-1.63685.01258-.30209.05902-1.03045.120398-1.49898.52292-4.65899 2.738425-8.92669 5.415607-12.70325.434263-.4956-.50658-.94293-.692201-1.41678-7.604433-9.66006-14.436463-20.04772-20.494208-30.79296-.707944-1.375-1.465568-2.75009-2.189453-4.12696-.625651.49219-1.251302.98438-1.876953 1.47657z" fill="#e5f9ff" filter="url(#c)" stroke-width="15"/></g></svg>