<svg height="500" viewBox="0 0 500 500" width="500" xmlns="http://www.w3.org/2000/svg"><g transform="translate(.000015)"><circle cx="-249.99998" cy="250" fill="#e51a1a" r="250" transform="scale(-1 1)"/><path d="m181.33938 83.856939c97.52275-31.84694 203.27597 26.159281 217.12696 131.568651 10.04116 85.89723-45.79566 162.6049-131.11288 174.6444-76.26503 6.65-147.16573-45.4981-149.44603-126.3231.16679-50.89801 30.03241-87.97493 76.60677-108.40662 44.00125-16.48183 90.46555-3.00917 112.28155 39.63622 17.95322 40.0953 3.57775 87.31302-40.4313 103.80676-21.98685 8.23292-51.6578-5.55285-56.72562-31.5612 24.48155 21.7253 69.7211 11.74379 80.1808-21.06198 5.24648-24.88185-11.48198-41.52298-24.36368-55.64156-23.21161-15.22125-63.26956-13.16738-85.32502 12.05139-41.51846 46.43224-18.48961 112.52397 35.72777 131.08081 60.66482 17.11352 118.96473-29.63961 126.96137-92.39988 2.7637-54.83226-40.99398-106.19486-96.51046-114.27807-76.21988-10.3001-138.45939 50.84936-147.743191 124.09106-9.31956 73.21828 47.315731 138.67973 111.863041 158.33924 49.05305 9.49897 98.18701 2.07129 139.64056-27.40671 82.90715-58.95602 100.11901-177.97214 43.55644-260.39974-52.71171-79.885311-158.575-103.987181-249.15842-67.061741-86.705021 39.45169-149.0660905 134.549061-117.102931 229.167621 15.77888-74.65377 50.93986-153.5943 123.407351-187.514491 9.28724-4.60517 19.44718-8.7232 30.56692-12.33106zm-160.722321 286.075591c-52.57825-113.8254-.38403-260.89182 113.777041-317.643861 10.84604-5.32012 22.21219-9.7712 34.03518-13.36069 115.76394-28.75816 246.03978 34.00351 263.68455 158.897471 10.04526 85.91695-27.72044 168.80365-107.97396 206.83173-102.24035 46.26108-224.798841-11.43986-234.690511-131.24969-7.33455-123.78718 127.307171-194.136761 222.718561-137.24102-42.54074-27.89653-94.21826-33.44528-140.80825-12.98978-71.17376 32.62266-105.080851 118.0397-80.762351 190.63139 30.697281 88.13423 123.572931 132.04164 212.817841 105.59803 82.80488-25.06359 132.16266-100.33164 140.19255-180.04986 12.12434-145.020371-132.23823-245.3588802-265.59709-221.973611 7.92036-4.10499 20.5989-8.4277792 35.61563-11.7452592 60.06317-13.23825 124.63426-3.45807 179.45368 32.4903392 109.65077 71.904621 141.09454 217.803071 65.16008 333.599141-143.00482 218.07486-377.311781 117.06797-437.622951-1.79433" fill="#b21a1a"/></g><path d="m378.7 165.94c3.04462 4.10247 5.76 8.37 8.46 12.78 34.38 55.08 55.44 124.38 56.25 179.37-41.22 39.24-117.18 60.21-193.41 60.21s-152.172001-20.97-193.419001-60.21c.747-48.6 17.244-108.36 44.820001-159.66 0 0 14.88376-26.51663 24.129-38.52 13.0533-16.94749 26.9173-33.79823 43.88625-46.82362 15.2076-11.67339 32.49518-21.148463 50.70375-27.147378 9.27212-3.054752 19.22772-4.673528 28.98-4.23 17.80752.809876 35.82486 4.998075 51.9975 12.495375 17.31794 8.028233 32.29741 20.757833 46.1925 33.845623 11.94211 11.24828 21.63311 24.71615 31.41 37.89z" fill="#ff8066" opacity=".5" stroke-width="36"/><path d="m220.12 85.939002-15.3 69.830998 35.37-6.39-29.07 86.04 31.59-11.43.54 110.7 38.61-148.59-34.74 13.95 27.18-87.3-30.96 3.78 5.76-34.820998c-8.51318-12.563621-16.73919-28.626322-28.98 4.23z" fill="#e51a1a"/><path d="m251.49356 121.00185c-7.87119 0-15.17587 4.24118-20.84449 11.86378-5.66744 7.62202-9.38384 18.53908-9.38384 30.70552 0 12.16585 3.7164 23.06469 9.38502 30.68671 5.66744 7.62319 12.97212 11.86496 20.84331 11.86496 7.87061 0 15.19409-4.24177 20.86212-11.86496 5.66804-7.62202 9.38502-18.52086 9.38502-30.68671-.001-12.16585-3.71698-23.0835-9.38502-30.70552-5.66803-7.62201-12.99151-11.8632-20.86212-11.8632zm27.78658 82.18088c-7.14895 8.43887-16.913 13.92062-27.78599 13.92062-10.61088 0-20.15692-5.22141-27.25298-13.31415-14.7645 4.05137-22.68388 16.18019-27.58501 33.69908-4.81298 17.21096-5.82611 38.93459-5.96774 59.68447h15.2793l-2.05683-39.7967 10.98229-.55005 2.42412 47.01322 6.59243 96.24783h22.33128v-77.90092h10.98229v77.90092h23.9838l5.85902-96.65155 2.40532-46.6095 10.96289.55123-2.05683 39.79552h13.99408c-.0118-20.98788-.24976-43.06177-4.60965-60.41905-2.36946-9.43203-5.91896-17.36199-10.94527-23.13932-4.42394-5.08448-9.9239-8.671-17.53887-10.43106z" fill="#861313"/><path d="m378.7 165.94c3.04462 4.10247 5.76 8.37 8.46 12.78 34.38 55.08 55.44 124.38 56.25 179.37-41.22 39.24-117.18 60.21-193.41 60.21s-152.172001-20.97-193.419001-60.21c.747-48.6 17.244-108.36 44.820001-159.66 0 0 14.88376-26.51663 24.129-38.52 13.0533-16.94749 26.9173-33.79823 43.88625-46.82362 15.2076-11.67339 32.49518-21.148463 50.70375-27.147378 9.27212-3.054752 19.22772-4.673528 28.98-4.23 17.80752.809876 35.82486 4.998075 51.9975 12.495375 17.31794 8.028233 32.29741 20.757833 46.1925 33.845623 11.94211 11.24828 21.63311 24.71615 31.41 37.89z" fill="#ff8066" opacity=".5" stroke-width="36"/><g fill="#e51a1a"><path d="m101.401 198.43 43.929 40.14-37.881 3.15 71.451 94.14-36.09-82.8 34.83 13.95-52.11-107.1c-27.258237-12.13319-33.582321 15.57859-24.129 38.52z"/><path d="m347.29 128.05-13.68 82.89 24.03 11.07-33.48 104.94 66.6-108.09-26.46-21.78 14.4-31.14c-1.42561-31.09117-7.90783-51.86092-31.41-37.89z"/><path d="m220.12 85.939002-15.3 69.830998 35.37-6.39-29.07 86.04 31.59-11.43.54 110.7 38.61-148.59-34.74 13.95 27.18-87.3-30.96 3.78 5.76-34.820998c-8.51318-12.563621-16.73919-28.626322-28.98 4.23z" opacity=".5"/></g><path d="m249.91114 29.934664c-14.52911-.660775-28.73775 1.718005-41.87308 6.045511-24.04225 7.920857-46.48152 20.262061-66.22131 35.414369-22.64508 17.382401-40.05829 38.833746-55.769208 59.231696-13.433504 17.44113-30.213705 48.09401-30.213705 48.09401l-.09464.17082-.09234.17082c-34.177916 63.58166-54.5510398 136.4571-55.50374155 198.44003l-.14311545 9.31873 6.7495505 6.42176c55.4535175 52.75525 149.2638295 77.02198 243.2585295 77.02198 93.99471 0 187.82345-24.26092 243.25161-77.0266l6.74032-6.41714-.1362-9.30487c-1.03309-70.13574-26.88095-154.30158-69.66764-222.876-3.30088-5.38938-6.82343-10.9564-10.99918-16.58303-11.42912-15.40015-23.51816-32.42204-39.62015-47.588488-16.96521-15.979544-36.22566-32.688225-60.2312-43.816686-21.84085-10.12497-45.71381-15.638108-69.4345-16.716912zm-.9672 21.250467c21.04604.957164 42.34078 5.907904 61.45463 14.768683 20.46742 9.488266 38.16986 24.53304 54.59194 40.001016 14.11395 13.29393 25.56759 29.20957 37.12254 44.77925 3.59833 4.84856 6.80865 9.8937 9.99968 15.1057 40.63244 65.097 65.52253 146.9993 66.47985 211.98992-48.71639 46.37629-138.4911 71.16114-228.5845 71.16114-90.09339 0-179.847737-24.78485-228.59603-71.16114.882852-57.43853 20.380463-128.06701 52.971511-188.69658 0 0 17.590484-31.33851 28.517099-45.52484 15.42719-20.02961 31.81314-39.94564 51.86812-55.339856 17.97329-13.796347 38.40416-24.993559 59.92419-32.083453 10.95837-3.610298 22.72512-5.524028 34.25097-4.99984z" fill="#ff8066" opacity=".5"/><path d="m249.91797 63.728516c-12.29338-.559096-24.31561 1.45364-35.42969 5.115234-20.34266 6.702004-39.329 17.144157-56.03125 29.964844-19.16048 14.707616-33.89416 32.858056-47.1875 50.117186-11.36637 14.75731-25.564452 40.69336-25.564452 40.69336l-.080078.14453-.078125.14453c-28.918661 53.79779-46.15679 115.45923-46.962891 167.9043l-.121093 7.88477 5.710937 5.43359c46.92039 44.63733 126.295272 65.16992 205.826172 65.16992s158.92138-20.52767 205.82031-65.17383l5.70313-5.42968-.11524-7.87305c-.87412-59.34332-22.74454-130.55781-58.94726-188.58008-2.79294-4.56006-5.77345-9.27044-9.30664-14.03125-9.67042-13.03039-19.89921-27.43297-33.52344-40.26562-14.35463-13.52063-30.6513-27.658197-50.96289-37.074223-18.48001-8.566951-38.67942-13.231733-58.75-14.144531zm-.81836 17.980468c17.8075.809876 35.82542 4.998802 51.99805 12.496094 17.31792 8.028222 32.29633 20.757922 46.1914 33.845702 11.9421 11.24827 21.63328 24.71484 31.41016 37.88867 3.04462 4.10247 5.76094 8.37126 8.46094 12.78125 34.37996 55.07995 55.44 124.3792 56.25 179.36914-41.21996 39.23996-117.18024 60.21094-193.41016 60.21094s-152.172963-20.97098-193.419922-60.21094c.746999-48.59995 17.244339-108.3602 44.820312-159.66015 0 0 14.88368-26.51618 24.12891-38.51953 13.05328-16.94748 26.91778-33.79885 43.88672-46.82422 15.20758-11.67338 32.49457-21.147578 50.70312-27.146487 9.27211-3.054749 19.2282-4.673996 28.98047-4.230469z" fill="#861313"/></svg>