<svg height="500.00003" viewBox="0 0 500 500.00003" width="500" xmlns="http://www.w3.org/2000/svg" xmlns:xlink="http://www.w3.org/1999/xlink"><filter id="a" color-interpolation-filters="sRGB" height="1.06016" width="1.027794" x="-.013897" y="-.03008"><feGaussianBlur stdDeviation="1.6745038"/></filter><g transform="translate(-500)"><path d="m926.7767 73.223311c45.24113 45.241099 73.2233 107.741109 73.2233 176.776699 0 69.0356-27.98221 131.53559-73.2233 176.77669-45.2411 45.2411-107.74109 73.22332-176.77669 73.22332-69.03559 0-131.5356-27.98219-176.7767-73.22332-45.2411-45.2411-73.22331-107.74109-73.22331-176.77669 0-69.03559 27.9822-131.5356 73.22331-176.776699 45.2411-45.241105 107.74111-73.22330934 176.7767-73.22330934 69.0356 0 131.53559 27.98220534 176.77669 73.22330934z" fill="#3b2f4f"/><g transform="translate(500)"><path d="m230.6486 0c-128.19182 22.346591-234.17086 139.43202-223.06447 273.24395 5.6201 44.55936 16.72649 83.63245 44.55937 122.70552l50.17947 50.17947c33.45298 22.34661 72.52606 44.55938 111.46533 50.17946 39.07308 5.62012 78.01235 5.62012 111.46534-5.62008 39.07308-16.72649 72.52607-33.45297 100.35893-61.28587 33.45297-39.07306 55.79958-83.63245 66.90595-139.43201v-61.28587c-5.62008-27.83287-11.10637-50.17947-22.34657-78.01235-11.10641-22.34659-27.8329-44.55937-50.17947-61.285858-27.83289-27.832879-61.28586-44.559368-100.35895-55.799569-27.83288-5.620101-55.79957-11.10639-89.25255-5.620101-78.01235 11.106391-139.43202 61.28586-172.885 128.191818-11.10639 27.83288-16.72649 61.28586-22.34659 89.25255 0 33.45298 5.6201 66.90596 16.72649 94.73885 22.34659 44.55936 55.79957 89.25254 105.97904 111.46532 16.72649 5.62012 33.45298 11.1064 55.79957 16.72648 122.70553 22.34661 234.17085-55.79954 250.89734-178.37127 11.10641-78.01236-22.34657-139.43203-72.52604-189.6115-100.35895-89.25255-267.62385-44.559369-312.18322 78.01235-5.6201 27.83288-16.72649 55.79958-16.72649 83.63245 5.6201 78.01235 55.79957 150.53843 133.81192 172.885 61.28586 16.72649 122.70553 5.62012 172.885-33.45298 11.10639-11.10637 22.34659-22.34657 33.45299-33.45297 61.28584-83.63246 44.55935-195.09778-44.55937-256.51746-27.83288-16.726488-55.79958-22.346588-89.25256-27.832879-22.34659-5.620101-44.55937 5.620101-66.90596 11.106391-27.83288 16.726488-50.17947 22.346588-72.52606 50.179468-27.83288 33.45298-33.45298 66.90596-39.07308 105.97904 0 55.79958 27.83288 117.08544 83.63245 144.91833 78.01235 44.55934 183.99139 11.10637 223.06447-72.52607 22.3466-55.79958 11.1064-128.19183-39.07308-172.88501-33.45298-27.83288-66.90596-39.07308-111.46533-39.07308-66.90596 5.6201-111.46533 55.79957-122.70553 122.70553-11.10639 72.52606 33.45298 139.43202 105.97904 150.53843 100.35894 16.72649 183.99138-89.25257 139.43202-178.37131-11.10638-16.72649-27.83288-39.07308-50.17947-50.17947-27.83288-11.10639-55.79957-16.72649-83.63245-11.10639-33.45298 5.6201-55.79957 27.83288-72.52606 50.17947-16.72649 27.83288-16.72649 55.79957-11.10639 83.63245 11.10639 33.45298 39.07308 61.28586 72.52606 72.52607 44.55937 16.72649 89.25255-5.62011 111.46533-39.07309 33.45298-55.79957 5.6201-117.08543-50.17947-139.43202-50.17947-16.72649-122.70553 27.83288-105.97904 89.25255 5.6201 16.72649 11.10639 39.07309 27.83288 50.17947 22.34659 16.7265 50.17947 16.7265 72.52606 11.1064 22.34659-11.1064 39.07308-33.45299 39.07308-61.28587-5.6201-16.72649-5.6201-39.07308-22.34659-50.17947-13.91644-8.36324-29.2379-11.13984-43.17107-8.34651-13.93317 2.79332-26.47803 11.15656-34.84128 25.073-5.6201 16.72649-11.10639 33.45298 9.50065 44.827 41.74932-49.10898 35.32635.40143 29.84006-16.45887v5.6201c16.72649-5.6201 22.34659-22.34659 27.83288-33.45298 5.6201 5.6201 16.72649 11.10639 16.72649 22.34659 11.10639 39.07308-27.83288 72.52606-66.90596 61.28586-33.45298-11.10639-44.55937-50.17947-39.07309-83.63245 5.62011-22.34659 22.3466-39.07308 50.17948-44.55937 33.45298-5.6201 66.90596 11.10639 83.63245 39.07308 16.72649 27.83288 16.72649 50.17947 0 78.01235-33.45298 55.79958-105.97905 55.79958-150.53841 11.10639-33.45298-44.55937-22.3466-117.08543 27.83288-144.91831 16.72648-11.10639 39.07308-16.72649 61.28586-16.72649 11.10638 0 27.83288 5.6201 39.07308 11.10639 27.83288 11.10639 39.07308 39.07308 55.79957 61.28586 5.6201 16.72649 5.6201 27.83288 5.6201 44.55937-5.6201 72.52606-72.52606 122.70554-144.91831 105.97904-83.63246-22.34659-122.70554-122.70553-72.52606-195.09778 11.10638-16.72649 22.34659-27.83288 39.07308-39.07308 78.01235-44.559372 167.2649-5.6201 200.71788 66.90596 39.07309 94.73884-39.07308 206.33797-139.43202 200.71788-27.83288-5.62012-55.79958-5.62012-78.01235-22.3466-22.34659-11.10638-27.83288-27.83287-39.07309-39.07307-66.90596-78.01235-33.45298-195.09778 55.79958-239.79097 39.07308-16.726484 83.63245-16.726484 128.19182-5.6201 94.73883 33.45298 139.43201 144.91832 94.73883 234.17087-11.10637 27.83288-33.45297 44.55935-55.79956 66.90596-22.34659 16.72649-50.17947 27.83289-78.01235 33.45298-44.55937 5.62012-89.25256-5.62009-128.19182-27.83286-94.73884-66.90598-117.08544-211.82429-22.3466-289.97045 16.7265-11.1064 27.83288-33.452984 50.17948-39.073085 33.45298-11.106392 66.90596-22.346593 105.97904-16.726492 27.83288 5.6201 55.79957 16.726492 78.01235 27.832879 16.72649 16.726488 39.07309 22.346598 50.17946 44.559368 11.10641 16.72649 27.8329 33.45298 33.45298 55.79957 22.34661 66.90596 16.72649 139.43203-27.83286 195.09781-16.72649 22.34657-33.45298 44.55934-61.28587 55.79954-22.34659 5.62012-39.07308 22.34661-61.28586 22.34661-39.07308 0-83.63245 5.62008-122.70553-11.10641-117.08543-44.55934-167.26491-195.09777-105.97905-306.69691 16.7265-33.45298 44.55937-61.285864 78.01236-83.632457 44.55936-22.34659 89.25255-33.452979 139.43202-27.832879 61.28586 5.6201 111.46532 39.07308 156.1585 83.632456 22.34661 22.34659 27.8329 50.17947 39.0731 78.01234 11.10637 16.7265 5.62008 39.07309 11.10637 61.28586 11.10645 172.88502-195.09777 301.07685-351.25629 211.82429-27.83287-16.72649-50.17946-27.8329-66.90596-50.17947-61.28586-72.52608-78.01235-167.26492-50.17947-256.51747 16.72649-33.45298 39.07309-61.28586 61.28587-89.252546 39.07308-39.073083 94.73884-55.799574 144.9183-72.526064" fill="#221b35" opacity=".9"/><path d="m231.45148 15.388371c-120.56454 21.008472-220.12061 131.001869-209.68329 256.785079 5.21867 41.88313 15.78981 78.68141 41.88314 115.34586 15.7898 15.65602 31.4458 31.44582 47.23561 47.1018 31.4458 21.0085 68.11026 41.88314 104.77473 47.23563 36.66447 5.21866 73.32893 5.21866 104.77473-5.21866 36.66447-15.65601 68.11026-31.44582 94.33742-57.67295 31.44579-36.66448 52.45425-78.68141 62.89161-131.00187v-57.67294c-5.2187-26.22714-10.43736-47.23561-21.00851-73.32894-10.43731-21.00847-26.22712-41.88313-47.10179-57.672935-26.22713-26.227136-57.67292-41.88313-94.33739-52.454272-26.22714-5.218666-52.45427-10.43733-83.90008-5.218666-73.32893 10.437332-131.00187 57.672938-162.44767 120.564543-10.43733 26.22713-15.78981 57.67294-21.00847 83.90008 0 31.44579 5.21866 62.8916 15.78981 89.11874 21.00847 41.88313 52.45427 83.90006 99.55607 104.77473 15.7898 5.21866 31.4458 10.43732 52.45427 15.65601 115.34588 21.00847 220.12062-52.45428 235.91043-167.66635 10.43732-73.32894-21.00847-131.00188-68.11026-178.23748-94.33742-83.900079-251.56643-41.883137-293.44956 73.32893-5.21867 26.22713-15.78981 52.45427-15.78981 78.68141 5.21866 73.32893 52.45427 141.573 125.78321 162.44767 57.67293 15.78981 115.34587 5.21866 162.44767-31.44578 10.43733-10.43736 21.00849-21.00849 31.4458-31.44582 57.67295-78.68141 41.88314-183.45615-41.88313-241.12909-26.22714-15.7898-52.45428-21.008465-83.90008-26.227131-21.00847-5.218666-41.88313 5.218666-62.8916 10.437331-26.22714 15.7898-47.23561 21.00847-68.11027 47.1018-26.22713 31.4458-31.4458 62.8916-36.66447 99.55606 0 52.45428 26.22714 110.12722 78.68142 136.22052 73.32893 41.88314 173.01881 10.43736 209.68327-68.11025 21.00847-52.45427 10.43736-120.56454-36.66446-162.44767-31.4458-26.22714-62.8916-36.66447-104.77473-36.66447-62.89161 5.21867-104.77474 52.45428-115.34588 115.34588-10.43733 68.11027 31.4458 131.00187 99.55607 141.57302 94.3374 15.65599 173.01881-83.90008 131.00187-167.66635-10.43733-15.7898-26.22714-36.66446-47.1018-47.2356-26.22713-10.43733-52.45427-15.656-78.68141-10.43733-31.4458 5.21866-52.45427 26.22713-68.11027 47.23561-15.7898 26.22713-15.7898 52.45427-10.43732 78.6814 10.43732 31.44581 36.66446 57.67295 68.11026 68.11027 41.88314 15.78981 83.90008-5.21866 104.77474-36.66446 31.4458-52.45428 5.21866-110.12721-47.1018-131.00187-47.23561-15.78981-115.34588 26.22713-99.55607 83.90007 5.21867 15.65599 10.43733 36.66447 26.22714 47.23561 21.00847 15.78981 47.10179 15.78981 68.11027 10.43733 21.00847-10.43733 36.66446-31.4458 36.66446-57.67294-5.21866-15.7898-5.21866-36.66447-21.00847-47.23561-13.11356-7.8949-27.5318-10.50423-40.62864-7.86145-13.09684 2.64279-24.87229 10.53769-32.70029 23.65126-5.21867 15.656-10.43733 31.4458 8.9654 42.15076 39.20689-46.70036 33.05154-.26763 27.96669-16.05744v5.21867c15.78981-5.21867 21.00847-21.00847 26.22714-31.4458 5.21866 5.21866 15.65599 10.43733 15.65599 21.00847 10.43733 36.66447-26.22714 68.11027-62.8916 57.67294-31.4458-10.43733-41.88313-47.23561-36.66447-78.68141 5.21867-21.00848 21.00847-36.66447 47.1018-41.88314 31.4458-5.21866 62.8916 10.43734 78.68141 36.66447 15.65599 26.22714 15.65599 47.23561 0 73.32893-31.4458 52.45428-99.55607 52.45428-141.57302 10.43734-31.4458-41.88313-21.00847-110.12722 26.22714-136.22054 15.78981-10.43733 36.66447-15.656 57.67294-15.656 10.43733 0 26.22714 5.21867 36.66447 10.43733 26.22713 10.43733 36.66446 36.66447 52.45427 57.67294 5.21866 15.78981 5.21866 26.22714 5.21866 41.88314-5.21866 68.11026-68.11026 115.34586-136.22053 99.55606-78.68141-21.00847-115.34588-115.34587-68.11027-183.45614 10.43733-15.656 21.00847-26.22714 36.66447-36.66447 73.32893-41.88313 157.22901-5.21866 188.67481 62.8916 36.66448 89.11874-36.66447 193.89349-131.00188 188.67483-26.22713-5.21866-52.45427-5.21866-73.32893-21.00848-21.00847-10.43734-26.22713-26.22714-36.66447-36.66447-62.8916-73.32893-31.4458-183.45615 52.45428-225.33928 36.66446-15.789805 78.68141-15.789805 120.56454-5.21866 89.11872 31.4458 131.00186 136.22053 89.11872 220.12061-10.43731 26.22714-31.44578 41.88313-52.45425 62.89162-21.00847 15.78977-47.23561 26.22712-73.32894 31.44578-41.88313 5.21866-83.90007-5.21866-120.56454-26.22712-89.11874-62.89162-110.12721-199.11215-21.00847-272.5749 15.656-10.43733 26.22714-31.445801 47.1018-36.664467 31.4458-10.437328 62.8916-21.00847 99.55607-15.655994 26.22713 5.218666 52.45427 15.655994 73.32893 26.227136 15.65599 15.789805 36.66446 21.008475 47.10181 41.883135 10.43732 15.7898 26.22713 31.4458 31.44578 52.45427 21.00847 62.8916 15.78981 131.00187-26.22712 183.45615-15.78981 21.00846-31.44582 41.88313-57.67295 52.45428-21.00847 5.21866-36.66446 21.00847-57.67294 21.00847-36.66446 0-78.68141 5.21866-115.34587-10.43735-110.12721-41.8831-157.22901-183.45614-99.55607-288.23087 15.7898-31.4458 41.88313-57.672937 73.32893-78.681407 41.88313-21.008474 83.90008-31.445802 131.00187-26.22714 57.67294 5.218666 104.77473 36.664468 146.79166 78.681417 21.00851 21.00847 26.22717 47.10179 36.66448 73.32893 10.43732 15.78981 5.21866 36.66446 10.43732 57.67293 10.43735 162.44767-183.45613 283.01222-330.24781 199.11215-26.22713-15.65601-47.23561-26.22713-62.8916-47.23563-57.67294-68.11025-73.32893-157.22899-47.23561-241.12907 15.78981-31.4458 36.66447-57.67293 57.67294-83.900069 36.66447-36.664468 89.11874-52.454275 136.22054-68.11027" opacity=".9"/></g></g><path d="m109.49023-.00024136-1.11328.13867187c-35.629494 4.45811209-60.066403 40.77521649-60.066403 83.38476549 0 19.508034 5.479017 37.195304 14.486328 51.443364-12.609188 4.83837-23.193616 13.61791-30.966797 24.41601-10.303825 13.97324-17.073151 31.17918-21.65039 50.63086-8.4548607 34.61694-10.179688 74.68687-10.179688 110.02344v18h43.902344l11.191406 153.54297 12.947266 2.98242c32.663134 7.52228 67.067514 6.96384 98.214844.0293l13.15234-2.92774 10.24024-153.62695h41.74414v-18c0-35.08552-.28644-75.75189-8.04492-111.15039-4.17612-19.16093-10.61999-36.65967-20.76758-50.76953l-.0664-.0918-.0684-.0918c-8.19736-11.09817-19.84734-19.65747-33.62304-24.13281 8.7121-14.15014 13.77148-31.48369 13.77148-50.277344.00003-45.167449-28.48649-83.52343736-67.18942-83.52343736z"/><path d="m110.61141 17.999786c-23.372882 2.924513-44.300945 29.978711-44.300945 65.522804 0 19.47393 6.650055 36.59066 16.429488 48.52346l11.930945 14.18243-18.28758 3.42334c-12.713281 2.44524-22.101554 9.29193-30.022938 20.34444-8.312535 11.24813-14.47357 26.31085-18.678747 44.21004-7.823574 31.98382-9.681633 71.10774-9.681633 105.83023h42.638409l11.441942 156.9848c29.729559 6.84668 61.708349 6.35763 90.264389 0l10.464-156.9848h40.58475c0-34.91811-.48901-74.7267-7.62798-107.29738-3.814-17.50795-9.77948-32.9619-17.79862-44.11223-8.01914-10.85689-18.09199-17.41015-32.5656-19.65977l-18.48315-2.93429 11.63755-14.57367c9.68168-11.83499 16.03831-28.95171 16.03831-47.9366 0-37.695907-23.47069-65.522804-49.19064-65.522804z" fill="#775fa0" stroke-width="36"/><path d="m378.0957-.00024136-1.11328.13867187c-35.62949 4.45811229-60.0664 40.77521449-60.0664 83.38476549 0 19.508284 5.48076 37.195214 14.48828 51.443364-12.6092 4.83838-23.19557 13.61789-30.96875 24.41601-10.3099 13.98149-17.08085 31.19827-21.65821 50.66406-8.44794 34.60946-10.16992 74.66481-10.16992 109.99024v18h43.90235l11.1914 153.54297 12.94531 2.98242c32.66314 7.52228 67.06947 6.96384 98.2168.0293l13.15234-2.92774 10.24024-153.62695h41.74414v-18c0-35.07855-.28704-75.73535-8.04102-111.12891-4.17597-19.16957-10.62-36.67572-20.77148-50.79101l-.0684-.0918-.0664-.0918c-8.1975-11.09836-19.84898-19.65753-33.625-24.13281 8.71211-14.15014 13.77344-31.48369 13.77344-50.277344.00003-45.167449-28.48844-83.52343736-67.19137-83.52343736z"/><path d="m379.21792 17.999778c-23.37288 2.924513-44.30095 29.978711-44.30095 65.522804 0 19.473928 6.65006 36.590658 16.42949 48.523458l11.93095 14.18243-18.28758 3.42334c-12.71328 2.44524-22.10156 9.29193-30.02294 20.34444-8.31254 11.24814-14.47357 26.31086-18.67875 44.21005-7.82357 31.98382-9.68163 71.10774-9.68163 105.83023h42.63841l11.44194 156.9848c29.72956 6.84668 61.70835 6.35763 90.26439 0l10.464-156.9848h40.58475c0-34.91811-.48901-74.7267-7.62798-107.29738-3.814-17.50795-9.77948-32.9619-17.79862-44.11224-8.01914-10.85689-18.09199-17.41015-32.5656-19.65977l-18.48315-2.93429 11.63755-14.57367c9.68168-11.83499 16.03831-28.95171 16.03831-47.936598 0-37.695907-23.47069-65.522804-49.19064-65.522804z" fill="#775fa0" stroke-width="36"/><g opacity=".75"><path d="m237.79492 141.57617c-5.91786.07-11.47247 3.9498-13.87006 9.3139-2.70169 5.69975-2.50284 12.60806.35678 18.21069 3.04165 6.32564 8.16607 11.27638 13.08791 16.14774 2.56578 2.54161 5.28799 5.0109 7.24694 8.07203.85189 1.86851 1.09583 3.94172 1.69175 5.89654 3.15906 8.61021 4.45724 1.13634 6.64911-4.82209.98705-2.32985 2.96441-4.04687 4.77659-5.7404 5.63458-5.12017 11.89267-9.77676 16.10765-16.23205 3.63438-5.37281 5.23375-12.32974 3.4013-18.64433-1.4763-5.41496-6.07968-9.84414-11.58664-11.00281-5.4081-1.21909-11.30499.57417-15.29102 4.38281-3.18129-3.4754-7.80923-5.73445-12.57031-5.58203zm132.62305 9.15821c-10.85761.18997-21.33669 5.86926-27.76016 14.56854-1.88626 2.50534-3.44271 5.25185-4.69101 8.12677-6.83464-5.25899-15.48242-8.3398-24.15138-7.8399-8.87522.45588-17.524 4.68247-23.17751 11.56811-5.48018 6.58363-8.03296 15.34804-7.49627 23.85169.35341 7.36532 2.69876 14.65958 6.96087 20.70018 5.46863 7.90675 13.23883 13.87052 21.3403 18.87821 11.55155 7.16917 24.1726 12.34904 36.06012 18.90112 1.38941.78103 3.02331 1.74351 4.33105 2.58317 3.09556 2.0388 6.21011 4.35119 8.03945 7.65845 5.83913 8.42054 6.32727 6.896 7.0211-3.3772.2587-4.07246 2.01294-7.86766 3.89184-11.42675 3.57662-6.69969 8.01992-12.87904 12.1977-19.20676 6.61816-9.8915 13.17088-20.02492 17.11635-31.32965 2.79516-8.03589 4.08832-16.76874 2.51013-25.20136-1.41288-8.03287-5.20683-15.83689-11.47188-21.189-5.70383-4.87892-13.22917-7.46065-20.7207-7.26562zm-186.23047 6.3125c-3.95545.11916-7.72906 2.26463-10.02734 5.45703-4.12398-1.93254-9.33585-1.43817-12.86714 1.5019-3.51042 2.81859-5.09032 7.60816-4.38184 12.00217.55404 4.16485 3.12449 7.82233 6.4163 10.33025 4.37787 3.54205 9.77882 5.41 14.51236 8.37661 1.30816.87244 1.80678 2.43983 2.68474 3.67482 7.22216 6.99452 5.87484.64158 5.77997-4.94716.55304-2.41255 2.19907-4.37596 3.46826-6.44971 2.95397-4.49607 6.03769-9.21847 6.70046-14.6833.64735-4.90042-1.1341-10.35452-5.30372-13.23974-2.03181-1.39955-4.51863-2.10765-6.98205-2.02287zm-58.13672 47.0957c-5.03936.0881-9.66515 3.75014-11.16797 8.51953-1.46618 4.19793-.80657 8.99117 1.54492 12.74023 2.98751 5.10816 7.81146 8.68796 11.87865 12.86229.88034.87246 1.63351 1.92448 1.81086 3.17877 4.11214 10.66443 4.9163 5.58301 7.52729-1.26371 1.56957-2.45851 4.069-4.08618 6.18069-6.03412 4.0013-3.40983 8.02643-7.22217 9.83303-12.29464 1.62898-4.51624 1.11272-10.0462-2.22037-13.67713-3.37643-3.76413-9.21035-4.75515-13.78554-2.76169-1.11191.43286-2.16195 1.16758-3.10742 1.78906-2.33508-2.00596-5.40507-3.16698-8.49414-3.05859z" fill="#191919" filter="url(#a)" opacity="1"/><path d="m370.50114 154.73222c-12.97912.25665-26.33043 9.20776-30.70303 25.62341-23.73041-23.87293-59.29332-5.30802-51.67317 27.37255 7.73528 33.16888 65.11469 42.47008 74.72984 59.22661 0-21.14587 43.49703-54.30554 35.44514-88.92217-3.74658-16.10173-15.60788-23.54125-27.79878-23.29973zm-104.91922-7.84095c-5.25853-1.55944-11.71406.52605-15.4522 6.93612-6.68287-13.18999-23.24243-9.87653-24.10905 4.98336-.87906 15.08207 21.1116 26.4086 22.96628 34.76156 2.54665-8.98122 24.05954-17.47355 24.98545-33.21122.43013-7.32047-3.4513-12.00499-8.39055-13.46954zm-120.73902 61.78892c-3.55719-.95642-7.91929.47804-10.43892 4.70155-4.53424-8.52507-15.72622-6.17334-16.29419 3.52777-.57612 9.84614 14.30553 16.97953 15.56957 22.40569 1.71096-5.8866 16.24565-11.67287 16.85264-21.94712.28198-4.77912-2.34793-7.78949-5.68915-8.6877zm39.58977-47.64126c-3.68278.0744-7.47117 2.66933-8.71188 7.42824-6.73342-6.92078-16.82428-1.5388-14.66208 7.93532 2.19486 9.61567 18.47608 12.31209 21.20434 17.16982 0-6.1302 12.34214-15.7432 10.05745-25.77858-1.06309-4.6679-4.42869-6.82463-7.88783-6.75461z" fill="#775fa0" opacity="1"/></g></svg>