<svg height="500" viewBox="0 0 500 500" width="500" xmlns="http://www.w3.org/2000/svg" xmlns:xlink="http://www.w3.org/1999/xlink"><filter id="a" color-interpolation-filters="sRGB" height="1.033882" width="1.043306" x="-.021653" y="-.016941"><feGaussianBlur stdDeviation="2.3834221"/></filter><g transform="translate(.000015)"><circle cx="-249.99998" cy="250" fill="#e51a1a" r="250" transform="scale(-1 1)"/><path d="m181.33938 83.856939c97.52275-31.84694 203.27597 26.159281 217.12696 131.568651 10.04116 85.89723-45.79566 162.6049-131.11288 174.6444-76.26503 6.65-147.16573-45.4981-149.44603-126.3231.16679-50.89801 30.03241-87.97493 76.60677-108.40662 44.00125-16.48183 90.46555-3.00917 112.28155 39.63622 17.95322 40.0953 3.57775 87.31302-40.4313 103.80676-21.98685 8.23292-51.6578-5.55285-56.72562-31.5612 24.48155 21.7253 69.7211 11.74379 80.1808-21.06198 5.24648-24.88185-11.48198-41.52298-24.36368-55.64156-23.21161-15.22125-63.26956-13.16738-85.32502 12.05139-41.51846 46.43224-18.48961 112.52397 35.72777 131.08081 60.66482 17.11352 118.96473-29.63961 126.96137-92.39988 2.7637-54.83226-40.99398-106.19486-96.51046-114.27807-76.21988-10.3001-138.45939 50.84936-147.743191 124.09106-9.31956 73.21828 47.315731 138.67973 111.863041 158.33924 49.05305 9.49897 98.18701 2.07129 139.64056-27.40671 82.90715-58.95602 100.11901-177.97214 43.55644-260.39974-52.71171-79.885311-158.575-103.987181-249.15842-67.061741-86.705021 39.45169-149.0660905 134.549061-117.102931 229.167621 15.77888-74.65377 50.93986-153.5943 123.407351-187.514491 9.28724-4.60517 19.44718-8.7232 30.56692-12.33106zm-160.722321 286.075591c-52.57825-113.8254-.38403-260.89182 113.777041-317.643861 10.84604-5.32012 22.21219-9.7712 34.03518-13.36069 115.76394-28.75816 246.03978 34.00351 263.68455 158.897471 10.04526 85.91695-27.72044 168.80365-107.97396 206.83173-102.24035 46.26108-224.798841-11.43986-234.690511-131.24969-7.33455-123.78718 127.307171-194.136761 222.718561-137.24102-42.54074-27.89653-94.21826-33.44528-140.80825-12.98978-71.17376 32.62266-105.080851 118.0397-80.762351 190.63139 30.697281 88.13423 123.572931 132.04164 212.817841 105.59803 82.80488-25.06359 132.16266-100.33164 140.19255-180.04986 12.12434-145.020371-132.23823-245.3588802-265.59709-221.973611 7.92036-4.10499 20.5989-8.4277792 35.61563-11.7452592 60.06317-13.23825 124.63426-3.45807 179.45368 32.4903392 109.65077 71.904621 141.09454 217.803071 65.16008 333.599141-143.00482 218.07486-377.311781 117.06797-437.622951-1.79433" fill="#b21a1a"/></g><g fill="#ff8066"><path d="m139.08991 200.72261-51.734957 49.83466-8.39569 8.03333 16.54324.42988 21.942007.38635c-21.330727 22.75458-43.607017 45.78116-64.225807 68.67796l84.380487-71.73411 8.39462-8.03492-16.49722-.46508-21.93562-.38367 38.1551-36.76639-6.6267-9.97534z" opacity=".9"/><path d="m182.86 321.02908-27.8172 21.4605 1.2942-10.152.927-7.65-4.302 3.2895-38.898 34.1154c11.9925-7.9668 24.138-16.6977 36.1134-25.002l-1.323 10.1808h.0297l-.9576 7.677 4.302-3.3183 31.4172-24.2424c-.3204-2.115-.5787-4.2354-.7875-6.3567z" opacity=".9"/><path d="m.00356 55.776071 75.60329 67.928089 8.34146 6.62722-1.65592-15.07471.053-.0565-2.32041-19.938214 57.98904 45.895694c.01-.0406.0442-.0742.053-.1131 1.04622-3.6759 2.28684-7.22809 3.70241-10.65657l-67.04623-53.129069-8.39448-6.62722 1.65769 15.07471v.053l2.3752 19.994749c-23.3172-16.591004-47.00906-34.055059-70.36161-49.978049z" opacity=".9"/></g><path d="m216.4043 0c-30.91365.00143083-52.86719 29.297265-52.86719 62.015625 0 10.686819 2.39647 20.595821 6.36719 29.449219-18.63117 8.934496-31.13271 27.487796-37.00196 48.138676v.002.002c-7.0559 24.84518-6.85962 53.85862-2.21484 82.11719l2.47852 15.08008h26.08789l-.71094-10.91211 7.46289 113.13867h94.75391l7.61718-102.22656h27.51367l2.66016-14.82032c5.23647-29.19061 4.44856-58.28629-3.39453-82.73632l-.002-.002c-6.45551-20.11473-18.62325-37.58896-35.91993-46.583981 4.29788-9.080211 6.73633-19.464904 6.73633-30.591797 0-30.783211-18.73422-58.5668854-47.46093-61.94726513l-1.04878-.12310687z" fill="#861313"/><path d="m181.53629 62.016261c0 12.72072 4.24849 24.16725 10.60355 32.141115l6.79157 8.451024-10.77144 1.65769c-19.84631 3.07503-31.5862 17.89172-37.94303 40.25814-5.96449 21.00209-6.0829 48.02523-1.76725 74.28138h27.66995l.38526 5.90971 6.3533 96.31556h61.19307l7.18037-96.36858.44181-5.85669h29.15976c4.7928-26.7174 3.80667-53.41007-2.81701-74.05871-7.04429-21.94934-19.56708-36.49918-37.50121-39.87287l-10.49398-1.98817 6.84812-8.230124c6.64136-8.010975 11.10192-19.554705 11.10192-32.584695 0-23.637073-14.07621-42.013021-31.565-44.070992-19.07755.000883-34.86976 18.818645-34.86976 44.016212z" fill="#ff8066" stroke-width="36"/><path d="m398.52021 4.9090859c-20.36411 19.5988901-40.75827 40.7176221-60.97039 60.9703951l-1.04976-20.100789-.88362-15.186047-7.12205 7.95266-60.19811 66.767005c2.65796 2.39463 5.11975 5.06319 7.39774 7.95266l50.58776-56.110439 1.05152 20.04777v.0566l.88363 15.127715 7.12205-7.952655 63.17947-79.5266031z" fill="#ff8066" opacity=".9"/><g opacity=".9"><path d="m406.97616 418.95068-30.42538-24.96045c12.73567-1.25758 25.46999-2.52706 38.19727-3.86718 11.16401 4.65962 22.32859 9.31788 33.49218 13.97851-2.3043-5.64481-4.60682-11.29034-6.91015-16.93554 12.36718 4.46532 24.68591 9.064 37.14844 13.25976 1.63541-.0462 3.27083-.0924 4.90625-.13867-1.16686-1.18878-2.27676-2.4556-3.47863-3.59641-18.66789-9.06431-37.33618-18.12779-56.0038-27.19265 2.30488 5.67206 4.61063 11.34377 6.91602 17.01562-8.28971-3.45573-16.57943-6.91146-24.86914-10.36719-25.34115-21.15039-50.68229-42.30078-76.02344-63.45117 15.17838-1.33534 30.35681-2.67011 45.53516-4.00586-20.93335-17.63246-41.86723-35.26427-62.80078-52.89648 13.14645 1.9377 26.29322 3.87328 39.43945 5.8125-3.61347-4.90122-7.2291-9.80083-10.84375-14.70117 13.08937 1.29206 26.16762 2.70716 39.2832 3.71093 1.57357-.44791 3.14714-.89583 4.72071-1.34375-1.42335-.86498-2.81066-1.81972-4.25615-2.62954-20.33124-4.1862-40.66289-8.37042-60.99385-12.55796 3.63506 4.928 7.27079 9.8555 10.90625 14.78321-10.69467-1.57617-21.38933-3.15235-32.08399-4.72852-11.66211-9.82161-23.32422-19.64323-34.98633-29.46484 15.18618-1.34075 30.37257-2.67907 45.5586-4.02149-16.8159-14.1639-33.63149-28.32815-50.44727-42.49218 8.58008-1.77019 17.16016-3.54037 25.74024-5.31055-3.34644 5.1308-6.69352 10.26119-10.03907 15.39258 20.0821-5.35311 40.16545-10.70151 60.24805-16.05274l4-2.84179c-1.62989-.33979-3.25578-.77621-4.88812-1.05663-12.99448 1.74496-25.94891 3.90835-38.88727 5.93358 3.3393-5.1041 6.68001-10.20727 10.01758-15.3125-18.47664 3.82124-36.95312 7.64328-55.42969 11.46484l-12.19185-10.27816c-2.95634-2.4923-8.14118.53181-9.67985 3.61304-2.43368 4.8735.43189 12.13463 4.63029 15.6724l32.2375 27.16655c-15.16795 1.34975-30.33603 2.69812-45.5039 4.04883 7.18932 6.06697 14.37622 12.13682 21.56445 18.20508-3.4968 18.52863-6.99307 37.05737-10.49023 55.58593 5.04467-3.42645 10.09109-6.85034 15.13672-10.27539-1.81757 13.032-3.76006 26.04774-5.29297 39.11719.38476 1.59115.76953 3.18229 1.15429 4.77344.92119-1.38769 1.93053-2.73582 2.79754-4.14784 5.00277-20.15261 10.00794-40.30462 15.0091-60.45763-5.07097 3.43389-10.14316 6.86598-15.21484 10.29883 1.75911-9.28711 3.51823-18.57422 5.27734-27.86133l81.63672 68.73828c-14.91015 1.37183-29.82037 2.74283-44.73047 4.11524 30.40928 25.71446 60.81905 51.42834 91.22852 77.14257-15.19269 1.54312-30.38553 3.08481-45.57813 4.62891 6.65234 5.45936 13.30202 10.92196 19.95313 16.38281 2.40039 11.82618 4.80078 23.65235 7.20117 35.47852-5.11904-3.36603-10.23736-6.73317-15.35742-10.09766 5.28336 20.10865 10.5608 40.21886 15.8418 60.32813.9427 1.33724 1.88541 2.67448 2.82812 4.01172.34577-1.62865.78816-3.25295 1.07456-4.88427-1.70349-13.00762-3.81484-25.95616-5.80307-38.92237 5.09176 3.35811 10.18315 6.71681 15.27539 10.07421-3.13997-15.4763-6.28412-30.95177-9.42578-46.42773l19.2666 15.81152s20.90796 18.70262 28.63679 11.84831c3.91405-3.47117-4.22411-15.1154-4.22411-15.1154z" fill="#e51a1a" filter="url(#a)" opacity="1"/><g fill="#ff8066"><path d="m397.5215 389.89663 17.5254-1.8164 29.52343 12.32226-6.78906-16.64062c13.7168 4.91533 27.69447 10.18302 41.3418 14.77148l-51.4043-24.95898 6.76172 16.63281-29.58008-12.33203-79.9746-66.748 45.56642-4.0079-64.50391-54.33008 41.65039 6.13672-10.66019-14.44936c14.50355 1.39248 29.36477 3.05818 43.7207 4.14453l-55.98242-11.52539 10.66019 14.45128-37.39843-5.51368-39.10161-32.92773 45.56055-4.02145-49.92188-42.04882 34.48047-7.11524-9.81445 15.04693 55.20898-14.70899c-14.27038 1.9053-28.99649 4.41822-43.39648 6.63672l9.8457-15.04879-51.66796 10.6875-32.9336-27.75781v.002c.6768 5.8923.73497 12.11158.16797 18.45118l53.27148 44.88867-45.50976 4.04878 18.78906 15.86328-9.81445 52.0039 14.87695-10.0976c-1.9764 14.43598-4.2375 29.23702-5.9043 43.53711l13.77735-55.49219-14.87691 10.07031 6.8086-35.94531 87.91599 74.02539-44.74612 4.1145 91.18169 77.10205-45.48241 4.61911 16.78906 13.78515 8.29883 40.88477-15.01563-9.87305 14.51563 55.28321c-1.85605-14.27574-4.31914-29.02452-6.48828-43.43555l15.01173 9.90248-9.58789-47.22461 42.46875 34.85352 27.67187 4.57617-58.80469-48.24219z" opacity="1"/><path d="m400.24815 468.42727 9.67214-31.08816-8.15559-11.2165-6.06009 1.09277 6.98101 8.92731-3.97621 18.04512-8.67091-15.7557-13.02806 55.6488c5.03707-13.48646 9.76219-27.68853 14.58914-41.44255z" opacity="1"/><path d="m444.60919 468.95933 2.60859-17.77085c9.31104 11.2099 18.68511 22.87104 28.1027 33.76259l-31.60326-47.64303-2.60861 17.77084-10.75112-14.36002-19.92651-6.91994c-.73244 1.98769 7.61292-3.46848 6.73457-1.49628z" opacity="1"/></g></g></svg>