<svg height="500" viewBox="0 0 500 500" width="500" xmlns="http://www.w3.org/2000/svg" xmlns:xlink="http://www.w3.org/1999/xlink"><filter id="a" color-interpolation-filters="sRGB" height="1.026587" width="1.025305" x="-.012652" y="-.013293"><feGaussianBlur stdDeviation="2.2605012"/></filter><filter id="b" color-interpolation-filters="sRGB" height="1.026112" width="1.026112" x="-.013056" y="-.013056"><feGaussianBlur stdDeviation="1.7510235"/></filter><filter id="c" color-interpolation-filters="sRGB" height="1.025192" width="1.025192" x="-.012596" y="-.012596"><feGaussianBlur stdDeviation="1.7161781"/></filter><g transform="translate(-1000 -500)"><circle cx="1250" cy="750" fill="#8f29a3" r="250"/><path d="m1250.0521 500.09326-.061 248.75004-15.9199-248.2399a249.99917 250.18666 0 0 0 -31.6776 4.06945l45.0428 231.17052c-.102.0363-.2268.0547-.3789.0547l2.377 12.94521-.25-.53361-.5352-1.34279-3.3574-10.61339c-.1814.0698-.3456.12506-.5117.12506l-.1211.0782-83.1951-220.24831a249.99917 250.18666 0 0 0 -14.7401 6.13348l96.9 214.60543-.2187.11532 2.3047 4.43886 2.3437 5.21678.055.0488.416.7486.7461 1.26658v.0314l-.7461-1.29782-.4707-.79746-5.5273-9.21c-.1841.12151-.3808.23754-.5664.39678l-123.4077-200.53639a249.99917 250.18666 0 0 0 -34.1776 25.40763l164.5483 186.40079-.3984-.58052.832 1.02616v.0508l-.3262-.32448-.094-.12903v-.006-.002l-176.1809-175.46484a249.99917 250.18666 0 0 0 -21.0273 24.05115l186.5306 143.42536-.1425.18569 10.4687 8.26398-2.0957-1.07698-9.4082-5.66242c-.1395.18156-.2273.33335-.3066.47301l-208.0031-109.74966a249.99917 250.18666 0 0 0 -7 14.40723l214.5266 96.34337c-.074.17741-.1655.3791-.2578.59419l12.1758 4.73596-.037-.0253.5254.23653-.4863-.21109.3574.18179.2129.0802-.2129-.0508v-.0295l-12.8066-4.08117c-.056.14944-.1255.33501-.1758.5082l-224.9661-68.33223a249.99917 250.18666 0 0 0 -8.7656 41.69908l246.1613 30.77687h-1.2363l-246.3644-14.82161a249.99917 250.18666 0 0 0 -.4219 14.51082 249.99917 250.18666 0 0 0 .6113 17.47203l234.4934-16.18786h-.027l.3066-.0234-.2773.0234 12.9687-.73492-7.6699 1.8549-.3028.0508-4.789.9382.07.23845-228.2004 55.91086a249.99917 250.18666 0 0 0 4.2871 15.37279l224.173-70.26921c.093.36314.1859.69573.2793.95971l11.9648-4.46623-6.7285 3.52803-218.2141 100.03556a249.99917 250.18666 0 0 0 21.0155 36.99246l204.0072-139.70972-2.9414 2.38851-191.599 150.2058a249.99917 250.18666 0 0 0 21.2792 23.80097l164.7143-167.43742c.2793.26396.5666.50585.8359.80333l7.6309-8.62753v-.0314l.7578-.86587.1855-.23653.7754-.84633.02-.0645.057-.0272-.023.15832-.1035.11531.051-.18179-.068.18179-1.3203 1.73762.6133-1.0457-.1856.20916-.7578.89715-2.5996 3.67852-4.2753 5.57643.287.1818-133.9214 192.92518a249.99917 250.18666 0 0 0 13.3768 8.68037l121.3629-200.99764c.1115.0698.2562.1641.4043.23263l6.9082-11.76855-.2793.71929-100.1481 226.51466a249.99917 250.18666 0 0 0 40.1346 13.79743l59.6931-236.78211-1.5742 9.22563.2364.0566-42.7675 230.89101a249.99917 250.18666 0 0 0 31.6386 3.76263l12.9316-234.50119c.2415.0238.455.0234.6602.0234h.031v-12.36276l.055-.87175.3809 3.35211.6328 9.85892c.1939 0 .3385-.0234.5058-.0234l27.248 233.23258a249.99917 250.18666 0 0 0 15.7831-2.3455l-42.1484-231.0161c.254-.028.4739-.0916.707-.11531l-2.0644-10.71502-.055-.13878-.3203-1.79235.018.0295.3575 1.90182 74.3923 234.18055a249.99917 250.18666 0 0 0 39.205-16.19959l-111.1503-215.75097 4.1406 6.7179.2696-.18569 120.6715 201.44522a249.99917 250.18666 0 0 0 26.2108-18.10533l-145.5071-184.32505c.254-.18717.4204-.39029.6562-.60397l-8.457-9.554 3.3672 3.03156 5.8437 5.83834.2872-.30686 174.8256 156.82795a249.99917 250.18666 0 0 0 10.2715-12.18293l-184.478-145.35845c.1296-.15783.305-.33279.4082-.48083l-9.3632-7.21437 211.5852 126.78601a249.99917 250.18666 0 0 0 18.7245-38.19257l-229.6555-89.16613 11.0274 3.36579.012-.18569 223.9289 70.91228a249.99917 250.18666 0 0 0 7.6836-30.99187l-231.1887-41.80463c0-.16199.037-.30149.037-.44955l-7.3671-.90693-4.5508-.79941 12.0312.70755c.03-.32965.029-.62841.029-.96361l235.009 1.78454a249.99917 250.18666 0 0 0 .011-2.19892 249.99917 250.18666 0 0 0 -.3809-13.81303l-234.6691 13.37131v-.33226l-11.7754.81114-2.207.14075 2.1641-.14075h.043l242.6422-45.60435a249.99917 250.18666 0 0 0 -11.2772-41.04821l-231.0032 85.65376-.2598.0684 10.5078-4.79069c-.1716-.35894-.395-.80876-.6601-1.20402l208.1651-109.51534a249.99917 250.18666 0 0 0 -7.877-13.90491l-200.7337 122.63837-.2109-.32833-5.6211 3.9033-4.707 2.86542 9.6699-7.59747-.1446-.20719 183.392-147.45376a249.99917 250.18666 0 0 0 -29.3651-30.85701l-161.2514 182.96656-2.3184 2.37091 151.2905-195.53064a249.99917 250.18666 0 0 0 -26.4154-17.96062l-119.2496 202.94829-.094-.0664-7.0644 11.68841 5.539-12.45265c-.2748-.15364-.5655-.24794-.8711-.35962l83.404-220.18189a249.99917 250.18666 0 0 0 -15.121-5.19332l-69.2811 225.07807c-.1088-.0378-.2229-.0651-.3808-.11531l-1.8809 7.53882-1.1289 3.69807 2.1055-11.46558c-.2011-.0197-.4082-.0561-.6133-.0743l40.1268-232.08917a249.99917 250.18666 0 0 0 -42.4354-3.64138zm-1.9453 235.66215 1.0117 8.77021v.043l.8711 4.45646v.46128l.029-.16807.023.62741v.1036l-.057-.1036v-.43977l-.066.30686-.2383-.49451-.5625-4.74964zm-9.3652 5.00568 7.0859 6.37391-.025-.0197zm25.7675 6.02013-11.8261 2.9006h-.057zm-12.1504.11531-1.6269 2.78332-.3496.40069.1113-.44954-.092.20719-.02.18179-.051.10553v-.0253l.051-.0802v-.16221l.02-.0197v-.10556l.012-.0234.082-.12118v-.0234l.033-.0272.061-.1505v.0197l-.061.13096-.033.0508zm-6.5292.23849 3.3242 2.54682.3633.56682-.4493-.16807.2012.13878h-.022l-.2188-.13878h.037zm5.0331.24627-.2968 1.58908.2968-.84047-.3339 1.37603-.1016.1505.1387-.68606.2617-1.56758zm-.582.38505-.086 1.71808-.057.19351-.1172-.46715zm3.1445.7447-2.2754 1.58908h-.023l-.4121.27757-.2871.11728.2129-.27557.074-.0215.8867-.71342zm-4.0429.57856.1348.14075v.0469l-.084-.1251zm3.8633.31665h.029l-.1738.0802zm-3.5254.18179.1835.3577v.0392l-.1835-.35376zm.416.0938.02.26385v.0392l.039.0958.047.11728-.047.0215-.039-.1192.039-.0197-.039-.0605v-.0352l-.057-.26192zm2.2207.0644-.07.0272-1.0156.30686.1562-.0605zm-5.6387.0665 2.3692.40655.3457.21498.029.0606-.3124.0644zm2.1641.31271h.053l.094.0314zm.7265.19155h.02v.0196zm-.164.0606h.02l.074.0802zm.2148.1818h.024l-.024.0314zm-.3359.16808h.057l.2461.0352-.8125.32836zm-.3887.0352h.2168l-.9316.47886.2637-.0527-.025.0272-.2383.0253-2.0253.39287v.0234l-5.2422.93428 5.2422-.95774zm1.7774.0234.5078.043.7519.2228-.8457-.0841zm-.2188.16418.035.0178.1113.22088.3282.16611 1.4394 1.4034-1.3496-1.00858-.2344-.2971-.1855-.26385-.018-.0333-.092-.18766h-.035zm-1.0625.0802-.25.27364h-.029l-2.7812 1.26461 2.2988-1.41316zm1.5703.0997.1485.0253.031.0314zm.2207.0253 1.9356.60398-1.9063-.57074zm-1.1796.17201.031.1251.022-.0978-.022.13092v.006l.076.23066.125 1.89594-.2324-1.35256.031-.77402-.088.50819v-.0919l-.031-.18569.031.14272v-.26385zm.7226.0919.061.0664.088.14661-.037-.0314zm-1.1406.1818-.2442.52578-3.9492 12.85138 3.9219-12.85138h.027l.084-.28732.01-.0117zm-.088.10552-.065.11339.041-.0978zm1.4648.0802.033.0234.1152.18962-.092-.0919zm-.4375.21306.023.0295.029.22669zm-1.7304.26581v.0295l.051-.0295zm2.2929 1.35257 4.8828 10.7893-4.8828-10.73457z" fill="#aa40bf"/></g><g fill="#eed9f2" stroke-width="46.107" transform="matrix(1.1355131 0 0 .5368816 -2305.7383 187.2437)"><path d="m2252.0312 231.26953c-26.6347-.0264-53.2502 6.60697-76.7289 19.19177-25.7795 13.75409-47.7496 34.53676-62.9239 59.50597-13.6557 22.38068-21.7768 48.10659-23.4063 74.27597-1.6956 26.21455 2.984 52.84112 13.7108 76.83302 11.6238 26.15892 30.2636 49.13983 53.4207 65.96124 21.6724 15.79902 47.2901 26.16506 73.8804 29.73238 28.4129 3.88236 57.8514.19446 84.3565-10.78822 26.7282-11.0049 50.3983-29.2697 67.8981-52.26821 16.49-21.60456 27.4951-47.37877 31.536-74.26432 4.426-29.01672.9284-59.22876-10.2252-86.39399-11.116-27.25742-29.7789-51.36553-53.3207-69.02936-21.9114-16.51058-48.046-27.38833-75.2288-31.16247-7.6063-1.07123-15.2882-1.59433-22.9687-1.59378zm.1055 29.93555c12.0032.0139 24.0105 1.5877 35.586 4.77539.506.14064 1.2702.35221 1.8077.51261 24.5597 7.08469 46.941 21.46645 63.6285 40.82397 6.1144 7.05398 11.484 14.75205 16.0013 22.92123.1979.35898.5717 1.05579.837 1.54407 1.492 2.78301 2.8725 5.62487 4.163 8.50671.1676.37314.4798 1.10062.7028 1.60939 9.3146 21.55921 12.6762 45.60162 9.8793 68.90539-.2122 1.84348-.5164 3.92552-.7833 5.60241-3.27 20.31886-11.3625 39.83567-23.4338 56.50438-10.1862 14.18156-23.3361 26.39024-38.1053 35.51515-8.2144 5.07785-16.9781 9.26631-26.0937 12.45508-1.0728.36567-2.379.81569-3.5543 1.17945-27.9035 8.89539-58.7311 8.31488-86.2596-1.69675-3.8365-1.37991-7.6013-2.95554-11.2935-4.68387-.3606-.16981-1.0818-.52098-1.5804-.76021-4.3073-2.09638-8.4951-4.43516-12.5544-6.97807-.3422-.21537-1.0113-.64721-1.4787-.94543-1.4104-.90296-2.9807-1.98913-4.2381-2.8534-.6291-.45294-1.4435-1.02797-1.9553-1.4033-6.1893-4.51531-11.9889-9.56151-17.3221-15.06155-.2724-.29521-.8266-.8708-1.2069-1.27333-15.72-16.64601-27.0589-37.40241-32.467-59.65664-6.6152-26.93779-4.663-55.93143 5.6788-81.6837 3.3155-8.27807 7.4637-16.22116 12.3545-23.67734.2281-.33087.669-.9971.9785-1.45633 4.4248-6.54492 9.4439-12.68499 14.9493-18.35031.3119-.32022.8914-.90072 1.3058-1.32061 16.5064-16.55219 37.4455-28.64634 60.0569-34.59426 11.2068-2.98408 22.803-4.44759 34.397-4.46013z" fill="#6a1f7a" filter="url(#c)"/><path d="m2250.0742 233.8418c-23.8919.27511-47.7083 5.96202-69.1126 16.59053-26.0276 12.84589-48.4374 32.88436-64.1482 57.28627-13.5689 20.9709-22.1264 45.15779-24.7194 70.00341-2.717 25.55646.7315 51.76567 10.1554 75.68735 10.2859 26.2947 27.675 49.73989 49.7752 67.30134 20.5786 16.429 45.25 27.70341 71.169 32.38914 28.5133 5.21015 58.4369 2.59636 85.5574-7.66588 26.6941-10.02469 50.5755-27.34067 68.4922-49.51417 16.8154-20.70905 28.3746-45.66295 33.1691-71.91215 5.29-28.63452 2.6793-58.70696-7.6457-85.9462-9.9489-26.43725-27.0471-50.11129-48.9349-67.95634-20.7909-17.03296-45.9145-28.74835-72.3586-33.59485-10.3445-1.92019-20.8795-2.79652-31.3989-2.66845zm2.0625 24.80273c7.521.004 15.0425.6089 22.4629 1.83789.5926.10128 1.4474.24123 2.0457.35573 1.9587.35376 3.915.75475 5.7797 1.17573 3.997.90014 7.9493 1.99451 11.8484 3.25174.8129.26579 1.8996.62783 2.811.94752 5.3137 1.84193 10.6327 4.09697 15.5914 6.55248 5.8943 2.92767 11.5744 6.28456 16.9863 10.0293.7912.5487 1.8024 1.26605 2.666 1.89453 19.7519 14.37153 35.5285 34.14941 45.0776 56.63754 1.5861 3.71233 2.9941 7.49878 4.2447 11.33707.2568.81673.605 1.90881.8806 2.83544 7.9289 26.39354 7.6221 55.19423-.8923 81.40675-.2658.81287-.6279 1.89958-.9475 2.81092-8.2663 23.8272-23.3771 45.20628-43.0147 61.02279-12.8778 10.41418-27.6774 18.44213-43.4343 23.54324-.8177.25581-1.9106.60517-2.8373.88102-3.3189.99843-6.8331 1.90063-10.1217 2.61312-19.1341 4.15346-39.1589 4.15349-58.293 0-1.0487-.22908-2.3494-.52439-3.4889-.80626-3.1987-.78365-6.3672-1.68827-9.5013-2.6996-.8129-.26583-1.8996-.62787-2.8111-.94703-23.6702-8.21354-44.9267-23.17815-60.7105-42.6296-2.2229-2.72278-4.33-5.53916-6.3358-8.42532-.5386-.78806-1.2299-1.80736-1.8145-2.69141-3.0018-4.56341-5.7961-9.43285-8.1816-14.24609-2.9583-5.95665-5.4715-12.1318-7.5254-18.45703-.2558-.81771-.6052-1.91063-.881-2.83726-.9985-3.31888-1.9007-6.83313-2.6131-10.12172-4.1535-19.13409-4.1535-39.15888 0-58.29297.229-1.04878.5244-2.34943.8062-3.48897.7837-3.19868 1.6883-6.3672 2.6996-9.50127.2658-.81286.6279-1.89956.947-2.81108 1.8566-5.33637 4.0567-10.55246 6.5667-15.6147.6326-1.27616 1.3931-2.74728 2.1125-4.08026 11.9203-22.16393 30.1346-40.87974 51.9589-53.40924 2.8509-1.64077 5.812-3.20307 8.7036-4.59765 5.5387-2.67476 11.2601-4.9663 17.1097-6.86597.8168-.25683 1.9089-.60502 2.8355-.88059 3.3195-.99861 6.8344-1.90086 10.1235-2.61355 1.9985-.42896 4.0591-.83412 5.9857-1.15902 3.8797-.66606 8.0083-1.18631 12.0227-1.50779 3.7047-.29993 7.4214-.44335 11.1381-.44843z" fill="#aa40bf" filter="url(#b)"/><path d="m2252.1367 236.23633c-87.4366 0-158.5332 71.09653-158.5332 158.5332s71.0966 158.53125 158.5332 158.53125c87.4367 0 158.5313-71.09458 158.5313-158.53125s-71.0946-158.5332-158.5313-158.5332zm0 20c76.6279 0 138.5313 61.90533 138.5313 138.5332 0 76.62788-61.9034 138.53125-138.5313 138.53125s-138.5332-61.90337-138.5332-138.53125c0-76.62787 61.9053-138.5332 138.5332-138.5332z" fill="#eed9f2"/><path d="m2248.4434 176.05469c-16.0528 49.4069-32.1055 98.8138-48.1582 148.2207-54.6485 0-109.2969 0-163.9454 0 44.1867 32.19654 88.3752 64.39043 132.5625 96.58594-16.9234 52.08539-33.8497 104.16988-50.7714 156.25586 44.2009-32.20794 88.4023-64.41533 132.6035-96.62305 44.2011 32.20772 88.4025 64.41511 132.6035 96.62305-16.9237-52.08619-33.8533-104.17043-50.7793-156.25586 44.1899-32.19556 88.3813-64.38906 132.5703-96.58594-54.6484 0-109.2969 0-163.9453 0-16.8166-51.75644-33.6314-103.51348-50.4492-155.26953-.7637 2.34961-1.5274 4.69922-2.291 7.04883zm21.1679 148.18945c-12.5879 0-25.1758 0-37.7636 0 6.2955-19.37174 12.5911-38.74349 18.8867-58.11523 6.2923 19.37174 12.5846 38.74349 18.8769 58.11523zm-79.0801 30.05469c-3.9524 12.17513-7.9049 24.35026-11.8574 36.52539-16.7148-12.17513-33.4297-24.35026-50.1445-36.52539zm88.834 0c5.9701 18.3763 11.9401 36.7526 17.9102 55.1289-15.5169 11.30534-31.0339 22.61068-46.5508 33.91602-15.5137-11.30469-31.0273-22.60938-46.541-33.91406 5.97-18.37696 11.9401-36.75391 17.9102-55.13086zm93.5782 0c-16.7136 12.17513-33.4271 24.35026-50.1407 36.52539-3.955-12.17513-7.9101-24.35026-11.8652-36.52539zm-46.8125 144.01367c-16.6355-12.12956-33.2709-24.25911-49.9063-36.38867 10.2741-7.48633 20.5482-14.97266 30.8223-22.45899 6.3613 19.61589 12.7226 39.23177 19.084 58.84766zm-100.8907-36.38867c-16.6451 12.1289-33.2903 24.25781-49.9355 36.38672 6.3724-19.61459 12.7448-39.22917 19.1172-58.84375 10.2728 7.48567 20.5455 14.97135 30.8183 22.45703z" fill="#aa40bf" filter="url(#a)"/><path d="m2250.7341 176.79877-48.6993 149.88477h-158.3007l127.998 93.25977-49.0156 150.85156 128.0176-93.28125 128.0175 93.28125-49.0254-150.85156 128.0079-93.25977h-158.3008zm0 81.53516 22.1914 68.31836h-44.3946zm-129.6036 93.55664h72.7149l-13.9063 42.83594zm99.2129 0h60.7715l18.9903 58.45508-49.3809 35.97851-49.3711-35.97656zm87.2793 0h72.7168l-58.8027 42.83594zm.6895 83.67188 22.4004 69.07031-58.5742-42.70899zm-115.1563.002 36.1739 26.35937-58.6133 42.70899z" fill="#eed9f2"/></g><path d="m1388.6641-81.535156-48.6993 149.884765h-158.3007l127.998 93.259771-49.0156 150.85156 128.0176-93.28125 128.0175 93.28125-49.0254-150.85156 128.0079-93.259771h-158.3008zm0 81.535156 22.1914 68.318359h-44.3946zm-129.6036 93.556641h72.7149l-13.9063 42.835939zm99.2129 0h60.7715l18.9903 58.455079-49.3809 35.97851-49.3711-35.97656zm87.2793 0h72.7168l-58.8027 42.835939zm.6895 83.671879 22.4004 69.07031-58.5742-42.70899zm-115.1563.00195 36.1739 26.35937-58.6133 42.70899z" fill="#a51d2d" stroke-width=".9"/><circle cx="1390.0663" cy="136.435" fill="none" r="148.53271" stroke="#f6f5f4" stroke-width="20"/><path d="m248.00586 12c-16.63701.0031-31.40901 9.619669-40.96875 22.71875-9.80212 13.432942-15.35938 30.967422-15.35938 50.285156 0 13.858825 2.9063 26.763664 8.14258 37.923824-20.60245 9.63326-32.56823 30.46792-38.70508 52.82032v.002c-6.95547 25.34464-8.0261 54.46157-8.20898 81.76367l-.12109 18.1211h34.47851l8.9375 132.97656h41.07422 22.07422 43.29883l7.91015-132.97656h32.65625l-.01-18.01172c-.015-27.24544-.0263-56.64208-6.36719-82.36524h-.002v-.002c-3.44336-13.96706-8.72827-26.80905-17.66602-37.27734-5.76312-6.74936-13.41737-12.50718-22.4082-16.26368 4.88457-10.88201 7.60156-23.347421 7.60156-36.710934 0-19.317713-5.55606-36.852026-15.35937-50.285156-9.56521-13.107304-24.3491-22.721803-40.99776-22.71875z" fill="#6a1f7a"/><path d="m221.5776 45.329436c-7.18657 9.848559-11.89913 23.954707-11.89913 39.675199 0 15.719735 4.71256 29.802345 11.90062 39.650905 7.18657 9.85008 16.44923 15.33095 26.43024 15.33095 9.98027 0 19.26677-5.48087 26.45409-15.33095 7.18734-9.84856 11.90064-23.93117 11.90064-39.650905 0-15.719733-4.7133-29.82664-11.90064-39.675199-7.18732-9.848563-16.2626-15.330926-26.45409-15.329057-10.18505.0019-19.24367 5.479735-26.43173 15.329057zm26.43248 108.845214c-13.45507 0-25.55987-6.74668-34.55799-17.20347-18.72204 5.23485-28.76416 20.90674-34.97901 43.54325-6.10307 22.23861-7.38777 50.30816-7.56736 77.11948h19.37483l-2.60815-51.4221 13.92603-.71074 3.07389 60.74673 8.35949 124.36372h28.31705v-100.65731h13.92603v100.65731h30.41254l7.4295-124.88539 3.05004-60.22506 13.90144.71226-2.60815 51.42058h17.74511c-.0149-27.11885-.31671-55.64096-5.84524-78.06865-3.00459-12.18731-7.50551-22.43376-13.87908-29.89878-5.60976-6.56975-12.58395-11.20397-22.23857-13.47856-9.06372 10.90366-21.44498 17.98673-35.2324 17.98673z" fill="#eed9f2" stroke-width="36"/></svg>