<svg height="500" viewBox="0 0 500 500" width="500" xmlns="http://www.w3.org/2000/svg" xmlns:xlink="http://www.w3.org/1999/xlink"><radialGradient id="a" cx="1362.7291" cy="216.11429" gradientTransform="matrix(1.0000001 -.0000059 .0000001 1.0000003 -112.72927 33.893757)" gradientUnits="userSpaceOnUse" r="250"><stop offset="0" stop-color="#ff851a"/><stop offset=".42441937" stop-color="#f87000"/><stop offset=".86367416" stop-color="#f26900"/><stop offset="1" stop-color="#e55f00"/></radialGradient><g transform="translate(-1000)"><path d="m1500 250a250 250 0 0 1 -250 250 250 250 0 0 1 -250-250 250 250 0 0 1 250-250 250 250 0 0 1 250 250z" fill="url(#a)" stroke-linecap="round" stroke-linejoin="round" stroke-width="1.002"/><path d="m1309.2298 33.82789c128.5196 30.706851 207.8974 167.48127 169.5927 291.56949-31.3771 95.69524-112.8693 162.03793-212.5543 174.60263 153.1796-8.09118 266.0956-163.0043 218.7012-309.92978-36.4562-114.666588-154.6038-191.5214848-270.6514-169.822657-18.8526 4.215647-38.4387 10.498641-55.8829 18.694487-112.5353 47.459213-168.47522 196.206-99.9632 307.85319 57.6978 93.63045 168.5136 141.8489 267.9993 100.77239-134.92 68.97589-303.283-51.46877-311.488-201.30723-4.4167-117.68321 76.8182-219.674136 190.654-246.26040176-89.0147 9.18391126-152.6601 79.39239576-187.7408 157.21169176-38.45522 102.70317 5.2337 231.75078 109.038 294.08388 114.5107 66.1048 260.3537 29.37245 323.6836-83.60152 42.2104-77.69758 34.3514-177.62383-23.1776-249.88923-57.5404-72.257811-157.5429-102.460489-246.4118-71.877168-81.7429 30.682061-131.1298 101.133078-134.0478 190.176958.6692 92.68536 61.7912 168.55972 147.5399 198.52472 128.5549 37.82014 266.7725-70.33038 233.6823-209.88949-14.7104-64.39775-57.8855-122.14991-125.7378-141.121386-71.391-15.467036-138.9716 1.205-181.2869 64.641366-18.8995 29.2286-28.9384 85.21395-26.105 97.65297m0 0c13.5324-50.18833 30.6277-97.66354 72.2125-128.94941 53.182-38.308183 124.4576-37.093813 181.7444-.48035 50.1457 36.48017 75.4845 90.37713 72.3557 150.91678-6.6674 64.04407-38.4038 109.83277-91.6401 141.00844-63.9019 34.56125-135.3795 4.83213-189.1258-35.28385-78.8706-65.48566-79.7477-186.67235-8.9744-256.76104 63.7369-55.941605 167.0207-64.891564 238.7167-6.65053 78.8163 58.35315 90.3045 169.04089 40.972 246.62443-35.2274 56.41892-88.4571 87.60135-152.5581 93.63158-81.9488 2.18264-160.666-41.91503-196.8695-120.9383-36.2055-79.02511-22.5771-164.33167 26.8727-227.66064 49.4316-63.30896 138.3491-86.746364 220.4504-67.54202" fill="#c50"/></g><path d="m76.951172 67.291016c-11.278598 11.976615-21.548058 25.067255-30.783203 38.890624a250 250 0 0 0 -25.666016 45.56836c-.858099 1.82411-1.779069 3.62769-2.605469 5.46094-1.685698 4.5021-3.157398 9.0705-4.529296 13.66601a250 250 0 0 0 -13.367188 79.12305 250 250 0 0 0 250 250 250 250 0 0 0 29.2207-2.08984c-4.29659.75527-8.58393 1.53913-12.95312 2.08984 54.74474-2.8917 104.28822-24.60237 143.26758-57.93359a250 250 0 0 0 11.90429-10.85352c1.9229-1.87123 3.8268-3.75716 5.6875-5.6875a250 250 0 0 0 15.47461-17.69922l.10156-5.86719-20.72265 2.74414-59.55859 7.88868 5.0664 21.74023-42.85156-42.85156-5.75195-19.17188 101.84961 23.27149 1.14843 5.0039 7.78321-2.96289 5.13671 1.17383-.13085-3.08008 23.33593-8.88476a250 250 0 0 0 25.10157-48.375l-6.86719-22.64844-15.58594 2.58594-25.61133 4.25-3.29492 4.1289-2.31055-54.51171-67.04297-11.24805-6.11132 4.44726-36.6211 26.64258-9.95312 49.62696-28.40821-94.68946-20.61132-18.72461 14.75781-6.66211-2.13086 2.29297 61.8457 28.35157 29.39063-47.5625-30.5-18.84961-35.08985-62.28711-13.08398 2.9707-76.2793 17.32812 29.51172 54.66602 9.36524 2.86133-.92969 14.94922-44.07227-40.04102-4.40625-44.36719 52.64258-4.48828-.73633-59.328122-18.05859.285156-58.08985.921875 9.07813 26.269531-70.99414-23.912109-1.81641-.22461z" fill="#994100"/><path d="m62.740234 83.677734c-5.835685 7.235992-11.384294 14.738437-16.572265 22.503906a250 250 0 0 0 -25.666016 45.56836c-.858099 1.82411-1.779069 3.62769-2.605469 5.46094-1.685698 4.5021-3.157398 9.0705-4.529296 13.66601a250 250 0 0 0 -13.367188 79.12305 250 250 0 0 0 250 250 250 250 0 0 0 29.2207-2.08984c-4.29659.75527-8.58393 1.53913-12.95312 2.08984 37.304-1.97045 72.18399-12.69404 102.96094-29.86328l-2.92969-11.53711-57.59961-57.59961-43.19922-144-79.25-72-7.15039-72-70.20117-23.646484zm170.462886 2.753907-33.24609.527343 9.01758 26.095706 24.53125-2.0918zm56.66407 57.689449-53.16797 12.07813 14.74219 27.30859 15.88476 4.85547-1.10156 17.70313 46.67187-21.06641zm31.1914 54.89258-17.60547 18.94336 24.75782 11.34961 11.57031-18.72266zm45.81641 81.00195-30.94336 22.50977-10.58984 52.79688 90.47851 20.67187-3.74804-88.39648zm96.72656 56.13477-18.79687 3.11914-14.39063 18.0293 4.38672 19.10742 36.76367-13.99609zm-39.25781 86.39649-39.88867 5.2832 6.17187 26.48047 3.56836-.13477c5.27526-3.84044 10.39381-7.88002 15.33985-12.10937a250 250 0 0 0 11.90429-10.85352c.94759-.92212 1.86728-1.86992 2.80274-2.80273z" fill="#ffa348" stroke-width="36"/><path d="m98.479035 271.31865c-14.695085-1.03879-35.219207 12.10426-65.96105 50.30221 11.91637 16.40671 26.349383 24.65481 41.517446 25.85724-6.20596-3.80866-10.081622-10.90372-9.38193-18.64483.983078-10.87633 10.604524-18.90178 21.481326-17.91866 10.877265.98317 18.887813 10.60232 17.904733 21.47864-.37211 4.11692-1.98311 7.81965-4.426621 10.78607 11.831381-4.8188 23.509481-13.43228 34.237731-25.35478-8.40921-23.35718-17.63754-45.25285-35.372057-46.5064zm94.887085 8.57655c-17.2885-1.30862-30.10804 18.31373-42.39168 39.47758 7.45587 12.09381 16.11128 21.76181 25.48342 28.58307-1.13135-2.81074-1.63515-5.91418-1.34381-9.13745.98308-10.87632 10.60453-18.90178 21.48179-17.91862 10.8768.98312 18.88782 10.60231 17.90475 21.47865-.69399 7.67788-5.68974 13.93094-12.39032 16.60277 15.87533 2.3996 32.45056-2.95982 47.88975-17.70234-23.79801-43.83404-41.85025-60.26415-56.63347-61.38315z" fill="#994100" stroke-width=".899999"/></svg>