<svg height="500" viewBox="0 0 500 500" width="500" xmlns="http://www.w3.org/2000/svg" xmlns:xlink="http://www.w3.org/1999/xlink"><filter id="a" color-interpolation-filters="sRGB" height="1.214248" width="1.214248" x="-.107124" y="-.107124"><feGaussianBlur stdDeviation="3.529976"/></filter><filter id="b" color-interpolation-filters="sRGB" height="1.035519" width="1.035519" x="-.017759" y="-.017759"><feGaussianBlur stdDeviation=".38090473"/></filter><filter id="c" color-interpolation-filters="sRGB" height="1.068444" width="1.068444" x="-.034222" y="-.034222"><feGaussianBlur stdDeviation=".38090473"/></filter><filter id="d" color-interpolation-filters="sRGB" height="1.055104" width="1.120339" x="-.060169" y="-.027552"><feGaussianBlur stdDeviation="1.7045772"/></filter><filter id="e" color-interpolation-filters="sRGB" height="1.022735" width="1.093969" x="-.046984" y="-.011368"><feGaussianBlur stdDeviation="1.1613801"/></filter><filter id="f" color-interpolation-filters="sRGB" height="1.092447" width="1.288051" x="-.144026" y="-.046223"><feGaussianBlur stdDeviation="1.1613801"/></filter><g transform="translate(-1000 -500)"><circle cx="1250" cy="750" fill="#8f29a3" r="250"/><path d="m1250.0521 500.09326-.061 248.75004-15.9199-248.2399a249.99917 250.18666 0 0 0 -31.6776 4.06945l45.0428 231.17052c-.102.0363-.2268.0547-.3789.0547l2.377 12.94521-.25-.53361-.5352-1.34279-3.3574-10.61339c-.1814.0698-.3456.12506-.5117.12506l-.1211.0782-83.1951-220.24831a249.99917 250.18666 0 0 0 -14.7401 6.13348l96.9 214.60543-.2187.11532 2.3047 4.43886 2.3437 5.21678.055.0488.416.7486.7461 1.26658v.0314l-.7461-1.29782-.4707-.79746-5.5273-9.21c-.1841.12151-.3808.23754-.5664.39678l-123.4077-200.53639a249.99917 250.18666 0 0 0 -34.1776 25.40763l164.5483 186.40079-.3984-.58052.832 1.02616v.0508l-.3262-.32448-.094-.12903v-.006-.002l-176.1809-175.46484a249.99917 250.18666 0 0 0 -21.0273 24.05115l186.5306 143.42536-.1425.18569 10.4687 8.26398-2.0957-1.07698-9.4082-5.66242c-.1395.18156-.2273.33335-.3066.47301l-208.0031-109.74966a249.99917 250.18666 0 0 0 -7 14.40723l214.5266 96.34337c-.074.17741-.1655.3791-.2578.59419l12.1758 4.73596-.037-.0253.5254.23653-.4863-.21109.3574.18179.2129.0802-.2129-.0508v-.0295l-12.8066-4.08117c-.056.14944-.1255.33501-.1758.5082l-224.9661-68.33223a249.99917 250.18666 0 0 0 -8.7656 41.69908l246.1613 30.77687h-1.2363l-246.3644-14.82161a249.99917 250.18666 0 0 0 -.4219 14.51082 249.99917 250.18666 0 0 0 .6113 17.47203l234.4934-16.18786h-.027l.3066-.0234-.2773.0234 12.9687-.73492-7.6699 1.8549-.3028.0508-4.789.9382.07.23845-228.2004 55.91086a249.99917 250.18666 0 0 0 4.2871 15.37279l224.173-70.26921c.093.36314.1859.69573.2793.95971l11.9648-4.46623-6.7285 3.52803-218.2141 100.03556a249.99917 250.18666 0 0 0 21.0155 36.99246l204.0072-139.70972-2.9414 2.38851-191.599 150.2058a249.99917 250.18666 0 0 0 21.2792 23.80097l164.7143-167.43742c.2793.26396.5666.50585.8359.80333l7.6309-8.62753v-.0314l.7578-.86587.1855-.23653.7754-.84633.02-.0645.057-.0272-.023.15832-.1035.11531.051-.18179-.068.18179-1.3203 1.73762.6133-1.0457-.1856.20916-.7578.89715-2.5996 3.67852-4.2753 5.57643.287.1818-133.9214 192.92518a249.99917 250.18666 0 0 0 13.3768 8.68037l121.3629-200.99764c.1115.0698.2562.1641.4043.23263l6.9082-11.76855-.2793.71929-100.1481 226.51466a249.99917 250.18666 0 0 0 40.1346 13.79743l59.6931-236.78211-1.5742 9.22563.2364.0566-42.7675 230.89101a249.99917 250.18666 0 0 0 31.6386 3.76263l12.9316-234.50119c.2415.0238.455.0234.6602.0234h.031v-12.36276l.055-.87175.3809 3.35211.6328 9.85892c.1939 0 .3385-.0234.5058-.0234l27.248 233.23258a249.99917 250.18666 0 0 0 15.7831-2.3455l-42.1484-231.0161c.254-.028.4739-.0916.707-.11531l-2.0644-10.71502-.055-.13878-.3203-1.79235.018.0295.3575 1.90182 74.3923 234.18055a249.99917 250.18666 0 0 0 39.205-16.19959l-111.1503-215.75097 4.1406 6.7179.2696-.18569 120.6715 201.44522a249.99917 250.18666 0 0 0 26.2108-18.10533l-145.5071-184.32505c.254-.18717.4204-.39029.6562-.60397l-8.457-9.554 3.3672 3.03156 5.8437 5.83834.2872-.30686 174.8256 156.82795a249.99917 250.18666 0 0 0 10.2715-12.18293l-184.478-145.35845c.1296-.15783.305-.33279.4082-.48083l-9.3632-7.21437 211.5852 126.78601a249.99917 250.18666 0 0 0 18.7245-38.19257l-229.6555-89.16613 11.0274 3.36579.012-.18569 223.9289 70.91228a249.99917 250.18666 0 0 0 7.6836-30.99187l-231.1887-41.80463c0-.16199.037-.30149.037-.44955l-7.3671-.90693-4.5508-.79941 12.0312.70755c.03-.32965.029-.62841.029-.96361l235.009 1.78454a249.99917 250.18666 0 0 0 .011-2.19892 249.99917 250.18666 0 0 0 -.3809-13.81303l-234.6691 13.37131v-.33226l-11.7754.81114-2.207.14075 2.1641-.14075h.043l242.6422-45.60435a249.99917 250.18666 0 0 0 -11.2772-41.04821l-231.0032 85.65376-.2598.0684 10.5078-4.79069c-.1716-.35894-.395-.80876-.6601-1.20402l208.1651-109.51534a249.99917 250.18666 0 0 0 -7.877-13.90491l-200.7337 122.63837-.2109-.32833-5.6211 3.9033-4.707 2.86542 9.6699-7.59747-.1446-.20719 183.392-147.45376a249.99917 250.18666 0 0 0 -29.3651-30.85701l-161.2514 182.96656-2.3184 2.37091 151.2905-195.53064a249.99917 250.18666 0 0 0 -26.4154-17.96062l-119.2496 202.94829-.094-.0664-7.0644 11.68841 5.539-12.45265c-.2748-.15364-.5655-.24794-.8711-.35962l83.404-220.18189a249.99917 250.18666 0 0 0 -15.121-5.19332l-69.2811 225.07807c-.1088-.0378-.2229-.0651-.3808-.11531l-1.8809 7.53882-1.1289 3.69807 2.1055-11.46558c-.2011-.0197-.4082-.0561-.6133-.0743l40.1268-232.08917a249.99917 250.18666 0 0 0 -42.4354-3.64138zm-1.9453 235.66215 1.0117 8.77021v.043l.8711 4.45646v.46128l.029-.16807.023.62741v.1036l-.057-.1036v-.43977l-.066.30686-.2383-.49451-.5625-4.74964zm-9.3652 5.00568 7.0859 6.37391-.025-.0197zm25.7675 6.02013-11.8261 2.9006h-.057zm-12.1504.11531-1.6269 2.78332-.3496.40069.1113-.44954-.092.20719-.02.18179-.051.10553v-.0253l.051-.0802v-.16221l.02-.0197v-.10556l.012-.0234.082-.12118v-.0234l.033-.0272.061-.1505v.0197l-.061.13096-.033.0508zm-6.5292.23849 3.3242 2.54682.3633.56682-.4493-.16807.2012.13878h-.022l-.2188-.13878h.037zm5.0331.24627-.2968 1.58908.2968-.84047-.3339 1.37603-.1016.1505.1387-.68606.2617-1.56758zm-.582.38505-.086 1.71808-.057.19351-.1172-.46715zm3.1445.7447-2.2754 1.58908h-.023l-.4121.27757-.2871.11728.2129-.27557.074-.0215.8867-.71342zm-4.0429.57856.1348.14075v.0469l-.084-.1251zm3.8633.31665h.029l-.1738.0802zm-3.5254.18179.1835.3577v.0392l-.1835-.35376zm.416.0938.02.26385v.0392l.039.0958.047.11728-.047.0215-.039-.1192.039-.0197-.039-.0605v-.0352l-.057-.26192zm2.2207.0644-.07.0272-1.0156.30686.1562-.0605zm-5.6387.0665 2.3692.40655.3457.21498.029.0606-.3124.0644zm2.1641.31271h.053l.094.0314zm.7265.19155h.02v.0196zm-.164.0606h.02l.074.0802zm.2148.1818h.024l-.024.0314zm-.3359.16808h.057l.2461.0352-.8125.32836zm-.3887.0352h.2168l-.9316.47886.2637-.0527-.025.0272-.2383.0253-2.0253.39287v.0234l-5.2422.93428 5.2422-.95774zm1.7774.0234.5078.043.7519.2228-.8457-.0841zm-.2188.16418.035.0178.1113.22088.3282.16611 1.4394 1.4034-1.3496-1.00858-.2344-.2971-.1855-.26385-.018-.0333-.092-.18766h-.035zm-1.0625.0802-.25.27364h-.029l-2.7812 1.26461 2.2988-1.41316zm1.5703.0997.1485.0253.031.0314zm.2207.0253 1.9356.60398-1.9063-.57074zm-1.1796.17201.031.1251.022-.0978-.022.13092v.006l.076.23066.125 1.89594-.2324-1.35256.031-.77402-.088.50819v-.0919l-.031-.18569.031.14272v-.26385zm.7226.0919.061.0664.088.14661-.037-.0314zm-1.1406.1818-.2442.52578-3.9492 12.85138 3.9219-12.85138h.027l.084-.28732.01-.0117zm-.088.10552-.065.11339.041-.0978zm1.4648.0802.033.0234.1152.18962-.092-.0919zm-.4375.21306.023.0295.029.22669zm-1.7304.26581v.0295l.051-.0295zm2.2929 1.35257 4.8828 10.7893-4.8828-10.73457z" fill="#aa40bf"/></g><g transform="translate(0 -23.2337)"><g><path d="m187.0625 101.82422c-11.97087 5.41749-23.47637 12.33062-34.13672 20.95508-33.13489 26.80642-52.54591 64.5398-57.222655 103.86328-12.129227 37.42787-18.738432 86.80725-45.203125 125.07031l-11.134766 19.18359 19.25586 8.44532c25.917832 18.12382 51.108196 41.28286 80.039066 56.41797 30.20933 15.80395 68.16321 20.16103 104.92578-4.50977l10.1582-6.81641-2.59961-11.95507c-2.8039-12.8966-3.97687-29.04978-3.97461-46.9336-34.73962-.63109-69.26838-14.12831-95.72461-40.6289-54.33553-54.42579-54.076547-142.95928.25977-197.38672 10.65313-10.67067 22.61607-19.21821 35.35742-25.70508z" fill="#6a1f7a"/><path d="m111.28125 237.38281c-10.2076 34.27165-17.744817 83.74767-45.978516 124.56836 57.402776 38.96144 104.386336 97.21209 168.253906 54.35156-3.27699-15.07261-4.59901-32.96353-4.58008-52.25781-28.39357-4.25142-55.70984-17.27091-77.53125-39.1289-24.33728-24.37771-37.68584-55.59964-40.16406-87.53321z" fill="#eed9f2" stroke-width="36.0001"/><path d="m111.28125 237.38281c-10.2076 34.27165-17.744817 83.74767-45.978516 124.56836 57.402776 38.96144 104.386336 97.21209 168.253906 54.35156-3.27699-15.07261-4.59901-32.96353-4.58008-52.25781-28.39357-4.25142-55.70984-17.27091-77.53125-39.1289-24.33728-24.37771-37.68584-55.59964-40.16406-87.53321z" fill="#6a1f7a" opacity=".25"/></g><g><path d="m375.375 351.00391-1.18945 1.73242c1.01512 2.79492 1.59765 5.66109 1.59765 8.59179 0 30.33037-55.80679 54.91211-125.4707 54.91211-69.66308 0-126.09375-24.58008-126.09375-54.91211 0-2.51857.4075-4.99331 1.16602-7.41601l-11.50586 3.13477c-12.89366 3.51325-22.470251 11.63198-29.898441 21.21874-7.120151 9.18922-12.915117 20.21616-11.529297 33.93946.252881 14.87808 7.268017 28.42983 17.36914 39.05664 10.287498 10.82288 23.836788 19.41387 39.777348 26.49609 31.88108 14.16446 73.73461 22.24219 120.03906 22.24219 46.31626 0 87.53647-8.1555 119.10156-22.33789s56.01556-35.26155 58.80078-64.57227c2.08916-21.98529-11.83753-44.07259-38.47656-55.97265z" fill="#6a1f7a"/><path d="m250.34712 421.08675c-67.29619 0-113.1218-19.98648-131.73578-46.67208-14.81504 4.03679-30.188675 23.30833-28.206335 36.97242.0016 38.97121 70.922505 70.61291 159.231945 70.61291 88.30946 0 156.29637-31.81541 159.98307-70.61291 1.04556-11.00301-7.47826-28.71182-27.89995-37.8345-18.42577 26.81557-63.86036 47.53416-131.37295 47.53416z" fill="#eed9f2" stroke-width="36"/><path d="m359.33594 312.41211c-3.34233 4.23368-6.93094 8.33466-10.83399 12.24414-54.33467 54.42661-142.72032 54.68719-197.05664.25977-3.9659-3.97249-7.60582-8.14571-10.99023-12.45508l-10.76172 7.93164c-13.29542 9.79904-23.47461 24.08696-23.47461 40.93554 0 13.16428 6.3279 24.99225 14.99023 33.91407 8.66235 8.92182 19.79941 15.78212 32.74414 21.41992 25.88949 11.27561 59.41073 17.57812 96.35938 17.57812 36.94918 0 70.33251-6.30321 96.08789-17.59765 12.87769-5.64723 23.95012-12.52307 32.54688-21.45899 8.59674-8.93591 14.83593-20.75289 14.83593-33.85547 0-16.68318-10.00865-31.01543-23.29492-40.74609z" fill="#6a1f7a"/><path d="m375.78374 361.32774c0 30.3304-55.80793 54.9133-125.47191 54.9133-69.66315 0-126.09373-24.58124-126.09373-54.9133 0-9.69963 5.77855-18.79883 16.15375-26.4456 60.58542 60.69903 158.80538 61.01046 219.47989.2209 10.27535 7.52551 15.932 16.57821 15.932 26.22469z" fill="#eed9f2" stroke-width="36"/><g opacity=".9"><path d="m250.10352 68.708984c-40.20108-.000469-80.53138 15.447799-111.13672 46.103516-61.211584 61.31424-61.511194 161.4691-.25977 222.82227 61.25208 61.35478 161.32323 61.05181 222.5332-.26172 61.21076-61.3127 61.21129-161.2475 0-222.56055-30.60549-30.656808-70.93621-46.103047-111.13671-46.103516z" fill="#6a1f7a"/><path d="m151.70451 127.52952c-54.336369 54.4275-54.595037 142.96143-.25945 197.38727 54.33637 54.42748 142.7221 54.16673 197.05683-.25993 54.33633-54.42582 54.33633-142.69984 0-197.1265-27.16821-27.21376-62.78285-40.821459-98.39871-40.821874-35.61587-.000416-71.23047 13.608114-98.39867 40.821034z" fill="#aa40bf" stroke-width="36"/><circle cx="66.145836" cy="39.542774" fill="#eed9f2" filter="url(#a)" r="39.542774" stroke-width=".256968" transform="matrix(3.1334422 0 0 3.1386969 42.774207 102.04494)"/><g fill="#fff"><path d="m64.75637 40.032365a30.644657 19.640671 45 0 1 7.78099 35.557096 30.644657 19.640671 45 0 1 -35.55709-7.780994 30.644657 19.640671 45 0 1 -7.781-35.557095 30.644657 19.640671 45 0 1 35.5571 7.780993z" filter="url(#b)" opacity=".8" transform="matrix(3.1334422 0 0 3.1386969 42.774207 102.04494)"/><path d="m95.61188 9.4458012a15.608357 10.637955 45 0 1 3.5146 18.5589498 15.608357 10.637955 45 0 1 -18.55894-3.51461 15.608357 10.637955 45 0 1 -3.51461-18.5589424 15.608357 10.637955 45 0 1 18.55895 3.5146026z" filter="url(#c)" opacity=".8" transform="matrix(3.1334422 0 0 3.1386969 42.774207 102.04494)"/></g></g><path d="m250.10352 68.708984c-40.20104-.000469-80.53141 15.44783-111.13672 46.103516-61.211526 61.31418-61.511131 161.46916-.25977 222.82227 61.25202 61.35471 161.3233 61.05175 222.5332-.26172 61.2107-61.31264 61.21123-161.24756 0-222.56055-30.60546-30.656777-70.93625-46.103047-111.13671-46.103516zm0 18c35.61582.000415 71.23025 13.608536 98.39843 40.822266 54.33628 54.42661 54.33628 142.69923 0 197.125-54.33467 54.42661-142.72032 54.68719-197.05664.25977-54.33553-54.42579-54.076547-142.95928.25977-197.38672 27.16817-27.2129 62.7826-40.820732 98.39844-40.820316z" fill="#6a1f7a"/></g><g><path d="m281.85937 107.17969c.091.0699-.26228.26738-.88867.4375.041-.0308.14042-.14312.17969-.17188.37309-.27321.63516-.32232.70898-.26562z" fill="#6a1f7a"/><path d="m242.96484 225.00391c3.58127 58.81437 2.69491 129.04382-10.04882 167.48632l-3.84961 11.61329 9.3789 7.85351c33.94552 28.4225 72.14725 28.10636 103.85938 15.58789 30.37005-11.98868 57.87034-32.3514 85.56054-47.63086l20.042-6.36147-9.042-20.25376c-22.26713-40.84877-23.61432-90.64914-31.71484-129.15039-.48929-39.59765-15.79794-79.17367-45.91016-109.33594-20.54765-22.453823-41.56576-32.387203-78.41992-42.671875-10.18272-2.84163-59.87859 8.701892-52.79321 12.374392z" fill="#6a1f7a"/><path d="m423.06163 361.91392c-25.29113-46.39624-26.15248-100.29253-33.80774-135.55872.0665-35.76211-13.51751-71.54508-40.752-98.82484-19.75553-19.78865-43.97715-32.383014-69.4178-37.782624-9.54585-2.026045-29.0603 25.788854-29.0603 25.788854s29.09274 194.78883-.0229 282.61849c58.97353 49.3784 111.85728-3.5728 173.06071-36.24116z" fill="#eed9f2" stroke-width="36.0001"/><g fill="#6a1f7a"><path d="m535.2092 276.76285c-.19434 23.37191-2.63238 42.74721-6.87931 59.60704-7.35987 1.69433-13.1255.93614-12.41415-9.76862 6.34789-14.15143 12.6456-30.34351 19.29346-49.83842z" filter="url(#f)" opacity=".25" transform="matrix(-.99537779 -.09603671 -.09603671 .99537779 942.31084 101.54895)"/><path d="m535.2092 276.76285c-.19434 23.37191-2.63238 42.74721-6.87931 59.60704-7.35987 1.69433-13.1255.93614-12.41415-9.76862 6.34789-14.15143 12.6456-30.34351 19.29346-49.83842z" filter="url(#f)" opacity=".25" transform="matrix(.99537779 -.09603671 .09603671 .99537779 -248.359425 -67.348206)"/><path d="m165.49023 286.9707-2.23632 6.97852c29.47841 55.59578 58.45691 105.10602 92.04882 157.33789l15.79102-15.93164c39.76513-40.12114 77.56274-77.16541 93.23828-106.13281l6.88086-12.71485-10.93164-9.46094c-29.50057-25.53259-41.19369-62.99532-53.96747-98.04607-13.81768-37.91513-14.32809-79.415-23.55101-118.75065-2.00477-7.927661-3.99636-15.731025-9.83308-20.623197-6.85471-5.745418-16.924-6.912785-25.86524-7.138672-8.01871-.202581-16.64917 1.034503-23.49023 5.222656-5.02522 3.076477-11.26367 13.623047-11.26367 13.623047s-9.46957 51.428916-15.11735 76.952706c-9.54445 43.13388-20.64589 94.19648-31.70297 128.68401z"/></g><path d="m262.81197 84.515017c-9.81636-6.671605-21.10938-4.483185-32.78487 0-12.14245 67.629243-24.82271 137.544023-47.39624 207.951893 11.84321 23.72852 20.73341 36.30281 30.95333 54.537 5.53412 9.87387 10.73549 19.93569 16.44291 29.7104 2.42966 4.16111 5.04959 8.20816 7.57432 12.31228 4.10848 6.67862 8.21638 13.3576 12.32521 20.03601 2.79365 4.54075 4.99239 8.35225 8.38182 13.62171 39.70018-40.05561 77.78472-79.09743 90.1935-102.02806-69.23351-59.92126-65.6808-159.01612-85.68998-236.141233z" fill="#eed9f2" stroke-width="36.0001"/><path d="m230.0271 376.71431c-19.1873-8.96626-23.4711-22.63497-16.44291-29.7104 21.35398-39.72996 58.00949-144.57417 35.12345-215.48892 35.57838 69.56802 23.78377 180.80759-18.68054 245.19932z" fill="#6a1f7a" filter="url(#e)" opacity=".25"/><path d="m249.92663 409.0626c-4.54822-2.68146-10.20861-.28132-12.32521-20.03601 28.28962-36.03018 46.26299-64.72764 67.99116-128.44567-.61488 73.94596-23.62543 107.95899-55.66595 148.48168z" fill="#6a1f7a" filter="url(#d)" opacity=".25"/></g></g></svg>