<svg height="500" viewBox="0 0 500 500" width="500" xmlns="http://www.w3.org/2000/svg" xmlns:xlink="http://www.w3.org/1999/xlink"><filter id="a" color-interpolation-filters="sRGB" height="1.020259" width="1.029435" x="-.014718" y="-.01013"><feGaussianBlur stdDeviation="2.170466"/></filter><filter id="b" color-interpolation-filters="sRGB" height="1.126619" width="1.183971" x="-.091985" y="-.06331"><feGaussianBlur stdDeviation="13.565412"/></filter><clipPath id="c"><path d="m250 0a250 249.90628 0 0 0 -15.9023 1.13629l-.027-.43928a249.99917 250.09288 0 0 0 -7.7715.99766 250 249.90628 0 0 0 -19.4609 2.49907 249.99917 250.09288 0 0 0 -4.4453.57009l.074.38072a250 249.90628 0 0 0 -40.8457 11.66945l-.1582-.41781a249.99917 250.09288 0 0 0 -11.0684 4.60374 250 249.90628 0 0 0 -31.7968 16.62073l-.045-.0723a249.99917 250.09288 0 0 0 -.7324.49786 250 249.90628 0 0 0 -8.6992 5.90599 249.99917 250.09288 0 0 0 -17.2051 12.87408 250 249.90628 0 0 0 -7.5195 6.10122 249.99917 250.09288 0 0 0 -.022.0176v.002a250 249.90628 0 0 0 -11.295 11.29069l-.3261-.32409a249.99917 250.09288 0 0 0 -4.5235 5.17188 250 249.90628 0 0 0 -12.5371 14.33448 249.99917 250.09288 0 0 0 -3.9668 4.53541l.3613.27918a250 249.90628 0 0 0 -22.9043 35.78541l-.414-.21867a249.99917 250.09288 0 0 0 -4.3145 8.87559 250 249.90628 0 0 0 -2.5449 5.23436 249.99917 250.09288 0 0 0 -.1406.2909l.027.0117a250 249.90628 0 0 0 -11.166 29.93019l-.01-.002a249.99917 250.09288 0 0 0 -.014.0527 250 249.90628 0 0 0 -1.375 5.39056 249.99917 250.09288 0 0 0 -5.7305 26.33582 250 249.90628 0 0 0 -1.1348 6.82361 249.99917 250.09288 0 0 0 -.5117 3.07893l.2891.0352a250 249.90628 0 0 0 -1.1426 15.95105l-.5859-.0352a249.99917 250.09288 0 0 0 -.4043 13.87566 250 249.90628 0 0 0 -.01.25582 250 249.90628 0 0 0 .01.10738 249.99917 250.09288 0 0 0 -.01.26553 249.99917 250.09288 0 0 0 .6113 17.46611l.6621-.0449a250 249.90628 0 0 0 6.5332 41.94716l-.623.15229a249.99917 250.09288 0 0 0 4.2871 15.36728l.418-.13081a250 249.90628 0 0 0 11.3086 29.79157l-.252.11519a249.99917 250.09288 0 0 0 21.0156 36.97832l.5938-.4061a250 249.90628 0 0 0 9.5508 12.75499l-.6778.53104a249.99917 250.09288 0 0 0 6.6133 7.39372 250 249.90628 0 0 0 2.8965 3.23901 249.99917 250.09288 0 0 0 11.7695 13.15914l.6914-.70287a250 249.90628 0 0 0 32.4961 27.05236l-.5136.74191a249.99917 250.09288 0 0 0 13.3769 8.67643l.4492-.74582a250 249.90628 0 0 0 28.0879 14.78743l-.289.65405a249.99917 250.09288 0 0 0 40.1347 13.7917l.2578-1.0211a250 249.90628 0 0 0 15.5196 3.37569l-.1914 1.03477a249.99917 250.09288 0 0 0 31.6381 3.76224l.064-1.15775a250 249.90628 0 0 0 13.5708.97032 250 249.90628 0 0 0 28.6992-2.05196l.1113.9469a249.99917 250.09288 0 0 0 15.7833-2.34482l-.1856-1.01329a250 249.90628 0 0 0 30.8184-7.44642l.2539.79657a249.99917 250.09288 0 0 0 39.205-16.19315l-.4785-.92933a250 249.90628 0 0 0 13.9473-7.61239l.4629.7712a249.99917 250.09288 0 0 0 26.2109-18.09868l-.6015-.76338a250 249.90628 0 0 0 31.1406-28.74508l.4766.42757a249.99917 250.09288 0 0 0 10.2714-12.17903l-.6601-.51933a250 249.90628 0 0 0 18.2597-26.06836l.5528.32996a249.99917 250.09288 0 0 0 13.0293-25.19563 250 249.90628 0 0 0 .2363-.53691 249.99917 250.09288 0 0 0 5.459-12.44455l-.7129-.27724a250 249.90628 0 0 0 5.5723-14.93385l.4531.14252a249.99917 250.09288 0 0 0 1.0039-4.04731 250 249.90628 0 0 0 1.9219-7.751 249.99917 250.09288 0 0 0 4.7578-19.18226l-.5606-.10153a250 249.90628 0 0 0 4.3887-42.31616l.1719.002a249.99917 250.09288 0 0 0 .012-2.1984 249.99917 250.09288 0 0 0 0-.369 249.99917 250.09288 0 0 0 0-.004 250 249.90628 0 0 0 0-.0137 249.99917 250.09288 0 0 0 -.2812-11.44884 249.99917 250.09288 0 0 0 0-.002 250 249.90628 0 0 0 -.082-1.64196 249.99917 250.09288 0 0 0 0-.0137 249.99917 250.09288 0 0 0 -.018-.31433h-.01a250 249.90628 0 0 0 -249.6091-236.4717z"/></clipPath><g transform="translate(-1000 -500)"><circle cx="1250" cy="750" fill="#8f29a3" r="250"/><path d="m1250.0521 500.09326-.061 248.75004-15.9199-248.2399a249.99917 250.18666 0 0 0 -31.6776 4.06945l45.0428 231.17052c-.102.0363-.2268.0547-.3789.0547l2.377 12.94521-.25-.53361-.5352-1.34279-3.3574-10.61339c-.1814.0698-.3456.12506-.5117.12506l-.1211.0782-83.1951-220.24831a249.99917 250.18666 0 0 0 -14.7401 6.13348l96.9 214.60543-.2187.11532 2.3047 4.43886 2.3437 5.21678.055.0488.416.7486.7461 1.26658v.0314l-.7461-1.29782-.4707-.79746-5.5273-9.21c-.1841.12151-.3808.23754-.5664.39678l-123.4077-200.53639a249.99917 250.18666 0 0 0 -34.1776 25.40763l164.5483 186.40079-.3984-.58052.832 1.02616v.0508l-.3262-.32448-.094-.12903v-.006-.002l-176.1809-175.46484a249.99917 250.18666 0 0 0 -21.0273 24.05115l186.5306 143.42536-.1425.18569 10.4687 8.26398-2.0957-1.07698-9.4082-5.66242c-.1395.18156-.2273.33335-.3066.47301l-208.0031-109.74966a249.99917 250.18666 0 0 0 -7 14.40723l214.5266 96.34337c-.074.17741-.1655.3791-.2578.59419l12.1758 4.73596-.037-.0253.5254.23653-.4863-.21109.3574.18179.2129.0802-.2129-.0508v-.0295l-12.8066-4.08117c-.056.14944-.1255.33501-.1758.5082l-224.9661-68.33223a249.99917 250.18666 0 0 0 -8.7656 41.69908l246.1613 30.77687h-1.2363l-246.3644-14.82161a249.99917 250.18666 0 0 0 -.4219 14.51082 249.99917 250.18666 0 0 0 .6113 17.47203l234.4934-16.18786h-.027l.3066-.0234-.2773.0234 12.9687-.73492-7.6699 1.8549-.3028.0508-4.789.9382.07.23845-228.2004 55.91086a249.99917 250.18666 0 0 0 4.2871 15.37279l224.173-70.26921c.093.36314.1859.69573.2793.95971l11.9648-4.46623-6.7285 3.52803-218.2141 100.03556a249.99917 250.18666 0 0 0 21.0155 36.99246l204.0072-139.70972-2.9414 2.38851-191.599 150.2058a249.99917 250.18666 0 0 0 21.2792 23.80097l164.7143-167.43742c.2793.26396.5666.50585.8359.80333l7.6309-8.62753v-.0314l.7578-.86587.1855-.23653.7754-.84633.02-.0645.057-.0272-.023.15832-.1035.11531.051-.18179-.068.18179-1.3203 1.73762.6133-1.0457-.1856.20916-.7578.89715-2.5996 3.67852-4.2753 5.57643.287.1818-133.9214 192.92518a249.99917 250.18666 0 0 0 13.3768 8.68037l121.3629-200.99764c.1115.0698.2562.1641.4043.23263l6.9082-11.76855-.2793.71929-100.1481 226.51466a249.99917 250.18666 0 0 0 40.1346 13.79743l59.6931-236.78211-1.5742 9.22563.2364.0566-42.7675 230.89101a249.99917 250.18666 0 0 0 31.6386 3.76263l12.9316-234.50119c.2415.0238.455.0234.6602.0234h.031v-12.36276l.055-.87175.3809 3.35211.6328 9.85892c.1939 0 .3385-.0234.5058-.0234l27.248 233.23258a249.99917 250.18666 0 0 0 15.7831-2.3455l-42.1484-231.0161c.254-.028.4739-.0916.707-.11531l-2.0644-10.71502-.055-.13878-.3203-1.79235.018.0295.3575 1.90182 74.3923 234.18055a249.99917 250.18666 0 0 0 39.205-16.19959l-111.1503-215.75097 4.1406 6.7179.2696-.18569 120.6715 201.44522a249.99917 250.18666 0 0 0 26.2108-18.10533l-145.5071-184.32505c.254-.18717.4204-.39029.6562-.60397l-8.457-9.554 3.3672 3.03156 5.8437 5.83834.2872-.30686 174.8256 156.82795a249.99917 250.18666 0 0 0 10.2715-12.18293l-184.478-145.35845c.1296-.15783.305-.33279.4082-.48083l-9.3632-7.21437 211.5852 126.78601a249.99917 250.18666 0 0 0 18.7245-38.19257l-229.6555-89.16613 11.0274 3.36579.012-.18569 223.9289 70.91228a249.99917 250.18666 0 0 0 7.6836-30.99187l-231.1887-41.80463c0-.16199.037-.30149.037-.44955l-7.3671-.90693-4.5508-.79941 12.0312.70755c.03-.32965.029-.62841.029-.96361l235.009 1.78454a249.99917 250.18666 0 0 0 .011-2.19892 249.99917 250.18666 0 0 0 -.3809-13.81303l-234.6691 13.37131v-.33226l-11.7754.81114-2.207.14075 2.1641-.14075h.043l242.6422-45.60435a249.99917 250.18666 0 0 0 -11.2772-41.04821l-231.0032 85.65376-.2598.0684 10.5078-4.79069c-.1716-.35894-.395-.80876-.6601-1.20402l208.1651-109.51534a249.99917 250.18666 0 0 0 -7.877-13.90491l-200.7337 122.63837-.2109-.32833-5.6211 3.9033-4.707 2.86542 9.6699-7.59747-.1446-.20719 183.392-147.45376a249.99917 250.18666 0 0 0 -29.3651-30.85701l-161.2514 182.96656-2.3184 2.37091 151.2905-195.53064a249.99917 250.18666 0 0 0 -26.4154-17.96062l-119.2496 202.94829-.094-.0664-7.0644 11.68841 5.539-12.45265c-.2748-.15364-.5655-.24794-.8711-.35962l83.404-220.18189a249.99917 250.18666 0 0 0 -15.121-5.19332l-69.2811 225.07807c-.1088-.0378-.2229-.0651-.3808-.11531l-1.8809 7.53882-1.1289 3.69807 2.1055-11.46558c-.2011-.0197-.4082-.0561-.6133-.0743l40.1268-232.08917a249.99917 250.18666 0 0 0 -42.4354-3.64138zm-1.9453 235.66215 1.0117 8.77021v.043l.8711 4.45646v.46128l.029-.16807.023.62741v.1036l-.057-.1036v-.43977l-.066.30686-.2383-.49451-.5625-4.74964zm-9.3652 5.00568 7.0859 6.37391-.025-.0197zm25.7675 6.02013-11.8261 2.9006h-.057zm-12.1504.11531-1.6269 2.78332-.3496.40069.1113-.44954-.092.20719-.02.18179-.051.10553v-.0253l.051-.0802v-.16221l.02-.0197v-.10556l.012-.0234.082-.12118v-.0234l.033-.0272.061-.1505v.0197l-.061.13096-.033.0508zm-6.5292.23849 3.3242 2.54682.3633.56682-.4493-.16807.2012.13878h-.022l-.2188-.13878h.037zm5.0331.24627-.2968 1.58908.2968-.84047-.3339 1.37603-.1016.1505.1387-.68606.2617-1.56758zm-.582.38505-.086 1.71808-.057.19351-.1172-.46715zm3.1445.7447-2.2754 1.58908h-.023l-.4121.27757-.2871.11728.2129-.27557.074-.0215.8867-.71342zm-4.0429.57856.1348.14075v.0469l-.084-.1251zm3.8633.31665h.029l-.1738.0802zm-3.5254.18179.1835.3577v.0392l-.1835-.35376zm.416.0938.02.26385v.0392l.039.0958.047.11728-.047.0215-.039-.1192.039-.0197-.039-.0605v-.0352l-.057-.26192zm2.2207.0644-.07.0272-1.0156.30686.1562-.0605zm-5.6387.0665 2.3692.40655.3457.21498.029.0606-.3124.0644zm2.1641.31271h.053l.094.0314zm.7265.19155h.02v.0196zm-.164.0606h.02l.074.0802zm.2148.1818h.024l-.024.0314zm-.3359.16808h.057l.2461.0352-.8125.32836zm-.3887.0352h.2168l-.9316.47886.2637-.0527-.025.0272-.2383.0253-2.0253.39287v.0234l-5.2422.93428 5.2422-.95774zm1.7774.0234.5078.043.7519.2228-.8457-.0841zm-.2188.16418.035.0178.1113.22088.3282.16611 1.4394 1.4034-1.3496-1.00858-.2344-.2971-.1855-.26385-.018-.0333-.092-.18766h-.035zm-1.0625.0802-.25.27364h-.029l-2.7812 1.26461 2.2988-1.41316zm1.5703.0997.1485.0253.031.0314zm.2207.0253 1.9356.60398-1.9063-.57074zm-1.1796.17201.031.1251.022-.0978-.022.13092v.006l.076.23066.125 1.89594-.2324-1.35256.031-.77402-.088.50819v-.0919l-.031-.18569.031.14272v-.26385zm.7226.0919.061.0664.088.14661-.037-.0314zm-1.1406.1818-.2442.52578-3.9492 12.85138 3.9219-12.85138h.027l.084-.28732.01-.0117zm-.088.10552-.065.11339.041-.0978zm1.4648.0802.033.0234.1152.18962-.092-.0919zm-.4375.21306.023.0295.029.22669zm-1.7304.26581v.0295l.051-.0295zm2.2929 1.35257 4.8828 10.7893-4.8828-10.73457z" fill="#aa40bf"/></g><path d="m113.91602 32.386983c-25.282906-.36312-44.236019 16.270677-54.761723 33.904297l-.04102.06836-.03906.06836c-16.009946 27.370073-16.819439 61.34859-3.166014 89.53906l.02148.043.02148.043c.418276.852.900098 1.57701 1.33789 2.39453-6.197338 2.43568-12.426413 6.02005-18.152343 11.52149-21.654212 19.30769-28.505706 46.23599-32.7089846 68.42968l-.013672.0742-.013672.0762c-5.96844359 33.05234-5.45669668 65.4051-6.3222564 96.07415l-.078125 2.75391.75 2.65039c1.4338783 5.07315 6.1054545 10.91794 10.910156 13.33399 4.804702 2.41604 8.490507 2.42297 10.873047 2.41601 4.76508-.0139 6.945921.42359 2.416016-.48828l1.757812.35352h13.21875c2.839496 41.60988 5.556762 83.34713 8.34375 125.0664l.179688 2.6836.955078 2.51367c1.851209 4.86769 6.66454 9.93785 11.226562 11.99804 4.562023 2.0602 8.036809 2.05892 10.314453 2.03516 4.55529-.0475 6.464832.36581 2.212891-.47656l1.732422.34375h82.703125l2.53906-.76367c4.92838-1.48418 10.30549-5.84107 12.71485-10.23438s2.67558-7.88876 2.82031-10.16601c.28946-4.5545.86398-6.3591-.33008-2.10352l.49609-1.76953.12891-1.83399c1.98161-28.26448 4.54046-56.83023 6.21289-85.70507l.0684-1.18946-.0879-1.18945c-5.44582-73.07206-10.89377-146.14279-16.33987-219.21484 13.59436-20.96451 17.93767-46.51113 13.13671-70.525397-4.18047-23.246719-17.78807-46.133201-41.28515-57.705079-8.5409-4.418817-16.95985-5.092639-23.75195-5.019531z" fill="#6a1f7a"/><path d="m113.74338 50.376597c-16.718947-.279335-30.997359 11.511605-39.132389 25.14015-12.744297 21.787226-13.466249 49.965983-2.50226 72.603533 3.930669 8.00647 10.071391 15.26455 15.247771 22.04049-12.600868 1.98728-26.431154 3.64303-35.975827 12.96759-16.843636 14.83137-23.256251 37.44182-27.267015 58.61902-5.561308 30.7977-5.16362 62.22157-6.043124 93.38471 1.240549 4.38914 7.044901 1.83005 10.430979 2.51167h28.263077c3.276476 47.19336 6.30681 94.59181 9.464811 141.86488 1.556555 4.09291 7.042366 1.62828 10.426199 2.29867h78.286228c4.20704-1.26695 2.14042-6.83702 3.06445-10.13022 1.99783-28.49578 4.5487-56.98896 6.19928-85.48652-5.60096-75.15414-11.20205-150.30826-16.80334-225.46238 13.51142-17.50413 18.21787-40.76925 13.87894-62.246884-3.29393-18.59673-14.29405-36.534914-31.75636-45.041756-4.85475-2.549046-10.36754-3.145686-15.78142-3.062953z" fill="#eed9f2" stroke-width="36"/><path d="m248.66211 145.23269c-64.95549 1.01724-114.04833 18.14382-176.902344 36.57422l-16.078125 4.71484 3.552734 16.37305c19.482994 89.83215 71.155365 168.73175 152.732425 224.3457l16.75195 11.41992 9.35742-17.98632c51.54907-99.10713 70.64087-169.86803 56.25781-259.72071l-2.29296-14.32422-14.48438-.80468c-10.01321-.55544-19.61517-.73712-28.89453-.5918z" fill="#6a1f7a"/><g fill="#eed9f2"><path d="m76.824597 199.08028c18.558559 85.56977 67.291283 160.11818 145.281613 213.28693 50.82426-97.71363 68.24074-162.44286 54.45413-248.56946-76.81944-4.26121-127.38931 14.06871-199.735743 35.28253z" stroke-width="36"/><g clip-path="url(#c)" stroke-width=".8"><path clip-path="none" d="m263.5968 68.4856 5.0544 89.496 21.0816-31.6016 28.6784-57.8944 30.90323-63.8539944-86.00014-7.8956655zm149.9872.0008 45.06847-44.201777-86.91822-24.284623-16.46894 27.386762-20.16971 41.099238-43.4436 92.0108 39.0248-24.532zm-47.8656 58.2224-62.8432 56.376 55.5736-15.3952 87.7816-33.6616 32.74014-11.42664-32.74014-54.11576-11.396.7456zm-204.9504-57.64.616.0688-.0352-.0064-.48-.0624h-.1zm202.0864 112.9424-56.0664 29.972 78.4656 4.3944 60.976-8.0064 61.30068-11.23379-12.16625-63.70779-49.13403 16.61038zm83.376 41.44-62.3624 8.188-82.292 27.1552 77.3664 27.4544 67.288 8.8344 62.69388 7.93721-4.1223-88.2852zm13.23537 174.35298 55.23906-77.56689-68.47443-10.07409-61.8-8.112-89.9496.2176 83.7176 54.3988zm-170.17617-51.32098 43.4776 49.944 60.0488 57.47539 12.44953 14.72132 26.3355-19.59752 22.63945-41.4351-82.18288-37.32729.044-.096-82.8128-23.6848zm-20.504 31.6024 10.0504 22.1408 35.2904 46.0144 38.25126 47.99451 40.50397-25.00675-23.48163-22.98776-49.3624-40.948-51.252-27.2064zm-18.0952 15.8344-2.5872 52.32 1.04577 64.7455 89.39797-9.01761-43.26454-55.72789-29.3096-38.216-15.2832-14.104z" filter="url(#b)" transform="translate(-.000014)"/><path clip-path="none" d="m263.5968 68.4856 5.0544 89.496 21.0816-31.6016 28.6784-57.8944 30.90323-63.8539944-86.00014-7.8956655zm149.9872.0008 45.06847-44.201777-86.91822-24.284623-16.46894 27.386762-20.16971 41.099238-43.4436 92.0108 39.0248-24.532zm-47.8656 58.2224-62.8432 56.376 55.5736-15.3952 87.7816-33.6616 32.74014-11.42664-32.74014-54.11576-11.396.7456zm-204.9504-57.64.616.0688-.0352-.0064-.48-.0624h-.1zm202.0864 112.9424-56.0664 29.972 78.4656 4.3944 60.976-8.0064 61.30068-11.23379-12.16625-63.70779-49.13403 16.61038zm83.376 41.44-62.3624 8.188-82.292 27.1552 77.3664 27.4544 67.288 8.8344 62.69388 7.93721-4.1223-88.2852zm13.23537 174.35298 55.23906-77.56689-68.47443-10.07409-61.8-8.112-89.9496.2176 83.7176 54.3988zm-170.17617-51.32098 43.4776 49.944 60.0488 57.47539 12.44953 14.72132 26.3355-19.59752 22.63945-41.4351-82.18288-37.32729.044-.096-82.8128-23.6848zm-20.504 31.6024 10.0504 22.1408 35.2904 46.0144 38.25126 47.99451 40.50397-25.00675-23.48163-22.98776-49.3624-40.948-51.252-27.2064zm-18.0952 15.8344-2.5872 52.32 1.04577 64.7455 89.39797-9.01761-43.26454-55.72789-29.3096-38.216-15.2832-14.104z" filter="url(#a)" opacity=".75" transform="translate(-.000014)"/></g></g></svg>