<svg height="500" viewBox="0 0 500 500" width="500" xmlns="http://www.w3.org/2000/svg" xmlns:xlink="http://www.w3.org/1999/xlink"><filter id="a" color-interpolation-filters="sRGB" height="1.436083" width="1.596082" x="-.298041" y="-.218042"><feGaussianBlur stdDeviation="2.5380188"/></filter><filter id="b" color-interpolation-filters="sRGB" height="1.648971" width="1.357562" x="-.178781" y="-.324486"><feGaussianBlur stdDeviation="2.5380188"/></filter><filter id="c" color-interpolation-filters="sRGB" height="1.098704" width="1.028223" x="-.014112" y="-.049352"><feGaussianBlur stdDeviation="1.8858095"/></filter><filter id="d" color-interpolation-filters="sRGB" height="1.126236" width="1.022021" x="-.01101" y="-.063118"><feGaussianBlur stdDeviation="1.9437805"/></filter><g transform="translate(-1000 -500)"><circle cx="1250" cy="750" fill="#8f29a3" r="250"/><path d="m1250.0521 500.09326-.061 248.75004-15.9199-248.2399a249.99917 250.18666 0 0 0 -31.6776 4.06945l45.0428 231.17052c-.102.0363-.2268.0547-.3789.0547l2.377 12.94521-.25-.53361-.5352-1.34279-3.3574-10.61339c-.1814.0698-.3456.12506-.5117.12506l-.1211.0782-83.1951-220.24831a249.99917 250.18666 0 0 0 -14.7401 6.13348l96.9 214.60543-.2187.11532 2.3047 4.43886 2.3437 5.21678.055.0488.416.7486.7461 1.26658v.0314l-.7461-1.29782-.4707-.79746-5.5273-9.21c-.1841.12151-.3808.23754-.5664.39678l-123.4077-200.53639a249.99917 250.18666 0 0 0 -34.1776 25.40763l164.5483 186.40079-.3984-.58052.832 1.02616v.0508l-.3262-.32448-.094-.12903v-.006-.002l-176.1809-175.46484a249.99917 250.18666 0 0 0 -21.0273 24.05115l186.5306 143.42536-.1425.18569 10.4687 8.26398-2.0957-1.07698-9.4082-5.66242c-.1395.18156-.2273.33335-.3066.47301l-208.0031-109.74966a249.99917 250.18666 0 0 0 -7 14.40723l214.5266 96.34337c-.074.17741-.1655.3791-.2578.59419l12.1758 4.73596-.037-.0253.5254.23653-.4863-.21109.3574.18179.2129.0802-.2129-.0508v-.0295l-12.8066-4.08117c-.056.14944-.1255.33501-.1758.5082l-224.9661-68.33223a249.99917 250.18666 0 0 0 -8.7656 41.69908l246.1613 30.77687h-1.2363l-246.3644-14.82161a249.99917 250.18666 0 0 0 -.4219 14.51082 249.99917 250.18666 0 0 0 .6113 17.47203l234.4934-16.18786h-.027l.3066-.0234-.2773.0234 12.9687-.73492-7.6699 1.8549-.3028.0508-4.789.9382.07.23845-228.2004 55.91086a249.99917 250.18666 0 0 0 4.2871 15.37279l224.173-70.26921c.093.36314.1859.69573.2793.95971l11.9648-4.46623-6.7285 3.52803-218.2141 100.03556a249.99917 250.18666 0 0 0 21.0155 36.99246l204.0072-139.70972-2.9414 2.38851-191.599 150.2058a249.99917 250.18666 0 0 0 21.2792 23.80097l164.7143-167.43742c.2793.26396.5666.50585.8359.80333l7.6309-8.62753v-.0314l.7578-.86587.1855-.23653.7754-.84633.02-.0645.057-.0272-.023.15832-.1035.11531.051-.18179-.068.18179-1.3203 1.73762.6133-1.0457-.1856.20916-.7578.89715-2.5996 3.67852-4.2753 5.57643.287.1818-133.9214 192.92518a249.99917 250.18666 0 0 0 13.3768 8.68037l121.3629-200.99764c.1115.0698.2562.1641.4043.23263l6.9082-11.76855-.2793.71929-100.1481 226.51466a249.99917 250.18666 0 0 0 40.1346 13.79743l59.6931-236.78211-1.5742 9.22563.2364.0566-42.7675 230.89101a249.99917 250.18666 0 0 0 31.6386 3.76263l12.9316-234.50119c.2415.0238.455.0234.6602.0234h.031v-12.36276l.055-.87175.3809 3.35211.6328 9.85892c.1939 0 .3385-.0234.5058-.0234l27.248 233.23258a249.99917 250.18666 0 0 0 15.7831-2.3455l-42.1484-231.0161c.254-.028.4739-.0916.707-.11531l-2.0644-10.71502-.055-.13878-.3203-1.79235.018.0295.3575 1.90182 74.3923 234.18055a249.99917 250.18666 0 0 0 39.205-16.19959l-111.1503-215.75097 4.1406 6.7179.2696-.18569 120.6715 201.44522a249.99917 250.18666 0 0 0 26.2108-18.10533l-145.5071-184.32505c.254-.18717.4204-.39029.6562-.60397l-8.457-9.554 3.3672 3.03156 5.8437 5.83834.2872-.30686 174.8256 156.82795a249.99917 250.18666 0 0 0 10.2715-12.18293l-184.478-145.35845c.1296-.15783.305-.33279.4082-.48083l-9.3632-7.21437 211.5852 126.78601a249.99917 250.18666 0 0 0 18.7245-38.19257l-229.6555-89.16613 11.0274 3.36579.012-.18569 223.9289 70.91228a249.99917 250.18666 0 0 0 7.6836-30.99187l-231.1887-41.80463c0-.16199.037-.30149.037-.44955l-7.3671-.90693-4.5508-.79941 12.0312.70755c.03-.32965.029-.62841.029-.96361l235.009 1.78454a249.99917 250.18666 0 0 0 .011-2.19892 249.99917 250.18666 0 0 0 -.3809-13.81303l-234.6691 13.37131v-.33226l-11.7754.81114-2.207.14075 2.1641-.14075h.043l242.6422-45.60435a249.99917 250.18666 0 0 0 -11.2772-41.04821l-231.0032 85.65376-.2598.0684 10.5078-4.79069c-.1716-.35894-.395-.80876-.6601-1.20402l208.1651-109.51534a249.99917 250.18666 0 0 0 -7.877-13.90491l-200.7337 122.63837-.2109-.32833-5.6211 3.9033-4.707 2.86542 9.6699-7.59747-.1446-.20719 183.392-147.45376a249.99917 250.18666 0 0 0 -29.3651-30.85701l-161.2514 182.96656-2.3184 2.37091 151.2905-195.53064a249.99917 250.18666 0 0 0 -26.4154-17.96062l-119.2496 202.94829-.094-.0664-7.0644 11.68841 5.539-12.45265c-.2748-.15364-.5655-.24794-.8711-.35962l83.404-220.18189a249.99917 250.18666 0 0 0 -15.121-5.19332l-69.2811 225.07807c-.1088-.0378-.2229-.0651-.3808-.11531l-1.8809 7.53882-1.1289 3.69807 2.1055-11.46558c-.2011-.0197-.4082-.0561-.6133-.0743l40.1268-232.08917a249.99917 250.18666 0 0 0 -42.4354-3.64138zm-1.9453 235.66215 1.0117 8.77021v.043l.8711 4.45646v.46128l.029-.16807.023.62741v.1036l-.057-.1036v-.43977l-.066.30686-.2383-.49451-.5625-4.74964zm-9.3652 5.00568 7.0859 6.37391-.025-.0197zm25.7675 6.02013-11.8261 2.9006h-.057zm-12.1504.11531-1.6269 2.78332-.3496.40069.1113-.44954-.092.20719-.02.18179-.051.10553v-.0253l.051-.0802v-.16221l.02-.0197v-.10556l.012-.0234.082-.12118v-.0234l.033-.0272.061-.1505v.0197l-.061.13096-.033.0508zm-6.5292.23849 3.3242 2.54682.3633.56682-.4493-.16807.2012.13878h-.022l-.2188-.13878h.037zm5.0331.24627-.2968 1.58908.2968-.84047-.3339 1.37603-.1016.1505.1387-.68606.2617-1.56758zm-.582.38505-.086 1.71808-.057.19351-.1172-.46715zm3.1445.7447-2.2754 1.58908h-.023l-.4121.27757-.2871.11728.2129-.27557.074-.0215.8867-.71342zm-4.0429.57856.1348.14075v.0469l-.084-.1251zm3.8633.31665h.029l-.1738.0802zm-3.5254.18179.1835.3577v.0392l-.1835-.35376zm.416.0938.02.26385v.0392l.039.0958.047.11728-.047.0215-.039-.1192.039-.0197-.039-.0605v-.0352l-.057-.26192zm2.2207.0644-.07.0272-1.0156.30686.1562-.0605zm-5.6387.0665 2.3692.40655.3457.21498.029.0606-.3124.0644zm2.1641.31271h.053l.094.0314zm.7265.19155h.02v.0196zm-.164.0606h.02l.074.0802zm.2148.1818h.024l-.024.0314zm-.3359.16808h.057l.2461.0352-.8125.32836zm-.3887.0352h.2168l-.9316.47886.2637-.0527-.025.0272-.2383.0253-2.0253.39287v.0234l-5.2422.93428 5.2422-.95774zm1.7774.0234.5078.043.7519.2228-.8457-.0841zm-.2188.16418.035.0178.1113.22088.3282.16611 1.4394 1.4034-1.3496-1.00858-.2344-.2971-.1855-.26385-.018-.0333-.092-.18766h-.035zm-1.0625.0802-.25.27364h-.029l-2.7812 1.26461 2.2988-1.41316zm1.5703.0997.1485.0253.031.0314zm.2207.0253 1.9356.60398-1.9063-.57074zm-1.1796.17201.031.1251.022-.0978-.022.13092v.006l.076.23066.125 1.89594-.2324-1.35256.031-.77402-.088.50819v-.0919l-.031-.18569.031.14272v-.26385zm.7226.0919.061.0664.088.14661-.037-.0314zm-1.1406.1818-.2442.52578-3.9492 12.85138 3.9219-12.85138h.027l.084-.28732.01-.0117zm-.088.10552-.065.11339.041-.0978zm1.4648.0802.033.0234.1152.18962-.092-.0919zm-.4375.21306.023.0295.029.22669zm-1.7304.26581v.0295l.051-.0295zm2.2929 1.35257 4.8828 10.7893-4.8828-10.73457z" fill="#aa40bf"/></g><path d="m172.01562.02850879c-3.97002-.08904-7.97127.02989-11.98828.365235l-.0762.0059-.0742.0078c-15.31337 1.40927201-30.07081 6.69863001-44.03711 13.28711021-22.440539-3.8114322-43.816529 1.204462-60.818345 10.404268-18.691854 10.114296-33.035503 24.565941-39.015625 42.501953l-16.00586 48.007815 27.841797-17.669924-7.117187 50.123054 37.40625-35.29883c.03035-.0286.05562-.0495.08594-.0781.497969 2.72347 1.113105 5.44817 1.945313 8.16797l4.191406 13.69922c-7.619176.62375-14.820168 2.81722-20.960937 6.96094l-.04297.0293-.04492.0293c-9.527629 6.51136-16.635413 18.56052-17.427735 31.5293-.91735 13.59964 3.885835 28.42505 14.642579 43.88281l.01367.0215.01563.0215c22.379398 31.9657 56.380442 41.90926 84.562504 46.36914h.006l.008.002c14.20422 2.23581 27.08822 3.24073 36.88281 4.89063l.0859.0156.0879.0137c10.36377 1.64151 14.2845 3.14368 16.24414 5.69921 8.29705 10.97442 17.10571 31.27792 20.47852 51.12696 3.27666 19.82186 1.04598 36.86334-8.64258 45.73242-16.51173 15.10604-25.11241 29.97988-26.43555 44.80664l-.002.0156-.002.0176c-1.19386 13.67527 6.24825 28.14117 16.61329 35.42383 22.71518 15.96011 58.22502 13.03559 88.68945-13.34375l.0273-.0234.0274-.0234c18.96312-16.55074 22.28476-39.92196 24.41406-58.42774 1.11935-9.33569 1.83709-17.07848 3.33203-22.47461 1.17337-4.23539 2.9265-6.09429 3.92383-6.41406l.043-.0137.043-.0137c8.95453-2.92075 19.69309.13928 28.21093 6.7207 8.45141 6.60762 12.50235 14.51656 11.01954 20.95898l.0273-.11718c-4.91977 20.74399-1.48507 38.32562 7.38476 49.66601l.0312.041.0332.041c9.13425 11.53805 23.5914 16.55435 37.2539 16.08594 13.6558-.42313 27.64399-5.68956 38.45118-16.48242 10.81333-10.79901 17.4939-27.40332 16.39648-46.29688v-.002-.004c-2.99834-51.38844-28.89447-77.05407-53.04688-93.0664l-.002-.002-.002-.002c-12.4425-8.24308-24.17492-14.54818-33.6543-22.04687l-.0137-.0117-.0137-.0117c-4.11464-3.24176-7.6373-6.86308-10.72461-10.76953l-6.41992-41.66992c3.50839-9.05356 9.52426-19.18422 17.30664-29.74024l.004-.006.004-.006c15.97642-21.70742 38.97133-45.14517 59.52539-68.89453l.0117-.0156c10.85321-12.47439 15.44449-27.048024 14.12109-39.630866-1.30597-12.749559-8.02605-23.790711-17.56836-31.06836l-.004-.0039-.006-.0039c-8.30523-6.324488-18.91882-9.892227-30.01953-9.212891l-.29297.01758-.29102.0293c-.90909.08545-2.41929.216228-4.35937.572266-12.41754 2.174584-25.34246 10.382862-34.9043 24.263672l-.0176.02344-.0156.02539c-23.9771 35.052784-34.8073 51.901939-52.54102 66.437499.12969-2.8344.25899-5.66951.38867-8.50391l.0371-.79688-.0351-.79882c-2.82334-65.654553-55.64491-113.7598182-115.19532-115.09537121zm-71.23632 107.92774121c8.1075 23.12276 21.93091 43.75023 38.49804 60.75195-9.7195-2.39314-17.24657-6.19746-21.76562-11.12305l-.0508-.0547-.002-.002c-9.22517-10.194-19.650439-16.97611-30.126949-20.76172l6.53906-14.98046c2.23698-5.12546 4.5318-9.62308 6.908209-13.83008z" fill="#6a1f7a"/><path d="m325.22894 261.59677c4.71443 6.879 10.49267 12.57326 16.64312 17.41896 11.13301 8.8068 23.40796 15.33676 34.8795 22.93659 22.80921 15.12184 42.30069 32.45387 45.02314 79.11386 1.68152 28.94968-18.92018 43.18006-37.45247 43.74682-9.27986.32987-17.43766-2.79041-22.56643-9.26888-5.13719-6.56808-8.1276-17.225-4.04903-34.42215 3.53018-15.33766-5.42002-29.77344-17.51645-39.21287-12.18604-9.431-28.87386-14.82299-44.83667-9.61633-8.77521 2.81354-13.61483 10.95216-15.77472 18.74849-2.15989 7.79634-2.80187 16.35397-3.86661 25.22253-2.03988 17.72869-5.25305 35.47727-18.36932 46.92495-25.4123 22.00467-53.39504 21.47099-66.55831 12.22224-6.58164-4.62438-9.76975-10.65249-9.02974-19.12894.74844-8.38684 6.34327-20.03151 20.66044-33.1288 16.39727-15.01035 18.00153-39.29706 14.24095-61.99474-3.85018-22.68927-13.16627-44.86477-23.90015-59.0425-6.49577-8.5195-16.65553-10.81883-27.75883-12.57749-11.02212-1.85668-23.76896-2.82808-37.07332-4.92224-26.51911-4.19672-54.044459-12.36672-72.630337-38.91393-9.09267-13.06644-12.03559-24.17981-11.45794-32.4602.48804-8.27197 4.10454-14.0357 9.62566-17.80893 11.05067-7.45686 31.724868-6.7786 50.693037 14.21848 13.80875 15.15426 37.63433 20.50813 64.41547 19.79881 8.11499-.22038 16.62747-1.0205 25.1706-2.45627-2.27686-1.14194-4.65174-2.36507-7.03504-3.6778-6.01492-4.04487-12.02984-8.08973-18.04476-12.1346-30.72702-23.95967-55.63858-62.02546-57.67357-102.910449-15.217949 12.169515-25.134179 26.887075-33.613309 46.314819-4.43626-14.49847-2.56394-29.201214 3.21614-43.683671-13.951718 7.367947-24.185988 17.740207-34.814038 27.769807 2.61068-18.38801 10.38163-30.924236 22.79168-41.229806-14.85118 2.607232-22.94559 6.893526-35.48586 14.851982 7.75688-23.264991 45.221358-49.765253 85.116267-39.829062 14.41323-7.266695 29.52579-12.863507 43.32749-14.133661 54.17451-4.52256 105.11084 37.289243 107.703 97.566191-.31569 6.89982-.63139 13.79964-.94708 20.69946-1.19646 8.42896-3.27212 17.12134-6.4062 26.09401 46.10802-24.94431 56.65804-41.57457 92.34266-93.742914 7.47705-10.854344 15.6495-15.464362 23.2739-16.768586.95035-.179723 1.90913-.269842 2.84998-.358276 6.61514-.40483 12.93239 1.695211 18.01489 5.565569 5.80369 4.426309 9.82082 11.099667 10.58205 18.621433.79708 7.51841-1.49471 16.4119-9.8085 25.961834-20.00983 23.12401-43.29133 46.73634-60.44546 70.04393-9.38047 12.72367-17.21238 25.57298-21.3368 38.43539z" fill="#eed9f2" stroke-width="36"/><g fill="#6a1f7a"><path d="m239.24841 299.57076c-4.31168 7.64663-4.79126 14.82065-1.12841 16.12399 3.67625 1.30814 10.10542-3.74884 14.41707-11.39549 4.27249-7.57711 4.78124-14.82422 1.10499-16.13234-3.66285-1.30335-10.12117 3.82673-14.39365 11.40384z" filter="url(#a)" opacity=".75"/><path d="m272.24821 213.80602c-9.18107 3.60869-14.68629 9.52272-12.41733 13.25629 2.27725 3.74725 11.46796 3.89766 20.64901.28895 9.0976-3.57588 14.68009-9.53296 12.40283-13.28018-2.26896-3.73358-11.53691-3.84094-20.63451-.26506z" filter="url(#b)" opacity=".75"/><path d="m280.85368 122.40297-25.47766-17.3161-10.32401 13.26434 23.22944 18.24623"/><path d="m186.70549 183.31643-2.71737-27.94835-16.66654 1.56655 1.33915 29.31884z"/><path d="m211.27649 144.66745-15.46962 6.60665 11.71156 27.46455 15.46962-6.60666c-3.84131-9.1306-7.87025-18.33395-11.71156-27.46454z"/><path d="m235.04057 127.24713-12.48904 11.38872 21.15004 23.05191 12.39943-11.38029c-7.04721-7.65411-14.10283-15.39782-21.06043-23.06034z"/><path d="m159.83904 97.524136c-9.76695.91803-16.99221 9.642474-16.07418 19.409424.92645 9.85655 9.64247 16.99221 19.40942 16.07418 9.85655-.92645 17.00063-9.55286 16.07418-19.40942-3.01264-9.93165-7.46668-16.925534-19.40942-16.074184z"/><path d="m197.10556 64.109055c-9.85656.926453-16.99474 9.615584-16.07334 19.418381.92477 9.83863 9.5596 17.072324 19.41615 16.14586 9.76695-.91803 16.99222-9.64246 16.06745-19.4811-.9214-9.80279-9.64331-17.001173-19.41026-16.083141z"/></g><g transform="translate(-6.665488 -8.282303)"><path d="m490.81641 431.7832c-8.11795 8.69893-16.2634 17.37145-24.33203 26.11524-7.1353.20946-14.26342.62675-21.39576.92191-37.58251 1.721-75.16674 3.40594-112.74817 5.1497-43.54144 2.13112-87.08262 4.26902-130.62468 6.38663-22.72996 1.17079-45.45842 2.46204-68.16729 3.98352-16.62164 3.38848-33.24325 6.77712-49.864886 10.16566-1.79362.7474-3.58724 1.49479-5.38086 2.24219 1.962029.56036 3.8933 1.27248 5.874586 1.73784 16.29736 1.6525 32.50259 3.99077 48.83808 5.56469 1.63965.17314 3.27947.35245 4.92762.17896 30.10151-1.35638 60.20489-2.6736 90.30521-4.05464 37.23293-1.84707 74.4643-3.72766 111.6982-5.5537 41.88458-1.86769 83.76816-3.76357 125.65336-5.61364.67779.0272 1.42066-.12786 2.05794.0129 7.28104 6.36543 14.46368 12.8432 21.70543 19.25349 2.00276 1.78096 4.00555 3.56188 6.00793 5.34328 3.00996-10.31444 5.59291-20.82646 6.37673-31.5732.81071-10.62229-.27988-21.48179-4.00394-31.50528-1.34328-3.74984-3.14034-7.31047-4.98802-10.83168-.64648.69206-1.29297 1.38412-1.93945 2.07617z" fill="#eed9f2" filter="url(#d)"/><path d="m225.15212 488.326-89.19684 3.99012c-17.34421-1.56268-34.56593-4.11186-51.871879-5.85043l49.828579-10.15985c31.86349-2.09446 62.71363-3.76464 88.57754-4.95379l114.04369-5.58471 127.42832-5.80448 3.41727-.0855 2.33745-2.53096c7.51562-8.12814 15.06487-16.15685 22.56136-24.19705 11.01532 21.0016 8.89905 42.92274 2.0357 66.85065l-23.44554-20.8505-2.56655-2.21625-3.3909.0913-127.46195 5.70507z" fill="#6a1f7a"/></g><path d="m39.054688 345.70703c-6.145273 8.65149-10.141253 18.76375-11.802891 29.23257-2.136022 13.02451-1.066582 26.32383.904175 39.29744.0997.68726.199404 1.37453.299106 2.06179 10.292533-6.87992 20.432004-13.98589 30.757813-20.81641 48.452399 8.4082 96.970379 16.43204 145.491469 24.43632 28.02143 4.6377 56.0339 9.26746 83.99681 14.19649 17.44117.70662 34.90361.43714 52.34961.95899 1.91667-.32227 3.83333-.64453 5.75-.9668-1.78419-.98966-3.50423-2.11975-5.32857-3.02152-16.01497-5.50576-32.02042-11.04888-48.04134-16.5313-49.39155-8.85936-98.77627-17.75588-148.23083-26.25484-27.35235-4.70067-54.731256-9.24966-82.149259-13.55562-7.412949-10.49347-14.910398-20.92268-22.378906-31.37695-.539063.77995-1.078125 1.55989-1.617187 2.33984z" fill="#eed9f2" filter="url(#c)"/><path d="m288.91271 432.12147c17.40004.70883 34.80706.4236 52.19206.95305l-48.08162-16.56101c-101.23047-18.19229-166.40507-29.77618-231.117892-39.92653-7.238928-10.26375-14.911831-20.92441-21.206904-29.7423-13.655946 19.38864-14.411804 41.39872-10.722271 66.01657 9.627732-6.44981 19.111303-13.1161 28.793943-19.48365 98.567794 17.0845 169.495054 28.03955 230.142684 38.74387z" fill="#6a1f7a"/></svg>