<svg height="500" viewBox="0 0 500 500" width="500" xmlns="http://www.w3.org/2000/svg" xmlns:xlink="http://www.w3.org/1999/xlink"><filter id="a" color-interpolation-filters="sRGB" height="1.10295" width="1.036598" x="-.018299" y="-.051475"><feGaussianBlur stdDeviation="2.5004571"/></filter><filter id="b" color-interpolation-filters="sRGB" height="1.169811" width="1.16988" x="-.08494" y="-.084906"><feGaussianBlur stdDeviation="1.9984989"/></filter><filter id="c" color-interpolation-filters="sRGB" height="1.239533" width="1.238963" x="-.119482" y="-.119766"><feGaussianBlur stdDeviation="1.9984989"/></filter><g transform="translate(.000015)"><circle cx="-249.99998" cy="250" fill="#e51a1a" r="250" transform="scale(-1 1)"/><path d="m181.33938 83.856939c97.52275-31.84694 203.27597 26.159281 217.12696 131.568651 10.04116 85.89723-45.79566 162.6049-131.11288 174.6444-76.26503 6.65-147.16573-45.4981-149.44603-126.3231.16679-50.89801 30.03241-87.97493 76.60677-108.40662 44.00125-16.48183 90.46555-3.00917 112.28155 39.63622 17.95322 40.0953 3.57775 87.31302-40.4313 103.80676-21.98685 8.23292-51.6578-5.55285-56.72562-31.5612 24.48155 21.7253 69.7211 11.74379 80.1808-21.06198 5.24648-24.88185-11.48198-41.52298-24.36368-55.64156-23.21161-15.22125-63.26956-13.16738-85.32502 12.05139-41.51846 46.43224-18.48961 112.52397 35.72777 131.08081 60.66482 17.11352 118.96473-29.63961 126.96137-92.39988 2.7637-54.83226-40.99398-106.19486-96.51046-114.27807-76.21988-10.3001-138.45939 50.84936-147.743191 124.09106-9.31956 73.21828 47.315731 138.67973 111.863041 158.33924 49.05305 9.49897 98.18701 2.07129 139.64056-27.40671 82.90715-58.95602 100.11901-177.97214 43.55644-260.39974-52.71171-79.885311-158.575-103.987181-249.15842-67.061741-86.705021 39.45169-149.0660905 134.549061-117.102931 229.167621 15.77888-74.65377 50.93986-153.5943 123.407351-187.514491 9.28724-4.60517 19.44718-8.7232 30.56692-12.33106zm-160.722321 286.075591c-52.57825-113.8254-.38403-260.89182 113.777041-317.643861 10.84604-5.32012 22.21219-9.7712 34.03518-13.36069 115.76394-28.75816 246.03978 34.00351 263.68455 158.897471 10.04526 85.91695-27.72044 168.80365-107.97396 206.83173-102.24035 46.26108-224.798841-11.43986-234.690511-131.24969-7.33455-123.78718 127.307171-194.136761 222.718561-137.24102-42.54074-27.89653-94.21826-33.44528-140.80825-12.98978-71.17376 32.62266-105.080851 118.0397-80.762351 190.63139 30.697281 88.13423 123.572931 132.04164 212.817841 105.59803 82.80488-25.06359 132.16266-100.33164 140.19255-180.04986 12.12434-145.020371-132.23823-245.3588802-265.59709-221.973611 7.92036-4.10499 20.5989-8.4277792 35.61563-11.7452592 60.06317-13.23825 124.63426-3.45807 179.45368 32.4903392 109.65077 71.904621 141.09454 217.803071 65.16008 333.599141-143.00482 218.07486-377.311781 117.06797-437.622951-1.79433" fill="#b21a1a"/></g><path d="m167.5909 198.47192c-16.84927.002-32.12441 9.21775-42.33369 22.56085-8.89108 11.61724-14.5031 26.42327-15.98047 42.84961-1.97766 9.81609.42821 19.13981 2.0504 28.83127 2.51038 11.29518 7.21486 21.96927 15.67718 33.02812s23.73673 20.27543 40.58693 20.27543c16.85019 0 32.13998-9.19997 40.48028-20.09869 8.3403-10.89871 12.90915-21.08086 15.58031-32.27441 2.7951-9.64802 3.10694-18.72156 2.35938-28.53321-1.28812-16.90368-6.93798-32.1636-16.05579-44.08112-10.22447-13.3583-25.51526-22.55955-42.36453-22.55785z" fill="#861313"/><path d="m219.22776 322.75735c14.06206 9.72065 25.26313 24.93909 29.28711 43.95117 2.93222 13.85383-.63562 25.13671-3.54687 34.51367-2.91126 9.37697-6.29492 16.68165-6.29492 16.68165l-.12305.26757-.13281.26368c-12.86709 25.64384-13.49313 45.07259 6.60547 70.36718l23.2207 29.22266h-201.807216l23.2207-29.22266c20.098596-25.29459 19.472556-44.72334 6.60547-70.36718l-.13281-.26368-.12305-.26757s-3.38366-7.30468-6.29492-16.68165c-2.91125-9.37696-6.47909-20.65984-3.54687-34.51367 4.02398-19.01208 15.225046-34.23052 29.287106-43.95117 16.95659-11.72154 36.17377-12.73674 51.88798-12.74023 15.71421.003 34.93139 1.01869 51.88798 12.74023z" fill="#861313"/><path d="m134.03125 333.11914c-2.94215 1.19887-5.74947 2.65002-8.34375 4.44336-10.83269 7.48829-18.81806 18.24537-21.91406 32.87305-3.09601 14.62767 8.57812 39.92578 8.57812 39.92578 14.99939 29.89347 15.15122 59.7452-8.60156 89.63867h127.17969c-23.75278-29.89347-23.60095-59.7452-8.60157-89.63867 0 0 11.67414-25.29811 8.57813-39.92578-3.09601-14.62768-11.08137-25.38476-21.91406-32.87305-2.48214-1.71582-5.15983-3.11769-7.96289-4.28711-8.64591 7.37907-20.58171 12.74219-33.4375 12.74219-12.89663 0-24.85777-5.40671-33.56055-12.89844z" fill="#ff8066" stroke-width="36"/><path d="m243.56385 209.68897c-.70353.005-1.40437.032-2.10351.084-11.1863.8324-20.3742 6.75325-26.65235 14.25585-12.36178 14.77277-15.3071 39.43053-.18359 57.50196l19.91992 27.43359-25.55078 28.59961c10.83268 7.4883 18.8161 18.24536 21.91211 32.87305 3.09601 14.62767-8.57618 39.92578-8.57618 39.92578-1.8707 3.72828-3.5111 7.45451-4.90234 11.18164 5.70478 1.48805 11.72205 2.04316 17.63086 1.54687l58.9668-58.73827c.3618-.3603.70724-.73722 1.03711-1.12695l35.35937-41.78517c3.56873-4.21865 5.00241-9.84361 3.88867-15.25586-.54926-2.67147-1.69916-5.18336-3.36132-7.34569l-57.19141-74.36915c-.30224-.39303-.61949-.77388-.95312-1.14062-7.75859-8.52647-18.6873-13.71162-29.24024-13.64063z" fill="#861313"/><path d="m202.77406 429.84022 19.57912-19.50272 58.96807-58.73795 35.35796-41.78624-57.18968-74.37054c-21.59217-23.72913-50.53708 12.4061-30.63029 35.05923l29.2141 40.23119-59.10402 59.96729" fill="#ff8066"/><path d="m91.115714 209.68897c.70353.005 1.40437.032 2.10352.084 11.186286.8324 20.374186 6.75325 26.652336 14.25585 12.36178 14.77277 15.3071 39.43053.1836 57.50196l-19.91992 27.43359 25.55078 28.59961c-10.83269 7.4883-18.8161 18.24536-21.91212 32.87305-3.096 14.62766 8.57618 39.92578 8.57618 39.92578 1.8707 3.72828 3.5111 7.45451 4.90234 11.18164-5.70478 1.48805-11.72204 2.04316-17.630856 1.54687l-58.9668-58.73827c-.3618-.3603-.70723-.73722-1.03711-1.12695l-35.3593699-41.78518c-3.56872804-4.21865-5.00240904-9.84361-3.88867104-15.25586.549268-2.67147 1.69916804-5.18336 3.36132704-7.34569l57.1914039-74.36915c.30224-.39303.61949-.77388.95313-1.14062 7.75859-8.52647 18.68729-13.71162 29.24023-13.64063z" fill="#861313"/><path d="m131.9055 429.84021-19.57912-19.50271-58.968066-58.73795-35.35796-41.78624 57.18969-74.37054c21.59216-23.72913 50.537076 12.4061 30.630276 35.05923l-29.214086 40.23119 59.104016 59.96729" fill="#ff8066"/><path d="m463.31055 89.890169c16.61758 9.29231 25.54624 27.898601 29.88086 43.921881 6.73261 30.84096 6.58747 55.86865 6.80859 85.62304l-28.83594-.002c.15484 36.85892-3.43753 73.68316-5.70703 110.46289h-87.6914c-1.74604-36.83358-5.68678-73.57872-6.02735-110.46289h-28.51562c.88736-26.4854-.51699-56.90841 5.53698-80.82743 6.69599-21.8739 12.01326-37.69758 30.97868-48.627751-4.3522-9.59257-6.46289-20.36276-6.46289-31.74414 0-22.53154 10.44284-39.109689 21.54688-49.1249981 9.24187-8.33560904 19.39083-9.05691304 26.65425-9.10727204 7.46321-.05174 16.41574 1.21086804 24.81055 7.71875004 9.72379 7.5381391 19.47938 20.1967661 23.04199 45.7558601.0101 18.46846-2.18733 27.86858-6.01855 36.41406z" fill="#861313"/><path d="m451.0931 48.185029c-2.39645-13.45412-7.87179-20.06584-15.83462-26.238837-3.7873-2.936016-8.93204-3.978621-13.65689-3.945863-5.11306.03545-10.86124.991618-14.72285 4.47461-9.51097 8.578442-15.60256 17.1564-15.60256 35.75831 0 12.60707 4.45556 26.06659 10.35923 33.45764l6.60112 8.25295-10.15581 1.983881c-8.32808 1.62654-14.33837 5.6571-19.29766 11.84108-4.95929 6.186-8.70313 14.66591-11.35307 24.65484-4.83319 18.22432-5.91214 41.1817-6.07334 63.00968h16.06537l-.36529-39.57812 12.14669-.12699.66947 72.29612 4.81499 77.87148h21.38797v-94.3774h12.14668v94.3774h20.31163l4.7734-77.3642-.69092-72.67641 12.14668-.12699.38543 39.70444 16.71729.001c-.16249-21.82866-1.24145-44.78671-6.07399-63.00968-2.64864-9.99028-6.39443-18.46952-11.35307-24.65485-4.95928-6.18465-10.96893-10.21521-19.29637-11.84108l-10.15582-1.985401 6.60112-8.25228c5.46951-6.84797 9.68589-18.9106 10.27801-30.6713z" fill="#ff8066" stroke-width="36"/><g opacity=".75" transform="matrix(-.91794525 .39670709 .39670709 .91794525 475.14996 -27.302324)"><path d="m80.558594 41.263672c-2.382795-.0035-5.067567.964907-6.097656 3.277344-1.049172 2.219531-.148116 4.81164 1.352638 6.588402 2.792328 3.317793 6.331047 5.898402 9.813377 8.440894 3.662762 2.711085 7.600893 5.01257 11.420282 7.490644 29.039955 18.395945 58.091975 36.782644 87.136355 55.175374.30464-11.98435.6066-23.968756.91016-35.953127 38.44903 23.853167 76.89957 47.703897 115.34766 71.558597-1.02341-17.53972-2.04688-35.07943-3.07032-52.61914 24.3515 13.5281 48.70351 27.05531 73.05469 40.58398 7.23085.98832 14.50525 2.10142 21.82422 1.8418 2.89773-.12045 6.08012-.57252 8.23047-2.70899 1.8749-1.98668 1.92111-5.24592.33792-7.41967-1.94891-3.03369-5.02889-5.06143-7.91605-7.10962-7.54837-5.07826-15.70919-9.12707-23.59788-13.62538-33.11062-18.357907-66.22107-36.716137-99.3318-55.073842 1.01457 17.450506 2.0286 34.901043 3.04296 52.351562-35.5392-21.003019-71.07727-42.007951-106.61718-63.009766-.30778 11.978453-.61034 23.95704-.91602 35.935547-22.61909-14.235097-45.23855-28.469626-67.85742-42.705078-5.500665-1.342337-11.032405-2.904958-16.729665-3.023663-.112247.0014-.224494.0028-.336741.0041z" fill="#ff8066" filter="url(#a)" opacity="1"/><path d="m397.06836 113.1875c-8.289.36538-16.28078 4.6288-21.23158 11.28185-.53933 1.01701-.74553 2.21207-1.15618 3.29798-1.49862 4.63606-2.9951 9.27282-4.49505 13.90845.0721 7.8966 3.60354 15.69266 9.55083 20.89855 6.71403 6.02066 16.427 8.45053 25.18635 6.30935 8.42592-1.95129 15.78494-8.0048 19.26398-15.93108 3.31139-7.30222 3.2965-16.02059-.0907-23.2935-3.38288-7.50264-10.21341-13.34576-18.16842-15.47705-2.87637-.7975-5.87779-1.12984-8.85921-.99455z" fill="#b21a1a" filter="url(#b)"/><path d="m78.082031 26.376953c-6.71748.03961-13.280767 3.716427-16.778552 9.459452-3.475655 5.523711-3.969042 12.775644-1.238792 18.707984 2.651825 6.051734 8.488135 10.541606 15.007318 11.589474 6.547763 1.164315 13.563987-1.247621 18.056186-6.141217.657894-.983529 1.003464-2.178936 1.540794-3.244328 1.217149-2.786208 2.524782-5.549743 3.685796-8.350017.675426-6.515898-2.100751-13.257716-7.179761-17.396771-3.636568-3.023728-8.365154-4.689151-13.092989-4.624577z" fill="#b21a1a" filter="url(#c)"/><g fill="#861313"><path d="m91.275249 58.673628 89.088761 56.410312.90492-35.879292 114.73109 71.172862-3.04744-52.182897 78.76459 43.753757c37.50184 5.53017 30.73576-2.52859 5.27431-16.32626l-102.60477-56.887679 3.05946 52.593409-107.22383-63.368375-.92025 36.160842-73.271525-46.113382c-26.110606-6.79738-20.383078-.154931-4.755316 10.666703z" opacity="1"/><path d="m372.20002 141.94837c.23463 11.44267 7.97101 21.81293 19.59296 24.84315 14.0256 3.65694 28.35718-4.7468 32.01343-18.76978 3.65625-14.02299-4.75009-28.35525-18.77308-32.0115-10.59866-2.76342-21.35116 1.37709-27.559 9.61187z"/><path d="m96.376103 48.006925c.713889-8.006901-4.051037-15.783455-12.00333-18.592984-9.411715-3.325139-19.7275 1.582297-23.041058 10.961228-3.313556 9.378932 1.628618 19.677628 11.040918 23.002974 7.000193 2.473154 14.500115.383335 19.248154-4.704515z"/></g></g><g stroke-width="36"><path d="m167.34158 216.47182c-10.5912 0-20.4084 5.5233-28.0404 15.498-6.5403 8.5446-11.1573 20.286-12.348 33.525 10.026-4.4334 20.2257-7.119 30.4317-8.1v16.5645c-9.8685 1.2393-19.8072 4.5072-29.8413 9.927 1.7712 11.2383 6.0327 21.1518 11.7567 28.6326 7.632 9.9738 17.4483 15.498 28.0395 15.498s20.4363-5.5242 28.0692-15.498c5.5503-7.254 9.7047-16.8003 11.5587-27.6192-10.863-6.1488-21.7746-9.8973-32.7654-11.1096v-16.4808c11.4084.9783 22.698 4.0644 33.6096 9.1692-1.0395-13.6422-5.7024-25.7526-12.402-34.5096-7.6338-9.9738-17.478-15.498-28.071-15.498z" fill="#ff8066"/><path d="m206.96768 284.89972c-10.863-6.1488-21.7746-9.8973-32.7654-11.1096v-16.4808c11.4084.9783 22.698 4.0644 33.6096 9.1692.43873 1.71588 3.07793 7.02483-.8442 18.4212zm-80.0145-19.4049c10.026-4.4334 20.2257-7.119 30.4317-8.1v16.5645c-9.8685 1.2393-19.8072 4.5072-29.8413 9.927-2.25272-6.19854-3.69445-12.37024-.5904-18.3915z" fill="#861313"/></g></svg>