<svg height="500" viewBox="0 0 500 500" width="500" xmlns="http://www.w3.org/2000/svg" xmlns:xlink="http://www.w3.org/1999/xlink"><radialGradient id="a" cx="1362.7291" cy="216.11429" gradientTransform="matrix(1.0000001 -.0000059 .0000001 1.0000003 -112.72927 33.893757)" gradientUnits="userSpaceOnUse" r="250"><stop offset="0" stop-color="#ff851a"/><stop offset=".42441937" stop-color="#f87000"/><stop offset=".86367416" stop-color="#f26900"/><stop offset="1" stop-color="#e55f00"/></radialGradient><g transform="translate(-1000)"><path d="m1500 250a250 250 0 0 1 -250 250 250 250 0 0 1 -250-250 250 250 0 0 1 250-250 250 250 0 0 1 250 250z" fill="url(#a)" stroke-linecap="round" stroke-linejoin="round" stroke-width="1.002"/><path d="m1309.2298 33.82789c128.5196 30.706851 207.8974 167.48127 169.5927 291.56949-31.3771 95.69524-112.8693 162.03793-212.5543 174.60263 153.1796-8.09118 266.0956-163.0043 218.7012-309.92978-36.4562-114.666588-154.6038-191.5214848-270.6514-169.822657-18.8526 4.215647-38.4387 10.498641-55.8829 18.694487-112.5353 47.459213-168.47522 196.206-99.9632 307.85319 57.6978 93.63045 168.5136 141.8489 267.9993 100.77239-134.92 68.97589-303.283-51.46877-311.488-201.30723-4.4167-117.68321 76.8182-219.674136 190.654-246.26040176-89.0147 9.18391126-152.6601 79.39239576-187.7408 157.21169176-38.45522 102.70317 5.2337 231.75078 109.038 294.08388 114.5107 66.1048 260.3537 29.37245 323.6836-83.60152 42.2104-77.69758 34.3514-177.62383-23.1776-249.88923-57.5404-72.257811-157.5429-102.460489-246.4118-71.877168-81.7429 30.682061-131.1298 101.133078-134.0478 190.176958.6692 92.68536 61.7912 168.55972 147.5399 198.52472 128.5549 37.82014 266.7725-70.33038 233.6823-209.88949-14.7104-64.39775-57.8855-122.14991-125.7378-141.121386-71.391-15.467036-138.9716 1.205-181.2869 64.641366-18.8995 29.2286-28.9384 85.21395-26.105 97.65297m0 0c13.5324-50.18833 30.6277-97.66354 72.2125-128.94941 53.182-38.308183 124.4576-37.093813 181.7444-.48035 50.1457 36.48017 75.4845 90.37713 72.3557 150.91678-6.6674 64.04407-38.4038 109.83277-91.6401 141.00844-63.9019 34.56125-135.3795 4.83213-189.1258-35.28385-78.8706-65.48566-79.7477-186.67235-8.9744-256.76104 63.7369-55.941605 167.0207-64.891564 238.7167-6.65053 78.8163 58.35315 90.3045 169.04089 40.972 246.62443-35.2274 56.41892-88.4571 87.60135-152.5581 93.63158-81.9488 2.18264-160.666-41.91503-196.8695-120.9383-36.2055-79.02511-22.5771-164.33167 26.8727-227.66064 49.4316-63.30896 138.3491-86.746364 220.4504-67.54202" fill="#c50"/></g><path d="m205.63672 0c-14.67302 1.5138587-28.61023 4.7763589-41.88477 9.3710938-.10852 1.5340092-.16315 3.0244922-.2832 4.5683592 13.44607-5.8007111 27.52157-10.5187933 42.16797-13.939453zm44.36328 0c-29.71554.15786371-59.03039 5.7117327-86.66406 16.107422-.10092 1.247252-.1207 2.426254-.22852 3.679687-.0342 19.657578-9.17959 38.49257-19.1289 63.101563-8.81767 21.809898-17.36208 48.317348-15.29297 80.873048-7.78671 4.17995-15.21557 8.9081-23.03125 12.97851-10.511223 5.47427-22.442906 8.44545-32.058597 15.37305-12.667532 9.1263-32.582031 33.64844-32.582031 33.64844-13.310828 13.74596-20.513794 23.87419-28.222656 37.48242-3.7235713 6.57311-7.1845172 13.29129-10.5136722 20.07422 10.6722042 80.07955 59.1990702 148.16746 127.0527362 185.64258.07105-13.35288.55162-26.57345 1.74023-39.64063.92862-10.20884 3.16788-21.08337 6.04883-30.96093 0 0 15.41956-38.20798 26.5957-55.36133 10.9063-16.73921 25.11014-31.14594 38.93555-45.56836 9.84861-10.2739 21.61671-18.61496 31.25977-29.08203 21.21868-23.03184 34.9156-52.79282 58.15039-73.78907 29.07032-26.26956 99.19531-63.0625 99.19531-63.0625 21.77642-24.10297 42.4377-50.438684 53.9043-82.859371 5.55244-15.699007 8.98674-32.153799 10.80468-48.636719h-101.97461l-2.20312 17.775391c-2.66781 16.010248-19.58658 32.880145-32.97852 46.27539-17.11923 17.123469-38.45986 29.585152-59.14453 42.171879-6.17293 3.75625-19.28906 9.89257-19.28906 9.89257-9.27234-43.35017 5.09237-89.882539 5.11719-89.962886 3.0963-9.001576 5.8689-17.3538475 8.79687-26.01757838-1.43484-.02427349-2.84843-.13476562-4.28906-.13476562z" fill="#994100"/><path d="m205.63672 0c-7.98984.82433519-15.75122 2.190647-23.32813 3.9609375-.05805.934474-.12495 1.8724354-.1875 2.8085937 7.67056-2.6040099 15.49958-4.8973865 23.51563-6.7695312zm166.48828 0-2.54688 20.564453c-3.61809 22.070352-18.18196 40.702616-39.61914 57.617188 0 0-31.85339 30.560209-52.00976 37.900389-17.32264 6.30824-55.17578 3.79883-55.17578 3.79883-10.58291-49.477383 5.60742-99.316407 5.60742-99.316407 2.38259-6.925344 4.48923-13.2987647 6.76953-20.01953112-18.0922 1.17330752-35.93218 4.39932302-53.27148 9.41601562-.25364 3.5289505-.49653 7.0541195-.80469 10.6035155 0 48.48242-43.32536 84.572087-33.28516 153.406247-11.30653 5.87941-22.34347 11.84999-32.83594 18.18164l-61.009761 46.13086c-12.174875 12.57287-21.997522 26.14118-28.636718 41.15625 0 0-7.996351 17.01097-16.3710941 36.78711 16.1193691 58.80021 53.1276241 108.94511 102.6015631 141.92188.24755-10.16409.68533-20.31988 1.60742-30.45703 1.05739-11.62452 3.52753-23.51877 6.69336-34.37305l70.00977-108.54297c7.68844-7.77889 15.88574-15.43096 24.15234-22.79297 30.14088-26.84264 62.31829-51.32584 92.71289-77.88086 24.14279-21.09295 50.37232-40.28753 71.18555-64.67187 19.86513-23.27358 40.09011-47.947316 50.29297-76.794924 4.79994-13.571372 7.87157-28.029313 9.60937-42.634766z" fill="#c50"/><path d="m307.44336 59.310547c-14.03381.34723-26.74834 8.243249-34.85352 20.966797-2.17188-.548457-4.39413-.929494-6.67382-.994141-14.20676-.463904-25.38716 7.887915-33.2793 17.826172-7.91181 9.963025-13.69864 22.674555-17.67578 37.705075l.40234-1.3164c-21.38027 61.37878-1.19922 123.65039-1.19922 123.65039l5.60156 18.19336c-6.59761 4.90012-13.69944 10.71888-21.09374 17.31054-10.78956-5.36206-26.20173-14.31631-40.75-27.64062-18.04834-16.52991-34.3754-39.00601-40.2754-70.05274 10.87965-14.81527 20.15671-14.57614 30.14173-20.98737l-28.41712-16.06927c-11.93167-2.82424-24.274764-1.87971-34.486324 3.35743-10.211562 5.23712-17.540853 14.07115-22.3125 23.82031-9.543296 19.49831-10.987936 43.55304-7.972657 69.76562 6.030559 52.42517 31.389622 114.28557 77.888671 152.39453l.25586.20899.26172.19922c31.46909 23.92075 72.73171 31.63404 112.75976 29.30468 17.70685-1.0304 35.21735-4.12177 51.85157-8.91015l-16.39844 26.44922 45.89258-14.1211s24.65318-7.81045 51.05469-30.96484c26.39484-23.14856 55.97015-62.44363 70.09765-124.57813 2.127-9.14177 3.37637-18.07322 4.24805-26.93359l13.71289 13.60938-1.22656-44.92774c-.86899-31.84566-11.19419-60.17063-28.62696-80.33984-17.33548-20.05667-43.33848-31.84246-70.28711-26.70117-14.36043 2.21709-27.75753 8.87895-38.61914 18.93359l9.33594-26.43164c4.52752-12.818165 5.31612-25.453235-.47656-36.322266-5.79269-10.869031-18.21589-16.668643-28.88086-16.404297zm-7.53711 51.662113 26.41016 28.70703c-10.41893 10.06204-18.43103 23.21997-22.45508 38.59961l-.58789 2.24414c-2.96626-5.78774-5.6916-11.55718-8.03125-17.17188-5.40565-12.97249-9.10656-25.16197-10.99024-34.56445-.83606-4.17326-1.05189-7.82103-1.13086-10.5957l5.10352-3.32422z" fill="#994100"/><path d="m307.88886 77.305186c-8.77388.217087-19.1759 7.028155-23.78896 19.962834l21.16584-7.05527 14.56284 15.82915c6.96483-19.71861-1.35679-28.999026-11.93972-28.736714zm-42.51259 19.962834c-12.66333-.45226-26.05029 15.82917-33.01511 42.1508-18.90454 54.27141-.99498 112.43227-.99498 112.43227l8.68343-25.14575s8.59297 52.46236 49.74879 77.51766c0 0-25.95983-4.07035-47.93975-22.25127-9.49749 5.69849-24.87439 17.81911-39.88949 32.02012-19.80905-8.14071-95.42722-44.32165-103.92974-128.26142l17.18595-10.31157c-69.548816-16.46233-53.991009 150.1509 28.67339 217.8997 53.54779 40.70356 148.52276 29.84928 200.35195-6.33166l-22.43218 36.18094s82.31164-25.32666 108.90462-142.372c5.24625-22.52263 5.96986-43.68848 4.16081-65.75885l12.12062 12.03016c-1.53769-56.35182-37.17592-97.86944-77.87947-89.81919-21.34676 3.16583-41.24627 20.35178-47.84929 45.58799 14.02011-13.29649 24.60303-8.59298 26.77389.1809 2.44222 9.49749-5.06534 23.69852-28.8543 24.69349 1.08543 13.56786 5.6985 28.49249 14.92464 44.14075-50.29151-45.13572-74.89454-124.46243-68.38197-143.81924l9.8593-6.42211c-3.25629-2.80403-6.69348-4.25126-10.22111-4.34172z" fill="#ffa348" stroke-width="36"/><path d="m357.3663 203.82089c7.14574 0 14.11057 3.25628 12.93468 10.04021-.72361 3.799-6.78391 6.06031-13.02513 6.51257-6.24121.45227-12.57287-.99497-13.74876-4.43216-2.71357-7.95981 5.6985-12.12062 13.83921-12.12062z" fill="#994100"/><path d="m335.83864 182.47414c-2.98493 0-5.42714 2.44221-5.42714 5.42714 0 2.98492 2.44221 5.42714 5.42714 5.42714s5.42714-2.44222 5.42714-5.42714c0-2.98493-2.44221-5.42714-5.42714-5.42714z" fill="#ffa348" stroke-width="36"/><path d="m384.77336 170.89624c7.14574-.18091 16.01007 4.16081 24.51259 16.19097 9.04523 12.84423 1.35679 21.43721-14.29148 19.26635-24.78394-3.4372-28.85429-18.99499-22.88444-28.31159 2.62312-4.07036 7.14574-6.96483 12.66333-7.14573z" fill="#994100"/><path d="m383.77839 181.56962c-2.98493 0-5.42715 2.44221-5.42715 5.42713 0 2.98494 2.44222 5.42715 5.42715 5.42715 2.98492 0 5.42714-2.44221 5.42714-5.42715 0-2.98492-2.44222-5.42713-5.42714-5.42713z" fill="#ffa348" stroke-width="36"/></svg>