<svg height="500" viewBox="0 0 500 500" width="500" xmlns="http://www.w3.org/2000/svg" xmlns:xlink="http://www.w3.org/1999/xlink"><radialGradient id="a" cx="1362.7291" cy="216.11429" gradientTransform="matrix(1.0000001 -.0000059 .0000001 1.0000003 -112.72927 33.893757)" gradientUnits="userSpaceOnUse" r="250"><stop offset="0" stop-color="#ff851a"/><stop offset=".42441937" stop-color="#f87000"/><stop offset=".86367416" stop-color="#f26900"/><stop offset="1" stop-color="#e55f00"/></radialGradient><g transform="translate(-1000)"><path d="m1500 250a250 250 0 0 1 -250 250 250 250 0 0 1 -250-250 250 250 0 0 1 250-250 250 250 0 0 1 250 250z" fill="url(#a)" stroke-linecap="round" stroke-linejoin="round" stroke-width="1.002"/><path d="m1309.2298 33.82789c128.5196 30.706851 207.8974 167.48127 169.5927 291.56949-31.3771 95.69524-112.8693 162.03793-212.5543 174.60263 153.1796-8.09118 266.0956-163.0043 218.7012-309.92978-36.4562-114.666588-154.6038-191.5214848-270.6514-169.822657-18.8526 4.215647-38.4387 10.498641-55.8829 18.694487-112.5353 47.459213-168.47522 196.206-99.9632 307.85319 57.6978 93.63045 168.5136 141.8489 267.9993 100.77239-134.92 68.97589-303.283-51.46877-311.488-201.30723-4.4167-117.68321 76.8182-219.674136 190.654-246.26040176-89.0147 9.18391126-152.6601 79.39239576-187.7408 157.21169176-38.45522 102.70317 5.2337 231.75078 109.038 294.08388 114.5107 66.1048 260.3537 29.37245 323.6836-83.60152 42.2104-77.69758 34.3514-177.62383-23.1776-249.88923-57.5404-72.257811-157.5429-102.460489-246.4118-71.877168-81.7429 30.682061-131.1298 101.133078-134.0478 190.176958.6692 92.68536 61.7912 168.55972 147.5399 198.52472 128.5549 37.82014 266.7725-70.33038 233.6823-209.88949-14.7104-64.39775-57.8855-122.14991-125.7378-141.121386-71.391-15.467036-138.9716 1.205-181.2869 64.641366-18.8995 29.2286-28.9384 85.21395-26.105 97.65297m0 0c13.5324-50.18833 30.6277-97.66354 72.2125-128.94941 53.182-38.308183 124.4576-37.093813 181.7444-.48035 50.1457 36.48017 75.4845 90.37713 72.3557 150.91678-6.6674 64.04407-38.4038 109.83277-91.6401 141.00844-63.9019 34.56125-135.3795 4.83213-189.1258-35.28385-78.8706-65.48566-79.7477-186.67235-8.9744-256.76104 63.7369-55.941605 167.0207-64.891564 238.7167-6.65053 78.8163 58.35315 90.3045 169.04089 40.972 246.62443-35.2274 56.41892-88.4571 87.60135-152.5581 93.63158-81.9488 2.18264-160.666-41.91503-196.8695-120.9383-36.2055-79.02511-22.5771-164.33167 26.8727-227.66064 49.4316-63.30896 138.3491-86.746364 220.4504-67.54202" fill="#c50"/></g><path d="m205.63672 0c-68.85383 7.1038527-122.451688 50.773684-159.468751 106.18164a250 250 0 0 0 -25.666016 45.56836c-.858099 1.82411-1.779069 3.62769-2.605469 5.46094-1.685698 4.5021-3.157398 9.0705-4.529296 13.66601a250 250 0 0 0 -5.9160161 20.98047c2.8067371 3.87029 5.7801411 7.51128 8.9355471 10.75781 6.114218 6.29082 11.827884 8.73189 17.142578 10.79102.171782 8.89794 3.878574 20.79503 13.195312 29.79492 4.488952 11.00206 13.163265 18.96004 25.421875 22.76758l.003907.00195h.001953c6.323284 1.96216 14.795734 2.73258 23.044922-.08203 4.656867-1.58893 8.913974-4.22122 12.843754-7.52344 11.26476 11.73438 23.32818 18.76535 35.20898 21.76758l2.625.66407 215.60156-11.01563.61914-.07617c12.44343-1.50375 25.64386-8.12922 34.46289-19.39258 10.3456 6.35715 21.47851 9.55874 32.18164 8.99023 13.66471-.72555 26.24393-6.3338 39.97461-14.5l.55469-.33007.53125-.36914c12.28885-8.55826 21.24497-18.92937 27.60156-29.91797a250 250 0 0 0 -247.40234-214.18555 250 250 0 0 0 -119.70898 31.25c22.77517-14.173791 48.11263-24.8897292 75.3457-31.25z" fill="#994100"/><path d="m205.63672 0c-68.85383 7.1038527-122.451688 50.773684-159.468751 106.18164a250 250 0 0 0 -25.666016 45.56836c-.858099 1.82411-1.779069 3.62769-2.605469 5.46094-1.509824 4.03239-2.80811 8.12963-4.05664 12.24023.402805.45229 1.535156 1.76367 1.535156 1.76367 3.989851 7.06399 8.996777 13.79014 13.919922 18.85547 6.259249 6.44004 24.380859 11.46289 24.380859 11.46289s-8.825179 19.12458 8.470703 31.16992c1.647628 6.80533 7.956594 13.78293 15.339844 16.07618 7.554664 2.34425 15.91517 1.25893 24.775392-10.22071l6.16992-7.99804 6.19336 8c11.60842 14.97554 22.18276 21.37872 33.03516 24.12109l212.27539-10.8457c11.68203-1.41174 21.26086-6.87828 26.45117-19.26367l4.1543-9.87696 8.1289 6.95117c10.64666 9.10778 19.36853 12.19934 29.11524 11.68164 8.86774-.47085 19.26364-4.58274 31.72851-11.99609 16.8483-11.73356 25.33203-26.24241 29.92969-41.96289 0 0 1.01367-2.26571 1.57422-3.5a250 250 0 0 0 -241.01758-183.86914 250 250 0 0 0 -119.70898 31.25c22.77517-14.173791 48.11263-24.8897292 75.3457-31.25z" fill="#ffa348" stroke-width="36"/><path d="m191.06836 45.855469-6.83594 48.748047-10.08203 71.914064-104.064452-31.79492 30.902342 43.20703c27.5014 38.4526 46.36066 77.64481 49.7832 119.50586 3.42106 41.85665-1.88183 69.22104-24.56054 108.125-4.16953 7.15256-3.64743 9.21402-4.89453 14.17578-1.24711 4.96174-2.54231 10.72463-3.82422 16.39844-1.28191 5.67379-2.55297 11.26167-3.62696 15.46484-1.07398 4.20317-3.90527 9.22346-.91796 4.40234l-.95313 1.53907-.18555.50195a250 250 0 0 0 138.19141 41.95703 250 250 0 0 0 29.2207-2.08984c-4.29659.75527-8.58393 1.53913-12.95312 2.08984 42.27323-2.23293 81.4203-15.72294 115.02148-37.08398-4.50037-19.29172-3.38376-43.26817-13.37695-67.53321l.05664.14258c-6.25473-15.56374-11.574-30.86118-13.98437-45.76758-3.63393-22.47298-4.70268-45.37852-1.81055-67.09179 2.15925-16.2109 17.55239-58.31641 17.8789-59.20899 11.33362-24.86047 26.49865-47.62554 42.6543-68.30859l39.09961-50.05664-111.44141 41.36132 18.63672-69.880854-107.59961 65.128904z" fill="#994100"/><path d="m202.05859 97.103516-11.73632 83.710934-.02344.23438-3.03321 35.72851-15.57617-1.33203 2.53321-30.08398-58.59375-17.90235c28.59955 39.98805 49.29758 82.2224 53.08203 128.50977 3.6226 44.32266-2.87669 77.36129-26.94922 118.65625-3.18107 5.45693-10.21119 45.52764-13.51367 50.85742l-.66211 1.79102a250 250 0 0 0 122.41406 32.72656 250 250 0 0 0 29.2207-2.08984c-4.29659.75527-8.58393 1.53913-12.95312 2.08984 35.83798-1.89301 69.42146-11.8932 99.29687-27.89648l-1.25781-2.58008c-6.00573-23.12454-4.8964-47.51349-13.03906-67.28516-6.44367-16.03387-12.29435-32.54884-15.05274-49.60742-3.85058-23.81283-5.06766-48.43083-1.88281-72.3418 2.93209-22.01311 19.10547-63.82422 19.10547-63.82422 12.15207-26.79389 28.25766-50.85481 45.08398-72.39648l-68.86914 25.56055-15.39453 22.11132-12.83398-8.93945 17.19922-24.67187 11.47265-43.01953-71.24609 43.125 23.1543 42.05078-13.69336 7.55468-23.91407-43.46484-2.90234-4.625z" fill="#ffa348" stroke-width="36"/><g stroke-width=".956545" transform="matrix(3.951228 0 0 3.951228 -11.361345 7.866682)"><path d="m87.206727 98.134111c3.65468-1.517074 9.70239-6.840143 9.70239-6.840143l-9.80369-.903515c-4.39417-.925563-9.008431-1.905244-13.087573-3.220993l7.489983-3.083534-7.736479-6.513814-.905889-7.452257c2.939259 1.614943 5.473433 3.518906 7.888408 5.538163l3.74964 3.134691 4.98057-9.343615-2.18539-2.079977c-3.56212-3.387225-7.899107-6.298528-13.206947-8.425842l-2.744018-1.099674-1.840198 2.314588-1.942518 2.443777c-.277892-.08569-.566037-.173083-.869712-.262515l-.99994-.294555-1.018027.234093c-.383249.08877-.740947.183195-1.087271.280088l-3.789434-4.76612-2.744017 1.099159c-5.307881 2.127313-9.644828 5.038632-13.206948 8.425841l-2.18798 2.080493 4.982642 9.343618 3.750159-3.134694c2.522281-2.108978 5.172864-4.093786 8.281149-5.753137l-.661974 7.410919-6.012037 6.383073 5.45238 3.115053c-1.245286.436227-2.55564.892694-3.997172 1.386996-2.81645.959731-5.652289 1.88639-8.132837 2.656168l-9.285703 2.402973s6.207281 4.144192 9.711516 5.286482c2.40769.784854 4.989864.830774 7.531325.997884 4.397049.29708 8.625708-.003 12.442137-1.803524 4.26176 2.052684 9.021543 2.277074 13.746197 1.794704 2.711768-.26441 5.319208-.3471 7.737258-1.350854z" fill="#994100"/><path d="m219.91602 255.11719c-19.1537 7.67649-34.46229 17.97881-47.20899 30.09961l4.99024 9.35937c13.69076-11.44741 29.13483-22.69207 48.96289-30.97461zm55.64062.20117-6.74414 8.48437c19.82801 8.28254 35.2721 19.52914 48.96289 30.97657l4.99023-9.36133c-12.74662-12.12079-28.0554-22.42311-47.20898-30.09961zm-27.82031 13.90625c-4.21509.9764-7.51884 2.05252-10.48633 3.19727l-4.25 47.54101-13.82617 14.67969 26.64062 15.21875 35.00196-14.41016-15.51172-13.06445-6.00196-49.35742c-3.37213-1.27942-6.87914-2.42427-11.5664-3.80469zm7.58789 89.86133-10.31836 4.24218-6.94727-3.97265c-8.09306 2.96279-19.75967 7.07139-33.11328 11.65039-11.26281 3.83818-22.5947 7.54116-32.57617 10.63867 9.10474 1.75079 18.61396 3.09709 27.85352 3.70313 17.93964 1.21204 34.59847-.87456 44.71484-7.54102l3.37305-2.22266 3.37109 2.22266c11.8024 7.81117 30.34942 9.49387 49.43555 7.54102 9.71167-.94269 19.42373-2.82762 28.46093-4.98243-24.61637-5.18502-52.06542-10.77456-74.2539-21.27929z" fill="#ffa348" transform="matrix(.25308588 0 0 .25308588 2.875396 -1.990947)"/></g></svg>