<svg height="500.00003" viewBox="0 0 500 500.00003" width="500" xmlns="http://www.w3.org/2000/svg" xmlns:xlink="http://www.w3.org/1999/xlink"><filter id="a" color-interpolation-filters="sRGB" height="1.166814" width="1.136265" x="-.068133" y="-.083407"><feGaussianBlur stdDeviation="8.1844389"/></filter><filter id="b" color-interpolation-filters="sRGB" height="1.167421" width="1.135425" x="-.067712" y="-.08371"><feGaussianBlur stdDeviation="7.7963001"/></filter><filter id="c" color-interpolation-filters="sRGB" height="1.119819" width="1.075645" x="-.037822" y="-.059909"><feGaussianBlur stdDeviation="2.2771143"/></filter><filter id="d" color-interpolation-filters="sRGB" height="1.096774" width="1.053913" x="-.026956" y="-.048387"><feGaussianBlur stdDeviation="2.2771143"/></filter><g transform="translate(-500)"><path d="m926.7767 73.223311c45.24113 45.241099 73.2233 107.741109 73.2233 176.776699 0 69.0356-27.98221 131.53559-73.2233 176.77669-45.2411 45.2411-107.74109 73.22332-176.77669 73.22332-69.03559 0-131.5356-27.98219-176.7767-73.22332-45.2411-45.2411-73.22331-107.74109-73.22331-176.77669 0-69.03559 27.9822-131.5356 73.22331-176.776699 45.2411-45.241105 107.74111-73.22330934 176.7767-73.22330934 69.0356 0 131.53559 27.98220534 176.77669 73.22330934z" fill="#3b2f4f"/><g transform="translate(500)"><path d="m230.6486 0c-128.19182 22.346591-234.17086 139.43202-223.06447 273.24395 5.6201 44.55936 16.72649 83.63245 44.55937 122.70552l50.17947 50.17947c33.45298 22.34661 72.52606 44.55938 111.46533 50.17946 39.07308 5.62012 78.01235 5.62012 111.46534-5.62008 39.07308-16.72649 72.52607-33.45297 100.35893-61.28587 33.45297-39.07306 55.79958-83.63245 66.90595-139.43201v-61.28587c-5.62008-27.83287-11.10637-50.17947-22.34657-78.01235-11.10641-22.34659-27.8329-44.55937-50.17947-61.285858-27.83289-27.832879-61.28586-44.559368-100.35895-55.799569-27.83288-5.620101-55.79957-11.10639-89.25255-5.620101-78.01235 11.106391-139.43202 61.28586-172.885 128.191818-11.10639 27.83288-16.72649 61.28586-22.34659 89.25255 0 33.45298 5.6201 66.90596 16.72649 94.73885 22.34659 44.55936 55.79957 89.25254 105.97904 111.46532 16.72649 5.62012 33.45298 11.1064 55.79957 16.72648 122.70553 22.34661 234.17085-55.79954 250.89734-178.37127 11.10641-78.01236-22.34657-139.43203-72.52604-189.6115-100.35895-89.25255-267.62385-44.559369-312.18322 78.01235-5.6201 27.83288-16.72649 55.79958-16.72649 83.63245 5.6201 78.01235 55.79957 150.53843 133.81192 172.885 61.28586 16.72649 122.70553 5.62012 172.885-33.45298 11.10639-11.10637 22.34659-22.34657 33.45299-33.45297 61.28584-83.63246 44.55935-195.09778-44.55937-256.51746-27.83288-16.726488-55.79958-22.346588-89.25256-27.832879-22.34659-5.620101-44.55937 5.620101-66.90596 11.106391-27.83288 16.726488-50.17947 22.346588-72.52606 50.179468-27.83288 33.45298-33.45298 66.90596-39.07308 105.97904 0 55.79958 27.83288 117.08544 83.63245 144.91833 78.01235 44.55934 183.99139 11.10637 223.06447-72.52607 22.3466-55.79958 11.1064-128.19183-39.07308-172.88501-33.45298-27.83288-66.90596-39.07308-111.46533-39.07308-66.90596 5.6201-111.46533 55.79957-122.70553 122.70553-11.10639 72.52606 33.45298 139.43202 105.97904 150.53843 100.35894 16.72649 183.99138-89.25257 139.43202-178.37131-11.10638-16.72649-27.83288-39.07308-50.17947-50.17947-27.83288-11.10639-55.79957-16.72649-83.63245-11.10639-33.45298 5.6201-55.79957 27.83288-72.52606 50.17947-16.72649 27.83288-16.72649 55.79957-11.10639 83.63245 11.10639 33.45298 39.07308 61.28586 72.52606 72.52607 44.55937 16.72649 89.25255-5.62011 111.46533-39.07309 33.45298-55.79957 5.6201-117.08543-50.17947-139.43202-50.17947-16.72649-122.70553 27.83288-105.97904 89.25255 5.6201 16.72649 11.10639 39.07309 27.83288 50.17947 22.34659 16.7265 50.17947 16.7265 72.52606 11.1064 22.34659-11.1064 39.07308-33.45299 39.07308-61.28587-5.6201-16.72649-5.6201-39.07308-22.34659-50.17947-13.91644-8.36324-29.2379-11.13984-43.17107-8.34651-13.93317 2.79332-26.47803 11.15656-34.84128 25.073-5.6201 16.72649-11.10639 33.45298 9.50065 44.827 41.74932-49.10898 35.32635.40143 29.84006-16.45887v5.6201c16.72649-5.6201 22.34659-22.34659 27.83288-33.45298 5.6201 5.6201 16.72649 11.10639 16.72649 22.34659 11.10639 39.07308-27.83288 72.52606-66.90596 61.28586-33.45298-11.10639-44.55937-50.17947-39.07309-83.63245 5.62011-22.34659 22.3466-39.07308 50.17948-44.55937 33.45298-5.6201 66.90596 11.10639 83.63245 39.07308 16.72649 27.83288 16.72649 50.17947 0 78.01235-33.45298 55.79958-105.97905 55.79958-150.53841 11.10639-33.45298-44.55937-22.3466-117.08543 27.83288-144.91831 16.72648-11.10639 39.07308-16.72649 61.28586-16.72649 11.10638 0 27.83288 5.6201 39.07308 11.10639 27.83288 11.10639 39.07308 39.07308 55.79957 61.28586 5.6201 16.72649 5.6201 27.83288 5.6201 44.55937-5.6201 72.52606-72.52606 122.70554-144.91831 105.97904-83.63246-22.34659-122.70554-122.70553-72.52606-195.09778 11.10638-16.72649 22.34659-27.83288 39.07308-39.07308 78.01235-44.559372 167.2649-5.6201 200.71788 66.90596 39.07309 94.73884-39.07308 206.33797-139.43202 200.71788-27.83288-5.62012-55.79958-5.62012-78.01235-22.3466-22.34659-11.10638-27.83288-27.83287-39.07309-39.07307-66.90596-78.01235-33.45298-195.09778 55.79958-239.79097 39.07308-16.726484 83.63245-16.726484 128.19182-5.6201 94.73883 33.45298 139.43201 144.91832 94.73883 234.17087-11.10637 27.83288-33.45297 44.55935-55.79956 66.90596-22.34659 16.72649-50.17947 27.83289-78.01235 33.45298-44.55937 5.62012-89.25256-5.62009-128.19182-27.83286-94.73884-66.90598-117.08544-211.82429-22.3466-289.97045 16.7265-11.1064 27.83288-33.452984 50.17948-39.073085 33.45298-11.106392 66.90596-22.346593 105.97904-16.726492 27.83288 5.6201 55.79957 16.726492 78.01235 27.832879 16.72649 16.726488 39.07309 22.346598 50.17946 44.559368 11.10641 16.72649 27.8329 33.45298 33.45298 55.79957 22.34661 66.90596 16.72649 139.43203-27.83286 195.09781-16.72649 22.34657-33.45298 44.55934-61.28587 55.79954-22.34659 5.62012-39.07308 22.34661-61.28586 22.34661-39.07308 0-83.63245 5.62008-122.70553-11.10641-117.08543-44.55934-167.26491-195.09777-105.97905-306.69691 16.7265-33.45298 44.55937-61.285864 78.01236-83.632457 44.55936-22.34659 89.25255-33.452979 139.43202-27.832879 61.28586 5.6201 111.46532 39.07308 156.1585 83.632456 22.34661 22.34659 27.8329 50.17947 39.0731 78.01234 11.10637 16.7265 5.62008 39.07309 11.10637 61.28586 11.10645 172.88502-195.09777 301.07685-351.25629 211.82429-27.83287-16.72649-50.17946-27.8329-66.90596-50.17947-61.28586-72.52608-78.01235-167.26492-50.17947-256.51747 16.72649-33.45298 39.07309-61.28586 61.28587-89.252546 39.07308-39.073083 94.73884-55.799574 144.9183-72.526064" fill="#221b35" opacity=".9"/><path d="m231.45148 15.388371c-120.56454 21.008472-220.12061 131.001869-209.68329 256.785079 5.21867 41.88313 15.78981 78.68141 41.88314 115.34586 15.7898 15.65602 31.4458 31.44582 47.23561 47.1018 31.4458 21.0085 68.11026 41.88314 104.77473 47.23563 36.66447 5.21866 73.32893 5.21866 104.77473-5.21866 36.66447-15.65601 68.11026-31.44582 94.33742-57.67295 31.44579-36.66448 52.45425-78.68141 62.89161-131.00187v-57.67294c-5.2187-26.22714-10.43736-47.23561-21.00851-73.32894-10.43731-21.00847-26.22712-41.88313-47.10179-57.672935-26.22713-26.227136-57.67292-41.88313-94.33739-52.454272-26.22714-5.218666-52.45427-10.43733-83.90008-5.218666-73.32893 10.437332-131.00187 57.672938-162.44767 120.564543-10.43733 26.22713-15.78981 57.67294-21.00847 83.90008 0 31.44579 5.21866 62.8916 15.78981 89.11874 21.00847 41.88313 52.45427 83.90006 99.55607 104.77473 15.7898 5.21866 31.4458 10.43732 52.45427 15.65601 115.34588 21.00847 220.12062-52.45428 235.91043-167.66635 10.43732-73.32894-21.00847-131.00188-68.11026-178.23748-94.33742-83.900079-251.56643-41.883137-293.44956 73.32893-5.21867 26.22713-15.78981 52.45427-15.78981 78.68141 5.21866 73.32893 52.45427 141.573 125.78321 162.44767 57.67293 15.78981 115.34587 5.21866 162.44767-31.44578 10.43733-10.43736 21.00849-21.00849 31.4458-31.44582 57.67295-78.68141 41.88314-183.45615-41.88313-241.12909-26.22714-15.7898-52.45428-21.008465-83.90008-26.227131-21.00847-5.218666-41.88313 5.218666-62.8916 10.437331-26.22714 15.7898-47.23561 21.00847-68.11027 47.1018-26.22713 31.4458-31.4458 62.8916-36.66447 99.55606 0 52.45428 26.22714 110.12722 78.68142 136.22052 73.32893 41.88314 173.01881 10.43736 209.68327-68.11025 21.00847-52.45427 10.43736-120.56454-36.66446-162.44767-31.4458-26.22714-62.8916-36.66447-104.77473-36.66447-62.89161 5.21867-104.77474 52.45428-115.34588 115.34588-10.43733 68.11027 31.4458 131.00187 99.55607 141.57302 94.3374 15.65599 173.01881-83.90008 131.00187-167.66635-10.43733-15.7898-26.22714-36.66446-47.1018-47.2356-26.22713-10.43733-52.45427-15.656-78.68141-10.43733-31.4458 5.21866-52.45427 26.22713-68.11027 47.23561-15.7898 26.22713-15.7898 52.45427-10.43732 78.6814 10.43732 31.44581 36.66446 57.67295 68.11026 68.11027 41.88314 15.78981 83.90008-5.21866 104.77474-36.66446 31.4458-52.45428 5.21866-110.12721-47.1018-131.00187-47.23561-15.78981-115.34588 26.22713-99.55607 83.90007 5.21867 15.65599 10.43733 36.66447 26.22714 47.23561 21.00847 15.78981 47.10179 15.78981 68.11027 10.43733 21.00847-10.43733 36.66446-31.4458 36.66446-57.67294-5.21866-15.7898-5.21866-36.66447-21.00847-47.23561-13.11356-7.8949-27.5318-10.50423-40.62864-7.86145-13.09684 2.64279-24.87229 10.53769-32.70029 23.65126-5.21867 15.656-10.43733 31.4458 8.9654 42.15076 39.20689-46.70036 33.05154-.26763 27.96669-16.05744v5.21867c15.78981-5.21867 21.00847-21.00847 26.22714-31.4458 5.21866 5.21866 15.65599 10.43733 15.65599 21.00847 10.43733 36.66447-26.22714 68.11027-62.8916 57.67294-31.4458-10.43733-41.88313-47.23561-36.66447-78.68141 5.21867-21.00848 21.00847-36.66447 47.1018-41.88314 31.4458-5.21866 62.8916 10.43734 78.68141 36.66447 15.65599 26.22714 15.65599 47.23561 0 73.32893-31.4458 52.45428-99.55607 52.45428-141.57302 10.43734-31.4458-41.88313-21.00847-110.12722 26.22714-136.22054 15.78981-10.43733 36.66447-15.656 57.67294-15.656 10.43733 0 26.22714 5.21867 36.66447 10.43733 26.22713 10.43733 36.66446 36.66447 52.45427 57.67294 5.21866 15.78981 5.21866 26.22714 5.21866 41.88314-5.21866 68.11026-68.11026 115.34586-136.22053 99.55606-78.68141-21.00847-115.34588-115.34587-68.11027-183.45614 10.43733-15.656 21.00847-26.22714 36.66447-36.66447 73.32893-41.88313 157.22901-5.21866 188.67481 62.8916 36.66448 89.11874-36.66447 193.89349-131.00188 188.67483-26.22713-5.21866-52.45427-5.21866-73.32893-21.00848-21.00847-10.43734-26.22713-26.22714-36.66447-36.66447-62.8916-73.32893-31.4458-183.45615 52.45428-225.33928 36.66446-15.789805 78.68141-15.789805 120.56454-5.21866 89.11872 31.4458 131.00186 136.22053 89.11872 220.12061-10.43731 26.22714-31.44578 41.88313-52.45425 62.89162-21.00847 15.78977-47.23561 26.22712-73.32894 31.44578-41.88313 5.21866-83.90007-5.21866-120.56454-26.22712-89.11874-62.89162-110.12721-199.11215-21.00847-272.5749 15.656-10.43733 26.22714-31.445801 47.1018-36.664467 31.4458-10.437328 62.8916-21.00847 99.55607-15.655994 26.22713 5.218666 52.45427 15.655994 73.32893 26.227136 15.65599 15.789805 36.66446 21.008475 47.10181 41.883135 10.43732 15.7898 26.22713 31.4458 31.44578 52.45427 21.00847 62.8916 15.78981 131.00187-26.22712 183.45615-15.78981 21.00846-31.44582 41.88313-57.67295 52.45428-21.00847 5.21866-36.66446 21.00847-57.67294 21.00847-36.66446 0-78.68141 5.21866-115.34587-10.43735-110.12721-41.8831-157.22901-183.45614-99.55607-288.23087 15.7898-31.4458 41.88313-57.672937 73.32893-78.681407 41.88313-21.008474 83.90008-31.445802 131.00187-26.22714 57.67294 5.218666 104.77473 36.664468 146.79166 78.681417 21.00851 21.00847 26.22717 47.10179 36.66448 73.32893 10.43732 15.78981 5.21866 36.66446 10.43732 57.67293 10.43735 162.44767-183.45613 283.01222-330.24781 199.11215-26.22713-15.65601-47.23561-26.22713-62.8916-47.23563-57.67294-68.11025-73.32893-157.22899-47.23561-241.12907 15.78981-31.4458 36.66447-57.67293 57.67294-83.900069 36.66447-36.664468 89.11874-52.454275 136.22054-68.11027" opacity=".9"/></g></g><g stroke-width=".900001"><path d="m69.966797 148.69336c-3.05865-.006-5.722106 2.00042-7.396848 4.42828-8.489906 9.89394-18.459254 18.56384-25.718442 29.47705-2.48738 3.81117-4.664493 7.99128-5.312514 12.54592-.222483 2.70681.654605 5.34155 1.353535 7.91907 2.870237 9.23503 8.782713 17.20093 15.539844 23.98369 3.574706 3.59666 7.437238 6.90169 11.493409 9.94286-5.999197 9.76693-13.771956 18.25059-20.594472 27.41982-2.877391 3.93791-5.652838 8.01416-7.583262 12.51183-1.70166 4.17596-2.152983 9.05492-.286266 13.2571 1.216701 2.94424 3.499298 5.38807 6.286265 6.91166 8.972771 5.71364 19.29882 8.6873 29.442832 11.56196 7.900845 2.24191 15.771662 4.39798 23.383032 7.56821 3.224971 1.34508 6.379502 2.86844 9.398746 4.6288.214494 1.04117.351524 2.175.408674 3.11201.39022 6.73797-2.019619 13.2726-5.155774 19.12482-4.759446 8.89893-11.452685 16.57477-18.438214 23.78634-5.130199 5.32743-10.286207 10.62997-15.408436 15.96511 8.655161.39761 17.283371 1.02286 25.957759 1.28588 10.179768.29994 20.379045-.37177 30.458005-1.8025 6.68724-.94694 13.28696-2.42697 19.7895-4.24241 18.68538-5.00812 37.01929-12.03994 53.2544-22.6927 11.3424-7.47727 20.99022-17.20344 29.80431-27.46916 5.36625-6.20256 10.59109-12.64134 15.91181-18.80958 4.89702-5.69789 10.03047-11.20183 15.58948-16.2623 10.05152-9.27356 20.80461-17.96037 29.20924-28.84275 6.37762-8.29291 11.14642-17.668 15.62369-27.08182 7.51892-16.14836 13.93015-32.82427 18.97314-49.91153 1.21265-4.45887 2.50877-8.97691 2.59611-13.62851.0898-2.96475-.73935-6.21968-3.20986-8.08604-1.78884-1.43301-4.10874-1.93053-6.34802-2.04602-24.11328-3.308-48.22851-6.60134-72.34589-9.87931-13.72713 3.83318-27.49869 7.54753-41.45508 10.46094-7.87445 1.63122-15.97452 3.05261-24.02413 4.04731-3.88903.48022-7.92139.87466-11.89384 1.13042-3.93187.25302-8.07487.36957-12.09284.30195-1.52008-.0247-3.08017-.0651-4.50111-.13819-4.95438-.25477-9.93054-.64105-14.77519-1.10126-1.71248-.18517-3.33901-.34204-4.99115-.55272-1.50896-.17365-2.81981-.34759-4.33563-.56183-4.22491-.60532-8.51923-1.33313-12.60765-2.24941-7.387612-1.66467-14.753076-3.8174-21.440569-7.44073-.432795-.23549-1.171113-.65832-1.710938-.98242-2.661805-1.58191-5.091967-3.52537-7.294922-5.69531-1.539223-1.27283-3.559275-1.9505-5.552734-1.89453z" filter="url(#a)"/><path d="m69.904297 154.71094c-1.484831.14659-2.080231 1.67375-3.01709 2.60818-6.354775 7.37142-13.496894 14.02625-19.720777 21.51531-3.366761 4.0342-6.573108 8.31688-8.609789 13.19487-.514782 1.35213-1.023312 2.77044-1.087187 4.21696 1.169615 8.03399 5.383308 15.28714 10.511766 21.44754 8.069799 9.58934 18.279358 17.15798 29.100493 23.37038 2.455304 1.39794 4.955835 2.71706 7.498365 3.94949-5.292277-.8342-10.360275-2.83304-14.896484-5.66797-1.025358-.61789-2.050761-1.23571-3.076172-1.85351-3.177285 5.51616-6.872081 10.71348-10.818151 15.70279-5.135146 6.60621-10.688125 12.91477-15.225008 19.96409-2.003535 3.1983-4.053212 6.61726-4.321676 10.47212-.150223 2.55257.798443 5.21851 2.658131 6.99353 3.628715 2.66336 7.708939 4.67051 11.855275 6.40077 10.128076 4.0998 20.858036 6.36806 31.236456 9.71234 5.424192 1.72223 10.781885 3.69698 15.900129 6.19576 1.474946.72927 3.125632 1.59199 4.626902 2.45231.8837.5531 1.89753 1.01496 2.66623 1.67841 2.06532 6.52164 1.3983 13.64021-.79118 20.03921-.36511 1.09711-.86591 2.41802-1.35831 3.57208-3.588436 8.53978-9.133875 16.09612-15.159512 23.06835-4.150582 4.78447-8.682827 9.21649-13.052489 13.79707 7.981269.42394 15.978589.93854 23.971419.50004 11.396752-.47157 22.792822-1.88354 33.821922-4.85672 18.95315-4.83766 37.63384-11.63085 54.13194-22.29994 7.00929-4.52198 13.39598-9.95087 19.24875-15.8829 14.41257-14.53529 25.94079-31.70457 41.027-45.60297 10.11867-9.43301 21.10081-18.10534 29.61763-29.10592 5.88146-7.64841 10.27993-16.29167 14.45888-24.94955 6.83921-14.48812 12.63754-29.46085 17.51152-44.72001 1.47601-4.77601 2.90506-9.58933 3.75069-14.52251.20548-1.69429.3366-3.46601-.0671-5.13179-.40159-1.20967-1.7605-1.64752-2.92383-1.61133-15.53515-2.15965-31.08579-4.24402-46.62689-6.37473-8.56451-1.16718-17.12876-2.33619-25.69343-3.50222-7.4977 2.08585-14.99248 4.14832-22.48393 6.03017-15.78168 3.95121-31.76185 7.28808-47.96528 8.921-1.053.0925-2.20331.21192-3.30121.29838-8.27151.70789-16.59693.8199-24.87805.20184-8.1041-.50626-16.25992-1.28807-24.32795-2.57491-3.93634-.62562-8.06609-1.42735-12.02925-2.38432-3.89876-.93536-7.887603-2.11029-11.56706-3.46677-6.670738-2.46761-13.187164-5.80548-18.304688-10.82617-.53954-.67092-1.421984-1.10526-2.291015-.96875z" filter="url(#b)"/><path d="m83.819358 373.99366c11.279394.68941 29.395842-.22092 43.564472-3.62431 20.799-4.99605 41.70592-12.27271 59.39025-24.30697 20.466-13.92719 34.15264-35.84634 51.39061-53.61362 12.86859-13.26374 28.76921-24.06536 38.84571-39.55703 15.56587-23.93107 32.2542-73.13715 31.53257-79.62806l-71.21485-9.70898c-24.43466 6.82113-63.03353 17.30061-95.11956 15.609-24.80693-1.30785-56.211648-5.1603-71.863953-19.73378-8.033538 9.76055-26.543596 25.76106-28.856975 36.60121 3.702137 24.31486 42.144231 47.6441 63.951858 52.33308-16.251203 2.94826-27.654151.63113-37.484387-5.39475-7.741701 12.76374-20.006531 24.71481-25.938698 35.55109-2.092481 4.1514-2.468282 6.56237-.549698 9.05911 17.323067 12.11627 43.935934 11.69013 67.016093 26.76133 8.86275 23.95791-14.612456 49.39386-24.663442 59.65268z" fill="#775fa0"/></g><path d="m238.75195 145.61133a18.0018 18.0018 0 0 0 -12.375 3.6582c-19.08811 14.63117-40.48627 25.41196-63.55468 34.18164l-17.84571 2.21094a18.0018 18.0018 0 0 0 -15.65039 20.07812l3.16797 25.56446a18.0018 18.0018 0 0 0 20.07617 15.64843l20.33789-2.51953a18.0018 18.0018 0 0 0 2.97852-.6289c14.93724-4.49926 30.88481-9.70537 46.47656-18.16797 5.76291 68.69482-5.41166 140.32874-5.88281 213.56055a18.0018 18.0018 0 0 0 18.20703 18.11328c11.13114-.12817 23.45362-.005 33.42383.25976a18.0018 18.0018 0 0 0 18.41797-19.46093c-.21243-2.59713-1.8545-24.74147-.0684-48.41797 1.78617-23.67651 9.33566-48.13725 15.92968-54.13868.35415-.3223 14.41058-4.42152 27.75196-4.02343 6.27877.18735 12.07987.76058 16.58008 1.31054 5.50542 11.43305 4.93935 18.65566 2.01757 37.03125a18.0018 18.0018 0 0 0 13.27735 20.25391l28.04687 7.24023a18.0018 18.0018 0 0 0 22.24219-14.39648c3.19088-18.67609 1.78316-51.3814-6.42578-93.35547a18.0018 18.0018 0 0 0 -1.05274-3.4707c-3.10017-7.43641-7.38593-9.25321-9.97851-10.67969-1.74377-.95945-3.00633-1.37857-4.36133-1.90234 1.1962-21.86477 4.6946-45.77033-.59375-72.83399a18.0018 18.0018 0 0 0 -6.52539-10.6875c-9.5531-7.52716-20.62815-12.12665-32.36719-17.17383-11.73903-5.04716-23.98913-10.09545-33.91797-15.44726a18.0018 18.0018 0 0 0 -4.97656-1.79688s-20.94474-4.28792-33.13086-5.99609c-14.41633-2.02078-40.22461-4.01367-40.22461-4.01367zm92.22266 86.64844c1.60333.48975 3.2143.97021 4.88477 1.375.70478 8.21425.22276 17.91914-.45313 27.83789-1.06757-.36338-2.5742-.72017-3.43164-1.08399-1.76398-.74846-2.06527-.96-2.57031-1.23242.85427-10.44628 1.39031-19.26122 1.57031-26.89648z" stroke-linecap="round" stroke-linejoin="round"/><path d="m237.32812 163.55469c-21.37317 16.38268-45.0533 28.15121-69.95898 37.4707l-20.17982 2.50055 3.1678 25.56455 20.33819-2.52018c23.04898-6.94259 45.84755-14.80431 65.92383-32.65039 13.29299 81.40852-1.61487 163.97686-2.13867 245.39258 11.41199-.1314 23.89438-.008 34.10937.26367-.5094-6.22799-6.92542-91.29626 21.68555-117.33594 16.86598-15.34948 68.16016-5.89257 68.16016-5.89257 11.80349 19.78648 11.75762 33.23313 8.08203 56.34961l28.04687 7.24023c2.2221-13.00589 1.53619-46.54738-6.34961-86.86914-1.1061-2.6532-9.40502-4.28703-16.23242-7.23633-.1647-27.61197 5.64159-54.04232.2461-81.6543-12.94379-10.19879-41.39167-18.89727-63.68555-30.91406 0 0-21.3074-4.30553-32.06471-5.81342-12.98752-1.8205-39.15014-3.89556-39.15014-3.89556zm73.64063 39.41797c12.39479 7.52939 24.68262 13.93404 40.375 14.86914 6.14429 21.47398 1.47059 44.91574.74609 66.39062-19.89808-3.92039-38.80245-8.53174-41.06054-20.83203 2.67479-31.01487 3.10205-44.24395-.0605-60.42773z" fill="#775fa0" stroke-linecap="round" stroke-linejoin="round" stroke-width="36"/><path d="m348.85547 368.13672c-4.1265 19.57494-11.71939 38.22596-22.41406 56.9414l-9.32032 15.34376c-24.28882-1.96864-49.9527-3.10471-76.81054-2.96485l-17.90625.09375v.31055c-46.35416 1.13044-87.18177 5.60138-122.35157 11.38086a250.00001 250.00001 0 0 0 149.94727 50.75781 250.00001 250.00001 0 0 0 3.75-.14062c25.18815.72263 49.53251-1.7895 71.50391-9.17188 39.07304-16.72647 72.52654-33.45228 100.35937-61.28516.61658-.72016 1.18625-1.4643 1.79297-2.18945-.40629-.57966-.56201-.80959-.9707-1.39258-1.98679-13.70806-6.87874-27.58748-14.20899-41.32226z"/><path d="m258.30078 41.927734-7.2207 4.664063c-37.11601 23.979287-56.83079 72.366863-59.51953 111.050783l-1.53321 22.05859 21.91016-2.97461c15.177-2.05949 23.72646.81692 31.37109 6.98828l15.05469 12.15235 17.18164-24.74219 23.30664 19.96484 11.42383-16.01367c5.75457-8.067 13.20203-13.48532 28.4375-15.55273l22.83789-3.09766-8.53906-21.4082c-13.84195-34.69717-43.9475-76.411444-86.54492-90.406252z"/><path d="m260.84829 61.71134c-29.04659 18.765933-49.07032 64.66317-51.33038 97.17951 18.9579-2.57255 33.64572 1.57322 45.09715 10.81774l2.356-3.39276c-8.45181-6.61182-19.04266-11.50916-32.73546-15.95522 4.57249-18.09602 11.57764-45.4952 24.76728-48.82476 5.16086-1.30305 11.19713 1.09655 18.51304 9.16041 14.79397-34.326253 38.64721 5.11207 52.31252 26.69265-11.67282 8.53141-20.55282 16.08058-27.0254 24.82025l2.81803 2.41388c8.43797-11.82871 21.36433-20.31526 40.67132-22.93517-12.03736-30.17367-41.67443-68.881961-75.4441-79.97653z" fill="#775fa0" stroke-width="36"/><path d="m137.45287 7.5598013c4.36121 12.6213417-9.60272 41.7968417-17.95096 36.8026767-4.92495-9.613741-11.65549 6.697708-21.372277 4.909908-4.96409-6.322424-13.763118.225791-7.936526 6.933899-16.537959-2.701367-31.843784-14.05331-36.615234-30.53711-9.973335 21.104523-24.069514 41.316039-44.5546823 53.342046-13.9564568 15.530752 17.0952143.472643 25.1895803.683473 18.142727-6.416917 18.304583 23.511646 34.333332 10.514019 15.741478-8.706417 15.288247 18.793037 28.79743 9.24669 15.576987-8.12323 21.268347 25.188517 27.155777 17.905947-1.55614-14.31186 3.14628-31.818926 21.68398-30.367956-10.85233-18.035731 16.68511-20.512062 22.52553-24.462043-5.05404-19.306852 18.89564-26.598099 33.7772-27.459832 19.09035-9.177614-15.09111-7.367544-22.87924-10.991509-14.94872-2.205409-33.18923-16.5656177-42.39322-18.6149357l.23926 2.094727z" fill="#775fa0" filter="url(#d)"/><path d="m141.902 11.291727s3.32126 24.102188-23.69166 43.704143l-2.76607-10.323124c-1.26601-.108902-1.05303 3.81341-2.01038 4.639054l-16.511137 4.424146c-1.24191-.236354-3.01414-3.72294-4.06056-3.012349l2.76607 10.323124c-33.194852-3.46933-42.369651-26.003069-42.369651-26.003069-17.80109 35.099116-41.800101 47.050574-41.800101 47.050574 41.063924-18.222394 47.4087 7.413357 47.4087 7.413357 27.812104-12.789438 31.512591 7.82777 31.512591 7.82777 24.576948-9.677459 31.147518 15.212147 31.147518 15.212147s-6.75454-24.840312 19.36846-28.747863c0 0-7.1039-19.705267 23.37682-22.535341 0 0-7.31896-25.374723 37.35575-30.121447.009.0021-26.75641 1.643937-59.72635-19.851122z"/><path d="m397.29883 39.935547c-16.41144 6.85146-34.64821 8.575161-52.01624 5.903804-16.15095 2.753478 13.57072 10.86 17.72724 17.350973 8.25121 8.207523-4.7019 21.000869 12.28298 22.058172 10.37558 6.672636-3.517 18.555334 11.9878 20.970054 9.25967 6.23332-7.64828 33.57407 8.27017 19.60567 4.45621-13.62081 19.59283-4.23745 24.85066-3.98366 6.65117-19.49373 23.48419 11.21785 28.46778-5.53117 12.0765-9.82023 30.04887 13.50528 36.13898 7.28342-9.8652-14.80095-22.24394-29.082835-25.2144-47.564609-1.66099-15.706336-11.65027 11.846587-22.69557 9.140624-9.22073 2.692962-9.19822 1.152786-10.1851-5.28402-9.88571 3.231712-14.82607-12.474822-21.65622-7.943359-8.05029-.466738-10.54225-23.968638-3.99129-33.416055l-1.9834.705078z" fill="#775fa0" filter="url(#c)"/><path d="m456.17287 78.013282s-10.68474 15.092432-35.85291 11.923628l3.83125-7.162469c-.64548-.718375-2.56591 1.567502-3.52593 1.527818l-11.45589-6.127836c-.56588-.776528.26337-3.631156-.68625-3.780943l-3.83126 7.162469c-16.60564-19.176295-9.98225-36.441169-9.98225-36.441169-28.11392 10.213063-47.63448 4.367971-47.63448 4.367971 32.24339 11.236574 22.43834 28.750872 22.43834 28.750872 22.07071 7.362155 13.40752 20.719023 13.40752 20.719023 18.65922 7.406554 9.36718 24.624424 9.36718 24.624424s9.16446-17.28611 25.68222-5.87626c0 0 6.30181-14.61999 24.67627-.34775 0 0 9.12913-17.875851 36.37125 2.71051.004.006-15.69263-12.99441-22.80506-42.050288z"/></svg>