<svg height="500.00003" viewBox="0 0 500 500.00003" width="500" xmlns="http://www.w3.org/2000/svg" xmlns:xlink="http://www.w3.org/1999/xlink"><filter id="a" color-interpolation-filters="sRGB" height="1.044258" width="1.03113" x="-.015565" y="-.022129"><feGaussianBlur stdDeviation="2.8438664"/></filter><g transform="translate(-500)"><path d="m926.7767 73.223311c45.24113 45.241099 73.2233 107.741109 73.2233 176.776699 0 69.0356-27.98221 131.53559-73.2233 176.77669-45.2411 45.2411-107.74109 73.22332-176.77669 73.22332-69.03559 0-131.5356-27.98219-176.7767-73.22332-45.2411-45.2411-73.22331-107.74109-73.22331-176.77669 0-69.03559 27.9822-131.5356 73.22331-176.776699 45.2411-45.241105 107.74111-73.22330934 176.7767-73.22330934 69.0356 0 131.53559 27.98220534 176.77669 73.22330934z" fill="#3b2f4f"/><g transform="translate(500)"><path d="m230.6486 0c-128.19182 22.346591-234.17086 139.43202-223.06447 273.24395 5.6201 44.55936 16.72649 83.63245 44.55937 122.70552l50.17947 50.17947c33.45298 22.34661 72.52606 44.55938 111.46533 50.17946 39.07308 5.62012 78.01235 5.62012 111.46534-5.62008 39.07308-16.72649 72.52607-33.45297 100.35893-61.28587 33.45297-39.07306 55.79958-83.63245 66.90595-139.43201v-61.28587c-5.62008-27.83287-11.10637-50.17947-22.34657-78.01235-11.10641-22.34659-27.8329-44.55937-50.17947-61.285858-27.83289-27.832879-61.28586-44.559368-100.35895-55.799569-27.83288-5.620101-55.79957-11.10639-89.25255-5.620101-78.01235 11.106391-139.43202 61.28586-172.885 128.191818-11.10639 27.83288-16.72649 61.28586-22.34659 89.25255 0 33.45298 5.6201 66.90596 16.72649 94.73885 22.34659 44.55936 55.79957 89.25254 105.97904 111.46532 16.72649 5.62012 33.45298 11.1064 55.79957 16.72648 122.70553 22.34661 234.17085-55.79954 250.89734-178.37127 11.10641-78.01236-22.34657-139.43203-72.52604-189.6115-100.35895-89.25255-267.62385-44.559369-312.18322 78.01235-5.6201 27.83288-16.72649 55.79958-16.72649 83.63245 5.6201 78.01235 55.79957 150.53843 133.81192 172.885 61.28586 16.72649 122.70553 5.62012 172.885-33.45298 11.10639-11.10637 22.34659-22.34657 33.45299-33.45297 61.28584-83.63246 44.55935-195.09778-44.55937-256.51746-27.83288-16.726488-55.79958-22.346588-89.25256-27.832879-22.34659-5.620101-44.55937 5.620101-66.90596 11.106391-27.83288 16.726488-50.17947 22.346588-72.52606 50.179468-27.83288 33.45298-33.45298 66.90596-39.07308 105.97904 0 55.79958 27.83288 117.08544 83.63245 144.91833 78.01235 44.55934 183.99139 11.10637 223.06447-72.52607 22.3466-55.79958 11.1064-128.19183-39.07308-172.88501-33.45298-27.83288-66.90596-39.07308-111.46533-39.07308-66.90596 5.6201-111.46533 55.79957-122.70553 122.70553-11.10639 72.52606 33.45298 139.43202 105.97904 150.53843 100.35894 16.72649 183.99138-89.25257 139.43202-178.37131-11.10638-16.72649-27.83288-39.07308-50.17947-50.17947-27.83288-11.10639-55.79957-16.72649-83.63245-11.10639-33.45298 5.6201-55.79957 27.83288-72.52606 50.17947-16.72649 27.83288-16.72649 55.79957-11.10639 83.63245 11.10639 33.45298 39.07308 61.28586 72.52606 72.52607 44.55937 16.72649 89.25255-5.62011 111.46533-39.07309 33.45298-55.79957 5.6201-117.08543-50.17947-139.43202-50.17947-16.72649-122.70553 27.83288-105.97904 89.25255 5.6201 16.72649 11.10639 39.07309 27.83288 50.17947 22.34659 16.7265 50.17947 16.7265 72.52606 11.1064 22.34659-11.1064 39.07308-33.45299 39.07308-61.28587-5.6201-16.72649-5.6201-39.07308-22.34659-50.17947-13.91644-8.36324-29.2379-11.13984-43.17107-8.34651-13.93317 2.79332-26.47803 11.15656-34.84128 25.073-5.6201 16.72649-11.10639 33.45298 9.50065 44.827 41.74932-49.10898 35.32635.40143 29.84006-16.45887v5.6201c16.72649-5.6201 22.34659-22.34659 27.83288-33.45298 5.6201 5.6201 16.72649 11.10639 16.72649 22.34659 11.10639 39.07308-27.83288 72.52606-66.90596 61.28586-33.45298-11.10639-44.55937-50.17947-39.07309-83.63245 5.62011-22.34659 22.3466-39.07308 50.17948-44.55937 33.45298-5.6201 66.90596 11.10639 83.63245 39.07308 16.72649 27.83288 16.72649 50.17947 0 78.01235-33.45298 55.79958-105.97905 55.79958-150.53841 11.10639-33.45298-44.55937-22.3466-117.08543 27.83288-144.91831 16.72648-11.10639 39.07308-16.72649 61.28586-16.72649 11.10638 0 27.83288 5.6201 39.07308 11.10639 27.83288 11.10639 39.07308 39.07308 55.79957 61.28586 5.6201 16.72649 5.6201 27.83288 5.6201 44.55937-5.6201 72.52606-72.52606 122.70554-144.91831 105.97904-83.63246-22.34659-122.70554-122.70553-72.52606-195.09778 11.10638-16.72649 22.34659-27.83288 39.07308-39.07308 78.01235-44.559372 167.2649-5.6201 200.71788 66.90596 39.07309 94.73884-39.07308 206.33797-139.43202 200.71788-27.83288-5.62012-55.79958-5.62012-78.01235-22.3466-22.34659-11.10638-27.83288-27.83287-39.07309-39.07307-66.90596-78.01235-33.45298-195.09778 55.79958-239.79097 39.07308-16.726484 83.63245-16.726484 128.19182-5.6201 94.73883 33.45298 139.43201 144.91832 94.73883 234.17087-11.10637 27.83288-33.45297 44.55935-55.79956 66.90596-22.34659 16.72649-50.17947 27.83289-78.01235 33.45298-44.55937 5.62012-89.25256-5.62009-128.19182-27.83286-94.73884-66.90598-117.08544-211.82429-22.3466-289.97045 16.7265-11.1064 27.83288-33.452984 50.17948-39.073085 33.45298-11.106392 66.90596-22.346593 105.97904-16.726492 27.83288 5.6201 55.79957 16.726492 78.01235 27.832879 16.72649 16.726488 39.07309 22.346598 50.17946 44.559368 11.10641 16.72649 27.8329 33.45298 33.45298 55.79957 22.34661 66.90596 16.72649 139.43203-27.83286 195.09781-16.72649 22.34657-33.45298 44.55934-61.28587 55.79954-22.34659 5.62012-39.07308 22.34661-61.28586 22.34661-39.07308 0-83.63245 5.62008-122.70553-11.10641-117.08543-44.55934-167.26491-195.09777-105.97905-306.69691 16.7265-33.45298 44.55937-61.285864 78.01236-83.632457 44.55936-22.34659 89.25255-33.452979 139.43202-27.832879 61.28586 5.6201 111.46532 39.07308 156.1585 83.632456 22.34661 22.34659 27.8329 50.17947 39.0731 78.01234 11.10637 16.7265 5.62008 39.07309 11.10637 61.28586 11.10645 172.88502-195.09777 301.07685-351.25629 211.82429-27.83287-16.72649-50.17946-27.8329-66.90596-50.17947-61.28586-72.52608-78.01235-167.26492-50.17947-256.51747 16.72649-33.45298 39.07309-61.28586 61.28587-89.252546 39.07308-39.073083 94.73884-55.799574 144.9183-72.526064" fill="#221b35" opacity=".9"/><path d="m231.45148 15.388371c-120.56454 21.008472-220.12061 131.001869-209.68329 256.785079 5.21867 41.88313 15.78981 78.68141 41.88314 115.34586 15.7898 15.65602 31.4458 31.44582 47.23561 47.1018 31.4458 21.0085 68.11026 41.88314 104.77473 47.23563 36.66447 5.21866 73.32893 5.21866 104.77473-5.21866 36.66447-15.65601 68.11026-31.44582 94.33742-57.67295 31.44579-36.66448 52.45425-78.68141 62.89161-131.00187v-57.67294c-5.2187-26.22714-10.43736-47.23561-21.00851-73.32894-10.43731-21.00847-26.22712-41.88313-47.10179-57.672935-26.22713-26.227136-57.67292-41.88313-94.33739-52.454272-26.22714-5.218666-52.45427-10.43733-83.90008-5.218666-73.32893 10.437332-131.00187 57.672938-162.44767 120.564543-10.43733 26.22713-15.78981 57.67294-21.00847 83.90008 0 31.44579 5.21866 62.8916 15.78981 89.11874 21.00847 41.88313 52.45427 83.90006 99.55607 104.77473 15.7898 5.21866 31.4458 10.43732 52.45427 15.65601 115.34588 21.00847 220.12062-52.45428 235.91043-167.66635 10.43732-73.32894-21.00847-131.00188-68.11026-178.23748-94.33742-83.900079-251.56643-41.883137-293.44956 73.32893-5.21867 26.22713-15.78981 52.45427-15.78981 78.68141 5.21866 73.32893 52.45427 141.573 125.78321 162.44767 57.67293 15.78981 115.34587 5.21866 162.44767-31.44578 10.43733-10.43736 21.00849-21.00849 31.4458-31.44582 57.67295-78.68141 41.88314-183.45615-41.88313-241.12909-26.22714-15.7898-52.45428-21.008465-83.90008-26.227131-21.00847-5.218666-41.88313 5.218666-62.8916 10.437331-26.22714 15.7898-47.23561 21.00847-68.11027 47.1018-26.22713 31.4458-31.4458 62.8916-36.66447 99.55606 0 52.45428 26.22714 110.12722 78.68142 136.22052 73.32893 41.88314 173.01881 10.43736 209.68327-68.11025 21.00847-52.45427 10.43736-120.56454-36.66446-162.44767-31.4458-26.22714-62.8916-36.66447-104.77473-36.66447-62.89161 5.21867-104.77474 52.45428-115.34588 115.34588-10.43733 68.11027 31.4458 131.00187 99.55607 141.57302 94.3374 15.65599 173.01881-83.90008 131.00187-167.66635-10.43733-15.7898-26.22714-36.66446-47.1018-47.2356-26.22713-10.43733-52.45427-15.656-78.68141-10.43733-31.4458 5.21866-52.45427 26.22713-68.11027 47.23561-15.7898 26.22713-15.7898 52.45427-10.43732 78.6814 10.43732 31.44581 36.66446 57.67295 68.11026 68.11027 41.88314 15.78981 83.90008-5.21866 104.77474-36.66446 31.4458-52.45428 5.21866-110.12721-47.1018-131.00187-47.23561-15.78981-115.34588 26.22713-99.55607 83.90007 5.21867 15.65599 10.43733 36.66447 26.22714 47.23561 21.00847 15.78981 47.10179 15.78981 68.11027 10.43733 21.00847-10.43733 36.66446-31.4458 36.66446-57.67294-5.21866-15.7898-5.21866-36.66447-21.00847-47.23561-13.11356-7.8949-27.5318-10.50423-40.62864-7.86145-13.09684 2.64279-24.87229 10.53769-32.70029 23.65126-5.21867 15.656-10.43733 31.4458 8.9654 42.15076 39.20689-46.70036 33.05154-.26763 27.96669-16.05744v5.21867c15.78981-5.21867 21.00847-21.00847 26.22714-31.4458 5.21866 5.21866 15.65599 10.43733 15.65599 21.00847 10.43733 36.66447-26.22714 68.11027-62.8916 57.67294-31.4458-10.43733-41.88313-47.23561-36.66447-78.68141 5.21867-21.00848 21.00847-36.66447 47.1018-41.88314 31.4458-5.21866 62.8916 10.43734 78.68141 36.66447 15.65599 26.22714 15.65599 47.23561 0 73.32893-31.4458 52.45428-99.55607 52.45428-141.57302 10.43734-31.4458-41.88313-21.00847-110.12722 26.22714-136.22054 15.78981-10.43733 36.66447-15.656 57.67294-15.656 10.43733 0 26.22714 5.21867 36.66447 10.43733 26.22713 10.43733 36.66446 36.66447 52.45427 57.67294 5.21866 15.78981 5.21866 26.22714 5.21866 41.88314-5.21866 68.11026-68.11026 115.34586-136.22053 99.55606-78.68141-21.00847-115.34588-115.34587-68.11027-183.45614 10.43733-15.656 21.00847-26.22714 36.66447-36.66447 73.32893-41.88313 157.22901-5.21866 188.67481 62.8916 36.66448 89.11874-36.66447 193.89349-131.00188 188.67483-26.22713-5.21866-52.45427-5.21866-73.32893-21.00848-21.00847-10.43734-26.22713-26.22714-36.66447-36.66447-62.8916-73.32893-31.4458-183.45615 52.45428-225.33928 36.66446-15.789805 78.68141-15.789805 120.56454-5.21866 89.11872 31.4458 131.00186 136.22053 89.11872 220.12061-10.43731 26.22714-31.44578 41.88313-52.45425 62.89162-21.00847 15.78977-47.23561 26.22712-73.32894 31.44578-41.88313 5.21866-83.90007-5.21866-120.56454-26.22712-89.11874-62.89162-110.12721-199.11215-21.00847-272.5749 15.656-10.43733 26.22714-31.445801 47.1018-36.664467 31.4458-10.437328 62.8916-21.00847 99.55607-15.655994 26.22713 5.218666 52.45427 15.655994 73.32893 26.227136 15.65599 15.789805 36.66446 21.008475 47.10181 41.883135 10.43732 15.7898 26.22713 31.4458 31.44578 52.45427 21.00847 62.8916 15.78981 131.00187-26.22712 183.45615-15.78981 21.00846-31.44582 41.88313-57.67295 52.45428-21.00847 5.21866-36.66446 21.00847-57.67294 21.00847-36.66446 0-78.68141 5.21866-115.34587-10.43735-110.12721-41.8831-157.22901-183.45614-99.55607-288.23087 15.7898-31.4458 41.88313-57.672937 73.32893-78.681407 41.88313-21.008474 83.90008-31.445802 131.00187-26.22714 57.67294 5.218666 104.77473 36.664468 146.79166 78.681417 21.00851 21.00847 26.22717 47.10179 36.66448 73.32893 10.43732 15.78981 5.21866 36.66446 10.43732 57.67293 10.43735 162.44767-183.45613 283.01222-330.24781 199.11215-26.22713-15.65601-47.23561-26.22713-62.8916-47.23563-57.67294-68.11025-73.32893-157.22899-47.23561-241.12907 15.78981-31.4458 36.66447-57.67293 57.67294-83.900069 36.66447-36.664468 89.11874-52.454275 136.22054-68.11027" opacity=".9"/></g></g><path d="m262.14966 102.5768c-42.91808 1.97036-67.986 2.19913-94.63989 1.0775-15.71621-.66136-28.30767 5.77161-41.11329 12.42968-12.80561 6.65807-25.324 14.50615-35.353511 20.01563-25.225482 14.99767-42.642207 31.26347-67.986328 42.02539 1.209081 26.95427 11.688618 52.31467 18.257812 75.16016 4.436238 15.91607 6.83879 34.91062-.160156 78.92578l-6.884766 43.29883 35.322266-25.96875c10.326025-8.51969 16.154405-17.58415 22.414062-27.27735l.742181 38.96289s20.15241-19.62033 27.74219-30.03711 17.90625-31.74023 17.90625-31.74023l.94727 8.72851c-31.71694 49.85706-42.730469 109.83008-42.730469 109.83008l-12.037109 61.53711 30.759768-32.87109-12.36914 39.99023 45.86132-36.86328c13.95914-11.2207 25.17379-23.23907 34.34571-35.70312.38975 22.34488 4.74406 43.80537 9.11718 67.41991 13.52062-19.43861 28.08796-37.99921 36.12501-60.49413l47.23242 78.97659c-.23918-27.93892-.12596-58.69326-.61524-85.28714 3.10558 1.97549 6.27703 3.83219 9.51367 5.46875 17.21 8.70196 36.35417 13.90857 55.2754 6.92578l26.62695-9.82617-20.24024-19.89648c-7.17469-7.05277-15.14639-20.56972-21.08461-36.61583-5.40072-16.60535-8.81411-31.48839-8.95835-47.04042l16.51757-6.98047c6.71518-2.83819 13.04592-6.10598 18.93946-9.79297 0 0-4.02049 31.79254-4.19532 47.77929-.14116 12.90827 5.54297 40.14355 5.54297 40.14355 16.36745-14.11307 28.92303-30.23378 39.55664-48.83495-1.15573 18.43377-2.78571 37.41161-4.23242 56.08984l34.9336-36.86328c23.31937-24.60771 37.09059-46.93916 43.83593-74.89453 7.94406-46.83708 7.9033-79.7361 9.00196-119.07813-11.39305-9.12361-24.63856-17.61795-36.19743-23.0844-27.30996-12.79539-56.38768-17.93784-82.16586-24.19294-25.24934-6.12678-52.63538-13.41309-95.55346-11.44273z"/><path d="m166.75362 121.63909c-17.56976-.73936-45.55743 18.43382-67.04486 30.23744-19.973926 10.97221-35.870024 28.48277-57.15076 37.52218 6.603572 54.40111 30.860288 54.52918 16.372633 145.63952 16.953922-12.46433 52.635527-84.5398 52.635527-84.5398l-6.75323 71.84609 45.44041-80.54495 4.34453 40.07987 25.54379-39.5607c-.96791 21.82155-3.95134 45.02025-18.81802 65.47078-33.94592 46.69243-47.04591 113.67343-47.04591 113.67343l41.37306-44.21217-18.10072 58.52116c33.44028-26.88013 49.2049-57.41279 59.24973-89.46355l5.7561 88.45061 23.55041-52.66589 31.18831 52.14847c-.11512-21.3733-3.09944-41.63385 5.09193-61.36649 7.54049 25.50298 49.47587 45.36431 71.20381 37.34572-35.46464-34.86196-61.50434-141.59014 8.7723-178.95686 2.24045 19.64246-3.2615 39.26215-16.68649 58.90461 23.62657-9.98582 39.76755-24.32544 48.51062-44.37676l-8.82897 100.51747c21.06024-32.86584 38.88997-71.99142 40.04473-99.97204 9.25404 25.33401 7.12871 65.96631 4.75985 96.5515 44.33081-46.77998 44.86037-73.53719 47.65429-172.93578-30.02912-23.15842-68.33198-29.69853-104.35716-38.44008-33.87081-8.21879-69.22171-17.42714-103.76894-12.8464-29.3919 3.89717-55.69922 4.11882-82.93697 2.97262z" fill="#775fa0" stroke-width="36"/><g stroke-width="1.72366" transform="matrix(.53991709 .18535991 -.17798327 .5622943 -16.983971 -343.49633)"><path d="m625.86719 404.57031c-30.26539 10.19716-59.16326 28.80089-79.32617 56.21875-16.37114 22.26172-29.00381 51.51908-27.42679 86.55078 2.73068 60.65864 30.47351 106.29217 68.76853 127.5293v.002h.002c30.6928 17.01882 69.96259 16.2887 100.55078-3.76562 47.55368.40633 95.15274-2.1595 142.19726 3.95508l7.74219-15.6211c.37408-13.74924 1.02523-28.5815 1.32227-41.89843.58817-26.58963-.69838-53.71702-7.1504-79.86133 9.04594-10.28797 7.78288-25.64933 9.78125-38.45117-13.11593-22.5069-27.93369-48.07199-45.50585-62.9043-21.56594-17.85156-47.45852-30.05404-74.60938-35.6836-32.6599-6.41341-66.75818-5.83147-96.34569 3.92964z"/><path d="m743.95989 617.70577c-4.977.1116-9.9585.3636-14.9472.7056l3.2328 21.6684h12.2976zm17.4078 22.374h12.0303l-.108-21.5316c-4.1634-.342-8.3304-.5868-12.50055-.73485zm-49.131-20.1276c-5.706.6543-11.4237 1.44-17.1495 2.3238l4.761 17.8038h15.39zm77.74002.11076-.29452 18.38843 12.5275 1.62841c.4392-5.7015.2948-13.06921.6332-18.82021-4.4172-.9225-7.3159-1.45194-12.86618-1.19663zm20.03238-114.96066s-18.67214-33.04131-32.97137-44.87774c-17.39475-14.39879-39.01374-24.62028-61.12449-29.2048-26.17447-5.42711-54.80718-5.58207-80.13919 2.95291-24.81135 8.35956-48.72726 24.10486-64.23846 45.19724-13.84875 18.83174-22.67949 38.96169-21.42669 66.77349 2.3463 52.101 25.524 86.6556 52.821 101.7936 26.064 14.4522 55.602 12.1248 78.6825-10.737l-10.17-38.0466 16.2486-4.3434 7.3962 27.666c28.27837-.63338 66.21462-3.59288 94.88952-2.21304 8.41881.40511 10.97653.74058 18.55548 2.17074.0579-1.79468.10711-3.58803.14673-5.37926.584-26.40106-.90925-52.3428-7.10733-75.31294-3.02664-14.35455 3.332-19.02233 6.29039-22.68105z" fill="#775fa0" stroke-width="62.0521"/><path d="m801.57159 541.54147-26.514-4.0428c2.061-16.308 19.2024-29.3724 34.9515-32.3964 7.6047 7.2305 12.82516 16.77891 12.88655 23.06859.0614 6.28967-5.0363 9.32061-21.32405 13.37061zm-137.4174-49.6566c-12.078 13.3164-22.419 32.4477-22.3083 54.909 14.2533 1.8225 28.044 6.7743 37.962 18.8676l-13.0068 10.6668c-7.8453-9.567-18.918-12.8673-33.5304-13.6197l-7.227-.3708-.7092-7.2c-3.0807-31.2084 10.7442-57.33 26.3637-74.55195zm74.8863 45.6093-58.1112 9.036c-10.116-30.438 1.0395-42.0777 16.2072-42.2199 17.19-.1611 39.5343 14.4441 41.904 33.1839zm45.2394 59.8338-20.187-17.9757-6.9138 19.08c-7.56-19.602-14.1714-39.7458 12.71925-53.64675z"/></g><path d="m65.774863 18.25c-14.065327 3.736169-35.601167 2.875094-23.976746 22.412839-.05785 18.208504 21.11855 1.898143 31.945496 2.413333-3.182698-6.926673-2.316782-22.136213-7.96875-24.826172zm91.788947-.60505c-13.52092 5.383617-35.00011 7.095014-21.13752 25.111022 2.10854 18.089002 21.19913-.630218 32.01057-1.411803-3.98629-6.498615-4.94009-21.699767-10.87305-23.699219zm284.20549 14.862862c-10.01452 8.641915-25.29157 16.966067-7.89754 27.32136 6.63487 12.889578 14.1818 11.189128 22.27883.689841 16.83997-6.362381-9.96078-24.782469-14.38129-28.011201zm-395.494437 51.263672c-11.344195 7.672106-33.839488 12.353011-17.197266 27.536136 3.945753 13.95128 11.680432 13.78277 21.701047 5.09786 20.743899-6.40961-14.810062-23.587454 1.25989-35.958214zm382.650397 52.341796c-12.0293 6.7155-32.77751 18.55761-13.35772 30.36532 6.04211 16.29339 26.87107-8.97285 27.7848-14.31534-4.90854-4.98369-8.9199-12.52922-14.42708-16.04998zm-347.148444 5.48633c-4.14674 12.56188-12.981694 27.55177 7.265389 27.49685 12.315985 7.6461 17.920335 2.31252 19.467325-10.85825 11.4554-13.97311-21.403935-16.15028-26.732714-16.6386zm319.994144 122.42773c-10.10806 10.46961-28.97832 20.86819-8.93283 31.58444 9.36393 15.61896 19.05895-9.29615 28.59299-14.45358-6.3393-4.46793-13.38129-17.49405-19.66016-17.13086zm-259.9043 31.0293c-4.14691 12.56297-12.97816 27.55272 7.26919 27.49622 12.31727 7.64386 17.91983 2.31321 19.46494-10.8586 11.4525-13.97194-21.40616-16.14967-26.73413-16.63762z" filter="url(#a)"/><path d="m64.754925 22.603035-21.906 5.22 4.174 17.508 21.904-5.22zm92.316295-.513425-21.128 7.79 6.226 16.888 21.13-7.79-6.227-16.888zm285.84647 14.741425-13.496 11.91 14.897 16.883 13.498-11.908-14.9-16.886zm-400.405765 53.73-15.595 8.994 11.25 19.505995 15.592-8.992-11.25-19.504995zm385.615005 49.545995-17.315 14.394 11.508 13.842 17.314-14.396-11.506-13.84zm-343.145005 4.61-5.457 17.154 21.460005 6.828 5.456-17.155-21.460005-6.826zm318.168005 123.564-16.05 15.793 12.622 12.832 16.053-15.794-12.625-12.832zm-258.078 29.894-5.455 17.153 21.46 6.827 5.454-17.153-21.46-6.826z" fill="#775fa0"/></svg>