<svg height="500.00003" viewBox="0 0 500 500.00003" width="500" xmlns="http://www.w3.org/2000/svg" xmlns:xlink="http://www.w3.org/1999/xlink"><filter id="a" color-interpolation-filters="sRGB" height="1.044345" width="1.032486" x="-.016243" y="-.022173"><feGaussianBlur stdDeviation="2.8438664"/></filter><g transform="translate(-500)"><path d="m926.7767 73.223311c45.24113 45.241099 73.2233 107.741109 73.2233 176.776699 0 69.0356-27.98221 131.53559-73.2233 176.77669-45.2411 45.2411-107.74109 73.22332-176.77669 73.22332-69.03559 0-131.5356-27.98219-176.7767-73.22332-45.2411-45.2411-73.22331-107.74109-73.22331-176.77669 0-69.03559 27.9822-131.5356 73.22331-176.776699 45.2411-45.241105 107.74111-73.22330934 176.7767-73.22330934 69.0356 0 131.53559 27.98220534 176.77669 73.22330934z" fill="#3b2f4f"/><g transform="translate(500)"><path d="m230.6486 0c-128.19182 22.346591-234.17086 139.43202-223.06447 273.24395 5.6201 44.55936 16.72649 83.63245 44.55937 122.70552l50.17947 50.17947c33.45298 22.34661 72.52606 44.55938 111.46533 50.17946 39.07308 5.62012 78.01235 5.62012 111.46534-5.62008 39.07308-16.72649 72.52607-33.45297 100.35893-61.28587 33.45297-39.07306 55.79958-83.63245 66.90595-139.43201v-61.28587c-5.62008-27.83287-11.10637-50.17947-22.34657-78.01235-11.10641-22.34659-27.8329-44.55937-50.17947-61.285858-27.83289-27.832879-61.28586-44.559368-100.35895-55.799569-27.83288-5.620101-55.79957-11.10639-89.25255-5.620101-78.01235 11.106391-139.43202 61.28586-172.885 128.191818-11.10639 27.83288-16.72649 61.28586-22.34659 89.25255 0 33.45298 5.6201 66.90596 16.72649 94.73885 22.34659 44.55936 55.79957 89.25254 105.97904 111.46532 16.72649 5.62012 33.45298 11.1064 55.79957 16.72648 122.70553 22.34661 234.17085-55.79954 250.89734-178.37127 11.10641-78.01236-22.34657-139.43203-72.52604-189.6115-100.35895-89.25255-267.62385-44.559369-312.18322 78.01235-5.6201 27.83288-16.72649 55.79958-16.72649 83.63245 5.6201 78.01235 55.79957 150.53843 133.81192 172.885 61.28586 16.72649 122.70553 5.62012 172.885-33.45298 11.10639-11.10637 22.34659-22.34657 33.45299-33.45297 61.28584-83.63246 44.55935-195.09778-44.55937-256.51746-27.83288-16.726488-55.79958-22.346588-89.25256-27.832879-22.34659-5.620101-44.55937 5.620101-66.90596 11.106391-27.83288 16.726488-50.17947 22.346588-72.52606 50.179468-27.83288 33.45298-33.45298 66.90596-39.07308 105.97904 0 55.79958 27.83288 117.08544 83.63245 144.91833 78.01235 44.55934 183.99139 11.10637 223.06447-72.52607 22.3466-55.79958 11.1064-128.19183-39.07308-172.88501-33.45298-27.83288-66.90596-39.07308-111.46533-39.07308-66.90596 5.6201-111.46533 55.79957-122.70553 122.70553-11.10639 72.52606 33.45298 139.43202 105.97904 150.53843 100.35894 16.72649 183.99138-89.25257 139.43202-178.37131-11.10638-16.72649-27.83288-39.07308-50.17947-50.17947-27.83288-11.10639-55.79957-16.72649-83.63245-11.10639-33.45298 5.6201-55.79957 27.83288-72.52606 50.17947-16.72649 27.83288-16.72649 55.79957-11.10639 83.63245 11.10639 33.45298 39.07308 61.28586 72.52606 72.52607 44.55937 16.72649 89.25255-5.62011 111.46533-39.07309 33.45298-55.79957 5.6201-117.08543-50.17947-139.43202-50.17947-16.72649-122.70553 27.83288-105.97904 89.25255 5.6201 16.72649 11.10639 39.07309 27.83288 50.17947 22.34659 16.7265 50.17947 16.7265 72.52606 11.1064 22.34659-11.1064 39.07308-33.45299 39.07308-61.28587-5.6201-16.72649-5.6201-39.07308-22.34659-50.17947-13.91644-8.36324-29.2379-11.13984-43.17107-8.34651-13.93317 2.79332-26.47803 11.15656-34.84128 25.073-5.6201 16.72649-11.10639 33.45298 9.50065 44.827 41.74932-49.10898 35.32635.40143 29.84006-16.45887v5.6201c16.72649-5.6201 22.34659-22.34659 27.83288-33.45298 5.6201 5.6201 16.72649 11.10639 16.72649 22.34659 11.10639 39.07308-27.83288 72.52606-66.90596 61.28586-33.45298-11.10639-44.55937-50.17947-39.07309-83.63245 5.62011-22.34659 22.3466-39.07308 50.17948-44.55937 33.45298-5.6201 66.90596 11.10639 83.63245 39.07308 16.72649 27.83288 16.72649 50.17947 0 78.01235-33.45298 55.79958-105.97905 55.79958-150.53841 11.10639-33.45298-44.55937-22.3466-117.08543 27.83288-144.91831 16.72648-11.10639 39.07308-16.72649 61.28586-16.72649 11.10638 0 27.83288 5.6201 39.07308 11.10639 27.83288 11.10639 39.07308 39.07308 55.79957 61.28586 5.6201 16.72649 5.6201 27.83288 5.6201 44.55937-5.6201 72.52606-72.52606 122.70554-144.91831 105.97904-83.63246-22.34659-122.70554-122.70553-72.52606-195.09778 11.10638-16.72649 22.34659-27.83288 39.07308-39.07308 78.01235-44.559372 167.2649-5.6201 200.71788 66.90596 39.07309 94.73884-39.07308 206.33797-139.43202 200.71788-27.83288-5.62012-55.79958-5.62012-78.01235-22.3466-22.34659-11.10638-27.83288-27.83287-39.07309-39.07307-66.90596-78.01235-33.45298-195.09778 55.79958-239.79097 39.07308-16.726484 83.63245-16.726484 128.19182-5.6201 94.73883 33.45298 139.43201 144.91832 94.73883 234.17087-11.10637 27.83288-33.45297 44.55935-55.79956 66.90596-22.34659 16.72649-50.17947 27.83289-78.01235 33.45298-44.55937 5.62012-89.25256-5.62009-128.19182-27.83286-94.73884-66.90598-117.08544-211.82429-22.3466-289.97045 16.7265-11.1064 27.83288-33.452984 50.17948-39.073085 33.45298-11.106392 66.90596-22.346593 105.97904-16.726492 27.83288 5.6201 55.79957 16.726492 78.01235 27.832879 16.72649 16.726488 39.07309 22.346598 50.17946 44.559368 11.10641 16.72649 27.8329 33.45298 33.45298 55.79957 22.34661 66.90596 16.72649 139.43203-27.83286 195.09781-16.72649 22.34657-33.45298 44.55934-61.28587 55.79954-22.34659 5.62012-39.07308 22.34661-61.28586 22.34661-39.07308 0-83.63245 5.62008-122.70553-11.10641-117.08543-44.55934-167.26491-195.09777-105.97905-306.69691 16.7265-33.45298 44.55937-61.285864 78.01236-83.632457 44.55936-22.34659 89.25255-33.452979 139.43202-27.832879 61.28586 5.6201 111.46532 39.07308 156.1585 83.632456 22.34661 22.34659 27.8329 50.17947 39.0731 78.01234 11.10637 16.7265 5.62008 39.07309 11.10637 61.28586 11.10645 172.88502-195.09777 301.07685-351.25629 211.82429-27.83287-16.72649-50.17946-27.8329-66.90596-50.17947-61.28586-72.52608-78.01235-167.26492-50.17947-256.51747 16.72649-33.45298 39.07309-61.28586 61.28587-89.252546 39.07308-39.073083 94.73884-55.799574 144.9183-72.526064" fill="#221b35" opacity=".9"/><path d="m231.45148 15.388371c-120.56454 21.008472-220.12061 131.001869-209.68329 256.785079 5.21867 41.88313 15.78981 78.68141 41.88314 115.34586 15.7898 15.65602 31.4458 31.44582 47.23561 47.1018 31.4458 21.0085 68.11026 41.88314 104.77473 47.23563 36.66447 5.21866 73.32893 5.21866 104.77473-5.21866 36.66447-15.65601 68.11026-31.44582 94.33742-57.67295 31.44579-36.66448 52.45425-78.68141 62.89161-131.00187v-57.67294c-5.2187-26.22714-10.43736-47.23561-21.00851-73.32894-10.43731-21.00847-26.22712-41.88313-47.10179-57.672935-26.22713-26.227136-57.67292-41.88313-94.33739-52.454272-26.22714-5.218666-52.45427-10.43733-83.90008-5.218666-73.32893 10.437332-131.00187 57.672938-162.44767 120.564543-10.43733 26.22713-15.78981 57.67294-21.00847 83.90008 0 31.44579 5.21866 62.8916 15.78981 89.11874 21.00847 41.88313 52.45427 83.90006 99.55607 104.77473 15.7898 5.21866 31.4458 10.43732 52.45427 15.65601 115.34588 21.00847 220.12062-52.45428 235.91043-167.66635 10.43732-73.32894-21.00847-131.00188-68.11026-178.23748-94.33742-83.900079-251.56643-41.883137-293.44956 73.32893-5.21867 26.22713-15.78981 52.45427-15.78981 78.68141 5.21866 73.32893 52.45427 141.573 125.78321 162.44767 57.67293 15.78981 115.34587 5.21866 162.44767-31.44578 10.43733-10.43736 21.00849-21.00849 31.4458-31.44582 57.67295-78.68141 41.88314-183.45615-41.88313-241.12909-26.22714-15.7898-52.45428-21.008465-83.90008-26.227131-21.00847-5.218666-41.88313 5.218666-62.8916 10.437331-26.22714 15.7898-47.23561 21.00847-68.11027 47.1018-26.22713 31.4458-31.4458 62.8916-36.66447 99.55606 0 52.45428 26.22714 110.12722 78.68142 136.22052 73.32893 41.88314 173.01881 10.43736 209.68327-68.11025 21.00847-52.45427 10.43736-120.56454-36.66446-162.44767-31.4458-26.22714-62.8916-36.66447-104.77473-36.66447-62.89161 5.21867-104.77474 52.45428-115.34588 115.34588-10.43733 68.11027 31.4458 131.00187 99.55607 141.57302 94.3374 15.65599 173.01881-83.90008 131.00187-167.66635-10.43733-15.7898-26.22714-36.66446-47.1018-47.2356-26.22713-10.43733-52.45427-15.656-78.68141-10.43733-31.4458 5.21866-52.45427 26.22713-68.11027 47.23561-15.7898 26.22713-15.7898 52.45427-10.43732 78.6814 10.43732 31.44581 36.66446 57.67295 68.11026 68.11027 41.88314 15.78981 83.90008-5.21866 104.77474-36.66446 31.4458-52.45428 5.21866-110.12721-47.1018-131.00187-47.23561-15.78981-115.34588 26.22713-99.55607 83.90007 5.21867 15.65599 10.43733 36.66447 26.22714 47.23561 21.00847 15.78981 47.10179 15.78981 68.11027 10.43733 21.00847-10.43733 36.66446-31.4458 36.66446-57.67294-5.21866-15.7898-5.21866-36.66447-21.00847-47.23561-13.11356-7.8949-27.5318-10.50423-40.62864-7.86145-13.09684 2.64279-24.87229 10.53769-32.70029 23.65126-5.21867 15.656-10.43733 31.4458 8.9654 42.15076 39.20689-46.70036 33.05154-.26763 27.96669-16.05744v5.21867c15.78981-5.21867 21.00847-21.00847 26.22714-31.4458 5.21866 5.21866 15.65599 10.43733 15.65599 21.00847 10.43733 36.66447-26.22714 68.11027-62.8916 57.67294-31.4458-10.43733-41.88313-47.23561-36.66447-78.68141 5.21867-21.00848 21.00847-36.66447 47.1018-41.88314 31.4458-5.21866 62.8916 10.43734 78.68141 36.66447 15.65599 26.22714 15.65599 47.23561 0 73.32893-31.4458 52.45428-99.55607 52.45428-141.57302 10.43734-31.4458-41.88313-21.00847-110.12722 26.22714-136.22054 15.78981-10.43733 36.66447-15.656 57.67294-15.656 10.43733 0 26.22714 5.21867 36.66447 10.43733 26.22713 10.43733 36.66446 36.66447 52.45427 57.67294 5.21866 15.78981 5.21866 26.22714 5.21866 41.88314-5.21866 68.11026-68.11026 115.34586-136.22053 99.55606-78.68141-21.00847-115.34588-115.34587-68.11027-183.45614 10.43733-15.656 21.00847-26.22714 36.66447-36.66447 73.32893-41.88313 157.22901-5.21866 188.67481 62.8916 36.66448 89.11874-36.66447 193.89349-131.00188 188.67483-26.22713-5.21866-52.45427-5.21866-73.32893-21.00848-21.00847-10.43734-26.22713-26.22714-36.66447-36.66447-62.8916-73.32893-31.4458-183.45615 52.45428-225.33928 36.66446-15.789805 78.68141-15.789805 120.56454-5.21866 89.11872 31.4458 131.00186 136.22053 89.11872 220.12061-10.43731 26.22714-31.44578 41.88313-52.45425 62.89162-21.00847 15.78977-47.23561 26.22712-73.32894 31.44578-41.88313 5.21866-83.90007-5.21866-120.56454-26.22712-89.11874-62.89162-110.12721-199.11215-21.00847-272.5749 15.656-10.43733 26.22714-31.445801 47.1018-36.664467 31.4458-10.437328 62.8916-21.00847 99.55607-15.655994 26.22713 5.218666 52.45427 15.655994 73.32893 26.227136 15.65599 15.789805 36.66446 21.008475 47.10181 41.883135 10.43732 15.7898 26.22713 31.4458 31.44578 52.45427 21.00847 62.8916 15.78981 131.00187-26.22712 183.45615-15.78981 21.00846-31.44582 41.88313-57.67295 52.45428-21.00847 5.21866-36.66446 21.00847-57.67294 21.00847-36.66446 0-78.68141 5.21866-115.34587-10.43735-110.12721-41.8831-157.22901-183.45614-99.55607-288.23087 15.7898-31.4458 41.88313-57.672937 73.32893-78.681407 41.88313-21.008474 83.90008-31.445802 131.00187-26.22714 57.67294 5.218666 104.77473 36.664468 146.79166 78.681417 21.00851 21.00847 26.22717 47.10179 36.66448 73.32893 10.43732 15.78981 5.21866 36.66446 10.43732 57.67293 10.43735 162.44767-183.45613 283.01222-330.24781 199.11215-26.22713-15.65601-47.23561-26.22713-62.8916-47.23563-57.67294-68.11025-73.32893-157.22899-47.23561-241.12907 15.78981-31.4458 36.66447-57.67293 57.67294-83.900069 36.66447-36.664468 89.11874-52.454275 136.22054-68.11027" opacity=".9"/></g></g><path d="m65.774863 18.25c-14.065327 3.736169-35.601167 2.875094-23.976746 22.412839-.05785 18.208504 21.11855 1.898143 31.945496 2.413333-3.182698-6.926673-2.316782-22.136213-7.96875-24.826172zm190.097657 20.859375c-13.52092 5.383617-35.00011 7.095014-21.13752 25.111022 2.10854 18.089002 21.19913-.630218 32.01057-1.411803-3.98629-6.498615-4.94009-21.699767-10.87305-23.699219zm51.29102 22.398437c-10.01452 8.641915-25.29157 16.966067-7.89754 27.32136 6.63487 12.889578 14.1818 11.189128 22.27883.689841 16.83997-6.362381-9.96078-24.782469-14.38129-28.011201zm-260.888677 22.263672c-11.344195 7.672106-33.839488 12.353011-17.197266 27.536136 3.945753 13.95128 11.680432 13.78277 21.701047 5.09786 20.743899-6.40961-14.810062-23.587454 1.25989-35.958214-1.921224 1.108073-3.842447 2.216145-5.763671 3.324218zm382.650397 52.341796c-12.0293 6.7155-32.77751 18.55761-13.35772 30.36532 6.04211 16.29339 26.87107-8.97285 27.7848-14.31534-4.90854-4.98369-8.9199-12.52922-14.42708-16.04998zm-347.148444 5.48633c-4.14674 12.56188-12.981694 27.55177 7.265389 27.49685 12.315985 7.6461 17.920335 2.31252 19.467325-10.85825 11.4554-13.97311-21.403935-16.15028-26.732714-16.6386zm319.994144 122.42773c-10.10806 10.46961-28.97832 20.86819-8.93283 31.58444 9.36393 15.61896 19.05895-9.29615 28.59299-14.45358-6.3393-4.46793-13.38129-17.49405-19.66016-17.13086zm-259.9043 31.0293c-4.14691 12.56297-12.97816 27.55272 7.26919 27.49622 12.31727 7.64386 17.91983 2.31321 19.46494-10.8586 11.4525-13.97194-21.40616-16.14967-26.73413-16.63762z" filter="url(#a)"/><path d="m264.63427 454.83598 20.3418-45.39453c.67088-21.32094-2.35363-43.6611-6.75-61.60743 3.20153 2.31846 20.29086 14.57484 29.71604 22.74606 22.6903 19.67151 45.19164 38.72542 64.35027 63.0508l16.48437 20.92969 77.77344-135.44727-43.91602-24.30859-40.875 38.8125c-24.98085-28.23697-56.17074-50.3728-88.46484-73.47657-1.13701-3.08138-2.34872-6.09939-3.66211-9.02734 8.56766 1.95723 18.54148 3.61236 25.54687 1.77734 17.63937-6.37285 27.88997-27.75978 33.14944-43.10942l25.10643-11.40039c18.38651-9.77221 29.35744-21.32984 30.63672-42.00881-.20551-23.6342-14.26008-47.1283-34.47265-53.64943-26.49899-2.60237-55.23586-1.50361-78.92578-1.69727-35.12441-.29306-73.83383-1.328722-86.83985-2.691406 1.30617-18.384535-4.73219-37.033862-16.80201-50.575824-18.42096-19.927134-41.29746-32.311351-65.40496-33.548129-16.33729-.0056-31.073415 5.601656-40.156245 17.239258-9.689318 12.414175-11.103064 29.262514-6.560547 44.576172 4.638088 15.637602 15.003857 30.549329 30.164072 42.365229v.002h.002c4.14871 3.23258 8.44299 6.02068 12.81445 8.4375-.48268 20.89262-1.75454 40.89509 1.38667 60.98437 1.95204 12.48405 6.7667 24.35946 10.74805 36.35157 11.80153 32.29158 27.75392 65.0664 45.1289 91.06445 13.55745 20.09943 28.94884 63.31218 30.72266 85.63476l-45.63086 115.67383 157.23047 1.64258 2.07227-53.77734c-18.30483-3.18859-36.60952-6.378-54.91405-9.56836zm28.05075-251.41996c-.98003 14.05141-4.82836 22.12369-9.78906 34.48828-9.38732-14.36972-18.59493-28.86748-28.23828-43.06838 13.1606 2.04862 25.92673 4.61227 38.02734 8.5801z"/><g fill="#775fa0"><path d="m120.16493 32.179035c-10.812.018-19.293 3.666-24.505005 10.344-5.56 7.123-6.867 17.012-3.494 28.383 3.372 11.37 11.602005 23.646 23.973005 33.287995 12.372 9.64 26.29 14.625 38.15 15.125 11.856.5 21.136-3.178 26.696-10.3 5.56-7.124 6.866-17.011995 3.493-28.381995a50.804 50.804 0 0 0 -1.172-3.434c-8.79 6.754-14.632 18.57-22.014 13.644-2.02-1.347 4.205-17.284 13.49-28.98a75.225 75.225 0 0 0 -9.41-10.39l-25.328 12.17-13.696-12.644c2.028-1.745 18.215-4.463 31.54-5.603-11.69-8.362-24.503-12.712-35.532-13.176a50.13 50.13 0 0 0 -2.193-.045zm77.887 83.711995a41.26 41.26 0 0 1 -2.867 4.192c-9.75 12.493-25.473 17.895-41.658 17.213-5.973-.252-12.08-1.295-18.166-3.096-.692 8.702-.662 17.523-.018 26.373l7.3-3.37.5 16.885 12.91 2.485-7.448 14.898 17.38 15.395-16.388 6.457 8.444 9.435-6.967 6.45c10.697 28.977 25.217 55.522 39.002 75.956 16.78 24.877 33.407 70.446 34.106 98.352l-37.594 95.297 113.575 1.187.793-20.564-7.577-1.32-12.673 12.322-10.43-8.94h-8.94l-1.312-9.193-21.28-3.708 28.37-63.31c1.334-37.238-10.187-63.18-18.72-100.418 17.34 11.887 34.13 23.517 50.22 35.474 3.39-3.158 7.75-5.67 14.87-6.342 4.78 7.99 5.047 14.693 4.413 21.137 25.186 20.06 48.29 41.65 68.536 67.356l55.403-96.488-16.375-9.064-45.36 43.074c-25.322-34.38-62.046-59.99-101.895-88.56-3.014-9.555-7.292-18.512-12.196-27.055-3.357 4.796-7.873 9.123-11.627 12.125-7.314 5.85-20.288 2.142-23.34-3.973-3.05-6.116 11.094-9.658 7.946-15.395-3.148-5.738-17.153 3.158-21.852-1.987-4.697-5.145-6.025-13.1 0-19.865 3.768-4.228 12.42-6.017 20.75-5.955a54.94 54.94 0 0 1 4.968.266c-8.813-12.567-16.915-24.728-21.516-37.208 29.466 3.21 58.927 6.432 86.832 17.442 5.666 15.217 1.188 30.435-4.916 45.652 4.516.913 9.738 1.007 14.41-5.498 12.134-16.9 20.338-37.936 14.387-58.414-1.382-4.756-40.025-14.216-77.795-22.226 27.81-3.497 57.99-5.808 89.506-7.452 14.352 4.97 21.266 19.44 21.828 40.266 15.58-7.543 19.9-15.453 20.506-26.77.937-17.48-12.432-32.673-21.85-35.517-3.76-1.24-137.436.263-166.195-4.005z" stroke-width="36"/><path d="m64.754925 22.603035-21.906 5.22 4.174 17.508 21.904-5.22zm190.625005 20.951-21.128 7.79 6.226 16.888 21.13-7.79-6.227-16.888zm52.932 22.277-13.496 11.91 14.897 16.883 13.498-11.908-14.9-16.886zm-265.800005 24.73-15.595 8.994 11.25 19.505995 15.592-8.992-11.25-19.504995zm385.615005 49.545995-17.315 14.394 11.508 13.842 17.314-14.396-11.506-13.84zm-343.145005 4.61-5.457 17.154 21.460005 6.828 5.456-17.155-21.460005-6.826zm318.168005 123.564-16.05 15.793 12.622 12.832 16.053-15.794-12.625-12.832zm-258.078 29.894-5.455 17.153 21.46 6.827 5.454-17.153-21.46-6.826z"/></g></svg>