<svg height="500" viewBox="0 0 500 500" width="500" xmlns="http://www.w3.org/2000/svg" xmlns:xlink="http://www.w3.org/1999/xlink"><radialGradient id="a" cx="1362.7291" cy="216.11429" gradientTransform="matrix(1.0000001 -.0000059 .0000001 1.0000003 -112.72927 33.893757)" gradientUnits="userSpaceOnUse" r="250"><stop offset="0" stop-color="#ff851a"/><stop offset=".42441937" stop-color="#f87000"/><stop offset=".86367416" stop-color="#f26900"/><stop offset="1" stop-color="#e55f00"/></radialGradient><g transform="translate(-1000)"><path d="m1500 250a250 250 0 0 1 -250 250 250 250 0 0 1 -250-250 250 250 0 0 1 250-250 250 250 0 0 1 250 250z" fill="url(#a)" stroke-linecap="round" stroke-linejoin="round" stroke-width="1.002"/><path d="m1309.2298 33.82789c128.5196 30.706851 207.8974 167.48127 169.5927 291.56949-31.3771 95.69524-112.8693 162.03793-212.5543 174.60263 153.1796-8.09118 266.0956-163.0043 218.7012-309.92978-36.4562-114.666588-154.6038-191.5214848-270.6514-169.822657-18.8526 4.215647-38.4387 10.498641-55.8829 18.694487-112.5353 47.459213-168.47522 196.206-99.9632 307.85319 57.6978 93.63045 168.5136 141.8489 267.9993 100.77239-134.92 68.97589-303.283-51.46877-311.488-201.30723-4.4167-117.68321 76.8182-219.674136 190.654-246.26040176-89.0147 9.18391126-152.6601 79.39239576-187.7408 157.21169176-38.45522 102.70317 5.2337 231.75078 109.038 294.08388 114.5107 66.1048 260.3537 29.37245 323.6836-83.60152 42.2104-77.69758 34.3514-177.62383-23.1776-249.88923-57.5404-72.257811-157.5429-102.460489-246.4118-71.877168-81.7429 30.682061-131.1298 101.133078-134.0478 190.176958.6692 92.68536 61.7912 168.55972 147.5399 198.52472 128.5549 37.82014 266.7725-70.33038 233.6823-209.88949-14.7104-64.39775-57.8855-122.14991-125.7378-141.121386-71.391-15.467036-138.9716 1.205-181.2869 64.641366-18.8995 29.2286-28.9384 85.21395-26.105 97.65297m0 0c13.5324-50.18833 30.6277-97.66354 72.2125-128.94941 53.182-38.308183 124.4576-37.093813 181.7444-.48035 50.1457 36.48017 75.4845 90.37713 72.3557 150.91678-6.6674 64.04407-38.4038 109.83277-91.6401 141.00844-63.9019 34.56125-135.3795 4.83213-189.1258-35.28385-78.8706-65.48566-79.7477-186.67235-8.9744-256.76104 63.7369-55.941605 167.0207-64.891564 238.7167-6.65053 78.8163 58.35315 90.3045 169.04089 40.972 246.62443-35.2274 56.41892-88.4571 87.60135-152.5581 93.63158-81.9488 2.18264-160.666-41.91503-196.8695-120.9383-36.2055-79.02511-22.5771-164.33167 26.8727-227.66064 49.4316-63.30896 138.3491-86.746364 220.4504-67.54202" fill="#c50"/></g><path d="m212.52734 354.60938c-2.80863-.053-6.46083.53854-10.83398 2.91992-10.95148 5.96356-15.17662 14.28364-18.88086 20.91992-1.85212 3.31815-3.3326 6.36538-6.3125 11.33984-2.9799 4.97447-3.74579 9.98469-3.61914 9.80274l-7.58008 6.875c-5.68878 5.15991-12.27637 10.40075-18.49414 16.52343v.00196h-.00195c-6.05833 5.96756-11.31824 12.19875-14.47461 20.58203l-6.41602 17.03906 17.11133 6.2207c6.66248 2.42178 15.40828 5.90335 26.67383 6.85157 13.65273 1.1487 30.77477-1.91048 51.13867-12.85743l8.97266-4.82421 1.44336-30.26953 1.51367-.41211c.39998-.46265.59705-.7702 1.10547-1.2461 2.30138-2.1542 5.58162-5.09493 8.97851-8.65039 3.3969-3.55546 7.01531-7.67459 9.97266-13.3457 2.95735-5.67113 5.35232-13.95592 2.92187-22.72461-3.40065-12.26913-14.32277-18.03156-21.33984-20.29688-7.01707-2.2653-13.02717-2.86741-16.11328-3.49609-.99278-.20225-2.95698-.90016-5.76563-.95312z" fill="#994100"/><path d="m212.99607 430.70441-.6804 14.2686c-18.0999 9.7299-30.9339 11.6316-41.1066 10.7757-8.3403-.702-15.1506-3.33-22.0338-5.832 1.6848-4.4748 5.2155-9.1296 10.2618-14.1003 5.238-5.1579 11.7369-10.3752 17.9568-16.01685zm-.55076-57.80793c-.75904-.0167-1.50029.0906-2.14453.44141-9.382 5.10892-15.93306 23.12779-18.22266 26.36328-.94777 1.33921-1.81623 3.1422-2.7539 4.92774l28.94336 8.86523.51367.1582c6.64132-6.81253 22.6108-18.69676 19.61914-29.49023-2.32494-8.38805-15.17205-9.22345-23.70117-10.96094-.7188-.14643-1.49487-.28801-2.25391-.30469z" fill="#ffa348" stroke-width="36"/><path d="m103.95898 200.46083c-7.890437.35551-15.820662 1.87781-23.496089 4.8418l-.002.002c-13.08248 5.05473-25.512099 15.33319-31.517578 30.63672-5.903613 15.04395-4.910593 32.19026.962891 49.88867 6.133651 18.51225 14.165854 32.77198 25.345703 42.9668 11.371202 10.37106 24.864643 14.82081 36.416013 16.29883h.002l.002.002c10.81013 1.37995 20.19081.94175 27.77734 1.05664l34.22656.51758-18.9707-28.49219c-2.53986-3.81457-4.92504-8.07036-7.11914-12.78906l-4.90235-10.54297-11.62695.13281c-5.60029.0646-10.1694.0389-12.93945-.31445-5.05029-.64592-5.72996-.85597-8.54102-3.41992h-.002l-.002-.002c-2.50066-2.27976-6.93068-8.11323-11.328125-21.38476l-.002-.004v-.004c-3.384613-10.19702-2.228031-14.53847-1.908203-15.35352.5056-1.28848-.453129-.63214 2.492188-1.76953l.0039-.002c2.60353-1.00331 10.63931-1.63597 17.71875-.0723l18.97461 4.19141 2.72851-19.24219c.62872-4.43422 1.47247-8.86726 2.51758-13.28906l4.18164-17.6875-17.72851-4.00977c-7.52111-1.7006-15.37323-2.51176-23.26368-2.15625z" fill="#994100"/><path d="m86.947808 222.09439c-9.172103 3.54386-17.30199 10.36759-21.247657 20.42218s-3.695114 22.62966 1.29173 37.65199c5.521818 16.66565 12.242114 27.89922 20.387646 35.32707 8.144054 7.42844 17.569383 10.59407 26.572313 11.74601 8.9128 1.13775 17.49048.78891 25.77059.9143-3.08134-4.62781-5.90638-9.68745-8.45854-15.17619-5.58318.0644-10.7973.13251-15.42379-.45769-7.08095-.90543-12.78104-2.85714-18.393823-7.97654-5.61396-5.11806-11.272244-13.88556-16.288235-29.02385-4.259177-12.83186-3.901518-21.68346-1.58066-27.59797 2.320858-5.91452 6.594094-9.60338 12.765661-11.98777 7.703197-2.97378 18.284297-3.02413 28.087317-.85885.70873-4.99856 1.6558-9.96993 2.82171-14.90281-12.07987-2.73139-25.009951-2.44136-36.304262 1.92012z" fill="#ffa348" stroke-width="36"/><path d="m136.36133 249.45117c-17.65235 7.33838-33.30163 16.13491-48.033205 26.4668-5.382474-1.43694-10.63799-1.99172-15.529297-1.83985-13.64596.32814-23.412847 7.29645-32.660156 15.58008l-19.878906 17.77539 21.078125 10.38868c-5.046325 17.18393-2.453885 35.29628-2 53.61523 9.676714-5.5449 19.374072-12.33286 29.076171-17.37695l6.496094 48.01757 26.320314-34.24609c7.19522-9.36209 13.81711-19.90585 18.41406-33.46094 3.59101-1.77459 7.10446-3.43367 10.41406-4.87109 10.57465-5.34264 20.31809-6.01676 31.91407-7.45508-1.74727-13.90718-1.51965-30.54781-5.01172-41.46875-4.77657-13.5244-11.37934-20.68458-20.59961-31.125z" fill="#994100"/><path d="m52.13633 303.0766 15.521358 7.64957-6.013398 7.04016c-3.307444 3.87188-4.555804 7.91032-5.023672 13.86237-.191704 2.43679-.1311 5.3265-.05738 8.3038 6.052272-3.67216 12.202514-5.96634 18.44975-8.00482l8.209978-2.67826 3.734748 27.61321c7.810074-10.16212 14.531506-21.66998 17.783066-33.31904-.61335-5.83132-.93524-11.67874-3.75537-16.6021-2.970463-5.18579-6.251273-9.323-13.08311-12.25876-11.854048-4.75143-18.274715-3.65374-24.205975-.50197-3.766864 2.00197-7.545207 5.30594-11.559995 8.89584zm79.45547-31.83246c-5.83967 2.58331-16.0053 8.24548-25.38086 14.12695 4.67975 4.10568 8.17087 8.74103 10.39453 12.62305 3.12394 5.45376 4.44192 10.56904 5.06836 15.5293 8.02196-3.51702 16.24975-6.63346 20.87305-7.20703-.73267-8.47347-.56161-13.68226-2.67969-20.10157-1.78678-5.41522-3.81176-9.91659-8.27539-14.9707z" fill="#ffa348" stroke-width="36"/><path d="m411.23043 152.65231 33.23828 1.72266-22.6582-27.23437 33.21093-20.31055-44.3789-9.314455c-14.0705-3.024232-29.01831-3.059741-41.37496 1.539092-17.79287 11.448563-30.03828 26.271453-29.72071 44.623093-3.79424-2.65813-7.64614-5.21405-11.61328-7.49609l-12.96875-7.46094-8.87499 9.33985c-12.8853-7.46673-25.69834-11.53522-40.39563-15.76015-5.8468-1.52969-17.05001-2.68108-28.23721-2.33359-7.38639-18.15514-28.47807-27.021195-46.56643-19.71875-18.08966 7.30296-27.08168 28.43472-19.36035 47.18164-6.61088 7.42914-12.75715 15.03451-15.50016 19.54264-7.42512 12.0061-13.8421 26.38945-17.57504 38.41341l-11.23248-2.76893-5.79876 17.19178c-7.96949 30.2419-8.07316 62.54633 4.45117 93.29883 13.11564 32.20439 35.9856 51.68723 62.31055 59.29102l13.90625 13.64843c10.17134 9.98238 23.10915 15.52051 36.07617 17.62696 23.09396 3.75149 47.92239-2.14961 73.33398-12.41211 25.41105-10.26229 47.43644-23.278 58.43347-37.95509 10.99703-14.67708 16.50021-27.75763 16.80481-42.11917l.40039-18.86133 4.92774-7.46875c10.28651-4.31008 21.22147-10.60885 30.64258-20.42187 13.93655-14.5163 22.56871-38.76021 14.16015-64.94046-6.04434-18.81903-18.4618-35.14077-25.64062-46.8428z" fill="#994100"/><path d="m187.84675 139.98276c1.9623 4.81826 5.81445 8.30752 10.35852 9.96572-11.82021 7.39081-21.54223 17.7542-29.18127 30.27077 0 0-5.47998 9.86943-7.74772 15.02937-2.07299 4.71682-3.78156 9.4894-5.33178 14.50804 22.24316-.87929 48.25933-5.87036 74.88221-16.62205 26.95408-10.88544 49.59097-24.74057 65.94034-39.66039-4.56451-2.52006-9.06775-4.77413-13.7972-6.72619-5.44356-2.2468-16.71784-5.713-16.71784-5.713-15.45985-4.0213-30.90926-4.50808-45.6266-.71361 1.80619-4.18932 1.99922-9.06962.14155-13.63096-3.68774-9.05497-14.04723-13.42154-23.13859-9.75127-9.09061 3.66996-13.46966 13.98787-9.78162 23.04357zm180.995 62.6594c-13.36354 3.84011-19.98254 10.292-23.2855 17.64213-3.30311 7.3519-3.1699 16.25044-.29657 24.7959 2.8726 8.54576 8.51228 16.49182 14.96233 21.35881 4.2194 3.18407 8.53944 5.05103 12.99569 6.0666 22.07744-6.02534 59.77301-26.23368 46.51551-67.50582-9.8601-30.70003-56.33039-72.85047-15.40588-70.72913-6.07091-7.29698-5.01648-14.46942 2.61858-19.13877-9.27207-1.94594-21.32384-3.05046-31.26188.74092-8.76881 3.34577-15.89077 10.50312-18.00116 24.25805-2.67102 17.41551 28.80613 49.01332 11.15888 62.51131zm-226.29574 103.67504c13.00215 31.92573 33.01388 46.27409 58.51873 50.68101 25.50455 4.40621 57.06144-2.1487 90.15373-15.51306 33.09009-13.36347 60.42472-30.58171 75.76834-51.49478.89101-1.21538 1.74005-2.44295 2.55616-3.67952-6.66051-1.05892-12.95488-3.98366-18.32671-8.03793-9.20555-6.9466-16.28157-17.13639-20.09585-28.48056-3.81219-11.34329-4.33318-24.08775.82632-35.57125 4.51516-10.04712 13.47272-18.63073 26.70397-23.82931.72602-.28463 1.47627-.5499 2.22786-.814-11.14098-15.70453-25.84481-28.5463-41.91934-37.79295-18.50999 21.72032-47.19323 40.83766-82.52776 55.10755-35.52008 14.34484-69.87891 19.08233-97.60202 17.50308-7.19572 27.30567-7.16077 55.21328 3.71657 81.92172zm154.27588 48.92456c-28.44002 11.48555-56.43169 18.66489-82.12174 17.95895 7.32516 7.18907 16.12181 11.04323 26.35353 12.70534 17.67661 2.87147 40.06977-1.78889 63.70745-11.33499 23.63767-9.54611 43.06397-21.7746 53.82971-36.14283 6.26687-8.3628 9.93449-17.30125 10.1534-27.62231-18.04692 18.50077-43.3293 32.8885-71.92235 44.43584z" fill="#ffa348" stroke-width="36"/><path d="m335.27539 225.36523c-9.91399.13505-18.04935.63892-26.75586 6.52344-10.30756 7.26523-17.23044 19.06229-16.38867 30.13477 2.14035 14.532 12.41936 23.42506 23.96875 30.24414 11.34881 5.94948 22.35373 7.78685 34.75195 9.19726l13.94532 1.23243c2.79411 8.50954 7.56768 16.49001 14.88476 23.56835 4.80557 4.64895 9.96584 8.4697 15.02734 11.64454l41.53516 26.05273c-5.20438-16.52685-10.75549-33.79205-15.85547-50.05664l24.85547 9.75c-.69175-14.75942.67834-31.98598-4.31445-44.93945l38.82031-7.00196c-16.23611-11.05059-33.23653-26.78855-49.15625-35.06836-12.78521-5.31291-29.43797-6.3764-40.35547-2.23242-.04852.01871-.09233.04352-.14062.0625-18.73837-4.64248-37.16578-9.21728-54.82227-9.11133z" fill="#994100"/><path d="m393.49619 253.58548c-4.0485 5.58194-6.28156 9.5994-8.56743 14.83108-2.41528 5.52785-4.3583 9.3619-5.34856 17.28897.22302 7.33082 4.80531 20.06716 12.61651 27.62351 3.68109 3.56112 7.89741 6.71092 12.07735 9.33279-.55179-1.74134-1.09154-3.39971-1.62319-5.16354-2.28793-7.58417-4.74217-14.52281-3.22205-22.06718l1.6957-8.41708 25.41465 9.96933c-.22309-8.51611-2.72739-15.41357-8.29052-20.98173l-9.72402-9.73209 27.28775-4.92146c-4.18096-3.12484-8.40652-6.09878-12.75832-8.3375-8.62699-4.43896-18.86487-3.61458-29.55787.5749zm-57.14267-10.01907c-6.14458.22565-12.77185-.13421-17.75586 3.23437-4.42657 2.99181-9.03798 8.24055-8.54493 13.56055.6878 7.42132 8.77656 12.61634 15.19532 16.40429 8.12081 4.79241 27.45898 6.79688 27.45898 6.79688 1.54851-.27405 5.00122-.11618 8.94531.21094-.00003-.001.00003-.003 0-.004 1.32621-11.48114 4.56128-17.48027 8.33399-25.20703 1.34691-2.74723 2.85485-5.9226 4.66406-9.08594-15.1598-3.17626-31.35059-6.16467-38.29687-5.91015z" fill="#ffa348" stroke-width="36"/><path d="m321.92969 347.38672c-4.87117-.04387-9.67475.5665-13.91407 1.87695-7.58246 2.38809-16.72771 9.41951-19.11914 19.73828-2.39142 10.31877-1.76791 14.20627-.625 20.39649 1.14293 6.19021 2.58481 12.97496 6.79883 20.28515 3.636 6.30749 10.64596 9.08962 12.83399 10.6543l7.04882 33.41992 4.36133 3.92578c13.52216 12.16682 31.14467 15.27735 47.69532 15.27735 13.60013-.58675 26.7106-4.0046 38.4082-8.40821l22.35742-8.41796c-8.68996-10.3646-16.84757-24.28652-24.74609-32.9961-4.63667-5.05562-11.53454-10.14421-21.09961-14.49023l-10.50196-11.97266-.00195-.00195c-1.36586-2.85001-3.58562-7.5806-6.0918-12.59375-3.59834-7.19786-7.87222-15.33759-14.7207-22.67578-3.53752-3.79049-9.7567-12.54113-23.80859-13.75782-1.62052-.15856-3.25128-.24514-4.875-.25976z" fill="#994100"/><path d="m363.9305 421.03914c14.73555 4.43172 21.11026 9.1157 25.83399 14.26627 3.19527 3.48297 5.83623 7.72866 9.31102 12.40095-10.33062 3.889-21.87167 6.79801-32.84045 7.27127-13.47972.58041-25.61445-2.33794-34.88052-10.67526l-3.80305-18.03147c6.71461.84085 12.88541.938 19.22305-.007 5.91264-.88148 11.8194-2.58705 17.15596-5.22493zm-43.0555-55.64461c-6.51592.0538-13.50607 1.80659-16.11328 9.17578-.18381 3.72522 1.44379 18.39062 5.90234 26.125 1.65133 2.86461 4.73124 4.56429 7.39453 6.62305 8.82098 1.43453 17.27075 2.58447 25.97071 1.15625 3.92282-.64399 7.69998-1.90574 11.3789-3.47852-4.03728-8.17088-10.11413-22.911-17.95312-31.31054-3.33179-3.57004-7.33808-7.68423-12.20313-8.10547-1.39328-.12064-2.87328-.19795-4.37695-.18555z" fill="#ffa348" stroke-width="36"/><path d="m259.739 252.97814c4.59051.40744 8.95446 2.31855 12.38205 5.43498-6.35592.23042-11.72809 5.11754-12.38603 11.62355-.71886 7.10847 4.46194 13.45362 11.57042 14.17248 1.90868.19302 3.75659-.0494 5.46187-.62958-2.15055 4.26524-5.74824 7.83167-10.47282 9.87999-10.71811 4.64513-23.17143-.2787-27.81731-10.99563-4.64445-10.71868.27695-23.17286 10.99563-27.81732 3.3498-1.45243 6.86833-1.96979 10.26613-1.66785zm-70.9935 15.42965c5.25625.46713 10.21502 2.90187 13.80937 6.86668-6.29892.29111-11.60225 5.15932-12.25564 11.62032-.71886 7.10848 4.46056 13.45474 11.56966 14.17366.92498.0935 1.83505.0846 2.72254-.0132-2.18628 3.35119-5.3443 6.12238-9.29032 7.83272-10.71817 4.64576-23.1728-.27758-27.81731-10.99563-4.64576-10.71818.27689-23.17224 10.99563-27.81732 3.34975-1.4518 6.86834-1.96979 10.26607-1.66722z" fill="#994100"/></svg>