<svg height="500" viewBox="0 0 500 500" width="500" xmlns="http://www.w3.org/2000/svg"><g transform="translate(.000015)"><circle cx="-249.99998" cy="250" fill="#e51a1a" r="250" transform="scale(-1 1)"/><path d="m181.33938 83.856939c97.52275-31.84694 203.27597 26.159281 217.12696 131.568651 10.04116 85.89723-45.79566 162.6049-131.11288 174.6444-76.26503 6.65-147.16573-45.4981-149.44603-126.3231.16679-50.89801 30.03241-87.97493 76.60677-108.40662 44.00125-16.48183 90.46555-3.00917 112.28155 39.63622 17.95322 40.0953 3.57775 87.31302-40.4313 103.80676-21.98685 8.23292-51.6578-5.55285-56.72562-31.5612 24.48155 21.7253 69.7211 11.74379 80.1808-21.06198 5.24648-24.88185-11.48198-41.52298-24.36368-55.64156-23.21161-15.22125-63.26956-13.16738-85.32502 12.05139-41.51846 46.43224-18.48961 112.52397 35.72777 131.08081 60.66482 17.11352 118.96473-29.63961 126.96137-92.39988 2.7637-54.83226-40.99398-106.19486-96.51046-114.27807-76.21988-10.3001-138.45939 50.84936-147.743191 124.09106-9.31956 73.21828 47.315731 138.67973 111.863041 158.33924 49.05305 9.49897 98.18701 2.07129 139.64056-27.40671 82.90715-58.95602 100.11901-177.97214 43.55644-260.39974-52.71171-79.885311-158.575-103.987181-249.15842-67.061741-86.705021 39.45169-149.0660905 134.549061-117.102931 229.167621 15.77888-74.65377 50.93986-153.5943 123.407351-187.514491 9.28724-4.60517 19.44718-8.7232 30.56692-12.33106zm-160.722321 286.075591c-52.57825-113.8254-.38403-260.89182 113.777041-317.643861 10.84604-5.32012 22.21219-9.7712 34.03518-13.36069 115.76394-28.75816 246.03978 34.00351 263.68455 158.897471 10.04526 85.91695-27.72044 168.80365-107.97396 206.83173-102.24035 46.26108-224.798841-11.43986-234.690511-131.24969-7.33455-123.78718 127.307171-194.136761 222.718561-137.24102-42.54074-27.89653-94.21826-33.44528-140.80825-12.98978-71.17376 32.62266-105.080851 118.0397-80.762351 190.63139 30.697281 88.13423 123.572931 132.04164 212.817841 105.59803 82.80488-25.06359 132.16266-100.33164 140.19255-180.04986 12.12434-145.020371-132.23823-245.3588802-265.59709-221.973611 7.92036-4.10499 20.5989-8.4277792 35.61563-11.7452592 60.06317-13.23825 124.63426-3.45807 179.45368 32.4903392 109.65077 71.904621 141.09454 217.803071 65.16008 333.599141-143.00482 218.07486-377.311781 117.06797-437.622951-1.79433" fill="#b21a1a"/></g><path d="m87.847656 65.03125-6.833984 1.302734a250 249.99998 0 0 0 -81.013672 183.666016 250 249.99998 0 0 0 .71289062 9.97852c-2.25798542 37.40926 3.86159338 75.22266 19.90429738 109.95312 34.751153 68.48818 127.287802 130.87947 226.822262 129.88477a250 249.99998 0 0 0 2.56055.18359 250 249.99998 0 0 0 8.79883-.62891c2.52516-.14858 5.04927-.30989 7.58008-.54297a250 249.99998 0 0 0 233.62109-248.82812 250 249.99998 0 0 0 -.28125-11.47266c.67749-48.46979-13.44692-95.72804-40.58789-135.60546l-49.9668 9.52734-3.95703 4.06445c-5.26933 5.41432-12.34707 8.97635-20.03906 9.49024-7.03379.46898-15.05215-1.61085-23.14063-8.09375l-10.85546-8.70118-53.12696 39.57813-1.34375 4.43359c-17.70329-3.48786-36.12058-7.0547-51.88086-10.53906-10.22553-2.26071-19.24063-4.49572-25.49609-6.43164-3.12774-.96796-5.58094-1.88593-6.82227-2.44727-.74666-.33764-.75659-.47877-.26953-.10156-7.66656-6.87931-12.76417-5.61549-16.63086-5.60351-3.88735.012-7.31947.47651-10.98828 1.0664-7.33761 1.1798-15.39231 3.02875-23.20312 4.65039-7.81082 1.62164-15.42347 2.97536-20.17578 3.30469-.51624.0358-.40756-.00509-.84571.00391-11.42916-16.16055-25.03461-34.92826-48.652342-41.208988l8.681642 2.304688z" fill="#861313"/><path d="m76.369141 85.544922-17.208985 3.28125a250 249.99998 0 0 0 -59.160156 161.173828 250 249.99998 0 0 0 .71289062 9.97852c-2.25798542 37.40926 3.86159338 75.22266 19.90429738 109.95312 34.751153 68.48818 127.287802 130.87947 226.822262 129.88477a250 249.99998 0 0 0 2.56055.18359 250 249.99998 0 0 0 8.79883-.62891c2.52516-.14858 5.04927-.30989 7.58008-.54297a250 249.99998 0 0 0 233.62109-248.82812 250 249.99998 0 0 0 -.28125-11.47266c.53936-38.58741-8.32682-76.40063-25.63477-110.34765l-14.12109-7.0918-41.85547 7.98047c-8.15265 8.37695-19.3085 14.06665-31.74219 14.89648-11.69424.77972-24.29489-2.95217-35.5957-12.00976l-37.21875 27.72656c-1.30874 4.31563-2.90244 9.14249-4.69922 14.29297-43.01347-8.72636-101.90189-18.90517-108.58789-26.84766-6.46347-5.85257-63.67635 15.62751-71.14062 5.16797-11.90252-16.67875-25.48016-34.58952-42.013675-38.98633l-.25-.0664z" fill="#ff8066" stroke-width="36"/><path d="m350.76953 131.95509 19.33173 16.24099 5.64868 91.79999 17.86808 100.77438.63995-105.34958 9.20803-59.10079 16.57572 30.24957-.6443-64.34957c9.50495-3.08506 14.41433-6.5924 22.42587-12.376 4.63903 29.8192 18.28157 58.19841 37.57281 86.60001-9.29881-36.9963-15.31635-62.0732-15.19362-96.38435l-9.57056-13.67734-68.2667 37.58245z" fill="#861313"/><path d="m136.7867 129.28884-38.423419-29.288841c-10.212812 30.355211-21.016932 71.623041-36.509744 101.979841 19.44-18.71441 35.536024-39.92161 45.400023-62.2504l-10.924799 47.5c-12.370015 33.77922-24.697284 67.57407-37.075237 101.35039 7.768932 10.67781 15.50332 21.38071 23.250406 32.07439l-5.876674 12.72329c4.182236 2.4291 8.672542 4.77555 13.279219 7.09081v-.00011c3.245216-7.22812 6.535635-14.43595 9.722268-21.69014-7.864895-10.85095-15.732548-21.6999-23.599219-32.54956 18.52543-48.38067 31.806016-86.70346 53.093526-133.93358 8.81602 2.826 16.23476-.76485 27.14087.88025z" fill="#861313"/><path d="m160.07576 383.39621-3.85937 50.80271 34.91601-37.10154c1.28015-1.36014 2.22255-2.31874 2.72461-2.76174l.0801-.0741.0898-.0722c4.97759-4.50353 8.40915-5.89308 10.79102-5.76563.63567.0597 1.32962.17499 2.16992.41994l2.23828.65038 4.31055 4.31838c.0892.0892.69521.77677 1.48242 1.65233 4.28495 4.97979 8.50553 12.17394 12.13672 19.7246.003.004.005.008.008.0151 1.25382 2.65236 2.40662 5.30755 3.5293 8.00198l12.90234-2.42775-.9082 39.46292 31.69141-31.418c8.35247-8.27921 15.64351-12.91113 20.23242-12.85157.85837.0265 1.351.1406 2.06836.45702l3.55078 1.56643v.67189l5.12891 5.28514c1.86767 1.92102 4.26098 4.87649 6.4375 7.72852l9.13086 11.96682 13.39257-6.86525c2.76414-1.41755 6.42574-3.17779 10.86524-5.10157l5.66211-2.45899 7.18164-2.50194c4.50755-1.57081 8.82386-2.69265 12.46875-3.11524l17.9531-2.08202-2.14843-17.94531c-8.2131-68.49107-18.72036-141.03424-32.1113-216.9685h.60547l-4.04493-21.34765c-1.2655-6.68016-2.72336-13.42026-6.39257-20.48438-2.85855-5.60797-9.32499-12.37508-16.43753-15.05627-.84218-.31748-1.69342-.57767-2.5488-.77186h-.008-.008c-15.71204-3.55693-32.15786-5.66669-48.5349-6.82812-21.28277-1.89656-37.05126-1.49447-57.8088-.71478-28.27935.65256-53.311 4.3814-82.22654 7.88288l20.64649 25.32031 10.3496 13.4902c.39715 71.29188-2.22257 143.12454-7.70703 215.29686zm9.95917-16.04891c-.0514.0454-.0664.074-.11721.11913-.0117.0106-.0333.0185-.0449.0295z" fill="#861313"/><path d="m240.02364 145.81536c-8.07999 0-16.16001.168-23.68003.456 1.30317 2.8738 2.31233 5.83876 3.10308 8.76126 1.05391 3.89508 1.71987 7.71476 2.17692 11.14274.80002 9.312-12.48 9.872-14.23997 1.936-.96-6.888-3.68001-15.832-7.12003-20.98401-12.15998.80001-23.11997 1.88001-32.23997 2.98401 5.83997 7.16 14.4 17.43999 14.4 24.81599.39999 71.75201-2.24001 144.07201-7.76001 216.71201 1.28001-1.35999 2.55998-2.72001 3.92001-3.92001 6.72-6.07998 14.71997-10.95999 24-10.39999h.0801c2.08003.15999 4.08.56 6 1.12.15988-13.28.48-24.72.0801-35.52 4.23999 4.48 8.55999 8 14.4-.48.56001 14.08-.0801 28.4-.24 45.51999.87999.88002 1.59999 1.76001 2.4 2.64 5.92003 6.88002 10.72003 15.36 14.72001 23.68002 1.44 3.03999 2.72002 5.99997 3.92002 8.87997 1.03997-45.19998.39998-90.31998-1.76002-135.51998 6.87999 9.04 10.64001 5.6 14.4-.64 2.16 45.28 2.79999 90.64 1.76001 135.91998 9.12-9.03999 20.07999-18.31998 33.27999-18.07998 3.27999.0801 6.24.80001 8.96001 2.00001l.0801-19.12002c6.32001 7.12002 10.72003 5.52 14.4 0l-.15987 30.56001c2.79998 2.88 5.52 6.31998 7.83998 9.36 3.12-1.60002 7.12003-3.52002 11.92003-5.60001l-4.56-59.11999c4.8 4.4 9.6 8 14.4-1.12l4.23999 54.8c5.28-1.83999 10.8-3.36 16.32-3.99999-8.96002-74.72001-20.16-153.60001-35.43999-237.11201h.0801c-1.11998-5.912-2.64-11.68-4.71998-15.648-2.00002-3.96-3.99999-5.784-6.96-6.456-14.55999-3.296-30.15999-5.32-45.84-6.432 6.87999 13.712 6.72 27.976 6.87999 39.728.88002 8.64-13.75998 13.6-14.4.15999-.24-14.968.15987-28.368-10.15998-40.784-4.8-.15999-9.6-.23199-14.48001-.24z" fill="#e51a1a"/><path d="m63.530283 401.80198c-3.416013-.0801-6.384.96-7.880013 3.6-6.615987 11.52 24.624 31.44 24.624 31.44s5.504012-21.19997-.792-28.23999c-3.351988-3.68001-10.263987-6.72-15.951987-6.80001z" fill="#e51a1a" stroke-width=".015257"/><path d="m430.30434 488.31244 11.50781-2.37695 2.45898-11.49414c3.99462-18.71755-4.55173-36.56167-15.54687-47.06641-12.82976-12.37187-29.03468-19.25404-42.83789-23.71094-.003-.0009-.002.00095-.006 0-9.529-3.13073-15.4242-1.57276-22.47852-.27344-7.05641 1.29986-14.33913 3.42745-21.24609 6.14258l-.0293.006-.0293.0156c-7.90756 3.14135-9.98512 4.53736-14.77735 6.63281-2.37375-2.46323-2.41415-2.93389-5.05664-5.82031l-.0449-.0527-.0527-.0508c-3.78029-4.06666-7.69535-7.24439-11.38282-9.78125-1.84373-1.26845-3.58665-2.35847-5.56445-3.36719-1.95729-.99824-2.40536-2.69494-10.24023-2.73046-11.16903-.13191-15.44625 3.84409-21.29493 7.64062-5.87594 3.81422-11.65892 8.58011-16.95703 14.02539-2.36302 2.42925-2.07684 2.5621-4.05273 4.8418-1.83987-4.84796-3.44228-9.46556-6.07617-14.9707-4.06755-8.66623-8.88031-17.19515-15.10157-24.50782l-.31054-.36133-.33203-.35351c-5.50292-5.80625-12.2704-11.23133-21.23047-12.96289l.00045-.00007-15.06446 3.28906-15.03125 7.12695c-7.29857 6.62487-12.98094 14.55066-18.01953 22.41797l-.0371.0664-.0371.0605c-5.07758 8.0697-9.17272 15.93452-12.03906 21.85742-11.56316-4.59326-23.06619-8.07534-36.21484-8.57813h-.008-.008c-10.91091-.40683-20.221459 4.21566-26.810543 10.06055-6.589085 5.84489-11.181923 12.96029-13.289063 21.5625l-.05078.20703-.04492.19922c-2.340098 10.62176 1.551909 24.11643 10.822266 35.64062l4.583984 5.69141 7.25.89258c41.052006 5.03958 61.955496 8.33397 142.123336 11.4692 97.86247.30039 143.3562-1.223 192.55635-11.38717z" fill="#861313"/><g fill="#e51a1a"><path d="m191.62626 391.48198c-5.19999 4.71999-10.39998 11.67999-14.95998 18.80001-8.96001 14.24002-15.04002 28.8-15.04002 28.8l-2.88 6.96c-17.59998-8.88-29.52-13.44-46.25598-14.07998-10.728-.40003-19.80801 9.19997-21.94401 17.91998-1.128 5.12002 0 11.44003 7.271999 20.48002 96.447991 11.84001 248.688001 16.88001 328.847981.32012 2.80002-13.11999-1.83999-22.16001-10.39998-30.32001-9.36-9.03999-23.84001-15.68001-35.99999-19.59999-5.84-1.92-19.91999.96-31.52 5.52-11.67999 4.63998-21.12 9.99999-21.12 9.99999l-5.91999 3.36-3.68001-5.60001s-3.84-5.83998-9.03999-11.52c-5.28-5.67999-12.40002-10.15998-14.16-10.15998-5.28-.0801-16.56 7.35999-25.2 16.23999-8.56002 8.79999-14.88 17.76-14.88 17.76l-8.80002 12.40002-4.08-14.64003s-4.23999-15.27999-11.52-30.48c-3.6-7.68-8.00002-15.20001-12.56001-20.55999-10.15998-10.72002-16.23999-10.40001-26.16-1.60002z"/><path d="m417.86626 377.64198c-16.23999.88-13.44 46.88003-13.44 46.88003s22.16001-8.4 24.96-18.32002c2.79999-9.84-1.28001-29.12001-11.52-28.56001z" stroke-width=".015257"/><path d="m394.02625 361.24198c-.39999 0-.72 0-1.03998.08-9.35999 1.76-11.12001 19.04001-6.64002 27.92001 0 0 15.04002-7.28002 15.84-14.40001.64002-5.04-3.19998-13.44-8.16-13.6z" stroke-width=".015257"/><path d="m138.42627 364.28198c-.63999.48-1.04001 1.12-1.35999 1.84-3.36 7.92 18.07998 18.48001 18.07998 18.48001s4.72002-13.92001.48-18.24001c-3.75999-3.84-13.27998-5.6-17.19999-2.08z" stroke-width=".015257"/><path d="m100.50627 364.60199c-8.583988-.24-12.927988 15.11999-10.704 23.44002 2.943987 11.04 27.82401 19.83998 27.82401 19.83998s-1.60002-42.88-17.12001-43.28z" stroke-width=".015257"/></g><path d="m297.30627 219.96199c2.72001 40.56 3.44001 72 4.48002 123.84-4.00002 4.32-7.84002 9.36-14.4.32001-1.04001-51.83999-1.76001-82.96-4.48002-123.2 6 7.44 10.48002 4.8 14.4-.96z" fill="#ff8066"/><path d="m255.46629 198.20199c2.55999 22 3.43998 34.32 3.12 47.92-5.12001 7.6-9.84 6.32-14.4-.32001.32013-12.8-.56001-24.16-2.96001-46 5.60001 6.88 10.23999 5.28 14.24001-1.6z" fill="#ff8066"/><path d="m214.26627 180.20199c2.79999 44 1.92 87.28-.56001 130 .15987 8.8-12.24 11.28-14.4-.8 2.48001-42.4 3.36-85.04.56001-128.24 7.11999 10.64 11.36001 7.44 14.4-.96z" fill="#ff8066"/><path d="m316.02627 164.15399c9.12 35.008 16.48002 95.568 21.68001 131.248-.72 14.08-11.36001 10.72-14.24001 2.08-5.19999-36-12.87999-96.88-21.36-129.672 7.92 6.16 12.80001 5.52 13.92-3.656z" fill="#ff8066"/></svg>