<svg height="500" viewBox="0 0 500 500" width="500" xmlns="http://www.w3.org/2000/svg" xmlns:xlink="http://www.w3.org/1999/xlink"><radialGradient id="a" cx="1362.7291" cy="216.11429" gradientTransform="matrix(1.0000001 -.0000059 .0000001 1.0000003 -112.72927 33.893757)" gradientUnits="userSpaceOnUse" r="250"><stop offset="0" stop-color="#ff851a"/><stop offset=".42441937" stop-color="#f87000"/><stop offset=".86367416" stop-color="#f26900"/><stop offset="1" stop-color="#e55f00"/></radialGradient><g transform="translate(-1000)"><path d="m1500 250a250 250 0 0 1 -250 250 250 250 0 0 1 -250-250 250 250 0 0 1 250-250 250 250 0 0 1 250 250z" fill="url(#a)" stroke-linecap="round" stroke-linejoin="round" stroke-width="1.002"/><path d="m1309.2298 33.82789c128.5196 30.706851 207.8974 167.48127 169.5927 291.56949-31.3771 95.69524-112.8693 162.03793-212.5543 174.60263 153.1796-8.09118 266.0956-163.0043 218.7012-309.92978-36.4562-114.666588-154.6038-191.5214848-270.6514-169.822657-18.8526 4.215647-38.4387 10.498641-55.8829 18.694487-112.5353 47.459213-168.47522 196.206-99.9632 307.85319 57.6978 93.63045 168.5136 141.8489 267.9993 100.77239-134.92 68.97589-303.283-51.46877-311.488-201.30723-4.4167-117.68321 76.8182-219.674136 190.654-246.26040176-89.0147 9.18391126-152.6601 79.39239576-187.7408 157.21169176-38.45522 102.70317 5.2337 231.75078 109.038 294.08388 114.5107 66.1048 260.3537 29.37245 323.6836-83.60152 42.2104-77.69758 34.3514-177.62383-23.1776-249.88923-57.5404-72.257811-157.5429-102.460489-246.4118-71.877168-81.7429 30.682061-131.1298 101.133078-134.0478 190.176958.6692 92.68536 61.7912 168.55972 147.5399 198.52472 128.5549 37.82014 266.7725-70.33038 233.6823-209.88949-14.7104-64.39775-57.8855-122.14991-125.7378-141.121386-71.391-15.467036-138.9716 1.205-181.2869 64.641366-18.8995 29.2286-28.9384 85.21395-26.105 97.65297m0 0c13.5324-50.18833 30.6277-97.66354 72.2125-128.94941 53.182-38.308183 124.4576-37.093813 181.7444-.48035 50.1457 36.48017 75.4845 90.37713 72.3557 150.91678-6.6674 64.04407-38.4038 109.83277-91.6401 141.00844-63.9019 34.56125-135.3795 4.83213-189.1258-35.28385-78.8706-65.48566-79.7477-186.67235-8.9744-256.76104 63.7369-55.941605 167.0207-64.891564 238.7167-6.65053 78.8163 58.35315 90.3045 169.04089 40.972 246.62443-35.2274 56.41892-88.4571 87.60135-152.5581 93.63158-81.9488 2.18264-160.666-41.91503-196.8695-120.9383-36.2055-79.02511-22.5771-164.33167 26.8727-227.66064 49.4316-63.30896 138.3491-86.746364 220.4504-67.54202" fill="#c50"/></g><path d="m249.99609 23.322266c-32.34665 0-62.99751 15.641119-86.16601 36.933593-15.41689 14.13268-27.4214 30.353535-33.92383 47.416021-8.87974-12.448779-19.15843-22.353607-32.279297-30.621099l-33.574219-21.154297 6.199219 39.195313c3.263627 20.634203 2.051027 38.324303-3.009766 52.152343l-.0059.0176-.0059.0176c-4.492559 12.3545-12.14421 21.91438-23.154297 28.88281l-8.07609 5.11129-24.033203-10.99805 10.632812 19.47852-7.570312 4.79101 13.246094 5.60742 9.626953 17.63868c10.437269 19.12173 13.743098 35.7358 12.576172 51.33984-1.40777 17.83414-8.833955 34.97233-19.798829 52.85351l-13.029296 21.2461 24.265625 5.6875c52.251387 12.2464 86.529724 17.13649 141.880854 94.1582 13.69411 19.06386 35.7592 33.60156 66.19922 33.60156 30.44238 0 52.50731-14.53942 66.20118-33.60546 55.34912-77.01749 89.6357-81.90799 141.88671-94.1543l24.26563-5.6875-13.0293-21.2461c-10.96488-17.88118-18.39105-35.01937-19.79883-52.85351-1.16691-15.60409 2.13755-32.22441 12.5918-51.45703l9.49805-17.47266 13.46875-5.70312-7.72852-4.85938 10.53906-19.38867-23.94531 10.95703-8.06445-5.07226c-11.07439-6.96506-18.69563-16.48872-23.18945-28.83008-5.00048-13.86852-6.20581-31.58588-2.94336-52.212893l6.19922-39.195313-33.57422 21.154297c-13.12089 8.267505-23.40547 18.171963-32.28907 30.623049-6.50222-17.062316-18.5053-33.285353-33.92187-47.417971l-.0117-.0098c-23.1672-21.287202-53.81286-36.923793-86.15432-36.923793z" fill="#994100"/><path d="m249.99549 41.321623c-26.19772 0-53.56981 13.424073-73.98595 32.187057-19.78379 18.130624-32.61166 41.16655-33.42471 58.96293 6.80175 13.42718 36.61436 67.82217 20.23899 74.16664-17.0999-15.03531-25.87804-48.99561-35.77693-68.65607-11.11143-22.2229-21.31049-34.54487-39.016518-45.701483 3.613493 22.846223 2.529449 43.623733-3.884485 61.149083-5.781581 15.8993-16.17033 28.90784-30.443565 37.94156 34.779742 14.72488 85.954778 65.88207 80.945618 72.88319-5.0092 7.00113-51.134443-41.44595-80.945618-55.08684 11.834117 21.68085 16.170331 42.09702 14.724926 61.33879-1.716397 21.86154-10.659741 41.73566-22.403565 60.88713 52.034078 12.19547 94.935117 21.22915 152.389377 101.17738 11.74383 16.35099 25.6557 26.10739 51.58243 26.10739s39.8386-9.7564 51.58242-26.10739c57.45431-79.94823 100.36433-88.98191 152.39841-101.17738-11.74383-19.15147-20.68718-39.02559-22.40359-60.88713-1.44538-19.24177 2.8908-39.65794 14.72495-61.42915-29.81117 13.64088-75.94092 62.13312-80.95463 55.1772-5.0137-6.95591 46.17491-58.15831 80.95463-72.88319-14.36356-9.03372-24.75233-22.04226-30.53389-37.94156-6.32358-17.52535-7.40761-38.30286-3.79416-61.149083-17.70603 11.156613-27.91409 23.478583-39.02558 45.701483-9.44545 12.40859-27.11063 70.44087-36.05843 68.65607-14.62009-12.39296 14.55259-62.2375 20.52051-74.16664-.81304-17.79638-13.6409-40.832306-33.42469-58.96293-20.41614-18.762984-47.78823-32.187057-73.98595-32.187057z" fill="#ffa348" stroke-width="36"/><g stroke-width=".699998"><path d="m315.03811 263.55051c24.39095 0 44.26511 19.87417 44.26511 44.26514 0 24.39095-19.87416 44.26508-44.26511 44.26508-24.39098 0-44.26512-19.87413-44.26512-44.26508 0-24.39101 19.87414-44.26514 44.26512-44.26514z" fill="#994100"/><path d="m315.03811 279.81119c-15.53795 0-28.00447 12.46648-28.00447 28.00446 0 7.85928 3.16182 14.90558 8.31101 19.96445-1.80673-3.88448-2.89076-8.22066-2.89076-12.73751 0-16.35099 13.4602-29.81119 29.8112-29.81119 4.51685 0 8.85302 1.08404 12.73747 2.8908-5.05883-5.14922-12.10514-8.31101-19.96445-8.31101z" fill="#ffa348"/><path d="m184.95289 263.55051c24.39098 0 44.26511 19.87417 44.26511 44.26514 0 24.39095-19.87413 44.26508-44.26511 44.26508s-44.26512-19.87413-44.26512-44.26508c0-24.39101 19.87414-44.26514 44.26512-44.26514z" fill="#994100"/><path d="m184.95289 279.81119c-15.53795 0-28.00444 12.46648-28.00444 28.00446 0 7.85928 3.16179 14.90558 8.31098 19.96445-1.80673-3.88448-2.89076-8.22066-2.89076-12.73751 0-16.35099 13.4602-29.81119 29.81119-29.81119 4.51682 0 8.853 1.08404 12.73751 2.8908-5.05887-5.14922-12.10517-8.31101-19.96448-8.31101z" fill="#ffa348"/></g></svg>