<svg height="500" viewBox="0 0 500 500" width="500" xmlns="http://www.w3.org/2000/svg" xmlns:xlink="http://www.w3.org/1999/xlink"><radialGradient id="a" cx="1362.7291" cy="216.11429" gradientTransform="matrix(1.0000001 -.0000059 .0000001 1.0000003 -112.72927 33.893757)" gradientUnits="userSpaceOnUse" r="250"><stop offset="0" stop-color="#ff851a"/><stop offset=".42441937" stop-color="#f87000"/><stop offset=".86367416" stop-color="#f26900"/><stop offset="1" stop-color="#e55f00"/></radialGradient><g transform="translate(-1000)"><path d="m1500 250a250 250 0 0 1 -250 250 250 250 0 0 1 -250-250 250 250 0 0 1 250-250 250 250 0 0 1 250 250z" fill="url(#a)" stroke-linecap="round" stroke-linejoin="round" stroke-width="1.002"/><path d="m1309.2298 33.82789c128.5196 30.706851 207.8974 167.48127 169.5927 291.56949-31.3771 95.69524-112.8693 162.03793-212.5543 174.60263 153.1796-8.09118 266.0956-163.0043 218.7012-309.92978-36.4562-114.666588-154.6038-191.5214848-270.6514-169.822657-18.8526 4.215647-38.4387 10.498641-55.8829 18.694487-112.5353 47.459213-168.47522 196.206-99.9632 307.85319 57.6978 93.63045 168.5136 141.8489 267.9993 100.77239-134.92 68.97589-303.283-51.46877-311.488-201.30723-4.4167-117.68321 76.8182-219.674136 190.654-246.26040176-89.0147 9.18391126-152.6601 79.39239576-187.7408 157.21169176-38.45522 102.70317 5.2337 231.75078 109.038 294.08388 114.5107 66.1048 260.3537 29.37245 323.6836-83.60152 42.2104-77.69758 34.3514-177.62383-23.1776-249.88923-57.5404-72.257811-157.5429-102.460489-246.4118-71.877168-81.7429 30.682061-131.1298 101.133078-134.0478 190.176958.6692 92.68536 61.7912 168.55972 147.5399 198.52472 128.5549 37.82014 266.7725-70.33038 233.6823-209.88949-14.7104-64.39775-57.8855-122.14991-125.7378-141.121386-71.391-15.467036-138.9716 1.205-181.2869 64.641366-18.8995 29.2286-28.9384 85.21395-26.105 97.65297m0 0c13.5324-50.18833 30.6277-97.66354 72.2125-128.94941 53.182-38.308183 124.4576-37.093813 181.7444-.48035 50.1457 36.48017 75.4845 90.37713 72.3557 150.91678-6.6674 64.04407-38.4038 109.83277-91.6401 141.00844-63.9019 34.56125-135.3795 4.83213-189.1258-35.28385-78.8706-65.48566-79.7477-186.67235-8.9744-256.76104 63.7369-55.941605 167.0207-64.891564 238.7167-6.65053 78.8163 58.35315 90.3045 169.04089 40.972 246.62443-35.2274 56.41892-88.4571 87.60135-152.5581 93.63158-81.9488 2.18264-160.666-41.91503-196.8695-120.9383-36.2055-79.02511-22.5771-164.33167 26.8727-227.66064 49.4316-63.30896 138.3491-86.746364 220.4504-67.54202" fill="#c50"/></g><path d="m160.91211 25.572266c-61.243429-.304847-100.992917 50.827279-101.650391 103.869144-.459793 37.09385 18.391563 75.76045 56.757811 100.26757-8.65488 3.35011-17.622609 7.29017-27.197264 11.99219-51.56716 25.32046-72.644419 79.10084-67.105469 124.89844 2.769474 22.89881 12.152533 44.57667 29.037109 59.86328 16.884577 15.28662 41.498101 22.87989 68.636714 18.28516 14.05294-2.37939 26.31377-9.52321 34.36719-19.78516 25.19526 52.38354 71.56547 72.49748 110.60547 64.97852 21.83802-4.20593 41.42062-16.29422 53.73438-34.50977 12.02897-17.7943 16.20115-41.71614 8.78906-65.9668 44.4749 20.43807 95.40663 10.89661 129.83594-13.55859 17.99737-12.78357 32.16863-30.32512 36.53906-51.73437 4.37042-21.40925-2.77513-45.39383-21.32227-65.26758-10.52643-11.27919-23.63309-20.34083-38.95312-22.19336 43.93782-85.48886-8.19303-161.605001-69.62891-162.677737h-.00195c-24.19449-.421981-49.15509 12.055878-64.86914 36.656247l-.00195.00196c-5.26496 8.24282-8.97823 17.38942-10.31836 26.71875-.39134-.18612-.79068-.35506-1.1875-.53125-4.19616-18.60582-9.75377-37.739265-20.7793-55.451176-13.0573-20.975832-34.24244-39.006413-65.3711-49.101562v.001953c-13.86662-4.497507-27.243-6.693383-39.9121-6.755859-.001-.000007-.00291.000006-.00391 0zm196.07227 121.095704c.52641.0887 1.31132.4166 2.66796 1.2832v.00195c4.75729 3.03858 7.6233 8.4595 8.32227 17.46485.0635.81839-.02687 1.73416-.01367 2.58789l-11.92969-8.86328c-6.46761-4.80528-4.64107-7.11285-2.87891-9.9668.88109-1.42697 2.05909-2.17199 2.71094-2.35351.32593-.0908.59469-.24301 1.1211-.1543zm-40.3125 40.22656c8.69381 3.50852 18.75886 5.25195 29.58789 4.67188l17.26562-.92579c-.49616 1.21572-.93391 2.49672-1.49805 3.6211v.00195c-4.32708 8.62565-14.48141 17.43585-25.67578 21.03516-10.01389 3.21974-19.91914 2.99178-29.54101-2.86328 5.46599-7.26335 9.01037-16.0274 9.86133-25.54102zm62.38085 96.72656-10.35742 34.57227c-3.46486-.80368-6.72069-1.80359-9.33398-3.23242h-.00195c-12.0103-6.56822-22.21959-13.67439-31.07813-21.70117 13.74709-.28507 27.25704-2.21122 40.0332-5.94727 3.64093-1.06469 7.21673-2.31729 10.73828-3.69141zm31.95313 12.87696c.66246-.10864 1.11442.0716 1.74414.25 1.25944.35677 3.36245 1.73622 4.91211 4.00781s2.26011 5.09292 2.15234 6.79883c-.10776 1.70591-.15629 2.34744-2.30273 4.00586-8.51367 6.57821-26.58451 9.46962-41.6875 7.83593l32.17773-21.41406c1.46882-.97749 2.34144-1.37574 3.00391-1.48437zm-247.16992 7.35351c-11.62141 17.11299-19.59473 36.08616-22.22266 55.72266-5.59335-3.58486-12.03154-6.48999-19.2832-8.6582l-24.310549-7.26954c1.363954-3.58178 3.076589-7.16287 5.509769-10.70117 7.27648-10.58135 19.19653-19.3545 28.66797-22.40429 11.68446-3.76202 21.85192-5.86628 31.63867-6.68946zm85.78906 26.64258c5.1867 6.92966 10.57381 13.11452 16.38086 18.75781-11.9438 3.62482-23.43693 12.07582-32.41016 24.3418l-10.72656 14.66211c-.0406-.16889-.15053-.35227-.18555-.51953v-.00195c-3.90915-18.69651 8.45861-42.12894 26.94141-57.24024zm7.5293 70.54297c3.52469.12554 4.07922 2.33231 4.89648 4.69922.54484 1.57794.37654 2.95527.10547 3.57226s-.21519 1.21341-3.27734 2.21875h-.00196c-5.35811 1.75962-13.70668.49018-21.36914-4.38281-.58744-.37359-1.0784-.86784-1.64258-1.27539l16.6543-4.19336c1.95444-.49211 3.45986-.68052 4.63477-.63867z" fill="#994100"/><path d="m160.825 43.573c-103.032-.5166-125.9748 166.455 18.5067 190.9116-26.55.4806-49.8438 7.299-82.575 23.373-88.4367 43.4241-70.5582 184.4118 19.6299 169.1424 31.032-5.2542 46.089-45.2925.7875-58.8375 14.8635 26.649-25.1712 42.39-37.7154 1.7442-10.1358-32.841 19.0305-67.4226 47.2212-76.5 27.45-8.838 49.7196-9.774 74.223-5.2596-32.9265 30.8223-50.8923 72.4185-38.1384 111.2616 40.0698 122.0355 172.9314 74.268 146.5596-6.048-9.3114-28.3554-37.2672-41.8545-61.2-9.1395 31.6476-7.9686 45.405 34.875 16.3692 44.4078-23.7195 7.7895-54.1908-12.1743-59.4288-37.2087-7.038-33.651 17.793-69.4755 49.302-85.725 19.9584 31.833 34.9308 43.812 74.898 64.9674 77.2587 40.8924 191.6613-32.886 129.5154-99.477-20.3634-21.8196-49.1166-27.018-60.75 11.8116 27.1692-18.081 54.6732 24.12 30.4875 42.8067-19.755 15.264-55.3527 17.2215-77.7933 4.95-27.7173-15.1578-48.411-34.0182-63.1692-59.8788 51.363 12.321 107.6256-.9585 128.7-40.8078 41.148-77.805-6.3414-137.2203-53.2125-138.0375-18.3402-.3204-36.5886 8.3133-49.3875 28.35-16.065 25.1514-8.8335 55.3797 31.6413 53.2116-26.199-19.4652-1.71-57.2607 24.0453-40.8087 21.0402 13.4388 20.2446 46.692 8.775 69.552-13.6485 27.207-54.5157 45.6642-85.5558 22.1913-2.7072-5.139-5.0067-10.5147-7.002-16.0587 8.091-5.841 13.3866-15.3252 13.3866-25.9875 0-15.9948-11.9268-29.376-27.3105-31.6962-8.7867-42.4206-21.006-83.3832-76.3596-101.3346-12.276-3.9816-23.7933-5.8248-34.452-5.877zm106.0596 123.6645c8.5167 0 15.2433 6.7266 15.2433 15.2442 0 8.5167-6.7257 15.2433-15.2424 15.2433s-15.2154-6.7266-15.2154-15.2442c0-8.5167 6.6987-15.2433 15.2154-15.2433zm-58.8654 9.45c8.5167 0 15.2433 6.7266 15.2433 15.2442 0 8.5167-6.7266 15.2433-15.2442 15.2433-8.5167 0-15.2433-6.7266-15.2433-15.2442 0-8.5167 6.7266-15.2433 15.2442-15.2433z" fill="#ffa348" stroke-width="36"/></svg>