<svg height="500" viewBox="0 0 500 500" width="500" xmlns="http://www.w3.org/2000/svg"><g transform="translate(.000015)"><circle cx="-249.99998" cy="250" fill="#e51a1a" r="250" transform="scale(-1 1)"/><path d="m181.33938 83.856939c97.52275-31.84694 203.27597 26.159281 217.12696 131.568651 10.04116 85.89723-45.79566 162.6049-131.11288 174.6444-76.26503 6.65-147.16573-45.4981-149.44603-126.3231.16679-50.89801 30.03241-87.97493 76.60677-108.40662 44.00125-16.48183 90.46555-3.00917 112.28155 39.63622 17.95322 40.0953 3.57775 87.31302-40.4313 103.80676-21.98685 8.23292-51.6578-5.55285-56.72562-31.5612 24.48155 21.7253 69.7211 11.74379 80.1808-21.06198 5.24648-24.88185-11.48198-41.52298-24.36368-55.64156-23.21161-15.22125-63.26956-13.16738-85.32502 12.05139-41.51846 46.43224-18.48961 112.52397 35.72777 131.08081 60.66482 17.11352 118.96473-29.63961 126.96137-92.39988 2.7637-54.83226-40.99398-106.19486-96.51046-114.27807-76.21988-10.3001-138.45939 50.84936-147.743191 124.09106-9.31956 73.21828 47.315731 138.67973 111.863041 158.33924 49.05305 9.49897 98.18701 2.07129 139.64056-27.40671 82.90715-58.95602 100.11901-177.97214 43.55644-260.39974-52.71171-79.885311-158.575-103.987181-249.15842-67.061741-86.705021 39.45169-149.0660905 134.549061-117.102931 229.167621 15.77888-74.65377 50.93986-153.5943 123.407351-187.514491 9.28724-4.60517 19.44718-8.7232 30.56692-12.33106zm-160.722321 286.075591c-52.57825-113.8254-.38403-260.89182 113.777041-317.643861 10.84604-5.32012 22.21219-9.7712 34.03518-13.36069 115.76394-28.75816 246.03978 34.00351 263.68455 158.897471 10.04526 85.91695-27.72044 168.80365-107.97396 206.83173-102.24035 46.26108-224.798841-11.43986-234.690511-131.24969-7.33455-123.78718 127.307171-194.136761 222.718561-137.24102-42.54074-27.89653-94.21826-33.44528-140.80825-12.98978-71.17376 32.62266-105.080851 118.0397-80.762351 190.63139 30.697281 88.13423 123.572931 132.04164 212.817841 105.59803 82.80488-25.06359 132.16266-100.33164 140.19255-180.04986 12.12434-145.020371-132.23823-245.3588802-265.59709-221.973611 7.92036-4.10499 20.5989-8.4277792 35.61563-11.7452592 60.06317-13.23825 124.63426-3.45807 179.45368 32.4903392 109.65077 71.904621 141.09454 217.803071 65.16008 333.599141-143.00482 218.07486-377.311781 117.06797-437.622951-1.79433" fill="#b21a1a"/></g><path d="m355.77771 160.14062c-25.7016.76122-50.92536 8.68093-75.90589 15.13074-5.47972 1.41483-12.71656.67782-16.17624 5.15662-8.13357 10.5295.93046 26.75745-2.12383 39.85871-.62354 9.98361-.95119 16.31851.41099 22.46336 2.03914 4.26713 6.9826 12.38096 3.08832 17.39927 9.0722 22.31628 23.82252 42.32653 42.8448 57.13759 7.80061 7.44789 24.71171 8.69498 30.03271 14.35188-9.1737 11.60446 12.47644 14.99921 18.22466 22.59881 10.43484 8.00832 21.49449 14.732 30.6939 24.15338 9.49356 8.84058 18.71635 17.98633 23.18402 30.41962 7.03079 15.75843.11933 33.30665-5.70762 48.53936-5.16582 14.21605-15.49746 42.65004-15.49746 42.65004s46.44785-32.8305 67.73442-51.66262c9.58626-8.55823 17.1362-18.98134 24.20308-29.62835 10.60911-7.51026 12.84386-17.48303 15.98047-27.6582 1.8861-6.1185.80665-8.1926 1.42226-19.1551.4475-9.49354 4.56977-18.28441-1.34422-28.48055.55776-10.9593-12.14742-18.01908-7.01567-28.89328 2.23306-10.87829-8.02117-19.94882-1.57548-30.16578.80395-14.48149-.80223-26.65822 9.13063-38.58239 1.77456-8.58634.93734-27.83381-3.99258-40.4561-2.49179-6.37982-6.77704-12.45668-12.37505-16.40299-24.2816-17.11725-55.70235-22.68568-85.04911-26.64616-13.34181-1.4553-26.76598-2.19586-40.18711-2.12786z" fill="#861313"/><path d="m355.87021 178.14127c-17.62419.087-33.29529 1.67232-45.40916 4.38169-8.61387 1.927-15.42739 4.4641-19.62993 7.06472-4.20195 2.6012-5.25573 4.65869-5.25573 6.13528 0 1.47544 1.32723 4.17908 5.66706 7.44017 1.87816 1.40962 4.24888 2.85702 7.00804 4.2924 7.19681-15.38798 34.80273-20.86853 60.78392-21.03278 11.13848-.0704 21.91539.72513 30.73235 2.34251-38.96464 5.17091-72.21301 7.08876-59.12144 29.74235 14.17623-9.17201 43.51156-8.56764 64.14491-6.00937-19.8702 2.63669-37.88054 4.15505-44.99726 9.8382 9.45082 1.50806 19.54639 2.66873 30.0344 3.3618 26.98979 1.78335 51.42234.18715 68.65008-3.66628 8.61387-1.927 15.42739-4.4641 19.62991-7.06472 4.20197-2.6012 5.25575-4.65869 5.25575-6.13528 0-1.47544-1.30894-4.16077-5.64933-7.42185-4.34041-3.25994-11.21171-6.70474-19.86277-9.78268-17.30095-6.1576-41.74953-10.98741-68.73931-12.77076-6.74773-.44641-13.32727-.67534-19.68312-.7154-1.19222-.007-2.3833-.006-3.55837 0zm-74.17412 30.99459c-2.54291 10.26572-3.24372 19.74678-2.43135 28.58054.003.0103-.004.0252 0 .0355 3.32952 9.69054 13.38676 18.20553 28.15797 24.71739 16.12705 7.1105 37.26726 11.58548 58.33369 13.10957 21.06757 1.52409 42.10881.11046 57.92349-4.06004.0378-.01.0709-.0258.1087-.0355l.10642.0715c41.39313-5.5744 64.42465-23.82342 58.53162-54.71098-3.9222 14.04188-15.77579 24.3694-31.03556 31.83532 1.63273-5.75297 3.72828-11.73142 6.36387-17.95656-2.20253.62956-4.51261 1.21046-6.93652 1.75302-18.69285 4.1808-43.88628 5.73751-71.70787 3.89865-27.82158-1.83886-52.999-6.73449-71.61805-13.36025-9.30895-3.31259-16.98231-7.01836-22.68656-11.30333-1.09726-.82414-2.14188-1.67804-3.10985-2.57544zm4.32609 53.45817c6.70484 14.53294 17.65853 27.19324 30.64254 38.86458 6.23801 4.43949 15.30669 8.341 25.90397 11.10588 14.43654 3.76587 31.55615 5.63507 47.76901 5.52632 14.32784-.0956 27.99435-1.77419 38.3834-4.7743 32.06645-6.33729 48.84625-25.54952 40.79646-50.18564-1.32381 12.95391-10.14706 22.6639-22.38279 29.72519-.5881-6.15245-.72483-12.58362-.2317-19.35188-5.7174 3.56842-12.67566 6.28752-20.50577 8.35245-17.46344 4.60432-39.37196 5.99334-61.40864 4.39885-22.03667-1.59448-44.14886-6.18105-61.89262-14.00468-6.26661-2.76202-12.04981-5.97618-17.07328-9.65734zm184.15728 41.06401c-2.68022 8.36732-8.38218 15.31358-16.16138 20.71113-1.06522-3.31774-2.07322-6.70073-2.98513-10.17585-3.97197 3.37497-9.02005 5.9052-14.83872 7.95811-12.50461 4.41259-28.71117 6.52103-45.78388 6.63548-15.11102.10073-30.84562-1.381-45.06991-4.54422 12.61846 9.22352 25.58931 18.1729 37.50696 27.40042 11.61503 4.59173 27.98864 4.16077 42.31706-.0893 6.83067-2.02601 13.13619-4.87045 18.10931-8.06629 20.57386-10.13579 34.86452-23.94761 26.90683-39.83007zm6.0967 33.98154c.19278 7.31425-4.06753 14.02872-10.58356 19.83491-1.58467-4.91509-3.41648-9.91031-5.31065-15.04059-1.67793 2.196-3.68194 4.24376-5.89933 6.09808-6.88561 5.75754-16.13106 10.25942-26.2804 13.26982-9.04465 2.68304-18.89479 4.25578-28.4074 4.02342 4.8015 4.41717 9.2363 8.93964 13.15793 13.64698 6.88217 3.9078 19.88392 3.78991 31.89369-.0344 3.3444-1.06565 6.57324-2.3694 9.52977-3.82882.0435-.0206.0812-.0492.12471-.071 19.50806-8.37305 31.41885-22.65932 21.77524-37.89906zm-5.90048 40.47451c-.57208.46357-1.1516.93174-1.75172 1.377-5.68651 4.22029-12.86617 7.69771-20.54125 10.14151-8.26375 2.63097-17.23689 4.25979-25.51151 3.64798 1.64417 2.936 3.07895 5.95442 4.27347 9.05011 2.40275 2.34651 5.4142 4.04058 8.75861 5.11425l.19737.25067c25.19056 5.96702 46.4841-2.10842 42.85194-27.52517-1.10412 4.82122-4.17049 8.73017-8.4554 11.76862.64874-4.65011.64359-9.23897.17735-13.82554zm-39.84908 38.88232c1.22998 10.06368-.009 21.02991-4.41649 33.15853 16.01492-11.80927 26.79871-22.58377 33.75296-32.74647-3.02232.91114-6.19452 1.53268-9.40277 1.87722-6.57668.70738-13.58872.0984-19.9337-2.28928z" fill="#ff8066" stroke-width="36"/><path d="m114.82707 361.18717c10.11413 9.65714 21.67029 18.61069 29.09838 30.35833 8.40591 12.20531 10.37645 27.74174 5.50275 41.8226-7.01845 19.92589-18.39873 66.6319-18.39873 66.6319s44.27271-40.41818 65.78722-59.84192c11.98347-9.80725 18.18842-24.51546 29.43334-34.82745 8.716-10.43562 9.59615-24.4185 9.75097-37.33566-8.86733-6.98832.86804-15.73498.1543-26.19618 3.14443-11.82025-10.43024-20.22183-7.69476-30.83523 4.1542-10.50165-6.44255-20.20613-2.09655-29.73482 3.25254-15.42552-1.5492-29.76185 10.03762-42.48273 1.82596-8.55042 10.09894-31.24336-2.2626-32.51208-9.40448.27919.16227-19.20854-11.74011-22.40052-23.03716-18.83856-53.77976-23.67506-82.34364-27.99886-35.89078-3.85345-73.325736-5.15139-108.12997 5.93013-10.462267 2.31612-16.661774 10.99014-23.8401872 18.01699-5.0578235 19.43809-11.8219685 40.20039-5.5713497 60.07198 5.2555025 11.31064 3.3760847 25.22673 13.0857539 35.88823 12.412287 20.34354 31.715728 34.98708 51.920374 46.96156 11.056292 9.11939 19.821166 20.90581 32.453774 28.16837 5.054065 3.30423 9.516185 7.46383 14.853415 10.31536z" fill="#861313"/><path d="m94.891024 171.11366c-17.62419.087-33.29529 1.67232-45.40916 4.38169-8.61387 1.927-15.42739 4.4641-19.62993 7.06472-4.20195 2.6012-5.25573 4.65869-5.25573 6.13528 0 1.47544 1.32723 4.17908 5.66706 7.44017 1.87816 1.40962 4.24888 2.85702 7.00804 4.2924 7.19681-15.38798 34.80273-20.86853 60.78392-21.03278 11.138476-.0704 21.915386.72513 30.732346 2.34251-38.964636 5.17091-72.213006 7.08876-59.121436 29.74235 14.17623-9.17201 43.511556-8.56764 64.144906-6.00937-19.8702 2.63669-37.880536 4.15505-44.997256 9.8382 9.45082 1.50806 19.546386 2.66873 30.034396 3.3618 26.98979 1.78335 51.42234.18715 68.65008-3.66628 8.61387-1.927 15.42739-4.4641 19.62991-7.06472 4.20197-2.6012 5.25575-4.65869 5.25575-6.13528 0-1.47544-1.30894-4.16077-5.64933-7.42185-4.34041-3.25994-11.21171-6.70474-19.86277-9.78268-17.30095-6.1576-41.74953-10.98741-68.73931-12.77076-6.74773-.44641-13.32727-.67534-19.683116-.7154-1.19222-.007-2.3833-.006-3.55837 0zm-74.17412 30.99459c-2.54291 10.26572-3.24372 19.74678-2.43135 28.58054.003.0103-.004.0252 0 .0355 3.32952 9.69054 13.38676 18.20553 28.15797 24.71739 16.12705 7.1105 37.26726 11.58548 58.333686 13.10957 21.06757 1.52409 42.10881.11046 57.92349-4.06004.0378-.01.0709-.0258.1087-.0355l.10642.0715c41.39313-5.5744 64.42465-23.82342 58.53162-54.71098-3.9222 14.04188-15.77579 24.3694-31.03556 31.83532 1.63273-5.75297 3.72828-11.73142 6.36387-17.95656-2.20253.62956-4.51261 1.21046-6.93652 1.75302-18.69285 4.1808-43.88628 5.73751-71.70787 3.89865-27.821576-1.83886-52.998996-6.73449-71.618046-13.36025-9.30895-3.31259-16.98231-7.01836-22.68656-11.30333-1.09726-.82414-2.14188-1.67804-3.10985-2.57544zm4.32609 53.45817c6.70484 14.53294 17.65853 27.19324 30.64254 38.86458 6.23801 4.43949 15.30669 8.341 25.90397 11.10588 14.43654 3.76587 31.556146 5.63507 47.769006 5.52632 14.32784-.0956 27.99435-1.77419 38.3834-4.7743 32.06645-6.33729 48.84625-25.54952 40.79646-50.18564-1.32381 12.95391-10.14706 22.6639-22.38279 29.72519-.5881-6.15245-.72483-12.58362-.2317-19.35188-5.7174 3.56842-12.67566 6.28752-20.50577 8.35245-17.46344 4.60432-39.37196 5.99334-61.40864 4.39885-22.036666-1.59448-44.148856-6.18105-61.892616-14.00468-6.26661-2.76202-12.04981-5.97618-17.07328-9.65734zm184.157276 41.06401c-2.68022 8.36732-8.38218 15.31358-16.16138 20.71113-1.06522-3.31774-2.07322-6.70073-2.98513-10.17585-3.97197 3.37497-9.02005 5.9052-14.83872 7.95811-12.50461 4.41259-28.71117 6.52103-45.78388 6.63548-15.11102.10073-30.845616-1.381-45.069906-4.54422 12.61846 9.22352 25.589306 18.1729 37.506956 27.40042 11.61503 4.59173 27.98864 4.16077 42.31706-.0893 6.83067-2.02601 13.13619-4.87045 18.10931-8.06629 20.57386-10.13579 34.86452-23.94761 26.90683-39.83007zm6.0967 33.98154c.19278 7.31425-4.06753 14.02872-10.58356 19.83491-1.58467-4.91509-3.41648-9.91031-5.31065-15.04059-1.67793 2.196-3.68194 4.24376-5.89933 6.09808-6.88561 5.75754-16.13106 10.25942-26.2804 13.26982-9.04465 2.68304-18.89479 4.25578-28.4074 4.02342 4.8015 4.41717 9.2363 8.93964 13.15793 13.64698 6.88217 3.9078 19.88392 3.78991 31.89369-.0344 3.3444-1.06565 6.57324-2.3694 9.52977-3.82882.0435-.0206.0812-.0492.12471-.071 19.50806-8.37305 31.41885-22.65932 21.77524-37.89906zm-5.90048 40.47451c-.57208.46357-1.1516.93174-1.75172 1.377-5.68651 4.22029-12.86617 7.69771-20.54125 10.14151-8.26375 2.63097-17.23689 4.25979-25.51151 3.64798 1.64417 2.936 3.07895 5.95442 4.27347 9.05011 2.40275 2.34651 5.4142 4.04058 8.75861 5.11425l.19737.25067c25.19056 5.96702 46.4841-2.10842 42.85194-27.52517-1.10412 4.82122-4.17049 8.73017-8.4554 11.76862.64874-4.65011.64359-9.23897.17735-13.82554zm-39.84908 38.88232c1.22998 10.06368-.009 21.02991-4.41649 33.15853 16.01492-11.80927 26.79871-22.58377 33.75296-32.74647-3.02232.91114-6.19452 1.53268-9.40277 1.87722-6.57668.70738-13.58872.0984-19.9337-2.28928z" fill="#ff8066" stroke-width="36"/><path d="m222.73052 329.42773c7.18714 6.61186 13.67406 13.24792 18.95129 18.67278l13.71473 20.49322c2.22359 3.97066 4.13149 7.99454 6.46711 12.68281l4.00946 18.3836c1.5865 12.98073.11642 27.33335-6.06641 44.3457l-20.34967 55.99416 47.94922-35.35742c26.54549-19.57442 45.19765-37.93846 57.79492-56.34766l10.66602-15.58594c16.25828-11.2694 23.16049-32.74614 22.15039-51.36441-.38934-7.17631-10.62956-18.75823-10.62956-18.75823s2.14977-4.00865 4.22721-7.22697c9.64599-14.94325 10.82752-36.5011.0176-53.58398l-7.52344-11.88867c4.84587-12.59307 5.333-27.34183-1.27734-40.53516l-3.50781-7.00195c7.99588-16.08358 9.6008-35.31547 3.68164-54.10156 18.0326-18.14488 26.17154-44.33515 20.86914-72.126956 0 0-7.11969-14.278765-12.24219-20.292678-5.10162-5.989405-8.70193-8.25702-18.0132-15.251887-9.31128-6.994866-21.41763-12.799434-43.73561-20.741316-22.31797-7.941882-62.34121-15.7245569-90.03253-17.5547083-27.69131-1.83015138-38.50033-2.31920421-61.16654-2.2805047-22.6662.03869951-48.60792 2.7027096-66.613259 6.7299153-18.005338 4.0272057-30.112787 8.2006827-37.753805 12.9301267-7.641017 4.729444-12.743797 9.315576-14.283794 12.099275l-10.73917 33.709433c-3.721158 16.021764-4.666666 25.273094-4.31815 38.0247.414138 15.1526 3.112309 30.3553 7.59159 44.83663 1.235405 3.99401 5.253907 11.38867 5.253907 11.38867 12.11011 26.24906 31.294774 48.08604 49.225223 62.94806 17.930448 14.86202 10.034372 9.33518 15.260758 13.76347 11.52839 9.76794 35.475 28.22011 35.475 28.22011 20.31295 14.84785 40.80031 28.99418 61.90625 44.65625z" fill="#861313"/><path d="m165.1341 18.007929c-27.99948.138204-52.89609 2.656808-72.141351 6.961167-13.684822 3.061422-24.509434 7.092098-31.185984 11.2237-6.675631 4.132512-8.349762 7.401242-8.349762 9.74709 0 2.344029 2.108569 6.639295 9.003237 11.820164 2.983822 2.239466 6.750169 4.538943 11.133637 6.819324 11.433553-24.446826 55.290953-33.153741 96.567173-33.414694 17.69565-.111837 34.81689 1.152012 48.82436 3.721534-61.90297 8.215014-114.72452 11.261888-93.926 47.251557 22.52173-14.571532 69.12664-13.611374 101.90676-9.547056-31.5677 4.188884-60.18066 6.601107-71.48697 15.629895 15.01449 2.395855 31.05327 4.239801 47.71554 5.340895 42.87856 2.8332 81.69446.297322 109.0641-5.824613 13.68481-3.061423 24.50943-7.092099 31.18596-11.2237 6.67564-4.132512 8.34978-7.401241 8.34978-9.747086 0-2.34403-2.0795-6.610201-8.97507-11.791069-6.89558-5.17905-17.81199-10.651786-31.55589-15.541697-27.48596-9.78255-66.32732-17.455655-109.20587-20.288858-10.72009-.709209-21.17298-1.072907-31.27049-1.136553-1.89408-.01182-3.78634-.0091-5.65316 0zm-117.840128 49.240985c-4.039916 16.309095-5.153278 31.371621-3.862686 45.405786.005.0164-.0061.04 0 .0564 5.289608 15.39531 21.267506 28.92304 44.734463 39.26841 25.620971 11.29643 59.206351 18.40581 92.674491 20.82713 33.46996 2.42131 66.89809.17548 92.02282-6.45018.06-.0154.11271-.0409.17269-.0564l.16906.11366c65.7611-8.85603 102.35119-37.84817 92.98895-86.91912-6.23119 22.30828-25.06293 38.71558-49.30606 50.57666 2.59391-9.13972 5.92309-18.63767 10.11024-28.52752-3.49914 1.00018-7.16915 1.92305-11.02002 2.78502-29.69724 6.64202-69.72195 9.11516-113.92199 6.19376-44.20004-2.92139-84.19929-10.699055-113.779301-21.225366-14.789089-5.262702-26.979739-11.150052-36.042054-17.957557-1.743207-1.309311-3.402799-2.665902-4.940603-4.091592zm6.872852 84.928776c10.651938 23.08842 28.054023 43.20179 48.681676 61.74399 9.9103 7.053 24.31767 13.25132 41.15352 17.64387 22.93527 5.98283 50.13313 8.95242 75.89043 8.77965 22.76259-.15183 44.47452-2.81865 60.97956-7.58491 50.94383-10.06804 77.60183-40.59043 64.81316-79.72973-2.10312 20.57982-16.12059 36.00604-35.55945 47.22429-.93431-9.77437-1.15153-19.99154-.36809-30.74425-9.08321 5.66913-20.13777 9.98895-32.57744 13.2695-27.74409 7.31486-62.55007 9.52159-97.55965 6.98844-35.00957-2.53315-70.13912-9.81982-98.328556-22.24918-9.955734-4.38801-19.143485-9.49433-27.124251-15.34258zm292.569906 65.23822c-4.25805 13.29313-13.31673 24.32862-25.67551 32.90369-1.69232-5.27088-3.29373-10.64542-4.74247-16.16634-6.31026 5.3618-14.33012 9.38158-23.57421 12.64303-19.86602 7.01026-45.61333 10.35992-72.73666 10.54176-24.00682.16003-49.00432-2.194-71.60239-7.21939 20.04689 14.65337 40.65364 28.87121 59.58716 43.53094 18.45274 7.29486 44.46543 6.6102 67.22893-.14184 10.85187-3.21872 20.86942-7.73766 28.7702-12.81488 32.6856-16.1027 55.38911-38.04547 42.74676-63.27788zm9.6858 53.98633c.30628 11.62012-6.46206 22.28737-16.81405 31.51164-2.51756-7.80858-5.42776-15.74446-8.43702-23.89492-2.66571 3.48877-5.84947 6.74204-9.37224 9.68799-10.93913 9.14699-25.62734 16.2991-41.75155 21.08172-14.3692 4.26253-30.01808 6.76113-45.13073 6.39198 7.62813 7.01754 14.67367 14.20238 20.90395 21.68091 10.93368 6.20831 31.58951 6.02101 50.66937-.0546 5.31324-1.693 10.44289-3.76426 15.13991-6.08284.0691-.0327.12906-.0782.19813-.11274 30.99238-13.30224 49.915-35.99877 34.59423-60.21009zm-9.37406 64.30169c-.90887.73648-1.82955 1.48025-2.78296 2.18764-9.03413 6.70476-20.44042 12.22932-32.63379 16.11178-13.12859 4.1798-27.38418 6.7675-40.53004 5.79553 2.61209 4.66441 4.89152 9.45976 6.78925 14.37786 3.81724 3.7279 8.60151 6.41926 13.91476 8.125l.31356.39824c40.02015 9.47978 73.84911-3.34965 68.07871-43.72914-1.75411 7.65946-6.62564 13.8696-13.43306 18.69677 1.03065-7.38761 1.02247-14.67792.28175-21.96459zm-63.30808 61.77218c1.95407 15.98813-.0136 33.41014-7.01645 52.67883 25.44284-18.76134 42.57499-35.87875 53.62318-52.02418-4.80154 1.44751-9.84121 2.43495-14.93814 2.98232-10.44834 1.12382-21.58834.15638-31.66859-3.63697z" fill="#ff8066" stroke-width="36"/></svg>