<svg height="500" viewBox="0 0 132.29167 132.29167" width="500" xmlns="http://www.w3.org/2000/svg" xmlns:xlink="http://www.w3.org/1999/xlink"><radialGradient id="a" cx="66.145859" cy="66.145882" gradientTransform="matrix(-.00004147 1 -1 -.00004147 132.294459 .002719)" gradientUnits="userSpaceOnUse" r="66.14584"><stop offset="0" stop-color="#fa0"/><stop offset="1" stop-color="#ff8000"/></radialGradient><radialGradient id="b" cx="66.145828" cy="66.145836" gradientTransform="matrix(0 1.0000017 -1 .00000032 132.29167 -.000124)" gradientUnits="userSpaceOnUse" r="66.145836"><stop offset="0" stop-color="#d45500"/><stop offset="1" stop-color="#a40"/></radialGradient><circle cx="66.145836" cy="66.145836" fill="url(#b)" r="66.145836"/><path d="m80.94711 66.831282 51.34457-.683777-51.34457-.688083 51.06027-5.413135-51.18627 4.050967 50.34637-10.104804-50.59511 8.759867 49.19203-14.706028-49.56891 13.392317 47.62848-19.184491-48.12275 17.908467 45.65685-23.500353-46.26632 22.274941 43.29324-27.609469-44.0147 26.443283 40.56136-31.487072-41.38297 30.397338 37.47952-35.098701-38.40341 34.084343 34.08432-38.40236-35.09869 37.47953 30.39735-41.386203-31.48601 40.563519 26.44436-44.010396-27.60839 43.287855 22.2717-46.259858-23.49927 45.653612 17.90633-48.125974-19.17912 47.630643 13.39233-49.572134-14.70928 49.197402 8.75771-50.597258-10.10695 50.344207 4.06067-51.185196-5.42283 51.059209-.68593-51.34349-.67946 51.34349-5.42176-51.059209 4.05527 51.185196-10.10716-50.344207 8.76222 50.597258-14.70915-49.197402 13.3922 49.572134-19.18501-47.630643 17.91223 48.125974-23.49949-45.653612 22.27191 46.259858-27.61269-43.287855 26.45007 44.010396-31.48705-40.563519 30.39259 41.386203-35.09439-37.47953 34.08356 38.40236-38.40426-34.084343 37.48437 35.098701-41.38782-30.397338 40.56007 31.487072-44.01137-26.443283 43.29333 27.609469-46.26632-22.274941 45.65298 23.500353-48.1208-17.908467 47.62665 19.184491-49.57126-13.392317 49.19685 14.706028-50.59337-8.759867 50.34518 10.104804-51.19145-4.050967 51.06102 5.413135-51.34078.688083 51.34078.683777-51.06102 5.415287 51.19145-4.052042-50.34518 10.108037 50.59337-8.764177-49.19685 14.70818 49.57126-13.390162-47.62665 19.184487 48.1208-17.908464-45.65298 23.498204 46.26632-22.271714-43.29333 27.606232 44.01137-26.447582-40.56007 31.488142 41.38782-30.395178-37.48437 35.099768 38.40426-34.086488-34.08356 38.401278 35.09439-37.481681-30.39259 41.386201 31.48705-40.555977-26.45007 44.006087 27.61269-43.284624-22.27191 46.262004 23.49949-45.655758-17.91223 48.127048 19.18501-47.631714-13.3922 49.569974 14.70915-49.196319-8.76222 50.591869 10.10716-50.339895-4.05527 51.190575 5.42176-51.063511.67946 51.342411.68593-51.342411 5.42283 51.063511-4.06067-51.190575 10.10695 50.339895-8.75771-50.591869 14.70928 49.196319-13.39233-49.569974 19.17912 47.631714-17.90633-48.127048 23.49927 45.655758-22.2717-46.262004 27.60839 43.284624-26.44436-44.006087 31.48601 40.555977-30.39735-41.386201 35.09869 37.481681-34.08432-38.401278 38.40341 34.086488-37.47952-35.099768 41.38297 30.395178-40.56136-31.488142 44.0147 26.447582-43.29324-27.606232 46.26632 22.271714-45.65685-23.498204 48.12275 17.908464-47.62848-19.184487 49.56891 13.390162-49.19203-14.70818 50.59511 8.764177-50.34637-10.108037 51.18627 4.052042z" fill="url(#a)" fill-rule="evenodd"/><path d="m235.19531 57.208984c-80.81154.215055-148.637337 55.341066-173.357419 126.806636-24.49762 70.82245-4.708706 158.62495 83.009769 221.4043 7.60831 11.97373 19.99186 19.78425 34.51757 25.0918 15.95319 5.82913 35.10833 9.3887 57.38672 12.46875 17.94076 2.52469 32.88968.98239 42.16602-10.20313.8121-.97923 1.09265-2.05649 1.73437-3.07031 9.79912 20.51633 31.45688 33.14046 56.35352 35.21875 34.28955 5.77217 66.19265-7.91754 86.78125-29.77148 20.7185-21.99183 31.06815-53.75768 18.95703-82.73633-5.6641-13.64608-14.31869-25.37812-22.61678-37.4767-1.62308 36.42732-9.12451 72.47953-36.67424 91.77162-9.68524 6.54497-20.20763 10.80711-28.34765 11.81836-7.19048.89329-12.05096.81-14.88867-3.41797-1.88586-2.80979-1.09097-5.24192 1.64648-10.01758 3.35201-5.8478 11.1042-14.113 20.91992-23.72461 19.63144-19.22322 47.24261-44.72788 60.51563-83.94726 19.36785-57.22552 17.36374-110.83645-9.13086-153.09375-26.4946-42.25731-76.05662-71.388772-146.08789-84.160158-11.10859-2.025022-22.09131-2.989673-32.88477-2.960938zm6.86133 77.623046c10.9335-.0796 22.16126 1.39353 33.45117 4.64844 62.56244 18.03597 82.48207 51.7353 83.78321 89.39453s-19.79329 80.75567-48.14454 108.35156c-17.42336 16.96016-27.82595 34.02152-32.7539 50.33789-7.43584-16.79136-19.08681-30.81086-35.49805-39.125-17.7006-8.96735-39.73508-11.20405-65.53711-7.83984-59.2413-50.32931-60.87214-105.44305-36.48828-147.17188 18.74614-32.08081 53.84222-55.40069 93.66797-58.29492 2.48911-.18089 4.99642-.28242 7.51953-.30078zm-71.33594 106.05469c.26109 19.76144 9.88886 37.36767 20.60352 51.03711 5.35733 6.83472 11.08733 12.64874 16.91211 17.14844 5.82478 4.49969 10.92578 8.65234 20.5957 8.65234 10.3702 0 18.00796-3.4841 24.18945-7.39063 5.70367 3.56225 13.39907 7.02149 23.62891 7.02149 9.35199 0 15.46361-4.23549 21.32617-8.98438 5.86257-4.74889 11.27464-10.81056 16.18946-17.84179 9.82962-14.06247 17.89621-31.93379 17.64257-51.17188-.23977-18.11305-6.96035-34.33016-18.77148-45.14648-9.12151-8.35323-21.36303-12.99031-34.28906-13.01563l6.13476-25.07617c-14.16907-3.49982-28.33754-6.99098-42.57327-10.20747-2.9275 12.14935-5.90039 24.28766-8.86423 36.42817-3.24648-.51645-6.60437-1.08553-9.92187-.92187-4.7588.23476-14.03321 2.7168-14.03321 2.7168-22.47348 7.31161-39.12858 29.62119-38.76953 56.75195z" fill="#592d0d" transform="scale(.26458334)"/><path d="m41.089802 104.61883c2.595494 5.07122 10.508949 7.21575 22.081065 8.81516 8.401657 1.18231 9.486199-2.38578 7.89589-7.26062-3.160514-9.688308-11.08455-14.508969-25.440712-12.082342-35.9475426-28.954421-4.543438-70.32256 28.324218-60.846729 35.326237 10.184115 27.448767 42.729264 11.030372 58.71023-15.003288 14.604421-7.987094 26.356191 4.675491 27.298741 15.528534 2.72353 29.008604-12.48969 23.972094-24.540725 1.30483 11.255565-19.144241 25.732765-26.809257 17.458515-5.11142-9.68005 15.261897-16.054009 21.571927-34.69903 9.74606-28.796338-2.45964-51.296831-38.144153-57.804506-2.712942-.494551-5.385678-.727966-8.008576-.720983-39.285713.10454-66.4032882 53.96872-21.148359 85.672289zm25.837073-61.454939-2.46662 10.104757c-.879273-.594646-1.812931-1.040738-2.73093-1.223575-.852185-.170141-1.691462-.258172-2.492859-.238069v.0063c-5.609992.197862-10.347273 5.058727-10.257123 11.870709.102846 7.783733 8.415412 16.572227 11.566192 16.572227 3.150991 0 5.258706-1.73823 6.428107-2.850494 1.147393.937467 2.560577 2.751033 6.222837 2.751033 3.662262 0 10.888803-8.992281 10.786168-16.777073-.103058-7.784789-5.690407-12.902346-12.472339-11.421022-.97048.213313-2.03513.639934-2.975983 1.283254l2.235532-9.139309-3.842136-.938949zm-9.271195 61.422239c.03958.7432-.207386 1.20495-.833352 1.64639-.625542.44143-1.695484.74869-3.035236.58195-2.679719-.33331-4.814732-2.53372-4.893666-4.02075-.03979-.74342.213734-1.19861.839701-1.64005.469156-.33097 1.182309-.59105 2.552641-.60524 3.155752.35658 5.290978 2.55108 5.369912 4.0377z" fill="#f6c155"/></svg>