<svg height="500" viewBox="0 0 132.29167 132.29167" width="500" xmlns="http://www.w3.org/2000/svg" xmlns:xlink="http://www.w3.org/1999/xlink"><radialGradient id="a" cx="66.145859" cy="66.145882" gradientTransform="matrix(-.00004147 1 -1 -.00004147 132.294459 .002719)" gradientUnits="userSpaceOnUse" r="66.14584"><stop offset="0" stop-color="#fa0"/><stop offset="1" stop-color="#ff8000"/></radialGradient><radialGradient id="b" cx="66.145828" cy="66.145836" gradientTransform="matrix(0 1.0000017 -1 .00000032 132.29167 -.000124)" gradientUnits="userSpaceOnUse" r="66.145836"><stop offset="0" stop-color="#d45500"/><stop offset="1" stop-color="#a40"/></radialGradient><circle cx="66.145836" cy="66.145836" fill="url(#b)" r="66.145836"/><path d="m80.94711 66.831282 51.34457-.683777-51.34457-.688083 51.06027-5.413135-51.18627 4.050967 50.34637-10.104804-50.59511 8.759867 49.19203-14.706028-49.56891 13.392317 47.62848-19.184491-48.12275 17.908467 45.65685-23.500353-46.26632 22.274941 43.29324-27.609469-44.0147 26.443283 40.56136-31.487072-41.38297 30.397338 37.47952-35.098701-38.40341 34.084343 34.08432-38.40236-35.09869 37.47953 30.39735-41.386203-31.48601 40.563519 26.44436-44.010396-27.60839 43.287855 22.2717-46.259858-23.49927 45.653612 17.90633-48.125974-19.17912 47.630643 13.39233-49.572134-14.70928 49.197402 8.75771-50.597258-10.10695 50.344207 4.06067-51.185196-5.42283 51.059209-.68593-51.34349-.67946 51.34349-5.42176-51.059209 4.05527 51.185196-10.10716-50.344207 8.76222 50.597258-14.70915-49.197402 13.3922 49.572134-19.18501-47.630643 17.91223 48.125974-23.49949-45.653612 22.27191 46.259858-27.61269-43.287855 26.45007 44.010396-31.48705-40.563519 30.39259 41.386203-35.09439-37.47953 34.08356 38.40236-38.40426-34.084343 37.48437 35.098701-41.38782-30.397338 40.56007 31.487072-44.01137-26.443283 43.29333 27.609469-46.26632-22.274941 45.65298 23.500353-48.1208-17.908467 47.62665 19.184491-49.57126-13.392317 49.19685 14.706028-50.59337-8.759867 50.34518 10.104804-51.19145-4.050967 51.06102 5.413135-51.34078.688083 51.34078.683777-51.06102 5.415287 51.19145-4.052042-50.34518 10.108037 50.59337-8.764177-49.19685 14.70818 49.57126-13.390162-47.62665 19.184487 48.1208-17.908464-45.65298 23.498204 46.26632-22.271714-43.29333 27.606232 44.01137-26.447582-40.56007 31.488142 41.38782-30.395178-37.48437 35.099768 38.40426-34.086488-34.08356 38.401278 35.09439-37.481681-30.39259 41.386201 31.48705-40.555977-26.45007 44.006087 27.61269-43.284624-22.27191 46.262004 23.49949-45.655758-17.91223 48.127048 19.18501-47.631714-13.3922 49.569974 14.70915-49.196319-8.76222 50.591869 10.10716-50.339895-4.05527 51.190575 5.42176-51.063511.67946 51.342411.68593-51.342411 5.42283 51.063511-4.06067-51.190575 10.10695 50.339895-8.75771-50.591869 14.70928 49.196319-13.39233-49.569974 19.17912 47.631714-17.90633-48.127048 23.49927 45.655758-22.2717-46.262004 27.60839 43.284624-26.44436-44.006087 31.48601 40.555977-30.39735-41.386201 35.09869 37.481681-34.08432-38.401278 38.40341 34.086488-37.47952-35.099768 41.38297 30.395178-40.56136-31.488142 44.0147 26.447582-43.29324-27.606232 46.26632 22.271714-45.65685-23.498204 48.12275 17.908464-47.62848-19.184487 49.56891 13.390162-49.19203-14.70818 50.59511 8.764177-50.34637-10.108037 51.18627 4.052042z" fill="url(#a)" fill-rule="evenodd"/><path d="m105.69302 249.42578-1.16602 5.20508h-39.485984c-18.663644 80.30957-32.501833 140.81996-48.859375 211.72656l3.121093-.0215v33.66015h464.513676v-50.56445h-3.07032l-42.58593-194.80076h-35.01368c.28151-17.40639-.50391-34.85681.63475-52.23242 14.59876-12.19272 33.28306-25.52811 51.32617-39.00782-21.47431-.46702-43.02104.70893-64.46289-.65624-10.18279-12.03797-20.42155-26.44138-31.79687-41.66407l40.9707 25.07617c-2.78339-16.1595-26.83966-54.545009-26.125-70.031246 9.63601-21.32073 22.8482-40.307979 37.69141-64.546875-16.15373 2.776808-54.55495 26.838161-70.03125 26.123047-21.31537-9.649327-40.30573-22.851887-64.54686-37.691406l18.66016 47c6.15539 15.505659 7.62072 21.195783 7.46289 23.03125-9.33348 20.730779-21.79562 38.58568-36.21485 62.14063-11.47557-1.78674-29.19622 1.28332-39.36718-3.69726-3.94634-2.06669-10.03053-9.32943-21.03125-24.33789l-14.52991-19.666019-18.77227-26.190825c.0003 10.304462-.2143 20.598324-.60062 30.893518l-23.82377-13.368706c-8.5023-4.77164-11.41994-7.033907-11.85937-7.265626-.0517-.491071-1.07301-4.037742-2.35742-13.707031l-6.65821-50.1367285-24.75195 44.1054685c-4.771923 8.502815-7.034155 11.422189-7.265624 11.861328-.491138.05164-4.038137 1.073008-13.707032 2.357422l-50.130859 6.658203c18.511912 10.897137 37.923638 20.341113 55.960937 32.019536 3.523624 18.69707 6.049893 41.51223 9.015626 63.84179 10.902802-18.50943 20.332202-37.93128 32.015622-55.96679 13.41215-2.66155 28.86418-4.402 43.26959-6.24547-.5045 12.1222 1.44639 33.70813-3.28326 43.44078-2.30861 4.4084-9.45229 10.45788-28.66992 24.31445l-41.021486 29.58008 50.566406.94531c23.68771.44484 33.00158 1.35143 37.41016 3.66016 3.39674 1.77884 8.95264 8.35004 16.34375 18.73633-18.09108-.90468-37.317 3.76108-51.47363 8.19942-17.94538 5.98171-30.18462 10.82873-46.30015 17.22245zm230.20073-13.4495-26.32463-1.593c-17.41217.0815-38.89343 2.8438-56.5849 5.09327-3.65249-2.00061-7.96989-3.35311-11.20508-4.7539 1.26182-13.54225-1.43967-36.93124 3.85351-47.74024 2.30865-4.40836 9.45267-10.46561 28.66992-24.32226l41.02149-29.57227-44.23242-.83398c15.64508-2.96779 49.02524-24.19556 64.17976-23.79883 1.40169.12042 8.46388 4.06545 16.34969 8.61524-.37334 19.59149.60618 39.24058-.64063 58.80078-14.60586 12.18598-33.28817 25.52609-51.33399 39.00782 21.4753.4899 43.02878-.75172 64.47071.65625 8.10883 9.46171 14.65653 18.73587 23.26953 30.76562-25.87373-6.03397-43.34725-8.89314-51.49296-10.3245z" fill="#592d0d" transform="scale(.26458334)"/><path d="m80.967895 26.525247c8.205176-3.257146 8.205672-3.257392 15.734396 1.352168-3.257146-8.205182-3.257393-8.204933 1.352165-15.733906-8.205179 3.257391-8.204932 3.257145-15.733777-1.352664 3.257268 8.205181 3.257016 8.205429-1.352784 15.734402zm-49.836182-11.431104c-2.925855 5.213414-2.925855 5.213414-8.851907 6.00063 5.213421 2.926103 5.213421 2.925854 6.000636 8.852149 2.925855-5.213415 2.925855-5.213415 8.851897-6.00063-5.213411-2.925856-5.213411-2.925856-6.000626-8.852149zm18.968004 13.921601c-.235889 12.534991-.235393 12.534991-10.404777 19.86747 12.534746.235397 12.534998.235397 19.867477 10.404528.235394-12.534991.235394-12.534991 10.404526-19.86747-12.534991-.235397-12.534991-.235397-19.86747-10.404528zm47.370954 13.847512c-.01142 5.97833-.0119 5.977835-4.801343 9.555614 5.978326.01164 5.978326.01139 9.556112 4.800851.0116-5.978082.0114-5.977833 4.80084-9.555614-5.97807-.01165-5.97783-.01139-9.555609-4.800851zm-45.613905 20.784279c-.295114.006-.584768.01735-.865263.03319-4.606589.263644-10.374303 2.085366-19.189779 5.589058l-9.841062 43.838767c19.447966-5.13758 32.948089-5.42873 42.3689-1.14353v-44.912908c-4.478969-2.183737-7.877109-3.320082-11.573331-3.403834-.299705-.0061-.599502-.0063-.899212-.000497zm30.399855 2.829713c-.722539-.0064-1.439627.0027-2.109646.02428-3.174134.103327-6.848302.548847-11.358504 1.120487v43.891545c10.794788-1.93892 26.475918-1.04069 42.431829 1.87475l-9.85691-43.906906c-8.896504-2.073967-14.021953-2.95113-19.106769-3.003907zm.56719 4.199971c4.68042.05054 9.131398.685871 13.307828 1.243886l1.099426 4.094165c-5.892348-.929197-16.345443-1.215637-22.912013-.24283l-.157587-4.411827c2.963269-.533731 5.853939-.713623 8.662346-.683394zm-62.066148 1.154187-2.630741 11.399142h5.970152l2.558629-11.399142h-5.897796zm85.704417 0 9.84751 43.865774.55479 2.47117 5.59772-.0376-10.12329-46.29928zm-19.539648 14.326979c4.210623.0064 8.342948.195999 12.177679.550828l.873196 4.255474c-8.088964-.76318-17.984295-.715854-25.5207 0l-.17568-4.255474c4.146207-.379856 8.434634-.557023 12.645505-.550828zm-69.824317 1.531316-1.715674 7.434567h6.044493l1.668838-7.434567h-5.997413zm67.9969 6.750678c1.153691.0053 2.35074.02106 3.646407.0503l.633102 4.335758c-4.948282-.116707-11.674435.13876-14.799758.260175l-.173451-4.456428c4.163551-.122159 7.232627-.205167 10.6937-.189805zm10.277161.110761c2.048691.0104 4.137276.08276 5.976844.0171l.63929 4.395722c-2.144092-.07731-6.162438-.205662-7.945009-.124388l-.695536-4.270344c.674666-.01674 1.349555-.02277 2.024411-.01809zm-81.018541 5.032283-4.4564289 19.309457 6.2033159-.0421 4.32511-19.267337h-6.071754zm75.119747 2.935767c4.858589-.002 9.579407.19179 13.987258.63731l.74238 5.15072c-8.500298-1.0516-21.248874-1.90721-29.511302-.80382l-.03465-4.44081c4.960675-.3417 9.957527-.54093 14.816352-.5434zm-41.282607 10.91496c-7.461325.0223-16.828623 1.54867-28.596467 4.89626l-1.789013.50871 46.524023-.31469v-1.5727c-4.023055-2.28112-9.272148-3.53789-16.138291-3.51758zm33.304901 1.52984c-4.864036.0166-9.195832.35656-12.707205 1.03624v2.49372l44.005289-.29809c-10.98238-2.13939-22.086896-3.26334-31.297841-3.23187zm-71.9272797 8.40738v4.46015h113.9814837v-4.46015z" fill="#f6c155"/></svg>