<svg height="500" viewBox="0 0 132.29167 132.29167" width="500" xmlns="http://www.w3.org/2000/svg" xmlns:xlink="http://www.w3.org/1999/xlink"><radialGradient id="a" cx="66.421852" cy="66.422104" gradientTransform="matrix(0 .9652088 -1 .00000664 132.84419 2.310697)" gradientUnits="userSpaceOnUse" r="66.145836"><stop offset="0" stop-color="#8a0"/><stop offset="1" stop-color="#dde9af"/></radialGradient><radialGradient id="b" cx="67.809837" cy="64.481827" gradientTransform="matrix(0 1.0251567 -1 -.00000016 132.29167 -5.03387)" gradientUnits="userSpaceOnUse" r="66.145835"><stop offset="0" stop-color="#dde9af"/><stop offset="1" stop-color="#bcd35f"/></radialGradient><circle cx="66.145836" cy="66.145836" fill="url(#a)" r="66.145836"/><path d="m66.159567 0-.01603 65.815118-4.212132-65.6801423a66.145615 66.195221 0 0 0 -8.381374 1.0767074l11.91758 61.1638679c-.027.0096-.06001.01448-.10025.01448l.628898 3.425086-.06615-.141184-.141594-.355281-.888314-2.808126c-.048.01848-.09145.03309-.135392.03309l-.032039.020682-22.01202-58.2740328a66.145615 66.195221 0 0 0 -3.900009 1.6228171l25.638144 56.7810207-.05788.03051.609781 1.174449.620115 1.380274.01447.01292.110069.198067.197405.335115v.0083l-.197405-.34338-.124539-.210997-1.462437-2.436812c-.0487.03215-.100753.06285-.149862.104982l-32.651629-53.0585855a66.145615 66.195221 0 0 0 -9.04283 6.7224355l43.536734 49.318544-.105421-.153595.220142.271504v.01345l-.0863-.08585-.02479-.03414-.0011-.0016-.00053-.000531-46.61453-46.425072a66.145615 66.195221 0 0 0 -5.563466 6.363534l49.352897 37.94796-.03772.04913 2.769848 2.186511-.554486-.28495-2.489247-1.498183c-.0369.04804-.06013.0882-.08113.125152l-55.032615-29.03793a66.145615 66.195221 0 0 0 -1.8520773 3.811914l56.7601713 25.49085c-.0196.04694-.04381.100304-.06821.157213l3.221499 1.253055-.0098-.0067.139008.06258-.128674-.05585.09457.0481.05633.02121-.05633-.01345v-.0078l-3.388412-1.079811c-.01479.03954-.03321.08864-.04651.134461l-59.5222895-18.079568a66.145615 66.195221 0 0 0 -2.31922923 11.03288l65.13017673 8.143048h-.327111l-65.18391895-3.921551a66.145615 66.195221 0 0 0 -.11162205 3.839322 66.145615 66.195221 0 0 0 .16174719 4.622807l62.04303681-4.283037h-.0072l.08113-.0062-.07338.0062 3.431304-.194449-2.029327.490776-.0801.01345-1.267104.248232.0186.06309-60.3780271 14.79308a66.145615 66.195221 0 0 0 1.1342941 4.067384l59.31244-18.59206c.02471.09608.0492.184078.0739.253922l3.165686-1.181689-1.780246.933457-57.7358222 26.467743a66.145615 66.195221 0 0 0 5.5603672 9.787586l53.976889-36.964861-.778244.631959-50.693896 39.741952a66.145615 66.195221 0 0 0 5.630127 6.29734l43.58066-44.301151c.0739.06984.149905.133839.221173.212547l2.018992-2.2827v-.0083l.200505-.229096.04909-.06258.205154-.223925.0052-.01708.01498-.0072-.0062.04189-.02739.03051.01344-.0481-.0181.0481-.34933.459745.162262-.276675-.04909.05534-.200505.23737-.687812.973276-1.131193 1.475431.07596.0481-35.433379 51.044788a66.145615 66.195221 0 0 0 3.53928 2.29668l32.110595-53.180626c.0295.01848.06779.04342.106971.06155l1.827788-3.11376-.0739.190312-26.497521 59.932004a66.145615 66.195221 0 0 0 10.618954 3.65057l15.793815-62.648602-.416511 2.440949.06253.01498-11.315547 61.089913a66.145615 66.195221 0 0 0 8.371039.99551l3.421486-62.045086c.0639.0063.120384.0062.174663.0062h.0083v-3.270974l.01447-.230651.100769.886913.16743 2.608505c.0513 0 .08957-.0062.133843-.0062l7.209356 61.709453a66.145615 66.195221 0 0 0 4.175957-.62058l-11.151779-61.123009c.0672-.0074.125399-.02423.18707-.03051l-.546219-2.835016-.01447-.03672-.08475-.474225.0047.0078.09457.503189 19.682972 61.960271a66.145615 66.195221 0 0 0 10.372976-4.28614l-29.408494-57.084113 1.095536 1.777445.07131-.04913 31.927669 53.299048a66.145615 66.195221 0 0 0 6.93495-4.79037l-38.498278-48.76932c.0672-.04952.111222-.103262.173632-.1598l-2.237582-2.527829.890897.802101 1.546154 1.544726.07597-.08119 46.255947 41.494062a66.145615 66.195221 0 0 0 2.71766-3.2234l-48.809799-38.459423c.0343-.04176.08071-.08805.108004-.12722l-2.477359-1.9088 55.981924 33.545463a66.145615 66.195221 0 0 0 4.9542-10.105115l-60.76301-23.591874 2.917643.890532.0031-.04913 59.247867 18.762207a66.145615 66.195221 0 0 0 2.03294-8.199932l-61.168673-11.060808c0-.04286.0098-.07977.0098-.118944l-1.949227-.239957-1.20406-.211513 3.183259.187208c.008-.08722.0078-.166267.0078-.254955l62.179461.472158a66.145615 66.195221 0 0 0 .003-.581796 66.145615 66.195221 0 0 0 -.10077-3.654699l-62.089546 3.537825v-.08791l-3.115562.214616-.583941.03724.572572-.03724h.01138l64.199097-12.066152a66.145615 66.195221 0 0 0 -2.98378-10.860672l-61.119584 22.662557-.06873.01811 2.780182-1.267536c-.0454-.09497-.104507-.213984-.174667-.318564l55.077019-28.975934a66.145615 66.195221 0 0 0 -2.08411-3.679007l-53.110794 32.448069-.05581-.08687-1.487242 1.032748-1.245397.758143 2.558491-2.010164-.03824-.05482 48.522462-39.013808a66.145615 66.195221 0 0 0 -7.76953-8.164252l-42.664438 48.409904-.613398.627303 40.028946-51.73415a66.145615 66.195221 0 0 0 -6.989211-4.752094l-31.551458 53.696738-.02479-.01758-1.86913 3.092559 1.465539-3.294764c-.0727-.04065-.149616-.0656-.230478-.09515l22.067313-58.2564578a66.145615 66.195221 0 0 0 -4.000776-1.3740679l-18.330616 59.5519077c-.0288-.01001-.05899-.01721-.100768-.03051l-.497644 1.994648-.298689.978447.55707-3.033602c-.0532-.0052-.107984-.01485-.162263-.01965l10.616888-61.40692615a66.145615 66.195221 0 0 0 -11.2277-.96345085zm-.514698 62.352279.267684 2.320453v.01139l.230477 1.179104v.122048l.0078-.04447.0062.166004v.02741l-.01498-.02741v-.116358l-.01757.08119-.06305-.130838-.148827-1.256677zm-2.477875 1.32442 1.874815 1.68643-.0067-.0052zm6.817649 1.592825-3.128997.767451h-.01498zm-3.21478.03051-.430465.736421-.0925.106016.02946-.118943-.02429.05482-.0052.0481-.01344.02792v-.0067l.01344-.02121v-.04292l.0052-.0052v-.02793l.0031-.0062.02169-.03206v-.0062l.0088-.0072.01603-.03982v.0052l-.01603.03465-.0088.01345zm-1.727538.0631.87953.673846.09612.149972-.118855-.04447.05323.03672h-.0057l-.05788-.03672h.0098zm1.331696.06516-.07855.420443.07855-.222374-.08836.364074-.02687.03982.03669-.18152.06925-.414755zm-.153994.101877-.02273.454575-.01498.0512-.031-.1236zm.831987.197036-.602028.420444h-.0062l-.109034.07344-.07596.03103.05633-.07291.01963-.0057.234609-.188759zm-1.069699.153076.03566.03724v.01242l-.02222-.0331zm1.022159.08378h.0078l-.04599.02121zm-.932757.0481.04857.09464v.01036l-.04857-.0936zm.110069.02481.0052.06981v.01036l.01035.02534.01241.03103-.01241.0057-.01035-.03154.01035-.0052-.01035-.01602v-.0093l-.01498-.0693zm.587559.01705-.0186.0072-.268715.08119.04134-.01602zm-1.491894.01758.626833.107567.09147.05688.0078.01604-.08268.01705zm.572573.08274h.01394l.02479.0083zm.192237.05068h.0052v.0052zm-.04341.01604h.0052l.01963.02121zm.05685.0481h.0062l-.0062.0083zm-.08888.04447h.01498l.06511.0093-.214973.08688zm-.102835.0093h.05736l-.246495.126699.06976-.01395-.0067.0072-.06305.0067h-.000529l-.535883.103948v.0062l-1.386991.247197 1.386991-.253403zm.470252.0062.134361.01139.198953.05895-.22376-.02224zm-.05788.04344.0093.0047.02946.05844.08682.04395.380856.371316-.357083-.266852-.06201-.07861-.04909-.06981-.0047-.0088-.02429-.04965h-.0093zm-.28112.02121-.06615.0724h-.0078l-.735871.334595.608228-.3739zm.415477.02637.03928.0067.0083.0083zm.0584.0067.512112.159801-.504362-.151007zm-.312125.04551.0083.0331.0057-.02587-.0057.03464.000529.0016.02016.06103.03307.501635-.0615-.357867.0083-.204791-.02326.134458v-.02431l-.0083-.04913.0083.03776v-.06981zm.191202.02431.01601.01758.02326.03879-.0098-.0083zm-.30179.0481-.0646.139114-1.044894 3.40026 1.037661-3.40026h.0072l.02223-.07602.0016-.0031zm-.02326.02792-.01707.03.01085-.02587zm.387571.02121.0088.0062.03049.05017-.02429-.02431zm-.115755.05637.0062.0078.0078.05998zm-.457849.07033v.0078l.01344-.0078zm.606677.357867 1.291909 2.854669-1.291909-2.840188z" fill="url(#b)"/><g transform="scale(.26458334)"><path d="m208.83789 28.576172c-1.40428.02227-2.78925.14581-4.14453.36914-9.75572 1.607601-18.8755 6.893308-23.87305 15.65625-2.67831.746651-3.28787.762456-7.25781 2.16211-8.11374 2.860607-17.83006 6.563574-26.1543 13.929687-37.79193 33.446267-52.478474 69.190171-56.093747 106.462891l-69.802734 74.64453 43.49414-8.08984c11.615996-2.16165 22.072121-3.03405 34.199219-4.79102v14.43164l-2.826172 3.86719c-5.459043 7.47025-12.341442 15.26014-20.544922 22.86914-10.820431 10.03506-23.869001 19.52002-38.554687 26.9668l-37.279297 18.90429 29.71875 6.03125v1.85352c-3.806122 5.90466-7.752709 12.09493-11.912109 18.99414 36.858345 92.10275 126.927359 157.16211 232.193359 157.16211h41.66211l-.71289-3.44922c-2.75096-13.29801-5.33759-27.3124-8.42969-41.03516-1.50791-10.23318-7.38151-15.22349-10.54883-18.17578l4.31836-46.01172-4.27344-4.73828c-6.39251-7.09198-12.99587-13.63087-19.67968-19.87304 14.76417 1.27169 30.33995-3.79123 38.42578-17.73828l1.17773-2.20704c3.56897 2.86848 7.63667 6.04946 9.64063 10.09766 1.53741 3.18919 1.8619 5.68986.84765 12.0332-1.59431 9.9659-9.13759 27.54725-13.54492 49.19336-2.63874 5.51025-3.88187 11.07708-4.13476 16.81641-.32519 7.38013.51764 15.10924 2.40039 22.73633 1.88275 7.62708 4.76038 15.13103 9.30859 21.85742 4.54822 6.72639 11.21548 13.14031 20.66211 15.47266 26.89921 6.64093 49.93652-4.50519 63.04883-18.98047 6.55612-7.23768 11.08058-15.19292 13.39062-23.37696 2.31001-8.18403 3.45963-18.19888-4.46679-26.84765-7.99782-8.72776-18.57064-13.46315-30.30274-17.42969-5.65077-1.91051-11.54581-3.44152-17.45703-4.57617 2.74468-8.60092 5.44264-17.57279 7.0332-27.51953 1.91677-11.97931 1.63845-26.03787-4.88671-39.57422-3.83739-7.96065-10.03358-14.82667-17.2129-21.2168 1.75928-.12506 3.56851-.0963 5.30665-.38281 3.64806-.60132 7.406-1.05967 12.23828-4.93945h.008v-.008c5.84268-4.69252 6.51414-9.83158 6.97656-13.51562.46243-3.68404.28921-6.95044-.0664-10.40039-.71123-6.8999-2.37465-14.40186-4.44336-22.10938-3.44726-12.84363-7.63804-24.57568-11.86328-33.74218 1.70654-6.5547 2.22851-12.54264 2.22851-16.18555 18.38592-.39593 36.31738-.62903 55.64649-.48242l48.2539.36132-40.03125-26.95898c-19.49762-13.12996-37.77613-23.63219-54.06464-33.56427-14.03775-34.09015-32.59921-74.3512-68.1211-95.042972-13.23657-7.710822-27.2985-13.041418-41.52343-16.394531-7.41385-8.947067-18.14271-13.671489-27.97266-13.515625zm236.14258 191.699218c-19.67135.44547-34.38845 13.76036-44.16602 28.44336-10.71757 16.09624-17.73923 36.68448-20.55078 59.63672-2.81146 22.95037-.97074 44.62801 5.54297 62.83594v.008c3.81668 10.66716 9.61689 20.95536 18.41797 28.58203l-11.05078 95.63458 46.29297 4.58398 10.7539-92.66797c11.84149-4.97541 21.06066-14.4625 27.95508-24.81641h.008c10.71787-16.09676 17.73243-36.69645 20.54493-59.64648.87859-7.17218 1.30226-14.22005 1.27148-21.07617-.0677-15.08346-2.33716-29.23992-6.81641-41.75781-6.55664-18.32681-20.01677-36.75439-42.03906-39.45704z" fill="#536020"/><path d="m209.9375 43.015625c-8.72886.197884-16.88486 6.053451-18.24219 13.488281h-.002s-23.90701 5.56936-34.65039 15.076172c-37.39349 33.093632-49.67095 65.560232-52.08399 102.267582l-42.611274 45.57031c93.247264-17.35262 201.253274-21.24247 330.054684-20.26563-20.35294-13.70685-40.09109-24.95661-57.48828-35.67578-14.02573-34.39899-32.65963-74.230075-63.89648-92.425779-13.70785-7.985351-28.24345-13.591267-42.60352-16.310547-4.55184-8.609735-11.68745-11.878519-18.47656-11.724609zm99.69141 171.117185c-45.53677-.23099-139.34308 7.32861-195.88868 14.79102 19.69991 39.36409 54.88451 77.11574 86.98633 99.82812 17.69179 12.23968 35.60576 20.98246 49.45703 23.39649 11.5768 2.17269 22.7344-1.37183 27.9336-10.3418l.002-.004v-.002c7.85254-13.8571 14.25994-27.8356 19.73047-41.86133 15.28845 1.68335 32.37639 2.46147 36.86523-1.14257 7.08411-5.68957-8.48127-54.35458-15.56054-67.29688 2.96255-6.02774 2.96289-12.39804 2.96289-17.03516-3.58287-.19933-7.77758-.30813-12.48828-.33203zm135.67773 20.67188c-12.92288.29265-24.12719 9.55366-32.39453 21.96875-9.12212 13.70011-15.63901 32.30961-18.2168 53.35351-2.57779 21.04292-.74731 40.67218 4.79688 56.16993 4.1574 11.61946 10.78986 21.62964 20.01758 26.66601l-10.4375 89.41797 17.35937 1.7207 10.28711-87.91992c11.64367-1.54284 21.74811-10.29318 29.36133-21.72656 9.12208-13.70012 15.63802-32.30865 18.2168-53.35156 2.57778-21.04296.74634-40.67701-4.79883-56.17383-5.54419-15.49679-15.48972-28.12806-30.12696-29.92188-1.34812-.1655-2.70654-.23377-4.06445-.20312zm1.23828 17.49023c.23475.00033.47011.009.70508.0274 5.32422.65222 11.47882 6.33968 15.82422 18.48632 4.34642 12.14566 6.19916 29.48095 3.9082 48.17383-2.28994 18.69387-8.27387 35.06713-15.42383 45.80469-7.14905 10.73756-14.49218 14.77036-19.8164 14.11719-5.32422-.65224-11.47875-6.33777-15.82422-18.48438-4.34634-12.14569-6.19818-29.479-3.9082-48.17187 2.28997-18.69288 8.27187-35.06909 15.42187-45.80664 4.70441-5.78683 11.83614-14.15676 19.11328-14.14649zm-338.43164 3.5c-6.05004 8.279-13.542808 16.73714-22.396483 24.94922-11.735724 10.88392-25.840269 21.15244-41.863281 29.27734 35.954402 7.29145 75.119404 22.66201 111.650394 41.27735 41.01789 20.90336 78.27908 45.7229 103.47461 68.94726l2.24218-23.92382c-11.03603-12.24356-22.79823-23.09348-34.75976-33.19336-11.77645-4.84644-23.79844-11.82593-35.66016-20.03321-35.24695-24.38628-68.68796-59.03421-82.6875-87.30078zm333.9336 10.92774c.034 20.83846 2.92151 44.12696 9.46874 62.63476 6.52101-19.13479 6.80329-53.53884-9.46874-62.63476zm-133.34571 52.74804c-2.3611 5.41782-4.86338 10.77427-7.50195 16.0625 7.10344 5.25542 11.17977 10.26422 13.47461 15.02539 3.02258 6.27003 3.38276 12.67269 2.10937 20.63672-2.17078 13.56928-9.89689 30.49878-13.87695 50.61524-8.76936 12.27843-1.51794 54.31193 17.69922 59.05664 43.29625 10.68907 67.55547-34.5979 57.77148-45.27344-9.5136-10.38191-36.43493-19.12663-56.1289-19.33594 3.92292-14.27765 9.48624-28.089 11.75976-42.30664 1.6145-10.09021 1.28546-20.79227-3.61914-30.96679-4.12349-8.55418-11.21834-16.3346-21.6875-23.51368zm-264.441404 8.53711v.002c-4.604187 7.07051-9.629764 15.00517-14.808594 23.6582v16.13672c39.747681 74.25804 115.893938 126.10475 204.601558 131.68941h42.66407c-2.83074-13.68363-5.43565-27.81392-8.49219-41.3125-.62988-5.49861-5.10639-8.81176-8.7793-12.90234-21.27839-23.70308-64.27684-54.19077-111.86328-78.43946-34.07337-17.36327-70.686067-31.61709-103.322264-38.83203z" fill="#d7e698"/></g></svg>