<svg height="500" viewBox="0 0 132.29167 132.29167" width="500" xmlns="http://www.w3.org/2000/svg" xmlns:xlink="http://www.w3.org/1999/xlink"><radialGradient id="a" cx="66.421852" cy="66.422104" gradientTransform="matrix(0 .9652088 -1 .00000664 132.84419 2.310697)" gradientUnits="userSpaceOnUse" r="66.145836"><stop offset="0" stop-color="#8a0"/><stop offset="1" stop-color="#dde9af"/></radialGradient><radialGradient id="b" cx="67.809837" cy="64.481827" gradientTransform="matrix(0 1.0251567 -1 -.00000016 132.29167 -5.03387)" gradientUnits="userSpaceOnUse" r="66.145835"><stop offset="0" stop-color="#dde9af"/><stop offset="1" stop-color="#bcd35f"/></radialGradient><circle cx="66.145836" cy="66.145836" fill="url(#a)" r="66.145836"/><path d="m66.159567 0-.01603 65.815118-4.212132-65.6801423a66.145615 66.195221 0 0 0 -8.381374 1.0767074l11.91758 61.1638679c-.027.0096-.06001.01448-.10025.01448l.628898 3.425086-.06615-.141184-.141594-.355281-.888314-2.808126c-.048.01848-.09145.03309-.135392.03309l-.032039.020682-22.01202-58.2740328a66.145615 66.195221 0 0 0 -3.900009 1.6228171l25.638144 56.7810207-.05788.03051.609781 1.174449.620115 1.380274.01447.01292.110069.198067.197405.335115v.0083l-.197405-.34338-.124539-.210997-1.462437-2.436812c-.0487.03215-.100753.06285-.149862.104982l-32.651629-53.0585855a66.145615 66.195221 0 0 0 -9.04283 6.7224355l43.536734 49.318544-.105421-.153595.220142.271504v.01345l-.0863-.08585-.02479-.03414-.0011-.0016-.00053-.000531-46.61453-46.425072a66.145615 66.195221 0 0 0 -5.563466 6.363534l49.352897 37.94796-.03772.04913 2.769848 2.186511-.554486-.28495-2.489247-1.498183c-.0369.04804-.06013.0882-.08113.125152l-55.032615-29.03793a66.145615 66.195221 0 0 0 -1.8520773 3.811914l56.7601713 25.49085c-.0196.04694-.04381.100304-.06821.157213l3.221499 1.253055-.0098-.0067.139008.06258-.128674-.05585.09457.0481.05633.02121-.05633-.01345v-.0078l-3.388412-1.079811c-.01479.03954-.03321.08864-.04651.134461l-59.5222895-18.079568a66.145615 66.195221 0 0 0 -2.31922923 11.03288l65.13017673 8.143048h-.327111l-65.18391895-3.921551a66.145615 66.195221 0 0 0 -.11162205 3.839322 66.145615 66.195221 0 0 0 .16174719 4.622807l62.04303681-4.283037h-.0072l.08113-.0062-.07338.0062 3.431304-.194449-2.029327.490776-.0801.01345-1.267104.248232.0186.06309-60.3780271 14.79308a66.145615 66.195221 0 0 0 1.1342941 4.067384l59.31244-18.59206c.02471.09608.0492.184078.0739.253922l3.165686-1.181689-1.780246.933457-57.7358222 26.467743a66.145615 66.195221 0 0 0 5.5603672 9.787586l53.976889-36.964861-.778244.631959-50.693896 39.741952a66.145615 66.195221 0 0 0 5.630127 6.29734l43.58066-44.301151c.0739.06984.149905.133839.221173.212547l2.018992-2.2827v-.0083l.200505-.229096.04909-.06258.205154-.223925.0052-.01708.01498-.0072-.0062.04189-.02739.03051.01344-.0481-.0181.0481-.34933.459745.162262-.276675-.04909.05534-.200505.23737-.687812.973276-1.131193 1.475431.07596.0481-35.433379 51.044788a66.145615 66.195221 0 0 0 3.53928 2.29668l32.110595-53.180626c.0295.01848.06779.04342.106971.06155l1.827788-3.11376-.0739.190312-26.497521 59.932004a66.145615 66.195221 0 0 0 10.618954 3.65057l15.793815-62.648602-.416511 2.440949.06253.01498-11.315547 61.089913a66.145615 66.195221 0 0 0 8.371039.99551l3.421486-62.045086c.0639.0063.120384.0062.174663.0062h.0083v-3.270974l.01447-.230651.100769.886913.16743 2.608505c.0513 0 .08957-.0062.133843-.0062l7.209356 61.709453a66.145615 66.195221 0 0 0 4.175957-.62058l-11.151779-61.123009c.0672-.0074.125399-.02423.18707-.03051l-.546219-2.835016-.01447-.03672-.08475-.474225.0047.0078.09457.503189 19.682972 61.960271a66.145615 66.195221 0 0 0 10.372976-4.28614l-29.408494-57.084113 1.095536 1.777445.07131-.04913 31.927669 53.299048a66.145615 66.195221 0 0 0 6.93495-4.79037l-38.498278-48.76932c.0672-.04952.111222-.103262.173632-.1598l-2.237582-2.527829.890897.802101 1.546154 1.544726.07597-.08119 46.255947 41.494062a66.145615 66.195221 0 0 0 2.71766-3.2234l-48.809799-38.459423c.0343-.04176.08071-.08805.108004-.12722l-2.477359-1.9088 55.981924 33.545463a66.145615 66.195221 0 0 0 4.9542-10.105115l-60.76301-23.591874 2.917643.890532.0031-.04913 59.247867 18.762207a66.145615 66.195221 0 0 0 2.03294-8.199932l-61.168673-11.060808c0-.04286.0098-.07977.0098-.118944l-1.949227-.239957-1.20406-.211513 3.183259.187208c.008-.08722.0078-.166267.0078-.254955l62.179461.472158a66.145615 66.195221 0 0 0 .003-.581796 66.145615 66.195221 0 0 0 -.10077-3.654699l-62.089546 3.537825v-.08791l-3.115562.214616-.583941.03724.572572-.03724h.01138l64.199097-12.066152a66.145615 66.195221 0 0 0 -2.98378-10.860672l-61.119584 22.662557-.06873.01811 2.780182-1.267536c-.0454-.09497-.104507-.213984-.174667-.318564l55.077019-28.975934a66.145615 66.195221 0 0 0 -2.08411-3.679007l-53.110794 32.448069-.05581-.08687-1.487242 1.032748-1.245397.758143 2.558491-2.010164-.03824-.05482 48.522462-39.013808a66.145615 66.195221 0 0 0 -7.76953-8.164252l-42.664438 48.409904-.613398.627303 40.028946-51.73415a66.145615 66.195221 0 0 0 -6.989211-4.752094l-31.551458 53.696738-.02479-.01758-1.86913 3.092559 1.465539-3.294764c-.0727-.04065-.149616-.0656-.230478-.09515l22.067313-58.2564578a66.145615 66.195221 0 0 0 -4.000776-1.3740679l-18.330616 59.5519077c-.0288-.01001-.05899-.01721-.100768-.03051l-.497644 1.994648-.298689.978447.55707-3.033602c-.0532-.0052-.107984-.01485-.162263-.01965l10.616888-61.40692615a66.145615 66.195221 0 0 0 -11.2277-.96345085zm-.514698 62.352279.267684 2.320453v.01139l.230477 1.179104v.122048l.0078-.04447.0062.166004v.02741l-.01498-.02741v-.116358l-.01757.08119-.06305-.130838-.148827-1.256677zm-2.477875 1.32442 1.874815 1.68643-.0067-.0052zm6.817649 1.592825-3.128997.767451h-.01498zm-3.21478.03051-.430465.736421-.0925.106016.02946-.118943-.02429.05482-.0052.0481-.01344.02792v-.0067l.01344-.02121v-.04292l.0052-.0052v-.02793l.0031-.0062.02169-.03206v-.0062l.0088-.0072.01603-.03982v.0052l-.01603.03465-.0088.01345zm-1.727538.0631.87953.673846.09612.149972-.118855-.04447.05323.03672h-.0057l-.05788-.03672h.0098zm1.331696.06516-.07855.420443.07855-.222374-.08836.364074-.02687.03982.03669-.18152.06925-.414755zm-.153994.101877-.02273.454575-.01498.0512-.031-.1236zm.831987.197036-.602028.420444h-.0062l-.109034.07344-.07596.03103.05633-.07291.01963-.0057.234609-.188759zm-1.069699.153076.03566.03724v.01242l-.02222-.0331zm1.022159.08378h.0078l-.04599.02121zm-.932757.0481.04857.09464v.01036l-.04857-.0936zm.110069.02481.0052.06981v.01036l.01035.02534.01241.03103-.01241.0057-.01035-.03154.01035-.0052-.01035-.01602v-.0093l-.01498-.0693zm.587559.01705-.0186.0072-.268715.08119.04134-.01602zm-1.491894.01758.626833.107567.09147.05688.0078.01604-.08268.01705zm.572573.08274h.01394l.02479.0083zm.192237.05068h.0052v.0052zm-.04341.01604h.0052l.01963.02121zm.05685.0481h.0062l-.0062.0083zm-.08888.04447h.01498l.06511.0093-.214973.08688zm-.102835.0093h.05736l-.246495.126699.06976-.01395-.0067.0072-.06305.0067h-.000529l-.535883.103948v.0062l-1.386991.247197 1.386991-.253403zm.470252.0062.134361.01139.198953.05895-.22376-.02224zm-.05788.04344.0093.0047.02946.05844.08682.04395.380856.371316-.357083-.266852-.06201-.07861-.04909-.06981-.0047-.0088-.02429-.04965h-.0093zm-.28112.02121-.06615.0724h-.0078l-.735871.334595.608228-.3739zm.415477.02637.03928.0067.0083.0083zm.0584.0067.512112.159801-.504362-.151007zm-.312125.04551.0083.0331.0057-.02587-.0057.03464.000529.0016.02016.06103.03307.501635-.0615-.357867.0083-.204791-.02326.134458v-.02431l-.0083-.04913.0083.03776v-.06981zm.191202.02431.01601.01758.02326.03879-.0098-.0083zm-.30179.0481-.0646.139114-1.044894 3.40026 1.037661-3.40026h.0072l.02223-.07602.0016-.0031zm-.02326.02792-.01707.03.01085-.02587zm.387571.02121.0088.0062.03049.05017-.02429-.02431zm-.115755.05637.0062.0078.0078.05998zm-.457849.07033v.0078l.01344-.0078zm.606677.357867 1.291909 2.854669-1.291909-2.840188z" fill="url(#b)"/><path d="m374.70703 252.85938-3.83594 31.39648-8.23632 10.45117s-2.98532 3.61175-5.54297 7.99414v.008c-.14897.25536-.29675.53245-.44532.79297l-27.81054-38.97461 21.79297 51.26954c-.82457 1.95287-1.62485 3.96854-2.39258 6.04687l-53.29492-24.27734 49.21875 37.04882c-.23387.8626-.46394 1.72682-.68164 2.59571l-61.3711 5.91797 58.83203 7.1914c-.24116 1.81121-.41966 3.62142-.55664 5.42774l-46.60742 33.2539 46.66602-19.83593c.52136 5.27732 1.73369 10.29975 4.0625 14.90625l-17.6875 38.82421 23.2832-30.93359c3.43008 3.51295 6.63343 4.76342 10.1875 6.01758 2.6845.94731 5.56267 1.6319 8.64062 1.97851l3.45118 35.76954 4.35937-35.6543c3.50591-.29319 6.75604-1.03264 9.76367-2.09375 3.28016-1.15731 6.26131-2.31529 9.39844-5.24609l22.35156 31.32812-17.08984-37.92578c2.92958-4.85927 4.50093-10.24093 5.24414-15.95117l45.74023 20.83593-45.2871-34.08984c-.0907-1.936-.24437-3.87903-.45704-5.82422l58.57618-5.65039-60.80274-7.42969c-.22103-.96427-.46302-1.92181-.70508-2.8789l49.83594-35.5625-53.68945 22.82422c-.754-2.1217-1.55077-4.1739-2.375-6.16993l23.02929-50.54882-28.9121 38.41015c-.27797-.48684-.55289-.98865-.83399-1.45898-2.79931-4.68379-6.03906-8.30469-6.03906-8.30469l-6.52344-7.72266z" fill="#536020" transform="scale(.26458334)"/><path d="m98.877341 80.283986s-.732973.930004-1.174679 1.686841c-.932003 1.597652-1.949011 3.903859-2.70996 6.377113-.760957 2.47325-1.266995 5.12644-1.273172 7.408269-.0062 2.282032.498669 4.105614 1.434782 5.191981.521163.60411 2.034761 1.21126 3.639411 1.21126 1.604657 0 3.118857-.60715 3.639817-1.21126.9462-1.098108 1.47986-2.939446 1.51156-5.223338.0317-2.284095-.42599-4.932583-1.15257-7.39822-.72658-2.465843-1.72564-4.761636-2.66855-6.339322-.463529-.775567-1.246639-1.703324-1.246639-1.703324z" fill="#d7e698"/><path d="m98.59011 28.860469-4.27726 8.726599s-1.836026 3.730133-3.339848 8.277532c-.751909 2.273697-1.442279 4.77275-1.77767 7.327718-.335388 2.554967-.46823 5.232675.848011 8.04137 3.271552 6.979502 13.820307 6.979807 17.091467 0 1.31652-2.808737 1.18544-5.486336.85007-8.04137-.33538-2.555034-1.02571-5.053997-1.77766-7.327718-1.50391-4.547444-3.34192-8.277532-3.34192-8.277532z" fill="#536020"/><path d="m98.589764 39.683233s-6.84212 13.962063-4.23333 19.528897c1.65021 3.520545 6.816736 3.520545 8.466676 0 2.60932-5.566834-4.233346-19.528897-4.233346-19.528897z" fill="#d7e698"/><path d="m80.043953 9.6983305c-2.057543.019614-3.689948.7883565-5.074624 2.0427695-1.385165 1.254219-2.310847 2.801327-2.53473 4.846216l-.000529.0031v.0026c-.104777.967846.200332 2.399424.764813 3.721736l-.356569.322978-6.746875 6.108671c-2.677977-2.67722-5.157861-4.489954-7.654301-5.571762-3.00787-1.303429-5.79112-1.472234-8.037237-1.579749l-1.96577-.094574-48.43838904 43.858823 40.18979504 44.384371 48.436322-43.858305.101285-1.965254c.115369-2.245479.223308-5.03183-.775663-8.154024-.998969-3.122198-2.978698-6.299574-6.321579-9.991638l1.597838 1.765265 7.039364-6.374289c1.259893.692664 2.654882 1.138534 3.630268 1.129647h.0011.0011c2.058935-.01963 3.689657-.788231 5.075142-2.042769 1.385196-1.254193 2.311626-2.799304 2.534726-4.848282v-.001c.16682-1.53489-.61163-4.272656-2.007109-5.813082l.0011.000529-13.873182-15.321061c-1.39586-1.541165-4.045609-2.5855884-5.586296-2.5709165z" fill="#536020"/><path d="m80.08943 14.460831c-.63976.0061-1.358517.298835-1.923397.810803-.56542.511969-.927775 1.198467-.997355 1.833997-.0688.635529.04605 1.265609.802534 2.101163l1.597319 1.76475 10.675835 11.789462 1.59835 1.765268c.756711.835025 1.372018 1.011961 2.011249 1.006139.639239-.0061 1.358503-.298835 1.923913-.810804.56515-.511703.927777-1.19848.996839-1.83348.0693-.636058-.04533-1.265874-.802019-2.101163l-13.872538-15.321029c-.756711-.835554-1.371762-1.011191-2.01073-1.005106zm-4.050401 9.707417-10.214361 9.248015-1.597838-1.765266c-6.121929-6.761428-9.673032-7.089747-14.050822-7.299297l-43.449028 39.34127 33.796387 37.32382 43.447479-39.341268c.224891-4.377268.250714-7.942837-5.871477-14.70453l-1.598351-1.765267 10.212814-9.248014zm-29.67209 14.360363 8.958628 9.89449 9.894485-8.958629 5.201751 5.74487-9.893454 8.959143 8.958626 9.894488-5.744869 5.201749-8.958626-9.894486-25.214998 22.831163-5.202784-5.744869 25.215516-22.831164-8.959144-9.894487z" fill="#d7e698"/></svg>