<svg height="500" viewBox="0 0 132.29167 132.29167" width="500" xmlns="http://www.w3.org/2000/svg" xmlns:xlink="http://www.w3.org/1999/xlink"><radialGradient id="a" cx="66.421852" cy="66.422104" gradientTransform="matrix(0 .9652088 -1 .00000664 132.84419 2.310697)" gradientUnits="userSpaceOnUse" r="66.145836"><stop offset="0" stop-color="#8a0"/><stop offset="1" stop-color="#dde9af"/></radialGradient><radialGradient id="b" cx="67.809837" cy="64.481827" gradientTransform="matrix(0 1.0251567 -1 -.00000016 132.29167 -5.03387)" gradientUnits="userSpaceOnUse" r="66.145835"><stop offset="0" stop-color="#dde9af"/><stop offset="1" stop-color="#bcd35f"/></radialGradient><g><circle cx="66.145836" cy="66.145836" fill="url(#a)" r="66.145836"/><path d="m66.159567 0-.01603 65.815118-4.212132-65.6801423a66.145615 66.195221 0 0 0 -8.381374 1.0767074l11.91758 61.1638679c-.027.0096-.06001.01448-.10025.01448l.628898 3.425086-.06615-.141184-.141594-.355281-.888314-2.808126c-.048.01848-.09145.03309-.135392.03309l-.032039.020682-22.01202-58.2740328a66.145615 66.195221 0 0 0 -3.900009 1.6228171l25.638144 56.7810207-.05788.03051.609781 1.174449.620115 1.380274.01447.01292.110069.198067.197405.335115v.0083l-.197405-.34338-.124539-.210997-1.462437-2.436812c-.0487.03215-.100753.06285-.149862.104982l-32.651629-53.0585855a66.145615 66.195221 0 0 0 -9.04283 6.7224355l43.536734 49.318544-.105421-.153595.220142.271504v.01345l-.0863-.08585-.02479-.03414-.0011-.0016-.00053-.000531-46.61453-46.425072a66.145615 66.195221 0 0 0 -5.563466 6.363534l49.352897 37.94796-.03772.04913 2.769848 2.186511-.554486-.28495-2.489247-1.498183c-.0369.04804-.06013.0882-.08113.125152l-55.032615-29.03793a66.145615 66.195221 0 0 0 -1.8520773 3.811914l56.7601713 25.49085c-.0196.04694-.04381.100304-.06821.157213l3.221499 1.253055-.0098-.0067.139008.06258-.128674-.05585.09457.0481.05633.02121-.05633-.01345v-.0078l-3.388412-1.079811c-.01479.03954-.03321.08864-.04651.134461l-59.5222895-18.079568a66.145615 66.195221 0 0 0 -2.31922923 11.03288l65.13017673 8.143048h-.327111l-65.18391895-3.921551a66.145615 66.195221 0 0 0 -.11162205 3.839322 66.145615 66.195221 0 0 0 .16174719 4.622807l62.04303681-4.283037h-.0072l.08113-.0062-.07338.0062 3.431304-.194449-2.029327.490776-.0801.01345-1.267104.248232.0186.06309-60.3780271 14.79308a66.145615 66.195221 0 0 0 1.1342941 4.067384l59.31244-18.59206c.02471.09608.0492.184078.0739.253922l3.165686-1.181689-1.780246.933457-57.7358222 26.467743a66.145615 66.195221 0 0 0 5.5603672 9.787586l53.976889-36.964861-.778244.631959-50.693896 39.741952a66.145615 66.195221 0 0 0 5.630127 6.29734l43.58066-44.301151c.0739.06984.149905.133839.221173.212547l2.018992-2.2827v-.0083l.200505-.229096.04909-.06258.205154-.223925.0052-.01708.01498-.0072-.0062.04189-.02739.03051.01344-.0481-.0181.0481-.34933.459745.162262-.276675-.04909.05534-.200505.23737-.687812.973276-1.131193 1.475431.07596.0481-35.433379 51.044788a66.145615 66.195221 0 0 0 3.53928 2.29668l32.110595-53.180626c.0295.01848.06779.04342.106971.06155l1.827788-3.11376-.0739.190312-26.497521 59.932004a66.145615 66.195221 0 0 0 10.618954 3.65057l15.793815-62.648602-.416511 2.440949.06253.01498-11.315547 61.089913a66.145615 66.195221 0 0 0 8.371039.99551l3.421486-62.045086c.0639.0063.120384.0062.174663.0062h.0083v-3.270974l.01447-.230651.100769.886913.16743 2.608505c.0513 0 .08957-.0062.133843-.0062l7.209356 61.709453a66.145615 66.195221 0 0 0 4.175957-.62058l-11.151779-61.123009c.0672-.0074.125399-.02423.18707-.03051l-.546219-2.835016-.01447-.03672-.08475-.474225.0047.0078.09457.503189 19.682972 61.960271a66.145615 66.195221 0 0 0 10.372976-4.28614l-29.408494-57.084113 1.095536 1.777445.07131-.04913 31.927669 53.299048a66.145615 66.195221 0 0 0 6.93495-4.79037l-38.498278-48.76932c.0672-.04952.111222-.103262.173632-.1598l-2.237582-2.527829.890897.802101 1.546154 1.544726.07597-.08119 46.255947 41.494062a66.145615 66.195221 0 0 0 2.71766-3.2234l-48.809799-38.459423c.0343-.04176.08071-.08805.108004-.12722l-2.477359-1.9088 55.981924 33.545463a66.145615 66.195221 0 0 0 4.9542-10.105115l-60.76301-23.591874 2.917643.890532.0031-.04913 59.247867 18.762207a66.145615 66.195221 0 0 0 2.03294-8.199932l-61.168673-11.060808c0-.04286.0098-.07977.0098-.118944l-1.949227-.239957-1.20406-.211513 3.183259.187208c.008-.08722.0078-.166267.0078-.254955l62.179461.472158a66.145615 66.195221 0 0 0 .003-.581796 66.145615 66.195221 0 0 0 -.10077-3.654699l-62.089546 3.537825v-.08791l-3.115562.214616-.583941.03724.572572-.03724h.01138l64.199097-12.066152a66.145615 66.195221 0 0 0 -2.98378-10.860672l-61.119584 22.662557-.06873.01811 2.780182-1.267536c-.0454-.09497-.104507-.213984-.174667-.318564l55.077019-28.975934a66.145615 66.195221 0 0 0 -2.08411-3.679007l-53.110794 32.448069-.05581-.08687-1.487242 1.032748-1.245397.758143 2.558491-2.010164-.03824-.05482 48.522462-39.013808a66.145615 66.195221 0 0 0 -7.76953-8.164252l-42.664438 48.409904-.613398.627303 40.028946-51.73415a66.145615 66.195221 0 0 0 -6.989211-4.752094l-31.551458 53.696738-.02479-.01758-1.86913 3.092559 1.465539-3.294764c-.0727-.04065-.149616-.0656-.230478-.09515l22.067313-58.2564578a66.145615 66.195221 0 0 0 -4.000776-1.3740679l-18.330616 59.5519077c-.0288-.01001-.05899-.01721-.100768-.03051l-.497644 1.994648-.298689.978447.55707-3.033602c-.0532-.0052-.107984-.01485-.162263-.01965l10.616888-61.40692615a66.145615 66.195221 0 0 0 -11.2277-.96345085zm-.514698 62.352279.267684 2.320453v.01139l.230477 1.179104v.122048l.0078-.04447.0062.166004v.02741l-.01498-.02741v-.116358l-.01757.08119-.06305-.130838-.148827-1.256677zm-2.477875 1.32442 1.874815 1.68643-.0067-.0052zm6.817649 1.592825-3.128997.767451h-.01498zm-3.21478.03051-.430465.736421-.0925.106016.02946-.118943-.02429.05482-.0052.0481-.01344.02792v-.0067l.01344-.02121v-.04292l.0052-.0052v-.02793l.0031-.0062.02169-.03206v-.0062l.0088-.0072.01603-.03982v.0052l-.01603.03465-.0088.01345zm-1.727538.0631.87953.673846.09612.149972-.118855-.04447.05323.03672h-.0057l-.05788-.03672h.0098zm1.331696.06516-.07855.420443.07855-.222374-.08836.364074-.02687.03982.03669-.18152.06925-.414755zm-.153994.101877-.02273.454575-.01498.0512-.031-.1236zm.831987.197036-.602028.420444h-.0062l-.109034.07344-.07596.03103.05633-.07291.01963-.0057.234609-.188759zm-1.069699.153076.03566.03724v.01242l-.02222-.0331zm1.022159.08378h.0078l-.04599.02121zm-.932757.0481.04857.09464v.01036l-.04857-.0936zm.110069.02481.0052.06981v.01036l.01035.02534.01241.03103-.01241.0057-.01035-.03154.01035-.0052-.01035-.01602v-.0093l-.01498-.0693zm.587559.01705-.0186.0072-.268715.08119.04134-.01602zm-1.491894.01758.626833.107567.09147.05688.0078.01604-.08268.01705zm.572573.08274h.01394l.02479.0083zm.192237.05068h.0052v.0052zm-.04341.01604h.0052l.01963.02121zm.05685.0481h.0062l-.0062.0083zm-.08888.04447h.01498l.06511.0093-.214973.08688zm-.102835.0093h.05736l-.246495.126699.06976-.01395-.0067.0072-.06305.0067h-.000529l-.535883.103948v.0062l-1.386991.247197 1.386991-.253403zm.470252.0062.134361.01139.198953.05895-.22376-.02224zm-.05788.04344.0093.0047.02946.05844.08682.04395.380856.371316-.357083-.266852-.06201-.07861-.04909-.06981-.0047-.0088-.02429-.04965h-.0093zm-.28112.02121-.06615.0724h-.0078l-.735871.334595.608228-.3739zm.415477.02637.03928.0067.0083.0083zm.0584.0067.512112.159801-.504362-.151007zm-.312125.04551.0083.0331.0057-.02587-.0057.03464.000529.0016.02016.06103.03307.501635-.0615-.357867.0083-.204791-.02326.134458v-.02431l-.0083-.04913.0083.03776v-.06981zm.191202.02431.01601.01758.02326.03879-.0098-.0083zm-.30179.0481-.0646.139114-1.044894 3.40026 1.037661-3.40026h.0072l.02223-.07602.0016-.0031zm-.02326.02792-.01707.03.01085-.02587zm.387571.02121.0088.0062.03049.05017-.02429-.02431zm-.115755.05637.0062.0078.0078.05998zm-.457849.07033v.0078l.01344-.0078zm.606677.357867 1.291909 2.854669-1.291909-2.840188z" fill="url(#b)"/></g><ellipse cx="66.206001" cy="58.262577" fill="#536020" rx="38.013378" ry="38.12328"/><path d="m66.170124 16.053804c-10.792434-.000128-21.613517 4.134732-29.834357 12.355319-15.376333 15.376335-16.250714 39.749032-2.869075 56.312325l-.03307.02532c-3.103552 2.455241-5.401826 5.781043-5.705079 9.656257l-.101801-.146243-3.43545 3.070095c-3.442547 3.078083-5.839953 7.079043-5.839954 11.574493.000167 3.90507 1.827323 7.48182 4.539258 10.33011s6.333105 5.14907 10.625192 7.0528c8.584171 3.80749 19.948459 6.00739 32.527214 6.00739 12.578726 0 23.990227-2.20042 32.621266-6.00377 4.315512-1.90168 7.958502-4.1997 10.691332-7.04505 2.73283-2.84534 4.5837-6.42315 4.5837-10.34148 0-4.55702-2.47619-8.58245-5.99602-11.670094l-3.41219-2.994131c-.2973-3.140668-1.91292-5.879905-4.21266-8.103384v-3.337778c11.84133-16.473647 10.48652-39.588166-4.312402-54.386863-8.220869-8.220868-19.043597-12.35519-29.835904-12.355319zm-.04341 12.365138c1.641152.0034 3.256176.370715 4.879289.644403-1.603007 2.655975-1.8845 5.892117-1.230415 8.853726.812077 3.676988 2.870427 7.255306 5.935554 10.320298 3.064986 3.065259 6.64197 5.121333 10.318234 5.931421 3.154297.695071 6.607728.30535 9.345684-1.597835 1.857934 9.387325-.775866 19.467894-8.093564 26.785447-2.647554 2.647736-5.687833 4.609023-8.898682 6.05286 1.026063-3.439092 1.140651-7.226033.312643-10.980725-1.418815-6.433775-5.138172-12.999456-10.771437-18.632972-5.632966-5.632842-12.19952-9.354233-18.632969-10.775053-3.307406-.730436-6.66627-.797195-9.773566-.109554 1.397622-2.792362 3.201927-5.438058 5.541264-7.777303 5.844061-5.844458 13.434277-8.712766 21.067965-8.714713z" fill="#536020"/><path d="m39.224814 31.29916c-14.879667 14.87967-14.950502 39.083538-.07105 53.962753 14.879666 14.879667 39.083535 14.808377 53.96275-.07106 14.879666-14.879215 14.879666-39.012022 0-53.891463-7.439833-7.439832-17.192669-11.159977-26.94585-11.160093-9.753178-.000116-19.506013 3.720256-26.94585 11.159863zm43.781771-2.433327c-3.081504-.904495-5.963219-.557363-7.769031 1.248675-3.27766 3.277659-1.769941 10.099513 3.363023 15.23225 5.132737 5.13319 11.947552 6.633871 15.225212 3.355985 1.934993-1.934766 2.203569-5.100951 1.042984-8.428558 8.253057 13.096107 6.716967 30.558489-4.697289 41.972518-6.619795 6.620249-15.291278 9.937866-23.965484 9.946947 2.142274-.522173 4.032541-1.528379 5.547752-3.043589 6.557815-6.558043 3.550778-20.195394-6.71878-30.465407-10.269559-10.269333-23.906917-13.283635-30.464733-6.725593-.919932.919934-1.649611 1.980399-2.199482 3.150068.701982-7.613969 3.966924-15.034505 9.798012-20.865365 6.628882-6.629331 15.298302-9.911303 23.966169-9.911303 5.830404.01203 11.661265 1.526562 16.871647 4.533372zm13.224831 59.049174c-.04657.04676-.08853.09581-.135077.142123-16.523382 16.52338-43.420308 16.60851-59.943228.08513-.06316-.06244-.122601-.128272-.184804-.19116-2.72143 2.152942-4.270466 4.627817-4.270466 7.265019 0 8.291891 15.282643 15.012481 34.359679 15.012481 19.076809 0 34.52996-6.72013 34.52996-15.012481 0-2.651732-1.582416-5.139321-4.356064-7.300663zm-30.174351 25.080203c-18.428632 0-34.044337-5.32617-39.141652-12.6216-2.869233 2.56546-4.477074 5.46057-4.477074 8.52799.000455 10.65416 19.421672 19.30452 43.604655 19.30452 24.18298 0 43.810336-8.64991 43.810336-19.30452 0-3.09603-1.66029-6.01589-4.60489-8.59894-5.04578 7.33096-20.703485 12.69255-39.191375 12.69255z" fill="#d7e698"/></svg>