<svg height="500" viewBox="0 0 132.29167 132.29167" width="500" xmlns="http://www.w3.org/2000/svg" xmlns:xlink="http://www.w3.org/1999/xlink"><radialGradient id="a" cx="66.145836" cy="66.145836" gradientTransform="matrix(.00000431 1 -1 .00000431 132.291387 -.000285)" gradientUnits="userSpaceOnUse" r="66.145836"><stop offset="0" stop-color="#d7e3f4"/><stop offset="1" stop-color="#3771c8"/></radialGradient><circle cx="66.145836" cy="66.145836" fill="url(#a)" r="66.145836"/><path d="m68.505465 71.713105c4.5282 8.113786 11.70143 14.154753 20.19112 17.740413 12.458905 5.09374 26.803135 4.90509 39.251035-.18996.94817-2.07592 1.51048-4.15205 2.08383-6.22708-11.70915 6.03974-25.29268 7.92524-38.313865 4.3397-5.46869-1.50831-10.38609-4.15227-14.90877-7.737814-3.01991-2.452105-5.66274-5.093856-7.73776-8.303427.18846 0 .37708-.188524.37708-.188524 5.66164 6.604375 12.64413 11.134815 20.94636 13.398385 12.458905 3.20957 25.105225 1.69906 36.428495-4.339698.37488-.188524.74974-.188524 1.12463-.378181 1.13563-.754156 2.08383-1.319773 3.20843-1.887593.37485-2.262466.57331-4.340803.9482-6.604373-.76078.37818-1.32309.943797-2.0728 1.510517-.76078.377078-1.32309.753053-2.08383 1.319772-14.33327 9.248326-31.885975 11.702646-47.178445 4.341904-.56228-.378177-1.13563-.756358-1.69791-.944897-.18752-.188524-.56231-.375974-.74974-.564513-.38589-.190743-.57335-.190743-.94711-.378181-2.83026-1.887596-5.09602-3.397007-7.36066-5.850219 0 0 .18971-.379284.37708-.379284.56781.188523.94489.944901 1.32196 1.323081 10.19204 7.925247 22.65091 10.002485 35.098805 7.35963 2.64612-.565617 4.90638-1.133437 7.36506-2.075027 4.3441-1.887596 8.30227-3.586649 12.26044-6.419146 1.32306-1.13013 2.64615-1.885388 3.9692-2.828082.56232-.56782 1.1246-1.132333 1.88538-1.700156-.18752-2.26467-.18752-4.338599-.37486-6.604375-.57335.565617-1.13566 1.320876-1.69794 1.886492-1.32309 1.13344-2.45872 2.077234-3.59435 3.208468-1.49949 1.320875-3.1974 2.264673-4.70792 3.585548-1.32305.943795-2.64614 1.510515-3.9692 2.263567-14.71912 8.87125-32.646715 9.815048-47.177315-.375975 0 0 .18846-.189648.18846-.377077 20.38405 11.890078 46.801335 2.453212 60.197395-15.475624-.56231-2.076131-1.12459-4.341907-1.51051-6.415836-7.54149 11.888976-19.05219 21.1362-33.583885 24.155029-8.50069 1.510518-16.99038.944901-24.72593-2.830289 0-.188555.18846-.377078.18846-.377078 8.10931 2.831393 16.61003 3.019931 24.91229.755258 4.718955-1.321975 8.864555-3.398108 13.208615-6.038757 2.27129-1.509411 3.9692-3.019928 6.04204-4.717881 3.20843-3.018826 5.84354-5.851319 8.48969-9.625406 1.32305-2.076131 2.64611-3.963726 3.77074-6.2295-.9372-2.073927-1.51052-4.150061-2.63511-6.036553-1.13563 3.017725-2.64615 5.849115-4.34409 8.680508-1.88538 3.019928-3.77075 5.661679-6.22944 8.302327-3.77074 3.964826-7.73995 7.360732-12.64632 10.002484-9.426865 5.096058-20.187815 6.983654-30.379855 4.340803 0-.187429.18971-.565616.18971-.565616 8.86673 1.69795 17.55488 0 25.47126-3.963727 8.114805-4.151165 14.542725-10.37956 19.438075-18.30481 2.64614-4.340804 4.53151-8.491969 6.042-13.022416-1.32306-1.887591-2.26023-3.77298-3.77074-5.472037-.94821 4.717883-2.45869 9.057586-4.71895 13.397287-.18752.380384-.18752.756362-.37486 1.13344-4.15663 7.73781-9.43789 13.964003-16.990415 19.061169-1.69791 1.132337-3.58329 1.886492-5.28123 3.019928-1.69795.942695-3.58332 1.321979-5.46869 1.886493-4.53152 1.509414-9.25265 2.454312-14.15903 1.697953v-.375974c6.04423-.188524 12.0752-1.697953 17.55492-4.341908.56228-.375975 1.1246-.564514 1.69791-.943798 3.95821-2.264673 7.16664-4.905317 10.375075-8.114887.9482-1.132337 1.88537-2.075032 2.83357-3.208472.37489-.565617.74974-1.132336 1.32306-1.697953 5.46869-8.115991 8.86458-16.417215 10.00021-25.664439-1.51052-1.700157-3.02101-3.39811-4.71895-4.717882-.18752 11.132613-3.39589 21.513277-10.18764 30.947938-7.177635 9.624305-17.365275 15.854908-28.878155 17.173578 0-.188524 0-.565617 0-.565617 6.41908-1.320876 12.0752-3.772982 17.18003-7.92525 5.28126-4.341903 9.23944-9.248328 12.260445-15.097443 4.34406-8.870147 6.22943-18.496656 5.66715-28.120958-1.70898-1.321979-3.40692-2.640648-5.2923-3.772984.57335 4.717885.76078 9.435766.37489 14.343291-.37489 2.640644-.74974 5.094959-1.31206 7.735604-.94821 3.963728-2.271265 7.548171-4.156635 11.137026-5.28123 9.999177-14.15684 18.116271-24.90894 21.136201 0-.188524 0-.379285 0-.379285 8.11702-3.397007 14.72131-8.867941 19.62771-16.606858.74971-1.131233 1.32306-2.453208 1.88537-3.585544 2.0728-3.585546 3.20843-7.169992 3.95818-11.13482 0-.375975.38588-.56672.38588-.943799 1.51052-8.30453 1.51052-16.418314-.57331-24.344667-1.88537-1.132337-3.77075-2.076131-5.84358-2.830287 3.20846 9.05979 3.95821 18.682989 2.26026 28.496933-.93717 4.152265-2.0728 8.114888-3.95817 11.888976-1.13566 2.076131-2.27129 3.962622-3.59435 6.038757-3.95817 5.472037-8.67602 9.435764-14.33764 12.454592-.18846 0-.37708-.564517-.37708-.564517 3.39586-1.887591 6.22503-4.341907 8.87118-7.17109 4.33302-4.718985 7.1666-10.380664 9.063-16.420525 3.58332-12.266053 2.0728-25.098823-2.83357-36.61072-2.08383-.565617-4.15663-1.320876-6.41686-1.697953 3.77074 7.172196 6.60429 15.097442 7.1666 23.401976.56231 8.302324-.74974 16.605754-4.53152 24.155025-.37485.56672-.74971 1.132337-.93717 1.699056-.18752.189649-.38589.565617-.57331.754156-.18753.378181-.18753.565617-.37489.943798-2.83354 3.963726-5.47088 7.736707-9.6231 10.378457 0 0-.18752-.187428-.37598-.375974 3.39698-2.454315 5.66052-5.852424 7.73885-9.436867 9.62532-16.04014 7.16663-34.913874-2.26685-50.387291-.5645-.755259-.9438-1.321979-1.32087-2.077235-2.26464-.188522-4.34075-.375977-6.60541-.564516 1.69794 2.263569 3.20843 4.528243 4.90637 6.981452 1.69904 2.831393 2.83136 5.47314 4.15223 8.304533 1.32196 3.207364 2.0717 6.227293 2.83248 9.625406 2.44765 13.398386-.57335 27.362392-9.81607 37.176337 0-.187429-.18752-.375975-.18752-.375975 5.0949-6.795118 7.73223-14.154751 8.30555-22.26964.93717-14.530722-5.47529-28.874013-15.47768-39.253574-2.26467 0-4.33969.18743-6.60432.564516 7.92516 6.795117 13.96388 15.285982 17.17231 25.289568.18971.755256.18971 1.320873.56782 2.075029.18845.379284.18845.755258.18845 1.13344.18846.377077.37595.56672.37595.943797 2.26467 10.945177 1.32197 21.513278-5.09489 31.13758 0 0-.18846-.188555-.37708-.188555 2.07612-3.962622 3.39699-8.114887 4.15223-12.64313.5656-3.96483.5656-7.92525 0-11.890076-2.07611-14.341084-10.75764-26.797879-22.26946-34.912771-2.07611.565617-4.15222 1.132337-6.22724 1.886493 13.77645 7.73671 24.34447 21.326945 26.42059 37.367083.75415 6.794012.18846 13.589131-2.64174 19.815324-.18846 0-.37817-.188524-.37817-.188524 0-.566719.37817-1.132336.56672-1.699056 1.88756-7.359629 1.69794-14.907801-.56672-22.078894-1.69685-5.09496-3.77515-9.626506-6.98358-13.96621-.56563-.564513-.94161-1.132337-1.31978-1.697953-5.66162-6.795116-12.26593-11.888972-20.0037-15.66306-2.07611.754156-3.96367 1.697953-5.84904 2.829186 1.88537.75526 3.77293 1.320876 5.47088 2.453213.37816.189648.75524.189648 1.13231.377077 7.92519 3.963727 14.34318 9.247226 19.62772 16.607957 6.98139 9.813946 9.81278 20.948766 7.35956 32.649202 0 0-.37817 0-.5656 0 .75306-3.586649.37599-6.982555 0-10.570306-.56562-4.716779-2.0772-8.867941-4.34187-13.019106-2.45209-4.906421-5.84907-9.248328-10.00239-13.212054-3.39586-3.017726-6.9814-5.473141-10.94397-7.736707-.3793-.188524-.75525-.188524-1.13345-.378182-3.5866-1.885388-7.35956-3.206264-11.13471-4.528242-1.88647 1.321978-3.5855 2.453211-5.28345 3.961522 7.36066 1.323079 14.15353 3.96483 20.75785 7.740018.37926.187429.37926.565617.75633.753052 12.83266 7.927452 21.51309 21.892562 20.76004 36.800363h-.37926c-.56563-11.323359-6.22725-21.513278-14.71803-29.063653-.56673-.375974-1.13345-.754155-1.69795-1.318668-.18971-.189649-.56891-.379285-.94598-.56672-.18971-.189649-.37708-.565617-.75306-.754156-8.49409-6.03986-17.74012-9.248328-27.74474-10.003587-1.88537 1.320876-3.20733 3.208467-4.71672 4.718986 11.88886-.188524 23.21322 2.830288 33.21452 10.191021 9.0586 6.604374 15.09841 16.040137 16.79633 26.796777-.18752 0-.56669 0-.56669 0-3.01882-12.83167-12.07742-22.268537-23.40068-27.930217-1.32087-.564513-2.64171-1.133436-3.96149-1.50941-8.11702-3.208471-16.79855-4.151166-25.29046-3.39701-1.13231 1.887596-2.6417 3.584446-3.5855 5.66168 7.36066-1.697954 14.72025-1.509414 22.26833-.18743.3793 0 .56782.375975.94602.375975 9.81275 2.076134 18.30462 6.604374 24.72151 14.154748.18846.188524.5656.377078.75415.565617 3.01991 3.963729 5.66162 7.738916 6.9814 12.455695 0 0-.18846.188523-.37708.188523-5.85017-13.39949-18.87138-22.268537-33.40195-24.53431-3.77518-.565615-7.54921-.754155-11.32326-.565615-4.34188.188522-8.68153.943797-13.02341 2.07613-.75195 2.075031-1.88427 3.962627-2.45098 6.039861 14.34204-5.473141 30.94766-5.850219 44.72411 2.263569 6.41799 3.775188 11.32436 8.682711 14.90987 14.908904-.18846 0-.56669.188524-.56669.188524-6.22616-9.247225-14.90659-14.530723-25.4757-16.983936-12.26703-2.64285-24.53519-.56672-35.28953 4.717883-.37818 2.076133-1.323072 4.151164-1.323072 6.415834 3.208442-2.26467 6.983582-3.774084 10.757642-5.285704 4.34077-1.69685 8.67933-2.451006 13.20973-3.016623 14.15465-1.510514 28.68522 3.584446 37.74385 14.529623-.18846 0-.37707.189649-.37707.189649-8.68156-8.493069-20.57042-12.645338-32.45819-12.078618-10.75986.565616-20.94968 4.717882-29.629008 10.946281-.189647 2.264674-.189647 4.341908-.189647 6.604374 2.642835-2.453212 5.473095-4.52824 8.681545-6.415835.37595-.188523.5656-.56672.94267-.755258 14.34318-8.303427 32.08221-10.379562 46.80246-1.697954 1.13231.754155 2.07611 1.509414 3.20843 2.075031.75524.378181 1.31977 1.132337 2.07611 1.70016 0 0-.18971.187429-.18971.375974-2.07499-1.509414-4.34075-2.453211-6.60541-3.775187-1.5083-.564517-3.01879-1.131234-4.52821-1.697954-8.49188-2.64175-17.36305-2.262466-26.04348.188555-6.98361 2.076131-13.0223 5.662783-18.87137 10.191023-.37708.188554-.37708.756358-.75636.943797-1.69794 1.321975-3.018799 2.642851-4.527097 4.152265 0 1.319772.187428 2.642852.564509 3.962623v.944902c.188553.564513.188553.942694.377074 1.510514 2.076114-3.019929 4.718944-5.285703 7.360674-7.927453 1.51052-1.320876 3.02101-2.26357 4.52821-3.586648 7.54921-5.470935 15.66623-8.681609 24.72483-9.434664 8.11371-.566716 16.41707.943798 23.39956 5.093859-.18971.189649-.37817.379282-.37817.379282-2.83026-1.509412-5.66053-2.265773-8.86896-2.83139-3.96148-.943798-7.73776-.943798-11.70034-.755259-15.85256 1.320876-29.44046 11.511897-37.93127 24.344675.75304 2.07723 1.31976 4.15116 2.07501 6.22718 5.66165-10.757631 14.5306-19.816319 25.66644-24.910175 3.39586-1.510515 6.79175-2.454313 10.5669-3.208468h1.13232c6.41798-1.320875 12.83375-.375975 18.87247 1.697953 0 .188523-.18846.378178-.18846.378178-10.94616-2.641747-21.70492-.942694-31.32806 4.529343-6.79284 3.962626-12.0785 9.057586-16.79633 15.663059-.37707.75526-.75305 1.32197-1.32087 2.07613-1.69794 2.83118-3.20733 5.66301-4.5304 8.49308.5667.94357.94599 2.07502 1.51159 3.0186.75527.75548 1.13122 1.88991 1.69794 2.830512 1.13235-3.962742 2.83027-7.548282 4.71895-11.132392.9427-1.69928 1.88647-3.2098 3.01769-4.90774 5.09602-6.983663 10.75876-12.455701 18.30688-16.041249 3.96258-1.887592 7.92628-3.397006 12.26815-3.96152 4.15001-.567823 8.11259-.567823 12.26484 0v.564514c-10.75654-.943798-21.5153 2.830289-30.00609 10.00138-9.24824 7.738915-14.90877 18.306895-17.5516 29.818807 1.32196 1.69784 2.45319 3.58466 4.15332 5.09507 2.07502-22.268542 20.0026-43.781818 43.21582-44.349641v.567823c-14.15352 1.509411-26.23203 10.5681-33.026 23.023906-.18846.37465-.18846.75283-.37817 1.1309-4.15113 7.35963-5.66161 15.286092-6.22834 23.401202 1.70014 1.32088 3.02101 3.20814 5.09821 4.34092-.56781-5.28504.18753-10.19147 1.13013-15.47474 1.51161-7.737812 4.5293-14.343292 9.25047-20.570592 6.22612-7.926349 14.1524-13.399491 24.1537-15.287082 0 0 .18846.188523.18846.377077-2.64174.755259-5.28457 1.887593-7.92741 3.207364-.5645.379285-1.13122.567823-1.69903.946005-4.33966 2.640647-7.73555 5.849115-10.94398 9.811746-4.5293 5.85132-7.35956 11.88996-9.0586 19.062262-.5645 3.02005-1.13231 6.03876-1.32087 9.05869-.18846 3.96241 0 8.11378.37708 12.07663.94379.37807 1.88868 1.13311 2.83135 1.69905.9438.56629 2.07612.94358 3.01882 1.50821-3.01882-11.69966-2.26354-24.34258 2.83135-35.477612 4.34078-9.625191 12.26485-17.363002 22.08091-21.324525v.56672c-21.13711 10.378458-27.74252 37.553417-20.19332 58.502187 1.88756.9428 3.96258 1.50698 6.0376 2.26368-3.96148-9.24734-5.84907-19.06018-4.5282-29.25121 1.69903-12.644232 8.30445-24.343563 19.0599-30.950144 0 .188524.18846.378181.18846.378181-6.9814 5.283499-11.70034 12.267161-14.15466 20.193731-4.52708 13.776462-2.26244 28.495722 4.53152 40.951302 2.26354.56539 4.34078.9427 6.60432 1.32087-12.83375-18.11616-14.72134-46.046472 3.39589-61.900286 0 0 .18971.189649.37926.189649-5.47309 6.037653-9.0586 13.209845-10.37947 21.512175-.75746 5.2846-.56781 10.379672.18971 15.665052 0 .37729.37598.56594.37598.9428.94267 6.22741 3.39586 11.51189 6.41577 16.98382.18971.37951.56559.56805.75524.94622 1.13235 2.26115 2.64284 4.15106 4.15223 6.03788h6.60432c-6.22725-6.41605-11.13362-13.96511-13.77646-22.64572-.18752-.75416-.18752-1.3222-.56669-2.07724-.18846-.37598-.18846-.75448-.18846-1.13134-.18752-.37819-.37707-.56683-.37707-.94501-2.64283-12.454702-.75415-24.91018 7.17213-34.723021 0 0 .18846.188524.37708.188524-5.472 7.926348-7.17214 17.739305-6.03869 27.177045 1.69791 13.208862 8.68043 25.098062 18.68282 33.589922 2.07612-.3773 4.33634-.75328 6.42018-1.13135-3.20843-2.45321-6.23165-4.90642-9.06082-7.92646-1.88866-2.07591-3.39808-3.96362-5.09712-6.22741-2.45097-3.3981-3.96258-6.79367-5.66052-10.56909-.56672-1.32087-.75634-2.64186-1.32087-3.96229-3.01991-10.192342-2.45428-21.137526 2.45209-30.57329 0 0 .37817.189649.56672.189649-5.09602 11.699329-3.5855 25.099929 2.4521 36.422291 4.90856 9.05869 12.27256 16.04234 20.76222 21.1361 2.07283-.75416 4.14563-1.50953 6.04203-2.45444-3.78177-1.5083-6.80278-3.58422-10.19866-6.03743-4.71895-3.58554-8.67822-7.17142-11.69703-12.07872-3.58551-4.15094-5.4731-9.435552-7.17213-14.719262-1.13232-4.52956-1.5094-9.05869-1.32084-13.588035.18846-2.64285.75415-4.907523 1.32084-7.549271.18845-.377078-.18846-.755259.75414-.755259-2.64061 12.078615.56894 24.534425 8.30449 34.536797.56559.5655.94267 1.13134 1.32084 1.69773 6.41689 7.54828 14.34426 12.83409 23.39627 16.23099.9482-.56683 2.08383-.94368 3.020995-1.50908.57332-.56683 1.32306-.94501 2.08383-1.32308.18752-.18787.37486-.37608.56232-.56474-9.625315-2.45442-18.302465-7.35962-25.666435-14.53182-.9438-1.13234-1.88647-2.07591-2.83026-3.20869-7.35957-8.870042-10.94619-20.004752-9.62311-31.138464.18628 0 .5656.188553.5656.188553-.37926 8.491967 2.07393 16.418429 6.98249 23.778949 1.31977 2.07722 2.64064 3.77629 4.33968 5.661902 1.51271 1.50908 3.02319 2.83006 4.52268 4.33958 4.15663 3.39811 8.50072 6.03998 13.40709 8.11589 4.1456 1.69784 8.302265 2.8305 12.646325 3.77419 1.69794-1.50964 3.39589-3.01872 4.90637-4.52956-6.41689-.37818-12.458885-1.88859-18.313465-4.3418-.74974-.37685-1.31203-.5655-2.0728-.94281-6.22943-3.01871-11.51069-6.7928-16.03999-12.077392-.9438-1.32177-2.07612-2.45322-3.01991-3.9623-.75524-1.13366-1.32087-2.26721-2.07502-3.39822-.56669-1.13245-1.13341-2.45332-1.69904-3.58566-1.69904-4.15116-2.83135-8.304529-3.01991-12.832769h.3782c1.88647 11.323359 7.92628 20.758899 17.36087 27.555239 9.81274 6.980232 20.761115 9.811962 32.084385 9.811962 1.51048-1.69906 2.83357-3.39723 4.1456-5.2845-4.33303.75493-8.86455.37807-13.20861 0-4.14563-.37862-8.114825-1.50963-12.073005-2.83183-1.32305-.5655-2.64614-1.13102-3.9692-1.695632-11.51069-5.2867-20.56598-15.47773-23.77444-27.743777h.56563c3.0199 9.057577 9.0586 16.418317 17.36527 21.514267 1.32305.75416 2.44765 1.32099 3.58328 2.07635 10.76098 5.283292 22.833955 6.604272 34.344645 4.339602 1.32309-1.885512 2.27126-3.962732 3.20846-5.850442-17.74015 5.09639-39.063595 2.265-51.706605-12.83365-.18845-.18856-.56672-.37598-.75636-.565622-2.26354-2.83139-4.15113-5.660577-5.472-8.870147 0 0 .18845-.18743.37819-.18743" fill="#3771c8" fill-rule="evenodd"/><path d="m122.79375 41.730369c2.52473-.04072 6.28341-.826245 7.40779-3.228712 1.78251-3.928096 2.55596-7.981801 1.80364-11.91313v-.002c-.55865-2.918825-2.5255-5.926661-4.44534-7.209352-1.91985-1.28269-3.29276-1.691235-4.45938-1.520298-1.16661.170938-1.60299.334999-2.01115.555787-1.43581.425782-2.84457.876473-4.68217 1.761791-2.32101 1.105527-4.46616 2.270026-5.7491 2.950264-9.18049 2.565706-14.171654 4.260102-20.846103 5.536415-.726777-2.223975-2.778141-4.540292-4.689139-5.327711-1.310785-.540919-2.612067-.750656-3.94199-.760603-.508397-.0051-1.033853.118807-1.553084.17882.351381-3.256041.2244-6.431965-.783018-9.230348l-.004-.0075c-1.296411-3.583187-3.791433-6.7667545-7.718379-7.6861875-3.926944-.919433-3.391237-.8332629-5.073918-.5763431-1.968886.3006187-3.877246 1.1449784-5.465187 2.4153014-3.110266 2.4495002-5.292239 6.0877442-6.421545 10.4521932-.0032.01128-.0064.02257-.0094.03387-.879545 3.502177-.718124 6.867697-.02989 10.007885-3.679295.862318-6.835736 2.219332-9.65423 4.512814-3.28912 4.393897-3.936317 12.389981-5.244528 18.031329-1.394791 6.014704-.235583 12.503139-.276944 18.921935-14.28791 14.284391-25.157777 36.488291-28.775447 61.924191-.4365205 3.07149 1.946921 5.81819 5.049269 5.81884h10.632538c2.391526-.00025 4.461807-1.66197 4.979535-3.99677 2.399451-10.83963 4.598808-21.22245 8.631626-29.04638v-.002c.000255-.00077.0015-.00097.002-.002 4.017559-7.777679 9.744532-13.025835 19.814536-14.606876 9.280794 11.351256 17.832644 25.234986 20.339536 43.256246.350884 2.52058 2.505884 4.39696 5.050764 4.39776h10.365523c2.959951.00021 5.298635-2.51062 5.088575-5.4631-1.745965-24.49893-13.025316-43.33117-26.312793-62.483105l-.002-.004c-1.589514-2.286955-1.689167-4.550421.423522-12.771798 1.846533-6.868883 2.579599-5.839153 7.991929-6.863423 11.742374-2.179261 20.819642-4.461251 34.499352-9.770788 2.0357.927489 4.00062 1.544811 6.06864 1.716961z" fill="#162d50"/><path d="m67.894163 9.991124c-1.361073.02618-2.774488.5706-4.135552 1.662072-2.015425 1.578313-3.769108 4.303065-4.659033 7.742377-.863759 3.43931-.654361 6.857682.287916 9.485588.942278 2.591261 2.460387 4.292596 4.344941 4.946955 1.570461.549661 3.297969.340266 4.973135-.680533.602008-3.559714 2.591257-6.355136 5.575134-8.271099.02622-.04973.02622-.09946.05233-.151811.863748-3.441929.65436-6.857683-.287917-9.47512-.942274-2.604349-2.460393-4.3083-4.344948-4.965277-.602008-.20416-1.204017-.303623-1.806025-.293152zm55.620527 12.906578c-.83759.188455-2.87919.900398-4.89462 1.871467-2.27717 1.083619-4.55433 2.319048-5.86305 3.010051l-.23557.117786-.23558.06544c-9.97243 2.7771-15.050249 4.687828-23.111956 6.075069-.575832 1.596637-1.570462 3.271796-2.957701 4.97313h-.02622v.02618c-1.622802 1.9369-3.245615 3.847628-4.894595 5.732183 11.987851-2.224821 20.625392-4.371119 34.733372-9.946258l1.07315-.418789 1.0208.602009c1.43958.889929 3.50736 1.518114 5.13016 1.648986.81142.07852 1.51814 0 1.93691-.104698.36644-.104698.36644-.18322.36644-.157046 1.41342-3.11475 1.91073-6.386544 1.4396-8.846934-.44497-2.326901-1.49195-3.831927-3.48119-4.648567zm-42.376297 4.774203c-2.329526-.02618-5.261052 1.130733-7.224133 4.088436-1.544286 7.721437-6.98855 13.113355-14.971729 16.38515l-1.779859-4.344943c3.324145-1.361068 5.915402-2.93153 7.878484-4.868431-.811406-.05235-1.64899-.23557-2.460387-.523488-2.722136-.968451-4.868431-3.036226-6.308023-5.601314-3.821459.732883-5.915412 1.648985-8.585196 3.821457-1.073147 9.553643 1.779859 17.667695 7.224124 25.284434 10.914713-6.648288 19.290512-15.835489 27.666301-25.886443 2.146304-2.669786 2.617443-4.606689 2.486572-5.732187-.157045-1.099323-.706712-1.761534-1.884553-2.24576-.575844-.238186-1.282546-.371675-2.041601-.376911zm-36.827331 23.405116c-.444962 6.07245-.183222 12.694565-.26174 19.63077v.994627l-.706713.680532c-13.686571 13.244228-24.577719 34.96895-28.12173 59.88694h10.63202c2.387102-10.78384 4.57266-21.5415 9.079891-30.28374 4.771581-9.239547 12.519196-16.228101 25.187583-17.667691l1.256369-.157046.811407.968451c9.998603 11.961685 19.709299 27.195156 22.483778 47.140026h10.365047c-1.64898-23.13814-12.249601-40.962876-25.415303-59.939288-2.56509-3.690585-2.669785-7.79996-1.701332-11.752289.235565-.994625.549657-2.015426.889925-3.062399-4.057024 3.559712-8.454317 6.805334-13.348924 9.60599l-1.806036 1.0208-1.230193-1.62281c-3.664404-4.763734-6.491235-9.893909-8.114049-15.442873z" fill="#c1d4ee"/></svg>