<svg height="500" viewBox="0 0 132.29167 132.29167" width="500" xmlns="http://www.w3.org/2000/svg" xmlns:xlink="http://www.w3.org/1999/xlink"><radialGradient id="a" cx="66.421852" cy="66.422104" gradientTransform="matrix(0 .9652088 -1 .00000664 132.84419 2.310697)" gradientUnits="userSpaceOnUse" r="66.145836"><stop offset="0" stop-color="#8a0"/><stop offset="1" stop-color="#dde9af"/></radialGradient><radialGradient id="b" cx="67.809837" cy="64.481827" gradientTransform="matrix(0 1.0251567 -1 -.00000016 132.29167 -5.03387)" gradientUnits="userSpaceOnUse" r="66.145835"><stop offset="0" stop-color="#dde9af"/><stop offset="1" stop-color="#bcd35f"/></radialGradient><circle cx="66.145836" cy="66.145836" fill="url(#a)" r="66.145836"/><path d="m66.159567 0-.01603 65.815118-4.212132-65.6801423a66.145615 66.195221 0 0 0 -8.381374 1.0767074l11.91758 61.1638679c-.027.0096-.06001.01448-.10025.01448l.628898 3.425086-.06615-.141184-.141594-.355281-.888314-2.808126c-.048.01848-.09145.03309-.135392.03309l-.032039.020682-22.01202-58.2740328a66.145615 66.195221 0 0 0 -3.900009 1.6228171l25.638144 56.7810207-.05788.03051.609781 1.174449.620115 1.380274.01447.01292.110069.198067.197405.335115v.0083l-.197405-.34338-.124539-.210997-1.462437-2.436812c-.0487.03215-.100753.06285-.149862.104982l-32.651629-53.0585855a66.145615 66.195221 0 0 0 -9.04283 6.7224355l43.536734 49.318544-.105421-.153595.220142.271504v.01345l-.0863-.08585-.02479-.03414-.0011-.0016-.00053-.000531-46.61453-46.425072a66.145615 66.195221 0 0 0 -5.563466 6.363534l49.352897 37.94796-.03772.04913 2.769848 2.186511-.554486-.28495-2.489247-1.498183c-.0369.04804-.06013.0882-.08113.125152l-55.032615-29.03793a66.145615 66.195221 0 0 0 -1.8520773 3.811914l56.7601713 25.49085c-.0196.04694-.04381.100304-.06821.157213l3.221499 1.253055-.0098-.0067.139008.06258-.128674-.05585.09457.0481.05633.02121-.05633-.01345v-.0078l-3.388412-1.079811c-.01479.03954-.03321.08864-.04651.134461l-59.5222895-18.079568a66.145615 66.195221 0 0 0 -2.31922923 11.03288l65.13017673 8.143048h-.327111l-65.18391895-3.921551a66.145615 66.195221 0 0 0 -.11162205 3.839322 66.145615 66.195221 0 0 0 .16174719 4.622807l62.04303681-4.283037h-.0072l.08113-.0062-.07338.0062 3.431304-.194449-2.029327.490776-.0801.01345-1.267104.248232.0186.06309-60.3780271 14.79308a66.145615 66.195221 0 0 0 1.1342941 4.067384l59.31244-18.59206c.02471.09608.0492.184078.0739.253922l3.165686-1.181689-1.780246.933457-57.7358222 26.467743a66.145615 66.195221 0 0 0 5.5603672 9.787586l53.976889-36.964861-.778244.631959-50.693896 39.741952a66.145615 66.195221 0 0 0 5.630127 6.29734l43.58066-44.301151c.0739.06984.149905.133839.221173.212547l2.018992-2.2827v-.0083l.200505-.229096.04909-.06258.205154-.223925.0052-.01708.01498-.0072-.0062.04189-.02739.03051.01344-.0481-.0181.0481-.34933.459745.162262-.276675-.04909.05534-.200505.23737-.687812.973276-1.131193 1.475431.07596.0481-35.433379 51.044788a66.145615 66.195221 0 0 0 3.53928 2.29668l32.110595-53.180626c.0295.01848.06779.04342.106971.06155l1.827788-3.11376-.0739.190312-26.497521 59.932004a66.145615 66.195221 0 0 0 10.618954 3.65057l15.793815-62.648602-.416511 2.440949.06253.01498-11.315547 61.089913a66.145615 66.195221 0 0 0 8.371039.99551l3.421486-62.045086c.0639.0063.120384.0062.174663.0062h.0083v-3.270974l.01447-.230651.100769.886913.16743 2.608505c.0513 0 .08957-.0062.133843-.0062l7.209356 61.709453a66.145615 66.195221 0 0 0 4.175957-.62058l-11.151779-61.123009c.0672-.0074.125399-.02423.18707-.03051l-.546219-2.835016-.01447-.03672-.08475-.474225.0047.0078.09457.503189 19.682972 61.960271a66.145615 66.195221 0 0 0 10.372976-4.28614l-29.408494-57.084113 1.095536 1.777445.07131-.04913 31.927669 53.299048a66.145615 66.195221 0 0 0 6.93495-4.79037l-38.498278-48.76932c.0672-.04952.111222-.103262.173632-.1598l-2.237582-2.527829.890897.802101 1.546154 1.544726.07597-.08119 46.255947 41.494062a66.145615 66.195221 0 0 0 2.71766-3.2234l-48.809799-38.459423c.0343-.04176.08071-.08805.108004-.12722l-2.477359-1.9088 55.981924 33.545463a66.145615 66.195221 0 0 0 4.9542-10.105115l-60.76301-23.591874 2.917643.890532.0031-.04913 59.247867 18.762207a66.145615 66.195221 0 0 0 2.03294-8.199932l-61.168673-11.060808c0-.04286.0098-.07977.0098-.118944l-1.949227-.239957-1.20406-.211513 3.183259.187208c.008-.08722.0078-.166267.0078-.254955l62.179461.472158a66.145615 66.195221 0 0 0 .003-.581796 66.145615 66.195221 0 0 0 -.10077-3.654699l-62.089546 3.537825v-.08791l-3.115562.214616-.583941.03724.572572-.03724h.01138l64.199097-12.066152a66.145615 66.195221 0 0 0 -2.98378-10.860672l-61.119584 22.662557-.06873.01811 2.780182-1.267536c-.0454-.09497-.104507-.213984-.174667-.318564l55.077019-28.975934a66.145615 66.195221 0 0 0 -2.08411-3.679007l-53.110794 32.448069-.05581-.08687-1.487242 1.032748-1.245397.758143 2.558491-2.010164-.03824-.05482 48.522462-39.013808a66.145615 66.195221 0 0 0 -7.76953-8.164252l-42.664438 48.409904-.613398.627303 40.028946-51.73415a66.145615 66.195221 0 0 0 -6.989211-4.752094l-31.551458 53.696738-.02479-.01758-1.86913 3.092559 1.465539-3.294764c-.0727-.04065-.149616-.0656-.230478-.09515l22.067313-58.2564578a66.145615 66.195221 0 0 0 -4.000776-1.3740679l-18.330616 59.5519077c-.0288-.01001-.05899-.01721-.100768-.03051l-.497644 1.994648-.298689.978447.55707-3.033602c-.0532-.0052-.107984-.01485-.162263-.01965l10.616888-61.40692615a66.145615 66.195221 0 0 0 -11.2277-.96345085zm-.514698 62.352279.267684 2.320453v.01139l.230477 1.179104v.122048l.0078-.04447.0062.166004v.02741l-.01498-.02741v-.116358l-.01757.08119-.06305-.130838-.148827-1.256677zm-2.477875 1.32442 1.874815 1.68643-.0067-.0052zm6.817649 1.592825-3.128997.767451h-.01498zm-3.21478.03051-.430465.736421-.0925.106016.02946-.118943-.02429.05482-.0052.0481-.01344.02792v-.0067l.01344-.02121v-.04292l.0052-.0052v-.02793l.0031-.0062.02169-.03206v-.0062l.0088-.0072.01603-.03982v.0052l-.01603.03465-.0088.01345zm-1.727538.0631.87953.673846.09612.149972-.118855-.04447.05323.03672h-.0057l-.05788-.03672h.0098zm1.331696.06516-.07855.420443.07855-.222374-.08836.364074-.02687.03982.03669-.18152.06925-.414755zm-.153994.101877-.02273.454575-.01498.0512-.031-.1236zm.831987.197036-.602028.420444h-.0062l-.109034.07344-.07596.03103.05633-.07291.01963-.0057.234609-.188759zm-1.069699.153076.03566.03724v.01242l-.02222-.0331zm1.022159.08378h.0078l-.04599.02121zm-.932757.0481.04857.09464v.01036l-.04857-.0936zm.110069.02481.0052.06981v.01036l.01035.02534.01241.03103-.01241.0057-.01035-.03154.01035-.0052-.01035-.01602v-.0093l-.01498-.0693zm.587559.01705-.0186.0072-.268715.08119.04134-.01602zm-1.491894.01758.626833.107567.09147.05688.0078.01604-.08268.01705zm.572573.08274h.01394l.02479.0083zm.192237.05068h.0052v.0052zm-.04341.01604h.0052l.01963.02121zm.05685.0481h.0062l-.0062.0083zm-.08888.04447h.01498l.06511.0093-.214973.08688zm-.102835.0093h.05736l-.246495.126699.06976-.01395-.0067.0072-.06305.0067h-.000529l-.535883.103948v.0062l-1.386991.247197 1.386991-.253403zm.470252.0062.134361.01139.198953.05895-.22376-.02224zm-.05788.04344.0093.0047.02946.05844.08682.04395.380856.371316-.357083-.266852-.06201-.07861-.04909-.06981-.0047-.0088-.02429-.04965h-.0093zm-.28112.02121-.06615.0724h-.0078l-.735871.334595.608228-.3739zm.415477.02637.03928.0067.0083.0083zm.0584.0067.512112.159801-.504362-.151007zm-.312125.04551.0083.0331.0057-.02587-.0057.03464.000529.0016.02016.06103.03307.501635-.0615-.357867.0083-.204791-.02326.134458v-.02431l-.0083-.04913.0083.03776v-.06981zm.191202.02431.01601.01758.02326.03879-.0098-.0083zm-.30179.0481-.0646.139114-1.044894 3.40026 1.037661-3.40026h.0072l.02223-.07602.0016-.0031zm-.02326.02792-.01707.03.01085-.02587zm.387571.02121.0088.0062.03049.05017-.02429-.02431zm-.115755.05637.0062.0078.0078.05998zm-.457849.07033v.0078l.01344-.0078zm.606677.357867 1.291909 2.854669-1.291909-2.840188z" fill="url(#b)"/><path d="m355.00195 500v-111.49805c11.24675 8.74866 29.51524 17.49414 54.9961 17.49414 22.36357 0 41.08424-11.09656 52.26367-26.17578l.008-.008.008-.0137c11.44725-15.48744 16.72657-35.03676 16.72657-54.79688 0-19.76011-5.27932-39.31527-16.72657-54.80273l-.008-.008-.008-.0137c-10.59776-14.2946-28.09755-24.68687-48.92774-25.76367 2.32116-3.06575 4.23317-6.46006 5.58008-10.16406l1.08594-2.97613v-213.697268l-27.61523 17.458984c-5.35083 3.381996-11.32931 5.367421-17.67969 6.148438-12.44385 1.517238-27.0845-.530781-42.9043-2.828125h-.0137c-15.7198-2.297624-31.7421-4.830523-47.67383-2.884766l-.006.0059c-11.85438 1.455803-24.41437 6.789587-34.10547 16.396485-9.69124-9.607672-22.25645-14.940621-34.11133-16.396485v-.0059h-.008c-15.9366-1.946352-31.9631.586583-47.6875 2.884766-15.81976 2.297344-30.45065 4.345367-42.89453 2.828125h-.0156c-6.34496-.782257-12.31729-2.769-17.66407-6.148438l-27.622703-17.458984v32.671875 181.027343l1.083984 2.97461c1.346903 3.70399 3.260865 7.09831 5.582031 10.16406-20.821496 1.07743-38.309636 11.47403-48.890624 25.76953-.0041.006-.01154.01-.01563.0156-11.544906 15.51954-16.755859 35.09368-16.755859 54.80273 0 19.70907 5.210942 39.28323 16.755859 54.80274.0041.004.01154.008.01563.0156 11.162253 15.08085 29.871145 26.17578 52.226562 26.17578 25.48647 0 43.75586-8.75129 55.00195-17.50195v111.50591zm-205.49037-234.008.00014.00019h.002c4.4262.0551 8.76367.20703 13.28711.20703 16.87143 0 33.3981.0707 47.52344 3.18164l-.008-.008c6.24487 1.38044 11.89571 3.72233 17.02343 6.6289h-67.81836s-2.1205-2.33413-10.00976-10.00976zm123.15248 10.00995c5.12325-2.90404 10.7691-5.24053 17.00782-6.62109 14.12534-3.11094 30.65396-3.18164 47.52539-3.18164 4.52595 0 8.86632-.15181 13.29492-.20703-7.88926 7.67562-10.09473 10.17186-10.09473 10.17186zm-175.134763 8.06055.207031.0215c-.02457-.002-.04976.0101-.07422.008-.04407-.004-.08874-.0255-.132812-.0293zm304.939453 0c-.0416.004-.0854.0255-.12695.0293-.0227.002-.0441-.01-.0664-.008z" fill="#536020" transform="scale(.26458334)"/><path d="m25.929171 13.29532v47.056147c.9525 2.619376 2.64583 3.730626 5.52979 4.497917 3.01625.767292 7.17021.820209 11.61521.820209s9.15458-.02646 13.59958.9525c2.51354.555625 4.94771 1.508125 7.09083 2.963333v-51.47998c-1.905-2.619376-4.20687-3.622146-7.22312-3.992563-3.22792-.394229-7.22313.145521-11.35063.748771-4.15395.60325-8.4402 1.272646-12.62062.762-2.30188-.283104-4.57729-1.023938-6.64104-2.328334zm80.433339 0c-2.06375 1.304396-4.33917 2.04523-6.641052 2.328334-4.180414.510646-8.466664-.15875-12.620622-.762-4.127501-.60325-8.122706-1.143-11.350626-.748771-3.01625.370417-5.318119 1.373187-7.223119 3.992563v51.47998c2.143119-1.455208 4.577289-2.407708 7.090829-2.963333 4.445-.978959 9.154582-.9525 13.599582-.9525s8.598956-.05292 11.615208-.820209c2.88396-.767291 4.5773-1.878541 5.5298-4.497917zm-73.342509 11.318876h23.65375v4.7625h-23.65375zm42.597919 0h23.653748v4.7625h-23.653748zm-42.597919 11.766021h23.65375v4.7625h-23.65375zm42.597919 0h23.653748v4.7625h-23.653748zm-42.597919 12.3825h23.65375v4.7625h-23.65375zm42.597919 0h23.653748v4.7625h-23.653748zm-51.805419 20.558126c-4.57729 0-7.723189 1.931458-9.993309 5.000625-2.26748 3.042708-3.50044 7.355417-3.50044 11.668125 0 4.312709 1.23296 8.625417 3.50044 11.668125 2.27012 3.069172 5.416019 5.000632 9.993309 5.000632 5.82083 0 9.44563-1.87854 11.7475-3.704173 2.27542-1.825625 3.04271-3.439584 3.04271-3.439584l.66146-1.322916h53.763331l.661459 1.322916s.767291 1.613959 3.042708 3.439584c2.301879 1.825633 5.926671 3.704173 11.747501 3.704173 4.57729 0 7.72583-1.93146 10.00125-5.000632 2.24896-3.042708 3.4925-7.355416 3.4925-11.668125 0-4.312708-1.24354-8.625417-3.4925-11.668125-2.27542-3.069167-5.42396-5.000625-10.00125-5.000625-5.82083 0-9.445622 1.878541-11.747501 3.704166-2.275417 1.825625-3.042708 3.439584-3.042708 3.439584l-.661459 1.322917h-53.763331l-.66146-1.322917s-.76729-1.613959-3.04271-3.439584c-2.30187-1.825625-5.92667-3.704166-11.7475-3.704166zm1.21708 5.794375c.23813 0 .50271 0 .7673.02646 3.57187.3175 7.46125 2.354792 11.66812 6.35h57.361668c4.206879-3.995208 8.096251-6.0325 11.668131-6.35 3.75708-.3175 7.03791 1.534584 8.7577 4.28625 3.46604 5.529792 1.85208 14.261042-5.45042 19.129376l-2.64582-3.96875c5.39749-3.598334 5.9002-9.683751 4.07457-12.620626-.92604-1.481666-2.14312-2.275416-4.33916-2.06375-2.16958.185209-5.45041 1.666875-9.419168 5.662084l-.714375.687916h-61.224586l-.71437-.687916c-3.96875-3.995209-7.24959-5.476875-9.41917-5.662084-2.18546-.211666-3.41312.582084-4.33123 2.06375-1.83092 2.936875-1.32027 9.022292 4.06665 12.620626l-2.64319 3.96875c-7.315729-4.868334-8.921749-13.599584-5.460999-19.129376 1.51342-2.407708 4.206869-4.1275 7.387169-4.312708zm18.0975 23.838959v33.337493h7.9375v-33.337493zm12.7 0v33.337493h7.9375v-33.337493zm12.70001 0v33.337493h7.937499v-33.337493zm12.699999 0v33.337493h7.937496v-33.337493z" fill="#d7e698"/></svg>