<svg height="500" viewBox="0 0 132.29167 132.29167" width="500" xmlns="http://www.w3.org/2000/svg" xmlns:xlink="http://www.w3.org/1999/xlink"><radialGradient id="a" cx="66.108994" cy="68.043808" gradientTransform="matrix(-.0002735 1.0045031 -.99578767 -.00027336 133.93947 -.260749)" gradientUnits="userSpaceOnUse" r="66.145968"><stop offset="0" stop-color="#f06"/><stop offset="1" stop-color="#fac"/></radialGradient><radialGradient id="b" cx="66.08432" cy="66.207352" gradientTransform="matrix(0 .9948617 -1 0 132.29167 .462589)" gradientUnits="userSpaceOnUse" r="66.145836"><stop offset="0" stop-color="#fac"/><stop offset="1" stop-color="#ff2a7f"/></radialGradient><g><circle cx="66.145836" cy="66.145836" fill="url(#b)" r="66.145836"/><path d="m66.303366 66.29464c-.0216.0032-.0908-.02497-.0249-.01146-.0661-.01352.0175-.0061.0299.0021-.0123-.0082.11045.02791.0454.01234.065.01558-.0722 0-.0506-.0032zm-.0208.02292c-.009-.0041.0155-.001.008 0 .007-.001.0114.0041.002.0021.009.0021-.0196-.0061-.0102-.0021zm.10322.135765c.10011.09431-.1218-.0736-.0815-.06323-.0403-.01028-.0784-.05908-.0143-.01645-.064-.04248-.0939-.08811-.0102-.01762-.0836-.07049-.0877-.07565-.001-.0021-.0867-.0736-.0867-.0736 0 0-.0867-.0736-.102189-.102595-.006-.01146-.096-.09119-.101139-.09119-.002 0-.0991-.09119-.0991-.09328 0 0-.0991-.09328-.0939-.09119.002 0-.096-.09119-.0857-.08811.004.0021-.0898-.09017-.0898-.09017 0 0-.0898-.09017-.100119-.09328-.004-.0021-.096-.09119-.0764-.057.007.01352-.0836-.07049-.031-.04354.0184.01028-.0495-.05389.18785.181394.0877.08706zm.969138.425989c.622359.331669-1.332437-.711016-.724528-.385564-.607909-.325452-.631649-.33478-.007-.0041-.624419-.330634 1.354127.72138.731768.38971zm-.638868.656081c.251839.559692-.550109-1.211627-.29827-.656081-.251839-.555546-.251839-.563837 0-.0032-.251839-.560729.550109 1.21888.29827.659189zm-.43038-1.132855c-.002.001-.0123-.0188-.004-.0061-.008-.01234-.001-.0082.002 0-.003-.0082.0143.02292.006.01146.008.01146-.006-.0041-.004-.0053zm-.0237-.03732c.003.0082-.0155-.02292-.007-.01146-.008-.01146.002 0 .003.0041-.001-.0041.0143.01968.006.0082.008.01146.001.0073-.002-.001zm-.0269.08085c.004.01558-.008-.04248-.005-.02086-.003-.02174.001-.01762.002 0-.001-.01762.007.04457.003.0238.004.02086.004.01234 0-.0032zm.0547-.25496c-.153769.103652-.119719.05909.0135-.01645-.133149.07566-.064.05494.0257-.0073-.0898.0622-.146539.07671-.0216.0061-.124899.07049.0208-.0456.0547-.04354-.034-.0021.2663-.161679.11045-.05909.15585-.102624-.21779.158595-.1383.0964-.0795.0622-.0836.0622-.001 0-.0826.0622-.150699.108823-.0257.01762-.124889.09119-.171319.109852-.0175.0061zm-.0805.01352c-.004.0032-.004.0032 0 0-.004.0032 0-.0021.002-.0021-.002 0 .007-.0053.003-.0021.004-.0032.004-.0032 0 0 .004-.0032-.005.0021-.003.0021-.002 0-.006.0053-.002.0021zm.197129-.321304c-.423169.604258-.403549.570054.007-.01352-.410769.583531-.403549.567985.002-.0053-.405619.573166-.409749.579383-.001.0021-.408709.577311-.393229.55762.005-.0061-.398389.56384-.398389.558658 0-.0021-.398389.560728-.393229.555546.002-.0021-.395299.557619-.386009.531706.004-.0082-.390129.539998-.390129.544143 0 0-.390129.544143-.399419.565911-.004.0082-.395299.557619-.400459.567985-.002.0041-.398389.56384-.0929.119195.11354-.166879-.20643.286074-.19198.265331.005-.0053-.19713.270531.786458-1.143221.363299-.523413.423159-.619808-.574879.81466-.368459.528596-.20643.286073-.472709.744183-.0991.171021-.373619.573164-.431419.639496-.0208.02498-.410779.614623-.392199.538963.006-.02703-.398389.565911-.413869.603224-.005.01146-.408709.591821-.411799.619806-.001.01146-.410769.608406-.419029.627063-.003.0073-.415929.619805-.415929.614622 0-.0021-.415929.616697-.407679.603223.003-.0053-.410769.608407-.410769.581456 0-.0094-.410769.590785-.407679.58975.001-.0021-.408709.59182-.408709.570053 0-.0073-.408709.57731-.431409.620844-.008.01645zm-.223689.258069c0 .115053.006.111937.002-.0021.004.113994-.002.103653-.002-.0032 0 .106767 0 .101567 0-.0021 0 .103653-.009.05909-.004-.01558-.005.07463.001.06945.003-.0021-.002.07151-.0208-.0061-.007-.02908-.0135.02292-.0135.03317 0 .0032-.0135.03006-.0135.0144 0-.0053-.0135.01968-.0135.0041 0-.0053-.0135.0094-.0135.03006 0 .0073-.0135.02292.029-.215592.0164-.08914.0123-.126452-.002.157538-.006.10571.004.05183-.005.08397-.003.01234-.002.07151.001.115053.001.01558 0 .09951 0 .10571 0 .0021 0 .103653.006.119195.002.0053.004.113995.0114.131622.003.0073.008.124365.001.129566-.003.0032.004.126451-.002.106766-.002-.0082zm-.063-.318196c.10114.737965.0908.722419-.004-.0061.0949.728635.0949.752472 0 .0094.0949.743144.0949.749364 0 .0021.0949.747293.0949.747293 0 0 .0949.747293.0949.741072 0-.0021.0949.743144.0949.743144 0 0 .0949.743144.0949.719308 0-.0094.0949.728635.0949.655045 0-.02703.0949.681992.0836.731745-.003.01968.0867.712054.0475.632246-.0143-.03108.0619.663338-.0299-.120223-.0341-.28916.004.168937-.16308-1.28418-.0619-.536888-.10114-.747292.0661.698577.0619.534815.004.163764.004.171022 0 .0021.004.168936.14654.903797.0516.272588.0949.631206.0949.707906 0 .02791.0949.67992.10114.651936.003-.01146.098.663337.10217.766985.001.03834.10114.728636.10114.744181 0 .0061zm.0423.574202c.002.01028-.003-.01968-.001-.01146-.002-.0082.003.01557.001.01028.002.0053.002.01146 0 .001zm-.0123-.22179c.009.01968-.0216-.0394-.0114-.02174-.0102-.01762-.0102-.02174 0-.0021-.0102-.01968.0208.03834.0114.02174.009.01645.009.02174 0 .0021zm-.0228.07774c-.001.001-.001-.0041 0-.0021-.001-.0021.002-.0021.001 0 .001-.0021.001-.0021 0 0 .001-.0021-.002.0032-.001.0021zm-.002.100539c.003.0021-.0114.02292-.006.0082-.005.0144.005-.02908.004-.01645.001-.01234.009-.0144.003-.001.006-.01352.002.01146-.001.0094zm-.12592.393855c.19198-.640534-.456189 1.478004-.23947.783567-.216729.694437.42729-1.424101.23841-.783567.18888-.640534.19301-.640534.001 0 .19198-.640534.2064-.688211.006-.01762.20023-.670593.22706-.708942.0102-.01352.21673-.695468.17545-.60944-.0164.03108zm.11146-.3638c.001-.0041.004-.0073.001-.001.003-.0061-.008.0144-.004.0082-.004.0061.004-.01146.003-.0073zm.0123-.158563c.001.001-.003-.0032-.002-.001-.001-.0021.003-.0021.002 0 .001-.0021.001.0021 0 .001.001.001.001.001 0 0zm-.0114.01234c.003.0053-.0102-.01028-.006-.0053-.004-.0053-.001-.0053.002 0-.003-.0053.007.01028.004.0053.003.0053.003.0053 0 0zm-.096-.0073c.10942.0394-.290019-.085-.14862-.04457-.141399-.04043.24771.02791.1445.0238.10321.0041.15895.0394.0208.0144.13829.02497.1445.03523.001.0032.14347.03214.0919.04248-.0176.0032zm.0361-.02497c.008.0021-.0164-.0041-.009-.0021-.007-.0021.002-.0021.004 0-.002-.0021.0135.0041.005.0021zm-.443799-.425986c.175449.167908.170299.164793-.002-.001.172349.165822-.987718-.883069-.429349-.388675-.558369-.494394.606878.55762.431419.389712.175449.167908.721438.587676.203329.15548.518119.432208.577979.526527.0208.03419.557339.492322.483029.464338-.0269-.0094.509859.473665.543909.497502.0123.0082.531529.489212.574879.499577.0164.0041.558369.495431.515019.485066-.0164-.0041.531529.489212.531529.489212 0 0 .531529.489212.527399.489212-.002 0 .529469.489212.493349.465375-.0123-.0082.505729.473665.511929.473665.002 0 .509859.473665-.0216-.01234-.197129-.180336zm.499539.318196c.007.0053.007.01234 0 .0032.007.0094-.007-.01146-.005-.0073-.002-.0041-.0114-.01352-.003-.0041-.008-.0094.0155.01352.008.0082zm.410769.02908c-.008.0053-.008.0053 0 0-.008.0053.0155-.0082.009-.0041.006-.0041.0102-.0041.002 0 .008-.0041-.0196.0094-.0114.0041zm-.11971.04249c.0485-.01352-.11767.03628-.0619.01851-.0557.01762-.0299.0073.009-.0041-.0392.01146.11249-.03317.0557-.01645.0567-.01645.0454-.01146-.003.0021zm-.391169.190706c.13212-.05183.12797-.05183-.002 0 .13005-.05183-.328199.156508-.16927.07774-.158949.07877.21983-.154422.13934-.08706.0805-.06737.20538-.08706.0464-.0061.15895-.08085.11767-.03628-.0143.01558zm1.058938.0032c1.536797.246675.327169.09845-.446899-.05494.774068.153394.0249.02174-.2766-.04872.30138.07049 2.277856.186565.730729.04249 1.553317.09017 1.553317.04043.002-.05805 1.551247.04354 77.596446.622916 28.125784.21559 49.482042-1.273815 49.441782-2.96118-.0465-1.873927 49.391192-2.780838-26.534307 1.560916-28.081434 1.60652 1.547127-.06634 1.547127-.08706 0-.01968 1.547127-.08291-.387029.05183-.715239.04871.32821.0032-.0341.02791-.134169.0082.100109.01968.372589-.107795.101139-.04666.27144-.06114.27144-.06114 0 0 .27144-.06114 2.224176-.541035.722469-.177222 1.501707-.363799-.441739.116082-.719379.177222.27765-.06114.27765-.06114 0 0 .27765-.06114.26834-.06114-.003 0 .27144-.06114-.001.06634-.101139.04666.100119.01968.455159-.0053.132129-.0082.32304.0032.33027.0032.002 0 .32821.0032 76.968945-14.44936 28.346644-5.345051 47.817251-13.449169 46.634481-17.762939-1.310747-4.766703 46.388808-17.223976-26.647826 9.952137-27.014226 10.051639.3664-.09951.32305-.09017-.0155.0041.33853-.09431 2.066266-.88307.638869-.293331 1.397467-.650898 1.361337-.723453-.0403-.07254 1.358237-.716199 68.674955-36.253476 24.89737-13.144449 42.999395-24.599462 42.172665-26.066062-.915498-1.623105 42.218103-25.874316-22.695874 13.923869-24.009742 14.719876 1.301478-.815697 1.289098-.835391-.0123-.02086 1.291158-.831247.367429-.187593-.341629.23839.709058-.425989-.064.04666-.28589.174136.22191-.127481 1.810307-1.378501.588299-.462263 1.214778-.931783 1.206528-.943184-.009-.01352 1.208598-.938 60.510035-48.782264 21.934206-17.694534 35.751999-34.624145 32.656729-37.87139-3.419343-3.601709 32.751662-37.2236073-18.494213 21.126266-18.954532 21.580239.460319-.453973.0784-.06425-.14037.14408.21881-.208334 47.986504-62.158882 17.667505-22.912098 27.671679-41.3052044 24.901499-43.19156885-3.063264-2.086401 25.099663-42.7977156-13.459643 23.053054-14.262621 24.356929.796788-1.30802.790588-1.316311-.005-.0041.792648-1.312163.792648-1.312163 0 0 .792648-1.312163-.36846.61566-.430389.71309.0619-.09742.971208-2.150665.337499-.760766.588299-1.414776.540819-1.430323-.0526-.02086.543919-1.428249 27.509595-72.8655647 9.97319-26.422603 15.978978-47.0410024 14.397811-47.5903281-1.749416-.604258 14.55468-47.4732101-7.843965 25.550937-8.284674 27.009242.423169-1.466599.404589-1.469708-.0228-.0082.401489-1.471782.0919-.22699-.11457.46019.20641-.687177.0196-.07565-.0692.225963.0888-.301613.0392-.0394-.0175.09742.0568-.136823.106319-.274675.0175-.05183.0888-.222849.033.0021-.0208.085.0537-.08291.0382-.05597-.005.0082.0434-.06425.065-.17828.008-.04145.0568-.136824.100109-.394896.0143-.0964.0857-.298502.0919-.302647.003-.001.0888-.301613.435549-2.194198.127969-.69858.27556-1.499764.24049-1.503909-.0382-.0053.24359-1.501837 13.217094-76.799987 4.798241-27.849815 4.048932-49.713008-.413879-50.109975-4.93551-.429096.0114-49.680879-.008 28.923594-.006 29.071808-.002-.148223-5.01292-78.586851-1.854687-29.010657-6.476227-49.365794-9.81043-48.935661-3.687702.475738-9.444031-48.763608 5.12232 26.243296 5.387569 27.74306-.282789-1.495618-.303439-1.491473-.0237.0041-.304469-1.495618-.304469-1.495618 0 0-.304469-1.495618.0857.639499.1445.787713-.0588-.148223-.10011-.236304-.0155-.03214-.0846-.204193-.17235-.427023-.032-.08188-.14037-.345143-.692539-2.094696-.20333-.64779-.519149-1.43447-.544949-1.425141-.031.0082-.547009-1.424104-.550109-1.419958-.008.0061-.552168-1.426153-27.452654-72.8873078-9.948109-26.430873-19.061572-45.8646132-20.597649-45.2292595-1.701316.706871-20.40217-45.2479192 10.926958 24.377657 11.586466 25.752011-.670858-1.371243-.683248-1.359843-.0123.0082-.683258-1.363989-.304469-.632246.13932.27156-.443809-.9038-.0588-.04354.14242.316121-.20126-.359653-.19198-.351362.004.0032-.1961-.354471-.12799-.231133.0249.0456-.15275-.276731-.0309-.06737.0454.07774-.0764-.145109-.0764-.140965 0 .0021-.0764-.143023-.19816-.356543-.0454-.0798-.15275-.276732-.23016-.408365-.029-.04872-.20126-.359653-1.110548-1.876003-.335439-.560729-.804009-1.296617-.838069-1.277961-.0341.0238-.832909-1.276858-40.731155-66.33473408-14.757291-24.063544-29.824838-39.8883574-33.424293-37.1966578-3.985252 2.965326-32.761993-37.2204942 19.052172 21.680778 19.165702 21.784425-.11354-.103653-.17753-.198992-.0249-.03419-.15275-.164793-.0155.0032.0506.0622-.0661-.05909-.0661-.04872 0 .0041-.0661-.05285-.12074-.106767-.0196-.02086-.10114-.08602-.11972-.11091-.006-.0094-.11354-.101568-.11044-.09742.001.0021-.11146-.099522-55.580507-55.537958-20.516109-20.504401-37.4328246-32.643848-39.6382172-30.098292-2.441395 2.804293-39.2246951-30.256489 21.091408 16.280792 22.308255 17.212576-1.226137-.919346-1.231297-.907946-.008.01234-1.231297-.912089.489209.450861.635769.503722-.14654-.05285-.491279-.231134-.12694-.06634-.364339-.164794-1.910426-1.098652-.571789-.345144-1.361337-.724487-1.376817-.698576-.0187.03006-1.371797-.703655-68.6347618-36.317632-24.87935-13.174403-44.5315522-21.66523-45.2604237-20.161318-.809468 1.669744-45.1330714-20.301239 24.241681 10.962692 25.659788 11.562804-1.431527-.570053-1.447007-.535852-.0164.03732-1.443907-.53896.555269.243561.741049.289159-.18578-.0456-.19198-.05079-.003-.0021-.18888-.04872-.10219-.01028.032.01558-.13417-.02586-.128-.01968.002.0021-.13004-.02174-.13004-.02174 0 0-.13004-.02174-.13624-.02791-.002-.0021-.13417-.02586-.21468-.05909-.029-.01352-.18578-.0456-.12592-.01645.0208.01146-.14655-.02791-.11249-.01352.0135.0053-.12592-.01851-.15998-.02908-.0135-.0032-.14655-.02586-.14655-.03006 0-.0021-.14655-.02791-2.249986-.699614-.778209-.249789-1.482097-.425986-1.493447-.394893-.0102.03214-1.492647-.400064-74.2533054-22.575232-26.912886-8.202573-48.626519-10.107608-49.560984-5.722323-1.026008 4.854802-49.088182-6.10167 28.488773 3.631775 28.693133 3.599645-.20436.03215-.406649.03215-.0743 0-.332339.03215-78.171863-4.666166-28.790262-1.738154-49.583172.413552-49.569032 3.794497.0173 3.74268-49.353324 3.445208 26.519847-1.811745 28.062833-1.945449-1.542986.133709-1.546086.133709-.002 0-1.544026.133709-1.494487.129567.0196-.001-1.514097.130595-1.560536.134738-.0175.001-1.542996.133709.588289.01352.788519-.04354-.20023.057-1.493447.37002-.478889.116081-1.014558.253933-.891738.231134.0454-.0094-.937148.240477-.0753.08188.318919-.05908-.394259.140966.0557-.0032.1672-.05183-.11146.04871-.11146.04871 0 0-.11146.04871-.0743.04871.0135 0-.0877.04871-.0609.04457.009-.0021-.0702.04666-.064.04666.002 0-.0661.04666-.063.04666.001 0-.064.04666-.064.04666 0 0-.064.04666-.0228.05079.0155.0021-.0382.04871-.17235.102595-.0495.01851-.12281.08393-.0392.02586.031-.02086-.0702.04666-.097.05079-.009.0021-.0877.04872-.0877.04872 0 0-.0877.04872-.24254.128508-.0568.02791-.18578.10054-.1414.09017.0155-.0032-.15687.09328-.16205.09951-.002.0021-.15998.09742-.19921.101567-.0135.001-.18578.100539-.518109.164794-.12384.0238-.394269.140966-.394269.145108 0 .001-.394269.14408-1.256067.298502-.318919.05803-.937148.240476-1.074418.263275-.0506.0094-1.023838.253934-1.811337.407332-.29104.05597-1.517187.362764-1.517187.37831.004.0144-1.514087.376239-75.371563 18.537179-27.318375 6.717338-47.6632579 13.442952-47.2146048 15.054755.493859 1.786859-47.2117138 14.865921 25.353779-7.959017 26.840006-8.442007-1.470747.542071-1.457327.59804.0164.05802-1.458357.583531.508829-.152366.727629-.270533-.2188.118167-1.325217.69858-.408709.213506-.916508.485061-70.8212399 32.64429-25.856199 11.894468-43.0922907 24.867793-40.8829751 28.779633 2.432246 4.324138-40.8244531 28.116295 23.626242-16.176115 23.836792-16.381336-.21056.205221-.693569.60115-.17855.145109-.515019.456047-61.505285 48.437332-22.557605 17.746362-36.8673762 33.36184-34.6318466 35.88013 2.476215 2.791196-34.727312 35.444104 18.645733-18.999441 19.740801-20.135409-1.049648 1.179497-1.001138 1.219921.0506.04872-1.006298 1.219918.245639-.202105.464449-.526524-.21881.324413-.21881.318193 0-.0021-.21881.320268-.095.17828.0454-.05389-.14037.232163-.10836.191736.0114-.01352-.11972.20522.006.06736.0475-.05079-.0413.118166-.0526.148222-.004.01028-.0485.137852-.26524.424952-.0795.10571-.18578.31923-.0836.146137.0361-.06323-.11972.209363-.15172.243561-.0114.01146-.14037.232162-.26421.380382-.0454.05597-.2188.324412-.647119.929707-.15789.224904-.489219.704797-1.190017 1.625177-.260089.338926-.916508 1.293501-.896898 1.310091.0175.01146-.899988 1.304909-44.306042 64.048257-16.054338 23.206247-26.876944 41.80799-25.48113 42.70889 1.552177 1.013867-25.606118 42.569483 13.735312-22.817775 14.550671-24.183836-.795749 1.380572-.773049 1.395083.0257.0144-.775099 1.39197.360209-.548288.419039-.717233-.0588.168936-.10322.287103-.0155.04354-.0877.243561-31.726577 72.050702-11.702267 26.559215-15.968568 47.293997-11.751406 48.759677 4.657151 1.613771-12.086636 48.241446 6.904756-27.346923 7.024476-27.957401-.11972.610478-.378779 2.132011-.0949.561763-.272459 1.570248-.260089 1.57543.0143.0041-.26009 1.574396-14.128952 76.711884-5.13058 27.790741-5.720628 49.533693-2.392515 49.937813 3.687703.445776-2.715465 49.680677 1.480027-26.635178 1.551247-28.227189-.033 1.59409.002 1.59409.0402.0021-.004 1.592011 0 1.592011.002 0-.002 1.592011-.002-.445682 0-.755584-.002.309902-.002.328558 0 .0082-.002.320268-.002.09951 0-.08188-.002.181393-.002.177221 0-.001-.002.17828-.002.171023 0-.0032-.002.174136-.002.181394 0 .0032-.002.17828-.002.165823 0-.0053-.002.171022-.002.176193 0 .0021-.002.174136-.002.116081 0-.02174-.002.137852-.002.141995 0 .001-.002.140965-.002.06114 0-.02908-.002.09017-.002.09017 0 0-.002.09017-.002.165851 0 .02791-.002.137851.008.09225.004-.01645.004.108825.009.129567.002.0082.007.121252.007.121252 0 0 .007.121252.0114.103653 0-.0073.0114.11091.0114.11091 0 0 .0114.11091.007.133709 0 .0094.007.124366.0208.162736.004.01352.0164.149251.0372.463297.008.116081.029.347213-.0102.12231-.0143-.08291.004.205221.009.07774.002-.04666.007.124367-.008.209364-.006.03108-.002.17828-.002.384528 0 .07462-.002.309902.008.166879.004-.05285.004.219734.0671.771131.0237.205221.0434.56591.146569 2.193166.0382.601149.140379 1.592017.164099 1.586835.0299-.0021.161 1.588904 8.999922 77.494529 3.268664 28.075768 7.392945 49.220791 9.050502 48.969761 1.840246-.277679 8.865743 48.94582-4.80237-26.230957-5.05524-27.80535.29518 1.57128.33028 1.559882.0434-.0073.32614 1.562985.32614 1.562985 0 0 .32614 1.562985-.0123-.203134-.125919-.654009.113519.450861.104239.428059-.003-.0082.107339.43635.0537.140966-.0196-.108824.0733.24979.0774.253932.001.0021.0764.251847.135189.565908.0216.115053.113519.450861 23.707362 74.98318 8.727452 27.566961 16.144108 47.044949 17.309365 46.639689 1.288058-.445775 20.199239 45.532014 23.137633 44.221814 3.249033-1.438514 22.710349 44.202868-12.749524-24.862817-13.115924-25.545846.3664.683029 1.046548 1.788941.25079.41044.811228 1.369172.824648 1.357774.0175-.01234.821558 1.360887 39.940243 66.891484 14.467981 24.23774 28.370402 40.905954 31.132302 38.980414 3.060194-2.123918 30.683328 39.034602-16.479558-20.916703-17.444576-22.173936 1.006298 1.22822 1.033137 1.191937.0392-.03732 1.033128 1.194008-.355049-.37831-.513989-.580419.15895.202106.712149.701686.20435.18345.507799.518233 1.466617 1.480073.356079.355508 1.126018 1.109017 1.145628 1.09036.0176-.01851 1.140468 1.092434 57.785274 52.080189 20.951638 18.859515 37.950356 31.967694 39.022726 30.684654 1.190028-1.425137 38.864788 30.794311-20.899018-16.458025-22.104516-17.477906 1.226138.991897 1.255038.963912.0249-.02791 1.247808.96702-.291039-.22182-.568689-.441536.27765.219734 67.189783 40.450023 24.747721 14.880535 44.720932 21.739848 46.679852 17.714227 2.163276-4.444363 46.125616 17.994898-26.524988-10.31076-26.870748-10.47141.34576.16065.002.05597-.126939-.03732.129019.09328.123839.08811-.002-.0021.125919.09017.459289.196935.122819.03939.33647.157537.35195.160652.006 0 .34575.160652 2.157086.71516.669829.205221 1.487257.497502 1.487257.487137 0-.0094 1.487257.48921 73.978955 23.523721 26.812976 8.518705 48.171229 11.820885 48.979369 8.551879.890679-3.612081 48.68523 8.849341-26.145178-4.729389-27.677855-5.022709 1.532677.267419 1.538867.242534.002-.02791" fill="url(#a)"/></g><path d="m441.73242 120.16211-14.32031 2.11133c-69.84162 10.30761-110.21961 45.3276-129.30859 91.9414l-6.47461 15.80469 17.01562 1.39453c38.78964 3.17821 72.21333.35996 97.13867-14.95508 24.83106-15.25709 38.2118-43.84495 35.94922-82.15429zm-382.369046-.78162-1.068452 14.48279c-2.39133 38.52921 11.002435 67.28034 35.927734 82.5957 24.925294 15.31537 58.348644 18.13329 97.138674 14.95508l17.01562-1.39453-6.47461-15.80469c-19.08967-46.61425-59.46783-81.63309-129.30859-91.9414zm365.850046 124.82369-27.4185 22.98332c-44.0888 35.51039-95.66517 51.99744-147.57617 50.98906-51.06157-.99187-102.4469-18.91128-147.34845-52.30409l-27.218387-17.99856c3.105612 33.96695 22.81508 63.52152 40.768007 87.21203 8.61657 11.30656 29.67114 30.6329 29.67114 30.6329 31.10669 26.79435 67.5044 50.36897 103.90894 49.79502 52.83873-5.13998 82.59967-24.98802 109.79273-55.72341 33.54884-34.86633 59.47542-70.34801 65.42069-115.58627z" fill="#790634" transform="scale(.26458334)"/><path d="m18.72489 35.623687c-1.169597 18.84459 11.785264 23.934674 31.63519 22.308299-4.679974-11.427833-13.991563-19.704146-31.63519-22.308299zm94.84344 0c-17.643825 2.603973-26.95562 10.880466-31.635397 22.308118 19.849727 1.626375 32.804587-3.463528 31.635397-22.307937zm-88.55545 37.645073c4.051714 6.490498 8.111027 12.025816 12.171132 16.608301 19.339373 5.101293 38.858587 4.787476 58.630785-.237168 3.872273-4.545067 7.711363-10.002291 11.508903-16.370952-24.311099 19.58086-57.175432 18.701783-82.310616 0zm66.817941 20.726934c-16.905065 3.641582-33.720402 3.910743-50.400662.327554 17.006576 16.422832 33.985381 16.185112 50.400662-.327734z" fill="#ffa5c9"/></svg>