<svg height="500" viewBox="0 0 132.29167 132.29167" width="500" xmlns="http://www.w3.org/2000/svg" xmlns:xlink="http://www.w3.org/1999/xlink"><radialGradient id="a" cx="66.145859" cy="66.145882" gradientTransform="matrix(-.00004147 1 -1 -.00004147 132.294459 .002719)" gradientUnits="userSpaceOnUse" r="66.14584"><stop offset="0" stop-color="#fa0"/><stop offset="1" stop-color="#ff8000"/></radialGradient><radialGradient id="b" cx="66.145828" cy="66.145836" gradientTransform="matrix(0 1.0000017 -1 .00000032 132.29167 -.000124)" gradientUnits="userSpaceOnUse" r="66.145836"><stop offset="0" stop-color="#d45500"/><stop offset="1" stop-color="#a40"/></radialGradient><circle cx="66.145836" cy="66.145836" fill="url(#b)" r="66.145836"/><path d="m80.94711 66.831282 51.34457-.683777-51.34457-.688083 51.06027-5.413135-51.18627 4.050967 50.34637-10.104804-50.59511 8.759867 49.19203-14.706028-49.56891 13.392317 47.62848-19.184491-48.12275 17.908467 45.65685-23.500353-46.26632 22.274941 43.29324-27.609469-44.0147 26.443283 40.56136-31.487072-41.38297 30.397338 37.47952-35.098701-38.40341 34.084343 34.08432-38.40236-35.09869 37.47953 30.39735-41.386203-31.48601 40.563519 26.44436-44.010396-27.60839 43.287855 22.2717-46.259858-23.49927 45.653612 17.90633-48.125974-19.17912 47.630643 13.39233-49.572134-14.70928 49.197402 8.75771-50.597258-10.10695 50.344207 4.06067-51.185196-5.42283 51.059209-.68593-51.34349-.67946 51.34349-5.42176-51.059209 4.05527 51.185196-10.10716-50.344207 8.76222 50.597258-14.70915-49.197402 13.3922 49.572134-19.18501-47.630643 17.91223 48.125974-23.49949-45.653612 22.27191 46.259858-27.61269-43.287855 26.45007 44.010396-31.48705-40.563519 30.39259 41.386203-35.09439-37.47953 34.08356 38.40236-38.40426-34.084343 37.48437 35.098701-41.38782-30.397338 40.56007 31.487072-44.01137-26.443283 43.29333 27.609469-46.26632-22.274941 45.65298 23.500353-48.1208-17.908467 47.62665 19.184491-49.57126-13.392317 49.19685 14.706028-50.59337-8.759867 50.34518 10.104804-51.19145-4.050967 51.06102 5.413135-51.34078.688083 51.34078.683777-51.06102 5.415287 51.19145-4.052042-50.34518 10.108037 50.59337-8.764177-49.19685 14.70818 49.57126-13.390162-47.62665 19.184487 48.1208-17.908464-45.65298 23.498204 46.26632-22.271714-43.29333 27.606232 44.01137-26.447582-40.56007 31.488142 41.38782-30.395178-37.48437 35.099768 38.40426-34.086488-34.08356 38.401278 35.09439-37.481681-30.39259 41.386201 31.48705-40.555977-26.45007 44.006087 27.61269-43.284624-22.27191 46.262004 23.49949-45.655758-17.91223 48.127048 19.18501-47.631714-13.3922 49.569974 14.70915-49.196319-8.76222 50.591869 10.10716-50.339895-4.05527 51.190575 5.42176-51.063511.67946 51.342411.68593-51.342411 5.42283 51.063511-4.06067-51.190575 10.10695 50.339895-8.75771-50.591869 14.70928 49.196319-13.39233-49.569974 19.17912 47.631714-17.90633-48.127048 23.49927 45.655758-22.2717-46.262004 27.60839 43.284624-26.44436-44.006087 31.48601 40.555977-30.39735-41.386201 35.09869 37.481681-34.08432-38.401278 38.40341 34.086488-37.47952-35.099768 41.38297 30.395178-40.56136-31.488142 44.0147 26.447582-43.29324-27.606232 46.26632 22.271714-45.65685-23.498204 48.12275 17.908464-47.62848-19.184487 49.56891 13.390162-49.19203-14.70818 50.59511 8.764177-50.34637-10.108037 51.18627 4.052042z" fill="url(#a)" fill-rule="evenodd"/><g transform="matrix(-1 0 0 1 132.29167 0)"><path d="m23.274921 23.656638c-7.570902-6.646507-13.870123-9.096331-22.93987529-12.813945 2.78135609 6.562933 5.94339529 11.668965 10.05655629 17.320065-3.8990592.462406-6.7678395 1.041435-10.05655629 1.641174 5.54736109 6.623775 8.12583529 7.508016 15.69461929 10.869986-4.820421 9.599286-6.55424 16.803912-8.1753868 27.047303 8.6840948-4.85449 11.5859028-9.203342 17.5365918-16.827347 3.744265 8.137827 8.167622 12.176211 14.31664 18.410233.439081-7.972923-.771008-14.018184-2.479696-21.618949 11.673033 2.211199 21.426044 1.635906 33.056199.864109-9.121629-6.243892-19.201631-10.455821-29.247491-14.918032l14.583808-18.464681-18.95385 7.502469c1.612486-7.985822.439118-14.3553698-.484342-22.33421392-6.083183 7.39661742-9.079429 14.70583792-12.907217 23.32182892zm93.367519 108.635032-2.15543-2.7747c-4.13753-5.40237-10.97005-8.09659-18.19046-8.60709l-5.178278-12.81322c3.202453-.97168 6.363253-2.05902 9.403988-3.41696 22.32852-9.969084 37.83311-34.718176 29.4702-65.928436-2.14526-8.006113-5.05396-14.082984-8.92101-18.385301-3.86657-4.301779-8.95582-6.692986-14.15546-6.617945h-.002c-6.66639.09596-12.958969 3.715819-18.768805 9.362751-1.897988 1.844838-5.830382 3.256742-10.163771 5.145288-2.166695.94427-4.443795 2.058195-6.509184 3.847881-2.065389 1.789688-3.843996 4.401328-4.519522 7.564841l-1.790183 8.380807 7.952465-3.191192c6.722529-2.697779 11.899659-3.434343 15.253904-3.208716 3.354243.225625 4.556983 1.408389 4.65457 1.570596.09759.162204.421871-.05229-.688134 1.110293-1.110005 1.162577-3.977314 2.862347-8.836985 3.656648-16.673373 2.725176-28.371805 14.104135-39.424754 24.01357-11.05295 9.909435-21.228072 18.307175-34.823725 18.642l-9.24986699.227831 5.81125639 7.200411c4.0815216 5.057263 11.2729166 7.885883 20.7522776 10.413253 8.658518 2.30851 19.195833 3.79661 30.298018 3.9917l3.871078 9.59677c-4.255682 1.3139-8.308924 3.58975-11.494165 7.20041l-2.677155 3.01851zm-39.284278-21.11877 4.815911 11.91684c-.149684.0646-.295027.14065-.443808.20825-1.986951-.87175-4.076232-1.51173-6.275169-1.92266l-3.818502-9.45656c1.91196-.19021 3.814672-.45722 5.721568-.74587z" fill="#592d0d"/><path d="m25.160503 30.654713-15.441931-11.170847 10.410741 14.300763-10.989064-1.165003 12.771938 5.672894-8.05792 19.966051 12.082822-15.481487 8.960764 15.354972-3.517834-15.65592 24.070824 2.551345-21.638132-9.610833 7.709049-9.76118-10.188648 4.033015 1.798344-16.979256zm66.165081-4.270327c-6.029874 5.861018-18.052859 5.539787-19.910276 14.23814 28.773942-11.547096 35.001322 8.242747 12.81935 11.868327-29.954653 4.895803-44.05969 41.954567-74.872565 42.713404 5.205122 6.449483 26.930714 12.940533 50.612354 12.795503l7.011827 17.37491c-5.351159.52736-10.600389 2.6951-14.32485 6.917h58.201986c-3.48005-4.54389-10.54131-7.22327-17.731373-7.03565l-8.144882-20.14861c4.728469-1.14192 9.329407-2.65452 13.674783-4.5951 20.556792-9.178044 34.780992-31.252003 26.922602-60.579405-4.04646-15.101434-10.84024-21.73498-18.60316-21.622028-4.97605.07112-10.347995 2.914536-15.655796 8.073509zm12.637566-1.996604c2.31479 0 4.02489 1.860456 4.02489 4.175756 0 2.314795-1.7101 4.167391-4.02489 4.167391-2.3148 0-4.175762-1.852596-4.175762-4.167643 0-2.314795 1.860962-4.175757 4.175762-4.175757zm-23.721702 81.742148 7.970701 19.72012c-2.222507.48933-4.378588 1.28392-6.362262 2.41672-2.783838-1.56559-6.161714-2.57238-9.705398-2.8997l-7.067607-17.50218c5.05807-.23681 10.162531-.79485 15.164566-1.73496z" fill="#f6c155"/></g></svg>