<svg height="500" viewBox="0 0 132.29167 132.29167" width="500" xmlns="http://www.w3.org/2000/svg" xmlns:xlink="http://www.w3.org/1999/xlink"><radialGradient id="a" cx="66.108994" cy="68.043808" gradientTransform="matrix(-.0002735 1.0045031 -.99578767 -.00027336 133.93947 -.260749)" gradientUnits="userSpaceOnUse" r="66.145968"><stop offset="0" stop-color="#f06"/><stop offset="1" stop-color="#fac"/></radialGradient><radialGradient id="b" cx="66.08432" cy="66.207352" gradientTransform="matrix(0 .9948617 -1 0 132.29167 .462589)" gradientUnits="userSpaceOnUse" r="66.145836"><stop offset="0" stop-color="#fac"/><stop offset="1" stop-color="#ff2a7f"/></radialGradient><circle cx="66.145836" cy="66.145836" fill="url(#b)" r="66.145836"/><path d="m66.303366 66.29464c-.0216.0032-.0908-.02497-.0249-.01146-.0661-.01352.0175-.0061.0299.0021-.0123-.0082.11045.02791.0454.01234.065.01558-.0722 0-.0506-.0032zm-.0208.02292c-.009-.0041.0155-.001.008 0 .007-.001.0114.0041.002.0021.009.0021-.0196-.0061-.0102-.0021zm.10322.135765c.10011.09431-.1218-.0736-.0815-.06323-.0403-.01028-.0784-.05908-.0143-.01645-.064-.04248-.0939-.08811-.0102-.01762-.0836-.07049-.0877-.07565-.001-.0021-.0867-.0736-.0867-.0736 0 0-.0867-.0736-.102189-.102595-.006-.01146-.096-.09119-.101139-.09119-.002 0-.0991-.09119-.0991-.09328 0 0-.0991-.09328-.0939-.09119.002 0-.096-.09119-.0857-.08811.004.0021-.0898-.09017-.0898-.09017 0 0-.0898-.09017-.100119-.09328-.004-.0021-.096-.09119-.0764-.057.007.01352-.0836-.07049-.031-.04354.0184.01028-.0495-.05389.18785.181394.0877.08706zm.969138.425989c.622359.331669-1.332437-.711016-.724528-.385564-.607909-.325452-.631649-.33478-.007-.0041-.624419-.330634 1.354127.72138.731768.38971zm-.638868.656081c.251839.559692-.550109-1.211627-.29827-.656081-.251839-.555546-.251839-.563837 0-.0032-.251839-.560729.550109 1.21888.29827.659189zm-.43038-1.132855c-.002.001-.0123-.0188-.004-.0061-.008-.01234-.001-.0082.002 0-.003-.0082.0143.02292.006.01146.008.01146-.006-.0041-.004-.0053zm-.0237-.03732c.003.0082-.0155-.02292-.007-.01146-.008-.01146.002 0 .003.0041-.001-.0041.0143.01968.006.0082.008.01146.001.0073-.002-.001zm-.0269.08085c.004.01558-.008-.04248-.005-.02086-.003-.02174.001-.01762.002 0-.001-.01762.007.04457.003.0238.004.02086.004.01234 0-.0032zm.0547-.25496c-.153769.103652-.119719.05909.0135-.01645-.133149.07566-.064.05494.0257-.0073-.0898.0622-.146539.07671-.0216.0061-.124899.07049.0208-.0456.0547-.04354-.034-.0021.2663-.161679.11045-.05909.15585-.102624-.21779.158595-.1383.0964-.0795.0622-.0836.0622-.001 0-.0826.0622-.150699.108823-.0257.01762-.124889.09119-.171319.109852-.0175.0061zm-.0805.01352c-.004.0032-.004.0032 0 0-.004.0032 0-.0021.002-.0021-.002 0 .007-.0053.003-.0021.004-.0032.004-.0032 0 0 .004-.0032-.005.0021-.003.0021-.002 0-.006.0053-.002.0021zm.197129-.321304c-.423169.604258-.403549.570054.007-.01352-.410769.583531-.403549.567985.002-.0053-.405619.573166-.409749.579383-.001.0021-.408709.577311-.393229.55762.005-.0061-.398389.56384-.398389.558658 0-.0021-.398389.560728-.393229.555546.002-.0021-.395299.557619-.386009.531706.004-.0082-.390129.539998-.390129.544143 0 0-.390129.544143-.399419.565911-.004.0082-.395299.557619-.400459.567985-.002.0041-.398389.56384-.0929.119195.11354-.166879-.20643.286074-.19198.265331.005-.0053-.19713.270531.786458-1.143221.363299-.523413.423159-.619808-.574879.81466-.368459.528596-.20643.286073-.472709.744183-.0991.171021-.373619.573164-.431419.639496-.0208.02498-.410779.614623-.392199.538963.006-.02703-.398389.565911-.413869.603224-.005.01146-.408709.591821-.411799.619806-.001.01146-.410769.608406-.419029.627063-.003.0073-.415929.619805-.415929.614622 0-.0021-.415929.616697-.407679.603223.003-.0053-.410769.608407-.410769.581456 0-.0094-.410769.590785-.407679.58975.001-.0021-.408709.59182-.408709.570053 0-.0073-.408709.57731-.431409.620844-.008.01645zm-.223689.258069c0 .115053.006.111937.002-.0021.004.113994-.002.103653-.002-.0032 0 .106767 0 .101567 0-.0021 0 .103653-.009.05909-.004-.01558-.005.07463.001.06945.003-.0021-.002.07151-.0208-.0061-.007-.02908-.0135.02292-.0135.03317 0 .0032-.0135.03006-.0135.0144 0-.0053-.0135.01968-.0135.0041 0-.0053-.0135.0094-.0135.03006 0 .0073-.0135.02292.029-.215592.0164-.08914.0123-.126452-.002.157538-.006.10571.004.05183-.005.08397-.003.01234-.002.07151.001.115053.001.01558 0 .09951 0 .10571 0 .0021 0 .103653.006.119195.002.0053.004.113995.0114.131622.003.0073.008.124365.001.129566-.003.0032.004.126451-.002.106766-.002-.0082zm-.063-.318196c.10114.737965.0908.722419-.004-.0061.0949.728635.0949.752472 0 .0094.0949.743144.0949.749364 0 .0021.0949.747293.0949.747293 0 0 .0949.747293.0949.741072 0-.0021.0949.743144.0949.743144 0 0 .0949.743144.0949.719308 0-.0094.0949.728635.0949.655045 0-.02703.0949.681992.0836.731745-.003.01968.0867.712054.0475.632246-.0143-.03108.0619.663338-.0299-.120223-.0341-.28916.004.168937-.16308-1.28418-.0619-.536888-.10114-.747292.0661.698577.0619.534815.004.163764.004.171022 0 .0021.004.168936.14654.903797.0516.272588.0949.631206.0949.707906 0 .02791.0949.67992.10114.651936.003-.01146.098.663337.10217.766985.001.03834.10114.728636.10114.744181 0 .0061zm.0423.574202c.002.01028-.003-.01968-.001-.01146-.002-.0082.003.01557.001.01028.002.0053.002.01146 0 .001zm-.0123-.22179c.009.01968-.0216-.0394-.0114-.02174-.0102-.01762-.0102-.02174 0-.0021-.0102-.01968.0208.03834.0114.02174.009.01645.009.02174 0 .0021zm-.0228.07774c-.001.001-.001-.0041 0-.0021-.001-.0021.002-.0021.001 0 .001-.0021.001-.0021 0 0 .001-.0021-.002.0032-.001.0021zm-.002.100539c.003.0021-.0114.02292-.006.0082-.005.0144.005-.02908.004-.01645.001-.01234.009-.0144.003-.001.006-.01352.002.01146-.001.0094zm-.12592.393855c.19198-.640534-.456189 1.478004-.23947.783567-.216729.694437.42729-1.424101.23841-.783567.18888-.640534.19301-.640534.001 0 .19198-.640534.2064-.688211.006-.01762.20023-.670593.22706-.708942.0102-.01352.21673-.695468.17545-.60944-.0164.03108zm.11146-.3638c.001-.0041.004-.0073.001-.001.003-.0061-.008.0144-.004.0082-.004.0061.004-.01146.003-.0073zm.0123-.158563c.001.001-.003-.0032-.002-.001-.001-.0021.003-.0021.002 0 .001-.0021.001.0021 0 .001.001.001.001.001 0 0zm-.0114.01234c.003.0053-.0102-.01028-.006-.0053-.004-.0053-.001-.0053.002 0-.003-.0053.007.01028.004.0053.003.0053.003.0053 0 0zm-.096-.0073c.10942.0394-.290019-.085-.14862-.04457-.141399-.04043.24771.02791.1445.0238.10321.0041.15895.0394.0208.0144.13829.02497.1445.03523.001.0032.14347.03214.0919.04248-.0176.0032zm.0361-.02497c.008.0021-.0164-.0041-.009-.0021-.007-.0021.002-.0021.004 0-.002-.0021.0135.0041.005.0021zm-.443799-.425986c.175449.167908.170299.164793-.002-.001.172349.165822-.987718-.883069-.429349-.388675-.558369-.494394.606878.55762.431419.389712.175449.167908.721438.587676.203329.15548.518119.432208.577979.526527.0208.03419.557339.492322.483029.464338-.0269-.0094.509859.473665.543909.497502.0123.0082.531529.489212.574879.499577.0164.0041.558369.495431.515019.485066-.0164-.0041.531529.489212.531529.489212 0 0 .531529.489212.527399.489212-.002 0 .529469.489212.493349.465375-.0123-.0082.505729.473665.511929.473665.002 0 .509859.473665-.0216-.01234-.197129-.180336zm.499539.318196c.007.0053.007.01234 0 .0032.007.0094-.007-.01146-.005-.0073-.002-.0041-.0114-.01352-.003-.0041-.008-.0094.0155.01352.008.0082zm.410769.02908c-.008.0053-.008.0053 0 0-.008.0053.0155-.0082.009-.0041.006-.0041.0102-.0041.002 0 .008-.0041-.0196.0094-.0114.0041zm-.11971.04249c.0485-.01352-.11767.03628-.0619.01851-.0557.01762-.0299.0073.009-.0041-.0392.01146.11249-.03317.0557-.01645.0567-.01645.0454-.01146-.003.0021zm-.391169.190706c.13212-.05183.12797-.05183-.002 0 .13005-.05183-.328199.156508-.16927.07774-.158949.07877.21983-.154422.13934-.08706.0805-.06737.20538-.08706.0464-.0061.15895-.08085.11767-.03628-.0143.01558zm1.058938.0032c1.536797.246675.327169.09845-.446899-.05494.774068.153394.0249.02174-.2766-.04872.30138.07049 2.277856.186565.730729.04249 1.553317.09017 1.553317.04043.002-.05805 1.551247.04354 77.596446.622916 28.125784.21559 49.482042-1.273815 49.441782-2.96118-.0465-1.873927 49.391192-2.780838-26.534307 1.560916-28.081434 1.60652 1.547127-.06634 1.547127-.08706 0-.01968 1.547127-.08291-.387029.05183-.715239.04871.32821.0032-.0341.02791-.134169.0082.100109.01968.372589-.107795.101139-.04666.27144-.06114.27144-.06114 0 0 .27144-.06114 2.224176-.541035.722469-.177222 1.501707-.363799-.441739.116082-.719379.177222.27765-.06114.27765-.06114 0 0 .27765-.06114.26834-.06114-.003 0 .27144-.06114-.001.06634-.101139.04666.100119.01968.455159-.0053.132129-.0082.32304.0032.33027.0032.002 0 .32821.0032 76.968945-14.44936 28.346644-5.345051 47.817251-13.449169 46.634481-17.762939-1.310747-4.766703 46.388808-17.223976-26.647826 9.952137-27.014226 10.051639.3664-.09951.32305-.09017-.0155.0041.33853-.09431 2.066266-.88307.638869-.293331 1.397467-.650898 1.361337-.723453-.0403-.07254 1.358237-.716199 68.674955-36.253476 24.89737-13.144449 42.999395-24.599462 42.172665-26.066062-.915498-1.623105 42.218103-25.874316-22.695874 13.923869-24.009742 14.719876 1.301478-.815697 1.289098-.835391-.0123-.02086 1.291158-.831247.367429-.187593-.341629.23839.709058-.425989-.064.04666-.28589.174136.22191-.127481 1.810307-1.378501.588299-.462263 1.214778-.931783 1.206528-.943184-.009-.01352 1.208598-.938 60.510035-48.782264 21.934206-17.694534 35.751999-34.624145 32.656729-37.87139-3.419343-3.601709 32.751662-37.2236073-18.494213 21.126266-18.954532 21.580239.460319-.453973.0784-.06425-.14037.14408.21881-.208334 47.986504-62.158882 17.667505-22.912098 27.671679-41.3052044 24.901499-43.19156885-3.063264-2.086401 25.099663-42.7977156-13.459643 23.053054-14.262621 24.356929.796788-1.30802.790588-1.316311-.005-.0041.792648-1.312163.792648-1.312163 0 0 .792648-1.312163-.36846.61566-.430389.71309.0619-.09742.971208-2.150665.337499-.760766.588299-1.414776.540819-1.430323-.0526-.02086.543919-1.428249 27.509595-72.8655647 9.97319-26.422603 15.978978-47.0410024 14.397811-47.5903281-1.749416-.604258 14.55468-47.4732101-7.843965 25.550937-8.284674 27.009242.423169-1.466599.404589-1.469708-.0228-.0082.401489-1.471782.0919-.22699-.11457.46019.20641-.687177.0196-.07565-.0692.225963.0888-.301613.0392-.0394-.0175.09742.0568-.136823.106319-.274675.0175-.05183.0888-.222849.033.0021-.0208.085.0537-.08291.0382-.05597-.005.0082.0434-.06425.065-.17828.008-.04145.0568-.136824.100109-.394896.0143-.0964.0857-.298502.0919-.302647.003-.001.0888-.301613.435549-2.194198.127969-.69858.27556-1.499764.24049-1.503909-.0382-.0053.24359-1.501837 13.217094-76.799987 4.798241-27.849815 4.048932-49.713008-.413879-50.109975-4.93551-.429096.0114-49.680879-.008 28.923594-.006 29.071808-.002-.148223-5.01292-78.586851-1.854687-29.010657-6.476227-49.365794-9.81043-48.935661-3.687702.475738-9.444031-48.763608 5.12232 26.243296 5.387569 27.74306-.282789-1.495618-.303439-1.491473-.0237.0041-.304469-1.495618-.304469-1.495618 0 0-.304469-1.495618.0857.639499.1445.787713-.0588-.148223-.10011-.236304-.0155-.03214-.0846-.204193-.17235-.427023-.032-.08188-.14037-.345143-.692539-2.094696-.20333-.64779-.519149-1.43447-.544949-1.425141-.031.0082-.547009-1.424104-.550109-1.419958-.008.0061-.552168-1.426153-27.452654-72.8873078-9.948109-26.430873-19.061572-45.8646132-20.597649-45.2292595-1.701316.706871-20.40217-45.2479192 10.926958 24.377657 11.586466 25.752011-.670858-1.371243-.683248-1.359843-.0123.0082-.683258-1.363989-.304469-.632246.13932.27156-.443809-.9038-.0588-.04354.14242.316121-.20126-.359653-.19198-.351362.004.0032-.1961-.354471-.12799-.231133.0249.0456-.15275-.276731-.0309-.06737.0454.07774-.0764-.145109-.0764-.140965 0 .0021-.0764-.143023-.19816-.356543-.0454-.0798-.15275-.276732-.23016-.408365-.029-.04872-.20126-.359653-1.110548-1.876003-.335439-.560729-.804009-1.296617-.838069-1.277961-.0341.0238-.832909-1.276858-40.731155-66.33473408-14.757291-24.063544-29.824838-39.8883574-33.424293-37.1966578-3.985252 2.965326-32.761993-37.2204942 19.052172 21.680778 19.165702 21.784425-.11354-.103653-.17753-.198992-.0249-.03419-.15275-.164793-.0155.0032.0506.0622-.0661-.05909-.0661-.04872 0 .0041-.0661-.05285-.12074-.106767-.0196-.02086-.10114-.08602-.11972-.11091-.006-.0094-.11354-.101568-.11044-.09742.001.0021-.11146-.099522-55.580507-55.537958-20.516109-20.504401-37.4328246-32.643848-39.6382172-30.098292-2.441395 2.804293-39.2246951-30.256489 21.091408 16.280792 22.308255 17.212576-1.226137-.919346-1.231297-.907946-.008.01234-1.231297-.912089.489209.450861.635769.503722-.14654-.05285-.491279-.231134-.12694-.06634-.364339-.164794-1.910426-1.098652-.571789-.345144-1.361337-.724487-1.376817-.698576-.0187.03006-1.371797-.703655-68.6347618-36.317632-24.87935-13.174403-44.5315522-21.66523-45.2604237-20.161318-.809468 1.669744-45.1330714-20.301239 24.241681 10.962692 25.659788 11.562804-1.431527-.570053-1.447007-.535852-.0164.03732-1.443907-.53896.555269.243561.741049.289159-.18578-.0456-.19198-.05079-.003-.0021-.18888-.04872-.10219-.01028.032.01558-.13417-.02586-.128-.01968.002.0021-.13004-.02174-.13004-.02174 0 0-.13004-.02174-.13624-.02791-.002-.0021-.13417-.02586-.21468-.05909-.029-.01352-.18578-.0456-.12592-.01645.0208.01146-.14655-.02791-.11249-.01352.0135.0053-.12592-.01851-.15998-.02908-.0135-.0032-.14655-.02586-.14655-.03006 0-.0021-.14655-.02791-2.249986-.699614-.778209-.249789-1.482097-.425986-1.493447-.394893-.0102.03214-1.492647-.400064-74.2533054-22.575232-26.912886-8.202573-48.626519-10.107608-49.560984-5.722323-1.026008 4.854802-49.088182-6.10167 28.488773 3.631775 28.693133 3.599645-.20436.03215-.406649.03215-.0743 0-.332339.03215-78.171863-4.666166-28.790262-1.738154-49.583172.413552-49.569032 3.794497.0173 3.74268-49.353324 3.445208 26.519847-1.811745 28.062833-1.945449-1.542986.133709-1.546086.133709-.002 0-1.544026.133709-1.494487.129567.0196-.001-1.514097.130595-1.560536.134738-.0175.001-1.542996.133709.588289.01352.788519-.04354-.20023.057-1.493447.37002-.478889.116081-1.014558.253933-.891738.231134.0454-.0094-.937148.240477-.0753.08188.318919-.05908-.394259.140966.0557-.0032.1672-.05183-.11146.04871-.11146.04871 0 0-.11146.04871-.0743.04871.0135 0-.0877.04871-.0609.04457.009-.0021-.0702.04666-.064.04666.002 0-.0661.04666-.063.04666.001 0-.064.04666-.064.04666 0 0-.064.04666-.0228.05079.0155.0021-.0382.04871-.17235.102595-.0495.01851-.12281.08393-.0392.02586.031-.02086-.0702.04666-.097.05079-.009.0021-.0877.04872-.0877.04872 0 0-.0877.04872-.24254.128508-.0568.02791-.18578.10054-.1414.09017.0155-.0032-.15687.09328-.16205.09951-.002.0021-.15998.09742-.19921.101567-.0135.001-.18578.100539-.518109.164794-.12384.0238-.394269.140966-.394269.145108 0 .001-.394269.14408-1.256067.298502-.318919.05803-.937148.240476-1.074418.263275-.0506.0094-1.023838.253934-1.811337.407332-.29104.05597-1.517187.362764-1.517187.37831.004.0144-1.514087.376239-75.371563 18.537179-27.318375 6.717338-47.6632579 13.442952-47.2146048 15.054755.493859 1.786859-47.2117138 14.865921 25.353779-7.959017 26.840006-8.442007-1.470747.542071-1.457327.59804.0164.05802-1.458357.583531.508829-.152366.727629-.270533-.2188.118167-1.325217.69858-.408709.213506-.916508.485061-70.8212399 32.64429-25.856199 11.894468-43.0922907 24.867793-40.8829751 28.779633 2.432246 4.324138-40.8244531 28.116295 23.626242-16.176115 23.836792-16.381336-.21056.205221-.693569.60115-.17855.145109-.515019.456047-61.505285 48.437332-22.557605 17.746362-36.8673762 33.36184-34.6318466 35.88013 2.476215 2.791196-34.727312 35.444104 18.645733-18.999441 19.740801-20.135409-1.049648 1.179497-1.001138 1.219921.0506.04872-1.006298 1.219918.245639-.202105.464449-.526524-.21881.324413-.21881.318193 0-.0021-.21881.320268-.095.17828.0454-.05389-.14037.232163-.10836.191736.0114-.01352-.11972.20522.006.06736.0475-.05079-.0413.118166-.0526.148222-.004.01028-.0485.137852-.26524.424952-.0795.10571-.18578.31923-.0836.146137.0361-.06323-.11972.209363-.15172.243561-.0114.01146-.14037.232162-.26421.380382-.0454.05597-.2188.324412-.647119.929707-.15789.224904-.489219.704797-1.190017 1.625177-.260089.338926-.916508 1.293501-.896898 1.310091.0175.01146-.899988 1.304909-44.306042 64.048257-16.054338 23.206247-26.876944 41.80799-25.48113 42.70889 1.552177 1.013867-25.606118 42.569483 13.735312-22.817775 14.550671-24.183836-.795749 1.380572-.773049 1.395083.0257.0144-.775099 1.39197.360209-.548288.419039-.717233-.0588.168936-.10322.287103-.0155.04354-.0877.243561-31.726577 72.050702-11.702267 26.559215-15.968568 47.293997-11.751406 48.759677 4.657151 1.613771-12.086636 48.241446 6.904756-27.346923 7.024476-27.957401-.11972.610478-.378779 2.132011-.0949.561763-.272459 1.570248-.260089 1.57543.0143.0041-.26009 1.574396-14.128952 76.711884-5.13058 27.790741-5.720628 49.533693-2.392515 49.937813 3.687703.445776-2.715465 49.680677 1.480027-26.635178 1.551247-28.227189-.033 1.59409.002 1.59409.0402.0021-.004 1.592011 0 1.592011.002 0-.002 1.592011-.002-.445682 0-.755584-.002.309902-.002.328558 0 .0082-.002.320268-.002.09951 0-.08188-.002.181393-.002.177221 0-.001-.002.17828-.002.171023 0-.0032-.002.174136-.002.181394 0 .0032-.002.17828-.002.165823 0-.0053-.002.171022-.002.176193 0 .0021-.002.174136-.002.116081 0-.02174-.002.137852-.002.141995 0 .001-.002.140965-.002.06114 0-.02908-.002.09017-.002.09017 0 0-.002.09017-.002.165851 0 .02791-.002.137851.008.09225.004-.01645.004.108825.009.129567.002.0082.007.121252.007.121252 0 0 .007.121252.0114.103653 0-.0073.0114.11091.0114.11091 0 0 .0114.11091.007.133709 0 .0094.007.124366.0208.162736.004.01352.0164.149251.0372.463297.008.116081.029.347213-.0102.12231-.0143-.08291.004.205221.009.07774.002-.04666.007.124367-.008.209364-.006.03108-.002.17828-.002.384528 0 .07462-.002.309902.008.166879.004-.05285.004.219734.0671.771131.0237.205221.0434.56591.146569 2.193166.0382.601149.140379 1.592017.164099 1.586835.0299-.0021.161 1.588904 8.999922 77.494529 3.268664 28.075768 7.392945 49.220791 9.050502 48.969761 1.840246-.277679 8.865743 48.94582-4.80237-26.230957-5.05524-27.80535.29518 1.57128.33028 1.559882.0434-.0073.32614 1.562985.32614 1.562985 0 0 .32614 1.562985-.0123-.203134-.125919-.654009.113519.450861.104239.428059-.003-.0082.107339.43635.0537.140966-.0196-.108824.0733.24979.0774.253932.001.0021.0764.251847.135189.565908.0216.115053.113519.450861 23.707362 74.98318 8.727452 27.566961 16.144108 47.044949 17.309365 46.639689 1.288058-.445775 20.199239 45.532014 23.137633 44.221814 3.249033-1.438514 22.710349 44.202868-12.749524-24.862817-13.115924-25.545846.3664.683029 1.046548 1.788941.25079.41044.811228 1.369172.824648 1.357774.0175-.01234.821558 1.360887 39.940243 66.891484 14.467981 24.23774 28.370402 40.905954 31.132302 38.980414 3.060194-2.123918 30.683328 39.034602-16.479558-20.916703-17.444576-22.173936 1.006298 1.22822 1.033137 1.191937.0392-.03732 1.033128 1.194008-.355049-.37831-.513989-.580419.15895.202106.712149.701686.20435.18345.507799.518233 1.466617 1.480073.356079.355508 1.126018 1.109017 1.145628 1.09036.0176-.01851 1.140468 1.092434 57.785274 52.080189 20.951638 18.859515 37.950356 31.967694 39.022726 30.684654 1.190028-1.425137 38.864788 30.794311-20.899018-16.458025-22.104516-17.477906 1.226138.991897 1.255038.963912.0249-.02791 1.247808.96702-.291039-.22182-.568689-.441536.27765.219734 67.189783 40.450023 24.747721 14.880535 44.720932 21.739848 46.679852 17.714227 2.163276-4.444363 46.125616 17.994898-26.524988-10.31076-26.870748-10.47141.34576.16065.002.05597-.126939-.03732.129019.09328.123839.08811-.002-.0021.125919.09017.459289.196935.122819.03939.33647.157537.35195.160652.006 0 .34575.160652 2.157086.71516.669829.205221 1.487257.497502 1.487257.487137 0-.0094 1.487257.48921 73.978955 23.523721 26.812976 8.518705 48.171229 11.820885 48.979369 8.551879.890679-3.612081 48.68523 8.849341-26.145178-4.729389-27.677855-5.022709 1.532677.267419 1.538867.242534.002-.02791" fill="url(#a)"/><g transform="scale(.26458334)"><path d="m249.52539 0a250 250 0 0 0 -75.10937 11.699219l24.48046 48.27539.57422.816407c8.09331 11.55335 18.75832 23.738754 31.28516 35.861328l-4.29883 1.84375c-16.40109-18.888487-32.67585-37.517791-48.45117-55.142578l-.008-.0078-.36524-.404297-24.48047-23.417968a250 250 0 0 0 -153.15215 230.476549 250 250 0 0 0 250 250 250 250 0 0 0 250-250 250 250 0 0 0 -250-250 250 250 0 0 0 -.47461 0zm-10.33789 152.82227c8.23374 8.70819 17.07669 16.97023 26.28906 23.73242l.01.006.008.006c15.3066 11.10872 36.40418 24.67467 57.02734 29.00976 7.24779 1.52382 14.18104 1.13897 20.625-.61328l6.2168 4.83789v-.002c18.1568 14.12931 34.31126 30.46108 46.8125 48.41406-8.78714.32882-14.62004 6.28629-16.26758 8.11914-.003.004-.0118.0122-.0156.0156l-.002.004c-1.4372 1.59428-2.36814 2.9962-3.1289 3.88477-.39131.45705-.77137.59072-1.10938.85156-1.14527-.62984-2.57119-1.82027-4.56445-3.36523l-.006-.004-.004-.004c-.32152-.24748-3.70812-3.28117-8.52734-4.42382-4.62762-1.09722-8.68124-.39233-12.55859.49023-3.23148.73297-6.91923 2.37486-9.82617 5.38477-2.515 2.60401-3.64161 5.06396-4.35743 6.43164-1.17496 2.1047-1.66954 3.07733-2.26171 4.18945-1.2303-.55488-2.24064-1.03394-3.58594-1.50781l-.008-.002-.008-.002c-4.92012-1.71217-13.52455-2.78232-22.91601.88672-3.40807 1.33167-6.53192 2.79321-9.40039 5.46875-3.2474 2.84543-4.47074 6.27601-5.32227 9.11328-.92978-.12442-1.90131-.32265-4.24414-.91211h-.006l-.004-.002c-4.34508-1.08177-11.9095-1.80954-20.74609 1.0664-11.40978 3.71246-16.65149 13.46439-19.48633 23.6836-2.84847 10.26888-2.93993 20.81408 2.87305 30.99023l.19726.34766.26368.30273c4.89252 5.62436 8.21501 10.87773 10.82617 16.05469l-42.59332-25.87107c-7.49444-4.72888-14.00974-9.82272-18.65234-16.6543l-7.5879-11.17188c2.21482-9.18018-.4028-18.22766-.15429-23.81445v-.006c.00007-.002-.00008-.004 0-.006l.28711-5.94922c9.48273-3.18717 20.47244-6.30803 30.91015-11.67968v.65039l6.24219-4.01758c6.16841-3.97079 12.7207-9.40246 16.64844-17.7168 3.89896-8.25343 4.56038-17.94943 2.85937-28.98047-1.16013-13.21116-3.93801-26.94189-6.76953-39.21875z" fill="#790634"/><path d="m249.52539 0a250 250 0 0 0 -61.35156 7.765625l22.80078 44.957031c8.25121 11.78027 19.6321 24.721042 33.34766 37.544922 1.9386-.691283 3.93594-1.382604 6.0332-2.054687 10.1155-3.245212 21.60657-6.488806 32.4668-6.042969 3.6201.147779 7.16842.707113 10.57226 1.8125l7.14649 2.320312-4.63672 14.291016-7.14844-2.318359c-6.43365-2.087226-21.40325.266992-33.81055 4.246089-7.39708 2.37275-13.7359 4.93239-17.66406 6.61719 2.86117 3.32119 5.7335 6.66505 8.62891 10.05469l3.04882 3.56641-1.86523 4.30273c-1.0219 2.35605-2.4216 5.52225-4.26172 9.04297 9.11702 11.14743 21.97685 22.60471 30.91602 29.0918 14.52706 10.54296 35.36982 23.20531 51.66601 26.63085 8.14849 1.71319 14.63316 1.15675 19.28516-1.66601 4.65197-2.82359 8.70615-8.32505 10.73828-20.15625l1.27148-7.4082 14.81055 2.54687-1.27344 7.4043c-.0333.18618-.0701.36435-.10351.54883 26.62793 11.52396 52.24357 18.66255 73.00976 19.05078 3.23663.0601 35.27576-.0445 49.98828-.30469a250 250 0 0 0 -30.33593-73.04492c-7.644 6.2138-24.5036 20.51036-35.40625 28.05078l-8.54883-12.35742c12.35235-8.54417 26.07382-19.85718 35.73828-28.16797a250 250 0 0 0 -204.58789-106.32422 250 250 0 0 0 -.47461 0zm-110.13281 25.800781a250 250 0 0 0 -44.630861 28.238281c12.762111 2.647567 97.550551 47.279808 73.048831 38.806641-1.32499-.457515-8.03574-1.377947-17.19532-2.189453 2.49634 4.579359 4.04222 9.66372 4.50977 14.91016.58108 6.52047-.56561 12.28918-3.375 16.64062-2.80942 4.34976-7.80078 7.47397-14.25781 6.47461-6.45704-.99852-12.1507-5.7756-15.82422-11.12891-3.67348-5.35163-5.89661-11.64051-6.47852-18.160152-.3281-3.692712-.10213-7.14417.66602-10.232422-18.987017.178659-36.705949 2.413527-40.267579 9.414063l16.957031-42.757813a250 250 0 0 0 -84.7656251 132.302734l49.4941411 37.4707c16.071601 15.7819 44.307922 31.11851 70.943362 40.01758 23.46871 7.84127 38.94951 10.70367 55.84179 4.45703 13.24552-4.89745 28.52907-8.53301 38.77149-15.12695 10.24074-6.59228 16.14279-14.17738 13.20898-32.86719l-.0332-.19336-.0176-.19531c-.27292-2.63825-.62319-5.40968-1.00976-8.23828-.15017.0401-.29452.0846-.44727.12305-9.04018 2.32349-21.94507 3.57298-38.20117.29687-1.12711.69296-2.26753 1.36886-3.42969 2.01172l-6.57617 3.63672-7.27149-13.15039 6.57422-3.63672c16.29704-9.01345 30.12568-26.33602 38.45117-39.60156-.30228-1.04361-.62245-2.09675-.93554-3.14453-10.73164 7.42716-25.90487 11.00086-43.5586 4.1289l-7.00195-2.72656 5.45117-14.00391 7.00196 2.72657c15.87122 6.17817 24.93607 2.09026 32.67382-4.95704 6.21491-5.66053 10.68232-13.61649 13.63282-19.80468-21.98572-25.656191-43.01761-49.395059-63.80467-72.619144zm-5.2168 65.671875c-.40662-.06259-1.26008.01545-2.34961 1.703125-1.08952 1.686478-1.89617 4.792376-1.56055 8.546879.33396 3.75449 1.72329 7.20098 3.14844 9.27734 1.42432 2.07637 2.31526 2.42566 2.72266 2.48828.40911.0635 1.26204-.017 2.35156-1.70312 1.08953-1.68814 1.8962-4.79184 1.56055-8.54883-.33392-3.754501-1.72329-7.199026-3.14844-9.275392-1.42518-2.076363-2.31635-2.425666-2.72461-2.488282zm157.82031 20.121094v.002c.4809.009.96415.0243 1.44922.0527 15.52892.87663 31.6073 10.39067 48.12305 27.73047l-10.88477 10.36523c-14.99456-15.74433-28.33248-22.54244-38.08398-23.0918-9.75149-.55103-17.20945 3.90214-23.74414 15.43946l-13.07422-7.40625c8.18189-14.44774 21.28455-23.34644 36.21484-23.0918zm-62.82226 70.95313c-4.52843 6.12808-9.87249 12.42859-16.00391 18.24609 7.29358.24041 13.16335-.6369 17.625-1.7832.63618-.16362 1.19372-.33113 1.76563-.49805-.96262-5.13707-2.09849-10.48213-3.38672-15.96484zm136.51758 5.0625c-2.06217 4.4057-4.64465 8.11823-7.70118 11.10546 26.51273 20.63176 50.39265 45.68622 65.05665 76.17383l.74804 1.55078c25.06171 33.17847 33.0616 78.21813 25.70313 119.12891-24.12885 27.81468-62.543 41.36667-96.99219 46.64062-17.2254 2.63577-33.47911 3.14254-46.73047 1.62891-13.25133-1.51536-24.11475-3.93169-30.54297-14.41992-2.09683-11.00338-2.73638-20.20725-3.83594-29.20899-14.27241 16.0023-24.73941 32.40517-30.23632 49.92188l-8.21485 49.28516a250 250 0 0 0 17.05469.58398 250 250 0 0 0 250-250 250 250 0 0 0 -3.74805-43.11719c-12.81143.26279-49.91965.35759-53.38086.29297-23.41534-.43831-49.99489-7.87296-77.17968-19.5664zm-361.9238319 19.15039a250 250 0 0 0 -3.76367185 41.91015v.0762 2.61329.0684c7.61667375 5.67716 85.21969875 56.9389 109.68359375 74.93742 14.7817 10.87525 29.66896 21.75099 41.0293 29.87696 5.13122 3.67017 9.23379 6.53992 12.55664 8.8125.35062-1.00771.59389-1.55162.98047-2.73047 2.15399-6.57559 4.78052-15.55566 7.30273-24.53906 3.91397-13.94514 6.91253-25.38775 8.35938-30.94727-.97347-5.90599-1.31102-12.47174-.95704-19.75781-17.61781 3.51488-35.10036-.40104-55.50586-7.21875-23.572212-7.87717-47.868065-19.95168-66.179682-34.34766v.002zm-2.9003906 64.02148a250 250 0 0 0 215.5761725 226.95508l9.09766-47.60547c6.51045-24.08311 21.01935-45.76553 40.32031-66.05664l-53.91602-32.75195-.0527-.0332c-8.21281-5.18216-16.54075-11.46939-22.77735-20.64648-.99353 3.64345-2.0195 7.38717-3.08984 11.20508-2.55143 9.08776-5.20708 18.17742-7.49219 25.15625-1.14212 3.48983-2.17334 6.42211-3.16015 8.76562-.49261 1.17138-.94012 2.16834-1.61719 3.28125-.33895.55771-.70046 1.14944-1.50195 1.9668-.80402.81649-2.26845 2.45508-5.72071 2.45508-2.068 0-2.48257-.38584-2.97265-.57618-.4909-.192-.80661-.35175-1.11133-.50781-.60948-.31408-1.14084-.62789-1.75195-1.00195-1.22227-.74986-2.7042-1.72439-4.51172-2.94922-3.61509-2.45109-8.47692-5.87365-14.21094-9.97461-11.46721-8.20279-26.38247-19.10082-41.19339-29.9961-16.904198-12.43596-86.592692-58.02285-99.9140625-67.68555zm397.5449225 1.40039c-.4651-.0155-.90516-.0229-1.25195.004-4.05419.30894-5.17861 1.73156-6.8125 3.55078-1.08787 1.21309-2.14129 2.89714-4.02149 4.97851-1.88099 2.08054-5.47571 4.73907-9.78711 4.9336-3.88471.17529-7.36012-1.51319-9.47656-3.04688-2.11559-1.53369-3.41647-2.87477-4.55859-3.7539-2.28426-1.75828-3.09807-2.80683-9.38477-1.36914-2.64659.60445-3.32123 1.70181-4.86328 4.64062-.7706 1.4694-1.51876 3.26137-2.61328 5.2793-1.09372 2.01793-2.57984 4.61689-5.92188 6.43945-2.42284 1.31913-4.9565 1.17635-6.46093.85742-1.5028-.31729-2.4417-.75657-3.30079-1.14062-1.71736-.76809-3.07461-1.47183-4.63086-2.01367-3.11246-1.08536-6.62916-1.85441-13.18554.70703-5.46351 2.13481-5.67336 3.37545-6.2461 4.83398-.28637.7297-.4504 1.66309-1.01562 3.42969-.56522 1.76748-2.42837 5.48976-6.11524 6.91992-3.15171 1.22228-6.38976.98061-8.63476.50391-2.24585-.47755-3.86493-1.07387-5.47461-1.47461-3.21932-.80149-6.39242-1.35494-12.99805.79492-3.84883 1.25232-8.25751 6.7175-10.29882 14.07617-2.00373 7.22012-1.3186 15.38118.96484 19.48633 25.14516 28.41541 23.38631 58.09466 26.88281 82.4375 1.88685 1.33916 8.27955 4.508 18.27149 5.64844 4.68622.53601 10.00232.78184 15.74218.72265.90669-28.58165-6.35258-64.23699-16.85547-87.51953l13.69532-6.18164c11.57988 25.66449 19.10907 61.69472 18.23828 92.90039 3.89055-.36397 7.8841-.85323 11.93164-1.47265 7.81622-1.19725 15.82834-2.89858 23.75976-5.09766-5.45346-30.41499-10.03117-63.40729-26.35742-91.56055l13-7.53906c17.83825 30.76143 22.60779 64.99558 27.79492 94.49219 7.0097-2.54805 13.80953-5.50001 20.19141-8.85547-1.59878-35.68979-5.91676-66.31788-20.30273-88.61524l12.62695-8.14843c15.67922 24.30191 20.37628 54.56439 22.27148 87.80468 4.68367-3.36963 8.95328-7.021 12.67774-10.94921 5.95442-40.39187-5.63363-87.99147-36.08203-116.65235-.44186-.008-.93034-.034-1.39649-.0508z" fill="#ffa5c9"/></g></svg>