<svg height="500" viewBox="0 0 132.29167 132.29167" width="500" xmlns="http://www.w3.org/2000/svg" xmlns:xlink="http://www.w3.org/1999/xlink"><radialGradient id="a" cx="66.145805" cy="66.145836" gradientTransform="matrix(0 1.0000236 -1 -.00000011 132.29167 -.001526)" gradientUnits="userSpaceOnUse" r="66.145836"><stop offset="0" stop-color="#ffd42a"/><stop offset="1" stop-color="#fea"/></radialGradient><circle cx="66.145836" cy="66.145836" fill="url(#a)" r="66.145836"/><path d="m87.316892 96.838911c-.60721-.40587-1.2166-.60841-1.82271-1.01165-10.53621-6.68714-18.0331-17.22213-19.24751-29.57886.40444.60612.40444 1.21441.6083 1.82162 3.44375 7.90133 9.11574 14.38439 16.81431 18.84197 8.103 4.65914 17.017068 6.68594 26.134998 6.28007 6.28029-.20254 12.55948-1.62093 18.43534-3.84895 2.43101-5.87487 3.84928-12.35793 4.05205-18.84099-3.44375 3.03822-7.69857 5.26646-11.95338 7.09136-2.63268 1.21551-5.26646 2.22934-8.1041 2.83436-2.63158.81106-5.26646 1.21769-7.90023 1.62213-2.22825.20276-4.660348.40444-6.888598.20276-12.15505-.60721-23.90675-6.28139-31.19869-16.00434 1.62104 1.21441 3.03931 2.42992 4.86312 3.44265.6072.20276 1.21441.6083 1.82271 1.01384 8.103 4.25372 17.22093 5.47032 26.33667 4.05095 10.129568-1.61994 18.639198-6.27919 26.136098-12.96612.6061-.6061 1.01164-1.2155 1.82161-1.8238.40553-.20167.6072-.60501.80997-1.01274.40553-.20167.6094-.40553 1.01493-.80888.80888-1.01383 1.61885-2.22824 2.63158-3.0393-.6072-2.22825-1.01273-4.45759-1.61994-6.8886-1.01164-4.05095-2.83654-7.4947-4.25481-11.34507-5.26756 12.56058-14.78883 23.29955-27.350509 28.97154-10.332339 4.45648-21.879089 4.45648-32.21143.40553 8.509631 1.41718 17.21984 0 24.9184-3.85038.60721-.40553 1.2166-.6083 1.82271-1.01273 13.777179-7.90133 21.881279-22.28572 24.515059-37.478986-1.82381-2.229339-3.84928-4.053144-5.67199-6.078619-2.63378-2.633777-5.67309-4.659255-8.7124-6.887498.60721 3.850377.60721 7.697466.40554 11.54675-.60831 8.306864-2.63488 16.208193-7.091369 23.501223-6.68582 10.94064-17.62536 18.84197-30.18595 20.05638 4.86312-1.41718 8.91407-4.45649 12.96502-7.69856 5.672-5.26756 9.52237-11.54675 11.75171-18.84197 3.64652-11.74952 2.83654-24.310102-1.62213-35.4524145-2.42992-1.012739-4.65926-1.62104-7.29194-2.229339-.20275 0-.60939-.404437-.81216-.404437-3.64432-.607205-6.8864-1.216603-10.53401-1.419371 1.41718 1.622138 2.22934 3.444846 3.64761 5.26865 2.22824 3.240982 3.24208 6.6847315 4.86092 10.1284795.6094 1.622135.81107 3.040405 1.41827 4.660349 3.24208 11.751707 2.22934 24.109523-4.25371 34.845203-.81107 1.2166-1.41828 2.22934-2.22825 3.44485-2.43101 3.03931-4.86202 5.67308-7.90133 7.69856 5.47032-6.48306 8.50963-14.78883 9.11684-23.29846.81107-16.207096-7.4958-32.009757-20.26024-41.9354655-6.2792 1.011642-12.560589 3.038214-18.233674 5.873661 16.816494 6.6869215 30.794254 22.0818565 32.212524 40.5193945.6083 6.48305-.20275 12.96721-2.83545 18.84087.80997-4.05205.80997-8.103.20276-12.15615-.6083-4.45648-2.02658-8.7102-4.05205-12.76225-.40663-.6083-.6083-1.21551-1.01274-1.8238-4.659249-8.104101-11.345078-13.97886-19.449172-18.436441-.406631-.202755-.811069-.202755-1.215506-.404438-1.418271-1.012739-2.837641-1.62104-4.456488-2.025478-.406628-.202755-.609395-.405531-1.013833-.608298-3.646516-1.21441-7.294125-2.432107-11.142312-2.836544-5.064786 4.052047-9.318506 8.915163-12.966116 14.182716 5.875855-.609395 11.547846-.609395 17.625368.404438 1.621041.405534 3.038215.607204 4.659255 1.013836 7.496893 2.024378 13.979949 5.265359 19.650845 10.534009 2.63487 2.43101 4.86312 4.86202 6.88969 7.90133 1.82271 3.03822 3.24207 5.87366 4.45648 9.11683.80998 2.63269 1.41828 5.26646 1.82381 7.90024-2.43101-6.28029-6.28029-11.95228-11.54675-16.40877-2.02767-1.62214-3.850377-2.83654-6.079716-4.25482-3.84928-2.4321-7.697466-3.84927-12.153954-4.86311-11.144502-2.63487-22.08295-1.41827-32.4163865 2.43101-2.227149 6.07862-3.646516 12.35782-4.049857 18.6392 4.253718-2.83654 8.304671-5.67199 13.1666905-7.49579 5.673088-2.22934 11.345079-3.64652 17.220934-4.05205 13.573321-.81217 27.552179 4.86092 35.656279 16.00433-.81107-1.01274-2.02658-1.62104-3.03932-2.42992-.40443-.20387-.6072-.20387-1.01383-.40662-6.2792-4.25482-13.166692-5.67199-20.25805-6.2792-3.646516-.20275-7.293032.20167-10.940641 1.01274-12.153954 2.83545-22.4873915 9.72404-29.9831875 19.24531.809972 6.28139 3.038215 12.56036 5.874759 18.23367.811065-2.43101 2.229339-4.65947 3.4448425-7.09136.809972-1.41717 1.619944-2.83545 2.632683-4.25481 1.622134-2.02438 3.040405-3.84819 4.659252-5.6709 1.622134-1.8238 3.242078-3.23988 5.065883-4.86311 1.621037-1.21551 3.038214-2.22825 4.659252-3.44485 1.419366-.80887 2.633776-1.41717 3.849283-2.22824 4.862019-2.42991 9.725134-4.04986 15.195455-4.65925 6.886399-.80998 13.573319.20275 19.853619 2.83654-3.24099-.40444-6.68474-.6072-9.92681-.40444-3.04041.20276-6.077529 1.01165-9.117934 1.82271-11.547846 3.64652-20.459722 12.36001-26.133907 22.89281-.403341.81008-.607201 1.41839-1.012736 2.22847-.202755.40542-.202755.81085-.404437 1.2155-.203874.4063-.405535.60841-.608302 1.01384-1.621038 4.45648-3.242078 8.912979-3.850377 13.574099 4.053144 5.06412 8.915163 9.31849 14.385484 12.96413-1.011643-5.4691-.608302-10.93854 0-16.61141.202755-1.62136.809972-3.03933 1.012739-4.66069 2.835447-12.153739 9.724038-22.284409 20.461912-28.767469.608302-.20275 1.216604-.6072 1.822707-1.01274 4.25482-2.22933 8.7124-3.6476 13.371661-4.05095-2.42992.80997-4.659261 2.025479-6.888601 3.442649-.404439.202761-.6072.202761-1.012739.40444-2.02547 1.41827-3.646511 2.83764-5.47032 4.25482-.404433.40553-.809968 1.01493-1.417172 1.41827-4.66035 5.06588-7.902428 10.73787-9.927904 17.220931-3.645419 11.750739-2.835447 24.108549 1.823805 35.250869.201668.40542 1.012739.40542 1.619944.60929.202755 0 .608299.20288.812162.40333.403341 0 .607205.20381 1.011643.20381.202755.20288.608301.40542.811065.40542 1.214411.40467 2.431014.60621 3.849285.81009.202754 0 .607204.40454.811068.40454 3.240974.40542 6.481964 1.21638 9.722944 1.21638-8.50854-10.94152-13.168886-25.12192-11.141217-39.10112 0-.40542 0-.80964 0-1.21638 1.822707-10.33015 7.088067-19.65085 15.396037-25.72728-6.8886 8.30468-9.92681 19.04365-8.91407 29.78053 1.01273 10.53481 5.47032 20.25905 12.56058 28.36293 1.01274.81009 1.62104 1.82393 2.63377 2.83556.60831.60842 1.21441 1.2155 1.82381 1.82513 1.012739.80962 2.02657 1.61971 3.03821 2.42967 6.2803-.80996 12.560589-3.0393 18.23368-5.87485-8.508541-3.44485-15.802661-8.71097-21.881291-15.80353-.404429-.60712-.808869-1.21464-1.41827-1.82262-5.063689-6.68495-7.90023-13.77533-8.91188-21.8803-.811059-6.88749 0-13.77609 3.03822-19.85252-2.229339 10.93845.809971 22.08077 7.698571 31.19848.6072.60753 1.01273 1.2155 1.41827 1.82304 8.508529 10.13067 20.259139 16.2081 33.021398 18.03068 1.8238-1.62092 3.64761-3.24109 5.47141-4.86201 2.83545-2.83642 5.06369-6.07742 7.4947-9.3197-11.54675 1.21551-23.702888-.20163-34.034139-6.27998" fill="#fc0" fill-rule="evenodd"/><path d="m289.10352 13.080078c-21.90113.151203-45.41834 1.976603-64.2461 14.734375l-71.0039 38.113281-40.76954 55.378906-.29687.45117c-7.94618 12.26325-9.83917 26.51124-1.12109 40.26758.28924.45642.92021.74952 1.24804 1.19531-3.91577 2.60286-7.21168 5.9627-9.94336 10.00196-1.77017-.38993-3.542859-.89555-5.300778-.92188h-.007813c-5.312832-.07729-9.925416 1.32414-13.841797 3.0625-.694801.29012-1.846758 1.03651-2.878906 1.64063-4.161785 2.19737-7.908961 4.73781-11.085937 7.77929-.133191-.16856-.065375-.23382-.207031-.40625-2.986753-3.63585-9.094222-6.54757-13.613282-6.67968-4.51906-.13214-7.201505 1.12828-8.982422 2.02929-3.561841 1.80203-4.541152 3.07668-5.625 4.16406-2.167702 2.17478-3.495622 3.97557-5.234375 6.35547-3.477507 4.75981-7.900013 11.47629-13.974609 21.08985l-.257812.39844-.228516.41406c-25.9075478 46.23013-20.5446344 104.45074-1.240234 154.92383 19.304401 50.47308 52.362572 94.87453 93.832032 112.81054 53.14283 22.98531 120.02503 24.44572 180.39062 13.54492 60.3656-10.90076 114.4997-32.91487 142.01954-68.45312 22.57987-29.16053 48.76135-74.1842 56.64843-127.35938 7.98066-53.8023-3.95707-102.0069-24.91406-145.93945-38.12164-79.915877-117.19662-127.466413-119.26758-128.703124-5.00981-3.393053-8.10046-3.944717-12.0625-4.982422-3.99618-1.046646-8.44693-1.893049-13.42773-2.621093-9.96161-1.456088-21.96788-2.376542-34.60742-2.289063zm-50.51368 111.917972c.85361 1.01867 1.51965 2.08508 1.89649 3.50586.88732 3.34544.82197 10.64863-6.13281 23.08398l-.29688.52344-.25781.54687c-6.48331 13.67027-10.21992 26.02947-10.51172 37.72852l-1.09961-.11914c-2.17584-.23433-4.35852-.35467-6.54688-.375h-.01562l-4.03125-.03711 4.70313-7.83203-12.2168-7.27149c1.11645-.63859 2.40229-1.13067 3.33594-1.90429 7.6169-6.31141 11.27571-13.8454 14.65429-22.16797l.49414-1.21875.3086-1.26953c1.81207-7.3975 2.45877-9.2651 12.04101-19.33399zm89.21094 18.07031c14.15916 13.01338 32.04858 31.60697 48.11524 58.70898 27.26011 45.9837 42.41804 103.87802-6.77735 172.18946-.0068.00945-.00687.01984-.01367.02929-13.55494 18.45441-34.20157 32.07076-57.91211 41.86329 13.19972-10.60487 24.04962-23.94083 30.05273-39.9961 8.71672-23.31274 5.80505-51.86402-12.30664-77.14844-9.62508-13.43843-22.14055-33.91362-43.05078-49.69336l-.04492-.03125-.04297-.03711c-3.55137-2.64622-7.3339-5.01595-11.0957-7.40234l14.2832-47.91601c6.8678-15.15849 16.26632-24.01305 26.50196-34.74024 4.18701-4.38809 8.50037-9.79735 12.29101-15.82617zm-267.726561 94.18555c.430598.50204.622372 1.08681 1.107422 1.55664-.059112.52729-.122954.80593-.16211 1.45507-.765687 9.83427.822092 19.00789 7.683594 27.00977l.029297.03711.029297.03711c2.746994 3.16907 7.639703 6.99223 13.457031 8.48242 5.817332 1.49019 11.385233.80666 16.269531-.55469l-.095703.03125c9.416572-2.57177 21.724512-4.34591 32.074222-5.72265.59949.82846 1.05244 2.01848 1.6914 2.62109 1.30477 1.23718 2.46162 1.89372 3.63868 2.63477-.96546 4.48788-2.29948 8.69018-2.82618 13.56836v.02343l-.00781.0293c-1.82959 17.39684-.6386 36.64811 3.56445 55.25391 4.56922 20.24783 14.4022 35.84403 20.08008 47.14062 9.48893 18.87889 23.74924 32.06755 39.66992 40.4375-27.61348-2.65621-52.78912-8.89642-69.53711-18.16015h-.00781c-59.465617-32.89047-95.179951-108.97506-66.658201-175.88086z" fill="#665600" transform="scale(.26458334)"/><path d="m76.525049 8.2223542c-5.445163.0375928-11.220768.8601265-14.559479 3.2164558l-18.060857 9.693873-10.065487 13.672244c-2.117967 3.268632-.606674 9.593609 6.007835 5.539534l7.241117-9.551154c9.200251-7.943951 27.97801-4.282983 19.073422 11.63868-4.373779 9.222252-2.316692 13.728259 3.303668 15.616799l2.572963-8.626318c4.449989-10.014602 12.738449-11.811581 12.396755-19.881625 0 0 45.296394 33.047454 17.094084 72.195847-14.918833 20.37243-52.940852 21.34228-70.301936 11.73945-18.419178-10.18749-29.3112932-34.2301-18.811776-54.909438 3.238458-7.874123 3.815968-10.12048-2.5110676-.107415-11.6839529 20.849161 4.1827266 56.330963 22.2351456 64.138843 25.488674 11.02435 67.937924 2.04892 79.647714-13.07273 5.59633-7.22732 12.12719-18.564202 14.04284-31.479639 1.95274-13.164561-.90641-24.809635-6.17971-35.864157-9.3954-19.695942-29.913613-32.153573-29.913613-32.153573-1.293385-.882889-7.04035-1.8483883-13.211618-1.8056768zm-17.819928 22.5873208c-3.237936-.05038-6.409384 1.283924-8.721717 3.232827l-7.260304 9.547831c1.985476 1.583162 3.975554.737869 5.971517-1.18085 2.34866 1.185964 4.155614-.657308 5.648239-4.334134.614853-2.510043 1.526894-4.286306 4.362265-7.265674zm-24.702975 15.734957c-.416126-.0029-.81844.09028-1.20924.28006-.782635.393362-1.661685 1.292624-2.45966 2.975276 3.587817 2.434846 7.662105 5.117534 10.894164 8.957281.240407-.138116.49489-.256019.746308-.357296.02639-.0058.05191-.01053.06757-.02146-.643243-4.264826-2.741509-8.376184-5.047712-10.398752-1.090824-.951944-2.075501-1.427917-2.99138-1.43508zm14.445153 1.931005c-1.261933 2.129982-2.614394 4.329021-3.418769 6.820901-.26557.833653-.457697 1.688942-.574185 2.556084.0639-.0048.128904-.01662.191311-.0048.789025 0 1.597741.179538 2.348911.563436.07975-.793374.265482-1.554259.49516-2.31617.681349-2.09725 1.910541-4.1528 3.193953-6.288668zm-22.676329 1.873962c-.529429-.0077-1.093638.135806-1.711555.415103-.08951.03712-.174433.08004-.244767.133766-1.352209.664973-2.752761 2.012069-3.694982 3.487305-.947343 1.490836-1.394925 3.094203-1.23533 4.120571.159847 1.044279.612803 1.709765 2.503141 2.030232 4.876856.845806 9.887738 1.533042 14.844652 3.130019.522266-.90515 1.192865-1.77346 1.958622-2.561711.272898-.297199.575974-.573673.884937-.857058-3.360711-3.887066-7.831425-6.634452-11.804678-9.403327-.476998-.327378-.970873-.486973-1.50004-.4949zm31.238711 4.654089c-1.801328-.01537-3.473752.356794-5.01037 1.027655-1.512317.685949-2.874753 1.670886-4.110083 2.932558.09058.0811.184911.150132.276222.235817.511014.44732.969074 1.021254 1.362697 1.698253 2.284715-2.525132 4.999621-3.589103 8.493837-3.243059l.254995-2.577303c-.420971-.04534-.843911-.07002-1.267298-.07395zm-12.375026 5.436474c-.579811.0048-1.256809.190799-1.959637.520467-.09541.05374-.196937.101538-.296686.160882-.797977.43658-1.608992 1.049644-2.322318 1.7737-1.416917 1.468585-2.322308 3.375028-2.337397 4.499356 0 .569323.12174.862433.446296 1.145045.186961.190287.56012.372395 1.10285.4949.543493-1.129956 1.208467-2.129982 2.002615-2.961714 1.74096-1.788287 3.652526-3.10879 5.681221-4.024669.05268-.032.122765-.05374.176482-.08594-.225076-.350907-.457818-.627128-.693374-.829691-.563444-.506665-1.128669-.687488-1.79979-.69234zm10.318443 2.474237c-2.41157.000503-4.729025.451159-6.910675 1.449136-1.736107.799513-3.381416 1.960159-4.892718 3.531046-1.607716 1.649669-2.802118 4.936198-3.232822 8.925313-.420979 4.00292-.142456 8.666985.852457 13.071203.98979 4.387584 3.274253 8.108906 4.920597 11.384443 12.356349 24.58381 53.559523 2.98705 37.47545-19.466764-2.6855-3.749462-5.745426-8.616602-10.388263-12.120282-4.658952-3.471702-10.150157-6.028039-15.382781-6.628313-.810223-.096-1.625355-.144676-2.441245-.145782zm-33.969732.182862c-.04302.27111-.08594.542219-.09638.803603-.133515 1.639944.271109 2.977063.90514 3.716469.627631.724066 1.426381 1.064484 2.987291.62943 3.316969-.905903 7.437541-1.507706 10.44172-1.875239.02363-.09506.04132-.191501.05297-.288759-4.62161-1.468325-9.419702-2.138673-14.290681-2.985504z" fill="#ffe57c"/></svg>