<svg height="500" viewBox="0 0 132.29167 132.29167" width="500" xmlns="http://www.w3.org/2000/svg" xmlns:xlink="http://www.w3.org/1999/xlink"><radialGradient id="a" cx="66.145859" cy="66.145882" gradientTransform="matrix(-.00004147 1 -1 -.00004147 132.294459 .002719)" gradientUnits="userSpaceOnUse" r="66.14584"><stop offset="0" stop-color="#fa0"/><stop offset="1" stop-color="#ff8000"/></radialGradient><radialGradient id="b" cx="66.145828" cy="66.145836" gradientTransform="matrix(0 1.0000017 -1 .00000032 132.29167 -.000124)" gradientUnits="userSpaceOnUse" r="66.145836"><stop offset="0" stop-color="#d45500"/><stop offset="1" stop-color="#a40"/></radialGradient><g><circle cx="66.145836" cy="66.145836" fill="url(#b)" r="66.145836"/><path d="m80.94711 66.831282 51.34457-.683777-51.34457-.688083 51.06027-5.413135-51.18627 4.050967 50.34637-10.104804-50.59511 8.759867 49.19203-14.706028-49.56891 13.392317 47.62848-19.184491-48.12275 17.908467 45.65685-23.500353-46.26632 22.274941 43.29324-27.609469-44.0147 26.443283 40.56136-31.487072-41.38297 30.397338 37.47952-35.098701-38.40341 34.084343 34.08432-38.40236-35.09869 37.47953 30.39735-41.386203-31.48601 40.563519 26.44436-44.010396-27.60839 43.287855 22.2717-46.259858-23.49927 45.653612 17.90633-48.125974-19.17912 47.630643 13.39233-49.572134-14.70928 49.197402 8.75771-50.597258-10.10695 50.344207 4.06067-51.185196-5.42283 51.059209-.68593-51.34349-.67946 51.34349-5.42176-51.059209 4.05527 51.185196-10.10716-50.344207 8.76222 50.597258-14.70915-49.197402 13.3922 49.572134-19.18501-47.630643 17.91223 48.125974-23.49949-45.653612 22.27191 46.259858-27.61269-43.287855 26.45007 44.010396-31.48705-40.563519 30.39259 41.386203-35.09439-37.47953 34.08356 38.40236-38.40426-34.084343 37.48437 35.098701-41.38782-30.397338 40.56007 31.487072-44.01137-26.443283 43.29333 27.609469-46.26632-22.274941 45.65298 23.500353-48.1208-17.908467 47.62665 19.184491-49.57126-13.392317 49.19685 14.706028-50.59337-8.759867 50.34518 10.104804-51.19145-4.050967 51.06102 5.413135-51.34078.688083 51.34078.683777-51.06102 5.415287 51.19145-4.052042-50.34518 10.108037 50.59337-8.764177-49.19685 14.70818 49.57126-13.390162-47.62665 19.184487 48.1208-17.908464-45.65298 23.498204 46.26632-22.271714-43.29333 27.606232 44.01137-26.447582-40.56007 31.488142 41.38782-30.395178-37.48437 35.099768 38.40426-34.086488-34.08356 38.401278 35.09439-37.481681-30.39259 41.386201 31.48705-40.555977-26.45007 44.006087 27.61269-43.284624-22.27191 46.262004 23.49949-45.655758-17.91223 48.127048 19.18501-47.631714-13.3922 49.569974 14.70915-49.196319-8.76222 50.591869 10.10716-50.339895-4.05527 51.190575 5.42176-51.063511.67946 51.342411.68593-51.342411 5.42283 51.063511-4.06067-51.190575 10.10695 50.339895-8.75771-50.591869 14.70928 49.196319-13.39233-49.569974 19.17912 47.631714-17.90633-48.127048 23.49927 45.655758-22.2717-46.262004 27.60839 43.284624-26.44436-44.006087 31.48601 40.555977-30.39735-41.386201 35.09869 37.481681-34.08432-38.401278 38.40341 34.086488-37.47952-35.099768 41.38297 30.395178-40.56136-31.488142 44.0147 26.447582-43.29324-27.606232 46.26632 22.271714-45.65685-23.498204 48.12275 17.908464-47.62848-19.184487 49.56891 13.390162-49.19203-14.70818 50.59511 8.764177-50.34637-10.108037 51.18627 4.052042z" fill="url(#a)" fill-rule="evenodd"/></g><g transform="scale(.26458334)"><path d="m360.8125 54.414062c-8.37009.118981-16.84508 1.16837-25.37109 3.400391-30.28219 7.927612-62.63057 21.702077-89.6543 43.029297-4.92859 3.88966-9.43265 8.36635-13.95117 12.80859l-.8125-.72461c-27.4542-24.560461-61.38843-36.723805-95.34375-37.499996-25.3188-.578766-51.538331 3.578893-76.019534 12.492188a250 250 0 0 0 -58.94531225 143.195308c41.81323625-5.91853 83.97607525-10.59492 126.25390625-15.11328-4.18139 3.44445-9.27562 8.95658-9.10937 18.22461.16092 8.93894 4.50263 15.6214 8.79882 20.35352 4.29619 4.73211 9.12158 8.24226 14.32032 11.5 3.97393 2.49022 8.34437 4.65476 12.69726 6.82031-13.08388 1.77762-30.46657 3.87476-41.52344 5.94336-28.226928 5.2809-51.632827 12.79217-69.949215 29.50586-3.631918 3.31393-6.675665 8.27042-8.777344 15.54492-1.44696 8.79987 1.119485 15.5634 4.222657 20.13867 6.206341 9.15054 14.118156 13.62495 23.289062 18.44727 18.341809 9.64463 43.08208 17.9105 68.00977 25.59375 15.36029 4.73442 27.42486 8.25964 40.76953 12.17969-9.79404 4.16473-19.23429 8.79958-27.77735 14.59375-14.62902 9.92187-26.9257 23.9382-33.28906 41.35742a250 250 0 0 0 141.34961 43.79492 250 250 0 0 0 126.93164-34.62109c-3.66872-1.40654-7.20189-2.81467-10.45703-4.22461-7.86294-3.40577-13.99686-6.99956-18.7793-10.17969 3.98717-2.29357 6.95993-3.98056 12.09766-7.21875 8.91959-5.62182 18.86929-12.72294 26.45703-23.64453 7.58657-10.91996 11.73215-26.58989 7.97266-42.66016v-.008c-2.57424-10.98839-10.36702-19.90162-19.90235-26.2793-9.53732-6.379-21.36074-11.26157-36.64258-15.98242-15.94478-4.92565-36.31422-9.60199-60.88671-14.3125 7.77839-2.57789 15.38315-5.41282 22.2871-8.79297 7.36616-3.60643 14.14177-7.647 19.97461-13.71484s10.93089-15.86757 9.66211-26.39063c-1.10275-9.14657-6.84735-15.29887-11.79492-18.98632-4.94757-3.68747-10.02821-5.94456-15.45117-7.95704-10.84593-4.02494-23.25785-6.72515-35.68359-9.13867-11.96177-2.3234-23.66076-4.26453-32.92383-6.08984 7.07861-4.71115 13.44888-10.7928 28.6914-17.44727 81.23769 3.48147 156.96057 6.87549 236.87891 9.6875a250 250 0 0 0 -78.61523-155.511526c-16.2007-6.195671-33.49041-11.050865-51.34961-11.96875-1.35531-.06966-2.71272-.115572-4.07422-.138672-1.19132-.02021-2.38435-.02286-3.58008-.0059z" fill="#592d0d"/><path d="m360.63672 72.560547c-6.95991.06371-13.86081.889167-20.64063 2.664062-56.64195 14.828364-121.16835 52.171591-131.02539 116.988281 95.57963 4.03727 191.1444 8.35529 286.74805 11.72461a250 250 0 0 0 -46.21484-104.595703c-27.43119-13.031595-58.7076-27.057343-88.86719-26.78125zm-229.37305 20.8125c-31.945677-.017053-65.616275 8.431553-93.623045 24.707033a250 250 0 0 0 -34.8300781 94.54101c63.2622551-8.83983 126.8764531-14.91978 190.3730431-21.86132l-.32421-.0488c3.4738-23.94325 12.85284-45.71594 26.1621-64.36328-24.19894-21.64833-53.76537-32.242181-83.75586-32.927738-1.33107-.03043-2.66427-.04616-4.00195-.04687zm102.92578 116.240233c-21.97128-.23146-98.57052 10.88769-98.33007 24.29297.41269 22.92229 93.69304 46.25208 84.98437 47.56641-88.26561 13.32094-137.237443 13.4609-166.509766 40.17187-34.911869 31.85525 192.873036 72.59751 165.455076 80.46289-45.25984 12.98519-85.91459 28.37065-95.61523 63.91797a250 250 0 0 0 39.45703 18.58008c-6.81851-12.27424-9.07078-22.42894-3.00977-25.79492 7.39269 10.72517 15.73606 21.95369 24.97266 32.75a250 250 0 0 0 64.40625 8.43945h.47461a250 250 0 0 0 .27148-.002c-17.47143-8.89298-46.4096-26.38318-45.38867-44.33985 1.43544-25.27287 59.54557-42.8457 62.69727-42.8457 0 0-43.77043 23.67127-44.74024 44.73828-.68685 14.93655 19.94158 33.11002 31.94922 42.39453a250 250 0 0 0 41.21094-4.30273c-11.3771-9.58116-17.55047-18.82003-12.83399-24.24805 9.54267 6.79531 19.95454 13.70648 30.94922 20.11719a250 250 0 0 0 41.64454-15.20703c-16.47823-7.43101-28.43224-15.32374-33.73243-23.96875-9.14738-14.91965 64.91989-24.97304 54.19532-70.78711-5.19451-22.1938-52.24913-36.86607-182.32032-56.1836-22.759-3.38047 120.53985-17.45488 116.4668-51.23632-2.37747-19.71945-92.66623-24.08877-102.79687-33.13477-4.25792-3.80124 5.26027-26.51976 26.14062-31.37695zm-129.53711 123.56445c29.94344-.13009 75.70575 20.11881 110.16993 32.96875l-1.60547 10.46875c-25.48275-9.51521-93.21962-33.60936-114.335941-43.13085 1.848131-.19737 3.775311-.29946 5.771481-.30665zm242.44141 48.26954v.002c.0922-.008.0898.0689-.0137.22656 3.49888 10.93002-19.27789 39.51929-55.45117 38.43555 12.69742-6.41465 53.58979-38.58156 55.46484-38.66406z" fill="#f6c155"/></g></svg>