<svg height="500" viewBox="0 0 500 500" width="500" xmlns="http://www.w3.org/2000/svg"><g transform="translate(.000015)"><circle cx="249.99998" cy="250" fill="#e51a1a" r="250"/><path d="m181.33938 83.856939c97.52275-31.84694 203.27597 26.159281 217.12696 131.568651 10.04116 85.89723-45.79566 162.6049-131.11288 174.6444-76.26503 6.65-147.16573-45.4981-149.44603-126.3231.16679-50.89801 30.03241-87.97493 76.60677-108.40662 44.00125-16.48183 90.46555-3.00917 112.28155 39.63622 17.95322 40.0953 3.57775 87.31302-40.4313 103.80676-21.98685 8.23292-51.6578-5.55285-56.72562-31.5612 24.48155 21.7253 69.7211 11.74379 80.1808-21.06198 5.24648-24.88185-11.48198-41.52298-24.36368-55.64156-23.21161-15.22125-63.26956-13.16738-85.32502 12.05139-41.51846 46.43224-18.48961 112.52397 35.72777 131.08081 60.66482 17.11352 118.96473-29.63961 126.96137-92.39988 2.7637-54.83226-40.99398-106.19486-96.51046-114.27807-76.21988-10.3001-138.45939 50.84936-147.743191 124.09106-9.31956 73.21828 47.315731 138.67973 111.863041 158.33924 49.05305 9.49897 98.18701 2.07129 139.64056-27.40671 82.90715-58.95602 100.11901-177.97214 43.55644-260.39974-52.71171-79.885311-158.575-103.987181-249.15842-67.061741-86.705021 39.45169-149.0660905 134.549061-117.102931 229.167621 15.77888-74.65377 50.93986-153.5943 123.407351-187.514491 9.28724-4.60517 19.44718-8.7232 30.56692-12.33106zm-160.722321 286.075591c-52.57825-113.8254-.38403-260.89182 113.777041-317.643861 10.84604-5.32012 22.21219-9.7712 34.03518-13.36069 115.76394-28.75816 246.03978 34.00351 263.68455 158.897471 10.04526 85.91695-27.72044 168.80365-107.97396 206.83173-102.24035 46.26108-224.798841-11.43986-234.690511-131.24969-7.33455-123.78718 127.307171-194.136761 222.718561-137.24102-42.54074-27.89653-94.21826-33.44528-140.80825-12.98978-71.17376 32.62266-105.080851 118.0397-80.762351 190.63139 30.697281 88.13423 123.572931 132.04164 212.817841 105.59803 82.80488-25.06359 132.16266-100.33164 140.19255-180.04986 12.12434-145.020371-132.23823-245.3588802-265.59709-221.973611 7.92036-4.10499 20.5989-8.4277792 35.61563-11.7452592 60.06317-13.23825 124.63426-3.45807 179.45368 32.4903392 109.65077 71.904621 141.09454 217.803071 65.16008 333.599141-143.00482 218.07486-377.311781 117.06797-437.622951-1.79433" fill="#b21a1a"/></g><g><path d="m327.43026 185.8266c-5.3899 28.27303-23.3013 60.89328-51.78302 89.37657-28.31696 28.31853-61.00704 46.48883-89.1616 51.99249 32.11971 6.67343 72.37368-6.80209 103.36284-37.79204 31.10213-31.10448 44.42938-71.39456 37.58178-103.57702zm51.86148 3.37816c-7.21634 37.85323-31.19865 81.52943-69.33432 119.66668-37.91521 37.916-81.68243 62.24429-119.38346 69.61519 43.0062 8.93609 96.90359-9.10712 138.3956-50.60227 41.64421-41.64578 59.48657-95.59181 50.32139-138.6796zm52.82255 8.61834c-8.92667 46.83639-38.60249 100.87815-85.78723 148.06524-46.91171 46.91485-101.06644 77.01982-147.71612 86.13635 53.21248 11.05753 119.90206-11.26935 171.24024-62.61066 51.52725-51.52805 73.60308-118.27725 62.26233-171.59015z" fill="#ff8066" opacity=".6667"/><path d="m250 0a250 250 0 0 0 -250 250 250 250 0 0 0 .63476562 8.88086c-2.43849162 37.76419 3.78424608 75.98374 19.98242238 111.05078 8.259694 16.27835 19.872179 32.17714 33.978515 47 15.117495.86953 30.731793-1.79549 44.544922-9.96289l.001953-.00195h.001953c13.304139-11.15822 21.921979-21.87734 22.580079-36.84571l47.11133-27.9414-69.833987-124.26367c15.148297 2.82576 29.295917 11.1004 44.740237 21.04101 21.54485 13.86718 45.77804 32.49796 76.93359 26.42578 16.09501-3.04223 12.59892.21039 14.43555-15.58984 3.50231-30.13041-11.28257-58.66106-31.61914-83.33594-18.08749-21.94601-41.37296-41.29674-65.32813-55.83789 12.71323-9.39922 27.01833-16.704593 42.56055-21.433593 50.29615 29.829843 100.5901 59.663753 150.88477 89.496093l26.08789-46.42187c5.39871.16964 10.70497-.75315 14.92187-2.70313 13.93605-6.43816 18.85465-17.89609 23.50781-30.710937 6.91722-18.836664 9.03491-35.429932 13.14258-49.003906-5.21351-4.06863-10.55871-8.02243-16.18945-11.714844-41.73689-27.369401-89.12401-39.5289505-135.87305-37.95117175a250 250 0 0 0 -7.20703-.17578125z" fill="#861313"/><path d="m250 0a250 250 0 0 0 -250 250 250 250 0 0 0 .63476562 8.88086c-2.43849162 37.76419 3.78424608 75.98374 19.98242238 111.05078 4.418977 8.709 9.789442 17.31411 15.972656 25.70898 15.825936 4.77301 39.475548 4.06167 53.390625-4.16601 7.641563-4.52061 12.418521-10.44617 13.585941-19.42383 1.16899-8.97687-1.6572-21.86172-12.375004-39.10937-51.113742-82.25115-33.808051-170.46274 18.921874-222.15235 52.72836-51.688816 141.06849-66.424695 227.375-5.66015 14.36677 10.11449 22.28943 10.53413 27.58203 8.08789 5.29418-2.44545 10.26489-9.84673 14.14844-20.544925 6.79719-18.49601 8.42397-36.703543 14.78711-53.894531-.31645-.209618-.60802-.442014-.92578-.650391-41.73689-27.369401-89.12401-39.5289505-135.87305-37.95117175a250 250 0 0 0 -7.20703-.17578125zm-27.68555 79.697266c-6.84837-.02785-13.56223.416605-20.11718 1.296875l122.74804 72.806639 16.50391-29.37109c-3.97925-1.8641-8.11672-4.29668-12.40039-7.3125-36.98391-26.039367-73.45042-37.283804-106.73438-37.419924zm-101.81836 41.449214v.00196l-.11718.11133c-21.126491 20.70989-36.172979 47.79807-42.310551 78.20898 59.233891-7.90203 95.487901 56.75852 139.164061 48.24609 5.24083-45.08679-46.67859-98.88298-96.73633-126.56836zm-44.595699 92.4043c-3.761157 35.06216 4.158854 73.69872 27.744139 111.65234 6.12424 9.85559 10.24376 18.91838 12.56055 27.26368l28.32422-16.79883z" fill="#ff8066"/></g></svg>