<svg height="500" viewBox="0 0 500 500" width="500" xmlns="http://www.w3.org/2000/svg" xmlns:xlink="http://www.w3.org/1999/xlink"><pattern id="a" patternTransform="scale(6.2717321 4.7640589)" xlink:href="#b"/><pattern id="b" height="5.180578" patternUnits="userSpaceOnUse" width="30.06602"><path d="m7.597.061c-2.518-.248-4.941.241-7.607 1.727v1.273c2.783-1.63 5.183-2.009 7.482-1.781 2.298.228 4.497 1.081 6.781 1.938 4.567 1.713 9.551 3.458 15.813-.157l-.004-1.273c-6.44 3.709-10.816 1.982-15.371.273-2.278-.854-4.576-1.75-7.094-2z"/></pattern><radialGradient id="c" cx="1362.7291" cy="216.11429" gradientTransform="matrix(1.0000001 -.0000059 .0000001 1.0000003 -112.72927 33.893757)" gradientUnits="userSpaceOnUse" r="250"><stop offset="0" stop-color="#ff851a"/><stop offset=".42441937" stop-color="#f87000"/><stop offset=".86367416" stop-color="#f26900"/><stop offset="1" stop-color="#e55f00"/></radialGradient><filter id="d" color-interpolation-filters="sRGB" height="1.054" width="1.054" x="-.027" y="-.027"><feGaussianBlur stdDeviation="5.625"/></filter><mask id="e" maskUnits="userSpaceOnUse"><g stroke-width=".895276" transform="matrix(1.1169735 0 0 1.1169735 -29.243246 -30.028822)"><path d="m0 0h500v500h-500z" fill="#fff" stroke-width=".895276"/><path d="m0 0h500v500h-500z" fill="url(#a)" filter="url(#d)" opacity=".75" stroke-width=".895276"/></g></mask><g transform="translate(-1000)"><path d="m1500 250a250 250 0 0 1 -250 250 250 250 0 0 1 -250-250 250 250 0 0 1 250-250 250 250 0 0 1 250 250z" fill="url(#c)"/><path d="m1309.2298 33.82789c128.5196 30.706851 207.8974 167.48127 169.5927 291.56949-31.3771 95.69524-112.8693 162.03793-212.5543 174.60263 153.1796-8.09118 266.0956-163.0043 218.7012-309.92978-36.4562-114.666588-154.6038-191.5214848-270.6514-169.822657-18.8526 4.215647-38.4387 10.498641-55.8829 18.694487-112.5353 47.459213-168.47522 196.206-99.9632 307.85319 57.6978 93.63045 168.5136 141.8489 267.9993 100.77239-134.92 68.97589-303.283-51.46877-311.488-201.30723-4.4167-117.68321 76.8182-219.674136 190.654-246.26040176-89.0147 9.18391126-152.6601 79.39239576-187.7408 157.21169176-38.45522 102.70317 5.2337 231.75078 109.038 294.08388 114.5107 66.1048 260.3537 29.37245 323.6836-83.60152 42.2104-77.69758 34.3514-177.62383-23.1776-249.88923-57.5404-72.257811-157.5429-102.460489-246.4118-71.877168-81.7429 30.682061-131.1298 101.133078-134.0478 190.176958.6692 92.68536 61.7912 168.55972 147.5399 198.52472 128.5549 37.82014 266.7725-70.33038 233.6823-209.88949-14.7104-64.39775-57.8855-122.14991-125.7378-141.121386-71.391-15.467036-138.9716 1.205-181.2869 64.641366-18.8995 29.2286-28.9384 85.21395-26.105 97.65297m0 0c13.5324-50.18833 30.6277-97.66354 72.2125-128.94941 53.182-38.308183 124.4576-37.093813 181.7444-.48035 50.1457 36.48017 75.4845 90.37713 72.3557 150.91678-6.6674 64.04407-38.4038 109.83277-91.6401 141.00844-63.9019 34.56125-135.3795 4.83213-189.1258-35.28385-78.8706-65.48566-79.7477-186.67235-8.9744-256.76104 63.7369-55.941605 167.0207-64.891564 238.7167-6.65053 78.8163 58.35315 90.3045 169.04089 40.972 246.62443-35.2274 56.41892-88.4571 87.60135-152.5581 93.63158-81.9488 2.18264-160.666-41.91503-196.8695-120.9383-36.2055-79.02511-22.5771-164.33167 26.8727-227.66064 49.4316-63.30896 138.3491-86.746364 220.4504-67.54202" fill="#c50"/></g><g><path d="m319.48242 9.9101562c-13.62859 3.1066628-26.84383 6.6637428-39.74414 10.3300778-26.51296 7.445418-52.02544 15.144846-78.04883 20.0625-65.52302 12.514669-137.973876 7.100314-201.68945-15.488281v4.128906c61.010471 27.364229 134.50617 39.439237 206.56641 31.716797 28.77019-3.129571 56.4653-9.056045 83.30273-14.308594 26.7772-5.153823 52.93795-9.877477 78.23633-10.621093 3.55785-.120229 7.1108-.02843 10.66601-.0059a250 250 0 0 0 -59.28906-25.8144128zm78.60547 112.9824238c-11.49927.10043-22.96448.79287-34.29883 2.08398-29.99189 3.53595-57.65305 10.79064-84.05078 18.29297-26.51296 7.44542-52.02555 15.14496-78.04883 20.0625-65.52302 12.51478-137.973876 7.09836-201.68945-15.49023v4.13086c61.010471 27.32763 134.50617 39.2908 206.56641 31.56836 28.77018-3.12957 56.4652-8.90762 83.30273-14.16016 26.77699-5.15373 52.93795-9.87749 78.23633-10.62109 43.61706-1.47394 87.25971 7.9926 123.05859 25.64257a250 250 0 0 0 -21.95703-54.5c-23.30602-4.82669-47.28031-7.21796-71.11914-7.00976zm0 123.0293c-11.49927.10043-22.96448.79286-34.29883 2.08398-29.99189 3.53585-57.65283 10.79064-84.05078 18.29297-26.51296 7.44552-52.02544 15.14505-78.04883 20.0625-65.52302 12.51478-137.973876 7.09836-201.68945-15.49024v4.13086c61.010471 27.32764 134.50616 39.2908 206.56641 31.56836 28.77018-3.12945 56.46531-8.90761 83.30273-14.16015 26.77699-5.15373 52.93795-9.87749 78.23633-10.6211 44.20103-1.49376 88.42532 8.25055 124.48633 26.36133a250 250 0 0 0 6.67773-47.51758c-32.38925-10.03958-66.9388-15.01-101.18164-14.71093zm0 123.02929c-11.49927.10043-22.96448.79287-34.29883 2.08399-29.99189 3.53584-57.65283 10.79063-84.05078 18.29296-26.51296 7.44543-52.02544 15.14485-78.04883 20.0625-65.52302 12.51457-137.973876 7.09847-201.68945-15.49023v4.13086c61.010471 27.32753 134.50617 39.2908 206.56641 31.56836 28.77018-3.12947 56.46531-8.9076 83.30273-14.16016 26.77699-5.15382 52.93795-9.87943 78.23633-10.62304 24.06845-.81334 48.15869 1.70925 70.94922 7.0664a250 250 0 0 0 26.69336-36.65039c-22.21386-4.3529-45.00247-6.47913-67.66016-6.28125z" fill="#ffc080" opacity=".666"/><g mask="url(#e)" opacity=".75" stroke-width="1.11697" transform="matrix(.89527642 0 0 .89527642 26.180789 26.884096)"><path d="m250 13.429688c-18.52088-.000692-35.17505 10.377645-46.36719 25.427734-11.34204 15.253662-17.92773 35.467391-17.92773 57.765625 0 17.286043 4.00129 33.277123 11.06445 46.708983-25.59348 10.10963-40.46302 34.39672-48.08594 61.64453l-.002.002c-8.98892 32.14388-9.58283 87.06859-9.80273 119.2871l-.125 18.12305h42.70507l9.33013 157.61129h49.98633 19.17969 52.63086l8.26172-157.61133h40.39648l-.0117-18.00976c-.0181-32.26674.51797-87.73759-7.60156-120.0625v-.002c-4.08289-16.25258-10.34372-31.02974-20.64063-42.86523v-.002c-7.36099-8.46007-17.31139-15.25096-29.03515-19.36329 6.64922-13.16448 10.36719-28.72034 10.36719-45.460933v-.002c-.00242-22.295509-6.58558-42.508645-17.92971-57.763535-11.20286-15.064911-27.87295-25.427043-46.39258-25.427734z" fill="#994100" opacity="1"/><path d="m218.07655 49.59806c-8.6796 11.673-14.3712 28.3923-14.3712 47.025 0 18.6318 5.6916 35.3232 14.373 46.9962 8.6796 11.6748 19.8666 18.171 31.9212 18.171 12.0537 0 23.2695-6.4962 31.95-18.171 8.6805-11.673 14.373-28.3644 14.373-46.9962-.002-18.6318-5.6925-35.352-14.373-47.025s-19.8963-18.1683-31.95-18.16875c-12.0546-.00045-23.2416 6.49485-31.923 18.16875zm31.9243 129.0087c-16.2504 0-30.87-7.9965-41.7375-20.3904-22.6116 6.2046-34.74 24.7797-42.246 51.6096-7.371 26.3583-8.9226 82.78434-9.1395 114.56244h23.4l13.69052-85.41981 3.69078 72.47277 10.0962 170.55864h34.2v-142.46064h16.8192v142.46064h36.7308l8.973-171.17694 3.66192-70.9596 13.66128 84.52494h21.4317c-.018-32.1426-.3825-89.10504-7.0596-115.68744-3.6288-14.445-9.0648-26.5896-16.7625-35.4375-6.7752-7.7868-15.1983-13.2795-26.8585-15.97545-10.9465 12.92355-25.9 21.31875-42.5518 21.31875z" fill="#ffa348" opacity="1"/></g><path d="m334.16797 67.949219c-13.50615.09654-27.0519.852626-40.54688 2.298828-28.77008 3.129572-56.46531 8.909562-83.30273 14.162109-26.7771 5.153825-52.93783 9.877475-78.23633 10.621094-24.60309.831361-49.206045-1.860602-72.435546-7.474609-4.703157 6.034289-9.213549 12.241093-13.478515 18.624999a250 250 0 0 0 -11.681641 18.41406c19.249102 3.79955 38.935 5.92268 58.572266 6.28321 14.121256.23189 27.742866-.56682 43.339846-2.06641 29.99187-3.53585 57.65499-10.78868 84.05273-18.29102 26.51284-7.44542 52.02556-15.144844 78.04883-20.062496 65.47035-12.504456 137.82197-7.054563 201.5 15.488286v-4.27735c-49.53557-22.146646-107.30537-34.139022-165.83203-33.720701zm0 123.029301c-13.50615.0965-27.0519.85262-40.54688 2.29882-28.77008 3.12957-56.46531 8.90956-83.30273 14.16211-26.7771 5.15372-52.93783 9.87748-78.23633 10.6211-44.242791 1.495-88.485906-8.29634-124.5624988-26.44336a250 250 0 0 0 -6.8632812 47.4375c29.611828 9.21814 61.06666 14.27817 92.402344 14.85351 14.121256.23213 27.742866-.56694 43.339846-2.0664 29.99187-3.53596 57.65499-10.78869 84.05273-18.29102 26.51284-7.44542 52.02556-15.14506 78.04883-20.0625 65.47035-12.50457 137.82197-7.05456 201.5 15.48828v-4.27734c-49.53557-22.14657-107.30537-34.13903-165.83203-33.7207zm0 123.02734c-13.50615.0965-27.0519.85458-40.54688 2.30078-28.77008 3.12958-56.46531 8.90957-83.30273 14.16211-26.7771 5.15382-52.93783 9.87747-78.23633 10.62109-43.622188 1.47404-87.248983-8.02003-123.0468738-25.67773a250 250 0 0 0 22.3710938 54.58398c20.229606 4.19276 40.963036 6.56154 61.652344 6.94141 14.121256.23213 27.742866-.56695 43.339846-2.06641 29.99187-3.53595 57.65499-10.78868 84.05273-18.29101 26.51284-7.44541 52.02556-15.14485 78.04883-20.0625 65.47035-12.50456 137.82197-7.05458 201.5 15.48828v-4.27734c-49.53557-22.14657-107.30537-34.14098-165.83203-33.72266zm0 122.89258c-13.50615.09-27.0519.84481-40.54688 2.29101-28.77008 3.12958-56.46531 9.05605-83.30273 14.3086-26.7771 5.15382-52.93783 9.87747-78.23633 10.62109-3.42414.11571-6.84208.0208-10.26367.004a250 250 0 0 0 58.65039 25.94726c13.71356-3.15562 27.00658-6.77505 39.98242-10.46289 26.51284-7.44541 52.02556-15.143 78.04883-20.06054 65.47035-12.50467 137.82197-7.05458 201.5 15.48828v-4.27735c-49.53557-22.17647-107.30537-34.24929-165.83203-33.85946z" fill="#ffc080" opacity=".666"/></g></svg>