<svg height="500.00003" viewBox="0 0 500 500.00003" width="500" xmlns="http://www.w3.org/2000/svg"><g transform="translate(-500)"><path d="m926.7767 73.223311c45.24113 45.241099 73.2233 107.741109 73.2233 176.776699 0 69.0356-27.98221 131.53559-73.2233 176.77669-45.2411 45.2411-107.74109 73.22332-176.77669 73.22332-69.03559 0-131.5356-27.98219-176.7767-73.22332-45.2411-45.2411-73.22331-107.74109-73.22331-176.77669 0-69.03559 27.9822-131.5356 73.22331-176.776699 45.2411-45.241105 107.74111-73.22330934 176.7767-73.22330934 69.0356 0 131.53559 27.98220534 176.77669 73.22330934z" fill="#3b2f4f"/><g transform="translate(500)"><path d="m230.6486 0c-128.19182 22.346591-234.17086 139.43202-223.06447 273.24395 5.6201 44.55936 16.72649 83.63245 44.55937 122.70552l50.17947 50.17947c33.45298 22.34661 72.52606 44.55938 111.46533 50.17946 39.07308 5.62012 78.01235 5.62012 111.46534-5.62008 39.07308-16.72649 72.52607-33.45297 100.35893-61.28587 33.45297-39.07306 55.79958-83.63245 66.90595-139.43201v-61.28587c-5.62008-27.83287-11.10637-50.17947-22.34657-78.01235-11.10641-22.34659-27.8329-44.55937-50.17947-61.285858-27.83289-27.832879-61.28586-44.559368-100.35895-55.799569-27.83288-5.620101-55.79957-11.10639-89.25255-5.620101-78.01235 11.106391-139.43202 61.28586-172.885 128.191818-11.10639 27.83288-16.72649 61.28586-22.34659 89.25255 0 33.45298 5.6201 66.90596 16.72649 94.73885 22.34659 44.55936 55.79957 89.25254 105.97904 111.46532 16.72649 5.62012 33.45298 11.1064 55.79957 16.72648 122.70553 22.34661 234.17085-55.79954 250.89734-178.37127 11.10641-78.01236-22.34657-139.43203-72.52604-189.6115-100.35895-89.25255-267.62385-44.559369-312.18322 78.01235-5.6201 27.83288-16.72649 55.79958-16.72649 83.63245 5.6201 78.01235 55.79957 150.53843 133.81192 172.885 61.28586 16.72649 122.70553 5.62012 172.885-33.45298 11.10639-11.10637 22.34659-22.34657 33.45299-33.45297 61.28584-83.63246 44.55935-195.09778-44.55937-256.51746-27.83288-16.726488-55.79958-22.346588-89.25256-27.832879-22.34659-5.620101-44.55937 5.620101-66.90596 11.106391-27.83288 16.726488-50.17947 22.346588-72.52606 50.179468-27.83288 33.45298-33.45298 66.90596-39.07308 105.97904 0 55.79958 27.83288 117.08544 83.63245 144.91833 78.01235 44.55934 183.99139 11.10637 223.06447-72.52607 22.3466-55.79958 11.1064-128.19183-39.07308-172.88501-33.45298-27.83288-66.90596-39.07308-111.46533-39.07308-66.90596 5.6201-111.46533 55.79957-122.70553 122.70553-11.10639 72.52606 33.45298 139.43202 105.97904 150.53843 100.35894 16.72649 183.99138-89.25257 139.43202-178.37131-11.10638-16.72649-27.83288-39.07308-50.17947-50.17947-27.83288-11.10639-55.79957-16.72649-83.63245-11.10639-33.45298 5.6201-55.79957 27.83288-72.52606 50.17947-16.72649 27.83288-16.72649 55.79957-11.10639 83.63245 11.10639 33.45298 39.07308 61.28586 72.52606 72.52607 44.55937 16.72649 89.25255-5.62011 111.46533-39.07309 33.45298-55.79957 5.6201-117.08543-50.17947-139.43202-50.17947-16.72649-122.70553 27.83288-105.97904 89.25255 5.6201 16.72649 11.10639 39.07309 27.83288 50.17947 22.34659 16.7265 50.17947 16.7265 72.52606 11.1064 22.34659-11.1064 39.07308-33.45299 39.07308-61.28587-5.6201-16.72649-5.6201-39.07308-22.34659-50.17947-13.91644-8.36324-29.2379-11.13984-43.17107-8.34651-13.93317 2.79332-26.47803 11.15656-34.84128 25.073-5.6201 16.72649-11.10639 33.45298 9.50065 44.827 41.74932-49.10898 35.32635.40143 29.84006-16.45887v5.6201c16.72649-5.6201 22.34659-22.34659 27.83288-33.45298 5.6201 5.6201 16.72649 11.10639 16.72649 22.34659 11.10639 39.07308-27.83288 72.52606-66.90596 61.28586-33.45298-11.10639-44.55937-50.17947-39.07309-83.63245 5.62011-22.34659 22.3466-39.07308 50.17948-44.55937 33.45298-5.6201 66.90596 11.10639 83.63245 39.07308 16.72649 27.83288 16.72649 50.17947 0 78.01235-33.45298 55.79958-105.97905 55.79958-150.53841 11.10639-33.45298-44.55937-22.3466-117.08543 27.83288-144.91831 16.72648-11.10639 39.07308-16.72649 61.28586-16.72649 11.10638 0 27.83288 5.6201 39.07308 11.10639 27.83288 11.10639 39.07308 39.07308 55.79957 61.28586 5.6201 16.72649 5.6201 27.83288 5.6201 44.55937-5.6201 72.52606-72.52606 122.70554-144.91831 105.97904-83.63246-22.34659-122.70554-122.70553-72.52606-195.09778 11.10638-16.72649 22.34659-27.83288 39.07308-39.07308 78.01235-44.559372 167.2649-5.6201 200.71788 66.90596 39.07309 94.73884-39.07308 206.33797-139.43202 200.71788-27.83288-5.62012-55.79958-5.62012-78.01235-22.3466-22.34659-11.10638-27.83288-27.83287-39.07309-39.07307-66.90596-78.01235-33.45298-195.09778 55.79958-239.79097 39.07308-16.726484 83.63245-16.726484 128.19182-5.6201 94.73883 33.45298 139.43201 144.91832 94.73883 234.17087-11.10637 27.83288-33.45297 44.55935-55.79956 66.90596-22.34659 16.72649-50.17947 27.83289-78.01235 33.45298-44.55937 5.62012-89.25256-5.62009-128.19182-27.83286-94.73884-66.90598-117.08544-211.82429-22.3466-289.97045 16.7265-11.1064 27.83288-33.452984 50.17948-39.073085 33.45298-11.106392 66.90596-22.346593 105.97904-16.726492 27.83288 5.6201 55.79957 16.726492 78.01235 27.832879 16.72649 16.726488 39.07309 22.346598 50.17946 44.559368 11.10641 16.72649 27.8329 33.45298 33.45298 55.79957 22.34661 66.90596 16.72649 139.43203-27.83286 195.09781-16.72649 22.34657-33.45298 44.55934-61.28587 55.79954-22.34659 5.62012-39.07308 22.34661-61.28586 22.34661-39.07308 0-83.63245 5.62008-122.70553-11.10641-117.08543-44.55934-167.26491-195.09777-105.97905-306.69691 16.7265-33.45298 44.55937-61.285864 78.01236-83.632457 44.55936-22.34659 89.25255-33.452979 139.43202-27.832879 61.28586 5.6201 111.46532 39.07308 156.1585 83.632456 22.34661 22.34659 27.8329 50.17947 39.0731 78.01234 11.10637 16.7265 5.62008 39.07309 11.10637 61.28586 11.10645 172.88502-195.09777 301.07685-351.25629 211.82429-27.83287-16.72649-50.17946-27.8329-66.90596-50.17947-61.28586-72.52608-78.01235-167.26492-50.17947-256.51747 16.72649-33.45298 39.07309-61.28586 61.28587-89.252546 39.07308-39.073083 94.73884-55.799574 144.9183-72.526064" fill="#221b35" opacity=".9"/><path d="m231.45148 15.388371c-120.56454 21.008472-220.12061 131.001869-209.68329 256.785079 5.21867 41.88313 15.78981 78.68141 41.88314 115.34586 15.7898 15.65602 31.4458 31.44582 47.23561 47.1018 31.4458 21.0085 68.11026 41.88314 104.77473 47.23563 36.66447 5.21866 73.32893 5.21866 104.77473-5.21866 36.66447-15.65601 68.11026-31.44582 94.33742-57.67295 31.44579-36.66448 52.45425-78.68141 62.89161-131.00187v-57.67294c-5.2187-26.22714-10.43736-47.23561-21.00851-73.32894-10.43731-21.00847-26.22712-41.88313-47.10179-57.672935-26.22713-26.227136-57.67292-41.88313-94.33739-52.454272-26.22714-5.218666-52.45427-10.43733-83.90008-5.218666-73.32893 10.437332-131.00187 57.672938-162.44767 120.564543-10.43733 26.22713-15.78981 57.67294-21.00847 83.90008 0 31.44579 5.21866 62.8916 15.78981 89.11874 21.00847 41.88313 52.45427 83.90006 99.55607 104.77473 15.7898 5.21866 31.4458 10.43732 52.45427 15.65601 115.34588 21.00847 220.12062-52.45428 235.91043-167.66635 10.43732-73.32894-21.00847-131.00188-68.11026-178.23748-94.33742-83.900079-251.56643-41.883137-293.44956 73.32893-5.21867 26.22713-15.78981 52.45427-15.78981 78.68141 5.21866 73.32893 52.45427 141.573 125.78321 162.44767 57.67293 15.78981 115.34587 5.21866 162.44767-31.44578 10.43733-10.43736 21.00849-21.00849 31.4458-31.44582 57.67295-78.68141 41.88314-183.45615-41.88313-241.12909-26.22714-15.7898-52.45428-21.008465-83.90008-26.227131-21.00847-5.218666-41.88313 5.218666-62.8916 10.437331-26.22714 15.7898-47.23561 21.00847-68.11027 47.1018-26.22713 31.4458-31.4458 62.8916-36.66447 99.55606 0 52.45428 26.22714 110.12722 78.68142 136.22052 73.32893 41.88314 173.01881 10.43736 209.68327-68.11025 21.00847-52.45427 10.43736-120.56454-36.66446-162.44767-31.4458-26.22714-62.8916-36.66447-104.77473-36.66447-62.89161 5.21867-104.77474 52.45428-115.34588 115.34588-10.43733 68.11027 31.4458 131.00187 99.55607 141.57302 94.3374 15.65599 173.01881-83.90008 131.00187-167.66635-10.43733-15.7898-26.22714-36.66446-47.1018-47.2356-26.22713-10.43733-52.45427-15.656-78.68141-10.43733-31.4458 5.21866-52.45427 26.22713-68.11027 47.23561-15.7898 26.22713-15.7898 52.45427-10.43732 78.6814 10.43732 31.44581 36.66446 57.67295 68.11026 68.11027 41.88314 15.78981 83.90008-5.21866 104.77474-36.66446 31.4458-52.45428 5.21866-110.12721-47.1018-131.00187-47.23561-15.78981-115.34588 26.22713-99.55607 83.90007 5.21867 15.65599 10.43733 36.66447 26.22714 47.23561 21.00847 15.78981 47.10179 15.78981 68.11027 10.43733 21.00847-10.43733 36.66446-31.4458 36.66446-57.67294-5.21866-15.7898-5.21866-36.66447-21.00847-47.23561-13.11356-7.8949-27.5318-10.50423-40.62864-7.86145-13.09684 2.64279-24.87229 10.53769-32.70029 23.65126-5.21867 15.656-10.43733 31.4458 8.9654 42.15076 39.20689-46.70036 33.05154-.26763 27.96669-16.05744v5.21867c15.78981-5.21867 21.00847-21.00847 26.22714-31.4458 5.21866 5.21866 15.65599 10.43733 15.65599 21.00847 10.43733 36.66447-26.22714 68.11027-62.8916 57.67294-31.4458-10.43733-41.88313-47.23561-36.66447-78.68141 5.21867-21.00848 21.00847-36.66447 47.1018-41.88314 31.4458-5.21866 62.8916 10.43734 78.68141 36.66447 15.65599 26.22714 15.65599 47.23561 0 73.32893-31.4458 52.45428-99.55607 52.45428-141.57302 10.43734-31.4458-41.88313-21.00847-110.12722 26.22714-136.22054 15.78981-10.43733 36.66447-15.656 57.67294-15.656 10.43733 0 26.22714 5.21867 36.66447 10.43733 26.22713 10.43733 36.66446 36.66447 52.45427 57.67294 5.21866 15.78981 5.21866 26.22714 5.21866 41.88314-5.21866 68.11026-68.11026 115.34586-136.22053 99.55606-78.68141-21.00847-115.34588-115.34587-68.11027-183.45614 10.43733-15.656 21.00847-26.22714 36.66447-36.66447 73.32893-41.88313 157.22901-5.21866 188.67481 62.8916 36.66448 89.11874-36.66447 193.89349-131.00188 188.67483-26.22713-5.21866-52.45427-5.21866-73.32893-21.00848-21.00847-10.43734-26.22713-26.22714-36.66447-36.66447-62.8916-73.32893-31.4458-183.45615 52.45428-225.33928 36.66446-15.789805 78.68141-15.789805 120.56454-5.21866 89.11872 31.4458 131.00186 136.22053 89.11872 220.12061-10.43731 26.22714-31.44578 41.88313-52.45425 62.89162-21.00847 15.78977-47.23561 26.22712-73.32894 31.44578-41.88313 5.21866-83.90007-5.21866-120.56454-26.22712-89.11874-62.89162-110.12721-199.11215-21.00847-272.5749 15.656-10.43733 26.22714-31.445801 47.1018-36.664467 31.4458-10.437328 62.8916-21.00847 99.55607-15.655994 26.22713 5.218666 52.45427 15.655994 73.32893 26.227136 15.65599 15.789805 36.66446 21.008475 47.10181 41.883135 10.43732 15.7898 26.22713 31.4458 31.44578 52.45427 21.00847 62.8916 15.78981 131.00187-26.22712 183.45615-15.78981 21.00846-31.44582 41.88313-57.67295 52.45428-21.00847 5.21866-36.66446 21.00847-57.67294 21.00847-36.66446 0-78.68141 5.21866-115.34587-10.43735-110.12721-41.8831-157.22901-183.45614-99.55607-288.23087 15.7898-31.4458 41.88313-57.672937 73.32893-78.681407 41.88313-21.008474 83.90008-31.445802 131.00187-26.22714 57.67294 5.218666 104.77473 36.664468 146.79166 78.681417 21.00851 21.00847 26.22717 47.10179 36.66448 73.32893 10.43732 15.78981 5.21866 36.66446 10.43732 57.67293 10.43735 162.44767-183.45613 283.01222-330.24781 199.11215-26.22713-15.65601-47.23561-26.22713-62.8916-47.23563-57.67294-68.11025-73.32893-157.22899-47.23561-241.12907 15.78981-31.4458 36.66447-57.67293 57.67294-83.900069 36.66447-36.664468 89.11874-52.454275 136.22054-68.11027" opacity=".9"/></g></g><g><path d="m129.68566 225.57101c.689 3.99299-3.01608 9.24283-7.00905 9.93178-3.99289.68895-9.24254-3.0157-9.93171-7.0085-.68918-3.9929 3.01499-9.24322 7.00788-9.93242 3.99325-.68925 9.24384 3.01586 9.93288 7.00914zm123.36262.15425c.49021 2.84089-2.14572 6.57608-4.9866 7.06625-2.84088.49019-6.57605-2.14571-7.06627-4.98659-.49019-2.84088 2.14573-6.57607 4.98663-7.06626 2.84087-.49019 6.57602 2.14573 7.06624 4.9866zm-4.44758-46.08714c8.9702 4.69687 7.2425 14.64471.0198 18.58971 8.65338 12.95316-6.07137 22.0057-15.07754 14.90115-.35313 3.49094-1.88639 6.61002-4.09555 9.21029 5.186 8.66983 3.42099 18.40434-1.32689 25.06444-7.42167 10.41278-17.13005 9.16533-27.91873 6.47276-1.92377 4.52596-4.95871 8.65736-8.65931 11.90377 4.7574.52436 9.0875 2.98998 11.88288 6.77384 5.32832-7.78286 16.58819-5.4383 18.74719 1.38703 3.39202 10.71631-9.43005 18.6058-15.74671 12.28477-1.24448 5.80276-5.6227 10.45971-11.42807 12.38165 12.08726 6.4783 13.97063 22.67422 6.48066 34.51495-8.03703 12.70342-21.27943 12.57989-32.07906 7.10547-.19966 4.83689-1.76767 9.21561-4.01263 13.31327 11.72551 9.99448 2.87012 21.36887-3.6103 28.35247-5.1391 5.5382-15.19365 7.3412-22.2078 4.53338-9.08293-3.63595-15.03926-16.48228-16.76331-24.09283-7.7127 5.71994-20.91644 8.88459-31.6503 7.40682-10.368299-1.42742-21.415132-6.63546-27.50168-15.14978-3.67624-5.14248-3.282743-18.67784-3.282743-18.67784-9.15714 4.04423-24.504859 8.40801-30.40711.16793-6.854816-9.56998-7.230436-29.79342 11.549684-33.37309-5.633978-24.94825 17.04809-45.15176 36.858258-40.40858.682022-21.12414 38.078411-25.46198 47.039211-10.64953l12.38191-6.86113c-1.934-17.06182 9.77487-32.89978 26.9137-35.85778 11.10958-1.9174 21.86105 2.22368 29.1231 9.7869l5.78907-4.77844c-1.41239-9.18452 4.79208-17.85013 13.9896-19.43752 6.04602-1.04348 11.66462 1.24239 15.461 5.51433l4.40231-5.48394c-4.54226-7.36746.23165-15.40016 6.89075-16.77945 2.60593-.53931 5.49824-.0479 8.23865 1.88498zm-44.51692 183.62385c.88318 5.11723-3.85564 11.8504-8.97256 12.7353-5.12031.88596-11.85534-3.8674-12.73698-8.98845-.88309-5.11662 3.87391-11.8389 8.99085-12.72012 5.11328-.88027 11.8342 3.86072 12.71869 8.97327z" fill="#775fa0" opacity=".5"/><g stroke-width="1.81089" transform="matrix(-.43692922649 .34184228418 .34144885829 .43077066796 369.82272622822 -51.4440938036)"><g><path d="m188.77344 124.4082c-23.09927-.0401-48.1391 1.86806-68.79688 5.43555-21.195529 3.66036-46.330485 13.26078-67.541013 21.94922-17.117069 7.01164-28.851942 12.41218-33.697266 14.66601l-336.497851 1.95102c-11.31547.0668-20.44804 9.26833-20.42968 20.58399l.27734 162.87304c.0212 11.27084 9.11622 20.42164 20.38672 20.51172l321.9255806-.68341c11.7600804 28.24245 35.6544194 45.54783 57.9003904 54.5625 24.945558 10.10862 60.714419 16.56297 82.775389 17.33203 12.46098.43441 29.41804-1.61092 48.46485-6.44336 19.0468-4.83243 39.3987-12.07126 55.53515-25.99218 27.72661-23.91976 33.05667-58.60537 40.95117-82.45703 9.72786-29.39076 27.79137-65.7312 19.66993-106.50977-3.71532-18.65495-12.55356-36.82689-23.23047-52.65234-10.67692-15.82545-22.06515-29.30538-38.24414-36.82813-17.12499-7.96261-36.34996-8.25872-59.44922-8.29883z"/><path d="m239.55806 151.34097c-18.87502-8.77632-77.95216-7.83289-116.08492-1.24757-35.070793 6.05654-100.195081 36.88804-100.195081 36.88804l-340.919329 1.97808.278 162.87153 329.755329-.62208c3.92462.0315 7.37625 2.60267 8.53 6.354 7.957 25.855 28.5505 41.324 49.097 49.65s58.016761 15.222 75.773001 15.841 66.14528-6.99887 89.86043-27.45794c20.49954-17.68496 26.36032-47.65391 34.86742-73.35641 10.25448-30.98184 25.39899-64.03193 19.02465-96.03812-5.8607-29.42716-31.11148-66.08421-49.9865-74.86053z" fill="#775fa0"/></g><g><path d="m167.67969 353.04687c-19.41128-.20279-37.40185 13.63196-43.21972 31.9835-3.92909 13.49902-5.68279 28.61998-.65156 42.05527 16.26517 26.10823 71.25947 38.46991 96.46767 42.3319 17.49137 2.56376 36.35111-.0604 50.69734-11.06562 18.983-15.44833 35.59613-47.40644 16.73915-65.95858-14.29392-9.44522-31.65076-12.03907-47.77111-16.94232-27.13189-4.4954-47.37997-22.64786-72.26177-22.40415z"/><path d="m164.70406 373.80397c-11.12196.98429-19.24466 11.0843-21.59697 20.70831-2.14528 9.31198-3.37441 23.2531 2.68497 28.54169s29.44075 13.4145 44.79387 18.104c15.35313 4.6895 35.00816 9.5374 48.27013 8.306s23.15635-8.40033 30.187-17.71c4.65862-6.16874 7.68681-17.45234 5.814-22.45s-35.86365-12.15893-53.8835-17.97c-18.69746-6.02959-43.56217-18.97386-56.2695-17.53z" fill="#775fa0"/></g><g><path d="m188.34375 289.5625c-12.32205-.041-21.70066 10.93491-25.62199 21.70243-3.89413 10.34676-7.89733 20.79979-9.99645 31.66621-2.5649 16.74076 9.01194 31.95403 22.68839 40.18643 28.6882 15.27956 93.71314 36.38644 120.49755 27.13936 21.51249-7.13589 33.63938-29.77515 39.34606-50.40684 2.891-10.452-.28459-22.1025-3.90945-32.39367-4.68702-9.6924-13.1232-19.38827-24.62774-19.92771-39.06776-3.01096-83.34144-19.2821-118.37637-17.96621z"/><path d="m187.03306 310.98397c-4.65651 4.10723-9.032 17.62-11.183 25.1-2.734 9.505-6.56289 16.11004 5.14 25.7s31.7435 16.08825 48.93262 20.67287c17.18913 4.58463 41.54359 11.76016 53.50538 9.79113s24.67907-13.90312 29.422-26.133c4.28206-11.04149 1.02462-30.06629-3.71-35.334s-39.34783-8.20181-59.17777-11.425c-20.88943-3.3954-58.27272-12.47923-62.92923-8.372z" fill="#775fa0"/></g><g><path d="m324.83789 218.30469c-22.71259.80457-44.99703 6.19582-67.75551 6.51342-19.24922 1.28994-39.77234-2.8949-57.76348 4.06922-8.01656 3.1031-15.62011 8.72189-20.27243 15.99701-8.54391 13.36063-14.25359 30.73483-11.23395 46.40772 1.68593 8.75052 8.02151 16.94496 15.46043 21.7795 20.65298 13.42233 48.01733 10.25275 72.18395 14.34074 20.46848 2.74658 40.96646 6.37662 61.66183 6.46805 10.78777.0314 19.33305-7.93779 25.45525-15.884 11.72991-15.22465 17.37746-35.9075 17.24579-55.2527-.0809-11.87983-3.0995-25.10998-11.0524-33.91894-5.86475-6.49604-14.92696-11.2101-23.92948-10.52002z"/><path d="m202.56252 249.41773c-2.59481 2.22381-6.44665 6.46605-8.58961 10.42643-2.90841 5.37498-5.02049 11.40477-5.4683 17.49974-.39342 5.35461-.70497 11.94359 2.50545 15.91107s42.81045 10.0159 64.51343 13.37938c20.5021 3.17737 59.17488 8.20809 61.91057 6.40062 10.864-8.28 18.62-17.718 21.59-28.792 3.073-11.467-1.92752-40.34394-8.65-44.055s-36.96807 2.81496-55.457 4.156c-24.11406 1.74904-69.75973 2.84995-72.35454 5.07376z" fill="#775fa0"/></g><g><path d="m292.64648 132.71875-110.59961 10.03125c-11.30237 1.02484-19.63402 11.01792-18.60937 22.32031l18.33006 67.43164c.34748 11.34335 9.82461 20.25735 21.16797 19.91016 74.70906-4.5567 147.2771-10.91546 216.82812-18.68164 23.27513-2.87008 61.45362-7.37529 74.66892-24.7904 8.83503-12.26959 11.41498-30.04962 7.95022-44.87757-12.40041-34.57984-32.14519-41.88255-66.708-44.13281-20.42616-.0526-95.35221 8.52604-143.02831 12.78906z"/><path d="m202.30634 231.87266c29.8551-.91333 86.28269-5.14144 129.16764-10.28339 49.25044-5.90518 131.02589-8.30153 146.92737-23.59314 6.02829-7.8553 6.45637-19.40141 4.07579-28.83127-2.33062-9.23194-8.91275-17.90002-16.9162-22.97553-8.62723-5.47109-26.42845-5.45269-29.96889-5.80275-3.54044-.35007-141.09023 12.79651-141.09023 12.79651l-110.59868 10.03101" fill="#775fa0"/></g><g><path d="m176.23428 221.94514 11.01572 27.66228c8.262 17.54268 41.91821 20.09034 56.25781 16.04883 15.42898-5.97093 39.31234-17.56754 37.51367-35.64063-6.77334-27.32998-11.29797-69.39801-24.13476-89.71875-15.45887-24.25602-39.46634-40.373039-68.792-45.147457-33.96838-4.067444-76.511 3.165569-102.84472 15.137697-26.652362 12.42685-55.916444 38.34526-68.178922 56.18152 0 0 100.378562 79.39124 110.485442 75.46704-9.25852 7.20571-36.109686 27.653-35.395461 47.4008.247799 6.85146 4.56564 23.02604 13.243151 15.71223 0 0 23.44992-19.72037 31.91211-26.32717 15.31509-11.95897 30.36283-30.63026 38.91796-56.77639z"/><path d="m92.161059 289.33647s23.033001-19.4135 32.510001-26.8115c18.955-14.8 37.084-39.063 38.16-83.08.23589-9.79525 13.73832-12.21418 17.36-3.11l26.15 65.67c13.382 6.284 22.786 6.51 31.265 3.968 7.728-2.317 15.188-7.56 23.012-13.512-3.2-26.703-10.97-53.765-21.06-81.12-12.893-20.23-30.257-31.92-54.5-35.87-31.18687-4.23987-63.80121 2.58608-92.900001 14.168-20.60954 8.20302-38.843258 22.40626-54.744092 37.94336-5.713174 5.58248-14.135908 19.39911-14.135908 19.39911z" fill="#775fa0"/></g></g><path d="m107.72578 435.20728-27.067606-16.75731-.261073 29.39731c-.113816.0411-.227633.0804-.340807.12088l-22.084784-20.23608-2.773385 26.26447-.180043.0193c-.0064.001-.01413 0-.02055 0l-18.466484-24.77782-11.433032 20.19493c-1.890502-4.842-6.455997-16.85054-11.775766-33.85927-2.835758-9.07119-5.6457837-19.02076-7.9574698-28.85588h.1813272c11.2722786 0 20.4161346-9.12648 20.4161346-20.39684 0-11.26906-9.143856-20.41613-20.4161346-20.41613-1.9277948 0-3.7790662.28486-5.54610704.78449 1.36771434-34.22194 29.56191864-62.39042 66.01002264-64.80434 22.65174.42615 41.023687 6.13529 56.587727 20.45535 12.97632 13.53336 20.11876 29.62051 20.23418 46.9629 0 9.15157-4.79571 19.79883-11.97642 29.69953-5.86441 8.08414-13.19236 15.59471-20.03546 21.58194-1.4854-10.14891-1.38123-20.58654-4.24977-33.38794-12.667009 24.69228-6.06825 47.17124 1.15552 68.01049zm-63.497061-79.57534c0 13.01039 10.53922 23.55154 23.550892 23.55154 13.011668 0 23.570821-10.54115 23.570821-23.5509 0-13.00845-10.55851-23.57018-23.5705-23.57083-13.011993-.00064-23.551213 10.5611-23.551213 23.57019zm-8.720746 17.48264-7.51507 40.4696 26.886925-2.85312-19.371213-37.61712z" fill="#775fa0"/></g></svg>