<svg height="500" viewBox="0 0 500 500" width="500" xmlns="http://www.w3.org/2000/svg"><g transform="translate(.000015)"><circle cx="249.99998" cy="250" fill="#e51a1a" r="250"/><path d="m181.33938 83.856939c97.52275-31.84694 203.27597 26.159281 217.12696 131.568651 10.04116 85.89723-45.79566 162.6049-131.11288 174.6444-76.26503 6.65-147.16573-45.4981-149.44603-126.3231.16679-50.89801 30.03241-87.97493 76.60677-108.40662 44.00125-16.48183 90.46555-3.00917 112.28155 39.63622 17.95322 40.0953 3.57775 87.31302-40.4313 103.80676-21.98685 8.23292-51.6578-5.55285-56.72562-31.5612 24.48155 21.7253 69.7211 11.74379 80.1808-21.06198 5.24648-24.88185-11.48198-41.52298-24.36368-55.64156-23.21161-15.22125-63.26956-13.16738-85.32502 12.05139-41.51846 46.43224-18.48961 112.52397 35.72777 131.08081 60.66482 17.11352 118.96473-29.63961 126.96137-92.39988 2.7637-54.83226-40.99398-106.19486-96.51046-114.27807-76.21988-10.3001-138.45939 50.84936-147.743191 124.09106-9.31956 73.21828 47.315731 138.67973 111.863041 158.33924 49.05305 9.49897 98.18701 2.07129 139.64056-27.40671 82.90715-58.95602 100.11901-177.97214 43.55644-260.39974-52.71171-79.885311-158.575-103.987181-249.15842-67.061741-86.705021 39.45169-149.0660905 134.549061-117.102931 229.167621 15.77888-74.65377 50.93986-153.5943 123.407351-187.514491 9.28724-4.60517 19.44718-8.7232 30.56692-12.33106zm-160.722321 286.075591c-52.57825-113.8254-.38403-260.89182 113.777041-317.643861 10.84604-5.32012 22.21219-9.7712 34.03518-13.36069 115.76394-28.75816 246.03978 34.00351 263.68455 158.897471 10.04526 85.91695-27.72044 168.80365-107.97396 206.83173-102.24035 46.26108-224.798841-11.43986-234.690511-131.24969-7.33455-123.78718 127.307171-194.136761 222.718561-137.24102-42.54074-27.89653-94.21826-33.44528-140.80825-12.98978-71.17376 32.62266-105.080851 118.0397-80.762351 190.63139 30.697281 88.13423 123.572931 132.04164 212.817841 105.59803 82.80488-25.06359 132.16266-100.33164 140.19255-180.04986 12.12434-145.020371-132.23823-245.3588802-265.59709-221.973611 7.92036-4.10499 20.5989-8.4277792 35.61563-11.7452592 60.06317-13.23825 124.63426-3.45807 179.45368 32.4903392 109.65077 71.904621 141.09454 217.803071 65.16008 333.599141-143.00482 218.07486-377.311781 117.06797-437.622951-1.79433" fill="#b21a1a"/></g><g><path d="m175.49609 11.644531a250 250 0 0 0 -175.49609 238.355469 250 250 0 0 0 .63476562 8.88086c-2.43848922 37.76415 3.78426248 75.98378 19.98242238 111.05078 17.917226 35.31158 51.261751 68.9321 92.939452 93.1582 29.23166-19.67006 60.6021-27.174 83.10938-26.375 14.65295.52018 24.84566 5.16983 27.50781 7.74414 3.59804 7.57601-18.84486 36.26324-23.13672 43.14063 25.72987-5.71155 57.05548-8.5361 77.65039-22.52149 12.71538-10.16241 19.74168-22.17785 20.55273-34.76757 7.88267 11.13308 7.99136 21.04178 6.5625 31.75586-1.87379 14.05036-19.21875 37.93359-19.21875 37.93359l42.94141-14.11523c22.79523-12.1308 42.47234-25.18118 39.31055-51.50977l26.30468 26.00391s5.33369-35.54256 2.97657-53.11914c-2.86844-21.38934-8.31043-39.93784-20.52539-61.40235 47.55811 8.82373 80.41991 24.96488 122.4082 45.93946l-14.71484-41.98438c-15.92519-45.1554-52.00045-79.86648-94.01172-109.52539 44.16146 7.59183 67.02605 28.22092 102.86718 53.5957l-19.33593-53.82226c-10.6318-29.59371-32.17384-61.55523-63.02149-86.86524 27.97769 3.64865 53.83752 10.80984 81.99805 17.51563l-32.40234-40.77344c-23.67871-29.79661-61.49746-48.590288-105.97071-57.707031-11.21979-8.621835-33.06319-27.427743-52.73047-35.123047-41.28088-16.152153-80.22233-23.212052-127.18164-25.462891z" fill="#861313"/><path d="m137.375 28.726562c-.84899-.003521-1.67984.034543-2.52734.035157a250 250 0 0 0 -74.425785 58.380859c63.570005-30.107964 138.196795-46.464135 248.953125-25.505859-41.86925-20.981847-108.88841-32.649196-172-32.910157zm151.41992 54.820313c-75.18632.340173-155.57089 27.168675-199.808592 85.402345 73.333162-44.04168 193.992892-60.82455 238.484372 17.03125-45.12054-7.49351-80.50459-6.13946-123.21679 9.64844 30.91555 2.94783 61.64012 5.5796 92.55664 23.27343-46.98343-2.51047-108.49913-.37871-148.64258 18.88868 55.81561 9.77947 117.59714 40.29071 161.36914 76.42773-83.42833-12.23845-185.95789-7.58116-273.927735 36.36914 143.450005-18.24005 277.430785 3.3184 342.402345 67.54688.80505-38.87688-16.04061-73.89484-44.09766-96.86719 39.44536 3.30453 95.75326 15.23084 134.39453 34.5332-19.44752-55.14294-76.33264-96.72948-137.42773-132.92773 39.12839-9.78142 94.95849.59947 126.98437 23.27343-16.09121-44.79004-62.91696-99.25551-130.95898-116.36328 45.49778.34503 88.32774 3.71809 120.38086 11.35157-29.85188-37.56478-92.14971-57.886275-158.49219-57.587895zm-137.91992 4.802734c-38.02785.853502-88.03931 21.640011-120.757812 44.015621a250 250 0 0 0 -30.117188 117.63477 250 250 0 0 0 .63476562 8.88086c-1.64412302 25.46204.75524488 51.10869 7.38867188 75.87891.2357464-.15405.4560965-.24812.6933594-.40821 50.2220881-33.23 102.8244831-45.33817 195.5351531-53.57812-37.81776-15.59157-106.531252-22.49419-157.291012-17.59571 42.288294-39.84879 93.371922-72.67117 170.917972-97.0664-58.14228-3.55238-138.910463 21.36573-193.062504 60.73828 28.826122-59.38441 72.96828-117.80342 126.058594-138.500001zm-30.30859 282.154301c-36.81092-.01753-72.180576 3.26223-94.474613 9.15234 15.959572 26.9479 40.590763 52.48476 70.861328 73.04687 75.513695-56.04161 169.329585-35.65244 141.369145 9.1504 51.14672-10.14492 59.23934-43.96989 12.49023-70.38477-25.22771-14.5594-79.09741-20.94151-130.24609-20.96484zm160.98828 17.10547c23.31913 20.11391 55.95707 47.72626 40.67187 81.82031 58.15783-25.79773 22.19081-61.93965-40.67187-81.82031z" fill="#ff8066" stroke-linecap="round" stroke-linejoin="round" stroke-width="36"/></g></svg>