<svg height="500" viewBox="0 0 500 500" width="500" xmlns="http://www.w3.org/2000/svg" xmlns:xlink="http://www.w3.org/1999/xlink"><filter id="a" color-interpolation-filters="sRGB" height="1.033682" width="1.034296" x="-.017148" y="-.016841"><feGaussianBlur stdDeviation="2.7105592"/></filter><filter id="b" color-interpolation-filters="sRGB" height="1.036046" width="1.03675" x="-.018375" y="-.018023"><feGaussianBlur stdDeviation="2.7105592"/></filter><filter id="c" color-interpolation-filters="sRGB" height="1.175672" width="1.215987" x="-.107993" y="-.087836"><feGaussianBlur stdDeviation="2.7105592"/></filter><g transform="translate(.000015)"><circle cx="249.99998" cy="250" fill="#e51a1a" r="250"/><path d="m181.33938 83.856939c97.52275-31.84694 203.27597 26.159281 217.12696 131.568651 10.04116 85.89723-45.79566 162.6049-131.11288 174.6444-76.26503 6.65-147.16573-45.4981-149.44603-126.3231.16679-50.89801 30.03241-87.97493 76.60677-108.40662 44.00125-16.48183 90.46555-3.00917 112.28155 39.63622 17.95322 40.0953 3.57775 87.31302-40.4313 103.80676-21.98685 8.23292-51.6578-5.55285-56.72562-31.5612 24.48155 21.7253 69.7211 11.74379 80.1808-21.06198 5.24648-24.88185-11.48198-41.52298-24.36368-55.64156-23.21161-15.22125-63.26956-13.16738-85.32502 12.05139-41.51846 46.43224-18.48961 112.52397 35.72777 131.08081 60.66482 17.11352 118.96473-29.63961 126.96137-92.39988 2.7637-54.83226-40.99398-106.19486-96.51046-114.27807-76.21988-10.3001-138.45939 50.84936-147.743191 124.09106-9.31956 73.21828 47.315731 138.67973 111.863041 158.33924 49.05305 9.49897 98.18701 2.07129 139.64056-27.40671 82.90715-58.95602 100.11901-177.97214 43.55644-260.39974-52.71171-79.885311-158.575-103.987181-249.15842-67.061741-86.705021 39.45169-149.0660905 134.549061-117.102931 229.167621 15.77888-74.65377 50.93986-153.5943 123.407351-187.514491 9.28724-4.60517 19.44718-8.7232 30.56692-12.33106zm-160.722321 286.075591c-52.57825-113.8254-.38403-260.89182 113.777041-317.643861 10.84604-5.32012 22.21219-9.7712 34.03518-13.36069 115.76394-28.75816 246.03978 34.00351 263.68455 158.897471 10.04526 85.91695-27.72044 168.80365-107.97396 206.83173-102.24035 46.26108-224.798841-11.43986-234.690511-131.24969-7.33455-123.78718 127.307171-194.136761 222.718561-137.24102-42.54074-27.89653-94.21826-33.44528-140.80825-12.98978-71.17376 32.62266-105.080851 118.0397-80.762351 190.63139 30.697281 88.13423 123.572931 132.04164 212.817841 105.59803 82.80488-25.06359 132.16266-100.33164 140.19255-180.04986 12.12434-145.020371-132.23823-245.3588802-265.59709-221.973611 7.92036-4.10499 20.5989-8.4277792 35.61563-11.7452592 60.06317-13.23825 124.63426-3.45807 179.45368 32.4903392 109.65077 71.904621 141.09454 217.803071 65.16008 333.599141-143.00482 218.07486-377.311781 117.06797-437.622951-1.79433" fill="#b21a1a"/></g><g><path d="m131.61914 51.242241a16.0016 16.0016 0 0 0 -11.31445 4.685547l-55.300784 55.300782a16.0016 16.0016 0 0 0 -4.685547 11.31445v298.97656a16.0016 16.0016 0 0 0 16 16h347.363281a16.0016 16.0016 0 0 0 16-16v-298.97656a16.0016 16.0016 0 0 0 -4.68555-11.31445l-55.30078-55.300782a16.0016 16.0016 0 0 0 -11.31445-4.685547h-228.98438zm31.55469 47.552735h7.74804v7.748044h-7.74804zm55.30078 0h7.74805v7.748044h-7.74805zm55.30273 0h7.74805v7.748044h-7.74805zm55.30078 0h7.74805v7.748044h-7.74805zm-221.20703 86.410154h7.74805v7.74804h-7.74805zm55.30274 0h7.74804v7.74804h-7.74804zm55.30078 0h7.74805v7.74804h-7.74805zm55.30273 0h7.74805v7.74804h-7.74805zm55.30078 0h7.74805v7.74804h-7.74805zm55.30274 0h7.74805v7.74804h-7.74805zm-276.50977 55.30078h7.74805v7.74805h-7.74805zm55.30274 0h7.74804v7.74805h-7.74804zm55.30078 0h7.74805v7.74805h-7.74805zm72.49609 0h28.66016l-13.31641 23.30273h-2.02734zm93.41016 0h7.74805v7.74805h-7.74805zm-276.50977 55.30273h7.74805v7.74805h-7.74805zm55.30274 0h7.74804v7.74805h-7.74804zm55.30078 0h7.74805v7.74805h-7.74805zm165.90625 0h7.74805v7.74805h-7.74805zm-81.53516 1.73047a16.0016 16.0016 0 0 0 -1.09765 1.51758c.24897-.58358.60319-1.11721 1.09765-1.51758zm-194.97461 53.57031h7.74805v7.74805h-7.74805zm55.30274 0h7.74804v7.74805h-7.74804zm55.30078 0h7.74805v7.74805h-7.74805zm165.90625 0h7.74805v7.74805h-7.74805zm-79.51953 12.09766h1.02344l14.47265 26.75781h-30.04492z" fill="#861313" filter="url(#a)" opacity=".667"/><path d="m131.61914 63.908257c-.88422-.000002-1.73222.351283-2.35742.976563l-55.300782 55.30078c-.62528.6252-.976565 1.4732-.976563 2.35742v298.97656c-.000181 1.84138 1.492602 3.33417 3.333984 3.33399h347.363281c1.84138.00017 3.33416-1.49261 3.33398-3.33399v-298.97656c0-.88422-.35128-1.73222-.97656-2.35742l-55.30078-55.30078c-.6252-.62528-1.4732-.976565-2.35742-.976563zm18.88867 22.220703h33.08008v33.08007h-33.08008zm55.30078 0h33.08008v33.08007h-33.08008zm55.30274 0h33.08008v33.08007h-33.08008zm55.30078 0h33.08008v33.08007h-33.08008zm-188.12695 11.039063v22.041007h-22.04102zm243.42968 0 22.04102 22.041007h-22.04102zm-276.509762 44.263667h33.080082v8.88477h-33.080082zm55.302732 0h33.08008v8.88477h-33.08008zm55.30078 0h33.08008v8.88477h-33.08008zm55.30274 0h33.08008v8.88477h-33.08008zm55.30078 0h33.08008v8.88477h-33.08008zm55.30273 0h33.08008v8.88477h-33.08008zm-276.509762 31.10742h33.080082v33.08008h-33.080082zm55.302732 0h33.08008v33.08008h-33.08008zm55.30078 0h33.08008v33.08008h-33.08008zm55.30274 0h33.08008v33.08008h-33.08008zm55.30078 0h33.08008v33.08008h-33.08008zm55.30273 0h33.08008v33.08008h-33.08008zm-276.509762 55.30078h33.080082v33.08008h-33.080082zm55.302732 0h33.08008v33.08008h-33.08008zm55.30078 0h33.08008v33.08008h-33.08008zm63.33789 0h72.31055l-27.79883 48.63477h-16.71875zm102.56836 0h33.08008v33.08008h-33.08008zm-110.60351 30.72657 14.07031 24.62109v60.63086l-14.07031 24.62695zm88.38086 0v109.8789l-14.07031-24.625v-60.63281zm-254.287112 24.57617h33.080082v33.08008h-33.080082zm55.302732 0h33.08008v33.08008h-33.08008zm55.30078 0h33.08008v33.08008h-33.08008zm165.90625 0h33.08008v33.08008h-33.08008zm-66.41406 8.67773c4.87887 0 8.76261 3.88314 8.76367 8.76172-.001 2.64361-1.19206 5.13797-3.24804 6.80274-.93268.75574-1.387 1.9546-1.18946 3.13867l3.83789 23.01758h-16.32617l3.83789-23.01954c.19755-1.18406-.25678-2.38291-1.18945-3.13867-2.05302-1.66234-3.24396-4.15687-3.24805-6.80078.002-4.88029 3.88352-8.76172 8.76172-8.76172zm-210.095702 46.62305h33.080082v33.08008h-33.080082zm55.302732 0h33.08008v33.08008h-33.08008zm55.30078 0h33.08008v33.08008h-33.08008zm165.90625 0h33.08008v33.08008h-33.08008zm-74.51562 12.09766h16.20312l28.28125 52.08984h-72.76367zm-201.994142 43.20507h33.080082v8.88477h-33.080082zm55.302732 0h33.08008v8.88477h-33.08008zm55.30078 0h33.08008v8.88477h-33.08008zm165.90625 0h33.08008v8.88477h-33.08008z" fill="#861313" filter="url(#b)"/><path d="m131.61914 67.242242-55.300781 55.300778v298.97656h347.363281v-298.97656l-55.30078-55.300778h-228.98438zm15.55469 15.552734h39.74805v39.748044h-39.74805zm55.30078 0h39.74805v39.748044h-39.74805zm55.30273 0h39.74805v39.748044h-39.74805zm55.30078 0h39.74805v39.748044h-39.74805zm-181.45898 6.324219v33.423825h-33.423828zm236.76172 0 33.42383 33.423825h-33.42383zm-276.509766 48.978515h39.748046v15.55273h-39.748046zm55.302736 0h39.74805v15.55273h-39.74805zm55.30078 0h39.74805v15.55273h-39.74805zm55.30273 0h39.74805v15.55273h-39.74805zm55.30078 0h39.74805v15.55273h-39.74805zm55.30274 0h39.74805v15.55273h-39.74805zm-276.509766 31.10742h39.748046v39.74804h-39.748046zm55.302736 0h39.74805v39.74804h-39.74805zm55.30078 0h39.74805v39.74804h-39.74805zm55.30273 0h39.74805v39.74804h-39.74805zm55.30078 0h39.74805v39.74804h-39.74805zm55.30274 0h39.74805v39.74804h-39.74805zm-276.509766 55.30078h39.748046v39.74805h-39.748046zm55.302736 0h39.74805v39.74805h-39.74805zm55.30078 0h39.74805v39.74805h-39.74805zm60.92578 0h83.80273l-31.60351 55.30273h-20.59766zm104.98047 0h39.74805v39.74805h-39.74805zm-110.60352 21.50586 20.73828 36.29101v62.40235l-20.73828 36.29492zm95.04883 0v134.98828l-20.73828-36.29297v-62.4043zm-260.955076 33.79687h39.748046v39.74805h-39.748046zm55.302736 0h39.74805v39.74805h-39.74805zm55.30078 0h39.74805v39.74805h-39.74805zm165.90625 0h39.74805v39.74805h-39.74805zm-63.08008 8.67774c6.68112 0 12.09766 5.41653 12.09766 12.09765-.002 3.6468-1.65019 7.09574-4.48438 9.39063l4.48438 26.90039h-24.19336l4.48437-26.90234c-2.83301-2.29392-4.48035-5.74341-4.48437-9.38868 0-6.68112 5.41457-12.09765 12.0957-12.09765zm-213.429686 46.62305h39.748046v39.74804h-39.748046zm55.302736 0h39.74805v39.74804h-39.74805zm55.30078 0h39.74805v39.74804h-39.74805zm165.90625 0h39.74805v39.74804h-39.74805zm-73.03125 12.09765h20.07031l31.7832 58.75781h-83.80273zm-203.478516 43.20508h39.748046v15.55273h-39.748046zm55.302736 0h39.74805v15.55273h-39.74805zm55.30078 0h39.74805v15.55273h-39.74805zm165.90625 0h39.74805v15.55273h-39.74805z" fill="#ff8066"/><path d="m278.51367 276.47661a3.3333332 3.3333332 0 0 0 -3.33203 3.33203v67.39844a3.3333332 3.3333332 0 0 0 3.33203 3.33203h53.57422a3.3333332 3.3333332 0 0 0 3.33203-3.33203v-67.39844a3.3333332 3.3333332 0 0 0 -3.33203-3.33203zm26.78711 15.3418c4.87969 0 8.76456 3.88295 8.76563 8.76172-.001 2.64371-1.19465 5.14043-3.25 6.80469a3.3333332 3.3333332 0 0 0 -1.18946 3.13867l3.83789 23.01953h-16.32812l3.83789-23.02344a3.3333332 3.3333332 0 0 0 -1.18945-3.13867c-2.05309-1.66241-3.2459-4.15682-3.25-6.79883v-.002c0-.00065 0-.001 0-.002.002-4.87782 3.88659-8.75976 8.76562-8.75976z" fill="#861313" filter="url(#c)"/><path d="m278.5143 279.80776v67.39896h53.57354v-67.39896zm26.78678 8.67802c6.68113 0 12.09724 5.41612 12.09724 12.09725-.002 3.6468-1.64996 7.09702-4.48415 9.39191l4.48415 26.89983h-24.1945l4.48415-26.90321c-2.83301-2.29392-4.48012-5.74326-4.48415-9.38853 0-6.68113 5.41612-12.09725 12.09726-12.09725z" fill="#ff8066"/></g></svg>