<svg height="500" viewBox="0 0 500 500" width="500" xmlns="http://www.w3.org/2000/svg" xmlns:xlink="http://www.w3.org/1999/xlink"><filter id="a" color-interpolation-filters="sRGB" height="1.095771" width="1.096175" x="-.048087" y="-.047886"><feGaussianBlur stdDeviation="7.4423338"/></filter><g transform="translate(.000015)"><circle cx="249.99998" cy="250" fill="#e51a1a" r="250"/><path d="m181.33938 83.856939c97.52275-31.84694 203.27597 26.159281 217.12696 131.568651 10.04116 85.89723-45.79566 162.6049-131.11288 174.6444-76.26503 6.65-147.16573-45.4981-149.44603-126.3231.16679-50.89801 30.03241-87.97493 76.60677-108.40662 44.00125-16.48183 90.46555-3.00917 112.28155 39.63622 17.95322 40.0953 3.57775 87.31302-40.4313 103.80676-21.98685 8.23292-51.6578-5.55285-56.72562-31.5612 24.48155 21.7253 69.7211 11.74379 80.1808-21.06198 5.24648-24.88185-11.48198-41.52298-24.36368-55.64156-23.21161-15.22125-63.26956-13.16738-85.32502 12.05139-41.51846 46.43224-18.48961 112.52397 35.72777 131.08081 60.66482 17.11352 118.96473-29.63961 126.96137-92.39988 2.7637-54.83226-40.99398-106.19486-96.51046-114.27807-76.21988-10.3001-138.45939 50.84936-147.743191 124.09106-9.31956 73.21828 47.315731 138.67973 111.863041 158.33924 49.05305 9.49897 98.18701 2.07129 139.64056-27.40671 82.90715-58.95602 100.11901-177.97214 43.55644-260.39974-52.71171-79.885311-158.575-103.987181-249.15842-67.061741-86.705021 39.45169-149.0660905 134.549061-117.102931 229.167621 15.77888-74.65377 50.93986-153.5943 123.407351-187.514491 9.28724-4.60517 19.44718-8.7232 30.56692-12.33106zm-160.722321 286.075591c-52.57825-113.8254-.38403-260.89182 113.777041-317.643861 10.84604-5.32012 22.21219-9.7712 34.03518-13.36069 115.76394-28.75816 246.03978 34.00351 263.68455 158.897471 10.04526 85.91695-27.72044 168.80365-107.97396 206.83173-102.24035 46.26108-224.798841-11.43986-234.690511-131.24969-7.33455-123.78718 127.307171-194.136761 222.718561-137.24102-42.54074-27.89653-94.21826-33.44528-140.80825-12.98978-71.17376 32.62266-105.080851 118.0397-80.762351 190.63139 30.697281 88.13423 123.572931 132.04164 212.817841 105.59803 82.80488-25.06359 132.16266-100.33164 140.19255-180.04986 12.12434-145.020371-132.23823-245.3588802-265.59709-221.973611 7.92036-4.10499 20.5989-8.4277792 35.61563-11.7452592 60.06317-13.23825 124.63426-3.45807 179.45368 32.4903392 109.65077 71.904621 141.09454 217.803071 65.16008 333.599141-143.00482 218.07486-377.311781 117.06797-437.622951-1.79433" fill="#b21a1a"/></g><g transform="translate(-24.681652 23.07813)"><path d="m501.28516-3.2558594c-46.84908 19.5520444-96.91517 43.8935774-138.40625 63.9941404-15.66406 15.664063-31.32813 31.328126-46.99219 46.992189l-28.72266-36.099611c-24.40808 19.75664-33.3726 79.917681-43.0625 107.888671-15.02539 15.02669-30.05078 30.05339-45.07617 45.08008-9.57487-12.0332-19.14974-24.06641-28.72461-36.09961-22.85116 18.25905-31.31535 73.24801-39.85351 99.28516l1.46679 78.46093c15.24535 7.5069 58.97781.74672 77.09571-.13281 24.20886-20.10019 43.09921-44.37247 65.37196-63.38049 32.74645-11.34452 65.49291-22.68905 98.23936-34.03357 1.15548-12.60001-23.24715-25.36602-32.33007-32.59375 17.07414-16.59997 33.4157-34.36977 50.94811-50.23795 32.74712-11.34581 65.49423-22.69163 98.24134-34.03744.22617-14.37287-28.29575-29.38698-38.70313-37.66992 4.66304-12.39054 57.28648-114.69587941 50.50782-117.4160194z" fill="#ff8066" filter="url(#a)" stroke-width="36"/><path d="m315.58985 112.97656-31.16406-39.166013-37.28125 107.615233-48.41602 48.41992-31.16602-39.16601-33.61523 97.04101-16.35742-16.35937v-30.34571l-70.748048-.5-.0039 71.31641 31.560546-.44336 35.378912 35.38281-89.095708 89.10157 41.042968 41.04882 89.09766-89.10351 33.86133 33.86523-.44531 31.5586h71.32031l-.5-70.74805h-30.34375l-19.875-19.87695 62.54297-62.54883 100.09179-34.67578-36.42968-28.99024 53.19531-53.19922 100.09375-34.67968-41.89258-33.33985 53.55858-115.18359-134.64648 63.21289z" fill="#861313"/><path d="m376.95582 77.066532-62.89682 62.898038-23.33959-29.33403-27.92172 80.59669-65.5983 65.60319-23.34133-29.33226-26.33634 76.02569 17.6229 17.62134 224.72187-224.737389 11.61443 11.614249-224.72277 224.74003 18.2407 18.24092 66.58167-66.58752 73.07792-25.31757-26.59823-21.16669 70.37728-70.38248 73.08053-25.32021-27.37334-21.78367 38.75135-83.340513zm-312.114805 181.576108-.0018 34.93506 20.909645-.29355 121.04101 121.05016-.29529 20.9083h34.93643l-.24602-34.74873h-19.92542l-121.670205-121.6768v-19.92835zm62.777285 99.74286-77.481629 77.48725 15.588423 15.59114 77.483406-77.48813-15.5902-15.58938z" fill="#ff8066" stroke-width="36"/></g></svg>