<svg height="500" viewBox="0 0 500 500" width="500" xmlns="http://www.w3.org/2000/svg" xmlns:xlink="http://www.w3.org/1999/xlink"><filter id="a" color-interpolation-filters="sRGB" height="1.049661" width="1.059708" x="-.029854" y="-.024831"><feGaussianBlur stdDeviation="5.2533898"/></filter><g transform="translate(.000015)"><circle cx="249.99998" cy="250" fill="#e51a1a" r="250"/><path d="m181.33938 83.856939c97.52275-31.84694 203.27597 26.159281 217.12696 131.568651 10.04116 85.89723-45.79566 162.6049-131.11288 174.6444-76.26503 6.65-147.16573-45.4981-149.44603-126.3231.16679-50.89801 30.03241-87.97493 76.60677-108.40662 44.00125-16.48183 90.46555-3.00917 112.28155 39.63622 17.95322 40.0953 3.57775 87.31302-40.4313 103.80676-21.98685 8.23292-51.6578-5.55285-56.72562-31.5612 24.48155 21.7253 69.7211 11.74379 80.1808-21.06198 5.24648-24.88185-11.48198-41.52298-24.36368-55.64156-23.21161-15.22125-63.26956-13.16738-85.32502 12.05139-41.51846 46.43224-18.48961 112.52397 35.72777 131.08081 60.66482 17.11352 118.96473-29.63961 126.96137-92.39988 2.7637-54.83226-40.99398-106.19486-96.51046-114.27807-76.21988-10.3001-138.45939 50.84936-147.743191 124.09106-9.31956 73.21828 47.315731 138.67973 111.863041 158.33924 49.05305 9.49897 98.18701 2.07129 139.64056-27.40671 82.90715-58.95602 100.11901-177.97214 43.55644-260.39974-52.71171-79.885311-158.575-103.987181-249.15842-67.061741-86.705021 39.45169-149.0660905 134.549061-117.102931 229.167621 15.77888-74.65377 50.93986-153.5943 123.407351-187.514491 9.28724-4.60517 19.44718-8.7232 30.56692-12.33106zm-160.722321 286.075591c-52.57825-113.8254-.38403-260.89182 113.777041-317.643861 10.84604-5.32012 22.21219-9.7712 34.03518-13.36069 115.76394-28.75816 246.03978 34.00351 263.68455 158.897471 10.04526 85.91695-27.72044 168.80365-107.97396 206.83173-102.24035 46.26108-224.798841-11.43986-234.690511-131.24969-7.33455-123.78718 127.307171-194.136761 222.718561-137.24102-42.54074-27.89653-94.21826-33.44528-140.80825-12.98978-71.17376 32.62266-105.080851 118.0397-80.762351 190.63139 30.697281 88.13423 123.572931 132.04164 212.817841 105.59803 82.80488-25.06359 132.16266-100.33164 140.19255-180.04986 12.12434-145.020371-132.23823-245.3588802-265.59709-221.973611 7.92036-4.10499 20.5989-8.4277792 35.61563-11.7452592 60.06317-13.23825 124.63426-3.45807 179.45368 32.4903392 109.65077 71.904621 141.09454 217.803071 65.16008 333.599141-143.00482 218.07486-377.311781 117.06797-437.622951-1.79433" fill="#b21a1a"/></g><g><g filter="url(#a)" opacity=".75" transform="matrix(.81852069 -.06382971 .06382971 .81852069 144.11505 536.0044)"><path d="m373.97766-569.66675-356.868458 190.39425 378.624158-123.92458c18.3541-6.00805 27.48381-28.44478 22.3563-44.11145-5.12765-15.66711-25.7568-28.36523-44.112-22.35822z" fill="#e81416"/><path d="m395.73336-503.19708-375.90375 122.4732 385.78655-53.23552c19.1186-2.72959 32.00571-23.24009 29.6766-39.55915-2.32917-16.3195-20.4399-32.40694-39.5594-29.67853z" fill="#ffa500"/><path d="m405.61616-433.9594-385.78655 53.23552 383.49615 16.66642c19.3021.63183 35.55514-17.32927 36.0952-33.80487.54007-16.47604-14.502-35.46397-33.8048-36.09707z" fill="#faeb36"/><path d="m403.32576-364.05746-383.49614-16.66642 369.10224 85.10868c18.8991 3.97396 38.0241-10.89195 41.4169-27.02344 3.3929-16.13194-8.1234-37.44342-27.023-41.41882z" fill="#79c314"/><path d="m388.93186-295.6152-369.10225-85.10868 343.04215 150.01168c17.922 7.19541 39.33784-4.12365 45.4803-19.42093 6.14263-15.2977-1.498-38.28521-19.4202-45.48207z" fill="#487de7"/><path d="m362.87176-230.7122-343.04215-150.01168 306.10771 209.40338c16.40024 10.1982 39.45626 2.76993 48.16174-11.22832 8.70572-13.99864 5.1729-37.9637-11.2273-48.16338z" fill="#4b369d"/><path d="m325.93732-171.3205-308.828118-208.26548 262.141548 260.34128c14.38016 12.8911 38.37578 9.57934 49.37977-2.69453 11.00431-12.27423 11.6867-36.48867-2.6932-49.38127z" fill="#70369d"/><path d="m279.25075-119.2447-262.141548-260.34128 207.121388 303.518894c11.92317 15.192344 36.12933 16.097692 49.09748 5.921113 12.96852-10.176879 17.84534-33.904947 5.92268-49.098727z" fill="#fff" opacity=".667"/></g><g stroke-width="1.51134" transform="matrix(.66166301 0 0 .66166301 1.655298 115.1797)"><path d="m224.53924 222.84048c15.06352.8374 27.53353-10.61742 29.42397-21.699.5598-9.26909-3.27152-17.58485-10.44952-22.76756 1.92373-12.96763 7.8271-25.61598 7.36484-37.18731-1.05082-13.85625-11.97338-25.45474-25.72825-25.49211-17.14462.28655-22.34588 16.10432-27.95395 29.35902-7.1936 3.54604-14.05887 7.12404-18.69402 9.50198-37.40577 10.5746-56.32718 17.4402-84.334143 22.37202l-94.76595147.23319c-.94743323 8.84119-1.58247473 17.71307-1.90393843 26.59906.2400825 4.47935.5599162 8.95406.9593488 13.42202-1.5507581 24.01613-.6320948 48.13599 2.6005733 71.98954l70.7851838-36.09218c43.656507-8.19158 78.020457-16.93153 129.283317-36.87589 7.65583 3.84674 15.39514 5.97063 23.41254 6.63722zm-27.60563-77.09918c-.0126.0276-.0467.12406-.059.15055-.38622.83157-.64453.60453.059-.15055z" fill="#861313" stroke-width="1.51134"/><path d="m225.21522 133.60332c-8.34291.008-9.53592 22.43316-16.75466 25.91128-8.69999 4.13999-17.40185 8.8587-23.30185 11.84869-38.99996 10.95999-58.3988 18.26162-89.198774 23.56161l-92.6199626.22434-5.6203081 44.59053c-.036303 10.10626.4746684 20.19983 1.28405149 30.2741l66.85628121-34.09083c45.799952-8.49999 78.800132-16.69909 132.700082-37.99907 3.68323-1.9965 4.62393-1.291 7.99949.69959 5.5 3.4 13.40024 5.79923 19.60024 6.29923 3.09999.3 9.41315-2.527 10.00084-6.44977.80732-5.38883-8.73537-7.35304-10.53808-12.49515-5.74367-16.38348 17.80614-46.50351 1.3608-52.06755-.62364-.211-1.21196-.30753-1.76815-.307z" fill="#ff8066" stroke-width="54.4084"/><path d="m16.088981 169.34128c-1.397376-.01837-2.782173.01865-4.15029.10627-4.1951564.26857-8.2453188 1.02299-12.13797674 2.11647a377.83584 377.83584 0 0 0 -2.30243716 32.19575 377.83584 377.83584 0 0 0 .9593488 13.42202c-3.6546543 56.59855 5.606063 113.86105 29.6335471 166.49573-3.657453-13.10746 22.411772-78.15349 25.241205-89.70059l.014759-.06494.017711-.06789c.70958-2.99601 1.758645-6.46011 2.272919-8.06149 0 0 4.864032-13.43945 8.312389-28.13696 3.448366-14.69751 7.549294-31.7101 1.79472-49.57915-5.320655-16.52161-17.216927-31.79498-36.715017-36.94821-4.428543-1.17043-8.74875-1.72188-12.940878-1.77701z" fill="#861313" stroke-width="1.51134"/><path d="m16.053559 187.50987c-5.900104.05088-11.9107292 1.63231-17.6785847 3.9968a377.83584 377.83584 0 0 0 -.8766972 12.2531 377.83584 377.83584 0 0 0 .9593488 13.42202c-3.0284906 46.90134 2.950246 94.22388 18.7028741 139.02883-2.078718-18.13618 15.460381-53.34417 18.688115-66.51681.899999-3.8 2.100524-7.69816 3.400523-11.69816 0 0 16.013617-43.75855 9.363244-64.4092-3.558876-11.05097-12.957015-22.09754-24.181494-25.0641-2.734447-.72269-5.541266-1.03693-8.377329-1.01248z" fill="#ff8066" stroke-width="54.4084"/><path d="m35.11951 78.43634c-6.117968.213309-11.727682 1.699133-16.816647 4.126676a377.83584 377.83584 0 0 0 -20.1256621 111.715434c3.9750196 4.12017 8.9707071 7.68887 15.3820511 10.08054 14.058429 5.24432 25.258559.27799 32.653282-3.03745 9.58101-4.29566 17.399696-11.13402 23.05389-19.64156 6.262714-9.42311 7.8566-18.99033 8.905709-26.46326 1.783138-12.70153 3.537085-28.19534-1.84195-44.378-3.146907-9.46739-8.784109-18.367409-17.71991-24.963737-6.635434-4.898209-14.438712-7.754249-23.490763-7.438643z" fill="#861313" stroke-width="1.51134"/><path d="m35.748252 96.424869c-12.704814 1.176538-21.497167 10.577161-27.1569507 20.246691-3.4474961 14.02669-6.0878254 28.23952-7.90798613 42.56852 1.95005603 11.03653 10.20263283 24.65275 19.16631383 28.25503 5.989197 2.2342 13.165144.0146 18.998058-2.60057 13.568709-6.50248 19.579767-18.80295 21.501221-32.17803 1.678328-11.95499 2.706859-24.74546-1.101037-36.2014-4.218876-10.47008-12.230572-20.313928-23.499619-20.090241z" fill="#ff8066" stroke-width="54.4084"/></g></g></svg>