<svg height="500" viewBox="0 0 500 500" width="500" xmlns="http://www.w3.org/2000/svg" xmlns:xlink="http://www.w3.org/1999/xlink"><radialGradient id="a" cx="1362.7291" cy="216.11429" gradientTransform="matrix(1.0000001 -.0000059 .0000001 1.0000003 -112.72927 33.893757)" gradientUnits="userSpaceOnUse" r="250"><stop offset="0" stop-color="#ff851a"/><stop offset=".42441937" stop-color="#f87000"/><stop offset=".86367416" stop-color="#f26900"/><stop offset="1" stop-color="#e55f00"/></radialGradient><filter id="b" color-interpolation-filters="sRGB" height="1.149762" width="1.150239" x="-.075119" y="-.074881"><feGaussianBlur stdDeviation="12.591809"/></filter><g transform="translate(-1000)"><path d="m1500 250a250 250 0 0 1 -250 250 250 250 0 0 1 -250-250 250 250 0 0 1 250-250 250 250 0 0 1 250 250z" fill="url(#a)"/><path d="m1309.2298 33.82789c128.5196 30.706851 207.8974 167.48127 169.5927 291.56949-31.3771 95.69524-112.8693 162.03793-212.5543 174.60263 153.1796-8.09118 266.0956-163.0043 218.7012-309.92978-36.4562-114.666588-154.6038-191.5214848-270.6514-169.822657-18.8526 4.215647-38.4387 10.498641-55.8829 18.694487-112.5353 47.459213-168.47522 196.206-99.9632 307.85319 57.6978 93.63045 168.5136 141.8489 267.9993 100.77239-134.92 68.97589-303.283-51.46877-311.488-201.30723-4.4167-117.68321 76.8182-219.674136 190.654-246.26040176-89.0147 9.18391126-152.6601 79.39239576-187.7408 157.21169176-38.45522 102.70317 5.2337 231.75078 109.038 294.08388 114.5107 66.1048 260.3537 29.37245 323.6836-83.60152 42.2104-77.69758 34.3514-177.62383-23.1776-249.88923-57.5404-72.257811-157.5429-102.460489-246.4118-71.877168-81.7429 30.682061-131.1298 101.133078-134.0478 190.176958.6692 92.68536 61.7912 168.55972 147.5399 198.52472 128.5549 37.82014 266.7725-70.33038 233.6823-209.88949-14.7104-64.39775-57.8855-122.14991-125.7378-141.121386-71.391-15.467036-138.9716 1.205-181.2869 64.641366-18.8995 29.2286-28.9384 85.21395-26.105 97.65297m0 0c13.5324-50.18833 30.6277-97.66354 72.2125-128.94941 53.182-38.308183 124.4576-37.093813 181.7444-.48035 50.1457 36.48017 75.4845 90.37713 72.3557 150.91678-6.6674 64.04407-38.4038 109.83277-91.6401 141.00844-63.9019 34.56125-135.3795 4.83213-189.1258-35.28385-78.8706-65.48566-79.7477-186.67235-8.9744-256.76104 63.7369-55.941605 167.0207-64.891564 238.7167-6.65053 78.8163 58.35315 90.3045 169.04089 40.972 246.62443-35.2274 56.41892-88.4571 87.60135-152.5581 93.63158-81.9488 2.18264-160.666-41.91503-196.8695-120.9383-36.2055-79.02511-22.5771-164.33167 26.8727-227.66064 49.4316-63.30896 138.3491-86.746364 220.4504-67.54202" fill="#c50"/></g><g><path d="m237.23242 38.683594c-16.12583 2.905816-25.08521 21.762196-33.97218 35.528377-14.11039 21.857402-11.12073 53.674609-29.20293 72.379769-14.61693 15.12051-37.85654 18.54051-57.6761 25.57396-18.185283 6.45349-42.934598.82743-55.8736 15.14296-10.910328 12.07103-13.64182 32.91457-7.956829 48.16009 11.134083 29.85843 58.000609 33.26599 73.535739 61.0896 9.9713 17.85873 8.00569 40.30904 8.61523 60.75383.55856 18.73476-12.91007 39.26143-4.56395 56.04373 7.93151 15.94859 27.27545 28.77026 45.08719 28.68 22.55351-.11429 36.05989-27.84364 56.71915-36.8918 18.0169-7.89089 37.5618-15.82885 57.18851-14.53777 29.09769 1.9141 52.44574 37.13656 81.23115 32.47394 16.64167-2.69559 33.47616-16.58878 38.63425-32.63887 9.86616-30.69989-27.52379-61.77516-23.69175-93.79296 2.40931-20.13047 17.10553-36.94682 28.39123-53.78942 10.9458-16.33534 34.76447-25.87488 37.77904-45.30594 2.58472-16.66041-5.42859-36.96757-19.09962-46.83434-26.14717-18.87115-67.25595 7.0861-96.52213-6.45219-18.40192-8.51257-29.85474-27.68711-42.38672-43.62587-12.15412-15.458191-16.76618-36.814532-31.41679-49.930862-6.8492-6.13192-15.77156-13.656529-24.81889-12.026234z" fill="#ffa348" filter="url(#b)" opacity=".5" transform="matrix(-.97431394 .22519401 .22519401 .97431394 441.07575 -50.309941)"/><g opacity=".5" transform="matrix(-.97431394 .22519401 .22519401 .97431394 441.07575 -50.309941)"><path d="m384.81874 296.64845c-3.89759-20.8011 16.32823-37.87823 28.87879-53.78942 12.36369-15.29458 26.42817-29.33208 37.77904-45.30594 11.61263-17.30969 2.44709-43.77181-19.09962-46.83434-32.01276-3.97721-69.22585 1.02364-102.72628-5.433s-92.34649 62.73722-79.65065 104.71426c13.76661 45.51738 138.71631 67.44954 134.81872 46.64844z" fill="#994100"/><path d="m324.85974 163.52555c8.88132-3.94612 18.6149.89974 29.14913.61314 24.7923 1.519 49.71201 1.82472 74.42064 4.1425 18.24848 4.10122 7.98666 22.83153-1.21539 30.86715-16.89115 20.40806-34.77128 40.05764-51.00333 60.97142-11.40351 18.03176-3.94453 19.50548-11.83845 22.90188-36.45062 15.68308-103.09786 5.02429-114.37234-33.02164-10.83237-36.55399 40.01879-70.99405 74.85974-86.47445z" fill="#ffa348" stroke-width="36"/></g><path d="m215.70217 41.578482c21.46985-7.171219 37.16813 13.814576 46.42436 30.055206 13.78665 19.687446 25.73133 40.913432 41.12369 59.326982 19.48891 17.60049 46.83974 11.90533 70.70787 13.06633 18.42195.63473 37.37343-1.14466 55.36225 3.2884 24.70512 9.741 20.85026 38.61747 3.94228 57.19231-16.90799 18.57484-35.178 41.37369-48.93565 64.64562-11.32287 24.62981 4.89305 49.37631 10.21229 73.25139 4.78131 21.27769 21.56377 45.90609 7.30699 66.63662-12.40759 17.28007-35.03893 11.65619-51.36459 4.25131-23.91589-8.29366-47.25958-18.87126-71.73812-25.14834-26.11142-2.78353-44.89028 17.90041-64.88213 30.98966-15.27675 10.31449-29.56293 22.89332-46.7219 29.88015-25.71272 6.641-42.14555-21.3412-36.80566-43.9519-.0978-36.52153 7.08683-73.76672-1.18777-109.83099-6.183-25.53441-30.009413-42.04577-35.829363-67.89876-10.16695-18.66172-3.12106-48.32887 21.277943-49.88935 23.00565-1.93298 50.0324-11.11215 54.22428-37.17579 10.48283-28.21986 17.94399-57.665159 30.27757-85.127217 3.89351-6.116224 9.60086-11.335987 16.60566-13.561631z" fill="#994100"/><path d="m369.08024 400.88967c15.48825 5.6903 24.14732-2.54418 19.24282-18.29736l-24.56474-78.91313c-4.90352-15.7534-.573-39.25631 9.6248-52.22798l51.07881-64.97151c10.1978-12.97167 5.04279-23.75169-11.45589-23.95552l-82.6399-1.02225c-16.49891-.2048-37.51264-11.58597-46.69844-25.29348l-46.00689-68.657048c-9.18557-13.706532-21.03108-12.135644-26.32341 3.49361l-26.51104 78.278798c-5.29255 15.62828-12.46962 25.0653-23.44101 32.84795-12.90673 9.15552-45.58478 13.25497-45.58478 13.25497-15.874293 4.50039-6.22765 17.37631-4.81203 26.11339 3.57207 22.0465 25.14673 37.53923 32.32726 58.68746 5.60015 16.49366 8.49359 35.17127 7.86859 51.65953l-3.1346 82.58621c-.62499 16.48826 9.8815 22.17945 23.34874 12.64685l67.45945-47.74689c13.46821-9.53282 37.15901-12.67557 52.64628-6.98505l77.56159 28.5058z" fill="#ffa348" stroke-width="36"/><path d="m228.29613 124.07228c1.18649-.27424 2.35008.37586 2.59882 1.45206.24874 1.07619-.51155 2.17096-1.69804 2.44519-1.18651.27424-2.35009-.37586-2.59883-1.45205-.24874-1.0762.51154-2.17096 1.69805-2.4452zm3.37791 14.61471c2.373-.54848 4.70016.75172 5.19765 2.90411.49748 2.1524-1.0231 4.34192-3.3961 4.8904-2.37302.54848-4.70017-.75172-5.19765-2.90412-.49749-2.15239 1.02308-4.34192 3.3961-4.89039zm1.4164 15.92003c3.55915-.82262 7.05041 1.12828 7.79648 4.35618.74561 3.22593-1.535 6.51296-5.09415 7.33559-3.55625.82196-7.05087-1.13023-7.79649-4.35617l-.004.00088c-.74539-3.22498 1.53197-6.51226 5.09796-7.33648zm2.49449 13.96694c6.52607-1.50838 12.92642 2.06701 14.2945 7.98609 1.36808 5.91907-2.81417 11.94044-9.34023 13.44881-6.52604 1.50837-12.92451-2.06747-14.29259-7.98653-1.36808-5.91909 2.81228-11.94 9.33832-13.44837zm-98.39267 43.23476c1.1865-.27424 2.3501.37589 2.59883 1.45205.24874 1.0762-.51155 2.17097-1.69805 2.4452-1.18651.27424-2.35009-.37586-2.59883-1.45205-.24873-1.07617.51154-2.17096 1.69805-2.4452zm102.17648-20.24637c9.6411-2.22836 19.09611 3.05349 21.11713 11.79758 2.02103 8.74409-4.15722 17.63926-13.79832 19.86762-9.6411 2.22835-19.0942-3.05393-21.11523-11.79802s4.15532-17.63883 13.79642-19.86718zm-70.73532 35.31478c3.55915-.82263 7.04851 1.12873 7.79457 4.35661.74562 3.22595-1.53309 6.51252-5.09224 7.33515-3.55625.82196-7.05087-1.13022-7.79649-4.35617l-.006.001c-.74539-3.22496 1.54362-6.51496 5.09987-7.33691zm121.50312-9.58653c9.6411-2.22836 19.0961 3.05349 21.11713 11.79758s-4.15723 17.63927-13.79833 19.86762c-9.6411 2.22836-19.09419-3.05393-21.11522-11.79802s4.15532-17.63882 13.79642-19.86718zm-84.97845 19.64114c9.6411-2.22836 19.0942 3.05393 21.11523 11.79802s-4.15532 17.63883-13.79642 19.86718c-9.6411 2.22836-19.0961-3.05349-21.11713-11.79758s4.15722-17.63926 13.79832-19.86762zm114.57625-26.22551c6.52606-1.50838 12.92641 2.06701 14.2945 7.98609 1.36807 5.91907-2.81417 11.94044-9.34024 13.44881-6.52604 1.50837-12.92451-2.06747-14.29259-7.98653-1.36808-5.91909 2.81228-11.94 9.33833-13.44837zm48.40555-8.10893c1.18649-.27424 2.35008.37586 2.59882 1.45206.24874 1.07619-.51155 2.17096-1.69804 2.44519-1.18651.27424-2.35009-.37586-2.59883-1.45205-.24874-1.0762.51154-2.17096 1.69805-2.4452zm-14.66419 3.38935c2.37302-.54848 4.70017.75171 5.19765 2.90411.49749 2.1524-1.02308 4.34192-3.3961 4.8904-2.373.54847-4.70016-.75172-5.19765-2.90412-.49748-2.1524 1.0231-4.34192 3.3961-4.89039zm-14.58742 4.39796c3.55917-.82263 7.05041 1.12827 7.79647 4.35617.74562 3.22594-1.53497 6.51296-5.09414 7.3356-3.55625.82196-7.04896-1.13068-7.79458-4.35661l-.006.001c-.74539-3.22498 1.54171-6.51452 5.09796-7.33648zm-86.02327 24.69571c1.8425.17777 2.42159 2.1449 3.38211 3.40995 1.03628 1.38644 2.40159 2.50128 3.82468 3.46 2.08002 1.15851 5.03068.82621 6.4735 3.01216.44913 1.51334-.87987 2.67335-1.74724 3.71546-2.05959 2.76841-3.16722 6.37539-2.52923 9.81182.0853 1.35205-.74591 3.1731-2.36295 2.90759-1.29896-.16355-2.41061-.97992-3.69962-1.22769-2.47912-.69756-5.17403-.61421-7.55814.3958-1.30179.36093-2.756 1.35945-4.08021.56018-1.34102-.91347-.88089-2.65911-.83656-4.01834.13768-3.21695-.94603-6.47653-3.13613-8.85921-.97756-1.02129-1.84894-2.71951-.75676-3.97664.99355-.92305 2.57641-.92344 3.79398-1.51238 2.80161-.94205 5.30728-2.90101 6.66601-5.54794.61306-.94148 1.45534-1.81596 2.56656-2.13076zm22.96242 28.02944c9.6411-2.22836 19.09609 3.05349 21.11712 11.79758s-4.15721 17.63927-13.79831 19.86762c-9.6411 2.22836-19.0942-3.05393-21.11523-11.79802s4.15532-17.63883 13.79642-19.86718zm-43.88219 10.14253c9.6411-2.22836 19.0942 3.05393 21.11523 11.79802s-4.15533 17.63882-13.79643 19.86718-19.0961-3.05349-21.11713-11.79758 4.15723-17.63927 13.79833-19.86762zm-12.86966 36.33138c6.52604-1.50837 12.92642 2.06703 14.2945 7.98609 1.36808 5.91907-2.81419 11.94044-9.34023 13.44881-6.52605 1.50837-12.92643-2.06703-14.2945-7.98609-1.36808-5.91907 2.81418-11.94044 9.34023-13.44881zm76.97763-12.83449c6.52604-1.50837 12.92451 2.06745 14.29259 7.98653 1.36808 5.91907-2.81228 11.94-9.33832 13.44837-6.52606 1.50838-12.92642-2.06703-14.2945-7.98609-1.36809-5.91908 2.81417-11.94044 9.34023-13.44881zm-90.8184 42.54456c3.55917-.82263 7.05041 1.12827 7.79648 4.35617.74561 3.22594-1.53498 6.51296-5.09415 7.3356-3.55624.82196-7.04896-1.13068-7.79457-4.35662l.004-.00087c-.7454-3.22498 1.5322-6.51232 5.08844-7.33428zm108.71219-18.96856c3.55915-.82263 7.05041 1.12827 7.79648 4.35617.74561 3.22593-1.535 6.51297-5.09415 7.33559-3.55624.82196-7.05087-1.13023-7.79648-4.35617l-.006.001c-.74539-3.22498 1.54362-6.51495 5.09986-7.33691zm-116.7813 37.94297c2.37302-.54848 4.70017.75172 5.19766 2.90412.49749 2.15239-1.02308 4.34192-3.3961 4.89039-2.373.54848-4.70017-.75172-5.19765-2.90411-.49749-2.1524 1.02309-4.34192 3.39609-4.8904zm132.51603-18.82536c2.373-.54848 4.69826.75216 5.19575 2.90455.49748 2.1524-1.0212 4.34149-3.3942 4.88996-2.37302.54848-4.70017-.75172-5.19766-2.90412-.49748-2.15239 1.02309-4.34191 3.39611-4.89039zm-141.91424 36.90621c1.18651-.27424 2.35008.37586 2.59883 1.45206.24874 1.0762-.51154 2.17096-1.69805 2.4452s-2.35009-.37586-2.59883-1.45206c-.24875-1.0762.51154-2.17096 1.69805-2.4452zm155.46324-24.81676c1.18651-.27424 2.35009.37586 2.59883 1.45206s-.51154 2.17096-1.69805 2.4452-2.35009-.37586-2.59883-1.45206.51154-2.17096 1.69805-2.4452z" fill="#994100"/></g></svg>