<svg height="500.00003" viewBox="0 0 500 500.00003" width="500" xmlns="http://www.w3.org/2000/svg"><g transform="translate(-500)"><path d="m926.7767 73.223311c45.24113 45.241099 73.2233 107.741109 73.2233 176.776699 0 69.0356-27.98221 131.53559-73.2233 176.77669-45.2411 45.2411-107.74109 73.22332-176.77669 73.22332-69.03559 0-131.5356-27.98219-176.7767-73.22332-45.2411-45.2411-73.22331-107.74109-73.22331-176.77669 0-69.03559 27.9822-131.5356 73.22331-176.776699 45.2411-45.241105 107.74111-73.22330934 176.7767-73.22330934 69.0356 0 131.53559 27.98220534 176.77669 73.22330934z" fill="#3b2f4f"/><g transform="translate(500)"><path d="m230.6486 0c-128.19182 22.346591-234.17086 139.43202-223.06447 273.24395 5.6201 44.55936 16.72649 83.63245 44.55937 122.70552l50.17947 50.17947c33.45298 22.34661 72.52606 44.55938 111.46533 50.17946 39.07308 5.62012 78.01235 5.62012 111.46534-5.62008 39.07308-16.72649 72.52607-33.45297 100.35893-61.28587 33.45297-39.07306 55.79958-83.63245 66.90595-139.43201v-61.28587c-5.62008-27.83287-11.10637-50.17947-22.34657-78.01235-11.10641-22.34659-27.8329-44.55937-50.17947-61.285858-27.83289-27.832879-61.28586-44.559368-100.35895-55.799569-27.83288-5.620101-55.79957-11.10639-89.25255-5.620101-78.01235 11.106391-139.43202 61.28586-172.885 128.191818-11.10639 27.83288-16.72649 61.28586-22.34659 89.25255 0 33.45298 5.6201 66.90596 16.72649 94.73885 22.34659 44.55936 55.79957 89.25254 105.97904 111.46532 16.72649 5.62012 33.45298 11.1064 55.79957 16.72648 122.70553 22.34661 234.17085-55.79954 250.89734-178.37127 11.10641-78.01236-22.34657-139.43203-72.52604-189.6115-100.35895-89.25255-267.62385-44.559369-312.18322 78.01235-5.6201 27.83288-16.72649 55.79958-16.72649 83.63245 5.6201 78.01235 55.79957 150.53843 133.81192 172.885 61.28586 16.72649 122.70553 5.62012 172.885-33.45298 11.10639-11.10637 22.34659-22.34657 33.45299-33.45297 61.28584-83.63246 44.55935-195.09778-44.55937-256.51746-27.83288-16.726488-55.79958-22.346588-89.25256-27.832879-22.34659-5.620101-44.55937 5.620101-66.90596 11.106391-27.83288 16.726488-50.17947 22.346588-72.52606 50.179468-27.83288 33.45298-33.45298 66.90596-39.07308 105.97904 0 55.79958 27.83288 117.08544 83.63245 144.91833 78.01235 44.55934 183.99139 11.10637 223.06447-72.52607 22.3466-55.79958 11.1064-128.19183-39.07308-172.88501-33.45298-27.83288-66.90596-39.07308-111.46533-39.07308-66.90596 5.6201-111.46533 55.79957-122.70553 122.70553-11.10639 72.52606 33.45298 139.43202 105.97904 150.53843 100.35894 16.72649 183.99138-89.25257 139.43202-178.37131-11.10638-16.72649-27.83288-39.07308-50.17947-50.17947-27.83288-11.10639-55.79957-16.72649-83.63245-11.10639-33.45298 5.6201-55.79957 27.83288-72.52606 50.17947-16.72649 27.83288-16.72649 55.79957-11.10639 83.63245 11.10639 33.45298 39.07308 61.28586 72.52606 72.52607 44.55937 16.72649 89.25255-5.62011 111.46533-39.07309 33.45298-55.79957 5.6201-117.08543-50.17947-139.43202-50.17947-16.72649-122.70553 27.83288-105.97904 89.25255 5.6201 16.72649 11.10639 39.07309 27.83288 50.17947 22.34659 16.7265 50.17947 16.7265 72.52606 11.1064 22.34659-11.1064 39.07308-33.45299 39.07308-61.28587-5.6201-16.72649-5.6201-39.07308-22.34659-50.17947-13.91644-8.36324-29.2379-11.13984-43.17107-8.34651-13.93317 2.79332-26.47803 11.15656-34.84128 25.073-5.6201 16.72649-11.10639 33.45298 9.50065 44.827 41.74932-49.10898 35.32635.40143 29.84006-16.45887v5.6201c16.72649-5.6201 22.34659-22.34659 27.83288-33.45298 5.6201 5.6201 16.72649 11.10639 16.72649 22.34659 11.10639 39.07308-27.83288 72.52606-66.90596 61.28586-33.45298-11.10639-44.55937-50.17947-39.07309-83.63245 5.62011-22.34659 22.3466-39.07308 50.17948-44.55937 33.45298-5.6201 66.90596 11.10639 83.63245 39.07308 16.72649 27.83288 16.72649 50.17947 0 78.01235-33.45298 55.79958-105.97905 55.79958-150.53841 11.10639-33.45298-44.55937-22.3466-117.08543 27.83288-144.91831 16.72648-11.10639 39.07308-16.72649 61.28586-16.72649 11.10638 0 27.83288 5.6201 39.07308 11.10639 27.83288 11.10639 39.07308 39.07308 55.79957 61.28586 5.6201 16.72649 5.6201 27.83288 5.6201 44.55937-5.6201 72.52606-72.52606 122.70554-144.91831 105.97904-83.63246-22.34659-122.70554-122.70553-72.52606-195.09778 11.10638-16.72649 22.34659-27.83288 39.07308-39.07308 78.01235-44.559372 167.2649-5.6201 200.71788 66.90596 39.07309 94.73884-39.07308 206.33797-139.43202 200.71788-27.83288-5.62012-55.79958-5.62012-78.01235-22.3466-22.34659-11.10638-27.83288-27.83287-39.07309-39.07307-66.90596-78.01235-33.45298-195.09778 55.79958-239.79097 39.07308-16.726484 83.63245-16.726484 128.19182-5.6201 94.73883 33.45298 139.43201 144.91832 94.73883 234.17087-11.10637 27.83288-33.45297 44.55935-55.79956 66.90596-22.34659 16.72649-50.17947 27.83289-78.01235 33.45298-44.55937 5.62012-89.25256-5.62009-128.19182-27.83286-94.73884-66.90598-117.08544-211.82429-22.3466-289.97045 16.7265-11.1064 27.83288-33.452984 50.17948-39.073085 33.45298-11.106392 66.90596-22.346593 105.97904-16.726492 27.83288 5.6201 55.79957 16.726492 78.01235 27.832879 16.72649 16.726488 39.07309 22.346598 50.17946 44.559368 11.10641 16.72649 27.8329 33.45298 33.45298 55.79957 22.34661 66.90596 16.72649 139.43203-27.83286 195.09781-16.72649 22.34657-33.45298 44.55934-61.28587 55.79954-22.34659 5.62012-39.07308 22.34661-61.28586 22.34661-39.07308 0-83.63245 5.62008-122.70553-11.10641-117.08543-44.55934-167.26491-195.09777-105.97905-306.69691 16.7265-33.45298 44.55937-61.285864 78.01236-83.632457 44.55936-22.34659 89.25255-33.452979 139.43202-27.832879 61.28586 5.6201 111.46532 39.07308 156.1585 83.632456 22.34661 22.34659 27.8329 50.17947 39.0731 78.01234 11.10637 16.7265 5.62008 39.07309 11.10637 61.28586 11.10645 172.88502-195.09777 301.07685-351.25629 211.82429-27.83287-16.72649-50.17946-27.8329-66.90596-50.17947-61.28586-72.52608-78.01235-167.26492-50.17947-256.51747 16.72649-33.45298 39.07309-61.28586 61.28587-89.252546 39.07308-39.073083 94.73884-55.799574 144.9183-72.526064" fill="#221b35" opacity=".9"/><path d="m231.45148 15.388371c-120.56454 21.008472-220.12061 131.001869-209.68329 256.785079 5.21867 41.88313 15.78981 78.68141 41.88314 115.34586 15.7898 15.65602 31.4458 31.44582 47.23561 47.1018 31.4458 21.0085 68.11026 41.88314 104.77473 47.23563 36.66447 5.21866 73.32893 5.21866 104.77473-5.21866 36.66447-15.65601 68.11026-31.44582 94.33742-57.67295 31.44579-36.66448 52.45425-78.68141 62.89161-131.00187v-57.67294c-5.2187-26.22714-10.43736-47.23561-21.00851-73.32894-10.43731-21.00847-26.22712-41.88313-47.10179-57.672935-26.22713-26.227136-57.67292-41.88313-94.33739-52.454272-26.22714-5.218666-52.45427-10.43733-83.90008-5.218666-73.32893 10.437332-131.00187 57.672938-162.44767 120.564543-10.43733 26.22713-15.78981 57.67294-21.00847 83.90008 0 31.44579 5.21866 62.8916 15.78981 89.11874 21.00847 41.88313 52.45427 83.90006 99.55607 104.77473 15.7898 5.21866 31.4458 10.43732 52.45427 15.65601 115.34588 21.00847 220.12062-52.45428 235.91043-167.66635 10.43732-73.32894-21.00847-131.00188-68.11026-178.23748-94.33742-83.900079-251.56643-41.883137-293.44956 73.32893-5.21867 26.22713-15.78981 52.45427-15.78981 78.68141 5.21866 73.32893 52.45427 141.573 125.78321 162.44767 57.67293 15.78981 115.34587 5.21866 162.44767-31.44578 10.43733-10.43736 21.00849-21.00849 31.4458-31.44582 57.67295-78.68141 41.88314-183.45615-41.88313-241.12909-26.22714-15.7898-52.45428-21.008465-83.90008-26.227131-21.00847-5.218666-41.88313 5.218666-62.8916 10.437331-26.22714 15.7898-47.23561 21.00847-68.11027 47.1018-26.22713 31.4458-31.4458 62.8916-36.66447 99.55606 0 52.45428 26.22714 110.12722 78.68142 136.22052 73.32893 41.88314 173.01881 10.43736 209.68327-68.11025 21.00847-52.45427 10.43736-120.56454-36.66446-162.44767-31.4458-26.22714-62.8916-36.66447-104.77473-36.66447-62.89161 5.21867-104.77474 52.45428-115.34588 115.34588-10.43733 68.11027 31.4458 131.00187 99.55607 141.57302 94.3374 15.65599 173.01881-83.90008 131.00187-167.66635-10.43733-15.7898-26.22714-36.66446-47.1018-47.2356-26.22713-10.43733-52.45427-15.656-78.68141-10.43733-31.4458 5.21866-52.45427 26.22713-68.11027 47.23561-15.7898 26.22713-15.7898 52.45427-10.43732 78.6814 10.43732 31.44581 36.66446 57.67295 68.11026 68.11027 41.88314 15.78981 83.90008-5.21866 104.77474-36.66446 31.4458-52.45428 5.21866-110.12721-47.1018-131.00187-47.23561-15.78981-115.34588 26.22713-99.55607 83.90007 5.21867 15.65599 10.43733 36.66447 26.22714 47.23561 21.00847 15.78981 47.10179 15.78981 68.11027 10.43733 21.00847-10.43733 36.66446-31.4458 36.66446-57.67294-5.21866-15.7898-5.21866-36.66447-21.00847-47.23561-13.11356-7.8949-27.5318-10.50423-40.62864-7.86145-13.09684 2.64279-24.87229 10.53769-32.70029 23.65126-5.21867 15.656-10.43733 31.4458 8.9654 42.15076 39.20689-46.70036 33.05154-.26763 27.96669-16.05744v5.21867c15.78981-5.21867 21.00847-21.00847 26.22714-31.4458 5.21866 5.21866 15.65599 10.43733 15.65599 21.00847 10.43733 36.66447-26.22714 68.11027-62.8916 57.67294-31.4458-10.43733-41.88313-47.23561-36.66447-78.68141 5.21867-21.00848 21.00847-36.66447 47.1018-41.88314 31.4458-5.21866 62.8916 10.43734 78.68141 36.66447 15.65599 26.22714 15.65599 47.23561 0 73.32893-31.4458 52.45428-99.55607 52.45428-141.57302 10.43734-31.4458-41.88313-21.00847-110.12722 26.22714-136.22054 15.78981-10.43733 36.66447-15.656 57.67294-15.656 10.43733 0 26.22714 5.21867 36.66447 10.43733 26.22713 10.43733 36.66446 36.66447 52.45427 57.67294 5.21866 15.78981 5.21866 26.22714 5.21866 41.88314-5.21866 68.11026-68.11026 115.34586-136.22053 99.55606-78.68141-21.00847-115.34588-115.34587-68.11027-183.45614 10.43733-15.656 21.00847-26.22714 36.66447-36.66447 73.32893-41.88313 157.22901-5.21866 188.67481 62.8916 36.66448 89.11874-36.66447 193.89349-131.00188 188.67483-26.22713-5.21866-52.45427-5.21866-73.32893-21.00848-21.00847-10.43734-26.22713-26.22714-36.66447-36.66447-62.8916-73.32893-31.4458-183.45615 52.45428-225.33928 36.66446-15.789805 78.68141-15.789805 120.56454-5.21866 89.11872 31.4458 131.00186 136.22053 89.11872 220.12061-10.43731 26.22714-31.44578 41.88313-52.45425 62.89162-21.00847 15.78977-47.23561 26.22712-73.32894 31.44578-41.88313 5.21866-83.90007-5.21866-120.56454-26.22712-89.11874-62.89162-110.12721-199.11215-21.00847-272.5749 15.656-10.43733 26.22714-31.445801 47.1018-36.664467 31.4458-10.437328 62.8916-21.00847 99.55607-15.655994 26.22713 5.218666 52.45427 15.655994 73.32893 26.227136 15.65599 15.789805 36.66446 21.008475 47.10181 41.883135 10.43732 15.7898 26.22713 31.4458 31.44578 52.45427 21.00847 62.8916 15.78981 131.00187-26.22712 183.45615-15.78981 21.00846-31.44582 41.88313-57.67295 52.45428-21.00847 5.21866-36.66446 21.00847-57.67294 21.00847-36.66446 0-78.68141 5.21866-115.34587-10.43735-110.12721-41.8831-157.22901-183.45614-99.55607-288.23087 15.7898-31.4458 41.88313-57.672937 73.32893-78.681407 41.88313-21.008474 83.90008-31.445802 131.00187-26.22714 57.67294 5.218666 104.77473 36.664468 146.79166 78.681417 21.00851 21.00847 26.22717 47.10179 36.66448 73.32893 10.43732 15.78981 5.21866 36.66446 10.43732 57.67293 10.43735 162.44767-183.45613 283.01222-330.24781 199.11215-26.22713-15.65601-47.23561-26.22713-62.8916-47.23563-57.67294-68.11025-73.32893-157.22899-47.23561-241.12907 15.78981-31.4458 36.66447-57.67293 57.67294-83.900069 36.66447-36.664468 89.11874-52.454275 136.22054-68.11027" opacity=".9"/></g></g><g><path d="m108.61328 0c9.0336 74.177443-35.672555 134.07227-26.996092 191.73633-47.930627-25.59307-12.937154-114.480037-28.136719-159.931642-7.99369 15.185932-15.408964 30.47985-22.03711 45.984374-30.78043453 59.221478-31.44335675 115.927328-31.443359 172.210938.00000552 138.07119 111.92881 249.99999 250 250 1.25033-.0375 2.50037-.0844 3.75-.14062 25.18812.72262 49.53253-1.78951 71.50391-9.17188 39.073-16.72645 72.52657-33.4523 100.35937-61.28516 2.73305-3.19218 5.36255-6.43652 7.94727-9.70507 42.70908-46.19145 66.43325-106.78689 66.43945-169.69727 0-53.34232.9634-100.80956-12.24609-128.24609-15.33613-29.628507-23.00582-63.718873-17.22852-105.835941-61.23943 34.046226-36.49149 132.596821-27.66797 179.535151-35.60921-17.73461-93.06675-45.66458-65.75586-121.806636-36.23945 19.858531-49.89633 95.681876-58.50976 131.044926 3.99158-46.30117-52.51991-85.38058-34.34766-173.62891-38.55038 39.39847-61.02912 173.31099-60.50391 230.33789-8.50839-35.04446-6.09268-180.213144-43.80273-198.160156 2.83614 33.982516-21.63838 89.947046-35.50391 94.832036 11.0294-58.83223-17.96319-122.549929-35.82031-158.07227zm121.76758 27.966797c-9.13864 16.088594-2.41602 55.550781-2.41602 55.550781 9.39091-30.201546 29.08934-56.5931 49.67331-82.0071731-3.8592 1.3655713-39.21986 12.1913001-47.25729 26.4563921z" fill="#775fa0" opacity=".67"/><path d="m366.73967 292.55917c13.14153-9.96963 19.9159-16.42716 30.91399-29.55382 10.99808-13.12667 16.52012-21.5416 24.4861-37.58935 7.96599-16.04775 11.58297-26.33461 15.39959-44.26007 3.81661-17.92545 4.76338-28.73568 2.77411-54.44364s-5.72001-40.097683-10.91903-53.619043l-12.73623-33.126953-19.20117 29.847653c-14.92987 23.20754-51.42134 45.218533-98.86523 53.880863l-30.01758 5.48047 9.05078 11.06836 6.83008 8.35156-6.77539 1.45117-.0547-9.80273-61.5918 12.90234 19.55664-23.97265-30.01562-5.48047c-47.44045-8.66045-83.93133-30.671203-98.86133-53.878913l-19.203114-29.849606-12.736328 33.128906c-5.255537 13.67129-9.004437 28.228483-10.953126 53.777343-1.948688 25.54888-1.004629 36.36218 2.79347 54.19201s7.328333 27.95293 15.170679 43.87054 13.234669 24.21626 24.065659 37.2866 17.4655 19.46955 30.42398 29.45717c12.95848 9.98763 20.39712 14.54845 32.11351 20.21195 11.7164 5.66349 14.0923 6.43339 16.41317 7.31377-12.14423 0-27.41438 4.65827-35.04273 12.02443-7.67993 7.63233-12.47875 18.15137-12.47875 29.69822-.11971 5.9177 1.79913 12.17346 5.64258 16-.72428 11.05061 8.60622 20.12864 19.63281 19.10156 5.57372 6.43953 12.44734 7.24705 19.86914 6.67969-3.13268 8.62667.72607 18.22896 8.95703 22.28906 40.28865 18.62571 91.76966 19.50819 129.05078-.47265 7.75586-4.19868 11.32782-13.3981 8.4375-21.73047 6.81839.86639 14.38906-1.39986 18.62695-6.2168 11.83347 1.84143 22.13248-8.1699 20.62696-20.05078 4.03915-4.73963 5.01683-10.0357 5.0332-15.59961 0-11.54662-4.79937-22.06517-12.47982-29.69707-11.73379-8.93414-20.07456-12.02558-35.1862-12.02558 13.82504-10.86617 30.82263-18.82963 41.24944-26.64346z" stroke-linecap="round" stroke-linejoin="round"/><path d="m316.45487 182.08121c0 22.17292-11.25337 41.73451-28.34564 53.30713-15.22349-8.81842-30.70967-20.52538-32.57987-31.14132l12.63472-2.708-1.59964-7.3578c11.21543-8.05649 24.28888-6.49495 38.2434-.007l-13.09922-28.72472-29.99108 6.42528-2.03696-9.37352v-.003l-57.88079 12.40493 14.64233 21.51191c-6.15167 13.98638-1.94463 29.62455 3.9007 41.6222-19.47062-11.06655-32.63139-31.98285-32.63139-55.95826 0-15.43278 5.56263-29.58901 14.62944-40.67832-50.93681-9.29873-91.78618-32.34446-110.766525-61.848183-5.59197 14.54645-9.428263 30.095793-10.958487 46.254963l72.493062 26.16739-73.213083-12.60678c.0534 10.68144.917833 22.14214 2.465678 31.33748l67.382775 6.641-64.552792 6.641c2.410566 9.4702 5.604137 18.62695 9.511998 27.39774l58.405424-8.66489-52.4062 20.82177c4.29006 7.8866 9.17347 15.4022 14.59796 22.48566l47.67059-19.66289-39.04179 30.0535c5.56978 6.20353 11.58045 12.00122 17.98763 17.34259l36.74325-27.09317-26.08681 35.29607c6.41507 4.55313 13.15077 8.68195 20.17347 12.33669l26.35805-32.05465-14.23865 37.77344c8.97878 3.81466 18.34407 6.89225 28.02497 9.1475.70858 2.53458 1.48872 5.04854 2.32611 7.5291-8.84637 7.10265-17.29408 14.5635-25.1363 22.55105-9.31418-4.32696-21.0649-1.7457-27.70013 4.6538-5.19569 6.65734-7.92612 13.21873-6.83151 20.61378 4.44301-11.04077 13.30033-17.0923 23.58533-13.24291-7.23099 8.60163-13.73694 17.8259-19.25734 27.88317 9.94645-5.36199 19.81416-11.19804 29.45214-17.60129 3.4087 10.47163-5.03748 21.49081-13.50361 23.16941 7.47136.98203 16.19349-2.28829 20.84249-6.77312 6.45659-7.86727 8.83515-16.58886 5.57282-25.44571 7.18088-5.30726 14.18785-10.96706 20.94215-17.04692 2.13144 4.0549 4.43965 7.84255 6.90676 11.24283l-31.15556 61.9571c34.54596 15.97082 82.80953 16.17693 112.99315 0l-30.15356-59.95986c2.66394-3.41875 5.1604-7.2853 7.46217-11.47168 6.13878 5.41387 12.47368 10.49794 18.95458 15.28705-3.2325 8.75351-.1807 19.55039 5.57632 25.43648 6.75068 5.19761 13.37914 7.88703 20.84544 6.77453-10.9516-4.32316-17.20581-12.93968-13.50218-23.17297 9.63654 6.40113 19.5014 12.24146 29.44713 17.60345-5.51825-10.05587-12.00989-19.28724-19.23658-27.88888 10.49655-3.56493 21.80675 4.66204 23.56529 13.24789.9618-7.41609-2.36599-16.0469-6.83134-20.61191-8.56259-6.98057-18.29302-9.0716-27.67955-4.66632-7.16228-7.29953-14.84417-14.14985-22.86459-20.69738 1.38707-3.9234 2.61813-7.94632 3.67309-12.00192 5.6614-1.6831 11.20113-3.65332 16.60486-5.88725l-14.60368-38.40174 26.79179 32.79667c7.14295-3.63198 13.99602-7.7473 20.5213-12.30186l-26.86729-36.07471 37.59961 27.94289c6.54532-5.37122 12.68267-11.21937 18.36983-17.48474l-40.28-30.76248 48.96963 20.40809c5.55405-7.16944 10.55411-14.7888 14.93722-22.79412l-54.04557-21.25746 60.08702 9.11339c3.99948-8.90798 7.26963-18.21327 9.72242-27.84622l-66.44517-6.641 69.26585-6.64101c1.6009-11.38021 2.62735-21.83731 2.45933-31.83715l-75.09044 13.10716 74.33248-26.65569c-1.56029-15.98504-5.38226-31.365923-10.91912-45.765953-18.98035 29.503723-59.83043 52.549453-110.77016 61.850063 9.06822 11.0896 14.63085 25.24585 14.63085 40.67861zm-61.99624-1.98018c.93904 4.32499-1.8301 8.58884-6.18673 9.52207-4.35662.93324-8.64955-1.8167-9.5893-6.14311-.94046-4.32499 1.8294-8.59027 6.69634-9.16741 4.86693-.57713 8.25662 2.00222 9.07969 5.78845z" fill="#775fa0" stroke-width="36"/><path d="m121.73438 123.12109c-31.097229 2.39541-73.854305 19.33652-97.289068 46.61133-18.2274045 21.21417-24.445312 80.26758-24.445312 80.26758.00000124 30.95367 5.6648362 60.57433 15.949219 87.93359 1.268074-36.3206 19.749243-56.5404 45.033203-82.45703 5.253705-19.43577 13.610415-37.86679 24.490234-54.93554-20.258429 17.00037-38.062053 36.50162-52.830078 57.76367 7.746952-67.8879 54.790891-120.91843 116.740232-135.1836-9.48379-.56995-18.83464-.65854-27.64843 0zm296.14257 32.58008c21.43143 19.45997 38.73223 43.61931 49.73828 70.64844-7.78272-2.24603-15.68477-4.01491-23.63476-5.35938 19.69877 26.0897 33.73074 59.13897 24.98437 91.16407-24.10238-80.59815-94.81584-111.85233-160.46484-67.36524 86.96073-23.82052 156.30262 63.23038 146.85352 133.93555-7.20202-32.09138-29.94243-58.22028-59.60157-71.89844 44.93109 46.10933 7.41379 116.29922-39.94531 127.78711 41.895-49.74926 29.00474-135.19134-25.41016-156.58594 35.61349 46.30921 7.88701 101.72937-35.4082 131.4043 2.35438-19.58411 2.42268-43.32523-20.875-50.36523 17.45695 32.56161-16.48663 65.68511-43.03711 58.25586-40.57578-11.35638-46.3924-38.03698-25.80469-67.49415-47.35068 11.47947-49.36837 53.72133-20.87695 86.62696-70.46847-18.76985-50.98227-93.16819-11.11133-114.10938-33.63255-1.99248-66.57112 19.18758-81.662106 58.81446 3.294876-62.11767 42.610796-109.10322 101.978516-90.90039-73.23402-30.85211-148.658164-25.87427-177.632813 47.7207 35.602395 94.65401 126.933523 162.01953 234.033203 162.01953 1.25033-.0375 2.50037-.0844 3.75-.14062 25.18812.72262 49.53253-1.78951 71.50391-9.17188 39.073-16.72645 72.52657-33.4523 100.35937-61.28516 2.73305-3.19218 5.36255-6.43652 7.94727-9.70507 42.70903-46.19141 66.43325-106.78696 66.43945-169.69727 0 0-5.46876-45.59104-19.4715-62.20327-15.12299-17.94126-47.27808-25.00505-62.65155-32.09556z" fill="#856faa" opacity=".666"/></g></svg>