<svg height="500" viewBox="0 0 500 500" width="500" xmlns="http://www.w3.org/2000/svg" xmlns:xlink="http://www.w3.org/1999/xlink"><radialGradient id="a" cx="1362.7291" cy="216.11429" gradientTransform="matrix(1.0000001 -.0000059 .0000001 1.0000003 -112.72927 33.893757)" gradientUnits="userSpaceOnUse" r="250"><stop offset="0" stop-color="#ff851a"/><stop offset=".42441937" stop-color="#f87000"/><stop offset=".86367416" stop-color="#f26900"/><stop offset="1" stop-color="#e55f00"/></radialGradient><filter id="b" color-interpolation-filters="sRGB" height="1.117732" width="1.234783" x="-.117392" y="-.058866"><feGaussianBlur stdDeviation="7.8355875"/></filter><g transform="translate(-1000)"><path d="m1500 250a250 250 0 0 1 -250 250 250 250 0 0 1 -250-250 250 250 0 0 1 250-250 250 250 0 0 1 250 250z" fill="url(#a)"/><path d="m1309.2298 33.82789c128.5196 30.706851 207.8974 167.48127 169.5927 291.56949-31.3771 95.69524-112.8693 162.03793-212.5543 174.60263 153.1796-8.09118 266.0956-163.0043 218.7012-309.92978-36.4562-114.666588-154.6038-191.5214848-270.6514-169.822657-18.8526 4.215647-38.4387 10.498641-55.8829 18.694487-112.5353 47.459213-168.47522 196.206-99.9632 307.85319 57.6978 93.63045 168.5136 141.8489 267.9993 100.77239-134.92 68.97589-303.283-51.46877-311.488-201.30723-4.4167-117.68321 76.8182-219.674136 190.654-246.26040176-89.0147 9.18391126-152.6601 79.39239576-187.7408 157.21169176-38.45522 102.70317 5.2337 231.75078 109.038 294.08388 114.5107 66.1048 260.3537 29.37245 323.6836-83.60152 42.2104-77.69758 34.3514-177.62383-23.1776-249.88923-57.5404-72.257811-157.5429-102.460489-246.4118-71.877168-81.7429 30.682061-131.1298 101.133078-134.0478 190.176958.6692 92.68536 61.7912 168.55972 147.5399 198.52472 128.5549 37.82014 266.7725-70.33038 233.6823-209.88949-14.7104-64.39775-57.8855-122.14991-125.7378-141.121386-71.391-15.467036-138.9716 1.205-181.2869 64.641366-18.8995 29.2286-28.9384 85.21395-26.105 97.65297m0 0c13.5324-50.18833 30.6277-97.66354 72.2125-128.94941 53.182-38.308183 124.4576-37.093813 181.7444-.48035 50.1457 36.48017 75.4845 90.37713 72.3557 150.91678-6.6674 64.04407-38.4038 109.83277-91.6401 141.00844-63.9019 34.56125-135.3795 4.83213-189.1258-35.28385-78.8706-65.48566-79.7477-186.67235-8.9744-256.76104 63.7369-55.941605 167.0207-64.891564 238.7167-6.65053 78.8163 58.35315 90.3045 169.04089 40.972 246.62443-35.2274 56.41892-88.4571 87.60135-152.5581 93.63158-81.9488 2.18264-160.666-41.91503-196.8695-120.9383-36.2055-79.02511-22.5771-164.33167 26.8727-227.66064 49.4316-63.30896 138.3491-86.746364 220.4504-67.54202" fill="#c50"/></g><g stroke-linecap="round" stroke-linejoin="round"><g transform="translate(-28)"><path d="m372.01953 115.89937c9.49851-13.97585 20.67787-33.493323 26.13086-43.109379 15.8884-1.299977 40.79684.952809 43.41211-17.416015 1.44438-9.926128 3.29756-22.200913-3.42578-29.242188-19.68098-14.844636-66.14559-23.4853972-80.27344-4.210937-22.96155 36.19297-41.45633 54.197309-75.56445 72.107422-34.1289-20.602-48.79421-44.697854-63.9336-76.816407-28.98084-29.272605-54.06535-14.5292339-83.8164-4.328124-10.58375 3.528699-15.44224 15.735979-10.17774 25.572265 15.71541 26.249591 20.67205 26.718734 45.65039 21.488281 12.14388 34.976053 29.3209 65.116322 45.78125 98.808592-2.54818 7.16856-10.14038 21.74341-21.99804 31.07227-18.67462 8.27271-35.83692 17.94554-49.70313 31.16992-14.55854 9.01912-22.24299 24.02218-29.92187 36.76172-24.898425 14.79578-23.348116 59.33884-3.47852 71.03906 24.32261 9.93081 48.50943-15.38046 50.37305-34.06836 9.12104-7.41257 16.49859-15.51017 23.59375-27.20703 3.9462-1.4771 7.83719-3.12941 11.72265-5.04297-1.45299 10.45499-.42962 20.46734 3.54395 29.8711 5.28067 10.64198 14.32568 19.30986 25.7373 21.36523 19.26031.95487 30.905-7.60229 39.83204-22.07812 3.31923 6.79005 6.17109 12.7648 7.47656 15.86914-2.12059 14.07603-1.5683 25.26876.84765 37.10742-2.92382 4.10971-6.12556 10.15732-6.2832 19.44922-.14932 17.57462 9.28895 35.7406 24.14453 38.98437 30.79255 3.18685 47.68741-37.49719 40.85157-58.73633 2.97792-15.98021 4.67795-32.67855.34765-46.92578-2.56073-22.04775-.71577-45.00942-7.33008-65.01172-5.58023-20.7354-10.00096-24.19098-2.99023-45.29492 6.64293-20.73611 30.32118-41.84072 49.45117-71.17773z" fill="#994100"/><path d="m205.01222 97.398323c-8.50537-17.9671-22.55265-55.213645-22.55265-55.213645s1.34082-5.913417-33.23996 4.549891l-8.98015-16.774013c17.25468-5.750138 29.08374-13.379647 44.43192-12.436697 6.25599.38435 17.35781 7.248327 17.35781 7.248327s17.27375 37.320654 30.603 52.598177c13.43114 15.3943 30.8528 24.829777 48.29045 37.692787 22.40207-11.65429 38.01608-19.439567 53.83246-33.860248 15.18265-13.842872 38.22765-49.514894 38.22765-49.514894s14.14266-3.374934 21.25907-2.738878c10.82476.967505 26.28724 4.973976 31.09227 9.835371l-1.65557 14.555523c-14.20203.09311-36.45596 2.31769-36.45596 2.31769s-19.1815 34.105339-30.17494 50.255836c-17.13191 26.32669-42.72359 47.90011-51.59105 75.5797-8.29584 24.96813-2.44679 36.35085 2.89212 56.12138 5.13535 15.10576 4.89411 45.73887 6.72222 62.89436 6.02265 16.23614 1.38744 24.47092-1.10136 46.40151 3.46076 5.68539 3.58419 12.99025 1.32997 18.88085-3.35732 8.77309-11.02614 21.3332-20.23279 19.57479-7.5341-1.43897-9.6541-13.31148-9.52363-21 .0975-5.74717 4.79817-11.19243 7.64741-15.44558-4.31144-16.93-5.47137-24.61983-1.68879-44.00829-3.78654-11.58721-20.49833-39.35659-19.91815-46.65078-.0784-6.75937-1.35369-13.17665-3.74851-18.87296-4.05542-9.64873-11.69138-17.49416-21.98423-19.77234-10.29355-2.27724-20.65828 1.58442-28.59052 8.57991-12.71981 9.92818-30.83046 20.5858-44.71668 24.66093-9.35762 17.38599-15.12402 22.58796-29.17726 32.92158-.49269 5.09959-.31016 12.29884-3.87479 16.80065-4.76873 6.02253-13.81165 13.6264-20.65743 10.15933-8.26621-4.18643-7.5989-18.51059-4.95404-27.40903 1.79719-6.04651 6.71129-11.5502 12.9856-13.73887 11.96711-18.52609 13.60186-27.83859 28.53757-36.54674 12.27766-12.08885 28.93593-21.58706 48.10362-29.88736 19.25295-14.28171 30.16499-35.92052 31.42824-48.36806-4.42338-10.45069-20.25079-38.95839-29.92292-59.390207zm21.92083 141.739377c-5.25963 4.63917-9.90526 12.20201-12.04068 21.36831-2.13463 9.16616-1.29498 17.94478 1.39446 24.3423 6.68839 13.42678 17.73826 14.29065 27.32806 6.04846 11.50192-11.97882 16.73253-30.63085 10.6469-45.71156-6.38902-12.75022-16.91973-14.87135-27.32874-6.04751z" fill="#ffa348" stroke-width="36"/></g><path d="m436.02313 414.9773 4.95662-7.56499 33.05833 21.66003c3.50736-18.32637-3.10662-36.80899-14.96161-49.27989l8.03242-12.25939-21.77537-14.26736c11.94338-8.39908 26.02453-12.54246 40.64528-14.60717l9.46876 6.204 4.55244-6.94811-105.72743-69.2733-4.55219 6.94774 10.1905 6.67688c5.35003 15.14172 7.15726 29.67773 4.00995 43.8661l-23.67024-15.50891-7.11102 10.85311c-9.04717-2.21019-19.44066-2.36882-30.96919-.79349 3.09768 11.34242 7.94819 19.69004 14.25018 26.31064l-7.25525 11.07322 86.85794 56.9099z" fill="#994100" stroke-width=".999999"/><g stroke-width="5.96423" transform="matrix(-.15257044 -.06952803 .06952803 -.15257044 -16.289432 56.897136)"><path d="m-252.70452-20.548353c-13.31 57.822003-16.625 100.686003-13.907 156.938003l18.813.03c3.31-49.616 18.56-88.618 45.874-133.000003-4.86-9.134-13.465-14.956-23.813-18.78-8.908-3.293-18.82-4.77-26.967-5.188z" fill="#994100" stroke-width="5.96423"/><path d="m-286.04752 89.04565c-21.7004-8.751943-43.89637-14.582495-66.064-13.939-71.757 2.496-132.96 64.885-131.78 154.688 1.354 103.171 77.474 202.331 165.624 220.031 11.178 2.246 24.934 3.42 37.22 2.282 12.283-1.138 22.775-4.762 28.405-10.156l5.97-5.72 6.405 5.25c5.378 4.426 16.542 8.05 29.125 9.22s26.514.195 37.344-2.188c87.533-19.257 153.047-119.08 151.686-222.718-.677-51.615-19.354-93.606-48.22-120.22-21.647-19.96-48.954-31.508-79.748-31.968-1.284-.02-2.58-.02-3.875 0h.001c-24.4467-.29779-47.34892 9.408364-67.97 17.873-10.65936 4.354247-19.94074 14.55181-31.452 14.283-12.22998-.28559-21.36281-12.051225-32.671-16.718z" fill="#994100" stroke-width="5.96423"/><path d="m-104.04852 114.73265c53.69 32.478 75.357 115.23 37.092 200.626-30.48 68.017-93.18 121.256-140.843 118.75 110.836-66.447 157.724-203.344 103.752-319.377z" fill="#ffa348" filter="url(#b)" opacity=".5" stroke-width="214.712"/></g></g></svg>