<svg height="500" viewBox="0 0 500 500" width="500" xmlns="http://www.w3.org/2000/svg" xmlns:xlink="http://www.w3.org/1999/xlink"><radialGradient id="a" cx="1362.7291" cy="216.11429" gradientTransform="matrix(1.0000001 -.0000059 .0000001 1.0000003 -112.72927 33.893757)" gradientUnits="userSpaceOnUse" r="250"><stop offset="0" stop-color="#ff851a"/><stop offset=".42441937" stop-color="#f87000"/><stop offset=".86367416" stop-color="#f26900"/><stop offset="1" stop-color="#e55f00"/></radialGradient><g transform="translate(-1000)"><path d="m1500 250a250 250 0 0 1 -250 250 250 250 0 0 1 -250-250 250 250 0 0 1 250-250 250 250 0 0 1 250 250z" fill="url(#a)"/><path d="m1309.2298 33.82789c128.5196 30.706851 207.8974 167.48127 169.5927 291.56949-31.3771 95.69524-112.8693 162.03793-212.5543 174.60263 153.1796-8.09118 266.0956-163.0043 218.7012-309.92978-36.4562-114.666588-154.6038-191.5214848-270.6514-169.822657-18.8526 4.215647-38.4387 10.498641-55.8829 18.694487-112.5353 47.459213-168.47522 196.206-99.9632 307.85319 57.6978 93.63045 168.5136 141.8489 267.9993 100.77239-134.92 68.97589-303.283-51.46877-311.488-201.30723-4.4167-117.68321 76.8182-219.674136 190.654-246.26040176-89.0147 9.18391126-152.6601 79.39239576-187.7408 157.21169176-38.45522 102.70317 5.2337 231.75078 109.038 294.08388 114.5107 66.1048 260.3537 29.37245 323.6836-83.60152 42.2104-77.69758 34.3514-177.62383-23.1776-249.88923-57.5404-72.257811-157.5429-102.460489-246.4118-71.877168-81.7429 30.682061-131.1298 101.133078-134.0478 190.176958.6692 92.68536 61.7912 168.55972 147.5399 198.52472 128.5549 37.82014 266.7725-70.33038 233.6823-209.88949-14.7104-64.39775-57.8855-122.14991-125.7378-141.121386-71.391-15.467036-138.9716 1.205-181.2869 64.641366-18.8995 29.2286-28.9384 85.21395-26.105 97.65297m0 0c13.5324-50.18833 30.6277-97.66354 72.2125-128.94941 53.182-38.308183 124.4576-37.093813 181.7444-.48035 50.1457 36.48017 75.4845 90.37713 72.3557 150.91678-6.6674 64.04407-38.4038 109.83277-91.6401 141.00844-63.9019 34.56125-135.3795 4.83213-189.1258-35.28385-78.8706-65.48566-79.7477-186.67235-8.9744-256.76104 63.7369-55.941605 167.0207-64.891564 238.7167-6.65053 78.8163 58.35315 90.3045 169.04089 40.972 246.62443-35.2274 56.41892-88.4571 87.60135-152.5581 93.63158-81.9488 2.18264-160.666-41.91503-196.8695-120.9383-36.2055-79.02511-22.5771-164.33167 26.8727-227.66064 49.4316-63.30896 138.3491-86.746364 220.4504-67.54202" fill="#c50"/></g><g><path d="m249.81445 69.359375v.001953c-99.6779 0-180.656247 81.009642-180.656247 180.685552 0 99.6499 80.976397 180.65625 180.654297 180.65624 99.6769 0 180.6875-80.98034 180.6875-180.65624 0-45.94396-17.21328-87.90358-45.53125-119.81055-1.284-1.8-2.58255-3.59571-3.93555-5.34571l-.56445.43946c-32.91697-34.473968-79.30535-55.970705-130.6543-55.970705zm0 18.6875c47.58996 0 90.34878 20.441285 119.96875 53.031245 13.16399 18.44699 22.2078 39.74303 25.8418 62 10.11199 61.70394-26.61561 129.94822-91.06055 139.53321-41.48296 6.18199-87.31425-18.81645-93.03125-61.94141-1.765-13.30798 1.51956-27.71231 8.68555-38.7793 7.16999-11.06698 17.73642-18.71929 31.44141-20.27929 7.97699-.908 16.7728 1.2208 23.34179 5.59179 6.57 4.37 10.85375 10.44251 11.59375 18.4375v.0293c.094.995.085 2.02246 0 3.06446-3.71199-3.68-8.7985-5.9375-14.4375-5.9375-11.34399 0-20.56445 9.1893-20.56445 20.52929 0 11.34399 9.22146 20.53321 20.56445 20.53321 3.624 0 7.0098-.94671 9.9668-2.59571 7.02199-2.2 12.792-6.88675 16.625-12.46875 5-7.27499 7.29275-16.08501 6.46875-24.875-1.3-14.01598-9.43201-25.3323-19.875-32.2793-10.44199-6.94699-23.25751-10.04999-35.8125-8.625-19.63998 2.238-35.30201 13.74472-45 28.72071-9.69799 14.97298-13.90629 33.48631-11.5293 51.40429 7.274 54.86295 63.56065 85.5337 114.3086 77.97071 54.57294-8.11699 91.78421-50.96305 104.1582-100.75-5.30799 84.75691-75.53938 151.68554-161.6543 151.68555-89.57991 0-161.9707-72.44509-161.9707-162 0-89.58292 72.39079-162.000005 161.9707-162.000005z" fill="#ffa348" opacity=".9"/><g stroke-width="1.54426" transform="matrix(.64756087 0 0 .64756087 88.10978 85.388)"><path d="m187.85546 273.98047c2.62161 32.74827 6.00182 65.46492 7.68946 98.23437 1.73346 42.57091 2.0735 85.18348 2.33399 127.78516h104.24414c.68048-42.60545.39845-85.27577 2.33398-127.78516 2.50091-32.67241 3.7589-65.74615 7.6875-98.23242 0 0 12.48218-119.56117-17.84666-166.3687-3.27427-5.0533-9.79299-7.5269-15.60587-9.097623-18.46556-4.989678-38.91769-4.990396-57.38349-.0016-5.81299 1.570453-12.33196 4.043793-15.60636 9.097063-30.32981 46.80698-17.84669 166.36891-17.84669 166.36891z" fill="#994100"/><path d="m221.06343 121.13834s-2.69149 27.83532-4.99209 41.61609c-2.21281 13.25493-5.62842 26.2808-8.4612 39.4172-1.37598 6.38081-3.61284 12.63285-4.14597 19.13852-1.4807 18.06885 2.70757 54.32083 2.70757 54.32083s5.80209 63.75098 7.3525 95.71109c1.78763 36.85049 2.24402 110.65871 2.24402 110.65871h68.46502s.45639-73.80822 2.24402-110.65871c1.55041-31.96011 7.3525-95.71109 7.3525-95.71109s4.18827-36.25198 2.70757-54.32083c-.53313-6.50567-2.76999-12.75771-4.14597-19.13852-2.83278-13.1364-6.24839-26.16227-8.4612-39.4172-2.3006-13.78077-4.99209-41.61609-4.99209-41.61609s-19.19652-4.07203-28.93733-4.07203c-9.74082 0-28.93735 4.07203-28.93735 4.07203z" fill="#ffa348"/><path d="m239.26356 500.00001 3.86114-125.88731c1.78321-58.13921 6.87607-74.57916 6.87607-74.57916s4.9396 16.44485 6.87607 74.57916l3.86114 125.88731z" fill="#994100"/><g stroke-width="1.54426"><path d="m283.99998 163.08008-.006 45.18892c-11.4908-1.0578-32.02883-3.01377-35.8748-3.57173-14.38277-1.17324-24.0882 4.20362-29.9043 18.1543-8.89377 23.87993 10.01538 34.08464 25.08203 39.53906 19.97362 7.29541 36.65096 5.77622 56.13086 10.25586 29.22204 6.76459 53.39574-12.72008 53.17383-36.85352l-3.31055-66.99414c-8.42671-34.70889-37.6622-56.42625-65.05468-64.86328h-.00006l-1.7446 18.41278z" fill="#994100"/><path d="m283.9998 163.08019 20.15256 65.07098c-16.92239-1.58809-54.15164-4.99986-54.15164-4.99986s-7.32886-1.90979-10.1024 0c-4.22832 2.91153-7.30468 9.5842-5.49403 14.38807 2.00248 5.31284-.28945 2.33388 15.06761 7.94311 15.35707 5.60921 32.04677 4.57618 54.00356 9.6255 20.05302 4.6421 31.2218-9.36567 31.13718-18.81277l-3.04602-64.9081c-5.42288-21.87632-28.71917-41.41547-49.07491-49.03879-10.7058-1.67373-30.89913 5.30224-32.49093 12.71808-1.76214 14.57837 33.99902 28.01378 33.99902 28.01378z" fill="#ffa348"/></g><g stroke-width="1.54426"><path d="m217.50913 122.3485-1.74353-18.41295c-27.39248 8.43703-56.63088 30.15522-64.80273 63.12109-1.97096 22.4927-2.49515 45.91003-3.56445 68.73633-.22282 24.12971 23.94526 43.61181 53.17383 36.85352 24.45733-5.62641 34.19191-13.31224 46.99414-17.98828 15.72905-5.17134 30.36837-13.74364 35.29882-29.61133 4.38845-14.91276-3.33926-26.34056-12.55468-34.29492-17.31557-10.5889-40.26772 3.12414-53.97568 10.52295l-.33292-38.19288z" fill="#994100"/><path d="m216.00154 163.08019-20.15256 65.07098c16.92239-1.58809 54.15164-22.57395 54.15164-22.57395s7.32886-1.90979 10.1024 0c4.22832 2.91153 6.94332 9.46311 5.49403 14.38807-2.82654 9.60512-8.84908 12.17537-24.20614 17.7846-15.35707 5.60921-22.90824 12.30878-44.86503 17.3581-20.05302 4.6421-31.2218-9.36567-31.13718-18.81277l3.04602-64.9081c5.46784-22.05768 28.59829-41.55114 49.07441-49.03862 10.86735-1.64868 30.90129 5.30895 32.49165 12.71791 1.76219 14.57842-33.99924 28.01378-33.99924 28.01378z" fill="#ffa348"/></g><path d="m249.99998 8.406251c-31.1379 0-53.62109 29.546395-53.62109 63.296875 0 33.795974 22.48318 63.363284 53.62109 63.363284s53.62305-29.56731 53.62305-63.363284c0-33.75048-22.48515-63.296875-53.62305-63.296875z" fill="#994100"/><path d="m250.00072 26.406708c-18.69924 0-35.62161 19.382838-35.62161 45.297228 0 25.97952 16.92237 45.362374 35.62161 45.362374 18.69925 0 35.62162-19.382854 35.62162-45.362374 0-25.91439-16.92237-45.297228-35.62162-45.297228z" fill="#ffa348"/></g><path d="m240.5935 14.797501c-14.586.572-28.81 2.492-42.594 5.594l9.5 35.438c10.742-2.328 21.784-3.8 33.094-4.313v-36.72zm18.688 0v36.72c11.26.532 22.273 2.01 32.97 4.343l9.53-35.532c-13.753-3.082-27.95-4.97-42.5-5.532zm60.562 10.313-9.53 35.592998c10.674 3.416 20.973 7.725 30.78 12.812l18.47-31.969998c-12.604-6.63-25.893-12.154-39.72-16.436zm-139.875.06c-13.773 4.28-27.004 9.798-39.56 16.407l18.343 31.749998c9.796-5.057 20.06-9.327 30.718-12.718l-9.5-35.439998zm195.719 25.721-18.47 31.999998c9.345 6.022 18.162 12.792 26.345 20.250001l26.156-26.156001c-10.5-9.696-21.89-18.422998-34.03-26.093998zm-251.47.063c-12.167 7.697-23.573 16.454998-34.093 26.186998l25.876 25.875001c8.233-7.492001 17.125-14.273001 26.53-20.313001l-18.312-31.749998zm298.69 39.248998-26.16 26.158001c7.467 8.202 14.288 17.005 20.313 26.374l32-18.47c-7.685-12.147-16.443-23.556-26.156-34.060001zm-345.97.157c-9.647 10.453001-18.36 21.797001-26 33.874001l31.656 18.28c6.015-9.322 12.775-18.114 20.22-26.28l-25.876-25.873001zm-35.374999 50.060001c-6.64 12.616-12.183 25.91-16.47 39.75l35.249999 9.44c3.43-10.743 7.755-21.076 12.876-30.94l-31.654999-18.25zm416.874999 0-32.063 18.5c5.08 9.818 9.376 20.097 12.782 30.782l35.75-9.562c-4.285-13.826-9.838-27.117-16.47-39.72zm-438.124999 57.784c-3.075 13.723-4.964 27.89-5.53 42.407h36.404999c.53-11.257 2.016-22.28 4.344-32.97l-35.219999-9.438zm459.374999 0-35.72 9.563c2.313 10.652 3.787 21.632 4.314 32.844h36.937c-.566-14.518-2.455-28.685-5.53-42.407zm-464.905999 61.093c.566 14.585 2.466 28.81 5.562 42.594l35.187999-9.406c-2.344-10.766-3.824-21.85-4.344-33.188zm433.499999 0c-.517 11.294-1.986 22.336-4.313 33.063l35.69 9.56c3.1-13.79 4.995-28.03 5.56-42.624h-36.936zm-9.125 51.125c-3.386 10.626-7.648 20.86-12.69 30.626l32 18.47c6.6-12.55 12.103-25.772 16.376-39.532l-35.687-9.563zm-378.814.095-35.219999 9.438c4.277 13.774 9.832 27.003 16.44 39.562l31.561999-18.22c-5.082-9.812-9.373-20.1-12.782-30.78zm356.813 46.72c-6.05 9.426-12.87 18.31-20.376 26.56l26.062 26.064c9.76-10.55 18.567-21.983 26.28-34.19l-31.967-18.436zm-334.69.25-31.59 18.214c7.672 12.136 16.43 23.503 26.126 34l25.812-25.812c-7.483-8.21-14.307-17.027-20.344-26.406zm301.126 39.53c-8.177 7.454-17.007 14.198-26.344 20.22l18.407 31.905c12.124-7.66 23.476-16.413 33.967-26.094l-26.03-26.03zm-267.594.094-25.78 25.78c10.514 9.72 21.903 18.5 34.062 26.188l18.25-31.625c-9.412-6.044-18.294-12.846-26.53-20.344zm225.125 29.53c-9.812 5.092-20.13 9.363-30.812 12.78l9.5 35.47c13.816-4.278 27.093-9.815 39.688-16.438l-18.375-31.812zm-182.406.188-18.25 31.625c12.54 6.595 25.75 12.103 39.5 16.375l9.47-35.313c-10.655-3.392-20.926-7.63-30.72-12.688zm133.564 17.437c-10.706 2.337-21.728 3.81-33 4.344v36.592c14.54-.562 28.724-2.453 42.47-5.53l-9.47-35.407zm-84.78.063-9.47 35.28c13.773 3.1 27.988 5.023 42.562 5.594v-36.562c-11.31-.512-22.353-1.985-33.094-4.313z" fill="#ffa348"/><path d="m254.24609 202.69141c-1.57237.03796-3.14547.14609-4.71484.32421-19.63996 2.238-35.30202 13.74473-45 28.72071-5.10492 7.88162-8.64204 16.75376-10.54492 25.99414 4.33213 3.04875 9.74265 4.93864 15.77148 5.07422v.00195c1.69765 21.20646 3.88567 42.3931 4.97852 63.61328.04206 1.033.06394 2.06654.10351 3.09961 17.50788 19.10211 43.09887 30.5143 69.46485 32.36133.09061-6.24018.21767-12.47863.38867-18.71289-35.12695-2.84034-68.34942-26.20928-73.16016-62.49805-1.765-13.30796 1.51957-27.71232 8.68555-38.7793 7.16998-11.06696 17.73643-18.71929 31.44141-20.27929 7.97698-.908 16.77281 1.22081 23.34179 5.59179 6.57 4.37 10.85375 10.44252 11.59375 18.4375v.0293c.094.995.085 2.02246 0 3.06446-3.71198-3.68-8.7985-5.9375-14.4375-5.9375-11.34398 0-20.56445 9.18931-20.56445 20.52929 0 11.34398 9.22147 20.5332 20.56445 20.53321 3.624 0 7.0098-.94671 9.9668-2.59571 2.34989-.73622 4.49722-1.8309 6.54102-3.06445.45023-5.14573.95821-10.28061 1.57617-15.39063v-.00195c4.87793-.10933 9.35182-1.37012 13.18164-3.45703 1.64348-4.93202 2.28696-10.18084 1.79492-15.42969-1.3-14.01596-9.43202-25.3323-19.875-32.2793-9.13673-6.07861-20.09107-9.21493-31.09766-8.94921zm29.51368 205.76367c-1.14463.24346-2.28596.49369-3.43946.71289h3.43164c.0038-.23756.00411-.47533.00782-.71289zm-67.51758.09961c.00125.20442.00461.40885.00586.61328h3.17968c-1.06319-.20132-2.12986-.39134-3.18554-.61328z" fill="#ffbe80" opacity=".5"/></g></svg>