<svg height="500" viewBox="0 0 500 500" width="500" xmlns="http://www.w3.org/2000/svg" xmlns:xlink="http://www.w3.org/1999/xlink"><g transform="translate(0 -1000)"><path d="m0 1250a250 250 0 0 1 -250 250 250 250 0 0 1 -250-250 250 250 0 0 1 250-250 250 250 0 0 1 250 250z" fill="#9db3df" transform="scale(-1 1)"/><path d="m263.85417 1289.4759c11.1612 3.7204 14.8816-7.4408 18.46913-11.0283 7.04219-8.7696 15.28021-26.0428 14.48299-54.6102-10.49685-61.1209-92.21278-68.5617-125.69638-20.1965-11.1612 18.602-11.1612 33.4836-14.8816 52.0856 0 29.7632 14.8816 52.0856 40.9244 70.6876 11.1612 11.1612 26.0428 11.1612 37.204 14.8816 70.6876 11.1612 130.214-48.3652 119.0528-119.0528-7.4408-29.7632-22.3224-59.5264-48.3652-78.1284-44.6448-29.7632-96.7304-29.7632-137.6548-3.7204-18.602 11.1612-29.7632 22.3224-40.9244 40.9244-63.2468 100.4508 26.0428 219.3708 133.9344 208.2096 22.3224 0 40.9244-11.1612 63.2468-18.602 22.3224-14.8816 44.6448-37.204 59.5264-59.5264 40.92441-78.1284 7.4408-171.0056-66.9672-215.6504-26.0428-11.1612-52.0856-22.3224-81.8488-22.3224-37.204 0-70.6876 11.1612-100.4508 33.4836-33.4836 26.0428-52.0856 59.5264-66.9672 96.7304-7.4408 14.8816-3.7204 33.4836-7.4408 52.0856 0 119.0528 126.4936 215.6504 241.69313 174.726 29.7632-14.8816 63.2468-26.0428 89.2896-52.0856 22.3224-29.7632 44.6448-59.5264 52.0856-96.7304 3.7204-26.0428 7.4408-44.6448 3.7204-70.6876-18.602-152.5364-189.60753-234.25236-319.82153-156.2568-22.3224 14.8816-44.6448 29.7632-59.5264 52.0856-29.7632 37.204-44.6448 74.408-52.0856 119.0528-18.602 137.6548 96.7304 260.2951 230.53193 260.2951 29.7632 0 63.2468-11.1612 93.01-18.602 37.204-14.8816 70.6876-33.4836 96.7304-66.9672 18.602-26.0428 29.7632-52.0856 44.6448-81.8488 11.1612-33.4836 18.602-70.6876 14.8816-104.1712-7.4408-44.6448-18.602-85.5692-44.6448-119.0528 96.59753 111.7449 44.51193 297.7649-81.8488 364.7321-22.3224 14.8816-48.3652 18.602-70.6876 26.0428-89.2896 22.3224-178.44633-14.8816-234.25233-78.1284-14.8816-14.8816-18.602-33.4836-29.7632-52.0856-48.3652-70.6876-33.4836-152.5364 3.7204-226.8116 52.0856-89.2896 159.9772-130.21396 264.01553-100.4508 63.2468 18.602 115.3324 63.2468 141.3752 126.4936 7.4408 29.7632 14.8816 59.5264 14.8816 89.2896 0 37.204-11.1612 70.6876-29.7632 104.1712-14.8816 22.3224-26.0428 40.9244-48.3652 55.806-18.602 11.1612-33.4836 18.602-52.0856 29.7632-33.4836 11.1612-70.6876 18.602-111.612 14.8816-122.7732-18.602-200.76873-148.816-156.2568-267.7359 14.8816-29.7632 29.7632-59.5264 55.806-78.1284 55.806-40.9244 119.0528-52.0856 185.88713-29.7632 100.4508 40.9244 148.816 156.2568 89.2896 245.4135-11.1612 18.602-18.602 33.4836-33.4836 48.3652-55.806 40.9244-130.214 55.806-189.60753 18.602-14.8816-14.8816-33.4836-18.602-44.6448-37.204-44.6448-66.9672-44.6448-156.2568 18.602-211.9299 63.2468-55.806 174.72593-40.9244 215.65033 37.204 7.4408 22.3224 18.602 40.9244 14.8816 66.9672 0 22.3224-11.1612 40.9244-14.8816 59.5264-26.0428 55.806-96.7304 74.408-152.5364 55.806-18.602-11.1612-40.9244-18.602-52.0856-37.204-48.3652-70.6876-7.4408-178.4463 85.5692-174.7259 22.3224 0 44.6448 14.8816 63.2468 26.0428 29.7632 22.3224 33.4836 55.806 29.7632 89.2896-11.1612 48.3652-63.2468 70.6876-111.612 59.5264-22.3224-7.4408-37.204-29.7632-44.6448-52.0856-3.7204-26.0428 3.7204-48.3652 22.3224-66.9672 33.4836-33.4836 89.2896-7.4408 96.7304 37.204-3.7204 18.602-14.8816 37.204-29.7632 52.0856" fill="#c6d2ec" opacity=".9"/><path d="m262.92407 1285.7555c10.2311 3.4546 13.68576-6.7765 17.00754-10.0982 6.37783-7.8395 13.9515-23.6512 13.15428-49.9597-9.56675-56.2046-84.77198-62.9811-115.59815-18.602-10.2311 17.1404-10.2311 30.6933-13.68576 47.8337 0 27.3715 13.68576 47.8337 37.60262 64.9741 10.2311 10.2311 23.91686 10.2311 34.14796 13.6858 64.97413 10.2311 119.58428-44.3791 109.35318-109.3532-6.77644-27.3715-20.4622-54.743-44.37905-71.7506-41.05728-27.3715-88.89099-27.3715-126.49361-3.4546-17.14041 10.2311-27.37151 20.4622-37.60261 37.6026-58.06482 92.3456 23.91686 201.6988 123.03894 191.3349 20.4622 0 37.60262-10.2311 58.06482-17.1405 20.4622-13.6857 41.05727-34.1479 54.74303-54.743 37.60261-71.7506 6.77644-157.1869-61.51947-198.2442-23.91686-10.2311-47.83372-20.4622-75.20523-20.4622-34.14796 0-64.97413 10.2311-92.21278 30.8262-30.6933 23.9169-47.83371 54.743-61.51947 88.891-6.77644 13.6858-3.45466 30.6933-6.77644 47.8337 0 109.3532 116.2625 198.2442 222.16103 160.6416 27.37151-13.6858 58.06481-23.9169 81.98167-47.8337 20.4622-27.3716 41.05727-54.7431 47.83372-88.891 3.45465-23.9169 6.77644-41.0573 3.45465-64.9742-17.14041-140.0464-174.32731-215.25168-293.9116-143.5011-20.4622 13.6858-41.05727 27.3715-54.74303 47.8337-27.37151 34.148-41.05727 68.2959-47.83371 109.3532-17.14042 126.4936 88.89098 239.3014 211.92993 239.3014 27.37151 0 58.06481-10.2311 85.43633-17.1404 34.14795-13.6857 64.97413-30.8261 88.89098-61.5194 17.14042-23.9169 27.37152-47.8338 41.05728-75.2053 10.2311-30.6933 17.14041-64.9741 13.68575-95.6674-6.77644-41.0573-17.14041-78.6599-41.05727-109.3532 88.89099 102.5768 41.05727 273.4494-75.20523 334.9689-20.4622 13.6857-44.37906 17.1404-64.97413 23.9168-81.98167 20.4622-164.09621-13.6857-215.25171-71.7505-13.68576-13.6858-17.14042-30.6933-27.37152-47.8337-44.37906-64.9742-30.6933-140.1794 3.45466-208.4753 47.83371-81.9817 146.9558-119.5843 242.62323-92.2128 58.06481 17.1404 105.89853 58.0648 129.81539 116.2625 6.77644 27.3715 13.68575 54.743 13.68575 81.9817 0 34.1479-10.2311 64.9741-27.37151 95.6674-13.68576 20.4622-23.91686 37.6026-44.37906 51.2884-17.14041 10.2311-30.6933 17.1404-47.83371 27.3715-30.82617 10.2311-64.97413 17.1404-102.57675 13.6858-112.80784-17.1405-184.55841-136.7247-143.50114-246.0779 13.68576-27.3715 27.37151-54.7431 51.28837-71.7506 51.28837-37.6026 109.35319-47.8337 170.87266-27.3715 92.21277 37.6026 136.7247 143.5011 81.98167 225.6157-10.2311 17.1404-17.14041 30.6933-30.82617 44.379-51.28837 37.6026-119.58429 51.2884-174.32732 17.1404-13.68575-13.6857-30.82617-17.1404-41.05727-34.1479-41.05727-61.5195-41.05727-143.5012 17.14042-194.7895 58.19768-51.5541 160.77443-37.8684 198.37704 33.8822 6.77644 20.4622 17.14042 37.6026 13.68576 61.5195 0 20.4622-10.2311 37.6026-13.68576 54.743-23.91686 51.2884-88.89099 68.2959-140.17936 51.2884-17.14041-10.2311-37.60261-17.1405-47.83371-34.148-44.37906-64.9741-6.77644-164.0962 78.65988-160.6416 20.4622 0 41.05728 13.6858 58.06482 23.9169 27.37151 20.4622 30.6933 51.2884 27.37151 81.9817-10.2311 44.379-58.06481 64.9741-102.57674 54.743-20.4622-6.7764-34.14796-27.3715-41.05727-47.8337-3.45466-23.9169 3.45466-44.3791 20.4622-61.5195 30.6933-30.8262 81.98167-6.7764 88.89099 34.148-3.45466 17.1404-13.68576 34.1479-27.37152 47.8337" fill="#ecf0f9" opacity=".9"/><path d="m226.91591 1287.6157c5.31486 10.4968 15.8117 5.3148 20.86082 5.3148 10.62971-1.0629 28.56735-7.4408 48.23233-28.3016 35.87528-50.624-16.7418-113.7379-74.54088-103.2411-20.99368 5.3149-31.49052 15.8117-47.30222 26.3086-20.99369 20.9937-26.30855 47.3022-20.99369 78.9256 0 15.8117 10.49684 26.3085 15.8117 36.8054 42.12024 57.7991 126.22786 57.7991 168.3481 0 15.8117-26.3086 26.30854-57.7991 20.99369-89.4225-10.49685-52.6171-47.30223-89.4225-94.60446-99.9193-20.99369-5.3149-36.80539-5.3149-57.79907 0-115.73102 26.3085-136.7247 173.5301-52.61709 241.9589 15.8117 15.8117 36.80539 20.9937 57.79907 31.4905 26.30855 5.3149 57.79907 5.3149 84.10762 0 84.10761-26.3085 126.22786-115.731 105.23417-199.8386-10.49684-26.3086-20.99369-52.6171-42.12024-73.6108-26.30855-26.3085-57.79907-42.1202-94.60446-47.3022-42.12024-5.3149-78.92563 5.3148-115.73102 20.9937-15.8117 5.3148-26.30854 20.9936-42.12024 31.4905-84.10761 84.1076-63.11393 241.9589 47.30223 294.5759 31.49053 10.4969 63.11393 26.3086 99.91931 26.3086 36.80539-5.3149 73.61078-10.4969 105.23418-31.6234 20.99368-15.8117 36.80538-26.3086 52.61708-47.3022 94.60446-120.913 31.49053-299.758-115.73101-336.5634-26.30855-5.3148-52.61709-10.4968-78.92563-5.3148-47.30223 5.3148-84.10762 20.9937-120.913 47.3022-110.41616 84.1076-115.73102 252.4557-20.99369 347.0602 20.99369 20.9937 52.61709 36.8054 78.92563 52.6171 36.80539 15.8117 73.61077 26.3085 115.73102 20.9936 31.49053-5.3148 57.79907-15.8117 89.42247-26.3085 31.49053-15.8117 63.11393-36.8054 84.10761-63.1139 26.30855-36.8054 47.30223-73.6108 52.61709-115.731-10.76259 147.4872-179.11069 242.2246-315.83539 200.1043-26.30854-5.3148-47.30223-20.9937-68.42879-31.4905-78.92562-47.3022-115.73101-136.7247-110.41615-220.8323 0-20.9937 10.49684-36.8054 15.8117-57.7991 15.8117-84.1076 84.10761-131.5427 163.03324-157.7184 99.91932-26.30852 205.15349 20.9937 257.77058 115.731 31.49052 57.7991 36.80538 126.2279 10.49684 189.3418-15.8117 26.3086-31.49053 52.6171-52.61709 73.6108-26.30854 26.3085-57.79907 42.1202-94.60446 52.6171-26.30854 5.3148-47.30223 10.4968-73.61077 5.3148-20.99368-5.3148-36.80538-10.4968-57.79907-15.8117-31.49053-15.8117-63.11393-36.8053-89.42247-68.4287-73.61078-99.9194-36.80539-247.1409 78.92563-299.758 31.49053-10.4968 63.11393-20.9937 94.60445-15.8117 68.42879 10.4969 120.91301 47.3022 152.53641 110.4162 42.12024 99.9193-5.31486 215.6503-110.41616 236.644-20.99369 5.3148-36.80539 10.4968-57.79907 10.4968-68.42879-10.4968-131.54272-52.6171-147.22155-120.913 0-20.9937-10.49684-36.8054-5.31486-57.799 15.8117-78.9257 78.92563-142.0396 163.03325-136.7247 84.10761 5.3148 152.5364 94.6044 126.22786 178.8449-10.49685 20.9937-15.8117 42.1202-36.80539 57.7991-15.8117 15.8117-36.80538 20.9937-52.61708 31.4905-57.79908 20.9937-120.91301-15.8117-147.22155-68.4288-5.31486-20.9937-15.8117-42.1202-10.49684-63.1139 15.8117-84.1076 120.913-131.5427 184.02693-63.1139 15.67883 15.6788 20.86081 41.9873 26.17567 62.981 5.31486 36.8054-15.8117 63.1139-42.12024 84.1076-42.12025 26.3086-94.60446 5.3149-120.913-36.8054-10.49685-20.9936-5.31486-47.3022 5.31485-68.4287 15.8117-20.9937 36.80539-31.4906 63.11393-31.4906 23.98451 0 41.23931 14.86 48.993 34.3086 7.53814 18.9078 6.09609 42.1526-6.87275 60.2959-15.81171 10.4968-36.80539 15.8117-57.79908 15.8117" fill="#fff" opacity=".9"/></g><g><use opacity=".85" transform="translate(180.76758)" xlink:href="#a"/><g id="a" transform="translate(-24.736328 -11.590699)"><path d="m296.88672 484.41992-21.89258-89.36523c9.59745-.2662 18.39153-4.00002 25.17264-9.98154 11.87632-12.93203 13.44801-18.83011 12.22775-34.85831 11.34597-8.11177 21.23433-18.09592 31.57422-27.42773l-80.79297-94.62891 20.01758-9.42187-33.28808-47.64063s-18.40665-35.23717-33.28809-47.64062c-9.0838-7.5712-21.01846-15.02196-32.26517-14.74805-11.59414.28196-24.16685 7.35029-33.64112 15.20313-14.85028 12.3088-33.1992 47.39355-33.1992 47.39355l-33.1992 47.39356 21.60938 10.23046-81.185552 95.09375 31.550781 23.76758c-2.273081 12.25275 3.202932 27.09198 10.495482 34.87373 6.91158 7.17136 16.451619 11.81157 26.965456 12.31182l-21.904297 89.44531z" fill="#7896d3"/><path d="m163.89474 135.93659c-11.78599 9.84065-26.32715 37.79699-26.32715 37.79699l-26.32714 37.79699 55.5391 26.29388s-20.18903 8.13298-25.22065 1.38237c-3.35849-4.50588-4.51677-9.91266-4.1758-15.29953 1.06458-16.81907 16.93509-36.21888 27.64767-50.11551 4.84764-6.28848 13.35704-13.56905 19.63479-13.48614 6.27775.0829 14.47286 7.51733 19.14875 13.85922 13.58309 18.42269 35.95426 46.88821 22.01377 65.04196-5.07179 6.60464-24.92874-1.62993-24.92874-1.62993l29.26869-13.77664 26.06864-12.27039-26.39404-37.88679s-14.62075-27.97293-26.39404-37.88679c-5.45025-4.58946-13.16482-9.20608-19.36302-9.05475-6.14596.14917-14.50983 4.49174-20.19083 9.23506zm-69.110317 330.48286h77.629537l11.15718-184.66098 12.69976 184.66241h77.6739l-49.90471-203.71134 33.24834 79.50767 51.29058-11.73745 10.32938-9.32269-75.72922-88.698c-19.89955 9.34424-39.76943 18.75174-59.67528 28.08257-19.2087-9.08653-38.41216-18.18418-57.61758-27.27766l-75.03734 87.89238 13.415241 10.10614 47.243119 10.77512 33.02439-78.74639zm-21.196795-111.25564c0 12.1517 9.850006 22.001 22.00099 22.001 2.685914 0 5.268082-.48367 7.648482-1.36371l5.07418-20.77252-33.314163-7.60126c-.905796 2.4076-1.409489 5.01481-1.409489 7.73649zm186.897572.0451 4.9411 20.23376c2.61149 1.09755 5.48414 1.72216 8.49631 1.72216 12.15171 0 22.001-9.8493 22.001-22.001 0-2.72598-.50513-5.32889-1.40914-7.73613z" fill="#fff" stroke-width="36"/><path d="m136.19893 224.89554 2.52959 20.04587c2.50111 13.25148 5.37227 21.99632 9.93554 34.39062 2.08199 12.89767 6.3122 24.12525 13.13281 35.6875 6.4395 10.2585 9.68044 21.99639 13.76368 33.3125l11.46777-13.50586c15.2977-18.01485 20.04073-26.17882 24.12304-35.36717 4.23037-4.19151 5.64049-10.24969 7.2959-15.57616 2.48342-8.18517 4.33807-15.6834 5.0371-23.5957l2.03516.16406c1.65514-5.01913 3.18424-10.23129 4.45508-15.50586l-1.69262-20.25733s-20.0969-10.74036-31.11794-11.29781c-4.39893-.2225-12.81202 3.23313-12.81202 3.23313l-16.86417-2.81146" fill="#7896d3"/><path d="m184.35202 225.29438c-4.82656 4.04563-9.2779 8.86192-14.91684 11.7262-4.07676 2.07078-8.94396 3.01569-13.20679 3.70858 1.60483 6.66863 2.96974 15.11355 5.32433 21.50997 1.14441-2.24555 3.22589-6.09729 4.30454-8.37686-.6314 4.72928-.96489 9.49693-.6051 14.22187.54764 7.19189 1.99447 14.34176 4.16841 20.99914 2.02285 6.19469 8.12514 17.22051 8.12514 17.22051l.1728-8.13192c.68461 5.3294 2.48393 9.99219 4.22931 14.82878 5.54183-6.52648 9.09394-12.61071 12.73646-20.80811l1.00503-11.7195 2.29958 6.69685c1.06077-.96749 5.3749-14.53419 6.7784-22.31799 1.28306-7.11586 1.02602-14.56211 1.42065-21.84317.81556 3.91271 1.60481 7.82544 2.2362 11.8062 1.5259-4.62722 2.92024-9.39051 4.0515-14.08577-4.58107-1.05336-9.13003-1.6378-13.20679-3.70858-5.63894-2.86428-10.9312-7.05205-14.91683-11.7262z" fill="#fff" stroke-width="36"/><path d="m184.35152 231.6739c6.75499 4.02815 14.52105 6.75258 20.70136 8.13797 7.41554 1.63343 11.08311 1.69319 18.59571.13941 6.39364-1.32306 10.34633-10.86103 6.51944-16.15103-3.24073-4.47842-7.82979-8.37617-14.49601-12.93686-5.11913-3.50223-11.30971-6.14251-18.26562-6.47266-4.60617-.15362-9.6122 1.32447-13.15234 2.70313-3.29988-1.0053-6.99959-2.59773-10.67423-2.77906-9.01901-.7864-16.95967 4.45632-24.07397 9.24379-4.33218 2.87276-7.64369 5.02078-12.12276 10.3487-4.38457 5.21666-2.91368 14.35829 3.75948 15.73919 7.89647 1.63318 14.32604 1.96909 23.57422-.0781 7.58741-1.67303 13.63516-4.55321 19.63472-7.89448z" fill="#7896d3" stroke-linecap="round" stroke-linejoin="round"/><path d="m169.69827 213.38062c-5.98326.77162-10.48369 4.53859-15.21937 7.67891-4.19542 2.78207-7.76582 5.31488-11.51361 9.77293 7.52419 1.55618 11.28998 1.83467 19.81388-.0532 5.57003-1.934 18.26818-4.95621 21.57286-10.03497 6.148 5.12662 14.87907 8.53773 21.57282 10.03501 8.52391 1.88783 8.3761 1.9144 15.90029.35822-3.44674-4.76311-6.55465-9.64536-11.23436-12.84698-3.99133-2.73065-8.79308-4.68125-13.61075-4.90991-4.34101-.20603-12.62801 3.2427-12.62801 3.2427s-9.69209-3.88258-14.65375-3.24271z" fill="#fff" stroke-linecap="round" stroke-linejoin="round" stroke-width="18"/></g></g></svg>