<svg height="500" viewBox="0 0 500 500" width="500" xmlns="http://www.w3.org/2000/svg" xmlns:xlink="http://www.w3.org/1999/xlink"><filter id="a" color-interpolation-filters="sRGB" height="1.043774" width="1.055584" x="-.027792" y="-.021887"><feGaussianBlur stdDeviation="3.5445185"/></filter><g transform="translate(0 -1000)"><path d="m0 1250a250 250 0 0 1 -250 250 250 250 0 0 1 -250-250 250 250 0 0 1 250-250 250 250 0 0 1 250 250z" fill="#9db3df" stroke-linecap="round" stroke-linejoin="round" stroke-width="9.39799" transform="scale(-1 1)"/><path d="m263.85417 1289.4759c11.1612 3.7204 14.8816-7.4408 18.46913-11.0283 7.04219-8.7696 15.28021-26.0428 14.48299-54.6102-10.49685-61.1209-92.21278-68.5617-125.69638-20.1965-11.1612 18.602-11.1612 33.4836-14.8816 52.0856 0 29.7632 14.8816 52.0856 40.9244 70.6876 11.1612 11.1612 26.0428 11.1612 37.204 14.8816 70.6876 11.1612 130.214-48.3652 119.0528-119.0528-7.4408-29.7632-22.3224-59.5264-48.3652-78.1284-44.6448-29.7632-96.7304-29.7632-137.6548-3.7204-18.602 11.1612-29.7632 22.3224-40.9244 40.9244-63.2468 100.4508 26.0428 219.3708 133.9344 208.2096 22.3224 0 40.9244-11.1612 63.2468-18.602 22.3224-14.8816 44.6448-37.204 59.5264-59.5264 40.92441-78.1284 7.4408-171.0056-66.9672-215.6504-26.0428-11.1612-52.0856-22.3224-81.8488-22.3224-37.204 0-70.6876 11.1612-100.4508 33.4836-33.4836 26.0428-52.0856 59.5264-66.9672 96.7304-7.4408 14.8816-3.7204 33.4836-7.4408 52.0856 0 119.0528 126.4936 215.6504 241.69313 174.726 29.7632-14.8816 63.2468-26.0428 89.2896-52.0856 22.3224-29.7632 44.6448-59.5264 52.0856-96.7304 3.7204-26.0428 7.4408-44.6448 3.7204-70.6876-18.602-152.5364-189.60753-234.25236-319.82153-156.2568-22.3224 14.8816-44.6448 29.7632-59.5264 52.0856-29.7632 37.204-44.6448 74.408-52.0856 119.0528-18.602 137.6548 96.7304 260.2951 230.53193 260.2951 29.7632 0 63.2468-11.1612 93.01-18.602 37.204-14.8816 70.6876-33.4836 96.7304-66.9672 18.602-26.0428 29.7632-52.0856 44.6448-81.8488 11.1612-33.4836 18.602-70.6876 14.8816-104.1712-7.4408-44.6448-18.602-85.5692-44.6448-119.0528 96.59753 111.7449 44.51193 297.7649-81.8488 364.7321-22.3224 14.8816-48.3652 18.602-70.6876 26.0428-89.2896 22.3224-178.44633-14.8816-234.25233-78.1284-14.8816-14.8816-18.602-33.4836-29.7632-52.0856-48.3652-70.6876-33.4836-152.5364 3.7204-226.8116 52.0856-89.2896 159.9772-130.21396 264.01553-100.4508 63.2468 18.602 115.3324 63.2468 141.3752 126.4936 7.4408 29.7632 14.8816 59.5264 14.8816 89.2896 0 37.204-11.1612 70.6876-29.7632 104.1712-14.8816 22.3224-26.0428 40.9244-48.3652 55.806-18.602 11.1612-33.4836 18.602-52.0856 29.7632-33.4836 11.1612-70.6876 18.602-111.612 14.8816-122.7732-18.602-200.76873-148.816-156.2568-267.7359 14.8816-29.7632 29.7632-59.5264 55.806-78.1284 55.806-40.9244 119.0528-52.0856 185.88713-29.7632 100.4508 40.9244 148.816 156.2568 89.2896 245.4135-11.1612 18.602-18.602 33.4836-33.4836 48.3652-55.806 40.9244-130.214 55.806-189.60753 18.602-14.8816-14.8816-33.4836-18.602-44.6448-37.204-44.6448-66.9672-44.6448-156.2568 18.602-211.9299 63.2468-55.806 174.72593-40.9244 215.65033 37.204 7.4408 22.3224 18.602 40.9244 14.8816 66.9672 0 22.3224-11.1612 40.9244-14.8816 59.5264-26.0428 55.806-96.7304 74.408-152.5364 55.806-18.602-11.1612-40.9244-18.602-52.0856-37.204-48.3652-70.6876-7.4408-178.4463 85.5692-174.7259 22.3224 0 44.6448 14.8816 63.2468 26.0428 29.7632 22.3224 33.4836 55.806 29.7632 89.2896-11.1612 48.3652-63.2468 70.6876-111.612 59.5264-22.3224-7.4408-37.204-29.7632-44.6448-52.0856-3.7204-26.0428 3.7204-48.3652 22.3224-66.9672 33.4836-33.4836 89.2896-7.4408 96.7304 37.204-3.7204 18.602-14.8816 37.204-29.7632 52.0856" fill="#c6d2ec" opacity=".9"/><path d="m262.92407 1285.7555c10.2311 3.4546 13.68576-6.7765 17.00754-10.0982 6.37783-7.8395 13.9515-23.6512 13.15428-49.9597-9.56675-56.2046-84.77198-62.9811-115.59815-18.602-10.2311 17.1404-10.2311 30.6933-13.68576 47.8337 0 27.3715 13.68576 47.8337 37.60262 64.9741 10.2311 10.2311 23.91686 10.2311 34.14796 13.6858 64.97413 10.2311 119.58428-44.3791 109.35318-109.3532-6.77644-27.3715-20.4622-54.743-44.37905-71.7506-41.05728-27.3715-88.89099-27.3715-126.49361-3.4546-17.14041 10.2311-27.37151 20.4622-37.60261 37.6026-58.06482 92.3456 23.91686 201.6988 123.03894 191.3349 20.4622 0 37.60262-10.2311 58.06482-17.1405 20.4622-13.6857 41.05727-34.1479 54.74303-54.743 37.60261-71.7506 6.77644-157.1869-61.51947-198.2442-23.91686-10.2311-47.83372-20.4622-75.20523-20.4622-34.14796 0-64.97413 10.2311-92.21278 30.8262-30.6933 23.9169-47.83371 54.743-61.51947 88.891-6.77644 13.6858-3.45466 30.6933-6.77644 47.8337 0 109.3532 116.2625 198.2442 222.16103 160.6416 27.37151-13.6858 58.06481-23.9169 81.98167-47.8337 20.4622-27.3716 41.05727-54.7431 47.83372-88.891 3.45465-23.9169 6.77644-41.0573 3.45465-64.9742-17.14041-140.0464-174.32731-215.25168-293.9116-143.5011-20.4622 13.6858-41.05727 27.3715-54.74303 47.8337-27.37151 34.148-41.05727 68.2959-47.83371 109.3532-17.14042 126.4936 88.89098 239.3014 211.92993 239.3014 27.37151 0 58.06481-10.2311 85.43633-17.1404 34.14795-13.6857 64.97413-30.8261 88.89098-61.5194 17.14042-23.9169 27.37152-47.8338 41.05728-75.2053 10.2311-30.6933 17.14041-64.9741 13.68575-95.6674-6.77644-41.0573-17.14041-78.6599-41.05727-109.3532 88.89099 102.5768 41.05727 273.4494-75.20523 334.9689-20.4622 13.6857-44.37906 17.1404-64.97413 23.9168-81.98167 20.4622-164.09621-13.6857-215.25171-71.7505-13.68576-13.6858-17.14042-30.6933-27.37152-47.8337-44.37906-64.9742-30.6933-140.1794 3.45466-208.4753 47.83371-81.9817 146.9558-119.5843 242.62323-92.2128 58.06481 17.1404 105.89853 58.0648 129.81539 116.2625 6.77644 27.3715 13.68575 54.743 13.68575 81.9817 0 34.1479-10.2311 64.9741-27.37151 95.6674-13.68576 20.4622-23.91686 37.6026-44.37906 51.2884-17.14041 10.2311-30.6933 17.1404-47.83371 27.3715-30.82617 10.2311-64.97413 17.1404-102.57675 13.6858-112.80784-17.1405-184.55841-136.7247-143.50114-246.0779 13.68576-27.3715 27.37151-54.7431 51.28837-71.7506 51.28837-37.6026 109.35319-47.8337 170.87266-27.3715 92.21277 37.6026 136.7247 143.5011 81.98167 225.6157-10.2311 17.1404-17.14041 30.6933-30.82617 44.379-51.28837 37.6026-119.58429 51.2884-174.32732 17.1404-13.68575-13.6857-30.82617-17.1404-41.05727-34.1479-41.05727-61.5195-41.05727-143.5012 17.14042-194.7895 58.19768-51.5541 160.77443-37.8684 198.37704 33.8822 6.77644 20.4622 17.14042 37.6026 13.68576 61.5195 0 20.4622-10.2311 37.6026-13.68576 54.743-23.91686 51.2884-88.89099 68.2959-140.17936 51.2884-17.14041-10.2311-37.60261-17.1405-47.83371-34.148-44.37906-64.9741-6.77644-164.0962 78.65988-160.6416 20.4622 0 41.05728 13.6858 58.06482 23.9169 27.37151 20.4622 30.6933 51.2884 27.37151 81.9817-10.2311 44.379-58.06481 64.9741-102.57674 54.743-20.4622-6.7764-34.14796-27.3715-41.05727-47.8337-3.45466-23.9169 3.45466-44.3791 20.4622-61.5195 30.6933-30.8262 81.98167-6.7764 88.89099 34.148-3.45466 17.1404-13.68576 34.1479-27.37152 47.8337" fill="#ecf0f9" opacity=".9"/><path d="m226.91591 1287.6157c5.31486 10.4968 15.8117 5.3148 20.86082 5.3148 10.62971-1.0629 28.56735-7.4408 48.23233-28.3016 35.87528-50.624-16.7418-113.7379-74.54088-103.2411-20.99368 5.3149-31.49052 15.8117-47.30222 26.3086-20.99369 20.9937-26.30855 47.3022-20.99369 78.9256 0 15.8117 10.49684 26.3085 15.8117 36.8054 42.12024 57.7991 126.22786 57.7991 168.3481 0 15.8117-26.3086 26.30854-57.7991 20.99369-89.4225-10.49685-52.6171-47.30223-89.4225-94.60446-99.9193-20.99369-5.3149-36.80539-5.3149-57.79907 0-115.73102 26.3085-136.7247 173.5301-52.61709 241.9589 15.8117 15.8117 36.80539 20.9937 57.79907 31.4905 26.30855 5.3149 57.79907 5.3149 84.10762 0 84.10761-26.3085 126.22786-115.731 105.23417-199.8386-10.49684-26.3086-20.99369-52.6171-42.12024-73.6108-26.30855-26.3085-57.79907-42.1202-94.60446-47.3022-42.12024-5.3149-78.92563 5.3148-115.73102 20.9937-15.8117 5.3148-26.30854 20.9936-42.12024 31.4905-84.10761 84.1076-63.11393 241.9589 47.30223 294.5759 31.49053 10.4969 63.11393 26.3086 99.91931 26.3086 36.80539-5.3149 73.61078-10.4969 105.23418-31.6234 20.99368-15.8117 36.80538-26.3086 52.61708-47.3022 94.60446-120.913 31.49053-299.758-115.73101-336.5634-26.30855-5.3148-52.61709-10.4968-78.92563-5.3148-47.30223 5.3148-84.10762 20.9937-120.913 47.3022-110.41616 84.1076-115.73102 252.4557-20.99369 347.0602 20.99369 20.9937 52.61709 36.8054 78.92563 52.6171 36.80539 15.8117 73.61077 26.3085 115.73102 20.9936 31.49053-5.3148 57.79907-15.8117 89.42247-26.3085 31.49053-15.8117 63.11393-36.8054 84.10761-63.1139 26.30855-36.8054 47.30223-73.6108 52.61709-115.731-10.76259 147.4872-179.11069 242.2246-315.83539 200.1043-26.30854-5.3148-47.30223-20.9937-68.42879-31.4905-78.92562-47.3022-115.73101-136.7247-110.41615-220.8323 0-20.9937 10.49684-36.8054 15.8117-57.7991 15.8117-84.1076 84.10761-131.5427 163.03324-157.7184 99.91932-26.30852 205.15349 20.9937 257.77058 115.731 31.49052 57.7991 36.80538 126.2279 10.49684 189.3418-15.8117 26.3086-31.49053 52.6171-52.61709 73.6108-26.30854 26.3085-57.79907 42.1202-94.60446 52.6171-26.30854 5.3148-47.30223 10.4968-73.61077 5.3148-20.99368-5.3148-36.80538-10.4968-57.79907-15.8117-31.49053-15.8117-63.11393-36.8053-89.42247-68.4287-73.61078-99.9194-36.80539-247.1409 78.92563-299.758 31.49053-10.4968 63.11393-20.9937 94.60445-15.8117 68.42879 10.4969 120.91301 47.3022 152.53641 110.4162 42.12024 99.9193-5.31486 215.6503-110.41616 236.644-20.99369 5.3148-36.80539 10.4968-57.79907 10.4968-68.42879-10.4968-131.54272-52.6171-147.22155-120.913 0-20.9937-10.49684-36.8054-5.31486-57.799 15.8117-78.9257 78.92563-142.0396 163.03325-136.7247 84.10761 5.3148 152.5364 94.6044 126.22786 178.8449-10.49685 20.9937-15.8117 42.1202-36.80539 57.7991-15.8117 15.8117-36.80538 20.9937-52.61708 31.4905-57.79908 20.9937-120.91301-15.8117-147.22155-68.4288-5.31486-20.9937-15.8117-42.1202-10.49684-63.1139 15.8117-84.1076 120.913-131.5427 184.02693-63.1139 15.67883 15.6788 20.86081 41.9873 26.17567 62.981 5.31486 36.8054-15.8117 63.1139-42.12024 84.1076-42.12025 26.3086-94.60446 5.3149-120.913-36.8054-10.49685-20.9936-5.31486-47.3022 5.31485-68.4287 15.8117-20.9937 36.80539-31.4906 63.11393-31.4906 23.98451 0 41.23931 14.86 48.993 34.3086 7.53814 18.9078 6.09609 42.1526-6.87275 60.2959-15.81171 10.4968-36.80539 15.8117-57.79908 15.8117" fill="#fff" opacity=".9"/></g><g fill-rule="evenodd"><path d="m366.16406 0c-46.06687 0-80.21482 35.841151-101.24219 78.824219-20.98453 42.895531-32.59179 98.122041-32.59179 158.675781 0 60.55375 11.60726 115.77829 32.59179 158.67383 21.02728 42.98287 55.17473 78.82617 101.24219 78.82617s80.21688-35.84329 101.24414-78.82617c20.98454-42.89554 32.5918-98.12008 32.5918-158.67383 0-60.55374-11.60726-115.78025-32.5918-158.675781-21.02735-42.98307-55.17727-78.824219-101.24414-78.824219zm0 36c27.00642 0 51.07395 22.192623 68.90625 58.644531 17.87514 36.539459 28.92969 86.973169 28.92969 142.855469 0 55.88231-11.05454 106.31405-28.92969 142.85352-17.8324 36.4521-41.90042 58.64648-68.90625 58.64648-27.00582 0-51.07188-22.19438-68.90429-58.64648-17.87515-36.53947-28.92969-86.97121-28.92969-142.85352 0-55.8823 11.05454-106.31601 28.92969-142.855469 17.83231-36.451911 41.89787-58.644531 68.90429-58.644531z" fill="#7896d3"/><path d="m366.16406 16.712891c-37.33701.000005-66.77591 29.540683-86.3164 69.484375-19.5405 39.943694-30.88672 92.925124-30.88672 151.302734s11.34622 111.35904 30.88672 151.30273c19.54049 39.9437 48.97939 69.48437 86.3164 69.48438 37.33702 0 66.77591-29.54068 86.31641-69.48438 19.5405-39.94369 30.88867-92.92512 30.88867-151.30273s-11.34817-111.35904-30.88867-151.302734c-19.5405-39.943693-48.9794-69.484378-86.31641-69.484375z" fill="#fff"/><path d="m465.36835 237.4996a99.203847 202.78747 0 0 1 -99.20385 202.78748 99.203847 202.78747 0 0 1 -99.20384-202.78748 99.203847 202.78747 0 0 1 99.20384-202.787466 99.203847 202.78747 0 0 1 99.20385 202.787466z" fill="#9db3df" stroke-width="36"/></g><path d="m366.16406 34.712891a99.203847 202.78747 0 0 0 -93.12695 134.060549l101.64453-132.919924a99.203847 202.78747 0 0 0 -8.51758-1.140625zm50.58985 28.517578-149.12891 195.033201a99.203847 202.78747 0 0 0 8.375 63.00977l165.11328-215.97461a99.203847 202.78747 0 0 0 -24.35937-42.068361zm48.00586 155.267581-148.59766 194.07617a99.203847 202.78747 0 0 0 24.11328 20.65625l123.38281-158.43555a99.203847 202.78747 0 0 0 1.70899-37.11523v-.24024a99.203847 202.78747 0 0 0 -.60742-18.9414zm-6.72071 95.43359-97.78515 125.56445a99.203847 202.78747 0 0 0 5.91015.79102 99.203847 202.78747 0 0 0 91.875-126.35547z" fill="#ecf0f9" opacity=".9"/><g stroke-width=".943186" transform="matrix(1.0606491 0 0 1.059823 -619.53206 -18.079572)"><g fill="#fff" filter="url(#a)" opacity=".9" stroke-width="33.9547"><path d="m741.29688 90.833984c-16.18349.792409-32.8811 7.809034-44.28907 21.289066-4.05159-3.66204-8.9475-6.52879-14.22851-8.58399-9.17963-3.572415-19.58494-5.02117-29.02344-1.5332-18.39107 6.79635-34.11425 25.3649-33.4668 48.57617-3.45228.4059-6.79853 1.45421-9.76367 2.94922-6.43232 3.24315-11.8941 8.28675-14.625 15.07813-2.77065 6.89019-3.21046 14.86879-.76172 22.46093 1.31514 4.0775 3.65188 7.98558 6.82617 11.36524-6.78842 7.17507-8.78866 17.45365-6.01562 25.8125 2.79952 8.43869 9.17944 15.57937 17.30664 20.1289 5.77419 3.23234 12.85099 4.99349 19.91016 3.95703 3.53448 9.72233 9.41365 18.77367 19.18164 25.35547-.32754.48086-.71496.95321-1.03321 1.43555-3.68205-1.62124-7.40195-1.71924-10.76757-1.23438-6.89433.99324-12.86072 4.01839-17.23438 8.62891-4.53938 4.78522-7.92308 11.31678-8.48438 18.85742-.33837 4.54584.94106 9.49162 3.61133 13.91211-3.16067 3.1253-5.41402 6.83175-6.42187 10.64258-1.75942 6.65262-.81056 13.15 1.14648 18.57422 1.46924 4.07218 3.92889 7.66186 7.02149 10.62891-2.64973 1.32444-5.21623 2.9594-7.43164 5.46679-10.49234 11.87518-13.82232 29.65039-8.49805 44.53125 2.5773 7.20329 8.06668 10.63133 12.60742 13.71485.90007.61122 1.55671.95425 2.39649 1.47656-.65418 1.55292-1.27922 2.90133-1.93946 4.77539-2.23423 6.34181-5.05072 13.81524-2.04492 22.14453 5.61012 15.54606 20.99957 26.63779 37.16406 28.06055 8.42236.74131 16.51283-2.00153 23.51563-5.82617 5.32462-2.9081 10.01397-6.4256 13.63476-10.44727 6.85683.71939 14.48788-.22765 22.13672-2.56641 9.58475-2.93069 19.25903-8.0464 24.55664-17.36914 6.4245-11.30582 6.74381-26.00991-.53515-38.70312 5.19897-1.41569 10.02056-3.49724 14.33398-6.7168 7.03492-5.25089 12.31171-13.04455 16.85352-23.36523 9.22188-2.89646 18.89093-8.62533 26.1875-17.15625 9.70629.49253 25.81565.94722 37.46875-8.90821 5.511-4.66084 11.33866-10.55664 15.0625-18.27539 2.55622-5.29851 3.77922-11.62605 3.14258-18.29492 10.56491-2.74557 19.43949-10.80834 24.12109-20.39062 2.94225-6.02221 5.14442-13.01662 4.97265-20.61133-.10077-4.4556-1.23538-9.06545-3.2871-13.54688 6.15904-3.13308 11.50766-8.01482 15.6914-13.74414 6.49766-8.89805 10.7687-19.8746 8.88086-30.84765-3.10232-18.03221-19.60839-34.4617-40.70508-34.89258.007-4.79367-.19234-9.30689-1.06445-13.46485-1.3747-6.55417-4.45239-12.54719-9.26563-17.67773-8.96162-9.55242-22.4153-14.9823-35.5371-14.36133-3.16127-11.79224-12.01649-21.12477-22.28516-27.625-12.57011-7.957068-27.5929-12.471549-40.72461-13.546873-2.73759-.224174-5.51186-.269179-8.29687-.132813z"/><path d="m850.73782 185.89344c21.00986-4.14379 38.16536 11.63124 40.96906 27.92774 2.74107 15.93247-13.28545 37.93702-28.62306 39.13772 10.10647 11.54941 8.16528 24.47978 3.02557 34.99976-4.61432 9.44461-16.28042 17.81354-26.44757 17.15129 6.25316 16.29347-3.81959 28.76849-13.96435 37.34825-9.35064 7.90816-27.42739 7.32972-36.06265 6.96033-7.00838 9.68799-18.98667 16.66567-28.236 18.76046-9.14031 22.73168-19.93754 29.43658-39.557 30.88253 13.51791 12.18719 14.61053 28.39609 7.85162 40.29041-7.58029 13.33978-31.80636 18.4621-43.30662 15.52778-5.517 8.26834-20.89459 17.96657-33.28413 16.87607-12.75021-1.12224-26.35047-11.03643-30.69816-23.08421-3.19442-8.85196 6.52129-27.47003 6.52129-27.47003s-14.97065-7.45353-17.53547-14.62196c-4.22489-11.80817-1.25873-27.56503 7.04305-36.96095 6.42887-7.27618 27.71742-8.921 27.71742-8.921-13.87873-.38115-22.48857-5.42254-25.8588-14.7636-3.05383-8.46414-2.6381-20.62038 9.4863-25.27269-11.78465-7.68495-7.60482-21.93022-.96744-28.92706 5.4874-5.78459 20.72103-10.98273 23.90594-.44222 3.281-5.62968 6.593-10.91031 10.791-15.99227-15.73754-6.8782-21.91602-18.49648-25.348-32.39725-13.93995 7.35803-30.928-4.71341-35.01776-17.0413-2.73843-8.25452.36207-19.17171 11.97212-23.1792-13.61984-5.8772-16.35276-20.87342-12.18226-31.24485 3.57927-8.90117 17.07023-16.76929 26.1009-12.09289-5.71039-24.20969 9.47709-43.62454 27.35041-50.22956 13.69693-5.06166 35.72191 3.81468 40.92659 15.62281 10.69192-19.25494 32.42006-27.794684 51.665-26.218764 23.62652 1.934714 56.69847 17.098994 57.35575 42.078774 12.01381-3.09819 27.62717 1.86225 36.28282 11.08853 8.01592 8.54436 8.94668 17.51554 8.12443 34.20735z"/></g><g fill="#7896d3"><path d="m718.23482 324.66925c19.24786 6.2854 30.44202 24.88234 25.002 41.536-1.43179 4.33926-3.93046 8.27061-7.325 11.525 8.37011-4.45748 14.28683-11.67022 16.563-20.191 4.94008-18.6545-8.53352-38.40554-30.094-44.115-3.52891-.93503-7.15124-1.45174-10.768-1.536-17.97414-.41597-33.19545 9.79851-37.214 24.973-.58396 2.25664-.90556 4.57553-.911 6.75 5.48826-16.82515 25.5005-25.22888 44.747-18.942z"/><path d="m672.65083 160.92894c-13.54142.14532-26.45862 9.45229-32.527 23.436-8.12548 18.72503-1.5025 39.63713 14.793 46.709.61725.26438 1.24389.5065 1.879.726-10.86766-8.68288-14.09622-25.08517-7.801-39.632 7.51963-17.32887 25.84089-26.07179 40.922-19.528.36751.17569.73092.36006 1.09.553-7.48787 3.66431-12.39644 10.22583-13.274 17.744-.0674.5957-.10909 1.19445-.125 1.795 6.04693-8.15029 17.81946-12.49236 30.03-11.076 11.9335 1.40299 22.10501 8.05653 26.12 17.086.039-.2028.075-.40615.108-.61 1.53876-13.3185-9.77826-25.72523-25.278-27.712-1.59916-.20547-3.20902-.29312-4.812-.262-2.97335.0644-5.89293.5369-8.65 1.4-2.93959-3.63692-6.61528-6.46424-10.784-8.295-3.6573-1.5865-7.62164-2.37795-11.691-2.334z"/><path d="m767.86782 123.52306c-17.16059.12227-33.19646 8.73535-42.788 22.982 9.48903-8.69264 21.86496-13.5692 34.71-13.677 28.50977-.194 51.62176 22.68205 51.622 51.095-.006 10.2475-3.08301 20.28052-8.836 28.813 10.75128-9.80605 16.8907-23.64444 16.912-38.12-.0216-11.02218-3.59469-21.72193-13.15725-34.0185-12.5096-12.1691-25.2318-17.15489-38.46275-17.0745z"/><path d="m745.59556 81.36445c-1.5978-.026072-3.20309.000116-4.81169.077401-15.95741.766678-32.24127 6.682038-44.86676 18.121024-3.13334-1.84186-6.37418-3.478039-9.73019-4.784112-10.8046-4.204878-23.03852-6.263512-35.689-1.588562-19.74831 7.297919-36.66482 26.256229-39.23195 49.951219-1.71508.61136-3.44017 1.22543-4.9719 1.99768-8.2718 4.1704-15.21598 10.26959-19.11418 19.96391-3.62084 9.00452-4.16082 19.01428-.98701 28.85394.96751 2.99953 2.49716 5.92034 4.28688 8.74999-5.07195 8.88629-6.43447 19.5121-3.45271 28.50012 3.73547 11.25992 11.49253 19.69208 21.63696 25.3709 5.29164 2.96225 11.74891 5.00456 18.53597 5.35725 1.3906 2.82427 2.9832 5.60025 4.82826 8.28927-5.93695 1.85828-10.89431 4.93482-15.53441 9.82623-6.05331 6.38113-10.28052 14.42863-11.03945 24.62823-.31258 4.20078.42912 8.87336 2.09003 13.41431-2.05988 3.05325-3.76762 6.23013-4.61465 9.43185-2.40773 9.10101-1.09884 17.26528 1.39213 24.16935.68125 1.88819 1.56901 3.72087 2.57065 5.49362-.39401.41042-.78849.74307-1.1822 1.18866-13.20908 14.94997-16.99251 35.23087-10.30472 53.92262 3.1918 8.92078 7.9319 12.85718 12.28427 15.77504-2.47311 6.62614-5.55942 14.42815-1.25403 26.35869 7.1755 19.88384 24.77875 32.43967 45.17797 34.23516 11.1847.98445 20.69994-2.49259 28.84437-6.94028 4.75262-2.59543 8.98402-5.56674 12.75199-9.04854 7.02295.14864 14.03035-1.01467 21.26498-3.22688 11.00249-3.36432 22.81154-9.10001 29.9787-21.71279 6.28785-11.06534 7.61728-24.92739 3.64421-37.90433 2.6302-1.28817 5.17603-2.81468 7.60701-4.62931 7.70914-5.75457 13.40203-13.6798 18.05719-23.21105 8.30891-3.15166 16.29347-8.06956 23.17456-15.08212 10.50424.59018 25.95593.15346 39.72361-11.49035 6.05475-5.1207 12.8431-11.80106 17.45872-21.36817 2.15678-4.4705 3.54431-9.75563 4.0254-15.33459 10.32301-4.49596 18.19835-13.0311 23.21875-23.30689 3.40411-6.96754 6.14074-15.36935 5.92393-24.95257-.067-2.96248-.59282-6.01602-1.33873-9.07618 4.62896-3.55651 8.58794-7.87093 11.93623-12.45601 7.63436-10.45435 13.08271-23.28328 10.55331-37.98542-3.43339-19.95663-19.54911-37.4671-40.82663-41.70065-.21591-2.32645-.51401-4.64859-1.00543-6.99188-1.67543-7.98905-5.79999-15.98373-11.61214-22.17904-9.59558-10.22818-22.27308-16.3897-35.84185-17.37282-5.08478-11.22682-14.19543-20.0438-23.80434-26.126487-14.14113-8.9517-30.21945-13.764155-44.98645-14.973387-1.57832-.129245-3.16786-.207973-4.76566-.234046zm-.25412 16.97844c1.21891.01932 2.43036.076578 3.63317.175073 23.6265 1.934717 56.69815 17.100537 57.35543 42.080287 12.0138-3.09819 27.62815 1.86233 36.2838 11.0886 8.01591 8.54435 8.94669 17.51572 8.12444 34.20751 21.00984-4.14379 38.16473 11.6305 40.96843 27.92698 2.74107 15.93246-13.2858 37.93651-28.62339 39.13721 10.10646 11.5494 8.16519 24.47998 3.02549 34.99995-4.61432 9.4446-16.27967 17.81392-26.44681 17.15167 6.25316 16.29345-3.81891 28.76802-13.96366 37.34777-9.35063 7.90816-27.42757 7.32995-36.06282 6.96056-7.00838 9.68798-18.98737 16.66571-28.23669 18.7605-9.1403 22.73166-19.93844 29.43701-39.55788 30.88296 13.51789 12.18718 14.61081 28.39654 7.85191 40.29085-7.58028 13.33977-31.80497 18.46057-43.30522 15.52625-5.51699 8.26833-20.89455 17.96758-33.28408 16.87708-12.7502-1.12224-26.35102-11.03613-30.6987-23.08389-3.19442-8.85196 6.52055-27.46995 6.52055-27.46995s-14.9694-7.45482-17.53422-14.62324c-4.22489-11.80816-1.2601-27.56486 7.04168-36.96077 6.42886-7.27617 27.7174-8.92138 27.7174-8.92138-13.87872-.38115-22.48732-5.42225-25.85755-14.7633-3.05382-8.46413-2.63911-20.61908 9.48528-25.27139-11.78464-7.68494-7.60413-21.93083-.96676-28.92766 5.48739-5.78459 20.72071-10.98279 23.90561-.44229 3.281-5.62968 6.59287-10.91055 10.79086-15.9925-15.73752-6.8782-21.91549-18.49705-25.34746-32.39781-13.93994 7.35803-30.92897-4.71322-35.01873-17.04109-2.73842-8.25452.36303-19.17224 11.97307-23.17973-13.61983-5.87719-16.35349-20.87274-12.18299-31.24416 3.57926-8.90116 17.06995-16.76937 26.10061-12.09297-5.71038-24.20967 9.47766-43.62448 27.35096-50.2295 13.69691-5.06165 35.7214 3.81581 40.92607 15.62393 10.02367-18.05149 29.7486-26.68535 48.0322-26.39555z"/></g></g></svg>