<svg height="500" viewBox="0 0 500 500" width="500" xmlns="http://www.w3.org/2000/svg" xmlns:xlink="http://www.w3.org/1999/xlink"><radialGradient id="a" cx="1362.7291" cy="216.11429" gradientTransform="matrix(1.0000001 -.0000059 .0000001 1.0000003 -112.72927 33.893757)" gradientUnits="userSpaceOnUse" r="250"><stop offset="0" stop-color="#ff851a"/><stop offset=".42441937" stop-color="#f87000"/><stop offset=".86367416" stop-color="#f26900"/><stop offset="1" stop-color="#e55f00"/></radialGradient><g transform="translate(-1000)"><path d="m1500 250a250 250 0 0 1 -250 250 250 250 0 0 1 -250-250 250 250 0 0 1 250-250 250 250 0 0 1 250 250z" fill="url(#a)" stroke-linecap="round" stroke-linejoin="round" stroke-width="1.002"/><path d="m1309.2298 33.82789c128.5196 30.706851 207.8974 167.48127 169.5927 291.56949-31.3771 95.69524-112.8693 162.03793-212.5543 174.60263 153.1796-8.09118 266.0956-163.0043 218.7012-309.92978-36.4562-114.666588-154.6038-191.5214848-270.6514-169.822657-18.8526 4.215647-38.4387 10.498641-55.8829 18.694487-112.5353 47.459213-168.47522 196.206-99.9632 307.85319 57.6978 93.63045 168.5136 141.8489 267.9993 100.77239-134.92 68.97589-303.283-51.46877-311.488-201.30723-4.4167-117.68321 76.8182-219.674136 190.654-246.26040176-89.0147 9.18391126-152.6601 79.39239576-187.7408 157.21169176-38.45522 102.70317 5.2337 231.75078 109.038 294.08388 114.5107 66.1048 260.3537 29.37245 323.6836-83.60152 42.2104-77.69758 34.3514-177.62383-23.1776-249.88923-57.5404-72.257811-157.5429-102.460489-246.4118-71.877168-81.7429 30.682061-131.1298 101.133078-134.0478 190.176958.6692 92.68536 61.7912 168.55972 147.5399 198.52472 128.5549 37.82014 266.7725-70.33038 233.6823-209.88949-14.7104-64.39775-57.8855-122.14991-125.7378-141.121386-71.391-15.467036-138.9716 1.205-181.2869 64.641366-18.8995 29.2286-28.9384 85.21395-26.105 97.65297m0 0c13.5324-50.18833 30.6277-97.66354 72.2125-128.94941 53.182-38.308183 124.4576-37.093813 181.7444-.48035 50.1457 36.48017 75.4845 90.37713 72.3557 150.91678-6.6674 64.04407-38.4038 109.83277-91.6401 141.00844-63.9019 34.56125-135.3795 4.83213-189.1258-35.28385-78.8706-65.48566-79.7477-186.67235-8.9744-256.76104 63.7369-55.941605 167.0207-64.891564 238.7167-6.65053 78.8163 58.35315 90.3045 169.04089 40.972 246.62443-35.2274 56.41892-88.4571 87.60135-152.5581 93.63158-81.9488 2.18264-160.666-41.91503-196.8695-120.9383-36.2055-79.02511-22.5771-164.33167 26.8727-227.66064 49.4316-63.30896 138.3491-86.746364 220.4504-67.54202" fill="#c50"/></g><path d="m247.68884.01158539c-13.87926-.09396-27.54143 4.28671501-39.41571 11.32471361-17.66725 10.554859-31.24173 27.229868-39.43826 45.988444-10.73499 24.490128-12.66314 52.621717-5.84181 78.440597.15086.6097.33165 1.21144.49794 1.81699-11.91548 11.12652-20.75653 25.22134-26.99555 40.20677-8.08541 19.09068-12.42523 39.52671-15.218 60.00013-4.68981 35.07557-4.2627 70.53841-4.69185 105.84763-.056 5.13066-.11236 10.26208-.16723 15.39274h41.07486c3.11338 41.87216 6.22772 83.74436 9.34049 125.61657 23.72184 8.26161 48.50613 13.81555 73.63789 15.05453 22.12931 1.20543 44.34807-1.29998 65.91144-6.25894 9.98928-2.25059 19.98473-4.47744 29.98691-6.67045 2.81902-42.58043 5.63554-85.16118 8.45361-127.74171h38.75806c-.72142-32.49197.22425-65.01887-1.45623-97.48798-.86552-16.03616-2.40172-32.06599-5.38144-47.85805-3.25029-17.05951-8.30449-33.9239-16.53517-49.27856-5.97362-11.07391-13.70097-21.29576-23.28452-29.49837 7.33448-28.59197 3.88269-59.966619-10.21235-85.975375-8.91632-16.448287-22.42762-30.557911-39.01738-39.3461916-12.25785-6.467351-26.14533-9.80835301-40.0057-9.57348801zm-2.06126 48.05909861 4.19392.08079c22.29019 0 42.77159 24.248954 42.77159 57.010646 0 16.52456-5.57443 31.33014-13.79559 41.63105l-10.16161 12.73208 16.09736 2.49343c12.53997 1.94295 21.10744 7.80916 28.19434 17.30744 7.08432 9.49913 12.22774 22.86555 15.62011 38.39354 6.15353 28.16061 6.54371 62.75687 6.5671 93.20763h-35.34018l-9.0173 136.68198c-24.92842 5.61498-52.56279 5.82015-78.44623-.0225l-10.19168-136.65948h-37.1177c.23724-30.08191 1.73045-64.20793 8.52125-92.15728 3.75082-15.42668 9.10268-28.81348 16.103-38.42172 7.00033-9.60737 15.18922-15.50841 26.35857-17.60807l15.77418-2.96506-10.25181-12.34877c-8.59261-10.35459-14.45512-25.33204-14.45512-42.26615-.00001-30.729555 18.34456-54.461729 38.5758-57.089556z" fill="#994100" opacity=".5"/><path d="m247.69824 19.253376c-10.99539-.122874-21.82739 3.138484-31.49012 8.248795-13.96955 7.481981-25.33658 19.312038-33.29017 32.935054-13.12359 22.421205-17.18795 49.697045-12.31495 75.122285.95293 5.01297 2.29248 9.9703 3.91959 14.79146-11.53356 9.29785-20.29972 21.66506-26.57841 35.00384-7.42014 15.61364-11.92779 32.44745-14.98124 49.41385-5.11921 28.95395-6.12474 58.43026-6.45811 87.7717-.13708 12.1632-.19907 24.32717-.36077 36.49011h40.27442c3.17788 42.71082 6.35675 85.42169 9.53402 128.13254 23.22015 7.65471 47.51155 12.3799 71.99564 12.79222 19.43732.42254 38.84583-2.17411 57.7472-6.59528 7.18005-1.62138 14.35961-3.24083 21.5521-4.80647 2.85646-43.17424 5.71072-86.34872 8.56634-129.52301h37.99519c-.51397-32.36795.43769-64.78848-1.88463-97.10467-1.58225-20.55449-4.29445-41.19209-10.70276-60.85882-4.95622-15.22888-12.22862-29.9619-23.04026-41.90915-3.70677-4.10144-7.80868-7.85002-12.26233-11.12742 8.67149-27.29541 6.3539-58.03554-6.90344-83.485698-8.19649-15.709283-20.93069-29.267029-36.79827-37.346938-10.63024-5.402402-22.59308-8.181806-34.51904-7.944398zm-2.07066 38.438635 4.19392.08079c22.29019 0 42.77159 24.248954 42.77159 57.010639 0 16.52458-5.57443 31.33015-13.79559 41.63106l-10.16161 12.73208 16.09736 2.49343c12.53997 1.94295 21.10744 7.80916 28.19434 17.30743 7.08432 9.49914 12.22774 22.86556 15.62011 38.39355 6.15353 28.16061 6.54371 62.75687 6.5671 93.20763h-35.34018l-9.0173 136.68198c-24.92842 5.61498-52.56279 5.82014-78.44623-.0225l-10.19168-136.65948h-37.1177c.23724-30.08191 1.73045-64.20793 8.52125-92.15728 3.75082-15.42668 9.10268-28.81349 16.103-38.42172 7.00033-9.60737 15.18922-15.50841 26.35857-17.60808l15.77418-2.96505-10.25181-12.34877c-8.59262-10.35459-14.45512-25.33204-14.45512-42.26615-.00001-30.729558 18.34456-54.461732 38.5758-57.089559z" fill="#c50" opacity=".5"/><path d="m248.03833 38.505658c-2.28955-.03414-4.58228-.0047-6.84894.35701-13.85895 1.873202-26.70907 8.934687-36.57467 18.722322-13.03283 12.853243-21.39932 30.028106-24.67874 47.95388-3.58943 19.33612-1.54251 39.75241 6.2082 57.85618-10.77515 7.03406-19.34235 17.08284-25.62388 28.24132-7.29979 12.80591-11.9665 26.92988-15.39274 41.21391-4.77968 20.49115-6.8338 41.50452-7.99325 62.47852-1.09433 21.21652-1.02138 42.46811-1.26457 63.70551h39.47397c3.23917 43.50627 6.48008 87.01254 9.71816 130.51887 23.12391 7.13552 47.35013 10.97944 71.57663 10.3871 14.37499-.29796 28.67549-2.29523 42.70396-5.39273 6.26995-1.3626 12.50777-2.86863 18.78245-4.21459 2.89416-43.7661 5.78587-87.53248 8.67909-131.29865h37.28304c-.31481-30.44031.43563-60.94328-2.10447-91.31172-1.64274-18.99162-4.42703-38.04143-10.59003-56.14442-4.33747-12.64481-10.39489-24.88249-19.19018-35.04141-5.10076-5.92113-11.12072-11.07728-17.8843-15.00942 10.66896-26.56762 9.35291-57.78654-3.9628-83.183194-7.38313-13.965165-18.72299-26.093204-32.9501-33.183081-9.0731-4.507717-19.2285-6.872431-29.36683-6.655407zm-2.41075 28.810657 4.19392.08079c22.29019 0 42.77159 24.248953 42.77159 57.010645 0 16.52457-5.57443 31.33014-13.79559 41.63105l-10.16161 12.73208 16.09736 2.49343c12.53997 1.94295 21.10744 7.80916 28.19434 17.30744 7.08432 9.49914 12.22774 22.86555 15.62011 38.39354 6.15353 28.16061 6.54371 62.75687 6.5671 93.20763h-35.34018l-9.0173 136.68198c-24.92842 5.61498-52.56279 5.82015-78.44623-.0225l-10.19168-136.65948h-37.1177c.23724-30.08191 1.73045-64.20793 8.52125-92.15728 3.75082-15.42668 9.10268-28.81348 16.103-38.42172 7.00033-9.60737 15.18922-15.50841 26.35857-17.60807l15.77418-2.96506-10.25181-12.34877c-8.59262-10.35459-14.45512-25.33203-14.45512-42.26615-.00001-30.729554 18.34456-54.461728 38.5758-57.089555z" fill="#ff851a" opacity=".5" stroke-width=".9"/><path d="m244.84779 57.73979c-11.19595.92403-21.77512 6.027769-30.22553 13.307054-12.40184 10.700597-20.62315 25.727603-24.33301 41.580316-4.76924 20.20142-2.6211 42.08873 6.59152 60.74422.61502 1.21432 1.23053 2.42828 1.89403 3.61706-10.15818 4.65002-18.71583 12.37589-25.09589 21.48445-7.87323 11.05518-12.95524 23.82444-16.7381 36.78512-5.30166 18.3905-7.74328 37.46214-9.32546 56.49203-1.77618 22.38067-1.83592 44.84625-2.03871 67.28311h38.6923c3.29719 44.25158 6.59298 88.50339 9.89104 132.75488 22.98137 6.53164 47.0674 9.40594 70.92837 7.75462 12.99514-.82029 25.83958-3.19504 38.49124-6.20445 1.80782-.40407 3.61482-.8085 5.42279-1.21195 2.93237-44.3642 5.86093-88.72878 8.79182-133.0931h36.61977c-.19744-29.37847.362-58.84358-2.68509-88.10803-1.97434-18.62391-5.2583-37.32992-12.49156-54.70135-4.73513-11.32979-11.40256-22.07248-20.684-30.23681-4.98332-4.3837-10.73899-7.87907-16.90346-10.33261 11.59343-21.8737 13.23791-48.5776 5.13155-71.89605-4.81701-13.795117-13.34759-26.518324-25.20674-35.206764-8.52906-6.253226-18.82268-10.24764-29.43261-10.714039-2.42891-.129365-4.86279-.101913-7.29427-.09771zm.77979 19.19583 4.19392.08079c22.29019 0 42.77159 24.24895 42.77159 57.01065 0 16.52457-5.57443 31.33014-13.79559 41.63105l-10.16161 12.73208 16.09736 2.49343c12.53997 1.94295 21.10744 7.80916 28.19434 17.30743 7.08432 9.49914 12.22774 22.86556 15.62011 38.39355 6.15353 28.16061 6.54371 62.75687 6.5671 93.20763h-35.34018l-9.0173 136.68198c-24.92842 5.61498-52.56279 5.82014-78.44623-.0225l-10.19168-136.65948h-37.1177c.23724-30.08191 1.73045-64.20793 8.52125-92.15728 3.75082-15.42668 9.10268-28.81349 16.103-38.42172 7.00033-9.60737 15.18922-15.50841 26.35857-17.60808l15.77418-2.96505-10.25181-12.34877c-8.59262-10.35459-14.45512-25.33204-14.45512-42.26615-.00001-30.72956 18.34456-54.461734 38.5758-57.08956z" fill="#ffa348" opacity=".5"/><path d="m245.0714 76.97191c-9.80192 1.016112-18.88842 5.9343-26.00157 12.619342-10.37408 9.756727-16.99799 23.049738-19.87602 36.903498-3.74013 17.89166-1.53683 37.12109 6.89967 53.40484 2.1369 4.26837 4.86927 8.21055 7.83917 11.93726-4.72752.94714-9.3756 2.42194-13.61709 4.74259-7.75525 4.07653-14.15129 10.38198-19.12442 17.5348-6.78797 9.69146-11.23966 20.80668-14.62799 32.08387-5.18784 17.48684-7.60579 35.64977-9.19206 53.77689-1.654 19.6399-1.93301 39.35966-2.08944 59.05874h37.91252c3.34947 44.93681 6.70013 89.87365 10.04887 134.8105 21.08725 5.40944 43.08132 7.33722 64.77842 5.45096 9.48324-.79996 18.8864-2.39417 28.15488-4.53589 1.23458-.27641 2.46879-.55278 3.7035-.82864 2.9701-44.96547 5.93606-89.93135 8.90457-134.89693h35.97714c-.10354-29.04949.14517-58.22719-3.7298-87.07834-2.08456-15.28286-5.39055-30.55095-11.65166-44.71073-4.37274-9.74694-10.40724-18.9795-18.7693-25.76104-6.90359-5.57979-15.37409-9.10612-24.13007-10.43407 3.27502-4.21868 6.13876-8.7634 8.35026-13.63024 7.9782-17.05057 9.41201-36.91051 4.65992-55.06964-3.31703-12.5706-9.86341-24.481584-19.61109-33.201871-7.27812-6.482318-16.46988-11.071773-26.25522-11.93163-2.84322-.260474-5.70045-.267925-8.55319-.244269zm.55618 9.584763 4.19392.08079c22.29019 0 42.77159 24.248957 42.77159 57.010647 0 16.52457-5.57443 31.33014-13.79559 41.63105l-10.16161 12.73208 16.09736 2.49343c12.53997 1.94295 21.10744 7.80916 28.19434 17.30743 7.08432 9.49914 12.22774 22.86556 15.62011 38.39355 6.15353 28.16061 6.54371 62.75687 6.5671 93.20763h-35.34018l-9.0173 136.68198c-24.92842 5.61498-52.56279 5.82014-78.44623-.0225l-10.19168-136.65948h-37.1177c.23724-30.08191 1.73045-64.20793 8.52125-92.15728 3.75082-15.42668 9.10268-28.81349 16.103-38.42172 7.00033-9.60737 15.18922-15.50841 26.35857-17.60808l15.77418-2.96505-10.25181-12.34877c-8.59262-10.35459-14.45512-25.33204-14.45512-42.26615-.00001-30.72956 18.34456-54.461731 38.5758-57.089557z" fill="#fff" opacity=".25" stroke-width=".9"/><g stroke-linejoin="round"><path d="m355.23818 285.51949c0-18.06416-15.21797-32.92837-32.86328-32.92773-3.73213.00014-7.30707.79168-10.70117 2.01172-8.74929-6.28572-20.37254-3.55647-28.46575.69144-19.00531 10.20053-46.0817 9.92488-64.57326 0-10.1305-4.2774-22.38604-7.26798-31.0625-.67773-3.40866-1.23138-7.00106-2.02553-10.75196-2.02539-17.64254.00065-32.86328 14.86463-32.86328 32.92773 0 10.41799 5.15235 19.66148 12.82227 25.71289-19.49811-5.03624-43.41648-3.49232-57.223659 8.89944-7.977159 7.42646-13.005619 18.16776-13.584984 28.751.09178 27.76263 19.074273 51.80425 34.658203 69.66992-15.48641 5.58802-42.676656 11.54974-39.527632 30.67139 6.778042 17.72059 16.845377 12.50343 30.189742 16.27979 1.6002 12.43673 15.10716 19.46849 26.21289 13.64648 13.91378-9.10246 17.05736-.52409 27.4414 2.76758 7.31206 18.30535 19.69535 15.46226 32.32813 11.01758 11.34926 9.27272 21.81945 5.47256 29.21093-.8418 8.48198 5.22444 19.59433 2.56693 24.79493-5.92969 5.25976 8.35744 16.27026 10.9177 24.67773 5.73828 8.85246 8.23913 23.26639 8.25294 29.4082 1.03321 13.83264 6.66197 31.29185.8 32.57227-12.15039 10.42211-7.8071 16.61332-6.09281 24.55859-1.63672 11.23457 6.20866 25.17157-.99932 26.59766-13.75586 12.2574-2.27879 26.82292-2.61194 29.80655-16.16654.82381-21.87667-23.41183-25.21854-39.52921-30.67526 16.8273-20.44524 35.73538-44.17515 34.65821-69.66992-.57937-10.58324-5.60797-21.32248-13.58399-28.74905-18.66043-14.16285-35.99307-13.08065-56.06348-9.79499 6.4353-6.52091 10.85645-15.16693 10.85645-24.81738z" fill="#994100"/><path d="m294.63444 285.5192c0-6.3157 2.29869-12.19394 6.15537-16.83656-3.02788.11496-6.1062.88186-9.0696 2.47207-24.8603 13.34371-57.32031 13.0309-81.59701.001-3.88861-2.08704-7.84427-2.73642-11.58602-2.31022 3.77623 4.61687 6.02639 10.43041 6.02639 16.6737 0 13.74142-10.87853 25.42311-25.01482 26.76757-8.15715 8.85624-13.76211 18.88005-15.57105 29.66899 28.56119-14.12131 58.07186-21.11489 87.51868-21.0769 29.46789.038 58.87002 7.11527 87.19687 21.14338-1.71763-10.7735-7.16169-20.80088-15.75495-29.61734-16.00141.0143-28.30386-12.27289-28.30386-26.88569zm-132.67703.00078c0 8.48643 6.77346 14.9268 14.86357 14.9268 8.0901 0 14.86228-6.44037 14.86228-14.9274s-6.77218-14.92857-14.86229-14.92828c-8.09074.0003-14.86356 6.44066-14.86356 14.92888zm145.55542 0c0 8.48643 6.77283 14.9268 14.86229 14.9268 8.09011 0 14.86293-6.44037 14.86293-14.9274s-6.77346-14.92857-14.86261-14.92828c-8.08978.0003-14.86261 6.44066-14.86261 14.92888zm40.22448 43.01092c4.42241 11.54932 5.47215 24.17362 1.72082 37.19146-2.72011 9.43557.59574 22.24447 7.47073 32.50334l2.99468 4.46967-4.48244 3.22315c-12.62043 9.06993-23.26782 14.90305-29.43852 20.93206-6.1707 6.02961-8.86719 11.62827-6.96949 24.26265l.97375 6.47598c2.29613 2.78983 4.90259 5.59748 7.75296 8.34576 12.69131-8.63661 22.99326-14.17889 43.6393-2.43013-4.30238-11.1617 10.1768-17.66617 29.83185-17.67686-23.56793-9.42607-41.4913-15.20756-55.19276-18.03063 43.09528-42.84948 62.05306-75.95471 42.1426-94.49108-5.21802-4.85728-12.35927-7.14316-21.95438-7.29156-6.14771.0498-12.1294.91531-18.4891 2.51619zm-235.9181 4.77681c-19.910463 18.53577-.95268 51.6416 42.1426 94.49107-13.70018 2.82308-31.62483 8.60516-55.192759 18.03005 19.655049.0119 34.134229 6.51574 29.831849 17.67686 20.64477-11.74817 30.94799-6.2053 43.63866 2.43072 4.28642-4.13252 8.02753-8.39681 10.97496-12.53645l.34288-2.28529c1.8977-12.6332-.79815-18.23245-6.96885-24.26206-6.1707-6.029-16.81873-11.86213-29.4398-20.93265l-4.48244-3.22137 2.99596-4.46967c6.85137-10.22623 10.12572-23.28799 7.47073-32.50453-3.69194-12.80475-2.67222-25.19161 1.6193-36.54089-7.23831-2.01105-14.01816-3.09612-20.89634-3.16735-9.65704.14839-16.81809 2.43487-22.03675 7.29156zm139.67589-1.56037c-29.43341-.0386-58.93578 7.61388-87.84433 23.05828.30011 2.60404.82498 5.23836 1.59248 7.90057v.001c3.48188 12.08176.37865 25.48246-6.05576 36.97835 10.14615 6.90573 19.37474 12.18386 26.48471 19.13114 6.61511 6.4641 10.72401 14.91789 10.82617 25.94664-.69982 9.68013-5.84696 23.31173-14.2691 35.16615 15.70131-8.45082 26.90358-9.10138 28.91877 2.07279 9.00127-10.55566 16.40879-12.10076 24.89286-4.76943-2.39127-18.66933-7.09847-31.39275-11.01965-38.64038-9.51146-21.7055-27.33905-36.49578-47.08605-49.51896l7.25363-9.50562c24.76708 16.33359 49.03739 37.19561 56.90784 70.97219 6.14771.41847 12.29159.38583 18.42142-.095 7.89344-33.72137 32.13948-54.56083 56.88293-70.87839l7.25364 9.5068c-19.91558 13.13418-37.88556 28.06454-47.33381 50.07633-3.85987 7.33489-8.3902 19.88083-10.72273 38.08301 8.48598-7.33073 15.89287-5.78623 24.89414 4.76943 2.01327-11.17417 13.21554-10.5242 28.91749-2.07279-8.62647-12.14171-13.82086-26.15202-14.31572-35.86658.26499-10.6904 4.34835-18.91863 10.82299-25.2468 7.10997-6.94788 16.33728-12.22482 26.48215-19.13114-6.42611-11.45019-9.57148-24.77373-6.05321-36.98133.76495-2.65152 1.29493-5.27694 1.6027-7.87445-28.63781-15.30847-58.0112-23.04284-87.45483-23.08202z" fill="#ffa348" stroke-width="36"/></g></svg>