<svg height="500" viewBox="0 0 500 500" width="500" xmlns="http://www.w3.org/2000/svg"><g transform="translate(.000015)"><circle cx="-249.99998" cy="250" fill="#e51a1a" r="250" transform="scale(-1 1)"/><path d="m181.33938 83.856939c97.52275-31.84694 203.27597 26.159281 217.12696 131.568651 10.04116 85.89723-45.79566 162.6049-131.11288 174.6444-76.26503 6.65-147.16573-45.4981-149.44603-126.3231.16679-50.89801 30.03241-87.97493 76.60677-108.40662 44.00125-16.48183 90.46555-3.00917 112.28155 39.63622 17.95322 40.0953 3.57775 87.31302-40.4313 103.80676-21.98685 8.23292-51.6578-5.55285-56.72562-31.5612 24.48155 21.7253 69.7211 11.74379 80.1808-21.06198 5.24648-24.88185-11.48198-41.52298-24.36368-55.64156-23.21161-15.22125-63.26956-13.16738-85.32502 12.05139-41.51846 46.43224-18.48961 112.52397 35.72777 131.08081 60.66482 17.11352 118.96473-29.63961 126.96137-92.39988 2.7637-54.83226-40.99398-106.19486-96.51046-114.27807-76.21988-10.3001-138.45939 50.84936-147.743191 124.09106-9.31956 73.21828 47.315731 138.67973 111.863041 158.33924 49.05305 9.49897 98.18701 2.07129 139.64056-27.40671 82.90715-58.95602 100.11901-177.97214 43.55644-260.39974-52.71171-79.885311-158.575-103.987181-249.15842-67.061741-86.705021 39.45169-149.0660905 134.549061-117.102931 229.167621 15.77888-74.65377 50.93986-153.5943 123.407351-187.514491 9.28724-4.60517 19.44718-8.7232 30.56692-12.33106zm-160.722321 286.075591c-52.57825-113.8254-.38403-260.89182 113.777041-317.643861 10.84604-5.32012 22.21219-9.7712 34.03518-13.36069 115.76394-28.75816 246.03978 34.00351 263.68455 158.897471 10.04526 85.91695-27.72044 168.80365-107.97396 206.83173-102.24035 46.26108-224.798841-11.43986-234.690511-131.24969-7.33455-123.78718 127.307171-194.136761 222.718561-137.24102-42.54074-27.89653-94.21826-33.44528-140.80825-12.98978-71.17376 32.62266-105.080851 118.0397-80.762351 190.63139 30.697281 88.13423 123.572931 132.04164 212.817841 105.59803 82.80488-25.06359 132.16266-100.33164 140.19255-180.04986 12.12434-145.020371-132.23823-245.3588802-265.59709-221.973611 7.92036-4.10499 20.5989-8.4277792 35.61563-11.7452592 60.06317-13.23825 124.63426-3.45807 179.45368 32.4903392 109.65077 71.904621 141.09454 217.803071 65.16008 333.599141-143.00482 218.07486-377.311781 117.06797-437.622951-1.79433" fill="#b21a1a"/></g><path d="m84.378906 51.015625-25.318359 53.035155c-16.316287 34.17878-17.818859 64.07704-8.00586 88.05078 9.813 23.97374 28.758982 40.35047 47.689454 54.25391 18.930469 13.90344 38.537179 25.76789 52.556639 38.1582 12.4053 11.59347 39.8821 53.00547 8.84961 40.48047-43.80876-28.93956-64.099379-63.84015-99.853291-103.24106l10.716573 63.33286c57.594288 123.12658 132.310288 187.04638 205.011718 207.53906s141.93392-3.41762 183.57422-50.69336 55.37908-118.69777 20.70703-187.4668c-34.67205-68.76902-115.37431-133.91897-258.31055-177.87109l-44.67773-13.738281 39.15553 53.707171c15.2317 13.55092 26.016 32.29424 28.72533 44.27916 2.70933 11.98491-.41686 16.39739-4.94531 19.38476s-13.52419 4.5832-25.96289-1.57226c-34.48671-27.06673-74.13578-93.617776-74.13578-93.617776s7.90655 76.326386-.46187 79.508396c-22.74753 8.05604-43.363156-36.96612-46.587891-55.41406z" fill="#861313"/><path d="m216.70559 93.799306.80472 1.350738c110.6965 90.968136-3.69988 161.029206-59.7517 44.822476 14.55212 75.81229-72.125996 40.61406-82.454016-28.16796-59.475783 124.58775 111.479156 125.3504 116.742496 210.53608 2.97057 48.0569-71.56959 18.29287-104.7287-44.88129 224.33509 479.58947 689.26522-11.50056 129.3872-183.660044z" fill="#ff8066" stroke-width="36"/><path d="m340.83497 219.11111c40.99663 0 78.65113 17.19023 100.76027 48.24068 40.1496 69.47943-58.65451 25.17704-65.0371-8.12649-19.72715 53.9147 93.69989 105.41277 14.7149 156.55247 23.87676-31.41433 2.15666-104.33953-80.81699-100.27169 107.15391 66.59327 38.92643 190.1142-18.10668 85.59917 1.20111 32.23672 11.02698 50.38165 24.97486 59.20832-55.99939-10.9851-98.43348-60.21172-98.43348-119.36673 0-35.89105 15.57941-68.19852 40.35009-90.50869 1.53955 56.8753 76.89455 34.60097 106.65544 57.28603-10.6168-55.44461-51.52239-55.07064-76.07604-77.44235 15.52698-7.16996 32.80504-11.17163 51.01473-11.17163z" fill="#861313"/><path d="m243.8086 308.55759c-1.27469.0138-2.50522.10292-3.73759.22972 23.94115 6.19043 68.68548 77.02611 31.1542 56.74023 3.13611 13.4155 39.58124 38.36281 52.88167 19.4396 17.30472-24.61652-40.80993-76.84876-80.29736-76.40955z" fill="#ff8066"/><path d="m26.693359 0 1.160157 43.912109c4.26883 34.189217 35.256551 57.729421 61.320312 71.828121 31.404172 16.77112 69.890032 27.73952 101.248042 9.53516 27.49826-19.02802 15.02413-46.705206-2.95117-66.208984-30.2761-32.251803-58.85266-35.847847-100.031247-42.734375l24.349607 35.738281c-41.728442-7.353956-56.70522-24.729578-85.095701-52.070312z" fill="#861313"/><path d="m126.80674 41.166435c37.45679 53.48742-58.591048 23.811596-80.959536 2.269609.973023 36.830145 91.995726 91.549776 135.537106 66.272576 26.72593-15.5142-27.46169-64.006643-54.57757-68.542185z" fill="#ff8066" stroke-width="36"/></svg>