<svg height="500.0004" viewBox="0 0 500 500.0004" width="500" xmlns="http://www.w3.org/2000/svg"><g transform="translate(-500 -500)"><path d="m999.99997 750a249.99997 250 0 0 1 -249.99997 250 249.99997 250 0 0 1 -249.99997-250 249.99997 250 0 0 1 249.99997-250 249.99997 250 0 0 1 249.99997 250z" fill="#ffe24c"/><path d="m1000 750.00632-194.05817-2.60063 192.98367-20.4591-193.45987 15.31075 190.28547-38.19139-191.22567 33.10816 185.92267-55.58184-187.34707 50.61663 180.01317-72.50831-181.88127 67.68555 172.56127-88.82024-174.86477 84.18876 163.62798-104.35075-166.35478 99.94311 153.30278-119.00625-156.40808 114.88758 141.65488-132.65651-145.14668 128.82271 128.82258-145.14278-132.65648 141.65492 114.88758-156.42029-119.00218 153.31093 99.94719-166.3385-104.34669 163.60764 84.17649-174.84041-88.81609 172.54909 67.67739-181.89345-72.48799 180.02133 50.6167-187.35925-55.5941 185.94294 33.1-191.23373-38.1995 190.27732 15.3474-193.45586-20.4957 192.97968-2.59249-194.05413-2.5681 194.05413-20.4916-192.97968 15.327 193.45586-38.2004-190.27732 33.1171 191.23373-55.5936-185.94294 50.6162 187.35925-72.51029-180.02133 67.69979 181.89345-88.81699-172.54909 84.17729 174.84041-104.36289-163.60764 99.96869 166.3385-119.00618-153.31093 114.86968 156.42029-132.64018-141.65492 128.81968 145.14278-145.14988-128.82271 141.67318 132.65651-156.42638-114.88758 153.29788 119.00625-166.34218-99.94311 163.62828 104.35075-174.86477-84.18876 172.54667 88.82024-181.87387-67.68555 180.00617 72.50831-187.35587-50.61663 185.94077 55.58184-191.21897-33.10816 190.28097 38.19139-193.47947-15.31075 192.98647 20.4591-194.04384 2.60063 194.04384 2.58435-192.98647 20.46723 193.47947-15.31481-190.28097 38.20361 191.21897-33.12445-185.94077 55.58997 187.35587-50.60849-180.00617 72.5083 181.87387-67.68553-172.54667 88.81211 174.86477-84.17656-163.62828 104.33851 166.34218-99.95936-153.29788 119.0103 156.42638-114.87941-141.67318 132.66054 145.14988-128.83082-128.81968 145.13868 132.64018-141.66304-114.86968 156.42028 119.00618-153.28243-99.96869 166.32222 104.36289-163.59543-84.17729 174.84852 88.81699-172.55719-67.69979 181.8975 72.51029-180.02538-50.6162 187.35108 55.5936-185.93884-33.1171 191.21336 38.2004-190.26101-15.327 193.47618 20.4916-192.99594 2.5681 194.05003 2.59249-194.05003 20.4957 192.99594-15.3474-193.47618 38.1995 190.26101-33.1-191.21336 55.5941 185.93884-50.6167-187.35108 72.48799 180.02538-67.67739-181.8975 88.81609 172.55719-84.17649-174.84852 104.34669 163.59543-99.94719-166.32222 119.00218 153.28243-114.88758-156.42028 132.65648 141.66304-128.82258-145.13868 145.14668 128.83082-141.65488-132.66054 156.40808 114.87941-153.30278-119.0103 166.35478 99.95936-163.62798-104.33851 174.86477 84.17656-172.56127-88.81211 181.88127 67.68553-180.01317-72.5083 187.34707 50.60849-185.92267-55.58997 191.22567 33.12445-190.28547-38.20361 193.45987 15.31481-192.98367-20.46723z" fill="#fffbb3" fill-rule="evenodd"/></g><path d="m0 0v16.59375l179.98438 202.69336-179.98438-134.990235v23.634765l191.55664 143.66992-191.55664-71.83594v20.19532l172.46484 64.67383-172.46484-21.79883v19.05468l172.77344 21.84961-172.77344 21.59571v19.05468l171.49609-21.43359-171.49609 64.30859v20.19532l165.00977-61.87696-165.00977 103.13086v22.29688l155.14648-96.96484-155.14648 135.7539v10.19922h17.056641l140.062499-122.55664-105.046874 122.55664h24.90625l115.457034-134.70312-76.97266 134.70312h21.77734l86.82032-151.93945-45.39844 151.93945h19.76953l42.11328-141.01953v141.01953h.002 18.90624v-148.04883l42.53903 148.04883h19.66601l-41.66211-144.99805 82.76368 144.99805h21.77734l-79.85938-139.91016 118.34571 139.91016h24.90234l-98.66211-116.64258 133.67969 116.64258h17.05664v-10.19922l-157.25977-137.19922 157.25977 98.41211v-22.29687l-166.34766-104.08789 166.34766 62.83203v-20.19532l-169.76758-64.09374 169.76758 21.21874v-19.05468l-163.25781-20.40625 163.25781-23.03907v-19.05468l-182.80078 25.67578 182.80078-68.54883v-20.19531-.002l-191.56055 71.83598 191.56055-143.66992v-23.634765l-180.54688 135.412105 180.54688-203.11523v-16.59375h-10.54688l-189.52929 213.2207 118.45508-213.2207h-21.62891-.002l-123.4023 222.12305 49.36524-222.12305h-19.3711l-43.88672 197.49023v-197.49023h-18.90624v193.59766l-43.78126-193.59766h-19.39257l50.89257 225.0293-125.01367-225.0293h-21.628903l118.783203 213.8125-189.859375-213.8125z" fill="#fffdcc" opacity=".9"/><path d="m250 69.878906-208.511719 361.152344h417.021489z" fill="#f2c80d"/><path d="m250 105.87944-78.42017 135.82775c21.32038-9.56093 48.58614-15.07353 78.42017-15.07353s57.10084 5.5126 78.42017 15.07353zm0 139.66283c-15.48004 0-27.82563 12.34244-27.82563 27.82353 0 8.96639 4.14706 16.875 10.64076 21.94853a29.506303 29.506303 0 0 1 -1.45379-9.03676 29.506303 29.506303 0 0 1 29.50631-29.50631 29.506303 29.506303 0 0 1 13.67647 3.38551c-4.67017-8.73425-13.85925-14.61555-24.54412-14.61555zm-40.10504 3.92437c-13.29412 2.69748-25.13656 6.64706-34.75 11.45378-18.51891 9.25946-27.53152 20.75421-27.53152 31.08614 0 10.33298 9.01261 21.82458 27.53152 31.08403 18.5189 9.25946 45.24895 15.38131 74.85504 15.38131s56.33614-6.12185 74.85504-15.38131c18.51891-9.25945 27.53152-20.75105 27.53152-31.08403 0-10.33193-9.01261-21.82773-27.53152-31.08614-9.61449-4.80672-21.45588-8.7563-34.75-11.45378 4.20168 7.0063 6.62815 15.18172 6.62815 23.89916 0 25.69853-21.03466 46.7332-46.73319 46.7332s-46.7332-21.03467-46.7332-46.7332c0-8.71849 2.42648-16.89391 6.62816-23.89916zm-77.23845 59.65757-59.9916 103.90756h354.66808l-59.9895-103.90756c-6.05357 12.68697-18.56828 23.14601-34.03361 30.88025-21.96114 10.97899-51.15022 17.37395-83.31093 17.37395-32.16072 0-61.34979-6.39496-83.30883-17.37395-15.46743-7.73424-27.98319-18.19328-34.03361-30.88235z" fill="#fffdcc" stroke-width="36"/></svg>