<svg height="500" viewBox="0 0 500 500" width="500" xmlns="http://www.w3.org/2000/svg" xmlns:xlink="http://www.w3.org/1999/xlink"><filter id="a" color-interpolation-filters="sRGB" height="1.11297" width="1.083365" x="-.041683" y="-.056485"><feGaussianBlur stdDeviation="10.760932"/></filter><g transform="translate(-1000 -500)"><circle cx="1250" cy="750" fill="#8f29a3" r="250"/><path d="m1250.0521 500.09326-.061 248.75004-15.9199-248.2399a249.99917 250.18666 0 0 0 -31.6776 4.06945l45.0428 231.17052c-.102.0363-.2268.0547-.3789.0547l2.377 12.94521-.25-.53361-.5352-1.34279-3.3574-10.61339c-.1814.0698-.3456.12506-.5117.12506l-.1211.0782-83.1951-220.24831a249.99917 250.18666 0 0 0 -14.7401 6.13348l96.9 214.60543-.2187.11532 2.3047 4.43886 2.3437 5.21678.055.0488.416.7486.7461 1.26658v.0314l-.7461-1.29782-.4707-.79746-5.5273-9.21c-.1841.12151-.3808.23754-.5664.39678l-123.4077-200.53639a249.99917 250.18666 0 0 0 -34.1776 25.40763l164.5483 186.40079-.3984-.58052.832 1.02616v.0508l-.3262-.32448-.094-.12903v-.006-.002l-176.1809-175.46484a249.99917 250.18666 0 0 0 -21.0273 24.05115l186.5306 143.42536-.1425.18569 10.4687 8.26398-2.0957-1.07698-9.4082-5.66242c-.1395.18156-.2273.33335-.3066.47301l-208.0031-109.74966a249.99917 250.18666 0 0 0 -7 14.40723l214.5266 96.34337c-.074.17741-.1655.3791-.2578.59419l12.1758 4.73596-.037-.0253.5254.23653-.4863-.21109.3574.18179.2129.0802-.2129-.0508v-.0295l-12.8066-4.08117c-.056.14944-.1255.33501-.1758.5082l-224.9661-68.33223a249.99917 250.18666 0 0 0 -8.7656 41.69908l246.1613 30.77687h-1.2363l-246.3644-14.82161a249.99917 250.18666 0 0 0 -.4219 14.51082 249.99917 250.18666 0 0 0 .6113 17.47203l234.4934-16.18786h-.027l.3066-.0234-.2773.0234 12.9687-.73492-7.6699 1.8549-.3028.0508-4.789.9382.07.23845-228.2004 55.91086a249.99917 250.18666 0 0 0 4.2871 15.37279l224.173-70.26921c.093.36314.1859.69573.2793.95971l11.9648-4.46623-6.7285 3.52803-218.2141 100.03556a249.99917 250.18666 0 0 0 21.0155 36.99246l204.0072-139.70972-2.9414 2.38851-191.599 150.2058a249.99917 250.18666 0 0 0 21.2792 23.80097l164.7143-167.43742c.2793.26396.5666.50585.8359.80333l7.6309-8.62753v-.0314l.7578-.86587.1855-.23653.7754-.84633.02-.0645.057-.0272-.023.15832-.1035.11531.051-.18179-.068.18179-1.3203 1.73762.6133-1.0457-.1856.20916-.7578.89715-2.5996 3.67852-4.2753 5.57643.287.1818-133.9214 192.92518a249.99917 250.18666 0 0 0 13.3768 8.68037l121.3629-200.99764c.1115.0698.2562.1641.4043.23263l6.9082-11.76855-.2793.71929-100.1481 226.51466a249.99917 250.18666 0 0 0 40.1346 13.79743l59.6931-236.78211-1.5742 9.22563.2364.0566-42.7675 230.89101a249.99917 250.18666 0 0 0 31.6386 3.76263l12.9316-234.50119c.2415.0238.455.0234.6602.0234h.031v-12.36276l.055-.87175.3809 3.35211.6328 9.85892c.1939 0 .3385-.0234.5058-.0234l27.248 233.23258a249.99917 250.18666 0 0 0 15.7831-2.3455l-42.1484-231.0161c.254-.028.4739-.0916.707-.11531l-2.0644-10.71502-.055-.13878-.3203-1.79235.018.0295.3575 1.90182 74.3923 234.18055a249.99917 250.18666 0 0 0 39.205-16.19959l-111.1503-215.75097 4.1406 6.7179.2696-.18569 120.6715 201.44522a249.99917 250.18666 0 0 0 26.2108-18.10533l-145.5071-184.32505c.254-.18717.4204-.39029.6562-.60397l-8.457-9.554 3.3672 3.03156 5.8437 5.83834.2872-.30686 174.8256 156.82795a249.99917 250.18666 0 0 0 10.2715-12.18293l-184.478-145.35845c.1296-.15783.305-.33279.4082-.48083l-9.3632-7.21437 211.5852 126.78601a249.99917 250.18666 0 0 0 18.7245-38.19257l-229.6555-89.16613 11.0274 3.36579.012-.18569 223.9289 70.91228a249.99917 250.18666 0 0 0 7.6836-30.99187l-231.1887-41.80463c0-.16199.037-.30149.037-.44955l-7.3671-.90693-4.5508-.79941 12.0312.70755c.03-.32965.029-.62841.029-.96361l235.009 1.78454a249.99917 250.18666 0 0 0 .011-2.19892 249.99917 250.18666 0 0 0 -.3809-13.81303l-234.6691 13.37131v-.33226l-11.7754.81114-2.207.14075 2.1641-.14075h.043l242.6422-45.60435a249.99917 250.18666 0 0 0 -11.2772-41.04821l-231.0032 85.65376-.2598.0684 10.5078-4.79069c-.1716-.35894-.395-.80876-.6601-1.20402l208.1651-109.51534a249.99917 250.18666 0 0 0 -7.877-13.90491l-200.7337 122.63837-.2109-.32833-5.6211 3.9033-4.707 2.86542 9.6699-7.59747-.1446-.20719 183.392-147.45376a249.99917 250.18666 0 0 0 -29.3651-30.85701l-161.2514 182.96656-2.3184 2.37091 151.2905-195.53064a249.99917 250.18666 0 0 0 -26.4154-17.96062l-119.2496 202.94829-.094-.0664-7.0644 11.68841 5.539-12.45265c-.2748-.15364-.5655-.24794-.8711-.35962l83.404-220.18189a249.99917 250.18666 0 0 0 -15.121-5.19332l-69.2811 225.07807c-.1088-.0378-.2229-.0651-.3808-.11531l-1.8809 7.53882-1.1289 3.69807 2.1055-11.46558c-.2011-.0197-.4082-.0561-.6133-.0743l40.1268-232.08917a249.99917 250.18666 0 0 0 -42.4354-3.64138zm-1.9453 235.66215 1.0117 8.77021v.043l.8711 4.45646v.46128l.029-.16807.023.62741v.1036l-.057-.1036v-.43977l-.066.30686-.2383-.49451-.5625-4.74964zm-9.3652 5.00568 7.0859 6.37391-.025-.0197zm25.7675 6.02013-11.8261 2.9006h-.057zm-12.1504.11531-1.6269 2.78332-.3496.40069.1113-.44954-.092.20719-.02.18179-.051.10553v-.0253l.051-.0802v-.16221l.02-.0197v-.10556l.012-.0234.082-.12118v-.0234l.033-.0272.061-.1505v.0197l-.061.13096-.033.0508zm-6.5292.23849 3.3242 2.54682.3633.56682-.4493-.16807.2012.13878h-.022l-.2188-.13878h.037zm5.0331.24627-.2968 1.58908.2968-.84047-.3339 1.37603-.1016.1505.1387-.68606.2617-1.56758zm-.582.38505-.086 1.71808-.057.19351-.1172-.46715zm3.1445.7447-2.2754 1.58908h-.023l-.4121.27757-.2871.11728.2129-.27557.074-.0215.8867-.71342zm-4.0429.57856.1348.14075v.0469l-.084-.1251zm3.8633.31665h.029l-.1738.0802zm-3.5254.18179.1835.3577v.0392l-.1835-.35376zm.416.0938.02.26385v.0392l.039.0958.047.11728-.047.0215-.039-.1192.039-.0197-.039-.0605v-.0352l-.057-.26192zm2.2207.0644-.07.0272-1.0156.30686.1562-.0605zm-5.6387.0665 2.3692.40655.3457.21498.029.0606-.3124.0644zm2.1641.31271h.053l.094.0314zm.7265.19155h.02v.0196zm-.164.0606h.02l.074.0802zm.2148.1818h.024l-.024.0314zm-.3359.16808h.057l.2461.0352-.8125.32836zm-.3887.0352h.2168l-.9316.47886.2637-.0527-.025.0272-.2383.0253-2.0253.39287v.0234l-5.2422.93428 5.2422-.95774zm1.7774.0234.5078.043.7519.2228-.8457-.0841zm-.2188.16418.035.0178.1113.22088.3282.16611 1.4394 1.4034-1.3496-1.00858-.2344-.2971-.1855-.26385-.018-.0333-.092-.18766h-.035zm-1.0625.0802-.25.27364h-.029l-2.7812 1.26461 2.2988-1.41316zm1.5703.0997.1485.0253.031.0314zm.2207.0253 1.9356.60398-1.9063-.57074zm-1.1796.17201.031.1251.022-.0978-.022.13092v.006l.076.23066.125 1.89594-.2324-1.35256.031-.77402-.088.50819v-.0919l-.031-.18569.031.14272v-.26385zm.7226.0919.061.0664.088.14661-.037-.0314zm-1.1406.1818-.2442.52578-3.9492 12.85138 3.9219-12.85138h.027l.084-.28732.01-.0117zm-.088.10552-.065.11339.041-.0978zm1.4648.0802.033.0234.1152.18962-.092-.0919zm-.4375.21306.023.0295.029.22669zm-1.7304.26581v.0295l.051-.0295zm2.2929 1.35257 4.8828 10.7893-4.8828-10.73457z" fill="#aa40bf"/></g><path d="m94.238281 236.15625c-11.234826 0-21.80605 6.55836-28.271484 15.23047 0 0-20.354428 40.98608-38.695313 52.81445-4.638414 2.9914-12.887228 4.47003-19.5019528 5.25977a250 249.90628 0 0 0 .0371094.1875l-.6230468.15234a249.99917 250.09288 0 0 0 4.2871092 15.36719l.417969-.13086a250 249.90628 0 0 0 11.308594 29.79101l-.251954.11524a249.99917 250.09288 0 0 0 21.015626 36.97852l.59375-.40626a250 249.90628 0 0 0 9.550781 12.75391l-.677735.53125a249.99917 250.09288 0 0 0 6.613282 7.39453 250 249.90628 0 0 0 2.896484 3.23828 249.99917 250.09288 0 0 0 11.769531 13.16016l.691407-.70313a250 249.90628 0 0 0 32.496092 27.05274l-.51367.74219a249.99917 250.09288 0 0 0 13.37695 8.67578l.44922-.7461a250 249.90628 0 0 0 28.08789 14.78711l-.28906.6543a249.99917 250.09288 0 0 0 40.13476 13.79102l.25782-1.01954a250 249.90628 0 0 0 15.51953 3.375l-.19141 1.03516a249.99917 250.09288 0 0 0 31.63867 3.76172l.06446-1.1582a250 249.90628 0 0 0 13.57031.9707 250 249.90628 0 0 0 28.69922-2.05273l.11133.94726a249.99917 250.09288 0 0 0 7.39648-1.09765v-9.45118-67.52929l9.71485-100.02344s-30.07636-.78386-42.9004-7.59961c-15.65752-8.32169-26.64681-23.8247-36.99609-38.22266-3.23131-4.4954-4.03884-10.13498-7.63086-14.75195-6.46045-8.51869-16.93573-15.05469-28.11719-15.05469-3.65186 0-7.16549.55083-10.91015 1.95508 0 0-10.25241 5.13121-15.83008 5.9375-10.4672 1.5131-21.47212.61344-31.64649-2.27344-10.00354-2.8384-16.59196-14.43943-27.652339-14.43945z" fill="#6a1f7a"/><path d="m94.238281 254.15625c-5.039978 0-9.847321 2.60978-13.861328 8.00977-1.016998 1.34999-1.952064 2.88-2.789062 4.5 3.527992 7.19998 5.480468 15.57048 5.480468 24.48046 0 5.57999-.755736 10.88986-2.177734 15.83985l13.707031 2.9707 12.869144-2.69922c.72-.9 1.53031-1.98086 2.07031-2.88086-3.23999-6.92998-5.03906-14.94041-5.03906-23.40039 0-6.83999 1.17024-13.31977 3.24023-19.25976-3.95998-5.03999-8.550004-7.56054-13.499999-7.56055zm86.039059 8.82031c-1.52999 0-3.14984.27055-4.58984.81055 1.62 5.30999 2.51953 11.15946 2.51953 17.18945 0 9.26998-2.06977 17.82119-5.75976 25.20117l23.75976 5.21875c-.62999-3.41999-.99023-7.01899-.99023-10.70898 0-7.28999 1.35141-14.21985 3.6914-20.33984-1.17-3.6-2.79148-6.84133-4.77148-9.36133-4.04999-5.39999-8.81939-8.00977-13.85938-8.00977zm-19.25976 57.24024c-5.57999 4.40999-12.23916 7.10937-19.61914 7.10937-7.10999 0-13.67994-2.52016-19.16992-6.66015l-28.621098 6.12109 21.689458 92.9707c1.33069 2.94269 3.40477 23.13386 5.50781 44.52539l.40234-.66797a250 249.90628 0 0 0 28.08789 14.78711l-.28906.6543a249.99917 250.09288 0 0 0 22.88281 8.67188l4.69922-3.70508v-67.23633c-3.23999-31.76993-6.66056-63.54061-9.81055-95.31055zm-86.781252 1.95703c-.437623.0675-.778939.33883-1.210937.92383-6.398988 8.45998-15.958522 14.39843-26.8125 14.39843-10.43998 0-19.672935-5.48822-26.044922-13.4082l-5.13086 1.07813-.554687 6.70312a250 249.90628 0 0 0 8.714844 22.95898l-.251954.11524a249.99917 250.09288 0 0 0 21.015626 36.97852l.59375-.40626a250 249.90628 0 0 0 9.550781 12.75391l-.677735.53125a249.99917 250.09288 0 0 0 6.613282 7.39453 250 249.90628 0 0 0 2.896484 3.23828 249.99917 250.09288 0 0 0 11.769531 13.16016l.691407-.70313a250 249.90628 0 0 0 8.746093 7.93165l2.529297-23.96875 3.69336-27.82618-14.345704-61.56054c-.814499-.225-1.347531-.36047-1.785156-.29297zm130.341792 9.47265-20.16015 3.06055 8.73047 85.05078v68.40039h75.05859v-68.40039l8.19141-84.33008-17.28125-3.06054c-.09.09-.0897.17953-.17969.26953-6.38998 8.45999-15.93033 14.40039-26.82031 14.40039-11.87998-1.70999-21.68908-7.20064-27.53907-15.39063z" fill="#eed9f2" stroke-width="36"/><path d="m228.64648 252.53711c-11.22997 0-21.75765 6.58529-28.21093 15.1582-6.83733 8.99402-10.48828 20.3533-10.48828 32.99219 0 12.63626 3.65108 23.99293 10.48437 32.98437 6.45174 8.5734 16.97833 15.16602 28.21484 15.16602 11.23652 0 21.76536-6.59045 28.21875-15.16602 6.83327-8.99143 10.48243-20.34811 10.48243-32.98437 0-12.63889-3.64903-23.99818-10.48633-32.99219-6.45493-8.57509-16.98486-15.1582-28.21485-15.1582z" fill="#6a1f7a"/><path d="m228.64727 270.53622c-5.03999 0-9.80938 2.60978-13.85937 8.00977-4.05 5.30999-6.83985 13.23063-6.83985 22.14063 0 8.90999 2.78985 16.82867 6.83985 22.13867 4.04999 5.39999 8.81938 8.01172 13.85937 8.01172 5.04 0 9.81133-2.61173 13.86133-8.01172 4.04999-5.31 6.83984-13.22868 6.83984-22.13867 0-8.91-2.78985-16.83064-6.83984-22.14063-4.05-5.39999-8.82133-8.00977-13.86133-8.00977z" fill="#eed9f2" stroke-width="36"/><path d="m42.742187 242.99609c-11.237796 0-21.789038 6.5504-28.259765 15.22461-6.7622691 8.97668-10.3945314 20.30064-10.3945314 32.92578 0 12.62779 3.6321863 23.95239 10.3984374 32.93164 6.472258 8.67368 17.024596 15.21876 28.255859 15.21875 11.231268.00001 21.78585-6.54284 28.259766-15.21875 6.766251-8.97925 10.396484-20.30385 10.396484-32.93164 0-12.62514-3.630313-23.9491-10.392578-32.92578-6.472386-8.67643-17.025875-15.22461-28.263672-15.22461z" fill="#6a1f7a"/><path d="m42.742975 260.99521c-5.030995 0-9.845379 2.61172-13.859375 8.01172-4.013996 5.30999-6.794922 13.22868-6.794922 22.13867s2.780926 16.83063 6.794922 22.14062c4.013996 5.4 8.82838 8.00977 13.859375 8.00977s9.847332-2.60977 13.861328-8.00977c4.013996-5.30999 6.794922-13.23063 6.794922-22.14062s-2.780926-16.82868-6.794922-22.13867c-4.013996-5.4-8.830333-8.01172-13.861328-8.01172z" fill="#eed9f2" stroke-width="36"/><path d="m137.92773 232.82617c-11.23459 0-21.75919 6.58668-28.21289 15.16016-6.83602 8.99233-10.488277 20.35135-10.488278 32.99023 0 12.63627 3.649808 23.9932 10.484378 32.98633 6.45466 8.57725 16.98493 15.16406 28.21679 15.16406 11.2314 0 21.76178-6.58954 28.21485-15.16406 6.91167-9.09475 10.39453-20.47017 10.39453-32.98633 0-12.51934-3.48454-23.89797-10.39844-32.99219-6.45217-8.5702-16.9773-15.1582-28.21094-15.1582z" fill="#6a1f7a"/><path d="m137.92852 250.82529c-5.03999 0-9.81133 2.61172-13.86133 8.01172-4.04999 5.30999-6.83984 13.22868-6.83984 22.13867s2.78985 16.83063 6.83984 22.14062c4.05 5.4 8.82134 8.00977 13.86133 8.00977 5.04 0 9.80938-2.60977 13.85938-8.00977 4.04999-5.30999 6.75-13.23063 6.75-22.14062s-2.70001-16.82868-6.75-22.13867c-4.05-5.4-8.81938-8.01172-13.85938-8.01172z" fill="#eed9f2" stroke-width="36"/><path d="m-69.189836 124.75061 100.998641 98.88819 321.482575 315.32759h197.1116v-51.19426l-303.00693-303.00693s-101.62319-93.275017-165.98651-102.299222c-51.635946-7.239736-150.599376 42.284632-150.599376 42.284632z" fill="#eed9f2" opacity=".5"/><path d="m418.51953 271.50977c-11.229 0-21.75751 6.58441-28.21094 15.15625-6.91548 9.09607-1.01177 26.29626-10.39843 32.99414-10.41135 7.42904-25.58235-.3763-38.35743-.9961-16.33642-.79258-48.94335-3.48047-48.94335-3.48047l-38.21485 30.83008-48.04101 7.29297 10.51367 102.43359 5.93945 42.64844a249.99917 250.09288 0 0 0 13.55859 1.61133l.06446-1.1582a250 249.90628 0 0 0 13.57031.9707 250 249.90628 0 0 0 28.69922-2.05273l.11133.94726a249.99917 250.09288 0 0 0 15.7832-2.34375l-.18555-1.01367a250 249.90628 0 0 0 30.81836-7.44727l.25391.79688a249.99917 250.09288 0 0 0 39.20508-16.19336l-.47852-.92969a250 249.90628 0 0 0 13.94727-7.61133l.46289.77149a249.99917 250.09288 0 0 0 26.21093-18.09961l-.60156-.76367a250 249.90628 0 0 0 31.14063-28.74414l.47656.42773a249.99917 250.09288 0 0 0 10.27148-12.17969l-.66015-.51953a250 249.90628 0 0 0 18.25976-26.06836l.55274.33008a249.99917 250.09288 0 0 0 13.0293-25.19531 250 249.90628 0 0 0 .23632-.53711 249.99917 250.09288 0 0 0 5.45899-12.44336l-.71289-.27734a250 249.90628 0 0 0 1.30859-3.50977l-.76953-2.76953s-17.2012-29.96908-28.62109-42.76953c-4.16473-4.66821-14.31055-12.14258-14.31055-12.14258-5.9374-5.03779-13.8438-7.96487-21.36719-7.96484z" fill="#6a1f7a"/><path d="m418.51953 289.50977c-5.03998 0-9.80938 2.60978-13.85937 8.00976-4.0501 5.31-6.75 13.23064-6.75 22.14063 0 3.32998.36008 6.47937 1.08007 9.35937l16.10938 3.50977c0-1.17-.08984-2.42946-.08984-3.68946 0-12.23996 3.69008-23.40119 10.08007-31.95117.99-1.26 2.0704-2.51945 3.15039-3.68945-2.96999-2.52-6.3007-3.68946-9.7207-3.68945zm-107.91015 45c0 5.39998-.72033 10.62031-2.07032 15.57031.18.36.36102.80992.54102 1.16992l26.54883 4.67969-7.01953 72.53906 5.8496 25.11133 3.96094 29.61719.06641.76562a249.99917 250.09288 0 0 0 26.19922-11.45703l-.47852-.92969a250 249.90628 0 0 0 13.94727-7.61133l.46289.77149a249.99917 250.09288 0 0 0 10.68554-7.37891l-.30273-3.77734-8.73047-93.33008-.54101-6.39062c8.54998-2.96999 17.19142-5.40102 23.9414-7.29102l-23.04101-4.94922c-5.93999 5.39999-13.40948 8.82031-21.68946 8.82031-10.88998 0-20.43032-5.94041-26.82031-14.40039zm112.85937 23.93945c-8.99998 1.98-17.7289 4.22985-26.45898 6.83984l7.5332 80.31641a250 249.90628 0 0 0 30.82422-28.47656l.47656.42773a249.99917 250.09288 0 0 0 10.27148-12.17969l-.66015-.51953a250 249.90628 0 0 0 18.25976-26.06836l.55274.33008a249.99917 250.09288 0 0 0 4.77148-9.22656c-5.03419 3.29739-10.84972 5.29687-17.1289 5.29687-12.77998-1.8-22.32142-7.56025-28.44141-16.74023zm-177.29883 7.01953-20.16015 3.06055 8.73046 85.05078 6.11133 43.89453.23438 1.70117a250 249.90628 0 0 0 8.91406.63672 250 249.90628 0 0 0 28.69922-2.05273l.11133.94726a249.99917 250.09288 0 0 0 15.7832-2.34375l-.18555-1.01367a250 249.90628 0 0 0 14.5918-3.52539l.79883-38.24414 8.1914-84.33008-17.28125-3.06055c-.09.09-.08969.17953-.17968.26953-6.38999 8.46-15.93034 14.4004-26.82032 14.4004-11.87997-1.70999-21.68906-7.20065-27.53906-15.39063zm158.44336 80.89453.00781.08594.03125.30859a249.99917 250.09288 0 0 0 .17578-.12109z" fill="#eed9f2" stroke-width="36"/><path d="m273.70898 286.35937c-11.22998 0-21.75961 6.58532-28.21289 15.15821-6.8373 8.99401-10.48632 20.3533-10.48632 32.99219 0 12.63888 3.65032 23.99791 10.48632 32.99023 6.45203 8.57125 16.97829 15.16016 28.21289 15.16016 11.23652 0 21.76506-6.59262 28.2168-15.16602 6.83162-8.98924 10.48438-20.3455 10.48438-32.98437 0-12.64151-3.65263-24.00038-10.48829-32.99219-6.45328-8.57292-16.9829-15.15821-28.21289-15.15821z" fill="#6a1f7a"/><path d="m451.91016 280.68945c-11.22996 0-21.75991 6.5831-28.21485 15.15821-6.8373 8.99401-10.48633 20.3533-10.48633 32.99218v.0899l.002.0918c.12533 12.4079 3.57211 23.70986 10.48242 32.80274 6.45472 8.57672 16.98539 15.16406 28.2168 15.16406 11.23186 0 21.7638-6.589 28.21679-15.16406 6.83331-8.99145 10.48242-20.34812 10.48242-32.98438 0-12.63888-3.649-23.99817-10.48632-32.99218-6.45329-8.57294-16.98294-15.15821-28.21289-15.15821z" fill="#6a1f7a"/><path d="m358.93945 255.93945c-11.22995 0-21.7596 6.5853-28.21289 15.15821-6.8373 8.99401-10.48633 20.3533-10.48633 32.99218 0 12.63626 3.64914 23.99293 10.48243 32.98438 6.45299 8.57504 16.98493 15.16406 28.21679 15.16406 11.23141 0 21.76178-6.58951 28.21485-15.16406 6.91043-9.09309 10.39453-20.46823 10.39453-32.98438 0-12.51933-3.48323-23.89822-10.39844-32.99414-6.45343-8.57187-16.98193-15.15625-28.21094-15.15625z" fill="#6a1f7a"/><g fill="#eed9f2"><path d="m273.70931 304.35917c-5.04 0-9.80938 2.60978-13.85938 8.00977-4.04999 5.30999-6.83984 13.23063-6.83984 22.14063 0 8.90999 2.78985 16.82867 6.83984 22.13867 4.05 5.39999 8.81938 8.01172 13.85938 8.01172 5.03999 0 9.80938-2.61173 13.85937-8.01172 4.05-5.31 6.8418-13.22868 6.8418-22.13867 0-8.91-2.7918-16.83064-6.8418-22.14063-4.04999-5.39999-8.81938-8.00977-13.85937-8.00977z" stroke-width="36"/><path d="m451.91048 298.68925c-5.04 0-9.81133 2.60977-13.86133 8.00977-4.04999 5.30999-6.83984 13.23063-6.83984 22.14062.09 8.90999 2.78985 16.82868 6.83984 22.13867 4.05 5.4 8.82133 8.00977 13.86133 8.00977 5.03999 0 9.80938-2.60977 13.85937-8.00977 4.05-5.30999 6.83985-13.22868 6.83985-22.13867s-2.78985-16.83063-6.83985-22.14062c-4.04999-5.4-8.81938-8.00977-13.85937-8.00977z" stroke-width="36"/><path d="m358.93978 273.93925c-5.04 0-9.80938 2.60977-13.85938 8.00977-4.04999 5.30999-6.83984 13.23063-6.83984 22.14062s2.78985 16.82868 6.83984 22.13867c4.05 5.4 8.81938 8.00977 13.85938 8.00977 5.03999 0 9.80938-2.60977 13.85937-8.00977 4.05-5.30999 6.75-13.22868 6.75-22.13867s-2.7-16.83063-6.75-22.14062c-4.04999-5.4-8.81938-8.00977-13.85937-8.00977z" stroke-width="36"/><path d="m-69.189836 124.75061 100.998641 98.88819 321.482575 315.32759h197.1116v-51.19426l-303.00693-303.00693s-101.62319-93.275017-165.98651-102.299222c-51.635946-7.239736-150.599376 42.284632-150.599376 42.284632z" filter="url(#a)" opacity=".5"/><path d="m-82.519466 63.604177c-5.610714-.72656-11.972479-1.648467-17.099099-1.6596-34.764305 0-63.055805 27.835204-63.055805 62.577003 0 34.7418 28.3698 63.1404 63.055805 63.1404 16.864199 0 31.782601-6.5997 43.1154-17.4654l6.2163-5.9625 5.8212 6.3576c8.3898 9.1692 20.4462 14.877 33.9183 14.877 16.6913998 0 30.9186-8.6256 39.0096-21.852l7.226999-11.8125 7.144203 11.8674c13.302 22.0887 36.675 36.648 64.265393 36.648 23.7897 0 44.9667-11.0538 58.8654-28.2384l7.425-9.198 6.2442 10.0413c8.1315 13.032 22.6386 21.8817 39.0654 21.8817 25.4277 0 46.0125-20.5956 46.0125-46.0692 0-23.4-17.505-42.615-39.996-45.5904l-9.6174-1.2654c6.27982-18.639776 2.50246-30.814474-3.14606-44.609681-5.48763-13.402287-15.81658-25.555036-28.21623-33.037294-15.46253-9.330483-34.93783-14.227897-52.84999-11.925178-14.73892 1.894779-33.395935 9.137558-39.591384 20.492853-12.667109-18.257717-23.576077-21.310981-38.096227-26.8195243-15.912206-6.03665106-33.736183-6.46343675-50.7376668-5.69598036-14.1198412.6373775-29.5003322 1.10420906-41.5403692 8.50783466-19.858156 12.211119-39.390334 32.949254-43.439469 54.809967z"/></g></svg>