<svg height="500.0004" viewBox="0 0 500 500.0004" width="500" xmlns="http://www.w3.org/2000/svg"><g transform="translate(-500 -500)"><path d="m999.99997 750a249.99997 250 0 0 1 -249.99997 250 249.99997 250 0 0 1 -249.99997-250 249.99997 250 0 0 1 249.99997-250 249.99997 250 0 0 1 249.99997 250z" fill="#ffe24c"/><path d="m1000 750.00632-194.05817-2.60063 192.98367-20.4591-193.45987 15.31075 190.28547-38.19139-191.22567 33.10816 185.92267-55.58184-187.34707 50.61663 180.01317-72.50831-181.88127 67.68555 172.56127-88.82024-174.86477 84.18876 163.62798-104.35075-166.35478 99.94311 153.30278-119.00625-156.40808 114.88758 141.65488-132.65651-145.14668 128.82271 128.82258-145.14278-132.65648 141.65492 114.88758-156.42029-119.00218 153.31093 99.94719-166.3385-104.34669 163.60764 84.17649-174.84041-88.81609 172.54909 67.67739-181.89345-72.48799 180.02133 50.6167-187.35925-55.5941 185.94294 33.1-191.23373-38.1995 190.27732 15.3474-193.45586-20.4957 192.97968-2.59249-194.05413-2.5681 194.05413-20.4916-192.97968 15.327 193.45586-38.2004-190.27732 33.1171 191.23373-55.5936-185.94294 50.6162 187.35925-72.51029-180.02133 67.69979 181.89345-88.81699-172.54909 84.17729 174.84041-104.36289-163.60764 99.96869 166.3385-119.00618-153.31093 114.86968 156.42029-132.64018-141.65492 128.81968 145.14278-145.14988-128.82271 141.67318 132.65651-156.42638-114.88758 153.29788 119.00625-166.34218-99.94311 163.62828 104.35075-174.86477-84.18876 172.54667 88.82024-181.87387-67.68555 180.00617 72.50831-187.35587-50.61663 185.94077 55.58184-191.21897-33.10816 190.28097 38.19139-193.47947-15.31075 192.98647 20.4591-194.04384 2.60063 194.04384 2.58435-192.98647 20.46723 193.47947-15.31481-190.28097 38.20361 191.21897-33.12445-185.94077 55.58997 187.35587-50.60849-180.00617 72.5083 181.87387-67.68553-172.54667 88.81211 174.86477-84.17656-163.62828 104.33851 166.34218-99.95936-153.29788 119.0103 156.42638-114.87941-141.67318 132.66054 145.14988-128.83082-128.81968 145.13868 132.64018-141.66304-114.86968 156.42028 119.00618-153.28243-99.96869 166.32222 104.36289-163.59543-84.17729 174.84852 88.81699-172.55719-67.69979 181.8975 72.51029-180.02538-50.6162 187.35108 55.5936-185.93884-33.1171 191.21336 38.2004-190.26101-15.327 193.47618 20.4916-192.99594 2.5681 194.05003 2.59249-194.05003 20.4957 192.99594-15.3474-193.47618 38.1995 190.26101-33.1-191.21336 55.5941 185.93884-50.6167-187.35108 72.48799 180.02538-67.67739-181.8975 88.81609 172.55719-84.17649-174.84852 104.34669 163.59543-99.94719-166.32222 119.00218 153.28243-114.88758-156.42028 132.65648 141.66304-128.82258-145.13868 145.14668 128.83082-141.65488-132.66054 156.40808 114.87941-153.30278-119.0103 166.35478 99.95936-163.62798-104.33851 174.86477 84.17656-172.56127-88.81211 181.88127 67.68553-180.01317-72.5083 187.34707 50.60849-185.92267-55.58997 191.22567 33.12445-190.28547-38.20361 193.45987 15.31481-192.98367-20.46723z" fill="#fffbb3" fill-rule="evenodd"/></g><path d="m368.4063 412.09764c39.46968-56.63468 52.77033-128.65829 45.90567-196.51624-7.86137-68.53698-37.81846-140.40478-98.64674-177.8481-37.49051-23.303502-88.40077-25.856224-125.99748-1.451488-57.83818 30.836787-89.32934 94.446728-100.541059 156.732288-14.843705 84.48045 2.423935 178.76938 61.852799 243.19792 31.00842 25.47371 69.8143 49.37706 111.68946 43.9383 32.25594-4.95539 61.1264-22.94875 85.84184-43.42479 7.36297-7.58085 13.79704-16.01455 19.89551-24.62789z" fill="#f2c80d"/><path d="m249.99865 36.994047c-39.9627 0-76.5666 22.8708-103.7016 61.2936-19.9098 28.189803-34.4187 64.639803-40.7412 105.565503 10.1412-3.0654 20.16-4.6944 29.8584-4.923 11.9718-.2844 23.4567 1.557 34.083 5.4216h.576c.4554.2367.891.4833 1.341.7236 12.7872 4.9968 24.273 12.978 33.7905 23.778 24.8328 28.179 36.2097 73.98 27.9018 133.0524 10.5093 1.8927 23.2146 1.8 33.3504-.0126-8.3043-59.0652 3.0744-104.8626 27.9054-133.0398 24.2577-27.5274 61.299-36.756 100.1016-24.867-6.3108-40.9797-20.8305-77.4783-40.761-105.699603-27.1368-38.4228-63.7425-61.2936-103.7052-61.2936zm124.2648 179.480703c-1.593 21.1707-16.713 39.3138-38.196 51.9084-14.4216 8.4555-31.968 14.7132-51.4323 18.1602-4.995 21.9645-5.6943 48.8862-.4356 80.4006l1.2096 7.2468-7.02 2.1708c-16.8687 5.22-39.285 5.5458-57.213 0l-7.02-2.1708 1.2096-7.2468c5.247-31.4388 4.563-58.3038-.3996-80.2395-19.845-3.4074-37.7298-9.7272-52.3863-18.3204-21.4326-12.5658-36.5337-30.654-38.187-51.7626-6.8103 1.1178-13.8582 3.0186-21.1122 5.7573-.819 9.0396-1.2447 18.261-1.2447 27.6237 0 59.5368 17.127 113.292 44.262 151.713 3.6846 5.2182 7.551 10.1385 11.5695 14.7645 5.8383-4.6548 13.2975-8.334 22.1328-11.421 18.2934-6.39 42.5484-10.1052 69.3234-10.1052s51.03 3.7143 69.3252 10.1052c9.1467 3.195 16.8354 7.0164 22.761 11.907.0567.0486.1116.099.1692.1467 4.2183-4.8087 8.271-9.9396 12.123-15.3972 27.135-38.421 44.262-92.1762 44.262-151.713 0-9.504-.441-18.8595-1.2843-28.0305l-.1827.4842c-7.6527-2.9052-15.075-4.878-22.2336-5.9805zm-124.9398 195.2955c-25.1856 0-47.9952 3.6522-63.7767 9.1656-6.8004 2.376-12.2616 5.13-15.9525 7.749 23.3514 21.8988 50.9643 34.3224 80.4042 34.3224 29.187 0 56.5803-12.2112 79.8048-33.7608-3.6783-2.7864-9.4122-5.7645-16.7013-8.3106-15.7797-5.5134-38.592-9.1656-63.7776-9.1656z" fill="#fffdcc" stroke-width="36"/><path d="m249.40105 144.87705c8.298 0 15.0255 6.8247 15.0255 15.2424 0 8.4186-6.7275 15.2406-15.0255 15.2406s-15.0237-6.822-15.0237-15.2397c0-8.4168 6.7248-15.2415 15.0228-15.2415z" fill="#e01b24"/><path d="m247.76845 107.81505c1.1412-.0153 2.2824-.0162 3.4236 0 36.531.4932 72.5715 16.5258 102.879 45.8118l6.2847 6.0732-6.309 6.048c-33.5655 32.1696-70.2405 48.2724-106.353 47.9277-36.1152-.3456-71.0028-17.1666-100.8927-48.1635l-5.7177-5.9292 5.8086-5.8392c30.123-30.276 65.484-45.4608 100.8756-45.9306z" fill="#f2c80d"/><path d="m206.0332 133.34961c-15.09582 5.98777-27.83738 14.55542-40.91797 26.44531 13.49099 12.75299 26.32505 22.30135 42.12696 28.38477 13.25011 5.10102 27.96712 6.06383 42.16518 6.03077 14.19573-.0331 28.83876-1.23912 42.12974-6.22608 16.34479-6.13279 29.49481-15.51287 44.05859-28.31446-13.68898-11.92769-27.39816-20.7059-43.23437-26.73047-13.61115-5.1781-28.47137-7.59287-43.03408-7.53345-14.67213.0599-29.65551 2.53387-43.29405 7.94361z" fill="#ffe24c"/><path d="m206.03365 133.34985c-14.0823 5.8023-27.837 14.5557-40.9176 26.4456 13.491 12.753 27.6165 22.212 42.1254 28.3833-5.382-8.1414-8.5284-17.9064-8.5284-28.3698 0-9.657 2.6757-18.72 7.3197-26.4582z" fill="#fffdcc"/><path d="m292.36165 132.93855c4.7988 7.83 7.578 17.0397 7.578 26.8695 0 10.3815-3.0978 20.0736-8.4033 28.1763 14.7285-6.1362 29.4948-15.5124 44.0586-28.314-13.689-11.9277-28.2582-20.8656-43.2342-26.7318z" fill="#fffdcc"/><path d="m215.53225 159.80805c0 19.1637 15.0975 34.4025 33.795 34.4025s33.795-15.2388 33.795-34.4025c0-19.1646-15.0975-34.4016-33.795-34.40205s-33.795 15.23835-33.795 34.40205z" fill="#f2c80d"/></svg>