<svg height="500" viewBox="0 0 500.00052 500" width="500.00052" xmlns="http://www.w3.org/2000/svg" xmlns:xlink="http://www.w3.org/1999/xlink"><linearGradient id="a"><stop offset="0" stop-color="#d5f6ff"/><stop offset=".80876225" stop-color="#d5f6ff" stop-opacity=".498039"/><stop offset="1" stop-color="#d5f6ff" stop-opacity=".1"/></linearGradient><radialGradient id="b" cx="249.99998617249" cy="750.00002617249" gradientUnits="userSpaceOnUse" r="250.00000617249" xlink:href="#c"/><linearGradient id="c"><stop offset="0" stop-color="#d5f6ff"/><stop offset=".09472227" stop-color="#d5f6ff"/><stop offset=".20889115" stop-color="#aef"/><stop offset=".41332352" stop-color="#80e5ff"/><stop offset=".54340753" stop-color="#5df"/><stop offset=".74956214" stop-color="#2ad4ff"/><stop offset="1" stop-color="#0cf"/></linearGradient><radialGradient id="d" cx="250.00002" cy="749.99994" gradientTransform="matrix(.0000002 -.99999868 .99999894 .00000003 -499.9992 999.9996)" gradientUnits="userSpaceOnUse" r="250.00026" xlink:href="#a"/><radialGradient id="e" cx="450.00021" cy="399.99951" gradientTransform="matrix(-.00000002 -.19999975 .19999977 -.00000008 -129.99978 139.99995)" gradientUnits="userSpaceOnUse" r="250.00026" xlink:href="#a"/><radialGradient id="f" cx="-26.458326" cy="13.229162" gradientTransform="matrix(.75590543 -.00000006 .00000004 .75590547 -30.000004 40)" gradientUnits="userSpaceOnUse" r="66.145836" xlink:href="#c"/><filter id="g" color-interpolation-filters="sRGB" height="1.095763" width="1.096238" x="-.048119" y="-.047882"><feGaussianBlur stdDeviation="2.5390727"/></filter><filter id="h" color-interpolation-filters="sRGB" height="1.086755" width="1.107451" x="-.053725" y="-.043377"><feGaussianBlur stdDeviation="1.672662"/></filter><filter id="i" color-interpolation-filters="sRGB" height="1.033113" width="1.043228" x="-.021614" y="-.016556"><feGaussianBlur stdDeviation="3.0087009"/></filter><g transform="translate(0 -500)"><circle cx="250" cy="750" fill="url(#b)" r="250"/><path d="m250.5954 750.5602c-.0408.006-.1266-.0175-.17105-.0361-.0445-.0186-.0476-.0324.0769-.007-.12491-.0254-.10839-.0312-.0548-.0267.0536.004.14433.0192.16778.0347-.0232-.0155.0811.0108.16055.0336.0795.0228.13397.0421.011.0128.12284.0293.0546.0293-.0341.0205-.0887-.009-.19795-.0265-.15713-.0326l.00037.0004zm-.0786.0862c-.017-.008-.002-.009.013-.007.0154.001.0314.005.0172.007.0132-.002.024.002.0271.005.003.003-.002.006-.0191.003.017.004-.002-.002-.0199-.007-.0183-.005-.0364-.001-.0186-.001h.00015zm.39012.51097c.18919.17747.0741.10822-.0693-.00052-.14334-.10874-.31494-.25696-.23878-.23744-.0762-.0193-.15024-.0749-.175-.10563-.0248-.0307-.00021-.0365.1209.0437-.12095-.0799-.20967-.16284-.22861-.19259-.0189-.0298.0319-.006.19011.12629-.15799-.13264-.24085-.20382-.24329-.20725-.002-.003.0756.0609.23929.19925-.16384-.1385-.24576-.20775-.24576-.20775s.0819.0693.24576.20775c-.16384-.1385-.2604-.23503-.27055-.25406-.0102-.019.0661.0394.24785.21096-.18141-.17161-.27698-.25742-.28041-.25742-.003 0 .0853.0858.27241.25742-.18727-.17161-.28091-.25938-.28091-.26036 0-.00099.0936.0848.28091.26036-.18727-.17554-.276-.26135-.27254-.26036.003.00098.0991.0888.28054.26036-.18141-.17161-.26239-.25452-.25564-.25206.007.002.10124.0902.27074.26006-.1697-.16969-.25455-.25453-.25455-.25453s.0849.0848.25455.25453c-.1697-.16969-.2643-.25746-.27106-.25992-.007-.002.0743.0804.25596.25192-.18141-.17161-.2536-.22524-.24103-.20279.0126.0224.10991.12097.26753.25369-.15798-.13264-.18728-.17361-.15374-.1561.0335.0175.12991.0935.22324.1948-.0935-.1014.084.0693.23753.22092.15356.15164.26962.0942.0939.10673h-.00007zm3.66289 1.60326c1.17612.62414-.0829-.0449-1.34871-.71678-1.26582-.67193-2.53847-1.34678-1.38967-.73434-1.1488-.61244-1.74564-.92744-1.76017-.93376-.0145-.006.55325.29602 1.73367.91826-1.18-.62219.0995.0566 1.37996.73482 1.28047.67827 2.56191 1.35605 1.38579.73191l-.00044-.00006zm-2.41463 2.46924c0 1.05323-.0439-.0868-.56366-1.22877-.51978-1.14197-1.03957-2.2859-.56366-1.24047-.47591-1.04543-.71387-1.57595-.71387-1.58136 0-.005.23796.51427.71387 1.56926-.47591-1.05519.0439.0917.56366 1.239.51979 1.14734 1.03958 2.29516.56366 1.24193v.0002zm-1.62663-4.26364c-.004.002-.0156-.0157-.0223-.0279-.007-.0122-.008-.019.007.005-.0151-.0232-.0161-.0309-.0118-.029.004.002.0138.0135.0198.029-.006-.0155.008.006.0189.0261.011.0201.0195.0386.004.017.0151.0216.009.0177.00093.008-.009-.01-.0198-.0256-.016-.0279h-.00025zm-.0896-.14045c.006.0155-.009-.006-.0211-.0261-.0121-.02-.0215-.0386-.005-.017-.0151-.0216-.0131-.0216-.007-.0142.006.007.0166.022.0182.0297-.002-.008.0115.0108.0216.0258.0101.0151.0168.0267.001.005.0151.0216.0161.0285.0118.026-.004-.002-.0138-.0142-.0198-.03l.00025.0003zm-.10167.30429c.008.0293 0-.0107-.008-.0478s-.0165-.0714-.0109-.0307c-.006-.0409-.005-.0575-.002-.0555s.008.0224.01.0555c-.002-.0331.005.009.01.0492.005.0405.009.0794.001.0404.008.0393.0113.0508.0113.0453 0-.006-.004-.0282-.0113-.0574l-.0002.0005zm.20674-.95957c-.28235.20633-.40371.25065-.38125.22195.0225-.0287.1805-.14171.43225-.28385-.25162.14238-.31209.19407-.26729.18087s.19489-.0913.36439-.20847c-.1697.11705-.30817.18923-.34518.19893-.037.01.0275-.0431.26358-.17593-.23604.13265-.21639.0897-.12171.0146.0947-.0751.26438-.18239.32845-.17852-.0643-.004.18737-.15612.38142-.25898.19406-.10286.33055-.15645.036.0366.29452-.19312.0887-.0439-.15313.12434-.24186.16824-.5198.3555-.36958.23845-.15023.11706-.22923.17558-.23166.17558-.002 0 .0717-.0585.22766-.17558-.15609.11706-.29849.21945-.3428.24967-.0443.0302.009-.0117.2457-.18337-.23601.17161-.39788.27497-.42808.28664-.0302.0117.0713-.0684.36198-.26354l-.00039.00029zm-.30425.0509c-.008.006-.0113.009-.0113.009s.004-.003.0113-.009c-.008.006-.008.004-.005.00054.003-.004.009-.009.0127-.009-.004 0 .003-.005.008-.009.006-.003.0105-.005.003.0005.008-.006.0113-.009.0113-.009s-.004.003-.0113.009c.008-.006.003-.004-.003-.00054-.006.004-.0123.009-.008.009-.004 0-.01.005-.0125.009-.003.004-.003.005.005-.0005zm.74505-1.20927c-.79969 1.1371-1.18099 1.67347-1.16841 1.65101.0126-.0225.41905-.60372 1.19491-1.70191-.77626 1.0981-1.15757 1.63252-1.15316 1.6227.004-.01.39455-.56386 1.16116-1.6427-.76652 1.07859-1.15369 1.62373-1.15614 1.62766-.002.004.37981-.53337 1.15214-1.61966-.77236 1.08639-1.14392 1.61105-1.13424 1.5989.01-.0122.40058-.56111 1.15314-1.622-.75286 1.06104-1.1293 1.58668-1.1293 1.58324 0-.003.37644-.53595 1.1293-1.59124-.75286 1.05519-1.12442 1.5779-1.12098 1.57447.003-.003.38187-.53303 1.12898-1.58247-.74702 1.04934-1.11176 1.54962-1.10548 1.53355.006-.0161.38356-.54848 1.12058-1.56455-.73725 1.01618-1.10587 1.52816-1.10588 1.53011.00001.002.36863-.50613 1.10588-1.53011-.73725 1.02398-1.11465 1.55645-1.12093 1.57056-.006.0141.35858-.49012 1.10583-1.53956-.74702 1.04934-1.12541 1.58376-1.12885 1.59057-.003.007.36808-.51398 1.12085-1.57507-.75286 1.06104-.84065 1.17319-.64268.8855s.68169-.97523 1.07181-1.51357c-.3901.53834-.57151.78799-.56232.77573.009-.0122.20897-.28642.58122-.79573-.37253.50909.37058-.56657 1.00691-1.47792.63633-.91134 1.16587-1.65837.3662-.49201.79967-1.16636.25648-.39984-.38912.52369-.64559.92353-1.39357 2.00407-1.00349 1.46575-.3901.53834-.83676 1.23854-1.00938 1.53452-.17262.29597-.0712.18772.63483-.89086-.70605 1.07858-1.11369 1.68029-1.15083 1.72325-.0371.043.29625-.47284 1.07223-1.62925-.77628 1.15661-1.14686 1.66372-1.13525 1.61541.0116-.0483.40543-.65205 1.15795-1.71715-.75286 1.06494-1.14392 1.63251-1.15359 1.65546-.01.0229.36203-.49875 1.13469-1.61236-.77237 1.1137-1.16146 1.69688-1.16342 1.71543-.002.0186.38322-.52752 1.15942-1.67233-.77626 1.14491-1.17219 1.73491-1.17751 1.74714-.005.0122.37999-.55332 1.16621-1.71954-.78601 1.16636-1.17901 1.74466-1.17901 1.74122 0-.003.393-.58861 1.17901-1.74922-.78601 1.16051-1.17122 1.72809-1.16591 1.71925.005-.009.40114-.5941 1.17721-1.73925-.77626 1.14491-1.16439 1.692-1.16439 1.67488 0-.0171.38813-.59844 1.16439-1.71038-.77626 1.11175-1.16147 1.66665-1.15951 1.66516.002-.001.39109-.55936 1.16351-1.67316-.77237 1.11369-1.15855 1.65006-1.15855 1.63637 0-.0137.38618-.57744 1.15855-1.66397-.77237 1.08639-1.17999 1.67054-1.19449 1.69876-.0145.0282.36413-.4995 1.16429-1.63686l.00081.001zm-.84542.97129c0 .21651.006.32183.01.31936.004-.002.006-.11271-.002-.32736.008.21452.006.31204.002.30567-.004-.006-.01-.11666-.01-.31777v-.004-.004c0 .19506-.008.25065-.0146.22236-.006-.0283-.01-.14046-.00046-.28096-.009.14043-.008.20578-.004.20234.004-.003.0118-.0756.0155-.21034-.004.13457-.0237.12882-.0358.0786-.0121-.0502-.0168-.14485.009-.18807-.0255.0431-.0383.0744-.0383.0807 0 .006.0127-.0122.0383-.0686-.0255.0566-.0383.0701-.0383.0602 0-.01.0127-.0431.0383-.0802-.0255.037-.0383.0409-.0383.0311 0-.01.0127-.0333.0383-.0511-.0255.0178-.0383.046-.0383.0592s.0127.0112.0383-.0316c-.0255.0432.002-.1597.0297-.31385.0278-.15415.0561-.25959.0323-.0216.0232-.23796.0213-.0897.0116.0936-.01.18334-.0269.40178-.0343.30425.008.0975.003.17654-.003.19746-.006.0209-.0123-.0162-.008-.15106-.004.13457-.003.24282-.001.27063.002.0278.005-.0248.005-.21203v.004.004c0 .19505.006.30721.01.31702.004.01.006-.0827-.002-.29702.008.21452.0183.33836.0232.35011.005.0117.004-.0886-.0119-.32251.0151.23403.0161.35594.0114.3599-.005.004-.0151-.11003-.0227-.3478.008.23796.006.33842.002.32528-.004-.0131-.01-.13986-.01-.35628l-.00085.00019zm-.23811-1.19757c.19113 1.38871.27693 2.06844.27015 2.05824-.007-.0102-.10611-.71033-.28525-2.08134.17934 1.37115.26901 2.07916.26901 2.09481 0 .0156-.0897-.66105-.26901-2.05931.17934 1.39846.26901 2.10354.26901 2.10747 0 .004-.0897-.6933-.26901-2.09947.17934 1.40627.26901 2.1094.26901 2.1094s-.0897-.70313-.26901-2.1094c.17934 1.40627.26901 2.10355.26901 2.09962 0-.004-.0897-.70906-.26901-2.10762.17934 1.39846.26901 2.09769.26901 2.09769s-.0897-.69923-.26901-2.09769c.17934 1.39846.26901 2.07526.26901 2.05961 0-.0156-.0897-.72376-.26901-2.09511.17934 1.37115.26901 1.98749.26901 1.94015 0-.0473-.0897-.75835-.26901-2.0419.17934 1.28338.25833 1.97188.25158 2.00455-.007.0327-.0992-.59049-.26288-1.93045.16385 1.33995.20873 1.93483.18346 1.88266-.0253-.0522-.1207-.75138-.23746-1.99964.11698 1.24828.0887 1.13516.0292.6305s-.15018-1.40087-.15812-1.71878c.008.31791-.14654-.89039-.25472-1.82659-.10818-.93621-.17044-1.60032.0208-.19406-.19113-1.40627-.12867-.74897-.0204.18285.10826.93182.26232 2.13816.25438 1.82999.008.30817.0113.46909.0113.4735 0 .004-.004-.14767-.0113-.4655.008.3179.14601 1.16829.23773 1.64225.0917.47396.13671.57149-.0427-.61633.17934 1.18781.26901 1.85388.26901 1.9031 0 .0492-.0897-.51844-.26901-1.79807.17934 1.27949.2749 1.8929.27926 1.87434.004-.0186-.0825-.66907-.26796-1.91744.18519 1.24828.28173 1.96994.2842 2.03673.002.0668-.0891-.52126-.2802-1.89243.19113 1.37116.2867 2.07136.2867 2.08156s-.0956-.6696-.2867-2.05846l-.00052.00029zm.15988 2.16108c0 .0194.001.00083-.002-.0187-.003-.0195-.006-.0399-.002-.0244-.004-.0155-.001-.00085.002.0152.003.016.006.0335.002.0235.004.01.006.0208.006.0242 0 .003-.002-.00061-.006-.0202v.0002zm-.0465-.83474c.017.037-.003-.00002-.0232-.038-.0198-.038-.0391-.077-.0199-.0438-.0193-.0331-.0289-.0536-.0289-.0565 0-.003.01.0116.0289.0485-.0193-.0371.0004-.00098.0204.0366.02.0375.0404.0765.0227.0453.017.0309.0255.0514.0255.0549 0 .003-.008-.01-.0255-.0469zm-.0862.29258c-.002.002-.003-.002-.003-.005s.001-.006.003-.003c-.002-.004 0-.006.002-.006s.004.002.002.006c.002-.004.003-.006.003-.006s-.001.002-.003.006c.002-.004 0-.00097-.002.003-.002.004-.004.008-.002.005zm-.008.37839c.006.004-.005.0256-.0148.0392-.01.0137-.0181.0194-.008-.008-.009.0271-.005-.00026.002-.0285.007-.0282.0151-.0572.0132-.0334.002-.0232.0105-.0367.0157-.0382.005-.001.007.009-.004.0342.0113-.0254.0134-.0147.011.002-.002.0162-.009.0378-.015.034l.00015-.0003zm-.47591 1.48232c.36279-1.20537-.0683.1853-.48761 1.5506-.41936 1.36531-.82703 2.70525-.41748 1.39845-.40957 1.3068-.006-.0331.41107-1.39845.4169-1.3653.84695-2.75597.49001-1.5506.35694-1.20537.53931-1.80805.54176-1.80805.002 0-.17502.60268-.53776 1.80805.36279-1.20537.55782-1.85291.56747-1.88362.01-.0307-.16608.55539-.54477 1.81732.37838-1.26193.59293-1.92898.61042-1.95338.0175-.0244-.16208.59384-.57192 1.90248.40957-1.30873.57535-1.88216.5481-1.82707-.0273.0551-.24754.73871-.6101 1.94405l.0004.00011zm.42126-1.3692c.002-.008.006-.0147.008-.0167s.002.00086-.004.0127c.006-.0116-.002.002-.009.0155s-.0137.0271-.006.0155c-.008.0116-.004.00077.001-.0109.005-.0117.0124-.0242.01-.0167l-.0001.0003zm.0465-.59678c.002.002-.00083-.001-.004-.004-.003-.003-.006-.005-.004-.00046-.002-.004.00082-.006.004-.006.003 0 .006.002.004.006.002-.004.003-.002.003.0005 0 .002-.001.005-.003.003.002.002.003.003.003.003s-.001-.001-.003-.003zm-.0431.0464c.006.01-.004.00032-.013-.01-.009-.01-.0176-.0198-.01-.0105-.008-.01-.009-.015-.006-.015.002 0 .008.005.0142.015-.006-.01.00098-.00032.008.01.007.01.0132.0198.008.0105.006.01.008.015.008.015s-.003-.005-.008-.015h-.0002zm-.36283-.0276c.20678.0741-.0673-.006-.32618-.0853-.25893-.0795-.50275-.15849-.23553-.0824-.26722-.0761-.0332-.0498.21894-.006.2521.0434.52224.10379.3272.0961.19504.008.34523.0448.38139.0682.0361.0234-.0417.0331-.30279-.014.26133.047.39787.0802.4013.0865.003.006-.12623-.0141-.3973-.0744.27112.0605.35796.10046.32528.10684-.0327.006-.19578.001-.39178-.0947l-.00027-.00013zm.13644-.094c.0151.004-.0004.00012-.0162-.004-.0158-.004-.0318-.008-.0178-.004-.0132-.004-.0113-.006-.005-.006.006 0 .0166.002.0202.006-.004-.004.009-.00013.0185.004.01.004.0165.008.00041.004zm-1.67735-1.60324c.33155.31597.49247.47102.48903.46906-.003-.002-.17121-.16096-.49703-.47306.3257.31204-.60758-.51884-1.35849-1.19515s-1.31944-1.19804-.26425-.26768c-1.05519-.93036-.48176-.40569.27257.27258.75433.67826 1.68957 1.51012 1.35799 1.19415.33156.31597 1.01323.86892 1.36724 1.13954.35401.27063.38035.25894-.59875-.55437.97912.81333 1.52525 1.30874 1.56335 1.3692.0381.0605-.4318-.31403-1.48475-1.24051 1.05324.92645 1.50964 1.36335 1.46183 1.34575-.0478-.0176-.59986-.48971-1.5635-1.38125.96351.89135 1.47744 1.35945 1.49934 1.37454.0219.0151-.44823-.42284-1.45284-1.34354 1.00446.9206 1.54766 1.39065 1.57589 1.39747.0282.007-.45851-.44961-1.51389-1.38197 1.05518.93231 1.54182 1.38871 1.51359 1.3819-.0282-.007-.57133-.47685-1.57559-1.3974 1.00446.9206 1.5067 1.3809 1.5067 1.3809s-.50224-.4603-1.5067-1.3809c1.00446.9206 1.50279 1.3809 1.49984 1.3809-.003 0-.50718-.4603-1.50784-1.3809 1.00057.9206 1.46673 1.35847 1.44385 1.34338-.0229-.0151-.53479-.48314-1.49035-1.37438.95571.89135 1.43942 1.33702 1.44335 1.33702.004 0-.47193-.44567-1.43535-1.33702.96351.89135.94311.87975.5989.56627-.34421-.31347-1.01223-.92883-1.34396-1.24498l-.00009.00022zm1.88802 1.19756c.0132.01.0199.0216.0199.0264 0 .005-.007.003-.0199-.0143.0132.0177.007.007-.002-.006-.009-.0133-.0203-.029-.0165-.0213-.004-.008-.0148-.0205-.0206-.0268-.006-.006-.007-.006.009.0113-.0151-.0177-.00045-.005.0144.01.0149.0147.03.0313.0158.0213zm1.55252.10946c-.0151.01-.0226.015-.0226.015s.008-.005.0226-.015c-.0151.01-.00045.002.0149-.006.0154-.008.0314-.0172.0191-.009.0113-.008.021-.0116.024-.0116.003-.00001-.00069.004-.016.0116.0151-.008-.003.001-.0219.009-.0184.008-.0368.0161-.0213.006h.00055zm-.45245.15991c.0874-.0359-.0195.009-.12728.0408-.10775.0321-.21207.0623-.10667.0289-.10526.0331-.13351.04-.11707.0333.0164-.007.0776-.0272.15107-.0488-.0741.0215.0322-.01.13019-.0384.098-.0287.18765-.055.0803-.0235.10715-.0309.15005-.0417.1433-.0384-.007.003-.0632.0208-.1546.0464l.00036-.00015zm-1.47844.71775c.24967-.0975.37059-.1463.36763-.1463-.003 0-.1298.0488-.37563.1463.24576-.0975-.0643.0497-.36081.18431-.29647.13458-.57929.25649-.27895.10826-.30038.14823-.0927.003.15212-.14772.24478-.15067.52663-.3067.37452-.17993.15212-.12678.34618-.20869.4271-.22084.0809-.0121.0487.0455-.25173.19774.30038-.15215.41156-.18629.38531-.15799-.0263.0283-.18994.11901-.43931.21659l-.00013-.00021zm4.0023.0121c2.90418.46419 3.21332.55683 2.43071.46125-.78262-.0956-2.65698-.37937-4.11979-.66803 1.46281.28866 1.48633.30911 1.00172.22425-.48462-.0849-1.47738-.27502-2.04713-.40759.56953.13264 2.72184.30818 4.00084.38278 1.27899.0746 1.68468.0482-1.23903-.22287 2.93541.16968 4.40312.20773 4.40411.15702.001-.0507-1.4647-.19018-4.39611-.37551 2.9315.0819 76.25114.66804 125.46589 1.04204 49.21474.37399 74.32459.53587-19.16351-.23064 93.5096-2.39708 140.22635-5.18327 140.18536-6.85869-.041-1.67542-46.83971-2.24007-140.36106-.19407 93.33785-5.23301 68.266-3.76433 19.12877-.96595-49.13724 2.79838-122.33987 6.92647-125.26358 7.01229 2.92371-.12484 4.38557-.20675 4.38557-.22576 0-.019-1.46186.0249-4.38557.15166 2.92371-.15602 2.55802-.10726 1.30633-.0209-1.25168.0863-3.38936.21015-4.00959.20429.62023.006.58801.0323.35345.0478-.23455.0155-.67145.0202-.86055-.0168.18918.0371.54123-.0644.71775-.1463.17651-.0819.17748-.14436-.33549-.0293.51295-.11505.76943-.17258.76943-.17258s-.25648.0575-.76943.17258c.51295-.11505 2.61454-.62411 3.87842-.93326 1.26388-.30914 1.69005-.41837-1.14783.26626 2.83788-.6846 2.42049-.57538 1.16246-.26624-1.25803.30913-3.3567.81818-3.88137.93324.52469-.11505.78703-.17258.78703-.17258s-.26234.0575-.78703.17258c.52469-.11505.77824-.17258.77243-.17258-.006 0-.27099.0575-.78373.17258.51295-.11505.51195-.0526.33543.0293s-.52856.18334-.71769.14631c.1892.0371.61927.0321.84943.0164.23016-.0156.26041-.0419-.35004-.0474.61046.006.92253.009.92695.009.004 0-.29882-.003-.91895-.009.62024.006 73.34696-13.58943 122.94742-22.90328 49.60045-9.31384 76.07463-14.34606-15.81022 2.78653 90.3635-25.3088 134.42765-42.02204 133.2496-46.29398-1.17805-4.27193-47.5983 3.89745-138.2036 28.35391 87.66405-32.41227 62.48493-23.04824 15.2167-5.53434-47.26823 17.51389-116.62558 43.17767-117.31799 43.36491.69241-.18726.99765-.2721.96985-.26576-.0278.006-.38867.10383-1.02845.28126.63974-.17747 2.59213-1.00836 3.71021-1.51743s1.40187-.69634-1.29558.41344c2.64089-1.22487 3.92719-1.90557 3.89109-1.97382-.0361-.0683-1.39464.47592-4.0434 1.70083 2.56675-1.34775 67.45659-35.45885 111.02238-58.3613 43.5658-22.90246 65.80754-34.59627-16.92191 8.89056 81.25885-46.29154 121.1071-70.81724 120.28399-72.2708-.82312-1.45356-42.31759 20.16502-123.74419 66.16205 79.7824-48.69058 58.33745-35.58953 16.32617-9.94136-42.01127 25.64817-104.58888 63.84347-107.07178 65.34141 2.45949-1.53499 3.67754-2.32102 3.66588-2.34009-.0117-.0191-1.25304.72879-3.71238 2.26159 2.43999-1.56425 2.78717-1.74076 2.18936-1.3258s-2.14061 1.42139-3.48056 2.22301c1.33995-.80163 1.27948-.75773.77919-.45345s-1.4404.86894-1.85972 1.10883c.41936-.2399 2.12989-1.53693 3.15825-2.34295s1.37456-1.12102-.93475.60317c2.29564-1.75344 3.43567-2.64089 3.42752-2.65261-.008-.0117-1.16447.85226-3.46152 2.60171 2.28397-1.76514 59.45893-47.66464 97.83806-78.49755s57.96243-46.59923-14.93692 11.90201c67.563-65.15611 98.41982-100.78951 95.34205-104.01162-3.07778-3.22212-40.09015 25.96706-108.26555 90.45613 61.89305-70.0478 44.41815-50.16998 11.25252-12.56663-33.16564 37.60334-82.02201 92.9322-82.8919 93.7865.86989-.8543.94397-.91475.69722-.66362s-.81433.81384-1.22775 1.20588c.41349-.39205 45.75517-58.87768 76.66951-98.80155 30.91434-39.92386 47.40135-61.28596-9.8945 12.56907 52.29305-77.72859 75.82207-118.36778 73.06611-120.23677-2.75596-1.869-31.79691 35.03218-84.64381 112.38434 47.4325-80.53721 34.71468-58.84646 9.75938-16.408s-62.14809 105.62463-63.66553 108.07828c1.50574-2.46145 2.25276-3.69997 2.24747-3.70581-.005-.006-.76289 1.22101-2.26637 3.69031 1.49792-2.46924 2.24688-3.70387 2.24688-3.70387s-.74896 1.23463-2.24688 3.70387c1.49792-2.46924 1.14977-1.88997.39788-.64754-.75189 1.24242-1.90752 3.148-2.02455 3.33134.11697-.18333 1.03465-2.2069 1.6237-3.53076.58904-1.32386.84945-1.94801-.34811.66752 1.11175-2.66234 1.62276-4.00814 1.57548-4.02526-.0473-.0171-.65286 1.29442-1.77428 3.94676 1.02788-2.6877 27.02126-71.24731 44.47274-117.28578 17.45147-46.03846 26.36103-69.55579-6.77872 17.84109 30.19655-88.52228 43.80083-133.30028 42.22733-133.84299-1.57349-.5427-18.32477 43.14989-48.83931 131.56879 27.50499-89.33561 20.09336-65.29459 5.59727-18.23361-14.4961 47.06099-36.07665 117.14194-36.90949 119.88619.79969-2.75986 1.18198-4.14272 1.16243-4.14806-.0195-.005-.44095 1.36685-1.24863 4.11706.75872-2.76961.84555-2.98319.64516-2.18108s-.688 2.61992-1.07818 3.91306c.39006-1.29314.40859-1.36432.28764-.97032-.12094.39401-.38136 1.25319-.54918 1.82076.16781-.56758.20485-.60465.17315-.43545-.0317.16919-.13213.54464-.23925.8021.10733-.25747.20779-.51592.23945-.60515.0317-.0892-.005-.009-.17335.41009.16781-.41936.19899-.41736.1628-.27153-.0362.14583-.13974.43548-.2414.59143.10148-.15602.13757-.20868.12789-.19213-.01.0165-.0651.10231-.14679.22313.082-.12091.14343-.28865.15741-.3618.014-.0731-.0195-.0517-.12721.20578.10734-.25747.20193-.62903.22914-.7958.0272-.16676-.013-.12872-.17514.433.16195-.56172.24878-.84649.25313-.84894.004-.002-.0738.27742-.24183.84494.16781-.56758.57935-2.63211.80363-3.85113.22427-1.21902.26128-1.59253-.31997 1.22194.52074-2.82227.74798-4.2373.71336-4.24175-.0346-.004-.33108 1.40168-.85773 4.22175.46032-2.82617 12.94894-75.08771 21.34506-123.61395 8.39612-48.52625 12.69973-73.3172-3.20995 18.79777 7.65154-93.55049 7.26047-140.69924 2.82031-141.08787-4.44016-.38862-12.92941 45.98289-21.47424 139.47291.0215-93.49002.014-66.27565.002-15.61905s-.0284 124.75544-.0247 125.03435c-.004-.27892-4.74063-74.22173-7.98417-124.77154s-4.99401-77.70664.97432 15.58639c-12.23857-92.89709-21.50828-138.94093-24.82572-138.51476s-.68261 47.32235 10.88792 140.30526c-17.84703-91.76389-13.00703-67.07143-3.57996-18.73243 9.42707 48.33901 23.44121 120.32456 23.94247 123.14683-.53441-2.81447-.82113-4.21781-.84208-4.21392-.021.004.22385 1.415.75248 4.22942-.57538-2.81447-.86306-4.2217-.86306-4.2217s.28768 1.40723.86306 4.2217c-.57538-2.81447-.4944-2.21276-.2418-.83771.2526 1.37506.67682 3.52346.78794 3.80237-.11112-.27893-.20571-.50127-.23255-.55783-.0268-.0566.0141.0526.17395.43684-.15988-.38425-.32273-.78604-.3793-.92939-.0566-.14335-.007-.0283.25836.62121-.26527-.64949-.91964-2.6204-1.27657-3.74824s-.41642-1.4126.50807 1.3102c-.98107-2.6994-1.49598-4.04032-1.52282-4.03206-.0268.008.43441 1.36571 1.40566 4.06306-1.03372-2.67989-1.55351-4.01594-1.55875-4.0111-.005.005.50407 1.35056 1.52855 4.0342-1.04347-2.6838-26.98304-71.26389-44.39186-117.31748-17.40882-46.05358-26.28689-69.58066 6.79263 17.84157-36.02194-86.30853-55.48432-128.865-57.0138-128.23354-1.52948.63145 14.87394 44.45082 50.58362 130.89394-38.55536-85.14804-28.23066-62.21097-7.95553-17.34032 20.27512 44.87065 50.50066 111.67488 51.74698 114.26115-1.26777-2.58042-1.91336-3.8599-1.92502-3.85066-.0117.009.61059 1.3072 1.87852 3.88166-1.2912-2.56677-1.57889-3.16166-1.33412-2.68965.24478.472 1.02202 2.0109 1.86068 3.71169-.8387-1.70078-.89426-1.74175-.64508-1.18832s.8031 1.70126 1.18336 2.37809c-.38034-.6768-.56173-1.0074-.55546-1.00199.006.005.20021.34684.57056 1.01409-.37059-.66705-.49152-.88452-.44758-.80504.0439.0795.25276.4559.54168.97667-.28866-.52076-.31786-.58415-.23884-.44908.079.13506.26624.46858.41043.74165-.14438-.27307-.21657-.4057-.21657-.40275 0 .003.0722.14148.21657.41075-.14438-.26915-.33162-.60462-.41059-.74261-.079-.13799-.0497-.0785.239.44229-.28866-.52076-.50614-.905-.55641-.98984-.0503-.0849.0667.12969.4468.80649-.38034-.6768-1.42967-2.44194-2.01773-3.41911-.58806-.97716-.71485-1.16636.74993 1.30874-1.51939-2.43999-2.31127-3.64243-2.34347-3.62245-.0322.02.69527 1.26237 2.21459 3.71205-1.57401-2.40294-40.06021-64.81772-65.88178-106.74516-25.82156-41.92745-38.97849-63.36757 10.10608 16.17882-56.36201-75.06235-87.94409-110.06089-91.52742-107.39953-3.583333 2.66137 20.83207 42.98263 76.46502 118.5599-61.91255-70.04194-43.91046-49.64238-10.3766-11.68357s82.59949 93.47687 82.81404 93.67191c-.21457-.19506-.38231-.38229-.4243-.44323-.042-.0609.0418.004.3302.31454-.28866-.31011-.30331-.30708-.21457-.19878.0887.1083.28089.32188.40581.43288-.12491-.1112-.18737-.15703-.18737-.15021 0 .007.0625.0663.18737.16571-.12491-.0995-.239-.19992-.27407-.23509-.0351-.0352.009-.005.19997.15659-.19114-.16188-.30426-.26624-.31587-.28238-.0116-.0162.0783.0559.29317.24688-.21456-.19113-.31892-.28279-.31695-.27984.002.003.11025.10051.32095.28784-.21064-.18726-52.72776-52.44322-88.62633-88.17073s-55.17859-54.92657 11.08497 10.99996c-70.73934-61.42955-108.192845-89.7492-110.388182-87.23235-2.195336 2.51685 30.8675 35.87021 101.160852 97.78665-74.125557-56.93699-54.19663-41.61831-15.16142-11.62701 39.0352 29.9913 97.17669 74.6552 99.47625 76.40864-2.31712-1.73003-3.48055-2.58432-3.48676-2.57316-.006.0112 1.1448.88778 3.45656 2.61956-2.32687-1.71638-1.86462-1.29216-.75141-.41398 1.1132.87818 2.87736 2.21033 3.15432 2.3098-.27693-.0995-.74112-.31694-.96397-.43202-.22284-.11508-.20432-.12777.4842.18234-.68852-.31011-2.49365-1.34384-3.49422-1.94555s-1.19659-.7714 1.33312.64657c-2.57261-1.36335-3.87354-2.02064-3.88969-1.99432-.0162.0263 1.25247.73629 3.81899 2.10744-2.59238-1.3242-67.44425-35.49567-110.97614-58.4483-43.531892-22.95263-65.743797-34.68642 16.94376 8.86476-84.154282-40.76987-126.920123-59.73977-127.646899-58.24671-.726777 1.49306 40.585512 23.44906 124.587489 64.531-85.291017-38.2031-62.385447-27.88824-17.48715-7.74029 44.8983 20.14796 111.78932 50.12901 114.46922 51.25831-2.70526-1.07273-4.07251-1.57692-4.08757-1.54327-.0151.0337 1.32206.60512 4.02557 1.68372-2.72865-1.01422-2.20398-.78505-.90938-.28088 1.29459.50418 3.35912 1.28336 3.7102 1.36917-.35108-.0858-.53248-.13361-.53682-.13705-.004-.003.16837.0375.52552.12905-.35694-.0917-.45349-.10135-.39742-.0759.0561.0254.26478.0859.51837.13454-.25355-.0487-.3745-.0672-.37058-.0633.004.004.13269.0302.37858.0713-.24575-.0409-.36862-.0613-.36862-.0613s.12287.0204.36862.0613c-.24575-.0409-.37448-.0672-.37841-.0711-.004-.004.11694.0145.37041.0631-.25355-.0487-.4564-.10425-.50814-.12625-.0517-.022.0476-.0104.39853.0753-.35108-.0858-.47006-.10129-.43196-.0822.0381.0191.2333.0728.51056.12529-.27695-.0525-.38324-.0652-.36077-.056.0225.009.17369.0405.41177.076-.23796-.0349-.38912-.0622-.41159-.0687-.0225-.006.0838.008.36059.0566-.27695-.0486-.41542-.0769-.41542-.0799s.13847.0194.41542.0719c-.27695-.0525-2.40292-.71079-3.76433-1.14431s-1.95826-.64229.82306.2042c-2.80082-.80163-4.21196-1.17318-4.22213-1.14343-.0102.0298 1.38061.4608 4.18363 1.26441-2.82076-.75285-72.9815-21.99401-120.07146-36.2853-47.089955-14.29129-71.109127-21.63271 18.35326 5.41392-91.892817-19.02059-138.7221855-24.40476-139.6483943-20.05774-.9262087 4.34703 44.0507423 18.42524 135.7705643 38.32939-92.765257-11.48219-65.846677-8.06503-15.64024-1.79244 50.20645 6.27259 123.70075 15.40061 124.08694 15.34015-.38619.0605-.77043.0907-.9011.0907-.13068 0-.008-.0302.62028-.0907-.62805.0605-74.49137-4.32993-124.86775-7.35799-50.376372-3.02805-77.265802-4.69373 16.05394.81624-93.700667.77822-140.5376405 4.34849-140.5227855 7.69982.014855 3.35132 46.8815385 6.48372 140.5881855 6.38621-93.266312 6.48323-68.20814 4.77855-19.10442 1.39016s122.25299-8.46049 125.16888-8.71209c-2.91589.25161-4.37676.37741-4.37922.37742-.002-.00001 1.45348-.12581 4.37122-.37742-2.91786.25161-4.32997.37352-4.29731.37107.0327-.002 1.51012-.12926 4.37141-.37507-2.86129.24575-4.33582.37252-4.36602.37497-.0302.002 1.38392-.11942 4.29992-.37097-2.91591.25161-2.36004.26434-.9806.18731 1.37944-.077 3.58245-.2438 3.96084-.35119-.37839.10726-1.78953.45541-2.62674.65728-.83722.20187-1.10052.25746.81676-.2204-1.91728.47785-2.75987.69532-2.6804.68016.0795-.0152 1.08101-.26296 2.85199-.71566-1.771.45254-1.84215.52958-1.2843.42717.55784-.1024 1.74468-.38425 2.48967-.64952-.74506.26527-.69243.26225-.40086.17003.29157-.0922.82208-.27361 1.03279-.36509-.21063.0917-.31595.13751-.31595.13751s.10532-.0458.31595-.13751c-.21063.0917-.28084.13751-.25691.13751.0239 0 .142-.0458.30791-.13751-.16574.0917-.22328.13361-.20637.13066.0169-.003.10828-.0508.24037-.13866-.13266.0878-.19313.1317-.1892.1317.004 0 .0722-.0439.1972-.1317-.12492.0878-.18444.1317-.18248.1317.002 0 .0654-.0439.18648-.1317-.12095.0878-.18142.1317-.18142.1317s.0605-.0439.18142-.1317c-.12095.0878-.1425.13559-.11571.13854.0268.003.10191-.0389.17431-.13054-.0722.0917-.23504.1882-.3218.22226-.0868.0341-.0974.006.13472-.15256-.23209.15795-.26913.18227-.21498.14513.0541-.0371.19948-.13573.33214-.22363-.13266.0878-.22431.13559-.24122.13853-.0169.003.0409-.0389.20722-.13053-.16574.0917-.2486.13751-.2486.13751s.0829-.0458.2486-.13751c-.16574.0917-.39491.21259-.4949.26326-.1.0507-.0708.0311.28022-.15822-.35108.1892-.48469.27404-.4564.26764.0283-.006.21848-.10401.515-.27974-.29645.17554-.44956.26917-.45301.2731-.003.004.14277-.0818.44501-.2651-.30233.18333-.49056.27889-.51546.28134-.0249.002.1135-.0882.46446-.27734-.35108.1892-.84063.34425-1.05615.38568-.21551.0414-.15699-.0308.58809-.29608-.74508.26527-1.11761.4018-1.11761.40425 0 .002.37253-.12918 1.11761-.40025-.74508.27113-1.93191.55199-2.48973.65194-.55782.0999-.48663.019 1.28437-.43356-1.771.45253-2.7862.70025-2.87495.71541-.0888.0152.74892-.20222 2.6837-.67991-1.93482.47786-3.64632.86112-4.15586.95961-.50955.0985.18286-.0878 3.05587-.74898-2.86713.68266-4.3007 1.03861-4.29881 1.0527.002.0141 1.43923-.31369 4.31391-.9985-2.86128.70802-74.07864 18.14975-121.87835 29.8538-47.799715 11.70406-72.181767 17.67043 18.62759-4.57228-90.072482 25.2971-134.684798 39.4622-134.2395155 41.06111s45.9481635-9.36837 136.1060755-34.33604c-89.219167 27.97485-65.262795 20.48617-18.29947 5.77654 46.96332-14.70962 116.93358-36.64017 119.74221-37.54907-2.77937 1.02008-4.15638 1.58278-4.14229 1.6364.0141.0536 1.41928-.40181 4.20429-1.41802-2.75596 1.0981-2.27517.95474-1.00203.48126 1.27315-.47348 3.33865-1.27707 3.75213-1.49944-.41348.22237-1.66566.87967-2.38146 1.25317-.71581.3735-.89526.4632.83673-.44962-1.73199.91281-68.64983 31.628-113.8913 52.35319-45.241477 20.72519-68.806587 31.46036 16.16689-7.58688-81.434412 46.7965-120.064073 73.87541-117.871206 77.75004 2.192868 3.87464 45.208264-15.455 127.063966-61.47562-77.148727 52.90954-54.82467 37.68934-13.11397 9.14521 41.71071-28.54412 102.80807-70.41218 103.20596-70.79837-.39791.38619-1.05325.95181-1.3658 1.20634-.31255.25454-.2823.19798.69097-.66021-.97327.8582-59.08862 46.43314-98.56013 77.35489s-60.299192 47.19031 13.30287-10.56429c-69.670772 62.78067-102.393843 96.54049-100.167818 99.03835 2.226025 2.49787 39.401148-26.26621 109.526758-88.53334-65.62655 66.69909-48.0085 48.82241-13.46646 13.73654 34.54205-35.08587 86.00808-87.38093 88.07751-89.51861-1.98359 2.21959-2.92955 3.36742-2.88273 3.40936.0468.0419 1.08643-1.02202 3.07397-3.22601-1.90167 2.29566-1.66957 2.10549-.85868 1.18879s2.20058-2.55993 2.61408-3.17043c-.4135.61049-.62025.90987-.62025.90595 0-.004.20675-.31117.62025-.91395-.4135.60269-.50326.77043-.42332.67828.0799-.0922.32959-.44419.59491-.88109-.26527.43689-.36765.61729-.34714.59191.0205-.0254.16391-.25655.39024-.64281-.22624.38619-.22057.44957-.13873.36082.0818-.0888.23984-.32964.31826-.55199-.078.22237-.12775.36183-.13498.38081-.007.019.028-.0825.11988-.34211-.0917.25941-.34228.65925-.48223.84405-.13996.18479-.16925.15455.18176-.4462-.35108.60073-.43007.73823-.36474.62705.0653-.11118.27497-.47103.50118-.86501-.22625.39398-.3696.62315-.39011.64462-.0205.0215.0818-.16474.34701-.60152-.26527.43688-.51491.79479-.59487.89085-.08.0961.01-.0697.42328-.68021-.41348.61048-1.02493 1.48524-1.30188 1.87581s-.2194.29694.70513-1.02936c-.92451 1.32629-2.04894 2.85543-2.5029 3.44788-.45397.59244-.23747.24819 1.51988-2.17229-1.73199 2.43412-2.57945 3.6668-2.56192 3.67999.0175.0132.90004-1.1931 2.62802-3.63689-1.70077 2.45559-43.56483 62.71894-71.65641 103.15416s-42.41068 61.04231 10.97847-15.81462c-50.79118 78.67473-74.86788 118.85976-73.47513 119.76057 1.39276.90081 28.25497-37.4826 79.34164-115.94476-48.38961 80.10771-35.41134 58.63834-9.95045 16.49938 25.46089-42.13897 63.40438-104.94753 64.94522-107.51819-1.50378 2.59797-2.23422 3.91061-2.21136 3.92422.0229.0136.79903-1.27184 2.30846-3.87002-1.46475 2.61942-1.1244 2.10354-.39006.85331.73434-1.25022 1.86266-3.23478 1.97384-3.5527-.11112.3179-.20865.58804-.23696.66412-.0283.0761.0126-.0419.17836-.50024-.16573.45833-30.14366 68.25122-50.61983 114.52793-20.47618 46.27672-31.45059 71.03726 6.3907-14.56908-30.17688 88.99834-41.28059 134.87657-37.088 136.3253 4.1926 1.44872 23.6815-41.53204 54.68986-130.25167-22.84093 90.78123-16.31674 65.05036-4.02575 16.33698 12.29098-48.71339 30.34876-120.40928 30.57501-121.55808-.22625 1.1488-.58415 3.15482-.75137 4.13492-.16723.98009-.14378.93425.39269-2.02066-.51489 2.95491-.76064 4.43724-.74805 4.44162.0126.004.28354-1.46921.80205-4.42612-.49151 2.96271-13.84173 75.14134-22.81786 123.5642-8.97613 48.42287-13.57818 73.08997 3.42665-18.97035-10.81066 93.21302-13.07131 140.19979-9.75675 140.59963 3.31457.39984 12.20435-45.78724 23.69455-138.9219-5.1316 93.48961-3.73314 68.42842-1.01814 19.24587 2.715-49.18256 6.74655-122.48648 6.88113-125.48234-.0624 2.99977-.0604 4.49966-.0248 4.50066s.10475-1.49689.17672-4.49266c-.008 2.99586-.008 4.49379-.005 4.49379s.009-1.49793.0127-4.49379c-.004 2.99586-.006 2.57651-.006 1.26241 0-1.31411.002-3.52298.006-4.10615-.004.58317-.006.89232-.006.90497 0 .0127.002-.27119.006-.87397-.004.60268-.006.69631-.006.55393s.002-.52077.006-.86212c-.004.34135-.006.5081-.006.50563 0-.002.002-.17414.006-.50963-.004.33549-.006.4964-.006.49148 0-.005.002-.1757.006-.50358-.004.32769-.006.49836-.006.50329 0 .005.002-.1559.006-.49119-.004.33549-.006.49151-.006.48315 0-.008.002-.18111.006-.50315-.004.32183-.006.48761-.006.49104 0 .003.002-.15548.006-.48304-.004.32769-.006.43691-.006.39937 0-.0375.002-.22183.006-.48117-.004.25941-.006.39301-.006.39546 0 .002.002-.12625.006-.39146-.004.26527-.006.32279-.006.27156 0-.0512.002-.21124.006-.38101-.004.16968-.006.25452-.006.25452s.002-.0848.006-.25452c-.004.16968-.006.32573-.006.37446 0 .0487.002-.01.006-.26943-.004.25941.004.34621.0102.31702.007-.0292.0124-.17438.005-.37892.008.20478.0161.32669.0194.34033.003.0136.002-.081-.0114-.30933.0132.22817.0199.34226.0199.34226s-.007-.11409-.0199-.34226c.0132.22817.024.3257.0261.31397.002-.0117-.005-.13272-.0261-.34157.0215.20871.0323.31306.0323.31306s-.0108-.10435-.0323-.31306c.0215.20871.0282.33452.0261.34968-.002.0152-.0128-.0803-.0261-.31418.0132.23403.0329.38715.0413.41156.008.0244.006-.0799-.0262-.36066.031.28086.0661.71678.0797.91914.0136.20235.006.17114-.0495-.48225.0548.65339.0452.76847.0199.62366-.0253-.14482-.0662-.54952-.0739-.9357.008.38618.016.45933.0194.3774.003-.0819.002-.31892-.0114-.553.0132.23403.006.43102-.004.48563-.01.0546-.0222-.0332-.0185-.36865-.004.33548-.006.69729-.006.82942 0 .13214.002.0346.006-.54857-.004.58317.004.74019.0102.64804.007-.0921.0124-.43346.005-.84695.008.41349.071 1.13905.11197 1.49501.041.35595.0596.34229-.0224-.72264.082 1.06493.2205 3.1285.28729 4.17686.0668 1.04836.0619 1.08151-.14291-1.91436.26529 2.99587.42034 4.48893.44567 4.4855.0253-.003-.0791-1.50338-.33267-4.4935.30425 2.99001 8.80814 75.90504 14.52827 124.82337s8.65651 73.83997-2.17424-19.15679c13.97095 92.62421 22.52262 138.70011 24.17513 138.45138s-3.59414-46.82211-17.21985-139.49645c16.75417 92.10679 12.21648 67.42594 3.37079 18.97771s-21.99938-120.66384-22.47725-123.62655c.55782 2.95685.8699 4.42456.90698 4.41574.0371-.009-.20081-1.49414-.74295-4.44334.61633 2.94124.9245 4.41187.92449 4.41187.00001 0-.30816-1.47063-.92449-4.41187.61633 2.94124.60471 2.75011.38532 1.61156-.21938-1.13856-.64653-3.22454-.86124-4.073.21453.84843.31303 1.2512.30723 1.23659-.006-.0146-.11589-.44657-.31853-1.26759.20285.82113.25358.95376.21898.7636s-.15455-.70312-.29308-1.17317c.13852.47005.21165.70898.21409.71193.002.003-.0658-.23008-.21009-.70393.14438.47393.27211 1.0064.31009 1.20828.038.20187-.0138.0732-.22849-.77526.21453.84843 22.61523 71.40051 37.88516 119.4334 15.26992 48.03288 23.40909 73.54657-4.89944-15.68178 30.50858 88.5297 46.86392 132.41322 48.02298 132.01285 1.15905-.40038-12.87817-45.08467-43.15472-133.69058 38.17185 85.68261 60.03423 127.29117 62.95743 125.99804 2.9232-1.29312-13.09278-45.48794-50.67763-131.41206 42.9173 83.18137 30.87049 59.7878 7.92125 15.27755-22.94923-44.51025-56.8009-110.13718-57.49331-111.42251.69241 1.28533 1.68128 2.96856 2.12109 3.68193s.33058.45689-1.17322-2.13718c1.53303 2.57652 2.31223 3.85405 2.32683 3.84289.0146-.0112-.73539-1.31102-2.26073-3.88929 1.55256 2.56093 39.29145 65.49949 64.60805 107.73126 25.3166 42.23176 38.21089 63.75671-9.92576-16.50957 53.61345 76.97727 83.02985 113.65415 85.78045 111.74907s-21.1646-42.39213-74.21435-119.7427c57.98435 73.45575 42.41308 53.77511 11.8898 15.13907-30.52328-38.63605-75.99856-96.22751-77.82222-98.59338 1.90167 2.31127 2.87786 3.43277 2.90906 3.39815.0312-.0346-.88259-1.22538-2.76091-3.5386 1.95238 2.2469 1.6169 1.89095.71823.87819-.89866-1.01276-2.36051-2.68233-2.66087-3.06266.30038.38032.97328 1.04054 1.33118 1.36187.35789.32133.40079.30378-.55883-.67144.95962.97521 2.3454 2.36782 2.96662 2.98758.62121.61975.47786.46664-1.6208-1.64958 2.12791 2.08696 3.2104 3.11288 3.22797 3.09539.0176-.0175-1.02975-1.07839-3.16147-3.16509 2.15522 2.05575 56.75561 51.05829 93.41542 83.91813 36.65982 32.85983 55.37907 49.57698-14.22798-12.93804 71.71735 60.15714 108.5893 89.0285 109.65816 87.75443 1.06887-1.27407-33.66536-32.69357-105.16036-93.11811 73.44545 57.94907 53.6983 42.46362 15.02026 12.0111-38.67805-30.45252-96.28698-75.87212-98.56509-77.79134 2.31712 1.86656 3.50298 2.77351 3.5284 2.74722.0254-.0263-1.10962-.98584-3.4343-2.85225 2.35807 1.81974 2.08307 1.61103 1.08738.84402-.99568-.76702-2.71206-2.09234-3.23676-2.5058.5247.4135 64.01125 38.47314 107.31521 64.40018 43.30397 25.92703 66.42535 39.72146-13.7803-8.39547 84.51215 40.91028 128.6192 57.57769 130.56671 53.59297 1.94752-3.98473-38.26451-28.62159-122.39051-70.31987 87.1667 33.86299 62.10366 24.16154 15.08559 5.91876s-115.99116-45.02688-116.64457-45.32919c.65341.30231.65541.35497.43308.28816-.22232-.0668-.66896-.25307-.91285-.42861.24382.17554.36083.25844.35738.25501-.003-.003-.12735-.0932-.36538-.26301.23796.16968.67194.35498.88746.42374.21552.0688.21259.021-.42326-.27547.63585.29645.9684.44761.97855.44908.0102.001-.3021-.14677-.95585-.44908.65339.30231 2.69158.97521 3.86379 1.33263 1.1722.35742 1.47842.39935-1.33215-.56025 2.81057.9362 4.21586 1.39455 4.21586 1.38524 0-.009-1.40529-.48629-4.21586-1.42074 2.81057.9206 72.71207 23.0542 119.62774 37.8985 46.91568 14.8443 70.84552 22.39929-18.28723-5.83731 91.03245 22.24467 137.31227 30.29118 138.11487 27.05395.8026-3.23722-43.87202-17.75819-134.74847-40.64846 92.00375 16.65278 67.2996 12.20287 18.87042 3.45178-48.42919-8.7511-120.58341-21.80339-123.47982-22.35536 2.89641.50323 4.35046.73143 4.35438.7066.004-.0248-1.44228-.30271-4.34638-.81163" fill="url(#d)"/></g><path d="m91.728169 57.170188c-17.917137 4.983332-35.833511 9.969412-53.75 14.955078 2.594534 9.027073 4.994546 18.10971 7.746364 27.090431 4.527141 14.312453 10.785816 28.302053 20.214519 40.089553 6.686581 8.33247 15.100713 15.36184 24.786289 19.93956 10.645969 5.10275 22.537069 7.14317 34.279929 7.19887 3.90979.0329 7.81848-.13777 11.71704-.42388.13386 5.894 2.16 11.74833 5.86372 16.35414 4.94969 6.35939 11.87345 10.73449 18.72766 14.77252 7.90497 4.6146 16.4798 8.11422 25.42717 10.08703 1.62793.37744 3.26476.71727 4.90918 1.01483.13247 4.27947.32365 8.68054-1.09224 12.79293-1.68013 5.39388-5.81454 9.64627-10.44106 12.69397-6.82389 4.44562-14.85887 6.60278-22.84402 7.77046-1.99636.28061-3.85727.47916-5.89094.63406-1.57152.12214-3.09063.20795-4.59698.25519-4.84437.1707-9.69442.0646-14.53741.30245-21.17797.85539-42.403509 4.32418-62.275469 11.86258-14.725052 5.59587-28.740576 13.57712-40.038355 24.65864-8.472403 8.26106-15.354334 18.20237-19.744387 29.21095-1.4009665 3.66045-2.900989 7.41207-2.9580904 11.38785-.1637819 5.24725 1.6507876 10.4901 4.9209964 14.58504 2.369513 3.20477 4.562432 6.54695 7.083897 9.63494 1.891109 2.12066 4.204896 3.85679 6.755859 5.10547v24.57031c-4.085218 6.34641-8.252441 12.63849-12.258786 19.03407-2.386591 4.18371-3.165857 9.14957-2.624649 13.90454 1.437237 22.17561 2.816468 44.35597 4.303227 66.52774.777838 7.82597 6.168327 14.95652 13.451097 17.90493 3.449441 1.46527 7.248854 1.81215 10.960751 1.66285 4.605655-.0414 9.216987.10588 13.818751-.10054 7.17373-.63212 13.879673-5.08688 17.251953-11.44922 3.471653 6.40326 10.277158 10.92747 17.578274 11.37855 3.658316.21276 7.32702.0213 10.989673.0956 3.669398-.0574 7.432768.25123 10.986448-.87157 6.64292-1.91298 12.24575-7.11509 14.55505-13.64247 1.20538-3.23312 1.43044-6.72275 1.31047-10.14209 0-13.54804 0-27.09609 0-40.64414 10.86584-9.89956 20.74798-20.9375 28.97734-33.13181.96759-1.58133 1.73952-3.2841 2.27462-5.05959 4.10489-.39604 8.20315-.86096 12.29101-1.40625 2.43426 28.61384 4.84327 57.23047 7.31613 85.84063.93355 7.74219 6.37185 14.71699 13.62596 17.56303 3.39091 1.39351 7.10543 1.71153 10.73721 1.56991 4.57965-.04 9.16463.10321 13.74062-.0986 7.70593-.67454 14.81848-5.77924 17.94781-12.85105 1.57514-3.4102 2.05229-7.20677 1.99168-10.93151.5703-23.85178 1.1406-47.70356 1.71091-71.55533 4.17122 1.83333 8.34244 3.66666 12.51367 5.5-2.97387 6.79846-6.06311 13.54799-8.94124 20.38684-2.6629 7.31106-1.0007 15.97695 4.16248 21.79604 2.49712 2.91528 5.83051 4.98163 9.35238 6.43448 4.12216 1.86987 8.1715 3.9114 12.36081 5.62602 7.23411 2.58839 15.76688.9689 21.56239-4.07388 2.82221-2.37344 4.8251-5.54493 6.38188-8.85152 8.95052-17.31709 17.95809-34.60556 26.86207-51.94592 3.25063-6.96891 2.39613-15.61654-2.08977-21.85291-2.50003-3.5018-6.1329-5.9192-9.31837-8.73464-8.24369-6.92752-16.48738-13.85504-24.73107-20.78256-2.72005-5.01042-5.4401-10.02083-8.16016-15.03125 4.70992-12.7976 8.18093-26.04578 10.37627-39.5043 2.42325-14.17257 3.73974-28.51057 4.47023-42.8629.089-1.67532.15958-3.35162.24139-5.02733 7.41487-.0271 14.83258.0716 22.24558-.0623 7.77454-.5295 15.05164-5.55911 18.26752-12.66339 2.80091-5.51616 5.66088-11.08626 7.12161-17.137 1.36395-4.87814 2.25348-10.03565 1.30894-15.07884-.62332-4.42904-1.01318-9.10878-3.48755-12.9749-2.18589-3.60806-5.83215-6.0011-9.5802-7.75011-15.01291-7.739-30.02307-15.48187-45.02824-23.23583 3.43358-10.13713 4.83924-21.0873 3.12293-31.70317-2.04401-13.41901-8.59193-26.193316-18.65809-35.355423-3.70154-3.345168-7.54685-6.527098-11.29201-9.823201-2.2347-1.933281-4.46911-3.86688-6.70408-5.799846-7.63732 8.711522-15.27237 17.44673-22.91211 26.142577-7.66653-4.887523-16.0615-8.516932-24.65138-11.438955-4.31803-1.548994-8.63606-3.097987-12.95409-4.646981.23635-3.191405.47171-6.382883.70899-9.574219-19.2274-1.379623-38.45437-2.765197-57.68164-4.146484-.10678.509623.31286 1.397604-.12752 1.667447-10.99981 3.215668-21.99962 6.431337-32.999435 9.647006-1.673941-5.93877-3.34679-11.877848-5.021484-17.816406-.639974.177734-1.279948.355468-1.919922.533203z" fill="#e5f9ff" filter="url(#i)"/><path d="m230.45082 161.67996 38.7627 4.23144 7.12207-11.00488s5.21937-10.20356 6.20703-23.73828c.98766-13.53473-3.06053-32.953993-19.33789-47.037115l-13.52735-11.703125-11.78906 13.455078-20.86328 23.814452-30.17383-10.482423c-1.87271-2.07106-3.45523-3.89303-2.98633-10.240232l1.32813-17.986328-49.47461-3.558594-1.43555 17.785156c-.97723 12.104298 1.28146 22.922711 5.14453 31.544921l4.14454 9.25391z" fill="#00b7e5"/><path d="m90.87856 61.558859-17.283203 4.808594-30.677735 8.535156 4.900391 17.384766c8.466274 30.031345 21.449608 49.358985 38.289062 59.863285 17.174775 10.77434 36.160805 11.17614 53.134765 9.64844h.0137l.0156-.002c22.62953-2.07219 41.71507-6.55709 59.25-.28125 5.35381 2.42859 10.94602 5.44335 17.0254 9.54688l7.0957 4.78906 8.19336-2.48242c5.11939-1.5508 8.69836-3.14193 10.71094-3.79297l1.93164-.625 18.63281 9.76172-9.52735-18.96484.59961-1.91211s4.31178-15.08571-2.09375-31.18555c-5.55995-14.09826-19.94712-30.338953-46.9375-40.021488l-16.91406-6.068359-8.57226 23.767577c-8.46485-1.30858-16.02948-2.00173-21.82422-2.64257l-.0606-.006-.0605-.008c-7.41532-.76882-10.35012-1.697153-11.46875-2.474613-1.00623-.76699-3.47355-3.44967-6.42382-13.556636l-5.04688-17.285157-37.835934 11.0625c-.06573-.229521-.133588-.360929-.199219-.59375z" fill="#00b7e5"/><path d="m337.07194 194.82447c-1.06511-6.37676-.57307-12.9-8.70118-17.33399l-70.50586-36.36133c-4.52902-2.33546-9.83566-2.64206-14.60351-.84375-5.19875 1.96086-10.65124 4.29839-16.01758 7.24415-9.55933-4.99046-24.07881-8.85978-36.70311-10.33306-8.80163-1.02716-18.00903-1.20447-26.56058 1.11823-5.22127 1.41816-10.41213 3.88807-14.33399 7.61524-4.00428 3.80549-7.39364 8.81049-8.50976 14.2207-1.08243 5.24692-.37029 11.18877 2.12109 15.93164 3.82199 7.27596 11.23066 12.319 18.27735 16.54883 10.33363 6.20284 19.65226 9.94223 34.02148 12.24219.0857 2.80312.18555 5.78533.18555 7.98632 0 8.94504-2.93687 15.97679-10.58203 22.15821-7.64517 6.18142-21.15608 11.46875-42.74805 11.46875-27.03318 0-59.46703 4.31561-86.75195 18.95507-.0013.00069-.0026.001-.0039.002-19.340828 10.35174-36.234159 26.72879-43.566406 49.50195-1.751983 5.4422-.814665 11.39305 2.52539 16.0332l6.439453 8.94727c3.333394 4.63022 8.664346 7.4062 14.369141 7.48242l-5.431641-3.16589v30.65413l-12.15039 18.76367c-2.101512 3.24466-3.102715 7.07964-2.855469 10.9375l4.322265 67.30274c.608639 9.47378 8.469584 16.84667 17.962891 16.84766h14.265619c9.781222-.00054 17.772262-7.81119 17.996094-17.58985l.427734-18.76562 2.373047 20.35742c1.058384 9.07306 8.744325 15.91517 17.878906 15.91601h14.101566c9.94071-.001 17.999-8.05929 17.99999-18v-45.06445c7.87498-7.0308 19.23725-18.30738 29.34766-33.08984 1.37287-2.13143 2.28004-4.52881 2.66211-7.03516 6.67464-.60525 13.04951-1.35149 19.16016-2.23437l7.5625 89.02929c.79222 9.31666 8.58526 16.47578 17.93554 16.47657h14.1836c9.77305-.001 17.75989-7.80008 17.99414-17.57032l1.91211-79.92968 21.64843 9.51562-9.9414 22.48828c-3.96506 8.9723-.0168 19.46747 8.8789 23.60156l12.36914 5.7461c8.74343 4.06129 19.13433.51356 23.56836-8.04688l27.54102-53.1875c3.87234-7.47751 2.04367-16.64036-4.40234-22.05859l-30.84375-25.91602-9.38672-17.29492c3.78822-10.02621 7.14509-21.46472 9.218-31.86693 2.07292-10.4022 2.95384-16.96978 3.99026-25.57076s1.90385-21.04291 2.43629-34.26936h24.38476c7.11347-.00021 13.55972-4.18928 16.44922-10.68945 0 0 4.67217-8.7901 6.01953-13.54297 1.40652-4.96155 2.91993-10.24544 2.07032-15.33203z" fill="#00b7e5" stroke-linecap="round" stroke-linejoin="round"/><path d="m414.95117 367.0293c-6.68449.0439-12.53774 5.59984-13.28794 12.1884-2.71184 2.3695-7.16917 3.76539-9.85929 6.79132-5.57542 5.06154-9.71234 11.63656-12.14616 18.73046 1.5931 4.82553 9.08171 4.1595 13.27459 5.60277 2.19771.0228 4.3888.0723 2.34206 2.57441-4.2991 10.19501-6.68652 22.48797-1.64122 32.85705 3.74395 7.96868 12.93489 11.8836 21.40529 11.235 4.10792-1.15874 7.6783 1.44884 11.70003 1.95627 8.41161 1.80524 18.23216-.4235 23.43725-7.70571 6.12012-8.27117 5.20459-20.12616-.475-28.37942-2.06924-4.1816-5.43842-9.07506-3.67586-13.88109 1.89675-3.58138 10.19234-3.45957 5.71391-8.27827-2.04014-2.53734-2.54132-9.84079-6.6626-5.96644-6.4674 2.9435-11.90905 9.12313-11.80484 16.53993-.0343 7.90553 4.35282 14.75498 7.92503 21.47916 2.29329 5.11287.7557 12.85896-5.35982 14.33376-2.95663 1.05935-3.58076.11459-1.80633-2.30322 4.41168-10.70245 1.54822-22.84378-2.95617-33.02124-.52824-2.70633-5.44724-6.67274-.52684-7.11804 7.18567-3.15809 10.05537-12.81133 5.88855-19.40855-1.62791-2.84976-4.38656-4.92778-7.45339-6.01952-.67143-6.92074-7.05-12.55013-14.03125-12.20703z" fill="#e5f9ff" filter="url(#h)"/><path d="m381.84897 25.76374c-14.1982.938373-27.88679 6.844366-39.28552 15.123644-.3788 5.867662 10.24974 5.067582 14.00015 8.364196 13.7715 6.109857 26.32589 14.753577 37.64474 24.660598-6.92223 8.835758-12.67716 18.655358-20.49558 26.744512-9.13579 6.54094-20.69593 8.45845-30.08973 14.6124-2.12865 1.47816-8.52276 3.69003-2.63319 3.8168 8.2583 1.85509 18.08701 2.01221 24.24314 8.60504 5.06139 7.43486 5.30561 16.81737 7.22341 25.32672 5.39131-8.52101 9.40809-17.75001 13.07924-27.11311 2.14477-6.70421 7.21674-11.59754 12.8599-15.47192 6.13038-4.67929 12.54195-8.97571 18.67023-13.657161 12.91119 14.519591 23.1448 31.402431 29.56802 49.757791 1.00528 3.02591 1.97384 6.45549 3.78981 1.72146 8.17531-12.17775 14.69084-26.33166 14.77494-41.24699-.72852-9.264011-8.83036-15.447616-15.26309-21.177576-3.23094-3.849525-11.8053-6.468736-12.11579-10.309894 4.63398-4.678011 8.49185-13.312376 13.2618-15.785097 3.25324 2.784973 7.69136 9.271717 9.93776 9.879685-.32858-8.446145.90373-18.242202-5.67187-24.793667-4.41303-3.914916-9.2878-9.320732-15.92307-7.751115-7.54995 1.977419-12.9575 8.210441-19.29362 12.428573-3.18009 2.613165-6.45961 6.514726-8.24524.70794-6.11973-8.760384-12.76982-17.900383-22.33487-23.119868-2.3924-1.161009-5.07885-1.402541-7.70157-1.322961z" fill="#e5f9ff" filter="url(#g)"/><path d="m-100 0h50v50h-50z" fill="url(#e)"/><path d="m-50 0h50v50h-50z" fill="url(#f)"/><path d="m-100 50h50v50h-50z" fill="#e5f9ff"/><path d="m-50 50h50v50h-50z" fill="#00b7e5"/><path d="m415.13772 371.02582c-3.2834.0735-6.45635 1.81261-8.21819 4.86398-.76223 1.3196-1.38818 3.97571-1.89989 7.10502-8.10173 1.87429-16.89422 10.74025-20.79266 21.02223 6.56681 2.4606 13.12314 3.15826 18.77451 2.54656-13.2082 21.98598-11.00924 46.47422 10.62625 46.47755 2.01747 0 3.86236-.20263 5.53891-.59856 12.87352 5.51799 22.44382 3.11662 27.34721-2.99236 4.99113-6.21787 5.10981-15.55635.73796-22.81079-4.00244-6.64118-5.92727-11.86768-5.79633-15.58039.13026-3.71296 1.89232-6.26619 6.65209-8.65665l-1.86494-3.71652c-5.58524 2.80487-8.76643 7.04824-8.94881 12.22664-.18259 5.17862 2.20765 10.94022 6.38822 17.87711 3.52434 5.848 3.28185 13.4487-.41753 18.05749-3.21548 4.00644-9.07082 6.29135-18.55895 3.24287 11.83449-7.85722 9.21669-29.98484-4.43265-49.03124 1.80281.58008 3.33796.93971 4.37008.93971 5.3699-.00064 9.72818-4.35182 9.72818-9.7215 0-5.28573-4.22422-9.58121-9.47789-9.71437.7482-3.94809-1.01364-8.11376-4.69007-10.23655-1.59838-.92256-3.34597-1.33964-5.06594-1.30112z" fill="#00b7e5"/><path d="m382.80621 29.7517c-4.77885-.02345-11.64292 1.402097-18.17398 3.808275-6.15783 2.268816-12.08785 5.348403-16.17855 8.055772a152.86703 152.86703 0 0 1 10.31722 4.246157c4.31517-1.517681 8.97878-2.531814 13.82195-3.286634-2.88795 1.919716-5.98596 3.630374-8.66854 5.756468a141.11622 141.11622 0 0 1 7.21318 3.905768c3.91314-2.30835 8.25846-4.197913 12.82625-5.871718-2.83703 2.824964-6.00707 5.42747-8.36769 8.570041 7.92813 4.987912 15.84118 11.02815 24.09663 18.49226-6.65133 8.078889-11.71596 16.681089-20.98287 27.921991-4.09271 4.96446-11.79034 7.67886-19.05108 10.65459-3.63038 1.4882-7.13746 2.93485-9.85589 4.34365-.14138.073-.25127.14741-.38763.22045.97929.19599 1.72942.29683 2.80621.55414 5.17955 1.23625 11.14407 2.9315 14.92219 6.71063 3.77912 3.77845 5.4737 9.74264 6.71063 14.92152.25596 1.07376.3568 1.82155.55179 2.79883.0717-.13301.14339-.23988.21442-.37691 1.41047-2.72044 2.86115-6.23053 4.35203-9.86325 2.98309-7.26678 5.69884-14.9634 10.65526-19.0464 11.26367-9.2793 19.85047-14.335891 27.92131-20.981862 7.46344 8.255121 13.50368 16.167832 18.49126 24.095292 3.14257-2.35961 5.74575-5.53033 8.57004-8.36735-1.67414 4.56812-3.56337 8.91378-5.87138 12.82591a141.09947 141.09947 0 0 1 3.90577 7.21451c2.12609-2.68224 3.83675-5.77991 5.75579-8.66887-.75381 4.84251-1.76794 9.50611-3.28563 13.81994a152.85698 152.85698 0 0 1 4.24683 10.3189c2.70704-4.09071 5.78595-10.02072 8.0551-16.17956 3.20791-8.7074 4.67198-18.0078 3.2853-22.16819-1.44967-4.351031-7.69428-11.025812-15.55372-17.036232-4.44416-3.398866-9.37076-6.673775-14.15163-9.547318 7.69562-9.274273 15.90048-20.662243 15.90048-20.662243l.0503-.07036.0543-.06768a18.284877 18.284877 0 0 0 .99637-1.360218c3.81665-1.206104 5.29179.68949 8.80658 4.483358-.0744-8.054097-3.44645-12.60379-8.01725-15.131919a8.7811097 8.7811097 0 0 0 -1.15987-1.433254c-1.4356-1.435599-3.38279-2.419579-5.67706-2.474524-2.29495-.05495-4.93766.818811-7.76598 3.099688l-.067.05428-.0704.05025s-11.38864 8.20553-20.66291 15.900476c-2.87354-4.780194-6.14778-9.706795-9.54632-14.151624-6.00975-7.85911-12.68587-14.104051-17.03622-15.554392-1.04027-.346755-2.40149-.515274-3.99455-.522645z" fill="#00b7e5"/><g fill="#e5f9ff"><path d="m152.22476 86.66372c-.74217 9.192737.9071 16.66184 3.62838 22.73562 6.34966.78795 11.87471.90287 17.64715 1.88779-4.45303-4.92467-8.41126-12.475863-7.58661-23.638464zm99.20327 11.080537-8.98847 10.259753c6.76196 5.90962 8.65862 12.96833 8.65862 18.96003-3.62837-3.21746-6.9269-5.35969-10.80268-7.30495 5.93735 6.91097 6.762 19.17343 7.17431 25.7725l12.78181 1.39533s14.51352-28.89147-8.82359-49.082663z" stroke-width="36"/><path d="m78.420156 83.708903-13.276573 3.69353c7.751562 27.496137 18.389311 41.941867 30.511416 49.493037 12.287011 7.71533 26.470691 8.37196 41.973771 6.97664 20.6158-1.8878 43.87044-7.87949 67.61987.90286 6.43213 2.87273 13.1941 6.5252 20.36842 11.36781 3.79329-1.14909 7.09182-2.6265 10.39034-3.69352 0 0 2.63883-8.413-1.64926-19.16521-3.71084-9.43899-12.94672-21.34029-36.28382-29.71225l-4.61794 12.80417c14.34862 5.25299 22.10014 11.73716 26.05838 17.893.57725.90287.98955 1.72365 1.4019 2.54443-3.13362-1.64156-6.3497-3.11896-9.48328-4.26806-23.17217-10.67015-41.72641-11.32678-56.5698-12.96833-7.91646-.82078-14.59598-1.80571-20.12102-5.74546-5.52505-4.02182-9.6482-10.99845-13.19413-23.145997l-13.19411 3.857654c4.70039 16.087303 10.9676 24.951733 18.30685 30.286803 3.29853 2.38026 6.84443 4.1039 10.63775 5.33507-13.02921.69767-25.31622.54993-34.38716-4.8426-10.060529-6.32001-18.059453-18.79587-24.491604-41.613577z" stroke-width="36"/><path d="m115.77602 369.70978c23.33708-.73871 43.37565-2.21611 60.36309-5.00676 7.94889-14.85515 7.54592-31.37286 9.81314-47.35903l13.02917 153.40382h14.18368l2.39142-99.88895c11.29749-4.76052 37.02602-22.24314 49.06564-82.98087 1.48434-7.38703 2.30897-13.62495 2.72127-18.96002 1.89667-13.54288 2.96868-28.8094 3.29854-46.20994l-20.20349-6.32h62.09481l6.01983-13.54288c-5.85489.24625-12.86426-2.79065-12.86426-2.79065l1.40187-6.56623h13.02917l-70.50603-36.36056c-7.83401 2.95482-16.08034 6.81248-21.85279 11.49092-4.61794-3.28311-20.6158-13.54287-42.88089-13.95326-14.43103 1.64156-22.10014-2.13403-26.71809 11.32677 0 0 15.5031 22.89977 56.81721 22.32522-2.30897 9.35689-1.23697 16.25145-1.23697 24.54133 0 27.57821-22.26508 51.62707-71.33071 51.62707-24.90389 0-55.167899 4.43222-78.257605 16.826-16.410192 8.78236-29.249697 21.50444-34.931409 39.15122l6.440357 8.9465 12.328257.16414v50.64212l-15.041294 23.22809 4.321091 67.30398h14.266131l1.236959-54.1715c7.091819-4.10391 23.337067-14.774 37.190893-31.18965 18.80161-22.07897 33.23269-54.17148 16.24528-93.89725 13.93628 32.58498 21.7703 55.48474 9.56573 78.22037zm147.85658-29.05561c-7.99893 14.85613-16.5751 25.93665-23.99681 33.81614l38.8402 17.07224-17.23482 38.98705 12.36947 5.74547 27.54275-53.18654-36.53123-30.69721c-.32967-1.88779-.74216-5.58129-.98956-11.73715zm-126.82847 41.69565c-9.31833.57452-19.21393.98494-29.76922 1.14908-7.174313 9.43897-15.420637 18.54965-23.996812 25.60834l7.174309 61.55854h14.101223v-53.35073c6.0198-4.92469 20.53334-17.48262 32.4905-34.96523z" stroke-linecap="round" stroke-linejoin="round" stroke-width="36"/></g></svg>