<svg height="500" viewBox="0 0 500 500" width="500" xmlns="http://www.w3.org/2000/svg" xmlns:xlink="http://www.w3.org/1999/xlink"><filter id="a" color-interpolation-filters="sRGB" height="1.09538" width="1.094824" x="-.047412" y="-.04769"><feGaussianBlur stdDeviation="8.4423008"/></filter><filter id="b" color-interpolation-filters="sRGB" height="1.006018" width="1.005982" x="-.002991" y="-.003009"><feGaussianBlur stdDeviation=".5276438"/></filter><g transform="translate(-1000 -500)"><circle cx="1250" cy="750" fill="#8f29a3" r="250"/><path d="m1250.0521 500.09326-.061 248.75004-15.9199-248.2399a249.99917 250.18666 0 0 0 -31.6776 4.06945l45.0428 231.17052c-.102.0363-.2268.0547-.3789.0547l2.377 12.94521-.25-.53361-.5352-1.34279-3.3574-10.61339c-.1814.0698-.3456.12506-.5117.12506l-.1211.0782-83.1951-220.24831a249.99917 250.18666 0 0 0 -14.7401 6.13348l96.9 214.60543-.2187.11532 2.3047 4.43886 2.3437 5.21678.055.0488.416.7486.7461 1.26658v.0314l-.7461-1.29782-.4707-.79746-5.5273-9.21c-.1841.12151-.3808.23754-.5664.39678l-123.4077-200.53639a249.99917 250.18666 0 0 0 -34.1776 25.40763l164.5483 186.40079-.3984-.58052.832 1.02616v.0508l-.3262-.32448-.094-.12903v-.006-.002l-176.1809-175.46484a249.99917 250.18666 0 0 0 -21.0273 24.05115l186.5306 143.42536-.1425.18569 10.4687 8.26398-2.0957-1.07698-9.4082-5.66242c-.1395.18156-.2273.33335-.3066.47301l-208.0031-109.74966a249.99917 250.18666 0 0 0 -7 14.40723l214.5266 96.34337c-.074.17741-.1655.3791-.2578.59419l12.1758 4.73596-.037-.0253.5254.23653-.4863-.21109.3574.18179.2129.0802-.2129-.0508v-.0295l-12.8066-4.08117c-.056.14944-.1255.33501-.1758.5082l-224.9661-68.33223a249.99917 250.18666 0 0 0 -8.7656 41.69908l246.1613 30.77687h-1.2363l-246.3644-14.82161a249.99917 250.18666 0 0 0 -.4219 14.51082 249.99917 250.18666 0 0 0 .6113 17.47203l234.4934-16.18786h-.027l.3066-.0234-.2773.0234 12.9687-.73492-7.6699 1.8549-.3028.0508-4.789.9382.07.23845-228.2004 55.91086a249.99917 250.18666 0 0 0 4.2871 15.37279l224.173-70.26921c.093.36314.1859.69573.2793.95971l11.9648-4.46623-6.7285 3.52803-218.2141 100.03556a249.99917 250.18666 0 0 0 21.0155 36.99246l204.0072-139.70972-2.9414 2.38851-191.599 150.2058a249.99917 250.18666 0 0 0 21.2792 23.80097l164.7143-167.43742c.2793.26396.5666.50585.8359.80333l7.6309-8.62753v-.0314l.7578-.86587.1855-.23653.7754-.84633.02-.0645.057-.0272-.023.15832-.1035.11531.051-.18179-.068.18179-1.3203 1.73762.6133-1.0457-.1856.20916-.7578.89715-2.5996 3.67852-4.2753 5.57643.287.1818-133.9214 192.92518a249.99917 250.18666 0 0 0 13.3768 8.68037l121.3629-200.99764c.1115.0698.2562.1641.4043.23263l6.9082-11.76855-.2793.71929-100.1481 226.51466a249.99917 250.18666 0 0 0 40.1346 13.79743l59.6931-236.78211-1.5742 9.22563.2364.0566-42.7675 230.89101a249.99917 250.18666 0 0 0 31.6386 3.76263l12.9316-234.50119c.2415.0238.455.0234.6602.0234h.031v-12.36276l.055-.87175.3809 3.35211.6328 9.85892c.1939 0 .3385-.0234.5058-.0234l27.248 233.23258a249.99917 250.18666 0 0 0 15.7831-2.3455l-42.1484-231.0161c.254-.028.4739-.0916.707-.11531l-2.0644-10.71502-.055-.13878-.3203-1.79235.018.0295.3575 1.90182 74.3923 234.18055a249.99917 250.18666 0 0 0 39.205-16.19959l-111.1503-215.75097 4.1406 6.7179.2696-.18569 120.6715 201.44522a249.99917 250.18666 0 0 0 26.2108-18.10533l-145.5071-184.32505c.254-.18717.4204-.39029.6562-.60397l-8.457-9.554 3.3672 3.03156 5.8437 5.83834.2872-.30686 174.8256 156.82795a249.99917 250.18666 0 0 0 10.2715-12.18293l-184.478-145.35845c.1296-.15783.305-.33279.4082-.48083l-9.3632-7.21437 211.5852 126.78601a249.99917 250.18666 0 0 0 18.7245-38.19257l-229.6555-89.16613 11.0274 3.36579.012-.18569 223.9289 70.91228a249.99917 250.18666 0 0 0 7.6836-30.99187l-231.1887-41.80463c0-.16199.037-.30149.037-.44955l-7.3671-.90693-4.5508-.79941 12.0312.70755c.03-.32965.029-.62841.029-.96361l235.009 1.78454a249.99917 250.18666 0 0 0 .011-2.19892 249.99917 250.18666 0 0 0 -.3809-13.81303l-234.6691 13.37131v-.33226l-11.7754.81114-2.207.14075 2.1641-.14075h.043l242.6422-45.60435a249.99917 250.18666 0 0 0 -11.2772-41.04821l-231.0032 85.65376-.2598.0684 10.5078-4.79069c-.1716-.35894-.395-.80876-.6601-1.20402l208.1651-109.51534a249.99917 250.18666 0 0 0 -7.877-13.90491l-200.7337 122.63837-.2109-.32833-5.6211 3.9033-4.707 2.86542 9.6699-7.59747-.1446-.20719 183.392-147.45376a249.99917 250.18666 0 0 0 -29.3651-30.85701l-161.2514 182.96656-2.3184 2.37091 151.2905-195.53064a249.99917 250.18666 0 0 0 -26.4154-17.96062l-119.2496 202.94829-.094-.0664-7.0644 11.68841 5.539-12.45265c-.2748-.15364-.5655-.24794-.8711-.35962l83.404-220.18189a249.99917 250.18666 0 0 0 -15.121-5.19332l-69.2811 225.07807c-.1088-.0378-.2229-.0651-.3808-.11531l-1.8809 7.53882-1.1289 3.69807 2.1055-11.46558c-.2011-.0197-.4082-.0561-.6133-.0743l40.1268-232.08917a249.99917 250.18666 0 0 0 -42.4354-3.64138zm-1.9453 235.66215 1.0117 8.77021v.043l.8711 4.45646v.46128l.029-.16807.023.62741v.1036l-.057-.1036v-.43977l-.066.30686-.2383-.49451-.5625-4.74964zm-9.3652 5.00568 7.0859 6.37391-.025-.0197zm25.7675 6.02013-11.8261 2.9006h-.057zm-12.1504.11531-1.6269 2.78332-.3496.40069.1113-.44954-.092.20719-.02.18179-.051.10553v-.0253l.051-.0802v-.16221l.02-.0197v-.10556l.012-.0234.082-.12118v-.0234l.033-.0272.061-.1505v.0197l-.061.13096-.033.0508zm-6.5292.23849 3.3242 2.54682.3633.56682-.4493-.16807.2012.13878h-.022l-.2188-.13878h.037zm5.0331.24627-.2968 1.58908.2968-.84047-.3339 1.37603-.1016.1505.1387-.68606.2617-1.56758zm-.582.38505-.086 1.71808-.057.19351-.1172-.46715zm3.1445.7447-2.2754 1.58908h-.023l-.4121.27757-.2871.11728.2129-.27557.074-.0215.8867-.71342zm-4.0429.57856.1348.14075v.0469l-.084-.1251zm3.8633.31665h.029l-.1738.0802zm-3.5254.18179.1835.3577v.0392l-.1835-.35376zm.416.0938.02.26385v.0392l.039.0958.047.11728-.047.0215-.039-.1192.039-.0197-.039-.0605v-.0352l-.057-.26192zm2.2207.0644-.07.0272-1.0156.30686.1562-.0605zm-5.6387.0665 2.3692.40655.3457.21498.029.0606-.3124.0644zm2.1641.31271h.053l.094.0314zm.7265.19155h.02v.0196zm-.164.0606h.02l.074.0802zm.2148.1818h.024l-.024.0314zm-.3359.16808h.057l.2461.0352-.8125.32836zm-.3887.0352h.2168l-.9316.47886.2637-.0527-.025.0272-.2383.0253-2.0253.39287v.0234l-5.2422.93428 5.2422-.95774zm1.7774.0234.5078.043.7519.2228-.8457-.0841zm-.2188.16418.035.0178.1113.22088.3282.16611 1.4394 1.4034-1.3496-1.00858-.2344-.2971-.1855-.26385-.018-.0333-.092-.18766h-.035zm-1.0625.0802-.25.27364h-.029l-2.7812 1.26461 2.2988-1.41316zm1.5703.0997.1485.0253.031.0314zm.2207.0253 1.9356.60398-1.9063-.57074zm-1.1796.17201.031.1251.022-.0978-.022.13092v.006l.076.23066.125 1.89594-.2324-1.35256.031-.77402-.088.50819v-.0919l-.031-.18569.031.14272v-.26385zm.7226.0919.061.0664.088.14661-.037-.0314zm-1.1406.1818-.2442.52578-3.9492 12.85138 3.9219-12.85138h.027l.084-.28732.01-.0117zm-.088.10552-.065.11339.041-.0978zm1.4648.0802.033.0234.1152.18962-.092-.0919zm-.4375.21306.023.0295.029.22669zm-1.7304.26581v.0295l.051-.0295zm2.2929 1.35257 4.8828 10.7893-4.8828-10.73457z" fill="#aa40bf"/></g><path d="m220.30348 102.6583c-7.38894-.11874-17.36386 3.23295-23.24023 10.19726-5.87637 6.96432-7.84605 14.8743-8.85156 23.46875 0 0-3.14047 26.84792-4.71094 40.27149-1.41991 12.13646-1.32311 21.82558-3.125 28.43554-.79433 2.9139-2.02658 6.02426-3.53906 9.28906-5.8075-7.67553-12.6954-14.47799-22.15039-19.90429-7.12848-4.09109-15.87599-6.85642-26.64844-3.41406-4.94685 1.58077-10.19731 4.92693-13.57422 8.45117s-5.30521 6.66571-7.49414 9.99609l-7.164063 10.90039 8.126953 10.20313c23.95302 30.06864 29.14737 56.86098 33.72851 77.61914l.002.002c.85609 3.87665 1.0517 9.11472 2.35939 16.00195.14542 25.29437 12.57296 44.80258 27.38085 57.18946 16.43375 13.7469 37.1809 18.27272 56.33399 14.92382l.32422-.0566.32226-.0684c18.14766-3.86229 32.31437-11.4265 44.54297-21.9121l.11328-.0977.11133-.0996c8.98945-7.97001 22.93182-19.30886 34.83984-28.15234 16.64129-12.35861 34.42364-24.90925 50.55469-34.45118l.81641-.48437.76172-.56641c4.50682-3.35245 14.06316-7.93412 23.21875-14.32617 4.57779-3.19602 9.4848-6.8781 13.39843-13.64062 3.91364-6.76252 4.84604-18.00733.99415-26.05274-3.87107-8.08542-12.2249-13.62926-19.32227-15.33398-6.26769-1.50545-11.75172-1.04372-16.90039-.12305l5.73437-7.18555.36719-.5332c5.31681-7.74253 12.54158-16.06838 18.05664-26.33789 2.75754-5.13475 5.37361-11.05849 5.54102-18.79883.1674-7.74034-3.61694-16.91403-9.66406-22.57031h-.002c-4.92513-4.6068-12.34477-7.68945-19.04883-7.73242-6.70405-.043-12.13137 2.12146-16.5664 4.57226-8.87007 4.90161-15.20385 11.50907-21.51758 18.23828l-.38477.41016-.35937.43359c-.0683.0826-5.52684 5.55932-10.69727 10.58985 2.61008-5.25258 5.1606-10.5192 7.92188-15.75l-.17188.31836c5.04649-9.11169 9.46979-18.47801 10.91016-29.35938.72018-5.44068.67997-11.57433-1.80859-17.9746-2.48857-6.40028-7.97763-12.4567-14.33985-15.67578-6.62817-3.35366-15.13051-4.00575-21.80859-2.00782-6.67808 1.99794-11.52947 5.72298-15.44336 9.58399-7.82778 7.72201-12.79843 16.81914-17.16211 25.7539l-.30078.61719-.25391.63867c-2.68977 6.77171-5.90826 13.30074-9.40234 19.82617 1.06508-9.73509 1.82023-20.12204.63867-30.47851-.85809-7.5214-2.82476-14.85158-7.56055-21.66797-4.73578-6.81638-13.90823-13.01544-23.88476-13.17578z" fill="#6a1f7a"/><g fill="#eed9f2"><path d="m330.91498 250.40899 21.85999-27.39249c11.94191-17.39024 27.99825-33.59485 16.47568-44.37268-8.46293-7.91593-19.93584 1.69895-31.7102 14.24815-4.12547 4.98832-23.11937 22.69822-35.12489 33.56809-6.28747 5.69271-11.56966 13.10848-19.31565 16.56377-4.1147 1.83547-10.02316 4.73703-13.40194 1.75651-1.08378-.95603-.29632-2.92593.0227-4.33547 1.60732-7.10343 6.14642-13.20613 9.30285-19.7696 8.50174-17.67843 16.60826-35.11838 25.95179-52.81821 8.93264-16.12832 13.7735-32.46329 2.38155-38.22726-11.67288-5.90613-22.24728 9.06307-30.11304 25.16845-6.70262 16.87438-15.6847 31.67744-24.71101 46.85238-4.26784 7.17508-7.52791 15.43491-13.88957 20.841-1.62214 1.37849-3.80739 3.34298-5.81598 2.63789-1.4931-.52415-1.7797-2.6943-2.14907-4.23304-2.21802-9.23994-.32278-19.00904-.0397-28.50724.52603-17.64043 4.89967-38.19713 3.22836-52.8463-1.22971-10.77878-6.04547-18.76097-13.85163-18.88644-7.52175-.12086-12.35614 4.35146-13.92487 17.76 0 0-3.14098 26.84708-4.71145 40.27062-1.21198 10.35922-.8928 21.01499-3.63591 31.07768-2.19205 8.0413-6.04539 15.59151-10.09984 22.87361-3.09392 5.55691-10.77758 15.7451-10.77758 15.7451-10.36944-18.03329-16.85367-30.1564-31.13904-38.35489-3.57147-2.04969-8.28715-3.13342-12.20958-1.88-5.09578 1.62837-7.2184 4.664-11.50639 11.188 26.52397 33.296 32.73116 64.58 37.22797 84.956 1.44159 6.528 1.48399 12.6064 2.69095 18.0904-.49625 21.2776 8.2837 34.5197 21.02373 45.1768 11.02209 9.22003 28.9728 13.2208 41.6832 10.9984 15.78002-3.3584 25.93202-8.8464 36.57362-17.9712 9.5376-8.456 23.64552-19.92413 36.04959-29.136 16.87502-12.53219 35.04514-25.391 52.12191-35.49234 13.75359-10.23077 38.62568-18.21489 32.11922-31.80486-5.89028-12.30292-29.65712-3.46309-40.66186 4.59628-4.47847 3.27986-15.69793 12.32408-24.25625 10.32849-2.20713-.51465-4.39083-2.88982-4.43225-5.1558-.18331-10.02611 12.50971-15.67587 18.7646-23.5138z" stroke-width="36"/><g opacity=".75" transform="translate(6 -10)"><path d="m238.92188 37.626953c-48.78677.630526-97.3647 18.419356-134.43098 50.266351-17.804095 15.277636-32.825393 33.807156-43.953791 54.468026-11.649178 21.55768-19.003296 45.33811-22.19746 69.60677-1.358953 10.28985-2.037587 20.67547-1.999729 31.053.224584 2.07109.449168 4.14218.673752 6.21328 1.109201-2.06895 2.374874-4.06182 3.381046-6.18085 4.501891-10.81081 9.003782-21.62162 13.505673-32.43244-2.897307 27.59484-3.739586 55.59781.251953 83.13086 2.925226 20.08477 8.581803 39.8928 17.916208 57.96881 3.974223 7.71827 8.596175 15.10439 13.822073 22.03705-11.89584-5.21222-23.791591-10.42465-35.6875-15.63672 3.179145 5.59357 6.325063 11.22145 10.066971 16.46574 10.643396 15.20894 24.552547 27.99852 40.167384 37.97589 20.03572 12.82392 42.61319 21.26118 65.69473 26.70655 22.77702 5.34916 46.1588 7.86666 69.5299 8.3694 1.9388-.3138 3.8776-.6276 5.81641-.9414-1.80281-.99908-3.54526-2.12947-5.38652-3.04487-17.14036-5.97923-33.70623-13.44725-49.36553-22.67437-6.93331-4.0787-13.78324-8.57891-20.30962-13.37621-12.90625-9.4764-24.91259-20.39736-35.45889-32.52677-2.5259-2.89866-5.1029-6.04422-7.45601-9.06919-3.20228-4.14441-6.25371-8.39236-9.10763-12.73101-8.79499-13.31588-16.06171-27.81439-21.521273-42.87055-1.270461-3.51993-2.407016-6.9034-3.500167-10.50336-1.416959-4.64783-2.66705-9.34603-3.767411-14.07867-.871683-3.8068-1.691444-7.80671-2.370327-11.72163-1.032365-5.94094-1.82158-11.88455-2.377056-17.91898-.766527-8.06871-1.048253-16.25988-.804799-24.40729.06655-2.44119.188075-5.10571.356802-7.55559.782005-11.83858 2.671586-23.62255 5.925849-35.03909.357733-1.25765.802726-2.75051 1.203135-3.99958.985945-3.1347 2.098963-6.2779 3.278438-9.26338 2.274635-5.79264 5.009-11.53984 8.043817-16.88353 7.671162-13.57554 18.034632-25.83234 30.249512-35.65311 2.92998-2.37064 6.06409-4.67421 9.1333-6.73165 11.18755-7.52033 23.51642-13.28494 36.35547-17.359378 1.13946-.35173 2.38768-.747552 3.55875-1.078979 3.32349-.971799 6.84785-1.8683 10.23819-2.618045 3.61504-.797464 7.16757-1.460428 10.83978-2.025632 1.13823-.154035 2.52623-.373727 3.76525-.527864 4.04916-.535341 8.11817-.908479 12.19373-1.171354.63743-.02864 1.59817-.08271 2.35964-.121104 1.29864-.07589 2.67408-.10138 4.06224-.154287 4.34171-.107889 8.68618-.05876 13.02539.119141.77955.04546 1.86424.09897 2.76095.147516 3.4309.203232 6.85609.498449 10.27225.875921.88215.111697 2.05174.249233 3.0443.370856 1.61059.213958 3.49713.47066 5.21099.746894 23.89417 3.735641 47.12777 11.892425 67.96151 24.200605 9.98641 5.9043 19.522 12.86697 28.15132 20.70805 11.62785 10.54729 21.85458 22.94737 29.81284 36.57489.68264 1.22004 1.36674 2.43698 2.324 3.46819.89743 1.10965 1.79487 2.2193 2.69231 3.32895-.0829-2.15594-.002-4.32822-.19055-6.47365-2.35946-13.3083-5.64543-26.45974-9.98523-39.26268 16.4126 21.40335 28.16114 46.47239 33.42683 72.96077.59966 2.99084 1.15055 6.21344 1.58624 9.32368 2.23747 15.88008 2.144 32.01254-.57557 47.85813-.17879.97284-.39835 2.21594-.61304 3.28868-.25918 1.34054-.61828 2.97542-.91235 4.29726-4.49823 19.62825-13.37868 38.44152-26.81477 53.5446-1.71596 1.94477-3.6545 3.94507-5.42547 5.6722-2.16457 2.08282-4.41173 4.07989-6.74609 5.9707-.55593.44194-1.35371 1.08292-2.01746 1.58471-5.47963 4.21567-11.4099 7.8429-17.64856 10.82154-13.6837 2.29077-27.1857 5.75375-40.2168 10.52734-7.90904 2.96418-15.81695 6.38699-22.37662 11.8213-6.94818 5.62308-12.27911 13.2918-14.79804 21.89304-3.25502 10.91482-2.1205 22.84695 2.15191 33.3201 4.79168 11.80329 13.53149 22.16855 24.8822 28.10868 8.17251 4.32593 17.72713 6.00931 26.8749 4.59033 8.92282-1.31814 17.24773-5.36223 24.45585-10.68718 9.10934-6.64894 17.37531-14.38504 25.17504-22.51164 2.51109-2.75061 5.37723-5.14338 8.02194-7.76093 18.76101-17.99886 36.2311-37.56818 50.13301-59.60879 10.91387-17.28826 19.44726-36.20136 24.10764-56.1505 3.85155-16.34541 5.10082-33.29096 3.85527-50.02875-.50088-1.80967-1.00175-3.61934-1.50263-5.42902-.80696 1.80263-1.71963 3.56893-2.46101 5.3941-3.93153 17.42739-10.19018 34.27825-17.98235 50.33637 8.65678-26.25886 13.83582-53.90885 12.92313-81.63185-.68002-21.66172-5.27425-43.2932-14.29863-63.03989-8.55684-18.87778-21.11148-35.85941-36.30673-49.92416-20.30756-18.877901-44.96937-32.583093-70.85329-42.220398-10.92363-4.064289-22.10046-7.430101-33.4176-10.20909-1.76953.05664-3.53906.113282-5.3086.169922 1.38304 1.201184 2.68193 2.526166 4.11684 3.65103 7.52441 3.644296 14.64792 8.107355 21.23863 13.249361-23.32466-7.980783-48.05593-11.586492-72.67846-11.388027-24.50944.23742-49.07123 4.252444-72.12218 12.679943-.82255.30939-1.64941.60745-2.46889.924881 20.2778-16.149011 44.21161-27.651644 69.44648-33.548702 3.9683-.926703 7.87541-1.690315 11.88165-2.324345 1.60612-.751953 3.21224-1.503906 4.81836-2.255859-1.74855-.55716-3.46891-1.260436-5.23488-1.7273-4.69178-.267895-9.39219-.366528-14.09129-.311763z" filter="url(#a)" opacity="1"/><path d="m243.57276 39.621285c-98.84069-1.024199-205.124387 70.385405-205.253987 203.216405l19.262698-46.2555c-8.536497 65.052-6.974997 132.5124 34.911001 182.25179l-37.550698-16.45379c35.315999 62.79661 113.699696 81.87839 180.769496 83.25901-103.4505-35.96851-154.066496-114.82921-157.628697-201.03571-6.049799-190.602002 234.592197-195.924605 306.701977-68.193-3.07529-17.5428-7.76068-34.5834-14.05616-50.499 69.66537 80.2395 53.36366 193.3875-19.161 227.7324-21.82503 3.555-44.03701 10.854-54.85863 17.1-52.69319 30.4218-5.64299 113.88239 47.90252 82.96922 8.496-4.905 21.06361-15.57272 32.84459-28.21682 57.924-53.568 88.28997-106.416 83.79717-170.046-5.86798 26.19-17.25747 52.1136-32.06067 76.2147 56.8422-132.1398 7.16039-237.501004-130.35419-271.218603 10.88731 5.251499 21.1527 12.267001 30.48571 21.024-51.67351-21.3768-118.01072-20.358002-168.19561 3.154503 25.2594-23.580003 58.2984-39.357002 91.98-44.677802-3.168-.184517-6.34862-.292498-9.5373-.325795z" filter="url(#b)" opacity="1"/></g></g></svg>