<svg height="500" viewBox="0 0 500 500" width="500" xmlns="http://www.w3.org/2000/svg"><g transform="translate(.000015)"><circle cx="-249.99998" cy="250" fill="#e51a1a" r="250" transform="scale(-1 1)"/><path d="m181.33938 83.856939c97.52275-31.84694 203.27597 26.159281 217.12696 131.568651 10.04116 85.89723-45.79566 162.6049-131.11288 174.6444-76.26503 6.65-147.16573-45.4981-149.44603-126.3231.16679-50.89801 30.03241-87.97493 76.60677-108.40662 44.00125-16.48183 90.46555-3.00917 112.28155 39.63622 17.95322 40.0953 3.57775 87.31302-40.4313 103.80676-21.98685 8.23292-51.6578-5.55285-56.72562-31.5612 24.48155 21.7253 69.7211 11.74379 80.1808-21.06198 5.24648-24.88185-11.48198-41.52298-24.36368-55.64156-23.21161-15.22125-63.26956-13.16738-85.32502 12.05139-41.51846 46.43224-18.48961 112.52397 35.72777 131.08081 60.66482 17.11352 118.96473-29.63961 126.96137-92.39988 2.7637-54.83226-40.99398-106.19486-96.51046-114.27807-76.21988-10.3001-138.45939 50.84936-147.743191 124.09106-9.31956 73.21828 47.315731 138.67973 111.863041 158.33924 49.05305 9.49897 98.18701 2.07129 139.64056-27.40671 82.90715-58.95602 100.11901-177.97214 43.55644-260.39974-52.71171-79.885311-158.575-103.987181-249.15842-67.061741-86.705021 39.45169-149.0660905 134.549061-117.102931 229.167621 15.77888-74.65377 50.93986-153.5943 123.407351-187.514491 9.28724-4.60517 19.44718-8.7232 30.56692-12.33106zm-160.722321 286.075591c-52.57825-113.8254-.38403-260.89182 113.777041-317.643861 10.84604-5.32012 22.21219-9.7712 34.03518-13.36069 115.76394-28.75816 246.03978 34.00351 263.68455 158.897471 10.04526 85.91695-27.72044 168.80365-107.97396 206.83173-102.24035 46.26108-224.798841-11.43986-234.690511-131.24969-7.33455-123.78718 127.307171-194.136761 222.718561-137.24102-42.54074-27.89653-94.21826-33.44528-140.80825-12.98978-71.17376 32.62266-105.080851 118.0397-80.762351 190.63139 30.697281 88.13423 123.572931 132.04164 212.817841 105.59803 82.80488-25.06359 132.16266-100.33164 140.19255-180.04986 12.12434-145.020371-132.23823-245.3588802-265.59709-221.973611 7.92036-4.10499 20.5989-8.4277792 35.61563-11.7452592 60.06317-13.23825 124.63426-3.45807 179.45368 32.4903392 109.65077 71.904621 141.09454 217.803071 65.16008 333.599141-143.00482 218.07486-377.311781 117.06797-437.622951-1.79433" fill="#b21a1a"/></g><path d="m166.08398 1.8046875-37.17187 55.9531245c-10.38839 15.637974-14.86631 30.833433-12.97266 44.650388 1.89365 13.81696 9.13214 23.76174 15.14258 31.55078 11.36306 14.72561 19.52395 21.16894 16.87891 40.02149-2.44777-.17927-4.89863-.36167-7.28516-.32031-22.98385.40006-42.339642 9.00711-56.732421 12.78125-7.196389 1.88706-12.871893 2.54632-16.324218 2.13476-3.452326-.41155-4.936942-.90538-8-4.3789l-44.429688-50.38477 13.283203 65.84961c3.714022 18.40925 11.295438 32.32369 22.408203 40.75391 11.112765 8.43021 23.26466 10.34019 33.021485 11.59765 18.417986 2.37372 28.732646 1.16372 40.177736 16.33008-17.2207 14.63472-25.629755 34.34034-33.207033 48.36914-4.491141 8.31504-8.709397 14.69695-12.074219 17.82227-3.364822 3.12531-4.679008 3.91953-9.953125 3.58789l-67.048828-4.21485 55.958984 37.17383c15.653474 10.39867 30.862993 14.87529 44.687501 12.9707 13.82451-1.90458 23.76396-9.15411 31.55273-15.16601 14.67702-11.32871 21.11234-19.46935 39.9043-16.8418-1.79967 22.49908 6.18001 42.35189 10.73633 57.61133 2.70199 9.04916 4.22669 16.53775 4.05664 21.12305-.17005 4.58529-.5375 6.07818-4.5 9.57226l-50.38672 44.42969 65.85156-13.28516c18.42792-3.71768 32.3549-11.31403 40.78125-22.44336 8.42635-11.12932 10.32288-23.28908 11.57813-33.05078 2.36244-18.37195 1.1606-28.67618 16.27539-40.09375 14.61814 17.20821 34.31526 25.62197 48.35156 33.19336 8.33694 4.49707 14.74156 8.72151 17.87891 12.0918s3.93118 4.68015 3.59961 9.95703l-4.21094 67.04492 37.16992-55.95508c10.41593-15.67973 14.88678-30.924 12.95703-44.76367s-9.20369-23.77325-15.22461-31.5664c-6.02091-7.79316-11.20634-14.05525-14.10742-20.29493-2.53689-5.45637-3.81365-10.96745-2.67773-19.50781 22.46079 1.7948 42.29879-6.16348 57.55078-10.73047 9.07354-2.71694 16.58814-4.25968 21.1875-4.0957s6.08483.52602 9.58203 4.49219l44.42969 50.38867-13.28516-65.85156c-3.72183-18.44928-11.33482-32.38862-22.48437-40.8086-11.14956-8.41997-23.31676-10.29589-33.08204-11.54492-9.76527-1.24903-17.85694-2.00747-24.3164-4.36328-5.66524-2.06615-10.47135-5.06468-15.72266-11.94336 17.19481-14.60416 25.61779-34.27681 33.18945-48.29883 4.50111-8.33563 8.72845-14.73712 12.10157-17.875 3.37311-3.13788 4.68847-3.93543 9.9707-3.60351l67.05273 4.21289-55.96484-37.17188c-13.69678-9.09717-26.80497-13.72602-39.375-13.38867h-.002c-22.50344.60345-35.79677 15.09244-46.3418 22.95508-9.75672 7.27486-16.11166 11.56579-30.44336 9.52344 1.82246-22.5184-6.16762-42.39453-10.73242-57.667973-2.7066-9.056078-4.23848-16.551937-4.07031-21.140625.16817-4.588687.53452-6.077654 4.49804-9.572265l50.39068-44.427734-65.85352 13.283203c-18.41499 3.714384-32.33364 11.297498-40.76172 22.416015-8.42807 11.118517-10.32955 23.274108-11.58398 33.03125-2.36541 18.398479-1.15614 28.703619-16.29883 40.136719-14.63409-17.21347-34.3404-25.620093-48.37109-33.193359-8.31955-4.490595-14.70467-8.707683-17.83203-12.072266-3.12737-3.364583-3.92114-4.676504-3.58985-9.949219z" fill="#861313"/><path d="m238.99446 141.07128c4.22871-.42758 8.50454-.61257 12.78822-.54451 14.21321.22686 28.6088 3.24613 42.40402 9.35445 4.32819 1.91626 8.48447 4.0725 12.43482 6.46172 10.56479-41.42833-32.37677-84.102763-2.75442-110.220594-63.05236 12.717936-16.79486 62.560034-64.87264 94.948934zm-73.79124 39.56879c15.18967-18.54746 35.9257-31.32693 58.60157-36.92302-21.8207-36.7703-82.37519-36.58356-79.8987-75.998333-35.56793 53.541553 32.27293 56.135843 21.29713 112.921353zm153.85398-15.51512c18.63041 15.20098 31.44394 35.99542 37.05749 58.73581 36.917-21.7456 36.69623-82.43258 76.16389-79.9526-11.71926-7.78374-20.9952-10.60229-28.93296-10.38894-28.39982.76049-39.68103 40.41392-84.28842 31.60573zm-71.0102-8.3457c-20.64266.40141-40.60294 7.69647-56.63817 20.61643l16.28044 31.55032-34.76861-11.48102c-3.12049 4.59346-5.87883 9.5185-8.20785 14.78038-7.61447 17.19752-9.60055 35.4195-6.78897 52.65716l39.07585 1.85431-29.66903 26.45074c9.42254 17.9951 24.79459 33.03028 44.85783 41.91177 2.68505 1.19024 5.39802 2.24611 8.1267 3.1641l21.40533-33.37757 7.93646 38.23281c23.82249.0654 46.8919-9.06387 64.21861-25.46993l-16.74205-32.39588 33.51378 11.04558c1.58991-2.7819 3.06464-5.67724 4.38927-8.67206 8.50454-19.20628 9.99759-39.7023 5.61966-58.65727l-32.83314-1.52708 24.16019-21.56933c-9.45046-17.62161-24.63926-32.34788-44.39359-41.09412-1.19549-.52968-2.39534-1.02619-3.59955-1.5009l-22.57813 35.17778-8.64416-41.66743c-.43631-.0141-.87262-.0202-1.30893-.028-1.13441-.0173-2.27754-.0211-3.40845 0zm-107.05807 34.8776c-36.34631.63265-71.97619 30.40806-94.871083 4.44511 12.716667 63.03256 62.535333 16.84149 94.926053 64.84586-1.87962-18.30051.81503-37.31133 8.77855-55.30206 1.90056-4.28891 4.04633-8.38061 6.40938-12.29778-5.08039-1.28275-10.15902-1.77839-15.24465-1.69026zm217.71831 47.0951c1.92325 18.36596-.75656 37.45793-8.75236 55.51934l-.16403.32721c-1.87002 4.18507-3.98787 8.19649-6.30031 12.02466 41.47032 10.68431 84.21379-32.40636 110.36003-2.75398-12.74286-63.16693-62.75873-16.61459-95.14333-65.11897zm-214.99312 37.46578c-36.75731 21.82763-36.58715 82.34881-75.998966 79.87058 53.597976 35.60537 56.128566-32.39414 113.086126-21.24123-18.62517-15.17044-31.44045-35.923-37.08629-58.62935zm191.15929 42.67618c-15.1888 18.72634-35.98329 31.62361-58.76562 37.27817 21.7666 36.87934 82.45983 36.65333 79.98072 76.10762 35.66129-53.68313-32.63767-56.15961-21.2151-113.38579zm-141.52824 24.79016c-10.51244 41.41088 32.3628 84.05891 2.75398 110.16757 63.09468-12.72886 16.74991-62.64488 64.9839-95.03466-18.35989 1.92324-37.43359-.78536-55.4933-8.78027-4.26187-1.88659-8.35096-4.0088-12.24458-6.35264z" fill="#ff8066" stroke-width="36"/></svg>