<svg height="500" viewBox="0 0 500 500" width="500" xmlns="http://www.w3.org/2000/svg" xmlns:xlink="http://www.w3.org/1999/xlink"><filter id="a" color-interpolation-filters="sRGB" height="1.095997" width="1.096003" x="-.048001" y="-.047999"><feGaussianBlur stdDeviation="7.6175916"/></filter><filter id="b" color-interpolation-filters="sRGB" height="1.006" width="1.006" x="-.003" y="-.003"><feGaussianBlur stdDeviation=".46604417"/></filter><g transform="translate(-1000 -500)"><circle cx="1250" cy="750" fill="#8f29a3" r="250"/><path d="m1250.0521 500.09326-.061 248.75004-15.9199-248.2399a249.99917 250.18666 0 0 0 -31.6776 4.06945l45.0428 231.17052c-.102.0363-.2268.0547-.3789.0547l2.377 12.94521-.25-.53361-.5352-1.34279-3.3574-10.61339c-.1814.0698-.3456.12506-.5117.12506l-.1211.0782-83.1951-220.24831a249.99917 250.18666 0 0 0 -14.7401 6.13348l96.9 214.60543-.2187.11532 2.3047 4.43886 2.3437 5.21678.055.0488.416.7486.7461 1.26658v.0314l-.7461-1.29782-.4707-.79746-5.5273-9.21c-.1841.12151-.3808.23754-.5664.39678l-123.4077-200.53639a249.99917 250.18666 0 0 0 -34.1776 25.40763l164.5483 186.40079-.3984-.58052.832 1.02616v.0508l-.3262-.32448-.094-.12903v-.006-.002l-176.1809-175.46484a249.99917 250.18666 0 0 0 -21.0273 24.05115l186.5306 143.42536-.1425.18569 10.4687 8.26398-2.0957-1.07698-9.4082-5.66242c-.1395.18156-.2273.33335-.3066.47301l-208.0031-109.74966a249.99917 250.18666 0 0 0 -7 14.40723l214.5266 96.34337c-.074.17741-.1655.3791-.2578.59419l12.1758 4.73596-.037-.0253.5254.23653-.4863-.21109.3574.18179.2129.0802-.2129-.0508v-.0295l-12.8066-4.08117c-.056.14944-.1255.33501-.1758.5082l-224.9661-68.33223a249.99917 250.18666 0 0 0 -8.7656 41.69908l246.1613 30.77687h-1.2363l-246.3644-14.82161a249.99917 250.18666 0 0 0 -.4219 14.51082 249.99917 250.18666 0 0 0 .6113 17.47203l234.4934-16.18786h-.027l.3066-.0234-.2773.0234 12.9687-.73492-7.6699 1.8549-.3028.0508-4.789.9382.07.23845-228.2004 55.91086a249.99917 250.18666 0 0 0 4.2871 15.37279l224.173-70.26921c.093.36314.1859.69573.2793.95971l11.9648-4.46623-6.7285 3.52803-218.2141 100.03556a249.99917 250.18666 0 0 0 21.0155 36.99246l204.0072-139.70972-2.9414 2.38851-191.599 150.2058a249.99917 250.18666 0 0 0 21.2792 23.80097l164.7143-167.43742c.2793.26396.5666.50585.8359.80333l7.6309-8.62753v-.0314l.7578-.86587.1855-.23653.7754-.84633.02-.0645.057-.0272-.023.15832-.1035.11531.051-.18179-.068.18179-1.3203 1.73762.6133-1.0457-.1856.20916-.7578.89715-2.5996 3.67852-4.2753 5.57643.287.1818-133.9214 192.92518a249.99917 250.18666 0 0 0 13.3768 8.68037l121.3629-200.99764c.1115.0698.2562.1641.4043.23263l6.9082-11.76855-.2793.71929-100.1481 226.51466a249.99917 250.18666 0 0 0 40.1346 13.79743l59.6931-236.78211-1.5742 9.22563.2364.0566-42.7675 230.89101a249.99917 250.18666 0 0 0 31.6386 3.76263l12.9316-234.50119c.2415.0238.455.0234.6602.0234h.031v-12.36276l.055-.87175.3809 3.35211.6328 9.85892c.1939 0 .3385-.0234.5058-.0234l27.248 233.23258a249.99917 250.18666 0 0 0 15.7831-2.3455l-42.1484-231.0161c.254-.028.4739-.0916.707-.11531l-2.0644-10.71502-.055-.13878-.3203-1.79235.018.0295.3575 1.90182 74.3923 234.18055a249.99917 250.18666 0 0 0 39.205-16.19959l-111.1503-215.75097 4.1406 6.7179.2696-.18569 120.6715 201.44522a249.99917 250.18666 0 0 0 26.2108-18.10533l-145.5071-184.32505c.254-.18717.4204-.39029.6562-.60397l-8.457-9.554 3.3672 3.03156 5.8437 5.83834.2872-.30686 174.8256 156.82795a249.99917 250.18666 0 0 0 10.2715-12.18293l-184.478-145.35845c.1296-.15783.305-.33279.4082-.48083l-9.3632-7.21437 211.5852 126.78601a249.99917 250.18666 0 0 0 18.7245-38.19257l-229.6555-89.16613 11.0274 3.36579.012-.18569 223.9289 70.91228a249.99917 250.18666 0 0 0 7.6836-30.99187l-231.1887-41.80463c0-.16199.037-.30149.037-.44955l-7.3671-.90693-4.5508-.79941 12.0312.70755c.03-.32965.029-.62841.029-.96361l235.009 1.78454a249.99917 250.18666 0 0 0 .011-2.19892 249.99917 250.18666 0 0 0 -.3809-13.81303l-234.6691 13.37131v-.33226l-11.7754.81114-2.207.14075 2.1641-.14075h.043l242.6422-45.60435a249.99917 250.18666 0 0 0 -11.2772-41.04821l-231.0032 85.65376-.2598.0684 10.5078-4.79069c-.1716-.35894-.395-.80876-.6601-1.20402l208.1651-109.51534a249.99917 250.18666 0 0 0 -7.877-13.90491l-200.7337 122.63837-.2109-.32833-5.6211 3.9033-4.707 2.86542 9.6699-7.59747-.1446-.20719 183.392-147.45376a249.99917 250.18666 0 0 0 -29.3651-30.85701l-161.2514 182.96656-2.3184 2.37091 151.2905-195.53064a249.99917 250.18666 0 0 0 -26.4154-17.96062l-119.2496 202.94829-.094-.0664-7.0644 11.68841 5.539-12.45265c-.2748-.15364-.5655-.24794-.8711-.35962l83.404-220.18189a249.99917 250.18666 0 0 0 -15.121-5.19332l-69.2811 225.07807c-.1088-.0378-.2229-.0651-.3808-.11531l-1.8809 7.53882-1.1289 3.69807 2.1055-11.46558c-.2011-.0197-.4082-.0561-.6133-.0743l40.1268-232.08917a249.99917 250.18666 0 0 0 -42.4354-3.64138zm-1.9453 235.66215 1.0117 8.77021v.043l.8711 4.45646v.46128l.029-.16807.023.62741v.1036l-.057-.1036v-.43977l-.066.30686-.2383-.49451-.5625-4.74964zm-9.3652 5.00568 7.0859 6.37391-.025-.0197zm25.7675 6.02013-11.8261 2.9006h-.057zm-12.1504.11531-1.6269 2.78332-.3496.40069.1113-.44954-.092.20719-.02.18179-.051.10553v-.0253l.051-.0802v-.16221l.02-.0197v-.10556l.012-.0234.082-.12118v-.0234l.033-.0272.061-.1505v.0197l-.061.13096-.033.0508zm-6.5292.23849 3.3242 2.54682.3633.56682-.4493-.16807.2012.13878h-.022l-.2188-.13878h.037zm5.0331.24627-.2968 1.58908.2968-.84047-.3339 1.37603-.1016.1505.1387-.68606.2617-1.56758zm-.582.38505-.086 1.71808-.057.19351-.1172-.46715zm3.1445.7447-2.2754 1.58908h-.023l-.4121.27757-.2871.11728.2129-.27557.074-.0215.8867-.71342zm-4.0429.57856.1348.14075v.0469l-.084-.1251zm3.8633.31665h.029l-.1738.0802zm-3.5254.18179.1835.3577v.0392l-.1835-.35376zm.416.0938.02.26385v.0392l.039.0958.047.11728-.047.0215-.039-.1192.039-.0197-.039-.0605v-.0352l-.057-.26192zm2.2207.0644-.07.0272-1.0156.30686.1562-.0605zm-5.6387.0665 2.3692.40655.3457.21498.029.0606-.3124.0644zm2.1641.31271h.053l.094.0314zm.7265.19155h.02v.0196zm-.164.0606h.02l.074.0802zm.2148.1818h.024l-.024.0314zm-.3359.16808h.057l.2461.0352-.8125.32836zm-.3887.0352h.2168l-.9316.47886.2637-.0527-.025.0272-.2383.0253-2.0253.39287v.0234l-5.2422.93428 5.2422-.95774zm1.7774.0234.5078.043.7519.2228-.8457-.0841zm-.2188.16418.035.0178.1113.22088.3282.16611 1.4394 1.4034-1.3496-1.00858-.2344-.2971-.1855-.26385-.018-.0333-.092-.18766h-.035zm-1.0625.0802-.25.27364h-.029l-2.7812 1.26461 2.2988-1.41316zm1.5703.0997.1485.0253.031.0314zm.2207.0253 1.9356.60398-1.9063-.57074zm-1.1796.17201.031.1251.022-.0978-.022.13092v.006l.076.23066.125 1.89594-.2324-1.35256.031-.77402-.088.50819v-.0919l-.031-.18569.031.14272v-.26385zm.7226.0919.061.0664.088.14661-.037-.0314zm-1.1406.1818-.2442.52578-3.9492 12.85138 3.9219-12.85138h.027l.084-.28732.01-.0117zm-.088.10552-.065.11339.041-.0978zm1.4648.0802.033.0234.1152.18962-.092-.0919zm-.4375.21306.023.0295.029.22669zm-1.7304.26581v.0295l.051-.0295zm2.2929 1.35257 4.8828 10.7893-4.8828-10.73457z" fill="#aa40bf"/></g><g fill="#eed9f2" opacity=".75" stroke-width="36" transform="matrix(-1 0 0 1 499.44669 0)"><path d="m287.69336 63.275391c1.46873 1.320318 2.86029 2.748279 4.37681 4.00191 9.05265 4.877009 17.64168 10.607201 25.64467 17.062543.81728.682407 1.85804 1.514133 2.74444 2.274157 12.16093 10.253609 22.85636 22.245669 31.63056 35.514909.78328 1.18276 1.67583 2.57448 2.47852 3.85156 2.82268 4.53869 5.42745 9.21201 7.80664 13.99805.62338 1.27472 1.34198 2.76398 1.97656 4.13281 4.47709 9.70723 8.01743 19.84543 10.55274 30.23047.34414 1.44834.73426 3.12045 1.0621 4.66263.5818 2.7407 1.09715 5.50049 1.52783 8.20044 1.25356 7.75541 1.95337 15.8329 2.08636 23.69551.0398 2.40026.0321 4.80128-.0259 7.20118-.04 1.38125-.10251 2.99862-.17383 4.46875-.62975 11.91162-2.50591 23.76016-5.66797 35.26367-.36482 1.28958-.79103 2.81358-1.21154 4.18387-5.38303 17.79952-13.79479 34.67455-24.76307 49.69113-.96984 1.31424-2.07136 2.79841-3.13236 4.14954-5.66466 7.27606-11.93539 14.07955-18.7192 20.32507-13.36071 12.31449-28.91097 22.54117-45.622 29.86999-2.19777.97238-4.43445 1.89698-6.60549 2.73804-4.04818 1.58699-8.31036 3.0428-12.37993 4.27283-11.39861 3.43455-23.16952 5.62026-35.03907 6.5293-2.40451.1868-4.99685.32696-7.47859.4064-3.87817.13311-8.00784.11538-11.90724-.0323-4.8281-.1894-9.53972-.57062-14.34463-1.16712-2.24294-.28079-4.72926-.63895-6.95585-1.01894-5.88157-.98229-11.67492-2.28128-17.4451-3.90305-3.09348-.8772-6.36806-1.89429-9.48418-2.98348-3.15888-1.09191-6.41961-2.35521-9.41566-3.60234-23.00326-9.61742-43.78204-24.48603-60.316905-43.14688-6.676763-7.52411-12.673107-15.65131-17.894028-24.24961-1.210056-1.99853-2.477042-4.17986-3.631308-6.29418-.620114-1.45714-1.912259-2.42933-2.917655-3.6085-1.720405-1.84587-3.440084-3.69242-5.160022-5.53872.09222 3.68307.02072 7.37074.185503 11.051 3.964906 15.69607 10.035493 30.8545 17.833736 45.03909 14.498531 26.37736 35.269449 49.26709 60.103339 66.27199 22.55522 15.52391 48.4672 26.13853 75.43803 30.86913 31.05053 5.49142 63.44103 3.35679 93.45165-6.35526 27.96484-8.97668 53.76913-24.5261 74.86762-44.94817 20.41167-19.67736 36.41866-43.90093 46.45369-70.42134 10.08755-26.48401 14.12451-55.21053 11.97345-83.45709-1.78821-23.99586-8.1077-47.64845-18.58796-69.31187-11.95277-24.76005-29.25123-46.91613-50.37405-64.516803-21.79446-18.197255-47.64276-31.542545-75.14188-38.630835-1.83721-.389237-3.72756-.12512-5.59049-.226736-1.99523-.01835-3.99046-.03632-5.98568-.05451 1.25911 1.170573 2.51822 2.341146 3.77734 3.511719z" filter="url(#a)"/><path d="m294.03756 63.794285c53.33055 28.768637 89.57257 85.145015 89.57257 149.987645 0 94.06091-76.24991 170.31085-170.30925 170.31085-64.8178 0-121.17418-36.21083-149.953211-89.50297 20.982433 81.74715 95.088961 142.06384 183.434221 142.06384 104.68812 0 189.37709-84.69218 189.37709-189.37951 0-88.36527-60.34386-162.508629-142.12142-183.479855z" filter="url(#b)"/></g><path d="m322.93107 62.416016c7.38894-.118735 17.36386 3.232949 23.24023 10.197265s7.84605 14.874291 8.85156 23.46875c0 0 3.14047 26.847919 4.71094 40.271489 1.41991 12.13646 1.32311 21.82558 3.125 28.43554.79433 2.9139 2.02658 6.02426 3.53906 9.28906 5.8075-7.67553 12.6954-14.47799 22.15039-19.90429 7.12848-4.09109 15.87599-6.85642 26.64844-3.41406 4.94685 1.58077 10.19731 4.92693 13.57422 8.45117s5.3052 6.66571 7.49414 9.99609l7.16406 10.90039-8.12695 10.20313c-23.95302 30.06864-29.14737 56.86098-33.72852 77.61914l-.002.002c-.85609 3.87665-1.0517 9.11472-2.35938 16.00195-.14542 25.29437-12.57296 44.80258-27.38085 57.18946-16.43375 13.7469-37.1809 18.27272-56.33399 14.92382l-.32422-.0566-.32226-.0684c-18.14766-3.86229-32.31437-11.4265-44.54297-21.9121l-.11328-.0977-.11133-.0996c-8.98945-7.97001-22.93182-19.30886-34.83984-28.15234-16.64129-12.35861-34.42364-24.90925-50.55469-34.45118l-.81641-.48437-.76172-.56641c-4.50682-3.35245-14.06316-7.93412-23.21875-14.32617-4.57779-3.19602-9.4848-6.8781-13.39843-13.64062-3.91364-6.76252-4.84604-18.00733-.99415-26.05274 3.87107-8.08542 12.2249-13.62926 19.32227-15.33398 6.26769-1.50545 11.75172-1.04372 16.90039-.12305l-5.73437-7.18555-.36719-.5332c-5.31681-7.74253-12.54158-16.06838-18.05664-26.33789-2.75754-5.13475-5.37361-11.05849-5.54102-18.79883-.1674-7.74034 3.61694-16.91403 9.66406-22.57031h.002c4.92513-4.6068 12.34477-7.68945 19.04883-7.73242 6.70405-.043 12.13137 2.12146 16.5664 4.57226 8.87007 4.90161 15.20385 11.50907 21.51758 18.23828l.38477.41016.35937.43359c.0683.0826 5.52684 5.55932 10.69727 10.58985-2.61008-5.25258-5.1606-10.5192-7.92188-15.75l.17188.31836c-5.04649-9.11169-9.46979-18.47801-10.91016-29.35938-.72018-5.44068-.67997-11.574329 1.80859-17.974607 2.48857-6.400278 7.97763-12.456696 14.33985-15.675781 6.62817-3.353659 15.13051-4.005747 21.80859-2.007813 6.67808 1.997935 11.52947 5.72298 15.44336 9.583985 7.82778 7.722009 12.79843 16.81914 17.16211 25.753906l.30078.61719.25391.63867c2.68977 6.77171 5.90826 13.30074 9.40234 19.82617-1.06508-9.73509-1.82023-20.12204-.63867-30.478514.85809-7.521395 2.82476-14.851584 7.56055-21.667969 4.73578-6.816385 13.90823-13.015438 23.88476-13.175781z" fill="#6a1f7a"/><path d="m212.31957 210.16671-21.85999-27.39249c-11.94191-17.39024-27.99825-33.59485-16.47568-44.37268 8.46293-7.91593 19.93584 1.69895 31.7102 14.24815 4.12547 4.98832 23.11937 22.69822 35.12489 33.56809 6.28747 5.69271 11.56966 13.10848 19.31565 16.56377 4.1147 1.83547 10.02316 4.73703 13.40194 1.75651 1.08378-.95603.29632-2.92593-.0227-4.33547-1.60732-7.10343-6.14642-13.20613-9.30285-19.7696-8.50174-17.67843-16.60826-35.11838-25.95179-52.81821-8.93264-16.12832-13.7735-32.463293-2.38155-38.227265 11.67288-5.906128 22.24728 9.063076 30.11304 25.168455 6.70262 16.87438 15.6847 31.67744 24.71101 46.85238 4.26784 7.17508 7.52791 15.43491 13.88957 20.841 1.62214 1.37849 3.80739 3.34298 5.81598 2.63789 1.4931-.52415 1.7797-2.6943 2.14907-4.23304 2.21802-9.23994.32278-19.00904.0397-28.50724-.52603-17.64043-4.89967-38.19713-3.22836-52.846304 1.22971-10.778778 6.04547-18.760974 13.85163-18.886435 7.52175-.120869 12.35614 4.351453 13.92487 17.76 0 0 3.14098 26.847079 4.71145 40.270619 1.21198 10.35922.8928 21.01499 3.63591 31.07768 2.19205 8.0413 6.04539 15.59151 10.09984 22.87361 3.09392 5.55691 10.77758 15.7451 10.77758 15.7451 10.36944-18.03329 16.85367-30.1564 31.13904-38.35489 3.57146-2.04969 8.28714-3.13342 12.20957-1.88 5.09579 1.62837 7.21841 4.664 11.5064 11.188-26.52397 33.296-32.73116 64.58-37.22797 84.956-1.44159 6.528-1.48399 12.6064-2.69095 18.0904.49625 21.2776-8.2837 34.5197-21.02373 45.1768-11.02209 9.22003-28.9728 13.2208-41.6832 10.9984-15.78002-3.3584-25.93202-8.8464-36.57362-17.9712-9.5376-8.456-23.64552-19.92413-36.04959-29.136-16.87502-12.53219-35.04514-25.391-52.12191-35.49234-13.75359-10.23077-38.62568-18.21489-32.11922-31.80486 5.89028-12.30292 29.65712-3.46309 40.66186 4.59628 4.47847 3.27986 15.69793 12.32408 24.25625 10.32849 2.20713-.51465 4.39083-2.88982 4.43225-5.1558.18331-10.02611-12.50971-15.67587-18.7646-23.5138z" fill="#eed9f2" stroke-width="36"/></svg>