<svg height="500" viewBox="0 0 500 500" width="500" xmlns="http://www.w3.org/2000/svg" xmlns:xlink="http://www.w3.org/1999/xlink"><linearGradient id="a"><stop offset="0" stop-color="#ff851a"/><stop offset=".42441937" stop-color="#f87000"/><stop offset=".86367416" stop-color="#f26900"/><stop offset="1" stop-color="#e55f00"/></linearGradient><radialGradient id="b" cx="1362.7291" cy="216.11429" gradientTransform="matrix(1.0000001 -.0000059 .0000001 1.0000003 -112.72927 33.893757)" gradientUnits="userSpaceOnUse" r="250" xlink:href="#a"/><radialGradient id="c" cx="1012.7292" cy="16.112209" gradientTransform="matrix(.19999997 -.00000014 .00000007 .2 697.45421 46.777699)" gradientUnits="userSpaceOnUse" r="250" xlink:href="#a"/><filter id="d" color-interpolation-filters="sRGB" height="1.021237" width="1.160102" x="-.080051" y="-.010619"><feGaussianBlur stdDeviation=".80585233"/></filter><g transform="translate(-1000)"><path d="m1500 250a250 250 0 0 1 -250 250 250 250 0 0 1 -250-250 250 250 0 0 1 250-250 250 250 0 0 1 250 250z" fill="url(#b)" stroke-linecap="round" stroke-linejoin="round" stroke-width="1.002"/><path d="m1309.2298 33.82789c128.5196 30.706851 207.8974 167.48127 169.5927 291.56949-31.3771 95.69524-112.8693 162.03793-212.5543 174.60263 153.1796-8.09118 266.0956-163.0043 218.7012-309.92978-36.4562-114.666588-154.6038-191.5214848-270.6514-169.822657-18.8526 4.215647-38.4387 10.498641-55.8829 18.694487-112.5353 47.459213-168.47522 196.206-99.9632 307.85319 57.6978 93.63045 168.5136 141.8489 267.9993 100.77239-134.92 68.97589-303.283-51.46877-311.488-201.30723-4.4167-117.68321 76.8182-219.674136 190.654-246.26040176-89.0147 9.18391126-152.6601 79.39239576-187.7408 157.21169176-38.45522 102.70317 5.2337 231.75078 109.038 294.08388 114.5107 66.1048 260.3537 29.37245 323.6836-83.60152 42.2104-77.69758 34.3514-177.62383-23.1776-249.88923-57.5404-72.257811-157.5429-102.460489-246.4118-71.877168-81.7429 30.682061-131.1298 101.133078-134.0478 190.176958.6692 92.68536 61.7912 168.55972 147.5399 198.52472 128.5549 37.82014 266.7725-70.33038 233.6823-209.88949-14.7104-64.39775-57.8855-122.14991-125.7378-141.121386-71.391-15.467036-138.9716 1.205-181.2869 64.641366-18.8995 29.2286-28.9384 85.21395-26.105 97.65297m0 0c13.5324-50.18833 30.6277-97.66354 72.2125-128.94941 53.182-38.308183 124.4576-37.093813 181.7444-.48035 50.1457 36.48017 75.4845 90.37713 72.3557 150.91678-6.6674 64.04407-38.4038 109.83277-91.6401 141.00844-63.9019 34.56125-135.3795 4.83213-189.1258-35.28385-78.8706-65.48566-79.7477-186.67235-8.9744-256.76104 63.7369-55.941605 167.0207-64.891564 238.7167-6.65053 78.8163 58.35315 90.3045 169.04089 40.972 246.62443-35.2274 56.41892-88.4571 87.60135-152.5581 93.63158-81.9488 2.18264-160.666-41.91503-196.8695-120.9383-36.2055-79.02511-22.5771-164.33167 26.8727-227.66064 49.4316-63.30896 138.3491-86.746364 220.4504-67.54202" fill="#c50"/></g><path d="m-150 0h50v50h-50z" fill="#c50"/><path d="m900 0h50v50h-50z" fill="url(#c)" transform="translate(-1000)"/><path d="m-150 50h50v50h-50z" fill="#ffa348"/><path d="m-100 50h50v50h-50z" fill="#994100"/><path d="m215.99347 137.04127c-7.13979-32.24713-44.69614-23.70558-55.11839-60.240998 15.47422 18.35756 34.64627 12.042947 40.34348 6.958037-28.9399-2.604145-48.74504-28.010862-26.35788-46.687457-4.72049 11.012067 9.79469 38.854391 22.61893 22.084749 4.75864-6.22298 17.7637-25.431891-3.72802-53.9321713l.00083-.0002491c33.68144 3.3444625 15.87595 46.8938904 50.79049 49.8285444-13.33514-10.742038-25.971-32.38388-6.88003-55.051725l.00052.00105949c-9.16599 33.69461051 26.91397 26.25645451 25.55778 71.77498351-.0562.722976-.094 1.447368-.0907 2.17638.0398-.739117.0701-1.46404.0911-2.176488 1.09119-13.931449 12.34843-26.965925-1.0787-49.056132 50.71746 32.188197.17381 60.324938 22.65555 93.226617 16.97966 38.82035-24.67062 62.60494-68.80496 21.09485zm-35.03317-111.471282c2.86946 15.151038 15.5538 20.771316 17.81311 5.124773 2.34502 27.2833-22.85578 38.026933-17.81311-5.124773zm-25.68762 39.058809c-8.27828 14.675711 3.98671 34.127893 25.12125 46.644203-33.81894-2.51306-48.53863-37.761819-25.12125-46.644203zm146.58136-15.844093c-.21596 18.457973 39.47649 7.463301 17.71385 48.016846 5.45977-24.68664-32.98737-13.837508-17.71373-48.016547z" fill="#ffa348" opacity=".6"/><path d="m231.95395 187.11523c1.95205.2172 4.03066.68478 6.25391 1.48047l.88867.31836.84961.40821 30.8457 14.84375c2.14211-1.28452 4.34695-2.57182 6.35352-3.8418l8.27539-5.23828 8.89062 4.10156 37.32031 17.2168 2.83399 4.38281c12.16091 18.80343 15.22924 40.57962 17.68555 59.47656l3.86132.89844 162.7793 37.88867v180.94922l-22.59961-5.97461c-87.06633-23.01754-136.36785-43.97176-194.31641-83.74219l-10.66406-7.31836 2.30078-8.09961c-14.80486-3.08024-27.63789-5.89454-42.09179-10.01171l-3.01758-.85938-20.5957 35.02539-5.52149 39.00391-15.10937.5c-11.88981.3937-23.15211-2.97145-34.84766-8.07227s-23.37029-11.24581-31.07813-24.20898l-2.52929-4.25196v-11.69531l23.83008-27.80273 10.93164-33.27539c-2.50976-2.0606-4.88115-4.22578-6.96289-6.76172-3.05193-3.7178-6.4344-7.97895-6.80274-16.19922-.28763-5.72558.77732-9.47915 2.56836-13.86719 1.19242-2.92144 2.77455-6.14813 5.66406-9.25l-1.16211-5.18945c-2.05846-9.18394.32019-15.33034 3.20899-20.95117 1.15959-2.25626 2.47958-4.61267 4.2168-6.85352l-2.74415-1.91601.10352-9.51172c.0998-9.18565 2.81553-16.14419 7.29297-23.15821 2.23872-3.507 4.94032-7.01874 9.61523-10.13672 1.78353-1.18953 4.19272-2.17851 6.80078-2.9375-.0158-.17159-.0934-.33183-.10546-.5039-.63477-9.02281 3.1787-16.38108 7.39062-21.39258s9.08717-8.41105 14.63867-10.75977c4.16363-1.76153 8.89189-3.36446 14.74805-2.71289z" fill="#994100"/><path d="m232.14184 205.54299 21.51 10.35c-11.52 4.86-23.4 12.33-34.47 14.04-16.29-11.79 4.41-27.45 12.96-24.39zm54.63 9.99 32.58 15.03c10.71 16.56 13.32 41.4 16.38 62.73-18.54 27.09-27.45 56.16-35.55 84.6-16.11-3.33-28.98-6.12-43.83-10.35 21.96-34.83 37.98-70.56 48.24-107.01 0 0-5.04-9.45-7.56-14.22-10.71 6.57-22.41 11.16-32.94 8.91-9-3.69-19.35-7.11-24.93-14.94 15.84-6.21 33.39-15.75 47.61-24.75zm-83.34 23.94c9.72 5.22 20.7 10.08 28.71 17.01 4.77 4.23 10.89 7.92 18.45 11.07-.99 6.57.09 17.64-7.29 16.92-18.45-5.58-36.45-13.5-53.73-25.56.09-8.28 7.2-21.69 13.86-19.44zm81.18 30.78c-10.17 31.32-24.84 62.1-44.37 92.34-4.23-1.44-8.37-2.97-12.15-4.5 6.57-5.58 10.53-14.31 10.8-22.77 14.94-3.69 18.72-26.46 15.48-37.44 8.55-6.3 12.24-16.29 12.78-25.83 6.48.63 12.24-.09 17.46-1.8zm-92.97 9.36c12.24 7.29 24.84 12.87 37.44 17.28l8.1 3.96c3.96 4.14 4.05 14.04-.9 18.27-8.73 3.15-45.09-19.08-51.93-25.11-1.17-5.22 3.15-13.41 7.29-14.4zm160.29 19.08 148.86 34.65v143.28c-86.13-22.77-132.21-42.39-188.73-81.18 9.72-34.2 18.45-67.32 39.87-96.75zm-169.02 15.21c12.24 9.18 24.48 14.58 38.61 19.26.36 6.03-2.25 16.29-10.89 14.4-17.91-3.87-32.67-15.75-32.94-22.14-.18-3.33 1.8-9.45 5.22-11.52zm6.75 43.74c12.87 7.38 28.35 14.31 42.03 19.26l-16.83 28.62-35.37-16.92zm-19.98 44.19 39.69 18.99-2.79 19.71c-13.59.45-41.94-10.17-49.86-23.49v-.09z" fill="#ffa348" stroke-width="36"/><g opacity=".85" stroke-width="1.53564" transform="matrix(-.65119392 0 0 .65119392 823.16845 -190.32691)"><path d="m560.68414 229.95569c21.8835 7.605 18.3564 37.971 21.5775 56.7666 1.6875 51.867-4.3146 104.0265-15.732 154.5894-6.0633 19.0512-14.04 44.1234 4.293 59.2362 18.396 17.568 51.3 2.4552 52.083-22.3506.198-37.0368-13.455-72.531-14.9337-109.5165-1.791-45.963-5.607-92.1663-1.7505-138.1068z" fill="#ffa348" opacity="1"/><path d="m589.27984 315.82739c3.8268 11.97 1.7613 29.9853 2.8404 43.8993-.9594 40.428-9.576 78.6276-12.951 118.08-.531 6.201 11.934 25.7022-1.1466 18.6372-15.3693-8.5986-9.3213-28.4427-6.4233-41.814 12.3273-45.2403 16.0254-92.124 17.6796-138.8034z" fill="#fff" filter="url(#d)" opacity="1"/></g><path d="m456.99887-18-11.41016 25.3808594-86.38867 192.1679706-127.14648-54.63086 73.4375-162.91797h63.57422 21.77734z" fill="#994100"/><g fill="#ffa348"><path d="m429.17122 0-79.12938 176.02299-94.05-40.41 61.12938-135.61299h45.99l-53.29938 119.56599 14.76 6.507 56.17938-126.07299z" stroke-width="36"/><path d="m55.995629 41.90994 6.96505 21.21913 14.33506-15.95484 10.85253 9.71868-15.4689 17.25066 22.59594 4.69737-2.91561 14.25407-21.05715-4.37341 6.96506 21.13814-13.93011 4.53538-7.45099-22.67693-16.52177 18.38451-10.85252-9.71868 15.4689-17.16968-22.67693-4.77835 2.91561-14.25407 24.29671 5.10231-7.451-22.8389z" opacity=".85"/><path d="m64.049989 160.18072 14.0111 4.04945-7.02985 24.3615 23.77838-5.8798 3.49872 14.15688-25.51964 6.31714 18.24683 18.96763-10.50428 10.04264-16.9915-17.63941-7.02983 24.3615-14.01111-4.04945 7.51579-26.04607-27.17992 6.72209-3.56352-14.15688 25.50345-6.30905-18.21444-18.91094 10.51238-10.10743 19.44546 20.21487z" opacity=".85"/><path d="m151.06034 183.56346 7.68412 2.22084-3.85538 13.3606 13.04079-3.22467 1.91881 7.76407-13.99576 3.46451 10.00713 10.40243-5.76087 5.5077-9.31866-9.674-3.85538 13.3606-7.68413-2.22085 4.12189-14.28446-14.9063 3.6866-1.95434-7.76407 13.98687-3.46007-9.98935-10.37134 5.76531-5.54323 10.66448 11.08646z" opacity=".85"/><path d="m215.99347 137.04127c-7.13979-32.24713-44.69614-23.70558-55.11839-60.240998 15.47422 18.35756 34.64627 12.042947 40.34348 6.958037-28.9399-2.604145-48.74504-28.010862-26.35788-46.687457-4.72049 11.012067 9.79469 38.854391 22.61893 22.084749 4.75864-6.22298 17.7637-25.431891-3.72802-53.9321713l.00083-.0002491c33.68144 3.3444625 15.87595 46.8938904 50.79049 49.8285444-13.33514-10.742038-25.971-32.38388-6.88003-55.051725l.00052.00105949c-9.16599 33.69461051 26.91397 26.25645451 25.55778 71.77498351-.0562.722976-.094 1.447368-.0907 2.17638.0398-.739117.0701-1.46404.0911-2.176488 1.09119-13.931449 12.34843-26.965925-1.0787-49.056132 50.71746 32.188197.17381 60.324938 22.65555 93.226617 16.97966 38.82035-24.67062 62.60494-68.80496 21.09485zm-35.03317-111.471282c2.86946 15.151038 15.5538 20.771316 17.81311 5.124773 2.34502 27.2833-22.85578 38.026933-17.81311-5.124773zm-25.68762 39.058809c-8.27828 14.675711 3.98671 34.127893 25.12125 46.644203-33.81894-2.51306-48.53863-37.761819-25.12125-46.644203zm146.58136-15.844093c-.21596 18.457973 39.47649 7.463301 17.71385 48.016846 5.45977-24.68664-32.98737-13.837508-17.71373-48.016547z" opacity=".6"/></g><g transform="matrix(-1 0 0 1 500.79184 0)"><path d="m340.29883 93.386719-16.07227 6.962891-265.623044 115.04492 24.882812 58.47266 283.917972-122.30664z" fill="#994100"/><path d="m331.38 116.86599-249.21 107.937 10.8 25.38 250.29-107.82z" fill="#ffa348" stroke-width="36"/></g><path d="m41.475139 367.05839-31.21609 59.77785 25.81014 1.97508 1.40961 47.44287 33.45288-70.54491-25.42019 2.27137z" fill="#ffa348" opacity=".85"/><path d="m102.58738 303.8082-14.704731 65.81493 25.443611-4.76312 13.62415 45.46641 14.08258-76.79427-23.96934 8.7645z" fill="#ffa348" opacity=".85"/></svg>