<svg height="500" viewBox="0 0 500.00009 500" width="500.00009" xmlns="http://www.w3.org/2000/svg" xmlns:xlink="http://www.w3.org/1999/xlink"><radialGradient id="a" cx="1249.9998" cy="1250.0005" gradientTransform="matrix(0 -1 1 0 -.0005 2499.9997)" gradientUnits="userSpaceOnUse" r="250"><stop offset="0" stop-color="#393"/><stop offset=".7379747" stop-color="#393" stop-opacity=".9"/><stop offset="1" stop-color="#393" stop-opacity=".1"/></radialGradient><filter id="b" color-interpolation-filters="sRGB" height="1.072801" width="1.140899" x="-.070449" y="-.036401"><feGaussianBlur stdDeviation="3.5261915"/></filter><filter id="c" color-interpolation-filters="sRGB" height="1.069649" width="1.154426" x="-.077213" y="-.034824"><feGaussianBlur stdDeviation="2.9548654"/></filter><filter id="d" color-interpolation-filters="sRGB" height="1.13508" width="1.168626" x="-.084313" y="-.06754"><feGaussianBlur stdDeviation="2.9122603"/></filter><filter id="e" color-interpolation-filters="sRGB" height="1.085531" width="1.10939" x="-.054695" y="-.042765"><feGaussianBlur stdDeviation="1.7071537"/></filter><filter id="f" color-interpolation-filters="sRGB" height="1.053761" width="1.054241" x="-.027121" y="-.02688"><feGaussianBlur stdDeviation=".32714463"/></filter><g transform="translate(-1000 -1000)"><circle cx="1250" cy="1250" fill="#2ad52a" r="250"/><path d="m1258.9184 1271.0417c17.1144 30.6662 44.2259 53.4982 76.3129 67.0503 47.0888 19.252 101.3032 18.539 148.3503-.7179 3.5837-7.846 5.7089-15.6928 7.8759-23.5354-44.255 22.8273-95.5943 29.9536-144.8083 16.402-20.669-5.7007-39.2545-15.6936-56.3481-29.2453-11.4138-9.2678-21.4025-19.2524-29.245-31.383.7122 0 1.4251-.7126 1.4251-.7126 21.3984 24.9615 47.7889 42.0844 79.1674 50.6396 47.0888 12.1307 94.8859 6.4216 137.6825-16.402 1.4168-.7125 2.8336-.7125 4.2505-1.4293 4.2922-2.8504 7.8759-4.9882 12.1264-7.1343 1.4168-8.551 2.1668-16.4062 3.5837-24.9614-2.8753 1.4294-5.0006 3.5671-7.8342 5.7091-2.8753 1.4251-5.0006 2.8461-7.8759 4.9881-54.1729 34.9543-120.5139 44.2305-178.3122 16.4103-2.1251-1.4293-4.2921-2.8586-6.4173-3.5712-.7087-.7126-2.1252-1.421-2.8336-2.1336-1.4585-.7209-2.167-.7209-3.5797-1.4294-10.697-7.1342-19.2605-12.8391-27.8198-22.111 0 0 .717-1.4335 1.4252-1.4335 2.1461.7125 3.5712 3.5712 4.9964 5.0006 38.5211 29.9537 85.6097 37.8046 132.6569 27.8159 10.0011-2.1378 18.5438-4.2839 27.8364-7.8426 16.4187-7.1342 31.3787-13.5559 46.3387-24.2614 5.0005-4.2713 10.0012-7.1258 15.0017-10.6888 2.1253-2.1461 4.2505-4.2797 7.1258-6.4258-.7087-8.5594-.7087-16.3978-1.4168-24.9614-2.1669 2.1378-4.2922 4.9923-6.4174 7.1301-5.0006 4.2838-9.2928 7.8509-13.5849 12.1265-5.6674 4.9922-12.0847 8.5593-17.7937 13.5516-5.0005 3.5671-10.0012 5.7091-15.0017 8.5552-55.6313 33.5292-123.3892 37.0963-178.308-1.421 0 0 .7123-.7167.7123-1.4251 77.0421 44.9388 176.8869 9.2719 227.5177-58.4906-2.1252-7.8468-4.2504-16.4103-5.709-24.2488-28.5033 44.9347-72.0083 79.8848-126.9312 91.2946-32.1286 5.709-64.2156 3.5713-93.4523-10.6972 0-.7126.7122-1.4251.7122-1.4251 30.6494 10.7013 62.7781 11.4139 94.1567 2.8545 17.8355-4.9965 33.5039-12.8433 49.9224-22.8237 8.5844-5.7048 15.0017-11.4139 22.836-17.8313 12.1264-11.4098 22.0858-22.1153 32.087-36.3795 5.0005-7.8468 10.0011-14.981 14.2516-23.5446-3.5421-7.8385-5.709-15.6853-9.9594-22.8153-4.2922 11.4056-10.0012 22.1069-16.4186 32.8082-7.1259 11.4139-14.2517 21.3985-23.5444 31.3789-14.2516 14.9851-29.2533 27.8201-47.7971 37.8046-35.6291 19.2607-76.3004 26.395-114.8215 16.4062 0-.7084.717-2.1377.717-2.1377 33.5121 6.4174 66.3492 0 96.2694-14.981 30.6701-15.6895 54.9646-39.2299 73.4667-69.1836 10.0012-16.4062 17.127-32.0956 22.8359-49.2186-5.0005-7.1342-8.5426-14.26-14.2516-20.6817-3.5838 17.8314-9.2927 34.2334-17.8354 50.6354-.7088 1.4377-.7088 2.8587-1.4168 4.2839-15.7101 29.2453-35.6708 52.7773-64.2158 72.0422-6.4172 4.2797-13.5431 7.1301-19.9605 11.4139-6.4175 3.563-13.5433 4.9965-20.6691 7.1301-17.127 5.7048-34.9706 9.2761-53.5144 6.4174v-1.421c22.8443-.7125 45.6385-6.4174 66.3493-16.4103 2.1251-1.421 4.2504-2.1336 6.4173-3.5671 14.9602-8.5594 27.0865-18.5398 39.2129-30.6705 3.5837-4.2797 7.1258-7.8426 10.7095-12.1265 1.4169-2.1378 2.8337-4.2797 5.0006-6.4174 20.669-30.6747 33.5039-62.0494 37.796-96.9995-5.709-6.4258-11.418-12.8432-17.8354-17.8314-.7087 42.0761-12.8348 81.3101-38.5044 116.9686-27.1281 36.3753-65.6326 59.9241-109.1458 64.908 0-.7125 0-2.1377 0-2.1377 24.2611-4.9923 45.6385-14.2601 64.9324-29.9537 19.9607-16.4104 34.9207-34.9543 46.3387-57.0612 16.4185-33.525 23.5443-69.9087 21.4191-106.284-6.4591-4.9964-12.8765-9.9804-20.0024-14.2601 2.167 17.8314 2.8754 35.6628 1.4169 54.2109-1.4169 9.9804-2.8336 19.2565-4.9589 29.2369-3.5838 14.981-8.5843 28.5285-15.7101 42.0927-19.9606 37.7922-53.5062 68.471-94.1441 79.8849 0-.7126 0-1.4335 0-1.4335 30.6785-12.8391 55.6396-33.5167 74.1835-62.7661 2.8335-4.2756 5.0005-9.272 7.1258-13.5517 7.8342-13.5516 12.1264-27.0992 14.9601-42.0843 0-1.421 1.4584-2.142 1.4584-3.5672 5.7091-31.3872 5.7091-62.0534-2.1668-92.0113-7.1258-4.2797-14.2517-7.8468-22.086-10.6971 12.1265 34.2417 14.9602 70.6128 8.5427 107.7049-3.5421 15.6936-7.8342 30.6704-14.96 44.9347-4.2923 7.8468-8.5844 14.9769-13.585 22.8237-14.96 20.6817-32.7912 35.6627-54.1895 47.0724-.7122 0-1.4251-2.1336-1.4251-2.1336 12.8347-7.1342 23.5276-16.4103 33.5288-27.1033 16.3768-17.8355 27.0864-39.234 34.2539-62.0618 13.5432-46.3599 7.8342-94.8617-10.7096-138.3713-7.8759-2.1377-15.7101-4.9922-24.2527-6.4174 14.2516 27.1075 24.9611 57.0612 27.0864 88.4484 2.1253 31.3789-2.8337 62.7619-17.127 91.2946-1.4168 2.1419-2.8336 4.2797-3.5421 6.4216-.7087.7168-1.4585 2.1378-2.1668 2.8504-.7088 1.4293-.7088 2.1377-1.4169 3.5671-10.7095 14.981-20.6774 29.2411-36.3708 39.2256 0 0-.7087-.7084-1.421-1.421 12.839-9.2761 21.3941-22.1194 29.2492-35.6669 36.3791-60.6241 27.0865-131.9579-8.5676-190.4401-2.1336-2.8545-3.5672-4.9965-4.9923-7.851-8.5593-.7125-16.406-1.421-24.9653-2.1336 6.4174 8.5552 12.1263 17.1146 18.5437 26.3866 6.4216 10.7013 10.7012 20.6859 15.6935 31.3872 4.9964 12.1223 7.83 23.5362 10.7054 36.3795 9.251 50.6396-2.167 103.4169-37.1001 140.509 0-.7084-.7087-1.421-.7087-1.421 19.2563-25.6824 29.2242-53.4983 31.391-84.1687 3.5421-54.9193-20.694-109.1302-58.4983-148.36-8.5594 0-16.402.7084-24.9612 2.1336 29.9534 25.6823 52.7769 57.7738 64.9032 95.5826.717 2.8545.717 4.9923 2.1461 7.8426.7123 1.4336.7123 2.8546.7123 4.2839.7123 1.4252 1.4209 2.1419 1.4209 3.5671 8.5594 41.3676 4.9964 81.31-19.2563 117.6854 0 0-.7123-.7127-1.4252-.7127 7.8468-14.9768 12.839-30.6704 15.6935-47.785 2.1377-14.9852 2.1377-29.9537 0-44.9389-7.8467-54.2025-40.6588-101.2833-84.168-131.9538-7.8468 2.1378-15.6935 4.2797-23.5361 7.1301 52.0685 29.2411 92.0106 80.6057 99.8574 141.2299 2.8503 25.6781.7123 51.3605-9.9846 74.8925-.7122 0-1.4293-.7125-1.4293-.7125 0-2.1419 1.4293-4.2797 2.142-6.4216 7.1341-27.8159 6.4174-56.3445-2.142-83.4478-6.4132-19.2566-14.2682-36.3837-26.3946-52.7857-2.1378-2.1336-3.5588-4.2797-4.9881-6.4174-21.3983-25.6824-46.3595-44.9347-75.6046-59.199-7.8467 2.8503-14.9808 6.4174-22.1066 10.693 7.1258 2.8545 14.2599 4.9923 20.6774 9.272 1.4292.7167 2.8544.7167 4.2796 1.4251 29.9534 14.981 54.2104 34.9502 74.1835 62.7703 26.3863 37.092 37.0876 79.1764 27.8156 123.3985 0 0-1.4293 0-2.1377 0 2.8462-13.5558 1.4211-26.3907 0-39.9507-2.1377-17.8272-7.8508-33.5167-16.4102-49.2061-9.2677-18.544-22.1067-34.9543-37.8043-49.9353-12.8347-11.4056-26.3864-20.6859-41.363-29.2411-1.4336-.7126-2.8545-.7126-4.2839-1.4294-13.5557-7.1259-27.8157-12.1181-42.084-17.1146-7.1299 4.9965-13.5515 9.272-19.9689 14.9727 27.8198 5.0006 53.4936 14.9852 78.4548 29.2536 1.4335.7084 1.4335 2.1378 2.8586 2.8462 48.5014 29.962 81.3093 82.7435 78.4632 139.088h-1.4335c-2.1378-42.797-23.536-81.3101-55.6272-109.8469-2.1419-1.421-4.2839-2.8504-6.4174-4.984-.717-.7167-2.1502-1.4335-3.5754-2.1419-.717-.7168-1.4252-2.1378-2.8462-2.8503-32.1036-22.8279-67.0493-34.9544-104.862-37.8089-7.1258 4.9923-12.1222 12.1265-17.827 17.8356 44.9343-.7126 87.735 10.6971 125.5352 38.5172 34.2373 24.9614 57.0649 60.6241 63.4822 101.2792-.7087 0-2.1418 0-2.1418 0-11.4097-48.4977-45.6469-84.1646-88.4435-105.5631-4.9923-2.1336-9.9844-4.2838-14.9726-5.7048-30.6785-12.1265-63.4906-15.6895-95.586-12.8391-4.2796 7.1342-9.9843 13.5475-13.5515 21.3985 27.8199-6.4175 55.6356-5.7049 84.1638-.7084 1.4336 0 2.1461 1.421 3.5755 1.421 37.0876 7.8468 69.1828 24.9614 93.4356 53.4982.7123.7126 2.1377 1.4252 2.8504 2.1378 11.4138 14.981 21.3982 29.2494 26.3864 47.0766 0 0-.7123.7126-1.4252.7126-22.1109-50.6438-71.3249-84.1646-126.2436-92.7281-14.2684-2.1378-28.5325-2.8504-42.7966-2.1378-16.4102.7125-32.8121 3.5671-49.2223 7.8468-2.842 7.8426-7.1217 14.9769-9.2636 22.8278 54.2062-20.6859 116.9676-22.111 169.036 8.5552 24.257 14.2685 42.8008 32.8166 56.3523 56.3487-.7123 0-2.1418.7125-2.1418.7125-23.532-34.9502-56.3399-54.9193-96.2861-64.1913-46.3636-9.9887-92.7315-2.1419-133.3778 17.8314-1.4293 7.8468-5.0006 15.6894-5.0006 24.2488 12.1264-8.5594 26.3947-14.2642 40.6588-19.9774 16.4061-6.4133 32.8038-9.2637 49.9266-11.4014 53.4979-5.7091 108.4166 13.5475 142.6539 54.9151-.7123 0-1.4252.7167-1.4252.7167-32.8121-32.0997-77.7464-47.7934-122.6766-45.6514-40.6672 2.1377-79.1799 17.8313-111.9836 41.3717-.7168 8.5594-.7168 16.4104-.7168 24.9615 9.9887-9.272 20.6857-17.1146 32.8121-24.2489 1.421-.7125 2.1377-2.1419 3.5629-2.8545 54.2104-31.383 121.2556-39.2298 176.8912-6.4174 4.2796 2.8503 7.8467 5.7048 12.1263 7.8426 2.8545 1.4293 4.9881 4.2797 7.8467 6.4258 0 0-.717.7084-.717 1.421-7.8425-5.7049-16.406-9.272-24.9653-14.2684-5.7007-2.1336-11.4096-4.2756-17.1145-6.4175-32.0953-9.9846-65.6241-8.551-98.4321.7127-26.3947 7.8468-49.2181 21.4026-71.3248 38.5172-1.4252.7127-1.4252 2.8587-2.8587 3.5671-6.4174 4.9965-11.4096 9.9887-17.1103 15.6936 0 4.9881.7084 9.9887 2.1336 14.9769v3.5712c.7126 2.1336.7126 3.563 1.4252 5.7091 7.8467-11.4139 17.8353-19.9775 27.8198-29.9621 5.7091-4.9922 11.418-8.5552 17.1145-13.5558 28.5325-20.6775 59.211-32.8124 93.4482-35.6586 30.666-2.1419 62.0488 3.5671 88.4393 19.2524-.717.7168-1.4293 1.4335-1.4293 1.4335-10.6971-5.7048-21.3942-8.5635-33.5205-10.7013-14.9725-3.5671-29.2451-3.5671-44.2218-2.8545-59.9152 4.9923-111.271 43.5095-143.3622 92.0114 2.8461 7.8509 4.988 15.6894 7.8425 23.5358 21.3984-40.6588 54.9188-74.8964 97.007-94.1487 12.8348-5.7091 25.6696-9.2762 39.9379-12.1265h4.2797c24.2569-4.9923 48.5055-1.421 71.329 6.4174 0 .7126-.7123 1.4294-.7123 1.4294-41.3713-9.9846-82.0344-3.563-118.4053 17.1187-25.6737 14.9769-45.651 34.2334-63.4822 59.199-1.4251 2.8545-2.8461 4.9964-4.9922 7.8468-6.4174 10.7005-12.1222 21.4035-17.1228 32.0998 2.1418 3.5663 3.5754 7.8426 5.7131 11.4089 2.8546 2.8554 4.2755 7.143 6.4174 10.698 4.2797-14.9773 10.6971-28.5289 17.8354-42.0752 3.563-6.4225 7.13-12.1315 11.4054-18.5489 19.2606-26.395 40.6631-47.0767 69.1914-60.6284 14.9767-7.1342 29.9576-12.839 46.3678-14.9726 15.6851-2.1461 30.6618-2.1461 46.3553 0v2.1336c-40.6546-3.5671-81.3177 10.6971-113.4088 37.8005-34.954 29.2494-56.3481 69.1914-66.3368 112.701 4.9964 6.417 9.2719 13.5483 15.6976 19.2569 7.8426-84.1646 75.6004-165.4746 163.3354-167.6207v2.1461c-53.4936 5.7049-99.1447 39.9425-124.8227 87.0195-.7123 1.416-.7123 2.8454-1.4293 4.2743-15.6893 27.8159-21.3982 57.7742-23.5402 88.4455 6.4257 4.9923 11.418 12.1252 19.2688 16.4066-2.146-19.975.7088-38.519 4.2714-58.4872 5.7132-29.2453 17.1186-54.2109 34.9624-77.7471 23.5318-29.9579 53.4894-50.6438 91.2896-57.778 0 0 .7123.7126.7123 1.4252-9.9846 2.8545-19.9732 7.1342-29.9619 12.1223-2.1335 1.4335-4.2755 2.1461-6.4215 3.5755-16.4019 9.9804-29.2367 22.1069-41.3631 37.0837-17.1186 22.1153-27.8157 44.9385-34.2372 72.0464-2.1336 11.4143-4.2796 22.8236-4.9923 34.2375-.7123 14.9761 0 30.6663 1.4252 45.644 3.5671 1.4289 7.1383 4.2826 10.7012 6.4216 3.5671 2.1403 7.8467 3.5663 11.4097 5.7003-11.4097-44.2192-8.5551-92.0034 10.7011-134.0886 16.4061-36.3787 46.3554-65.6239 83.4554-80.5966v2.1419c-79.8882 39.2257-104.8536 141.9342-76.3212 221.1106 7.1341 3.5634 14.9767 5.6957 22.8193 8.5557-14.9725-34.9506-22.1067-72.0385-17.1144-110.5558 6.4215-47.7892 31.3869-92.0071 72.0374-116.9769 0 .7125.7123 1.4294.7123 1.4294-26.3864 19.9691-44.2218 46.364-53.498 76.3227-17.1102 52.0685-8.5509 107.7004 17.127 154.7766 8.5551 2.1369 16.4061 3.5629 24.9612 4.9922-48.5055-68.4705-55.6397-174.0339 12.8349-233.9538 0 0 .717.7168 1.4334.7168-20.6857 22.8195-34.2372 49.927-39.2295 81.3059-2.8628 19.9733-2.146 39.2302.7171 59.2064 0 1.426 1.421 2.139 1.421 3.5634 3.5628 23.5366 12.8347 43.5095 24.2486 64.1908.717 1.4344 2.1376 2.147 2.8544 3.5763 4.2798 8.546 9.9887 15.689 15.6935 22.8203h24.9612c-23.5361-24.2496-42.0798-52.7815-52.0685-85.5901-.7088-2.8504-.7088-4.9973-2.1418-7.851-.7123-1.421-.7123-2.8516-.7123-4.2759-.7088-1.4294-1.4252-2.1424-1.4252-3.5717-9.9886-47.0729-2.8503-94.1487 27.1073-131.2366 0 0 .7123.7125 1.4252.7125-20.6816 29.9578-27.1073 67.0462-22.8234 102.7164 6.4173 49.9232 32.8079 94.8588 70.6122 126.954 7.8468-1.426 16.3893-2.847 24.2652-4.276-12.1263-9.2719-23.5526-18.5439-34.2456-29.9582-7.1382-7.846-12.8431-14.9806-19.2647-23.5367-9.2635-12.8432-14.9767-25.6769-21.3941-39.9462-2.1419-4.9922-2.8586-9.9849-4.9922-14.9755-11.4139-38.5223-9.276-79.8899 9.2677-115.5526 0 0 1.4293.7168 2.1419.7168-19.2605 44.2179-13.5515 94.8658 9.2678 137.659 18.5521 34.2376 46.3845 60.6325 78.4714 79.8845 7.8343-2.8504 15.6685-5.7053 22.836-9.2767-14.2933-5.7006-25.7113-13.5466-38.5461-22.8186-17.8354-13.5516-32.7996-27.1046-44.2092-45.6518-13.5516-15.6886-20.6858-35.662-27.1073-55.6319-4.2796-17.1196-5.7048-34.2375-4.9922-51.3563.7123-9.9888 2.8504-18.5481 4.9922-28.5327.7123-1.4252-.7123-2.8545 2.8503-2.8545-9.9803 45.6514 2.1503 92.7285 31.387 130.5327 2.1377 2.1373 3.5629 4.2759 4.9922 6.4166 24.2528 28.529 54.2145 48.5068 88.4268 61.3455 3.5838-2.1423 7.8759-3.5667 11.418-5.7036 2.1668-2.1423 5.0005-3.5717 7.8759-5.0006.7087-.7101 1.4168-1.4214 2.1253-2.1345-36.3792-9.2765-69.1747-27.8159-97.007-54.9234-3.5671-4.2797-7.13-7.8459-10.6971-12.1273-27.8157-33.5246-41.3714-75.6085-36.3708-117.6887.7041 0 2.1377.7127 2.1377.7127-1.4334 32.0956 7.8385 62.0539 26.3905 89.8732 4.9881 7.8509 9.9804 14.2726 16.402 21.3993 5.7173 5.7036 11.4262 10.6963 17.0936 16.4015 15.7101 12.8433 32.1287 22.8283 50.6724 30.6742 15.6684 6.4171 31.3787 10.698 47.7972 14.2647 6.4174-5.7057 12.8348-11.4093 18.5437-17.1196-24.2528-1.4293-47.0887-7.138-69.2162-16.4099-2.8337-1.4244-4.9589-2.1374-7.8342-3.5634-23.5443-11.4093-43.505-25.6736-60.6236-45.6468-3.5671-4.9957-7.8468-9.2721-11.4138-14.9757-2.8545-4.2847-4.9923-8.5689-7.8426-12.8436-2.1419-4.2801-4.2838-9.2724-6.4216-13.5521-6.4216-15.6894-10.7012-31.3872-11.4138-48.5018h1.4294c7.1299 42.7969 29.9576 78.4588 65.6159 104.1458 37.0875 26.3819 78.4672 37.0845 121.2638 37.0845 5.7089-6.4216 10.7095-12.8399 15.6684-19.9729-16.3768 2.8533-33.5038 1.4289-49.9223 0-15.6685-1.431-30.6702-5.7057-45.6303-10.703-5.0005-2.1373-10.0011-4.2747-15.0017-6.4086-43.5049-19.9813-77.7297-58.4986-89.8561-104.8584h2.1378c11.4138 34.2333 34.2372 62.0535 65.6325 81.3137 5.0005 2.8504 9.251 4.9928 13.5431 7.8477 40.6714 19.9683 86.3016 24.961 129.8065 16.4016 5.0007-7.1263 8.5843-14.9772 12.1265-22.1119-67.0494 19.262-147.6419 8.5606-195.4265-48.5051-.7123-.7127-2.142-1.421-2.8587-2.1378-8.5551-10.7013-15.6893-21.3943-20.6816-33.525 0 0 .7123-.7084 1.4294-.7084" fill="url(#a)" fill-rule="evenodd"/></g><path d="m156.50586 69.396484c-.39414 1.799701-.87745 3.592824-1.2179 5.396499 2.33251 27.372977 4.66337 54.746097 6.99524 82.119127-2.0358.35807-4.07161.71615-6.10742 1.07422-7.12209-26.51814-14.24141-53.03702-21.36523-79.554689-1.85603-2.833595-3.71505-5.665231-5.57227-8.498047-.66233 3.163166-1.45265 6.299683-2.08036 9.468983-.23994 1.303767.15286 2.628221.19597 3.941413 2.48425 26.16398 4.9685 52.32796 7.45275 78.49195-2.30404.4401-4.60807.88021-6.91211 1.32031-7.17466-26.55073-14.34784-53.10187-21.52344-79.652344-1.86022-2.830599-3.72045-5.661195-5.58007-8.492187-.6667 3.197814-1.473724 6.36685-2.091348 9.57373-.195293 1.304332.179234 2.626051.226996 3.937905 2.507512 26.158236 5.015032 52.316466 7.522552 78.474696-2.04688.35872-4.09375.71744-6.14063 1.07617-7.43315-26.52096-14.869824-53.04093-22.300778-79.562501-1.881551-2.829833-3.75619-5.664277-5.634765-8.496094-.700682 3.401164-1.481736 6.691181-2.132813 10.087891 3.528901 35.350164 7.055748 70.700544 10.583985 106.050784 14.28005-2.5691 28.559881-5.13942 42.839841-7.70899 6.57653 36.27598 13.1502 72.55248 19.72852 108.82813 8.15042-.31243 16.30073-.62752 24.45117-.93946-6.75883-37.3957-13.52391-74.79027-20.28516-112.18554 14.26952-2.56977 28.53919-5.13865 42.8086-7.70899-9.09613-34.36659-18.19379-68.73279-27.28907-103.099606-1.83578-2.851704-3.66795-5.705737-5.50195-8.558594-.35677 1.538411-.71354 3.076823-1.07031 4.615234z" fill="#83fc83" filter="url(#b)"/><path d="m163.08893 292.51386-20.17807-111.59256 42.48-7.65-26.1-98.603999 7.29 85.553999-13.32 2.34-22.23-82.781999 8.1 85.301999-14.13 2.7-22.41-82.925999 8.19 85.445999-13.346992 2.34-23.193015-82.745999 10.134 101.555999 42.516007-7.65 19.81807 109.34256z" fill="#2e852e"/><path d="m85.599609 217.37109c-8.157569 0-16.837275 2.23338-23.490234 8.27344-6.652959 6.04008-9.692445 15.09725-9.683594 22.88672-.002 1.58401-.38584 5.12011.644531 10.42969.27095 1.39622.772895 2.99141 1.457032 4.65429-1.386293 3.71396-2.85801 7.42591-4.46875 11.16602l-2.230469 5.17969c-7.635298 2.38715-14.433185 7.49437-19.097656 13.75-6.76032 8.97682-10.388672 20.29731-10.388672 32.91992 0 5.89659.866727 11.47217 2.398437 16.69531l-1.867187.39258c1.82698 4.74137 3.752391 9.44458 5.865234 14.06641-.1553.3292-.340141.65908-.49414.98828 2.141797 3.56629 3.575192 7.8419 5.71289 11.4082 2.854597 2.8554 4.276071 7.14422 6.417969 10.69922.1088-.3808.253734-.73829.365234-1.11719 3.544697 5.6684 7.315239 11.1924 11.302735 16.5586-.076.3262-.182913.64215-.257813.96875 4.996395 6.41699 9.271572 13.54726 15.697266 19.25586.011-.1215.036828-.24189.048828-.36329 4.352296 4.7004 8.883589 9.23169 13.583984 13.58399-.025.3492-.064843.69552-.089843 1.04492 6.425693 4.9923 11.418739 12.12475 19.269531 16.40625-.03-.2816-.036453-.55689-.064453-.83789 5.060791 4.1068 10.280291 8.01399 15.646481 11.71289.038.4123.06207.83479.10157 1.24609 3.56709 1.4289 7.13827 4.28288 10.70117 6.42188 3.56709 2.1403 7.84716 3.56717 11.41015 5.70117-.062-.2394-.09505-.48501-.15625-.72461 5.8242 3.1563 11.77163 6.07978 17.82813 8.76367.062.1729.10176.35465.16406.52735 7.13409 3.56339 14.97577 5.69664 22.81836 8.55664-.085-.1984-.15378-.40101-.23828-.59961 6.32329 1.905 12.71963 3.55853 19.17383 4.95703.1142.2109.21518.42817.33008.63867 8.55509 2.1369 16.40584 3.56289 24.96093 4.99219-.1904-.2688-.35191-.56213-.54101-.83203 6.60149.7371 13.22984 1.21082 19.86914 1.41992.2195.2746.42493.56339.64453.83789h11.05664 13.9043c-.2954-.3043-.56753-.62789-.86133-.93359 6.86489-.2072 13.71837-.69725 20.54297-1.46875.099.085.19347.17526.29297.25976 3.12509-.56792 6.40425-1.13608 9.66406-1.70312.70003-6.96822 1.3152-14.47499 1.78515-22.91211l11.37696-117.1543-27.14453-4.80664c1.25419-4.78031 2.04101-9.79696 2.04101-15.10937 0-12.63908-3.65152-23.99891-10.48828-32.99219-6.45365-8.5734-16.9824-15.15821-28.21289-15.15821-8.42034 0-16.44503 3.7045-22.65625 9.16993-.38368-.54508-.64013-1.12633-1.05664-1.66211-6.46006-8.52504-16.93971-15.06836-28.12695-15.06836-3.64765 0-7.16141.55125-10.91016 1.95703 0 0-8.86208-8.56679-14.44922-10.77735-4.21733-1.66859-8.98548-1.64117-13.51953-1.52929-3.16045.078-6.39545.43475-9.36133 1.52929-5.31965 1.9632-14.54492 8.82032-14.54492 8.82032s-4.42301-3.13855-6.90625-4.16992c-3.30739-1.37368-10.42578-2.59571-10.42578-2.59571s7.15293-12.22723 8.32422-19.06054c1.12659-6.57248-1.44336-19.95313-1.44336-19.95313-6.41014-11.02403-19.446825-17.31055-32.224611-17.31055z" fill="#2e852e"/><path d="m431.21289 111.42773c-8.9778.4908-17.58657 4.28672-24.52747 9.90839-5.63788 4.61887-10.22337 10.88653-11.68647 18.12828-1.28223 6.20116.0476 12.77746 3.20416 18.22249 1.78776 3.1662 3.5802 6.32996 5.35353 9.50452 1.39799-5.72586 2.44474-11.55471 4.35352-17.14258 1.83933-5.0897 4.49164-10.18326 8.95355-13.44524 3.45894-2.58341 8.03014-3.27397 12.2118-2.48235 5.01711.94929 9.62043 3.47778 13.61199 6.59946 4.55668 3.68454 8.57328 8.22538 10.97317 13.61636 1.04056 2.52819 1.87592 5.38299 1.02878 8.09263-1.91647 6.27566-5.19273 12.29032-10.21718 16.61187-5.95182 5.30532-13.74819 8.1277-19.29707 13.9334-2.57753 2.60327-4.18887 5.9273-6.07168 9.02309 6.31649 2.19311 12.63294 4.38635 18.94921 6.58007 10.06621-3.63529 19.71389-8.98693 27.15835-16.78183 7.66416-7.9051 12.64663-18.48301 13.33378-29.51385.92642-13.36183-4.18529-26.94279-13.4986-36.53712-7.45341-7.7467-17.62858-12.83429-28.32493-14.01561-1.82742-.2157-3.66778-.33749-5.50844-.30198zm-14.47656 100.64844c-9.97499 34.32907-19.95176 68.65798-29.92969 102.98633 11.44822-7.06828 22.89635-14.13669 34.3457-21.20312 5.95537-25.43303 11.90978-50.86628 17.86719-76.29883-7.23247-2.50181-14.46463-5.00452-21.69726-7.50586-.19532.67383-.39063 1.34765-.58594 2.02148z" fill="#83fc83" filter="url(#c)"/><path d="m432.23009 115.4013c-17.82.18-43.0201 19.26-30.24 40.86 12.15-53.91 62.28-11.79 56.61 7.02-7.65 25.38-26.1 23.31-33.57 36.54l12.96 4.5c58.41-21.78 39.42-86.04-4.05-88.83-.54 0-1.08-.09-1.71-.09zm-14.59358 175.92738 16.66358-71.16738-14.31-4.95-26.44087 90.9877z" fill="#2e852e"/><path d="m338.53906 47.355469-6 27.492187c-9.43217 3.584013-19.3146 7.749117-27.61133 12.679688l-2.29687-14.623047s-15.73177 9.245234-21.48828 16.097656c-10.61795 12.639397-22.62247 29.790367-22.4082 44.162107.20263 13.59192 4.14666 25.75854 8.13671 36.22852l-2.40039 11.8164-7.03515 34.62891c-9.15129 7.28372-14.83594 18.88535-14.83594 31.05273 0 14.54384 7.97604 28.36798 20.54297 34.82227.56135 2.31195 1.14285 4.62759 1.73437 6.95508-8.97686 1.78566-17.08684 7.43989-22.41015 14.51172-6.83677 8.99327-10.48633 20.35313-10.48633 32.99219 0 4.96956.72285 9.66335 1.82226 14.17187l-30.48046 4.625 12.14062 118.27344 36.64453 26.75781h11.79688c-.2954-.3043-.56753-.62789-.86133-.93359 6.86489-.2072 13.71837-.69725 20.54297-1.46875.099.085.19347.17526.29297.25976 7.84679-1.426 16.38973-2.84639 24.26562-4.27539-.3515-.2687-.68876-.54175-1.03906-.81055 6.63609-1.48979 13.20868-3.24969 19.70117-5.27539.1998.1206.38974.25696.58984.37696 6.9744-2.5375 13.88088-5.15212 20.38477-8.19922 6.75779-2.9684 13.38082-6.23467 19.84961-9.78906.1334.05.26103.11005.39453.16015 3.5838-2.1423 7.87587-3.56623 11.41797-5.70312 2.1668-2.1423 5.00156-3.57306 7.87695-5.00196.7087-.7101 1.4165-1.41971 2.125-2.13281-.033-.01-.06465-.0213-.09765-.0293 5.32069-3.67029 10.49718-7.54559 15.51757-11.61718.3355.074.66195.15942.99805.23242 2.2109-1.9658 4.39037-3.93089 6.57227-5.89649 1.1157-.99009 2.22251-1.9901 3.32031-3 2.9901-2.74039 5.90869-5.48015 8.65039-8.22265-.1324-.01-.26213-.02521-.39453-.03321 6.49739-6.20669 12.65537-12.75921 18.44726-19.6289 3.8765-4.677 7.57836-9.42203 11.16016-14.57422-.093.016-.18795.02306-.28125.03906 3.8334-5.33059 7.45543-10.81008 10.85742-16.42578.044-.01.08902-.01248.13281-.02148 5.0007-7.1263 8.58476-14.97664 12.12696-22.11133-.067.019-.13613.03373-.20313.05273 2.6788-6.09499 5.11308-12.29459 7.29688-18.58398.011 0 .0222-.00972.0332-.01172 1.54902-3.39125 2.76244-6.78253 3.87891-10.17383-.58375-11.31077-4.13347-21.49137-10.36719-29.6914-6.45364-8.57342-16.98241-15.15821-28.21289-15.15821-3.05687 0-6.05199.52156-8.9375 1.4043 0 0-11.88341-7.32427-18.60352-8.24414-6.57841-.90047-13.80499-.15907-19.70898 2.8789-3.93378 2.02418-9.19531 9.57032-9.19531 9.57032l-8.31446-15.20313c-6.45378-8.57233-16.9814-15.15625-28.21093-15.15625-11.23048 0-21.75925 6.58479-28.21289 15.15821-1.32124 1.73797-2.42437 3.63196-3.50391 5.53906-3.74341-8.55253-6.94309-17.11419-9.39648-25.83008.88907-7.63718-.72608-14.76769-3.63086-20.94141l18.28125-44.35351c4.19434-2.20339 7.0954-4.23402 10.60156-7.05078 8.1975-6.77609 15.23923-15.96324 20.66601-27.25782 11.55865-38.92668 14.77192-86.25495-22.17578-105.509761z" fill="#2e852e"/><path d="m85.599609 235.37109c-10.133989 0-15.182828 5.22064-15.173828 13.14063 0 4.49999-.504745 9.98945 4.03125 12.68945-2.276997 7.10999-4.958237 13.94923-7.865234 20.69922 4.121996 1.35 7.911003 3.60047 11.25 6.48047.126-.18.241188-.35906.367187-.53906 3.887996-5.13 8.956725-9.36087 14.761719-11.88086 1.188014-4.86 2.321579-9.72009 3.392578-14.58008 4.787999-2.7 7.578129-7.01938 7.578129-11.60938 0-7.91999-8.207796-14.40039-18.341801-14.40039zm66.582031 50.93946c-5.03999 0-9.81133 2.61172-13.86133 8.01172-4.04999 5.30999-6.83984 13.22868-6.83984 22.13867s2.78985 16.83063 6.83984 22.14062c4.05 5.4 8.82134 8.00977 13.86133 8.00977 5.04 0 9.80938-2.60977 13.85938-8.00977 4.04999-5.30999 6.75-13.23063 6.75-22.14062s-2.70001-16.82868-6.75-22.13867c-4.05-5.4-8.81938-8.01172-13.85938-8.01172zm-47.16016 3.33007c-5.039983 0-9.847313 2.60978-13.861324 8.00977-1.016999 1.35-1.952063 2.88-2.789062 4.5 3.527996 7.19999 5.480468 15.57048 5.480468 24.48047 0 5.57999-.755735 10.88985-2.177734 15.83984l13.707032 2.97071 12.86914-2.69922c.72-.9 1.53031-1.98086 2.07031-2.88086-3.23999-6.92999-5.03906-14.9404-5.03906-23.40039 0-6.84 1.17024-13.31977 3.24023-19.25977-3.95999-5.03999-8.55-7.56054-13.5-7.56055zm-48.025386 6.83985c-5.030995 0-9.845379 2.61172-13.859375 8.01172-4.013996 5.30999-6.794922 13.22868-6.794922 22.13867s2.780926 16.83063 6.794922 22.14062c4.013996 5.4 8.82838 8.00977 13.859375 8.00977s9.847332-2.60977 13.861328-8.00977c4.013996-5.30999 6.794922-13.23063 6.794922-22.14062s-2.780926-16.82868-6.794922-22.13867c-4.013996-5.4-8.830333-8.01172-13.861328-8.01172zm134.064456 1.98047c-1.53 0-3.14985.27054-4.58985.81054 1.62 5.31 2.51953 11.15946 2.51953 17.18946 0 9.26999-2.06976 17.82118-5.75976 25.20117l23.75976 5.21875c-.62999-3.42-.99023-7.01899-.99023-10.70898 0-7.29 1.35141-14.21985 3.69141-20.33985-1.17-3.6-2.79149-6.84133-4.77149-9.36133-4.04999-5.39999-8.81938-8.00976-13.85937-8.00976zm51.83984 7.56054c-5.03999 0-9.80938 2.60978-13.85937 8.00977-4.05 5.30999-6.83985 13.23063-6.83985 22.14063 0 8.90999 2.78985 16.82867 6.83985 22.13867 4.04999 5.39999 8.81938 8.01172 13.85937 8.01172 5.04 0 9.81133-2.61173 13.86133-8.01172 4.04999-5.31 6.83984-13.22868 6.83984-22.13867 0-8.91-2.78985-16.83064-6.83984-22.14063-4.05-5.39999-8.82133-8.00977-13.86133-8.00977zm-71.09961 49.67969c-5.57999 4.41-12.23915 7.10938-19.61914 7.10938-7.10999 0-13.67993-2.52016-19.16992-6.66016l-28.6211 6.12109 21.68946 92.97071c2.98056 6.59121 4.48599 9.90948 7.1289 15.78125.283.15699.60575.27468.88086.43945-.062-.2394-.09505-.48501-.15625-.72461 5.8242 3.1563 11.77163 6.07978 17.82813 8.76367.062.1729.10176.35465.16406.52735 7.13409 3.56339 14.97577 5.69664 22.81836 8.55664-.085-.1984-.15378-.40101-.23828-.59961 5.15038 1.55164 10.36053 2.89135 15.59961 4.10742l-2.73438-39.82227c-3.23999-31.76996-6.66055-63.54057-9.81054-95.31054zm-86.781249 1.95703c-.437624.0675-.778938.33883-1.210937.92383-6.398994 8.45999-15.958511 14.39844-26.8125 14.39844-10.43999 0-19.672928-5.48821-26.044922-13.4082l-5.13086 1.07812v1.26953c1.345822 2.78776 2.588696 5.67917 4.136719 8.26172 2.854597 2.8554 4.276071 7.14422 6.417969 10.69922.1088-.3808.253734-.73829.365234-1.11719 3.544697 5.6684 7.315239 11.1924 11.302735 16.5586-.076.3262-.182913.64215-.257813.96875 4.996395 6.41699 9.271572 13.54726 15.697266 19.25586.011-.1215.036828-.24189.048828-.36329 4.352296 4.7004 8.883589 9.23169 13.583984 13.58399-.025.3492-.064843.69552-.089843 1.04492 6.425693 4.9923 11.418739 12.12475 19.269531 16.40625-.03-.2816-.036453-.55689-.064453-.83789.402739.32682.821819.63274 1.226562.95703l3.693359-27.82617-14.345702-61.56055c-.8145-.225-1.347532-.36047-1.785157-.29297zm130.341799 9.47266-20.16016 3.06055 8.73047 85.05078 2.04102 40.98633c4.2719.84335 8.54305 1.6014 12.99804 2.3457-.1904-.2688-.35191-.56213-.54101-.83203 6.60149.7371 13.22984 1.21082 19.86914 1.41992.2195.2746.42493.56339.64453.83789h11.05664 13.9043c-.2954-.3043-.56753-.62789-.86133-.93359 4.35283-.13138 8.69793-.4189 13.03711-.77735l2.91015-43.04687 8.19141-84.33008-17.28125-3.06055c-.09.09-.08969.17953-.17969.26953-6.38999 8.46-15.93032 14.40039-26.82031 14.40039-11.87999-1.70999-21.68907-7.20063-27.53906-15.39062z" fill="#83fc83" stroke-width="36"/><path d="m345.69922 75.576172c-.75516.02525-1.52341.0036-2.14801.497043-.96195.403438-1.54043 1.37876-1.98285 2.284207-.38218 1.135905-.29447 2.369018-.51563 3.542969-.10167.745046-.2463 1.844049-.36302 2.615016-.59697 4.115456-1.34772 8.21483-2.26323 12.216511-.89666 3.868762-1.92538 7.794962-3.21108 11.621892-.43128 1.29566-.93187 2.66426-1.38915 3.82915-1.58783 3.93382-3.33985 7.89805-6.0687 11.18845-1.00491 1.06626-2.0977 2.28988-3.59279 2.59445-1.37171.19023-2.5672-.7254-3.63828-1.45095-1.72215-1.26806-2.72477-3.3501-2.72433-5.48036-.14975-3.98496 1.38608-7.789 2.99478-11.35646 1.14426-2.47355 2.53608-4.82771 3.90945-7.17234.44387-1.367213.80552-3.137312-.37233-4.256581-.66222-1.024345-1.82978-1.756573-3.08091-1.554009-1.18863-.09463-2.30841.412954-3.18968 1.177258-1.4495 1.016075-2.80435 1.865123-4.30369 2.83852-5.73121 3.653532-11.7119 7.292742-15.95093 12.726712-1.44395 1.88144-2.61209 3.97779-3.42993 6.20493-.24528-4.35979-.23869-8.76124-.96845-13.07265-.52251-1.34639-1.37696-2.91438-2.99054-3.05821-1.25075-.34299-2.67435-.16506-3.63455.76394-6.60548 4.91724-11.37341 12.25609-13.05824 20.32799-1.94572 8.85533-.80421 18.06623 1.37298 26.76654 1.47955 5.80064 3.40595 11.48592 5.61485 17.04572 1.05746 1.91029 3.16095 2.82445 4.84205 4.0828 5.78756 3.91584 12.1038 7.53046 19.1545 8.39935 3.6713.46074 7.40076-.10083 10.8938-1.26209 7.87983-2.25623 14.67488-7.28017 20.31266-13.10667 11.13887-11.6597 17.69071-27.29207 19.28476-43.25759 1.4637-14.42848-.9278-29.081035-5.87461-42.656476-.40739-1.096456-1.21209-2.062966-2.18554-2.708984-.43884-.23947-.94415-.354716-1.44336-.330078z" fill="#2ad52a" filter="url(#d)"/><path d="m307.29873 175.22365c2.07796.0585 6.13096-1.14162 6.13096-1.14162 20.60998-4.76999 51.57115-41.04016 31.95117-94.662108-2.97 26.891968-12.87048 55.331638-24.48047 49.931638-10.97999-5.03999-8.01062-17.28118.35938-30.826169-13.58999 9.674989-32.67015 15.886349-20.16016 41.986329-13.40999-7.64999-9.62938-22.68126-11.60938-35.28125-19.34998 14.48998-12.96085 39.4201-5.13085 59.58008 0 0 3.69815 4.86699 6.28701 6.33089 4.97485 2.81311 10.93947 3.92134 16.65234 4.08221z" fill="#2ad52a" filter="url(#e)"/><path d="m345.38086 79.419922c-2.97 26.891968-12.87048 55.331638-24.48047 49.931638-10.97999-5.03999-8.01062-17.28118.35938-30.826169-13.58999 9.674989-32.67015 15.886349-20.16016 41.986329-13.40999-7.64999-9.62938-22.68126-11.60938-35.28125-19.34998 14.48998-12.96085 39.4201-5.13085 59.58008 0 0 5.51082 7.97083 9.20994 6.93164 1.30555-.36677 1.50099-3.78125 1.50099-3.78125l.44922-22.67969 9.17969 16.4707c10.97999-4.58999 11.16032-7.65133 17.82031-13.86133-4.22999 8.28-6.47923 17.28157-16.19922 23.85157 0 0-2.06131 1.4993-1.62109 2.33984 1.35018 2.57799 8.73047 0 8.73047 0 20.60998-4.76999 51.57115-41.04016 31.95117-94.662108zm-63.27148 105.371098-5.84961 28.80078 20.79101 4.94922 10.97852-26.64063zm-3.14844 41.40039c-10.16999 0-18.36133 9.26923-18.36133 20.69921 0 11.06999 7.74079 20.16133 17.55078 20.61133 1.98 8.54999 4.04867 17.09845 6.38867 25.64844 5.04 2.61 9.45094 6.48032 12.96094 11.07031 6.38999 8.54999 10.08008 19.71119 10.08008 31.95118 0 5.39999-.72032 10.62031-2.07031 15.57031.18.36.36101.80992.54101 1.16992l26.54883 4.67969-7.01953 72.53906 5.84961 25.11133 3.96093 29.61719c4.2231-1.62831 8.39391-3.31307 12.39063-5.18555 6.75779-2.9684 13.38082-6.23467 19.84961-9.78906.1334.05.26103.11005.39453.16015 3.5838-2.1423 7.87587-3.56623 11.41797-5.70312 2.02784-2.00492 4.65419-3.37462 7.33789-4.71485l-.81055-4.38476-8.73047-93.33008-.54101-6.39063c8.54999-2.96999 17.19141-5.40101 23.9414-7.29101l-23.04101-4.94922c-5.93999 5.39999-13.40946 8.82031-21.68945 8.82031-10.88999 0-20.43032-5.9404-26.82032-14.40039-5.66999-7.55999-9.18039-17.2804-9.90039-27.90039-8.99999-17.99998-17.72938-36.18002-22.85937-56.25 3.68999-12.50999-7.46915-26.99937-17.36914-27.35937zm76.94922 49.41015c-5.04 0-9.80938 2.60977-13.85938 8.00977-4.04999 5.30999-6.83984 13.23063-6.83984 22.14062s2.78985 16.82868 6.83984 22.13867c4.05 5.4 8.81938 8.00977 13.85938 8.00977 5.03999 0 9.80938-2.60977 13.85937-8.00977 4.05-5.30999 6.75-13.22868 6.75-22.13867s-2.7-16.83063-6.75-22.14062c-4.04999-5.4-8.81938-8.00977-13.85937-8.00977zm59.58007 15.57032c-5.03999 0-9.80937 2.60977-13.85937 8.00976-4.0501 5.31-6.75 13.23063-6.75 22.14063 0 3.32999.36008 6.47937 1.08008 9.35937l16.10937 3.50977c0-1.17-.0898-2.42946-.0898-3.68946 0-12.23998 3.69008-23.40118 10.08008-31.95117.99-1.26 2.07039-2.51945 3.15039-3.68945-2.97-2.52-6.30071-3.68946-9.72071-3.68945zm33.39063 9.17968c-5.04 0-9.81133 2.60977-13.86133 8.00977-4.04999 5.30999-6.83984 13.23063-6.83984 22.14062.09 8.90999 2.78985 16.82868 6.83984 22.13867 4.05 5.4 8.82133 8.00977 13.86133 8.00977 5.03999 0 9.80938-2.60977 13.85937-8.00977 4.05-5.30999 6.83985-13.22868 6.83985-22.13867s-2.78985-16.83063-6.83985-22.14062c-4.04999-5.4-8.81938-8.00977-13.85937-8.00977zm-178.20117 5.66992c-5.04 0-9.80938 2.60978-13.85938 8.00977-4.04999 5.30999-6.83984 13.23063-6.83984 22.14063 0 8.90999 2.78985 16.82867 6.83984 22.13867 4.05 5.39999 8.81938 8.01172 13.85938 8.01172 5.03999 0 9.80938-2.61173 13.85937-8.01172 4.05-5.31 6.8418-13.22868 6.8418-22.13867 0-8.91-2.7918-16.83064-6.8418-22.14063-4.04999-5.39999-8.81938-8.00977-13.85937-8.00977zm149.75976 54.08985c-8.99999 1.98-17.72889 4.22984-26.45898 6.83984l7.61133 81.16016c1.08875-.85342 2.19886-1.6793 3.27343-2.55078.3355.074.66195.15942.99805.23242 2.2109-1.9658 4.39037-3.93089 6.57227-5.89649 1.1157-.99009 2.22251-1.9901 3.32031-3 2.9901-2.74039 5.90869-5.48015 8.65039-8.22265-.1324-.01-.26213-.0252-.39453-.0332 6.49739-6.20669 12.65537-12.75921 18.44726-19.6289 3.8765-4.677 7.57836-9.42203 11.16016-14.57422-.093.016-.18795.0231-.28125.0391 3.8334-5.33059 7.45543-10.81008 10.85742-16.42578.044-.01.089-.0125.13281-.0215 2.17076-3.09347 4.04169-6.32957 5.79102-9.57813-5.85367 5.12875-13.17138 8.40039-21.23828 8.40039-12.77999-1.8-22.32141-7.56024-28.44141-16.74023zm-177.29883 7.01953-20.16015 3.06055 8.73047 85.05078 6.11133 43.89453c.15901.005.31753.0204.47656.0254.2195.2746.42493.56339.64453.83789h11.05664 13.9043c-.2954-.3043-.56753-.62789-.86133-.93359 6.86489-.2072 13.71837-.69725 20.54297-1.46875.099.085.19347.17526.29297.25976 7.14068-1.29767 14.81567-2.59152 22.08203-3.89062l.80859-38.72461 8.19141-84.33008-17.28125-3.06055c-.09.09-.0897.17953-.17969.26953-6.38999 8.46-15.93032 14.40039-26.82031 14.40039-11.87999-1.70999-21.68907-7.20063-27.53907-15.39062z" fill="#83fc83" stroke-width="36"/><path d="m249.51562 199.92187c-16.70878 0-31.85491 9.17562-41.9375 22.46094l-.0234.0293-.0234.0312c-10.14938 13.49267-16.04883 31.24787-16.04883 50.85351 0 12.57913 2.45547 24.37834 6.87695 34.79688-8.2559 4.13993-15.25105 10.19887-20.55078 17.26172-8.77597 11.66594-13.9288 25.83525-17.37304 41.28515l-.004.0117-.002.0117c-6.87826 31.05039-6.42188 66.92306-6.42188 96.03711v55.29892h35.88867 19.50977 79.51172 19.51172 36.59375v-55.29883c0-29.2211-.75279-64.82467-8.26563-95.49805l-.002-.006c-3.69259-15.25432-8.88381-29.30494-17.5293-40.95704-4.99123-6.92503-11.42741-12.88976-19.02929-17.11523 4.70819-10.67172 7.3496-22.82613 7.3496-35.82813 0-19.60417-5.89659-37.35965-16.04687-50.85351l-.0547-.0723-.0527-.0703c-10.10383-13.15849-25.16815-22.37891-41.87696-22.37891z" fill="#2e852e"/><path d="m249.51562 217.92188c-10.40484 0-20.10458 5.46598-27.5996 15.34179-7.49505 9.96398-12.4336 24.16136-12.4336 40.03321 0 15.87182 4.93855 30.06922 12.4336 40.0332 7.49502 9.87581 17.19476 15.3418 27.5996 15.3418 10.40487 0 20.01641-5.46599 27.59961-15.3418 7.49505-9.96398 12.43165-24.16138 12.43165-40.0332 0-15.87185-4.9366-30.06923-12.43165-40.03321-7.5832-9.87581-17.19474-15.34179-27.59961-15.34179zm-16.13671 35.62304c5.02607 0 8.99414 9.25801 8.99414 20.63281 0 11.37481-3.96807 20.63477-8.99414 20.63477-4.93791 0-8.99414-9.25996-8.99414-20.63477 0-11.3748 4.05623-20.63281 8.99414-20.63281zm32.80078 0c4.93789 0 8.99414 9.25801 8.99414 20.63281 0 11.37481-4.05625 20.63477-8.99414 20.63477-4.93791 0-8.99414-9.25996-8.99414-20.63477 0-11.3748 4.05623-20.63281 8.99414-20.63281zm-57.57813 69.48438c-6.61327 2.73348-11.90532 7.14263-16.40234 13.13867-6.43691 8.55316-11.10912 20.54488-14.19531 34.38867-6.17239 27.8639-5.9961 62.95797-5.9961 92.14453v37.29883h19.39844v-87.56055h16.49023v87.56055h82.53321v-87.56055h16.48828v87.56055h20.10547v-37.29883c0-28.83386-.97014-63.57612-7.75977-91.26367-3.35072-13.84379-8.11191-25.92312-14.54883-34.56445-4.23249-5.90786-9.08238-10.22913-14.99023-13.05078-9.96399 12.78564-24.24896 21.33984-40.20899 21.33984-15.87184-.0882-32.97814-10.49345-40.91406-22.13281z" fill="#83fc83" stroke-width="36"/><path d="m293.56932 171.74219c1.30555-.36677 1.50099-3.78125 1.50099-3.78125l.44922-22.67969 9.17969 16.4707c10.97999-4.58999 11.16032-7.65133 17.82031-13.86133-4.22999 8.28-6.47923 17.28157-16.19922 23.85157 0 0-2.06131 1.4993-1.62109 2.33984 0 0-3.25756.60893-4.85836.33907-2.24162-.37788-6.27154-2.67891-6.27154-2.67891z" fill="#2ad52a" filter="url(#f)"/></svg>