<svg height="500.00003" viewBox="0 0 500 500.00003" width="500" xmlns="http://www.w3.org/2000/svg"><g transform="translate(-500)"><path d="m926.7767 73.223311c45.24113 45.241099 73.2233 107.741109 73.2233 176.776699 0 69.0356-27.98221 131.53559-73.2233 176.77669-45.2411 45.2411-107.74109 73.22332-176.77669 73.22332-69.03559 0-131.5356-27.98219-176.7767-73.22332-45.2411-45.2411-73.22331-107.74109-73.22331-176.77669 0-69.03559 27.9822-131.5356 73.22331-176.776699 45.2411-45.241105 107.74111-73.22330934 176.7767-73.22330934 69.0356 0 131.53559 27.98220534 176.77669 73.22330934z" fill="#3b2f4f"/><g clip-rule="evenodd"><path d="m730.6486 0c-128.19182 22.346591-234.17086 139.43202-223.06447 273.24395 5.6201 44.55936 16.72649 83.63245 44.55937 122.70552l50.17947 50.17947c33.45298 22.34661 72.52606 44.55938 111.46533 50.17946 39.07308 5.62012 78.01235 5.62012 111.46534-5.62008 39.07308-16.72649 72.52607-33.45297 100.35893-61.28587 33.45297-39.07306 55.79958-83.63245 66.90595-139.43201v-61.28587c-5.62008-27.83287-11.10637-50.17947-22.34657-78.01235-11.10641-22.34659-27.8329-44.55937-50.17947-61.285858-27.83289-27.832879-61.28586-44.559368-100.35895-55.799569-27.83288-5.620101-55.79957-11.10639-89.25255-5.620101-78.01235 11.106391-139.43202 61.28586-172.885 128.191818-11.10639 27.83288-16.72649 61.28586-22.34659 89.25255 0 33.45298 5.6201 66.90596 16.72649 94.73885 22.34659 44.55936 55.79957 89.25254 105.97904 111.46532 16.72649 5.62012 33.45298 11.1064 55.79957 16.72648 122.70553 22.34661 234.17085-55.79954 250.89734-178.37127 11.10641-78.01236-22.34657-139.43203-72.52604-189.6115-100.35895-89.25255-267.62385-44.559369-312.18322 78.01235-5.6201 27.83288-16.72649 55.79958-16.72649 83.63245 5.6201 78.01235 55.79957 150.53843 133.81192 172.885 61.28586 16.72649 122.70553 5.62012 172.885-33.45298 11.10639-11.10637 22.34659-22.34657 33.45299-33.45297 61.28584-83.63246 44.55935-195.09778-44.55937-256.51746-27.83288-16.726488-55.79958-22.346588-89.25256-27.832879-22.34659-5.620101-44.55937 5.620101-66.90596 11.106391-27.83288 16.726488-50.17947 22.346588-72.52606 50.179468-27.83288 33.45298-33.45298 66.90596-39.07308 105.97904 0 55.79958 27.83288 117.08544 83.63245 144.91833 78.01235 44.55934 183.99139 11.10637 223.06447-72.52607 22.3466-55.79958 11.1064-128.19183-39.07308-172.88501-33.45298-27.83288-66.90596-39.07308-111.46533-39.07308-66.90596 5.6201-111.46533 55.79957-122.70553 122.70553-11.10639 72.52606 33.45298 139.43202 105.97904 150.53843 100.35894 16.72649 183.99138-89.25257 139.43202-178.37131-11.10638-16.72649-27.83288-39.07308-50.17947-50.17947-27.83288-11.10639-55.79957-16.72649-83.63245-11.10639-33.45298 5.6201-55.79957 27.83288-72.52606 50.17947-16.72649 27.83288-16.72649 55.79957-11.10639 83.63245 11.10639 33.45298 39.07308 61.28586 72.52606 72.52607 44.55937 16.72649 89.25255-5.62011 111.46533-39.07309 33.45298-55.79957 5.6201-117.08543-50.17947-139.43202-50.17947-16.72649-122.70553 27.83288-105.97904 89.25255 5.6201 16.72649 11.10639 39.07309 27.83288 50.17947 22.34659 16.7265 50.17947 16.7265 72.52606 11.1064 22.34659-11.1064 39.07308-33.45299 39.07308-61.28587-5.6201-16.72649-5.6201-39.07308-22.34659-50.17947-13.91644-8.36324-29.2379-11.13984-43.17107-8.34651-13.93317 2.79332-26.47803 11.15656-34.84128 25.073-5.6201 16.72649-11.10639 33.45298 9.50065 44.827 41.74932-49.10898 35.32635.40143 29.84006-16.45887v5.6201c16.72649-5.6201 22.34659-22.34659 27.83288-33.45298 5.6201 5.6201 16.72649 11.10639 16.72649 22.34659 11.10639 39.07308-27.83288 72.52606-66.90596 61.28586-33.45298-11.10639-44.55937-50.17947-39.07309-83.63245 5.62011-22.34659 22.3466-39.07308 50.17948-44.55937 33.45298-5.6201 66.90596 11.10639 83.63245 39.07308 16.72649 27.83288 16.72649 50.17947 0 78.01235-33.45298 55.79958-105.97905 55.79958-150.53841 11.10639-33.45298-44.55937-22.3466-117.08543 27.83288-144.91831 16.72648-11.10639 39.07308-16.72649 61.28586-16.72649 11.10638 0 27.83288 5.6201 39.07308 11.10639 27.83288 11.10639 39.07308 39.07308 55.79957 61.28586 5.6201 16.72649 5.6201 27.83288 5.6201 44.55937-5.6201 72.52606-72.52606 122.70554-144.91831 105.97904-83.63246-22.34659-122.70554-122.70553-72.52606-195.09778 11.10638-16.72649 22.34659-27.83288 39.07308-39.07308 78.01235-44.559372 167.2649-5.6201 200.71788 66.90596 39.07309 94.73884-39.07308 206.33797-139.43202 200.71788-27.83288-5.62012-55.79958-5.62012-78.01235-22.3466-22.34659-11.10638-27.83288-27.83287-39.07309-39.07307-66.90596-78.01235-33.45298-195.09778 55.79958-239.79097 39.07308-16.726484 83.63245-16.726484 128.19182-5.6201 94.73883 33.45298 139.43201 144.91832 94.73883 234.17087-11.10637 27.83288-33.45297 44.55935-55.79956 66.90596-22.34659 16.72649-50.17947 27.83289-78.01235 33.45298-44.55937 5.62012-89.25256-5.62009-128.19182-27.83286-94.73884-66.90598-117.08544-211.82429-22.3466-289.97045 16.7265-11.1064 27.83288-33.452984 50.17948-39.073085 33.45298-11.106392 66.90596-22.346593 105.97904-16.726492 27.83288 5.6201 55.79957 16.726492 78.01235 27.832879 16.72649 16.726488 39.07309 22.346598 50.17946 44.559368 11.10641 16.72649 27.8329 33.45298 33.45298 55.79957 22.34661 66.90596 16.72649 139.43203-27.83286 195.09781-16.72649 22.34657-33.45298 44.55934-61.28587 55.79954-22.34659 5.62012-39.07308 22.34661-61.28586 22.34661-39.07308 0-83.63245 5.62008-122.70553-11.10641-117.08543-44.55934-167.26491-195.09777-105.97905-306.69691 16.7265-33.45298 44.55937-61.285864 78.01236-83.632457 44.55936-22.34659 89.25255-33.452979 139.43202-27.832879 61.28586 5.6201 111.46532 39.07308 156.1585 83.632456 22.34661 22.34659 27.8329 50.17947 39.0731 78.01234 11.10637 16.7265 5.62008 39.07309 11.10637 61.28586 11.10645 172.88502-195.09777 301.07685-351.25629 211.82429-27.83287-16.72649-50.17946-27.8329-66.90596-50.17947-61.28586-72.52608-78.01235-167.26492-50.17947-256.51747 16.72649-33.45298 39.07309-61.28586 61.28587-89.252546 39.07308-39.073083 94.73884-55.799574 144.9183-72.526064" fill="#221b35" opacity=".9"/><path d="m731.45148 15.388371c-120.56454 21.008472-220.12061 131.001869-209.68329 256.785079 5.21867 41.88313 15.78981 78.68141 41.88314 115.34586 15.7898 15.65602 31.4458 31.44582 47.23561 47.1018 31.4458 21.0085 68.11026 41.88314 104.77473 47.23563 36.66447 5.21866 73.32893 5.21866 104.77473-5.21866 36.66447-15.65601 68.11026-31.44582 94.33742-57.67295 31.44579-36.66448 52.45425-78.68141 62.89161-131.00187v-57.67294c-5.2187-26.22714-10.43736-47.23561-21.00851-73.32894-10.43731-21.00847-26.22712-41.88313-47.10179-57.672935-26.22713-26.227136-57.67292-41.88313-94.33739-52.454272-26.22714-5.218666-52.45427-10.43733-83.90008-5.218666-73.32893 10.437332-131.00187 57.672938-162.44767 120.564543-10.43733 26.22713-15.78981 57.67294-21.00847 83.90008 0 31.44579 5.21866 62.8916 15.78981 89.11874 21.00847 41.88313 52.45427 83.90006 99.55607 104.77473 15.7898 5.21866 31.4458 10.43732 52.45427 15.65601 115.34588 21.00847 220.12062-52.45428 235.91043-167.66635 10.43732-73.32894-21.00847-131.00188-68.11026-178.23748-94.33742-83.900079-251.56643-41.883137-293.44956 73.32893-5.21867 26.22713-15.78981 52.45427-15.78981 78.68141 5.21866 73.32893 52.45427 141.573 125.78321 162.44767 57.67293 15.78981 115.34587 5.21866 162.44767-31.44578 10.43733-10.43736 21.00849-21.00849 31.4458-31.44582 57.67295-78.68141 41.88314-183.45615-41.88313-241.12909-26.22714-15.7898-52.45428-21.008465-83.90008-26.227131-21.00847-5.218666-41.88313 5.218666-62.8916 10.437331-26.22714 15.7898-47.23561 21.00847-68.11027 47.1018-26.22713 31.4458-31.4458 62.8916-36.66447 99.55606 0 52.45428 26.22714 110.12722 78.68142 136.22052 73.32893 41.88314 173.01881 10.43736 209.68327-68.11025 21.00847-52.45427 10.43736-120.56454-36.66446-162.44767-31.4458-26.22714-62.8916-36.66447-104.77473-36.66447-62.89161 5.21867-104.77474 52.45428-115.34588 115.34588-10.43733 68.11027 31.4458 131.00187 99.55607 141.57302 94.3374 15.65599 173.01881-83.90008 131.00187-167.66635-10.43733-15.7898-26.22714-36.66446-47.1018-47.2356-26.22713-10.43733-52.45427-15.656-78.68141-10.43733-31.4458 5.21866-52.45427 26.22713-68.11027 47.23561-15.7898 26.22713-15.7898 52.45427-10.43732 78.6814 10.43732 31.44581 36.66446 57.67295 68.11026 68.11027 41.88314 15.78981 83.90008-5.21866 104.77474-36.66446 31.4458-52.45428 5.21866-110.12721-47.1018-131.00187-47.23561-15.78981-115.34588 26.22713-99.55607 83.90007 5.21867 15.65599 10.43733 36.66447 26.22714 47.23561 21.00847 15.78981 47.10179 15.78981 68.11027 10.43733 21.00847-10.43733 36.66446-31.4458 36.66446-57.67294-5.21866-15.7898-5.21866-36.66447-21.00847-47.23561-13.11356-7.8949-27.5318-10.50423-40.62864-7.86145-13.09684 2.64279-24.87229 10.53769-32.70029 23.65126-5.21867 15.656-10.43733 31.4458 8.9654 42.15076 39.20689-46.70036 33.05154-.26763 27.96669-16.05744v5.21867c15.78981-5.21867 21.00847-21.00847 26.22714-31.4458 5.21866 5.21866 15.65599 10.43733 15.65599 21.00847 10.43733 36.66447-26.22714 68.11027-62.8916 57.67294-31.4458-10.43733-41.88313-47.23561-36.66447-78.68141 5.21867-21.00848 21.00847-36.66447 47.1018-41.88314 31.4458-5.21866 62.8916 10.43734 78.68141 36.66447 15.65599 26.22714 15.65599 47.23561 0 73.32893-31.4458 52.45428-99.55607 52.45428-141.57302 10.43734-31.4458-41.88313-21.00847-110.12722 26.22714-136.22054 15.78981-10.43733 36.66447-15.656 57.67294-15.656 10.43733 0 26.22714 5.21867 36.66447 10.43733 26.22713 10.43733 36.66446 36.66447 52.45427 57.67294 5.21866 15.78981 5.21866 26.22714 5.21866 41.88314-5.21866 68.11026-68.11026 115.34586-136.22053 99.55606-78.68141-21.00847-115.34588-115.34587-68.11027-183.45614 10.43733-15.656 21.00847-26.22714 36.66447-36.66447 73.32893-41.88313 157.22901-5.21866 188.67481 62.8916 36.66448 89.11874-36.66447 193.89349-131.00188 188.67483-26.22713-5.21866-52.45427-5.21866-73.32893-21.00848-21.00847-10.43734-26.22713-26.22714-36.66447-36.66447-62.8916-73.32893-31.4458-183.45615 52.45428-225.33928 36.66446-15.789805 78.68141-15.789805 120.56454-5.21866 89.11872 31.4458 131.00186 136.22053 89.11872 220.12061-10.43731 26.22714-31.44578 41.88313-52.45425 62.89162-21.00847 15.78977-47.23561 26.22712-73.32894 31.44578-41.88313 5.21866-83.90007-5.21866-120.56454-26.22712-89.11874-62.89162-110.12721-199.11215-21.00847-272.5749 15.656-10.43733 26.22714-31.445801 47.1018-36.664467 31.4458-10.437328 62.8916-21.00847 99.55607-15.655994 26.22713 5.218666 52.45427 15.655994 73.32893 26.227136 15.65599 15.789805 36.66446 21.008475 47.10181 41.883135 10.43732 15.7898 26.22713 31.4458 31.44578 52.45427 21.00847 62.8916 15.78981 131.00187-26.22712 183.45615-15.78981 21.00846-31.44582 41.88313-57.67295 52.45428-21.00847 5.21866-36.66446 21.00847-57.67294 21.00847-36.66446 0-78.68141 5.21866-115.34587-10.43735-110.12721-41.8831-157.22901-183.45614-99.55607-288.23087 15.7898-31.4458 41.88313-57.672937 73.32893-78.681407 41.88313-21.008474 83.90008-31.445802 131.00187-26.22714 57.67294 5.218666 104.77473 36.664468 146.79166 78.681417 21.00851 21.00847 26.22717 47.10179 36.66448 73.32893 10.43732 15.78981 5.21866 36.66446 10.43732 57.67293 10.43735 162.44767-183.45613 283.01222-330.24781 199.11215-26.22713-15.65601-47.23561-26.22713-62.8916-47.23563-57.67294-68.11025-73.32893-157.22899-47.23561-241.12907 15.78981-31.4458 36.66447-57.67293 57.67294-83.900069 36.66447-36.664468 89.11874-52.454275 136.22054-68.11027" opacity=".9"/></g></g><path d="m325.70085 92.18741c1.90497-8.161013 1.60485-16.448211-.125-23.427734-3.16341-12.768258-10.24993-24.427642-20.01186-34.288973l-.006-.0039-.006-.0059c-6.77026-6.82787-14.46359-12.294718-22.79687-16.15039-8.2926-4.013198-17.22741-4.83258-25.58956-5.800713-9.67743.241124-21.02773 4.161245-30.14551 13.284179-14.31233 17.833896-27.66378 37.855351-37.87598 60.375977l-23.16406.132812c-16.69776.09625-32.88403 5.89372-44.43945 18.482422-13.84178-11.009429-24.744535-23.980953-38.576179-31.953125l-.0039-.002-.0039-.002c-5.761371-3.277092-13.477983-5.042834-20.77931-5.021424-8.927399.026212-16.874211 2.739367-23.410156 6.347656-11.533358 6.367995-20.945942 16.235183-27.939453 28.172873-6.9979673 11.94842-10.99532119 25.00038-10.82226567 38.20413.18224682 13.69697 6.12701027 30.36859 21.30859367 39.19624 23.325992 14.46152 51.887644 32.84168 71.212891 53.28808-4.687391 21.06906-5.185955 42.63691-.123047 62.71094 15.867306 62.92784 62.811586 116.96795 113.285156 151.72461 25.22712 17.36915 51.26709 29.87006 75.4668 35.92969v.002h.002c24.25401 6.07136 46.44429 6.10847 64.1856-4.50881 30.6402-18.33393 49.61261-50.17931 60.75591-85.56936l8.32226-26.43164c11.01418-12.98313 18.94142-29.12789 21.78125-48.32618 4.70649-31.81861-3.76676-71.09844-28.26269-117.68456l-7.37012-12.33106c3.83689-5.20927 6.46876-11.01802 8.08985-16.63672 3.64166-12.6235 3.36364-26.25795-.14063-39.66992l-.002-.002v-.002c-3.50276-13.39606-9.90936-25.45132-19.37305-34.662106-7.39525-7.201492-17.39756-13.186085-29.80859-13.923828h-.0117-.0117c-11.74001-.290091-23.23993 4.50605-33.61133 8.552734z"/><path d="m267.05977 31.614234c-3.4183-.828073-6.08215-1.05402-9.44594-1.110471-6.09806.15194-12.00098 2.119649-17.22466 7.296845-17.46296 21.877403-34.22042 48.645006-43.60955 78.548932-10.5046 33.45481-12.00848 70.10786 5.33533 107.6519l-15.91874 7.35781c-13.42041-29.05044-16.70586-58.07088-13.6315-85.32056-7.95092 4.68011-15.39712 10.48382-22.22319 17.17666-20.98482-27.38661-46.88748-53.07845-71.769427-71.280226-1.31718-1.31305-2.81074-2.49012-4.51538-3.46084-3.16911-1.80264-6.548367-2.68239-11.827407-2.66691-5.279044.0155-10.288831 1.63522-14.76199 4.10471-8.180776 4.51691-15.521897 11.976946-21.108654 21.512556-5.58582 9.53654-8.477236 19.56455-8.355275 28.86849.123837 9.30582 3.655081 18.81423 12.577944 24.00549 26.079039 16.16467 59.914802 37.31051 81.738339 63.80612-6.17498 21.56227-7.35237 43.83266-2.46267 63.21994 14.3567 56.93696 58.56479 108.60856 106.0405 141.30086 23.73926 16.34474 48.22436 27.93528 69.63041 33.29537 21.40512 5.35821 39.28462 4.26368 50.57259-2.49293 25.47298-15.24084 42.52502-42.8019 52.8298-75.52891-6.40202 3.76097-13.2037 6.86541-20.28776 9.2608-33.56464 11.35044-73.27518 8.18973-106.59777-9.43712-33.32353-17.62685-60.1409-50.38762-66.1686-96.80981l17.38415-2.25564c5.3222 40.97675 28.05763 68.25269 56.99337 83.55918 28.93668 15.3065 64.17969 17.98888 92.76081 8.32385 28.58112-9.6641 50.35118-30.61299 55.38254-64.62679 4.15982-28.12286-3.62599-66.14711-31.75117-113.8364-17.95642 2.04462-36.27874 5.97254-53.12438 10.84492l-4.86719-16.82589c11.94281-3.45334 24.57235-6.44336 37.40923-8.70369 3.84157.15751 7.05856-.27598 10.29164-1.64132.03-.005.0582-.0253.0882-.0281-.005-.007.004-.0234 0-.03 7.71357-3.32954 12.60609-10.75956 14.92241-18.78797 2.58933-8.97568 2.53116-19.43699-.26269-30.12996-2.79572-10.69204-7.84491-19.82716-14.51337-26.31741-5.0004-4.87051-11.45871-8.44577-18.32231-8.85376-2.09773-.12193-4.21892.061-6.36356.58713-15.10146 4.62839-31.72689 10.20853-44.1685 20.66774-10.23862 8.60721-18.67746 20.22326-22.99684 32.88059-5.19969 15.23694-7.98564 31.06317-2.28724 48.24358l-16.62424 5.53923c-6.99869-21.1027-5.16458-41.57982 2.72818-60.52254 6.96586-16.72085 18.50994-32.44564 33.28976-49.020636 7.61225-7.75407 8.50725-17.820523 6.25942-26.889994-2.2469-9.069471-7.53533-18.077041-15.33333-25.954444-7.78769-7.853956-16.7068-13.234675-25.71128-15.520332zm-4.31555 17.001273c5.16928 1.313057 11.78707 5.00087 17.5624 10.845849 5.77345 5.843103 9.4473 12.553761 10.75885 17.848194 1.31155 5.296309.33774 8.232864-.93816 9.526224-1.27778 1.2943-4.00596 2.22282-9.17523.90976-5.17115-1.31305-11.78801-5.029003-17.5624-10.873982-5.77439-5.843103-9.4473-12.553761-10.76073-17.848194-1.31155-5.296309-.33773-8.203792.93817-9.497153 3.1074-1.976098 5.87522-1.739838 9.1771-.910698zm-197.365924 55.101483c1.5808.90039 3.18506 3.2864 3.25542 8.61929.0704 5.33101-1.79939 12.66443-5.9517 19.75212-4.152305 7.09051-9.676206 12.39901-14.453329 15.03638-4.777123 2.6383-7.859925 2.4526-9.440728 1.55409-1.579866-.90038-3.183185-3.28639-3.253548-8.61928-.0713-5.33101 1.79752-12.69444 5.950765-19.78307 4.152307-7.0877 9.676207-12.36806 14.45333-15.00637 3.069106-1.54101 6.23622-2.73279 9.43979-1.55316zm100.706114.58619c-12.19611.0703-24.80877 5.14625-31.89752 13.24781 6.42453 6.6994 12.63704 13.54793 18.55685 20.51745 7.36082-5.4248 15.2564-10.06365 23.63231-13.68768 1.06951-4.49253 2.29662-8.92316 3.66352-13.27688.40529-1.28961.83215-2.56046 1.26089-3.83976-4.66266-2.04461-9.89573-2.99001-15.21699-2.96zm198.24592 18.72982c3.82019 3.7197 7.71357 10.22308 9.7916 18.17083s1.89321 15.59724.38089 20.84009c-1.51044 5.24097-3.81644 7.31372-5.56893 7.79393-1.75436.48208-4.56416-.0891-8.3853-3.80787-3.82019-3.72158-7.71451-10.22496-9.7916-18.1727-2.07897-7.94775-1.89509-15.59724-.38277-20.84009 1.51232-5.24097 3.81832-7.31373 6.31337-7.5482 2.49504-.23448 4.77665.77283 7.64274 3.56401z" fill="#775fa0" stroke-width="36"/></svg>