<svg height="500" viewBox="0 0 500 500" width="500" xmlns="http://www.w3.org/2000/svg"><g transform="translate(-1000 -500)"><circle cx="1250" cy="750" fill="#8f29a3" r="250"/><path d="m1250.0521 500.09326-.061 248.75004-15.9199-248.2399a249.99917 250.18666 0 0 0 -31.6776 4.06945l45.0428 231.17052c-.102.0363-.2268.0547-.3789.0547l2.377 12.94521-.25-.53361-.5352-1.34279-3.3574-10.61339c-.1814.0698-.3456.12506-.5117.12506l-.1211.0782-83.1951-220.24831a249.99917 250.18666 0 0 0 -14.7401 6.13348l96.9 214.60543-.2187.11532 2.3047 4.43886 2.3437 5.21678.055.0488.416.7486.7461 1.26658v.0314l-.7461-1.29782-.4707-.79746-5.5273-9.21c-.1841.12151-.3808.23754-.5664.39678l-123.4077-200.53639a249.99917 250.18666 0 0 0 -34.1776 25.40763l164.5483 186.40079-.3984-.58052.832 1.02616v.0508l-.3262-.32448-.094-.12903v-.006-.002l-176.1809-175.46484a249.99917 250.18666 0 0 0 -21.0273 24.05115l186.5306 143.42536-.1425.18569 10.4687 8.26398-2.0957-1.07698-9.4082-5.66242c-.1395.18156-.2273.33335-.3066.47301l-208.0031-109.74966a249.99917 250.18666 0 0 0 -7 14.40723l214.5266 96.34337c-.074.17741-.1655.3791-.2578.59419l12.1758 4.73596-.037-.0253.5254.23653-.4863-.21109.3574.18179.2129.0802-.2129-.0508v-.0295l-12.8066-4.08117c-.056.14944-.1255.33501-.1758.5082l-224.9661-68.33223a249.99917 250.18666 0 0 0 -8.7656 41.69908l246.1613 30.77687h-1.2363l-246.3644-14.82161a249.99917 250.18666 0 0 0 -.4219 14.51082 249.99917 250.18666 0 0 0 .6113 17.47203l234.4934-16.18786h-.027l.3066-.0234-.2773.0234 12.9687-.73492-7.6699 1.8549-.3028.0508-4.789.9382.07.23845-228.2004 55.91086a249.99917 250.18666 0 0 0 4.2871 15.37279l224.173-70.26921c.093.36314.1859.69573.2793.95971l11.9648-4.46623-6.7285 3.52803-218.2141 100.03556a249.99917 250.18666 0 0 0 21.0155 36.99246l204.0072-139.70972-2.9414 2.38851-191.599 150.2058a249.99917 250.18666 0 0 0 21.2792 23.80097l164.7143-167.43742c.2793.26396.5666.50585.8359.80333l7.6309-8.62753v-.0314l.7578-.86587.1855-.23653.7754-.84633.02-.0645.057-.0272-.023.15832-.1035.11531.051-.18179-.068.18179-1.3203 1.73762.6133-1.0457-.1856.20916-.7578.89715-2.5996 3.67852-4.2753 5.57643.287.1818-133.9214 192.92518a249.99917 250.18666 0 0 0 13.3768 8.68037l121.3629-200.99764c.1115.0698.2562.1641.4043.23263l6.9082-11.76855-.2793.71929-100.1481 226.51466a249.99917 250.18666 0 0 0 40.1346 13.79743l59.6931-236.78211-1.5742 9.22563.2364.0566-42.7675 230.89101a249.99917 250.18666 0 0 0 31.6386 3.76263l12.9316-234.50119c.2415.0238.455.0234.6602.0234h.031v-12.36276l.055-.87175.3809 3.35211.6328 9.85892c.1939 0 .3385-.0234.5058-.0234l27.248 233.23258a249.99917 250.18666 0 0 0 15.7831-2.3455l-42.1484-231.0161c.254-.028.4739-.0916.707-.11531l-2.0644-10.71502-.055-.13878-.3203-1.79235.018.0295.3575 1.90182 74.3923 234.18055a249.99917 250.18666 0 0 0 39.205-16.19959l-111.1503-215.75097 4.1406 6.7179.2696-.18569 120.6715 201.44522a249.99917 250.18666 0 0 0 26.2108-18.10533l-145.5071-184.32505c.254-.18717.4204-.39029.6562-.60397l-8.457-9.554 3.3672 3.03156 5.8437 5.83834.2872-.30686 174.8256 156.82795a249.99917 250.18666 0 0 0 10.2715-12.18293l-184.478-145.35845c.1296-.15783.305-.33279.4082-.48083l-9.3632-7.21437 211.5852 126.78601a249.99917 250.18666 0 0 0 18.7245-38.19257l-229.6555-89.16613 11.0274 3.36579.012-.18569 223.9289 70.91228a249.99917 250.18666 0 0 0 7.6836-30.99187l-231.1887-41.80463c0-.16199.037-.30149.037-.44955l-7.3671-.90693-4.5508-.79941 12.0312.70755c.03-.32965.029-.62841.029-.96361l235.009 1.78454a249.99917 250.18666 0 0 0 .011-2.19892 249.99917 250.18666 0 0 0 -.3809-13.81303l-234.6691 13.37131v-.33226l-11.7754.81114-2.207.14075 2.1641-.14075h.043l242.6422-45.60435a249.99917 250.18666 0 0 0 -11.2772-41.04821l-231.0032 85.65376-.2598.0684 10.5078-4.79069c-.1716-.35894-.395-.80876-.6601-1.20402l208.1651-109.51534a249.99917 250.18666 0 0 0 -7.877-13.90491l-200.7337 122.63837-.2109-.32833-5.6211 3.9033-4.707 2.86542 9.6699-7.59747-.1446-.20719 183.392-147.45376a249.99917 250.18666 0 0 0 -29.3651-30.85701l-161.2514 182.96656-2.3184 2.37091 151.2905-195.53064a249.99917 250.18666 0 0 0 -26.4154-17.96062l-119.2496 202.94829-.094-.0664-7.0644 11.68841 5.539-12.45265c-.2748-.15364-.5655-.24794-.8711-.35962l83.404-220.18189a249.99917 250.18666 0 0 0 -15.121-5.19332l-69.2811 225.07807c-.1088-.0378-.2229-.0651-.3808-.11531l-1.8809 7.53882-1.1289 3.69807 2.1055-11.46558c-.2011-.0197-.4082-.0561-.6133-.0743l40.1268-232.08917a249.99917 250.18666 0 0 0 -42.4354-3.64138zm-1.9453 235.66215 1.0117 8.77021v.043l.8711 4.45646v.46128l.029-.16807.023.62741v.1036l-.057-.1036v-.43977l-.066.30686-.2383-.49451-.5625-4.74964zm-9.3652 5.00568 7.0859 6.37391-.025-.0197zm25.7675 6.02013-11.8261 2.9006h-.057zm-12.1504.11531-1.6269 2.78332-.3496.40069.1113-.44954-.092.20719-.02.18179-.051.10553v-.0253l.051-.0802v-.16221l.02-.0197v-.10556l.012-.0234.082-.12118v-.0234l.033-.0272.061-.1505v.0197l-.061.13096-.033.0508zm-6.5292.23849 3.3242 2.54682.3633.56682-.4493-.16807.2012.13878h-.022l-.2188-.13878h.037zm5.0331.24627-.2968 1.58908.2968-.84047-.3339 1.37603-.1016.1505.1387-.68606.2617-1.56758zm-.582.38505-.086 1.71808-.057.19351-.1172-.46715zm3.1445.7447-2.2754 1.58908h-.023l-.4121.27757-.2871.11728.2129-.27557.074-.0215.8867-.71342zm-4.0429.57856.1348.14075v.0469l-.084-.1251zm3.8633.31665h.029l-.1738.0802zm-3.5254.18179.1835.3577v.0392l-.1835-.35376zm.416.0938.02.26385v.0392l.039.0958.047.11728-.047.0215-.039-.1192.039-.0197-.039-.0605v-.0352l-.057-.26192zm2.2207.0644-.07.0272-1.0156.30686.1562-.0605zm-5.6387.0665 2.3692.40655.3457.21498.029.0606-.3124.0644zm2.1641.31271h.053l.094.0314zm.7265.19155h.02v.0196zm-.164.0606h.02l.074.0802zm.2148.1818h.024l-.024.0314zm-.3359.16808h.057l.2461.0352-.8125.32836zm-.3887.0352h.2168l-.9316.47886.2637-.0527-.025.0272-.2383.0253-2.0253.39287v.0234l-5.2422.93428 5.2422-.95774zm1.7774.0234.5078.043.7519.2228-.8457-.0841zm-.2188.16418.035.0178.1113.22088.3282.16611 1.4394 1.4034-1.3496-1.00858-.2344-.2971-.1855-.26385-.018-.0333-.092-.18766h-.035zm-1.0625.0802-.25.27364h-.029l-2.7812 1.26461 2.2988-1.41316zm1.5703.0997.1485.0253.031.0314zm.2207.0253 1.9356.60398-1.9063-.57074zm-1.1796.17201.031.1251.022-.0978-.022.13092v.006l.076.23066.125 1.89594-.2324-1.35256.031-.77402-.088.50819v-.0919l-.031-.18569.031.14272v-.26385zm.7226.0919.061.0664.088.14661-.037-.0314zm-1.1406.1818-.2442.52578-3.9492 12.85138 3.9219-12.85138h.027l.084-.28732.01-.0117zm-.088.10552-.065.11339.041-.0978zm1.4648.0802.033.0234.1152.18962-.092-.0919zm-.4375.21306.023.0295.029.22669zm-1.7304.26581v.0295l.051-.0295zm2.2929 1.35257 4.8828 10.7893-4.8828-10.73457z" fill="#aa40bf"/></g><path d="m348.81246 91.695312-13.81445.207032-.35743.01953c-34.46277 1.888217-62.06027 13.950836-84.64062 30.556646-22.57999-16.60615-50.17826-28.66845-84.64258-30.556645l-.35937-.01953-13.81055-.205078-.34961.0078c-33.6718.800279-73.297753 10.505413-121.408207 31.892593l-10.6875 4.75195v238.09375 21.09766 56.81445l25.714844-12.19531c52.719815-25.00483 90.556203-31.28665 120.183593-28.14649h.002c14.12484 1.49666 26.4617 5.11416 38.13672 10.02539 2.21604 1.56044 6.82076 4.73143 13.70312 8.61719 8.90253 5.02634 18.88387 11.24462 33.52149 11.24219 14.58589-.003 24.49603-6.19041 33.33984-11.1875 6.83008-3.85926 11.39922-7.01 13.60547-8.56446 11.74626-4.9675 24.1705-8.62475 38.40625-10.13281 29.62668-3.13938 67.46588 3.14272 120.1875 28.14844l25.71289 12.19531v-56.81445h.002v-259.19141l-10.6875-4.75195c-48.11055-21.38717-87.73737-31.0923-121.40829-31.894532z" fill="#6a1f7a"/><path d="m151.26635 109.70039c-30.5217.7254-67.931995 9.6336-114.524995 30.3462v219.03661c54.693-25.938 96.046195-33.3603 129.797995-29.78281 30.1518 3.195 53.7165 14.994 75.2058 28.06831v-218.67301c-20.89529-15.9696-45.17549-27.03599-77.37299-28.8zm184.35961.1953c-32.19571 1.76401-56.47501 12.8304-77.37121 28.8v218.67301c21.4884-13.0743 45.054-24.87331 75.2058-28.0692 33.7518-3.5766 75.105 3.8448 129.79801 29.7846v-219.03661c-46.59301-20.7126-84.00331-29.6208-114.52501-30.348zm-.39221 236.1381c-30.5388 3.23731-53.6427 16.17841-76.977 31.122-4.42041 5.81227-11.10625 5.88332-17.4672-.747-23.0094-14.5593-45.9027-27.1818-76.0212-30.375-5.0355-.5328-10.296-.79469-15.80759-.75779-28.83601.1917-64.649706 8.8002-112.218305 32.3433v38.277c54.693-25.9407 96.042605-33.3603 129.796195-29.78281 16.6905 1.76851 31.3533 6.16051 44.775 11.952 0 0 24.48695 17.83497 38.68651 17.83261 14.09766-.002 38.40289-17.71725 38.40289-17.71725 13.4963-5.85256 28.25091-10.28685 45.05571-12.06706 33.7527-3.57659 75.10319 3.84301 129.798 29.78461v-38.277c-47.844-23.679-83.8035-32.2767-112.725-32.373z" fill="#eed9f2" stroke-width="36"/><g fill="#8f29a3"><path d="m361.96785 141.71171-15.83388 41.02159-43.87098 13.34321 39.31437-1.55738-13.44652 34.84045 37.90795-54.6877 18.53345 23.76872-22.60401-56.72963zm18.6021 23.50338 13.42438 37.74595-37.76956-2.49106 63.49903 19.88269-17.16061 24.77253 47.41124-38.48404-43.15615-2.83796-26.24797-38.58737zm-45.56491 36.52441-60.92715 4.00119 32.45236 26.34061-.13838 46.91486 10.241-38.71542 30.38902 24.66883-40.32963-52.91186 28.31241-10.29858zm26.25978 7.00005c-8.26809 0-16.5395 9.57414-24.80722 28.7394 16.03945 28.61207 32.52507 31.87259 49.6137 0-8.26772-19.16452-16.53913-28.7394-24.80721-28.7394zm.14946 5.78921c4.07795 3.18117 7.01186 11.27064 7.01186 20.82818 0 9.55679-2.93391 17.647-7.01186 20.8278-4.07795-3.18117-7.01186-11.27064-7.01186-20.82817 0-9.55679 2.93391-17.647 7.01186-20.82781zm30.4573 3.90967 1.91535 66.50933-29.00511-8.14262 51.83978 32.26858-11.22192-41.07953 27.14807-38.1851-30.58462 25.60288-10.09117-36.97317zm-69.0908 31.06844-16.08815 58.89777 36.50079-22.70736 44.52751 14.55367-33.39859-21.48471 32.14162-19.99782-63.18791 20.86213-.49563-30.12294z"/><path d="m129.39314 138.21079c-.0881 3.36931-.26623 10.06813-.26623 10.06813 7.53743-.899 16.14005-1.21008 25.96535-.0598 9.90144 1.15929 19.29752 3.58547 28.7994 6.71735 8.09903 2.66949 18.54678 6.70853 23.49141 8.54629 6.02132 2.23792 9.74273 3.48109 9.74273 3.48109.0454-3.42881.10363-10.3295.10363-10.3295-7.32847-2.29943-16.48311-5.8244-26.09056-9.20664-10.05383-3.5394-19.22215-6.32168-28.81521-8.05781-18.29648-3.31127-32.93051-1.15863-32.93051-1.15863.00001.00003.00001-.00056.00001-.00056zm-69.186222 17.71322c-.04123 3.47471-.155609 10.39574-.155609 10.39574 10.621818-1.4607 21.08145-4.91096 33.888765-8.8566 11.299256-3.48103 20.248526-5.5931 20.248526-5.5931.0864-3.38145.24827-10.18303.24827-10.18303-12.19412 2.67908-19.423423 5.36061-33.887466 9.57137-5.964478 1.73638-10.421644 2.85162-14.40902 3.65429-3.670946.73899-5.933466 1.01191-5.933466 1.01191v-.00042m1.686442 21.97265c-.07927 3.47736-.270105 10.40525-.270105 10.40525 5.93915-.94827 12.122696-2.52192 19.283013-4.63643 6.406089-1.89179 11.48743-3.51095 11.48743-3.51095.09113-3.41239.249229-10.26914.249229-10.26914-5.157595 1.57157-12.701116 3.9272-19.179515 5.58125-6.42446 1.64029-11.57063 2.43013-11.57063 2.43013s.000579-.00011.000578-.00011zm44.7433-12.80403c-.0321 3.39798-.11387 10.16902-.11387 10.16902 9.28664-2.62236 20.21175-5.12297 32.30014-5.57541 12.36321-.46274 23.91049 1.26519 35.85151 4.64335 11.02698 3.11957 22.36503 7.73233 29.57617 10.6226 7.65854 3.0696 12.43184 4.89946 12.43184 4.89946.0533-3.42325.12722-10.31188.12722-10.31188-46.73064-17.00082-64.80159-27.07949-110.17301-14.44714zm108.73695 36.53947c-4.22831-1.56207-10.51589-4.0056-15.698-5.96467-5.18491-1.96011-9.27971-3.39807-9.27971-3.39807.0461 3.4317.12533 10.2943.12533 10.2943 4.91696 1.74068 9.4918 3.49547 15.54105 5.84224 5.23217 2.02981 9.48434 3.64718 9.48434 3.64718-.0476-3.46377-.17301-10.42155-.17301-10.42155zm-151.036103-.0136c-.06545 3.46785-.228658 10.38188-.228658 10.38188 8.19941-1.72501 16.031102-4.2295 26.405328-7.52447 10.180803-3.23352 19.162533-5.97701 28.777583-7.84916 18.17689-3.53922 32.69206-1.73997 32.69206-1.73997.0798-3.41122.23052-10.20738.23052-10.20738-7.59455-.77373-16.07623-.81889-25.92112.55747-9.87117 1.38003-19.23378 3.90935-28.721023 6.81458-9.158562 2.80457-17.459537 5.53534-23.480917 7.19607-6.022092 1.66093-9.753774 2.37041-9.753774 2.37041s.000001.00057.000001.00057zm113.500573-12.75301c-2.35175-.69302-4.96452-1.41531-7.8297-2.10152-2.60509-.62391-4.68392-1.03303-4.68392-1.03303-.005 3.40105-.0237 10.21982-.0237 10.21982 4.15924.84368 12.49722 3.1377 12.49722 3.1377.006-3.42595.0191-6.83293.0401-10.22297zm-49.10722 17.02681c.008 3.45048.005 10.44617.005 10.44617 7.49167-.95289 16.07869-1.33544 25.84333-.23957 9.84471 1.10484 19.26478 3.51918 28.83846 6.77594 8.80672 2.99585 18.19758 6.91349 23.9758 9.29642 6.23263 2.57033 10.14001 4.13567 10.14001 4.13567.0446-3.43032.10047-10.33305.10047-10.33305-7.79964-3.11891-17.35214-7.29882-27.17057-11.00912-10.20729-3.85725-19.53474-6.70164-29.04188-8.36891-18.19213-3.19036-32.69009-.70363-32.69009-.70363s-.00062.00008-.00062.00008zm-13.98313 2.73947c-10.79244 2.67437-19.033695 5.69412-32.148432 10.09156-5.752754 1.92893-9.956266 3.24008-13.849982 4.32007-3.546067.98356-5.740732 1.47076-5.740732 1.47076.01312 3.45626.0074 10.34811.0074 10.34811 10.500951-2.51605 20.158345-6.11231 32.586812-10.20972 10.770374-3.55077 19.240894-5.6437 19.240894-5.6437-.0245-3.48578-.0959-10.3765-.0959-10.3765s-.00001-.00058-.00001-.00058zm25.68484 22.69294c-6.519.259-13.79097 1.12142-22.31272 3.02103-8.50054 1.89489-16.69597 4.46733-24.920768 7.22641-9.726133 3.26272-13.45921 4.64688-20.47194 6.83761-5.257138 1.64229-8.515547 2.47505-8.515547 2.47505.05148 3.45018.122589 10.34061.122589 10.34061 13.053753-3.45039 32.336828-10.81607 48.121346-14.77431 15.79665-3.96127 28.23141-4.23203 28.23141-4.23203-.0773-3.68375-.25438-10.89498-.25438-10.89498 0 .0002 0 .0004.00001.00061zm77.15157 20.13118c-12.76613-4.8302-27.75498-11.29148-42.49533-15.28436-13.79761-3.73751-24.67586-4.24585-24.67586-4.24585.0546 3.59367.14232 10.93203.14232 10.93203 5.66443.37224 12.07408 1.2176 19.48623 2.90979 7.40902 1.69148 14.60576 3.94748 21.81659 6.48818 6.30419 2.22124 14.11337 5.22452 18.10317 6.73366 4.69004 1.774 7.62299 2.8401 7.62299 2.8401-.00005-3.45788-.00008-6.91574-.00011-10.37354m-19.45166 16.6359c-.0462 3.5784-.16938 10.80374-.16938 10.80374 3.06769 1.08186 7.69174 2.73455 11.59094 4.09872 3.90025 1.36452 7.06475 2.41841 7.06475 2.41841.0901-3.432.23788-10.31826.23788-10.31826-3.67947-1.32121-7.38776-2.72063-11.77097-4.38083-3.8842-1.47118-6.9538-2.62199-6.9538-2.62199s.00058.00021.00058.00021zm-134.054724 5.92585c-.12066 3.50465-.395586 10.49888-.395586 10.49888 6.410969-1.24464 12.775901-2.81563 20.452855-4.73293 6.774159-1.69183 12.128339-2.96581 12.128339-2.96581.110461-3.71031.296232-11.0068.296232-11.0068-10.706866 2.67983-21.538694 5.9242-32.48184 8.20666zm40.016024-9.87686c.0334 3.63135.0693 11.04834.0693 11.04834 7.4261-1.79786 16.23018-3.6136 25.76986-4.4897 9.73033-.89361 18.90352-.69726 28.12324.47005 8.95119 1.1333 16.90783 3.06565 22.80608 4.67619 5.8599 1.60007 9.49294 2.7842 9.49294 2.7842-.002-3.71989-.0388-11.06091-.0388-11.06091-7.39035-2.438-16.20181-5.07654-25.67679-6.80887-9.69577-1.7727-18.85885-2.38286-28.1123-1.94286-9.01212.42853-16.95704 1.81346-22.91146 3.07253-5.88552 1.24451-9.52272 2.2512-9.52272 2.2512s.00063-.00017.00063-.00017zm-39.7108 33.41381c-.03069 3.50242-.125124 10.50244-.125124 10.50244 10.972848-1.91362 27.26259-5.95633 40.577204-8.43081 13.32331-2.47609 23.74079-3.1505 23.74079-3.1505.005-4.06633-.0199-11.95784-.0199-11.95784-20.90596 1.68659-42.300167 8.64389-64.173001 13.03671z"/></g></svg>