<svg height="500" viewBox="0 0 500 500" width="500" xmlns="http://www.w3.org/2000/svg" xmlns:xlink="http://www.w3.org/1999/xlink"><radialGradient id="a" cx="249.47078" cy="256.2338" gradientTransform="matrix(.03328212 -.99999062 .99999069 .03328203 -15.063566 495.31705)" gradientUnits="userSpaceOnUse" r="131.5"><stop offset="0" stop-color="#eef2fa"/><stop offset=".52062911" stop-color="#ccd7ee"/><stop offset=".76031458" stop-color="#9db3df"/><stop offset="1" stop-color="#7896d3"/></radialGradient><filter id="b" color-interpolation-filters="sRGB" height="1.027005" width="1.021377" x="-.010688" y="-.013502"><feGaussianBlur stdDeviation="2.1796078"/></filter><g transform="translate(0 -1000)"><path d="m0 1250a250 250 0 0 1 -250 250 250 250 0 0 1 -250-250 250 250 0 0 1 250-250 250 250 0 0 1 250 250z" fill="#9db3df" stroke-linecap="round" stroke-linejoin="round" stroke-width="9.39799" transform="scale(-1 1)"/><path d="m263.85417 1289.4759c11.1612 3.7204 14.8816-7.4408 18.46913-11.0283 7.04219-8.7696 15.28021-26.0428 14.48299-54.6102-10.49685-61.1209-92.21278-68.5617-125.69638-20.1965-11.1612 18.602-11.1612 33.4836-14.8816 52.0856 0 29.7632 14.8816 52.0856 40.9244 70.6876 11.1612 11.1612 26.0428 11.1612 37.204 14.8816 70.6876 11.1612 130.214-48.3652 119.0528-119.0528-7.4408-29.7632-22.3224-59.5264-48.3652-78.1284-44.6448-29.7632-96.7304-29.7632-137.6548-3.7204-18.602 11.1612-29.7632 22.3224-40.9244 40.9244-63.2468 100.4508 26.0428 219.3708 133.9344 208.2096 22.3224 0 40.9244-11.1612 63.2468-18.602 22.3224-14.8816 44.6448-37.204 59.5264-59.5264 40.92441-78.1284 7.4408-171.0056-66.9672-215.6504-26.0428-11.1612-52.0856-22.3224-81.8488-22.3224-37.204 0-70.6876 11.1612-100.4508 33.4836-33.4836 26.0428-52.0856 59.5264-66.9672 96.7304-7.4408 14.8816-3.7204 33.4836-7.4408 52.0856 0 119.0528 126.4936 215.6504 241.69313 174.726 29.7632-14.8816 63.2468-26.0428 89.2896-52.0856 22.3224-29.7632 44.6448-59.5264 52.0856-96.7304 3.7204-26.0428 7.4408-44.6448 3.7204-70.6876-18.602-152.5364-189.60753-234.25236-319.82153-156.2568-22.3224 14.8816-44.6448 29.7632-59.5264 52.0856-29.7632 37.204-44.6448 74.408-52.0856 119.0528-18.602 137.6548 96.7304 260.2951 230.53193 260.2951 29.7632 0 63.2468-11.1612 93.01-18.602 37.204-14.8816 70.6876-33.4836 96.7304-66.9672 18.602-26.0428 29.7632-52.0856 44.6448-81.8488 11.1612-33.4836 18.602-70.6876 14.8816-104.1712-7.4408-44.6448-18.602-85.5692-44.6448-119.0528 96.59753 111.7449 44.51193 297.7649-81.8488 364.7321-22.3224 14.8816-48.3652 18.602-70.6876 26.0428-89.2896 22.3224-178.44633-14.8816-234.25233-78.1284-14.8816-14.8816-18.602-33.4836-29.7632-52.0856-48.3652-70.6876-33.4836-152.5364 3.7204-226.8116 52.0856-89.2896 159.9772-130.21396 264.01553-100.4508 63.2468 18.602 115.3324 63.2468 141.3752 126.4936 7.4408 29.7632 14.8816 59.5264 14.8816 89.2896 0 37.204-11.1612 70.6876-29.7632 104.1712-14.8816 22.3224-26.0428 40.9244-48.3652 55.806-18.602 11.1612-33.4836 18.602-52.0856 29.7632-33.4836 11.1612-70.6876 18.602-111.612 14.8816-122.7732-18.602-200.76873-148.816-156.2568-267.7359 14.8816-29.7632 29.7632-59.5264 55.806-78.1284 55.806-40.9244 119.0528-52.0856 185.88713-29.7632 100.4508 40.9244 148.816 156.2568 89.2896 245.4135-11.1612 18.602-18.602 33.4836-33.4836 48.3652-55.806 40.9244-130.214 55.806-189.60753 18.602-14.8816-14.8816-33.4836-18.602-44.6448-37.204-44.6448-66.9672-44.6448-156.2568 18.602-211.9299 63.2468-55.806 174.72593-40.9244 215.65033 37.204 7.4408 22.3224 18.602 40.9244 14.8816 66.9672 0 22.3224-11.1612 40.9244-14.8816 59.5264-26.0428 55.806-96.7304 74.408-152.5364 55.806-18.602-11.1612-40.9244-18.602-52.0856-37.204-48.3652-70.6876-7.4408-178.4463 85.5692-174.7259 22.3224 0 44.6448 14.8816 63.2468 26.0428 29.7632 22.3224 33.4836 55.806 29.7632 89.2896-11.1612 48.3652-63.2468 70.6876-111.612 59.5264-22.3224-7.4408-37.204-29.7632-44.6448-52.0856-3.7204-26.0428 3.7204-48.3652 22.3224-66.9672 33.4836-33.4836 89.2896-7.4408 96.7304 37.204-3.7204 18.602-14.8816 37.204-29.7632 52.0856" fill="#c6d2ec" opacity=".9"/><path d="m262.92407 1285.7555c10.2311 3.4546 13.68576-6.7765 17.00754-10.0982 6.37783-7.8395 13.9515-23.6512 13.15428-49.9597-9.56675-56.2046-84.77198-62.9811-115.59815-18.602-10.2311 17.1404-10.2311 30.6933-13.68576 47.8337 0 27.3715 13.68576 47.8337 37.60262 64.9741 10.2311 10.2311 23.91686 10.2311 34.14796 13.6858 64.97413 10.2311 119.58428-44.3791 109.35318-109.3532-6.77644-27.3715-20.4622-54.743-44.37905-71.7506-41.05728-27.3715-88.89099-27.3715-126.49361-3.4546-17.14041 10.2311-27.37151 20.4622-37.60261 37.6026-58.06482 92.3456 23.91686 201.6988 123.03894 191.3349 20.4622 0 37.60262-10.2311 58.06482-17.1405 20.4622-13.6857 41.05727-34.1479 54.74303-54.743 37.60261-71.7506 6.77644-157.1869-61.51947-198.2442-23.91686-10.2311-47.83372-20.4622-75.20523-20.4622-34.14796 0-64.97413 10.2311-92.21278 30.8262-30.6933 23.9169-47.83371 54.743-61.51947 88.891-6.77644 13.6858-3.45466 30.6933-6.77644 47.8337 0 109.3532 116.2625 198.2442 222.16103 160.6416 27.37151-13.6858 58.06481-23.9169 81.98167-47.8337 20.4622-27.3716 41.05727-54.7431 47.83372-88.891 3.45465-23.9169 6.77644-41.0573 3.45465-64.9742-17.14041-140.0464-174.32731-215.25168-293.9116-143.5011-20.4622 13.6858-41.05727 27.3715-54.74303 47.8337-27.37151 34.148-41.05727 68.2959-47.83371 109.3532-17.14042 126.4936 88.89098 239.3014 211.92993 239.3014 27.37151 0 58.06481-10.2311 85.43633-17.1404 34.14795-13.6857 64.97413-30.8261 88.89098-61.5194 17.14042-23.9169 27.37152-47.8338 41.05728-75.2053 10.2311-30.6933 17.14041-64.9741 13.68575-95.6674-6.77644-41.0573-17.14041-78.6599-41.05727-109.3532 88.89099 102.5768 41.05727 273.4494-75.20523 334.9689-20.4622 13.6857-44.37906 17.1404-64.97413 23.9168-81.98167 20.4622-164.09621-13.6857-215.25171-71.7505-13.68576-13.6858-17.14042-30.6933-27.37152-47.8337-44.37906-64.9742-30.6933-140.1794 3.45466-208.4753 47.83371-81.9817 146.9558-119.5843 242.62323-92.2128 58.06481 17.1404 105.89853 58.0648 129.81539 116.2625 6.77644 27.3715 13.68575 54.743 13.68575 81.9817 0 34.1479-10.2311 64.9741-27.37151 95.6674-13.68576 20.4622-23.91686 37.6026-44.37906 51.2884-17.14041 10.2311-30.6933 17.1404-47.83371 27.3715-30.82617 10.2311-64.97413 17.1404-102.57675 13.6858-112.80784-17.1405-184.55841-136.7247-143.50114-246.0779 13.68576-27.3715 27.37151-54.7431 51.28837-71.7506 51.28837-37.6026 109.35319-47.8337 170.87266-27.3715 92.21277 37.6026 136.7247 143.5011 81.98167 225.6157-10.2311 17.1404-17.14041 30.6933-30.82617 44.379-51.28837 37.6026-119.58429 51.2884-174.32732 17.1404-13.68575-13.6857-30.82617-17.1404-41.05727-34.1479-41.05727-61.5195-41.05727-143.5012 17.14042-194.7895 58.19768-51.5541 160.77443-37.8684 198.37704 33.8822 6.77644 20.4622 17.14042 37.6026 13.68576 61.5195 0 20.4622-10.2311 37.6026-13.68576 54.743-23.91686 51.2884-88.89099 68.2959-140.17936 51.2884-17.14041-10.2311-37.60261-17.1405-47.83371-34.148-44.37906-64.9741-6.77644-164.0962 78.65988-160.6416 20.4622 0 41.05728 13.6858 58.06482 23.9169 27.37151 20.4622 30.6933 51.2884 27.37151 81.9817-10.2311 44.379-58.06481 64.9741-102.57674 54.743-20.4622-6.7764-34.14796-27.3715-41.05727-47.8337-3.45466-23.9169 3.45466-44.3791 20.4622-61.5195 30.6933-30.8262 81.98167-6.7764 88.89099 34.148-3.45466 17.1404-13.68576 34.1479-27.37152 47.8337" fill="#ecf0f9" opacity=".9"/><path d="m226.91591 1287.6157c5.31486 10.4968 15.8117 5.3148 20.86082 5.3148 10.62971-1.0629 28.56735-7.4408 48.23233-28.3016 35.87528-50.624-16.7418-113.7379-74.54088-103.2411-20.99368 5.3149-31.49052 15.8117-47.30222 26.3086-20.99369 20.9937-26.30855 47.3022-20.99369 78.9256 0 15.8117 10.49684 26.3085 15.8117 36.8054 42.12024 57.7991 126.22786 57.7991 168.3481 0 15.8117-26.3086 26.30854-57.7991 20.99369-89.4225-10.49685-52.6171-47.30223-89.4225-94.60446-99.9193-20.99369-5.3149-36.80539-5.3149-57.79907 0-115.73102 26.3085-136.7247 173.5301-52.61709 241.9589 15.8117 15.8117 36.80539 20.9937 57.79907 31.4905 26.30855 5.3149 57.79907 5.3149 84.10762 0 84.10761-26.3085 126.22786-115.731 105.23417-199.8386-10.49684-26.3086-20.99369-52.6171-42.12024-73.6108-26.30855-26.3085-57.79907-42.1202-94.60446-47.3022-42.12024-5.3149-78.92563 5.3148-115.73102 20.9937-15.8117 5.3148-26.30854 20.9936-42.12024 31.4905-84.10761 84.1076-63.11393 241.9589 47.30223 294.5759 31.49053 10.4969 63.11393 26.3086 99.91931 26.3086 36.80539-5.3149 73.61078-10.4969 105.23418-31.6234 20.99368-15.8117 36.80538-26.3086 52.61708-47.3022 94.60446-120.913 31.49053-299.758-115.73101-336.5634-26.30855-5.3148-52.61709-10.4968-78.92563-5.3148-47.30223 5.3148-84.10762 20.9937-120.913 47.3022-110.41616 84.1076-115.73102 252.4557-20.99369 347.0602 20.99369 20.9937 52.61709 36.8054 78.92563 52.6171 36.80539 15.8117 73.61077 26.3085 115.73102 20.9936 31.49053-5.3148 57.79907-15.8117 89.42247-26.3085 31.49053-15.8117 63.11393-36.8054 84.10761-63.1139 26.30855-36.8054 47.30223-73.6108 52.61709-115.731-10.76259 147.4872-179.11069 242.2246-315.83539 200.1043-26.30854-5.3148-47.30223-20.9937-68.42879-31.4905-78.92562-47.3022-115.73101-136.7247-110.41615-220.8323 0-20.9937 10.49684-36.8054 15.8117-57.7991 15.8117-84.1076 84.10761-131.5427 163.03324-157.7184 99.91932-26.30852 205.15349 20.9937 257.77058 115.731 31.49052 57.7991 36.80538 126.2279 10.49684 189.3418-15.8117 26.3086-31.49053 52.6171-52.61709 73.6108-26.30854 26.3085-57.79907 42.1202-94.60446 52.6171-26.30854 5.3148-47.30223 10.4968-73.61077 5.3148-20.99368-5.3148-36.80538-10.4968-57.79907-15.8117-31.49053-15.8117-63.11393-36.8053-89.42247-68.4287-73.61078-99.9194-36.80539-247.1409 78.92563-299.758 31.49053-10.4968 63.11393-20.9937 94.60445-15.8117 68.42879 10.4969 120.91301 47.3022 152.53641 110.4162 42.12024 99.9193-5.31486 215.6503-110.41616 236.644-20.99369 5.3148-36.80539 10.4968-57.79907 10.4968-68.42879-10.4968-131.54272-52.6171-147.22155-120.913 0-20.9937-10.49684-36.8054-5.31486-57.799 15.8117-78.9257 78.92563-142.0396 163.03325-136.7247 84.10761 5.3148 152.5364 94.6044 126.22786 178.8449-10.49685 20.9937-15.8117 42.1202-36.80539 57.7991-15.8117 15.8117-36.80538 20.9937-52.61708 31.4905-57.79908 20.9937-120.91301-15.8117-147.22155-68.4288-5.31486-20.9937-15.8117-42.1202-10.49684-63.1139 15.8117-84.1076 120.913-131.5427 184.02693-63.1139 15.67883 15.6788 20.86081 41.9873 26.17567 62.981 5.31486 36.8054-15.8117 63.1139-42.12024 84.1076-42.12025 26.3086-94.60446 5.3149-120.913-36.8054-10.49685-20.9936-5.31486-47.3022 5.31485-68.4287 15.8117-20.9937 36.80539-31.4906 63.11393-31.4906 23.98451 0 41.23931 14.86 48.993 34.3086 7.53814 18.9078 6.09609 42.1526-6.87275 60.2959-15.81171 10.4968-36.80539 15.8117-57.79908 15.8117" fill="#fff" opacity=".9"/></g><g filter="url(#b)" opacity=".67" stroke-width=".585681" transform="matrix(1.5832886 .16818851 -.19341022 1.8207201 -984.30724 -173.76419)"><path d="m663.98175 153.23447c-45.50447-26.37595-84.84963-32.56812-109.68963 10.45602 24.32741-7.88232 56.90855 1.36749 93.78202 22.13678-12.786 3.42599-22.15956 15.16147-28.23156 35.03848 26.49398-20.86891 63.83999-16.9741 118.2988 29.64047 85.29724 72.94085 171.6465 137.75953 205.1265 79.77047-44.33156 13.06453-111.33176-44.94773-179.73491-103.77-34.30406-27.70361-68.4193-55.19428-99.55122-73.27222z" fill="#9db3df" opacity="1"/><path d="m697.41675 95.323347c-45.45947-26.453884-84.75963-32.724003-109.64463 10.378083 42.83507-13.928532 115.28959 20.52457 183.77132 86.77073 80.72016 77.98857 171.72444 137.80453 205.20444 79.81547-44.33156 13.06453-113.13176-41.83004-181.53491-100.65231-34.34906-27.62567-66.6193-58.31197-97.79622-76.311973z" fill="#c6d2ec" opacity=".9"/><path d="m747.36496 51.830516c-55.00917-32.071327-103.61284-43.0892918-126.11284-4.118149 42.83507-13.92853 107.42924 25.859085 179.00132 95.032613 77.89659 75.31915 168.12444 144.03992 209.97446 71.55359-44.33158 13.06453-119.30087-27.72485-183.33493-97.53462-24.02924-26.240128-52.60498-49.285492-79.52801-64.933434z" fill="#ecf0f9" opacity=".9"/><path d="m982.47542 101.62725c-22.85307 17.98268-53.51133 18.88435-97.46346-10.648341-9.86809-7.567961-19.66707-15.615634-29.40899-23.942133-76.08926-82.589531-167.39085-135.302531-200.87085-77.31347 42.83507-13.92853 105.62924 28.976776 177.20132 98.150309 77.89659 75.319145 169.92446 140.922225 211.77446 68.435895-23.0264 6.76286-54.4912-1.73851-88.97226-19.77554 12.47422-3.606 21.75778-15.18559 27.73978-34.90672z" fill="#fff" opacity=".9"/></g><path d="m249.6582 100.58984c-18.69781-.15252-37.4542 2.22331-58.5664 7.47852-58.92305 9.77771-115.620429 34.60016-162.306644 74.73047-.02471.0212-.05147.0393-.07617.0605-21.2379867 16.52085-40.876878 35.37437-58.326171 56.29688l-10.085938 12.0957 10.648438 11.60352c17.329137 18.88458 36.6426742 35.16654 58.457031 51.75586 35.140427 27.61428 76.804374 52.13109 120.056634 67.58984 32.16342 11.49551 66.29491 17.23362 100.06641 17.2168 33.76876-.0168 67.90587-5.76987 100.07031-17.32227 43.61944-15.66665 85.76876-40.38771 121.16992-68.57617l-.32031.24805c21.1936-16.10987 40.68862-29.91984 58.60938-49.44922l10.64843-11.60547-10.08593-12.09375c-17.65022-21.16344-37.53488-40.23824-59.08399-56.82613l.86133.70508c-46.96085-41.01649-104.31401-66.43557-163.98242-76.39258l1.07422.21289c-21.15224-4.86708-39.96783-7.57467-58.82813-7.72852z" fill="#7896d3"/><g stroke-width="36"><path d="m155.51761 365.25186c-41.02689-14.66338-81.298614-38.30037-115.070304-64.85081-21.43321-16.29196-39.89227988-31.89999-56.24024-49.71532 16.7979601-20.14153 35.73622-38.30936 56.24024-54.1793 44.25591-38.06525 98.229554-61.68182 154.486314-70.85903 40.49584-10.15689 68.71118-9.17583 109.51563.21317 56.60952 9.44657 110.83875 33.53336 155.10351 72.19503 20.50403 15.78342 39.44227 33.95039 56.24021 54.09194-16.34793 17.81537-34.80699 30.99849-56.24021 47.2905-33.94807 27.03142-74.64506 50.84999-116.04101 65.71804-30.13256 10.82261-62.27259 16.24552-93.99613 16.26133-31.71959.0158-63.85481-5.39209-93.99801-16.16555z" fill="#fff"/><path d="m380.97198 250a131.5 131.5 0 0 1 -131.5 131.5 131.5 131.5 0 0 1 -131.5-131.5 131.5 131.5 0 0 1 131.5-131.5 131.5 131.5 0 0 1 131.5 131.5z" fill="url(#a)"/><path d="m317.97076 250a68.5 68.5 0 0 1 -68.5 68.5 68.5 68.5 0 0 1 -68.5-68.5 68.5 68.5 0 0 1 68.5-68.5 68.5 68.5 0 0 1 68.5 68.5z" fill="#7896d3"/><path d="m322.71375 216.98679a39.5 39.5 0 0 1 -39.5 39.5 39.5 39.5 0 0 1 -39.5-39.5 39.5 39.5 0 0 1 39.5-39.5 39.5 39.5 0 0 1 39.5 39.5z" fill="#fff"/></g><path d="m249.6582 100.58984c-18.69779-.15252-37.45422 2.22331-58.5664 7.47852-58.92299 9.7777-115.620475 34.6002-162.306644 74.73047-.02471.0212-.051472.03935-.076172.06055-21.2379651 16.52083-40.876896 35.37438-58.326172 56.29687l-10.085937 12.0957 10.648437 11.60352c17.32912 18.88456 36.6426968 35.16655 58.457032 51.75586 35.140392 27.61425 76.804426 52.13111 120.056636 67.58984 32.16339 11.4955 66.29494 17.23362 100.06641 17.2168 33.76873-.0168 67.90591-5.76988 100.07031-17.32227 43.6194-15.66663 85.7688-40.38774 121.16992-68.57617l-.32031.24805c21.19358-16.10986 40.68864-29.91986 58.60938-49.44922l10.64843-11.60547-10.08593-12.09375c-17.4484-20.92145-37.09437-39.78194-58.35938-56.23633-46.81235-40.83968-103.9346-66.18919-163.37695-76.1914-20.90007-4.77753-39.54701-7.44922-58.22266-7.60157zm-.08203 17.83399c17.21636.14928 34.47084 2.743 54.87305 7.4375 56.60946 9.44656 110.8388 33.53173 155.10351 72.19336 20.50401 15.7834 39.44232 33.95222 56.24024 54.09375-16.34791 17.81535-34.80704 30.99707-56.24024 47.28906-33.94803 27.03139-74.6451 50.85071-116.04101 65.71875-30.13253 10.8226-62.27259 16.24591-93.9961 16.26172-31.71955.0158-63.85487-5.39257-93.99804-16.16602-41.02685-14.66336-81.298658-38.30115-115.070314-64.85156-21.433189-16.29194-39.89229098-31.89953-56.240235-49.71484 16.7979436-20.14151 35.736235-38.30977 56.240235-54.17969 44.255865-38.06521 98.229624-61.68217 154.486324-70.85938 20.2479-5.07844 37.42623-7.37193 54.64258-7.22265z" fill="#7896d3"/><g filter="url(#b)" opacity=".67" stroke-width=".585681" transform="matrix(1.5832886 .16818851 -.19341022 1.8207201 -984.30724 -173.76419)"><path d="m663.98175 153.23447c-45.50447-26.37595-84.84963-32.56812-109.68963 10.45602 24.32741-7.88232 56.90855 1.36749 93.78202 22.13678-12.786 3.42599-22.15956 15.16147-28.23156 35.03848 26.49398-20.86891 63.83999-16.9741 118.2988 29.64047 85.29724 72.94085 171.6465 137.75953 205.1265 79.77047-44.33156 13.06453-111.33176-44.94773-179.73491-103.77-34.30406-27.70361-68.4193-55.19428-99.55122-73.27222z" fill="#9db3df" opacity="1"/><path d="m697.41675 95.323347c-45.45947-26.453884-84.75963-32.724003-109.64463 10.378083 42.83507-13.928532 115.28959 20.52457 183.77132 86.77073 80.72016 77.98857 171.72444 137.80453 205.20444 79.81547-44.33156 13.06453-113.13176-41.83004-181.53491-100.65231-34.34906-27.62567-66.6193-58.31197-97.79622-76.311973z" fill="#c6d2ec" opacity=".9"/><path d="m747.36496 51.830516c-55.00917-32.071327-103.61284-43.0892918-126.11284-4.118149 42.83507-13.92853 107.42924 25.859085 179.00132 95.032613 77.89659 75.31915 168.12444 144.03992 209.97446 71.55359-44.33158 13.06453-119.30087-27.72485-183.33493-97.53462-24.02924-26.240128-52.60498-49.285492-79.52801-64.933434z" fill="#ecf0f9" opacity=".9"/><path d="m982.47542 101.62725c-22.85307 17.98268-53.51133 18.88435-97.46346-10.648341-9.86809-7.567961-19.66707-15.615634-29.40899-23.942133-76.08926-82.589531-167.39085-135.302531-200.87085-77.31347 42.83507-13.92853 105.62924 28.976776 177.20132 98.150309 77.89659 75.319145 169.92446 140.922225 211.77446 68.435895-23.0264 6.76286-54.4912-1.73851-88.97226-19.77554 12.47422-3.606 21.75778-15.18559 27.73978-34.90672z" fill="#fff" opacity=".9"/></g></svg>