<svg height="500" viewBox="0 0 500 500" width="500" xmlns="http://www.w3.org/2000/svg" xmlns:xlink="http://www.w3.org/1999/xlink"><radialGradient id="a" cx="1362.7291" cy="216.11429" gradientTransform="matrix(1.0000001 -.0000059 .0000001 1.0000003 -112.72927 33.893757)" gradientUnits="userSpaceOnUse" r="250"><stop offset="0" stop-color="#ff851a"/><stop offset=".42441937" stop-color="#f87000"/><stop offset=".86367416" stop-color="#f26900"/><stop offset="1" stop-color="#e55f00"/></radialGradient><filter id="b" color-interpolation-filters="sRGB" height="1.006658" width="1.008364" x="-.004182" y="-.003329"><feGaussianBlur stdDeviation=".65534154"/></filter><filter id="c" color-interpolation-filters="sRGB" height="1.005919" width="1.006084" x="-.003042" y="-.002959"><feGaussianBlur stdDeviation=".65534154"/></filter><g transform="translate(-1000)"><path d="m1500 250a250 250 0 0 1 -250 250 250 250 0 0 1 -250-250 250 250 0 0 1 250-250 250 250 0 0 1 250 250z" fill="url(#a)" stroke-linecap="round" stroke-linejoin="round" stroke-width="1.002"/><path d="m1309.2298 33.82789c128.5196 30.706851 207.8974 167.48127 169.5927 291.56949-31.3771 95.69524-112.8693 162.03793-212.5543 174.60263 153.1796-8.09118 266.0956-163.0043 218.7012-309.92978-36.4562-114.666588-154.6038-191.5214848-270.6514-169.822657-18.8526 4.215647-38.4387 10.498641-55.8829 18.694487-112.5353 47.459213-168.47522 196.206-99.9632 307.85319 57.6978 93.63045 168.5136 141.8489 267.9993 100.77239-134.92 68.97589-303.283-51.46877-311.488-201.30723-4.4167-117.68321 76.8182-219.674136 190.654-246.26040176-89.0147 9.18391126-152.6601 79.39239576-187.7408 157.21169176-38.45522 102.70317 5.2337 231.75078 109.038 294.08388 114.5107 66.1048 260.3537 29.37245 323.6836-83.60152 42.2104-77.69758 34.3514-177.62383-23.1776-249.88923-57.5404-72.257811-157.5429-102.460489-246.4118-71.877168-81.7429 30.682061-131.1298 101.133078-134.0478 190.176958.6692 92.68536 61.7912 168.55972 147.5399 198.52472 128.5549 37.82014 266.7725-70.33038 233.6823-209.88949-14.7104-64.39775-57.8855-122.14991-125.7378-141.121386-71.391-15.467036-138.9716 1.205-181.2869 64.641366-18.8995 29.2286-28.9384 85.21395-26.105 97.65297m0 0c13.5324-50.18833 30.6277-97.66354 72.2125-128.94941 53.182-38.308183 124.4576-37.093813 181.7444-.48035 50.1457 36.48017 75.4845 90.37713 72.3557 150.91678-6.6674 64.04407-38.4038 109.83277-91.6401 141.00844-63.9019 34.56125-135.3795 4.83213-189.1258-35.28385-78.8706-65.48566-79.7477-186.67235-8.9744-256.76104 63.7369-55.941605 167.0207-64.891564 238.7167-6.65053 78.8163 58.35315 90.3045 169.04089 40.972 246.62443-35.2274 56.41892-88.4571 87.60135-152.5581 93.63158-81.9488 2.18264-160.666-41.91503-196.8695-120.9383-36.2055-79.02511-22.5771-164.33167 26.8727-227.66064 49.4316-63.30896 138.3491-86.746364 220.4504-67.54202" fill="#c50"/></g><path d="m118.69103-50 72.70923 153.9262-14.58 3.6-45.9-33.299994 39.06 55.799994 30.6-6.57 23.58 49.95 67.77-39.06c15.84 24.03 28.8 43.29 41.58 65.43l-19.71 12.6-62.64-23.49 64.44 51.3c28.8-22.95-.09-.09 28.8-23.13l75.15 216.09c-69.66-21.24-146.07-44.01-208.62-66.33-18.81-12.33-38.88-28.53-54.54-45.36l39.33-16.29-73.08-115.65-21.67202 44.37-150.96824-212.956199v29.069999l153.62324 216.6462 20.90702-42.66 46.26 73.26-42.21 17.46c34.74 41.58 81 77.13 123.93 100.98l-124.11-1.8 14.04-35.64-59.796019-29.7 6.471-27.09 41.895019-37.71-44.784019 17.37-136.226241-162.22023v26.19l123.923241 147.55023-10.737 45 57.923999 28.8c-5.22 17.55-13.5 32.94-22.940999 48.33l-40.086-18.81 38.817 51.03 27.180019-36.36 117.36 1.71-43.83 16.02 130.23 1.53c50.85 18.99 101.25 30.06 139.23 31.59-1.08-27.36-7.11-61.2-17.46-96.93l10.26-138.15-20.25 28.17-6.03-145.44 28.89-16.29-14.94-50.219994-6.48 39.239994c-20.61 11.61-40.23 22.743-60.93 34.2l-103.0626-186.0562h-19.26l115.7526 208.9162 43.47-24.03 2.88 70.29-15.21-.36-3.78-44.1-16.38 53.55 36.36 14.76 3.51 85.32c-33.48-71.01-79.11-129.96-117.99-188.55l1.98-42.479995-66.24-9.899999 47.97 25.199999-4.41 19.889995-54.09 31.23-94.30923-199.7362z" fill="#ffa348" filter="url(#c)" opacity=".5"/><path d="m419.55026 433.1462-81.51844-55.27224-65.8297-6.23231 17.43813-11.07534-82.04706-29.34481 33.96204-7.08456-130.49527-64.49917-26.607211 19.80032-39.84474-34.02423 38.495859 9.9918c18.971212-14.13001 37.104902-27.54855 55.972782-41.82288l-55.220682-73.04371-40.380975-20.04982 48.192423 2.44503 70.969304 93.91466-39.59538 29.98813 63.08122 31.14063 5.83979-14.04886-38.77696-21.34117 55.5913 6.74644-1.25532 39.22156 76.56402 37.81234c-51.32863-59.40288-86.70591-125.02032-124.49179-184.32184l-39.63231-15.41914 17.81634-64.562574 3.57869 54.068044 19.96926 4.03596 50.48387-36.775281-67.76153-78.5097619-35.30672-17.6731191 42.86265.64418 34.64893 40.186494 9.20395-11.866912-11.82212-55.461129 35.16263 58.334481-18.41608 25.305586 36.09376 41.812203-63.18926 46.103939c15.54049 24.22477 27.88899 43.88244 42.94298 64.54364l19.51112-12.90583 3.93418-66.78377 20.75579 79.70823c-32.65835 17.01689-.0458-.11877-32.82288 16.94389l67.88872 87.96521 36.92655 16.73713v-51.36236z" fill="#ffa348" filter="url(#b)" opacity=".5"/><path d="m-95.898437-143.57812-12.703123 13.84375-46.45117 50.621089 383.86914 384.324221-12.13086 2.49023-22.50586 62.93164 258.82031 99.26172-99.54883-258.34375-62.6875 21.97656-1.62305 7.93164z" fill="#994100"/><g fill="#ffa348"><path d="m-95.339073-117.56415 395.403903 395.4039 6.28625-30.70347 36.58035-12.82419 78.71712 204.2794-204.59478-78.46442 13.17091-36.829 34.93574-7.1697-395.2992-395.768578z" stroke-width="36"/><path d="m118.69103-50 72.70923 153.9262-14.58 3.6-45.9-33.299994 39.06 55.799994 30.6-6.57 23.58 49.95 67.77-39.06c15.84 24.03 28.8 43.29 41.58 65.43l-19.71 12.6-62.64-23.49 64.44 51.3c28.8-22.95-.09-.09 28.8-23.13l75.15 216.09c-69.66-21.24-146.07-44.01-208.62-66.33-18.81-12.33-38.88-28.53-54.54-45.36l39.33-16.29-73.08-115.65-21.67202 44.37-150.96824-212.956199v29.069999l153.62324 216.6462 20.90702-42.66 46.26 73.26-42.21 17.46c34.74 41.58 81 77.13 123.93 100.98l-124.11-1.8 14.04-35.64-59.796019-29.7 6.471-27.09 41.895019-37.71-44.784019 17.37-136.226241-162.22023v26.19l123.923241 147.55023-10.737 45 57.923999 28.8c-5.22 17.55-13.5 32.94-22.940999 48.33l-40.086-18.81 38.817 51.03 27.180019-36.36 117.36 1.71-43.83 16.02 130.23 1.53c50.85 18.99 101.25 30.06 139.23 31.59-1.08-27.36-7.11-61.2-17.46-96.93l10.26-138.15-20.25 28.17-6.03-145.44 28.89-16.29-14.94-50.219994-6.48 39.239994c-20.61 11.61-40.23 22.743-60.93 34.2l-103.0626-186.0562h-19.26l115.7526 208.9162 43.47-24.03 2.88 70.29-15.21-.36-3.78-44.1-16.38 53.55 36.36 14.76 3.51 85.32c-33.48-71.01-79.11-129.96-117.99-188.55l1.98-42.479995-66.24-9.899999 47.97 25.199999-4.41 19.889995-54.09 31.23-94.30923-199.7362z" filter="url(#c)" opacity=".5"/><path d="m419.55026 433.1462-81.51844-55.27224-65.8297-6.23231 17.43813-11.07534-82.04706-29.34481 33.96204-7.08456-130.49527-64.49917-26.607211 19.80032-39.84474-34.02423 38.495859 9.9918c18.971212-14.13001 37.104902-27.54855 55.972782-41.82288l-55.220682-73.04371-40.380975-20.04982 48.192423 2.44503 70.969304 93.91466-39.59538 29.98813 63.08122 31.14063 5.83979-14.04886-38.77696-21.34117 55.5913 6.74644-1.25532 39.22156 76.56402 37.81234c-51.32863-59.40288-86.70591-125.02032-124.49179-184.32184l-39.63231-15.41914 17.81634-64.562574 3.57869 54.068044 19.96926 4.03596 50.48387-36.775281-67.76153-78.5097619-35.30672-17.6731191 42.86265.64418 34.64893 40.186494 9.20395-11.866912-11.82212-55.461129 35.16263 58.334481-18.41608 25.305586 36.09376 41.812203-63.18926 46.103939c15.54049 24.22477 27.88899 43.88244 42.94298 64.54364l19.51112-12.90583 3.93418-66.78377 20.75579 79.70823c-32.65835 17.01689-.0458-.11877-32.82288 16.94389l67.88872 87.96521 36.92655 16.73713v-51.36236z" filter="url(#b)" opacity=".5"/></g><path d="m359.5 414.75781 62.14844 23.83399-2.09766-5.44532c-19.55155-5.96145-39.89144-12.22993-60.05078-18.38867z" fill="#ff851a" opacity=".75"/><path d="m126.20898 103.98438-6.24804 22.64257 39.63281 15.41993c37.78584 59.30146 73.16361 124.91749 124.49219 184.32031l-20.20117-9.97657-26.85157 5.51172 4.52149 2.23438-12.56641 2.62109-3.8418 10.74024 64.49414 23.06836-17.43945 11.07617 65.83008 6.23047 81.51953 55.27343-.00195-.0039-87.12695-166.02735v51.36329l-36.92579-16.73829-67.88867-87.96484c5.52757-2.87747 3.10027-1.59733 5.53516-2.85742l-15.22266-15.22266-1.6914 1.11719c-2.33869-3.20978-4.52761-6.38418-6.75782-9.56641zm-55.054683 17.9082 81.033203 81.1289-60.519531-80.08789zm125.865233 126.01367 11.4375 11.45117.32031-10.02344z" fill="#ff851a" opacity=".75"/></svg>