<svg height="500" viewBox="0 0 500 500" width="500" xmlns="http://www.w3.org/2000/svg" xmlns:xlink="http://www.w3.org/1999/xlink"><filter id="a" color-interpolation-filters="sRGB" height="1.024" width="1.024" x="-.012" y="-.012"><feGaussianBlur stdDeviation="2.5000055"/></filter><mask id="b" maskUnits="userSpaceOnUse"><g><path d="m0 0h500v500h-500z" fill="#bfbfbf"/><path d="m93.058192 499.96677c-31.565745-.59106-63.256384-5.80734-93.058193-15.19425v-50.8933c37.311383 20.65649 84.760959 31.84 132.082551 30.24096 25.29852-.74362 51.45926-5.46745 78.23639-10.62128 26.83744-5.25255 54.53191-11.17958 83.30202-14.30915 71.9733-7.71309 145.41213 4.27457 206.37904 31.56862v4.27798c-63.67808-22.54288-136.03053-27.99394-201.50095-15.48926-26.0233 4.91755-51.53586 12.61692-78.04873 20.06234-26.39777 7.50245-54.06064 14.75617-84.05255 18.29213-11.25266 1.28181-22.7432 1.95947-34.14639 2.06521-3.088295.0306-6.102337.0614-9.193188 0zm406.941808-65.055c-37.27872-20.58106-84.66361-31.68947-131.895-30.0934-25.2984.74361-51.45925 5.46744-78.23627 10.62127-26.83745 5.25256-54.53192 11.03213-83.30213 14.1616-72.06032 7.72245-145.556068-4.24107-206.566601-31.56862v-4.13053c63.715639 22.58872 136.165431 28.00394 201.688511 15.48936 26.02341-4.91766 51.53585-12.61691 78.04883-20.06234 26.39798-7.50234 54.06064-14.75617 84.05256-18.29202 45.33744-5.16447 92.74638-.75362 136.2101 12.83394v51.04085zm-406.941808-57.97415c-31.565745-.57957-63.256384-5.69936-93.058193-15.0467v-51.04085c37.311383 20.65649 84.760959 31.84 132.082551 30.24095 25.29852-.74361 51.45926-5.46744 78.23639-10.62127 26.83744-5.25256 54.53191-11.03202 83.30202-14.1616 71.9733-7.71308 145.41213 4.16373 206.37904 31.42107v4.27798c-63.67808-22.54288-136.03053-27.99384-201.50095-15.48926-26.0233 4.91766-51.53586 12.61691-78.04873 20.06234-26.39777 7.50234-54.06064 14.75617-84.05255 18.29213-11.25266 1.28181-22.7432 1.95947-34.14639 2.06521-3.088295.0306-6.102337.0536-9.193188 0zm406.941808-65.055c-37.27872-20.58128-84.66361-31.68957-131.895-30.0934-25.2984.74361-51.45925 5.46744-78.23627 10.62117-26.83745 5.25255-54.53192 11.03212-83.30213 14.16159-72.06032 7.72245-145.556068-4.24096-206.566601-31.56862v-4.13042c63.715639 22.58862 136.165431 28.00394 201.688511 15.48915 26.02341-4.91745 51.53585-12.61681 78.04883-20.06234 26.39798-7.50234 54.06064-14.75617 84.05256-18.29202 45.33744-5.16447 92.74638-.75362 136.2101 12.83393zm-406.941808-57.97415c-31.565745-.57957-63.256384-5.69925-93.058193-15.0467v-51.04085c37.311383 20.65649 84.760959 31.84 132.082551 30.24095 25.29852-.74361 51.45926-5.46744 78.23639-10.62117 26.83744-5.25255 54.53191-11.03202 83.30202-14.16159 71.9733-7.71309 145.41213 4.16372 206.37904 31.42106v4.27798c-63.67808-22.54287-136.03053-27.99383-201.50095-15.48925-26.0233 4.91744-51.53586 12.61691-78.04873 20.06234-26.39777 7.50234-54.06064 14.75606-84.05255 18.29202-11.25266 1.28181-22.7432 1.95947-34.14639 2.06521-3.088295.0306-6.102337.0536-9.193188 0zm406.941808-65.055c-37.27872-20.58128-84.66361-31.68947-131.895-30.0934-25.2984.74362-51.45925 5.46744-78.23627 10.62117-26.83756 5.25255-54.53192 11.03202-83.30213 14.16159-72.06032 7.72245-145.556068-4.24096-206.566601-31.56861v-4.13043c63.715639 22.58862 136.165431 28.00393 201.688511 15.48915 26.0233-4.91755 51.53585-12.61691 78.04883-20.06234 26.39777-7.50234 54.06064-14.75606 84.05256-18.29202 45.33744-5.16447 92.74638-.75362 136.2101 12.83404zm-406.941808-57.97415c-31.565745-.57957-63.256384-5.69925-93.058193-15.0467v-51.04085c37.311383 20.65649 84.760959 31.840001 132.082551 30.240958 25.29851-.743617 51.45926-5.467447 78.23639-10.621277 26.83744-5.252553 54.53191-11.032021 83.30202-14.161596 71.9733-7.713085 145.41213 4.163724 206.37904 31.421175v4.27798c-63.67808-22.542878-136.03053-27.993835-201.50095-15.489367-26.0233 4.91766-51.53586 12.616917-78.04873 20.062337-26.39777 7.50234-54.06064 14.75617-84.05255 18.29203-11.25266 1.2818-22.7432 1.95946-34.14639 2.06521-3.088295.0306-6.102337.0536-9.193188 0zm406.941808-65.054997c-37.27872-20.58117-84.66361-31.689468-131.895-30.093404-25.2984.743617-51.45904 5.467447-78.23627 10.621277-26.83745 5.252553-54.53192 11.179574-83.30213 14.309149-72.06032 7.722447-145.556068-4.351915-206.566601-31.716171v-4.130532c63.715639 22.588617 136.165431 28.003937 201.688511 15.489256 26.02341-4.91766 51.53585-12.616915 78.04883-20.062341 26.39798-7.502447 54.06064-14.608724 84.05256-18.144575 45.33744-5.164468 92.74638-.753617 136.2101 12.834043z" fill="#fff" filter="url(#a)"/></g></mask><g transform="translate(0 -1000)"><path d="m0 1250a250 250 0 0 1 -250 250 250 250 0 0 1 -250-250 250 250 0 0 1 250-250 250 250 0 0 1 250 250z" fill="#9db3df" stroke-linecap="round" stroke-linejoin="round" stroke-width="9.39799" transform="scale(-1 1)"/><path d="m263.85417 1289.4759c11.1612 3.7204 14.8816-7.4408 18.46913-11.0283 7.04219-8.7696 15.28021-26.0428 14.48299-54.6102-10.49685-61.1209-92.21278-68.5617-125.69638-20.1965-11.1612 18.602-11.1612 33.4836-14.8816 52.0856 0 29.7632 14.8816 52.0856 40.9244 70.6876 11.1612 11.1612 26.0428 11.1612 37.204 14.8816 70.6876 11.1612 130.214-48.3652 119.0528-119.0528-7.4408-29.7632-22.3224-59.5264-48.3652-78.1284-44.6448-29.7632-96.7304-29.7632-137.6548-3.7204-18.602 11.1612-29.7632 22.3224-40.9244 40.9244-63.2468 100.4508 26.0428 219.3708 133.9344 208.2096 22.3224 0 40.9244-11.1612 63.2468-18.602 22.3224-14.8816 44.6448-37.204 59.5264-59.5264 40.92441-78.1284 7.4408-171.0056-66.9672-215.6504-26.0428-11.1612-52.0856-22.3224-81.8488-22.3224-37.204 0-70.6876 11.1612-100.4508 33.4836-33.4836 26.0428-52.0856 59.5264-66.9672 96.7304-7.4408 14.8816-3.7204 33.4836-7.4408 52.0856 0 119.0528 126.4936 215.6504 241.69313 174.726 29.7632-14.8816 63.2468-26.0428 89.2896-52.0856 22.3224-29.7632 44.6448-59.5264 52.0856-96.7304 3.7204-26.0428 7.4408-44.6448 3.7204-70.6876-18.602-152.5364-189.60753-234.25236-319.82153-156.2568-22.3224 14.8816-44.6448 29.7632-59.5264 52.0856-29.7632 37.204-44.6448 74.408-52.0856 119.0528-18.602 137.6548 96.7304 260.2951 230.53193 260.2951 29.7632 0 63.2468-11.1612 93.01-18.602 37.204-14.8816 70.6876-33.4836 96.7304-66.9672 18.602-26.0428 29.7632-52.0856 44.6448-81.8488 11.1612-33.4836 18.602-70.6876 14.8816-104.1712-7.4408-44.6448-18.602-85.5692-44.6448-119.0528 96.59753 111.7449 44.51193 297.7649-81.8488 364.7321-22.3224 14.8816-48.3652 18.602-70.6876 26.0428-89.2896 22.3224-178.44633-14.8816-234.25233-78.1284-14.8816-14.8816-18.602-33.4836-29.7632-52.0856-48.3652-70.6876-33.4836-152.5364 3.7204-226.8116 52.0856-89.2896 159.9772-130.21396 264.01553-100.4508 63.2468 18.602 115.3324 63.2468 141.3752 126.4936 7.4408 29.7632 14.8816 59.5264 14.8816 89.2896 0 37.204-11.1612 70.6876-29.7632 104.1712-14.8816 22.3224-26.0428 40.9244-48.3652 55.806-18.602 11.1612-33.4836 18.602-52.0856 29.7632-33.4836 11.1612-70.6876 18.602-111.612 14.8816-122.7732-18.602-200.76873-148.816-156.2568-267.7359 14.8816-29.7632 29.7632-59.5264 55.806-78.1284 55.806-40.9244 119.0528-52.0856 185.88713-29.7632 100.4508 40.9244 148.816 156.2568 89.2896 245.4135-11.1612 18.602-18.602 33.4836-33.4836 48.3652-55.806 40.9244-130.214 55.806-189.60753 18.602-14.8816-14.8816-33.4836-18.602-44.6448-37.204-44.6448-66.9672-44.6448-156.2568 18.602-211.9299 63.2468-55.806 174.72593-40.9244 215.65033 37.204 7.4408 22.3224 18.602 40.9244 14.8816 66.9672 0 22.3224-11.1612 40.9244-14.8816 59.5264-26.0428 55.806-96.7304 74.408-152.5364 55.806-18.602-11.1612-40.9244-18.602-52.0856-37.204-48.3652-70.6876-7.4408-178.4463 85.5692-174.7259 22.3224 0 44.6448 14.8816 63.2468 26.0428 29.7632 22.3224 33.4836 55.806 29.7632 89.2896-11.1612 48.3652-63.2468 70.6876-111.612 59.5264-22.3224-7.4408-37.204-29.7632-44.6448-52.0856-3.7204-26.0428 3.7204-48.3652 22.3224-66.9672 33.4836-33.4836 89.2896-7.4408 96.7304 37.204-3.7204 18.602-14.8816 37.204-29.7632 52.0856" fill="#c6d2ec" opacity=".9"/><path d="m262.92407 1285.7555c10.2311 3.4546 13.68576-6.7765 17.00754-10.0982 6.37783-7.8395 13.9515-23.6512 13.15428-49.9597-9.56675-56.2046-84.77198-62.9811-115.59815-18.602-10.2311 17.1404-10.2311 30.6933-13.68576 47.8337 0 27.3715 13.68576 47.8337 37.60262 64.9741 10.2311 10.2311 23.91686 10.2311 34.14796 13.6858 64.97413 10.2311 119.58428-44.3791 109.35318-109.3532-6.77644-27.3715-20.4622-54.743-44.37905-71.7506-41.05728-27.3715-88.89099-27.3715-126.49361-3.4546-17.14041 10.2311-27.37151 20.4622-37.60261 37.6026-58.06482 92.3456 23.91686 201.6988 123.03894 191.3349 20.4622 0 37.60262-10.2311 58.06482-17.1405 20.4622-13.6857 41.05727-34.1479 54.74303-54.743 37.60261-71.7506 6.77644-157.1869-61.51947-198.2442-23.91686-10.2311-47.83372-20.4622-75.20523-20.4622-34.14796 0-64.97413 10.2311-92.21278 30.8262-30.6933 23.9169-47.83371 54.743-61.51947 88.891-6.77644 13.6858-3.45466 30.6933-6.77644 47.8337 0 109.3532 116.2625 198.2442 222.16103 160.6416 27.37151-13.6858 58.06481-23.9169 81.98167-47.8337 20.4622-27.3716 41.05727-54.7431 47.83372-88.891 3.45465-23.9169 6.77644-41.0573 3.45465-64.9742-17.14041-140.0464-174.32731-215.25168-293.9116-143.5011-20.4622 13.6858-41.05727 27.3715-54.74303 47.8337-27.37151 34.148-41.05727 68.2959-47.83371 109.3532-17.14042 126.4936 88.89098 239.3014 211.92993 239.3014 27.37151 0 58.06481-10.2311 85.43633-17.1404 34.14795-13.6857 64.97413-30.8261 88.89098-61.5194 17.14042-23.9169 27.37152-47.8338 41.05728-75.2053 10.2311-30.6933 17.14041-64.9741 13.68575-95.6674-6.77644-41.0573-17.14041-78.6599-41.05727-109.3532 88.89099 102.5768 41.05727 273.4494-75.20523 334.9689-20.4622 13.6857-44.37906 17.1404-64.97413 23.9168-81.98167 20.4622-164.09621-13.6857-215.25171-71.7505-13.68576-13.6858-17.14042-30.6933-27.37152-47.8337-44.37906-64.9742-30.6933-140.1794 3.45466-208.4753 47.83371-81.9817 146.9558-119.5843 242.62323-92.2128 58.06481 17.1404 105.89853 58.0648 129.81539 116.2625 6.77644 27.3715 13.68575 54.743 13.68575 81.9817 0 34.1479-10.2311 64.9741-27.37151 95.6674-13.68576 20.4622-23.91686 37.6026-44.37906 51.2884-17.14041 10.2311-30.6933 17.1404-47.83371 27.3715-30.82617 10.2311-64.97413 17.1404-102.57675 13.6858-112.80784-17.1405-184.55841-136.7247-143.50114-246.0779 13.68576-27.3715 27.37151-54.7431 51.28837-71.7506 51.28837-37.6026 109.35319-47.8337 170.87266-27.3715 92.21277 37.6026 136.7247 143.5011 81.98167 225.6157-10.2311 17.1404-17.14041 30.6933-30.82617 44.379-51.28837 37.6026-119.58429 51.2884-174.32732 17.1404-13.68575-13.6857-30.82617-17.1404-41.05727-34.1479-41.05727-61.5195-41.05727-143.5012 17.14042-194.7895 58.19768-51.5541 160.77443-37.8684 198.37704 33.8822 6.77644 20.4622 17.14042 37.6026 13.68576 61.5195 0 20.4622-10.2311 37.6026-13.68576 54.743-23.91686 51.2884-88.89099 68.2959-140.17936 51.2884-17.14041-10.2311-37.60261-17.1405-47.83371-34.148-44.37906-64.9741-6.77644-164.0962 78.65988-160.6416 20.4622 0 41.05728 13.6858 58.06482 23.9169 27.37151 20.4622 30.6933 51.2884 27.37151 81.9817-10.2311 44.379-58.06481 64.9741-102.57674 54.743-20.4622-6.7764-34.14796-27.3715-41.05727-47.8337-3.45466-23.9169 3.45466-44.3791 20.4622-61.5195 30.6933-30.8262 81.98167-6.7764 88.89099 34.148-3.45466 17.1404-13.68576 34.1479-27.37152 47.8337" fill="#ecf0f9" opacity=".9"/><path d="m226.91591 1287.6157c5.31486 10.4968 15.8117 5.3148 20.86082 5.3148 10.62971-1.0629 28.56735-7.4408 48.23233-28.3016 35.87528-50.624-16.7418-113.7379-74.54088-103.2411-20.99368 5.3149-31.49052 15.8117-47.30222 26.3086-20.99369 20.9937-26.30855 47.3022-20.99369 78.9256 0 15.8117 10.49684 26.3085 15.8117 36.8054 42.12024 57.7991 126.22786 57.7991 168.3481 0 15.8117-26.3086 26.30854-57.7991 20.99369-89.4225-10.49685-52.6171-47.30223-89.4225-94.60446-99.9193-20.99369-5.3149-36.80539-5.3149-57.79907 0-115.73102 26.3085-136.7247 173.5301-52.61709 241.9589 15.8117 15.8117 36.80539 20.9937 57.79907 31.4905 26.30855 5.3149 57.79907 5.3149 84.10762 0 84.10761-26.3085 126.22786-115.731 105.23417-199.8386-10.49684-26.3086-20.99369-52.6171-42.12024-73.6108-26.30855-26.3085-57.79907-42.1202-94.60446-47.3022-42.12024-5.3149-78.92563 5.3148-115.73102 20.9937-15.8117 5.3148-26.30854 20.9936-42.12024 31.4905-84.10761 84.1076-63.11393 241.9589 47.30223 294.5759 31.49053 10.4969 63.11393 26.3086 99.91931 26.3086 36.80539-5.3149 73.61078-10.4969 105.23418-31.6234 20.99368-15.8117 36.80538-26.3086 52.61708-47.3022 94.60446-120.913 31.49053-299.758-115.73101-336.5634-26.30855-5.3148-52.61709-10.4968-78.92563-5.3148-47.30223 5.3148-84.10762 20.9937-120.913 47.3022-110.41616 84.1076-115.73102 252.4557-20.99369 347.0602 20.99369 20.9937 52.61709 36.8054 78.92563 52.6171 36.80539 15.8117 73.61077 26.3085 115.73102 20.9936 31.49053-5.3148 57.79907-15.8117 89.42247-26.3085 31.49053-15.8117 63.11393-36.8054 84.10761-63.1139 26.30855-36.8054 47.30223-73.6108 52.61709-115.731-10.76259 147.4872-179.11069 242.2246-315.83539 200.1043-26.30854-5.3148-47.30223-20.9937-68.42879-31.4905-78.92562-47.3022-115.73101-136.7247-110.41615-220.8323 0-20.9937 10.49684-36.8054 15.8117-57.7991 15.8117-84.1076 84.10761-131.5427 163.03324-157.7184 99.91932-26.30852 205.15349 20.9937 257.77058 115.731 31.49052 57.7991 36.80538 126.2279 10.49684 189.3418-15.8117 26.3086-31.49053 52.6171-52.61709 73.6108-26.30854 26.3085-57.79907 42.1202-94.60446 52.6171-26.30854 5.3148-47.30223 10.4968-73.61077 5.3148-20.99368-5.3148-36.80538-10.4968-57.79907-15.8117-31.49053-15.8117-63.11393-36.8053-89.42247-68.4287-73.61078-99.9194-36.80539-247.1409 78.92563-299.758 31.49053-10.4968 63.11393-20.9937 94.60445-15.8117 68.42879 10.4969 120.91301 47.3022 152.53641 110.4162 42.12024 99.9193-5.31486 215.6503-110.41616 236.644-20.99369 5.3148-36.80539 10.4968-57.79907 10.4968-68.42879-10.4968-131.54272-52.6171-147.22155-120.913 0-20.9937-10.49684-36.8054-5.31486-57.799 15.8117-78.9257 78.92563-142.0396 163.03325-136.7247 84.10761 5.3148 152.5364 94.6044 126.22786 178.8449-10.49685 20.9937-15.8117 42.1202-36.80539 57.7991-15.8117 15.8117-36.80538 20.9937-52.61708 31.4905-57.79908 20.9937-120.91301-15.8117-147.22155-68.4288-5.31486-20.9937-15.8117-42.1202-10.49684-63.1139 15.8117-84.1076 120.913-131.5427 184.02693-63.1139 15.67883 15.6788 20.86081 41.9873 26.17567 62.981 5.31486 36.8054-15.8117 63.1139-42.12024 84.1076-42.12025 26.3086-94.60446 5.3149-120.913-36.8054-10.49685-20.9936-5.31486-47.3022 5.31485-68.4287 15.8117-20.9937 36.80539-31.4906 63.11393-31.4906 23.98451 0 41.23931 14.86 48.993 34.3086 7.53814 18.9078 6.09609 42.1526-6.87275 60.2959-15.81171 10.4968-36.80539 15.8117-57.79908 15.8117" fill="#fff" opacity=".9"/></g><g mask="url(#b)" opacity=".95"><path d="m339.0293 368.79297c8.01068 7.53704 17.77821 13.21328 27.93164 17.19726 19.19234 7.53068 41.111 9.92983 60.60351.50782 16.66074-8.05341 27.35531-22.71378 33.28125-38.01953 5.92596-15.30577 7.45634-31.57222 8.7793-47.67774 1.48924-39.20682-1.88621-75.79965-12.47461-110.49414-7.84504-25.74438-18.73303-55.15979-35.13477-76.79102-9.00559-12.14289-50.86917-13.903221-62.69726-13.26562-20.93833-6.216777-45.05293-7.946765-60.21068-7.454426-19.3495.664281-42.5417 9.889536-60.20534 16.659506-55.57726-.10637-101.44702 10.15961-135.20312 25.44336-34.491887 15.61687-58.665587 35.17406-63.147462 63.20703-2.71165 37.03641-3.750752 74.27222-3.620117 110.20898-1.344022 13.59707 13.69061 20.12351 23.787109 29.01563 2.717706 27.77156-.0624 53.56065-1.46875 80.28125 15.765033 10.64516 35.646477 15.87539 52.42969 15.96484 11.47092-.5326 24.42543-1.43289 32.95312-7.39062 13.23056 7.38482 27.07904 7.67398 38.73633 6.44336 12.34018-1.60537 24.41642-4.68321 29.91797-15.36329 4.23975 7.00771 11.33349 11.1244 16.99023 13.21876 21.99803 5.0367 48.90805 6.44323 70.40039 5.30078 10.86365-.90691 21.4079-2.78291 28.97461-9.18946 3.48276-2.99896 7.19576-8.19043 8.16211-15.41015.57732-14.69847 1.01295-28.52977 1.21485-42.39258zm46.77343-82.25586c-5.95924-4.30405-13.77289-7.82296-24.05664-5.76172l8.27149-16.73828c7.88129 6.62151 20.12763 13.82142 29.74609 18.76562.30368 8.08369.0671 16.79827-.78027 23.29981-2.17492-9.62499-7.22184-15.26169-13.18067-19.56543zm-169.93359 62.41797-3.10547 27.80664c-1.54635-9.38492-3.51546-18.39689-5.77344-27.17578 2.93648-.0899 5.89642-.30336 8.87891-.63086z" fill="#7896d3"/><path d="m242.30145 127.40545c-109.81844-1.1065-178.694951 40.55691-183.887484 72.78044-2.581525 35.70951-3.611707 72.51857-3.482501 108.06244l3.737445 3.29173c3.436541-13.2805 5.610502-27.61286 12.245984-38.22859 1.127303 23.56931 4.394749 50.78242 9.858702 71.16493-2.147946 21.66851-1.836637 41.61484-2.97955 63.28335 18.347298 11.03543 52.449964 9.23521 58.568624 1.72217 2.54597-17.9458 4.31931-36.92352 3.44521-59.43057l6.58345-30.65832c5.56541-12.64921 21.93039-14.95238 20.29667-27.57471l15.45967-2.13927c.30784 21.84887-12.46538 23.49994-21.43004 36.11967 11.26783 4.64535 12.72639 3.36977 20.86291 4.44331 20.67995 2.37774 39.22496 3.27264 58.79495-7.08901l-2.68905-15.21079 15.36861-2.71854 2.65697 15.02609c3.6594 12.22431 10.40241 90.5242 16.09356 93.96595 11.62943 5.56454 46.67296 5.56454 48.1029-4.60634 1.42821-39.70363 3.3481-78.1308-4.39648-115.54167 3.21021-3.55534 6.36493-7.03437 9.47629-10.48912-17.49749-8.80771-38.34046-22.40559-49.96556-36.24454-7.83649-14.92376-11.9234-33.54855-15.00528-48.78276-2.20778-11.2236-3.72877-22.61024-3.30386-32.50623.21158-4.94799.86975-9.55433 2.58586-13.82074 17.21132-17.50442 49.08626-30.94014 69.00831-40.32537-28.8529-6.30336-62.04505 6.40481-86.00631 15.50649zm111.80595-8.61174c-25.80397 9.51878-62.6217 19.22833-80.32731 39.25358-.69979 1.74125-1.3094 4.82399-1.47416 8.66636-.32952 7.68561.95127 18.29093 3.02377 28.82688 2.07251 10.53596 4.89423 21.08925 7.39685 29.17288 1.25044 4.04269 2.42543 7.47836 3.35156 9.92027 13.19465 19.26389 39.58222 34.36108 58.93716 38.98649l12.56943-24.89866c-10.03647-13.04203-11.94855-30.54646-3.98025-43.66307 4.27682-5.32694 8.43483-9.1511 14.72605-9.0323 3.94123.0945 7.97264 1.73085 11.14817 4.37481 22.46369 18.7063 42.90777 42.22185 72.29484 61.27328-.11794-5.74578-.22546-11.22101-.21072-16.26873.0225-7.83042-16.41007-84.77235-43.89026-121.01429-19.8735-5.05552-34.9837-7.92581-53.56513-5.5975zm59.73234 66.10508c3.75219-.0607 7.30233.48821 10.28188 2.01094.0529 4.26814-.25841 8.70191-9.44073 14.00631-3.90308-4.09298-9.74598-9.39824-15.52904-13.55106 4.70606-1.30593 9.86304-2.38815 14.68789-2.46619zm-47.02849 28.47569c-1.96238 3.11569-3.39232 10.10844-2.34393 15.20212 1.21575 5.90707 7.85817 14.65581 18.68722 22.95363 10.83079 8.29609 25.35739 16.27653 40.54217 22.62151 13.53545 5.6556 27.53049 9.91594 39.9395 12.30495-43.16705-21.78124-68.92334-53.06131-94.14372-74.06297-1.34235-1.38311-2.0699.0295-2.68124.98076zm51.08765 75.26658c.45613 20.31487-2.09505 43.58762-14.81623 51.93747-9.64972 6.33545-28.81995 1.16199-33.30748-9.47368-3.1712-7.51565 13.49902-13.59442 11.62683-21.53323-1.48977-6.31897-9.56734-12.46451-15.934-11.19673-15.50563 3.08534-30.2681 25.00533-25.40769 40.04962 8.79297 27.21745 53.91719 44.31604 79.67001 31.86801 23.83813-11.52278 30.40077-40.50835 31.9183-70.40444-11.01636-2.7142-22.53133-6.57218-33.74974-11.24702zm-174.02183 45.54306a112.22306 112.22306 0 0 1 -8.6655 3.76346l-7.51824 67.29394c1.05793 7.63272 13.71755 10.96693 26.34855 11.10828zm-87.2793 3.91868c-1.16286 9.30719-2.05256 18.891-2.66478 26.84109-1.33975 17.53825-2.15315 36.04076-2.16442 44.64989 16.36238 10.34258 47.51844 3.93082 46.05035-1.73865-.56886-23.65429-5.20468-43.18959-10.90883-63.92417-10.39114-1.09088-20.39899-3.35069-30.31319-5.82816z" fill="#fff" stroke-width="36"/></g></svg>