<svg height="500" viewBox="0 0 500 500" width="500" xmlns="http://www.w3.org/2000/svg" xmlns:xlink="http://www.w3.org/1999/xlink"><filter id="a" color-interpolation-filters="sRGB" height="1.256873" width="1.296134" x="-.148067" y="-.128437"><feGaussianBlur stdDeviation="2.211912"/></filter><filter id="b" color-interpolation-filters="sRGB" height="1.185367" width="1.204165" x="-.102082" y="-.092684"><feGaussianBlur stdDeviation="2.211912"/></filter><filter id="c" color-interpolation-filters="sRGB" height="1.072213" width="1.074834" x="-.037417" y="-.036106"><feGaussianBlur stdDeviation="2.2073957"/></filter><filter id="d" color-interpolation-filters="sRGB" height="1.217148" width="1.216871" x="-.108436" y="-.108574"><feGaussianBlur stdDeviation="2.3490694"/></filter><filter id="e" color-interpolation-filters="sRGB" height="1.217432" width="1.216832" x="-.108416" y="-.108716"><feGaussianBlur stdDeviation="2.3490694"/></filter><filter id="f" color-interpolation-filters="sRGB" height="1.217429" width="1.216829" x="-.108415" y="-.108715"><feGaussianBlur stdDeviation="2.3490694"/></filter><filter id="g" color-interpolation-filters="sRGB" height="1.217169" width="1.216456" x="-.108228" y="-.108584"><feGaussianBlur stdDeviation="2.3490694"/></filter><filter id="h" color-interpolation-filters="sRGB" height="1.152426" width="1.152482" x="-.076241" y="-.076213"><feGaussianBlur stdDeviation="2.3490694"/></filter><filter id="i" color-interpolation-filters="sRGB" height="1.152674" width="1.152405" x="-.076202" y="-.076337"><feGaussianBlur stdDeviation="2.3490694"/></filter><filter id="j" color-interpolation-filters="sRGB" height="1.10698" width="1.106526" x="-.053263" y="-.05349"><feGaussianBlur stdDeviation="2.3490694"/></filter><g transform="translate(.000015)"><circle cx="-249.99998" cy="250" fill="#e51a1a" r="250" transform="scale(-1 1)"/><path d="m181.33938 83.856939c97.52275-31.84694 203.27597 26.159281 217.12696 131.568651 10.04116 85.89723-45.79566 162.6049-131.11288 174.6444-76.26503 6.65-147.16573-45.4981-149.44603-126.3231.16679-50.89801 30.03241-87.97493 76.60677-108.40662 44.00125-16.48183 90.46555-3.00917 112.28155 39.63622 17.95322 40.0953 3.57775 87.31302-40.4313 103.80676-21.98685 8.23292-51.6578-5.55285-56.72562-31.5612 24.48155 21.7253 69.7211 11.74379 80.1808-21.06198 5.24648-24.88185-11.48198-41.52298-24.36368-55.64156-23.21161-15.22125-63.26956-13.16738-85.32502 12.05139-41.51846 46.43224-18.48961 112.52397 35.72777 131.08081 60.66482 17.11352 118.96473-29.63961 126.96137-92.39988 2.7637-54.83226-40.99398-106.19486-96.51046-114.27807-76.21988-10.3001-138.45939 50.84936-147.743191 124.09106-9.31956 73.21828 47.315731 138.67973 111.863041 158.33924 49.05305 9.49897 98.18701 2.07129 139.64056-27.40671 82.90715-58.95602 100.11901-177.97214 43.55644-260.39974-52.71171-79.885311-158.575-103.987181-249.15842-67.061741-86.705021 39.45169-149.0660905 134.549061-117.102931 229.167621 15.77888-74.65377 50.93986-153.5943 123.407351-187.514491 9.28724-4.60517 19.44718-8.7232 30.56692-12.33106zm-160.722321 286.075591c-52.57825-113.8254-.38403-260.89182 113.777041-317.643861 10.84604-5.32012 22.21219-9.7712 34.03518-13.36069 115.76394-28.75816 246.03978 34.00351 263.68455 158.897471 10.04526 85.91695-27.72044 168.80365-107.97396 206.83173-102.24035 46.26108-224.798841-11.43986-234.690511-131.24969-7.33455-123.78718 127.307171-194.136761 222.718561-137.24102-42.54074-27.89653-94.21826-33.44528-140.80825-12.98978-71.17376 32.62266-105.080851 118.0397-80.762351 190.63139 30.697281 88.13423 123.572931 132.04164 212.817841 105.59803 82.80488-25.06359 132.16266-100.33164 140.19255-180.04986 12.12434-145.020371-132.23823-245.3588802-265.59709-221.973611 7.92036-4.10499 20.5989-8.4277792 35.61563-11.7452592 60.06317-13.23825 124.63426-3.45807 179.45368 32.4903392 109.65077 71.904621 141.09454 217.803071 65.16008 333.599141-143.00482 218.07486-377.311781 117.06797-437.622951-1.79433" fill="#b21a1a"/></g><path d="m60.9375 48.222656c-8.604943.123385-16.930361 4.512462-22.150213 11.31157-4.956134 6.311463-7.799379 14.326993-7.593928 22.37593.160596 9.154739 3.388966 17.919354 7.291036 26.088734 5.023278 10.54514 11.61376 20.24216 16.847636 30.67494 1.352245 2.88968 2.677062 5.87311 3.123047 9.05664.122992 1.13512-.0099 2.31094.503354 3.36914.281805 1.10381 1.191339 1.95984 2.300521 2.19512 1.046075.52971 2.32811.39122 3.247533-.32534 1.38457-.68383 1.996918-2.18498 3.145995-3.14395 3.162121-2.97169 7.127095-4.88391 11.007068-6.73189 10.026808-4.62469 20.52481-8.21137 30.280721-13.42403 7.93407-4.20032 15.53941-9.50552 20.91129-16.81014 4.82679-6.64261 7.69351-14.915139 7.1024-23.17392-.50985-6.896429-3.75533-13.555734-8.95984-18.126443-7.18314-6.434012-17.52056-8.906272-26.89979-6.889019-3.969063.822221-7.778976 2.38398-11.209564 4.538986-2.795652-7.815-8.511005-14.718732-16.109503-18.235771-3.993993-1.882429-8.422029-2.839033-12.837763-2.750557z" fill="#e51a1a" filter="url(#j)"/><path d="m439.59934 248.00781c-5.95723.10855-11.66854 3.35175-14.99981 8.26063-3.33086 4.82646-4.61526 10.89669-4.11813 16.69398.66791 6.90988 4.22265 13.14922 8.4216 18.5285 5.77721 7.41587 12.98478 13.51763 19.38225 20.36419 2.19881 2.46635 4.53734 5.0211 5.55771 8.23198.11704.70004.77582 1.12841 1.14505 1.70197.57919-.0714 1.31597.2414 1.79129-.0832.51506-.55824 1.14437-1.04411 1.25834-1.842 1.40516-3.52174 4.1955-6.23449 6.87011-8.82305 5.80291-5.43155 12.18348-10.29677 17.69745-16.12088 5.01852-5.27468 9.43333-11.48133 11.05859-18.6914 1.40119-6.29507.81255-13.3142-2.84961-18.76954-3.2294-4.89271-8.89081-7.98516-14.72955-8.22757-6.46286-.36603-12.86125 2.62036-17.10178 7.44074-.46104.50959-.89215 1.04515-1.31124 1.58957-3.2846-5.09606-8.56169-9.10207-14.64167-10.02534-1.13308-.18457-2.28323-.2545-3.4306-.22857z" fill="#e51a1a" filter="url(#i)"/><path d="m37.802734 325.98828c-4.766662.0691-9.255501 2.9584-11.537109 7.10352-2.736409 4.90406-2.992534 11.06145-.797927 16.2185 2.497226 6.00326 7.105403 10.768 11.640234 15.29213 3.034522 3.07722 6.365383 5.92873 8.838341 9.50357.518214.74881.879775 1.60321 1.155546 2.45428.444279.36998.652887 1.20894 1.276079 1.22288.579987-.0691 1.347763.32152 1.697611-.31094.467226-.45792.928885-.9107 1.049491-1.57964 1.308517-2.84092 3.758741-4.92148 6.008765-7.00736 5.545771-4.929 11.621323-9.5507 15.548412-15.9703 3.068199-4.92276 4.297749-11.18735 2.440702-16.77328-1.429663-4.45907-5.303193-8.0323-9.899949-8.9926-5.090398-1.18037-10.603976.7524-14.150664 4.51698-.376918.19769-.759957 1.33945-1.074219.5996-2.827284-3.81992-7.36689-6.43417-12.195313-6.27734z" fill="#e51a1a" filter="url(#f)"/><path d="m19.451965 442.51057c-4.86685.0684-9.440901 3.07738-11.6825857 7.35584-2.6359233 4.91287-2.817466 11.01557-.598664 16.11877 2.5296902 5.96595 7.1282127 10.7032 11.6503897 15.21289 3.00921 3.04768 6.306433 5.87721 8.758158 9.4189.522234.75154.884818 1.61093 1.163974 2.46559.444279.36998.652887 1.20895 1.276079 1.22289.579987-.0691 1.347763.32151 1.697611-.31095.45968-.45533.925011-.89898 1.043632-1.56206 1.286063-2.82173 3.717297-4.88373 5.939453-6.95898 5.543755-4.93026 11.618682-9.54544 15.570178-15.9466 3.033766-4.83123 4.302675-10.94642 2.617892-16.47866-1.302341-4.4603-5.00813-8.14082-9.538925-9.25773-5.170409-1.39914-10.901843.47574-14.55348 4.31779-.383086.17686-.772444 1.30264-1.091732.76855-2.825509-3.86889-7.383874-6.51689-12.25198-6.36624z" fill="#e51a1a" filter="url(#e)" transform="matrix(.94802398 -.31819888 .31819888 .94802398 -139.010494 25.988008)"/><path d="m394.48047 393.22461c-5.69318.29938-10.91351 4.07349-13.28184 9.21249-.19606.67846-.83232-.34506-1.26459-.44015-4.25719-2.7424-9.92565-3.31099-14.51802-1.0614-4.4894 2.08695-7.56181 6.71776-7.94188 11.62851-.43445 4.62415 1.05309 9.38541 4.08763 12.90963 4.00037 4.73502 9.57771 7.71695 15.02564 10.47143 3.93283 2.02898 8.08954 3.71173 11.67471 6.34531.76199.55677 1.40334 1.27317 1.94245 2.0283.536.21735.99042.95326 1.58839.77674.5319-.24256 1.38068-.10562 1.52429-.8132.34751-.59476.57596-1.2068.56324-1.90009.58005-3.01902 2.36768-5.61505 3.97652-8.17334 3.99545-6.12157 8.57295-12.09049 10.64606-19.20858 1.54452-5.16166 1.15883-11.05705-1.81253-15.64666-2.44524-3.90103-7.01194-6.29503-11.60656-6.15048.0448.0266-.45216-.008-.60351.0215z" fill="#e51a1a" filter="url(#d)"/><path d="m243.80738.0000099-1.09063.13584948c-35.41888 4.43106672-59.82155 40.59951962-59.82155 83.12258762 0 19.651093 5.56822 37.454143 14.70426 51.727993-12.74716 4.77236-23.43398 13.577-31.2798 24.4701-10.28356 13.93803-17.05408 31.13111-21.63257 50.58571-8.45581 34.61437-10.18679 74.72587-10.18679 110.10495v17.63363h43.95014l11.21618 153.86376 12.68374 2.91979c32.65474 7.51917 67.06561 6.96141 98.20952.0287l12.88655-2.86814 10.26141-153.94412h41.79186v-17.63362c0-35.13738-.29108-75.84863-8.04956-111.24149-4.17548-19.1552-10.62048-36.63706-20.73902-50.70434l-.065-.0899-.067-.0899c-8.268-11.19208-20.02936-19.7734-33.96233-24.18118 8.84907-14.18304 14.00013-31.64064 14.00013-50.581893-.00006-45.076231-28.42922-83.2584969-66.91065-83.2584969z" fill="#861313"/><path d="m244.90603 17.632878c-23.41353 2.929141-44.37799 30.026153-44.37799 65.626494 0 19.504748 6.66162 36.648568 16.45806 48.600248l11.9517 14.20487-18.31939 3.42876c-12.73539 2.44911-22.13999 9.30664-30.07515 20.37664-8.32699 11.26593-14.49874 26.35248-18.71123 44.28-7.83718 32.03443-9.69847 71.22027-9.69847 105.99771h42.71256l11.46184 157.23323c29.78126 6.85751 61.81566 6.36769 90.42136 0l10.4822-157.23323h40.65533c0-34.97337-.48986-74.84496-7.64124-107.46718-3.82064-17.53566-9.79649-33.01407-17.82958-44.18204-8.03308-10.87407-18.12345-17.4377-32.62223-19.69088l-18.51529-2.93894 11.65778-14.59673c9.69852-11.85372 16.06621-28.99753 16.06621-48.012458 0-37.755561-23.51151-65.626494-49.27619-65.626494z" fill="#ff8066" stroke-width="36"/><ellipse cx="250.0002" cy="106.10362" fill="#861313" rx="16.492384" ry="20.711367"/><path d="m293.4812 127.15471c-3.97181.0945-7.66893 2.61745-9.45117 6.12891-3.31199-2.2468-7.93998-2.50746-11.33833-.29939-3.32954 2.03848-5.07835 6.08414-4.72222 9.91658.18728 3.39829 1.92378 6.56312 4.42385 8.82204 4.29199 4.02059 9.94529 5.99074 14.93871 8.92989 1.17781.69226 2.27502 1.58298 2.86897 2.84384 1.01722 1.66208 2.03445 3.32417 3.05167 4.98626.10441-2.48677.0625-4.98656.25769-7.46529.73831-2.80178 2.59417-5.11651 4.10367-7.53653 2.75756-4.20095 5.62083-8.66002 6.10517-13.78735.38354-4.12559-1.15039-8.68788-4.73606-11.01943-1.6285-1.05168-3.56602-1.57695-5.50195-1.51953z" fill="#e51a1a" filter="url(#a)" stroke-width=".9"/><path d="m335.87964 114.50042c-4.74647.0699-9.22435 2.93432-11.50934 7.05678-2.74664 4.87956-3.02802 11.02016-.86231 16.17218 2.37447 5.79567 6.75112 10.44659 11.10959 14.82107 3.14363 3.20591 6.60253 6.15624 9.24057 9.81715 1.29164 1.68515 1.50534 3.84496 2.08049 5.82277.30716 1.19319.61431 2.38638.92147 3.57958.84714-2.56076 1.54659-5.1758 2.49023-7.70117 1.54943-2.9534 4.17622-5.12998 6.61204-7.33091 5.43636-4.78209 11.30676-9.38348 15.03835-15.71206 2.91194-4.87871 4.01578-11.01456 2.16797-16.47071-1.41902-4.28659-5.08695-7.74967-9.49219-8.80468-5.07608-1.32514-10.67522.47995-14.30049 4.20189-.37504.36493-.72258.75697-1.05888 1.15748-2.81069-3.99525-7.46813-6.77349-12.4375-6.60937z" fill="#e51a1a" filter="url(#b)" stroke-width=".900001"/><path d="m456.55707 5.3141335c-12.02791.1397161-23.71695 6.0463815-31.3189 15.3079685-3.02648 3.644442-5.45658 7.77472-7.23578 12.162734-7.39316-5.90702-16.64215-9.678948-26.16291-9.829291-10.52141-.247917-21.10813 4.040882-28.3197 11.740718-6.27324 6.614474-9.90074 15.557435-10.34194 24.637159-.40665 7.361553.88602 14.835022 3.82069 21.60314 3.92642 8.864172 10.67472 16.176478 18.22717 22.117648 10.84888 8.55912 23.28218 14.76127 35.61638 20.85289 5.65661 2.77514 11.33554 5.51007 16.87124 8.52227 3.41271 1.85908 6.94086 3.91746 10.11701 6.28539 2.64509 1.97738 5.07855 4.32952 6.66106 7.26115.99982 1.70984 1.99454 3.42487 3.0442 5.10189.39236.46666.97999.66241 1.49609.95704.54181-.27218 1.23658-.38765 1.6903-.75185.39413-.6991.55518-1.45097.49459-2.25101.12663-3.78374-.21538-7.65634.89113-11.33225 1.31975-4.78908 3.73591-9.17878 6.20914-13.45396.97961-1.65789 2.09423-3.4687 3.17256-5.15824 7.88559-12.26148 16.62464-24.015578 23.35832-36.98236 4.81694-9.316629 8.70425-19.332533 9.62404-29.859501.89651-9.659031-.945-19.63321-5.6393-28.154192-3.92713-7.171404-10.26058-13.06881-17.88875-16.0998396-4.548-1.8537278-9.47721-2.7632518-14.38664-2.6775039z" fill="#e51a1a" filter="url(#c)" stroke-width=".900004"/><g fill="#ff8066"><path d="m293.60562 129.15056c-3.68278.0744-7.47117 2.66933-8.71188 7.42824-6.73342-6.92078-16.82428-1.5388-14.66208 7.93532 2.19486 9.61568 18.47608 12.3121 21.20434 17.16983 0-6.1302 12.34214-15.74321 10.05745-25.77859-1.06309-4.6679-4.42869-6.82463-7.88783-6.75461z" stroke-width="36"/><path d="m363.64885 117.81477c-5.25853-1.55944-11.71406.52605-15.4522 6.93612-6.68287-13.18999-23.24243-9.87653-24.10905 4.98336-.87906 15.08207 21.1116 26.4086 22.96628 34.76156 2.54665-8.98122 24.05954-17.47355 24.98545-33.21122.43013-7.32047-3.4513-12.00499-8.39055-13.46954z" stroke-width="36"/><path d="m456.41362 9.314674c-15.452.3055472-31.3471 10.96209-36.5528 30.505354-28.2517-28.421366-70.59031-6.319341-61.51831 32.587776 9.20906 39.488446 77.52081 50.561786 88.96791 70.510886 0-25.17474 51.7844-64.652216 42.1984-105.864255-4.4604-19.169557-18.5816-28.0265052-33.0952-27.7389775z" stroke-width="36"/><path d="m122.15215 72.136213c-9.51024-6.065939-23.481534-6.017333-34.558326 3.759586-5.651902-28.711671-40.321781-32.402518-50.567239-5.075002-10.397663 27.736453 26.614758 62.107703 25.489548 78.868923 10.19512-15.30724 57.639567-18.35969 68.506267-47.29662 5.05361-13.460497.0624-24.55918-8.87057-30.256412z" stroke-width="35.9999"/><path d="m480.0799 251.92357c-7.66709-2.27418-17.07944.76715-22.52976 10.11516-9.74381-19.23538-33.88813-14.40326-35.15169 7.26739-1.28169 21.99467 30.78133 38.51251 33.4855 50.69389 3.71309-13.0976 35.07951-25.48223 36.42951-48.43298.62715-10.67567-5.03209-17.50725-12.23366-19.64305z" stroke-width="36"/><path d="m65.572005 329.30247c-5.25853-1.55944-11.71406.52604-15.4522 6.93611-6.68287-13.18998-23.24243-9.87652-24.10905 4.98336-.87906 15.08207 21.1116 26.4086 22.96628 34.76155 2.54665-8.98121 24.05954-17.47354 24.98545-33.21121.43013-7.32047-3.4513-12.00499-8.39055-13.46953z" stroke-width="36"/><path d="m47.609483 433.61834c-5.481425.19487-10.937821 4.22611-12.44199 11.49248-10.532562-10.37795-25.1770819-1.96747-21.270255 12.39583 3.965728 14.57788 28.417493 18.3183 32.833677 25.64695-.443529-9.32475 17.248953-24.22107 13.119029-39.43538-1.921595-7.07686-7.091893-10.28283-12.240438-10.0996z" stroke-width="36"/><path d="m395.0842 395.20213c-5.55162.10977-11.26243 3.93818-13.13275 10.95919-10.15031-10.2105-25.36179-2.27025-22.10239 11.70731 3.30865 14.1864 27.8518 18.16455 31.96453 25.33135 0-9.04414 18.60518-23.2266 15.16111-38.03221-1.60254-6.88675-6.67603-10.06865-11.8905-9.96535z" stroke-width="36.0001"/></g><path d="m178 348.39844c-5.71148.0958-11.07548 3.70171-13.60282 8.77855-.20519.75764-.53825.84166-1.09103.27707-4.2401-2.89751-9.98798-3.63619-14.69318-1.44072-4.5316 1.98436-7.70732 6.54523-8.18538 11.44554-.52551 4.71711.95942 9.61262 4.06669 13.20941 3.94137 4.66053 9.41996 7.62046 14.78547 10.33656 2.76748 1.39216 5.57975 2.69631 8.30619 4.16898.41777.22888 1.14703.63679 1.66892.95959 1.47298.9043 2.96746 1.91777 3.93372 3.3714.53398.22014.98295.95944 1.58142.78574.53312-.23928 1.38087-.0972 1.5284-.80388.35522-.59425.58148-1.2099.57451-1.90525.56886-3.00254 2.35534-5.57859 3.94671-8.125 3.99833-6.11081 8.57681-12.06444 10.67802-19.16455 1.5404-5.0694 1.22425-10.84121-1.58162-15.42079-2.31854-3.90812-6.72068-6.434-11.26367-6.47265-.21738-.003-.43497-.003-.65235 0z" fill="#e51a1a" filter="url(#g)"/><path d="m178.08236 350.3963c-5.56318.10977-11.2859 3.93817-13.1601 10.95919-10.17145-10.21051-25.41463-2.27026-22.14843 11.7073 3.31554 14.1864 27.90983 18.16454 32.03111 25.33135 0-9.04414 18.64395-23.2266 15.19271-38.03221-1.6059-6.88674-6.68994-10.06865-11.91529-9.96535z" fill="#ff8066" stroke-width="35.9999"/><path d="m126.87109 185.60547c-7.26259.12863-14.17672 4.31547-17.96223 10.46405-.80146 1.26014-1.47064 2.60122-2.02995 3.98517-4.76881-3.89652-11.146163-5.96969-17.28516-4.9668-6.150036.92286-11.738114 4.95712-14.470182 10.55527-2.927519 5.86573-2.756714 12.96291-.334443 18.96804 2.557667 6.17113 7.673065 10.83649 13.103597 14.50955 7.776659 5.26387 16.534438 8.77662 24.745158 13.26573 2.75564 1.60191 5.68524 3.21757 7.59064 5.85375.32105.66259 1.0907.88975 1.63671 1.33399.53186-.24126 1.32737-.16401 1.68539-.61528.33921-.68288.75433-1.33935.67781-2.13075.43631-3.65797 2.37034-6.90599 4.21339-10.01885 5.2757-8.53726 11.64924-16.48525 15.51754-25.82266 2.51437-5.98467 3.78924-12.71706 2.30454-19.13106-1.1857-5.51974-4.37457-10.78488-9.33287-13.66594-3.01917-1.79787-6.55405-2.66441-10.05994-2.58421z" fill="#e51a1a" filter="url(#h)"/><path d="m126.95228 187.60314c-8.09032.16009-16.41264 5.74318-19.13823 15.98215-14.791965-14.89032-36.959525-3.31078-32.209625 17.07315 4.82166 20.68851 40.588175 26.48998 46.581625 36.94157 0-13.18937 27.11317-33.87213 22.09415-55.46365-2.33537-10.04317-9.72892-14.68344-17.32792-14.5328z" fill="#ff8066" stroke-width="36"/></svg>