<svg height="500" viewBox="0 0 500 500" width="500" xmlns="http://www.w3.org/2000/svg" xmlns:xlink="http://www.w3.org/1999/xlink"><filter id="a" color-interpolation-filters="sRGB" height="1.19161" width="1.166699" x="-.08335" y="-.095805"><feGaussianBlur stdDeviation="2.7346813"/></filter><filter id="b" color-interpolation-filters="sRGB" height="1.057831" width="1.056751" x="-.028376" y="-.028916"><feGaussianBlur stdDeviation="2.7346813"/></filter><filter id="c" color-interpolation-filters="sRGB" height="1.055742" width="1.044972" x="-.022486" y="-.027871"><feGaussianBlur stdDeviation="2.7346813"/></filter><filter id="d" color-interpolation-filters="sRGB" height="1.179757" width="1.167746" x="-.083873" y="-.089878"><feGaussianBlur stdDeviation="2.7346813"/></filter><filter id="e" color-interpolation-filters="sRGB" height="1.050348" width="1.072738" x="-.036369" y="-.025174"><feGaussianBlur stdDeviation="2.7346813"/></filter><filter id="f" color-interpolation-filters="sRGB" height="1.039808" width="1.091711" x="-.045856" y="-.019904"><feGaussianBlur stdDeviation="2.7346813"/></filter><filter id="g" color-interpolation-filters="sRGB" height="1.152765" width="1.191516" x="-.095758" y="-.076382"><feGaussianBlur stdDeviation="2.7346813"/></filter><filter id="h" color-interpolation-filters="sRGB" height="1.063345" width="1.049634" x="-.024817" y="-.031673"><feGaussianBlur stdDeviation="2.7346813"/></filter><filter id="i" color-interpolation-filters="sRGB" height="1.060225" width="1.042589" x="-.021295" y="-.030112"><feGaussianBlur stdDeviation="2.7346813"/></filter><g transform="translate(.000015)"><circle cx="-249.99998" cy="250" fill="#e51a1a" r="250" transform="scale(-1 1)"/><path d="m181.33938 83.856939c97.52275-31.84694 203.27597 26.159281 217.12696 131.568651 10.04116 85.89723-45.79566 162.6049-131.11288 174.6444-76.26503 6.65-147.16573-45.4981-149.44603-126.3231.16679-50.89801 30.03241-87.97493 76.60677-108.40662 44.00125-16.48183 90.46555-3.00917 112.28155 39.63622 17.95322 40.0953 3.57775 87.31302-40.4313 103.80676-21.98685 8.23292-51.6578-5.55285-56.72562-31.5612 24.48155 21.7253 69.7211 11.74379 80.1808-21.06198 5.24648-24.88185-11.48198-41.52298-24.36368-55.64156-23.21161-15.22125-63.26956-13.16738-85.32502 12.05139-41.51846 46.43224-18.48961 112.52397 35.72777 131.08081 60.66482 17.11352 118.96473-29.63961 126.96137-92.39988 2.7637-54.83226-40.99398-106.19486-96.51046-114.27807-76.21988-10.3001-138.45939 50.84936-147.743191 124.09106-9.31956 73.21828 47.315731 138.67973 111.863041 158.33924 49.05305 9.49897 98.18701 2.07129 139.64056-27.40671 82.90715-58.95602 100.11901-177.97214 43.55644-260.39974-52.71171-79.885311-158.575-103.987181-249.15842-67.061741-86.705021 39.45169-149.0660905 134.549061-117.102931 229.167621 15.77888-74.65377 50.93986-153.5943 123.407351-187.514491 9.28724-4.60517 19.44718-8.7232 30.56692-12.33106zm-160.722321 286.075591c-52.57825-113.8254-.38403-260.89182 113.777041-317.643861 10.84604-5.32012 22.21219-9.7712 34.03518-13.36069 115.76394-28.75816 246.03978 34.00351 263.68455 158.897471 10.04526 85.91695-27.72044 168.80365-107.97396 206.83173-102.24035 46.26108-224.798841-11.43986-234.690511-131.24969-7.33455-123.78718 127.307171-194.136761 222.718561-137.24102-42.54074-27.89653-94.21826-33.44528-140.80825-12.98978-71.17376 32.62266-105.080851 118.0397-80.762351 190.63139 30.697281 88.13423 123.572931 132.04164 212.817841 105.59803 82.80488-25.06359 132.16266-100.33164 140.19255-180.04986 12.12434-145.020371-132.23823-245.3588802-265.59709-221.973611 7.92036-4.10499 20.5989-8.4277792 35.61563-11.7452592 60.06317-13.23825 124.63426-3.45807 179.45368 32.4903392 109.65077 71.904621 141.09454 217.803071 65.16008 333.599141-143.00482 218.07486-377.311781 117.06797-437.622951-1.79433" fill="#b21a1a"/></g><g opacity=".9" transform="translate(-3.406241 3.733109)"><path d="m279.07029 41.279345c-7.26265.189723-14.51951.787233-21.7117 1.802043-2.01992.500881-4.03985 1.001763-6.05978 1.502645 2.19697.821321 4.33902 1.809545 6.57209 2.521154 11.46781 3.017785 22.90984 6.75407 33.05793 13.019652 3.87095 2.356695 7.56298 4.992408 11.19029 7.705288-14.13835-2.341713-28.56611-3.861538-42.87954-2.330625-13.97721 1.402835-27.55771 5.791203-40.03075 12.189392-9.0447 4.615974-17.59973 10.160813-25.70238 16.269866-1.62455 1.437591-3.2491 2.875182-4.87366 4.312773 3.06669-.457219 6.17709-.669293 9.18542-1.453758 13.06444-2.88205 26.32463-4.954512 39.68177-5.817727 2.27967-.146442 4.87866-.267926 7.14844-.33789 3.81637-.114379 7.7593-.117101 11.49804-.01563 16.98915.462694 33.93015 3.379094 50.01022 8.911778 5.7666 1.978524 11.30619 4.206464 16.83436 6.752614 1.72052.78989 3.42934 1.60534 5.12613 2.44499-5.42399 2.50164-9.86071 6.75752-13.42651 11.48086-1.13636 1.55136-2.16467 3.1784-3.25318 4.76328 4.6341.24104 9.28134.57539 13.82422 1.57313 4.18219.87405 8.12131 2.07236 12.10943 3.62651.73561.29471 1.7776.71375 2.51536 1.03373 2.32265 1.00209 4.77932 2.19123 7.08224 3.44241 1.13889.62748 2.47891 1.37901 3.66829 2.10447 3.21619 1.93687 6.50758 4.19315 9.5535 6.54502 5.90473 4.54867 11.34777 9.68567 16.3329 15.22355-6.33031-.85775-12.80155-.0503-18.92351 1.66487-4.03166 1.13894-7.92708 2.84047-11.33567 5.29778-.88952.58992-1.77904 1.17985-2.66856 1.76977 4.03557 1.02748 8.12093 1.96176 11.94207 3.66104 4.50754 1.90306 8.88808 4.46626 12.8177 7.20224 9.46212 6.64311 17.71334 14.94943 24.61195 24.20945 3.80219 5.11044 7.09621 10.6047 9.70109 16.41842 5.25525 10.7238 12.29447 20.71924 21.40501 28.5139 6.87069 5.8517 15.16031 10.39584 24.20311 11.58018 6.62316.9322 13.43545-.17662 19.57587-2.765 7.73793-3.10288 14.54426-8.51224 19.19014-15.44712 5.70452-8.40226 8.39281-18.48868 9.3588-28.50344 1.32111-13.70448-.47552-27.50053-3.35096-40.89795-3.12645-14.4905-8.23122-28.53262-14.974-41.72847-2.98393-5.86919-6.21799-11.60927-9.48502-17.32298-1.20822-1.81327-2.41644-3.62653-3.62466-5.4398.0547 3.10092-.0519 6.20781.23804 9.29886.45131 7.60821-.73121 15.54859-4.75562 22.13721-1.21475 2.02049-2.67931 3.88814-4.32422 5.57565-.45821-9.28567-1.92826-18.6796-5.8534-27.181-4.32006-9.51355-11.15186-17.576602-18.14182-25.229597-2.20407-2.395065-4.44469-4.756212-6.66494-7.136277.0777 2.712115.21514 5.430281.24215 8.076168.0283 4.704921-.41274 9.711266-3.16276 13.696426-1.04803 1.55022-2.43023 3.07544-3.79228 4.20201-1.27896-9.6901-5.91435-18.622266-11.76603-26.329272-7.99472-10.4768-18.23328-19.059284-29.24813-26.206261-9.22255-5.963767-19.11706-10.847668-29.36366-14.784679-.78775-.545413-.90517-.101106-.7921.683499.044.92092-.087 1.90828.0663 2.787716 7.75291 8.627967 15.01609 18.196126 19.16327 29.206853.56372 1.494693 1.07548 3.009359 1.5243 4.54254-9.13233-10.870529-20.0481-20.398175-32.67467-26.995681-12.50417-6.618899-26.46103-10.196583-40.51822-11.368219-5.34385-.453085-10.7116-.580391-16.0727-.458361z" fill="#e51a1a" filter="url(#i)" opacity="1"/><path d="m284.64256 8.4863769c.26164 5.7742271 1.50641 11.7841771 5.14648 16.4277341 3.33625 4.318719 8.38207 6.83287 13.42455 8.607027 7.51899 2.620396 15.36482 4.458882 22.44902 8.199211 3.45021 1.771504 6.67064 3.973479 9.63009 6.473835 1.71883 1.034247 3.43766 2.068493 5.1565 3.10274-.82943-2.004833-1.51196-4.080821-2.43414-6.040726-4.70992-8.159244-10.62208-15.905131-18.57054-21.145629-5.1222-3.464621-11.00168-5.505996-16.7493-7.661246-4.79599-1.791978-9.48118-4.189537-13.10807-7.8751624-1.81782-1.8606993-3.51496-3.8357312-5.28248-5.7440337.11263 1.8854167.22526 3.7708334.33789 5.65625zm93.06055 13.2402341c-1.55572 5.569438-2.55976 11.588275-.91602 17.257813 1.38837 4.901857 4.86164 8.832753 8.51389 12.229941 4.91936 4.551369 10.04881 8.933098 14.27965 14.16435 4.82288 5.819041 8.5849 12.449019 11.56064 19.379492.96788 2.06564 1.93576 4.13128 2.90363 6.19692.52848-5.798731 1.17448-11.615661.84904-17.44703-.32513-7.743452-2.17734-15.582069-6.42293-22.148677-4.04149-6.422476-10.02346-11.223318-15.5889-16.25066-4.55059-4.085843-8.7732-8.662675-11.65231-14.102574-.75044-1.333426-1.50087-2.666852-2.2513-4.000278-.42513 1.573568-.85026 3.147135-1.27539 4.720703zm60.6621 27.722656c-3.43587 4.211005-6.178 9.316511-6.30606 14.861574-.16966 5.626809 2.27955 10.901938 5.06166 15.649394 4.09991 6.944186 8.85471 13.560336 11.91345 21.068155 1.45674 3.48851 2.51643 7.13908 3.20825 10.85298.67502 1.89568 1.35003 3.79136 2.02505 5.68704.62907-2.08281 1.41375-4.12835 1.94407-6.23482 1.52432-9.15154 1.70968-18.739468-1.12503-27.665054-1.85562-6.131999-5.22081-11.641912-8.26683-17.209904-2.51164-4.56223-4.48253-9.536504-4.82223-14.781086-.12596-2.132754-.23235-4.266887-.35108-6.400154-1.09375 1.390625-2.1875 2.78125-3.28125 4.171875zm-242.42382 4.205078c3.05359 4.794461 7.15715 9.225298 12.5664 11.306641 5.24484 2.067392 11.04676 1.644071 16.4765.641943 3.95795-.72138 8.00483-1.718459 11.84772-2.493505 7.41117-1.537758 15.11868-2.282478 22.61313-.876343 2.15464.171758 4.33254.101671 6.49625.179077-1.72504-1.324099-3.35988-2.781074-5.14211-4.020921-7.92795-4.58107-16.69068-8.108369-25.91063-8.697829-1.69472-.115881-3.39426-.103853-5.0918-.142578-.37542.178301-1.05989.08135-1.55723.155703-6.75268.393312-13.31641 2.320384-20.09041 2.458034-3.77661.102421-7.52773-.631011-11.08092-1.880449-1.41079-.444299-2.82158-.888599-4.23237-1.332898 1.03515 1.567709 2.07031 3.135417 3.10547 4.703125zm72.90429 45.28125c-8.71927.108534-17.46225 2.538285-24.75758 7.369825-5.83531 3.7888-10.64947 8.96069-14.61413 14.64122-1.15865 1.59137-2.3173 3.18274-3.47594 4.77412 3.04005-1.3365 6.01958-2.81661 9.09765-4.0625 5.75856-2.13824 12.08148-1.72048 17.9931-.5022 8.54116 1.71186 16.80044 4.96502 25.55964 5.4768 5.4159.3341 11.00905-.80779 15.5837-3.80869 5.09761-3.25144 8.76854-8.23583 11.75345-13.4004.72253-.64038-.0496-.83191-.62388-1.08287-11.34455-5.55579-23.76181-9.588476-36.51601-9.405305zm45.58594 33.718755c-6.39391.0918-12.60045 2.05451-18.35171 4.73909-1.93615.85325-3.8723 1.70649-5.80845 2.55974 3.66756.40578 7.36205.5995 11.00925 1.16874 4.4111.71862 8.6206 2.59496 12.05759 5.45915 3.47291 2.79298 6.61765 6.2607 10.94562 7.7355 4.90275 1.73484 10.25081.91657 15.14351-.41928 3.69629-.99872 7.2467-2.44519 10.81083-3.82693-4.60031-4.18054-9.36023-8.25195-14.75215-11.38761-6.34449-3.77059-13.61365-6.20538-21.05449-6.0284zm-15.2832 27.34766c3.14043 7.25904 7.60344 14.13995 13.92969 19.01171 5.66889 4.44589 12.5492 6.94159 19.42775 8.82129 8.28305 2.26824 16.78257 4.16498 24.43891 8.19405 5.55703 2.86709 10.5609 6.75251 14.83841 11.30498 1.53907.9056 3.07813 1.81119 4.61719 2.71679-.54267-1.76651-.95423-3.59051-1.57874-5.32114-5.68259-9.41993-12.40472-18.43524-21.15252-25.2285-6.06809-4.76934-13.18391-8.09586-20.62112-10.09-4.56352-1.26827-9.22382-2.13901-13.81364-3.30176-1.0636-.27786-2.36446-.62951-3.5063-.99361-4.96953-1.50179-9.68006-3.97027-13.51506-7.49613-1.79366-1.34717-3.58732-2.69434-5.38098-4.04151.77214 2.14127 1.54427 4.28255 2.31641 6.42383z" fill="#e51a1a" filter="url(#h)" opacity="1"/><path d="m281.95939 43.236572c-7.5655.04395-15.59851.633511-24.15519 1.780911 26.98219 7.044298 35.4644 13.467291 52.05408 26.18023-37.83853-6.821533-69.56228-9.751063-115.01455 24.23758 61.42858-14.073945 102.6556-5.036952 138.59116 13.781007-7.80598 1.15715-15.01994 8.79224-18.38708 14.00437 23.42221 1.25115 47.3815 14.63849 67.70266 39.49982-7.53744-4.87767-25.83479-2.1648-34.29747 3.74003 22.7295 5.52705 46.19319 30.22481 55.16548 49.64943 4.56763 9.8896 10.82705 19.18475 18.21802 26.42923.17699.17699.35765.34667.53707.52.37658.36009.75436.71896 1.13643 1.06928.20323.18554.4089.36864.61337.5505 11.4276 10.21979 25.27939 15.4777 39.70549 10.77458 30.69293-10.00618 33.3234-44.06867 29.82444-69.38714-4.93748-35.72806-17.73586-56.72912-26.6404-72.63402 1.63138 16.857-4.00126 27.73104-12.72332 34.68746-.6445-26.41277-6.82519-37.63835-26.64773-58.643085.50839 12.629935-1.71622 18.019665-10.58109 24.733775-.7153-26.64346-31.17203-54.459955-67.47928-68.693197v.0013c11.78281 13.187763 20.08925 26.105768 22.56165 42.588035-22.13626-29.470493-49.33206-45.11479-90.18679-44.870662z" fill="#ff8066" opacity=".9"/><path d="m451.61211 159.31674c3.81877 1.12482 7.57405 3.04855 11.13832 5.72114 8.05742 6.04215 14.87713 15.88354 18.1344 28.01972 3.25727 12.13558 2.27893 24.05877-1.67227 33.31241-3.95121 9.25243-10.63785 15.70961-19.18659 17.99587-8.54873 2.28686-17.57962.0329-25.63827-6.00981-8.05865-6.04216-14.87834-15.88293-18.13562-28.01974-1.56852-5.84318-2.14649-11.63573-1.89198-17.10723 11.3092 11.95248 25.38925 17.25128 35.08111 12.04159 12.03366-6.47182 12.8765-26.77468 2.17152-45.95456z" fill="#e51a1a" filter="url(#g)" opacity="1"/><path d="m286.63931 8.3672363c1.35492 30.0002137 27.72434 19.2067287 49.85084 38.2425677-18.55675-32.40487-35.60966-22.142362-49.85084-38.2425677zm92.99426 13.8804767c-8.49808 29.997163 16.93635 23.642525 33.08416 61.160035 3.02474-39.786675-21.2342-39.41438-33.08537-61.160035zm60.30315 28.438409c-17.52835 21.614437 9.19139 32.352992 14.23751 60.726708 5.9384-35.128722-13.37086-39.811086-14.23751-60.726708zm-208.14065.90144c-12.72269-.02441-21.79141 5.112638-34.18393.965525 15.7328 24.614152 34.64168 2.502307 62.53935 7.773629-11.77305-6.851438-20.72155-8.724505-28.35542-8.739763zm37.06283 49.347938c-12.93266.22825-26.21928 5.21821-36.77902 19.83047 24.47011-11.81761 51.77943 22.06058 71.41766-11.09682-9.13037-4.43091-21.70598-8.96253-34.63802-8.73365zm46.66924 33.71522c-5.81634-.0794-11.55029 1.37932-17.45268 4.04946 25.05358 2.04945 16.91804 23.15793 48.3879 10.68851-11.31958-10.20025-21.24213-14.60493-30.93522-14.73797zm-14.5561 24.53176c16.1466 37.16535 45.75742 18.65133 72.24647 46.75957-27.94039-46.71623-52.47092-28.81559-72.24647-46.75957z" fill="#ff8066" opacity=".9"/></g><path d="m244.11701 12.500008-1.0361.129057c-33.64793 4.209514-56.83048 38.569544-56.83048 78.966459 0 18.668536 5.28981 35.581436 13.96906 49.141596-12.1098 4.53374-22.26228 12.89815-29.71581 23.24659-9.76939 13.24113-16.20137 29.57456-20.55094 48.05643-8.03302 32.88365-9.67745 70.98957-9.67745 104.5997v16.75195h41.75263l10.65537 146.17057 12.04956 2.7738c31.022 7.14321 63.71233 6.61334 93.29904.0273l12.24222-2.72474 9.74833-146.24691h39.70227v-16.75194c0-33.38051-.27652-72.0562-7.64708-105.67942-3.96671-18.19744-10.08946-34.8052-19.70207-48.16912l-.0617-.0854-.0636-.0854c-7.85461-10.63247-19.0279-18.78473-32.26421-22.97212 8.40661-13.47389 13.30012-30.05861 13.30012-48.052799-.00015-42.822459-27.00785-79.095612-63.56522-79.095612z" fill="#861313" stroke-width=".999998"/><path d="m245.16073 29.251233c-22.24286 2.782684-42.15909 28.524845-42.15909 62.345169 0 18.529508 6.32854 34.816138 15.63516 46.170238l11.35411 13.49463-17.40342 3.25732c-12.09863 2.32665-21.033 8.84131-28.5714 19.35781-7.91064 10.70263-13.77379 25.03485-17.77566 42.066-7.44533 30.4327-9.21354 67.65925-9.21354 100.69782h40.57693l10.88875 149.37157c28.29219 6.51463 58.72487 6.0493 85.90028 0l9.9581-149.37157h38.62256c0-33.2247-.46536-71.10271-7.25918-102.09382-3.6296-16.65888-9.30667-31.36337-16.93811-41.97294-7.63141-10.33037-17.21726-16.56581-30.99112-18.70633l-17.58952-2.792 11.07489-13.86689c9.21359-11.26104 15.2629-27.54766 15.2629-45.611838 0-35.867783-22.33593-62.345169-46.81238-62.345169z" fill="#ff8066" stroke-width="36"/><g opacity=".9" transform="translate(3.337321)"><path d="m81.051589 335.05395c3.79563 6.19477 7.941518 12.18064 12.416465 17.90186 1.443735 1.49886 2.887477 2.99773 4.331218 4.4966-.3872-2.31329-.602398-4.66247-1.102661-6.95217-3.120427-11.44031-5.605724-23.21754-5.253616-35.13884.105483-4.53069.542062-9.04593 1.07783-13.54372 5.041192 13.41503 10.938865 26.66975 19.421385 38.30009 8.2035 11.4032 18.79419 20.97007 30.5717 28.57295 8.5199 5.52495 17.59939 10.1614 26.94131 14.12398 2.05727.6881 4.11453 1.37621 6.1718 2.06433-1.92931-2.42723-3.66817-5.01488-5.8517-7.22793-9.02815-9.87311-17.45305-20.32055-24.87918-31.45656-1.26666-1.90103-2.67137-4.09108-3.86685-6.02179-2.00724-3.24788-3.98106-6.6612-5.76255-9.94978-8.09387-14.94438-14.0387-31.07391-17.28729-47.76601-1.16985-5.98328-2.01018-11.89468-2.56924-17.95528-.1762-1.88496-.3244-3.77257-.44565-5.66186 4.87848 3.4465 10.78254 5.16087 16.65598 5.88727 1.91169.20844 3.83491.28546 5.75171.4357-2.10831-4.13377-4.14237-8.32557-5.54974-12.75869-1.33415-4.05891-2.26594-8.06944-2.91407-12.30033-.11258-.78441-.27067-1.89632-.36244-2.69523-.29349-2.51252-.492-5.23463-.55991-7.85461-.026-1.30005-.0452-2.8363-.0116-4.22907.0693-3.75373.37759-7.7323.89141-11.54608.9869-7.38798 2.71415-14.67029 5.01753-21.75648 2.42232 5.91108 6.35721 11.11162 10.90357 15.55581 3.00218 2.92205 6.42346 5.44481 10.25585 7.16808.95565.47539 1.9113.95077 2.86695 1.42616-1.12797-4.00865-2.36154-8.01381-2.80049-12.17266-.60567-4.85517-.57614-9.93043-.17152-14.70157 1.02204-11.51599 4.08991-22.81492 8.66002-33.4193 2.52468-5.84801 5.63584-11.44785 9.36822-16.6106 6.65946-9.91308 11.79616-21.00694 13.99126-32.79423 1.63238-8.876044 1.42291-18.327136-2.07282-26.7506-2.50427-6.201925-6.87069-11.547131-12.1825-15.570701-6.55614-5.149804-14.64394-8.339579-22.97267-8.895589-10.12883-.739129-20.20807 1.975953-29.3641 6.146762-12.529 5.708125-23.578418 14.162077-33.743204 23.350991-10.985916 9.952835-20.594364 21.394757-28.650915 33.832097-3.590903 5.51876-6.944928 11.18957-10.259631 16.87576-.966228 1.95298-1.932447 3.90596-2.89867 5.85895 2.658121-1.59783 5.402066-3.05896 7.934024-4.85558 6.363248-4.19495 13.831079-7.14105 21.549196-6.95012 2.357171.0418 4.706883.37628 6.990765.95706-7.812521 5.03966-15.212878 11.00972-20.612737 18.65969-6.078943 8.49806-9.64585 18.4461-12.778558 28.32608-.972152 3.10631-1.896655 6.22732-2.847727 9.34014 2.30991-1.42334 4.595191-2.90145 6.873091-4.24779 4.060432-2.37697 8.616574-4.49819 13.442836-4.10918 1.866546.13251 3.878518.56692 5.535181 1.18321-7.752391 5.95266-13.170177 14.43311-16.9188 23.35431-5.075815 12.16203-7.389184 25.32013-8.071223 38.43276-.553498 10.96884.164174 21.97969 1.877923 32.82201-.07847.95492.365025.83445.987977.34423.775541-.49856 1.696119-.8788 2.381083-1.45127 3.595584-11.02821 8.250263-22.10238 15.712242-31.19931 1.012582-1.23554 2.068441-2.43607 3.171805-3.59135-4.847989 13.34409-7.641288 27.56125-7.041611 41.79493.519951 14.13838 4.400016 28.01422 10.413944 40.77392 2.279542 4.85445 4.853167 9.56671 7.639398 14.14855z" fill="#e51a1a" filter="url(#f)" opacity="1"/><path d="m49.86591 346.6247c4.869807-3.1137 9.452192-7.19667 11.653595-12.67085 2.071996-5.04863 1.726404-10.67552.741629-15.92951-1.490165-7.82184-3.820905-15.53577-4.123785-23.54103-.190937-3.87372.105814-7.76368.791461-11.57682.03627-2.00567.07254-4.01135.108802-6.01703-1.321522 1.72073-2.778115 3.34981-4.014353 5.12839-4.711152 8.15853-8.463207 17.15156-9.027381 26.65538-.43935 6.16826.732507 12.28073 1.739815 18.33594.846097 5.04944 1.112345 10.30571-.266055 15.2895-.702503 2.50463-1.564361 4.96191-2.333239 7.44678 1.576504-1.04025 3.153007-2.0805 4.729511-3.12075zm-35.063896-87.21291c5.601135-1.43743 11.315621-3.57732 15.403715-7.83561 3.550948-3.6533 5.218568-8.62668 6.334494-13.48822 1.481922-6.53597 2.711885-13.16907 5.126862-19.44871 2.627998-7.08626 6.488717-13.65926 11.002813-19.70156 1.304956-1.87103 2.609913-3.74206 3.914875-5.61308-5.286088 2.44169-10.646698 4.79071-15.534091 7.98823-6.543461 4.1533-12.405798 9.67667-15.969852 16.63676-3.541283 6.71127-4.707949 14.29223-6.279035 21.62571-1.263148 5.98385-3.115496 11.92915-6.387032 17.14249-.779561 1.31661-1.559127 2.63321-2.338692 3.94982 1.575314-.41861 3.150628-.83722 4.725943-1.25583zm-6.3225253-66.39625c5.3647723.87005 11.1573353.69205 16.0235303-1.96958 4.95779-2.66648 8.301581-7.42512 11.021943-12.20822 3.963887-7.02272 7.316241-14.44858 12.288833-20.85143 2.292767-3.00583 4.924411-5.74883 7.794827-8.20492 1.304197-1.53242 2.6084-3.06484 3.912597-4.59726-2.118302.49661-4.282131.83983-6.371548 1.4338-8.687621 3.25566-17.083692 7.8891-23.396121 14.80683-4.382657 4.67301-7.471787 10.34231-10.770799 15.76423-2.695187 4.45626-6.01759 8.65024-10.3896811 11.56672-1.7840391 1.17546-3.5790575 2.33466-5.3671559 3.50412 1.7511916.2519 3.5023831.50381 5.2535747.75571zm124.8536113 207.84265c2.62533-5.04172 4.41077-10.81093 3.50864-16.53615-.832-5.57586-4.09957-10.38881-7.68231-14.59004-2.60371-3.06699-5.49064-6.07315-8.0833-9.01367-5.03732-5.64938-9.53602-11.95192-12.0655-19.14537-.92857-1.95185-2.07822-3.80293-3.09304-5.71546-.28418 2.15598-.72854 4.30028-.91116 6.46366-.003 9.15634 1.32328 18.50874 5.42277 26.78818.74701 1.52561 1.60719 2.99144 2.42242 4.48091.34213.23598.6004.87722.91346 1.27075 3.71696 5.65134 8.66772 10.37216 12.17393 16.16979 1.977 3.21943 3.21739 6.83471 3.91194 10.53659.32062 1.44392.64124 2.88785.96186 4.33178.8401-1.68032 1.6802-3.36065 2.52029-5.04097zm2.76257-85.7776c4.45363 7.49685 10.92934 13.85361 18.76125 17.75578 6.19885 3.15913 13.08491 4.74237 19.98673 5.3356 1.95749.20774 3.91498.41547 5.87248.6232-2.67747-1.96451-5.44905-3.80481-8.06706-5.84755-4.73105-3.91794-7.53072-9.60263-9.43147-15.33138-2.78806-8.25279-4.10038-17.03212-8.03677-24.8737-2.41861-4.85736-6.20409-9.13022-11.09027-11.59153-5.36463-2.78894-11.51671-3.47587-17.48181-3.47859-.91585-.30554-.69566.45891-.62585 1.08173.86082 12.60256 3.57704 25.37257 10.11277 36.32644zm6.40833-56.33795c3.27645 5.49138 8.07948 9.88505 13.28002 13.5235 1.70701 1.25013 3.41402 2.50026 5.12103 3.75039-1.48237-3.37909-3.16184-6.67547-4.49247-10.11866-1.58321-4.17943-2.063-8.76314-1.30103-13.17175.68234-4.40412 2.1131-8.8614 1.22633-13.34694-.94896-5.11332-4.33163-9.33574-7.93486-12.90502-2.71307-2.70172-5.74095-5.05323-8.71964-7.44899-1.3203 6.07426-2.46628 12.23217-2.48588 18.46954-.0932 7.37979 1.43281 14.89246 5.3065 21.24793zm31.32536-.43819c4.7163-6.34922 8.44384-13.65475 9.49978-21.56932 1.01581-7.13235-.263-14.33873-2.07441-21.23557-2.17717-8.30746-4.78431-16.61663-5.1232-25.26175-.29554-6.24607.56739-12.52226 2.37119-18.50293.0147-1.78567.0295-3.57133.0442-5.357-1.25851 1.35323-2.63236 2.62165-3.81887 4.0278-5.31661 9.63124-9.76303 19.96043-11.27227 30.93287-1.09632 7.63979-.41926 15.46553 1.57237 22.90342 1.1834 4.58626 2.75947 9.05756 4.04741 13.61384.29117 1.06003.63706 2.36244.89266 3.53335 1.18418 5.05463 1.40167 10.36831.26569 15.45245-.26985 2.22694-.53971 4.45388-.80956 6.68082 1.46832-1.73933 2.93666-3.47865 4.40499-5.21798z" fill="#e51a1a" filter="url(#e)" opacity="1"/><path d="m81.302047 331.5733c3.820812 6.52994 8.347892 13.19195 13.619909 20.02855-7.390554-26.88941-6.069184-37.44672-3.354296-58.17027 13.01164 36.1799 26.33647 65.11823 78.49764 87.48673-42.90269-46.16174-55.68993-86.38388-57.36089-126.91396 4.90512 6.1816 15.12428 8.61153 21.32168 8.92149-10.62757-20.9098-11.01344-48.35283.35652-78.38213-.45546 8.96645 11.04263 23.45598 20.3877 27.83246-6.57819-22.44785 3.07886-55.11688 15.41493-72.59942 6.28083-8.90048 11.20095-18.96888 13.77937-28.99188.0648-.24178.1214-.48307.1818-.72512.12356-.50617.24546-1.01277.35781-1.51882.0591-.26877.1148-.53843.17006-.80644 3.1368-15.006488.76439-29.631445-10.52169-39.773254-24.01207-21.577767-54.82628-6.824576-75.003242 8.864847-28.472668 22.140013-40.260929 43.724267-49.582706 59.388277 13.7829-9.84132 26.016415-10.40033 36.401881-6.32502-22.55188 13.76454-29.183172 24.72997-37.462533 52.39916 10.683649-6.75525 16.463597-7.52355 26.710619-3.2034-22.71626 13.9412-31.577686 54.22575-25.75041 92.78537l.0011-.00065c5.529533-16.79809 12.563633-30.45068 25.601495-40.83298-14.454066 33.90581-14.404524 65.28021 6.234262 100.53938z" fill="#ff8066"/><path d="m97.004058 126.60965c-.935262-3.86956-1.146903-8.08359-.614508-12.50664 1.203946-9.999 6.31698-20.825739 15.19859-29.714707 8.88109-8.888669 19.69604-14.002997 29.68553-15.207977 9.98844-1.204367 18.92384 1.357843 25.17817 7.618139 6.25485 6.259988 8.81831 15.207948 7.61449 25.208295-1.20334 10.00008-6.31585 20.82649-15.198 29.71578-4.27608 4.27997-9.00359 7.67678-13.8693 10.19212 4.69655-15.7703 2.24542-30.61338-7.11223-36.40193-11.62159-7.185544-29.62581 2.23597-40.88358 21.09669z" fill="#e51a1a" filter="url(#d)" opacity="1"/><path d="m48.764356 344.95504c25.303488-16.1735 2.771345-33.61335 8.193616-62.29338-18.785066 32.27305-1.371018 41.91005-8.193616 62.29338zm-34.476284-87.47563c30.227345-7.63903 12.006852-26.48857 36.424064-59.23174-35.968641 17.27383-23.516754 38.09654-36.423459 59.23279zm-5.5231904-66.44327c27.4828264 4.37278 23.4228184-24.13647 45.4721134-42.69339-33.391562 12.42155-27.791978 31.48504-45.4721134 42.69339zm104.8509984 179.80437c6.3402 11.03038 15.32338 16.3156 17.92813 29.12139 13.45008-25.93208-15.15378-31.25173-24.53751-58.04748-.047 13.62148 2.80513 22.30764 6.60885 28.9264zm24.20515-56.77132c6.664 11.08589 17.62874 20.09746 35.5632 21.93633-22.46941-15.28293-6.7847-55.87259-45.31896-56.30109.7279 10.12258 3.09122 23.27919 9.75545 34.36423zm5.86361-57.27435c2.83941 5.0768 6.96967 9.31318 12.23328 13.08973-10.75192-22.72176 11.59633-26.23042-14.93743-47.2494-3.17389 14.90316-2.02718 25.69868 2.70415 34.15967zm28.52318.34007c24.11284-32.56604-6.72618-48.95275 4.37174-85.94706-26.48725 47.5552 1.28043 59.84894-4.37174 85.94706z" fill="#ff8066"/></g><g opacity=".9" transform="translate(8 2.625885)"><path d="m420.64867 352.01481c3.46702-6.3845 6.57799-12.96788 9.29523-19.70391.57619-1.99974 1.15238-3.99949 1.72857-5.99924-1.80977 1.49197-3.73663 2.85293-5.46943 4.43102-8.34739 8.42252-17.30412 16.46347-27.80432 22.11918-3.97643 2.17399-8.10504 4.05353-12.26812 5.83843 9.09716-11.07331 17.62725-22.80821 23.45815-35.96946 5.77372-12.80603 8.76353-26.76128 9.45906-40.76234.52479-10.14093.00034-20.32222-1.23893-30.39385-.43272-2.12569-.86543-4.25139-1.29814-6.3771-1.13738 2.88444-2.50892 5.68417-3.33372 8.68169-4.03629 12.75516-8.87158 25.27505-14.80259 37.27428-1.01301 2.04748-2.2073 4.35901-3.2816 6.35968-1.80913 3.36226-3.77823 6.7783-5.73548 9.96541-8.89528 14.48169-19.89146 27.69482-32.72294 38.85423-4.59674 4.00476-9.296 7.68822-14.26511 11.20268-1.54432 1.09507-3.10494 2.16722-4.68049 3.21686.54552-5.94813-.92183-11.91838-3.22946-17.36813-.77533-1.75979-1.67024-3.46386-2.49853-5.19897-2.5258 3.89273-5.13897 7.75018-8.27448 11.18556-2.84804 3.18486-5.85537 5.99708-9.19536 8.67382-.62304.4897-1.50693 1.18257-2.15292 1.6615-2.02916 1.51043-4.28732 3.0434-6.52234 4.41219-1.11285.67257-2.43371 1.4573-3.65666 2.1246-3.28548 1.81687-6.88517 3.53915-10.44491 5.00106-6.89163 2.83931-14.06192 4.98463-21.35043 6.53293 3.90799-5.05333 6.44434-11.06131 8.01994-17.22067 1.02947-4.06099 1.50362-8.28529 1.07982-12.46587-.0661-1.06531-.13226-2.13062-.19839-3.19592-2.90761 2.98116-5.7594 6.05205-9.14159 8.51161-3.90186 2.95212-8.31193 5.46417-12.64617 7.49934-10.48416 4.87288-21.80325 7.86548-33.27197 9.20984-6.32687.73758-12.73205.84315-19.06932.19218-11.9147-.81072-24.09062.28771-35.39626 4.28034-8.50307 3.02434-16.58322 7.93129-22.13029 15.17042-4.11889 5.26972-6.56477 11.72375-7.39337 18.3357-1.18179 8.25268.0997 16.85181 3.78253 24.3427 4.42431 9.14139 11.81526 16.51273 20.0053 22.35668 11.20787 7.99636 24.05392 13.33846 37.09414 17.54696 14.11237 4.53767 28.82559 7.13787 43.62492 7.89637 6.57483.35044 13.16292.4197 19.74465.44722 2.17445-.13971 4.34889-.27943 6.52333-.41915-2.71282-1.50308-5.35017-3.14885-8.17207-4.44327-6.81455-3.41326-13.09986-8.40755-16.79357-15.1871-1.14242-2.06225-2.02757-4.26442-2.66655-6.53271 8.27073 4.24602 17.14114 7.66988 26.46614 8.52131 10.399 1.01549 20.79771-.8695 30.92038-3.09648 3.17622-.71125 6.34134-1.47111 9.51267-2.20387-2.38761-1.28877-4.81034-2.52882-7.11525-3.82838-4.08873-2.32795-8.20383-5.21307-10.28007-9.58724-.81852-1.68273-1.44829-3.64236-1.7429-5.38521 9.03135 3.73743 19.08452 4.18915 28.68483 2.97495 13.07053-1.68523 25.62246-6.26084 37.31935-12.22649 9.77605-5.00508 18.95289-11.13203 27.48574-18.03734.86621-.4095.54014-.73335-.19588-1.02773-.81954-.42235-1.60912-1.02948-2.44738-1.33644-11.3485 2.40024-23.26636 3.90626-34.87551 1.99245-1.57631-.25915-3.14393-.57328-4.69611-.95118 13.98032-2.47357 27.68939-7.16308 39.71628-14.79926 11.98422-7.51948 22.06102-17.81763 30.10428-29.40569 3.06431-4.40137 5.85843-8.98633 8.4333-13.69019z" fill="#e51a1a" filter="url(#c)" opacity="1"/><path d="m446.26208 373.23702c-5.13145-2.66053-10.9586-4.5875-16.80008-3.75688-5.40824.72991-10.10847 3.84265-14.16618 7.32248-6.02882 5.20144-11.54391 11.07689-18.32523 15.34182-3.25927 2.10222-6.77645 3.7902-10.42155 5.10298-1.7551.97143-3.5102 1.94286-5.2653 2.91429 2.15095.28411 4.29007.73102 6.44849.91234 9.42107.00071 19.08529-1.24642 27.59792-5.50974 5.56155-2.70365 10.26917-6.77474 15.00949-10.6747 3.94989-3.25746 8.36883-6.11617 13.37412-7.41434 2.52032-.64393 5.07932-1.12618 7.61572-1.70275-1.68913-.84516-3.37827-1.69033-5.0674-2.5355zm-57.99666 73.97268c-4.04541-4.13201-8.75586-8.01095-14.48769-9.4222-4.93932-1.24856-10.08021-.20607-14.84838 1.25828-6.40129 1.9846-12.7607 4.23597-19.40652 5.28436-7.45087 1.26722-15.07361 1.21023-22.56345.32206-2.27284-.19461-4.54567-.38922-6.8185-.58384 4.7576 3.35704 9.47221 6.82496 14.68505 9.4588 6.86859 3.59016 14.58313 5.90541 22.39278 5.51192 7.58277-.28879 14.73141-3.06891 21.86793-5.37505 5.81374-1.89801 11.8887-3.26648 18.03935-3.03991 1.53.0168 3.05999.0336 4.58999.0505-1.15019-1.15496-2.30037-2.30992-3.45056-3.46488zm-54.33957 38.6736c-1.9289-5.08106-4.97934-10.00856-9.71747-12.892-4.78813-2.96033-10.58113-3.47682-16.0836-3.44117-8.0638.0785-16.17095.88824-24.20229-.21673-3.7495-.48268-7.44084-1.39025-11.00307-2.64806-1.97922-.36326-3.95843-.72652-5.93765-1.08977 1.48923 1.58619 2.86838 3.28851 4.42748 4.80102 7.1633 5.89587 15.37401 10.85036 24.52115 12.85822 6.23828 1.45899 12.6926 1.2996 19.03763 1.44567 5.20682.10597 10.50012.88626 15.21191 3.21437 1.91.95729 3.81141 1.93222 5.71823 2.89603-.65744-1.64253-1.31488-3.28506-1.97232-4.92758zm117.57021-212.04773c-5.67892.24726-11.56792 1.58562-16.07504 5.2295-4.41284 3.50847-6.94719 8.74474-8.79419 13.9481-1.35424 3.78837-2.51419 7.79161-3.76442 11.50718-2.37385 7.18714-5.58266 14.2344-10.54763 20.02171-1.22607 1.7801-2.25432 3.70126-3.40321 5.53638 2.00922-.83188 4.08842-1.5192 6.05327-2.44274 7.9313-4.57527 15.3674-10.40036 20.48786-18.09034.94771-1.40974 1.78707-2.88759 2.66937-4.33834.0333-.41428.4595-.95857.64378-1.42646 3.03572-6.04464 4.64869-12.69254 7.91648-18.62782 1.79961-3.32185 4.31034-6.2037 7.16898-8.65613 1.09017-.99963 2.18034-1.99926 3.27051-2.99889-1.87525.11261-3.75051.22523-5.62576.33785zm-75.66686 40.49634c4.26564-7.60537 6.53291-16.39189 5.99633-25.1256-.36354-6.94793-2.43544-13.70306-5.3726-19.97682-.79884-1.7991-1.59768-3.59821-2.39654-5.39731-.36258 3.30101-.57053 6.62141-1.03059 9.91004-1.02751 6.05618-4.55076 11.32311-8.56164 15.83359-5.75309 6.54093-12.70005 12.06709-17.52286 19.39689-2.99729 4.52326-4.80496 9.93802-4.49343 15.40023.26702 6.04038 2.74817 11.71169 5.72836 16.87898.19332.94592.74526.37301 1.24973.001 10.48373-7.04677 20.18477-15.78409 26.40324-26.92114zm-51.99427 22.61921c3.11746-5.58319 4.52097-11.93957 5.07169-18.26259.22913-2.10338.45828-4.20676.68742-6.31014-2.1852 2.97331-4.20021 6.07597-6.51678 8.94992-2.8279 3.46082-6.5576 6.16818-10.75656 7.71261-4.15525 1.61113-8.73075 2.6007-12.17195 5.61143-3.95379 3.37849-5.91918 8.41918-7.20865 13.32431-.98323 3.70044-1.50575 7.49842-2.09119 11.27591 5.9206-1.89371 11.82651-3.98022 17.23803-7.08193 6.43767-3.60919 12.18084-8.68707 15.74799-15.21952zm-16.04217-26.90947c-7.85672-.90983-16.04727-.4852-23.42946 2.55761-6.6847 2.68646-12.2862 7.39713-17.35334 12.41428-6.10588 6.03921-11.99826 12.45164-19.31571 17.06769-5.26149 3.37899-11.1283 5.76975-17.20961 7.19795-1.5538.88008-3.1076 1.76015-4.6614 2.64021 1.80118.41329 3.58659.96887 5.39761 1.29334 10.9992-.2113 22.16775-1.52518 32.42478-5.70437 7.16442-2.87045 13.60318-7.36967 19.04876-12.81341 3.38011-3.31799 6.46435-6.91856 9.76623-10.31209.77243-.78217 1.7274-1.73292 2.61364-2.53973 3.78535-3.55285 8.27838-6.39805 13.24937-7.95633 2.06351-.87977 4.12703-1.75954 6.19054-2.63931-2.24046-.40194-4.48093-.80389-6.72141-1.20584z" fill="#e51a1a" filter="url(#b)" opacity="1"/><path d="m417.50911 353.53823c3.74469-6.57389 7.25062-13.82546 10.53528-21.80946-19.59163 19.84511-29.39521 23.97942-48.69978 31.99004 24.82688-29.35837 43.22581-55.36717 36.51691-111.72432-18.52589 60.23569-46.96567 91.42084-81.23028 113.13297 2.90087-7.33875-.10433-17.40377-2.9346-22.92587-12.79463 19.65866-36.36805 33.71434-68.05917 38.88232 7.9929-4.08878 14.79216-21.29119 13.90977-31.5725-16.15132 16.9208-49.27205 24.89207-70.58041 22.95-10.84846-.98912-22.028-.21588-31.99739 2.56265-.24177.0648-.47905.1364-.71887.20511-.50014.14609-.99982.29382-1.49424.44954-.2623.0832-.5237.1698-.78343.25595-14.5644 4.78669-26.04378 14.15374-29.18381 28.99867-6.68085 31.58395 21.50289 50.89324 45.17881 60.52229 33.41015 13.58805 57.99679 13.00486 76.22311 13.24575-15.41428-7.01569-22.01516-17.33071-23.67856-28.36245 23.19638 12.64823 36.00836 12.90839 64.11026 6.24393-11.19204-5.87469-14.74738-10.49612-16.12953-21.53038 23.43156 12.70226 62.74972.23421 93.22969-24.09217l-.001-.00065c-17.31234 3.61033-32.65288 4.34491-48.16314-1.75506 36.59032-4.43532 63.73658-20.16542 83.95253-55.66872z" fill="#ff8066" opacity=".9"/><path d="m232.15438 442.42171c-2.88351 2.74474-6.42715 5.03505-10.52381 6.7855-9.26137 3.95686-21.19412 4.9422-33.33299 1.69499-12.13836-3.24691-21.97497-10.05577-28.01326-18.10443-6.03723-8.04806-8.286-17.06745-5.99159-25.61401 2.29389-8.54685 8.76132-15.24085 18.02379-19.19849 9.26199-3.95791 21.19419-4.94355 33.33361-1.69604 5.84461 1.56322 11.15009 3.95895 15.76129 6.91512-16.00575 3.81781-27.63467 13.36209-27.96888 24.36033-.41207 13.65737 16.74931 24.53872 38.71206 24.85787z" fill="#e51a1a" filter="url(#a)" opacity="1"/><path d="m445.36688 375.02583c-26.65841-13.82671-30.49568 14.40662-58.04445 24.05081 37.34181.13182 36.98067-19.76769 58.04445-24.05081zm-58.51797 73.59515c-21.72927-22.35813-28.94321 2.84605-69.50823-1.92829 32.9439 22.51284 44.75096 1.31783 69.50883 1.92724zm-54.77996 38.00486c-9.95448-25.98722-32.61421-8.21652-59.70963-18.03331 27.45317 22.70716 41.16284 8.32604 59.70963 18.03331zm103.28965-180.70581c6.38249-11.00597 6.46803-21.42824 16.2558-30.08692-29.18288 1.31793-19.4879 28.74942-38.00184 50.27385 11.82005-6.77004 17.91642-13.58313 21.74657-20.18663zm-61.26798 7.42338c6.26866-11.31414 8.59054-25.31567 1.21582-41.7668-2.0007 27.10054-44.99474 33.81201-26.0987 67.39792 8.40247-5.69168 18.61476-14.31667 24.88257-25.63058zm-52.53285 23.55914c2.97693-4.9974 4.58061-10.69251 5.2194-17.1392-14.30167 20.67232-28.51438 3.07249-33.45047 36.5609 14.49346-4.70292 23.2693-11.09376 28.23107-19.4217zm-13.96708-24.87183c-40.25944-4.59931-39.03124 30.30142-76.61821 39.18749 54.42763-.83897 51.19049-31.03336 76.61821-39.18749z" fill="#ff8066" opacity=".9"/></g></svg>