<svg height="500" viewBox="0 0 500 500" width="500" xmlns="http://www.w3.org/2000/svg"><g transform="translate(0 -1000)"><path d="m0 1250a250 250 0 0 1 -250 250 250 250 0 0 1 -250-250 250 250 0 0 1 250-250 250 250 0 0 1 250 250z" fill="#9db3df" stroke-linecap="round" stroke-linejoin="round" stroke-width="9.39799" transform="scale(-1 1)"/><path d="m263.85417 1289.4759c11.1612 3.7204 14.8816-7.4408 18.46913-11.0283 7.04219-8.7696 15.28021-26.0428 14.48299-54.6102-10.49685-61.1209-92.21278-68.5617-125.69638-20.1965-11.1612 18.602-11.1612 33.4836-14.8816 52.0856 0 29.7632 14.8816 52.0856 40.9244 70.6876 11.1612 11.1612 26.0428 11.1612 37.204 14.8816 70.6876 11.1612 130.214-48.3652 119.0528-119.0528-7.4408-29.7632-22.3224-59.5264-48.3652-78.1284-44.6448-29.7632-96.7304-29.7632-137.6548-3.7204-18.602 11.1612-29.7632 22.3224-40.9244 40.9244-63.2468 100.4508 26.0428 219.3708 133.9344 208.2096 22.3224 0 40.9244-11.1612 63.2468-18.602 22.3224-14.8816 44.6448-37.204 59.5264-59.5264 40.92441-78.1284 7.4408-171.0056-66.9672-215.6504-26.0428-11.1612-52.0856-22.3224-81.8488-22.3224-37.204 0-70.6876 11.1612-100.4508 33.4836-33.4836 26.0428-52.0856 59.5264-66.9672 96.7304-7.4408 14.8816-3.7204 33.4836-7.4408 52.0856 0 119.0528 126.4936 215.6504 241.69313 174.726 29.7632-14.8816 63.2468-26.0428 89.2896-52.0856 22.3224-29.7632 44.6448-59.5264 52.0856-96.7304 3.7204-26.0428 7.4408-44.6448 3.7204-70.6876-18.602-152.5364-189.60753-234.25236-319.82153-156.2568-22.3224 14.8816-44.6448 29.7632-59.5264 52.0856-29.7632 37.204-44.6448 74.408-52.0856 119.0528-18.602 137.6548 96.7304 260.2951 230.53193 260.2951 29.7632 0 63.2468-11.1612 93.01-18.602 37.204-14.8816 70.6876-33.4836 96.7304-66.9672 18.602-26.0428 29.7632-52.0856 44.6448-81.8488 11.1612-33.4836 18.602-70.6876 14.8816-104.1712-7.4408-44.6448-18.602-85.5692-44.6448-119.0528 96.59753 111.7449 44.51193 297.7649-81.8488 364.7321-22.3224 14.8816-48.3652 18.602-70.6876 26.0428-89.2896 22.3224-178.44633-14.8816-234.25233-78.1284-14.8816-14.8816-18.602-33.4836-29.7632-52.0856-48.3652-70.6876-33.4836-152.5364 3.7204-226.8116 52.0856-89.2896 159.9772-130.21396 264.01553-100.4508 63.2468 18.602 115.3324 63.2468 141.3752 126.4936 7.4408 29.7632 14.8816 59.5264 14.8816 89.2896 0 37.204-11.1612 70.6876-29.7632 104.1712-14.8816 22.3224-26.0428 40.9244-48.3652 55.806-18.602 11.1612-33.4836 18.602-52.0856 29.7632-33.4836 11.1612-70.6876 18.602-111.612 14.8816-122.7732-18.602-200.76873-148.816-156.2568-267.7359 14.8816-29.7632 29.7632-59.5264 55.806-78.1284 55.806-40.9244 119.0528-52.0856 185.88713-29.7632 100.4508 40.9244 148.816 156.2568 89.2896 245.4135-11.1612 18.602-18.602 33.4836-33.4836 48.3652-55.806 40.9244-130.214 55.806-189.60753 18.602-14.8816-14.8816-33.4836-18.602-44.6448-37.204-44.6448-66.9672-44.6448-156.2568 18.602-211.9299 63.2468-55.806 174.72593-40.9244 215.65033 37.204 7.4408 22.3224 18.602 40.9244 14.8816 66.9672 0 22.3224-11.1612 40.9244-14.8816 59.5264-26.0428 55.806-96.7304 74.408-152.5364 55.806-18.602-11.1612-40.9244-18.602-52.0856-37.204-48.3652-70.6876-7.4408-178.4463 85.5692-174.7259 22.3224 0 44.6448 14.8816 63.2468 26.0428 29.7632 22.3224 33.4836 55.806 29.7632 89.2896-11.1612 48.3652-63.2468 70.6876-111.612 59.5264-22.3224-7.4408-37.204-29.7632-44.6448-52.0856-3.7204-26.0428 3.7204-48.3652 22.3224-66.9672 33.4836-33.4836 89.2896-7.4408 96.7304 37.204-3.7204 18.602-14.8816 37.204-29.7632 52.0856" fill="#c6d2ec" opacity=".9"/><path d="m262.92407 1285.7555c10.2311 3.4546 13.68576-6.7765 17.00754-10.0982 6.37783-7.8395 13.9515-23.6512 13.15428-49.9597-9.56675-56.2046-84.77198-62.9811-115.59815-18.602-10.2311 17.1404-10.2311 30.6933-13.68576 47.8337 0 27.3715 13.68576 47.8337 37.60262 64.9741 10.2311 10.2311 23.91686 10.2311 34.14796 13.6858 64.97413 10.2311 119.58428-44.3791 109.35318-109.3532-6.77644-27.3715-20.4622-54.743-44.37905-71.7506-41.05728-27.3715-88.89099-27.3715-126.49361-3.4546-17.14041 10.2311-27.37151 20.4622-37.60261 37.6026-58.06482 92.3456 23.91686 201.6988 123.03894 191.3349 20.4622 0 37.60262-10.2311 58.06482-17.1405 20.4622-13.6857 41.05727-34.1479 54.74303-54.743 37.60261-71.7506 6.77644-157.1869-61.51947-198.2442-23.91686-10.2311-47.83372-20.4622-75.20523-20.4622-34.14796 0-64.97413 10.2311-92.21278 30.8262-30.6933 23.9169-47.83371 54.743-61.51947 88.891-6.77644 13.6858-3.45466 30.6933-6.77644 47.8337 0 109.3532 116.2625 198.2442 222.16103 160.6416 27.37151-13.6858 58.06481-23.9169 81.98167-47.8337 20.4622-27.3716 41.05727-54.7431 47.83372-88.891 3.45465-23.9169 6.77644-41.0573 3.45465-64.9742-17.14041-140.0464-174.32731-215.25168-293.9116-143.5011-20.4622 13.6858-41.05727 27.3715-54.74303 47.8337-27.37151 34.148-41.05727 68.2959-47.83371 109.3532-17.14042 126.4936 88.89098 239.3014 211.92993 239.3014 27.37151 0 58.06481-10.2311 85.43633-17.1404 34.14795-13.6857 64.97413-30.8261 88.89098-61.5194 17.14042-23.9169 27.37152-47.8338 41.05728-75.2053 10.2311-30.6933 17.14041-64.9741 13.68575-95.6674-6.77644-41.0573-17.14041-78.6599-41.05727-109.3532 88.89099 102.5768 41.05727 273.4494-75.20523 334.9689-20.4622 13.6857-44.37906 17.1404-64.97413 23.9168-81.98167 20.4622-164.09621-13.6857-215.25171-71.7505-13.68576-13.6858-17.14042-30.6933-27.37152-47.8337-44.37906-64.9742-30.6933-140.1794 3.45466-208.4753 47.83371-81.9817 146.9558-119.5843 242.62323-92.2128 58.06481 17.1404 105.89853 58.0648 129.81539 116.2625 6.77644 27.3715 13.68575 54.743 13.68575 81.9817 0 34.1479-10.2311 64.9741-27.37151 95.6674-13.68576 20.4622-23.91686 37.6026-44.37906 51.2884-17.14041 10.2311-30.6933 17.1404-47.83371 27.3715-30.82617 10.2311-64.97413 17.1404-102.57675 13.6858-112.80784-17.1405-184.55841-136.7247-143.50114-246.0779 13.68576-27.3715 27.37151-54.7431 51.28837-71.7506 51.28837-37.6026 109.35319-47.8337 170.87266-27.3715 92.21277 37.6026 136.7247 143.5011 81.98167 225.6157-10.2311 17.1404-17.14041 30.6933-30.82617 44.379-51.28837 37.6026-119.58429 51.2884-174.32732 17.1404-13.68575-13.6857-30.82617-17.1404-41.05727-34.1479-41.05727-61.5195-41.05727-143.5012 17.14042-194.7895 58.19768-51.5541 160.77443-37.8684 198.37704 33.8822 6.77644 20.4622 17.14042 37.6026 13.68576 61.5195 0 20.4622-10.2311 37.6026-13.68576 54.743-23.91686 51.2884-88.89099 68.2959-140.17936 51.2884-17.14041-10.2311-37.60261-17.1405-47.83371-34.148-44.37906-64.9741-6.77644-164.0962 78.65988-160.6416 20.4622 0 41.05728 13.6858 58.06482 23.9169 27.37151 20.4622 30.6933 51.2884 27.37151 81.9817-10.2311 44.379-58.06481 64.9741-102.57674 54.743-20.4622-6.7764-34.14796-27.3715-41.05727-47.8337-3.45466-23.9169 3.45466-44.3791 20.4622-61.5195 30.6933-30.8262 81.98167-6.7764 88.89099 34.148-3.45466 17.1404-13.68576 34.1479-27.37152 47.8337" fill="#ecf0f9" opacity=".9"/><path d="m226.91591 1287.6157c5.31486 10.4968 15.8117 5.3148 20.86082 5.3148 10.62971-1.0629 28.56735-7.4408 48.23233-28.3016 35.87528-50.624-16.7418-113.7379-74.54088-103.2411-20.99368 5.3149-31.49052 15.8117-47.30222 26.3086-20.99369 20.9937-26.30855 47.3022-20.99369 78.9256 0 15.8117 10.49684 26.3085 15.8117 36.8054 42.12024 57.7991 126.22786 57.7991 168.3481 0 15.8117-26.3086 26.30854-57.7991 20.99369-89.4225-10.49685-52.6171-47.30223-89.4225-94.60446-99.9193-20.99369-5.3149-36.80539-5.3149-57.79907 0-115.73102 26.3085-136.7247 173.5301-52.61709 241.9589 15.8117 15.8117 36.80539 20.9937 57.79907 31.4905 26.30855 5.3149 57.79907 5.3149 84.10762 0 84.10761-26.3085 126.22786-115.731 105.23417-199.8386-10.49684-26.3086-20.99369-52.6171-42.12024-73.6108-26.30855-26.3085-57.79907-42.1202-94.60446-47.3022-42.12024-5.3149-78.92563 5.3148-115.73102 20.9937-15.8117 5.3148-26.30854 20.9936-42.12024 31.4905-84.10761 84.1076-63.11393 241.9589 47.30223 294.5759 31.49053 10.4969 63.11393 26.3086 99.91931 26.3086 36.80539-5.3149 73.61078-10.4969 105.23418-31.6234 20.99368-15.8117 36.80538-26.3086 52.61708-47.3022 94.60446-120.913 31.49053-299.758-115.73101-336.5634-26.30855-5.3148-52.61709-10.4968-78.92563-5.3148-47.30223 5.3148-84.10762 20.9937-120.913 47.3022-110.41616 84.1076-115.73102 252.4557-20.99369 347.0602 20.99369 20.9937 52.61709 36.8054 78.92563 52.6171 36.80539 15.8117 73.61077 26.3085 115.73102 20.9936 31.49053-5.3148 57.79907-15.8117 89.42247-26.3085 31.49053-15.8117 63.11393-36.8054 84.10761-63.1139 26.30855-36.8054 47.30223-73.6108 52.61709-115.731-10.76259 147.4872-179.11069 242.2246-315.83539 200.1043-26.30854-5.3148-47.30223-20.9937-68.42879-31.4905-78.92562-47.3022-115.73101-136.7247-110.41615-220.8323 0-20.9937 10.49684-36.8054 15.8117-57.7991 15.8117-84.1076 84.10761-131.5427 163.03324-157.7184 99.91932-26.30852 205.15349 20.9937 257.77058 115.731 31.49052 57.7991 36.80538 126.2279 10.49684 189.3418-15.8117 26.3086-31.49053 52.6171-52.61709 73.6108-26.30854 26.3085-57.79907 42.1202-94.60446 52.6171-26.30854 5.3148-47.30223 10.4968-73.61077 5.3148-20.99368-5.3148-36.80538-10.4968-57.79907-15.8117-31.49053-15.8117-63.11393-36.8053-89.42247-68.4287-73.61078-99.9194-36.80539-247.1409 78.92563-299.758 31.49053-10.4968 63.11393-20.9937 94.60445-15.8117 68.42879 10.4969 120.91301 47.3022 152.53641 110.4162 42.12024 99.9193-5.31486 215.6503-110.41616 236.644-20.99369 5.3148-36.80539 10.4968-57.79907 10.4968-68.42879-10.4968-131.54272-52.6171-147.22155-120.913 0-20.9937-10.49684-36.8054-5.31486-57.799 15.8117-78.9257 78.92563-142.0396 163.03325-136.7247 84.10761 5.3148 152.5364 94.6044 126.22786 178.8449-10.49685 20.9937-15.8117 42.1202-36.80539 57.7991-15.8117 15.8117-36.80538 20.9937-52.61708 31.4905-57.79908 20.9937-120.91301-15.8117-147.22155-68.4288-5.31486-20.9937-15.8117-42.1202-10.49684-63.1139 15.8117-84.1076 120.913-131.5427 184.02693-63.1139 15.67883 15.6788 20.86081 41.9873 26.17567 62.981 5.31486 36.8054-15.8117 63.1139-42.12024 84.1076-42.12025 26.3086-94.60446 5.3149-120.913-36.8054-10.49685-20.9936-5.31486-47.3022 5.31485-68.4287 15.8117-20.9937 36.80539-31.4906 63.11393-31.4906 23.98451 0 41.23931 14.86 48.993 34.3086 7.53814 18.9078 6.09609 42.1526-6.87275 60.2959-15.81171 10.4968-36.80539 15.8117-57.79908 15.8117" fill="#fff" opacity=".9"/></g><g opacity=".9" transform="matrix(-1 0 0 1 500 0)"><path d="m296.18197 202.64734-20.18394-14.0943-103.64863 22.13925-15.54133 21.72554 11.52851 96.87916 142.19822-18.95044z" fill="#7896d3" opacity="1"/><path d="m296.18197 202.64734 15.28997 107.57432-143.13536 19.07533-11.52851-96.87916z" fill="#fff" opacity="1"/><path d="m87.37695 222.11328c-.320594-7.53164 3.169375-17.48709 7.425781-28.7207 5.536809-14.08933 8.927479-30.21253 2.63086-42.73828-4.391037-8.38473-12.387265-14.25981-21.283203-17.85157-8.895938-3.59174-21.584647-7.84543-32.679688-6.91211-14.650024 1.23237-41.0195295 16.20727-41.0195295 16.20727 10.6201485 6.57602 19.0847125 5.68501 38.6816395 21.76539-2.055846 2.55589-5.174058 6.4242-9.298829 10.45703-8.37377 8.18714-19.4378 18.41233-25.5390615 34-6.101262 15.58769-3.926843 36.60645 9.5976555 54.92288 7.857303 10.63866 18.131904 16.76628 29.478516 23.7803 13.061148 7.97685 25.638899 14.58469 38.884766 21.38086.561306 15.44018 3.846033 28.08591 6.443359 36.00586l-28.595703 56.45507 35.771484 64.76368v34.29297h89.830083l-35.125-51.10157-5.33203-19.41015 50.11132 47.12695v23.29687h89.48438l-38.35156-43.7871-28.85743-37.75391 42.73829-62.70899c7.19511-1.08399 14.25294-2.15791 21.08789-3.25586l25.32031 56.49805 18.33984 56.76563-1.27148 34.40815h83.98242l-23.92969-44.34766-14.93359-61.51953-5.08203-46.32226 40.48437 2.22656 9.07031 11.64453-27.97461 20.89844 75.70313 35.71484 21.93359-43.31836-26.78906-68.85937-61.7793-30.43946c3.3767-13.80811 4.71991-27.77928 5.41269-34.05761l.37833-17.95215 8.55859 12.24219 29.99024 42.71875 56.67383-16.66602-4.14258-16.73242-12.58008-54.62695c-.72419-3.63786-1.29676-6.80207-1.74023-9.79884l-.32032-21.78124 18.17578-32.86719-14.48632-9.03906c-25.09952-15.66235-49.38166-22.603518-71.66602-22.603518-32.67574 0-59.68019 14.688498-79.72656 31.933598-19.97136 17.18055-33.77476 37.08279-42.09766 50.86718l-12.96681 11.23859 15.09767 106.2243-107.04101 14.26563-11.70529-98.35068c-26.75803 4.53707-51.65574 16.57431-68.40702 35.81357-14.196054-10.32522-16.251721-17.02272-16.56543-24.39258zm71.46484 163.72266-14.68945 32.29883-3.98633-14.51368z" fill="#7896d3" opacity="1"/><path d="m93.950557 261.63183c-71.811802-51.39438 46.602213-108.30883-52.205622-117.82426 65.764615 29.57016-54.846332 49.86972-11.373156 108.74286 8.310746 11.25156 38.568903 27.76722 55.079403 36.23649 1.350679-9.45177 4.236849-18.61756 8.543725-27.13286zm340.196163-23.94992 14.04722 20.03246 27.73945-8.15769s-1.25382-5.06377-3.04023-12.498c-4.77935.83888-9.61745 1.2966-17.30258 1.31048-7.68512.0139-14.33148-.2198-21.44386-.68725zm-59.2736 47.38786c6.25804-16.38209 8.52156-36.25872 9.09856-53.41987-18.44743-3.12681-36.62511-7.68489-54.36928-13.6332-11.66751-3.88054-22.87483-9.03455-33.42043-15.36936l15.28997 107.57432-143.13536 19.07533-11.52851-96.87916c-4.72683 1.96985-9.37594 4.05098-13.9141 6.27681-65.254206 31.91841-32.68812 107.04012-32.68812 107.04012l-27.739441 54.76649 33.409381 60.48689v20.9339h37.61461l-17.46469-25.40781-16.06668-58.5059 54.22497-51.63922c30.94611 1.40224 113.66505-12.78739 149.26026-18.91957l92.09488 5.06378 25.38711 32.59725-18.69637 13.96709 32.78796 15.46951 10.39674-20.53329-21.33715-54.84442zm-21.67003 112.18175-5.54785-50.57082-23.17905-1.26871c-6.8794 1.17968-14.54655 2.47068-22.67976 3.81731l23.81149 53.13053 19.61731 60.72059-.69899 18.91953h35.14026l-10.70739-19.84327zm-155.76236 21.64619 40.82132-59.89701c-23.66723 3.28304-56.93235 5.64245-57.10988 5.64245l3.25108 8.46928-21.19294 46.59769 52.15008 49.04613v13.07674h31.78941l-12.5937-14.37882zm106.83088-232.11995c2.53546 1.62398 5.14967 3.12083 7.833 4.48502 19.9613 10.52816 46.3575 17.75121 71.94433 22.40323-.3439-12.75404-1.35332-21.40097-1.35332-21.40097s13.96961 6.91067 31.90038 17.53903l6.30156 9.01346c22.39122 2.22584 40.53442 2.39324 47.9131 1.11342-4.08324-17.69535-8.33417-37.4507-7.85708-41.0677l-.23345-24.40541 12.20583-22.06988c-22.7574-14.20077-43.50702-19.87449-62.13686-19.87449-54.63561 0-91.16095 48.78969-106.51749 74.26429z" fill="#fff" opacity="1"/><path d="m444.07031 157.65625c-4.57799.12627-8.7275 3.87464-9.30273 8.42187-.66834 4.19463 1.7234 8.66438 5.63086 10.36719 3.7705 1.79459 8.62958.81967 11.38086-2.33593 2.96329-3.16109 3.37801-8.3255.98794-11.93461-1.83015-2.91513-5.25677-4.70195-8.69693-4.51852z" fill="#849fd7"/></g></svg>