<svg height="500" viewBox="0 0 500 500" width="500" xmlns="http://www.w3.org/2000/svg" xmlns:xlink="http://www.w3.org/1999/xlink"><radialGradient id="a" cx="1362.7291" cy="216.11429" gradientTransform="matrix(1.0000001 -.0000059 .0000001 1.0000003 -112.72927 33.893757)" gradientUnits="userSpaceOnUse" r="250"><stop offset="0" stop-color="#ff851a"/><stop offset=".42441937" stop-color="#f87000"/><stop offset=".86367416" stop-color="#f26900"/><stop offset="1" stop-color="#e55f00"/></radialGradient><g transform="translate(-1000)"><path d="m1500 250a250 250 0 0 1 -250 250 250 250 0 0 1 -250-250 250 250 0 0 1 250-250 250 250 0 0 1 250 250z" fill="url(#a)" stroke-linecap="round" stroke-linejoin="round" stroke-width="1.002"/><path d="m1309.2298 33.82789c128.5196 30.706851 207.8974 167.48127 169.5927 291.56949-31.3771 95.69524-112.8693 162.03793-212.5543 174.60263 153.1796-8.09118 266.0956-163.0043 218.7012-309.92978-36.4562-114.666588-154.6038-191.5214848-270.6514-169.822657-18.8526 4.215647-38.4387 10.498641-55.8829 18.694487-112.5353 47.459213-168.47522 196.206-99.9632 307.85319 57.6978 93.63045 168.5136 141.8489 267.9993 100.77239-134.92 68.97589-303.283-51.46877-311.488-201.30723-4.4167-117.68321 76.8182-219.674136 190.654-246.26040176-89.0147 9.18391126-152.6601 79.39239576-187.7408 157.21169176-38.45522 102.70317 5.2337 231.75078 109.038 294.08388 114.5107 66.1048 260.3537 29.37245 323.6836-83.60152 42.2104-77.69758 34.3514-177.62383-23.1776-249.88923-57.5404-72.257811-157.5429-102.460489-246.4118-71.877168-81.7429 30.682061-131.1298 101.133078-134.0478 190.176958.6692 92.68536 61.7912 168.55972 147.5399 198.52472 128.5549 37.82014 266.7725-70.33038 233.6823-209.88949-14.7104-64.39775-57.8855-122.14991-125.7378-141.121386-71.391-15.467036-138.9716 1.205-181.2869 64.641366-18.8995 29.2286-28.9384 85.21395-26.105 97.65297m0 0c13.5324-50.18833 30.6277-97.66354 72.2125-128.94941 53.182-38.308183 124.4576-37.093813 181.7444-.48035 50.1457 36.48017 75.4845 90.37713 72.3557 150.91678-6.6674 64.04407-38.4038 109.83277-91.6401 141.00844-63.9019 34.56125-135.3795 4.83213-189.1258-35.28385-78.8706-65.48566-79.7477-186.67235-8.9744-256.76104 63.7369-55.941605 167.0207-64.891564 238.7167-6.65053 78.8163 58.35315 90.3045 169.04089 40.972 246.62443-35.2274 56.41892-88.4571 87.60135-152.5581 93.63158-81.9488 2.18264-160.666-41.91503-196.8695-120.9383-36.2055-79.02511-22.5771-164.33167 26.8727-227.66064 49.4316-63.30896 138.3491-86.746364 220.4504-67.54202" fill="#c50"/></g><g fill="#994100"><path d="m236.01558 292.91104c-41.95487-.92915-81.01189 30.6256-87.71093 84.05273-1.40939 11.24583-1.28853 24.11739 2.76562 36.99219 4.05416 12.8748 13.16821 26.3336 28.24414 33.06055 14.63694 6.53112 31.66753 7.59621 46.98633.99219 15.3188-6.60403 26.80203-24.2425 33.11133-40.49805 5.62653-14.49644 3.20701-30.67927 2.56838-46.57944l-33.08401 29.51108c-8.04763 8.63009-18.06874 10.71476-21.26171 9.99805-4.99478-1.78143-4.07019-11.00959-3.7793-13.91016v-.008l.002-.006c1.51914-14.04749 6.10535-21.87414 11.36914-26.61914s11.96509-7.0777 20.67578-6.88867c17.42139.37805 41.31332 13.10776 55.67969 36.66015 17.81959 1.49502 34.57144 1.97083 32.16602-15.83984-8.54337-31.87866-24.68627-61.95622-87.73248-80.91764z"/><path d="m352.98824 325.29385c24.48946-12.44822 18.22303-20.34957 14.2832-32.89258-8.16572-4.44033-11.80229-8.67076-13.03711-10.9375-3.61018-5.90876 13.97675-17.90668 18.00876-19.86523 7.7574-3.56031 25.34186-3.66991 25.34186-3.66991s-9.90115-20.06847-18.89554-25.77931c-7.7113-4.89616-18.13008-5.28627-26.89355-5.25977-26.20072.0881-48.04139 18.80505-53.32715 42.87891-2.02406 9.21583-1.67552 18.41612.62891 26.5957 14.61506 27.60723 32.28966 38.80059 53.89062 28.92969z"/><path d="m60.751913 171.01846c-9.769458-1.44189-20.336278 1.58006-30.099609 6.63672-13.750759 7.12001-25.3315159 19.06454-29.2656254 34.83984-3.9341094 15.7753.5846775 36.734 12.0292974 49.10352 8.885263 9.60333 37.283334 12.26783 37.283334 12.26783s-5.082109-16.83373-4.912241-25.48267c1.402183-6.87221.948204-25.38208 9.326172-23.08594 2.767412.77377 8.136268 3.61827 14.796875 10.99219 21.977328 5.19748 33.617744.27437 29.455078-20.1211-8.779018-15.00619-11.52412-29.94759-38.613281-45.15039z"/></g><path d="m306.9492 380.29455c-34.63327-56.77819-113.45227-65.39998-120.98833 4.28589-4.36995 40.12298 32.95615 42.95689 56.10072 18.1372-8.31762 30.10423-34.24305 37.30808-55.41328 27.86175-19.46608-8.68585-22.79529-32.93214-20.48374-51.37659 5.84694-46.63136 35.69399-69.04438 69.4537-68.29591 2.55568.0563 5.13345.27231 7.72516.59341 51.68648 31.49732 56.28075 49.76211 63.60577 68.79425z" fill="#ffa348" stroke-width="36"/><path d="m316.42376 291.48284c-1.52602-5.41663-1.80122-11.35765-.37443-17.85402 3.72851-16.9814 17.06744-28.67627 35.80405-28.73928 6.24723-.0189 13.09883 1.26883 20.38971 4.06572-35.3998 4.07674-54.78484 36.84876-13.57111 59.25984-14.71773-4.89707-34.19435-4.69535-42.24822-16.73226z" fill="#ffa348" stroke-width="36"/><path d="m83.267836 224.2236c-33.002202-36.53655-60.593774-9.00804-55.287199 26.79804-18.3523528-25.27203-9.640497-46.72142 10.947344-57.38161 9.606505-4.97631 18.712595-5.79087 27.142262-3.72251 8.348116 4.59115 11.469789 22.86049 17.197593 34.30608z" fill="#ffa348" stroke-width="36"/><path d="m160.4609 34.662992c-3.04159-.03999-6.13813.126193-9.28516.525391-34.55547 4.383334-60.629509 28.627412-79.443358 51.023438-15.613717 18.586559-25.134109 41.781259-28.371094 65.218749-2.281897 16.52198 1.651224 31.41602 5.525391 43.84375 4.203261 13.48341 10.15194 28.15595 21.005859 40.79883 17.670767 20.58326 40.560762 33.64201 61.626952 44.56445 16.04128 8.31714 30.73286 10.06805 40.27344 14.16406 22.54965 9.68116 44.06565 18.40462 60.65234 31.02344 25.82345 19.64597 51.73345 38.0468 57.06446 58.92383 9.32349 36.51235 9.31388 72.19347-24.48047 101.68945l-36.16016 31.5625h205.74414l5.23828-8.76367c24.94142-41.71556 27.89631-90.0004 12.85352-131.42773-15.22088-41.91793-54.77808-64.41127-83.82227-84.41797-11.24825-7.74824-22.89067-11.67682-32.70312-15.22656-12.62648-4.56773-24.55391-6.77105-34.85742-9.49415-52.01054-13.74587-103.87676-17.68427-146.55469-37.50976-17.50235-8.13046-33.51534-17.38144-41.92774-28.96484-10.58211-14.57099-17.857499-33.02245-15.363278-44.47657 6.369238-29.24899 33.941508-62.83632 59.904298-68.374997 4.87505-1.040001 18.41869 5.050352 25.53906 13.279297 8.10954 9.37211 12.18691 24.66857 14.89649 43.17383 2.95034 36.59369 12.69018 59.78839 25.93245 90.27539 6.90794-12.35677 16.74167-23.48532 20.7238-37.07031 4.98649-17.01135 3.36821-34.33418 3.21669-53.08401-.15152-18.74982-2.31765-38.12953-8.87099-56.863259-4.52326-12.930436-12.66143-24.675196-24.12891-33.160157-14.34161-10.61156-32.93742-20.952512-54.22851-21.232422z" fill="#994100"/><path d="m66.070243 189.91734c-3.606346-11.5686-6.536174-24.0205-4.878303-36.02424 2.788615-20.19105 11.212419-40.49578 24.322918-56.10251 17.439402-20.759882 41.027752-41.333383 67.925082-44.745288 17.66779-2.241146 36.22622 6.727476 50.54273 17.320463 8.15069 6.030818 14.49658 15.063021 17.84452 24.633596 11.27591 32.233919 7.73371 69.893499 4.72191 102.338919-13.23767-30.29644-5.88566-78.60288-30.01796-106.492308-10.24392-11.838801-27.59384-22.372159-42.90484-19.105845-35.98654 7.677058-65.908292 46.195473-73.737555 82.149223-4.375193 20.09203 6.304049 42.24651 18.387387 58.8846 11.747578 16.17577 30.778108 26.28893 48.908878 34.71131 46.68743 21.68805 99.76836 25.43419 149.53851 38.58795 11.12813 2.94103 22.50852 5.10253 33.33228 9.01811 9.86813 3.56989 19.97406 7.17075 28.61618 13.12378 29.67124 20.43864 64.81774 41.87295 77.11485 75.73888 13.26585 36.53371 10.75323 79.02116-11.38365 116.04602h-147.53718c39.58858-34.55323 40.2624-79.84201 30.0832-119.70545-7.72696-30.25997-38.75024-49.88466-63.60577-68.79425-19.23759-14.63557-42.23783-23.70337-64.44931-33.23934-12.67726-5.44268-26.84149-7.25287-39.0893-13.60316-20.47968-10.61835-41.228158-22.80673-56.254795-40.31006-8.384045-9.76592-13.649207-22.14251-17.479782-34.4304z" fill="#ffa348" stroke-width="36"/><path d="m275.64844 42.664062-15.4336 9.660157c-7.25676 4.542987-14.77503 9.241081-21.6582 15.015625-7.91999 6.607149-15.13417 14.222106-17.9707 25.703125-.45768 1.852448-.7104 3.734924-1.11328 5.599609-1.50372-.981939-2.87049-2.059571-4.42383-3.005859-3.82292-2.423044-7.89209-3.922436-11.7461-4.802735l-.0312-.0078-.0293-.0059c-6.30677-1.417389-12.6932-1.638169-19.41602-1.080078-8.8907.727561-17.64941 2.604316-26.16015 4.494141l-18.00391 3.998047 4.43359 17.902346c2.00701 8.10222 4.13936 16.48392 7.34375 24.59179 3.59528 10.6588 9.13223 20.41967 19.06836 26.48438l.0312.0195.0332.0195c1.464.88537 2.88965 1.53565 4.33984 2.36328-1.37001 1.12296-2.74266 2.23555-4.08984 3.42774-9.09876 7.63675-12.6217 17.57724-14.90235 27.43554l-.004.0215-.004.0195c-1.96747 8.59413-2.74722 17.24781-3.70313 26.48047l-1.89648 18.3125 18.35156 1.48242c8.42632.68035 17.19785 1.33976 26.00391.94531l.85156-.0391.8418-.11719c10.18455-1.42749 20.03132-3.0734 29.07812-10.63476l.0371-.0312.0391-.0332c1.34325-1.13547 2.4709-2.35357 3.75782-3.50781.6383 1.60113 1.26923 3.20262 1.97265 4.79883 4.43484 11.0352 12.1979 16.87027 19.63282 22.54101l.77929.59375.83594.50391c7.99976 4.82803 16.75631 8.31825 24.49414 11.58398l16.88672 7.12696 6.82031-17.01367c3.43214-8.56232 6.8248-16.57005 9.07422-25.23829 2.55139-9.71403 4.04438-20.0937-.39844-31.03711-.63177-1.77021-1.34117-3.41649-2.04101-5.07812 1.53159-.0619 3.00904.0311 4.55469-.0723 12.06748-.71874 21.45096-7.23023 29.50781-15.20117l-.94531.8711c5.95117-5.10051 12.67044-11.47273 18.91601-18.45118l12.82617-14.33203-15.15039-11.84961c-7.01649-5.48765-13.46641-10.96902-20.86133-15.73046l-.01-.006c-5.32123-3.43194-10.91668-6.36524-17.45703-8.04688l-.48438-.125-1.36328-.26953.45508.0957c-3.3878-.7643-7.07534-1.17215-10.96484-.89453-1.87184.11068-3.70085.29286-5.53711.46289.50842-1.82212 1.15875-3.58214 1.61328-5.42187 2.83629-11.47987-.0255-21.572619-3.94727-31.070314-3.79802-9.267882-9.07673-16.904561-13.35156-23.910156z" fill="#994100"/><path d="m269.76628 67.581868c-7.18846 4.500224-14.15366 8.939072-19.66776 13.569104-6.34311 5.290175-10.69218 10.763953-12.03739 16.208768-2.35173 9.51864-3.86018 19.16184-3.72711 27.2147 5.54756 6.35285 9.76432 13.37527 12.36649 21.20511l7.45196-30.16191 7.06201 1.73925-7.5197 30.43612c6.63704-5.6375 13.91566-9.82877 21.7956-12.91622 3.87841-7.10645 7.09326-16.41251 9.46432-26.00948 1.34523-5.44481.035-12.27081-3.11636-19.899347-2.72491-6.65916-7.56898-14.00645-12.07206-21.386095zm-70.47182 40.799912c-3.86031-.86757-8.81835-1.13295-13.98986-.70284-7.22132.59011-15.39575 2.27526-23.73629 4.12729 2.01708 8.14287 4.08253 16.08985 6.74958 22.73061 2.82005 8.54839 6.66044 14.31457 11.56826 17.31015 8.80997 5.3279 16.76075 9.19757 24.50096 11.56096 8.27174-3.15715 16.76371-4.84721 25.04538-4.84375l-26.79112-17.40247 3.86167-6.19636 27.27866 16.60834c1.7098-1.69821 3.71464-3.07441 5.92689-3.94244-4.92711-14.76034-16.61572-26.07469-34.24167-36.77356-1.79716-1.14904-3.84801-1.945-6.17246-2.47593zm114.06172 28.21616c-2.01061-.4536-3.92231-.63356-5.74486-.50064-20.90124 1.21023-36.10736 5.81774-47.37398 16.54827 1.5837 1.84446 2.79602 4.013 3.46976 6.33979l30.72817-2.23909.96407 7.38486-31.35279 3.08257c-.10586.59723-.20215 1.15531-.34732 1.74287-.44516 1.8019-1.19454 3.4873-2.15029 4.99721 12.63207 9.01187 28.82108 11.54453 49.22199 10.1695 5.61483-.32091 11.57285-3.71546 17.96271-10.03718 5.38574-4.6159 11.63958-10.55555 17.21626-16.78662-7.29004-5.7016-13.5692-10.94644-19.53031-14.78317-4.27198-2.75587-8.35538-4.75887-12.19058-5.74497zm-64.78767 17.28771c-5.41422-1.33342-11.03639 2.89182-12.37193 8.29747-1.33555 5.40564 1.91556 10.77736 7.32978 12.1108 5.6496 1.39141 11.73603-1.68063 13.07157-7.08628 1.33555-5.40564-2.3798-11.93058-8.02942-13.32199zm-19.9074 11.84373c-15.83776.0887-30.71253 7.22952-46.24253 21.06554-4.30105 3.59487-7.12382 9.79775-8.96105 17.73934-1.57596 6.88397-2.3834 15.03763-3.34415 24.31707 8.28374.66884 16.46914 1.23035 23.75007.90422 9.14013-1.2811 15.73057-3.02391 20.03163-6.61876 7.57549-6.4037 13.76921-12.7737 18.40377-19.40304-.47048-9.38261.28808-17.50675 2.81162-25.36241l-23.68223 20.72098-4.96717-5.66969 24.21111-20.84006c-1.15322-2.07088-1.80759-4.476-2.01107-6.85319zm28.21085 13.84596 11.15597 28.96864-6.75392 2.74144-11.8734-29.60244c-2.54704.37003-5.1838.26084-7.61627-.33824l-.0393-.0105c-4.68694 14.92741-2.11622 31.47603 6.18468 50.10077 2.0843 5.20902 7.10694 9.81195 13.86604 14.96724 6.04873 3.65054 14.39028 7.11779 22.19221 10.41058 3.4717-8.66102 6.59395-16.24458 8.36603-23.08024 2.06291-7.84445 2.45326-14.64644.32003-19.82594-3.50112-10.08744-8.51485-18.09569-13.33737-24.51929-8.2385-1.8628-15.73624-5.03911-22.46476-9.81287z" fill="#ffa348" stroke-width="36"/></svg>