<svg height="500.00003" viewBox="0 0 500 500.00003" width="500" xmlns="http://www.w3.org/2000/svg" xmlns:xlink="http://www.w3.org/1999/xlink"><filter id="a" color-interpolation-filters="sRGB" height="1.076501" width="1.128857" x="-.064428" y="-.038251"><feGaussianBlur stdDeviation="7.4443571"/></filter><filter id="b" color-interpolation-filters="sRGB" height="1.063876" width="1.026541" x="-.01327" y="-.031938"><feGaussianBlur stdDeviation="2.6896335"/></filter><g transform="translate(-500)"><path d="m926.7767 73.223311c45.24113 45.241099 73.2233 107.741109 73.2233 176.776699 0 69.0356-27.98221 131.53559-73.2233 176.77669-45.2411 45.2411-107.74109 73.22332-176.77669 73.22332-69.03559 0-131.5356-27.98219-176.7767-73.22332-45.2411-45.2411-73.22331-107.74109-73.22331-176.77669 0-69.03559 27.9822-131.5356 73.22331-176.776699 45.2411-45.241105 107.74111-73.22330934 176.7767-73.22330934 69.0356 0 131.53559 27.98220534 176.77669 73.22330934z" fill="#3b2f4f"/><g transform="translate(500)"><path d="m230.6486 0c-128.19182 22.346591-234.17086 139.43202-223.06447 273.24395 5.6201 44.55936 16.72649 83.63245 44.55937 122.70552l50.17947 50.17947c33.45298 22.34661 72.52606 44.55938 111.46533 50.17946 39.07308 5.62012 78.01235 5.62012 111.46534-5.62008 39.07308-16.72649 72.52607-33.45297 100.35893-61.28587 33.45297-39.07306 55.79958-83.63245 66.90595-139.43201v-61.28587c-5.62008-27.83287-11.10637-50.17947-22.34657-78.01235-11.10641-22.34659-27.8329-44.55937-50.17947-61.285858-27.83289-27.832879-61.28586-44.559368-100.35895-55.799569-27.83288-5.620101-55.79957-11.10639-89.25255-5.620101-78.01235 11.106391-139.43202 61.28586-172.885 128.191818-11.10639 27.83288-16.72649 61.28586-22.34659 89.25255 0 33.45298 5.6201 66.90596 16.72649 94.73885 22.34659 44.55936 55.79957 89.25254 105.97904 111.46532 16.72649 5.62012 33.45298 11.1064 55.79957 16.72648 122.70553 22.34661 234.17085-55.79954 250.89734-178.37127 11.10641-78.01236-22.34657-139.43203-72.52604-189.6115-100.35895-89.25255-267.62385-44.559369-312.18322 78.01235-5.6201 27.83288-16.72649 55.79958-16.72649 83.63245 5.6201 78.01235 55.79957 150.53843 133.81192 172.885 61.28586 16.72649 122.70553 5.62012 172.885-33.45298 11.10639-11.10637 22.34659-22.34657 33.45299-33.45297 61.28584-83.63246 44.55935-195.09778-44.55937-256.51746-27.83288-16.726488-55.79958-22.346588-89.25256-27.832879-22.34659-5.620101-44.55937 5.620101-66.90596 11.106391-27.83288 16.726488-50.17947 22.346588-72.52606 50.179468-27.83288 33.45298-33.45298 66.90596-39.07308 105.97904 0 55.79958 27.83288 117.08544 83.63245 144.91833 78.01235 44.55934 183.99139 11.10637 223.06447-72.52607 22.3466-55.79958 11.1064-128.19183-39.07308-172.88501-33.45298-27.83288-66.90596-39.07308-111.46533-39.07308-66.90596 5.6201-111.46533 55.79957-122.70553 122.70553-11.10639 72.52606 33.45298 139.43202 105.97904 150.53843 100.35894 16.72649 183.99138-89.25257 139.43202-178.37131-11.10638-16.72649-27.83288-39.07308-50.17947-50.17947-27.83288-11.10639-55.79957-16.72649-83.63245-11.10639-33.45298 5.6201-55.79957 27.83288-72.52606 50.17947-16.72649 27.83288-16.72649 55.79957-11.10639 83.63245 11.10639 33.45298 39.07308 61.28586 72.52606 72.52607 44.55937 16.72649 89.25255-5.62011 111.46533-39.07309 33.45298-55.79957 5.6201-117.08543-50.17947-139.43202-50.17947-16.72649-122.70553 27.83288-105.97904 89.25255 5.6201 16.72649 11.10639 39.07309 27.83288 50.17947 22.34659 16.7265 50.17947 16.7265 72.52606 11.1064 22.34659-11.1064 39.07308-33.45299 39.07308-61.28587-5.6201-16.72649-5.6201-39.07308-22.34659-50.17947-13.91644-8.36324-29.2379-11.13984-43.17107-8.34651-13.93317 2.79332-26.47803 11.15656-34.84128 25.073-5.6201 16.72649-11.10639 33.45298 9.50065 44.827 41.74932-49.10898 35.32635.40143 29.84006-16.45887v5.6201c16.72649-5.6201 22.34659-22.34659 27.83288-33.45298 5.6201 5.6201 16.72649 11.10639 16.72649 22.34659 11.10639 39.07308-27.83288 72.52606-66.90596 61.28586-33.45298-11.10639-44.55937-50.17947-39.07309-83.63245 5.62011-22.34659 22.3466-39.07308 50.17948-44.55937 33.45298-5.6201 66.90596 11.10639 83.63245 39.07308 16.72649 27.83288 16.72649 50.17947 0 78.01235-33.45298 55.79958-105.97905 55.79958-150.53841 11.10639-33.45298-44.55937-22.3466-117.08543 27.83288-144.91831 16.72648-11.10639 39.07308-16.72649 61.28586-16.72649 11.10638 0 27.83288 5.6201 39.07308 11.10639 27.83288 11.10639 39.07308 39.07308 55.79957 61.28586 5.6201 16.72649 5.6201 27.83288 5.6201 44.55937-5.6201 72.52606-72.52606 122.70554-144.91831 105.97904-83.63246-22.34659-122.70554-122.70553-72.52606-195.09778 11.10638-16.72649 22.34659-27.83288 39.07308-39.07308 78.01235-44.559372 167.2649-5.6201 200.71788 66.90596 39.07309 94.73884-39.07308 206.33797-139.43202 200.71788-27.83288-5.62012-55.79958-5.62012-78.01235-22.3466-22.34659-11.10638-27.83288-27.83287-39.07309-39.07307-66.90596-78.01235-33.45298-195.09778 55.79958-239.79097 39.07308-16.726484 83.63245-16.726484 128.19182-5.6201 94.73883 33.45298 139.43201 144.91832 94.73883 234.17087-11.10637 27.83288-33.45297 44.55935-55.79956 66.90596-22.34659 16.72649-50.17947 27.83289-78.01235 33.45298-44.55937 5.62012-89.25256-5.62009-128.19182-27.83286-94.73884-66.90598-117.08544-211.82429-22.3466-289.97045 16.7265-11.1064 27.83288-33.452984 50.17948-39.073085 33.45298-11.106392 66.90596-22.346593 105.97904-16.726492 27.83288 5.6201 55.79957 16.726492 78.01235 27.832879 16.72649 16.726488 39.07309 22.346598 50.17946 44.559368 11.10641 16.72649 27.8329 33.45298 33.45298 55.79957 22.34661 66.90596 16.72649 139.43203-27.83286 195.09781-16.72649 22.34657-33.45298 44.55934-61.28587 55.79954-22.34659 5.62012-39.07308 22.34661-61.28586 22.34661-39.07308 0-83.63245 5.62008-122.70553-11.10641-117.08543-44.55934-167.26491-195.09777-105.97905-306.69691 16.7265-33.45298 44.55937-61.285864 78.01236-83.632457 44.55936-22.34659 89.25255-33.452979 139.43202-27.832879 61.28586 5.6201 111.46532 39.07308 156.1585 83.632456 22.34661 22.34659 27.8329 50.17947 39.0731 78.01234 11.10637 16.7265 5.62008 39.07309 11.10637 61.28586 11.10645 172.88502-195.09777 301.07685-351.25629 211.82429-27.83287-16.72649-50.17946-27.8329-66.90596-50.17947-61.28586-72.52608-78.01235-167.26492-50.17947-256.51747 16.72649-33.45298 39.07309-61.28586 61.28587-89.252546 39.07308-39.073083 94.73884-55.799574 144.9183-72.526064" fill="#221b35" opacity=".9"/><path d="m231.45148 15.388371c-120.56454 21.008472-220.12061 131.001869-209.68329 256.785079 5.21867 41.88313 15.78981 78.68141 41.88314 115.34586 15.7898 15.65602 31.4458 31.44582 47.23561 47.1018 31.4458 21.0085 68.11026 41.88314 104.77473 47.23563 36.66447 5.21866 73.32893 5.21866 104.77473-5.21866 36.66447-15.65601 68.11026-31.44582 94.33742-57.67295 31.44579-36.66448 52.45425-78.68141 62.89161-131.00187v-57.67294c-5.2187-26.22714-10.43736-47.23561-21.00851-73.32894-10.43731-21.00847-26.22712-41.88313-47.10179-57.672935-26.22713-26.227136-57.67292-41.88313-94.33739-52.454272-26.22714-5.218666-52.45427-10.43733-83.90008-5.218666-73.32893 10.437332-131.00187 57.672938-162.44767 120.564543-10.43733 26.22713-15.78981 57.67294-21.00847 83.90008 0 31.44579 5.21866 62.8916 15.78981 89.11874 21.00847 41.88313 52.45427 83.90006 99.55607 104.77473 15.7898 5.21866 31.4458 10.43732 52.45427 15.65601 115.34588 21.00847 220.12062-52.45428 235.91043-167.66635 10.43732-73.32894-21.00847-131.00188-68.11026-178.23748-94.33742-83.900079-251.56643-41.883137-293.44956 73.32893-5.21867 26.22713-15.78981 52.45427-15.78981 78.68141 5.21866 73.32893 52.45427 141.573 125.78321 162.44767 57.67293 15.78981 115.34587 5.21866 162.44767-31.44578 10.43733-10.43736 21.00849-21.00849 31.4458-31.44582 57.67295-78.68141 41.88314-183.45615-41.88313-241.12909-26.22714-15.7898-52.45428-21.008465-83.90008-26.227131-21.00847-5.218666-41.88313 5.218666-62.8916 10.437331-26.22714 15.7898-47.23561 21.00847-68.11027 47.1018-26.22713 31.4458-31.4458 62.8916-36.66447 99.55606 0 52.45428 26.22714 110.12722 78.68142 136.22052 73.32893 41.88314 173.01881 10.43736 209.68327-68.11025 21.00847-52.45427 10.43736-120.56454-36.66446-162.44767-31.4458-26.22714-62.8916-36.66447-104.77473-36.66447-62.89161 5.21867-104.77474 52.45428-115.34588 115.34588-10.43733 68.11027 31.4458 131.00187 99.55607 141.57302 94.3374 15.65599 173.01881-83.90008 131.00187-167.66635-10.43733-15.7898-26.22714-36.66446-47.1018-47.2356-26.22713-10.43733-52.45427-15.656-78.68141-10.43733-31.4458 5.21866-52.45427 26.22713-68.11027 47.23561-15.7898 26.22713-15.7898 52.45427-10.43732 78.6814 10.43732 31.44581 36.66446 57.67295 68.11026 68.11027 41.88314 15.78981 83.90008-5.21866 104.77474-36.66446 31.4458-52.45428 5.21866-110.12721-47.1018-131.00187-47.23561-15.78981-115.34588 26.22713-99.55607 83.90007 5.21867 15.65599 10.43733 36.66447 26.22714 47.23561 21.00847 15.78981 47.10179 15.78981 68.11027 10.43733 21.00847-10.43733 36.66446-31.4458 36.66446-57.67294-5.21866-15.7898-5.21866-36.66447-21.00847-47.23561-13.11356-7.8949-27.5318-10.50423-40.62864-7.86145-13.09684 2.64279-24.87229 10.53769-32.70029 23.65126-5.21867 15.656-10.43733 31.4458 8.9654 42.15076 39.20689-46.70036 33.05154-.26763 27.96669-16.05744v5.21867c15.78981-5.21867 21.00847-21.00847 26.22714-31.4458 5.21866 5.21866 15.65599 10.43733 15.65599 21.00847 10.43733 36.66447-26.22714 68.11027-62.8916 57.67294-31.4458-10.43733-41.88313-47.23561-36.66447-78.68141 5.21867-21.00848 21.00847-36.66447 47.1018-41.88314 31.4458-5.21866 62.8916 10.43734 78.68141 36.66447 15.65599 26.22714 15.65599 47.23561 0 73.32893-31.4458 52.45428-99.55607 52.45428-141.57302 10.43734-31.4458-41.88313-21.00847-110.12722 26.22714-136.22054 15.78981-10.43733 36.66447-15.656 57.67294-15.656 10.43733 0 26.22714 5.21867 36.66447 10.43733 26.22713 10.43733 36.66446 36.66447 52.45427 57.67294 5.21866 15.78981 5.21866 26.22714 5.21866 41.88314-5.21866 68.11026-68.11026 115.34586-136.22053 99.55606-78.68141-21.00847-115.34588-115.34587-68.11027-183.45614 10.43733-15.656 21.00847-26.22714 36.66447-36.66447 73.32893-41.88313 157.22901-5.21866 188.67481 62.8916 36.66448 89.11874-36.66447 193.89349-131.00188 188.67483-26.22713-5.21866-52.45427-5.21866-73.32893-21.00848-21.00847-10.43734-26.22713-26.22714-36.66447-36.66447-62.8916-73.32893-31.4458-183.45615 52.45428-225.33928 36.66446-15.789805 78.68141-15.789805 120.56454-5.21866 89.11872 31.4458 131.00186 136.22053 89.11872 220.12061-10.43731 26.22714-31.44578 41.88313-52.45425 62.89162-21.00847 15.78977-47.23561 26.22712-73.32894 31.44578-41.88313 5.21866-83.90007-5.21866-120.56454-26.22712-89.11874-62.89162-110.12721-199.11215-21.00847-272.5749 15.656-10.43733 26.22714-31.445801 47.1018-36.664467 31.4458-10.437328 62.8916-21.00847 99.55607-15.655994 26.22713 5.218666 52.45427 15.655994 73.32893 26.227136 15.65599 15.789805 36.66446 21.008475 47.10181 41.883135 10.43732 15.7898 26.22713 31.4458 31.44578 52.45427 21.00847 62.8916 15.78981 131.00187-26.22712 183.45615-15.78981 21.00846-31.44582 41.88313-57.67295 52.45428-21.00847 5.21866-36.66446 21.00847-57.67294 21.00847-36.66446 0-78.68141 5.21866-115.34587-10.43735-110.12721-41.8831-157.22901-183.45614-99.55607-288.23087 15.7898-31.4458 41.88313-57.672937 73.32893-78.681407 41.88313-21.008474 83.90008-31.445802 131.00187-26.22714 57.67294 5.218666 104.77473 36.664468 146.79166 78.681417 21.00851 21.00847 26.22717 47.10179 36.66448 73.32893 10.43732 15.78981 5.21866 36.66446 10.43732 57.67293 10.43735 162.44767-183.45613 283.01222-330.24781 199.11215-26.22713-15.65601-47.23561-26.22713-62.8916-47.23563-57.67294-68.11025-73.32893-157.22899-47.23561-241.12907 15.78981-31.4458 36.66447-57.67293 57.67294-83.900069 36.66447-36.664468 89.11874-52.454275 136.22054-68.11027" opacity=".9"/></g></g><path d="m265.48242 17.007812c-39.79829 4.366026-65.49888 49.360376-58.52734 86.917968-28.11562 6.84923-39.8761 36.89307-49.90107 60.92863-10.79534 26.53468-14.38526 55.80273-27.80089 81.23425-21.03332 12.01051-21.42907 44.38325-12.88321 63.99415 15.03697 20.41673 46.85975 14.2206 61.85079-3.09062-2.48887 34.87523-2.89999 69.87166-1.58008 104.80664-13.65577 21.87302-17.69759 51.42287 8.74807 65.4962 20.16346 11.51278 43.40448 7.38291 47.84111-16.88664 4.75315-20.70885 24.71667-26.75349 31.53711-3.85859 6.19268 18.29674 16.29015 33.42004 37.80369 25.071 18.18364-2.58616 31.75032-20.46385 33.32416-37.70787-11.08687-20.73764-14.3364-42.75962-11.81965-65.93455.22546-23.75506-.60214-47.51519-2.50281-71.19518 15.59751 18.89508 51.10905 23.7625 64.37945-.12359 3.74658-17.68577 5.0345-42.66507-9.04314-56.21864-15.0507-11.86873-17.27254-34.41566-23.48945-52.03001-8.22295-30.92998-18.76507-63.84435-42.76786-86.25227-21.66038-6.1966 4.04802-26.142122-.0428-42.294488 2.59887-26.463119-16.28989-55.063848-45.12609-52.85639z" fill="#775fa0" filter="url(#a)"/><g fill="#775fa0" filter="url(#b)" opacity=".5" transform="translate(-493.44615 -124.7929)"><path id="c" d="m736.18007 324.95325c-31.34892-23.42535-46.17473-55.64794-38.68178-81.75295 5.9447-20.71333.15485-37.21568-21.23392-36.60402-60.41709 1.72508-115.62081-20.58862-176.03425-50.48114l-.00043.00095c11.22043 45.8358 96.39259 78.34097 157.66664 85.91753-38.10214 5.1272-95.02057 7.90638-138.71707-.14623 22.22908 34.86071 86.13962 37.10292 143.70082 34.62899-41.27552 17.52055-78.88974 28.10179-126.32201 32.79114 26.7864 24.64469 88.31189 15.68149 139.26074-.0407-26.8644 19.5-58.32221 33.90621-92.02016 43.77618 27.74056 11.43395 65.45451 3.05073 100.70789-16.25083 10.68102-5.8476 22.36286.73616 32.95722 11.93074" fill="#775fa0" stroke-width=".9"/><use fill="#775fa0" transform="matrix(-1 0 0 1 1486.8923 .000007)" xlink:href="#c"/></g><path d="m250 104.46875c-14.79434 0-33.23477 4.33703-43.64258 8.07325-11.74844 2.92008-18.1302 11.1442-23.67969 19.01269-5.54947 7.86849-9.72924 16.36379-13.65625 25.01367-4.87607 10.74035-12.22069 33.20898-12.22069 33.20898-5.47195 22.28932-11.89379 42.48809-20.40626 61.03907-4.89728 3.66293-10.34088 6.62662-13.57031 11.20898-3.65592 7.06662-.45014 13.41382-1.3125 20.05859-.60485 4.66061-3.15354 9.22604-2.70117 13.8379 2.03483 9.66427 8.40129 16.29466 17.63086 18.23437 12.91974 2.8649 23.79131-2.37157 31.27539-8.47852 7.52403-6.13954 13.66114-13.01605 14.75586-25.24609 1.56652-1.689 5.9939-9.65167 8.77734-13.86914-4.36595 17.58358-4.69668 36.96923-5.86328 54.92383-2.08865 31.16165-1.64336 64.94125-.71094 91.71679l-12.8418 32.90821c3.0478 8.10108 7.5917 16.6671 12.92969 21.36719 11.8798 8.27988 19.42066 7.5788 32.67188 7.14648l4.6875-9.97461s9.69363-19.56051 13.25195-24.61133c4.79366-3.78379 11.14608-8.5631 14.625-13.76758-6.09992-2.75995 18.34504 19.33423 14.625 13.76758 3.55833 5.05084 13.25195 24.61133 13.25195 24.61133l4.6875 9.97461c11.41274.92863 24.47992-.32082 32.67188-7.14648 6.84577-6.17384 9.62776-13.27629 12.92969-21.36719l-12.8418-32.90821c.93242-26.77554 1.37771-60.55514-.71094-91.71679-1.71834-20.02589-1.70311-37.498-5.86328-54.92383 3.22981 3.22015 9.04962 17.07974 8.77734 13.86914 1.09471 12.23006 7.23183 19.10655 14.75586 25.24609 7.48408 6.10695 18.35565 11.34342 31.27539 8.47852 8.88374-1.96122 16.42321-8.99959 17.63086-18.23437.83875-4.99506-2.09633-9.17729-2.70117-13.8379-.86242-6.64542 2.52643-14.40692-1.3125-20.06054-3.42883-5.17178-8.95927-7.46643-13.57031-11.20703-6.61146-15.42355-12.76366-30.53042-17.18359-47.14258-3.6048-17.08039-8.88296-31.93945-15.44336-47.10547-3.77151-8.7188-8.10678-17.14518-13.65625-25.01367-5.54949-7.86849-11.93125-16.09261-23.6797-19.01269-10.40779-3.73627-28.84823-8.07325-43.64257-8.07325zm0 221.77344c1.33703 3.81366 2.63008 7.59773 3.3125 10.51953 3.20874 13.73824 3.62241 32.53615 4.46094 48.95312-2.97199 2.702-5.69108 5.85421-7.77344 9.63282-2.08236-3.77861-4.80145-6.93082-7.77344-9.63282.83853-16.41697 1.25219-35.21488 4.46094-48.95312.68242-2.9218 1.97547-6.70587 3.3125-10.51953z"/><path d="m211.56737 129.75134c-19.78102 4.98536-37.33746 64.47087-37.33746 64.47087s-2.02311 9.37999-3.24004 14.01947c-1.1673 4.4503-3.8929 13.24249-3.8929 13.24249s-11.93212 34.07044-16.24543 40.38181c-3.61303 5.28776-13.93276 8.75468-13.5834 11.50014 7.74253 13.19038-6.89242 21.19645 2.97271 23.21004 11.2513 2.56625 23.57054-9.56717 24.30299-17.75001 1.21606-13.5716 32.33663-41.8018 27.82545-65.30975 12.18253-6.43824 19.46026-31.22816 23.79035-39.08974 0 0 4.20308 41.14625 1.89589 61.53934-1.58071 13.97174-8.28296 26.95547-10.68602 40.80981-2.62574 15.13809-3.17001 33.19808-4.02238 45.91509-2.10875 31.46155-1.61618 66.85121-.60992 93.74006l-11.52338 29.5306c2.46089 6.02931 6.77446 11.28826 14.61926 11.03272 0 0 8.85854-18.8502 14.8273-27.32249 4.44954-6.31587 15.28502-10.40778 15.46307-17.2703.18913-7.2918-6.08922-14.28129-12.36758-18.06452 1.25571-15.96542.70892-41.57322 5.40246-61.66859 4.2477-18.1866 16.87436-45.22458 20.84166-52.21221 3.9673 6.98763 16.59396 34.02561 20.84166 52.21221 4.69353 20.09537 4.14674 45.70317 5.40245 61.66859-6.27836 3.78323-12.5567 10.77272-12.36757 18.06452.17804 6.86252 11.01352 10.95443 15.46307 17.2703 5.96875 8.47229 14.8273 27.32249 14.8273 27.32249 7.8448.25554 12.15836-5.00341 14.61926-11.03272l-11.52338-29.5306c1.00625-26.88885 1.49882-62.27851-.60993-93.74006-.85237-12.71701-1.39663-30.777-4.02237-45.91509-2.40307-13.85434-9.10532-26.83807-10.68603-40.80981-2.30719-20.39309 1.89589-61.53934 1.89589-61.53934 4.3301 7.86158 11.60782 32.6515 23.79035 39.08974-4.51118 23.50795 26.60939 51.73815 27.82546 65.30975.73244 8.18284 13.05168 20.31626 24.30298 17.75001 9.86513-2.01359-4.76982-10.01966 2.97272-23.21004.34935-2.74546-9.97038-6.21238-13.5834-11.50014-4.31332-6.31137-16.24544-40.38181-16.24544-40.38181s-2.72559-8.79219-3.8929-13.24249c-1.21693-4.63948-3.24003-14.01947-3.24003-14.01947s-17.55645-59.48551-37.33746-64.47087c-9.36441-3.32337-25.3931-7.28332-38.43263-7.28332s-29.06822 3.95995-38.43263 7.28332z" fill="#775fa0" stroke-width="36.0001"/><path d="m244.5835 32.60683c-8.65267 5.149579-17.55899 15.318887-23.73148 28.377595s-8.3829 26.40379-6.52976 38.806591c1.79586 12.026694 8.32084 24.003484 19.8789 29.525394l.002.002h.002c11.56357 5.52124 25.02673 3.03562 35.47461-3.18359 10.77569-6.41434 19.68216-16.5833 25.85547-29.642583 6.17285-13.058363 8.38113-26.403068 6.55674-38.61823-1.82439-12.215161-8.35129-24.191728-19.90831-29.711895-4.3295-2.068925-9.14813-3.12128-15.40712-3.173004-6.25899-.05173-13.54037 2.468142-22.19305 7.617722z"/><path d="m268.18443 43.000673c-3.73931-.03174-7.8933 1.203319-12.27052 3.808347-7.00254 4.168333-14.04265 11.829755-18.78831 21.86896-4.74638 10.039204-6.20931 20.36481-5.00068 28.454031 1.20791 8.089219 4.76228 13.519309 9.83592 15.943259 5.07365 2.42251 11.50836 1.76098 18.5109-2.40736 7.00254-4.16833 14.04337-11.829754 18.78904-21.868958 4.74566-10.039205 6.20858-20.36481 5.00068-28.454032-1.20863-8.089221-4.76445-13.518586-9.83809-15.941096-1.90217-.908983-3.99578-1.385116-6.23894-1.403151z" fill="#775fa0" stroke-width="36.0001"/></svg>