<svg height="500.00003" viewBox="0 0 500 500.00003" width="500" xmlns="http://www.w3.org/2000/svg"><g transform="translate(-500)"><path d="m926.7767 73.223311c45.24113 45.241099 73.2233 107.741109 73.2233 176.776699 0 69.0356-27.98221 131.53559-73.2233 176.77669-45.2411 45.2411-107.74109 73.22332-176.77669 73.22332-69.03559 0-131.5356-27.98219-176.7767-73.22332-45.2411-45.2411-73.22331-107.74109-73.22331-176.77669 0-69.03559 27.9822-131.5356 73.22331-176.776699 45.2411-45.241105 107.74111-73.22330934 176.7767-73.22330934 69.0356 0 131.53559 27.98220534 176.77669 73.22330934z" fill="#3b2f4f"/><g transform="translate(500)"><path d="m230.6486 0c-128.19182 22.346591-234.17086 139.43202-223.06447 273.24395 5.6201 44.55936 16.72649 83.63245 44.55937 122.70552l50.17947 50.17947c33.45298 22.34661 72.52606 44.55938 111.46533 50.17946 39.07308 5.62012 78.01235 5.62012 111.46534-5.62008 39.07308-16.72649 72.52607-33.45297 100.35893-61.28587 33.45297-39.07306 55.79958-83.63245 66.90595-139.43201v-61.28587c-5.62008-27.83287-11.10637-50.17947-22.34657-78.01235-11.10641-22.34659-27.8329-44.55937-50.17947-61.285858-27.83289-27.832879-61.28586-44.559368-100.35895-55.799569-27.83288-5.620101-55.79957-11.10639-89.25255-5.620101-78.01235 11.106391-139.43202 61.28586-172.885 128.191818-11.10639 27.83288-16.72649 61.28586-22.34659 89.25255 0 33.45298 5.6201 66.90596 16.72649 94.73885 22.34659 44.55936 55.79957 89.25254 105.97904 111.46532 16.72649 5.62012 33.45298 11.1064 55.79957 16.72648 122.70553 22.34661 234.17085-55.79954 250.89734-178.37127 11.10641-78.01236-22.34657-139.43203-72.52604-189.6115-100.35895-89.25255-267.62385-44.559369-312.18322 78.01235-5.6201 27.83288-16.72649 55.79958-16.72649 83.63245 5.6201 78.01235 55.79957 150.53843 133.81192 172.885 61.28586 16.72649 122.70553 5.62012 172.885-33.45298 11.10639-11.10637 22.34659-22.34657 33.45299-33.45297 61.28584-83.63246 44.55935-195.09778-44.55937-256.51746-27.83288-16.726488-55.79958-22.346588-89.25256-27.832879-22.34659-5.620101-44.55937 5.620101-66.90596 11.106391-27.83288 16.726488-50.17947 22.346588-72.52606 50.179468-27.83288 33.45298-33.45298 66.90596-39.07308 105.97904 0 55.79958 27.83288 117.08544 83.63245 144.91833 78.01235 44.55934 183.99139 11.10637 223.06447-72.52607 22.3466-55.79958 11.1064-128.19183-39.07308-172.88501-33.45298-27.83288-66.90596-39.07308-111.46533-39.07308-66.90596 5.6201-111.46533 55.79957-122.70553 122.70553-11.10639 72.52606 33.45298 139.43202 105.97904 150.53843 100.35894 16.72649 183.99138-89.25257 139.43202-178.37131-11.10638-16.72649-27.83288-39.07308-50.17947-50.17947-27.83288-11.10639-55.79957-16.72649-83.63245-11.10639-33.45298 5.6201-55.79957 27.83288-72.52606 50.17947-16.72649 27.83288-16.72649 55.79957-11.10639 83.63245 11.10639 33.45298 39.07308 61.28586 72.52606 72.52607 44.55937 16.72649 89.25255-5.62011 111.46533-39.07309 33.45298-55.79957 5.6201-117.08543-50.17947-139.43202-50.17947-16.72649-122.70553 27.83288-105.97904 89.25255 5.6201 16.72649 11.10639 39.07309 27.83288 50.17947 22.34659 16.7265 50.17947 16.7265 72.52606 11.1064 22.34659-11.1064 39.07308-33.45299 39.07308-61.28587-5.6201-16.72649-5.6201-39.07308-22.34659-50.17947-13.91644-8.36324-29.2379-11.13984-43.17107-8.34651-13.93317 2.79332-26.47803 11.15656-34.84128 25.073-5.6201 16.72649-11.10639 33.45298 9.50065 44.827 41.74932-49.10898 35.32635.40143 29.84006-16.45887v5.6201c16.72649-5.6201 22.34659-22.34659 27.83288-33.45298 5.6201 5.6201 16.72649 11.10639 16.72649 22.34659 11.10639 39.07308-27.83288 72.52606-66.90596 61.28586-33.45298-11.10639-44.55937-50.17947-39.07309-83.63245 5.62011-22.34659 22.3466-39.07308 50.17948-44.55937 33.45298-5.6201 66.90596 11.10639 83.63245 39.07308 16.72649 27.83288 16.72649 50.17947 0 78.01235-33.45298 55.79958-105.97905 55.79958-150.53841 11.10639-33.45298-44.55937-22.3466-117.08543 27.83288-144.91831 16.72648-11.10639 39.07308-16.72649 61.28586-16.72649 11.10638 0 27.83288 5.6201 39.07308 11.10639 27.83288 11.10639 39.07308 39.07308 55.79957 61.28586 5.6201 16.72649 5.6201 27.83288 5.6201 44.55937-5.6201 72.52606-72.52606 122.70554-144.91831 105.97904-83.63246-22.34659-122.70554-122.70553-72.52606-195.09778 11.10638-16.72649 22.34659-27.83288 39.07308-39.07308 78.01235-44.559372 167.2649-5.6201 200.71788 66.90596 39.07309 94.73884-39.07308 206.33797-139.43202 200.71788-27.83288-5.62012-55.79958-5.62012-78.01235-22.3466-22.34659-11.10638-27.83288-27.83287-39.07309-39.07307-66.90596-78.01235-33.45298-195.09778 55.79958-239.79097 39.07308-16.726484 83.63245-16.726484 128.19182-5.6201 94.73883 33.45298 139.43201 144.91832 94.73883 234.17087-11.10637 27.83288-33.45297 44.55935-55.79956 66.90596-22.34659 16.72649-50.17947 27.83289-78.01235 33.45298-44.55937 5.62012-89.25256-5.62009-128.19182-27.83286-94.73884-66.90598-117.08544-211.82429-22.3466-289.97045 16.7265-11.1064 27.83288-33.452984 50.17948-39.073085 33.45298-11.106392 66.90596-22.346593 105.97904-16.726492 27.83288 5.6201 55.79957 16.726492 78.01235 27.832879 16.72649 16.726488 39.07309 22.346598 50.17946 44.559368 11.10641 16.72649 27.8329 33.45298 33.45298 55.79957 22.34661 66.90596 16.72649 139.43203-27.83286 195.09781-16.72649 22.34657-33.45298 44.55934-61.28587 55.79954-22.34659 5.62012-39.07308 22.34661-61.28586 22.34661-39.07308 0-83.63245 5.62008-122.70553-11.10641-117.08543-44.55934-167.26491-195.09777-105.97905-306.69691 16.7265-33.45298 44.55937-61.285864 78.01236-83.632457 44.55936-22.34659 89.25255-33.452979 139.43202-27.832879 61.28586 5.6201 111.46532 39.07308 156.1585 83.632456 22.34661 22.34659 27.8329 50.17947 39.0731 78.01234 11.10637 16.7265 5.62008 39.07309 11.10637 61.28586 11.10645 172.88502-195.09777 301.07685-351.25629 211.82429-27.83287-16.72649-50.17946-27.8329-66.90596-50.17947-61.28586-72.52608-78.01235-167.26492-50.17947-256.51747 16.72649-33.45298 39.07309-61.28586 61.28587-89.252546 39.07308-39.073083 94.73884-55.799574 144.9183-72.526064" fill="#221b35" opacity=".9"/><path d="m231.45148 15.388371c-120.56454 21.008472-220.12061 131.001869-209.68329 256.785079 5.21867 41.88313 15.78981 78.68141 41.88314 115.34586 15.7898 15.65602 31.4458 31.44582 47.23561 47.1018 31.4458 21.0085 68.11026 41.88314 104.77473 47.23563 36.66447 5.21866 73.32893 5.21866 104.77473-5.21866 36.66447-15.65601 68.11026-31.44582 94.33742-57.67295 31.44579-36.66448 52.45425-78.68141 62.89161-131.00187v-57.67294c-5.2187-26.22714-10.43736-47.23561-21.00851-73.32894-10.43731-21.00847-26.22712-41.88313-47.10179-57.672935-26.22713-26.227136-57.67292-41.88313-94.33739-52.454272-26.22714-5.218666-52.45427-10.43733-83.90008-5.218666-73.32893 10.437332-131.00187 57.672938-162.44767 120.564543-10.43733 26.22713-15.78981 57.67294-21.00847 83.90008 0 31.44579 5.21866 62.8916 15.78981 89.11874 21.00847 41.88313 52.45427 83.90006 99.55607 104.77473 15.7898 5.21866 31.4458 10.43732 52.45427 15.65601 115.34588 21.00847 220.12062-52.45428 235.91043-167.66635 10.43732-73.32894-21.00847-131.00188-68.11026-178.23748-94.33742-83.900079-251.56643-41.883137-293.44956 73.32893-5.21867 26.22713-15.78981 52.45427-15.78981 78.68141 5.21866 73.32893 52.45427 141.573 125.78321 162.44767 57.67293 15.78981 115.34587 5.21866 162.44767-31.44578 10.43733-10.43736 21.00849-21.00849 31.4458-31.44582 57.67295-78.68141 41.88314-183.45615-41.88313-241.12909-26.22714-15.7898-52.45428-21.008465-83.90008-26.227131-21.00847-5.218666-41.88313 5.218666-62.8916 10.437331-26.22714 15.7898-47.23561 21.00847-68.11027 47.1018-26.22713 31.4458-31.4458 62.8916-36.66447 99.55606 0 52.45428 26.22714 110.12722 78.68142 136.22052 73.32893 41.88314 173.01881 10.43736 209.68327-68.11025 21.00847-52.45427 10.43736-120.56454-36.66446-162.44767-31.4458-26.22714-62.8916-36.66447-104.77473-36.66447-62.89161 5.21867-104.77474 52.45428-115.34588 115.34588-10.43733 68.11027 31.4458 131.00187 99.55607 141.57302 94.3374 15.65599 173.01881-83.90008 131.00187-167.66635-10.43733-15.7898-26.22714-36.66446-47.1018-47.2356-26.22713-10.43733-52.45427-15.656-78.68141-10.43733-31.4458 5.21866-52.45427 26.22713-68.11027 47.23561-15.7898 26.22713-15.7898 52.45427-10.43732 78.6814 10.43732 31.44581 36.66446 57.67295 68.11026 68.11027 41.88314 15.78981 83.90008-5.21866 104.77474-36.66446 31.4458-52.45428 5.21866-110.12721-47.1018-131.00187-47.23561-15.78981-115.34588 26.22713-99.55607 83.90007 5.21867 15.65599 10.43733 36.66447 26.22714 47.23561 21.00847 15.78981 47.10179 15.78981 68.11027 10.43733 21.00847-10.43733 36.66446-31.4458 36.66446-57.67294-5.21866-15.7898-5.21866-36.66447-21.00847-47.23561-13.11356-7.8949-27.5318-10.50423-40.62864-7.86145-13.09684 2.64279-24.87229 10.53769-32.70029 23.65126-5.21867 15.656-10.43733 31.4458 8.9654 42.15076 39.20689-46.70036 33.05154-.26763 27.96669-16.05744v5.21867c15.78981-5.21867 21.00847-21.00847 26.22714-31.4458 5.21866 5.21866 15.65599 10.43733 15.65599 21.00847 10.43733 36.66447-26.22714 68.11027-62.8916 57.67294-31.4458-10.43733-41.88313-47.23561-36.66447-78.68141 5.21867-21.00848 21.00847-36.66447 47.1018-41.88314 31.4458-5.21866 62.8916 10.43734 78.68141 36.66447 15.65599 26.22714 15.65599 47.23561 0 73.32893-31.4458 52.45428-99.55607 52.45428-141.57302 10.43734-31.4458-41.88313-21.00847-110.12722 26.22714-136.22054 15.78981-10.43733 36.66447-15.656 57.67294-15.656 10.43733 0 26.22714 5.21867 36.66447 10.43733 26.22713 10.43733 36.66446 36.66447 52.45427 57.67294 5.21866 15.78981 5.21866 26.22714 5.21866 41.88314-5.21866 68.11026-68.11026 115.34586-136.22053 99.55606-78.68141-21.00847-115.34588-115.34587-68.11027-183.45614 10.43733-15.656 21.00847-26.22714 36.66447-36.66447 73.32893-41.88313 157.22901-5.21866 188.67481 62.8916 36.66448 89.11874-36.66447 193.89349-131.00188 188.67483-26.22713-5.21866-52.45427-5.21866-73.32893-21.00848-21.00847-10.43734-26.22713-26.22714-36.66447-36.66447-62.8916-73.32893-31.4458-183.45615 52.45428-225.33928 36.66446-15.789805 78.68141-15.789805 120.56454-5.21866 89.11872 31.4458 131.00186 136.22053 89.11872 220.12061-10.43731 26.22714-31.44578 41.88313-52.45425 62.89162-21.00847 15.78977-47.23561 26.22712-73.32894 31.44578-41.88313 5.21866-83.90007-5.21866-120.56454-26.22712-89.11874-62.89162-110.12721-199.11215-21.00847-272.5749 15.656-10.43733 26.22714-31.445801 47.1018-36.664467 31.4458-10.437328 62.8916-21.00847 99.55607-15.655994 26.22713 5.218666 52.45427 15.655994 73.32893 26.227136 15.65599 15.789805 36.66446 21.008475 47.10181 41.883135 10.43732 15.7898 26.22713 31.4458 31.44578 52.45427 21.00847 62.8916 15.78981 131.00187-26.22712 183.45615-15.78981 21.00846-31.44582 41.88313-57.67295 52.45428-21.00847 5.21866-36.66446 21.00847-57.67294 21.00847-36.66446 0-78.68141 5.21866-115.34587-10.43735-110.12721-41.8831-157.22901-183.45614-99.55607-288.23087 15.7898-31.4458 41.88313-57.672937 73.32893-78.681407 41.88313-21.008474 83.90008-31.445802 131.00187-26.22714 57.67294 5.218666 104.77473 36.664468 146.79166 78.681417 21.00851 21.00847 26.22717 47.10179 36.66448 73.32893 10.43732 15.78981 5.21866 36.66446 10.43732 57.67293 10.43735 162.44767-183.45613 283.01222-330.24781 199.11215-26.22713-15.65601-47.23561-26.22713-62.8916-47.23563-57.67294-68.11025-73.32893-157.22899-47.23561-241.12907 15.78981-31.4458 36.66447-57.67293 57.67294-83.900069 36.66447-36.664468 89.11874-52.454275 136.22054-68.11027" opacity=".9"/></g></g><path d="m263.10758 65.173205c-15.00482-21.629598-31.40719-37.884438-50.59188-48.955078-17.59363-10.1539312-38.31848-15.67915526-58.76367-16.17968786-22.83988-.55916135-43.50424 5.01925496-65.404291 14.30859386-48.233708 20.458388-75.461086 54.156902-84.5527341 92.515627-8.8079289 37.16708-1.605742 78.12045 14.6035151 118.19336l4.105469 10.14648 10.896485 1.0254c27.35617 2.57263 46.740127 9.59666 61.019531 20.16796-1.789588 10.46516-2.100554 22.36089-6.113281 32.69727-3.788694 9.75929-10.60423 16.25104-16.570313 26.67969l4.484375 8.69726c21.31783 41.33172 61.184034 61.03315 98.730464 58.73047 37.54644-2.30267 73.51852-26.40585 87.34766-66.88476l2.90429-8.49805c-5.15933-8.64523-12.03892-16.08194-17.9746-24.10742-7.79465-20.31718 3.64101-21.92625 15.34383-34.32617l8.80078-9.43165-6.10157-11.36328c-6.90314-12.8567-9.67215-26.45057-7.18359-42.00586 1.79791-11.23511 6.40597-23.69626 15.85743-41.80273 2.12549-24.94601 1.38723-49.208429-10.8379-79.607425z"/><path d="m109.50795 281.80802c-1.7577 14.6907-8.226 18.5733-17.288993 34.4106 36.622793 71.0055 130.042793 61.6122 153.046793-5.7222-10.4832-15.4422-17.019-16.7598-18.5148-33.3531-27.5004 50.3793-84.8493 53.3763-117.243 4.6647zm-14.130893-250.890298c-31.527645 18.121398-62.99808 45.457546-74.0673 80.096398-10.975861 34.3467-1.5012 69.5232 13.7763 107.2926 55.0476 5.1768 86.849993 29.4228 102.394793 65.0538 4.9257.3402 12.9033-.2916 22.014-2.3976 11.727-2.7108 25.4412-7.3737 38.6523-12.969 13.2102-5.5962 25.9587-12.1428 35.8173-18.459 7.0254-4.5018 12.4155-9.1827 15.4476-12.4317-8.5644-15.9507-12.2058-33.9327-9.0972-53.3637 2.2266-13.914 7.785-28.4877 16.8876-43.9155.84765-19.87458.44183-46.36222-9.8145-66.156298-9.29873-17.94597-26.27802-31.906085-43.8696-41.859-15.1042-8.545612-32.85761-13.351572-50.2065-13.7763-19.77754-.484185-40.78273 3.026673-57.934793 12.8853z" fill="#775fa0" stroke-width="36"/><path d="m208.16775 91.890922c6.6024-.081 13.0986 2.0142 18.4338 5.9625-9.027 1.2447-15.9804 8.985598-15.9804 18.354598 0 10.2366 8.2998 18.5346 18.5364 18.5346 2.7486 0 5.3478-.612 7.695-1.6848-2.4507 6.39-7.065 11.9925-13.5045 15.5934-14.6088 8.1666-33.0705 2.943-41.238-11.664-8.1657-14.6097-2.9457-33.0723 11.664-41.237998 4.5657-2.5533 9.5067-3.798 14.3937-3.8574zm-101.8863 56.958298c7.56-.0918 14.9796 2.664 20.6748 7.7976-8.937 1.323-15.795 9.027-15.795 18.3312 0 10.2366 8.298 18.5364 18.5355 18.5364 1.332 0 2.628-.144 3.879-.4113-2.6334 5.0922-6.7356 9.4977-12.114 12.5046-14.6088 8.1675-33.072293 2.9448-41.237993-11.664-8.1675-14.6088-2.9457-33.0714 11.664-41.238 4.5657-2.5524 9.506693-3.798 14.393693-3.8565zm63.036 22.8672c20.6937 14.5404 37.8558 31.059 53.9973 48.1446-16.632 2.547-30.0492 10.8423-41.2668 23.0697-7.4052-21.9708-11.043-46.0485-12.7296-71.2143z"/><path d="m392.91052 230.24219c-15.67685.0648-35.68164 4.91601-35.68164 4.91601l-.71875.15039-.70313.21094c-26.27591 7.82438-42.16401 29.44103-51.35352 54.41016-.0005.001-.001.003-.002.004-9.29616 25.07995-13.6389 54.48162-19.56055 83.73633l-.002.01-.002.01c-1.73828 8.63708-2.27619 16.18426-.52735 23.71094 1.74885 7.52668 6.60975 14.35915 11.36524 18.25 9.33521 7.6379 19.62234 9.70689 31.43555 10.08789l2.71499 92.26115h138.04297l2.75-100.49414c5.22159-1.64145 9.94395-4.10102 13.82422-7.22852 9.75753-7.86457 15.33498-18.27884 15.23047-30.40234v.22461c.083-21.3845 1.69653-42.25135-3.92188-74.85547l-.23437-1.36133-.43946-1.30859c-13.69896-40.82862-39.39641-59.1481-64.61718-67.21875l-.94532-.30078-.9707-.19727s-20.01899-4.68002-35.68359-4.61523z"/><path d="m360.94399 252.77003c-20.25 6.03-31.32 20.88-39.6 43.38-8.28 22.32-12.78 51.3-18.81 81.09-2.88 14.31-.36 20.43 4.59 24.48s15.03 6.39 28.44 6.12c15.66-.36 35.01-3.69 54.9-7.56-15.84-5.94-29.97-12.06-45.63-18.45-8.19.54-14.76 1.08-23.13 1.8 6.48-32.13 11.61-56.79 18.09-88.11l15.84 3.24-5.67 27.54c25.83 9.09 58.77 20.88 82.8 25.29l-.63-52.29 16.2-.18.99 71.91c-36-3.51-71.55-17.73-102.69-28.71l-4.41 21.15c35.37 13.95 59.67 26.19 106.38 37.35 21.33 5.13 33.21-10.35 33.12-20.79.0861-22.19033 1.64886-40.91028-3.66206-71.73-12.37514-36.88309-30.53794-48.6-53.03794-55.8 0 0-21.26616-4.3032-32.04-4.25864-10.78606.0446-32.04 4.52864-32.04 4.52864zm60.57 157.59c-25.2 5.13-52.65 11.34-76.41 13.14l2.25 76.5h103.05l2.25-82.17c-10.53-1.35-21.69-4.68-31.14-7.47z" fill="#775fa0" stroke-width="36"/><path d="m402.17223 131.39062c-27.17002 1.48987-49.88028 26.00604-55.86132 57.09375-6.84552 35.58095 9.7896 71.26165 42.01172 77.46094 32.22211 6.19929 60.91035-20.7628 67.75585-56.34375 6.83548-35.52881-9.80327-71.19133-42.02539-77.39062-4.02776-.77492-7.99942-1.03315-11.88086-.82032zm2.17969 36.13477c1.06617-.14209 2.04521-.12742 2.90039.0371 6.84145 1.31624 17.46015 14.52263 13.47461 35.23828-4.0027 20.80492-18.76011 29.10921-25.60156 27.79297-6.84144-1.31624-17.4656-14.50368-13.46289-35.30859 3.48734-18.12619 15.2263-26.76517 22.68945-27.75977z"/><path d="m410.65228 149.88632c-19.5318-3.75778-41.25447 13.87577-46.66498 41.99803-5.42412 28.19296 8.20489 52.62791 27.73669 56.38568s41.25447-13.87578 46.67858-42.06874c5.41051-28.12226-8.21849-52.5572-27.75029-56.31497z" fill="#775fa0" stroke-width="36"/></svg>