<svg height="500.0004" viewBox="0 0 500 500.0004" width="500" xmlns="http://www.w3.org/2000/svg"><g transform="translate(-500 -500)"><path d="m999.99997 750a249.99997 250 0 0 1 -249.99997 250 249.99997 250 0 0 1 -249.99997-250 249.99997 250 0 0 1 249.99997-250 249.99997 250 0 0 1 249.99997 250z" fill="#ffe24c"/><path d="m1000 750.00632-194.05817-2.60063 192.98367-20.4591-193.45987 15.31075 190.28547-38.19139-191.22567 33.10816 185.92267-55.58184-187.34707 50.61663 180.01317-72.50831-181.88127 67.68555 172.56127-88.82024-174.86477 84.18876 163.62798-104.35075-166.35478 99.94311 153.30278-119.00625-156.40808 114.88758 141.65488-132.65651-145.14668 128.82271 128.82258-145.14278-132.65648 141.65492 114.88758-156.42029-119.00218 153.31093 99.94719-166.3385-104.34669 163.60764 84.17649-174.84041-88.81609 172.54909 67.67739-181.89345-72.48799 180.02133 50.6167-187.35925-55.5941 185.94294 33.1-191.23373-38.1995 190.27732 15.3474-193.45586-20.4957 192.97968-2.59249-194.05413-2.5681 194.05413-20.4916-192.97968 15.327 193.45586-38.2004-190.27732 33.1171 191.23373-55.5936-185.94294 50.6162 187.35925-72.51029-180.02133 67.69979 181.89345-88.81699-172.54909 84.17729 174.84041-104.36289-163.60764 99.96869 166.3385-119.00618-153.31093 114.86968 156.42029-132.64018-141.65492 128.81968 145.14278-145.14988-128.82271 141.67318 132.65651-156.42638-114.88758 153.29788 119.00625-166.34218-99.94311 163.62828 104.35075-174.86477-84.18876 172.54667 88.82024-181.87387-67.68555 180.00617 72.50831-187.35587-50.61663 185.94077 55.58184-191.21897-33.10816 190.28097 38.19139-193.47947-15.31075 192.98647 20.4591-194.04384 2.60063 194.04384 2.58435-192.98647 20.46723 193.47947-15.31481-190.28097 38.20361 191.21897-33.12445-185.94077 55.58997 187.35587-50.60849-180.00617 72.5083 181.87387-67.68553-172.54667 88.81211 174.86477-84.17656-163.62828 104.33851 166.34218-99.95936-153.29788 119.0103 156.42638-114.87941-141.67318 132.66054 145.14988-128.83082-128.81968 145.13868 132.64018-141.66304-114.86968 156.42028 119.00618-153.28243-99.96869 166.32222 104.36289-163.59543-84.17729 174.84852 88.81699-172.55719-67.69979 181.8975 72.51029-180.02538-50.6162 187.35108 55.5936-185.93884-33.1171 191.21336 38.2004-190.26101-15.327 193.47618 20.4916-192.99594 2.5681 194.05003 2.59249-194.05003 20.4957 192.99594-15.3474-193.47618 38.1995 190.26101-33.1-191.21336 55.5941 185.93884-50.6167-187.35108 72.48799 180.02538-67.67739-181.8975 88.81609 172.55719-84.17649-174.84852 104.34669 163.59543-99.94719-166.32222 119.00218 153.28243-114.88758-156.42028 132.65648 141.66304-128.82258-145.13868 145.14668 128.83082-141.65488-132.66054 156.40808 114.87941-153.30278-119.0103 166.35478 99.95936-163.62798-104.33851 174.86477 84.17656-172.56127-88.81211 181.88127 67.68553-180.01317-72.5083 187.34707 50.60849-185.92267-55.58997 191.22567 33.12445-190.28547-38.20361 193.45987 15.31481-192.98367-20.46723z" fill="#fffbb3" fill-rule="evenodd"/></g><path d="m475.52734 222.65303c-30.09908-23.22639-61.9525-49.99274-91.54053-67.22195-23.80012-13.68845-50.2451-24.27443-79.28857-26.42747-24.19084 3.34731-41.99305 14.04776-56.78027 24.74122-16.92216-11.62348-39.7213-24.87485-57.28516-24.86328-30.35575 5.76995-61.59548 18.13104-85.04263 31.34863-32.624489 18.95426-58.065842 41.34899-84.461274 63.69433 6.078707 7.39719 12.157518 14.7943 18.236328 22.19141 26.899952 32.7355 64.400476 66.55597 104.652346 80.62891 32.93 12.55906 68.5036 21.61219 103.90039 21.57667 35.9972-.0361 69.77089-2.88742 105.76953-22.1548 42.29363-19.04767 76.2896-46.16626 103.38867-80.2832 6.14983-7.74393 12.30056-15.48715 18.45117-23.23047z" fill="#f2c80d"/><path d="m346.29537 309.75403c39.7935-17.9217 71.2305-43.0173 96.687-75.0663-31.275 2.5425-72.1098 4.4649-101.5137 5.7816 0 0-62.41519 3.47949-93.5507 3.47949s-93.1327-3.47949-93.1327-3.47949c-29.40391-1.3167-70.239606-3.24-101.513706-5.7816 25.3818 30.888 62.043296 62.9541 96.687006 75.0663 0 0 64.7798 16.46014 97.9594 16.46014s98.3774-16.46014 98.3774-16.46014z" fill="#fffdcc" stroke-width="36"/><path d="m152.38477 241.71359c-15.89446 45.31003-.12301 92.59088 14.3496 136.00781 14.79252 44.37755 47.75552 69.0918 81.39258 69.0918 33.63767 0 66.60014-24.71449 81.39258-69.0918 14.47164-43.41672 30.24295-90.69789 14.34961-136.00781-5.78303-16.48514-17.59961-30.26832-32.86817-35.31916-20.23319-6.69313-41.5625 11.59653-62.874 11.5965-21.3112-.00003-42.64014-18.28937-62.8731-11.5965-15.26881 5.05078-27.08608 18.83402-32.8691 35.31916z" fill="#f2c80d"/><g fill="#fffdcc" stroke-width="36"><path d="m192.68877 223.99483c-9.6642 2.6775-19.6803 13.3038-23.319 23.6763-13.212 37.6632.0666 81.2376 14.4405 124.3584 13.0302 39.0906 39.0996 56.7846 64.3167 56.7846 25.218 0 51.2865-17.694 64.3167-56.7846 14.373-43.1208 27.6516-86.6952 14.4405-124.3584-3.6387-10.3725-13.6548-20.9988-23.319-23.6763-18.0099-1.6596-31.9779 11.0196-47.8197 13.9995l-7.6185 145.5966-7.6185-145.5966c-14.4864-2.4444-35.8173-16.8903-47.8197-13.9995z"/><path d="m59.995464 214.60693c39.6612-4.0203 88.205406-6.7536 125.258406-8.2125 21.654 6.1524 45.666 11.5965 62.8731 11.5965 17.2062 0 41.22-5.4441 62.874-11.5965 37.0521 1.458 85.5963 4.1922 125.2575 8.2125-36.7398-28.9773-82.5966-63.954-130.9446-67.7268-22.2462 3.2886-40.9545 16.6491-57.1869 29.1366-13.9077-10.2168-40.5756-29.4219-57.1869-29.13705-51.7257 10.04085-93.394806 35.94015-130.944606 67.72725z"/></g></svg>