<svg height="500" viewBox="0 0 500 500" width="500" xmlns="http://www.w3.org/2000/svg"><g transform="translate(.000015)"><circle cx="-249.99998" cy="250" fill="#e51a1a" r="250" transform="scale(-1 1)"/><path d="m181.33938 83.856939c97.52275-31.84694 203.27597 26.159281 217.12696 131.568651 10.04116 85.89723-45.79566 162.6049-131.11288 174.6444-76.26503 6.65-147.16573-45.4981-149.44603-126.3231.16679-50.89801 30.03241-87.97493 76.60677-108.40662 44.00125-16.48183 90.46555-3.00917 112.28155 39.63622 17.95322 40.0953 3.57775 87.31302-40.4313 103.80676-21.98685 8.23292-51.6578-5.55285-56.72562-31.5612 24.48155 21.7253 69.7211 11.74379 80.1808-21.06198 5.24648-24.88185-11.48198-41.52298-24.36368-55.64156-23.21161-15.22125-63.26956-13.16738-85.32502 12.05139-41.51846 46.43224-18.48961 112.52397 35.72777 131.08081 60.66482 17.11352 118.96473-29.63961 126.96137-92.39988 2.7637-54.83226-40.99398-106.19486-96.51046-114.27807-76.21988-10.3001-138.45939 50.84936-147.743191 124.09106-9.31956 73.21828 47.315731 138.67973 111.863041 158.33924 49.05305 9.49897 98.18701 2.07129 139.64056-27.40671 82.90715-58.95602 100.11901-177.97214 43.55644-260.39974-52.71171-79.885311-158.575-103.987181-249.15842-67.061741-86.705021 39.45169-149.0660905 134.549061-117.102931 229.167621 15.77888-74.65377 50.93986-153.5943 123.407351-187.514491 9.28724-4.60517 19.44718-8.7232 30.56692-12.33106zm-160.722321 286.075591c-52.57825-113.8254-.38403-260.89182 113.777041-317.643861 10.84604-5.32012 22.21219-9.7712 34.03518-13.36069 115.76394-28.75816 246.03978 34.00351 263.68455 158.897471 10.04526 85.91695-27.72044 168.80365-107.97396 206.83173-102.24035 46.26108-224.798841-11.43986-234.690511-131.24969-7.33455-123.78718 127.307171-194.136761 222.718561-137.24102-42.54074-27.89653-94.21826-33.44528-140.80825-12.98978-71.17376 32.62266-105.080851 118.0397-80.762351 190.63139 30.697281 88.13423 123.572931 132.04164 212.817841 105.59803 82.80488-25.06359 132.16266-100.33164 140.19255-180.04986 12.12434-145.020371-132.23823-245.3588802-265.59709-221.973611 7.92036-4.10499 20.5989-8.4277792 35.61563-11.7452592 60.06317-13.23825 124.63426-3.45807 179.45368 32.4903392 109.65077 71.904621 141.09454 217.803071 65.16008 333.599141-143.00482 218.07486-377.311781 117.06797-437.622951-1.79433" fill="#b21a1a"/></g><g opacity=".75"><path d="m273.21289 0c-1.19055.00203273-2.44403.0713302-3.66406.10546875-38.43792 18.06532425-76.28215 36.55179625-110.84766 56.67187525-27.92755 16.256226-60.804933 36.750554-90.933592 54.531246-13.803375 8.14619-26.885302 15.44357-38.71875 21.72461-18.517863 34.90671-29.04883138 74.69908-29.048828 116.9668.17104964 3.3306.40872837 6.65743.71289062 9.97852-2.25798322 37.40922 3.86160968 75.2227 19.90429738 109.95312 34.751118 68.48811 127.287902 130.87947 226.822262 129.88477.8532.0656 1.70673.12678 2.56055.18359h103.98438l3.34765-2.46875 26.8418-30.01563h.00195l5.5586-6.21679 76.27929-85.29102 9.05078-10.12109 17.48438-19.55078c.03467-1.67411.085-3.35348-.00391-4.99219-.3893-7.17629-10.6289-18.75781-10.6289-18.75781s2.14906-4.00826 4.22656-7.22656c9.64598-14.94323 10.82704-36.50115.01758-53.58399l-7.52344-11.88867c4.84589-12.59305 5.33294-27.34185-1.27734-40.53516l-3.50782-7.00195c7.99588-16.08354 9.60083-35.31551 3.68164-54.10156 18.03257-18.14484 26.17153-44.33521 20.86914-72.126956 0 0-7.11969-14.279068-12.24218-20.292969-5.10159-5.989393-8.70054-8.2571-18.01172-15.251953-9.3113-6.994852-21.41847-12.798365-43.73633-20.740234-22.31795-7.941866-62.34186-15.7245316-90.0332-17.554688-27.69122-1.83014634-38.49986-2.31994992-61.16602-2.28125z" fill="#861313"/><path d="m310.35547.91796875c-49.71201 23.04502825-99.09457 46.09236425-142.59961 71.41601525-47.83303 27.842916-111.701643 69.080526-150.763672 87.085936-7.6255171 19.60018-12.8582438 40.38536-15.320313 62.02344 76.604498-22.78815 107.528765-45.89845 168.015625-68.27148 92.20718-34.10584 220.25306-68.589685 312.09766-101.902349-3.40385-3.17641-7.09686-5.780405-13.63672-10.693359-6.52756-4.903646-14.65416-9.251026-26.48438-14.13086-79.81305 32.598883-168.29981 61.942391-220.84961 95.818358 46.1641-37.002705 116.91923-71.673198 185.93946-107.73242-22.27029-5.8534699-50.96667-10.8350957-72.375-12.25-10.24491-.6770987-16.94482-1.0119967-24.02344-1.36328125zm188.77734 80.72460925c-92.22302 32.612552-231.95761 64.809322-331.72656 94.406252-60.38211 17.91263-82.030321 38.87321-166.3847656 51.94726-.63330795 7.25633-1.02148499 14.58324-1.0214844 22.00391.17104964 3.3306.40872837 6.65743.71289062 9.97852-.46183861 7.65152-.4788978 15.31715-.2265625 22.97265 99.73931188-29.76487 153.51626188-53.00266 232.66211188-76.68945 72.98885-21.84412 170.19884-40.28113 245.69531-59.50586 15.88936-16.83666 23.48482-40.12129 20.28906-65.113282zm-18.30664 95.361332c-74.34077 16.2115-171.50184 31.89787-243.89844 48.95507-78.95073 18.60143-157.673633 46.26097-236.39257375 58.93164 1.19409945 29.11762 7.59771895 58.01403 20.08203175 85.04102 4.7397 9.34109 10.641625 18.54282 17.402343 27.51172 135.555419 1.69181 276.386799-10.96257 418.642579-37.98242l28.86328-32.27149c-1.92765-2.58186-3.60937-4.60351-3.60937-4.60351s2.07227-3.82241 4.08007-6.97656c-115.78267 26.67967-326.96702 24.40183-439.660152 35.56835 117.100052-21.8178 316.582042-36.73168 446.912112-69.90429-.96384-6.73154-3.23068-13.40226-7.08789-19.49805l-7.52344-11.88867c2.18964-5.69023 3.42885-11.82657 3.58594-18.05469-59.00157 9.12829-126.4598 16.748-181.24805 27.35742-91.09753 17.6405-202.517721 49.79074-272.750001 55.64453 52.672338-6.20245 152.547551-37.87175 229.160161-55.36718 67.75269-15.47217 154.19464-26.64438 223.41211-40.77149-.8032-3.16534-1.91174-6.29851-3.4375-9.34375l-3.50782-7.00195c3.89637-7.83747 6.24453-16.42892 6.97461-25.3457zm-53.73828 215.52539c-136.21799 23.76795-263.12633 20.31063-385.439452 9.50195 14.241772 17.84744 32.097903 34.57266 52.763671 48.94336 93.067741 6.9475 176.854821 5.78757 281.255861-.94727zm-306.54492 74.45508c37.65944 20.47131 81.51317 33.28557 126.89648 32.83203.8532.0656 1.70673.12678 2.56055.18359h80.97656l17.96094-20.08398c-81.2843 1.22672-152.59425-1.66927-228.39453-12.93164z" fill="#ff8066" stroke-width="36"/></g><g transform="translate(-685.38982 -21.0889)"><path d="m1022.6478 350.51663c7.1871 6.61186 13.674 13.24792 18.9513 18.67278l13.7147 20.49322c2.2236 3.97066 4.1315 7.99454 6.4671 12.68281l4.0095 18.3836c1.5865 12.98073.1164 27.33335-6.0665 44.3457l-20.3496 55.99416 47.9492-35.35742c26.5455-19.57442 45.1976-37.93846 57.7949-56.34766l10.666-15.58594c16.2583-11.2694 23.1605-32.74614 22.1504-51.36441-.3893-7.17631-10.6295-18.75823-10.6295-18.75823s2.1497-4.00865 4.2272-7.22697c9.646-14.94325 10.8275-36.5011.018-53.58398l-7.5235-11.88867c4.8459-12.59307 5.333-27.34183-1.2773-40.53516l-3.5078-7.00195c7.9959-16.08358 9.6008-35.31547 3.6816-54.10156 18.0326-18.14488 26.1716-44.33515 20.8692-72.126952 0 0-7.1197-14.278765-12.2422-20.292678-5.1016-5.989405-8.702-8.25702-18.0132-15.251887-9.3113-6.994866-21.4177-12.799434-43.7356-20.741319-22.318-7.94188-62.3412-15.72455-90.0326-17.55471-27.69127-1.83015-38.50029-2.3192-61.1665-2.2805-22.6662.0387-48.60792 2.70271-66.61326 6.72992-18.00534 4.0272-30.11279 8.20068-37.7538 12.93012-7.64102 4.729446-12.7438 9.315578-14.2838 12.099277l-10.73917 33.709433c-3.72116 16.021766-4.66666 25.273096-4.31815 38.024696.41414 15.1526 3.11231 30.3553 7.59159 44.83663 1.23541 3.99401 5.25391 11.38867 5.25391 11.38867 12.11011 26.24906 31.29477 48.08604 49.22522 62.94806s10.03437 9.33518 15.26076 13.76347c11.52839 9.76794 35.475 28.22011 35.475 28.22011 20.31295 14.84785 40.80031 28.99418 61.90625 44.65625z" fill="#861313"/><path d="m965.05135 39.096834c-27.99948.1382-52.89609 2.656807-72.14135 6.961166-13.68482 3.061422-24.50944 7.092098-31.18599 11.2237-6.67563 4.132512-8.34976 7.401242-8.34976 9.74709 0 2.344029 2.10857 6.639295 9.00324 11.820164 2.98382 2.239466 6.75017 4.538943 11.13364 6.819324 11.43355-24.446826 55.29095-33.153741 96.56717-33.414694 17.69565-.111837 34.8169 1.152012 48.8244 3.721534-61.90301 8.215014-114.72456 11.261888-93.92604 47.251562 22.52173-14.571537 69.12664-13.611379 101.90674-9.547061-31.56768 4.188884-60.18064 6.601111-71.48695 15.629891 15.01449 2.39586 31.05327 4.23981 47.71555 5.3409 42.8785 2.8332 81.6944.29732 109.0641-5.82461 13.6848-3.06143 24.5094-7.0921 31.1859-11.223704 6.6757-4.132512 8.3498-7.401241 8.3498-9.747086 0-2.34403-2.0795-6.610201-8.975-11.791069-6.8956-5.17905-17.812-10.651786-31.5559-15.541697-27.486-9.78255-66.3274-17.455655-109.2059-20.28886-10.72009-.70921-21.17298-1.07291-31.27049-1.13655-1.89408-.0118-3.78634-.009-5.65316 0zm-117.84013 49.240984c-4.03991 16.309092-5.15328 31.371622-3.86268 45.405782.005.0164-.006.04 0 .0564 5.2896 15.39531 21.2675 28.92304 44.73446 39.26841 25.62097 11.29643 59.20635 18.40581 92.67449 20.82713 33.46991 2.42131 66.89811.17548 92.02281-6.45018.06-.0154.1127-.0409.1727-.0564l.1691.11366c65.7611-8.85603 102.3511-37.84817 92.9889-86.91912-6.2312 22.30828-25.0629 38.71558-49.3061 50.57666 2.594-9.13972 5.9231-18.63767 10.1103-28.52752-3.4992 1.00018-7.1692 1.92305-11.02 2.78502-29.6973 6.64202-69.722 9.11516-113.922 6.19376-44.20006-2.92139-84.19931-10.69905-113.77932-21.22536-14.78909-5.2627-26.97974-11.150054-36.04206-17.957559-1.7432-1.309311-3.40279-2.665902-4.9406-4.091592zm6.87285 84.928772c10.65194 23.08842 28.05403 43.20179 48.68168 61.74399 9.9103 7.053 24.31767 13.25132 41.15352 17.64387 22.93527 5.98283 50.13313 8.95242 75.89043 8.77965 22.7626-.15183 44.4745-2.81865 60.9796-7.58491 50.9438-10.06804 77.6018-40.59043 64.8131-79.72973-2.1031 20.57982-16.1206 36.00604-35.5594 47.22429-.9343-9.77437-1.1516-19.99154-.3681-30.74425-9.0832 5.66913-20.1378 9.98895-32.5775 13.2695-27.7441 7.31486-62.55 9.52159-97.55961 6.98844-35.00957-2.53315-70.13912-9.81982-98.32856-22.24918-9.95573-4.38801-19.14348-9.49433-27.12425-15.34258zm292.56993 65.23822c-4.2581 13.29313-13.3168 24.32862-25.6755 32.90369-1.6924-5.27088-3.2938-10.64542-4.7425-16.16634-6.3103 5.3618-14.3301 9.38158-23.5742 12.64303-19.866 7.01026-45.6133 10.35992-72.7367 10.54176-24.00679.16003-49.00429-2.194-71.60236-7.21939 20.04689 14.65337 40.65364 28.87121 59.58716 43.53094 18.4527 7.29486 44.4654 6.6102 67.2289-.14184 10.8519-3.21872 20.8694-7.73766 28.7702-12.81488 32.6856-16.1027 55.3891-38.04547 42.7468-63.27788zm9.6858 53.98633c.3063 11.62012-6.4621 22.28737-16.8141 31.51164-2.5175-7.80858-5.4277-15.74446-8.437-23.89492-2.6657 3.48877-5.8495 6.74204-9.3722 9.68799-10.9392 9.14699-25.6274 16.2991-41.7516 21.08172-14.3692 4.26253-30.0181 6.76113-45.1307 6.39198 7.6281 7.01754 14.6737 14.20238 20.9039 21.68091 10.9337 6.20831 31.5895 6.02101 50.6694-.0546 5.3132-1.693 10.4429-3.76426 15.1399-6.08284.069-.0327.1291-.0782.1981-.11274 30.9924-13.30224 49.915-35.99877 34.5943-60.21009zm-9.3741 64.30169c-.9089.73648-1.8295 1.48025-2.7829 2.18764-9.0342 6.70476-20.4405 12.22932-32.6338 16.11178-13.1286 4.1798-27.3842 6.7675-40.5301 5.79553 2.6121 4.66441 4.8915 9.45976 6.7893 14.37786 3.8172 3.7279 8.6015 6.41926 13.9147 8.125l.3136.39824c40.0201 9.47978 73.8491-3.34965 68.0787-43.72914-1.7541 7.65946-6.6256 13.8696-13.4331 18.69677 1.0307-7.38761 1.0225-14.67792.2818-21.96459zm-63.3081 61.77218c1.9541 15.98813-.014 33.41014-7.0164 52.67883 25.4428-18.76134 42.575-35.87875 53.6232-52.02418-4.8016 1.44751-9.8412 2.43495-14.9382 2.98232-10.4483 1.12382-21.5883.15638-31.6686-3.63697z" fill="#ff8066" stroke-width="36"/></g></svg>