<svg height="512" viewBox="0 0 512 512" width="512" xmlns="http://www.w3.org/2000/svg"><circle cx="256" cy="256" r="246" stroke="#fff" stroke-width="10"/><path d="m425.28149 212.21188c29.60718-3.44024 29.4982 11.6921 30.1743 26.33378 0 0-95.65535 81.73755-175.18797 111.55891-7.90766 2.96375-42.15746 8.34976-64.74917 8.34976-8.38691 0-15.16424-.74117-18.38991-2.62939-59.45418-34.72905-120.388843-40.66583-155.018516-40.66583-17.91065.009-24.772557.47554-24.772557.47554-6.941285-33.07993-12.2299259-63.86941.627141-97.29159 0 0 1.22042.0632 3.659405.0632 11.612573 0 46.15943-2.66961 112.535837-18.00567 2.76117-.61802 5.58348-.92119 8.41291-.90371 22.59172 0 53.59728 15.60727 67.89404 17.47784 27.38981 3.61482 104.27632 5.76495 104.27632 5.76495l21.01 31.57491c-35.73957 28.01395-147.10065 25.21274-147.10065 25.21274s68.51632 25.92698 153.08387-15.48002c9.40671-4.5724 83.54495-51.83538 83.54495-51.83538zm-94.88632-27.11117c.43601-.94918 8.92946-9.97323-14.92926-4.06622l-53.31771 25.24897c5.16031.25356 17.17041.47925 22.05023.6873zm35.67734-4.15631-57.39322 27.19198c3.95848.12631 13.69955.40681 13.69955.40681l6.14576 8.13335 50.75984-26.52326c6.43047-6.81371 6.69177-13.88911-13.21193-9.20888zm-16.54627 62.20988 69.12281-41.44322c5.6543-8.63045-3.33783-17.23352-17.17041-10.64571l-65.50799 34.71976z" fill="#fff" stroke-width=".689073"/></svg>