<svg height="512" viewBox="0 0 512 512" width="512" xmlns="http://www.w3.org/2000/svg"><circle cx="256" cy="256" r="246" stroke="#fff" stroke-width="10"/><path d="m256.01926 62.707309c-58.18087 0-91.53244 9.661302-110.78949 31.868367-16.88065 19.461914-24.11638 50.814024-25.65695 97.604554h-60.221297v14.75008h393.335467v-14.75008h-60.22949c-1.55695-46.79053-8.76811-78.14264-25.64875-97.604554-19.25705-22.207065-52.60862-31.868367-110.78949-31.868367zm-120.95066 157.334181c-1.80279 12.37368-2.78612 25.32097-2.78612 38.5141 0 20.89595 2.3764 40.97245 6.80142 59.65588 1.22917-1.80279 2.45835-3.52363 3.76947-5.32642 6.96531-9.83338 14.34035-20.07649 24.00985-28.18904 9.58755-8.0306 21.79734-13.84868 36.71131-13.84868 14.34035 0 28.76265 3.44168 40.15299 11.06256 4.83475 3.19585 9.01394 7.29309 12.29174 12.12784 3.27779-4.83475 7.45698-8.93199 12.29173-12.12784 11.39034-7.62088 25.81264-11.06256 40.153-11.06256 14.91397 0 27.12376 5.81808 36.71131 13.84868 9.66949 8.11255 17.04453 18.35566 24.00985 28.18904 1.31112 1.80279 2.54029 3.52363 3.76946 5.32642 4.42503-18.68343 6.80143-38.75993 6.80143-59.65588 0-13.19313-.98334-26.14042-2.78613-38.5141zm68.50593 65.55592c-11.3084 0-19.50288 3.93335-27.2057 10.407-7.70282 6.47364-14.58619 15.73341-21.46957 25.48486-6.88337 9.66949-13.76674 19.83066-22.53484 28.10709-8.7681 8.19449-19.85525 14.34036-33.515458 14.66814-16.438146.40972-32.220732-9.25977-45.19015-19.01122 1.701996 3.35974 3.340894 6.71949 5.299377 10.24312 11.611591 20.89594 28.311959 42.3655 42.004951 46.79053 15.54495 5.08058 44.51246-3.35974 73.76679-14.66814 29.25432-11.39034 58.34476-24.99319 81.28933-24.99319s52.035 13.60285 81.28933 24.99319c29.25432 11.3084 58.26281 19.74872 73.7504 14.66814 13.68479-4.42503 30.40155-25.89459 42.03773-46.79053 1.96667-3.52363 3.60557-6.88338 5.24447-10.24312-12.94729 9.75145-28.68071 19.42094-45.15164 19.01122-13.68479-.32778-24.74735-6.47365-33.51545-14.66814-8.76811-8.27643-15.65148-18.4376-22.53485-28.10709-6.88337-9.75145-13.76674-19.01122-21.46956-25.48486-7.70282-6.47365-15.89731-10.407-27.2057-10.407-11.88201 0-23.68208 3.1139-31.95851 8.60421s-13.11118 12.70146-20.48622 12.70146-12.20979-7.21115-20.48622-12.70146c-8.27644-5.49031-20.0765-8.60421-31.95851-8.60421zm52.44473 155.69528c28.76265 0 55.47669-14.50424 76.37263-39.82521-30.07377-11.63618-59.98365-24.0918-76.37263-24.0918s-46.29886 12.45562-76.37263 24.0918c20.89594 25.32097 47.60997 39.82521 76.37263 39.82521z" fill="#fff"/></svg>