<svg height="512" viewBox="0 0 512 512" width="512" xmlns="http://www.w3.org/2000/svg"><circle cx="256" cy="256" r="246" stroke="#fff" stroke-width="10"/><path d="m152.5852 99.286585-14.672 2.872005 9.2016 46.9728c-2.3536.3184-4.692.87359-6.9904 1.6736l-26.3712-45.2736-12.9184 7.5248 26.2384 45.0504c-1.544 1.2176-3.0344 2.54399-4.4696 3.95999l-38.14-36.58399-10.3464 10.78959 39.2056 37.608c-1.084 1.8-2.08 3.6672-2.9872 5.5904l-38.3704-21.512-7.312 13.0432 53.7184 30.1136c5.9456 4.5152 12.2048 7.84 18.4904 9.2768l84.4776 69.11761 16.088 69.08479 11.8432 70.41841h15.1224l8.7784-69.6616 16.4512-70.64161 82.908-67.8336c7.1576-1.0288 14.336-4.624 21.104-9.7648l53.712-30.1104-7.3096-13.0424-38.372 21.512c-.908-1.9232-1.904-3.7904-2.988-5.5896l39.208-37.608-10.3496-10.79039-38.1384 36.58399c-1.436-1.416-2.9264-2.7416-4.4704-3.96l26.2384-45.05039-12.92-7.5248-26.3696 45.27519c-2.2976-.8-4.6352-1.35679-6.9888-1.67519l9.2016-46.972-14.6736-2.872005-11.3376 57.882405c-1.7056 2.2056-3.48 4.24319-5.432 6.0376l-15.08-28.584-13.224 6.97599 17.9488 34.02161c2.844 7.5384 5.9576 13.6976 9.2736 18.6456l-54.9344 68.504c-.8848 1.4928-1.8272 2.936-2.8424 4.304-6.8496 9.236-17.0128 15.608-28.536 15.608-11.5224 0-21.6848-6.372-28.5344-15.608-.2544-.344-.496-.6992-.7416-1.0504h-.008l-56.4592-70.4056c3.6664-5.1648 7.1008-11.7632 10.2104-20.008l17.9416-34.0104-13.224-6.976-15.08 28.584c-1.9504-1.7936-3.7248-3.8304-5.4304-6.036l-11.3408-57.885605zm102.664 97.469605c-6.0744 0-11.8416 3.24799-16.5232 9.56-4.68 6.31199-7.86 15.5584-7.86 25.9248 0 10.3656 3.1792 19.6128 7.8608 25.9264 4.6824 6.3136 10.4496 9.5616 16.524 9.5616s11.8432-3.248 16.5248-9.56c4.6832-6.3144 7.8624-15.5616 7.8624-25.928 0-10.3656-3.1792-19.612-7.8616-25.9248-4.68-6.312-10.448-9.56-16.524-9.56zm-42.3296 205.648c-11.9184 5.3856-19.624 13.104-19.624 21.4896 0 16.348 28.296 29.4352 63.076 29.4352 34.7784 0 63.072-13.088 63.072-29.436 0-8.4736-7.4824-16.0944-19.6208-21.4896 3.632 3.2264 6.072 6.8384 6.072 10.744 0 12.7808-22.3336 22.896-49.5232 22.896s-49.0584-10.1152-49.0584-22.896c0-3.8664 2.04-7.5416 5.6064-10.744z" fill="#fff" stroke-width=".8"/></svg>