<svg height="512" viewBox="0 0 512 512" width="512" xmlns="http://www.w3.org/2000/svg"><circle cx="256" cy="256" r="246" stroke="#fff" stroke-width="10"/><path d="m151.6 70.752-12.16 7.712c3.76 5.888 3.28 7.912 2.08 10.328-6.72 8.944-17.8 12.664-25.848 19.112-5.104 4.16-10.024 10.912-8.736 19.008 1.736 10.768 10.128 18.048 18.52 23.808 9.904-.4 20.384.48 28.944.48l.16-.32c-8.8-4.4-31.264-16.88-33.4-26.28 8.04-13.368 26.28-16.256 33.16-29.296 3.44-6.8 2.72-15.944-2.72-24.552zm74.24.24c-1.44 14.096-3.44 25.632-5.68 35.984l22.64 13.696-26.8 4.248c-2.64 10.2-4.56 18.36-6.72 27.64-8.4 4-17.68 7.52-25.76 9.6 10.08 5.2 20.16 11.84 24.4 22.48 2.88 7.04 1.68 14.32-.72 20.56-2.32 6.16-5.84 11.84-8.96 17.12s-5.76 10.16-6.8 13.84c.32 18.4 25.12 21.52 37.92 18.16.88-5.28 4.48-10.4 7.84-13.76-5.92-2.08-11.76-5.04-16.08-10.32-4.72-5.76-6.24-14.72-2.56-23.28 2.96-5.28 8.88-8.56 14.08-9.36 9.2-.72 17.84 1.12 26.24 3.44.64-5.52 1.76-11.2 3.92-16.24 1.68-3.92 4.4-7.92 8.32-10.32l-8.8-8.64-14 13.2-14.08-14-13.44 10.4 5.84-35.68 11.28 11.76 8.16-12.08 7.28 16.88 14.56-21.2 6.16 37.92c2.16-.8 4.24-1.04 6.32-1.04 6.48.4 11.92 4.4 15.44 9.04 4 5.84 6.8 12.32 8.56 18.16 1.12-.64 2.16-1.2 3.28-1.84 5.04-2.64 10.24-5.12 15.6-6.4-18.56-5.52-21.92-20.8-22.48-38.96-7.52-.64-13.12-.48-20.48-.32-1.6-8.96-2.88-18.56-3.84-26.456l-27.04-4.264 24.64-14.944c-1.52-10.672-3.52-21.128-7.12-31.44-11.52 3.024-26.4 3.184-41.12-3.584zm132.08 18.152s-30.24 16.288-27.68 29.544c.8 4.232 4.24 8.224 8.56 11.184-2 4.848-2.8 9.648-3.12 14.528 4.72 1.44 9.28 3.04 13.76 4.72-.64-5.04-.96-10.08-.48-15.04 4.16.88 8.24.48 11.28-1.52 12-8.088-2.32-43.416-2.32-43.416zm-42.56 64.856c1.76 11.84 1.76 21.76 13.92 23.52 11.68 2.64 23.92-1.76 33.76.96-1.68-3.36-3.36-6.8-4.88-10.24-13.84-5.92-27.44-11.28-42.8-14.24zm-180.88 11.12c-4.944 10.96-9.928 21.84-14.736 32.72-3.072-2.4-6.408-4.48-10.296-6 .952-5.2.448-10.48-2.032-14-2.664-3.76-8.28-5.04-14.496-5.04-11.872-.08-25.96 4.4-25.96 4.4s15.368 34.8 29.568 31.92c3.56-.8 6.632-3.44 8.944-7.04 3.176 2.48 6 5.44 8.656 8.64-7.488 17.6-14.248 35.2-19.296 53.2 17.432 1.6 31.768 7.76 44.368 15.52 6.4-26.16 12.16-48.32 24.24-67.92l23.28 1.92c3.44-6.72 10.8-15.92 7.92-23.36-10.48-13.2-23.92-18.88-39.28-24.4-7.36 0-14.16-.4-20.88-.56zm141.6 25.36c-1.12 2.64-2.08 6.56-2.64 10.72 2.8-.88 5.76-1.36 8.8-1.36 2.64 0 5.12.32 7.52.96-1.52-4.4-3.44-8.48-5.36-11.04-4-5.28-6.56-3.36-8.32.72zm62.72 1.92c2 1.2 3.84 3.04 5.04 5.2 4.16 7.36 2 16-2.16 22-.64.88-1.28 1.84-2 2.64l32.16 54.48c1.36-7.04 2.8-16.32 3.76-26.4 1.92-20.88.16-44.4-7.44-53.76-7.68-6.88-19.92-4.48-29.36-4.16zm-10.72 12.24c-3.36.56-8.56 2.72-13.52 5.44-1.44.8-2.88 1.6-4.16 2.4 4.72 2.08 9.04 4.32 12.4 6.32 2.96-2.56 5.52-5.12 7.04-7.36 2.56-4.48 3.36-7.76-1.76-6.8zm-96.24 8c-3.36 2.8-1.44 6.24.4 8.48 1.84 2.16 6.08 4.72 11.2 6.4 3.12.96 6.48 1.76 9.52 2.32.08-5.2 1.28-10.64 3.36-14.56-6.32-1.76-20-4.96-24.48-2.64zm50.4 1.6c-8.4 0-14.88 6.4-14.88 14.24s6.48 14.24 14.88 14.24 14.88-6.4 14.88-14.24-6.48-14.24-14.88-14.24zm108.56 7.92c.64 9.84 0 20-.88 29.52-1.04 10.88-2.64 20.8-4.08 28.24 12.96-6.56 22.64-15.68 29.76-27.12-8.64-10-16.96-20.16-24.8-30.64zm-78.24 7.44c-2.64 5.12-3.44 11.12-6.4 15.28 2.72 2.48 6 5.2 9.84 8 4.24 3.04 8.72 5.6 11.84 6.64 5.76 2.64 7.84-5.84 6.88-9.28-.8-3.12-3.84-7.2-8-10.88-4.88-4.32-10.08-7.44-14.16-9.76zm-54.96 14.24c-5.04 3.2-11.76 6.08-13.92 12.08-.88 4.88 4.56 11.76 9.76 10.56 6.4-2.88 10.16-8 13.44-13.68-3.76-2.24-6.88-5.28-9.28-8.96zm37.44 10.4c-3.76 1.76-8 2.8-12.4 2.88 1.36 8.24 3.28 23.92 9.12 28 6.96.56 7.92-26.72 3.28-30.88zm-108.96 3.92c-2.72 13.52-5.44 27.2-8.32 40.8 8.72 5.84 18 12.96 24.4 20 5.52 6.16 10 13.12 10.8 21.36.64 7.12-2.72 13.28-6.8 17.68s-8.88 7.84-13.36 11.12-8.56 6.32-10.88 8.96c-2.32 2.72-2.8 4.08-2.4 6.08 1.52 3.04 6.88 4.08 10.08 5.12 3.52 1.04 7.44 2.16 11.36 4.16 3.92 1.92 8.08 5.12 10.08 10.32v.08c5.52-38.4 9.84-72.4 22-102.8l41.44-1.12c3.12 11.92 6.32 24.64 9.04 34.96 7.28 10.4 14.72 20.72 24.56 28.16 4.8 3.52 8.96 5.04 11.92 4.88 4-8.72 6.4-20.08 15.84-22.32 4.16-.88 8.24-.8 12.24.08-3.44-8.48-6.72-16.88-9.92-25.36-6.72 3.12-14.4 6-22.64 3.76-10.08-2.72-16.8-10.64-22.16-19.36-1.04-1.76-2.08-3.52-3.04-5.36-6-.64-10.32-4.88-13.2-9.36-3.2-6-5.28-12.24-6.56-18.08-3.68 3.84-8.16 7.28-13.92 8.64-10.8.24-19.44-4.16-24.24-12.16-6.08 1.6-11.92 2.32-17.44 2.08-11.28-.48-21.12-4.96-28.88-12.32zm241.36 2.88c-2.72 4.32-5.76 8.32-9.2 12.08l8.72 2.96 3.84 24.32 14.24-2.24-5.28-32.96zm-116.64 5.76c-.08 6.4-.64 12.96-2.72 18.96-.96 2.88-2.24 5.6-4.32 8 3.6 6.16 8.88 14.48 15.44 16.4 1.52.4 7.92-.96 13.76-3.36-4.4-11.76-8.8-23.36-13.28-35.04-3.12-1.36-6.08-3.04-8.88-4.96zm-221.848 11.2-19.12 37.44 12.832 6.56 21.48-42.08c-4.736-1.12-9.776-1.76-15.192-1.92zm20.056 3.12-11.912 31.36-4.952 28.24 14.176 2.56 4.728-26.96 11.376-29.92c-4.264-2.08-8.704-3.84-13.416-5.28zm297.712 2.64c-3.76 2.88-7.76 5.44-12 7.84l23.36 39.12 12.32-7.36zm-279.944 4.96 2.112 31.76-11.472 14.88 11.408 8.8 14.776-19.2-1.76-26.48c-4.96-3.6-10.4-7.2-15.064-9.76zm259.224 7.12c-5.12 2.16-9.04 3.44-14.08 5.04l1.04 14.8 17.84 13.68 8.8-11.36-12.72-9.84zm-211.52 18.32c-2.4 11.2-4.88 22.32-7.52 33.52-11.2 18-28.32 37.44-42.52 45.12-7.752 4.24-13.64 4.96-18.168 2.72-4.536-2.24-9.712-8.72-13.072-23.6l-14.048 3.2c3.856 17.12 10.64 28.32 20.72 33.28 10.08 5.04 21.44 2.56 31.488-2.96 9.28-5.12 18.32-12.88 26.56-21.84-4.56 17.04-9.52 34.08-15.04 51.2 14.48 9.12 32.24 6.16 50.4 2 4-10.72 6.16-23.12 4.32-27.92-.32-.72-.96-1.52-3.12-2.64-2.16-1.04-5.44-2.08-9.12-3.2-3.6-1.12-7.52-2.24-11.36-4.48-3.76-2.32-7.68-6.4-8.72-11.84-1.2-7.12 1.92-13.52 5.76-18.08 3.92-4.48 8.8-7.92 13.28-11.2s8.64-6.4 11.2-9.12c2.56-2.8 3.28-4.56 3.04-6.64v-.08c-.32-3.36-2.8-8.16-7.12-13.04-4.4-4.88-10.4-9.84-16.48-14.08-.16-.08-.32-.24-.48-.32zm161.6 52.48c-2.32 7.36-6.96 14.8-14.32 15.68-8.32.8-15.76-2.88-22.24-7.68-2.4-1.84-4.8-3.84-7.04-5.92 6.48 22.96 13.92 45.52 24.08 67.36 31.84 7.84 55.36 5.2 78.4 2-9.92-15.2-18.48-30.64-26.24-46.16 5.04-.88 10-2.16 14.88-4.8 3.36 4 7.68 6.96 12 7.28 13.36 1.12 26.4-30.64 26.4-30.64s-14.32-4.08-26.72-4c-7.44 0-14.24 1.52-16.72 6.32-1.76 3.2-1.6 7.36-.32 11.36-5.2 1.12-10.56 1.28-15.92 1.12-2.08-4.4-4.08-8.88-6-13.28-11.44-7.44-16.16-10.96-20.24 1.36z" fill="#fff" stroke-width=".8"/></svg>