<svg height="512" viewBox="0 0 512 512" width="512" xmlns="http://www.w3.org/2000/svg"><circle cx="256" cy="256" r="246" stroke="#fff" stroke-width="10"/><path d="m274.33984 13.089844c-46.77904-3.5314707-92.81468 2.04401-129.79101 23.605468l15.52734 28.28125 15.875 33.623047-33.62695 37.376951h32.875l3.72461 31.77344 16.82422-20.55078 8.32812 49.55078 31-45.375 20.17578 26.125 19.34766-72.92383 27.02344 16.89844.47656-40.625001 38.125 19.548831-2.42383 54 22.75-33.44922 10.22461 17.70117 48.125-51.40039.95117 35.34961 22.03516-27.726563c-37.42644-42.634491-88.48042-71.734577-141.40039-80.816406-8.74127-.694213-17.48112-.312626-26.14649-.966797zm-150.23828 35.259765c-30.613799 19.445619-56.549248 45.419753-75.949216 76.062501v.002l32.523437 27.38672 5.09961-25.65039 40.374999 26.57617-17.47461-71.902341 23.62305 11.224609zm-4.52734 151.673831c-13.3032.0304-27.284601 1.29395-41.875001 3.50195l-6.326172.94922-.05078 6.37695c-.28 32.192 3.87239 53.84725 12.90039 68.74805 9.0296 14.9016 23.335594 21.85117 38.900394 23.95117 5.5496.748 11.33542 1.01301 17.32422.97461v-73.97656c-14.936 3.428-26.07422 16.79619-26.07422 32.77539 0 10.208 4.54461 19.35659 11.72461 25.52539-.3256-.0384-.65417-.0818-.97657-.125-12.824-1.7296-21.45664-5.8718-28.123043-16.875-6.176-10.192-10.281591-27.4302-10.650391-54.375 11.6264-1.5344 22.751784-2.45781 33.175784-2.47461 20.576-.0336 38.72222 3.11581 54.07422 10.22461 22.2144 10.288 39.31581 28.8688 50.72461 60.5-18.8536-1.0504-36.67021.23457-52.72461 1.57617 6.1984-6.1024 10.05078-14.59096 10.05078-23.97656 0-16.032-11.2348-29.42683-26.25-32.79883v73.39844c23.984-1.6032 50.6796-5.61843 78.75-2.54883l11.17383 1.22461-3.19922-10.77734c-12.1144-41.0048-33.6532-66.92868-62.25-80.17188-17.8736-8.2776-38.12763-11.67655-60.29883-11.62695zm278.09766.002c-22.17201-.0488-42.42603 3.3482-60.29883 11.625-28.5984 13.244-50.1348 39.16938-62.25 80.17578l-3.17578 10.77344 11.15039-1.22266c28.456-3.112 55.5092 1.06705 79.75 2.62305v-73.69922c-15.5176 2.988-27.25 16.63544-27.25 33.02344 0 9.3808 3.85798 17.87576 10.05078 23.97656-16.0504-1.3456-33.86277-2.64956-52.70117-1.60156 11.408-31.6176 28.5158-50.18901 50.72461-60.47461 15.35199-7.1088 33.49697-10.25821 54.07617-10.22461 10.4304.0176 21.53863.93976 33.17383 2.47656-.368 26.944-4.49783 44.1814-10.67383 54.375-6.6664 11.0024-15.27597 15.1454-28.10157 16.875-.328.0448-.6656.0838-1 .12305 7.1872-6.168 11.75196-15.30824 11.75196-25.52344 0-15.62-10.66717-28.74219-25.10156-32.52539v73.72461c5.632.003 11.08937-.26856 16.32617-.97656 15.5664-2.0984 29.89502-9.04647 38.92383-23.94727 9.0296-14.9016 13.15419-36.55755 12.875-68.75195l-.0488-6.37305-6.30078-.95117c-14.592-2.208-28.59799-3.4696-41.90039-3.5zm30.35156 111.35156-2.17383 28.09766-64.32617-3.25 62.70117 53-31.90039 7.55273 50.0332 19.80469c8.51592-9.88194 16.23231-20.42561 23.07617-31.53125l.002-.004 10.98242-19.81641.0137-.0293-48.40625-53.82422zm-104.90039 9.623-52.32227 68.22461-9.82422-33.64844-23.35351 77.54883-40.17383-54.17578-18.69141 110.60351-23.35937-103.1289-11.09961 13.37695-19.75-43.30078-26.625002 43.47656-15.423828-66.82617-44.886719 36.08594c27.067522 52.20162 71.938359 92.98094 126.482419 114.94922l14.64258 5.36523.0215.008c.002.00044.004.002.006.002 41.88953 9.05713 82.83863 13.66036 121.70313 8.38672 35.40121-6.50647 68.94332-20.70232 98.25977-41.58594l-12.05469-36.31055-42.52344 15.90039-7.47656-42.52539-13.55078 10.75195z" fill="#fff" stroke-width=".8"/></svg>