<svg height="512" viewBox="0 0 512 512" width="512" xmlns="http://www.w3.org/2000/svg"><path d="m14.88016 28.620041c-2.242225.0084-4.48866.05684-6.744569.164219 36.179817 29.23734 47.801497 89.36896 63.261267 140.20535 38.683102-85.27612 74.014462 16.37982 89.807932 140.2043 20.59057-165.38775 85.99615-41.43589 123.95396 25.46451-3.38229-76.58723 111.77436-23.56546 133.29655 50.98798 14.31129-63.70339 47.41095-55.98193 86.74777 13.84915-5.88136-79.39895-50.21109-157.8147-103.3297-115.33455 7.01827-103.68551-68.58259-105.81089-96.05774-70.95745-16.5693-42.67176-101.54961-125.60669-112.11122-44.54238-46.93513-93.07021-109.342652-140.306407-178.82425-140.041129zm56.910398 172.145999c-5.42766 16.79669-52.250151 93.32812 0 93.32812 52.283832 0 3.29912-76.43564 0-93.32706zm90.071102 136.52305c-6.40034 24.15181-61.60538 134.21766 0 134.21766 61.64328 0 3.88863-109.92795 0-134.21766zm256.72418 67.66675c-4.35076 14.11128-41.8696 78.42523 0 78.42523 41.8938 0 2.64224-64.23289 0-78.42523z" style="opacity:.7;fill:#b20000;stroke:#800000;stroke-width:5;stroke-linecap:round;stroke-linejoin:round"/></svg>