<svg height="512" viewBox="0 0 512 512" width="512" xmlns="http://www.w3.org/2000/svg"><circle cx="256" cy="256" r="246" stroke="#fff" stroke-width="10"/><path d="m83.580448 107.71652c-1.624768.006-3.252585.0412-4.887269.119 26.216721 21.18605 34.638051 64.75878 45.840551 101.59599 28.03067-61.79302 53.63257 11.86919 65.07688 101.59523 14.92039-119.84372 62.31477-30.02539 89.81986 18.45217-2.45088-55.49686 80.99425-17.07607 96.58973 36.94705 10.37028-46.16092 34.35505-40.56578 62.85941 10.03542-4.26177-57.5343-36.3841-114.35614-74.87506-83.57405 5.0856-75.13288-49.69651-76.67299-69.60563-51.41739-12.00649-30.92092-73.58515-91.01746-81.23834-32.27642-34.01027-67.4408-79.23219-101.66923-129.580132-101.477zm41.238562 124.74091c-3.933 12.17126-37.861641 67.62769 0 67.62769 37.88607 0 2.39062-55.38701 0-67.62693zm65.26759 98.92772c-4.63784 17.50094-44.64067 97.25717 0 97.25717 44.66812 0 2.81779-79.65629 0-97.25717zm186.02819 49.03286c-3.15266 10.22536-30.33967 56.82871 0 56.82871 30.3572 0 1.91463-46.54461 0-56.82871z" fill="#fff" stroke-width=".774603"/></svg>