<svg height="512" viewBox="0 0 512 512" width="512" xmlns="http://www.w3.org/2000/svg"><circle cx="256" cy="256" r="246" stroke="#fff" stroke-width="10"/><g fill="#fff" stroke-width="32"><path d="m-289.19508 173.07997c-4.62816 29.01686 1.55444 52.62461 17.09896 76.64994 34.26485-18.75397 61.13726-45.61882 88.13186-75.12086 6.93069-7.84759 8.64319-13.69459 8.40286-17.14941-.32395-3.37863-1.90845-5.47822-5.43608-7.12328-1.72443-.80867-3.86322-1.31623-6.17999-1.43961-7.10867-.4095-16.22274 2.70794-22.63479 11.46051-5.80738 23.3562-23.19241 39.04827-48.02918 47.90805l-4.81941-13.51757-4.15846-34.95493z" stroke="#000" stroke-opacity=".957317"/><path d="m-338.55062 199.90251c-1.18718 18.0734-.46098 37.68588-.69336 58.21289v3.04102l-2.16016 2.08008c-41.832 40.48-75.12113 106.87906-85.95313 183.03906h32.4961c7.296-32.96 13.97595-65.84055 27.75195-92.56055 14.584-28.24 38.26438-49.6 76.98438-54l3.83984-.47851 2.48047 2.95898c30.56 36.56 60.2407 83.12008 68.7207 144.08008h31.67969c-5.04-70.72-37.43969-125.19922-77.67969-183.19922-6.8659-9.87849-7.96369-20.73867-6.14258-31.39844 3.42188-2.22186 10.0804-93.2837 4.34161-95.55851l-29.92446-9.49301c-31.43233 6.10307-39.42452 41.16058-45.74136 73.27613z" stroke="#000" stroke-opacity=".957317"/><path d="m-247.56469 88.611654c-2.4504-6.259473-7.4017-11.915476-13.28-15.176-1.63011-.904176-3.66731-1.101772-5.52-.896-4.51312.501258-9.18342 2.135237-12.64 5.08-7.00777 5.970135-11.91173 14.757231-14.24 23.663996-2.44522 9.35414-2.66598 19.99728.88 28.992 2.46021 6.24054 6.99508 12.77549 13.28 15.12 4.79136 1.78736 10.86148.62723 15.2-2.08 8.6885-5.42161 14.27186-15.67471 17.12-25.51199 2.70715-9.35031 2.74849-20.127504-.8-29.192006z" stroke="#000" stroke-opacity=".957317"/><path d="m-254.31597 195.57612c-5.06774-5.00188-13.97052-8.67956-24.56552-6.34126-19.78479 13.70403-43.20248 14.0072-67.70411 4.25884l5.30755-13.33348c10.19958 4.06198 14.70389 6.10792 19.64928 6.01466 2.15788-3.57881 2.34683-11.30241 1.27275-16.82237-1.08408-5.57134-3.07547-11.77606-7.55741-15.25849-6.23356-4.84342-16.6189-9.4707-23.16097-4.94104-22.63741 18.73356-21.7424 38.45455-25.93509 66.76126 38.11539 8.5445 68.37314 5.41985 108.12675 1.09214 10.38685-1.31621 15.53403-4.57606 17.63503-7.32913 1.98788-2.75106 2.18453-5.37409.62185-8.93898-.76089-1.74603-2.03183-3.53957-3.69011-5.16215z" stroke="#000" stroke-opacity=".957317"/><path d="m-292.63173 172.67342c-12.69995 7.69498-24.32915 11.19741-45.94429 9.51708l-17.71346 69.44841c-.35551 1.47952-.16749 3.3099 1.01229 5.99645 1.18136 2.68984 3.34707 6.00747 6.23384 9.71291 5.26158 6.7533 12.918 14.98283 20.84249 24.40393 7.66853-3.03408 14.86831-7.07659 20.52596-11.13783 6.23648-4.47555 10.65694-9.35048 11.56863-10.99937l22.13499-65.21614c-8.82092-8.06128-15.52193-18.74179-18.66045-31.72544zm-.95066 29.56075 8.92257 3.35293-20.6055 60.15034-19.59899 10.58121-4.34356-8.82529 16.2814-8.78946z" stroke="#000" stroke-opacity=".957317"/><path d="m265.46768 160.08534c-13.6371 8.2628-26.12443 12.02368-49.33457 10.21935l-19.02056 74.57309c-.38174 1.58869-.17985 3.55414 1.08699 6.43893 1.26853 2.88833 3.59405 6.45077 6.69384 10.42964 5.64984 7.25163 13.87123 16.08843 22.38048 26.20472 8.2344-3.25797 15.96546-7.59878 22.04059-11.9597 6.69668-4.80581 11.44333-10.04046 12.4223-11.81103l23.76835-70.02851c-9.47182-8.65613-16.66731-20.12477-20.03742-34.06649zm-1.02081 31.74207 9.58097 3.60034-22.126 64.5889-21.04522 11.36201-4.66408-9.47652 17.48282-9.43804zm29.22706-139.265377c-4.84614.538249-9.86175 2.292888-13.57339 5.454945-7.52487 6.410672-12.79096 15.846257-15.29103 25.410257-2.62566 10.044378-2.86179 21.473105.94586 31.131545 2.64175 6.70103 7.5105 13.71939 14.25918 16.2369 5.14492 1.91925 11.66213.67342 16.32079-2.23358 9.32962-5.82166 15.32617-16.83317 18.38448-27.39635 2.90697-10.040263 2.95046-21.612077-.85987-31.345456-2.63122-6.721363-7.94714-12.7945-14.25919-16.295618-1.7504-.970889-3.93742-1.183597-5.92683-.962643zm-45.08664 64.976937c-3.79544 2.60202-7.11578 5.76803-10.03952 9.381 7.77761 6.22956 10.97276 13.83115 12.69463 20.37266 4.16647-1.57389 8.40577-3.55396 12.78903-6.00861-7.35649-5.7517-11.5293-13.49308-14.26129-20.42301-.43539-1.1044-.82137-2.21242-1.18285-3.32204zm-39.96726 15.33508c-2.13792.13691-4.15174.73866-5.90795 1.95464-24.30783 20.1159-23.34729 41.29267-27.84936 71.68814 4.65614 1.04379 9.19211 1.90653 13.65728 2.64253l14.53603-57.10388c11.54838.89765 21.64552 1.08228 31.45243-.39218-1.32335-4.46542-3.39568-8.78624-6.92511-11.52857-5.02016-3.90061-12.54956-7.67139-18.96332-7.26068zm173.53473 29.29017c7.44213-8.42664 9.28035-14.70618 9.02232-18.41594-.3478-3.62791-2.04858-5.88224-5.83659-7.64866-1.85165-.86834-4.1501-1.41319-6.63786-1.54567-.47708-.0275-.96072-.0404-1.45338-.0377-7.38993.0398-16.39668 3.53339-22.85156 12.34439-4.12303 16.58197-13.75354 29.50602-27.47187 39.14514 2.05717 7.29076 1.07562 15.35595-3.09553 23.87718l-.13003.18036-.13637.18036c-3.17467 4.16001-7.1871 7.28614-12.099 9.60959-.41058 2.67988-.83292 5.40044-1.50058 8.67107 26.57527-18.21997 49.35188-41.40015 72.19045-66.36008zm-82.45543-16.00829c-5.86626 2.549-12.35086 3.66731-19.32614 2.45167 1.10259 4.29115 2.24667 8.28958 3.6576 12.02144 5.04924-.0687 10.07194.53735 15.13794 2.05739.25672-5.75892.46246-11.4066.5306-16.5305zm-5.58917 31.80476c3.00331 3.60702 6.64901 7.24423 11.2727 11.08186l-5.85341 16.85768c5.57178-1.69926 8.79903-4.01472 10.37508-6.07992 2.13457-2.95405 2.34702-5.77115.66903-9.5991-.81704-1.87487-2.18316-3.80072-3.9638-5.54303-3.0192-2.97997-7.33803-5.47341-12.4996-6.71749zm-1.74072 48.55969-16.58294 47.75225c-1.72506 3.12159-3.23694 4.11045-6.0128 6.86639-2.77531 2.75539-6.25527 5.80478-21.21787 14.29694l-26.46518 13.04279c-9.07878-10.79272-18.55064-20.61229-27.04401-31.51326-36.27388 43.80314-64.22411 106.44166-74.24678 176.91128h34.89401c7.83435-35.39206 15.00732-70.69906 29.7998-99.39069 15.66014-30.32377 41.08808-53.26004 82.66514-57.98472l4.12319-.51382 2.6635 3.17732c32.81496 39.25768 64.68595 89.2538 73.7917 154.71191h34.01738c-5.41191-75.93828-40.20242-134.438-83.41179-196.71769-6.71336-9.65904-8.22453-20.19005-6.97335-30.6387z"/></g></svg>