<svg height="512" viewBox="0 0 512 512" width="512" xmlns="http://www.w3.org/2000/svg"><circle cx="256" cy="256" r="246" stroke="#fff" stroke-width="10"/><path d="m247.8504 69.7504c-.9824-.0048-1.964.0216-2.9256.0744-8.0824.448-15.7168 2.9456-24.1248 9l16.576 157.4256c-6.7152 1.7016-13.3408 3.576-19.8512 5.6752l-56.1488-144.476c-5.6256-1.3648-13.9536-.24-21.7008 3.7008-8.1984 4.1704-15.2272 11.072-18.2504 18.3496l53.7992 140.9c-5.9312 3.476-11.672 7.3096-17.2 11.576l-59.4744-75.4c-13.072.5584-27.972 11.564-30.0496 26.124 5.812 6.6544 57.8824 66.716 83.5 114.424 8.24 15.3472 23.6344 40.58 31.3504 56.0512 4.664 9.3544 12.8032 19.3904 22.2744 25.8736 9.472 6.4832 19.76 9.456 30.3256 6.6256l90.3256-24.176c4.3944-1.176 7.3568-4.312 10.576-9.5496 3.216-5.236 6.028-12.1096 10.324-18.4 16.488-24.148 40.3456-60.868 92.1488-89.6496-2.1568-12.0424-5.924-19.656-10.176-23.6504-4.824-4.5336-10.5584-5.8976-18.9488-4.6744-14.4496 2.104-34.7984 13.6504-55.6752 29.4992-1.344 1.112-2.6544 2.2416-3.9496 3.376l-5.6-49.0016 34-124.5744c-3.5824-5.884-11.0448-10.6064-19.876-12.776-8.6992-2.136-18.0048-1.3584-24.224 1.276l-31 119.8992c-7.492 1.264-14.9856 2.536-22.4512 3.8496l-11.272-153.9224c-8.0456-2.016-15.4272-3.4176-22.3-3.4504zm-9.176 185.4496 24.1256 45.3 43.5248-27.1248-27.024 43.3488 45.1488 24.076-51.3256-1.7504 1.7504 51.2256-24.024-45.0752-43.4264 27.0504 27.176-43.5504-45.224-24.1 51.024 1.7248-1.7248-51.1248z" fill="#fff" stroke-width=".8"/></svg>