<svg height="512" viewBox="0 0 512 512" width="512" xmlns="http://www.w3.org/2000/svg"><circle cx="256" cy="256" r="246" stroke="#fff" stroke-width="10"/><path d="m258.6465 53.222554c-43.8447 0-79.83 38.529783-79.83 86.971076 0 48.44046 35.9853 86.97024 79.83084 86.97024 43.84723 0 79.85867-38.52978 79.85867-86.97108 0-48.442139-36.01144-86.971922-79.85867-86.971922zm-49.55756 119.376566c11.19302 3.09419 22.25284 5.0974 33.19716 6.0872v15.80817c-12.37169-1.02015-24.84118-3.24594-37.41268-6.71952zm98.95915 0 4.13626 15.20114c-12.18452 3.32014-24.51742 5.55014-36.99028 6.61414v-15.7812c11.032-1.03111 21.96704-3.0672 32.85571-6.03324zm-135.02708 13.22744c-63.49236 42.82707-93.250505 105.56317-98.037641 185.48254h.183796c-.309419 1.43749-.473823 2.92219-.473823 4.45158 0 11.64156 9.434316 21.07756 21.077562 21.07756.185482 0 .367592-.0211.553075-.0253v.18548l151.284621-.002v-104.04358c-21.56656 4.06376-38.12509 24.01999-38.12509 52.77316v7.87795h-84.62388v-15.7559h10.72257c3.08913-29.65866 22.36077-65.76031 38.2288-85.44338l12.25028 9.88116c-13.16758 16.33343-30.86008 51.98907-34.48711 75.56222h42.55138c3.40614-35.47775 29.65023-61.44109 61.73197-61.44109 29.49172 0 57.88151 24.41456 62.30948 61.44193h47.00297c-4.56287-23.86401-22.36751-59.28696-35.48956-75.56306l12.27895-9.87863c15.92199 19.74883 35.10931 56.05367 39.25653 85.44254h8.9057v15.75589h-86.94832l-.21078-7.66717c-.85996-30.06166-19.87192-49.09723-39.60052-53.01007v104.07089h152.31237v-.18549c.18548.005.36759.027.55476.027 11.64324 0 21.07756-9.43684 21.07756-21.07756 0-1.76377-.22427-3.47358-.63233-5.11173-4.69271-78.0755-32.89954-139.67004-93.61135-182.29393-16.04087 32.33719-47.71286 54.56559-84.41564 54.56559-37.65464 0-70.01713-23.38766-85.62549-57.0949zm-16.73221 226.92609 13.75445 73.74125c60.23876 21.80483 116.60206 19.33266 170.36507.57154l16.72435-74.31279z" fill="#fff" stroke-width=".779485"/></svg>