<svg height="512" viewBox="0 0 512 512" width="512" xmlns="http://www.w3.org/2000/svg"><circle cx="256" cy="256" r="246" stroke="#fff" stroke-width="10"/><path d="m283.002 62.86851-23.15851 79.13477-84.13844-68.760702 2.40868 50.499162-52.93324-60.397255 46.92425 131.354045-93.02953-14.98053 60.50481 57.43299-84.269718 35.41022 96.523128 20.40682-56.638567 82.78759 73.444237.39806.22867-.13551-45.07879 65.20105 83.65992-55.9534 21.64081 79.86736 51.52987-89.69431 43.45861 84.66777-17.15037-87.12896 97.36922 36.12673-34.72421-106.36956 62.85928-76.22386-74.74173-7.6478 82.99932-95.01728-100.38683 64.79028 10.53244-101.84355-59.81456 63.49448-8.0179-87.420304zm-54.38996 78.10236c-1.56683 27.59473 4.68776 46.23824 24.74734 75.1652 2.96681 4.27955 6.77377 9.64655 11.19475 15.66824 23.08143-26.86129 44.9382-55.47404 61.21877-81.19959 8.06279 22.40304-13.96336 67.08547-43.22062 104.80782 12.67857 15.9799 27.62691 33.52156 43.22147 49.09663l15.05845-15.05844 11.19644 11.19389-20.03587 20.03587 35.59655 35.59655-11.1939 11.19643-35.59909-35.59654-20.03502 20.03417-11.1939-11.19644 15.40315-15.40399c-14.57146-14.24794-28.91171-29.94074-42.32118-46.5279-10.34951 10.99826-20.94462 20.54657-30.96383 27.57864 4.96641 11.90787 3.33522 26.67582-9.95145 39.96418l-20.03586-20.06212-41.20917 41.20916-11.19644-11.19644 41.18291-41.18122-20.00876-20.03501c13.39168-13.39 29.66463-14.29367 42.4262-8.20508 10.16572-9.82441 20.7583-20.70494 31.36358-32.23592-10.18435-14.29367-19.47943-29.02774-27.49818-43.90833-19.73944-36.62981-18.40637-55.31312 11.85704-69.73976z" fill="#fff" stroke-width=".846932"/></svg>