<svg height="512" viewBox="0 0 512 512" width="512" xmlns="http://www.w3.org/2000/svg"><circle cx="256" cy="256" r="246" stroke="#fff" stroke-width="10"/><g fill="#fff"><path d="m255.41198 24.16008c-63.8015-.0037-131.4124 30.859985-175.0586 77.39648-37.7081 40.20515-58.831 100.1206-57.0449 155.21289 1.6677 51.43897 25.7001 105.2246 62.5371 141.16602 43.784 42.71955 108.46311 67.28437 169.5664 70.1797 57.61416 2.73 119.56631-15.77387 165.42443-50.75783 28.76775-21.94616 45.94926-57.60106 58.13111-91.67187 10.21891-28.58076 15.53893-60.36673 11.04806-90.38535-7.21677-48.23947-24.95576-99.24135-59.4844-133.69278-45.18289-45.081862-111.2923-77.443603-175.1192-77.44726zm0 43.600825c29.6668-3.013168 60.2522 7.027898 87.2782 19.629218 26.9102 12.547317 51.247 31.692357 70.8371 54.004337 12.8631 14.6503 22.0072 32.56664 29.1446 50.70906 7.0472 17.91301 11.4943 37.06757 13.0521 56.25383 1.8465 22.74304 2.10936 46.46872-4.5119 68.30481-9.01079 29.71646-21.48874 62.33418-46.51981 80.711-39.57555 29.0548-95.2849 39.59771-143.78109 31.94753-58.31077-9.19841-116.35019-43.22142-152.6593-89.76608-19.962436-25.58985-29.16753-61.00859-27.4434-93.41795 2.346661-44.11141 19.894-90.74205 50.6316-122.46777 31.5434-32.557397 78.8721-51.327339 123.9719-55.907985z"/><path d="m264.71491 86.021531c-24.1451-.07349-48.8494 5.003409-70.8982 14.844229-22.0595 9.84563-42.535 24.6845-58.4221 42.88233-14.2186 16.28674-25.0502 36.19464-30.9707 56.98828-6.3316 22.23766-7.426 46.39337-3.9492 69.25196 2.9534 19.4171 8.8502 39.49993 20.6933 55.16797 25.1521 33.27549 61.6781 59.59164 100.7323 74.24284 38.1385 14.30769 82.6753 21.47791 121.7848 10.08919 30.0715-8.75685 57.9028-30.47005 74.8364-56.81836 15.9858-24.87355 19.0937-56.97949 19.4454-86.54492.277-23.28907-4.9436-46.93212-13.6915-68.51758-8.7515-21.59446-21.7221-41.96265-37.8886-58.74219-15.5284-16.11723-34.5162-29.5196-55.0307-38.46681-20.8299-9.084765-43.9165-14.30777-66.6412-14.376939zm3.483 39.225369c15.9494 1.52977 31.2704 8.13265 45.5025 15.49265 14.7023 7.60315 28.9224 17.02027 40.2292 29.10831 11.6849 12.49225 21.0245 27.5529 27.2411 43.48861 6.6245 16.98138 9.9929 35.52957 10.0208 53.75733.023 15.3007-1.4368 31.46202-8.2735 45.15039-10.0391 20.10013-24.8951 41.07264-45.7068 49.53862-37.9389 15.43317-84.4927 8.25358-122.7015-6.49886-24.852-9.59538-47.2968-28.24885-61.9413-50.50265-10.3169-15.67754-15.602-35.3857-15.4121-54.15235.2505-24.74814 7.9923-50.42353 21.7656-70.98632 13.8078-20.61428 34.7732-37.31679 57.5041-47.26226 15.9596-6.98282 34.4311-8.7967 51.7719-7.13347z"/><path d="m259.12109 120.94141c-52.6324.00098-94.83007 46.10075-94.83007 101.9707 0 28.58899 11.05357 54.61547 28.89648 73.2207-16.02456 2.94754-32.60677 6.82483-48.38672 15.94141-15.18504 8.77287-29.66713 21.212-38.91797 37.85156-14.685796 26.41548-18.57855 56.81218-20.302732 83.47852a246 246 0 0 0 170.419922 68.5957 246 246 0 0 0 173.44531-71.54883c-1.15576-26.66451-2.99329-55.64056-17.08398-82.12109-9.02047-16.9521-23.63827-29.60571-39.09961-38.27735-15.5699-8.73252-31.8256-12.177-47.48242-14.66406 17.43316-18.55092 28.20117-44.26516 28.20117-72.47656 0-55.87619-42.2247-101.97168-94.85938-101.9707z"/></g><path d="m259.12028 135.9401v.002c-43.8447 0-79.83008 38.52941-79.83008 86.9707 0 48.44046 35.98454 86.9707 79.83008 86.9707 43.84723 0 79.85937-38.5294 79.85937-86.9707 0-48.44214-36.01214-86.97265-79.85937-86.97265zm-49.5586 119.3789c11.19302 3.09419 22.25295 5.09614 33.19727 6.08594v15.80859c-12.37169-1.02015-24.84061-3.24517-37.41211-6.71875zm98.95899 0 4.13672 15.20117c-12.18452 3.32014-24.51738 5.54928-36.99024 6.61328v-15.78125c11.03139-1.03105 21.96545-3.06743 32.85352-6.0332zm2.39925 52.98959c-14.86564 10.4625-32.64085 16.57422-51.79883 16.57422-18.89183 0-36.43784-5.94002-51.17187-16.13867-19.73451 3.46228-38.88557 6.63618-55.64453 16.31836-13.36285 7.72014-25.81364 18.66408-33.3125 32.15234-14.72794 26.49127-17.67417 60.12014-19.105471 88.90039 44.002921 36.13366 99.177561 55.88459 156.115231 55.88477 58.23371-.00021 114.57911-20.65894 159.01172-58.30078-1.44239-30.27065-1.84255-61.91449-15.89453-88.32227-7.24609-13.61753-19.74149-24.69648-33.19531-32.24218-16.61234-9.31719-35.5128-11.91075-55.00391-14.82618z"/></svg>