<svg height="512" viewBox="0 0 512 512" width="512" xmlns="http://www.w3.org/2000/svg" xmlns:xlink="http://www.w3.org/1999/xlink"><filter id="a" height="1.000038" width="1.000038" x="-.000019" y="-.000019"><feFlood flood-color="#fff" result="flood"/><feComposite in="flood" in2="SourceGraphic" operator="atop" result="composite"/><feOffset dx="0" dy="0" result="offset"/><feComposite in="SourceGraphic" in2="offset" operator="over"/><feGaussianBlur stdDeviation=".0027879689"/></filter><circle cx="-186.52065" cy="310.29349" r="246" stroke="#fff" stroke-width="10" transform="matrix(-.9703401 .24174384 .24174384 .9703401 0 0)"/><path d="m107.5361 81.704071 1.4805 22.847659-21.216795 8.60742 22.191395 5.65625 1.5996 22.83203 12.2558-19.35156 22.2247 5.49609-14.6231-17.59961 12.1035-19.457029-21.2715 8.46484zm282.4551.35937-7.127 12.51172-14.1211-2.83984 9.6797 10.664059-7.0547 12.53711 13.127-5.91211 9.7676 10.5918-1.5996-14.3125 13.0878-5.999999-14.0957-2.93555zm-171.4707 22.927739s134.2549 8.24036 139.2949 31.56836c.992 4.576-4.48 14.88932-14.832 21.94532-24.856 16.936-67.2075 27.63951-112.8555 34.10351-42.584 6.032-93.088 5.03246-102.584-3.93554 7.132-3.25419 26.0319-2.08207 34.1035-1.60157 2.6514-2.763 8.8258-8.87299 12.1992-11.19922-17.0079-1.936-56.3103-4.66501-58.0703 9.95899-3.032 25.168 55.4626 24.50437 116.4786 14.98437 64.24-10.024 131.0891-33.57567 129.9531-64.26367-1.056-28.608-143.6875-31.56055-143.6875-31.56055zm-56.8731 82.08008c0 .002-.01.006-.01.008l.024-.008c0-.00027-.011.00027-.016 0zm228.5196-41.93554 5.4238 22.24023-19.3359 12.18359 22.832 1.67969 5.6015 22.20117 8.6719-21.20117 22.8399 1.5293-17.4883-14.77735 8.5117-21.25585-19.4551 12.06445zm-159.1758 26.24804c-2.8736-.0181-5.7514.11038-8.6231.38477l-.025.008c-3.008.36-17.071 1.32788-34.039 11.67188 21.496-.552 57.9429-5.504 68.1269-8-8.2404-2.6441-16.8187-4.01008-25.4394-4.06446zm66.1836 27.69531c-20.424 7.55201-96.0235 23.21691-141.1035 20.12891-2.856 4.336-8.7278 19.67116-9.9278 25.53516l-.023.008c56 1.4 137.695 1.29608 183.543-3.91992-6.32-13.08-20.3203-31.15194-32.4883-41.75196zm20.9043 2.76954c4.7877 5.35844 9.2136 11.02825 13.248 16.97461 19.816 5.952 34.5286 12.35195 42.6406 18.75195 2.912 2.304 3.6967 3.72955 3.8887 4.18555-.656.968-5.2479 5.83117-32.5039 9.95117-18.152 2.736-43.0816 4.6555-74.0976 5.6875-20.248.68-41.0318.91211-60.3438.91211-33.392 0-96.9668-.9668-96.9668-.9668v12.79883s63.431.96875 96.959.96875c19.736 0 41.0089-.24131 61.7129-.94531 96.928-3.296 113.727-14.08685 117.375-24.21485 2.76-7.744-2.8955-14.28764-8.1035-18.43164-11.104-8.736-30.9676-16.96122-59.1035-24.44922-1.5041-.424-3.1051-.81465-4.7051-1.22265zm25.9199 75.93554c-18.312 2.48-41.5986 4.1836-70.9746 5.1836-18.64.632-39.5445.95312-62.1445.95312-28.456 0-53.8158-.50505-69.5118-.87304.1377 15.86167 2.5343 31.62339 7.1192 46.80859 17.936 59.904 65.0323 100.43945 111.9043 100.43945 7.7162.006 15.3912-1.11482 22.7832-3.32812 52-15.568 78.4722-81.5676 60.8242-149.1836zm-62.1367 8.29102c11.5668.0347 21.4548 8.82611 22.6133 20.58594 1.2359 12.54235-7.929 23.71229-20.4727 24.94726-1.9594.19209-3.8861.13321-5.7461-.1543-10.0443-1.5558-18.1588-9.73565-19.2012-20.31835-1.2351-12.54296 7.9303-23.71328 20.4727-24.94922.7839-.0772 1.5629-.11365 2.334-.11133zm-77.8223 13.10547c15.9379.0477 29.5644 12.16061 31.1602 28.36328 1.7028 17.28297-10.9262 32.67483-28.209 34.37695-2.7001.26495-5.3557.18378-7.918-.21289v-.002c-13.841-2.14347-25.0219-13.41243-26.457-27.99414-1.7036-17.28309 10.9249-32.67472 28.207-34.37696 1.0802-.10642 2.1543-.15747 3.2168-.15429zm3.1133 14.1914c-4.5204.17282-8.4497 3.49698-9.2149 8.13282-.8744 5.2981 2.7142 10.30496 8.0137 11.17968 5.2996.87473 10.305-2.71215 11.1797-8.01171.8745-5.29811-2.7141-10.30106-8.0137-11.17579-.6624-.10934-1.319-.14968-1.9648-.125z" fill="#fff" filter="url(#a)" stroke-width=".8" transform="matrix(-.9703401 .24174384 .24174384 .9703401 442.52064 -54.29349)"/></svg>