<svg height="512" viewBox="0 0 512 512" width="512" xmlns="http://www.w3.org/2000/svg"><circle cx="256" cy="256" r="246" stroke="#fff" stroke-width="10"/><path d="m255.29102 14.179688a241.47211 241.47211 0 0 0 -90.38086 17.699218h181.48632a241.47211 241.47211 0 0 0 -90.74414-17.699218 241.47211 241.47211 0 0 0 -.36132 0zm-1.67579 31.912109-123.77929 6.806641 30.71484 69.900392 100.10547-3.67188zm118.26954.285156-94.79883.541016 3.06054 73.431641 98.7793-.91797zm23.23437 12.152344-.47852 45.187503 16.02149 21.93945 46.27344-3.39844a241.47211 241.47211 0 0 0 -61.81641-63.728513zm-289.89648 8.232422a241.47211 241.47211 0 0 0 -50.982426 55.691401l32.583985-1.08203zm12.16211 9.689453-17.958989 50.837888 41.939449-1.01953-8.36523-34.716796zm335.72656 60.736328-99.28906 10.91797-6.63086 65.41211 112.96093-3.26563zm-248.78321.71484-4.08203 77.04297 128.67774-3.97851 7.14453-72.55469zm-148.302729 2.75391-3.978516 77.04297 128.707035-3.97852-7.04102-73.06445zm-22.480469 20.25a241.47211 241.47211 0 0 0 -16.076172 55.03125l21.3125-.6875zm444.332028.27734-2.62109 49.47657 17.55078-.46875a241.47211 241.47211 0 0 0 -14.92969-49.00782zm-180.07617 67.02735-22.04101 44.69726 2.14257 42.85742 131.33008-1.93945-7.75586-81.32812zm-41.02148 1.42773-129.80274 6.125 8.16406 70.91992 127.25 6.73633zm239.26953 3.25781-65.69141 2.86719-7.6543 77.34961 68.61133-4.82226a241.47211 241.47211 0 0 0 5.8086-52.63868 241.47211 241.47211 0 0 0 -1.07422-22.75586zm-481.357424 7.04883a241.47211 241.47211 0 0 0 -.511718 15.70703 241.47211 241.47211 0 0 0 5.505859 51.26172l97.087893-2.98437-7.04102-63.98438zm472.744144 83.41211-112.1836 10.16406-3.36718 66.33008 79.13085-2.27929a241.47211 241.47211 0 0 0 36.41993-74.21485zm-424.910159 3.63477-37.078125 1.55859a241.47211 241.47211 0 0 0 38.261718 73.61719l2.81836-.07227zm18.205078 0 4.060547 69.89843 141.476564 9.79688-3.0625-79.69531zm164.517581 4.38672-5.61328 70.41015 109.69921 5.50977-1.02148-75.00195zm189.1914 82.75781-.21484 4.05859a241.47211 241.47211 0 0 0 3.55859-4zm-10.00195 1.22461-39.79883 3.67383 23.41016 23.92382a241.47211 241.47211 0 0 0 9.125-7.80859zm-154.59766 2.14258-113.57617 1.53125 2.79688 57.92773a241.47211 241.47211 0 0 0 47.3164 15.08008l70.50391-1.47461zm-174.863278 3.77734-8.617187 6.55664a241.47211 241.47211 0 0 0 56.128905 41.12695v-45.13281zm278.132818.61133-73.67579 6.01953-9.08203 63.37109 17.71094.08399a241.47211 241.47211 0 0 0 90.91406-41.38086z" fill="#fff"/></svg>