<svg height="512" viewBox="0 0 512 512" width="512" xmlns="http://www.w3.org/2000/svg"><circle cx="256" cy="256" r="246" stroke="#fff" stroke-width="10"/><path d="m309.84 67.176c-48.32.504-89.92 41.744-87.2 95.304l11.36-10.72 10.24 10.88-19.04 18.08c1.76 7.36 4.32 14.88 7.84 22.56-42.88-18.24-53.6-32.08-89.52-75.28-7.52-8.984-15.136-12.384-21.992-12.904-.856-.08-1.712-.08-2.552-.08-5.888.192-11.304 2.576-15.48 6.424-4.768 4.4-7.768 10.64-7.816 17.36-.08 6.72 2.688 14.4 10.84 22.16 19.632 18.8 42.2 37.76 59.32 56.96 9.36 10.48 17.36 21.2 22.08 32.24 12.8 3.36 25.6 6.8 38.4 10.16l1.2 4c3.44 11.36 1.92 25.36-9.76 36.64l-3.12 2.96c-9.76-2.64-19.6-5.2-29.44-7.84-3.6 6.48-8.24 12-13.28 16.8-9.12 8.72-19.44 15.52-28.96 23.2-18.928 15.28-34.736 32.24-33.264 73.76.92 25.76 20.336 36.64 36.784 35.6 8.24-.48 15.2-3.92 19.2-10.08 4-6.24 5.76-15.92.72-30.8-4.4-13.28 2.32-26.8 12.24-36.16 10-9.36 24.32-15.52 38.88-12.24 8 1.76 12.96 8.56 15.52 15.28s3.84 14.24 5.52 22c3.28 15.52 7.6 30.96 20.16 40 24.32 17.36 49.04 14.56 59.92 5.28 5.44-4.64 7.76-10.24 6.4-17.68-1.36-7.36-7.28-17.2-21.04-27.6-15.76-11.92-19.2-33.28-17.76-53.68 1.52-20.4 7.92-40.8 16.24-54.24 5.04-8.08 13.84-10.96 23.52-13.44 9.6-2.56 20.8-4.48 32.4-7.44 23.12-5.92 46.8-15.44 61.04-40.48 6.96-12.32 8.64-22.4 7.44-29.68-1.12-7.28-4.8-12.08-10-14.96-10.4-5.68-28.64-3.36-43.68 16.8-10.96 14.56-31.6 21.28-55.36 22.88-7.2.48-14.8.48-22.48-.08 1.92-1.2 3.92-2.48 5.92-3.84l.08-24.96h14.88v12.72c25.2-23.76 44.08-59.52 42.48-95.872 14.48 9.504 24.48 21.704 33.6 38.192 2.72-13.2-.16-26.056-6.48-38.392 12.96 5.36 22.88 13.688 33.12 21.68-3.84-16.056-11.76-26.504-23.6-34.592 13.36 1.072 20.88 4.192 32.64 10.192-8.8-19.944-44.16-40.28-78.64-28.168-13.36-5.232-27.2-8.928-39.52-8.904zm-27.68 43.472c8.8 0 15.84 7.096 15.84 15.848 0 8.784-7.04 15.904-15.84 15.904-8.72 0-15.84-7.12-15.84-15.904 0-8.752 7.12-15.848 15.84-15.848zm35.76 26.472c8.72 0 15.84 7.12 15.84 15.84 0 8.8-7.12 15.84-15.84 15.84-8.8 0-15.84-7.04-15.84-15.84 1.84-9.04 5.2-15.6 15.84-15.84zm-64.08 32.56 12 9.04-16.8 22.16-11.92-9.04c5.6-7.36 11.2-14.8 16.72-22.16zm22.48 13.44 14.24 4.56-8.08 25.28-14.24-4.56c2.64-8.4 5.44-16.88 8.08-25.28zm-191.272 31.76c-13.536 16.16-15.84 35.6-14.4 57.68l24.304-13.68 2.648-1.44 2.928.72 109.632 29.04c4.4-5.2 4.96-9.52 4-14.56l-109.584-29.12-2.952-.72-1.552-2.64c-4.992-8.48-10.032-16.88-15.024-25.28zm227.112 84.16c-2 4.16-3.92 8.96-5.52 14.24l76.72 20.32c15.36 1.92 30.8 2.96 46.16 4.72l-41.36-18.24c-27.28-7.84-53.76-15.12-76-21.04z" fill="#fff" stroke-width=".8"/></svg>