<svg height="512" viewBox="0 0 512 512" width="512" xmlns="http://www.w3.org/2000/svg"><circle cx="256" cy="256" r="246" stroke="#fff" stroke-width="10"/><g fill="#fff" stroke-width="1.35444" transform="matrix(.73830983 0 0 .73830983 58.794809 66.992559)"><path d="m256.27734 0a256.17498 256.17498 0 0 0 -38.88281 2.9296875 237.87675 237.87675 0 0 1 112.5918 79.7968745 237.87675 237.87675 0 0 1 39.40234 76.041018c32.78542 7.19978 65.73096 18.4235 98.02344 33.78906l15.55469 7.40234-6.70899 15.86329c-30.41965 71.91974-83.62912 143.27109-162.25781 177.1289-.15876.0684-.31956.13314-.47852.20117a237.87675 237.87675 0 0 1 -25.9121 23.30274 237.87675 237.87675 0 0 1 -182.0918 46.73828 256.17498 256.17498 0 0 0 307.18945-4.76758 256.17498 256.17498 0 0 0 45.63672-359.400389 256.17498 256.17498 0 0 0 -202.06641-99.025391z" stroke-width="1.35444"/><path d="m315.36964 168.54293c-21.4029 101.77521-65.39647 194.19762-93.07767 191.67205-12.99839-1.5124-24.95334-60.09015-30.40059-127.16927 7.7387 2.23238 16.46092 2.99273 25.22049 2.19856 26.48873-2.44385 46.74592-18.20318 45.24525-35.19909-1.50246-16.99506-24.19244-28.79007-50.68001-26.34516-8.59524.80387-16.89717 3.07494-24.03708 6.57557-74.73735 22.22641-135.506222 72.12513-165.433215 147.66106 234.101845 150.36499 379.205795 18.63099 437.472195-119.12551-47.72031-22.70651-96.8087-35.99271-144.31174-40.26599z"/></g></svg>