<svg height="512" viewBox="0 0 512 512" width="512" xmlns="http://www.w3.org/2000/svg"><circle cx="256" cy="256" r="246" stroke="#fff" stroke-width="10"/><path d="m305.5957 15.085938c-8.42698 7.675164-17.20721 16.289188-26.5039 26.263671-54.72355 60.578941-82.68558 140.813521-78.30078 221.089841-.0837 1.3896-.14063 2.78201-.14063 4.19141 0 13.33349 3.82456 25.7859 10.40625 36.36719-42.69596-34.12167-75.38941-81.74706-90.5625-138.375-9.96375-37.18199-10.88124-74.394623-4.90234-110.025394a246 246 0 0 0 -82.785159 98.156254c2.246671 8.9478 5.405845 17.55518 10.0625 25.45312 43.606509 73.95904 119.513679 135.98262 206.183589 154.375 6.5583 2.0727 13.53082 3.20703 20.75782 3.20703 6.07229 0 11.95837-.79594 17.57617-2.27734-42.79226 30.17247-95.0013 47.83984-151.36914 47.83984-33.09297 0-63.258756-7.91679-93.148439-18.30664-3.121407-1.08502-6.637775-2.54086-10.201172-4.05078a246 246 0 0 0 23.02539 38.87695c31.360249 6.28737 61.797671 8.72744 89.943361 6.9668 20.31478-1.2717 38.89283-4.22957 56.75781-9.47656-30.41295 22.21757-68.83588 36.1705-112.226561 41.8164a246 246 0 0 0 30.601561 24.09961c92.86113-18.79159 169.8365-80.47751 210.66211-163.36914.1566-.3213.32282-.63663.47852-.95703.2124-.432.41664-.85842.61914-1.29492-.0414.3753-.06813.7515-.11133 1.125-6.52949 56.31294-31.46888 110.33216-74.64453 153.50781-6.9273 6.9264-13.4919 14.07665-21.54492 19.4336-11.33042 7.53709-28.46695 15.95995-44.79297 23.34375a246 246 0 0 0 64.56445 8.93359 246 246 0 0 0 63.21875-8.64062l11.14453-23.63672c25.49698-51.76255 33.91868-108.437 26.21289-162.64844-2.9556-20.78368-7.77595-40.72457-15.24414-60.46875 43.82165 59.20522 66.58211 131.01884 65.23438 203.19141a246 246 0 0 0 53.33593-56.72852c-23.88071-83.20445-82.36537-151.46161-159.4375-188.36914-.2457-.117-.48387-.24824-.73046-.36524-1.008-.486-2.00392-.94045-3.03711-1.37695-.54-.2502-1.06547-.51496-1.60547-.75976.0918.0774.1905.14361.2832.22461-3.8916-1.557-7.95099-2.77162-12.15039-3.59961 55.18524-6.993 113.04248 3.54142 164.92383 33.49609 8.00639 4.62149 15.42963 10.01502 23.09179 15.10156 10.02302 6.65381 16.85039 11.33775 29.93165 20.16602a246 246 0 0 0 .82812-11.58594 246 246 0 0 0 -17.0957-89.91211c-4.88784-1.52728-9.51098-2.85179-13.66407-3.85742-19.99893-4.84256-40.69802-6.90008-61.3125-7.17188-60.09294-.7866-119.77042 16.45936-170.26757 49.38672-8.271 4.0284-15.62551 9.68327-21.65821 16.50977 21.61348-51.27565 59.59032-96.30435 111.32227-126.169924 25.84951-14.92437 53.26127-24.796779 81.08398-30.234375a246 246 0 0 0 -38.01172-25.257812c-2.76976.602658-5.48157 1.264197-8.05664 2.05664-38.58355 11.873595-71.51182 39.314173-100.15429 68.089841 14.70598-24.776972 32.57079-47.461861 52.73437-68.089841l20.14649-17.566406a246 246 0 0 0 -31.47071-8.697265zm-35.78515 199.232422c29.00067 0 52.33984 23.31183 52.33984 52.3125 0 28.99977-23.33917 52.3418-52.33984 52.3418-10.74419 0-20.70636-3.21271-28.99805-8.72071 5.58179 2.8512 11.90549 4.47266 18.64648 4.47266 23.10298 0 41.79387-18.72304 41.79297-41.82422.003-20.78638-14.85864-37.98132-34.73242-41.22851 9.02699 6.09929 15.30078 16.55753 15.30078 28.26562 0 18.73168-15.41105 33.58008-34.14453 33.58008-12.47759 0-23.30016-6.63915-29.19336-16.67774-.648-3.30299-1.01367-6.71068-1.01367-10.20898 0-29.00067 23.34113-52.3125 52.3418-52.3125z" fill="#fff"/></svg>