<svg height="512" viewBox="0 0 512 512" width="512" xmlns="http://www.w3.org/2000/svg"><circle cx="256" cy="256" r="246" stroke="#fff" stroke-width="10"/><path d="m256 98.355469c-63.15556.02441-125.99023 43.936391-125.99023 136.259761v170.60743c20.88238 16.03965 37.97499 33.66579 42.42968 56.23046-2.85293-36.17117-3.38891-72.14914 11.87305-108.32031 4.28304 31.33577 6.57741 62.75098 21.86133 94.08594 20.5944-43.36083 48.76695-61.46535 83.1289-58.92969-24.16563 21.10202-45.76709 44.95374-60.80859 77.46094 25.60634-24.56751 54.41216-31.50474 84.57813-33.27734-17.54705 12.40333-33.82094 24.74146-44.05469 40.85351l-13.01758 28.67383c12.75809-.16244 25.31806-1.16484 36.95898-2.79297a246 246 0 0 0 35.03516-7.97851l4.75586-17.90235c5.24134-22.76968-3.8699-44.45599-14.46484-67.44531 22.44428 14.77954 41.56144 32.8655 50.35937 63.17383 2.86757-31.72625-3.12671-59.94237-12.35742-86.94141 10.85199 5.2389 19.42295 12.66348 25.70312 22.26758v-169.76563c0-92.42587-62.83466-136.282539-125.99023-136.259761zm-84.27344 102.246091h93.50196v15.20313h-93.50196v-15.20117zm124.00782 0h45.65624v15.20313h-45.65624v-15.20117zm-124.00782 34.77735h29.69336v15.20117h-29.69336v-15.19922zm58.77539 0h110.89063v15.20117h-110.89063v-15.19922zm-58.79883 32.79297h77.93946v15.20312h-77.93946zm102.75196 0h66.93554v15.20312h-66.93554zm-144.44336 154.18164-.00195.00195c.00066.00127.00128.00263.00195.00391zm0 .00586-.48047 44.64062v.00195c.03851.02311.07291.04338.11133.06641.88175.52847 1.72832 1.02496 2.5625 1.51172a246 246 0 0 0 1.28906.74609 246 246 0 0 0 1.4082.80274 246 246 0 0 0 1.14844.64453 246 246 0 0 0 .00195.00195c5.58658 3.11859 10.20691 5.38948 14.75977 7.60156a246 246 0 0 0 .00977.00391c-3.77268-17.55384-12.1874-39.52345-20.81055-56.02148z" fill="#fff"/></svg>