<svg height="512" viewBox="0 0 512 512" width="512" xmlns="http://www.w3.org/2000/svg"><circle cx="256" cy="256" r="246" stroke="#fff" stroke-width="10"/><path d="m419.64844 72.285156-346.781252 347.880864 19.666015 19.66601 346.781247-347.880858zm-181.5293-1.615234c-.87249.0099-1.73932.03308-2.60352.06445-24.19942.881235-44.28874 10.224742-60.39843 25.267578-18.41357 17.191687-31.38636 42.114957-37.1211 70.205077-9.08562 44.50771-.0301 96.33501 32.36133 137.03711l111.64649-112c-.89096-.50362-1.78153-.99234-2.67188-1.44726-9.6622-4.93958-18.86034-6.95038-27.79101-5.12696-8.93247 1.82343-18.30669 7.51641-28.15625 20.5332a8.0711674 8.0711674 0 1 1 -12.88672-9.7207c11.5179-15.22213 24.43774-23.88262 37.82031-26.61328 3.34564-.68311 6.67559-.99487 9.97461-.98047 9.89708.0439 19.49933 2.99901 28.37891 7.53516 2.40384 1.22844 4.76488 2.58156 7.09179 4.02148l12.26367-12.30078c-5.60167-7.02078-11.77937-12.87754-18.29101-17.54883-31.62671-22.69065-70.54646-19.14341-93.54102 11.14844a8.0696392 8.0696392 0 1 1 -12.86133-9.75c15.79503-20.80627 38.54617-31.33728 62.13868-31.76758 1.14659-.0215 2.29603-.0269 3.44531 0 17.25085.40162 34.79856 6.18637 50.23047 17.25782 7.31186 5.2458 14.15271 11.65352 20.33594 19.16601l28.57031-28.66016c-21.55001-32.251016-54.06231-53.21132-99.92188-56.089836-1.81088-.113851-3.60926-.193967-5.3789-.222657-.88482-.01435-1.76228-.01767-2.63477-.0078zm131.49414 110.324218-26.28125 26.36719c7.25703 26.7895 8.92153 59.38773 2.39258 97.49023a8.0682673 8.0682673 0 0 1 -8.4043 6.69727c-12.37493-.67953-19.9361 1.96154-24.40234 5.43359-4.46533 3.47294-6.47271 7.99435-6.83399 13.61524-.72166 11.24447 7.3874 25.5245 17.64844 29.86523a8.077232 8.077232 0 0 1 -6.30078 14.87305c-17.93396-7.58418-28.65906-27.03983-27.45508-45.77344.60063-9.36816 4.72045-18.86797 13.02539-25.32617 6.86072-5.33582 16.26372-8.26286 27.76367-8.71289 3.11167-21.0277 3.54681-39.91379 1.90626-56.70117-2.9765-3.59801-6.18051-7.37744-9.54493-11.19336l-112.53906 112.89648c28.1673 24.17909 41.23754 50.44441 51.20508 70.19531 5.53125 10.96029 10.23554 19.79359 15.29883 25.35352 5.06059 5.56173 9.85997 8.40634 19.04882 8.96484 8.88048.54147 22.45041-4.58755 32.80469-15.09961 10.35518-10.51385 17.74402-25.74765 16.5293-45.4414l-.33399-5.37891 4.50782-2.99805c5.44519-3.6128 13.57711-14.44051 18.46289-27.59179 4.88579-13.15397 6.91084-28.47832 3.83594-41.21094l-1.25977-5.12695 1.56836-1.56836c7.54414-41.83707 6.70688-83.60424-2.64258-119.62891z" fill="#fff"/></svg>