<svg height="512" viewBox="0 0 512 512" width="512" xmlns="http://www.w3.org/2000/svg"><circle cx="256" cy="256" r="246" stroke="#fff" stroke-width="10"/><path d="m256 43.6c-57.6 86.4-115.2 79.2-172.8 93.6 0 230.4 57.6 288 172.8 331.2 115.2-43.2 172.8-100.8 172.8-331.2-57.6-14.4-115.2-7.2-172.8-93.6zm0 28.8a8.1 8.1 0 1 1 0 16.2 8.1 8.1 0 0 1 0-16.2zm.2619 27.1368a242.253 242.253 0 0 0 12.456 12.735c31.4541 31.8465 74.6694 41.2983 117.6165 50.7852 2.4588 1.0656 5.958.4572 7.9776 1.7622-2.4147 58.356-4.9698 118.4841-29.0835 172.5714-11.4165 28.314-32.634 51.8418-57.933 68.5296-13.9068 9.7776-29.5623 16.4043-44.8956 23.5035-5.9274 4.1157-12.3273-.4032-18.2178-2.214-39.2832-16.0623-75.9996-43.7571-94.5504-83.0394-26.1585-55.8162-29.6541-118.6407-32.2335-179.4537 51.6807-7.9272 101.3202-25.02 137.1969-63.3762zm-.2619 37.6632-24.7608 61.902c-15.534-3.3417-34.2342-9.567-61.6392-18.702 0 28.8-14.4 43.2-28.8 57.6 0 14.4 57.6 28.8 72 28.8 11.8557-7.9038 20.448-13.6242 27.5814-17.19-4.0104 25.6869-17.9964 79.605-41.9814 103.59 28.8 14.4 43.2 28.8 57.6 43.2 14.4-14.4 28.8-28.8 57.6-43.2-23.985-23.985-37.971-77.9031-41.9814-103.59 7.1334 3.5658 15.7257 9.2862 27.5814 17.19 14.4 0 72-14.4 72-28.8-14.4-14.4-28.8-28.8-28.8-57.6-27.405 9.135-46.1052 15.3612-61.6392 18.702zm-154.8 7.2a8.1 8.1 0 1 1 0 16.2 8.1 8.1 0 0 1 0-16.2zm309.6 0a8.1 8.1 0 1 1 0 16.2 8.1 8.1 0 0 1 0-16.2zm-298.8 135a8.1 8.1 0 1 1 0 16.2 8.1 8.1 0 0 1 0-16.2zm288 0a8.1 8.1 0 1 1 0 16.2 8.1 8.1 0 0 1 0-16.2zm-230.4 115.2a8.1 8.1 0 1 1 0 16.2 8.1 8.1 0 0 1 0-16.2zm172.8 0a8.1 8.1 0 1 1 0 16.2 8.1 8.1 0 0 1 0-16.2zm-86.4 45a8.1 8.1 0 1 1 0 16.2 8.1 8.1 0 0 1 0-16.2z" fill="#fff" stroke-width=".9"/></svg>