<svg height="512" viewBox="0 0 512 512" width="512" xmlns="http://www.w3.org/2000/svg"><circle cx="256" cy="256" r="246" stroke="#fff" stroke-width="10"/><path d="m256 50.6605c-19.4067 0-43.803 1.1016-62.1369 8.4213-18.333 7.3206-30.5631 18.7605-30.5631 44.6787v46.6623a112.806 112.806 0 0 1 17.9892-1.5588c3.0177-.018 6.0237.0927 9.0108.3195v-34.623c0-14.4 10.0674-25.3395 22.4775-31.545 12.4092-6.2037 27.81-8.955 43.2225-8.955s30.8133 2.7513 43.2225 8.955c12.411 6.2055 22.4775 17.1459 22.4775 31.5459v34.6302a112.122 112.122 0 0 1 27 1.2393v-46.6704c0-25.9182-12.2301-37.359-30.5631-44.6787s-42.7302-8.4213-62.1369-8.4213zm-74.808 114.3837c-6.8184.0603-13.7466.8568-20.5974 2.4138-36.5382 8.3043-69.2946 36.8766-69.2946 91.1025 0 38.7 33.948 80.9766 73.0917 118.341 19.5723 18.6822 40.176 36.1557 57.825 51.768 13.5891 12.0204 25.3116 22.7313 33.7833 32.67 8.4717-9.9387 20.1942-20.6496 33.7833-32.67 17.649-15.6123 38.2527-33.0858 57.825-51.768 39.1437-37.3644 73.0917-79.641 73.0917-118.341 0-54.225-32.7564-82.7982-69.2946-91.1025s-75.2832 5.004-87.885 36.5103l-7.5204 18.7992-7.5195-18.7992c-10.2393-25.5987-37.7379-39.1833-67.2876-38.9241zm74.808 71.9163a40.0392 40.0392 0 0 1 40.0392 40.0392 40.0392 40.0392 0 0 1 -14.8392 31.0887l14.8392 89.0298h-80.0784l14.841-89.0424a40.0392 40.0392 0 0 1 -14.841-31.0761 40.0392 40.0392 0 0 1 40.0392-40.0392z" fill="#fff" stroke-width=".9"/></svg>