<svg height="512" viewBox="0 0 512 512" width="512" xmlns="http://www.w3.org/2000/svg"><circle cx="256" cy="256" r="246" stroke="#fff" stroke-width="10"/><path d="m255.7 73.2504c-40.8272 0-77.744 16.544-104.424 43.2992l41.848 47.376c17.4304-13.1744 39.12-21 62.6-21 2.5464 0 5.076.0936 7.576.2744l10.1-68.9c-5.8024-.6928-11.7088-1.0504-17.7-1.0504zm32.4504 3.6-10.0256 68.5248c16.576 3.648 31.664 11.244 44.2504 21.7744l43.9736-43.976c-20.168-22.8848-47.356-39.4112-78.2-46.3248zm-146.9264 50.8984c-18.2912 22.5168-30.096 50.536-32.4992 81.2256l47.0504 9.124c4.8992-16.952 13.9952-32.14 26.0992-44.3504l-40.6504-46zm234.476 7.2256-42.576 42.5744c16.54 18.424 26.6264 42.7488 26.6264 69.4 0 3.6104-.1896 7.1824-.5504 10.7l37.176 7.224c4.3664-13.9472 6.724-28.7976 6.724-44.2 0-31.9784-10.148-61.5584-27.4-85.6992zm-119.976 22.8992c-49.28 0-89.0744 39.7952-89.0744 89.0752s39.7952 89.0744 89.0752 89.0744 89.0752-39.792 89.0752-89.0736-39.7952-89.0752-89.0752-89.0752zm-6.3744 24.4496c-1.84 3.8264-2.8744 8.096-2.8744 12.624 0 16.1344 13.0672 29.2264 29.2 29.2264 13.9096 0 25.556-9.7312 28.5-22.752 8.928 10.2616 14.3488 23.6576 14.3488 38.3256 0 32.2664-26.16 58.4256-58.424 58.4256-32.2664 0-58.4256-26.16-58.4256-58.4264 0-28.592 20.5456-52.376 47.6752-57.424zm-141.024 41.8c.9792 42.7056 20.0752 80.888 49.8992 107.176l17.7008-17.7008c-15.1144-18.064-24.224-41.308-24.224-66.6504 0-4.8176.336-9.5544.9744-14.2l-44.3504-8.624zm148.8496 12.7504c-10.488 0-19 8.488-19 18.976 0 10.4856 8.512 19 19 19 10.4856-.002 18.9736-8.5144 18.9736-19.0016 0-10.4864-8.488-18.9744-18.9744-18.9744zm99.424 35.5c-4.5184 17.924-13.6992 33.9904-26.176 46.8736l15.776 17.8504c19.464-15.144 35.0056-35.072 44.9-58.024l-34.5-6.7008zm-170.2752 51.9736-16.324 16.328c17.688 12.64 38.2928 21.46 60.624 25.2752l2.552-17.4504c-17.7464-3.936-33.776-12.4128-46.8512-24.1504zm132.976 4.8752c-17.5936 13.6264-39.652 21.752-63.576 21.752-2.5952 0-5.176-.088-7.7248-.276l-2.5 17.024c3.3712.2304 6.7704.352 10.2.352 28.724 0 55.504-8.208 78.1504-22.376l-14.5504-16.4752zm50.3744 7c-7.76 7.656-16.2864 14.5216-25.4504 20.5008 7.672 24.868 4.288 46.7952-.448 68.3248 21.0696-27.072 36.6696-55.1792 25.8992-88.824zm-227.9.076c-10.7248 33.6128 4.8696 61.6976 25.924 88.7504-4.732-21.508-8.0984-43.4136-.4504-68.2504-9.1744-5.976-17.7056-12.8464-25.4744-20.5zm190.0992 27.7504c-8.4432 4.5-17.328 8.256-26.576 11.224 5.82 24.7224 4.6832 46.5576 1.9504 66.5008 17.2424-22.2464 27.3632-47.8616 24.6256-77.7264zm-152.2752.024c-2.7296 29.8544 7.388 55.4616 24.624 77.7008-2.7304-19.9376-3.8624-41.7648 1.952-66.476-9.2496-2.9648-18.128-6.728-26.576-11.224zm111.8 15c-8.2048 1.8456-16.6544 3.0528-25.2752 3.6 4.0352 23.8056 5.104 47.2112 4.224 70.3504 9.8368-23.8504 17.7648-48.2448 21.0512-73.9488zm-71.3.0256c3.288 25.6944 11.192 50.0824 21.024 73.9248-.8784-23.1312.212-46.528 4.2512-70.324-8.6216-.5424-17.0696-1.76-25.276-3.6z" fill="#fff" stroke-width=".8"/></svg>