<svg height="512" viewBox="0 0 512 512" width="512" xmlns="http://www.w3.org/2000/svg"><circle cx="256" cy="256" r="246" stroke="#fff" stroke-width="10"/><path d="m240.89518 96.12709a94.259916 94.259916 0 0 0 -94.25992 94.12919 94.259916 94.259916 0 0 0 12.3453 46.76686l8.85955-13.87029 9.51314 5.51907 2.17858-4.93811a23.564978 23.564978 0 0 1 -1.52501-8.20599 23.564978 23.564978 0 0 1 23.60129-23.67391 23.564978 23.564978 0 0 1 7.69765 1.37977l6.89884-8.49647 11.18338 3.84883 9.22265-11.76433-1.81548 21.64056-10.38457-.79881-1.30715 8.20599a23.564978 23.564978 0 0 1 2.03335 9.65837 23.564978 23.564978 0 0 1 -23.52867 23.60129 23.564978 23.564978 0 0 1 -14.37863-4.93812l-9.65838 3.55835-7.04407-4.93811-11.47385 4.28454a94.259916 94.259916 0 0 0 9.94884 14.08815l-6.68098 33.55014c4.06668.58095 8.06075 1.08929 11.98219 1.59763 1.52501 9.36789 5.08336 19.31674 11.6191 29.70131 1.37977-8.13337 3.19526-16.55721 9.51313-27.52274 30.79061 2.68692 60.05621 2.68692 90.8468 0 6.31789 10.96553 8.13338 19.38937 9.51314 27.52274 6.53574-10.38457 10.09409-20.33342 11.6191-29.70131 3.92145-.50834 7.91551-1.01668 11.98219-1.59763l-6.60836-33.47752a94.259916 94.259916 0 0 0 22.29414-61.00026 94.259916 94.259916 0 0 0 -49.52639-82.87319l-6.17265.8206 12.70838 12.35255-24.98105 15.38077 10.82028-16.75328-12.99886-11.52469 5.88216-6.58657a94.259916 94.259916 0 0 0 -29.91916-4.94538zm39.21444 95.79945a23.564978 23.564978 0 0 1 23.60129 23.60128 23.564978 23.564978 0 0 1 -23.60129 23.52866 23.564978 23.564978 0 0 1 -23.52866-23.52866 23.564978 23.564978 0 0 1 23.52866-23.60128zm-39.21444 49.01805 11.76433 35.43825h-23.60129zm-101.73971 52.57641v62.88835h15.68578v-62.88835zm-47.12996 7.69765v47.20257h7.83563v-16.33935h26.22284v-14.23339h-26.22284v-16.62983zm109.72784 4.42978c-1.45239 4.21192-2.17858 8.13337-2.90478 12.56315l-4.42977 26.07035h25.12629c2.54168-6.82622 6.31788-13.14411 10.74766-19.38937l10.60243-14.81435 10.60242 14.81435c4.5024 6.24526 8.20598 12.56315 10.74767 19.38937h25.05367l-4.42978-26.07035c-.72619-4.42978-1.45239-8.35123-2.90477-12.56315zm118.00644 3.55835v31.5168h10.23933l1.52501-1.52501v-28.46679l-1.59763-1.525zm-151.84706.79881v34.27634h20.33342l-13.36196-21.27748c-2.75953-4.35716-5.08335-8.71432-6.97146-12.99886zm176.68288 7.84289v14.23339h61.5812l-16.92031-14.23339zm-37.9073 5.37384-13.21672 21.05961h13.21672zm-65.79313 9.29527c-7.4798 10.45718-11.47386 18.15484-11.83696 29.48345-19.8977-.43572-39.72278-1.96072-58.89428-4.57501l7.11669 33.76799c38.85135 6.89884 84.8194 6.89884 127.22909 0l7.04408-33.76799c-19.17151 2.61429-38.99659 4.13929-58.89429 4.57501-.36309-11.32861-4.28454-19.02627-11.76433-29.48345zm165.06377 11.47386c.29048 17.06554-14.01553 21.4227-14.01553 35.72871 0 11.47386 8.27861 15.61316 14.01553 15.61316 5.73693 0 14.01554-4.1393 14.01554-15.61316 0-14.30601-14.01554-18.66317-14.01554-35.72871z" fill="#fff" stroke-width=".999995"/></svg>