<svg height="512" viewBox="0 0 512 512" width="512" xmlns="http://www.w3.org/2000/svg"><circle cx="256" cy="256" r="246" stroke="#fff" stroke-width="10"/><path d="m306.99408 70.79656c-25.37412-.19723-50.31679 7.701991-72.81336 21.920281 13.25911-1.315125 26.91113-.436834 40.36669 3.168779 64.8163 17.36858 102.30158 88.42227 83.39676 158.97519-18.90636 70.55138-87.02163 113.82336-151.83792 96.45555-13.11735-3.5147-25.17535-9.24747-35.79804-16.72989 17.26303 32.18857 44.33055 56.74218 79.2426 66.0952 75.39198 20.203 156.4189-36.63934 180.49638-126.50001 24.07903-89.86067-17.79847-179.125023-93.19123-199.325703-9.93855-2.663377-19.93411-3.980813-29.86188-4.058626zm-77.9059 34.78107c-65.06283.41449-127.71961 52.90313-148.411821 130.12566-24.078255 89.86144 17.673668 179.60115 93.065661 199.80337 34.91281 9.35456 70.62995 1.62561 101.67521-17.61974-12.94092 1.16952-26.2501.10401-39.36667-3.41069-64.81629-17.36858-102.17214-88.89994-83.26656-159.45209 18.90405-70.55137 86.89374-113.34569 151.71081-95.97865 13.45479 3.60561 25.71927 9.67198 36.54381 17.44023-17.21757-32.78181-44.65182-57.33773-79.99222-66.80786v-.002c-10.60112-2.84058-21.31242-4.16649-31.95899-4.09869zm19.8694 73.81646c-39.06852 3.24197-69.63611 35.85197-69.63611 75.77566 0 40.21646 31.01752 73.01367 70.49745 75.84346-9.76444-18.22683-15.97873-46.27435-15.97873-77.30959 0-29.96819 5.88609-56.38778 15.11584-74.3103zm16.38705.37905c3.73504 7.33989 6.90151 16.09968 9.35302 25.90803-10.17199.41834-18.29233 8.79292-18.29233 19.06815 0 10.54256 8.54639 19.08972 19.08895 19.08972 1.55935 0 3.07402-.19261 4.52474-.5447.15871 3.41763.24654 6.88765.24654 10.41005 0 30.84418-6.14033 58.73606-15.80153 76.97137 37.7742-4.47928 66.94808-36.50298 66.94808-75.50601 0-38.70025-28.72164-70.52903-66.06747-75.39661z" fill="#fff" stroke-width=".830701"/></svg>