<svg height="512" viewBox="0 0 512 512" width="512" xmlns="http://www.w3.org/2000/svg"><circle cx="256" cy="256" r="246" stroke="#fff" stroke-width="10"/><path d="m105.30102 80.871387-17.146647 40.200753 7.730346 36.072c12.891571 3.63687 31.022071-.64472 31.535191-12.86242zm60.27957-39.807852-13.19096 62.828385 15.46864 54.43831c10.05219-.61469 19.47115-5.29281 19.83944-14.04851zm60.27868 0-13.46297 62.828385 26.63627 51.89656c5.08703-2.30771 8.71949-6.13977 8.9447-11.50765zm60.27957 0-22.11887 103.218185c.2252 5.36699 3.85766 9.19905 8.94646 11.50764l26.63627-51.89744zm60.27957 0-22.11799 103.218185c.36827 8.7557 9.78723 13.43294 19.84031 14.04763l15.46952-54.43832zm60.28045 39.807852-22.11888 63.410333c.51223 12.21859 18.64362 16.49929 31.53519 12.86242l7.72946-36.072zm-329.997375 62.624313-27.816206 129.80777c.628933 25.14108 55.003481 25.14108 55.632411 0zm71.719205 0-14.79301 66.37518 20.45057 81.58239c11.60479-1.46252 21.84245-7.46893 22.18069-18.04042zm71.71832 0-14.22337 66.37518 32.15604 77.89959c5.73174-3.05575 9.69893-7.8425 9.90735-14.35762zm71.72009 0-27.83825 129.91715c.20843 6.51776 4.1756 11.30275 9.90647 14.3585l32.15604-77.8996zm71.71921 0-27.83737 129.91715c.33737 10.57149 10.5759 16.57878 22.17981 18.0413l20.4497-81.5824zm-234.75417 105.98072-34.372798 160.4049c.777185 31.06711 67.968408 31.06711 68.745588 0zm84.78387 0-34.3728 160.4049c.77719 31.06711 67.96841 31.06711 68.74559 0zm84.78386 0-34.37279 160.4049c.77718 31.06711 67.9684 31.06711 68.7456 0zm84.78388 0-34.37279 160.4049c.77718 31.06711 67.9684 31.06711 68.74558 0zm52.09971-105.87134-27.8162 129.80777c.62893 25.14108 55.00348 25.14108 55.63241 0z" fill="#fff"/></svg>