<svg height="512" viewBox="0 0 512 512" width="512" xmlns="http://www.w3.org/2000/svg"><circle cx="256" cy="256" r="246" stroke="#fff" stroke-width="10"/><path d="m238.2207 43.208984-13.2539 2.341797 11.61132 66.001949 13.25391-2.33398zm74.94727 15.00586c-5.38094 6.854598-7.23627 12.555245-6.9668 17.548828.32841 6.071456 3.76537 12.26092 10.01367 18.787109 9.55771 9.970319 25.1436 19.821969 40.51172 30.044919l-1.68359 11.50196-3.17578.67578-6.95508 1.44726.04492.05078-112.66406 24.42188c-2.2568 4.21043-3.4858 10.76163-2.73633 17.16992.70735 6.11355 3.14933 11.44283 5.89453 14.42383l98.38867-21.26172 4.875 11.57031-87.22461 58.10352c-.27688 3.82539.39211 7.66005 1.94727 11.16601.16842.39577.346.77475.53125 1.16211.57095 1.1695 1.21864 2.2999 1.9375 3.38477 3.23362 4.98516 8.04193 8.78404 11.94922 10.23242l91.24609-61.47265 8.53125 9.33007-71.30664 87.60352c1.13682 3.88202 4.43656 8.73132 9.26172 12.36914 4.98516 3.78098 10.94862 5.84398 15.71484 5.75977l69.19336-83.68555 10.86133 6.47461-35.36719 87.34179c2.38312 3.28414 7.10709 6.61786 12.95118 8.41993 6.0883 1.86943 12.71518 1.86245 17.27929.41406l48.16016-115.85547.04297-.10937c6.09671-15.41022 23.57759-25.14528 47.375-33.00196.53946-.17853 1.09881-.35096 1.65039-.52539a246 246 0 0 0 -42.96484-86.34375c-8.45411 4.50195-17.14102 8.57984-26.03711 12.19336l-.04102.04102c4.84579 3.85104 9.32793 8.13881 13.39063 12.80859 8.32825 9.81874 13.2964 21.41476 11.78906 34.27344l-12.63086-1.47461c1.02736-8.94297-2.00612-16.45441-8.86914-24.54688s-17.61691-16.23402-30.54297-24.64648c-24.41213-15.864938-56.33346-32.774184-84.375-55.796876zm-169.37891 26.634765-8.80859 10.189453 52.26758 45.187498 8.80859-10.18945zm-37.08398 92.890621-.26172 13.47461 59.0625 1.17774.23633-13.51563zm77.44531 46.82618c-19.4235.13373-30.2128 22.53077-18.21289 37.80468l-44.51562 135.83594c-10.09785 2.59311-17.27525 11.53788-17.61915 21.95703-.3439 10.41909 6.22826 19.81453 16.13282 23.06836s20.76795-.41465 26.66992-9.00781c5.90201-8.59322 5.42674-20.05068-1.16602-28.12695l44.38672-135.45704c10.24311-2.4893 17.55244-11.52912 17.8418-22.0664.28937-10.53728-6.51246-19.96402-16.60352-23.01172-2.24159-.67655-4.57265-1.01227-6.91406-.99609zm-172.871093 6.38867a246 246 0 0 0 -.001953.01172l-.615235 43.05859v.00391l95.974611 31.36328c3.85549 1.16411 5.99713 5.27208 4.74414 9.09961-1.25299 3.82752-5.40951 5.87441-9.20703 4.5332l-89.857424-29.35547a246 246 0 0 0 0 .00781l12.828125 48.93946 88.447269 29.01367 30.49218-93.04297zm179.869143 78.42969-19.04883 58.10351 11.9082 3.89844 19.04688-58.10352zm24.70703 8.10156-19.04883 58.10351 11.94141 3.89844 19.04687-58.10351zm24.70703 8.09179-19.04883 58.10352 11.90625 3.89844 19.04883-58.10352zm24.78125 8.0918-19.04687 58.10547 11.90624 3.89649 19.04883-58.10352zm24.64063 8.10156-19.04883 58.10352 11.97461 3.88281 19.04882-58.10547zm24.78124 8.0918-19.04687 58.10547 11.90625 3.89844 19.04883-58.10547zm24.68165 8.09375-19.04688 58.10352 11.90625 3.89843 19.04883-58.10351zm26.85546 1.32031-24.63085 75.17383c21.036 7.73624 44.29262-3.52301 51.27148-24.82226 6.97886-21.29924-5.10537-44.13901-26.64063-50.35157z" fill="#fff"/></svg>