<svg height="512" viewBox="0 0 512 512" width="512" xmlns="http://www.w3.org/2000/svg"><circle cx="256" cy="256" r="246" stroke="#fff" stroke-width="10"/><path d="m389.25555 139.09258c2.71023 11.18053 2.86889 22.03858 1.16214 32.46437-16.80682 13.32813-34.75262 24.77368-51.23096 32.61618l-1.16643-.39196c20.7701-16.47061 39.19534-36.10773 51.23439-64.68859zm-266.51111 0c12.04078 28.58086 30.46515 48.21798 51.23439 64.68859-.39024.13208-.77876.26159-1.16642.39196-16.47748-7.8425-34.42328-19.28719-51.2301-32.61704-1.70676-10.42493-1.54809-21.28298 1.16299-32.46265zm314.78226 9.55182c-1.82511 10.52614-4.42384 22.1132-7.45912 33.44554-19.99047 20.3061-42.21002 28.66491-64.28634 28.66491-1.5215 0-3.19481-.16381-4.99505-.45456 27.3441-15.23901 55.36748-37.30847 76.74051-61.65589zm-363.05341 0c21.373035 24.34828 49.39641 46.41688 76.74052 61.65675-1.80024.28989-3.47355.4537-4.99505.4537-22.07632 0-44.29587-8.35795-64.286349-28.66491-3.03528-11.33234-5.634865-22.9194-7.459121-33.44554zm388.73708 15.33936c-6.06027 30.41969-18.17652 63.44069-37.04774 91.127-28.04224 41.14224-70.13906 97.96003-128.99467 92.94783-13.72265 0-27.44531-54.89062-41.16796-54.89062-13.72266 0-27.44531 54.89062-41.16797 54.89062-58.85561 5.0122-100.95242-51.80645-128.994666-92.94783-18.871224-27.68631-30.98747-60.70731-37.047738-91.127 27.05593 42.97507 62.094154 62.20908 97.429134 62.20908 18.79403 0 33.85808-10.82975 52.86653-15.67813 9.50465-2.42291 18.36177-3.4118 25.76428-1.85513 6.86991 1.44345 17.89263 4.89727 31.15043 12.45073 13.2578-7.5526 24.28052-11.00728 31.15042-12.45073 7.40252-1.55667 16.25963-.56778 25.76429 1.85599 19.00845 4.84752 34.07249 15.67727 52.86653 15.67727 35.33583 0 70.3732-19.23401 97.42913-62.20908zm-126.28616 81.93711c-24.24107-.0738-53.99093 4.43242-53.47204 10.66508 4.98475 59.89424 83.92518 13.72265 84.03067-3.16736.0335-5.25321-13.97309-7.44711-30.55863-7.49772zm-161.84842 0c-16.58555.0506-30.59209 2.24451-30.55864 7.49772.10549 16.89087 79.04592 63.0616 84.03068 3.16736.51888-6.23266-29.23097-10.73884-53.47204-10.66508zm215.52458 92.28228a220.25204 220.25204 0 0 0 12.54765 5.67775c13.87875 5.7781 30.2516 10.87177 48.08847 14.31702-4.4084 1.42115-9.19417 2.75053-14.64035 3.72398-17.07956 3.05244-38.34796 3.96328-59.21497 1.79681-10.67108-1.10724-21.2341-3.03785-31.09983-5.82097 16.26993-4.09193 31.04151-10.90265 44.31817-19.69459zm-269.19989 0c13.27667 8.79194 28.04739 15.60266 44.31817 19.69459-9.86573 2.78312-20.4296 4.71373-31.09982 5.82097-20.86701 2.16647-42.135413 1.25563-59.214115-1.79681-5.447894-.97345-10.231954-2.30283-14.640357-3.72398 17.836021-3.44525 34.208863-8.53892 48.087612-14.31702a220.24861 220.24861 0 0 0 12.54765-5.67775z" fill="#fff" stroke-width=".8"/></svg>