<svg height="512" viewBox="0 0 512 512" width="512" xmlns="http://www.w3.org/2000/svg"><circle cx="256" cy="256" r="246" stroke="#fff" stroke-width="10"/><path d="m374.161 60.8035c-.6093 21.9132-7.335 44.3457-19.9746 64.6506-33.2415 53.4015-99.5598 77.4747-161.037 63.549 3.7962-1.7973 7.4466-3.681 10.8882-5.6628 35.1495-20.25 51.5538-49.9104 48.8808-82.521-6.6483 19.6317-22.167 37.1853-45.2034 50.4603-43.245 24.912-113.177686 26.4276-175.688986 13.1517l-13.931973 30.85291c32.6466 11.871 94.589959 16.54469 131.055259 8.45819 2.889 1.8513 5.8734 3.618 8.982 5.2848 68.868 36.8766 156.771 15.7833 198.1557-46.6695 36.3978 13.2057 92.34897 14.46661 130.60977 11.27071l-16.02177-31.73401c-33.1722 3.2355-67.6764.6966-100.2465-8.1135 8.55-23.9958 9.4374-49.1994 3.5316-72.9792zm27.2385 143.9775c-25.6806 11.0763-53.2512 12.6666-78.6906 9.3195-17.3268 9.5922-37.35 16.74-58.212 21.0537-39.6504 8.199-82.7262 5.9895-116.4834-12.6162l70.623 158.3226c10.1682 11.0268 21.627 22.9554 37.8387 37.17l.1512.135.1458.1386c1.4562 1.4058 2.4102 1.6407 4.6098 1.3995 2.1978-.243 5.3703-1.5048 8.3925-3.6108s5.8788-4.9914 7.758-7.6878c1.0413-1.4922 1.683-2.898 2.0736-3.96l-35.703-34.4628 11.682-12.1005 41.0022 39.5802.002.002c.2025.198.0828.3888 2.0232.005 1.9458-.3852 5.1525-1.827 8.334-4.1013 5.4045-3.8646 10.6263-10.3005 12.8196-14.6538l-35.2692-34.0452 11.682-12.1014 40.5882 39.1797c10.521-2.3616 19.0224-9.7524 22.7133-18.2898l-45-43.4376 11.682-12.1014 95.2317 91.9287c4.5477 4.3893 8.4456 5.5017 11.8098 5.391 3.3633-.1107 6.5016-1.6488 8.865-4.167 4.725-5.0382 6.75-12.5496-1.7865-20.79l-132.048-127.467 11.682-12.1005 20.8593 20.1357c23.2335-2.4597 42.786-8.9037 54.8964-16.5105 6.399-4.0194 10.602-8.334 12.528-11.8674 1.926-3.5307 2.0898-5.859.7155-9.0702-1.0098-2.3517-3.3912-5.3928-7.5177-8.6184z" fill="#fff" stroke-width=".9"/></svg>