<svg height="512" viewBox="0 0 512 512" width="512" xmlns="http://www.w3.org/2000/svg"><circle cx="256" cy="256" r="246" stroke="#fff" stroke-width="10"/><path d="m296.14981 67.613958c-4.16.08-8.48 1.744-12.64 5.08-6.16 4.824-11.52 13.152-14.24 23.664-2.64 10.512002-2 20.959992.88 28.991992 2.88 7.92 7.52 13.12 13.28 15.12 4.8 1.68 10.08 1.04 15.2-2.08 1.84-10.88 7.92-19.424 17.04-25.27999.08-.152.08-.304.16-.464 2.64-10.52 2-20.960002-.88-28.960002-2.88-7.96-7.52-13.168-13.28-15.176-1.84-.624-3.68-.928-5.52-.896zm40.48 54.039992c-7.12-.08-16.08 3.456-22.08 12.496-4.72 23.6-21.36 40.08-45.76 50.08l-5.44-13.28c10.16-4.16 18.08-8.96 24.08-14.88-2.48-.16-5.04-.72-7.52-1.6-8.32-2.96-14.88-9.28-19.28-17.12-11.68 2.24-18.08 5.04-26.24 11.68-3.28 29.2 5.44 54 22.08 77.28 33.36-20.32 58.96-48.4 84.56-79.12 6.56-8.16 8-14.08 7.6-17.52-.48-3.36-2.16-5.384-5.76-6.864-1.76-.728-3.92-1.136-6.24-1.152zm56.57821.0006c-7.12-.08-16.08008 3.45609-22.08008 12.49609-4.34517 21.72584-18.79803 37.41327-40.10156 47.57031-8.93204 9.86698-18.20742 19.37355-28.10938 28.30274 2.93268 5.53025 6.31691 10.95124 10.13086 16.28711 33.36-20.32 58.95859-48.4011 84.55859-79.1211 6.56-8.16 8.00157-14.07953 7.60157-17.51953-.48-3.36-2.16172-5.38328-5.76172-6.86328-1.76-.728-3.91828-1.13634-6.23828-1.15234zm-169.24414 73.32226c-1.18718 18.0734-.46098 37.68588-.69336 58.21289v3.04102l-2.16016 2.08008c-41.832 40.48-75.12113 106.87906-85.95313 183.03906h32.4961c7.296-32.96 13.97595-65.84055 27.75195-92.56055 14.584-28.24 38.26438-49.6 76.98438-54l3.83984-.47851 2.48047 2.95898c30.56 36.56 60.2407 83.12008 68.7207 144.08008h31.67969c-5.04-70.72-37.43969-125.19922-77.67969-183.19922-6.8659-9.87849-7.96369-20.73867-6.14258-31.39844-1.39984-2.22186-2.74219-4.46737-4.01757-6.74218-.006.005-.0118.009-.0176.0137-1.03034.83454-2.06809 1.66316-3.11328 2.48437-.0215.0169-.0429.0339-.0645.0508-.023.0181-.0473.0347-.0703.0527-1.01181.79394-2.03037 1.58225-3.05664 2.36328-.0388.0296-.0764.0603-.11523.0898-.033.0251-.0666.0492-.0996.0742-.97651.74155-1.95917 1.47752-2.94922 2.20703-.13836.102-.2774.20293-.41602.30469-.89609.65745-1.79754 1.30971-2.70508 1.95703-.22938.16371-.45737.32914-.6875.49219-.86206.61043-1.73083 1.21534-2.60351 1.81641-.25793.17775-.51457.35628-.77344.5332-.82634.56442-1.65999 1.12189-2.49609 1.67773-.30975.20602-.61663.41432-.92774.61914-.91308.60086-1.83474 1.19475-2.75976 1.78516-.19242.12285-.38128.2487-.57422.37109-.0228.0145-.0456.0285-.0684.043-1.15738.73341-2.32341 1.45911-3.5 2.17578l-11.90235 7.24805-8.10351-11.33594c-1.0928-1.52886-2.15639-3.07182-3.19141-4.6289-.0243-.0366-.0499-.0727-.0742-.10938-.23415-.35289-.4603-.71011-.6914-1.06445-.29604-.45403-.59577-.90687-.88672-1.36328-.379-.59434-.74889-1.19266-1.11914-1.79102-.11502-.18594-.2335-.3703-.34766-.55664-.48919-.79814-.97005-1.60097-1.44336-2.40625-.47782-.81296-.94692-1.62899-1.4082-2.44922-.45972-.81745-.91059-1.63822-1.35352-2.46289-.002-.003-.002-.007-.004-.01-.41362-.77023-.82009-1.5438-1.21875-2.32032-.0344-.0671-.0692-.13405-.10352-.20117-.42163-.82453-.83385-1.65276-1.23828-2.48437-.38618-.79408-.76263-1.59205-1.13281-2.39258-.0277-.06-.0563-.11963-.084-.17969-.38557-.83707-.76116-1.67737-1.1289-2.52148-.37319-.85661-.73735-1.71623-1.0918-2.58008-.35422-.86328-.69805-1.73106-1.0332-2.60156-.33524-.87074-.66077-1.74508-.97656-2.62305-.3123-.86822-.61528-1.73994-.90821-2.61523-.005-.0143-.009-.0287-.0137-.043-.28681-.85806-.56416-1.71914-.83203-2.58399-.007-.0228-.0144-.0455-.0215-.0684zm55.76077-137.763919-149.47852 14.013671 126.19727 15.773438c3.71756-10.760961 9.72374-19.749979 17.76758-26.068359 1.73904-1.387613 3.58608-2.632966 5.51367-3.71875zm-27.09961 51.847659-177.060551 25.75 139.367191 20.26757c1.33289-5.104 3.01084-9.8201 5.23633-13.81445l4.7539-3.86914c8.59778-6.99623 17.99544-11.26907 29.23438-13.88281-1.03627-4.62566-1.56205-9.47083-1.53125-14.45117zm-42.625 76.625-143.269535 20.27929 141.203125 19.98047c-.19284-10.70232-.18915-21.31176 1.0625-31.95117.34552-2.68782.67448-5.48085 1.00391-8.30859zm-6.00781 68.68359-100.68751 22.50391 70.56641 15.77343c9.2358-14.11209 19.33688-26.95018 30.1211-38.27734z" fill="#fff"/></svg>