<svg height="512" viewBox="0 0 512 512" width="512" xmlns="http://www.w3.org/2000/svg"><circle cx="256" cy="256" r="246" stroke="#fff" stroke-width="10"/><path d="m99.101562 94.521484c-72.636875 20.630576-32.510893 129.837436-1.724609 132.464846-6.960505 34.54493-10.900514 69.26053-10.345703 104.59179.290498 18.54976 42.04013 47.80571 86.20898 70.39844 25.87154 37.91531 68.83221 37.98642 82.75977 38.33008 13.92755-.34366 56.88936-.41559 82.76172-38.33008 44.16803-22.59191 85.91571-51.84787 86.20703-70.39844.55399-35.33127-3.38519-70.04686-10.3457-104.59179 30.7871-2.62741 70.91227-111.83427-1.72461-132.464846-23.26687 1.196283-45.50308 13.215656-67.24219 30.457036-39.21646-16.11465-59.24475-16.88086-89.65625-16.88086-30.41069 0-50.43897.76703-89.65625 16.88086-21.7391-17.24056-43.97531-29.260753-67.242188-30.457036zm4.031248 40.853516c4.95648-.0786 14.10468 4.60188 21.9375 11.99805 2.75114 2.59795-18.75228 41.77285-21.94531 41.04297-3.756017-.85916-12.260991-39.50978-3.04688-51.81055.60963-.81334 1.66766-1.20838 3.05469-1.23047zm305.73438 0c1.38703.0221 2.44586.41713 3.05469 1.23047 9.21411 12.30077.70914 50.95139-3.04688 51.81055-3.19303.7307-24.69645-38.44502-21.94531-41.04297 7.83282-7.39699 16.98103-12.0766 21.9375-11.99805zm-191.86914 43.03125h.00195c10.62307-.20806 20.94746 6.22363 24.21094 20.16602 7.01454 29.9769-30.87305 58.70607-30.87305 77.01757-8.37739-14.50841-58.36439-22.56165-65.10351-51.28515-6.63895-28.30285 24.32994-44.3739 45.00585-23.69727 3.81004-14.21642 15.45003-21.97711 26.75782-22.20117zm76.21484 0c11.62176-.24109 23.84216 7.55202 27.76758 22.19922 20.6752-20.67735 51.66507-4.60558 45.02539 23.69726-6.73911 28.72351-56.7247 36.77532-65.10352 51.28516 0-18.31079-37.91102-47.03872-30.89648-77.01562 3.15852-13.49396 12.95242-19.95283 23.20703-20.16602zm-37.21289 85.36523c14.17305.18247 30.13549 7.82899 24.71094 29.88086-1.18163 4.80477-10.242 7.04939-17.34571 7.93555v7.3418c40.86781 16.8257 57.1448 17.65429 54.1457 33.78122-2.99911 16.12693-25.27433 47.55219-61.51093 47.55219-36.23661 0-58.51182-31.42526-61.51093-47.55219-2.9991-16.12693 13.27789-16.95552 54.1457-33.78122v-7.3418c-7.10289-.88616-16.16408-3.13078-17.34571-7.93555-5.42455-22.05187 10.53789-29.69839 24.71094-29.88086z" fill="#fff"/></svg>