<svg height="512" viewBox="0 0 512 512" width="512" xmlns="http://www.w3.org/2000/svg"><circle cx="256" cy="256" r="246" stroke="#fff" stroke-width="10"/><path d="m124.372 81.951859v82.883971h25.90126v-82.883971zm234.83794 0v84.610731h25.90124v-84.610731zm-289.867434 13.814c-5.600678 5.915481-12.648122 16.326131-19.426644 25.901241h58.915398v-25.901241zm96.471484 0v25.901241h177.8552v-25.901241zm234.83793 0v25.901241h61.43222c-6.0127-8.85552-12.13696-17.65758-19.42665-25.901241zm-307.3614 69.069971v85.4741l49.03967 12.25993-49.03967 13.38231v108.87156c12.42396-3.02181 25.0465-1.46774 36.8661 2.93547 15.4544 5.61194 30.13178 15.54075 44.55014 25.98758 28.83671 20.98001 56.8964 43.42775 80.03483 43.42775 23.13844 0 51.19812-22.44774 80.03485-43.42775 14.41835-10.44683 29.09572-20.37564 44.55013-25.98758 11.82823-4.40321 24.4335-5.95728 36.8661-2.93547v-36.77977l-13.29597-9.23812-24.34718-16.92214 37.64315 3.53985v-88.58225l-39.45623-12.51894 39.45623-8.20206v-51.28447h-15.54075v17.26751h-56.98273v-17.26751h-177.8552v15.54075h-56.98273v-15.54075zm159.11997 25.90125h.25899c12.86429.43169 19.68497 10.27416 22.87944 13.38231 1.64042 1.64042 1.55408 1.3814 1.81309 1.3814 4.74858-2.15843 5.87096-3.19448 9.75614-6.64798h2.93548c8.63375 0 16.23145 4.57587 21.32535 11.05119 5.09392 6.47531 7.94304 15.02272 7.94304 24.26083 0 3.36717-.34534 6.56165-1.12238 9.6698 3.53984-1.29506 6.99333-2.33112 10.53317-2.50379 1.29506-.17267 2.50379-.0863 3.71252.0863 5.0939.51802 10.96485 4.48953 12.60525 10.10148 8.89278 29.52741 6.64799 61.64495.0863 87.02816-2.3311 9.15178-9.15179 15.19541-16.05878 17.52652-3.88518 1.29506-7.68403 1.81308-11.3102 2.0721-.17268 1.72674 0 28.14602 0 43.25507h-126.05266c-.0863-15.4544 0-29.95911 0-44.89549 3.0218-26.16025 7.68404-61.81762 10.87851-90.22266-11.3102-5.35291-19.25326-16.23143-19.25326-29.09573 0-18.30354 16.14513-32.63556 35.05303-32.63556 3.53983 0 7.07967.51802 10.36049 1.55407 5.43927-9.06544 13.72767-15.36807 23.65648-15.36807zm-.0863 15.54075c-4.05787.0863-9.23811 3.71252-12.51894 12.4326l-3.10816 8.37473-7.85671-4.31688c-3.10815-1.72675-6.82067-2.67645-10.44682-2.67645-11.31021 0-19.51228 7.94305-19.51228 17.09481 0 9.15178 8.20207 17.09482 19.51228 17.09482 4.66222 0 9.15176-1.46772 12.51893-3.97153l6.82065-5.09391 4.48956 7.25236c3.28082 5.43926 6.99332 7.33868 10.18782 7.33868 4.05786 0 9.32444-3.71251 12.69161-12.60527l5.95728-15.97243 8.11572 14.93638c3.0218 5.43927 6.99334 7.77037 10.87853 7.77037 3.19448 0 6.30263-1.64041 9.06542-5.0939 2.67648-3.4535 4.66223-8.72009 4.66223-14.67738 0-5.95727-1.98576-11.22386-4.66223-14.67736-2.07209-2.59012-4.31686-4.14422-6.73431-4.83491-4.83491 3.79886-9.32445 6.12996-14.24569 6.38897-5.7846.25902-10.53316-3.0218-13.38232-5.69828-5.52557-5.3529-6.99333-8.80641-12.43257-9.06542zm78.04905 50.59376c-8.5474 1.03605-17.00846 6.47531-23.22476 11.39654l8.2884 74.33658c3.36716-.17269 6.47531-.51804 8.63375-1.29507 3.36715-1.12239 4.83489-1.98577 6.04362-6.56165 5.87095-22.87942 7.68402-52.32051.25899-77.8764zm-56.63738 6.56164c-5.35292 7.16601-12.69159 11.91457-21.32535 11.91457-7.25235 0-13.814-3.36716-18.90789-8.80642-4.74857 2.15844-9.92882 3.28083-15.10906 3.28083h-.51804l-9.6698 86.68282h93.0718l-9.66979-87.1145c-.51803.0863-1.03606.0863-1.55408.0863-6.04362 0-11.65555-2.24478-16.31779-6.04363zm-66.47987 108.61255v13.814h94.97122v-13.814z" fill="#fff"/></svg>