<svg height="512" viewBox="0 0 512 512" width="512" xmlns="http://www.w3.org/2000/svg"><circle cx="256" cy="256" r="246" stroke="#fff" stroke-width="10"/><path d="m324.83134 23.610119-75.23736 16.857144 127.6864 2.9037c-20.08073 12.777538-30.1437 20.780684-30.1437 20.780684l51.01163-5.229252-79.9411 57.003645 94.34526-37.190671c-23.20232 33.145931-58.37411 86.127651-58.37411 86.127651l77.83857-76.645033-28.93908 107.997853 55.52773-77.5632-.0433 26.31183 9.07318-6.95356 12.63504 101.6571 9.88203-59.09088c-9.8043-33.3639-18.39314-63.08002-75.71066-112.758357-24.96906-15.032641-30.32611-31.251431-89.61053-44.208654zm-42.40002 36.867267c-39.55823 12.864708-68.73875 64.307854-76.39238 107.632754-1.9413 10.99053-.12465 22.14145 3.38137 33.08142 5.43599 4.22519 10.34546 9.13553 13.80093 15.1207 12.29373-7.18115 23.76458-14.575 32.92277-23.05414.18306-9.40488.87607-19.18635 1.98314-29.10468-4.46403 5.60423-8.09819 11.44557-12.81153 16.97919 1.45576-14.34401 4.8441-23.9058 11.40546-33.59487l-19.65272 9.35346c6.87432-14.86703 16.01333-25.55333 26.88182-34.14579-9.41186 2.67354-17.9616 7.64578-26.97596 11.37757 8.35099-17.37319 20.85219-26.44596 33.50159-35.222344 3.66467-13.962193 7.75561-27.047444 11.95551-38.42327zm31.08521 110.126714-19.63267.61805-34.69409 38.5854-32.87483 22.4021.12029.0148c-3.49232.23463-6.9825.50022-10.47011.79674-1.56298-8.47651-7.32499-17.31217-15.6106-23.94066-14.8278-11.85265-33.31069-13.3581-41.28248-3.36306-7.97267 9.99503-2.41464 27.70558 12.41316 39.55911 9.36043 7.46707 20.65519 11.11082 29.81512 9.61584-26.71357 29.34702-22.92076 56.85124-25.59255 95.46803l18.73306-.69999c-2.71799-29.5353.24147-46.79169 12.85163-71.19436 4.64099-4.48321 9.4694-8.62384 14.50876-12.33994 44.61852 17.23198 41.35222 23.0367 61.94639 68.13117l-26.71184 33.62102-7.32237 31.83488 12.18826 3.76317 14.14525-28.84927c2.80604-5.72365 29.96942-37.05991 30.18299-41.6207-3.33778-18.21004-10.59303-28.37855-18.35387-47.55183l34.08651 40.52322c-3.9811 17.40458-4.79354 37.25954-8.51923 49.58379l7.09137 27.49986 17.18665-4.68981-7.65973-26.43027c11.13698-18.36259 13.31539-35.19358 13.38948-55.54018-25.17849-34.77429-48.81319-76.79598-83.80628-81.74992-.0628-.27284-.12465-.54656-.1848-.82115l22.7778-18.99022zm-145.43798 89.28237c-6.96322 2.01017-13.09309 4.87809-17.50395 8.90278-43.61344 39.7936-49.20459 133.05359-38.94804 172.78181 5.40809-10.31234 10.90597-21.81456 16.62788-33.89909-1.94217-15.83899-2.16358-32.18357 1.95263-49.8052.99027 10.39079 2.39372 20.60811 7.86371 29.1535.20311-.42366.40447-.84556.60845-1.26834-1.84192-15.15034.30772-33.15988 8.12086-49.4356-1.52549 10.14672.4376 18.83942 2.70841 27.40398 3.64745-7.19731 7.43371-14.32342 11.35665-21.37435-.0706-14.12172 1.70593-31.98918 6.20047-49.95426 2.35624-9.41622 5.44122-18.86906 9.49729-27.74307-2.99694-1.43745-5.83-3.07017-8.48436-4.76216z" fill="#fff" stroke-width=".871711"/></svg>