<svg height="512" viewBox="0 0 512 512" width="512" xmlns="http://www.w3.org/2000/svg"><circle cx="256" cy="256" r="246" stroke="#fff" stroke-width="10"/><path d="m159.29102 74.667969 7.28906 85.552731-13.31836 2.33985-22.23047-82.781253 8.09961 85.302733-14.13086 2.69922-22.4082-82.925781 8.18945 85.445311-13.347656 2.33984-23.19336-82.746089 10.134766 101.556639 42.51562-7.65039 15.92969 87.83984c2.97-.98996 6.12133-1.52929 9.36133-1.52929 2.43 0 4.76953.27039 7.01953.90039l-16.29101-90.08984 42.48046-7.6504zm186.08984 4.751953c-2.97 26.891878-12.87051 55.331638-24.48047 49.931638-10.97996-5.03996-8.01062-17.28121.35938-30.826169-13.58996 9.674959-32.67012 15.886409-20.16016 41.986329-13.40996-7.64996-9.62938-22.68129-11.60938-35.28125-19.34992 14.48992-12.96085 39.42016-5.13085 59.58008l10.71093 3.15039.44922-22.67969 9.17969 16.4707c10.97996-4.58996 11.16035-7.65133 17.82031-13.86133-4.22996 8.28-6.47926 17.28157-16.19922 23.85157l7.10938 2.33984c20.60992-4.76996 51.57109-41.04031 31.95117-94.662108zm86.84961 35.980468c-17.81992.18-43.02026 19.26141-30.24024 40.86133 12.14996-53.9098 62.27934-11.79039 56.60938 7.01953-7.64996 25.37988-26.10035 23.31106-33.57031 36.54102l12.96093 4.5c58.4098-21.77992 39.41906-86.04012-4.05078-88.83008-.54 0-1.07898-.0918-1.70898-.0918zm-150.12109 69.39063-4.89258 24.08593c2.98252 2.03125 5.76166 4.3697 8.35351 6.93164l11.48047 2.73243 10.97852-26.64063zm137.88085 30.41992-18.35937 63.17968c4.23-2.15996 8.90941-3.41992 13.85937-3.41992 1.98 0 3.95965.18102 5.84961.54102l12.96094-55.34961zm-170.47461 2.71094c-10.4048 0-20.1046 5.466-27.5996 15.34179-7.49505 9.96396-12.4336 24.16138-12.4336 40.03321 0 15.87178 4.93855 30.06924 12.4336 40.0332 7.495 9.87579 17.1948 15.3418 27.5996 15.3418 10.40485 0 20.01643-5.46601 27.59961-15.3418 7.49505-9.96396 12.43165-24.16142 12.43165-40.0332 0-15.87183-4.9366-30.06925-12.43165-40.03321-7.58318-9.87579-17.19476-15.3418-27.59961-15.34179zm-163.916011 17.44921c-10.133956 0-15.182828 5.22067-15.173828 13.14063 0 4.49996-.50473 9.98945 4.03125 12.68945-2.276988 7.10996-4.958246 13.94926-7.865234 20.69922 4.121984 1.35 7.911012 3.60047 11.25 6.48047.126-.18.241191-.35906.367187-.53906 3.887984-5.13 8.956743-9.3609 14.761719-11.88086 1.188011-4.86 2.321582-9.72012 3.392578-14.58008 4.787999-2.7 7.578129-7.01938 7.578129-11.60938 0-7.91996-8.207826-14.40039-18.341801-14.40039zm147.779301 18.17383c5.02605 0 8.99414 9.25805 8.99414 20.63281 0 11.37479-3.96809 20.63477-8.99414 20.63477-4.93791 0-8.99414-9.25998-8.99414-20.63477 0-11.37476 4.05623-20.63281 8.99414-20.63281zm32.80078 0c4.93787 0 8.99414 9.25805 8.99414 20.63281 0 11.37479-4.05627 20.63477-8.99414 20.63477-4.93791 0-8.99414-9.25998-8.99414-20.63477 0-11.37476 4.05623-20.63281 8.99414-20.63281zm89.73047 22.05664c-5.04 0-9.80938 2.60977-13.85938 8.00977-4.04996 5.30996-6.83984 13.23066-6.83984 22.14062s2.78988 16.82871 6.83984 22.13867c4.05 5.4 8.81938 8.00977 13.85938 8.00977 5.03996 0 9.80941-2.60977 13.85937-8.00977 4.05-5.30996 6.75-13.22871 6.75-22.13867s-2.7-16.83066-6.75-22.14062c-4.04996-5.4-8.81941-8.00977-13.85937-8.00977zm-48.99219 8.19727c-1.00092 8.86947-3.23459 17.22731-6.53516 24.83789.18232.31139.35726.62876.53321.94531 7.27824 4.19641 13.48306 9.96035 18.31054 16.6582 8.64546 11.65207 13.83671 25.70275 17.5293 40.95704l.00195.00585c7.51281 30.67329 8.26563 66.27704 8.26563 95.49805v22.6211c14.94322-5.80554 29.17099-13.02157 42.5332-21.49805l-1.58594-8.58203-8.73047-93.33008-.54101-6.39063c8.54996-2.96996 17.19144-5.40101 23.9414-7.29101l-23.04101-4.94922c-5.93996 5.39996-13.40949 8.82031-21.68945 8.82031-10.88996 0-20.43032-5.94043-26.82032-14.40039-5.66996-7.55996-9.18039-17.28043-9.90039-27.90039-4.28006-8.56015-8.47185-17.17645-12.27148-26.00195zm-154.73633 2.51172c-5.03996 0-9.81133 2.61172-13.86133 8.01172-4.04996 5.30996-6.83984 13.22871-6.83984 22.13867s2.78988 16.83066 6.83984 22.14062c4.05 5.4 8.82137 8.00977 13.86133 8.00977 5.04 0 9.80938-2.60977 13.85938-8.00977 4.04996-5.30996 6.75-13.23066 6.75-22.14062s-2.70004-16.82871-6.75-22.13867c-4.05-5.4-8.81938-8.01172-13.85938-8.01172zm-47.16016 3.33007c-5.039956 0-9.847325 2.60981-13.861324 8.00977-1.016996 1.35-1.952066 2.88-2.789062 4.5 3.527984 7.19996 5.480469 15.57051 5.480468 24.48047 0 5.57996-.755738 10.88988-2.177734 15.83984l13.707032 2.97071 12.86914-2.69922c.72-.9 1.53031-1.98086 2.07031-2.88086-3.23996-6.92996-5.03906-14.94043-5.03906-23.40039 0-6.84 1.17027-13.31977 3.24023-19.25977-3.95996-5.03996-8.55-7.56054-13.5-7.56055zm310.46875 1.53126c-5.03996 0-9.80937 2.6098-13.85937 8.00976-4.0501 5.31-6.75 13.23063-6.75 22.14063 0 3.32996.36008 6.47937 1.08008 9.35937l16.10937 3.50977c0-1.17-.08984-2.42946-.08984-3.68946 0-12.23992 3.69008-23.40121 10.08008-31.95117.99-1.26 2.07039-2.51945 3.15039-3.68945-2.97-2.52-6.30071-3.68946-9.72071-3.68945zm-358.494136 5.30859c-5.03098 0-9.845391 2.61172-13.859375 8.01172-4.013984 5.30996-6.794922 13.22871-6.794922 22.13867s2.780938 16.83066 6.794922 22.14062c4.013984 5.4 8.828395 8.00977 13.859375 8.00977s9.847344-2.60977 13.861328-8.00977c4.013984-5.30996 6.794922-13.23066 6.794922-22.14062s-2.780938-16.82871-6.794922-22.13867c-4.013984-5.4-8.830348-8.01172-13.861328-8.01172zm134.064456 1.98047c-1.53 0-3.14985.27054-4.58985.81054 1.41371 4.63382 2.23816 9.68935 2.43555 14.90625 2.93802-2.28737 6.05863-4.38181 9.45313-6.08398-1.22744-2.89226-2.2638-5.9117-3.17774-9.00391-1.34754-.40592-2.72227-.6289-4.12109-.6289zm257.82031 1.89062c-5.04 0-9.81133 2.60977-13.86133 8.00977-4.04996 5.30996-6.83984 13.23066-6.83984 22.14062.09 8.90996 2.78988 16.82871 6.83984 22.13867 4.05 5.4 8.82133 8.00977 13.86133 8.00977 5.03996 0 9.80941-2.60977 13.85937-8.00977 4.05-5.30996 6.83985-13.22871 6.83985-22.13867s-2.78985-16.83066-6.83985-22.14062c-4.04996-5.4-8.81941-8.00977-13.85937-8.00977zm-240.2793 22.67774c-6.61325 2.73346-11.90534 7.14263-16.40234 13.13867-6.43689 8.55314-11.10914 20.5449-14.19531 34.38867-6.17239 27.86384-5.9961 62.95803-5.9961 92.14453v24.57227c6.34245 2.30393 12.82501 4.31288 19.39844 6.09765v-80.93164h16.49023v84.82617c5.6625 1.12277 11.40799 2.00754 17.20313 2.73438h61.80078c1.17719-.14765 2.35734-.285 3.5293-.44922v-87.11133h16.48828v84.25391c6.81247-1.43411 13.51342-3.16333 20.10547-5.14844v-28.84375c0-28.8338-.97014-63.57618-7.75977-91.26367-3.3507-13.84377-8.11191-25.92314-14.54883-34.56445-4.23247-5.90786-9.0824-10.22915-14.99023-13.05078-9.96397 12.7856-24.24898 21.33984-40.20899 21.33984-15.8718-.0882-32.97816-10.49347-40.91406-22.13281zm-75.58984 33.12109-28.6211 6.12109 21.68946 92.97071c2.51589 5.56362 3.70847 8.18521 5.97851 13.22461 7.09764 4.14944 14.42156 7.94525 21.94922 11.38086v-17.14649c0-29.11396-.45638-64.98681 6.42188-96.03711l.00195-.01172.00391-.01172c.4154-1.86335.94754-3.64086 1.41601-5.46484-3.0511 1.04336-6.27986 1.63477-9.66992 1.63477-7.10996 0-13.67996-2.52016-19.16992-6.66016zm-47.992189 1.50781c-.437621.0675-.778941.33883-1.210937.92383-6.398976 8.45996-15.958544 14.39844-26.8125 14.39844-8.529578 0-16.224047-3.69939-22.240235-9.35938 15.199131 31.18682 36.804789 58.66396 63.09375 80.75782l3.300781-24.86719-14.345702-61.56055c-.8145-.225-1.347532-.36047-1.785157-.29297zm335.419919 2.45313c-8.99996 1.98-17.72892 4.22984-26.45898 6.83984l8.15234 86.92774c31.97391-23.65198 58.02472-54.8516 75.48633-90.98829-.62855-.11655-1.37139-.38459-1.91992-.43945-6.38996 8.45996-15.9284 14.40039-26.81836 14.40039-12.77996-1.8-22.32141-7.56027-28.44141-16.74023z" fill="#fff" stroke-width="36"/></svg>