<svg height="512" viewBox="0 0 512 512" width="512" xmlns="http://www.w3.org/2000/svg"><circle cx="256" cy="256" r="246" stroke="#fff" stroke-width="10"/><path d="m113.1928 88.583995-14.180798 2.5016 7.459198 42.308805a1304.536 1304.536 0 0 0 -12.640002 2.032l-5.2024-29.51199-14.1808 2.49919 5.192 29.436a1502.2776 1502.2776 0 0 0 -13.7568 2.4896l2.6336 14.1568c4.5824-.8528 9.1176-1.672 13.6224-2.4672l5.6448 32.016 14.181602-2.4992-5.632002-31.944c4.243202-.704 8.456002-1.38 12.638402-2.032l7.8216 44.36 14.1816-2.5008-7.7576-43.992c6.7864-.9744 13.4928-1.87039 20.144-2.704 12.432 37.112 27.7576 79.996 53.5488 107.5584 6.9768 24.3208 7.8888 37.92721 25.9368 71.5272-18.048 30.4-30.848 81.6-37.88 128.8l-38.4 4.8v12h58.232c12.8-38.39999 51.2-115.19999 51.2-115.19999s38.4 76.8 51.2 115.19999h58.232v-12l-38.4-4.8c-7.032-47.2-19.832-98.39999-40.632-128.8 20.8-33.6 19.34-47.668 28.664-71.5016 25.8-27.5616 41.136-70.46 53.5736-107.5824 6.6512.832 13.3576 1.728 20.144 2.704l-7.7568 43.992 14.1824 2.4992 7.8216-44.36c4.184.652 8.3952 1.328 12.64 2.032l-5.6336 31.944 14.1816 2.5 5.6448-32.016c4.504.7944 9.04 1.6136 13.6224 2.4664l2.6336-14.1568c-4.624-.86-9.2056-1.688-13.756-2.4904l5.192-29.4368-14.1816-2.5-5.2032 29.512c-4.2424-.704-8.456-1.3816-12.64-2.032l7.4592-42.308805-14.1808-2.5016-7.5248 42.680005c-47.2968-6.7952-91.2968-10.2112-135.2824-10.2112-43.984 0-87.9864 3.416-135.2816 10.2136zm142.8064 46.818405c28.424 0 56.856 1.464 86.2576 4.3704-11.2656 27.8864-30.7632 58.8032-50.5624 81.5736-8.2608 11.888-21.0152 19.672-35.6952 19.672s-27.4352-7.784-35.696-19.672c-19.7984-22.7704-39.296-53.688-50.5616-81.5736 29.4-2.9064 57.832-4.3704 86.2576-4.3704zm0 16.016c-16.668 0-31.2 16.192-31.2 37.6s14.532 37.6 31.2 37.6 31.2-16.192 31.2-37.6-14.532-37.6-31.2-37.6z" fill="#fff" stroke-width=".8"/></svg>