<svg height="512" viewBox="0 0 512 512" width="512" xmlns="http://www.w3.org/2000/svg"><circle cx="256" cy="256" r="246" stroke="#fff" stroke-width="10"/><path d="m240.3376 129.9144c-101.3136-1.0208-164.856 37.416-169.6464 67.144-2.3816 32.944-3.332 66.9024-3.2128 99.6936l3.448 3.0368c3.1704-12.252 5.176-25.4744 11.2976-35.268 1.04 21.744 4.0544 46.8496 9.0952 65.6536-1.9816 19.9904-1.6944 38.392-2.7488 58.3824 16.9264 10.1808 48.388 8.52 54.0328 1.5888 2.3488-16.556 3.9848-34.064 3.1784-54.828l6.0736-28.284c5.1344-11.6696 20.232-13.7944 18.7248-25.4392l14.2624-1.9736c.284 20.1568-11.5 21.68-19.7704 33.3224 10.3952 4.2856 11.7408 3.1088 19.2472 4.0992 19.0784 2.1936 36.1872 3.0192 54.2416-6.54l-2.4808-14.0328 14.1784-2.508 2.4512 13.8624c3.376 11.2776 9.5968 83.5136 14.8472 86.6888 10.7288 5.1336 43.0584 5.1336 44.3776-4.2496 1.3176-36.6288 3.0888-72.08-4.056-106.5936 2.9616-3.28 5.872-6.4896 8.7424-9.6768-16.1424-8.1256-35.3712-20.6704-46.096-33.4376-7.2296-13.768-11-30.9504-13.8432-45.0048-2.0368-10.3544-3.44-20.8592-3.048-29.9888.1952-4.5648.8024-8.8144 2.3856-12.7504 15.8784-16.1488 45.2848-28.544 63.664-37.2024-26.6184-5.8152-57.24 5.9088-79.3456 14.3056zm103.1472-7.9448c-23.8056 8.7816-57.772 17.7392-74.1064 36.2136-.6456 1.6064-1.208 4.4504-1.36 7.9952-.304 7.0904.8776 16.8744 2.7896 26.5944s4.5152 19.456 6.824 26.9136c1.1536 3.7296 2.2376 6.8992 3.092 9.152 12.1728 17.772 36.5168 31.7 54.3728 35.9672l11.596-22.9704c-9.2592-12.032-11.0232-28.1808-3.672-40.2816 3.9456-4.9144 7.7816-8.4424 13.5856-8.3328 3.636.0872 7.3552 1.5968 10.2848 4.036 20.724 17.2576 39.5848 38.952 66.696 56.528-.1088-5.3008-.208-10.352-.1944-15.0088.0208-7.224-15.1392-78.2072-40.4912-111.6424-18.3344-4.664-32.2744-7.312-49.4168-5.164zm55.1064 60.9856c3.4616-.056 6.7368.4504 9.4856 1.8552.0488 3.9376-.2384 8.028-8.7096 12.9216-3.6008-3.776-8.9912-8.6704-14.3264-12.5016 4.3416-1.2048 9.0992-2.2032 13.5504-2.2752zm-43.3864 26.2704c-1.8104 2.8744-3.1296 9.3256-2.1624 14.0248 1.1216 5.4496 7.2496 13.5208 17.24 21.176 9.992 7.6536 23.3936 15.016 37.4024 20.8696 12.4872 5.2176 25.3984 9.148 36.8464 11.352-39.824-20.0944-63.5856-48.952-86.8528-68.3272-1.2384-1.276-1.9096.0272-2.4736.9048zm47.1312 69.4376c.4208 18.7416-1.9328 40.212-13.6688 47.9152-8.9024 5.8448-26.588 1.072-30.728-8.74-2.9256-6.9336 12.4536-12.5416 10.7264-19.8656-1.3744-5.8296-8.8264-11.4992-14.7-10.3296-14.3048 2.8464-27.924 23.0688-23.44 36.948 8.112 25.1096 49.7416 40.884 73.5 29.4 21.992-10.6304 28.0464-37.3712 29.4464-64.952-10.1632-2.504-20.7864-6.0632-31.136-10.376zm-160.5448 42.016a103.532 103.532 0 0 1 -7.9944 3.472l-6.936 62.0824c.976 7.0416 12.6552 10.1176 24.308 10.248zm-80.52 3.6152c-1.0728 8.5864-1.8936 17.428-2.4584 24.7624-1.236 16.18-1.9864 33.2496-1.9968 41.192 15.0952 9.5416 43.8384 3.6264 42.484-1.604-.5248-21.8224-4.8016-39.8448-10.064-58.9736-9.5864-1.0064-18.8192-3.0912-27.9656-5.3768z" fill="#fff" stroke-width=".8"/></svg>