<svg height="512" viewBox="0 0 512 512" width="512" xmlns="http://www.w3.org/2000/svg"><circle cx="256" cy="256" r="246" stroke="#fff" stroke-width="10"/><path d="m148.5867 86.574778c-24.39801.02391-50.216867 3.143182-83.672969 14.499312-69.8613036 97.85975-60.6444427 170.0419-38.430895 243.45766l35.485382-65.25796c29.678125-59.86094 80.953232-81.40925 101.005372-28.30664.58241.009 1.16482.0213 1.7421.047 2.75321.12297 5.45262.45602 8.08713 1.03587 10.53632 2.31853 20.00517 10.0598 23.21355 22.0325 1.67037 6.23401 1.36038 12.52779-1.17251 17.75752-2.53288 5.22973-6.92743 9.00087-11.84034 11.59354-3.56619 1.88215-7.4808 3.27071-11.65417 4.28694.002.40137.012.78566.012 1.19044 0 7.24596 1.0632 14.22377 3.04868 20.86683 1.07259-.43553 2.15629-.83689 3.25364-1.18361 2.57046-.81469 5.2545-1.30231 7.96928-1.43894.50897-.0256 1.01879-.0393 1.52861-.0401 7.6627-.0111 15.46118 2.79249 21.6226 8.95562 4.56448 4.56363 7.44152 10.16825 7.86338 15.96332.42186 5.79506-1.49958 11.25792-4.45774 15.96075-1.39197 2.21008-3.01623 4.31257-4.82751 6.32794 9.09054 6.63964 19.50218 12.04785 30.74986 15.97784.85398-2.51495 1.98634-4.92999 3.48421-7.20497 5.11957-7.77287 14.69944-12.46374 26.32628-12.46374 12.15631 0 22.00518 6.52777 25.26736 15.73018 1.21008 3.41163 1.7532 6.93853 1.80871 10.54828 14.16742-1.45773 28.43731-5.25706 42.1504-11.74725.12981-7.57475 3.65842-15.42447 10.29209-22.05813 5.37149-5.3732 11.91121-8.30403 18.21097-8.72248.47225-.0316.94279-.0487 1.41247-.0512 3.28438-.0222 6.47312.65158 9.36553 2.02904.088.0427.17079.0914.2579.13408.71306-.74296 1.42186-1.49446 2.12639-2.25791 33.41169-36.31093 41.1188-121.30345.86934-170.40605-38.87114-47.41771-164.16777 11.23658-70.60307 85.85845-35.56798-66.00699 23.977-64.64405 39.66021-37.48088 17.26051 29.8976 20.04531 71.77644-23.97102 97.18897-34.79086 20.08886-73.9626-22.84207-67.55097-83.24188 9.88042-93.09427-21.50309-159.663178-108.63395-159.578634zm142.8825 40.801122c-3.07003 10.52266-5.0615 31.1222-1.09735 43.41428 6.18447-3.81469 17.55427-8.29891 24.0846-10.79422-3.94963-10.75664-15.20328-23.18536-22.98725-32.62006zm101.54935 6.61488c-10.24767 3.89155-27.88563 14.71566-35.30666 25.28614 6.76945 2.63878 17.20158 9.00941 23.12901 12.71737 6.20326-9.63453 9.33819-26.10596 12.17765-38.00351zm24.55429 76.45023c-3.14433-.0564-6.12897.11357-8.82154.56362 3.23826 7.52179 6.37234 20.93771 8.08285 28.6303 12.64307-2.64049 28.34935-13.14863 40.1504-20.2793-9.12385-4.18618-25.78315-8.66953-39.41086-8.91548zm-255.77347 56.55863c-5.44151.0914-11.94879 1.11187-18.85572 2.95816-14.48765 3.87106-30.46122 11.05895-43.845538 17.9249 13.917198 3.46371 32.203328 6.42444 48.182868 6.33477 12.01369-.0683 22.6559-1.9351 28.27248-4.89839 2.80701-1.48335 4.22461-2.98891 4.92487-4.43468.70025-1.44578 1.04184-3.22802.11955-6.66953-1.87276-6.99148-4.91888-9.19046-11.22633-10.57817-1.57643-.34671-3.35867-.55166-5.31-.61913-.73186-.0256-1.48591-.0307-2.26303-.0171zm255.53436 31.87881c1.57643 7.84802-4.31769 25.46548-8.64733 32.04961 13.62087 4.70966 34.6824 3.6328 50.06417 3.55765-7.80532-11.36382-26.28956-29.69093-41.41599-35.60896zm-229.20039 43.84298c-.46371.005-.93681.0393-1.42272.0991-1.29633.15799-2.68489.50043-4.22375.98805-6.15544 1.95218-14.01797 7.5235-21.72763 15.22292-10.60977 10.5961-20.84805 24.80792-29.00691 37.44672 13.78484-3.95902 31.1017-10.54059 44.89337-18.60807 10.37064-6.06492 18.65333-13.00174 22.03506-18.3775 1.69087-2.6866 2.16568-4.69856 2.04954-6.30062-.117-1.60205-.7088-3.31768-3.22973-5.83776-3.35782-3.35867-6.12299-4.67806-9.36638-4.63536zm178.24296 27.01373c-1.94535-.12297-3.99488.99658-7.6516 4.65244-5.65928 5.66014-6.24852 9.0692-5.45432 12.92574.79419 3.8574 4.22716 9.00344 10.06834 14.29807 8.20668 7.44238 20.22208 14.57732 32.04448 21.31517-2.75833-12.27757-7.26047-26.54148-13.04016-37.141-4.30403-7.89327-9.35699-13.38688-12.77971-15.01797-.85568-.4082-1.61401-.73442-2.35526-.90521-.27839-.0658-.55508-.10845-.83262-.12639zm-98.45455 16.85743c-8.00344 0-10.83094 1.99317-12.99747 5.28097-2.16568 3.28779-3.3749 9.35527-2.99061 17.22805.54142 11.06749 3.99147 24.60808 7.58584 37.73194 6.73358-10.63196 13.63624-23.9027 17.0453-35.48258 2.53801-8.62513 2.84886-16.08373 1.58241-19.65846-1.26729-3.57302-2.34671-5.10078-10.22462-5.10078z" fill="#fff" stroke-width=".853973"/></svg>