<svg height="512" viewBox="0 0 512 512" width="512" xmlns="http://www.w3.org/2000/svg"><circle cx="256" cy="256" fill="#86e500" r="246" stroke="#000" stroke-width="10"/><path d="m429.09766 226.06836c-16.09811-16.01014-30.84698-33.77623-48.5625-49.62695l-.0234-.0195-.0215-.0195c-28.43024-25.08542-64.43195-45.3125-124.75195-45.3125-81.22867 0-138.46514 36.59677-192.701171 98.55469l-19.068389 21.9804 19.386719 9.52734c58.647011 28.82225 124.242831 66.29883 192.382811 66.29883 47.39084 0 85.4667-4.07073 144.17383-37.44726l-1.00781 1.17382c-55.58283 64.78873-139.91781 90.98452-234.59375 94.88868l-8.4961.35156 1.61328 33.89453 8.39258-.34961c81.10689-3.38251 159.16073-23.01502 219.60157-69.73242-18.17497 24.59253-41.63228 47.27268-65.98243 70.7793l-6.0957 5.88476 23.6543 24.37109 6.0625-5.85937c48.00146-46.38344 101.102-95.9401 110.24804-171.6543l2.19727-18.19336"/><path d="m255.739 139.54c-78.75 0-132.93 34.65-186.345 95.67 60.345-17.82 120.645-28.44 180.495-29.43 2.16 0 4.32-.09 6.48-.09 55.98-.27 111.6 7.83 166.77 26.37-16.47-16.38-31.14-34.02-48.24-49.32-27.54-24.3-60.66-43.2-119.16-43.2zm30.69 83.79c1.85564 4.25798 2.80574 8.85526 2.79 13.5-.02 3.32783-.53567 6.63413-1.53 9.81-2.71462-5.96367-8.65757-9.7967-15.21-9.81-9.27842.004-16.78487 7.55168-16.74 16.83.0133 6.55243 3.84633 12.49538 9.81 15.21-3.18049.96384-6.48669 1.44915-9.81 1.44-18.51946.0348-33.55511-14.96051-33.57-33.48.005-4.51722.92347-8.98678 2.7-13.14-8.91.54-17.82 1.35-26.64 2.25-.72 3.6-1.08 7.2-1.08 10.89 0 32.49 26.1 58.5 58.59 58.5s58.5-26.01 58.5-58.5c0-3.87-.36-7.74-1.17-11.43-8.82-.99-17.82-1.62-26.64-2.07zm44.28 4.23c.36 3.06.54 6.12.54 9.27 0 41.58-33.93 75.51-75.51 75.51s-75.42-33.93-75.42-75.51c0-2.97.18-5.85.54-8.73-37.8 5.22-75.627 13.95-113.778 25.47 58.968 28.98 123.678 65.43 188.658 65.43 55.08 0 109.35-12.6 183.6-63-36.09-13.95-72.27-23.31-108.63-28.44zm114.21 45.18c-13.68 9.09-26.91 17.01-39.6 23.94-57.6 67.14-144.63 93.87-240.66 97.83l.81 17.01c99.27-4.14 192.6-32.76 253.98-105.39-17.28 47.07-55.17 83.34-94.14 120.96l11.88 12.24c48.06-46.44 99-94.32 107.73-166.59z" fill="#fff"/></svg>