<svg height="512" viewBox="0 0 512 512" width="512" xmlns="http://www.w3.org/2000/svg"><circle cx="256" cy="256" r="246" stroke="#fff" stroke-width="10"/><path d="m368.0656 65.0608c-.1328-.02-1.5376.0864-3.9816.0864-17.58 0-33.7264 15.1232-39.5496 37.276l60.5704 10.088-62.8208 10.468c.4512 12.9984 4.44 24.792 10.4496 33.8936l43.512 7.6824-33.0216 5.832.3872.4856-12.728 1.976c-12.2096 1.8928-20.6928 7.704-27.568 16.932-2.0272 2.72-3.8784 5.7584-5.5696 9.0624l72.6384 10.56-80.7808 11.7472c-.4608 1.8-.8944 3.6336-1.3016 5.4992-1.3296 6.0904-2.3624 12.4976-3.1856 19.0832l92.22 11.2856-94.248 11.5344c-.42 7.2664-.672 14.5888-.8176 21.848l91.256 13.1256-90.6432 13.04h32.6608l1.7152 26.0256 65.6208 9.104-64.432 8.9384 2.0096 30.512 60.4656 8.7176-59.3264 8.552 2.3504 35.672h77.0448l9.5-127.5224h35.1864c-.1824-28.8264-1.5312-61.856-8.1096-88.9552-3.5696-14.7072-8.672-27.536-15.4512-36.8504-6.7776-9.3136-14.8664-15.1664-25.7984-17.224l-12.472-2.3464 8.0992-9.7704c8.348-10.0696 13.992-24.5504 13.992-40.9016 0-29.6448-17.6672-52.832-37.7016-55.436l-.0848-.0104-.0864-.0128zm-42.828 4.044-260.6096 18.8696 243.944 17.6656c2.4584-14.1376 8.344-26.856 16.6656-36.536zm-17.9216 49.6912-242.6896 17.572 249.824 18.0896c-4.5488-10.0944-7.168-21.6376-7.168-33.9376 0-.5776.0216-1.1496.0336-1.7248zm-2.0896 48.5504-240.6 17.4216 215.968 15.6368c2.8664-7.1248 6.38-13.7152 10.732-19.556 3.8944-5.2256 8.5408-9.8032 13.9-13.5024zm-30.232 50.5824-210.368 15.232 205.1256 14.8552c.944-8.3976 2.216-16.6464 3.9416-24.552.408-1.864.84-3.708 1.3-5.5344zm-6.6616 46.2424-203.7064 14.7488 202.58 14.6688c.144-9.6456.468-19.5504 1.1264-29.4184zm-1.2496 48.484-202.456 14.66 237.776 17.216-.8576-13.0136h-34.4576v-7.4744c0-3.696-.008-7.504-.005-11.388zm36.2352 45.776-238.692 17.2808 240.9816 17.448-2.2896-34.7304zm3.176 48.1616-241.8688 17.5112 244.1864 17.6816-2.32-35.1936z" fill="#fff" stroke-width=".8"/></svg>