<svg height="512" viewBox="0 0 512 512" width="512" xmlns="http://www.w3.org/2000/svg"><circle cx="256" cy="256" r="246" stroke="#fff" stroke-width="10"/><path d="m175.72461 39.458984c1.35748 11.955358 3.11386 23.951694-17.10547 29.333985 16.58748-4.608292 25.22571 2.840479 29.33984 17.076172-3.06624-13.902271-.29068-25.059964 17.04102-29.28125-15.89086 1.851651-25.81619-3.66722-29.27539-17.128907zm65.50781 19.185547c-5.13622 35.448351-22.56636 54.055129-53.80469 53.886719 26.60732 3.78902 53.72049 6.73613 53.80469 53.94727-.5052-38.81636 20.62932-53.10526 53.97266-53.94727-31.99614-1.263-54.64626-13.723148-53.97266-53.886719zm107.60742 9.75c-7.66223 11.998551-17.51364 17.924757-32.7539 8.654297 12.54585 9.927223 15.66072 20.849585 8.58789 32.814452 7.49383-9.4136 14.73481-19.139804 32.83789-8.64844-14.98767-8.470556-15.82891-19.845034-8.67188-32.820309zm-257.248043 7.896485c-2.27341 15.829668-10.104988 24.082244-23.998047 23.998044 11.87225 1.68401 23.913846 3.03095 23.998047 24.01367-.252601-17.26107 9.176823-23.67687 23.996093-24.01367-14.22986-.589397-24.332895-6.147568-23.996093-23.998044zm312.652343 20.705078c-2.27341 15.829676-10.10499 24.082246-23.99805 23.998046 11.87225 1.68401 23.91385 3.03094 23.99805 24.01367-.2526-17.26107 9.17682-23.67687 23.99609-24.01367-14.22986-.5894-24.33289-6.14757-23.99609-23.998046zm-261.61133 42.201176c-13.30365 45.21559-40.21361 40.41618-66.812498 36.54296 30.017428 8.58844 41.553238 31.40712 36.484378 66.85547 10.65977-38.73217 35.88536-44.2894 66.87109-36.54297-31.65934-10.18824-47.91002-29.8073-36.54297-66.85546zm157.45508 4.21093c-7.40963 51.86742-33.08976 79.14909-78.81055 78.89649 38.90056 5.47302 78.81055 9.85023 78.81055 78.89453-.6736-56.66684 30.22846-77.63152 78.98047-78.89453-46.7312-1.85241-79.90667-20.12464-78.98047-78.89649zm115.18555 32.24805c-11.03025 18.18728-24.83918 24.25122-41.84766 16.92578 13.72466 8.16744 27.78763 16.08061 16.92578 41.76172 8.67264-21.21849 23.49198-24.16527 41.84766-16.83984-17.09267-8.16743-26.60882-20.12396-16.92578-41.84766zm-331.244143 70.30859c7.712752 14.06146 6.425472 25.34386-4.722656 33.67969 10.491365-5.80982 20.922939-12.04102 33.603519 4.71485-10.58399-13.64045-6.90346-24.41765 4.72461-33.67969-11.72069 8.16744-23.130949 9.76761-33.605473-4.71485zm115.523433.25196c9.59884 22.5657-.42101 34.77419-18.27148 42.85742 19.11348-7.15703 34.35318-3.78901 42.85742 18.27148-10.69345-26.77571 4.04163-34.68998 18.27149-42.85742-17.68208 7.15703-31.82718.7578-42.85743-18.27148zm191.97657 10.60937c-22.3973 54.47763-57.84501 77.21079-107.60742 64.32813 40.92137 16.67167 83.189 32.41824 64.32812 107.69336 14.73506-62.05566 54.22614-76.37053 107.69336-64.41407-50.43601-14.73507-81.59093-43.78355-64.41406-107.60742zm69.81836 5.25781c-7.66223 11.99855-17.51365 17.92671-32.75391 8.65625 12.54585 9.92723 15.66072 20.84763 8.58789 32.8125 7.49383-9.4136 14.73481-19.13785 32.83789-8.64648-14.98767-8.47056-15.8289-19.847-8.67187-32.82227zm-335.85743 27.91602c13.18577 48.66781.72399 82.60243-39.843746 99.7793 36.593476-9.93564 73.574976-21.21931 99.929686 39.91015-22.22889-49.93081-2.86341-80.32641 39.82617-100.02929-42.10018 16.16647-78.3905 12.62826-99.91211-39.66016zm-50.755855 11.79102c-7.66223 11.99855-17.513646 17.92671-32.753906 8.65625 12.54585 9.92723 15.66072 20.84763 8.58789 32.8125 7.49383-9.4136 14.734811-19.13981 32.837891-8.64844-14.98767-8.47056-15.828905-19.84504-8.671875-32.82031zm193.357425 39.57226c-18.35568 17.34527-36.20638 19.87115-53.21485 6.14649 13.05105 13.72466 26.60739 27.28091 6.0625 53.29882 16.67168-21.55529 34.69055-20.29214 53.29883-6.14648-17.00847-14.65086-24.08116-31.57514-6.14648-53.29883zm146.42382 39.99414c-2.27341 15.82966-10.10304 24.08225-23.99609 23.99805 11.87225 1.68401 23.9119 3.0302 23.99609 23.99609-.25259-17.26107 9.17879-23.65929 23.99805-23.99609-14.22986-.5894-24.33485-6.14758-23.99805-23.99805zm-142.88671 30.3125c-2.27341 15.82966-10.10499 24.08225-23.99805 23.99805 11.87225 1.68401 23.91385 3.0302 23.99805 23.99609-.2526-17.26107 9.17683-23.65929 23.99609-23.99609-14.22986-.5894-24.33289-6.14758-23.99609-23.99805z" fill="#fff" stroke-width=".842004"/></svg>