<svg height="512" viewBox="0 0 512 512" width="512" xmlns="http://www.w3.org/2000/svg"><circle cx="256" cy="256" r="246" stroke="#fff" stroke-width="10"/><path d="m296.96876 57.942416c17.2536 4.9168 29.0624 12.164 32.4576 23.016-1.0936.592-2.18 1.2144-3.2528 1.8904-20.524 4.6456-42.4672 14.9072-64.8376 27.490404 16.18-3.752 29.364-3.536 38.0352 2.6592-4.5696 8.24-8.6376 17.8352-12.0984 28.848-17.0744 54.3376-100.5424-64.461604-151.252-4.204-32.14 38.1904 8.8456 75.072-44.115998 140.6304 28.466398-3.312 36.087998-7.576 49.932798-28.968 8.352-12.904 22.816-17.68 35.7344-17.16-10.1744 8.9648-20.6288 24.2832-30.568 47.916 15.8656-14.8224 35.9416-30.944 57.2824-32.004.7296 5.0832-1.9264 10.992-9.6064 17.1344-49.4072 39.5112-111.511198 68.9976-108.111198 158.8528 4.4464-9.0136 9.3168-16.248 14.059198-22.8936 4.784 23.6656 22.56 43.04 74.392 32.3856-37.5424-5.1256-61.0144-47.6688-36.284-66.0224 50.1728-37.2352 103.056 1.1488 215.92-60.2736 1.98-1.0768 3.888-1.992 5.7312-2.768-1.7968 15.68-9.8936 31.872-17.8896 45.712 11.408-8.304 20.332-16.1176 27.1424-23.4096 1.712 20.912-9.3984 43.72-20.3144 62.6144 34.608-25.192 48.952-46.3808 50.5656-62.7376 7.4672 29.3424-1.516 76.4376-20.024 98.7936 62.0424-31.5464 85.2864-61.7016 87.808-152.5312 1.3296-47.8592-52.984-48.4288-45.148-81.0752 9.556-39.8048 5.4144-67.752-6.052-86.3576-15.68-39.784004-63.992-47.792004-119.508-47.538404zm-154.424 23.0456c-28.088-.12-35.6536 28.297604-27.2608 55.452804 13.7168-41.203204 56.3312-35.392 88.936-27.4936-26.6256-20.004004-46.9656-27.896004-61.6768-27.960004zm203.676 24.593604c14.9144 17.096 23.4984 34.416 8.084 52.5856-21.2496-13.3416-21.588-31.4016-8.084-52.5856zm59.5952 38.88c2.924-.0104 6.224.28 9.9784.872-1.3648 24.4048-11.52 26.4-37.3072 25.7232 6.668-17.7168 11.5328-26.5408 27.328-26.596zm-67.7416 32.2528c7.7216.08 16.2064 2.272 24.4784 7.1344 35.72 20.9968 17.5472 58.6512-3.28 59.824-12.1392.684 1.1544-19.0736-12.936-30.7808-12.2064-10.1424-30.8768 10.024-36.1632-4.624-6.5744-18.1544 8.168-31.7568 27.9016-31.5536zm48.144 196.9344c-19.356 22.26-47.112 48.08-79.5552 25.128 13.3 36.5144 55.096 56.372 79.5544-25.128z" fill="#fff" stroke-width=".8"/></svg>