<svg height="512" viewBox="0 0 512 512" width="512" xmlns="http://www.w3.org/2000/svg"><circle cx="256" cy="256" r="246" stroke="#fff" stroke-width="10"/><path d="m254.5987 70.2337c-8.1099.0765-16.2 1.1187-22.5504 3.0708-6.3513 1.953-10.6299 4.8555-12.3084 7.353-6.4197 9.5553-8.1684 17.5671-7.29 24.867.8793 7.299 4.5918 14.328 10.9431 21.0987 8.8614 9.4455 22.851 17.829 38.5713 24.2595-7.0524-13.2777-10.6992-25.9362-9.3213-38.4453 1.6434-14.9301 10.7604-27.9693 26.4159-39.3912-.567-.1566-1.0674-.3393-1.665-.4797-6.5196-1.5327-14.6844-2.4084-22.7952-2.3328zm34.011 15.7149c-13.1742 9.4086-18.7983 18.5481-19.8675 28.26-1.3266 12.0546 4.8393 27.576 18.7983 46.9575l12.6207 17.5212c11.34-7.8003 22.5108-11.448 33.1038-11.6631a49.068 49.068 0 0 1 5.2992.18c13.9896 1.2312 26.1423 7.8966 37.2762 15.6807l-9.2808 13.2768c-10.1007-7.0614-19.791-11.9763-29.4156-12.8232-9.6237-.846-19.8396 1.8396-32.8167 12.4542l-10.2546-12.5388a92.6847 92.6847 0 0 1 5.2416-3.987l-20.466-5.5503c-25.8237-7.0047-51.1569-18.837-67.2678-36.0108-8.0559-8.586-13.8312-18.7722-15.2127-30.2463-.5121-4.2534-.387-8.6238.378-13.0518-61.569 25.8867-105.4458 90.9513-105.4458 167.6898 0 99.6759 74.0214 179.6733 164.7 179.6733s164.7-79.9974 164.7-179.6733c0-87.4107-56.9268-159.6843-132.0912-176.148zm-109.8747 81.0756c12.4848.2538 25.7733 5.2533 39.1923 16.2297l-10.2546 12.5388c-12.9771-10.6146-23.193-13.3011-32.8167-12.4542s-19.314 5.7618-29.4156 12.8232l-9.2808-13.2768c11.1339-7.7841 23.2866-14.4495 37.2762-15.6816a49.068 49.068 0 0 1 5.2992-.1791zm-1.935 36c24.2595 0 44.1 19.8405 44.1 44.1s-19.8405 44.0982-44.1 44.0982c-23.7474 0-43.2477-19.0125-44.0613-42.57a29.6595 29.6595 0 0 1 0-3.0555c.8136-23.5575 20.3139-42.5727 44.0613-42.5727zm158.4 0c24.2595 0 44.1 19.8405 44.1 44.1s-19.8405 44.0982-44.1 44.0982c-23.7474 0-43.2477-19.0125-44.0613-42.57a29.6595 29.6595 0 0 1 0-3.0555c.8136-23.5575 20.3139-42.5727 44.0613-42.5727zm-158.4 16.1982c-1.2402 0-2.457.0873-3.6531.2412 11.0511 4.3398 18.9531 15.138 18.9531 27.6606s-7.902 23.319-18.9531 27.6597c1.1961.153 2.4129.2403 3.6531.2403 15.5052 0 27.9-12.3948 27.9-27.9s-12.3948-27.9018-27.9-27.9018zm158.4 0c-1.2402 0-2.457.0873-3.6531.2412 11.0511 4.3398 18.9531 15.138 18.9531 27.6606s-7.902 23.319-18.9531 27.6597c1.1961.153 2.4129.2403 3.6531.2403 15.5052 0 27.9-12.3948 27.9-27.9s-12.3948-27.9018-27.9-27.9018zm-256.2714 2.7054c-12.7773 2.205-21.1194 6.669-26.1585 11.8305-7.1703 7.3458-8.9262 16.6779-6.651 27.2952 3.3129 15.462 16.3386 31.7025 32.4684 39.3975a211.9653 211.9653 0 0 1 -3.4875-38.3535c0-13.7583 1.323-27.1935 3.8286-40.1697zm354.1428 0a211.8195 211.8195 0 0 1 3.8286 40.1697c0 13.1175-1.2051 25.9407-3.4875 38.3535 16.1298-7.695 29.1555-23.9355 32.4684-39.3975 2.2752-10.6173.5193-19.9494-6.651-27.2952-5.0391-5.1615-13.3812-9.6255-26.1585-11.8305zm-270.6714 11.6946c-7.5519 0-13.5 5.949-13.5 13.5018 0 2.9367.9072 5.6232 2.4507 7.8192l21.1905-16.785c-2.4588-2.7891-6.0606-4.536-10.1412-4.536zm158.4 0c-7.5519 0-13.5 5.949-13.5 13.5018 0 2.9367.9072 5.6232 2.4507 7.8192l21.1905-16.785c-2.4588-2.7891-6.0606-4.536-10.1412-4.536zm-88.569 44.955c7.2 5.706 12.5244 9.8856 16.4052 12.3462 3.8817 2.4615 5.904 3.0204 7.3638 3.0204 1.4607 0 3.483-.5589 7.3638-3.0204 3.8808-2.4606 9.2052-6.6402 16.4052-12.3462l10.062 12.6927c-7.2 5.706-12.6756 10.0872-17.7948 13.3335-5.1183 3.2454-10.296 5.5386-16.0362 5.5386-5.7393 0-10.917-2.2932-16.0362-5.5386-5.1192-3.2463-10.5948-7.6266-17.7948-13.3335zm-74.1537 45.99h195.8454l-3.9024 10.8414s-7.4997 20.9547-22.6476 41.9976-38.8224 43.3746-71.3727 43.3746-56.2248-22.3308-71.3727-43.3737c-15.147-21.042-22.6476-41.9976-22.6476-41.9976zm63.7227 16.1559v28.8h28.8v-28.8z" fill="#fff" stroke-width=".9"/></svg>