<svg height="512" viewBox="0 0 512 512" width="512" xmlns="http://www.w3.org/2000/svg"><circle cx="256" cy="256" r="246" stroke="#fff" stroke-width="10"/><path d="m291.1442 269.53818c-26.70296-47.02308 46.21074-47.59138-3.85261-108.15172 13.40392 37.43577-61.72605 38.44143 3.85261 108.15172zm-1.15498-222.310941c-54.80011 26.645986 6.17687 104.783661-51.00541 131.322021 15.04432-29.71574 21.20409-81.2012-27.20702-116.0864v.0016c39.35544 63.17151-27.13222 69.28796 7.32043 161.12237-11.69216-27.70855-40.00413-47.60456-32.81924-100.46876-47.32929 71.27077-.31012 104.6395 20.2655 150.41352l47.71322-47.71944c-1.17199-11.12395 2.43431-20.78248 7.07352-27.88719 5.30694-8.12732 11.42296-14.01156 14.62999-19.01387 5.60418-8.83562.46337-25.15144.41773-36.88631 15.02039 10.53591 24.43684 18.35106 30.87966 30.78182l14.0259-14.02746c-12.81535-10.20931-47.46597-41.63765-31.29428-111.551901zm-113.56137 3.275092c-4.35302.109682-8.88903 1.530404-13.44977 4.509657 26.05304 5.029633 39.55491 42.284182 36.25894 83.687992 23.56805-40.5997 3.79709-88.869455-22.80917-88.197649zm225.23749 21.55908c-4.33643-.02722-9.25588 2.329955-14.45295 8.070485 12.85499-1.107196 13.38873 13.489904 4.66494 28.294064l26.50666-6.60765c1.45504-14.379035-5.75263-29.68808-16.71865-29.756899zm-75.59576 9.037948c5.83168 32.523631-11.72472 51.433341-26.6107 20.922391 15.29112 56.90469 65.6481 63.92394 26.6107-20.922391zm18.47655 19.812051c4.7334 5.88466 7.55695 15.87686 8.3469 26.25354l11.43099-11.43099c-4.93809-5.72703-11.46113-10.78958-19.77789-14.82255zm80.7887 9.41686-55.34579 13.79607-58.551 58.55877c1.40146 4.10619 2.63463 8.66932 3.73785 13.87527.81406 12.18229-4.11976 21.929-8.80811 29.30967-4.68837 7.38066-8.95814 13.09515-10.53651 18.32281-2.01619 6.94224 2.09334 17.42967 6.22562 27.30796l4.08727-4.08882.0233.0326 84.25945-84.25946-.0279-.0388 19.30426-19.30424zm-298.66228 80.28401c13.4039 37.43603-61.725761 38.44088 3.85277 108.15102-26.70291-47.02298 46.21048-47.59115-3.85277-108.15102zm130.66669 46.17584-79.21561 79.22492-24.68819-24.68819-14.08802 14.06628 33.90162 33.90007 5.00815 5.00814-5.3001 4.7193c-24.93658 22.13937-55.13561 47.95161-82.291919 69.30026l26.455409 26.45386c21.57048-27.03108 47.94313-56.72532 70.25996-81.42074l4.69756-5.21002 4.98485 4.96466 33.25406 33.22922 14.06473-14.06473-26.54393-26.54393 75.65012-75.65943c-17.39366-10.17732-27.70989-21.88858-36.14869-43.27967zm-78.20621 16.17669c-15.58186 12.31072-18.79838 23.06133-16.81183 33.1904l15.80088 15.80087 13.83023-13.83178c-13.87896-7.44737-23.98031-14.26862-12.81928-35.15949z" fill="#fff" stroke-width="25"/></svg>