<svg height="512" viewBox="0 0 512 512" width="512" xmlns="http://www.w3.org/2000/svg"><circle cx="256" cy="256" r="246" stroke="#fff" stroke-width="10"/><path d="m315.47253 116.02979s14.57099 54.28608-41.68659 107.01456l-9.32042-22.8632c-2.93329.11588-1.31275 9.04478-3.26873 11.21364l-36.56815 14.90739c-2.91483-.18322-7.98355-7.66322-10.17695-5.73237l9.32044 22.8632c-77.08793 1.63123-104.62306-47.36989-104.62306-47.36989-30.669032 85.59029-82.227089 119.91287-82.227089 119.91287 88.862359-53.62289 110.806299 3.30541 110.806299 3.30541 60.05618-37.34417 74.49028 8.84447 74.49028 8.84447 53.53927-29.27717 75.78535 25.87572 75.78535 25.87572s-22.65353-54.98679 36.09523-71.48502c0 0-21.97182-43.11581 47.07637-58.40241 0 0-24.10155-56.04874 76.92756-79.82631.0222.001-60.85412 11.49264-142.63054-28.25806z" fill="#fff"/></svg>