<svg height="512" viewBox="0 0 512 512" width="512" xmlns="http://www.w3.org/2000/svg"><circle cx="256" cy="256" r="246" stroke="#fff" stroke-width="10"/><path d="m140.81652 89.838194c-7.6494.104734-26.08547 3.163924-47.058008 6.563023l7.239988 20.972543c41.83463-5.59185 41.58708-6.71632 44.64532-2.44888 30.60141 42.6925 56.74973 83.92825 71.10116 128.55928 31.04225 2.29463 68.10863 8.70246 93.60378 22.71018 32.4514-34.60036 85.38024-53.14021 129.01059-68.26859 11.57503-4.01417 24.03744 7.04576 40.4369 9.58603l4.61592-16.43755c-4.63877-6.48875-26.47584-15.79296-35.55058-15.91768-3.84184-.0533-14.75419 2.9992-18.06093 4.13319-54.25229 10.47532-98.41869 12.55096-154.43433 31.01559-35.44585-36.09901-72.55697-71.80384-115.14283-108.35511-8.79577-7.550377-9.22708-12.263415-20.40698-12.111074zm79.85504 171.018506c-14.17148 24.92673-23.1672 30.94419-42.57729 43.95979-17.05453-4.45597-34.07098-8.99762-54.04093-6.65158-20.01089-2.67072-28.169676 4.73684-52.448959 13.23459-7.357099-2.47553-16.149056.94928-21.801844 3.35911-9.28992 4.7378-20.320332 11.69405-17.867648 23.41095 3.759956 12.10346 19.254899 8.47204 26.33112 5.42999 5.946044-2.83735 11.477912-8.35684 15.57397-12.7014 20.356512.54176 29.396021-.12187 50.451401-9.4375 15.94149 6.47543 36.10186 9.04998 54.17136 9.49463 1.11426-.82938 2.25988-1.61579 3.43433-2.35747 10.45056-6.56969 23.12435-9.08046 34.57465-4.54166 11.44935 4.53975 18.79883 14.98936 21.68283 26.84622 1.70336 7.00005 1.98138 14.62089.81502 22.41216 4.52261 12.68997 7.9598 24.34689 16.09669 39.90562-4.94441 21.68949-3.37435 43.11525-2.15372 65.07038l-21.69044 8.1407-4.13224 10.53912c32.09989 4.90797 49.2012 2.31666 66.85182 0l-7.74748-11.33319-15.58539-7.86173c3.33626-21.90562 9.16709-43.55989 5.94699-66.12153.52368-16.85649-5.0358-33.71202-8.32922-50.56851 20.28415-24.98291 9.87739-42.59919 24.08886-69.77866 2.05404-3.92052 4.34861-7.71025 6.87056-11.34747-26.0531-10.79714-51.87578-17.93715-78.51349-19.10256zm-17.28114 77.92412c-3.85993.11426-8.03787 1.48532-12.37005 4.20841-6.9296 4.35694-13.69447 12.19201-17.86194 22.3398-4.16651 10.14779-4.83015 20.40412-2.91732 28.26584 1.91283 7.86268 5.98889 12.96133 11.46077 15.13028 5.47189 2.16895 12.00825 1.27871 18.93784-3.07728 6.9315-4.35694 13.69733-12.19391 17.8648-22.3417 4.16651-10.14779 4.82824-20.40221 2.91541-28.26489-1.91282-7.86268-5.98793-12.96228-11.45887-15.13123-2.05183-.81407-4.25411-1.19778-6.56968-1.12923z" fill="#fff" stroke-width=".952129"/></svg>