<svg height="512" viewBox="0 0 512 512" width="512" xmlns="http://www.w3.org/2000/svg"><circle cx="256" cy="256" r="246" stroke="#fff" stroke-width="10"/><path d="m261.1458 57.541181c-22.25264 15.054291-43.94947 27.026628-67.54523 37.220723-2.33404 14.255476-3.24122 28.321316-3.32497 42.349386 23.73697 12.65128 46.05365 26.96915 68.41219 40.74847l5.78379 3.56633-2.8176 6.14256c-9.95026 21.81506-19.97442 38.65744-37.96617 57.71483l-4.25596 4.52523-5.30352-3.2051c-27.07096-16.39824-61.13994-31.79159-93.07684-44.29181l5.60399-14.26369c30.20382 11.82209 61.66374 26.53404 88.79134 42.28369 12.6398-14.11919 20.79212-27.38293 28.49865-43.42157-35.66333-22.09255-70.71092-43.93059-110.57766-57.98739-18.89237 16.71267-30.95501 37.14355-42.643292 58.07605 6.833829 20.93086 5.415177 43.82058-5.415177 63.59303 39.883159-.48683 80.451009 1.83079 123.693609 8.42325l4.64511.68716 1.46709 4.46612c7.26566 21.72311 9.67934 44.66947 6.83465 68.624l-.81031 6.92249-6.95041-.15353c-33.25622-.70932-65.82199-1.75525-97.01508.19212 1.34148 13.0864-1.89647 25.42736-6.34124 36.96457 11.02328 23.43074 22.4784 45.81063 39.64507 65.17753 33.8818-15.63965 60.3945-25.68679 95.1761-35.17896-2.79708-11.26383-5.67954-21.64101-9.11041-27.60131-4.20505-7.30671-8.37973-10.71952-14.65448-12.52485-12.54784-3.61231-36.56065 1.8825-76.26401 15.97132l-5.12538-14.4443c40.15162-14.24727 65.43367-22.07941 85.61415-16.27181 7.498 2.15753 13.86141 6.57112 18.9367 12.69234 11.89353-6.26161 23.32812-13.78424 34.52463-22.16315 10.13089-37.69935 30.61431-66.84411 54.69855-92.03749-5.93239-11.09964-10.84349-22.33391-16.8818-33.34242l-2.7864-5.06379 4.1049-4.07617c19.10829-18.98924 38.86515-32.96805 59.00376-43.09072l6.89212 13.72348c-17.20116 8.64492-34.0731 21.27403-50.7324 37.06884 10.18835 19.62961 18.27746 37.35455 32.39337 53.22078 30.77686-22.26822 61.52663-42.1901 95.92318-61.52251-11.46086-25.0177-25.73358-47.90987-46.20962-65.23664-26.43552 10.9847-51.33335 14.27683-76.03087 10.08983-11.67678 10.87798-24.70653 18.25037-40.02764 19.1592-23.82235 1.41372-49.86627-12.92222-81.41977-47.3475l5.63027-5.16807.014-.023.005.005 5.64834-5.18366c30.13157 32.87446 52.3292 43.40516 69.22494 42.40356 15.19961-.90308 28.7589-12.27363 42.43148-29.06758-23.66648-26.1154-52.68562-49.209539-80.30992-69.344048zm-167.634059 209.016319c-4.975132.0181-9.937129.0804-14.8942.18308 1.373498 21.5819 4.525236 42.10637 11.536396 60.53242 37.666513-4.7781 76.603913-4.07205 115.881183-3.17719 1.24625-17.46222-.20771-34.22661-4.97349-50.25376-37.37753-5.38973-72.73052-7.41344-107.549889-7.28455z" fill="#fff" stroke-width=".862726"/></svg>