<svg height="512" viewBox="0 0 512 512" width="512" xmlns="http://www.w3.org/2000/svg"><circle cx="256" cy="256" r="246" stroke="#fff" stroke-width="10"/><path d="m152.80384 238.4666.21443 19.1882 4.21966 2.81413-1.62771 23.3823 30.22361 3.32872-30.68246 2.07241-1.33821 15.77175 203.00208-.67665 18.42566-12.80336.0981-4.21049 23.27276-14.60539-15.12098-14.0606-21.58004-2.27317 15.11977-1.93523-22.45948-12.53234zm213.74965-37.33286 1.17995-18.16451-4.27311-3.00888 3.44318-21.97924-10.81323-4.31345 11.69652-.75674 2.57766-14.80563-221.93512-13.38051-20.49998 10.59126-.41325 3.97389-25.77791 11.89634 15.0211 14.54261 22.74277 3.92685-16.19323.58513 22.9238 13.70165zm-113.21277-145.137703c-4.0472-.128583-3.6228 9.95443-5.65234 18.267578-.11572 5.429775-.34375 16.289063-.34375 16.289063l5.75976 4.541016-5.91406.36914s-.21971 11.265976-.39453 20.207026l22.72851 1.39454c-.13708-14.93416-.26256-30.330304-.41015-44.773441-1.82527-8.128617-7.72799-10.229617-11.16992-13.521484-1.98667-1.900038-3.4703-2.737435-4.60352-2.773438zm-8.33203 150.820313c-.12404 6.29836-.23937 11.78516-.36523 18.15429l25.83984.46094c-.047-5.5595-.0936-11.03508-.14063-16.59375zm26.27734 112.83789-28.55273.0996c-.12128 5.87405-.27019 13.69626-.38477 19.14843.007.0658.0129.12952.0195.19532.20374 2.01388.39455 4.00633.57227 5.97851.001.0142.003.0288.004.043.17623 1.95741.33852 3.89634.49023 5.81445.12448 1.57387.23706 3.12534.3457 4.67383.0247.35265.0542.71309.0781 1.06446.002.0251.002.051.004.0762.11951 1.75774.22817 3.49814.32813 5.22461.006.1084.0133.21984.0195.32812.00059.0103.001.0209.002.0312.0949 1.6593.17815 3.29989.25586 4.93164.009.18483.0207.37411.0293.5586.001.0304.002.0614.004.0918.0658 1.41829.12048 2.81836.17382 4.2168.0177.46379.0383.93287.0547 1.39453.0489 1.37982.0896 2.74599.12696 4.10742.0108.39191.0253.78732.0351 1.17774.0381 1.51206.0671 3.01134.0918 4.50195.1565 9.45738.0351 18.47271-.24805 27.22656v.002c-.10722 3.31329-.23419 6.59121-.38672 9.83203-.00042.009-.002.0183-.002.0273-.35963 7.63602-.82108 15.10806-1.3418 22.48633-.00078.011-.001.0222-.002.0332-.24425 3.45882-.50457 6.89501-.76367 10.33008v.002c-1.20932 16.03519-2.28005 31.36681-3.00574 48.17601l33.76132-.0157-1.11105-116.36148-.006-.75-.004-.40625-.34179-36.20508-6.26758-3.73437 4.94531-3.89258c-2.21629-.63312-4.06107-1.50757-5.07812-2.73437l-.002-.002h.008c1.01673 1.2264 2.86238 2.10128 5.07812 2.73438l1.23438-.97266c-.0575-6.2393-.11014-12.88011-.16407-19.43359z" fill="#fff"/></svg>