<svg height="512" viewBox="0 0 512 512" width="512" xmlns="http://www.w3.org/2000/svg"><circle cx="256" cy="256" r="246" stroke="#fff" stroke-width="10"/><path d="m195.471 88.2408 62.8705 50.1592 54.3585 2.996-.721 13.0599-112.9632-6.2342-83.146-3.4335 159.096 47.621-138.404 172.725-10.171-12.3585-34.454 67.6375 174.083-141.946 36.267 8.1144-27.146 28.4158-8.9908-7.5474-40.096 58.8875 162.1361-98.1085-81.7901-22.687 70.154-57.2026c.7924.322 1.61.6286 2.45.854 16.3268 4.3736 34.8348-11.7845 41.342-36.0731 6.5086-24.2865-1.456-47.5118-17.7835-51.8868s-34.8355 11.7614-41.3441 36.05c-1.0269 3.8332-1.6821 7.6426-2.0125 11.354l-163.7349-60.3974z" fill="#fff" stroke-width=".7"/></svg>