<svg height="512" viewBox="0 0 512 512" width="512" xmlns="http://www.w3.org/2000/svg"><circle cx="256" cy="256" r="246" stroke="#fff" stroke-width="10"/><path d="m228.72 71.68c-12.64.392-29.36 9.528-40.56 14.808 12.16 1.784 26.8 5.336 36.16 11.12 10.16-6.288 15.04-13.528 16.88-21.608-3.12-3.28-7.52-4.472-12.48-4.32zm-63.44 27.496c-12.88 1.328-32.56 9.136-40.32 30.56 24.08-4.256 51.92-11.816 69.68 5.064 12.96-4.52 16.56-16.52 20.16-25.96-15.84-7.728-33.28-9.056-49.52-9.664zm213.68 10.136c-13.2 14.424-14.88 20.824-17.6 32.928l9.36 13.52 14.72-13.6c1.2-12.104.96-14.584-6.48-32.848zm-37.6 27.728c-1.2 12.88-.8 24.64.96 34.64l16.72 16.4 3.92-22.56-8.72-18.32c-3.92-3.36-8.24-6.8-12.88-10.16zm-182.64 1.36c-20.88.08-44.56 9.84-58.32 15.92-32.648 19.84-43.392 47.2-45.952 77.92 27.456-45.12 81.472-66.08 127.792-66.96 5.44-5.6 5.68-11.36 5.04-17.2-7.52-7.12-17.68-9.76-28.56-9.68zm246.48 9.84c-4.8 1.12-9.2 2.48-13.44 3.92l-17.04 15.52-4 22.64 21.12-9.04c5.28-8.8 9.92-20.08 13.36-33.04zm-222.88 31.44c-61.92 1.28-112.008 37.92-128.888 90-1.176 21.84.608 41.52 23.552 55.44-2.168-66.4 54.056-113.28 109.656-130.8 2.56-5.6-.48-10.56-4.32-14.64zm147.52 1.68c-.32 36.96 10.88 38.4 22.4 45.04l4.24-23.92-16-15.52c-3.36-1.84-6.88-3.76-10.64-5.6zm70.32 12.32c-2.96.32-6 .56-8.88.88l-23.04 10.08-4.32 24.32c16.96-1.2 25.28-3.44 36.24-35.28zm-205.76 13.36c-65.84 20.32-118.816 81.68-97.512 141.6 9.08 25.92 28.072 29.04 44.632 31.68-18.48-62.56 18.96-132.88 70.08-158.08-2.96-7.68-11.04-13.28-17.2-15.2zm33.92 23.92c-49.28 21.12-88 83.28-76.56 133.44 11.52-13.52 29.28-20.72 46.96-17.84 1.2-2.24 2.72-4.24 4.48-6.08-.96-24.08 7.44-49.76 11.84-71.04 6.16.96 12.32 1.84 18.48 2.72 10.48-8.32 23.12-14.72 37.12-18.32-2.24-6.64-4.96-10.56-8.56-16.32-9.12-6.24-19.2-10.64-33.76-6.56zm81.36 5.6c-.56 5.2-.72 9.92-.56 14.4 13.04 1.28 25.28 4.88 36.16 10.32l-7.36 22.8 11.76 2.88 5.76-19.84c23.04 15.12 37.76 39.04 37.76 65.68 0 3.6-.24 7.12-.8 10.56 4.88.8 10.16 3.04 13.68 5.52.96-5.28 1.52-10.64 1.52-16.08 0-33.6-19.28-62.88-48.24-80.16.56-3.92 1.12-8.16 1.76-12.88l-11.84-1.84c-.4 3.12-.8 6-1.2 8.8-11.76-5.36-24.72-8.88-38.4-10.16zm-14.8 4.8-12.8 2.48c4.8 11.76 4.88 23.28 4.16 34.72 4.08.48 8.24.88 12.32 1.2-2.48-12.32-4.48-24-3.68-38.4zm-68.48 44.32-2.32 11.12 117.04 9.44 1.28-8.64c-40.8-2.56-79.28-6.64-116-11.92zm11.76 27.36c-7.36 0-12.72 5.36-12.72 11.6s5.36 11.6 12.72 11.6 12.72-5.36 12.72-11.6-5.36-11.6-12.72-11.6zm41.04 3.92c-7.84 0-13.84 5.92-13.84 13.28s6 13.28 13.84 13.28 13.84-5.92 13.84-13.28-6-13.28-13.84-13.28zm40.72 2.72c-7.36 0-12.72 5.36-12.72 11.6s5.36 11.6 12.72 11.6c6.72-.08 12.56-5.68 12.72-11.6 0-6.24-5.36-11.6-12.72-11.6zm35.2 0c2.72 13.2 3.04 24.48 2.72 36.32 4.88 4.48 7.68 2.56 11.84-.8-2.96-11.52-4.48-24.48-2.08-34.64zm-133.2 27.44c-6.72 0-11.92 5.2-11.92 11.6s5.2 11.6 11.92 11.6 11.92-5.2 11.92-11.6-5.2-11.6-11.92-11.6zm36.8 6.4c-6.08 0-10.8 4.64-10.8 10.48s4.72 10.48 10.8 10.48 10.8-4.64 10.8-10.48-4.72-10.48-10.8-10.48zm72.96 1.04c-4.8-.16-8.72 4.8-13.2 12.56-3.76 6.72-6.08 15.2-6.4 22.08-.8 18.72 9.6 42.32 24.96 51.04 9.12 1.84 17.92-3.52 26.56-3.36 7.28-1.28 20.72 9.28 26.4 6.08h.08c8.16-4.48 14.8-13.36 18.88-24.08 4.08-10.64 5.52-22.88 4.08-32.96-.88-5.84-3.68-12.72-7.76-18.08s-9.12-9.04-14.08-10.08c-10.8 4.4-18.88 15.6-28.48 15.6-11.92 2.08-22.32-18.32-31.04-18.8zm-36.16 1.84c-6.8 0-11.6 4.8-11.6 10.24s4.8 10.24 11.6 10.24c1.44 0 2.8-.24 4-.64 1.28-5.12 3.2-10.32 5.84-15.12-2-2.8-5.52-4.72-9.84-4.72zm-105.04 3.92c-15.68.16-30.32 10.72-35.6 27.52-6.4 20.64 4.32 41.76 23.52 47.76 16.16 4.96 33.36-2.16 42.32-16.72-7.44-4.64-12.48-12.64-12.48-21.84 0-5.2 1.6-10 4.32-14.08-9.28-3.52-16.08-12.08-16.88-22.32-1.76-.24-3.44-.32-5.2-.32zm44.88 25.12c-7.36 0-12.72 5.36-12.72 11.6s5.36 11.6 12.72 11.6 12.72-5.36 12.72-11.6-5.36-11.6-12.72-11.6zm42.4 4.88c-8.48 0-14.4 5.76-14.4 12.16s5.92 12.16 14.4 12.16 14.4-5.76 14.4-12.16-5.92-12.16-14.4-12.16zm24.16 26.64c-4.32 6.08-11.36 10.48-19.28 11.68 8.72 1.04 16.64 1.2 24.72.56-2.16-3.84-4-8-5.44-12.24zm-53.84 5.92c-7.36 0-12.72 5.36-12.72 11.6s5.36 11.6 12.72 11.6 12.72-5.36 12.72-11.6-5.36-11.6-12.72-11.6z" fill="#fff" stroke-width=".8"/></svg>