<svg height="512" viewBox="0 0 512 512" width="512" xmlns="http://www.w3.org/2000/svg"><circle cx="256" cy="256" r="246" stroke="#fff" stroke-width="10"/><path d="m256 51.7c-10.4778 0-20.6865 6.6888-28.8054 19.4463-8.118 12.7584-13.4946 31.176-13.4946 51.6537s5.3757 38.8953 13.4946 51.6537c8.118 12.7575 18.3276 19.4463 28.8054 19.4463s20.6865-6.6888 28.8054-19.4463c8.118-12.7584 13.4946-31.176 13.4946-51.6537s-5.3757-38.8953-13.4946-51.6537c-8.118-12.7575-18.3276-19.4463-28.8054-19.4463zm-72 117.9c-28.8 0-43.2 129.6-43.2 129.6 0-14.4-14.4-57.6-28.8-86.4-14.4 0-68.4018 14.4-68.4 23.4v19.8l54-14.4s28.8 115.2 43.2 115.2 43.2-100.8 43.2-100.8l14.4 210.6.22767 28.61625c38.42401 8.93123 76.38891 9.08975 113.88059.20559l1.09174-28.82184 14.4-210.6s28.8 100.8 43.2 100.8 43.2-115.2 43.2-115.2l54 14.4v-19.8c.0243-9-54-23.4-68.4-23.4-14.4 28.8-28.8 72-28.8 86.4 0 0-14.4-129.6-43.2-129.6 0 0-9.8118.018-23.1543 1.566-1.8828 4.2525-4.0077 8.2683-6.3738 11.9853-10.1214 15.9057-25.1136 26.9487-42.4719 26.9487-17.3574 0-32.3496-11.043-42.471-26.9487-2.367-3.717-4.491-7.7328-6.3747-11.9853-13.3425-1.548-23.1543-1.566-23.1543-1.566z" fill="#fff" stroke-width=".9"/></svg>