<svg height="512" viewBox="0 0 512 512" width="512" xmlns="http://www.w3.org/2000/svg"><circle cx="256" cy="256" r="246" stroke="#fff" stroke-width="10"/><g fill="#fff"><path d="m250 35.054688a169.6644 214.94475 0 0 0 -169.664062 214.945312 169.6644 214.94475 0 0 0 169.664062 214.94531 169.6644 214.94475 0 0 0 169.66406-214.94531 169.6644 214.94475 0 0 0 -169.66406-214.945312zm-.01367 16.875c72.67223 0 131.42773 58.727262 131.42773 131.400392s-58.7555 131.42773-131.42773 131.42773c-72.67493 0-131.40039-58.7546-131.40039-131.42773s58.72546-131.400393 131.40039-131.400392zm125.9375 284.589842c-5.4531 24.92998-28.79323 43.67774-56.78321 43.67774-21.42897 0-40.12819-11.00096-50.17578-27.33594 12.25799 5.53229 30.32744 7.86056 50.51172 5.50976 23.74198-2.76299 44.58528-11.29187 56.44727-21.85156zm-255.70703.54102c11.86199 10.55969 32.70529 19.08856 56.44726 21.85156 20.18428 2.3508 38.25373.02253 50.51172-5.50977-10.04759 16.33499-28.74485 27.33594-50.17383 27.33594-27.98987 0-51.33206-18.74776-56.78515-43.67773zm130.33203 68.03711c23.88267.48712 51.60048 10.97996 59.32617 30.74218-19.26968-7.70003-40.26473-8.34506-59.41602-8.40234-19.20008.60222-45.63039.97017-60.33398 8.40234 11.61129-22.72577 38.17225-30.62786 60.42383-30.74218z" stroke-width="36"/><path d="m178.76143 94.443744v38.916226h76.76593v7.09396h-27.79136v14.03155h-7.09242v-14.0323h-38.78645l16.46332 20.41345h68.48777v7.0932h-46.33128v14.03231h-7.09211v-14.03231h-14.95731v62.08149h22.21563v-16.98528h-9.06121v-7.09245h28.14623v-12.77597h-14.38724v-7.09282h36.90008v7.09321h-15.41968v12.77445h27.81411v7.09244h-12.3118v16.98528h9.98741v7.09321h-24.17416l-1.01941 28.09878-7.09327-.26076 1.00809-27.83802h-53.90839v-.12943h-.0836l-10.88854 35.23981h30.30557l3.72354-26.83029 7.02185.97282-3.59372 25.85709h110.23883l-10.88875-35.23943h-11.3982v-75.99537l19.6658-24.38669v-42.177774h-24.44597v19.903334h-14.88621v-19.903716h-24.71842v19.903336h-14.62434v-19.903336h-24.71916v19.903336h-14.61313v-19.903336zm48.97457 118.612296v16.98528h27.49532v-16.98528z"/></g></svg>