<svg height="512" viewBox="0 0 512 512" width="512" xmlns="http://www.w3.org/2000/svg"><g stroke="#fff" stroke-linecap="round"><circle cx="256" cy="256" r="246" stroke-width="10"/><path d="m255.93714 61.265077c-46.88839 24.149146-88.52233 89.370793-102.13256 140.495573 27.01976 1.75718 48.82662 10.79559 65.48901 25.68998l7.77252-8.49284c-11.10604-10.87286-25.47982-19.90363-44.13258-28.90355 10.55974-26.26776 26.65815-66.03192 47.13471-68.34707 8.0114-.90607 16.58912 3.93296 25.92466 17.54569 29.21416-48.57978 56.95679 15.577 73.05706 50.80138-18.27134 9.90766-32.58725 19.00419-43.8282 30.00031l7.22879 8.12803c16.38924-14.76697 38.07427-24.44755 65.41466-26.37545-15.17587-50.91075-54.08864-115.197858-101.92807-140.542053zm-70.27103 163.011483c-1.82381 3.05758-3.61789 6.24395-5.36758 9.59425-21.30851 40.78989-36.02559 102.9677-36.55524 186.11063 27.29542 15.73134 53.5656 26.08505 79.70261 30.80196-29.56392-20.28669-50.27857-67.36514-50.27857-122.21331 0-38.2832 10.09295-72.77781 26.24069-97.02523-4.24555-2.80815-8.81265-5.23838-13.74191-7.2683zm140.68379.29047c-4.87347 2.06281-9.38504 4.50699-13.57229 7.29849 16.02282 24.22993 26.02924 58.59126 26.02924 96.70457 0 54.81402-20.69053 101.86863-50.22281 122.17613 25.71645-4.66194 51.99895-14.83405 79.6608-30.76942-.53132-82.92058-15.24889-145.04148-36.5599-185.85969-1.73886-3.33281-3.51974-6.5046-5.33271-9.55008z" fill="#1a1a1a" stroke-dasharray="5.94848 11.897" stroke-width="5.94848"/></g></svg>