<svg height="512" viewBox="0 0 512 512" width="512" xmlns="http://www.w3.org/2000/svg"><circle cx="256" cy="256" r="246" stroke="#fff" stroke-width="10"/><path d="m376.4 86.048c-2.24 0-4.24.424-5.76 1.248 2.16 15.648 3.68 19.24 16.08 27.512-16.72 30.792-5.92 39.992-91.44 29.352-37.76-4.72-66.32 2.08-93.84 22.8-38.64 29.12-51.44 45.44-71.68 98.8-14.44 38.08.08 116.32-54.456 88.64-5.152-1.76-10.624-2.08-6.288 5.28 7.624 11.76 21.888 20.08 39.952 12.8 28.312-11.52 25.992-50.24 46.792-96.96 7.2-16.4 23.6-55.44 39.04-37.36 5.28 6.24 11.04 19.04 8.08 25.12-12.72 26.64-20.32 45.28-40.24 60.56 2.96 33.76 1.84 70.24-16.32 96.56l7.04 5.52c10.56-7.44 22.56-15.2 26-26 .8-15.6 3.12-17.6 1.84-50.56 13.92-13.92 28.24-25.2 40.64-48.72 23.04-6.64 37.04-25.36 56.48-43.44 3.52-3.28 6.48-6.64 9.36-9.84 6.4-12.64 2.56-27.76-2.24-42.24 12.8 6.8 18.32 18.24 19.52 28.88 10.24-.48 18.8-1.52 27.68-4.24-2.8-14.96 2.32-24.8 14.64-35.12-7.28 19.2-9.76 24.32-3.84 31.44.08-.08.24-.16.32-.16 3.84 7.76 3.76 15.28 3.92 23.52-4.16 5.68-10.32 4.16-16 4.24l-12.32 15.6c10.64-1.36 41.28-7.52 41.44-12.32.64-13.28 3.52-27.52-.8-39.84 8.24-6.08 15.76-14.88 22-23.52 8.8-12.32 11.52-22.64 21.36-39.92 2.08-3.68 26 6 30.4 4.64 6.96-2.16 11.44-5.12 10.72-12.64-.16-2.08-10.96-8.88-16.72-13.2 0 0 .96-7.68-1.2-10.616-3.36-4.6-15.84-7.536-15.84-7.536-2.32-17.28-22.16-28.384-34.32-28.28zm41.92 38.16c2.32 0 4.16 1.808 4.16 4 0 2.224-1.84 3.952-4.16 3.952s-4.16-1.728-4.16-3.952c0-2.192 1.84-3.984 4.16-4z" fill="#fff" stroke-width=".8"/></svg>