<svg height="512" viewBox="0 0 512 512" width="512" xmlns="http://www.w3.org/2000/svg"><circle cx="256" cy="256" r="246" stroke="#fff" stroke-width="10"/><path d="m318.9248 64.9c-31.7344 8.68-59.824 21.968-80.6 41.576-.56-10.016-3.6-20.1176-10.624-30.4256-.792 35.9312-40.252 83.1472-24.4 122.824.002.008-.004.0184 0 .0256 6.144 24.2912 29.8128 42.828 52.3744 46.6504-1.64-15.736-5.672-30.1656-11.576-43.776l13.7256-5.9496c6.6928 15.4296 11.136 31.9944 12.8 49.976 18.6016-2.928 33.064-18.8984 30.6264-54.0752-2.9264-42.2304-.504-91.8416 17.6744-126.824zm-100.1008 193.276c-25.0976.144-47.7224 5.896-65.448 15.9488-18.3312 10.3968-31.5544 26.0144-35.5008 44.4-2.0456 7.1496-3.224 15.4608-3.224 24.3248 0 26.04 10.112 47.28 22.8 48.4256v80.27568c98.79232 52.12714 170.32239 27.37274 240.924 0v-43.52688c.9632.12 1.952.176 2.9488.176 13.1872 0 23.8752-10.6896 23.8752-23.8752 0-12.3712-9.424-22.5384-21.4752-23.7496-2.1056-37.212-12.6784-64.08-33.5-82.776-18.792-16.8752-44.8744-26.7456-78.8736-33.424-.24 17.3864-2.972 36.048-8.6 56.224l-14.4256-4.024c5.6048-20.0904 8.1664-38.1904 8.176-54.8264-3.872-.6256-7.7968-1.2296-11.8504-1.8-8.824-1.24-17.4592-1.824-25.8256-1.7744zm-82.5488 63.3488h14.9496c0 4.4704 2.0448 9.0456 6.952 14 4.904 4.9552 12.5952 9.916 22.448 14.1248 19.7088 8.4192 47.864 13.9 79 13.9 39.32 0 73.9504-8.9576 92.676-21.0496l8.1 12.576c-22.7544 14.6928-59.2776 23.424-100.776 23.424-32.8616 0-62.64-5.6024-84.8736-15.1-11.1176-4.7488-20.3784-10.46-27.2-17.3504-6.8224-6.8896-11.2752-15.3256-11.2752-24.5248z" fill="#fff" stroke-width=".8"/></svg>