<svg height="512" viewBox="0 0 512 512" width="512" xmlns="http://www.w3.org/2000/svg"><circle cx="256" cy="256" r="246" stroke="#fff" stroke-width="10"/><path d="m256.39049 62.127961c-9.08237-.09315-18.94102 4.867221-16.92271 13.639086 10.8678 46.157093 33.30203 144.285543 48.59458 193.811643-44.24746-51.00102-145.47324-107.74645-200.712699-139.03018-18.878917-10.72031-27.542104 18.55288-10.743594 25.77221 63.809493 27.40237 156.573913 93.69594 208.351203 141.28136 49.99187 48.20645 51.15628 63.8095 89.89222 113.33561.69864-6.44305 3.49322-12.73085 8.22847-17.77661 6.98644-7.45221 16.92271-10.71255 26.16034-9.23763-44.24746-47.81831-59.69526-54.02848-94.62746-105.41764-15.60306-56.04678-42.92781-151.29527-44.40272-206.402763-.15525-6.776849-6.75356-9.905222-13.81763-9.975086zm148.8112 335.380239c-4.19186-.15526-8.53898 1.55254-11.95458 5.20101-6.13254 6.52068-5.97728 15.60306-.69864 20.64882 5.35627 4.96814 14.43865 4.58 20.57119-1.86305 6.05491-6.44305 5.89966-15.52543.62102-20.57119-2.32882-2.17356-5.35628-3.33797-8.53899-3.41559z" fill="#fff" stroke-width=".824454"/></svg>