<svg height="512" viewBox="0 0 512 512" width="512" xmlns="http://www.w3.org/2000/svg"><circle cx="256" cy="256" r="246" stroke="#fff" stroke-width="10"/><path d="m332.30592 22.133784c-13.08236 14.849813-41.75298 44.703157-42.20883 45.320962 28.84542 39.319204 75.55321 57.808734 128.24024 62.548834 3.58361-2.5017 27.09597-20.50303 32.49756-24.18801-22.39662-33.414266-40.38888-68.249288-118.52897-83.681786zm-57.93539 47.291665c-15.80535 8.21589-29.05099 17.872717-37.16601 37.294921 28.35327 50.58015 85.40186 78.01515 130.9082 79.14063 8.96825-2.4269 18.94439-9.985 27.55469-19.74805 6.28721-7.12908 11.80315-15.28464 16.08594-22.87109-54.84247-6.46168-107.65178-28.04572-137.38086-73.814458zm-39.34375 60.089851c-13.81375 13.66965-25.94531 23.83789-25.94531 23.83789s-3.25085 3.29264 8.46094 16.83203c6.4743 7.48461 20.9624 20.81039 31.14844 26.24609 12.27141 6.54854 32.56291 24.97017 67.51757 15.92969 3.12196-2.6076 10.92159-15.67569 13.45313-18.14063-35.1358-9.74411-70.47777-31.51613-94.63477-64.70507zm-37.15625 35.67968-11.20898 11.14844s14.40272 25.40757 26.12695 33.81836c24.13637 17.3151 56.74707 38.14302 83.77539 30.38477l9.3086-14.24805c-25.84519 8.62013-47.89253-5.27145-66.41797-16.07031-15.76976-9.19252-19.98141-12.77669-27.44727-21.75-6.02348-7.23969-14.13672-23.28321-14.13672-23.28321zm-22.41992 21.32422c-17.29488 17.80905-50.91563 53.95983-66.89844 75.3418 13.92677 20.02667 25.65116 36.09991 44.43555 55.29687l30.34375-10.27734 2.03516 7.16406c12.58587 44.30119 49.67317 78.0896 94.65234 94.97266 25.83383 9.69704 54.10294 13.69968 81.46875 11.0293 17.75904-4.64907 16.62815-33.35745 2.63086-51.27344-14.02685-14.95364-26.48846-31.25395-37.19727-48.53516-21.01563 1.33178-32.412 11.71662-47.33984 26.82422l-10.08203-9.95898c13.89036-14.05721 28.29487-26.55618 49.64648-30.14649-3.40528-6.16366-6.58947-12.43379-9.54883-18.79687-25.60176-7.32629-40.87803-.39848-61.66992 10.58789l-6.62109-12.53125c15.53232-8.20605 31.02388-15.14167 42.875-15.0293 11.85112.11236 15.13171.41368 18.51953.94531-2.21759-5.59707-4.26952-11.25192-6.13672-16.95898-29.26415 2.47242-57.42489-11.38335-91.40039-33.06641 0 0-.0305-.0146-.043-.0254-11.70304-10.06898-29.66992-35.5625-29.66992-35.5625z" fill="#fff"/></svg>