<svg height="512" viewBox="0 0 512 512" width="512" xmlns="http://www.w3.org/2000/svg"><circle cx="256" cy="256" r="246" stroke="#fff" stroke-width="10"/><path d="m97.424 107.708c-1.2136 23.268-1.7544 44.4864-1.8128 64.2528 5.248-2.1728 10.9624-3.4664 16.9824-3.4664 24.996 0 45.5064 20.512 45.5064 45.5096 0 24.9968-20.6216 45.04-45.5064 45.04-4.8544 0-9.56-.8024-13.9904-2.216 10.1216 98.628 39.048 133.452 70.7312 153.892 16.5416 10.672 34.3888 17.36 51.4144 26.596 13.9552 7.5704 27.3416 17.22 37.936 32.1016 10.584-14.8776 23.94-24.5264 37.8592-32.0976 16.9808-9.236 34.768-15.9232 51.2512-26.5936 31.568-20.4344 60.3904-55.256 70.508-153.8592-4.256 1.3664-8.7792 2.1784-13.5256 2.1784-24.8856 0-45.504-20.0464-45.504-45.04 0-24.9952 20.5072-45.5104 45.504-45.5104 6.104 0 11.796 1.3576 16.984 3.6064-.056-19.8056-.596-41.0672-1.812-64.392-47.5904 10.4-104.624 15.4128-161.2 15.9104h-.1304c-56.5744-.496-113.6064-5.5104-161.1968-15.9104zm243.2992 31.456-21.6936 74.544-14.356-4.176 9.2032-31.6256-68.0928 50.9168-8.952-11.976 103.8912-77.684zm-164.3152.808 65.3856 47.6096-8.8 12.0856-27.4704-20.0032 27.832 82.8112-14.1712 4.764-42.776-127.268zm112.3888 79.7216 103.5064 78.36-78.6-.384.072-14.952 33.72.1664-67.7224-51.2696 9.024-11.92zm-97.8856 30.168 8.664 12.1824-28.9648 20.6032 83.9184-.136.024 14.952-130.8616.2096 67.2192-47.8128zm94.232 16.8 14.2448 4.54-39.512 124.0064-24.9984-77.168 14.2216-4.608 10.6592 32.8992 25.384-79.6688z" fill="#fff" stroke-width=".8"/></svg>