<svg height="512" viewBox="0 0 512 512" width="512" xmlns="http://www.w3.org/2000/svg"><circle cx="256" cy="256" r="246" stroke="#fff" stroke-width="10"/><path d="m84.915626 130.00221 53.413154 40.94681 99.49374-5.27611 5.92467 21.5125-42.46269 4.12062 26.45207 13.75435-28.92009 22.9232 21.98227-.61701c-17.48513 18.61328-34.67719 37.43619-52.28221 55.34481-11.03952-16.12912-19.84238-33.06595-25.13812-49.81628l-3.25331-10.28579-51.281675 51.28869 56.608265 56.60336c-17.6492 22.84047-37.95994 41.05759-59.253681 58.19495l-2.444188 1.96882v3.13692c0 10.47509 3.353572 19.35157 9.621098 25.28115 6.268228 5.92957 14.920341 8.58761 24.246961 8.58691h3.29538l1.96461-2.64542c16.59257-22.34686 34.97727-42.76137 57.89486-59.19479l58.5266 58.5245 51.28168-51.28308-10.28579-3.25121c-17.98224-5.68347-35.23038-15.16013-51.70236-26.8468 20.55614-20.30093 41.78398-39.97082 62.33872-59.816l5.85595 34.2614 60.32503 6.76885 29.54411 103.87449 14.1252 26.81744c13.18843-9.92537 26.58365-20.92206 41.1058-37.75754l-23.30791-29.95974-35.92452-82.05489-69.56541-.99562-9.65896-33.14799c50.15424-49.48184 94.4392-101.07202 112.13748-167.12189l2.2086-8.245454h-9.40234l-.83296.222263c-50.9921 13.662491-92.34207 41.457241-129.57843 74.711101l.2475-23.52759-23.08517 30.90363-7.7827-29.49152-87.49576-7.03248-30.04402-49.286216-19.34967-34.421938c-19.490131 16.428688-39.607561 32.758409-51.054381 50.456064zm314.559864-18.11476c-17.99276 55.11413-56.37338 100.53704-100.75931 144.92227l-8.53292-40.58923-20.74896 15.25339-7.52327-27.37127c40.30526-39.95329 83.42913-74.79804 137.56446-92.21446zm-148.20783 102.93005 10.57816 38.49561 19.70005-14.48213 6.08172 28.93201c-23.99035 23.45747-49.32548 46.8252-73.88936 71.38838l-5.3266 5.32729 6.01372 4.535c16.26654 12.26792 33.5876 22.6133 51.94215 29.74394l-27.06626 27.06696-57.01844-57.01843-4.48031 3.03104c-25.61279 17.33228-45.57787 39.17292-63.19902 62.52102-5.32659-.47678-9.41146-2.13148-12.22375-4.79232-2.8817-2.72605-4.813351-6.8011-5.310463-12.87441 22.111283-17.9563 43.721243-37.56169 62.364663-62.85756l3.34305-4.53641-55.4044-55.40159 27.05995-27.06416c6.65666 17.24113 16.24691 34.19128 27.92447 50.09674l4.51536 6.15394 5.39881-5.39741c27.00106-27.00106 52.53673-55.82018 78.9944-82.86821z" fill="#fff" stroke-width=".701144"/></svg>