<svg height="512" viewBox="0 0 512 512" width="512" xmlns="http://www.w3.org/2000/svg"><circle cx="256" cy="256" r="246" stroke="#fff" stroke-width="10"/><path d="m305.66654 85.9952c-20.048 2.608-37.7264 25.8136-37.7264 55.4768 0 16.3624 5.648 30.856 14.0016 40.9328l8.0984 9.7704-12.472 2.3456c-10.9408 2.0592-19.0352 7.9168-25.8176 17.2376-6.784 9.32-11.888 22.16-15.4608 36.876-6.584 27.12-7.9328 60.1728-8.1144 89.02h35.2056l9.5064 127.6096h77.09604l8.4112-127.6096h33.504c-.01-29.1584-.2824-62.6528-6.248-89.984-3.2336-14.8192-8.1408-27.66-15.0216-36.896-6.88-9.2344-15.368-15.048-27.5856-16.944l-12.72964-1.9744 8.02964-10.072c7.992-10.0264 13.36-24.3488 13.36-40.3136 0-31.6296-19.82084-55.4144-41.88164-55.4144-2.332 0-3.8032-.108-4.1568-.0624zm-136.5696 1.2304c-3.592.0448-7.216.532-10.8304 1.5008-.076.0208-.2616.0544-.352.0752l-.46-.4592-4.60799 1.9016h-.002c-25.58 10.548-36.948 43.064-28.484 74.652 3.6592 13.6584 10.768 26.3816 19.876 35.736-7.4624 5.5824-13.072 12.7264-16.8424 20.792-5.2056 11.1392-7.1784 23.864-7.288 37.28-.216 26.8344 7.0024 56.808 14.256 83.876l1.936 7.2216 32.01599-8.5816 40.888 119.5632 48.368.1224-1.112-14.9552-36.56-.0928-41.9568-122.696-30.98399 8.3024c-6.4224-24.7136-12.0784-50.7736-11.9-72.64.0976-11.9976 1.9336-22.6208 5.8832-31.072 3.9496-8.448 9.792-14.8528 19.09199-19.32l11.4384-5.496-10.352-7.3408c-9.16479-6.4976-18.49599-20.312-22.31679-34.572-6.928-25.852 3.0936-50.0768 19.72239-56.9504l.02-.008c.1952-.08 1.488-.336 3.5888-.896h.002l.002-.002c2.3728-.6368 4.804-.944 7.2576-.94 17.176.0216 35.4104 15.248 41.8752 39.3784 3.728 13.9136 2.768 30.336-1.628 40.4136l-5.1488 11.808 12.808-1.3872c10.684-1.1576 18.9472.9872 26.2944 5.6128 3.428-3.8928 7.2864-7.336 11.568-10.1936-.584-.4288-1.1712-.8496-1.7696-1.2576-7.64-5.2096-16.6216-8.4784-26.6264-9.2176 2.8496-12.368 2.472-26.484-1.0544-39.648-7.9024-29.4912-31.4704-50.8304-56.616-50.512z" fill="#fff" stroke-width=".8"/></svg>