<svg height="512" viewBox="0 0 512 512" width="512" xmlns="http://www.w3.org/2000/svg"><circle cx="256" cy="256" r="246" stroke="#fff" stroke-width="10"/><path d="m252.57127 159.96923c-16.51436 2.14831-31.07677 21.26371-31.07677 45.6985 0 13.47837 4.65248 25.41734 11.53368 33.71801l6.67099 8.04827-10.2737 1.93217c-9.01238 1.69625-15.68007 6.52139-21.267 14.19931-5.58826 7.67727-9.79263 18.2541-12.73569 30.37626-5.42351 22.33985-6.53458 49.56679-6.68417 73.3294h29.00029l7.83081 105.11722h63.50711l6.92865-105.11722h27.5986c-.009-24.01896-.23262-51.60966-5.14673-74.12348-2.66365-12.20718-6.70591-22.78467-12.3739-30.39274-5.66734-7.60675-12.65925-12.39565-22.72338-13.95746l-10.48589-1.62639 6.61431-8.29672c6.58333-8.25915 11.00517-20.0571 11.00517-33.20795 0-26.05459-16.3272-45.6471-34.49957-45.6471-1.92097 0-3.13286-.089-3.42413-.0514zm117.70134.71039c-21.00341-.3519-40.30794 17.44551-46.84383 41.83944-3.01489 11.25098-3.18293 23.25585-.53839 33.67979-7.22256.8613-13.83226 3.40897-19.61953 7.24628 3.66598 2.3592 6.9438 5.21 9.82294 8.44433 5.27062-2.83103 11.01572-4.13847 17.84816-3.61918l10.42262.79079-4.35923-9.49938c-3.8617-8.41138-4.83042-22.1092-1.68307-33.85706 5.35234-19.97275 20.74772-32.78488 34.76186-32.69262.93313.005 1.86165.0685 2.78095.19111l.007.002c.17331.0244 1.19738.37365 2.92592.83693 15.6379 4.19119 25.30795 24.94484 19.2215 47.66097-3.07091 11.4612-10.52082 22.7794-17.80598 28.15875l-8.53659 6.30327 9.70696 4.28477c8.60842 3.79909 13.73011 9.13363 17.05802 16.04515 3.32791 6.91085 4.69203 15.60099 4.51146 25.48588-.32949 18.0353-5.83999 39.63708-11.33467 60.20687l-24.2931-6.51084-33.76151 101.29506-28.13239.0725-.81056 12.31657 37.82749-.0962 32.89296-98.68941 25.00613 6.69932 1.59476-5.94741c5.94543-22.19289 12.91823-46.87743 13.32483-69.12173.20429-11.12116-1.2455-21.7428-5.72862-31.05436-3.30551-6.86473-8.36657-12.89649-15.19967-17.5437 7.12635-7.64893 12.67111-17.87518 15.57661-28.7189 7.43871-27.76335-4.10421-56.35704-27.9281-62.74268l-.002-.002c-.72885-.19506-2.1727-.83955-4.48774-1.14928h-.005l-1.87022-.25042-.19441.0962c-.7183-.054-1.4399-.14893-2.1549-.1608zm-230.19928.30314c-2.95887.0369-5.94411.43823-8.92144 1.23627-.0626.0171-.21549.0448-.28996.0619l-.37892-.37826-3.79579 1.56643h-.001c-21.07129 8.68882-30.435573 35.47357-23.46343 61.49389 3.01423 11.25098 8.87004 21.7316 16.37267 29.4372-6.14709 4.59845-10.76794 10.48325-13.87377 17.12721-4.28807 9.17581-5.913143 19.65775-6.003425 30.70905-.177928 22.10459 5.768165 46.79506 11.743245 69.09208l1.59476 5.94872 26.37289-7.06901 33.68111 98.48907 39.84269.10083-.916-12.31921-30.11596-.0764-34.56153-101.06969-25.52278 6.83903c-5.29039-20.3576-9.94947-41.82428-9.80251-59.83653.0804-9.88291 1.59278-18.63367 4.84623-25.59527 3.25344-6.95896 8.06607-12.23485 15.72685-15.91467l9.42228-4.52728-8.52736-6.04691c-7.54944-5.35234-15.23593-16.73182-18.38328-28.47836-5.70687-21.29535 2.54833-41.2503 16.24615-46.91237l.0165-.007c.16079-.0659 1.22572-.27677 2.95623-.73807h.002l.002-.002c1.95457-.52455 3.95725-.77761 5.97838-.77431 14.14857.0178 29.16898 12.5604 34.4943 32.43759 3.07091 11.4612 2.28012 24.989-1.34105 33.29033l-4.24126 9.72673 10.55046-1.1427c8.80084-.95356 15.60759.8132 21.65976 4.62349 2.82379-3.20665 6.00211-6.04296 9.52905-8.39688-.48107-.35322-.96477-.69985-1.4577-1.03594-6.29337-4.29136-13.69188-6.984-21.93324-7.59291 2.34733-10.18802 2.03628-21.81595-.86856-32.65967-6.50953-24.2931-25.92345-41.87107-46.6369-41.60879zm118.50659-121.370641c-.69014-.0039-1.36324.01573-2.02395.05309-20.39535.146774-36.47815 17.111092-41.48951 40.015778-.98577 4.868711-1.43969 9.111818-1.4705 13.45175-.0811 11.377643 2.65348 22.761503 7.61317 32.064753-7.62429 2.78695-13.92364 7.29355-18.77711 13.01574-6.68446 7.88174-10.76394 17.79662-13.36809 28.61051-5.21072 21.62921-4.68171 47.27312-4.51931 70.24803l.0451 6.15714 25.88669-.18341.0917 1.36593c2.52665-1.73527 5.22724-3.23104 8.09422-4.42761-1.7549-2.90701-3.29294-6.01232-4.59332-9.27996l-17.23099.12389c-.1351-21.29059-.0258-43.58275 4.19915-61.11931 2.31564-9.61153 5.82579-17.67858 10.78747-23.52809 1.00792-1.18838 2.07403-2.28991 5.335-4.51127 3.26096-2.22136 8.49151-4.9351 15.23438-6.15392l10.36915-2.06257-6.58832-8.45299c-5.69489-7.04126-10.05315-19.87137-10.13748-31.736545-.0207-2.919023.18576-5.746773.68056-8.969442 3.07312-16.571875 13.15452-28.57305 24.59477-31.471077 1.96174-.636076 4.21971-.455907 5.78871-.442439 16.18939.116205 30.77578 17.763554 30.60872 41.280349-.0682 9.599214-2.93444 19.826604-7.04201 27.112654-.93857 1.62286-1.93732 3.10354-2.98767 4.38899l-6.61245 8.09422-.16893.39096 10.47374 1.70218c2.49631.40524 4.77153.98537 6.86826 1.7247 3.60412 1.45255 6.70618 3.47734 8.99356 5.17895 2.28738 1.70162 3.52688 2.95696 4.68825 4.32625 4.96168 5.84951 8.47182 13.91495 10.78746 23.52648 4.22493 17.53656 4.33425 39.83032 4.19915 61.12092l-19.10209-.13676c-1.1177 2.78266-2.40597 5.44936-3.85646 7.97195 3.31769 1.21118 6.42611 2.77951 9.30248 4.63837l.0177-.25581 25.88669.18341.0451-6.15714c.1624-22.9749.69141-48.62043-4.51931-70.24964-2.60415-10.81389-6.68364-20.72717-13.36809-28.6089-4.92838-5.8105-11.34595-10.37349-19.12945-13.14928 5.18543-9.42144 8.04859-21.08158 7.96551-32.729213-.17929-25.253698-14.37722-47.340425-34.79178-52.291445-2.4874-.595268-4.70935-.818661-6.77978-.830175zm31.86686 210.990231-5.83858 86.97705-27.73528 6.95996-27.73368-7.35736-5.77745-86.06642c-4.50641 1.79554-8.36073 4.56987-11.78818 8.27603l5.87076 87.44843 39.42855 9.82215 39.43015-9.42476 5.9705-88.93503c-3.3705-3.41477-7.22176-6.00594-11.82679-7.70005z" fill="#fff" stroke-width=".658993"/></svg>