<svg height="512" viewBox="0 0 512 512" width="512" xmlns="http://www.w3.org/2000/svg"><circle cx="256" cy="256" r="246" stroke="#fff" stroke-width="10"/><path d="m251.45762 85.9952c-20.048 2.608-37.7264 25.8136-37.7264 55.4768 0 16.3624 5.648 30.856 14.0016 40.9328l8.0984 9.7704-12.472 2.3456c-10.9408 2.0592-19.0352 7.9168-25.8176 17.2376-6.784 9.32-11.888 22.16-15.4608 36.876-6.584 27.12-7.9328 60.1728-8.1144 89.02h35.2056l9.5064 127.6096h77.09604l8.4112-127.6096h33.504c-.01-29.1584-.2824-62.6528-6.248-89.984-3.2336-14.8192-8.1408-27.66-15.0216-36.896-6.88-9.2344-15.368-15.048-27.5856-16.944l-12.72964-1.9744 8.02964-10.072c7.992-10.0264 13.36-24.3488 13.36-40.3136 0-31.6296-19.82084-55.4144-41.88164-55.4144-2.332 0-3.8032-.108-4.1568-.0624zm142.88644.8624c-25.4976-.4272-48.9328 21.1784-56.8672 50.792-3.66 13.6584-3.864 28.232-.6536 40.8864-8.768 1.0456-16.792 4.1384-23.8176 8.7968 4.4504 2.864 8.4296 6.3248 11.9248 10.2512 6.3984-3.4368 13.3728-5.024 21.6672-4.3936l12.6528.96-5.292-11.532c-4.688-10.2112-5.864-26.84-2.0432-41.1016 6.4976-24.2464 25.1872-39.8 42.2-39.688 1.1328.006 2.26.0832 3.376.232l.01.002c.2104.0296 1.4536.4536 3.552 1.016 18.984 5.088 30.7232 30.2824 23.3344 57.8592-3.728 13.9136-12.772 27.6536-21.616 34.184l-10.3632 7.652 11.784 5.2016c10.4504 4.612 16.668 11.088 20.708 19.4784 4.04 8.3896 5.696 18.9392 5.4768 30.9392-.4 21.8944-7.0896 48.1184-13.76 73.0896l-29.4912-7.904-40.9856 122.9696-34.152.088-.984 14.952 45.9216-.1168 39.9312-119.8064 30.3568 8.1328 1.936-7.22c7.2176-26.9416 15.6824-56.908 16.176-83.912.248-13.5008-1.512-26.3952-6.9544-37.6992-4.0128-8.3336-10.1568-15.656-18.452-21.2976 8.6512-9.2856 15.3824-21.7 18.9096-34.864 9.0304-33.704-4.9824-68.416-33.904-76.168v-.002c-.8848-.2368-2.6376-1.0192-5.448-1.3952h-.01l-2.2704-.304-.236.1168c-.872-.0656-1.748-.1808-2.616-.1952zm-279.45604.368c-3.592.0448-7.216.532-10.8304 1.5008-.076.0208-.2616.0544-.352.0752l-.46-.4592-4.607997 1.9016h-.002c-25.58 10.548-36.948 43.064-28.484 74.652 3.6592 13.6584 10.768 26.3816 19.876 35.736-7.4624 5.5824-13.072 12.7264-16.8424 20.792-5.2056 11.1392-7.1784 23.864-7.288 37.28-.216 26.8344 7.0024 56.808 14.256 83.876l1.936 7.2216 32.015997-8.5816 40.888 119.5632 48.368.1224-1.112-14.9552-36.56-.0928-41.9568-122.696-30.983997 8.3024c-6.4224-24.7136-12.0784-50.7736-11.9-72.64.0976-11.9976 1.9336-22.6208 5.8832-31.072 3.9496-8.448 9.792-14.8528 19.091997-19.32l11.4384-5.496-10.352-7.3408c-9.164797-6.4976-18.495997-20.312-22.316797-34.572-6.928-25.852 3.0936-50.0768 19.722397-56.9504l.02-.008c.1952-.08 1.488-.336 3.5888-.896h.002l.002-.002c2.3728-.6368 4.804-.944 7.2576-.94 17.176.0216 35.4104 15.248 41.8752 39.3784 3.728 13.9136 2.768 30.336-1.628 40.4136l-5.1488 11.808 12.808-1.3872c10.684-1.1576 18.9472.9872 26.2944 5.6128 3.428-3.8928 7.2864-7.336 11.568-10.1936-.584-.4288-1.1712-.8496-1.7696-1.2576-7.64-5.2096-16.6216-8.4784-26.6264-9.2176 2.8496-12.368 2.472-26.484-1.0544-39.648-7.9024-29.4912-31.4704-50.8304-56.616-50.512z" fill="#fff" stroke-width=".8"/></svg>