<svg height="512" viewBox="0 0 512 512" width="512" xmlns="http://www.w3.org/2000/svg"><circle cx="256" cy="256" r="246" stroke="#fff" stroke-width="10"/><g fill="#fff"><path d="m154.07571 201.79844-8.16942 41.48495c17.78859-12.1528 24.18791-22.88402 32.06089-43.24178l-1.007 36.78197c9.17744-14.01125 12.19369-26.48222 17.4704-39.51829l23.13642 39.13004c.0718-15.89307 6.21572-23.40653 3.77735-46.04685-6.27467-6.14293-13.6072-11.68952-22.18512-16.97576-6.39292-3.9397-8.95964-8.91403-11.03519-14.67044-2.18093-6.04863-4.40675-11.48527-.91012-19.26793 2.31978-5.16329 4.79838-10.32726 7.42961-15.22055 9.68825-13.0662 10.49564-3.97941 10.05117 7.92134 3.64169-6.54219 11.05035-27.33756 9.94046-33.73685 3.10106-2.1745 6.32568-3.56474 9.66866-3.9427 7.89958-.89343 16.35755 3.87753 25.56279 17.30025 2.53222-4.21079 8.76966-13.58837 8.76966-13.58837-1.15541.5777 14.19255 30.70893 23.59856 37.56493-.0394-10.84197-10.32632-43.09379-2.57566-39.15704 11.36071 5.77037 21.77117 22.8366 30.47594 40.19744 4.38914 8.75373 3.61175 13.5213 2.47428 20.21342-.88376 5.19956-1.95941 11.10278-7.00339 14.18804-10.53898 6.44639-19.42275 12.92267-26.91905 20.25569.66169 34.52639 18.86725 46.18059 25.94446 66.00485l6.50607-39.08119 29.3403 29.49973c-3.70939-14.22812-9.11313-27.23033-7.09062-41.7664 9.28604 15.72803 23.30601 12.6757 40.22211 12.02192-12.84434-7.58774-19.60898-33.70709-22.78068-44.26696-4.5971-15.03272-11.2143-31.19347-19.48226-47.14063-9.76664-18.83777-12.12921-39.804375-25.89395-55.834689-13.80993-16.082949-39.0332-27.213098-55.63997-36.010971-17.21523 13.249981-41.98148 18.37671-56.64868 35.047602-11.6176 13.204691-12.57627 34.296258-21.81999 48.040408-8.09543 12.03678-5.68217 31.86626-12.07693 44.86825zm26.44574-6.16531c-.48596.81481-.96377 1.66327-1.44505 2.49716l1.75139.35125c.31292-.83538.59547-1.61604.88531-2.40416-.48882-.17075-.89346-.32148-1.19165-.44425zm138.72033.28708c-1.52575.64582-5.56301 1.63078-10.35755 2.74095l11.7962 11.86035c.0769-1.99195.21737-4.01113.5068-6.09136l.57739-4.14591c-.83282-1.48368-1.67344-2.93988-2.52123-4.36403zm-17.58121 4.40253c-3.25056.74361-6.50501 1.50053-9.47705 2.24216 1.20769 7.183 3.36586 12.86388 6.09296 18.08161zm-104.88266 25.1513c-2.4622 5.75042-5.33927 11.72576-9.51394 18.09926l-23.8057 36.34286.97674-35.70132c-2.20492 2.04631-4.57981 4.04443-7.14187 6.00795-10.93034 36.49265-17.75388 82.65682-18.10888 138.38353-2.06354 28.38762-1.17012 51.6941 15.91644 69.93194-1.75729-22.94985-5.76469-52.8678 1.10022-71.87739.85664 20.99549 16.5129 49.78237 32.13601 74.44352l-13.98542-73.56462c6.48587 15.04567 25.89688 23.9454 43.42378 31.43834-22.6203-15.52199-15.82999-36.23813-15.09528-73.09149.21213-10.64034-8.60741-27.23836-7.12422-41.04529 1.73382-16.14015 14.04688-29.45971 18.3302-45.11743.35014-1.27994.62185-2.57732.84522-3.88448zm122.56652 18.63655-10.35595 62.20306-15.95814-44.69723c-1.00146-2.80523-2.42947-5.58956-4.14591-8.5388-1.14419 15.82624-3.49652 32.3376-2.3897 47.1575 1.06579 14.27072 8.47024 28.122 4.16354 42.72932-5.13004 17.39992-16.26724 38.39198-7.84595 62.22391 6.43438 11.15486 4.51269 37.14033 3.5974 49.34514 12.57692-9.35272 28.52898-43.61625 28.52898-43.61625.7905 12.9927-1.41167 24.98751-3.79627 36.92184 13.90988-14.79297 25.0176-30.83141 29.26033-49.92091l4.4362 40.59141c5.4981-8.6441 13.33862-23.56311 15.71275-49.90967 5.50778-43.03755 1.73226-78.96853-6.08173-109.17132z"/><path d="m-223.36509-15.799098c-44.24828 31.297328-81.00335 71.0446-105.34997 116.536288-4.3883 34.80212-22.29991 52.2512-27.50502 76.67897l32.25098-32.03734-8.58346 40.06178c18.6928-11.73595 25.41704-22.09982 33.69021-41.75928l-1.05835 35.52063 18.3586-38.16292 24.31288 37.7881c-.0897-15.48751-2.41647-30.16795 3.96901-44.46661-11.50766-10.35335-51.17041-9.04503-45.72873-27.52253 10.94159-25.012668 27.62124-62.876868 48.8383-65.081398 8.30112-.86278 17.1897 3.74481 26.86285 16.70712 2.66093-4.06636 6.58532-10.6242 9.21554-13.12316 2.65194-2.51959 8.74024 8.85461 8.74024 8.85461s8.34152-12.75158 13.3497-10.39103c17.92164 8.44711 33.65701 41.44644 44.39401 63.033858.74075 22.78369-33.76785 18.09574-45.41532 28.56644 20.6061 18.1991 20.62734 43.98726 27.26401 63.74013l6.83582-37.7401 30.83195 28.48744c-3.898-13.74007-9.57632-26.29534-7.451-40.33281 9.75805 15.18854 24.49108 12.23975 42.267037 11.6084-13.497177-7.32748-20.605847-32.54976-23.938817-42.74742-16.26225-48.870358-56.58104-110.0859302-106.15047-134.219168zm-83.16051 195.989188c-3.98991 4.21894-8.6028 8.17159-14.0711 11.98322-11.48015 35.23575-18.64803 79.80471-19.02088 133.60429-2.16848 27.41389-1.22963 49.92093 16.72546 67.53319-1.84661-22.16265-6.05775-51.05283 1.15612-69.41036.90018 20.27532 17.35392 48.07477 33.77116 71.89001l-14.69627-71.0428c6.81555 14.52958 27.21155 23.12558 45.62934 30.36151-30.63304-19.31738-52.09774-64.14773-52.09774-116.37522 0-20.57446 3.3321-39.99819 9.24246-57.16848zm163.13915 12.43858c3.79513 14.2868 5.88524 29.83439 5.88524 46.10526 0 52.19497-21.43682 97.00085-52.03708 116.33805 6.76145 10.77223 5.59144 22.58524 4.62965 34.37141 13.21622-9.0319 29.98086-42.11861 29.98086-42.11861.83064 12.54703-1.48349 24.13042-3.98928 35.65537 14.61688-14.28555 26.28763-29.77385 30.74599-48.20855l4.66166 39.19752c5.77756-8.3476 14.01828-22.75333 16.51311-48.19617-.29977-42.99031-4.96436-80.09417-12.70926-111.2641z"/></g></svg>