<svg height="512" viewBox="0 0 512 512" width="512" xmlns="http://www.w3.org/2000/svg"><circle cx="256" cy="256" r="246" stroke="#fff" stroke-width="10"/><path d="m255.99774 75.845235c-90.07891 0-180.155564 45.039455-180.155564 112.597135 0 45.03945 33.779594 67.55768 33.779594 112.59713 0 33.77959-11.259867 33.77959-11.259867 56.29932 0 11.25836 36.039067 24.02254 67.557677 33.77809v45.03945h180.15557v-45.03945s67.9848-20.98613 67.55918-33.77959c-.70036-20.97863-11.25986-22.51973-11.25986-56.29782 0-22.51972 34.26151-68.62511 33.77809-112.59713 0-67.55918-90.07741-112.597135-180.15482-112.597135zm-67.55918 135.116115c24.87454 0 45.03945 20.16566 45.03945 45.03945s-20.16491 45.03945-45.03945 45.03945c-24.87229-.00075-45.0372-20.16641-45.0372-45.0402s20.16416-45.03946 45.03795-45.03946zm135.11686 0c24.87379 0 45.03946 20.16566 45.03946 45.03945s-20.16567 45.03945-45.03946 45.03945-45.03945-20.16566-45.03945-45.03945 20.16566-45.03945 45.03945-45.03945zm-67.55768 78.81904c11.25986 0 33.77959 45.03945 33.77959 56.29932 0 22.51822 0 22.51822-11.25986 22.51822h-45.03946c-11.25986 0-11.25986 0-11.25986-22.51972 0-11.25987 22.51973-56.29782 33.77959-56.29782z" fill="#fff"/></svg>