<svg height="512" viewBox="0 0 512 512" width="512" xmlns="http://www.w3.org/2000/svg"><path d="m255.99805 5c-61.29282 0-122.22462 15.0353-169.345706 42.521484-47.121092 27.486184-81.6503909 69.346086-81.6503909 120.880856 0 33.57244 12.7918549 58.92258 23.7382809 80.8125 10.946426 21.88993 20.042969 40.31773 20.042969 65.08985 0 19.95573-2.697069 27.09869-6.046875 35.47656s-8.546875 20.00639-8.546875 37.52148c0 12.98144 8.012501 19.97709 14.865235 25.17188 6.852735 5.19479 14.857885 9.35177 23.919921 13.42578 14.578697 6.55413 31.806821 12.44115 48.775391 17.88867v63.21094h268.49609v-63.2207c8.69911-2.91708 20.17633-6.93579 33.04883-12.14063 11.42396-4.61914 22.92007-9.74071 32.5332-15.47656 4.80658-2.86793 9.1593-5.80037 13.18165-9.77734 4.02235-3.97698 9.11857-9.76928 8.78906-19.66407v-.002-.002c-.55159-16.49201-5.55982-27.36892-8.75-35.83594-3.19019-8.46703-5.83399-16.49955-5.83399-36.57617 0-5.653 9.44831-29.33052 20.70899-55.59766 11.24861-26.23902 23.40319-57.32169 23.0664-90.39062-.03882-51.49477-34.54997-93.324119-81.64453-120.794826-47.12106-27.48617-108.05575-42.521484-169.34765-42.521484zm.00195 17.5c116.74802 0 233.49609 58.398364 233.49609 145.90234.62656 56.99457-43.77929 116.79675-43.77929 145.90235 0 43.79879 13.68603 45.85776 14.59375 72.99804.55164 16.56492-87.5625 43.79883-87.5625 43.79883v58.39844h-233.49805v-58.39844c-40.850814-12.63427-87.560547-29.19924-87.560547-43.79883 0-29.19919 14.59375-29.19925 14.59375-72.99804 0-58.30478-43.78125-87.50397-43.78125-145.90235 0-87.503976 116.748067-145.90234 233.498047-145.90234zm-87.5625 175.10156c-32.23808 0-58.37305 26.11086-58.37305 58.39844 0 32.19397 26.13642 58.30469 58.37305 58.30469 32.23952 0 58.375-26.11072 58.375-58.30469 0-32.28758-26.13596-58.39844-58.375-58.39844zm175.12305 0c-32.23856 0-58.375 26.11086-58.375 58.39844 0 32.19397 26.13644 58.30469 58.375 58.30469s58.375-26.11072 58.375-58.30469c0-32.28758-26.13644-58.39844-58.375-58.39844zm-175.12305 17.5c22.79006 0 40.87305 18.05455 40.87305 40.89844 0 22.72282-18.08432 40.80469-40.875 40.80469-22.78694 0-40.8711-18.08186-40.8711-40.80469 0-22.84425 18.08423-40.89844 40.87305-40.89844zm175.12109 0c22.78944 0 40.875 18.05489 40.875 40.89844 0 22.72248-18.08556 40.80469-40.875 40.80469s-40.875-18.08221-40.875-40.80469c0-22.84355 18.08556-40.89844 40.875-40.89844zm-87.55859 84.69727c-14.59376 0-43.78125 58.30469-43.78125 72.90429 0 29.19918 0 29.19922 14.59375 29.19922h58.375c14.59375 0 14.59375-.00003 14.59375-29.19922 0-14.5996-29.18752-72.90429-43.78125-72.90429zm-.002 21.14258c3.57659 4.34827 8.0219 11.06018 12.07031 18.33984 4.1857 7.52654 8.01887 15.63396 10.64258 22.28906 2.62372 6.65511 3.56836 13.31391 3.56836 11.13281 0 4.83259-.2462 8.55995-.50196 11.69922h-51.55659c-.25576-3.13927-.5039-6.86663-.5039-11.69922 0 2.18111.94659-4.4777 3.57031-11.13281 2.62371-6.6551 6.45689-14.76252 10.64258-22.28906 4.04817-7.27923 8.49188-13.99154 12.06836-18.33984z" fill="#ebeae0" opacity=".9"/><path d="m255.99948 22.500001c-116.74998 0-233.497041 58.398379-233.497041 145.902359 0 58.39838 43.78124 87.59758 43.78124 145.90236 0 43.79879-14.593747 43.79879-14.593747 72.99798 0 14.59959 46.709724 31.16451 87.560538 43.79878v58.39838h233.49703v-58.39838s88.11412-27.23386 87.56248-43.79878c-.90772-27.14028-14.59374-29.19919-14.59374-72.99798 0-29.1056 44.40585-88.90779 43.77929-145.90236 0-87.50398-116.74803-145.902359-233.49605-145.902359zm-29.18749 233.499939c0 32.19397-26.13547 58.30478-58.37499 58.30478-32.23663 0-58.37207-26.11081-58.37207-58.30478 0-32.28758 26.13447-58.39838 58.37255-58.39838 32.23904 0 58.37451 26.1108 58.37451 58.39838zm116.74802-58.39838c32.23856 0 58.37498 26.1108 58.37498 58.39838 0 32.19397-26.13642 58.30478-58.37498 58.30478s-58.37499-26.11081-58.37499-58.30478c0-32.28758 26.13643-58.39838 58.37499-58.39838zm-87.56053 102.19716c14.59373 0 43.78123 58.30479 43.78123 72.90439 0 29.19918 0 29.19918-14.59375 29.19918h-58.37497c-14.59375 0-14.59375 0-14.59375-29.19918 0-14.5996 29.18748-72.90439 43.78124-72.90439z" fill="#f5f4ef" opacity=".9"/></svg>