<svg height="512" viewBox="0 0 512 512" width="512" xmlns="http://www.w3.org/2000/svg"><circle cx="256" cy="256" r="246" stroke="#fff" stroke-width="10"/><path d="m135.20868 79.157972-58.361301 58.363638 33.222791 18.35041-20.978557 20.95679 83.669317 50.44652c-31.44685 54.54426-23.88664 125.24155 22.70475 171.80805 55.67716 55.67794 145.97673 55.66317 201.66478 0 55.68883-55.66317 55.70594-145.9122.0288-201.55904-46.58749-46.55872-117.33065-54.09483-171.90602-22.68686l-50.47062-83.615668-6.56261 6.556384-14.45328 14.439284zm36.71948 35.455168 48.47075 80.30249 6.29668-4.08064c34.37591-22.28719 76.9893-26.47124 114.43036-12.5016-.90197-.0202-1.81016-.0311-2.7238-.0311-30.3155 0-54.89105 11.51333-54.89105 25.71624 0 14.20602 24.57555 25.71779 54.89105 25.71779 24.51646 0 45.27342-7.52989 52.31967-17.92275 12.39585 13.48288 21.37667 28.94388 26.94244 45.29518-6.03386-2.63359-14.21379-5.21431-24.02815-7.4358-24.40216-5.52067-58.74231-9.03136-96.65456-9.03136-37.91149 0-72.25086 3.50991-96.65379 9.03136-10.66035 2.41199-19.43666 5.24853-25.57628 8.11617 3.37461-10.10595 8.0423-19.88065 14.01008-29.06752l4.09229-6.30134-80.34525-48.44198 10.80342-10.79252 36.49632 20.15668 21.7048-21.70558-20.35651-36.2615 10.77309-10.76299zm-.8452 156.51267c.37478.21772.76356.43544 1.171.65315 6.13495 3.28131 15.87 6.59915 28.07224 9.35949 24.40216 5.52068 58.74231 9.03136 96.65379 9.03136 37.91226 0 72.25241-3.50991 96.65457-9.03136 12.19758-2.76034 21.92951-6.07507 28.06524-9.35638.96106 4.53862 1.67408 9.11845 2.13518 13.71849-7.33395 3.32562-16.48738 6.13728-27.27213 8.57804-25.81888 5.84181-60.85961 9.35949-99.58208 9.35949-38.72403 0-73.76399-3.51768-99.58208-9.35949-11.4068-2.5815-20.99411-5.5751-28.52867-9.15654.48598-4.62804 1.22077-9.2343 2.21216-13.7978z" fill="#fff" stroke-width=".8"/></svg>