<svg height="512" viewBox="0 0 512 512" width="512" xmlns="http://www.w3.org/2000/svg"><circle cx="256" cy="256" r="246" stroke="#fff" stroke-width="10"/><path d="m262.8616 66.4399c-136.161 42.9426 51.5898 99.792-23.8824 118.2096-50.1426 12.2373-98.2026-46.5912-48.1203-92.4642-81.6894 29.2716-59.6628 80.703-11.1564 101.925 30.879 13.509 28.6956 55.242 7.7787 58.1733 41.733-48.8565-104.9733-40.2633-77.427-132.723-113.796 142.2567 119.2815 147.033 46.44 245.8746 14.76-46.134-45.9666-30.078-58.968-70.092-43.7013 104.3775 78.183 84.64682 97.029 198.85952 7.11424 5.27095 19.6609 2.53881 32.7546 1.79548l-6.6375-97.8327h-26.2287c0-44.7516 2.8602-97.5024 40.68-104.6205-6.975-8.4168-11.5074-22.059-11.5074-35.2863 0-23.8824 14.1966-43.6707 32.382-46.035h.0018c1.2132-.153 2.502 0 3.7476 0 19.917 0 36.1305 20.5614 36.1305 46.035 0 12.9006-4.2948 26.3736-10.9728 34.7517 41.3145 6.408 40.4127 60.2784 40.4127 105.156h-24.8904l-5.8716 97.8336 33.0768-4.66037c12.861-124.416 123.3504-104.46013 69.8184-207.50743 8.7552 41.4306-29.3814 84.303-48.1626 46.917-17.136-34.1127 112.9635-94.5828 63.189-193.6575 4.1292 73.3356-102.7395 108.2727-106.7967 59.2416 47.4912 20.7198 66.249-41.3145 27.018-64.7865-36.621-21.9114-104.7996-33.084-69.8364-65.1042zm62.5392 18.5715c40.4055 14.1165 57.4992 70.8075 43.857 99.6066 16.4142-3.2112 63.7263-96.282-43.857-99.6066z" fill="#fff"/></svg>