<svg height="512" viewBox="0 0 512 512" width="512" xmlns="http://www.w3.org/2000/svg"><circle cx="256" cy="256" r="246" stroke="#fff" stroke-width="10"/><path d="m187.4317 18.611802v98.761198l-39.6297-23.7114 15.8076 42.2442-104.0904-18.8442 76.2462 44.9154-105.726759-3.22649-9.179407 24.96657 122.163766 16.25792 86.9337-26.2692c-10.1727-10.683-16.7346-27.6687-16.7346-46.8 0-32.3334 18.783-58.5558 41.9616-58.5558 23.1777 0 41.9625 26.2224 41.9625 58.5567 0 18.7623-6.3342 35.4375-16.173 46.152l89.127 26.9163 120.69946-17.35839-8.37602-22.78489-102.05264 2.14528 76.2462-44.9145-108.3933 19.602 16.0866-42.9462-43.7904 26.2134v-101.319898c-36.37444-7.900582-73.94007-14.623061-133.0884 0zm182.6703 228.190198-49.8645-11.8116-25.227 106.4817 20.1181 153.31611 45.43136-16.11532-38.63496-136.97489 41.877 25.0578-19.179-51.2433 111.9924 20.25-82.0125-48.3192 124.65865 5.16025c4.87256-27.69966 2.47126-52.97291-.76415-77.96792zm-357.137052-28.88039c-3.3819474 26.22318-4.185525 49.96758-.912115 69.79242l129.478867-.26983-82.0125 48.3183 107.6598-19.4895-18.8685 50.427 32.15007-12.48694-25.7355 125.973 44.76482 15.23534 12.66211-153.4174-19.5165-106.956-49.6125 11.754z" fill="#fff" stroke-width=".9"/></svg>