<svg height="512" viewBox="0 0 512 512" width="512" xmlns="http://www.w3.org/2000/svg"><circle cx="256" cy="256" r="246" stroke="#fff" stroke-width="10"/><path d="m341.63086 29.751953-11.47461 2.458985-30.3125 62.914062-99.25195-35.144531-48.06055 59.029301h232.65039v-67.382817a241.62633 241.62633 0 0 0 -43.55078-21.875zm61.14453 34.195313v55.062504h52.10938a241.62633 241.62633 0 0 0 -52.10938-55.062504zm-357.613281 72.658204a241.62633 241.62633 0 0 0 -8.955078 17.46094v42.7832l12.136719 31.26172 31.435547 16.01953h180.279293v-107.52539zm232.492191 0v107.52539h219.21093a241.62633 241.62633 0 0 0 -31.01367-107.52539zm-195.195316 125.12109 10.730469 56.29688-56.982422 9.39648v29.5293a241.62633 241.62633 0 0 0 6.123047 12.30469h92.605472v-107.52735zm70.072266 0v107.52735h232.65039c-47.33926-107.46056-.05648-1.21245-47.13867-107.52735zm254.64453 8.93555v98.5918h61.50977a241.62633 241.62633 0 0 0 16.57422-38.93555l-23.06055-47.86328zm-354.478514 116.1875a241.62633 241.62633 0 0 0 128.386714 98.53711l49.64844-.0586 29.32617-98.47851zm224.957034 0v54.53516c62.34339 42.67324 6.54126 4.5322 60.41406 41.20703a241.62633 241.62633 0 0 0 120.25-95.74219z" fill="#fff" stroke-width=".977523"/></svg>