<svg height="512" viewBox="0 0 512 512" width="512" xmlns="http://www.w3.org/2000/svg" xmlns:xlink="http://www.w3.org/1999/xlink"><filter id="a" color-interpolation-filters="sRGB" height="1.003322" width="1.003573" x="-.001786" y="-.001661"><feGaussianBlur stdDeviation=".006424486"/></filter><linearGradient id="b" gradientUnits="userSpaceOnUse" x1="97.747432" x2="338.546925" y1="72.094466" y2="291.874843"><stop offset="0" stop-color="#fff" stop-opacity="0"/><stop offset=".13850258" stop-color="#fff"/><stop offset=".823183" stop-color="#fff"/><stop offset="1" stop-color="#fff" stop-opacity="0"/></linearGradient><circle cx="256" cy="256" r="246" stroke="#fff" stroke-width="10"/><path d="m113.68287 72.957602c-4.48523-.01721-8.6367 1.656472-11.75585 5.40625-8.07113 15.642793 18.92384 37.371418 38.30078 38.628908l8.01171-16c-5.00022-3.677175-7.95869-9.880361-12.57421-15.650392-6.1037-7.630509-14.50704-12.356085-21.98243-12.384766zm116.78711 22.998047c-1.04676-.03146-2.10953.06476-3.18554.298828-11.82254 5.434153-11.2977 21.762943-2.08203 34.380853 4.35775 5.96656 9.57813 10.45197 11.83203 16.21485l17.5332-3.57031c3.6168-17.83357-8.39613-46.852373-24.09766-47.324221zm-75.88867 8.740231-8.16015 16.2832c25.55955 21.41737 36.65211-14.02933 8.16015-16.2832zm102.23828 45.61914-17.84179 3.63477c-5.26044 28.09404 31.85715 26.6258 17.84179-3.63477zm-59.34765 33.97656c-2.89255-.0849-5.78194.67626-8.50391 2.45508-12.3097 12.58219 7.11075 41.28045 25.26367 48.17383l12.35742-12.94141c-3.69963-4.98362-4.70274-11.78112-7.41992-18.65234-4.31193-10.90405-13.01963-18.78033-21.69726-19.03516zm99.84375 32.45508c-2.09354.0436-4.13339.55059-6.06641 1.60352-9.81727 8.54048-4.69909 24.08025 7.71484 33.57422 5.86658 4.48665 12.13865 7.30636 15.92579 12.2207l15.83398-8.36914c-1.48122-16.92599-18.75343-39.33451-33.4082-39.0293zm-65.75 10.63672-12.58399 13.16797c18.14152 27.97999 39.15725-2.64491 12.58399-13.16797zm103.26758 34.50781-16.0918 8.51953c2.88366 28.43624 38.07457 16.5534 16.0918-8.51953z" fill="url(#b)" filter="url(#a)" transform="matrix(1.4943378 0 0 1.4943378 -74.607947 -12.89243)"/></svg>