<svg height="512" viewBox="0 0 512 512" width="512" xmlns="http://www.w3.org/2000/svg"><circle cx="256" cy="256" r="246" stroke="#fff" stroke-width="10"/><path d="m160.48 87.68 36.72 45.848c.32.336.4.384.72.4 11.44-3.992 19.84-17.72 23.84-28.752zm191.04 0-61.28 17.496c3.28 8.496 14.08 27.464 23.84 28.752.32 0 .4-.08.72-.4zm-222.504 12.864c-11.496 19.632-25.176 32.048-46.616 43.216-11.2 23.6-14.24 53.44-11.28 80.4 2.4 21.52 8.88 41.04 16.64 53.76.56-1.92 1.12-3.6 1.6-5.76 1.68-7.36 3.04-15.44 5.36-22.24 1.2-3.36 2.48-6.56 5.28-9.36 2.8-2.88 8.4-4.48 12.64-2.96 4.32 1.52 7.28 4.4 10.64 8.56.8 1.04 1.744 2.4 2.624 3.68 5.376-14.32 11.376-23.44 19.216-28.56 5.04-3.28 11.12-4.32 16.56-3.12 4.08.8 7.68 2.72 11.04 5.2 8.16-5.68 18.4-9.04 28.88-11.2-5.6-6.88-11.12-13.6-17.28-19.92l3.12-18.72c-13.92-7.36-27.84-15.52-42.08-24.64 1.44 5.76 2.48 11.68 2.64 17.84.4 13.12-3.36 27.12-14.48 40.48l-11.04-9.28c9.04-10.8 11.44-20.48 11.12-30.72-.16-6.88-1.84-14.08-4.08-21.52-10.544 10.48-26.952 25.36-39.92 25.68v-14.4c15.904-4.96 26.824-18.592 38.104-29.888l4.216-4.176 4.88 3.272c18.56 12.368 35.84 23.192 53.12 32.392l2.08-12.4c-23.76-11.76-47.04-26.768-62.984-45.616zm253.944 0c-15.92 18.848-39.2 33.856-62.96 45.616l2.08 12.4c17.28-9.2 34.56-20.016 53.12-32.392l4.88-3.272 4.24 4.176c8.16 7.704 27.28 29.408 38.08 29.888v14.4c-17.36-2.32-28.88-14.64-39.92-25.68-2.24 7.44-3.92 14.64-4.08 21.52-.32 10.24 2.08 19.92 11.12 30.72l-11.04 9.28c-11.12-13.28-14.88-27.36-14.48-40.48.16-6.16 1.2-12.08 2.64-17.84-14.24 9.12-28.16 17.28-42.08 24.64l3.12 18.72c-6.48 6.56-12.48 14-17.28 19.92 10.48 2.16 20.72 5.52 28.88 11.2 3.36-2.48 6.96-4.4 11.04-5.2 5.44-1.2 11.52-.16 16.56 3.2 7.84 5.04 13.84 14.16 19.2 28.48.88-1.28 1.84-2.64 2.64-3.68 3.36-4.16 6.32-7.04 10.56-8.56 4.32-1.52 9.92.08 12.72 2.96 2.8 2.8 4.08 6 5.28 9.36 2.32 6.8 3.68 14.88 5.36 22.24.48 2.16 1.04 3.84 1.6 5.76 7.76-12.72 14.24-32.24 16.64-53.76 2.96-26.96-.08-56.8-11.28-80.4-21.44-11.168-35.12-23.584-46.64-43.216zm-134.16 8.84-14.48 3.608c-3.44 7.384-8.16 15-12.8 20.576-4.4 5.264-9.2 9.872-14.96 12.672l-6.88 41.28c9.92 10.96 17.6 21.6 26.4 31.36l13.68-17.12h9.04v-9.52c-12.56-2.8-22.96-7.12-34.48-12.88l6.56-12.8c10.08 5.04 23.2 11.76 35.12 12 12.96-1.92 23.44-6.16 35.12-12l6.56 12.8c-11.28 5.12-22.4 10.64-34.48 12.88v9.52h9.04l13.68 17.12c9.2-9.92 17.76-21.76 26.4-31.36l-6.88-41.28c-5.76-2.8-10.56-7.408-14.96-12.672-5.44-6.8-9.52-13.48-12.8-20.576l-14.48-3.608v29.176h-14.4zm-2.16 106.776-10.4 13.04c1.76 1.92 5.28 3.68 6.96 4.56h25.6c3.28-2.08 4.48-2.48 6.96-4.56l-10.4-13.04zm-34.48 8.72c-12.56 2.48-32.24 8.4-38.48 17.92 3.76 26.8 14.08 52.56 25.12 72.48l26.56 106.24-15.76 23.6 22.4-7.52 16.8 14.72v-31.28l-25.6-102.4c-2.56-15.92-1.04-36.48-10.72-46.96l10.24-10.24c13.6 13.68 14.88 35.04 14.88 49.12h36.8c0-14.08 1.28-35.44 14.88-49.12l10.24 10.24c-9.12 13.36-10.72 31.2-10.72 46.96l-25.6 102.4v31.28l16.8-14.72 22.4 7.52-15.76-23.6 26.56-106.24c10-24.4 24.08-49.6 25.12-72.48-10.96-11.76-25.52-15.84-38.48-17.92-4.96 5.76-9.84 11.12-14.72 15.36-4.88 4.16-9.52 7.92-16.32 7.92h-25.6c-6.8 0-11.44-3.76-16.32-7.92-4.88-4.24-9.76-9.6-14.72-15.36zm-42.56 62.16c-8.08 5.52-23.28 13.12-23.12 21.12 6.32 38.16 26.64 70.08 37.84 81.28l7.68 7.76-42.16 16.88 25.76.8-7.84 18.24 23.68-6.64 7.84 8.16 10.56-15.84-24.64-98.56c-5.44-10.88-11.04-21.92-15.6-33.2zm172.8 0c-4.56 11.28-10.16 22.32-15.6 33.2l-24.64 98.56 10.56 15.84 7.84-8.16 23.68 6.64-7.84-18.24 25.76-.8-42.16-16.88 7.68-7.76c11.2-11.2 31.52-43.12 37.84-81.28-2.4-9.6-14.72-17.2-23.12-21.12zm-102.8 37.92 16.4 65.52 16.4-65.52z" fill="#fff" stroke-width=".8"/></svg>