<svg height="512" viewBox="0 0 512 512" width="512" xmlns="http://www.w3.org/2000/svg"><circle cx="256" cy="256" r="246" stroke="#fff" stroke-width="10"/><path d="m267.36 66.24c-55.168 0-94.312 30.2056-120.416 66.78-26.104 36.576-38.2272 80.0016-38.2272 100.8768 0 6.0896 2.9808 12.216 9.848 18.6336 6.8688 6.4184 17.496 12.6768 30.992 17.9456 14.912 5.8208 33.2984 10.4464 53.9248 13.432l-.264 2.976 14.896 1.3168 7.6128-86.1488-14.892-1.3168-2.2032 24.9184c-24.8056-11.256-42.7392-32.8752-43.2432-66.5936-.68-45.5416 51.332-70.3344 101.8296-70.236 47.4384.092 93.54 22.152 93.3704 69.608-.0784 22.2304-11.6 40.2992-29.0048 53.304l-5.1072-19.4456-14.4608 3.7984 23.4672 89.3336 14.4608-3.7984-1.52-5.784c6.216-1.7944 12.0672-3.752 17.4592-5.864 13.6816-5.3584 24.512-11.6752 31.5232-18.0696 7.0112-6.3952 9.9888-12.4056 9.9888-18.0096v-.0272c-.008-21.3064-10.288-64.6864-33.16-101.224-22.884-36.552-57.304-66.4056-106.876-66.4056zm53.6288 51.4352c-4.4696-.1104-10.4064 1.9944-18.4608 7.144-46.952 30.0288-4.3568 44.3712 34.8536 23.2976-3.128-15.4032-4.9696-30.16-16.392-30.4416zm-115.9384 9.4464c-16.528-.1376-14.876 17.2816-14.6928 35.8832 45.6288 13.2688 86.9056-11.188 31.2016-32.0848-6.9016-2.588-12.296-3.7632-16.5096-3.7984zm60.696 31.2704c-11.64 10.6904-19.8104 30.384 1.2304 30.7784 24.9728.464 10.544-19.8296-1.2304-30.7784zm27.7376 41.8832-14.76 2.3792 14.1616 87.84 14.7616-2.3784-14.164-87.84zm-33.2464 4.824-14.9504.2176 1.2056 82.864 14.9488-.216-1.2048-82.864zm29.4504 96.2448c-10.4464.8504-21.2456 1.296-32.296 1.296-9.252 0-18.2992-.3152-27.1152-.8912-.8368 2.0368-1.656 4.1-2.448 6.1952-7.2688 19.2304-12.684 40.6384-15.1144 59.408-2.432 18.772-1.4128 35.1224 1.9728 42.6184 7.6656 16.9728 19.9896 26.4992 34.2448 31.2824 14.256 4.7824 30.5248 4.448 44.5656.5384 14.04-3.9096 25.616-11.5176 30.864-19.392s5.916-15.048-2.4496-25.0824c-30.3856-36.4448-32.7-69.9792-32.24-95.236.005-.256.012-.4824.016-.736z" fill="#fff" stroke-width=".8"/></svg>