<svg height="512" viewBox="0 0 512 512" width="512" xmlns="http://www.w3.org/2000/svg"><circle cx="256" cy="256" r="246" stroke="#fff" stroke-width="10"/><path d="m192 68.8v68.8c64 25.6 64 25.6 128 0v-68.8l-38.4 38.4-25.6-38.4-25.6 38.4zm127.6344 86.648c-3.7936.156-7.6512 1.1904-11.364 3.3336-31.1472 17.984-71.816 17.5624-102.232.002-4.872-2.8128-9.8272-3.6888-14.5152-3.1144a37.104 37.104 0 0 1 7.5504 22.472c0 18.52-13.6296 34.264-31.3408 36.0768-10.22 11.936-17.2432 25.4448-19.5096 39.9856 35.784-19.032 72.7584-28.4576 109.652-28.4064 36.92.0512 73.7576 9.5888 109.248 28.496-2.152-14.52-8.9736-28.0352-19.036-39.936-.468.02-.936.0384-1.408.0384-19.344 0-34.7576-16.56-34.7576-36.2544 0-8.512 2.8808-16.4336 7.7128-22.6904zm-155.3184 2.572-.002.002c-10.136 0-18.6224 8.68-18.6224 20.12 0 11.4384 8.4864 20.1176 18.6224 20.1176s18.6216-8.68 18.6216-20.1184-8.4856-20.12-18.6208-20.12zm182.3624 0v.002c-10.136 0-18.6208 8.68-18.6208 20.12 0 11.4384 8.4856 20.1176 18.6208 20.1176 10.136 0 18.6216-8.68 18.6216-20.1184s-8.4864-20.12-18.6216-20.12zm54.7168 74.7c-7.4888-.104-15.168 1.3168-22.9408 3.3896 5.5408 15.5656 6.8552 32.58 2.1552 50.1248-3.408 12.7168.7472 29.98 9.36 43.8064l3.752 6.024-5.616 4.344c-15.8112 12.224-29.1512 20.0856-36.8824 28.2112-7.7312 8.1264-11.1104 15.672-8.7328 32.7.3872 10.196 4.8544 13.6432 10.9344 19.976 15.9008-11.64 28.808-19.1104 54.6752-3.276-5.3904-15.0432 12.7496-23.808 37.3752-23.8232-29.528-12.704-51.984-20.496-69.1504-24.3016 53.9936-57.7504 77.7456-102.368 52.8-127.3496-8.788-7.0352-18.1008-9.6912-27.7296-9.8256zm-291.2592.0944c-10.12.0272-19.8144 2.5288-27.2608 9.7328-24.9456 24.9816-1.1936 69.6 52.8 127.3496-17.1648 3.8048-39.6224 11.5976-69.1504 24.3 24.6256.016 42.7656 8.7824 37.3752 23.8248 25.8656-15.8336 38.7752-8.364 54.6752 3.2752 4.9864-6.84 13.048-11.8608 14.1792-19.9752 2.3776-17.0264-1-24.5736-8.7312-32.7-7.7312-8.1256-21.072-15.9856-36.884-28.2104l-5.616-4.3424 3.7536-6.024c8.584-13.7816 12.6856-31.3856 9.3592-43.808-4.6256-17.2568-3.3472-33.952 2.0296-49.248-8.34-2.2968-17.6-4.1992-26.5296-4.1744zm147.736 7.6312c-36.8768-.052-73.84 10.2616-110.0576 31.076a69.8152 69.8152 0 0 0 1.9952 10.648v.002c4.3624 16.2832.4736 34.344-7.588 49.8376 12.712 9.3072 24.2752 16.4192 33.1832 25.7824 8.288 8.712 13.436 20.1064 13.564 34.9704-.8768 13.0464-7.3264 31.4184-17.8784 47.3952 19.672-11.3896 33.708-12.2664 36.2328 2.7936 11.2776-14.2264 20.5584-16.3088 31.188-6.428-2.996-25.1616-8.8936-42.3096-13.8064-52.0776-11.9168-29.2532-34.2528-49.1868-58.9936-66.7388l9.0872-12.8112c31.0304 22.0136 61.4392 50.1312 71.3 95.6536 7.7024.564 15.4.52 23.08-.128 9.8896-45.448 40.2664-73.5352 71.2672-95.5272l9.0888 12.8128c-24.952 17.7016-47.4672 37.824-59.304 67.4904-4.8368 9.8856-10.512 26.7944-13.4352 51.3264 10.632-9.88 19.9128-7.7976 31.1904 6.4288 2.5224-15.06 16.5576-14.184 36.2304-2.7944-10.808-16.364-17.316-35.2464-17.936-48.3392.332-14.408 5.4472-25.4976 13.5592-34.0264 8.908-9.364 20.4688-16.476 33.1792-25.784-8.0512-15.432-11.992-33.3896-7.584-49.8424a70.8856 70.8856 0 0 0 2.008-10.6128c-35.88-20.632-72.68-31.0544-109.5688-31.1072z" fill="#fff" stroke-width=".8"/></svg>