<svg height="512" viewBox="0 0 512 512" width="512" xmlns="http://www.w3.org/2000/svg"><circle cx="256" cy="256" r="246" stroke="#fff" stroke-width="10"/><g fill="#fff"><path d="m256.73438 241.18164c-8.58322-.00016-17.22334.43163-25.81641 1.35352l-1.82617 4.42382 15.15234 13.4336c2.65362-.26087 5.34414-.39844 8.06641-.39844 13.90699 0 27.00809 3.49322 38.47656 9.64258l5.93555-11.37695h32.16992l-2.29883-6.03516c-.47431-.17222-.94754-.35204-1.42383-.51367-21.85606-7.41716-45.35521-10.52888-68.43554-10.5293zm-35.59571 2.62891c-11.17601 1.70742-22.2024 4.28959-32.83789 7.89843-6.8328 2.31851-13.32611 5.92346-18.97851 10.40821-3.64044 2.8884-6.66742 6.50647-9.45704 10.24804l10.9336 9.5625-11.67383 18.27344 18.60156 8.23828c6.70314-15.02692 17.82106-27.66171 31.69922-36.25781zm4.5 11.51562-4.47656 10.83985c3.93374-1.62796 8.02203-2.95862 12.23633-3.96094zm110.38281 1.1875 3.2129 10.29883h-13.77344l7.52344 21.63672-9.81641 12.65625c6.84365 11.93166 10.76172 25.74847 10.76172 40.46875 0 3.02754-.17148 6.01416-.49414 8.95703l3.51953 5.14648 19.31836-28.22461 15.34375 14.08399c.95216-5.94908 1.45117-12.0413 1.45117-18.24219 0-14.39388-5.27368-26.50244-11.3418-38.38476-4.3633-8.54402-10.2885-16.55207-17.57812-22.78907-2.4936-2.13352-5.23987-3.98828-8.12696-5.60742zm-34.11328 10.29883-3.78906 7.26367c7.76725 5.2816 14.57401 11.86763 20.11328 19.43945l5.14844-6.64062-6.97656-20.0625zm-49.54882 1.67383c-10.76597 0-20.99386 2.33685-30.20508 6.52734-.015.008-.0298.0155-.0449.0215-1.99549.90437-3.94311 1.89698-5.8379 2.9707l-.008.0215c-2.92777 1.66733-5.72899 3.53494-8.38672 5.57618l-.0332-.0137c-9.61947 7.37502-17.3446 17.08652-22.33008 28.29688l.0312.0137c-1.15791 2.59686-2.17273 5.27047-3.02539 8.01563l-.0195-.008c-2.11858 6.84366-3.25977 14.11893-3.25977 21.66602 0 .68652.011 1.36884.0293 2.05078l.008-.002c.0805 2.93646.33859 5.82808.75782 8.66797l-.0117.004c1.02977 7.01619 3.05534 13.70465 5.92773 19.91992l.0352-.01c1.09065 2.35291 2.30301 4.63903 3.6289 6.84961l.0547.17969c5.31181 8.81898 12.4364 16.41647 20.86133 22.2871l-.008-.0469c2.99092 2.0925 6.14508 3.96571 9.43945 5.59961l.002.0215c1.29706.63983 2.61786 1.23843 3.95704 1.80274.54692.23113 1.09751.45551 1.65039.67383l.0547.0215c.61878.24393 1.24212.47762 1.86914.70508 7.76404 2.81288 16.13676 4.34961 24.86329 4.34961 40.32781 0 73.11328-32.76782 73.11328-73.08008 0-40.31087-32.78548-73.08008-73.11328-73.08008zm0 8.55859c27.56638 0 51.0419 17.1923 60.31445 41.44922l-46.375-32.93945 30.85742 36.36328-46.01953 9.12695 55.76172 45.09961c-5.46925 8.61074-12.92346 15.82868-21.72461 21.02149l-33.9961-23.83594 17.93555 22.92969-46.54883-3.01172 47.48047 10.40234c-5.61846 1.59134-11.55082 2.44336-17.68554 2.44336-16.43932 0-31.42249-6.11692-42.8086-16.19727l28.82422-4.66015-33.79883-27.0918 30.92774-3.50391 51.33789 24.85743-45.57032-35.69532-3.95312-24.19726-15.84375-5.44141 18.04101-18.33594 27.64258 11.81446-26.46484-23.06055-29.74024 25.75977-6.1289-12.4668c11.79116-12.81086 28.70906-20.83008 47.53516-20.83008zm-97.48633 2.51367c-2.34896 3.70538-4.4445 7.57325-6.06836 11.62891-4.09783 10.23451-7.94141 17.86813-7.94141 32.10547 0 5.94482.4506 11.79102 1.31836 17.50586l16.78711 8.49219 11.84375-3.30469c-.0782-1.4609-.12109-2.93198-.12109-4.41211 0-8.77001 1.39406-17.21718 3.96484-25.13867l-28.10156-12.44532 12.91601-20.21679zm44.00586 25.82227 2.82617 14.83789 23.75586 6.05469 1.7539 16.57422-38.98632 6.15429c-.27872-2.43942-.42579-4.91865-.42579-7.43359 0-13.42139 4.08287-25.87237 11.07618-36.1875zm116.63086 22.71875c.91993 4.34337 1.4082 8.84803 1.4082 13.46875 0 11.20714-2.84769 21.73899-7.85742 30.91406l-34.07032-37.54492zm40.76367 13.67969-19.60938 28.61914-5.44336-7.95508c-3.45775 13.06441-10.08019 24.84947-18.99804 34.48633l18.88281 15.57031c2.67702-2.24089 5.25746-4.59337 7.72461-7.06055 14.05888-14.05903 24.56879-31.66195 30.02734-51.2832zm-211.73242 10.55859c2.6317 10.19643 6.61312 19.86682 11.74218 28.80078l21.4336-6.44726c-2.81472-6.31366-4.84726-13.04752-5.98047-20.08203l-14.33594 4zm45.81836 7.28711 25.69335 20.19336-12.07421 4.50391c-6.22167-7.03131-10.93028-15.43067-13.61914-24.69727zm-8.6836 22.80859-20.68555 6.22071c4.08951 6.01797 8.72206 11.63887 13.83204 16.7832 9.54599 9.61017 20.74996 17.55861 33.13281 23.375l6.37304-.70898-2.2207-15.54102c-12.61817-7.16357-23.1477-17.59083-30.43164-30.12891zm124.37891 20.49805c-6.16034 5.39831-13.13802 9.88412-20.72266 13.24805l23.53906 8.35937 11.15235-10.08984zm-84.66211 14.14648 2.53515 17.7461-.21875.0195c10.45573 3.13961 21.5232 4.83398 32.97657 4.83398 15.4103 0 30.15455-3.0625 43.66406-8.59765l-27.96289-10.42185c-6.42442 1.62841-13.15164 2.49805-20.07813 2.49805-10.93849 0-21.37618-2.16499-30.91601-6.07813z"/><path d="m171.39034 56.042279 4.19284 11.489107c7.58464 20.78567 19.75577 42.038224 26.51008 61.962444 6.75248 19.92422 8.33075 36.96837-2.87457 52.77299-12.52358 17.66393-35.32602 35.73616-55.49741 57.14892-20.1714 21.41276-38.04314 47.1685-38.04314 80.6343 0 83.3038 67.61912 151.60769 150.96961 151.60769 83.34957 0 151.60768-68.25903 151.60768-151.60769 0-33.27996-17.05789-59.48244-36.93542-81.22661-19.87661-21.74416-42.88686-39.88871-56.96949-57.03815-8.40398-10.23125-7.39971-31.25036-.80561-53.96492 6.59319-22.71456 17.63647-45.807208 23.71791-59.816594l5.1907-11.961487h-18.84854l-30.19392 81.647721c-4.23678 20.1064-4.39424 40.2073 7.71738 54.95546 16.01517 19.50128 38.98606 37.39865 57.56454 57.72201 18.5794 20.32153 32.45329 42.20942 32.45329 69.68166 0 74.01731-60.47938 134.50036-134.50035 134.50036-74.01823 0-133.85954-60.43454-133.85954-134.50036 0-27.4164 14.42227-48.77149 33.38707-68.90352 18.96847-20.13111 42.14809-38.03763 56.9997-58.98351 14.72437-20.76736 12.77259-44.49168 5.75829-66.1919l-22.21105-52.083645c-.1062-.242599-.22155-.492521-.32683-.734204h.0156l-7.29627-17.110072z"/><path d="m201.24004 40.870251 36.14812 84.770379c14.12382 4.75127 27.89061 4.54072 42.23505.002l31.35107-84.771922h-109.73424z"/></g></svg>