<svg height="512" viewBox="0 0 512 512" width="512" xmlns="http://www.w3.org/2000/svg"><circle cx="256" cy="256" r="246" stroke="#fff" stroke-width="10"/><g fill="#fff"><path d="m256.73438 241.18164c-23.07928-.00042-46.57825 3.11137-68.4336 10.52734-6.8328 2.31851-13.32611 5.92346-18.97851 10.40821-4.20992 3.34025-7.6189 7.64603-10.76368 12.0039-3.8345 5.31366-7.31821 10.98317-9.7539 17.06641-4.09783 10.23451-7.94141 17.86813-7.94141 32.10547 0 31.93606 12.98771 61.03227 33.95899 82.14453s49.92631 34.24023 81.86328 34.24023 61.03295-13.12648 82.14453-34.23828c21.11158-21.11181 34.23828-50.20848 34.23828-82.14453 0-14.39388-5.27368-26.50244-11.3418-38.38476-4.3633-8.54402-10.2885-16.55207-17.57812-22.78907-5.48215-4.69052-12.14632-8.09155-18.97852-10.41015-21.85606-7.41716-45.35521-10.52888-68.43554-10.5293zm2.92382 10.56055-.002.002c7.07116.0658 14.44515 1.46784 22.02734 4.46094-15.35367-.31889-27.64451 4.41893-37.30664 11.93164 23.01945-9.19306 54.91458-10.27344 74.58985 24.69922-12.40295-10.36756-25.47751-14.33315-38.0625-14.2168.63335.31667 1.26105.64215 1.88281.97852 67.22888 33.00975 65.85593 118.02058 16.10156 147.84765 17.40177-26.40577 21.85061-51.81403 20.03125-71.30664-.0937 21.02875-7.16479 44.54225-34.41797 67.28516 4.39368-7.46178 7.01544-14.86361 8.23438-22.08008-13.35116 19.79774-36.79826 36.59588-70.4375 22.63867 11.77756.24457 21.76026-2.47934 30.13867-7.14648-24.19533 3.69818-53.8665 1.92834-82.29883-34.00391 8.61185 5.34769 17.14222 8.13976 25.38672 9.00391-39.8161-36.67076-35.43418-101.06223-3.71094-124.7793-13.45323 25.54276-13.62537 56.19997-7.26953 76.74414-.0455-1.04217-.0723-2.09045-.0723-3.14453 0-7.72681 1.24176-15.15845 3.53125-22.09766.00093-.001 0-.003 0-.004 8.91839-34.54441 36.56702-67.13884 71.65429-66.8125zm-7.34375 26.91797c5.95717 4.29138 10.51572 10.56123 12.4375 18.08398 3.64995 14.29097-3.74321 30.54937-18.38281 34.41406-11.26833 2.97415-24.07406-3.24173-27.06641-15.51562-2.28987-9.39302 2.61829-20.06562 12.36329-22.50977 5.9988-1.50492 12.648.91222 15.97656 6.22461 1.22908 1.3685 1.98633 3.19066 1.98633 5.19922 0 4.24158-3.34903 7.67969-7.47852 7.67969-4.13022 0-7.47851-3.43886-7.47851-7.67969 0-1.83721.62998-3.52208 1.67773-4.84375-1.01698-.13603-2.06366-.0886-3.07813.16602-5.75268 1.44321-8.85421 8.15314-7.41015 14.07617 2.0014 8.20961 10.95321 12.55422 18.82422 10.47656 10.68383-2.8203 16.28682-15.11249 13.52539-25.92383-2.37094-9.28301-10.1591-16.36851-19.28125-18.48633-11.12791 2.43598-21.11522 8.00967-29.03907 15.78516-3.81931 18.18876-.93925 31.45616 5.7754 38.6875 6.9235 7.45585 18.46194 9.57409 34.23437 3.44141 17.34673-6.74742 32.40056-4.68586 41.52344 5.13867 7.12437 7.67216 10.30275 19.41869 9.12109 33.9375 4.11609-5.83718 7.26694-12.4395 9.20899-19.56641.7271-10.92211.11481-25.63151-20.2793-30.51758 1.68872-.21312 3.29597-.30279 4.82617-.27929 7.52862.11635 13.16949 2.95277 17.31055 7.06054-1.7477-16.14899-9.51507-30.41015-20.95313-40.37109 1.02314 12.62808-3.09054 30.59888-23.85742 33.5957 16.85962-9.53201 16.95679-28.27763 12.96484-41.15625-8.20938-4.44525-17.54004-7.00196-27.45117-7.11718zm-50.70117 27.19531c-3.71402 5.62198-6.5491 11.90649-8.31055 18.64648-.62106 10.81394.51032 24.86056 20.33985 29.61133-9.9419 1.25367-17.07188-1.80499-22.05078-6.69922 1.59823 15.18821 8.51932 28.71717 18.81445 38.58594-.0764-12.26088 4.96534-27.57753 23.99609-30.32422-15.62075 8.83253-16.848 25.57293-13.76953 38.22852 8.22459 5.05109 17.71849 8.1506 27.88477 8.67578-4.97492-3.63313-8.96262-8.66895-11.22461-14.71875-5.23227-13.99622.46368-31.24146 14.80469-36.82031 2.76071-1.07378 5.67886-1.57913 8.57422-1.54493 8.68385.10184 17.14427 5.05966 20.40624 14.08399 3.32963 9.21237-.46321 20.53934-10.02148 24.12304-6.86957 2.57534-15.21284-.13643-18.48242-7.21093-.61055-1.11243-.96289-2.39589-.96289-3.76367 0-4.24158 3.34793-7.67969 7.47851-7.67969 4.12985 0 7.47852 3.43811 7.47852 7.67969 0 1.87585-.65817 3.59452-1.74609 4.92773 1.30325.14495 2.65508-.004 3.91601-.47656 5.69876-2.13641 8.11917-9.32402 6.00195-15.18164-2.93008-8.10516-12.48561-11.48238-20.24804-8.46289-10.52205 4.09402-14.8642 17.19975-10.88672 27.83789 3.11611 8.3367 10.68108 14.423 19.25781 16.13867l-.0137.0762c11.23575-2.16577 21.36736-7.51575 29.4707-15.11133 3.79471-18.14825.91352-31.38842-5.79101-38.60937-6.92351-7.45584-18.46004-9.57313-34.23242-3.4375h-.002c-17.34674 6.74594-32.40058 4.68233-41.52344-5.14258-7.0408-7.58223-10.22435-19.14752-9.1582-33.43164z"/><path d="m171.39034 56.042279 4.19284 11.489107c7.58464 20.78567 19.75577 42.038224 26.51008 61.962444 6.75248 19.92422 8.33075 36.96837-2.87457 52.77299-12.52358 17.66393-35.32602 35.73616-55.49741 57.14892-20.1714 21.41276-38.04314 47.1685-38.04314 80.6343 0 83.3038 67.61912 151.60769 150.96961 151.60769 83.34957 0 151.60768-68.25903 151.60768-151.60769 0-33.27996-17.05789-59.48244-36.93542-81.22661-19.87661-21.74416-42.88686-39.88871-56.96949-57.03815-8.40398-10.23125-7.39971-31.25036-.80561-53.96492 6.59319-22.71456 17.63647-45.807208 23.71791-59.816594l5.1907-11.961487h-18.84854l-30.19392 81.647721c-4.23678 20.1064-4.39424 40.2073 7.71738 54.95546 16.01517 19.50128 38.98606 37.39865 57.56454 57.72201 18.5794 20.32153 32.45329 42.20942 32.45329 69.68166 0 74.01731-60.47938 134.50036-134.50035 134.50036-74.01823 0-133.85954-60.43454-133.85954-134.50036 0-27.4164 14.42227-48.77149 33.38707-68.90352 18.96847-20.13111 42.14809-38.03763 56.9997-58.98351 14.72437-20.76736 12.77259-44.49168 5.75829-66.1919l-22.21105-52.083645c-.1062-.242599-.22155-.492521-.32683-.734204h.0156l-7.29627-17.110072z"/><path d="m201.24004 40.870251 36.14812 84.770379c14.12382 4.75127 27.89061 4.54072 42.23505.002l31.35107-84.771922h-109.73424z"/></g></svg>