<svg height="512" viewBox="0 0 512 512" width="512" xmlns="http://www.w3.org/2000/svg"><circle cx="256" cy="256" r="246" stroke="#fff" stroke-width="10"/><g fill="#fff"><path d="m256.73438 241.18164c-23.07928-.00042-46.57825 3.11137-68.4336 10.52734-6.8328 2.31851-13.32611 5.92346-18.97851 10.40821-4.20992 3.34025-7.6189 7.64603-10.76368 12.0039-3.8345 5.31366-7.31821 10.98317-9.7539 17.06641-4.09783 10.23451-7.94141 17.86813-7.94141 32.10547 0 31.93606 12.98771 61.03227 33.95899 82.14453s49.92631 34.24023 81.86328 34.24023 61.03295-13.12648 82.14453-34.23828c21.11158-21.11181 34.23828-50.20848 34.23828-82.14453 0-14.39388-5.27368-26.50244-11.3418-38.38476-4.3633-8.54402-10.2885-16.55207-17.57812-22.78907-5.48215-4.69052-12.14632-8.09155-18.97852-10.41015-21.85606-7.41716-45.35521-10.52888-68.43554-10.5293zm-68.75977 14.99024 16.60937 22.07031-2.24023 6.74414 10.05859 10.05859 3.0586 11.75391-17.53125-17.53321-6.47071 2.10352-22.07226-16.60937 18.39258-.0918zm111.45898.26757v.002l-12.95507 42.99218 31.16992-12.8164-23.86524 32.10937 28.33203 4.17578-30.19531 17.29297 24.4375 16.74414-31.06054 2.4961-10.45313-10.45117c2.91032-4.18096 5.0347-8.78806 6.02344-13.47852l.0605.01c.12136-.66641.21641-1.32688.28711-1.98046 1.4851-10.55453-3.4948-18.38873-12.08203-20.64844-1.8752-.60752-3.89947-.95452-6.0332-1.01172-1.73344-.047-3.53621.0942-5.38477.42969-14.78516 2.68731-28.14861 16.05077-30.83593 30.83593-.72659 4.00007-.53591 7.78884.48047 11.11329 2.18241 8.93524 10.31655 14.08266 21.28124 12.32226.48087-.0615.96437-.13581 1.45118-.22461l-.01-.043c3.92144-.82956 7.78335-2.45174 11.38672-4.66211l22.29492 22.29297-17.48047-8.38281-4.63086 20.93164-13.53906-17.80078-21.04492 26.6543.60547-27.12696-38.24414 21.7168 22.83203-41.06445-33.99219 2.50195 32.54102-23.22656-30.05469-20.86328 44.10937-1.36914-8.82617-33.9043 23.57032 13.77148 6.56835-36.57422 14.92383 32.74805zm-55.73047 69.9043 27.35547 27.35742c.0148-.0164.0318-.0323.0469-.0488l8.59961 8.59961.0371.13282 22.01562 22.01562 7.94727-14.37109 14.83984 42.66015-42.66211-14.83789 15.86133-8.77148-58.26758-58.26758c1.28314-1.59003 2.70431-3.09121 4.22656-4.46875z"/><path d="m171.39034 56.042279 4.19284 11.489107c7.58464 20.78567 19.75577 42.038224 26.51008 61.962444 6.75248 19.92422 8.33075 36.96837-2.87457 52.77299-12.52358 17.66393-35.32602 35.73616-55.49741 57.14892-20.1714 21.41276-38.04314 47.1685-38.04314 80.6343 0 83.3038 67.61912 151.60769 150.96961 151.60769 83.34957 0 151.60768-68.25903 151.60768-151.60769 0-33.27996-17.05789-59.48244-36.93542-81.22661-19.87661-21.74416-42.88686-39.88871-56.96949-57.03815-8.40398-10.23125-7.39971-31.25036-.80561-53.96492 6.59319-22.71456 17.63647-45.807208 23.71791-59.816594l5.1907-11.961487h-18.84854l-30.19392 81.647721c-4.23678 20.1064-4.39424 40.2073 7.71738 54.95546 16.01517 19.50128 38.98606 37.39865 57.56454 57.72201 18.5794 20.32153 32.45329 42.20942 32.45329 69.68166 0 74.01731-60.47938 134.50036-134.50035 134.50036-74.01823 0-133.85954-60.43454-133.85954-134.50036 0-27.4164 14.42227-48.77149 33.38707-68.90352 18.96847-20.13111 42.14809-38.03763 56.9997-58.98351 14.72437-20.76736 12.77259-44.49168 5.75829-66.1919l-22.21105-52.083645c-.1062-.242599-.22155-.492521-.32683-.734204h.0156l-7.29627-17.110072z"/><path d="m201.24004 40.870251 36.14812 84.770379c14.12382 4.75127 27.89061 4.54072 42.23505.002l31.35107-84.771922h-109.73424z"/></g></svg>