<svg height="512" viewBox="0 0 512 512" width="512" xmlns="http://www.w3.org/2000/svg"><circle cx="256" cy="256" r="246" stroke="#fff" stroke-width="10"/><g fill="#fff"><path d="m256.73438 241.18164c-.44159-.00001-.8843.009-1.32618.0117 13.8857 9.76716 26.25379 22.16476 36.3418 36.29297-5.69564-14.55004-12.84197-26.51011-21.7207-35.95117-4.43722-.23679-8.87396-.35344-13.29492-.35352zm-15.49805.48828c-1.60701.10049-3.21439.21621-4.82031.34961l39.48632 43.31641c-4.33731-18.48424-18.0098-34.11352-34.66601-43.66602zm43.91992 1.16992c4.30825 5.13704 8.65162 11.35764 12.80859 18.8711l.0234-.0117 8.80664 15.24023-62.67773 36.1875-8.80664-15.24023.0488-.0254c-13.67031-20.02411-23.5833-27.27534-37.58197-38.47657-3.07665-2.46183-6.87291-4.97447-10.61328-7.26172-6.41417 2.32356-12.50495 5.75976-17.84179 9.99414-4.20992 3.34025-7.6189 7.64603-10.76368 12.0039-3.8345 5.31366-7.31821 10.98317-9.7539 17.06641-4.09783 10.23451-7.94141 17.86813-7.94141 32.10547 0 31.93606 12.98771 61.03227 33.95899 82.14453s49.92631 34.24023 81.86328 34.24023 61.03295-13.12648 82.14453-34.23828c21.11158-21.11181 34.23828-50.20848 34.23828-82.14453 0-14.39388-5.27368-26.50244-11.3418-38.38476-4.3633-8.54402-10.2885-16.55207-17.57812-22.78907-5.48215-4.69052-12.14632-8.09155-18.97852-10.41015-12.90615-4.37989-26.38615-7.24791-40.01367-8.8711zm-62.88672.79493c-4.16373.61345-8.30623 1.35315-12.41797 2.21679 16.73835 10.13353 32.01987 23.42779 46.98828 38.39453-9.69999-16.66467-21.35308-30.25557-34.57031-40.61132zm-14.33594 2.63281c-2.32993.51348-4.64935 1.06162-6.95507 1.66015 12.53294 8.39603 24.1838 18.77981 35.69726 30.29102-9.14567-12.78342-18.56812-23.48013-28.74219-31.95117zm93.43946 42.36719 33.62304 58.21289-44.4375 25.66015-33.62109-58.21484zm28.96093 13.32031 7.84766 13.5918-9.52539 5.50585-7.84766-13.60546zm-66.81054 38.56836h.002l7.84961 13.60351-67.31641 38.87891-7.86132-13.61524zm84.29492 7.46679 8.81641 15.26563-62.67579 36.1875-8.81836-15.26758zm-159.85547 31.98243 11.4707 19.86718-14.26171 8.23438-11.47071-19.86719z"/><path d="m171.39034 56.042279 4.19284 11.489107c7.58464 20.78567 19.75577 42.038224 26.51008 61.962444 6.75248 19.92422 8.33075 36.96837-2.87457 52.77299-12.52358 17.66393-35.32602 35.73616-55.49741 57.14892-20.1714 21.41276-38.04314 47.1685-38.04314 80.6343 0 83.3038 67.61912 151.60769 150.96961 151.60769 83.34957 0 151.60768-68.25903 151.60768-151.60769 0-33.27996-17.05789-59.48244-36.93542-81.22661-19.87661-21.74416-42.88686-39.88871-56.96949-57.03815-8.40398-10.23125-7.39971-31.25036-.80561-53.96492 6.59319-22.71456 17.63647-45.807208 23.71791-59.816594l5.1907-11.961487h-18.84854l-30.19392 81.647721c-4.23678 20.1064-4.39424 40.2073 7.71738 54.95546 16.01517 19.50128 38.98606 37.39865 57.56454 57.72201 18.5794 20.32153 32.45329 42.20942 32.45329 69.68166 0 74.01731-60.47938 134.50036-134.50035 134.50036-74.01823 0-133.85954-60.43454-133.85954-134.50036 0-27.4164 14.42227-48.77149 33.38707-68.90352 18.96847-20.13111 42.14809-38.03763 56.9997-58.98351 14.72437-20.76736 12.77259-44.49168 5.75829-66.1919l-22.21105-52.083645c-.1062-.242599-.22155-.492521-.32683-.734204h.0156l-7.29627-17.110072z"/><path d="m201.24004 40.870251 36.14812 84.770379c14.12382 4.75127 27.89061 4.54072 42.23505.002l31.35107-84.771922h-109.73424z"/></g></svg>