<svg height="512" viewBox="0 0 512 512" width="512" xmlns="http://www.w3.org/2000/svg"><circle cx="256" cy="256" r="246" stroke="#fff" stroke-width="10"/><path d="m224.3744 197.6752c-33.9976 16.64-71.9064 25.9216-105 37.6752-17.7864 6.316-29.2144 19.576-34.176 35.424s-4.0976 34.0896.4752 52.5256c9.144 36.872 33.112 75.0104 62.9 95.9504 29.7864 20.9392 73.7736 30.5944 111.5744 26.7248 18.9-1.936 36.3616-7.296 49.6-17.3264 13.2376-10.0304 21.872-25.2752 21.8-44.1496-.1376-35.116-4.2344-73.9144-.0752-111.5248 3.44-31.112 12.2928-61.192 34.0368-88.8012 13.50746-11.02209 26.50781-21.61299 39.5136-32.1972-4.06625-2.85888-8.13267-5.71752-12.1992-8.576l19.5008-20.1504c-10.48621-29.451021-45.65693-58.067795-73.8-51.8752l-12.3488 25.1512c-4.37586-3.074638-8.75107-6.15021-13.1264-9.2256-5.73612 16.2908-11.46748 32.58327-17.2004 48.8752-18.806 29.8168-43.7892 47.9488-71.4748 61.5zm155.0756-44.1496-20.2988 16.5248c-24.452-3.472-38.7728-14.8-47.6752-33.3256l9.1244-25.8496zm-76.2004-1.0008c9.9424 14.9104 24.7472 25.6456 44.3504 30.5504-19.16 27.76-27.6736 58.1648-31 88.2496-.1336 1.2096-.256 2.416-.376 3.624-5.296-3.2296-12.9584-6.4624-22.3488-9.248-21.5648-6.4-52.2-10.5256-86.024-10.5256-33.8256 0-64.4368 4.1248-86 10.524-9.3648 2.7784-17.0056 6.004-22.3008 9.224 3.8384-11.9952 11.2336-20.672 24.824-25.4992 32-11.3632 70.6344-20.7072 106.576-38.2992 27.056-13.2424 52.688-31.4112 72.3-58.6zm-181.3992 151.1504c21.564 6.4 52.176 10.5248 86 10.5248s64.46-4.1248 86.024-10.5248c8.656-2.568 15.8048-5.5416 21.0256-8.5248-.2064 5.664-.2816 11.3056-.2752 16.9-4.932 2.192-10.4416 4.152-16.4992 5.9496-23.552 6.9896-55.252 11.1504-90.2752 11.1504-35.0224 0-66.7216-4.16-90.2744-11.1504-7.2144-2.1408-13.6696-4.512-19.276-7.224-1.0768-6.3232-1.5624-12.4272-1.2252-18.0008 5.4852 3.8656 13.9932 7.7 24.7756 10.9z" fill="#fff" stroke-width=".8"/></svg>