<svg height="512" viewBox="0 0 512 512" width="512" xmlns="http://www.w3.org/2000/svg"><circle cx="256" cy="256" r="246" stroke="#fff" stroke-width="10"/><g fill="#fff"><path d="m256.73438 241.18164c-23.07928-.00042-46.57825 3.11137-68.4336 10.52734-6.8328 2.31851-13.32611 5.92346-18.97851 10.40821-4.20992 3.34025-7.6189 7.64603-10.76368 12.0039-3.8345 5.31366-7.31821 10.98317-9.7539 17.06641-4.09783 10.23451-7.94141 17.86813-7.94141 32.10547 0 31.93606 12.98771 61.03227 33.95899 82.14453 1.97257 1.98584 4.0153 3.90191 6.125 5.74219-.43487-1.08532-.69141-2.32322-.69141-3.73047 0-6.1507 4.68975-9.22656 9.37891-9.22656 4.68917 0 9.37695 3.0755 9.37695 9.22656 0 1.45654-.26443 2.73916-.72852 3.85156 3.0102.59262 5.63477 2.90129 5.63477 6.9375 0 3.2716-1.72543 5.40896-3.98242 6.41797 16.78092 9.55017 36.14228 15.02148 56.75 15.02148 24.1295 0 46.63501-7.49649 65.30273-20.26562-2.19347-.54922-4.12118-2.14707-4.89648-5.04102-1.92459-7.18349 6.27146-11.02694 11.05664-7.90429.8875-1.8164 2.89361-2.89172 4.88672-2.91602h.002c1.8863-.023 3.74892.90295 4.63672 3.01758.38616-.37577.77525-.74791 1.15625-1.12891 21.11158-21.11181 34.23828-50.20848 34.23828-82.14453 0-14.39388-5.27368-26.50244-11.3418-38.38476-4.3633-8.54402-10.2885-16.55207-17.57812-22.78907-5.48215-4.69052-12.14632-8.09155-18.97852-10.41015-21.85606-7.41716-45.35521-10.52888-68.43554-10.5293zm43.82617 14.05664c10.79166.00072 21.58203 7.07661 21.58203 21.23047 0 8.73358-4.10977 14.76822-9.79102 18.11328.10633.53943.16602 1.11643.16602 1.73047 0 .61796-.0582 1.19761-.16602 1.74023 5.51632 2.11415 9.85938 7.07262 9.85938 14.88086 0 3.9773-1.12864 7.21481-2.96289 9.71485 4.98368 1.61328 9.17301 5.45639 10.37109 11.5332 4.87837-1.57435 11.23438 1.01421 11.23438 7.7793 0 8.2959-9.56043 10.31767-14.22852 6.07226-3.44502 4.29254-9.05833 6.22846-14.45898 5.80078v.0586c0 16.83026-13.07349 25.07963-25.9004 24.75976l3.75391-32.28125h26.97461l-15.70117-65.00781h-45.30469c-.7197-1.85388-1.12695-3.9716-1.12695-6.35742 0-16.40615 19.16328-20.24439 28.1289-11.51367 4.11297-5.5031 10.84092-8.25391 17.57032-8.25391zm-97.57813 8.34375c4.3625.0314 8.75534 1.64684 11.95117 4.57422 4.45462-6.85791 17.21002-2.99626 15.13086 6.56055-1.21165 5.56951-6.2 7.27962-10.39257 6.14258-.0714.75077-.18536 1.51944-.35743 2.31054-4.55242 20.92645-36.45991 13.98665-31.9082-6.93945 1.92065-8.82781 8.71041-12.69734 15.57617-12.64844zm22.17383 24.45313h70.88477l12.47851 51.66406h-24.44141l-7.41601 63.77539h-32.12695l-7.41602-63.77539h-24.44141zm110.25195 4.03125c3.857 0 7.71485 2.52925 7.71485 7.58789 0 10.11836-15.42774 10.11836-15.42774 0 0-5.059 3.85625-7.58789 7.71289-7.58789zm-107.29101 17.13476-4.20117 19.38672 28.2246-2.52734zm64.88672 0-24.02344 16.85938 28.22461 2.52734zm39.81836 3.36133c2.65321 0 5.30664 1.74069 5.30664 5.2207 0 6.95966-10.61329 6.95966-10.61329 0 .00001-3.48001 2.65345-5.21875 5.30665-5.21875zm-147.89454 4.5293c4.39927 0 8.79573 2.262 10.49219 6.78515 3.96551-4.41677 9.89614-6.57998 15.78516-6.49218l-7.00196 28.98632h24.91797c-7.98317 16.78564-37.99845 13.92117-38.45898-8.5957-6.64622 3.5507-16.96094.33763-16.96094-9.64258 0-7.36127 5.61457-11.04101 11.22656-11.04101zm75.63477 14.65625-11.38281 15.02929 5.31836 4.02735 6.0625-8.00586 6.0625 8.00586 5.32031-4.02735zm-78.40039 15.03125c2.65283 0 5.30469 1.73947 5.30469 5.21875 0 6.96144-10.61133 6.96144-10.61133 0 0-3.48 2.65308-5.21875 5.30664-5.21875zm50.41601 11.62304 6.01563 51.74414h7.16211c-1.94634 8.87531-16.51953 8.19218-16.51953-2.05078 0-1.90708.50447-3.48242 1.33984-4.72656-6.23817-1.7325-11.42383-6.86015-11.42383-15.39453 0-5.19537 1.92463-9.12775 4.83594-11.80273-1.28876-1.72645-2.08203-3.97279-2.08203-6.74024 0-7.11887 5.25017-10.79439 10.67187-11.0293zm52.56446 29.89649c5.64305 2.05488 10.12695 7.04816 10.12695 14.98242 0 .38377-.0125.7587-.0332 1.12891 6.58981-2.38368 15.46289 1.04972 15.46289 10.30664 0 14.0439-20.42561 14.69367-22.31055 1.94531-7.92426 5.09613-20.37397 2.9248-24.43945-6.51563h18.6543zm54.81054 2.33594c1.74393-.0214 3.47165.92791 4.06641 3.14843 1.46369 5.46348-6.86834 7.69591-8.33203 2.23242-.86894-3.24402 1.71596-5.34955 4.26562-5.38085zm-125.7539 13.58007c2.6525 0 5.30469 1.73804 5.30469 5.21875 0 6.96002-10.61133 6.96002-10.61133 0 0-3.48 2.65416-5.21875 5.30664-5.21875zm-26.77539 12.21875c.68758.51849 1.38084 1.02979 2.08008 1.53321.0142-.45149.0556-.88618.13281-1.29297-.74441.00017-1.48717-.0853-2.21289-.24024z"/><path d="m171.39034 56.042279 4.19284 11.489107c7.58464 20.78567 19.75577 42.038224 26.51008 61.962444 6.75248 19.92422 8.33075 36.96837-2.87457 52.77299-12.52358 17.66393-35.32602 35.73616-55.49741 57.14892-20.1714 21.41276-38.04314 47.1685-38.04314 80.6343 0 83.3038 67.61912 151.60769 150.96961 151.60769 83.34957 0 151.60768-68.25903 151.60768-151.60769 0-33.27996-17.05789-59.48244-36.93542-81.22661-19.87661-21.74416-42.88686-39.88871-56.96949-57.03815-8.40398-10.23125-7.39971-31.25036-.80561-53.96492 6.59319-22.71456 17.63647-45.807208 23.71791-59.816594l5.1907-11.961487h-18.84854l-30.19392 81.647721c-4.23678 20.1064-4.39424 40.2073 7.71738 54.95546 16.01517 19.50128 38.98606 37.39865 57.56454 57.72201 18.5794 20.32153 32.45329 42.20942 32.45329 69.68166 0 74.01731-60.47938 134.50036-134.50035 134.50036-74.01823 0-133.85954-60.43454-133.85954-134.50036 0-27.4164 14.42227-48.77149 33.38707-68.90352 18.96847-20.13111 42.14809-38.03763 56.9997-58.98351 14.72437-20.76736 12.77259-44.49168 5.75829-66.1919l-22.21105-52.083645c-.1062-.242599-.22155-.492521-.32683-.734204h.0156l-7.29627-17.110072z"/><path d="m201.24004 40.870251 36.14812 84.770379c14.12382 4.75127 27.89061 4.54072 42.23505.002l31.35107-84.771922h-109.73424z"/></g></svg>