<svg viewBox="0 0 512 512" xmlns="http://www.w3.org/2000/svg"><circle cx="256" cy="256" r="246" stroke="#fff" stroke-width="10"/><path d="m253.12762 68.509893-9.35139 34.798847 114.53465 30.71847 9.32706-34.798041zm.63261 53.174777-5.55 20.65579-14.90302-4.00334c-34.69666-9.29786-70.62043 10.94591-79.93857 45.72286l-40.45105 150.9548c-9.31895 34.77776 11.45201 70.74939 46.22977 80.06671l116.33519 31.17347c34.77776 9.31895 70.26114-11.65964 79.55819-46.35629l40.45186-150.98156c9.29623-34.69666-11.15355-70.10704-45.84858-79.40734v-.0243l-15.43588-4.13148 5.52487-20.63064-14.62321-3.92953-7.5022 27.98117-1.95219 7.29944.10057.0243c-7.97504 23.42957 45.73746 78.02936 66.75903 52.46673.33901 5.36266-.16059 10.89806-1.64643 16.44807l-2.23039 8.28892h-37.08114c8.01316 11.18192 11.28412 26.3534 6.20939 43.11128-7.55329 24.94461-29.37618 36.72428-50.8422 47.1422-21.46602 10.41873-43.33433 20.11401-57.0005 38.906l-11.28006 15.53645-2.35772-19.05964c-2.87516-23.16355-17.73601-41.94987-31.45246-61.48803-6.85823-9.76827-13.38879-19.70037-17.36131-30.79389-3.63917-10.16244-4.93523-21.43926-2.07871-33.35519h-24.88784l17.51378-65.3405c7.194-26.84977 34.45335-42.21832 61.38584-35.0008l22.22759 5.95634 7.29944 1.97571 1.97896-7.32377 7.5022-27.95684-14.65078-3.92872zm-29.34779 105.74046c-14.11387.28387-28.14906 8.90207-33.60985 26.96737-3.00656 9.95156-2.20281 18.37025.93838 27.14417 3.142 8.77311 8.86314 17.72547 15.5113 27.19446 10.81696 15.4083 24.11086 32.27973 30.64304 53.27778 15.71001-15.17472 35.30251-23.79617 52.38887-32.08752 21.03049-10.20866 37.39908-19.44407 42.98558-37.89219 6.08854-20.10589-2.34636-33.22217-15.68892-39.74138-13.34175-6.51839-31.71038-5.24748-45.54525 8.51601l-9.65715 9.60606-3.0901-13.28092c-4.79167-20.68498-18.94366-29.4443-33.50766-29.70465-.45419-.008-.91324-.008-1.36824 0z" fill="#fff" stroke-width=".999999"/></svg>