<svg viewBox="0 0 512 512" xmlns="http://www.w3.org/2000/svg"><circle cx="256" cy="256" r="246" stroke="#fff" stroke-width="10"/><path d="m330.12286 57.898397c-.91295-.0084-1.80915.0025-2.6886.0335-12.33322.427161-21.66375 4.726408-26.93039 12.153143-6.01794 8.48626-6.42416 20.620976-.68848 34.54726 5.734 13.92544 17.64341 28.8836 34.30101 40.68245 16.65759 11.79969 34.72398 18.07477 49.77344 18.86795 15.04946.79569 26.37843-3.60993 32.39721-12.09703 6.01794-8.48794 6.42249-20.62265.68849-34.54977-5.73485-13.92544-17.64342-28.882768-34.30101-40.680781-16.65927-11.801363-34.72566-18.074763-49.77512-18.870455-.94059-.04858-1.86778-.07789-2.77738-.08711zm-40.00234 62.486083-15.78234 22.25424c-.3568.50254-.68848 1.01346-1.00508 1.52772-7.64869-2.02692-15.34094-3.31091-22.94607-3.72718-1.54616-.0863-3.09064-.13401-4.63344-.13988-1.54113-.007-3.07975.0268-4.61166.10051-21.44682 1.02435-41.76125 9.97127-55.43291 29.25046l-110.045821 155.17913 2.814235 4.43494 61.380486 96.73599 116.77068 27.01667 110.16895-155.35251c15.65418-22.07835 15.66256-47.83195 6.14525-70.69092-3.9994-9.60693-9.59018-18.82522-16.35775-27.44215l14.96906-21.11179c-5.30182-.97995-10.6874-2.44068-16.08972-4.36876l-12.29721 17.34189c-3.15261 4.44331-7.66377 5.88644-14.85849 5.10582-7.19641-.77894-16.17013-4.47932-23.92519-9.89337-7.7559-5.41406-14.26382-12.53257-17.37456-18.98102-3.11073-6.44929-3.28076-11.16983.0963-15.93226l12.40944-17.49516c-3.5915-4.48687-6.74244-9.11025-9.39502-13.81153zm-44.46409 35.55736c1.27813.0126 2.56883.0544 3.87209.12564 6.39066.35178 13.02589 1.47412 19.7298 3.26317.0586 5.22309 1.39874 10.42356 3.6518 15.09302 4.73814 9.82469 12.97899 18.35786 22.51389 25.01486 9.53574 6.65869 20.39064 11.44959 31.19949 12.62219 6.0238.6533 12.31395-.0402 17.88714-2.44571 5.87975 7.52976 10.67232 15.42469 13.9824 23.37407 8.00717 19.2348 7.99209 38.05584-4.46425 55.61968l-10.83146 15.27477-79.50718-41.05518 19.91323-28.08205-12.76875-9.05413-24.43528 34.45763-123.1873 24.68906 75.26406-106.13689c10.86328-15.31915 25.83903-22.03647 43.38194-22.71071 1.253-.0477 2.51941-.0645 3.79838-.0519zm-127.07195 135.4242 77.13518 40.25111-51.30452 72.34679-49.904101-78.64783zm219.86718 19.21219-88.51943 124.82307-93.31202-21.58837 56.3936-79.52309z" fill="#fff"/></svg>