<svg height="512" viewBox="0 0 512 512" width="512" xmlns="http://www.w3.org/2000/svg"><circle cx="256" cy="256" r="246" stroke="#fff" stroke-width="10"/><g fill="#fff"><path d="m256.73438 241.18164c-23.07928-.00042-46.57825 3.11137-68.4336 10.52734-6.8328 2.31851-13.32611 5.92346-18.97851 10.40821-4.20992 3.34025-7.6189 7.64603-10.76368 12.0039-3.8345 5.31366-7.31821 10.98317-9.7539 17.06641-4.09783 10.23451-7.94141 17.86813-7.94141 32.10547 0 31.93606 12.98771 61.03227 33.95899 82.14453s49.92631 34.24023 81.86328 34.24023 61.03295-13.12648 82.14453-34.23828c21.11158-21.11181 34.23828-50.20848 34.23828-82.14453 0-14.39388-5.27368-26.50244-11.3418-38.38476-4.3633-8.54402-10.2885-16.55207-17.57812-22.78907-5.48215-4.69052-12.14632-8.09155-18.97852-10.41015-21.85606-7.41716-45.35521-10.52888-68.43554-10.5293zm-38.5625 9.34766v.0586c17.74482-.82923 38.75896 9.04182 53.32421 18.77734l6.46485 4.32227-1.68164-16.87891c7.03803 4.78255 12.86594 9.68555 16.17578 15.18555 3.52156 5.85106 5.05362 12.39816 4.0957 20.81836-3.7034-1.53724-7.77991-3.0817-12.2539-4.69922-10.03262-10.25971-19.44826-14.67928-27.53907-14.20898-8.3226.48605-14.54424 6.15766-17.0957 13.14648-2.55184 6.98884-1.80572 15.46714 3.04687 22.43945 4.23904 6.08955 12.16039 10.25963 22.55274 11.84961-4.92344 15.27602-5.92469 28.88418-2.61328 39.80664 2.74547 9.05462 8.16526 16.33113 15.4414 21.32422l.0293.29492c.92604 8.7449-4.20374 19.19342-13.13086 28.61524-7.50715 7.92315-17.6481 14.50913-28.01172 19.30664l3.83594-30.35352-6.30859 3.41797c-13.16379 7.14705-25.53723 9.21406-38.09571 10.15625 8.24664-12.82218 12.58362-25.8612 19.9668-34.51953l8.5918-10.07031-12.55469 4.19531c-12.33562 3.9301-31.07937 5.39829-45.36133-.0215l10.28125-9.17188 18.31641-15.77343c0-.00001-11.89066-7.54533-18.31641-10.35743-7.36318-3.22235-22.96094-7.36328-22.96094-7.36328s15.07629-10.31248 22.96094-14.90429c5.18942-3.02218 15.98828-8.30274 15.98828-8.30274l-12.49804-20.29883c10.96457-6.3556 29.19268-8.70374 40.7539-8.77734l8.51953-.0742-24.59375-25.82813c4.27287-.87369 8.59738-1.92752 12.66993-2.11132zm39.50781 30.66211c5.31385-.1 12.95588 2.9487 22.11914 12.60351l.60156.63281.81836.30079c12.10196 4.35001 20.82314 8.11635 26.67773 12.05273 5.8542 3.93717 8.84004 7.78013 10.38672 13.11523l1.86719 2.25586 40.625 20.61328c-4.56333 6.95933-8.98001 14.01849-13.17773 21.12696-1.05315-7.84247-7.75774-13.89258-15.88868-13.89258-8.86296 0-16.04882 7.18665-16.04882 16.04883 0 8.86297 7.18586 16.05078 16.04882 16.05078 2.2854 0 4.45721-.48069 6.42383-1.3418-2.48572 4.68218-4.85648 9.36939-7.08008 14.05274l-42.73632-15.14063h-.0137c-9.15618-3.84311-15.60448-10.74147-18.61914-20.68554-3.01664-9.95075-2.46229-23.12346 3.37696-39.04688l1.70898-4.6543-4.95703-.27148c-11.18497-.63993-17.6286-4.8045-21.07422-9.75391-3.44483-4.9498-3.89688-10.98031-2.16797-15.71484 1.72851-4.73452 5.27276-8.0094 10.60157-8.31836.16686 0 .33622.003.50781 0zm46.84961 35.42773c-3.25513 0-5.78125 2.51284-5.78125 5.76758 0 3.25592 2.52651 5.78125 5.78125 5.78125 3.25513 0 5.76758-2.52494 5.76758-5.78125-.00001-3.25474-2.51206-5.76758-5.76758-5.76758z"/><path d="m171.39034 56.042279 4.19284 11.489107c7.58464 20.78567 19.75577 42.038224 26.51008 61.962444 6.75248 19.92422 8.33075 36.96837-2.87457 52.77299-12.52358 17.66393-35.32602 35.73616-55.49741 57.14892-20.1714 21.41276-38.04314 47.1685-38.04314 80.6343 0 83.3038 67.61912 151.60769 150.96961 151.60769 83.34957 0 151.60768-68.25903 151.60768-151.60769 0-33.27996-17.05789-59.48244-36.93542-81.22661-19.87661-21.74416-42.88686-39.88871-56.96949-57.03815-8.40398-10.23125-7.39971-31.25036-.80561-53.96492 6.59319-22.71456 17.63647-45.807208 23.71791-59.816594l5.1907-11.961487h-18.84854l-30.19392 81.647721c-4.23678 20.1064-4.39424 40.2073 7.71738 54.95546 16.01517 19.50128 38.98606 37.39865 57.56454 57.72201 18.5794 20.32153 32.45329 42.20942 32.45329 69.68166 0 74.01731-60.47938 134.50036-134.50035 134.50036-74.01823 0-133.85954-60.43454-133.85954-134.50036 0-27.4164 14.42227-48.77149 33.38707-68.90352 18.96847-20.13111 42.14809-38.03763 56.9997-58.98351 14.72437-20.76736 12.77259-44.49168 5.75829-66.1919l-22.21105-52.083645c-.1062-.242599-.22155-.492521-.32683-.734204h.0156l-7.29627-17.110072z"/><path d="m201.24004 40.870251 36.14812 84.770379c14.12382 4.75127 27.89061 4.54072 42.23505.002l31.35107-84.771922h-109.73424z"/></g></svg>