<svg height="512" viewBox="0 0 512 512" width="512" xmlns="http://www.w3.org/2000/svg"><circle cx="256" cy="256" r="246" stroke="#fff" stroke-width="10"/><g fill="#fff"><path d="m256.73438 241.18164c-10.7048-.00019-21.49839.6791-32.17774 2.13672v13.73633c9.66226-7.2243 20.78812-11.41016 32.67578-11.41016 11.87824 0 22.99175 4.18333 32.64844 11.39649v-13.5879c-10.99473-1.55122-22.1181-2.27128-33.14648-2.27148zm-40.19922 3.38672c-9.59826 1.68403-19.06244 4.0284-28.23438 7.14062-6.8328 2.31851-13.32611 5.92346-18.97851 10.40821-4.20992 3.34025-7.6189 7.64603-10.76368 12.0039-3.8345 5.31366-7.31821 10.98317-9.7539 17.06641-4.09783 10.23451-7.94141 17.86813-7.94141 32.10547 0 5.07771.33029 10.08263.9668 14.99609h26.64062c6.24381-.52968 13.3259-2.46574 20.11524-5.38281 1.44846-22.7074 8.54211-43.17001 19.4707-58.64453 2.60551-3.68972 5.44275-7.09354 8.47852-10.17774zm81.35546.17187v19.30469c3.05034 3.09491 5.90007 6.51123 8.51758 10.2168 10.92602 15.47111 18.00857 35.92817 19.45703 58.63086 6.76791 2.92692 13.85262 4.86639 20.10157 5.39648h26.125c.64287-4.9128.97656-9.9171.97656-14.99414 0-14.39388-5.27368-26.50244-11.3418-38.38476-4.3633-8.54402-10.2885-16.55207-17.57812-22.78907-5.48215-4.69052-12.14632-8.09155-18.97852-10.41015-8.86784-3.00943-18.00816-5.29906-27.2793-6.97071zm-40.6582 8.91211c-11.92323 0-23.14274 4.96345-32.67773 13.76563v36.73437h.12109c0 12.59775 15.1203 27.10547 32.54297 27.10547 16.66158.0107 31.24793-13.05962 32.66211-25.20312v-38.64844c-9.52856-8.79489-20.73078-13.75391-32.64844-13.75391zm-.0273 8.03516c13.19813 0 24.78906 13.8225 24.78906 31.95312 0 18.13061-11.59092 31.9668-24.78906 31.9668-13.19813 0-24.78906-13.83619-24.78906-31.9668 0-18.1306 11.59093-31.95312 24.78906-31.95312zm40.68359 14.53125.002 27.93359h.11915c0 9.1583 8.50258 18.0481 19.44531 24.48047-1.99827-19.41409-8.40208-36.73014-17.59766-49.75-.64324-.91193-1.29827-1.7967-1.9668-2.66406zm-81.35547.0391c-.65824.85579-1.30716 1.72569-1.9414 2.62305-9.20415 13.03272-15.61753 30.36875-17.60938 49.80469 10.26822-5.97897 18.43982-14.09307 19.55274-22.57813v-29.84961zm76.06641 53.16407c-8.3865-.003-16.64872 3.52448-25.05664 11.07617l-.13477 3.36133c8.65691 7.74841 17.09291 11.30567 25.56641 11.26367 8.96674-.0458 18.45955-4.18046 28.55078-12.83008-10.34621-8.75377-19.95732-12.86514-28.92578-12.86914zm-73.11914.002c-9.01131-.003-17.88686 4.06646-26.94531 12.83008 9.26673 8.86646 18.26704 12.91454 27.30664 12.86914 8.55405-.0428 17.59617-3.82177 27.17187-11.67774l-.10742-2.38476c-9.77668-7.90226-18.89186-11.63272-27.42578-11.63672zm1.16406 5.14258c4.09211 0 7.41992 3.32628 7.41992 7.41797 0 4.09083-3.32824 7.40624-7.41992 7.40624-4.09169.00001-7.40625-3.31542-7.40625-7.40624 0-4.09126 3.31456-7.41797 7.40625-7.41797zm73.13281 0c4.09126 0 7.4043 3.32628 7.4043 7.41797 0 4.09083-3.31304 7.40624-7.4043 7.40624-4.09168.00001-7.40625-3.31542-7.40625-7.40624 0-4.09126 3.3137-7.41797 7.40625-7.41797zm-150.62109 11.73047c4.59306 22.78045 15.86008 43.22843 31.66602 59.14062 11.7058 11.7845 25.89991 21.07746 41.71093 26.99219v-13.375c-3.03491-3.08377-5.87105-6.48802-8.47656-10.17774-10.68047-15.12184-17.69712-35.01148-19.36328-57.10351-7.07517-3.05119-14.47703-5.03431-20.91797-5.47656zm203.49219 0c-6.44522.44439-13.84202 2.43113-20.89063 5.49218-1.6653 22.0856-8.67366 41.96905-19.35156 57.08789-2.61751 3.70558-5.46528 7.12384-8.51563 10.21875v12.95703c15.47047-5.9289 29.39996-15.07366 40.93946-26.61328 15.91211-15.91229 27.28534-36.36151 31.92383-59.14257zm-89.43164 7.07031v.002c-17.42353.0103-32.54297 14.51987-32.54297 27.11719h-.11914v35.23437c9.53498 8.80346 20.75255 13.76758 32.67578 13.76758 11.9168 0 23.1214-4.95816 32.65039-13.7539v-37.1504c-1.41503-12.1435-16.00248-25.21679-32.66406-25.21679zm-60.07422 2.67969c2.17612 18.79013 8.49705 35.53476 17.44922 48.21093.63381.89779 1.28426 1.7692 1.94336 2.625v-28.35156c-1.10477-8.44435-9.19851-16.51355-19.39258-22.48437zm120.16601.0527c-10.86774 6.42594-19.29882 15.2717-19.29882 24.38672h-.11915v26.43555c.6681-.86823 1.32399-1.75299 1.9668-2.66407 8.94445-12.66374 15.26991-29.38949 17.45117-48.1582zm-92.75195 69.98633v9.01172c10.20533 2.97829 20.98503 4.58007 32.12891 4.58007 11.51614 0 22.65914-1.714 33.19531-4.88671v-8.69141c-9.65669 7.21359-20.77063 11.39648-32.64844 11.39648-11.88766 0-23.01396-4.18585-32.67578-11.41015z"/><path d="m171.39034 56.042279 4.19284 11.489107c7.58464 20.78567 19.75577 42.038224 26.51008 61.962444 6.75248 19.92422 8.33075 36.96837-2.87457 52.77299-12.52358 17.66393-35.32602 35.73616-55.49741 57.14892-20.1714 21.41276-38.04314 47.1685-38.04314 80.6343 0 83.3038 67.61912 151.60769 150.96961 151.60769 83.34957 0 151.60768-68.25903 151.60768-151.60769 0-33.27996-17.05789-59.48244-36.93542-81.22661-19.87661-21.74416-42.88686-39.88871-56.96949-57.03815-8.40398-10.23125-7.39971-31.25036-.80561-53.96492 6.59319-22.71456 17.63647-45.807208 23.71791-59.816594l5.1907-11.961487h-18.84854l-30.19392 81.647721c-4.23678 20.1064-4.39424 40.2073 7.71738 54.95546 16.01517 19.50128 38.98606 37.39865 57.56454 57.72201 18.5794 20.32153 32.45329 42.20942 32.45329 69.68166 0 74.01731-60.47938 134.50036-134.50035 134.50036-74.01823 0-133.85954-60.43454-133.85954-134.50036 0-27.4164 14.42227-48.77149 33.38707-68.90352 18.96847-20.13111 42.14809-38.03763 56.9997-58.98351 14.72437-20.76736 12.77259-44.49168 5.75829-66.1919l-22.21105-52.083645c-.1062-.242599-.22155-.492521-.32683-.734204h.0156l-7.29627-17.110072z"/><path d="m201.24004 40.870251 36.14812 84.770379c14.12382 4.75127 27.89061 4.54072 42.23505.002l31.35107-84.771922h-109.73424z"/></g></svg>