<svg height="512" viewBox="0 0 512 512" width="512" xmlns="http://www.w3.org/2000/svg"><circle cx="256" cy="256" r="246" stroke="#fff" stroke-width="10"/><g fill="#fff"><path d="m256.73438 241.18164c-23.07928-.00042-46.57825 3.11137-68.4336 10.52734-6.8328 2.31851-13.32611 5.92346-18.97851 10.40821-4.20992 3.34025-7.6189 7.64603-10.76368 12.0039-2.43941 3.38042-4.73298 6.90614-6.70898 10.58985 10.12618 4.42853 23.42834 10.04367 32.30469 12.97461 20.65287 6.8195 42.14877 11.63931 63.31054 15.78711v14.01757c-26.0199-4.31293-54.1904-11.94477-79.8164-21.12109l-21.18946-9.38672c-.73725 1.82837-1.4617 3.66842-2.10351 5.50391 9.14769 4.44113 25.81269 12.31461 36.16015 15.84765 21.73321 7.4206 40.89262 12.02772 66.94922 16.25977v30.35352c-21.79685-1.90295-53.92638-4.95398-79.8164-12.33399-7.2752-2.07381-18.85997-7.40365-25.24414-10.45508 4.00926 24.44043 15.66094 46.40962 32.41797 63.2793 16.95953 17.07354 39.14145 28.92232 63.89843 32.83203l-4.16406-60.82422-.24414-3.23047h-16.66406c.0119-1.82545.0329-3.68457.0703-5.57031 11.97721 1.66406 22.83098 2.82058 32.96289 3.64063l3.7793.30273v-61.95898h-.01v-54.37891c.25425-.007.89501.0352 1.88281.0352 10.49102 0 19.85743 11.16671 19.85743 25.97851 0 7.4752-2.53415 14.17337-6.31836 18.875l-3.81446 4.73828 6.00391.91211c5.80026.89119 9.83482 3.62763 13.0918 7.95703 3.25773 4.3298 5.57313 10.35341 7.10351 17.29688 2.823 12.80775 2.94522 28.50437 2.94922 42.17187h-15.85547l-.21094 3.26563-3.67382 60.6543c24.47407-4.03698 46.47502-15.80688 63.36328-32.69532 21.11158-21.11181 34.23828-50.20848 34.23828-82.14453 0-14.39388-5.27368-26.50244-11.3418-38.38476-4.3633-8.54402-10.2885-16.55207-17.57812-22.78907-5.48215-4.69052-12.14632-8.09155-18.97852-10.41015-21.85606-7.41716-45.35521-10.52888-68.43554-10.5293zm-9.28126 17.75977v47.42773c-.38081-.076-.77439-.15727-1.1582-.23437l.64258-.11719-3.84961-4.58594c-3.9557-4.72483-6.62305-11.50556-6.62305-19.16797 0-10.37231 4.65781-19.06849 10.98828-23.32226zm96.70118 40.35937c.10859 18.63123-.14123 35.77948-8.81055 47.61328-5.08243 6.93747-13.0599 12.48362-26.41211 15.90235-2.11003.53997-4.36594 1.01781-6.75195 1.43945-.11457-8.62587-.50136-17.72509-1.75391-26.32813 4.83343-.37633 9.40511-.99431 13.65625-1.88476l.0684-.0117.084-.0215c9.13886-2.34781 15.92604-6.46938 19.14257-12.81446 2.19467-4.33054 2.48045-9.35253 1.07813-14.75586 3.7902-2.79041 6.89645-5.92813 9.69922-9.13867zm-15.9961 13.04688c.46432 3.04167.0484 5.56211-1.02929 7.6875-1.94303 3.83439-6.57483 7.10947-14.55664 9.17382-4.09089.853-8.57577 1.43383-13.38672 1.75586-.0307-.14341-.0623-.28935-.0937-.43164-.89831-4.07703-2.05232-7.9715-3.58008-11.5625 11.11561-.0734 19.72001-1.53715 26.66797-4.02539 2.15683-.77286 4.13508-1.64655 5.97851-2.59765z"/><path d="m171.39034 56.042279 4.19284 11.489107c7.58464 20.78567 19.75577 42.038224 26.51008 61.962444 6.75248 19.92422 8.33075 36.96837-2.87457 52.77299-12.52358 17.66393-35.32602 35.73616-55.49741 57.14892-20.1714 21.41276-38.04314 47.1685-38.04314 80.6343 0 83.3038 67.61912 151.60769 150.96961 151.60769 83.34957 0 151.60768-68.25903 151.60768-151.60769 0-33.27996-17.05789-59.48244-36.93542-81.22661-19.87661-21.74416-42.88686-39.88871-56.96949-57.03815-8.40398-10.23125-7.39971-31.25036-.80561-53.96492 6.59319-22.71456 17.63647-45.807208 23.71791-59.816594l5.1907-11.961487h-18.84854l-30.19392 81.647721c-4.23678 20.1064-4.39424 40.2073 7.71738 54.95546 16.01517 19.50128 38.98606 37.39865 57.56454 57.72201 18.5794 20.32153 32.45329 42.20942 32.45329 69.68166 0 74.01731-60.47938 134.50036-134.50035 134.50036-74.01823 0-133.85954-60.43454-133.85954-134.50036 0-27.4164 14.42227-48.77149 33.38707-68.90352 18.96847-20.13111 42.14809-38.03763 56.9997-58.98351 14.72437-20.76736 12.77259-44.49168 5.75829-66.1919l-22.21105-52.083645c-.1062-.242599-.22155-.492521-.32683-.734204h.0156l-7.29627-17.110072z"/><path d="m201.24004 40.870251 36.14812 84.770379c14.12382 4.75127 27.89061 4.54072 42.23505.002l31.35107-84.771922h-109.73424z"/></g></svg>