<svg height="512" viewBox="0 0 512 512" width="512" xmlns="http://www.w3.org/2000/svg"><circle cx="256" cy="256" r="246" stroke="#fff" stroke-width="10"/><g fill="#fff"><path d="m256.73438 241.18164c-23.07928-.00042-46.57825 3.11137-68.4336 10.52734-6.8328 2.31851-13.32611 5.92346-18.97851 10.40821-4.20992 3.34025-7.6189 7.64603-10.76368 12.0039-3.8345 5.31366-7.31821 10.98317-9.7539 17.06641-4.09783 10.23451-7.94141 17.86813-7.94141 32.10547 0 31.93606 12.98771 61.03227 33.95899 82.14453s49.92631 34.24023 81.86328 34.24023 61.03295-13.12648 82.14453-34.23828c21.11158-21.11181 34.23828-50.20848 34.23828-82.14453 0-14.39388-5.27368-26.50244-11.3418-38.38476-4.3633-8.54402-10.2885-16.55207-17.57812-22.78907-5.48215-4.69052-12.14632-8.09155-18.97852-10.41015-21.85606-7.41716-45.35521-10.52888-68.43554-10.5293zm-6.27735 6.16992c22.41604 14.20576 64.46012 67.71903 53.77735 92.91992 7.74045-6.24911 12.60988-9.96076 20.0332-36.52929 8.47456 27.69025 12.61371 54.78682-5.41602 81.24414 6.4308.49919 14.41929-3.99366 22.5-10.8418 3.9562 10.09107-4.83037 25.50761-12.56836 35.32031-9.15521 11.2479-26.65872 18.99664-42.73632 14.42969 13.24332-5.3913 16.81302-12.18159 21.68164-19.8457 2.64867-6.07842.72857 1.33899-9.49024-5.9375-10.21881-7.2765 2.601-26.838 6.24219-32.74024-7.89315.11122-16.88325-1.34558-20.08985-5.80273-9.61352-13.37254-8.99126-32.87613-8.38671-47.67578-13.30208 21.19521-28.06008 71.10164-50.35352 39.31836-3.45326 30.46849-12.46202 26.23414-29.82812 22.77539 1.97915 21.27743 13.30694 35.22012 30.16211 49.9082-20.59967 5.80844-34.61774-11.77281-45.87891-28.29687-4.85428-7.47713-9.04426-15.76345-11.47656-24.10157-3.87285-13.27637-3.29173-26.67981 6.15039-37.13867.0294 29.35264 24.93024 26.63272 42.53125-36.82226 24.50715 67.47202 45.73279-32.26582 33.14648-50.1836z"/><path d="m171.39034 56.042279 4.19284 11.489107c7.58464 20.78567 19.75577 42.038224 26.51008 61.962444 6.75248 19.92422 8.33075 36.96837-2.87457 52.77299-12.52358 17.66393-35.32602 35.73616-55.49741 57.14892-20.1714 21.41276-38.04314 47.1685-38.04314 80.6343 0 83.3038 67.61912 151.60769 150.96961 151.60769 83.34957 0 151.60768-68.25903 151.60768-151.60769 0-33.27996-17.05789-59.48244-36.93542-81.22661-19.87661-21.74416-42.88686-39.88871-56.96949-57.03815-8.40398-10.23125-7.39971-31.25036-.80561-53.96492 6.59319-22.71456 17.63647-45.807208 23.71791-59.816594l5.1907-11.961487h-18.84854l-30.19392 81.647721c-4.23678 20.1064-4.39424 40.2073 7.71738 54.95546 16.01517 19.50128 38.98606 37.39865 57.56454 57.72201 18.5794 20.32153 32.45329 42.20942 32.45329 69.68166 0 74.01731-60.47938 134.50036-134.50035 134.50036-74.01823 0-133.85954-60.43454-133.85954-134.50036 0-27.4164 14.42227-48.77149 33.38707-68.90352 18.96847-20.13111 42.14809-38.03763 56.9997-58.98351 14.72437-20.76736 12.77259-44.49168 5.75829-66.1919l-22.21105-52.083645c-.1062-.242599-.22155-.492521-.32683-.734204h.0156l-7.29627-17.110072z"/><path d="m201.24004 40.870251 36.14812 84.770379c14.12382 4.75127 27.89061 4.54072 42.23505.002l31.35107-84.771922h-109.73424z"/></g></svg>