<svg height="512" viewBox="0 0 512 512" width="512" xmlns="http://www.w3.org/2000/svg"><circle cx="256" cy="256" r="246" stroke="#fff" stroke-width="10"/><g fill="#fff"><path d="m256.73438 241.18164c-10.47053-.00019-21.02608.649-31.47657 2.04102-2.96549.59131-6.0143 1.15632-9.16015 1.68164-1.28511 1.71151-2.45678 3.51722-3.55274 5.41406l-5.0664-3.94727c-6.49419 1.44736-12.90546 3.20958-19.17774 5.33789-1.8648.63277-3.69977 1.36934-5.5039 2.18555l24.07226 9.99805c-.70377 3.253-.98828 6.90043-.98828 10.36328 0 .54171-.0182.94376 0 1.48047l-38.21484-5.10547c.0651-2.55258.24687-5.07519.52929-7.56641-3.69667 3.18847-6.77905 7.09665-9.63672 11.05664-3.8345 5.31366-7.31821 10.98317-9.7539 17.06641-.78105 1.9507-1.52594 3.76437-2.26367 5.58984l15.22265-1.59961c1.80631 7.52568 4.50338 14.70767 7.97852 21.42579l-28.81641 10.34179c.37261 11.97647 2.57086 23.51849 6.32422 34.35157l36.56641-24.41407c4.90908 5.42302 10.4346 10.2769 16.45898 14.45899l-34.20312 44.22851c2.73347 3.45085 5.65189 6.74825 8.75 9.86719 6.55579 6.59987 13.89005 12.42048 21.85351 17.30273l24.64844-60.38281c6.62708 2.46957 13.59898 4.22282 20.82422 5.16602l-9.33203 69.65234c7.70505 1.63618 15.6888 2.50195 23.86914 2.50195 6.3385 0 12.56224-.52358 18.63672-1.51757l-9.44532-70.5c7.3062-.86584 14.36367-2.55898 21.07227-4.98438l25.46875 62.63086c9.72018-5.3609 18.61225-12.06725 26.41211-19.86719 2.06119-2.06121 4.04307-4.20152 5.94726-6.41015l-36.57031-47.22852c5.9261-4.04008 11.37279-8.73087 16.24219-13.9668l39.9414 29.31836c4.51328-10.95917 7.40021-22.73223 8.33985-35.01953l-33.66992-14.88086c3.5434-6.72267 6.30727-13.91867 8.17187-21.46484l20.49024 2.05859c-1.76245-4.40273-3.82545-8.68508-5.9961-12.93554-3.1573-6.18249-7.14524-12.07314-11.86328-17.22657.4133.45139.8189.91049 1.2207 1.37305l-1.14453.11133c-.0191-.49645-.0495-.98986-.0762-1.48438-1.80215-1.96845-3.70002-3.83862-5.71484-5.5625-1.18333-1.01245-2.43164-1.95337-3.71485-2.84765.5695 3.60866.92195 7.28968 1.03125 11.03515l-40.32617 5.42969c.018-.53579 0-.94116 0-1.48242 0-3.28485-.35263-6.77227-.98633-9.86914l28.02344-11.57031c-.99667-.3895-1.9986-.76365-3.00586-1.10547-7.32934-2.48732-14.84564-4.47897-22.4668-6.04297-.469-.0716-.95557-.13208-1.42187-.20508l-6.31055 4.85742c-1.4094-2.46803-3.01128-4.69255-4.80468-6.79101-.1867-.0361-.36479-.0749-.55079-.11133-10.90835-1.52534-21.94116-2.23613-32.88085-2.23633zm32.88085 2.23633c4.3881.6136 8.75479 1.36075 13.08789 2.25-4.33323-.88926-8.69975-1.6364-13.08789-2.25zm78.10743 54.42773c.77758 1.94251 1.49368 3.90974 2.13476 5.90821-.64071-1.99905-1.35698-3.96525-2.13476-5.90821zm5.00781 34.28711c.1001-1.30905.1709-2.62702.22656-3.94726-.0559 1.32047-.12645 2.63781-.22656 3.94726zm-27.95313 66.89649c.99518-1.15429 1.96572-2.32892 2.91602-3.52149-.94979 1.19205-1.92126 2.36768-2.91602 3.52149zm-161.98046-145.13477c-1.05618.47783-2.09713.9892-3.12696 1.52539 1.02978-.53534 2.07104-1.0477 3.12696-1.52539zm24.68164-7.52344c1.46706-.32696 2.93887-.63733 4.41406-.93164-1.47561.29403-2.94673.60462-4.41406.93164zm4.41406-.93164c1.47519-.2943 2.95325-.5719 4.43554-.83398-1.48201.26156-2.96067.5401-4.43554.83398zm4.43554-.83398c1.4823-.26208 2.96867-.50799 4.45704-.73828-1.48883.23-2.97424.47658-4.45704.73828zm4.45704-.73828c1.48836-.23029 2.97924-.44561 4.47265-.64453-1.49338.19892-2.98417.41457-4.47265.64453zm107.39257 8.95117c1.02402.40023 2.03965.82891 3.04493 1.28125-1.00598-.45203-2.02082-.88099-3.04493-1.28125zm3.35743 1.42383c.99992.45644 1.99084.93572 2.96484 1.44531-.97506-.50923-1.96405-.98915-2.96484-1.44531zm2.96484 1.44531c.49963.26141.99482.531 1.48633.80664-.49204-.27549-.98613-.54541-1.48633-.80664zm-155.44922.0566c-.42505.22725-.8477.45853-1.26758.69531.41979-.23628.84263-.4685 1.26758-.69531zm157.07617.82813c.9502.5364 1.88238 1.10065 2.79688 1.6914-.91464-.59038-1.84615-1.15556-2.79688-1.6914zm-159.375.46289c-.30893.18181-.61999.36001-.92578.54687.30616-.18672.61647-.3652.92578-.54687zm162.27149 1.29101c.47488.30827.94436.62404 1.4082.94727-.4639-.32328-.93306-.63906-1.4082-.94727zm-165.0625.43945c-.24382.16062-.48312.32646-.72461.49024.24156-.16358.48071-.32984.72461-.49024zm-2.08399 1.43555c-.21822.15626-.43625.31189-.65234.47071.21602-.15863.43418-.31467.65234-.47071zm36.71875 28.61524c1.14261 3.45421 2.58047 6.81794 4.44141 9.87109l-35.43359 14.66211c-3.1879-6.0535-5.68174-12.52858-7.37696-19.32227zm90.07422.49414 40.0918 5.3457c-1.7544 6.81098-4.31551 13.29728-7.57031 19.35352l-37.20899-15.32223c1.7753-2.91113 3.5645-6.09937 4.6875-9.37695zm-152.14258 7.5c-.34839.86238-.70271 1.76164-1.0332 2.61718.33619-.8706.67905-1.74058 1.0332-2.61718zm-1.32031 3.38086c-1.02739 2.71329-1.95374 5.45168-2.67578 8.41797.72419-2.97044 1.64883-5.70513 2.67578-8.41797zm224.74024 3.85156c.27529.86962.5349 1.74638.77929 2.62891-.24412-.88265-.50422-1.75919-.77929-2.62891zm.9082 3.09961c.24299.90126.47038 1.80831.67773 2.72461-.20696-.91594-.43515-1.82369-.67773-2.72461zm-150.41602 1.16992c2.55378 2.47503 5.0891 4.55918 8.14453 6.41602l-23.12695 29.91015c-5.46717-3.74827-10.48468-8.10559-14.95312-12.97461zm65.64453 0v.002l31.63282 24.33985c-4.4183 4.66691-9.34788 8.84516-14.70118 12.4414l-24.08789-31.10742c2.5993-1.66154 4.93345-3.55537 7.15625-5.67578zm-143.5625.33203c-.12268.50541-.24058 1.01705-.35156 1.53711.11118-.51978.22873-1.0319.35156-1.53711zm229.07227 1.48047c.22404 1.00875.42484 2.02779.60156 3.05664-.17644-1.02908-.37781-2.04766-.60156-3.05664zm-229.45703.21875c-.30358 1.44336-.55832 2.95143-.75977 4.53906.20228-1.58633.45544-3.09566.75977-4.53906zm230.11914 3.22852c.13918.84206.25845 1.69207.36328 2.54882-.10464-.85708-.22431-1.70643-.36328-2.54882zm-230.95703 1.92382c-.0443.38086-.0833.7713-.1211 1.16211.038-.39022.0767-.7817.1211-1.16211zm231.42187 1.53516c.079.73864.14364 1.484.19532 2.23437-.0516-.75037-.11652-1.49572-.19532-2.23437zm-231.63867.70703c-.0239.30192-.0464.60588-.0664.91406.0202-.30781.0423-.61243.0664-.91406zm127.97266.93945h.002l14.69141 36.12891c-6.0516 2.1541-12.41496 3.65485-19.00196 4.42188l-5.0664-37.83594c3.1735-.42923 6.4313-1.69065 9.375-2.71485zm-30.10547.49415c2.97441.9423 6.1833 1.87838 9.3789 2.2207l-5.05273 37.70312c-6.50144-.84216-12.77816-2.40167-18.74609-4.59765zm-98.01563 1.02929c-.01.23191-.0218.45976-.0293.69531.008-.23535.0195-.46356.0293-.69531zm232.05664.15821c.009.18831.0177.37732.0254.5664-.008-.18906-.016-.37811-.0254-.5664zm-232.12695 2.9414c.00008 1.21876.0249 2.43238.0625 3.64258-.0376-1.21071-.0624-2.42331-.0625-3.64258zm232.20508 0c-.00005 1.33142-.0306 2.65556-.0762 3.97656.0453-1.32085.0761-2.64547.0762-3.97656zm-225.8125 38.01367c1.08267 3.12323 2.29408 6.18708 3.62891 9.18555-1.33442-2.99811-2.54634-6.06264-3.62891-9.18555zm3.62891 9.18555c.29144.65468.59144 1.30478.89453 1.95312-.30307-.64842-.60311-1.29836-.89453-1.95312zm213.48632-3.30469c-1.79191 4.34635-3.83974 8.56357-6.125 12.63281 2.28606-4.06902 4.3331-8.28673 6.125-12.63281zm-212.40039 5.66797c.3041.64397.61421 1.28434.92969 1.92188-.31535-.63741-.6257-1.27803-.92969-1.92188zm1.07422 2.2168c.32396.65006.65457 1.29627.99024 1.93945-.33586-.64366-.6661-1.2889-.99024-1.93945zm1.16211 2.26758c.32243.61306.64947 1.22344.98242 1.83007-.33275-.60638-.66018-1.21727-.98242-1.83007zm1.25 2.3125c.33106.59649.66472 1.19116 1.00586 1.78125-.34107-.59006-.67488-1.18479-1.00586-1.78125zm1.00586 1.78125c1.22348 2.11631 2.51162 4.19035 3.86133 6.2207-1.34935-2.03008-2.63823-4.1047-3.86133-6.2207zm201.72656-1.51172c-.75795 1.34651-1.54034 2.6789-2.34961 3.99219.80965-1.31338 1.5913-2.64558 2.34961-3.99219zm-2.36718 4.01758c-1.59578 2.58812-3.29287 5.10768-5.08008 7.55859 1.78754-2.45071 3.48379-4.97069 5.08008-7.55859zm-195.48633 3.73437c.38006.57149.76841 1.13679 1.1582 1.70117-.38985-.56452-.77809-1.12954-1.1582-1.70117zm1.48828 2.17969c.34246.49064.68931.97776 1.03906 1.46289-.34967-.48505-.69669-.97233-1.03906-1.46289zm188.63281 2.03515c-.8681 1.18027-1.75518 2.34398-2.66601 3.49024.91054-1.14576 1.79808-2.3105 2.66601-3.49024zm-187.10742.0977c.35975.49166.72265.981 1.08984 1.4668-.36737-.48605-.72993-.9749-1.08984-1.4668zm1.44922 1.9375c.39441.51639.79059 1.03143 1.19336 1.54102-.40271-.50951-.79901-1.02471-1.19336-1.54102zm34.15039 30.16406c.21764.1267.43772.24969.65625.375-.21853-.12529-.43861-.24831-.65625-.375zm113.44726 1.22266c-.53642.2957-1.0777.58367-1.61914.87109.54156-.2875 1.08261-.57532 1.61914-.87109zm-111.16796.0684c.27948.15434.56092.30494.84179.45703-.28092-.15208-.56226-.30269-.84179-.45703zm108.83007 1.18359c-.49452.25811-.99166.51056-1.49023.76172.4984-.25111.99588-.50368 1.49023-.76172zm-106.45898.0879c.2749.14357.54999.28633.82617.42774-.27607-.14132-.55137-.28427-.82617-.42774zm104.14648 1.08594c-.52048.25705-1.04361.51033-1.56836.75977.52488-.24956 1.04775-.50261 1.56836-.75977zm-101.78711.11133c.31384.15484.62795.30887.94336.46094-.31555-.15208-.62938-.30608-.94336-.46094zm99.51954.97656c-.53151.24833-1.06388.49587-1.59961.73633.53579-.24055 1.06805-.48792 1.59961-.73633zm-97.13086.16602c.31429.14618.62756.29407.94336.4375-.3158-.14336-.62907-.29138-.94336-.4375zm94.77539.90234c-.55665.2451-1.11277.49001-1.67383.72656.5607-.23648 1.11754-.48154 1.67383-.72656zm-92.13282.28711c.24586.10689.48961.21704.73633.32227-.24654-.1051-.49066-.2155-.73633-.32227zm90.37696.47266c-1.48066.62292-2.97603 1.21692-4.48633 1.77929 1.5107-.56277 3.00528-1.15596 4.48633-1.77929zm-4.48633 1.77929c-.65158.24262-1.30795.47588-1.96484.70703.657-.23129 1.31315-.46425 1.96484-.70703zm-82.85352-.97851c.38809.15565.7798.30355 1.16993.45508-.3902-.15149-.78177-.29948-1.16993-.45508zm2.5625.99023c.34506.12887.69248.25327 1.03907.37891-.34675-.12564-.69385-.25004-1.03907-.37891zm77.88086.85352c-.65812.22855-1.31914.45103-1.98242.66797.66313-.217 1.32445-.43936 1.98242-.66797zm-75.41601.0332c.43027.14957.86238.29487 1.29492.43945-.4325-.14449-.86468-.28997-1.29492-.43945zm73.03125.76563c-.70018.22615-1.40364.44512-2.10938.6582.70574-.21319 1.4092-.43193 2.10938-.6582zm-70.68555.0195c.51579.16687 1.0319.33245 1.55078.49218-.51861-.15958-1.03526-.32548-1.55078-.49218zm68.35547.70507c-.75057.22498-1.5031.44428-2.25977.6543.75651-.21009 1.50935-.42925 2.25977-.6543zm-2.25977.6543c-3.18335.88358-6.41997 1.635-9.70312 2.2461 3.28337-.61125 6.51961-1.36201 9.70312-2.2461zm-9.70312 2.2461c-.78769.14661-1.57813.28358-2.37109.41406.79286-.13046 1.58351-.26744 2.37109-.41406zm-53.94531-2.84375c.5346.15979 1.06964.31852 1.60742.4707-.53789-.15215-1.0727-.31095-1.60742-.4707zm2.45898.70507c1.93265.53077 3.88433 1.01071 5.85547 1.44141-1.97105-.43067-3.92285-.91084-5.85547-1.44141z"/><path d="m171.39034 56.042279 4.19284 11.489107c7.58464 20.78567 19.75577 42.038224 26.51008 61.962444 6.75248 19.92422 8.33075 36.96837-2.87457 52.77299-12.52358 17.66393-35.32602 35.73616-55.49741 57.14892-20.1714 21.41276-38.04314 47.1685-38.04314 80.6343 0 83.3038 67.61912 151.60769 150.96961 151.60769 83.34957 0 151.60768-68.25903 151.60768-151.60769 0-33.27996-17.05789-59.48244-36.93542-81.22661-19.87661-21.74416-42.88686-39.88871-56.96949-57.03815-8.40398-10.23125-7.39971-31.25036-.80561-53.96492 6.59319-22.71456 17.63647-45.807208 23.71791-59.816594l5.1907-11.961487h-18.84854l-30.19392 81.647721c-4.23678 20.1064-4.39424 40.2073 7.71738 54.95546 16.01517 19.50128 38.98606 37.39865 57.56454 57.72201 18.5794 20.32153 32.45329 42.20942 32.45329 69.68166 0 74.01731-60.47938 134.50036-134.50035 134.50036-74.01823 0-133.85954-60.43454-133.85954-134.50036 0-27.4164 14.42227-48.77149 33.38707-68.90352 18.96847-20.13111 42.14809-38.03763 56.9997-58.98351 14.72437-20.76736 12.77259-44.49168 5.75829-66.1919l-22.21105-52.083645c-.1062-.242599-.22155-.492521-.32683-.734204h.0156l-7.29627-17.110072z"/><path d="m201.24004 40.870251 36.14812 84.770379c14.12382 4.75127 27.89061 4.54072 42.23505.002l31.35107-84.771922h-109.73424z"/></g></svg>