<svg viewBox="0 0 512 512" xmlns="http://www.w3.org/2000/svg"><circle cx="256" cy="256" r="246" stroke="#fff" stroke-width="10"/><path d="m205.31665 59.258822 33.66055 78.936808c13.15187 4.42431 25.97128 4.22824 39.3286.003l29.19361-78.938955h-102.18276zm-27.79556 14.127949 3.9043 10.69847c7.0627 19.355279 18.39626 39.145319 24.68576 57.698429 6.2878 18.55311 7.75746 34.42435-2.67674 49.14136-11.66176 16.44836-32.89503 33.27693-51.67831 53.21615s-35.42515 43.92255-35.42515 75.08536c0 77.57116 62.96583 141.17464 140.58046 141.17464 77.61378 0 141.17463-63.56171 141.17463-141.17464 0-30.98976-15.88403-55.38909-34.39366-75.63691-18.50878-20.24781-39.93556-37.14372-53.04907-53.113-7.82565-9.52718-6.8905-29.09984-.75017-50.25127 6.13947-21.15143 16.42279-42.654931 22.08574-55.700245l4.83348-11.138344h-17.55145l-28.11609 76.029049c-3.94523 18.72274-4.09185 37.44038 7.18629 51.17364 14.91308 18.15926 36.3032 34.82501 53.60319 53.74979 17.30082 18.92309 30.21997 39.30474 30.21997 64.88644 0 68.92373-56.31743 125.24457-125.24456 125.24457-68.92458 0-124.64784-56.27567-124.64784-125.24457 0-25.5297 13.42978-45.41522 31.0895-64.16184 17.66313-18.74576 39.24761-35.42004 53.0772-54.9245 13.71109-19.33823 11.89363-41.42993 5.36202-61.63683l-20.68257-48.499448c-.0989-.225903-.2063-.458627-.30433-.683679h.0145l-6.79414-15.932622zm79.47131 172.397969c-25.16997 0-47.9462 3.90004-63.72367 9.80338-7.88874 2.95124-13.99241 6.43613-17.67336 9.69255-3.3485 2.96319-4.48655 5.28787-4.66641 7.17779h-.22762c0 13.08282 6.65607 25.5655 17.83022 35.70732-.43049-.18499-.87378-.36401-1.2983-.55411-9.14443-4.07479-16.77827-8.84691-22.49407-14.45103-1.90101-1.86435-3.61447-3.86339-5.0611-5.98433-6.37647 10.34896-10.58339 21.81294-10.58339 35.07052 0 59.47668 48.37329 108.37594 107.85167 108.37594 59.47837 0 108.37422-48.89755 108.37422-108.37422 0-13.40336-4.19669-25.13416-10.56207-35.74398-1.53615 2.37156-3.40988 4.5948-5.51206 6.65607-5.7158 5.60412-13.34965 10.37452-22.49407 14.45188-.37849.16879-.77404.3282-1.15594.49443 11.13323-10.13157 17.76287-22.59039 17.76287-35.64764h-.30178c-.17901-1.88907-1.31791-4.21375-4.66725-7.17608-3.68011-3.25642-9.78378-6.74302-17.67166-9.69255-15.77919-5.9042-38.55712-9.80338-63.72623-9.80338z" fill="#fff"/></svg>