<svg viewBox="0 0 512 512" xmlns="http://www.w3.org/2000/svg"><circle cx="256" cy="256" r="246" stroke="#fff" stroke-width="10"/><g fill="#fff"><path d="m162.23633 97.355469c-6.93656.07794-13.09347 5.284581-15.43164 7.498051l-42.01758 42.02343c-3.39035 3.50725-13.716626 16.05637-2.18945 26.57813 10.62306 9.27473 20.46633.93416 23.54492-2.10547.60014-.54556.90427-1.01172.9043-1.01172 0 0 58.57117 49.02293 81.01757 79.88672 5.68953 10.28794 9.82032 20.03117 9.82032 32.26758-6.78069 63.75401-25.40838 80.66631-18.93946 86.51172 57.44096 57.5189 126.72852 71.31445 126.72852 71.31445l57.28515-57.28516 57.44141-57.36328s-14.02974-69.13167-71.4707-126.72851c-5.92335-6.31305-22.83565 12.31483-86.51172 19.01757-12.31435 0-22.05759-4.05283-32.26758-9.82031-24.00518-17.53625-58.99928-56.8966-73.41797-73.30273l-11.53515 11.41797c10.28793 11.61289 39.12652 42.8674 67.57421 67.49609-5.76748-1.48084-13.95117 3.42773-13.95117 3.42773-10.75556-8.49534-52.60911-49.5679-63.13086-61.64843l-7.16992 7.40429-6.9375-6.9375 28.75977-28.88281s.23408-.28855.93554-.88867c2.96167-3.08639 11.30068-12.93162 2.25977-23.55469-3.66313-3.967081-7.55971-5.345627-11.30078-5.314451zm201.55078 113.353511h.07617c18.32965 19.8251 35.2451 46.84674 50.62305 72.91016-2.36741-1.8047-8.91891-4.56927-16.94727-6.95117-18.48594-5.48596-44.72818-9.02149-73.72656-9.02149-28.99702 0-55.26074 3.53678-73.74805 9.02344-8.0503 2.38807-14.61831 5.15812-19.4414 7.60938-.33697-5.00736-.8015-9.33317-1.71094-13.28321 10.71659 4.01388 28.02028-13.36792 28.33203-13.67968.23381-.23381 17.69168-17.53539 13.7168-28.25196 22.60228 5.41678 62.66383-5.88524 92.82617-18.35547zm-105.8418 14.18555c1.55878 0 2.80498.38895 3.74024 1.32422 4.28665 4.28663-2.57145 15.74527-11.22266 24.39648-8.57328 8.57328-19.95165 15.43118-24.23828 11.14454-4.36458-4.2087 2.41538-15.82107 11.14453-24.31641 6.70275-6.78068 15.12045-12.39295 20.57617-12.54883zm160.83399 74.98633c.28908 4.77819-.1257 10.01082-1.04883 15.43164-4.80631 2.32498-10.34055 4.35806-16.52539 6.19336-20.1916 5.9928-47.36819 9.55859-77.39258 9.55859-30.02508 0-57.19974-3.56647-77.39062-9.55859-5.19313-1.54107-9.91639-3.22238-14.14454-5.10156.00549-4.79603-.05937-9.63259-.23632-14.48828 4.47575 2.55747 10.60467 5.10707 18.02539 7.30859 18.48662 5.48667 44.74908 9.02344 73.74609 9.02344s55.24189-3.53677 73.72852-9.02344c9.24365-2.74333 16.53587-6.0298 21.23828-9.34375z"/><path d="m125.55043 83.474485-21.06688 21.074675-21.066881 21.08247 15.003235 13.56136 40.769826-40.707476z"/></g></svg>