<svg height="512" viewBox="0 0 512 512" width="512" xmlns="http://www.w3.org/2000/svg"><circle cx="256" cy="256" r="246" stroke="#fff" stroke-width="10"/><g fill="#fff"><path d="m256.73438 241.18164c-23.07928-.00042-46.57825 3.11137-68.4336 10.52734-6.8328 2.31851-13.32611 5.92346-18.97851 10.40821-4.20992 3.34025-7.6189 7.64603-10.76368 12.0039-3.8345 5.31366-7.31821 10.98317-9.7539 17.06641-4.09783 10.23451-7.94141 17.86813-7.94141 32.10547 0 31.93606 12.98771 61.03227 33.95899 82.14453s49.92631 34.24023 81.86328 34.24023 61.03295-13.12648 82.14453-34.23828c21.11158-21.11181 34.23828-50.20848 34.23828-82.14453 0-14.39388-5.27368-26.50244-11.3418-38.38476-4.3633-8.54402-10.2885-16.55207-17.57812-22.78907-5.48215-4.69052-12.14632-8.09155-18.97852-10.41015-21.85606-7.41716-45.35521-10.52888-68.43554-10.5293zm1.13281 10.83398c12.38659.13877 23.27431 3.56536 20.60742 14.81641a33.222369 33.222369 0 0 1 -.98633 2.62695c-.26653-1.39373-.6798-2.71878-1.23828-3.94531-1.52947-3.35959-4.36107-6.15421-8.18359-6.71875-3.82251-.56416-7.44918 1.2783-10.02735 4.03125-2.57817 2.75333-4.37493 6.50625-5.10742 10.77539-.73214 4.26914-.27947 8.35566 1.25 11.71485 1.52945 3.35958 4.35911 6.15653 8.18164 6.7207 3.17606.469 6.21459-.72843 8.63086-2.72461 3.09608.3344 6.70217 1.86005 8.45117 5.49414 4.79274 4.64677 6.41443 7.25275 13.08203 10.78711 7.73451-3.20793 16.40002-9.46141 24.38477-15.44922l4.17578 5.39649c-7.89829 6.09358-18.09881 13.11393-28.98437 17.54687-6.72675-3.32584-9.53528-5.97964-16.34961-12.32422-1.28151 6.07463-7.43254 5.63985-12.16993 2.57031-6.87119 3.18291-8.40823 3.09806-15.85156-.24218l.0176-.43164c-3.21133 3.87217-6.79575 7.70915-11.36328 9.95898-9.6306-.81515-22.04531-6.76344-31.71875-13.69531l4.20117-5.37695c8.02872 6.26911 13.95871 10.63312 26.07422 12.08789 3.61739-2.19485 10.06702-10.08669 12.61523-14.93555-13.20743.62635-25.77843-1.49384-38.1582-6.03711 5.43274-.23355 10.82317-.85437 16.21875-1.42383-7.98247-.22559-15.92322-.65454-23.73242-1.74609-6.93982-3.32773-13.36244-7.59211-18.94531-12.85157 0 0 17.9489 4.60927 32.44921 2.6836 2.43599-.32341 4.27779-.92428 5.71094-1.71289 7.46912.84814 14.65949-.31242 21.87305-1.30274-5.99462-.52815-11.98004-1.26468-17.9375-2.58789 2.42234-4.10687 2.57338-9.14417 9.16211-10.82226 7.33755-1.83011 15.86749-2.77285 23.66797-2.88282zm47.45117 5.72657c3.14081 0 5.6875 2.54667 5.6875 5.6875 0 3.14081-2.54669 5.6875-5.6875 5.6875-3.14082 0-5.6875-2.54669-5.6875-5.6875 0-3.14083 2.54668-5.6875 5.6875-5.6875zm-38.40625 7.77929c1.09762.16226 2.21196.99157 3.08398 2.90625.87165 1.91466 1.27556 4.75261.75196 7.80469-.5236 3.05249-1.85698 5.63386-3.32617 7.20313-1.46956 1.5689-2.80668 2.03494-3.9043 1.87304-1.09761-.16189-2.21196-.99157-3.08399-2.90625-.87165-1.91466-1.27593-4.75064-.75195-7.80273.5236-3.05248 1.85699-5.63424 3.32617-7.20313.76966-.8053 2.2956-1.9626 3.9043-1.875zm26.51367 10.51563a3.4122835 3.4122835 0 0 1 0 6.82422 3.4122835 3.4122835 0 1 1 0-6.82422zm-30.03516 34.82422c2.60016 1.27012 6.26914 2.52965 9.45508 1.83203a34.44624 34.44624 0 0 1 -.99609 2.37305c3.18176 1.82974 5.52077 4.09543 7.27734 6.4082-2.13268-.39128-4.43549-.63512-6.8457-.69922-4.15086-.10995-8.59955.29762-12.95703 1.32813-4.26232 1.00814-8.5003 2.69106-12.0957 5.2207.93875-2.99977 1.80119-6.00022 4.71679-9-1.7831-2.43713-2.87371-4.90736-3.50195-7.45899 5.38459 2.15659 9.26884 2.45185 14.94726-.002zm6.26563 16.49219c3.35768-.0212 6.68344.39274 9.74805 1.21093 7.87972 2.10538 14.52618 8.8223 18.61523 15.87891 11.38489 19.64792 23.61497 47.10571 12.57813 66.95117-8.38588 15.07811-31.06705 20.20835-48.25586 18.7168-9.6215-.83488-24.80469-14.97266-24.80469-14.97266-20.00432 7.46228-36.98764-5.44109-44.125-15.27148 16.57232 3.34592 22.6634.22895 37.37109 1.46875-3.31863-11.16802 1.22105-22.95061 2.13477-34.56641 9.51188 8.23384 20.46831 22.12195 9.55469 43.14844 0 0 17.44673 11.90833 26.76757 9.96484 8.79232-1.83316 18.97623-9.73694 19.39063-18.70898 1.04529-22.62191-39.94118-29.26422-44.33203-51.48047-1.05932-5.35993 1.0501-11.96421 5.16797-15.55469 5.25984-4.5865 12.80261-6.73885 20.18945-6.78515zm-81.50781 6.65234c3.14082 0 5.6875 2.54669 5.6875 5.6875 0 3.1412-2.54668 5.68555-5.6875 5.68555s-5.6875-2.54435-5.6875-5.68555c0-3.14081 2.54668-5.6875 5.6875-5.6875zm-5.94532 28.92773a3.41229 3.41229 0 0 1 0 6.82422 3.41229 3.41229 0 0 1 0-6.82422zm13.79297 14.79297a3.4122856 3.4122856 0 0 1 0 6.82422 3.4122856 3.4122856 0 1 1 0-6.82422z"/><path d="m171.39034 56.042279 4.19284 11.489107c7.58464 20.78567 19.75577 42.038224 26.51008 61.962444 6.75248 19.92422 8.33075 36.96837-2.87457 52.77299-12.52358 17.66393-35.32602 35.73616-55.49741 57.14892-20.1714 21.41276-38.04314 47.1685-38.04314 80.6343 0 83.3038 67.61912 151.60769 150.96961 151.60769 83.34957 0 151.60768-68.25903 151.60768-151.60769 0-33.27996-17.05789-59.48244-36.93542-81.22661-19.87661-21.74416-42.88686-39.88871-56.96949-57.03815-8.40398-10.23125-7.39971-31.25036-.80561-53.96492 6.59319-22.71456 17.63647-45.807208 23.71791-59.816594l5.1907-11.961487h-18.84854l-30.19392 81.647721c-4.23678 20.1064-4.39424 40.2073 7.71738 54.95546 16.01517 19.50128 38.98606 37.39865 57.56454 57.72201 18.5794 20.32153 32.45329 42.20942 32.45329 69.68166 0 74.01731-60.47938 134.50036-134.50035 134.50036-74.01823 0-133.85954-60.43454-133.85954-134.50036 0-27.4164 14.42227-48.77149 33.38707-68.90352 18.96847-20.13111 42.14809-38.03763 56.9997-58.98351 14.72437-20.76736 12.77259-44.49168 5.75829-66.1919l-22.21105-52.083645c-.1062-.242599-.22155-.492521-.32683-.734204h.0156l-7.29627-17.110072z"/><path d="m201.24004 40.870251 36.14812 84.770379c14.12382 4.75127 27.89061 4.54072 42.23505.002l31.35107-84.771922h-109.73424z"/></g></svg>