<svg viewBox="0 0 512 512" xmlns="http://www.w3.org/2000/svg"><circle cx="256" cy="256" r="246" stroke="#fff" stroke-width="10"/><path d="m370.28565 85.408398-4.77999 4.982929-4.46108 4.620535 52.52552 52.525508 4.68576-4.59879 4.87059-4.77926-4.8474-4.8242-43.10324-43.05686-4.89233-4.870587zm-30.75862 7.247897-23.89415 23.873125 74.94616 74.94833 23.87385-23.89632-74.92514-74.925135zm-111.05011 42.219005c-.83351 0-1.65977.009-2.49328.0217-36.50186.59288-72.79208 14.80745-100.65444 42.65025-57.001091 56.97862-56.990219 149.34872.0217 206.33894 57.01558 56.99021 149.44802 57.00471 206.45273 0 48.22026-48.19852 55.59282-121.61247 22.17494-177.68728l16.21717-15.94537-9.58172-9.58027-19.9078 19.56932-3.94141 3.87328 3.01223 4.643c21.48494 33.07505 26.71937 73.52267 15.6743 110.16804-12.15182-.8567-22.89828-10.71239-26.18303-24.64285-2.19973-9.34762-1.09008-19.42872 3.37607-26.93029-28.64659 11.809-37.28825 32.9359-30.30563 65.09554-27.54418 3.874-24.59936-31.21379-42.1284-42.01606-1.26621 29.60766-35.58718 49.91627-52.93139 29.15104-17.0688-20.42965 2.84117-49.1103 28.26679-43.80629-25.10091-20.77392-47.61868-18.86845-70.69019 3.35288 3.60221-20.65361 11.46183-34.03395 25.79744-41.51596-46.83373 3.41159-80.41831 35.53572-91.075623 73.47484-10.177497-43.09962 1.581493-90.24575 35.311753-123.96079 19.21853-19.20693 42.81333-31.28627 67.54026-36.23948-1.18721 1.47857-2.03666 3.13471-2.51357 4.91407-3.78123 14.11383 17.57905 32.08644 47.70058 40.1577 30.12226 8.07126 57.59904 3.17458 61.38099-10.93998 1.12488-4.20015-.004-8.74966-2.89915-13.27235l3.03469-3.14848 19.31999-20.09117-9.60346-9.60347-15.80911 16.44548c-22.92655-13.62025-48.75443-20.45501-74.56274-20.47531zm21.58424 87.08711c-14.34359.22468-31.39644 7.85672-48.06298 25.00524 37.45423-11.39007 67.82582-7.70234 81.96937 30.60062 7.9002-33.02649-8.15534-55.17099-32.52422-55.60586-.45662-.007-.91903-.007-1.38145 0z" fill="#fff"/></svg>