<svg height="512" viewBox="0 0 512 512" width="512" xmlns="http://www.w3.org/2000/svg"><circle cx="256" cy="256" r="246" stroke="#fff" stroke-width="10"/><g fill="#fff"><path d="m256.73438 241.18164c-23.07928-.00042-46.57825 3.11137-68.4336 10.52734-6.8328 2.31851-13.32611 5.92346-18.97851 10.40821-4.20992 3.34025-7.6189 7.64603-10.76368 12.0039-3.8345 5.31366-7.31821 10.98317-9.7539 17.06641-4.09783 10.23451-7.94141 17.86813-7.94141 32.10547 0 31.93606 12.98771 61.03227 33.95899 82.14453s49.92631 34.24023 81.86328 34.24023 61.03295-13.12648 82.14453-34.23828c21.11158-21.11181 34.23828-50.20848 34.23828-82.14453 0-14.39388-5.27368-26.50244-11.3418-38.38476-4.3633-8.54402-10.2885-16.55207-17.57812-22.78907-5.48215-4.69052-12.14632-8.09155-18.97852-10.41015-21.85606-7.41716-45.35521-10.52888-68.43554-10.5293zm.23242 5.32813 3.36718 3.38085 20.82813 20.81055-6.75195 6.75195-12.67188-12.67187v14.41211l6.44922 6.44726-1.37305 5.75 6.92774 9.01563 14.83593-16.99219-7.34765 21.46875 13.89258 1.92969 3.6875-3.48828 8.79492 2.3457 12.48047-7.19726-17.29883-4.62696 2.47266-9.22461 28.43945 7.61133 4.59766 1.2461-1.23047 4.61132-7.61133 28.42578-9.22461-2.47656 4.64453-17.29883-12.48047 7.21289-2.36328 8.79493-6.79492 2.02343-4.47656 10.82618 22.2207 4.35937-22.37305 4.40039 4.77539 11.77539 6.64844 1.98047 2.36133 8.79492 12.48047 7.21289-4.64453-17.29882 9.2246-2.47461 7.61329 28.43945 1.22851 4.59766-4.5957 1.24414-28.44336 7.61328-2.4707-9.22461 17.29882-4.62891-12.48046-7.21289-8.79297 2.36133-4.69532-4.43945-13.3164 1.76757 7.33008 21.41016-14.94532-17.12891-6.75976 8.67969 1.76172 7.39453-6.44922 6.44727v14.41211l12.67383-12.67383 6.74804 6.75195-20.82422 20.8125-3.36718 3.38086-3.36914-3.38086-20.82813-20.8125 6.75195-6.75195 12.67188 12.67187v-14.41015l-6.44727-6.44727 1.23633-5.18945-8.55078-10.98242-14.97656 17.16406 7.32422-21.41601-11.19141-1.48243-4.4668 4.22266-8.79492-2.36133-12.48047 7.21289 17.29883 4.62891-2.47265 9.22265-28.42383-7.61132-4.61133-1.24414 1.22851-4.59571 7.61133-28.43945 9.22461 2.47266-4.64453 17.30078 12.48047-7.21289 2.36328-8.79493 3.98438-1.1875 5.11914-12.58984-22.28125-4.375 22.12304-4.3457-4.81836-11.63867-4.12695-1.22852-2.36133-8.79492-12.48047-7.21289 4.64453 17.29883-9.20898 2.4746-7.62891-28.42578-1.22851-4.60937 4.61328-1.24609 28.42383-7.61329 2.47265 9.22461-17.30078 4.62891 12.48047 7.19727 8.79492-2.34571 3.45118 3.26367 11.77539-1.63672-7.34766-21.48632 14.86914 17.04297 8.71484-11.34571-.83789-3.52148 6.44727-6.44727v-14.41015l-12.67188 12.66992-6.75-6.75 20.82618-20.81055zm-9.40625 46.74804-3.76367 14.04492 6.59765 7.5625 1.80078-1.03906v-1.13086zm17.74218 4.48047-3.56445 14.95313v1.21289l.15625.0918 5.94336-6.80859zm26.79297 11.93555-13.79101 3.76758-2.86719 8.3789 2.09961 1.21289 1.10351-.63867zm-69.24023.96484 12.4375 11.75977 1.02148.58984.16797-.0957-3.21484-9.4082zm34.0293 11.48633-3.70118 2.13477 2.49219 2.49023 3.3711-3.37695zm-43.5625 3.43164 8.33398 8.33398 9.80664-1.93359v-.73437l-.94141-.54297zm83.94531.99219-13.85742 4.1289-1.09961.63868v1.04882l7.63672 1.50391zm-29.03711 2.12305-1.23633 4.63281 5.77148 1.54687v-3.56445zm-24.78516 1.20703-2.43945 1.4082v2.89453l3.34961-.89648zm29.32031 14.92187-5.77734 1.54297 1.5293 5.71875 4.24804-2.45312zm-31.75976.66602v4.14258l2.1543 1.24609 1.20312-4.48633zm-19.12891.61718-9.63867 9.54688 18.2832-5.44727.94141-.54297v-1.67382zm67.83789.01-7.40429 1.46094v1.99023l1.09961.63672 14.92578 4.44727zm-34.04687 6.78516-3.29688 3.29882 4.51368 2.60938 2.97461-1.7207zm21.91601 4.96484-2.17773 1.25781 2.47266 7.23438 12.66992 3.39062-11.94336-11.29297zm-41.3164.0488-.94336.54297-10.95508 10.35547 9.32813-2.49805 2.82617-8.25391zm13.71875 7.91797-5.61133 6.43554 3.58984 13.66602 4.22852-17.74219v-1.08594zm12.3125.86718-.5625.32618v1.16406l3.15234 13.21875 2.37305-9.02344z"/><path d="m171.39034 56.042279 4.19284 11.489107c7.58464 20.78567 19.75577 42.038224 26.51008 61.962444 6.75248 19.92422 8.33075 36.96837-2.87457 52.77299-12.52358 17.66393-35.32602 35.73616-55.49741 57.14892-20.1714 21.41276-38.04314 47.1685-38.04314 80.6343 0 83.3038 67.61912 151.60769 150.96961 151.60769 83.34957 0 151.60768-68.25903 151.60768-151.60769 0-33.27996-17.05789-59.48244-36.93542-81.22661-19.87661-21.74416-42.88686-39.88871-56.96949-57.03815-8.40398-10.23125-7.39971-31.25036-.80561-53.96492 6.59319-22.71456 17.63647-45.807208 23.71791-59.816594l5.1907-11.961487h-18.84854l-30.19392 81.647721c-4.23678 20.1064-4.39424 40.2073 7.71738 54.95546 16.01517 19.50128 38.98606 37.39865 57.56454 57.72201 18.5794 20.32153 32.45329 42.20942 32.45329 69.68166 0 74.01731-60.47938 134.50036-134.50035 134.50036-74.01823 0-133.85954-60.43454-133.85954-134.50036 0-27.4164 14.42227-48.77149 33.38707-68.90352 18.96847-20.13111 42.14809-38.03763 56.9997-58.98351 14.72437-20.76736 12.77259-44.49168 5.75829-66.1919l-22.21105-52.083645c-.1062-.242599-.22155-.492521-.32683-.734204h.0156l-7.29627-17.110072z"/><path d="m201.24004 40.870251 36.14812 84.770379c14.12382 4.75127 27.89061 4.54072 42.23505.002l31.35107-84.771922h-109.73424z"/></g></svg>