<svg viewBox="0 0 512 512" xmlns="http://www.w3.org/2000/svg"><circle cx="256" cy="256" r="246" stroke="#fff" stroke-width="10"/><path d="m133.09637 79.561293-5.17198 5.148993-45.567055 45.518024-5.124475 5.09995 5.148994 5.07697 4.932153 4.86013 55.550893-55.526377-4.71761-4.908401-5.05245-5.267757zm32.51528 7.639205-79.231664 79.231662 25.262244 25.26225 79.23014-79.2332-25.26225-25.262244zm116.89747 44.655262c-27.12569.10727-54.25368 7.32965-78.34591 21.64569l-16.68979-17.3587-10.15241 10.12942 20.42434 21.23806 4.09468 4.26172 4.98042-3.20893c32.18121-20.86415 70.96723-27.22377 107.1504-19.03518-11.67565-.91564-20.79902 1.8213-24.61403 8.42841-6.01712 10.42211 2.92696 27.41839 20.66494 42.21408l-8.98009 6.15274.88575 11.78139c-8.82455-1.76614-17.99313-2.70476-27.41533-2.70476-68.77813 0-124.53514 49.71997-124.53514 111.07651 0 1.33858.0429 2.6741.0958 3.99966-13.33452-39.7913-8.2315-84.32089 15.27687-120.51096l3.18441-4.88541-4.16823-4.11843-21.02199-20.68792-10.12942 10.12788 17.12117 16.85683c-35.33573 59.28085-27.53792 136.88736 23.44094 187.84324 60.26315 60.26314 157.97908 60.24782 218.25219 0 60.2731-60.24782 60.28383-157.89786.023-218.13342-30.25263-30.23348-69.90064-45.26823-109.54406-45.11116zm107.79632 64.36241c9.70187 11.54463 17.23993 24.26616 22.62645 37.64129l-7.82769-3.75908-17.74411 12.13998 1.05356 13.74368-21.57367-10.38994-14.48538 30.14537c-3.81424-2.86566-8.17786-5.00188-12.88244-6.22553l14.46239-30.12238-7.44612-3.59204c-3.96519-2.5086-8.11426-4.80802-12.40509-6.89597l5.70067-3.90235-.52869-6.8002c24.29834 10.68646 46.86963 10.91862 53.49283-.55168 3.27022-5.66466 2.13009-13.29007-2.44271-21.43115zm-79.32668 37.83284-14.05705 9.62678 18.86891 27.62987c-4.46706 1.92167-8.46825 4.68543-11.80437 8.09433l-18.86815-27.63216-18.91642 12.93072-1.12481-14.94128-3.13767-1.50945c7.82463-4.57433 16.42238-8.20084 25.66834-10.67803 7.81927-2.09484 15.65769-3.24494 23.36969-3.52001zm110.33557 30.14613c3.15146 19.99373 1.93854 40.52227-3.63954 60.1007l-6.41785-3.08939-9.64977 6.60864-1.57994-20.73389-33.16197 2.5132c.2835-2.35.35246-4.76206.16627-7.20706-.18389-2.43811-.60991-4.81416-1.24434-7.08753l33.13898-2.5132-1.91554-25.21474 11.37375 5.48306 12.92995-8.85902zm-189.42472 10.9669 17.07137 8.21233 9.50725-6.48757 1.98757 26.43456 33.23476-2.53848c-.2835 2.34156-.35246 4.74672-.16857 7.1833.18619 2.44041.61068 4.81186 1.24587 7.08753l-33.21177 2.53848 1.84352 24.44699-10.46272-5.05245-17.74257 12.13998 1.62745 21.47713 19.37002 9.33868 17.74334-12.13922-.98076-13.05101 20.75994 10.00912 14.48614-30.14612c3.81424 2.86795 8.17709 4.99881 12.88245 6.22553l-14.46239 30.12314 21.35836 10.29569-9.33868 6.3941 1.62822 21.47712 11.0144 5.29304c-50.96431 11.83809-101.72174-16.05382-114.454-63.57321-7.16568-26.74258-.80453-54.13798 15.0608-75.68713zm97.86152 7.47063c.38695-.013.76622-.009 1.14933 0 11.48027.27584 20.97142 9.11418 21.86024 20.83121.95011 12.49856-8.28436 23.23483-20.7837 24.18417-12.49703.94858-23.23406-8.2629-24.18188-20.75994-.95011-12.49704 8.2859-23.2356 20.78293-24.18494.39077-.0291.78538-.059 1.17232-.072zm26.79316 48.34307 18.84439 27.56091 19.03519-13.05025.72024 9.33792 7.58941 3.66482c-5.73132 9.42144-12.67097 18.3249-20.83197 26.48207-7.55492 7.55186-15.74581 14.06779-24.39872 19.53859-.0789.0429-.16091.0766-.23983.11953l-1.50715-19.80063-11.01593-5.31757 18.84362-12.88244-18.84286-27.55937c4.46936-1.92091 8.46519-4.6839 11.80438-8.09434z" fill="#fff"/></svg>