<svg height="512" viewBox="0 0 512 512" width="512" xmlns="http://www.w3.org/2000/svg"><circle cx="256" cy="256" r="246" stroke="#fff" stroke-width="10"/><g fill="#fff"><path d="m256.73438 241.18164c-23.07928-.00042-46.57825 3.11137-68.4336 10.52734-6.8328 2.31851-13.32611 5.92346-18.97851 10.40821-4.20992 3.34025-7.6189 7.64603-10.76368 12.0039-3.8345 5.31366-7.31821 10.98317-9.7539 17.06641-4.09783 10.23451-7.94141 17.86813-7.94141 32.10547 0 31.93606 12.98771 61.03227 33.95899 82.14453s49.92631 34.24023 81.86328 34.24023 61.03295-13.12648 82.14453-34.23828c21.11158-21.11181 34.23828-50.20848 34.23828-82.14453 0-14.39388-5.27368-26.50244-11.3418-38.38476-4.3633-8.54402-10.2885-16.55207-17.57812-22.78907-5.48215-4.69052-12.14632-8.09155-18.97852-10.41015-21.85606-7.41716-45.35521-10.52888-68.43554-10.5293zm.88085 10.98047c26.92225 0 44.6478 12.41536 56.29883 30.38086 11.18696 17.25079 16.29774 39.76363 16.69141 60.40234-16.62038 8.02861-26.8307 15.39812-31.54492 23.63477-2.47637 4.32638-3.24045 9.09954-2.10157 13.50976.81066 3.14311 2.48701 6.00786 4.74414 8.68555-11.20579 10.2113-28.73238 15.15478-46.15624 14.875-17.3158-.278-34.12873-5.82915-44.00196-14.7832 4.49093-6.07549 5.86218-13.93639 2.26172-21.50586-4.07752-8.57249-13.45997-16.66397-29.18359-24.39844.38111-21.79373 5.60452-44.33612 16.85156-61.3125 11.68601-17.63953 29.40669-29.48828 56.14062-29.48828zm-33.96484 56.48633c9.78982 16.95978 53.75343 16.94622 65.35156.0918-22.76491 4.70706-44.64111 4.78205-65.35156-.0918zm-9.10742 6.0664c-14.20994 2.60954-16.29092 13.43319-14.11719 27.13868 13.93326 9.43292 28.84044 17.56501 46.50195 8.54101l.49805-15.06055c-19.14832.79632-29.43121-6.99302-32.88281-20.61914zm83.70703 0c-3.45159 13.62612-13.7321 21.4135-32.88086 20.61719l.49805 15.06055c17.66151 9.02445 32.56629.89476 46.5-8.53906h.002c2.17327-13.70549.0918-24.52914-14.11719-27.13868zm-42.24609 41.53321c-5.50556 9.78214-8.98041 19.5625-11.86914 29.34375 7.4511 4.98011 17.90026 4.34834 23.73632 0-2.13678-9.78098-6.44155-19.56188-11.86718-29.34375zm-39.46875 46.42773c2.67231 1.45004 5.50086 2.73178 8.45117 3.84375l-4.88672 12.91016c-3.82331-1.78319-7.27802-3.87409-10.24805-6.25586zm79.63281.23828 6.87305 10.79688c-3.16284 2.17865-6.57286 4.06944-10.16211 5.68359l-4.79883-12.76758c2.79518-1.06983 5.49986-2.30499 8.08789-3.71289zm-63.17774 6.13086c3.31843.86447 6.7362 1.54057 10.21289 2.0293l-1.73632 14.57812c-4.7326-.7183-9.29414-1.77918-13.56446-3.16601zm47.09571.12891 4.9707 13.22461c-4.3618 1.40924-8.8934 2.46786-13.5 3.1875l-1.71484-14.4043c3.46844-.46891 6.89626-1.13371 10.24414-2.00781zm-28.53906 2.70898c1.28594.0699 2.57481.12539 3.86523.14649 2.02352.0323 4.05342-.005 6.08008-.0977l1.73633 14.58789c-4.49586.31074-9.00228.31687-13.42774.0312l1.7461-14.66601z"/><path d="m171.39034 56.042279 4.19284 11.489107c7.58464 20.78567 19.75577 42.038224 26.51008 61.962444 6.75248 19.92422 8.33075 36.96837-2.87457 52.77299-12.52358 17.66393-35.32602 35.73616-55.49741 57.14892-20.1714 21.41276-38.04314 47.1685-38.04314 80.6343 0 83.3038 67.61912 151.60769 150.96961 151.60769 83.34957 0 151.60768-68.25903 151.60768-151.60769 0-33.27996-17.05789-59.48244-36.93542-81.22661-19.87661-21.74416-42.88686-39.88871-56.96949-57.03815-8.40398-10.23125-7.39971-31.25036-.80561-53.96492 6.59319-22.71456 17.63647-45.807208 23.71791-59.816594l5.1907-11.961487h-18.84854l-30.19392 81.647721c-4.23678 20.1064-4.39424 40.2073 7.71738 54.95546 16.01517 19.50128 38.98606 37.39865 57.56454 57.72201 18.5794 20.32153 32.45329 42.20942 32.45329 69.68166 0 74.01731-60.47938 134.50036-134.50035 134.50036-74.01823 0-133.85954-60.43454-133.85954-134.50036 0-27.4164 14.42227-48.77149 33.38707-68.90352 18.96847-20.13111 42.14809-38.03763 56.9997-58.98351 14.72437-20.76736 12.77259-44.49168 5.75829-66.1919l-22.21105-52.083645c-.1062-.242599-.22155-.492521-.32683-.734204h.0156l-7.29627-17.110072z"/><path d="m201.24004 40.870251 36.14812 84.770379c14.12382 4.75127 27.89061 4.54072 42.23505.002l31.35107-84.771922h-109.73424z"/></g></svg>