<svg height="512" viewBox="0 0 512 512" width="512" xmlns="http://www.w3.org/2000/svg"><circle cx="256" cy="256" r="246" stroke="#fff" stroke-width="10"/><g fill="#fff"><path d="m256.73438 241.18164c-18.83334-.00034-37.9439 2.07325-56.21485 6.86524 1.3753 9.47781 4.71892 18.48676 9.73242 26.71484 17.872 12.7211 49.23156 15.46077 75.34961 4.83789l5.89649-2.39649.3164 6.34766c.60316 12.30759 1.72474 24.46468 3.73828 36.42969 12.93727.45984 26.57051-1.04993 40.48633-4.90235-1.86975 15.72865-2.2844 31.29923-.0137 44.33204 8.79354 2.40604 19.01468 4.70638 28.00195 8.62109 5.81595-13.7994 9.04102-28.91837 9.04102-44.73633 0-14.39388-5.27368-26.50244-11.3418-38.38476-4.3633-8.54402-10.2885-16.55207-17.57812-22.78907-5.48215-4.69052-12.14632-8.09155-18.97852-10.41015-21.85606-7.41716-45.35521-10.52888-68.43554-10.5293zm-84.02344 18.43945c-1.15599.80073-2.29235 1.62625-3.38867 2.4961-4.20992 3.34025-7.6189 7.64603-10.76368 12.0039-3.8345 5.31366-7.31821 10.98317-9.7539 17.06641-4.09783 10.23451-7.94141 17.86813-7.94141 32.10547 0 31.93606 12.98771 61.03227 33.95899 82.14453 9.81077 9.87673 21.36875 18.00597 34.16211 23.86133-5.29708-26.73965-19.37217-51.45745-33.45704-61.38672 38.07357-52.73343 41.70188-65.92875-5.58007-105.21875 1.02699-1.00056 1.94574-2.02611 2.76367-3.07227zm110.46094 30.47071c-19.95117 6.68191-41.64022 6.91625-59.63477 1.13086 15.5144 14.93491 37.53804 25.28722 62.75781 28.07617-1.52861-9.68413-2.50399-19.43362-3.12304-29.20703zm-58.64063 24.17187c-45.3731 55.20297-22.97587 86.09667 24.50391 81.10742-1.83261-7.76081-4.33744-15.11466-7.57032-21.03515l-1.44726-2.66797 1.91601-2.35352c7.49929-9.15964 10.09776-16.08678 9.86133-22.61718-.22582-6.22835-3.2116-12.75227-8.74609-20.62696-5.4872-4.74943-11.91046-8.1945-18.51758-11.80664zm73.7207 14.38477c-.35851.0009-.71419.009-1.07031.0137 1.76361 8.46916 4.02596 16.8269 6.93555 25.0625 8.53864.8198 16.47939 2.0537 24.15625 3.76953-1.90691-8.80017-5.26459-17.81927-10.16406-27.2168-7.25806-1.14211-13.7391-1.6531-19.85743-1.6289zm-10.19336.54297c-9.52153.9988-18.72747 3.30624-29.43359 6.54492 1.27673 3.47895 2.05334 6.99363 2.18555 10.63086.30881 8.51161-3.05257 17.08478-10.07032 26.31054 3.20682 6.48021 5.68873 13.79209 7.50782 21.32227 2.33684-.44199 4.71797-.95296 7.14648-1.55273 5.73571 12.19187 12.03536 24.39494 24.84375 41.58203-.0317.2517-.08.45948-.11914.6914 11.12105-3.37505 21.55944-8.38181 31.0293-14.74023-3.31621-3.08563-6.87936-6.01219-9.99805-8.03711 11.28802-19.61002 20.53199-25.62172 18.63086-44.88867-9.16398-2.26735-18.68721-3.75187-29.37305-4.64453l-2.84961-.24024-.99609-2.68359c-3.70526-9.97849-6.45706-20.0969-8.50391-30.29492zm50.45118 40.29101c2.40548 7.19157 6.96879 15.25395 12.87109 21.15039 3.24926-4.5417 6.1819-9.32171 8.76367-14.30859-7.26387-2.84511-15.00707-4.78591-21.63476-6.8418zm1.63085 20.40039c-8.00969 8.74408-13.85365 15.39946-10.4082 23.74805 3.17152-2.57465 6.21145-5.30517 9.09766-8.19141 3.19826-3.19829 6.20954-6.58202 9.02344-10.1289-1.96363-1.88097-4.4037-3.66724-7.7129-5.42774zm-117.01562 12.67578c-3.42978.0369-6.94241.26181-10.52148.66797 1.55175 7.63721 1.77306 15.22145 7.76367 30.55664 9.7864 3.26945 20.14425 5.25808 30.88281 5.76172.71937-12.33234 1.16508-24.42842.0918-31.91406-8.38063-3.58632-17.92746-5.18289-28.2168-5.07227zm38.33398 10.81641c.55466 5.90515-.29112 14.06409-1.10156 26.23828 6.288-.19886 12.45594-.90842 18.46485-2.08398-8.27407-14.0426-11.9646-20.19332-17.36329-24.1543z"/><path d="m171.39034 56.042279 4.19284 11.489107c7.58464 20.78567 19.75577 42.038224 26.51008 61.962444 6.75248 19.92422 8.33075 36.96837-2.87457 52.77299-12.52358 17.66393-35.32602 35.73616-55.49741 57.14892-20.1714 21.41276-38.04314 47.1685-38.04314 80.6343 0 83.3038 67.61912 151.60769 150.96961 151.60769 83.34957 0 151.60768-68.25903 151.60768-151.60769 0-33.27996-17.05789-59.48244-36.93542-81.22661-19.87661-21.74416-42.88686-39.88871-56.96949-57.03815-8.40398-10.23125-7.39971-31.25036-.80561-53.96492 6.59319-22.71456 17.63647-45.807208 23.71791-59.816594l5.1907-11.961487h-18.84854l-30.19392 81.647721c-4.23678 20.1064-4.39424 40.2073 7.71738 54.95546 16.01517 19.50128 38.98606 37.39865 57.56454 57.72201 18.5794 20.32153 32.45329 42.20942 32.45329 69.68166 0 74.01731-60.47938 134.50036-134.50035 134.50036-74.01823 0-133.85954-60.43454-133.85954-134.50036 0-27.4164 14.42227-48.77149 33.38707-68.90352 18.96847-20.13111 42.14809-38.03763 56.9997-58.98351 14.72437-20.76736 12.77259-44.49168 5.75829-66.1919l-22.21105-52.083645c-.1062-.242599-.22155-.492521-.32683-.734204h.0156l-7.29627-17.110072z"/><path d="m201.24004 40.870251 36.14812 84.770379c14.12382 4.75127 27.89061 4.54072 42.23505.002l31.35107-84.771922h-109.73424z"/></g></svg>