<svg viewBox="0 0 512 512" xmlns="http://www.w3.org/2000/svg"><circle cx="256" cy="256" r="246" stroke="#fff" stroke-width="10"/><path d="m203.46422 62.788427 14.02875 50.513983h79.57831l14.02955-50.513983zm18.24262 65.602053.0242.10092h-18.67054c-19.20828 0-18.16511 36.81305 0 36.81305h16.9556v47.68562c-54.40811 15.97622-94.01318 66.15512-94.01318 125.77992 0 43.37405 22.59768 81.13105 53.44084 105.84658 21.4195 17.16408 52.38046 20.38109 79.82802 20.20136 26.0992-.1709 55.35894-3.78386 75.64843-20.20136 30.78139-24.90715 53.91883-62.47333 53.91883-105.84658.002-44.19923-21.9454-83.19551-55.50781-106.93094-.0194-.0137-.0323-.0371-.0509-.0509-44.64169-23.57153-103.76831-3.46864-132.84314 46.75468-25.04989 43.26747-13.78652 96.1286 23.05963 117.55241 25.70389 14.94515 61.93318 7.71399 78.27031-22.12787 3.7601-6.86945 4.3584-17.15746 1.61482-27.12413-2.7452-9.96586-8.7281-19.2866-15.97299-24.39831-9.2723-6.54164-28.10917-6.46897-38.75567 1.08516l-8.72972-12.313c16.56563-11.75427 40.24615-12.35902 56.19088-1.11019v.0242c10.89034 7.68654 18.24746 19.82999 21.80007 32.72594 3.55098 12.89675 3.39435 26.85203-2.90183 38.35196-20.36692 37.20383-66.1955 47.05343-99.08534 27.93154-44.92024-26.11971-57.25666-88.55671-28.53628-138.16882 15.73399-27.17902 39.61394-46.76921 66.00575-56.69631h41.15368v-48.97022h15.69362c20.96682 0 19.72745-36.81385 0-36.81385h-17.41098l.0266-.10092z" fill="#fff"/></svg>