<svg height="512" viewBox="0 0 512 512" width="512" xmlns="http://www.w3.org/2000/svg"><circle cx="256" cy="256" r="246" stroke="#fff" stroke-width="10"/><g fill="#fff"><path d="m256.73438 241.18164c-23.07928-.00042-46.57825 3.11137-68.4336 10.52734-6.8328 2.31851-13.32611 5.92346-18.97851 10.40821-4.20992 3.34025-7.6189 7.64603-10.76368 12.0039-3.8345 5.31366-7.31821 10.98317-9.7539 17.06641-4.09783 10.23451-7.94141 17.86813-7.94141 32.10547 0 31.93606 12.98771 61.03227 33.95899 82.14453 3.61424 3.63854 7.47027 7.03395 11.5332 10.17188l7.80469-15.32032 5.22461 6.34766 71.08593-88.71484-81.71484-24.45899 42.70508 1.76367 58.02148 3.20313.36914-6.70899-27.91992-1.53906-32.29102-25.76172 84.09766 31.02149c.1697-1.90623.50577-3.86322 1.0332-5.83203 3.34293-12.47509 12.85022-20.76272 21.23633-18.51563 8.38611 2.24708 12.47575 14.17444 9.13281 26.64844-3.34222 12.47507-12.84862 20.77565-21.23437 18.52929-.43144-.11577-.85082-.27406-1.25781-.43945l-36.03321 29.38086 42.00977 11.65234-83.27539 50.39063 20.59375-30.24609 4.61719 3.87695 13.94336-14.5957-18.62696-4.16797-72.08984 58.77929c18.12305 11.85911 39.72453 18.77539 62.89844 18.77539 31.93697 0 61.03295-13.12648 82.14453-34.23828 21.11158-21.11181 34.23828-50.20848 34.23828-82.14453 0-14.39388-5.27368-26.50244-11.3418-38.38476-4.3633-8.54402-10.2885-16.55207-17.57812-22.78907-5.48215-4.69052-12.14632-8.09155-18.97852-10.41015-21.85606-7.41716-45.35521-10.52888-68.43554-10.5293z"/><path d="m171.39034 56.042279 4.19284 11.489107c7.58464 20.78567 19.75577 42.038224 26.51008 61.962444 6.75248 19.92422 8.33075 36.96837-2.87457 52.77299-12.52358 17.66393-35.32602 35.73616-55.49741 57.14892-20.1714 21.41276-38.04314 47.1685-38.04314 80.6343 0 83.3038 67.61912 151.60769 150.96961 151.60769 83.34957 0 151.60768-68.25903 151.60768-151.60769 0-33.27996-17.05789-59.48244-36.93542-81.22661-19.87661-21.74416-42.88686-39.88871-56.96949-57.03815-8.40398-10.23125-7.39971-31.25036-.80561-53.96492 6.59319-22.71456 17.63647-45.807208 23.71791-59.816594l5.1907-11.961487h-18.84854l-30.19392 81.647721c-4.23678 20.1064-4.39424 40.2073 7.71738 54.95546 16.01517 19.50128 38.98606 37.39865 57.56454 57.72201 18.5794 20.32153 32.45329 42.20942 32.45329 69.68166 0 74.01731-60.47938 134.50036-134.50035 134.50036-74.01823 0-133.85954-60.43454-133.85954-134.50036 0-27.4164 14.42227-48.77149 33.38707-68.90352 18.96847-20.13111 42.14809-38.03763 56.9997-58.98351 14.72437-20.76736 12.77259-44.49168 5.75829-66.1919l-22.21105-52.083645c-.1062-.242599-.22155-.492521-.32683-.734204h.0156l-7.29627-17.110072z"/><path d="m201.24004 40.870251 36.14812 84.770379c14.12382 4.75127 27.89061 4.54072 42.23505.002l31.35107-84.771922h-109.73424z"/></g></svg>