<svg height="512" viewBox="0 0 512 512" width="512" xmlns="http://www.w3.org/2000/svg"><circle cx="256" cy="256" r="246" stroke="#fff" stroke-width="10"/><g fill="#fff"><path d="m256.73438 241.18164c-18.88043-.00034-38.03916 2.08473-56.35157 6.90234.86392 2.275 2.00452 4.63011 3.40235 5.83204 12.67642 10.89987 32.66736 16.91919 48.35156 13.33203 6.71546-2.57886 13.78259-4.08411 20.86719-4.31055 9.98816-.32043 21.0257.96069 30.06836 6.18164 4.45362 2.38831 8.17077 5.40675 11.54687 8.71875 8.89612 8.51587 18.64198 43.32756 11.01563 68.55859-1.52997 12.80883 4.09215 24.02356 13.68554 36.10352 0 0 4.37243 5.73619 9.41407 11.68164 15.22979-19.68252 24.33398-44.29876 24.33398-70.88672 0-14.39388-5.27368-26.50244-11.3418-38.38476-4.3633-8.54402-10.2885-16.55207-17.57812-22.78907-5.48215-4.69052-12.14632-8.09155-18.97852-10.41015-21.85606-7.41716-45.35521-10.52888-68.43554-10.5293zm17.97656 29.85938c-.54217.005-1.08545.0196-1.62891.041-3.87811.1568-7.77026.75385-11.58984 1.73438 1.54749 1.43726 2.6557 3.28753 3.01758 5.46093 4.78772-1.518 11.18359 1.64197 10.84179 7.20899-.5896 9.5874-11.57105 9.21173-14.93945 3.83398-6.44416 4.9411-18.05029 1.04755-18.88086-7.29101-6.81372 4.77661-12.66687 10.9339-16.82227 18.13086-.23583.40759-.44836.8203-.65429 1.23046l-2.22852 7.12891c-.70923 4.8219-.0873 9.90589.85352 15.44727.23883 1.40905.49854 2.84619.76172 4.29882l16.24804 4.19336-2.00195 7.72852-12.92383-3.33594c.48365 4.53607 1.10682 11.40734-1.25586 16.79492l-2.84375 4.91407 6.51563 3.75195 4.40625-7.63672 6.91601 3.99024-4.40625 7.63671 5.95508 3.44532 4.4043-7.63672 6.91797 3.99219-4.40625 7.63671 5.83398 3.36524 4.40625-7.63672 6.91602 3.99219-4.40625 7.63672 6.32812 3.6582 2.8457-4.91406.26758-.45313.37305-.375c4.01525-4.01483 8.56861-6.69079 13.19141-8.77148l-9.21289-9.37305 5.70117-5.59375 11.58789 11.78906c.85236-.30505 1.67645-.59631 2.51172-.89453-.0436 8.87945 11.992 13.24665 18.625 8.26367 2.92877 2.29389 8.48456 1.75038 8.82422-3.79101.16919-2.73907-2.11718-4.59765-4.60547-4.98047.00095-.0179-.001-.0343 0-.0527.24994-4.07037-2.0061-7.25378-5.19336-9.10547l2.69726-2.92383c.32898-.48151.64392-.98555.94727-1.50977 14.10211-24.4278 8.09528-59.83929-15.40625-74.41992-4.52368 9.82667-23.87501 1.59046-20.99024-6.39648.015-.0415.0394-.0777.0547-.11914-1.18005-.0718-2.36304-.10485-3.55078-.0937zm-122.95117 13.84179c-1.09394 2.05243-2.09289 4.15134-2.95508 6.30469-4.09783 10.23451-7.94141 17.86813-7.94141 32.10547 0 31.93606 12.98771 61.03227 33.95899 82.14453s49.92631 34.24023 81.86328 34.24023c18.03711 0 35.16669-4.18866 50.46484-11.63671l-5.97656-5.39454c-16.70105-10.10651-31.84844-18.33411-43.69727-7.0625l-1.69726 2.9375-3.45899-1.99023-52.29687-30.1875-3.45703-2.00195 1.97656-3.4043-.30859.35938c12.01971-21.69256 3.82165-45.82764-11.80274-62.2168 0 0-9.67546-19.28589-17.74805-25.98242-3.91414-3.24694-11.35785-6.25116-16.92382-8.21485zm125.60937 10.65821c3.10651.0316 6.28357 2.22619 6.07422 5.62109-.52253 8.51672-12.14026 6.3916-11.74805 0 .24481-3.99219 2.93177-5.64839 5.67383-5.62109zm-34.25391 2.03906v.002c7.10393.15064 14.2139 5.86733 16.32227 12.3125 3.34833-.41529 7.17152 1.8545 6.94336 5.56641-.34051 5.54523-5.38769 6.57971-8.75781 4.86133-11.41174 14.78015-34.11999-4.18323-25.92969-16.35547 2.96082-4.39978 6.82293-6.26447 10.73437-6.38282.22898-.007.45834-.009.6875-.004zm48.55274 28.24219c10.81573-.32642 22.04443 12.62146 15.90234 21.75-11.14643 16.56519-35.00049-2.95099-26.63672-15.38086 2.96081-4.40021 6.82294-6.25123 10.73438-6.36914zm-24.13867 3.79101v.002l-2.29688 25.67383-18.78515-10.85351zm-50.85547 35.86328-9.21485 15.94141 45.38282 26.19531 9.21289-15.94336-6.33008-3.65625-4.76563 8.25-6.91601-3.99219 4.76758-8.25-5.83594-3.36523-4.76563 8.25-6.91601-3.99023 4.76758-8.25196-5.95508-3.44531-4.76758 8.25195-6.91601-3.99023 4.76562-8.25195zm77.98437 15.83399c-1.52569.0423-3.0835.82422-4.32422 2.69726-.38581.58277-.60301 1.18665-.69531 1.80274-4.74029-3.25988-11.45422-3.4541-16.07617 3.52539-7.00342 10.57306 10.8302 25.73444 20.16211 11.64258 1.87475-2.83179 1.96691-6.00166.92187-8.83985 1.79315.27985 3.73645-.38799 5.22071-2.6289 2.37891-3.59314-1.30952-8.30603-5.20899-8.19922zm20.04102.30664c-3.88367-.0393-7.67609 2.30029-8.02344 7.95703-.55627 9.05634 15.8935 12.06799 16.63477 0 .29565-4.81079-4.20942-7.91263-8.61133-7.95703zm19.17383 14.16601c-2.47119-.0248-4.88111 1.46313-5.10157 5.06055-.35462 5.76184 10.11707 7.67761 10.5879 0 .18842-3.0608-2.68573-5.03235-5.48633-5.06055zm-25.38282 6.78321c-2.47162-.0248-4.89239 1.46313-5.11328 5.06054-.35418 5.76184 10.13031 7.67761 10.60157 0 .18841-3.06037-2.68769-5.03194-5.48829-5.06054z"/><path d="m171.39034 56.042279 4.19284 11.489107c7.58464 20.78567 19.75577 42.038224 26.51008 61.962444 6.75248 19.92422 8.33075 36.96837-2.87457 52.77299-12.52358 17.66393-35.32602 35.73616-55.49741 57.14892-20.1714 21.41276-38.04314 47.1685-38.04314 80.6343 0 83.3038 67.61912 151.60769 150.96961 151.60769 83.34957 0 151.60768-68.25903 151.60768-151.60769 0-33.27996-17.05789-59.48244-36.93542-81.22661-19.87661-21.74416-42.88686-39.88871-56.96949-57.03815-8.40398-10.23125-7.39971-31.25036-.80561-53.96492 6.59319-22.71456 17.63647-45.807208 23.71791-59.816594l5.1907-11.961487h-18.84854l-30.19392 81.647721c-4.23678 20.1064-4.39424 40.2073 7.71738 54.95546 16.01517 19.50128 38.98606 37.39865 57.56454 57.72201 18.5794 20.32153 32.45329 42.20942 32.45329 69.68166 0 74.01731-60.47938 134.50036-134.50035 134.50036-74.01823 0-133.85954-60.43454-133.85954-134.50036 0-27.4164 14.42227-48.77149 33.38707-68.90352 18.96847-20.13111 42.14809-38.03763 56.9997-58.98351 14.72437-20.76736 12.77259-44.49168 5.75829-66.1919l-22.21105-52.083645c-.1062-.242599-.22155-.492521-.32683-.734204h.0156l-7.29627-17.110072z"/><path d="m201.24004 40.870251 36.14812 84.770379c14.12382 4.75127 27.89061 4.54072 42.23505.002l31.35107-84.771922h-109.73424z"/></g></svg>