<svg height="512" viewBox="0 0 512 512" width="512" xmlns="http://www.w3.org/2000/svg"><circle cx="256" cy="256" r="246" stroke="#fff" stroke-width="10"/><path d="m264.7 70.4504c-2.0176-.0024-4.0272.044-6.0504.1248l-6.9744 26c2.9304 2.3256 5.8688 4.4752 8.824 6.4744l-12.4992 46.6992c-18.584 3.832-34.1696 14.648-38.7248 31.6256-1.8912 7.0464-1.5344 14.284.4496 21.1744-43.2528 13.688-79.9728 51.432-93.6496 102.424-7.6976 28.6944-7.0144 57.3648.424 83l.7008 2.4272 2.024 1.5c56.6256 41.968 120.2464 64.1888 192.7256 51.4504l2.2504-.376 1.6504-1.6c19.172-18.464 34.1776-43.048 41.8496-71.6496 13.752-51.28.8192-102.64-30.176-136.1 5.024-4.808 8.98-10.676 10.8512-17.648 4.5144-16.8376-3.556-33.696-17.4512-46.2l12.5504-46.752c4.2056-.1872 8.4992-.548 12.8752-1.0744l6.9744-26.024c-28.6728-16.2288-58.356-25.4464-88.6232-25.4768zm9.176 40.4992c14.0384 7.1224 28.5936 10.9136 44.1736 11.9256l-12.7496 47.5248-1.2752 4.776 3.876 3.048c13.1464 10.308 18.9664 22.9104 16.024 33.876-1.5496 5.7784-5.536 10.672-11.6 14.6504l-7.924 5.224 6.9248 6.5008c21.0376 19.736 34.3984 48.7496 36.576 80.9h-26.1504l-6.5256 24.3488-1.6992 6.2752-6.4-1.1248c-5.672-1.008-10.1088-.3184-13.7496 1.6752-3.6424 1.992-6.772 5.4256-9.152 11.224l-2.3736 5.776-6.0256-1.6-80.3744-21.5496-6.3504-1.7 1.224-6.4504c1.18-6.256-.888-12.4344-5.0992-16.8744h-57.1248c.6664-3.504 1.456-7.0104 2.4-10.5264 13.192-49.1784 49.928-84.1384 90.8752-94.0496l9.224-2.224-4.3248-8.4512c-3.28-6.3984-4.176-12.9096-2.576-18.8752 2.98-11.104 14.5632-19.376 31.3008-21.624l4.9504-.676 1.2744-4.8 12.6512-47.2zm-49.776 149.3504c-6.2376 10.5328-17.784 17.072-30.0504 16.9504l-6.9744 25.9248c10.6056 5.896 17.528 16.9656 17.7248 29.0736l69.1 18.5c3.2296-5.472 7.52-9.8032 12.6752-12.624 4.9856-2.7304 10.6296-3.9304 16.4992-3.8256l7-26.1248c-10.3424-6.12-16.82-17.36-16.9504-29.376l-69.024-18.5z" fill="#fff" stroke-width=".8"/></svg>