<svg height="512" viewBox="0 0 512 512" width="512" xmlns="http://www.w3.org/2000/svg"><circle cx="256" cy="256" r="246" stroke="#fff" stroke-width="10"/><path d="m411.1797 145.88832c-15.5712-.0824-33.824 7.8744-48.7 22.7504-4.6224 4.6208-8.5472 9.5824-11.8 14.6744-22.9872-13.8504-55.8128-14.6104-88.176-6.3744-.016-.0744-.032-.1496-.0504-.224-9.8856 2.5072-19.7808 5.7984-29.3496 9.8496l.1504.3248c-69.8624 30.0048-121.5216 99.192-38.4256 161.6504h-103.899996l-23.024 41.5728h223.899996l-77.024-89.8992c21.1312-23.2536 58.728-38.0672 84.448-39.2496 12.012 39.264 31.556 98.8128 62.452 129.1248h53c-37.504-40.5312-66.6544-94.9872-71.352-156.6 1.408 2.8184 3.2176 5.416 5.476 7.6752 16.2496 16.2496 48.7248 10.1256 72.5248-13.6752 23.8016-23.8 29.9256-56.2752 13.676-72.5248-6.0936-6.0936-14.4824-9.0256-23.824-9.0752z" fill="#fff" stroke-width=".8"/></svg>