<svg height="512" viewBox="0 0 512 512" width="512" xmlns="http://www.w3.org/2000/svg"><circle cx="256" cy="256" r="246" stroke="#fff" stroke-width="10"/><path d="m131.52195 88.688979-21.624 21.631981-21.623991 21.64 15.399991 13.92 41.848-41.784zm37.656 14.247981c-7.12.08-13.44 5.424-15.84 7.696l-43.128 43.136c-3.48 3.6-14.079991 16.48-2.248 27.28 10.904 9.52 21.008.96 24.168-2.16.616-.56.928-1.04.928-1.04s60.12 50.32 83.16 82c5.84 10.56 10.08 20.56 10.08 33.12-6.96 65.44-26.08 82.8-19.44 88.8 58.96 59.04 130.08 73.2 130.08 73.2l58.8-58.8 58.96-58.88s-14.4-70.96-73.36-130.08c-6.08-6.48-23.44 12.64-88.8 19.52-12.64 0-22.64-4.16-33.12-10.08-24.64-18-60.56-58.4-75.36-75.24l-11.84 11.72c10.56 11.92 40.16 44 69.36 69.28-5.92-1.52-14.32 3.52-14.32 3.52-11.04-8.72-54-50.88-64.8-63.28l-7.36 7.6-7.12-7.12 29.52-29.648s.24-.296.96-.912c3.04-3.168 11.6-13.272 2.32-24.176-3.76-4.072-7.76-5.488-11.6-5.456zm206.88 116.352h.08c16.72 17.92 30.72 37.2 41.76 57.52 10 18.72 17.44 38.4 22.08 58.4l-105.12 105.28h-.16c-19.84-4.72-39.52-12.08-58.32-22.32-20.48-10.88-39.68-24.8-57.6-41.52v-.24c12.88-30.8 24.56-71.84 18.8-95.12l-.16-.32.24.08c10.96 4.24 28.72-13.6 29.04-13.92.24-.24 18.16-18 14-28.88l-.16-.32.32.08c23.12 5.68 64.24-5.92 95.2-18.72zm-108.64 14.56c1.6 0 2.88.4 3.84 1.36 4.4 4.4-2.64 16.16-11.52 25.04-8.8 8.8-20.48 15.84-24.88 11.44-4.48-4.32 2.48-16.24 11.44-24.96 6.88-6.96 15.52-12.72 21.12-12.88zm68 19.2c-6.32 0-12.96 1.04-19.92 3.6-25.92 11.28-6.64 39.68 17.28 43.36 21.84 3.52 55.76-4.8 46.8-24-4.4-9.44-21.68-23.04-44.16-22.96zm-63.28 50.56c-6.24-.08-12.16 3.52-16.08 12.4-11.52 31.6 7.44 58.4 19.52 63.92 19.2 9.04 27.52-24.88 24-46.72-2.4-15.68-15.52-29.36-27.44-29.6zm122.64 5.12c-11.84.16-30.8 5.84-55.6 30.72-44.32 44.08-27.92 70-27.92 70 9.04 20 31.36 23.76 45.68-13.68 4.16-10.88 5.28-16.8 13.52-24.96 8.08-8.08 14.08-9.28 24.88-13.36 37.44-14.4 33.68-36.8 13.6-45.68 0 0-4.88-3.2-14.16-3.04zm-62.8 2.4c-3.04 0-5.6.88-7.04 3.36-4 8.48 10.8 9.44 23.92 7.12 5.2-1.28-7.76-10.24-16.88-10.48zm-15.2 13.6c-.8-.08-1.76.16-2.8.64-9.92 5.6 5.44 30.8 7.2 23.92 1.92-11.44 1.44-24.24-4.4-24.56z" fill="#fff" stroke-width=".8"/></svg>