<svg height="512" viewBox="0 0 512 512" width="512" xmlns="http://www.w3.org/2000/svg"><circle cx="256" cy="256" r="246" stroke="#fff" stroke-width="10"/><path d="m255.576 92.8752c-44.528 25.7064-122.9472 43.112-172.576 32.0744.9328 128.02 44.712 299.3056 173.4504 333.8 132.5792-35.524 173.008-205.684 174.024-333.8-49.0176 10.768-135.5056-9.3312-174.8992-32.0744zm2.048 35.9744c25.4928-.272 51.0536 4.068 76.476 13.8752l28.224 116.9h-51c7.5568 23.7728 5.1744 56.1024-7.924 79.876l-13.8752-39.9248-15.8496 43.3736-15.8504-40-15.824 39.5-15.376-42.8744-13.848 39.424c-11.6224-21.1648-19.0736-52.0176-7.9256-79.376h-51.5256l28.2504-116.8976c25.1464-8.7168 50.5568-13.6024 76.048-13.8752zm-138.224 33.7504 9.2 2.1248c9.032 2.076 19.94 2.2576 31.6752 1.0752l-3 15.6504c-7.808.4576-15.412.3144-22.624-.576 1.24 47.3072 9.7416 99.9856 28.648 144.1504 6.6936 15.6344 14.6184 30.1344 23.9256 43l-2.624 20.7264c-14.336-16.7616-25.8992-36.5344-35.024-57.8504-21.2016-49.52-29.7656-107.7256-30.1256-158.824l-.0504-9.476zm279.3.024-.0752 9.4512c-.3904 51.0696-8.3064 109.0824-29.248 158.5248-9.4416 22.288-21.656 42.9016-37.076 60.176l-2.9504-19.752c10.42-13.6688 19.096-29.3 26.2752-46.248 18.664-44.0592 26.6304-96.584 27.8264-143.976-7.444.816-15.404.792-23.6256.1248l-3.2992-15.4496c12.536 1.36 24.0544 1.2752 32.976-.7504l9.2-2.1zm-209.424 33.1256-8.9008 41.0256 59.7488-5.3256c-10.228-20.86-28.5472-30.9392-50.8496-35.7zm137.324 0c-21.224 6.3416-39.668 16.3056-50.8504 35.7l59.7504 5.3256zm-68.6752 47.0504-5.9496 7.8752-18.476 24.376 11.9248 9.024 12.5008-16.5 12.5 16.4992 11.9264-9.024-18.4504-24.376-5.976-7.8752zm-45.5488 110.224 11.6 45.4512 18.3744-38.0504 15.4744 47.476 15.476-47.9504 17.376 38.5256 12.624-44.9504c12.4688 14.7136 16.6 31.6448 14.624 52.6-38.912 30.2544-77.56 34.3168-119.124 0 .1872-19.2984-.504-35.4056 13.576-53.1z" fill="#fff" stroke-width=".8"/></svg>