<svg height="512" viewBox="0 0 512 512" width="512" xmlns="http://www.w3.org/2000/svg"><circle cx="256" cy="256" r="246" stroke="#fff" stroke-width="10"/><path d="m256 42-25.6 89.6 25.6 25.6 25.6-25.6zm-153.6 64 25.6 64 51.2 12.8zm307.2 0-76.8 76.8 51.2-12.8zm-153.6 64-51.2 38.4-102.4 25.6c64 12.8 102.4 76.8 153.6 102.4 51.2-25.6 89.9808-88.1704 153.6-102.4l-102.4-22.648zm-31.6096 42.1456 22.6736 7.0904-5.96 16.764 14.896 41.916 14.896-41.916-5.96-16.764 22.6736-7.0904c11.9384 8.776 19.5904 22.424 19.5904 37.8264 0 26.6176-22.824 48.028-51.2 48.028s-51.2-21.4104-51.2-48.028c0-15.4032 7.652-29.0512 19.5904-37.8264zm-96.3904 85.8544-51.2 38.4-12.8 51.2 25.6-25.6 51.2-38.4s-12.8-22.088-12.8-25.6zm256 0-12.8 25.6 51.2 38.4 25.6 25.6-12.8-51.2zm-217.6 51.2-12.8 51.2 38.4-38.4zm89.6 0-38.4 12.8 38.4 64 38.4-64zm89.6 0-25.6 12.8 38.4 38.4z" fill="#fff" stroke-width=".8"/></svg>