<svg height="512" viewBox="0 0 512 512" width="512" xmlns="http://www.w3.org/2000/svg"><circle cx="256" cy="256" r="246" stroke="#fff" stroke-width="10"/><path d="m212.77539 56.099609c-3.87996.04465-7.6916.324815-11.39062.84961 40.51249 34.28096 4.14905 53.044031-5.88477 57.578121-30.55412 13.8512-66.12455-18.566523-75.06445-50.810543-10.76563 32.60614-35.562643 99.666963 8.42773 126.826173-26.98569 30.10146-26.95522 27.91263-49.203124-5.96094-6.374869 31.15765-2.143504 84.94802 11.835938 123.80078 1.539019-16.67274 3.802777-32.81689 8.472656-45.79297l.82227-2.26367 2.09765-1.2832c34.59782-20.5203 64.9249-27.15882 88.46289-30.25195-2.26327-9.2794-3.54492-19.23667-3.54492-29.57227 0-2.26326.0749-4.52702.15039-6.71484l-61.9082-30.70508 26.75195-11.24024-34.20508-34.09961 67.70118 38.47461-22.0293 9.20313 24.14258 23.08594c1.88606-19.91674 8.44911-37.79637 18.33203-51.67774 11.84445-16.67275 28.96925-27.61133 48.20703-27.61133s36.3626 10.93858 48.20703 27.61133c9.95839 13.9568 16.52214 31.98828 18.4082 51.98047l30.25196-31.1582-28.74219-8.22266 63.44726-52.908202-32.36523 45.666012 34.09961 10.78711-66.54102 37.49414c.30178 4.75286.45363 8.90292.30274 13.20313 4.67742-.67898 9.42999-1.13158 14.10742-1.20703 4.37564 0 8.67661.30149 12.59961.98047 11.16544 3.16859 30.77943 34.55364 34.02344 43.53125-2.18783 10.78824-9.80686 19.16232-16.89844 26.2539l33.87305 72.34766c4.45109 9.50574 2.11214 21.42668.37695 30.4043-1.8106 9.05307-7.01626 17.7284-16.37109 20.74609-17.87982 3.77212-30.55381-5.8089-40.96485-17.35156.15089 11.46723 4.5049 50.66658 4.20313 61.83203 28.62809-5.04952 43.55242-10.02728 66.71289-27.95899 20.67118-24.21696 21.27475-52.96053 18.78515-83.8164-18.63424 19.23777-34.02529-10.78708-43.30468-31.38282 22.10457 20.14308 52.88603-32.36588 44.73828-80.49804-4.07388 11.91987-32.13919 20.37041-44.51172-20.89649 38.02291-9.80751 41.04061-59.14747 45.64258-82.95703-15.99374 20.26378-25.12239 31.73145-49.49024 18.30274 29.2716-21.38788 5.35691-55.268892-20.14258-68.652347 17.35172 25.446671-43.22832 67.747687-61.18359 50.162107-10.05031-34.998367-53.9312-56.558608-91.4375-56.126951zm42.17383 65.414061c-14.10771 0-27.15883 7.92015-37.11719 21.87695-4.14933 5.73363-7.62002 12.5234-10.33594 19.99219 16.97451 9.58116 34.25016 18.93637 43.15235 35.98633-1.05618 3.99843-1.80978 8.1473-2.94141 12.07031l-33.49609-7.99609c5.35641-9.50573 20.97158-8.7514 29.94922 2.41406-5.73361-8.52498-14.40814-15.08934-29.34571-15.84375l-7.8457-25.19726c-3.54577 10.33559-5.58398 22.02982-5.58398 34.40234 0 22.02914 6.41344 41.86936 16.44726 55.82617 9.95836 13.95682 23.00948 21.87891 37.11719 21.87891 14.1077 0 27.15881-7.92209 37.11719-21.87891 1.05619-1.4334 1.96261-2.94232 2.94336-4.45117-1.65973-12.90062-2.94306-29.72425 2.33789-39.38086 2.26327-3.54579 7.46911-4.60079 10.93945-5.73242.60354-14.18315-1.66074-30.10112-5.96094-42.17188l-7.54297 26.4043c-12.90062.98074-20.97391 6.18627-26.55664 13.12695 6.11083-3.3949 19.31317-4.82805 27.46094-6.63867.82987 4.30021 2.11345 8.60016-2.11133 13.50391-10.03381-3.31946-22.33049-1.05724-30.85547 2.11133-.90532-4.07387-2.49067-8.3734-3.54687-11.84375 8.60042-17.50259 26.02867-27.31066 42.92773-37.41993-2.64048-7.16701-6.03672-13.57938-10.03515-19.16211-9.95838-13.9568-23.00949-21.87695-37.11719-21.87695zm87.87109 93.80469c-11.24504-.1-25.40048 1.6814-34.38281 4.72266-1.65974 4.97919-2.26326 14.86144-.60352 24.9707 1.58428 10.33558 4.9794 20.59525 7.69532 25.80078 5.20552 1.88605 10.41164 3.84708 15.61718 5.80859l18.85938 89.02344c7.24245 8.14775 18.33332 20.29334 29.57422 16.89844 10.7128-5.50729 8.2239-24.89663 6.9414-34.40235l-36.66601-78.38476c5.80906-8.90218 15.76723-15.91745 18.55859-23.53711-3.923-9.95839-13.35289-23.61301-23.38672-30.85547-.72141-.0236-1.45736-.0383-2.20703-.0449zm-117.51953 7.89062c5.8845 0 16.67212 11.31618 30.02539 10.48633 11.99532-.67899 22.18112-16.06991 29.80078-6.9414 8.29866 10.03381-3.01883 25.57575-8.60156 30.17773 0 0-10.78795-11.08964-20.97266-10.25976-10.03382.75442-18.93554 12.37109-18.93554 12.37109-11.91989-7.16702-21.35108-21.57645-14.63672-33.72266.82986-1.50885 1.96235-2.11133 3.32031-2.11133zm-29.72461 18.78516c-22.55723 2.79137-50.62085 8.45023-83.51367 27.53711-7.59704 29.42247-8.05763 59.67454-10.88672 86.60742l-18.015624 31.08203c2.112379 10.86369 5.626771 25.19756 17.705074 24.2168 13.55697-1.88605 27.00159-10.10992 31.76954-21.87891-1.83325-8.14776-4.63156-14.55956-7.67188-21.12304 3.22892-25.04682 3.20647-49.79152 10.05664-69.0293l2.17969-5.88477c22.01405 4.97918 36.04625 1.9614 52.94531-10.10937l-.90625 14.33398c-2.56504 38.77732-9.05254 79.74165-7.61914 114.21875l.0898 73.32618c24.18474 7.89825 49.46644 11.92191 74.90821 11.92187 24.30687-.00022 48.47419-3.67319 71.68359-10.89453l.50586-74.35352c1.13164-37.57024.22784-75.66865-7.91992-116.33203-.5281-2.79135-.98168-5.73376-1.50977-8.90234l-13.27734-4.97852c-2.8668-4.52653-5.20599-9.73228-6.71484-13.95703-11.6181 13.80593-27.15928 22.70899-44.43555 22.70899-19.23778 0-36.36258-10.94055-48.20703-27.61329-4.45107-6.18626-8.22377-13.2768-11.16602-20.89648zm-20.89648 66.53906c-9.8075 3.01769-20.21917 2.71587-28.74414 1.20703-5.5073 18.18158-5.58369 36.51539-7.16797 56.28125 3.77212 9.4303 6.79146 16.44646 7.84765 25.04688-3.09313 7.99688-7.54466 15.84185-12.42578 20.89648 7.13039 14.65471 20.11686 20.47278 34.68299 27.95899-1.34724-8.68557-1.57636-16.42332-.98377-27.95899-1.35796-32.81738 3.84877-69.10541 6.79102-103.43164z" fill="#fff" stroke-width=".754422"/></svg>