<svg height="512" viewBox="0 0 512 512" width="512" xmlns="http://www.w3.org/2000/svg"><circle cx="256" cy="256" r="246" stroke="#fff" stroke-width="10"/><path d="m88.659807 75.685664-13.375071 12.822206 6.534965 8.25077c-2.713133 4.78148-4.83507 9.59979-6.290448 14.33605-.08709.28471-.160778.57277-.242842.85832v23.81277c1.165642 2.9476 2.885634 5.6624 5.2546 8.02635 8.283428 8.26751 20.835859 8.63848 32.747679 4.9657 2.47364-.76202 4.96905-1.71497 7.47116-2.82786l32.56932 41.12824c-1.61448 3.44669-2.96854 6.88165-4.02783 10.27139-4.48002 14.32433-4.00271 29.02047 5.53512 38.5784 9.53951 9.55458 24.22057 10.04026 38.48629 5.58537.81813-.25624 1.64128-.53342 2.46359-.82064l54.76676 69.15724c-.44382 1.29293-.86753 2.5825-1.24771 3.86035-5.14993 17.29706-4.59725 34.40822 6.40601 45.43241 9.87697 9.89624 24.70793 11.36334 39.95422 7.67549l81.44607 103.32314 11.98618-10.54909-1.93939-2.44768c2.78347-8.3119 7.15128-17.2937 12.95605-26.3358l12.64886 14.79296c8.26816-7.63024 13.78014-11.2686 26.8956-25.91937 7.76482-10.30096 18.98292-19.81614 28.61628-29.69192l-21.57777-16.28641c4.59056-7.08597 8.43081-14.22469 11.44205-21.26627l14.56802 11.18748 9.65834-11.30118-18.85285-15.491c4.75301-18.59501 3.10001-36.41962-8.56311-48.05762-12.6973-12.67133-32.68655-13.46936-52.94796-7.09434-2.33044.73272-4.68099 1.57429-7.04242 2.49877l-74.94023-57.55861c.69503-1.91175 1.32558-3.81011 1.87574-5.69423 4.73961-16.2453 4.14842-32.42779-6.30552-42.9035-10.45393-10.4757-26.67913-11.07862-42.69834-6.07105-5.11978 1.59941-10.33754 3.78834-15.56032 6.51989l-49.82785-38.27108c2.26597-4.09482 4.11995-8.18126 5.51838-12.18983 4.32929-12.41844 4.6609-25.4532-3.8637-33.995379-8.52292-8.543017-21.55768-8.225648-33.97277-3.905571-6.46128 2.248383-13.12185 5.672457-19.71208 10.12568l-49.56156-38.064245zm102.050293 27.126436c3.57816-.0276 6.03756.90187 7.37068 2.2375 2.3698 2.37399 3.46008 8.33618.16329 17.78944-.84743 2.43093-1.96786 5.00506-3.34117 7.66376l-26.18508-20.11151c4.06551-2.4033 7.99704-4.26063 11.6112-5.51838 4.13502-1.4403 7.59677-2.03987 10.38025-2.05997zm-98.17855 7.47451 18.10011 22.85815c-.65986.23614-1.31469.46056-1.95613.65818-8.759068 2.70057-14.44911 1.54079-17.081016-1.08609-2.632743-2.62772-3.789174-8.29013-1.10535-17.02658.532578-1.73339 1.219235-3.54466 2.043223-5.40533zm65.91907 11.95202 27.95448 21.47059c-.4413.57445-.9094 1.14722-1.36996 1.71916l-26.58368-23.18975zm-14.32768 27.99049 18.79095 20.59552c-.39357.551-.78714 1.10284-1.16899 1.65635l-17.61861-22.25271zm54.71484 3.03301 44.27095 34.00208c-1.81545 1.30381-3.62002 2.67713-5.41203 4.10571l-40.84185-35.62829c.67242-.82399 1.34149-1.64965 1.98293-2.47866zm-25.06801 29.45926 32.34573 35.44992c-1.87407 1.18909-3.74144 2.29444-5.58536 3.28507l-28.51134-36.00344c.55854-.90856 1.14554-1.82047 1.75014-2.73239zm117.87891 1.8121c5.71768.0796 10.07376 1.73172 12.86226 4.52692 4.76054 4.76975 6.22681 14.1937 2.36478 27.44702l-35.57553-27.32393c2.13366-.896 4.2288-1.6798 6.25862-2.3137 4.82586-1.50729 9.15264-2.24838 12.92925-2.33212.39357-.008.77877-.0109 1.16062-.005zm-35.45327 12.77852 44.59251 34.25246c-1.64798 3.25576-3.54717 6.57349-5.65069 9.91131l-45.39891-39.60252c2.14957-1.62286 4.30584-3.15276 6.45793-4.56041zm-91.68378 3.86873 20.81743 26.28975c-9.34105 2.24838-15.95891.84576-19.41397-2.61432l-.002-.002c-3.85197-3.86036-5.17337-11.66899-1.67644-22.85228.0837-.26964.18422-.54682.27466-.82064zm52.32326 28.73911 47.53509 52.09549c-2.47616 3.8436-4.74212 7.69558-6.74934 11.535l-47.22023-59.6303c2.15209-1.23096 4.29914-2.56826 6.43448-4.00103zm96.58584 11.34658 65.65781 50.4291c-5.09466 2.84209-10.18765 6.0945-15.22118 9.72708l-56.76978-49.52304c2.31788-3.53628 4.43982-7.08848 6.33399-10.63314zm112.34378 52.14658c7.87479.0955 14.06307 2.36143 18.13193 6.42024 5.39612 5.3844 7.6286 14.51442 5.82821 26.39275l-39.80684-30.57466c5.17337-1.40011 9.94564-2.12529 14.24897-2.22912.54011-.0126 1.07185-.0151 1.59773-.008zm-150.41975.63055 42.1373 46.18187c-5.53094 3.49441-11.0175 6.31976-16.24782 8.39899l-32.8088-41.43138c1.91175-4.27318 4.23131-8.68621 6.91849-13.14948zm117.43928 8.17959 52.47483 40.30342c-2.5624 6.66559-6.10036 13.66615-10.52009 20.7295l-58.70498-51.21121c5.62221-3.84361 11.25448-7.13454 16.75024-9.82255zm-130.1508 22.86317 21.98977 27.76941c-8.06404.72015-14.16188-1.10368-17.83634-4.78483-4.37283-4.3812-6.12464-12.23756-4.15343-22.98375zm65.56904 26.89015 60.95169 66.79833c-5.44636 7.95685-9.9448 16.02172-13.37055 23.98778l-64.46788-81.40738c5.62054-2.52472 11.28462-5.67078 16.88674-9.37873z" fill="#fff" stroke-width=".837387"/></svg>