<svg height="512" viewBox="0 0 512 512" width="512" xmlns="http://www.w3.org/2000/svg"><circle cx="256" cy="256" r="246" stroke="#fff" stroke-width="10"/><path d="m241.51627 122.59152-14.77611 15.10067 75.79883 24.8252-102.28431 2.28029-25.48474-10.63997-34.74529 20.12523 155.94394 11.32654-47.90481 50.64283h84.55589c10.15932-8.27095 27.49587-22.33054 39.96541-32.27359-1.81161-3.65116-3.18632-7.57084-4.11118-11.60535-2.30366-10.04787-2.2138-21.10212.44108-32.34849-3.53293-.18937-6.4102-1.22752-6.4102-1.22752l-103.91546-23.87855zm166.85653 5.72252c-7.90227 5.11723-15.54334 14.38296-20.2431 26.43431-4.69967 12.05041-5.45976 24.33074-3.27306 33.86845 2.18661 9.53867 6.8935 15.89003 13.21151 18.65893 6.31803 2.7689 13.88009 1.79544 21.78236-3.3218 7.90219-5.11627 15.54422-14.38192 20.24301-26.43335 4.70071-12.05128 5.46266-24.33143 3.27597-33.86916-2.18764-9.53779-6.89357-15.88908-13.21158-18.65799-1.98127-.86739-4.1026-1.37079-6.2623-1.48661-4.81749-.26913-10.08959 1.28928-15.52281 4.80722zm-198.16474-6.2281-25.80931 28.01053 13.36342 5.58005 22.45128-24.37164s-.45529-5.67953-2.36975-7.44631c-1.92031-1.7721-7.63564-1.77263-7.63564-1.77263zm-92.68254 58.12033c-1.00499-.002-2.00994.0337-3.01473.1061-12.05772.86882-23.973007 6.99486-32.810375 16.02654-11.831346 12.09176-17.93294 29.01299-11.850851 45.04404 4.344042-2.64165 8.103544-4.05333 12.805822-5.49892 2.641403-.65166 5.183695-.95133 7.637721-.8988.859301.0183 1.70258.084 2.536198.18725l25.932055-28.18112 1.66237-1.80385c-.0131-.68836-.0115-1.3829.0166-2.08472.0911-2.29134.40069-4.66074.90087-7.07806 1.13308-5.1884 3.16955-10.60892 5.16395-14.74074-1.84331-.45214-3.70759-.74427-5.58006-.91128l-.93834-.0686c-.81971-.053-1.63967-.0962-2.46129-.0978zm36.74262 2.58822-28.35799 30.77767-24.68371 26.82254c-3.123384 3.3668-2.945105 7.96287-.43692 10.32163 2.55297 2.40095 7.33345 2.27669 10.45688-1.09021l24.69412-26.8371 35.67946-38.73371zm13.56106 36.51168c-3.44579 2.0453-6.92577 3.74572-10.36949 5.05367-3.52296 1.29644-7.51899 2.36743-10.86466 2.79212-.53556.066-1.0639.10205-1.59371.14355l-1.91204 2.07432-24.69412 26.83709-1.41061 1.53545c.13356.69536.23844 1.40168.31417 2.12009.25556 2.42311.17813 4.962-.24136 7.62524-.82054 4.69724-2.65255 9.60774-4.42326 13.27187 3.57195 1.02553 7.1418 1.50803 11.24333 1.43558 12.82651-.60511 24.26589-7.28275 32.66474-16.9919 11.02225-12.74139 16.4497-30.50196 11.28701-45.89499zm68.94633 159.85793c15.17591-14.22656 25.29488-25.41759 25.29488-25.41759l113.18866-83.97794-41.10141-24.66085h-94.46421l-111.99729 118.40751-14.22911 3.63461s-10.99162 25.40652-16.050257 55.44301l20.478267 1.46834c12.01341-24.34639 25.44998-49.63871 25.44998-49.63871l136.11358-103.86307 17.891 4.75866 23.65525 6.29432-53.31082 50.0469-9.57698-10.35418s-29.24651 32.44225-40.31312 56.43582z" fill="#fff" stroke-width="14.9134"/></svg>