<svg height="512" viewBox="0 0 512 512" width="512" xmlns="http://www.w3.org/2000/svg"><circle cx="256" cy="256" r="246" stroke="#fff" stroke-width="10"/><path d="m247.47203 90.438864c-12.86549.287936-25.29819 7.102409-32.20166 19.058716-2.98668 5.17062-5.43937 15.57818-7.44444 27.83987-31.74533 7.3441-66.19725 42.08395-81.47266 82.37223 25.73096 9.64148 51.42092 12.37512 73.5649 9.97828-51.75422 86.14855-43.13797 182.10174 41.63722 182.11483 7.90514 0 15.13406-.794 21.70335-2.34536 50.44281 21.62133 87.94248 12.21195 107.15563-11.72509 19.55693-24.3637 20.02199-60.95507 2.89157-89.38041-15.68288-26.02239-23.22505-46.50158-22.712-61.0493.51043-14.5486 7.41477-24.55305 26.06514-33.91967l-7.30745-14.56256c-21.88484 10.99041-34.34983 27.61738-35.06444 47.9081-.71547 20.2916 8.65028 42.86749 25.03119 70.0486 13.80957 22.91443 12.85938 52.69656-1.63599 70.75535-12.59936 15.69859-35.54258 24.65164-72.72029 12.70668 46.37157-30.78729 36.11409-117.49077-17.36862-192.12103 7.06402 2.27294 13.07925 3.68208 17.12344 3.68208 21.0411-.002 38.11829-17.05189 38.11829-38.09212 0-20.71128-16.55192-37.54242-37.13757-38.0642 2.93171-15.46999-3.97176-31.79244-18.37726-40.110283-6.26303-3.614899-13.11066-5.249151-19.8501-5.098203z" fill="#fff"/></svg>