<svg height="512" viewBox="0 0 512 512" width="512" xmlns="http://www.w3.org/2000/svg"><circle cx="256" cy="256" r="246" stroke="#fff" stroke-width="10"/><path d="m187.442 89.6954c-25.6865 0-48.965 4.27-66.4055 11.5486-8.7206 3.64-16.0174 8.0192-21.4375 13.3672-5.4194 5.348-9.0468 12.0092-9.0468 19.334 0 .546.028 1.0864.0672 1.624h-.07v49.175c0 7.322 3.6309 13.9818 9.0524 19.3284s12.7204 9.7258 21.441 13.3658c17.444 7.28 40.7211 11.5514 66.395 11.5514 25.6746 0 48.951-4.2714 66.395-11.5514 8.722-3.64 16.0202-8.0192 21.441-13.3658 5.4222-5.3466 9.051-12.005 9.051-19.3291v-14.4921c6.489.2968 12.397 1.085 17.7149 2.261-.5586 2.6271-.6895 5.376-.4459 8.085.658 7.3192 3.8115 14.8778 9.1329 21.637 5.3214 6.7585 11.928 11.599 18.8888 13.9545 1.6919.5726 3.4398.9912 5.201 1.2334-2.3079 3.8864-5.754 7.7385-10.5084 11.3372-3.073-3.9242-7.63-6.608-12.5272-8.0199-3.0898-.8911-6.3952-1.3531-9.8252-1.3804-.49-.003-.9814.001-1.477.0154-3.9571.112-8.0598.7924-12.173 2.051-8.225 2.5151-15.127 6.923-19.8429 12.5615-2.975 3.556-5.1289 7.8302-5.7589 12.3165-2.7839.1134-5.628.1848-8.575.1848-5.4355 0-10.647.3486-15.6282 1.0066-3.325-3.1255-7.714-5.1114-12.2976-6.006-1.8032-.3521-3.6645-.5586-5.5664-.6195-.7126-.0231-1.4322-.0252-2.156-.007-5.0659.126-10.3691 1.2502-15.603 3.3684-7.973 3.227-14.462 8.225-18.6641 14.2541-4.018 5.7631-6.0046 12.9969-3.6925 19.7505-7.0469 8.8529-11.6081 18.844-13.4652 29.008-.4368.2065-.8715.4256-1.2978.672-6.5534 3.7835-9.6796 11.032-10.0751 18.3708-.3962 7.3388 1.645 15.2698 5.9472 22.7199 4.3008 7.4494 10.1479 13.1838 16.702 16.5109 6.552 3.3271 14.3941 4.2441 20.9475.4606.1449-.084.2779-.1771.4186-.2639 8.2684 3.311 17.976 5.257 29.0311 5.5069v8.932c0 7.3234 3.6309 13.9825 9.0531 19.3298 5.4215 5.3459 12.719 9.7244 21.441 13.3644 17.444 7.28 40.7211 11.5528 66.395 11.5528s48.951-4.2728 66.3936-11.5528c8.722-3.64 16.0216-8.0185 21.4438-13.3651 5.4215-5.348 9.051-12.0071 9.051-19.3305v-50.5743c0-.0742.007-.147.007-.2205s-.007-.147-.007-.2205v-.2772h-.008c-.161-7.1274-3.7366-13.6094-9.0335-18.8356-5.4201-5.348-12.7169-9.7279-21.4375-13.3672-17.4412-7.28-40.7176-11.5486-66.4041-11.5486-25.6872 0-48.965 4.27-66.4062 11.5486-8.7206 3.64-16.0174 8.0192-21.4375 13.3672-5.4208 5.348-9.0489 12.0092-9.0489 19.334 0 .546.028 1.0871.0672 1.6261h-.07v27.1446c-7.987-.1981-14.8729-1.3601-20.7396-3.2634.7805-2.324 1.232-4.7838 1.365-7.2569.3962-7.3395-1.645-15.2705-5.9465-22.7206-4.3008-7.4501-10.15-13.1831-16.702-16.5102-1.9145-.9716-3.9389-1.729-6.0081-2.233 1.5666-6.0228 4.3624-12.0442 8.3902-17.668 2.6068 1.554 5.544 2.625 8.568 3.2144 7.2135 1.4084 15.351.4844 23.324-2.744 7.9744-3.227 14.462-8.225 18.6655-14.2541 3.0261-4.3421 4.8965-9.5179 4.6522-14.6944 3.1626-.2786 6.4386-.427 9.8322-.427 3.9879 0 7.8421-.105 11.5801-.2975 3.0548 4.445 7.945 7.4459 13.2286 8.9684 7.0616 2.0356 15.2495 1.8298 23.4759-.686s15.127-6.9244 19.8429-12.5622c3.108-3.7149 5.3109-8.2124 5.8261-12.9185 11.942-7.7924 19.6168-17.7681 22.3874-28.4732 5.901-4.6851 7.945-12.278 7.2898-19.5741-.6566-7.3192-3.8108-14.8778-9.1322-21.637-5.3214-6.7585-11.928-11.599-18.8888-13.9545-2.611-.8834-5.3515-1.4056-8.071-1.4672-.9079-.021-1.813.009-2.709.0952-3.4741.3325-6.825 1.5001-9.7335 3.6995-7.4249-1.9978-15.7465-3.234-24.899-3.6015v-22.9971c0-.0742.007-.147.007-.2205 0-.0742-.007-.147-.007-.2205v-.2772h-.008c-.161-7.1274-3.7352-13.6094-9.0314-18.8356-5.4194-5.348-12.7162-9.7279-21.4368-13.3672-17.4412-7.28-40.719-11.5486-66.4055-11.5486zm0 13.083c24.2116 0 46.109 4.172 61.3669 10.5392 7.6286 3.185 13.5639 6.93 17.2879 10.605s5.152 6.9328 5.152 10.0219c0 3.0884-1.428 6.3455-5.152 10.0198-1.8445 1.82-4.235 3.6568-7.1015 5.4355-17.8962-8.75-43.2579-13.8838-71.5561-13.8838-28.2968 0-53.6515 5.124-71.5519 13.8831-2.8658-1.778-5.2556-3.6148-7.1001-5.4348-3.724-3.675-5.152-6.9321-5.152-10.0205 0-3.0891 1.428-6.3469 5.152-10.0219s9.6579-7.42 17.2872-10.605c15.2586-6.3679 37.1567-10.5399 61.3676-10.5399zm-.002 45.8206c21.1519 0 40.5426 3.234 55.2762 8.274-14.735 5.0519-34.1201 8.2362-55.2734 8.2362-21.1596 0-40.551-3.185-55.2888-8.239 14.7336-5.0379 34.139-8.2712 55.286-8.2712zm134.0619 21.4074c1.169.049 2.513.3045 4.0418.8218 4.0782 1.3804 8.9082 4.7075 12.8051 9.6565 3.8976 4.9504 5.9976 10.4258 6.3826 14.714.385 4.2889-.7266 6.8502-2.4094 8.1746-1.6821 1.3251-4.4331 1.8046-8.512.4242-4.0782-1.3804-8.9082-4.7061-12.8051-9.6551s-5.9969-10.4258-6.3819-14.714c-.385-4.2889.7266-6.8502 2.4094-8.1746.84-.6629 1.9495-1.113 3.3572-1.2264.3521-.028.7231-.035 1.113-.0196zm-19.635 62.468c2.3394.0154 4.48.315 6.2902.8358 4.137 1.1928 6.1236 3.1556 6.7494 5.2038.6265 2.0475.077 4.7852-2.6852 8.0878-2.7622 3.304-7.609 6.6031-13.6332 8.4455-6.0242 1.841-11.8888 1.8179-16.0265.6251-4.137-1.1921-6.1236-3.1556-6.7494-5.2031-.6265-2.0482-.0791-4.7859 2.6838-8.0885 2.7622-3.3026 7.6111-6.6031 13.6346-8.4455 3.0121-.9205 5.985-1.3762 8.722-1.4518.3416-.009.679-.014 1.0136-.0105zm-81.6172 21.4914c1.2334.0329 2.3898.1575 3.4468.364 4.2259.8246 6.377 2.6054 7.1799 4.5906s.497 4.76-1.9649 8.2936c-2.4626 3.5322-7.0021 7.245-12.8408 9.6082-5.8401 2.3639-11.6844 2.8539-15.911 2.03-4.2259-.826-6.3749-2.6068-7.1785-4.592s-.4991-4.76 1.9628-8.2922 7.0028-7.245 12.8415-9.6082c4.3792-1.7731 8.7619-2.4934 12.4621-2.394zm105.371 44.2239c24.213 0 46.109 4.172 61.3669 10.5406 7.63 3.185 13.5632 6.93 17.2865 10.605 3.724 3.675 5.1548 6.9335 5.1548 10.0219s-1.4308 6.3455-5.1548 10.0198c-1.8452 1.82-4.2364 3.6582-7.1036 5.4369-17.892-8.736-43.2544-13.8838-71.5519-13.8838-28.0364 0-53.2014 5.061-71.0619 13.6416l.357.7434c-3.2375-1.9341-5.9269-3.9452-7.9464-5.9381-3.724-3.675-5.1548-6.9321-5.1548-10.0205s1.4308-6.3469 5.1548-10.0212c3.724-3.675 9.6572-7.4221 17.2865-10.6064 15.26-6.3679 37.156-10.5399 61.369-10.5399zm-149.8252 20.3231c1.4091.0889 3.0674.5565 4.9875 1.5309 3.8395 1.9495 8.1445 5.9304 11.2945 11.3862 3.15 5.4551 4.445 11.1755 4.214 15.4749-.2324 4.3001-1.6982 6.6759-3.5525 7.7469-1.855 1.071-4.6452 1.1515-8.484-.798-3.8402-1.9481-8.1466-5.929-11.2966-11.3855-3.15-5.4551-4.445-11.1755-4.214-15.4749s1.6982-6.6759 3.5532-7.7462c.9268-.5355 2.0874-.8239 3.4972-.735zm149.8231 25.4989c21.1575 0 40.544 3.227 55.2811 8.274-14.7371 5.0519-34.1229 8.2362-55.279 8.2362-21.161 0-40.5538-3.1864-55.293-8.2411 14.7392-5.0491 34.1334-8.2691 55.2909-8.2691z" fill="#fff" stroke-width=".7"/></svg>