<svg height="512" viewBox="0 0 512 512" width="512" xmlns="http://www.w3.org/2000/svg"><circle cx="256" cy="256" r="246" stroke="#fff" stroke-width="10"/><path d="m256 69.6c-57.352 0-104 46.648-104 104s46.648 104 104 104 104-46.648 104-104-46.648-104-104-104zm-6.664 24.9016-9.4192 28.1968 41.716-4.3704-4.1488-13.9656 11.6992 3.2392v15.4936l18.2744 1.192-3.5744-13.904 9.6056-5.5632c19.6392 16.4224 32.1112 41.1136 32.1112 68.78 0 13.3344-2.9 25.9768-8.1 37.3376l-20.904 3.5376v25.1824a89.7104 89.7104 0 0 1 -12.8792 9.832l-8.9728-13.9584-17.4816 4.768 4.912 19.0288a89.8824 89.8824 0 0 1 -26.1744 3.872c-24.8104 0-47.2296-10.028-63.4376-26.2608l15.968-2.2016 10.728-21.0576-34.1696-17.0832 24.236-20.6608-21.056-17.48-21.5144 7.1704c2.4896-28.3584 18.1224-52.8824 40.7952-67.4544l4.5568 36.4448zm31.104 51.3736-28.936 18.5408 25.2848 22.4744 18.2616-5.3376-1.6864 21.9128 33.432-8.428-12.6432-28.6544-20.2264.2808 17.98-15.4512-31.4656-5.3376zm-30.0584 32.3064-15.452 6.7416 10.956 8.1472zm-36.2896 2.5232-10.7264 12.712 29.7176 20.8864zm47.808 7.028-10.956 20.5096 26.408 17.9792-9.272-13.2048 11.5184-13.7656zm-162.564 21.916c-7.0544-.1096-14.2744 8.8744-14.316 31.9056-.0624 35.3224-3.4848 45.2928 12.8616 85.2408 11.9864 29.2944 17.3616 51.8104 55.7184 70.0048 4.544 16.0176 2.7304 19.784-.352 33.472-2.8768 12.7792 26.7384 15.128 48.4272 4.3624 23.2728-12.6944 21.32-47.6456 17.1624-71.3472-4.8352-27.5632-20.048-33.292-33.2344-45.0656-13.692-19.58-16.8784-55.0504-39.0848-69.3592-4.6376-2.988-28.296-6.0216 4.2096 75.1536-42.8568-10.6144-35.0504-59.8184-38.1496-96.248-.9232-10.8488-7.0184-18.024-13.2424-18.12zm313.328 0c-6.224.096-12.3192 7.2704-13.2424 18.12-3.0992 36.4288 4.7072 85.6328-38.1496 96.2472 32.5064-81.176 8.8472-78.1416 4.2096-75.1536-22.2064 14.3088-25.392 49.7792-39.0848 69.36-13.1856 11.7728-28.4 17.5016-33.2344 45.0648-4.1576 23.7016-6.1104 58.6528 17.1624 71.3472 21.6888 10.7648 51.304 8.4168 48.4264-4.3624-3.0816-13.688-4.8952-17.4544-.3512-33.472 38.3568-18.1944 43.732-40.7104 55.7184-70.0048 16.3464-39.948 12.924-49.9184 12.8616-85.24-.0416-23.032-7.2616-32.016-14.316-31.9064z" fill="#fff" stroke-width=".8"/></svg>