<svg height="512" viewBox="0 0 512 512" width="512" xmlns="http://www.w3.org/2000/svg"><circle cx="256" cy="256" r="246" stroke="#fff" stroke-width="10"/><path d="m174.75195 67.980469c-21.27206.345537-22.31244 27.344114-22.84961 52.136721-19.6946-6.85898-15.61068-21.042395-12.45898-38.705081-27.12719 5.344256-32.05354 47.984041 10.79297 69.578121-1.76079 15.87369-2.69099 35.66397 9.98242 53.16602 13.72345 4.38902 22.98286 1.4889 42.89453 2.18945 14.54076.5117 12.40746 31.63508 15.75977 47.71094-14.87224 10.09296-28.69044 22.82283-40.27149 41.14453-32.76295-.21001-38.88976-28.60011-36.32812-63.25-10.22304 1.37367-10.01976 6.80129-13.57032 11.16211-6.04324-16.95351-12.28836-43.97879-15.75585-51.65039-10.08199 11.94778-26.505154 36.39131-14.445317 72.66016l-18.384765-5.90821c6.534565 7.99444-5.93243 38.99359 88.417972 63.24805-3.01143 12.69378-2.36411 25.38746-1.3125 38.08203l-31.95313-15.75781c-33.34273 18.79542-41.428209 53.82144-51.646483 87.7168a246 246 0 0 0 13.75 12.51953h56.279293c-4.38354-22.15672-13.35128-44.1424-7.87695-64.78125 54.90635 26.39529 72.06849-19.93561 94.54492-56.02735 7.97642-9.48802 54.11883 15.8457 44.64649 28.01368-56.50492 72.58157-33.2068 77.15827-19.69727 92.79296h62.1543c-19.347-17.04028-35.99305-36.98411-29.32617-73.53515 18.64142 4.49403 58.06225-1.91546 56.97851-11.8086-4.59747-41.94927-27.7776-66.43013-78.42578-81.42382-1.89086-18.35854 4.84994-30.55217 14.44531-40.70703 14.11918 54.45028 39.84879 38.4692 77.91211 27.57617 21.43579-6.13571 22.1883 27.47793 24.51172 49.02343 9.85474-7.11287 26.34552-11.60835 9.19141-50.77343 26.46895-9.57813 25.57858 13.6959 32.67578 30.0664 5.04335-12.98293 27.71593-59.95525-46.02539-49.54492 6.14746-20.48605 23.72762-22.22335 38.39062-16.42773-7.42005-16.96997-27.87625-45.64679-76.25195 14.89453-20.57303-2.05934-33.77306-12.41498-41.14453-29.32617 26.90465-32.40171 51.66208-21.84381 77.03711-23.63672l9.1914-22.32227 1.42383-7.93359-10.57226 13.75195-18.86524-19.38672-17.07031 20.57227-22.76172-26.26172 10.50586-12.69531 11.81836 14.88281 15.75586-17.07031 19.69726 16.63281 15.10352-14.44531 3.32031 4.17968 13.9668-28.2539h-118.18164c-19.00893-18.295069-32.6104-25.736433-45.08399-29.326174 1.27653 19.551204 1.99643 39.103104 20.13477 58.654294-37.38628-9.21688-57.05435 17.55461-80.97656 37.64258-8.34707-12.56527-17.42151-34.14035-10.94336-46.39844 10.82642-20.48449 27.36959-5.3253 40.80859-4.96484-5.65144-13.60199-12.91359-35.059204-49.43554-17.12695-4.20409-18.304471 12.48399-25.172434 28.27148-30.941409-12.31725-6.876223-21.65736-9.722601-28.74805-9.607422z" fill="#fff"/></svg>