<svg height="512" viewBox="0 0 512 512" width="512" xmlns="http://www.w3.org/2000/svg"><circle cx="256" cy="256" r="246" stroke="#fff" stroke-width="10"/><path d="m328.32978 59.437224c-21.76631 36.20891-18.09591 70.104616-9.30403 99.979956 8.79189 29.96069 21.85168 56.76314 21.85168 81.51699h.0854c5.37757-1.19501 10.32834-1.62181 15.27911-.76822-.25608-29.61927-14.34017-57.18994-22.53454-85.01668-8.27974-28.16817-11.43799-55.730308 7.76758-87.807885zm-28.42425 30.959386-131.02469 141.23352c6.48722 0 13.31586.76823 19.80308 2.47539 6.14578-2.47539 11.77942-6.82865 16.47412-12.88907 3.49968-4.52398 6.40185-9.90154 8.53581-15.96197l83.05343-89.48944c.0854-8.26267 1.0243-16.730189 3.15825-25.36843zm-122.48888 38.29165c-10.49905 0-20.22987 5.37756-27.74138 15.02302-7.51152 9.64547-12.37693 23.38813-12.37693 38.75258 0 15.36446 4.86541 29.10712 12.37693 38.75259 1.19501 1.53644 2.47538 2.98753 3.75575 4.2679l60.5189-65.12823c-2.13395-6.3165-5.20684-11.95014-8.79188-16.64484-7.51152-9.64546-17.24234-15.02302-27.74139-15.02302zm225.77219 102.00294v16.21804h-29.02175c5.03613 4.18254 7.68223 9.64546 8.70653 15.36446h20.31522v16.21804l54.62919-23.90027zm-192.22645 16.21804c1.19501 1.70716 2.13395 3.67039 2.81681 5.80435.68287 2.04859.42679 4.35326-.17071 5.71899-.59751 1.6218-1.53645 2.6461-2.73146 3.84112h112.24591c.0854-.17072.0854-.34144.0854-.51215 1.6218-6.99937 2.13395-10.75512 6.82865-14.85231zm-49.76378.42679c-7.25544 1.10965-12.29157 3.84111-17.9252 5.71899l-63.574721-.85358c-19.640901-.0854-27.032913 29.36319-6.768898 30.21677 13.776798.25607 23.63566-1.70716 33.759129-3.41433 10.12347-1.70716 20.62252-3.2436 33.76767-1.10965 7.9383 1.87788 15.44982 6.3165 21.5956 10.24297 7.42616 1.87788 14.93767 1.70716 20.31523.17072 4.86541-1.36573 7.42616-3.49968 8.45045-5.20685-4.2679-6.48721-10.49904-12.12085-8.19438-19.03485 2.56075-5.46292 8.10902-7.76759 12.80372-10.32834.0854 0 .17072-.0853.25608-.0853-2.21932-1.62181-5.46292-3.24361-9.64547-4.35327-8.70653-1.96323-16.64483-2.73146-24.83921-1.96323zm178.39844 11.69406c.76823-.85358-.68286 1.45109-1.10965 4.86541-.51215 3.41432-.68287 7.85295-.34143 12.29157 1.10965 5.88971.5975 13.82801 5.2922 18.26663 5.54828 3.49968 20.65666 4.35327 23.2174-1.0243 1.10966-10.49904 3.49969-20.05915.68287-30.04605-.68287-2.56074-1.6218-3.6704-1.87788-3.84111-7.3408-3.92648-19.37629-7.51152-25.86351-.51215zm-16.81554 18.01056c-43.53264.76822-75.02978.17071-117.62347.51215 4.86541 13.05979-7.93831 22.44918-18.69343 25.52207-.0854 0-.17072 0-.25607.0854l111.6484 145.96236c-1.19501-8.36509-1.28037-16.47411-.76822-24.41242l-64.58639-84.45325c.59751-12.20621-7.28514-31.29238-8.05336-43.0718 34.65539 2.30467 70.59115 1.28037 102.08829-1.45109-2.13395-5.97506-3.32896-12.80371-3.75575-18.43735zm-189.15357 15.44982c-10.66976 35.59433-2.30467 78.78553-6.23114 117.79418v-.17071l-3.92647 53.13443c30.62114 16.146 67.89545 34.07823 111.02282 37.8097l-21.90896-96.15098c2.98753-11.01119 8.40311-19.13616 10.19563-28.69627l-54.75256-71.5995c-15.10839-.25608-21.85168-10.66977-34.39932-12.12085zm207.24949 18.09591c-.51215 24.41242-13.23051 50.70272-21.85168 80.15127-6.14578 20.91273-9.81618 43.87406-3.92647 68.20113h15.70589c-6.57257-22.36383-3.24361-43.02049 2.90218-63.93323 7.9383-26.8878 21.33952-53.60489 22.44918-82.02914-5.12149.25608-10.41369-.42679-15.2791-2.39003z" fill="#fff" stroke-width=".853581"/></svg>