<svg height="512" viewBox="0 0 512 512" width="512" xmlns="http://www.w3.org/2000/svg"><circle cx="256" cy="256" r="246" stroke="#fff" stroke-width="10"/><path d="m256 44.865319c-57.25686 85.885291-114.51373 78.728181-171.770588 93.042401 0 229.02745 57.256858 286.28431 171.770588 329.22696 114.51373-42.94265 171.77059-100.19951 171.77059-329.22696-57.25686-14.31422-114.51373-7.15711-171.77059-93.042401zm0 28.628431a8.0517465 8.0517465 0 1 1 0 16.103493 8.0517465 8.0517465 0 0 1 0-16.103493zm.26034 26.97514a240.80984 240.80984 0 0 0 12.3818 12.65913c31.26672 31.65679 74.22457 41.05228 116.91583 50.48266 2.44415 1.05926 5.9225.45448 7.93007 1.75171-2.40031 58.00836-4.94019 117.77826-28.91024 171.54335-11.34849 28.14532-32.43959 51.53296-57.58788 68.12135-13.82395 9.71935-29.38619 16.30657-44.62815 23.36348-5.89208 4.09118-12.25386-.4008-18.10927-2.20081-39.04918-15.96661-75.54685-43.49643-93.98714-82.54471-26.00267-55.48369-29.47744-117.93393-32.04148-178.38465 51.37283-7.87998 100.71662-24.87095 136.37959-62.99866zm-.26034 37.43883-24.61329 61.53324c-15.44146-3.3218-34.03026-9.51001-61.272-18.59059 0 28.62843-14.31422 42.94264-28.62844 57.25686 0 14.31422 57.25687 28.62843 71.57108 28.62843 11.78508-7.85671 20.32619-13.54304 27.41709-17.08759-3.98651 25.53387-17.88919 79.13077-41.7313 102.97289 28.62843 14.31421 42.94264 28.62843 57.25686 42.94264 14.31422-14.31421 28.62843-28.62843 57.25686-42.94264-23.84211-23.84212-37.74479-77.43902-41.7313-102.97289 7.0909 3.54455 15.63201 9.23088 27.41709 17.08759 14.31421 0 71.57108-14.31421 71.57108-28.62843-14.31422-14.31422-28.62844-28.62843-28.62844-57.25686-27.24174 9.08058-45.83054 15.26969-61.272 18.59059zm-153.87782 7.15711a8.0517463 8.0517463 0 1 1 0 16.10349 8.0517463 8.0517463 0 0 1 0-16.10349zm307.75564 0a8.0517463 8.0517463 0 1 1 0 16.10349 8.0517463 8.0517463 0 0 1 0-16.10349zm-297.01998 134.19577a8.0517463 8.0517463 0 1 1 0 16.10349 8.0517463 8.0517463 0 0 1 0-16.10349zm286.28432 0a8.0517463 8.0517463 0 1 1 0 16.10349 8.0517463 8.0517463 0 0 1 0-16.10349zm-229.02745 114.51373a8.0517463 8.0517463 0 1 1 0 16.10349 8.0517463 8.0517463 0 0 1 0-16.10349zm171.77058 0a8.0517463 8.0517463 0 1 1 0 16.10349 8.0517463 8.0517463 0 0 1 0-16.10349zm-85.88529 44.73192a8.0517463 8.0517463 0 1 1 0 16.10349 8.0517463 8.0517463 0 0 1 0-16.10349z" fill="#fff" stroke-width=".768627"/></svg>