<svg height="512" viewBox="0 0 512 512" width="512" xmlns="http://www.w3.org/2000/svg"><circle cx="256" cy="256" r="246" stroke="#fff" stroke-width="10"/><g fill="#fff"><path d="m257.15625 56.550781c-109.8663 0-199.105469 89.241109-199.105469 199.107419.0018 10.94498.898816 21.67533 2.603516 32.14453 4.539073-20.1392 9.88574-39.48851 15.810547-58.23046.0018-.007-.0035-.0165 0-.02539 12.643485-88.51855 88.640986-156.439458 180.689456-156.439458 37.2048 0 71.78163 11.111645 100.61914 30.181638l10.91992-10.919919.94922-.949219c-32.01587-21.987805-70.75824-34.869141-112.48633-34.869141zm3.57031 38.484375c-76.74693 0-140.97894 54.192414-156.52148 126.341794l3.32226 6.89258c8.96385-15.05611 18.32243-29.43719 27.9375-43.35742 24.5693-43.77818 71.41217-73.31836 125.26172-73.31836 25.5882 0 49.5888 6.66995 70.37305 18.36523l12.02148-12.01953c-24.07856-14.52595-52.26231-22.904294-82.39453-22.904294zm0 36.603514c-53.95499 0-99.8111 35.33059-115.67968 84.0625l.33203 1.74219c12.45742-12.73209 25.18836-24.41384 38.09765-35.43945 19.18673-20.79486 46.66376-33.8086 77.25-33.8086 15.32486 0 29.87313 3.2688 42.98828 9.14453l12.3418-12.34179c-16.60232-8.53295-35.40697-13.35938-55.33008-13.35938zm193.34571 94.41797c-4.9112 21.34596-10.7291 41.77562-17.16602 61.57813-15.09333 85.6337-89.74469 150.56836-179.75 150.56835-38.42249 0-74.03748-11.84127-103.42578-32.06835l-11.82422 11.81835c32.54006 23.16483 72.31463 36.80665 115.24805 36.80665 109.8663 0 199.10742-89.23987 199.10742-199.10352 0-10.05985-.74524-19.93846-2.18945-29.59961zm-43.77344 61.96875c-9.32091 15.7924-19.06209 30.83864-29.10156 45.38086-25.58822 39.35163-69.94993 65.3418-120.47071 65.3418-28.42235 0-54.88893-8.23119-77.16406-22.4336l-11.9043 11.89844c25.47821 17.10311 56.12076 27.0918 89.07032 27.0918 73.53688 0 135.59008-49.74289 154.33203-117.36914zm-40.45313 6.11719c-11.04245 11.55545-22.29851 22.26284-33.72461 32.36523-19.0742 19.63594-45.78537 31.81641-75.39257 31.81641-17.20396 0-33.41984-4.12641-47.73438-11.42774l-12.17578 12.16993c17.6906 10.06223 38.13515 15.81445 59.9082 15.81445 49.28302 0 91.78021-29.45329 110.86328-71.68359z"/><path d="m410.43056 100.05437c-1.30831-1.305981-2.75501-2.470788-4.2829-3.452045l-4.0266 7.273995 1.70582-8.578563c-3.7103-1.807209-7.72417-2.447493-11.36951-1.232574l-.55779.557697c.49141 5.4569 3.49 11.35854 8.04615 15.91469 4.55613 4.55612 10.45941 7.55353 15.91788 8.04485l.55779-.55769c1.996-5.98918-.99907-12.97797-5.99154-17.96966zm-29.00947 5.04392-109.28451 109.2687 4.7376 4.73683 28.45806-28.45356-22.23917 34.67007 13.00756 13.00622 109.28521-109.26729c-1.32527-.51109-2.62086-1.09986-3.88328-1.75638l-18.71738 9.64596 13.13958-13.13965c-1.75806-1.30386-3.42081-2.74186-4.96494-4.28646-4.10073-4.09938-7.45587-9.01977-9.53873-14.42444zm-118.27039 118.25318-11.45215 11.45032 34.35357 11.44821-22.90286-22.89853zm14.44577 33.4756-35.945-11.97977-7.92611 7.92416 35.94641 11.97976zm-17.97109 17.97035-12.60299-4.2003-7.71007 24.51018zm-24.66232-8.21922-11.28267-3.76124-8.38788 8.38655 13.85836 13.85758zm-4.5985 37.50651-5.51424-5.35314-18.54511-18.54288-109.406668 109.38729c-2.397035 7.18999 2.400587 15.81304 9.209718 20.70095l43.07328-43.06649-37.51948 46.0039c3.0713 1.07444 6.25558 1.30386 9.19983.32262l109.50125-109.45155z"/></g></svg>