<svg height="512" viewBox="0 0 512 512" width="512" xmlns="http://www.w3.org/2000/svg"><circle cx="256" cy="256" r="246" stroke="#fff" stroke-width="10"/><path d="m287.04 72.456-45.44 27.04 6.24 10.536 28.16-16.76-8.16 52.328 5.04 8.48 47.12-28.056-6.24-10.536-29.84 17.712 8.08-52.304zm-118.16 27.184a179.2 179.2 0 0 0 -92.08 156.36 179.2 179.2 0 0 0 179.2 179.2 179.2 179.2 0 0 0 171.92-128.96 166.4 166.4 0 0 1 -120.72 52.16 166.4 166.4 0 0 1 -166.4-166.4 166.4 166.4 0 0 1 28.08-92.36zm195.6 41.64-5.52 13.2 35.28 14.72-54.64 28.72-4.4 10.56 58.96 24.64 5.52-13.2-37.36-15.6 54.64-28.72 4.4-10.56zm-92 51.2-78.24 28 6.48 18.16 48.48-17.36-28.32 78.32 5.2 14.48 81.12-28.96-6.48-18.16-51.36 18.4 28.32-78.32z" fill="#fff" stroke-width=".8"/></svg>