<svg height="512" viewBox="0 0 512 512" width="512" xmlns="http://www.w3.org/2000/svg"><circle cx="256" cy="256" r="246" stroke="#fff" stroke-width="10"/><path d="m374.65 128.8191c-6.2265 0-11.445 4.347-12.775 10.171-6.0151 2.59-10.6365 7.4319-13.321 13.1691-3.6778 7.8561-4.7936 17.2536-5.0106 27.5191-.3675 17.4328 2.093 37.611 3.1724 55.321-1.2474 10.2662-3.4069 19.9626-6.3441 28.9842 1.988 12.5538 2.373 25.5409.658 38.6316-3.5119 26.8002-25.564 42.7938-49.154 47.5559-21.7336 4.389-45.7184.294-61.3592-13.5835-24.3264 15.827-53.6522 20.0046-78.6842 11.6158-29.4336 11.3736-52.171 27.1782-61.3382 43.0052h225.1809c72.1735 0 96.5664-75.5216 77.9842-157.871-.0126.0161-.0308.0266-.0434.042-3.997-28.5971.686-49.315 10.4342-62.2335 1.3692.4865 2.8392.7665 4.375.7665 7.2331 0 13.0816-5.8702 13.0816-13.104 0-7.2324-5.8485-13.1026-13.0816-13.1026s-13.104 5.8702-13.104 13.104c0 .7119.0665 1.3958.175 2.0776-14.8694 17.6155-20.1978 45.9956-13.475 82.5342-7.2072 3.3852-14.8064 2.0146-22.0052-4.725-.9002-19.6014-3.7548-41.489-3.3908-58.7335.1981-9.3835 1.449-17.304 3.7625-22.246 1.47-3.143 2.9554-5.1408 5.229-6.3224 2.3485 2.2372 5.5328 3.6309 9.0335 3.6309 7.2331 0 13.0816-5.8702 13.0816-13.104 0-7.2324-5.8485-13.1026-13.0816-13.1026zm-162.5092 22.3559c-1.5372-.007-3.0786.0252-4.6158.0875-24.6001.994-49.0994 10.8325-69.3441 28.875-39.711 35.3906-41.601 101.213-6.4309 140.7875 27.0536 26.81 74.7992 24.353 106.05-6.8908 26.3984-26.327 28.427-66.4839 6.146-88.9-15.47-15.561-42.6972-17.3719-60.0901.8316-3.8738 4.053-6.286 11.214-6.2342 18.8342.0532 7.6209 2.5571 15.4021 6.6724 20.3441 2.5151 3.0191 7.4375 5.9332 12.95 7.3276 3.2809.8309 6.7172 1.106 9.8658.875 9.2365-.1596 18.3092-6.307 18.3092-18.6368 0-11.004-7.2324-17.0996-15.3559-18.396 5.4411-.4879 10.3481.4326 14.4158 2.667 5.957 3.2746 9.583 9.0608 10.8276 15.0731 2.464 11.8965-3.8346 25.9875-17.7849 30.3401l.0224.0434c-.1134.042-.2359.0469-.35.0875-.0322.01-.0546.035-.0875.0441-7.4004 2.6271-15.5414 2.4969-23.0776.5901-7.6839-1.9432-14.8666-5.7169-19.7974-11.6375-6.5926-7.9142-9.6208-18.3554-9.6908-28.6118s2.807-20.6171 9.8434-27.979c22.421-23.464 58.2841-21.7 78.8375-1.0269 27.986 28.154 24.6974 76.5464-6.1901 107.3618v.021c-1.8389 1.8389-3.7688 3.5392-5.7092 5.2066 11.9119 8.89 30.8154 12.3235 47.9724 8.8599 19.7792-3.9942 36.0668-15.8669 38.7625-36.4448 6.6444-50.7185-23.9505-103.1394-50.575-125.475-19.3641-16.247-42.2814-24.1542-65.3401-24.2592z" fill="#fff" stroke-width=".7"/></svg>