<svg height="512" viewBox="0 0 512 512" width="512" xmlns="http://www.w3.org/2000/svg"><circle cx="256" cy="256" r="246" stroke="#fff" stroke-width="10"/><path d="m250.85156 66.333984c-1.78134-.021246-3.58403-.018843-5.41406.003907-61.1862 2.514-98.87109 37.091489-114.08789 75.337889-9.3648 23.536-9.86122 48.37062-1.44922 67.82422 8.412 19.456 25.21624 34.04099 53.52344 38.27539 15.08 2.2544 29.92235 4.71161 44.25195 7.59961 47.904-20.12 56.97438-57.72834 69.30078-92.15234 6.188-17.2816 13.02201-33.94982 27.09961-45.32422 10.2064-8.248 23.83221-12.9692 41.97461-13.25-22.808-16.380002-49.61699-28.435412-79.27539-34.474612-12.054-2.4549-23.45442-3.691121-35.92383-3.839844zm117.34961 53.164066c-.75442-.0079-1.49541-.0073-2.22461.00195-15.232.194-25.13155 4.09558-32.50195 10.05078-10.2544 8.2848-16.42223 21.93602-22.42383 38.69922-10.5728 29.5232-21.25356 68.12221-60.60156 92.22461 33.628 8.376 63.14079 19.9976 84.15039 38 17.0912 14.6448 28.27458 34.06997 29.92578 58.20117 1.232 17.9936-2.64117 38.37685-12.20117 61.74805 80.8448-59.0408 103.89197-133.74623 89.95117-199.42383-7.8664-37.0576-27.71779-71.324-56.27539-98-6.6129-.9674-12.51789-1.44668-17.79883-1.50195zm-249.82617 14.50195c-15.4836 2.9908-35.214965 12.94236-50.523438 24.77539-17.097623 13.216-40.064226 39.99973-54.699218 57.97656a246 246 0 0 0 -3.152344 39.24805 246 246 0 0 0 202.64648 242.15039c12.40978-14.17031 31.13305-36.53081 39.90235-52.05078 9.8007-17.34534 15.85677-37.39496 20.95117-55.97656-27.636-.9184-53.89919-10.07166-75.65039-24.84766-39.1296-26.5856-64.39038-71.81455-57.80078-119.37695-10.7536-8.1664-18.76265-18.65541-23.87305-30.47461-10.312-23.8448-9.32038-52.58423 2.19922-81.42383zm116.625 19.54883v.00195c18.7296 0 33.92383 15.17364 33.92383 33.89844 0 18.7256-15.19423 33.90039-33.92383 33.90039s-33.90039-15.17479-33.90039-33.90039c0-18.7248 15.17079-33.90039 33.90039-33.90039zm-80.77539 100.94922v.00195c-2.8 39.1408 18.70539 75.78703 52.02539 98.42383 35.7544 24.292 84.2314 31.95216 130.125 7.72656-4.8456-.7904-9.47479-1.8362-13.90039-3.125-10.5712-14.0928-16.04637-34.05398-14.95117-50.55078.196-2.9496.61237-5.76738 1.20117-8.42578-4.28-2.4864-8.84058-4.83923-13.67578-7.04883-1.328 4.616-2.11802 9.48581-2.44922 14.47461-.912 13.7344 1.60721 28.56062 7.34961 42.07422-28.7104-16.356-44.33137-44.34716-46.57617-71.10156-22.0864-5.972-46.65644-10.56025-72.14844-14.37305-10-1.496-19.008-4.26577-27-8.07617z" fill="#fff"/></svg>