<svg height="512" viewBox="0 0 512 512" width="512" xmlns="http://www.w3.org/2000/svg"><circle cx="256" cy="256" r="246" stroke="#fff" stroke-width="10"/><path d="m347.248 113.3488c-8.5152.068-17.136 1.5488-25.4528 4.688-11.704 4.424-13.6824 13.8192-10.0048 19.116 11.288 23.628 14.7616 49.8912 3.024 72.08-13.7344-20.7384-35.112-33.932-58.8144-33.932-23.7008 0-45.0776 13.1968-58.8128 33.936-11.7376-22.1872-8.268-48.448 3.0176-72.072 3.6848-5.296 1.7104-14.696-10-19.1152-33.264-12.552-71.4 1.4048-88.128 26.256 24.528-6.96 53.592-22.332 82.44-5.724.54.312 1.0736.588 1.5976.836-10.664 26.4824-12.4672 56.708 4.3384 81.912-2.8344 6.1392-5.0688 12.7312-6.6104 19.6704-21.4752-13.676-31.4816-38.7944-33.216-65.368l-.136.008c-.0144-6.9008-10.8208-14.6816-24.368-9.616-33.2984 12.456-52.8344 48.0608-49.0664 77.784 13.6024-20.9496 30.9264-52.388 62.328-59.7504 3.4944 28.1576 16.3168 55.4696 42.4688 69.6688-.2984 3.2144-.4576 6.48-.4576 9.7968 0 2.3864.0776 4.68.2264 6.8912-20.044-4.588-36.94-18.916-49.4448-37.128-.0304-.048-.0672-.096-.0992-.144-.2824-.4128-.576-.816-.8536-1.232l-.064.04c-4.6184-5.184-15.1568-6.3216-23.144 3.3728-22.608 27.432-20.064 58.9328-11.088 85.6928 1.32-25.2536 6.4784-51.496 30.98-73.336 14.164 17.6904 33.128 31.5944 55.544 35.3072 1.8688 7.9872 4.96 14.5616 9.0576 20.016-16.856 1.8912-34.648-2.4824-51.08-10.5984l-.024.0512c-5.8368-2.7704-13.992.6624-15.5216 12.9-4.38 35.064 11.352 69.8048 31.992 81.384-10.6672-19.1632-19.044-47.124-11.04-78.648.0184-.072.028-.1416.0456-.2136 17.9984 6.948 37.616 9.7712 56.16 5.432 3.872 2.824 8.2504 5.168 13.0304 7.0864-7.4304 1.9728-15.1 9.8064-15.728 21.032-1.452 26.328 22.548 36.8272 40.884 31.7632-14.676-6.84-21.672-30.24-10.956-41.712-.2784-3.1408-1.1408-5.588-2.4048-7.4096 8.5888 2.0096 18.0672 2.9696 28.1328 2.9696 11.136 0 21.5544-1.1704 30.84-3.6448-1.5416 1.8744-2.6 4.5392-2.9168 8.0848 10.716 11.472 3.7216 34.872-10.9544 41.712 18.336 5.064 42.336-5.436 40.8832-31.764-.6616-11.9552-9.3168-20.068-17.1656-21.344 4.488-1.8616 8.616-4.104 12.2864-6.7792 18.5384 4.3312 38.1504 1.5056 56.144-5.4416.0184.0776.028.152.048.2296 7.992 31.524-.3728 59.472-11.04 78.648 20.64-11.568 36.372-46.308 31.992-81.384-1.5296-12.24-9.688-15.672-15.524-12.8984l-.032-.0656c-16.4264 8.112-34.2096 12.488-51.06 10.6016 4.0912-5.4512 7.1808-12.02 9.048-20.0016 22.416-3.7096 41.3808-17.6208 55.544-35.312 24.5016 21.84 29.6592 48.0832 30.98 73.3248 8.976-26.76 11.52-58.248-11.088-85.692-7.9872-9.688-18.5256-8.5464-23.144-3.36l-.064-.0424c-.2776.416-.5704.82-.8528 1.232-.032.0496-.0688.096-.1.1456-12.5064 18.212-29.4032 32.5456-49.448 37.1304.1504-2.212.2288-4.5072.2288-6.896 0-3.3168-.16-6.5864-.4576-9.8024 26.1464-14.2 38.9776-41.5056 42.464-69.672 31.3968 7.376 48.72 38.8104 62.32 59.7472 3.768-29.724-15.768-65.3264-49.0672-77.7824-13.5424-5.0608-24.3472 2.728-24.3576 9.628l-.1456-.008c-1.7224 26.576-11.7328 51.6816-33.2024 65.3584-1.5408-6.9376-3.776-13.528-6.608-19.6656 16.8048-25.2064 15-55.4344 4.3336-81.9184.5248-.248 1.0592-.5248 1.6-.8376 28.848-16.608 57.924-1.224 82.44 5.724-12.5456-18.64-37.1328-31.1488-62.676-30.944zm-127.584 133.3872c15.564 0 28.176 12.6128 28.176 28.176 0 15.552-12.612 28.176-28.176 28.176-15.552 0-28.176-12.6112-28.176-28.176 0-15.552 12.612-28.176 28.176-28.176zm72.672 0c15.552 0 28.176 12.6128 28.176 28.176 0 15.552-12.612 28.176-28.176 28.176-15.552 0-28.176-12.6112-28.176-28.176 0-15.552 12.612-28.176 28.176-28.176zm-77.6048 7.176c-7.776 0-14.088 6.312-14.088 14.088s6.312 14.088 14.088 14.088 14.088-6.312 14.088-14.088-6.312-14.088-14.088-14.088zm72.6736 0c-7.776 0-14.088 6.312-14.088 14.088s6.312 14.088 14.088 14.088 14.088-6.312 14.088-14.088-6.312-14.088-14.088-14.088zm-55.3456 28.344c-3.888 0-7.0432 3.156-7.0432 7.044s3.1552 7.044 7.0432 7.044 7.0456-3.156 7.0456-7.044-3.1568-7.044-7.0448-7.044zm72.672 0c-3.888 0-7.044 3.156-7.044 7.044s3.1552 7.044 7.0432 7.044 7.0456-3.156 7.0456-7.044-3.1568-7.044-7.0448-7.044z" fill="#fff" stroke-width=".8"/></svg>