<svg height="512" viewBox="0 0 512 512" width="512" xmlns="http://www.w3.org/2000/svg"><circle cx="256" cy="256" r="246" stroke="#fff" stroke-width="10"/><g fill="#fff" stroke-width="52.8292" transform="matrix(.68144177 0 0 .68144177 -211.66345 -118.08392)"><path d="m809.40005 325.37265c8.1515 7.7275 10.2508 15.27381 7.1543 22.51367-3.9164 9.15641-19.111 6.8446-26.8399 13.125-9.0455 7.35032-15.5212 17.57633-21.4629 27.60352-5.2718 8.89682-6.274 20.08977-12.33786 28.46679-9.05891 12.51439-22.09755 21.77192-34.64062 30.79102-12.566 9.03556-29.97629 11.58535-40.28907 23.07617-11.31981 12.61284-25.76086 30.43481-20.3164 46.58203 4.85284 14.39291 10.11982 25.36457 39.76757 22.71875-20.7243-5.22574-23.73585-27.02766-16.46484-39.01367 11.38365-18.76532 44.32075-1.86919 66.12891-5.4375 19.77551-3.23577 40.82961-4.64975 58.30471-14.41992 11.7137-6.549 20.9496-17.27877 28.7031-28.23242 9.0216-12.74519 16.6256-27.14601 19.8809-42.41797 3.4955-16.39912 6.7111-35.36348-.918-50.29492-8.8528-17.32658-15.5669-31.68918-46.6699-35.06055zm-11.1992 50.98047c7.3538 10.45113 11.1499 20.62654 1.457 29.75586-11.1207-8.76404-10.256-18.82929-1.457-29.75586zm28.7558 25.26562c.7368-.006 1.5181.0361 2.3477.12696 1.638.17921 3.4691.55039 5.5371 1.11718-2.1892 13.48578-7.9935 13.9532-22.3946 11.94532 4.3214-8.54677 7.3871-13.12702 14.5098-13.18946zm-148.98437-139.58203c21.71587 24.09444 25.73306 70.77795 3.46875 94.60352 34.35181 7.49122 39.73275 35.02537 32.00196 75.71679 10.36541-7.46265 21.06967-15.01593 28.51758-25.32031 5.76166-7.97144 6.48478-18.71213 11.49218-27.17773 5.8903-9.95824 12.3814-19.98676 20.7188-27.99805-17.92733-43.08663-53.42871-78.61913-96.19927-89.82422zm222.45507 141.44336c-8.2836.003-16.5946.66334-24.834 1.87305-.5193 3.05225-1.1149 6.08487-1.8261 9.06054-4.1556 17.38634-12.2476 34.06011-22.6036 48.63086-5.5486 7.80688-11.8182 15.41932-18.9472 21.95313 2.2144 4.73828 3.5504 9.80984 3.8418 15.25781 30.3781-28.29221 56.5834-38.45 81.2461-13.32812 8.3138-31.53156 49.9702-52.98905 81.92765-47.43555-25.65625-24.05087-61.89425-36.02519-98.80465-36.01172z"/><path d="m423.7974 544.98551c2.6165-10.92315 8.1021-16.51436 15.9203-17.45264 9.8878-1.1865 15.4831 13.12832 24.7865 16.68155 10.8883 4.15846 22.9821 4.65359 34.6368 4.78565 10.3408.11711 20.5352-4.61144 30.8219-3.54846 15.3672 1.58806 29.9038 8.25109 43.9861 14.60416 14.108 6.3647 25.0214 20.16755 40.1291 23.35327 16.583 3.49683 39.2378 7.09216 50.4994-5.6965 10.0382-11.39914 16.9065-21.44631-.2087-45.79909 5.8365 20.56064-11.5388 34.06966-25.5545 33.7658-21.943-.47587-23.7791-37.4483-37.7734-54.55053-12.6901-15.50829-24.4417-33.03468-41.6404-43.28348-11.5285-6.86986-25.4387-9.5035-38.8016-10.7414-15.5484-1.44034-31.8219-.82519-46.6755 3.99162-15.9498 5.17237-33.9812 11.86975-43.0976 25.94247-10.5789 16.33004-19.6602 29.32592-7.0284 57.94758zm49.75-15.79144c5.374-11.59415 12.2881-19.96937 25.0408-16.13973-2.0295 14.01284-11.1786 18.29661-25.0408 16.13973zm7.5027-37.53606c-.3736-.63509-.7277-1.33277-1.0639-2.09665-.6638-1.50816-1.2579-3.27952-1.801-5.35386 12.7736-4.84699 16.0806-.054 21.5423 13.42163-9.5625.53094-15.0619.1661-18.6774-5.97112zm-46.3893 198.81529c10.0084-30.8537 48.4289-57.67445 80.1946-50.30577-10.6883-33.49515 10.4665-51.92226 49.5717-65.57292-11.6455-5.24537-23.539-10.73889-36.1868-12.03678-9.7843-1.00403-19.4475 3.74012-29.2827 3.63638-11.5692-.12203-23.4997-.72922-34.6064-3.94407-28.3504 37.0689-41.3718 85.58023-29.6904 128.22316zm11.266-263.37345c4.1444 7.1723 8.8717 14.03967 14.0391 20.57035 2.9029-1.07639 5.8271-2.07691 8.7597-2.94882 17.1348-5.09431 35.6207-6.42332 53.4173-4.74014 9.5353.90179 19.2627 2.52519 28.4856 5.43219 2.9963-4.28688 6.7204-7.97967 11.2928-10.95601-39.6909-12.1621-61.5904-29.77766-52.1656-63.69713-31.464 8.56582-70.875-16.78093-82.0442-47.2336-8.0005 34.24435-.2516 71.61454 18.2153 103.57316z"/><path d="m807.51909 768.99374c-10.768 3.19566-18.3529 1.24055-23.0746-5.06103-5.9715-7.96991 3.6279-19.97291 2.0534-29.80653-1.8428-11.5088-7.461-22.22992-13.1739-32.38918-5.069-9.01392-14.2613-15.47833-18.4841-24.91824-6.3083-14.10244-7.8062-30.02305-9.3455-45.39515-1.542-15.40026 4.955-31.75292.16-46.42947-5.2631-16.10966-13.4769-37.527-30.183-40.88554-14.891-2.9938-27.0263-3.91828-39.5588 23.08038 14.8877-15.3349 35.2746-7.04206 42.0193 5.24781 10.5593 19.24124-20.5417 39.31754-28.3555 59.98806-7.0855 18.74397-16.388 37.68435-16.6643 57.70331-.1853 13.41886 4.489 26.78227 10.0984 38.97383 6.5269 14.18553 15.1964 27.97119 26.7946 38.42635 12.4543 11.22675 27.2701 23.49372 44.0157 24.35244 19.4317.99654 35.2271 2.36326 53.6983-22.88704zm-38.5508-35.18903c-12.7279 1.14302-23.4381-.65717-26.4978-13.61613 13.1502-5.24879 21.4346.53269 26.4978 13.61613zm-36.2586 12.27045c-.3632.64108-.7903 1.29666-1.2838 1.96968-.9742 1.32895-2.2112 2.72914-3.736 4.23668-10.5845-8.63879-8.0871-13.89917.8523-25.36695 5.241 8.01583 7.6748 12.96093 4.1675 19.16059zm195.37379-59.23318c-31.72429 6.75922-74.16199-13.10354-83.66339-44.29777-23.6635 26.00392-50.1993 16.89692-81.5737-10.14385 1.2801 12.70802 2.4694 25.75477 7.6693 37.35703 4.0226 8.9755 12.9628 14.97207 17.7905 23.5414 5.6789 10.08027 11.1183 20.71599 13.8876 31.94203 46.2778 6.01782 94.8005-6.96104 125.88969-38.39884zm-233.72109 121.93c4.1392-7.1753 7.7228-14.70301 10.7949-22.4434-2.3837-1.97585-4.7122-4.00796-6.9336-6.11171-12.9792-12.29203-23.3731-27.63679-30.8138-43.89073-3.9866-8.70867-7.4444-17.94452-9.5383-27.38532-5.2107-.45141-10.2708-1.83018-15.1346-4.30181 9.3127 40.45431 5.007 68.22767-29.0805 77.02525 23.1502 22.96574 20.9047 69.76999.1165 94.66924 33.6568-10.19357 62.1459-35.58944 80.5894-67.56152z"/></g></svg>