<svg height="512" viewBox="0 0 512 512" width="512" xmlns="http://www.w3.org/2000/svg"><circle cx="256" cy="256" r="246" stroke="#fff" stroke-width="10"/><path d="m359.40835 67.167801-294.387933 68.293979 187.778993 198.38947-44.49125 44.51361 210.74948 39.8527-39.83032-210.85985-23.52459 23.53801 27.46287 63.28405-59.10266-65.25805-60.13923-59.0758 30.59425 59.94087-100.95917-85.60052 165.85031-77.018469zm-135.8616 144.076749c8.56266 0 15.50184 6.9414 15.50184 15.50407 0 1.83603-.32068 3.59748-.90609 5.23215l26.51129 25.512 24.65438-22.97645 9.50082 10.19584-12.9566 12.07364 103.1263 99.66157 14.10804 45.13408-45.12885-13.01105-104.81469-101.30221-13.49502 12.57329-9.50082-10.19436 24.29494-22.63937-26.41286-25.41653c-1.41916.42805-2.92332.66147-4.48194.66147-8.56116 0-15.50183-6.9429-15.50183-15.50407 0-8.56267 6.93992-15.50407 15.50183-15.50407zm51.36927 56.39112-9.66712 10.03998 103.32766 99.48708 9.66786-10.03999z" fill="#fff" stroke-width=".8"/></svg>