<svg height="512" viewBox="0 0 512 512" width="512" xmlns="http://www.w3.org/2000/svg"><circle cx="256" cy="256" r="246" stroke="#fff" stroke-width="10"/><path d="m331.68356 76.606091c-25.72273.125246-49.00851 14.193245-56.983 38.566529 16.31021-.60332 17.71999 41.17988 17.71999 41.17988l31.78416 4.78225c-10.24113 9.89976-38.20377 4.55696-38.20377 4.55696-13.08971 14.64917-25.29659 31.28547-36.47248 43.97195-12.18244 13.84347-26.88201 29.09901-43.54428 45.88729-5.18548 5.21068 31.76507-7.50024 26.22677-1.98866-18.76166 9.73786-32.30195 12.29317-47.16877 24.49089-23.91278 19.60707-48.00043 46.36383-61.97068 60.66094-5.88884 6.04082-33.878975 28.77139 15.63204 26.53072 1.83592 5.74297-1.23794 7.22148-5.72235 11.67916-3.30451 3.28617-13.80911.21613-17.00211 2.15973-16.932617 26.77127-13.17066 29.00126-20.948117 44.33012-3.247225 8.88557 31.830747-11.00025 49.109317-26.10305 10.67185-5.7888 19.2046-16.53549 26.7308-13.13706 32.92283 14.49796 99.14728 27.13404 107.93128 21.09246 14.02753-9.65767-7.88208-35.39185 2.92648-74.77477 17.92388 4.44241 33.46887 10.42977 50.98952 8.75117-1.2074 37.65544 2.71875 42.23683-2.96924 80.01752l45.15644 16.13455 1.45865-10.54584-25.82429-17.16631c11.12548-38.68795 12.83692-55.42735 11.62876-92.95601-.12219-4.10257-34.49451-18.57685-56.88906-25.30346l14.19935-23.22545c23.21094-34.20431 94.80568-47.391 97.70085-67.40207-9.94329-15.02643 2.30788-20.91298-19.1626-16.73405-4.80745 1.00655-10.51683 18.59288-13.76405 20.78239-5.98965 4.02925-31.04796 18.69293-39.67464 14.0344-1.45102-.78355 5.53372-25.53868 5.2313-34.1982-.0886-2.44764-.9088-5.05947-2.18875-7.6377.14128-.48876 11.63869-40.08016 41.85728-71.79941-33.58571 19.19467-49.89363 61.03821-49.91043 61.08021-1.68547-1.62972-3.41829-3.04179-5.07016-4.14151-1.46324-11.2263-3.68024-55.7649 52.38785-60.16072-16.36366-16.172743-36.43124-23.506492-55.20206-23.414849z" fill="#fff" stroke-width=".8"/></svg>