<svg height="512" viewBox="0 0 512 512" width="512" xmlns="http://www.w3.org/2000/svg"><circle cx="256" cy="256" r="246" stroke="#fff" stroke-width="10"/><path d="m230.53 48.1-52.11 52.164 12.24 61.236h130.68l12.24-61.236-29.52-29.556-24.21 12.492 14.67-22.077-13.05-13.023zm-29.43 57.096 40.5 20.304-3.6 15.3h-36.9zm109.8 0v35.604h-36.9l-3.6-15.3 28.8-14.445zm-146.7 18.594-19.8 9.9 9.54 15.39-21.69-9.36-40.95 20.52v14.4l82.62-11.79zm183.6 0-9.72 39.06 82.62 11.79v-14.4zm-137.16 54.09-56.97 4.23-5.94.9-8.28 56.07 45.18 22.59 40.05-13.32 5.04 15.3-46.35 15.48-39.96-19.98 18.36 76.05 86.13 12.24v-144.72zm90.72 0-37.26 24.84v144.72l86.13-12.24 18.36-76.05-21.42 10.71-17.64 34.74-16.92-30.78-30.33-10.17 5.04-15.3 40.05 13.32 45.18-22.59-8.28-56.07-5.94-.9zm-170.64 7.56-55.188 7.83-27.036 36.09 3.276 22.95 22.842 9.36-19.233 15.93 5.823 28.5743 57.096-11.34v-39.4643zm250.56 0 12.42 69.84v39.5543l46.8 9.36 12.33-12.33 10.71-62.5043-27.09-36.09-25.2-3.6-3.78 16.11-8.91-17.91zm-261.99 125.6843-55.188 10.98 25.2 97.82379 42.678-10.62zm273.42.09-12.69 98.09379 20.34 5.04 7.11-23.22 16.02 25.29 24.39-94.22379zm-230.4 40.3657-16.0549 124.5837c21.84152 11.72297 40.95794 15.30863 60.74858 20.90758l15.15632-33.17128 33.84-67.59 33.84 67.59 15.65733 33.06891c9.65933-1.93825 18.88088-4.52749 27.87588-7.45363l-12.96481-25.61528 7.5916-20.7 5.2342 22.67036 4.07339 22.30431c4.83435-1.97334 19.2804-7.52832 26.99019-11.29554l-14.60778-125.29913-93.69 13.41-37.71-5.4-5.49 30.96-13.77-33.75z" fill="#fff" stroke-width=".9"/></svg>