<svg height="512" viewBox="0 0 512 512" width="512" xmlns="http://www.w3.org/2000/svg"><circle cx="256" cy="256" r="246" stroke="#fff" stroke-width="10"/><path d="m255.64453 14.628906a241.02316 241.02312 0 0 0 -7.74414.125v99.390624l8.09961-14.0293 7.01562 12.15039 1.08399 1.87891v-99.367186a241.02316 241.02312 0 0 0 -8.44727-.148438 241.02316 241.02312 0 0 0 -.00781 0zm-51.75976 5.625a241.02316 241.02312 0 0 0 -15.66993 4.001953c6.14271 25.621826 20.79379 84.615331 31.08204 130.337891.50129 2.2338.96639 4.32688 1.46679 6.55078l11.94727-20.69531c-9.22138-40.942612-23.5323-97.783096-28.82617-120.195314zm107.09961.8125-31.3418 120.000004 11.98242 20.7539 34.91406-136.531248a241.02316 241.02312 0 0 0 -15.55468-4.222656zm-177.37891 26.746094a241.02316 241.02312 0 0 0 -13.70703 8.683594l79.09179 142.365236 9.44336-16.35938zm244.61719.310547-74.65625 134.378903 9.44531 16.35938 78.89844-142.021486a241.02316 241.02312 0 0 0 -13.6875-8.716797zm-290.755863 34.886719a241.02316 241.02312 0 0 0 -11.251953 11.724609l110.874996 124.734375 8.53711-14.78125zm336.744143.361328-107.83594 121.316406 8.5332 14.78125 110.5293-124.34375a241.02316 241.02312 0 0 0 -11.22656-11.753906zm-370.007815 39.955076a241.02316 241.02312 0 0 0 -8.470703 13.89649l131.779298 98.83789 8.16016-14.13086zm403.126955.34961-131 98.25195 8.1582 14.13086 131.29102-98.46679a241.02316 241.02312 0 0 0 -8.44922-13.91602zm-201.33008 8.8418-67.18945 116.37695c18.2673-8.1918 41.62765-12.91406 67.18945-12.91406s48.92305 4.72226 67.18945 12.91406zm229.77344 51.4707-146.22852 60.83008 8.21094 14.22461 142.29102-59.52149a241.02316 241.02312 0 0 0 -4.27344-15.5332zm-461.869143 5.44531a241.02316 241.02312 0 0 0 -3.949219 15.82813l144.289062 53.78125 8.21094-14.22461zm-9.207031 60.50586a241.02316 241.02312 0 0 0 -.06836 5.71289 241.02316 241.02312 0 0 0 .234375 10.62696l137.291019 13.70117 8.79297-15.22656zm481.927734.86133-145.57031 13.95313 8.79101 15.22851 136.55469-12.85156a241.02316 241.02312 0 0 0 .27539-11.47852 241.02316 241.02312 0 0 0 -.05078-4.85156zm-240.625 1.37891c-13.2633 0-23.8418 10.57564-23.8418 23.83984 0 7.6824 3.55339 14.45769 9.11719 18.80469-.81541-2.5004-1.23421-5.11221-1.24414-7.74219 0-13.96231 11.31699-25.28125 25.2793-25.28125 4.08293.006 8.10429 1.00144 11.71875 2.90039-4.0014-7.4835-11.8745-12.52148-21.0293-12.52148zm-34.36133 3.36328c-11.3904 2.3112-21.53859 5.6941-29.77539 9.8125-15.867 7.9335-23.58789 17.78236-23.58789 26.63476 0 8.8533 7.72089 18.69932 23.58789 26.63282s38.77022 13.17968 64.13672 13.17968 48.26972-5.24618 64.13672-13.17968 23.58789-17.77952 23.58789-26.63282c0-8.8524-7.72089-18.70216-23.58789-26.63476-8.2377-4.1184-18.38499-7.5013-29.77539-9.8125 3.6 6.003 5.67969 13.00746 5.67969 20.47656 0 22.0185-18.02252 40.04102-40.04102 40.04102s-40.04102-18.02252-40.04102-40.04102c0-7.47 2.07969-14.47446 5.67969-20.47656zm-75.48047 34.82422-126.855466 12.51562a241.02316 241.02312 0 0 0 3.761719 15.97461l112.935547-10.89258zm219.6836 0 10.1582 17.59765 111.17188 14.69727a241.02316 241.02312 0 0 0 3.99804-15.79492zm-210.38086 16.29101-51.40235 89.02735h303.88086l-51.40039-89.02735c-5.1867 10.8702-15.9075 19.83033-29.1582 26.45703-18.8163 9.4068-43.82556 14.88672-71.38086 14.88672s-52.56636-5.47992-71.38086-14.88672c-13.25186-6.62638-23.97392-15.58573-29.1582-26.45703zm230.25586 18.13477 12.75 22.08203 69.27734 23.26953a241.02316 241.02312 0 0 0 7.36719-14.84765zm-259.4375.00195-88.189456 34.58008a241.02316 241.02312 0 0 0 7.443359 14.35547l67.999997-26.85352zm-28.478519 49.32617-37.134765 23.21094a241.02316 241.02312 0 0 0 10.015625 12.84375l9.863281-6.16406 17.257812-29.88867zm316.398439.00391 17.2539 29.88477 9.40821 5.88085a241.02316 241.02312 0 0 0 9.99023-12.85742zm-315.740236 37.75977-14.623046 12.79687a241.02316 241.02312 0 0 0 11.791015 11.20508l27.431637-24.00195h-24.597652zm37.941406 0-28.98437 33.81445a241.02316 241.02312 0 0 0 13.14453 9.55859l37.17773-43.37304h-21.33594zm37.64844 0-28.95508 57.9375a241.02316 241.02312 0 0 0 15.0918 7.13867l32.52539-65.07617h-18.66016zm38.47851 0c-6.8418 22.86656-15.7409 59.75777-20.22265 76.3164a241.02316 241.02312 0 0 0 15.89648 3.75586c4.50003-15.49746 14.20632-56.55085 21.23047-80.07226zm35.3711 0 1.30664 84.70312a241.02316 241.02312 0 0 0 6.44726.08789 241.02316 241.02312 0 0 0 9.75-.19922l-1.30273-84.59179zm35.98633 0 21.7539 79.54882a241.02316 241.02312 0 0 0 15.78321-3.90625l-20.6875-75.64257zm35.40429 0 36.48242 63.01171a241.02316 241.02312 0 0 0 14.48438-7.21289l-32.30664-55.79882zm34.97071 0 36.92187 43.07421a241.02316 241.02312 0 0 0 13.12305-9.58593l-28.70703-33.48828h-21.33594zm34.67968 0 27.08008 23.69531a241.02316 241.02312 0 0 0 11.77149-11.22656l-14.25-12.46875z" fill="#fff"/></svg>