<svg height="512" viewBox="0 0 512 512" width="512" xmlns="http://www.w3.org/2000/svg"><path d="m262.33594 5-14.32032.078125c-64.42078.351383-127.13012 15.697209-171.826167 40.839844l-18.738281 6.273437 4.52539 13.50586c19.55242 58.339864 48.332848 100.151084 80.746098 134.425784l-1.82227 71.51562 62.27539 29.38867c-17.77081 57.74942-32.49018 123.73935-47.46094 188.52539l-4.0332 17.44727h228.35352l-3.7793-17.2832c-5.07098-23.18541-10.13541-46.46313-15.36133-69.46875 8.19248 13.48067 16.15049 28.06211 23.82031 43.99023l6.17383 12.82031 42.65821-20.5-6.1836-12.83984c-20.5504-42.67979-43.47565-77.20024-67.34766-106.29297l28.57227-22.28711-47.62305-104.71289 49.28516-34.49219-5.95898-11.14062c-17.21717-32.19265-34.99681-67.231462-67.22071-91.455079 34.56742-.101247 69.48541 3.771204 102.24219 11.783203l35.23633 6.701172c-40.26706-62.573723-130.22667-83.9875597-192.21289-86.3828129zm-14.24219 14.318359v.001953c63.39777-.344915 127.98157 14.695752 174.60156 51.96875-104.68268-25.604386-229.39909-12.244089-302.90429 43.746098 21.298 37.50898 47.60596 65.41394 76.74218 91.30273l29.46875-34.98437c20.39234-36.09302 40.04886-73.125671 72.83594-93.289067 35.1309 21.53197 53.76991 57.686107 72.89453 93.445317l-48.63086 34.03711 47.875 105.26757-31.39062 24.48633c26.59879 30.54413 52.18497 67.32623 74.94531 114.5957l-16.98437 8.16211c-20.72818-43.04679-43.65814-76.84856-67.63477-105.20117 11.74022 44.60295 22.03384 92.37065 32.42969 139.90235h-192.75391c16.02542-69.35009 31.674-139.85406 50.83594-199.3418l-65.05078-30.69531 1.73437-68.04493c-33.05434-33.97613-61.932514-74.74224-81.626951-133.505855l6.207031-2.076172c41.8396-23.964522 103.54097-39.434446 166.40625-39.777344zm30.22656 55.837891c-28.84299 23.143259-46.51358 56.90692-64.06445 88.03516l-18.95508 22.50586c-21.08017-19.7083-40.15777-40.68519-56.42969-66.58399 36.97968-24.361371 86.58717-39.062583 139.44922-43.95703z" fill="#fff" opacity=".75"/><path d="m248.09424 19.318942c-62.86528.342898-124.56672 15.811626-166.406315 39.776148l-6.207454 2.077563c19.694437 58.763617 48.573499 99.528117 81.627839 133.504247l-1.73466 68.04506 65.04974 30.69641c-19.16194 59.48774-34.80918 129.99055-50.8346 199.34064h192.75396c-10.39585-47.5317-20.69085-95.29938-32.43107-139.90233 23.97663 28.35261 46.90641 62.15528 67.63458 105.20207l16.98554-8.16299c-22.76034-47.26947-48.34657-84.05031-74.94536-114.59444l31.39028-24.48694-47.87459-105.26661 48.63098-34.03765c-19.12462-35.75921-37.76515-71.913746-72.89605-93.445716-32.78708 20.163396-52.44319 57.195366-72.83553 93.288386l-29.46905 34.98567c-29.13622-25.88879-55.44354-53.79463-76.74154-91.30361 73.5052-55.990183 198.22218-69.351097 302.90486-43.74671-46.61999-37.272999-111.20379-52.312095-174.60156-51.96718z" opacity=".75" stroke="#000"/></svg>