<svg height="512" viewBox="0 0 512 512" width="512" xmlns="http://www.w3.org/2000/svg"><circle cx="256" cy="256" r="246" stroke="#fff" stroke-width="10"/><path d="m248.424 68.024c-49.8672.272-98.8112 12.5424-132 31.552l-4.924 1.648c15.6224 46.6136 38.5304 78.9496 64.7504 105.9008l-1.376 53.976 51.6 24.3496c-15.2 47.188-27.612 103.1136-40.324 158.1248h152.9c-8.2464-37.704-16.4128-75.5952-25.7256-110.976 19.0192 22.4904 37.208 49.304 53.6504 83.4504l13.4736-6.4752c-18.0544-37.496-38.3504-66.672-59.4496-90.9008l24.9-19.424-37.976-83.5016 38.576-27c-15.1704-28.3656-29.9568-57.0448-57.824-74.1248-26.008 15.9944-41.6 45.3696-57.776 74l-23.376 27.752c-23.112-20.536-43.98-42.672-60.8744-72.4256 58.3072-44.4136 157.2376-55.012 240.276-34.7016-36.9808-29.5664-88.2112-41.496-138.5008-41.2224z" fill="#fff" stroke-width=".8"/></svg>