<svg height="512" viewBox="0 0 512 512" width="512" xmlns="http://www.w3.org/2000/svg"><circle cx="256" cy="256" r="246" stroke="#fff" stroke-width="10"/><path d="m308.56 68.288c-34.56 0-69.12 13.2-95.52 39.6-15.28 15.264-26.08 33.232-32.56 52.352 13.52-1.92 26.32-2.16 38.96-.88 3.12-4.4 6.64-8.56 10.56-12.48 18.64-18.608 43.04-27.92 67.52-27.92s48.96 9.312 67.6 27.92c37.28 37.28 37.28 97.92 0 135.12-37.2 37.28-97.92 37.28-135.12 0-17.76-17.76-27.12-40.88-27.92-64.16-9.2 1.44-18.24 4.48-26.56 9.12 4.64 26.4 17.12 51.6 37.52 72 52.8 52.8 138.32 52.88 191.12 0 52.8-52.8 52.8-138.24 0-191.072-26.4-26.4-61.04-39.6-95.6-39.6zm-139.28 109.472c-22.32 6.16-47.152 20.32-61.4 35.2-38 37.92-48.64 92.8-32.08 140.24 7.128 19.28 18.848 37.68 32.08 50.88 52.84 52.8 138.36 52.8 191.16 0 15.28-15.28 26.08-33.28 32.56-52.4-12.96 2-26.08 2.32-39.04.96-3.04 4.32-6.56 8.48-10.48 12.4-50.16 31.76-110.24 32.48-138.64-3.52-16.456-20.8-25.64-47.04-24.44-68.64 2.064-33.28 21.48-63.92 46.2-78.8 8.16-4.72 30.08-12.08 49.28-12.08 26.96 1.2 48.48 8.88 67.6 27.92 17.84 17.68 27.04 40.88 27.84 64.24 9.28-1.44 18.32-4.48 26.64-9.12-7.52-33.28-21.52-58.56-43.12-77.36-17.12-14.96-35.28-25.12-56.48-30.08-22.72-5.6-46.88-5.2-67.68.16z" fill="#fff" stroke-width=".8"/></svg>