<svg height="512" viewBox="0 0 512 512" width="512" xmlns="http://www.w3.org/2000/svg"><circle cx="256" cy="256" r="246" stroke="#fff" stroke-width="10"/><path d="m149.6632 83.533c-3.7944-.0243-7.641.162-11.52.5706-49.653 5.22-86.2254 44.8758-81.639 88.515.0954.909.1827 1.9737.3006 2.8647.8343-1.485 1.4778-2.8296 2.4453-4.311 22.7223-34.7418 74.7387-53.235 116.1567-41.1705 41.418 12.0627 56.5686 50.319 33.8472 85.0644-2.538 3.888-5.4918 7.3062-8.712 10.7658 24.2883-16.623 38.8575-43.6248 35.8623-72.1242-4.23-40.2327-41.9688-69.876-86.742-70.173zm321.2399 52.74791c-38.439 80.9964-75.5093 133.34959-134.0633 185.04289-39.969 35.289-102.0744 63.4068-147.6963 35.7435-27.6903-16.794-38.0817-63.7317-14.193-104.598-47.7522 20.4282-84.3138 90.531-57.8178 145.5957 41.085 85.3803 148.5648 84.2715 257.553 37.8432 49.869-21.2427 59.10198-29.2608 91.13118-51.4836l19.13413-38.43885c-55.7325 39.411-102.26791 67.30005-175.04101 87.89205 70.2747-32.5566 123.33763-64.38241 183.33793-112.84381l8.58037-55.84447c-60.975 65.196-146.0012 112.40408-216.1625 147.10808 72.225-43.0155 154.80992-100.27134 216.04142-168.29604l-5.88315-42.77762c-38.5974 51.606-96.51527 96.31736-144.39527 138.63536 49.3362-54.3213 95.4303-109.24846 134.2419-171.99196z" fill="#fff" stroke-width=".9"/></svg>