<svg height="512" viewBox="0 0 512 512" width="512" xmlns="http://www.w3.org/2000/svg"><circle cx="256" cy="256" r="246" stroke="#fff" stroke-width="10"/><path d="m198.82494 57.774345c-15.13596 3.854978-15.48349 15.427749-21.04821 24.862254 13.68577 3.039736 27.43514 4.730317 41.20628 5.943598-16.57135 2.275012-33.0887 4.939354-50.2471 2.990962-3.29232 1.811647-7.52269 3.194771-13.11877 3.93772-33.31081 4.423731-74.544083-6.166571-74.544083-6.166571 12.825248 12.082302 27.577983 21.879132 43.520483 29.523762 17.93967 2.50756 36.18244 3.49265 54.52015 4.01089-12.39498 1.30821-24.77603 2.73488-37.25637 3.27141 28.43939 10.43701 57.31776 15.30582 87.6585 13.86695-5.85388 11.13902-20.66934 29.27205-28.97939 34.31417-27.83232-3.34196-41.45713-13.36961-59.90109-27.77134l-9.64877 12.35405c22.2223 15.9242 50.74095 29.58735 72.86482 31.45996 10.49276-5.16842 18.72617-13.98192 26.1034-22.87728l-.0384.99118c17.09917 7.67337 20.63015 7.86935 36.415.55743 10.88295 7.05149 25.01206 8.0479 27.95599-5.90701 15.65421 14.57505 22.10646 20.67282 37.55947 28.31309 25.00684-10.18355 48.44068-26.30983 66.58502-40.3083l-9.59302-12.39759c-18.34294 13.75546-38.25016 28.11974-56.01824 35.48914-15.31714-8.11932-19.04233-14.10734-30.05245-24.78213-4.01785-8.34839-12.30179-11.84974-19.41425-12.61795-5.55078 4.58574-12.53173 7.33282-19.82796 6.25541-8.78127-1.29603-15.2823-7.71867-18.79585-15.43646-3.51355-7.71692-4.55525-17.10439-2.87337-26.91168 1.68274-9.807283 5.81382-18.43003 11.73651-24.75512 5.9227-6.324219 14.25193-10.557204 23.03319-9.261178 8.78127 1.296895 15.28578 7.718665 18.79933 15.436458 1.28296 2.817635 2.23234 5.859985 2.84463 9.061723a76.32002 76.32002 0 0 0 2.26543-6.032438c6.12651-25.846466-18.88294-33.719295-47.338-34.038076-17.91964.252586-37.51679 2.418724-54.37296 6.622966zm163.37753 6.532384c-7.21522 0-13.06476 5.849533-13.06476 13.064768 0 7.215236 5.84954 13.064768 13.06476 13.064768 7.21524 0 13.06478-5.849532 13.06478-13.064768 0-7.215235-5.84954-13.064768-13.06478-13.064768zm-97.19664 22.17788c-3.37507 3.604133-6.43657 9.532925-7.63941 16.545221-1.2037 7.01143-.2761 13.52987 1.7263 17.92835 2.00326 4.39847 4.56396 6.30506 7.08545 6.67697 2.52151.37191 5.5926-.70289 8.96853-4.30702 3.37507-3.60501 6.43832-9.53206 7.64115-16.54436 1.20283-7.011421.2761-13.530741-1.7263-17.929212-2.00326-4.398472-4.56395-6.303316-7.08545-6.676097-3.69558-.201197-7.20217 2.456176-8.97027 4.306148zm69.87909 19.849741a7.8388616 7.8388616 0 1 0 0 15.67772 7.8388616 7.8388616 0 0 0 0-15.67772zm-69.00113 80.00341c-13.04474 5.63701-21.96624 4.96113-34.33596.008 1.44322 5.86173 3.94818 11.53532 8.04441 17.13401-6.69787 6.89123-8.6811 13.78159-10.83766 20.67281 8.25955-5.8112 17.99629-9.6775 27.78789-11.99345 10.01023-2.36734 20.22949-3.30103 29.76503-3.04845 5.53685.1472 10.83069.7055 15.72998 1.60436-4.03528-5.31301-9.41273-10.5154-16.72203-14.71877a79.131558 79.131558 0 0 0 2.29155-5.45236c-7.31887 1.60261-15.75-1.28906-21.72321-4.20685zm14.39302 37.88173c-16.9694.10626-34.29677 5.05258-46.37994 15.58888-9.45976 8.24823-14.30417 23.42078-11.87064 35.73388 10.08687 51.03622 104.24553 66.29412 101.84422 118.26228-.95199 20.61099-24.3475 38.76753-44.54563 42.97874-21.41228 4.46467-61.495-22.89209-61.495-22.89209 25.0713-48.30306-.0984-80.20896-21.94968-99.12414-2.09907 26.68436-12.52475 53.75368-4.90103 79.4094-33.78723-2.84812-47.78221 4.31312-85.85294-3.37332 16.39628 22.58288 55.41203 52.22249 101.36692 35.07977 0 0 34.87858 32.47902 56.98155 34.39693 39.48696 3.42645 91.59447-8.35797 110.85891-42.99615 25.35436-45.58995-2.7436-108.66926-28.89752-153.80542-9.39357-16.21077-24.66367-31.64026-42.76535-36.47684-7.04016-1.87958-14.67957-2.83069-22.39301-2.78192zm-187.242521 15.28229c-7.215236 0-13.064769 5.84954-13.064769 13.06477 0 7.21611 5.849533 13.06477 13.064769 13.06477 7.215231 0 13.064771-5.84866 13.064771-13.06477 0-7.21523-5.84954-13.06477-13.064771-13.06477zm-13.65878 66.45351a7.8388608 7.8388608 0 1 0 0 15.67772 7.8388608 7.8388608 0 0 0 0-15.67772zm31.687281 33.98582a7.8388608 7.8388608 0 1 0 0 15.67772 7.8388608 7.8388608 0 0 0 0-15.67772z" fill="#fff" stroke-width=".933183"/></svg>