<svg height="512" viewBox="0 0 512 512" width="512" xmlns="http://www.w3.org/2000/svg"><circle cx="256" cy="256" r="246" stroke="#fff" stroke-width="10"/><path d="m307.9816 66.1624c-.3968-.008-.7872-.0056-1.1704.0064-1.0864.072-1.636.216-2.4456.32l-76.8616 120.548c1.224 5.252 2.4704 10.432 3.8224 15.3808l-14.4216 3.9408c-7.2584-26.5696-12.0208-56.7936-21.2304-75.788-4.6056-9.4976-9.976-15.7616-16.5-18.5968-5.3712-2.336-12.3864-2.624-22.104.48 13.8064 40.0824 19.3472 81.9064 26.796 115.0608 3.9464 17.5664 8.4936 32.644 14.568 43.4536 6.072 10.808 13.0592 17.1856 23.2864 19.7l-3.5704 14.5184c-14.6936-3.612-25.3784-13.7736-32.752-26.896-3.3536-5.968-6.1456-12.592-8.5808-19.7384-24.6352 26.992-60.104 56.4664-110.0816 78.7784l-37.186077 14.7756c12.973819 26.81243 26.971759 53.24472 50.731345 76.0536 20.070502 22.02928 46.181332 37.81506 74.006792 51.82853l24.79754-34.08173c17.9544-34.016 35.7008-63.2832 52.984-84.592 17.984-22.1696 35.5144-36.852 54.5976-37.176l-.152.005 2.388-.0896-22.7472-65.4824 16.9312-5.6456-26.936-63.228 55.192 74.2752-22.32 6.016 25.04 53.128 119.5336-4.4464c3.4128-4.3944 6.0912-11.6624 6.48-19.128.3736-7.176-1.4136-13.7704-4.0584-17.7328l-95.6 2.736c.1096-6.568-.3232-13.1648-1.24-19.7016l104.1472-36.2416c2.0016-5.1224 2.136-12.392-.002-19.2864-2.064-6.6608-6.0704-12.208-9.904-15.032l-104.104 35.1544c-2.8032-6.6296-6.0752-12.9856-9.7416-18.9552l86.5952-62.0336c.0192-4.884-2.1072-11.6504-6.2304-17.1808-4.292-5.7568-10.124-9.9248-15.28-11.3376l-87.5168 63.448c-5.152-4.5464-10.6136-8.4048-16.288-11.4528l56.938-89.3426c-1.808-3.5632-5.5136-7.5176-10.6048-10.5744-5.912-3.5504-13.26-5.7416-19.2056-5.848zm-7.18 268.984c-2.928 40.836-25.456 53.264-25.456 76.0112 0 11.2928 12.4024 21.3472 25.456 21.3472 12.7664 0 25.9656-9.9952 25.9656-21.8856 0-23.6904-22.3016-34.5704-25.9664-75.472z" fill="#fff" stroke-width=".8"/></svg>