<svg height="512" viewBox="0 0 512 512" width="512" xmlns="http://www.w3.org/2000/svg"><circle cx="256" cy="256" r="246" stroke="#fff" stroke-width="10"/><path d="m310.56836 16.203125-9.44141 76.128906c-9.5868 48.918699-37.00191 104.417769-73.28906 146.677739l65.7168 6.41406-66.42188 14.42773 38.79102 55.93946-52.84766-41.88868-14.64648 54.75586-6.37305-54.38476 2.08984-2.06641c-33.60657 30.25417-26.67084 55.63437.52149 71.70899 5.03492 2.97636 12.08145 6.72198 20.34765 6.46484 43.28404-1.34735 69.30423 26.02026 94.06641 56.62891 13.55084 16.75089 35.93243 22.33761 54.64453 32.88085 38.97146 21.95899 50.45467-24.2773 10.97266-39.71874l-52.52344-82.51758c-8.48692-39.44709 38.78293-127.69197 76.91016-184.57813l40.67773-37.07617-3.2207-7.021484a246 246 0 0 0 -125.97461-72.775391zm-209.89844 80.160156v23.908199l24.375 24.36719 5.97656-17.92773zm-10.312498 32.646489c-.17316-.0193-.424127.02804-.910156.14843-.973549.24004-2.534116 1.10127-3.771485 2.33789-1.236619 1.23663-2.097851 2.796-2.33789 3.76953-.19768.79816-.153065.96494.009765 1.19532l89.349614 89.33594 2.43359-4.86915 4.86328-2.43164-89.345702-89.33007c-.0914-.0639-.177593-.14436-.289063-.15625zm-42.669922 14.62304 30.349609 30.34375 17.933594-5.97656-22.544922-22.54102-.294922-.29492-.255859-.32812c-.297167-.38571-.572824-.78732-.826172-1.20313zm158.71289 76.61914-21.30078 10.64649-10.65039 21.29492 28.4375 11.37109 14.93359-14.76562z" fill="#fff"/></svg>