<svg height="500.0004" viewBox="0 0 500 500.0004" width="500" xmlns="http://www.w3.org/2000/svg" xmlns:xlink="http://www.w3.org/1999/xlink"><filter id="a" color-interpolation-filters="sRGB" height="1.006" width="1.006" x="-.003" y="-.003"><feGaussianBlur stdDeviation=".095182247"/></filter><g transform="translate(-500 -500)"><path d="m999.99997 750a249.99997 250 0 0 1 -249.99997 250 249.99997 250 0 0 1 -249.99997-250 249.99997 250 0 0 1 249.99997-250 249.99997 250 0 0 1 249.99997 250z" fill="#ffe24c"/><path d="m1000 750.00632-194.05817-2.60063 192.98367-20.4591-193.45987 15.31075 190.28547-38.19139-191.22567 33.10816 185.92267-55.58184-187.34707 50.61663 180.01317-72.50831-181.88127 67.68555 172.56127-88.82024-174.86477 84.18876 163.62798-104.35075-166.35478 99.94311 153.30278-119.00625-156.40808 114.88758 141.65488-132.65651-145.14668 128.82271 128.82258-145.14278-132.65648 141.65492 114.88758-156.42029-119.00218 153.31093 99.94719-166.3385-104.34669 163.60764 84.17649-174.84041-88.81609 172.54909 67.67739-181.89345-72.48799 180.02133 50.6167-187.35925-55.5941 185.94294 33.1-191.23373-38.1995 190.27732 15.3474-193.45586-20.4957 192.97968-2.59249-194.05413-2.5681 194.05413-20.4916-192.97968 15.327 193.45586-38.2004-190.27732 33.1171 191.23373-55.5936-185.94294 50.6162 187.35925-72.51029-180.02133 67.69979 181.89345-88.81699-172.54909 84.17729 174.84041-104.36289-163.60764 99.96869 166.3385-119.00618-153.31093 114.86968 156.42029-132.64018-141.65492 128.81968 145.14278-145.14988-128.82271 141.67318 132.65651-156.42638-114.88758 153.29788 119.00625-166.34218-99.94311 163.62828 104.35075-174.86477-84.18876 172.54667 88.82024-181.87387-67.68555 180.00617 72.50831-187.35587-50.61663 185.94077 55.58184-191.21897-33.10816 190.28097 38.19139-193.47947-15.31075 192.98647 20.4591-194.04384 2.60063 194.04384 2.58435-192.98647 20.46723 193.47947-15.31481-190.28097 38.20361 191.21897-33.12445-185.94077 55.58997 187.35587-50.60849-180.00617 72.5083 181.87387-67.68553-172.54667 88.81211 174.86477-84.17656-163.62828 104.33851 166.34218-99.95936-153.29788 119.0103 156.42638-114.87941-141.67318 132.66054 145.14988-128.83082-128.81968 145.13868 132.64018-141.66304-114.86968 156.42028 119.00618-153.28243-99.96869 166.32222 104.36289-163.59543-84.17729 174.84852 88.81699-172.55719-67.69979 181.8975 72.51029-180.02538-50.6162 187.35108 55.5936-185.93884-33.1171 191.21336 38.2004-190.26101-15.327 193.47618 20.4916-192.99594 2.5681 194.05003 2.59249-194.05003 20.4957 192.99594-15.3474-193.47618 38.1995 190.26101-33.1-191.21336 55.5941 185.93884-50.6167-187.35108 72.48799 180.02538-67.67739-181.8975 88.81609 172.55719-84.17649-174.84852 104.34669 163.59543-99.94719-166.32222 119.00218 153.28243-114.88758-156.42028 132.65648 141.66304-128.82258-145.13868 145.14668 128.83082-141.65488-132.66054 156.40808 114.87941-153.30278-119.0103 166.35478 99.95936-163.62798-104.33851 174.86477 84.17656-172.56127-88.81211 181.88127 67.68553-180.01317-72.5083 187.34707 50.60849-185.92267-55.58997 191.22567 33.12445-190.28547-38.20361 193.45987 15.31481-192.98367-20.46723z" fill="#fffbb3" fill-rule="evenodd"/></g><path d="m81.738235 417.90156 97.731435.82129 70.16309 69.09668 70.34766-68.87207 98.2793-1.04394.68066-97.73243 69.22954-70.17187-69.23144-70.16895-.67871-97.733391-98.28027-1.041016-70.34669-68.874999-70.16309 69.097655-97.731438.81836-.614258 97.757811-69.293945 70.14258 69.292968 70.14843z" fill="#f2c80d"/><path d="m194.08419 93.187893c17.4897-6.243302 36.324-9.652502 55.9575-9.652502 19.1592 0 37.5597 3.249 54.6903 9.207002l-55.0998-55.104752zm-94.345194 85.205697c16.283694-34.119 43.836294-61.8255 77.845494-78.2973l-77.845494.00045zm222.758994-78.2964c33.9507 16.443 61.47 44.082 77.7627 78.12v-78.12zm-218.682 149.9085c0 80.6337 65.5695 146.2077 146.1987 146.2077 80.631 0 146.1996-65.574 146.1996-146.2068 0-80.6346-65.5695-146.2095-146.1996-146.20995-80.6292-.00045-146.1987 65.57355-146.1987 146.20905zm261.0279-54.9702c-23.742-26.5284-64.17-44.3358-110.3706-45.4257 3.924 6.4683 7.4763 13.4082 10.6173 20.7423-10.4715 6.4854-17.4492 18.0747-17.4492 31.2975 0 19.0107 14.4207 34.6527 32.9202 36.5886.2205 3.987.3393 8.0145.3393 12.078 0 38.3175-9.99 73.071-26.415 100.0665 46.206-1.0944 86.6394-18.909 110.376-45.4473-20.466 42.813-64.1448 72.3213-114.8463 72.3213-50.6223 0-94.2462-29.4147-114.7536-72.1206 23.7663 26.433 64.1286 44.163 110.2338 45.2457-16.4907-26.9964-26.397-61.632-26.397-100.0683 0-38.4444 9.9108-73.6218 26.4078-100.7064-46.098 1.08-86.4567 18.801-110.2275 45.2268 20.5137-42.687 64.1277-72.0855 114.73515-72.0837 50.68665.002 94.35645 29.4912 114.82965 72.2853zm-271.606494-.9918-55.952996 55.9548 55.949396 55.9548c-6.2397-17.487-9.648-36.3204-9.648-55.9512 0-19.6335 3.411-38.4687 9.6516-55.9584zm323.258394 55.9584c0 19.584-3.393 38.3724-9.603 55.8243l55.8225-55.827-55.82655-55.82835c6.21315 17.45325 9.60705 36.24435 9.60705 55.83105zm-316.756794 149.9004h77.834694c-34.0038-16.4718-61.5528-44.1756-77.834244-78.291zm222.770694.0009h77.751v-78.11415c-16.2918 34.03395-43.8066 61.66845-77.751 78.11415zm-72.8775 62.4582 55.0908-55.098c-17.127 5.9562-35.5248 9.2043-54.6813 9.2043-19.629 0-38.4615-3.411-55.94715-9.65025z" fill="#fffdcc" stroke-width="36"/><circle cx="285.71426" cy="201.6496" fill="#fff" filter="url(#a)" r="38.072899"/></svg>