<svg height="500" viewBox="0 0 500 500" width="500" xmlns="http://www.w3.org/2000/svg" xmlns:xlink="http://www.w3.org/1999/xlink"><filter id="a" color-interpolation-filters="sRGB" height="1.037504" width="1.037496" x="-.018748" y="-.018752"><feGaussianBlur stdDeviation="3.6347768"/></filter><g transform="translate(-1000 -500)"><circle cx="1250" cy="750" fill="#8f29a3" r="250"/><path d="m1250.0521 500.09326-.061 248.75004-15.9199-248.2399a249.99917 250.18666 0 0 0 -31.6776 4.06945l45.0428 231.17052c-.102.0363-.2268.0547-.3789.0547l2.377 12.94521-.25-.53361-.5352-1.34279-3.3574-10.61339c-.1814.0698-.3456.12506-.5117.12506l-.1211.0782-83.1951-220.24831a249.99917 250.18666 0 0 0 -14.7401 6.13348l96.9 214.60543-.2187.11532 2.3047 4.43886 2.3437 5.21678.055.0488.416.7486.7461 1.26658v.0314l-.7461-1.29782-.4707-.79746-5.5273-9.21c-.1841.12151-.3808.23754-.5664.39678l-123.4077-200.53639a249.99917 250.18666 0 0 0 -34.1776 25.40763l164.5483 186.40079-.3984-.58052.832 1.02616v.0508l-.3262-.32448-.094-.12903v-.006-.002l-176.1809-175.46484a249.99917 250.18666 0 0 0 -21.0273 24.05115l186.5306 143.42536-.1425.18569 10.4687 8.26398-2.0957-1.07698-9.4082-5.66242c-.1395.18156-.2273.33335-.3066.47301l-208.0031-109.74966a249.99917 250.18666 0 0 0 -7 14.40723l214.5266 96.34337c-.074.17741-.1655.3791-.2578.59419l12.1758 4.73596-.037-.0253.5254.23653-.4863-.21109.3574.18179.2129.0802-.2129-.0508v-.0295l-12.8066-4.08117c-.056.14944-.1255.33501-.1758.5082l-224.9661-68.33223a249.99917 250.18666 0 0 0 -8.7656 41.69908l246.1613 30.77687h-1.2363l-246.3644-14.82161a249.99917 250.18666 0 0 0 -.4219 14.51082 249.99917 250.18666 0 0 0 .6113 17.47203l234.4934-16.18786h-.027l.3066-.0234-.2773.0234 12.9687-.73492-7.6699 1.8549-.3028.0508-4.789.9382.07.23845-228.2004 55.91086a249.99917 250.18666 0 0 0 4.2871 15.37279l224.173-70.26921c.093.36314.1859.69573.2793.95971l11.9648-4.46623-6.7285 3.52803-218.2141 100.03556a249.99917 250.18666 0 0 0 21.0155 36.99246l204.0072-139.70972-2.9414 2.38851-191.599 150.2058a249.99917 250.18666 0 0 0 21.2792 23.80097l164.7143-167.43742c.2793.26396.5666.50585.8359.80333l7.6309-8.62753v-.0314l.7578-.86587.1855-.23653.7754-.84633.02-.0645.057-.0272-.023.15832-.1035.11531.051-.18179-.068.18179-1.3203 1.73762.6133-1.0457-.1856.20916-.7578.89715-2.5996 3.67852-4.2753 5.57643.287.1818-133.9214 192.92518a249.99917 250.18666 0 0 0 13.3768 8.68037l121.3629-200.99764c.1115.0698.2562.1641.4043.23263l6.9082-11.76855-.2793.71929-100.1481 226.51466a249.99917 250.18666 0 0 0 40.1346 13.79743l59.6931-236.78211-1.5742 9.22563.2364.0566-42.7675 230.89101a249.99917 250.18666 0 0 0 31.6386 3.76263l12.9316-234.50119c.2415.0238.455.0234.6602.0234h.031v-12.36276l.055-.87175.3809 3.35211.6328 9.85892c.1939 0 .3385-.0234.5058-.0234l27.248 233.23258a249.99917 250.18666 0 0 0 15.7831-2.3455l-42.1484-231.0161c.254-.028.4739-.0916.707-.11531l-2.0644-10.71502-.055-.13878-.3203-1.79235.018.0295.3575 1.90182 74.3923 234.18055a249.99917 250.18666 0 0 0 39.205-16.19959l-111.1503-215.75097 4.1406 6.7179.2696-.18569 120.6715 201.44522a249.99917 250.18666 0 0 0 26.2108-18.10533l-145.5071-184.32505c.254-.18717.4204-.39029.6562-.60397l-8.457-9.554 3.3672 3.03156 5.8437 5.83834.2872-.30686 174.8256 156.82795a249.99917 250.18666 0 0 0 10.2715-12.18293l-184.478-145.35845c.1296-.15783.305-.33279.4082-.48083l-9.3632-7.21437 211.5852 126.78601a249.99917 250.18666 0 0 0 18.7245-38.19257l-229.6555-89.16613 11.0274 3.36579.012-.18569 223.9289 70.91228a249.99917 250.18666 0 0 0 7.6836-30.99187l-231.1887-41.80463c0-.16199.037-.30149.037-.44955l-7.3671-.90693-4.5508-.79941 12.0312.70755c.03-.32965.029-.62841.029-.96361l235.009 1.78454a249.99917 250.18666 0 0 0 .011-2.19892 249.99917 250.18666 0 0 0 -.3809-13.81303l-234.6691 13.37131v-.33226l-11.7754.81114-2.207.14075 2.1641-.14075h.043l242.6422-45.60435a249.99917 250.18666 0 0 0 -11.2772-41.04821l-231.0032 85.65376-.2598.0684 10.5078-4.79069c-.1716-.35894-.395-.80876-.6601-1.20402l208.1651-109.51534a249.99917 250.18666 0 0 0 -7.877-13.90491l-200.7337 122.63837-.2109-.32833-5.6211 3.9033-4.707 2.86542 9.6699-7.59747-.1446-.20719 183.392-147.45376a249.99917 250.18666 0 0 0 -29.3651-30.85701l-161.2514 182.96656-2.3184 2.37091 151.2905-195.53064a249.99917 250.18666 0 0 0 -26.4154-17.96062l-119.2496 202.94829-.094-.0664-7.0644 11.68841 5.539-12.45265c-.2748-.15364-.5655-.24794-.8711-.35962l83.404-220.18189a249.99917 250.18666 0 0 0 -15.121-5.19332l-69.2811 225.07807c-.1088-.0378-.2229-.0651-.3808-.11531l-1.8809 7.53882-1.1289 3.69807 2.1055-11.46558c-.2011-.0197-.4082-.0561-.6133-.0743l40.1268-232.08917a249.99917 250.18666 0 0 0 -42.4354-3.64138zm-1.9453 235.66215 1.0117 8.77021v.043l.8711 4.45646v.46128l.029-.16807.023.62741v.1036l-.057-.1036v-.43977l-.066.30686-.2383-.49451-.5625-4.74964zm-9.3652 5.00568 7.0859 6.37391-.025-.0197zm25.7675 6.02013-11.8261 2.9006h-.057zm-12.1504.11531-1.6269 2.78332-.3496.40069.1113-.44954-.092.20719-.02.18179-.051.10553v-.0253l.051-.0802v-.16221l.02-.0197v-.10556l.012-.0234.082-.12118v-.0234l.033-.0272.061-.1505v.0197l-.061.13096-.033.0508zm-6.5292.23849 3.3242 2.54682.3633.56682-.4493-.16807.2012.13878h-.022l-.2188-.13878h.037zm5.0331.24627-.2968 1.58908.2968-.84047-.3339 1.37603-.1016.1505.1387-.68606.2617-1.56758zm-.582.38505-.086 1.71808-.057.19351-.1172-.46715zm3.1445.7447-2.2754 1.58908h-.023l-.4121.27757-.2871.11728.2129-.27557.074-.0215.8867-.71342zm-4.0429.57856.1348.14075v.0469l-.084-.1251zm3.8633.31665h.029l-.1738.0802zm-3.5254.18179.1835.3577v.0392l-.1835-.35376zm.416.0938.02.26385v.0392l.039.0958.047.11728-.047.0215-.039-.1192.039-.0197-.039-.0605v-.0352l-.057-.26192zm2.2207.0644-.07.0272-1.0156.30686.1562-.0605zm-5.6387.0665 2.3692.40655.3457.21498.029.0606-.3124.0644zm2.1641.31271h.053l.094.0314zm.7265.19155h.02v.0196zm-.164.0606h.02l.074.0802zm.2148.1818h.024l-.024.0314zm-.3359.16808h.057l.2461.0352-.8125.32836zm-.3887.0352h.2168l-.9316.47886.2637-.0527-.025.0272-.2383.0253-2.0253.39287v.0234l-5.2422.93428 5.2422-.95774zm1.7774.0234.5078.043.7519.2228-.8457-.0841zm-.2188.16418.035.0178.1113.22088.3282.16611 1.4394 1.4034-1.3496-1.00858-.2344-.2971-.1855-.26385-.018-.0333-.092-.18766h-.035zm-1.0625.0802-.25.27364h-.029l-2.7812 1.26461 2.2988-1.41316zm1.5703.0997.1485.0253.031.0314zm.2207.0253 1.9356.60398-1.9063-.57074zm-1.1796.17201.031.1251.022-.0978-.022.13092v.006l.076.23066.125 1.89594-.2324-1.35256.031-.77402-.088.50819v-.0919l-.031-.18569.031.14272v-.26385zm.7226.0919.061.0664.088.14661-.037-.0314zm-1.1406.1818-.2442.52578-3.9492 12.85138 3.9219-12.85138h.027l.084-.28732.01-.0117zm-.088.10552-.065.11339.041-.0978zm1.4648.0802.033.0234.1152.18962-.092-.0919zm-.4375.21306.023.0295.029.22669zm-1.7304.26581v.0295l.051-.0295zm2.2929 1.35257 4.8828 10.7893-4.8828-10.73457z" fill="#aa40bf"/></g><path d="m217.56836 18.808594c-13.07223-.175589-24.34973 6.57001-15.53324 10.54137-8.0569 8.87716-33.45173 7.356036-22.66198 27.822403 3.10105 10.381402-9.47113 28.268005 7.85147 14.66943-6.52191 13.090039 6.55386 44.141773 10.84271 23.481406 15.79858-3.2913 16.05346-12.218669.57721-12.686484 7.18392-4.670092 27.27066-18.63754 18.59375-.796875 9.22218-11.35534-3.35775 16.239289 7.90189.772458 5.30633-4.641666-9.54807 18.666628 3.07674 5.91036 22.94167-10.138229 18.8521-37.595933 9.5676-52.653118-.28195-10.644195-9.86824-18.103661-20.21615-17.06095zm90.42187 7.408203c13.00859 15.956282-15.88915 1.504357-23.95142 5.853536-5.81591 8.014431-18.96487 32.372229-16.9252 29.601934 19.37212-3.520621-9.01708 16.10738-1.54396 28.307237-.99522 10.028846 6.19646-10.103484 13.87417-.849744 16.93571 1.232144 6.60859-5.356264 1.24759-12.123901 8.58354-.429177 32.94491-2.179612 16.41601 8.757811 13.87361-5.213704-11.1186 12.294382 6.56639 4.639147 7.10139-1.379538-17.68531 11.250503-.36672 6.673929 25.20877 2.976334 35.10132-23.039516 34.73246-40.799059 9.40551-19.045726-14.26338-30.961921-30.04932-30.06089zm-182.26757 32.748047c-14.27437.524157-32.262874 19.74846-19.12793 19.395302-3.46009 11.607751-26.632729 21.878154-7.445899 35.438174 6.631409 8.95323 4.362499 27.21078 13.204689 9.01809-.4484 15.01463 25.22412 37.7971 20.11652 16.93512 10.7674-6.44839 11.42603-20.86673-2.96381-10.77186-2.70417-5.0205 16.00599-31.674978 14.79259-10.67108 3.06791-14.83714 4.48566 15.69094 7.55957-3.19363 2.67183-6.97689.11745 20.90247 5.3294 4.24771 16.35243-20.100578-.89193-42.388466-16.25405-51.740898-3.18649-5.0788-9.11347-8.792046-15.21108-8.656928zm254.49218 15.576172c-9.98796 3.501291-25.01287 17.849089-29.17928 18.559218 19.34855 5.933451-15.66188 10.072496-14.93974 24.772896-4.75259 7.74954 10.97606-6.83042 13.24069 5.59733 14.83332 9.17416 8.90519-1.55887 6.6713-10.28882 7.69739 3.77545 31.066 13.05619 11.47657 15.75195 14.80319 1.46731-15.62719 6.24933 4.0037 7.16113 7.30727 1.90341-20.95065 2.40664-3.3147 5.91008 21.70148 13.94539 41.42017-5.84226 49.16806-21.83763 23.22446-13.28362-15.66835-51.681253-14.23226-33.126518-11.80141 1.874916-11.13524-13.360829-22.89434-12.499636zm-322.958981 62.017574c-14.352449 2.2869-27.585152 24.03901-14.995199 27.39191 2.01779 11.94677-14.467472 31.3772 8.728243 35.11872 9.74466 4.28094 16.121469 23.40657 15.757191 2.3214 5.353913 13.32484 39.995436 21.97058 25.399442 5.96099 7.110018-11.36086.743135-23.02132-7.536886-8.1513-5.533731-6.55681 2.347413-32.14363 8.528928-16.73103-2.486226-11.80551 11.105342 13.7453 5.552283-4.73732-.57209-7.44184 9.035889 18.93471 6.618329 1.26515 6.37439-30.10677-24.29669-36.51489-43.716393-42.21781zm384.457031 17.14063c-9.46455 9.6068-40.16255-3.59369-22.80859 12.96289-13.96009-5.10952-43.54619 11.58267-22.29562 13.54265 4.97672 15.21995 14.4393 15.01451 12.67843-.97429 5.42883 6.55044 22.21299 24.96128 3.26367 18.56836 12.55746 7.70576-16.28875-1.19769.28385 7.97123 5.41925 4.72014-19.51199-6.92704-5.60508 3.63 13.03594 21.61554 39.68477 13.98808 53.51654 2.78659 26.73448-1.43705 8.89753-53.12403 1.92457-36.10232-12.4034-4.27818-3.64104-23.14712-20.95777-22.38511zm-387.419921 76.93945c-16.545426 6.83472-45.7874286 6.30853-38.169922 35.22656 2.003222 7.40104 4.018577 13.82835 6.869141 2.27539 10.32746 9.69961 2.966396 37.04143 26.460761 29.02991 10.806121-1.6409 25.585573 11.59167 15.478692-5.94006 12.092768 8.08053 44.403069-1.09276 24.648733-7.87328.563306-12.08036-11.45022-21.893-10.561552-3.3122-5.300476 1.08278-18.096677-31.99628-.178978-17.1739-10.197362-10.82437 15.767044 5.56684 1.846522-7.80414-4.284818-6.20304 17.223751 11.51282 6.542863-1.99848-5.515352-14.11122-17.684505-22.53304-32.93626-22.4298zm384.503911 11.33008c8.02835 22.73633-15.08775-3.68781-28.04596 4.95848-10.50898.39721 10.81698 4.57914 2.68554 13.36805 1.16675 17.7746 6.13117 6.35646 12.20221-.17223 5.14014 14.00314.9195 26.10839-5.31152 20.11327 1.74683 5.82956-13.38367-10.21303-4.82789 4.21456 2.16857 6.64646-13.29584-15.88973-6.61141.5115.28737 25.19042 27.18057 31.95692 44.68164 29.40248 23.7803 12.2432 34.60306-41.30491 19.97306-30.1861-4.85595-11.14215 6.43934-34.35288-17.14057-32.04165-7.22523-.46751-11.98262-6.46254-17.6051-10.16836zm-351.107427 75.49219c-20.858732-.17918-27.31246 18.07949-41.453125 28.29125-7.793116 11.08408 15.280544 43.11394 14.164063 25.10157 12.714045 4.07055 19.33962 30.50844 36.000312 12.38753 9.491967-5.75123 27.601517-1.24756 10.571957-12.1473 14.87641 1.90728 40.2453-21.02077 18.8746-18.16117-8.60099-13.98492-16.55633-10.55312-12.19492 3.7276-6.76072-5.24649-27.820668-19.50995-7.73828-17.72461-14.073865-4.61032 16.28087-2.67175-2.2741-7.79186-3.38765-2.6427 19.79731 1.34627 2.27607-6.46093-5.3445-3.82419-11.497715-7.0902-18.226577-7.22208zm300.716797.28711c13.27079 7.34097-10.84497 23.10895 1.25 25.59961 19.3774-20.44137-1.32278 35.00971-4.74805 8.34765.13579 14.89577-7.88251-14.85062-6.68733 4.80371-1.11144 7.56468-4.58515-20.53441-6.13774-3.00738-11.64254 23.17709 9.88969 40.86361 26.99745 46.85697 15.79438 21.47525 49.55501-21.27184 31.30985-17.83147.74303-12.08018 21.18494-27.13416-.45203-36.16295-8.48233-7.13818-10.16012-25.65462-14.88371-6.04169-2.64536-13.18897-15.78276-17.98331-26.64844-22.56445zm-49.93359 57.46875c9.21692 13.36283-18.91665 15.26151-10.15211 23.95561 25.7173-6.36076-15.55741 25.64461-8.8977 7.79536-3.62043 4.78072.10644-17.01856-6.32483-1.22187-4.13635 6.23017 4.51428-20.20199-4.26471-5.15864-20.11322 15.8323-8.65139 40.70368 3.86176 53.63876 4.84137 26.16621 53.84031 2.25858 35.96246-2.52481 5.9755-10.50921 30.8382-15.40329 15.09063-32.83525-4.61593-10.05984 1.89894-27.47323-10.838-11.87768 3.18763-13.04665-6.59977-22.96501-14.4375-31.77148zm-188.6543 7.78711c-26.13004 1.86892-29.41367 29.69459-35.12305 48.56193-.49862 10.92016 33.07643 29.5457 22.11133 13.43807 13.78924-2.50238 30.84416 19.63664 38.70539-3.59758 5.3108-9.6874 24.95429-13.4005 4.67352-16.01375 14.21236-5.01778 26.58893-35.75031 8.91236-24.41719-9.121-7.72376-24.36293-4.50945-9.0685 6.45354-4.11473 4.04473-34.69607-4.92832-14.52355-10.54807-14.75111 1.77559 13.85757-9.46365-5.47272-6.09534-7.49154-.29709 20.04015-6.88261 1.94513-6.48693-4.03072-.6066-8.05451-1.43552-12.15991-1.29468zm120.85547 21.75195c5.55182 14.10495-31.61357 6.62042-17.58399 16.24219 17.86032 10.44763-24.67863 10.14719-14.02142 2.51013-3.02427.12822 8.35451-14.38336-3.83002-4.74942-6.28915 3.06507 13.81052-15.2366-1.18096-6.53985-25.17166 3.77656-27.97418 30.86088-23.609 48.28022-9.09417 25.2151 45.53204 29.22305 32.73847 16.05462 10.57031-7.17458 35.16814 1.87454 29.61143-21.68064.35939-10.863 14.57928-23.38405-3.89014-15.70905 8.71814-9.95489 4.73692-23.16276 1.76563-34.4082z" fill="#6a1f7a" filter="url(#a)"/><path d="m476.25106 290.99781c-1.46816 3.12499-3.15765 5.06513-5.04624 5.28952-.0478-.22467-.10128-.44896-.16424-.67247.12904-3.98401-.6985-8.38446-2.0477-12.85291.1022 3.0815-.41671 5.50746-1.74297 6.88119-1.16272-1.1035-2.5701-2.14296-4.23709-3.10322-4.0995-2.36136-.68112-6.21565 2.577-11.2177 3.2175-4.9397 6.32323-11.16997 1.52704-16.13178-2.97714-3.08003-6.225-2.77744-9.86356-2.96983-3.82011-.20199-7.77611-.90505-13.32453-5.30651.54919 4.68979 1.1102 5.82163 4.59091 8.35288 2.07401 1.50835 2.69598 4.00464 2.41623 6.17775-1.32894-1.84094-3.73565-3.78456-7.56624-5.61792 2.32101 2.71072 4.72018 6.22507 4.49314 9.80502-.85314.0257-1.7675-.52569-2.6512-1.88093-2.86207-4.38978-5.38935-8.95529-9.25915-12.4076-3.88401-3.46497-8.81894-5.53635-16.36829-5.2997 1.51791.61751 2.73313 1.3133 3.84303 2.0044-4.07461.64779-6.96887 2.98231-5.73718 10.12366 1.16476-4.8452 8.28566-8.27499 11.2274-4.41487 2.92122 3.83323 2.60765 7.85369 2.42226 12.87068-.19851 5.37214-.22062 11.05165 2.55312 21.0727.0953.34481.16661.67289.21734.98562-2.40835-.91787-4.7249-2.82241-6.63974-4.51584.92806 1.99813 1.82264 3.63271 2.71444 4.96371-3.35551-.63582-6.62881-3.27854-9.23483-5.53834 2.84169 5.91595 5.4031 8.99183 7.98039 10.02731-4.92709-.27952-12.0239-3.91781-14.83973-7.35187 2.69092 9.78919 5.80915 14.75548 19.88467 20.30979 3.69314 1.45743 6.28269.0852 8.5709-1.37109 2.25633-1.43601 4.18578-2.93484 6.53586-1.47104 5.77553 3.59781 10.29545 4.39994 13.90961 3.27139 7.16292-.81658 11.12957-9.37922 13.25942-20.01231-.00002.00011-.00004.00021-.00007.00031zm-46.47632 98.82306c-2.69138 2.07732-5.05863 3.02118-6.85029 2.35305.0564-.22119.10765-.44462.15008-.6717 1.87649-3.47219 3.09109-7.74567 3.89465-12.31315-1.29156 2.76462-2.83527 4.66952-4.63434 5.27464-.5469-1.51436-1.33904-3.08614-2.39627-4.70858-2.60081-3.99099 2.20617-5.83882 7.36501-8.70727 5.11219-2.84252 10.63516-6.77681 8.72662-13.36064-1.18706-4.09515-4.14467-5.38064-7.23787-7.29526-3.21621-1.99077-6.39657-4.52443-9.05987-11.01634-1.80693 4.34047-1.86052 5.63594-.0237 9.5009 1.09769 2.30987.46611 4.79604-.80296 6.57682-.30553-2.25048-1.50395-5.10019-3.98304-8.53856.7302 3.48768 1.17674 7.73005-.70334 10.78796-.76745-.37801-1.31975-1.29679-1.45953-2.91416-.45247-5.23856-.4716-10.4729-2.1465-15.36403-1.67748-4.89869-4.90703-9.12394-11.56167-12.54792.99372 1.27997 1.68908 2.48147 2.29965 3.62781-3.84116-1.37139-7.66679-.71547-10.21235 6.32876 3.53694-3.8742 11.47091-3.42938 12.11672 1.36726.64763 4.8104-1.58694 8.2148-4.18358 12.65032-2.74104 4.68216-5.53883 9.91463-7.62715 20.2054-.0723.35562-.15838.68519-.25585.99159-1.75676-1.9225-2.96785-4.69074-3.90997-7.10159-.0921 2.23629-.0368 4.12912.15817 5.73891-2.74747-2.09222-4.48186-5.95954-5.78188-9.20692-.20394 6.67842.74131 10.64553 2.59477 12.72881-4.33988-2.45799-9.11321-8.92742-10.06331-13.35024-2.1353 10.18436-1.46193 16.13911 8.81861 27.37532 2.70171 2.95297 5.66004 2.85516 8.37475 2.5569 2.68095-.29454 5.0875-.7822 6.56378 1.58983 3.62465 5.82453 7.36723 8.56606 11.11647 9.18189 6.81918 2.4935 14.11892-3.3509 20.71436-11.74005-.00006.00008-.00013.00016-.00019.00024zm-84.85158 68.16308c-3.33796.70799-5.88836.53654-7.2132-.83134.14753-.17391.29134-.35206.42875-.53729 3.21027-2.30576 6.16224-5.61567 8.86257-9.37376-2.36139 1.92923-4.58164 2.97614-6.46713 2.74737.16358-1.5927.12966-3.34228-.12246-5.25137-.6202-4.69527 4.50407-4.29827 10.40144-4.66931 5.84084-.3675 12.53704-1.53836 13.63333-8.2905.68245-4.20287-1.44603-6.6361-3.42631-9.6933-2.05787-3.17699-3.85552-6.83389-3.48359-13.86036-3.4979 3.16299-4.09896 4.31654-4.08995 8.59881.005 2.55944-1.62949 4.53564-3.53717 5.60129.68577-2.16272.82009-5.25054.0469-9.42179-.82943 3.47182-2.23625 7.49355-5.23897 9.45087-.53104-.66863-.63713-1.7332-.0736-3.25328 1.82406-4.91993 4.03961-9.67572 4.61389-14.82925.57536-5.16323-.53664-10.39772-5.09807-16.35666.35125 1.59268.46636 2.98623.52863 4.29196-2.89415-2.88723-6.63767-3.89895-11.91239 1.43771 4.81885-2.02515 11.81353 1.73405 10.35054 6.38207-1.46198 4.64474-4.92741 6.78517-9.13815 9.68654-4.4795 3.08656-9.12554 6.56539-15.40297 14.90104-.21629.28701-.43383.5447-.65166.77669-.7438-2.47374-.64374-5.47565-.46075-8.03693-1.02992 1.96276-1.78575 3.67832-2.2987 5.20106-1.54988-3.05081-1.44907-7.26299-1.23442-10.72386-2.99532 5.88703-3.85586 9.82362-3.10142 12.48836-2.79562-4.06807-4.26276-11.91829-3.24702-16.26671-6.14522 8.14404-8.09985 13.80568-3.91659 28.20229 1.10734 3.81116 3.77585 5.01811 6.32907 5.93708 2.51735.90605 4.8838 1.51627 5.16491 4.27163.6904 6.77025 2.82386 10.83566 5.92734 13.01135 5.03191 5.18089 14.20869 3.10302 23.82752-1.59054-.00009.00004-.00019.00009-.00028.00013zm-108.15024 22.16462c-3.33646-1.07213-5.50742-2.51517-5.98489-4.37006.21869-.0759.43627-.15745.65178-.24838 4.0099-.37284 8.31094-1.75778 12.61291-3.68553-3.07958.50124-5.5834.29295-7.13896-.85473.94881-1.30191 1.79985-2.84072 2.53586-4.62964 1.69377-4.11711 5.57259-1.83968 10.5504.59637 5.61494 2.64335 12.7818 5.42559 17.30261-.43157 2.62233-3.3974 1.87994-6.54958 1.57112-10.16391-.32325-3.78317-.17484-7.81094 3.4043-13.83857-4.5403 1.15571-5.58854 1.86503-7.60789 5.64659-1.20494 2.25628-3.58905 3.22423-5.78641 3.25117 1.64487-1.57791 3.23694-4.23316 4.52344-8.2676-2.35634 2.65063-5.55288 5.52849-9.11372 5.79373-.14357-.84679.27994-1.83424 1.50641-2.89831 3.97559-3.4488 8.13625-6.54878 11.02201-10.80323 2.89062-4.26161 4.27615-9.3547 3.02253-16.72595-.40908 1.5565-.93514 2.82728-1.47001 3.99688-1.19198-3.9161-3.92314-6.55179-10.83732-4.54949 4.9982.63656 9.32581 7.28069 5.92888 10.62957-3.62225 3.57097-7.94687 3.56141-13.46595 4.07029-5.16631.58486-10.61891 1.5316-19.57135 5.36121-.32969.14091-.64594.25559-.94961.34773.5969-2.51436 2.18502-5.07599 3.61153-7.20977-1.8584 1.19615-3.36083 2.30457-4.56475 3.36904.19588-3.41476 2.39111-7.02779 4.28502-9.92705-5.47945 3.64319-8.1947 6.57827-8.89228 9.27825-.35188-4.92236 2.34798-12.45046 5.37076-15.71509-9.30358 4.02327-13.81977 7.72238-17.56867 22.39036-.98317 3.84645.70135 6.24158 2.43869 8.33095 1.71167 2.05851 3.45066 3.78739 2.29546 6.30594-2.83955 6.19002-3.06351 10.77597-1.46862 14.23353 1.74138 7.02173 10.81981 9.93075 21.78704 10.7173-.00011-.00001-.00021-.00002-.00032-.00003zm-104.1541-34.54872c-2.36942-2.4397-3.57345-4.68375-3.1104-6.53439.22616.0316.45397.0578.68442.0748 3.66138 1.4785 8.0453 2.21098 12.67305 2.50043-2.89248-.9735-4.95916-2.29363-5.76259-4.01075 1.44282-.70971 2.91475-1.66908 4.40686-2.89706 3.67011-3.02059 6.04234 1.53955 9.47808 6.33223 3.40338 4.74756 7.95317 9.78342 14.26894 7.1417 3.92585-1.64202 4.8568-4.72271 6.39461-8.00546 1.60183-3.4194 3.74063-6.85011 9.85757-10.24899-4.50613-1.28091-5.78797-1.18586-9.4061 1.07855-2.16129 1.35256-4.69674 1.01108-6.60592-.0436 2.19472-.55838 4.88059-2.07051 7.99941-4.9207-3.36749 1.1245-7.51735 2.05083-10.75973.53381.28772-.80302 1.13536-1.45368 2.72092-1.77565 5.13668-1.04277 10.30966-1.66253 14.95224-3.89162 4.65073-2.23301 8.44311-5.92843 11.05833-12.91866-1.14716 1.1359-2.25162 1.96682-3.31189 2.70683.91615-3.96558-.16312-7.65505-7.38024-9.35373 4.20093 3.0427 4.66889 10.94452.006 12.14334-4.67358 1.20163-8.29207-.61934-12.96261-2.68694-4.93514-2.18474-10.41067-4.36766-20.83819-5.30752-.36036-.0326-.69644-.0818-1.0108-.1448 1.71361-1.9538 4.32546-3.46002 6.60988-4.65986-2.22477.15516-4.09378.41777-5.66821.78791 1.77432-2.9552 5.41891-5.10118 8.4915-6.74772-6.6343.53312-10.46337 1.90119-12.32925 3.97028 1.96635-4.57726 7.86461-10.02188 12.13959-11.44864-10.31566-1.00549-16.14909.29978-26.19382 11.74158-2.63912 3.00608-2.21929 5.93399-1.62627 8.59718.58562 2.62994 1.33386 4.9657-.86015 6.69055-5.38849 4.23585-7.70179 8.25067-7.89938 12.03938-1.72462 7.04088 4.89813 13.64299 13.98409 19.25769-.00009-.00006-.00017-.00011-.00026-.00017zm-77.22834-76.65819c-1.080479-3.23028-1.198998-5.78145.01201-7.25758.189831.12598.383471.24779.583418.36243 2.658949 2.91559 6.287752 5.46183 10.333563 7.71195-2.186654-2.12427-3.479701-4.2081-3.465493-6.10818 1.604284-.0229 3.342657-.25978 5.215287-.7315 4.606247-1.16047 4.792205 3.9848 5.821998 9.80655 1.020244 5.76777 2.928625 12.28775 9.773551 12.62162 4.261672.20793 6.44793-2.17895 9.274487-4.49036 2.934879-2.4 6.381384-4.59911 13.418029-5.00061-3.53455-3.13649-4.75312-3.60904-9.016522-3.1248-2.548775.28942-4.699371-1.11831-5.974041-2.89909 2.231288.44098 5.322428.23029 9.391993-1.00249-3.550669-.44206-7.715381-1.39562-10.002644-4.16702.606534-.60427 1.655522-.82981 3.233573-.43833 5.107849 1.26744 10.093201 2.94991 15.290241 2.95684 5.20598.007 10.29693-1.67134 15.72694-6.8693-1.54738.52294-2.92226.7888-4.21586.99273 2.55318-3.19975 3.15359-7.05492-2.76322-11.74756 2.56637 4.60353-.41006 11.99144-5.20032 11.04104-4.79244-.95086-7.31131-4.17147-10.68467-8.05433-3.57723-4.11751-7.603218-8.39396-16.64309-13.68445-.311611-.1825-.594147-.36961-.851123-.55996 2.378586-1.03047 5.380842-1.27836 7.957825-1.3905-2.079096-.80305-3.879842-1.35899-5.458622-1.6938 2.85818-1.90375 7.065935-2.29111 10.546343-2.47388-6.229747-2.32031-10.261975-2.71365-12.824276-1.64828 3.718793-3.27017 11.359885-5.65845 15.826533-5.14231-8.876788-5.21631-14.765824-6.48128-28.580418-.57634-3.65601 1.56266-4.534643 4.36496-5.143402 7.01388-.600575 2.6133-.927771 5.03844-3.636722 5.64838-6.653218 1.49769-10.446757 4.11082-12.249094 7.44924-4.566843 5.61372-1.450235 14.45841 4.303891 23.45628-.000056-.00009-.000111-.00018-.000167-.00027zm-35.365596-103.83068c.530651-3.44525 1.615607-5.80687 3.382338-6.53962.10971.20725.224767.41253.348783.61437.999234 3.93825 3.041654 7.99495 5.594446 11.94903-.962531-2.95157-1.144598-5.4499-.247678-7.14703 1.433175.75867 3.083577 1.38701 4.961137 1.86705 4.613868 1.17952 2.381534 5.8427.638402 11.52929-1.725624 5.62949-2.956339 12.37448 2.979172 15.80868 3.683832 2.13148 6.697557.98893 10.226945.2106 3.686918-.81307 7.690688-1.1997 14.112689 1.55938-1.736535-4.34017-2.582817-5.28668-6.576834-6.77982-2.384053-.89134-3.650448-3.1119-3.967562-5.26956 1.7707 1.40809 4.596662 2.62411 8.747154 3.36242-2.93316-1.9797-6.179764-4.70935-6.925509-8.207.812796-.25466 1.840407.0288 3.052119 1.09319 3.924879 3.44821 7.548668 7.1522 12.137025 9.45303 4.597412 2.30536 9.831585 3.03208 16.956075.83705-1.59812-.20789-2.929258-.56802-4.160573-.94901 3.70699-1.69063 5.935875-4.75745 2.94994-11.36626.102236 5.05231-5.855313 10.21751-9.639645 7.28324-3.781601-2.93218-4.526661-6.87667-5.663304-11.77043-1.219156-5.24901-2.678066-10.686-8.010932-19.65694-.183434-.3088-.339047-.60792-.47057-.89775 2.590327.24829 5.352661 1.47631 7.655369 2.59831-1.421487-1.68048-2.71895-3.02372-3.935994-4.0761 3.443701-.2739 7.335937 1.41594 10.449561 2.89444-1.170981-1.35111-2.266513-2.50715-3.310273-3.48652-2.819371-2.58073-5.143497-3.85022-7.135306-4.08392 4.857265-1.01685 12.756354.65002 16.462975 3.19702-5.40321-8.66174-9.676552-12.64961-24.79173-14.43764-3.961598-.4687-6.122103 1.52546-7.97542 3.54052-1.824233 1.98344-3.319597 3.95757-5.98685 3.14358-6.554535-2.00063-11.15655-1.60914-14.40769.46422-3.285181 1.30861-5.401399 4.22002-6.633112 8.17622-1.186671 4.21027-1.308453 9.47901-.815121 15.08628-.000009-.0001-.000018-.00021-.000027-.00032zm21.231996-108.36967c2.151952-2.64141 4.241959-4.09818 6.128421-3.85226-.0059.2284-.0063.45781.0026.68879-1.054633 3.80973-1.285971 8.25165-1.045308 12.88298.635193-2.98793 1.710007-5.19536 3.320991-6.193.866625 1.35051 1.984281 2.70043 3.370795 4.03873 3.410247 3.2915-.836074 6.17304-5.189974 10.15342-4.309932 3.94017-8.781158 9.07717-5.413471 15.03356 2.091897 3.70004 5.262227 4.24851 8.698933 5.3735 3.588195 1.17458 7.230794 2.87562 11.356131 8.51968.712961-4.61991.465781-5.86926-2.215053-9.18316-1.600214-1.97823-1.564388-4.53171-.745994-6.54912.813245 2.10788 2.631315 4.58813 5.830456 7.33293-1.520865-3.19794-2.932964-7.19561-1.812263-10.5865.829164.19034 1.57294.95303 2.079633 2.48431 1.641399 4.96141 2.878857 10.00215 5.658757 14.32224 2.785951 4.32949 6.920851 7.61788 14.172082 9.35378-1.270694-.99248-2.233399-1.98032-3.099788-2.93602 4.046127.42878 7.534664-1.07317 8.321677-8.36321-2.481143 4.47161-10.239636 5.88971-12.004002 1.42786-1.765595-4.46503-.401899-8.25773 1.087103-13.10343 1.57748-5.13364 3.088994-10.76637 2.83762-21.19367-.0086-.36015.0021-.69814.02892-1.01622 2.128115 1.47644 3.916872 3.89242 5.364779 6.01502-.407575-2.18125-.879224-3.99923-1.423866-5.51544 3.125836 1.42543 5.665395 4.79207 7.645148 7.6416-1.286385-6.49284-3.064793-10.12671-5.326375-11.74581 4.754432 1.43917 10.809696 6.67563 12.706478 10.73632-.17563-10.29425-2.098688-15.92115-14.560227-24.62241-3.272813-2.28533-6.129033-1.54561-8.704014-.6614-2.542137.87293-4.774855 1.87647-6.728165-.10679-4.798155-4.87217-9.033072-6.71922-12.812532-6.4868-7.172242-.91663-12.985952 6.41856-17.529647 16.1108.000044-.0001.000089-.00019.000133-.00028zm67.53125-85.360053c3.08665-1.432852 5.60751-1.833934 7.21189-.791825-.10361.203018-.20265.409364-.29387.621196-2.59504 2.971037-4.71654 6.866823-6.50043 11.143393 1.86693-2.411694 3.79251-3.929785 5.68306-4.126078.2035 1.595088.63437 3.300094 1.31348 5.112798 1.6707 4.459144-3.42878 5.213654-9.10219 6.879213-5.62217 1.650517-11.887474 4.264926-11.466604 11.112916.261952 4.26326 2.872895 6.17603 5.480304 8.73522 2.70677 2.65671 5.27079 5.8454 6.43566 12.79659 2.73439-3.8546 3.07245-5.1186 2.12537-9.30611-.56616-2.50361.59863-4.79736 2.2307-6.26088-.19416 2.26878.35371 5.32143 2.02391 9.23486.053-3.57946.5466-7.82889 3.05378-10.40942.66807.53741 1.0078 1.55689.79086 3.17048-.7026 5.22379-1.83468 10.36505-1.27776 15.53304.5578 5.17615 2.77817 10.05103 8.53696 14.88225-.68723-1.48009-1.10006-2.8168-1.44258-4.0798 3.45891 2.18933 7.36604 2.37442 11.40927-4.02023-4.31806 3.0558-11.99369.891-11.56556-3.9706.42885-4.86954 3.36278-7.72471 6.8673-11.51135 3.70683-4.00524 7.55258-8.50883 11.81565-18.107822.14724-.331247.3023-.634046.46342-.91175 1.29496 2.255017 1.87716 5.218402 2.27528 7.775562.57115-2.16345.92524-4.02215 1.0827-5.634112 2.22149 2.634232 3.07706 6.782982 3.64494 10.234352 1.63035-6.47593 1.56646-10.545038.21453-12.976325 3.68597 3.334181 6.93185 10.675115 6.91012 15.193725 4.24193-9.46714 4.87292-15.40175-2.65959-28.568628-1.98007-3.46131-4.87545-4.012949-7.58309-4.315486-2.6726-.298622-5.1239-.34856-6.04268-2.97812-2.25568-6.456693-5.29719-9.938767-8.82139-11.356775-6.10551-3.914425-14.52672.176497-22.81368 6.899911.00008-.000065.00016-.00013.00024-.000195zm98.43795-47.231517c3.44547.09755 5.90106.87082 6.85423 2.516522-.18817.133846-.37372.272712-.55473.41997-3.72172 1.475896-7.4287 3.992605-10.98113 7.004178 2.77504-1.31718 5.20255-1.808554 6.98657-1.138441-.55439 1.507145-.95306 3.212735-1.17683 5.124289-.54996 4.699035-5.43288 3.092972-11.26282 2.077494-5.77122-1.00525-12.58089-1.404357-15.22688 4.893279-1.64446 3.913772-.13769 6.76109 1.07581 10.169527 1.26507 3.553313 2.15513 7.488253.20356 14.207693 4.09965-2.264363 4.93789-3.230986 5.91748-7.378947.58508-2.477135 2.62629-4.011126 4.72242-4.598045-1.16933 1.932431-2.01705 4.887273-2.22933 9.099368 1.5985-3.163172 3.89287-6.725619 7.25897-7.912287.35625.771765.20783 1.825635-.69211 3.162553-2.91408 4.328534-6.14117 8.403338-7.86202 13.252622-1.7244 4.859293-1.81527 10.164707 1.24486 16.971241.0141-1.618298.21206-2.989741.44224-4.264323 2.14032 3.464916 5.48821 5.289338 11.72174 1.4189-5.04182.792161-10.92797-4.455797-8.47163-8.601759 2.45227-4.139014 6.28042-5.393131 10.99622-7.17583 5.04921-1.908733 10.26764-4.101571 18.38925-10.584921.27944-.222923.55299-.417148.82056-.586414.10436 2.579369-.73356 5.461804-1.53367 7.885707 1.46863-1.634008 2.61812-3.097822 3.48985-4.439745.73482 3.343123-.40434 7.39845-1.44976 10.67547 4.30226-4.911114 6.12363-8.481809 6.06601-11.264894 1.67103 4.662679 1.10363 12.653991-.92612 16.569241 7.86425-6.23086 11.2235-11.041005 10.91018-26.276302-.0823-4.002731-2.36246-5.870487-4.61265-7.421744-2.21586-1.527596-4.36649-2.721136-3.9304-5.47041 1.07349-6.765733.0505-11.25623-2.43425-14.14569-3.59718-6.294691-13.16597-6.486007-23.75592-4.188236.0001-.000022.0002-.000044.0003-.000066zm110.51073 6.829017c2.89327 1.828114 4.59538 3.733263 4.57862 5.632381-.2279.02053-.45615.04668-.6848.08231-3.91728-.604846-8.36471-.316129-12.94294.470715 3.05094.276627 5.37811 1.084381 6.56586 2.565076-1.2374 1.017627-2.44317 2.284618-3.60419 3.817465-2.85524 3.769841-6.23083-.09582-10.73328-3.938246-4.4524-3.799705-10.14931-7.627998-15.65451-3.541945-3.41803 2.536837-3.55548 5.763077-4.23192 9.318293-.70819 3.722091-1.93022 7.539135-7.00268 12.3813 4.68132.102921 5.88027-.299541 8.83209-3.385824 1.76061-1.840688 4.30099-2.126018 6.4064-1.565937-1.98995 1.070096-4.2228 3.186349-6.53911 6.712288 2.97906-1.919588 6.76482-3.822843 10.26827-3.132021-.0859.845882-.74981 1.677537-2.20432 2.371481-4.71249 2.24799-9.55067 4.120943-13.47404 7.447911-3.93444 3.336352-6.64879 7.884267-7.43426 15.321946.81595-1.398097 1.66754-2.488828 2.50019-3.478517.0921 4.082723 2.01336 7.305688 9.27768 7.116179-4.68611-1.854347-7.092-9.354192-2.89737-11.698696 4.18482-2.338984 8.11172-1.477352 13.0728-.615943 5.27909.916627 10.98024 1.705454 21.27184.217443.35497-.05121.69029-.08072 1.00782-.09179-1.21113 2.279635-3.39147 4.338495-5.31702 6.024734 2.10573-.665199 3.84554-1.347515 5.28062-2.066036-1.04581 3.259269-4.07875 6.174605-6.65723 8.47418 6.25357-2.055942 9.63604-4.232044 10.97852-6.663064-.87675 4.871108-5.36021 11.476964-9.14044 13.836831 10.11911-1.40795 15.45627-3.93493 22.6611-17.27456 1.89147-3.50187.83421-6.245233-.33771-8.695258-1.15641-2.417581-2.41011-4.514906-.67026-6.6766 4.27534-5.31146 5.61856-9.714582 4.94416-13.43594.0695-7.213012-7.9122-12.14807-18.12019-15.530255.0001.000033.0002.000066.0003.000099zm92.55822 57.470774c1.76512 2.90702 2.44132 5.366564 1.58016 7.07613-.21346-.08042-.42974-.155941-.65062-.223088-3.24209-2.248681-7.35281-3.926307-11.80325-5.22802 2.60435 1.589374 4.32639 3.334904 4.72912 5.191795-1.56511.378152-3.21459.994121-4.9439 1.868395-4.25403 2.150824-5.56255-2.835926-7.84096-8.288353-2.25805-5.403724-5.54751-11.336554-12.3086-10.168293-4.2077.726994-5.82032 3.528074-8.07549 6.396129-2.34218 2.978718-5.22625 5.870064-11.99603 7.788726 4.12324 2.291328 5.41286 2.489513 9.46757 1.091681 2.42397-.835566 4.82959.07049 6.4618 1.532-2.27515.05467-5.24692.931572-8.95039 3.017415 3.5584-.337732 7.83385-.310859 10.67119 1.899242-.46124.72246-1.43731 1.17111-3.06401 1.13125-5.26747-.12935-10.49149-.69415-15.55764.42333-5.07375 1.11916-9.66001 3.85683-13.82259 10.10107 1.39095-.84416 2.66987-1.40015 3.88378-1.87822-1.79555 3.67247-1.56157 7.57024 5.20873 10.89754-3.49213-3.96239-2.17039-11.82033 2.69294-11.92412 4.87563-.10403 8.02576 2.50134 12.16656 5.57707 4.37284 3.2481 9.27999 6.60081 19.29525 9.79658.34591.1105.66439.23189.95857.36206-2.10299 1.53709-4.98837 2.44026-7.49016 3.11509 2.21585.33417 4.10524.4845 5.72754.46539-2.3789 2.50281-6.4142 3.80721-9.78788 4.74758 6.62554.92503 10.67284.41471 12.94451-1.19979-2.91396 4.04266-9.86428 8.0833-14.36832 8.55043 9.90124 3.21399 15.89026 3.18636 28.16695-5.79121 3.227-2.35971 3.45309-5.30717 3.45333-8.03671.00023-2.69516-.2214-5.14023 2.29583-6.34781 6.18053-2.9646 9.31181-6.38269 10.33439-10.04378 3.22339-6.50734-1.77693-14.413554-9.3786-21.899728.00007.000073.00014.000146.00022.000219zm58.16389 92.111679c.31531 3.40969-.15343 5.92823-1.6662 7.07875-.15525-.16826-.31514-.33332-.48281-.49286-1.9114-3.47901-4.85059-6.81784-8.26393-9.95232 1.6394 2.57831 2.41907 4.91314 1.97166 6.75994-1.56032-.35602-3.29897-.53395-5.22103-.51367-4.7262.05-3.73185-4.98672-3.42112-10.88687.30766-5.84184-.094-12.63492-6.6637-14.50178-4.08686-1.16138-6.74053.67388-9.99165 2.2881-3.38319 1.67978-7.20281 3.04062-14.12359 1.88453 2.7397 3.8189 3.80904 4.54198 8.05293 5.02087 2.53558.28619 4.30621 2.13217 5.14262 4.14496-2.06308-.92855-5.10576-1.41571-9.32425-1.12415 3.3427 1.21498 7.16357 3.06861 8.75407 6.26964-.72371.44837-1.7899.4298-3.22961-.30317-4.66015-2.37284-9.11241-5.10352-14.15002-6.24899-5.04776-1.14779-10.35356-.62567-16.77144 3.2232 1.61648-.17225 3.00873-.13272 4.30812-.0503-3.19134 2.54128-4.61071 6.11516.0436 11.9038-1.43335-4.96459 3.08229-11.45941 7.51592-9.49406 4.4268 1.96236 6.14588 5.63052 8.51689 10.11881 2.53099 4.79113 5.39753 9.74907 12.8816 16.97128.25745.2486.4857.49496.68845.73852-2.5406.43506-5.5027-.0269-8.01289-.51399 1.81441 1.25177 3.41763 2.20547 4.86143 2.89739-3.21234 1.16016-7.37396.55064-10.76691-.0735 5.4476 3.65584 9.23009 4.99269 11.96856 4.57404-4.38249 2.26253-12.3499 2.74447-16.51429 1.22416 7.25926 7.02438 12.60684 9.67975 27.43424 7.36128 3.92676-.61393 5.46337-3.10826 6.69654-5.52864 1.21505-2.38482 2.11408-4.65984 4.88288-4.59223 6.80779.16656 11.10544-1.43658 13.64356-4.25564 5.75681-4.35982 4.7817-13.77775 1.24024-23.9274.00003.0001.00007.00019.0001.00029z" fill="#eed9f2"/><path d="m466.51252 298.41543c-3.40912 2.02059-6.55306 2.7248-8.77515-.68488 3.05584-3.11553 5.97067-2.62144 8.77515.68488zm-9.08905 8.82889c-.15163.50489-.37241 1.0605-.66775 1.67669-3.79069-1.4484-3.5074-3.23781-2.18124-7.58768 2.49047 1.9109 3.66764 3.18538 2.84916 5.9109-.00006.00003-.00011.00006-.00017.00009zm-1.96315-13.04301c-.33098 1.31932-1.04567 2.68172-2.19077 3.87736-5.0388 5.26117-10.03808.0981-9.40713-3.03843.39825-1.98015 3.00469 1.00788 5.45856-.8617 2.12585-1.61958-.41818-5.47471 2.13628-5.85622 3.15708-.47519 4.86046 2.46068 4.00302 5.87913.00001-.00005.00002-.0001.00004-.00014zm-37.68468 97.71409c-3.95426.24034-7.10168-.55281-7.57906-4.61324 4.13919-1.39549 6.52618.39383 7.57906 4.61324zm-12.08164 3.765c-.35957.38452-.80371.78351-1.34179 1.2038-2.78115-3.00107-1.73961-4.48867 1.39232-7.79109 1.39411 2.84201 1.89057 4.51161-.0503 6.58728-.00006.00001-.00013.00001-.00019.00001zm4.03493-12.57224c-.88938 1.02859-2.14201 1.92255-3.70756 2.47486-6.8754 2.42556-9.11692-4.42832-7.10677-6.99677 1.2552-1.60394 2.25364 2.26506 5.30505 1.70325 2.64346-.48663 2.10634-5.10251 4.57038-4.27129 3.04706 1.02404 3.23871 4.42994.93881 7.09005.00003-.00003.00006-.00007.00009-.0001zm-76.54905 71.6006c-3.66818-1.4848-6.14677-3.54971-4.80952-7.38883 4.32515.53178 5.70466 3.15667 4.80952 7.38883zm-12.51576-1.84168c-.49169.18781-1.06582.35183-1.73359.49389-1.17465-3.88476.41289-4.75632 4.66196-6.35702.0119 3.14068-.27431 4.84948-2.9282 5.86321-.00006-.00003-.00012-.00005-.00017-.00008zm9.10647-9.50284c-1.24478.53908-2.75782.80055-4.40253.62039-7.22599-.79157-6.23115-7.89458-3.34101-9.31904 1.81402-.89415 1.03822 2.99778 4.01705 3.8069 2.58057.70102 4.08732-3.66707 5.94369-1.86528 2.2979 2.22528 1.00382 5.36195-2.21733 6.75709.00004-.00002.00008-.00004.00013-.00006zm-101.73876 28.00411c-2.47425-3.14296-3.58805-6.18099-.47732-8.82833 3.51359 2.64593 3.41428 5.6155.47732 8.82833zm-10.01004-7.94116c-.52305-.0878-1.10556-.23814-1.75787-.45514.95487-3.9495 2.7723-3.88953 7.28097-3.12211-1.57968 2.71976-2.69903 4.05144-5.52298 3.57741-.00004-.00005-.00008-.00011-.00012-.00016zm12.75467-3.60743c-1.36097-.15963-2.81479-.69652-4.15736-1.68316-5.90338-4.3383-1.40237-9.97058 1.79322-9.75326 2.02208.13745-.61165 3.1199 1.57501 5.31969 1.89427 1.90574 5.40163-1.13424 6.12416 1.36201.89715 3.08641-1.80691 5.16839-5.33517 4.7547.00005.00001.0001.00001.00014.00002zm-101.5873-25.88978c-.68024-3.89591-.24027-7.10549 3.73923-8.02559 1.84498 3.95209.33626 6.51678-3.73923 8.02559zm-5.08185-11.57336c-.42177-.31468-.86726-.71175-1.34424-1.19974 2.6759-3.08946 4.26785-2.21766 7.89375.52743-2.66844 1.69509-4.2728 2.3711-6.54948.6725-.00001-.00006-.00002-.00013-.00003-.00019zm12.93356 2.62229c-1.11991-.76882-2.14637-1.91297-2.86786-3.40542-3.17087-6.55917 3.39677-9.52777 6.16058-7.81923 1.72926 1.06891-1.99994 2.48494-1.10527 5.44978.77499 2.56848 5.29524 1.52618 4.7445 4.06132-.6771 3.13392-4.03496 3.70218-6.93207 1.71347.00004.00003.00008.00005.00012.00008zm-79.721984-68.08039c1.05868-3.81763 2.826805-6.52645 6.803007-5.64941-.03083 4.36322-2.489334 6.0387-6.803007 5.64941zm.389134-12.64709c-.244138-.46577-.474251-1.01615-.693588-1.6621 3.726246-1.63245 4.781905-.16108 6.869048 3.87305-3.125347.38408-4.857621.30343-6.175516-2.21077.000018-.00006.000037-.00012.000056-.00018zm10.513807 7.92546c-.680114-1.17497-1.115047-2.64891-1.126377-4.30583-.04971-7.2729 7.12865-7.14152 8.891855-4.41983 1.102871 1.70227-2.863763 1.38561-3.324239 4.44541-.398982 2.65071 4.12561 3.64304 2.543758 5.69982-1.953319 2.54573-5.225792 1.61939-6.98507-1.41969.000024.00004.000048.00008.000073.00012zm-40.863851-96.96593c2.768774-2.936 5.609596-4.44706 8.714031-1.69978-2.108404 3.87328-5.067966 4.18724-8.714031 1.69978zm6.509324-11.13696c.01926-.53646.09329-1.14097.224901-1.82424 4.070524.41909 4.248088 2.24578 4.081976 6.87191-2.931249-1.20921-4.410948-2.15062-4.307018-5.04753.000047-.00005.000094-.0001.000141-.00014zm5.389017 12.27668c-.04135-1.37795.27893-2.90447 1.067086-4.38441.422424-.79319.895679-1.43422 1.397458-1.94125 2.560588-2.56139 5.788824-1.72082 7.442471 0 .660388.68581 1.086571 1.5223 1.147128 2.38622.142893 2.0375-3.203137-.1781-5.081914 2.30656-1.627652 2.15243 1.892753 5.21635-.478061 6.27752-2.924123 1.31283-5.386808-1.07101-5.494174-4.64479.000002.00005.000004.0001.000006.00015zm13.183942-104.37125c3.785598-1.12357 7.015316-1.05089 8.373783 2.79317-3.709064 2.28143-6.421189 1.08223-8.373783-2.79317zm10.905167-6.36477c.26507-.45425.609219-.94134 1.040052-1.46987 3.360526 2.30882 2.671601 3.98569.356452 7.89407-1.978146-2.45536-2.827438-3.9722-1.396689-6.42415.000062-.00002.000124-.00003.000185-.00005zm-1.151734 13.13245c.635562-1.19878 1.6539-2.3475 3.051902-3.2326 6.148571-3.89274 9.817353 2.29937 8.440115 5.22213-.863999 1.83374-2.687215-1.70203-5.523616-.47845-2.457219 1.05994-.912034 5.42151-3.485944 5.16639-3.181039-.31166-4.127142-3.57501-2.482391-6.67759-.000022.00004-.000044.00008-.000066.00012zm58.780178-86.781321c3.91513.629119 6.81216 2.086358 6.39096 6.145139-4.34488.457475-6.28701-1.806534-6.39096-6.145139zm12.61851-1.029487c.43511-.295702.95591-.587006 1.57297-.878471 2.05272 3.526157.71124 4.745791-3.06515 7.278736-.73854-3.070475-.85677-4.804012 1.49199-6.4003.00007.000012.00013.000023.00019.000035zm-6.68654 11.362359c1.09246-.808708 2.50998-1.406879 4.15778-1.604117 7.23084-.865491 7.92519 6.294808 5.40704 8.362424-1.57187 1.290742-1.70397-2.696975-4.80285-2.812748-2.68458-.100363-3.16479 4.517692-5.38964 3.170914-2.75315-1.662308-2.19713-5.025223.62778-7.116559-.00004.000028-.00007.000057-.00011.000086zm90.99195-52.171358c3.21344 2.326717 5.10548 4.942907 2.83469 8.344349-4.07997-1.570761-4.77912-4.445805-2.83469-8.344349zm11.7734 4.848598c.52931-.06084 1.13344-.07795 1.82365-.05004.14577 4.076935-1.63167 4.520254-6.18282 5.025906.78545-3.052935 1.50314-4.647686 4.35902-4.975982.00005.00004.0001.000079.00015.000119zm-11.2948 6.993628c1.34628-.219689 2.88559-.103562 4.44181.476352 6.86654 2.55879 4.02903 9.214592.90859 9.866641-1.98163.414158-.25635-3.167462-2.94762-4.685746-2.33142-1.31536-4.87398 2.550639-6.23254.354362-1.68119-2.710953.34115-5.442202 3.8299-6.011634-.00004.000008-.00009.000017-.00014.000025zm105.4516-.451161c1.57035 3.623339 1.87906 6.83118-1.77507 8.623637-2.70489-3.410265-1.84399-6.239207 1.77507-8.623637zm7.61377 10.07708c.48195.210718 1.00575.496107 1.58068.862726-1.8997 3.5943-3.6423 3.101474-7.79205 1.259331 2.20283-2.243268 3.60976-3.259619 6.2113-2.122235.00002.000059.00004.000119.00007.000178zm-13.16895.376727c1.26526.489618 2.52596 1.364798 3.56911 2.647024 4.5901 5.642145-1.13505 9.987102-4.18143 8.96941-1.91737-.640449 1.37135-2.860464-.1772-5.526545-1.34146-2.309677-5.48134-.263922-5.53696-2.844275-.0723-3.188674 3.05019-4.513309 6.32662-3.245564-.00005-.000016-.00009-.000033-.00014-.00005zm92.77864 48.648415c-.19611 3.96067-1.32836 7.0039-5.41522 7.03417-.93295-4.27017 1.10808-6.44954 5.41522-7.03417zm2.41419 12.43003c.34249.39971.69009.8851 1.04854 1.4662-3.28446 2.43559-4.64802 1.23744-7.58608-2.23824 2.97603-1.07524 4.68867-1.3858 6.53755.77185 0 .00007-.00001.00013-.00001.00019zm-12.0485-5.38971c.92487.99726 1.67604 2.34101 2.05361 3.95836 1.65715 7.09878-5.39444 8.58321-7.73074 6.30268-1.45777-1.42286 2.49741-1.99332 2.27242-5.0894-.19483-2.68216-4.84332-2.65256-3.74675-5.01317 1.35249-2.9202 4.76-2.73694 7.15156-.15837-.00004-.00003-.00007-.00007-.0001-.0001zm62.41683 84.18642c-1.90748 3.46679-4.25509 5.6731-7.90262 3.87126 1.04517-4.23068 3.80877-5.28483 7.90262-3.87126zm-3.3282 12.22453c.1267.51287.21972 1.10492.27937 1.78744-4.0017.67914-4.66907-1.01054-5.74262-5.4319 3.11651.37797 4.77952.8765 5.46335 3.6443-.00003.00005-.00007.00011-.0001.00016zm-8.32942-10.22961c.3856 1.30189.46338 2.83671.0861 4.44785-1.6603 7.09064-8.5907 5.19353-9.64397 2.17058-.66457-1.90715 3.09901-.6618 4.26075-3.51778 1.00648-2.47414-3.14208-4.49765-1.13547-6.12127 2.47793-2.00965 5.434-.35034 6.4326 3.02076-.00001-.00005-.00003-.00009-.00004-.00014z" fill="#6a1f7a"/><path d="m243.80738.0000099-1.09063.13584948c-35.41888 4.43106672-59.82155 40.59951962-59.82155 83.12258762 0 19.651093 5.56822 37.454143 14.70426 51.727993-12.74716 4.77236-23.43398 13.577-31.2798 24.4701-10.28356 13.93803-17.05408 31.13111-21.63257 50.58571-8.45581 34.61437-10.18679 74.72587-10.18679 110.10495v17.63363h43.95014l11.21618 153.86376 12.68374 2.91979c32.65474 7.51917 67.06561 6.96141 98.20952.0287l12.88655-2.86814 10.26141-153.94412h41.79186v-17.63362c0-35.13738-.29108-75.84863-8.04956-111.24149-4.17548-19.1552-10.62048-36.63706-20.73902-50.70434l-.065-.0899-.067-.0899c-8.268-11.19208-20.02936-19.7734-33.96233-24.18118 8.84907-14.18304 14.00013-31.64064 14.00013-50.581893-.00006-45.076231-28.42922-83.2584969-66.91065-83.2584969z" fill="#6a1f7a"/><path d="m244.90603 17.632878c-23.41353 2.929141-44.37799 30.026153-44.37799 65.626494 0 19.504748 6.66162 36.648568 16.45806 48.600248l11.9517 14.20487-18.31939 3.42876c-12.73539 2.44911-22.13999 9.30664-30.07515 20.37664-8.32699 11.26593-14.49874 26.35248-18.71123 44.28-7.83718 32.03443-9.69847 71.22027-9.69847 105.99771h42.71256l11.46184 157.23323c29.78126 6.85751 61.81566 6.36769 90.42136 0l10.4822-157.23323h40.65533c0-34.97337-.48986-74.84496-7.64124-107.46718-3.82064-17.53566-9.79649-33.01407-17.82958-44.18204-8.03308-10.87407-18.12345-17.4377-32.62223-19.69088l-18.51529-2.93894 11.65778-14.59673c9.69852-11.85372 16.06621-28.99753 16.06621-48.012458 0-37.755561-23.51151-65.626494-49.27619-65.626494z" fill="#eed9f2"/></svg>