<svg height="500" viewBox="0 0 500 500" width="500" xmlns="http://www.w3.org/2000/svg" xmlns:xlink="http://www.w3.org/1999/xlink"><filter id="a" color-interpolation-filters="sRGB" height="1.037501" width="1.037499" x="-.018749" y="-.018751"><feGaussianBlur stdDeviation="3.6743767"/></filter><g transform="translate(-1000 -500)"><circle cx="1250" cy="750" fill="#8f29a3" r="250"/><path d="m1250.0521 500.09326-.061 248.75004-15.9199-248.2399a249.99917 250.18666 0 0 0 -31.6776 4.06945l45.0428 231.17052c-.102.0363-.2268.0547-.3789.0547l2.377 12.94521-.25-.53361-.5352-1.34279-3.3574-10.61339c-.1814.0698-.3456.12506-.5117.12506l-.1211.0782-83.1951-220.24831a249.99917 250.18666 0 0 0 -14.7401 6.13348l96.9 214.60543-.2187.11532 2.3047 4.43886 2.3437 5.21678.055.0488.416.7486.7461 1.26658v.0314l-.7461-1.29782-.4707-.79746-5.5273-9.21c-.1841.12151-.3808.23754-.5664.39678l-123.4077-200.53639a249.99917 250.18666 0 0 0 -34.1776 25.40763l164.5483 186.40079-.3984-.58052.832 1.02616v.0508l-.3262-.32448-.094-.12903v-.006-.002l-176.1809-175.46484a249.99917 250.18666 0 0 0 -21.0273 24.05115l186.5306 143.42536-.1425.18569 10.4687 8.26398-2.0957-1.07698-9.4082-5.66242c-.1395.18156-.2273.33335-.3066.47301l-208.0031-109.74966a249.99917 250.18666 0 0 0 -7 14.40723l214.5266 96.34337c-.074.17741-.1655.3791-.2578.59419l12.1758 4.73596-.037-.0253.5254.23653-.4863-.21109.3574.18179.2129.0802-.2129-.0508v-.0295l-12.8066-4.08117c-.056.14944-.1255.33501-.1758.5082l-224.9661-68.33223a249.99917 250.18666 0 0 0 -8.7656 41.69908l246.1613 30.77687h-1.2363l-246.3644-14.82161a249.99917 250.18666 0 0 0 -.4219 14.51082 249.99917 250.18666 0 0 0 .6113 17.47203l234.4934-16.18786h-.027l.3066-.0234-.2773.0234 12.9687-.73492-7.6699 1.8549-.3028.0508-4.789.9382.07.23845-228.2004 55.91086a249.99917 250.18666 0 0 0 4.2871 15.37279l224.173-70.26921c.093.36314.1859.69573.2793.95971l11.9648-4.46623-6.7285 3.52803-218.2141 100.03556a249.99917 250.18666 0 0 0 21.0155 36.99246l204.0072-139.70972-2.9414 2.38851-191.599 150.2058a249.99917 250.18666 0 0 0 21.2792 23.80097l164.7143-167.43742c.2793.26396.5666.50585.8359.80333l7.6309-8.62753v-.0314l.7578-.86587.1855-.23653.7754-.84633.02-.0645.057-.0272-.023.15832-.1035.11531.051-.18179-.068.18179-1.3203 1.73762.6133-1.0457-.1856.20916-.7578.89715-2.5996 3.67852-4.2753 5.57643.287.1818-133.9214 192.92518a249.99917 250.18666 0 0 0 13.3768 8.68037l121.3629-200.99764c.1115.0698.2562.1641.4043.23263l6.9082-11.76855-.2793.71929-100.1481 226.51466a249.99917 250.18666 0 0 0 40.1346 13.79743l59.6931-236.78211-1.5742 9.22563.2364.0566-42.7675 230.89101a249.99917 250.18666 0 0 0 31.6386 3.76263l12.9316-234.50119c.2415.0238.455.0234.6602.0234h.031v-12.36276l.055-.87175.3809 3.35211.6328 9.85892c.1939 0 .3385-.0234.5058-.0234l27.248 233.23258a249.99917 250.18666 0 0 0 15.7831-2.3455l-42.1484-231.0161c.254-.028.4739-.0916.707-.11531l-2.0644-10.71502-.055-.13878-.3203-1.79235.018.0295.3575 1.90182 74.3923 234.18055a249.99917 250.18666 0 0 0 39.205-16.19959l-111.1503-215.75097 4.1406 6.7179.2696-.18569 120.6715 201.44522a249.99917 250.18666 0 0 0 26.2108-18.10533l-145.5071-184.32505c.254-.18717.4204-.39029.6562-.60397l-8.457-9.554 3.3672 3.03156 5.8437 5.83834.2872-.30686 174.8256 156.82795a249.99917 250.18666 0 0 0 10.2715-12.18293l-184.478-145.35845c.1296-.15783.305-.33279.4082-.48083l-9.3632-7.21437 211.5852 126.78601a249.99917 250.18666 0 0 0 18.7245-38.19257l-229.6555-89.16613 11.0274 3.36579.012-.18569 223.9289 70.91228a249.99917 250.18666 0 0 0 7.6836-30.99187l-231.1887-41.80463c0-.16199.037-.30149.037-.44955l-7.3671-.90693-4.5508-.79941 12.0312.70755c.03-.32965.029-.62841.029-.96361l235.009 1.78454a249.99917 250.18666 0 0 0 .011-2.19892 249.99917 250.18666 0 0 0 -.3809-13.81303l-234.6691 13.37131v-.33226l-11.7754.81114-2.207.14075 2.1641-.14075h.043l242.6422-45.60435a249.99917 250.18666 0 0 0 -11.2772-41.04821l-231.0032 85.65376-.2598.0684 10.5078-4.79069c-.1716-.35894-.395-.80876-.6601-1.20402l208.1651-109.51534a249.99917 250.18666 0 0 0 -7.877-13.90491l-200.7337 122.63837-.2109-.32833-5.6211 3.9033-4.707 2.86542 9.6699-7.59747-.1446-.20719 183.392-147.45376a249.99917 250.18666 0 0 0 -29.3651-30.85701l-161.2514 182.96656-2.3184 2.37091 151.2905-195.53064a249.99917 250.18666 0 0 0 -26.4154-17.96062l-119.2496 202.94829-.094-.0664-7.0644 11.68841 5.539-12.45265c-.2748-.15364-.5655-.24794-.8711-.35962l83.404-220.18189a249.99917 250.18666 0 0 0 -15.121-5.19332l-69.2811 225.07807c-.1088-.0378-.2229-.0651-.3808-.11531l-1.8809 7.53882-1.1289 3.69807 2.1055-11.46558c-.2011-.0197-.4082-.0561-.6133-.0743l40.1268-232.08917a249.99917 250.18666 0 0 0 -42.4354-3.64138zm-1.9453 235.66215 1.0117 8.77021v.043l.8711 4.45646v.46128l.029-.16807.023.62741v.1036l-.057-.1036v-.43977l-.066.30686-.2383-.49451-.5625-4.74964zm-9.3652 5.00568 7.0859 6.37391-.025-.0197zm25.7675 6.02013-11.8261 2.9006h-.057zm-12.1504.11531-1.6269 2.78332-.3496.40069.1113-.44954-.092.20719-.02.18179-.051.10553v-.0253l.051-.0802v-.16221l.02-.0197v-.10556l.012-.0234.082-.12118v-.0234l.033-.0272.061-.1505v.0197l-.061.13096-.033.0508zm-6.5292.23849 3.3242 2.54682.3633.56682-.4493-.16807.2012.13878h-.022l-.2188-.13878h.037zm5.0331.24627-.2968 1.58908.2968-.84047-.3339 1.37603-.1016.1505.1387-.68606.2617-1.56758zm-.582.38505-.086 1.71808-.057.19351-.1172-.46715zm3.1445.7447-2.2754 1.58908h-.023l-.4121.27757-.2871.11728.2129-.27557.074-.0215.8867-.71342zm-4.0429.57856.1348.14075v.0469l-.084-.1251zm3.8633.31665h.029l-.1738.0802zm-3.5254.18179.1835.3577v.0392l-.1835-.35376zm.416.0938.02.26385v.0392l.039.0958.047.11728-.047.0215-.039-.1192.039-.0197-.039-.0605v-.0352l-.057-.26192zm2.2207.0644-.07.0272-1.0156.30686.1562-.0605zm-5.6387.0665 2.3692.40655.3457.21498.029.0606-.3124.0644zm2.1641.31271h.053l.094.0314zm.7265.19155h.02v.0196zm-.164.0606h.02l.074.0802zm.2148.1818h.024l-.024.0314zm-.3359.16808h.057l.2461.0352-.8125.32836zm-.3887.0352h.2168l-.9316.47886.2637-.0527-.025.0272-.2383.0253-2.0253.39287v.0234l-5.2422.93428 5.2422-.95774zm1.7774.0234.5078.043.7519.2228-.8457-.0841zm-.2188.16418.035.0178.1113.22088.3282.16611 1.4394 1.4034-1.3496-1.00858-.2344-.2971-.1855-.26385-.018-.0333-.092-.18766h-.035zm-1.0625.0802-.25.27364h-.029l-2.7812 1.26461 2.2988-1.41316zm1.5703.0997.1485.0253.031.0314zm.2207.0253 1.9356.60398-1.9063-.57074zm-1.1796.17201.031.1251.022-.0978-.022.13092v.006l.076.23066.125 1.89594-.2324-1.35256.031-.77402-.088.50819v-.0919l-.031-.18569.031.14272v-.26385zm.7226.0919.061.0664.088.14661-.037-.0314zm-1.1406.1818-.2442.52578-3.9492 12.85138 3.9219-12.85138h.027l.084-.28732.01-.0117zm-.088.10552-.065.11339.041-.0978zm1.4648.0802.033.0234.1152.18962-.092-.0919zm-.4375.21306.023.0295.029.22669zm-1.7304.26581v.0295l.051-.0295zm2.2929 1.35257 4.8828 10.7893-4.8828-10.73457z" fill="#aa40bf"/></g><path d="m279.14258 15.064453c-18.63429-.719385-41.65492 24.134604-28.50215 40.834822 13.74801 5.13675 20.30251 7.77544 13.43977 23.270818 2.20371 22.320167 36.69166 10.810716 23.24969-8.144616 3.50851-7.203014 30.51391-4.975406 24.14399-24.41683-.02909-17.248663-14.38163-33.048747-32.3313-31.544194zm-104.52539 12.869141c-25.25499.0063-40.28989 32.408878-26.24768 52.543979 10.51639 9.491924 29.67903-9.619486 28.74171 11.990008 11.46474 23.783609 41.73449-6.774629 16.44775-17.318602 7.49901-7.558204 21.33751-26.039129 3.57768-37.452623-5.90442-5.932662-14.02701-9.966677-22.51946-9.762762zm200.68554 31.289062c-23.86395-1.627563-40.28558 25.349083-18.91334 40.231407-24.19759 7.677367-4.0388 47.124307 11.63795 25.751017-1.21497-25.496952 33.86609 8.26428 36.91339-22.31853 9.88432-20.521828-7.21836-44.967811-29.638-43.663894zm-287.066402 33.167969c-25.811444.165052-37.822595 34.870755-21.625432 53.406995 11.76951 26.42968 31.181917-16.14148 41.111034 6.23784 20.74973 16.13683 34.78145-25.28205 7.37164-22.74644.56414-9.39705 7.22611-33.256407-14.69754-35.112281-3.919411-1.249257-8.042453-1.897742-12.159702-1.786114zm348.699222 50.816405c-20.31008-3.69016-22.96999 18.15219-18.63857 30.55359-24.89162-4.03757-23.99477 40.05338-.88682 27.4386 10.93778-22.10357 26.08759 22.74599 42.66176-1.98496 21.57437-15.36237 11.04466-51.93246-14.59902-55.28586l-4.2495-.59952zm-388.804691 45.26563c-22.336902-1.73934-40.0750421 22.59078-30.900518 43.19589 6.450386 22.3385 43.788643 32.24546 45.705689 1.8311 16.576822 14.09135 44.6406-17.36879 17.567876-23.29848-24.454349 14.2912-5.060639-27.84891-32.373047-21.72851zm403.433591 57.54101c-15.02569 6.1336-10.47945 29.14697-30.6407 18.0569-25.0985 5.61278-7.3801 36.56136 12.42195 23.31422-6.98211 32.32289 41.37169 29.82787 49.124 5.67492 9.48347-21.51367-8.07004-46.2529-30.90525-47.04604zm-396.582028 46.89649c-22.093796 4.17165-36.078511 33.44015-19.990152 51.35444 11.445931 18.28044 55.904283 18.47698 47.584446-10.47484-7.733265-14.17498 30.191624-10.18536 17.129597-30.55376-12.515093-23.10722-26.068647 19.53958-35.123131-5.88974-2.729395-2.26273-5.974282-4.20216-9.60076-4.4361zm327.173828 51.61132c-22.5748 4.34287-12.5837 28.14376 5.8867 28.04102-21.63703 24.53948 20.38263 45.76321 39.42487 29.85247 20.14597-13.47052 16.23649-48.52367-5.76276-57.45403-13.08492-.90789-20.58359 21.72906-29.55616 2.90892-2.75376-2.34575-6.4093-3.47665-9.99265-3.34838zm-241.89453 23.90235c-13.7224 2.94505-7.10946 28.54788-25.15271 14.09454-27.288384-1.78799-30.520151 46.23381-6.01298 54.66459 18.45393 12.45541 60.30489-7.85609 39.33766-30.5178-13.91934-9.12776 21.84849-22.65062 1.35652-35.10514-2.71665-2.04976-6.11593-3.2103-9.52849-3.13619zm169.21289 30.18359c-19.87076 2.18621-13.05917 21.12824-1.61133 28.67383-30.84991 11.65063-2.76329 50.65807 21.65732 44.40242 23.67355-3.03427 36.02139-35.43215 20.70723-53.22163-14.78286-3.97027-27.37072 6.56389-29.33735-14.33887-2.68303-3.45568-7.01163-5.65288-11.41587-5.51575zm-88.09961 9.51172c-23.30204.59773 4.00772 32.31538-21.88066 26.3052-25.11047 11.49433-4.35384 55.08408 21.19503 50.51022 22.68408 2.37968 48.95191-36.93063 19.11853-45.93522-17.38277-.19642 10.00383-31.94562-18.4329-30.8802z" fill="#eed9f2" filter="url(#a)"/><g transform="matrix(1.0999859 0 0 1.0999859 -24.99652 -24.99652)"><path d="m459.48446 282.57193c2.00106-11.24553-2.65041-19.79114-8.67543-25.10685-6.07049-5.3556-13.68094-7.46508-17.2848-7.46508-1.05217 0-2.36271.87494-3.24472 1.70162-1.4992 1.40516-2.28829 3.42995-3.24821 5.20212-.98272 1.81428-1.9105 3.65739-2.58197 5.5663-.53682 1.52609-.76887 3.14089-1.13659 4.70668-.31593 1.3453-.65225 2.68372-.95199 4.0273-3.36047-1.75062-7.08163-3.22263-10.42504-4.04593-3.15224-.7609-5.98946-.93501-7.31271-.6105-3.02293.74129-4.86614 2.23638-5.97693 4.06582-1.11002 1.8285-1.45367 4.05622-1.19344 6.11342.25963 2.05195 1.15839 3.9587 2.29029 5.00749 1.12982 1.04685 2.30475 1.46594 4.26474.66488 7.01133-2.86581 12.26656-2.38417 16.65741-1.43711-.33698 2.86852-.67449 5.7685-.54115 8.67808.0677 1.47811.35255 2.96919.77126 4.41231.46442 1.6007 1.01011 3.25052 1.92001 4.67603.62892.98531 1.51185 2.28592 2.4224 2.5811 3.48028 1.12618 11.1427 1.7607 18.37709-.71003 7.18394-2.45398 14.07569-7.94519 15.86978-18.02765zm-45.7957 98.78681c7.05686-8.65264 7.13942-18.24472 4.58977-25.81708-2.56704-7.62345-7.92435-13.32542-11.00145-15.19414-.89365-.54272-2.45404-.47609-3.63204-.22562-2.00317.42592-3.71733 1.75133-5.45642 2.78645-1.7776 1.05805-3.52652 2.17919-5.08689 3.49575-1.24905 1.05389-2.27446 2.34038-3.39368 3.52387-.96025 1.01539-1.93468 2.01942-2.87658 3.04768-2.04505-3.20775-4.53847-6.37328-7.02151-8.76869-2.35454-2.25019-4.73224-3.82282-6.06356-4.1957-3.03553-.85025-5.45033-.42892-7.39871.66734-1.94795 1.09623-3.42248 2.93646-4.26025 4.92148-.83586 1.98065-1.01263 4.13509-.54009 5.62886.47168 1.49103 1.30544 2.4315 3.44931 2.66071 7.64787.81747 12.06811 3.86547 15.44769 6.84308-1.72407 2.37162-3.45277 4.77878-4.75749 7.42773-.66278 1.34562-1.13585 2.80775-1.4637 4.29191-.36372 1.64656-.67455 3.37367-.55099 5.07669.0854 1.17758.24692 2.75342.91497 3.45202 2.55229 2.66616 9.05425 6.89212 16.61605 8.23572 7.52147 1.33597 16.14545-.0842 22.48557-7.85806zm-86.76317 65.04695c10.36117-4.3309 14.90737-12.74302 16.15793-20.60557 1.25893-7.91625-.86748-15.44582-2.7362-18.52292-.54281-.8938-1.9582-1.55426-3.11827-1.87494-1.97219-.54516-4.10232-.15888-6.11645-.0421-2.05979.11942-4.11965.30744-6.10123.75346-1.58508.35678-3.08104 1.02157-4.60882 1.54962-1.31205.45349-2.62867.88853-3.92923 1.35919-.32208-3.77032-1.06342-7.70888-2.14995-10.96791-1.03943-3.07001-2.40931-5.55385-3.40398-6.49538-2.26898-2.14783-4.56369-2.88783-6.74767-2.82482-2.18348.0632-4.28519.99288-5.90032 2.3368-1.61136 1.34085-2.73717 3.13745-3.00754 4.66041-.26979 1.51976.0179 2.73438 1.76334 3.94074 6.24861 4.31843 8.69317 8.99866 10.27763 13.20244-2.60239 1.275-5.22528 2.5704-7.5967 4.2673-1.20459.86196-2.30076 1.9132-3.28333 3.05045-1.08982 1.2614-2.17611 2.61762-2.87626 4.15678-.48389 1.06376-1.09438 2.51255-.84645 3.43677.94952 3.53207 4.59335 10.30252 10.60323 15.02818 5.9748 4.69747 14.30626 7.4847 23.62027 3.59151zm-109.49779 13.07872c11.24553 2.00108 19.79114-2.65038 25.10686-8.6754 5.35561-6.07048 7.4651-13.68093 7.46511-17.28478 0-1.05217-.87494-2.36271-1.70162-3.24473-1.40515-1.4992-3.42994-2.28829-5.20212-3.24821-1.81427-.98272-3.65738-1.9105-5.56629-2.58198-1.52609-.53682-3.14089-.76888-4.70668-1.13659-1.3453-.31593-2.68372-.65226-4.0273-.952 1.75062-3.36047 3.22265-7.08163 4.04595-10.42504.76091-3.15223.93502-5.98946.61051-7.3127-.74129-3.02293-2.23638-4.86615-4.06582-5.97694-1.8285-1.11002-4.05621-1.45368-6.11342-1.19345-2.05194.25963-3.9587 1.15838-5.00748 2.29028-1.04686 1.12983-1.46595 2.30476-.66489 4.26474 2.8658 7.01134 2.38415 12.26657 1.43708 16.65741-2.86852-.33698-5.7685-.67449-8.67808-.54116-1.47811.0677-2.96918.35255-4.4123.77126-1.6007.46442-3.25052 1.01011-4.67603 1.92-.98532.62892-2.28593 1.51185-2.58111 2.4224-1.12619 3.48027-1.76071 11.1427.71 18.37709 2.45398 7.18395 7.94518 14.07569 18.02763 15.8698zm-98.78675-45.79582c8.65263 7.05687 18.24472 7.13944 25.81708 4.5898 7.62345-2.56703 13.32542-7.92434 15.19415-11.00143.54272-.89365.47609-2.45404.22563-3.63204-.42592-2.00317-1.75133-3.71734-2.78645-5.45642-1.05805-1.77761-2.17918-3.52653-3.49574-5.0869-1.05389-1.24905-2.34038-2.27446-3.52387-3.39368-1.01538-.96025-2.01942-1.93469-3.04767-2.87659 3.20775-2.04504 6.37328-4.53846 8.76869-7.0215 2.25019-2.35453 3.82283-4.73223 4.19571-6.06355.85025-3.03553.42893-5.45033-.66734-7.39871-1.09622-1.94795-2.93644-3.42248-4.92147-4.26026-1.98064-.83586-4.13509-1.01263-5.62886-.54009-1.49103.47168-2.4315 1.30543-2.66071 3.44931-.81748 7.64786-3.86549 12.0681-6.8431 15.44767-2.37162-1.72406-4.77878-3.45277-7.42772-4.75749-1.34562-.66278-2.80775-1.13585-4.29191-1.4637-1.64656-.36374-3.37367-.67456-5.07669-.551-1.17758.0854-2.75342.24691-3.45202.91496-2.66617 2.55229-6.89213 9.05425-8.23574 16.61604-1.33598 7.52147.0842 16.14546 7.85803 22.48558zm-65.04684-86.76325c4.330882 10.36118 12.742999 14.90739 20.60555 16.15796 7.916249 1.25894 15.445818-.86746 18.522918-2.73618.893803-.5428 1.554261-1.9582 1.874942-3.11827.545161-1.97219.158886-4.10232.04212-6.11645-.119416-2.05979-.307431-4.11965-.753454-6.10123-.356774-1.58508-1.021563-3.08104-1.549615-4.60882-.453485-1.31205-.88852-2.62866-1.359186-3.92923 3.770323-.32208 7.708882-1.06341 10.967915-2.14993 3.07001-1.03943 5.55385-2.40931 6.49538-3.40398 2.14783-2.26898 2.88784-4.56369 2.82483-6.74766-.0632-2.18348-.99287-4.2852-2.33678-5.90033-1.34085-1.61136-3.13746-2.73717-4.66042-3.00754-1.51976-.26979-2.73437.0179-3.94074 1.76333-4.318439 6.24861-8.998662 8.69316-13.202449 10.27762-1.274996-2.6024-2.570392-5.22528-4.26729-7.59671-.861954-1.20459-1.913195-2.30076-3.050446-3.28333-1.261396-1.08983-2.617617-2.17612-4.15678-2.87627-1.063757-.48389-2.512547-1.09438-3.436766-.84646-3.53207.94952-10.302529 4.59334-15.02819 10.60321-4.697484 5.9748-7.484725 14.30625-3.591539 23.62027zm-13.078573-109.4978c-2.001091 11.24552 2.650356 19.79113 8.675364 25.10686 6.070471 5.35561 13.680915 7.46512 17.284771 7.46513 1.052167 0 2.362712-.87493 3.244726-1.70161 1.499204-1.40515 2.288296-3.42994 3.248223-5.20211.982726-1.81427 1.910507-3.65738 2.581988-5.56629.536819-1.52609.76888-3.14089 1.136595-4.70668.315937-1.3453.652266-2.68372.95201-4.0273 3.360465 1.75063 7.081619 3.22266 10.425025 4.04597 3.152235.76091 5.989459.93502 7.312702.61052 3.022934-.74128 4.866149-2.23637 5.976949-4.06581 1.11002-1.8285 1.45368-4.05622 1.19345-6.11342-.25962-2.05194-1.15837-3.9587-2.29027-5.00749-1.129822-1.04686-2.304751-1.46595-4.264738-.66489-7.011336 2.86579-12.26657 2.38413-16.657411 1.43706.336986-2.86852.674505-5.7685.541173-8.67808-.06773-1.47811-.352547-2.96919-.771249-4.41231-.464417-1.6007-1.010106-3.25052-1.919999-4.67603-.628921-.98531-1.511845-2.28593-2.422397-2.58111-3.480269-1.12619-11.142695-1.76073-18.37709.70998-7.183947 2.45397-14.075703 7.94516-15.869822 18.02761zm45.795939-98.7867c-7.056875 8.65263-7.139463 18.24471-4.589827 25.81708 2.567016 7.62345 7.92432 13.32543 11.001411 15.19416.893648.54272 2.454037.47609 3.63204.22563 2.003171-.42591 3.71734-1.75132 5.45643-2.78644 1.7776-1.05804 3.52653-2.17917 5.0869-3.49573 1.24905-1.05389 2.27446-2.34038 3.39368-3.52387.96025-1.01538 1.93469-2.01941 2.87659-3.04767 2.04504 3.20776 4.53846 6.37329 7.02149 8.7687 2.35453 2.2502 4.73223 3.82284 6.06355 4.19572 3.03553.85025 5.45033.42894 7.39871-.66733 1.94795-1.09622 3.42249-2.93644 4.26027-4.92146.83586-1.98065 1.01264-4.13509.5401-5.62887-.47168-1.49103-1.30544-2.43149-3.44931-2.66071-7.64786-.81749-12.06809-3.8655-15.44767-6.84312 1.72407-2.37161 3.45278-4.77877 4.75751-7.42772.66278-1.34561 1.13585-2.80774 1.4637-4.2919.36374-1.64656.67457-3.37367.55101-5.07669-.0854-1.17758-.24692-2.75342-.91496-3.45202-2.55229-2.66617-9.05424-6.89214-16.61603-8.23576-7.52147-1.33599-16.145459.0842-22.485594 7.858zm86.763334-65.046734c-10.36119 4.33087-14.90741 12.742981-16.15799 20.60553-1.25895 7.916248.86744 15.44582 2.73616 18.522922.5428.893804 1.95819 1.554263 3.11827 1.874946 1.97218.545162 4.10231.15889 6.11644.04213 2.0598-.119413 4.11965-.307425 6.10124-.753446 1.58508-.356772 3.08103-1.021559 4.60882-1.54961 1.31205-.453483 2.62866-.888516 3.92923-1.35918.32207 3.770323 1.0634 7.708883 2.14992 10.967912 1.03942 3.07001 2.4093 5.55386 3.40396 6.49539 2.26898 2.14783 4.56369 2.88784 6.74767 2.82484 2.18348-.0632 4.28519-.99287 5.90033-2.33678 1.61136-1.34085 2.73717-3.13745 3.00754-4.66041.2698-1.51976-.0179-2.73438-1.76332-3.94074-6.24861-4.31845-8.69315-8.998676-10.2776-13.202465 2.60239-1.274992 5.22528-2.570385 7.59671-4.267279 1.20459-.861953 2.30076-1.913193 3.28333-3.050442 1.08983-1.261394 2.17613-2.617614 2.87628-4.156776.48389-1.063756 1.09439-2.512545.84646-3.436765-.94951-3.532071-4.59332-10.302535-10.60319-15.028204-5.97479-4.697491-14.30624-7.484743-23.62026-3.591569zm109.49782-13.078422c-11.24552-2.001105-19.79114 2.65033-25.10687 8.67533-5.35562 6.070463-7.46514 13.680903-7.46516 17.284758 0 1.052167.87493 2.362713 1.70161 3.244728 1.40515 1.499206 3.42993 2.288301 5.20211 3.248231 1.81427.982728 3.65737 1.910512 5.56628 2.581995 1.52609.536822 3.14088.768885 4.70668 1.136603 1.34529.315938 2.68371.652269 4.02729.952015-1.75063 3.360463-3.22266 7.081614-4.04598 10.425019-.76091 3.152233-.93503 5.989457-.61053 7.3127.74128 3.022935 2.23637 4.866157 4.0658 5.976947 1.8285 1.11003 4.05622 1.4537 6.11342 1.19347 2.05195-.25962 3.9587-1.15837 5.0075-2.29027 1.04685-1.129816 1.46595-2.304744.6649-4.264732-2.86579-7.011341-2.38412-12.266574-1.43705-16.657413 2.86852.33699 5.7685.674513 8.67808.541184 1.47811-.06773 2.96919-.352542 4.41231-.771242 1.6007-.464415 3.25052-1.010102 4.67604-1.919993.98531-.62892 2.28593-1.511842 2.58111-2.422394 1.1262-3.480267 1.76074-11.142692-.70995-18.37709-2.45396-7.183951-7.94514-14.075713-18.02759-15.869846zm98.78663 45.79606c-8.65261-7.056885-18.2447-7.139484-25.81707-4.589857-7.62345 2.567008-13.32544 7.924305-15.19417 11.001394-.54272.893647-.4761 2.454036-.22564 3.632039.42591 2.003172 1.75132 3.71734 2.78644 5.45643 1.05804 1.77761 2.17917 3.52653 3.49573 5.08691 1.05388 1.24905 2.34037 2.27446 3.52386 3.39369 1.01538.96025 2.01941 1.93469 3.04766 2.87659-3.20775 2.04504-6.37329 4.53845-8.76871 7.02148-2.2502 2.35453-3.82283 4.73223-4.19572 6.06355-.85026 3.03552-.42894 5.45032.66732 7.3987 1.09622 1.94796 2.93644 3.42249 4.92146 4.26027 1.98064.83587 4.13509 1.01265 5.62886.54011 1.49103-.47168 2.4315-1.30543 2.66072-3.4493.8175-7.64786 3.86551-12.06809 6.84314-15.44766 2.37161 1.72407 4.77876 3.45278 7.42771 4.75751 1.34562.66278 2.80775 1.13586 4.2919 1.46371 1.64656.36374 3.37367.67457 5.07669.55101 1.17758-.0854 2.75342-.24691 3.45202-.91495 2.66618-2.55229 6.89215-9.05423 8.23578-16.61603 1.336-7.52146-.0842-16.145451-7.85798-22.485596zm65.04664 86.763406c-4.33086-10.36119-12.74297-14.90741-20.60551-16.15801-7.91625-1.25896-15.44582.86743-18.52293 2.73614-.8938.5428-1.55426 1.95819-1.87495 3.11826-.54516 1.97219-.15889 4.10232-.0421 6.11645.11941 2.05979.30742 4.11965.75344 6.10123.35677 1.58509 1.02155 3.08104 1.5496 4.60883.45348 1.31205.88851 2.62866 1.35918 3.92923-3.77033.32207-7.70889 1.06339-10.96792 2.1499-3.07001 1.03942-5.55386 2.4093-6.49539 3.40396-2.14784 2.26898-2.88785 4.56368-2.82485 6.74766.0632 2.18348.99286 4.28519 2.33677 5.90033 1.34085 1.61136 3.13744 2.73718 4.66041 3.00755 1.51975.2698 2.73437-.0179 3.94074-1.76332 4.31846-6.2486 8.99869-8.69313 13.20248-10.27758 1.27499 2.6024 2.57038 5.22529 4.26727 7.59672.86195 1.20459 1.91319 2.30077 3.05044 3.28334 1.26139 1.08983 2.61761 2.17612 4.15677 2.87628 1.06375.48389 2.51254 1.09439 3.43676.84646 3.53207-.9495 10.30254-4.5933 15.02822-10.60317 4.6975-5.97478 7.48476-14.30623 3.5916-23.62026z" fill="#6a1f7a"/><path d="m455.66625 281.88246c-1.71735 9.59457-7.73822 17.22147-15.61228 15.03558-3.66519-1.01722-6.10251-3.89463-7.53204-7.40761 1.15246-.0329 2.30557-.0717 3.45932-.11631-.009-.9005-.0258-1.79957-.049-2.69712-3.97298.20844-7.93837.34746-11.89642.41733 0 0 .28736-6.69451.77344-9.94264.41908-2.80009 1.90359-8.36827 1.90359-8.36827 3.64321.7677 7.27716 1.5574 10.9107 2.36928.19066-.87943.37467-1.76138.55195-2.64583-1.40659-.29126-2.81389-.57922-4.22187-.86386 2.37658-4.08281 6.34772-7.16038 12.14801-6.89352 7.94387.36564 11.39898 10.86473 9.56458 21.11297zm-44.98237 96.97914c-6.05045 7.39139-14.96282 11.14523-20.87959 5.39599-2.75405-2.67571-3.53423-6.38757-3.09573-10.17952 1.03266.53397 2.06817 1.06379 3.10648 1.58944.42596-.7948.84599-1.59124 1.26007-2.38925-3.59729-1.76891-7.16147-3.58713-10.69225-5.45502 0 0 3.54569-5.77271 5.59327-8.38982 1.7679-2.25957 5.86387-6.37904 5.86387-6.37904 2.7824 2.49735 5.54938 5.00699 8.30848 7.53361.60029-.66578 1.19644-1.33586 1.7884-2.01019-1.07589-.96005-2.1535-1.91789-3.23281-2.87354 4.11238-2.3428 9.05885-2.94412 13.91209.23794 6.62137 4.34152 4.52835 15.02701-1.93228 22.9194zm-85.23995 63.9582c-8.87132 3.69548-18.53662 2.80591-20.9916-4.99515-1.14204-3.62812-.058-7.23917 2.10945-10.34775.65393.94971 1.31286 1.89695 1.97678 2.84169.74894-.49664 1.4929-.99801 2.23187-1.50401-2.32938-3.22528-4.60024-6.47994-6.81155-9.76461 0 0 5.78314-3.39636 8.78823-4.74513 2.5906-1.16269 8.09485-2.90129 8.09485-2.90129 1.30022 3.48513 2.57976 6.97364 3.84303 10.47316.83897-.30896 1.67634-.62398 2.51202-.94501-.50566-1.34281-1.01405-2.68453-1.52516-4.02515 4.71275-.16834 9.37264 1.57794 12.20161 6.63034 3.86176 6.89721-2.96821 15.34171-12.42953 19.28291zm-107.32665 12.8464c-9.59457-1.71736-17.22146-7.73824-15.03556-15.6123 1.01722-3.66518 3.89464-6.1025 7.40762-7.53202.0329 1.15245.0717 2.30557.1163 3.45932.9005-.009 1.79958-.0258 2.69713-.049-.20844-3.97299-.34745-7.93837-.41732-11.89642 0 0 6.69451.28737 9.94264.77345 2.80009.41908 8.36827 1.9036 8.36827 1.9036-.76771 3.64321-1.55741 7.27716-2.3693 10.9107.87943.19066 1.76139.37467 2.64583.55195.29126-1.40659.57922-2.81388.86387-4.22187 4.08281 2.37659 7.16037 6.34774 6.8935 12.14802-.36565 7.94387-10.86474 11.39896-21.11298 9.56455zm-96.97908-44.98249c-7.39139-6.05046-11.14522-14.96282-5.39597-20.87959 2.67571-2.75405 6.38758-3.53423 10.17952-3.09572-.53397 1.03266-1.06379 2.06816-1.58944 3.10647.7948.42597 1.59124.846 2.38925 1.26008 1.76891-3.59729 3.58713-7.16146 5.45503-10.69225 0 0 5.77271 3.5457 8.38982 5.59328 2.25956 1.76791 6.37902 5.86388 6.37902 5.86388-2.49734 2.7824-5.00699 5.54938-7.53361 8.30848.66578.60028 1.33586 1.19644 2.01018 1.78839.96005-1.07588 1.9179-2.15349 2.87355-3.2328 2.34279 4.11238 2.94411 9.05885-.23796 13.91209-4.34152 6.62137-15.02701 4.52833-22.91939-1.93231zm-63.958098-85.24002c-3.695469-8.87133-2.805886-18.53662 4.995169-20.9916 3.628129-1.14204 7.239176-.058 10.347756 2.10947-.949717.65392-1.896957 1.31286-2.841694 1.97677.496636.74894.998002 1.4929 1.504001 2.23187 3.225285-2.32937 6.479953-4.60023 9.764624-6.81153 0 0 3.396346 5.78314 4.745117 8.78823 1.162685 2.59061 2.901277 8.09486 2.901277 8.09486-3.485135 1.30022-6.973646 2.57975-10.473162 3.84301.308957.83898.623972 1.67635.945002 2.51203 1.342811-.50566 2.684533-1.01405 4.025157-1.52516.168337 4.71275-1.577955 9.37264-6.630358 12.2016-6.897217 3.86175-15.341708-2.96823-19.282889-12.42955zm-12.846258-107.32667c1.717371-9.59457 7.738268-17.22145 15.61232-15.03554 3.665184 1.01723 6.102499 3.89465 7.532015 7.40763-1.152453.0329-2.305569.0717-3.45932.1163.0094.9005.02574 1.79957.04897 2.69712 3.972986-.20843 7.938374-.34744 11.896425-.4173 0 0-.287385 6.69451-.773471 9.94264-.419083 2.80009-1.90361 8.36827-1.90361 8.36827-3.643209-.76772-7.277156-1.55743-10.910698-2.36932-.190662.87943-.374671 1.76139-.551953 2.64583 1.406591.29127 2.813884.57923 4.22187.86388-2.376598 4.0828-6.347744 7.16035-12.148028 6.89348-7.943865-.36566-11.398949-10.86476-9.564523-21.11299zm44.982609-96.97903c6.050467-7.39138 14.962837-11.14519 20.879607-5.39593 2.75404 2.67571 3.53421 6.38757 3.0957 10.17952-1.03266-.53397-2.06816-1.06379-3.10647-1.58945-.42597.7948-.846 1.59124-1.26008 2.38925 3.59728 1.76891 7.16146 3.58714 10.69224 5.45504 0 0-3.5457 5.77271-5.59329 8.38981-1.76791 2.25957-5.86389 6.37902-5.86389 6.37902-2.7824-2.49735-5.54937-5.007-8.308461-7.53363-.600289.66579-1.196447 1.33587-1.7884 2.01019 1.075887.96005 2.153491 1.9179 3.232801 2.87355-4.112383 2.34279-9.058856 2.9441-13.912094-.23797-6.621361-4.34153-4.528308-15.02702 1.932337-22.9194zm85.240097-63.957989c8.87134-3.695459 18.53663-2.805863 20.9916 4.995194 1.14203 3.628132.058 7.239177-2.10949 10.347754-.65392-.949718-1.31285-1.896958-1.97676-2.841696-.74894.496635-1.49291.997999-2.23188 1.503998 2.32937 3.225287 4.60022 6.479958 6.81152 9.764632 0 0-5.78314 3.396339-8.78824 4.745106-2.5906 1.162681-8.09486 2.901267-8.09486 2.901267-1.30021-3.485137-2.57973-6.973649-3.843-10.473167-.83897.308956-1.67634.62397-2.51202.944998.50565 1.342813 1.01404 2.684535 1.52515 4.025159-4.71275.168332-9.37263-1.577966-12.20159-6.630372-3.86175-6.897222 2.96825-15.341704 12.42957-19.282873zm107.32669-12.84611c9.59457 1.717383 17.22144 7.738289 15.03552 15.612339-1.01723 3.665183-3.89465 6.102493-7.40764 7.532005-.0329-1.152453-.0717-2.30557-.11629-3.45932-.9005.0094-1.79958.02574-2.69713.04897.20843 3.972986.34743 7.938374.41728 11.896426 0 0-6.6945-.287395-9.94263-.773485-2.80009-.419087-8.36827-1.903622-8.36827-1.903622.76773-3.643207 1.55744-7.277153 2.36933-10.910694-.87942-.190663-1.76138-.374674-2.64582-.551957-.29127 1.406591-.57923 2.813883-.86388 4.221869-4.0828-2.376604-7.16035-6.347754-6.89346-12.148037.36567-7.943864 10.86477-11.398933 21.11299-9.564493zm96.97897 44.982728c7.39137 6.050476 11.14518 14.962851 5.39591 20.879611-2.67571 2.75404-6.38758 3.53421-10.17952 3.0957.53397-1.03267 1.06379-2.06817 1.58944-3.10648-.79479-.42597-1.59123-.846-2.38924-1.26008-1.76892 3.59728-3.58715 7.16145-5.45505 10.69223 0 0-5.77271-3.54571-8.38981-5.59329-2.25956-1.76792-6.37901-5.8639-6.37901-5.8639 2.49735-2.7824 5.007-5.54936 7.53364-8.308456-.66579-.60029-1.33586-1.196449-2.01019-1.788403-.96005 1.075886-1.9179 2.153489-2.87355 3.232799-2.34278-4.112387-2.94409-9.058861.23799-13.912095 4.34154-6.621357 15.02702-4.528291 22.91939 1.932364zm63.95789 85.240171c3.69545 8.87134 2.80584 18.53664-4.99522 20.99159-3.62813 1.14203-7.23918.058-10.34775-2.1095.94972-.65392 1.89696-1.31285 2.8417-1.97676-.49664-.74894-.998-1.4929-1.504-2.23187-3.22529 2.32936-6.47996 4.60021-9.76464 6.8115 0 0-3.39633-5.78314-4.74509-8.78824-1.16268-2.59061-2.90126-8.09487-2.90126-8.09487 3.48514-1.3002 6.97365-2.57972 10.47317-3.84298-.30895-.83898-.62397-1.67634-.94499-2.51203-1.34282.50566-2.68454 1.01404-4.02516 1.52515-.16833-4.71275 1.57797-9.37263 6.63038-12.20158 6.89723-3.86174 15.3417 2.96826 19.28286 12.42959z" fill="#eed9f2"/><path d="m448.68494 291.30395c.21451-.8397.11971-2.05516-.42002-3.76042-1.58691-5.01128-3.50767-5.41152-4.61354-3.83394-1.13863 1.62434-1.63639 5.42589-.78293 9.43465 2.69927.0631 5.31271.32819 5.81649-1.84029zm2.21739-22.48476c.38274-3.20535-2.68646-3.15024-5.86461-3.40083-1.53409 4.14566-1.62115 8.22209-.67854 10.07457.91228 1.79287 3.01669 1.60448 5.51076-3.56579.61241-1.26995.93532-2.29518 1.03239-3.10795zm-6.96674 10.75555c-1.46502-2.51682-4.53231-4.39958-5.2504-.67169-.85234 4.42863 2.96089 2.58162 5.2504.67169zm-8.01296 3.70022c.0421-.89552.0772-1.79061.10538-2.68517-2.85951-.0453-5.71608-.11382-8.56951-.20544-.16412.84742-.33488 1.6934-.51221 2.53788 2.98849.1428 5.98067.26044 8.97634.35273zm.26967-6.03156c.13485-.88507.26289-1.77142.38408-2.659l-7.95903-1.18727c-.11335.84595-.23337 1.69086-.36001 2.53466zm-36.11014 106.32582c.58823-.62607 1.08232-1.72954 1.42315-3.4786.99937-5.13241-.46963-6.44356-2.20709-5.61465-1.78237.85033-4.0508 3.91909-5.21223 7.84713 2.34955 1.37605 4.52204 2.88665 5.99617 1.24612zm12.73824-18.3197c1.8844-2.54663-.786-4.0519-3.40977-5.8779-3.36732 2.7768-5.43563 6.25245-5.51532 8.3291-.0775 2.01904 1.85573 2.87597 6.52349-.30759 1.14679-.78235 1.92312-1.49702 2.4016-2.14361zm-11.27575 5.77509c-.0617-2.90332-1.81512-6.08597-4.26524-3.19443-2.9132 3.43917 1.35017 3.71017 4.26524 3.19443zm-8.81723-.74734c.47264-.76259.93979-1.52752 1.4014-2.29471-2.48468-1.45567-4.95824-2.92764-7.42051-4.41575-.56271.66395-1.12984 1.32426-1.70134 1.98086 2.56089 1.59413 5.13444 3.17072 7.72045 4.7296zm3.18351-5.13179c.55224-.70389 1.09978-1.41129 1.64256-2.12214l-6.35989-5.00652c-.52142.68273-1.04741 1.3622-1.57792 2.03834zm-82.07574 76.87974c.81709-.2744 1.77906-1.01156 2.9086-2.38659 3.31609-4.03797 2.6191-5.87071.70326-5.94992-1.9719-.0815-5.41542 1.55502-8.3058 4.44846 1.41367 2.30101 2.61088 4.63886 4.69394 3.88805zm19.8907-10.18807c2.85836-1.37196 1.19073-3.93377-.28492-6.75508-4.26973.89296-7.71899 2.99836-8.75865 4.78584-1.01042 1.73724.29136 3.39049 5.91499 2.74638 1.38121-.15836 2.40288-.42884 3.12858-.77714zm-12.67541-.13629c1.30831-2.58231 1.23974-6.18562-2.26762-4.78243-4.17064 1.66932-.55297 3.88296 2.26762 4.78243zm-7.41963-4.7473c.77277-.449 1.54145-.90312 2.30603-1.36228-1.50681-2.43049-2.99433-4.87034-4.46239-7.31938-.8017.32089-1.6056.63592-2.41165.94503 1.5011 2.58883 3.02384 5.16777 4.56801 7.73663zm5.19835-3.0277c.81431-.36275 1.62602-.73124 2.43505-1.1054l-3.28021-7.34526c-.77416.35956-1.5508.71364-2.32986 1.06217zm-110.13341 24.75903c.83971.2145 2.05516.11971 3.76043-.42003 5.01128-1.5869 5.41153-3.50766 3.83394-4.61353-1.62434-1.13863-5.42588-1.6364-9.43464-.78294-.0631 2.69927-.3282 5.31271 1.84027 5.8165zm22.48476 2.21742c3.20535.38274 3.15024-2.68646 3.40084-5.86462-4.14566-1.53408-8.22208-1.62115-10.07457-.67854-1.79287.91227-1.60449 3.01668 3.56578 5.51076 1.26995.61241 2.29519.93532 3.10795 1.0324zm-10.75553-6.96676c2.51681-1.46502 4.39958-4.53231.67169-5.2504-4.42863-.85235-2.58162 2.96088-.67169 5.2504zm-3.70022-8.01297c.89553.0421 1.79061.0772 2.68518.10539.0453-2.85952.11382-5.71608.20545-8.56951-.84742-.16413-1.6934-.33488-2.53788-.51221-.14281 2.98848-.26045 5.98066-.35275 8.97633zm6.03157.26968c.88506.13485 1.77141.2629 2.659.38409l1.18727-7.95903c-.84594-.11335-1.69085-.23338-2.53465-.36001zm-106.32578-36.11027c.62607.58823 1.72954 1.08232 3.4786 1.42315 5.13241.99938 6.44356-.46962 5.61465-2.20709-.85033-1.78236-3.91908-4.0508-7.84713-5.21223-1.37605 2.34955-2.88665 4.52204-1.24612 5.99617zm18.31969 12.73826c2.54662 1.8844 4.0519-.786 5.8779-3.40976-2.7768-3.36733-6.25245-5.43564-8.32909-5.51533-2.01905-.0775-2.87598 1.85572.30757 6.52348.78236 1.1468 1.49702 1.92313 2.14362 2.40161zm-5.77508-11.27575c2.90332-.0617 6.08597-1.81512 3.19444-4.26524-3.43917-2.91321-3.71018 1.35016-3.19444 4.26524zm.74734-8.81724c.76259.47265 1.52752.93979 2.29471 1.4014 1.45567-2.48468 2.92765-4.95823 4.41577-7.42049-.66396-.56272-1.32427-1.12985-1.98086-1.70135-1.59413 2.56088-3.17073 5.13443-4.72962 7.72044zm5.1318 3.18352c.70389.55224 1.41128 1.09978 2.12213 1.64256l5.00653-6.35988c-.68273-.52142-1.3622-1.04741-2.03834-1.57793zm-76.879643-82.07583c.274393.81709 1.011551 1.77906 2.386586 2.9086 4.037958 3.3161 5.870706 2.61911 5.949918.70327.08153-1.9719-1.55502-5.41543-4.448453-8.30581-2.301013 1.41367-4.63886 2.61087-3.888051 4.69394zm10.188042 19.89071c1.371959 2.85836 3.933763 1.19074 6.755074-.28491-.892949-4.26973-2.99835-7.719-4.785828-8.75865-1.73723-1.01043-3.390486.29135-2.746387 5.91499.158364 1.3812.428846 2.40287.777141 3.12857zm.136305-12.67541c2.582308 1.30831 6.185618 1.23975 4.782433-2.26761-1.669319-4.17065-3.882955-.55298-4.782433 2.26761zm4.747308-7.41962c.448997.77276.903117 1.54145 1.362276 2.30603 2.430493-1.5068 4.870341-2.99432 7.319388-4.46238-.320893-.8017-.635922-1.6056-.945026-2.41166-2.588837 1.5011-5.167777 3.02384-7.736638 4.56801zm3.027691 5.19835c.362755.81431.731243 1.62602 1.105405 2.43506l7.345259-3.28021c-.359563-.77416-.713639-1.5508-1.062166-2.32986zm-24.758871-110.13344c-.214506.83971-.119713 2.05516.42002 3.76043 1.586896 5.01128 3.507655 5.41153 4.613522 3.83395 1.138639-1.62434 1.636408-5.42588.782959-9.43465-2.699275-.0631-5.312708-.3282-5.816501 1.84027zm-2.217448 22.48476c-.382748 3.20535 2.686454 3.15024 5.864606 3.40084 1.534094-4.14565 1.621168-8.22208.678561-10.07457-.912274-1.79287-3.016682-1.60449-5.510763 3.56578-.61242 1.26994-.935329 2.29518-1.032404 3.10795zm6.966771-10.75553c1.465012 2.51682 4.532298 4.39959 5.250399.6717.852351-4.42862-2.960882-2.58163-5.250399-.6717zm8.012974-3.7002c-.04207.89552-.07721 1.79061-.105395 2.68517 2.859518.0453 5.716079.11383 8.56951.20547.164126-.84742.334886-1.6934.512218-2.53788-2.988489-.14282-5.980666-.26046-8.976333-.35276zm-.269693 6.03156c-.134848.88507-.262895 1.77142-.384086 2.659l7.959027 1.18729c.113353-.84595.233376-1.69086.360013-2.53466zm36.110404-106.32573c-.58823.62606-1.082325 1.72954-1.423157 3.47859-.99938 5.13242.469621 6.44357 2.207087 5.61466 1.78236-.85033 4.0508-3.91908 5.21224-7.84712-2.34955-1.37605-4.52203-2.88666-5.99617-1.24613zm-12.738282 18.31967c-1.884402 2.54662.785995 4.0519 3.409755 5.8779 3.367329-2.77678 5.435648-6.25243 5.515342-8.32908.07748-2.01904-1.855721-2.87597-6.523486.30757-1.146799.78235-1.923128 1.49702-2.401611 2.14361zm11.275763-5.77506c.06169 2.90331 1.815109 6.08597 4.265239 3.19444 2.9132-3.43916-1.35017-3.71018-4.265239-3.19444zm8.817239.74735c-.47265.76259-.9398 1.52752-1.40141 2.29471 2.48468 1.45567 4.95823 2.92765 7.42049 4.41577.56272-.66395 1.12985-1.32426 1.70135-1.98086-2.56088-1.59413-5.13443-3.17073-7.72043-4.72962zm-3.18353 5.13179c-.55224.70389-1.09978 1.41129-1.64256 2.12213l6.35987 5.00654c.52142-.68273 1.04742-1.3622 1.57793-2.03834zm82.07592-76.87954c-.81709.274391-1.77905 1.011548-2.9086 2.386583-3.31611 4.037953-2.61911 5.870702-.70328 5.949916 1.9719.08153 5.41543-1.555013 8.30581-4.448442-1.41366-2.301015-2.61086-4.638864-4.69393-3.888057zm-19.89072 10.188017c-2.85837 1.371956-1.19074 3.933762.2849 6.755075 4.26973-.892944 7.719-2.998341 8.75866-4.785818 1.01043-1.737229-.29135-3.390486-5.91499-2.746395-1.3812.158363-2.40287.428844-3.12857.777138zm12.6754.136321c-1.30831 2.582306-1.23975 6.185616 2.26761 4.782436 4.17065-1.669315.55298-3.882955-2.26761-4.782436zm7.41963 4.747317c-.77277.448996-1.54146.903115-2.30604 1.362273 1.5068 2.430495 2.99432 4.870344 4.46237 7.319393.8017-.320892 1.60561-.635919 2.41166-.945022-1.5011-2.588839-3.02383-5.167781-4.56799-7.736644zm-5.19836 3.027684c-.81432.362754-1.62602.731242-2.43506 1.105402l3.2802 7.345263c.77416-.359562 1.5508-.713637 2.32986-1.062163zm110.13347-24.758718c-.83971-.214508-2.05516-.119716-3.76043.420014-5.01128 1.58689-5.41153 3.507649-3.83395 4.613517 1.62434 1.138641 5.42588 1.636415 9.43464.782972.0631-2.699275.32821-5.312708-1.84026-5.816503zm-22.48475-2.217478c-3.20535-.382752-3.15024 2.686449-3.40085 5.864601 4.14565 1.534099 8.22207 1.621179 10.07456.678575 1.79288-.912272 1.6045-3.016681-3.56576-5.510768-1.26995-.612422-2.29518-.935332-3.10795-1.032408zm10.75551 6.966785c-2.51681 1.465009-4.39959 4.532292-.6717 5.250398 4.42862.852356 2.58163-2.960878.6717-5.250398zm3.7002 8.012979c-.89553-.04207-1.79061-.07721-2.68518-.105399-.0453 2.859517-.11384 5.716079-.20547 8.569509.84741.164127 1.69339.334888 2.53787.512221.14282-2.988488.26047-5.980665.35278-8.976331zm-6.03157-.269702c-.88506-.134849-1.77141-.262897-2.65899-.38409l-1.1873 7.959026c.84594.113353 1.69085.233378 2.53465.360017zm106.32569 36.110537c-.62606-.588231-1.72954-1.082328-3.47859-1.423162-5.13241-.999385-6.44356.469613-5.61466 2.20708.85033 1.78237 3.91907 4.05081 7.84711 5.21225 1.37606-2.34955 2.88667-4.52203 1.24614-5.996168zm-18.31966-12.738304c-2.54661-1.884405-4.0519.78599-5.8779 3.409748 2.77678 3.367332 6.25243 5.435655 8.32907 5.515351 2.01905.07749 2.87598-1.855716-.30756-6.523486-.78235-1.1468-1.49701-1.923129-2.14361-2.401613zm5.77505 11.27577c-2.90331.06169-6.08597 1.815102-3.19444 4.265232 3.43916 2.91321 3.71018-1.35016 3.19444-4.265232zm-.74736 8.817232c-.76259-.47265-1.52752-.93979-2.29471-1.40141-1.45567 2.48468-2.92765 4.95823-4.41578 7.42049.66396.56272 1.32426 1.12985 1.98086 1.70135 1.59413-2.56088 3.17074-5.13442 4.72963-7.72043zm-5.13179-3.18353c-.70388-.55224-1.41128-1.09978-2.12213-1.64256l-5.00654 6.35986c.68273.52142 1.3622 1.04742 2.03834 1.57794zm76.87945 82.07602c-.27439-.8171-1.01155-1.77906-2.38658-2.90862-4.03795-3.3161-5.8707-2.61911-5.94992-.70328-.0815 1.9719 1.55501 5.41543 4.44843 8.30582 2.30102-1.41366 4.63887-2.61086 3.88807-4.69392zm-10.188-19.89074c-1.37195-2.85837-3.93376-1.19075-6.75507.28489.89294 4.26973 2.99833 7.71901 4.78581 8.75866 1.73722 1.01044 3.39048-.29134 2.7464-5.91498-.15836-1.3812-.42884-2.40287-.77714-3.12857zm-.13633 12.6754c-2.58231-1.30831-6.18562-1.23976-4.78244 2.26761 1.66931 4.17064 3.88295.55298 4.78244-2.26761zm-4.74733 7.41962c-.44899-.77277-.90311-1.54146-1.36227-2.30604-2.43049 1.5068-4.87035 2.99431-7.3194 4.46236.32089.8017.63592 1.60561.94502 2.41166 2.58884-1.50109 5.16779-3.02382 7.73665-4.56798zm-3.02768-5.19836c-.36275-.81432-.73123-1.62602-1.10539-2.43506l-7.34527 3.28018c.35956.77417.71363 1.55081 1.06216 2.32987z" fill="#6a1f7a"/></g><path d="m243.80738.0000099-1.09063.13584948c-35.41888 4.43106672-59.82155 40.59951962-59.82155 83.12258762 0 19.651093 5.56822 37.454143 14.70426 51.727993-12.74716 4.77236-23.43398 13.577-31.2798 24.4701-10.28356 13.93803-17.05408 31.13111-21.63257 50.58571-8.45581 34.61437-10.18679 74.72587-10.18679 110.10495v17.63363h43.95014l11.21618 153.86376 12.68374 2.91979c32.65474 7.51917 67.06561 6.96141 98.20952.0287l12.88655-2.86814 10.26141-153.94412h41.79186v-17.63362c0-35.13738-.29108-75.84863-8.04956-111.24149-4.17548-19.1552-10.62048-36.63706-20.73902-50.70434l-.065-.0899-.067-.0899c-8.268-11.19208-20.02936-19.7734-33.96233-24.18118 8.84907-14.18304 14.00013-31.64064 14.00013-50.581893-.00006-45.076231-28.42922-83.2584969-66.91065-83.2584969z" fill="#6a1f7a"/><path d="m244.90603 17.632878c-23.41353 2.929141-44.37799 30.026153-44.37799 65.626494 0 19.504748 6.66162 36.648568 16.45806 48.600248l11.9517 14.20487-18.31939 3.42876c-12.73539 2.44911-22.13999 9.30664-30.07515 20.37664-8.32699 11.26593-14.49874 26.35248-18.71123 44.28-7.83718 32.03443-9.69847 71.22027-9.69847 105.99771h42.71256l11.46184 157.23323c29.78126 6.85751 61.81566 6.36769 90.42136 0l10.4822-157.23323h40.65533c0-34.97337-.48986-74.84496-7.64124-107.46718-3.82064-17.53566-9.79649-33.01407-17.82958-44.18204-8.03308-10.87407-18.12345-17.4377-32.62223-19.69088l-18.51529-2.93894 11.65778-14.59673c9.69852-11.85372 16.06621-28.99753 16.06621-48.012458 0-37.755561-23.51151-65.626494-49.27619-65.626494z" fill="#eed9f2"/></svg>