<svg height="500" viewBox="0 0 500 500" width="500" xmlns="http://www.w3.org/2000/svg" xmlns:xlink="http://www.w3.org/1999/xlink"><linearGradient id="a"><stop offset="0" stop-color="#ff851a"/><stop offset=".42441937" stop-color="#f87000"/><stop offset=".86367416" stop-color="#f26900"/><stop offset="1" stop-color="#e55f00"/></linearGradient><radialGradient id="b" cx="1362.7291" cy="216.11429" gradientTransform="matrix(1.0000001 -.0000059 .0000001 1.0000003 -112.72927 33.893757)" gradientUnits="userSpaceOnUse" r="250" xlink:href="#a"/><radialGradient id="c" cx="1012.7292" cy="16.112209" gradientTransform="matrix(.19999997 -.00000014 .00000007 .2 697.45421 46.777699)" gradientUnits="userSpaceOnUse" r="250" xlink:href="#a"/><filter id="d" color-interpolation-filters="sRGB" height="1.143581" width="1.15702" x="-.07851" y="-.071791"><feGaussianBlur stdDeviation="5.1054522"/></filter><filter id="e" color-interpolation-filters="sRGB" height="1.005743" width="1.006281" x="-.00314" y="-.002872"><feGaussianBlur stdDeviation=".20421809"/></filter><g transform="translate(-1000)"><path d="m1500 250a250 250 0 0 1 -250 250 250 250 0 0 1 -250-250 250 250 0 0 1 250-250 250 250 0 0 1 250 250z" fill="url(#b)" stroke-linecap="round" stroke-linejoin="round" stroke-width="1.002"/><path d="m1309.2298 33.82789c128.5196 30.706851 207.8974 167.48127 169.5927 291.56949-31.3771 95.69524-112.8693 162.03793-212.5543 174.60263 153.1796-8.09118 266.0956-163.0043 218.7012-309.92978-36.4562-114.666588-154.6038-191.5214848-270.6514-169.822657-18.8526 4.215647-38.4387 10.498641-55.8829 18.694487-112.5353 47.459213-168.47522 196.206-99.9632 307.85319 57.6978 93.63045 168.5136 141.8489 267.9993 100.77239-134.92 68.97589-303.283-51.46877-311.488-201.30723-4.4167-117.68321 76.8182-219.674136 190.654-246.26040176-89.0147 9.18391126-152.6601 79.39239576-187.7408 157.21169176-38.45522 102.70317 5.2337 231.75078 109.038 294.08388 114.5107 66.1048 260.3537 29.37245 323.6836-83.60152 42.2104-77.69758 34.3514-177.62383-23.1776-249.88923-57.5404-72.257811-157.5429-102.460489-246.4118-71.877168-81.7429 30.682061-131.1298 101.133078-134.0478 190.176958.6692 92.68536 61.7912 168.55972 147.5399 198.52472 128.5549 37.82014 266.7725-70.33038 233.6823-209.88949-14.7104-64.39775-57.8855-122.14991-125.7378-141.121386-71.391-15.467036-138.9716 1.205-181.2869 64.641366-18.8995 29.2286-28.9384 85.21395-26.105 97.65297m0 0c13.5324-50.18833 30.6277-97.66354 72.2125-128.94941 53.182-38.308183 124.4576-37.093813 181.7444-.48035 50.1457 36.48017 75.4845 90.37713 72.3557 150.91678-6.6674 64.04407-38.4038 109.83277-91.6401 141.00844-63.9019 34.56125-135.3795 4.83213-189.1258-35.28385-78.8706-65.48566-79.7477-186.67235-8.9744-256.76104 63.7369-55.941605 167.0207-64.891564 238.7167-6.65053 78.8163 58.35315 90.3045 169.04089 40.972 246.62443-35.2274 56.41892-88.4571 87.60135-152.5581 93.63158-81.9488 2.18264-160.666-41.91503-196.8695-120.9383-36.2055-79.02511-22.5771-164.33167 26.8727-227.66064 49.4316-63.30896 138.3491-86.746364 220.4504-67.54202" fill="#c50"/></g><path d="m129.82956 40.303027c-65.186975 18.090354 5.37635 54.461986-18.85465 67.513603-12.275341 6.61003-32.200499 5.63237-24.200719-27.651322-39.932633 32.459882-28.32092 106.417692 18.000919 130.815662-10.163199-9.60963-16.51571-23.20996-16.51571-38.27154 0-29.05418 23.62839-52.68184 52.68181-52.68184 29.05455 0 52.68184 23.62841 52.68184 52.68184 0 14.05473-5.52833 26.83985-14.52634 36.29527 56.40828-28.80565 46.00178-107.97439 8.42159-128.207961 8.96808 21.025591 4.32423 37.189831-6.81961 46.202831 5.47928-71.755497-73.55131-42.840922-50.86913-86.696933z" fill="#ffa348" filter="url(#d)" stroke-width=".469695"/><path d="m140.94085 255.73419c-36.71917-.0153-72.053251 18.22783-91.676905 54.76173 8.746229 15.98961 18.560523 26.38445 22.388092 41.17424v20.57394c-1.960722 4.17383-4.966449 7.08363-4.966449 11.69596 0 3.74274 4.788571 7.45007 8.658941 7.45007 3.787217 0 8.892418-3.98443 8.891584-7.92604 0-4.68028-3.009846-7.33314-4.88944-11.1294v-13.29187c6.588705-13.24164 33.498127-3.87161 43.580447 18.78575v33.18314c-2.62031 4.31382-5.60997 6.98027-5.60997 11.88906 0 7.364 4.8433 10.08769 9.85544 10.08769 4.90263 0 8.89118-2.33046 8.89118-10.08769 0-3.82837-3.06419-6.84893-5.44326-12.78955v-32.1793c6.45531-15.01749 22.61291-8.29085 29.50425 12.86695v30.81561c-2.22754 4.32247-4.8248 8.01087-4.8248 13.30463 0 5.3226 4.13596 9.13575 8.65894 9.13575 4.42376 0 9.13575-4.00543 9.13575-9.61171 0-5.94886-2.92256-9.64055-5.27568-14.23147v-34.81776h-.0905c6.31613-27.16552 21.53124-41.76304 28.30728-21.65517v24.61395c-1.83514 3.68798-3.93625 7.15402-3.93625 12.18552 0 5.74133 3.93339 9.85629 7.69384 9.85629 3.84484 0 7.45046-3.92926 7.45046-9.38032 0-4.45917-1.78984-7.82887-3.51215-11.34762v-28.78491c8.22989-28.75691 27.35903-35.9554 37.18446-50.38697-25.15051-36.47338-63.25686-54.74651-99.97521-54.76175z" fill="#994100" stroke-width=".469695"/><path d="m141.12077 264.79252c33.65584-.24952 68.38219 15.55398 88.98825 47.7234-61.68438 44.63577-115.38832 44.71524-170.03683-2.03318 16.813077-30.11895 48.42914-45.44812 81.04899-45.69105z" fill="#ffa348" stroke-width=".469695"/><path d="m143.05186 271.39275c-18.51688 0-33.51871 15.01541-33.51871 33.53148 0 18.51605 15.00183 33.5183 33.51829 33.5183 18.51605 0 33.53066-15.00143 33.53066-33.5183 0-18.51607-15.01502-33.53108-33.53107-33.53108z" fill="#c50" stroke-width=".469695"/><path d="m142.8328 291.59406c6.64143 0 12.01753 5.37736 12.01753 12.01877 0 6.6414-5.3761 12.03029-12.01794 12.03029-6.64141 0-12.03029-5.38971-12.03029-12.03112 0-6.6414 5.38847-12.01752 12.03029-12.01752z" fill="#994100" stroke-width=".469695"/><path d="m323.70223 366.52903 32.13754 27.57036-50.52249 1.34819 136.6711 104.55242-46.27517-77.85778 38.57433-.3872-40.88404-59.60604-42.55256-89.68985-85.6774 38.03617z" fill="#ffa348" stroke-width=".469695"/><path d="m301.02579 348.31707c16.24208 7.6819 33.01878 11.57303 49.84361 11.57249 16.82538-.00054 33.60086-3.89276 49.84226-11.57486 20.89849-11.48408 35.68381-22.97641 50.0244-37.81948-4.78159-5.14637-9.45575-9.41297-14.67851-14.25625-4.93437-4.32715-9.86955-8.09725-15.06518-11.79663-2.73421-1.9468-5.53588-3.81308-8.46014-5.4607-6.80939-3.83662-13.84812-7.30402-21.08242-10.26246-3.10912-1.27147-6.29621-2.38706-9.55485-3.20222-8.30059-2.07641-16.78838-3.52173-25.31251-4.2635-3.34692-.29125-6.72838-.31991-10.07848-.0679-8.6376.6498-17.24472 2.03613-25.66679 4.06074-3.26261.78431-6.45232 1.88119-9.57159 3.11809-6.83949 2.71211-13.50641 5.88752-19.96934 9.40387-2.95242 1.60635-5.80024 3.4103-8.56207 5.32588-5.86191 4.06577-11.41104 8.20776-16.95479 13.06015-4.99564 4.71239-10.00473 9.40185-14.77611 14.34039 15.04912 15.07278 33.24192 29.72595 50.02251 37.82238z" fill="#994100" stroke-width=".469695"/><path d="m385.92112 343.57675c9.17215-2.88604 17.31516-7.43098 25.78216-12.93823 8.46701-5.50725 16.78301-12.21534 24.87618-20.14321-8.12148-7.9578-16.46714-14.68586-24.96494-20.20399-8.49781-5.51813-16.66798-10.08023-25.87779-12.94442-11.21223-3.48693-23.14309-4.89025-34.885-4.88777-11.74848.002-23.68572 1.41059-34.90243 4.90519-9.19803 2.86568-17.35515 7.42962-25.84106 12.94541s-16.82076 12.23828-24.9347 20.18557c8.08292 7.91898 16.38718 14.62163 24.8425 20.12621 8.45532 5.50457 16.58758 10.0505 25.74887 12.9378 11.27274 3.55275 23.26657 5.12104 35.0859 5.12354 11.81336.002 23.80162-1.56038 35.07031-5.1061z" fill="#ffa348" stroke-width=".469695"/><path d="m315.95017 277.36311c-8.23473 8.65267-13.29637 20.35223-13.29637 33.19938 0 12.74845 4.9883 24.36442 13.11137 32.99713-17.37433-6.25344-34.42566-17.22659-50.59151-33.06456 16.22788-15.89458 33.3396-26.88984 50.77596-33.13087z" fill="#ffa348" stroke-width=".469695"/><path d="m350.85094 272.45951c21.11101 0 38.12134 16.99256 38.12134 38.103 0 21.11045-17.01033 38.12024-38.12134 38.12024-21.1099 0-38.10245-17.00979-38.10245-38.12024 0-21.10992 16.99255-38.103 38.103-38.103z" fill="#c50" stroke-width=".469695"/><path d="m385.73663 277.34696c17.46009 6.23617 34.59987 17.23253 50.84283 33.14813-16.18634 15.85576-33.2641 26.83271-50.65841 33.08182 8.13227-8.63379 13.12811-20.25624 13.12811-33.0144 0-12.85523-5.06918-24.56127-13.31308-33.21555z" fill="#ffa348" stroke-width=".469695"/><path d="m350.86821 283.19429c-15.09432 0-27.33423 12.23938-27.33423 27.33475 0 15.0943 12.2394 27.31751 27.33476 27.31751 15.0943 0 27.33422-12.22374 27.33422-27.31751 0-15.09537-12.23938-27.33475-27.33475-27.33475z" fill="#994100" stroke-width=".469695"/><path d="m129.82956 40.303027c-65.186975 18.090354 5.37635 54.461986-18.85465 67.513603-12.275341 6.61003-32.200499 5.63237-24.200719-27.651322-39.932633 32.459882-28.32092 106.417692 18.000919 130.815662-10.163199-9.60963-16.51571-23.20996-16.51571-38.27154 0-29.05418 23.62839-52.68184 52.68181-52.68184 29.05455 0 52.68184 23.62841 52.68184 52.68184 0 14.05473-5.52833 26.83985-14.52634 36.29527 56.40828-28.80565 46.00178-107.97439 8.42159-128.207961 8.96808 21.025591 4.32423 37.189831-6.81961 46.202831 5.47928-71.755497-73.55131-42.840922-50.86913-86.696933z" fill="#c50" filter="url(#e)" stroke-width=".469695"/><path d="m140.93996 117.62682c-30.33202-.00021-55.080597 24.7522-55.080597 55.08408 0 30.33215 24.749817 55.08061 55.080597 55.08061 30.33167 0 55.08408-24.74837 55.08408-55.08061 0-30.33156-24.75202-55.08385-55.08408-55.08408zm0 18.789c20.21514.00014 36.29509 16.08055 36.29509 36.29508 0 20.21532-16.07995 36.29162-36.29509 36.29162-20.21381 0-36.29162-16.07619-36.29162-36.29162 0-20.21571 16.07648-36.29522 36.29162-36.29508z" fill="#994100" stroke-width="1.77523"/><path d="m95.254579 172.70943c0 25.27381 20.413951 45.68704 45.686271 45.68704 25.27342 0 45.68776-20.41323 45.68776-45.68704 0-25.27307-20.41396-45.68741-45.68758-45.6876-25.27362-.00018-45.686451 20.41379-45.686451 45.6876z" fill="#ffa348" stroke-width="18.7878"/><path d="m140.94085 147.1519c17.58543 0 31.92087 14.33546 31.92087 31.92051 0 17.58507-14.33544 31.90856-31.92051 31.90856-17.58431 0-31.90852-14.32349-31.90852-31.90856 0-17.58505 14.32421-31.91976 31.90852-31.91976z" fill="url(#c)"/><path d="m140.94085 154.14671c-13.80396 0-24.913 11.12102-24.913 24.9257 0 13.80396 11.10904 24.91375 24.913 24.91375 13.80469 0 24.92608-11.10904 24.92608-24.91375 0-13.80394-11.12102-24.9257-24.92572-24.9257z" fill="#c50" stroke-width=".469695"/><path d="m140.27499 161.14131c-6.69941 0-11.94368 3.7981-15.01834 9.24072.6887 4.61653 4.66608 8.16371 9.47464 8.16371 5.29251 0 9.57922-4.29902 9.57922-9.59115 0-3.22641-1.59139-6.07693-4.03552-7.81328z" fill="#ffa348" stroke-width=".469695"/><path d="m140.94085 161.12953c9.90006 0 17.91967 8.03122 17.91967 17.93092 0 9.90007-8.01961 17.91931-17.91931 17.91931-9.89894 0-17.93053-8.01924-17.93053-17.91931 0-3.14782.81971-6.10661 2.24577-8.67875.6887 4.61653 4.66593 8.16447 9.47449 8.16447 5.29251 0 9.57929-4.29914 9.57929-9.59128 0-3.2264-1.59074-6.07703-4.03488-7.81338.22082-.009.44353-.0124.66625-.0124z" fill="#994100" stroke-width=".469695"/><path d="m350.85094 119.05972c-17.38944 0-31.67011 7.65544-44.93851 16.69071l-.0106.004-.0107.007c-11.86404 8.12202-23.22188 17.43765-36.01428 24.83608l-14.05968 8.13068 14.05968 8.13069c12.41838 7.18213 23.49126 16.15249 34.98133 24.10218l.41281-.24952.48805.88893c.0444.0304.0877.0632.13208.0936l.0106.007.0106.007c13.26841 9.03525 27.54907 16.68796 44.93851 16.68796s31.67101-7.65271 44.93943-16.68796l.0101-.007.0101-.007c11.86062-8.11968 23.23484-17.43476 36.02163-24.83517l14.04959-8.13069-14.04959-8.13068c-12.78679-7.40043-24.16102-16.7164-36.02163-24.83608l-.0101-.007-.0101-.004c-13.26842-9.03524-27.54999-16.69071-44.93943-16.69071z" fill="#ffa348" stroke-width="1.77523"/><path d="m350.85019 133.19128c18.6504 0 33.82197 15.94076 33.82197 35.53674s-15.17157 35.53675-33.82197 35.53675-33.82198-15.94077-33.82198-35.53675 15.17158-35.53674 33.82198-35.53674z" fill="#c50"/><path d="m350.85094 119.05972c-17.38944 0-31.67011 7.65544-44.93851 16.69071l-.0106.004-.0107.007c-11.86404 8.12202-23.22188 17.43765-36.01428 24.83608l-14.05968 8.13068 14.05968 8.13069c12.41838 7.18213 23.49126 16.15249 34.98133 24.10218l.41281-.24952.48805.88893c.0444.0304.0877.0632.13208.0936l.0106.007.0106.007c13.26841 9.03525 27.54907 16.68796 44.93851 16.68796s31.67101-7.65271 44.93943-16.68796l.0101-.007.0101-.007c11.86062-8.11968 23.23484-17.43476 36.02163-24.83517l14.04959-8.13069-14.04959-8.13068c-12.78679-7.40043-24.16102-16.7164-36.02163-24.83608l-.0101-.007-.0101-.004c-13.26842-9.03524-27.54999-16.69071-44.93943-16.69071zm-.00094 9.39299c14.65619 0 26.92908 6.39727 39.65259 15.06146 11.37063 7.78425 22.99894 17.32827 36.62434 25.21404-13.6254 7.88578-25.25371 17.42981-36.62434 25.21405-12.72351 8.66418-24.9964 15.06053-39.65259 15.06053-14.65618 0-26.92819-6.39635-39.65167-15.06053-11.37066-7.78424-22.98287-17.32827-36.61793-25.21405 13.63506-7.88577 25.24727-17.42979 36.61793-25.21404 12.72348-8.66419 24.99549-15.06146 39.65167-15.06146zm0 4.73825c.61779 0 1.23145.0204 1.84117.055-.60968-.0346-1.22345-.055-1.84117-.055zm0 0c-.61743 0-1.22997.0206-1.83934.055.60923-.0344 1.22205-.055 1.83934-.055zm2.45764.10456c.40031.0303.7999.0614 1.19627.10633-.39623-.0449-.7961-.076-1.19627-.10633zm-4.92629.00094c-.39494.0302-.78957.0612-1.18067.10545.39112-.0444.7857-.0754 1.18067-.10545zm6.82527.19907c.36958.0502.73872.10243 1.10451.1651-.36595-.0627-.73477-.11486-1.10451-.1651zm-8.72883.004c-.36226.0494-.72389.10013-1.0825.16137.35856-.0614.72028-.11202 1.0825-.16137zm10.5498.29723c.34683.0676.69268.13882 1.03572.21741-.3432-.0786-.68873-.14983-1.03572-.21741zm-12.36712.004c-.3404.0664-.67968.13563-1.01644.21283.33672-.0772.67609-.14628 1.01644-.21283zm14.12941.39172c.34672.0881.69138.1815 1.03387.2807-.34254-.0992-.6871-.1927-1.03387-.2807zm-15.89536.004c-.33381.0849-.66544.1754-.99535.27064.32977-.0953.66166-.18573.99535-.27064zm17.60535.47887c.353.1106.70228.22989 1.05038.35228-.34816-.12232-.69732-.24165-1.05038-.35228zm-19.31899.007c-.33683.1058-.67033.21931-1.0027.33577.33244-.11663.66578-.22991 1.0027-.33577zm20.90512.53667c1.09984.40848 2.17536.87125 3.21998 1.39256-1.04485-.52121-2.11989-.9842-3.21998-1.39256zm-22.48209.004c-1.09379.40644-2.16248.86722-3.20164 1.38525 1.03875-.51805 2.10829-.97874 3.20164-1.38525zm25.78188 1.42744c1.08191.54358 2.13257 1.14565 3.14752 1.80264-1.01511-.65685-2.06543-1.25922-3.14752-1.80264zm-29.07892.004c-1.07863.54202-2.12445 1.14334-3.13651 1.79806 1.01179-.65477 2.05816-1.25595 3.13651-1.79806zm32.30075 1.85036c.98056.63846 1.92667 1.32963 2.83743 2.06684-.91103-.73723-1.85657-1.42843-2.83743-2.06684zm-35.52991.0106c-.97483.63525-1.91515 1.32292-2.82093 2.05584.90553-.73289 1.84638-1.42056 2.82093-2.05584zm38.56917 2.22372c.87614.72034 1.71783 1.48402 2.52185 2.28976-.80414-.80572-1.64555-1.56949-2.52185-2.28976zm-41.60477.009c-.8734.71849-1.71195 1.48082-2.5136 2.28426.80164-.80354 1.64024-1.56561 2.5136-2.28426zm44.31286 2.46773c.81804.83228 1.59763 1.7064 2.33288 2.62094-.73544-.91477-1.51455-1.78854-2.33288-2.62094zm-47.01361.004c-.81779.8321-1.59607 1.70563-2.33105 2.62002.73479-.91414 1.51356-1.78808 2.33105-2.62002zm-2.32462 48.41627c.73309.91147 1.50921 1.78208 2.32462 2.61176-.81509-.82949-1.59176-1.70058-2.32462-2.61176zm51.65827.0106c-.72804.90448-1.49901 1.76951-2.30811 2.59341.80936-.82408 1.5799-1.6887 2.30811-2.59341zm-49.13914 2.79564c.80184.80312 1.64097 1.56517 2.51453 2.28336-.87361-.71837-1.71264-1.48007-2.51453-2.28336zm46.62004.009c-.79759.79839-1.63136 1.55608-2.49984 2.2705.86846-.71432 1.70229-1.4722 2.49984-2.2705zm-43.90095 2.44389c.89931.72779 1.83242 1.41054 2.79983 2.04208-.96704-.63147-1.90082-1.31444-2.79983-2.04208zm41.18553.005c-.89732.72596-1.82923 1.40733-2.79431 2.03748.96554-.63031 1.8966-1.31127 2.79431-2.03748zm-38.25451 2.12555c1.01019.65272 2.05454 1.25211 3.13099 1.79255-1.07639-.54057-2.12083-1.13969-3.13099-1.79255zm35.32901 0c-1.00871.65188-2.05165 1.24985-3.12641 1.7898 1.07453-.53974 2.1179-1.13818 3.12641-1.7898zm-32.12829 1.82557c1.04571.52197 2.12166.9855 3.22273 1.39441-1.10075-.40893-2.17734-.87245-3.22273-1.39441zm28.91839.004c-1.0427.52018-2.11676.98297-3.21448 1.39074 1.0982-.40784 2.17134-.87041 3.21448-1.39074zm-25.14523 1.58706c.34349.12057.68836.23759 1.03662.34677-.34814-.10918-.69326-.2262-1.03662-.34677zm21.37665.002c-.34082.11962-.68284.23562-1.02837.34402.34553-.10838.68755-.22443 1.02837-.34402zm-19.66116.54859c.34949.10119.70109.19665 1.05498.28622-.35393-.0896-.70546-.18498-1.05498-.28622zm17.94842 0c-.3503.10144-.70301.19738-1.05773.28714.35485-.0898.70732-.18569 1.05773-.28714zm-1.73292.45043c-.35865.0825-.71971.15706-1.0825.22751.3628-.0704.72385-.14496 1.0825-.22751zm-14.47983.00094c.35706.0822.71677.15553 1.07792.22568-.36117-.0702-.72085-.14351-1.07792-.22568zm1.77971.35778c.36894.0632.74087.11647 1.11368.16696-.37272-.0505-.74481-.10378-1.11368-.16696zm10.92134 0c-.37248.0638-.74828.11699-1.1247.16788.37655-.0509.7521-.10403 1.1247-.16788zm-1.79163.25687c-.43506.0496-.87389.0854-1.31369.11743.43982-.032.87862-.0679 1.31369-.11743zm-7.33808.00093c.43139.0491.86661.0838 1.30268.11559-.43605-.0319-.8713-.0665-1.30268-.11559zm1.80998.15596c.61544.0352 1.23402.0559 1.85769.0559-.62337 0-1.24255-.0208-1.85769-.0559zm1.85769.0559c.62398 0 1.24376-.0207 1.85952-.0559-.61576.0352-1.23554.0559-1.85952.0559z" fill="#994100" stroke-width="1.77523"/><g fill="#ffa348"><path d="m339.02861 221.95742-2.77019 8.86726-5.70141-6.66736-4.31634 4.06135 6.15239 7.20886-8.98699 1.96297 1.1596 5.95666 8.37497-1.82762-2.77017 8.83343 5.54036 1.89529 2.96346-9.47647 6.57112 7.68271 4.31632-4.06135-6.15239-7.17503 9.01922-1.99683-1.15961-5.95662-9.66342 2.13219 2.96344-9.54415z"/><path d="m403.77353 208.96916-.74086 5.21205-3.73654-3.14755-3.60767 4.73824 4.05864 3.41829-4.86392 1.99683 2.12595 5.68588 4.41296-1.79376-.74085 5.17821 5.73361.94764.83751-5.71971 4.44518 3.75673 3.60767-4.73822-4.05864-3.41829 4.86393-1.99683-2.12596-5.68588-5.28267 2.16605.80529-5.65205z"/><path d="m279.10503 205.63551v7.24272l-5.73361-3.48598-2.89902 5.27974 6.22001 3.75674-6.22001 3.79059 2.89902 5.27974 5.73361-3.486v7.24274h5.79805v-7.81809l6.70642 4.06135 2.89904-5.27974-6.21679-3.79059 6.21679-3.75674-2.89904-5.27974-6.70642 4.06133v-7.81807z"/><path d="m346.92039 181.96123-5.50813 10.01798 9.43793 5.71971 9.43795-5.71971-5.50816-10.01798c-1.25624.40613-2.57691.64304-3.92979.64304-1.35287 0-2.67353-.23691-3.9298-.64304z"/><path d="m363.73476 171.77403c-.61203 2.77525-1.99711 5.2459-3.92981 7.14119l5.50816 10.01798 9.40573-5.71973v-11.43944z"/><path d="m326.98154 171.77403v11.43944l9.40574 5.71973 5.50815-10.01798c-1.93269-1.89529-3.31778-4.36594-3.92981-7.14119z"/><path d="m350.85019 160.94379c-4.12306 0-7.40863 3.45214-7.40863 7.78423s3.28557 7.78423 7.40863 7.78423 7.40861-3.45214 7.40861-7.78423-3.28555-7.78423-7.40861-7.78423z"/><path d="m365.31311 148.52285-5.50816 10.01797c1.9327 1.89529 3.31778 4.36594 3.92981 7.14119h10.98408v-11.43944z"/><path d="m336.38728 148.52285-9.40574 5.71972v11.43944h10.98408c.61203-2.77525 1.99712-5.2459 3.92981-7.14119z"/><path d="m350.85019 139.75712-9.43793 5.71973 5.50813 10.01796c1.25627-.40613 2.57693-.64304 3.9298-.64304 1.35288 0 2.67355.23691 3.92979.64304l5.50816-10.01796z"/><path d="m415.17637 116.30288-2.02932 6.93812-4.5096-5.11053-4.25191 4.12904 4.89612 5.5505-7.02206 1.69224 1.28845 5.95661 6.50669-1.55684-2.02931 6.93813 5.54036 1.75991 2.19038-7.51348 5.28267 5.99047 4.25192-4.12902-4.92836-5.5505 7.02209-1.69222-1.28846-5.95663-7.56967 1.8276 2.19036-7.5135z"/><path d="m368.92079 94.96391-.86971 4.843159-3.3822-3.052771-3.80094 4.623142 3.73654 3.35738-4.63844 1.71254 1.93267 5.74681 4.2519-1.57041-.8697 4.84993 5.66921 1.09994.93412-5.27636 4.05863 3.65184 3.80095-4.62318-3.73651-3.35736 4.63842-1.71255-1.93266-5.746799-5.0572 1.874999.93414-5.303443z"/><path d="m288.62098 91.183473-5.57257 1.692218 2.79593 10.180439-9.45726-2.4571-1.39153 5.916 10.14982 2.63989-7.25724 7.92638 4.17782 4.19672 6.75796-7.37133 2.79594 10.18042 5.57257-1.69222-2.98922-10.8844 10.81016 2.8091 1.41729-5.91603-10.14337-2.63648 7.24435-7.902696-4.18103-4.2238-7.73396 8.447596z"/></g></svg>