<svg height="500" viewBox="0 0 500 500" width="500" xmlns="http://www.w3.org/2000/svg"><g transform="translate(-1000 -500)"><circle cx="1250" cy="750" fill="#8f29a3" r="250"/><path d="m1250.0521 500.09326-.061 248.75004-15.9199-248.2399a249.99917 250.18666 0 0 0 -31.6776 4.06945l45.0428 231.17052c-.102.0363-.2268.0547-.3789.0547l2.377 12.94521-.25-.53361-.5352-1.34279-3.3574-10.61339c-.1814.0698-.3456.12506-.5117.12506l-.1211.0782-83.1951-220.24831a249.99917 250.18666 0 0 0 -14.7401 6.13348l96.9 214.60543-.2187.11532 2.3047 4.43886 2.3437 5.21678.055.0488.416.7486.7461 1.26658v.0314l-.7461-1.29782-.4707-.79746-5.5273-9.21c-.1841.12151-.3808.23754-.5664.39678l-123.4077-200.53639a249.99917 250.18666 0 0 0 -34.1776 25.40763l164.5483 186.40079-.3984-.58052.832 1.02616v.0508l-.3262-.32448-.094-.12903v-.006-.002l-176.1809-175.46484a249.99917 250.18666 0 0 0 -21.0273 24.05115l186.5306 143.42536-.1425.18569 10.4687 8.26398-2.0957-1.07698-9.4082-5.66242c-.1395.18156-.2273.33335-.3066.47301l-208.0031-109.74966a249.99917 250.18666 0 0 0 -7 14.40723l214.5266 96.34337c-.074.17741-.1655.3791-.2578.59419l12.1758 4.73596-.037-.0253.5254.23653-.4863-.21109.3574.18179.2129.0802-.2129-.0508v-.0295l-12.8066-4.08117c-.056.14944-.1255.33501-.1758.5082l-224.9661-68.33223a249.99917 250.18666 0 0 0 -8.7656 41.69908l246.1613 30.77687h-1.2363l-246.3644-14.82161a249.99917 250.18666 0 0 0 -.4219 14.51082 249.99917 250.18666 0 0 0 .6113 17.47203l234.4934-16.18786h-.027l.3066-.0234-.2773.0234 12.9687-.73492-7.6699 1.8549-.3028.0508-4.789.9382.07.23845-228.2004 55.91086a249.99917 250.18666 0 0 0 4.2871 15.37279l224.173-70.26921c.093.36314.1859.69573.2793.95971l11.9648-4.46623-6.7285 3.52803-218.2141 100.03556a249.99917 250.18666 0 0 0 21.0155 36.99246l204.0072-139.70972-2.9414 2.38851-191.599 150.2058a249.99917 250.18666 0 0 0 21.2792 23.80097l164.7143-167.43742c.2793.26396.5666.50585.8359.80333l7.6309-8.62753v-.0314l.7578-.86587.1855-.23653.7754-.84633.02-.0645.057-.0272-.023.15832-.1035.11531.051-.18179-.068.18179-1.3203 1.73762.6133-1.0457-.1856.20916-.7578.89715-2.5996 3.67852-4.2753 5.57643.287.1818-133.9214 192.92518a249.99917 250.18666 0 0 0 13.3768 8.68037l121.3629-200.99764c.1115.0698.2562.1641.4043.23263l6.9082-11.76855-.2793.71929-100.1481 226.51466a249.99917 250.18666 0 0 0 40.1346 13.79743l59.6931-236.78211-1.5742 9.22563.2364.0566-42.7675 230.89101a249.99917 250.18666 0 0 0 31.6386 3.76263l12.9316-234.50119c.2415.0238.455.0234.6602.0234h.031v-12.36276l.055-.87175.3809 3.35211.6328 9.85892c.1939 0 .3385-.0234.5058-.0234l27.248 233.23258a249.99917 250.18666 0 0 0 15.7831-2.3455l-42.1484-231.0161c.254-.028.4739-.0916.707-.11531l-2.0644-10.71502-.055-.13878-.3203-1.79235.018.0295.3575 1.90182 74.3923 234.18055a249.99917 250.18666 0 0 0 39.205-16.19959l-111.1503-215.75097 4.1406 6.7179.2696-.18569 120.6715 201.44522a249.99917 250.18666 0 0 0 26.2108-18.10533l-145.5071-184.32505c.254-.18717.4204-.39029.6562-.60397l-8.457-9.554 3.3672 3.03156 5.8437 5.83834.2872-.30686 174.8256 156.82795a249.99917 250.18666 0 0 0 10.2715-12.18293l-184.478-145.35845c.1296-.15783.305-.33279.4082-.48083l-9.3632-7.21437 211.5852 126.78601a249.99917 250.18666 0 0 0 18.7245-38.19257l-229.6555-89.16613 11.0274 3.36579.012-.18569 223.9289 70.91228a249.99917 250.18666 0 0 0 7.6836-30.99187l-231.1887-41.80463c0-.16199.037-.30149.037-.44955l-7.3671-.90693-4.5508-.79941 12.0312.70755c.03-.32965.029-.62841.029-.96361l235.009 1.78454a249.99917 250.18666 0 0 0 .011-2.19892 249.99917 250.18666 0 0 0 -.3809-13.81303l-234.6691 13.37131v-.33226l-11.7754.81114-2.207.14075 2.1641-.14075h.043l242.6422-45.60435a249.99917 250.18666 0 0 0 -11.2772-41.04821l-231.0032 85.65376-.2598.0684 10.5078-4.79069c-.1716-.35894-.395-.80876-.6601-1.20402l208.1651-109.51534a249.99917 250.18666 0 0 0 -7.877-13.90491l-200.7337 122.63837-.2109-.32833-5.6211 3.9033-4.707 2.86542 9.6699-7.59747-.1446-.20719 183.392-147.45376a249.99917 250.18666 0 0 0 -29.3651-30.85701l-161.2514 182.96656-2.3184 2.37091 151.2905-195.53064a249.99917 250.18666 0 0 0 -26.4154-17.96062l-119.2496 202.94829-.094-.0664-7.0644 11.68841 5.539-12.45265c-.2748-.15364-.5655-.24794-.8711-.35962l83.404-220.18189a249.99917 250.18666 0 0 0 -15.121-5.19332l-69.2811 225.07807c-.1088-.0378-.2229-.0651-.3808-.11531l-1.8809 7.53882-1.1289 3.69807 2.1055-11.46558c-.2011-.0197-.4082-.0561-.6133-.0743l40.1268-232.08917a249.99917 250.18666 0 0 0 -42.4354-3.64138zm-1.9453 235.66215 1.0117 8.77021v.043l.8711 4.45646v.46128l.029-.16807.023.62741v.1036l-.057-.1036v-.43977l-.066.30686-.2383-.49451-.5625-4.74964zm-9.3652 5.00568 7.0859 6.37391-.025-.0197zm25.7675 6.02013-11.8261 2.9006h-.057zm-12.1504.11531-1.6269 2.78332-.3496.40069.1113-.44954-.092.20719-.02.18179-.051.10553v-.0253l.051-.0802v-.16221l.02-.0197v-.10556l.012-.0234.082-.12118v-.0234l.033-.0272.061-.1505v.0197l-.061.13096-.033.0508zm-6.5292.23849 3.3242 2.54682.3633.56682-.4493-.16807.2012.13878h-.022l-.2188-.13878h.037zm5.0331.24627-.2968 1.58908.2968-.84047-.3339 1.37603-.1016.1505.1387-.68606.2617-1.56758zm-.582.38505-.086 1.71808-.057.19351-.1172-.46715zm3.1445.7447-2.2754 1.58908h-.023l-.4121.27757-.2871.11728.2129-.27557.074-.0215.8867-.71342zm-4.0429.57856.1348.14075v.0469l-.084-.1251zm3.8633.31665h.029l-.1738.0802zm-3.5254.18179.1835.3577v.0392l-.1835-.35376zm.416.0938.02.26385v.0392l.039.0958.047.11728-.047.0215-.039-.1192.039-.0197-.039-.0605v-.0352l-.057-.26192zm2.2207.0644-.07.0272-1.0156.30686.1562-.0605zm-5.6387.0665 2.3692.40655.3457.21498.029.0606-.3124.0644zm2.1641.31271h.053l.094.0314zm.7265.19155h.02v.0196zm-.164.0606h.02l.074.0802zm.2148.1818h.024l-.024.0314zm-.3359.16808h.057l.2461.0352-.8125.32836zm-.3887.0352h.2168l-.9316.47886.2637-.0527-.025.0272-.2383.0253-2.0253.39287v.0234l-5.2422.93428 5.2422-.95774zm1.7774.0234.5078.043.7519.2228-.8457-.0841zm-.2188.16418.035.0178.1113.22088.3282.16611 1.4394 1.4034-1.3496-1.00858-.2344-.2971-.1855-.26385-.018-.0333-.092-.18766h-.035zm-1.0625.0802-.25.27364h-.029l-2.7812 1.26461 2.2988-1.41316zm1.5703.0997.1485.0253.031.0314zm.2207.0253 1.9356.60398-1.9063-.57074zm-1.1796.17201.031.1251.022-.0978-.022.13092v.006l.076.23066.125 1.89594-.2324-1.35256.031-.77402-.088.50819v-.0919l-.031-.18569.031.14272v-.26385zm.7226.0919.061.0664.088.14661-.037-.0314zm-1.1406.1818-.2442.52578-3.9492 12.85138 3.9219-12.85138h.027l.084-.28732.01-.0117zm-.088.10552-.065.11339.041-.0978zm1.4648.0802.033.0234.1152.18962-.092-.0919zm-.4375.21306.023.0295.029.22669zm-1.7304.26581v.0295l.051-.0295zm2.2929 1.35257 4.8828 10.7893-4.8828-10.73457z" fill="#aa40bf"/></g><path d="m9.7725749 289.49478c-6.3168315 6.63912-11.7121519 18.74583-8.9902344 31.55078 2.289225 7.50485 7.0456073 13.7366 12.6347665 17.24805 5.589158 3.51145 11.314813 4.58798 16.171874 4.79687 9.714124.4178 16.992207-2.06639 22.597657-4.47656l.324218-.13867.320313-.15234c6.884727-3.28585 11.609176-7.36938 15.603516-11.26563 15.042649-.0842 28.051333-2.10421 44.187495-8.38672 12.61387 4.23727 25.98734 6.49825 38.95117 7.61328-2.16968 3.47625-4.16826 7.14321-5.81445 11.15335-5.61812 13.68663-6.84775 27.50906-3.81836 39.96194 2.91901 12.00074 10.8352 23.2851 22.56055 27.93359 11.72208 4.64725 25.09552 1.9372 35.55468-4.63867 7.9857-5.02046 14.86397-12.18816 20.19336-21.06641 1.91211 4.94797 4.27073 10.31351 7.01563 16.00391-3.27519 18.13556-2.95781 35.36878-2.09961 51.81445l-17.28906 6.49024-18.68632 38.0825 22.97579 5.08792c34.66208 5.30061 59.03021 2.13905 76.82595-.19704l24.27394-5.55029-23.17257-38.1829-8.13476-4.10547c3.19795-17.46975 6.79221-36.81171 4.02539-58.4082.28518-17.83824-3.97605-33.11015-7.15625-46.85156 8.39859-13.03164 11.50184-25.80194 13.08008-35.88477 1.87941-12.00694 2.46256-20.05398 8.14357-30.92092 1.69653-3.23645 3.60184-6.35638 5.67092-9.36624l10.23828-12.625c28.71273-30.37144 79.84662-49.34111 124.20508-64.72461-.81473.2826.46131-.15509 6.35742 2.14649 5.89612 2.30157 14.68726 6.63091 26.28516 8.42773l15.77148 2.44336 11.36133-40.4668-5.01953-7.02148c-7.77197-10.87336-15.19369-12.77148-23.85352-16.57812-8.65926-3.8064-16.2604-7.06698-26.8457-7.2129h-.002c-6.96297-.0963-9.81169 1.14421-14.00977 2.18555-3.38729.84023-6.02104 1.64342-8.49023 2.42774-50.53974 9.72867-94.56358 12.50361-148.78907 28.93359-34.16268-34.507-70.0791-68.865196-93.95021-90.185457-23.87112-21.320261-30.00047-25.699663-37.99838-28.891901-3.70132-1.477322-11.84632-1.614013-11.84632-1.614013-12.21447.167286-29.312477 3.468036-50.6914 6.933593l-21.113281 3.421875 19.175781 55.560553 14.595703-1.95117c18.989017-2.53862 27.393447-3.78031 32.384767-4.34766 28.96652 40.85546 52.96132 79.71996 66.10351 120.28125l2.16406 9.57422c-9.13357 15.0505-15.30464 20.39016-27.68359 28.67969-15.07716-3.8357-32.13404-7.38167-52.01953-5.38867-11.62056-1.13201-22.028.49902-30.740232 3.46679-7.985459 2.7202-15.18746 5.98393-24.113282 9.35938-12.771304-1.79299-22.488814 3.31296-28.383788 5.84961-5.910918 2.99133-12.725161 6.53275-19.0419931 13.17187z" fill="#6a1f7a"/><path d="m302.51581 243.01499c33.14087-35.34158 87.19429-54.27858 131.75159-69.73103 11.82096-4.10016 24.54819 7.19669 41.29605 9.79138l4.71396-16.78968c-4.73732-6.62774-27.03832-16.13126-36.30592-16.25865-3.92344-.0544-15.06761 3.06345-18.44464 4.22172-55.40495 10.69972-100.50971 12.81982-157.71549 31.68-36.19895-36.87231-74.09853-73.34199-117.58919-110.676258-8.98267-7.712119-9.42311-12.526122-20.84057-12.370512v-.000975c-7.8119.10699-26.63968 3.231703-48.057797 6.703615l7.393811 21.421804c42.723446-5.711633 42.470656-6.860193 45.593836-2.501335 31.25161 43.607051 57.95549 85.726131 72.61184 131.313231l4.00998 17.74471c-14.47255 25.46067-23.6594 31.60703-43.4819 44.90144-17.41686-4.55139-34.79485-9.19035-55.18911-6.79404-20.436016-2.72792-28.768149 4.83828-53.563306 13.5181-7.513386-2.52859-16.49216.96959-22.265038 3.43105-9.487304 4.83928-20.75206 11.94455-18.247262 23.91246 3.839834 12.36272 19.66398 8.65352 26.890542 5.54633 6.072399-2.89815 11.721799-8.5359 15.904846-12.97349 20.78904.55337 30.020592-.12469 51.523308-9.63968 16.28022 6.61414 36.86893 9.24383 55.32232 9.69801 1.13794-.84715 2.3079-1.6504 3.5073-2.40798 10.67259-6.71042 23.61567-9.27495 35.30925-4.63892 11.69258 4.637 19.19821 15.31043 22.1435 27.4213 1.73954 7.15002 2.02347 14.93407.83232 22.89225 4.61872 12.96183 8.12892 24.86845 16.43871 40.76047-5.04946 22.15412-3.44606 44.03882-2.19949 66.46429l-22.15129 8.31511-4.22002 10.7649c32.78191 5.01309 50.24655 2.36623 68.27219 0l-7.91211-11.57598-15.91651-8.03013c3.40715-22.37492 9.36186-44.49305 6.07333-67.538.53482-17.21761-5.1428-34.43419-8.50618-51.65174 20.71513-25.51808 10.08723-43.51175 24.60066-71.27343 2.09769-4.00453 4.441-7.87544 7.01655-11.59059zm-109.23084 74.14139c-3.94193.11659-8.20862 1.51713-12.63287 4.29853-7.07681 4.4503-13.9854 12.45322-18.24144 22.81837-4.25504 10.36519-4.93275 20.84121-2.97928 28.87132 1.95346 8.03114 6.11613 13.239 11.70427 15.45441 5.58814 2.21543 12.26337 1.30614 19.34018-3.14318 7.07877-4.4503 13.98836-12.45513 18.24436-22.82032 4.25504-10.36515 4.93082-20.83924 2.97735-28.87034-1.95345-8.03113-6.11516-13.23997-11.7023-15.4554-2.09546-.8315-4.3445-1.22343-6.70927-1.15339z" fill="#eed9f2" stroke-width="36"/></svg>