<svg height="500" viewBox="0 0 500.00052 500" width="500.00052" xmlns="http://www.w3.org/2000/svg" xmlns:xlink="http://www.w3.org/1999/xlink"><radialGradient id="a" cx="249.99998617249" cy="750.00002617249" gradientUnits="userSpaceOnUse" r="250.00000617249"><stop offset="0" stop-color="#d5f6ff"/><stop offset=".09472227" stop-color="#d5f6ff"/><stop offset=".20889115" stop-color="#aef"/><stop offset=".41332352" stop-color="#80e5ff"/><stop offset=".54340753" stop-color="#5df"/><stop offset=".74956214" stop-color="#2ad4ff"/><stop offset="1" stop-color="#0cf"/></radialGradient><radialGradient id="b" cx="250.00002" cy="749.99994" gradientTransform="matrix(.0000002 -.99999868 .99999894 .00000003 -499.9992 999.9996)" gradientUnits="userSpaceOnUse" r="250.00026"><stop offset="0" stop-color="#d5f6ff"/><stop offset=".80876225" stop-color="#d5f6ff" stop-opacity=".498039"/><stop offset="1" stop-color="#d5f6ff" stop-opacity=".1"/></radialGradient><g transform="translate(0 -500)"><circle cx="250" cy="750" fill="url(#a)" r="250"/><path d="m250.5954 750.5602c-.0408.006-.1266-.0175-.17105-.0361-.0445-.0186-.0476-.0324.0769-.007-.12491-.0254-.10839-.0312-.0548-.0267.0536.004.14433.0192.16778.0347-.0232-.0155.0811.0108.16055.0336.0795.0228.13397.0421.011.0128.12284.0293.0546.0293-.0341.0205-.0887-.009-.19795-.0265-.15713-.0326l.00037.0004zm-.0786.0862c-.017-.008-.002-.009.013-.007.0154.001.0314.005.0172.007.0132-.002.024.002.0271.005.003.003-.002.006-.0191.003.017.004-.002-.002-.0199-.007-.0183-.005-.0364-.001-.0186-.001h.00015zm.39012.51097c.18919.17747.0741.10822-.0693-.00052-.14334-.10874-.31494-.25696-.23878-.23744-.0762-.0193-.15024-.0749-.175-.10563-.0248-.0307-.00021-.0365.1209.0437-.12095-.0799-.20967-.16284-.22861-.19259-.0189-.0298.0319-.006.19011.12629-.15799-.13264-.24085-.20382-.24329-.20725-.002-.003.0756.0609.23929.19925-.16384-.1385-.24576-.20775-.24576-.20775s.0819.0693.24576.20775c-.16384-.1385-.2604-.23503-.27055-.25406-.0102-.019.0661.0394.24785.21096-.18141-.17161-.27698-.25742-.28041-.25742-.003 0 .0853.0858.27241.25742-.18727-.17161-.28091-.25938-.28091-.26036 0-.00099.0936.0848.28091.26036-.18727-.17554-.276-.26135-.27254-.26036.003.00098.0991.0888.28054.26036-.18141-.17161-.26239-.25452-.25564-.25206.007.002.10124.0902.27074.26006-.1697-.16969-.25455-.25453-.25455-.25453s.0849.0848.25455.25453c-.1697-.16969-.2643-.25746-.27106-.25992-.007-.002.0743.0804.25596.25192-.18141-.17161-.2536-.22524-.24103-.20279.0126.0224.10991.12097.26753.25369-.15798-.13264-.18728-.17361-.15374-.1561.0335.0175.12991.0935.22324.1948-.0935-.1014.084.0693.23753.22092.15356.15164.26962.0942.0939.10673h-.00007zm3.66289 1.60326c1.17612.62414-.0829-.0449-1.34871-.71678-1.26582-.67193-2.53847-1.34678-1.38967-.73434-1.1488-.61244-1.74564-.92744-1.76017-.93376-.0145-.006.55325.29602 1.73367.91826-1.18-.62219.0995.0566 1.37996.73482 1.28047.67827 2.56191 1.35605 1.38579.73191l-.00044-.00006zm-2.41463 2.46924c0 1.05323-.0439-.0868-.56366-1.22877-.51978-1.14197-1.03957-2.2859-.56366-1.24047-.47591-1.04543-.71387-1.57595-.71387-1.58136 0-.005.23796.51427.71387 1.56926-.47591-1.05519.0439.0917.56366 1.239.51979 1.14734 1.03958 2.29516.56366 1.24193v.0002zm-1.62663-4.26364c-.004.002-.0156-.0157-.0223-.0279-.007-.0122-.008-.019.007.005-.0151-.0232-.0161-.0309-.0118-.029.004.002.0138.0135.0198.029-.006-.0155.008.006.0189.0261.011.0201.0195.0386.004.017.0151.0216.009.0177.00093.008-.009-.01-.0198-.0256-.016-.0279h-.00025zm-.0896-.14045c.006.0155-.009-.006-.0211-.0261-.0121-.02-.0215-.0386-.005-.017-.0151-.0216-.0131-.0216-.007-.0142.006.007.0166.022.0182.0297-.002-.008.0115.0108.0216.0258.0101.0151.0168.0267.001.005.0151.0216.0161.0285.0118.026-.004-.002-.0138-.0142-.0198-.03l.00025.0003zm-.10167.30429c.008.0293 0-.0107-.008-.0478s-.0165-.0714-.0109-.0307c-.006-.0409-.005-.0575-.002-.0555s.008.0224.01.0555c-.002-.0331.005.009.01.0492.005.0405.009.0794.001.0404.008.0393.0113.0508.0113.0453 0-.006-.004-.0282-.0113-.0574l-.0002.0005zm.20674-.95957c-.28235.20633-.40371.25065-.38125.22195.0225-.0287.1805-.14171.43225-.28385-.25162.14238-.31209.19407-.26729.18087s.19489-.0913.36439-.20847c-.1697.11705-.30817.18923-.34518.19893-.037.01.0275-.0431.26358-.17593-.23604.13265-.21639.0897-.12171.0146.0947-.0751.26438-.18239.32845-.17852-.0643-.004.18737-.15612.38142-.25898.19406-.10286.33055-.15645.036.0366.29452-.19312.0887-.0439-.15313.12434-.24186.16824-.5198.3555-.36958.23845-.15023.11706-.22923.17558-.23166.17558-.002 0 .0717-.0585.22766-.17558-.15609.11706-.29849.21945-.3428.24967-.0443.0302.009-.0117.2457-.18337-.23601.17161-.39788.27497-.42808.28664-.0302.0117.0713-.0684.36198-.26354l-.00039.00029zm-.30425.0509c-.008.006-.0113.009-.0113.009s.004-.003.0113-.009c-.008.006-.008.004-.005.00054.003-.004.009-.009.0127-.009-.004 0 .003-.005.008-.009.006-.003.0105-.005.003.0005.008-.006.0113-.009.0113-.009s-.004.003-.0113.009c.008-.006.003-.004-.003-.00054-.006.004-.0123.009-.008.009-.004 0-.01.005-.0125.009-.003.004-.003.005.005-.0005zm.74505-1.20927c-.79969 1.1371-1.18099 1.67347-1.16841 1.65101.0126-.0225.41905-.60372 1.19491-1.70191-.77626 1.0981-1.15757 1.63252-1.15316 1.6227.004-.01.39455-.56386 1.16116-1.6427-.76652 1.07859-1.15369 1.62373-1.15614 1.62766-.002.004.37981-.53337 1.15214-1.61966-.77236 1.08639-1.14392 1.61105-1.13424 1.5989.01-.0122.40058-.56111 1.15314-1.622-.75286 1.06104-1.1293 1.58668-1.1293 1.58324 0-.003.37644-.53595 1.1293-1.59124-.75286 1.05519-1.12442 1.5779-1.12098 1.57447.003-.003.38187-.53303 1.12898-1.58247-.74702 1.04934-1.11176 1.54962-1.10548 1.53355.006-.0161.38356-.54848 1.12058-1.56455-.73725 1.01618-1.10587 1.52816-1.10588 1.53011.00001.002.36863-.50613 1.10588-1.53011-.73725 1.02398-1.11465 1.55645-1.12093 1.57056-.006.0141.35858-.49012 1.10583-1.53956-.74702 1.04934-1.12541 1.58376-1.12885 1.59057-.003.007.36808-.51398 1.12085-1.57507-.75286 1.06104-.84065 1.17319-.64268.8855s.68169-.97523 1.07181-1.51357c-.3901.53834-.57151.78799-.56232.77573.009-.0122.20897-.28642.58122-.79573-.37253.50909.37058-.56657 1.00691-1.47792.63633-.91134 1.16587-1.65837.3662-.49201.79967-1.16636.25648-.39984-.38912.52369-.64559.92353-1.39357 2.00407-1.00349 1.46575-.3901.53834-.83676 1.23854-1.00938 1.53452-.17262.29597-.0712.18772.63483-.89086-.70605 1.07858-1.11369 1.68029-1.15083 1.72325-.0371.043.29625-.47284 1.07223-1.62925-.77628 1.15661-1.14686 1.66372-1.13525 1.61541.0116-.0483.40543-.65205 1.15795-1.71715-.75286 1.06494-1.14392 1.63251-1.15359 1.65546-.01.0229.36203-.49875 1.13469-1.61236-.77237 1.1137-1.16146 1.69688-1.16342 1.71543-.002.0186.38322-.52752 1.15942-1.67233-.77626 1.14491-1.17219 1.73491-1.17751 1.74714-.005.0122.37999-.55332 1.16621-1.71954-.78601 1.16636-1.17901 1.74466-1.17901 1.74122 0-.003.393-.58861 1.17901-1.74922-.78601 1.16051-1.17122 1.72809-1.16591 1.71925.005-.009.40114-.5941 1.17721-1.73925-.77626 1.14491-1.16439 1.692-1.16439 1.67488 0-.0171.38813-.59844 1.16439-1.71038-.77626 1.11175-1.16147 1.66665-1.15951 1.66516.002-.001.39109-.55936 1.16351-1.67316-.77237 1.11369-1.15855 1.65006-1.15855 1.63637 0-.0137.38618-.57744 1.15855-1.66397-.77237 1.08639-1.17999 1.67054-1.19449 1.69876-.0145.0282.36413-.4995 1.16429-1.63686l.00081.001zm-.84542.97129c0 .21651.006.32183.01.31936.004-.002.006-.11271-.002-.32736.008.21452.006.31204.002.30567-.004-.006-.01-.11666-.01-.31777v-.004-.004c0 .19506-.008.25065-.0146.22236-.006-.0283-.01-.14046-.00046-.28096-.009.14043-.008.20578-.004.20234.004-.003.0118-.0756.0155-.21034-.004.13457-.0237.12882-.0358.0786-.0121-.0502-.0168-.14485.009-.18807-.0255.0431-.0383.0744-.0383.0807 0 .006.0127-.0122.0383-.0686-.0255.0566-.0383.0701-.0383.0602 0-.01.0127-.0431.0383-.0802-.0255.037-.0383.0409-.0383.0311 0-.01.0127-.0333.0383-.0511-.0255.0178-.0383.046-.0383.0592s.0127.0112.0383-.0316c-.0255.0432.002-.1597.0297-.31385.0278-.15415.0561-.25959.0323-.0216.0232-.23796.0213-.0897.0116.0936-.01.18334-.0269.40178-.0343.30425.008.0975.003.17654-.003.19746-.006.0209-.0123-.0162-.008-.15106-.004.13457-.003.24282-.001.27063.002.0278.005-.0248.005-.21203v.004.004c0 .19505.006.30721.01.31702.004.01.006-.0827-.002-.29702.008.21452.0183.33836.0232.35011.005.0117.004-.0886-.0119-.32251.0151.23403.0161.35594.0114.3599-.005.004-.0151-.11003-.0227-.3478.008.23796.006.33842.002.32528-.004-.0131-.01-.13986-.01-.35628l-.00085.00019zm-.23811-1.19757c.19113 1.38871.27693 2.06844.27015 2.05824-.007-.0102-.10611-.71033-.28525-2.08134.17934 1.37115.26901 2.07916.26901 2.09481 0 .0156-.0897-.66105-.26901-2.05931.17934 1.39846.26901 2.10354.26901 2.10747 0 .004-.0897-.6933-.26901-2.09947.17934 1.40627.26901 2.1094.26901 2.1094s-.0897-.70313-.26901-2.1094c.17934 1.40627.26901 2.10355.26901 2.09962 0-.004-.0897-.70906-.26901-2.10762.17934 1.39846.26901 2.09769.26901 2.09769s-.0897-.69923-.26901-2.09769c.17934 1.39846.26901 2.07526.26901 2.05961 0-.0156-.0897-.72376-.26901-2.09511.17934 1.37115.26901 1.98749.26901 1.94015 0-.0473-.0897-.75835-.26901-2.0419.17934 1.28338.25833 1.97188.25158 2.00455-.007.0327-.0992-.59049-.26288-1.93045.16385 1.33995.20873 1.93483.18346 1.88266-.0253-.0522-.1207-.75138-.23746-1.99964.11698 1.24828.0887 1.13516.0292.6305s-.15018-1.40087-.15812-1.71878c.008.31791-.14654-.89039-.25472-1.82659-.10818-.93621-.17044-1.60032.0208-.19406-.19113-1.40627-.12867-.74897-.0204.18285.10826.93182.26232 2.13816.25438 1.82999.008.30817.0113.46909.0113.4735 0 .004-.004-.14767-.0113-.4655.008.3179.14601 1.16829.23773 1.64225.0917.47396.13671.57149-.0427-.61633.17934 1.18781.26901 1.85388.26901 1.9031 0 .0492-.0897-.51844-.26901-1.79807.17934 1.27949.2749 1.8929.27926 1.87434.004-.0186-.0825-.66907-.26796-1.91744.18519 1.24828.28173 1.96994.2842 2.03673.002.0668-.0891-.52126-.2802-1.89243.19113 1.37116.2867 2.07136.2867 2.08156s-.0956-.6696-.2867-2.05846l-.00052.00029zm.15988 2.16108c0 .0194.001.00083-.002-.0187-.003-.0195-.006-.0399-.002-.0244-.004-.0155-.001-.00085.002.0152.003.016.006.0335.002.0235.004.01.006.0208.006.0242 0 .003-.002-.00061-.006-.0202v.0002zm-.0465-.83474c.017.037-.003-.00002-.0232-.038-.0198-.038-.0391-.077-.0199-.0438-.0193-.0331-.0289-.0536-.0289-.0565 0-.003.01.0116.0289.0485-.0193-.0371.0004-.00098.0204.0366.02.0375.0404.0765.0227.0453.017.0309.0255.0514.0255.0549 0 .003-.008-.01-.0255-.0469zm-.0862.29258c-.002.002-.003-.002-.003-.005s.001-.006.003-.003c-.002-.004 0-.006.002-.006s.004.002.002.006c.002-.004.003-.006.003-.006s-.001.002-.003.006c.002-.004 0-.00097-.002.003-.002.004-.004.008-.002.005zm-.008.37839c.006.004-.005.0256-.0148.0392-.01.0137-.0181.0194-.008-.008-.009.0271-.005-.00026.002-.0285.007-.0282.0151-.0572.0132-.0334.002-.0232.0105-.0367.0157-.0382.005-.001.007.009-.004.0342.0113-.0254.0134-.0147.011.002-.002.0162-.009.0378-.015.034l.00015-.0003zm-.47591 1.48232c.36279-1.20537-.0683.1853-.48761 1.5506-.41936 1.36531-.82703 2.70525-.41748 1.39845-.40957 1.3068-.006-.0331.41107-1.39845.4169-1.3653.84695-2.75597.49001-1.5506.35694-1.20537.53931-1.80805.54176-1.80805.002 0-.17502.60268-.53776 1.80805.36279-1.20537.55782-1.85291.56747-1.88362.01-.0307-.16608.55539-.54477 1.81732.37838-1.26193.59293-1.92898.61042-1.95338.0175-.0244-.16208.59384-.57192 1.90248.40957-1.30873.57535-1.88216.5481-1.82707-.0273.0551-.24754.73871-.6101 1.94405l.0004.00011zm.42126-1.3692c.002-.008.006-.0147.008-.0167s.002.00086-.004.0127c.006-.0116-.002.002-.009.0155s-.0137.0271-.006.0155c-.008.0116-.004.00077.001-.0109.005-.0117.0124-.0242.01-.0167l-.0001.0003zm.0465-.59678c.002.002-.00083-.001-.004-.004-.003-.003-.006-.005-.004-.00046-.002-.004.00082-.006.004-.006.003 0 .006.002.004.006.002-.004.003-.002.003.0005 0 .002-.001.005-.003.003.002.002.003.003.003.003s-.001-.001-.003-.003zm-.0431.0464c.006.01-.004.00032-.013-.01-.009-.01-.0176-.0198-.01-.0105-.008-.01-.009-.015-.006-.015.002 0 .008.005.0142.015-.006-.01.00098-.00032.008.01.007.01.0132.0198.008.0105.006.01.008.015.008.015s-.003-.005-.008-.015h-.0002zm-.36283-.0276c.20678.0741-.0673-.006-.32618-.0853-.25893-.0795-.50275-.15849-.23553-.0824-.26722-.0761-.0332-.0498.21894-.006.2521.0434.52224.10379.3272.0961.19504.008.34523.0448.38139.0682.0361.0234-.0417.0331-.30279-.014.26133.047.39787.0802.4013.0865.003.006-.12623-.0141-.3973-.0744.27112.0605.35796.10046.32528.10684-.0327.006-.19578.001-.39178-.0947l-.00027-.00013zm.13644-.094c.0151.004-.0004.00012-.0162-.004-.0158-.004-.0318-.008-.0178-.004-.0132-.004-.0113-.006-.005-.006.006 0 .0166.002.0202.006-.004-.004.009-.00013.0185.004.01.004.0165.008.00041.004zm-1.67735-1.60324c.33155.31597.49247.47102.48903.46906-.003-.002-.17121-.16096-.49703-.47306.3257.31204-.60758-.51884-1.35849-1.19515s-1.31944-1.19804-.26425-.26768c-1.05519-.93036-.48176-.40569.27257.27258.75433.67826 1.68957 1.51012 1.35799 1.19415.33156.31597 1.01323.86892 1.36724 1.13954.35401.27063.38035.25894-.59875-.55437.97912.81333 1.52525 1.30874 1.56335 1.3692.0381.0605-.4318-.31403-1.48475-1.24051 1.05324.92645 1.50964 1.36335 1.46183 1.34575-.0478-.0176-.59986-.48971-1.5635-1.38125.96351.89135 1.47744 1.35945 1.49934 1.37454.0219.0151-.44823-.42284-1.45284-1.34354 1.00446.9206 1.54766 1.39065 1.57589 1.39747.0282.007-.45851-.44961-1.51389-1.38197 1.05518.93231 1.54182 1.38871 1.51359 1.3819-.0282-.007-.57133-.47685-1.57559-1.3974 1.00446.9206 1.5067 1.3809 1.5067 1.3809s-.50224-.4603-1.5067-1.3809c1.00446.9206 1.50279 1.3809 1.49984 1.3809-.003 0-.50718-.4603-1.50784-1.3809 1.00057.9206 1.46673 1.35847 1.44385 1.34338-.0229-.0151-.53479-.48314-1.49035-1.37438.95571.89135 1.43942 1.33702 1.44335 1.33702.004 0-.47193-.44567-1.43535-1.33702.96351.89135.94311.87975.5989.56627-.34421-.31347-1.01223-.92883-1.34396-1.24498l-.00009.00022zm1.88802 1.19756c.0132.01.0199.0216.0199.0264 0 .005-.007.003-.0199-.0143.0132.0177.007.007-.002-.006-.009-.0133-.0203-.029-.0165-.0213-.004-.008-.0148-.0205-.0206-.0268-.006-.006-.007-.006.009.0113-.0151-.0177-.00045-.005.0144.01.0149.0147.03.0313.0158.0213zm1.55252.10946c-.0151.01-.0226.015-.0226.015s.008-.005.0226-.015c-.0151.01-.00045.002.0149-.006.0154-.008.0314-.0172.0191-.009.0113-.008.021-.0116.024-.0116.003-.00001-.00069.004-.016.0116.0151-.008-.003.001-.0219.009-.0184.008-.0368.0161-.0213.006h.00055zm-.45245.15991c.0874-.0359-.0195.009-.12728.0408-.10775.0321-.21207.0623-.10667.0289-.10526.0331-.13351.04-.11707.0333.0164-.007.0776-.0272.15107-.0488-.0741.0215.0322-.01.13019-.0384.098-.0287.18765-.055.0803-.0235.10715-.0309.15005-.0417.1433-.0384-.007.003-.0632.0208-.1546.0464l.00036-.00015zm-1.47844.71775c.24967-.0975.37059-.1463.36763-.1463-.003 0-.1298.0488-.37563.1463.24576-.0975-.0643.0497-.36081.18431-.29647.13458-.57929.25649-.27895.10826-.30038.14823-.0927.003.15212-.14772.24478-.15067.52663-.3067.37452-.17993.15212-.12678.34618-.20869.4271-.22084.0809-.0121.0487.0455-.25173.19774.30038-.15215.41156-.18629.38531-.15799-.0263.0283-.18994.11901-.43931.21659l-.00013-.00021zm4.0023.0121c2.90418.46419 3.21332.55683 2.43071.46125-.78262-.0956-2.65698-.37937-4.11979-.66803 1.46281.28866 1.48633.30911 1.00172.22425-.48462-.0849-1.47738-.27502-2.04713-.40759.56953.13264 2.72184.30818 4.00084.38278 1.27899.0746 1.68468.0482-1.23903-.22287 2.93541.16968 4.40312.20773 4.40411.15702.001-.0507-1.4647-.19018-4.39611-.37551 2.9315.0819 76.25114.66804 125.46589 1.04204 49.21474.37399 74.32459.53587-19.16351-.23064 93.5096-2.39708 140.22635-5.18327 140.18536-6.85869-.041-1.67542-46.83971-2.24007-140.36106-.19407 93.33785-5.23301 68.266-3.76433 19.12877-.96595-49.13724 2.79838-122.33987 6.92647-125.26358 7.01229 2.92371-.12484 4.38557-.20675 4.38557-.22576 0-.019-1.46186.0249-4.38557.15166 2.92371-.15602 2.55802-.10726 1.30633-.0209-1.25168.0863-3.38936.21015-4.00959.20429.62023.006.58801.0323.35345.0478-.23455.0155-.67145.0202-.86055-.0168.18918.0371.54123-.0644.71775-.1463.17651-.0819.17748-.14436-.33549-.0293.51295-.11505.76943-.17258.76943-.17258s-.25648.0575-.76943.17258c.51295-.11505 2.61454-.62411 3.87842-.93326 1.26388-.30914 1.69005-.41837-1.14783.26626 2.83788-.6846 2.42049-.57538 1.16246-.26624-1.25803.30913-3.3567.81818-3.88137.93324.52469-.11505.78703-.17258.78703-.17258s-.26234.0575-.78703.17258c.52469-.11505.77824-.17258.77243-.17258-.006 0-.27099.0575-.78373.17258.51295-.11505.51195-.0526.33543.0293s-.52856.18334-.71769.14631c.1892.0371.61927.0321.84943.0164.23016-.0156.26041-.0419-.35004-.0474.61046.006.92253.009.92695.009.004 0-.29882-.003-.91895-.009.62024.006 73.34696-13.58943 122.94742-22.90328 49.60045-9.31384 76.07463-14.34606-15.81022 2.78653 90.3635-25.3088 134.42765-42.02204 133.2496-46.29398-1.17805-4.27193-47.5983 3.89745-138.2036 28.35391 87.66405-32.41227 62.48493-23.04824 15.2167-5.53434-47.26823 17.51389-116.62558 43.17767-117.31799 43.36491.69241-.18726.99765-.2721.96985-.26576-.0278.006-.38867.10383-1.02845.28126.63974-.17747 2.59213-1.00836 3.71021-1.51743s1.40187-.69634-1.29558.41344c2.64089-1.22487 3.92719-1.90557 3.89109-1.97382-.0361-.0683-1.39464.47592-4.0434 1.70083 2.56675-1.34775 67.45659-35.45885 111.02238-58.3613 43.5658-22.90246 65.80754-34.59627-16.92191 8.89056 81.25885-46.29154 121.1071-70.81724 120.28399-72.2708-.82312-1.45356-42.31759 20.16502-123.74419 66.16205 79.7824-48.69058 58.33745-35.58953 16.32617-9.94136-42.01127 25.64817-104.58888 63.84347-107.07178 65.34141 2.45949-1.53499 3.67754-2.32102 3.66588-2.34009-.0117-.0191-1.25304.72879-3.71238 2.26159 2.43999-1.56425 2.78717-1.74076 2.18936-1.3258s-2.14061 1.42139-3.48056 2.22301c1.33995-.80163 1.27948-.75773.77919-.45345s-1.4404.86894-1.85972 1.10883c.41936-.2399 2.12989-1.53693 3.15825-2.34295s1.37456-1.12102-.93475.60317c2.29564-1.75344 3.43567-2.64089 3.42752-2.65261-.008-.0117-1.16447.85226-3.46152 2.60171 2.28397-1.76514 59.45893-47.66464 97.83806-78.49755s57.96243-46.59923-14.93692 11.90201c67.563-65.15611 98.41982-100.78951 95.34205-104.01162-3.07778-3.22212-40.09015 25.96706-108.26555 90.45613 61.89305-70.0478 44.41815-50.16998 11.25252-12.56663-33.16564 37.60334-82.02201 92.9322-82.8919 93.7865.86989-.8543.94397-.91475.69722-.66362s-.81433.81384-1.22775 1.20588c.41349-.39205 45.75517-58.87768 76.66951-98.80155 30.91434-39.92386 47.40135-61.28596-9.8945 12.56907 52.29305-77.72859 75.82207-118.36778 73.06611-120.23677-2.75596-1.869-31.79691 35.03218-84.64381 112.38434 47.4325-80.53721 34.71468-58.84646 9.75938-16.408s-62.14809 105.62463-63.66553 108.07828c1.50574-2.46145 2.25276-3.69997 2.24747-3.70581-.005-.006-.76289 1.22101-2.26637 3.69031 1.49792-2.46924 2.24688-3.70387 2.24688-3.70387s-.74896 1.23463-2.24688 3.70387c1.49792-2.46924 1.14977-1.88997.39788-.64754-.75189 1.24242-1.90752 3.148-2.02455 3.33134.11697-.18333 1.03465-2.2069 1.6237-3.53076.58904-1.32386.84945-1.94801-.34811.66752 1.11175-2.66234 1.62276-4.00814 1.57548-4.02526-.0473-.0171-.65286 1.29442-1.77428 3.94676 1.02788-2.6877 27.02126-71.24731 44.47274-117.28578 17.45147-46.03846 26.36103-69.55579-6.77872 17.84109 30.19655-88.52228 43.80083-133.30028 42.22733-133.84299-1.57349-.5427-18.32477 43.14989-48.83931 131.56879 27.50499-89.33561 20.09336-65.29459 5.59727-18.23361-14.4961 47.06099-36.07665 117.14194-36.90949 119.88619.79969-2.75986 1.18198-4.14272 1.16243-4.14806-.0195-.005-.44095 1.36685-1.24863 4.11706.75872-2.76961.84555-2.98319.64516-2.18108s-.688 2.61992-1.07818 3.91306c.39006-1.29314.40859-1.36432.28764-.97032-.12094.39401-.38136 1.25319-.54918 1.82076.16781-.56758.20485-.60465.17315-.43545-.0317.16919-.13213.54464-.23925.8021.10733-.25747.20779-.51592.23945-.60515.0317-.0892-.005-.009-.17335.41009.16781-.41936.19899-.41736.1628-.27153-.0362.14583-.13974.43548-.2414.59143.10148-.15602.13757-.20868.12789-.19213-.01.0165-.0651.10231-.14679.22313.082-.12091.14343-.28865.15741-.3618.014-.0731-.0195-.0517-.12721.20578.10734-.25747.20193-.62903.22914-.7958.0272-.16676-.013-.12872-.17514.433.16195-.56172.24878-.84649.25313-.84894.004-.002-.0738.27742-.24183.84494.16781-.56758.57935-2.63211.80363-3.85113.22427-1.21902.26128-1.59253-.31997 1.22194.52074-2.82227.74798-4.2373.71336-4.24175-.0346-.004-.33108 1.40168-.85773 4.22175.46032-2.82617 12.94894-75.08771 21.34506-123.61395 8.39612-48.52625 12.69973-73.3172-3.20995 18.79777 7.65154-93.55049 7.26047-140.69924 2.82031-141.08787-4.44016-.38862-12.92941 45.98289-21.47424 139.47291.0215-93.49002.014-66.27565.002-15.61905s-.0284 124.75544-.0247 125.03435c-.004-.27892-4.74063-74.22173-7.98417-124.77154s-4.99401-77.70664.97432 15.58639c-12.23857-92.89709-21.50828-138.94093-24.82572-138.51476s-.68261 47.32235 10.88792 140.30526c-17.84703-91.76389-13.00703-67.07143-3.57996-18.73243 9.42707 48.33901 23.44121 120.32456 23.94247 123.14683-.53441-2.81447-.82113-4.21781-.84208-4.21392-.021.004.22385 1.415.75248 4.22942-.57538-2.81447-.86306-4.2217-.86306-4.2217s.28768 1.40723.86306 4.2217c-.57538-2.81447-.4944-2.21276-.2418-.83771.2526 1.37506.67682 3.52346.78794 3.80237-.11112-.27893-.20571-.50127-.23255-.55783-.0268-.0566.0141.0526.17395.43684-.15988-.38425-.32273-.78604-.3793-.92939-.0566-.14335-.007-.0283.25836.62121-.26527-.64949-.91964-2.6204-1.27657-3.74824s-.41642-1.4126.50807 1.3102c-.98107-2.6994-1.49598-4.04032-1.52282-4.03206-.0268.008.43441 1.36571 1.40566 4.06306-1.03372-2.67989-1.55351-4.01594-1.55875-4.0111-.005.005.50407 1.35056 1.52855 4.0342-1.04347-2.6838-26.98304-71.26389-44.39186-117.31748-17.40882-46.05358-26.28689-69.58066 6.79263 17.84157-36.02194-86.30853-55.48432-128.865-57.0138-128.23354-1.52948.63145 14.87394 44.45082 50.58362 130.89394-38.55536-85.14804-28.23066-62.21097-7.95553-17.34032 20.27512 44.87065 50.50066 111.67488 51.74698 114.26115-1.26777-2.58042-1.91336-3.8599-1.92502-3.85066-.0117.009.61059 1.3072 1.87852 3.88166-1.2912-2.56677-1.57889-3.16166-1.33412-2.68965.24478.472 1.02202 2.0109 1.86068 3.71169-.8387-1.70078-.89426-1.74175-.64508-1.18832s.8031 1.70126 1.18336 2.37809c-.38034-.6768-.56173-1.0074-.55546-1.00199.006.005.20021.34684.57056 1.01409-.37059-.66705-.49152-.88452-.44758-.80504.0439.0795.25276.4559.54168.97667-.28866-.52076-.31786-.58415-.23884-.44908.079.13506.26624.46858.41043.74165-.14438-.27307-.21657-.4057-.21657-.40275 0 .003.0722.14148.21657.41075-.14438-.26915-.33162-.60462-.41059-.74261-.079-.13799-.0497-.0785.239.44229-.28866-.52076-.50614-.905-.55641-.98984-.0503-.0849.0667.12969.4468.80649-.38034-.6768-1.42967-2.44194-2.01773-3.41911-.58806-.97716-.71485-1.16636.74993 1.30874-1.51939-2.43999-2.31127-3.64243-2.34347-3.62245-.0322.02.69527 1.26237 2.21459 3.71205-1.57401-2.40294-40.06021-64.81772-65.88178-106.74516-25.82156-41.92745-38.97849-63.36757 10.10608 16.17882-56.36201-75.06235-87.94409-110.06089-91.52742-107.39953-3.583333 2.66137 20.83207 42.98263 76.46502 118.5599-61.91255-70.04194-43.91046-49.64238-10.3766-11.68357s82.59949 93.47687 82.81404 93.67191c-.21457-.19506-.38231-.38229-.4243-.44323-.042-.0609.0418.004.3302.31454-.28866-.31011-.30331-.30708-.21457-.19878.0887.1083.28089.32188.40581.43288-.12491-.1112-.18737-.15703-.18737-.15021 0 .007.0625.0663.18737.16571-.12491-.0995-.239-.19992-.27407-.23509-.0351-.0352.009-.005.19997.15659-.19114-.16188-.30426-.26624-.31587-.28238-.0116-.0162.0783.0559.29317.24688-.21456-.19113-.31892-.28279-.31695-.27984.002.003.11025.10051.32095.28784-.21064-.18726-52.72776-52.44322-88.62633-88.17073s-55.17859-54.92657 11.08497 10.99996c-70.73934-61.42955-108.192845-89.7492-110.388182-87.23235-2.195336 2.51685 30.8675 35.87021 101.160852 97.78665-74.125557-56.93699-54.19663-41.61831-15.16142-11.62701 39.0352 29.9913 97.17669 74.6552 99.47625 76.40864-2.31712-1.73003-3.48055-2.58432-3.48676-2.57316-.006.0112 1.1448.88778 3.45656 2.61956-2.32687-1.71638-1.86462-1.29216-.75141-.41398 1.1132.87818 2.87736 2.21033 3.15432 2.3098-.27693-.0995-.74112-.31694-.96397-.43202-.22284-.11508-.20432-.12777.4842.18234-.68852-.31011-2.49365-1.34384-3.49422-1.94555s-1.19659-.7714 1.33312.64657c-2.57261-1.36335-3.87354-2.02064-3.88969-1.99432-.0162.0263 1.25247.73629 3.81899 2.10744-2.59238-1.3242-67.44425-35.49567-110.97614-58.4483-43.531892-22.95263-65.743797-34.68642 16.94376 8.86476-84.154282-40.76987-126.920123-59.73977-127.646899-58.24671-.726777 1.49306 40.585512 23.44906 124.587489 64.531-85.291017-38.2031-62.385447-27.88824-17.48715-7.74029 44.8983 20.14796 111.78932 50.12901 114.46922 51.25831-2.70526-1.07273-4.07251-1.57692-4.08757-1.54327-.0151.0337 1.32206.60512 4.02557 1.68372-2.72865-1.01422-2.20398-.78505-.90938-.28088 1.29459.50418 3.35912 1.28336 3.7102 1.36917-.35108-.0858-.53248-.13361-.53682-.13705-.004-.003.16837.0375.52552.12905-.35694-.0917-.45349-.10135-.39742-.0759.0561.0254.26478.0859.51837.13454-.25355-.0487-.3745-.0672-.37058-.0633.004.004.13269.0302.37858.0713-.24575-.0409-.36862-.0613-.36862-.0613s.12287.0204.36862.0613c-.24575-.0409-.37448-.0672-.37841-.0711-.004-.004.11694.0145.37041.0631-.25355-.0487-.4564-.10425-.50814-.12625-.0517-.022.0476-.0104.39853.0753-.35108-.0858-.47006-.10129-.43196-.0822.0381.0191.2333.0728.51056.12529-.27695-.0525-.38324-.0652-.36077-.056.0225.009.17369.0405.41177.076-.23796-.0349-.38912-.0622-.41159-.0687-.0225-.006.0838.008.36059.0566-.27695-.0486-.41542-.0769-.41542-.0799s.13847.0194.41542.0719c-.27695-.0525-2.40292-.71079-3.76433-1.14431s-1.95826-.64229.82306.2042c-2.80082-.80163-4.21196-1.17318-4.22213-1.14343-.0102.0298 1.38061.4608 4.18363 1.26441-2.82076-.75285-72.9815-21.99401-120.07146-36.2853-47.089955-14.29129-71.109127-21.63271 18.35326 5.41392-91.892817-19.02059-138.7221855-24.40476-139.6483943-20.05774-.9262087 4.34703 44.0507423 18.42524 135.7705643 38.32939-92.765257-11.48219-65.846677-8.06503-15.64024-1.79244 50.20645 6.27259 123.70075 15.40061 124.08694 15.34015-.38619.0605-.77043.0907-.9011.0907-.13068 0-.008-.0302.62028-.0907-.62805.0605-74.49137-4.32993-124.86775-7.35799-50.376372-3.02805-77.265802-4.69373 16.05394.81624-93.700667.77822-140.5376405 4.34849-140.5227855 7.69982.014855 3.35132 46.8815385 6.48372 140.5881855 6.38621-93.266312 6.48323-68.20814 4.77855-19.10442 1.39016s122.25299-8.46049 125.16888-8.71209c-2.91589.25161-4.37676.37741-4.37922.37742-.002-.00001 1.45348-.12581 4.37122-.37742-2.91786.25161-4.32997.37352-4.29731.37107.0327-.002 1.51012-.12926 4.37141-.37507-2.86129.24575-4.33582.37252-4.36602.37497-.0302.002 1.38392-.11942 4.29992-.37097-2.91591.25161-2.36004.26434-.9806.18731 1.37944-.077 3.58245-.2438 3.96084-.35119-.37839.10726-1.78953.45541-2.62674.65728-.83722.20187-1.10052.25746.81676-.2204-1.91728.47785-2.75987.69532-2.6804.68016.0795-.0152 1.08101-.26296 2.85199-.71566-1.771.45254-1.84215.52958-1.2843.42717.55784-.1024 1.74468-.38425 2.48967-.64952-.74506.26527-.69243.26225-.40086.17003.29157-.0922.82208-.27361 1.03279-.36509-.21063.0917-.31595.13751-.31595.13751s.10532-.0458.31595-.13751c-.21063.0917-.28084.13751-.25691.13751.0239 0 .142-.0458.30791-.13751-.16574.0917-.22328.13361-.20637.13066.0169-.003.10828-.0508.24037-.13866-.13266.0878-.19313.1317-.1892.1317.004 0 .0722-.0439.1972-.1317-.12492.0878-.18444.1317-.18248.1317.002 0 .0654-.0439.18648-.1317-.12095.0878-.18142.1317-.18142.1317s.0605-.0439.18142-.1317c-.12095.0878-.1425.13559-.11571.13854.0268.003.10191-.0389.17431-.13054-.0722.0917-.23504.1882-.3218.22226-.0868.0341-.0974.006.13472-.15256-.23209.15795-.26913.18227-.21498.14513.0541-.0371.19948-.13573.33214-.22363-.13266.0878-.22431.13559-.24122.13853-.0169.003.0409-.0389.20722-.13053-.16574.0917-.2486.13751-.2486.13751s.0829-.0458.2486-.13751c-.16574.0917-.39491.21259-.4949.26326-.1.0507-.0708.0311.28022-.15822-.35108.1892-.48469.27404-.4564.26764.0283-.006.21848-.10401.515-.27974-.29645.17554-.44956.26917-.45301.2731-.003.004.14277-.0818.44501-.2651-.30233.18333-.49056.27889-.51546.28134-.0249.002.1135-.0882.46446-.27734-.35108.1892-.84063.34425-1.05615.38568-.21551.0414-.15699-.0308.58809-.29608-.74508.26527-1.11761.4018-1.11761.40425 0 .002.37253-.12918 1.11761-.40025-.74508.27113-1.93191.55199-2.48973.65194-.55782.0999-.48663.019 1.28437-.43356-1.771.45253-2.7862.70025-2.87495.71541-.0888.0152.74892-.20222 2.6837-.67991-1.93482.47786-3.64632.86112-4.15586.95961-.50955.0985.18286-.0878 3.05587-.74898-2.86713.68266-4.3007 1.03861-4.29881 1.0527.002.0141 1.43923-.31369 4.31391-.9985-2.86128.70802-74.07864 18.14975-121.87835 29.8538-47.799715 11.70406-72.181767 17.67043 18.62759-4.57228-90.072482 25.2971-134.684798 39.4622-134.2395155 41.06111s45.9481635-9.36837 136.1060755-34.33604c-89.219167 27.97485-65.262795 20.48617-18.29947 5.77654 46.96332-14.70962 116.93358-36.64017 119.74221-37.54907-2.77937 1.02008-4.15638 1.58278-4.14229 1.6364.0141.0536 1.41928-.40181 4.20429-1.41802-2.75596 1.0981-2.27517.95474-1.00203.48126 1.27315-.47348 3.33865-1.27707 3.75213-1.49944-.41348.22237-1.66566.87967-2.38146 1.25317-.71581.3735-.89526.4632.83673-.44962-1.73199.91281-68.64983 31.628-113.8913 52.35319-45.241477 20.72519-68.806587 31.46036 16.16689-7.58688-81.434412 46.7965-120.064073 73.87541-117.871206 77.75004 2.192868 3.87464 45.208264-15.455 127.063966-61.47562-77.148727 52.90954-54.82467 37.68934-13.11397 9.14521 41.71071-28.54412 102.80807-70.41218 103.20596-70.79837-.39791.38619-1.05325.95181-1.3658 1.20634-.31255.25454-.2823.19798.69097-.66021-.97327.8582-59.08862 46.43314-98.56013 77.35489s-60.299192 47.19031 13.30287-10.56429c-69.670772 62.78067-102.393843 96.54049-100.167818 99.03835 2.226025 2.49787 39.401148-26.26621 109.526758-88.53334-65.62655 66.69909-48.0085 48.82241-13.46646 13.73654 34.54205-35.08587 86.00808-87.38093 88.07751-89.51861-1.98359 2.21959-2.92955 3.36742-2.88273 3.40936.0468.0419 1.08643-1.02202 3.07397-3.22601-1.90167 2.29566-1.66957 2.10549-.85868 1.18879s2.20058-2.55993 2.61408-3.17043c-.4135.61049-.62025.90987-.62025.90595 0-.004.20675-.31117.62025-.91395-.4135.60269-.50326.77043-.42332.67828.0799-.0922.32959-.44419.59491-.88109-.26527.43689-.36765.61729-.34714.59191.0205-.0254.16391-.25655.39024-.64281-.22624.38619-.22057.44957-.13873.36082.0818-.0888.23984-.32964.31826-.55199-.078.22237-.12775.36183-.13498.38081-.007.019.028-.0825.11988-.34211-.0917.25941-.34228.65925-.48223.84405-.13996.18479-.16925.15455.18176-.4462-.35108.60073-.43007.73823-.36474.62705.0653-.11118.27497-.47103.50118-.86501-.22625.39398-.3696.62315-.39011.64462-.0205.0215.0818-.16474.34701-.60152-.26527.43688-.51491.79479-.59487.89085-.08.0961.01-.0697.42328-.68021-.41348.61048-1.02493 1.48524-1.30188 1.87581s-.2194.29694.70513-1.02936c-.92451 1.32629-2.04894 2.85543-2.5029 3.44788-.45397.59244-.23747.24819 1.51988-2.17229-1.73199 2.43412-2.57945 3.6668-2.56192 3.67999.0175.0132.90004-1.1931 2.62802-3.63689-1.70077 2.45559-43.56483 62.71894-71.65641 103.15416s-42.41068 61.04231 10.97847-15.81462c-50.79118 78.67473-74.86788 118.85976-73.47513 119.76057 1.39276.90081 28.25497-37.4826 79.34164-115.94476-48.38961 80.10771-35.41134 58.63834-9.95045 16.49938 25.46089-42.13897 63.40438-104.94753 64.94522-107.51819-1.50378 2.59797-2.23422 3.91061-2.21136 3.92422.0229.0136.79903-1.27184 2.30846-3.87002-1.46475 2.61942-1.1244 2.10354-.39006.85331.73434-1.25022 1.86266-3.23478 1.97384-3.5527-.11112.3179-.20865.58804-.23696.66412-.0283.0761.0126-.0419.17836-.50024-.16573.45833-30.14366 68.25122-50.61983 114.52793-20.47618 46.27672-31.45059 71.03726 6.3907-14.56908-30.17688 88.99834-41.28059 134.87657-37.088 136.3253 4.1926 1.44872 23.6815-41.53204 54.68986-130.25167-22.84093 90.78123-16.31674 65.05036-4.02575 16.33698 12.29098-48.71339 30.34876-120.40928 30.57501-121.55808-.22625 1.1488-.58415 3.15482-.75137 4.13492-.16723.98009-.14378.93425.39269-2.02066-.51489 2.95491-.76064 4.43724-.74805 4.44162.0126.004.28354-1.46921.80205-4.42612-.49151 2.96271-13.84173 75.14134-22.81786 123.5642-8.97613 48.42287-13.57818 73.08997 3.42665-18.97035-10.81066 93.21302-13.07131 140.19979-9.75675 140.59963 3.31457.39984 12.20435-45.78724 23.69455-138.9219-5.1316 93.48961-3.73314 68.42842-1.01814 19.24587 2.715-49.18256 6.74655-122.48648 6.88113-125.48234-.0624 2.99977-.0604 4.49966-.0248 4.50066s.10475-1.49689.17672-4.49266c-.008 2.99586-.008 4.49379-.005 4.49379s.009-1.49793.0127-4.49379c-.004 2.99586-.006 2.57651-.006 1.26241 0-1.31411.002-3.52298.006-4.10615-.004.58317-.006.89232-.006.90497 0 .0127.002-.27119.006-.87397-.004.60268-.006.69631-.006.55393s.002-.52077.006-.86212c-.004.34135-.006.5081-.006.50563 0-.002.002-.17414.006-.50963-.004.33549-.006.4964-.006.49148 0-.005.002-.1757.006-.50358-.004.32769-.006.49836-.006.50329 0 .005.002-.1559.006-.49119-.004.33549-.006.49151-.006.48315 0-.008.002-.18111.006-.50315-.004.32183-.006.48761-.006.49104 0 .003.002-.15548.006-.48304-.004.32769-.006.43691-.006.39937 0-.0375.002-.22183.006-.48117-.004.25941-.006.39301-.006.39546 0 .002.002-.12625.006-.39146-.004.26527-.006.32279-.006.27156 0-.0512.002-.21124.006-.38101-.004.16968-.006.25452-.006.25452s.002-.0848.006-.25452c-.004.16968-.006.32573-.006.37446 0 .0487.002-.01.006-.26943-.004.25941.004.34621.0102.31702.007-.0292.0124-.17438.005-.37892.008.20478.0161.32669.0194.34033.003.0136.002-.081-.0114-.30933.0132.22817.0199.34226.0199.34226s-.007-.11409-.0199-.34226c.0132.22817.024.3257.0261.31397.002-.0117-.005-.13272-.0261-.34157.0215.20871.0323.31306.0323.31306s-.0108-.10435-.0323-.31306c.0215.20871.0282.33452.0261.34968-.002.0152-.0128-.0803-.0261-.31418.0132.23403.0329.38715.0413.41156.008.0244.006-.0799-.0262-.36066.031.28086.0661.71678.0797.91914.0136.20235.006.17114-.0495-.48225.0548.65339.0452.76847.0199.62366-.0253-.14482-.0662-.54952-.0739-.9357.008.38618.016.45933.0194.3774.003-.0819.002-.31892-.0114-.553.0132.23403.006.43102-.004.48563-.01.0546-.0222-.0332-.0185-.36865-.004.33548-.006.69729-.006.82942 0 .13214.002.0346.006-.54857-.004.58317.004.74019.0102.64804.007-.0921.0124-.43346.005-.84695.008.41349.071 1.13905.11197 1.49501.041.35595.0596.34229-.0224-.72264.082 1.06493.2205 3.1285.28729 4.17686.0668 1.04836.0619 1.08151-.14291-1.91436.26529 2.99587.42034 4.48893.44567 4.4855.0253-.003-.0791-1.50338-.33267-4.4935.30425 2.99001 8.80814 75.90504 14.52827 124.82337s8.65651 73.83997-2.17424-19.15679c13.97095 92.62421 22.52262 138.70011 24.17513 138.45138s-3.59414-46.82211-17.21985-139.49645c16.75417 92.10679 12.21648 67.42594 3.37079 18.97771s-21.99938-120.66384-22.47725-123.62655c.55782 2.95685.8699 4.42456.90698 4.41574.0371-.009-.20081-1.49414-.74295-4.44334.61633 2.94124.9245 4.41187.92449 4.41187.00001 0-.30816-1.47063-.92449-4.41187.61633 2.94124.60471 2.75011.38532 1.61156-.21938-1.13856-.64653-3.22454-.86124-4.073.21453.84843.31303 1.2512.30723 1.23659-.006-.0146-.11589-.44657-.31853-1.26759.20285.82113.25358.95376.21898.7636s-.15455-.70312-.29308-1.17317c.13852.47005.21165.70898.21409.71193.002.003-.0658-.23008-.21009-.70393.14438.47393.27211 1.0064.31009 1.20828.038.20187-.0138.0732-.22849-.77526.21453.84843 22.61523 71.40051 37.88516 119.4334 15.26992 48.03288 23.40909 73.54657-4.89944-15.68178 30.50858 88.5297 46.86392 132.41322 48.02298 132.01285 1.15905-.40038-12.87817-45.08467-43.15472-133.69058 38.17185 85.68261 60.03423 127.29117 62.95743 125.99804 2.9232-1.29312-13.09278-45.48794-50.67763-131.41206 42.9173 83.18137 30.87049 59.7878 7.92125 15.27755-22.94923-44.51025-56.8009-110.13718-57.49331-111.42251.69241 1.28533 1.68128 2.96856 2.12109 3.68193s.33058.45689-1.17322-2.13718c1.53303 2.57652 2.31223 3.85405 2.32683 3.84289.0146-.0112-.73539-1.31102-2.26073-3.88929 1.55256 2.56093 39.29145 65.49949 64.60805 107.73126 25.3166 42.23176 38.21089 63.75671-9.92576-16.50957 53.61345 76.97727 83.02985 113.65415 85.78045 111.74907s-21.1646-42.39213-74.21435-119.7427c57.98435 73.45575 42.41308 53.77511 11.8898 15.13907-30.52328-38.63605-75.99856-96.22751-77.82222-98.59338 1.90167 2.31127 2.87786 3.43277 2.90906 3.39815.0312-.0346-.88259-1.22538-2.76091-3.5386 1.95238 2.2469 1.6169 1.89095.71823.87819-.89866-1.01276-2.36051-2.68233-2.66087-3.06266.30038.38032.97328 1.04054 1.33118 1.36187.35789.32133.40079.30378-.55883-.67144.95962.97521 2.3454 2.36782 2.96662 2.98758.62121.61975.47786.46664-1.6208-1.64958 2.12791 2.08696 3.2104 3.11288 3.22797 3.09539.0176-.0175-1.02975-1.07839-3.16147-3.16509 2.15522 2.05575 56.75561 51.05829 93.41542 83.91813 36.65982 32.85983 55.37907 49.57698-14.22798-12.93804 71.71735 60.15714 108.5893 89.0285 109.65816 87.75443 1.06887-1.27407-33.66536-32.69357-105.16036-93.11811 73.44545 57.94907 53.6983 42.46362 15.02026 12.0111-38.67805-30.45252-96.28698-75.87212-98.56509-77.79134 2.31712 1.86656 3.50298 2.77351 3.5284 2.74722.0254-.0263-1.10962-.98584-3.4343-2.85225 2.35807 1.81974 2.08307 1.61103 1.08738.84402-.99568-.76702-2.71206-2.09234-3.23676-2.5058.5247.4135 64.01125 38.47314 107.31521 64.40018 43.30397 25.92703 66.42535 39.72146-13.7803-8.39547 84.51215 40.91028 128.6192 57.57769 130.56671 53.59297 1.94752-3.98473-38.26451-28.62159-122.39051-70.31987 87.1667 33.86299 62.10366 24.16154 15.08559 5.91876s-115.99116-45.02688-116.64457-45.32919c.65341.30231.65541.35497.43308.28816-.22232-.0668-.66896-.25307-.91285-.42861.24382.17554.36083.25844.35738.25501-.003-.003-.12735-.0932-.36538-.26301.23796.16968.67194.35498.88746.42374.21552.0688.21259.021-.42326-.27547.63585.29645.9684.44761.97855.44908.0102.001-.3021-.14677-.95585-.44908.65339.30231 2.69158.97521 3.86379 1.33263 1.1722.35742 1.47842.39935-1.33215-.56025 2.81057.9362 4.21586 1.39455 4.21586 1.38524 0-.009-1.40529-.48629-4.21586-1.42074 2.81057.9206 72.71207 23.0542 119.62774 37.8985 46.91568 14.8443 70.84552 22.39929-18.28723-5.83731 91.03245 22.24467 137.31227 30.29118 138.11487 27.05395.8026-3.23722-43.87202-17.75819-134.74847-40.64846 92.00375 16.65278 67.2996 12.20287 18.87042 3.45178-48.42919-8.7511-120.58341-21.80339-123.47982-22.35536 2.89641.50323 4.35046.73143 4.35438.7066.004-.0248-1.44228-.30271-4.34638-.81163" fill="url(#b)"/></g><g stroke-width="1.2157" transform="matrix(3.1089514 0 0 3.1089514 -1009.6622 91.695954)"><g><path d="m1742.0977-19.257808c10.4144 1.005441 20.8186 1.925295 31.2226 2.287109 21.0006.730802 42.2015-.661891 60.6641-9.337891 3.2449-1.524271 6.3786-3.30282 9.3886-5.322265 16.0981-12.556598 26.6973-27.170743 31.9512-43.708985 1.3533-26.17371 4.9517-53.13876 0-77.42099h-74.3203c2.0639 5.99646 4.1222 12.11306 6.1777 18.11239 6.984 15.5853 3.1932 34.811313-9 53.382815-10.8941 16.589886-28.3722 31.815774-48.6543 41.222656l-9.0036 3.720703-15.1038 15.452666z" fill="#00b7e5" transform="scale(.26458334)"/><path d="m482.88992-35.625037c1.59354 5.388056-.006 11.395236-3.40042 16.56469-2.54723 3.878105-6.11743 7.405688-10.3513 10.120314l.20836.0071c5.23351.181927 10.16485-.256699 14.00485-2.061211 3.60997-1.696641 6.4008-4.464843 8.06648-9.68121 1.0588-4.901779 1.26052-9.869489 0-14.949678z" fill="#e5f9ff"/></g><g><path d="m462.13672-5.1328125c7.41643-2.6892732 13.68378-7.7699485 17.61328-13.7539065 3.80518-5.795696 5.84846-10.694023 3.13992-16.738318l-1.65555-4.792933h-24.63085l-.375 3.660158c-1.32319-1.485555-2.47207-2.440929-3.97266-3.660158h-20.47461-4.84207l7.33426 8.876954 4.81054.650391c7.47121 1.010825 10.66882 7.336196 9.50196 13.195313-.41902.553555-.83046 1.113394-1.27344 1.648437-.68554.828205-1.39999 1.646324-2.14258 2.453125l-6.85499 12.92712402z" fill="#00b7e5"/><path d="m1740.5237-36.322266c24.0705-8.728202 45.1815-25.943459 57.6582-44.943359 12.1932-18.571502 15.984-37.797515 9-53.382815h-65.1972c-1.692 16.3782-5.8922 31.31533-12.0645 45.169924-3.4325-17.487004-12.7925-33.731544-27-45.281254h-40.9495l-.027.17188c39.4335 5.3352 59.2373 42.167204 50.7656 74.783202-2.6064 3.609004-5.3374 7.157761-8.2129 10.63086-2.7936 3.375001-5.7002 6.704773-8.7188 9.984375l-9.3437 17.861328c7.3669-1.076421 16.6204-1.194003 27.0371-.507813z" fill="#e5f9ff" transform="scale(.26458334)"/></g><g><path d="m388.63086 94.818358c-6.56629 3.347065-11.93357 8.656082-17.77044 13.156062-6.00713 4.63125-11.58146 9.82444-17.74716 14.24238-4.59682 3.29378-14.30859 9.11495-14.30859 9.11495h36.51758s.30638-2.99952.5039-4.49386c.16258-1.23001-.0411-2.59463.56055-3.67969 3.91875-7.06718 11.28678-11.94633 18.39453-15.79101 2.79575-1.51226 5.97966-2.65419 9.1582-2.65625 1.78891-.001 3.98843.13314 5.15625 1.48828.96305 1.11751 1.11582 3.00994.58594 4.38672-.25783.66991-.94309 1.23143-1.64258 1.39258-1.29417.29815-2.53192-.98892-3.85999-.98709-1.43205.002-2.99826.23748-4.15926 1.07583-1.91843 1.38528-3.61127 3.61032-3.84936 5.96461-.20709 2.04775.60716 4.50246 2.24166 5.75329 3.52355 2.69646 8.94512 2.55833 13.23445 1.42343 3.88592-1.02816 7.56118-3.70069 9.78313-7.05039 2.18271-3.29054 3.16886-7.63372 2.6434-11.54725-.55671-4.14634-2.98469-8.089633-5.92856-11.062123-1.97574-1.994953-4.69214-3.256888-7.38538-4.050532-3.03092-.893153-6.31695-1.045956-9.45512-.677041-4.39922.517161-8.72676 1.98549-12.67315 3.997104z" fill="#00b7e5"/><path d="m355.61111 126.27093-9.45406 2.80961-15.463 2.25121h37.63306c.20812-1.73641 3.24123-8.48982 3.54365-10.15051 5.35019-7.56762 13.18974-14.35228 20.81355-18.09036 3.90763-1.91548 7.74621-3.02276 11.08782-3.139922 3.34184-.117157 6.13886.689612 8.4089 2.619382 3.60093 3.06133 3.54735 7.42521 1.50305 10.59656-2.0443 3.17136-5.78406 5.07159-11.13949 2.38126-2.53249.81779-2.35688 2.37416-1.99453 3.98145 7.03421 3.53306 13.76362.87868 16.87711-3.95169 3.11348-4.83014 2.90655-11.91816-2.36697-16.400868-3.00513-2.555081-6.75656-3.681413-10.66323-3.690938-4.87334.22981-10.02887 1.850721-13.66952 3.608785-5.80001 2.843211-11.51668 7.123991-16.38969 12.133181-5.6955 5.82241-12.07058 10.94115-18.72665 15.04285z" fill="#e5f9ff"/></g><g><path d="m394.41016 75.837891-6.77344 3.15625c-5.23333 2.438296-9.89579 3.654247-14.2461 4.320312l-2.88867.441406-.91406 2.775391c-1.39168 4.221383-6.88297 8.684664-14.13086 11.787109h-.002c-7.22234 3.092021-15.73224 4.639801-22.09961 3.753911l-3.18555-.44336-2.99035 5.26638c-1.46777 2.70923-1.36547 2.23864-2.4198 4.89154v19.54492h14.04495 6.13774l3.57707-.78488c13.58863-6.67105 26.58117-17.72883 32.68944-26.92942 5.30053-8.561603 10.98118-13.812291 14.00572-22.867337z" fill="#00b7e5"/><path d="m368.89424 88.617162c-2.27695.180975-4.44151.2667-6.51129.350044-5.51902.223123-10.27938.490538-14.89758 2.426018-3.04323 1.275397-6.0979 3.29565-9.32402 6.637734-.99584 1.471137-1.98072 2.983712-2.9468 4.539142l-2.51531 4.21981c-1.08347 1.88881-2.1436 3.83381-3.1773 5.84835l-4.76222 8.79125v9.90224h11.1162l10.54504-5.06082c12.78493-6.2765 25.26649-16.87831 34.21618-29.616572 2.66081-4.810126 5.71262-9.231631 9.01136-13.342144v-.000477c-5.67309 2.643188-10.82516 3.988594-15.53765 4.710113z" fill="#e5f9ff"/></g><g><path d="m1269.0254 355.0293c-9.7307 11.13164-17.3539 22.98649-21.1387 29.08008l-11.3027 19.90429 29.248 1.6211c27.1584 1.69995 57.9547-4.72711 85.1797-16.38086 25.4894-10.91074 46.7383-25.70498 58.627-44.81446l19.6738-31.61523c-21.8669 5.31406-41.4272 5.84872-60.3496 6.61328-20.1204.8127-39.7527 1.74392-59.5977 9.47852-15.7297 7.26902-30.9569 15.57148-40.3398 26.11328z" fill="#00b7e5" transform="scale(.26458334)"/><path d="m368.89424 88.617162c-2.27695.180975-4.44151.2667-6.51129.350044-5.51902.223123-10.27938.490538-14.89758 2.426018-3.04323 1.275397-6.0979 3.29565-9.32402 6.637734-.99584 1.471137-1.98072 2.983712-2.9468 4.539142 6.14768.38481 13.8203-1.15657 20.36684-3.958831 6.08981-2.606755 11.07995-6.357938 13.34214-9.994107-.01.0013-.0198-.000529-.0295 0z" fill="#e5f9ff"/></g><g><path d="m1493.7246 305.19727 8.3711 14.20898c11.8725 20.15443 35.304 29.54028 55.6309 22.10937h.01c19.714-7.20997 32.0651-28.02659 29.1211-50.16015-3.0096-22.62456-18.6048-41.42761-39.7285-48.79492-1.1037-.38452-2.2355-.73163-3.4101-1.06446-26.3408-1.37258-49.2845-10.10067-74.0958-15.57617-9.8595-2.1753-20.0264-3.79435-30.5996-3.99414-1.4918-.10414-3.0066-.0896-4.5273-.008-4.5622.24544-9.1699 1.08985-13.3066 1.10547-4.2849-.0221-9.6602.4581-15.5372 2.20508-11.3357 3.36885-23.1269 8.85655-32.4003 15.51757-9.2736 6.66103-13.6098 11.00142-17.9297 14.94727-4.7217-7.70675-10.9047-14.20371-17.8789-19.08984-13.2477-9.28178-29.149-13.90504-45.1622-13.31641-16.0053.58835-32.458 6.70457-44.7207 19.41406-21.9786 22.76831-24.7503 56.08448-6.0234 76.22656 10.4529 11.24015 25.4807 15.89105 40.6973 14.46094l-24.459 35.89453 43.2969-17.57617c4.109-2.50849 8.1864-4.5769 12.2578-6.2832 17.4546-7.3152 35.4473-8.32662 56.3066-9.16992 7.8228-.315 16.0032-.6384 24.6089-1.32272 28.3371-2.19109 60.7216-7.00872 99.479-29.73392z" fill="#00b7e5" transform="scale(.26458334)"/><path d="m373.26979 64.157676c-2.51651.747713-5.19875 1.979533-8.11054 3.891677-2.96299 2.592467-5.94241 5.337572-8.90016 8.274844.002-.49911-.0279-.992505-.0819-1.473041-.40767-3.615928-2.42554-6.51391-5.04539-8.349377-2.61938-1.83523-5.86693-2.780348-9.04113-2.663667-3.17421.116682-6.27293 1.293019-8.57965 3.683794-4.46722 4.627722-4.54914 10.373916-1.53352 13.617417 3.01609 3.243262 8.70109 3.539014 13.17903-.446485.51202-2.369354.59921-4.380958-2.95442-3.326606-3.14325 2.797969-5.65071 2.158127-6.96516.744379-1.31445-1.41351-1.86451-4.042172 1.47328-7.500938 2.73177-2.830116 8.38438-2.909887 11.86911-.468392 1.74236 1.220629 2.91798 2.907507 3.17754 5.208985.23907 2.122408-.33171 4.912995-2.50032 8.386286-.94631 1.070848-1.88666 2.166462-2.82035 3.289221 5.25066-2.046446 10.44512-2.293144 15.76864-2.508171 10.16032-.410527 21.01072-.557688 36.26167-11.571208 3.20517-.842486 5.89122-.754856 7.84313-.07453 2.58937.90297 4.04098 2.628424 4.41317 5.425202.25908 1.948577-.67509 3.020854-1.73403 3.408045-1.05846.387191-2.33743.307895-3.62355-1.875235-4.05623-2.024704-4.28506-.222016-3.83238 2.262188 2.11884 3.596878 5.96027 4.89966 8.98136 3.795236 3.02109-1.1049 5.1235-4.395073 4.62129-8.170783-.56769-4.267676-3.38994-7.657148-7.35949-9.041606-1.12085-.390525-2.32648-.638652-5.96467-1.117045s-8.93243-2.332911-13.93353-3.436858c-2.73844-.604123-5.38591-1.000125-7.79527-.964647-2.40935.03548-4.55534.330279-6.81276 1.001315z" fill="#e5f9ff"/></g><g><path d="m1405.0742 70.357422c-28.889 1.714487-50.977 17.512859-59.084 41.255858-8.107 23.74301 8.8993 60.72358 33.0254 68.49805 10.1388 3.26718 23.2079-5.7899 28.0742-15.26563 4.8674-9.47807 5.4336-20.30118-3.9492-31.7207-2.8533-1.41598-7.2634-4.15678-6.5117-6.35547.4248-1.24561 1.2971-4.40112 9.5449-3.73633 14.7849 1.19896 20.4423 5.71651 25.291 17.88672 4.2219 10.60144 4.8456 29.39466-3.4765 53.62305l-72.668 61.15039 46.7871-10.15625c2.9485-1.18503 5.8426-2.20957 8.6738-3.05078 8.532-2.5362 16.6426-3.65074 24.6094-3.76953v.004c10.2438-.153 20.2496 1.34366 30.5996 3.62696 18.9018 4.17239 38.911 11.18143 52.5762 12.98242 13.6651 1.80098 18.0651 2.69204 22.1719 4.07812 11.4082.71366 23.5409.24955 36.6055-2.14258l.4355-.0801.4355-.10352c23.5403-5.52521 43.7142-17.06985 60.3829-32.20703 24.8549-20.93909 47.0956-59.00925 50.4213-86.79725l1.0494-46.427359c-11.8668 11.218669-18.2714 26.051019-29.7618 36.898439-5.3734 5.07272-10.6487 9.21366-18.0273 12.90234-14.3331 6.73545-32.6056 8.32912-52.3906 7.64063-9.7616-.33948-19.8036-1.21826-31.0449-2.29883-11.2414-1.08057-19.9288-1.98736-28.2461-2.53516-8.5618-1.15544-26.3694.19672-36.4649 1.88086-4.2766.71342-7.0689 2.08051-7.3105 2.20117-.023.0147-.047.0283-.07.043-.0004-.003 0-.006 0-.01-.0005.00026-.02.01-.02.01l.02-.0176c-.9663-9.43689-2.8247-18.55097-6.1836-26.98437-11.4672-28.784279-39.3109-48.548727-75.4922-51.023438z" fill="#00b7e5" transform="scale(.26458334)"/><path d="m360.80513 30.567049c-1.50923 4.423649.49959 9.905524 6.2365 12.851607 4.45128-1.155593 2.16928-2.603936 2.03121-3.959066-4.28149-2.198847-4.88014-5.039916-4.05527-7.456647.82438-2.416969 3.41614-4.521041 7.41878-4.196953 5.32376.431721 8.89635 3.112294 10.73087 7.716917 1.78188 4.474369 1.72878 10.966847-1.22778 18.752344-1.97771 1.586085-4.13314 3.301691-5.91621 4.733211 1.68997-.212648 3.17357-.318784 4.71773-.290512 2.79749.05286 5.48759.481012 8.09625 1.05656 8.95588 1.976438 16.98974 5.560219 27.64488 3.609261 5.39735-1.266825 9.96316-3.869531 13.86364-7.411641 5.27685-4.792742 9.27307-11.355229 12.0396-18.528983-1.70497 1.861185-3.68474 3.28041-5.8412 4.293394-4.8849 2.295525-10.49465 2.664143-16.05106 2.470785-2.75272-.09573-5.50545-.33909-8.26093-.605197-2.75548-.266108-5.26389-.530189-7.57418-.682351-4.72821-.311467-8.56226-.0031-10.496 1.15336-1.93874 1.754625-3.97876 3.500557-6.09807 5.253634 1.25968-5.884069.95631-11.14187-.7589-15.44836-2.39606-6.014558-7.75101-9.959336-15.56809-10.510834-5.85256.363855-9.61065 3.32875-10.93177 7.199471z" fill="#e5f9ff"/></g><g><path d="m1681.5605 127.55664 7.4585 10.52118c11.8727 20.1545 32.4416 26.81974 52.7681 19.38898v-.002c19.7131-7.20965 32.0709-28.02434 29.127-50.1582-1.6527-12.424047-7.3685-23.986583-15.4434-32.845702-7.8845-8.333894-17.0795-14.004297-27.6973-17.017579-26.3415-1.372062-49.2857-10.100531-74.0976-15.576171-9.8595-2.175301-20.0264-3.794355-30.5996-3.994141-5.8363-.106845-11.4447.294113-17.8321 1.097656 0 0-10.4444.974836-15.5234 2.208985-3.652.887388-7.0649 2.306083-10.6465 3.710937-4.8876-10.501228-12.4672-19.17609-21.2539-25.332031-12.4199-8.70176-27.1749-13.2888894-42.1621-13.3613286l-.068.0000402c-.9987-.00397-1.981.013342-2.9453.048828-16.0042.5883053-32.4552 6.7017244-44.7187 19.4121094-21.9765 22.768845-24.7486 56.081835-11.0801 70.783203 13.6686 14.701364 25.4147 19.444454 37.7813 20.101564-5.0577 3.87317-8.8375 8.73848-11.5721 12.09028-2.0804 5.10971-14.1191 15.963-13.6781 24.65009.4728 9.31388.2778 19.47637-2.6795 33.1483l23.0488-19.85547c7.3086-4.37087 21.7995-5.53657 39.6699-4.35937 8.7318.5751 18.2126 1.57236 28.627 2.57812s20.8186 1.9253 31.2226 2.28711c21.0006.7308 42.2015-.66189 60.6641-9.33789 8.1504-3.8286 15.6341-9.19216 22.0781-16.22656zm-155.4628-65.373046c.4173.228245 1.0571.372093 1.4043.615234 2.8781 2.016284 3.7748 3.122085 4.2382 5.738281zm182.705 28.291015c.11.01739-.019-.01005.086.0059.066.0094.1237.02571.1894.03516z" fill="#00b7e5" transform="scale(.26458334)"/><path d="m391.81589 10.095509c-4.46723 4.627722-4.54885 10.374273-1.53324 13.617774 3.01609 3.243262 8.70109 3.539014 13.17903-.446484 1.36005-4.70438-1.2441-3.330329-2.95434-3.326929-3.14325 2.797969-5.65102 2.158405-6.96547.744657-1.31445-1.41351-1.86449-4.042584 1.4733-7.501351 2.73177-2.830115 8.38431-2.909683 11.86905-.468188 1.74236 1.220629 2.91801 2.907506 3.17757 5.208984.23908 2.122408-.3315 4.912761-2.5001 8.386052-4.35989 3.667532-4.91252 4.510869-7.37651 6.757854-2.26894 2.069118-6.82101 6.19176-6.82101 6.19176s.77554-.39624 1.95857-.593593c2.67111-.445595 7.38262-.803543 9.64791-.497831 2.20062.144939 4.49914.384606 7.47342.670506s5.63117.518651 8.21393.608472c5.2348.182165 10.06938-.239496 13.86168-2.021584 1.95225-.975963 3.34801-2.071586 4.76972-3.413744 3.04017-2.870047 4.73474-6.794439 7.87448-9.762712 3.20516-.842486 5.891-.75474 7.84291-.07441 2.58937.90297 4.04098 2.628214 4.41317 5.424993.25908 1.948577-.67479 3.020869-1.73374 3.408061-1.05846.387191-2.33743.307792-3.62354-1.875338-3.62289-1.982019-4.08282-.27392-3.83286 2.262394 2.11886 3.596878 5.96029 4.899541 8.98138 3.795117 3.02109-1.1049 5.12363-4.394851 4.62143-8.170561-.56769-4.267676-3.38971-7.657368-7.35926-9.041826-1.12085-.390525-2.32682-.638373-5.96505-1.116766s-8.93246-2.333014-13.93357-3.436961c-2.73843-.604123-5.3858-1.000113-7.79491-.964658-2.40911.03546-4.55504.330345-6.81247 1.001381-2.5165.747713-4.49135 1.525371-7.40314 3.437516.003-.499108-.0276-.992759-.0817-1.473295-.40767-3.615928-2.42533-6.513894-5.04519-8.3493609-2.45567-1.7205281-5.46364-2.6588094-8.83973-2.6027759-3.3761.056033-6.47501 1.2320725-8.78172 3.6228468z" fill="#e5f9ff"/></g><g><path d="m1606.3633-106.09375-18.1875 2.81836c-7.7734 2.39608-15.0523 6.214275-21.168 11.728515v.002c-20.1175 18.143376-23.5757 50.853156-5.9629 77.259766 16.1245 28.734403 61.4876-3.003038 43.9375-29.314453-3.4881-5.229884-3.3749-7.496112-3.3496-7.796875.026-.300775-.2422-.02721.752-.923828v-.002-.002c.9775-.881714 3.2699-3.214209 10.1582 1.386719 12.3335 8.241551 15.0781 14.940465 13.3925 27.931641-1.5584 11.992925-25.2679 49.71954-46.8613 67.896484l-12.2168 26.535156c11.0052-7.227004 18.4693-10.166185 27.9805-12.992187 8.532-2.536199 16.6427-3.651134 25.748-3.785156 9.1053-.134004 19.111 1.363184 29.461 3.646484 18.9018 4.172398 38.9113 11.182135 52.6621 12.990234 13.7508 1.8081 18.3086 2.744703 22.5449 4.220703 9.5529 2.462684 21.5155-.379241 30.2168-1.044921 23.9754-5.615917 50.5223-18.502053 67.1914-33.640626 22.6494-20.572584 38.9734-47.7745562 50.1973-76.878906l2.4648-39.28125-30.3203 20.291016c-4.8334 5.276311-12.5365 9.565838-22.7695 14.375-10.233 4.809161-28.498 6.402666-43.2715 5.888672s-24.8156-1.393075-36.0586-2.47461c-11.243-1.081534-19.9277-1.989365-28.2441-2.537109-13.6381-.89839-25.474-1.530331-36.584 1.326172-3.3753-22.490982-16.2019-43.030247-36.1934-56.386719-10.3232-6.509102-23.5221-11.023862-35.5195-11.236332z" fill="#00b7e5" transform="scale(.26458334)"/><path d="m438.31493-.66662598c.49588-1.41689152.83568-2.83050192 1.01753-4.23074972.8332-6.4204183-1.92527-12.4724743-7.56491-16.2403523-2.05789-1.32787-4.87604-2.135856-7.34375-2.1759-2.17448-.02193-4.73215.917349-6.63062 2.629102-3.47094 3.130337-4.38364 8.896948-.80513 14.2621787 3.27621 1.2189671 3.36785-.7466254 3.70107-2.4706501-2.67059-4.0042496-1.81125-6.7773386.0853-8.4873376 1.89624-1.710446 5.18433-2.28755 8.5235-.05684 4.441 2.967554 6.25808 7.047683 5.62033 11.9630944-.62037 4.7760044-3.82614 10.4219256-10.19731 15.7850836 1.69-.212604 3.17387-.3186914 4.71805-.290422 2.7975.05286 5.48749.481235 8.09615 1.056783 8.95588 1.976439 16.98969 5.56004 27.64483 3.609082 5.39734-1.266824 9.96328-3.869324 13.86374-7.4114336 5.27685-4.7927421 9.27307-11.3553476 12.03958-18.5291024-1.70495 1.8611854-3.68504 3.2802943-5.8415 4.2932783-4.8849 2.2955251-10.49427 2.6640085-16.05068 2.4706504-2.75273-.09573-5.50577-.3390905-8.26125-.6051135-2.75548-.2660229-5.26362-.5299845-7.57391-.6821466-4.72821-.311467-8.56215-.00331-10.49597 1.1531598-1.46142 1.3199285-2.97854 2.6386195-4.5444 3.95763962z" fill="#e5f9ff"/></g></g></svg>