<svg height="500" viewBox="0 0 500 500" width="500" xmlns="http://www.w3.org/2000/svg" xmlns:xlink="http://www.w3.org/1999/xlink"><filter id="a" color-interpolation-filters="sRGB" height="1.021762" width="1.048585" x="-.024293" y="-.010881"><feGaussianBlur stdDeviation="1.9935727"/></filter><filter id="b" color-interpolation-filters="sRGB" height="1.022797" width="1.054117" x="-.027058" y="-.011398"><feGaussianBlur stdDeviation="1.9935727"/></filter><filter id="c" color-interpolation-filters="sRGB" height="1.020816" width="1.044082" x="-.022041" y="-.010408"><feGaussianBlur stdDeviation="1.9935727"/></filter><filter id="d" color-interpolation-filters="sRGB" height="1.019948" width="1.040339" x="-.020169" y="-.009974"><feGaussianBlur stdDeviation="1.9935727"/></filter><filter id="e" color-interpolation-filters="sRGB" height="1.019149" width="1.037171" x="-.018586" y="-.009574"><feGaussianBlur stdDeviation="1.9935727"/></filter><filter id="f" color-interpolation-filters="sRGB" height="1.018412" width="1.034458" x="-.017229" y="-.009206"><feGaussianBlur stdDeviation="1.9935727"/></filter><g transform="translate(0 -1000)"><path d="m0 1250a250 250 0 0 1 -250 250 250 250 0 0 1 -250-250 250 250 0 0 1 250-250 250 250 0 0 1 250 250z" fill="#9db3df" stroke-linecap="round" stroke-linejoin="round" stroke-width="9.39799" transform="scale(-1 1)"/><path d="m263.85417 1289.4759c11.1612 3.7204 14.8816-7.4408 18.46913-11.0283 7.04219-8.7696 15.28021-26.0428 14.48299-54.6102-10.49685-61.1209-92.21278-68.5617-125.69638-20.1965-11.1612 18.602-11.1612 33.4836-14.8816 52.0856 0 29.7632 14.8816 52.0856 40.9244 70.6876 11.1612 11.1612 26.0428 11.1612 37.204 14.8816 70.6876 11.1612 130.214-48.3652 119.0528-119.0528-7.4408-29.7632-22.3224-59.5264-48.3652-78.1284-44.6448-29.7632-96.7304-29.7632-137.6548-3.7204-18.602 11.1612-29.7632 22.3224-40.9244 40.9244-63.2468 100.4508 26.0428 219.3708 133.9344 208.2096 22.3224 0 40.9244-11.1612 63.2468-18.602 22.3224-14.8816 44.6448-37.204 59.5264-59.5264 40.92441-78.1284 7.4408-171.0056-66.9672-215.6504-26.0428-11.1612-52.0856-22.3224-81.8488-22.3224-37.204 0-70.6876 11.1612-100.4508 33.4836-33.4836 26.0428-52.0856 59.5264-66.9672 96.7304-7.4408 14.8816-3.7204 33.4836-7.4408 52.0856 0 119.0528 126.4936 215.6504 241.69313 174.726 29.7632-14.8816 63.2468-26.0428 89.2896-52.0856 22.3224-29.7632 44.6448-59.5264 52.0856-96.7304 3.7204-26.0428 7.4408-44.6448 3.7204-70.6876-18.602-152.5364-189.60753-234.25236-319.82153-156.2568-22.3224 14.8816-44.6448 29.7632-59.5264 52.0856-29.7632 37.204-44.6448 74.408-52.0856 119.0528-18.602 137.6548 96.7304 260.2951 230.53193 260.2951 29.7632 0 63.2468-11.1612 93.01-18.602 37.204-14.8816 70.6876-33.4836 96.7304-66.9672 18.602-26.0428 29.7632-52.0856 44.6448-81.8488 11.1612-33.4836 18.602-70.6876 14.8816-104.1712-7.4408-44.6448-18.602-85.5692-44.6448-119.0528 96.59753 111.7449 44.51193 297.7649-81.8488 364.7321-22.3224 14.8816-48.3652 18.602-70.6876 26.0428-89.2896 22.3224-178.44633-14.8816-234.25233-78.1284-14.8816-14.8816-18.602-33.4836-29.7632-52.0856-48.3652-70.6876-33.4836-152.5364 3.7204-226.8116 52.0856-89.2896 159.9772-130.21396 264.01553-100.4508 63.2468 18.602 115.3324 63.2468 141.3752 126.4936 7.4408 29.7632 14.8816 59.5264 14.8816 89.2896 0 37.204-11.1612 70.6876-29.7632 104.1712-14.8816 22.3224-26.0428 40.9244-48.3652 55.806-18.602 11.1612-33.4836 18.602-52.0856 29.7632-33.4836 11.1612-70.6876 18.602-111.612 14.8816-122.7732-18.602-200.76873-148.816-156.2568-267.7359 14.8816-29.7632 29.7632-59.5264 55.806-78.1284 55.806-40.9244 119.0528-52.0856 185.88713-29.7632 100.4508 40.9244 148.816 156.2568 89.2896 245.4135-11.1612 18.602-18.602 33.4836-33.4836 48.3652-55.806 40.9244-130.214 55.806-189.60753 18.602-14.8816-14.8816-33.4836-18.602-44.6448-37.204-44.6448-66.9672-44.6448-156.2568 18.602-211.9299 63.2468-55.806 174.72593-40.9244 215.65033 37.204 7.4408 22.3224 18.602 40.9244 14.8816 66.9672 0 22.3224-11.1612 40.9244-14.8816 59.5264-26.0428 55.806-96.7304 74.408-152.5364 55.806-18.602-11.1612-40.9244-18.602-52.0856-37.204-48.3652-70.6876-7.4408-178.4463 85.5692-174.7259 22.3224 0 44.6448 14.8816 63.2468 26.0428 29.7632 22.3224 33.4836 55.806 29.7632 89.2896-11.1612 48.3652-63.2468 70.6876-111.612 59.5264-22.3224-7.4408-37.204-29.7632-44.6448-52.0856-3.7204-26.0428 3.7204-48.3652 22.3224-66.9672 33.4836-33.4836 89.2896-7.4408 96.7304 37.204-3.7204 18.602-14.8816 37.204-29.7632 52.0856" fill="#c6d2ec" opacity=".9"/><path d="m262.92407 1285.7555c10.2311 3.4546 13.68576-6.7765 17.00754-10.0982 6.37783-7.8395 13.9515-23.6512 13.15428-49.9597-9.56675-56.2046-84.77198-62.9811-115.59815-18.602-10.2311 17.1404-10.2311 30.6933-13.68576 47.8337 0 27.3715 13.68576 47.8337 37.60262 64.9741 10.2311 10.2311 23.91686 10.2311 34.14796 13.6858 64.97413 10.2311 119.58428-44.3791 109.35318-109.3532-6.77644-27.3715-20.4622-54.743-44.37905-71.7506-41.05728-27.3715-88.89099-27.3715-126.49361-3.4546-17.14041 10.2311-27.37151 20.4622-37.60261 37.6026-58.06482 92.3456 23.91686 201.6988 123.03894 191.3349 20.4622 0 37.60262-10.2311 58.06482-17.1405 20.4622-13.6857 41.05727-34.1479 54.74303-54.743 37.60261-71.7506 6.77644-157.1869-61.51947-198.2442-23.91686-10.2311-47.83372-20.4622-75.20523-20.4622-34.14796 0-64.97413 10.2311-92.21278 30.8262-30.6933 23.9169-47.83371 54.743-61.51947 88.891-6.77644 13.6858-3.45466 30.6933-6.77644 47.8337 0 109.3532 116.2625 198.2442 222.16103 160.6416 27.37151-13.6858 58.06481-23.9169 81.98167-47.8337 20.4622-27.3716 41.05727-54.7431 47.83372-88.891 3.45465-23.9169 6.77644-41.0573 3.45465-64.9742-17.14041-140.0464-174.32731-215.25168-293.9116-143.5011-20.4622 13.6858-41.05727 27.3715-54.74303 47.8337-27.37151 34.148-41.05727 68.2959-47.83371 109.3532-17.14042 126.4936 88.89098 239.3014 211.92993 239.3014 27.37151 0 58.06481-10.2311 85.43633-17.1404 34.14795-13.6857 64.97413-30.8261 88.89098-61.5194 17.14042-23.9169 27.37152-47.8338 41.05728-75.2053 10.2311-30.6933 17.14041-64.9741 13.68575-95.6674-6.77644-41.0573-17.14041-78.6599-41.05727-109.3532 88.89099 102.5768 41.05727 273.4494-75.20523 334.9689-20.4622 13.6857-44.37906 17.1404-64.97413 23.9168-81.98167 20.4622-164.09621-13.6857-215.25171-71.7505-13.68576-13.6858-17.14042-30.6933-27.37152-47.8337-44.37906-64.9742-30.6933-140.1794 3.45466-208.4753 47.83371-81.9817 146.9558-119.5843 242.62323-92.2128 58.06481 17.1404 105.89853 58.0648 129.81539 116.2625 6.77644 27.3715 13.68575 54.743 13.68575 81.9817 0 34.1479-10.2311 64.9741-27.37151 95.6674-13.68576 20.4622-23.91686 37.6026-44.37906 51.2884-17.14041 10.2311-30.6933 17.1404-47.83371 27.3715-30.82617 10.2311-64.97413 17.1404-102.57675 13.6858-112.80784-17.1405-184.55841-136.7247-143.50114-246.0779 13.68576-27.3715 27.37151-54.7431 51.28837-71.7506 51.28837-37.6026 109.35319-47.8337 170.87266-27.3715 92.21277 37.6026 136.7247 143.5011 81.98167 225.6157-10.2311 17.1404-17.14041 30.6933-30.82617 44.379-51.28837 37.6026-119.58429 51.2884-174.32732 17.1404-13.68575-13.6857-30.82617-17.1404-41.05727-34.1479-41.05727-61.5195-41.05727-143.5012 17.14042-194.7895 58.19768-51.5541 160.77443-37.8684 198.37704 33.8822 6.77644 20.4622 17.14042 37.6026 13.68576 61.5195 0 20.4622-10.2311 37.6026-13.68576 54.743-23.91686 51.2884-88.89099 68.2959-140.17936 51.2884-17.14041-10.2311-37.60261-17.1405-47.83371-34.148-44.37906-64.9741-6.77644-164.0962 78.65988-160.6416 20.4622 0 41.05728 13.6858 58.06482 23.9169 27.37151 20.4622 30.6933 51.2884 27.37151 81.9817-10.2311 44.379-58.06481 64.9741-102.57674 54.743-20.4622-6.7764-34.14796-27.3715-41.05727-47.8337-3.45466-23.9169 3.45466-44.3791 20.4622-61.5195 30.6933-30.8262 81.98167-6.7764 88.89099 34.148-3.45466 17.1404-13.68576 34.1479-27.37152 47.8337" fill="#ecf0f9" opacity=".9"/><path d="m226.91591 1287.6157c5.31486 10.4968 15.8117 5.3148 20.86082 5.3148 10.62971-1.0629 28.56735-7.4408 48.23233-28.3016 35.87528-50.624-16.7418-113.7379-74.54088-103.2411-20.99368 5.3149-31.49052 15.8117-47.30222 26.3086-20.99369 20.9937-26.30855 47.3022-20.99369 78.9256 0 15.8117 10.49684 26.3085 15.8117 36.8054 42.12024 57.7991 126.22786 57.7991 168.3481 0 15.8117-26.3086 26.30854-57.7991 20.99369-89.4225-10.49685-52.6171-47.30223-89.4225-94.60446-99.9193-20.99369-5.3149-36.80539-5.3149-57.79907 0-115.73102 26.3085-136.7247 173.5301-52.61709 241.9589 15.8117 15.8117 36.80539 20.9937 57.79907 31.4905 26.30855 5.3149 57.79907 5.3149 84.10762 0 84.10761-26.3085 126.22786-115.731 105.23417-199.8386-10.49684-26.3086-20.99369-52.6171-42.12024-73.6108-26.30855-26.3085-57.79907-42.1202-94.60446-47.3022-42.12024-5.3149-78.92563 5.3148-115.73102 20.9937-15.8117 5.3148-26.30854 20.9936-42.12024 31.4905-84.10761 84.1076-63.11393 241.9589 47.30223 294.5759 31.49053 10.4969 63.11393 26.3086 99.91931 26.3086 36.80539-5.3149 73.61078-10.4969 105.23418-31.6234 20.99368-15.8117 36.80538-26.3086 52.61708-47.3022 94.60446-120.913 31.49053-299.758-115.73101-336.5634-26.30855-5.3148-52.61709-10.4968-78.92563-5.3148-47.30223 5.3148-84.10762 20.9937-120.913 47.3022-110.41616 84.1076-115.73102 252.4557-20.99369 347.0602 20.99369 20.9937 52.61709 36.8054 78.92563 52.6171 36.80539 15.8117 73.61077 26.3085 115.73102 20.9936 31.49053-5.3148 57.79907-15.8117 89.42247-26.3085 31.49053-15.8117 63.11393-36.8054 84.10761-63.1139 26.30855-36.8054 47.30223-73.6108 52.61709-115.731-10.76259 147.4872-179.11069 242.2246-315.83539 200.1043-26.30854-5.3148-47.30223-20.9937-68.42879-31.4905-78.92562-47.3022-115.73101-136.7247-110.41615-220.8323 0-20.9937 10.49684-36.8054 15.8117-57.7991 15.8117-84.1076 84.10761-131.5427 163.03324-157.7184 99.91932-26.30852 205.15349 20.9937 257.77058 115.731 31.49052 57.7991 36.80538 126.2279 10.49684 189.3418-15.8117 26.3086-31.49053 52.6171-52.61709 73.6108-26.30854 26.3085-57.79907 42.1202-94.60446 52.6171-26.30854 5.3148-47.30223 10.4968-73.61077 5.3148-20.99368-5.3148-36.80538-10.4968-57.79907-15.8117-31.49053-15.8117-63.11393-36.8053-89.42247-68.4287-73.61078-99.9194-36.80539-247.1409 78.92563-299.758 31.49053-10.4968 63.11393-20.9937 94.60445-15.8117 68.42879 10.4969 120.91301 47.3022 152.53641 110.4162 42.12024 99.9193-5.31486 215.6503-110.41616 236.644-20.99369 5.3148-36.80539 10.4968-57.79907 10.4968-68.42879-10.4968-131.54272-52.6171-147.22155-120.913 0-20.9937-10.49684-36.8054-5.31486-57.799 15.8117-78.9257 78.92563-142.0396 163.03325-136.7247 84.10761 5.3148 152.5364 94.6044 126.22786 178.8449-10.49685 20.9937-15.8117 42.1202-36.80539 57.7991-15.8117 15.8117-36.80538 20.9937-52.61708 31.4905-57.79908 20.9937-120.91301-15.8117-147.22155-68.4288-5.31486-20.9937-15.8117-42.1202-10.49684-63.1139 15.8117-84.1076 120.913-131.5427 184.02693-63.1139 15.67883 15.6788 20.86081 41.9873 26.17567 62.981 5.31486 36.8054-15.8117 63.1139-42.12024 84.1076-42.12025 26.3086-94.60446 5.3149-120.913-36.8054-10.49685-20.9936-5.31486-47.3022 5.31485-68.4287 15.8117-20.9937 36.80539-31.4906 63.11393-31.4906 23.98451 0 41.23931 14.86 48.993 34.3086 7.53814 18.9078 6.09609 42.1526-6.87275 60.2959-15.81171 10.4968-36.80539 15.8117-57.79908 15.8117" fill="#fff" opacity=".9"/></g><g stroke-width=".9"><path d="m247.53711 30.289062c-14.42681-.09767-28.62797 4.45583-40.9707 11.771485-18.36424 10.971258-32.47424 28.304114-40.99414 47.802734-11.15849 25.456289-13.16271 54.697699-6.07227 81.535159.15681.63375.34473 1.25923.51758 1.88867-12.38555 11.56547-21.57539 26.21635-28.06055 41.79297-8.40439 19.84382-12.91542 41.08608-15.81836 62.36719-4.87483 36.45934-4.43087 73.32122-4.87695 110.02343-.0582 5.33307-.1168 10.66693-.17383 16h42.69531c3.23621 43.52406 6.47341 87.04816 9.70899 130.57227 24.65769 8.58754 50.41974 14.36058 76.54297 15.64844 23.00234 1.25299 46.09765-1.35126 68.51172-6.50586 10.38336-2.33938 20.77314-4.65408 31.16992-6.9336 2.93023-44.26028 5.85787-88.52088 8.78711-132.78125h40.28711c-.74988-33.77381.2331-67.58393-1.51368-101.33398-.89968-16.6688-2.49648-33.33103-5.59375-49.7461-3.37852-17.73252-8.63211-35.26223-17.1875-51.22265-6.20929-11.51078-14.24149-22.1359-24.20312-30.66211 7.62383-29.71995 4.03586-62.33236-10.61524-89.367188-9.26808-17.097189-23.31241-31.763451-40.55664-40.898438-12.74144-6.722495-27.1768-10.195303-41.58398-9.951172zm-2.14258 49.955079 4.35938.08398c23.16957 0 44.45898 25.205599 44.45898 59.259769 0 17.17648-5.79435 32.56615-14.33984 43.27344l-10.5625 13.23437 16.73242 2.5918c13.03469 2.0196 21.94015 8.11724 29.30664 17.99023 7.36379 9.87389 12.71013 23.76762 16.23633 39.90821 6.39629 29.27157 6.80187 65.23269 6.82617 96.88476h-36.73438l-9.37304 142.07422c-25.91188 5.8365-54.63645 6.04976-81.54102-.0234l-10.59375-142.05082h-38.58203c.2466-31.26867 1.79873-66.74099 8.85742-95.79297 3.8988-16.03528 9.46179-29.95021 16.73828-39.9375 7.2765-9.98639 15.78845-16.12023 27.39844-18.30273l16.39649-3.08203-10.65625-12.83594c-8.9316-10.76309-15.02539-26.33141-15.02539-43.93359-.00001-31.94187 19.06827-56.610302 40.09765-59.341799z" fill="#7896d3" filter="url(#f)" opacity=".25"/><path d="m247.54688 40.289062c-11.42917-.127721-22.6885 3.262301-32.73243 8.574219-14.52067 7.777153-26.33614 20.073917-34.60351 34.234375-13.64132 23.305744-17.86603 51.657644-12.80078 78.085934.99052 5.21073 2.38293 10.36364 4.07422 15.375-11.98857 9.66466-21.10056 22.51976-27.62696 36.38477-7.71287 16.22962-12.39835 33.72754-15.57226 51.36328-5.32117 30.09621-6.36637 60.73539-6.71289 91.23438-.14249 12.64305-.20692 25.2869-.375 37.92968h41.86328c3.30325 44.39581 6.60753 88.79166 9.91015 133.1875 24.13621 7.95669 49.38593 12.8683 74.83594 13.29688 20.20415.43921 40.37834-2.25988 60.02539-6.85547 7.46331-1.68534 14.92611-3.36868 22.40235-4.99609 2.96915-44.8775 5.93601-89.75526 8.90429-134.63282h39.49414c-.53425-33.6449.45495-67.34445-1.95898-100.93554-1.64467-21.36539-4.46387-42.81716-11.125-63.25977-5.15175-15.82967-12.71105-31.14392-23.94922-43.5625-3.85301-4.26325-8.11674-8.15972-12.74609-11.56641 9.01359-28.37224 6.60457-60.3251-7.17579-86.779292-8.51985-16.32903-21.75642-30.421643-38.25-38.820313-11.04961-5.615532-23.4844-8.504586-35.88085-8.257813zm-2.15235 39.955079 4.35938.08398c23.16957 0 44.45898 25.205599 44.45898 59.259769 0 17.17648-5.79435 32.56615-14.33984 43.27344l-10.5625 13.23437 16.73242 2.5918c13.03469 2.0196 21.94015 8.11724 29.30664 17.99023 7.36379 9.87389 12.71013 23.76762 16.23633 39.90821 6.39629 29.27157 6.80187 65.23269 6.82617 96.88476h-36.73438l-9.37304 142.07422c-25.91188 5.8365-54.63645 6.04976-81.54102-.0234l-10.59375-142.05082h-38.58203c.2466-31.26867 1.79873-66.74099 8.85742-95.79297 3.8988-16.03528 9.46179-29.95021 16.73828-39.9375 7.2765-9.98639 15.78845-16.12023 27.39844-18.30273l16.39649-3.08203-10.65625-12.83594c-8.9316-10.76309-15.02539-26.33141-15.02539-43.93359-.00001-31.94187 19.06827-56.610302 40.09765-59.341799z" fill="#9db3df" filter="url(#e)" opacity=".25"/><path d="m247.90039 50.296875c-2.37988-.03549-4.76306-.0049-7.11914.371094-14.4057 1.947102-27.76277 9.28717-38.01758 19.460937-13.54698 13.360316-22.24354 31.212744-25.65234 49.845704-3.73103 20.09895-1.60336 41.32069 6.45312 60.13867-11.20024 7.31156-20.10542 17.75677-26.63476 29.35547-7.58778 13.31111-12.4386 27.99229-16 42.83984-4.96825 21.29954-7.1034 43.14191-8.3086 64.94336-1.1375 22.05353-1.06167 44.14352-1.31445 66.21875h41.03125c3.36696 45.22264 6.73573 90.44527 10.10156 135.66797 24.03617 7.41703 49.21814 11.41259 74.40039 10.79688 14.9421-.30971 29.80677-2.38577 44.38868-5.60547 6.5173-1.41636 13.00121-2.9818 19.52343-4.38086 3.00834-45.49272 6.01413-90.98573 9.02149-136.47852h38.7539c-.32723-31.64121.45281-63.34755-2.1875-94.91406-1.70754-19.74085-4.60168-39.5422-11.00781-58.35937-4.50859-13.14366-10.80498-25.86413-19.94726-36.42383-5.30199-6.15472-11.55944-11.51429-18.58985-15.60156 11.08986-27.61573 9.72189-60.06627-4.11914-86.464849-7.6744-14.516105-19.46163-27.122607-34.25-34.492187-9.43105-4.685551-19.98709-7.143555-30.52539-6.917969zm-2.50586 29.947266 4.35938.08398c23.16957 0 44.45898 25.205599 44.45898 59.259769 0 17.17648-5.79435 32.56615-14.33984 43.27344l-10.5625 13.23437 16.73242 2.5918c13.03469 2.0196 21.94015 8.11724 29.30664 17.99023 7.36379 9.87389 12.71013 23.76762 16.23633 39.90821 6.39629 29.27157 6.80187 65.23269 6.82617 96.88476h-36.73438l-9.37304 142.07422c-25.91188 5.8365-54.63645 6.04976-81.54102-.0234l-10.59375-142.05082h-38.58203c.2466-31.26867 1.79873-66.74099 8.85742-95.79297 3.8988-16.03528 9.46179-29.95021 16.73828-39.9375 7.2765-9.98639 15.78845-16.12023 27.39844-18.30273l16.39649-3.08203-10.65625-12.83594c-8.9316-10.76309-15.02539-26.33141-15.02539-43.93359-.00001-31.94187 19.06827-56.610302 40.09765-59.341799z" fill="#cbd6ee" filter="url(#d)" opacity=".25"/><path d="m244.58398 60.291016c-11.63764.960484-22.63417 6.265571-31.41796 13.832031-12.8911 11.122746-21.43675 26.742583-25.29297 43.220703-4.95739 20.99838-2.7245 43.74917 6.85156 63.14063.63929 1.26223 1.27908 2.52408 1.96875 3.75976-10.55893 4.83347-19.45418 12.86413-26.08594 22.33203-8.18384 11.49132-13.46634 24.76434-17.39844 38.23633-5.51082 19.11603-8.04876 38.94006-9.69336 58.7207-1.84625 23.26361-1.90835 46.61548-2.11914 69.9375h40.21875c3.42727 45.99735 6.85308 91.99493 10.28125 137.99219 23.88801 6.78932 48.92426 9.77701 73.72657 8.06055 13.50781-.85265 26.85898-3.32109 40.00976-6.44922 1.87914-.42002 3.75743-.8404 5.63672-1.25977 3.04806-46.11441 6.09215-92.22922 9.13867-138.34375h38.06446c-.20523-30.53748.37628-61.16502-2.79102-91.58398-2.05223-19.35864-5.46575-38.80263-12.98437-56.85938-4.92193-11.77676-11.8524-22.94326-21.5-31.42968-5.17992-4.55664-11.16266-8.18991-17.57032-10.74024 12.0508-22.73664 13.76016-50.49404 5.33399-74.73242-5.00704-14.339345-13.87416-27.564496-26.20117-36.595703-8.86554-6.499922-19.56525-10.65192-30.59375-11.136719-2.52474-.134468-5.05464-.105933-7.58204-.101562zm.81055 19.953125 4.35938.08398c23.16957 0 44.45898 25.205599 44.45898 59.259769 0 17.17648-5.79435 32.56615-14.33984 43.27344l-10.5625 13.23437 16.73242 2.5918c13.03469 2.0196 21.94015 8.11724 29.30664 17.99023 7.36379 9.87389 12.71013 23.76762 16.23633 39.90821 6.39629 29.27157 6.80187 65.23269 6.82617 96.88476h-36.73438l-9.37304 142.07422c-25.91188 5.8365-54.63645 6.04976-81.54102-.0234l-10.59375-142.05082h-38.58203c.2466-31.26867 1.79873-66.74099 8.85742-95.79297 3.8988-16.03528 9.46179-29.95021 16.73828-39.9375 7.2765-9.98639 15.78845-16.12023 27.39844-18.30273l16.39649-3.08203-10.65625-12.83594c-8.9316-10.76309-15.02539-26.33141-15.02539-43.93359-.00001-31.94187 19.06827-56.610302 40.09765-59.341799z" fill="#eef2fa" filter="url(#c)" opacity=".25"/><path d="m245.39425 80.244325c-21.0294 2.7315-40.0977 27.399595-40.0977 59.341495 0 17.6022 6.0939 33.1704 15.0255 43.9335l10.656 12.8367-16.3953 3.0816c-11.61 2.1825-20.1222 8.316-27.3987 18.3024-7.2765 9.9873-12.8394 23.9022-16.7382 39.9375-7.0587 29.052-8.6112 64.5237-8.8578 95.7924h38.5812l10.5939 142.0524c26.9046 6.0732 55.6299 5.859 81.5418.0225l9.3726-142.074h36.7344c-.0243-31.6521-.4293-67.6134-6.8256-96.885-3.5262-16.1406-8.8722-30.0348-16.236-39.9087-7.3665-9.873-16.272-15.9705-29.3067-17.9901l-16.7328-2.592 10.5624-13.2336c8.5455-10.7073 14.3388-26.0973 14.3388-43.2738 0-34.0542-21.2895-59.259595-44.4591-59.259595z" fill="#fff" filter="url(#b)" opacity=".25"/><path d="m244.81641 70.28125c-10.18861 1.056199-19.63359 6.168414-27.02735 13.117188-10.78336 10.141639-17.66857 23.959072-20.66015 38.359372-3.88768 18.59751-1.59745 38.58556 7.17187 55.51172 2.22121 4.43676 5.06137 8.53446 8.14844 12.4082-4.91403.9845-9.74548 2.51748-14.1543 4.92969-8.0612 4.23735-14.70957 10.79156-19.8789 18.22656-7.05576 10.0738-11.68308 21.62753-15.20508 33.34961-5.3925 18.17672-7.90584 37.05619-9.55469 55.89844-1.71926 20.41472-2.00927 40.91244-2.17187 61.38867h39.4082c3.48161 46.70961 6.96446 93.41926 10.44531 140.12891 21.91916 5.62285 44.78092 7.62668 67.33399 5.66601 9.85737-.83152 19.63149-2.48863 29.26562-4.71484 1.28329-.28731 2.56619-.57459 3.84961-.86133 3.08726-46.7394 6.17024-93.47923 9.25586-140.21875h37.39648c-.10763-30.19552.15089-60.52431-3.87695-90.51367-2.16679-15.88578-5.60321-31.75621-12.11133-46.47461-4.54525-10.13147-10.81781-19.72826-19.50976-26.77734-7.17595-5.79992-15.98062-9.46536-25.08203-10.8457 3.40422-4.38512 6.38094-9.10913 8.67968-14.16797 8.29294-17.72323 9.78333-38.36667 4.84375-57.24219-3.44789-13.06653-10.25252-25.447409-20.38476-34.51172-7.56524-6.738052-17.11964-11.508565-27.29102-12.402344-2.95539-.27075-5.92533-.278495-8.89062-.253906zm.57812 9.962891 4.35938.08398c23.16957 0 44.45898 25.205599 44.45898 59.259769 0 17.17648-5.79435 32.56615-14.33984 43.27344l-10.5625 13.23437 16.73242 2.5918c13.03469 2.0196 21.94015 8.11724 29.30664 17.99023 7.36379 9.87389 12.71013 23.76762 16.23633 39.90821 6.39629 29.27157 6.80187 65.23269 6.82617 96.88476h-36.73438l-9.37304 142.07422c-25.91188 5.8365-54.63645 6.04976-81.54102-.0234l-10.59375-142.05082h-38.58203c.2466-31.26867 1.79873-66.74099 8.85742-95.79297 3.8988-16.03528 9.46179-29.95021 16.73828-39.9375 7.2765-9.98639 15.78845-16.12023 27.39844-18.30273l16.39649-3.08203-10.65625-12.83594c-8.9316-10.76309-15.02539-26.33141-15.02539-43.93359-.00001-31.94187 19.06827-56.610302 40.09765-59.341799z" fill="#fff" filter="url(#a)" opacity=".25"/></g></svg>