<svg height="500" viewBox="0 0 500 500" width="500" xmlns="http://www.w3.org/2000/svg"><g transform="translate(.000015)"><circle cx="-249.99998" cy="250" fill="#e51a1a" r="250" transform="scale(-1 1)"/><path d="m181.33938 83.856939c97.52275-31.84694 203.27597 26.159281 217.12696 131.568651 10.04116 85.89723-45.79566 162.6049-131.11288 174.6444-76.26503 6.65-147.16573-45.4981-149.44603-126.3231.16679-50.89801 30.03241-87.97493 76.60677-108.40662 44.00125-16.48183 90.46555-3.00917 112.28155 39.63622 17.95322 40.0953 3.57775 87.31302-40.4313 103.80676-21.98685 8.23292-51.6578-5.55285-56.72562-31.5612 24.48155 21.7253 69.7211 11.74379 80.1808-21.06198 5.24648-24.88185-11.48198-41.52298-24.36368-55.64156-23.21161-15.22125-63.26956-13.16738-85.32502 12.05139-41.51846 46.43224-18.48961 112.52397 35.72777 131.08081 60.66482 17.11352 118.96473-29.63961 126.96137-92.39988 2.7637-54.83226-40.99398-106.19486-96.51046-114.27807-76.21988-10.3001-138.45939 50.84936-147.743191 124.09106-9.31956 73.21828 47.315731 138.67973 111.863041 158.33924 49.05305 9.49897 98.18701 2.07129 139.64056-27.40671 82.90715-58.95602 100.11901-177.97214 43.55644-260.39974-52.71171-79.885311-158.575-103.987181-249.15842-67.061741-86.705021 39.45169-149.0660905 134.549061-117.102931 229.167621 15.77888-74.65377 50.93986-153.5943 123.407351-187.514491 9.28724-4.60517 19.44718-8.7232 30.56692-12.33106zm-160.722321 286.075591c-52.57825-113.8254-.38403-260.89182 113.777041-317.643861 10.84604-5.32012 22.21219-9.7712 34.03518-13.36069 115.76394-28.75816 246.03978 34.00351 263.68455 158.897471 10.04526 85.91695-27.72044 168.80365-107.97396 206.83173-102.24035 46.26108-224.798841-11.43986-234.690511-131.24969-7.33455-123.78718 127.307171-194.136761 222.718561-137.24102-42.54074-27.89653-94.21826-33.44528-140.80825-12.98978-71.17376 32.62266-105.080851 118.0397-80.762351 190.63139 30.697281 88.13423 123.572931 132.04164 212.817841 105.59803 82.80488-25.06359 132.16266-100.33164 140.19255-180.04986 12.12434-145.020371-132.23823-245.3588802-265.59709-221.973611 7.92036-4.10499 20.5989-8.4277792 35.61563-11.7452592 60.06317-13.23825 124.63426-3.45807 179.45368 32.4903392 109.65077 71.904621 141.09454 217.803071 65.16008 333.599141-143.00482 218.07486-377.311781 117.06797-437.622951-1.79433" fill="#b21a1a"/></g><path d="m178.62917-.00000688-31.51293 31.90963388 80.36857 48.111125 34.4021 97.644488 17.24248-2.43206 2.79088-47.37496 38.21641-4.88724-85.63229-76.48637-1.33376-3.781055h-6.28717-12.19656l-6.91743-17.903159zm-147.376424 4.40544838 18.743928 72.4239615 5.994204.74195 85.152362 10.518346-37.19682-65.684741zm234.735664 17.4965315-30.63211 11.239098 63.23787 64.403189 14.88242 8.97501-.24578-18.350557-18.47409-48.625672-20.14322-16.220763zm-138.54896 3.983405 7.08896 22.077351 18.06549 56.340021 50.02557 22.04073.0231 6.69298-45.29188-15.93555h-7.0138l-2.44779 4.91614-12.61095 25.2398 5.29648-58.008937-61.672829-2.753887h-23.959466l17.934414 15.580954 59.250091 51.49133-3.2014 6.40582 58.22086 42.21792 15.52902-59.47741.15419 45.36881 53.25204-11.99648-34.25368-95.025488zm198.90344 21.770935-2.43429 6.745-9.35174 25.981742 57.50384 58.562025 14.69455-9.22138-27.91457-77.704336zm73.9908 45.203069-18.68448-14.779924 2.64282 21.20502 8.41497 56.835302-23.5528 45.98933 14.0238 10.48944 29.49685-27.97826 19.00599-47.38074zm-340.445626 6.409674-4.450352.830604-55.43770469 10.42391 51.22055869 65.16056 22.968781 12.58617 27.278443.12334-24.98636-8.99177 12.546941 19.1825 21.020179 31.84797-39.787238-25.24943-3.218753 11.5089-8.756154 31.30644 49.842465 26.45388.0135-.28329 8.16638 14.55957 30.27554 53.9947 41.13064 9.13465 14.87371-51.25043-94.24197-30.67049 1.89464-39.21351 30.81328 46.68505 53.14217 17.31537-16.2518-88.8702-20.78312-20.78038-3.31705 2.86373zm47.304086 89.151564 45.85277.2062-14.31285 12.36069zm-21.216774 126.69616 6.811424 19.77634 16.6315 48.28457 97.2063-11.83651zm81.640654 67.02604-50.68088 49.85712 29.85343-6.39427 85.12153-18.23848 25.5578-14.00437-26.34417-3.49216z" fill="#861313" opacity=".5"/><g fill="#ff8066"><path d="m144.92536 416.91989 85.12331-18.23387-59.25654-7.21299z" stroke-linecap="square" stroke-width="18"/><path d="m101.18429 332.00407 14.29377 41.48861 59.25698-7.21701z" stroke-linecap="square" stroke-width="18"/><path d="m124.05399 284.38448 28.33709 50.53321 29.11337 6.46484 10.16039-34.99273z" stroke-linecap="square" stroke-width="18"/><path d="m75.594185 219.08604-6.828083 24.42076 31.168557 16.53952 1.193641-24.75377z" stroke-linecap="square" stroke-width="18"/><path d="m96.437126 193.69379 50.319594 76.23183 36.02489 11.73795-13.07346-71.48621-12.98824-12.98741-16.26191 14.04327-44.019979-17.53854z" stroke-linecap="square" stroke-width="18"/><path d="m155.83088 125.98169-15.5958 31.21949 41.60334 30.1663 12.48908-47.84337-38.49573-13.54242z" stroke-linecap="square" stroke-width="18"/><path d="m57.081688 108.83033-41.050738 7.71729 41.050738 52.22456 19.399738 10.62969 55.648454.24867z" stroke-linecap="square" stroke-width="18"/><path d="m401.90458 157.64609-24.84142 48.5085 28.0885-26.64082 16.48662-41.09792-28.55964-40.433665z" stroke-linecap="square" stroke-width="18"/><path d="m78.702663 95.373158 48.543317 42.181302 3.63606-39.850231-52.178482-2.331071z" stroke-linecap="square" stroke-width="18"/><path d="m332.26783 57.409996-7.46573 20.730114 53.59505 54.58527-26.09011-72.624663z" stroke-linecap="square" stroke-width="18"/><path d="m226.8851 51.582758 43.37962 123.130342 3.21951-54.72558 26.22689-3.35675-72.82781-65.048012z" stroke-linecap="square" stroke-width="18"/><path d="m142.9821 45.254675 16.84808 52.533042 51.65004 22.755703.19545 56.44303 32.63928-7.35287-29.75284-82.531498z" stroke-linecap="square" stroke-width="18"/><path d="m269.0444 30.240793-17.70783 6.495036 53.5942 54.58527-17.62436-46.371018-18.2629-14.710175z" stroke-linecap="square" stroke-width="18"/><path d="m212.00777 60.406187-11.71105-30.303937-21.14356-17.992473-17.77005 17.992473z" stroke-linecap="square" stroke-width="18"/><path d="m57.082583 68.758088 67.637517 8.353672-26.617699-47.00951-54.51549-13.494354z" stroke-linecap="square" stroke-width="18"/></g><path d="m336.38172 99.287973-14.64344 15.051867-3.79297 3.81055-48.9414 48.89648 30.63086 30.63086 8.40039 35.23633-5.21289 3.00781-26.32227-24.88281-11.21484-41.83008-66.83008 17.89649-25.36524 6.84375 6.76368 25.375 17.9414 66.82812 41.76758-11.2207 34.62695 10.31641v6.09961l-34.61914 10.3125-41.82031-11.21289-17.89844 66.8496-6.77148 25.34375 25.37304 6.84766 66.82618 17.89258 11.21679-41.82422 26.27149-24.83398 5.25 3.02734-8.38281 35.16602-30.63086 30.63085 48.9414 48.89649 18.59375 18.68164 18.59961-18.68164 48.9375-48.89453-30.62695-30.63281-8.41406-35.29688 5.17968-2.99414 26.3711 24.92969 11.21289 41.82617 66.86914-17.89649 25.33203-6.86523-6.76758-25.32422-17.89648-66.84765-41.81641 11.21093-34.90234-10.39648v-5.9336l34.89843-10.39648 41.82032 11.21289 17.90039-66.82812 6.75-25.35547-25.31836-6.85547-66.86328-17.89453-11.2168 41.82226-26.42187 24.97852-5.14454-2.97266 8.43164-35.37109 30.62891-30.62695-48.94336-48.89844zm.0206 177.958117 9.61719 5.54883v11.07031l-9.61523 5.5586-9.61719-5.5586v-11.07226z" fill="#861313"/><path d="m336.54339 124.97907-.002.004-5.85544 5.88356-36.21962 36.18597 11.73976 11.74015 22.03785-22.03495v25.06057l-11.21359 11.21019 11.21359 47.0377v1.96955l-27.61573 15.93168-1.77705-1.02909-35.08055-33.16227-15.29195 4.07975-21.70441-12.51678 30.08472-8.04775-4.30002-16.03962-49.43193 13.23754-8.02182 2.16419 2.13747 8.01884 13.26821 49.42543 16.0128-4.30137-8.07578-30.08078 21.70633 12.54185 4.10536 15.29187 46.29605 13.79257 1.63443.9443v32.02333l-1.63636.9443-46.29412 13.79064-4.10922 15.29188-21.70633 12.54377 8.07772-30.0827-16.04172-4.30139-13.23929 49.45242-2.13555 7.99186 8.01989 2.16418 49.43001 13.23563 4.30194-16.03961-30.08473-8.04775 21.70441-12.54185 15.29389 4.10674 35.13644-33.21623 1.63828-.94431 27.69669 15.98372v1.8886l-11.21167 47.03771 11.21359 11.2102v25.05863l-22.03785-22.03495-11.73976 11.74016 36.21962 36.18596 5.85544 5.88357 5.85735-5.88357 36.21775-36.18596-11.73781-11.74016-22.03793 22.03495v-25.06056l11.21362-11.21019-11.21362-47.03771v-2.02548l27.55794-15.92783 1.77708 1.02523 35.13834 33.21817 15.29394-4.10674 21.7025 12.54377-30.0848 8.04775 4.3001 16.03961 49.46075-13.23755 7.993-2.1661-2.13559-7.99186-13.23927-49.4505-16.04176 4.30139 8.07579 30.08078-21.70634-12.54377-4.10727-15.29189-46.29412-13.79063-1.91386-1.11003v-31.69381l1.91583-1.11003 46.29412-13.79063 4.10727-15.29189 21.70635-12.54377-8.07777 30.0827 16.04363 4.30139 13.23937-49.42351 2.13549-8.02077-7.9929-2.16418-49.45888-13.23755-4.30197 16.03961 30.0847 8.04775-21.70437 12.51487-15.29394-4.07976-35.07854 33.16228-1.91592 1.11003-27.47504-15.87387v-2.1083l11.21174-47.03963-11.21366-11.2102v-25.06057l22.03599 22.03496 11.74166-11.74015-36.21967-36.18597zm-.13876 131.48511v.002l27.61573 15.93169v31.85568l-27.61573 15.95867-27.61767-15.95867v-31.8576z" fill="#ff8066" stroke-width="36"/></svg>