<svg height="500" viewBox="0 0 500 500" width="500" xmlns="http://www.w3.org/2000/svg"><g transform="translate(.000015)"><circle cx="-249.99998" cy="250" fill="#e51a1a" r="250" transform="scale(-1 1)"/><path d="m181.33938 83.856939c97.52275-31.84694 203.27597 26.159281 217.12696 131.568651 10.04116 85.89723-45.79566 162.6049-131.11288 174.6444-76.26503 6.65-147.16573-45.4981-149.44603-126.3231.16679-50.89801 30.03241-87.97493 76.60677-108.40662 44.00125-16.48183 90.46555-3.00917 112.28155 39.63622 17.95322 40.0953 3.57775 87.31302-40.4313 103.80676-21.98685 8.23292-51.6578-5.55285-56.72562-31.5612 24.48155 21.7253 69.7211 11.74379 80.1808-21.06198 5.24648-24.88185-11.48198-41.52298-24.36368-55.64156-23.21161-15.22125-63.26956-13.16738-85.32502 12.05139-41.51846 46.43224-18.48961 112.52397 35.72777 131.08081 60.66482 17.11352 118.96473-29.63961 126.96137-92.39988 2.7637-54.83226-40.99398-106.19486-96.51046-114.27807-76.21988-10.3001-138.45939 50.84936-147.743191 124.09106-9.31956 73.21828 47.315731 138.67973 111.863041 158.33924 49.05305 9.49897 98.18701 2.07129 139.64056-27.40671 82.90715-58.95602 100.11901-177.97214 43.55644-260.39974-52.71171-79.885311-158.575-103.987181-249.15842-67.061741-86.705021 39.45169-149.0660905 134.549061-117.102931 229.167621 15.77888-74.65377 50.93986-153.5943 123.407351-187.514491 9.28724-4.60517 19.44718-8.7232 30.56692-12.33106zm-160.722321 286.075591c-52.57825-113.8254-.38403-260.89182 113.777041-317.643861 10.84604-5.32012 22.21219-9.7712 34.03518-13.36069 115.76394-28.75816 246.03978 34.00351 263.68455 158.897471 10.04526 85.91695-27.72044 168.80365-107.97396 206.83173-102.24035 46.26108-224.798841-11.43986-234.690511-131.24969-7.33455-123.78718 127.307171-194.136761 222.718561-137.24102-42.54074-27.89653-94.21826-33.44528-140.80825-12.98978-71.17376 32.62266-105.080851 118.0397-80.762351 190.63139 30.697281 88.13423 123.572931 132.04164 212.817841 105.59803 82.80488-25.06359 132.16266-100.33164 140.19255-180.04986 12.12434-145.020371-132.23823-245.3588802-265.59709-221.973611 7.92036-4.10499 20.5989-8.4277792 35.61563-11.7452592 60.06317-13.23825 124.63426-3.45807 179.45368 32.4903392 109.65077 71.904621 141.09454 217.803071 65.16008 333.599141-143.00482 218.07486-377.311781 117.06797-437.622951-1.79433" fill="#b21a1a"/></g><path d="m403.18945 0-103.40625 254.28516c-4.15617-.59429-8.36247-.99598-12.63281-1.06446-8.23685-.13259-16.54991.84066-24.73437 2.68946l34.28125-255.90625375h-107.06055l36.37695 271.55859375c-7.88781 5.24842-15.23047 11.44706-21.56055 18.80664l-1.89257 2.20117-119.416019-292.56640375h-83.144531v78.58593775l145.1582 187.720706c-23.21755-9.66077-46.459014-10.38116-67.146481-2.72266l-78.00976587-60.85351v89.9746l29.81054687 12.33594c-1.226088 1.99453-2.508236 3.90253-3.652344 6.01953l-5.560547 10.29297-10.265625-2.51758c-43.365158-10.64539-86.000608 9.05921-111.308594 42.76563-25.31277 33.70644-33.95284 79.11026-9.52734 126.97656l6.01757 15.91211h729.48438c-.0802-42.0435-20.84837-83.70568-62.74219-90.29297l-15.79492-2.48633 3.10742-18.07812c2.39072-13.89822-1.69561-30.64458-12.09765-47.8086-10.40527-17.16402-26.80967-33.90479-45.52149-46.21093-3.18946-2.09824-6.46021-4.01262-9.75976-5.83985l17.80859-7.33398v-95.09961l-136.55664 105.07422-1.50586-2.41992c-6.22208-9.99705-14.05284-18.16314-23.00195-24.49219l161.06445-208.003907v-61.501953z" fill="#ff8066" opacity=".5"/><path d="m625.00001 504.49325c-.0802-42.04354-20.84906-83.70484-62.74292-90.29213l-15.79323-2.48647 3.10635-18.07884c2.39072-13.89823-1.69599-30.64292-12.09804-47.80695-10.40528-17.16404-26.80822-33.90501-45.52006-46.21116-18.71185-12.30987-39.67322-20.16265-58.7188-21.13126s-35.7261 4.42556-49.13022 18.3015l-12.42374 12.86653-9.74259-15.65545c-16.58425-26.64602-44.58304-40.29373-74.7864-40.77804-30.20177-.48618-61.6326 12.65872-82.69665 37.14855l-9.39926 10.9293-10.48548-9.51351c-57.43519-52.11001-125.387953-41.82086-158.408853 19.2794l-5.55964 10.29285-10.26567-2.51801c-43.365202-10.6454-86.001956 9.05893-111.309967 42.76538-25.3128 33.70647-33.95151 79.11045-9.52599 126.9768l6.01619 15.91151z" fill="#ff8066" opacity=".25"/><path d="m83.173828 189.24805c-14.218291.0755-28.780987 4.82786-39.435547 15.48242-14.179357 14.17936-17.738386 34.71713-14.164062 53.67187 3.574323 18.95475 13.813571 37.6369 29.550781 53.37305 15.735962 15.73613 34.418771 25.97474 53.37305 29.54883 7.68789 1.44966 15.6197 1.65142 23.29882.52148-11.61477 49.33054-37.679027 93.32292-69.675776 127.90235l-27.96875 30.22461h108.160156l5.25-5.15039c36.44848-35.75953 56.54-94.19027 70.20117-138.13672 18.15953 3.90026 40.69361 13.41867 57.28906 25.88672l-100.61132 117.42773h321.55859l-45.83984-82.76953h-83.25586c7.24218-9.44696 12.76065-19.163 16.40429-29.13477 7.96844-21.80766 6.7333-44.31822-.95898-64.02929-13.32791-34.15207-43.64916-60.88997-79.09766-79.28516l.50586-1.09375-17.13476-7.25391c-11.64449-4.92999-23.62405-8.91339-35.60938-11.95312l-17.55273-4.45117-.2461.99218c-28.03006-4.83799-56.11228-4.00395-80.46289 5.75391-1.9246-2.24792-3.81744-4.51138-5.96679-6.66016-19.67191-19.6719-43.88569-30.99272-67.609379-30.86718z" fill="#861313"/><path d="m83.27044 207.248c17.5176-.0927 38.052 8.8587 54.7875 25.5942 5.2002 5.1984 9.6156 10.7802 13.275 16.5087 25.8606-15.5817 62.7894-16.4367 99.198-7.1712.018-.0837.036-.1683.0567-.252 11.1213 2.8206 22.2534 6.5232 33.0183 11.0808l-.1692.3654c78.5952 33.7554 136.7118 111.591 43.2288 181.8567h116.8875l25.902 46.7694h-251.8875l86.652-101.1366c-23.7726-26.1603-66.069-42.8256-95.004-44.1558-13.5135 44.172-35.5005 111.1644-70.2585 145.2654h-59.625c42.192-45.5976 74.9862-106.8606 80.271-176.175-1.584 3.1707-3.6198 6.093-6.1605 8.6346-18.2808 18.2808-54.8154 11.3913-81.5904-15.3846-26.776798-26.775-33.666298-63.3096-15.385498-81.5904 6.8553-6.8553 16.292698-10.1538 26.801998-10.2096z" fill="#ff8066" stroke-width="36"/><path d="m231.56641 327.77344c-20.70181.33195-39.89074 9.68762-51.25782 27.95117l-6.67773 10.73047-8.51563-8.82031c-3.79151-3.92499-7.98549-6.80668-12.49804-8.85352-12.7233 51.62517-40.05607 97.28017-73.285159 133.19141h59.624999c34.75797-34.10097 56.74433-101.09367 70.25781-145.26563 28.93497 1.3302 71.23133 17.99598 95.00391 44.15625l-86.65039 101.13672h251.88672l-25.90235-46.76953h-116.88671c45.39831-34.12326 54.97899-70.0186 43.88867-101.79688-21.38102-6.01865-46.19539.37734-68.67578 20.77344l-7.1875 6.51953-6.44336-7.49023c-14.4376-16.78568-35.98092-25.79612-56.68164-25.46289z" fill="#e51a1a" opacity=".25"/><path d="m.00025671 499.99998c.05497308-28.81727 14.29024829-57.37253 43.00491629-61.88756l10.824911-1.70426-2.129129-12.3915c-1.638641-9.52606 1.162449-21.00311 8.292169-32.76759 7.131927-11.76449 18.374747-23.239 31.200122-31.67381 12.825374-8.43737 27.192604-13.81978 40.246724-14.48368s24.4872 3.03334 33.67458 12.54412l8.51541 8.81891 6.67772-10.73048c11.36709-18.26357 30.55787-27.61792 51.2597-27.94987 20.70074-.33323 42.24389 8.67647 56.6815 25.46216l6.44239 7.49111 7.18691-6.5207c39.36692-35.71697 85.94275-28.66464 108.57576 13.21438l3.81066 7.05487 7.03624-1.72588c29.72315-7.29651 58.94701 6.20912 76.29349 29.31202 17.34977 23.10291 23.27087 54.22347 6.52926 87.03177l-4.12359 10.90599z" fill="#ff8066" opacity=".5"/></svg>