<svg height="500" viewBox="0 0 500 500" width="500" xmlns="http://www.w3.org/2000/svg" xmlns:xlink="http://www.w3.org/1999/xlink"><radialGradient id="a" cx="1362.7291" cy="216.11429" gradientTransform="matrix(1.0000001 -.0000059 .0000001 1.0000003 -112.72927 33.893757)" gradientUnits="userSpaceOnUse" r="250"><stop offset="0" stop-color="#ff851a"/><stop offset=".42441937" stop-color="#f87000"/><stop offset=".86367416" stop-color="#f26900"/><stop offset="1" stop-color="#e55f00"/></radialGradient><g transform="translate(-1000)"><path d="m1500 250a250 250 0 0 1 -250 250 250 250 0 0 1 -250-250 250 250 0 0 1 250-250 250 250 0 0 1 250 250z" fill="url(#a)" stroke-linecap="round" stroke-linejoin="round" stroke-width="1.002"/><path d="m1309.2298 33.82789c128.5196 30.706851 207.8974 167.48127 169.5927 291.56949-31.3771 95.69524-112.8693 162.03793-212.5543 174.60263 153.1796-8.09118 266.0956-163.0043 218.7012-309.92978-36.4562-114.666588-154.6038-191.5214848-270.6514-169.822657-18.8526 4.215647-38.4387 10.498641-55.8829 18.694487-112.5353 47.459213-168.47522 196.206-99.9632 307.85319 57.6978 93.63045 168.5136 141.8489 267.9993 100.77239-134.92 68.97589-303.283-51.46877-311.488-201.30723-4.4167-117.68321 76.8182-219.674136 190.654-246.26040176-89.0147 9.18391126-152.6601 79.39239576-187.7408 157.21169176-38.45522 102.70317 5.2337 231.75078 109.038 294.08388 114.5107 66.1048 260.3537 29.37245 323.6836-83.60152 42.2104-77.69758 34.3514-177.62383-23.1776-249.88923-57.5404-72.257811-157.5429-102.460489-246.4118-71.877168-81.7429 30.682061-131.1298 101.133078-134.0478 190.176958.6692 92.68536 61.7912 168.55972 147.5399 198.52472 128.5549 37.82014 266.7725-70.33038 233.6823-209.88949-14.7104-64.39775-57.8855-122.14991-125.7378-141.121386-71.391-15.467036-138.9716 1.205-181.2869 64.641366-18.8995 29.2286-28.9384 85.21395-26.105 97.65297m0 0c13.5324-50.18833 30.6277-97.66354 72.2125-128.94941 53.182-38.308183 124.4576-37.093813 181.7444-.48035 50.1457 36.48017 75.4845 90.37713 72.3557 150.91678-6.6674 64.04407-38.4038 109.83277-91.6401 141.00844-63.9019 34.56125-135.3795 4.83213-189.1258-35.28385-78.8706-65.48566-79.7477-186.67235-8.9744-256.76104 63.7369-55.941605 167.0207-64.891564 238.7167-6.65053 78.8163 58.35315 90.3045 169.04089 40.972 246.62443-35.2274 56.41892-88.4571 87.60135-152.5581 93.63158-81.9488 2.18264-160.666-41.91503-196.8695-120.9383-36.2055-79.02511-22.5771-164.33167 26.8727-227.66064 49.4316-63.30896 138.3491-86.746364 220.4504-67.54202" fill="#c50"/></g><path d="m250 25c-20.16229 0-38.26913 11.411915-50.52539 28.158203h-.002c-12.38638 16.925291-19.61133 39.43478-19.61133 64.263677 0 21.18622 5.29927 40.65008 14.53711 56.42968-19.74624 3.45717-41.88372 8.1301-71.23633 14.60938l-24.029298 5.30468 12.333988 21.29493c15.83203 27.33344 27.03339 63.2732 32.86132 93.00781l1.72071 8.7832 1.18164 8.375c.96859 6.86661 1.60177 13.11934 1.90625 18.38672l.98047 16.96094h25.95312v86.46875h-22.30854l-41.44727 52.95703h275.37305l-41.44727-52.95703h-8.76953-13.54101v-86.46875h25.95703l.97851-16.96289c.29905-5.18984.91887-11.34833 1.86524-18.10742l1.16992-8.36133 1.70117-8.72071c5.81007-29.80175 17.03743-65.92062 32.93164-93.36132l12.33399-21.29493-24.0293-5.30468c-29.35261-6.47928-51.49009-11.15221-71.23633-14.60938 9.23784-15.7796 14.53711-35.24345 14.53711-56.42968 0-24.829434-7.22667-47.337156-19.61133-64.261724v-.002h-.002c-12.25588-16.745792-30.36256-28.158156-50.52534-28.158156z" fill="#994100"/><path d="m249.99998 43.000008c13.58438 0 26.23596 7.446985 36.00098 20.789382 9.76407 13.343338 16.13726 32.40687 16.13726 53.63336 0 21.2265-6.37319 40.29003-16.13726 53.63337-9.76502 13.34239-22.41755 20.78938-36.00098 20.78938-13.58438 0-26.23596-7.44699-36.00098-20.78938-9.76407-13.34334-16.13725-32.40687-16.13725-53.63337 0-21.22649 6.37224-40.290022 16.13725-53.63336 9.76502-13.342397 22.41755-20.789382 36.00098-20.789382zm37.91872 73.480682h-75.83744v16.95708h29.38701v21.66739h17.06342v-21.66739h29.38701zm4.52844 73.22822c21.1103 3.30192 46.27506 8.77246 80.51092 16.32966-17.42839 30.0894-28.91966 67.62484-35.02457 98.93892-29.18225 3.06075-67.55315 8.93073-87.93351-11.13421-21.90375 20.01407-64.57083 16.80824-88.00745 10.7621-6.12292-31.23966-17.59049-68.59516-34.95062-98.56681 34.23586-7.5572 59.40061-13.02774 80.51091-16.32966 11.49601 11.72676 26.22743 19.09367 42.44716 19.09367s30.95115-7.36691 42.44716-19.09367zm-33.91545 40.76105h-17.06342v45.21888h17.06342zm-8.52412 85.83769c23.93998 11.09841 62.09189 10.55295 84.89621 6.70087-1.0039 7.17002-1.67601 13.77574-2.00969 19.56659h-165.78822c-.33937-5.87092-1.0238-12.57745-2.0514-19.8624 27.49107 2.08855 62.3725 6.41543 84.95215-6.40506zm55.92252 43.22454v88.55364h-17.06342v-60.29184h-77.73337v60.29184h-17.06343v-88.55364zm-34.12685 45.21888v43.33476h-43.60652v-43.33476zm65.66669 60.29185 13.27155 16.95708h-201.48205l13.27155-16.95708z" fill="#ffa348" stroke-width="36"/></svg>