<svg height="500" viewBox="0 0 500 500" width="500" xmlns="http://www.w3.org/2000/svg"><g transform="translate(.000015)"><circle cx="-249.99998" cy="250" fill="#e51a1a" r="250" transform="scale(-1 1)"/><path d="m181.33938 83.856939c97.52275-31.84694 203.27597 26.159281 217.12696 131.568651 10.04116 85.89723-45.79566 162.6049-131.11288 174.6444-76.26503 6.65-147.16573-45.4981-149.44603-126.3231.16679-50.89801 30.03241-87.97493 76.60677-108.40662 44.00125-16.48183 90.46555-3.00917 112.28155 39.63622 17.95322 40.0953 3.57775 87.31302-40.4313 103.80676-21.98685 8.23292-51.6578-5.55285-56.72562-31.5612 24.48155 21.7253 69.7211 11.74379 80.1808-21.06198 5.24648-24.88185-11.48198-41.52298-24.36368-55.64156-23.21161-15.22125-63.26956-13.16738-85.32502 12.05139-41.51846 46.43224-18.48961 112.52397 35.72777 131.08081 60.66482 17.11352 118.96473-29.63961 126.96137-92.39988 2.7637-54.83226-40.99398-106.19486-96.51046-114.27807-76.21988-10.3001-138.45939 50.84936-147.743191 124.09106-9.31956 73.21828 47.315731 138.67973 111.863041 158.33924 49.05305 9.49897 98.18701 2.07129 139.64056-27.40671 82.90715-58.95602 100.11901-177.97214 43.55644-260.39974-52.71171-79.885311-158.575-103.987181-249.15842-67.061741-86.705021 39.45169-149.0660905 134.549061-117.102931 229.167621 15.77888-74.65377 50.93986-153.5943 123.407351-187.514491 9.28724-4.60517 19.44718-8.7232 30.56692-12.33106zm-160.722321 286.075591c-52.57825-113.8254-.38403-260.89182 113.777041-317.643861 10.84604-5.32012 22.21219-9.7712 34.03518-13.36069 115.76394-28.75816 246.03978 34.00351 263.68455 158.897471 10.04526 85.91695-27.72044 168.80365-107.97396 206.83173-102.24035 46.26108-224.798841-11.43986-234.690511-131.24969-7.33455-123.78718 127.307171-194.136761 222.718561-137.24102-42.54074-27.89653-94.21826-33.44528-140.80825-12.98978-71.17376 32.62266-105.080851 118.0397-80.762351 190.63139 30.697281 88.13423 123.572931 132.04164 212.817841 105.59803 82.80488-25.06359 132.16266-100.33164 140.19255-180.04986 12.12434-145.020371-132.23823-245.3588802-265.59709-221.973611 7.92036-4.10499 20.5989-8.4277792 35.61563-11.7452592 60.06317-13.23825 124.63426-3.45807 179.45368 32.4903392 109.65077 71.904621 141.09454 217.803071 65.16008 333.599141-143.00482 218.07486-377.311781 117.06797-437.622951-1.79433" fill="#b21a1a"/></g><g fill="#ff8066"><path d="m409.58789-16.914062-32.82227 15.789062 15.13086 77.644531c1.16038 1.008298 2.32752 1.972255 3.48243 3.015625-1.01002-.174598-1.98326-.30042-2.98438-.46289l3.21485 16.5-40.3086-1.234375c1.67128 1.116094 3.36814 2.212352 5.00977 3.351562 3.13364 2.174605 6.21404 4.392777 9.24414 6.658207s6.01087 4.57844 8.94336 6.94336c.24476.19739.47855.40735.72265.60546l19.6875.60157 1.78321 9.16015c-.26389 2.90964-.6207 5.7292-1.02735 8.5 1.34232 1.31177 2.7042 2.59256 4.02735 3.93555 2.67518 2.7153 5.31279 5.49434 7.91406 8.34375s5.16594 5.76759 7.69922 8.75977c2.53328 2.99217 5.03464 6.05953 7.50586 9.20312 2.47122 3.1436 4.91304 6.3643 7.32812 9.66797 1.46353 2.00201 2.89909 4.09485 4.34375 6.1582 9.27209-6.76242 19.45251-13.17413 30.85938-19.08594-9.16378-13.73487-16.64553-28.03041-21.66211-43.15039l63.22656 1.93555 35.97266-33.439452v-22.966797l-42.36329 39.384766-61.3164-1.876953c-1.6875-8.584183-2.55952-17.438545-2.47852-26.611328 19.68116-13.615173 42.51745-19.785453 63.77539-18.285157l42.38477-50.4335934v-18.6113276h-32.98242l-27.79688 33.828124-84.29883 22.496094-6.04492-31.0078122 52.63086-25.3164058z" opacity=".75"/><path d="m86.544922-34.240234 47.849608 86.529296-63.818358-10.175781-44.169922-76.351562h-19.4296875l53.0488285 91.701172 61.169919 9.753906c.71996-.321556 1.42281-.667236 2.15235-.974609 1.81803-.765984 3.66738-1.488139 5.54492-2.164063s3.78365-1.305641 5.7207-1.888672h.00391c-1.70404 2.122792-3.25924 4.259198-4.8711 6.390625l14.97852 2.388672 5.4707 9.892578c1.43816-1.448458 2.85622-2.916548 4.34375-4.316406 2.37087-2.231123 4.80414-4.399729 7.29492-6.501953.36137-.304992.74557-.582568 1.10938-.884766l-57.17969-103.398437z" opacity=".75"/><path d="m307.67288 408.22656c-.59869.39073-1.15722.83634-1.76172 1.21875-3.52799 2.23181-7.15427 4.32171-10.86524 6.26953-3.71096 1.94783-7.50677 3.75313-11.375 5.41602-3.86822 1.66289-7.80883 3.18354-11.80859 4.56055-1.64275.56555-3.33422 1.00231-4.99609 1.51953-7.62461 31.13636-41.91083 45.95394-90.13282 40.88672 2.91942-12.36332 6.81366-24.06194 11.62696-34.125-1.59978-.20456-3.21302-.32762-4.80469-.57422-4.16295-.64497-8.29461-1.43785-12.38477-2.3711-4.81433 10.74135-8.70573 22.44547-11.62109 34.51368-4.3587-.8244-8.80038-1.77974-13.33008-2.89844-14.23708 30.26247-30.62684 60.03885-58.107418 87.35742h30.656248c7.79759-21.41548 19.75203-37.28632 34.79102-48.32031-1.6731 17.81278-1.40552 34.71232.64648 48.32031h17.07227c-2.403-14.41439-2.09126-36.41278 1.15234-59.03516 20.84218-8.91899 45.55093-11.24318 72.25391-8.21289-4.653 22.90048-14.67306 46.93237-43.70703 67.24805h49.55664c-5.1381-42.82196 27.60023-107.94617 63.30859-133.11914-2.1813-3.02119-4.11074-5.76872-6.16992-8.6543zm-233.679689-17.81054c-15.926384 1.52909-30.737655 3.83085-45.056641 7.03125 3.556797-16.41419 9.818445-33.23725 18.957032-50.76563 13.537786-2.1303 25.629027-3.08406 37.041015-3.03906v.002c.6687.002 1.331895.0183 1.996094.0274-1.338357 6.42704-2.877737 12.80966-5.586914 22.98828-2.952307 10.50472-5.01867 17.15533-7.350586 23.75586zm24.048828-20.7129c1.375221-5.12067 2.632331-10.25658 3.792971-15.40429-2.527786-2.62765-4.983891-5.33453-7.312502-8.16797-2.540733-3.09155-4.962036-6.30041-7.265625-9.61524-2.000764-2.87906-3.871512-5.87081-5.69336-8.90234-21.60365.001-44.148721-2.92238-67.111327-9.2793 3.487496 29.33728 4.262739 58.37853.02734 82.6875-16.9694827 4.6431-33.510405 10.70253-50.679687 18.47852v18.5625c15.909284-7.56899 30.8958303-13.55591 46.0410155-18.25391-7.7489922 23.16688-22.1261805 39.35093-46.0976565 42.89063v32.51367c10.484993-15.75898 23.28937-26.83132 43.0605502-37.34961 22.0076778 24.02548 29.0488258 70.31354-7.39843795 92.13672h21.96484375c8.299792-9.80369 18.632208-19.10149 31.837891-27.67578-21.054575-36.57686-30.629981-71.10601-27.083985-107.04297 17.092783-4.2291 34.857683-6.99711 54.789063-8.66211l5.314453-.45117 1.857422-5.00586c1.751213-4.71612 3.383595-9.44963 4.914062-14.19727z" opacity=".75"/></g><path d="m274.59766 10.855469c-30.80283.168679-58.3205 6.917055-82.69532 18.558593-20.59839 4.271286-41.05977 7.994155-62.47656 15.539063-71.752112 21.596581-106.226209 97.241275-107.427733 171.365235-.651015 40.16217 8.29911 81.47264 27.458984 115.73828l-32.023437-17.63867 25.925781 51.75391c35.849429 71.56266 120.027275 97.8308 193.541015 83.73828 28.99655-5.55863 56.7587-17.55217 79.80664-36.03711-6.79588 11.02164-14.52743 20.03427-22.37891 29.58789-11.22497 13.65848-35.30078 39.58398-35.30078 39.58398l52.89844-9.75586c42.36185-11.10787 76.48888-40.13609 99.27539-76.83398.82824 17.23767-1.63811 32.29337-3.62305 48.32422-2.29555 18.53952-6.37732 36.81382-9.5664 55.2207 14.15065-13.93358 31.6441-25.13965 42.45117-41.80078 20.7832-32.04122 35.33766-69.43089 40.11523-107.32227 4.09533-32.48045-.73794-66.39615-10.4746-97.65234-4.56865-14.66606-12.97734-28.00317-21.97657-40.50586 17.29101 12.42707 34.58205 24.85418 51.87305 37.28125-9.76496-19.02212-17.40813-39.29283-29.29492-57.06641-23.38113-34.96032-50.40998-70.93531-81.73438-96.123043 21.24358 3.383763 43.15531 7.344883 64.61719 11.054683l-46.14258-41.685542c-40.59613-36.675409-85.75358-53.686219-132.84765-55.324219z" fill="#861313"/><path d="m317.94356 149.70553c21.5712 14.4936 37.8432 35.694 44.8182 61.7508.8172 3.051 1.485 6.111 2.0187 9.1683 24.0633 76.8213-4.6503 179.8605-57.42 235.2528 55.3563-14.5152 96.7635-65.4597 111.4533-122.4783 11.3013 39.7602 14.1687 80.8092 6.318 115.3683 84.4758-137.3238 26.388-267.1785-107.1873-299.061z" fill="#ff8066" stroke-width="36"/><path d="m134.61356 62.189532c-123.971408 37.314-126.0630077 267.773398-6.8328 320.101198-24.2838-4.797-47.649608-12.7917-68.328008-24.1803 63.020708 125.802 302.310008 96.2352 296.478008-73.1394-15.4926 33.4836-47.1915 60.84-87.8148 71.7345-31.6098 8.478-63.5193 5.6124-90.3267-6.084-88.223408-35.3547-138.879008-169.2072-43.173-288.431998z" fill="#ff8066" stroke-width="36"/><path d="m270.80876 28.703232c-108.8172 1.089-199.663208 110.956498-161.3655 220.079698.2124-.8082.4455-1.602.666-2.4048 1.8126-40.4325 26.7786-78.3468 65.1438-99.9297 62.5455-44.6697 160.6887-38.511 279.9837 55.6893-36.5157-61.3737-77.562-98.379-135.2754-128.744998 22.7934 1.2294 47.376 1.296 75.4173 6.1434-40.1175-36.243-83.6154-51.2424-124.569-50.832z" fill="#ff8066" stroke-width="36"/><path d="m185.98507 300.13421-1.7064-.3906" fill="#dc8add" stroke-width=".9"/><path d="m304.34766 372.67969c-18.06298-2.8512-36.24709-4.66757-54.47657-5.82227 4.62795-13.81878 7.58919-28.08491 8.94141-42.2793-1.18781.67315-2.35852 1.37517-3.57617 1.99805-2.08677 1.06747-4.2151 2.06076-6.38086 2.97461-2.16576.91386-4.3697 1.74926-6.60352 2.50195-.50566.17039-1.0283.29124-1.53711.45313-1.90716 13.21018-5.32502 26.36852-10.41406 38.88086l-4.47266 10.99805 11.83985.58984c22.95626 1.125 45.63196 3.21891 67.94922 6.97461.8577 24.13074-1.95503 49.55968-9.14063 75.51562 29.33723-3.48748 58.37855-4.26274 82.6875-.0273 4.6431 16.96946 10.70254 33.51041 18.47852 50.67969h18.5625c-7.56898-15.90928-13.55591-30.89584-18.25391-46.04102 23.16686 7.74898 39.35093 22.1262 42.89063 46.09766h32.51367c-15.75898-10.48498-26.83328-23.28939-37.35156-43.06055 24.02544-22.00766 70.31551-29.04878 92.13867 7.39844v-21.96484c-9.80367-8.2998-19.1015-18.63222-27.67578-31.8379-36.57684 21.05456-71.10604 30.62999-107.04297 27.08399-4.2291-17.09276-6.99908-34.8577-8.66406-54.78906l-.44922-5.31446-5.00586-1.85742c-18.61196-6.91108-37.48245-12.04353-56.50391-15.86133 1.863-17.75966 6.16625-34.92927 12.20703-54.89843 6.489 2.38138 13.04199 3.82957 19.82617 4.07617 15.87598.576 31.87017-5.69753 49.07813-18.78711 12.08698 5.98138 25.72612 10.61286 39.77148 14.00586-.8244 4.35868-1.77973 8.80038-2.89843 13.33008 30.26244 14.23706 60.03692 30.62686 87.35546 58.10742v-30.65625c-21.41544-7.79758-37.28439-19.75204-48.31835-34.79102 17.81276 1.6731 34.7104 1.40552 48.31835-.64648v-17.07227c-14.41436 2.403-36.41084 2.09124-59.0332-1.15234-8.91898-20.84216-11.24514-45.55095-8.21484-72.25391 22.90046 4.653 46.9324 14.67309 67.24804 43.70703v-49.55664c-42.8219 5.1381-107.94618-27.60028-133.11914-63.30859-20.73406 14.97001-38.16368 27.04511-53.49023 36.01758-10.82418 6.33668-20.59037 11.09094-29.69336 14.1914-5.09025 1.73374-9.98929 2.96822-14.73828 3.64063l-17.08837 22.40326 23.17431 8.61236c5.38489-4.17175 10.62039-7.94351 15.73828-11.41406 10.21029-6.92381 19.91547-12.56481 29.02344-16.84375v-.00004c69.22891-32.52389 105.85414 8.54657 98.29296 80.50195-14.47556-3.41818-28.19139-8.08914-39.23437-14.11914l-4.98047-2.70117-4.38672 3.57422c-17.08466 13.98778-30.00691 18.83358-42.1875 18.39258-8.64689-.31351-17.60266-3.48871-27.67187-9.34375-3.45887-2.01126-7.04535-4.32937-10.80078-6.96875-1.24081-1.43356-2.4252-2.91009-3.57813-4.4082-4.43678-5.76517-8.26308-12.00371-11.93945-18.44922l-29.45627.47285 12.58517 33.39824c2.67126 5.53517 5.11849 11.25445 7.32227 17.14844.91577 2.44922 1.78607 4.92873 2.61719 7.43554 4.70893 14.20307 8.07358 29.28691 9.81836 45.06446zm17.46679 20.30664c15.79678 3.28948 31.38298 7.5105 46.74414 12.9375 1.52911 15.92636 3.83087 30.73766 7.03125 45.05664-16.41416-3.5568-33.23921-9.81845-50.76757-18.95703-2.1303-13.53778-3.08211-25.62904-3.03711-37.04102h.002c.002-.6687.0183-1.33189.0273-1.99609z" fill="#ff8066" opacity=".75"/><path d="m246.17756 144.91213c-10.9683-.0756-22.2633 1.3248-33.5907 4.3632-60.4152 16.2027-96.7707 72.3042-82.7568 124.6518 6.3324 23.6547 21.9537 42.822 42.7482 55.2357 15.4575 6.2514 32.355 8.892 48.8727 7.335 45.8568-4.329 86.1498-43.6986 81.3906-90.8568-3.3642-33.318-32.1174-62.5608-66.2832-58.8267-23.607 2.5803-44.3223 23.067-41.5107 47.0655 1.8873 16.1118 15.9444 30.222 32.1345 28.1673h.002c10.4418-1.3248 19.5705-10.4958 18.1773-20.7018-.1746-1.2816-.5562-2.5227-1.089-3.6864-1.8324 2.1465-4.3065 3.7836-7.2396 4.5693-7.7103 2.0664-15.6384-2.511-17.7048-10.2213-2.0646-7.7112 2.511-15.6357 10.224-17.7012.441-.1188.8856-.2115 1.3293-.288l-.002-.009c.0396-.006.0783-.009.117-.0144h.005c16.0875-2.3094 29.0385 10.5444 31.023 25.074h-.003c2.8107 20.5893-13.851 37.2636-32.7222 39.6576-26.5158 3.3633-48.0717-18.3015-50.9526-42.8904-4.0176-34.299 24.2694-62.226 56.385-65.7378 2.7765-.3033 5.5206-.4437 8.226-.4302 40.5936.1998 72.6498 35.028 76.6134 74.286 4.1652 41.2695-19.4337 77.0418-53.2656 95.7915 58.8843-17.0784 94.023-72.333 80.208-123.9426-11.3868-42.534-52.8012-70.5663-100.3365-70.893z" fill="#ff8066" stroke-width="36"/><path d="m381.69141 175.59961c-9.23184 6.5314-17.75225 12.35386-25.72852 17.51953 2.78676 5.80169 5.08063 11.91915 6.79883 18.33789.43525 1.62499.72337 3.25449 1.07617 4.88281 58.86765-19.39363 89.36131 20.61934 82.40234 86.84375-14.47554-3.41817-28.1914-8.08914-39.23437-14.11914l-4.98047-2.70117-4.38672 3.57422c-9.68891 7.93264-18.013 12.84424-25.64844 15.59961-.60578 6.048-1.41578 12.08686-2.43554 18.11914 11.11465-2.51663 22.44263-8.23169 34.35742-17.29492 12.08697 5.98137 25.72614 10.61286 39.77148 14.00586-.8244 4.35867-1.77973 8.80038-2.89843 13.33008 7.51358 3.53479 14.99661 7.20363 22.41992 11.14062 8.38319-71.56938-22.7417-133.31858-81.51367-169.23828zm-38.34571 130.50391c-11.28023 15.32263-26.28661 28.47977-44.10156 38.15625 2.25603 9.19041 4.02349 18.65352 5.10352 28.41992-18.06297-2.8512-36.2471-4.66757-54.47657-5.82227.76604-2.28734 1.41683-4.6026 2.0918-6.91211-6.05084.89831-12.07978 1.46872-18.04687 1.58203-1.09795 3.32206-2.29522 6.61388-3.61524 9.85938l-4.47266 10.99805 11.83985.58984c22.95624 1.125 45.63198 3.21891 67.94922 6.97461.11334 3.18881.15319 6.40239.13672 9.63476 8.20242-6.60954 15.69804-14.07342 22.21679-22.48242-1.72426-.36861-3.44309-.78426-5.16992-1.13086 1.863-17.75964 6.16626-34.92929 12.20703-54.89843 5.69357 2.08946 11.44653 3.40564 17.35157 3.87695 1.20278-5.36294 2.14838-10.89939 2.76171-16.64453-3.83709-.17112-7.74275-.92184-11.77539-2.20117zm9.31055 77.07421c-2.15527 5.30733-4.46088 10.50105-6.91016 15.59375 7.65678 2.11725 15.26273 4.48506 22.8125 7.15235.43547 4.53558.95192 8.96098 1.51563 13.33008 5.34317-5.25021 10.37193-10.8743 15.02539-16.85157-.1047-1.14805-.24273-2.23594-.33984-3.39843l-.44922-5.31446-5.00586-1.85742c-8.82743-3.27784-17.71618-6.12715-26.64844-8.6543zm-26.47461 49.50586c-5.85197 8.39152-12.13869 16.17968-18.82031 23.19336 12.67704-3.32409 24.5781-8.63544 35.63867-15.41601-5.54435-2.31922-11.13726-4.85802-16.81836-7.77735z" fill="#e51a1a" opacity=".25"/></svg>