<svg height="500" viewBox="0 0 500 500" width="500" xmlns="http://www.w3.org/2000/svg"><g transform="translate(.000015)"><circle cx="-249.99998" cy="250" fill="#e51a1a" r="250" transform="scale(-1 1)"/><path d="m181.33938 83.856939c97.52275-31.84694 203.27597 26.159281 217.12696 131.568651 10.04116 85.89723-45.79566 162.6049-131.11288 174.6444-76.26503 6.65-147.16573-45.4981-149.44603-126.3231.16679-50.89801 30.03241-87.97493 76.60677-108.40662 44.00125-16.48183 90.46555-3.00917 112.28155 39.63622 17.95322 40.0953 3.57775 87.31302-40.4313 103.80676-21.98685 8.23292-51.6578-5.55285-56.72562-31.5612 24.48155 21.7253 69.7211 11.74379 80.1808-21.06198 5.24648-24.88185-11.48198-41.52298-24.36368-55.64156-23.21161-15.22125-63.26956-13.16738-85.32502 12.05139-41.51846 46.43224-18.48961 112.52397 35.72777 131.08081 60.66482 17.11352 118.96473-29.63961 126.96137-92.39988 2.7637-54.83226-40.99398-106.19486-96.51046-114.27807-76.21988-10.3001-138.45939 50.84936-147.743191 124.09106-9.31956 73.21828 47.315731 138.67973 111.863041 158.33924 49.05305 9.49897 98.18701 2.07129 139.64056-27.40671 82.90715-58.95602 100.11901-177.97214 43.55644-260.39974-52.71171-79.885311-158.575-103.987181-249.15842-67.061741-86.705021 39.45169-149.0660905 134.549061-117.102931 229.167621 15.77888-74.65377 50.93986-153.5943 123.407351-187.514491 9.28724-4.60517 19.44718-8.7232 30.56692-12.33106zm-160.722321 286.075591c-52.57825-113.8254-.38403-260.89182 113.777041-317.643861 10.84604-5.32012 22.21219-9.7712 34.03518-13.36069 115.76394-28.75816 246.03978 34.00351 263.68455 158.897471 10.04526 85.91695-27.72044 168.80365-107.97396 206.83173-102.24035 46.26108-224.798841-11.43986-234.690511-131.24969-7.33455-123.78718 127.307171-194.136761 222.718561-137.24102-42.54074-27.89653-94.21826-33.44528-140.80825-12.98978-71.17376 32.62266-105.080851 118.0397-80.762351 190.63139 30.697281 88.13423 123.572931 132.04164 212.817841 105.59803 82.80488-25.06359 132.16266-100.33164 140.19255-180.04986 12.12434-145.020371-132.23823-245.3588802-265.59709-221.973611 7.92036-4.10499 20.5989-8.4277792 35.61563-11.7452592 60.06317-13.23825 124.63426-3.45807 179.45368 32.4903392 109.65077 71.904621 141.09454 217.803071 65.16008 333.599141-143.00482 218.07486-377.311781 117.06797-437.622951-1.79433" fill="#b21a1a"/></g><path d="m114.50977 59.666016c-10.07438.11431-19.80617 1.091669-29.222661 2.679687 0 0-.333975.053908-.339843.054688a250 249.99998 0 0 0 -84.947266 187.599609 250 249.99998 0 0 0 .71289062 9.97852c-2.25798542 37.40926 3.86159338 75.22266 19.90429738 109.95312 34.751153 68.48818 127.287802 130.87947 226.822262 129.88477a250 249.99998 0 0 0 2.56055.18359 250 249.99998 0 0 0 8.79883-.62891c2.52516-.14858 5.04927-.30989 7.58008-.54297a250 249.99998 0 0 0 233.62109-248.82812c-5.81007-7.72495-19.85156-21.13867-19.85156-21.13867-21.69308-21.27619-47.23532-39.01386-75.50586-52.05274 19.70533 17.89267 35.61279 40.10679 45.73242 64.95899-7.15589-2.06513-14.42273-3.69156-21.73242-4.92774 18.11222 23.98843 31.01458 54.37648 22.97265 83.82227-2.26342-36.16351-37.69489-76.91398-83.21679-84.94141-24.38501 3.2752-46.84749 11.11415-64.32422 23.00196 79.95689-21.90201 143.71736 58.13789 135.0293 123.14843-6.62198-29.50672-27.53431-53.53091-54.80469-66.10742 41.31232 42.39567 6.81822 106.93155-36.72656 117.49414 38.52076-45.74242 26.66901-124.30118-23.36329-143.97265 32.74516 42.57943 7.24961 93.53539-32.55859 120.82031 2.16476-18.00682 2.22985-39.8356-19.19141-46.30859 16.05096 29.93909-15.16017 60.39339-39.57226 53.5625-37.30779-10.44179-42.65613-34.97197-23.72656-62.05665-43.53706 10.55491-45.39203 49.39503-19.19532 79.65039-64.79292-17.25808-46.87652-85.6673-10.21679-104.92187-30.92379-1.83202-61.20648 17.6428-75.08203 54.07813 3.02949-57.1147 39.17744-100.31488 93.76367-83.57813-44.49659-21.65536-79.27226-24.62472-114.136721-4.05078-23.025016 15.73562-40.755986 36.45577-49.210938 58.70117 1.135579-33.45805 18.13945-62.77982 41.410157-86.63281 4.830565-17.8704 12.515971-34.81572 22.519531-50.50977-18.626821 15.63117-34.995613 33.55979-48.574219 53.10938 7.123013-62.42019 50.37601-111.17868 107.33594-124.29492-8.33404-.52233-16.91855-.65001-25.41992 0-28.59267 2.20247-57.523483 10.88965-83.158208 23.39843 39.02472-67.01474 112.309078-103.068934 171.757808-58.88672-30.33374-37.692771-70.42784-52.107894-106.44335-51.699214zm321.95117 22.572265c-5.52984-.01547-9.35392.128055-10.27344.123047-27.8846-.15186-70.35084 12.813761-98.65234 58.205082 43.09846-35.13959 98.19737-32.38298 152.41796 10.82617l6.01954 4.40234c-9.49379-26.61291-23.834-51.49378-42.63282-73.423826-2.4142-.062875-4.86107-.127168-6.8789-.132813zm-96.56446 90.822269c-23.2823-.17411-45.0559 12.17267-52.50586 40.02148 34.66714-17.78238 80.60452-20.21964 123.9336 23.72656-4.74642-39.7405-39.52117-63.50816-71.42578-63.74804zm-77.38086 117.82617c-5.82493-.0368-11.99932.77146-18.4375 2.59961 34.98824 14.45301 55.38575 40.99235 62.8125 75.38672 20.18993-35.3365-3.60439-77.73387-44.375-77.98633z" fill="#ff8066" opacity=".75"/></svg>