<svg height="500" viewBox="0 0 500 500" width="500" xmlns="http://www.w3.org/2000/svg"><g transform="translate(.000015)"><circle cx="-249.99998" cy="250" fill="#e51a1a" r="250" transform="scale(-1 1)"/><path d="m181.33938 83.856939c97.52275-31.84694 203.27597 26.159281 217.12696 131.568651 10.04116 85.89723-45.79566 162.6049-131.11288 174.6444-76.26503 6.65-147.16573-45.4981-149.44603-126.3231.16679-50.89801 30.03241-87.97493 76.60677-108.40662 44.00125-16.48183 90.46555-3.00917 112.28155 39.63622 17.95322 40.0953 3.57775 87.31302-40.4313 103.80676-21.98685 8.23292-51.6578-5.55285-56.72562-31.5612 24.48155 21.7253 69.7211 11.74379 80.1808-21.06198 5.24648-24.88185-11.48198-41.52298-24.36368-55.64156-23.21161-15.22125-63.26956-13.16738-85.32502 12.05139-41.51846 46.43224-18.48961 112.52397 35.72777 131.08081 60.66482 17.11352 118.96473-29.63961 126.96137-92.39988 2.7637-54.83226-40.99398-106.19486-96.51046-114.27807-76.21988-10.3001-138.45939 50.84936-147.743191 124.09106-9.31956 73.21828 47.315731 138.67973 111.863041 158.33924 49.05305 9.49897 98.18701 2.07129 139.64056-27.40671 82.90715-58.95602 100.11901-177.97214 43.55644-260.39974-52.71171-79.885311-158.575-103.987181-249.15842-67.061741-86.705021 39.45169-149.0660905 134.549061-117.102931 229.167621 15.77888-74.65377 50.93986-153.5943 123.407351-187.514491 9.28724-4.60517 19.44718-8.7232 30.56692-12.33106zm-160.722321 286.075591c-52.57825-113.8254-.38403-260.89182 113.777041-317.643861 10.84604-5.32012 22.21219-9.7712 34.03518-13.36069 115.76394-28.75816 246.03978 34.00351 263.68455 158.897471 10.04526 85.91695-27.72044 168.80365-107.97396 206.83173-102.24035 46.26108-224.798841-11.43986-234.690511-131.24969-7.33455-123.78718 127.307171-194.136761 222.718561-137.24102-42.54074-27.89653-94.21826-33.44528-140.80825-12.98978-71.17376 32.62266-105.080851 118.0397-80.762351 190.63139 30.697281 88.13423 123.572931 132.04164 212.817841 105.59803 82.80488-25.06359 132.16266-100.33164 140.19255-180.04986 12.12434-145.020371-132.23823-245.3588802-265.59709-221.973611 7.92036-4.10499 20.5989-8.4277792 35.61563-11.7452592 60.06317-13.23825 124.63426-3.45807 179.45368 32.4903392 109.65077 71.904621 141.09454 217.803071 65.16008 333.599141-143.00482 218.07486-377.311781 117.06797-437.622951-1.79433" fill="#b21a1a"/></g><path d="m137.73438 78a18 18 0 0 1 0 25.45508 18 18 0 0 1 -21.54883 2.25586c-.93218.25587-3.30677 1.31458-5.47852 3.48633-1.85752 1.85751-2.77324 3.70007-3.21094 4.8457a18 18 0 0 1 -2.53125 22.17969 18 18 0 0 1 -25.455074 0c8.233823 8.23382 19.811093 9.5138 28.792964 7.60546 8.98189-1.90832 16.93111-6.58931 23.68946-13.34765 6.75834-6.75834 11.43933-14.70758 13.34765-23.68945 1.90834-8.981887.62836-20.557191-7.60546-28.79102zm-25.45704 25.45508c1.25596 1.25595 2.4749 1.71353 3.31446 1.91406a18 18 0 0 1 -3.31446-1.91406zm113.60743 22.98437a18 18 0 0 1 0 25.45703 18 18 0 0 1 -25.45508-.00195c1.20496 1.20499 2.57958 4.06413 1.15039 10.79102-1.4292 6.72688-6.07832 15.75978-13.85156 23.5332-7.77326 7.77341-16.80669 12.42239-23.53321 13.85156-6.7265 1.42918-9.58409.0546-10.78906-1.15039a18 18 0 0 1 0 25.45508 18 18 0 0 1 -25.45508 0c11.79503 11.79527 28.81777 14.07781 43.72656 10.91016 14.90881-3.16766 29.26475-11.36995 41.50586-23.61133 12.24112-12.24139 20.4438-26.59699 23.61133-41.50586 3.16755-14.90888.88486-31.93324-10.91015-43.72852zm103.40039 75.80078a18 18 0 0 1 0 25.45508 18 18 0 0 1 -25.45508 0c3.67997 3.67997 5.7516 10.32424 3.44726 21.16992-2.30432 10.8457-9.40058 24.33227-20.98437 35.91602s-25.07024 18.67809-35.91602 20.98242c-10.84577 2.30434-17.48798.2327-21.16797-3.44726a18 18 0 0 1 0 25.45703 18 18 0 0 1 -25.45703 0c14.27019 14.27012 35.07954 17.24781 54.10743 13.20508 19.02789-4.04274 37.83694-14.69054 53.88867-30.74219 16.05171-16.05167 26.69943-34.86082 30.74218-53.88867 4.04277-19.02786 1.0651-39.83729-13.20507-54.10743zm141.28125 86.21094a18 18 0 0 1 0 25.45703 18 18 0 0 1 -25.45508 0c8.2756 8.27561 11.64025 21.94738 7.71094 40.44141-3.92933 18.49403-15.56947 40.2472-34.22852 58.90625s-40.41222 30.29724-58.90625 34.22656c-18.49403 3.92933-32.16579.56662-40.44141-7.70898a18 18 0 0 1 0 25.45508 18 18 0 0 1 -25.45507 0c18.86577 18.86577 46.70273 23.13648 73.3789 17.46875 26.67618-5.66775 53.75389-20.85937 76.88086-43.98633 23.12697-23.12697 38.31663-50.20469 43.98438-76.88086 5.66773-26.67618 1.39703-54.51313-17.46875-73.37891z" fill="#861313" fill-rule="evenodd" opacity=".768939" stroke-linecap="round" stroke-linejoin="round"/><g><path d="m.00000998 0c92.89467902 149.67539 208.41299002 284.82262 315.47460002 424.62109 3.98495 20.60081 14.65932 38.82291 29.75781 52.13281l1.01563.89453 21.13085 13.61719 1.23438.55469c11.65072 5.23669 24.63219 8.17969 38.22266 8.17969 25.64915 0 49.08515-10.42501 65.91992-27.27149 16.83477-16.84647 27.24414-40.28403 27.24414-65.92773 0-13.56393-2.9271-26.52401-8.14258-38.16016l-.55469-1.23633-13.62304-21.17773-.89649-1.01758c-12.25885-13.91958-28.68099-24.08707-47.31836-28.72851-145.43111-102.16931-274.28641-229.049519-429.46483002-316.48047z" fill="#861313"/><path d="m50.353981 48.828161 282.022899 368.256349c2.4912 18.3375 11.5623 34.533 24.759 46.1664l18.8561 12.1525c9.405 4.2273 19.8378 6.597 30.8448 6.597 20.8062 0 39.59685-8.397 53.18595-21.99555s21.97665-32.39865 21.97665-53.20485c0-10.989-2.358-21.4047-6.5682-30.798l-12.1556-18.8971c-10.6893-12.1374-25.2342-20.79-41.7618-24.0417z" fill="#ff8066" stroke-width="36"/></g><path d="m116.07227 69.619141c-2.47708.01972-4.88539.298308-7.13086.77539-8.981896 1.908331-16.931101 6.589299-23.689457 13.347656-6.758353 6.758356-11.439325 14.707562-13.347656 23.689453-1.908332 8.98189-.628375 20.55719 7.605469 28.79102a18 18 0 0 0 25.455074 0 18 18 0 0 0 2.53125-22.17969c.4377-1.14563 1.35342-2.98818 3.21094-4.8457 2.17175-2.17175 4.54634-3.23046 5.47852-3.48633a18 18 0 0 0 21.54882-2.25586 18 18 0 0 0 0-25.45508c-6.17537-6.175385-14.23088-8.440021-21.6621-8.380859zm-3.79493 33.835939a18 18 0 0 0 3.31446 1.91406c-.83956-.20053-2.0585-.65811-3.31446-1.91406zm81.34375 10.78515c-3.87681.0472-7.73568.4991-11.46289 1.29102-14.90881 3.16766-29.26667 11.36799-41.50781 23.60937-12.24113 12.2414-20.44183 26.59893-23.60937 41.50782-3.16755 14.90889-.88489 31.93127 10.91015 43.72656a18 18 0 0 0 25.45508 0 18 18 0 0 0 0-25.45508c-1.20497-1.20499-2.57959-4.06412-1.15039-10.79101 1.42919-6.72689 6.0783-15.75978 13.85156-23.53321 7.77327-7.77342 16.80474-12.42238 23.53125-13.85156 6.72652-1.42918 9.58605-.0546 10.79102 1.15039a18 18 0 0 0 25.45508.002 18 18 0 0 0 0-25.45703c-8.84628-8.84647-20.63322-12.34093-32.26368-12.19922zm96.03125 73.14649c-4.84959.0664-9.71763.63775-14.47461 1.64844-19.02791 4.04274-37.83693 14.69051-53.88867 30.74218-16.05173 16.05168-26.69942 34.86079-30.74219 53.88868-4.04276 19.02788-1.06513 39.83728 13.20508 54.10742a18 18 0 0 0 25.45703 0 18 18 0 0 0 0-25.45703c-3.67999-3.67998-5.7516-10.32227-3.44726-21.16797 2.30433-10.8457 9.39862-24.33226 20.98242-35.91602 11.58381-11.58376 25.07023-18.67808 35.91602-20.98242s17.48992-.23467 21.16992 3.44531a18 18 0 0 0 25.45508 0 18 18 0 0 0 0-25.45508c-10.70265-10.7026-25.08404-15.05262-39.63282-14.85351zm127.60157 81.28125c-6.65585.10188-13.39736.89752-20.06641 2.31445-26.6762 5.66775-53.75387 20.85935-76.88086 43.98633-23.12699 23.12699-38.31663 50.20466-43.98437 76.88086-5.66775 26.6762-1.39706 54.51311 17.46875 73.37891a18 18 0 0 0 25.45507 0 18 18 0 0 0 0-25.45508c-8.27561-8.27561-11.64026-21.94931-7.71093-40.44336s15.56749-40.24718 34.22656-58.90625 40.41415-30.29723 58.9082-34.22656 32.1658-.56468 40.44141 7.71093a18 18 0 0 0 25.45508 0 18 18 0 0 0 0-25.45703c-14.14935-14.14935-33.34495-20.08885-53.3125-19.7832z" fill="#861313" fill-rule="evenodd" opacity=".768939" stroke-linecap="round" stroke-linejoin="round"/></svg>