<svg height="500" viewBox="0 0 500 500" width="500" xmlns="http://www.w3.org/2000/svg" xmlns:xlink="http://www.w3.org/1999/xlink"><filter id="a" color-interpolation-filters="sRGB" height="1.063992" width="1.086026" x="-.043013" y="-.031996"><feGaussianBlur stdDeviation="5.7032048"/></filter><filter id="b" color-interpolation-filters="sRGB" height="1.091961" width="1.098723" x="-.049362" y="-.045981"><feGaussianBlur stdDeviation="3.1284488"/></filter><filter id="c" color-interpolation-filters="sRGB" height="1.131491" width="1.102731" x="-.051366" y="-.065746"><feGaussianBlur stdDeviation="3.1284488"/></filter><filter id="d" color-interpolation-filters="sRGB" height="1.083846" width="1.112275" x="-.056138" y="-.041923"><feGaussianBlur stdDeviation="7.5424883"/></filter><g transform="translate(.000015)"><circle cx="-249.99998" cy="250" fill="#e51a1a" r="250" transform="scale(-1 1)"/><path d="m181.33938 83.856939c97.52275-31.84694 203.27597 26.159281 217.12696 131.568651 10.04116 85.89723-45.79566 162.6049-131.11288 174.6444-76.26503 6.65-147.16573-45.4981-149.44603-126.3231.16679-50.89801 30.03241-87.97493 76.60677-108.40662 44.00125-16.48183 90.46555-3.00917 112.28155 39.63622 17.95322 40.0953 3.57775 87.31302-40.4313 103.80676-21.98685 8.23292-51.6578-5.55285-56.72562-31.5612 24.48155 21.7253 69.7211 11.74379 80.1808-21.06198 5.24648-24.88185-11.48198-41.52298-24.36368-55.64156-23.21161-15.22125-63.26956-13.16738-85.32502 12.05139-41.51846 46.43224-18.48961 112.52397 35.72777 131.08081 60.66482 17.11352 118.96473-29.63961 126.96137-92.39988 2.7637-54.83226-40.99398-106.19486-96.51046-114.27807-76.21988-10.3001-138.45939 50.84936-147.743191 124.09106-9.31956 73.21828 47.315731 138.67973 111.863041 158.33924 49.05305 9.49897 98.18701 2.07129 139.64056-27.40671 82.90715-58.95602 100.11901-177.97214 43.55644-260.39974-52.71171-79.885311-158.575-103.987181-249.15842-67.061741-86.705021 39.45169-149.0660905 134.549061-117.102931 229.167621 15.77888-74.65377 50.93986-153.5943 123.407351-187.514491 9.28724-4.60517 19.44718-8.7232 30.56692-12.33106zm-160.722321 286.075591c-52.57825-113.8254-.38403-260.89182 113.777041-317.643861 10.84604-5.32012 22.21219-9.7712 34.03518-13.36069 115.76394-28.75816 246.03978 34.00351 263.68455 158.897471 10.04526 85.91695-27.72044 168.80365-107.97396 206.83173-102.24035 46.26108-224.798841-11.43986-234.690511-131.24969-7.33455-123.78718 127.307171-194.136761 222.718561-137.24102-42.54074-27.89653-94.21826-33.44528-140.80825-12.98978-71.17376 32.62266-105.080851 118.0397-80.762351 190.63139 30.697281 88.13423 123.572931 132.04164 212.817841 105.59803 82.80488-25.06359 132.16266-100.33164 140.19255-180.04986 12.12434-145.020371-132.23823-245.3588802-265.59709-221.973611 7.92036-4.10499 20.5989-8.4277792 35.61563-11.7452592 60.06317-13.23825 124.63426-3.45807 179.45368 32.4903392 109.65077 71.904621 141.09454 217.803071 65.16008 333.599141-143.00482 218.07486-377.311781 117.06797-437.622951-1.79433" fill="#b21a1a"/></g><path d="m396.17298 64.202063c-6.70425-26.093967-16.16624-48.305306-29.51933-64.202063l-46.94398-49.99999h-69.70965l79.24367 49.99999c27.11885 14.218818 48.91609 35.877103 66.92929 64.202063z" fill="#ff8066" filter="url(#c)" opacity=".75"/><path d="m163.63243 0c38.7372 27.395381 69.79174 69.571083 91.54955 113.29233-7.23195-43.333453-20.00006-81.493181-41.31467-113.29233-10.71569-16.666663-21.43138-33.333327-32.14707-49.99999h-78.64561c20.18593 16.666663 40.37187 33.333327 60.5578 49.99999z" fill="#ff8066" filter="url(#b)" opacity=".75"/><g opacity=".75"><path d="m234.21094-50.482422c10.47225 17.292171 20.91408 34.604434 31.41742 51.8767371 8.69148 12.2891429 16.18462 25.3341459 22.5969 38.9409199 4.27792 9.083814 8.13606 18.573132 11.4558 28.090099 6.79247 19.440616 11.64315 39.535286 14.59432 59.981176.91477 6.33641 1.6574 12.7733 2.18946 19.16576-9.92918-28.56789-22.69339-56.247543-39.09257-81.701794-9.27907-14.376018-19.7611-28.006311-31.64375-40.32946-1.57-1.095217-3.1389-2.19202-4.70899-3.28711.66244 2.175029 1.00978 4.462128 1.96485 6.53711 4.57022 8.959199 8.64718 18.149286 12.41178 27.499335 10.50815 26.272964 17.93256 53.728029 22.40601 81.651349 4.24081 26.41586 5.863 53.26425 4.9075 80.05858-.36012 10.24317-1.1168 20.50642-2.24075 30.6986-.21773 1.97296-.44811 3.9411-.70134 5.92221-8.02726-43.33214-20.93599-85.85365-39.49423-125.86175-12.45814-26.79338-27.53644-52.42162-45.51554-75.894106-1.41979-1.159368-2.83746-2.321347-4.25586-3.482422.3859 2.033483.46843 4.138674 1.10357 6.116251 4.85593 11.596998 9.04052 23.566679 12.60932 35.59664 4.59332 15.575757 8.17441 31.539597 10.7011 47.564487 1.9461 12.38331 3.29593 24.83895 4.04028 37.37318.76035 12.69593.88412 25.48286.41292 38.2264-.40736 10.33779-1.2098 20.81881-2.4408 31.10156-.17975 1.5889-.39852 3.17305-.59631 4.75976-7.58238-39.41868-19.43797-78.08098-36.08538-114.63528-3.59415-7.85312-7.37116-15.63408-11.4461-23.24397-1.18417-1.33452-2.36817-2.66918-3.5525-4.00356.0374 2.02301-.21491 4.06515.0656 6.07558 7.55177 31.53991 10.50286 64.0181 9.02229 96.44395-.73384 16.41111-2.59935 32.81391-5.43473 49.05068-2.52702 14.7415-4.93801 29.54082-7.41734 44.30527-1.92876 11.57147-3.85843 23.14279-5.7866 34.71436 30.83082 11.67389 62.35167 21.59214 94.46178 29.09498 22.85152 5.30376 46.04173 9.35566 69.45471 11.07583 17.00471 1.21364 34.17292 1.20161 51.07245-1.23064 20.40438-3.09556 39.68253-11.47432 57.12305-22.31613 8.01319-4.97332 15.67285-10.50038 23.05012-16.37208.8351-6.94733 4.23201-13.23436 7.93791-19.04742 4.92967-7.74145 10.77293-14.99744 14.37473-23.50827 1.55992-3.73296 2.45647-7.7287 2.66014-11.76837 5.04017-53.92218 2.072-108.78993-10.81591-161.46618-9.93294-40.550618-25.77341-79.825752-48.26434-115.0715401-3.30024-5.1988364-6.80185-10.1805053-10.16815-15.3193832-9.95098-14.9663847-19.90291-29.9321347-29.85329-44.8989167-8.26823 0-16.53646 0-24.80469 0 11.62857 17.923729 23.2951 35.823477 34.88464 53.7720157 8.62661 14.1980183 16.23173 28.9416483 22.88801 44.1724963 10.55865 24.174615 18.66525 49.525748 24.27597 75.284528 6.54859 30.0849 9.746 60.76876 9.71203 91.53502-.004 1.19389.002 2.38785-.0165 3.58164-8.71697-50.99877-28.81833-99.90031-57.70166-142.780484-9.74145-14.482901-20.4958-28.282483-32.1167-41.30545-1.52643-1.159434-3.0509-2.321456-4.57617-3.482422.58225 2.229052.83965 4.561814 1.74023 6.695312 3.55902 7.744798 6.83033 15.654005 9.94679 23.610502 10.66945 27.437649 18.80922 55.915602 24.02392 84.868012 5.32768 29.57612 7.60309 59.68019 6.5284 89.77373-.61314 17.20513-2.32203 34.36588-5.13387 51.38643-1.30362-40.17394-6.91011-80.25633-17.42348-119.06986-10.59262-39.22832-26.18809-77.078873-46.09475-112.4956-10.87154-19.400749-23.02871-38.069489-36.15604-56.016487-11.89419-16.509936-23.78995-33.01874-35.68316-49.529383-5.91016 0-11.82032 0-17.73047 0 .30599.505859.61198 1.011719.91797 1.517578z" fill="#6f6" filter="url(#d)" opacity="1"/><path d="m319.38497 162.88403c-14.616-47.38981-39.08743-98.635957-75.03307-135.887702 37.83485 74.673442 48.0283 161.795752 35.62263 240.464512-11.53712-71.15231-38.08836-149.78821-86.73732-213.292606 27.7935 66.607696 34.40385 140.643576 23.29865 208.303856-8.21129-48.64238-23.85922-100.84534-49.38417-149.11778 12.2282 51.00014 12.06951 101.0707 3.22724 149.5591l-12.44041 74.62086c43.95035 16.66014 139.38942 47.75818 209.95899 38.61113 29.62732-3.84022 57.20713-19.15083 81.10163-38.1478 2.65845-18.61421 22.88709-33.30658 24.61785-51.01345 11.43314-116.96891-16.63107-217.12704-64.71064-286.98415l-33.24578-49.99999h-20.05145l32.46431 49.99999c37.64517 61.521296 62.60111 144.8051 56.77949 239.76123-7.65635-74.96077-40.1879-147.619183-92.43218-206.103851 36.3156 79.900691 53.11377 174.409871 32.27803 271.010141.05352-111.56463-31.0799-212.080411-98.67821-304.66752l-36.02054-49.99999h-13.1603l30.25403 50.00045948c33.07333 46.53862652 50.31939 106.70500052 52.29122 162.88356052z" fill="#ff8066" filter="url(#a)" opacity="1"/></g><path d="m100.79102 246.10156 3.2207 27.59375c1.25692 10.77077 1.13854 21.51682-.01 32.09961l-94.4997669-30.05469v64.48829l75.0429689 23.74609c-4.39092 7.31834-9.386392 14.31851-15.103516 20.82617l-18.240234 20.76172 98.099608 30.84375-3.38476-27.73047c-.53098-4.35164-.78556-8.68751-.9375-13.01172l152.26757 57.27344.46485.14648c48.13516 15.19557 88.518 9.57429 117.14062-9.09961 28.62262-18.67389 44.57573-48.88544 48.88672-79.07031l.0195-.14258.0195-.14453c1.02686-8.12414 2.05321-16.24892 3.08008-24.37304l6.75977-53.48047-37.53711 38.68945c-30.4089 31.34354-76.55363 38.31962-128.25196 33.07227-50.36228-5.11175-103.63538-21.932-145.33203-35.38672 5.06157-8.99606 11.09886-17.54259 18.05274-25.44922l18.25781-20.75977z" fill="#861313"/><path d="m153.47345 339.16895c-4.79109 11.86911-7.93111 25.47425-9.1674 37.0116l158.823 59.7375c88.65 27.9855 135.45-22.158 142.7895-73.548 1.02686-8.12415 2.05372-16.2483 3.08059-24.37245-71.54119 73.74005-211.25107 28.39251-295.52569 1.17135zm-35.2404-9.9594-90.73081-28.8558v26.6904l82.74421 26.1846c-6.64201 15.696-15.80671 30.3903-27.28171 43.452l45.08461 14.175c-2.7342-22.4082-1.0224-44.8965 5.6538-66.3462 6.7014-21.528 18.2007-41.4972 33.3288-58.698l-45.14175-14.202c2.27385 19.485.96165 38.979-3.65715 57.6z" fill="#ff8066" stroke-width="36"/></svg>