<svg height="500" viewBox="0 0 500 500" width="500" xmlns="http://www.w3.org/2000/svg"><g transform="translate(.000015)"><circle cx="-249.99998" cy="250" fill="#e51a1a" r="250" transform="scale(-1 1)"/><path d="m181.33938 83.856939c97.52275-31.84694 203.27597 26.159281 217.12696 131.568651 10.04116 85.89723-45.79566 162.6049-131.11288 174.6444-76.26503 6.65-147.16573-45.4981-149.44603-126.3231.16679-50.89801 30.03241-87.97493 76.60677-108.40662 44.00125-16.48183 90.46555-3.00917 112.28155 39.63622 17.95322 40.0953 3.57775 87.31302-40.4313 103.80676-21.98685 8.23292-51.6578-5.55285-56.72562-31.5612 24.48155 21.7253 69.7211 11.74379 80.1808-21.06198 5.24648-24.88185-11.48198-41.52298-24.36368-55.64156-23.21161-15.22125-63.26956-13.16738-85.32502 12.05139-41.51846 46.43224-18.48961 112.52397 35.72777 131.08081 60.66482 17.11352 118.96473-29.63961 126.96137-92.39988 2.7637-54.83226-40.99398-106.19486-96.51046-114.27807-76.21988-10.3001-138.45939 50.84936-147.743191 124.09106-9.31956 73.21828 47.315731 138.67973 111.863041 158.33924 49.05305 9.49897 98.18701 2.07129 139.64056-27.40671 82.90715-58.95602 100.11901-177.97214 43.55644-260.39974-52.71171-79.885311-158.575-103.987181-249.15842-67.061741-86.705021 39.45169-149.0660905 134.549061-117.102931 229.167621 15.77888-74.65377 50.93986-153.5943 123.407351-187.514491 9.28724-4.60517 19.44718-8.7232 30.56692-12.33106zm-160.722321 286.075591c-52.57825-113.8254-.38403-260.89182 113.777041-317.643861 10.84604-5.32012 22.21219-9.7712 34.03518-13.36069 115.76394-28.75816 246.03978 34.00351 263.68455 158.897471 10.04526 85.91695-27.72044 168.80365-107.97396 206.83173-102.24035 46.26108-224.798841-11.43986-234.690511-131.24969-7.33455-123.78718 127.307171-194.136761 222.718561-137.24102-42.54074-27.89653-94.21826-33.44528-140.80825-12.98978-71.17376 32.62266-105.080851 118.0397-80.762351 190.63139 30.697281 88.13423 123.572931 132.04164 212.817841 105.59803 82.80488-25.06359 132.16266-100.33164 140.19255-180.04986 12.12434-145.020371-132.23823-245.3588802-265.59709-221.973611 7.92036-4.10499 20.5989-8.4277792 35.61563-11.7452592 60.06317-13.23825 124.63426-3.45807 179.45368 32.4903392 109.65077 71.904621 141.09454 217.803071 65.16008 333.599141-143.00482 218.07486-377.311781 117.06797-437.622951-1.79433" fill="#b21a1a"/></g><path d="m415.21094 0-11.17578 77.121094-171.58008-4.650391 39.0332 43.109377-165.60742 109.55859 50.21875 9.78321-100.367188 131.13281 51.962888-8.66797c-9.57837 56.00618-13.923708 92.03447 7.7793 142.33203h.24023c35.17173-76.25067 49.89419-164.15586 93.02344-227.52539 35.00635-50.47212 76.73327-85.90268 115.63477-101.2207 38.9015-15.31803 72.55273-12.3107 100.19336 12.18164 27.64061 24.49233 50.30137 74.36156 55.18164 157.37304l.72265 5.68946c12.47949-29.6595 19.44283-62.16295 19.5293-96.2168-.006-3.82587-.0997-7.6511-.28125-11.47266.39303-28.11872-4.17724-55.83956-13.38281-81.94726l-3.56446-23.3418-65.29882-133.23828z" fill="#861313"/><path d="m425.18945 56.648438-5.63672 38.90039-145.49023-3.943359 24.83203 27.425781-146.39648 96.85156 35.54101 6.92383-90.310544 117.99414 31.408204-5.23828c-6.85883 41.92345-11.14701 83.66467-13.48242 125.27148 47.53315-298.59771 336.5154-450.59842 379.89258-164.48437 2.86359-15.03437 4.41293-30.52146 4.45312-46.34961-.006-3.82587-.0997-7.6511-.28125-11.47266.39303-28.11872-4.17724-55.83956-13.38281-81.94726l-.05078-.33594-7.95313 8.83789z" fill="#ff8066" stroke-width="36"/></svg>