<svg height="500" viewBox="0 0 500 500" width="500" xmlns="http://www.w3.org/2000/svg" xmlns:xlink="http://www.w3.org/1999/xlink"><radialGradient id="a" cx="1362.7291" cy="216.11429" gradientTransform="matrix(1.0000001 -.0000059 .0000001 1.0000003 -112.72927 33.893757)" gradientUnits="userSpaceOnUse" r="250"><stop offset="0" stop-color="#ff851a"/><stop offset=".42441937" stop-color="#f87000"/><stop offset=".86367416" stop-color="#f26900"/><stop offset="1" stop-color="#e55f00"/></radialGradient><filter id="b" color-interpolation-filters="sRGB" height="1.109428" width="1.148299" x="-.074149" y="-.054714"><feGaussianBlur stdDeviation="2.1851728"/></filter><filter id="c" color-interpolation-filters="sRGB" height="1.099461" width="1.155339" x="-.077669" y="-.04973"><feGaussianBlur stdDeviation="2.1851728"/></filter><filter id="d" color-interpolation-filters="sRGB" height="1.082872" width="1.117577" x="-.058788" y="-.041436"><feGaussianBlur stdDeviation="2.1851728"/></filter><filter id="e" color-interpolation-filters="sRGB" height="1.184724" width="1.092307" x="-.046154" y="-.092362"><feGaussianBlur stdDeviation="2.1851728"/></filter><g transform="translate(-1000)"><path d="m1500 250a250 250 0 0 1 -250 250 250 250 0 0 1 -250-250 250 250 0 0 1 250-250 250 250 0 0 1 250 250z" fill="url(#a)" stroke-linecap="round" stroke-linejoin="round" stroke-width="1.002"/><path d="m1309.2298 33.82789c128.5196 30.706851 207.8974 167.48127 169.5927 291.56949-31.3771 95.69524-112.8693 162.03793-212.5543 174.60263 153.1796-8.09118 266.0956-163.0043 218.7012-309.92978-36.4562-114.666588-154.6038-191.5214848-270.6514-169.822657-18.8526 4.215647-38.4387 10.498641-55.8829 18.694487-112.5353 47.459213-168.47522 196.206-99.9632 307.85319 57.6978 93.63045 168.5136 141.8489 267.9993 100.77239-134.92 68.97589-303.283-51.46877-311.488-201.30723-4.4167-117.68321 76.8182-219.674136 190.654-246.26040176-89.0147 9.18391126-152.6601 79.39239576-187.7408 157.21169176-38.45522 102.70317 5.2337 231.75078 109.038 294.08388 114.5107 66.1048 260.3537 29.37245 323.6836-83.60152 42.2104-77.69758 34.3514-177.62383-23.1776-249.88923-57.5404-72.257811-157.5429-102.460489-246.4118-71.877168-81.7429 30.682061-131.1298 101.133078-134.0478 190.176958.6692 92.68536 61.7912 168.55972 147.5399 198.52472 128.5549 37.82014 266.7725-70.33038 233.6823-209.88949-14.7104-64.39775-57.8855-122.14991-125.7378-141.121386-71.391-15.467036-138.9716 1.205-181.2869 64.641366-18.8995 29.2286-28.9384 85.21395-26.105 97.65297m0 0c13.5324-50.18833 30.6277-97.66354 72.2125-128.94941 53.182-38.308183 124.4576-37.093813 181.7444-.48035 50.1457 36.48017 75.4845 90.37713 72.3557 150.91678-6.6674 64.04407-38.4038 109.83277-91.6401 141.00844-63.9019 34.56125-135.3795 4.83213-189.1258-35.28385-78.8706-65.48566-79.7477-186.67235-8.9744-256.76104 63.7369-55.941605 167.0207-64.891564 238.7167-6.65053 78.8163 58.35315 90.3045 169.04089 40.972 246.62443-35.2274 56.41892-88.4571 87.60135-152.5581 93.63158-81.9488 2.18264-160.666-41.91503-196.8695-120.9383-36.2055-79.02511-22.5771-164.33167 26.8727-227.66064 49.4316-63.30896 138.3491-86.746364 220.4504-67.54202" fill="#c50"/></g><path d="m284.57031 285.70353 6.65039-136.80119-24.35547-10.35156c-2.83496-1.20479-5.78695-2.42878-8.9082-3.6543l-4.28516-1.68164-81.10937 10.32032-67.19141-18.52344-37.562496 66.28906-5.376953 32.27149 6.49414 125.58789 119.380859-44.00977z" fill="#994100"/><path d="m259.82575 155.11742c-2.73419-1.16197-5.52844-2.32001-8.44774-3.46623l-78.35327 9.97132-3.47362-.24618-55.43754-15.28292-29.073313 51.30808-4.53205 27.19809 5.130516 99.21441 88.107707-32.48063 91.75254-23.56816z" fill="#ffa348" stroke-width="36"/><path d="m192.96259 229.37746-1.05745-32.82677-39.53109-.51403-29.27368-23.41674 33.53497 10.72167 41.83501-7.60896 25.63269 15.63742 12.62683 12.44225-25.21474 25.58879z" fill="#c50" filter="url(#e)"/><path d="m301.58203 112.35352-105.96094 107.5332-29.90039 96.40234 23.13086 48.4336 28.38086 12.91211 152.73438 22.49804 90.39824-1.42018 18.56465-43.38451-2.5918-14.31835-9.47461-52.375-32.05859-109.92969z" fill="#994100"/><path d="m458.62627 344.21405-9.30729-51.44594-29.58874-101.46206-114.48902-57.02145-93.72609 95.11649-26.51487 85.48885 17.26962 36.16203 20.10227 9.14514 145.32376 21.40692z" fill="#ffa348" stroke-width="36"/><path d="m359.60163 181.95904 46.3326 65.01151 2.07452 61.55512-24.89326-58.78608-64.31506-59.48129z" fill="#c50" filter="url(#d)"/><path d="m326.96363 328.84152 19.94769-12.79945 4.40109-43.03246 11.24396 52.81471-10.45826 13.94567-5.70022 38.69673-51.36386-7.56615z" fill="#c50" filter="url(#c)"/><path d="m116.44531 212.63281-93.689451 30.45117-2.162109 10.16211-20.59179687 96.81446 88.15624987 9.68945 18.789097-24.60648 21.50973-31.89352z" fill="#994100"/><path d="m38.199619 256.9911-16.452414 77.35207 50.011012 5.49673 13.666316-20.16813 24.001937-23.00908-7.98302-60.22722z" fill="#ffa348" stroke-width="36"/><path d="m49.758613 378.86602-8.53791 20.12226-10.166016 33.05078 18.427735 67.96094 120.119138-15.7168 2.62891-52.64062-74.234376-37.95899-30.75-6.01757z" fill="#994100"/><path d="m58.424964 404.28027-8.63481 28.07449 12.949261 47.75716 89.633665-11.72807 1.29965-26.01445-61.617293-31.50625-33.629488-6.5819z" fill="#ffa348" stroke-width="36"/><path d="m429.83984 307.03516-65.67578 78.35156 1.31446 8.12695 2.25 13.9082 82.96875 17.68946 49.30078-28.54883z" fill="#994100"/><path d="m383.24841 390.63986.28258 1.7469 64.14275 13.67487 25.3826-14.69799-43.68652-55.74723z" fill="#ffa348" stroke-width="36"/><path d="m166.66992 275.87305-54.87695 18.09765-2.97852 2.90235-42.3457 41.27539 36.66016 50.10351 72.89453 2.21289 30.91601-30.2832z" fill="#994100"/><path d="m121.37933 309.76248-31.156213 30.3689 22.239813 30.39549 56.44232 1.71342 16.24565-15.91315-27.89329-58.39662z" fill="#ffa348" stroke-width="36"/><path d="m258.93555 298.95508-54.33985 90.21094-.002 4.99609-.041 72.1582 116.47852 14.63086 61.32422-27.07226-22.04688-110.83789z" fill="#994100"/><path d="m222.59368 394.17305-.0325 56.26716 95.76467 12.02939 43.56001-19.2297-17.39368-87.44943-78.2745-34.03947z" fill="#ffa348" stroke-width="36"/><path d="m293.12049 351.26467 38.62526 22.49308 13.20329 49.88417-26.40657 23.47386-44.32109-2.51401 37.96756-27.81058 2.44473-38.63074-21.51318-26.89479z" fill="#c50" filter="url(#b)"/></svg>