<svg height="500" viewBox="0 0 500 500" width="500" xmlns="http://www.w3.org/2000/svg" xmlns:xlink="http://www.w3.org/1999/xlink"><radialGradient id="a" cx="1362.7291" cy="216.11429" gradientTransform="matrix(1.0000001 -.0000059 .0000001 1.0000003 -112.72927 33.893757)" gradientUnits="userSpaceOnUse" r="250"><stop offset="0" stop-color="#ff851a"/><stop offset=".42441937" stop-color="#f87000"/><stop offset=".86367416" stop-color="#f26900"/><stop offset="1" stop-color="#e55f00"/></radialGradient><g transform="translate(-1000)"><path d="m1500 250a250 250 0 0 1 -250 250 250 250 0 0 1 -250-250 250 250 0 0 1 250-250 250 250 0 0 1 250 250z" fill="url(#a)" stroke-linecap="round" stroke-linejoin="round" stroke-width="1.002"/><path d="m1309.2298 33.82789c128.5196 30.706851 207.8974 167.48127 169.5927 291.56949-31.3771 95.69524-112.8693 162.03793-212.5543 174.60263 153.1796-8.09118 266.0956-163.0043 218.7012-309.92978-36.4562-114.666588-154.6038-191.5214848-270.6514-169.822657-18.8526 4.215647-38.4387 10.498641-55.8829 18.694487-112.5353 47.459213-168.47522 196.206-99.9632 307.85319 57.6978 93.63045 168.5136 141.8489 267.9993 100.77239-134.92 68.97589-303.283-51.46877-311.488-201.30723-4.4167-117.68321 76.8182-219.674136 190.654-246.26040176-89.0147 9.18391126-152.6601 79.39239576-187.7408 157.21169176-38.45522 102.70317 5.2337 231.75078 109.038 294.08388 114.5107 66.1048 260.3537 29.37245 323.6836-83.60152 42.2104-77.69758 34.3514-177.62383-23.1776-249.88923-57.5404-72.257811-157.5429-102.460489-246.4118-71.877168-81.7429 30.682061-131.1298 101.133078-134.0478 190.176958.6692 92.68536 61.7912 168.55972 147.5399 198.52472 128.5549 37.82014 266.7725-70.33038 233.6823-209.88949-14.7104-64.39775-57.8855-122.14991-125.7378-141.121386-71.391-15.467036-138.9716 1.205-181.2869 64.641366-18.8995 29.2286-28.9384 85.21395-26.105 97.65297m0 0c13.5324-50.18833 30.6277-97.66354 72.2125-128.94941 53.182-38.308183 124.4576-37.093813 181.7444-.48035 50.1457 36.48017 75.4845 90.37713 72.3557 150.91678-6.6674 64.04407-38.4038 109.83277-91.6401 141.00844-63.9019 34.56125-135.3795 4.83213-189.1258-35.28385-78.8706-65.48566-79.7477-186.67235-8.9744-256.76104 63.7369-55.941605 167.0207-64.891564 238.7167-6.65053 78.8163 58.35315 90.3045 169.04089 40.972 246.62443-35.2274 56.41892-88.4571 87.60135-152.5581 93.63158-81.9488 2.18264-160.666-41.91503-196.8695-120.9383-36.2055-79.02511-22.5771-164.33167 26.8727-227.66064 49.4316-63.30896 138.3491-86.746364 220.4504-67.54202" fill="#c50"/></g><g transform="translate(7.166851)"><path d="m430.4451 191.04336c19.46052-4.18506 35.51021-12.42699 46.63672-24.7793 11.4146-12.57193 16.21132-28.48092 15.7168-43.26172-.69758-22.20807-12.43-41.576766-28.43916-54.24734-63.43227-19.424567-141.82247-22.395987-206.54305-15.957149-8.84211 1.478758-18.70088 2.883328-26.96875 4.629883l-.01.002-.0117.002c-13.12556 2.798199-23.2682 11.844863-29.40234 20.86914-6.48667 9.542865-10.0124 19.636353-12.98438 28.087886l-.004.008-.002.008c-8.24266 23.51032-14.72939 48.11349-17.36914 60.83984l-19.39062 134.72461c-1.93794 20.48608-3.47672 58.01146-4.47071 87.81836-.50891 13.61393 2.93846 26.69362 8.67188 38.04101l.0332.0664.0352.0664c3.06411 5.94061 6.66823 10.76589 10.5 14.63281 3.80999 3.84495 6.18811 7.24548 15.13281 9.17578 19.67369 3.51436 31.28018 4.45048 50.51758 6.40625l1.47266-4.63086 2.22851 4.86524 10.63477.76367c42.32648 2.59145 86.26928 3.45566 125.92773-2.40625 27.94216-4.34608 54.30465-14.25886 78.49219-27.51367 14.99989-13.1082 24.11124-30.7342 23.97656-47.64258s-7.46139-32.11221-21.2207-41.1875l-.0937-.0625-.0937-.0606c-9.34834-5.99968-20.5066-8.71212-33.07813-8.55859-11.04108.38846-23.68593 2.86379-34.83169 5.15039 3.03685-48.64267 6.71638-94.30205 13.47895-141.68031 10.818.71463 20.98785-1.91776 31.45821-4.1693z" fill="#994100"/><g fill="#ffa348" stroke-width="36"><path d="m171.49 283.63c-3.78 39.96-5.31 77.13-6.3 106.83-.36 9.63 2.43 20.7 6.75 29.25 4.41 8.55 10.53 13.86 13.5 14.49 4.68 1.08 17.1 2.88 33.93 4.59l11.16-35.1 17.19 37.53c15.03 1.08 31.5 1.8 48.15 1.98 25.38.27 51.39-.81 73.8-4.23 14.22-2.07 26.64-5.4 36.63-9.36-10.62-4.59-19.44-9.54-26.19-14.94-9.99-8.01-16.38-17.37-15.57-27.81v.18c4.86-86.76 9.72-169.92 27.27-257.4l.09-.36.09-.36c4.77-16.11 16.11-35.874 32.49-50.247-12.51-1.854-25.74-3.6-39.33-5.094l-20.07 22.77-1.98-24.93c-17.1-1.476-34.56-2.439-51.66-2.628h-5.13v-.036c-15.84 0-31.14.63-45.63 2.187l-14.94 38.808-4.41-36.036c-2.25.414-4.5.846-6.75 1.323-8.19 1.746-13.59 6.498-18.27 13.383s-8.01 15.75-10.89 23.94c-7.92 22.59-14.22 46.44-19.26 70.74z"/><path d="m421.55576 349.69c-.63 0-1.17.09-1.8.09-3.15.09-6.48.45-9.99 1.17l3.06 15.84c10.98-2.07 18-.36 22.05 2.25 3.96 2.61 5.67 6.12 5.76 11.25.09 8.37-6.3 20.7-20.97 29.25 4.86 2.61 10.71 5.31 17.37 7.83 12.96-10.44 19.89-24.12 19.8-37.26-.09-9.63-4.68-19.08-13.14-24.66-6.03-3.87-13.5-5.85-22.14-5.76z"/><path d="m450.9596 79.385168c-4.23 3.321-8.28 7.227-11.97 11.457 10.89 7.362 19.26 21.042002 19.62 33.282002.27 7.02-1.71 13.41-6.93 19.26-5.22 5.76-14.04 11.16-28.44 14.22l3.42 15.84c16.74-3.6 29.07-10.35 37.08-19.26 8.1-8.91 11.43-19.98 11.07-30.6-.54-17.37-9.99-33.831002-23.85-44.199002z"/></g><path d="m307.12 137.11 29.88 12.42 28.17-8.91 4.86 15.48-33.75 10.71-30.24-12.6-25.92 7.29-4.32-15.66zm-104.85 59.85 27.63-15.84 30.42 23.49 46.71-17.73 54.9 22.05-6.12 15.03-48.96-19.62-49.23 18.63-28.98-22.41-13.41 7.65m63.9 58.41 29.7 14.22 24.84-10.53 14.22 13.59 11.16-11.7-21.78-20.97-28.08 11.79-30.51-14.49-12.6 5.76-38.97 15.03 14.452 10.55225zm-50.94055 49.77062-44.27929 15.29883 5.2207 15.30078 38.1582-13.14062 34.29102 16.01953 43.12996-2.87891 11.59074 7.65039 25.33984-16.86718-12.65429-14.41016-15.11328 8.43555-26.46289 1.6914-22.23047.17969z" fill="#c50"/></g><path d="m0 64.257812c.1263891 9.719322 2.2849221 20.348357 6.0859375 32.351563l.00586.01563.00586.01758c3.4088742 10.696455 8.1177445 22.076315 13.9277335 33.830075l9.361327 17.55664c3.944521 6.86003 8.219854 13.71547 12.816406 20.48632l10.744141 14.98633c6.198073 8.06794 12.840276 15.98566 19.84375 23.42383l14.564453 14.08984c7.797502 7.01776 16.017242 13.4821 24.708982 19.00391l18.48048 10.00781c21.12716 9.62227 44.62479 13.02133 67.60938 6.40625l91.20703 71.29104-19.15235-74.00977-3.48242-3.47461c-44.05279-43.93211-99.27826-91.60489-154.12305-137.20509l-3.17774-15.468754-3.59765 9.804684c-25.986243-21.531868-51.789359-42.668141-76.160161-62.396481l-24.4843753-19.820312-5.1835937 31.15625z" fill="#994100"/><path d="m18.342 58.965125c-.216 1.449-.342 3.087-.342 5.058.09 6.921 1.827 16.353 5.247 27.153 3.069 9.629995 7.443 20.249995 12.915 31.319995 9.567-4.77 18.531-9.9 25.569-16.29-3.978 11.25-9.135 22.23-16.74 32.85 3.726 6.48 7.767 12.96 12.105 19.35 9.576-4.77 18.648-11.7 26.568-23.49-2.97 14.4-7.623 27.54-16.443 37.62 5.877 7.65 12.15 15.12 18.675 22.05 7.83-8.37 14.04-18.9 18.63-31.41 3.42 16.65 2.34 31.77-5.13 44.46 7.2 6.48 14.67 12.33 22.32 17.19 5.49-12.6 8.01-27.54 7.65-44.73 8.28 21.33001 10.17 38.61 8.64 53.55 18.18 8.28 36.72 10.8 55.17 5.49l3.78-1.17 62.37 45.54-5.31-20.51999c-65.7-65.52001-157.86-141.03001-235.674-204.021005z" fill="#ffa348" stroke-width="36"/></svg>