<svg height="500" viewBox="0 0 500.00009 500" width="500.00009" xmlns="http://www.w3.org/2000/svg" xmlns:xlink="http://www.w3.org/1999/xlink"><radialGradient id="a" cx="1249.9998" cy="1250.0005" gradientTransform="matrix(0 -1 1 0 -.0005 2499.9997)" gradientUnits="userSpaceOnUse" r="250"><stop offset="0" stop-color="#393"/><stop offset=".7379747" stop-color="#393" stop-opacity=".9"/><stop offset="1" stop-color="#393" stop-opacity=".1"/></radialGradient><filter id="b" color-interpolation-filters="sRGB" height="1.162008" width="1.07" x="-.035" y="-.081004"><feGaussianBlur stdDeviation="8.880375"/></filter><filter id="c" color-interpolation-filters="sRGB" height="1.157233" width="1.069093" x="-.034546" y="-.078617"><feGaussianBlur stdDeviation="8.880375"/></filter><g transform="translate(-1000 -1000)"><circle cx="1250" cy="1250" fill="#2ad52a" r="250"/><path d="m1258.9184 1271.0417c17.1144 30.6662 44.2259 53.4982 76.3129 67.0503 47.0888 19.252 101.3032 18.539 148.3503-.7179 3.5837-7.846 5.7089-15.6928 7.8759-23.5354-44.255 22.8273-95.5943 29.9536-144.8083 16.402-20.669-5.7007-39.2545-15.6936-56.3481-29.2453-11.4138-9.2678-21.4025-19.2524-29.245-31.383.7122 0 1.4251-.7126 1.4251-.7126 21.3984 24.9615 47.7889 42.0844 79.1674 50.6396 47.0888 12.1307 94.8859 6.4216 137.6825-16.402 1.4168-.7125 2.8336-.7125 4.2505-1.4293 4.2922-2.8504 7.8759-4.9882 12.1264-7.1343 1.4168-8.551 2.1668-16.4062 3.5837-24.9614-2.8753 1.4294-5.0006 3.5671-7.8342 5.7091-2.8753 1.4251-5.0006 2.8461-7.8759 4.9881-54.1729 34.9543-120.5139 44.2305-178.3122 16.4103-2.1251-1.4293-4.2921-2.8586-6.4173-3.5712-.7087-.7126-2.1252-1.421-2.8336-2.1336-1.4585-.7209-2.167-.7209-3.5797-1.4294-10.697-7.1342-19.2605-12.8391-27.8198-22.111 0 0 .717-1.4335 1.4252-1.4335 2.1461.7125 3.5712 3.5712 4.9964 5.0006 38.5211 29.9537 85.6097 37.8046 132.6569 27.8159 10.0011-2.1378 18.5438-4.2839 27.8364-7.8426 16.4187-7.1342 31.3787-13.5559 46.3387-24.2614 5.0005-4.2713 10.0012-7.1258 15.0017-10.6888 2.1253-2.1461 4.2505-4.2797 7.1258-6.4258-.7087-8.5594-.7087-16.3978-1.4168-24.9614-2.1669 2.1378-4.2922 4.9923-6.4174 7.1301-5.0006 4.2838-9.2928 7.8509-13.5849 12.1265-5.6674 4.9922-12.0847 8.5593-17.7937 13.5516-5.0005 3.5671-10.0012 5.7091-15.0017 8.5552-55.6313 33.5292-123.3892 37.0963-178.308-1.421 0 0 .7123-.7167.7123-1.4251 77.0421 44.9388 176.8869 9.2719 227.5177-58.4906-2.1252-7.8468-4.2504-16.4103-5.709-24.2488-28.5033 44.9347-72.0083 79.8848-126.9312 91.2946-32.1286 5.709-64.2156 3.5713-93.4523-10.6972 0-.7126.7122-1.4251.7122-1.4251 30.6494 10.7013 62.7781 11.4139 94.1567 2.8545 17.8355-4.9965 33.5039-12.8433 49.9224-22.8237 8.5844-5.7048 15.0017-11.4139 22.836-17.8313 12.1264-11.4098 22.0858-22.1153 32.087-36.3795 5.0005-7.8468 10.0011-14.981 14.2516-23.5446-3.5421-7.8385-5.709-15.6853-9.9594-22.8153-4.2922 11.4056-10.0012 22.1069-16.4186 32.8082-7.1259 11.4139-14.2517 21.3985-23.5444 31.3789-14.2516 14.9851-29.2533 27.8201-47.7971 37.8046-35.6291 19.2607-76.3004 26.395-114.8215 16.4062 0-.7084.717-2.1377.717-2.1377 33.5121 6.4174 66.3492 0 96.2694-14.981 30.6701-15.6895 54.9646-39.2299 73.4667-69.1836 10.0012-16.4062 17.127-32.0956 22.8359-49.2186-5.0005-7.1342-8.5426-14.26-14.2516-20.6817-3.5838 17.8314-9.2927 34.2334-17.8354 50.6354-.7088 1.4377-.7088 2.8587-1.4168 4.2839-15.7101 29.2453-35.6708 52.7773-64.2158 72.0422-6.4172 4.2797-13.5431 7.1301-19.9605 11.4139-6.4175 3.563-13.5433 4.9965-20.6691 7.1301-17.127 5.7048-34.9706 9.2761-53.5144 6.4174v-1.421c22.8443-.7125 45.6385-6.4174 66.3493-16.4103 2.1251-1.421 4.2504-2.1336 6.4173-3.5671 14.9602-8.5594 27.0865-18.5398 39.2129-30.6705 3.5837-4.2797 7.1258-7.8426 10.7095-12.1265 1.4169-2.1378 2.8337-4.2797 5.0006-6.4174 20.669-30.6747 33.5039-62.0494 37.796-96.9995-5.709-6.4258-11.418-12.8432-17.8354-17.8314-.7087 42.0761-12.8348 81.3101-38.5044 116.9686-27.1281 36.3753-65.6326 59.9241-109.1458 64.908 0-.7125 0-2.1377 0-2.1377 24.2611-4.9923 45.6385-14.2601 64.9324-29.9537 19.9607-16.4104 34.9207-34.9543 46.3387-57.0612 16.4185-33.525 23.5443-69.9087 21.4191-106.284-6.4591-4.9964-12.8765-9.9804-20.0024-14.2601 2.167 17.8314 2.8754 35.6628 1.4169 54.2109-1.4169 9.9804-2.8336 19.2565-4.9589 29.2369-3.5838 14.981-8.5843 28.5285-15.7101 42.0927-19.9606 37.7922-53.5062 68.471-94.1441 79.8849 0-.7126 0-1.4335 0-1.4335 30.6785-12.8391 55.6396-33.5167 74.1835-62.7661 2.8335-4.2756 5.0005-9.272 7.1258-13.5517 7.8342-13.5516 12.1264-27.0992 14.9601-42.0843 0-1.421 1.4584-2.142 1.4584-3.5672 5.7091-31.3872 5.7091-62.0534-2.1668-92.0113-7.1258-4.2797-14.2517-7.8468-22.086-10.6971 12.1265 34.2417 14.9602 70.6128 8.5427 107.7049-3.5421 15.6936-7.8342 30.6704-14.96 44.9347-4.2923 7.8468-8.5844 14.9769-13.585 22.8237-14.96 20.6817-32.7912 35.6627-54.1895 47.0724-.7122 0-1.4251-2.1336-1.4251-2.1336 12.8347-7.1342 23.5276-16.4103 33.5288-27.1033 16.3768-17.8355 27.0864-39.234 34.2539-62.0618 13.5432-46.3599 7.8342-94.8617-10.7096-138.3713-7.8759-2.1377-15.7101-4.9922-24.2527-6.4174 14.2516 27.1075 24.9611 57.0612 27.0864 88.4484 2.1253 31.3789-2.8337 62.7619-17.127 91.2946-1.4168 2.1419-2.8336 4.2797-3.5421 6.4216-.7087.7168-1.4585 2.1378-2.1668 2.8504-.7088 1.4293-.7088 2.1377-1.4169 3.5671-10.7095 14.981-20.6774 29.2411-36.3708 39.2256 0 0-.7087-.7084-1.421-1.421 12.839-9.2761 21.3941-22.1194 29.2492-35.6669 36.3791-60.6241 27.0865-131.9579-8.5676-190.4401-2.1336-2.8545-3.5672-4.9965-4.9923-7.851-8.5593-.7125-16.406-1.421-24.9653-2.1336 6.4174 8.5552 12.1263 17.1146 18.5437 26.3866 6.4216 10.7013 10.7012 20.6859 15.6935 31.3872 4.9964 12.1223 7.83 23.5362 10.7054 36.3795 9.251 50.6396-2.167 103.4169-37.1001 140.509 0-.7084-.7087-1.421-.7087-1.421 19.2563-25.6824 29.2242-53.4983 31.391-84.1687 3.5421-54.9193-20.694-109.1302-58.4983-148.36-8.5594 0-16.402.7084-24.9612 2.1336 29.9534 25.6823 52.7769 57.7738 64.9032 95.5826.717 2.8545.717 4.9923 2.1461 7.8426.7123 1.4336.7123 2.8546.7123 4.2839.7123 1.4252 1.4209 2.1419 1.4209 3.5671 8.5594 41.3676 4.9964 81.31-19.2563 117.6854 0 0-.7123-.7127-1.4252-.7127 7.8468-14.9768 12.839-30.6704 15.6935-47.785 2.1377-14.9852 2.1377-29.9537 0-44.9389-7.8467-54.2025-40.6588-101.2833-84.168-131.9538-7.8468 2.1378-15.6935 4.2797-23.5361 7.1301 52.0685 29.2411 92.0106 80.6057 99.8574 141.2299 2.8503 25.6781.7123 51.3605-9.9846 74.8925-.7122 0-1.4293-.7125-1.4293-.7125 0-2.1419 1.4293-4.2797 2.142-6.4216 7.1341-27.8159 6.4174-56.3445-2.142-83.4478-6.4132-19.2566-14.2682-36.3837-26.3946-52.7857-2.1378-2.1336-3.5588-4.2797-4.9881-6.4174-21.3983-25.6824-46.3595-44.9347-75.6046-59.199-7.8467 2.8503-14.9808 6.4174-22.1066 10.693 7.1258 2.8545 14.2599 4.9923 20.6774 9.272 1.4292.7167 2.8544.7167 4.2796 1.4251 29.9534 14.981 54.2104 34.9502 74.1835 62.7703 26.3863 37.092 37.0876 79.1764 27.8156 123.3985 0 0-1.4293 0-2.1377 0 2.8462-13.5558 1.4211-26.3907 0-39.9507-2.1377-17.8272-7.8508-33.5167-16.4102-49.2061-9.2677-18.544-22.1067-34.9543-37.8043-49.9353-12.8347-11.4056-26.3864-20.6859-41.363-29.2411-1.4336-.7126-2.8545-.7126-4.2839-1.4294-13.5557-7.1259-27.8157-12.1181-42.084-17.1146-7.1299 4.9965-13.5515 9.272-19.9689 14.9727 27.8198 5.0006 53.4936 14.9852 78.4548 29.2536 1.4335.7084 1.4335 2.1378 2.8586 2.8462 48.5014 29.962 81.3093 82.7435 78.4632 139.088h-1.4335c-2.1378-42.797-23.536-81.3101-55.6272-109.8469-2.1419-1.421-4.2839-2.8504-6.4174-4.984-.717-.7167-2.1502-1.4335-3.5754-2.1419-.717-.7168-1.4252-2.1378-2.8462-2.8503-32.1036-22.8279-67.0493-34.9544-104.862-37.8089-7.1258 4.9923-12.1222 12.1265-17.827 17.8356 44.9343-.7126 87.735 10.6971 125.5352 38.5172 34.2373 24.9614 57.0649 60.6241 63.4822 101.2792-.7087 0-2.1418 0-2.1418 0-11.4097-48.4977-45.6469-84.1646-88.4435-105.5631-4.9923-2.1336-9.9844-4.2838-14.9726-5.7048-30.6785-12.1265-63.4906-15.6895-95.586-12.8391-4.2796 7.1342-9.9843 13.5475-13.5515 21.3985 27.8199-6.4175 55.6356-5.7049 84.1638-.7084 1.4336 0 2.1461 1.421 3.5755 1.421 37.0876 7.8468 69.1828 24.9614 93.4356 53.4982.7123.7126 2.1377 1.4252 2.8504 2.1378 11.4138 14.981 21.3982 29.2494 26.3864 47.0766 0 0-.7123.7126-1.4252.7126-22.1109-50.6438-71.3249-84.1646-126.2436-92.7281-14.2684-2.1378-28.5325-2.8504-42.7966-2.1378-16.4102.7125-32.8121 3.5671-49.2223 7.8468-2.842 7.8426-7.1217 14.9769-9.2636 22.8278 54.2062-20.6859 116.9676-22.111 169.036 8.5552 24.257 14.2685 42.8008 32.8166 56.3523 56.3487-.7123 0-2.1418.7125-2.1418.7125-23.532-34.9502-56.3399-54.9193-96.2861-64.1913-46.3636-9.9887-92.7315-2.1419-133.3778 17.8314-1.4293 7.8468-5.0006 15.6894-5.0006 24.2488 12.1264-8.5594 26.3947-14.2642 40.6588-19.9774 16.4061-6.4133 32.8038-9.2637 49.9266-11.4014 53.4979-5.7091 108.4166 13.5475 142.6539 54.9151-.7123 0-1.4252.7167-1.4252.7167-32.8121-32.0997-77.7464-47.7934-122.6766-45.6514-40.6672 2.1377-79.1799 17.8313-111.9836 41.3717-.7168 8.5594-.7168 16.4104-.7168 24.9615 9.9887-9.272 20.6857-17.1146 32.8121-24.2489 1.421-.7125 2.1377-2.1419 3.5629-2.8545 54.2104-31.383 121.2556-39.2298 176.8912-6.4174 4.2796 2.8503 7.8467 5.7048 12.1263 7.8426 2.8545 1.4293 4.9881 4.2797 7.8467 6.4258 0 0-.717.7084-.717 1.421-7.8425-5.7049-16.406-9.272-24.9653-14.2684-5.7007-2.1336-11.4096-4.2756-17.1145-6.4175-32.0953-9.9846-65.6241-8.551-98.4321.7127-26.3947 7.8468-49.2181 21.4026-71.3248 38.5172-1.4252.7127-1.4252 2.8587-2.8587 3.5671-6.4174 4.9965-11.4096 9.9887-17.1103 15.6936 0 4.9881.7084 9.9887 2.1336 14.9769v3.5712c.7126 2.1336.7126 3.563 1.4252 5.7091 7.8467-11.4139 17.8353-19.9775 27.8198-29.9621 5.7091-4.9922 11.418-8.5552 17.1145-13.5558 28.5325-20.6775 59.211-32.8124 93.4482-35.6586 30.666-2.1419 62.0488 3.5671 88.4393 19.2524-.717.7168-1.4293 1.4335-1.4293 1.4335-10.6971-5.7048-21.3942-8.5635-33.5205-10.7013-14.9725-3.5671-29.2451-3.5671-44.2218-2.8545-59.9152 4.9923-111.271 43.5095-143.3622 92.0114 2.8461 7.8509 4.988 15.6894 7.8425 23.5358 21.3984-40.6588 54.9188-74.8964 97.007-94.1487 12.8348-5.7091 25.6696-9.2762 39.9379-12.1265h4.2797c24.2569-4.9923 48.5055-1.421 71.329 6.4174 0 .7126-.7123 1.4294-.7123 1.4294-41.3713-9.9846-82.0344-3.563-118.4053 17.1187-25.6737 14.9769-45.651 34.2334-63.4822 59.199-1.4251 2.8545-2.8461 4.9964-4.9922 7.8468-6.4174 10.7005-12.1222 21.4035-17.1228 32.0998 2.1418 3.5663 3.5754 7.8426 5.7131 11.4089 2.8546 2.8554 4.2755 7.143 6.4174 10.698 4.2797-14.9773 10.6971-28.5289 17.8354-42.0752 3.563-6.4225 7.13-12.1315 11.4054-18.5489 19.2606-26.395 40.6631-47.0767 69.1914-60.6284 14.9767-7.1342 29.9576-12.839 46.3678-14.9726 15.6851-2.1461 30.6618-2.1461 46.3553 0v2.1336c-40.6546-3.5671-81.3177 10.6971-113.4088 37.8005-34.954 29.2494-56.3481 69.1914-66.3368 112.701 4.9964 6.417 9.2719 13.5483 15.6976 19.2569 7.8426-84.1646 75.6004-165.4746 163.3354-167.6207v2.1461c-53.4936 5.7049-99.1447 39.9425-124.8227 87.0195-.7123 1.416-.7123 2.8454-1.4293 4.2743-15.6893 27.8159-21.3982 57.7742-23.5402 88.4455 6.4257 4.9923 11.418 12.1252 19.2688 16.4066-2.146-19.975.7088-38.519 4.2714-58.4872 5.7132-29.2453 17.1186-54.2109 34.9624-77.7471 23.5318-29.9579 53.4894-50.6438 91.2896-57.778 0 0 .7123.7126.7123 1.4252-9.9846 2.8545-19.9732 7.1342-29.9619 12.1223-2.1335 1.4335-4.2755 2.1461-6.4215 3.5755-16.4019 9.9804-29.2367 22.1069-41.3631 37.0837-17.1186 22.1153-27.8157 44.9385-34.2372 72.0464-2.1336 11.4143-4.2796 22.8236-4.9923 34.2375-.7123 14.9761 0 30.6663 1.4252 45.644 3.5671 1.4289 7.1383 4.2826 10.7012 6.4216 3.5671 2.1403 7.8467 3.5663 11.4097 5.7003-11.4097-44.2192-8.5551-92.0034 10.7011-134.0886 16.4061-36.3787 46.3554-65.6239 83.4554-80.5966v2.1419c-79.8882 39.2257-104.8536 141.9342-76.3212 221.1106 7.1341 3.5634 14.9767 5.6957 22.8193 8.5557-14.9725-34.9506-22.1067-72.0385-17.1144-110.5558 6.4215-47.7892 31.3869-92.0071 72.0374-116.9769 0 .7125.7123 1.4294.7123 1.4294-26.3864 19.9691-44.2218 46.364-53.498 76.3227-17.1102 52.0685-8.5509 107.7004 17.127 154.7766 8.5551 2.1369 16.4061 3.5629 24.9612 4.9922-48.5055-68.4705-55.6397-174.0339 12.8349-233.9538 0 0 .717.7168 1.4334.7168-20.6857 22.8195-34.2372 49.927-39.2295 81.3059-2.8628 19.9733-2.146 39.2302.7171 59.2064 0 1.426 1.421 2.139 1.421 3.5634 3.5628 23.5366 12.8347 43.5095 24.2486 64.1908.717 1.4344 2.1376 2.147 2.8544 3.5763 4.2798 8.546 9.9887 15.689 15.6935 22.8203h24.9612c-23.5361-24.2496-42.0798-52.7815-52.0685-85.5901-.7088-2.8504-.7088-4.9973-2.1418-7.851-.7123-1.421-.7123-2.8516-.7123-4.2759-.7088-1.4294-1.4252-2.1424-1.4252-3.5717-9.9886-47.0729-2.8503-94.1487 27.1073-131.2366 0 0 .7123.7125 1.4252.7125-20.6816 29.9578-27.1073 67.0462-22.8234 102.7164 6.4173 49.9232 32.8079 94.8588 70.6122 126.954 7.8468-1.426 16.3893-2.847 24.2652-4.276-12.1263-9.2719-23.5526-18.5439-34.2456-29.9582-7.1382-7.846-12.8431-14.9806-19.2647-23.5367-9.2635-12.8432-14.9767-25.6769-21.3941-39.9462-2.1419-4.9922-2.8586-9.9849-4.9922-14.9755-11.4139-38.5223-9.276-79.8899 9.2677-115.5526 0 0 1.4293.7168 2.1419.7168-19.2605 44.2179-13.5515 94.8658 9.2678 137.659 18.5521 34.2376 46.3845 60.6325 78.4714 79.8845 7.8343-2.8504 15.6685-5.7053 22.836-9.2767-14.2933-5.7006-25.7113-13.5466-38.5461-22.8186-17.8354-13.5516-32.7996-27.1046-44.2092-45.6518-13.5516-15.6886-20.6858-35.662-27.1073-55.6319-4.2796-17.1196-5.7048-34.2375-4.9922-51.3563.7123-9.9888 2.8504-18.5481 4.9922-28.5327.7123-1.4252-.7123-2.8545 2.8503-2.8545-9.9803 45.6514 2.1503 92.7285 31.387 130.5327 2.1377 2.1373 3.5629 4.2759 4.9922 6.4166 24.2528 28.529 54.2145 48.5068 88.4268 61.3455 3.5838-2.1423 7.8759-3.5667 11.418-5.7036 2.1668-2.1423 5.0005-3.5717 7.8759-5.0006.7087-.7101 1.4168-1.4214 2.1253-2.1345-36.3792-9.2765-69.1747-27.8159-97.007-54.9234-3.5671-4.2797-7.13-7.8459-10.6971-12.1273-27.8157-33.5246-41.3714-75.6085-36.3708-117.6887.7041 0 2.1377.7127 2.1377.7127-1.4334 32.0956 7.8385 62.0539 26.3905 89.8732 4.9881 7.8509 9.9804 14.2726 16.402 21.3993 5.7173 5.7036 11.4262 10.6963 17.0936 16.4015 15.7101 12.8433 32.1287 22.8283 50.6724 30.6742 15.6684 6.4171 31.3787 10.698 47.7972 14.2647 6.4174-5.7057 12.8348-11.4093 18.5437-17.1196-24.2528-1.4293-47.0887-7.138-69.2162-16.4099-2.8337-1.4244-4.9589-2.1374-7.8342-3.5634-23.5443-11.4093-43.505-25.6736-60.6236-45.6468-3.5671-4.9957-7.8468-9.2721-11.4138-14.9757-2.8545-4.2847-4.9923-8.5689-7.8426-12.8436-2.1419-4.2801-4.2838-9.2724-6.4216-13.5521-6.4216-15.6894-10.7012-31.3872-11.4138-48.5018h1.4294c7.1299 42.7969 29.9576 78.4588 65.6159 104.1458 37.0875 26.3819 78.4672 37.0845 121.2638 37.0845 5.7089-6.4216 10.7095-12.8399 15.6684-19.9729-16.3768 2.8533-33.5038 1.4289-49.9223 0-15.6685-1.431-30.6702-5.7057-45.6303-10.703-5.0005-2.1373-10.0011-4.2747-15.0017-6.4086-43.5049-19.9813-77.7297-58.4986-89.8561-104.8584h2.1378c11.4138 34.2333 34.2372 62.0535 65.6325 81.3137 5.0005 2.8504 9.251 4.9928 13.5431 7.8477 40.6714 19.9683 86.3016 24.961 129.8065 16.4016 5.0007-7.1263 8.5843-14.9772 12.1265-22.1119-67.0494 19.262-147.6419 8.5606-195.4265-48.5051-.7123-.7127-2.142-1.421-2.8587-2.1378-8.5551-10.7013-15.6893-21.3943-20.6816-33.525 0 0 .7123-.7084 1.4294-.7084" fill="url(#a)" fill-rule="evenodd"/></g><g opacity=".9"><path d="m51.423828-58.447266c-12.239257.07088-24.409123 1.153475-36.642875.73592-2.684623-.101254-5.3620129-.345666-8.0512256-.277289-18.5374444-.0278-37.0750354-.0034-55.6125394-.01332-1.543434.282749-3.03998 1.098445-3.932045 2.421016-3.911232 4.518172-6.409313 10.511348-5.834498 16.553765.550749 6.447154 3.928558 12.257901 7.922793 17.195141 1.673494 2.060506 3.455736 4.031078 5.318359 5.921875-1.370893-1.037644-3.164824-1.644343-4.885749-1.403482-1.11996.159687-2.309444.587272-2.919008 1.604987-1.186785 1.751694-1.861092 3.716084-2.584974 5.687989-2.816668 8.3511784-2.82475 17.297746-2.500663 26.006833.354593 9.200862 1.301331 18.417803.577894 27.625157-.119708 3.920436-.0099 7.84485-.04687 11.767188v64.930074c.36984 1.495 1.105497 3.08547 2.52159 3.85587 18.502837 12.96408 39.678729 21.31413 60.1562163 30.48384 7.9139837 3.50683 15.7539527 7.19106 23.4102817 11.23075 1.798591.75409 3.727842 1.13523 5.52138 1.91061 10.145385 3.86386 19.434325 9.55964 28.919819 14.76313 8.623939 4.79279 17.3735 9.57441 26.86239 12.43517 6.009695 1.77611 12.506571 2.63668 18.662311 1.10802.77731-.31329 1.51933-.83192 2.06637-1.44475.375-.69396.87536-1.34209.82691-2.16685.18801-1.20874-.2665-2.4032-1.06913-3.29886-25.268291-36.348068-53.302209-70.649638-79.624237-106.220674-25.2684737-32.671503-49.32385-66.27253-75.367187-98.345703 5.242851 5.249449 10.990295 9.9544266 16.529297 14.880859 2.973613 2.6958781 5.9655 5.6555891 8.957369 8.4406054 53.562387 50.4520896 107.124774 100.9041846 160.687163 151.3562746 1.18589.66562 2.59594 1.08281 3.9668.9121 3.75489-.8649 7.12132-3.80706 7.91801-7.66168 1.03697-4.48814-.32874-9.07162-1.82632-13.28831-3.14231-8.67134-7.98313-16.63784-10.81508-25.42942-.51903-1.59803-.67369-3.27519-.89576-4.92723-2.33774-6.99113-4.84723-13.923399-7.25189-20.891886-16.37632-46.883693-32.752642-93.7673859-49.128964-140.651079-.758093-1.164617-1.815301-2.271395-3.177735-2.697266-4.971767-1.336524-10.064732-2.212031-15.196407-2.638018-4.475879-.383022-8.970941-.492947-13.461796-.471357zm388.851562.119141c-1.3789.01254-2.65711.486698-4.04101.333955-33.08594-.0019-66.17188-.0039-99.25782-.0058-1.5432.368675-3.16576 1.152997-3.93072 2.626387-4.23187 6.223502-5.83748 13.773024-6.66426 21.138646-1.17359 10.231272-.79969 20.666214-3.25505 30.7283244-.46394 2.71164383-.68735 5.4604185-1.07133 8.1853395-5.44353 43.3805381-10.88706 86.7610771-16.33059 130.1416131.16849 1.31467.59747 2.68621 1.51798 3.67814 2.7767 2.5335 6.97626 3.70357 10.54478 2.24396 4.17192-1.59999 7.05852-5.24834 9.529-8.8058 5.18387-7.53957 8.71069-16.09509 14.1178-23.48934.95309-1.30382 2.17142-2.36989 3.34317-3.46289 3.38766-4.6902 6.61947-9.491547 9.94581-14.225562 31.61163-45.483833 63.24067-90.9563563 94.83154-136.45413 1.78866-2.950848 1.57205-7.135975-.98438-9.585938-2.14509-2.182233-5.29213-3.108032-8.29492-3.046875zm-307.76562.158203c-11.41784.045-22.84074.337329-34.22852 1.199219-1.44922.427516-3.089604 1.204654-3.445441 2.834434-.535205 1.87151-.0402 3.826751.191485 5.707627 1.428211 8.358387 5.599846 15.897214 9.935586 23.066345 4.83899 7.921549 10.246 15.5749115 13.82429 24.1877301 1.30211 2.6482136 2.87813 5.1508203 4.25928 7.758225 23.86369 42.8418859 46.39181 86.4353459 71.44183 128.6097019 1.03606 1.08811 2.47618 2.27597 4.0918 1.81836 2.25931-.4107 4.15779-1.91411 5.7168-3.52539 3.15464-3.53037 4.07547-8.44154 4.08225-13.04045.1358-8.70036-2.18033-17.22657-2.13814-25.920379-.003-1.694791.29967-3.365413.56565-5.029407-.48363-23.161291-1.07548-46.320228-1.59978-69.48064-.55795-23.5153616-1.08459-47.032534-1.66763-70.546633-.3599-4.512269-4.93226-8.059551-9.38531-7.478646-20.5468.443874-41.0963-.22804-61.64415-.160097zm413.40625.16211c-26.98469.01133-53.97011.0074-80.95508.0078-1.5853.329072-3.16417 1.191911-3.99016 2.636775-9.79134 13.031463-16.13001 28.177434-22.52207 43.055393-4.08544 9.5434481-8.19591 19.0989816-13.19035 28.210888-22.76516 48.594814-45.53031 97.189634-68.29547 145.784444-.31243 1.50171-.30444 3.25344.63672 4.54688 1.83567 3.11973 5.38582 5.34951 9.07617 4.99218 4.45243-.32629 8.24417-3.00749 11.6582-5.66015 6.66995-5.26572 12.25489-11.78759 19.13943-16.79214 1.25124-.92459 2.71344-1.48062 4.08255-2.18204 4.40052-3.22542 8.68515-6.60646 13.04184-9.89109 46.75125-35.65884 93.50251-71.317685 140.25376-106.976531 1.24664-1.157764 1.71638-2.845718 1.99206-4.467259 2.07289-9.661254 1.22057-19.6221535 1.01771-29.38235-.12271-3.5609335.0502-7.122918.11202-10.681418-.43242-12.632806 1.06093-25.347526-.80538-37.914285-.42128-1.561467-1.54271-2.808526-2.83563-3.726134-1.68673-1.317451-3.91278-1.445678-5.9632-1.576601-.81783-.01765-1.63537.0054-2.45312.01563zm-279.7168.0098c-14.17969-.000651-28.35938-.0013-42.53906-.002-1.34957.323883-2.72176.983718-3.58594 2.109375-2.61001 3.963299-3.54354 8.810687-3.3369 13.500856.33911 7.083595 2.49178 13.898835 4.3701 20.686644.42076 1.546466.91735 3.320601 1.28488 4.867596.80293 3.253558 1.44675 6.564077 1.56278 9.9214665.011.4347716.0194 1.2275176.1757 1.7825846 8.34377 43.4318469 16.68755 86.8636939 25.03133 130.2955379.67484 2.20881 2.69153 3.65536 4.63867 4.69532 2.36874 1.21765 5.4139 1.20749 7.58789-.42969 2.90424-2.05979 4.11443-5.60166 5.14722-8.85184 1.27295-4.28825 1.94904-8.75413 3.64184-12.91379 15.59343-51.869855 31.17741-103.7444719 46.75-155.621091 1.16848-4.449634-2.26828-9.332779-6.77373-9.968631-2.3639-.208925-4.74773-.04054-7.11962-.09268-12.27839.0068-24.55678.01353-36.83516.0203zm283.75 101.189453c-1.41611.136506-2.90595.562632-3.87613 1.665962-22.78139 21.054821-42.67494 44.938142-64.3602 67.072322-21.40169 23.2406-43.59086 45.80158-65.02129 69.04463-7.09689 7.70445-14.09877 15.49689-20.95527 23.4163-.69029 1.3019-1.38255 3.01857-.40395 4.36722.56694 1.12425 1.55582 2.03407 2.80773 2.2991 6.46836 2.35686 13.58446 1.80015 20.16995.24873 10.80883-2.5864 20.87348-7.42482 31.05004-11.76307 7.75324-3.31782 15.57813-6.68653 23.88404-8.35705.45612-.0996 1.29524-.18285 1.85596-.43638 7.48508-3.1382 15.19258-5.81141 22.9467-8.26916 15.74636-5.03436 31.79685-9.45668 46.70808-16.72588 3.94634-1.95 7.83154-4.06978 11.47372-6.53781.90379-.99294 1.66168-2.24924 1.77921-3.61671-.28168-17.2842-.009-34.5762.0811-51.863.11049-18.361528.0605-36.734695-.88772-55.076454-.35783-1.4755-1.19983-2.889844-2.49609-3.724609-1.3232-1.130381-3.03778-1.677214-4.75586-1.744141z" fill="#2e852e" filter="url(#c)" opacity="1"/><path d="m308.73828-54.021484c-28.35931.04315-56.71875.01196-85.07812.02148-8.571 12.05881 4.28919 32.320239 4.28792 47.5246659 8.38124 43.6284991 16.76248 87.2569991 25.14372 130.8854981 9.38818 9.16583 10.10508-11.28245 13.09673-17.36375 15.61294-51.964691 31.22587-103.9293803 46.83881-155.89407.67103-2.581539-1.60925-5.290711-4.28906-5.173824zm240.29297.0039c-28.02341.03892-56.04687.0083-84.07031.01758-15.75812 20.22906-23.24057 48.3389298-35.99684 71.417294-22.79705 48.65345-45.58573 97.31082-68.38012 145.96552 7.62113 14.5641 27.31432-16.35702 38.78675-20.09694 51.01835-38.91365 102.0367-77.827299 153.05505-116.740952 3.4322-12.780784.69809-27.03886022 1.57422-40.425776-.5428-12.711108 1.07774-25.806004-.79222-38.281668l-1.72301-1.435831-2.45352-.419225zm-354.4668.002c-31.92692.741075-64.40868-1.386828-95.998295 1.033573.593391 17.233458 17.274385 33.530845 23.929735 50.3712311 25.34349 45.0970019 49.0961 91.4646979 75.43339 135.7679099 13.12106-5.36154 1.68159-30.78435 4.89643-43.765555-1.08643-46.495091-2.17287-92.9901827-3.2593-139.485274-.19746-2.413238-2.63289-4.255986-5.00196-3.921885zm243.75196.02148c-33.77995-.01366-67.5599-.002-101.33985-.0059-9.75386 13.035033-5.64656 34.923796-9.97538 51.3703492-5.7705 45.9818668-11.5372 91.9642118-17.30782 137.9460648 12.26931 11.04115 21.76071-25.29767 32.04047-32.88168 34.7925-50.05116 69.585-100.102322 104.3775-150.153484 2.6962-5.184174-3.8522-7.553005-7.79492-6.27535zm-487.199222-.0078c-19.188204 20.815592 13.837984 40.701661 28.009464 55.0536766 54.969502 51.7783324 109.939004 103.5566674 164.908508 155.3349974 16.04765-3.87066-8.00537-33.25883-8.23519-46.47478-18.77251-53.744102-37.545029-107.4882016-56.317548-161.232302-21.294933-6.275996-47.051781-.868139-70.0319035-2.680061-19.4444272-.0012-38.8889895-.0013-58.3333305-.0015zm-1.080079 40.523437c-8.428071 15.5931341-2.054898 38.690528-3.804675 57.612759v76.174348c24.556508 17.60566 56.5953218 27.39336 83.956901 42.05427 24.810055 6.96686 55.295695 35.20357 77.166145 29.8637-25.173718-36.34623-53.618752-71.08656-80.037861-106.82102-25.294031-32.673358-49.47416-66.513306-75.462536-98.459477l-1.817974-.424629zm599.486331 60.591748c-22.88522 20.992219-43.23444 45.494784-65.15358 67.822649-28.32569 30.8335-58.35404 60.54365-85.61669 92.0785 19.60964 8.06553 51.05537-16.01766 74.80573-19.93378 26.08575-11.20001 57.66743-16.1122 80.43138-31.14979-.52018-35.64382 1.07489-71.663716-.7854-107.072702l-1.76319-1.37183-1.91797-.373047z" fill="#2ad52a" filter="url(#b)" opacity=".9"/><path d="m-49.767292-50.000001v18.343611l196.544002 185.13377-71.071276-203.477381zm249.532702 179.749391-4.19971-179.749391h-94.53383zm23.89505-179.749391 33.36088 173.655471 52.1736-173.655471zm90.00258 185.812001 129.16257-185.812001h-105.84825zm50.54227 29.26708 185.79472-141.713989v-73.365092h-85.03968zm-413.972602-44.76969 153.298332 72.14902-153.298332-202.0161948zm452.328492 87.39892 147.43883-51.63192v-105.043919z" fill="#83fc83" opacity=".9"/></g><path d="m133.09766 195.98047c-5.34842 8.29929-9.33405 16.94419-11.9375 25.57031-46.260357 22.41633-100.312504 56.83399-100.312504 56.83399l-20.61523412 13.10351 152.24999812 129.25195 21.57617 97.25977h153.60352l16.60547-94.5918 155.50781-131.9082-20.61719-13.11133s-55.05674-35.08425-101.63086-57.48828c-2.60509-8.40391-6.51105-16.82686-11.72461-24.91797-12.27495-19.04614-27.31871-33.57427-48.65625-33.74609h-.004c-7.11331-.0576-15.1503 2.5318-21.02149 7.76367-2.51215 2.23774-4.4997 4.78868-6.11132 7.46289-11.55416-9.17008-25.16692-14.73633-39.83399-14.73633-15.10143 0-29.06456 5.93257-40.83203 15.59571-1.68383-2.98777-3.79997-5.8447-6.5918-8.33204h-.002l-.002-.002c-5.87633-5.23284-13.91068-7.81445-21.01953-7.75781 0 0-12.38839 1.11142-17.71875 3.98047-12.59656 6.78006-22.36712 16.50888-30.91211 29.76953zm38.01367 79.42773c.4124 16.23736 3.31206 31.55971 8.36523 45.28321l-46.21679-25.55274 21.70703-14.29297c5.86751-.65013 11.20374-2.60565 16.14453-5.4375zm158.10547.78516c4.93048 2.65098 10.25871 4.39843 16.06445 4.82422l21.45898 14.12695-45.77734 25.30469c4.91798-13.44026 7.77078-28.40438 8.25391-44.25586z" fill="#2e852e"/><path d="m469.49932 293.57688s-61.49708-39.11031-107.30255-60.10638c-1.73037-8.82519-5.6223-18.57716-11.52493-27.73768-10.21087-15.84345-23.50344-25.41658-33.67333-25.49761-3.38995-.0279-6.43161.99941-8.9033 3.20222-2.25377 2.00628-3.8342 4.81545-4.77389 8.20767 1.16693 1.46792 2.31338 2.95819 3.40487 4.5118 10.84973 15.43363 18.23315 35.0456 20.9265 56.8166 8.01577 7.24645 16.35656 10.95629 23.01915 10.0407l50.84384 33.47337-97.40833 53.8463c-3.79043 4.90207-7.98318 9.3347-12.51492 13.18519-5.19298-4.0461-10.27513-7.40479-15.30885-10.07052 5.89239-4.18208 11.36941-9.76127 16.21129-16.64913 11.45508-16.29611 18.88693-39.50523 18.88693-65.31674 0-25.8115-7.43185-49.02062-18.88693-65.3158-11.4551-16.29612-26.35603-25.4408-42.31866-25.4408-15.96075 0-30.85983 9.14468-42.31492 25.43986-11.45509 16.29333-18.88694 39.50337-18.88694 65.31488 0 25.8115 7.43185 49.02063 18.88694 65.31581 4.22814 6.01325 8.92193 11.05223 13.96963 15.01822-5.13151 2.43845-10.30959 5.60994-15.54168 9.51911-3.48775-3.21899-6.7613-6.79006-9.77874-10.65545l-98.020203-54.19654 50.698563-33.38487c6.9755.47781 15.60873-3.80951 23.74837-11.73031 2.8498-21.12739 10.11028-40.16281 20.69367-55.21456.73573-1.05063 1.49661-2.07707 2.26866-3.08672-.86983-4.02933-2.56296-7.3545-5.12219-9.63461-2.47263-2.20187-5.51615-3.2283-8.9061-3.20129l-.00005.005c-10.16989.0801-23.43359 9.6523-33.64351 25.49668-6.03488 9.3645-9.97246 19.34187-11.64136 28.32075-45.671366 21.12244-106.082543 59.52301-106.082543 59.52301l138.241543 117.35889 19.75821 89.06607h124.04366l15.11661-86.11115z" fill="#83fc83" stroke-width="36"/><path d="m238.76763 234.69255c-.60814 3.55616-.95924 7.42341-.95924 11.46764 0 2.0901.0624 4.10756.23283 6.08217-10.49585.8774-20.58937 3.15193-29.86054 6.84127l-6.43161-16.15268c11.67674-4.64778 24.17024-7.36939 37.0195-8.23747zm26.28152.72651c10.77245 1.28163 21.55979 3.75827 32.1022 7.36473l-5.61858 16.44608c-8.57363-2.93397-17.29812-4.9803-25.98908-6.17066.22071-2.22889.32129-4.51738.32129-6.89809 0-3.7676-.28218-7.38616-.81489-10.73927zm-15.36659 38.48067c18.8739 0 34.19765 15.27901 34.19765 34.14212 0 18.86591-15.32375 34.171-34.19765 34.171-18.87389 0-34.16783-15.30695-34.16783-34.17006 0-18.86312 15.29394-34.14213 34.16783-34.14213z" fill="#2e852e"/></svg>