<svg height="500" viewBox="0 0 500 500" width="500" xmlns="http://www.w3.org/2000/svg" xmlns:xlink="http://www.w3.org/1999/xlink"><radialGradient id="a" cx="1362.7291" cy="216.11429" gradientTransform="matrix(1.0000001 -.0000059 .0000001 1.0000003 -112.72927 33.893757)" gradientUnits="userSpaceOnUse" r="250"><stop offset="0" stop-color="#ff851a"/><stop offset=".42441937" stop-color="#f87000"/><stop offset=".86367416" stop-color="#f26900"/><stop offset="1" stop-color="#e55f00"/></radialGradient><filter id="b" color-interpolation-filters="sRGB" height="1.037374" width="1.037627" x="-.018813" y="-.018687"><feGaussianBlur stdDeviation="3.3212615"/></filter><g transform="translate(-1000)"><path d="m1500 250a250 250 0 0 1 -250 250 250 250 0 0 1 -250-250 250 250 0 0 1 250-250 250 250 0 0 1 250 250z" fill="url(#a)" stroke-linecap="round" stroke-linejoin="round" stroke-width="1.002"/><path d="m1309.2298 33.82789c128.5196 30.706851 207.8974 167.48127 169.5927 291.56949-31.3771 95.69524-112.8693 162.03793-212.5543 174.60263 153.1796-8.09118 266.0956-163.0043 218.7012-309.92978-36.4562-114.666588-154.6038-191.5214848-270.6514-169.822657-18.8526 4.215647-38.4387 10.498641-55.8829 18.694487-112.5353 47.459213-168.47522 196.206-99.9632 307.85319 57.6978 93.63045 168.5136 141.8489 267.9993 100.77239-134.92 68.97589-303.283-51.46877-311.488-201.30723-4.4167-117.68321 76.8182-219.674136 190.654-246.26040176-89.0147 9.18391126-152.6601 79.39239576-187.7408 157.21169176-38.45522 102.70317 5.2337 231.75078 109.038 294.08388 114.5107 66.1048 260.3537 29.37245 323.6836-83.60152 42.2104-77.69758 34.3514-177.62383-23.1776-249.88923-57.5404-72.257811-157.5429-102.460489-246.4118-71.877168-81.7429 30.682061-131.1298 101.133078-134.0478 190.176958.6692 92.68536 61.7912 168.55972 147.5399 198.52472 128.5549 37.82014 266.7725-70.33038 233.6823-209.88949-14.7104-64.39775-57.8855-122.14991-125.7378-141.121386-71.391-15.467036-138.9716 1.205-181.2869 64.641366-18.8995 29.2286-28.9384 85.21395-26.105 97.65297m0 0c13.5324-50.18833 30.6277-97.66354 72.2125-128.94941 53.182-38.308183 124.4576-37.093813 181.7444-.48035 50.1457 36.48017 75.4845 90.37713 72.3557 150.91678-6.6674 64.04407-38.4038 109.83277-91.6401 141.00844-63.9019 34.56125-135.3795 4.83213-189.1258-35.28385-78.8706-65.48566-79.7477-186.67235-8.9744-256.76104 63.7369-55.941605 167.0207-64.891564 238.7167-6.65053 78.8163 58.35315 90.3045 169.04089 40.972 246.62443-35.2274 56.41892-88.4571 87.60135-152.5581 93.63158-81.9488 2.18264-160.666-41.91503-196.8695-120.9383-36.2055-79.02511-22.5771-164.33167 26.8727-227.66064 49.4316-63.30896 138.3491-86.746364 220.4504-67.54202" fill="#c50"/></g><path d="m418.49805 22.230469-.0605.002c-8.40735.243371-17.37878 4.572948-23.45508 11.611328l-.63086.732422-.55078.794922c-48.54344 70.218339-102.64099 139.292369-157.9063 208.216749l-11.94726 14.90039-13.90625 17.22656c-1.36689-.21187-2.74228-.4375-4.47266-.4375-.72 0-1.71205-.28415-5.33008.43946-2.91812.58362-5.86476 1.19203-9.76953 4.73437l.29492-.19726-.47656.36523c-.0312.0239-.0684.0483-.0996.0723-.23438.21901-.43591.3363-.67773.57812l-.57813.57813.52734-.63086c-39.80232 30.33441-102.150316 61.47644-153.935553 92.05075l-35.523437 20.97461 39.535156 11.77734c12.711116 3.78666 25.772641 8.38054 38.576172 13.50195l5.470703 2.1875 6.982422 3.11719c14.639517 6.5332 28.635407 13.89251 40.818357 21.73633l7.01367 4.51562 5.57227 4.14844c7.31245 5.44372 13.7097 11.14312 18.99805 16.82031l18.29882 19.64454 11.22266-24.38868c23.12596-50.24795 57.14009-88.60182 62.36719-144.08593l.0566-.33985.0898-.53906-.0937.43555c.0106-.11651.0326-.22709.043-.34375 1.07828-5.29668.33406-9.77174-1.20117-13.7793l13.55469-16.05078.004.004.82618-.98829 11.25585-13.32812-.0527-.0605.78516-.9375c57.25151-68.43134 113.71633-137.7271 163.1914-210.828123l.92578-1.36914.66211-1.513672c2.94851-6.747269 4.71266-14.766987 1.92578-22.884766-2.76379-8.050548-9.19068-12.74204-13.36523-14.953125-2.93533-1.576179-6.01901-2.603736-9.29492-3.130859-1.95689-.316831-3.73938-.420462-5.60938-.378906z" fill="#994100"/><g fill="#ffa348"><path d="m418.95767 40.225194c-3.42.099-7.11 1.629-10.35 5.382-48.96 70.821006-103.32 140.211006-158.67 209.241006 2.07.81 4.05 1.71 5.85 2.79 4.05 2.25 7.56 5.04 10.53 8.1 57.15-68.31 113.22-137.16 162.09-209.367006 3.87-8.856.99-12.447-3.42-14.76-1.08-.585-2.34-1.017-3.69-1.233-.72-.117-1.53-.171-2.34-.153zm-179.91 228.213006-12.06 14.94c1.35.72 2.7 1.53 4.05 2.34 3.96 2.52 7.83 5.49 11.07 8.82l13.68-16.2c-2.07-2.43-4.86-4.86-8.01-6.66-2.7-1.53-5.67-2.7-8.73-3.24zm-33.48 24.84c-.72 0-1.35 0-1.8.09-.9.18-1.35.45-1.53.63l-.45.54-.54.36c-42.21 32.4-105.353993 63.63-156.572992 93.87 13.293 3.96 26.847 8.73 40.122 14.04l32.750992-27.45-19.646993 33.03c15.326993 6.84 30.086993 14.58 43.226993 23.04l24.57-39.42-10.98 48.78c8.1 6.03 15.3 12.42 21.42 18.99 24.48-53.19 56.7-90.18 60.93-139.32l.09-.54.09-.54c.54-2.07-.18-5.13-2.79-9-2.7-3.78-7.11-7.83-12.06-10.98-4.86-3.06-10.35-5.22-14.31-5.85-.99-.18-1.8-.27-2.52-.27z" stroke-width="36"/><path d="m294.01336 453.4518c-8.46977 8.48878-18.72221 9.762-30.57816 3.37805 11.76855 6.82538 16.44731 16.55931 10.08621 31.08043 10.03687-12.23374 19.72015-15.72982 29.03327-9.941-4.54922-6.68064-14.05012-9.20375-8.54132-24.51748zm183.553-171.47443c-6.66 9.972-16.47 13.212-29.34 9.252 12.87 4.41 19.35 13.05 15.93 28.53 7.47-13.95 16.29-19.26 26.55-15.39-5.76-5.67-15.57-6.3-13.14-22.392zm-401.153858-220.620176c6.921 12.15 14.94 23.841 2.025 42.435006 9.405-9.648006 20.654999-19.359006 38.168998-1.26-3.78-9.153006-15.534-16.191006-5.49-30.339006-15.353999 7.722-23.273998 0-34.703998-10.836zm183.653998 42.849006c-6.66 9.972-16.47 13.212-29.34 9.252 12.87 4.41 19.35 13.05 15.93 28.53 7.47-13.95 16.29-19.26 26.55-15.39-5.76-5.67-15.57-6.3-13.14-22.392zm163.35 42.102c-3.6 20.25-5.4 41.31-38.88 45.81 20.61.72 43.29 3.33 46.53 41.58 4.5-13.5-2.7-34.02 23.04-37.17-25.74-9.36-27.63-26.28-30.69-50.22zm-323.028 86.4c1.89 22.32-7.289997 37.26-33.371997 41.04 26.441999 3.33 40.391997 13.86 41.291997 31.95 5.058-12.15-.63-27.72 25.848-33.12-19.89-4.68-31.338-17.73-33.768-39.87zm206.478 60.75c8.73 11.79 8.91 23.22-4.23 34.47 15.84-7.38 27.27-6.48 34.02 3.24-1.53-8.46-9.99-15.12 2.7-27.36-12.6 4.32-23.49 1.08-32.49-10.35zm51.03 81.72c10.53 15.66 18 26.55 3.69 43.02 21.06-9 26.55 6.3 37.08 12.42-17.91-24.12-2.34-35.37 12.69-44.55-27.45 11.52-39.96-.27-53.46-10.89z" stroke-width=".9"/><path d="m294.01336 453.4518c-8.46977 8.48878-18.72221 9.762-30.57816 3.37805 11.76855 6.82538 16.44731 16.55931 10.08621 31.08043 10.03687-12.23374 19.72015-15.72982 29.03327-9.941-4.54922-6.68064-14.05012-9.20375-8.54132-24.51748zm183.553-171.47443c-6.66 9.972-16.47 13.212-29.34 9.252 12.87 4.41 19.35 13.05 15.93 28.53 7.47-13.95 16.29-19.26 26.55-15.39-5.76-5.67-15.57-6.3-13.14-22.392zm-401.153858-220.620176c6.921 12.15 14.94 23.841 2.025 42.435006 9.405-9.648006 20.654999-19.359006 38.168998-1.26-3.78-9.153006-15.534-16.191006-5.49-30.339006-15.353999 7.722-23.273998 0-34.703998-10.836zm183.653998 42.849006c-6.66 9.972-16.47 13.212-29.34 9.252 12.87 4.41 19.35 13.05 15.93 28.53 7.47-13.95 16.29-19.26 26.55-15.39-5.76-5.67-15.57-6.3-13.14-22.392zm163.35 42.102c-3.6 20.25-5.4 41.31-38.88 45.81 20.61.72 43.29 3.33 46.53 41.58 4.5-13.5-2.7-34.02 23.04-37.17-25.74-9.36-27.63-26.28-30.69-50.22zm-323.028 86.4c1.89 22.32-7.289997 37.26-33.371997 41.04 26.441999 3.33 40.391997 13.86 41.291997 31.95 5.058-12.15-.63-27.72 25.848-33.12-19.89-4.68-31.338-17.73-33.768-39.87zm206.478 60.75c8.73 11.79 8.91 23.22-4.23 34.47 15.84-7.38 27.27-6.48 34.02 3.24-1.53-8.46-9.99-15.12 2.7-27.36-12.6 4.32-23.49 1.08-32.49-10.35zm51.03 81.72c10.53 15.66 18 26.55 3.69 43.02 21.06-9 26.55 6.3 37.08 12.42-17.91-24.12-2.34-35.37 12.69-44.55-27.45 11.52-39.96-.27-53.46-10.89z" filter="url(#b)" stroke-width=".9"/></g></svg>