<svg height="500" viewBox="0 0 500 500" width="500" xmlns="http://www.w3.org/2000/svg"><g transform="translate(.000015)"><circle cx="-249.99998" cy="250" fill="#e51a1a" r="250" transform="scale(-1 1)"/><path d="m181.33938 83.856939c97.52275-31.84694 203.27597 26.159281 217.12696 131.568651 10.04116 85.89723-45.79566 162.6049-131.11288 174.6444-76.26503 6.65-147.16573-45.4981-149.44603-126.3231.16679-50.89801 30.03241-87.97493 76.60677-108.40662 44.00125-16.48183 90.46555-3.00917 112.28155 39.63622 17.95322 40.0953 3.57775 87.31302-40.4313 103.80676-21.98685 8.23292-51.6578-5.55285-56.72562-31.5612 24.48155 21.7253 69.7211 11.74379 80.1808-21.06198 5.24648-24.88185-11.48198-41.52298-24.36368-55.64156-23.21161-15.22125-63.26956-13.16738-85.32502 12.05139-41.51846 46.43224-18.48961 112.52397 35.72777 131.08081 60.66482 17.11352 118.96473-29.63961 126.96137-92.39988 2.7637-54.83226-40.99398-106.19486-96.51046-114.27807-76.21988-10.3001-138.45939 50.84936-147.743191 124.09106-9.31956 73.21828 47.315731 138.67973 111.863041 158.33924 49.05305 9.49897 98.18701 2.07129 139.64056-27.40671 82.90715-58.95602 100.11901-177.97214 43.55644-260.39974-52.71171-79.885311-158.575-103.987181-249.15842-67.061741-86.705021 39.45169-149.0660905 134.549061-117.102931 229.167621 15.77888-74.65377 50.93986-153.5943 123.407351-187.514491 9.28724-4.60517 19.44718-8.7232 30.56692-12.33106zm-160.722321 286.075591c-52.57825-113.8254-.38403-260.89182 113.777041-317.643861 10.84604-5.32012 22.21219-9.7712 34.03518-13.36069 115.76394-28.75816 246.03978 34.00351 263.68455 158.897471 10.04526 85.91695-27.72044 168.80365-107.97396 206.83173-102.24035 46.26108-224.798841-11.43986-234.690511-131.24969-7.33455-123.78718 127.307171-194.136761 222.718561-137.24102-42.54074-27.89653-94.21826-33.44528-140.80825-12.98978-71.17376 32.62266-105.080851 118.0397-80.762351 190.63139 30.697281 88.13423 123.572931 132.04164 212.817841 105.59803 82.80488-25.06359 132.16266-100.33164 140.19255-180.04986 12.12434-145.020371-132.23823-245.3588802-265.59709-221.973611 7.92036-4.10499 20.5989-8.4277792 35.61563-11.7452592 60.06317-13.23825 124.63426-3.45807 179.45368 32.4903392 109.65077 71.904621 141.09454 217.803071 65.16008 333.599141-143.00482 218.07486-377.311781 117.06797-437.622951-1.79433" fill="#b21a1a"/></g><path d="m297.54909 110.88754-31.99448-8.96912-12.06418 31.82916 85.38066 117.45359-41.32301-140.31528z" fill="#ff8066" opacity=".75" stroke-width="36"/><path d="m283.58203 207.9043c-70.1856-70.77538-125.26161-156.479645-211.3492-207.9043 19.067053 70.67339 71.12873 125.22395 112.97225 183.79687z" fill="#861313"/><path d="m212.71387 424.50763-24.21396 22.75467 21.01355 26.77817 144.67784-12.39048-141.47937-37.14236z" fill="#ff8066" opacity=".75" stroke-width="36"/><path d="m437.52806 106.61129-31.25177 37.30912 53.50826 201.86403 14.82021-211.15592-37.0767-28.01917z" fill="#ff8066" opacity=".75" stroke-width="36"/><path d="m173.24023 12.058594c-75.817961 24.442304-135.778798 84.091203-160.681636 159.701176l270.017576 189.82031-52.01367-10.49219 36.28125 41.71875-31.01367 1.32227-76.98633 6.37695 73.17578 29.01367 267.98047 70.48047-71.35156-271.29492-22.37305-68.03125-12.79101 69.6582-8.61133 51.80078-46.00196-30.93164z" fill="#861313"/><g fill="#ff8066" stroke-width="36"><path d="m155.75977 18.435547c-5.91168 2.408468-11.70517 5.037173-17.38086 7.875l131.95117 193.773433-161.88672-176.123042-4.55078-4.951172 3.8789 5.429687 92.08008 128.894527-113.542966-112.201168c-9.031654 7.834613-17.491417 16.299409-25.31836 25.337891l303.904296 290.923827-324.822264-263.08008c-8.160738 12.59975-15.242965 25.95742-21.060547 39.98243l344.089841 241.88867-84.24218-16.99414 26.09179 30.0039-68.35351 2.91602 238.14843 62.63476-63.50586-241.46289-14.88476 89.54492-26.46875-30.50195 16.17578 58.6211z"/><path d="m59.854962 408.99905-7.74 23.58-15.93-17.73-12.059999 10.8 17.19 19.17-25.11 5.22 3.24 15.84 23.4-4.86-7.74 23.49 15.48 5.04 8.28-25.2 18.36 20.43 12.06-10.8-17.190001-19.08 25.2-5.31-3.24-15.84-27 5.67 8.28-25.38z" opacity=".75"/><path d="m171.73903 312.29452-2.07 13.86-10.44-8.37-10.08 12.6 11.34 9.09-13.59 5.31 5.94 15.12 12.33-4.77-2.07 13.77 16.02 2.52 2.34-15.21 12.42 9.99 10.08-12.6-11.34-9.09 13.59-5.31-5.94-15.12-14.76 5.76 2.25-15.03z" opacity=".75"/><path d="m53.01 273.72952v19.26l-16.02-9.27-8.1 14.04 17.379 9.99-17.379 10.08 8.1 14.04 16.02-9.27v19.26h16.2v-20.79l18.738 10.8 8.1-14.04-17.37-10.08 17.37-9.99-8.1-14.04-18.738 10.8v-20.79z" opacity=".75"/><path d="m351.72596 40.035-5.67 18.45-12.6-13.59-11.88 10.98 13.68 14.76-19.62 4.5 3.6 15.84 18.18-4.14-5.67 18.45 15.48 4.68 6.12-19.98 14.75998 15.93 11.88-10.98-13.77-14.76 19.62-4.5-3.6-15.84-21.14998 4.86 6.11998-19.98z" opacity=".75"/><path d="m25.02 0-2.43 12.879004-9.45-8.118-10.62 12.294 10.44 8.928-12.96 4.554 5.4 15.282 11.88-4.176-2.43 12.897 15.84 2.925 2.61-14.031 11.34 9.711 10.619999-12.294-10.439999-8.928 12.959999-4.554-5.4-15.282-14.129999 4.986 2.61-14.103z" opacity=".75"/><path d="m450.239 0-15.57 4.499998 7.812 27.072004-26.424-6.534-3.888 15.732 28.359 7.02-20.277 21.078 11.673 11.16 18.882-19.602 7.812 27.072 15.57-4.5-8.352-28.944 30.204 7.47 3.96-15.732-28.341-7.011 20.241-21.015-11.682-11.232004-21.609 22.464004z" opacity=".75"/></g></svg>