<svg height="500" viewBox="0 0 500 500" width="500" xmlns="http://www.w3.org/2000/svg"><g transform="translate(.000015)"><circle cx="-249.99998" cy="250" fill="#e51a1a" r="250" transform="scale(-1 1)"/><path d="m181.33938 83.856939c97.52275-31.84694 203.27597 26.159281 217.12696 131.568651 10.04116 85.89723-45.79566 162.6049-131.11288 174.6444-76.26503 6.65-147.16573-45.4981-149.44603-126.3231.16679-50.89801 30.03241-87.97493 76.60677-108.40662 44.00125-16.48183 90.46555-3.00917 112.28155 39.63622 17.95322 40.0953 3.57775 87.31302-40.4313 103.80676-21.98685 8.23292-51.6578-5.55285-56.72562-31.5612 24.48155 21.7253 69.7211 11.74379 80.1808-21.06198 5.24648-24.88185-11.48198-41.52298-24.36368-55.64156-23.21161-15.22125-63.26956-13.16738-85.32502 12.05139-41.51846 46.43224-18.48961 112.52397 35.72777 131.08081 60.66482 17.11352 118.96473-29.63961 126.96137-92.39988 2.7637-54.83226-40.99398-106.19486-96.51046-114.27807-76.21988-10.3001-138.45939 50.84936-147.743191 124.09106-9.31956 73.21828 47.315731 138.67973 111.863041 158.33924 49.05305 9.49897 98.18701 2.07129 139.64056-27.40671 82.90715-58.95602 100.11901-177.97214 43.55644-260.39974-52.71171-79.885311-158.575-103.987181-249.15842-67.061741-86.705021 39.45169-149.0660905 134.549061-117.102931 229.167621 15.77888-74.65377 50.93986-153.5943 123.407351-187.514491 9.28724-4.60517 19.44718-8.7232 30.56692-12.33106zm-160.722321 286.075591c-52.57825-113.8254-.38403-260.89182 113.777041-317.643861 10.84604-5.32012 22.21219-9.7712 34.03518-13.36069 115.76394-28.75816 246.03978 34.00351 263.68455 158.897471 10.04526 85.91695-27.72044 168.80365-107.97396 206.83173-102.24035 46.26108-224.798841-11.43986-234.690511-131.24969-7.33455-123.78718 127.307171-194.136761 222.718561-137.24102-42.54074-27.89653-94.21826-33.44528-140.80825-12.98978-71.17376 32.62266-105.080851 118.0397-80.762351 190.63139 30.697281 88.13423 123.572931 132.04164 212.817841 105.59803 82.80488-25.06359 132.16266-100.33164 140.19255-180.04986 12.12434-145.020371-132.23823-245.3588802-265.59709-221.973611 7.92036-4.10499 20.5989-8.4277792 35.61563-11.7452592 60.06317-13.23825 124.63426-3.45807 179.45368 32.4903392 109.65077 71.904621 141.09454 217.803071 65.16008 333.599141-143.00482 218.07486-377.311781 117.06797-437.622951-1.79433" fill="#b21a1a"/></g><path d="m183.92578 120.20703c-13.56044 13.03121-30.7595 27.44355-42.64258 52.35742-3.15189-6.33452-4.80629-12.68729-4.82031-19.20898 10.8623-40.11635 29.74452-50.88258 47.46289-87.109376-44.79445-5.442217-84.07295 29.068488-104.412108 61.833986-13.780228 22.8422-17.822971 48.00237-13.705078 71.9375 8.16255 47.44458 44.469626 89.89193 90.451176 127.76953 25.33766 29.84145 53.55122 47.02262 68.80468 105.47461l17.41602 66.73828 17.41601-66.73828c15.25504-58.452 43.47005-75.63143 68.80664-105.47461 45.98195-37.878 82.2885-80.32494 90.45118-127.76953 4.11795-23.93514.0771-49.09538-13.70313-71.9375-30.97837-41.268335-54.54217-61.833984-103.67297-61.83399 8.7123 32.183701 46.14534 56.898 46.72961 87.125-.0139 6.52544-1.66799 12.88143-4.82226 19.21875-11.8803-24.92526-29.08168-39.34086-42.64453-52.375-42.06463-48.063974-25.49533-73.794678-58.56153-120.10169841-29.53098 36.71787541-27.03443 89.55050641-58.55371 120.09388841z" fill="#861313"/><path d="m242.47995 27.050427c-13.07903 125.653033-78.35554 96.538873-94.34885 182.509783-36.27638-33.06-45.93564-74.16083 9.29648-127.673519-122.451484 69.756369-78.376171 159.453679 11.44394 233.006729 23.11998 27.71174 56.8758 49.69973 73.60929 113.82324 16.73521-64.12351 50.4919-86.11065 73.61016-113.82324 89.82097-73.55391 133.89628-163.25121 11.44479-233.006729 55.24072 53.521259 45.58834 94.638379 9.29304 127.701809-15.98127-86.00349-81.26466-56.87304-94.34885-182.539787zm0 62.603641c4.71272 45.251542 20.84186 56.603012 34.89833 69.999822 18.82679 11.73551 31.40377 32.59196 31.40377 56.28241 0 25.83183-14.9385 48.2673-36.6426 59.203-11.08975 11.77837-22.79331 26.09671-29.65864 52.39829-6.77764-25.97841-18.2594-40.27275-29.2288-51.96967-22.15973-10.77112-37.47562-33.45947-37.47562-59.63162 0-24.18251 13.08763-45.41614 32.56003-57.00591 13.87508-13.09593 29.51937-24.834 34.14611-69.275465zm-.21491 76.000452c-27.9479 0-50.42398 22.41404-50.42398 50.28178 0 27.87032 22.47522 50.28179 50.42484 50.28179 27.95047 0 50.45406-22.41147 50.45406-50.28179 0-27.8686-22.50359-50.28178-50.45406-50.28178z" fill="#ff8066" stroke-width="36"/></svg>