<svg height="500" viewBox="0 0 500 500" width="500" xmlns="http://www.w3.org/2000/svg" xmlns:xlink="http://www.w3.org/1999/xlink"><radialGradient id="a" cx="1362.7291" cy="216.11429" gradientTransform="matrix(1.0000001 -.0000059 .0000001 1.0000003 -112.72927 33.893757)" gradientUnits="userSpaceOnUse" r="250"><stop offset="0" stop-color="#ff851a"/><stop offset=".42441937" stop-color="#f87000"/><stop offset=".86367416" stop-color="#f26900"/><stop offset="1" stop-color="#e55f00"/></radialGradient><g transform="translate(-1000)"><path d="m1500 250a250 250 0 0 1 -250 250 250 250 0 0 1 -250-250 250 250 0 0 1 250-250 250 250 0 0 1 250 250z" fill="url(#a)" stroke-linecap="round" stroke-linejoin="round" stroke-width="1.002"/><path d="m1309.2298 33.82789c128.5196 30.706851 207.8974 167.48127 169.5927 291.56949-31.3771 95.69524-112.8693 162.03793-212.5543 174.60263 153.1796-8.09118 266.0956-163.0043 218.7012-309.92978-36.4562-114.666588-154.6038-191.5214848-270.6514-169.822657-18.8526 4.215647-38.4387 10.498641-55.8829 18.694487-112.5353 47.459213-168.47522 196.206-99.9632 307.85319 57.6978 93.63045 168.5136 141.8489 267.9993 100.77239-134.92 68.97589-303.283-51.46877-311.488-201.30723-4.4167-117.68321 76.8182-219.674136 190.654-246.26040176-89.0147 9.18391126-152.6601 79.39239576-187.7408 157.21169176-38.45522 102.70317 5.2337 231.75078 109.038 294.08388 114.5107 66.1048 260.3537 29.37245 323.6836-83.60152 42.2104-77.69758 34.3514-177.62383-23.1776-249.88923-57.5404-72.257811-157.5429-102.460489-246.4118-71.877168-81.7429 30.682061-131.1298 101.133078-134.0478 190.176958.6692 92.68536 61.7912 168.55972 147.5399 198.52472 128.5549 37.82014 266.7725-70.33038 233.6823-209.88949-14.7104-64.39775-57.8855-122.14991-125.7378-141.121386-71.391-15.467036-138.9716 1.205-181.2869 64.641366-18.8995 29.2286-28.9384 85.21395-26.105 97.65297m0 0c13.5324-50.18833 30.6277-97.66354 72.2125-128.94941 53.182-38.308183 124.4576-37.093813 181.7444-.48035 50.1457 36.48017 75.4845 90.37713 72.3557 150.91678-6.6674 64.04407-38.4038 109.83277-91.6401 141.00844-63.9019 34.56125-135.3795 4.83213-189.1258-35.28385-78.8706-65.48566-79.7477-186.67235-8.9744-256.76104 63.7369-55.941605 167.0207-64.891564 238.7167-6.65053 78.8163 58.35315 90.3045 169.04089 40.972 246.62443-35.2274 56.41892-88.4571 87.60135-152.5581 93.63158-81.9488 2.18264-160.666-41.91503-196.8695-120.9383-36.2055-79.02511-22.5771-164.33167 26.8727-227.66064 49.4316-63.30896 138.3491-86.746364 220.4504-67.54202" fill="#c50"/></g><g opacity=".75"><path d="m303.56285.00277078c-31.37502.35392254-53.691 35.51464522-38.81386 65.45406322v.002h.002c5.4253 10.916979 4.75742 25.451998.7772 36.775556-1.9901 5.66179-4.81596 10.35108-6.77653 12.62222-.79437.92021-1.03208.90409-1.06242.88436-10.62489 1.50121-10.93616 1.44332-16.27135.81928-1.33846-1.57294-3.33836-4.51778-4.89863-8.05112-3.37964-7.65341-3.73993-16.373131-1.96022-19.838738 7.13496-13.893834 4.43105-30.318523-4.30137-40.80877-8.73243-10.490258-24.08671-16.136279-38.85215-11.668948-15.24938 4.61345-25.35093 18.551708-26.685 31.448345-1.33406 12.896644 3.00228 25.651964 14.76672 33.672641 3.99605 2.72433 9.82583 11.91651 11.76897 20.51637.97158 4.29993 1.04954 8.31457.72742 10.36155-.0942.59866-.10004.52795-.15314.68529-.54387.38276-1.13666.77889-1.64436 1.14851l-17.11745 12.46143 15.05577 14.88863c15.9273 15.74942 36.93458 26.63811 60.94289 28.32629 28.99829 2.03967 53.44541-5.78986 70.0108-20.7901l14.34937-12.99362-14.00293-13.36875c-3.10376-2.96297-5.87161-5.18392-8.6621-7.36966l.84037.69868c-.64715-.57351-4.6386-10.73582-1.96213-23.27664 2.67646-12.54081 10.27817-25.045112 19.60026-30.621414 14.83115-8.871518 20.7199-24.614336 19.74384-40.529305-.97609-15.915009-12.45446-33.6233572-31.85933-39.4937553h-.002v-.00196c-4.48593-1.35646462-9.075-2.00280057-13.56073-1.95248382z" fill="#994100"/><path d="m299.6634 149.34958c-17.49902-15.50798-9.61961-64.897918 20.33629-82.816973 14.39588-8.611156 17.68107-39.552289-8.08661-47.347582-2.77139-.838017-5.50565-1.213325-8.14769-1.183688-18.49189.208598-32.44883 20.221481-22.89569 39.446643 16.47383 33.149291-5.33917 76.84315-20.28239 76.0662-13.5635 1.90348-13.78866 1.72031-23.45859.72607-9.72739 1.0134-29.61396-32.31128-18.58291-53.791883 7.91655-15.415797-6.26616-31.766575-21.92737-27.028226-18.20266 5.50692-16.78222 26.346444-6.99194 33.021198 19.26856 13.13641 27.1911 50.636771 14.12162 60.061401-1.00604.66801-1.99231 1.36476-2.96661 2.07407 13.3659 13.21663 30.07148 21.80025 49.54844 23.1698 25.18981 1.77179 44.25657-4.94068 56.66553-16.1772-2.53572-2.42069-4.63321-4.10586-7.33208-6.21983z" fill="#ffa348" stroke-width="35.9999"/><path d="m128.97708 21.030231-.50538.02107c-7.48707.305547-15.09088 2.603642-21.16805 6.797318-12.143723 8.380679-18.799949 22.849869-17.465863 38.624672v.002c1.308593 15.462749 11.440883 31.967289 30.134533 43.151749 27.46578 16.4332 39.48434 54.4745 31.19503 84.25914v.002l-.6585 2.36595v.72548c-8.00961 32.59133.89842 63.26959 19.22507 84.81618 19.00689 22.34732 47.5509 35.82803 77.83637 35.82803 35.4567 0 63.27302-17.22842 80.58526-38.66105 17.49972-21.6656 25.76473-46.39652 22.69374-68.3981-2.6089-18.69198-3.06145-32.12602-1.26916-39.95887 1.53079-6.69085 3.78421-9.21633 9.736-10.84201 31.18101-8.51745 48.56457-26.77041 50.73788-45.95988v-.002c2.25613-19.940197-9.18649-36.767915-25.88484-44.480246-29.79137-13.758318-66.74147 10.182366-67.05325 48.241606-.21591 26.34166-21.83603 50.51393-66.3086 47.38787h-.002c-21.77779-1.5321-39.78331-12.91945-53.31441-30.34967-13.58943-17.50689-22.17888-41.045001-23.80593-64.793666-1.41724-20.677778-11.55669-36.599039-24.72287-43.789178-5.87675-3.208786-12.84213-4.879362-19.47967-4.980741z" fill="#994100"/><path d="m117.52729 42.662482c-6.25358 4.315753-10.55737 12.791626-9.75374 22.294068.80423 9.503036 6.48713 20.278053 21.44172 29.225011 35.43759 21.202859 49.73527 67.010899 39.29346 104.529819v.002c-7.88958 28.34989-.55092 53.21127 14.93724 71.42063 15.48695 18.20876 39.29047 29.49078 64.12396 29.49078 29.84153 0 52.03658-13.96304 66.58277-31.97129 14.5456-18.00824 20.86925-40.27118 18.86915-54.60057-2.69952-19.34128-3.73311-34.46497-.98807-46.46168 2.74445-11.99553 10.50769-20.90537 22.53879-24.19157 27.27075-7.44931 36.37296-19.83451 37.59458-30.6209 1.22042-10.78639-5.93442-21.676932-15.54564-26.115993-15.60792-7.208086-41.28936 5.58474-41.50614 32.047913-.30302 36.96643-33.29858 68.87068-85.57169 65.19541-27.44261-1.92978-50.21074-16.5788-66.27138-37.26748-16.06064-20.69048-25.68384-47.433781-27.54501-74.599683-1.11082-16.207114-7.79976-25.076258-15.39234-29.222617-3.3217-1.813696-6.88954-2.715752-11.12836-2.780495-4.70591.192045-8.51148 1.440672-11.6793 3.626687z" fill="#ffa348" stroke-width="35.9999"/></g><g transform="translate(0 -.000747)"><path d="m434.71094 190.32617c-10.49494.16255-18.87206 6.04976-24.18555 12.99805-5.31382 6.94873-8.3069 15.45814-9.10742 24.86328-.38435 4.51644-.58591 9.07948-.79492 13.62891-3.15151-2.73946-6.62121-4.94961-10.23828-5.8125-8.91323-2.12635-14.79497-.42516-20.85547 3.47851-18.47378 11.90028-27.15994 30.56354-33.79102 47.00391-6.24711 15.48839-11.22775 29.77025-16.41016 38.01367-6.16298 5.15888-14.14217 10.36682-22.54687 19.17578-9.15041 9.59054-17.25596 23.67708-20.62891 42.90234-2.63204 15.00046-4.8032 33.78401-2.10351 52.64649 2.69969 18.86247 11.45826 39.57397 31.48047 50.49219l.30468.16601.3125.1543c16.194 8.03528 33.59214 10.98172 49.01172 9.65625 7.7098-.66274 15.09745-2.11543 22.41211-7.10352 7.31466-4.98808 13.64815-17.43783 11.31836-27.78125-3.07563-13.65764-4.56138-14.63861-2.57226-23.21875 20.63328-11.10108 34.64444-24.37031 44.1914-38.82422 10.69518-16.19228 16.03571-32.6686 22.85742-49.33593 20.03332-48.9443 16.60094-66.93361 16.5293-107.47266v-.002c-.0279-15.47146-2.18673-27.49648-7.42187-37.4336-5.23486-9.93657-15.86404-18.37912-27.75977-18.19531z" fill="#994100"/><path d="m434.99003 208.32371c-7.34934.11332-14.5466 8.5825-15.63672 21.39014-3.65956 43.00316 5.5583 101.08708-45.04734 113.61708 38.38381-95.82596 10.44684-92.24394 4.97073-88.71669-26.22148 16.89113-29.98306 58.76293-46.15163 81.87751-15.56965 13.89745-33.53493 20.66014-39.24343 53.19771-4.90932 27.97906-7.2152 69.23796 20.2655 84.22333 25.61029 12.70754 60.58015 9.9358 57.18225-5.14968-3.63877-16.1583-5.78029-20.60443-.4147-39.51275 45.292-21.47797 51.63908-48.05746 65.79271-82.63867 19.30195-47.15747 15.26076-58.92725 15.18708-100.62339-.0491-27.18862-8.57456-37.79397-16.90445-37.66459z" fill="#ffa348" stroke-width="36"/><path d="m65.287109 190.32617c-11.895393-.18312-22.52495 8.2589-27.759765 18.19531-5.235105 9.93697-7.393923 21.96255-7.421875 37.4336-.07164 40.54001-3.50402 58.53031 16.529297 107.47461 6.821721 16.66733 12.162242 33.14365 22.857421 49.33593 9.546961 14.45391 23.558125 27.72314 44.191403 38.82422 1.98915 8.57995.50218 9.56128-2.57421 23.21875-2.3292 10.3437 4.00577 22.79329 11.32031 27.78125 7.31453 4.98797 14.70221 6.44265 22.41211 7.10547 15.4198 1.32564 32.81749-1.62221 49.01172-9.6582l.3125-.1543.30468-.16601c20.02221-10.91822 28.78079-31.62972 31.48047-50.49219 2.69969-18.86248.52853-37.64603-2.10351-52.64649-3.37343-19.22485-11.47886-33.31171-20.62891-42.90234-8.40437-8.80905-16.38328-14.01626-22.54688-19.17578-5.18204-8.24302-10.1629-22.52534-16.41015-38.01367-6.63123-16.4403-15.31732-35.10369-33.79102-47.00391-6.06061-3.90374-11.94221-5.60516-20.85547-3.47851-3.6165.86287-7.0853 3.07365-10.236324 5.8125-.209024-4.55003-.412484-9.11185-.796875-13.62891v-.002c-.800556-9.40482-3.793712-17.91264-9.107422-24.86133-5.313373-6.94825-13.689463-12.83614-24.185547-12.99805z" fill="#994100"/><path d="m48.105526 245.98736c-.07368 41.69708-4.114878 53.46686 15.187074 100.62433 14.153636 34.58121 20.500706 61.1607 65.79271 82.63867 5.36559 18.90832 3.22408 23.35445-.41564 39.51275-3.39695 15.08548 31.5729 17.85817 57.1832 5.14968 27.4807-14.98537 25.17482-56.24427 20.26549-84.22333-5.70944-32.53757-23.67283-39.30026-39.24343-53.19866-16.16762-23.11363-19.93014-64.98543-46.15163-81.87656-5.47611-3.52725-33.412134-7.10832 4.97073 88.71669-50.605634-12.53-41.387784-70.61392-45.047334-113.61803-1.09013-12.80669-8.287383-21.27681-15.63673-21.38967-8.329888-.1289-16.855319 10.47645-16.90444 37.66413z" fill="#ffa348" stroke-width="36"/></g></svg>