<svg height="500" viewBox="0 0 500 500" width="500" xmlns="http://www.w3.org/2000/svg" xmlns:xlink="http://www.w3.org/1999/xlink"><radialGradient id="a" cx="1362.7291" cy="216.11429" gradientTransform="matrix(1.0000001 -.0000059 .0000001 1.0000003 -112.72927 33.893757)" gradientUnits="userSpaceOnUse" r="250"><stop offset="0" stop-color="#ff851a"/><stop offset=".42441937" stop-color="#f87000"/><stop offset=".86367416" stop-color="#f26900"/><stop offset="1" stop-color="#e55f00"/></radialGradient><g transform="translate(-1000)"><path d="m1500 250a250 250 0 0 1 -250 250 250 250 0 0 1 -250-250 250 250 0 0 1 250-250 250 250 0 0 1 250 250z" fill="url(#a)" stroke-linecap="round" stroke-linejoin="round" stroke-width="1.002"/><path d="m1309.2298 33.82789c128.5196 30.706851 207.8974 167.48127 169.5927 291.56949-31.3771 95.69524-112.8693 162.03793-212.5543 174.60263 153.1796-8.09118 266.0956-163.0043 218.7012-309.92978-36.4562-114.666588-154.6038-191.5214848-270.6514-169.822657-18.8526 4.215647-38.4387 10.498641-55.8829 18.694487-112.5353 47.459213-168.47522 196.206-99.9632 307.85319 57.6978 93.63045 168.5136 141.8489 267.9993 100.77239-134.92 68.97589-303.283-51.46877-311.488-201.30723-4.4167-117.68321 76.8182-219.674136 190.654-246.26040176-89.0147 9.18391126-152.6601 79.39239576-187.7408 157.21169176-38.45522 102.70317 5.2337 231.75078 109.038 294.08388 114.5107 66.1048 260.3537 29.37245 323.6836-83.60152 42.2104-77.69758 34.3514-177.62383-23.1776-249.88923-57.5404-72.257811-157.5429-102.460489-246.4118-71.877168-81.7429 30.682061-131.1298 101.133078-134.0478 190.176958.6692 92.68536 61.7912 168.55972 147.5399 198.52472 128.5549 37.82014 266.7725-70.33038 233.6823-209.88949-14.7104-64.39775-57.8855-122.14991-125.7378-141.121386-71.391-15.467036-138.9716 1.205-181.2869 64.641366-18.8995 29.2286-28.9384 85.21395-26.105 97.65297m0 0c13.5324-50.18833 30.6277-97.66354 72.2125-128.94941 53.182-38.308183 124.4576-37.093813 181.7444-.48035 50.1457 36.48017 75.4845 90.37713 72.3557 150.91678-6.6674 64.04407-38.4038 109.83277-91.6401 141.00844-63.9019 34.56125-135.3795 4.83213-189.1258-35.28385-78.8706-65.48566-79.7477-186.67235-8.9744-256.76104 63.7369-55.941605 167.0207-64.891564 238.7167-6.65053 78.8163 58.35315 90.3045 169.04089 40.972 246.62443-35.2274 56.41892-88.4571 87.60135-152.5581 93.63158-81.9488 2.18264-160.666-41.91503-196.8695-120.9383-36.2055-79.02511-22.5771-164.33167 26.8727-227.66064 49.4316-63.30896 138.3491-86.746364 220.4504-67.54202" fill="#c50"/></g><g stroke-width=".953048" transform="matrix(3.9657271 0 0 3.9657271 -623.91329 -174.04303)"><path d="m272.57227 43.888672-.10938.0098c-.14933.01201-.52378-.0046-1.1582.105469-.63443.110062-1.61267.457455-2.3418 1.185547v.002c-17.87385 17.873738-95.22681 95.224782-110.54883 110.546792l-.49023.49219-.21875.65625c-.54432 1.63128-.45558 3.32978-.0274 4.83789.75218 2.68165 2.5095 4.78414 4.5625 6.24609l.0254.0195.0273.0176c1.35117.91784 3.02527 1.80495 5.11523 1.93555.96216.0694 1.98715-.0196 2.99219-.35352l.66016-.2207 111.65625-111.656249.22265-.529297c.45248-1.072607.52089-2.157533.43555-3.109375-.16215-2.716987-1.51257-5.047337-3.31055-6.845703l-.0195-.01953-.0215-.01953c-.85788-.825838-1.84467-1.729299-3.34375-2.351562-1.21416-.574539-2.55824-.957039-3.99805-.949219z" fill="#994100" stroke-width=".953048"/><path d="m280.458 54.2944c-.091-1.768-1.073-3.5876-2.473-4.9879-.723-.696-1.67-1.459-2.474-1.7828-.913-.4445-1.874-.7007-2.813-.6956-.613.0493-1.212-.0018-1.65689.442458-17.87389 17.873857-95.22611 95.225442-110.54811 110.547442-.327.98-.295 2.031.0115 3.108.5175 1.85 1.8705 3.532 3.4405 4.65 1.09821.746 2.38298 1.36232 3.663 1.438.634.047 1.263-.015 1.865-.215l110.75773-110.757474c.23127-.548226.28627-1.142026.22727-1.747126z" fill="#ffa348" stroke-width="5.60356"/><path d="m280.23046 56.041553c1.14125-2.708113-1.85969-6.51185-3.03157-7.439805-1.42143-.802931-4.17082-2.248869-5.94865-1.540154l-3.92668 3.926152c-35.53995 35.540898-71.0805 71.081194-106.62127 106.621264-1.27161 2.88197.70542 6.15959 3.2422 7.96766 1.64034 1.12107 3.72278 2.01126 5.73776 1.01283 35.54941-35.53161 71.08116-71.080874 106.62179-106.621266z" fill="#994100"/><g fill="#ffa348" stroke-width=".25216"><path d="m210.50799 125.7762-2.0664-2.00634-6.94954-6.94981-40.99878 40.99798c-.89826 2.69478.89958 5.92667 3.45122 7.75864l16.14118-16.14117-14.05996 17.2421c1.15093.4027 2.34421.48869 3.44752.12092l41.03423-41.02206z"/><path d="m212.23122 111.71888-4.22804-1.4097-3.14325 3.14325 5.19324 5.19378z"/><path d="m221.47312 114.79943-4.72282-1.57427-2.88925 9.18633z"/><path d="m228.20755 108.06419-13.46993-4.48998-2.97022 2.96995 13.47047 4.48998z"/><path d="m222.79418 95.517652-4.29154 4.291542 12.87356 4.290746-8.58255-8.582288z"/><path d="m267.11454 51.196767-40.95301 40.953533 1.77536 1.775354 10.66429-10.664296-8.33384 12.994217 4.87441 4.874685 40.95327-40.953005c-.49662-.191558-.98213-.412221-1.45521-.658283l-7.0141 3.615267 4.9239-4.92469c-.65882-.488686-1.28191-1.027642-1.86055-1.60655-1.5367-1.536436-2.794-3.380582-3.57452-5.406232z"/><path d="m277.98547 49.306319c-.49027-.489479-1.0324-.926041-1.60496-1.293812l-1.50892 2.726267.63923-3.215217c-1.39038-.677333-2.89454-.917311-4.26058-.461963l-.20902.209021c.18415 2.045229 1.30783 4.257146 3.01519 5.964767 1.70735 1.707621 3.91954 2.831042 5.96503 3.015192l.20902-.209021c.74798-2.244725-.37438-4.8641-2.24525-6.734969z"/></g><path d="m180.08567 149.4355-16.14118 16.14117c.83854.57721 1.48732.87891 2.08122 1.10093z" fill="#994100"/><path d="m275.51082 47.523557-.63923 3.215217 1.50892-2.726267c-.20773-.151246-.39136-.299048-.86969-.48895z" fill="#994100"/><path d="m238.60118 83.261358-10.66429 10.664296 2.33045 2.329921z" fill="#994100"/><path d="m272.54961 58.209549c.69673.717005 1.39347 1.038223 2.0902 1.309423l-7.0141 3.615266z" fill="#994100"/></g></svg>