<svg height="500" viewBox="0 0 500 500" width="500" xmlns="http://www.w3.org/2000/svg" xmlns:xlink="http://www.w3.org/1999/xlink"><radialGradient id="a" cx="1362.7291" cy="216.11429" gradientTransform="matrix(1.0000001 -.0000059 .0000001 1.0000003 -112.72927 33.893757)" gradientUnits="userSpaceOnUse" r="250"><stop offset="0" stop-color="#ff851a"/><stop offset=".42441937" stop-color="#f87000"/><stop offset=".86367416" stop-color="#f26900"/><stop offset="1" stop-color="#e55f00"/></radialGradient><g transform="translate(-1000)"><path d="m1500 250a250 250 0 0 1 -250 250 250 250 0 0 1 -250-250 250 250 0 0 1 250-250 250 250 0 0 1 250 250z" fill="url(#a)" stroke-linecap="round" stroke-linejoin="round" stroke-width="1.002"/><path d="m1309.2298 33.82789c128.5196 30.706851 207.8974 167.48127 169.5927 291.56949-31.3771 95.69524-112.8693 162.03793-212.5543 174.60263 153.1796-8.09118 266.0956-163.0043 218.7012-309.92978-36.4562-114.666588-154.6038-191.5214848-270.6514-169.822657-18.8526 4.215647-38.4387 10.498641-55.8829 18.694487-112.5353 47.459213-168.47522 196.206-99.9632 307.85319 57.6978 93.63045 168.5136 141.8489 267.9993 100.77239-134.92 68.97589-303.283-51.46877-311.488-201.30723-4.4167-117.68321 76.8182-219.674136 190.654-246.26040176-89.0147 9.18391126-152.6601 79.39239576-187.7408 157.21169176-38.45522 102.70317 5.2337 231.75078 109.038 294.08388 114.5107 66.1048 260.3537 29.37245 323.6836-83.60152 42.2104-77.69758 34.3514-177.62383-23.1776-249.88923-57.5404-72.257811-157.5429-102.460489-246.4118-71.877168-81.7429 30.682061-131.1298 101.133078-134.0478 190.176958.6692 92.68536 61.7912 168.55972 147.5399 198.52472 128.5549 37.82014 266.7725-70.33038 233.6823-209.88949-14.7104-64.39775-57.8855-122.14991-125.7378-141.121386-71.391-15.467036-138.9716 1.205-181.2869 64.641366-18.8995 29.2286-28.9384 85.21395-26.105 97.65297m0 0c13.5324-50.18833 30.6277-97.66354 72.2125-128.94941 53.182-38.308183 124.4576-37.093813 181.7444-.48035 50.1457 36.48017 75.4845 90.37713 72.3557 150.91678-6.6674 64.04407-38.4038 109.83277-91.6401 141.00844-63.9019 34.56125-135.3795 4.83213-189.1258-35.28385-78.8706-65.48566-79.7477-186.67235-8.9744-256.76104 63.7369-55.941605 167.0207-64.891564 238.7167-6.65053 78.8163 58.35315 90.3045 169.04089 40.972 246.62443-35.2274 56.41892-88.4571 87.60135-152.5581 93.63158-81.9488 2.18264-160.666-41.91503-196.8695-120.9383-36.2055-79.02511-22.5771-164.33167 26.8727-227.66064 49.4316-63.30896 138.3491-86.746364 220.4504-67.54202" fill="#c50"/></g><path d="m157.86524 345.61725c-20.01745 18.72376-38.30355 46.47824-39.45117 70.20508 1.02292 19.92747 7.03573 34.61015 13.1875 53.72461 17.79029-12.55502 36.85999-26.48602 49.60352-39.73829 6.63452-7.00141 13.28704-13.89013 16.1875-25.82812.82652-3.4019.94395-7.68613.13476-12.00977 6.63699-2.65061 14.20823-3.8501 22.4336-2.83984 31.33533 3.85221 53.78452 26.5438 58.40234 53.29102l-.0684 74.82421 73.26953.36914-5.95605-78.93554c-5.66703-50.46172-40.69722-93.31823-89.13378-108.79297 13.69334-12.33522 19.65247-30.68416 27.25977-47.35938 4.61928 1.5089 8.92566 4.08407 12.4414 7.85352-.24832 2.54786-.40039 5.12215-.40039 7.72852 0 33.96284 25.7126 61.06661 57.11328 64.67578 3.03377.87355 6.20742 1.49609 9.55664 1.49609 19.0905 0 33.46283-16.21111 34.82813-33.4668 1.01987-12.88988-3.92197-25.00021-11.45899-32.35742-12.36421-10.36029-20.78139-10.87538-35.22656-11.64258 2.27654-5.11346 5.9837-9.36826 10.73242-12.17968 29.79493 28.49999 76.2577 27.1807 103.79688-.27149 4.69128-7.67172 5.05937-10.84424 8.02343-17.41406 2.26355-11.76362-1.01681-24.40659-11.66699-34.67871-16.36738-10.33262-32.53504-13.47604-47.45996-12.05567l-28.39258 2.70118c-1.16885-9.2316.84237-18.74773 6.25196-26.92969 33.16891.12659 61.4853-22.85464 69.4082-56.85745 1.97857-13.93381-2.28223-23.63682-7.96873-30.168002-5.68685-6.531593-12.74489-10.853656-21.10938-12.736329-17.78739-4.00359-38.08502 4.057001-46.89062 23.109371l-8.74609 18.92383 17.77734 5.24024c-19.34224.41514-34.57402-20.86963-34.83203-34.179701 10.2467-21.299969 8.62332-46.108247-3.83594-65.511718-1.73996-4.469347-4.37128-8.713991-7.94922-12.292969-13.76113-13.765147-36.62445-13.7668085-50.38672 0-13.0382 14.462942-15.0436 33.408721-18.52734 52.070312-2.02904-23.643364-14.65079-45.203663-36.27148-55.865224-9.01018-5.744198-20.84819-8.0895304-30.83399-7.224609-14.25544 1.286279-26.38297 11.808712-30.10937 25.722656-4.17295 23.353308-.47937 46.573841 1.56054 70.845703-2.2205-.0132-4.46489-.26119-6.73437-.62109-13.50343-9.83289-31.92732-15.765476-54.25195-14.001957-12.9325 2.056736-25.522302 5.639273-33.681646 14.900387-7.963343 9.1927-9.919906 22.08231-7.134765 32.47852 3.69719 13.80171 11.658715 20.24765 18.246093 26.78516 6.272818 5.7583 13.380118 14.04443 21.697228 15.20312l26.66211 3.33398c-3.21979 16.40285-17.03529 30.18892-40.13281 35.27443-24.205441.86725-45.686306 10.59885-61.558599 26.02638-7.312718 5.52397-13.051797 13.38398-15.585937 22.84375-2.437193 9.09766-.795293 14.96349-.0332 22.38672 3.519296 16.50241 5.953121 34.39947 12.207031 48.69726 5.33519 11.89849 20.956884 33.03262 20.956884 33.03262l14.023585-36.25137c1.292328-9.96455 8.663938-18.10052 18.28125-28.48633 7.355626-8.7819 13.395656-14.75188 15.628906-24.75586 14.24228 2.7105 30.45041 13.73755 37.55482 23.87261 7.40179 10.8814 10.62174 24.21625 8.56241 37.83642zm155.96484-273.894594c-.33323 3.25903-1.62546 6.515238-4.4707 9.361328-4.84135 4.842763-10.73407 7.639324-16.83399 8.666016 7.42598-5.130456 13.26636-14.336883 21.30469-18.027344zm-91.8418 5.871094c.14709 1.606566.079 3.279303-.47656 5.138672-2.83909 9.498992-11.71405 17.729628-23.08008 21.767578l14.34961-18.642578c2.51784-3.27124 5.96542-6.102212 9.20703-8.263672zm35.41602 59.05469c5.06451 1.95778 10.25426 3.40058 15.54297 4.33398-1.19934 2.14034-2.23395 4.39314-2.89258 6.85156h-.002c-.68238 2.54801-1.01751 4.82655-1.16015 6.92969-7.33732-3.79706-15.2598-6.11651-23.28906-6.79492 4.26347-3.38401 8.19304-7.17673 11.80078-11.32031zm-55.6875 76.64453c8.02887 6.27085 16.45432 5.7512 22.34765 5.85547 7.37438.13047 13.47657-.94922 13.47657-.94922l15.07226-2.53516c.61781 6.9112-2.11075 13.79584-7.83789 18.77735-3.70907 1.50279-7.47362 3.20144-11.24609 5.38867v.002c-14.64374 8.49089-24.60644 21.63119-29.66211 36.19336-6.49282-10.80379-14.694-20.58079-24.41602-28.83789 9.65147-9.70027 17.21325-21.24793 22.26563-33.89453z" fill="#994100"/><path d="m450.41094 236.31417c-11.56409-7.09838-23.1282-9.28071-34.69229-8.18017 15.23721 13.19931 23.0509 24.50613 5.05028 32.31046-12.37936 2.34298-26.12243-.992-36.36606-11.20272-3.53358-3.52236-6.51835-7.37918-8.96306-11.46364v-1.34836c-.25384 0-.50417.0149-.75714.0175-12.36272-21.95629-9.34819-50.07648 9.08123-69.06639.71337.10682 1.43024.20488 2.15324.28894 27.69447 3.21328 51.73019-15.33097 57.24195-39.83337.46391-1.28006.79477-2.62929.96108-4.03894 1.16852-9.89902-7.56474-18.14339-15.86918-20.01255-9.64181-2.17018-21.55847 2.1961-26.59874 13.10156 17.21254 5.07401 17.62862 17.13369 18.3044 21.79367-7.33325 8.7538-19.0115 14.26017-32.15596 12.73495-28.33879-3.29034-48.55645-28.14734-46.26317-56.223753 9.98367-17.044426 8.76175-38.279257-2.14185-53.611974-.81403-2.686202-2.27578-5.216555-4.39838-7.339776-6.88336-6.885363-18.04517-6.886238-24.92853 0-6.88423 6.886239-10.25505 24.935802-10.25505 24.935802 7.68016-6.832598 25.12428-12.262429 31.24998 2.95062 2.56113 10.611725-.0263 22.733781-8.97357 31.683703-17.41583 17.420918-44.44769 19.031058-63.64301 4.834813.19082-.639155.37463-1.27831.54794-1.92622 7.23435-27.007364-3.34724-53.868981-26.38337-63.859061-2.16374-2.258932-8.69862-3.646217-16.47118-4.422396-7.77256-.77618-15.02004 4.461389-17.15577 12.435943-2.53224 9.449863-.46771 34.005908-.46771 34.005908 9.70118-12.60403 25.05387-20.132206 31.61873-18.634667 8.28559 8.055104 12.19292 19.691228 8.6217 31.642551-7.87419 26.345447-38.95082 42.838267-69.65719 35.633767-10.74342-9.27606-24.37446-14.80694-45.51118-13.13726l.00002.00004c-21.13673 1.66968-27.900171 13.38198-24.847127 24.7782 3.053047 11.3971 24.789227 28.7851 24.789227 28.7851-2.99643-.37466 4.7524-23.93515 16.84701-30.45829 12.24544 6.44234 21.65928 17.17664 24.76659 30.55687 7.81905 33.67821-15.38251 66.22696-53.99108 74.33022-1.16678-.0122-2.33005-.009-3.48632.035-18.950229.69169-36.449212 8.6785-49.226831 21.26722-4.924434 3.19315-8.73111 8.14879-10.36967 14.26542-3.514327 13.11844 11.91583 60.89324 11.91583 60.89324 4.379221-33.76614 45.896401-46.06877 32.580883-67.71644 8.607698-2.19414 18.032918-2.36137 27.603438.12258 40.40382 10.48389 64.10167 49.97667 53.91669 88.77075-16.35672 10.95144-28.53914 27.43113-33.68502 46.36938-1.3217 2.65731-3.80827 9.25346-4.002 14.15209-.32299 8.16759 4.78839 24.04959 4.78839 24.04959s61.91838-44.21029 29.84558-52.62819c12.51065-12.04239 30.83417-19.18341 51.12273-16.69071 39.31407 4.83307 68.67336 33.98729 74.20787 69.25902 1.1702 20.39632.7464 39.72997-.0536 58.81282l35.83691.18067c-1.36831-16.5497-2.70617-32.26489-4.44586-58.99349-5.59317-49.80506-44.59212-91.2477-96.40984-97.90279-2.9375-.37649-5.84875-.59976-8.72673-.67418-6.99627-.18036-13.79997.51395-20.31395 1.9665 3.29988-39.72568-18.07493-77.74927-53.49304-95.7034 32.1725-18.04343 49.38701-56.3402 39.40422-93.60907-.47528-1.77475-1.0206-3.50572-1.63068-5.19379 26.6765 1.38075 52.02079-12.50467 65.31921-35.46697 22.59322 14.68918 52.38666 13.99837 74.28665-2.10133 4.15767 22.40194 19.34849 41.48553 40.29002 50.58955-17.10335 22.20232-20.01109 51.89414-8.73111 76.62418-15.25646 4.60542-28.04459 14.986-35.81724 28.58249-11.38152-12.39173-27.02924-19.61243-43.28355-20.66922 5.70695-9.41659 8.52279-20.2691 8.24532-31.13911 4.88592.0464 9.6738-.77574 14.17372-2.35086 1.1624 5.61405 4.03513 10.94706 8.54905 15.09631 24.74688 14.2126 31.6874 1.0152 32.94877-21.20672-5.99825 4.06569-15.65044 14.5501-21.87886 9.15909-4.68986-4.31123-5.21329-10.5697-1.87314-14.99563 4.1209-4.67721 7.25885-10.33505 8.97181-16.73623 4.56294-17.0383-5.09687-33.89273-20.34195-39.23886-1.25868-.93685-2.70293-1.66356-4.3091-2.09521-6.81245-1.8264-13.81572 2.21691-15.6416 9.03223-1.825 6.81444 2.87743 18.72358 2.87743 18.72358 5.12752-9.43698 14.8929-8.55436 17.99846-5.9291 3.4338 3.83055 5.18615 9.40959 3.61498 15.27318-.87529 3.27282-2.33879 6.21644-4.23644 8.7573-.709.74685-1.35847 1.52609-1.96067 2.32897-5.49688 5.76115-13.53038 8.73629-21.80371 7.60332-1.86614-5.57378-4.6172-10.94706-8.31534-15.90007-9.24579-12.3786-23.42914-18.24306-37.19759-17.5899-6.43608.30644-12.77937 2.04179-18.48632 5.19642-2.26878.46141-4.47453 1.39913-6.45096 2.87707-7.1582 5.34964-8.62695 15.49119-3.27887 22.65235 5.34808 7.16029 24.35317 3.9637 24.35317 3.9637s-8.71158-11.97852 4.08705-18.30616c8.65671-.59888 17.82722 2.9156 23.86679 11.00135 13.44459 18.0014 9.78934 43.24803-8.12716 56.80074-3.98698 1.45517-7.97572 3.22817-11.82354 5.45908-16.00922 9.28264-24.44711 25.86389-24.56615 42.3716-1.78561 4.55289-1.56941 9.84124 1.06524 14.40638 4.59532 7.9588 14.76893 10.68703 22.72627 6.09124 7.95647-4.59404 13.26625-16.23439 13.26625-16.23439-14.40471 1.91162-16.90853-5.64339-18.94519-14.60003 2.41057-7.13402 7.29124-13.60612 14.65689-17.87707 22.33063-12.94683 50.56603-5.81631 64.30648 15.98763-.84466 4.05907-1.29194 8.25911-1.29194 12.56158 0 25.37095 19.59095 45.05605 42.48703 46.98753 1.9169.7556 3.99749 1.18462 6.18224 1.18462 9.32456 0 16.14876-7.58862 16.88452-16.8877 1.30686-16.51712-11.0011-23.61257-19.6192-24.07009 6.05041 16.25162-5.39296 19.42703-13.61591 19.93222-9.17314-5.0537-15.96021-14.95448-15.96021-27.1457 0-22.07099 15.58033-40.33156 36.39319-44.44667 1.93179 2.49096 4.04038 4.8856 6.33017 7.16905 22.8173 22.74428 58.74746 21.52113 79.42553.65579 5.55465-7.63484 4.97695-18.34725-1.87227-25.17483z" fill="#ffa348" stroke-width="36"/></svg>