<svg height="500.0004" viewBox="0 0 500 500.0004" width="500" xmlns="http://www.w3.org/2000/svg" xmlns:xlink="http://www.w3.org/1999/xlink"><filter id="a" color-interpolation-filters="sRGB" height="1.148175" width="1.15187" x="-.075935" y="-.074088"><feGaussianBlur stdDeviation="14.042664"/></filter><filter id="b" color-interpolation-filters="sRGB" height="1.036996" width="1.038018" x="-.019009" y="-.018498"><feGaussianBlur stdDeviation="2.5115709"/></filter><g transform="translate(-500 -500)"><path d="m999.99997 750a249.99997 250 0 0 1 -249.99997 250 249.99997 250 0 0 1 -249.99997-250 249.99997 250 0 0 1 249.99997-250 249.99997 250 0 0 1 249.99997 250z" fill="#ffe24c"/><path d="m1000 750.00632-194.05817-2.60063 192.98367-20.4591-193.45987 15.31075 190.28547-38.19139-191.22567 33.10816 185.92267-55.58184-187.34707 50.61663 180.01317-72.50831-181.88127 67.68555 172.56127-88.82024-174.86477 84.18876 163.62798-104.35075-166.35478 99.94311 153.30278-119.00625-156.40808 114.88758 141.65488-132.65651-145.14668 128.82271 128.82258-145.14278-132.65648 141.65492 114.88758-156.42029-119.00218 153.31093 99.94719-166.3385-104.34669 163.60764 84.17649-174.84041-88.81609 172.54909 67.67739-181.89345-72.48799 180.02133 50.6167-187.35925-55.5941 185.94294 33.1-191.23373-38.1995 190.27732 15.3474-193.45586-20.4957 192.97968-2.59249-194.05413-2.5681 194.05413-20.4916-192.97968 15.327 193.45586-38.2004-190.27732 33.1171 191.23373-55.5936-185.94294 50.6162 187.35925-72.51029-180.02133 67.69979 181.89345-88.81699-172.54909 84.17729 174.84041-104.36289-163.60764 99.96869 166.3385-119.00618-153.31093 114.86968 156.42029-132.64018-141.65492 128.81968 145.14278-145.14988-128.82271 141.67318 132.65651-156.42638-114.88758 153.29788 119.00625-166.34218-99.94311 163.62828 104.35075-174.86477-84.18876 172.54667 88.82024-181.87387-67.68555 180.00617 72.50831-187.35587-50.61663 185.94077 55.58184-191.21897-33.10816 190.28097 38.19139-193.47947-15.31075 192.98647 20.4591-194.04384 2.60063 194.04384 2.58435-192.98647 20.46723 193.47947-15.31481-190.28097 38.20361 191.21897-33.12445-185.94077 55.58997 187.35587-50.60849-180.00617 72.5083 181.87387-67.68553-172.54667 88.81211 174.86477-84.17656-163.62828 104.33851 166.34218-99.95936-153.29788 119.0103 156.42638-114.87941-141.67318 132.66054 145.14988-128.83082-128.81968 145.13868 132.64018-141.66304-114.86968 156.42028 119.00618-153.28243-99.96869 166.32222 104.36289-163.59543-84.17729 174.84852 88.81699-172.55719-67.69979 181.8975 72.51029-180.02538-50.6162 187.35108 55.5936-185.93884-33.1171 191.21336 38.2004-190.26101-15.327 193.47618 20.4916-192.99594 2.5681 194.05003 2.59249-194.05003 20.4957 192.99594-15.3474-193.47618 38.1995 190.26101-33.1-191.21336 55.5941 185.93884-50.6167-187.35108 72.48799 180.02538-67.67739-181.8975 88.81609 172.55719-84.17649-174.84852 104.34669 163.59543-99.94719-166.32222 119.00218 153.28243-114.88758-156.42028 132.65648 141.66304-128.82258-145.13868 145.14668 128.83082-141.65488-132.66054 156.40808 114.87941-153.30278-119.0103 166.35478 99.95936-163.62798-104.33851 174.86477 84.17656-172.56127-88.81211 181.88127 67.68553-180.01317-72.5083 187.34707 50.60849-185.92267-55.58997 191.22567 33.12445-190.28547-38.20361 193.45987 15.31481-192.98367-20.46723z" fill="#fffbb3" fill-rule="evenodd"/></g><path d="m338.79489 368.25981 83.39824 58.87953-58.23222-83.85219-40.85742-58.83203c-64.4766-93.35839-130.26335-186.620582-209.33201-267.906292l-56.70109-44.308157 28.318282 66.714407c26.839558 41.185613 46.151698 73.694532 57.070308 96.023442 2.00865 4.10774 3.40153 7.46131 4.83204 10.84765-3.07635-1.83466-6.05342-3.55905-9.75391-6.05078-21.3929-14.40495-52.770044-39.55256-93.585938-75.378906l-65.589878-33.162918 39.683628 57.965653c76.50124 95.213511 167.649128 169.989341 262.663068 238.050801z" fill="#fffbb3" filter="url(#a)"/><path d="m404.39062 225.58008c-9.66979.36645-19.68003 2.42812-29.47851 5.66992-26.12927 8.64479-53.58137 26.1007-79.04883 50.41406l-.29883.28516-17.69922 18.51367-.27539.31641c-22.91805 26.31935-38.97395 54.26795-46.37304 80.54492-7.3991 26.27697-6.42064 53.69326 12.1289 71.49805 19.76755 18.97331 49.27146 17.74751 77.14453 7.56835 27.87308-10.17915 57.15577-30.05679 83.53125-57.53515 26.37635-27.47904 45.03449-57.55102 54.0586-85.81836 9.02422-28.26771 9.03239-57.79483-10.73242-76.76758v-.002c-11.66878-11.19938-26.84072-15.29826-42.95704-14.6875z" fill="#f2c80d"/><path d="m291.16496 312.59928c-42.9165 49.2858-58.959 104.58-35.35469 127.2366 25.155 24.1443 85.7853 2.0628 135.22499-49.4442 49.4406-51.507 69.00121-112.9923 43.848-137.1375-23.76-22.8042-78.8868-4.113-126.5913 41.4297z" fill="#fffdcc" stroke-width="36"/><path d="m413.78996 275.24928c19.24741 18.4752 4.4172 65.4912-33.4134 104.904-37.8315 39.4146-84.5613 56.529-103.8096 38.0547-17.9568-17.235-5.6925-59.39281 26.748-96.97501l13.5-14.2038c25.6734-24.56729 54.162-38.93669 75.15-39.23325 8.8785-.12644 16.4106 2.25676 21.825 7.45336z" fill="#f2c80d"/><path d="m313.32656 328.32047c-23.85 27.9675-32.616 58.9878-19.2654 71.802 14.427 13.851 49.185 1.16461 77.5404-28.377 28.3563-29.5425 39.6-64.791 25.173-78.6375-13.6845-13.13279-45.5202-2.27969-72.9576 24.075z" fill="#fffdcc"/><path d="m384.65156 305.70798c11.0403 10.5966 2.54431 37.5822-19.15199 60.1875-21.69901 22.6062-48.501 32.4216-59.5422 21.825-10.1205-9.71371-3.4884-33.23701 14.4-54.50581l8.3529-8.94509c14.814-14.28751 31.2966-22.6656 43.42499-22.83705 5.094-.0716 9.4113 1.29645 12.5163 4.27545z" fill="#f2c80d"/><path d="m336.53037 344.43768c-8.77141 9.89999-12.62431 20.394-8.6067 24.4116 4.41359 4.41269 16.6347-.6615 27.3087-11.33551 10.67399-10.67399 15.7482-22.923 11.3346-27.33749-4.3002-4.3002-16.02.4284-26.4942 10.548z" fill="#fffdcc"/><path d="m308.29196 294.68388c-64.7784-93.7953-130.4073-186.7527-208.743295-266.991305h.0009c110.222995 168.851705 96.947995 194.553005-67.473 50.2317 75.009595 93.357005 164.745005 167.094005 259.088395 234.675005l58.01102 40.95604z" fill="#ffe24c" filter="url(#b)"/><path d="m308.29196 294.68388c-64.7784-93.7953-130.4073-186.7527-208.743295-266.991305h.0009c110.222995 168.851705 96.947995 194.553005-67.473 50.2317 75.009595 93.357005 164.745005 167.094005 259.088395 234.675005l58.01102 40.95604z" fill="#f2c80d"/></svg>