<svg height="500" viewBox="0 0 500 500" width="500" xmlns="http://www.w3.org/2000/svg" xmlns:xlink="http://www.w3.org/1999/xlink"><radialGradient id="a" cx="1362.7291" cy="216.11429" gradientTransform="matrix(1.0000001 -.0000059 .0000001 1.0000003 -112.72927 33.893757)" gradientUnits="userSpaceOnUse" r="250"><stop offset="0" stop-color="#ff851a"/><stop offset=".42441937" stop-color="#f87000"/><stop offset=".86367416" stop-color="#f26900"/><stop offset="1" stop-color="#e55f00"/></radialGradient><g transform="translate(-1000)"><path d="m1500 250a250 250 0 0 1 -250 250 250 250 0 0 1 -250-250 250 250 0 0 1 250-250 250 250 0 0 1 250 250z" fill="url(#a)"/><path d="m1309.2298 33.82789c128.5196 30.706851 207.8974 167.48127 169.5927 291.56949-31.3771 95.69524-112.8693 162.03793-212.5543 174.60263 153.1796-8.09118 266.0956-163.0043 218.7012-309.92978-36.4562-114.666588-154.6038-191.5214848-270.6514-169.822657-18.8526 4.215647-38.4387 10.498641-55.8829 18.694487-112.5353 47.459213-168.47522 196.206-99.9632 307.85319 57.6978 93.63045 168.5136 141.8489 267.9993 100.77239-134.92 68.97589-303.283-51.46877-311.488-201.30723-4.4167-117.68321 76.8182-219.674136 190.654-246.26040176-89.0147 9.18391126-152.6601 79.39239576-187.7408 157.21169176-38.45522 102.70317 5.2337 231.75078 109.038 294.08388 114.5107 66.1048 260.3537 29.37245 323.6836-83.60152 42.2104-77.69758 34.3514-177.62383-23.1776-249.88923-57.5404-72.257811-157.5429-102.460489-246.4118-71.877168-81.7429 30.682061-131.1298 101.133078-134.0478 190.176958.6692 92.68536 61.7912 168.55972 147.5399 198.52472 128.5549 37.82014 266.7725-70.33038 233.6823-209.88949-14.7104-64.39775-57.8855-122.14991-125.7378-141.121386-71.391-15.467036-138.9716 1.205-181.2869 64.641366-18.8995 29.2286-28.9384 85.21395-26.105 97.65297m0 0c13.5324-50.18833 30.6277-97.66354 72.2125-128.94941 53.182-38.308183 124.4576-37.093813 181.7444-.48035 50.1457 36.48017 75.4845 90.37713 72.3557 150.91678-6.6674 64.04407-38.4038 109.83277-91.6401 141.00844-63.9019 34.56125-135.3795 4.83213-189.1258-35.28385-78.8706-65.48566-79.7477-186.67235-8.9744-256.76104 63.7369-55.941605 167.0207-64.891564 238.7167-6.65053 78.8163 58.35315 90.3045 169.04089 40.972 246.62443-35.2274 56.41892-88.4571 87.60135-152.5581 93.63158-81.9488 2.18264-160.666-41.91503-196.8695-120.9383-36.2055-79.02511-22.5771-164.33167 26.8727-227.66064 49.4316-63.30896 138.3491-86.746364 220.4504-67.54202" fill="#c50"/></g><g><use stroke-width="1.25193" transform="matrix(.79876869 0 0 .79876869 -28.454067 -169.20785)" xlink:href="#b"/><use stroke-width="1.25193" transform="matrix(.79876869 0 0 .79876869 -193.33815 -120.62553)" xlink:href="#b"/><use transform="translate(15.925377 -139.21941)" xlink:href="#b"/><use transform="translate(-133.50583 -84.02701)" xlink:href="#b"/><use transform="translate(-224.42801 -19.80418)" xlink:href="#b"/><g id="b" stroke-width="1.66136" transform="matrix(.60191805 0 0 .60191805 256.45088 227.906)"><g stroke-width="1.66136"><path d="m223.18945 299.22266c11.16871 50.82629 22.33842 101.65237 33.50782 152.47851h53.79687l-12.12109-122.97656zm-137.212888 58.15625c6.90846 31.44098 13.818753 62.88156 20.728518 94.32226h53.79687l-8.63867-87.63086z" fill="#994100" stroke-width="1.66136"/><path d="m248.00861 328.29853 23.16244 105.40212h19.46238l-9.09279-92.24395zm-139.11526 49.49952 12.28477 55.9026h19.46238l-5.24518-53.21099z" fill="#ffa348" stroke-width="59.8088"/></g><path d="m327.50972 371.25789 50.65429-54.02929c-18.95383-12.38699-42.34822-27.73849-45.83203-49.1875-1.98848-19.04186 3.63709-36.6605 9.57227-54.35352 11.84674-22.74742 11.72956-47.99311 13.51562-74.41602-29.42937 11.9612-48.78175 19.58859-68.95703 44.5918l-1 1.16992-5.24023-2.1875c-3.35962-18.32864-10.76772-27.68827-23.55483-41.72103-8.74957 6.5189-18.55038 13.75678-25.01953 21.47266l-86.16973-35.90405 8.74609 19.16601-13.14844-5.02148 5.36719 33.93359-129.177735 82.65821-9.59375 116.84765 23.271484-2.42578c10.072725 27.4552-1.595075 53.72712-11.751953 80.19336h59.636719l25.183595-51.61328c4.93167 4.84388 6.75505 4.06621 13.00586 2.40234l-1.44336 12.33789 72.42969-20.74609c9.13739 11.3346 16.48062 23.43783 20.21289 42.99414l2.79101 14.625h55.51172l-19.22266-83.57226c6.96074 3.13651 14.63205 4.83654 22.58985 4.61132z" fill="#994100" stroke-width="1.66136"/><path d="m220.25482 217.55257c.17254-10.37821 1.84617-23.99153 7.85052-36.93194l-47.20663-19.66943 7.93678 17.39192-25.12166-9.59317 2.34653 14.83835-131.585047 84.19897-7.087897 86.33845 12.581535-1.31129c25.515049 28.8485 5.410819 81.2313 5.410819 81.2313h22.202302l21.249891-43.54881s-28.634555-50.65742-5.383213-86.20043c-2.546674 55.9026 30.1598 80.81721 30.1598 80.81721l24.36248-6.48746-1.38031 11.80166 40.71918-11.66363s-46.10239-39.89099-25.19068-88.40892l10.55938-6.2114c-11.18052 82.12851 49.6912 79.02281 63.21825 149.90178h18.01305l-35.543-154.52582 12.21575 6.90156s9.04103 26.01886 16.08062 46.1714c4.83109 13.80311 18.08208 22.91316 32.71337 22.49907l20.22156-.62114c8.14383-6.14239 11.31855-12.4228 11.73264-18.22011.20705-3.45077-.41409-6.62549-1.38031-9.24808-5.17617 7.38466-14.70031 16.21865-30.71192 16.77078l-.34508-11.5256c19.60042-.62114 25.32871-18.91026 25.32871-18.91026.62114-2.00145 2.27751-3.45078 4.34798-3.93389 2.00145-.41409 4.14093.34508 5.52124 1.93244 0 0 9.66218 11.31855 8.69596 25.67378-.34508 5.3142-2.07046 11.11151-6.34943 16.90881l13.04394-.41409 31.057-33.12746c-47.96581-32.16125-37.95855-66.53099-30.29783-101.31483l-43.9629-18.35814c1.44932 13.87213-10.2143 25.32871-10.2143 25.32871s.41409-27.26114-5.3142-46.99959c-1.58736-5.45223-3.45078-10.49036-6.28042-13.59606-30.50487 23.25824-21.80891 67.49721-21.80891 67.49721s-12.57808-5.00363-12.40555-15.38185zm115.21622-50.05179s-10.86327 4.69439-15.58217 8.1791c-7.50934 5.54533-19.73536 19.86916-19.73536 19.86916l25.40179 10.60734s5.70806-12.39058 7.38364-18.96394c1.63467-6.41286 2.5321-19.69166 2.5321-19.69166zm-84.10746 92.21167s6.69451.13803 13.45804 3.31274c6.6945 3.1057 13.52704 9.17907 13.66507 20.91172-37.06135 2.82963-27.12311-24.22446-27.12311-24.22446z" fill="#ffa348" stroke-width="59.8088"/></g></g></svg>