<svg height="500" viewBox="0 0 500.00009 500" width="500.00009" xmlns="http://www.w3.org/2000/svg" xmlns:xlink="http://www.w3.org/1999/xlink"><radialGradient id="a" cx="1249.9998" cy="1250.0005" gradientTransform="matrix(-.98953604 .00000022 -.00000023 -.98953592 2486.9201 2486.9201)" gradientUnits="userSpaceOnUse" r="250"><stop offset="0" stop-color="#393"/><stop offset=".7379747" stop-color="#393" stop-opacity=".9"/><stop offset="1" stop-color="#393" stop-opacity=".1"/></radialGradient><g transform="translate(-1000 -1000)"><circle cx="1250" cy="1250" fill="#2ad52a" r="250"/><path d="m1259.1113 1000.2227c6.0787 8.1867 11.6008 16.3989 17.7403 25.2695 6.4473 10.7441 10.7435 20.7695 15.7558 31.5137 5.0164 12.1707 7.8613 23.6288 10.7481 36.5234 9.288 50.8422-2.1752 103.8318-37.2481 141.0723 0-.7112-.7109-1.4278-.7109-1.4278 19.3333-25.785 29.3402-53.7128 31.5156-84.5058 3.5252-54.6553-20.3712-108.5909-57.7559-147.8926a250 250 0 0 0 -25.1777 1.8652c29.6382 25.6568 52.2495 57.5944 64.3047 95.1817.7199 2.8659.7195 5.0133 2.1543 7.875.7152 1.4392.7148 2.8656.7148 4.3007.7151 1.4309 1.4258 2.1492 1.4258 3.5801 8.5936 41.5331 5.0177 81.6354-19.332 118.1563 0 0-.7159-.7149-1.4316-.7149 7.878-15.0367 12.8899-30.7934 15.7558-47.9765 2.1462-15.0451 2.1462-30.0741 0-45.1192-7.7667-53.6496-39.9167-100.3156-82.6797-131.1308a250 250 0 0 0 -24.1113 6.6113c51.6103 29.4849 91.1045 80.6551 98.9141 140.9922 2.8617 25.7808.7144 51.5653-10.0254 75.1914-.715 0-1.4356-.7149-1.4356-.7149 0-2.1505 1.4367-4.2968 2.1524-6.4472 7.1626-27.9272 6.4413-56.5696-2.1524-83.7813-6.4388-19.3335-14.3251-36.5286-26.5-52.9961-2.1464-2.1422-3.5729-4.2971-5.0078-6.4433-21.1831-25.4241-45.8631-44.5473-74.6953-58.8067a250 250 0 0 0 -21.6309 10.793c6.5543 2.5352 13.0785 4.6847 18.9844 8.6231 1.4349.7197 2.866.7185 4.2969 1.4296 30.0732 15.041 54.4276 35.0902 74.4805 63.0215 26.4918 37.2403 37.2348 79.4936 27.9257 123.8926h-2.1445c2.8576-13.61 1.4268-26.4971 0-40.1113-2.1463-17.8986-7.883-33.6502-16.4766-49.4024-9.3047-18.6182-22.1947-35.0937-37.955-50.1347-12.886-11.4512-26.4928-20.77-41.5293-29.3594-1.4394-.7155-2.8657-.714-4.3008-1.4336-13.1216-6.8977-26.9069-11.7862-40.7168-16.625a250 250 0 0 0 -19.8164 14.834c27.2471 5.1219 52.4727 14.9894 77 29.0097 1.4393.7113 1.4403 2.1462 2.8711 2.8575 48.6953 30.0818 81.6348 83.0747 78.7773 139.6445h-1.4394c-2.1464-42.9683-23.63-81.6342-55.8496-110.2852-2.1504-1.4266-4.3014-2.8617-6.4434-5.0039-.7199-.7195-2.1588-1.4391-3.5898-2.1504-.7198-.7197-1.4308-2.1459-2.8575-2.8613-31.7576-22.5818-66.2993-34.6892-103.6211-37.7832a250 250 0 0 0 -17.5566 17.7656c44.379-.3468 86.6488 11.1193 124.0352 38.6348 34.3742 25.0613 57.2934 60.8659 63.7363 101.6836h-2.1504c-11.4553-48.6917-45.829-84.5003-88.7969-105.9844-5.0122-2.1421-10.0251-4.3019-15.0332-5.7285-29.9954-11.8565-62.0181-15.5083-93.4336-13.0508a250 250 0 0 0 -14.0566 21.2305c27.237-5.9376 54.4858-5.1886 82.416-.2969 1.4393 0 2.1547 1.4278 3.5898 1.4278 37.236 7.8781 69.4608 25.0599 93.8106 53.7109.7152.7154 2.1458 1.4311 2.8613 2.1465 11.4595 15.0409 21.484 29.3671 26.4922 47.2656 0 0-.7159.7148-1.4316.7148-22.1993-50.8463-71.6099-84.5017-126.7481-93.0996-14.3256-2.1463-28.6476-2.8618-42.9687-2.1464-15.7922.6857-31.5757 3.3871-47.3672 7.3906a250 250 0 0 0 -9.3535 22.6972c53.966-20.0518 116.072-21.1149 167.7148 9.3008 24.3541 14.3255 42.9705 32.9461 56.5762 56.5723-.7153 0-2.1504.7168-2.1504.7168-23.6261-35.09-56.564-55.1401-96.6699-64.4492-45.8793-9.8844-91.7376-2.3147-132.1211 17.1035a250 250 0 0 0 -5.2578 24.1738c11.8425-8.0225 25.5316-13.5843 39.2675-19.0859 16.4717-6.439 32.9358-9.301 50.127-11.4473 53.7118-5.7319 108.8503 13.6017 143.2246 55.1348-.7152 0-1.4316.7207-1.4316.7207-32.9434-32.228-78.0582-47.9847-123.168-45.834-40.0458 2.105-77.977 17.3524-110.4942 40.2344a250 250 0 0 0 -1.6562 23.1445 250 250 0 0 0 .1582 2.2031c9.7025-8.8541 20.0701-16.4378 31.7852-23.3301 1.4266-.7154 2.1472-2.1497 3.5781-2.8652 54.4271-31.5085 121.7394-39.3869 177.5976-6.4433 4.2966 2.8617 7.8791 5.7266 12.1758 7.873 2.8659 1.435 5.007 4.2984 7.877 6.4531 0 0-.7188.7103-.7188 1.4258-7.8739-5.7278-16.4729-9.3099-25.0664-14.3262-5.7235-2.1422-11.4539-4.2928-17.1816-6.4433-32.2236-10.0246-65.8869-8.584-98.8262.7168-26.5003 7.8781-49.4161 21.4869-71.6113 38.6699-1.4309.7155-1.43 2.8708-2.8692 3.582-5.7391 4.4685-10.3788 9.0063-15.3613 13.9766a250 250 0 0 0 3.2168 24.2441c7.6485-10.4929 17.0276-18.7501 26.4688-28.1914 5.732-5.0122 11.4643-8.5907 17.1835-13.6113 28.6466-20.7602 59.4482-32.9432 93.8223-35.8008 30.7887-2.1505 62.2969 3.5821 88.793 19.3301-.7198.7196-1.4356 1.4394-1.4356 1.4394-10.7399-5.7276-21.4794-8.5977-33.6543-10.7441-15.0323-3.5814-29.3618-3.5827-44.3984-2.8672-59.2736 4.9389-110.1632 42.5815-142.4668 90.2695a250 250 0 0 0 7.8848 23.168c21.5324-39.6709 54.5662-73.0386 95.916-91.9531 12.8861-5.7319 25.7723-9.3121 40.0976-12.1738h4.2969c24.354-5.0123 48.6985-1.4265 71.6133 6.4433 0 .7155-.7148 1.4336-.7148 1.4336-41.5367-10.0246-82.3627-3.5769-118.879 17.1875-25.7764 15.0368-45.8338 34.3701-63.7363 59.4356-1.4308 2.8658-2.8571 5.0172-5.0117 7.8789-6.0277 10.0507-11.3701 20.1028-16.1523 30.1504a250 250 0 0 0 11.9316 21.8496c4.2795-14.0667 10.342-26.9669 17.1152-39.8203 3.5773-6.4482 7.1588-12.1801 11.4512-18.6231 19.3377-26.5006 40.8244-47.2652 69.4668-60.8711 15.0366-7.1627 30.079-12.889 46.5547-15.0312 15.7479-2.1546 30.7847-2.1546 46.541 0v2.1406c-40.8172-3.5814-81.6438 10.7413-113.8633 37.9531-34.4977 28.8676-55.7762 68.1292-66.0176 110.9492a250 250 0 0 0 15.3965 19.9317c8.5812-83.9256 76.2408-164.5466 163.7676-166.6875v2.1543c-53.7075 5.7278-99.5416 40.1039-125.3223 87.3691-.7151 1.4217-.7137 2.8564-1.4335 4.291-15.3505 27.2152-21.156 56.4787-23.4336 86.4512a250 250 0 0 0 18.9765 16.6563c-1.731-19.2309 1.01-37.2357 4.4571-56.5567 5.736-29.3622 17.1863-54.4283 35.1015-78.0586 23.6259-30.0778 53.7028-50.847 91.6543-58.0097 0 0 .7149.7162.7149 1.4316-10.0246 2.866-20.0514 7.1619-30.0801 12.1699-2.142 1.4392-4.2926 2.1548-6.4473 3.5899-16.4675 10.0202-29.3544 22.1957-41.5293 37.2324-17.1871 22.2038-27.9278 45.1177-34.375 72.334-2.1421 11.46-4.2961 22.9155-5.0117 34.375-.6747 14.1857-.049 28.9907 1.2227 43.25a250 250 0 0 0 21.9746 12.7324c-10.8605-43.8344-7.8659-90.9891 11.1777-132.6094 16.4716-36.5243 46.5407-65.8873 83.7891-80.9199v2.1504c-79.6336 39.1007-104.8481 141.0043-77.17 220.2597a250 250 0 0 0 22.7188 8.4727c-14.4982-34.5508-21.3719-71.1489-16.4473-109.1445 6.4473-47.9804 31.5112-92.3758 72.3242-117.4453 0 .7154.7149 1.4355.7149 1.4355-26.492 20.049-44.3977 46.5485-53.711 76.627-16.9638 51.6231-8.7629 106.7197 16.2696 153.6035a250 250 0 0 0 24.7636 4.9199c-47.5368-68.7828-54.0305-173.3788 14.1094-233.0059 0 0 .7202.7207 1.4395.7207-20.7684 22.9107-34.3744 50.1266-39.3867 81.6309-2.8743 20.0532-2.1538 39.3873.7207 59.4434 0 1.4317 1.4257 2.148 1.4257 3.5781 3.577 23.6307 12.8862 43.6833 24.3457 64.4472.7198 1.4402 2.1456 2.155 2.8653 3.5899 3.9235 7.8346 9.0743 14.4646 14.2949 21.0137a250 250 0 0 0 12.5625.8984 250 250 0 0 0 12.2285-.875c-22.7889-23.9455-40.7681-51.9443-50.5449-84.0566-.7117-2.8618-.7117-5.0178-2.1504-7.8829-.7151-1.4267-.7148-2.863-.7148-4.2929-.7116-1.4351-1.4317-2.1509-1.4317-3.586-10.0286-47.261-2.8607-94.5255 27.2168-131.7617 0 0 .714.7149 1.4297.7149-20.7643 30.0775-27.2152 67.314-22.9141 103.1269 6.3656 49.5223 32.3285 94.1338 69.5567 126.2754a250 250 0 0 0 23.6347-4.7168c-11.3997-8.7812-22.197-17.6647-32.3164-28.4668-7.1668-7.8773-12.8945-15.0406-19.3418-23.6308-9.3004-12.8946-15.0374-25.7811-21.4804-40.1075-2.1505-5.0122-2.8695-10.0246-5.0117-15.0351-11.4595-38.6764-9.3132-80.2083 9.3046-116.0137 0 0 1.435.7188 2.1504.7188-19.3373 44.3946-13.6059 95.2465 9.3047 138.2109 18.304 33.7797 45.6314 59.9136 77.1426 79.1523a250 250 0 0 0 23.4824-8.7578c-13.8256-5.6825-25.0677-13.351-37.6133-22.414-17.9066-13.6059-32.9295-27.2146-44.3847-45.836-13.6058-15.7513-20.7696-35.8037-27.2168-55.8535-4.2968-17.188-5.7272-34.3752-5.0117-51.5625.7151-10.0288 2.8612-18.6219 5.0117-28.6465.7151-1.4309-.7136-2.8652 2.8633-2.8652-10.0202 45.8339 2.1581 93.0993 31.5117 131.0547 2.1462 2.1458 3.5767 4.2922 5.0117 6.4414 23.9686 28.1946 53.514 48.0338 87.1934 60.9433a250 250 0 0 0 21.7949-12.6191c-36.0015-9.422-68.489-27.876-96.0977-54.7656-3.5813-4.2968-7.1588-7.8772-10.7402-12.1758-27.9269-33.6587-41.5362-75.9117-36.5156-118.1602.7068 0 2.1464.7149 2.1464.7149-1.4392 32.2241 7.87 62.3038 26.4961 90.2344 5.008 7.8824 10.0195 14.3291 16.4668 21.4843 5.7401 5.7263 11.4721 10.7387 17.1621 16.4668 15.7729 12.8946 32.2572 22.9196 50.875 30.7969 15.0012 6.1439 30.0589 10.3136 45.7168 13.7949a250 250 0 0 0 19.1895-16.8008c-23.714-1.5977-46.098-7.2452-67.793-16.3359-2.845-1.4301-4.9785-2.1464-7.8652-3.5781-23.6385-11.4549-43.68-25.7751-60.8672-45.8281-3.5813-5.0156-7.8778-9.3107-11.459-15.0371-2.866-4.3017-5.0113-8.6027-7.873-12.8946-2.1505-4.2971-4.301-9.3086-6.4473-13.6054-6.4473-15.7521-10.7435-31.5141-11.459-48.6973h1.4336c7.1584 42.9681 30.0781 78.7727 65.8789 104.5625 36.9219 26.2639 78.0845 37.0191 120.666 37.1992a250 250 0 0 0 15.1368-19.7793c-15.9337 2.4918-32.5188 1.1478-48.4454-.2383-15.7311-1.4367-30.7926-5.7288-45.8125-10.7461-5.0204-2.1458-10.0399-4.2931-15.0605-6.4355-43.6789-20.0612-78.0418-58.7321-90.2168-105.2774h2.1465c11.4594 34.3702 34.3737 62.3014 65.8945 81.6387 5.0205 2.8617 9.2884 5.0127 13.5977 7.8789 40.4071 19.8386 85.6836 24.9076 128.9492 16.6856a250 250 0 0 0 12.0273-22.0274c-67.0139 18.7479-147.066 7.7764-194.6836-49.0898-.7152-.7156-2.1515-1.4269-2.8711-2.1465-8.5892-10.7442-15.7513-21.479-20.7636-33.6582 0 0 .7155-.7109 1.4355-.7109 17.183 30.788 44.4044 53.7122 76.6192 67.3183 46.8563 19.157 100.7293 18.5967 147.6699-.2363a250 250 0 0 0 7.8711-23.4746c-44.1357 22.3909-95.1484 29.3015-144.0781 15.8281-20.7516-5.7235-39.4104-15.7574-56.5723-29.3633-11.4595-9.3049-21.4894-19.3287-29.3633-31.5078.7151 0 1.4316-.7168 1.4316-.7168 21.484 25.0613 47.9806 42.2544 79.4844 50.8438 47.2771 12.1791 95.2647 6.4461 138.2324-16.4688 1.4224-.7153 2.845-.7157 4.2676-1.4355 3.8132-2.5322 7.1216-4.4851 10.7774-6.3985a250 250 0 0 0 3.2148-24.6523c-2.0303 1.332-3.8807 2.8949-6.084 4.5605-2.8868 1.4307-5.0214 2.8572-7.9082 5.0078-54.3895 35.0942-120.996 44.4061-179.0254 16.4746-2.1337-1.4348-4.3096-2.8684-6.4433-3.5839-.7116-.7154-2.1326-1.4272-2.8438-2.1426-1.4643-.7237-2.1753-.7242-3.5937-1.4356-10.7398-7.1627-19.3382-12.8903-27.9317-22.1992 0 0 .7187-1.4394 1.4297-1.4394 2.1547.7154 3.5867 3.5864 5.0176 5.0215 38.6752 30.0734 85.9521 37.9544 133.1875 27.9257 10.0411-2.1464 18.6175-4.3001 27.9473-7.873 16.4843-7.1627 31.5035-13.6111 46.5234-24.3594 5.0205-4.2884 10.042-7.1533 15.0625-10.7305 1.8475-1.8656 3.7828-3.7227 6.1191-5.5859a250 250 0 0 0 .0352-.5039 250 250 0 0 0 -1.209-24.5488c-1.9013 2.0196-3.7833 4.3991-5.6562 6.2832-5.0206 4.3009-9.3293 7.8831-13.6387 12.1758-5.69 5.0122-12.1334 8.5931-17.8652 13.6054-5.0205 3.5814-10.042 5.7324-15.0625 8.5899-55.8539 33.6632-123.8831 37.2436-179.0215-1.4278 0 0 .7148-.7184.7148-1.4297 76.9865 44.9065 176.6129 9.6162 227.668-57.7949a250 250 0 0 0 -5.6504-24.2519c-28.6268 44.6149-72.0402 79.2691-126.7598 90.6367-32.257 5.7318-64.4725 3.5853-93.8261-10.7402 0-.7155.7148-1.4317.7148-1.4317 30.772 10.7442 63.029 11.4608 94.5332 2.8672 17.9069-5.0165 33.6389-12.8957 50.1231-22.916 8.6186-5.7276 15.0621-11.4594 22.9277-17.9024 12.1749-11.4554 22.1736-22.2042 32.2148-36.5253 4.854-7.6171 9.6938-14.5915 13.8672-22.8145a250 250 0 0 0 -9.9023-22.8926c-4.271 11.1344-9.8569 21.6231-16.1407 32.1016-7.1543 11.4595-14.3086 21.4836-23.6386 31.5039-14.3085 15.045-29.3703 27.9325-47.9883 37.957-35.7717 19.3377-76.6041 26.4995-115.2793 16.4707 0-.7112.7188-2.1465.7188-2.1465 33.6461 6.4431 66.6144 0 96.6542-15.041 30.7928-15.7523 55.1857-39.3855 73.7618-69.459 9.8777-16.2036 16.9425-31.7257 22.6269-48.5918a250 250 0 0 0 -14.0976-21.2187c-3.6026 17.7574-9.3016 34.1165-17.8184 50.4687-.7116 1.4435-.7111 2.87-1.4219 4.3008-15.773 29.3624-35.8136 52.9882-64.4726 72.3301-6.4429 4.2968-13.598 7.1581-20.041 11.459-6.4432 3.5772-13.5978 5.016-20.752 7.1582-17.1955 5.7276-35.1105 9.3135-53.7285 6.4434v-1.4258c22.9357-.7154 45.8215-6.4438 66.6152-16.4766 2.1336-1.4267 4.2679-2.1428 6.4434-3.582 15.0201-8.5937 27.1943-18.6137 39.3691-30.793 3.5981-4.2968 7.154-7.8727 10.752-12.1738 1.4226-2.1463 2.846-4.2972 5.0215-6.4434 20.5502-30.4983 33.3585-61.6986 37.791-96.3789a250 250 0 0 0 -17.7735-18.4394c-.7947 42.0639-12.9613 81.2984-38.6367 116.9648-27.2366 36.5209-65.8948 60.1641-109.582 65.168v-2.1465c24.3581-5.0123 45.8222-14.3178 65.1933-30.0742 20.0405-16.476 35.06-35.0938 46.5235-57.2891 16.3113-33.3061 23.4538-69.4228 21.5351-105.5605a250 250 0 0 0 -20.0058-14.3926c2.0747 17.5453 2.7515 35.1034 1.3164 53.3535-1.4226 10.0204-2.8468 19.3352-4.9805 29.3555-3.5982 15.041-8.6173 28.6412-15.7715 42.2597-20.0404 37.9434-53.7211 68.7456-94.5214 80.2051v-1.4394c30.8011-12.8905 55.8624-33.6513 74.4804-63.0176 2.8449-4.2927 5.0205-9.3086 7.1543-13.6055 7.8656-13.6058 12.1745-27.207 15.0195-42.2519 0-1.4267 1.4649-2.1512 1.4649-3.5821 5.7021-31.3488 5.7161-61.9795-2.0684-91.9082a250 250 0 0 0 -22.0332-10.4316c11.9449 34.1525 14.7229 70.3944 8.3282 107.3555-3.5564 15.7562-7.8653 30.7938-15.0196 45.1152-4.3095 7.8781-8.6181 15.036-13.6387 22.914-15.0196 20.7645-32.9223 35.8064-54.4062 47.2618-.715 0-1.4316-2.1426-1.4316-2.1426 12.886-7.1628 23.6209-16.4753 33.6621-27.211 16.4423-17.9068 27.1963-39.3913 34.3925-62.3105 13.4736-46.1217 7.9246-94.3409-10.291-137.7168a250 250 0 0 0 -24.2773-6.5859c14.0331 26.9379 24.5539 56.6295 26.6601 87.7363 2.1338 31.5045-2.8448 63.0133-17.1953 91.6602-1.4224 2.1504-2.8453 4.2966-3.5566 6.4472-.7116.7196-1.4647 2.1459-2.1758 2.8613-.7116 1.435-.711 2.147-1.4219 3.5821-10.7524 15.041-20.7595 29.3584-36.5156 39.3828 0 0-.7126-.7122-1.4277-1.4277 12.8904-9.3132 21.4808-22.2071 29.3672-35.8086 36.5245-60.8666 27.1931-132.4852-8.6036-191.2012-1.8078-2.4186-3.0885-4.3928-4.3125-6.6524a250 250 0 0 0 -24.8867-2.1503z" fill="url(#a)"/></g><path d="m1354.1206 549.72485c31.963-73.943 90.175-135.65 167.313-169.22-96.67 10.858-166.86 86.763-167.313 169.22zm-58.438 0c43.126-99.766 121.708-183.022 225.783-228.312-130.426 14.648-225.167 117.06-225.78 228.312zm-72.53 0c56.978-131.82 160.768-241.813 298.278-301.656-172.33 19.356-297.47 154.66-298.28 301.656z" fill="#83fc83" opacity=".75" transform="matrix(-.64187804 0 0 -.64187804 1155.0584 533.43402)"/><path d="m94.884713 196.56085-12.01917 29.30052 22.102997-8.71602 9.20943 49.65534 17.09056-33.59049 36.70526 38.4334-9.55093-52.33383 31.52146 3.816 1.59446.81728 2.4488 28.76823 47.15002 6.73997-7.34943 31.82528 86.51665 24.30647-36.93666-65.92938 6.13233-25.10172-58.76998-1.84237 8.56411-26.92647-25.61639-18.20922 1.42493-12.81761 31.80644 10.36638-18.91348-42.38307 25.95849-13.69019-39.76413-12.19113-1.04393-29.755047.0006.000607-21.09735 12.532021-28.18255 22.557509-17.10409 31.70759-32.74864 18.81365z" fill="#83fc83" opacity=".75"/><g id="b"><path d="m204.86034 86.462177c-5.98081-9.505339-20.92861-47.427922-40.57341-62.734046-19.4149-15.1269924-45.32493-24.57786789-69.92233-23.72223437-23.507506.81772109-48.501796 10.58057837-65.087256 27.25972837-17.994728 18.096378-29.36886894 45.263552-29.17773463 70.783203.16814114 22.449672 12.71154763 44.235882 26.59750363 61.876642 11.88773 15.10221 37.91882 29.50097 46.142731 34.57458l56.722656 34.99413 43.56836-43.56836-45.40772-35.35602c-14.42712-13.5094-49.650303-36.97003-48.318843-51.636206 1.33146-14.66618 5.404538-21.800437 20.853513-20.990235 15.44898.810202 40.95111 34.393821 51.83165 48.410061l35.36757 45.24814 43.5625-43.56445z" fill="#2e852e"/><path d="m41.93354 40.065531c-14.816823 14.353531-24.32201 36.481317-23.854909 57.105185.453364 20.017334 12.752319 38.996384 25.638948 54.320674 12.55456 14.9294 28.63455 21.50447 47.851836 33.68588l22.445105-22.46272c-14.014671-11.13809-28.112587-22.62558-33.040551-27.55295-23.207693-23.20769-25.888005-46.156532-8.166716-63.879036 17.723093-17.722504 40.397277-14.954084 63.879017 8.525226 4.91583 4.915828 16.36503 18.866087 27.4776 32.75619l22.501-22.501006c-12.18019-19.215482-18.31499-35.815667-33.6482-47.87008-16.16938-12.711782-36.86232-22.457018-57.429941-22.564295-19.137639-.099819-39.907456 7.121-53.653189 20.436932zm150.94205 59.8534-21.58954 21.589539c7.96194 10.05042 14.90243 18.95845 17.92545 22.8814l19.15898-19.15897s-6.65369-11.12837-15.49489-25.312571zm-69.89713 69.897129-21.53364 21.53364c14.18724 8.84242 25.31196 15.49488 25.31196 15.49488l19.16019-19.16018c-3.91504-3.01573-12.84739-9.9228-22.93851-17.86834z" fill="#83fc83" stroke-width="36"/></g><use transform="matrix(-1 0 0 -1 500.09732 499.95228)" xlink:href="#b"/></svg>