<svg height="500.00003" viewBox="0 0 500 500.00003" width="500" xmlns="http://www.w3.org/2000/svg"><g transform="translate(-500)"><path d="m926.7767 73.223311c45.24113 45.241099 73.2233 107.741109 73.2233 176.776699 0 69.0356-27.98221 131.53559-73.2233 176.77669-45.2411 45.2411-107.74109 73.22332-176.77669 73.22332-69.03559 0-131.5356-27.98219-176.7767-73.22332-45.2411-45.2411-73.22331-107.74109-73.22331-176.77669 0-69.03559 27.9822-131.5356 73.22331-176.776699 45.2411-45.241105 107.74111-73.22330934 176.7767-73.22330934 69.0356 0 131.53559 27.98220534 176.77669 73.22330934z" fill="#3b2f4f"/><g transform="translate(500)"><path d="m230.6486 0c-128.19182 22.346591-234.17086 139.43202-223.06447 273.24395 5.6201 44.55936 16.72649 83.63245 44.55937 122.70552l50.17947 50.17947c33.45298 22.34661 72.52606 44.55938 111.46533 50.17946 39.07308 5.62012 78.01235 5.62012 111.46534-5.62008 39.07308-16.72649 72.52607-33.45297 100.35893-61.28587 33.45297-39.07306 55.79958-83.63245 66.90595-139.43201v-61.28587c-5.62008-27.83287-11.10637-50.17947-22.34657-78.01235-11.10641-22.34659-27.8329-44.55937-50.17947-61.285858-27.83289-27.832879-61.28586-44.559368-100.35895-55.799569-27.83288-5.620101-55.79957-11.10639-89.25255-5.620101-78.01235 11.106391-139.43202 61.28586-172.885 128.191818-11.10639 27.83288-16.72649 61.28586-22.34659 89.25255 0 33.45298 5.6201 66.90596 16.72649 94.73885 22.34659 44.55936 55.79957 89.25254 105.97904 111.46532 16.72649 5.62012 33.45298 11.1064 55.79957 16.72648 122.70553 22.34661 234.17085-55.79954 250.89734-178.37127 11.10641-78.01236-22.34657-139.43203-72.52604-189.6115-100.35895-89.25255-267.62385-44.559369-312.18322 78.01235-5.6201 27.83288-16.72649 55.79958-16.72649 83.63245 5.6201 78.01235 55.79957 150.53843 133.81192 172.885 61.28586 16.72649 122.70553 5.62012 172.885-33.45298 11.10639-11.10637 22.34659-22.34657 33.45299-33.45297 61.28584-83.63246 44.55935-195.09778-44.55937-256.51746-27.83288-16.726488-55.79958-22.346588-89.25256-27.832879-22.34659-5.620101-44.55937 5.620101-66.90596 11.106391-27.83288 16.726488-50.17947 22.346588-72.52606 50.179468-27.83288 33.45298-33.45298 66.90596-39.07308 105.97904 0 55.79958 27.83288 117.08544 83.63245 144.91833 78.01235 44.55934 183.99139 11.10637 223.06447-72.52607 22.3466-55.79958 11.1064-128.19183-39.07308-172.88501-33.45298-27.83288-66.90596-39.07308-111.46533-39.07308-66.90596 5.6201-111.46533 55.79957-122.70553 122.70553-11.10639 72.52606 33.45298 139.43202 105.97904 150.53843 100.35894 16.72649 183.99138-89.25257 139.43202-178.37131-11.10638-16.72649-27.83288-39.07308-50.17947-50.17947-27.83288-11.10639-55.79957-16.72649-83.63245-11.10639-33.45298 5.6201-55.79957 27.83288-72.52606 50.17947-16.72649 27.83288-16.72649 55.79957-11.10639 83.63245 11.10639 33.45298 39.07308 61.28586 72.52606 72.52607 44.55937 16.72649 89.25255-5.62011 111.46533-39.07309 33.45298-55.79957 5.6201-117.08543-50.17947-139.43202-50.17947-16.72649-122.70553 27.83288-105.97904 89.25255 5.6201 16.72649 11.10639 39.07309 27.83288 50.17947 22.34659 16.7265 50.17947 16.7265 72.52606 11.1064 22.34659-11.1064 39.07308-33.45299 39.07308-61.28587-5.6201-16.72649-5.6201-39.07308-22.34659-50.17947-13.91644-8.36324-29.2379-11.13984-43.17107-8.34651-13.93317 2.79332-26.47803 11.15656-34.84128 25.073-5.6201 16.72649-11.10639 33.45298 9.50065 44.827 41.74932-49.10898 35.32635.40143 29.84006-16.45887v5.6201c16.72649-5.6201 22.34659-22.34659 27.83288-33.45298 5.6201 5.6201 16.72649 11.10639 16.72649 22.34659 11.10639 39.07308-27.83288 72.52606-66.90596 61.28586-33.45298-11.10639-44.55937-50.17947-39.07309-83.63245 5.62011-22.34659 22.3466-39.07308 50.17948-44.55937 33.45298-5.6201 66.90596 11.10639 83.63245 39.07308 16.72649 27.83288 16.72649 50.17947 0 78.01235-33.45298 55.79958-105.97905 55.79958-150.53841 11.10639-33.45298-44.55937-22.3466-117.08543 27.83288-144.91831 16.72648-11.10639 39.07308-16.72649 61.28586-16.72649 11.10638 0 27.83288 5.6201 39.07308 11.10639 27.83288 11.10639 39.07308 39.07308 55.79957 61.28586 5.6201 16.72649 5.6201 27.83288 5.6201 44.55937-5.6201 72.52606-72.52606 122.70554-144.91831 105.97904-83.63246-22.34659-122.70554-122.70553-72.52606-195.09778 11.10638-16.72649 22.34659-27.83288 39.07308-39.07308 78.01235-44.559372 167.2649-5.6201 200.71788 66.90596 39.07309 94.73884-39.07308 206.33797-139.43202 200.71788-27.83288-5.62012-55.79958-5.62012-78.01235-22.3466-22.34659-11.10638-27.83288-27.83287-39.07309-39.07307-66.90596-78.01235-33.45298-195.09778 55.79958-239.79097 39.07308-16.726484 83.63245-16.726484 128.19182-5.6201 94.73883 33.45298 139.43201 144.91832 94.73883 234.17087-11.10637 27.83288-33.45297 44.55935-55.79956 66.90596-22.34659 16.72649-50.17947 27.83289-78.01235 33.45298-44.55937 5.62012-89.25256-5.62009-128.19182-27.83286-94.73884-66.90598-117.08544-211.82429-22.3466-289.97045 16.7265-11.1064 27.83288-33.452984 50.17948-39.073085 33.45298-11.106392 66.90596-22.346593 105.97904-16.726492 27.83288 5.6201 55.79957 16.726492 78.01235 27.832879 16.72649 16.726488 39.07309 22.346598 50.17946 44.559368 11.10641 16.72649 27.8329 33.45298 33.45298 55.79957 22.34661 66.90596 16.72649 139.43203-27.83286 195.09781-16.72649 22.34657-33.45298 44.55934-61.28587 55.79954-22.34659 5.62012-39.07308 22.34661-61.28586 22.34661-39.07308 0-83.63245 5.62008-122.70553-11.10641-117.08543-44.55934-167.26491-195.09777-105.97905-306.69691 16.7265-33.45298 44.55937-61.285864 78.01236-83.632457 44.55936-22.34659 89.25255-33.452979 139.43202-27.832879 61.28586 5.6201 111.46532 39.07308 156.1585 83.632456 22.34661 22.34659 27.8329 50.17947 39.0731 78.01234 11.10637 16.7265 5.62008 39.07309 11.10637 61.28586 11.10645 172.88502-195.09777 301.07685-351.25629 211.82429-27.83287-16.72649-50.17946-27.8329-66.90596-50.17947-61.28586-72.52608-78.01235-167.26492-50.17947-256.51747 16.72649-33.45298 39.07309-61.28586 61.28587-89.252546 39.07308-39.073083 94.73884-55.799574 144.9183-72.526064" fill="#221b35" opacity=".9"/><path d="m231.45148 15.388371c-120.56454 21.008472-220.12061 131.001869-209.68329 256.785079 5.21867 41.88313 15.78981 78.68141 41.88314 115.34586 15.7898 15.65602 31.4458 31.44582 47.23561 47.1018 31.4458 21.0085 68.11026 41.88314 104.77473 47.23563 36.66447 5.21866 73.32893 5.21866 104.77473-5.21866 36.66447-15.65601 68.11026-31.44582 94.33742-57.67295 31.44579-36.66448 52.45425-78.68141 62.89161-131.00187v-57.67294c-5.2187-26.22714-10.43736-47.23561-21.00851-73.32894-10.43731-21.00847-26.22712-41.88313-47.10179-57.672935-26.22713-26.227136-57.67292-41.88313-94.33739-52.454272-26.22714-5.218666-52.45427-10.43733-83.90008-5.218666-73.32893 10.437332-131.00187 57.672938-162.44767 120.564543-10.43733 26.22713-15.78981 57.67294-21.00847 83.90008 0 31.44579 5.21866 62.8916 15.78981 89.11874 21.00847 41.88313 52.45427 83.90006 99.55607 104.77473 15.7898 5.21866 31.4458 10.43732 52.45427 15.65601 115.34588 21.00847 220.12062-52.45428 235.91043-167.66635 10.43732-73.32894-21.00847-131.00188-68.11026-178.23748-94.33742-83.900079-251.56643-41.883137-293.44956 73.32893-5.21867 26.22713-15.78981 52.45427-15.78981 78.68141 5.21866 73.32893 52.45427 141.573 125.78321 162.44767 57.67293 15.78981 115.34587 5.21866 162.44767-31.44578 10.43733-10.43736 21.00849-21.00849 31.4458-31.44582 57.67295-78.68141 41.88314-183.45615-41.88313-241.12909-26.22714-15.7898-52.45428-21.008465-83.90008-26.227131-21.00847-5.218666-41.88313 5.218666-62.8916 10.437331-26.22714 15.7898-47.23561 21.00847-68.11027 47.1018-26.22713 31.4458-31.4458 62.8916-36.66447 99.55606 0 52.45428 26.22714 110.12722 78.68142 136.22052 73.32893 41.88314 173.01881 10.43736 209.68327-68.11025 21.00847-52.45427 10.43736-120.56454-36.66446-162.44767-31.4458-26.22714-62.8916-36.66447-104.77473-36.66447-62.89161 5.21867-104.77474 52.45428-115.34588 115.34588-10.43733 68.11027 31.4458 131.00187 99.55607 141.57302 94.3374 15.65599 173.01881-83.90008 131.00187-167.66635-10.43733-15.7898-26.22714-36.66446-47.1018-47.2356-26.22713-10.43733-52.45427-15.656-78.68141-10.43733-31.4458 5.21866-52.45427 26.22713-68.11027 47.23561-15.7898 26.22713-15.7898 52.45427-10.43732 78.6814 10.43732 31.44581 36.66446 57.67295 68.11026 68.11027 41.88314 15.78981 83.90008-5.21866 104.77474-36.66446 31.4458-52.45428 5.21866-110.12721-47.1018-131.00187-47.23561-15.78981-115.34588 26.22713-99.55607 83.90007 5.21867 15.65599 10.43733 36.66447 26.22714 47.23561 21.00847 15.78981 47.10179 15.78981 68.11027 10.43733 21.00847-10.43733 36.66446-31.4458 36.66446-57.67294-5.21866-15.7898-5.21866-36.66447-21.00847-47.23561-13.11356-7.8949-27.5318-10.50423-40.62864-7.86145-13.09684 2.64279-24.87229 10.53769-32.70029 23.65126-5.21867 15.656-10.43733 31.4458 8.9654 42.15076 39.20689-46.70036 33.05154-.26763 27.96669-16.05744v5.21867c15.78981-5.21867 21.00847-21.00847 26.22714-31.4458 5.21866 5.21866 15.65599 10.43733 15.65599 21.00847 10.43733 36.66447-26.22714 68.11027-62.8916 57.67294-31.4458-10.43733-41.88313-47.23561-36.66447-78.68141 5.21867-21.00848 21.00847-36.66447 47.1018-41.88314 31.4458-5.21866 62.8916 10.43734 78.68141 36.66447 15.65599 26.22714 15.65599 47.23561 0 73.32893-31.4458 52.45428-99.55607 52.45428-141.57302 10.43734-31.4458-41.88313-21.00847-110.12722 26.22714-136.22054 15.78981-10.43733 36.66447-15.656 57.67294-15.656 10.43733 0 26.22714 5.21867 36.66447 10.43733 26.22713 10.43733 36.66446 36.66447 52.45427 57.67294 5.21866 15.78981 5.21866 26.22714 5.21866 41.88314-5.21866 68.11026-68.11026 115.34586-136.22053 99.55606-78.68141-21.00847-115.34588-115.34587-68.11027-183.45614 10.43733-15.656 21.00847-26.22714 36.66447-36.66447 73.32893-41.88313 157.22901-5.21866 188.67481 62.8916 36.66448 89.11874-36.66447 193.89349-131.00188 188.67483-26.22713-5.21866-52.45427-5.21866-73.32893-21.00848-21.00847-10.43734-26.22713-26.22714-36.66447-36.66447-62.8916-73.32893-31.4458-183.45615 52.45428-225.33928 36.66446-15.789805 78.68141-15.789805 120.56454-5.21866 89.11872 31.4458 131.00186 136.22053 89.11872 220.12061-10.43731 26.22714-31.44578 41.88313-52.45425 62.89162-21.00847 15.78977-47.23561 26.22712-73.32894 31.44578-41.88313 5.21866-83.90007-5.21866-120.56454-26.22712-89.11874-62.89162-110.12721-199.11215-21.00847-272.5749 15.656-10.43733 26.22714-31.445801 47.1018-36.664467 31.4458-10.437328 62.8916-21.00847 99.55607-15.655994 26.22713 5.218666 52.45427 15.655994 73.32893 26.227136 15.65599 15.789805 36.66446 21.008475 47.10181 41.883135 10.43732 15.7898 26.22713 31.4458 31.44578 52.45427 21.00847 62.8916 15.78981 131.00187-26.22712 183.45615-15.78981 21.00846-31.44582 41.88313-57.67295 52.45428-21.00847 5.21866-36.66446 21.00847-57.67294 21.00847-36.66446 0-78.68141 5.21866-115.34587-10.43735-110.12721-41.8831-157.22901-183.45614-99.55607-288.23087 15.7898-31.4458 41.88313-57.672937 73.32893-78.681407 41.88313-21.008474 83.90008-31.445802 131.00187-26.22714 57.67294 5.218666 104.77473 36.664468 146.79166 78.681417 21.00851 21.00847 26.22717 47.10179 36.66448 73.32893 10.43732 15.78981 5.21866 36.66446 10.43732 57.67293 10.43735 162.44767-183.45613 283.01222-330.24781 199.11215-26.22713-15.65601-47.23561-26.22713-62.8916-47.23563-57.67294-68.11025-73.32893-157.22899-47.23561-241.12907 15.78981-31.4458 36.66447-57.67293 57.67294-83.900069 36.66447-36.664468 89.11874-52.454275 136.22054-68.11027" opacity=".9"/></g></g><g><path d="m74.240234 73.291016a250.00001 250.00001 0 0 0 -35.455078 43.726564c21.820322 30.87436 50.569303 54.39868 80.687504 74.6289l28.03711 18.83204v-64.39454l-7.59375-5.38086c-25.76524-18.25642-47.269795-37.91293-62.037114-61.310542l-.001953-.001953c-1.262551-2.001073-2.465137-4.040294-3.636719-6.099609zm380.474606 34.072264c-3.11862 6.8198-6.32462 13.37748-9.67382 19.50586h-.00196c-20.9835 38.4013-42.77327 60.51021-81.53515 64.62695l-16.09961 1.71094v53.625l19.72656-1.90039c59.56986-5.73737 99.31486-45.56566 116.19336-78.26953.4973-.96357.52178-1.06106.99609-1.98242a250.00001 250.00001 0 0 0 -29.60547-57.31641zm30.74024 60.35938c-19.77764 37.64925-35.87593 79.06183-54.07422 108.95312-13.79468 22.41345-29.37414 35.9483-34.93945 38.27344-7.52522 2.04672-13.10601-5.26736-16.73829-9.9668l-32.29882-42.24219v87.09766c19.22056 15.83508 47.84025 22.14426 67.30859 15.53711l.10938-.03906.10937-.04102c26.41316-9.92962 45.10234-33.00699 62.05859-60.56054l.13868-.22657.13281-.23047c7.72484-13.42401 14.87882-27.1233 21.74219-40.96484a250.00001 250.00001 0 0 0 .99609-13.3125 250.00001 250.00001 0 0 0 -14.54492-82.27734z"/><path d="m61.238281 86.613281a250.00001 250.00001 0 0 0 -11.353515 14.767579c20.315776 30.84412 48.665425 54.52689 79.625004 75.32226v-21.3125c-26.86773-19.03762-50.320365-40.19804-66.85352-66.394526-.491807-.779458-.937934-1.59423-1.417969-2.382813zm404.843749 38.791019c-1.70839 3.43595-3.4509 6.8128-5.24609 10.09765-22.32234 40.85146-50.09097 69.07908-95.43164 73.89453v17.61719c52.63443-5.0694 86.79218-39.12753 110.80664-83.06055a250.00001 250.00001 0 0 0 -10.12891-18.54882zm26.73242 67.68554c-15.47926 31.8464-29.55239 65.85376-46.09765 93.01172-15.11486 24.56177-31.1725 40.98652-44.29297 45.91992-16.99998 5.34845-28.48719-4.94681-37.01953-16.10546v25.21679c12.54211 9.93642 29.8466 12.13373 43.19336 7.3125 19.93999-7.49613 36.98456-27.01823 53.0625-53.14453 13.2859-23.08786 25.06641-47.2388 36.43945-71.88086a250.00001 250.00001 0 0 0 -5.28516-30.33008z" fill="#775fa0" stroke-width="36"/><path d="m443.8418 500.00003v-52.5723h-31.19336v-35.09179h-46.78907v-327.248049l46.78907-15.595704v-69.492187h-330.382815v69.488281l46.789065 15.597656v327.250003h-46.789065v35.09179h-31.191406v52.5723z"/><g fill="#775fa0" stroke-width="36"><path d="m100.26608 18.000016v38.515899l39.43943 13.147966h57.70088l-21.10779-25.066723v-26.597142zm93.57848 0v20.192773l26.5022 31.471092h54.22191l26.50122-31.471092v-20.192773zm124.7713 0v26.597142l-21.1078 25.066723h57.6999l39.44041-13.146017v-38.517848zm-171.56054 69.210086v325.579828h200.80381v-325.579828h-29.75698c-.39027 8.316838-7.24422 14.860648-15.57009 14.865548-8.3221-.0101-15.17026-6.552469-15.56035-14.865548h-107.6864c4.24027 15.542048 6.83318 30.806288 12.79881 41.674218 3.8991 7.10329 8.73399 12.34474 16.65404 15.94464 2.86194 1.30037 6.19957 2.37556 10.08405 3.14467-.18702-1.7229-.28634-3.4607-.2973-5.20148.00041-21.30417 12.95389-38.57412 28.93232-38.5734 15.97834 0 28.93134 17.27034 28.93134 38.57438-.0103 17.04058-8.40548 32.05314-20.6516 36.92991 14.05599.63966 27.49729 3.35934 35.57347 13.93755 4.94211 6.62565 8.52929 15.94951 10.89604 26.77943 4.29194 19.64396 4.56195 43.77781 4.57852 65.01848h-24.64915l-6.29023 95.3403c-17.38805 3.91671-36.66424 4.05805-54.71904-.0166l-7.10904-95.3247h-25.88809c.16571-20.98235 1.20677-44.7877 5.94321-64.28252 2.6163-10.76168 6.35066-20.10017 11.23331-26.80088 10.40221-12.5039 20.43052-13.29401 34.66108-14.37035-6.05204-2.18041-11.40916-6.92285-15.26499-13.51351-8.91627-.73889-16.59068-2.65143-23.22306-5.66743-11.58618-5.26581-19.53645-13.93462-24.77295-23.47489-8.85291-16.1279-11.4195-34.69277-15.76407-50.117848zm175.69554 25.247058c7.01089-.001 12.69461 5.68273 12.69353 12.69372 0 7.01023-5.6834 12.69284-12.69353 12.69176-7.00936 0-12.69158-5.68229-12.69158-12.69176-.001-7.01023 5.68145-12.69372 12.69158-12.69372zm-25.86568 32.4605c4.87087 0 8.81934 3.94896 8.8188 8.8199 0 4.87056-3.94831 8.81893-8.8188 8.81893s-8.81879-3.94837-8.81879-8.81893c0-4.87055 3.94831-8.81892 8.81879-8.81892zm-196.6191 285.41849v17.54622h138.41817v-17.54622zm155.96413 0v17.54622h138.41816v-17.54622zm-187.156955 35.09243v16.57143h169.610995v-16.57143zm187.156955 0v16.57143h169.61098v-16.57143z"/><path d="m476.3573 29.781487c7.01089-.001 12.69461 5.68273 12.69353 12.69372 0 7.01023-5.6834 12.69284-12.69353 12.69176-7.00936 0-12.69158-5.68229-12.69158-12.69176-.001-7.01023 5.68145-12.69372 12.69158-12.69372zm-25.86568 32.4605c4.87087 0 8.81934 3.94896 8.8188 8.8199 0 4.87056-3.94831 8.81893-8.8188 8.81893s-8.81879-3.94837-8.81879-8.81893c0-4.87055 3.94831-8.81892 8.81879-8.81892zm-402.629125 171.145403c-7.01089-.001-12.69461 5.68273-12.69353 12.69372 0 7.01023 5.6834 12.69284 12.69353 12.69176 7.00936 0 12.69158-5.68229 12.69158-12.69176.001-7.01023-5.68145-12.69372-12.69158-12.69372zm25.86568 32.4605c-4.87087 0-8.81934 3.94896-8.8188 8.8199 0 4.87056 3.94831 8.81893 8.8188 8.81893s8.81879-3.94837 8.81879-8.81893c0-4.87055-3.94831-8.81892-8.81879-8.81892z"/></g></g></svg>