<svg height="500" viewBox="0 0 500.00009 500" width="500.00009" xmlns="http://www.w3.org/2000/svg" xmlns:xlink="http://www.w3.org/1999/xlink"><radialGradient id="a" cx="1249.9998" cy="1250.0005" gradientTransform="matrix(0 -1 1 0 -.0005 2499.9997)" gradientUnits="userSpaceOnUse" r="250"><stop offset="0" stop-color="#393"/><stop offset=".7379747" stop-color="#393" stop-opacity=".9"/><stop offset="1" stop-color="#393" stop-opacity=".1"/></radialGradient><g transform="translate(-1000 -1000)"><circle cx="1250" cy="1250" fill="#2ad52a" r="250"/><path d="m1258.9184 1271.0417c17.1144 30.6662 44.2259 53.4982 76.3129 67.0503 47.0888 19.252 101.3032 18.539 148.3503-.7179 3.5837-7.846 5.7089-15.6928 7.8759-23.5354-44.255 22.8273-95.5943 29.9536-144.8083 16.402-20.669-5.7007-39.2545-15.6936-56.3481-29.2453-11.4138-9.2678-21.4025-19.2524-29.245-31.383.7122 0 1.4251-.7126 1.4251-.7126 21.3984 24.9615 47.7889 42.0844 79.1674 50.6396 47.0888 12.1307 94.8859 6.4216 137.6825-16.402 1.4168-.7125 2.8336-.7125 4.2505-1.4293 4.2922-2.8504 7.8759-4.9882 12.1264-7.1343 1.4168-8.551 2.1668-16.4062 3.5837-24.9614-2.8753 1.4294-5.0006 3.5671-7.8342 5.7091-2.8753 1.4251-5.0006 2.8461-7.8759 4.9881-54.1729 34.9543-120.5139 44.2305-178.3122 16.4103-2.1251-1.4293-4.2921-2.8586-6.4173-3.5712-.7087-.7126-2.1252-1.421-2.8336-2.1336-1.4585-.7209-2.167-.7209-3.5797-1.4294-10.697-7.1342-19.2605-12.8391-27.8198-22.111 0 0 .717-1.4335 1.4252-1.4335 2.1461.7125 3.5712 3.5712 4.9964 5.0006 38.5211 29.9537 85.6097 37.8046 132.6569 27.8159 10.0011-2.1378 18.5438-4.2839 27.8364-7.8426 16.4187-7.1342 31.3787-13.5559 46.3387-24.2614 5.0005-4.2713 10.0012-7.1258 15.0017-10.6888 2.1253-2.1461 4.2505-4.2797 7.1258-6.4258-.7087-8.5594-.7087-16.3978-1.4168-24.9614-2.1669 2.1378-4.2922 4.9923-6.4174 7.1301-5.0006 4.2838-9.2928 7.8509-13.5849 12.1265-5.6674 4.9922-12.0847 8.5593-17.7937 13.5516-5.0005 3.5671-10.0012 5.7091-15.0017 8.5552-55.6313 33.5292-123.3892 37.0963-178.308-1.421 0 0 .7123-.7167.7123-1.4251 77.0421 44.9388 176.8869 9.2719 227.5177-58.4906-2.1252-7.8468-4.2504-16.4103-5.709-24.2488-28.5033 44.9347-72.0083 79.8848-126.9312 91.2946-32.1286 5.709-64.2156 3.5713-93.4523-10.6972 0-.7126.7122-1.4251.7122-1.4251 30.6494 10.7013 62.7781 11.4139 94.1567 2.8545 17.8355-4.9965 33.5039-12.8433 49.9224-22.8237 8.5844-5.7048 15.0017-11.4139 22.836-17.8313 12.1264-11.4098 22.0858-22.1153 32.087-36.3795 5.0005-7.8468 10.0011-14.981 14.2516-23.5446-3.5421-7.8385-5.709-15.6853-9.9594-22.8153-4.2922 11.4056-10.0012 22.1069-16.4186 32.8082-7.1259 11.4139-14.2517 21.3985-23.5444 31.3789-14.2516 14.9851-29.2533 27.8201-47.7971 37.8046-35.6291 19.2607-76.3004 26.395-114.8215 16.4062 0-.7084.717-2.1377.717-2.1377 33.5121 6.4174 66.3492 0 96.2694-14.981 30.6701-15.6895 54.9646-39.2299 73.4667-69.1836 10.0012-16.4062 17.127-32.0956 22.8359-49.2186-5.0005-7.1342-8.5426-14.26-14.2516-20.6817-3.5838 17.8314-9.2927 34.2334-17.8354 50.6354-.7088 1.4377-.7088 2.8587-1.4168 4.2839-15.7101 29.2453-35.6708 52.7773-64.2158 72.0422-6.4172 4.2797-13.5431 7.1301-19.9605 11.4139-6.4175 3.563-13.5433 4.9965-20.6691 7.1301-17.127 5.7048-34.9706 9.2761-53.5144 6.4174v-1.421c22.8443-.7125 45.6385-6.4174 66.3493-16.4103 2.1251-1.421 4.2504-2.1336 6.4173-3.5671 14.9602-8.5594 27.0865-18.5398 39.2129-30.6705 3.5837-4.2797 7.1258-7.8426 10.7095-12.1265 1.4169-2.1378 2.8337-4.2797 5.0006-6.4174 20.669-30.6747 33.5039-62.0494 37.796-96.9995-5.709-6.4258-11.418-12.8432-17.8354-17.8314-.7087 42.0761-12.8348 81.3101-38.5044 116.9686-27.1281 36.3753-65.6326 59.9241-109.1458 64.908 0-.7125 0-2.1377 0-2.1377 24.2611-4.9923 45.6385-14.2601 64.9324-29.9537 19.9607-16.4104 34.9207-34.9543 46.3387-57.0612 16.4185-33.525 23.5443-69.9087 21.4191-106.284-6.4591-4.9964-12.8765-9.9804-20.0024-14.2601 2.167 17.8314 2.8754 35.6628 1.4169 54.2109-1.4169 9.9804-2.8336 19.2565-4.9589 29.2369-3.5838 14.981-8.5843 28.5285-15.7101 42.0927-19.9606 37.7922-53.5062 68.471-94.1441 79.8849 0-.7126 0-1.4335 0-1.4335 30.6785-12.8391 55.6396-33.5167 74.1835-62.7661 2.8335-4.2756 5.0005-9.272 7.1258-13.5517 7.8342-13.5516 12.1264-27.0992 14.9601-42.0843 0-1.421 1.4584-2.142 1.4584-3.5672 5.7091-31.3872 5.7091-62.0534-2.1668-92.0113-7.1258-4.2797-14.2517-7.8468-22.086-10.6971 12.1265 34.2417 14.9602 70.6128 8.5427 107.7049-3.5421 15.6936-7.8342 30.6704-14.96 44.9347-4.2923 7.8468-8.5844 14.9769-13.585 22.8237-14.96 20.6817-32.7912 35.6627-54.1895 47.0724-.7122 0-1.4251-2.1336-1.4251-2.1336 12.8347-7.1342 23.5276-16.4103 33.5288-27.1033 16.3768-17.8355 27.0864-39.234 34.2539-62.0618 13.5432-46.3599 7.8342-94.8617-10.7096-138.3713-7.8759-2.1377-15.7101-4.9922-24.2527-6.4174 14.2516 27.1075 24.9611 57.0612 27.0864 88.4484 2.1253 31.3789-2.8337 62.7619-17.127 91.2946-1.4168 2.1419-2.8336 4.2797-3.5421 6.4216-.7087.7168-1.4585 2.1378-2.1668 2.8504-.7088 1.4293-.7088 2.1377-1.4169 3.5671-10.7095 14.981-20.6774 29.2411-36.3708 39.2256 0 0-.7087-.7084-1.421-1.421 12.839-9.2761 21.3941-22.1194 29.2492-35.6669 36.3791-60.6241 27.0865-131.9579-8.5676-190.4401-2.1336-2.8545-3.5672-4.9965-4.9923-7.851-8.5593-.7125-16.406-1.421-24.9653-2.1336 6.4174 8.5552 12.1263 17.1146 18.5437 26.3866 6.4216 10.7013 10.7012 20.6859 15.6935 31.3872 4.9964 12.1223 7.83 23.5362 10.7054 36.3795 9.251 50.6396-2.167 103.4169-37.1001 140.509 0-.7084-.7087-1.421-.7087-1.421 19.2563-25.6824 29.2242-53.4983 31.391-84.1687 3.5421-54.9193-20.694-109.1302-58.4983-148.36-8.5594 0-16.402.7084-24.9612 2.1336 29.9534 25.6823 52.7769 57.7738 64.9032 95.5826.717 2.8545.717 4.9923 2.1461 7.8426.7123 1.4336.7123 2.8546.7123 4.2839.7123 1.4252 1.4209 2.1419 1.4209 3.5671 8.5594 41.3676 4.9964 81.31-19.2563 117.6854 0 0-.7123-.7127-1.4252-.7127 7.8468-14.9768 12.839-30.6704 15.6935-47.785 2.1377-14.9852 2.1377-29.9537 0-44.9389-7.8467-54.2025-40.6588-101.2833-84.168-131.9538-7.8468 2.1378-15.6935 4.2797-23.5361 7.1301 52.0685 29.2411 92.0106 80.6057 99.8574 141.2299 2.8503 25.6781.7123 51.3605-9.9846 74.8925-.7122 0-1.4293-.7125-1.4293-.7125 0-2.1419 1.4293-4.2797 2.142-6.4216 7.1341-27.8159 6.4174-56.3445-2.142-83.4478-6.4132-19.2566-14.2682-36.3837-26.3946-52.7857-2.1378-2.1336-3.5588-4.2797-4.9881-6.4174-21.3983-25.6824-46.3595-44.9347-75.6046-59.199-7.8467 2.8503-14.9808 6.4174-22.1066 10.693 7.1258 2.8545 14.2599 4.9923 20.6774 9.272 1.4292.7167 2.8544.7167 4.2796 1.4251 29.9534 14.981 54.2104 34.9502 74.1835 62.7703 26.3863 37.092 37.0876 79.1764 27.8156 123.3985 0 0-1.4293 0-2.1377 0 2.8462-13.5558 1.4211-26.3907 0-39.9507-2.1377-17.8272-7.8508-33.5167-16.4102-49.2061-9.2677-18.544-22.1067-34.9543-37.8043-49.9353-12.8347-11.4056-26.3864-20.6859-41.363-29.2411-1.4336-.7126-2.8545-.7126-4.2839-1.4294-13.5557-7.1259-27.8157-12.1181-42.084-17.1146-7.1299 4.9965-13.5515 9.272-19.9689 14.9727 27.8198 5.0006 53.4936 14.9852 78.4548 29.2536 1.4335.7084 1.4335 2.1378 2.8586 2.8462 48.5014 29.962 81.3093 82.7435 78.4632 139.088h-1.4335c-2.1378-42.797-23.536-81.3101-55.6272-109.8469-2.1419-1.421-4.2839-2.8504-6.4174-4.984-.717-.7167-2.1502-1.4335-3.5754-2.1419-.717-.7168-1.4252-2.1378-2.8462-2.8503-32.1036-22.8279-67.0493-34.9544-104.862-37.8089-7.1258 4.9923-12.1222 12.1265-17.827 17.8356 44.9343-.7126 87.735 10.6971 125.5352 38.5172 34.2373 24.9614 57.0649 60.6241 63.4822 101.2792-.7087 0-2.1418 0-2.1418 0-11.4097-48.4977-45.6469-84.1646-88.4435-105.5631-4.9923-2.1336-9.9844-4.2838-14.9726-5.7048-30.6785-12.1265-63.4906-15.6895-95.586-12.8391-4.2796 7.1342-9.9843 13.5475-13.5515 21.3985 27.8199-6.4175 55.6356-5.7049 84.1638-.7084 1.4336 0 2.1461 1.421 3.5755 1.421 37.0876 7.8468 69.1828 24.9614 93.4356 53.4982.7123.7126 2.1377 1.4252 2.8504 2.1378 11.4138 14.981 21.3982 29.2494 26.3864 47.0766 0 0-.7123.7126-1.4252.7126-22.1109-50.6438-71.3249-84.1646-126.2436-92.7281-14.2684-2.1378-28.5325-2.8504-42.7966-2.1378-16.4102.7125-32.8121 3.5671-49.2223 7.8468-2.842 7.8426-7.1217 14.9769-9.2636 22.8278 54.2062-20.6859 116.9676-22.111 169.036 8.5552 24.257 14.2685 42.8008 32.8166 56.3523 56.3487-.7123 0-2.1418.7125-2.1418.7125-23.532-34.9502-56.3399-54.9193-96.2861-64.1913-46.3636-9.9887-92.7315-2.1419-133.3778 17.8314-1.4293 7.8468-5.0006 15.6894-5.0006 24.2488 12.1264-8.5594 26.3947-14.2642 40.6588-19.9774 16.4061-6.4133 32.8038-9.2637 49.9266-11.4014 53.4979-5.7091 108.4166 13.5475 142.6539 54.9151-.7123 0-1.4252.7167-1.4252.7167-32.8121-32.0997-77.7464-47.7934-122.6766-45.6514-40.6672 2.1377-79.1799 17.8313-111.9836 41.3717-.7168 8.5594-.7168 16.4104-.7168 24.9615 9.9887-9.272 20.6857-17.1146 32.8121-24.2489 1.421-.7125 2.1377-2.1419 3.5629-2.8545 54.2104-31.383 121.2556-39.2298 176.8912-6.4174 4.2796 2.8503 7.8467 5.7048 12.1263 7.8426 2.8545 1.4293 4.9881 4.2797 7.8467 6.4258 0 0-.717.7084-.717 1.421-7.8425-5.7049-16.406-9.272-24.9653-14.2684-5.7007-2.1336-11.4096-4.2756-17.1145-6.4175-32.0953-9.9846-65.6241-8.551-98.4321.7127-26.3947 7.8468-49.2181 21.4026-71.3248 38.5172-1.4252.7127-1.4252 2.8587-2.8587 3.5671-6.4174 4.9965-11.4096 9.9887-17.1103 15.6936 0 4.9881.7084 9.9887 2.1336 14.9769v3.5712c.7126 2.1336.7126 3.563 1.4252 5.7091 7.8467-11.4139 17.8353-19.9775 27.8198-29.9621 5.7091-4.9922 11.418-8.5552 17.1145-13.5558 28.5325-20.6775 59.211-32.8124 93.4482-35.6586 30.666-2.1419 62.0488 3.5671 88.4393 19.2524-.717.7168-1.4293 1.4335-1.4293 1.4335-10.6971-5.7048-21.3942-8.5635-33.5205-10.7013-14.9725-3.5671-29.2451-3.5671-44.2218-2.8545-59.9152 4.9923-111.271 43.5095-143.3622 92.0114 2.8461 7.8509 4.988 15.6894 7.8425 23.5358 21.3984-40.6588 54.9188-74.8964 97.007-94.1487 12.8348-5.7091 25.6696-9.2762 39.9379-12.1265h4.2797c24.2569-4.9923 48.5055-1.421 71.329 6.4174 0 .7126-.7123 1.4294-.7123 1.4294-41.3713-9.9846-82.0344-3.563-118.4053 17.1187-25.6737 14.9769-45.651 34.2334-63.4822 59.199-1.4251 2.8545-2.8461 4.9964-4.9922 7.8468-6.4174 10.7005-12.1222 21.4035-17.1228 32.0998 2.1418 3.5663 3.5754 7.8426 5.7131 11.4089 2.8546 2.8554 4.2755 7.143 6.4174 10.698 4.2797-14.9773 10.6971-28.5289 17.8354-42.0752 3.563-6.4225 7.13-12.1315 11.4054-18.5489 19.2606-26.395 40.6631-47.0767 69.1914-60.6284 14.9767-7.1342 29.9576-12.839 46.3678-14.9726 15.6851-2.1461 30.6618-2.1461 46.3553 0v2.1336c-40.6546-3.5671-81.3177 10.6971-113.4088 37.8005-34.954 29.2494-56.3481 69.1914-66.3368 112.701 4.9964 6.417 9.2719 13.5483 15.6976 19.2569 7.8426-84.1646 75.6004-165.4746 163.3354-167.6207v2.1461c-53.4936 5.7049-99.1447 39.9425-124.8227 87.0195-.7123 1.416-.7123 2.8454-1.4293 4.2743-15.6893 27.8159-21.3982 57.7742-23.5402 88.4455 6.4257 4.9923 11.418 12.1252 19.2688 16.4066-2.146-19.975.7088-38.519 4.2714-58.4872 5.7132-29.2453 17.1186-54.2109 34.9624-77.7471 23.5318-29.9579 53.4894-50.6438 91.2896-57.778 0 0 .7123.7126.7123 1.4252-9.9846 2.8545-19.9732 7.1342-29.9619 12.1223-2.1335 1.4335-4.2755 2.1461-6.4215 3.5755-16.4019 9.9804-29.2367 22.1069-41.3631 37.0837-17.1186 22.1153-27.8157 44.9385-34.2372 72.0464-2.1336 11.4143-4.2796 22.8236-4.9923 34.2375-.7123 14.9761 0 30.6663 1.4252 45.644 3.5671 1.4289 7.1383 4.2826 10.7012 6.4216 3.5671 2.1403 7.8467 3.5663 11.4097 5.7003-11.4097-44.2192-8.5551-92.0034 10.7011-134.0886 16.4061-36.3787 46.3554-65.6239 83.4554-80.5966v2.1419c-79.8882 39.2257-104.8536 141.9342-76.3212 221.1106 7.1341 3.5634 14.9767 5.6957 22.8193 8.5557-14.9725-34.9506-22.1067-72.0385-17.1144-110.5558 6.4215-47.7892 31.3869-92.0071 72.0374-116.9769 0 .7125.7123 1.4294.7123 1.4294-26.3864 19.9691-44.2218 46.364-53.498 76.3227-17.1102 52.0685-8.5509 107.7004 17.127 154.7766 8.5551 2.1369 16.4061 3.5629 24.9612 4.9922-48.5055-68.4705-55.6397-174.0339 12.8349-233.9538 0 0 .717.7168 1.4334.7168-20.6857 22.8195-34.2372 49.927-39.2295 81.3059-2.8628 19.9733-2.146 39.2302.7171 59.2064 0 1.426 1.421 2.139 1.421 3.5634 3.5628 23.5366 12.8347 43.5095 24.2486 64.1908.717 1.4344 2.1376 2.147 2.8544 3.5763 4.2798 8.546 9.9887 15.689 15.6935 22.8203h24.9612c-23.5361-24.2496-42.0798-52.7815-52.0685-85.5901-.7088-2.8504-.7088-4.9973-2.1418-7.851-.7123-1.421-.7123-2.8516-.7123-4.2759-.7088-1.4294-1.4252-2.1424-1.4252-3.5717-9.9886-47.0729-2.8503-94.1487 27.1073-131.2366 0 0 .7123.7125 1.4252.7125-20.6816 29.9578-27.1073 67.0462-22.8234 102.7164 6.4173 49.9232 32.8079 94.8588 70.6122 126.954 7.8468-1.426 16.3893-2.847 24.2652-4.276-12.1263-9.2719-23.5526-18.5439-34.2456-29.9582-7.1382-7.846-12.8431-14.9806-19.2647-23.5367-9.2635-12.8432-14.9767-25.6769-21.3941-39.9462-2.1419-4.9922-2.8586-9.9849-4.9922-14.9755-11.4139-38.5223-9.276-79.8899 9.2677-115.5526 0 0 1.4293.7168 2.1419.7168-19.2605 44.2179-13.5515 94.8658 9.2678 137.659 18.5521 34.2376 46.3845 60.6325 78.4714 79.8845 7.8343-2.8504 15.6685-5.7053 22.836-9.2767-14.2933-5.7006-25.7113-13.5466-38.5461-22.8186-17.8354-13.5516-32.7996-27.1046-44.2092-45.6518-13.5516-15.6886-20.6858-35.662-27.1073-55.6319-4.2796-17.1196-5.7048-34.2375-4.9922-51.3563.7123-9.9888 2.8504-18.5481 4.9922-28.5327.7123-1.4252-.7123-2.8545 2.8503-2.8545-9.9803 45.6514 2.1503 92.7285 31.387 130.5327 2.1377 2.1373 3.5629 4.2759 4.9922 6.4166 24.2528 28.529 54.2145 48.5068 88.4268 61.3455 3.5838-2.1423 7.8759-3.5667 11.418-5.7036 2.1668-2.1423 5.0005-3.5717 7.8759-5.0006.7087-.7101 1.4168-1.4214 2.1253-2.1345-36.3792-9.2765-69.1747-27.8159-97.007-54.9234-3.5671-4.2797-7.13-7.8459-10.6971-12.1273-27.8157-33.5246-41.3714-75.6085-36.3708-117.6887.7041 0 2.1377.7127 2.1377.7127-1.4334 32.0956 7.8385 62.0539 26.3905 89.8732 4.9881 7.8509 9.9804 14.2726 16.402 21.3993 5.7173 5.7036 11.4262 10.6963 17.0936 16.4015 15.7101 12.8433 32.1287 22.8283 50.6724 30.6742 15.6684 6.4171 31.3787 10.698 47.7972 14.2647 6.4174-5.7057 12.8348-11.4093 18.5437-17.1196-24.2528-1.4293-47.0887-7.138-69.2162-16.4099-2.8337-1.4244-4.9589-2.1374-7.8342-3.5634-23.5443-11.4093-43.505-25.6736-60.6236-45.6468-3.5671-4.9957-7.8468-9.2721-11.4138-14.9757-2.8545-4.2847-4.9923-8.5689-7.8426-12.8436-2.1419-4.2801-4.2838-9.2724-6.4216-13.5521-6.4216-15.6894-10.7012-31.3872-11.4138-48.5018h1.4294c7.1299 42.7969 29.9576 78.4588 65.6159 104.1458 37.0875 26.3819 78.4672 37.0845 121.2638 37.0845 5.7089-6.4216 10.7095-12.8399 15.6684-19.9729-16.3768 2.8533-33.5038 1.4289-49.9223 0-15.6685-1.431-30.6702-5.7057-45.6303-10.703-5.0005-2.1373-10.0011-4.2747-15.0017-6.4086-43.5049-19.9813-77.7297-58.4986-89.8561-104.8584h2.1378c11.4138 34.2333 34.2372 62.0535 65.6325 81.3137 5.0005 2.8504 9.251 4.9928 13.5431 7.8477 40.6714 19.9683 86.3016 24.961 129.8065 16.4016 5.0007-7.1263 8.5843-14.9772 12.1265-22.1119-67.0494 19.262-147.6419 8.5606-195.4265-48.5051-.7123-.7127-2.142-1.421-2.8587-2.1378-8.5551-10.7013-15.6893-21.3943-20.6816-33.525 0 0 .7123-.7084 1.4294-.7084" fill="url(#a)" fill-rule="evenodd"/></g><g stroke-width=".938986" transform="matrix(1.0649785 0 0 1.0649785 .018147 -33.496562)"><path d="m150.41797 31.455078c-9.10747.103944-20.73304.203851-32.70508 6.609375-11.16013 5.971121-19.992869 20.327973-20.33789 36.1875-2.235052 9.918129-6.90722 24.858297-2.802734 42.693357l5.703124 24.78125c-2.562989 1.76072-2.736357-3.20857-5.925781-9.1582-14.848702 6.75082-21.670749 20.30621-30.449218 28.48437-15.432291 7.49597-31.012531 14.7874-41.604734 23.07938-10.592203 8.29199-17.1864238 12.97754-20.5573758 23.17258-2.69861792 20.53884-1.38931441 41.75815-1.72070307 63.70703 14.41519787-11.36288 24.79140987-28.39355 40.31054687-38.43164-.04481.0135 1.393542-.44391 9.255859 2.0332l.03125.01c2.277146.65222 4.6597 1.12829 6.683597 1.39086l-18.943359 25.875c26.770999-13.46334 58.570612-23.68352 82.390618-39.76953l-33.751946 48.59375c-4.152334 23.69751-12.174211 36.19893-22.861329 47.80078l-25.652343 27.64453 23.060547 1.56641-5.779297 7.70312c-16.301284 3.42623-28.773063 9.10765-30.998047 26.83985-1.447128 13.18564 2.942854 25.74673 6.626953 38.52539l134.585932-9.75781-11.15234-23.71875c-5.31545-11.30314-8.74097-33.53975-5.0625-51.85157 2.38403-11.86794 6.66589-21.50904 14.12109-28.29492l14.35991 38.19232c8.45073 12.78045 19.70994 18.77037 33.12447 22.51667-9.19443 15.6982-5.45812 34.70217-4.22271 52.2539l122.75586-32.45898c-9.45056-17.2473-18.74183-36.86934-29.34766-51.49805l14.6242 9.32302c-7.38816-18.43546-8.27449-21.62129-23.95623-30.17653-8.70272-17.26604-23.19544-34.00456-28.83008-51.82032 1.70175-10.18982.92326-20.08187-.82031-29.60937l28.76367 25.7207c18.06035 1.64817 40.79075 3.35126 53.98243-4.33203 16.01419-11.97174 19.8106-34.1849 26.01953-52.13477-15.2437 1.83013-44.52399 10.83906-54.72852-1.12695-4.19066-7.87001-4.18616-19.88025-8.90039-37.48828-2.80421-10.28047-7.23218-20.9523-13.35644-29.26563-4.75631-6.22226-17.25684-15.94531-17.25684-15.94531-4.81566-4.09759-9.83171-6.82116-14.95508-9.35742l16.34579 4.67334s-7.65626-9.75282-12.76962-13.05615c-17.12038-11.060092-32.89699-20.656188-57.42573-21.004378-2.39869-5.02449-4.33215-10.416878-6.12695-15.759766-1.98891-5.92075 3.94375-10.509567-5.13086-18.021484s-27.58663-15.49662-44.57422-15.339844h-.0195z" fill="#2e852e" stroke-width=".938986"/><path d="m150.62349 49.453337c9.83543-.09077 23.83199 5.642868 34.80228 12.564075-4.31246-.824497-8.85188-1.951559-13.39131-3.018099 15.66102 12.05727 12.02948 28.705997 27.0096 39.734537 24.3616-2.01963 38.20685 6.61864 54.54879 17.73041-8.54926-1.8154-18.76297-3.93338-24.58857-.60514 7.56572 2.79874 27.31223 11.11932 34.424 17.17064-5.22034-.75641-17.77942-2.87438-21.41096-2.72309 21.56228 13.23729 28.90102 34.3413 41.00616 54.46197.5296-2.95003 3.63154-12.02702 5.296-15.58217 4.00983 14.97703 3.32892 29.87844 11.4091 43.19136 8.60221 10.8924 21.94814 16.41423 42.81437 13.16165-3.76772 10.89239-3.96443 21.78479-45.44724 16.86808l-70.89074-63.38769c6.3552 26.47457 23.22674 59.52997 16.64457 85.55068 1.74011 7.03467 4.61509 14.14498 8.62491 20.87709-4.99336-2.04233-9.75977-4.84106-13.24-8.16929-4.23679 9.83341-9.75977 19.13733-13.08868 29.34895 23.52937 13.38856 48.7232 17.24628 68.77234 32.22333-6.12823-1.13462-12.55909-2.64746-18.0064-2.64746 9.30583 8.62315 15.73669 19.59118 26.47243 39.86313l-79.81071 21.10403s-1.0592-15.05269 3.48022-20.57453c7.03612-8.69879 31.776-13.76678 31.776-13.76678-9.45714-12.70779-23.15108-15.88474-41.68708-23.4489.37828 3.93336 4.2368 8.77443 6.80914 13.31292-15.81234-4.46285-24.81554-5.90004-31.77599-19.66681l-18.30904-51.51195c-49.32845 14.82575-50.23633 81.76859-35.33188 113.46243l-93.89051 6.80775s-5.144688-17.85142.378281-23.29762c12.105146-12.10266 51.219881-.75641 51.219881-.75641l-4.993369-27.45792c-2.194052.75642-5.37165 1.36155-10.592002 1.96669 8.170977-10.89239 12.710401-14.44755 14.980117-27.30663-4.84206 3.85772-10.516337 6.3539-18.309022 5.82441 17.476796-18.83477 22.697138-30.25666 26.706964-53.02478l44.18378-63.61461-7.18743-28.21433c-18.08206 11.2706-30.79246 23.67583-47.664008 31.31564 5.37166-7.33724 6.80915-8.24494 6.506513-13.53986-14.374853 5.14363-29.052333 18.38092-43.881141 13.76678-18.006396-5.67312-22.848457-3.25259-36.315419 9.9847.226963-15.05269-4.388115-14.06934 13.693935-28.44126 9.003203-6.95902 25.647773-15.05268 41.914062-22.99505 8.24662-7.26159 14.14788-14.67448 17.401142-24.43224-.07571 5.74876.90788 11.04367-.983545 16.33859 8.700566-4.46286 16.417601-8.69879 21.637941-12.55652 9.91109-7.33723 7.64138-21.02837 10.89463-35.77848-1.21051-8.09366-2.26972-14.50806-4.00982-21.96633-3.93417 3.56272-4.46377 7.57173-7.11178 15.30987-2.95063-12.82126.83224-25.18866 3.17761-36.24747-1.43749-24.515455 18.76296-27.019191 35.33188-27.208293zm-2.19406 18.244757c-10.81897 4.417471-16.26628 6.23287-25.19383 6.90608l8.54926 42.843416c9.15451-6.05133 15.43406-9.22827 28.82537-8.09365-7.33874-13.43396-10.44069-28.116-12.1808-41.655846z" fill="#83fc83" stroke-width="33.8035"/></g><g transform="matrix(-1 0 0 1 500.00009 0)"><path d="m192.94922 214.18945c-5.34572-.0102-10.78903 1.26934-15.42383 3.57422l-106.130859 49.7793-8.390625-8.29688c-18.126246 3.75934-33.18377 8.70376-46.757812 18.54688-5.34263 3.87416-9.4902209 9.82021-13.0957034 15.14062.3751042 1.49863.5628147 2.8108 1.125 4.50391.2077646-.30222.4513814-.55912.6621094-.85742a250 250 0 0 0 4.3144531 19.83008c-.2235623.33415-.4677266.65707-.6894531.99218 2.846094 7.8509 4.989256 15.68878 7.84375 23.53516.258593-.49135.567951-.9539.830078-1.44336a250 250 0 0 0 7.501953 18.29102c-.155276.32929-.3402.659-.49414.98828 2.141794 3.56628 3.575194 7.8419 5.71289 11.4082 2.854594 2.8554 4.276073 7.14422 6.417969 10.69922.108793-.38073.253702-.73827.365234-1.11719a250 250 0 0 0 11.302735 16.5586c-.07626.32618-.182836.64216-.257813.96875 4.99639 6.41698 9.271578 13.54726 15.697266 19.25586.01132-.12145.03726-.24185.04883-.36329a250 250 0 0 0 13.583984 13.58399c-.02533.34919-.06544.69554-.08984 1.04492.494162.38393.940754.84498 1.419921 1.25195 26.115933-4.07286 52.876223-11.16741 90.341793-32.30078 5.40233-2.74404 10.30886-9.39097 12.43359-15.72656 1.74227-5.19514.87889-11.09584-.35937-16.43359-1.05776-4.55967-3.59273-9.3449-5.90625-12.74024 1.83296-6.17164 1.14185-12.90424-.19336-19.14453-1.24172-5.80333-3.76675-11.23984-7.1211-16.31836 1.66016-9.59379.41614-18.53049-3.10156-26.35937l39.50977-21.95704c7.5603-3.81279 13.70991-10.57061 16.33008-18.32031 2.38284-7.04779 1.58043-15.57517-1.69336-22.25586-3.24691-6.62581-9.42233-12.49176-16.41407-14.84961-2.94154-.99198-6.11483-1.46261-9.32226-1.46875z" fill="#2e852e"/><path d="m191.35352 232.07812c-1.8062.18912-3.79134.77864-5.94532 1.86719l-117.738278 55.22657-10.458984-10.33985c-5.829108 1.20921-22.57927 6.83674-29.167969 12.55469-7.451244 6.4665-18.257782 24.08987-18.8007815 24.97851a250 250 0 0 0 .00977.0449c-.2235623.33415-.4677266.65707-.6894531.99218 2.8460936 7.8509 4.9892556 15.68878 7.8437496 23.53516.258593-.49135.567951-.9539.830078-1.44336a250 250 0 0 0 7.501953 18.29102c-.155276.32929-.3402.659-.49414.98828 2.141794 3.56628 3.575194 7.8419 5.71289 11.4082 2.854594 2.8554 4.276073 7.14422 6.417969 10.69922.108793-.38073.253702-.73827.365234-1.11719a250 250 0 0 0 11.302735 16.5586c-.07626.32618-.182836.64216-.257813.96875 4.884145 6.27282 9.10858 13.20787 15.296875 18.8496 29.577638-3.65618 55.314105-8.50766 97.376945-32.32421l.0937-.0527.0957-.0488c1.83723-.92839 2.62014-2.09316 3.11718-4.06836.49659-1.97385.39552-4.72969-.33007-7.53515-1.32798-5.13502-5.21293-10.03067-7.14063-11.28516l-35.5664 13.04297 35.88476-23.06055c.79013-.39928 1.21742-.93746 1.50977-2.77343.29191-1.83612.0679-4.64597-.73438-7.60547-1.51577-5.59317-5.2138-11.69094-8.19531-14.24024l-35.54102 13.03125 36.32032-23.28125c1.6071-9.285-1.87191-18.46478-7.83204-23.78711l-44.720694 17.58204 98.199214-54.54883c4.55103-2.29975 6.71573-5.16428 7.66016-8.03907.94455-2.87372.62529-5.94602-.70118-8.60742-1.99007-3.99111-5.80601-7.02829-11.2246-6.46094z" fill="#83fc83" stroke-width="36"/></g></svg>