<svg height="500" viewBox="0 0 500 500" width="500" xmlns="http://www.w3.org/2000/svg"><g transform="translate(.000015)"><circle cx="249.99998" cy="250" fill="#e51a1a" r="250"/><path d="m181.33938 83.856939c97.52275-31.84694 203.27597 26.159281 217.12696 131.568651 10.04116 85.89723-45.79566 162.6049-131.11288 174.6444-76.26503 6.65-147.16573-45.4981-149.44603-126.3231.16679-50.89801 30.03241-87.97493 76.60677-108.40662 44.00125-16.48183 90.46555-3.00917 112.28155 39.63622 17.95322 40.0953 3.57775 87.31302-40.4313 103.80676-21.98685 8.23292-51.6578-5.55285-56.72562-31.5612 24.48155 21.7253 69.7211 11.74379 80.1808-21.06198 5.24648-24.88185-11.48198-41.52298-24.36368-55.64156-23.21161-15.22125-63.26956-13.16738-85.32502 12.05139-41.51846 46.43224-18.48961 112.52397 35.72777 131.08081 60.66482 17.11352 118.96473-29.63961 126.96137-92.39988 2.7637-54.83226-40.99398-106.19486-96.51046-114.27807-76.21988-10.3001-138.45939 50.84936-147.743191 124.09106-9.31956 73.21828 47.315731 138.67973 111.863041 158.33924 49.05305 9.49897 98.18701 2.07129 139.64056-27.40671 82.90715-58.95602 100.11901-177.97214 43.55644-260.39974-52.71171-79.885311-158.575-103.987181-249.15842-67.061741-86.705021 39.45169-149.0660905 134.549061-117.102931 229.167621 15.77888-74.65377 50.93986-153.5943 123.407351-187.514491 9.28724-4.60517 19.44718-8.7232 30.56692-12.33106zm-160.722321 286.075591c-52.57825-113.8254-.38403-260.89182 113.777041-317.643861 10.84604-5.32012 22.21219-9.7712 34.03518-13.36069 115.76394-28.75816 246.03978 34.00351 263.68455 158.897471 10.04526 85.91695-27.72044 168.80365-107.97396 206.83173-102.24035 46.26108-224.798841-11.43986-234.690511-131.24969-7.33455-123.78718 127.307171-194.136761 222.718561-137.24102-42.54074-27.89653-94.21826-33.44528-140.80825-12.98978-71.17376 32.62266-105.080851 118.0397-80.762351 190.63139 30.697281 88.13423 123.572931 132.04164 212.817841 105.59803 82.80488-25.06359 132.16266-100.33164 140.19255-180.04986 12.12434-145.020371-132.23823-245.3588802-265.59709-221.973611 7.92036-4.10499 20.5989-8.4277792 35.61563-11.7452592 60.06317-13.23825 124.63426-3.45807 179.45368 32.4903392 109.65077 71.904621 141.09454 217.803071 65.16008 333.599141-143.00482 218.07486-377.311781 117.06797-437.622951-1.79433" fill="#b21a1a"/></g><g><path d="m401.35742 176.96484 10.25586 37.65625-56.40039-18.0957 3.11719 15.87695-49.49219-22.10742c-26.36937 19.28102-54.86883 35.27108-82.88086 51.98828l11.12305-27.68164-126.87305 9.16016 23.77149-33.18164-131.66602 27.08398a250 249.99998 0 0 0 -2.3125 32.33594 250 249.99998 0 0 0 .71289062 9.97852c-2.25798542 37.40926 3.86159338 75.22266 19.90429738 109.95312 34.751153 68.48818 127.287802 130.87947 226.822262 129.88477a250 249.99998 0 0 0 2.56055.18359 250 249.99998 0 0 0 8.79883-.62891c2.52516-.14858 5.04927-.30989 7.58008-.54297a250 249.99998 0 0 0 233.62109-248.82812 250 249.99998 0 0 0 -.28125-11.47266c.0691-4.94703-.0176-9.88105-.25391-14.79687l-26.04882-2.55469z" fill="#861313"/><path d="m315.63867 213.04688-41.44922 64.70703 102.30078 7.03906 58.27344-6.08203-33.32812 15.70508 12.6914 7.03906 53.40821 8.0918 10.0664 12.7207-68.51367-7.02344-1.79101-.28711-1.52344-.83789-26.67383-14.79492-50.27149-3.44727-26.08789 22.66993 31.95118 30.88281 63.55078 15.87109 53.14258 9.83984-48.07227 11.7793 24.43555 19.49024-42.87305-9.00586-10.875-2.63477 5.86133-7.92187 6.94922-9.4336-58.48047-14.60351-11.75391 10.77343 55.83985 52.49805-101.15821-40.04883 16.65039-20.41992-24.03711-13.33398-75.53711 65.59375 25.82422-43.59375-61.73242-9.64844 74.10156-11.20508 22.16211-37.41601-71.52343-5.31446-40.54102 19.86914-13.01367 45.19922-.91016 3.16016-3.51758 1.50586-41.220699 22.33398 29.498049-33.46484 9.82031-34.08985h-38.222656l46.486326-15.89648 40.7168-19.93945 37.89844-64.34766-130.937504 9.45313 19.345703-27.00391-91.58984338 18.83984a250 249.99998 0 0 0 -.97851562 13.68555 250 249.99998 0 0 0 .71289062 9.97852c-2.25798542 37.40926 3.86159338 75.22266 19.90429738 109.95312 34.751153 68.48818 127.287802 130.87947 226.822262 129.88477a250 249.99998 0 0 0 2.56055.18359 250 249.99998 0 0 0 8.79883-.62891c2.52516-.14858 5.04927-.30989 7.58008-.54297a250 249.99998 0 0 0 233.62109-248.82812 250 249.99998 0 0 0 -.19922-8.14844l-32.26562-3.16601-36.87305-22.62305 7.03516 25.83008-58.94922-18.91211 3.92773 20.01367z" fill="#ff8066" stroke-width="36"/></g></svg>