<svg height="500" viewBox="0 0 500 500" width="500" xmlns="http://www.w3.org/2000/svg" xmlns:xlink="http://www.w3.org/1999/xlink"><radialGradient id="a" cx="1362.7291" cy="216.11429" gradientTransform="matrix(1.0000001 -.0000059 .0000001 1.0000003 -112.72927 33.893757)" gradientUnits="userSpaceOnUse" r="250"><stop offset="0" stop-color="#ff851a"/><stop offset=".42441937" stop-color="#f87000"/><stop offset=".86367416" stop-color="#f26900"/><stop offset="1" stop-color="#e55f00"/></radialGradient><g transform="translate(-1000)"><path d="m1500 250a250 250 0 0 1 -250 250 250 250 0 0 1 -250-250 250 250 0 0 1 250-250 250 250 0 0 1 250 250z" fill="url(#a)"/><path d="m1309.2298 33.82789c128.5196 30.706851 207.8974 167.48127 169.5927 291.56949-31.3771 95.69524-112.8693 162.03793-212.5543 174.60263 153.1796-8.09118 266.0956-163.0043 218.7012-309.92978-36.4562-114.666588-154.6038-191.5214848-270.6514-169.822657-18.8526 4.215647-38.4387 10.498641-55.8829 18.694487-112.5353 47.459213-168.47522 196.206-99.9632 307.85319 57.6978 93.63045 168.5136 141.8489 267.9993 100.77239-134.92 68.97589-303.283-51.46877-311.488-201.30723-4.4167-117.68321 76.8182-219.674136 190.654-246.26040176-89.0147 9.18391126-152.6601 79.39239576-187.7408 157.21169176-38.45522 102.70317 5.2337 231.75078 109.038 294.08388 114.5107 66.1048 260.3537 29.37245 323.6836-83.60152 42.2104-77.69758 34.3514-177.62383-23.1776-249.88923-57.5404-72.257811-157.5429-102.460489-246.4118-71.877168-81.7429 30.682061-131.1298 101.133078-134.0478 190.176958.6692 92.68536 61.7912 168.55972 147.5399 198.52472 128.5549 37.82014 266.7725-70.33038 233.6823-209.88949-14.7104-64.39775-57.8855-122.14991-125.7378-141.121386-71.391-15.467036-138.9716 1.205-181.2869 64.641366-18.8995 29.2286-28.9384 85.21395-26.105 97.65297m0 0c13.5324-50.18833 30.6277-97.66354 72.2125-128.94941 53.182-38.308183 124.4576-37.093813 181.7444-.48035 50.1457 36.48017 75.4845 90.37713 72.3557 150.91678-6.6674 64.04407-38.4038 109.83277-91.6401 141.00844-63.9019 34.56125-135.3795 4.83213-189.1258-35.28385-78.8706-65.48566-79.7477-186.67235-8.9744-256.76104 63.7369-55.941605 167.0207-64.891564 238.7167-6.65053 78.8163 58.35315 90.3045 169.04089 40.972 246.62443-35.2274 56.41892-88.4571 87.60135-152.5581 93.63158-81.9488 2.18264-160.666-41.91503-196.8695-120.9383-36.2055-79.02511-22.5771-164.33167 26.8727-227.66064 49.4316-63.30896 138.3491-86.746364 220.4504-67.54202" fill="#c50"/></g><g><path d="m148.70893 317.38485c10.63251 19.56739 25.09389 38.74691 39.82037 53.64453 32.96645 33.35261 73.11513 51.01129 111.88281 41.89843 38.77052-9.11053 66.84512-42.80945 81.5-87.36037 6.41327-19.49884 10.77806-42.55812 11.66274-64.33453 1.32857-32.7029-.79159-66.82507-9.61977-97.71726-7.77203-26.92154-17.17164-52.14714-29.08985-78.869166-35.9722 25.580616-79.36464 45.536246-115.37109 54.261716-51.84026 8.86844-89.12299 12.3126-136.00926-3.39455 2.1017 29.76145 4.90352 58.92103 10.20262 87.95705 6.93371 31.90099 19.06971 64.55762 35.02143 93.91415z" fill="#994100"/><path d="m309.06588 276.71155-18.50315 2.55011c-3.07228-22.43324-6.18226-44.86133-9.23764-67.29689 30.71453-11.37712 61.8982-25.74165 86.2931-39.99685-5.49505-21.26927-12.63474-42.86578-20.39956-60.27492-28.55752 19.54703-63.90753 35.40444-103.60529 44.73682-42.43318 9.97544-83.73708 10.79187-119.66134 4.69628l-.00005-.00009.00046.002c.65228 20.38467 3.29115 41.66124 8.31656 63.37027 37.25256.50603 71.21486 1.69644 105.15861-2.21583 7.25059 21.45024 14.47572 42.90909 21.71012 64.36479l-17.73025 5.96583-8.58383-25.46129c-3.99725 2.86581-15.78083 5.59169-22.43171 2.10362-8.43111-4.42171-16.05594-12.56495-13.97401-24.90872-19.86948.84243-39.67438.50136-59.20781-1.00647 13.974 47.68755 37.24594 87.84793 64.12083 115.03514 30.14549 30.49861 63.96999 44.31599 94.96305 37.02996 30.99375-7.2831 55.11882-34.72463 68.51969-75.46243 11.7036-35.58258 14.75423-80.76404 6.6531-128.5913-14.28866 8.14302-29.09046 15.62415-44.30206 22.3888 2.90904 4.01071 5.62101 15.3506 2.43592 22.00924-3.93286 8.2219-9.10878 15.2013-23.04564 14.71401zm-54.85761 63.52692 88.36677-39.24245c-28.81308 52.58317-41.38556 72.20976-88.36677 39.24245z" fill="#ffa348" stroke-width="36"/></g></svg>