<svg height="500" viewBox="0 0 500 500" width="500" xmlns="http://www.w3.org/2000/svg" xmlns:xlink="http://www.w3.org/1999/xlink"><filter id="a" color-interpolation-filters="sRGB" height="1.024041" width="1.023959" x="-.011979" y="-.012021"><feGaussianBlur stdDeviation="2.3244626"/></filter><g transform="translate(-1000 -500)"><circle cx="1250" cy="750" fill="#8f29a3" r="250"/><path d="m1250.0527 500.00195-.062 248.73633-15.8769-247.60156a250 250 0 0 0 -31.6094 4l44.9063 230.4707c-.1031.0367-.2293.0547-.3829.0547l2.4024 13.07617-.2539-.53906-.5391-1.35742-3.3926-10.71875c-.1832.0705-.3478.12695-.5156.12695l-.123.0781-82.9239-219.53124a250 250 0 0 0 -14.9511 5.57617l96.83 214.45117-.2207.11523 2.3282 4.48438 2.3672 5.26758.055.0508.42.75586.7539 1.27929v.0312l-.7539-1.31054-.4766-.80469-5.582-9.30274c-.186.12274-.3848.23957-.5723.4004l-123.2001-200.20114a250 250 0 0 0 -34.2168 25.29493l164.4492 186.29101-.4023-.58594.8418 1.03516v.0527l-.3301-.32812-.096-.13086v-.006-.002l-175.75-175.03906a250 250 0 0 0 -20.9981 23.98242l185.9649 142.98828-.1446.1875 10.5743 8.34765-2.1172-1.08789-9.502-5.71875c-.141.18337-.2305.33551-.3105.47657l-207.3786-109.41971a250 250 0 0 0 -7.4063 14.18946l214.3047 96.24219c-.075.17916-.1684.38235-.2617.5996l12.2988 4.78321-.037-.0254.5313.23828-.4922-.21289.3613.18359.2148.082-.2148-.0527v-.0293l-12.9355-4.12109c-.057.15093-.127.33679-.1778.51172l-224.7558-68.26953a250 250 0 0 0 -8.5313 41.71874l245.8418 30.73633h-1.248l-245.7344-14.7832a250 250 0 0 0 -1.0216 14.28126 250 250 0 0 0 1.2598 17.61914l233.6972-16.13281h-.027l.3086-.0234-.2793.0234 13.0976-.74219-7.7461 1.87305-.3046.0508-4.8379.94726.07.24024-227.4707 55.73242a250 250 0 0 0 4.0605 15.40625l223.6739-70.11328c.094.36676.1869.70213.2812.96875l12.084-4.50977-6.7949 3.5625-217.9532 99.91602a250 250 0 0 0 21.3477 36.72461l203.4824-139.34961-2.9707 2.41406-190.957 149.70117a250 250 0 0 0 21.2871 23.65235l164.0078-166.71875c.2822.26661.5719.51007.8438.81054l7.707-8.71289v-.0332l.7656-.87305.1875-.24023.7832-.85352.02-.0664.057-.0274-.021.16016-.1055.11719.051-.1836-.068.1836-1.334 1.7539.6191-1.05468-.1875.21093-.7656.90625-2.625 3.71485-4.3184 5.63281.291.18359-133.4043 192.17969a250 250 0 0 0 13.3125 8.69336l120.918-200.25976c.1125.0705.2586.16516.4082.23437l6.9766-11.88477-.2813.72461-99.9199 225.99805a250 250 0 0 0 40.1289 13.44531l59.4668-235.87695-1.5898 9.31836.2383.0566-42.5801 229.88086a250 250 0 0 0 31.5312 3.64844l12.8692-233.375c.244.024.4607.0234.6679.0234h.031v-12.48632l.055-.88086.3847 3.38476.6387 9.95899c.1958 0 .3428-.0234.5117-.0234l27.1407 232.31445a250 250 0 0 0 15.7187-2.41797l-41.9705-230.02728c.2564-.0282.4795-.0932.7148-.11719l-2.0859-10.82226-.055-.13867-.3242-1.81055.019.0293.3594 1.91993 74.1777 233.50586a250 250 0 0 0 39.0058-16.35352l-110.7109-214.89844 4.1817 6.78516.2734-.1875 120.2129 200.67969a250 250 0 0 0 26.0762-18.11719l-144.8977-183.5586c.2565-.18904.424-.39357.6621-.60938l-8.541-9.65039 3.4004 3.0625 5.9023 5.89648.2891-.31054 174.332 156.38672a250 250 0 0 0 10.0782-12.29493l-183.7852-144.8125c.1309-.15941.3098-.33484.4141-.48437l-9.4571-7.28711 211.0782 126.48242a250 250 0 0 0 18.5488-38.16015l-228.9668-88.90039 11.1367 3.39843.014-.1875 223.3906 70.74414a250 250 0 0 0 7.5527-30.96289l-230.5156-41.68359c0-.16361.037-.30359.037-.45313l-7.4414-.91601-4.5957-.8086 12.1504.71485c.03-.33295.029-.6341.029-.97266l234.6992 1.7832a250 250 0 0 0 .172-2.39062 250 250 0 0 0 -.4004-13.62109l-234.5 13.36328v-.33594l-11.8945.82031-2.2285.14063 2.1855-.14063h.043l242.584-45.59375a250 250 0 0 0 -11.252-41.05469l-230.9668 85.63868-.2617.0703 10.6133-4.83984c-.1733-.36253-.4002-.81563-.668-1.21485l208.0469-109.45311a250 250 0 0 0 -7.8809-13.9043l-200.6152 122.56641-.2129-.33203-5.6777 3.94335-4.7539 2.89454 9.7656-7.67383-.1446-.20899 183.2696-147.35742a250 250 0 0 0 -29.3672-30.84961l-161.1992 182.9082-2.3418 2.39454 151.248-195.47657a250 250 0 0 0 -26.3965-17.98242l-119.1699 202.81055-.096-.0664-7.1347 11.80469 5.5937-12.57617c-.2775-.15518-.5702-.25048-.8789-.36328l83.332-219.99219a250 250 0 0 0 -15.1054-5.23438l-69.2344 224.92579c-.11-.0382-.2253-.0646-.3848-.11524l-1.9004 7.61328-1.1386 3.73438 2.125-11.58008c-.2032-.0199-.412-.0559-.6192-.0742l40.0918-231.87891a250 250 0 0 0 -42.4219-3.70703zm-1.9648 235.51758 1.0215 8.85742v.043l.8808 4.50196v.46484l.029-.16992.021.63476v.10352l-.057-.10352v-.44531l-.066.31055-.2403-.5-.5683-4.79688zm-9.459 5.05469 7.1582 6.4375-.025-.0195zm26.0254 6.08008-11.9434 2.92968h-.059zm-12.2715.11718-1.6426 2.81055-.3535.4043.1113-.45313-.092.20899-.019.18359-.053.10742v-.0254l.053-.082v-.16406l.019-.0195v-.10742l.012-.0234.082-.1211v-.0234l.033-.0274.062-.15234v.0195l-.062.13281-.033.0508zm-6.5937.24024 3.3574 2.57226.3652.57227-.4531-.16992.2031.14062h-.022l-.2207-.14062h.037zm5.082.25-.2988 1.60351.2988-.84765-.3359 1.38867-.1036.15234.1407-.69336.2636-1.58203zm-.5879.38867-.086 1.73438-.059.19531-.1192-.4707zm3.1758.75195-2.2969 1.60547h-.023l-.416.2793-.2911.11914.2149-.2793.076-.0215.8945-.7207zm-4.082.58399.1347.14258v.0469l-.084-.12695zm3.9023.32031h.027l-.1738.0801zm-3.5605.18359.1835.36133v.0391l-.1835-.35742zm.4199.0937.02.26758v.0391l.039.0957.047.11914-.047.0215-.039-.11914.039-.0215-.039-.0605v-.0352l-.059-.26562zm2.2422.0645-.07.0273-1.0273.31055.1582-.0605zm-5.6954.0684 2.3926.41015.3496.2168.029.0625-.3164.0644zm2.1856.3164h.053l.096.0312zm.7344.19336h.02v.0195zm-.166.0606h.02l.076.0801zm.2167.18359h.024l-.024.0312zm-.3398.16992h.059l.248.0352-.8203.33203zm-.3926.0352h.2207l-.9414.48438.2657-.0547-.025.0293-.2403.0254-2.0449.39648v.0234l-5.2949.94336 5.2949-.9668zm1.7969.0234.5117.043.7598.22656-.8535-.0859zm-.2227.16601.035.0176.1133.22461.332.16602 1.4531 1.41797-1.3632-1.01758-.2364-.30078-.1875-.26563-.018-.0352-.094-.18946h-.035zm-1.0722.082-.252.27539h-.029l-2.8086 1.27734 2.3203-1.42773zm1.5859.0996.1504.0254.031.0312zm.2227.0254 1.9551.61132-1.9258-.57812zm-1.1914.17382.031.12696.022-.0996-.022.13281v.006l.076.23242.1269 1.91602-.2343-1.36719.031-.78125-.09.51367v-.0937l-.031-.1875.031.14453v-.26562zm.7304.0937.062.0664.088.14844-.037-.0312zm-1.1523.1836-.2461.53125-3.9902 12.97851 3.9629-12.97851h.025l.086-.29102.01-.0117zm-.09.10547-.064.11523.041-.0996zm1.4805.082.033.0234.1153.1914-.092-.0937zm-.4414.21484.021.0293.029.22851zm-1.748.26758v.0312l.051-.0312zm2.3164 1.36719 4.9316 10.89648-4.9316-10.8418z" fill="#aa40bf"/></g><g transform="matrix(.9954942 .09482244 -.09482244 .9954942 24.848378 -22.591946)"><path d="m268.5332 18.119141c-12.72144 2.635787-25.08628 6.898832-36.83203 12.435547-3.8739 1.996549-2.6514 6.752082-.49609 9.539062 2.39662 3.166004 2.90851 7.065714 2.8418 10.912109-.29556 3.560159-3.13317-.863637-5.27344.640625-3.93577 4.089874-3.60989-4.22786-3.64453-6.71875.11377-3.900615 3.47355-7.884977 1.20117-11.644531-2.7296-2.627808-6.94048-2.169385-10.39453-3.080078-10.03392-1.545898-20.20896-2.664753-30.35743-2.558594-4.05352.451966-4.84858 5.245743-3.6914 8.44336 5.00436 15.311804 10.5811 30.282979 23.24609 39.992187 2.92183 2.301294 8.07205 3.831703 10.3711-.08594 4.55901-2.150802 13.18941 12.408117 18.54297 12.9375 3.87752.05203 5.01704-4.564251 7.0625-7.119141 2.11891-3.671018 4.55329-7.186044 7.08007-10.546875 2.57409 2.224821 6.93553 3.85886 9.84961.541016 11.92695-11.741182 14.28461-28.064311 15.29883-43.228516.86387-4.133131 1.24589-10.568669-4.80469-10.458984zm59.57422 14.363281c-4.91465.180966-7.04731 6.597865-7.55078 10.623047-4.51527 7.586839-9.61267 27.82564-6.35937 34.378906-.61728 4.441342 1.31221 10.571887 5.68945 12.466797 2.06989.977657 6.63911-2.809967 5.11914 1.628906 1.01532 5.442981 1.79124 11.117452 2.30273 16.705082 2.70552 8.51522 11.31507 1.73669 16.8418.6289 2.67496-.49985 6.67933-2.67215 8.33399-2.05859.24194 6.83324 7.66259 6.87132 12.55468 5.26367 10.95411-3.76762 25.50707-13.167396 30.66406-22.845702 4.33108-3.16584 10.64025-11.62761 2.41797-14.326172-11.10891-4.422549-22.55041-8.016648-34.20703-10.683594-8.61739-.560642-4.46737 10.048229-8.72656 14.601562-1.08775 1.453756-3.74148 6.940422-4.36914 1.556641l-2.37109-1.457031c-5.54626 1.405935-.32509-4.789669.96093-6.660156 2.75026-4.173936 12.04719-5.853533 7.58008-12.289063-7.90349-9.505065-16.62579-18.327944-26.0293-26.351563-.86927-.710095-1.79313-.927149-2.85156-1.18164zm-195.94726 20.888672c-4.69715.07285-7.42392 6.333444-9.89258 9.158203-5.39662 7.459313-10.34266 15.245056-14.79688 23.302734-2.91613 8.141732 8.45097 7.078322 11.66407 12.435547 1.10323 1.4495 5.67681 5.533082.30468 4.640622-1.89585 1.27034-2.22944 2.49186-2.79687 4.57422-3.97246-2.66197-7.3877-7.09741-8.19531-11.994139-1.94492-8.101383-10.075188-2.795196-14.740239-.638672-8.563064 4.111111-16.871108 8.751781-24.867187 13.878911-6.795651 7.25055 5.538301 11.70846 9.417968 15.99414 10.438019 7.7298 23.445758 14.70027 35.966798 13.64453 4.63867.30703 6.97291-4.13972 6.50391-8.28516 5.59102 1.89437 11.84057 1.49648 17.63086 2.92578 4.13822 1.74653 8.58895-2.29757 7.2246-6.58398-.44648-5.33932-.66141-10.69683-.65429-16.05469-1.676-4.13108 5.68895.25393 6.76367-3.44531 1.96906-3.49964 2.6558-8.218561 1.6543-11.984377.31885-14.665695-9.93419-31.392434-19.04883-41.193359-.75648-.270227-1.46765-.385407-2.13867-.375zm305.22656 66.345706c-12.77573 5.55344-24.22122 15.44606-31.76367 26.16211-2.12153 3.76649-4.15294 7.22142-5.10157 11.58984-1.75456 4.37237 1.4145 8.41572 5.82227 9.14063-3.37924 4.71891-4.86932 10.68458-7.93555 15.68945-4.20888 5.81707 2.74982 9.34799 7.68164 9.67383 4.2654 1.18868 10.71695 2.5281 13.33008 3.9707-3.64499 5.78921 2.40643 10.02204 7.39844 11.39648 14.15246 3.49084 25.96541 2.53805 39.63867-1.74218 5.50004-.26953 13.29784-4.80385 7.94336-10.73047-6.54788-9.83428-13.91729-19.12309-22.02148-27.72071-6.88731-5.2377-9.2621 5.8603-15.31446 7.30274-1.66887.62732-6.0133 3.18334-4.40039-.42774 1.23068-2.66789-4.28313-4.10857-2.89453-5.17382 4.02716-2.95134 9.30754-4.52803 14.27735-3.56055 6.33827-.37788 4.88286-7.49581 4.15624-11.74414-1.3907-10.17786-3.48201-20.25804-6.21289-30.16016-.52014-2.05893-2.51077-3.60198-4.60351-3.66601zm-396.529298 39.65429c-6.972762.93073-4.901024 9.03464-5.619141 14.03907-.348253 9.24453-.125806 18.51353.720703 27.72656 2.192303 8.37733 10.887774 1.0788 16.539063 3.67383 1.704975.57339 7.651244 1.33532 2.835937 3.63867l-.613281 2.68164c3.041861 4.75668-4.42201 1.84601-6.597656 1.24609-4.924532-1.18811-9.252795-9.50044-14.03125-3.20507-6.575726 10.76668-12.114098 22.16102-16.59375 33.95312-1.771311 7.96771 8.652049 7.5715 13.662109 6.54688 12.230667 2.45499 25.55253-1.36835 36.027344-6.47657 3.013578-2.16228 7.431283-4.36303 7.347656-8.62109.409824-2.32982-4.755773-5.28883-.322265-5.44336 5.101939-3.00233 10.562418-5.32624 15.851562-7.94336 5.547176-5.24842-2.672218-10.34398-5.222656-14.72656-1.555056-2.50411-4.900668-6.02972-5.199219-7.65625 4.800275-1.51923 5.45111-6.97547 2.820313-10.67774-1.893387-3.67645-4.257926-6.67559-7.087891-9.66015-6.096049-5.71392-13.119334-10.17918-20.019531-13.48828-4.830108-1.84801-9.383011-4.21578-14.498047-5.60743zm427.462888 85.60547c-12.4519.0265-23.71708 2.33122-34.90234 7.70703-3.92552 2.54026-10.27193 6.79964-6.26563 12.06446 2.99106 2.70449-3.09118 2.60888-4.5664 4.59179-4.63186 3.72161-14.03743 4.03289-13.70117 11.41407 2.96801 4.95664 7.4533 8.88234 10.64648 13.73632.95471 1.91511 4.11803 2.84809.70313 4.02344-5.75807 3.26503-1.61243 9.69079 1.00585 13.57422 8.94193 11.13458 18.92646 15.79863 31.35938 21.16016 4.79866 2.89509 14.16486 4.85633 13.62695-3.51172.60263-11.80179.29179-23.657-1.04492-35.40039-2.37858-8.33173-10.91264-.83446-16.62305-3.30469-1.70956-.49751-6.69971-1.04481-3.26367-2.97656 2.83983-2.13438-2.19604-7.13002 2.38867-5.84961 6.04439-.13316 10.16267 4.95915 15.30664 6.50976 4.96525-1.3843 6.04003-7.18488 8.59571-11.07812 4.39607-8.70728 8.48906-17.64574 11.39453-26.96094.27891-7.11887-7.62556-5.29287-12.1543-5.67383-.84101-.0182-1.67573-.0272-2.50586-.0254zm-407.158201 49.42969c-8.419036-.11581-16.593845 1.90794-25.615234 4.29492-4.831633 1.09291-13.723794 3.51103-9.25 10.17969 6.928116 10.04381 14.719148 19.49407 23.273437 28.19531 6.996117 5.08896 9.141257-6.0565 15.164063-7.625 1.68751-.63881 6.807531-3.83012 4.5 1.02344-.289267 3.16739 5.995863 3.54367 1.611328 5.4043-4.727246 3.75258-11.10779 2.32451-16.142578 4.20703-3.084546 3.89338-.487782 8.90109-.220703 13.32031 1.563524 9.18653 3.694399 18.27451 6.347656 27.20703 8.110657 10.18506 37.728803-21.031 38.117188-28.33008 2.426224-2.86631 3.103474-7.26833 2.974614-10.98437.30243-4.29687-8.672063-3.03314-4.910161-6.53516 2.096923-5.60177 4.854741-10.92488 7.291011-16.36914-.34894-9.69746-17.105274-6.66723-22.382808-10.81445 2.930708-4.50075-.586993-9.07878-5.103516-10.27149-5.46375-1.99307-10.602875-2.83285-15.654297-2.90234zm329.394531 63.95898c-4.93811.0781-9.80035 2.91687-8.64648 8.72461-5.62705-1.78356-11.8681-1.26935-17.68555-2.58593-6.86039-2.11603-7.98211 5.60734-6.75781 10.39843.2146 4.53388.98984 11.2449.45898 14.21289-6.74102-1.58819-8.84436 5.55606-8.48633 10.80665.24308 14.79654 8.06352 26.45098 15.51758 37.77539 2.15152 4.42732 8.11246 9.9052 11.91797 3.64843 7.15693-9.5695 13.56831-19.69639 19.14453-30.26562 3.0248-7.61949-7.15973-6.90437-10.61914-11.02149-2.06928-2.00562-6.83422-5.92212-1.36914-5.99218 2.85577-.78487 1.32823-6.83931 4.42187-3.03321 5.01254 3.4264 5.57198 9.97798 8.88672 14.25586 4.63202 1.77778 8.63624-2.18523 12.77539-3.75 8.59618-4.45829 17.12556-9.18692 24.96875-14.87109 4.75766-7.00536-6.08955-10.421-9.6914-14.36524-9.88456-7.53132-20.95204-12.58157-32.73242-13.80273-.69123-.10093-1.39807-.14592-2.10352-.13477zm-247.10742 31.04102c-2.06469.0544-4.23684.56124-5.99219 1.12305-9.08666 3.35603-26.23148 14.74141-29.04687 22.87695-4.84152 3.18516-11.173214 12.60311-2.21485 14.97852 11.40248 4.1568 23.08034 7.80875 35.04102 9.90429 7.09345-.72932 3.35804-9.07185 6.46679-13.30859 1.06993-1.81978 3.96508-8.71857 5.11719-3.20117l2.39453 1.4082c5.51026-1.51011.42189 4.77896-.82422 6.67383-2.62854 4.33923-11.86718 5.97556-7.32812 12.4375 8.09952 9.34705 17.00996 17.98984 26.58789 25.81445 9.20764 5.41883 4.98619-.73016 8.22852-3.08398 3.75439-8.99085 9.80306-26.00752 8.68554-35.47852.0457-2.675-.70658-4.99596-.80078-7.61719-1.06648-4.53481-2.86941-11.90832-9.15234-10.03906-2.87239 1.80556-1.7448-.89323-2.52735-3.27539-2.53706-8.14582.9478-21.04263-10.29492-18.79102-5.56951.94487-17.22529 7.93914-17.32812 4.94727-.42665-4.28968-3.57057-5.45975-7.01172-5.36914zm125.5918 20.95703c-5.73392 2.65542-6.97506 10.03833-10.99805 14.66797-1.76554 1.39658-1.62603 5.84264-4.00391 2.70898-4.42202-4.23653-8.96538.77144-11.60351 4.19532-7.48311 10.49593-17.61287 45.94248-7.40821 50.27734 5.97906-.32554 11.66437-2.79357 17.37891-4.49219 7.3578-2.76313 14.74288-5.63829 21.61914-9.45312 5.15001-4.97261-2.99936-9.17472-3.17187-14.43164-.27804-2.09379-2.24733-9.26951 2.0625-5.6875l2.74218-.38477c3.35705-4.5834 3.325 3.44798 3.54492 5.70117.66026 5.03071-5.55081 12.08462 2.06836 14.26758 12.25144 2.18511 24.70047 3.21785 37.14258 3.22266 8.0323-.87198 3.94532-10.33544 1.81055-14.66797-3.02677-12.13852-9.82941-22.53602-18.20508-30.87695-3.69807-2.78105-9.28658-7.5437-13.43555-2.85938-1.9364 4.45777-5.02555-2.2151-7.70117-3.39844-3.98171-2.74772-6.65825-8.54194-11.84179-8.78906z" fill="#6a1f7a" filter="url(#a)"/><path d="m478.00714 250.15817c-2.42823-.0546-4.85667-.10717-7.28533-.1579-2.58317 8.4391-5.65187 16.47274-9.14327 24.10106-.2133.46848-.4282.93544-.64468 1.40089-.42195-.22708-.84432-.45302-1.26711-.67786-6.22155-3.29867-13.6281-4.48415-20.71232-3.29463-2.70673.24722-5.23017.98914-7.36452 2.06642-.46828-.51215-.93915-1.02034-1.41259-1.52452-.27488-.29308-.55064-.58481-.82725-.87517-.34057.20621-.68149.41091-1.02274.61409-4.37367 2.5776-8.80166 4.90876-13.26892 7.00169-.44928.21218-.89899.42193-1.34909.62927.33277.36874.66411.73964.99402 1.11265 3.28268 3.70774 6.42411 7.62607 9.41606 11.73995.23306.32136.4652.64392.69643.96766.36704-.15663.73389-.31471 1.10056-.47425.64447-.28061 1.28836-.56571 1.93165-.85534 1.52803 1.82728 3.53556 3.49763 5.90343 4.78821 6.01332 3.89132 13.26202 5.71846 20.2616 5.17088.47626-.0379.95262-.0771 1.4291-.11727.013.50917.024 1.01887.0332 1.52907.16523 8.31483-.18554 16.76569-1.05242 25.28977 2.23761.87715 4.47581 1.75281 6.71457 2.62694.7291-12.38068.41542-24.54711-.92483-36.31742-3.66081 1.80126-9.00815 2.05342-14.68713.57739-5.06503-1.31647-9.35685-3.72892-11.96413-6.25469 2.10612-1.04623 4.20427-2.14226 6.29307-3.2889.46293-.25437.9254-.51123 1.38739-.77059-.32024-.42352-.642-.84498-.96529-1.26436-1.46794-1.89418-2.96681-3.74583-4.49582-5.55356 3.39636-1.2873 8.31971-1.80286 13.51559-.99409 5.80924.90424 10.61495 3.26474 13.25153 6.38161 5.96687-10.29023 11.18057-21.47722 15.45924-33.57717v.00017zm-26.35619 77.53521c.75932-7.65755 1.09549-15.2515 1.00859-22.73459-1.34403.0305-2.69785-.0233-4.04957-.15199-1.312 6.43451-2.94666 12.82955-4.89057 19.1602 2.56453 1.3494 5.22782 2.59005 7.93155 3.72638zm16.0574-77.68232c-2.94038.01-5.881.13238-8.7758.39245-.67901 6.64286-1.70315 13.17184-3.04835 19.574 1.28889.41681 2.54947.90313 3.76805 1.46333 3.04382-6.81903 5.74445-13.96225 8.05625-21.42978zm-11.68132.70737c-2.67722.33278-5.28154.78529-7.76498 1.38551.43101 5.43886.60022 10.89733.51641 16.35987 1.47668.15968 2.93377.41207 4.36961.75102 1.26038-6.05542 2.22706-12.2247 2.8788-18.4964zm-14.83974 71.8558c1.82749-5.99967 3.37237-12.05583 4.62274-18.14643-1.4327-.25354-2.85135-.59438-4.25109-1.02384-2.10316 5.09561-4.41905 10.07993-6.93144 14.94382 2.03759 1.4978 4.24351 2.90409 6.55973 4.2266.00002-.00006.00005-.0001.00006-.00015zm-2.29308-20.10311c-1.01785-.40244-2.01987-.85265-3.00087-1.34851-2.72414 3.70858-5.56504 7.2715-8.50866 10.68895 1.45426 1.66225 3.12371 3.25527 4.97363 4.77386 2.36234-4.59942 4.54571-9.30698 6.53584-14.11463.00002.00011.00004.00022.00006.00033zm7.05608-34.20292c.0693-5.14699-.0912-10.28831-.48938-15.41033-2.31443.68924-4.49026 1.5146-6.4889 2.48137 1.38545 4.235 2.59288 8.56979 3.62211 12.991 1.11874-.0717 2.23976-.094 3.35615-.0618.00001-.00009.00001-.00019.00002-.0003zm-12.53641 31.47451c-1.00142-.61057-1.97514-1.27042-2.91715-1.98211-2.74512 1.91627-5.52079 3.72897-8.32151 5.44022.7889 2.23686 1.94929 4.36187 3.42496 6.38485 2.69763-3.15613 5.306-6.43711 7.81375-9.8431-.00002.00004-.00003.00009-.00005.00014zm6.35136-31.12016c-.95288-4.05515-2.05894-8.0347-3.31802-11.92787-2.15801 1.28619-4.06154 2.78262-5.66367 4.52178 1.89082 2.61005 3.70773 5.31043 5.44872 8.09597 1.16898-.28966 2.34821-.51961 3.53345-.69012-.00016.00008-.00032.00016-.00048.00024zm-2.82722 15.51374-9.84635-2.03946c-.50988 2.48669-1.07945 4.96248-1.70699 7.42563-2.40685-3.19714-4.90531-6.27145-7.4914-9.21564 3.68647-1.74604 7.3465-3.65293 10.97178-5.72521 2.78482 3.0459 5.47727 6.23335 8.07303 9.5544-.00003.00009-.00005.00019-.00007.00028zm-5.5271 99.14194c-1.89859-1.499-3.79807-2.9968-5.69845-4.49339-6.89277 5.05476-13.9776 9.64596-21.19167 13.77369-.44213.25416-.88475.50657-1.32785.75724-.21504-.43129-.43087-.86199-.6475-1.2921-3.18922-6.31318-8.52567-11.65281-15.02686-14.8145-2.36437-1.38004-4.87351-2.24072-7.27325-2.58913-.0801-.69721-.1637-1.39286-.2508-2.08689-.0504-.40326-.10192-.80596-.15465-1.20812-.40361-.0276-.80676-.0564-1.20944-.0863-5.14509-.40632-10.21328-1.00807-15.18951-1.79704-.5015-.0779-1.00207-.15777-1.50169-.2395.0555.50278.109 1.00639.16058 1.5108.51557 5.01567.8389 10.11064.96175 15.26985.01.40265.0168.80569.0235 1.20912.39718.0756.79498.15015 1.19341.22353.70039.12878 1.4027.25403 2.10688.37573.22091 2.40281.94008 4.93987 2.18059 7.36207 2.79842 6.66182 7.83195 12.28058 13.95831 15.81111.41751.2398.83567.47885 1.25445.71713-.2748.42833-.55134.85607-.82959 1.28323-4.52101 6.97067-9.49987 13.78392-14.93674 20.37691 1.38635 1.9786 2.77396 3.95636 4.16285 5.9333 7.44338-9.84717 13.91224-20.0839 19.42276-30.5283-4.04013-.62235-8.63192-3.47039-12.51477-7.93381-3.46745-3.98592-5.66078-8.43361-6.37227-12.0378 2.35709.32826 4.73325.6172 7.12709.86604.53067.0549 1.06222.10791 1.59462.15889-.0205-.53549-.0431-1.07026-.0678-1.6043-.11766-2.41648-.27685-4.81775-.47678-7.20238 3.56667.90128 7.90352 3.33886 11.70591 7.03262 4.2425 4.12134 6.83514 8.86074 7.23592 12.92683 10.73706-4.9213 21.32472-10.80743 31.5811-17.67462-.00003.00004-.00006.00009-.00009.00013zm-65.21956 47.76793c4.87039-5.94042 9.36561-12.05984 13.48577-18.31104-1.13668-.73759-2.2349-1.54974-3.2897-2.42244-4.70594 4.60205-9.63329 9.01263-14.76867 13.20685 1.3981 2.55429 2.93976 5.07278 4.5726 7.52663zm57.12081-54.06058c-2.34099-1.75589-4.74925-3.42452-7.20206-4.95495-4.43092 4.83158-9.05859 9.45044-13.85898 13.8436.80815 1.09579 1.55409 2.23087 2.22468 3.40029 6.40008-3.72514 12.69411-7.82138 18.83648-12.28885zm-9.69719-6.44843c-2.32482-1.34175-4.66615-2.54409-7.00385-3.55264-2.90537 4.58995-5.99642 9.08873-9.26438 13.48082 1.10877.99858 2.14757 2.06126 3.11927 3.18095 4.54707-4.1686 8.93711-8.54215 13.14884-13.10921zm-53.34311 50.40954c4.85757-3.98897 9.52597-8.17447 13.9933-12.53448-1.05265-1.02172-2.04488-2.10783-2.97129-3.25707-4.62864 3.06116-9.35604 5.93278-14.16599 8.60573.8729 2.38791 1.9389 4.79186 3.14384 7.18591.00005-.00003.00009-.00006.00014-.00009zm9.32341-18.07572c-.62268-.91105-1.20507-1.85322-1.74371-2.82197-4.37733 1.56479-8.76319 2.96372-13.14354 4.19701.28792 2.20687.79739 4.47328 1.50065 6.77558 4.54139-2.53977 9.00839-5.25941 13.38675-8.15092-.00005.0001-.0001.0002-.00015.0003zm25.56292-24.22855c3.08514-4.15292 6.01014-8.4017 8.76732-12.7327-2.26104-.8337-4.49872-1.47163-6.68766-1.88408-1.45869 4.24088-3.07583 8.47679-4.85161 12.69435.95461.59888 1.88125 1.23976 2.77174 1.92265.00007-.00007.00014-.00015.00021-.00022zm-28.59545 18.85137c-.48988-1.07689-.92814-2.18004-1.30938-3.30928-3.3881.0581-6.74405.0254-10.06237-.096-.60679 2.32832-.83151 4.76712-.73052 7.29152 4.03327-1.15295 8.07118-2.44832 12.10239-3.88628-.00004.00002-.00008.00005-.00012.00009zm23.34235-22.19607c1.63031-3.88216 3.12444-7.77949 4.48255-11.68124-2.51718-.24322-4.96733-.1554-7.32863.32166-.0635 3.25615-.21316 6.54252-.45103 9.85397 1.12873.44668 2.2289.94967 3.29764 1.5057-.00018-.00003-.00035-.00006-.00053-.00009zm-11.44154 11.17057-6.97474-7.36076c-1.88795 1.7902-3.81 3.54389-5.7644 5.25933-.15163-4.05696-.42635-8.0722-.82016-12.03843 4.11045.63704 8.28287 1.14755 12.50896 1.52699.47731 4.15108.82894 8.35796 1.05056 12.61267-.00008.00007-.00014.00013-.00022.0002zm-60.04657 79.48614c-.73492-2.28575-1.47142-4.571-2.20949-6.85573-8.57106.35878-17.04071.19585-25.34613-.48864-.50969-.041-1.01877-.0839-1.52723-.12887.071-.47345.14092-.94686.20962-1.4202 1.00126-6.95839-.36294-14.30774-3.86001-20.56332-1.14197-2.46087-2.68931-4.58555-4.42417-6.23647.32505-.61057.64566-1.22197.96183-1.83415.1839-.35556.3663-.71139.54722-1.06747-.3092-.25208-.61713-.50505-.92378-.75891-3.90525-3.26236-7.60239-6.66916-11.07635-10.21218-.35098-.3558-.69968-.71298-1.04611-1.07155-.23453.43452-.47152.86852-.71097 1.302-2.37893 4.31193-5.0011 8.57188-7.87474 12.76479-.22471.32691-.45095.65339-.67873.97947.26987.29778.54117.59472.81389.89084.47952.52039.96344 1.03822 1.45172 1.55346-1.21062 2.05312-2.11794 4.51456-2.54787 7.19333-1.67438 7.01343-.99939 14.51731 1.884 20.96993.19668.43842.39454.87646.59357 1.31412-.48182.18622-.96514.37074-1.44996.55357-3.64208 1.38164-7.36923 2.66733-11.18144 3.85092-4.45217 1.29162-8.97656 2.42533-13.56334 3.4011-.11778 2.41326-.23371 4.82675-.3478 7.24047 4.71562-1.19546 9.35615-2.55061 13.91114-4.06455 7.26707-2.60659 14.19404-5.56205 20.78469-8.82412-2.95011-2.84029-4.9915-7.80737-5.50354-13.68844-.45621-5.23974.38625-10.12023 1.89108-13.42759 1.69557 1.64518 3.43723 3.26151 5.22357 4.84825.39614.35158.79447.7017 1.19499 1.05035.29143-.44476.58031-.89013.86664-1.3361 1.29058-2.02162 2.52905-4.05531 3.71616-6.09965 2.35888 2.7701 4.50142 7.22652 5.49028 12.38535 1.10506 5.76495.50703 11.08892-1.53618 14.63561 11.69546 2.08642 23.84527 3.13994 36.26759 3.14432-.00005.00002-.00011.00004-.00015.00006zm-81.99293 1.20476c4.60184-.99777 9.1379-2.15792 13.5978-3.4804 2.93467-.92156 5.81783-1.90504 8.64948-2.94749-.48105-1.26567-.88414-2.56985-1.21445-3.89804-2.46183.34676-4.9404.64566-7.43503.8954-4.18762.37087-8.38493.59778-12.58578.68403-.46532 2.87442-.7955 5.80683-1.01202 8.7465zm78.80003-10.87117c-.95858-2.74243-2.02169-5.44921-3.19808-8.06764-6.36412 1.53263-12.77664 2.75365-19.2135 3.65013.0409 1.34959.008 2.69654-.10848 4.0294 7.39078.54748 14.9127.67693 22.52011.38825zm-4.42956-10.67878c-1.17483-2.39213-2.43933-4.67799-3.80607-6.80337-4.93772 2.17039-9.98503 4.13886-15.13314 5.88986.34373 1.43875.59407 2.89038.75652 4.35124 6.08836-.85372 12.15633-2.00349 18.18264-3.43787zm-72.84162 9.94616c4.02939-.0984 8.05427-.32933 12.06895-.69577 2.30022-.22959 4.58674-.50198 6.85898-.8161-.23752-1.44795-.38651-2.9121-.44468-4.38813-2.14067-.11376-4.27907-.26719-6.4143-.46083-3.41169-.31724-6.79425-.73342-10.14555-1.24477-.77181 2.42406-1.40481 4.976-1.92356 7.60559.00006 0 .0001 0 .00016.00001zm18.48225-8.74831c.0434-1.10331.13751-2.20734.28156-3.30626-2.25813-.69418-4.49038-1.43669-6.69486-2.22749-2.12089-.74567-4.20912-1.53025-6.26473-2.35211-1.10702 1.93284-2.08294 4.04312-2.93269 6.29727 3.04067.45104 6.10703.82178 9.19742 1.10928 2.13456.20074 4.27274.36027 6.41359.47914-.00009.00006-.0002.00011-.00029.00017zm34.65842-4.8302c4.85287-1.65506 9.61531-3.50751 14.27963-5.54374-1.39824-1.93932-2.88257-3.70515-4.44726-5.26042-3.53207 2.67272-7.20302 5.23569-11.01303 7.67555.44162 1.02603.83745 2.07043 1.18036 3.12868.0001-.00002.0002-.00005.0003-.00007zm-33.8935-1.29491c.2453-1.15582.54594-2.30118.90532-3.43288-2.72666-1.98124-5.35847-4.04048-7.88998-6.1756-.0648.0516-.12931.10361-.19356.156-1.77453 1.48336-3.34358 3.24966-4.73172 5.25509 1.55829.61254 3.13553 1.20317 4.73172 1.77114 2.36015.86573 4.75374 1.67449 7.17837 2.42625-.00005 0-.0001 0-.00015 0zm31.49105-4.39151c3.49562-2.24391 6.87206-4.59381 10.12946-7.0389-1.92227-1.60089-3.96538-2.89568-6.14298-3.82898-1.84089 2.62493-3.78026 5.21997-5.8201 7.77999.66499 1.0017 1.27664 2.03239 1.83401 3.08827-.00014-.00012-.00026-.00025-.00039-.00038zm-15.5598 2.52678-1.39857-9.97753c-2.51353.34121-5.03554.6203-7.5643.83552 2.20302-3.33599 4.25149-6.71135 6.14939-10.11879 2.88381 2.916 5.91801 5.7398 9.09429 8.46685-1.93308 3.63058-4.02515 7.2312-6.28052 10.79391-.0001.00002-.00019.00002-.00029.00004zm-96.31634 25.42446c-.00009.00022 2.64498-6.70291 2.64489-6.7027-6.85381-5.13896-13.27213-10.61178-19.25508-16.35564-.36781-.3517-.73398-.70441-1.09852-1.05815.35285-.3249.70485-.65042 1.05601-.97655 5.15306-4.79745 8.75192-11.37477 9.96879-18.45841.66172-2.63949.79085-5.2742.4655-7.66169.64172-.26978 1.28071-.54262 1.91693-.81851.36973-.16007.73853-.32117 1.10637-.4833-.0842-.39281-.1671-.78554-.24861-1.1782-1.01952-5.02348-1.81896-10.03345-2.40653-15.01487-.0607-.50158-.11928-1.00288-.17569-1.50389-.46329.19105-.92803.38039-1.3942.56805-4.63486 1.86851-9.41247 3.56941-14.31776 5.0945-.38299.11849-.76674.23591-1.15127.35226.0354.40227.0719.80479.10983 1.20753.0668.70793.13761 1.41656.21244 2.12588-2.24031.86833-4.47611 2.25166-6.46084 4.105-5.6268 4.50884-9.64828 10.88042-11.35427 17.72455-.11548.46614-.23.93266-.3436 1.39955-.48753-.14582-.97501-.29349-1.46242-.44297-7.9487-2.42044-15.88177-5.32683-23.73638-8.71931-1.52556 1.8798-3.04995 3.76054-4.57318 5.64221 11.54726 4.40383 23.19232 7.80015 34.75332 10.20518-.52166-4.04037.94815-9.22121 4.16548-14.1686 2.87261-4.41731 6.53738-7.7388 9.79199-9.40776.32869 2.34975.70178 4.70552 1.12002 7.0659.0929.5232.1881 1.04663.28548 1.57026.50671-.16689 1.01204-.33557 1.51598-.50603 2.27862-.77734 4.52885-1.59109 6.74924-2.44045.11776 3.65614-1.01246 8.47774-3.48807 13.13045-2.76379 5.19431-6.57685 8.98101-10.36813 10.48677 7.72014 8.9081 16.37221 17.37505 25.97243 25.219-.00005-.00002-.00011-.00004-.00015-.00006zm-64.21309-49.18197c7.06885 3.03282 14.19949 5.6673 21.34466 7.90351.39645-1.29285.8754-2.56944 1.42462-3.82109-5.71729-3.254-11.31658-6.77833-16.77292-10.5596-2.07721 2.05008-4.08056 4.22883-5.99636 6.47718zm67.88236 39.68235c1.00021-2.72837 1.89704-5.49536 2.65017-8.26592-5.89254-2.84511-11.62009-5.95868-17.16972-9.31663-.82082 1.0762-1.69696 2.10387-2.62767 3.06902 5.36724 5.07373 11.08293 9.92683 17.14717 14.51366zm3.35609-11.06588c.61062-2.59464 1.08457-5.16474 1.37727-7.67586-5.19624-1.45608-10.35485-3.13462-15.46028-5.02686-.64302 1.33612-1.36675 2.62328-2.16411 3.86233 5.2586 3.1769 10.67814 6.13073 16.24717 8.84025zm-63.13291-37.09946c5.18113 3.57404 10.49116 6.91375 15.90799 10.00726.69326-1.29061 1.46508-2.54093 2.31561-3.74535-4.20927-3.60727-8.26681-7.36837-12.16349-11.26707-2.06088 1.49705-4.08433 3.18528-6.06024 5.00505.00004.00003.00008.00007.00013.00011zm19.95311 4.00515c.70481-.84745 1.45048-1.66467 2.23352-2.44706-2.69841-3.77829-5.24072-7.61739-7.62714-11.50329-2.04549.88103-4.08816 1.9928-6.1129 3.30225 3.69308 3.67907 7.53138 7.2332 11.50686 10.64816-.00011-.00002-.00022-.00004-.00034-.00006zm30.22473 17.7957c4.82101 1.78377 9.68881 3.37369 14.58978 4.7621.14993-2.38781.12272-4.69755-.10176-6.89616-4.43457-.18067-8.91479-.52925-13.42728-1.04592-.30528 1.07748-.65813 2.14005-1.06101 3.17985.00009.00005.00019.0001.00027.00013zm-25.89006-22.17949c.89994-.76497 1.83896-1.48737 2.81829-2.16203-.97854-3.24028-1.86012-6.47871-2.64685-9.7098-2.40197.0491-4.80798.49687-7.20936 1.28353 2.21202 3.57399 4.55798 7.10723 7.03804 10.58838-.00004-.00003-.00008-.00006-.00012-.00008zm27.6169 16.23651c4.14869.47178 8.26869.79917 12.34925.98231-.47429-2.4626-1.23958-4.76802-2.34494-6.88007-3.10344.85874-6.26615 1.6372-9.48298 2.33341-.11352 1.20105-.28799 2.39057-.52127 3.56489-.00002-.00018-.00004-.00036-.00006-.00054zm-13.80612-7.84055 5.12726-8.69997c-2.2207-1.31603-4.41726-2.67854-6.58795-4.08577 3.83889-1.25375 7.59687-2.61537 11.26662-4.08087.50146 4.11167 1.146 8.24261 1.93821 12.3845-3.82006 1.60511-7.73734 3.10064-11.74388 4.48226-.00009-.00005-.00017-.00011-.00026-.00015zm-93.182077-35.40456c1.987725-1.37635 3.974606-2.75395 5.96064-4.1328-2.791604-8.08866-5.089588-16.21773-6.894081-24.32436-.111712-.49719-.221567-.99429-.329565-1.4913.473317-.0771.946323-.15515 1.419015-.23419 6.94284-1.16977 13.58809-4.68756 18.506109-9.94011 2.007171-1.84251 3.562746-3.97288 4.6-6.14516.686362.12718 1.37239.25036 2.058049.36956.398314.0695.796505.13763 1.194563.20443.144758-.37448.290562-.74808.437408-1.1208 1.898311-4.75544 3.965707-9.36618 6.193962-13.81714.223065-.44902.447769-.89641.674105-1.34217-.492768-.0928-.985667-.18786-1.478681-.28509-4.903139-.96443-9.817737-2.14747-14.728722-3.55733-.38311-.11055-.766197-.22249-1.149253-.33581-.191712.35105-.38245.70314-.572206 1.05625-.33339.62081-.663752 1.24481-.99106 1.87197-2.337355-.5036-4.953499-.58235-7.617301-.13756-7.144115.64499-13.978058 3.69138-19.161647 8.43873-.352329.32363-.704098.64816-1.055303.97362-.323336-.39189-.64552-.78538-.966534-1.18048-5.244656-6.42878-10.180217-13.28539-14.743861-20.56997-2.299328.68859-4.598183 1.37881-6.896562 2.07066 7.043814 10.27074 14.789227 19.60223 23.054359 28.01065 1.793043-3.66111 5.86122-7.15722 11.252052-9.49547 4.809971-2.0863 9.682793-2.83056 13.3046-2.43524-1.016046 2.12914-1.998188 4.29133-2.945659 6.48513-.209825.4864-.417946.97436-.624355 1.46386.513913.13915 1.027793.276 1.541623.41055 2.326927.6029 4.652749 1.1588 6.976036 1.66847-1.908423 3.11396-5.503226 6.51866-10.132841 9.04372-5.167667 2.81852-10.432355 3.88152-14.41382 3.04659 1.504258 11.7083 4.008523 23.57922 7.529027 35.43093-.000032-.00005-.000064-.00009-.000097-.00014zm-25.911113-76.70078c4.115182 6.52771 8.534762 12.70508 13.211513 18.53219 1.040462-.85383 2.140171-1.64767 3.284287-2.38143-2.933523-5.86988-5.597059-11.90886-7.965688-18.10354-2.847213.51766-5.704654 1.1814-8.530112 1.95278zm34.293444 70.79959c2.362915-1.72438 4.662291-3.53879 6.842645-5.4362-3.312404-5.6571-6.360969-11.43428-9.13276-17.30749-1.280052.44739-2.579162.82365-3.888714 1.11749 1.664171 7.20744 3.723705 14.43141 6.178705 21.62629zm8.99998-7.3848c1.962506-1.83013 3.796213-3.71645 5.443349-5.65544-3.535604-4.11852-6.922798-8.3834-10.146053-12.78587-1.275858.76301-2.59215 1.4405-3.943048 2.03707 2.633736 5.56156 5.519508 11.0367 8.645875 16.40416zm-31.915018-65.83122c2.257214 5.85672 4.783359 11.57254 7.556384 17.13558 1.284684-.68572 2.61204-1.29416 3.979226-1.82119-1.491479-5.30941-2.75299-10.65869-3.775396-16.03162-2.524547.0782-5.124999.33097-7.760257.71708.000014.00005.000028.00011.000043.00015zm14.209623 14.40181c1.049908-.31225 2.116957-.57711 3.195767-.79294-.149942-4.60463-.123602-9.16187.07882-13.65768-2.168946-.4075-4.464103-.62897-6.854102-.6819.97895 5.06934 2.174881 10.11834 3.579764 15.13275-.000084-.00008-.000167-.00016-.000251-.00023zm15.379946 31.43865c3.049755 4.15457 6.247846 8.18502 9.580643 12.08366 1.457256-1.91624 2.719875-3.86626 3.752504-5.83434-3.626967-2.62647-7.194814-5.40128-10.690173-8.32461-.850032.73305-1.73187 1.42737-2.643132 2.07504.000053.00008.000106.00017.000158.00025zm-9.378888-32.67713c1.166039-.13787 2.341104-.21964 3.523439-.24059.973261-3.20912 2.030702-6.35371 3.170195-9.42826-2.006013-1.26994-4.233346-2.22082-6.642801-2.89751-.168496 4.13944-.185473 8.33205-.05078 12.5665-.000018-.00005-.000035-.0001-.000053-.00014zm14.103284 28.65772c3.218444 2.68396 6.498995 5.24052 9.830872 7.66984.966362-2.329 1.596253-4.68757 1.829616-7.07181-3.089412-1.00414-6.177984-2.10084-9.260574-3.29208-.756163.94196-1.557496 1.84076-2.400157 2.69453.00008-.00017.000162-.00032.000243-.00048zm-7.240336-14.13127 9.050823-4.43061c-1.135305-2.30521-2.220863-4.63128-3.254931-6.97647 3.881729 1.05286 7.763657 1.96637 11.638469 2.74453-1.827823 3.68259-3.546865 7.47287-5.152579 11.3625-4.085055-.75556-8.18159-1.65402-12.281651-2.69969-.000043-.00009-.000087-.00018-.000131-.00026zm-55.993449-82.86174c2.420726.11379 4.841684.22569 7.262873.33571 2.770817-8.34662 6.017291-16.28583 9.676596-23.81775.223615-.4626.448786-.92365.675503-1.38319.416284.23656.833.47204 1.250145.7064 6.138196 3.43871 13.506491 4.7983 20.610208 3.77571 2.709477-.18367 5.247918-.86615 7.406258-1.89352.455506.52279.913631 1.0417 1.374353 1.55667.267497.29935.535871.59736.805121.89405.345244-.1982.690808-.39489 1.036683-.59009 4.432282-2.47519 8.91447-4.70566 13.431507-6.69963.454347-.20222.909052-.40204 1.364103-.59946-.323647-.37654-.645856-.75518-.966617-1.1359-3.191704-3.78439-6.240453-7.77496-9.138018-11.95666-.225683-.32665-.450443-.65447-.674276-.98344-.370606.14866-.74106.29875-1.111358.45029-.650842.26656-1.301196.53758-1.951022.81309-1.486161-1.86166-3.45576-3.57646-5.794613-4.9193-5.925735-4.02403-13.13462-6.0091-20.143415-5.61767-.476918.0274-.953963.0558-1.431132.0853-.002-.50907-.0021-1.01864-.000256-1.52866.01365-8.31239.541321-16.75094 1.583165-25.25284-2.219681-.92449-4.439962-1.84749-6.660843-2.769-.981474 12.35742-.922475 24.5209.160811 36.30855 3.697507-1.71623 9.048446-1.84864 14.692699-.24644 5.034503 1.42911 9.270555 3.93623 11.819521 6.52048-2.129374.99908-4.251704 2.04763-6.365582 3.1464-.468495.24377-.936572.49001-1.404219.73873.310366.43058.622274.85914.935716 1.28567 1.423486 1.92663 2.878254 3.81167 4.363523 5.65369-3.424352 1.20875-8.354365 1.6094-13.526322.68079-5.781894-1.03812-10.529456-3.50745-13.094064-6.68025-6.189176 10.13635-11.645481 21.17173-16.187055 33.12238.000002-.00006.000004-.00011.000007-.00017zm28.01944-76.80268c-.916913 7.6387-1.412276 15.22194-1.486197 22.70248 1.344343-.00074 2.696712.0829 4.045389.24123 1.450566-6.40281 3.220388-12.76103 5.296063-19.04974-2.536816-1.4036-5.174769-2.70052-7.855255-3.89397zm-17.750662 77.20145c2.932952.0624 5.868865.0121 8.762367-.17637.834706-6.60613 2.009538-13.09506 3.500457-19.45384-1.277385-.44655-2.524965-.96178-3.728988-1.5497-3.195092 6.73415-6.054968 13.79408-8.533988 21.1799zm11.667953-.41927c2.678318-.26633 5.287027-.65394 7.778967-1.19207-.297643-5.43583-.336057-10.88755-.124011-16.33963-1.470753-.19435-2.919801-.48082-4.345643-.85317-1.399238 6.01519-2.509374 12.1473-3.309161 18.38488zm16.441441-71.44191c-1.952864 5.96078-3.626253 11.98275-5.008281 18.04386 1.426995.28493 2.838085.6568 4.228318 1.11683 2.21396-5.04868 4.636801-9.98345 7.252318-14.79515-2.006412-1.54114-4.183301-2.99419-6.472291-4.36569-.000022.00006-.000043.00011-.000064.00015zm1.864173 20.15176c1.008963.42469 2.001045.8968 2.971081 1.41412 2.805712-3.64922 5.724543-7.15211 8.742456-10.50884-1.418891-1.6938-3.054765-3.32269-4.872918-4.88079-2.460406 4.55076-4.745346 9.21204-6.840572 13.97584-.000016-.0001-.000031-.00022-.000047-.00033zm-7.831209 34.02067c-.190973 5.138-.154423 10.27374.117336 15.39359 2.32577-.63126 4.516949-1.40197 6.535204-2.31853-1.277307-4.26077-2.377246-8.6178-3.299639-13.05774-1.118889.0451-2.238844.041-3.352861-.0176-.000013.0001-.000027.0002-.00004.00031zm13.251165-31.17233c.987845.63255 1.946874 1.31382 2.872959 2.04629 2.78793-1.85673 5.604292-3.61033 8.443608-5.2629-.739574-2.25528-1.853798-4.4063-3.286043-6.46165-2.766755 3.10063-5.447394 6.32672-8.030569 9.67841.000015-.00005.00003-.0001.000045-.00015zm-7.066266 30.9644c.85437 4.07313 1.861339 8.07372 3.020761 11.99098 2.185559-1.23196 4.123018-2.68064 5.765966-4.37976-1.822248-2.65252-3.570162-5.39335-5.241744-8.21733-1.174513.26195-2.357743.46394-3.54547.60632.000162-.00006.000325-.00014.000487-.00021zm3.189876-15.43759 9.793749 2.26231c.568427-2.4755 1.195702-4.93924 1.88008-7.38947 2.332643 3.25172 4.757955 6.38336 7.271941 9.38759-3.727527 1.66423-7.431606 3.48815-11.103905 5.47631-2.708909-3.10948-5.324333-6.35761-7.841931-9.73645.000021-.0001.000044-.00019.000066-.00029zm7.581482-99.02736c1.869763 1.53615 3.740444 3.07111 5.612041 4.60489 6.991944-4.9182 14.166084-9.37086 21.45959-13.35811.447021-.24554.894495-.48934 1.342411-.73138.206709.43534.414219.87011.622539 1.30431 3.0673 6.37334 8.3008 11.81541 14.74047 15.10153 2.33757 1.42529 4.82975 2.33391 7.22226 2.72815.0667.69871.13704 1.39593.21085 2.09163.0427.40421.0865.80791.13153 1.21108.40299.0353.80551.0718 1.20752.10941 5.13607.50441 10.19084 1.20255 15.14923 2.08619.49973.0875.99849.17683 1.49625.26808-.0459-.50379-.0899-1.00834-.1319-1.51365-.42032-5.02468-.64668-10.12426-.67085-15.28366-.00095-.40266-.002-.80568-.00031-1.20905-.39546-.0833-.79157-.16544-1.18832-.24646-.69746-.14224-1.39692-.28098-2.09834-.4162-.17479-2.40606-.84482-4.95593-2.03796-7.40095-2.66852-6.712803-7.59022-12.426199-13.64611-16.073611-.41272-.247762-.82609-.494782-1.24013-.741058.28309-.422808.56789-.844995.85439-1.266548 4.65577-6.879762 9.76745-13.59223 15.33518-20.074576-1.34629-2.00461-2.69388-4.008414-4.04277-6.011411-7.64063 9.69576-14.30904 19.801373-20.02141 30.134958 4.02739.700141 8.56252 3.635611 12.35766 8.172083 3.38903 4.051043 5.49579 8.539353 6.13784 12.155893-2.34967-.37348-4.71933-.70798-7.10755-1.00274-.52945-.0651-1.0598-.12828-1.59105-.18948.0103.53574.0226 1.0708.037 1.60516.0713 2.41811.18439 4.82192.33863 7.21001-3.54844-.96943-7.83767-3.4898-11.5685-7.25604-4.16267-4.20214-6.66366-8.990358-6.98579-13.062846-10.8312 4.712326-21.533299 10.391756-31.924434 17.054536.000033-.00005.000067-.00009.000101-.00014zm66.144781-46.480142c-4.9879 5.841105-9.60224 11.869375-13.84312 18.037583 1.12192.75924 2.2039 1.592267 3.2413 2.484957 4.79388-4.50844 9.80578-8.820322 15.0223-12.910729-1.34658-2.580178-2.83729-5.127387-4.42048-7.611811zm-58.167019 52.931262c2.307236 1.80171 4.683465 3.51749 7.106918 5.09591 4.525464-4.74484 9.242691-9.27361 14.127641-13.57338-.786999-1.11124-1.511046-2.26053-2.159065-3.44269-6.471807 3.60062-12.845559 7.57394-19.075614 11.92007zm9.573427 6.63818c2.299114 1.3872 4.617455 2.63527 6.935921 3.68936 2.994882-4.53412 6.172891-8.97335 9.525251-13.30215-1.08951-1.01987-2.1078-2.10246-3.0579-3.24077-4.627255 4.08035-9.102055 8.36872-13.403154 12.85366zm54.309122-49.35994c-4.93433 3.890654-9.68262 7.982565-14.23297 12.253682 1.03232 1.041605 2.00296 2.14639 2.9066 3.313001 4.68587-2.969777 9.46666-5.747391 14.32618-8.323704-.8252-2.4035-1.84293-4.82685-2.99968-7.243066-.00005.00003-.00009.000058-.00013.000087zm-9.67297 17.882608c.60469.92266 1.16851 1.875635 1.6881 2.854327 4.40511-1.479101 8.81511-2.791675 13.21597-3.937917-.24459-2.21102-.70923-4.485923-1.3667-6.800496-4.58813 2.448503-9.10539 5.07931-13.53752 7.884395.00004-.000103.0001-.000206.00015-.000309zm-26.02162 23.729452c-3.16485 4.09337-6.17191 8.286-9.01347 12.56428 2.24518.87766 4.47076 1.55896 6.65195 2.01366 1.54092-4.21372 3.23964-8.41895 5.09633-12.60231-.94303-.61719-1.85729-1.27587-2.7346-1.97585-.00007.00007-.00013.00015-.00021.00022zm28.9484-18.296239c.4688 1.085839.88552 2.196919 1.24479 3.332999 3.38704.008 6.73984.10548 10.0529.29162.65113-2.31501.92288-4.747812.8711-7.272472-4.0523 1.072905-8.11238 2.288836-12.16891 3.647946.00004-.000031.00008-.000061.00012-.000093zm-23.75996 21.741719c-1.7047 3.85088-3.27378 7.72-4.70741 11.59657 2.5127.29165 4.96462.25074 7.33509-.1813.12611-3.25568.33883-6.53956.64017-9.8465-1.12003-.46828-2.21043-.99235-3.26838-1.56887.00017.00004.00035.00007.00053.0001zm11.65303-10.94982 6.8312 7.49268c1.92121-1.7537 3.87566-3.47004 5.8616-5.14727.0741 4.0584.27229 8.07781.59067 12.05093-4.09601-.71535-8.25699-1.30532-12.4746-1.76539-.39793-4.15999-.66907-8.37289-.80909-12.63075.00008-.00006.00015-.00013.00022-.0002zm61.64286-78.240992c.68478 2.30077 1.37116 4.601057 2.05913 6.90086 8.58176-.1781 17.05225.167456 25.34865 1.036542.50916.05232 1.01767.106604 1.52552.162864-.082.472063-.16289.944089-.24256 1.416073-1.16254 6.938747.0355 14.31874 3.38931 20.656321 1.0856 2.48766 2.58411 4.649064 4.28046 6.341576-.33897.602938-.67345 1.206782-1.00349 1.811495-.19193.351213-.38237.702719-.57132 1.054513.30329.25946.60529.519804.90598.781029 3.82862 3.356165 7.44471 6.855058 10.83321 10.488452.34239.364927.68247.731226 1.02022 1.098891.24451-.428709.49148-.856861.74094-1.284443 2.47846-4.253317 5.20188-8.450239 8.17848-12.575694.23273-.32163.46701-.642822.70284-.96357-.26286-.305064-.52716-.609313-.79291-.912745-.46729-.53325-.93907-1.063969-1.41527-1.592135 1.26088-2.025339 2.22882-4.467743 2.72432-7.139993 1.84691-6.983413 1.35512-14.517177-1.37776-21.048133-.18645-.443725-.37409-.887081-.5629-1.330068.48737-.17527.97623-.348819 1.4666-.520629 2.17825-.768024 4.38611-1.50177 6.62357-2.199964 5.96578-1.748049 12.06422-3.209357 18.27116-4.383877.17542-2.406003.34901-4.812266.52077-7.21879-6.40476 1.473008-12.67734 3.238131-18.79193 5.293074-5.60683 2.023583-11.00874 4.257389-16.20753 6.68151 2.88769 2.911447 4.81262 7.932405 5.18374 13.834015.33061 5.25753-.63063 10.124287-2.21533 13.397986-1.65748-1.688453-3.36195-3.348423-5.112-4.979143-.3881-.361327-.77844-.721217-1.171-1.07966-.30214.438189-.60171.877033-.89871 1.316518-1.33895 1.992399-2.6254 3.997799-3.86016 6.014769-2.29451-2.827173-4.33496-7.33566-5.20474-12.518855-.97208-5.79271-.2502-11.105486 1.879-14.60903-11.66144-2.350503-23.79754-3.665816-36.22644-3.929708.00004-.000017.0001-.000034.00015-.000051zm82.06819.723901c-6.20022 1.197392-12.28698 2.686937-18.23517 4.468576-1.39078.439003-2.76987.892064-4.13728 1.358865.45121 1.279259.82331 2.595343 1.12182 3.933849 1.0025-.116909 2.00767-.225854 3.01546-.326748 5.65892-.503653 11.33593-.743489 17.01576-.727707.53321-2.858214.9329-5.777639 1.21941-8.706835zm-79.08726 9.007777c.89849 2.762065 1.90228 5.49065 3.02123 8.133458 6.39753-1.395864 12.83845-2.476795 19.29873-3.229862-.0101-1.350738.054-2.697216.20064-4.027825-7.38298-.711614-14.90508-1.00362-22.52063-.875914zm4.19541 10.770165c1.12229 2.416608 2.33647 4.728973 3.65621 6.883356 4.98339-2.061757 10.07381-3.917856 15.26249-5.552769-.31111-1.446629-.52851-2.904011-.65776-4.368701-6.10986.717451-12.2039 1.734017-18.26089 3.038258zm73.0882-8.231226c-5.48683.0051-10.9688.254413-16.43152.755467-.83732.08357-1.67283.172842-2.50648.267748.20255 1.456336.31595 2.926814.33807 4.407004.72313.05605 1.44595.116674 2.16841.181881 4.83701.449845 9.6155 1.097897 14.32946 1.933484.82857-2.400892 1.52151-4.933062 2.10222-7.545569 0 0-.00016-.000015-.00016-.000015zm-18.66872 8.283821c-.0706 1.104276-.19182 2.208011-.36301 3.305358.87081.291423 1.73758.590143 2.60021.896161 3.50059 1.223081 6.91331 2.550847 10.23822 3.97605 1.15181-1.901346 2.17683-3.983462 3.07922-6.212649-4.38503-.759392-8.82587-1.352539-13.31744-1.770453-.74541-.06977-1.49126-.134532-2.2375-.19431.0001-.000052.00021-.000105.0003-.000157zm-34.80069 4.014247c-4.89061 1.544943-9.69315 3.290699-14.39991 5.223638 1.35517 1.969234 2.80002 3.767186 4.32955 5.356755 3.5884-2.592637 7.315-5.072011 11.18001-7.424755-.4183-1.036163-.79045-2.089613-1.10936-3.155702-.00009.000021-.0002.000042-.00029.000064zm33.88464 2.102976c-.27391 1.151736-.60291 2.291552-.99033 3.416123 1.40819 1.078004 2.78965 2.177396 4.14358 3.29787 1.22449.993108 2.42459 1.998811 3.60051 3.016522 1.88817-1.464267 3.56215-3.239623 5.0484-5.276995-2.81921-1.189756-5.70216-2.307847-8.64891-3.349707-1.04481-.378949-2.09601-.746887-3.1534-1.103811.00005 0 .0001-.000001.00015-.000002zm-31.61138 3.638583c-3.54586 2.163381-6.97311 4.435791-10.2819 6.806443 1.88567 1.643531 3.89857 2.984384 6.05358 3.96767 1.89759-2.581507 3.89405-5.131114 5.9914-7.643677-.64204-1.017209-1.23014-2.062066-1.76345-3.13082.00012.000128.00025.000256.00037.000384zm15.62014-2.16143 1.1641 10.018512c2.52148-.279416 5.05059-.495849 7.58558-.647556-2.28391 3.284273-4.41222 6.610662-6.38889 9.971847-2.81389-2.990808-5.78114-5.890573-8.89344-8.694751 2.01591-3.584825 4.19191-7.136816 6.53236-10.648019.0001-.000011.0002-.000022.00029-.000033zm96.83456-23.217343c.00009-.000206-2.78852 6.647402-2.78843 6.647196 6.73854 5.280883 13.03964 10.88576 18.90341 16.751801.36051.359209.71938.719406 1.0766 1.080575-.35952.317858-.71823.636341-1.07611.955445-5.25168 4.694236-8.98789 11.199732-10.34957 18.261064-.71584 2.627004-.89845 5.260137-.62089 7.655507-.64764.256703-1.29262.516506-1.93493.779387-.37325.152513-.7456.306065-1.11703.460654.0764.394752.15141.789405.2251 1.183954.91934 5.047131 1.62032 10.076358 2.11113 15.072618.0509.50311.0998 1.00589.14653 1.50833.46756-.18171.93653-.3617 1.40691-.53998 4.67656-1.77533 9.49144-3.38135 14.42961-4.80982.38553-.11095.77182-.22082 1.15885-.32961-.0276-.4031-.0564-.80648-.0864-1.21011-.053-.7095-.1101-1.419789-.17112-2.130837 2.25863-.824235 4.52249-2.163887 6.54429-3.978695 5.71716-4.39929 9.86406-10.694034 11.70581-17.5061.12471-.463978.24851-.928356.37138-1.393134.48463.155417.96917.312653 1.45361.47171 7.90053 2.576513 15.77557 5.637026 23.56228 9.181665 1.56187-1.85043 3.1226-3.70182 4.68219-5.554172-11.45777-4.627722-23.03364-8.250242-34.54575-10.883745.44044 4.051428-1.13257 9.204903-4.44853 14.090096-2.9608 4.361961-6.69211 7.611913-9.98146 9.216733-.28254-2.357165-.60912-4.72125-.98052-7.090848-.0826-.525251-.16731-1.050771-.25427-1.576546-.51023.156799-1.01915.315407-1.52672.475816-2.29515.731876-4.56281 1.500513-6.80156 2.305129-.0445-3.660354 1.18388-8.460337 3.75492-13.064621 2.87013-5.139907 6.76122-8.851022 10.58271-10.281413-7.53777-9.064161-16.00976-17.707483-25.4322-25.748109.00006.00002.00011.00004.00016.00006zm63.1936 50.46381c-7.00843-3.169702-14.08677-5.942661-21.18782-8.318983-.422 1.285373-.92615 2.55288-1.50007 3.794066 5.65361 3.366403 11.18409 6.999741 16.56652 10.886611 2.11677-2.010072 4.16216-4.150242 6.12137-6.361694zm-67.06636-41.04121c-1.05869 2.707325-2.01491 5.455507-2.82743 8.21025 5.82995 2.96921 11.49159 6.201871 16.97201 9.673942.84315-1.059714 1.74061-2.069778 2.69131-3.016248-5.26189-5.18389-10.8738-10.155132-16.83585-14.868085zm-3.59337 10.995453c-.66622 2.581891-1.19517 5.142226-1.54139 7.64751 5.16592 1.566787 10.29047 3.35347 15.35814 5.351282.67078-1.323296 1.42128-2.59597 2.24438-3.819019-5.19354-3.28544-10.55109-6.352401-16.06119-9.179632zm62.39048 38.372637c-5.11154-3.674288-10.35667-7.117386-15.71332-10.317411-.7187 1.277338-1.51516 2.512851-2.38945 3.700914 4.13937 3.69038 8.12438 7.530746 11.94591 11.504898 2.08986-1.457341 4.14596-3.106589 6.15698-4.888296-.00004-.000035-.00008-.00007-.00012-.000105zm-19.87682-4.393057c-.72156.833869-1.48339 1.636683-2.28195 2.403933 2.62544 3.832054 5.09412 7.721295 7.40622 11.653695 2.06288-.84155 4.12727-1.91394 6.17744-3.18437-3.6224-3.750603-7.39243-7.379791-11.30206-10.873318.00012.00002.00023.00004.00035.00006zm-29.87873-18.407289c-4.78589-1.883749-9.62198-3.576007-14.49466-5.069085-.20066 2.385103-.22226 4.695997-.0439 6.900086 4.43299.275422 8.90809.718094 13.41196 1.328199.32755-1.071558.7024-2.127223 1.12685-3.159062-.00009-.000047-.00018-.000093-.00027-.000138zm25.45715 22.70726c-.91519.747522-1.86865 1.451683-2.86154 2.107287.91585 3.26043 1.73517 6.51689 2.46009 9.76391 2.40397-.002 4.81946-.40352 7.23661-1.14377-2.14384-3.6172-4.42222-7.196823-6.83528-10.727515.00004.000029.00008.000059.00012.000088zm-27.30682-16.797783c-4.14121-.557814-8.25681-.971813-12.33599-1.242139.42306 2.473605 1.14101 4.796316 2.20378 6.932825 3.12372-.793228 6.30469-1.505776 9.53775-2.135646.13809-1.199222.33696-2.385615.59441-3.555576 0 0 .00005.000536.00005.000536zm13.65523 8.125102-5.3031 8.600356c2.19642 1.361517 4.36786 2.768645 6.51255 4.219642-3.866 1.17781-7.65384 2.46455-11.35617 3.85624-.42144-4.12406-.98483-8.270366-1.69472-12.430582 3.85537-1.527415 7.80508-2.944133 11.84119-4.245812 0 0 .00025.000156.00025.000156zm92.48321 37.222178c-2.01343 1.33651-4.02605 2.67429-6.03784 4.01335 2.63224 8.14212 4.76891 16.31477 6.41012 24.45512.1017.49927.20153.99843.2995 1.49746-.47456.0674-.94881.13573-1.42277.2051-6.9619 1.02757-13.67222 4.40964-18.69287 9.55846-2.04291 1.80041-3.64059 3.89738-4.72149 6.04625-.68315-.14082-1.36603-.27761-2.04864-.41039-.39653-.0774-.79296-.15338-1.18929-.22805-.1523.37112-.30563.74135-.45999 1.11065-1.9942 4.7115-4.15576 9.27385-6.47646 13.67204-.23239.44373-.46641.88579-.70204 1.32616.49024.10259.98058.2074 1.47098.31444 4.8772 1.0619 9.76145 2.34411 14.63767 3.85486.38038.11842.76073.23823 1.141.35944.19917-.34658.39737-.69423.5946-1.04295.34654-.61307.69009-1.22942 1.0306-1.849 2.32454.55187 4.9371.68569 7.60854.29768 7.1532-.49324 14.04836-3.39057 19.32889-8.02626.35892-.31602.71729-.63297 1.07511-.95085.31501.39876.62883.79912.94145 1.20107 5.10802 6.54075 9.89708 13.50738 14.30435 20.90002 2.31434-.6371 4.62821-1.27586 6.94164-1.91629-6.82617-10.4395-14.37425-19.94205-22.46233-28.52381-1.86738 3.62283-6.00569 7.03109-11.44242 9.25427-4.85048 1.98345-9.73613 2.6246-13.34636 2.15439 1.06026-2.10588 2.08697-4.24569 3.07936-6.41804.21978-.48165.43788-.9649.65428-1.44973-.51063-.14966-1.02128-.297-1.53191-.44201-2.31262-.65031-4.62504-1.25327-6.93585-1.80964 1.97089-3.07176 5.6325-6.40094 10.30977-8.82977 5.22119-2.71126 10.50343-3.66587 14.46581-2.74854-1.26679-11.73621-3.53589-23.65535-6.82351-35.57556.00004.00004.00007.00008.0001.00013zm24.3364 77.24459c-3.9743-6.62451-8.26117-12.90027-12.81335-18.8274-1.05794.83128-2.17389 1.60125-3.333 2.31017 2.80795 5.93168 5.34079 12.02904 7.57363 18.2787 2.85848-.45381 5.73038-1.05342 8.57272-1.76147zm-32.82903-71.51139c-2.3952 1.67702-4.72863 3.44528-6.94477 5.29882 3.1998 5.72004 6.13245 11.55517 8.78499 17.48136 1.28811-.42127 2.59385-.77103 3.90839-1.03816-1.51918-7.23807-3.43531-14.50066-5.74849-21.74211zm-9.1389 7.20397c-1.99712 1.79057-3.86661 3.63976-5.55073 5.54517 3.45247 4.18538 6.75281 8.51457 9.8855 12.97877 1.29021-.73684 2.6191-1.3874 3.98097-1.95637-2.52067-5.61141-5.29644-11.14099-8.31587-16.56748zm30.53689 66.46869c-2.12821-5.90834-4.53005-11.67892-7.18348-17.29986-1.29863.65782-2.63828 1.23745-4.01601 1.73483 1.37713 5.33896 2.52166 10.71396 3.42445 16.10878 2.5258-.022 5.1315-.21654 7.77508-.5436-.00002-.00005-.00003-.0001-.00004-.00015zm-13.89158-14.71034c-1.05602.28954-2.12814.53137-3.21094.72397.0507 4.60462-.0756 9.1582-.37871 13.64672 2.15893.45493 4.44842.72706 6.83663.83304-.86568-5.08956-1.95077-10.16231-3.24723-15.20397.00009.00008.00016.00016.00025.00024zm-14.71709-31.73382c-2.96408-4.21259-6.07989-8.30341-9.33384-12.26477-1.49396 1.88633-2.79412 3.8101-3.86491 5.75626 3.57247 2.69532 7.08229 5.5383 10.5161 8.52915.86412-.71541 1.75923-1.39149 2.6828-2.02038-.00005-.00009-.0001-.00018-.00015-.00026zm8.69304 32.84309c-1.16826.1129-2.34429.1696-3.52624.16544-1.04203 3.18541-2.16781 6.30418-3.37521 9.3508 1.97633 1.31172 4.18106 2.31007 6.57422 3.03895.26122-4.13256.37032-8.32145.32717-12.55532.00002.00005.00004.00008.00006.00013zm-13.49463-28.92169c-3.16171-2.74586-6.38858-5.3649-9.66982-7.85726-1.01182 2.30792-1.68817 4.65171-1.96911 7.0287 3.06674 1.06372 6.13062 2.22039 9.1865 3.47202.77463-.92589 1.59346-1.8078 2.45268-2.64393-.00009.00016-.00017.00031-.00025.00047zm6.94485 14.26466-9.13575 4.24006c1.08575 2.32539 2.12087 4.67079 3.10365 7.03444-3.8557-1.13215-7.71433-2.12388-11.56856-2.97919 1.90432-3.63949 3.70102-7.38964 5.38555-11.24211 4.06571.83672 8.14003 1.81746 12.21499 2.94653.00004.00008.00008.00017.00012.00027z" fill="#eed9f2" fill-rule="evenodd"/></g><g><path d="m243.80738.0000099-1.09063.13584948c-35.41888 4.43106672-59.82155 40.59951962-59.82155 83.12258762 0 19.651093 5.56822 37.454143 14.70426 51.727993-12.74716 4.77236-23.43398 13.577-31.2798 24.4701-10.28356 13.93803-17.05408 31.13111-21.63257 50.58571-8.45581 34.61437-10.18679 74.72587-10.18679 110.10495v17.63363h43.95014l11.21618 153.86376 12.68374 2.91979c32.65474 7.51917 67.06561 6.96141 98.20952.0287l12.88655-2.86814 10.26141-153.94412h41.79186v-17.63362c0-35.13738-.29108-75.84863-8.04956-111.24149-4.17548-19.1552-10.62048-36.63706-20.73902-50.70434l-.065-.0899-.067-.0899c-8.268-11.19208-20.02936-19.7734-33.96233-24.18118 8.84907-14.18304 14.00013-31.64064 14.00013-50.581893-.00006-45.076231-28.42922-83.2584969-66.91065-83.2584969z" fill="#6a1f7a"/><path d="m244.90603 17.632878c-23.41353 2.929141-44.37799 30.026153-44.37799 65.626494 0 19.504748 6.66162 36.648568 16.45806 48.600248l11.9517 14.20487-18.31939 3.42876c-12.73539 2.44911-22.13999 9.30664-30.07515 20.37664-8.32699 11.26593-14.49874 26.35248-18.71123 44.28-7.83718 32.03443-9.69847 71.22027-9.69847 105.99771h42.71256l11.46184 157.23323c29.78126 6.85751 61.81566 6.36769 90.42136 0l10.4822-157.23323h40.65533c0-34.97337-.48986-74.84496-7.64124-107.46718-3.82064-17.53566-9.79649-33.01407-17.82958-44.18204-8.03308-10.87407-18.12345-17.4377-32.62223-19.69088l-18.51529-2.93894 11.65778-14.59673c9.69852-11.85372 16.06621-28.99753 16.06621-48.012458 0-37.755561-23.51151-65.626494-49.27619-65.626494z" fill="#eed9f2"/></g><path d="m596.11861 42.063916-.13838 7.542085 23.02164 7.704985 1.41343.46972-.48395 1.408368c-2.34971 6.863918-2.83603 14.741923-.56367 21.899692.64891 2.776724 1.8346 5.278733 3.40508 7.329526l-1.48745 1.685297-.86479.978662.86511.973601 10.9965 12.489478 1.11214 1.25512 1.10709-1.25543 11.00156-12.489168.86004-.973601-.86004-.978662-1.51228-1.719933c1.55783-2.044467 2.73513-4.533349 3.38056-7.29489 2.27221-7.157769 1.78589-15.035774-.56366-21.899692l-.48427-1.408368 1.41343-.46972 23.02164-7.704985-.1387-7.542085-31.82865 12.682116c2.44982 3.258621 4.05256 8.664035 4.05256 14.782411 0 5.512168-1.30209 10.443434-3.35099 13.74966l-4.99168-5.663997-1.10708-1.255116-1.11183 1.255274-5.01667 5.693572c-2.05965-3.306067-3.37075-8.250144-3.37075-13.779077 0-6.114896 1.60021-11.518413 4.04797-14.777508l-31.82406-12.687335zm74.86162 10.581504-20.93084 7.008471c.40536 1.339571.74254 2.713303 1.01314 4.106963l19.53718-1.957165c.25985-3.016012.37324-6.093071.38052-9.158269zm-74.99004.07908c.009 3.039419.12273 6.088327.38052 9.079034l19.30485 1.932651c.26981-1.385119.60526-2.750311 1.00824-4.082449l-20.69361-6.929394zm.69683 12.083975c.33798 2.767234.80912 5.462666 1.45819 8.026355l16.78402-1.556718c.003-1.548968.1028-3.089395.28657-4.616538l-18.52878-1.852941zm73.59638 0-18.76095 1.873185c.18109 1.512276.27788 3.038153.28151 4.571622l17.02141 1.581548c.64875-2.563373 1.12005-5.259754 1.45819-8.026355zm-18.58793 9.400403c-.0883 1.143143-.23091 2.285337-.43018 3.420097l13.91287 4.769316c1.12543-2.046523 2.05886-4.283464 2.8218-6.671918l-16.30481-1.517336zm-36.65759.02467-16.06742 1.492664c.76294 2.388137 1.697 4.626028 2.82212 6.672076l13.69051-4.69008c-.20529-1.152632-.35459-2.312855-.44489-3.47466zm35.58483 6.301519c-.31869 1.189324-.70332 2.365679-1.16118 3.523688l8.67337 6.558679c2.12354-1.547387 3.92825-3.452045 5.45159-5.644228l-12.96394-4.438139zm-34.4923.07433-12.74648 4.363491c1.52303 2.192025 3.32758 4.096841 5.45159 5.644227l8.4907-6.425037c-.4713-1.177146-.86874-2.373429-1.19612-3.583155zm17.12026.380363v10.527256h8.78724l-8.64917 9.810344-9.02953-10.245269 8.89114-10.092331z"/></svg>