<svg height="500" viewBox="0 0 500 500" width="500" xmlns="http://www.w3.org/2000/svg"><g transform="translate(-1000 -500)"><circle cx="1250" cy="750" fill="#8f29a3" r="250"/><path d="m1250.0527 500.00195-.062 248.73633-15.8769-247.60156a250 250 0 0 0 -31.6094 4l44.9063 230.4707c-.1031.0367-.2293.0547-.3829.0547l2.4024 13.07617-.2539-.53906-.5391-1.35742-3.3926-10.71875c-.1832.0705-.3478.12695-.5156.12695l-.123.0781-82.9239-219.53124a250 250 0 0 0 -14.9511 5.57617l96.83 214.45117-.2207.11523 2.3282 4.48438 2.3672 5.26758.055.0508.42.75586.7539 1.27929v.0312l-.7539-1.31054-.4766-.80469-5.582-9.30274c-.186.12274-.3848.23957-.5723.4004l-123.2001-200.20114a250 250 0 0 0 -34.2168 25.29493l164.4492 186.29101-.4023-.58594.8418 1.03516v.0527l-.3301-.32812-.096-.13086v-.006-.002l-175.75-175.03906a250 250 0 0 0 -20.9981 23.98242l185.9649 142.98828-.1446.1875 10.5743 8.34765-2.1172-1.08789-9.502-5.71875c-.141.18337-.2305.33551-.3105.47657l-207.3786-109.41971a250 250 0 0 0 -7.4063 14.18946l214.3047 96.24219c-.075.17916-.1684.38235-.2617.5996l12.2988 4.78321-.037-.0254.5313.23828-.4922-.21289.3613.18359.2148.082-.2148-.0527v-.0293l-12.9355-4.12109c-.057.15093-.127.33679-.1778.51172l-224.7558-68.26953a250 250 0 0 0 -8.5313 41.71874l245.8418 30.73633h-1.248l-245.7344-14.7832a250 250 0 0 0 -1.0216 14.28126 250 250 0 0 0 1.2598 17.61914l233.6972-16.13281h-.027l.3086-.0234-.2793.0234 13.0976-.74219-7.7461 1.87305-.3046.0508-4.8379.94726.07.24024-227.4707 55.73242a250 250 0 0 0 4.0605 15.40625l223.6739-70.11328c.094.36676.1869.70213.2812.96875l12.084-4.50977-6.7949 3.5625-217.9532 99.91602a250 250 0 0 0 21.3477 36.72461l203.4824-139.34961-2.9707 2.41406-190.957 149.70117a250 250 0 0 0 21.2871 23.65235l164.0078-166.71875c.2822.26661.5719.51007.8438.81054l7.707-8.71289v-.0332l.7656-.87305.1875-.24023.7832-.85352.02-.0664.057-.0274-.021.16016-.1055.11719.051-.1836-.068.1836-1.334 1.7539.6191-1.05468-.1875.21093-.7656.90625-2.625 3.71485-4.3184 5.63281.291.18359-133.4043 192.17969a250 250 0 0 0 13.3125 8.69336l120.918-200.25976c.1125.0705.2586.16516.4082.23437l6.9766-11.88477-.2813.72461-99.9199 225.99805a250 250 0 0 0 40.1289 13.44531l59.4668-235.87695-1.5898 9.31836.2383.0566-42.5801 229.88086a250 250 0 0 0 31.5312 3.64844l12.8692-233.375c.244.024.4607.0234.6679.0234h.031v-12.48632l.055-.88086.3847 3.38476.6387 9.95899c.1958 0 .3428-.0234.5117-.0234l27.1407 232.31445a250 250 0 0 0 15.7187-2.41797l-41.9705-230.02728c.2564-.0282.4795-.0932.7148-.11719l-2.0859-10.82226-.055-.13867-.3242-1.81055.019.0293.3594 1.91993 74.1777 233.50586a250 250 0 0 0 39.0058-16.35352l-110.7109-214.89844 4.1817 6.78516.2734-.1875 120.2129 200.67969a250 250 0 0 0 26.0762-18.11719l-144.8977-183.5586c.2565-.18904.424-.39357.6621-.60938l-8.541-9.65039 3.4004 3.0625 5.9023 5.89648.2891-.31054 174.332 156.38672a250 250 0 0 0 10.0782-12.29493l-183.7852-144.8125c.1309-.15941.3098-.33484.4141-.48437l-9.4571-7.28711 211.0782 126.48242a250 250 0 0 0 18.5488-38.16015l-228.9668-88.90039 11.1367 3.39843.014-.1875 223.3906 70.74414a250 250 0 0 0 7.5527-30.96289l-230.5156-41.68359c0-.16361.037-.30359.037-.45313l-7.4414-.91601-4.5957-.8086 12.1504.71485c.03-.33295.029-.6341.029-.97266l234.6992 1.7832a250 250 0 0 0 .172-2.39062 250 250 0 0 0 -.4004-13.62109l-234.5 13.36328v-.33594l-11.8945.82031-2.2285.14063 2.1855-.14063h.043l242.584-45.59375a250 250 0 0 0 -11.252-41.05469l-230.9668 85.63868-.2617.0703 10.6133-4.83984c-.1733-.36253-.4002-.81563-.668-1.21485l208.0469-109.45311a250 250 0 0 0 -7.8809-13.9043l-200.6152 122.56641-.2129-.33203-5.6777 3.94335-4.7539 2.89454 9.7656-7.67383-.1446-.20899 183.2696-147.35742a250 250 0 0 0 -29.3672-30.84961l-161.1992 182.9082-2.3418 2.39454 151.248-195.47657a250 250 0 0 0 -26.3965-17.98242l-119.1699 202.81055-.096-.0664-7.1347 11.80469 5.5937-12.57617c-.2775-.15518-.5702-.25048-.8789-.36328l83.332-219.99219a250 250 0 0 0 -15.1054-5.23438l-69.2344 224.92579c-.11-.0382-.2253-.0646-.3848-.11524l-1.9004 7.61328-1.1386 3.73438 2.125-11.58008c-.2032-.0199-.412-.0559-.6192-.0742l40.0918-231.87891a250 250 0 0 0 -42.4219-3.70703zm-1.9648 235.51758 1.0215 8.85742v.043l.8808 4.50196v.46484l.029-.16992.021.63476v.10352l-.057-.10352v-.44531l-.066.31055-.2403-.5-.5683-4.79688zm-9.459 5.05469 7.1582 6.4375-.025-.0195zm26.0254 6.08008-11.9434 2.92968h-.059zm-12.2715.11718-1.6426 2.81055-.3535.4043.1113-.45313-.092.20899-.019.18359-.053.10742v-.0254l.053-.082v-.16406l.019-.0195v-.10742l.012-.0234.082-.1211v-.0234l.033-.0274.062-.15234v.0195l-.062.13281-.033.0508zm-6.5937.24024 3.3574 2.57226.3652.57227-.4531-.16992.2031.14062h-.022l-.2207-.14062h.037zm5.082.25-.2988 1.60351.2988-.84765-.3359 1.38867-.1036.15234.1407-.69336.2636-1.58203zm-.5879.38867-.086 1.73438-.059.19531-.1192-.4707zm3.1758.75195-2.2969 1.60547h-.023l-.416.2793-.2911.11914.2149-.2793.076-.0215.8945-.7207zm-4.082.58399.1347.14258v.0469l-.084-.12695zm3.9023.32031h.027l-.1738.0801zm-3.5605.18359.1835.36133v.0391l-.1835-.35742zm.4199.0937.02.26758v.0391l.039.0957.047.11914-.047.0215-.039-.11914.039-.0215-.039-.0605v-.0352l-.059-.26562zm2.2422.0645-.07.0273-1.0273.31055.1582-.0605zm-5.6954.0684 2.3926.41015.3496.2168.029.0625-.3164.0644zm2.1856.3164h.053l.096.0312zm.7344.19336h.02v.0195zm-.166.0606h.02l.076.0801zm.2167.18359h.024l-.024.0312zm-.3398.16992h.059l.248.0352-.8203.33203zm-.3926.0352h.2207l-.9414.48438.2657-.0547-.025.0293-.2403.0254-2.0449.39648v.0234l-5.2949.94336 5.2949-.9668zm1.7969.0234.5117.043.7598.22656-.8535-.0859zm-.2227.16601.035.0176.1133.22461.332.16602 1.4531 1.41797-1.3632-1.01758-.2364-.30078-.1875-.26563-.018-.0352-.094-.18946h-.035zm-1.0722.082-.252.27539h-.029l-2.8086 1.27734 2.3203-1.42773zm1.5859.0996.1504.0254.031.0312zm.2227.0254 1.9551.61132-1.9258-.57812zm-1.1914.17382.031.12696.022-.0996-.022.13281v.006l.076.23242.1269 1.91602-.2343-1.36719.031-.78125-.09.51367v-.0937l-.031-.1875.031.14453v-.26562zm.7304.0937.062.0664.088.14844-.037-.0312zm-1.1523.1836-.2461.53125-3.9902 12.97851 3.9629-12.97851h.025l.086-.29102.01-.0117zm-.09.10547-.064.11523.041-.0996zm1.4805.082.033.0234.1153.1914-.092-.0937zm-.4414.21484.021.0293.029.22851zm-1.748.26758v.0312l.051-.0312zm2.3164 1.36719 4.9316 10.89648-4.9316-10.8418z" fill="#aa40bf"/></g><path d="m269.21875.8125-10.27539 66.279297c-18.8931-2.312877-37.3357.718684-53.73047 7.958984l-26.45703-64.621093a250 250 0 0 0 -18.83008 7.023437l35.18164 62.734375c-13.23989 7.678134-24.72173 18.269609-33.45117 31.04297l-73.876953-51.287111a250 250 0 0 0 -36.988281 40.064451l99.167964 34.06641c-2.09529 5.7913-3.69572 11.85146-4.73828 18.14062-.57271 3.45485-.96382 6.89913-1.18359 10.32227l-75.931641 15.49219 78.285151 13.67382c2.44525 10.71716 6.58912 20.892 12.17774 30.17188l-147.449219 101.2207a250 250 0 0 0 30.28125 64.35352l130.792969-147.67578c10.04891 10.58082 22.39315 19.08308 36.4043 24.65039l-47.95704 144.38476 102.87305 17.05469-15.9707-154.18164c8.80053-.0859 17.41247-1.31103 25.66992-3.55078l29.84766 47.79297-12.63867-54.16016c7.57598-3.60151 14.68386-8.10952 21.1582-13.41211l136.73242 152.83789a250 250 0 0 0 42.46094-84.89648l-158.29297-91.17383c5.82215-8.88952 10.33014-18.78994 13.19336-29.47656l87.80078-11.72852-84.4668-21.10547c-.61218-10.12644-2.72687-19.95828-6.15429-29.22656l106.6914-34.119139a250 250 0 0 0 -31.59765-34.646485l-84.80079 49.201174c-4.28518-6.74155-9.34362-12.98144-15.07617-18.574221l21.59961-35.326171-34.46484 24.662109c-8.72718-6.104404-18.49789-10.912006-29.08203-14.09375l23.04687-65.7929689a250 250 0 0 0 -29.95117-4.0800781z" fill="#eed9f2"/><path d="m249.91368 115.53125c-13.84885.002-27.52478 9.08948-36.71093 19.45313-8.75948 9.88228-12.91429 23.83765-14.21387 36.97915-1.06925 10.81232 5.50883 32.12631 5.50883 32.12631-6.88623 3.61942-14.06704 8.63094-18.16811 14.77063l-23.25986 36.0343-22.06933-9.54932c-17.3992-9.61322-38.60679-2.42962-49.106445 11.24268-12.729051 19.402-7.381285 40.04279 10.927735 50.89551l73.2539 34.20019c-25.60147.96018-57.93026 9.66839-64.8164 33.16602-4.8247 29.30595 19.68646 51.94922 41.32617 63.20508l-25.33203 61.36133 109.5039-34.13282c9.60876 1.39046 19.73354 2.37229 30.52539 3.12305l102.0959 31.59351-24.5586-59.45898c23.17477-14.98302 51.13382-37.82271 44.53321-65.00293-12.04557-28.18506-40.85343-33.02588-65.82618-33.87012l73.21387-34.18457c18.87477-13.17292 24.31347-32.99498 10.92871-50.89551-10.50003-13.67213-31.70898-20.85634-49.48047-11.06055l-21.6875 9.35743-23.02148-35.81641c-4.54712-7.11158-10.98332-11.29291-17.64258-14.97852 2.30714-7.79656 6.01678-20.60046 4.98731-31.02377-1.33126-13.47894-5.24157-27.90095-14.17386-38.08369-9.13741-10.41657-22.88098-19.45348-36.73728-19.45113zm-54.39062 216.38086c-1.31753 3.18031-3.00492 6.43917-5.36719 9.90039-.69598-.0243-1.40066-.0625-2.0918-.0801zm109.89453 1.81445 6.00586 7.90821c-.63846.0195-1.3078.0745-1.95117.0996-1.73202-2.75928-3.00833-5.4057-4.05469-8.00782z" fill="#6a1f7a"/><path d="m227.49805 145.92181c-5.22883 6.83122-8.92002 16.21821-9.87196 26.8025 8.01557-3.54441 16.17-5.69148 24.32948-6.47577v13.24295c-7.88965.9908-15.83542 3.60341-23.85747 7.93642 1.41604 8.98477 4.82301 16.9104 9.39923 22.89114 6.10161 7.97383 13.94953 12.39031 22.41696 12.39031s16.33837-4.41648 22.44071-12.39031c4.43734-5.79942 7.75869-13.43148 9.24093-22.08095-8.68473-4.91583-17.40832-7.91267-26.19522-8.88188v-13.17604c9.12076.78213 18.14655 3.2494 26.87014 7.33058-.83106-10.90664-4.55895-20.58864-9.91513-27.58967-6.10306-7.97384-13.97328-12.39031-22.44035-12.38995s-16.31571 4.41611-22.41732 12.39067zm110.6278 325.56461-15.96638-38.65316-130.29593-43.50945 56.5448 4.857 58.3055-5.83497-36.98869 12.91875 67.95099 22.57454c24.09995-14.4237 37.79549-30.55701 34.28994-43.64382-4.28121-15.98077-33.04443-23.10196-71.41338-19.98999-18.98984-23.8992-18.84881-47.78401-6.85712-71.6832l26.46432 34.85332 67.97402-31.70538c22.26946-12.72633-.89941-41.59316-22.03633-29.99505l-36.47155 15.80664-31.46757-48.97123c-1.53943-2.60686-7.23667-7.17588-14.71619-10.61451-8.65202 10.25942-22.82806 18.04211-33.52651 18.25808-13.21561 0-24.99072-7.07802-33.09839-17.67382-.14607-.19068-.2835-.39071-.4274-.58426l-.00004.00051c-7.51334 3.45374-13.23216 8.04579-14.87917 10.63355l-31.59745 48.95286-36.44852-15.80808c-21.1362-11.59734-44.30435 17.26877-22.03489 29.99582l67.97402 31.70466 27.36373-36.02256c13.45522 24.25033 12.06652 48.51792-7.89325 72.7848-6.00376-.46194-11.77871-.68931-17.24498-.65189-29.0057.20003-49.60585 7.37806-52.97864 20.00848-3.37279 12.63041 7.73099 27.08577 27.97426 40.47623 40.05984 21.08007 68.62879 27.67889 114.10095 30.65951zm-167.55991-29.8161-12.03055 29.14097 50.2779-15.67136c-12.68101-3.29114-25.1332-7.65149-38.24735-13.46961z" fill="#eed9f2" stroke-width="36"/></svg>