<svg height="500" viewBox="0 0 500 500" width="500" xmlns="http://www.w3.org/2000/svg"><g transform="translate(.000015)"><circle cx="249.99998" cy="250" fill="#e51a1a" r="250"/><path d="m181.33938 83.856939c97.52275-31.84694 203.27597 26.159281 217.12696 131.568651 10.04116 85.89723-45.79566 162.6049-131.11288 174.6444-76.26503 6.65-147.16573-45.4981-149.44603-126.3231.16679-50.89801 30.03241-87.97493 76.60677-108.40662 44.00125-16.48183 90.46555-3.00917 112.28155 39.63622 17.95322 40.0953 3.57775 87.31302-40.4313 103.80676-21.98685 8.23292-51.6578-5.55285-56.72562-31.5612 24.48155 21.7253 69.7211 11.74379 80.1808-21.06198 5.24648-24.88185-11.48198-41.52298-24.36368-55.64156-23.21161-15.22125-63.26956-13.16738-85.32502 12.05139-41.51846 46.43224-18.48961 112.52397 35.72777 131.08081 60.66482 17.11352 118.96473-29.63961 126.96137-92.39988 2.7637-54.83226-40.99398-106.19486-96.51046-114.27807-76.21988-10.3001-138.45939 50.84936-147.743191 124.09106-9.31956 73.21828 47.315731 138.67973 111.863041 158.33924 49.05305 9.49897 98.18701 2.07129 139.64056-27.40671 82.90715-58.95602 100.11901-177.97214 43.55644-260.39974-52.71171-79.885311-158.575-103.987181-249.15842-67.061741-86.705021 39.45169-149.0660905 134.549061-117.102931 229.167621 15.77888-74.65377 50.93986-153.5943 123.407351-187.514491 9.28724-4.60517 19.44718-8.7232 30.56692-12.33106zm-160.722321 286.075591c-52.57825-113.8254-.38403-260.89182 113.777041-317.643861 10.84604-5.32012 22.21219-9.7712 34.03518-13.36069 115.76394-28.75816 246.03978 34.00351 263.68455 158.897471 10.04526 85.91695-27.72044 168.80365-107.97396 206.83173-102.24035 46.26108-224.798841-11.43986-234.690511-131.24969-7.33455-123.78718 127.307171-194.136761 222.718561-137.24102-42.54074-27.89653-94.21826-33.44528-140.80825-12.98978-71.17376 32.62266-105.080851 118.0397-80.762351 190.63139 30.697281 88.13423 123.572931 132.04164 212.817841 105.59803 82.80488-25.06359 132.16266-100.33164 140.19255-180.04986 12.12434-145.020371-132.23823-245.3588802-265.59709-221.973611 7.92036-4.10499 20.5989-8.4277792 35.61563-11.7452592 60.06317-13.23825 124.63426-3.45807 179.45368 32.4903392 109.65077 71.904621 141.09454 217.803071 65.16008 333.599141-143.00482 218.07486-377.311781 117.06797-437.622951-1.79433" fill="#b21a1a"/></g><g><path d="m0 0v138.60156l133.56055 174.25782-133.56055-103.02344v40.16406a250 250 0 0 0 .63476562 8.88086c-2.03249922 31.4767 2.05338968 63.24345 12.81640638 93.26367l68.552734 29.28125-59.029297-7.30664c36.388211 66.9051 127.212741 126.86205 224.853511 125.72461a250 250 0 0 0 2.17188.15625 250 250 0 0 0 3.27148-.23438c5.69087-.19945 11.39656-.59376 17.11719-1.2246a250 250 0 0 0 195.94531-125.24805l-57.65429 7.23633 69.06836-29.05078a250 250 0 0 0 22.25195-101.47852v-46.33594l-142.22656 109.4375 142.22656-183.67187v-129.42969h-98.9375l-114.26367 279.46289 36.86133-279.46289h-73.66016-80.00977l36.88282 278.64844-114.210941-278.64844z" fill="#861313"/><path d="m0 0v107.91602l160.55273 207.6289c-10.3653 6.29914-18.96348 13.37129-27.62695 21.76758l-132.92578-103.69336v16.38086a250 250 0 0 0 .63476562 8.88086c-1.49314636 23.12391.30199735 46.41177 5.60546878 69.04883l101.5722656 42.0332c-6.31306 10.35753-11.194151 21.76831-15.070312 33.48633l-55.990235-7.60352c42.548794 57.61595 124.156507 105.01059 211.076167 103.99805a250 250 0 0 0 2.17188.15625 250 250 0 0 0 3.27148-.23438c5.69087-.19945 11.39656-.59376 17.11719-1.2246a250 250 0 0 0 182.76172-104.08204l-54.83594 7.3125c-3.80977-11.11813-9.88338-21.93484-15.90625-31.81054l105.07227-43.26563a250 250 0 0 0 12.51953-76.69531v-23.78711l-144.38477 111.09766c-7.54077-7.19328-15.45943-13.61728-24.27734-19.25391l168.66211-217.8125v-100.24414h-79.27539l-122.86914 302.14844c-9.98618-3.47539-21.04569-7.75273-31.8125-9.20899l39.24219-292.93945h-55.28516-61.71094l39.24024 292.9375c-10.84092 1.16131-21.7221 4.34044-31.8125 7.53711l-122.642581-300.47461z" fill="#ff8066" stroke-width="36"/></g></svg>