<svg height="500" viewBox="0 0 500 500" width="500" xmlns="http://www.w3.org/2000/svg" xmlns:xlink="http://www.w3.org/1999/xlink"><radialGradient id="a" cx="1362.7291" cy="216.11429" gradientTransform="matrix(1.0000001 -.0000059 .0000001 1.0000003 -112.72927 33.893757)" gradientUnits="userSpaceOnUse" r="250"><stop offset="0" stop-color="#ff851a"/><stop offset=".42441937" stop-color="#f87000"/><stop offset=".86367416" stop-color="#f26900"/><stop offset="1" stop-color="#e55f00"/></radialGradient><filter id="b" color-interpolation-filters="sRGB" height="1.083029" width="1.113774" x="-.056887" y="-.041514"><feGaussianBlur stdDeviation="8.3936318"/></filter><clipPath id="c"><path d="m0 250c0 138.07119 111.9288 250 250 250 9.7727-.12484 19.5297-.82265 29.2207-2.08984-4.2966.75527-8.5839 1.53913-12.9531 2.08984 54.7448-2.8917 104.2882-24.60233 143.2676-57.93359 4.0837-3.48902 8.0538-7.10874 11.9043-10.85352 1.9229-1.87123 3.8268-3.75716 5.6875-5.6875 46.4503-46.63405 72.6355-109.70514 72.873-175.52539v-250h-250-250z"/></clipPath><g transform="translate(-1000)"><path d="m1500 250a250 250 0 0 1 -250 250 250 250 0 0 1 -250-250 250 250 0 0 1 250-250 250 250 0 0 1 250 250z" fill="url(#a)" stroke-linecap="round" stroke-linejoin="round" stroke-width="1.002"/><path d="m1309.2298 33.82789c128.5196 30.706851 207.8974 167.48127 169.5927 291.56949-31.3771 95.69524-112.8693 162.03793-212.5543 174.60263 153.1796-8.09118 266.0956-163.0043 218.7012-309.92978-36.4562-114.666588-154.6038-191.5214848-270.6514-169.822657-18.8526 4.215647-38.4387 10.498641-55.8829 18.694487-112.5353 47.459213-168.47522 196.206-99.9632 307.85319 57.6978 93.63045 168.5136 141.8489 267.9993 100.77239-134.92 68.97589-303.283-51.46877-311.488-201.30723-4.4167-117.68321 76.8182-219.674136 190.654-246.26040176-89.0147 9.18391126-152.6601 79.39239576-187.7408 157.21169176-38.45522 102.70317 5.2337 231.75078 109.038 294.08388 114.5107 66.1048 260.3537 29.37245 323.6836-83.60152 42.2104-77.69758 34.3514-177.62383-23.1776-249.88923-57.5404-72.257811-157.5429-102.460489-246.4118-71.877168-81.7429 30.682061-131.1298 101.133078-134.0478 190.176958.6692 92.68536 61.7912 168.55972 147.5399 198.52472 128.5549 37.82014 266.7725-70.33038 233.6823-209.88949-14.7104-64.39775-57.8855-122.14991-125.7378-141.121386-71.391-15.467036-138.9716 1.205-181.2869 64.641366-18.8995 29.2286-28.9384 85.21395-26.105 97.65297m0 0c13.5324-50.18833 30.6277-97.66354 72.2125-128.94941 53.182-38.308183 124.4576-37.093813 181.7444-.48035 50.1457 36.48017 75.4845 90.37713 72.3557 150.91678-6.6674 64.04407-38.4038 109.83277-91.6401 141.00844-63.9019 34.56125-135.3795 4.83213-189.1258-35.28385-78.8706-65.48566-79.7477-186.67235-8.9744-256.76104 63.7369-55.941605 167.0207-64.891564 238.7167-6.65053 78.8163 58.35315 90.3045 169.04089 40.972 246.62443-35.2274 56.41892-88.4571 87.60135-152.5581 93.63158-81.9488 2.18264-160.666-41.91503-196.8695-120.9383-36.2055-79.02511-22.5771-164.33167 26.8727-227.66064 49.4316-63.30896 138.3491-86.746364 220.4504-67.54202" fill="#c50"/></g><g id="d" transform="translate(112.44487 -412.53508)"><path d="m593.91797 444.25195c-16.74568 9.74988-37.8372 17.51301-35.06768 40.9661-9.58339 49.74875-20.08852 99.3489-31.09443 148.77609-12.19128 31.56027-35.99082 56.50651-53.36133 85.11524-18.4136 67.92369-36.97512 135.86193-55.36328 203.75585 4.72534 11.92264 24.44969 3.06833 35.83686 5.3418 105.17232-.001 210.35046.003 315.5186-.002 10.06176-11.88404-10.33614-31.34456-13.97466-45.30138-18.34368-40.17405-36.2126-80.59231-55.64185-120.22992-8.49672-23.54984-4.84039-49.18316-8.92621-73.58334-3.72357-34.57821-5.82845-69.48223-10.36353-103.86773-17.91241-23.48005-27.3888-50.94168-36.05994-78.81555-2.05221-20.99417-18.34682-33.29438-32.04626-47.05603-6.38533-3.74975-11.05285-17.30291-19.45629-15.09913z" fill="#ffa348" filter="url(#b)" stroke-width="36"/><path d="m516.30358 923.97452h143.847 89.71196l20.525-.001-76.44696-168.373-16.05-168.137-20.114-32.222-23.72-68.82-37.92-38.567-29.07 17.904-18.52 92.8-16.754 76.785-10.421 22.679-42.894 62.197-23.195 85.364-4.927 18.143-27.24 100.248h74.09z" fill="#994100"/><path d="m497.20458 923.97352-20.206-96.045-26.643-4.202 4.927-18.143 24.976 3.94 33.04-51.25 15.706 10.128-34.256 53.137 21.555 102.436zm162.946.001-37.94-89.09 60.132-59.62 67.51996 148.71zm-128.358-288.631 48.14-14.57-15.52-20.63 54.84-71.32 12.01 19.24-23.417 81.884-14.136 4.73.402 1.327-72.74 22.018zm39.892 257.08h-.003l-36.498-81.096 18.652-46.006 38.338 56.228-20.49 70.875zm61.468-94.706-33.047-44.697 42.966-14.643-62.133-63.26 5.39-18.26 26.063-8.724 59.164 69.618 3.655 38.267-42.057 41.7zm35.3-112.476-42.634-50.166 18.777-65.658 15.113 24.207 8.746 91.617z" fill="#ffa348"/></g><g clip-path="url(#c)"><use stroke-width="1.0232" transform="matrix(.97732519 0 0 .97732519 -443.16373 .157358)" xlink:href="#d"/><use stroke-width="1.76904" transform="matrix(.5652789 0 0 .5652789 -302.74104 210.89407)" xlink:href="#d"/><use stroke-width="1.44044" transform="matrix(.69423404 0 0 .69423404 -61.02171 144.94134)" xlink:href="#d"/></g></svg>