<svg height="500" viewBox="0 0 500 500" width="500" xmlns="http://www.w3.org/2000/svg" xmlns:xlink="http://www.w3.org/1999/xlink"><filter id="a" color-interpolation-filters="sRGB" height="1.101453" width="1.151421" x="-.075711" y="-.050726"><feGaussianBlur stdDeviation="9.4638375"/></filter><filter id="b" color-interpolation-filters="sRGB" height="1.07544" width="1.311983" x="-.155991" y="-.03772"><feGaussianBlur stdDeviation="4.55625"/></filter><g transform="translate(.000015)"><circle cx="-249.99998" cy="250" fill="#e51a1a" r="250" transform="scale(-1 1)"/><path d="m181.33938 83.856939c97.52275-31.84694 203.27597 26.159281 217.12696 131.568651 10.04116 85.89723-45.79566 162.6049-131.11288 174.6444-76.26503 6.65-147.16573-45.4981-149.44603-126.3231.16679-50.89801 30.03241-87.97493 76.60677-108.40662 44.00125-16.48183 90.46555-3.00917 112.28155 39.63622 17.95322 40.0953 3.57775 87.31302-40.4313 103.80676-21.98685 8.23292-51.6578-5.55285-56.72562-31.5612 24.48155 21.7253 69.7211 11.74379 80.1808-21.06198 5.24648-24.88185-11.48198-41.52298-24.36368-55.64156-23.21161-15.22125-63.26956-13.16738-85.32502 12.05139-41.51846 46.43224-18.48961 112.52397 35.72777 131.08081 60.66482 17.11352 118.96473-29.63961 126.96137-92.39988 2.7637-54.83226-40.99398-106.19486-96.51046-114.27807-76.21988-10.3001-138.45939 50.84936-147.743191 124.09106-9.31956 73.21828 47.315731 138.67973 111.863041 158.33924 49.05305 9.49897 98.18701 2.07129 139.64056-27.40671 82.90715-58.95602 100.11901-177.97214 43.55644-260.39974-52.71171-79.885311-158.575-103.987181-249.15842-67.061741-86.705021 39.45169-149.0660905 134.549061-117.102931 229.167621 15.77888-74.65377 50.93986-153.5943 123.407351-187.514491 9.28724-4.60517 19.44718-8.7232 30.56692-12.33106zm-160.722321 286.075591c-52.57825-113.8254-.38403-260.89182 113.777041-317.643861 10.84604-5.32012 22.21219-9.7712 34.03518-13.36069 115.76394-28.75816 246.03978 34.00351 263.68455 158.897471 10.04526 85.91695-27.72044 168.80365-107.97396 206.83173-102.24035 46.26108-224.798841-11.43986-234.690511-131.24969-7.33455-123.78718 127.307171-194.136761 222.718561-137.24102-42.54074-27.89653-94.21826-33.44528-140.80825-12.98978-71.17376 32.62266-105.080851 118.0397-80.762351 190.63139 30.697281 88.13423 123.572931 132.04164 212.817841 105.59803 82.80488-25.06359 132.16266-100.33164 140.19255-180.04986 12.12434-145.020371-132.23823-245.3588802-265.59709-221.973611 7.92036-4.10499 20.5989-8.4277792 35.61563-11.7452592 60.06317-13.23825 124.63426-3.45807 179.45368 32.4903392 109.65077 71.904621 141.09454 217.803071 65.16008 333.599141-143.00482 218.07486-377.311781 117.06797-437.622951-1.79433" fill="#b21a1a"/></g><path d="m158 26.120005c-7 0-13.7 2.8-18.8 7.74-5 4.95-7.8 11.72-7.8 18.82l.1 30.28v11.72c-5.5 1.6-9.8 6.700005-9.8 12.800005 0 7.5 6.2 13.5 13.6 13.5h16.5v8.6l-24.3 16.7c-17.3 12-27.500007 31.4-27.500007 52.2v211c0 35.5 29.000007 64.4 64.500007 64.4h171.1c35.5 0 64.4-28.9 64.4-64.4v-211c0-20.8-10.2-40.2-27.5-52.2l-24.2-16.7v-8.6h16.5c7.3 0 13.3-6 13.3-13.5 0-6.1-4.1-11.200005-9.6-12.800005v-42c0-7.1-2.8-13.87-7.8-18.82-5.1-4.94-11.8-7.74-18.8-7.74z" fill="#ff8066" filter="url(#a)" opacity=".75"/><g stroke-width="2.31937" transform="matrix(.43115152 0 0 .43115152 -90.328414 160.94776)"><path d="m854.03555 71.55735c-34.024 79.2-89.504 82.163-123.314 3.22 9.09 86.328-40.002 112.372-111.936 53.906 59.824 74.383 33.49 125.818-61.375 110.563 88.44 34.29 91.354 88.99 3.25 123.28 91.354-13.02 122.018 37.044 63.5 110 72.41-56.59 120.465-32.077 106.28 60.22 34.45-84.274 92.673-84.58 126.406 2.124h.03c-14.52-93.742 32-123.784 105.752-64.625-53.336-70.54-29.74-120.928 58.65605-109-79.21205-34.028-80.65805-86.815-1.688-120.626-84.74005 9.05-112.95505-39.317-59.25005-108.844-70.53 53.332-118.236 28.174-106.312-60.22z" fill="#861313"/><path d="m791.50555 154.96435c6.958 54.2 39.187 61.556 72.467 18.813-20.754 49.66 3.604 73.79 52.314 55-41.37 32.53-32.145 63.55 20.125 71.125-54.204 6.96-60.185 40.495-17.44 73.78-53.022-23.31-75.77 1.865-52.31 55.033-33.712-45.958-68.134-36.552-75.158 18.78-6.24-56.87-38.558-63.75-72.437-18.78 23.062-52.452-3.034-77.223-55.03-55.032 46.7-34.262 36.306-66.17-21.47-72.437 58.557-6.017 65.977-40.628 18.78-75.157 51.84 23.19 76.788-.01 57.72-49.657 32.526 41.354 64.863 30.792 72.438-21.47z" fill="#ff8066"/><path d="m788.84755 217.30835c-27.606.87-54.11 15.568-68.97 41.22-22.86 39.467-9.368 89.608 30.25 112.406 39.62 22.8 90.015 9.342 112.876-30.125 3.336-5.757 5.9-11.746 7.72-17.842-12.425 22.18-36.144 37.187-63.376 37.187-40.098 0-72.594-32.527-72.594-72.625 0-33.697 22.967-62.032 54.094-70.22zm27.72 15.5c-24.26 0-43.907 19.648-43.907 43.907 0 24.26 19.646 43.938 43.905 43.938 24.26 0 43.938-19.678 43.938-43.938s-19.68-43.906-43.938-43.906z" fill="#861313"/></g><g opacity=".25"><path d="m174.1 120.98h151.7v20.4l34.1 23.4c11 7.6 17.7 20.3 17.7 33.7v211c0 23.6-18.9 41.9-42 41.9h-171.1c-23.2 0-42-18.3-42-41.9v-211c0-13.4 6.6-26.1 17.6-33.7l34-23.4z" fill="#ff8066" opacity="1"/><path d="m283 141.08v23.8l49.6 34.3c1.2.9 2 2.2 2 3.8v202.1c0 9.7-3 18.3-8.5 25.9 12.9-1.2 27-13 27-25.9v-202.2c0-8.3-4-16.2-10.8-20.9l-40.7-28.1v-12.8z" fill="#fff" filter="url(#b)" opacity="1"/></g><path d="m158 26.119147c-6.99999 0-13.70079 2.800239-18.80078 7.740234-5 4.949995-7.79883 11.72032-7.79883 18.820313l.0996 30.28125v11.71875c-5.49999 1.599998-9.80078 6.700786-9.80078 12.800786 0 7.49999 6.20157 13.5 13.60156 13.5h16.5v8.59961l-24.30077 16.69922c-17.29998 11.99998-27.500007 31.40119-27.500007 52.20117v211c0 35.49996 29.000047 64.40039 64.500007 64.40039h171.09961c35.49996 0 64.40039-28.90043 64.40039-64.40039v-211c0-20.79998-10.20002-40.20119-27.5-52.20117l-24.19922-16.69922v-8.59961h16.5c7.29999 0 13.29883-6.00001 13.29883-13.5 0-6.1-4.09962-11.200788-9.59961-12.800786v-42c0-7.099993-2.80079-13.870318-7.80078-18.820313-5.1-4.939995-11.79884-7.740234-18.79883-7.740234zm16.09961 94.861333h151.70117v20.40039l34.09961 23.39844c10.99999 7.59999 17.69922 20.30118 17.69922 33.70117v211c0 23.59998-18.90002 41.90039-42 41.90039h-171.09961c-23.19998 0-42-18.30041-42-41.90039v-211c0-13.39999 6.59962-26.10118 17.59961-33.70117l34-23.39844z" fill="#861313"/><path d="m157.99999 43.970005h184c2.2 0 4.5.97 6.1 2.58 1.3 1.3 2.1 2.9 2.3 4.73l-112.1 12.15c-5 .54-8.5 4.95-8 9.9.5 4.98 5 8.5 9.8 7.98l110.4-12.07v24.84h-201.1v-2.94l44-4.76c5-.62 8.5-4.97 8-9.94-.5-4.94-5-8.49-9.8-7.96l-42.2 4.63v-20.43c0-2.37 1-4.51 2.5-6.13 1.6-1.61 4-2.58 6.1-2.58z" fill="#ff8066"/></svg>