<svg height="500" viewBox="0 0 500 500" width="500" xmlns="http://www.w3.org/2000/svg" xmlns:xlink="http://www.w3.org/1999/xlink"><radialGradient id="a" cx="1362.7291" cy="216.11429" gradientTransform="matrix(1.0000001 -.0000059 .0000001 1.0000003 -112.72927 33.893757)" gradientUnits="userSpaceOnUse" r="250"><stop offset="0" stop-color="#ff851a"/><stop offset=".42441937" stop-color="#f87000"/><stop offset=".86367416" stop-color="#f26900"/><stop offset="1" stop-color="#e55f00"/></radialGradient><g transform="translate(-1000)"><path d="m1500 250a250 250 0 0 1 -250 250 250 250 0 0 1 -250-250 250 250 0 0 1 250-250 250 250 0 0 1 250 250z" fill="url(#a)"/><path d="m1309.2298 33.82789c128.5196 30.706851 207.8974 167.48127 169.5927 291.56949-31.3771 95.69524-112.8693 162.03793-212.5543 174.60263 153.1796-8.09118 266.0956-163.0043 218.7012-309.92978-36.4562-114.666588-154.6038-191.5214848-270.6514-169.822657-18.8526 4.215647-38.4387 10.498641-55.8829 18.694487-112.5353 47.459213-168.47522 196.206-99.9632 307.85319 57.6978 93.63045 168.5136 141.8489 267.9993 100.77239-134.92 68.97589-303.283-51.46877-311.488-201.30723-4.4167-117.68321 76.8182-219.674136 190.654-246.26040176-89.0147 9.18391126-152.6601 79.39239576-187.7408 157.21169176-38.45522 102.70317 5.2337 231.75078 109.038 294.08388 114.5107 66.1048 260.3537 29.37245 323.6836-83.60152 42.2104-77.69758 34.3514-177.62383-23.1776-249.88923-57.5404-72.257811-157.5429-102.460489-246.4118-71.877168-81.7429 30.682061-131.1298 101.133078-134.0478 190.176958.6692 92.68536 61.7912 168.55972 147.5399 198.52472 128.5549 37.82014 266.7725-70.33038 233.6823-209.88949-14.7104-64.39775-57.8855-122.14991-125.7378-141.121386-71.391-15.467036-138.9716 1.205-181.2869 64.641366-18.8995 29.2286-28.9384 85.21395-26.105 97.65297m0 0c13.5324-50.18833 30.6277-97.66354 72.2125-128.94941 53.182-38.308183 124.4576-37.093813 181.7444-.48035 50.1457 36.48017 75.4845 90.37713 72.3557 150.91678-6.6674 64.04407-38.4038 109.83277-91.6401 141.00844-63.9019 34.56125-135.3795 4.83213-189.1258-35.28385-78.8706-65.48566-79.7477-186.67235-8.9744-256.76104 63.7369-55.941605 167.0207-64.891564 238.7167-6.65053 78.8163 58.35315 90.3045 169.04089 40.972 246.62443-35.2274 56.41892-88.4571 87.60135-152.5581 93.63158-81.9488 2.18264-160.666-41.91503-196.8695-120.9383-36.2055-79.02511-22.5771-164.33167 26.8727-227.66064 49.4316-63.30896 138.3491-86.746364 220.4504-67.54202" fill="#c50"/></g><g><path d="m-920.43732 107.36717 46.0859 36.13477c40.5503 34.77815 67.3225 73.29252 76.252 111.18554 9.8508-40.54427 6.1371-77.85456-4.1172-111.18554-2.9906-12.9769-6.8579-25.35394-12.3965-36.13477zm347.1269 0-14.8691 36.13477c-27.0397 68.0265-65.7451 129.68137-113.418 173.48437 46.368-18.477 90.1848-41.9183 122.8242-67.625l24.9844-19.65039v-116.61718l-1.7168-5.72657zm-480.47848 1.03125v74.86133l47.2754 3.54883c66.71428 5.9283 133.38108 21.71081 188.73828 55.01171-35.1999-46.49759-88.0449-77.81635-139.7032-98.31835zm111.75588 106.96484c23.1253 36.05946 51.91 69.9973 84.9609 100.90625-60.471 43.2261-112.021 95.85282-149.47268 154.10352 76.89768-20.457 150.60588-55.63188 214.48248-101.08008 63.5463 45.2115 136.8215 80.25581 213.289 100.75781-28.7984-60.81427-103.4948-121.3194-148.2832-153.78125 33.0516-30.9105 61.8344-64.84685 84.959-100.90625-52.3782 13.653-102.9901 34.11194-149.9746 59.99414-46.9795-25.881-97.5843-46.34114-149.9609-59.99414zm50.6777 106.8086c-43.7617 7.0623-81.9698 20.65453-115.15818 35.70703l-47.2754 21.08008v108.66211l47.2754-48.11133c31.62598-46.3293 71.54688-88.46229 115.15818-117.33789zm98.459 74.89648c-16.731 63.7956-12.9541 122.27801.4199 174.16211l20.1504 36.13672h116.7168l-32.6641-36.13672c-57.4201-54.117-94.3026-114.64601-104.6211-174.16211zm13.4941.33789c49.698 82.5894 124.9493 137.48597 191.0606 173.82617l34.5527 13.03516v-90.84961l-24.9824-3.94922c-80.2998-17.415-151.1471-49.605-200.6309-92.0625z" fill="#ffa348" stroke="#994100" stroke-width="36"/><path d="m363.17969 240.18359c2.6913-10.9785 10.72821-36.95841 7.86133-44.67773-10.95487-15.81507-32.16285-25.82928-49.25586-30.48828 6.5187-6.91942 12.61403-15.51069 15.79296-27.11914 7.02238-25.64349-4.916-46.704174-8.52148-60.810549-1.89342-7.407957-2.09951-21.644619-13.39648-35.001954-10.52133-12.440238-20.93414-14.812505-32.85157-19.109375-10.48835-3.781612-21.84291-5.501953-32.99218-5.501953s-22.50383 1.720339-32.99219 5.501953c-11.91743 4.29687-22.33024 6.669137-32.85156 19.109375-11.29697 13.357335-11.50111 27.593997-13.39454 35.001954-3.60548 14.106375-15.54386 35.167059-8.52148 60.810549 3.23437 11.81089 9.50973 20.53042 16.13086 27.48047-15.42974 4.0359-45.45494 17.84698-50.03711 32.66015.19954 14.13264 4.76954 28.26619 8.46484 41.25781-16.77332 10.01633-41.262932 27.55789-41.576169 46.29786 7.465019 45.64428 26.780299 81.56181 43.708989 102.70019-17.96205 3.80942-42.745547 7.49659-39.357429 31.18164 2.638469 10.75424 10.788979 17.38808 20.698249 19.23731 5.52619 23.29978 25.63418 25.15577 44.46875 16.42774 2.39995 1.70232 5.60895 3.76149 10.07715 4.56542 5.982 18.29043 26.73507 17.31482 40.5 10.21875 7.70493 9.82895 26.47452 15.01042 34.68164 9.58399 13.20917 5.2291 26.26935.0856 34.68164-9.58399 14.70396 7.59003 35.87367 6.06193 40.5-10.21875 4.46959-.80415 7.67905-2.8647 10.0791-4.5664 19.19441 8.50538 40.00327 5.9305 44.4668-16.42676 10.20701-1.90008 18.79093-9.46322 20.69824-19.23731.19511-30.13026-21.69748-24.67087-39.35547-31.18164 16.92872-21.13838 36.24201-57.05591 43.44043-105.06348-5.46022-22.59553-22.44903-34.34392-41.14746-43.04785z" fill="#994100"/><path d="m222.71678 39.984529c-8.98281 3.11193-18.86101 6.466362-25 13.725-6.34499 7.502202-7.26687 18.315451-9.7 27.835-4.31802 16.894155-13.20556 34.781961-8.6 51.600001 4.51129 16.4738 22 27 33 39.2 0 0 8.03317 9.07485 12.7 12.9 2.68137 2.19778 5.37778 4.7086 8.7 5.7 10.22126 3.05017 21.77874 3.05017 32 0 3.32222-.9914 6.01863-3.50222 8.7-5.7 4.66683-3.82515 12.7-12.9 12.7-12.9 11.5-12.4 28.48871-22.7262 33-39.2 4.60556-16.81804-4.28198-34.705846-8.6-51.600001-2.43313-9.519549-3.35501-20.332798-9.7-27.835-6.13899-7.258638-16.01719-10.61307-25-13.725-8.65303-2.997684-17.94243-4.51-27.1-4.51s-18.44697 1.512316-27.1 4.51zm68.1 257.060001c-10.22782 42.77399-32 128-32 128v19.55c0 6.51667-5.9352 16.85921 0 19.55 8.47643 3.84289 21-18.4 21-18.4s22.01868 17.22002 28 9.4c3.59185-4.69601-6.56667-9.83333-9.85-14.75s-9.85-14.75-9.85-14.75l33.2-132.8c12.5-30.5 30.10003-62 31.40003-90.6-13.70003-14.7-31.90003-19.8-48.10003-22.4-6.2 7.2-11.23336 13.983-18.4 19.2-6.1108 4.44839-13.03361 8.20698-20.4 9.9-10.39564 2.38923-21.60436 2.38923-32 0-7.36639-1.69302-14.2892-5.45161-20.4-9.9-7.16664-5.217-12.2-12-18.4-19.2-15.7 3.1-40.3 10.5-48.1 22.4 4.7 33.5 17.6 65.7 31.4 90.6l33.2 132.8s-6.56667 9.83333-9.85 14.75-13.44185 10.05399-9.85 14.75c5.98132 7.82002 28-9.4 28-9.4s12.52357 22.24289 21 18.4c5.9352-2.69079 0-13.03333 0-19.55v-19.55s-21.77218-85.22601-32-128c-4.66743-19.51975-13.4-58.7-13.4-58.7s31.4 31 31.4 48.6h46c0-17.6 31.4-48.6 31.4-48.6s-8.73257 39.18025-13.4 58.7zm-149-39.5c-10.1 6.9-29.1 16.4-28.9 26.4 7.9 47.7 33.3 87.6 47.3 101.6l9.6 9.7s-17.56667 7.03333-26.35 10.55-27.99628 1.23315-26.35 10.55c1.86854 10.57469 32.2 1 32.2 1s-15.24913 16.57601-9.8 22.8c6.75004 7.70989 29.6-8.3 29.6-8.3s5.10355 10.61767 9.8 10.2c7.90103-.70266 13.2-19.8 13.2-19.8l-30.8-123.2c-6.8-13.6-13.8-27.4-19.5-41.5zm216.00003 0c-5.7 14.1-12.7 27.9-19.50003 41.5l-30.8 123.2s5.29897 19.09734 13.2 19.8c4.69645.41767 9.8-10.2 9.8-10.2s22.85003 16.0099 29.60003 8.3c5.4491-6.22399-9.8-22.8-9.8-22.8s30.3315 9.57469 32.2-1c1.6463-9.31685-17.5667-7.03334-26.35-10.55-8.7833-3.51667-26.35003-10.55-26.35003-10.55l9.6-9.7c14.00003-14 39.40003-53.9 47.30003-101.6-3-12-18.4-21.5-28.9-26.4zm-128.50003 47.4 20.5 81.9 20.5-81.9z" fill="#ffa348" stroke-width="36"/><g fill="#994100"><path d="m199.81515 103.83108c1.92163 9.1907 7.8543 19.20988 18.88711 20.89814 11.0328 1.68826 21.74254-4.33163 25.18189-14.15464-20.39304-1.42969-36.32195-12.209326-38.73686-22.691396-3.45143 3.771339-6.4793 10.46131-5.33214 15.947896zm56.3014 6.74384c3.4402 9.82221 14.14948 15.84117 25.18155 14.15283 11.03208-1.68834 16.96521-11.70665 18.88679-20.89701 1.14715-5.486493-1.88088-12.176598-5.33231-15.947556-2.41468 10.482294-18.34325 21.261896-38.73603 22.691736z"/><path d="m241.15877 135.27166c2.54705 1.57246 5.53405 4.52634 8.82953 4.6963 3.44034-.89898 5.99809-2.51727 8.82919-4.6963l3.75383 4.70868c-3.55075 2.56646-8.58496 5.93553-12.58302 6.00981-4.96161-.51657-8.77433-3.03083-12.58302-6.00981zm-10.46957 16.26826 4.55478 4.4872h29.58666l4.433-4.46378 4.27374 4.24364-6.20017 6.24233h-2.29345l-4.34936 13.04806-4.34935-13.04806h-12.7135l-4.34936 13.04806-4.34935-13.04806h-2.15695l-6.31326-6.21891z"/></g></g></svg>