<svg height="500.00003" viewBox="0 0 500 500.00003" width="500" xmlns="http://www.w3.org/2000/svg"><g transform="translate(-500)"><path d="m926.7767 73.223311c45.24113 45.241099 73.2233 107.741109 73.2233 176.776699 0 69.0356-27.98221 131.53559-73.2233 176.77669-45.2411 45.2411-107.74109 73.22332-176.77669 73.22332-69.03559 0-131.5356-27.98219-176.7767-73.22332-45.2411-45.2411-73.22331-107.74109-73.22331-176.77669 0-69.03559 27.9822-131.5356 73.22331-176.776699 45.2411-45.241105 107.74111-73.22330934 176.7767-73.22330934 69.0356 0 131.53559 27.98220534 176.77669 73.22330934z" fill="#3b2f4f"/><g transform="translate(500)"><path d="m230.6486 0c-128.19182 22.346591-234.17086 139.43202-223.06447 273.24395 5.6201 44.55936 16.72649 83.63245 44.55937 122.70552l50.17947 50.17947c33.45298 22.34661 72.52606 44.55938 111.46533 50.17946 39.07308 5.62012 78.01235 5.62012 111.46534-5.62008 39.07308-16.72649 72.52607-33.45297 100.35893-61.28587 33.45297-39.07306 55.79958-83.63245 66.90595-139.43201v-61.28587c-5.62008-27.83287-11.10637-50.17947-22.34657-78.01235-11.10641-22.34659-27.8329-44.55937-50.17947-61.285858-27.83289-27.832879-61.28586-44.559368-100.35895-55.799569-27.83288-5.620101-55.79957-11.10639-89.25255-5.620101-78.01235 11.106391-139.43202 61.28586-172.885 128.191818-11.10639 27.83288-16.72649 61.28586-22.34659 89.25255 0 33.45298 5.6201 66.90596 16.72649 94.73885 22.34659 44.55936 55.79957 89.25254 105.97904 111.46532 16.72649 5.62012 33.45298 11.1064 55.79957 16.72648 122.70553 22.34661 234.17085-55.79954 250.89734-178.37127 11.10641-78.01236-22.34657-139.43203-72.52604-189.6115-100.35895-89.25255-267.62385-44.559369-312.18322 78.01235-5.6201 27.83288-16.72649 55.79958-16.72649 83.63245 5.6201 78.01235 55.79957 150.53843 133.81192 172.885 61.28586 16.72649 122.70553 5.62012 172.885-33.45298 11.10639-11.10637 22.34659-22.34657 33.45299-33.45297 61.28584-83.63246 44.55935-195.09778-44.55937-256.51746-27.83288-16.726488-55.79958-22.346588-89.25256-27.832879-22.34659-5.620101-44.55937 5.620101-66.90596 11.106391-27.83288 16.726488-50.17947 22.346588-72.52606 50.179468-27.83288 33.45298-33.45298 66.90596-39.07308 105.97904 0 55.79958 27.83288 117.08544 83.63245 144.91833 78.01235 44.55934 183.99139 11.10637 223.06447-72.52607 22.3466-55.79958 11.1064-128.19183-39.07308-172.88501-33.45298-27.83288-66.90596-39.07308-111.46533-39.07308-66.90596 5.6201-111.46533 55.79957-122.70553 122.70553-11.10639 72.52606 33.45298 139.43202 105.97904 150.53843 100.35894 16.72649 183.99138-89.25257 139.43202-178.37131-11.10638-16.72649-27.83288-39.07308-50.17947-50.17947-27.83288-11.10639-55.79957-16.72649-83.63245-11.10639-33.45298 5.6201-55.79957 27.83288-72.52606 50.17947-16.72649 27.83288-16.72649 55.79957-11.10639 83.63245 11.10639 33.45298 39.07308 61.28586 72.52606 72.52607 44.55937 16.72649 89.25255-5.62011 111.46533-39.07309 33.45298-55.79957 5.6201-117.08543-50.17947-139.43202-50.17947-16.72649-122.70553 27.83288-105.97904 89.25255 5.6201 16.72649 11.10639 39.07309 27.83288 50.17947 22.34659 16.7265 50.17947 16.7265 72.52606 11.1064 22.34659-11.1064 39.07308-33.45299 39.07308-61.28587-5.6201-16.72649-5.6201-39.07308-22.34659-50.17947-13.91644-8.36324-29.2379-11.13984-43.17107-8.34651-13.93317 2.79332-26.47803 11.15656-34.84128 25.073-5.6201 16.72649-11.10639 33.45298 9.50065 44.827 41.74932-49.10898 35.32635.40143 29.84006-16.45887v5.6201c16.72649-5.6201 22.34659-22.34659 27.83288-33.45298 5.6201 5.6201 16.72649 11.10639 16.72649 22.34659 11.10639 39.07308-27.83288 72.52606-66.90596 61.28586-33.45298-11.10639-44.55937-50.17947-39.07309-83.63245 5.62011-22.34659 22.3466-39.07308 50.17948-44.55937 33.45298-5.6201 66.90596 11.10639 83.63245 39.07308 16.72649 27.83288 16.72649 50.17947 0 78.01235-33.45298 55.79958-105.97905 55.79958-150.53841 11.10639-33.45298-44.55937-22.3466-117.08543 27.83288-144.91831 16.72648-11.10639 39.07308-16.72649 61.28586-16.72649 11.10638 0 27.83288 5.6201 39.07308 11.10639 27.83288 11.10639 39.07308 39.07308 55.79957 61.28586 5.6201 16.72649 5.6201 27.83288 5.6201 44.55937-5.6201 72.52606-72.52606 122.70554-144.91831 105.97904-83.63246-22.34659-122.70554-122.70553-72.52606-195.09778 11.10638-16.72649 22.34659-27.83288 39.07308-39.07308 78.01235-44.559372 167.2649-5.6201 200.71788 66.90596 39.07309 94.73884-39.07308 206.33797-139.43202 200.71788-27.83288-5.62012-55.79958-5.62012-78.01235-22.3466-22.34659-11.10638-27.83288-27.83287-39.07309-39.07307-66.90596-78.01235-33.45298-195.09778 55.79958-239.79097 39.07308-16.726484 83.63245-16.726484 128.19182-5.6201 94.73883 33.45298 139.43201 144.91832 94.73883 234.17087-11.10637 27.83288-33.45297 44.55935-55.79956 66.90596-22.34659 16.72649-50.17947 27.83289-78.01235 33.45298-44.55937 5.62012-89.25256-5.62009-128.19182-27.83286-94.73884-66.90598-117.08544-211.82429-22.3466-289.97045 16.7265-11.1064 27.83288-33.452984 50.17948-39.073085 33.45298-11.106392 66.90596-22.346593 105.97904-16.726492 27.83288 5.6201 55.79957 16.726492 78.01235 27.832879 16.72649 16.726488 39.07309 22.346598 50.17946 44.559368 11.10641 16.72649 27.8329 33.45298 33.45298 55.79957 22.34661 66.90596 16.72649 139.43203-27.83286 195.09781-16.72649 22.34657-33.45298 44.55934-61.28587 55.79954-22.34659 5.62012-39.07308 22.34661-61.28586 22.34661-39.07308 0-83.63245 5.62008-122.70553-11.10641-117.08543-44.55934-167.26491-195.09777-105.97905-306.69691 16.7265-33.45298 44.55937-61.285864 78.01236-83.632457 44.55936-22.34659 89.25255-33.452979 139.43202-27.832879 61.28586 5.6201 111.46532 39.07308 156.1585 83.632456 22.34661 22.34659 27.8329 50.17947 39.0731 78.01234 11.10637 16.7265 5.62008 39.07309 11.10637 61.28586 11.10645 172.88502-195.09777 301.07685-351.25629 211.82429-27.83287-16.72649-50.17946-27.8329-66.90596-50.17947-61.28586-72.52608-78.01235-167.26492-50.17947-256.51747 16.72649-33.45298 39.07309-61.28586 61.28587-89.252546 39.07308-39.073083 94.73884-55.799574 144.9183-72.526064" fill="#221b35" opacity=".9"/><path d="m231.45148 15.388371c-120.56454 21.008472-220.12061 131.001869-209.68329 256.785079 5.21867 41.88313 15.78981 78.68141 41.88314 115.34586 15.7898 15.65602 31.4458 31.44582 47.23561 47.1018 31.4458 21.0085 68.11026 41.88314 104.77473 47.23563 36.66447 5.21866 73.32893 5.21866 104.77473-5.21866 36.66447-15.65601 68.11026-31.44582 94.33742-57.67295 31.44579-36.66448 52.45425-78.68141 62.89161-131.00187v-57.67294c-5.2187-26.22714-10.43736-47.23561-21.00851-73.32894-10.43731-21.00847-26.22712-41.88313-47.10179-57.672935-26.22713-26.227136-57.67292-41.88313-94.33739-52.454272-26.22714-5.218666-52.45427-10.43733-83.90008-5.218666-73.32893 10.437332-131.00187 57.672938-162.44767 120.564543-10.43733 26.22713-15.78981 57.67294-21.00847 83.90008 0 31.44579 5.21866 62.8916 15.78981 89.11874 21.00847 41.88313 52.45427 83.90006 99.55607 104.77473 15.7898 5.21866 31.4458 10.43732 52.45427 15.65601 115.34588 21.00847 220.12062-52.45428 235.91043-167.66635 10.43732-73.32894-21.00847-131.00188-68.11026-178.23748-94.33742-83.900079-251.56643-41.883137-293.44956 73.32893-5.21867 26.22713-15.78981 52.45427-15.78981 78.68141 5.21866 73.32893 52.45427 141.573 125.78321 162.44767 57.67293 15.78981 115.34587 5.21866 162.44767-31.44578 10.43733-10.43736 21.00849-21.00849 31.4458-31.44582 57.67295-78.68141 41.88314-183.45615-41.88313-241.12909-26.22714-15.7898-52.45428-21.008465-83.90008-26.227131-21.00847-5.218666-41.88313 5.218666-62.8916 10.437331-26.22714 15.7898-47.23561 21.00847-68.11027 47.1018-26.22713 31.4458-31.4458 62.8916-36.66447 99.55606 0 52.45428 26.22714 110.12722 78.68142 136.22052 73.32893 41.88314 173.01881 10.43736 209.68327-68.11025 21.00847-52.45427 10.43736-120.56454-36.66446-162.44767-31.4458-26.22714-62.8916-36.66447-104.77473-36.66447-62.89161 5.21867-104.77474 52.45428-115.34588 115.34588-10.43733 68.11027 31.4458 131.00187 99.55607 141.57302 94.3374 15.65599 173.01881-83.90008 131.00187-167.66635-10.43733-15.7898-26.22714-36.66446-47.1018-47.2356-26.22713-10.43733-52.45427-15.656-78.68141-10.43733-31.4458 5.21866-52.45427 26.22713-68.11027 47.23561-15.7898 26.22713-15.7898 52.45427-10.43732 78.6814 10.43732 31.44581 36.66446 57.67295 68.11026 68.11027 41.88314 15.78981 83.90008-5.21866 104.77474-36.66446 31.4458-52.45428 5.21866-110.12721-47.1018-131.00187-47.23561-15.78981-115.34588 26.22713-99.55607 83.90007 5.21867 15.65599 10.43733 36.66447 26.22714 47.23561 21.00847 15.78981 47.10179 15.78981 68.11027 10.43733 21.00847-10.43733 36.66446-31.4458 36.66446-57.67294-5.21866-15.7898-5.21866-36.66447-21.00847-47.23561-13.11356-7.8949-27.5318-10.50423-40.62864-7.86145-13.09684 2.64279-24.87229 10.53769-32.70029 23.65126-5.21867 15.656-10.43733 31.4458 8.9654 42.15076 39.20689-46.70036 33.05154-.26763 27.96669-16.05744v5.21867c15.78981-5.21867 21.00847-21.00847 26.22714-31.4458 5.21866 5.21866 15.65599 10.43733 15.65599 21.00847 10.43733 36.66447-26.22714 68.11027-62.8916 57.67294-31.4458-10.43733-41.88313-47.23561-36.66447-78.68141 5.21867-21.00848 21.00847-36.66447 47.1018-41.88314 31.4458-5.21866 62.8916 10.43734 78.68141 36.66447 15.65599 26.22714 15.65599 47.23561 0 73.32893-31.4458 52.45428-99.55607 52.45428-141.57302 10.43734-31.4458-41.88313-21.00847-110.12722 26.22714-136.22054 15.78981-10.43733 36.66447-15.656 57.67294-15.656 10.43733 0 26.22714 5.21867 36.66447 10.43733 26.22713 10.43733 36.66446 36.66447 52.45427 57.67294 5.21866 15.78981 5.21866 26.22714 5.21866 41.88314-5.21866 68.11026-68.11026 115.34586-136.22053 99.55606-78.68141-21.00847-115.34588-115.34587-68.11027-183.45614 10.43733-15.656 21.00847-26.22714 36.66447-36.66447 73.32893-41.88313 157.22901-5.21866 188.67481 62.8916 36.66448 89.11874-36.66447 193.89349-131.00188 188.67483-26.22713-5.21866-52.45427-5.21866-73.32893-21.00848-21.00847-10.43734-26.22713-26.22714-36.66447-36.66447-62.8916-73.32893-31.4458-183.45615 52.45428-225.33928 36.66446-15.789805 78.68141-15.789805 120.56454-5.21866 89.11872 31.4458 131.00186 136.22053 89.11872 220.12061-10.43731 26.22714-31.44578 41.88313-52.45425 62.89162-21.00847 15.78977-47.23561 26.22712-73.32894 31.44578-41.88313 5.21866-83.90007-5.21866-120.56454-26.22712-89.11874-62.89162-110.12721-199.11215-21.00847-272.5749 15.656-10.43733 26.22714-31.445801 47.1018-36.664467 31.4458-10.437328 62.8916-21.00847 99.55607-15.655994 26.22713 5.218666 52.45427 15.655994 73.32893 26.227136 15.65599 15.789805 36.66446 21.008475 47.10181 41.883135 10.43732 15.7898 26.22713 31.4458 31.44578 52.45427 21.00847 62.8916 15.78981 131.00187-26.22712 183.45615-15.78981 21.00846-31.44582 41.88313-57.67295 52.45428-21.00847 5.21866-36.66446 21.00847-57.67294 21.00847-36.66446 0-78.68141 5.21866-115.34587-10.43735-110.12721-41.8831-157.22901-183.45614-99.55607-288.23087 15.7898-31.4458 41.88313-57.672937 73.32893-78.681407 41.88313-21.008474 83.90008-31.445802 131.00187-26.22714 57.67294 5.218666 104.77473 36.664468 146.79166 78.681417 21.00851 21.00847 26.22717 47.10179 36.66448 73.32893 10.43732 15.78981 5.21866 36.66446 10.43732 57.67293 10.43735 162.44767-183.45613 283.01222-330.24781 199.11215-26.22713-15.65601-47.23561-26.22713-62.8916-47.23563-57.67294-68.11025-73.32893-157.22899-47.23561-241.12907 15.78981-31.4458 36.66447-57.67293 57.67294-83.900069 36.66447-36.664468 89.11874-52.454275 136.22054-68.11027" opacity=".9"/></g></g><g><g transform="translate(48.45294 -7.49414)"><path d="m101.42969 335.5625c20.29172 38.04963 51.88502 59.43057 80.41015 77.52734-17.76515 19.36039-41.03493 35.81178-61.60742 50.82422-15.41994 12.56719-19.07427 30.89401-20.410154 36.08597l212.843754-.00003c7.54434-.84669 35.42675-13.68957 6.74218-34.82422-30.13632-11.44339-59.59397-15.48544-90.02148-17.10742 15.91803-12.3166 28.59588-25.24949 41.73242-39.78711-11.00517-17.89658-24.21814-36.32905-37.11739-49.73107-10.59836-10.92236-21.61819-20.15306-33.80058-28.41346-9.35557-6.34364-19.87306-10.77791-29.87747-16.03909-5.2864-2.78004-15.92979-8.20449-15.92979-8.20449-2.62284 10.8528-16.86561 21.28576-37.82045 31.47622z"/><path d="m147.61151 316.57812c-7.44436 9.98195-31.03711 20.79102-31.03711 20.79102 38.93725 25.33617 59.61639 50.61672 91.9668 71.41016-19.05252 24.81585-49.26101 45.78747-68.53906 63.67578 36.00035.52393 68.74413 1.43988 100.68359 9.54883h72.33203c-45.13777-17.13977-89.66684-16.53241-142.41211-17.34375l27.38672-16.42969c18.35941-11.05464 40.16763-30.32303 50.61524-41.88477-23.63394-37.42351-55.22223-58.72242-88.59375-76.4707z" fill="#775fa0" stroke-width="36"/></g><path d="m381.79297 355.6582c7.3256-1.64664 11.69358-7.08507 13.77148-13.49414 12.97732 7.78696 30.12082 20.74861 43.24219 11.88282 13.87772-16.68345 4.77945-27.31967-6.43164-40.83399 22.8207-11.29349 14.5137-34.50857-6.49414-37.67383-18.02734-.52867-22.60678-3.4706-38.91016-4.38672-9.75573-11.67151-14.25555-26.60594-19.99023-39.14257-3.1088-6.6979-6.85438-11.59269-8.82227-15.96875-10.51148 2.76981-21.6597.60903-31.20703-.76954-9.99152-1.34688-12.19463-4.37582-28.47851-10.18554.28693-7.1725-14.63282-18.28906-14.63282-18.28906 1.81913 16.79972 1.96479 33.87075 1.70704 49.8496 6.78031 8.01328 13.18136 21.1775 16.27497 24.50271 14.06276 15.1156 19.16278 20.02355 37.93494 37.02868 6.1463 5.56774 7.04784 23.26318 10.9854 30.5233 6.66495 12.7019 15.07785 30.2144 31.05078 26.95703z"/><path d="m329.95697 266.38704c11.72067 11.91102 35.2988 35.59801 35.2988 35.59801s4.294 12.60973 6.44101 18.91461c3.73173 16.23441 5.57295 25.97212 9.07828 6.64293.8791-4.09056 2.63727-12.27168 2.63727-12.27168s15.89123 8.48538 23.83683 12.72807c25.36521 17.43433 27.20299 15.49873 8.97685-6.08514l-14.85999-18.81319s10.3462-2.90734 15.51931-4.36101c30.39053-6.18972-8.22879-5.68784-12.93276-7.15002-9.09988-2.82862-28.45204-2.78902-28.45204-2.78902-2.73869-6.59221-10.60868-17.29159-15.31643-26.26749-7.62575-14.53941-20.89851-44.59989-20.89851-44.59989-20.27743-2.50514-119.02697-118.982636-53.30041 3.42386 0 0 29.25708 30.07626 43.97179 45.02996z" fill="#775fa0" stroke-width="36"/><path d="m144.27734 105.75977c-12.47227 1.20582-21.75642 6.05786-24.93164 18.15429-13.75246 1.71948-22.797051 13.91501-21.800778 27.32422-15.262298 4.19142-26.667427 10.80762-27.933594 26.33984-8.700523 13.18603-16.578348 29.15587-16.017578 48.16407 1.108611 37.5781 11.182779 77.7111 47.83594 109.82031 20.29172 38.04963 51.88502 59.43057 80.41015 77.52734-17.76515 19.36039-41.03493 35.81178-61.60742 50.82422-15.41994 12.56719-19.07427 30.89401-20.410154 36.08597l212.843754-.00003c7.54434-.84669 35.42675-13.68957 6.74218-34.82422-30.13632-11.44339-59.59397-15.48544-90.02148-17.10742 15.91803-12.3166 28.59588-25.24949 41.73242-39.78711-11.00517-17.89658-24.21814-36.32905-37.11739-49.73107-10.59836-10.92236-21.85942-20.21627-33.80058-28.41346 3.56257-2.75633 5.83741-4.86127 8.26563-7.75586 4.03764-4.81312 7.52932-10.14378 10.30984-15.77737 4.06421-8.23446 7.2271-16.86786 9.13938-25.98826.98456 4.2276 1.92754 7.52618 3.12304 11.72071l50.05469 46.9707c1.34208 3.77162 4.45837 16.80356 6.6543 26.75781 2.17191 10.31416 5.73414 18.2126 14.16601 21.67383 11.61501 2.52986 22.01922-2.52695 25.45899-13.12305 15.3908 6.82499 34.14321 18.73363 44.97656 3.08204 7.46153-11.94331-1.07332-23.32573-8.49024-31.22071 8.88715-4.15712 14.50024-14.01655 11.32422-23.79883-7.06784-15.78575-39.78113-17.63163-52.37695-17.91192l-24.92773-29.0664c5.72877-16.22009 5.90238-33.20261 5.92965-49.1211 13.88497 6.14142 29.93652 8.6451 43.33789 8.79883 6.12419.0354 12.84291-.32996 19.83402-3.36737 3.13226-1.36087 6.68936-3.4167 9.63278-5.93927l.0156-.0137c10.83189-9.37095 19.635-20.41664 26.69574-29.65199 9.05262-11.85541 13.7865-24.99535 13.26127-37.23671-.46179-12.41783-6.85647-22.92585-11.54688-33.23633-11.47483-25.32446-34.39741-44.874625-61.11719-52.345703-16.43475-5.125473-29.77719 4.899432-44.0371 9.50586-7.50188-6.618356-17.51384-9.49489-26.83008-6.521485-6.12183-7.096074-15.6008-10.330312-21.6211-10.605468-3.08899-.141182-5.76001.05205-8.02539.304687-10.84501-5.051544-20.7601-3.055123-31.19914 1.919792-15.56387-1.400324-27.00763 4.577455-34.52538 18.083007-16.13076-.39835-27.28217 4.618257-33.40626 19.48731z"/><path d="m283.83919 186.79665s14.92093 11.11738 14.634 18.28988c16.2839 5.80973 18.48735 8.83806 28.47888 10.18495 12.57168 1.69473 28.90933 4.8773 37.94796-2.86899 5.16495-4.44696 9.756-8.89391 13.8449-13.34085l9.25387-11.40428c16.62781-23.18813 10.4393-34.67396 3.62958-48.1539-1.0049-1.98922-2.02334-4.02187-2.98397-6.14195-8.97685-19.81152-28.6198-36.582092-49.56907-42.439686-16.56909-4.632856-35.89043 18.492196-49.0831 8.418267-3.52007-2.687954-5.24529-9.612754-14.93477-4.033013-4.53322 2.610501-12.45577-.888727-14.64554-5.63901-3.88834-8.43497-15.33956-5.280783-20.72479-4.624787-11.50986-10.034896-20.76833 3.050185-27.78493 1.340706-8.69438-2.414721-14.38731 1.276561-18.02039 8.098214-3.13934 5.894569-10.72871 11.003309-17.33842 10.042569-7.75847-1.12774-14.32084.2317-16.58867 11.35672-.96207 4.71955-7.17748 8.91876-11.93314 8.15089-9.92857-1.60315-11.82014 2.70909-11.48622 8.74436.26519 4.79324-5.91131 10.42533-10.65589 9.68988-6.81553-1.0565-12.06523-.11714-10.04824 10.33133 1.39594 7.23139-7.72937 15.79191-15.08687 16.14378-15.232743.72848-13.211641 11.451-13.289732 14.17582-8.827358 12.50168-16.31079 27.10516-15.868613 42.09345 1.065322 36.11076 9.370716 70.00096 44.143775 98.98477 21.301 42.39308 59.23706 62.77826 92.81149 84.58331-22.54738 29.3679-60.7817 53.3696-77.94792 73.22438h182.42424c-45.13782-17.13978-89.66706-16.53126-142.41238-17.34261l27.38699-16.42986c18.35943-11.05465 40.16761-30.32422 50.61523-41.88597-23.63396-37.42355-50.20949-58.7215-83.58105-76.4698 0 0 23.59422-10.8089 31.03859-20.79086 11.04684-14.81242 16.25478-31.40435 16.4322-52.94062 11.8677-24.84762 36.11026-63.18393 36.11026-63.18393-11.25909 32.45403-10.44762 58.72148-1.62293 89.65424l49.49946 46.44982c8.43612 15.87415 9.86694 61.63511 15.82359 32.45403.8791-3.85392 2.63727-11.56175 2.63727-11.56175s15.04594 6.25417 22.56892 9.38125c25.36895 13.9989 25.14261 10.89395 6.99889-7.15003-5.19001-5.51042-15.57001-16.53128-15.57001-16.53128s11.66483-2.67069 17.49725-4.00603c28.92019-4.14888-4.25318-5.14479-7.20177-6.44011-7.57409-3.32726-24.69902-2.43404-24.69902-2.43404l-37.83462-44.11719c10.75193-18.25539 8.02016-34.0364 9.12061-51.40368.85385-13.47534-1.9859-40.45839-1.9859-40.45839z" fill="#775fa0" stroke-width="36"/><path d="m398.1353 142.56295c-2.23824 5.30524-11.04877 5.95071-20.21433 2.23218 7.41236-4.65644 12.42209-11.37207 16.91574-18.52967zm-62.07125-16.42935c.30345-.005.61068.12226.91269.39752 8.2954 7.56753 14.90688 16.99933 25.9652 19.64144-4.89124 4.55322-15.23182 6.88-27.25061.53751-5.18844-8.26414-2.56365-20.53585.37272-20.57647z" stroke-width=".999998"/><path d="m394.21907 177.56814c-1.13277-1.28404-1.4967-1.55313-2.81235-2.65583l-2.46965 4.93862-7.0245-10.5349c-1.56617-.63219-3.17164-1.16239-4.8063-1.58725l-2.0058 6.91812-4.50343-7.9921c-1.65219-.11704-3.30603-.11704-4.9582 0l-4.50344 7.9921-2.00581-6.91812c-1.63465.42486-3.2401.95506-4.80627 1.58725l-7.02451 10.5349-2.46966-4.9383c-2.48926 2.08635-4.66854 4.51667-6.47215 7.21768-2.85223 4.27772-4.39544 8.45428-4.39544 12.03173v4.73601l3.89545-1.9473 4.23702-10.57688 5.19177 5.91829c1.91992-.92697 3.69995-1.76709 5.33653-2.50216l3.72955-6.03571 2.08028 3.64445c3.73184-1.35696 6.77044-2.0182 9.68578-2.0182 2.91533 0 5.95394.66124 9.68577 2.0182l2.08029-3.64445 5.81269 6.74013c9.73334 2.97711 16.13751-4.29437 8.52238-12.92628z" stroke-width=".999998"/><path d="m270.19334 133.74209c-1.06828-9.02586 4.70542-25.50521 6.05201-26.58658 1.34659-1.08139 12.08143-.091 17.62506 1.68396 6.82465 2.71402 15.6405 9.03237 16.72568 15.92072.65038 4.93567-4.31813 14.29731-4.31813 14.29731-1.1913-5.25694-6.45162-17.62648-11.83612-19.06088-3.08542-.60832-10.51013-4.3318-11.42078-3.51463-.91064.81718-4.20435 12.03874-3.30695 18.10886 1.00079 6.76959 3.83499 13.43551 9.37389 18.26506 3.73372 4.3659 14.00562 5.77554 14.79108 11.1126-1.70255 10.50684-16.36395-.43141-20.81311-4.20726-8.75508-8.88479-11.73534-16.41005-12.87263-26.01916z"/></g></svg>