<svg height="500" viewBox="0 0 500 500" width="500" xmlns="http://www.w3.org/2000/svg" xmlns:xlink="http://www.w3.org/1999/xlink"><radialGradient id="a" cx="1362.7291" cy="216.11429" gradientTransform="matrix(1.0000001 -.0000059 .0000001 1.0000003 -112.72927 33.893757)" gradientUnits="userSpaceOnUse" r="250"><stop offset="0" stop-color="#ff851a"/><stop offset=".42441937" stop-color="#f87000"/><stop offset=".86367416" stop-color="#f26900"/><stop offset="1" stop-color="#e55f00"/></radialGradient><mask id="b" maskUnits="userSpaceOnUse"><path d="m102.06055 18.421875h295.87891v224.5313h-295.87891z" fill="url(#c)"/></mask><linearGradient id="c" gradientUnits="userSpaceOnUse" x1="284.87549" x2="355.59766" y1="122.96868" y2="212.33598"><stop offset="0" stop-color="#fff"/><stop offset="1"/></linearGradient><linearGradient id="d" gradientUnits="userSpaceOnUse" x1="314.52148" x2="489.68549" y1="318.11914" y2="360.8255"><stop offset="0" stop-color="#994100"/><stop offset="1" stop-color="#994100" stop-opacity=".328767"/></linearGradient><g transform="translate(-1000)"><path d="m1500 250a250 250 0 0 1 -250 250 250 250 0 0 1 -250-250 250 250 0 0 1 250-250 250 250 0 0 1 250 250z" fill="url(#a)"/><path d="m1309.2298 33.82789c128.5196 30.706851 207.8974 167.48127 169.5927 291.56949-31.3771 95.69524-112.8693 162.03793-212.5543 174.60263 153.1796-8.09118 266.0956-163.0043 218.7012-309.92978-36.4562-114.666588-154.6038-191.5214848-270.6514-169.822657-18.8526 4.215647-38.4387 10.498641-55.8829 18.694487-112.5353 47.459213-168.47522 196.206-99.9632 307.85319 57.6978 93.63045 168.5136 141.8489 267.9993 100.77239-134.92 68.97589-303.283-51.46877-311.488-201.30723-4.4167-117.68321 76.8182-219.674136 190.654-246.26040176-89.0147 9.18391126-152.6601 79.39239576-187.7408 157.21169176-38.45522 102.70317 5.2337 231.75078 109.038 294.08388 114.5107 66.1048 260.3537 29.37245 323.6836-83.60152 42.2104-77.69758 34.3514-177.62383-23.1776-249.88923-57.5404-72.257811-157.5429-102.460489-246.4118-71.877168-81.7429 30.682061-131.1298 101.133078-134.0478 190.176958.6692 92.68536 61.7912 168.55972 147.5399 198.52472 128.5549 37.82014 266.7725-70.33038 233.6823-209.88949-14.7104-64.39775-57.8855-122.14991-125.7378-141.121386-71.391-15.467036-138.9716 1.205-181.2869 64.641366-18.8995 29.2286-28.9384 85.21395-26.105 97.65297m0 0c13.5324-50.18833 30.6277-97.66354 72.2125-128.94941 53.182-38.308183 124.4576-37.093813 181.7444-.48035 50.1457 36.48017 75.4845 90.37713 72.3557 150.91678-6.6674 64.04407-38.4038 109.83277-91.6401 141.00844-63.9019 34.56125-135.3795 4.83213-189.1258-35.28385-78.8706-65.48566-79.7477-186.67235-8.9744-256.76104 63.7369-55.941605 167.0207-64.891564 238.7167-6.65053 78.8163 58.35315 90.3045 169.04089 40.972 246.62443-35.2274 56.41892-88.4571 87.60135-152.5581 93.63158-81.9488 2.18264-160.666-41.91503-196.8695-120.9383-36.2055-79.02511-22.5771-164.33167 26.8727-227.66064 49.4316-63.30896 138.3491-86.746364 220.4504-67.54202" fill="#c50"/></g><g><path d="m144.4043 171.51172v187.71484h-23.57617l-28.156255 122.35156h314.656245l-28.42578-123.53515-80.86132 6.4707-4.1504 4.58399-11.9121-10.78125 32.54296-40.19727-83.96679-52.19727 32.16797-41.63281z" fill="#994100"/><path d="m162.40362 377.22593h-27.24755l-19.87211 86.35232h269.43254l-19.87029-86.35232-58.25396 4.66163-11.43795 12.63346-37.88304-34.29016 30.43008-37.59032-83.57558-51.95364 30.35531-39.28646-72.07653-32.14992z" fill="#ffa348" opacity=".2"/><path d="m163.82227 199.88281-1.41797.07813v26.26953l15.46679-.56836-1.96679-20.39063zm20.38281 9.0918.71484 17.13086 35.72266-.33203-.05469-.57032zm42.89844 19.13477.0996 1.89648 3.71876-.19336zm-64.69922 4.36328v27.64453l40.15625-1.24219 2.58203-26.23828zm70.19922 1.35546-21.03907 2.31446-2.39843 23.65625 3.28125.11719zm-41.29883 31.28516-7.97071 16.16211.77344 15.5 47.4961-.70117-.8418-8.82813-26.63672-16.55859 3.77734-4.88867zm-14.83594.51563-14.06445.66211v28.7832l16.09375.85156zm60.47461 25.45898-.46875 4.72852 7.42383-.4043zm-53.31445 9.9043-21.22461 1.16601v26.11719l23.77148-.87109zm42.77148.10351-34.2832.19532 1.10547 26.55664 35.72265-.33399zm31.61133 3.08985-21.93164.25-1.35938 12.33007.78711 14.98243 17.09375-.88477 4.38477-5.75781 6.78906 5.16797 17.18359-.92383v-10.90039zm28.375 17.63867-.125 2.5957 1.43945-1.7793zm-21.12695 10.82031-1.00391 18.95899 14.14844-17.47852-4.63672-.20117-1.68164-1.2793zm-9.48438 1.29102-35.9082 3.94922-2.39844 23.65429 39.97266-1.15429-.16993-.1543.92579-1.14453zm-89.9707.25976-1.47657 27.86133 46.53516-1.43945 2.58399-26.23828zm33.80273 32.65821-7.9707 16.16406.77539 15.5 47.49414-.70117-2.80469-29.41211zm-14.83398.51757-22.36914 1.05469v8.80078h-23.69336l2.07226 18.00586 46.01953 2.43555zm82.12695 1.57618-19.35547.63671-2.76758 27.97461 35.25977-1.91992v-14.80078zm97.94531 8.27929-35.49804 2.83985-.19336 3.86328 7.9707 16.16406 32.67188-1.34961zm-41.27929 3.30274-16.97461 1.35742-11.4375 12.63476-10.43946-9.45117-1.41601 12.29297 38.99023 2.21484zm-190.36329 5.18554-1.98242 8.61133 2.91992-.08984zm-3.88085 16.86133-5.83204 25.3418 50.24805 3.48047-1.10742-28.82227zm51.27929 1.58789-2.02929 25.46289 50.82421 1.99219-.36914-27.12305zm89.91211.03906-22.64844.38868.00391.13672-9.09766.20898-1.21875 23.98828 12.53907-.48047 40.31445 3.3125 2.54492-26.42383zm29.48438.50391 1.47656 27.86328h49.49023l-2.58398-26.23828zm54.98828.70117 2.39844 23.65625 19.79882 1.77344-5.76171-25.0332zm-118.80274 29.12696-14.39257 1.32812 10.11132 10.33399zm-46.6875.77539-41.07421.55273 1.29296 26.75586 42.32618-.88672zm75.88868 1.28125 6.49414 18.38476 5.64648-5.46094 3.02734-12.55468zm-139.12696.08398-5.79883 4.41016-5.04882 21.93945h28.02929v-25.42773zm91.36328.2207-17.42382 2.17774-3.28321 22.91797 37.12891.2207-2.28906-9.96289zm160.32032.28711-5.79493 7.9336.18555 17.40234 12.11914-.09765-5.79297-25.17383zm-139.17188.66211-.13086 25.17969h31.17383l-8.98633-24.29297zm48.7207.36914-11.10742 24.81055 44.76367.55273 2.54493-24.0332zm43.25.88672-1.10546 24.17774 34.2832.19531 2.54492-24.04102z" fill="#ffa348"/><g mask="url(#b)"><path d="m102.06055 119.71489 42.34375 52.48828v20.06836l113.61718 50.68164 27.73829-34.86718 69.83789 4.25v-40.13086l42.34179-52.49219v-101.291065l-295.8789.002z" fill="#994100"/><g fill="#ffa348"><path d="m120.06048 36.424487v76.935133l42.34314 52.48893v14.74177l90.21422 40.24212 24.88573-31.28271 60.09418 3.65672v-27.35699l42.34222-52.49075v-76.936959h-44.60647v36.289951h-27.15089v-36.287215h-45.09343v36.288126h-26.66394v-36.288126h-45.09343v36.288126h-26.66668v-36.288126z" opacity=".2"/><path d="m120.06048 36.424487.00007 12.218091 4.28519-12.218091zm44.60465 0h-34.7233l11.72614 27.737619 15.31478-.561867 7.68238 3.076874zm98.42405 0 .00066 28.868479 9.56446-.513672 4.98242 1.734375 30.54492.412109v-30.501291zm-71.75737.253244v30.426197l7.72889-3.960673 12.4407 1.258033 9.14118-1.457932 10.99804 3.796875 4.78516-.03906-.00054-30.276685zm144.00169-.25598.00048 27.365355 20.72266 1.69336 14.13477-15.351563 2.28711-9.964844 5.75781 28.121094 1.70312-.0293-.0203-31.846612zm-209.27491 10.97864-5.99804 16.974609v1.398438l14.66992-.357422-3.02539-12.554688zm244.2793 8.779297-10.11133 10.333984 14.39258 1.328125zm-107.24805 16.533203h-6.35937l-1.25 25.873047 46.36523 1.214843 1.10742-28.822265-32.0082-1.271447zm-105.58984-.791747-1.47656 25.565184 46.53711-1.439453 2.58203-26.238281-8.1537.298863-5.65685 2.605432h-26.66601zm62.95758-2.04006-8.89313 3.433369-2.39843 23.654297 40.85156 1.46875-2.25196-25.724609h-11.33984zm-100.39703.738054v27.318362l28.91601-.894531-2.54687-26.423828zm227.39843.138671-6.11459.786153-6.01041 1.166973h-26.76953l-.77734.03906 2.0293 25.462891 37.27343-.330079zm8.1543 2.69336 1.21875 23.988281 23.10742 2.09375v-25.380856zm-164.30859 28.832031-7.97071 16.16407.77344 15.5 47.4961-.70118-2.80469-29.41211zm-14.83594.51758-46.94141 2.21289 2.69727 23.42383 1.86328 2.31055 44.41016 2.34961zm145.1582 1.06055-.77539 15.49805 7.97071 16.16406 34.38476-1.41992 3.51172-4.35547 2.40234-25.1875zm-49.89257.082-32.49219 1.07031-2.76758 27.97266 35.25977-1.91797zm44.2832.76562-38.06836 2.43555-2.95313 25.64844 38.99024 2.21484zm57.97461.11133 1.40234 14.17383 4.54492-5.63476v-8.1211zm-253.93164 1.70703v6.83204l4.61133 5.71679-1.38086-12.54883zm63.56836 31.63672-41.70899 2.29297 20.17188 25.00195 24.08398-.88476zm42.77148.10352-34.2832.19531 1.10547 26.55469 35.72265-.33203zm54.55859 2.82617-44.8789.51367-1.35938 12.33008.78711 14.98242 17.09375-.88672 4.38282-5.75586 6.79101 5.16602 17.18359-.92188zm6.27344.40625-1.29297 26.75586 41.07422.55273 2.54688-26.42187zm69.58789.51953-22.38867.10742 3.28516 22.91797.49804.041zm-91.56054 27.79492-1.47657 27.86328 6.80274.56641 6.91797-8.69531 33.02734 2.00976.72461-18.83789-37.48828-1.625-1.68164-1.28125zm-9.48438 1.29297-35.9082 3.94922-2.39844 23.6543 40.85156-1.18164zm-89.9707.25781-.55664 10.49415 36.35547 16.21679 9.25976-.28711 2.58399-26.23828zm171.79297 2.04688-21.50782 1.08008 1.39454 17.49023 20.11328 1.22461zm-121.0918 31.31055 21.42578 9.55859-.83008-8.70703zm47.74805 1.48242-16.70899.55078-1.11914 11.31445 6.19141 2.76172z"/></g></g><path d="m308.9535 213.4575 19.04 34.994 31.005-5.405-17.287-29.588h-32.758zm66.682 10.088 17.293 74.527 55.553 2.068-13.442-57.967zm-135.47 27.328-13.034 16.865 37.393 23.244 18.167-20.61-42.526-19.5zm73.115 13.056-32.66 37.056 65.44 40.68v-49.815l-32.78-27.92zm85.154 51.745-5.16 29.584 33.49 18.158-.093-31.258-28.236-16.485zm79.91 6.928-23.073 23.197 8.697 33.106 25.717-18.08-11.34-38.223zm-65.85 68.992-10.97 36.977 24.88 17.49 8.414-32.025-22.323-22.442zm-74.89767-14.36857v-23.56986l-35.30874-21.94942-21.62296 26.71136 25.92712 23.46955z" fill="url(#d)"/></g></svg>