<svg height="500" viewBox="0 0 500 500" width="500" xmlns="http://www.w3.org/2000/svg" xmlns:xlink="http://www.w3.org/1999/xlink"><filter id="a" color-interpolation-filters="sRGB" height="1.201017" width="1.233396" x="-.116698" y="-.100509"><feGaussianBlur stdDeviation="1.7482532"/></filter><filter id="b" color-interpolation-filters="sRGB" height="1.089401" width="1.46559" x="-.232795" y="-.044701"><feGaussianBlur stdDeviation="1.4506316"/></filter><filter id="c" color-interpolation-filters="sRGB" height="1.505714" width="1.7375" x="-.36875" y="-.252857"><feGaussianBlur stdDeviation="2.5921775"/></filter><g transform="translate(-1000 -500)"><circle cx="1250" cy="750" fill="#8f29a3" r="250"/><path d="m1250.0521 500.09326-.061 248.75004-15.9199-248.2399a249.99917 250.18666 0 0 0 -31.6776 4.06945l45.0428 231.17052c-.102.0363-.2268.0547-.3789.0547l2.377 12.94521-.25-.53361-.5352-1.34279-3.3574-10.61339c-.1814.0698-.3456.12506-.5117.12506l-.1211.0782-83.1951-220.24831a249.99917 250.18666 0 0 0 -14.7401 6.13348l96.9 214.60543-.2187.11532 2.3047 4.43886 2.3437 5.21678.055.0488.416.7486.7461 1.26658v.0314l-.7461-1.29782-.4707-.79746-5.5273-9.21c-.1841.12151-.3808.23754-.5664.39678l-123.4077-200.53639a249.99917 250.18666 0 0 0 -34.1776 25.40763l164.5483 186.40079-.3984-.58052.832 1.02616v.0508l-.3262-.32448-.094-.12903v-.006-.002l-176.1809-175.46484a249.99917 250.18666 0 0 0 -21.0273 24.05115l186.5306 143.42536-.1425.18569 10.4687 8.26398-2.0957-1.07698-9.4082-5.66242c-.1395.18156-.2273.33335-.3066.47301l-208.0031-109.74966a249.99917 250.18666 0 0 0 -7 14.40723l214.5266 96.34337c-.074.17741-.1655.3791-.2578.59419l12.1758 4.73596-.037-.0253.5254.23653-.4863-.21109.3574.18179.2129.0802-.2129-.0508v-.0295l-12.8066-4.08117c-.056.14944-.1255.33501-.1758.5082l-224.9661-68.33223a249.99917 250.18666 0 0 0 -8.7656 41.69908l246.1613 30.77687h-1.2363l-246.3644-14.82161a249.99917 250.18666 0 0 0 -.4219 14.51082 249.99917 250.18666 0 0 0 .6113 17.47203l234.4934-16.18786h-.027l.3066-.0234-.2773.0234 12.9687-.73492-7.6699 1.8549-.3028.0508-4.789.9382.07.23845-228.2004 55.91086a249.99917 250.18666 0 0 0 4.2871 15.37279l224.173-70.26921c.093.36314.1859.69573.2793.95971l11.9648-4.46623-6.7285 3.52803-218.2141 100.03556a249.99917 250.18666 0 0 0 21.0155 36.99246l204.0072-139.70972-2.9414 2.38851-191.599 150.2058a249.99917 250.18666 0 0 0 21.2792 23.80097l164.7143-167.43742c.2793.26396.5666.50585.8359.80333l7.6309-8.62753v-.0314l.7578-.86587.1855-.23653.7754-.84633.02-.0645.057-.0272-.023.15832-.1035.11531.051-.18179-.068.18179-1.3203 1.73762.6133-1.0457-.1856.20916-.7578.89715-2.5996 3.67852-4.2753 5.57643.287.1818-133.9214 192.92518a249.99917 250.18666 0 0 0 13.3768 8.68037l121.3629-200.99764c.1115.0698.2562.1641.4043.23263l6.9082-11.76855-.2793.71929-100.1481 226.51466a249.99917 250.18666 0 0 0 40.1346 13.79743l59.6931-236.78211-1.5742 9.22563.2364.0566-42.7675 230.89101a249.99917 250.18666 0 0 0 31.6386 3.76263l12.9316-234.50119c.2415.0238.455.0234.6602.0234h.031v-12.36276l.055-.87175.3809 3.35211.6328 9.85892c.1939 0 .3385-.0234.5058-.0234l27.248 233.23258a249.99917 250.18666 0 0 0 15.7831-2.3455l-42.1484-231.0161c.254-.028.4739-.0916.707-.11531l-2.0644-10.71502-.055-.13878-.3203-1.79235.018.0295.3575 1.90182 74.3923 234.18055a249.99917 250.18666 0 0 0 39.205-16.19959l-111.1503-215.75097 4.1406 6.7179.2696-.18569 120.6715 201.44522a249.99917 250.18666 0 0 0 26.2108-18.10533l-145.5071-184.32505c.254-.18717.4204-.39029.6562-.60397l-8.457-9.554 3.3672 3.03156 5.8437 5.83834.2872-.30686 174.8256 156.82795a249.99917 250.18666 0 0 0 10.2715-12.18293l-184.478-145.35845c.1296-.15783.305-.33279.4082-.48083l-9.3632-7.21437 211.5852 126.78601a249.99917 250.18666 0 0 0 18.7245-38.19257l-229.6555-89.16613 11.0274 3.36579.012-.18569 223.9289 70.91228a249.99917 250.18666 0 0 0 7.6836-30.99187l-231.1887-41.80463c0-.16199.037-.30149.037-.44955l-7.3671-.90693-4.5508-.79941 12.0312.70755c.03-.32965.029-.62841.029-.96361l235.009 1.78454a249.99917 250.18666 0 0 0 .011-2.19892 249.99917 250.18666 0 0 0 -.3809-13.81303l-234.6691 13.37131v-.33226l-11.7754.81114-2.207.14075 2.1641-.14075h.043l242.6422-45.60435a249.99917 250.18666 0 0 0 -11.2772-41.04821l-231.0032 85.65376-.2598.0684 10.5078-4.79069c-.1716-.35894-.395-.80876-.6601-1.20402l208.1651-109.51534a249.99917 250.18666 0 0 0 -7.877-13.90491l-200.7337 122.63837-.2109-.32833-5.6211 3.9033-4.707 2.86542 9.6699-7.59747-.1446-.20719 183.392-147.45376a249.99917 250.18666 0 0 0 -29.3651-30.85701l-161.2514 182.96656-2.3184 2.37091 151.2905-195.53064a249.99917 250.18666 0 0 0 -26.4154-17.96062l-119.2496 202.94829-.094-.0664-7.0644 11.68841 5.539-12.45265c-.2748-.15364-.5655-.24794-.8711-.35962l83.404-220.18189a249.99917 250.18666 0 0 0 -15.121-5.19332l-69.2811 225.07807c-.1088-.0378-.2229-.0651-.3808-.11531l-1.8809 7.53882-1.1289 3.69807 2.1055-11.46558c-.2011-.0197-.4082-.0561-.6133-.0743l40.1268-232.08917a249.99917 250.18666 0 0 0 -42.4354-3.64138zm-1.9453 235.66215 1.0117 8.77021v.043l.8711 4.45646v.46128l.029-.16807.023.62741v.1036l-.057-.1036v-.43977l-.066.30686-.2383-.49451-.5625-4.74964zm-9.3652 5.00568 7.0859 6.37391-.025-.0197zm25.7675 6.02013-11.8261 2.9006h-.057zm-12.1504.11531-1.6269 2.78332-.3496.40069.1113-.44954-.092.20719-.02.18179-.051.10553v-.0253l.051-.0802v-.16221l.02-.0197v-.10556l.012-.0234.082-.12118v-.0234l.033-.0272.061-.1505v.0197l-.061.13096-.033.0508zm-6.5292.23849 3.3242 2.54682.3633.56682-.4493-.16807.2012.13878h-.022l-.2188-.13878h.037zm5.0331.24627-.2968 1.58908.2968-.84047-.3339 1.37603-.1016.1505.1387-.68606.2617-1.56758zm-.582.38505-.086 1.71808-.057.19351-.1172-.46715zm3.1445.7447-2.2754 1.58908h-.023l-.4121.27757-.2871.11728.2129-.27557.074-.0215.8867-.71342zm-4.0429.57856.1348.14075v.0469l-.084-.1251zm3.8633.31665h.029l-.1738.0802zm-3.5254.18179.1835.3577v.0392l-.1835-.35376zm.416.0938.02.26385v.0392l.039.0958.047.11728-.047.0215-.039-.1192.039-.0197-.039-.0605v-.0352l-.057-.26192zm2.2207.0644-.07.0272-1.0156.30686.1562-.0605zm-5.6387.0665 2.3692.40655.3457.21498.029.0606-.3124.0644zm2.1641.31271h.053l.094.0314zm.7265.19155h.02v.0196zm-.164.0606h.02l.074.0802zm.2148.1818h.024l-.024.0314zm-.3359.16808h.057l.2461.0352-.8125.32836zm-.3887.0352h.2168l-.9316.47886.2637-.0527-.025.0272-.2383.0253-2.0253.39287v.0234l-5.2422.93428 5.2422-.95774zm1.7774.0234.5078.043.7519.2228-.8457-.0841zm-.2188.16418.035.0178.1113.22088.3282.16611 1.4394 1.4034-1.3496-1.00858-.2344-.2971-.1855-.26385-.018-.0333-.092-.18766h-.035zm-1.0625.0802-.25.27364h-.029l-2.7812 1.26461 2.2988-1.41316zm1.5703.0997.1485.0253.031.0314zm.2207.0253 1.9356.60398-1.9063-.57074zm-1.1796.17201.031.1251.022-.0978-.022.13092v.006l.076.23066.125 1.89594-.2324-1.35256.031-.77402-.088.50819v-.0919l-.031-.18569.031.14272v-.26385zm.7226.0919.061.0664.088.14661-.037-.0314zm-1.1406.1818-.2442.52578-3.9492 12.85138 3.9219-12.85138h.027l.084-.28732.01-.0117zm-.088.10552-.065.11339.041-.0978zm1.4648.0802.033.0234.1152.18962-.092-.0919zm-.4375.21306.023.0295.029.22669zm-1.7304.26581v.0295l.051-.0295zm2.2929 1.35257 4.8828 10.7893-4.8828-10.73457z" fill="#aa40bf"/></g><path d="m307.27023 169.33013-69.56143.85097-4.80141 2.57981c-35.86186 11.56433-69.45699 14.82819-106.5048 18.63092l-18.9069 4.99893-4.24204 10.33004-10.719799 31.07025 17.497049 29.39762 68.88522-4.49909 23.62992-6.78089c21.27892-2.55111 44.2758-3.82658 68.43177-3.82658l16.05055 3.01723 25.27834-1.64095 17.03206-1.37628 36.67081 1.02385 28.72528 11.14514 26.87794 6.3805 29.35171.99811 40.88993-22.87941-11.67402-51.81433-16.08924 4.31108c-31.44307-5.94237-43.0042-6.63699-46.90962-8.42925l-54.09105-17.54014z" fill="#6a1f7a"/><path d="m123.19215 215.26567-14.16744 31.66356c23.05703-.64135 46.11507-.22578 69.17441 0l25.00975-11.17449s25.02658 0 27.04067-1.95792c1.15092-4.89479 42.16119-1.95792 42.16119-1.95792l17.97393 2.93688 22.59305-2.93688h16.53781l35.10273.97896-1.27587-32.41411 2.42685 31.43515 26.94446 12.72648 26.60728 5.87373c21.50541-1.20885 36.79285 1.96584 57.1044 6.94432l-9.32135-36.61918c-30.39478-5.74424-46.66652-4.91501-58.7511-10.46244l-42.42184-16.29124-58.98221-4.40786-63.75159 3.07785-21.1939 3.22608-40.24187 9.98723-34.08978 8.32377z" fill="#eed9f2"/><path d="m64.197489 168.52363-12.115092 10.24426h-26.186038c-4.68072 7.02961-9.363654 14.05775-14.046079 21.08623l-1.62348 56.00881h2.439747l-4.1401098 29.92913 5.0513418 12.77244 1.062729 16.1357c-4.9570724 13.103-6.250576 25.82402-8.3887655 40.20772l.9219234 20.71213 28.5254051 3.5h86.251969c.77159-16.12641 3.03413-31.46525 3.07963-45.97617 0-7.96546-1.78412-11.86786-3.47308-14.9231 4.34506-32.09621 3.47308-64.35968 3.47308-96.65123l-11.26716-40.0733z" fill="#6a1f7a"/><path d="m33.339786 199.01161h23.600677l10.579608-8.94616 34.180299 8.94616 7.32434 26.05131v52.4962l-4.06908 46.32016s4.06908 5.14669 4.06908 9.26404-1.62762 25.73342-1.62762 25.73342h-85.450736s.813813-5.14667 1.627637-13.38137c.813812-8.2347 7.324346-27.79211 7.324346-27.79211l-1.627636-24.70409-4.069085-10.29338 6.510534-47.08712h-4.882898l.813812-28.05448z" fill="#eed9f2"/><path d="m152.69145 212.99196-29.4993 2.27371-15.08658 6.52805-15.571719 15.99733 2.75178 55.38249-5.359315 18.48039-4.901649 47.22281-7.671877 58.10033-2.439093 11.47401 8.893643 8.3108h113.65155v-19.78481c.92155-16.82919-6.76368-38.36206-4.76961-52.78286.64454-3.87465 2.56186-10.32263 4.19984-15.84983-1.64096-21.98084-1.05822-43.31263-1.05822-66.22159l-2.12771-46.76267-18.89166-15.05751z" fill="#6a1f7a"/><path d="m181.45438 416.51961c0-7.20535-5.69671-46.32016-5.69671-50.43751s4.8829-20.58675 4.8829-20.58675-.81383-12.35204-.81383-18.52806v-44.2615l-1.62762-35.77656-10.57962-8.43114-27.66975-13.36959-14.64871 5.08109-16.27633 16.71964 2.44145 49.15795-7.32434 25.73342-3.25527 36.0268-7.324354 58.67221z" fill="#eed9f2"/><path d="m405.05669 208.18511-2.67689 60.34731-5.06723 28.84807c.52697 21.97632 2.03432 44.7372 1.33843 65.22635-.67031 17.99268-1.31437 35.8148-2.05769 54.37023l-.85472 19.78481h94.88341l2.71108-19.78481c5.52678-19.87589 3.99663-41.08734 4.11727-59.42372.62079-23.88692-.11869-47.77097-.53332-71.65547l-5.0626-37.14758-24.75041-27.98605c-7.88255-1.56363-4.53582-1.10071-24.90045-4.77446l-22.35293-3.20654z" fill="#6a1f7a"/><path d="m460.5935 235.35628h-10.5797l-17.90396 4.11735-11.98549-5.12161-1.8493 37.03106-4.88304 27.79211s1.62772 48.37884 1.62772 52.49618c0 4.11736-2.44146 64.84824-2.44146 64.84824h65.10534s4.88292-28.82143 4.06906-32.93878 0-49.40819 0-49.40819l-.81386-46.32016-4.06906-29.85077z" fill="#eed9f2"/><path d="m287.57589 456.36351 3.87473-19.60163 2.17829-30.80442c-3.42269-50.28566-5.89089-100.4833-6.63639-150.86486-.61473-9.40936 3.62746-15.81819 3.54834-20.33158-.15718-7.95259-.84819-21.55462-2.78346-24.10882-7.78303-7.71589-24.16667-18.07437-35.0378-18.21235l-18.00291-.0648-24.20491 6.3147c-20.10296 6.23558-20.24165 4.81367-23.06174 26.40757 0 0-.093.0635-.24242 5.08554-.52987 21.17343-1.21803 41.70654-1.83443 62.05831-.6198 18.33143-.65653 36.58676-1.22431 55.12151-.1178 22.98761-3.94783 67.18629-.1979 89.30579.36676 2.01495.75714 16.60872 2.16391 19.87822z" fill="#6a1f7a"/><path d="m216.44849 213.74021c-12.20725 1.02933-13.02107 15.44005-13.02107 15.44005s-2.44145 73.08294-2.44145 78.22962c0 5.14669-.81381 40.14415-.81381 40.14415s-4.06909 87.72106.81381 88.75039c4.8829 1.02934 74.0573 0 74.0573 0l2.44145-32.13685-3.25526-58.67222-2.44145-36.02679-.81382-57.64288 1.62763-22.64542s11.39343 0-2.44145-8.2347-34.18029-10.29336-34.18029-10.29336-7.32435 2.05866-19.53159 3.08801z" fill="#eed9f2"/><path d="m329.5622 190.23048-12.2526 16.95936-4.50641 25.64211-.49649 20.62644c.073 21.23598-2.14364 42.25958-4.28033 63.57129l-5.95678 77.27372 2.61969 42.45848 1.95682 19.78481h84.20299 28.7807l5.00457-19.78481-1.75762-60.07848c0-.12769-.80494-33.8922-.80494-36.33537-2.52266-16.61583-4.74848-31.20204-6.07558-42.18964-2.89238-23.73382-6.20246-47.4125-9.42237-71.10348 1.42419-5.68803.76738-12.80546-1.55785-17.95241-7.34277-17.06624-26.52963-19.30981-43.59738-19.64509z" fill="#6a1f7a"/><path d="m368.63221 206.53484-28.48367-1.02933-8.13812 11.32271-3.25526 18.52806s-.81381 33.96812-.81381 39.11481-4.8829 53.52553-4.8829 53.52553l-4.8829 65.87759 2.44145 42.43021h87.89221l-1.62772-58.89961s-.81375-31.90946-.81375-37.05615c0-5.14667-4.88292-23.67475-4.88292-28.82143 0-5.14669-6.51052-52.49619-6.51052-52.49619l-4.88292-36.0268s4.88292-3.08801-1.6276-8.2347-15.46251-7.20535-15.46251-7.20535z" fill="#eed9f2"/><path d="m293.97257 117.61122c-13.17448 5.43243-68.14147-5.66798-69.56563 10.20422-25.10553 8.3143-45.44742 7.84763-71.54865 7.84763l-24.34097 13.55034-2.23172 12.75241h-7.66293l-11.12698 34.42494c-.34264 5.91554-.14868 15.72827.60988 25.40296l17.19547 8.41587 31.94954 2.61091s19.44489-5.02456 38.82231-9.90107c12.93303-2.77169 25.72947-7.11544 37.77286-8.86611 14.51035-1.45075 29.25307-1.87765 43.38554-2.61692 19.35898-1.01334 39.01768-3.38678 39.93588-3.4361l45.80798 6.02434c1.57794.62447 14.79288 4.55005 26.81623 8.9796 10.65254 4.36885 20.94917 11.26426 30.33297 11.34778 12.5956-.72351 19.3665 1.28522 24.52087 2.23887 10.55157 1.95576 19.92671 4.16262 19.92671 4.16262l24.98113-2.26188-13.18261-63.33627-65.7195-38.88927-57.24032-9.9354c-16.9791-7.14279-40.66884-6.65905-59.43806-8.71947z" fill="#6a1f7a"/><path d="m123.43505 200.57318-.2429 14.69249 31.40629-2.42069s75.68493-19.55884 79.75401-19.55884 81.38165-4.15337 81.38165-4.15337l50.19698 4.8778s47.46093 18.83441 54.78531 18.83441 46.38763 7.91927 46.38763 7.91927l-4.88292-31.63148-56.15336-33.22696-39.87699-6.92228-4.77213 40.47388-1.59356-37.93093-15.60734-8.08078-50.45667-5.53783-54.5257 4.15338-4.51866 50.31383-3.61951-39.23819-3.25526-5.53782-17.90397 4.15336s-10.57961 4.15338-21.15922 4.15338h-21.97304-10.57962l-13.83489 7.70274-3.25526 18.60194h-9.76579z" fill="#eed9f2"/><g fill="#6a1f7a"><path d="m103.15884 332.69942-15.058541-3.45352-9.368389-4.55001-10.544452-33.74225s7.732598 9.84149 10.544452 12.65335c2.811854 2.81185 25.40991 18.21361 25.40991 18.21361z" filter="url(#a)" opacity=".5"/><path d="m124.42454 304.30995 1.40592 18.27705 11.24742 6.32667 4.21778-7.7326z" filter="url(#c)" opacity=".5" transform="matrix(1.5945601 0 0 1.5945601 -75.669652 -184.20407)"/><path d="m445.13094 416.51961 6.17162-33.75599.35148-23.88688 6.48153 29.61363-3.66968 28.02924-.35148 20.24227h-10.93412z" filter="url(#b)" opacity=".5"/></g></svg>