<svg height="500.00003" viewBox="0 0 500 500.00003" width="500" xmlns="http://www.w3.org/2000/svg"><g transform="translate(-500)"><path d="m926.7767 73.223311c45.24113 45.241099 73.2233 107.741109 73.2233 176.776699 0 69.0356-27.98221 131.53559-73.2233 176.77669-45.2411 45.2411-107.74109 73.22332-176.77669 73.22332-69.03559 0-131.5356-27.98219-176.7767-73.22332-45.2411-45.2411-73.22331-107.74109-73.22331-176.77669 0-69.03559 27.9822-131.5356 73.22331-176.776699 45.2411-45.241105 107.74111-73.22330934 176.7767-73.22330934 69.0356 0 131.53559 27.98220534 176.77669 73.22330934z" fill="#3b2f4f"/><g transform="translate(500)"><path d="m230.6486 0c-128.19182 22.346591-234.17086 139.43202-223.06447 273.24395 5.6201 44.55936 16.72649 83.63245 44.55937 122.70552l50.17947 50.17947c33.45298 22.34661 72.52606 44.55938 111.46533 50.17946 39.07308 5.62012 78.01235 5.62012 111.46534-5.62008 39.07308-16.72649 72.52607-33.45297 100.35893-61.28587 33.45297-39.07306 55.79958-83.63245 66.90595-139.43201v-61.28587c-5.62008-27.83287-11.10637-50.17947-22.34657-78.01235-11.10641-22.34659-27.8329-44.55937-50.17947-61.285858-27.83289-27.832879-61.28586-44.559368-100.35895-55.799569-27.83288-5.620101-55.79957-11.10639-89.25255-5.620101-78.01235 11.106391-139.43202 61.28586-172.885 128.191818-11.10639 27.83288-16.72649 61.28586-22.34659 89.25255 0 33.45298 5.6201 66.90596 16.72649 94.73885 22.34659 44.55936 55.79957 89.25254 105.97904 111.46532 16.72649 5.62012 33.45298 11.1064 55.79957 16.72648 122.70553 22.34661 234.17085-55.79954 250.89734-178.37127 11.10641-78.01236-22.34657-139.43203-72.52604-189.6115-100.35895-89.25255-267.62385-44.559369-312.18322 78.01235-5.6201 27.83288-16.72649 55.79958-16.72649 83.63245 5.6201 78.01235 55.79957 150.53843 133.81192 172.885 61.28586 16.72649 122.70553 5.62012 172.885-33.45298 11.10639-11.10637 22.34659-22.34657 33.45299-33.45297 61.28584-83.63246 44.55935-195.09778-44.55937-256.51746-27.83288-16.726488-55.79958-22.346588-89.25256-27.832879-22.34659-5.620101-44.55937 5.620101-66.90596 11.106391-27.83288 16.726488-50.17947 22.346588-72.52606 50.179468-27.83288 33.45298-33.45298 66.90596-39.07308 105.97904 0 55.79958 27.83288 117.08544 83.63245 144.91833 78.01235 44.55934 183.99139 11.10637 223.06447-72.52607 22.3466-55.79958 11.1064-128.19183-39.07308-172.88501-33.45298-27.83288-66.90596-39.07308-111.46533-39.07308-66.90596 5.6201-111.46533 55.79957-122.70553 122.70553-11.10639 72.52606 33.45298 139.43202 105.97904 150.53843 100.35894 16.72649 183.99138-89.25257 139.43202-178.37131-11.10638-16.72649-27.83288-39.07308-50.17947-50.17947-27.83288-11.10639-55.79957-16.72649-83.63245-11.10639-33.45298 5.6201-55.79957 27.83288-72.52606 50.17947-16.72649 27.83288-16.72649 55.79957-11.10639 83.63245 11.10639 33.45298 39.07308 61.28586 72.52606 72.52607 44.55937 16.72649 89.25255-5.62011 111.46533-39.07309 33.45298-55.79957 5.6201-117.08543-50.17947-139.43202-50.17947-16.72649-122.70553 27.83288-105.97904 89.25255 5.6201 16.72649 11.10639 39.07309 27.83288 50.17947 22.34659 16.7265 50.17947 16.7265 72.52606 11.1064 22.34659-11.1064 39.07308-33.45299 39.07308-61.28587-5.6201-16.72649-5.6201-39.07308-22.34659-50.17947-13.91644-8.36324-29.2379-11.13984-43.17107-8.34651-13.93317 2.79332-26.47803 11.15656-34.84128 25.073-5.6201 16.72649-11.10639 33.45298 9.50065 44.827 41.74932-49.10898 35.32635.40143 29.84006-16.45887v5.6201c16.72649-5.6201 22.34659-22.34659 27.83288-33.45298 5.6201 5.6201 16.72649 11.10639 16.72649 22.34659 11.10639 39.07308-27.83288 72.52606-66.90596 61.28586-33.45298-11.10639-44.55937-50.17947-39.07309-83.63245 5.62011-22.34659 22.3466-39.07308 50.17948-44.55937 33.45298-5.6201 66.90596 11.10639 83.63245 39.07308 16.72649 27.83288 16.72649 50.17947 0 78.01235-33.45298 55.79958-105.97905 55.79958-150.53841 11.10639-33.45298-44.55937-22.3466-117.08543 27.83288-144.91831 16.72648-11.10639 39.07308-16.72649 61.28586-16.72649 11.10638 0 27.83288 5.6201 39.07308 11.10639 27.83288 11.10639 39.07308 39.07308 55.79957 61.28586 5.6201 16.72649 5.6201 27.83288 5.6201 44.55937-5.6201 72.52606-72.52606 122.70554-144.91831 105.97904-83.63246-22.34659-122.70554-122.70553-72.52606-195.09778 11.10638-16.72649 22.34659-27.83288 39.07308-39.07308 78.01235-44.559372 167.2649-5.6201 200.71788 66.90596 39.07309 94.73884-39.07308 206.33797-139.43202 200.71788-27.83288-5.62012-55.79958-5.62012-78.01235-22.3466-22.34659-11.10638-27.83288-27.83287-39.07309-39.07307-66.90596-78.01235-33.45298-195.09778 55.79958-239.79097 39.07308-16.726484 83.63245-16.726484 128.19182-5.6201 94.73883 33.45298 139.43201 144.91832 94.73883 234.17087-11.10637 27.83288-33.45297 44.55935-55.79956 66.90596-22.34659 16.72649-50.17947 27.83289-78.01235 33.45298-44.55937 5.62012-89.25256-5.62009-128.19182-27.83286-94.73884-66.90598-117.08544-211.82429-22.3466-289.97045 16.7265-11.1064 27.83288-33.452984 50.17948-39.073085 33.45298-11.106392 66.90596-22.346593 105.97904-16.726492 27.83288 5.6201 55.79957 16.726492 78.01235 27.832879 16.72649 16.726488 39.07309 22.346598 50.17946 44.559368 11.10641 16.72649 27.8329 33.45298 33.45298 55.79957 22.34661 66.90596 16.72649 139.43203-27.83286 195.09781-16.72649 22.34657-33.45298 44.55934-61.28587 55.79954-22.34659 5.62012-39.07308 22.34661-61.28586 22.34661-39.07308 0-83.63245 5.62008-122.70553-11.10641-117.08543-44.55934-167.26491-195.09777-105.97905-306.69691 16.7265-33.45298 44.55937-61.285864 78.01236-83.632457 44.55936-22.34659 89.25255-33.452979 139.43202-27.832879 61.28586 5.6201 111.46532 39.07308 156.1585 83.632456 22.34661 22.34659 27.8329 50.17947 39.0731 78.01234 11.10637 16.7265 5.62008 39.07309 11.10637 61.28586 11.10645 172.88502-195.09777 301.07685-351.25629 211.82429-27.83287-16.72649-50.17946-27.8329-66.90596-50.17947-61.28586-72.52608-78.01235-167.26492-50.17947-256.51747 16.72649-33.45298 39.07309-61.28586 61.28587-89.252546 39.07308-39.073083 94.73884-55.799574 144.9183-72.526064" fill="#221b35" opacity=".9"/><path d="m231.45148 15.388371c-120.56454 21.008472-220.12061 131.001869-209.68329 256.785079 5.21867 41.88313 15.78981 78.68141 41.88314 115.34586 15.7898 15.65602 31.4458 31.44582 47.23561 47.1018 31.4458 21.0085 68.11026 41.88314 104.77473 47.23563 36.66447 5.21866 73.32893 5.21866 104.77473-5.21866 36.66447-15.65601 68.11026-31.44582 94.33742-57.67295 31.44579-36.66448 52.45425-78.68141 62.89161-131.00187v-57.67294c-5.2187-26.22714-10.43736-47.23561-21.00851-73.32894-10.43731-21.00847-26.22712-41.88313-47.10179-57.672935-26.22713-26.227136-57.67292-41.88313-94.33739-52.454272-26.22714-5.218666-52.45427-10.43733-83.90008-5.218666-73.32893 10.437332-131.00187 57.672938-162.44767 120.564543-10.43733 26.22713-15.78981 57.67294-21.00847 83.90008 0 31.44579 5.21866 62.8916 15.78981 89.11874 21.00847 41.88313 52.45427 83.90006 99.55607 104.77473 15.7898 5.21866 31.4458 10.43732 52.45427 15.65601 115.34588 21.00847 220.12062-52.45428 235.91043-167.66635 10.43732-73.32894-21.00847-131.00188-68.11026-178.23748-94.33742-83.900079-251.56643-41.883137-293.44956 73.32893-5.21867 26.22713-15.78981 52.45427-15.78981 78.68141 5.21866 73.32893 52.45427 141.573 125.78321 162.44767 57.67293 15.78981 115.34587 5.21866 162.44767-31.44578 10.43733-10.43736 21.00849-21.00849 31.4458-31.44582 57.67295-78.68141 41.88314-183.45615-41.88313-241.12909-26.22714-15.7898-52.45428-21.008465-83.90008-26.227131-21.00847-5.218666-41.88313 5.218666-62.8916 10.437331-26.22714 15.7898-47.23561 21.00847-68.11027 47.1018-26.22713 31.4458-31.4458 62.8916-36.66447 99.55606 0 52.45428 26.22714 110.12722 78.68142 136.22052 73.32893 41.88314 173.01881 10.43736 209.68327-68.11025 21.00847-52.45427 10.43736-120.56454-36.66446-162.44767-31.4458-26.22714-62.8916-36.66447-104.77473-36.66447-62.89161 5.21867-104.77474 52.45428-115.34588 115.34588-10.43733 68.11027 31.4458 131.00187 99.55607 141.57302 94.3374 15.65599 173.01881-83.90008 131.00187-167.66635-10.43733-15.7898-26.22714-36.66446-47.1018-47.2356-26.22713-10.43733-52.45427-15.656-78.68141-10.43733-31.4458 5.21866-52.45427 26.22713-68.11027 47.23561-15.7898 26.22713-15.7898 52.45427-10.43732 78.6814 10.43732 31.44581 36.66446 57.67295 68.11026 68.11027 41.88314 15.78981 83.90008-5.21866 104.77474-36.66446 31.4458-52.45428 5.21866-110.12721-47.1018-131.00187-47.23561-15.78981-115.34588 26.22713-99.55607 83.90007 5.21867 15.65599 10.43733 36.66447 26.22714 47.23561 21.00847 15.78981 47.10179 15.78981 68.11027 10.43733 21.00847-10.43733 36.66446-31.4458 36.66446-57.67294-5.21866-15.7898-5.21866-36.66447-21.00847-47.23561-13.11356-7.8949-27.5318-10.50423-40.62864-7.86145-13.09684 2.64279-24.87229 10.53769-32.70029 23.65126-5.21867 15.656-10.43733 31.4458 8.9654 42.15076 39.20689-46.70036 33.05154-.26763 27.96669-16.05744v5.21867c15.78981-5.21867 21.00847-21.00847 26.22714-31.4458 5.21866 5.21866 15.65599 10.43733 15.65599 21.00847 10.43733 36.66447-26.22714 68.11027-62.8916 57.67294-31.4458-10.43733-41.88313-47.23561-36.66447-78.68141 5.21867-21.00848 21.00847-36.66447 47.1018-41.88314 31.4458-5.21866 62.8916 10.43734 78.68141 36.66447 15.65599 26.22714 15.65599 47.23561 0 73.32893-31.4458 52.45428-99.55607 52.45428-141.57302 10.43734-31.4458-41.88313-21.00847-110.12722 26.22714-136.22054 15.78981-10.43733 36.66447-15.656 57.67294-15.656 10.43733 0 26.22714 5.21867 36.66447 10.43733 26.22713 10.43733 36.66446 36.66447 52.45427 57.67294 5.21866 15.78981 5.21866 26.22714 5.21866 41.88314-5.21866 68.11026-68.11026 115.34586-136.22053 99.55606-78.68141-21.00847-115.34588-115.34587-68.11027-183.45614 10.43733-15.656 21.00847-26.22714 36.66447-36.66447 73.32893-41.88313 157.22901-5.21866 188.67481 62.8916 36.66448 89.11874-36.66447 193.89349-131.00188 188.67483-26.22713-5.21866-52.45427-5.21866-73.32893-21.00848-21.00847-10.43734-26.22713-26.22714-36.66447-36.66447-62.8916-73.32893-31.4458-183.45615 52.45428-225.33928 36.66446-15.789805 78.68141-15.789805 120.56454-5.21866 89.11872 31.4458 131.00186 136.22053 89.11872 220.12061-10.43731 26.22714-31.44578 41.88313-52.45425 62.89162-21.00847 15.78977-47.23561 26.22712-73.32894 31.44578-41.88313 5.21866-83.90007-5.21866-120.56454-26.22712-89.11874-62.89162-110.12721-199.11215-21.00847-272.5749 15.656-10.43733 26.22714-31.445801 47.1018-36.664467 31.4458-10.437328 62.8916-21.00847 99.55607-15.655994 26.22713 5.218666 52.45427 15.655994 73.32893 26.227136 15.65599 15.789805 36.66446 21.008475 47.10181 41.883135 10.43732 15.7898 26.22713 31.4458 31.44578 52.45427 21.00847 62.8916 15.78981 131.00187-26.22712 183.45615-15.78981 21.00846-31.44582 41.88313-57.67295 52.45428-21.00847 5.21866-36.66446 21.00847-57.67294 21.00847-36.66446 0-78.68141 5.21866-115.34587-10.43735-110.12721-41.8831-157.22901-183.45614-99.55607-288.23087 15.7898-31.4458 41.88313-57.672937 73.32893-78.681407 41.88313-21.008474 83.90008-31.445802 131.00187-26.22714 57.67294 5.218666 104.77473 36.664468 146.79166 78.681417 21.00851 21.00847 26.22717 47.10179 36.66448 73.32893 10.43732 15.78981 5.21866 36.66446 10.43732 57.67293 10.43735 162.44767-183.45613 283.01222-330.24781 199.11215-26.22713-15.65601-47.23561-26.22713-62.8916-47.23563-57.67294-68.11025-73.32893-157.22899-47.23561-241.12907 15.78981-31.4458 36.66447-57.67293 57.67294-83.900069 36.66447-36.664468 89.11874-52.454275 136.22054-68.11027" opacity=".9"/></g></g><path d="m461.95799 342.28808c15.65713-48.37374 25.37797-99.722 11.34083-152.11135-27.83651-103.880403-122.43409-172.411098-225.45312-171.383761-19.07916.190422-38.4396 2.765983-57.67578 7.919922-123.118628 32.987078-196.45583 160.008299-163.466795 283.124999 16.120824 60.16347 54.682258 108.44239 104.352205 138.21494 49.66994 29.77254 113.95832 35.95514 171.00326 27.17666 41.50404-6.38694 81.73538-27.91605 112.71523-56.26436 22.14018-20.25951 37.94267-48.12482 47.18417-76.67705zm-194.53221 86.87598c-37.07096 2.43545-73.04147-7.70931-102.96094-27.32226 60.1397-20.81105 121.21303-38.75395 182.01742-57.49674-78.33405 5.89757-155.24992 5.67316-233.5682 4.30533-1.53142-2.52587-2.97257-5.11948-4.37695-7.74219 79.80828-6.37718 158.19851-.46618 237.94515 3.43686-84.88955-29.44574-170.62847-50.75814-257.642416-72.31576-.236888-3.70089-.351095-7.38998-.341797-11.06446 88.455593 21.78691 172.434713 52.71652 257.984213 83.38022-77.57315-57.2469-159.41646-104.86206-242.1932-153.82553 2.49673-5.3565 5.30562-10.5514 8.34571-15.61328 79.88147 53.84452 156.8224 111.6536 233.84749 169.43881-58.86446-75.7964-119.40745-150.24349-179.80648-224.81381 7.44399-4.715 15.27319-8.94581 23.56641-12.49609 45.76391 84.6403 100.07094 159.75495 156.24007 237.3099-35.53276-81.93523-56.81696-164.87022-79.80062-250.692716 9.55113.573448 18.95364 1.982332 28.14453 4.140625 14.20151 82.832441 33.01266 164.648991 51.65609 246.552091 2.6177-70.98492 10.51502-140.37912 19.16032-210.71811 6.48286 5.51906 12.48614 11.60367 18.0957 18.0918-9.81697 64.71124-23.84371 128.59939-37.25602 192.62631 24.45444-42.0379 49.07444-83.96506 72.44156-126.52182 7.16703 26.73612 7.48981 53.45348 2.11133 78.61035l-33.39762 87.17766z"/><path d="m445.57878 334.81694c18.52017-42.63571 23.2992-91.59301 10.33379-139.98151-25.71212-95.951698-112.94461-158.990401-207.88742-158.043603-17.5824.175484-35.4276 2.547002-53.1972 7.308001-113.7222 30.4695-181.208703 147.359702-150.7374 261.080102 29.780999 111.14371 142.1028 178.10821 253.341 152.6436l76.41039-29.11147-104.53899 18.39878c-53.3187 3.7062-104.7276-15.91559-141.9498-51.768l80.3034-27.03422-104.7114-1.8297c-8.866799-12.969-16.191002-27.24299-21.648602-42.624l124.257602-4.36498-133.370999-33.04441c-2.2608-16.5222-2.238301-32.9508-.161991-48.9294l148.19399 42.489-138.573002-81.9675c6.310802-17.3655 15.160501-33.7086 26.239502-48.4587l138.9555 97.5204-106.2594-131.1903c16.7193-13.3416 35.9838-23.971499 57.3093-31.041l85.941 142.389-40.5603-151.456502c3.8808-.282595 7.749-.442798 11.6055-.480597 19.044-.190791 37.728 2.573998 55.49039 7.953298l26.43481 137.480401 14.67451-119.385c19.62538 11.628 37.1322 26.847 51.44761 45.0378l-15.87061 92.0124 34.52402-63.135c6.17397 11.8512 11.16718 24.5502 14.76899 37.9935 7.89298 29.457 8.2557 59.1588 2.26798 87.0606l-21.95796 89.70983z" fill="#775fa0" stroke-width="36"/><path d="m443.55174 337.12879c-3.35588-68.78678-53.92659-116.08686-119.59115-117.10636-68.17724 3.17829-119.53802 56.21696-119.52599 122.80968.22478 8.88227 1.04236 15.89808 3.10647 25.64655 13.92658 54.6136 60.40325 92.83514 119.95313 93.73046 68.18556-3.30948 119.41342-56.29355 116.05754-125.08033z"/><path d="m222.4307 342.58298c.19179 7.5872.88937 13.56377 2.64652 21.86229 11.84959 46.46844 51.26961 79.02449 99.58979 79.91797 58.11684 0 104.24223-46.1176 103.98895-108.51954-5.46755-56.78446-48.34024-96.9746-101.99117-97.96873-58.11659.00002-104.24394 46.11764-104.23409 104.70801z" fill="#775fa0" stroke-width="36"/><path d="m278.70227 357.04985c16.09014-2.59672 32.13592-10.96487 45.64358-24.47366 13.50734-13.50728 21.87675-29.55408 24.47266-45.64553 2.54566-15.78748-1.0231-32.39873-12.26172-43.63577-14.21446-13.91367-35.06036-15.12848-52.80717-11.87741-14.33189 2.62549-25.42761 13.03783-36.47618 24.08641-13.50489 13.50489-21.87575 29.5497-24.47071 45.64062-2.54825 15.78627 1.0201 32.40099 12.25982 43.64067 11.24015 11.24016 27.85272 14.81022 43.63972 12.26467z"/><path d="m295.78321 248.79906c-11.69729 1.88819-24.80037 8.4527-35.78126 19.43359-10.97998 10.97999-17.54418 24.08306-19.42968 35.78125-1.8882 11.69729.67395 21.49997 7.21875 28.04297 6.54299 6.54477 16.34763 9.10815 28.04492 7.22266 11.69819-1.88731 24.80037-8.44986 35.78125-19.43165 10.98001-10.97996 17.54434-24.08501 19.43164-35.7832 1.8864-11.69818-.67589-21.49997-7.2207-28.04297-9.20491-7.03002-17.90609-8.82685-28.04492-7.22265z" fill="#775fa0" stroke-width="36"/><path d="m300.39849 270.46874c6.7464 6.74729 4.64458 19.79278-4.69922 29.13477-9.34199 9.34378-22.38852 11.44652-29.13672 4.69922-6.74729-6.74639-4.64277-19.79097 4.69922-29.13477 8.1667-7.06058 20.91757-12.63682 29.13672-4.69922z"/></svg>