<svg height="500.0004" viewBox="0 0 500 500.0004" width="500" xmlns="http://www.w3.org/2000/svg" xmlns:xlink="http://www.w3.org/1999/xlink"><filter id="a" color-interpolation-filters="sRGB" height="1.054189" width="1.053098" x="-.026549" y="-.027095"><feGaussianBlur stdDeviation="5.1797866"/></filter><g transform="translate(-500 -500)"><circle cx="750" cy="750" fill="#ffe24c" r="250"/><path d="m997.5 750.00626-192.11759-2.57463 191.05384-20.25451-191.52528 15.15765 188.38262-37.80948-189.31341 32.77708 184.06344-55.02602-185.4736 50.11046 178.21304-71.78323-180.06246 67.0087 170.83566-87.93204-173.11612 83.34687 161.9917-103.30724-164.69124 98.94368 151.76976-117.81619-154.844 113.73871 140.23833-131.32995-143.69522 127.53448 127.53436-143.69135-131.32992 140.23837 113.73871-154.85608-117.81216 151.77782 98.94772-164.67512-103.30323 161.97157 83.33473-173.09201-87.92793 170.8236 67.00062-180.07452-71.76311 178.22112 50.11053-185.48566-55.03816 184.08351 32.769-189.32139-37.8175 188.37455 15.19392-191.5213-20.29074 191.04988-2.56657-192.11359-2.54242 192.11359-20.28668-191.04988 15.17373 191.5213-37.8184-188.37455 32.78593 189.32139-55.03766-184.08351 50.11004 185.48566-71.78519-178.22112 67.02279 180.07452-87.92882-170.8236 83.33552 173.09201-103.31926-161.97157 98.969 164.67512-117.81612-151.77782 113.72099 154.85608-131.31378-140.23837 127.53148 143.69135-143.69838-127.53448 140.25645 131.32995-154.86212-113.73871 151.7649 117.81619-164.67875-98.94368 161.99199 103.30724-173.11612-83.34687 170.8212 87.93204-180.05513-67.0087 178.20611 71.78323-185.48231-50.11046 184.08136 55.02602-189.30678-32.77708 188.37816 37.80948-191.54467-15.15765 191.0566 20.25451-192.1034 2.57463 192.1034 2.5585-191.0566 20.26256 191.54467-15.16166-188.37816 37.82157 189.30678-32.7932-184.08136 55.03407 185.48231-50.10241-178.20611 71.78322 180.05513-67.00868-170.8212 87.92399 173.11612-83.33479-161.99199 103.29512 164.67875-98.95976-151.7649 117.8202 154.86212-113.73062-140.25645 131.33393 143.69838-127.54251-127.53148 143.6873 131.31378-140.24641-113.72099 154.85607 117.81612-151.7496-98.969 164.65899 103.31926-161.95947-83.33552 173.10003 87.92882-170.83161-67.02279 180.07852 71.78519-178.22513-50.11004 185.47757 55.03766-184.07945-32.78593 189.30123 37.8184-188.3584-15.17373 191.54142 20.28668-191.06598 2.54242 192.10953 2.56657-192.10953 20.29074 191.06598-15.19392-191.54142 37.8175 188.3584-32.769-189.30123 55.03816 184.07945-50.11053-185.47757 71.76311 178.22513-67.00062-180.07852 87.92793 170.83161-83.33473-173.10003 103.30323 161.95947-98.94772-164.65899 117.81216 151.7496-113.73871-154.85607 131.32992 140.24641-127.53436-143.6873 143.69522 127.54251-140.23833-131.33393 154.844 113.73062-151.76976-117.8202 164.69124 98.95976-161.9917-103.29512 173.11612 83.33479-170.83566-87.92399 180.06246 67.00868-178.21304-71.78322 185.4736 50.10241-184.06344-55.03407 189.31341 32.7932-188.38262-37.82157 191.52528 15.16166-191.05384-20.26256z" fill="#fffbb3"/></g><g id="b"><circle cx="-100" cy="50" fill="#f2c80d" r="50"/><circle cx="-100" cy="50" fill="#fffdcc" r="32"/></g><use transform="translate(221.75203 13.7632)" xlink:href="#b"/><use transform="translate(365.75203 61.7632)" xlink:href="#b"/><use transform="translate(478.71203 147.3312)" xlink:href="#b"/><use transform="translate(259.82003 215.6942)" xlink:href="#b"/><use transform="translate(508.92703 267.5852)" xlink:href="#b"/><use transform="translate(179.71103 339.8312)" xlink:href="#b"/><use transform="translate(404.75603 400.0004)" xlink:href="#b"/><path d="m34.988281 11.205078c-24.377559-.749351-19.738226 15.32376-12.083044 31.830824 14.894177 39.056909 31.10703 82.320638 67.527147 106.227468 31.066616 18.01536 66.927506-1.97463 89.495366-24.53286 25.50474-21.88911 46.13496-53.298554 79.92819-62.728415 29.66832-2.833397 55.99494 21.838553 66.50121 47.922635 10.10811 24.09951-11.50663 47.82669-34.67182 51.94743-58.57538 15.34484-124.0029-1.92436-178.89199 28.24348-41.705867 25.38809-47.301087 85.58244-26.760138 126.18104 20.640508 38.5333 71.286488 45.55791 109.631298 33.07029 68.68736-19.39426 125.44756-69.50553 196.36346-82.1252 26.90617-4.73648 61.53419 5.49085 68.36494 35.26861 11.00741 30.31432-12.7149 61.22869-41.59722 69.28869-67.08459 20.94113-143.29724 2.27102-206.24722 38.68386-10.02735 4.55998-25.35456 24.1089-17.55183 2.38807 11.89117-17.78129-27.87376-24.02292-21.89227-2.67064-.69103 18.19677-7.24348 59.79545-7.24348 59.79545s58.60096-4.725 68.88417-19.66386c1.58045-18.42136-10.23551-16.58855-23.89153-11.96672 41.87378-33.05089 98.58228-29.44837 148.82221-34.06418 41.51479-2.82838 90.15153-10.15843 114.51791-48.28945 25.37366-37.89076 3.9888-98.54935-42.06247-107.92882-51.64308-13.30549-101.5057 14.55338-146.29844 36.77162-42.13946 20.32507-84.40164 48.48046-132.87765 48.21586-27.14521-.394-51.84763-21.20225-54.806217-48.60418-6.124209-31.0682 4.284767-70.82764 37.737667-81.31991 57.7601-20.44981 122.82115-1.49317 179.3145-26.88602 30.26211-13.22024 45.51466-52.39357 28.68817-81.651171-17.30377-34.685987-58.97623-66.522349-99.16652-50.997318-45.78407 18.058744-68.96298 67.495409-113.08767 87.979919-25.72858 11.28781-47.435123-12.74621-59.011561-32.758027-17.139-26.962676-27.017422-58.308791-37.635168-87.628475z" fill="#fffdcc" filter="url(#a)"/><path d="m34.433031 13.397196-17.363 4.73s7.978 29.369 22.262 60.55c7.142 15.59 15.853 31.710004 26.293 45.164004s22.688998 24.61 37.821999 28.62c18.588 4.928 36.192-.763 51.455-10.515 15.263-9.751 29.06-23.55 42.606-37.013 13.545-13.464004 26.836-26.600004 39.814-35.125004 12.978-8.526 24.843-12.391 37.727-9.5 13.93 3.126 30.643 14.555 41.847 28.783 11.205 14.228004 16.5 30.413004 12.705 42.790004-5.282 17.23-17.227 25.816-35.802 31.466s-43.111 7.098-68.739 8.144c-25.627 1.046-52.35 1.745-76.285 7.045s-45.775 15.637-58.642001 36.43c-11.074 17.893-15.213998 41.44-12.960998 63.974 2.251998 22.535 11.031998 44.575 28.708999 57.594 25.637 18.882 55.878 19.622 85.879 11.82 30-7.801 60.776-23.747 91.306-39.554 30.53-15.808 60.81-31.487 88.477-39.248s51.799-7.838 73.215 5.992c8.277 5.345 15.214 16.533 18.28 29.088 3.068 12.555 2.147 26.07-2.466 35.015-10.482 20.328-27.518 30.639-50.3 36.92-22.783 6.282-50.832 7.784-79.932 9.621-29.101 1.838-59.292 4.037-86.92 12.817-20.012 6.36-38.767 16.431-54.059 32.22l5.73-29.232-17.662-3.463-13.695 69.858 69.75-14.227-3.596-17.635-25.767 5.256c12.508-12.301 27.62-20.181 44.75-25.625 24.802-7.882 53.658-10.178 82.601-12.006 28.944-1.827 57.938-3.163 83.582-10.234 25.644-7.07 48.42-20.626 61.514-46.021 7.32-14.198 7.869-31.515 3.955-47.536-3.913-16.02-12.406-31.155-26.002-39.935-26.738-17.267-57.447-16.729-87.84-8.203-30.392 8.525-61.392 24.805-91.89 40.595-30.499 15.791-60.501 31.083-87.56 38.12-27.06 7.036-50.161 6.216-70.679-8.895-11.955-8.805-19.575001-25.912-21.472001-44.89-1.897-18.98 2.064-39.313 10.357001-52.714 9.503-15.356 25.784-23.581 47.229-28.33 21.444-4.748 47.357-5.583 73.127-6.634 25.77-1.052 51.393-2.263 73.242-8.909 21.85-6.645 40.595-19.994 47.773-43.408 6.28-20.482-2.25-42.029004-15.773-59.200004-13.523-17.173-32.442-30.81-52.047-35.21-18.75-4.208-36.277 1.985-51.549 12.018s-29.091 23.958-42.619 37.404c-13.528 13.446004-26.768 26.408004-39.607 34.611004-12.84 8.204-24.406 11.663-37.157 8.283-9.184001-2.434-19.092001-10.501-28.213001-22.255-9.119998-11.754-17.369998-26.830004-24.147998-41.627004-13.558-29.597-21.262-57.784-21.262-57.784z" fill="#f2c80d"/></svg>