<svg height="500" viewBox="0 0 500 500" width="500" xmlns="http://www.w3.org/2000/svg" xmlns:xlink="http://www.w3.org/1999/xlink"><radialGradient id="a" cx="1362.7291" cy="216.11429" gradientTransform="matrix(1.0000001 -.0000059 .0000001 1.0000003 -112.72927 33.893757)" gradientUnits="userSpaceOnUse" r="250"><stop offset="0" stop-color="#ff851a"/><stop offset=".42441937" stop-color="#f87000"/><stop offset=".86367416" stop-color="#f26900"/><stop offset="1" stop-color="#e55f00"/></radialGradient><g transform="translate(-1000)"><path d="m1500 250a250 250 0 0 1 -250 250 250 250 0 0 1 -250-250 250 250 0 0 1 250-250 250 250 0 0 1 250 250z" fill="url(#a)"/><path d="m1309.2298 33.82789c128.5196 30.706851 207.8974 167.48127 169.5927 291.56949-31.3771 95.69524-112.8693 162.03793-212.5543 174.60263 153.1796-8.09118 266.0956-163.0043 218.7012-309.92978-36.4562-114.666588-154.6038-191.5214848-270.6514-169.822657-18.8526 4.215647-38.4387 10.498641-55.8829 18.694487-112.5353 47.459213-168.47522 196.206-99.9632 307.85319 57.6978 93.63045 168.5136 141.8489 267.9993 100.77239-134.92 68.97589-303.283-51.46877-311.488-201.30723-4.4167-117.68321 76.8182-219.674136 190.654-246.26040176-89.0147 9.18391126-152.6601 79.39239576-187.7408 157.21169176-38.45522 102.70317 5.2337 231.75078 109.038 294.08388 114.5107 66.1048 260.3537 29.37245 323.6836-83.60152 42.2104-77.69758 34.3514-177.62383-23.1776-249.88923-57.5404-72.257811-157.5429-102.460489-246.4118-71.877168-81.7429 30.682061-131.1298 101.133078-134.0478 190.176958.6692 92.68536 61.7912 168.55972 147.5399 198.52472 128.5549 37.82014 266.7725-70.33038 233.6823-209.88949-14.7104-64.39775-57.8855-122.14991-125.7378-141.121386-71.391-15.467036-138.9716 1.205-181.2869 64.641366-18.8995 29.2286-28.9384 85.21395-26.105 97.65297m0 0c13.5324-50.18833 30.6277-97.66354 72.2125-128.94941 53.182-38.308183 124.4576-37.093813 181.7444-.48035 50.1457 36.48017 75.4845 90.37713 72.3557 150.91678-6.6674 64.04407-38.4038 109.83277-91.6401 141.00844-63.9019 34.56125-135.3795 4.83213-189.1258-35.28385-78.8706-65.48566-79.7477-186.67235-8.9744-256.76104 63.7369-55.941605 167.0207-64.891564 238.7167-6.65053 78.8163 58.35315 90.3045 169.04089 40.972 246.62443-35.2274 56.41892-88.4571 87.60135-152.5581 93.63158-81.9488 2.18264-160.666-41.91503-196.8695-120.9383-36.2055-79.02511-22.5771-164.33167 26.8727-227.66064 49.4316-63.30896 138.3491-86.746364 220.4504-67.54202" fill="#c50"/></g><g stroke-linecap="round" stroke-linejoin="round"><path d="m336.09961 15.222656c-4.43206.196309-8.95032.917194-13.65039 2.238282-9.80639 3.819555-16.72405 11.069989-23.07227 18.453124-18.47613 8.964253-35.18472 17.586507-48.01562 31.779297-1.97774-9.73393-5.14046-18.696419-11.37305-25.683593-11.17866-12.532076-27.06872-29.225686-43.44531-25.507813-13.9807 3.173948-28.46711 15.140189-24.05078 35.65625 1.30533 5.931546 3.60699 11.358508 6.22656 16.582031-23.64804-7.989219-53.11536-2.722735-68.38672 14.371094-.72926-12.386839-2.90095-27.819814-9.08203-36.083984-8.280458-9.943984-19.038429-15.834177-29.626953-21.347656-10.317355-5.04102-21.167735-9.701626-31.294922-8.121094-13.254482 4.366045-21.094479 13.261143-17.736328 27.486328 2.37619 8.930691 8.068997 17.179606 12.78125 23.941406 11.423166 14.755123 22.309324 32.406852 32.595703 46.201172-12.987476 7.67743-22.543561 20.39932-28.433594 33.03906-15.23824 15.2839-21.305033 33.6811-17.710937 55.46094 1.739052 9.1371 5.477795 17.43003 12.351562 22.61719-7.255075 11.20888-9.370531 25.17111-8.203125 37.30078 1.473672 15.31284 7.966602 31.19081 19.882813 44.18555-4.704619 1.85442-9.148772 4.60186-12.658203 8.41992-12.244011 13.32038-11.289495 31.9875-6.839844 44.3457 3.841681 10.66966 9.453106 18.9516 13.892578 25.29297 1.944729 13.18317 6.832341 25.16287 14.818359 33.58594 15.145609 10.25888 35.399971 17.33533 51.222661 16.21679 2.80717 6.90438 6.5811 12.94747 11.92187 17.60743 7.77003 6.77954 17.66568 11.46886 27.73047 13.71289 17.04732 3.80083 36.54273 3.5186 52.38672-1.07422 4.62172 1.34677 19.89983 4.04904 29.50195 1.83984 12.03827-2.76968 22.84589-10.24016 32.25977-18.23828 6.43177-5.46449 12.61553-12.05033 15.85742-19.73828 9.78067 8.20959 22.91469 11.98872 34.35351 10.56055 6.85976-.77774 13.1775-2.74529 19.28125-5.03711-6.58834 9.82537-8.66543 19.44384-1.70312 28.50195-1.57271 8.21383 2.63313 18.72655 9.81445 22.6875 18.87483 5.74085 48.08643-4.02486 59.49414-15.05273 8.10995-8.77883 11.19039-19.61477 13.35352-30.61719 1.7442-5.2098 3.71587-11.46712 4.95898-18.63867 4.95804 12.38637 14.35139 22.45678 25.99414 23.26562 14.22474.71556 21.1894-8.56669 25.58789-15.25586 4.39872-6.68949 9.12167-20.3246 10.16407-31.21875 1.02262-10.68731-1.07969-25.95096-3.98243-31.96094-8.21117-23.264-15.02239-44.30735-29.28124-62.27148 12.94985-15.56017 20.27164-35.69745 23.72265-54.75 8.85544-11.98886 17.35492-24.05088 20.16602-37.5332 1.11928-5.55495 2.02639-13.31582-1.75-18.58789-3.77639-5.27208-7.68403-8.49135-12.47266-9.89649-1.37754-4.78278-4.81128-8.37189-8.80859-10.66601 9.64803-10.09761 16.81588-28.02495 16.76562-40.54688-.0503-12.52193-5.61718-26.70764-14.60351-36.054687-4.78695-4.979096-14.57276-7.705617-18.88477-8.527344 3.41054-5.071882 7.38555-10.336685 8.35352-16.392578 1.73626-10.862591 2.06691-24.240227-5.07227-32.609375-5.39822-6.32825-15.42716-7.797557-23.74414-7.673828-19.26654 2.001435-35.60958 12.370032-45.625 28.800781.006-1.100295-.026-2.197809-.21484-3.332031 1.18922-1.388624 2.43041-3.222999 3.73828-5.955078 2.94384-10.689782.74799-20.406873-9.25196-25.46875-14.37961-6.769842-26.90696-10.897519-40.20312-10.308594zm-13.55078 67.714844c10.86893 1.413682 20.41555 2.276983 30.14844 1.316406-10.45612 11.09313-19.05807 20.482464-23.48633 33.404294-12.06883-8.4769-24.23675-12.79122-35.48242-20.56445 8.06203-7.271845 19.66134-10.837365 28.82031-14.15625zm-78.83594 33.62109c5.21734 10.35713 12.41502 17.95116 21.0918 24.06446-13.15188-5.07309-27.10806-5.99525-39.16211-10.27539 6.48041-4.61194 12.83224-8.45741 18.07031-13.78907zm184.42773 71.19922c-3.45645 3.72113-6.97155 7.70359-9.37695 11.27149-.26433-3.62125-.469-6.57121-.54883-8.69727 2.21018-.81738 5.92946-1.6904 9.92578-2.57422zm-341.351558 6.82617c.620491 5.57887 1.449679 11.13072 2.634766 16.53711-2.96794-1.15839-6.045681-2.09814-9.253906-2.75976 1.270505-1.9375 2.618657-3.83658 3.742187-5.84375 1.236799-2.27158 1.969578-4.78302 2.148438-7.36328.247684-.18383.490604-.374.728515-.57032zm326.015628 40.19727c.69434 2.87948 1.49378 5.52488 2.30469 7.93359-2.20657 6.46765-3.45204 13.25705-6.1211 18.50391-3.44932-4.34111-6.5023-8.90444-9.5625-13.02539 5.418-3.48823 10.25765-8.28438 13.37891-13.41211zm-10.00781 103.32227c7.31203 8.09187 11.93881 18.23166 16.1289 30.73437-4.01086 6.29118-7.61948 13.00249-6.1582 20.16602-.10745.36665-.2032.73663-.28711 1.10937-1.57825-3.28159-3.63857-6.46732-11.60547-14.55469s-25.22594-9.41537-38.58789-7.35351c.17525-1.31012.2826-2.64492.31055-4.02344 16.66768-.23236 33.57721-9.73522 36.68945-17.01367 3.11225-7.27846 3.24083-8.17049 3.50977-9.06445zm-183.61133 41.23828c16.29062 7.76732 29.70408 12.5242 45.94726 9.73242-1.3792 3.44771-2.16736 7.27-2.36523 11.20312-20.1768-3.99462-41.82437-.60125-59.39258 5.48438 7.7765-7.97923 12.55525-17.25521 15.81055-26.41992z" fill="#994100"/><path d="m337.40353 33.159606c-2.69462-.02014-5.27944.255451-7.62911.927498-6.94196 1.986839-15.55468 11.911882-19.31799 16.600641-20.54773 8.634971-50.40356 24.944453-53.73592 44.683752.3605 22.734203 20.30251 32.173983 36.55623 41.082723 29.35076 18.44556-34.44903 50.18372-54.08452 62.12582 4.69659 4.10919 9.39228 8.12041 14.68544 11.9366 21.71342-10.93128 67.78362-25.58079 78.54837-46.71545 1.77049-5.03577 1.72657-10.47532.0805-15.06428-1.64513-4.58804-4.56575-8.25316-7.87524-11.37717-11.58821-11.87526-55.98126-26.86079-51.54086-40.1891 6.52931-19.599213 29.48069-26.065141 47.4253-32.664745 17.04426 3.291562 40.11459 3.738372 43.63635-3.656884 1.97636-4.147642-23.76205 1.89345-26.18584-6.79371-1.06869-3.829016 38.87663-8.075542 30.20536-12.465817-5.38009-2.723893-19.09291-8.342896-30.76807-8.429878zm-140.55938 1.339515c-1.9727.03296-3.74319.589643-5.17605 1.874222-4.97475 4.623751-.99732 17.680127 5.15135 28.425542l8.19823-6.097858-1.46397 15.794003c3.70384 4.230046 9.4911 6.887101 13.96078 8.544327 6.53662 13.340209-14.17946 21.586963-22.09039 27.836813-5.94554-41.238368-79.82294-32.643684-77.21799 1.52538-11.11336-3.66421-19.879794-14.275945-25.644174-21.767338-.0686-8.877603-.90858-26.612666-6.35912-33.753387-4.06892-5.175855-41.526411-28.902567-46.041843-19.484763-3.291186 6.866042 19.98593 33.486948 29.683813 49.237918 15.009348 21.35624 25.74299 40.22481 49.994564 43.58595 1.90499 15.36551 38.05955 79.27949 60.78585 77.17271 12.83718-2.57374 34.03729-14.04797 43.81203-20.42691-37.61303-10.87543-70.45262-17.80191-86.19761-53.56868 14.77877 1.6087 34.83333.62718 46.37764-6.62158-6.97856 32.85336 43.68668 49.19488 57.05456 48.64461 15.93347-.65648 25.02656-13.55629 18.28132-17.47686-16.8631-6.59228-58.42429-8.63497-57.4846-26.10543 3.93808-21.92482 43.4433-20.67229 32.16616-51.654172-.47762-6.717716-1.65612-16.530141-4.60236-23.610432l-15.38449-3.945296 8.26869-5.520119c-5.15958-3.054423-17.51915-12.752398-26.07147-12.60865zm136.63137 4.236455 14.30023 4.987243-17.61704 3.501233zm99.1208 10.82965c-7.56415-.11628-16.34979 4.848073-21.33278 7.794455l6.26579 8.088361-15.82917-1.144493c-2.99473 2.639658-5.14951 6.537344-6.50003 9.644871a308.67341 308.88034 0 0 0 -11.93775 8.504956c-13.33219 10.011109-28.3333 22.402764-35.29082 36.704344-6.22004 12.78353-3.35066 26.11184-1.62501 37.3471 1.72566 11.23617 2.37895 19.95538-1.39717 25.73186-38.06138 10.05414-46.70704 38.82303-6.27128 23.35864 7.30155-2.94821 15.10816-6.77448 20.05272-14.3382 7.9091-12.09958 5.65641-25.76941 3.89233-37.25554-1.76408-11.48521-2.97003-21.21066.15372-27.63264 4.13754-8.50404 17.64083-21.14382 30.11751-30.544224 6.17246-.398283 18.75986-1.638914 27.26918-5.39102l3.62973-15.473544 5.68478 8.161608c8.19548-9.760236 15.22619-26.170434 10.08766-31.484544-2.06328-1.430158-4.44864-2.033535-6.96941-2.07199zm-367.794909 3.184438 13.895816 6.022779-3.306741 8.494885zm92.323419 45.081119c10.88095-.07783 21.68505 3.614767 22.29168 8.529677-1.26542 14.2851-37.26077 11.67749-44.85603 9.96167-2.19961-13.47481 10.23224-18.40345 22.56343-18.491347zm283.33301 7.505127c-3.01944-.0147-6.06175.49259-9.1004 1.32761-6.3152 1.75794-12.32022 4.8261-17.78266 8.10576-5.5338-.68944-10.83795-.73797-14.47866.62535-16.39371 6.14089-37.00457 33.5254-31.98133 38.44764 21.80034 8.85929 69.28053-35.47654 76.09531-31.48546 23.29176 31.91396-46.36941 34.79075-53.80546 42.25468-13.35506 11.12172 2.2838 48.21703-8.41874 53.04771-28.49525 12.85952-70.52215 6.33957-97.70166-2.71108a171.46927 171.58422 0 0 1 -11.87829 5.99898c29.15313 10.91205 50.71831 16.09889 78.85672 18.12602 14.46585.99525 31.58515 1.51164 43.25573-8.87211 15.8191-12.79543.80152-44.22413 9.47463-51.79518 14.2984-12.47955 41.13297-6.03193 52.11731-21.13191 4.75973-7.21214 8.70788-15.02491 8.59899-24.15155-.10979-9.12756-2.93708-19.21375-11.77123-24.73936-3.75142-2.14982-7.598-3.02879-11.48026-3.0471zm-41.72862 17.79458 7.16613 5.62816-16.95369 5.93488zm-310.259996 4.36555a18.427717 18.440071 0 0 0 -2.137395.10987c-14.68453 1.5968-26.666206 18.25054-31.945646 31.47264-3.813641 3.14232-7.628196 6.74519-10.31458 10.37735l4.5319 15.23091-8.985113-4.25751c-2.267323 12.54364-.221426 30.28145 6.876082 32.33879 6.521985 1.88979 15.664474-8.23852 21.711583-19.04162l-9.442603-3.90043 14.287428-6.86696c2.137395-7.34306.408996-16.02931-1.282804-22.56573 2.923365-4.63749 6.973985-17.30565 13.640537-16.33604 19.071867 2.77425 17.874157 50.39889 22.224897 66.33024 3.07982 10.54398 11.62574 26.94228 22.74093 30.20545 38.59207 11.3314 72.1737-11.79285 105.22099-23.52986-4.32054-3.52503-7.71604-6.48515-11.58183-9.88384-26.09984 6.55383-59.64395 27.47058-84.67509 14.89672-4.90338-3.09471-13.37885-7.68641-15.89779-16.31131-5.9181-20.24379-4.60876-42.33067-12.69902-60.39535-3.9454-8.55532-11.764834-17.79-22.272476-17.87332zm367.175466 60.86414c-.27175 0-.62767.1117-1.07602.34701-6.1322 4.18152-22.19743 17.30565-25.11256 30.01959-1.46397 6.38902 2.1072 17.05569 4.49255 23.15446-2.29111 10.63646-11.74378 42.12101-20.30342 42.62459-19.11579 1.12618-28.45591-37.61445-47.20387-40.40061-20.33363-3.02146-23.68154 8.59652-19.82764 20.98726 2.40457 7.72945 14.86112-5.79663 17.66188-4.65122 19.76999 8.09019 19.62451 28.63338 34.61373 38.28008-13.57375-1.80921-25.72652-2.52887-37.78872-.19319-27.3991-46.97731-56.32989-36.80506-31.95022 2.74129 1.93336 3.13591 8.16804 4.64481 11.94325 6.16378-5.18062 4.54593-8.94852 11.17026-8.72892 18.77152 1.60305 12.59492 13.67531 18.11046 23.98348 19.68345 11.31283 1.45762 24.83808-1.58032 28.89144-11.51818 1.83637-4.81603 1.56645-10.20613-.19672-14.55978-.93145-2.30089-2.21151-4.33168-3.67914-6.20773 10.37955.38089 20.90274 2.33476 27.25728 5.12183 16.64076 13.8209 23.89473 32.1511 30.09647 52.61647-2.20967 4.88011-6.58054 9.85728-8.62186 14.5085l7.91092 13.78885-9.72167-2.07839c.67343 12.73134 6.73426 29.52425 14.1145 29.89507 6.78001.34151 13.35323-11.6189 16.75879-23.52254l-10.08401-1.62518 12.33029-9.96807c.42821-6.54925-2.39085-13.5096-4.84666-18.58199-8.11771-25.54142-21.16076-62.24211-43.70864-71.10506 23.90845-2.15714 35.51499-42.50372 37.91498-60.30105l.21228-.0604c11.30001-13.33197 23.36221-33.97771 18.50366-40.76043-2.67632-3.73471-9.82232 21.73437-18.59516 19.66238-5.71863-7.82192 8.83597-32.83779 4.75973-32.83321zm-9.06288 19.24671-5.44414 17.12802-5.82477-7.00613zm-377.260393 17.54828c-3.699268.00091-7.283248.68852-10.53875 2.23222-12.129903 6.15554-16.241828 20.48001-14.893146 34.49318 1.348682 14.01409 8.295218 29.15711 21.739948 39.9776 36.592841 24.7769 87.799751 15.21901 111.323001-14.02965 4.36171 30.28786-26.80711 62.42339-52.74317 61.69275-26.730254-.75445-59.318221-41.19534-77.760577-21.12918-13.790594 15.00293 1.800683 37.70784 10.730897 50.40073 2.715664 11.28561 2.007468 18.92991 9.387705 26.97982 9.241307 9.19897 29.824721 11.7251 37.240645 11.98971 9.71252.34792-23.212157-22.67928-20.42787-25.51487 6.316116-6.4348 25.93423 11.29843 26.20689 6.7113.46756-7.85122-18.339884-18.09214-34.456358-23.63881-3.997552-6.23337-21.697859-30.04065-16.723107-35.60106 8.039022-5.89002 46.276995 28.43836 67.736965 27.12449 24.28634-2.19468 45.3922-16.44774 58.05188-36.49285 2.84742-5.80212 8.39404-19.58456 8.62827-35.06269.40808-27.05581.36416-41.42881-22.38409-34.95556-14.67264 4.17511-17.97481 32.76638-48.76849 38.06859-21.60545 3.35656-36.030127-1.58398-45.72252-9.38485-9.693309-7.80086-14.734854-19.02422-15.667219-28.71395-.933281-9.68974 2.38261-16.40654 5.951035-18.21758 1.292869-.65648 2.921535-1.05935 5.361789-.6986 13.626812 25.27864 49.955225 45.24501 55.469815 42.25285 6.18069-3.35291-6.12397-35.34835-20.20278-45.75592-3.12009-2.30729-8.220194-3.71731-13.717404-4.57522-6.987709-4.83434-15.685518-8.15428-23.823359-8.15245zm182.697923 3.53877c-17.31419 6.21231-29.69754 10.50644-44.37384 16.24631 8.00151 8.55256 18.75803 15.76287 32.84141 21.72613-13.05677-2.27983-25.54169 6.00173-31.81388-6.54283 1.8693 12.48687 1.72931 25.19715.53343 36.84901-1.67899 16.33603-5.11657 30.20363-9.67135 39.59579 12.9296 18.8585 36.61937 34.99127 55.5915 35.39322 20.69504.47428 55.91357-26.26749 65.50349-55.09681-6.88798-5.01471-13.5344-11.31034-16.04053-18.25695-2.35425-6.85597-1.78422-13.69088-.43828-19.88305 2.22249-10.22536 6.27677-19.6688 7.81394-28.25799a268.62744 268.80752 0 0 1 -7.21188-1.50066c-.87289 5.42032-2.62783 12.29918-6.09011 15.10731-7.51291 6.09328-28.89693 2.59296-28.89693 2.59296 12.48766-5.28755 22.3539-11.55846 30.01046-18.87314-20.88536-5.14564-35.87092-11.84596-47.75743-19.0993zm-146.92765 16.73066 6.24017 13.80716-14.676304-10.36453zm135.39522 35.89129c14.6397 4.09271 14.6397 4.16596 29.2794 0l-14.6397 14.64951zm-29.27939 29.29902s8.55599 4.39119 18.81933 8.36579l10.46006 20.93323v-17.32304c5.28676 1.57482 10.44726 2.67353 14.6397 2.67353s9.35294-1.09871 14.6397-2.67353v17.32304l10.46006-20.93323c10.26334-3.9746 18.81933-8.36579 18.81933-8.36579l-29.27939 43.94853c-14.6397-7.1691-14.6397-7.13064-29.2794 0zm146.93131 5.40201c.29005.00092.56546.0366.82348.10804 4.87777 1.34318 15.05327 8.81809 10.89102 12.37243-5.39656 4.6091-16.23634 1.31662-21.02535-2.91434-2.44208-2.15805 4.9656-9.58536 9.31085-9.56613zm-31.75991 26.54583c-3.0725 5.07056-6.19625 9.56338-9.66219 13.82273 4.24734 2.12967 7.65473 3.68893 10.39326 7.2158-10.44176 22.83034-56.50648 18.55543-45.15065 45.71929 5.78177 11.08601 14.91602 14.58175 26.17395 13.14152 18.62535-2.05093 63.55824-30.57353 73.20854-17.70393 4.34616 5.79571-.23789 15.29592-2.54365 22.50531-16.65722 5.25368-37.82256 16.26462-37.32756 24.58737.27267 4.58713 19.88894-13.14427 26.20506-6.70948 2.78428 2.8356-30.13948 25.86188-20.42695 25.51487 7.41592-.26552 28.00116-2.79165 37.24247-11.99062 4.73228-4.71073 7.41134-15.97895 8.60997-22.35149 4.43125-13.13512 9.99525-32.61897-.0732-43.16478-8.30071-8.3667-20.15703-8.9069-30.6482-6.72596-19.3793 1.1097-49.28362 24.77049-62.65699 19.36116-9.54325-5.19417 27.411-19.43715 33.9092-23.74411 6.07273-4.36372 11.92129-11.59875 10.9752-20.60087-2.84834-9.2237-10.89651-15.55229-18.22826-18.87681zm-135.67063 10.20521c-7.14051 22.80746-6.95203 33.35511-28.7121 32.41388-21.19005-.9156-41.3297 13.01517-41.45779 34.63876 3.33053 35.10206 51.20965 34.25239 72.35303 28.91997 7.35371-2.33111 19.02063 3.40692 28.21436 2.03353 17.24373-3.00956 42.54844-26.12008 38.51887-31.88466-3.63248-5.19691-45.87989-3.51771-69.22746 13.47664-12.58282 1.16829-56.30702 4.64938-53.39281-12.78262 4.62249-27.64729 39.03309-12.87325 52.73859-25.46725 7.14052-6.90542 11.46472-16.48986 14.39998-26.53942-4.85672-4.3857-9.35569-9.35555-13.43467-14.80883zm-116.555773 43.96135 13.736609 11.57952-14.927914-2.54535zm160.489503 36.95339-11.75019 9.55606-6.00502-6.85323zm142.26032 15.93775 1.19314 9.03692-14.92883 2.54535z" fill="#ffa348" stroke-width="36"/></g></svg>