<svg height="500" viewBox="0 0 500 500" width="500" xmlns="http://www.w3.org/2000/svg" xmlns:xlink="http://www.w3.org/1999/xlink"><filter id="a" color-interpolation-filters="sRGB" height="1.424875" width="1.3503" x="-.17515" y="-.212437"><feGaussianBlur stdDeviation="8.5928511"/></filter><filter id="b" color-interpolation-filters="sRGB" height="1.054" width="1.054" x="-.027" y="-.027"><feGaussianBlur stdDeviation="3.5412232"/></filter><filter id="c" color-interpolation-filters="sRGB" height="1.201629" width="1.232577" x="-.116288" y="-.100814"><feGaussianBlur stdDeviation="5.2996084"/></filter><g transform="translate(-1000 -500)"><circle cx="1250" cy="750" fill="#8f29a3" r="250"/><path d="m1250.0527 500.00195-.062 248.73633-15.8769-247.60156a250 250 0 0 0 -31.6094 4l44.9063 230.4707c-.1031.0367-.2293.0547-.3829.0547l2.4024 13.07617-.2539-.53906-.5391-1.35742-3.3926-10.71875c-.1832.0705-.3478.12695-.5156.12695l-.123.0781-82.9239-219.53124a250 250 0 0 0 -14.9511 5.57617l96.83 214.45117-.2207.11523 2.3282 4.48438 2.3672 5.26758.055.0508.42.75586.7539 1.27929v.0312l-.7539-1.31054-.4766-.80469-5.582-9.30274c-.186.12274-.3848.23957-.5723.4004l-123.2001-200.20114a250 250 0 0 0 -34.2168 25.29493l164.4492 186.29101-.4023-.58594.8418 1.03516v.0527l-.3301-.32812-.096-.13086v-.006-.002l-175.75-175.03906a250 250 0 0 0 -20.9981 23.98242l185.9649 142.98828-.1446.1875 10.5743 8.34765-2.1172-1.08789-9.502-5.71875c-.141.18337-.2305.33551-.3105.47657l-207.3786-109.41971a250 250 0 0 0 -7.4063 14.18946l214.3047 96.24219c-.075.17916-.1684.38235-.2617.5996l12.2988 4.78321-.037-.0254.5313.23828-.4922-.21289.3613.18359.2148.082-.2148-.0527v-.0293l-12.9355-4.12109c-.057.15093-.127.33679-.1778.51172l-224.7558-68.26953a250 250 0 0 0 -8.5313 41.71874l245.8418 30.73633h-1.248l-245.7344-14.7832a250 250 0 0 0 -1.0216 14.28126 250 250 0 0 0 1.2598 17.61914l233.6972-16.13281h-.027l.3086-.0234-.2793.0234 13.0976-.74219-7.7461 1.87305-.3046.0508-4.8379.94726.07.24024-227.4707 55.73242a250 250 0 0 0 4.0605 15.40625l223.6739-70.11328c.094.36676.1869.70213.2812.96875l12.084-4.50977-6.7949 3.5625-217.9532 99.91602a250 250 0 0 0 21.3477 36.72461l203.4824-139.34961-2.9707 2.41406-190.957 149.70117a250 250 0 0 0 21.2871 23.65235l164.0078-166.71875c.2822.26661.5719.51007.8438.81054l7.707-8.71289v-.0332l.7656-.87305.1875-.24023.7832-.85352.02-.0664.057-.0274-.021.16016-.1055.11719.051-.1836-.068.1836-1.334 1.7539.6191-1.05468-.1875.21093-.7656.90625-2.625 3.71485-4.3184 5.63281.291.18359-133.4043 192.17969a250 250 0 0 0 13.3125 8.69336l120.918-200.25976c.1125.0705.2586.16516.4082.23437l6.9766-11.88477-.2813.72461-99.9199 225.99805a250 250 0 0 0 40.1289 13.44531l59.4668-235.87695-1.5898 9.31836.2383.0566-42.5801 229.88086a250 250 0 0 0 31.5312 3.64844l12.8692-233.375c.244.024.4607.0234.6679.0234h.031v-12.48632l.055-.88086.3847 3.38476.6387 9.95899c.1958 0 .3428-.0234.5117-.0234l27.1407 232.31445a250 250 0 0 0 15.7187-2.41797l-41.9705-230.02728c.2564-.0282.4795-.0932.7148-.11719l-2.0859-10.82226-.055-.13867-.3242-1.81055.019.0293.3594 1.91993 74.1777 233.50586a250 250 0 0 0 39.0058-16.35352l-110.7109-214.89844 4.1817 6.78516.2734-.1875 120.2129 200.67969a250 250 0 0 0 26.0762-18.11719l-144.8977-183.5586c.2565-.18904.424-.39357.6621-.60938l-8.541-9.65039 3.4004 3.0625 5.9023 5.89648.2891-.31054 174.332 156.38672a250 250 0 0 0 10.0782-12.29493l-183.7852-144.8125c.1309-.15941.3098-.33484.4141-.48437l-9.4571-7.28711 211.0782 126.48242a250 250 0 0 0 18.5488-38.16015l-228.9668-88.90039 11.1367 3.39843.014-.1875 223.3906 70.74414a250 250 0 0 0 7.5527-30.96289l-230.5156-41.68359c0-.16361.037-.30359.037-.45313l-7.4414-.91601-4.5957-.8086 12.1504.71485c.03-.33295.029-.6341.029-.97266l234.6992 1.7832a250 250 0 0 0 .172-2.39062 250 250 0 0 0 -.4004-13.62109l-234.5 13.36328v-.33594l-11.8945.82031-2.2285.14063 2.1855-.14063h.043l242.584-45.59375a250 250 0 0 0 -11.252-41.05469l-230.9668 85.63868-.2617.0703 10.6133-4.83984c-.1733-.36253-.4002-.81563-.668-1.21485l208.0469-109.45311a250 250 0 0 0 -7.8809-13.9043l-200.6152 122.56641-.2129-.33203-5.6777 3.94335-4.7539 2.89454 9.7656-7.67383-.1446-.20899 183.2696-147.35742a250 250 0 0 0 -29.3672-30.84961l-161.1992 182.9082-2.3418 2.39454 151.248-195.47657a250 250 0 0 0 -26.3965-17.98242l-119.1699 202.81055-.096-.0664-7.1347 11.80469 5.5937-12.57617c-.2775-.15518-.5702-.25048-.8789-.36328l83.332-219.99219a250 250 0 0 0 -15.1054-5.23438l-69.2344 224.92579c-.11-.0382-.2253-.0646-.3848-.11524l-1.9004 7.61328-1.1386 3.73438 2.125-11.58008c-.2032-.0199-.412-.0559-.6192-.0742l40.0918-231.87891a250 250 0 0 0 -42.4219-3.70703zm-1.9648 235.51758 1.0215 8.85742v.043l.8808 4.50196v.46484l.029-.16992.021.63476v.10352l-.057-.10352v-.44531l-.066.31055-.2403-.5-.5683-4.79688zm-9.459 5.05469 7.1582 6.4375-.025-.0195zm26.0254 6.08008-11.9434 2.92968h-.059zm-12.2715.11718-1.6426 2.81055-.3535.4043.1113-.45313-.092.20899-.019.18359-.053.10742v-.0254l.053-.082v-.16406l.019-.0195v-.10742l.012-.0234.082-.1211v-.0234l.033-.0274.062-.15234v.0195l-.062.13281-.033.0508zm-6.5937.24024 3.3574 2.57226.3652.57227-.4531-.16992.2031.14062h-.022l-.2207-.14062h.037zm5.082.25-.2988 1.60351.2988-.84765-.3359 1.38867-.1036.15234.1407-.69336.2636-1.58203zm-.5879.38867-.086 1.73438-.059.19531-.1192-.4707zm3.1758.75195-2.2969 1.60547h-.023l-.416.2793-.2911.11914.2149-.2793.076-.0215.8945-.7207zm-4.082.58399.1347.14258v.0469l-.084-.12695zm3.9023.32031h.027l-.1738.0801zm-3.5605.18359.1835.36133v.0391l-.1835-.35742zm.4199.0937.02.26758v.0391l.039.0957.047.11914-.047.0215-.039-.11914.039-.0215-.039-.0605v-.0352l-.059-.26562zm2.2422.0645-.07.0273-1.0273.31055.1582-.0605zm-5.6954.0684 2.3926.41015.3496.2168.029.0625-.3164.0644zm2.1856.3164h.053l.096.0312zm.7344.19336h.02v.0195zm-.166.0606h.02l.076.0801zm.2167.18359h.024l-.024.0312zm-.3398.16992h.059l.248.0352-.8203.33203zm-.3926.0352h.2207l-.9414.48438.2657-.0547-.025.0293-.2403.0254-2.0449.39648v.0234l-5.2949.94336 5.2949-.9668zm1.7969.0234.5117.043.7598.22656-.8535-.0859zm-.2227.16601.035.0176.1133.22461.332.16602 1.4531 1.41797-1.3632-1.01758-.2364-.30078-.1875-.26563-.018-.0352-.094-.18946h-.035zm-1.0722.082-.252.27539h-.029l-2.8086 1.27734 2.3203-1.42773zm1.5859.0996.1504.0254.031.0312zm.2227.0254 1.9551.61132-1.9258-.57812zm-1.1914.17382.031.12696.022-.0996-.022.13281v.006l.076.23242.1269 1.91602-.2343-1.36719.031-.78125-.09.51367v-.0937l-.031-.1875.031.14453v-.26562zm.7304.0937.062.0664.088.14844-.037-.0312zm-1.1523.1836-.2461.53125-3.9902 12.97851 3.9629-12.97851h.025l.086-.29102.01-.0117zm-.09.10547-.064.11523.041-.0996zm1.4805.082.033.0234.1153.1914-.092-.0937zm-.4414.21484.021.0293.029.22851zm-1.748.26758v.0312l.051-.0312zm2.3164 1.36719 4.9316 10.89648-4.9316-10.8418z" fill="#aa40bf"/></g><path d="m104.37305 47.859375 24.14453 73.673825c-33.188387 31.91077-53.927736 76.85964-53.927736 126.41407 0 11.0973 1.084815 21.97297 3.074218 32.54101l-63.972656 46.16602 79.490235-.17383c25.444549 50.64494 74.655009 87.22402 132.871089 95.18945l24.92774 77.4375 25.08789-77.75195c57.28836-8.58286 105.58155-44.90514 130.70117-94.87695l81.65625.16796-65.86523-47.53906c1.81067-10.13163 2.80468-20.53711 2.80468-31.16015 0-48.74185-20.18807-92.8472-52.37695-124.66407l24.70899-75.4082-63.49805 46.242187c-25.00286-13.739496-53.79687-21.568359-84.19531-21.568359-29.9785 0-58.32225 7.579934-83.03321 20.910156z" fill="#6a1f7a"/><g fill="#eed9f2"><path d="m250.00482 90.548692c-30.9512 0-59.83386 8.946061-84.11982 24.387218l-27.04399-19.699727 10.41921 31.793747c-34.60556 28.85257-56.669788 72.35739-56.669788 120.91734 0 13.86332 1.815702 27.3437 5.201945 40.21132l-28.23147 20.37373 35.134203-.0766c22.49324 53.84486 73.98407 92.52432 134.89049 96.50715l11.41517 35.46256 11.49178-35.61575c59.98708-4.74878 110.55091-43.19845 132.76835-96.35398l37.30998.0766-30.03185-21.67581c3.14109-12.48466 4.82655-25.50547 4.82655-38.90924 0-47.79401-21.3747-90.6095-55.00732-119.50803l10.87889-33.203037-28.03995 20.419697c-24.51579-15.877733-53.85813-25.107188-85.19238-25.107188zm6.58862 14.453098c24.13274 1.09528 46.65662 8.14182 66.19264 19.70738l-13.33046 9.75027c-15.93527-8.42522-33.86244-13.57227-52.86218-14.55266zm-14.32643 15.00456c-18.08039 1.08763-35.24144 5.9666-50.48721 13.848l-13.48368-9.84221c19.68925-11.54256 43.74537-17.70829 63.97089-18.94908zm93.38987 13.38845-27.27382 83.22594c-4.21366-7.35293-9.72971-13.86334-16.31834-19.07166 14.55627-21.36944 29.03591-42.81548 43.59216-64.15428zm-168.77593 0 69.48696 50.67392c-8.65714 1.83824-16.70139 5.28493-23.8263 10.03368-15.24575-20.22056-30.41491-40.51769-45.66066-60.7076zm89.71249.85018c14.09658.80424 27.58026 4.20496 39.83817 9.69667l-39.83817 29.09767zm-14.32643.0766v36.34338l-37.38658-27.25944c11.5684-5.03217 24.13274-8.19545 37.38658-9.08394zm-88.18024 7.32229 5.20961 16.00029c-12.87079 13.0208-22.98356 28.79896-29.31936 46.33874l-14.63287-4.67216c10.27366-22.67153 23.19041-43.35163 38.74262-57.66687zm193.44495 1.53187c16.24171 15.08116 28.88267 33.92303 36.69707 55.13929l-14.55625 4.67217c-6.12895-16.39089-15.55221-31.24994-27.42704-43.7346zm-183.17897 29.94019 15.32238 46.87492-36.08419-11.64214c4.74994-13.0208 11.87485-24.96931 20.76181-35.23278zm172.75975 1.76165c8.04425 9.65071 14.47964 20.60351 18.92313 32.47543l-33.01971 10.64642zm-87.10768 22.13538c29.34234 0 53.0154 23.66722 53.0154 53.07893 0 29.33511-23.67306 53.00234-53.0154 53.00234-29.41895 0-53.09202-23.66723-53.09202-53.00234 0-29.41171 23.67307-53.07893 53.09202-53.07893zm138.51424 14.93562c5.46326 22.56832 5.79697 44.54188 1.45563 65.79336l-14.01997-10.11026c2.67306-17.13335 1.64793-35.2943-2.06853-50.93433 4.90317-1.60845 9.80632-3.14032 14.63287-4.74877zm-277.34259 1.0723 14.71714 4.67218c-3.84453 17.70439-4.43694 34.67346-1.61651 51.31729l-13.98166 10.11028c-4.6021-22.28452-4.20815-44.91012.88103-66.09975zm249.07282 8.04226c2.696 13.14496 3.57262 24.74228 2.52819 36.99441l-36.23741-26.11821c11.26194-3.59986 22.44727-7.27634 33.70922-10.8762zm-220.71878 1.07231 34.32211 11.02938-36.46723 26.34799c-1.25102-12.43694-.44277-25.77797 2.14512-37.37737zm177.43308 20.52692 70.48291 50.93433-72.78128-24.81612c2.45159-9.26776 3.14109-17.38662 2.29837-26.11821zm-130.54662 29.64148c2.75803 7.96567 7.04829 15.3186 12.48774 21.67581l-84.04321.15318c23.82628-7.27632 47.65257-14.55266 71.55547-21.82899zm-8.35069 62.49987c-9.19342-7.50612-17.08445-16.4675-23.51984-26.42458 14.93931 0 44.74133-14.93931 44.74133-.0766zm167.39692-26.42456c-6.05234 9.42094-13.4837 17.84617-21.911 25.1225-6.74183-8.42523-20.14892-14.51615-20.14892-25.19909zm34.24549.0766c-8.81035 18.84187-21.52792 35.38595-37.23336 48.63654l-10.03615-12.48475c11.95144-10.11027 21.9876-22.44175 29.49556-36.22843zm-241.71041-.0766c7.89102 14.47608 18.54007 27.19051 31.18103 37.53057l-10.11277 12.56125c-16.39495-13.48033-29.71008-30.56057-38.80391-50.01518zm139.58681 3.14031-26.50771 82.10768v-76.21001c9.49987-.76593 19.07636-2.60417 26.50771-5.89767zm13.56029 4.44241 20.91505 26.1182c-10.3426 6.74018-21.83438 11.87191-34.1689 15.01222 4.44349-13.71014 8.88699-27.42028 13.25385-41.13042zm-80.05939.53614 13.25385 41.13044c-12.48773-2.91055-24.13273-7.81249-34.62855-14.3995 7.1249-8.96137 14.24979-17.84615 21.3747-26.73094zm109.93802 36.68803 10.11277 12.63785c-18.61668 12.79103-40.29784 21.29286-63.81768 24.12679l5.51605-17.15683c17.92717-4.51898 35.01162-10.8762 48.18886-19.60781zm-140.27632 1.22549c14.40304 9.34434 30.9512 15.85475 48.57193 18.76529l5.51604 17.00364c-23.59645-2.45097-45.50744-10.64643-64.20073-23.13108z" stroke-width="36"/><path d="m253.95772 94.257292a157.38757 157.38757 0 0 0 -157.38867 157.386718 157.38757 157.38757 0 0 0 157.38867 157.38867 157.38757 157.38757 0 0 0 157.38673-157.38867 157.38757 157.38757 0 0 0 -157.38673-157.386718zm0 14.453118a142.93448 142.93448 0 0 1 142.93359 142.9336 142.93448 142.93448 0 0 1 -142.93359 142.93554 142.93448 142.93448 0 0 1 -142.93555-142.93554 142.93448 142.93448 0 0 1 142.93555-142.9336z" filter="url(#b)"/><path d="m388.51906 211.94858s5.0748 16.72578 4.37225 40.69543c-.22634 7.72233-1.29446 27.82198-5.44481 40.95269-1.68303 5.3247-6.68617 11.73813-7.73781 14.85906 0 0 94.56175 52.09736 108.71711 18.19072 5.21567-12.49319-21.95508-15.84635-32.93264-23.76953-10.97753-7.92318-24.13493-13.47954-32.93261-23.76953-16.30963-19.07615-34.04149-67.15884-34.04149-67.15884z" filter="url(#c)"/><path d="m376.43721 410.66026c5.53238-9.30635-11.54906-19.55055-11.49673-30.37703.0893-18.47815 20.12233-51.65405 20.12233-51.65405s-91.73539 75.47191-117.74371 61.32151c0 0-.17757 25.20788 8.74926 31.40478 16.38978 11.37759 39.80768-2.90132 59.63697-5.109 13.62023-1.5164 33.72895 6.19382 40.73188-5.58621z" filter="url(#a)"/></g></svg>