<svg height="500.00003" viewBox="0 0 500 500.00003" width="500" xmlns="http://www.w3.org/2000/svg"><g transform="translate(-500)"><path d="m926.7767 73.223311c45.24113 45.241099 73.2233 107.741109 73.2233 176.776699 0 69.0356-27.98221 131.53559-73.2233 176.77669-45.2411 45.2411-107.74109 73.22332-176.77669 73.22332-69.03559 0-131.5356-27.98219-176.7767-73.22332-45.2411-45.2411-73.22331-107.74109-73.22331-176.77669 0-69.03559 27.9822-131.5356 73.22331-176.776699 45.2411-45.241105 107.74111-73.22330934 176.7767-73.22330934 69.0356 0 131.53559 27.98220534 176.77669 73.22330934z" fill="#3b2f4f"/><g transform="translate(500)"><path d="m230.6486 0c-128.19182 22.346591-234.17086 139.43202-223.06447 273.24395 5.6201 44.55936 16.72649 83.63245 44.55937 122.70552l50.17947 50.17947c33.45298 22.34661 72.52606 44.55938 111.46533 50.17946 39.07308 5.62012 78.01235 5.62012 111.46534-5.62008 39.07308-16.72649 72.52607-33.45297 100.35893-61.28587 33.45297-39.07306 55.79958-83.63245 66.90595-139.43201v-61.28587c-5.62008-27.83287-11.10637-50.17947-22.34657-78.01235-11.10641-22.34659-27.8329-44.55937-50.17947-61.285858-27.83289-27.832879-61.28586-44.559368-100.35895-55.799569-27.83288-5.620101-55.79957-11.10639-89.25255-5.620101-78.01235 11.106391-139.43202 61.28586-172.885 128.191818-11.10639 27.83288-16.72649 61.28586-22.34659 89.25255 0 33.45298 5.6201 66.90596 16.72649 94.73885 22.34659 44.55936 55.79957 89.25254 105.97904 111.46532 16.72649 5.62012 33.45298 11.1064 55.79957 16.72648 122.70553 22.34661 234.17085-55.79954 250.89734-178.37127 11.10641-78.01236-22.34657-139.43203-72.52604-189.6115-100.35895-89.25255-267.62385-44.559369-312.18322 78.01235-5.6201 27.83288-16.72649 55.79958-16.72649 83.63245 5.6201 78.01235 55.79957 150.53843 133.81192 172.885 61.28586 16.72649 122.70553 5.62012 172.885-33.45298 11.10639-11.10637 22.34659-22.34657 33.45299-33.45297 61.28584-83.63246 44.55935-195.09778-44.55937-256.51746-27.83288-16.726488-55.79958-22.346588-89.25256-27.832879-22.34659-5.620101-44.55937 5.620101-66.90596 11.106391-27.83288 16.726488-50.17947 22.346588-72.52606 50.179468-27.83288 33.45298-33.45298 66.90596-39.07308 105.97904 0 55.79958 27.83288 117.08544 83.63245 144.91833 78.01235 44.55934 183.99139 11.10637 223.06447-72.52607 22.3466-55.79958 11.1064-128.19183-39.07308-172.88501-33.45298-27.83288-66.90596-39.07308-111.46533-39.07308-66.90596 5.6201-111.46533 55.79957-122.70553 122.70553-11.10639 72.52606 33.45298 139.43202 105.97904 150.53843 100.35894 16.72649 183.99138-89.25257 139.43202-178.37131-11.10638-16.72649-27.83288-39.07308-50.17947-50.17947-27.83288-11.10639-55.79957-16.72649-83.63245-11.10639-33.45298 5.6201-55.79957 27.83288-72.52606 50.17947-16.72649 27.83288-16.72649 55.79957-11.10639 83.63245 11.10639 33.45298 39.07308 61.28586 72.52606 72.52607 44.55937 16.72649 89.25255-5.62011 111.46533-39.07309 33.45298-55.79957 5.6201-117.08543-50.17947-139.43202-50.17947-16.72649-122.70553 27.83288-105.97904 89.25255 5.6201 16.72649 11.10639 39.07309 27.83288 50.17947 22.34659 16.7265 50.17947 16.7265 72.52606 11.1064 22.34659-11.1064 39.07308-33.45299 39.07308-61.28587-5.6201-16.72649-5.6201-39.07308-22.34659-50.17947-13.91644-8.36324-29.2379-11.13984-43.17107-8.34651-13.93317 2.79332-26.47803 11.15656-34.84128 25.073-5.6201 16.72649-11.10639 33.45298 9.50065 44.827 41.74932-49.10898 35.32635.40143 29.84006-16.45887v5.6201c16.72649-5.6201 22.34659-22.34659 27.83288-33.45298 5.6201 5.6201 16.72649 11.10639 16.72649 22.34659 11.10639 39.07308-27.83288 72.52606-66.90596 61.28586-33.45298-11.10639-44.55937-50.17947-39.07309-83.63245 5.62011-22.34659 22.3466-39.07308 50.17948-44.55937 33.45298-5.6201 66.90596 11.10639 83.63245 39.07308 16.72649 27.83288 16.72649 50.17947 0 78.01235-33.45298 55.79958-105.97905 55.79958-150.53841 11.10639-33.45298-44.55937-22.3466-117.08543 27.83288-144.91831 16.72648-11.10639 39.07308-16.72649 61.28586-16.72649 11.10638 0 27.83288 5.6201 39.07308 11.10639 27.83288 11.10639 39.07308 39.07308 55.79957 61.28586 5.6201 16.72649 5.6201 27.83288 5.6201 44.55937-5.6201 72.52606-72.52606 122.70554-144.91831 105.97904-83.63246-22.34659-122.70554-122.70553-72.52606-195.09778 11.10638-16.72649 22.34659-27.83288 39.07308-39.07308 78.01235-44.559372 167.2649-5.6201 200.71788 66.90596 39.07309 94.73884-39.07308 206.33797-139.43202 200.71788-27.83288-5.62012-55.79958-5.62012-78.01235-22.3466-22.34659-11.10638-27.83288-27.83287-39.07309-39.07307-66.90596-78.01235-33.45298-195.09778 55.79958-239.79097 39.07308-16.726484 83.63245-16.726484 128.19182-5.6201 94.73883 33.45298 139.43201 144.91832 94.73883 234.17087-11.10637 27.83288-33.45297 44.55935-55.79956 66.90596-22.34659 16.72649-50.17947 27.83289-78.01235 33.45298-44.55937 5.62012-89.25256-5.62009-128.19182-27.83286-94.73884-66.90598-117.08544-211.82429-22.3466-289.97045 16.7265-11.1064 27.83288-33.452984 50.17948-39.073085 33.45298-11.106392 66.90596-22.346593 105.97904-16.726492 27.83288 5.6201 55.79957 16.726492 78.01235 27.832879 16.72649 16.726488 39.07309 22.346598 50.17946 44.559368 11.10641 16.72649 27.8329 33.45298 33.45298 55.79957 22.34661 66.90596 16.72649 139.43203-27.83286 195.09781-16.72649 22.34657-33.45298 44.55934-61.28587 55.79954-22.34659 5.62012-39.07308 22.34661-61.28586 22.34661-39.07308 0-83.63245 5.62008-122.70553-11.10641-117.08543-44.55934-167.26491-195.09777-105.97905-306.69691 16.7265-33.45298 44.55937-61.285864 78.01236-83.632457 44.55936-22.34659 89.25255-33.452979 139.43202-27.832879 61.28586 5.6201 111.46532 39.07308 156.1585 83.632456 22.34661 22.34659 27.8329 50.17947 39.0731 78.01234 11.10637 16.7265 5.62008 39.07309 11.10637 61.28586 11.10645 172.88502-195.09777 301.07685-351.25629 211.82429-27.83287-16.72649-50.17946-27.8329-66.90596-50.17947-61.28586-72.52608-78.01235-167.26492-50.17947-256.51747 16.72649-33.45298 39.07309-61.28586 61.28587-89.252546 39.07308-39.073083 94.73884-55.799574 144.9183-72.526064" fill="#221b35" opacity=".9"/><path d="m231.45148 15.388371c-120.56454 21.008472-220.12061 131.001869-209.68329 256.785079 5.21867 41.88313 15.78981 78.68141 41.88314 115.34586 15.7898 15.65602 31.4458 31.44582 47.23561 47.1018 31.4458 21.0085 68.11026 41.88314 104.77473 47.23563 36.66447 5.21866 73.32893 5.21866 104.77473-5.21866 36.66447-15.65601 68.11026-31.44582 94.33742-57.67295 31.44579-36.66448 52.45425-78.68141 62.89161-131.00187v-57.67294c-5.2187-26.22714-10.43736-47.23561-21.00851-73.32894-10.43731-21.00847-26.22712-41.88313-47.10179-57.672935-26.22713-26.227136-57.67292-41.88313-94.33739-52.454272-26.22714-5.218666-52.45427-10.43733-83.90008-5.218666-73.32893 10.437332-131.00187 57.672938-162.44767 120.564543-10.43733 26.22713-15.78981 57.67294-21.00847 83.90008 0 31.44579 5.21866 62.8916 15.78981 89.11874 21.00847 41.88313 52.45427 83.90006 99.55607 104.77473 15.7898 5.21866 31.4458 10.43732 52.45427 15.65601 115.34588 21.00847 220.12062-52.45428 235.91043-167.66635 10.43732-73.32894-21.00847-131.00188-68.11026-178.23748-94.33742-83.900079-251.56643-41.883137-293.44956 73.32893-5.21867 26.22713-15.78981 52.45427-15.78981 78.68141 5.21866 73.32893 52.45427 141.573 125.78321 162.44767 57.67293 15.78981 115.34587 5.21866 162.44767-31.44578 10.43733-10.43736 21.00849-21.00849 31.4458-31.44582 57.67295-78.68141 41.88314-183.45615-41.88313-241.12909-26.22714-15.7898-52.45428-21.008465-83.90008-26.227131-21.00847-5.218666-41.88313 5.218666-62.8916 10.437331-26.22714 15.7898-47.23561 21.00847-68.11027 47.1018-26.22713 31.4458-31.4458 62.8916-36.66447 99.55606 0 52.45428 26.22714 110.12722 78.68142 136.22052 73.32893 41.88314 173.01881 10.43736 209.68327-68.11025 21.00847-52.45427 10.43736-120.56454-36.66446-162.44767-31.4458-26.22714-62.8916-36.66447-104.77473-36.66447-62.89161 5.21867-104.77474 52.45428-115.34588 115.34588-10.43733 68.11027 31.4458 131.00187 99.55607 141.57302 94.3374 15.65599 173.01881-83.90008 131.00187-167.66635-10.43733-15.7898-26.22714-36.66446-47.1018-47.2356-26.22713-10.43733-52.45427-15.656-78.68141-10.43733-31.4458 5.21866-52.45427 26.22713-68.11027 47.23561-15.7898 26.22713-15.7898 52.45427-10.43732 78.6814 10.43732 31.44581 36.66446 57.67295 68.11026 68.11027 41.88314 15.78981 83.90008-5.21866 104.77474-36.66446 31.4458-52.45428 5.21866-110.12721-47.1018-131.00187-47.23561-15.78981-115.34588 26.22713-99.55607 83.90007 5.21867 15.65599 10.43733 36.66447 26.22714 47.23561 21.00847 15.78981 47.10179 15.78981 68.11027 10.43733 21.00847-10.43733 36.66446-31.4458 36.66446-57.67294-5.21866-15.7898-5.21866-36.66447-21.00847-47.23561-13.11356-7.8949-27.5318-10.50423-40.62864-7.86145-13.09684 2.64279-24.87229 10.53769-32.70029 23.65126-5.21867 15.656-10.43733 31.4458 8.9654 42.15076 39.20689-46.70036 33.05154-.26763 27.96669-16.05744v5.21867c15.78981-5.21867 21.00847-21.00847 26.22714-31.4458 5.21866 5.21866 15.65599 10.43733 15.65599 21.00847 10.43733 36.66447-26.22714 68.11027-62.8916 57.67294-31.4458-10.43733-41.88313-47.23561-36.66447-78.68141 5.21867-21.00848 21.00847-36.66447 47.1018-41.88314 31.4458-5.21866 62.8916 10.43734 78.68141 36.66447 15.65599 26.22714 15.65599 47.23561 0 73.32893-31.4458 52.45428-99.55607 52.45428-141.57302 10.43734-31.4458-41.88313-21.00847-110.12722 26.22714-136.22054 15.78981-10.43733 36.66447-15.656 57.67294-15.656 10.43733 0 26.22714 5.21867 36.66447 10.43733 26.22713 10.43733 36.66446 36.66447 52.45427 57.67294 5.21866 15.78981 5.21866 26.22714 5.21866 41.88314-5.21866 68.11026-68.11026 115.34586-136.22053 99.55606-78.68141-21.00847-115.34588-115.34587-68.11027-183.45614 10.43733-15.656 21.00847-26.22714 36.66447-36.66447 73.32893-41.88313 157.22901-5.21866 188.67481 62.8916 36.66448 89.11874-36.66447 193.89349-131.00188 188.67483-26.22713-5.21866-52.45427-5.21866-73.32893-21.00848-21.00847-10.43734-26.22713-26.22714-36.66447-36.66447-62.8916-73.32893-31.4458-183.45615 52.45428-225.33928 36.66446-15.789805 78.68141-15.789805 120.56454-5.21866 89.11872 31.4458 131.00186 136.22053 89.11872 220.12061-10.43731 26.22714-31.44578 41.88313-52.45425 62.89162-21.00847 15.78977-47.23561 26.22712-73.32894 31.44578-41.88313 5.21866-83.90007-5.21866-120.56454-26.22712-89.11874-62.89162-110.12721-199.11215-21.00847-272.5749 15.656-10.43733 26.22714-31.445801 47.1018-36.664467 31.4458-10.437328 62.8916-21.00847 99.55607-15.655994 26.22713 5.218666 52.45427 15.655994 73.32893 26.227136 15.65599 15.789805 36.66446 21.008475 47.10181 41.883135 10.43732 15.7898 26.22713 31.4458 31.44578 52.45427 21.00847 62.8916 15.78981 131.00187-26.22712 183.45615-15.78981 21.00846-31.44582 41.88313-57.67295 52.45428-21.00847 5.21866-36.66446 21.00847-57.67294 21.00847-36.66446 0-78.68141 5.21866-115.34587-10.43735-110.12721-41.8831-157.22901-183.45614-99.55607-288.23087 15.7898-31.4458 41.88313-57.672937 73.32893-78.681407 41.88313-21.008474 83.90008-31.445802 131.00187-26.22714 57.67294 5.218666 104.77473 36.664468 146.79166 78.681417 21.00851 21.00847 26.22717 47.10179 36.66448 73.32893 10.43732 15.78981 5.21866 36.66446 10.43732 57.67293 10.43735 162.44767-183.45613 283.01222-330.24781 199.11215-26.22713-15.65601-47.23561-26.22713-62.8916-47.23563-57.67294-68.11025-73.32893-157.22899-47.23561-241.12907 15.78981-31.4458 36.66447-57.67293 57.67294-83.900069 36.66447-36.664468 89.11874-52.454275 136.22054-68.11027" opacity=".9"/></g></g><g><path d="m122.9082 35.220703a250.00001 250.00001 0 0 0 -110.281247 137.642577c20.823703 17.51773 41.075249 35.95737 62.599609 56.14453 29.364098 30.92597 43.544018 73.48938 22.654297 111.36133l-12.585937 22.26953c55.644938 32.04905 105.960048 61.2279 157.705078 90.99024 10.29239-19.19532 15.28184-28.08599 35.3418-23.01758 11.67618 3.03372 27.30924 11.54422 44.3789 21.82226 9.54805 8.99676 19.30282 17.70027 29.14258 26.29688 27.86186-13.26227 52.4631-28.0412 73.75-49.32813 2.73305-3.19219 5.36255-6.43651 7.94727-9.70507a250.00001 250.00001 0 0 0 32.52929-45.39258c-12.85955-10.86602-25.40091-22.16758-37.44726-34.1875-18.65426-23.63943-27.19686-41.95976-24.99414-62.4668 8.66975-30.58714 7.12513-64.05347 1.28711-93.125-5.98106-29.78376-14.22535-54.01385-30.1875-69.32617-26.68274-25.978965-62.42553-37.919273-98.77149-37.013673-19.93444.638521-36.30739 4.10307-51.84961 9.847656-26.26913 5.827578-47.16453-4.547538-76.35156-28.351562-8.68792-7.791965-16.93187-15.987975-24.86719-24.460938z"/><path d="m107.60938 45.449219a250.00001 250.00001 0 0 0 -88.044927 109.226561c.421665.34587 1.051108.81828 1.451172 1.15039 23.170368 19.2349 67.054687 60.54297 67.054687 60.54297 33.419528 35.05533 50.952648 86.68006 25.572268 132.69336l-3.89844 6.89844c45.32299 26.14139 86.71807 50.13746 126.6543 73.10547l3.6289-6.28125c25.34384-24.10922 57.74632-6.51167 93.46875 15.10546 0 0 22.44343 20.69537 35.59571 32.1504 20.87132-11.14169 39.73765-23.85482 56.52148-40.63868 2.73305-3.19219 5.36255-6.43651 7.94727-9.70507a250.00001 250.00001 0 0 0 21.83398-27.4668c-.01192-.00993-.0291-.02133-.04101-.03125-14.5667-12.1386-40.26758-40.17969-40.26758-40.17969-20.51961-25.83822-32.54398-49.82345-29.27149-77.2207 16.31225-53.96748-4.53039-128.4316-23.55859-146.64649-7.22125-7.08417-15.17519-13.53806-24.70117-18.64648-19.34166-11.167258-42.95044-13.908045-64.31446-13.222657-15.15347.484342-30.27281 3.708604-44.63671 9.224607-33.54748 7.67269-61.55513-6.794301-92.66993-32.244138 0 0-16.20185-15.256091-28.32421-27.814453zm167.88085 68.119141c2.93185-.0673 5.89612.03942 8.94336.37695-6.22743 17.21147 35.16009 34.82717 44.83594 13.8086 25.13411 15.59349 40.91466 42.32744 46.64063 71.69336 5.72596 29.36592 1.39814 61.36355-13.6836 87.48828-1.93409 3.63776-4.92771 6.36934-7.79883 9.48242 6.81733 3.96062 11.64398 10.76742 11.10938 19.53125 5.32226.87638 10.21345 4.85028 9.85156 10.70898-.72651 11.85265-12.61055 13.0178-18.875 8.11133-14.18753 10.65824-39.93305 1.31483-39.83984-17.67773-1.78658.63787-3.54601 1.26157-5.36914 1.91406l-24.78711-25.2168-12.19531 11.96485 19.70703 20.04882c-9.88787 4.45046-19.62648 10.17231-28.21485 18.75977-3.05775 3.62867-5.07841 8.17475-7.45703 12.2832l-13.53515-7.82617 9.42382-16.33398-14.79297-8.53907-9.42578 16.33594-12.47851-7.19726 9.42383-16.33399-14.79493-8.53906-9.42187 16.33594-12.73828-7.36914 9.42578-16.33594-14.79492-8.53711-9.42383 16.33594-13.93555-8.02539 6.08203-10.50977c5.0536-11.52366 3.72003-26.22147 2.68555-35.92383l27.64453 7.13672 4.28321-16.5332-34.75391-8.9668c-4.57368-21.60946-3.5875-41.59122 1.3125-57.48828 9.30079-16.11299 24.40859-32.16432 37.38281-41.41016 1.77653 17.83563 26.59724 26.16244 40.38086 15.59375 7.20479 11.50265 30.69591 12.30956 31.95703-8.19726.73108-11.90748-12.94883-18.66879-23.18945-15.42188-.77403-4.64876-3.14511-8.60353-6.45508-11.67773 9.57217-1.87091 18.07556-3.64771 26.87109-3.84961zm7.08789 52.45312c-5.86509-.0585-11.61503 3.48442-12.13867 12.02344-.83892 13.67122 24.01322 18.21671 25.13086 0 .44778-7.26146-6.34757-11.95581-12.99219-12.02344zm-74.73828 4.36914c-8.36631.25314-16.62599 4.24151-22.95898 13.65235-17.51852 26.03561 31.05197 66.59619 55.46094 34.98242 7.20845 3.67552 18.00408 1.46635 18.73242-10.39453.488-7.93953-7.68776-12.79646-14.84961-11.9082-4.65516-14.23049-20.71027-26.80358-36.38281-26.33204zm105.32227 60.4004c-8.36631.25223-16.626 4.21129-22.95899 13.62304-17.88955 26.58668 33.1312 68.33027 56.97266 32.89844 13.13752-19.52534-10.87953-47.21966-34.01367-46.52148zm-51.63281 8.11132-45.0918 31.70118 40.18164 23.21679 4.91211-54.91797zm-108.77735 76.70704 13.9375 8.02343-10.19531 17.64844 14.79297 8.53906 10.19531-17.64843 12.73828 7.36718-10.19531 17.64844 14.79102 8.53711 10.19531-17.64649 12.48047 7.19532-10.19531 17.65039 14.79101 8.53711 10.19531-17.64649 13.53711 7.82227-19.70703 34.09961-97.06836-56.03125zm169.34571 33.79882c5.80112-.15992 13.68793 9.91998 8.59961 17.60547-3.17472 4.79315-7.33058 6.22357-11.16602 5.625 2.23528 6.07072 2.03927 12.84729-1.9707 18.9043-19.96034 30.14155-58.1029-2.28727-43.12305-24.90235 9.88604-14.92866 24.24559-14.51174 34.38477-7.53906 1.27352-6.52068 8.66855-9.51692 13.27539-9.69336zm40.32617.72657h.00195c9.4154.095 19.0523 6.72956 18.41992 17.01953-1.58554 25.81263-36.77382 19.3709-35.58398 0 .74296-12.09939 8.8552-17.1036 17.16211-17.01953zm41.00976 30.29882c5.9903.0603 12.14129 4.2774 11.73829 10.82422-1.00706 16.42191-23.40499 12.3242-22.64649 0 .47155-7.69462 5.62249-10.87722 10.9082-10.82422zm-54.28906 14.50782h.00195c5.98969.06208 12.1393 4.27899 11.73633 10.82421-1.00798 16.42191-23.43336 12.32419-22.67578 0 .47241-7.69368 5.65155-10.87641 10.9375-10.82421z" fill="#775fa0" stroke-width="36"/></g></svg>