<svg height="500" viewBox="0 0 500 500" width="500" xmlns="http://www.w3.org/2000/svg" xmlns:xlink="http://www.w3.org/1999/xlink"><filter id="a" color-interpolation-filters="sRGB" height="1.327353" width="1.315346" x="-.157673" y="-.163676"><feGaussianBlur stdDeviation="6.4403634"/></filter><g transform="translate(.000015)"><circle cx="249.99998" cy="250" fill="#e51a1a" r="250"/><path d="m181.33938 83.856939c97.52275-31.84694 203.27597 26.159281 217.12696 131.568651 10.04116 85.89723-45.79566 162.6049-131.11288 174.6444-76.26503 6.65-147.16573-45.4981-149.44603-126.3231.16679-50.89801 30.03241-87.97493 76.60677-108.40662 44.00125-16.48183 90.46555-3.00917 112.28155 39.63622 17.95322 40.0953 3.57775 87.31302-40.4313 103.80676-21.98685 8.23292-51.6578-5.55285-56.72562-31.5612 24.48155 21.7253 69.7211 11.74379 80.1808-21.06198 5.24648-24.88185-11.48198-41.52298-24.36368-55.64156-23.21161-15.22125-63.26956-13.16738-85.32502 12.05139-41.51846 46.43224-18.48961 112.52397 35.72777 131.08081 60.66482 17.11352 118.96473-29.63961 126.96137-92.39988 2.7637-54.83226-40.99398-106.19486-96.51046-114.27807-76.21988-10.3001-138.45939 50.84936-147.743191 124.09106-9.31956 73.21828 47.315731 138.67973 111.863041 158.33924 49.05305 9.49897 98.18701 2.07129 139.64056-27.40671 82.90715-58.95602 100.11901-177.97214 43.55644-260.39974-52.71171-79.885311-158.575-103.987181-249.15842-67.061741-86.705021 39.45169-149.0660905 134.549061-117.102931 229.167621 15.77888-74.65377 50.93986-153.5943 123.407351-187.514491 9.28724-4.60517 19.44718-8.7232 30.56692-12.33106zm-160.722321 286.075591c-52.57825-113.8254-.38403-260.89182 113.777041-317.643861 10.84604-5.32012 22.21219-9.7712 34.03518-13.36069 115.76394-28.75816 246.03978 34.00351 263.68455 158.897471 10.04526 85.91695-27.72044 168.80365-107.97396 206.83173-102.24035 46.26108-224.798841-11.43986-234.690511-131.24969-7.33455-123.78718 127.307171-194.136761 222.718561-137.24102-42.54074-27.89653-94.21826-33.44528-140.80825-12.98978-71.17376 32.62266-105.080851 118.0397-80.762351 190.63139 30.697281 88.13423 123.572931 132.04164 212.817841 105.59803 82.80488-25.06359 132.16266-100.33164 140.19255-180.04986 12.12434-145.020371-132.23823-245.3588802-265.59709-221.973611 7.92036-4.10499 20.5989-8.4277792 35.61563-11.7452592 60.06317-13.23825 124.63426-3.45807 179.45368 32.4903392 109.65077 71.904621 141.09454 217.803071 65.16008 333.599141-143.00482 218.07486-377.311781 117.06797-437.622951-1.79433" fill="#b21a1a"/></g><g><path d="m25.074219 188.47852c-1.099873 33.43053 10.036129 61.88668 27.083984 85.38086 17.047855 23.49417 39.586297 42.66518 62.880857 61.27929 46.58913 37.22822 95.72606 72.26129 118.07813 124.83203l17.01953 40.0293 16.24414-40.34961c21.2074-52.68434 68.7619-89.3989 114.66601-127.33594 45.90412-37.93704 91.74618-79.12569 93.87305-142.64062 2.08583-62.28304-37.34324-105.289494-85.12695-118.132813-47.36815-12.731625-103.34605 1.001451-140.42188 43.115233-20.21171-30.293315-67.43076-48.72066-98.18653-49.131815-62.944954.112712-123.656649 48.384355-126.110341 122.954085z" fill="#861313"/><path d="m276.44706 282.03587c0 21.84822-17.90208 39.54923-39.96874 39.54923-3.5739 0-7.04657-.46457-10.34318-1.33358 5.04923-3.61726 8.44532-10.24773 8.44532-17.81608 0-11.44447-7.76136-20.70115-17.3035-20.70115-14.99889 3.85793-20.68012 18.1843-15.18469 30.58977 5.60557 20.59134 24.4962 35.65393 47.12094 35.65393 27.07716 0 48.85509-21.56407 48.85509-48.37534 0-21.63379-14.18998-39.83687-33.89002-46.06028 7.54965 7.1979 12.26878 17.2957 12.26878 28.4935z" fill="#e51a1a" filter="url(#a)"/><path d="m151.20067 83.522687c-54.025356.097622-105.987797 40.272683-108.13566 105.548003-3.85559 117.19033 156.87851 146.87448 206.61739 263.85737 47.08574-116.97243 203.5602-153.71154 207.24854-263.8565 3.67953-109.871274-130.19571-136.659878-194.92561-61.58659-6.26402 13.44573-6.76489 26.88361-4.75876 34.29331 19.05261 70.40834 56.83035 89.81077 56.83035 145.88868 0 31.7255-31.34647 54.66848-64.34082 54.66848-32.269 0-65.63571-24.54939-65.63571-57.96323 0-58.44961 38.47932-69.78513 58.26343-142.89464 2.338-8.63782-1.21477-28.51094-12.86075-44.46566-22.38269-23.067171-50.613-33.539777-78.3024-33.489223zm125.24639 198.513183c0 21.84822-17.90208 39.54923-39.96874 39.54923-3.5739 0-7.04657-.46457-10.34318-1.33358 5.04923-3.61726 8.44532-10.24773 8.44532-17.81608 0-11.44447-7.76136-20.70115-17.3035-20.70115-14.99889 3.85793-20.68012 18.1843-15.18469 30.58977 5.60557 20.59134 24.4962 35.65393 47.12094 35.65393 27.07716 0 48.85509-21.56407 48.85509-48.37534 0-21.63379-14.18998-39.83687-33.89002-46.06028 7.54965 7.1979 12.26878 17.2957 12.26878 28.4935z" fill="#ff8066" stroke-width="36"/></g></svg>