<svg height="500" viewBox="0 0 500 500" width="500" xmlns="http://www.w3.org/2000/svg" xmlns:xlink="http://www.w3.org/1999/xlink"><radialGradient id="a" cx="1362.7291" cy="216.11429" gradientTransform="matrix(1.0000001 -.0000059 .0000001 1.0000003 -112.72927 33.893757)" gradientUnits="userSpaceOnUse" r="250"><stop offset="0" stop-color="#ff851a"/><stop offset=".42441937" stop-color="#f87000"/><stop offset=".86367416" stop-color="#f26900"/><stop offset="1" stop-color="#e55f00"/></radialGradient><g transform="translate(-1000)"><path d="m1500 250a250 250 0 0 1 -250 250 250 250 0 0 1 -250-250 250 250 0 0 1 250-250 250 250 0 0 1 250 250z" fill="url(#a)"/><path d="m1309.2298 33.82789c128.5196 30.706851 207.8974 167.48127 169.5927 291.56949-31.3771 95.69524-112.8693 162.03793-212.5543 174.60263 153.1796-8.09118 266.0956-163.0043 218.7012-309.92978-36.4562-114.666588-154.6038-191.5214848-270.6514-169.822657-18.8526 4.215647-38.4387 10.498641-55.8829 18.694487-112.5353 47.459213-168.47522 196.206-99.9632 307.85319 57.6978 93.63045 168.5136 141.8489 267.9993 100.77239-134.92 68.97589-303.283-51.46877-311.488-201.30723-4.4167-117.68321 76.8182-219.674136 190.654-246.26040176-89.0147 9.18391126-152.6601 79.39239576-187.7408 157.21169176-38.45522 102.70317 5.2337 231.75078 109.038 294.08388 114.5107 66.1048 260.3537 29.37245 323.6836-83.60152 42.2104-77.69758 34.3514-177.62383-23.1776-249.88923-57.5404-72.257811-157.5429-102.460489-246.4118-71.877168-81.7429 30.682061-131.1298 101.133078-134.0478 190.176958.6692 92.68536 61.7912 168.55972 147.5399 198.52472 128.5549 37.82014 266.7725-70.33038 233.6823-209.88949-14.7104-64.39775-57.8855-122.14991-125.7378-141.121386-71.391-15.467036-138.9716 1.205-181.2869 64.641366-18.8995 29.2286-28.9384 85.21395-26.105 97.65297m0 0c13.5324-50.18833 30.6277-97.66354 72.2125-128.94941 53.182-38.308183 124.4576-37.093813 181.7444-.48035 50.1457 36.48017 75.4845 90.37713 72.3557 150.91678-6.6674 64.04407-38.4038 109.83277-91.6401 141.00844-63.9019 34.56125-135.3795 4.83213-189.1258-35.28385-78.8706-65.48566-79.7477-186.67235-8.9744-256.76104 63.7369-55.941605 167.0207-64.891564 238.7167-6.65053 78.8163 58.35315 90.3045 169.04089 40.972 246.62443-35.2274 56.41892-88.4571 87.60135-152.5581 93.63158-81.9488 2.18264-160.666-41.91503-196.8695-120.9383-36.2055-79.02511-22.5771-164.33167 26.8727-227.66064 49.4316-63.30896 138.3491-86.746364 220.4504-67.54202" fill="#c50"/></g><g><path d="m227.4043 81.361328c3.47929 12.483762 5.06258 18.669572 3.94726 38.677732-2.672 21.15102-7.33608 64.27057-21.60937 79.01367-17.73581-25.99216-25.7902-56.64386-36.53321-86.2207l-15.04687 54.24024c-16.80811 60.59444-39.29903 90.56395-47.23438 95.82031-5.32529-19.09653-2.93461-41.39044-2.95705-63.74414l-31.31445 34.68359c-23.858737 26.42705-25.11352 61.47528-16.28125 91.75195 12.507023 37.7024 38.518458 79.50887 68.47266 102.9668 18.00578 13.78989 42.68359 22.05081 68.97851 14.63672 18.40923-4.21376 43.98066-14.83354 60.64853-14.29093 17.40245.82719 50.27734 14.28125 50.27734 14.28125 40.76697 11.57974 81.84057-6.77195 97.67875-26.40075 15.83819-19.62879 24.8907-33.28536 31.17669-48.22034 11.33288-29.71997 5.51531-45.35517-5.20508-72.69727l-15.35742 13.01563c11.76011-43.79231 3.39493-88.18067-9.33789-129.7832l-17.99805-58.80664c-8.30286 27.57695-15.05779 57.83926-24.375 84.0039-6.38834-19.458-16.7902-39.15908-29.14257-58.03515-25.34183-38.72569-50.40046-67.136046-84.42383-90.443363-13.32951-9.131229-44.9883-18.04301-44.9883-18.04301s16.30914 28.10836 20.62498 43.593701z" fill="#994100"/><path d="m175.50741 171.88377c-35.37896 127.54373-85.43129 133.00917-85.490332 74.01071-18.979146 21.02219-20.147371 47.96265-12.362758 74.648 4.889066 16.75949 13.309457 33.41837 23.06681 48.44731 22.63553 33.21316 50.8148 68.54894 92.22122 56.87403-33.87975-29.52283-56.65121-57.54651-60.62942-100.3139 34.90678 6.95206 53.0146 15.46378 59.95582-45.77751 44.81101 63.884 74.47646-36.42842 101.21432-79.03054-1.21516 29.74712-2.46647 68.94957 16.85725 95.82822 6.44542 8.95881 24.51855 11.88557 40.38421 11.66202-7.319 11.86343-33.08885 51.18393-12.54851 65.8096s24.40051-.28331 19.07655 11.93427c-9.78617 15.40475-16.96349 29.04991-43.58331 39.88637 32.31686 9.17951 67.50034-6.39261 85.90279-29.00077 15.55376-19.72338 33.2144-50.71076 25.26224-70.99367-16.24266 13.76467-32.29645 22.79505-45.2227 21.79168 36.24073-53.17889 27.91835-107.6437 10.88402-163.30077-14.92127 53.40242-24.70744 60.86282-40.26615 73.42344 21.47291-50.65347-63.03762-158.214537-108.09615-186.76756 25.29805 36.01489-17.36522 236.48701-66.6259 100.86907z" fill="#ffa348" stroke-width="35.9999"/></g></svg>