<svg height="500" viewBox="0 0 500 500" width="500" xmlns="http://www.w3.org/2000/svg" xmlns:xlink="http://www.w3.org/1999/xlink"><radialGradient id="a" cx="1362.7291" cy="216.11429" gradientTransform="matrix(1.0000001 -.0000059 .0000001 1.0000003 -112.72927 33.893757)" gradientUnits="userSpaceOnUse" r="250"><stop offset="0" stop-color="#ff851a"/><stop offset=".42441937" stop-color="#f87000"/><stop offset=".86367416" stop-color="#f26900"/><stop offset="1" stop-color="#e55f00"/></radialGradient><g transform="translate(-1000)"><path d="m1500 250a250 250 0 0 1 -250 250 250 250 0 0 1 -250-250 250 250 0 0 1 250-250 250 250 0 0 1 250 250z" fill="url(#a)"/><path d="m1309.2298 33.82789c128.5196 30.706851 207.8974 167.48127 169.5927 291.56949-31.3771 95.69524-112.8693 162.03793-212.5543 174.60263 153.1796-8.09118 266.0956-163.0043 218.7012-309.92978-36.4562-114.666588-154.6038-191.5214848-270.6514-169.822657-18.8526 4.215647-38.4387 10.498641-55.8829 18.694487-112.5353 47.459213-168.47522 196.206-99.9632 307.85319 57.6978 93.63045 168.5136 141.8489 267.9993 100.77239-134.92 68.97589-303.283-51.46877-311.488-201.30723-4.4167-117.68321 76.8182-219.674136 190.654-246.26040176-89.0147 9.18391126-152.6601 79.39239576-187.7408 157.21169176-38.45522 102.70317 5.2337 231.75078 109.038 294.08388 114.5107 66.1048 260.3537 29.37245 323.6836-83.60152 42.2104-77.69758 34.3514-177.62383-23.1776-249.88923-57.5404-72.257811-157.5429-102.460489-246.4118-71.877168-81.7429 30.682061-131.1298 101.133078-134.0478 190.176958.6692 92.68536 61.7912 168.55972 147.5399 198.52472 128.5549 37.82014 266.7725-70.33038 233.6823-209.88949-14.7104-64.39775-57.8855-122.14991-125.7378-141.121386-71.391-15.467036-138.9716 1.205-181.2869 64.641366-18.8995 29.2286-28.9384 85.21395-26.105 97.65297m0 0c13.5324-50.18833 30.6277-97.66354 72.2125-128.94941 53.182-38.308183 124.4576-37.093813 181.7444-.48035 50.1457 36.48017 75.4845 90.37713 72.3557 150.91678-6.6674 64.04407-38.4038 109.83277-91.6401 141.00844-63.9019 34.56125-135.3795 4.83213-189.1258-35.28385-78.8706-65.48566-79.7477-186.67235-8.9744-256.76104 63.7369-55.941605 167.0207-64.891564 238.7167-6.65053 78.8163 58.35315 90.3045 169.04089 40.972 246.62443-35.2274 56.41892-88.4571 87.60135-152.5581 93.63158-81.9488 2.18264-160.666-41.91503-196.8695-120.9383-36.2055-79.02511-22.5771-164.33167 26.8727-227.66064 49.4316-63.30896 138.3491-86.746364 220.4504-67.54202" fill="#c50"/></g><g><path d="m168.97656.13476562c-37.1736-.07258084-80.002302 8.61431658-121.675779 17.86328138 26.299992 6.139803 51.393521 13.486998 79.361329 17.958984 83.34899 8.000936 131.1252 29.926898 151.35742 51.66211 19.38365 22.974169 16.55601 45.137029 2.05469 66.345699-34.09863 48.89618-145.40743 95.82792-275.0332044 63.30274l-2.5507812-.64063c-1.55780905 11.04212-2.4211345 22.18657-2.4902344 33.37305 0 102.40128 61.595359 190.37237 149.73242 229.01758 113.47374-23.22468 201.67794-72.05507 257.99024-130.9961 39.50365-41.34772 63.49523-87.96827 67.91796-134.57617 4.42275-46.60789-11.78165-92.82927-49.05859-128.968748-18.22345-16.428331-30.0365-23.785543-62.17578-39.302734 34.76664 53.176792 60.75612 109.527372 48.21289 161.687502-8.18639 32.24898-27.86671 64.42194-55.46484 93.14062 10.86146-15.23164 20.07354-31.0399 27.3789-47.14257 20.11584-44.3398 26.2254-91.42194 13.02735-133.81836-13.19807-42.396443-46.24465-78.799645-99.58789-100.748051-44.88319-11.6594556-91.82249-18.08562253-128.9961-18.15820338z" fill="#994100"/><path d="m140.7168 18.009766c-4.07112-.01921-8.18032-.009023-12.33594.029296 342.75436 32.902089 143.70751 284.793178-127.72070375 216.687498v28.10547c200.40164375 49.95562 390.69314375-79.76772 321.87304375-178.89453 71.29445 52.32917 10.49159 219.65498-208.77929 250.86523 76.86344-17.08618 145.7059-55.70353 181.27343-108.28906v-.00195c-72.27209 70.85346-187.27657 94.7169-288.3124962 80.95898 5.7896612 24.59813 15.1938812 47.78863 27.6523442 68.98633 92.222032 6.39722 196.757682-23.61321 270.712892-98.23633-51.06824 72.98859-148.27441 123.29923-244.484377 134.85157 17.857595 20.72216 39.035707 38.48119 62.740237 52.44335 281.16876-47.53191 409.68289-252.77923 290.71679-368.115229 87.27744 149.444429-115.09104 325.363919-295.84765 325.744139 241.66875-36.46717 366.79757-308.18393 174.08398-387.818358-41.94497-10.811493-92.27607-17.051401-151.57226-17.316406z" fill="#ffa348" stroke-width="36"/></g></svg>