<svg height="500" viewBox="0 0 500 500" width="500" xmlns="http://www.w3.org/2000/svg" xmlns:xlink="http://www.w3.org/1999/xlink"><radialGradient id="a" cx="1362.7291" cy="216.11429" gradientTransform="matrix(1.0000001 -.0000059 .0000001 1.0000003 -112.72927 33.893757)" gradientUnits="userSpaceOnUse" r="250"><stop offset="0" stop-color="#ff851a"/><stop offset=".42441937" stop-color="#f87000"/><stop offset=".86367416" stop-color="#f26900"/><stop offset="1" stop-color="#e55f00"/></radialGradient><g transform="translate(-1000)"><path d="m1500 250a250 250 0 0 1 -250 250 250 250 0 0 1 -250-250 250 250 0 0 1 250-250 250 250 0 0 1 250 250z" fill="url(#a)"/><path d="m1309.2298 33.82789c128.5196 30.706851 207.8974 167.48127 169.5927 291.56949-31.3771 95.69524-112.8693 162.03793-212.5543 174.60263 153.1796-8.09118 266.0956-163.0043 218.7012-309.92978-36.4562-114.666588-154.6038-191.5214848-270.6514-169.822657-18.8526 4.215647-38.4387 10.498641-55.8829 18.694487-112.5353 47.459213-168.47522 196.206-99.9632 307.85319 57.6978 93.63045 168.5136 141.8489 267.9993 100.77239-134.92 68.97589-303.283-51.46877-311.488-201.30723-4.4167-117.68321 76.8182-219.674136 190.654-246.26040176-89.0147 9.18391126-152.6601 79.39239576-187.7408 157.21169176-38.45522 102.70317 5.2337 231.75078 109.038 294.08388 114.5107 66.1048 260.3537 29.37245 323.6836-83.60152 42.2104-77.69758 34.3514-177.62383-23.1776-249.88923-57.5404-72.257811-157.5429-102.460489-246.4118-71.877168-81.7429 30.682061-131.1298 101.133078-134.0478 190.176958.6692 92.68536 61.7912 168.55972 147.5399 198.52472 128.5549 37.82014 266.7725-70.33038 233.6823-209.88949-14.7104-64.39775-57.8855-122.14991-125.7378-141.121386-71.391-15.467036-138.9716 1.205-181.2869 64.641366-18.8995 29.2286-28.9384 85.21395-26.105 97.65297m0 0c13.5324-50.18833 30.6277-97.66354 72.2125-128.94941 53.182-38.308183 124.4576-37.093813 181.7444-.48035 50.1457 36.48017 75.4845 90.37713 72.3557 150.91678-6.6674 64.04407-38.4038 109.83277-91.6401 141.00844-63.9019 34.56125-135.3795 4.83213-189.1258-35.28385-78.8706-65.48566-79.7477-186.67235-8.9744-256.76104 63.7369-55.941605 167.0207-64.891564 238.7167-6.65053 78.8163 58.35315 90.3045 169.04089 40.972 246.62443-35.2274 56.41892-88.4571 87.60135-152.5581 93.63158-81.9488 2.18264-160.666-41.91503-196.8695-120.9383-36.2055-79.02511-22.5771-164.33167 26.8727-227.66064 49.4316-63.30896 138.3491-86.746364 220.4504-67.54202" fill="#c50"/></g><g stroke-linejoin="round"><path d="m58.896484 343.78516c-4.413964 21.68735 4.495197 41.16071 10.205078 62.11718 2.365276 8.67764 10.772407 14.27794 19.691407 13.11719 26.097211-3.39798 52.193821-6.79735 78.291011-10.19531 8.62799-1.12365 15.21747-8.25739 15.6543-16.94727.64937-13.94076 4.50785-32.78558-8.99023-39.71093-23.35818-12.21574-48.64551-25.18222-71.72461-33.64454-22.086582-5.86978-39.25415 1.51148-43.126956 25.26368z" fill="#994100"/><path d="m269.23047 104.33789c-7.9019-5.679666-19.81768-6.882454-28.81836-5.830078-19.42753 2.570178-40.16949 5.952528-58.05859 7.349608-18.61979-8.267448-40.96447-18.220433-57.90039-11.644529-14.70347 6.090539-21.41463 19.262569-25.322271 29.249999-5.63077 14.43566-18.403311 44.83255-13.957031 58.33984-8.55963 2.76866-17.120054 5.53603-25.679687 8.30469-6.119842 1.98012-10.718183 7.07508-12.0625 13.36524-4.790188 22.41122-9.580907 44.8212-14.371094 67.23242-2.227995 10.4281 5.04629 20.49642 15.646484 21.65625 15.687758-.7269 38.912019 8.32031 51.632809 3.74219 5.01921 6.82627 10.0394 13.65225 15.0586 20.47851 3.27908 4.45866 8.42688 7.16113 13.95898 7.32813l49.29883 1.49023c11.43456-2.18495 19.99422-10.2384 26.32617-18.09375 3.30349 1.38934 5.99557 3.11227 9.00391 4.41016-2.97556 4.49645-5.83741 9.87771-5.89063 14.74609-.009 16.30163-.0198 32.60366-.0293 48.90625-.004 9.08143 6.75636 16.74398 15.76757 17.87109l83.64649 10.45508c15.54388-.91641 34.49389-12.37274 47.52148-18.0957 7.73566-3.39958 12.06579-11.72189 10.41016-20.00781-1.68232-8.41674-3.36456-16.83326-5.04688-25.25 20.25926 8.12978 43.36317 10.84107 58.59375 14.07226 13.19375 1.27559 24.89277-9.02494 34.89258-14.78711 9.50631-5.47857 11.94243-18.11429 5.1543-26.73437-4.61486-5.85959-9.2321-11.72053-13.84766-17.58203 3.97827-4.1149 5.7627-9.87639 4.80664-15.51953-4.24107-23.04595-7.63064-47.7651-14.19728-67.966s-3.46591-49.13451-23.68943-73.24885c-30.0932-35.88287-76.77823-39.741926-105.79882-54.124998-15.67741-7.018999-27.85173 10.458957-37.04883 19.886718z" fill="#994100"/><path d="m216.41883 183.25364-23.15976 74.30616c5.54405 10.44515 9.66148 22.33694 16.08879 31.88642 5.64455 1.05906 13.48824 9.17219 17.69296 5.61277 9.13256-15.08802 18.26512-30.17603 27.39768-45.26404 6.45935-3.36618 12.74328-3.27362 18.82272.85137 14.66586 6.34668 29.33173 12.69338 43.99759 19.04006 5.56456-4.24429 13.91997-6.07939 17.53585-12.21767 6.17562-10.48367 3.73191-36.31093 3.73191-36.31093 3.27374 15.30203 10.88546 30.29401 9.82119 45.90608-.34666 5.08523-13.33904 11.49204-5.19862 14.38026 7.12998 7.47649 5.5087 19.02497 8.54878 28.4045.0136 11.6166 6.56372-2.17613 10.35448-5.24243 12.97489-15.40425 25.94979-30.80848 38.92469-46.21273 7.24074-.46903 14.28767-.54991 17.4684 7.1116 4.60525 5.84767 9.2105 11.69533 13.81576 17.54299-4.3318-23.53894-7.68911-47.30639-15.54469-70.01901-6.14318-20.96243-4.39288-46.15008-18.42955-62.88728-23.90637-28.50574-66.66794-33.04169-100.00191-49.56254-27.28876 27.55814-54.57751 55.11628-81.86627 82.67442zm-110.47111-27.81377c-1.31952 7.88011-2.63905 15.76022-3.95857 23.64034 7.71484-1.86301 15.75669-6.33491 23.27625-6.64004 6.41049 3.00641 11.06237 7.26937 12.97637 14.21424l20.56146 43.29618c6.39517-2.14094 12.85275-5.74765 18.94917-.87143 5.65382 5.1453 5.991 11.14449 8.29227-.38572 4.45152-15.91854 10.85746-31.57427 14.09815-47.65561-.2842-8.77915-.56839-17.55831-.85258-26.33747-11.70981-.61963-24.31205 2.9383-35.39067-1.13273-9.88065-3.63082-16.47183-13.11179-24.70775-19.66769 10.50879 2.65032 20.58023 8.28438 31.46283 8.92621 11.89967.70182 23.61418-7.94089 35.31208-5.64878 8.20723 1.60814 14.29812 8.68001 21.44718 13.02003l31.20246-31.51047c-10.07624-5.76392-21.72229-.46778-32.55505.17547-15.50431.92065-30.83119 4.69089-46.29649 5.26472-16.14088-4.42793-32.95953-19.68898-48.42264-13.28378-15.8044 6.54657-16.92965 29.73102-25.39447 44.59653zm239.81918-13.42244c21.56 8.48131 33.01317 34.57196 40.46981 56.50743 5.74325 16.89513 1.20801 35.66877 1.81202 53.50317-7.6477-17.18982-11.62519-36.48907-22.5535-51.84195-14.54498-20.43383-36.91111-33.97001-55.36667-50.95501 11.87945-2.40454 24.35931-11.6506 35.63834-7.21364zm-225.4916 47.34915c-18.41372 5.95602-36.827432 11.91203-55.241146 17.86806-4.790192 22.41124-9.580383 44.82249-14.370575 67.23373 14.560921 1.59258 29.121843 3.18514 43.682764 4.77771-1.038073-9.0504 9.143707-12.83345 13.946107-19.14194 5.96509-6.59711 14.40214-12.34268 18.8107-19.47599-2.27584-17.08719-4.55258-34.17433-6.82785-51.26157zm48.75159 53.45181c-10.81433 4.19927-22.95896 6.21726-32.9188 11.81765-8.54444 8.28779-17.08889 16.5756-25.63334 24.86339 6.47522 8.8065 12.95044 17.613 19.42565 26.41949l49.30027 1.48929c4.16734-5.01197 11.64782-9.4407 13.71432-14.8225-7.96257-16.58913-15.92614-33.17805-23.8881-49.76732zm95.1726 20.70456-38.10396 62.94903c-.009 16.30231-.0189 32.60461-.0284 48.90692l83.6469 10.45584c12.68268-5.57143 25.36537-11.14286 38.04805-16.71429-5.06425-25.33676-10.12849-50.67352-15.19273-76.01027-22.7897-9.86259-45.5815-19.72379-68.36988-29.58723zm142.5069 12.05298c-13.4283 15.94167-26.8566 31.88336-40.2849 47.82503 16.85572 6.90188 39.60038 9.86732 56.27314 13.40447 7.39025-4.25845 14.78051-8.51692 22.17076-12.77537-12.71956-16.15031-25.43999-32.30919-38.159-48.45413zm-119.00831 13.60047c11.24592 6.51692 25.84299 9.22538 33.73774 19.55078 9.08386 11.88063 7.68839 28.90592 11.53258 43.35888-8.14685 6.51949-14.17747 17.0126-24.16683 20.34109-11.91309 3.96948-25.07411-1.41532-37.61116-2.12297 23.9785-14.00656 42.5169-32.21376 34.60932-58.60776-3.00715-9.14959-12.06884-15.01298-18.10165-22.52002zm-204.997837 46.08068c-7.521455 4.6161-7.202649 16.63716-7.253379 25.46202-.08033 13.97475 11.021892 40.45019 11.021892 40.45019 26.097234-3.39798 52.194454-6.79596 78.291684-10.19393l1.1352-22.61153c-18.7282-9.07864-36.25111-21.12015-55.98624-27.80678-8.75149-2.96517-19.333852-10.13324-27.209157-5.29997z" fill="#ffa348" stroke-width="36"/></g></svg>