<svg height="500" viewBox="0 0 500 500" width="500" xmlns="http://www.w3.org/2000/svg" xmlns:xlink="http://www.w3.org/1999/xlink"><radialGradient id="a" cx="1362.7291" cy="216.11429" gradientTransform="matrix(1.0000001 -.0000059 .0000001 1.0000003 -112.72927 33.893757)" gradientUnits="userSpaceOnUse" r="250"><stop offset="0" stop-color="#ff851a"/><stop offset=".42441937" stop-color="#f87000"/><stop offset=".86367416" stop-color="#f26900"/><stop offset="1" stop-color="#e55f00"/></radialGradient><g transform="translate(-1000)"><path d="m1500 250a250 250 0 0 1 -250 250 250 250 0 0 1 -250-250 250 250 0 0 1 250-250 250 250 0 0 1 250 250z" fill="url(#a)"/><path d="m1309.2298 33.82789c128.5196 30.706851 207.8974 167.48127 169.5927 291.56949-31.3771 95.69524-112.8693 162.03793-212.5543 174.60263 153.1796-8.09118 266.0956-163.0043 218.7012-309.92978-36.4562-114.666588-154.6038-191.5214848-270.6514-169.822657-18.8526 4.215647-38.4387 10.498641-55.8829 18.694487-112.5353 47.459213-168.47522 196.206-99.9632 307.85319 57.6978 93.63045 168.5136 141.8489 267.9993 100.77239-134.92 68.97589-303.283-51.46877-311.488-201.30723-4.4167-117.68321 76.8182-219.674136 190.654-246.26040176-89.0147 9.18391126-152.6601 79.39239576-187.7408 157.21169176-38.45522 102.70317 5.2337 231.75078 109.038 294.08388 114.5107 66.1048 260.3537 29.37245 323.6836-83.60152 42.2104-77.69758 34.3514-177.62383-23.1776-249.88923-57.5404-72.257811-157.5429-102.460489-246.4118-71.877168-81.7429 30.682061-131.1298 101.133078-134.0478 190.176958.6692 92.68536 61.7912 168.55972 147.5399 198.52472 128.5549 37.82014 266.7725-70.33038 233.6823-209.88949-14.7104-64.39775-57.8855-122.14991-125.7378-141.121386-71.391-15.467036-138.9716 1.205-181.2869 64.641366-18.8995 29.2286-28.9384 85.21395-26.105 97.65297m0 0c13.5324-50.18833 30.6277-97.66354 72.2125-128.94941 53.182-38.308183 124.4576-37.093813 181.7444-.48035 50.1457 36.48017 75.4845 90.37713 72.3557 150.91678-6.6674 64.04407-38.4038 109.83277-91.6401 141.00844-63.9019 34.56125-135.3795 4.83213-189.1258-35.28385-78.8706-65.48566-79.7477-186.67235-8.9744-256.76104 63.7369-55.941605 167.0207-64.891564 238.7167-6.65053 78.8163 58.35315 90.3045 169.04089 40.972 246.62443-35.2274 56.41892-88.4571 87.60135-152.5581 93.63158-81.9488 2.18264-160.666-41.91503-196.8695-120.9383-36.2055-79.02511-22.5771-164.33167 26.8727-227.66064 49.4316-63.30896 138.3491-86.746364 220.4504-67.54202" fill="#c50"/></g><g><path d="m249.99609 37.117187-73.82812 73.761723 15.79492 15.76757-19.96094 11.53907-5.79297-21.57032-100.769527 27.00391 27.013672 100.66211 21.697265-5.82031v23.08984l-21.746093-5.82226-26.982422 100.6621 100.783205 26.9961 6.46484-24.06836 21.12305 12.21094-17.62891 17.59961 73.8418 73.7539 73.82812-73.75195-19.26562-19.24219 22.16016-12.81445 7.06445 26.3125 100.78515-27.01563-26.97656-100.64062-26.19336 7.00976-.006-25.47851 26.19922 7.01758 26.96289-100.65235-100.76367-27.00976-6.40234 23.83593-21.01367-12.15429 17.45898-17.42774z" fill="#994100"/><path d="m243.27183 69.362001-41.62166 41.522149 13.49129 13.46868 25.32249-25.28203v28.75328l-12.88563 12.86403 1.67796 7.02576-17.41714 22.63546-29.71897-34.00276 14.68672 42.87021-23.53331 3.26507-6.90053-6.51231-17.576 4.68054-24.94123-14.36077 34.57417-9.23619-4.94258-18.40494-56.806774 15.18944-9.21793 2.48596 2.45639 9.19852 15.246714 56.71356 18.40208-4.93626-9.28147-34.51622 24.94519 14.3925 4.71818 17.54655 8.24886 2.45427 9.62899 23.22027-44.21307 8.6692 44.52879 8.73065-10.23066 25.11947-7.96291 2.36901-4.72216 17.54654-24.94319 14.39053 9.28146-34.51622-18.43585-4.93626-15.212942 56.74329-2.456391 9.17076 9.215943 2.482 56.80877 15.18745 4.94258-18.40295-34.57416-9.2342 24.9432-14.39249 17.576 4.71226 8.928-8.42538 22.36767 2.95582-14.63907 42.73143 29.93343-34.24659 17.08751 21.91385-2.47227 10.35428 12.88563 12.86403v28.75128l-25.32249-25.28399-13.49526 13.47265 41.62563 41.52213 6.73174 6.74822 6.72975-6.74822 41.62164-41.52213-13.4893-13.47265-25.32645 25.28598v-28.75524l12.88761-12.86404-3.52275-14.75131 13.51116-17.31858 29.8679 34.17326-14.64701-42.71558 26.61323-3.52676 9.38274 8.85555 17.57402-4.71027 24.9432 14.3925-34.57416 9.23419 4.94058 18.40495 56.84254-15.18944 9.18615-2.48399-2.45639-9.17075-15.21296-56.74132-18.43584 4.93428 9.28147 34.51622-24.94519-14.39249-4.71816-17.54655-13.28876-3.95299-9.54358-23.49386 44.71546-8.77824-44.40965-8.69696 8.94786-21.60063 13.57867-4.03822 4.72214-17.54854 24.9432-14.39051-9.28146 34.51622 18.43584 4.93825 15.21294-56.71357 2.45638-9.20247-9.18614-2.48399-56.83856-15.18745-4.94257 18.40494 34.57415 9.2342-24.94318 14.3588-17.57602-4.68055-7.37314 6.96034-27.76299-3.85186 14.68275-42.83254-29.64747 33.90362-13.84477-17.98862 2.74036-11.47435-12.88563-12.86403v-28.75529l25.32248 25.28599 13.49526-13.47264-41.62561-41.522151-6.73174-6.746019zm-12.06552 86.517909 9.26161 38.78242v2.258l-3.59623 2.07164-13.18747-15.08832zm35.45981 8.93881 5.06568 18.85496-11.87686 13.58367-.31176-.1804v-2.42057zm53.54815 23.81503-26.89322 25.38312-2.2042 1.27271-4.19791-2.42054 5.73291-16.7179zm-138.38203 1.92691 20.81081 5.67573 6.42197 18.77169-.33361.19229-2.04336-1.17955zm68.01048 22.91699 4.32103 2.48993-6.73969 6.73832-4.97831-4.96801zm-87.06192 6.84535 34.3736 10.22343 1.87854 1.08439v1.46502l-19.59752 3.85583zm167.76939 1.98243-14.63311 14.60264-15.2626-2.99944v-2.09145l2.20023-1.27471zm-58.03202 4.23251 9.06105 5.21975v7.11101l-11.53532-3.08665zm-49.5369 2.41065 1.82094 6.79579-6.696 1.78816v-5.77485zm58.59795 29.77025v9.595l-8.48717 4.89662-3.05808-11.41092zm-63.47301 1.33022 6.7099 1.80006-2.40278 8.9507-4.30712-2.48598zm-38.22797 1.23109 19.1547 3.75671v3.34042l-1.88052 1.08242-36.54008 10.86969zm135.57615.0199 17.2285 17.02914-29.83016-8.87141-2.19825-1.27272v-3.97082zm-68.04424 13.53806 8.37596 8.35597-5.94339 3.42962-9.02133-5.20389zm43.79804 9.90624 2.04335 1.17757 23.8689 22.52842-25.32049-6.76407-4.94257-14.43216zm-82.5721.0951.51035.2934-5.64553 16.4681-18.64237 4.98584 21.89306-20.66295zm27.41747 15.80003 4.41039 2.54147v2.16483l-8.45142 35.3984-7.17259-27.26644zm24.6096 1.73066 9.9169 11.3435-4.74399 18.00253-6.29885-26.37238v-2.3234z" fill="#ffa348" stroke-width="36.0001"/></g></svg>