<svg height="500.00003" viewBox="0 0 500 500.00003" width="500" xmlns="http://www.w3.org/2000/svg" xmlns:xlink="http://www.w3.org/1999/xlink"><filter id="a" color-interpolation-filters="sRGB" height="1.101453" width="1.151421" x="-.075711" y="-.050726"><feGaussianBlur stdDeviation="9.4638375"/></filter><filter id="b" color-interpolation-filters="sRGB" height="1.07544" width="1.311983" x="-.155991" y="-.03772"><feGaussianBlur stdDeviation="4.55625"/></filter><filter id="c" color-interpolation-filters="sRGB" height="1.261061" width="1.261659" x="-.13083" y="-.130531"><feGaussianBlur stdDeviation="25.50812"/></filter><g transform="translate(-500)"><path d="m926.7767 73.223311c45.24113 45.241099 73.2233 107.741109 73.2233 176.776699 0 69.0356-27.98221 131.53559-73.2233 176.77669-45.2411 45.2411-107.74109 73.22332-176.77669 73.22332-69.03559 0-131.5356-27.98219-176.7767-73.22332-45.2411-45.2411-73.22331-107.74109-73.22331-176.77669 0-69.03559 27.9822-131.5356 73.22331-176.776699 45.2411-45.241105 107.74111-73.22330934 176.7767-73.22330934 69.0356 0 131.53559 27.98220534 176.77669 73.22330934z" fill="#3b2f4f"/><g transform="translate(500)"><path d="m230.6486 0c-128.19182 22.346591-234.17086 139.43202-223.06447 273.24395 5.6201 44.55936 16.72649 83.63245 44.55937 122.70552l50.17947 50.17947c33.45298 22.34661 72.52606 44.55938 111.46533 50.17946 39.07308 5.62012 78.01235 5.62012 111.46534-5.62008 39.07308-16.72649 72.52607-33.45297 100.35893-61.28587 33.45297-39.07306 55.79958-83.63245 66.90595-139.43201v-61.28587c-5.62008-27.83287-11.10637-50.17947-22.34657-78.01235-11.10641-22.34659-27.8329-44.55937-50.17947-61.285858-27.83289-27.832879-61.28586-44.559368-100.35895-55.799569-27.83288-5.620101-55.79957-11.10639-89.25255-5.620101-78.01235 11.106391-139.43202 61.28586-172.885 128.191818-11.10639 27.83288-16.72649 61.28586-22.34659 89.25255 0 33.45298 5.6201 66.90596 16.72649 94.73885 22.34659 44.55936 55.79957 89.25254 105.97904 111.46532 16.72649 5.62012 33.45298 11.1064 55.79957 16.72648 122.70553 22.34661 234.17085-55.79954 250.89734-178.37127 11.10641-78.01236-22.34657-139.43203-72.52604-189.6115-100.35895-89.25255-267.62385-44.559369-312.18322 78.01235-5.6201 27.83288-16.72649 55.79958-16.72649 83.63245 5.6201 78.01235 55.79957 150.53843 133.81192 172.885 61.28586 16.72649 122.70553 5.62012 172.885-33.45298 11.10639-11.10637 22.34659-22.34657 33.45299-33.45297 61.28584-83.63246 44.55935-195.09778-44.55937-256.51746-27.83288-16.726488-55.79958-22.346588-89.25256-27.832879-22.34659-5.620101-44.55937 5.620101-66.90596 11.106391-27.83288 16.726488-50.17947 22.346588-72.52606 50.179468-27.83288 33.45298-33.45298 66.90596-39.07308 105.97904 0 55.79958 27.83288 117.08544 83.63245 144.91833 78.01235 44.55934 183.99139 11.10637 223.06447-72.52607 22.3466-55.79958 11.1064-128.19183-39.07308-172.88501-33.45298-27.83288-66.90596-39.07308-111.46533-39.07308-66.90596 5.6201-111.46533 55.79957-122.70553 122.70553-11.10639 72.52606 33.45298 139.43202 105.97904 150.53843 100.35894 16.72649 183.99138-89.25257 139.43202-178.37131-11.10638-16.72649-27.83288-39.07308-50.17947-50.17947-27.83288-11.10639-55.79957-16.72649-83.63245-11.10639-33.45298 5.6201-55.79957 27.83288-72.52606 50.17947-16.72649 27.83288-16.72649 55.79957-11.10639 83.63245 11.10639 33.45298 39.07308 61.28586 72.52606 72.52607 44.55937 16.72649 89.25255-5.62011 111.46533-39.07309 33.45298-55.79957 5.6201-117.08543-50.17947-139.43202-50.17947-16.72649-122.70553 27.83288-105.97904 89.25255 5.6201 16.72649 11.10639 39.07309 27.83288 50.17947 22.34659 16.7265 50.17947 16.7265 72.52606 11.1064 22.34659-11.1064 39.07308-33.45299 39.07308-61.28587-5.6201-16.72649-5.6201-39.07308-22.34659-50.17947-13.91644-8.36324-29.2379-11.13984-43.17107-8.34651-13.93317 2.79332-26.47803 11.15656-34.84128 25.073-5.6201 16.72649-11.10639 33.45298 9.50065 44.827 41.74932-49.10898 35.32635.40143 29.84006-16.45887v5.6201c16.72649-5.6201 22.34659-22.34659 27.83288-33.45298 5.6201 5.6201 16.72649 11.10639 16.72649 22.34659 11.10639 39.07308-27.83288 72.52606-66.90596 61.28586-33.45298-11.10639-44.55937-50.17947-39.07309-83.63245 5.62011-22.34659 22.3466-39.07308 50.17948-44.55937 33.45298-5.6201 66.90596 11.10639 83.63245 39.07308 16.72649 27.83288 16.72649 50.17947 0 78.01235-33.45298 55.79958-105.97905 55.79958-150.53841 11.10639-33.45298-44.55937-22.3466-117.08543 27.83288-144.91831 16.72648-11.10639 39.07308-16.72649 61.28586-16.72649 11.10638 0 27.83288 5.6201 39.07308 11.10639 27.83288 11.10639 39.07308 39.07308 55.79957 61.28586 5.6201 16.72649 5.6201 27.83288 5.6201 44.55937-5.6201 72.52606-72.52606 122.70554-144.91831 105.97904-83.63246-22.34659-122.70554-122.70553-72.52606-195.09778 11.10638-16.72649 22.34659-27.83288 39.07308-39.07308 78.01235-44.559372 167.2649-5.6201 200.71788 66.90596 39.07309 94.73884-39.07308 206.33797-139.43202 200.71788-27.83288-5.62012-55.79958-5.62012-78.01235-22.3466-22.34659-11.10638-27.83288-27.83287-39.07309-39.07307-66.90596-78.01235-33.45298-195.09778 55.79958-239.79097 39.07308-16.726484 83.63245-16.726484 128.19182-5.6201 94.73883 33.45298 139.43201 144.91832 94.73883 234.17087-11.10637 27.83288-33.45297 44.55935-55.79956 66.90596-22.34659 16.72649-50.17947 27.83289-78.01235 33.45298-44.55937 5.62012-89.25256-5.62009-128.19182-27.83286-94.73884-66.90598-117.08544-211.82429-22.3466-289.97045 16.7265-11.1064 27.83288-33.452984 50.17948-39.073085 33.45298-11.106392 66.90596-22.346593 105.97904-16.726492 27.83288 5.6201 55.79957 16.726492 78.01235 27.832879 16.72649 16.726488 39.07309 22.346598 50.17946 44.559368 11.10641 16.72649 27.8329 33.45298 33.45298 55.79957 22.34661 66.90596 16.72649 139.43203-27.83286 195.09781-16.72649 22.34657-33.45298 44.55934-61.28587 55.79954-22.34659 5.62012-39.07308 22.34661-61.28586 22.34661-39.07308 0-83.63245 5.62008-122.70553-11.10641-117.08543-44.55934-167.26491-195.09777-105.97905-306.69691 16.7265-33.45298 44.55937-61.285864 78.01236-83.632457 44.55936-22.34659 89.25255-33.452979 139.43202-27.832879 61.28586 5.6201 111.46532 39.07308 156.1585 83.632456 22.34661 22.34659 27.8329 50.17947 39.0731 78.01234 11.10637 16.7265 5.62008 39.07309 11.10637 61.28586 11.10645 172.88502-195.09777 301.07685-351.25629 211.82429-27.83287-16.72649-50.17946-27.8329-66.90596-50.17947-61.28586-72.52608-78.01235-167.26492-50.17947-256.51747 16.72649-33.45298 39.07309-61.28586 61.28587-89.252546 39.07308-39.073083 94.73884-55.799574 144.9183-72.526064" fill="#221b35" opacity=".9"/><path d="m231.45148 15.388371c-120.56454 21.008472-220.12061 131.001869-209.68329 256.785079 5.21867 41.88313 15.78981 78.68141 41.88314 115.34586 15.7898 15.65602 31.4458 31.44582 47.23561 47.1018 31.4458 21.0085 68.11026 41.88314 104.77473 47.23563 36.66447 5.21866 73.32893 5.21866 104.77473-5.21866 36.66447-15.65601 68.11026-31.44582 94.33742-57.67295 31.44579-36.66448 52.45425-78.68141 62.89161-131.00187v-57.67294c-5.2187-26.22714-10.43736-47.23561-21.00851-73.32894-10.43731-21.00847-26.22712-41.88313-47.10179-57.672935-26.22713-26.227136-57.67292-41.88313-94.33739-52.454272-26.22714-5.218666-52.45427-10.43733-83.90008-5.218666-73.32893 10.437332-131.00187 57.672938-162.44767 120.564543-10.43733 26.22713-15.78981 57.67294-21.00847 83.90008 0 31.44579 5.21866 62.8916 15.78981 89.11874 21.00847 41.88313 52.45427 83.90006 99.55607 104.77473 15.7898 5.21866 31.4458 10.43732 52.45427 15.65601 115.34588 21.00847 220.12062-52.45428 235.91043-167.66635 10.43732-73.32894-21.00847-131.00188-68.11026-178.23748-94.33742-83.900079-251.56643-41.883137-293.44956 73.32893-5.21867 26.22713-15.78981 52.45427-15.78981 78.68141 5.21866 73.32893 52.45427 141.573 125.78321 162.44767 57.67293 15.78981 115.34587 5.21866 162.44767-31.44578 10.43733-10.43736 21.00849-21.00849 31.4458-31.44582 57.67295-78.68141 41.88314-183.45615-41.88313-241.12909-26.22714-15.7898-52.45428-21.008465-83.90008-26.227131-21.00847-5.218666-41.88313 5.218666-62.8916 10.437331-26.22714 15.7898-47.23561 21.00847-68.11027 47.1018-26.22713 31.4458-31.4458 62.8916-36.66447 99.55606 0 52.45428 26.22714 110.12722 78.68142 136.22052 73.32893 41.88314 173.01881 10.43736 209.68327-68.11025 21.00847-52.45427 10.43736-120.56454-36.66446-162.44767-31.4458-26.22714-62.8916-36.66447-104.77473-36.66447-62.89161 5.21867-104.77474 52.45428-115.34588 115.34588-10.43733 68.11027 31.4458 131.00187 99.55607 141.57302 94.3374 15.65599 173.01881-83.90008 131.00187-167.66635-10.43733-15.7898-26.22714-36.66446-47.1018-47.2356-26.22713-10.43733-52.45427-15.656-78.68141-10.43733-31.4458 5.21866-52.45427 26.22713-68.11027 47.23561-15.7898 26.22713-15.7898 52.45427-10.43732 78.6814 10.43732 31.44581 36.66446 57.67295 68.11026 68.11027 41.88314 15.78981 83.90008-5.21866 104.77474-36.66446 31.4458-52.45428 5.21866-110.12721-47.1018-131.00187-47.23561-15.78981-115.34588 26.22713-99.55607 83.90007 5.21867 15.65599 10.43733 36.66447 26.22714 47.23561 21.00847 15.78981 47.10179 15.78981 68.11027 10.43733 21.00847-10.43733 36.66446-31.4458 36.66446-57.67294-5.21866-15.7898-5.21866-36.66447-21.00847-47.23561-13.11356-7.8949-27.5318-10.50423-40.62864-7.86145-13.09684 2.64279-24.87229 10.53769-32.70029 23.65126-5.21867 15.656-10.43733 31.4458 8.9654 42.15076 39.20689-46.70036 33.05154-.26763 27.96669-16.05744v5.21867c15.78981-5.21867 21.00847-21.00847 26.22714-31.4458 5.21866 5.21866 15.65599 10.43733 15.65599 21.00847 10.43733 36.66447-26.22714 68.11027-62.8916 57.67294-31.4458-10.43733-41.88313-47.23561-36.66447-78.68141 5.21867-21.00848 21.00847-36.66447 47.1018-41.88314 31.4458-5.21866 62.8916 10.43734 78.68141 36.66447 15.65599 26.22714 15.65599 47.23561 0 73.32893-31.4458 52.45428-99.55607 52.45428-141.57302 10.43734-31.4458-41.88313-21.00847-110.12722 26.22714-136.22054 15.78981-10.43733 36.66447-15.656 57.67294-15.656 10.43733 0 26.22714 5.21867 36.66447 10.43733 26.22713 10.43733 36.66446 36.66447 52.45427 57.67294 5.21866 15.78981 5.21866 26.22714 5.21866 41.88314-5.21866 68.11026-68.11026 115.34586-136.22053 99.55606-78.68141-21.00847-115.34588-115.34587-68.11027-183.45614 10.43733-15.656 21.00847-26.22714 36.66447-36.66447 73.32893-41.88313 157.22901-5.21866 188.67481 62.8916 36.66448 89.11874-36.66447 193.89349-131.00188 188.67483-26.22713-5.21866-52.45427-5.21866-73.32893-21.00848-21.00847-10.43734-26.22713-26.22714-36.66447-36.66447-62.8916-73.32893-31.4458-183.45615 52.45428-225.33928 36.66446-15.789805 78.68141-15.789805 120.56454-5.21866 89.11872 31.4458 131.00186 136.22053 89.11872 220.12061-10.43731 26.22714-31.44578 41.88313-52.45425 62.89162-21.00847 15.78977-47.23561 26.22712-73.32894 31.44578-41.88313 5.21866-83.90007-5.21866-120.56454-26.22712-89.11874-62.89162-110.12721-199.11215-21.00847-272.5749 15.656-10.43733 26.22714-31.445801 47.1018-36.664467 31.4458-10.437328 62.8916-21.00847 99.55607-15.655994 26.22713 5.218666 52.45427 15.655994 73.32893 26.227136 15.65599 15.789805 36.66446 21.008475 47.10181 41.883135 10.43732 15.7898 26.22713 31.4458 31.44578 52.45427 21.00847 62.8916 15.78981 131.00187-26.22712 183.45615-15.78981 21.00846-31.44582 41.88313-57.67295 52.45428-21.00847 5.21866-36.66446 21.00847-57.67294 21.00847-36.66446 0-78.68141 5.21866-115.34587-10.43735-110.12721-41.8831-157.22901-183.45614-99.55607-288.23087 15.7898-31.4458 41.88313-57.672937 73.32893-78.681407 41.88313-21.008474 83.90008-31.445802 131.00187-26.22714 57.67294 5.218666 104.77473 36.664468 146.79166 78.681417 21.00851 21.00847 26.22717 47.10179 36.66448 73.32893 10.43732 15.78981 5.21866 36.66446 10.43732 57.67293 10.43735 162.44767-183.45613 283.01222-330.24781 199.11215-26.22713-15.65601-47.23561-26.22713-62.8916-47.23563-57.67294-68.11025-73.32893-157.22899-47.23561-241.12907 15.78981-31.4458 36.66447-57.67293 57.67294-83.900069 36.66447-36.664468 89.11874-52.454275 136.22054-68.11027" opacity=".9"/></g></g><g><path d="m158 26.120005c-7 0-13.7 2.8-18.8 7.74-5 4.95-7.8 11.72-7.8 18.82l.1 30.28v11.72c-5.5 1.6-9.8 6.700005-9.8 12.800005 0 7.5 6.2 13.5 13.6 13.5h16.5v8.6l-24.3 16.7c-17.3 12-27.500007 31.4-27.500007 52.2v211c0 35.5 29.000007 64.4 64.500007 64.4h171.1c35.5 0 64.4-28.9 64.4-64.4v-211c0-20.8-10.2-40.2-27.5-52.2l-24.2-16.7v-8.6h16.5c7.3 0 13.3-6 13.3-13.5 0-6.1-4.1-11.200005-9.6-12.800005v-42c0-7.1-2.8-13.87-7.8-18.82-5.1-4.94-11.8-7.74-18.8-7.74z" fill="#775fa0" filter="url(#a)" opacity=".75"/><g stroke-width="2.28361" transform="matrix(.43790293 0 0 .43790293 -99.694624 208.11287)"><path d="m916.41307-2.518823c-1.245-.014-2.498 0-3.75.03-31.364.748-65.528 15.414-96.938 47.313-88.264 89.642003-154.092 171.180003-242.938 174.030003 23.65 18.21 54.87 31.21 85.25 36.783-24.375 29.26-50.877 47.65-93.437 64.842 37.915 9.124 74.452 6.5 109.813-2.343-27.29 34.35-62.118 65.85-107.47 95.78 60.376-.392 136.226-12.138 181.626-47.906-4.842 30.69-16.186 65.125-43.22 100.47 70.74-18.73 117.115-42.386 146.595-83.533 2.905 27.513-.94 45.098-11.095 80.595 78.006-66.3 150.857-164.775 182.78003-270.97 32.536-108.214003-28.83803-194.264003-107.21403-195.091003z" filter="url(#c)"/><path d="m916.41307-2.518823c-1.245-.014-2.498 0-3.75.03-31.364.748-65.528 15.414-96.938 47.313-88.264 89.642003-154.092 171.180003-242.938 174.030003 23.65 18.21 54.87 31.21 85.25 36.783-24.375 29.26-50.877 47.65-93.437 64.842 37.915 9.124 74.452 6.5 109.813-2.343-27.29 34.35-62.118 65.85-107.47 95.78 60.376-.392 136.226-12.138 181.626-47.906-4.842 30.69-16.186 65.125-43.22 100.47 70.74-18.73 117.115-42.386 146.595-83.533 2.905 27.513-.94 45.098-11.095 80.595 78.006-66.3 150.857-164.775 182.78003-270.97 32.536-108.214003-28.83803-194.264003-107.21403-195.091003z" fill="#775fa0"/><path d="m913.75507 71.888177c5.76 0 11.1 1.732 15.564 4.686-7.706.283-13.875 6.6-13.875 14.375 0 7.956 6.45 14.407003 14.405 14.407003 5.118 0 9.6-2.665 12.156-6.687003.028.503.033 1.022.033 1.530003 0 15.633-12.648 28.314-28.282 28.314-15.632 0-28.31-12.68-28.31-28.313 0-15.630003 12.678-28.310003 28.31-28.310003zm67.376 34.874003c4.462 0 8.683 1.035 12.438 2.875-5.734 1.9-9.875 7.284-9.875 13.655 0 7.955 6.45 14.406 14.405 14.406 4.54003 0 8.54703-2.093 11.18803-5.374.086.902.156 1.826.156 2.75 0 15.632-12.68003 28.313-28.31403 28.313-15.633 0-28.312-12.682-28.312-28.314s12.68-28.312 28.312-28.312zm-111.5 32.47 4.906 45.155 29.782-25.032 4.625 42.53 31.31-26.343 4.314 39.75 30.312-25.47 5.97 55.032-43.938 36.938-4.313-39.75-30.313 25.47-4.625-42.533-31.312 26.344-4.906-45.156-29.783 25.03-5.968-55.03 43.936-36.938z" stroke-width="2.28361"/></g><g opacity=".25"><path d="m174.1 120.98h151.7v20.4l34.1 23.4c11 7.6 17.7 20.3 17.7 33.7v211c0 23.6-18.9 41.9-42 41.9h-171.1c-23.2 0-42-18.3-42-41.9v-211c0-13.4 6.6-26.1 17.6-33.7l34-23.4z" fill="#775fa0"/><path d="m283 141.08v23.8l49.6 34.3c1.2.9 2 2.2 2 3.8v202.1c0 9.7-3 18.3-8.5 25.9 12.9-1.2 27-13 27-25.9v-202.2c0-8.3-4-16.2-10.8-20.9l-40.7-28.1v-12.8z" fill="#fff" filter="url(#b)"/></g><path d="m158 26.119147c-6.99999 0-13.70079 2.800239-18.80078 7.740234-5 4.949995-7.79883 11.72032-7.79883 18.820313l.0996 30.28125v11.71875c-5.49999 1.599998-9.80078 6.700786-9.80078 12.800786 0 7.49999 6.20157 13.5 13.60156 13.5h16.5v8.59961l-24.30077 16.69922c-17.29998 11.99998-27.500007 31.40119-27.500007 52.20117v211c0 35.49996 29.000047 64.40039 64.500007 64.40039h171.09961c35.49996 0 64.40039-28.90043 64.40039-64.40039v-211c0-20.79998-10.20002-40.20119-27.5-52.20117l-24.19922-16.69922v-8.59961h16.5c7.29999 0 13.29883-6.00001 13.29883-13.5 0-6.1-4.09962-11.200788-9.59961-12.800786v-42c0-7.099993-2.80079-13.870318-7.80078-18.820313-5.1-4.939995-11.79884-7.740234-18.79883-7.740234zm16.09961 94.861333h151.70117v20.40039l34.09961 23.39844c10.99999 7.59999 17.69922 20.30118 17.69922 33.70117v211c0 23.59998-18.90002 41.90039-42 41.90039h-171.09961c-23.19998 0-42-18.30041-42-41.90039v-211c0-13.39999 6.59962-26.10118 17.59961-33.70117l34-23.39844z"/><path d="m157.99999 43.970005h184c2.2 0 4.5.97 6.1 2.58 1.3 1.3 2.1 2.9 2.3 4.73l-112.1 12.15c-5 .54-8.5 4.95-8 9.9.5 4.98 5 8.5 9.8 7.98l110.4-12.07v24.84h-201.1v-2.94l44-4.76c5-.62 8.5-4.97 8-9.94-.5-4.94-5-8.49-9.8-7.96l-42.2 4.63v-20.43c0-2.37 1-4.51 2.5-6.13 1.6-1.61 4-2.58 6.1-2.58z" fill="#775fa0"/></g></svg>