<svg height="500" viewBox="0 0 500 500" width="500" xmlns="http://www.w3.org/2000/svg" xmlns:xlink="http://www.w3.org/1999/xlink"><filter id="a" color-interpolation-filters="sRGB" height="1.053517" width="1.054492" x="-.027246" y="-.026758"><feGaussianBlur stdDeviation="4.3067285"/></filter><filter id="b" color-interpolation-filters="sRGB" height="1.02377" width="1.024234" x="-.012117" y="-.011885"><feGaussianBlur stdDeviation="1.7874414"/></filter><filter id="c" color-interpolation-filters="sRGB" height="1.136001" width="1.167212" x="-.083606" y="-.068"><feGaussianBlur stdDeviation="2.0984497"/></filter><g transform="translate(0 -1000)"><path d="m0 1250a250 250 0 0 1 -250 250 250 250 0 0 1 -250-250 250 250 0 0 1 250-250 250 250 0 0 1 250 250z" fill="#9db3df" transform="scale(-1 1)"/><path d="m263.85417 1289.4759c11.1612 3.7204 14.8816-7.4408 18.46913-11.0283 7.04219-8.7696 15.28021-26.0428 14.48299-54.6102-10.49685-61.1209-92.21278-68.5617-125.69638-20.1965-11.1612 18.602-11.1612 33.4836-14.8816 52.0856 0 29.7632 14.8816 52.0856 40.9244 70.6876 11.1612 11.1612 26.0428 11.1612 37.204 14.8816 70.6876 11.1612 130.214-48.3652 119.0528-119.0528-7.4408-29.7632-22.3224-59.5264-48.3652-78.1284-44.6448-29.7632-96.7304-29.7632-137.6548-3.7204-18.602 11.1612-29.7632 22.3224-40.9244 40.9244-63.2468 100.4508 26.0428 219.3708 133.9344 208.2096 22.3224 0 40.9244-11.1612 63.2468-18.602 22.3224-14.8816 44.6448-37.204 59.5264-59.5264 40.92441-78.1284 7.4408-171.0056-66.9672-215.6504-26.0428-11.1612-52.0856-22.3224-81.8488-22.3224-37.204 0-70.6876 11.1612-100.4508 33.4836-33.4836 26.0428-52.0856 59.5264-66.9672 96.7304-7.4408 14.8816-3.7204 33.4836-7.4408 52.0856 0 119.0528 126.4936 215.6504 241.69313 174.726 29.7632-14.8816 63.2468-26.0428 89.2896-52.0856 22.3224-29.7632 44.6448-59.5264 52.0856-96.7304 3.7204-26.0428 7.4408-44.6448 3.7204-70.6876-18.602-152.5364-189.60753-234.25236-319.82153-156.2568-22.3224 14.8816-44.6448 29.7632-59.5264 52.0856-29.7632 37.204-44.6448 74.408-52.0856 119.0528-18.602 137.6548 96.7304 260.2951 230.53193 260.2951 29.7632 0 63.2468-11.1612 93.01-18.602 37.204-14.8816 70.6876-33.4836 96.7304-66.9672 18.602-26.0428 29.7632-52.0856 44.6448-81.8488 11.1612-33.4836 18.602-70.6876 14.8816-104.1712-7.4408-44.6448-18.602-85.5692-44.6448-119.0528 96.59753 111.7449 44.51193 297.7649-81.8488 364.7321-22.3224 14.8816-48.3652 18.602-70.6876 26.0428-89.2896 22.3224-178.44633-14.8816-234.25233-78.1284-14.8816-14.8816-18.602-33.4836-29.7632-52.0856-48.3652-70.6876-33.4836-152.5364 3.7204-226.8116 52.0856-89.2896 159.9772-130.21396 264.01553-100.4508 63.2468 18.602 115.3324 63.2468 141.3752 126.4936 7.4408 29.7632 14.8816 59.5264 14.8816 89.2896 0 37.204-11.1612 70.6876-29.7632 104.1712-14.8816 22.3224-26.0428 40.9244-48.3652 55.806-18.602 11.1612-33.4836 18.602-52.0856 29.7632-33.4836 11.1612-70.6876 18.602-111.612 14.8816-122.7732-18.602-200.76873-148.816-156.2568-267.7359 14.8816-29.7632 29.7632-59.5264 55.806-78.1284 55.806-40.9244 119.0528-52.0856 185.88713-29.7632 100.4508 40.9244 148.816 156.2568 89.2896 245.4135-11.1612 18.602-18.602 33.4836-33.4836 48.3652-55.806 40.9244-130.214 55.806-189.60753 18.602-14.8816-14.8816-33.4836-18.602-44.6448-37.204-44.6448-66.9672-44.6448-156.2568 18.602-211.9299 63.2468-55.806 174.72593-40.9244 215.65033 37.204 7.4408 22.3224 18.602 40.9244 14.8816 66.9672 0 22.3224-11.1612 40.9244-14.8816 59.5264-26.0428 55.806-96.7304 74.408-152.5364 55.806-18.602-11.1612-40.9244-18.602-52.0856-37.204-48.3652-70.6876-7.4408-178.4463 85.5692-174.7259 22.3224 0 44.6448 14.8816 63.2468 26.0428 29.7632 22.3224 33.4836 55.806 29.7632 89.2896-11.1612 48.3652-63.2468 70.6876-111.612 59.5264-22.3224-7.4408-37.204-29.7632-44.6448-52.0856-3.7204-26.0428 3.7204-48.3652 22.3224-66.9672 33.4836-33.4836 89.2896-7.4408 96.7304 37.204-3.7204 18.602-14.8816 37.204-29.7632 52.0856" fill="#c6d2ec" opacity=".9"/><path d="m262.92407 1285.7555c10.2311 3.4546 13.68576-6.7765 17.00754-10.0982 6.37783-7.8395 13.9515-23.6512 13.15428-49.9597-9.56675-56.2046-84.77198-62.9811-115.59815-18.602-10.2311 17.1404-10.2311 30.6933-13.68576 47.8337 0 27.3715 13.68576 47.8337 37.60262 64.9741 10.2311 10.2311 23.91686 10.2311 34.14796 13.6858 64.97413 10.2311 119.58428-44.3791 109.35318-109.3532-6.77644-27.3715-20.4622-54.743-44.37905-71.7506-41.05728-27.3715-88.89099-27.3715-126.49361-3.4546-17.14041 10.2311-27.37151 20.4622-37.60261 37.6026-58.06482 92.3456 23.91686 201.6988 123.03894 191.3349 20.4622 0 37.60262-10.2311 58.06482-17.1405 20.4622-13.6857 41.05727-34.1479 54.74303-54.743 37.60261-71.7506 6.77644-157.1869-61.51947-198.2442-23.91686-10.2311-47.83372-20.4622-75.20523-20.4622-34.14796 0-64.97413 10.2311-92.21278 30.8262-30.6933 23.9169-47.83371 54.743-61.51947 88.891-6.77644 13.6858-3.45466 30.6933-6.77644 47.8337 0 109.3532 116.2625 198.2442 222.16103 160.6416 27.37151-13.6858 58.06481-23.9169 81.98167-47.8337 20.4622-27.3716 41.05727-54.7431 47.83372-88.891 3.45465-23.9169 6.77644-41.0573 3.45465-64.9742-17.14041-140.0464-174.32731-215.25168-293.9116-143.5011-20.4622 13.6858-41.05727 27.3715-54.74303 47.8337-27.37151 34.148-41.05727 68.2959-47.83371 109.3532-17.14042 126.4936 88.89098 239.3014 211.92993 239.3014 27.37151 0 58.06481-10.2311 85.43633-17.1404 34.14795-13.6857 64.97413-30.8261 88.89098-61.5194 17.14042-23.9169 27.37152-47.8338 41.05728-75.2053 10.2311-30.6933 17.14041-64.9741 13.68575-95.6674-6.77644-41.0573-17.14041-78.6599-41.05727-109.3532 88.89099 102.5768 41.05727 273.4494-75.20523 334.9689-20.4622 13.6857-44.37906 17.1404-64.97413 23.9168-81.98167 20.4622-164.09621-13.6857-215.25171-71.7505-13.68576-13.6858-17.14042-30.6933-27.37152-47.8337-44.37906-64.9742-30.6933-140.1794 3.45466-208.4753 47.83371-81.9817 146.9558-119.5843 242.62323-92.2128 58.06481 17.1404 105.89853 58.0648 129.81539 116.2625 6.77644 27.3715 13.68575 54.743 13.68575 81.9817 0 34.1479-10.2311 64.9741-27.37151 95.6674-13.68576 20.4622-23.91686 37.6026-44.37906 51.2884-17.14041 10.2311-30.6933 17.1404-47.83371 27.3715-30.82617 10.2311-64.97413 17.1404-102.57675 13.6858-112.80784-17.1405-184.55841-136.7247-143.50114-246.0779 13.68576-27.3715 27.37151-54.7431 51.28837-71.7506 51.28837-37.6026 109.35319-47.8337 170.87266-27.3715 92.21277 37.6026 136.7247 143.5011 81.98167 225.6157-10.2311 17.1404-17.14041 30.6933-30.82617 44.379-51.28837 37.6026-119.58429 51.2884-174.32732 17.1404-13.68575-13.6857-30.82617-17.1404-41.05727-34.1479-41.05727-61.5195-41.05727-143.5012 17.14042-194.7895 58.19768-51.5541 160.77443-37.8684 198.37704 33.8822 6.77644 20.4622 17.14042 37.6026 13.68576 61.5195 0 20.4622-10.2311 37.6026-13.68576 54.743-23.91686 51.2884-88.89099 68.2959-140.17936 51.2884-17.14041-10.2311-37.60261-17.1405-47.83371-34.148-44.37906-64.9741-6.77644-164.0962 78.65988-160.6416 20.4622 0 41.05728 13.6858 58.06482 23.9169 27.37151 20.4622 30.6933 51.2884 27.37151 81.9817-10.2311 44.379-58.06481 64.9741-102.57674 54.743-20.4622-6.7764-34.14796-27.3715-41.05727-47.8337-3.45466-23.9169 3.45466-44.3791 20.4622-61.5195 30.6933-30.8262 81.98167-6.7764 88.89099 34.148-3.45466 17.1404-13.68576 34.1479-27.37152 47.8337" fill="#ecf0f9" opacity=".9"/><path d="m226.91591 1287.6157c5.31486 10.4968 15.8117 5.3148 20.86082 5.3148 10.62971-1.0629 28.56735-7.4408 48.23233-28.3016 35.87528-50.624-16.7418-113.7379-74.54088-103.2411-20.99368 5.3149-31.49052 15.8117-47.30222 26.3086-20.99369 20.9937-26.30855 47.3022-20.99369 78.9256 0 15.8117 10.49684 26.3085 15.8117 36.8054 42.12024 57.7991 126.22786 57.7991 168.3481 0 15.8117-26.3086 26.30854-57.7991 20.99369-89.4225-10.49685-52.6171-47.30223-89.4225-94.60446-99.9193-20.99369-5.3149-36.80539-5.3149-57.79907 0-115.73102 26.3085-136.7247 173.5301-52.61709 241.9589 15.8117 15.8117 36.80539 20.9937 57.79907 31.4905 26.30855 5.3149 57.79907 5.3149 84.10762 0 84.10761-26.3085 126.22786-115.731 105.23417-199.8386-10.49684-26.3086-20.99369-52.6171-42.12024-73.6108-26.30855-26.3085-57.79907-42.1202-94.60446-47.3022-42.12024-5.3149-78.92563 5.3148-115.73102 20.9937-15.8117 5.3148-26.30854 20.9936-42.12024 31.4905-84.10761 84.1076-63.11393 241.9589 47.30223 294.5759 31.49053 10.4969 63.11393 26.3086 99.91931 26.3086 36.80539-5.3149 73.61078-10.4969 105.23418-31.6234 20.99368-15.8117 36.80538-26.3086 52.61708-47.3022 94.60446-120.913 31.49053-299.758-115.73101-336.5634-26.30855-5.3148-52.61709-10.4968-78.92563-5.3148-47.30223 5.3148-84.10762 20.9937-120.913 47.3022-110.41616 84.1076-115.73102 252.4557-20.99369 347.0602 20.99369 20.9937 52.61709 36.8054 78.92563 52.6171 36.80539 15.8117 73.61077 26.3085 115.73102 20.9936 31.49053-5.3148 57.79907-15.8117 89.42247-26.3085 31.49053-15.8117 63.11393-36.8054 84.10761-63.1139 26.30855-36.8054 47.30223-73.6108 52.61709-115.731-10.76259 147.4872-179.11069 242.2246-315.83539 200.1043-26.30854-5.3148-47.30223-20.9937-68.42879-31.4905-78.92562-47.3022-115.73101-136.7247-110.41615-220.8323 0-20.9937 10.49684-36.8054 15.8117-57.7991 15.8117-84.1076 84.10761-131.5427 163.03324-157.7184 99.91932-26.30852 205.15349 20.9937 257.77058 115.731 31.49052 57.7991 36.80538 126.2279 10.49684 189.3418-15.8117 26.3086-31.49053 52.6171-52.61709 73.6108-26.30854 26.3085-57.79907 42.1202-94.60446 52.6171-26.30854 5.3148-47.30223 10.4968-73.61077 5.3148-20.99368-5.3148-36.80538-10.4968-57.79907-15.8117-31.49053-15.8117-63.11393-36.8053-89.42247-68.4287-73.61078-99.9194-36.80539-247.1409 78.92563-299.758 31.49053-10.4968 63.11393-20.9937 94.60445-15.8117 68.42879 10.4969 120.91301 47.3022 152.53641 110.4162 42.12024 99.9193-5.31486 215.6503-110.41616 236.644-20.99369 5.3148-36.80539 10.4968-57.79907 10.4968-68.42879-10.4968-131.54272-52.6171-147.22155-120.913 0-20.9937-10.49684-36.8054-5.31486-57.799 15.8117-78.9257 78.92563-142.0396 163.03325-136.7247 84.10761 5.3148 152.5364 94.6044 126.22786 178.8449-10.49685 20.9937-15.8117 42.1202-36.80539 57.7991-15.8117 15.8117-36.80538 20.9937-52.61708 31.4905-57.79908 20.9937-120.91301-15.8117-147.22155-68.4288-5.31486-20.9937-15.8117-42.1202-10.49684-63.1139 15.8117-84.1076 120.913-131.5427 184.02693-63.1139 15.67883 15.6788 20.86081 41.9873 26.17567 62.981 5.31486 36.8054-15.8117 63.1139-42.12024 84.1076-42.12025 26.3086-94.60446 5.3149-120.913-36.8054-10.49685-20.9936-5.31486-47.3022 5.31485-68.4287 15.8117-20.9937 36.80539-31.4906 63.11393-31.4906 23.98451 0 41.23931 14.86 48.993 34.3086 7.53814 18.9078 6.09609 42.1526-6.87275 60.2959-15.81171 10.4968-36.80539 15.8117-57.79908 15.8117" fill="#fff" opacity=".9"/></g><g><path d="m131.61914 44.492187a16.0016 16.0016 0 0 0 -11.31445 4.685547l-55.300784 55.300786a16.0016 16.0016 0 0 0 -4.685547 11.31445v298.97656a16.0016 16.0016 0 0 0 16 16h347.363281a16.0016 16.0016 0 0 0 16-16v-298.97656a16.0016 16.0016 0 0 0 -4.68555-11.31445l-55.30078-55.300786a16.0016 16.0016 0 0 0 -11.31445-4.685547h-228.98438zm31.55469 47.552735h7.74804v7.748047h-7.74804zm55.30078 0h7.74805v7.748047h-7.74805zm55.30273 0h7.74805v7.748047h-7.74805zm55.30078 0h7.74805v7.748047h-7.74805zm-221.20703 86.410158h7.74805v7.74804h-7.74805zm55.30274 0h7.74804v7.74804h-7.74804zm55.30078 0h7.74805v7.74804h-7.74805zm55.30273 0h7.74805v7.74804h-7.74805zm55.30078 0h7.74805v7.74804h-7.74805zm55.30274 0h7.74805v7.74804h-7.74805zm-276.50977 55.30078h7.74805v7.74805h-7.74805zm55.30274 0h7.74804v7.74805h-7.74804zm55.30078 0h7.74805v7.74805h-7.74805zm72.49609 0h28.66016l-13.31641 23.30273h-2.02734zm93.41016 0h7.74805v7.74805h-7.74805zm-276.50977 55.30273h7.74805v7.74805h-7.74805zm55.30274 0h7.74804v7.74805h-7.74804zm55.30078 0h7.74805v7.74805h-7.74805zm165.90625 0h7.74805v7.74805h-7.74805zm-81.53516 1.73047a16.0016 16.0016 0 0 0 -1.09765 1.51758c.24897-.58358.60319-1.11721 1.09765-1.51758zm-194.97461 53.57031h7.74805v7.74805h-7.74805zm55.30274 0h7.74804v7.74805h-7.74804zm55.30078 0h7.74805v7.74805h-7.74805zm165.90625 0h7.74805v7.74805h-7.74805zm-79.51953 12.09766h1.02344l14.47265 26.75781h-30.04492z" fill="#fff" filter="url(#a)" opacity=".667" transform="matrix(-1 0 0 1 500 0)"/><path d="m131.61914 57.158203c-.88422-.000002-1.73222.351283-2.35742.976563l-55.300782 55.300784c-.62528.6252-.976565 1.4732-.976563 2.35742v298.97656c-.000181 1.84138 1.492602 3.33417 3.333984 3.33399h347.363281c1.84138.00017 3.33416-1.49261 3.33398-3.33399v-298.97656c0-.88422-.35128-1.73222-.97656-2.35742l-55.30078-55.300784c-.6252-.62528-1.4732-.976565-2.35742-.976563zm18.88867 22.220703h33.08008v33.080074h-33.08008zm55.30078 0h33.08008v33.080074h-33.08008zm55.30274 0h33.08008v33.080074h-33.08008zm55.30078 0h33.08008v33.080074h-33.08008zm-188.12695 11.039063v22.041011h-22.04102zm243.42968 0 22.04102 22.041011h-22.04102zm-276.509762 44.263671h33.080082v8.88477h-33.080082zm55.302732 0h33.08008v8.88477h-33.08008zm55.30078 0h33.08008v8.88477h-33.08008zm55.30274 0h33.08008v8.88477h-33.08008zm55.30078 0h33.08008v8.88477h-33.08008zm55.30273 0h33.08008v8.88477h-33.08008zm-276.509762 31.10742h33.080082v33.08008h-33.080082zm55.302732 0h33.08008v33.08008h-33.08008zm55.30078 0h33.08008v33.08008h-33.08008zm55.30274 0h33.08008v33.08008h-33.08008zm55.30078 0h33.08008v33.08008h-33.08008zm55.30273 0h33.08008v33.08008h-33.08008zm-276.509762 55.30078h33.080082v33.08008h-33.080082zm55.302732 0h33.08008v33.08008h-33.08008zm55.30078 0h33.08008v33.08008h-33.08008zm63.33789 0h72.31055l-27.79883 48.63477h-16.71875zm102.56836 0h33.08008v33.08008h-33.08008zm-110.60351 30.72657 14.07031 24.62109v60.63086l-14.07031 24.62695zm88.38086 0v109.8789l-14.07031-24.625v-60.63281zm-254.287112 24.57617h33.080082v33.08008h-33.080082zm55.302732 0h33.08008v33.08008h-33.08008zm55.30078 0h33.08008v33.08008h-33.08008zm165.90625 0h33.08008v33.08008h-33.08008zm-66.41406 8.67773c4.87887 0 8.76261 3.88314 8.76367 8.76172-.001 2.64361-1.19206 5.13797-3.24804 6.80274-.93268.75574-1.387 1.9546-1.18946 3.13867l3.83789 23.01758h-16.32617l3.83789-23.01954c.19755-1.18406-.25678-2.38291-1.18945-3.13867-2.05302-1.66234-3.24396-4.15687-3.24805-6.80078.002-4.88029 3.88352-8.76172 8.76172-8.76172zm-210.095702 46.62305h33.080082v33.08008h-33.080082zm55.302732 0h33.08008v33.08008h-33.08008zm55.30078 0h33.08008v33.08008h-33.08008zm165.90625 0h33.08008v33.08008h-33.08008zm-74.51562 12.09766h16.20312l28.28125 52.08984h-72.76367zm-201.994142 43.20507h33.080082v8.88477h-33.080082zm55.302732 0h33.08008v8.88477h-33.08008zm55.30078 0h33.08008v8.88477h-33.08008zm165.90625 0h33.08008v8.88477h-33.08008z" fill="#fff" filter="url(#b)" transform="matrix(-1 0 0 1 500 0)"/><path d="m368.38086 60.492188 55.30078 55.300782v298.97656h-347.36328v-298.97656l55.30078-55.300782h228.98438zm-15.55469 15.552734h-39.74805v39.748048h39.74805zm-55.30078 0h-39.74805v39.748048h39.74805zm-55.30273 0h-39.74805v39.748048h39.74805zm-55.30078 0h-39.74805v39.748048h39.74805zm181.45898 6.324219v33.423829h33.42383zm-236.76172 0-33.42383 33.423829h33.42383zm276.50977 48.978519h-39.74805v15.55273h39.74805zm-55.30274 0h-39.74805v15.55273h39.74805zm-55.30078 0h-39.74805v15.55273h39.74805zm-55.30273 0h-39.74805v15.55273h39.74805zm-55.30078 0h-39.74805v15.55273h39.74805zm-55.30274 0h-39.74805v15.55273h39.74805zm276.50977 31.10742h-39.74805v39.74804h39.74805zm-55.30274 0h-39.74805v39.74804h39.74805zm-55.30078 0h-39.74805v39.74804h39.74805zm-55.30273 0h-39.74805v39.74804h39.74805zm-55.30078 0h-39.74805v39.74804h39.74805zm-55.30274 0h-39.74805v39.74804h39.74805zm276.50977 55.30078h-39.74805v39.74805h39.74805zm-55.30274 0h-39.74805v39.74805h39.74805zm-55.30078 0h-39.74805v39.74805h39.74805zm-60.92578 0h-83.80273l31.60351 55.30273h20.59766zm-104.98047 0h-39.74805v39.74805h39.74805zm110.60352 21.50586-20.73828 36.29101v62.40235l20.73828 36.29492zm-95.04883 0v134.98828l20.73828-36.29297v-62.4043zm260.95508 33.79687h-39.74805v39.74805h39.74805zm-55.30274 0h-39.74805v39.74805h39.74805zm-55.30078 0h-39.74805v39.74805h39.74805zm-165.90625 0h-39.74805v39.74805h39.74805zm63.08008 8.67774c-6.68112 0-12.09766 5.41653-12.09766 12.09765.002 3.6468 1.65019 7.09574 4.48438 9.39063l-4.48438 26.90039h24.19336l-4.48437-26.90234c2.83301-2.29392 4.48035-5.74341 4.48437-9.38868 0-6.68112-5.41457-12.09765-12.0957-12.09765zm213.42969 46.62305h-39.74805v39.74804h39.74805zm-55.30274 0h-39.74805v39.74804h39.74805zm-55.30078 0h-39.74805v39.74804h39.74805zm-165.90625 0h-39.74805v39.74804h39.74805zm73.03125 12.09765h-20.07031l-31.7832 58.75781h83.80273zm203.47852 43.20508h-39.74805v15.55273h39.74805zm-55.30274 0h-39.74805v15.55273h39.74805zm-55.30078 0h-39.74805v15.55273h39.74805zm-165.90625 0h-39.74805v15.55273h39.74805z" fill="#7896d3"/><path d="m278.51367 269.72656a3.3333332 3.3333332 0 0 0 -3.33203 3.33203v67.39844a3.3333332 3.3333332 0 0 0 3.33203 3.33203h53.57422a3.3333332 3.3333332 0 0 0 3.33203-3.33203v-67.39844a3.3333332 3.3333332 0 0 0 -3.33203-3.33203zm26.78711 15.3418c4.87969 0 8.76456 3.88295 8.76563 8.76172-.001 2.64371-1.19465 5.14043-3.25 6.80469a3.3333332 3.3333332 0 0 0 -1.18946 3.13867l3.83789 23.01953h-16.32812l3.83789-23.02344a3.3333332 3.3333332 0 0 0 -1.18945-3.13867c-2.05309-1.66241-3.2459-4.15682-3.25-6.79883v-.002c0-.00065 0-.001 0-.002.002-4.87782 3.88659-8.75976 8.76562-8.75976z" fill="#fff" filter="url(#c)" transform="matrix(-1 0 0 1 500 0)"/><path d="m221.4857 273.05771v67.39896h-53.57354v-67.39896zm-26.78678 8.67802c-6.68113 0-12.09724 5.41612-12.09724 12.09725.002 3.6468 1.64996 7.09702 4.48415 9.39191l-4.48415 26.89983h24.1945l-4.48415-26.90321c2.83301-2.29392 4.48012-5.74326 4.48415-9.38853 0-6.68113-5.41612-12.09725-12.09726-12.09725z" fill="#7896d3"/></g></svg>