<svg height="500" viewBox="0 0 500 500" width="500" xmlns="http://www.w3.org/2000/svg" xmlns:xlink="http://www.w3.org/1999/xlink"><radialGradient id="a" cx="1362.7291" cy="216.11429" gradientTransform="matrix(1.0000001 -.0000059 .0000001 1.0000003 -112.72927 33.893757)" gradientUnits="userSpaceOnUse" r="250"><stop offset="0" stop-color="#ff851a"/><stop offset=".42441937" stop-color="#f87000"/><stop offset=".86367416" stop-color="#f26900"/><stop offset="1" stop-color="#e55f00"/></radialGradient><g transform="translate(-1000)"><path d="m1500 250a250 250 0 0 1 -250 250 250 250 0 0 1 -250-250 250 250 0 0 1 250-250 250 250 0 0 1 250 250z" fill="url(#a)"/><path d="m1309.2298 33.82789c128.5196 30.706851 207.8974 167.48127 169.5927 291.56949-31.3771 95.69524-112.8693 162.03793-212.5543 174.60263 153.1796-8.09118 266.0956-163.0043 218.7012-309.92978-36.4562-114.666588-154.6038-191.5214848-270.6514-169.822657-18.8526 4.215647-38.4387 10.498641-55.8829 18.694487-112.5353 47.459213-168.47522 196.206-99.9632 307.85319 57.6978 93.63045 168.5136 141.8489 267.9993 100.77239-134.92 68.97589-303.283-51.46877-311.488-201.30723-4.4167-117.68321 76.8182-219.674136 190.654-246.26040176-89.0147 9.18391126-152.6601 79.39239576-187.7408 157.21169176-38.45522 102.70317 5.2337 231.75078 109.038 294.08388 114.5107 66.1048 260.3537 29.37245 323.6836-83.60152 42.2104-77.69758 34.3514-177.62383-23.1776-249.88923-57.5404-72.257811-157.5429-102.460489-246.4118-71.877168-81.7429 30.682061-131.1298 101.133078-134.0478 190.176958.6692 92.68536 61.7912 168.55972 147.5399 198.52472 128.5549 37.82014 266.7725-70.33038 233.6823-209.88949-14.7104-64.39775-57.8855-122.14991-125.7378-141.121386-71.391-15.467036-138.9716 1.205-181.2869 64.641366-18.8995 29.2286-28.9384 85.21395-26.105 97.65297m0 0c13.5324-50.18833 30.6277-97.66354 72.2125-128.94941 53.182-38.308183 124.4576-37.093813 181.7444-.48035 50.1457 36.48017 75.4845 90.37713 72.3557 150.91678-6.6674 64.04407-38.4038 109.83277-91.6401 141.00844-63.9019 34.56125-135.3795 4.83213-189.1258-35.28385-78.8706-65.48566-79.7477-186.67235-8.9744-256.76104 63.7369-55.941605 167.0207-64.891564 238.7167-6.65053 78.8163 58.35315 90.3045 169.04089 40.972 246.62443-35.2274 56.41892-88.4571 87.60135-152.5581 93.63158-81.9488 2.18264-160.666-41.91503-196.8695-120.9383-36.2055-79.02511-22.5771-164.33167 26.8727-227.66064 49.4316-63.30896 138.3491-86.746364 220.4504-67.54202" fill="#c50"/></g><g><path d="m278.16406 104.82813-68.21679 51.17578h-34.4336l-34.02734 51.04882-17.32813-15.16406-117.3046844 95.45117 22.2773434 48.61914 67.91211-8.56836 52.542971-30.58398c119.39065 15.64077 239.07881 36.66768 350.41209 64.45336l-13.28516-87.1543c-13.09639-22.51775-26.19631-45.03346-39.29673-67.54887l-45.84375-16.01562-67.00977-43.70118z" fill="#994100"/><path d="m478.13062 337.25071-8.69623-57.0501-21.91964-37.67757-23.90621 7.97025-16.48233 29.38687 9.31557-44.43851 21.57476-9.24897-2.81405-4.83522-41.6313-14.54393-69.31168-45.20339-46.05747-34.30883-60.01959 45.02633c4.41494 11.34613 10.51342 32.29536 10.51342 32.29536l-10.03387 13.61577-11.4654-15.76703-9.10844-28.46738h-12.93975l-29.84654 44.77732 6.03215 29.56036-37.59897-32.90358-94.714719 77.06962 10.968493 23.93833 51.166234-6.4558 54.938372-31.97798c112.01556 16.12958 229.57514 33.48252 332.03719 59.23808z" fill="#ffa348" stroke-width="36"/><path d="m237.49015 500c63.95576-1.41766 135.18359-4.19187 194.50862-18.18204 22.99632-5.58357 41.35099-12.27697 53.05051-18.99376 11.6995-6.71926 14.95072-12.48143 14.95072-15.06814s-3.25122-8.35135-14.95072-15.06814c-20.89235-9.90455-38.63895-15.67146-57.47414-20.02107l-17.46061 62.37643-2.12684-66.47081c-4.75651-.88767-9.52371-1.71711-14.3005-2.48938l-154.03508-10.59684c-18.66318.17985-36.82329.83758-54.24941 1.9314l-15.03693 19.51111-5.9803-17.94062c-25.99507 2.22086-50.01601 5.41359-71.272172 9.37372l-1.645328 58.73041-14.277081-55.51922c-20.816745 5.2818-43.902257 10.81011-62.240151 21.11488-11.6995082 6.71803-14.95074065 12.48143-14.95074065 15.06814s3.25123245 8.34888 14.95074065 15.06691c11.699506 6.71679 30.054186 13.41019 53.04926 18.99376 24.630539 5.98267 54.640402 10.77791 88.134242 13.95588z" fill="#994100"/><path d="m350.62305 213.55469c-13.25617.1875-26.05645 4.50826-37.29883 9.375-17.98782 7.78678-33.56871 18.3883-42.14649 23.9707l-.36523.23633-.35156.2539c-15.62291 11.27687-30.27917 23.84734-41.92578 35.83008-9.52297 9.79768-16.33179 19.03637-20.5293 26.3418l-7.53711 13.11523 35.17187 29.30079-116.15161 139.48346c22.13426 3.46204 42.57998 4.61902 64.5603 5.76115l92.54444-111.12743 35.16797 29.29688 11.53906-9.78516c6.42737-5.45059 14.28116-13.81916 22.19336-24.95898l.002-.002c10.49555-14.7751 21.07537-33.175 29.75782-52.20312l.002-.002c8.69968-19.05845 15.44134-38.42141 17.98437-55.88672 1.07944-7.41397 1.29134-14.11757.56446-20.33789l-.0117-.11524-.0156-.11523s-.65027-5.32908-2.48437-11.46485c-1.8341-6.13576-2.39459-15.6594-16.55274-22.06445-8.04434-3.6392-16.16348-5.01485-24.11718-4.90234z" fill="#994100"/><path d="m280.99568 261.98645c-14.78858 10.67464-28.80376 22.71984-39.55289 33.7792-8.47584 8.72034-14.68962 17.29781-17.83018 22.7637l23.69195 19.73685c7.09533-6.98648 17.32818-15.8303 27.77936-24.17814 7.0984-5.67205 14.07335-10.86854 20.05653-14.5965 6.62282-4.25184 15.35232-8.20584 21.56967-3.21871 6.58595 6.15444 3.26407 15.35942.73464 21.80236-2.58449 6.55889-6.43214 14.35871-10.72668 22.3698-6.3199 11.78699-13.16628 23.45357-18.75357 31.69528l23.69398 19.73889c4.8088-4.078 12.11942-11.74006 19.1617-21.65543 9.69615-13.64945 19.86165-31.28912 28.05893-49.25435 8.20035-17.9642 14.41515-36.34886 16.54968-51.00861.89788-6.167.99685-11.389.49843-15.65426 0 0-2.14741-16.52728-8.60673-19.44943-27.48115-12.43228-68.6627 15.63488-86.32482 27.12935zm14.90491 59.27992c-13.26553 10.18581-26.64088 20.82165-38.54991 33.28526.28773 4.98627 1.32438 8.25601 2.29981 9.32041 1.03053 1.12257 3.42829 2.35128 10.48894 1.33688 10.24868-15.49489 18.35157-28.73596 25.76014-43.94255zm-155.24043 172.89565c8.21171.89063 15.47408 1.6106 20.93663 1.89444l100.93305-121.19955-13.29278-11.07519z" fill="#ffa348" stroke-width="36"/><path d="m323.98047 270.58789.008.004.008.004c17.0765 5.53623 34.68564-2.87812 46.56351-11.57316 7.86284-5.8177 12.83305-15.20686 21.42697-32.53847s9.64475-18.39583 10.48032-19.36125c15.33005 11.05492 23.57593 5.14838 28.72265-4.32422 4.63834-7.14583 4.37267-16.49662 7.62113-23.91621 12.38651-13.80342 16.84323-26.37934 26.17383-45.88476l-30.41601 1.74414c-4.15046.23798-7.83985 1.20289-11.33203 2.44922-8.33001-4.27657-17.87163-8.31149-26.13281-10.13282 1.01152-1.82662 1.74039-3.61122 2.49023-5.39648 8.26803 9.1526 18.42231 11.33958 29.25586 7.3457 11.35365-4.60366 21.85394-13.07155 27.98442-21.93168 7.06087-13.17702 10.68871-27.618747-1.59375-38.804777-3.64435-3.264222-8.4546-6.002128-19.97781-5.43036-14.56261 2.686774-24.73186 10.400154-32.429 20.405331-2.42096-5.543496-7.81652-11.452181-14.39453-14.0625-15.46215-4.142651-29.23197 6.997864-37.71093 17.166017-7.47414 9.039529-15.11386 19.708029-13.05274 35.804689.7656 5.98136 3.2266 10.33776 6.22656 13.80273-10.03081 6.86898-14.5263 13.81864-20.26562 23.60547 1.95439 9.87143 8.82047 18.27567 11.02344 27.86914-1.30058 4.57391-4.78949 9.17368-9.9043 14.54297l-4.47852-14.26563c-12.41047 11.6022-27.09042 24.46896-34.9707 37.7461-6.81893 14.08021-8.16835 18.85333-7.21484 32.59179 14.52107 17.07938 20.90885 12.4691 37.93555 7.71387 2.26916 1.87394 4.51821 3.50287 7.95312 4.82715z" fill="#994100"/><path d="m413.85627 110.94244c3.42421 5.4455 13.57543-.73987 18.74847-4.56171 6.64232-4.90667 14.06314-13.14736 12.66938-21.286001-.41834-2.439042-3.08751-4.978094-5.83218-5.075554-13.51115 1.266976-32.67795 19.643467-25.58567 30.923265zm-58.32585 8.92547c.66321 5.18423 7.35246 9.80004 12.5602 9.38367 7.50245-.60211 13.04486-9.17753 15.7079-16.21605 3.18648-8.42133 7.07289-23.520932-1.99882-27.120814-9.11762-.105625-27.98751 20.534384-26.26928 33.953194zm15.44058 24.51389c-12.16227 2.63294-22.94711 9.17652-27.61866 17.14371 3.79244 11.00444 10.64551 19.40296 9.1773 29.09602-3.02918 13.34797-13.18474 22.44287-21.69721 30.79009 1.22363 10.31457.56129 22.46049-2.98955 30.76152.88462.73068 1.77027 1.29606 2.61203 1.62059 6.64232 2.55334 19.07294-1.60222 27.66102-7.95496 5.47914-4.0535 9.40433-10.58074 13.23666-18.81838 3.83235-8.23864 7.39124-17.91419 13.54176-26.86005 2.22635-3.24118 4.71185-6.03127 7.19737-8.56216-2.60591-7.42939-3.40585-15.42005-1.04073-23.08722 2.38246-7.72941 7.29226-14.58935 13.46829-20.26037-10.9422-5.175-22.70754-6.16229-33.54828-3.86879zm37.62753 29.54404c-.32783 6.56928-.12368 17.02159 6.78517 20.26139.36527-.67048.84278-1.49812 1.39376-3.37181 1.41825-4.83215 2.12534-11.99517 5.50567-19.01941 2.83107-7.48362 10.18652-12.54113 13.31627-19.08371-10.85902.62265-23.67973 11.47917-27.00087 21.21354zm-112.96628 76.87879c4.27888 4.94017 13.12218-1.5832 15.24671-5.67002 2.46567-8.42153 3.29953-16.76057.8586-24.53531-6.93626 6.5727-16.77332 20.5937-16.10531 30.20533z" fill="#ffa348" stroke-width="36"/></g></svg>