<svg height="500" viewBox="0 0 500 500" width="500" xmlns="http://www.w3.org/2000/svg" xmlns:xlink="http://www.w3.org/1999/xlink"><filter id="a" color-interpolation-filters="sRGB" height="1.046842" width="1.036103" x="-.018051" y="-.023421"><feGaussianBlur stdDeviation=".43582124"/></filter><filter id="b" color-interpolation-filters="sRGB" height="1.035741" width="1.036227" x="-.018114" y="-.01787"><feGaussianBlur stdDeviation=".43582124"/></filter><g transform="translate(.000015)"><circle cx="249.99998" cy="250" fill="#e51a1a" r="250"/><path d="m181.33938 83.856939c97.52275-31.84694 203.27597 26.159281 217.12696 131.568651 10.04116 85.89723-45.79566 162.6049-131.11288 174.6444-76.26503 6.65-147.16573-45.4981-149.44603-126.3231.16679-50.89801 30.03241-87.97493 76.60677-108.40662 44.00125-16.48183 90.46555-3.00917 112.28155 39.63622 17.95322 40.0953 3.57775 87.31302-40.4313 103.80676-21.98685 8.23292-51.6578-5.55285-56.72562-31.5612 24.48155 21.7253 69.7211 11.74379 80.1808-21.06198 5.24648-24.88185-11.48198-41.52298-24.36368-55.64156-23.21161-15.22125-63.26956-13.16738-85.32502 12.05139-41.51846 46.43224-18.48961 112.52397 35.72777 131.08081 60.66482 17.11352 118.96473-29.63961 126.96137-92.39988 2.7637-54.83226-40.99398-106.19486-96.51046-114.27807-76.21988-10.3001-138.45939 50.84936-147.743191 124.09106-9.31956 73.21828 47.315731 138.67973 111.863041 158.33924 49.05305 9.49897 98.18701 2.07129 139.64056-27.40671 82.90715-58.95602 100.11901-177.97214 43.55644-260.39974-52.71171-79.885311-158.575-103.987181-249.15842-67.061741-86.705021 39.45169-149.0660905 134.549061-117.102931 229.167621 15.77888-74.65377 50.93986-153.5943 123.407351-187.514491 9.28724-4.60517 19.44718-8.7232 30.56692-12.33106zm-160.722321 286.075591c-52.57825-113.8254-.38403-260.89182 113.777041-317.643861 10.84604-5.32012 22.21219-9.7712 34.03518-13.36069 115.76394-28.75816 246.03978 34.00351 263.68455 158.897471 10.04526 85.91695-27.72044 168.80365-107.97396 206.83173-102.24035 46.26108-224.798841-11.43986-234.690511-131.24969-7.33455-123.78718 127.307171-194.136761 222.718561-137.24102-42.54074-27.89653-94.21826-33.44528-140.80825-12.98978-71.17376 32.62266-105.080851 118.0397-80.762351 190.63139 30.697281 88.13423 123.572931 132.04164 212.817841 105.59803 82.80488-25.06359 132.16266-100.33164 140.19255-180.04986 12.12434-145.020371-132.23823-245.3588802-265.59709-221.973611 7.92036-4.10499 20.5989-8.4277792 35.61563-11.7452592 60.06317-13.23825 124.63426-3.45807 179.45368 32.4903392 109.65077 71.904621 141.09454 217.803071 65.16008 333.599141-143.00482 218.07486-377.311781 117.06797-437.622951-1.79433" fill="#b21a1a"/></g><g><use xlink:href="#c"/><path d="m280.33852 106.45365-39.22843 12.85034-8.48617 40.39022 23.26802 20.84974c-7.60134-.65583-15.08878-.048-22.21834 1.66833l7.28782 22.23633c-3.70296.73735-7.26564 1.91831-10.64068 3.50273l-7.28722-22.23692c-6.89396 2.89546-13.29215 6.87298-18.91942 11.78387l6.42277-30.55403-30.72309-27.53868-39.22783 12.83356-8.48617 40.38902 30.72309 27.53808 29.73035-9.72229c-4.07882 5.91682-7.28062 12.562-9.40456 19.76469l22.92992 4.83297c-.59348 1.75046-1.10903 3.53989-1.49869 5.39527-.39086 1.85957-.66242 3.71674-.82428 5.56313l-22.92991-4.83177c-.98674 7.6505-.67861 15.22186.76733 22.46052l-23.47244-21.05655-39.22844 12.85154-8.48616 40.37103 30.72308 27.55666 39.22844-12.83235 6.5007-30.96648c3.17482 6.76687 7.4245 13.00261 12.56979 18.43385l15.62471-17.44172c2.44586 2.80375 5.23102 5.32934 8.31712 7.49344l-15.60433 17.42254c5.76395 4.39175 12.28324 7.94064 19.4074 10.39669l-29.76813 9.74147-8.48556 40.38961 30.72308 27.55786 39.22844-12.85154 8.48617-40.37043-23.2866-20.88871c7.58935.65583 15.0618.0438 22.18056-1.66654l-7.26863-22.20155c3.70596-.73016 7.28182-1.90633 10.65866-3.48414l7.26924 22.19855c6.92273-2.90266 13.33052-6.90415 18.97697-11.83963l-6.44435 30.61158 30.74227 27.53808 39.20925-12.83176 8.48617-40.38962-30.72309-27.53867-29.80589 9.76065c4.10221-5.9378 7.33158-12.59017 9.46151-19.82044l-22.85558-4.81378c.59348-1.75047 1.10903-3.55968 1.49869-5.41326.38966-1.85837.64384-3.70176.80569-5.54514l22.85498 4.81378c.98314-7.66129.66362-15.23565-.78711-22.48031l23.54737 21.09432 39.21225-12.85154 8.50475-40.37103-30.74107-27.55786-39.21045 12.83356-6.51929 30.98505c-3.17841-6.78425-7.44428-13.02838-12.60695-18.46982l-15.58635 17.40276c-2.45665-2.80674-5.25739-5.33053-8.35548-7.49344l15.60433-17.40275c-5.75496-4.38036-12.26525-7.90588-19.37023-10.36013l29.76812-9.74146 8.48557-40.38962-30.72309-27.55786zm-38.36639 113.52555 29.91739 8.01738 8.01858 29.91739-21.89882 21.89881-29.91799-8.01737-8.01917-29.91679 21.89881-21.89882z" fill="#ffe9e5" opacity=".67" stroke-width="35.9999"/><path d="m318.4166 127.77289c-8.62541 19.20875-29.39521 40.58709-57.94375 41.275 2.14313 2.40771 13.17625 4.78896 20.24063 2.38125 24.71208-8.41375 34.15771-31.56479 37.70312-43.65625z" fill="#fff" filter="url(#a)" opacity=".5" transform="matrix(3.1598935 0 0 3.1599427 -598.98384 -139.12362)"/><path d="m261.74285 74.454056c-8.22854 2.320396-16.95979 6.646333-24.07708 12.943417 2.01083 1.137708 3.99521 2.407708 5.92666 3.81 6.64105-6.217709 15.24-11.20775 26.00855-13.562542-2.93688-1.775354-5.82084-2.878667-7.85813-3.190875zm13.04396 7.104062c-11.69458 1.658938-20.66396 6.447896-27.43729 12.665605 2.72521 2.407708 5.23875 5.132917 7.43479 8.149167 5.60917-4.7625 13.89063-8.440209 26.19375-10.451042-.82021-4.074584-3.25437-7.593542-6.19125-10.36373zm-40.69292 9.331855c-5.50333 5.926667-9.54616 13.308537-10.86114 22.066247.55827 3.25438 1.55045 6.00605 2.83368 8.36084 1.7833-7.11729 5.22288-15.13417 10.72621-22.489587 1.05834-1.42875 2.19604-2.804583 3.41313-4.153958-1.98438-1.455209-4.04813-2.69875-6.11188-3.783542zm9.86896 6.746875c-1.21708 1.296458-2.32833 2.645832-3.36021 4.048122-6.11187 8.17563-9.49854 17.43605-10.74208 24.73855 3.88937 3.88937 8.73125 5.82083 12.83229 6.56166.66146-9.97479 2.16958-19.63208 8.67833-27.22562-2.14312-3.01625-4.65666-5.74146-7.40833-8.122712z" fill="#fff" filter="url(#b)" opacity=".5" transform="matrix(3.1598935 0 0 3.1599427 -598.98384 -139.12362)"/><path id="c" d="m452.47552 250a202.47552 202.47552 0 0 1 -202.47552 202.47552 202.47552 202.47552 0 0 1 -202.475518-202.47552 202.47552 202.47552 0 0 1 202.475518-202.475518 202.47552 202.47552 0 0 1 202.47552 202.475518z" fill="#ff8066" opacity=".67" stroke-width="35.9999"/><path d="m250 37.257812c-117.28123 0-212.742187 95.460958-212.742188 212.742188 0 117.28123 95.460958 212.74219 212.742188 212.74219s212.74219-95.46096 212.74219-212.74219-95.46096-212.742187-212.74219-212.742188zm0 18a194.74292 194.74292 0 0 1 194.74219 194.742188 194.74292 194.74292 0 0 1 -194.74219 194.74219 194.74292 194.74292 0 0 1 -194.742188-194.74219 194.74292 194.74292 0 0 1 194.742188-194.742188z" fill="#861313"/><path d="m75.1795 40.651-15.57 4.5 7.812 27.072-26.424-6.534-3.888 15.732 28.359 7.02-20.277 21.078 11.673 11.16 18.882-19.602 7.812 27.072 15.57-4.5-8.352-28.944 30.204 7.47 3.96-15.732-28.341-7.011 20.241-21.015-11.682-11.232-21.609 22.464zm224.361 10.053-2.43 12.879-9.45-8.118-10.62 12.294 10.44 8.928-12.96 4.554 5.4 15.282 11.88-4.176-2.43 12.897 15.84 2.925 2.61-14.031 11.34 9.711 10.62-12.294-10.44-8.928 12.96-4.554-5.4-15.282-14.13 4.986 2.61-14.103zm129.24 56.745-5.67 18.45-12.6-13.59-11.88 10.98 13.68 14.76-19.62 4.5 3.6 15.84 18.18-4.14-5.67 18.45 15.48 4.68 6.12-19.98 14.76 15.93 11.88-10.98-13.77-14.76 19.62-4.5-3.6-15.84-21.15 4.86 6.12-19.98zm-342.018 214.47v19.26l-16.02-9.27-8.1 14.04 17.379 9.99-17.379 10.08 8.1 14.04 16.02-9.27v19.26h16.2v-20.79l18.738 10.8 8.1-14.04-17.37-10.08 17.37-9.99-8.1-14.04-18.738 10.8v-20.79zm310.158 31.95-2.07 13.86-10.44-8.37-10.08 12.6 11.34 9.09-13.59 5.31 5.94 15.12 12.33-4.77-2.07 13.77 16.02 2.52 2.34-15.21 12.42 9.99 10.08-12.6-11.34-9.09 13.59-5.31-5.94-15.12-14.76 5.76 2.25-15.03zm-180.9 24.93-7.74 23.58-15.93-17.73-12.06 10.8 17.19 19.17-25.11 5.22 3.24 15.84 23.4-4.86-7.74 23.49 15.48 5.04 8.28-25.2 18.36 20.43 12.06-10.8-17.19-19.08 25.2-5.31-3.24-15.84-27 5.67 8.28-25.38z" fill="#ffe9e5" opacity=".67" stroke-width="35.9999"/></g></svg>