<svg height="500" viewBox="0 0 500 500" width="500" xmlns="http://www.w3.org/2000/svg" xmlns:xlink="http://www.w3.org/1999/xlink"><g transform="translate(-1000 -500)"><circle cx="1250" cy="750" fill="#8f29a3" r="250"/><path d="m1250.0527 500.00195-.062 248.73633-15.8769-247.60156a250 250 0 0 0 -31.6094 4l44.9063 230.4707c-.1031.0367-.2293.0547-.3829.0547l2.4024 13.07617-.2539-.53906-.5391-1.35742-3.3926-10.71875c-.1832.0705-.3478.12695-.5156.12695l-.123.0781-82.9239-219.53124a250 250 0 0 0 -14.9511 5.57617l96.83 214.45117-.2207.11523 2.3282 4.48438 2.3672 5.26758.055.0508.42.75586.7539 1.27929v.0312l-.7539-1.31054-.4766-.80469-5.582-9.30274c-.186.12274-.3848.23957-.5723.4004l-123.2001-200.20114a250 250 0 0 0 -34.2168 25.29493l164.4492 186.29101-.4023-.58594.8418 1.03516v.0527l-.3301-.32812-.096-.13086v-.006-.002l-175.75-175.03906a250 250 0 0 0 -20.9981 23.98242l185.9649 142.98828-.1446.1875 10.5743 8.34765-2.1172-1.08789-9.502-5.71875c-.141.18337-.2305.33551-.3105.47657l-207.3786-109.41971a250 250 0 0 0 -7.4063 14.18946l214.3047 96.24219c-.075.17916-.1684.38235-.2617.5996l12.2988 4.78321-.037-.0254.5313.23828-.4922-.21289.3613.18359.2148.082-.2148-.0527v-.0293l-12.9355-4.12109c-.057.15093-.127.33679-.1778.51172l-224.7558-68.26953a250 250 0 0 0 -8.5313 41.71874l245.8418 30.73633h-1.248l-245.7344-14.7832a250 250 0 0 0 -1.0216 14.28126 250 250 0 0 0 1.2598 17.61914l233.6972-16.13281h-.027l.3086-.0234-.2793.0234 13.0976-.74219-7.7461 1.87305-.3046.0508-4.8379.94726.07.24024-227.4707 55.73242a250 250 0 0 0 4.0605 15.40625l223.6739-70.11328c.094.36676.1869.70213.2812.96875l12.084-4.50977-6.7949 3.5625-217.9532 99.91602a250 250 0 0 0 21.3477 36.72461l203.4824-139.34961-2.9707 2.41406-190.957 149.70117a250 250 0 0 0 21.2871 23.65235l164.0078-166.71875c.2822.26661.5719.51007.8438.81054l7.707-8.71289v-.0332l.7656-.87305.1875-.24023.7832-.85352.02-.0664.057-.0274-.021.16016-.1055.11719.051-.1836-.068.1836-1.334 1.7539.6191-1.05468-.1875.21093-.7656.90625-2.625 3.71485-4.3184 5.63281.291.18359-133.4043 192.17969a250 250 0 0 0 13.3125 8.69336l120.918-200.25976c.1125.0705.2586.16516.4082.23437l6.9766-11.88477-.2813.72461-99.9199 225.99805a250 250 0 0 0 40.1289 13.44531l59.4668-235.87695-1.5898 9.31836.2383.0566-42.5801 229.88086a250 250 0 0 0 31.5312 3.64844l12.8692-233.375c.244.024.4607.0234.6679.0234h.031v-12.48632l.055-.88086.3847 3.38476.6387 9.95899c.1958 0 .3428-.0234.5117-.0234l27.1407 232.31445a250 250 0 0 0 15.7187-2.41797l-41.9705-230.02728c.2564-.0282.4795-.0932.7148-.11719l-2.0859-10.82226-.055-.13867-.3242-1.81055.019.0293.3594 1.91993 74.1777 233.50586a250 250 0 0 0 39.0058-16.35352l-110.7109-214.89844 4.1817 6.78516.2734-.1875 120.2129 200.67969a250 250 0 0 0 26.0762-18.11719l-144.8977-183.5586c.2565-.18904.424-.39357.6621-.60938l-8.541-9.65039 3.4004 3.0625 5.9023 5.89648.2891-.31054 174.332 156.38672a250 250 0 0 0 10.0782-12.29493l-183.7852-144.8125c.1309-.15941.3098-.33484.4141-.48437l-9.4571-7.28711 211.0782 126.48242a250 250 0 0 0 18.5488-38.16015l-228.9668-88.90039 11.1367 3.39843.014-.1875 223.3906 70.74414a250 250 0 0 0 7.5527-30.96289l-230.5156-41.68359c0-.16361.037-.30359.037-.45313l-7.4414-.91601-4.5957-.8086 12.1504.71485c.03-.33295.029-.6341.029-.97266l234.6992 1.7832a250 250 0 0 0 .172-2.39062 250 250 0 0 0 -.4004-13.62109l-234.5 13.36328v-.33594l-11.8945.82031-2.2285.14063 2.1855-.14063h.043l242.584-45.59375a250 250 0 0 0 -11.252-41.05469l-230.9668 85.63868-.2617.0703 10.6133-4.83984c-.1733-.36253-.4002-.81563-.668-1.21485l208.0469-109.45311a250 250 0 0 0 -7.8809-13.9043l-200.6152 122.56641-.2129-.33203-5.6777 3.94335-4.7539 2.89454 9.7656-7.67383-.1446-.20899 183.2696-147.35742a250 250 0 0 0 -29.3672-30.84961l-161.1992 182.9082-2.3418 2.39454 151.248-195.47657a250 250 0 0 0 -26.3965-17.98242l-119.1699 202.81055-.096-.0664-7.1347 11.80469 5.5937-12.57617c-.2775-.15518-.5702-.25048-.8789-.36328l83.332-219.99219a250 250 0 0 0 -15.1054-5.23438l-69.2344 224.92579c-.11-.0382-.2253-.0646-.3848-.11524l-1.9004 7.61328-1.1386 3.73438 2.125-11.58008c-.2032-.0199-.412-.0559-.6192-.0742l40.0918-231.87891a250 250 0 0 0 -42.4219-3.70703zm-1.9648 235.51758 1.0215 8.85742v.043l.8808 4.50196v.46484l.029-.16992.021.63476v.10352l-.057-.10352v-.44531l-.066.31055-.2403-.5-.5683-4.79688zm-9.459 5.05469 7.1582 6.4375-.025-.0195zm26.0254 6.08008-11.9434 2.92968h-.059zm-12.2715.11718-1.6426 2.81055-.3535.4043.1113-.45313-.092.20899-.019.18359-.053.10742v-.0254l.053-.082v-.16406l.019-.0195v-.10742l.012-.0234.082-.1211v-.0234l.033-.0274.062-.15234v.0195l-.062.13281-.033.0508zm-6.5937.24024 3.3574 2.57226.3652.57227-.4531-.16992.2031.14062h-.022l-.2207-.14062h.037zm5.082.25-.2988 1.60351.2988-.84765-.3359 1.38867-.1036.15234.1407-.69336.2636-1.58203zm-.5879.38867-.086 1.73438-.059.19531-.1192-.4707zm3.1758.75195-2.2969 1.60547h-.023l-.416.2793-.2911.11914.2149-.2793.076-.0215.8945-.7207zm-4.082.58399.1347.14258v.0469l-.084-.12695zm3.9023.32031h.027l-.1738.0801zm-3.5605.18359.1835.36133v.0391l-.1835-.35742zm.4199.0937.02.26758v.0391l.039.0957.047.11914-.047.0215-.039-.11914.039-.0215-.039-.0605v-.0352l-.059-.26562zm2.2422.0645-.07.0273-1.0273.31055.1582-.0605zm-5.6954.0684 2.3926.41015.3496.2168.029.0625-.3164.0644zm2.1856.3164h.053l.096.0312zm.7344.19336h.02v.0195zm-.166.0606h.02l.076.0801zm.2167.18359h.024l-.024.0312zm-.3398.16992h.059l.248.0352-.8203.33203zm-.3926.0352h.2207l-.9414.48438.2657-.0547-.025.0293-.2403.0254-2.0449.39648v.0234l-5.2949.94336 5.2949-.9668zm1.7969.0234.5117.043.7598.22656-.8535-.0859zm-.2227.16601.035.0176.1133.22461.332.16602 1.4531 1.41797-1.3632-1.01758-.2364-.30078-.1875-.26563-.018-.0352-.094-.18946h-.035zm-1.0722.082-.252.27539h-.029l-2.8086 1.27734 2.3203-1.42773zm1.5859.0996.1504.0254.031.0312zm.2227.0254 1.9551.61132-1.9258-.57812zm-1.1914.17382.031.12696.022-.0996-.022.13281v.006l.076.23242.1269 1.91602-.2343-1.36719.031-.78125-.09.51367v-.0937l-.031-.1875.031.14453v-.26562zm.7304.0937.062.0664.088.14844-.037-.0312zm-1.1523.1836-.2461.53125-3.9902 12.97851 3.9629-12.97851h.025l.086-.29102.01-.0117zm-.09.10547-.064.11523.041-.0996zm1.4805.082.033.0234.1153.1914-.092-.0937zm-.4414.21484.021.0293.029.22851zm-1.748.26758v.0312l.051-.0312zm2.3164 1.36719 4.9316 10.89648-4.9316-10.8418z" fill="#aa40bf"/></g><g id="a" transform="translate(-977.30273 139.00391)"><circle cx="889.80261" cy="-226.50334" fill="#eed9f2" r="78.5"/><path d="m889.80273-314.00391c-48.21826 0-87.5 39.28174-87.5 87.5 0 48.21827 39.28174 87.5 87.5 87.5 48.21827 0 87.5-39.28173 87.5-87.5 0-48.21826-39.28173-87.5-87.5-87.5zm0 18c38.49036 0 69.5 31.00965 69.5 69.5 0 38.49036-31.00964 69.5-69.5 69.5-38.49035 0-69.5-31.00964-69.5-69.5 0-38.49035 31.00965-69.5 69.5-69.5z" fill="#6a1f7a"/></g><use transform="matrix(.91311429 0 0 .91314189 294.22315 483.42683)" xlink:href="#a"/><use transform="matrix(.91311429 0 0 .91314189 170.11368 344.33827)" xlink:href="#a"/><use transform="matrix(.91311429 0 0 .91314189 464.85215 408.36887)" xlink:href="#a"/><use transform="matrix(.91311429 0 0 .91314189 446.19722 222.89197)" xlink:href="#a"/><use transform="matrix(.91311429 0 0 .91314189 264.03884 183.31887)" xlink:href="#a"/><g fill="#6a1f7a"><path d="m346.02065 272.24987c-2.60289 1.5481-9.10827 3.61951-11.49459 5.27776-7.40652 5.44262-4.21471 6.50768-8.87926 14.49984 0 0 12.34865 8.34273 16.23518 14.45932 5.10169 8.02898 6.82613 20.71553 8.13085 27.35552 1.17493 5.97942.50324 12.26986-2.80564 18.24172l.17801-.20944-1.14767 1.97846 2.00842 1.16376 30.38468 17.53871 2.00913 1.15538.98572-1.70619c6.88403-6.54883 15.68457-1.7691 25.3877 4.10282l11.57328 11.54354c1.46809-.90802 2.8975-1.87173 7.61948-5.45446 4.72197-3.58272 10.64236-7.6619 14.89985-14.84553l-11.92943-14.56824c-5.57364-7.01848-8.84023-13.53357-7.95131-20.97554 4.43081-14.65929-1.23091-34.88595-6.39946-39.83369-1.9615-1.92429-4.12262-3.6779-6.71012-5.06551-5.25369-3.03338-11.66548-3.77797-17.46848-3.5918-4.11608.13157-8.22225 1.00721-12.12386 2.50554-3.9164.89575-7.55493.68074-11.10198-.40451-4.70593-1.43984-11.05924-.69808-15.34685-3.75658-3.0365-2.16604-6.05365-9.41088-6.05365-9.41088zm45.61833 15.77522h.00074c.69005-.006 1.37728.0127 2.06288.0544-.009.0241-.022.0451-.0308.0691-1.67602 4.64042 9.56615 9.42537 12.19436 3.71605 13.65413 8.47139 17.14489 29.04647 8.9517 43.23909-.17622.30458-.36036.59638-.5515.87613l-1.56652 1.69922c1.85176 1.07584 3.16311 2.92539 3.01786 5.29031v.0308c1.44569.22242 2.77341 1.30229 2.67514 2.89369-.19734 3.21956-3.42526 3.53601-5.12684 2.20325-3.85369 2.89512-10.84653.35736-10.8212-4.80163-.48529.17327-.96313.34216-1.45834.51939l-6.73314-6.8499-3.31248 3.25113 5.35301 5.44529c-2.6858 1.2089-5.33089 2.76359-7.66371 5.09623l-.2178.21712-.15498.26388-1.6531 2.85459-3.67688-2.12506 2.55992-4.43721-4.01824-2.31983-2.55992 4.43721-3.38926-1.95472 2.55922-4.43721-4.01824-2.31844-2.55923 4.43651-3.46046-2.00149 2.56061-4.43721-4.01825-2.31914-2.55992 4.43722-3.78508-2.17951 1.6517-2.85459c1.37268-3.1302 1.01049-7.12277.72952-9.75825l7.50872 1.93797 1.16372-4.49027-9.44035-2.43641c-.15291-.84399-.30385-1.67919-.4426-2.49785-.5466-3.21957-.9084-6.17343-.49635-8.97496l1.29567-4.14191c.11965-.23831.24274-.47736.37976-.71417 2.41424-4.18144 5.81537-7.75932 9.77406-10.53455.48257 4.84473 7.22453 7.10627 10.96851 4.23546 1.95701 3.12449 8.33828 3.34403 8.68084-2.22628.19858-3.23445-3.51801-5.07134-6.29963-4.18939-.21026-1.26274-.85385-2.33717-1.75293-3.17221 2.21913-.5697 4.48-.91769 6.73316-1.00879.31574-.0124.63162-.0197.94663-.023zm1.54419 14.23454c-1.59311-.0159-3.15487.9463-3.29712 3.26579-.22786 3.71354 6.52242 4.94823 6.82601 0 .12162-1.97245-1.72405-3.24742-3.52889-3.26579zm-19.90136 1.1847.00073.00073c-.13313-.003-.26627-.003-.3993.002h-.00074c-2.2725.0688-4.5166 1.15139-6.2368 3.70768-4.75846 7.0721 8.43484 18.09004 15.06495 9.50272 1.95799.99839 4.89059.39793 5.08842-2.82386.13256-2.15664-2.08827-3.47495-4.03359-3.23368-1.22495-3.74465-5.35636-7.06744-9.48366-7.15496zm28.20872 16.40917c-2.2725.0685-4.51661 1.14347-6.2368 3.7-4.85927 7.2218 8.99947 18.5603 15.47542 8.93585 3.56846-5.3037-2.95481-12.8255-9.23862-12.63585zm-14.02478 2.20254-12.24811 8.61124 10.91405 6.30606 1.33406-14.9166zm-29.54627 20.83662 3.78509 2.1788-2.76935 4.79466 4.01825 2.31913 2.76935-4.79394 3.46047 2.00149-2.76935 4.79395 4.01755 2.31912 2.76934-4.79394 3.38927 1.95473-2.76865 4.79394 4.01823 2.31914 2.76867-4.79325 3.67688 2.12436-5.35232 9.26327-26.36643-15.22028zm45.30861 9.19905c2.26554-.0621 4.40767 2.6756 3.02556 4.76323-.86234 1.30197-1.99143 1.69076-3.03324 1.52817.60716 1.64901.55448 3.49005-.53472 5.13533-5.42177 8.18741-15.78229-.62105-11.7134-6.76403 2.68531-4.05509 6.58509-3.94228 9.33915-2.04827.0536-.35794.17935-.70858.4035-1.04717.72085-1.08824 1.62674-1.542 2.51315-1.56657zm11.64357.17871c2.55747.0258 5.17435 1.82783 5.00257 4.62292-.43068 7.01154-9.98835 5.26176-9.66517 0 .20182-3.28659 2.40554-4.64576 4.66192-4.62292zm11.13886 8.23078c1.62711.0163 3.29767 1.16141 3.18821 2.93975-.27355 4.46071-6.35698 3.34764-6.15094 0 .12808-2.09011 1.52696-2.95415 2.96273-2.93975zm-14.74593 3.94014c1.62711.0165 3.29767 1.16237 3.18821 2.94045-.27381 4.46072-6.36509 3.34765-6.15931 0 .12833-2.0901 1.53511-2.95415 2.9711-2.93975z"/><path d="m226.20423 163.22063c-9.60027-6.3597-25.46393-23.83397-31.37643-31.8234-1.25481.58999-2.49401 1.12693-3.71614 1.6212-1.8073-3.89542-3.95121-7.60019-6.39866-10.77401 2.81164-5.77765 3.7073-10.8036 2.61426-15.39664-.46721-1.9627-1.27143-3.78851-2.34354-5.54077 5.46725-2.924204 10.21988-5.178598 15.28674-6.756532 2.22107 5.320786 4.81674 10.521152 7.91538 15.542322l.83317 1.35023 1.57509-.17833c5.9053-.67635 11.24306-.90529 16.47057-.66899 3.12765 10.26618 2.34964 20.88718-1.65435 32.77353 4.34803 1.72914 9.73368 4.82487 12.72368 7.19819v-.00073c1.03412-1.24148 1.26128-1.84268 2.21348-3.14808-10.56185-4.78507-9.98349-17.58716-5.17085-25.53987 6.37458 1.91301 10.56649 1.17873 14.54033 5.1602l1.1802-4.68256c-7.19189.36549-15.21581-5.09043-18.82406-11.39017 4.68714.48644 15.28417-.77104 20.36181.50745l.00037-.002.15959-4.15641c-5.4565-1.26548-17.75193-1.18919-22.96763-1.55332-2.65093-6.837348-4.11784-15.346039-4.81123-24.098829-7.14516 3.606732-14.39143 5.908781-21.47345 7.065142-2.39506-6.284872-4.32654-12.771276-5.99219-19.395681l-.86244-3.415859-2.94445 1.944014c-13.04178 8.613309-30.3844 10.532535-41.48145 5.56053-8.30704-9.013792-12.02633-18.248859-9.47942-31.992968-6.37904 3.665473-11.56426 7.06142-16.39578 12.202003 5.95129 5.153616 7.50055 10.547019 2.65515 17.613684 29.97081 16.216989 29.43295 23.783413 14.4702 56.586134 11.87295 5.25492 26.34731 36.0319 27.34553 48.81058v-.00019l15.01225-.67498h.004c-9.64455-4.22929-15.67918-26.56682-18.36961-32.96919 7.605-2.43932 14.94105-3.2017 21.53449-1.81717 2.2636 6.40363.86986 29.70849 1.00961 34.0492l4.11001-.97016.004-.00034c.45195-3.97853 2.5801-25.9624 1.00132-31.05592 5.02561 2.33908 20.85154 18.89913 24.37192 24.68563zm-32.83935-89.392444c1.39885 5.245176 2.98792 10.438837 4.87149 15.536632-14.01132 1.225476-27.10735-2.007569-37.16359-8.439189 10.40977 1.188671 22.174-1.296651 32.2921-7.097443zm-29.24678 19.512838c3.98394 1.245222 7.84916 2.420536 11.34797 4.405683 3.86424 3.678783 6.19614 6.900063 6.9959 10.261023.83837 3.52399.17922 7.57204-2.90137 13.36608l-.78557 1.48726 1.07748 1.29344c2.40076 2.86674 4.56107 6.59137 6.40075 10.61068-25.26523 7.87314-40.79711-6.48561-22.13516-41.424166zm41.63373-.194015c3.32297-.678211 6.90206-1.10523 10.97129-1.273386 3.68462 4.575572 6.48966 9.113737 8.48271 13.689907-4.35924-.0982-8.80936.0939-13.53964.57647-2.47672-4.16031-4.61492-8.456681-6.49414-12.868504.19302-.04153.38511-.08438.57989-.123924z"/><path d="m56.889945 196.78706c.17261 1.69607.39514 3.51517.656181 5.42542l15.097087 8.15188-6.431899 15.57787c-7.585613 4.69867-13.662059 11.60506-17.325914 19.81882l-10.167476-4.50318 6.381377-9.98807-8.069776-6.26325c-.929599 1.23355-1.816868 2.50146-2.661145 3.80093l4.538844 3.47093-7.059931 11.05037 15.360586 6.80241c-1.405152 4.32991-2.168058 8.94796-2.168058 13.74168 0 .80903.0231 1.61261.06589 2.41115l-6.472834 1.80677-16.882256-7.11771c-.109444 1.87075-.139938 3.74551-.09145 5.61858l16.116718 6.59198 7.835063-2.18667c.619404 3.84507 1.731503 7.52641 3.269995 10.97748l-16.785494 5.04872 5.539096 11.07724-6.708374 2.05664c.900428 1.52596 1.860538 3.01137 2.875387 4.4552l10.816817-2.9968-5.85695-11.71488 12.283096-3.69413c3.981309 6.85336 9.736362 12.55251 16.633286 16.46812l1.213857 8.49532-12.290775 2.58833 12.881706 18.33246c.05568-.0737.112337-.14979.168201-.22385l2.17957-2.92791-7.608019-12.00717 9.916135-2.0882-1.385892-9.70026c5.214338 2.13894 10.919864 3.32253 16.898695 3.32253 3.785925 0 7.462442-.47539 10.973941-1.36546l20.07917 7.13113 6.33917 6.26135c4.54309 2.46599 4.32011.15479 3.66585-2.59536l-6.00019-6.11872 9.10327-8.23693-11.41396-9.41182c4.87438-5.26753 8.49497-11.70947 10.38493-18.85051l2.97516 4.34775 13.62231-16.22318 9.39767 7.49509c.22274-2.71087-1.85643-5.78872-1.96616-8.50561l-7.43151-6.8203-13.46306 16.00892-1.92375-2.81344c.17636-1.60858.26926-3.24099.26926-4.89585 0-8.04616-2.14062-15.59873-5.88126-22.12062l5.36514-6.91751-4.11228-11.82682h7.52872l1.40297-6.22433c-1.82189-1.70351-3.74106-3.3047-5.74822-4.79737l-1.30832 6.34584h-17.583l-3.24442 6.21912c-6.26851-3.36126-13.429427-5.27066-21.030796-5.27066-1.487953 0-2.958589.0755-4.409016.2181l-8.281473-7.34284 1.542588-3.73568zm18.183543 19.94162 4.241461 3.76063c-2.303472.54786-4.538235 1.27508-6.688365 2.16492zm41.688092 6.27924h7.92332l3.8136 10.96596-2.81399 3.62952c-3.02769-4.13878-6.74894-7.73877-10.99442-10.62572zm-27.082804.91457.000723.002c22.042631 0 39.961961 17.91185 39.961961 39.94588 0 22.03479-17.91997 39.94525-39.962597 39.94525-4.76981 0-9.345972-.84035-13.589698-2.37791-.342719-.12434-.683773-.25165-1.021986-.38499l-.03007-.0116c-.302195-.11935-.602819-.24206-.901763-.36837-.731967-.30849-1.453346-.63586-2.162296-.98559l-.0017-.0115c-1.800649-.8931-3.524405-1.91719-5.159207-3.06095l.0035.0263c-4.604947-3.20886-8.499724-7.36125-11.403086-12.18174l-.03007-.0991c-.724716-1.20833-1.386458-2.4579-1.982585-3.74401l-.01987.006c-1.570013-3.39728-2.677076-7.05351-3.239937-10.88858l.007-.003c-.229144-1.5523-.370397-3.13282-.414426-4.73789l-.0035.002c-.01002-.37276-.01665-.74591-.01665-1.12117 0-4.12526.623779-8.10205 1.781772-11.8428l.01089.005c.466045-1.50051 1.020949-2.96156 1.653861-4.38101l-.01665-.007c2.724993-6.1276 6.946566-11.43665 12.204435-15.46785l.01856.007c1.452684-1.11575 2.983349-2.13616 4.583623-3.04752l.0052-.0121c1.035669-.5869 2.099992-1.12888 3.190689-1.62321.0079-.004.01673-.007.02492-.0115 5.034721-2.29054 10.624685-3.56812 16.509201-3.56812zm0 4.6784c-10.289845.00019-19.537407 4.38387-25.982151 11.38618l3.349938 6.81327 16.255951-14.08001 14.46522 12.6058-15.109244-6.45895-9.861143 10.02325 8.660717 2.97461 2.16038 13.2262 24.907716 19.51054-28.060033-13.58755-16.905082 1.91614 18.473893 14.80784-15.755193 2.54738c6.223486 5.50994 14.413522 8.85348 23.399031 8.85348 3.353145 0 6.596385-.46557 9.667355-1.33541l-25.952092-5.68636 25.442376 1.64688-9.802944-12.53419 18.580689 13.02985c4.81058-2.83842 8.88567-6.78504 11.87507-11.49168l-30.478784-24.65137 25.153944-4.98861-16.866083-19.87637 25.347713 18.00501c-5.06807-13.25871-17.89948-22.65566-32.966609-22.65593zm-29.231684 15.48833c-3.822258 5.6382-6.053927 12.44446-6.053927 19.78044 0 1.37468.08044 2.72912.232796 4.06253l21.308991-3.36284-.958035-9.06006-12.984683-3.30975zm63.748548 12.41779-22.14679 3.73761 18.62226 20.52233c2.73826-5.01511 4.29391-10.77142 4.29391-16.89729 0-2.52569-.26655-4.98792-.76938-7.36201zm-68.405707 17.23178c1.469686 5.06514 4.043621 9.65658 7.444298 13.49991l6.600108-2.46169zm63.238187 23.67218 7.63489 6.29521-6.0955 5.51561-12.86636-4.56969c4.14565-1.83874 7.95982-4.29042 11.32697-7.24113z"/><path d="m214.32564 354.93587v.00068l-1.74256 1.75084-10.77408 10.76669 3.49232 3.49243 6.55492-6.55563v7.45572l-3.33555 3.33564.43436 1.82179-4.50856 5.86937-7.69298-8.81691 3.80176 11.11625-6.09176.84663-1.78627-1.68864-4.54967 1.21366-6.45622-3.72375 8.94978-2.39494-1.27942-4.7724-14.70487 3.93862-2.38613.6446.63585 2.38518 3.94673 14.70582 4.76352-1.27997-2.40258-8.95005 6.45725 3.73198 1.22134 4.54981 2.13527.6364 2.49254 6.02101-11.44488 2.24793 11.52661 2.26385-2.64827 6.51347-2.06127.61428-1.22237 4.54982-6.45674 3.73145 2.40258-8.95005-4.77225-1.27998-3.938 14.71355-.63584 2.37798 2.38561.64358 14.70539 3.9381 1.27942-4.77188-8.94979-2.39442 6.45674-3.73198 4.54967 1.2219 2.31109-2.18472 5.79004.76645-3.78944 11.08025 7.7485-8.88011 4.42323 5.68225-.63997 2.68486 3.33555 3.33563v7.4552l-6.55492-6.55613-3.49335 3.49347 10.77511 10.76669 1.74256 1.74981 1.74205-1.74981 10.77408-10.76669-3.49181-3.49347-6.55594 6.55667v-7.45626l3.33606-3.33562-.9119-3.82503 3.49746-4.49071 7.73154 8.86115-3.79148-11.07615 6.88902-.91448 2.4288 2.29622 4.54918-1.22137 6.45672 3.73198-8.94978 2.39442 1.27891 4.77242 14.71411-3.93864 2.37792-.64409-.63586-2.37798-3.938-14.71304-4.77224 1.27947 2.40257 8.95006-6.45725-3.73196-1.22133-4.54983-3.43989-1.025-2.47044-6.09197 11.57493-2.27617-11.49577-2.25513 2.31623-5.60105 3.51494-1.04711 1.22236-4.55033 6.45674-3.73147-2.40258 8.95006 4.77226 1.28048 3.93797-14.70582.63586-2.38621-2.3779-.64409-14.7131-3.9381-1.27941 4.77241 8.94978 2.39441-6.45673 3.72324-4.54968-1.21366-1.9086 1.80481-7.18665-.99879 3.80074-11.10647-7.67448 8.79121-3.58382-4.66445.70937-2.9753-3.33555-3.33564v-7.45609l6.55491 6.55665 3.49335-3.49345-10.77511-10.76669zm-4.8658 24.18587 2.39742 10.05627v.5855l-.93091.53718-3.41368-3.9124zm9.17902 2.31781 1.31131 4.88911-3.07443 3.52224-.0806-.0468v-.62765zm13.86136 6.17525-6.96152 6.58183-.57058.33002-1.08666-.62764 1.48402-4.33495zm-35.82124.49964 5.38703 1.47172 1.66239 4.8675-.0864.0498-.52895-.30584zm17.60503 5.94237 1.11854.64566-1.74463 1.74723-1.28867-1.2882zm-22.53664 1.77501 8.89786 2.65093.48627.28118v.3799l-5.07296.9998zm43.42838.51404-3.78789 3.78647-3.95084-.77775v-.54231l.56955-.33053zm-15.02203 1.09749 2.34552 1.35349v1.84387l-2.98601-.80037zm-12.82301.62508.47137 1.76215-1.73331.46368v-1.49742zm15.16853 7.71942v2.488l-2.19697 1.26967-.79161-2.95886zm-16.43047.34492 1.73691.46675-.62198 2.32092-1.11493-.64459zm-9.8956.31921 4.95833.97414v.86617l-.48678.28066-9.45866 2.81853zm35.09492.005 4.45973 4.41569-7.72176-2.30036-.56904-.33003v-1.02964zm-17.61378 3.51043 2.16819 2.16673-1.53849.88928-2.33524-1.34937zm11.33746 2.56871.52893.30531 6.17865 5.84164-6.55439-1.75391-1.27943-3.74226zm-21.3744.0248.13209.0761-1.46138 4.27017-4.82572 1.29285 5.66718-5.35793zm7.0972 4.09694 1.14167.65902v.56133l-2.18772 9.1788-1.85667-7.07019zm6.37039.44878 2.56707 2.94136-1.22802 4.66804-1.63051-6.83834v-.60213z"/><path d="m346.46887 122.2472c-9.42177 33.96833-22.75123 35.42392-22.76695 19.71104-5.05434 5.59879-5.36545 12.77375-3.29231 19.88078 1.30199 4.4635 3.54441 8.90021 6.14292 12.90283 6.02806 8.84555 13.5325 18.25642 24.55947 15.14708-9.02255-7.86272-15.08682-15.32619-16.14627-26.7163 9.29604 1.85153 14.11835 4.11843 15.96685-12.19178 11.93364 17.01404 19.83385-9.70186 26.95441-21.04796-.3236 7.92245-.65684 18.36313 4.48928 25.52164 1.71648 2.38596 6.52954 3.16545 10.7547 3.1059-1.9491 3.15956-8.81188 13.63167-3.34179 17.52688 5.47012 3.8952 6.4981-.0754 5.08029 3.17841-2.60615 4.10271-4.51755 7.73677-11.60667 10.62282 8.60631 2.44475 17.97601-1.70253 22.87676-7.72369 4.14215-5.25287 8.84534-13.50563 6.72761-18.90753-4.32558 3.6659-8.60086 6.07094-12.04328 5.80372 9.6513-14.16297 7.43496-28.66842 2.89854-43.4914-3.9737 14.2225-6.57983 16.20941-10.7233 19.55465 5.71846-13.49039-16.78754-42.13681-28.7871-49.741246 6.73713 9.591736-4.62453 62.982876-17.74316 26.864156z"/></g></svg>