<svg height="500" viewBox="0 0 500 500" width="500" xmlns="http://www.w3.org/2000/svg"><g transform="translate(-1000 -500)"><circle cx="1250" cy="750" fill="#8f29a3" r="250"/><path d="m1250.0527 500.00195-.062 248.73633-15.8769-247.60156a250 250 0 0 0 -31.6094 4l44.9063 230.4707c-.1031.0367-.2293.0547-.3829.0547l2.4024 13.07617-.2539-.53906-.5391-1.35742-3.3926-10.71875c-.1832.0705-.3478.12695-.5156.12695l-.123.0781-82.9239-219.53124a250 250 0 0 0 -14.9511 5.57617l96.83 214.45117-.2207.11523 2.3282 4.48438 2.3672 5.26758.055.0508.42.75586.7539 1.27929v.0312l-.7539-1.31054-.4766-.80469-5.582-9.30274c-.186.12274-.3848.23957-.5723.4004l-123.2001-200.20114a250 250 0 0 0 -34.2168 25.29493l164.4492 186.29101-.4023-.58594.8418 1.03516v.0527l-.3301-.32812-.096-.13086v-.006-.002l-175.75-175.03906a250 250 0 0 0 -20.9981 23.98242l185.9649 142.98828-.1446.1875 10.5743 8.34765-2.1172-1.08789-9.502-5.71875c-.141.18337-.2305.33551-.3105.47657l-207.3786-109.41971a250 250 0 0 0 -7.4063 14.18946l214.3047 96.24219c-.075.17916-.1684.38235-.2617.5996l12.2988 4.78321-.037-.0254.5313.23828-.4922-.21289.3613.18359.2148.082-.2148-.0527v-.0293l-12.9355-4.12109c-.057.15093-.127.33679-.1778.51172l-224.7558-68.26953a250 250 0 0 0 -8.5313 41.71874l245.8418 30.73633h-1.248l-245.7344-14.7832a250 250 0 0 0 -1.0216 14.28126 250 250 0 0 0 1.2598 17.61914l233.6972-16.13281h-.027l.3086-.0234-.2793.0234 13.0976-.74219-7.7461 1.87305-.3046.0508-4.8379.94726.07.24024-227.4707 55.73242a250 250 0 0 0 4.0605 15.40625l223.6739-70.11328c.094.36676.1869.70213.2812.96875l12.084-4.50977-6.7949 3.5625-217.9532 99.91602a250 250 0 0 0 21.3477 36.72461l203.4824-139.34961-2.9707 2.41406-190.957 149.70117a250 250 0 0 0 21.2871 23.65235l164.0078-166.71875c.2822.26661.5719.51007.8438.81054l7.707-8.71289v-.0332l.7656-.87305.1875-.24023.7832-.85352.02-.0664.057-.0274-.021.16016-.1055.11719.051-.1836-.068.1836-1.334 1.7539.6191-1.05468-.1875.21093-.7656.90625-2.625 3.71485-4.3184 5.63281.291.18359-133.4043 192.17969a250 250 0 0 0 13.3125 8.69336l120.918-200.25976c.1125.0705.2586.16516.4082.23437l6.9766-11.88477-.2813.72461-99.9199 225.99805a250 250 0 0 0 40.1289 13.44531l59.4668-235.87695-1.5898 9.31836.2383.0566-42.5801 229.88086a250 250 0 0 0 31.5312 3.64844l12.8692-233.375c.244.024.4607.0234.6679.0234h.031v-12.48632l.055-.88086.3847 3.38476.6387 9.95899c.1958 0 .3428-.0234.5117-.0234l27.1407 232.31445a250 250 0 0 0 15.7187-2.41797l-41.9705-230.02728c.2564-.0282.4795-.0932.7148-.11719l-2.0859-10.82226-.055-.13867-.3242-1.81055.019.0293.3594 1.91993 74.1777 233.50586a250 250 0 0 0 39.0058-16.35352l-110.7109-214.89844 4.1817 6.78516.2734-.1875 120.2129 200.67969a250 250 0 0 0 26.0762-18.11719l-144.8977-183.5586c.2565-.18904.424-.39357.6621-.60938l-8.541-9.65039 3.4004 3.0625 5.9023 5.89648.2891-.31054 174.332 156.38672a250 250 0 0 0 10.0782-12.29493l-183.7852-144.8125c.1309-.15941.3098-.33484.4141-.48437l-9.4571-7.28711 211.0782 126.48242a250 250 0 0 0 18.5488-38.16015l-228.9668-88.90039 11.1367 3.39843.014-.1875 223.3906 70.74414a250 250 0 0 0 7.5527-30.96289l-230.5156-41.68359c0-.16361.037-.30359.037-.45313l-7.4414-.91601-4.5957-.8086 12.1504.71485c.03-.33295.029-.6341.029-.97266l234.6992 1.7832a250 250 0 0 0 .172-2.39062 250 250 0 0 0 -.4004-13.62109l-234.5 13.36328v-.33594l-11.8945.82031-2.2285.14063 2.1855-.14063h.043l242.584-45.59375a250 250 0 0 0 -11.252-41.05469l-230.9668 85.63868-.2617.0703 10.6133-4.83984c-.1733-.36253-.4002-.81563-.668-1.21485l208.0469-109.45311a250 250 0 0 0 -7.8809-13.9043l-200.6152 122.56641-.2129-.33203-5.6777 3.94335-4.7539 2.89454 9.7656-7.67383-.1446-.20899 183.2696-147.35742a250 250 0 0 0 -29.3672-30.84961l-161.1992 182.9082-2.3418 2.39454 151.248-195.47657a250 250 0 0 0 -26.3965-17.98242l-119.1699 202.81055-.096-.0664-7.1347 11.80469 5.5937-12.57617c-.2775-.15518-.5702-.25048-.8789-.36328l83.332-219.99219a250 250 0 0 0 -15.1054-5.23438l-69.2344 224.92579c-.11-.0382-.2253-.0646-.3848-.11524l-1.9004 7.61328-1.1386 3.73438 2.125-11.58008c-.2032-.0199-.412-.0559-.6192-.0742l40.0918-231.87891a250 250 0 0 0 -42.4219-3.70703zm-1.9648 235.51758 1.0215 8.85742v.043l.8808 4.50196v.46484l.029-.16992.021.63476v.10352l-.057-.10352v-.44531l-.066.31055-.2403-.5-.5683-4.79688zm-9.459 5.05469 7.1582 6.4375-.025-.0195zm26.0254 6.08008-11.9434 2.92968h-.059zm-12.2715.11718-1.6426 2.81055-.3535.4043.1113-.45313-.092.20899-.019.18359-.053.10742v-.0254l.053-.082v-.16406l.019-.0195v-.10742l.012-.0234.082-.1211v-.0234l.033-.0274.062-.15234v.0195l-.062.13281-.033.0508zm-6.5937.24024 3.3574 2.57226.3652.57227-.4531-.16992.2031.14062h-.022l-.2207-.14062h.037zm5.082.25-.2988 1.60351.2988-.84765-.3359 1.38867-.1036.15234.1407-.69336.2636-1.58203zm-.5879.38867-.086 1.73438-.059.19531-.1192-.4707zm3.1758.75195-2.2969 1.60547h-.023l-.416.2793-.2911.11914.2149-.2793.076-.0215.8945-.7207zm-4.082.58399.1347.14258v.0469l-.084-.12695zm3.9023.32031h.027l-.1738.0801zm-3.5605.18359.1835.36133v.0391l-.1835-.35742zm.4199.0937.02.26758v.0391l.039.0957.047.11914-.047.0215-.039-.11914.039-.0215-.039-.0605v-.0352l-.059-.26562zm2.2422.0645-.07.0273-1.0273.31055.1582-.0605zm-5.6954.0684 2.3926.41015.3496.2168.029.0625-.3164.0644zm2.1856.3164h.053l.096.0312zm.7344.19336h.02v.0195zm-.166.0606h.02l.076.0801zm.2167.18359h.024l-.024.0312zm-.3398.16992h.059l.248.0352-.8203.33203zm-.3926.0352h.2207l-.9414.48438.2657-.0547-.025.0293-.2403.0254-2.0449.39648v.0234l-5.2949.94336 5.2949-.9668zm1.7969.0234.5117.043.7598.22656-.8535-.0859zm-.2227.16601.035.0176.1133.22461.332.16602 1.4531 1.41797-1.3632-1.01758-.2364-.30078-.1875-.26563-.018-.0352-.094-.18946h-.035zm-1.0722.082-.252.27539h-.029l-2.8086 1.27734 2.3203-1.42773zm1.5859.0996.1504.0254.031.0312zm.2227.0254 1.9551.61132-1.9258-.57812zm-1.1914.17382.031.12696.022-.0996-.022.13281v.006l.076.23242.1269 1.91602-.2343-1.36719.031-.78125-.09.51367v-.0937l-.031-.1875.031.14453v-.26562zm.7304.0937.062.0664.088.14844-.037-.0312zm-1.1523.1836-.2461.53125-3.9902 12.97851 3.9629-12.97851h.025l.086-.29102.01-.0117zm-.09.10547-.064.11523.041-.0996zm1.4805.082.033.0234.1153.1914-.092-.0937zm-.4414.21484.021.0293.029.22851zm-1.748.26758v.0312l.051-.0312zm2.3164 1.36719 4.9316 10.89648-4.9316-10.8418z" fill="#aa40bf"/></g><g stroke-width="1.28412" transform="matrix(.77931357 0 0 .77817926 52.876586 43.124792)"><path d="m266.87947-40.749903-41.45275 194.030143 45.89125-9.76337 3.06008 15.23237-124.43342-11.48013 4.78436-47.732611-188.331809 62.523251 171.048969 97.95251-32.97423 74.82912-40.267311-19.73507-6.997343 198.31448 152.400244-127.04686-46.79098-22.93515 11.21781-25.46007 93.32632 83.95499-32.05445 34.97246 188.26664 62.70396-78.85295-182.07064-33.488 36.53109-13.4358-12.04986 108.30344-63.06037 24.33281 41.596 115.46369-161.38935-196.87548 21.58484-14.2027-70.75059 48.98642-10.42849zm82.33908 242.488113 24.09222 41.18187-14.31799 8.18467zm-210.22607 54.76777 4.47359-44.63294 14.74655 1.36035z" fill="#6a1f7a"/><path d="m278.6784 14.655465-23.2 108.599995 33.9-7.214 16.814 83.75601c-11.957-9.916-26.682-16.604-42.818-18.7l.013-.15-138.765-12.802 3.552-35.438-105.412 34.994 96.37 55.186 3.622-36.137 83.233 7.677c-15.232 10.115-27.014 25.034-33.143 42.578l-56.93 129.186-29.867-14.638-3.917 110.998 85.3-71.11-34.715-17.015 38.477-87.314c4.95 17.906 15.685 33.437 30.047 44.47l98.95 88.745-23.754 25.915 105.373 35.097-44.134-101.908-24.853 27.112-64.246-57.62c1.29.058 2.587.093 3.892.093 20.67 0 39.627-7.51 54.316-19.922l107.713-61.555 17.883 30.57 64.625-90.33-110.392 12.104 18.44 31.52-73.268 41.87c3.23-8.927 4.996-18.548 4.996-28.57 0-7.546-1.006-14.863-2.88-21.83l-26.24-130.724 36.462-7.762zm-27.326 184.453005c24.706 2.07 40.725 20.068 40.088 43.728-.217 8.056-5.445 16.797-13.086 22.893.672-6.495-1.987-13.894-7.707-19.613-9.01-9.01-22.183-10.438-29.43-3.192-6.963 6.963-5.894 19.39 2.192 28.346 22.283 27.566 61.67 16.448 74.514-11.08.1 1.492.172 2.993.172 4.512 0 19.38-8.32 36.742-21.592 48.735-2.665 2.024-20.406 12.52-20.406 12.52-7.327 2.815-15.288 4.372-23.63 4.372-14.37 0-27.626-4.59-38.413-12.368l-7.236-6.49-.212.234c-12.2-11.903-19.764-28.534-19.764-47.004 0-7.174 1.156-14.067 3.266-20.52l1.914-4.343-.277-.124c9.658-23.564 32.594-40.16 59.605-40.61z" fill="#eed9f2" stroke-width="46.2281"/></g></svg>