<svg height="500.00003" viewBox="0 0 500 500.00003" width="500" xmlns="http://www.w3.org/2000/svg" xmlns:xlink="http://www.w3.org/1999/xlink"><filter id="a" color-interpolation-filters="sRGB" height="1.02377" width="1.024234" x="-.012117" y="-.011885"><feGaussianBlur stdDeviation="1.7874414"/></filter><filter id="b" color-interpolation-filters="sRGB" height="1.136001" width="1.167212" x="-.083606" y="-.068"><feGaussianBlur stdDeviation="2.0984497"/></filter><filter id="c" color-interpolation-filters="sRGB" height="1.053517" width="1.054492" x="-.027246" y="-.026758"><feGaussianBlur stdDeviation="4.3067285"/></filter><g transform="translate(-500)"><path d="m926.7767 73.223311c45.24113 45.241099 73.2233 107.741109 73.2233 176.776699 0 69.0356-27.98221 131.53559-73.2233 176.77669-45.2411 45.2411-107.74109 73.22332-176.77669 73.22332-69.03559 0-131.5356-27.98219-176.7767-73.22332-45.2411-45.2411-73.22331-107.74109-73.22331-176.77669 0-69.03559 27.9822-131.5356 73.22331-176.776699 45.2411-45.241105 107.74111-73.22330934 176.7767-73.22330934 69.0356 0 131.53559 27.98220534 176.77669 73.22330934z" fill="#3b2f4f"/><g transform="translate(500)"><path d="m230.6486 0c-128.19182 22.346591-234.17086 139.43202-223.06447 273.24395 5.6201 44.55936 16.72649 83.63245 44.55937 122.70552l50.17947 50.17947c33.45298 22.34661 72.52606 44.55938 111.46533 50.17946 39.07308 5.62012 78.01235 5.62012 111.46534-5.62008 39.07308-16.72649 72.52607-33.45297 100.35893-61.28587 33.45297-39.07306 55.79958-83.63245 66.90595-139.43201v-61.28587c-5.62008-27.83287-11.10637-50.17947-22.34657-78.01235-11.10641-22.34659-27.8329-44.55937-50.17947-61.285858-27.83289-27.832879-61.28586-44.559368-100.35895-55.799569-27.83288-5.620101-55.79957-11.10639-89.25255-5.620101-78.01235 11.106391-139.43202 61.28586-172.885 128.191818-11.10639 27.83288-16.72649 61.28586-22.34659 89.25255 0 33.45298 5.6201 66.90596 16.72649 94.73885 22.34659 44.55936 55.79957 89.25254 105.97904 111.46532 16.72649 5.62012 33.45298 11.1064 55.79957 16.72648 122.70553 22.34661 234.17085-55.79954 250.89734-178.37127 11.10641-78.01236-22.34657-139.43203-72.52604-189.6115-100.35895-89.25255-267.62385-44.559369-312.18322 78.01235-5.6201 27.83288-16.72649 55.79958-16.72649 83.63245 5.6201 78.01235 55.79957 150.53843 133.81192 172.885 61.28586 16.72649 122.70553 5.62012 172.885-33.45298 11.10639-11.10637 22.34659-22.34657 33.45299-33.45297 61.28584-83.63246 44.55935-195.09778-44.55937-256.51746-27.83288-16.726488-55.79958-22.346588-89.25256-27.832879-22.34659-5.620101-44.55937 5.620101-66.90596 11.106391-27.83288 16.726488-50.17947 22.346588-72.52606 50.179468-27.83288 33.45298-33.45298 66.90596-39.07308 105.97904 0 55.79958 27.83288 117.08544 83.63245 144.91833 78.01235 44.55934 183.99139 11.10637 223.06447-72.52607 22.3466-55.79958 11.1064-128.19183-39.07308-172.88501-33.45298-27.83288-66.90596-39.07308-111.46533-39.07308-66.90596 5.6201-111.46533 55.79957-122.70553 122.70553-11.10639 72.52606 33.45298 139.43202 105.97904 150.53843 100.35894 16.72649 183.99138-89.25257 139.43202-178.37131-11.10638-16.72649-27.83288-39.07308-50.17947-50.17947-27.83288-11.10639-55.79957-16.72649-83.63245-11.10639-33.45298 5.6201-55.79957 27.83288-72.52606 50.17947-16.72649 27.83288-16.72649 55.79957-11.10639 83.63245 11.10639 33.45298 39.07308 61.28586 72.52606 72.52607 44.55937 16.72649 89.25255-5.62011 111.46533-39.07309 33.45298-55.79957 5.6201-117.08543-50.17947-139.43202-50.17947-16.72649-122.70553 27.83288-105.97904 89.25255 5.6201 16.72649 11.10639 39.07309 27.83288 50.17947 22.34659 16.7265 50.17947 16.7265 72.52606 11.1064 22.34659-11.1064 39.07308-33.45299 39.07308-61.28587-5.6201-16.72649-5.6201-39.07308-22.34659-50.17947-13.91644-8.36324-29.2379-11.13984-43.17107-8.34651-13.93317 2.79332-26.47803 11.15656-34.84128 25.073-5.6201 16.72649-11.10639 33.45298 9.50065 44.827 41.74932-49.10898 35.32635.40143 29.84006-16.45887v5.6201c16.72649-5.6201 22.34659-22.34659 27.83288-33.45298 5.6201 5.6201 16.72649 11.10639 16.72649 22.34659 11.10639 39.07308-27.83288 72.52606-66.90596 61.28586-33.45298-11.10639-44.55937-50.17947-39.07309-83.63245 5.62011-22.34659 22.3466-39.07308 50.17948-44.55937 33.45298-5.6201 66.90596 11.10639 83.63245 39.07308 16.72649 27.83288 16.72649 50.17947 0 78.01235-33.45298 55.79958-105.97905 55.79958-150.53841 11.10639-33.45298-44.55937-22.3466-117.08543 27.83288-144.91831 16.72648-11.10639 39.07308-16.72649 61.28586-16.72649 11.10638 0 27.83288 5.6201 39.07308 11.10639 27.83288 11.10639 39.07308 39.07308 55.79957 61.28586 5.6201 16.72649 5.6201 27.83288 5.6201 44.55937-5.6201 72.52606-72.52606 122.70554-144.91831 105.97904-83.63246-22.34659-122.70554-122.70553-72.52606-195.09778 11.10638-16.72649 22.34659-27.83288 39.07308-39.07308 78.01235-44.559372 167.2649-5.6201 200.71788 66.90596 39.07309 94.73884-39.07308 206.33797-139.43202 200.71788-27.83288-5.62012-55.79958-5.62012-78.01235-22.3466-22.34659-11.10638-27.83288-27.83287-39.07309-39.07307-66.90596-78.01235-33.45298-195.09778 55.79958-239.79097 39.07308-16.726484 83.63245-16.726484 128.19182-5.6201 94.73883 33.45298 139.43201 144.91832 94.73883 234.17087-11.10637 27.83288-33.45297 44.55935-55.79956 66.90596-22.34659 16.72649-50.17947 27.83289-78.01235 33.45298-44.55937 5.62012-89.25256-5.62009-128.19182-27.83286-94.73884-66.90598-117.08544-211.82429-22.3466-289.97045 16.7265-11.1064 27.83288-33.452984 50.17948-39.073085 33.45298-11.106392 66.90596-22.346593 105.97904-16.726492 27.83288 5.6201 55.79957 16.726492 78.01235 27.832879 16.72649 16.726488 39.07309 22.346598 50.17946 44.559368 11.10641 16.72649 27.8329 33.45298 33.45298 55.79957 22.34661 66.90596 16.72649 139.43203-27.83286 195.09781-16.72649 22.34657-33.45298 44.55934-61.28587 55.79954-22.34659 5.62012-39.07308 22.34661-61.28586 22.34661-39.07308 0-83.63245 5.62008-122.70553-11.10641-117.08543-44.55934-167.26491-195.09777-105.97905-306.69691 16.7265-33.45298 44.55937-61.285864 78.01236-83.632457 44.55936-22.34659 89.25255-33.452979 139.43202-27.832879 61.28586 5.6201 111.46532 39.07308 156.1585 83.632456 22.34661 22.34659 27.8329 50.17947 39.0731 78.01234 11.10637 16.7265 5.62008 39.07309 11.10637 61.28586 11.10645 172.88502-195.09777 301.07685-351.25629 211.82429-27.83287-16.72649-50.17946-27.8329-66.90596-50.17947-61.28586-72.52608-78.01235-167.26492-50.17947-256.51747 16.72649-33.45298 39.07309-61.28586 61.28587-89.252546 39.07308-39.073083 94.73884-55.799574 144.9183-72.526064" fill="#221b35" opacity=".9"/><path d="m231.45148 15.388371c-120.56454 21.008472-220.12061 131.001869-209.68329 256.785079 5.21867 41.88313 15.78981 78.68141 41.88314 115.34586 15.7898 15.65602 31.4458 31.44582 47.23561 47.1018 31.4458 21.0085 68.11026 41.88314 104.77473 47.23563 36.66447 5.21866 73.32893 5.21866 104.77473-5.21866 36.66447-15.65601 68.11026-31.44582 94.33742-57.67295 31.44579-36.66448 52.45425-78.68141 62.89161-131.00187v-57.67294c-5.2187-26.22714-10.43736-47.23561-21.00851-73.32894-10.43731-21.00847-26.22712-41.88313-47.10179-57.672935-26.22713-26.227136-57.67292-41.88313-94.33739-52.454272-26.22714-5.218666-52.45427-10.43733-83.90008-5.218666-73.32893 10.437332-131.00187 57.672938-162.44767 120.564543-10.43733 26.22713-15.78981 57.67294-21.00847 83.90008 0 31.44579 5.21866 62.8916 15.78981 89.11874 21.00847 41.88313 52.45427 83.90006 99.55607 104.77473 15.7898 5.21866 31.4458 10.43732 52.45427 15.65601 115.34588 21.00847 220.12062-52.45428 235.91043-167.66635 10.43732-73.32894-21.00847-131.00188-68.11026-178.23748-94.33742-83.900079-251.56643-41.883137-293.44956 73.32893-5.21867 26.22713-15.78981 52.45427-15.78981 78.68141 5.21866 73.32893 52.45427 141.573 125.78321 162.44767 57.67293 15.78981 115.34587 5.21866 162.44767-31.44578 10.43733-10.43736 21.00849-21.00849 31.4458-31.44582 57.67295-78.68141 41.88314-183.45615-41.88313-241.12909-26.22714-15.7898-52.45428-21.008465-83.90008-26.227131-21.00847-5.218666-41.88313 5.218666-62.8916 10.437331-26.22714 15.7898-47.23561 21.00847-68.11027 47.1018-26.22713 31.4458-31.4458 62.8916-36.66447 99.55606 0 52.45428 26.22714 110.12722 78.68142 136.22052 73.32893 41.88314 173.01881 10.43736 209.68327-68.11025 21.00847-52.45427 10.43736-120.56454-36.66446-162.44767-31.4458-26.22714-62.8916-36.66447-104.77473-36.66447-62.89161 5.21867-104.77474 52.45428-115.34588 115.34588-10.43733 68.11027 31.4458 131.00187 99.55607 141.57302 94.3374 15.65599 173.01881-83.90008 131.00187-167.66635-10.43733-15.7898-26.22714-36.66446-47.1018-47.2356-26.22713-10.43733-52.45427-15.656-78.68141-10.43733-31.4458 5.21866-52.45427 26.22713-68.11027 47.23561-15.7898 26.22713-15.7898 52.45427-10.43732 78.6814 10.43732 31.44581 36.66446 57.67295 68.11026 68.11027 41.88314 15.78981 83.90008-5.21866 104.77474-36.66446 31.4458-52.45428 5.21866-110.12721-47.1018-131.00187-47.23561-15.78981-115.34588 26.22713-99.55607 83.90007 5.21867 15.65599 10.43733 36.66447 26.22714 47.23561 21.00847 15.78981 47.10179 15.78981 68.11027 10.43733 21.00847-10.43733 36.66446-31.4458 36.66446-57.67294-5.21866-15.7898-5.21866-36.66447-21.00847-47.23561-13.11356-7.8949-27.5318-10.50423-40.62864-7.86145-13.09684 2.64279-24.87229 10.53769-32.70029 23.65126-5.21867 15.656-10.43733 31.4458 8.9654 42.15076 39.20689-46.70036 33.05154-.26763 27.96669-16.05744v5.21867c15.78981-5.21867 21.00847-21.00847 26.22714-31.4458 5.21866 5.21866 15.65599 10.43733 15.65599 21.00847 10.43733 36.66447-26.22714 68.11027-62.8916 57.67294-31.4458-10.43733-41.88313-47.23561-36.66447-78.68141 5.21867-21.00848 21.00847-36.66447 47.1018-41.88314 31.4458-5.21866 62.8916 10.43734 78.68141 36.66447 15.65599 26.22714 15.65599 47.23561 0 73.32893-31.4458 52.45428-99.55607 52.45428-141.57302 10.43734-31.4458-41.88313-21.00847-110.12722 26.22714-136.22054 15.78981-10.43733 36.66447-15.656 57.67294-15.656 10.43733 0 26.22714 5.21867 36.66447 10.43733 26.22713 10.43733 36.66446 36.66447 52.45427 57.67294 5.21866 15.78981 5.21866 26.22714 5.21866 41.88314-5.21866 68.11026-68.11026 115.34586-136.22053 99.55606-78.68141-21.00847-115.34588-115.34587-68.11027-183.45614 10.43733-15.656 21.00847-26.22714 36.66447-36.66447 73.32893-41.88313 157.22901-5.21866 188.67481 62.8916 36.66448 89.11874-36.66447 193.89349-131.00188 188.67483-26.22713-5.21866-52.45427-5.21866-73.32893-21.00848-21.00847-10.43734-26.22713-26.22714-36.66447-36.66447-62.8916-73.32893-31.4458-183.45615 52.45428-225.33928 36.66446-15.789805 78.68141-15.789805 120.56454-5.21866 89.11872 31.4458 131.00186 136.22053 89.11872 220.12061-10.43731 26.22714-31.44578 41.88313-52.45425 62.89162-21.00847 15.78977-47.23561 26.22712-73.32894 31.44578-41.88313 5.21866-83.90007-5.21866-120.56454-26.22712-89.11874-62.89162-110.12721-199.11215-21.00847-272.5749 15.656-10.43733 26.22714-31.445801 47.1018-36.664467 31.4458-10.437328 62.8916-21.00847 99.55607-15.655994 26.22713 5.218666 52.45427 15.655994 73.32893 26.227136 15.65599 15.789805 36.66446 21.008475 47.10181 41.883135 10.43732 15.7898 26.22713 31.4458 31.44578 52.45427 21.00847 62.8916 15.78981 131.00187-26.22712 183.45615-15.78981 21.00846-31.44582 41.88313-57.67295 52.45428-21.00847 5.21866-36.66446 21.00847-57.67294 21.00847-36.66446 0-78.68141 5.21866-115.34587-10.43735-110.12721-41.8831-157.22901-183.45614-99.55607-288.23087 15.7898-31.4458 41.88313-57.672937 73.32893-78.681407 41.88313-21.008474 83.90008-31.445802 131.00187-26.22714 57.67294 5.218666 104.77473 36.664468 146.79166 78.681417 21.00851 21.00847 26.22717 47.10179 36.66448 73.32893 10.43732 15.78981 5.21866 36.66446 10.43732 57.67293 10.43735 162.44767-183.45613 283.01222-330.24781 199.11215-26.22713-15.65601-47.23561-26.22713-62.8916-47.23563-57.67294-68.11025-73.32893-157.22899-47.23561-241.12907 15.78981-31.4458 36.66447-57.67293 57.67294-83.900069 36.66447-36.664468 89.11874-52.454275 136.22054-68.11027" opacity=".9"/></g></g><g><path d="m131.61914 44.492187a16.0016 16.0016 0 0 0 -11.31445 4.685547l-55.300784 55.300786a16.0016 16.0016 0 0 0 -4.685547 11.31445v298.97656a16.0016 16.0016 0 0 0 16 16h347.363281a16.0016 16.0016 0 0 0 16-16v-298.97656a16.0016 16.0016 0 0 0 -4.68555-11.31445l-55.30078-55.300786a16.0016 16.0016 0 0 0 -11.31445-4.685547h-228.98438zm31.55469 47.552735h7.74804v7.748047h-7.74804zm55.30078 0h7.74805v7.748047h-7.74805zm55.30273 0h7.74805v7.748047h-7.74805zm55.30078 0h7.74805v7.748047h-7.74805zm-221.20703 86.410158h7.74805v7.74804h-7.74805zm55.30274 0h7.74804v7.74804h-7.74804zm55.30078 0h7.74805v7.74804h-7.74805zm55.30273 0h7.74805v7.74804h-7.74805zm55.30078 0h7.74805v7.74804h-7.74805zm55.30274 0h7.74805v7.74804h-7.74805zm-276.50977 55.30078h7.74805v7.74805h-7.74805zm55.30274 0h7.74804v7.74805h-7.74804zm55.30078 0h7.74805v7.74805h-7.74805zm72.49609 0h28.66016l-13.31641 23.30273h-2.02734zm93.41016 0h7.74805v7.74805h-7.74805zm-276.50977 55.30273h7.74805v7.74805h-7.74805zm55.30274 0h7.74804v7.74805h-7.74804zm55.30078 0h7.74805v7.74805h-7.74805zm165.90625 0h7.74805v7.74805h-7.74805zm-81.53516 1.73047a16.0016 16.0016 0 0 0 -1.09765 1.51758c.24897-.58358.60319-1.11721 1.09765-1.51758zm-194.97461 53.57031h7.74805v7.74805h-7.74805zm55.30274 0h7.74804v7.74805h-7.74804zm55.30078 0h7.74805v7.74805h-7.74805zm165.90625 0h7.74805v7.74805h-7.74805zm-79.51953 12.09766h1.02344l14.47265 26.75781h-30.04492z" fill="#775fa0" filter="url(#c)" opacity=".667"/><path d="m131.61914 57.158203c-.88422-.000002-1.73222.351283-2.35742.976563l-55.300782 55.300784c-.62528.6252-.976565 1.4732-.976563 2.35742v298.97656c-.000181 1.84138 1.492602 3.33417 3.333984 3.33399h347.363281c1.84138.00017 3.33416-1.49261 3.33398-3.33399v-298.97656c0-.88422-.35128-1.73222-.97656-2.35742l-55.30078-55.300784c-.6252-.62528-1.4732-.976565-2.35742-.976563zm18.88867 22.220703h33.08008v33.080074h-33.08008zm55.30078 0h33.08008v33.080074h-33.08008zm55.30274 0h33.08008v33.080074h-33.08008zm55.30078 0h33.08008v33.080074h-33.08008zm-188.12695 11.039063v22.041011h-22.04102zm243.42968 0 22.04102 22.041011h-22.04102zm-276.509762 44.263671h33.080082v8.88477h-33.080082zm55.302732 0h33.08008v8.88477h-33.08008zm55.30078 0h33.08008v8.88477h-33.08008zm55.30274 0h33.08008v8.88477h-33.08008zm55.30078 0h33.08008v8.88477h-33.08008zm55.30273 0h33.08008v8.88477h-33.08008zm-276.509762 31.10742h33.080082v33.08008h-33.080082zm55.302732 0h33.08008v33.08008h-33.08008zm55.30078 0h33.08008v33.08008h-33.08008zm55.30274 0h33.08008v33.08008h-33.08008zm55.30078 0h33.08008v33.08008h-33.08008zm55.30273 0h33.08008v33.08008h-33.08008zm-276.509762 55.30078h33.080082v33.08008h-33.080082zm55.302732 0h33.08008v33.08008h-33.08008zm55.30078 0h33.08008v33.08008h-33.08008zm63.33789 0h72.31055l-27.79883 48.63477h-16.71875zm102.56836 0h33.08008v33.08008h-33.08008zm-110.60351 30.72657 14.07031 24.62109v60.63086l-14.07031 24.62695zm88.38086 0v109.8789l-14.07031-24.625v-60.63281zm-254.287112 24.57617h33.080082v33.08008h-33.080082zm55.302732 0h33.08008v33.08008h-33.08008zm55.30078 0h33.08008v33.08008h-33.08008zm165.90625 0h33.08008v33.08008h-33.08008zm-66.41406 8.67773c4.87887 0 8.76261 3.88314 8.76367 8.76172-.001 2.64361-1.19206 5.13797-3.24804 6.80274-.93268.75574-1.387 1.9546-1.18946 3.13867l3.83789 23.01758h-16.32617l3.83789-23.01954c.19755-1.18406-.25678-2.38291-1.18945-3.13867-2.05302-1.66234-3.24396-4.15687-3.24805-6.80078.002-4.88029 3.88352-8.76172 8.76172-8.76172zm-210.095702 46.62305h33.080082v33.08008h-33.080082zm55.302732 0h33.08008v33.08008h-33.08008zm55.30078 0h33.08008v33.08008h-33.08008zm165.90625 0h33.08008v33.08008h-33.08008zm-74.51562 12.09766h16.20312l28.28125 52.08984h-72.76367zm-201.994142 43.20507h33.080082v8.88477h-33.080082zm55.302732 0h33.08008v8.88477h-33.08008zm55.30078 0h33.08008v8.88477h-33.08008zm165.90625 0h33.08008v8.88477h-33.08008z" fill="#775fa0" filter="url(#a)"/><path d="m131.61914 60.492188-55.300781 55.300782v298.97656h347.363281v-298.97656l-55.30078-55.300782h-228.98438zm15.55469 15.552734h39.74805v39.748048h-39.74805zm55.30078 0h39.74805v39.748048h-39.74805zm55.30273 0h39.74805v39.748048h-39.74805zm55.30078 0h39.74805v39.748048h-39.74805zm-181.45898 6.324219v33.423829h-33.423828zm236.76172 0 33.42383 33.423829h-33.42383zm-276.509766 48.978519h39.748046v15.55273h-39.748046zm55.302736 0h39.74805v15.55273h-39.74805zm55.30078 0h39.74805v15.55273h-39.74805zm55.30273 0h39.74805v15.55273h-39.74805zm55.30078 0h39.74805v15.55273h-39.74805zm55.30274 0h39.74805v15.55273h-39.74805zm-276.509766 31.10742h39.748046v39.74804h-39.748046zm55.302736 0h39.74805v39.74804h-39.74805zm55.30078 0h39.74805v39.74804h-39.74805zm55.30273 0h39.74805v39.74804h-39.74805zm55.30078 0h39.74805v39.74804h-39.74805zm55.30274 0h39.74805v39.74804h-39.74805zm-276.509766 55.30078h39.748046v39.74805h-39.748046zm55.302736 0h39.74805v39.74805h-39.74805zm55.30078 0h39.74805v39.74805h-39.74805zm60.92578 0h83.80273l-31.60351 55.30273h-20.59766zm104.98047 0h39.74805v39.74805h-39.74805zm-110.60352 21.50586 20.73828 36.29101v62.40235l-20.73828 36.29492zm95.04883 0v134.98828l-20.73828-36.29297v-62.4043zm-260.955076 33.79687h39.748046v39.74805h-39.748046zm55.302736 0h39.74805v39.74805h-39.74805zm55.30078 0h39.74805v39.74805h-39.74805zm165.90625 0h39.74805v39.74805h-39.74805zm-63.08008 8.67774c6.68112 0 12.09766 5.41653 12.09766 12.09765-.002 3.6468-1.65019 7.09574-4.48438 9.39063l4.48438 26.90039h-24.19336l4.48437-26.90234c-2.83301-2.29392-4.48035-5.74341-4.48437-9.38868 0-6.68112 5.41457-12.09765 12.0957-12.09765zm-213.429686 46.62305h39.748046v39.74804h-39.748046zm55.302736 0h39.74805v39.74804h-39.74805zm55.30078 0h39.74805v39.74804h-39.74805zm165.90625 0h39.74805v39.74804h-39.74805zm-73.03125 12.09765h20.07031l31.7832 58.75781h-83.80273zm-203.478516 43.20508h39.748046v15.55273h-39.748046zm55.302736 0h39.74805v15.55273h-39.74805zm55.30078 0h39.74805v15.55273h-39.74805zm165.90625 0h39.74805v15.55273h-39.74805z"/><path d="m278.51367 269.72656a3.3333332 3.3333332 0 0 0 -3.33203 3.33203v67.39844a3.3333332 3.3333332 0 0 0 3.33203 3.33203h53.57422a3.3333332 3.3333332 0 0 0 3.33203-3.33203v-67.39844a3.3333332 3.3333332 0 0 0 -3.33203-3.33203zm26.78711 15.3418c4.87969 0 8.76456 3.88295 8.76563 8.76172-.001 2.64371-1.19465 5.14043-3.25 6.80469a3.3333332 3.3333332 0 0 0 -1.18946 3.13867l3.83789 23.01953h-16.32812l3.83789-23.02344a3.3333332 3.3333332 0 0 0 -1.18945-3.13867c-2.05309-1.66241-3.2459-4.15682-3.25-6.79883v-.002c0-.00065 0-.001 0-.002.002-4.87782 3.88659-8.75976 8.76562-8.75976z" fill="#775fa0" filter="url(#b)"/><path d="m278.5143 273.05771v67.39896h53.57354v-67.39896zm26.78678 8.67802c6.68113 0 12.09724 5.41612 12.09724 12.09725-.002 3.6468-1.64996 7.09702-4.48415 9.39191l4.48415 26.89983h-24.1945l4.48415-26.90321c-2.83301-2.29392-4.48012-5.74326-4.48415-9.38853 0-6.68113 5.41612-12.09725 12.09726-12.09725z"/></g></svg>