<svg height="500" viewBox="0 0 500 500" width="500" xmlns="http://www.w3.org/2000/svg"><g transform="translate(.000015)"><circle cx="249.99998" cy="250" fill="#e51a1a" r="250"/><path d="m181.33938 83.856939c97.52275-31.84694 203.27597 26.159281 217.12696 131.568651 10.04116 85.89723-45.79566 162.6049-131.11288 174.6444-76.26503 6.65-147.16573-45.4981-149.44603-126.3231.16679-50.89801 30.03241-87.97493 76.60677-108.40662 44.00125-16.48183 90.46555-3.00917 112.28155 39.63622 17.95322 40.0953 3.57775 87.31302-40.4313 103.80676-21.98685 8.23292-51.6578-5.55285-56.72562-31.5612 24.48155 21.7253 69.7211 11.74379 80.1808-21.06198 5.24648-24.88185-11.48198-41.52298-24.36368-55.64156-23.21161-15.22125-63.26956-13.16738-85.32502 12.05139-41.51846 46.43224-18.48961 112.52397 35.72777 131.08081 60.66482 17.11352 118.96473-29.63961 126.96137-92.39988 2.7637-54.83226-40.99398-106.19486-96.51046-114.27807-76.21988-10.3001-138.45939 50.84936-147.743191 124.09106-9.31956 73.21828 47.315731 138.67973 111.863041 158.33924 49.05305 9.49897 98.18701 2.07129 139.64056-27.40671 82.90715-58.95602 100.11901-177.97214 43.55644-260.39974-52.71171-79.885311-158.575-103.987181-249.15842-67.061741-86.705021 39.45169-149.0660905 134.549061-117.102931 229.167621 15.77888-74.65377 50.93986-153.5943 123.407351-187.514491 9.28724-4.60517 19.44718-8.7232 30.56692-12.33106zm-160.722321 286.075591c-52.57825-113.8254-.38403-260.89182 113.777041-317.643861 10.84604-5.32012 22.21219-9.7712 34.03518-13.36069 115.76394-28.75816 246.03978 34.00351 263.68455 158.897471 10.04526 85.91695-27.72044 168.80365-107.97396 206.83173-102.24035 46.26108-224.798841-11.43986-234.690511-131.24969-7.33455-123.78718 127.307171-194.136761 222.718561-137.24102-42.54074-27.89653-94.21826-33.44528-140.80825-12.98978-71.17376 32.62266-105.080851 118.0397-80.762351 190.63139 30.697281 88.13423 123.572931 132.04164 212.817841 105.59803 82.80488-25.06359 132.16266-100.33164 140.19255-180.04986 12.12434-145.020371-132.23823-245.3588802-265.59709-221.973611 7.92036-4.10499 20.5989-8.4277792 35.61563-11.7452592 60.06317-13.23825 124.63426-3.45807 179.45368 32.4903392 109.65077 71.904621 141.09454 217.803071 65.16008 333.599141-143.00482 218.07486-377.311781 117.06797-437.622951-1.79433" fill="#b21a1a"/></g><g><path d="m250 0a250 250 0 0 0 -23.56445 1.6855469l1.40039 133.9218731c-8.77229 1.71647-17.19076 4.43275-25.15235 7.99805l-70.10351-113.60547a250 250 0 0 0 -53.117189 37.884766l83.839839 104.666014c-3.58995 4.01922-6.89067 8.27926-9.90429 12.76953l-120.910159-57.29883a250 250 0 0 0 -30.707031 97.07422l131.82813 22.42578c-44.624053 16.45782-88.216355 35.42081-131.968755 54.02344.0005194.00457.0014334.0091.0019531.01367 48.5835879 2.81019 97.1933669 3.34679 145.8359419 3.76758 1.22545 2.27345 2.49523 4.5161 3.86328 6.69531l-102.519534 98.5918c19.94211 22.55799 45.761287 42.89435 75.361324 58.42383l72.44141-115.40039c4.02027 2.09013 8.16258 3.95421 12.43945 5.57422l-21.08789 133.7207c19.38191 4.60148 39.45017 7.14977 59.85156 6.91211a250 250 0 0 0 2.17188.15625 250 250 0 0 0 3.27148-.23438c5.69087-.19946 11.39655-.59375 17.11719-1.2246a250 250 0 0 0 53.98633-11.20899l-32.78516-119.63086c28.34746 32.5188 57.82248 64.02983 86.97657 95.82227a250 250 0 0 0 .23632-.16211c-15.58084-40.03983-31.21042-80.05073-47.68359-119.73047l98.50977 79.12305a250 250 0 0 0 57.74023-95.77735l-124.10156-47.69726c.47025-1.82098.84327-3.67761 1.22656-5.53125l135.16992-46.36328c-.00192-.05845.00196-.11734 0-.17579-46.11425-8.84022-92.74416-12.24781-139.45117-16.01953-.1962-.55211-.37584-1.1119-.58008-1.66015l122.83985-62.98828c-11.2838-27.79749-27.93944-53.493909-49.57813-75.589848l-100.9043 83.281248c13.14539-32.48001 26.29016-64.959447 39.43555-97.439451l-83.08789 83.087891c-1.58608-.5499-3.15342-1.14039-4.76953-1.62305l23.44141-134.4042944c-16.49633-2.97681352-33.1852-4.23857575-49.80274-3.67773435a250 250 0 0 0 -7.20703-.17578125z" fill="#861313"/><path d="m250 0a250 250 0 0 0 -5.57812.3984375l1.58007 151.0917925c-18.28936.77709-35.31012 6.55581-49.72656 16.00391l-79.51562-128.855468a250 250 0 0 0 -23.738286 17.380859l94.472656 117.937499c-11.35427 9.36732-20.58205 21.22264-26.85547 34.71485l-136.791014-64.82618a250 250 0 0 0 -19.7148435 63.27735l148.9999975 25.0625c-1.07715 5.82428-1.64258 11.824-1.64258 17.95507 0 3.36801.17013 6.70002.5 9.98243l-69.605464 26.63867 76.425784.66211c4.00563 9.78375 9.5388 18.78525 16.30078 26.71094l-113.841799 109.48242c13.819772 13.43506 29.690964 25.83591 47.240239 36.53125l82.34375-131.17383c11.19846 8.45848 24.24869 14.58358 38.41796 17.66211l-23.6289 149.83008c13.83188 2.27264 27.91942 3.54314 42.18554 3.37695a250 250 0 0 0 2.17188.15625 250 250 0 0 0 3.27148-.23438c5.69087-.19946 11.39655-.59375 17.11719-1.2246a250 250 0 0 0 36.80469-5.80664l-39.83203-145.3379c8.33634-1.46568 16.31651-3.98051 23.79883-7.40429l35.83593 40.65039-20.50976-49.40039c6.62156-4.60865 12.65605-10.00341 17.96484-16.05274l117.00781 93.98047a250 250 0 0 0 39.33204-65.4375l-140.16407-53.87109c4.12586-9.35 6.84702-19.45328 7.88282-30.04297l81.45898-24.9375-83.46094-6.74024c-2.17353-9.51158-5.72592-18.50518-10.43554-26.75976l139.00976-71.27734c-8.11498-16.26289-18.18993-31.622041-30.08789-45.798832l-121.20898 100.039062c-5.12606-5.72234-10.90795-10.8472-17.22657-15.25195l14.93946-36.91407-28.82227 28.82032c-9.24037-4.41918-19.26799-7.44471-29.81055-8.79883l26.31055-150.8496106c-10.64097-1.08364299-21.31966-1.53323472-31.96875-1.17382815a250 250 0 0 0 -7.20703-.17578125z" fill="#ff8066" stroke-width="36"/></g></svg>