<svg height="500" viewBox="0 0 500 500" width="500" xmlns="http://www.w3.org/2000/svg" xmlns:xlink="http://www.w3.org/1999/xlink"><radialGradient id="a" cx="1362.7291" cy="216.11429" gradientTransform="matrix(1.0000001 -.0000059 .0000001 1.0000003 -112.72927 33.893757)" gradientUnits="userSpaceOnUse" r="250"><stop offset="0" stop-color="#ff851a"/><stop offset=".42441937" stop-color="#f87000"/><stop offset=".86367416" stop-color="#f26900"/><stop offset="1" stop-color="#e55f00"/></radialGradient><filter id="b" color-interpolation-filters="sRGB" height="1.084502" width="1.113728" x="-.056864" y="-.042251"><feGaussianBlur stdDeviation="4.9711763"/></filter><g transform="translate(-1000)"><path d="m1500 250a250 250 0 0 1 -250 250 250 250 0 0 1 -250-250 250 250 0 0 1 250-250 250 250 0 0 1 250 250z" fill="url(#a)"/><path d="m1309.2298 33.82789c128.5196 30.706851 207.8974 167.48127 169.5927 291.56949-31.3771 95.69524-112.8693 162.03793-212.5543 174.60263 153.1796-8.09118 266.0956-163.0043 218.7012-309.92978-36.4562-114.666588-154.6038-191.5214848-270.6514-169.822657-18.8526 4.215647-38.4387 10.498641-55.8829 18.694487-112.5353 47.459213-168.47522 196.206-99.9632 307.85319 57.6978 93.63045 168.5136 141.8489 267.9993 100.77239-134.92 68.97589-303.283-51.46877-311.488-201.30723-4.4167-117.68321 76.8182-219.674136 190.654-246.26040176-89.0147 9.18391126-152.6601 79.39239576-187.7408 157.21169176-38.45522 102.70317 5.2337 231.75078 109.038 294.08388 114.5107 66.1048 260.3537 29.37245 323.6836-83.60152 42.2104-77.69758 34.3514-177.62383-23.1776-249.88923-57.5404-72.257811-157.5429-102.460489-246.4118-71.877168-81.7429 30.682061-131.1298 101.133078-134.0478 190.176958.6692 92.68536 61.7912 168.55972 147.5399 198.52472 128.5549 37.82014 266.7725-70.33038 233.6823-209.88949-14.7104-64.39775-57.8855-122.14991-125.7378-141.121386-71.391-15.467036-138.9716 1.205-181.2869 64.641366-18.8995 29.2286-28.9384 85.21395-26.105 97.65297m0 0c13.5324-50.18833 30.6277-97.66354 72.2125-128.94941 53.182-38.308183 124.4576-37.093813 181.7444-.48035 50.1457 36.48017 75.4845 90.37713 72.3557 150.91678-6.6674 64.04407-38.4038 109.83277-91.6401 141.00844-63.9019 34.56125-135.3795 4.83213-189.1258-35.28385-78.8706-65.48566-79.7477-186.67235-8.9744-256.76104 63.7369-55.941605 167.0207-64.891564 238.7167-6.65053 78.8163 58.35315 90.3045 169.04089 40.972 246.62443-35.2274 56.41892-88.4571 87.60135-152.5581 93.63158-81.9488 2.18264-160.666-41.91503-196.8695-120.9383-36.2055-79.02511-22.5771-164.33167 26.8727-227.66064 49.4316-63.30896 138.3491-86.746364 220.4504-67.54202" fill="#c50"/></g><g><g id="c" transform="translate(.001725 -.136719)"><path d="m6.7050781 201.86914c-1.9554706 31.82386 2.5084238 64.07919 9.5664059 95.17207 5.860764 25.81871 15.209433 50.98538 26.955078 74.71288 11.376586 22.98196 25.447308 44.81569 41.712891 64.64062 15.417187 18.79089 32.614357 34.93126 52.365237 50.74414 37.15987-32.76368 69.90267-69.73699 102.99609-106.6543 0 0-15.31045-5.15753-20.91406-10.60742-15.82686-15.3927-28.21558-36.39564-31.59071-58.21383-3.95327-25.55551 2.77895-53.21535 14.66981-76.1788 6.88163-13.2897 31.10449-32.37695 31.10449-32.37695l-139.804685-202.97083125c-24.531312 26.27518525-47.13338 56.53989425-61.69043 89.81542925-15.331309 35.045392-23.0240731 73.736832-25.3701169 111.916992z" fill="#994100"/><path d="m98.82348 424.93939c11.67152 14.147 24.37417 26.96061 37.90136 38.26099 0 0 16.95935-15.62151 25.05305-23.82539 17.04831-17.28038 49.46699-53.4446 49.46699-53.4446s-13.63904-6.91719-18.38442-12.64429c-9.63732-11.63109-14.17954-26.1294-18.2926-41.45866-13.89449-51.79581.55479-103.77337 34.82328-132.09032l-117.622996-170.768371c-16.427371 17.936752-30.236731 38.949688-40.981383 62.202804l106.668869 112.361527-114.022638-94.75477c-8.79047 23.20241-14.708494 48.26145-17.366679 74.45971l107.071077 64.14742-108.445604-44.80745c-.921135 23.38703 5.200629 71.88762 5.200629 71.88762l95.427775 16.85923-91.572976 1.40465s11.248555 38.51625 17.906159 54.25217l79.062577-5.78314-71.351068 22.58259c8.273947 16.74588 17.810507 32.41376 28.36768 46.86971l62.578288-25.00356z" fill="#ffa348" stroke-width="36"/></g><use stroke-width="1.04545" transform="matrix(-1 0 0 1 500 0)" xlink:href="#c"/><g transform="translate(1.392532)"><path d="m202.33203 281.23242c-12.51477 14.88584-16.91114 35.25748-17.5332 53.67774-.45075 13.34731 3.00216 27.07586 8.51758 38.79687-12.81991 4.72664-25.0401 12.30571-33.71678 24.89259-14.80975 22.01274-15.5219 48.89884-15.89841 82.11817l.86914 58.92481 208.94336-.0742v-58.84083c-.13611-31.84123.80516-58.01984-13.00684-81.47071-10.56415-14.43758-23.6812-22.25617-36.76269-26.78614 5.1472-11.40674 8.39095-24.666 7.89258-37.58398-.71112-18.43268-5.05702-38.84973-17.61914-53.76563-10.9659-13.02059-27.87101-23.85742-45.78519-23.85742-17.96495.008-34.91317 10.89984-45.90041 23.96875z" fill="#ffa348" filter="url(#b)"/><path d="m336.3369 402.00189c-11.15292-15.21893-25.32543-22.72979-39.40135-26.62689 6.21134-11.62679 10.23768-26.48946 9.70507-40.29492-.68541-17.76594-4.99434-37.13942-16.44726-50.73828-10.1808-12.08839-26.15463-22.08482-41.95899-22.07813-15.85512.007-31.872 10.04862-42.07498 22.18469-11.41338 13.57578-15.76385 32.90383-16.36247 50.62976-.48028 14.22176 3.75692 29.55361 10.35743 41.41407-14.03371 4.23781-27.3363 11.74225-36.42284 24.92284-13.76569 20.46063-14.65449 46.20117-15.03031 79.29491l.86909 58.8584h198.94336v-58.8301c-.13649-31.91861.60107-57.0191-12.17675-78.73635z" fill="#994100"/><path d="m248.23452 280.264c-10.452 0-20.172 5.342-27.78 15.126-7.61 9.784-12.658 23.895-12.658 39.688s5.047 29.903 12.656 39.687c7.61 9.785 17.33 15.158 27.782 15.158s20.14-5.373 27.75-15.157c7.61-9.783 12.656-23.893 12.656-39.686s-5.047-29.904-12.656-39.688c-7.61-9.784-17.298-15.125-27.75-15.125zm-.001 129.532c-14.957 0-28.49-6.798-38.75-17.406-11.98153 2.89248-24.71502 10.22352-30.875 19.158-9.19 13.66-11.542 37.05-11.907 69.248l.60379 40.77188h163.20821v-40.77188c-.135-31.55-1.154-55.19-9.188-68.906-9.60621-13.03542-19.59521-17.49248-33.467-20.4365-10.359 11.1405-24.235 18.3425-39.625 18.3425z" fill="#ffa348" stroke-width="36"/></g></g></svg>