<svg height="500" viewBox="0 0 500 500" width="500" xmlns="http://www.w3.org/2000/svg" xmlns:xlink="http://www.w3.org/1999/xlink"><radialGradient id="a" cx="1362.7291" cy="216.11429" gradientTransform="matrix(1.0000001 -.0000059 .0000001 1.0000003 -112.72927 33.893757)" gradientUnits="userSpaceOnUse" r="250"><stop offset="0" stop-color="#ff851a"/><stop offset=".42441937" stop-color="#f87000"/><stop offset=".86367416" stop-color="#f26900"/><stop offset="1" stop-color="#e55f00"/></radialGradient><g transform="translate(-1000)"><path d="m1500 250a250 250 0 0 1 -250 250 250 250 0 0 1 -250-250 250 250 0 0 1 250-250 250 250 0 0 1 250 250z" fill="url(#a)"/><path d="m1309.2298 33.82789c128.5196 30.706851 207.8974 167.48127 169.5927 291.56949-31.3771 95.69524-112.8693 162.03793-212.5543 174.60263 153.1796-8.09118 266.0956-163.0043 218.7012-309.92978-36.4562-114.666588-154.6038-191.5214848-270.6514-169.822657-18.8526 4.215647-38.4387 10.498641-55.8829 18.694487-112.5353 47.459213-168.47522 196.206-99.9632 307.85319 57.6978 93.63045 168.5136 141.8489 267.9993 100.77239-134.92 68.97589-303.283-51.46877-311.488-201.30723-4.4167-117.68321 76.8182-219.674136 190.654-246.26040176-89.0147 9.18391126-152.6601 79.39239576-187.7408 157.21169176-38.45522 102.70317 5.2337 231.75078 109.038 294.08388 114.5107 66.1048 260.3537 29.37245 323.6836-83.60152 42.2104-77.69758 34.3514-177.62383-23.1776-249.88923-57.5404-72.257811-157.5429-102.460489-246.4118-71.877168-81.7429 30.682061-131.1298 101.133078-134.0478 190.176958.6692 92.68536 61.7912 168.55972 147.5399 198.52472 128.5549 37.82014 266.7725-70.33038 233.6823-209.88949-14.7104-64.39775-57.8855-122.14991-125.7378-141.121386-71.391-15.467036-138.9716 1.205-181.2869 64.641366-18.8995 29.2286-28.9384 85.21395-26.105 97.65297m0 0c13.5324-50.18833 30.6277-97.66354 72.2125-128.94941 53.182-38.308183 124.4576-37.093813 181.7444-.48035 50.1457 36.48017 75.4845 90.37713 72.3557 150.91678-6.6674 64.04407-38.4038 109.83277-91.6401 141.00844-63.9019 34.56125-135.3795 4.83213-189.1258-35.28385-78.8706-65.48566-79.7477-186.67235-8.9744-256.76104 63.7369-55.941605 167.0207-64.891564 238.7167-6.65053 78.8163 58.35315 90.3045 169.04089 40.972 246.62443-35.2274 56.41892-88.4571 87.60135-152.5581 93.63158-81.9488 2.18264-160.666-41.91503-196.8695-120.9383-36.2055-79.02511-22.5771-164.33167 26.8727-227.66064 49.4316-63.30896 138.3491-86.746364 220.4504-67.54202" fill="#c50"/></g><g><path id="b" d="m-279.35349-90.466785-17.33002-17.206585-9.21301 22.61674 2.64755-24.27729-23.42669 6.89829 20.63147-13.06671-19.9996-14.01471 23.07947 7.98337-1.51241-24.37434 8.14816 23.02181 18.11367-16.3796-12.91888 20.72435 24.09977 3.94932-24.25774 2.82103z" fill="#ffa348" transform="translate(161.25343 48.522797)"/><path id="c" d="m-279.35349-90.466785-18.65321-13.930225-18.03563 14.721062 7.48427-22.044942-19.57388-12.60384 23.27875.3057 5.93831-22.51066 6.90278 22.23387 23.24396-1.30851-19.01259 13.43558z" fill="#ffa348" transform="translate(222.35136 51.14329)"/><use stroke-width="1.50282" transform="matrix(.6483621 -.14968619 .14968619 .6483621 366.04092 72.078025)" xlink:href="#c"/><use stroke-width="1.51474" transform="matrix(.66017871 0 0 .66017871 109.20824 64.291653)" xlink:href="#b"/><use stroke-width="2.73585" transform="matrix(.36551743 0 0 .36551743 488.08019 75.964464)" xlink:href="#b"/><use stroke-width="3.02885" transform="matrix(.33015808 0 0 .33015808 440.13241 62.105406)" xlink:href="#b"/><use stroke-width="2.42328" transform="matrix(.41266324 0 0 .41266324 102.00183 458.04715)" xlink:href="#b"/><use stroke-width="1.88491" transform="matrix(.47683518 -.23256806 .23256806 .47683518 431.42942 348.82983)" xlink:href="#b"/><use stroke-width="1.50282" transform="matrix(.51712589 -.41876029 .41876029 .51712589 546.50737 461.92742)" xlink:href="#c"/><use stroke-width="2.24208" transform="matrix(.27459465 -.35146513 .35146513 .27459465 162.43196 313.64546)" xlink:href="#c"/><use stroke-width="2.62808" transform="matrix(.16080876 -.3448555 .3448555 .16080876 110.67802 309.26447)" xlink:href="#c"/><use stroke-width="2.71272" transform="matrix(.07664345 -.36057912 .36057912 .07664345 182.99532 335.79984)" xlink:href="#c"/><use stroke-width="2.42328" transform="matrix(.41266324 0 0 .41266324 484.41395 393.37452)" xlink:href="#b"/><use stroke-width="1.61048" transform="matrix(.4825554 -.39076567 .39076567 .4825554 201.21073 347.38221)" xlink:href="#b"/><g stroke-width="3.98419"><use transform="matrix(.19505781 -.1579547 .1579547 .19505781 456.22931 25.182242)" xlink:href="#c"/><use transform="matrix(.19505781 -.1579547 .1579547 .19505781 81.76136 31.954813)" xlink:href="#c"/><use transform="matrix(.15452641 -.19778479 .19778479 .15452641 58.241576 55.330893)" xlink:href="#c"/><use transform="matrix(.19505781 -.1579547 .1579547 .19505781 48.76136 117.95481)" xlink:href="#c"/><use transform="matrix(.15452641 -.19778479 .19778479 .15452641 150.24158 38.330893)" xlink:href="#c"/></g><use stroke-width="2.71272" transform="matrix(.28648294 -.23198931 .23198931 .28648294 508.40719 35.662294)" xlink:href="#c"/><use stroke-width="2.00313" transform="matrix(.38796584 -.31416854 .31416854 .38796584 511.53241 79.146574)" xlink:href="#c"/><use stroke-width="3.98419" transform="matrix(.19505781 -.1579547 .1579547 .19505781 477.76136 305.95481)" xlink:href="#c"/><path d="m321.08594 46.818359c-17.76149 17.171791-22.55806 39.69548-18.07032 58.851561-11.77554-18.367464-30.43463-30.567958-52.33789-30.568358-23.2377-.000424-42.86742 13.692238-54.44921 33.957028 5.9221-19.826234 1.50518-44.056144-17.30664-62.240231-8.35014-8.568992-6.10786-7.430762-17.20313-4.435547-74.200106 20.03764-127.49294 64.020658-145.453125 114.380858-8.9800926 25.18011-8.2905318 52.68002 4.804687 76.27735 13.09522 23.59731 37.509529 42.32634 71.919922 54.26953 8.890776 3.04578 18.160096 5.52442 27.958986 7.62304 36.3176 14.64636 63.56487 48.85152 69.6875 81.07813-30.51099 24.23432-51.07227 56.45508-51.07227 56.45508-12.70552 15.76172 2.45562 23.30583 13.625 39.74804l-80.412106 45.78516h353.240236l-78.51563-45.64062c9.98684-15.98313 24.47043-23.43546 13.72657-39.89063 0 0-20.83633-32.70805-51.75782-57.00586 6.31762-32.06412 33.47676-65.96471 69.58789-80.5293 9.80053-2.09807 19.06879-4.57578 27.94922-7.625 34.40584-11.94099 58.82231-30.6671 71.91992-54.26367 13.09763-23.59656 13.79236-51.09648 4.81446-76.27734-17.95577-50.36151-71.2489-94.345413-145.45117-114.384768-9.77533-3.888508-11.96232-.663151-17.20508 4.435547zm-130.81836 75.189451c-5.60991 17.31063-6.64165 33.9653-2.82031 50.47266-19.90184 6.76184-44.26655 19.67059-54.2168 7.9043-3.99353-5.53182-5.7638-20.31591.24023-39.59766 22.50449 8.41829 45.78895-1.29811 56.79688-18.7793zm122.2207 4.4043c16.75288 16.89655 33.65539 23.47895 54.05664 14.375 5.97237 19.17546 4.26051 33.91102.31055 39.48437-11.6307 13.10789-40.99418-.58236-53.09375-7.125 3.7138-15.74427 2.99529-32.27974-1.27344-46.73437zm-62.10742 311.85351c16.57937 0 26.52664 7.64463 30.46875 16.22657s3.7702 19.36865-9.64063 32.78125l-20.8164 20.81836-20.8125-20.81836c-14.87121-14.87489-14.55777-25.14462-10.5586-33.25391 3.99919-8.10928 14.83441-15.7539 31.35938-15.75391z" fill="#994100"/><path d="m126.6447 277.79327c46.68379 18.33586 80.45034 62.76699 83.18841 106.18643-31.10643 21.43684-55.19781 58.32944-55.19781 58.32944l24.3921 35.90688-38.25885 21.78398h76.08147c-37.52096-37.53024-10.91519-79.73472 33.52987-79.73472 45.053 0 68.63297 44.65575 33.55864 79.73472h75.2981l-37.47456-21.78398 24.3949-35.90688s-24.48121-37.49776-55.95149-58.85107c2.97383-43.25422 36.66242-87.40227 83.15871-105.66572 9.93691-2.04846 19.07003-4.51087 27.77202-7.4977 125.59754-43.58651 71.98316-172.855392-67.53821-210.535073-37.79663 36.541753 6.07018 94.378343 40.49201 52.791093 34.2492 64.11746 7.98499 118.42146-67.08757 77.41432-11.02657 22.73254-31.75522 38.40178-56.32832 38.40178-24.78472 0-45.63589-15.93376-56.59007-38.98281-75.89955 42.12-102.573082-12.41139-68.16146-76.83329 34.42555 41.58632 78.2905-16.250268 40.48969-52.789701-139.517194 37.676432-193.146418 166.941601-67.554443 210.532751 8.715913 2.9859 17.853673 5.4511 27.786863 7.49955zm76.39055-125.65183c0 33.46582 22.22207 58.46958 47.64258 58.46958 25.41958 0 47.63979-25.00468 47.63979-58.46866 0-33.46767-22.22021-59.040405-47.64026-59.040869-25.42004-.000465-47.64211 25.575979-47.64211 59.039949z" fill="#ffa348"/></g></svg>