<svg height="500" viewBox="0 0 500 500" width="500" xmlns="http://www.w3.org/2000/svg" xmlns:xlink="http://www.w3.org/1999/xlink"><radialGradient id="a" cx="1362.7291" cy="216.11429" gradientTransform="matrix(1.0000001 -.0000059 .0000001 1.0000003 -112.72927 33.893757)" gradientUnits="userSpaceOnUse" r="250"><stop offset="0" stop-color="#ff851a"/><stop offset=".42441937" stop-color="#f87000"/><stop offset=".86367416" stop-color="#f26900"/><stop offset="1" stop-color="#e55f00"/></radialGradient><g transform="translate(-1000)"><path d="m1500 250a250 250 0 0 1 -250 250 250 250 0 0 1 -250-250 250 250 0 0 1 250-250 250 250 0 0 1 250 250z" fill="url(#a)"/><path d="m1309.2298 33.82789c128.5196 30.706851 207.8974 167.48127 169.5927 291.56949-31.3771 95.69524-112.8693 162.03793-212.5543 174.60263 153.1796-8.09118 266.0956-163.0043 218.7012-309.92978-36.4562-114.666588-154.6038-191.5214848-270.6514-169.822657-18.8526 4.215647-38.4387 10.498641-55.8829 18.694487-112.5353 47.459213-168.47522 196.206-99.9632 307.85319 57.6978 93.63045 168.5136 141.8489 267.9993 100.77239-134.92 68.97589-303.283-51.46877-311.488-201.30723-4.4167-117.68321 76.8182-219.674136 190.654-246.26040176-89.0147 9.18391126-152.6601 79.39239576-187.7408 157.21169176-38.45522 102.70317 5.2337 231.75078 109.038 294.08388 114.5107 66.1048 260.3537 29.37245 323.6836-83.60152 42.2104-77.69758 34.3514-177.62383-23.1776-249.88923-57.5404-72.257811-157.5429-102.460489-246.4118-71.877168-81.7429 30.682061-131.1298 101.133078-134.0478 190.176958.6692 92.68536 61.7912 168.55972 147.5399 198.52472 128.5549 37.82014 266.7725-70.33038 233.6823-209.88949-14.7104-64.39775-57.8855-122.14991-125.7378-141.121386-71.391-15.467036-138.9716 1.205-181.2869 64.641366-18.8995 29.2286-28.9384 85.21395-26.105 97.65297m0 0c13.5324-50.18833 30.6277-97.66354 72.2125-128.94941 53.182-38.308183 124.4576-37.093813 181.7444-.48035 50.1457 36.48017 75.4845 90.37713 72.3557 150.91678-6.6674 64.04407-38.4038 109.83277-91.6401 141.00844-63.9019 34.56125-135.3795 4.83213-189.1258-35.28385-78.8706-65.48566-79.7477-186.67235-8.9744-256.76104 63.7369-55.941605 167.0207-64.891564 238.7167-6.65053 78.8163 58.35315 90.3045 169.04089 40.972 246.62443-35.2274 56.41892-88.4571 87.60135-152.5581 93.63158-81.9488 2.18264-160.666-41.91503-196.8695-120.9383-36.2055-79.02511-22.5771-164.33167 26.8727-227.66064 49.4316-63.30896 138.3491-86.746364 220.4504-67.54202" fill="#c50"/></g><g><path d="m1305.0562 6.1377211c-14.211 28.7951679-26.4092 59.0537189-45.3492 80.9989979-84.2529-24.244864-158.2666-43.118313-225.1269-87.136719-8.9902 17.075322-8.1732 29.232641-6.961 46.201172-.2787 16.822815 4.2679 31.21196 6.9425 46.193375 2.3687 13.845433.8466 28.301373 4.2802 41.921863 3.0459 11.3664 7.4878 19.67941 13.7578 28.24218l5.8965 31.25586c4.5166 23.94286 21.5205 41.91673 43.4277 54.82813-8.7427 10.58729-15.0356 18.99292-23.1465 29.82031 20.8797 30.01104 45.4263 60.67955 66.3477 82.24219l26.9727-9.41992c18.1584 51.13409 62.0641 88.9599 113.498 108.22656 48.4877 18.16235 103.8968 20.02349 152.4668.38281l35.2285-14.24609-33.3379-18.23438c-55.4685-30.33823-96.8034-103.93485-116.1347-170.51172 34.835-49.98725 95.3412-94.45409 150.2231-117.83204-32.9838-66.507044-94.6399-116.210461-168.9853-132.9325789z" fill="#994100" transform="translate(-1000)"/><path d="m322.84375 10.814453c-12.99633 26.327006-27.59628 63.064247-44.00586 81.798828 5.58504 1.390029 11.2169 2.781103 16.74805 4.175781l12.71679 3.207032-7.92187 10.449216c-46.83452 61.75095-41.46331 131.9336-25.41797 198.42383l-16.87891 4.07031c-15.64216-64.82813-21.8579-137.60312 21.03125-202.36718-81.81527-20.332322-170.57882-40.32932-235.378902-82.992192-1.644294 4.540579-.938059 9.458314 2.101563 15.998047 2.254634 4.848855 6.052761 10.254557 11.277343 15.894531 49.386436 35.227085 121.193676 61.233844 176.300786 69.796874l-2.66602 17.14649c-57.45741-8.92888-129.72438-34.7251-182.113281-71.708989.566678 5.527615 2.424835 11.507399 5.933593 17.976563 6.426684 11.846356 17.905565 24.597226 33.164063 36.126956.780343.58962 1.576077 1.17469 2.375 1.75781 39.532745 21.05659 87.042035 36.13458 130.742185 39.15234l-1.19531 17.31055c-56.80434-3.92031-117.35953-26.20342-163.197266-56.4043.956849 4.5703 3.022429 9.65547 6.396485 15.21094 6.843796 11.27252 18.653317 23.66254 33.658203 34.98242 36.475478 16.56337 75.807448 30.58478 119.484378 33.86719l-1.30078 17.30273c-52.11857-3.91659-97.66642-22.04386-138.513676-41.51171 3.437226 18.22081 16.058051 31.9404 36.162106 43.45898 24.91339 14.27451 60.62535 23.60772 98.30664 29.08984l6.92774 1.00782.48242 6.98046c.99772 14.40172 4.24424 21.19989 9.05078 29.40821l-14.98437 8.76367c-4.57988-7.82391-8.6267-17.13057-10.49024-30.11719-30.00977-4.72349-58.90042-11.71464-83.01953-22.53125-5.98263 7.19622-11.87557 14.616-17.64453 22.31641 15.3421 22.06034 28.42647 39.95932 49.03125 61.07812l25.17187-8.78906 8.67969-3.01758 2.52344 8.84766c13.99602 49.26109 55.33362 86.87956 105.52734 105.68164 44.5957 16.7045 95.68845 18.22932 139.40625.55078-63.79584-34.89281-106.47681-114.86936-126.13867-185.59375l-1.04492-3.85742 2.20703-3.31055c36.82601-55.05478 99.98625-101.91956 159.09766-127.24609-31.47396-53.358155-82.1667-94.004909-142.5918-112.384767z" fill="#ffa348"/></g></svg>