<svg height="500" viewBox="0 0 132.29167 132.29167" width="500" xmlns="http://www.w3.org/2000/svg" xmlns:xlink="http://www.w3.org/1999/xlink"><radialGradient id="a" cx="66.145836" cy="66.145836" gradientTransform="matrix(.00000431 1 -1 .00000431 132.291387 -.000285)" gradientUnits="userSpaceOnUse" r="66.145836"><stop offset="0" stop-color="#c87137"/><stop offset="1" stop-color="#fc0"/></radialGradient><radialGradient id="b" cx="66.14584" cy="66.145835" gradientUnits="userSpaceOnUse" r="66.14584"><stop offset="0" stop-color="#800000"/><stop offset="1" stop-color="#f00"/></radialGradient><circle cx="66.145836" cy="66.145836" fill="url(#a)" r="66.145836"/><path d="m63.786215 71.713105c-4.5282 8.113786-11.70143 14.154753-20.19112 17.740413-12.458905 5.09374-26.803135 4.90509-39.251035-.18996-.94817-2.07592-1.51048-4.15205-2.08383-6.22708 11.70915 6.03974 25.29268 7.92524 38.313865 4.3397 5.46869-1.50831 10.38609-4.15227 14.90877-7.737814 3.01991-2.452105 5.66274-5.093856 7.73776-8.303427-.18846 0-.37708-.188524-.37708-.188524-5.66164 6.604375-12.64413 11.134815-20.94636 13.398385-12.458905 3.20957-25.105225 1.69906-36.428495-4.339698-.37488-.188524-.74974-.188524-1.12463-.378181-1.13563-.754156-2.08383-1.319773-3.20843-1.887593-.37485-2.262466-.57331-4.340803-.9482-6.604373.76078.37818 1.32309.943797 2.0728 1.510517.76078.377078 1.32309.753053 2.08383 1.319772 14.33327 9.248326 31.885975 11.702646 47.178445 4.341904.56228-.378177 1.13563-.756358 1.69791-.944897.18752-.188524.56231-.375974.74974-.564513.38589-.190743.57335-.190743.94711-.378181 2.83026-1.887596 5.09602-3.397007 7.36066-5.850219 0 0-.18971-.379284-.37708-.379284-.56781.188523-.94489.944901-1.32196 1.323081-10.19204 7.925247-22.65091 10.002485-35.098805 7.35963-2.64612-.565617-4.90638-1.133437-7.36506-2.075027-4.3441-1.887596-8.30227-3.586649-12.26044-6.419146-1.32306-1.13013-2.64615-1.885388-3.9692-2.828082-.56232-.56782-1.1246-1.132333-1.88538-1.700156.18752-2.26467.18752-4.338599.37486-6.604375.57335.565617 1.13566 1.320876 1.69794 1.886492 1.32309 1.13344 2.45872 2.077234 3.59435 3.208468 1.49949 1.320875 3.1974 2.264673 4.70792 3.585548 1.32305.943795 2.64614 1.510515 3.9692 2.263567 14.71912 8.87125 32.646715 9.815048 47.177315-.375975 0 0-.18846-.189648-.18846-.377077-20.38405 11.890078-46.801335 2.453212-60.197395-15.475624.56231-2.076131 1.12459-4.341907 1.51051-6.415836 7.54149 11.888976 19.05219 21.1362 33.583885 24.155029 8.50069 1.510518 16.99038.944901 24.72593-2.830289 0-.188555-.18846-.377078-.18846-.377078-8.10931 2.831393-16.61003 3.019931-24.91229.755258-4.718955-1.321975-8.864555-3.398108-13.208615-6.038757-2.27129-1.509411-3.9692-3.019928-6.04204-4.717881-3.20843-3.018826-5.84354-5.851319-8.48969-9.625406-1.32305-2.076131-2.64611-3.963726-3.77074-6.2295.9372-2.073927 1.51052-4.150061 2.63511-6.036553 1.13563 3.017725 2.64615 5.849115 4.34409 8.680508 1.88538 3.019928 3.77075 5.661679 6.22944 8.302327 3.77074 3.964826 7.73995 7.360732 12.64632 10.002484 9.426865 5.096058 20.187815 6.983654 30.379855 4.340803 0-.187429-.18971-.565616-.18971-.565616-8.86673 1.69795-17.55488 0-25.47126-3.963727-8.114805-4.151165-14.542725-10.37956-19.438075-18.30481-2.64614-4.340804-4.53151-8.491969-6.042-13.022416 1.32306-1.887591 2.26023-3.77298 3.77074-5.472037.94821 4.717883 2.45869 9.057586 4.71895 13.397287.18752.380384.18752.756362.37486 1.13344 4.15663 7.73781 9.43789 13.964003 16.990415 19.061169 1.69791 1.132337 3.58329 1.886492 5.28123 3.019928 1.69795.942695 3.58332 1.321979 5.46869 1.886493 4.53152 1.509414 9.25265 2.454312 14.15903 1.697953v-.375974c-6.04423-.188524-12.0752-1.697953-17.55492-4.341908-.56228-.375975-1.1246-.564514-1.69791-.943798-3.95821-2.264673-7.16664-4.905317-10.375075-8.114887-.9482-1.132337-1.88537-2.075032-2.83357-3.208472-.37489-.565617-.74974-1.132336-1.32306-1.697953-5.46869-8.115991-8.86458-16.417215-10.00021-25.664439 1.51052-1.700157 3.02101-3.39811 4.71895-4.717882.18752 11.132613 3.39589 21.513277 10.18764 30.947938 7.177635 9.624305 17.365275 15.854908 28.878155 17.173578 0-.188524 0-.565617 0-.565617-6.41908-1.320876-12.0752-3.772982-17.18003-7.92525-5.28126-4.341903-9.23944-9.248328-12.260445-15.097443-4.34406-8.870147-6.22943-18.496656-5.66715-28.120958 1.70898-1.321979 3.40692-2.640648 5.2923-3.772984-.57335 4.717885-.76078 9.435766-.37489 14.343291.37489 2.640644.74974 5.094959 1.31206 7.735604.94821 3.963728 2.271265 7.548171 4.156635 11.137026 5.28123 9.999177 14.15684 18.116271 24.90894 21.136201 0-.188524 0-.379285 0-.379285-8.11702-3.397007-14.72131-8.867941-19.62771-16.606858-.74971-1.131233-1.32306-2.453208-1.88537-3.585544-2.0728-3.585546-3.20843-7.169992-3.95818-11.13482 0-.375975-.38588-.56672-.38588-.943799-1.51052-8.30453-1.51052-16.418314.57331-24.344667 1.88537-1.132337 3.77075-2.076131 5.84358-2.830287-3.20846 9.05979-3.95821 18.682989-2.26026 28.496933.93717 4.152265 2.0728 8.114888 3.95817 11.888976 1.13566 2.076131 2.27129 3.962622 3.59435 6.038757 3.95817 5.472037 8.67602 9.435764 14.33764 12.454592.18846 0 .37708-.564517.37708-.564517-3.39586-1.887591-6.22503-4.341907-8.87118-7.17109-4.33302-4.718985-7.1666-10.380664-9.063-16.420525-3.58332-12.266053-2.0728-25.098823 2.83357-36.61072 2.08383-.565617 4.15663-1.320876 6.41686-1.697953-3.77074 7.172196-6.60429 15.097442-7.1666 23.401976-.56231 8.302324.74974 16.605754 4.53152 24.155025.37485.56672.74971 1.132337.93717 1.699056.18752.189649.38589.565617.57331.754156.18753.378181.18753.565617.37489.943798 2.83354 3.963726 5.47088 7.736707 9.6231 10.378457 0 0 .18752-.187428.37598-.375974-3.39698-2.454315-5.66052-5.852424-7.73885-9.436867-9.62532-16.04014-7.16663-34.913874 2.26685-50.387291.5645-.755259.9438-1.321979 1.32087-2.077235 2.26464-.188522 4.34075-.375977 6.60541-.564516-1.69794 2.263569-3.20843 4.528243-4.90637 6.981452-1.69904 2.831393-2.83136 5.47314-4.15223 8.304533-1.32196 3.207364-2.0717 6.227293-2.83248 9.625406-2.44765 13.398386.57335 27.362392 9.81607 37.176337 0-.187429.18752-.375975.18752-.375975-5.0949-6.795118-7.73223-14.154751-8.30555-22.26964-.93717-14.530722 5.47529-28.874013 15.47768-39.253574 2.26467 0 4.33969.18743 6.60432.564516-7.92516 6.795117-13.96388 15.285982-17.17231 25.289568-.18971.755256-.18971 1.320873-.56782 2.075029-.18845.379284-.18845.755258-.18845 1.13344-.18846.377077-.37595.56672-.37595.943797-2.26467 10.945177-1.32197 21.513278 5.09489 31.13758 0 0 .18846-.188555.37708-.188555-2.07612-3.962622-3.39699-8.114887-4.15223-12.64313-.5656-3.96483-.5656-7.92525 0-11.890076 2.07611-14.341084 10.75764-26.797879 22.26946-34.912771 2.07611.565617 4.15222 1.132337 6.22724 1.886493-13.77645 7.73671-24.34447 21.326945-26.42059 37.367083-.75415 6.794012-.18846 13.589131 2.64174 19.815324.18846 0 .37817-.188524.37817-.188524 0-.566719-.37817-1.132336-.56672-1.699056-1.88756-7.359629-1.69794-14.907801.56672-22.078894 1.69685-5.09496 3.77515-9.626506 6.98358-13.96621.56563-.564513.94161-1.132337 1.31978-1.697953 5.66162-6.795116 12.26593-11.888972 20.0037-15.66306 2.07611.754156 3.96367 1.697953 5.84904 2.829186-1.88537.75526-3.77293 1.320876-5.47088 2.453213-.37816.189648-.75524.189648-1.13231.377077-7.92519 3.963727-14.34318 9.247226-19.62772 16.607957-6.98139 9.813946-9.81278 20.948766-7.35956 32.649202h.5656c-.75306-3.586649-.37599-6.982555 0-10.570306.56562-4.716779 2.0772-8.867941 4.34187-13.019106 2.45209-4.906421 5.84907-9.248328 10.00239-13.212054 3.39586-3.017726 6.9814-5.473141 10.94397-7.736707.3793-.188524.75525-.188524 1.13345-.378182 3.5866-1.885388 7.35956-3.206264 11.134715-4.528242 1.88647 1.321978 3.5855 2.453211 5.28345 3.961522-7.36066 1.323079-14.153535 3.96483-20.757855 7.740018-.37926.187429-.37926.565617-.75633.753052-12.83266 7.927452-21.51309 21.892562-20.76004 36.800363h.37926c.56563-11.323359 6.22725-21.513278 14.71803-29.063653.56673-.375974 1.13345-.754155 1.69795-1.318668.18971-.189649.56891-.379285.94598-.56672.18971-.189649.37708-.565617.75306-.754156 8.49409-6.03986 17.740125-9.248328 27.744745-10.003587 1.88537 1.320876 3.20733 3.208467 4.71672 4.718986-11.88886-.188524-23.213225 2.830288-33.214525 10.191021-9.0586 6.604374-15.09841 16.040137-16.79633 26.796777h.56669c3.01882-12.83167 12.07742-22.268537 23.40068-27.930217 1.32087-.564513 2.64171-1.133436 3.96149-1.50941 8.117025-3.208471 16.798555-4.151166 25.290465-3.39701 1.13231 1.887596 2.6417 3.584446 3.5855 5.66168-7.36066-1.697954-14.72025-1.509414-22.26833-.18743-.3793 0-.56782.375975-.94602.375975-9.812755 2.076134-18.304625 6.604374-24.721515 14.154748-.18846.188524-.5656.377078-.75415.565617-3.01991 3.963729-5.66162 7.738916-6.9814 12.455695 0 0 .18846.188523.37708.188523 5.85017-13.39949 18.87138-22.268537 33.401955-24.53431 3.77518-.565615 7.54921-.754155 11.32326-.565615 4.34188.188522 8.68153.943797 13.02341 2.07613.75195 2.075031 1.88427 3.962627 2.45098 6.039861-14.34204-5.473141-30.947665-5.850219-44.724115 2.263569-6.41799 3.775188-11.32436 8.682711-14.90987 14.908904.18846 0 .56669.188524.56669.188524 6.22616-9.247225 14.90659-14.530723 25.4757-16.983936 12.267035-2.64285 24.535195-.56672 35.289535 4.717883.37818 2.076133 1.32307 4.151164 1.32307 6.415834-3.20844-2.26467-6.98358-3.774084-10.75764-5.285704-4.34077-1.69685-8.67933-2.451006-13.20973-3.016623-14.154655-1.510514-28.685225 3.584446-37.743855 14.529623.18846 0 .37707.189649.37707.189649 8.68156-8.493069 20.57042-12.645338 32.458195-12.078618 10.75986.565616 20.94968 4.717882 29.629 10.946281.18965 2.264674.18965 4.341908.18965 6.604374-2.64283-2.453212-5.47309-4.52824-8.68154-6.415835-.37595-.188523-.5656-.56672-.94267-.755258-14.34318-8.303427-32.082215-10.379562-46.802465-1.697954-1.13231.754155-2.07611 1.509414-3.20843 2.075031-.75524.378181-1.31977 1.132337-2.07611 1.70016 0 0 .18971.187429.18971.375974 2.07499-1.509414 4.34075-2.453211 6.60541-3.775187 1.5083-.564517 3.01879-1.131234 4.52821-1.697954 8.49188-2.64175 17.36305-2.262466 26.043485.188555 6.98361 2.076131 13.0223 5.662783 18.87137 10.191023.37708.188554.37708.756358.75636.943797 1.69794 1.321975 3.01879 2.642851 4.52709 4.152265 0 1.319772-.18743 2.642852-.56451 3.962623v.944902c-.18855.564513-.18855.942694-.37707 1.510514-2.07611-3.019929-4.71894-5.285703-7.36067-7.927453-1.51052-1.320876-3.02101-2.26357-4.52821-3.586648-7.54921-5.470935-15.66623-8.681609-24.724835-9.434664-8.11371-.566716-16.41707.943798-23.39956 5.093859.18971.189649.37817.379282.37817.379282 2.83026-1.509412 5.66053-2.265773 8.86896-2.83139 3.96148-.943798 7.73776-.943798 11.70034-.755259 15.852565 1.320876 29.440465 11.511897 37.931275 24.344675-.75304 2.07723-1.31976 4.15116-2.07501 6.22718-5.66165-10.757631-14.5306-19.816319-25.66644-24.910175-3.395865-1.510515-6.791755-2.454313-10.566905-3.208468-.37707 0-.75524 0-1.13232 0-6.41798-1.320875-12.83375-.375975-18.87247 1.697953 0 .188523.18846.378178.18846.378178 10.94616-2.641747 21.70492-.942694 31.328065 4.529343 6.79284 3.962626 12.0785 9.057586 16.79633 15.663059.37707.75526.75305 1.32197 1.32087 2.07613 1.69794 2.83118 3.20733 5.66301 4.5304 8.49308-.5667.94357-.94599 2.07502-1.51159 3.0186-.75527.75548-1.13122 1.88991-1.69794 2.830512-1.13235-3.962742-2.83027-7.548282-4.71895-11.132392-.9427-1.69928-1.88647-3.2098-3.01769-4.90774-5.09602-6.983663-10.75876-12.455701-18.306885-16.041249-3.96258-1.887592-7.92628-3.397006-12.26815-3.96152-4.15001-.567823-8.11259-.567823-12.26484 0v.564514c10.75654-.943798 21.5153 2.830289 30.006095 10.00138 9.24824 7.738915 14.90877 18.306895 17.5516 29.818807-1.32196 1.69784-2.45319 3.58466-4.15332 5.09507-2.07502-22.268542-20.002605-43.781818-43.215825-44.349641v.567823c14.15352 1.509411 26.23203 10.5681 33.026005 23.023906.18846.37465.18846.75283.37817 1.1309 4.15113 7.35963 5.66161 15.286092 6.22834 23.401202-1.70014 1.32088-3.02101 3.20814-5.09821 4.34092.56781-5.28504-.18753-10.19147-1.13013-15.47474-1.51161-7.737812-4.5293-14.343292-9.250475-20.570592-6.22612-7.926349-14.1524-13.399491-24.1537-15.287082 0 0-.18846.188523-.18846.377077 2.64174.755259 5.28457 1.887593 7.92741 3.207364.5645.379285 1.13122.567823 1.69903.946005 4.33966 2.640647 7.73555 5.849115 10.94398 9.811746 4.5293 5.85132 7.359565 11.88996 9.058605 19.062262.5645 3.02005 1.13231 6.03876 1.32087 9.05869.18846 3.96241 0 8.11378-.37708 12.07663-.94379.37807-1.88868 1.13311-2.831355 1.69905-.9438.56629-2.07612.94358-3.01882 1.50821 3.01882-11.69966 2.26354-24.34258-2.83135-35.477612-4.34078-9.625191-12.26485-17.363002-22.08091-21.324525v.56672c21.13711 10.378458 27.74252 37.553417 20.19332 58.502187-1.88756.9428-3.96258 1.50698-6.0376 2.26368 3.96148-9.24734 5.84907-19.06018 4.5282-29.25121-1.69903-12.644232-8.30445-24.343563-19.0599-30.950144 0 .188524-.18846.378181-.18846.378181 6.9814 5.283499 11.70034 12.267161 14.15466 20.193731 4.52708 13.776462 2.26244 28.495722-4.53152 40.951302-2.26354.56539-4.34078.9427-6.60432 1.32087 12.83375-18.11616 14.72134-46.046472-3.39589-61.900286 0 0-.18971.189649-.37926.189649 5.47309 6.037653 9.0586 13.209845 10.37947 21.512175.75746 5.2846.56781 10.379672-.18971 15.665052 0 .37729-.37598.56594-.37598.9428-.94267 6.22741-3.39586 11.51189-6.41577 16.98382-.18971.37951-.56559.56805-.75524.94622-1.13235 2.26115-2.64284 4.15106-4.15223 6.03788-2.26576 0-4.33968 0-6.60432 0 6.22725-6.41605 11.13362-13.96511 13.77646-22.64572.18752-.75416.18752-1.3222.56669-2.07724.18846-.37598.18846-.75448.18846-1.13134.18752-.37819.37707-.56683.37707-.94501 2.64283-12.454702.75415-24.91018-7.17213-34.723021 0 0-.18846.188524-.37708.188524 5.472 7.926348 7.17214 17.739305 6.03869 27.177045-1.69791 13.208862-8.68043 25.098062-18.68282 33.589922-2.07612-.3773-4.33634-.75328-6.42018-1.13135 3.20843-2.45321 6.23165-4.90642 9.06082-7.92646 1.88866-2.07591 3.39808-3.96362 5.09712-6.22741 2.45097-3.3981 3.96258-6.79367 5.66052-10.56909.56672-1.32087.75634-2.64186 1.32087-3.96229 3.01991-10.192342 2.45428-21.137526-2.45209-30.57329 0 0-.37817.189649-.56672.189649 5.09602 11.699329 3.5855 25.099929-2.4521 36.422291-4.90856 9.05869-12.27256 16.04234-20.76222 21.1361-2.07283-.75416-4.14563-1.50953-6.04203-2.45444 3.78177-1.5083 6.80278-3.58422 10.19866-6.03743 4.71895-3.58554 8.67822-7.17142 11.69703-12.07872 3.58551-4.15094 5.4731-9.435552 7.17213-14.719262 1.13232-4.52956 1.5094-9.05869 1.32084-13.588035-.18846-2.64285-.75415-4.907523-1.32084-7.549271-.18845-.377078.18846-.755259-.75414-.755259 2.64061 12.078615-.56894 24.534425-8.30449 34.536797-.56559.5655-.94267 1.13134-1.32084 1.69773-6.41689 7.54828-14.34426 12.83409-23.39627 16.23099-.9482-.56683-2.08383-.94368-3.020995-1.50908-.57332-.56683-1.32306-.94501-2.08383-1.32308-.18752-.18787-.37486-.37608-.56232-.56474 9.625315-2.45442 18.302465-7.35962 25.666435-14.53182.9438-1.13234 1.88647-2.07591 2.83026-3.20869 7.35957-8.870042 10.94619-20.004752 9.62311-31.138464-.18628 0-.5656.188553-.5656.188553.37926 8.491967-2.07393 16.418429-6.98249 23.778949-1.31977 2.07722-2.64064 3.77629-4.33968 5.661902-1.51271 1.50908-3.02319 2.83006-4.52268 4.33958-4.15663 3.39811-8.50072 6.03998-13.40709 8.11589-4.1456 1.69784-8.302265 2.8305-12.646325 3.77419-1.69794-1.50964-3.39589-3.01872-4.90637-4.52956 6.41689-.37818 12.458885-1.88859 18.313465-4.3418.74974-.37685 1.31203-.5655 2.0728-.94281 6.22943-3.01871 11.51069-6.7928 16.03999-12.077392.9438-1.32177 2.07612-2.45322 3.01991-3.9623.75524-1.13366 1.32087-2.26721 2.07502-3.39822.56669-1.13245 1.13341-2.45332 1.69904-3.58566 1.69904-4.15116 2.83135-8.304529 3.01991-12.832769-.18846 0-.3782 0-.3782 0-1.88647 11.323359-7.92628 20.758899-17.36087 27.555239-9.81274 6.980232-20.761115 9.811962-32.084385 9.811962-1.51048-1.69906-2.83357-3.39723-4.1456-5.2845 4.33303.75493 8.86455.37807 13.20861 0 4.14563-.37862 8.114825-1.50963 12.073005-2.83183 1.32305-.5655 2.64614-1.13102 3.9692-1.695632 11.51069-5.2867 20.56598-15.47773 23.77444-27.743777-.18971 0-.56563 0-.56563 0-3.0199 9.057577-9.0586 16.418317-17.36527 21.514267-1.32305.75416-2.44765 1.32099-3.58328 2.07635-10.76098 5.283292-22.833955 6.604272-34.344645 4.339602-1.32309-1.885512-2.27126-3.962732-3.20846-5.850442 17.74015 5.09639 39.063595 2.265 51.706605-12.83365.18845-.18856.56672-.37598.75636-.565622 2.26354-2.83139 4.15113-5.660577 5.472-8.870147 0 0-.18845-.18743-.37819-.18743" fill="url(#b)" fill-rule="evenodd"/><path d="m118.20517 132.29167-11.039-7.16382 10.22653-10.22651c-5.03137-6.92056-10.3984-13.14823-15.13717-17.846608-.30412-7.642969-1.6011-15.264333-3.734874-22.401944 9.771264-1.500361 17.227194-4.119047 22.427694-7.985378 6.22825-4.6304 9.10488-11.702148 7.6758-18.281802-1.42908-6.57965-6.22921-12.295414-13.04318-17.044546-10.23105-6.018106-18.810143-9.197818-28.732753-11.287171-3.699752 2.670188-7.039182 6.900918-7.449797 10.820442-.107664 1.255211.0637 2.459113.347944 3.623458-2.914132-4.9274-7.836424-8.807618-13.597688-8.263944l-4.842841.457006c-3.640876 1.735743-6.705485 4.336136-8.758528 7.804835.283761-1.164349.453378-2.368447.345315-3.623457-1.275869-5.492412-3.548818-7.872052-7.449269-10.81834-10.061916 2.356638-21.088903 6.064407-28.732747 11.287171-6.8137417 4.749066-11.6143316 10.46494-13.0431864 17.044546-1.4288559 6.579609 1.4478123 13.649214 7.6758004 18.279699 5.199066 3.865485 12.65206 6.486711 22.419291 7.987481-2.047973 6.861641-3.312092 14.172396-3.678645 21.515789-6.026756 5.653273-11.262375 12.036923-16.064838 18.734863l10.285911 10.28591-10.801437 7.10232m43.120823 0c-3.514812-3.78476-8.563018-8.02286-10.151855-12.87861-.615694-1.99942-.393981-2.36166.391042-3.26606 1.570047-1.80881 8.900591-4.3204 18.846292-4.3204 10.010117 0 16.854799 2.67464 18.38324 4.59633.764218.96084.993263 1.52034.393144 3.49838-2.721789 5.66747-5.405989 8.0035-9.621805 12.37036m7.88366-92.265663c3.333254 3.422296 8.885713 4.646236 14.004503 2.761481 1.736928 4.48025.965414 7.022221-3.472091 7.17123-4.389713-.599874-8.014719-.709913-10.764725-3.736461.230989-2.604291-.290079-5.545449-1.001261-7.751489.38057.546343.774618 1.084023 1.233574 1.555239zm-31.973046-1.547339c-.856324 2.861923-1.154385 5.317318-.981286 7.938074-2.156688 2.40634-7.786035 3.573203-10.780497 3.539887-3.327505-.08814-4.563956-1.595758-4.29517-4.18164.09437-.830106.372328-1.85569.824659-2.987486 6.130119 1.21077 12.048233.247071 15.232294-4.308835z" fill="#800000"/><path d="m44.283513 25.249178c-40.8049406 8.619704-53.5104672 40.681422-4.117308 45.404216-3.184132 8.480201-5.127743 18.151998-5.381563 27.662976-8.644893 7.99485-14.4331 16.06792-14.4331 16.06792l11.557524 11.55752-9.529146 6.34986h27.435801c-17.769331-17.77296-5.153416-25.30934 15.894261-25.30934 21.336372 0 32.496454 8.696 15.88651 25.30934h27.731288l-9.824147-6.35034 11.557527-11.55704s-5.38883-7.51458-13.525119-15.22048c-.157425-9.782237-2.133-19.778333-5.41159-28.510659 49.396319-4.721825 36.688119-36.784027-4.117311-45.404214-9.884687 7.474849 1.586374 19.315016 10.588028 10.808175 8.938922 13.09013 2.119682 24.181916-17.422758 15.886509-.0049-.0053-.01017-.0097-.01526-.01526-2.3396 6.794526-8.073072 11.73917-15.008314 11.73917-6.935726 0-12.674526-4.944644-15.016063-11.73917l-.0155.0155c-19.537348 8.290566-26.352703-2.798071-17.414754-15.886749 9.001887 8.507084 20.46544-3.333325 10.580996-10.807933zm21.865325 5.827927c-6.233119 0-11.625338 6.076177-11.625338 14.032027 0 7.956091 5.392219 14.03227 11.625338 14.03227 6.233604 0 11.618074-6.075694 11.618074-14.03227s-5.38447-14.032269-11.618074-14.032269z" fill="#fc0"/></svg>