<svg height="500" viewBox="0 0 132.29167 132.29167" width="500" xmlns="http://www.w3.org/2000/svg" xmlns:xlink="http://www.w3.org/1999/xlink"><radialGradient id="a" cx="66.145805" cy="66.145836" gradientTransform="matrix(0 1.0000236 -1 -.00000011 132.29167 -.001526)" gradientUnits="userSpaceOnUse" r="66.145836"><stop offset="0" stop-color="#ffd42a"/><stop offset="1" stop-color="#fea"/></radialGradient><g><circle cx="66.145836" cy="66.145836" fill="url(#a)" r="66.145836"/><path d="m87.316892 96.838911c-.60721-.40587-1.2166-.60841-1.82271-1.01165-10.53621-6.68714-18.0331-17.22213-19.24751-29.57886.40444.60612.40444 1.21441.6083 1.82162 3.44375 7.90133 9.11574 14.38439 16.81431 18.84197 8.103 4.65914 17.017068 6.68594 26.134998 6.28007 6.28029-.20254 12.55948-1.62093 18.43534-3.84895 2.43101-5.87487 3.84928-12.35793 4.05205-18.84099-3.44375 3.03822-7.69857 5.26646-11.95338 7.09136-2.63268 1.21551-5.26646 2.22934-8.1041 2.83436-2.63158.81106-5.26646 1.21769-7.90023 1.62213-2.22825.20276-4.660348.40444-6.888598.20276-12.15505-.60721-23.90675-6.28139-31.19869-16.00434 1.62104 1.21441 3.03931 2.42992 4.86312 3.44265.6072.20276 1.21441.6083 1.82271 1.01384 8.103 4.25372 17.22093 5.47032 26.33667 4.05095 10.129568-1.61994 18.639198-6.27919 26.136098-12.96612.6061-.6061 1.01164-1.2155 1.82161-1.8238.40553-.20167.6072-.60501.80997-1.01274.40553-.20167.6094-.40553 1.01493-.80888.80888-1.01383 1.61885-2.22824 2.63158-3.0393-.6072-2.22825-1.01273-4.45759-1.61994-6.8886-1.01164-4.05095-2.83654-7.4947-4.25481-11.34507-5.26756 12.56058-14.78883 23.29955-27.350509 28.97154-10.332339 4.45648-21.879089 4.45648-32.21143.40553 8.509631 1.41718 17.21984 0 24.9184-3.85038.60721-.40553 1.2166-.6083 1.82271-1.01273 13.777179-7.90133 21.881279-22.28572 24.515059-37.478986-1.82381-2.229339-3.84928-4.053144-5.67199-6.078619-2.63378-2.633777-5.67309-4.659255-8.7124-6.887498.60721 3.850377.60721 7.697466.40554 11.54675-.60831 8.306864-2.63488 16.208193-7.091369 23.501223-6.68582 10.94064-17.62536 18.84197-30.18595 20.05638 4.86312-1.41718 8.91407-4.45649 12.96502-7.69856 5.672-5.26756 9.52237-11.54675 11.75171-18.84197 3.64652-11.74952 2.83654-24.310102-1.62213-35.4524145-2.42992-1.012739-4.65926-1.62104-7.29194-2.229339-.20275 0-.60939-.404437-.81216-.404437-3.64432-.607205-6.8864-1.216603-10.53401-1.419371 1.41718 1.622138 2.22934 3.444846 3.64761 5.26865 2.22824 3.240982 3.24208 6.6847315 4.86092 10.1284795.6094 1.622135.81107 3.040405 1.41827 4.660349 3.24208 11.751707 2.22934 24.109523-4.25371 34.845203-.81107 1.2166-1.41828 2.22934-2.22825 3.44485-2.43101 3.03931-4.86202 5.67308-7.90133 7.69856 5.47032-6.48306 8.50963-14.78883 9.11684-23.29846.81107-16.207096-7.4958-32.009757-20.26024-41.9354655-6.2792 1.011642-12.560589 3.038214-18.233674 5.873661 16.816494 6.6869215 30.794254 22.0818565 32.212524 40.5193945.6083 6.48305-.20275 12.96721-2.83545 18.84087.80997-4.05205.80997-8.103.20276-12.15615-.6083-4.45648-2.02658-8.7102-4.05205-12.76225-.40663-.6083-.6083-1.21551-1.01274-1.8238-4.659249-8.104101-11.345078-13.97886-19.449172-18.436441-.406631-.202755-.811069-.202755-1.215506-.404438-1.418271-1.012739-2.837641-1.62104-4.456488-2.025478-.406628-.202755-.609395-.405531-1.013833-.608298-3.646516-1.21441-7.294125-2.432107-11.142312-2.836544-5.064786 4.052047-9.318506 8.915163-12.966116 14.182716 5.875855-.609395 11.547846-.609395 17.625368.404438 1.621041.405534 3.038215.607204 4.659255 1.013836 7.496893 2.024378 13.979949 5.265359 19.650845 10.534009 2.63487 2.43101 4.86312 4.86202 6.88969 7.90133 1.82271 3.03822 3.24207 5.87366 4.45648 9.11683.80998 2.63269 1.41828 5.26646 1.82381 7.90024-2.43101-6.28029-6.28029-11.95228-11.54675-16.40877-2.02767-1.62214-3.850377-2.83654-6.079716-4.25482-3.84928-2.4321-7.697466-3.84927-12.153954-4.86311-11.144502-2.63487-22.08295-1.41827-32.4163865 2.43101-2.227149 6.07862-3.646516 12.35782-4.049857 18.6392 4.253718-2.83654 8.304671-5.67199 13.1666905-7.49579 5.673088-2.22934 11.345079-3.64652 17.220934-4.05205 13.573321-.81217 27.552179 4.86092 35.656279 16.00433-.81107-1.01274-2.02658-1.62104-3.03932-2.42992-.40443-.20387-.6072-.20387-1.01383-.40662-6.2792-4.25482-13.166692-5.67199-20.25805-6.2792-3.646516-.20275-7.293032.20167-10.940641 1.01274-12.153954 2.83545-22.4873915 9.72404-29.9831875 19.24531.809972 6.28139 3.038215 12.56036 5.874759 18.23367.811065-2.43101 2.229339-4.65947 3.4448425-7.09136.809972-1.41717 1.619944-2.83545 2.632683-4.25481 1.622134-2.02438 3.040405-3.84819 4.659252-5.6709 1.622134-1.8238 3.242078-3.23988 5.065883-4.86311 1.621037-1.21551 3.038214-2.22825 4.659252-3.44485 1.419366-.80887 2.633776-1.41717 3.849283-2.22824 4.862019-2.42991 9.725134-4.04986 15.195455-4.65925 6.886399-.80998 13.573319.20275 19.853619 2.83654-3.24099-.40444-6.68474-.6072-9.92681-.40444-3.04041.20276-6.077529 1.01165-9.117934 1.82271-11.547846 3.64652-20.459722 12.36001-26.133907 22.89281-.403341.81008-.607201 1.41839-1.012736 2.22847-.202755.40542-.202755.81085-.404437 1.2155-.203874.4063-.405535.60841-.608302 1.01384-1.621038 4.45648-3.242078 8.912979-3.850377 13.574099 4.053144 5.06412 8.915163 9.31849 14.385484 12.96413-1.011643-5.4691-.608302-10.93854 0-16.61141.202755-1.62136.809972-3.03933 1.012739-4.66069 2.835447-12.153739 9.724038-22.284409 20.461912-28.767469.608302-.20275 1.216604-.6072 1.822707-1.01274 4.25482-2.22933 8.7124-3.6476 13.371661-4.05095-2.42992.80997-4.659261 2.025479-6.888601 3.442649-.404439.202761-.6072.202761-1.012739.40444-2.02547 1.41827-3.646511 2.83764-5.47032 4.25482-.404433.40553-.809968 1.01493-1.417172 1.41827-4.66035 5.06588-7.902428 10.73787-9.927904 17.220931-3.645419 11.750739-2.835447 24.108549 1.823805 35.250869.201668.40542 1.012739.40542 1.619944.60929.202755 0 .608299.20288.812162.40333.403341 0 .607205.20381 1.011643.20381.202755.20288.608301.40542.811065.40542 1.214411.40467 2.431014.60621 3.849285.81009.202754 0 .607204.40454.811068.40454 3.240974.40542 6.481964 1.21638 9.722944 1.21638-8.50854-10.94152-13.168886-25.12192-11.141217-39.10112 0-.40542 0-.80964 0-1.21638 1.822707-10.33015 7.088067-19.65085 15.396037-25.72728-6.8886 8.30468-9.92681 19.04365-8.91407 29.78053 1.01273 10.53481 5.47032 20.25905 12.56058 28.36293 1.01274.81009 1.62104 1.82393 2.63377 2.83556.60831.60842 1.21441 1.2155 1.82381 1.82513 1.012739.80962 2.02657 1.61971 3.03821 2.42967 6.2803-.80996 12.560589-3.0393 18.23368-5.87485-8.508541-3.44485-15.802661-8.71097-21.881291-15.80353-.404429-.60712-.808869-1.21464-1.41827-1.82262-5.063689-6.68495-7.90023-13.77533-8.91188-21.8803-.811059-6.88749 0-13.77609 3.03822-19.85252-2.229339 10.93845.809971 22.08077 7.698571 31.19848.6072.60753 1.01273 1.2155 1.41827 1.82304 8.508529 10.13067 20.259139 16.2081 33.021398 18.03068 1.8238-1.62092 3.64761-3.24109 5.47141-4.86201 2.83545-2.83642 5.06369-6.07742 7.4947-9.3197-11.54675 1.21551-23.702888-.20163-34.034139-6.27998" fill="#fc0" fill-rule="evenodd"/></g><path d="m74.503994 132.29167c-.08535-3.28577-2.000286-4.58616-3.220703-5.4596-2.61803-1.81297-5.622133-2.84474-8.351562-3.86328 1.63455-9.88034 3.480868-21.40736 3.472657-28.810563 3.911004-1.811812 6.028023-5.145391 6.779704-8.789833s.185449-7.685493-1.691617-11.560259c-1.877065-3.874766-4.727623-6.802704-8.086126-8.481955-3.999067-2.023952-8.226434-1.489572-11.537352.09477-2.408845 1.16824-4.539874 4.518641-5.058871 7.094534s-.486044 4.238406-.331598 5.908432c-1.179163-.450337-2.504332-.847621-4.949436-2.205011-2.445104-1.357389-5.07401-4.488676-7.478339-9.304802 3.189603-1.444962 5.974922-2.990591 8.452189-5.860525 2.477268-2.869934 4.356919-7.210303 6.179676-13.658072l23.075709-10.656301c3.979363 5.913322 7.902601 11.72965 12.669407 19.174856-.755458 1.189426-1.518607 2.62947-1.867187 4.75-.312185 1.900684.551136 3.802303 2.1875 4.81836 6.728107 3.847782 14.512455 5.828567 21.874985 7.126947 4.1362.725192 7.11876-3.868249 4.77343-7.351563-.56569-.839414-1.44432-1.774151-2.20703-2.68164 4.36971 1.235506 8.4713 2.109785 12.78122 2.841844 3.73759.632007 6.67994-3.143208 5.1543-6.613282-3.84166-8.071567-11.69195-12.506977-18.26562-16.810547-9.080414-10.186497-17.192293-21.150425-27.179643-29.46293-1.172267-.975367-2.740693-1.330441-4.21875-.955078-1.721939.437542-11.402192 2.957831-23.394531 7.646484-13.120979 5.128615-27.702623 12.088497-34.625 21.988281-8.117951 11.5623-10.3089158 27.450879-7.034917 36.962384 3.944842 8.348318 6.931827 11.058784 10.370902 13.678235 7.948816 5.578045 14.831957 9.192144 24.144572 12.572314-.167673 9.45555-.471182 18.46035-.671875 27.8678z" fill="#665600"/><path d="m78.633613 16.1925c-1.613959.410104-11.112501 2.883958-22.833543 7.466542-12.752917 4.98475-26.934584 12.377209-32.46173 20.28825-7.059083 10.054167-9.548812 26.008543-4.41325 36.882918 2.217209 4.683125 9.993313 10.027709 17.269355 13.731875 7.3025 3.704167 13.917083 5.979585 13.917083 5.979585l1.640417.55562-.02646 1.74625c-.15875 10.16-.502708 19.52625-.714375 29.44813h18.7325c-.05292-2.03729-7.249583-4.47146-12.170833-6.29708l.370416-1.77271c1.772709-8.75771 2.619375-19.34104 3.280834-29.236461-1.666875-.15875-3.307292-.635-4.841875-1.402292-3.33375-1.640417-6.217709-4.60375-8.096251-8.466667-.15875-.343958-.3175-.714375-.47625-1.058333-2.672291-.767292-5.027083-1.693334-7.117291-2.8575-5.52979-3.069167-9.101665-7.778751-12.03854-14.446251l-.976313-2.248958 2.272771-.899583c4.153958-1.693334 6.641042-2.989792 8.678334-5.318126 2.010833-2.354791 3.730625-6.0325 5.635625-12.726458l.3175-1.031875 31.194375-14.922501 26.987498 19.023543c-.635 2.090208-1.42875 4.1275-.9525 6.138333 3.175 1.825625 9.47209 3.624792 14.84313 4.788958 2.35479.502709 4.39208.873125 6.11187 1.164167-1.16416-2.645833-2.8575-4.709583-5.05354-6.693958-3.09562-2.751667-7.19666-5.23875-11.77396-8.255001l-.23812-.15875-.21167-.238125c-9.33979-10.451041-17.436041-21.343938-26.855207-29.183542zm-1.402292 20.293542c4.471458 5.767917 9.313333 11.747501 12.117917 18.679584l.47625 1.164167c-1.031875 1.74625-2.248959 3.175-2.566459 5.106458 3.836459 2.38125 9.842501 4.259792 14.922501 5.423959 1.98438.449791 3.75708.79375 5.26521 1.058333-.82021-1.217083-1.87854-2.566458-3.20146-3.889375-2.72521-2.778125-6.270625-5.55625-9.551459-7.725834l-1.005416-.635-.07937-1.190625c-.211672-2.963333-1.164172-5.635625-2.487089-8.202083zm-19.685001 32.146876c-.926041 0-1.825625.211667-2.645833.608542-1.852083.899583-3.122083 2.725208-3.624792 5.212292-.502708 2.513541-.15875 5.609166 1.27 8.5725 1.455209 2.989791 3.677709 5.159375 5.979584 6.323542 2.275416 1.11125 4.471458 1.243541 6.35.343958 1.852083-.899583 3.122083-2.725209 3.65125-5.212292.502708-2.513542.132292-5.609167-1.296458-8.598958-1.455209-2.963334-3.677709-5.159376-5.953126-6.297084-1.27-.635-2.54-.9525-3.730625-.9525z" fill="#ffe57c"/></svg>