<svg height="500" viewBox="0 0 132.29167 132.29167" width="500" xmlns="http://www.w3.org/2000/svg" xmlns:xlink="http://www.w3.org/1999/xlink"><radialGradient id="a" cx="66.145805" cy="66.145836" gradientTransform="matrix(0 1.0000236 -1 -.00000011 132.29167 -.001526)" gradientUnits="userSpaceOnUse" r="66.145836"><stop offset="0" stop-color="#ffd42a"/><stop offset="1" stop-color="#fea"/></radialGradient><g><circle cx="66.145836" cy="66.145836" fill="url(#a)" r="66.145836"/><path d="m87.316892 96.838911c-.60721-.40587-1.2166-.60841-1.82271-1.01165-10.53621-6.68714-18.0331-17.22213-19.24751-29.57886.40444.60612.40444 1.21441.6083 1.82162 3.44375 7.90133 9.11574 14.38439 16.81431 18.84197 8.103 4.65914 17.017068 6.68594 26.134998 6.28007 6.28029-.20254 12.55948-1.62093 18.43534-3.84895 2.43101-5.87487 3.84928-12.35793 4.05205-18.84099-3.44375 3.03822-7.69857 5.26646-11.95338 7.09136-2.63268 1.21551-5.26646 2.22934-8.1041 2.83436-2.63158.81106-5.26646 1.21769-7.90023 1.62213-2.22825.20276-4.660348.40444-6.888598.20276-12.15505-.60721-23.90675-6.28139-31.19869-16.00434 1.62104 1.21441 3.03931 2.42992 4.86312 3.44265.6072.20276 1.21441.6083 1.82271 1.01384 8.103 4.25372 17.22093 5.47032 26.33667 4.05095 10.129568-1.61994 18.639198-6.27919 26.136098-12.96612.6061-.6061 1.01164-1.2155 1.82161-1.8238.40553-.20167.6072-.60501.80997-1.01274.40553-.20167.6094-.40553 1.01493-.80888.80888-1.01383 1.61885-2.22824 2.63158-3.0393-.6072-2.22825-1.01273-4.45759-1.61994-6.8886-1.01164-4.05095-2.83654-7.4947-4.25481-11.34507-5.26756 12.56058-14.78883 23.29955-27.350509 28.97154-10.332339 4.45648-21.879089 4.45648-32.21143.40553 8.509631 1.41718 17.21984 0 24.9184-3.85038.60721-.40553 1.2166-.6083 1.82271-1.01273 13.777179-7.90133 21.881279-22.28572 24.515059-37.478986-1.82381-2.229339-3.84928-4.053144-5.67199-6.078619-2.63378-2.633777-5.67309-4.659255-8.7124-6.887498.60721 3.850377.60721 7.697466.40554 11.54675-.60831 8.306864-2.63488 16.208193-7.091369 23.501223-6.68582 10.94064-17.62536 18.84197-30.18595 20.05638 4.86312-1.41718 8.91407-4.45649 12.96502-7.69856 5.672-5.26756 9.52237-11.54675 11.75171-18.84197 3.64652-11.74952 2.83654-24.310102-1.62213-35.4524145-2.42992-1.012739-4.65926-1.62104-7.29194-2.229339-.20275 0-.60939-.404437-.81216-.404437-3.64432-.607205-6.8864-1.216603-10.53401-1.419371 1.41718 1.622138 2.22934 3.444846 3.64761 5.26865 2.22824 3.240982 3.24208 6.6847315 4.86092 10.1284795.6094 1.622135.81107 3.040405 1.41827 4.660349 3.24208 11.751707 2.22934 24.109523-4.25371 34.845203-.81107 1.2166-1.41828 2.22934-2.22825 3.44485-2.43101 3.03931-4.86202 5.67308-7.90133 7.69856 5.47032-6.48306 8.50963-14.78883 9.11684-23.29846.81107-16.207096-7.4958-32.009757-20.26024-41.9354655-6.2792 1.011642-12.560589 3.038214-18.233674 5.873661 16.816494 6.6869215 30.794254 22.0818565 32.212524 40.5193945.6083 6.48305-.20275 12.96721-2.83545 18.84087.80997-4.05205.80997-8.103.20276-12.15615-.6083-4.45648-2.02658-8.7102-4.05205-12.76225-.40663-.6083-.6083-1.21551-1.01274-1.8238-4.659249-8.104101-11.345078-13.97886-19.449172-18.436441-.406631-.202755-.811069-.202755-1.215506-.404438-1.418271-1.012739-2.837641-1.62104-4.456488-2.025478-.406628-.202755-.609395-.405531-1.013833-.608298-3.646516-1.21441-7.294125-2.432107-11.142312-2.836544-5.064786 4.052047-9.318506 8.915163-12.966116 14.182716 5.875855-.609395 11.547846-.609395 17.625368.404438 1.621041.405534 3.038215.607204 4.659255 1.013836 7.496893 2.024378 13.979949 5.265359 19.650845 10.534009 2.63487 2.43101 4.86312 4.86202 6.88969 7.90133 1.82271 3.03822 3.24207 5.87366 4.45648 9.11683.80998 2.63269 1.41828 5.26646 1.82381 7.90024-2.43101-6.28029-6.28029-11.95228-11.54675-16.40877-2.02767-1.62214-3.850377-2.83654-6.079716-4.25482-3.84928-2.4321-7.697466-3.84927-12.153954-4.86311-11.144502-2.63487-22.08295-1.41827-32.4163865 2.43101-2.227149 6.07862-3.646516 12.35782-4.049857 18.6392 4.253718-2.83654 8.304671-5.67199 13.1666905-7.49579 5.673088-2.22934 11.345079-3.64652 17.220934-4.05205 13.573321-.81217 27.552179 4.86092 35.656279 16.00433-.81107-1.01274-2.02658-1.62104-3.03932-2.42992-.40443-.20387-.6072-.20387-1.01383-.40662-6.2792-4.25482-13.166692-5.67199-20.25805-6.2792-3.646516-.20275-7.293032.20167-10.940641 1.01274-12.153954 2.83545-22.4873915 9.72404-29.9831875 19.24531.809972 6.28139 3.038215 12.56036 5.874759 18.23367.811065-2.43101 2.229339-4.65947 3.4448425-7.09136.809972-1.41717 1.619944-2.83545 2.632683-4.25481 1.622134-2.02438 3.040405-3.84819 4.659252-5.6709 1.622134-1.8238 3.242078-3.23988 5.065883-4.86311 1.621037-1.21551 3.038214-2.22825 4.659252-3.44485 1.419366-.80887 2.633776-1.41717 3.849283-2.22824 4.862019-2.42991 9.725134-4.04986 15.195455-4.65925 6.886399-.80998 13.573319.20275 19.853619 2.83654-3.24099-.40444-6.68474-.6072-9.92681-.40444-3.04041.20276-6.077529 1.01165-9.117934 1.82271-11.547846 3.64652-20.459722 12.36001-26.133907 22.89281-.403341.81008-.607201 1.41839-1.012736 2.22847-.202755.40542-.202755.81085-.404437 1.2155-.203874.4063-.405535.60841-.608302 1.01384-1.621038 4.45648-3.242078 8.912979-3.850377 13.574099 4.053144 5.06412 8.915163 9.31849 14.385484 12.96413-1.011643-5.4691-.608302-10.93854 0-16.61141.202755-1.62136.809972-3.03933 1.012739-4.66069 2.835447-12.153739 9.724038-22.284409 20.461912-28.767469.608302-.20275 1.216604-.6072 1.822707-1.01274 4.25482-2.22933 8.7124-3.6476 13.371661-4.05095-2.42992.80997-4.659261 2.025479-6.888601 3.442649-.404439.202761-.6072.202761-1.012739.40444-2.02547 1.41827-3.646511 2.83764-5.47032 4.25482-.404433.40553-.809968 1.01493-1.417172 1.41827-4.66035 5.06588-7.902428 10.73787-9.927904 17.220931-3.645419 11.750739-2.835447 24.108549 1.823805 35.250869.201668.40542 1.012739.40542 1.619944.60929.202755 0 .608299.20288.812162.40333.403341 0 .607205.20381 1.011643.20381.202755.20288.608301.40542.811065.40542 1.214411.40467 2.431014.60621 3.849285.81009.202754 0 .607204.40454.811068.40454 3.240974.40542 6.481964 1.21638 9.722944 1.21638-8.50854-10.94152-13.168886-25.12192-11.141217-39.10112 0-.40542 0-.80964 0-1.21638 1.822707-10.33015 7.088067-19.65085 15.396037-25.72728-6.8886 8.30468-9.92681 19.04365-8.91407 29.78053 1.01273 10.53481 5.47032 20.25905 12.56058 28.36293 1.01274.81009 1.62104 1.82393 2.63377 2.83556.60831.60842 1.21441 1.2155 1.82381 1.82513 1.012739.80962 2.02657 1.61971 3.03821 2.42967 6.2803-.80996 12.560589-3.0393 18.23368-5.87485-8.508541-3.44485-15.802661-8.71097-21.881291-15.80353-.404429-.60712-.808869-1.21464-1.41827-1.82262-5.063689-6.68495-7.90023-13.77533-8.91188-21.8803-.811059-6.88749 0-13.77609 3.03822-19.85252-2.229339 10.93845.809971 22.08077 7.698571 31.19848.6072.60753 1.01273 1.2155 1.41827 1.82304 8.508529 10.13067 20.259139 16.2081 33.021398 18.03068 1.8238-1.62092 3.64761-3.24109 5.47141-4.86201 2.83545-2.83642 5.06369-6.07742 7.4947-9.3197-11.54675 1.21551-23.702888-.20163-34.034139-6.27998" fill="#fc0" fill-rule="evenodd"/></g><path d="m271.16602 17.996094c-28.62444.000756-51.63672 23.898558-51.63672 52.167968 0 28.27005 23.36923 51.599608 51.63672 51.599608 28.26748 0 51.63671-23.329558 51.63671-51.599608 0-28.269073-23.00988-52.168725-51.63671-52.167968zm-151.07813 60.671875c-28.643481.000767-51.634765 23.919881-51.634765 52.191411 0 28.26957 23.366784 51.60546 51.634765 51.60546 28.26749 0 51.63672-23.33543 51.63672-51.60546 0-28.26956-22.99019-52.192167-51.63672-52.191411zm282.26953 22.470701c-28.64324.00076-51.63672 23.92577-51.63672 52.19727 0 28.26956 23.36924 51.59961 51.63672 51.59961 28.26799 0 51.63672-23.33022 51.63672-51.59961 0-28.27004-22.99104-52.19803-51.63672-52.19727zm-43.64232 398.86133-14.83619-12.99411c-17.74598-17.00799-25.76162-32.35592-28.22266-46.86719-.83781-4.94007-.82089-9.94416-.41211-15l24.07227 31.64453 116.51333-55.22993c8.8942-5.07758 16.36132-25.74932 11.57651-41.29546l-2.9082-9.4414c5.76669-8.32192 9.19726-18.35399 9.19726-29.12891 0-28.26909-22.99104-52.19021-51.63672-52.18945-28.64371.00075-51.63476 23.91941-51.63476 52.18945 0 7.90694 1.98053 15.34029 5.23242 22.07227l-10.88672 4.70898-32.95703-50.98633c-5.42547-9.00828-13.37006-15.65231-22.59961-20.9043 6.3547-16.7449 7.35743-36.16799 2.14844-55.58593-9.51993-35.50106-46.74911-65.05726-77.28516-61.85352s-38.13352 19.69276-46.11914 37.31641-9.05741 38.28164-3.61719 58.5664c1.80353 6.72568 4.53537 12.87213 7.52344 18.78711-11.59326 5.5912-21.47305 13.07005-27.96094 23.65625l-33.15429 51.01954-35.833988-15.48633c-22.290475-11.5847-47.151076-2.81103-59.621093 13.41211-6.325337 8.22907-10.30169 19.05846-8.59961 30.71484 1.702081 11.65637 9.80676 22.63891 15.828185 26.07629l113.642516 53.58191 25.95508-34.14062c.47415 5.41606.43104 10.7803-.64258 16.16601-2.92269 14.66155-11.8786 30.79285-30.42187 48.12305l-13.98308 13.06833m-58.778641-281.21484c-28.625431-.002-51.636719 23.89024-51.636719 52.16015 0 28.2715 23.370971 51.60547 51.636719 51.60547 28.267321 0 51.634761-23.33492 51.634761-51.60547 0-28.2686-23.00957-52.15789-51.634761-52.16015z" fill="#665600" transform="scale(.26458334)"/><path d="m62.847255 18.563523c0 4.954492 3.940642 8.890895 8.899284 8.890895 4.958641 0 8.899283-3.936403 8.899283-8.890895 0-4.953967-3.940642-9.038661-8.899414-9.03853-4.958773.000131-8.899153 4.084039-8.899153 9.03853zm-39.973356 16.059778c0 4.954229 3.940648 8.890632 8.899555 8.890632 4.958642 0 8.899279-3.936403 8.899279-8.890894 0-4.95423-3.940637-9.047061-8.899411-9.04693-4.958775.000133-8.899423 4.091912-8.899423 9.047192zm74.683322 5.946335c0 4.95423 3.940639 8.890633 8.899279 8.890633 4.95891 0 8.89928-3.936403 8.89928-8.890895s-3.94064-9.04706-8.89928-9.046928c-4.95864.000131-8.899279 4.091911-8.899279 9.04719zm-22.337899 34.866223c3.042176-3.732732 4.183386-9.684842 2.561418-15.731176-2.074354-7.735537-7.986369-13.070074-15.224818-12.906038-8.01738 1.972398-11.554241 10.602144-9.183286 19.442646.920015 3.430901 2.596358 6.38176 4.695938 8.612422-5.050597 1.189478-8.968121 3.534575-10.693084 6.417982l-10.980478 16.900185-13.316218-5.75789c-7.717354-4.230885-16.1763393 6.29908-8.045215 10.94152l24.817647 11.56459 9.990837-13.13964c5.646414 10.16648 4.137146 20.33661-6.60031 30.51121h44.447814c-10.461092-10.02605-11.148865-20.05839-6.115876-30.0847l9.670336 12.71313 24.818163-11.56485c3.05663-1.74538 3.76568-4.32276 3.054-6.63505-2.15002 1.38055-4.70644 2.18972-7.44624 2.18972-3.73678 0-7.12415-1.50128-9.61307-3.92065l-7.355858 3.18234-10.931039-16.912249c-1.443581-2.471602-4.529366-4.534815-8.550661-5.823502zm-63.403646-3.748485c0 4.955279 3.940636 8.891157 8.899025 8.891157 4.958895 0 8.899543-3.93614 8.899543-8.890895 0-4.953704-3.940648-9.038136-8.899416-9.038529-4.958769-.000394-8.899152 4.083512-8.899152 9.038267zm90.954754 13.426235c0 4.954755 3.94064 8.890896 8.89928 8.890896 4.9589 0 8.89955-3.936141 8.89955-8.890896 0-4.953966-3.94065-9.046534-8.89929-9.046403-4.9589.000131-8.89954 4.091911-8.89954 9.046403z" fill="#ffe57c"/></svg>