<svg height="500" viewBox="0 0 132.29167 132.29167" width="500" xmlns="http://www.w3.org/2000/svg" xmlns:xlink="http://www.w3.org/1999/xlink"><radialGradient id="a" cx="66.421852" cy="66.422104" gradientTransform="matrix(0 .9652088 -1 .00000664 132.84419 2.310697)" gradientUnits="userSpaceOnUse" r="66.145836"><stop offset="0" stop-color="#8a0"/><stop offset="1" stop-color="#dde9af"/></radialGradient><radialGradient id="b" cx="67.809837" cy="64.481827" gradientTransform="matrix(0 1.0251567 -1 -.00000016 132.29167 -5.03387)" gradientUnits="userSpaceOnUse" r="66.145835"><stop offset="0" stop-color="#dde9af"/><stop offset="1" stop-color="#bcd35f"/></radialGradient><circle cx="66.145836" cy="66.145836" fill="url(#a)" r="66.145836"/><path d="m66.159567 0-.01603 65.815118-4.212132-65.6801423a66.145615 66.195221 0 0 0 -8.381374 1.0767074l11.91758 61.1638679c-.027.0096-.06001.01448-.10025.01448l.628898 3.425086-.06615-.141184-.141594-.355281-.888314-2.808126c-.048.01848-.09145.03309-.135392.03309l-.032039.020682-22.01202-58.2740328a66.145615 66.195221 0 0 0 -3.900009 1.6228171l25.638144 56.7810207-.05788.03051.609781 1.174449.620115 1.380274.01447.01292.110069.198067.197405.335115v.0083l-.197405-.34338-.124539-.210997-1.462437-2.436812c-.0487.03215-.100753.06285-.149862.104982l-32.651629-53.0585855a66.145615 66.195221 0 0 0 -9.04283 6.7224355l43.536734 49.318544-.105421-.153595.220142.271504v.01345l-.0863-.08585-.02479-.03414-.0011-.0016-.00053-.000531-46.61453-46.425072a66.145615 66.195221 0 0 0 -5.563466 6.363534l49.352897 37.94796-.03772.04913 2.769848 2.186511-.554486-.28495-2.489247-1.498183c-.0369.04804-.06013.0882-.08113.125152l-55.032615-29.03793a66.145615 66.195221 0 0 0 -1.8520773 3.811914l56.7601713 25.49085c-.0196.04694-.04381.100304-.06821.157213l3.221499 1.253055-.0098-.0067.139008.06258-.128674-.05585.09457.0481.05633.02121-.05633-.01345v-.0078l-3.388412-1.079811c-.01479.03954-.03321.08864-.04651.134461l-59.5222895-18.079568a66.145615 66.195221 0 0 0 -2.31922923 11.03288l65.13017673 8.143048h-.327111l-65.18391895-3.921551a66.145615 66.195221 0 0 0 -.11162205 3.839322 66.145615 66.195221 0 0 0 .16174719 4.622807l62.04303681-4.283037h-.0072l.08113-.0062-.07338.0062 3.431304-.194449-2.029327.490776-.0801.01345-1.267104.248232.0186.06309-60.3780271 14.79308a66.145615 66.195221 0 0 0 1.1342941 4.067384l59.31244-18.59206c.02471.09608.0492.184078.0739.253922l3.165686-1.181689-1.780246.933457-57.7358222 26.467743a66.145615 66.195221 0 0 0 5.5603672 9.787586l53.976889-36.964861-.778244.631959-50.693896 39.741952a66.145615 66.195221 0 0 0 5.630127 6.29734l43.58066-44.301151c.0739.06984.149905.133839.221173.212547l2.018992-2.2827v-.0083l.200505-.229096.04909-.06258.205154-.223925.0052-.01708.01498-.0072-.0062.04189-.02739.03051.01344-.0481-.0181.0481-.34933.459745.162262-.276675-.04909.05534-.200505.23737-.687812.973276-1.131193 1.475431.07596.0481-35.433379 51.044788a66.145615 66.195221 0 0 0 3.53928 2.29668l32.110595-53.180626c.0295.01848.06779.04342.106971.06155l1.827788-3.11376-.0739.190312-26.497521 59.932004a66.145615 66.195221 0 0 0 10.618954 3.65057l15.793815-62.648602-.416511 2.440949.06253.01498-11.315547 61.089913a66.145615 66.195221 0 0 0 8.371039.99551l3.421486-62.045086c.0639.0063.120384.0062.174663.0062h.0083v-3.270974l.01447-.230651.100769.886913.16743 2.608505c.0513 0 .08957-.0062.133843-.0062l7.209356 61.709453a66.145615 66.195221 0 0 0 4.175957-.62058l-11.151779-61.123009c.0672-.0074.125399-.02423.18707-.03051l-.546219-2.835016-.01447-.03672-.08475-.474225.0047.0078.09457.503189 19.682972 61.960271a66.145615 66.195221 0 0 0 10.372976-4.28614l-29.408494-57.084113 1.095536 1.777445.07131-.04913 31.927669 53.299048a66.145615 66.195221 0 0 0 6.93495-4.79037l-38.498278-48.76932c.0672-.04952.111222-.103262.173632-.1598l-2.237582-2.527829.890897.802101 1.546154 1.544726.07597-.08119 46.255947 41.494062a66.145615 66.195221 0 0 0 2.71766-3.2234l-48.809799-38.459423c.0343-.04176.08071-.08805.108004-.12722l-2.477359-1.9088 55.981924 33.545463a66.145615 66.195221 0 0 0 4.9542-10.105115l-60.76301-23.591874 2.917643.890532.0031-.04913 59.247867 18.762207a66.145615 66.195221 0 0 0 2.03294-8.199932l-61.168673-11.060808c0-.04286.0098-.07977.0098-.118944l-1.949227-.239957-1.20406-.211513 3.183259.187208c.008-.08722.0078-.166267.0078-.254955l62.179461.472158a66.145615 66.195221 0 0 0 .003-.581796 66.145615 66.195221 0 0 0 -.10077-3.654699l-62.089546 3.537825v-.08791l-3.115562.214616-.583941.03724.572572-.03724h.01138l64.199097-12.066152a66.145615 66.195221 0 0 0 -2.98378-10.860672l-61.119584 22.662557-.06873.01811 2.780182-1.267536c-.0454-.09497-.104507-.213984-.174667-.318564l55.077019-28.975934a66.145615 66.195221 0 0 0 -2.08411-3.679007l-53.110794 32.448069-.05581-.08687-1.487242 1.032748-1.245397.758143 2.558491-2.010164-.03824-.05482 48.522462-39.013808a66.145615 66.195221 0 0 0 -7.76953-8.164252l-42.664438 48.409904-.613398.627303 40.028946-51.73415a66.145615 66.195221 0 0 0 -6.989211-4.752094l-31.551458 53.696738-.02479-.01758-1.86913 3.092559 1.465539-3.294764c-.0727-.04065-.149616-.0656-.230478-.09515l22.067313-58.2564578a66.145615 66.195221 0 0 0 -4.000776-1.3740679l-18.330616 59.5519077c-.0288-.01001-.05899-.01721-.100768-.03051l-.497644 1.994648-.298689.978447.55707-3.033602c-.0532-.0052-.107984-.01485-.162263-.01965l10.616888-61.40692615a66.145615 66.195221 0 0 0 -11.2277-.96345085zm-.514698 62.352279.267684 2.320453v.01139l.230477 1.179104v.122048l.0078-.04447.0062.166004v.02741l-.01498-.02741v-.116358l-.01757.08119-.06305-.130838-.148827-1.256677zm-2.477875 1.32442 1.874815 1.68643-.0067-.0052zm6.817649 1.592825-3.128997.767451h-.01498zm-3.21478.03051-.430465.736421-.0925.106016.02946-.118943-.02429.05482-.0052.0481-.01344.02792v-.0067l.01344-.02121v-.04292l.0052-.0052v-.02793l.0031-.0062.02169-.03206v-.0062l.0088-.0072.01603-.03982v.0052l-.01603.03465-.0088.01345zm-1.727538.0631.87953.673846.09612.149972-.118855-.04447.05323.03672h-.0057l-.05788-.03672h.0098zm1.331696.06516-.07855.420443.07855-.222374-.08836.364074-.02687.03982.03669-.18152.06925-.414755zm-.153994.101877-.02273.454575-.01498.0512-.031-.1236zm.831987.197036-.602028.420444h-.0062l-.109034.07344-.07596.03103.05633-.07291.01963-.0057.234609-.188759zm-1.069699.153076.03566.03724v.01242l-.02222-.0331zm1.022159.08378h.0078l-.04599.02121zm-.932757.0481.04857.09464v.01036l-.04857-.0936zm.110069.02481.0052.06981v.01036l.01035.02534.01241.03103-.01241.0057-.01035-.03154.01035-.0052-.01035-.01602v-.0093l-.01498-.0693zm.587559.01705-.0186.0072-.268715.08119.04134-.01602zm-1.491894.01758.626833.107567.09147.05688.0078.01604-.08268.01705zm.572573.08274h.01394l.02479.0083zm.192237.05068h.0052v.0052zm-.04341.01604h.0052l.01963.02121zm.05685.0481h.0062l-.0062.0083zm-.08888.04447h.01498l.06511.0093-.214973.08688zm-.102835.0093h.05736l-.246495.126699.06976-.01395-.0067.0072-.06305.0067h-.000529l-.535883.103948v.0062l-1.386991.247197 1.386991-.253403zm.470252.0062.134361.01139.198953.05895-.22376-.02224zm-.05788.04344.0093.0047.02946.05844.08682.04395.380856.371316-.357083-.266852-.06201-.07861-.04909-.06981-.0047-.0088-.02429-.04965h-.0093zm-.28112.02121-.06615.0724h-.0078l-.735871.334595.608228-.3739zm.415477.02637.03928.0067.0083.0083zm.0584.0067.512112.159801-.504362-.151007zm-.312125.04551.0083.0331.0057-.02587-.0057.03464.000529.0016.02016.06103.03307.501635-.0615-.357867.0083-.204791-.02326.134458v-.02431l-.0083-.04913.0083.03776v-.06981zm.191202.02431.01601.01758.02326.03879-.0098-.0083zm-.30179.0481-.0646.139114-1.044894 3.40026 1.037661-3.40026h.0072l.02223-.07602.0016-.0031zm-.02326.02792-.01707.03.01085-.02587zm.387571.02121.0088.0062.03049.05017-.02429-.02431zm-.115755.05637.0062.0078.0078.05998zm-.457849.07033v.0078l.01344-.0078zm.606677.357867 1.291909 2.854669-1.291909-2.840188z" fill="url(#b)"/><path d="m33.794922 192.76367c-6.336573 1.8784-11.134316 7.07802-12.498047 13.54492-4.660902 22.18935-3.858081 43.81714 1.232924 63.66592 8.693848 25.59193 18.918749 45.61121 35.786607 62.31455-3.457901 4.49483-4.595601 10.3563-3.070312 15.81836 8.798018 31.48337 30.948489 52.92529 57.394526 62.18555 18.00877 6.30588 37.70527 7.4781 57.80079 5.46289-4.0778 9.88278-7.64905 19.42905-9.52344 27.91016-3.06733 13.87649 4.51334 30.45701 18.41015 34.70312 13.89682 4.24611 28.95214-4.60167 35.26368-17.45898 15.95752-32.50137 38.49366-61.51689 66.89453-86.78125 14.99369-18.04899 61.28412-43.14209 62.83398-67.95703 9.31937.41419 19.73446 3.86776 27.43164-1.00391 8.2361 6.97521 19.3333 11.40467 32.97168 12.44531 32.6694.31246 58.60399-18.85819 69.9541-44.89648 10.6197-24.36385 9.71967-55.21877-5.78749-86.03825-7.04626-14.004-17.10844-28.00069-30.47618-41.37777-4.85236-4.77678-9.96753-6.63166-15.1582-6.21875-2.88771-7.16804-7.90409-14.02136-15.71971-20.56933-26.61967-20.086142-54.5175-34.325542-82.79201-43.711919-5.57724-1.848853-11.7058-.859506-16.41797 2.650391-5.69691-4.764597-12.66766-8.874014-22.61035-12.406251-18.02832-3.279325-34.39331-4.627639-57.57812-4.314454-12.75273 1.267713-17.9741 3.698939-22.42674 6.753905-3.93181-3.017008-8.93351-4.279618-13.82619-3.490231-41.36202 6.688546-79.04543 22.494292-109.739262 46.475579-5.979867 6.32745-8.979792 12.41457-11.049805 18.64747-5.756747-.42586-11.368542 1.93478-15.089844 6.34765-4.85916 5.76561-9.294667 11.82135-14.375 20.99121-6.158161 15.19963-8.344974 26.35846-7.835937 36.30762z" fill="#536020" transform="scale(.26458334)"/><path d="m62.244362 20.761355c-.55007.0019-1.09776.0076-1.64473.02238-.42982.01191-.85963.02524-1.2873.04477-2.09884.373141-3.06801 1.292066-3.59426 2.343864-.57984 1.159669-.55722 2.720102.0893 4.107656.64699 1.388269 1.83357 2.523173 3.4902 2.947036 1.65688.423862 3.93764.204787 6.935393-1.711405l2.396252 3.750469c-3.766661 2.407444-7.411405 3.042523-10.432975 2.269331-3.02133-.773192-5.26327-2.886789-6.42175-5.372814-1.09157-2.342198-1.29207-5.09016-.24527-7.530466-10.21961 1.652588-19.47315 5.571649-26.58094 11.087577-2.33601 2.54508-2.56461 5.503069-1.54067 7.523322 1.15014 2.268379 3.86001 3.9243 9.27973 2.2098l1.34684 4.241721c-6.80562 2.15265-12.41513-.140018-14.59231-4.435079-.53101-1.047035-.85534-2.180272-.98274-3.348752-1.14633 1.36017-2.18122 2.776062-3.09562 4.249103l.03.01429c-2.05121 4.671061-2.09788 7.906465-1.28016 10.00887.8182 2.102644 2.53246 3.438526 5.17208 4.174808 5.27875 1.471613 13.82673-.304086 19.84605-4.799648 2.57651-1.924049 5.01896-6.590585 5.23161-10.209609.10596-1.80975-.27742-3.239453-1.03466-4.152424-.75723-.912971-1.96977-1.596152-4.47984-1.570196l-.0445-4.449604c3.44971-.03572 6.25078 1.132046 7.94742 3.17754 1.6964 2.045494 2.20504 4.679633 2.05383 7.255193-.30242 5.151358-2.99919 10.518457-7.00993 13.513594-7.11422 5.313521-16.51063 7.526179-23.70058 5.521642-3.33089-.928687-6.27935-2.949416-7.79859-6.079331-2.2731401 10.821829 1.02941 20.874039 7.31472 27.830623.82153.909637 1.69593 1.769269 2.61223 2.566987-.65579-1.878092-.95631-3.833812-.88582-5.737145.1262-3.411141 1.44827-6.749892 4.10051-9.055895 2.17503-1.892141 5.1797-2.983706 8.77324-2.976563.23955 0 .48435.0043.72914.01429.55959.02381 1.13419.07239 1.71926.149067l-.58102 4.412933c-3.7119-.48768-6.12101.362426-7.72383 1.756172-1.60258 1.393984-2.48674 3.479959-2.57484 5.863829-.17621 4.768215 2.87417 10.336049 9.45118 11.951019l-.008.0448c6.4751 1.23587 13.70076.0886 20.955-4.338639.004-.0029.0102-.004.0148-.0071 1.50972-1.059658 2.32291-2.097405 2.72368-2.991566.47268-1.05537.46268-1.974532.1262-2.961799-.67246-1.974056-3.08133-4.003357-5.29066-4.568903-3.57235-.9144-5.84168.341947-6.90562 1.838325-1.06394 1.495425-1.12871 2.964656.5134 4.241005l-2.7313 3.512344c-3.37828-2.627233-3.59378-7.259716-1.40613-10.335815 1.64116-2.306955 4.52081-3.887629 7.99243-3.988594.14454-.0043.29242-.0086.4391-.0071 1.02537.0071 2.09312.148114 3.19969.431006 3.69213.945357 7.10565 3.637835 8.40105 7.441406.33718.98941.49768 2.069307.44672 3.170398 3.979071-2.033112 8.17531-3.838576 12.449654-5.194459 7.180898-3.281365 10.294144-9.03399 10.172701-13.877929-.122635-4.879896-3.140155-8.986838-10.090786-9.674067l.439103-4.427695c8.731091.86344 13.921264 7.107554 14.094143 13.989843.100489 4.010025-1.370172 8.182691-4.331018 11.734802 3.827145-.428625 7.630478-.355997 11.318082.387429-.75057-1.541145-1.114425-3.209449-1.063705-4.866799.161211-5.247323 4.624388-10.142459 11.638364-10.216992.46744-.0052.9463.01262 1.43589.05191l-.35719 4.435078c-5.93574-.475774-8.167685 2.639854-8.267222 5.87121-.09811 3.195638 2.034782 6.772752 8.148642 7.247573 6.73893.05953 11.57001-3.595211 13.93745-9.026366 3.16945-7.271386 1.66616-18.172987-8.29723-28.143519-.18859-.188833-.37576-.379333-.56554-.565547-.10573.90297-.33909 1.772364-.67675 2.582228-1.72641 4.140993-5.77049 6.936105-9.97149 7.716917-5.79477 1.076771-10.546554-1.273285-12.739686-4.859209-2.193131-3.585449-1.617345-8.655844 2.328863-11.325226l2.493169 3.690938c-2.122408 1.435418-2.2098 3.378994-1.027033 5.312569 1.182766 1.934051 3.850481 3.609023 8.133397 2.813209 2.69224-.500539 5.69024-2.697957 6.67464-5.060157.49292-1.1811.58817-2.348389.0972-3.683794-.39886-1.084659-1.23515-2.325052-2.79082-3.631406l-.0445-.03691c-6.504624-4.902279-13.415488-8.427958-20.419221-10.75301.0043.0076.01072.01429.015.02215 1.591628 2.909888 1.709738 6.210777.729377 9.130666-1.960483 5.840015-8.112919 10.441305-15.723871 10.186988-1.654492-.05477-3.228975.74295-4.568666 2.299573-1.339927 1.556623-2.318147 3.836908-2.545087 6.265783-.45362 4.85775 1.64854 10.212229 9.845047 12.858751l-1.370647 4.234339c-9.78259-3.158586-13.53235-10.845738-12.91084-17.502284.31123-3.327797 1.59687-6.420326 3.60926-8.758238 2.01263-2.337911 4.87561-3.953589 8.089107-3.847147 5.724525.190976 10.078165-3.353753 11.355467-7.158752.638652-1.902143.556022-3.794999-.416718-5.573316-.94488-1.726883-2.817019-3.434477-6.168867-4.680585-4.075271-.706517-8.13435-1.039892-12.114609-1.027272zm24.102298 59.992739c-9.981009.812006-20.804029 5.572125-29.832298 11.087576-13.33024 8.1434-27.35819 6.3658-37.31133-1.01917 3.91572 14.01225 17.79079 16.85642 32.26593 13.31239 1.44852-.54411 2.87179-1.55687 4.08552-2.86465 1.68044-1.81143 2.89798-4.16005 3.28136-6.10196l4.36816.8632c-.58221 2.9487-2.1617 5.8736-4.38293 8.26772-2.13121 2.29673-4.90775 4.13148-8.11863 4.61344-1.61115 3.58855-2.93703 7.06755-3.4752 9.50262-.84534 3.82429 3.38281 5.29233 5.2759 1.43589 4.52962-9.22567 10.9228-17.43791 18.908556-24.51904 6.20649-4.08456 11.526679-9.120905 14.935201-14.578016z" fill="#d7e698"/></svg>