<svg height="500" viewBox="0 0 132.29167 132.29167" width="500" xmlns="http://www.w3.org/2000/svg" xmlns:xlink="http://www.w3.org/1999/xlink"><radialGradient id="a" cx="66.145859" cy="66.145882" gradientTransform="matrix(-.00004147 1 -1 -.00004147 132.294459 .002719)" gradientUnits="userSpaceOnUse" r="66.14584"><stop offset="0" stop-color="#fa0"/><stop offset="1" stop-color="#ff8000"/></radialGradient><radialGradient id="b" cx="66.145828" cy="66.145836" gradientTransform="matrix(0 1.0000017 -1 .00000032 132.29167 -.000124)" gradientUnits="userSpaceOnUse" r="66.145836"><stop offset="0" stop-color="#d45500"/><stop offset="1" stop-color="#a40"/></radialGradient><circle cx="66.145836" cy="66.145836" fill="url(#b)" r="66.145836"/><path d="m80.94711 66.831282 51.34457-.683777-51.34457-.688083 51.06027-5.413135-51.18627 4.050967 50.34637-10.104804-50.59511 8.759867 49.19203-14.706028-49.56891 13.392317 47.62848-19.184491-48.12275 17.908467 45.65685-23.500353-46.26632 22.274941 43.29324-27.609469-44.0147 26.443283 40.56136-31.487072-41.38297 30.397338 37.47952-35.098701-38.40341 34.084343 34.08432-38.40236-35.09869 37.47953 30.39735-41.386203-31.48601 40.563519 26.44436-44.010396-27.60839 43.287855 22.2717-46.259858-23.49927 45.653612 17.90633-48.125974-19.17912 47.630643 13.39233-49.572134-14.70928 49.197402 8.75771-50.597258-10.10695 50.344207 4.06067-51.185196-5.42283 51.059209-.68593-51.34349-.67946 51.34349-5.42176-51.059209 4.05527 51.185196-10.10716-50.344207 8.76222 50.597258-14.70915-49.197402 13.3922 49.572134-19.18501-47.630643 17.91223 48.125974-23.49949-45.653612 22.27191 46.259858-27.61269-43.287855 26.45007 44.010396-31.48705-40.563519 30.39259 41.386203-35.09439-37.47953 34.08356 38.40236-38.40426-34.084343 37.48437 35.098701-41.38782-30.397338 40.56007 31.487072-44.01137-26.443283 43.29333 27.609469-46.26632-22.274941 45.65298 23.500353-48.1208-17.908467 47.62665 19.184491-49.57126-13.392317 49.19685 14.706028-50.59337-8.759867 50.34518 10.104804-51.19145-4.050967 51.06102 5.413135-51.34078.688083 51.34078.683777-51.06102 5.415287 51.19145-4.052042-50.34518 10.108037 50.59337-8.764177-49.19685 14.70818 49.57126-13.390162-47.62665 19.184487 48.1208-17.908464-45.65298 23.498204 46.26632-22.271714-43.29333 27.606232 44.01137-26.447582-40.56007 31.488142 41.38782-30.395178-37.48437 35.099768 38.40426-34.086488-34.08356 38.401278 35.09439-37.481681-30.39259 41.386201 31.48705-40.555977-26.45007 44.006087 27.61269-43.284624-22.27191 46.262004 23.49949-45.655758-17.91223 48.127048 19.18501-47.631714-13.3922 49.569974 14.70915-49.196319-8.76222 50.591869 10.10716-50.339895-4.05527 51.190575 5.42176-51.063511.67946 51.342411.68593-51.342411 5.42283 51.063511-4.06067-51.190575 10.10695 50.339895-8.75771-50.591869 14.70928 49.196319-13.39233-49.569974 19.17912 47.631714-17.90633-48.127048 23.49927 45.655758-22.2717-46.262004 27.60839 43.284624-26.44436-44.006087 31.48601 40.555977-30.39735-41.386201 35.09869 37.481681-34.08432-38.401278 38.40341 34.086488-37.47952-35.099768 41.38297 30.395178-40.56136-31.488142 44.0147 26.447582-43.29324-27.606232 46.26632 22.271714-45.65685-23.498204 48.12275 17.908464-47.62848-19.184487 49.56891 13.390162-49.19203-14.70818 50.59511 8.764177-50.34637-10.108037 51.18627 4.052042z" fill="url(#a)" fill-rule="evenodd"/><g stroke-width="1.05263" transform="matrix(.95000431 0 0 .95000431 3.30733 6.614583)"><path d="m66.193359 0c-4.605486 0-8.787625 2.5100725-11.617187 6.2070312-2.461079 3.2142774-4.029198 7.3381498-4.441406 11.9199218l-.285157 3.162109-.01367.0078.0078.05273-.404297 4.492188 1.138672-.503906c.360101 1.854734.893094 3.608227 1.625 5.232421-2.029812.946912-3.759349 2.22922-5.28125 3.712891l-.630859-.160156-10.359375 16.029297-9.447266-4.095703.378906.185547c-5.784654-3.173032-12.302219-.907351-15.546875 3.316406-1.6223275 2.111878-2.6385802 4.886733-2.2031248 7.871094.4354555 2.98436 2.5072248 5.796847 5.4335938 7.46875l.164063.09375 27.746093 12.9375 6.79298-8.939437c.478819 3.804231-.636778 7.554688-3.623047 11.701172-1.279643-.05772-2.589334-.152914-3.814453-.144531-5.540351.03819-10.407084.697709-14.462891 2.230469-4.055806 1.532759-7.724092 4.238178-8.873047 8.537109v.002c-1.027135 3.847528.368311 7.664657 2.601563 10.748047s5.412819 5.82241 9.332031 8.41407l.191406.125.201172.10742c1.080902.56861 2.04307.92475 3.089844 1.43945l-.21289.51563-8.003907 19.38086 35.695313-11.1211c3.603749.52426 7.379901.89717 11.474609 1.15625l32.738277 10.20899-8.019527-19.40625.470703.15625 1.794922-1.07422c4.613312-2.76021 8.368412-5.71164 11.021482-9.01563s4.4024-7.418089 3.27149-11.638673c-1.38088-5.152895-6.15213-7.922573-11.39063-9.339844-4.50531-1.218954-10.004507-1.484689-16.005858-1.203172-2.652039-3.888848-3.603313-7.480193-3.193359-11.134765l6.300781 8.294922 27.746096-12.9375.16406-.09375c2.92642-1.671836 4.99818-4.484355 5.43359-7.46875.43541-2.984396-.58073-5.759238-2.20312-7.871094-3.24478-4.223712-9.76213-6.489577-15.54688-3.316406l.38086-.185547-9.457028 4.095703-9.919921-15.365235h-.529297c-1.598456-1.708684-3.464906-3.159762-5.701172-4.205078.67951-1.511797 1.170134-3.146222 1.529297-4.857422l1.144531.535157-.347656-4.5625.0039-.02344-.0059-.0039-.244094-3.201176c-.359389-4.715068-1.937983-8.9650145-4.460938-12.2617188h-.002c-2.832981-3.7002785-7.018964-6.2070312-11.624953-6.2070312zm0 9.1269531c1.433742 0 2.859429.6442838 4.378907 2.6289059.05902.07717.09624.209932.154296.291016-.731624-.11547-1.450349-.327432-2.1875-.390625l-.621093-.05273v-.400391l-2.195313.210937-2.136718-.183593v.388672l-.667969.06445c-.39135.03761-.777259.158327-1.167969.210937.02806-.03782.04595-.101748.07422-.138672v-.002c1.521914-1.9884538 2.935925-2.6269529 4.36914-2.6269529zm-.355468 16.1093749 1.810547.199219c1.431992.157901 2.899383.577986 4.390624 1.144531-.421077.999726-.926997 1.87616-1.46875 2.583984-1.518272 1.982171-2.944647 2.625-4.376953 2.625-1.432956 0-2.847047-.638445-4.36914-2.626953-.579512-.757137-1.104729-1.713669-1.542969-2.796875 1.240621-.431462 2.455274-.739615 3.642578-.888672zm-12.373047 15.267578c3.410114 3.120588 7.796832 5.207032 12.728515 5.207032 4.93123 0 9.318553-2.085137 12.728516-5.205079.478096.421905.885879.837235 1.0625 1.140625l1.320313 2.267578h.154296l11.421875 17.689454 16.750001-7.25586.18555-.101562c1.75234-.961233 3.13483-.148898 3.91992.873047.39254.510972.42354.900452.41015.992187-.0128.08784.0161.288814-.89062.826172l-20.607422 9.609375-11.638672-15.324219-3.283204 6.544922c-4.747379 9.458468-4.714112 20.42617 2.660157 30.015625l-14.730469 4.886719-13.986328-4.642578c7.838981-9.677504 8.578901-21.026262 3.128906-30.845703l-3.394531-6.113282-11.761719 15.478516-20.603516-9.607422c-.913636-.540409-.881675-.740017-.894531-.828125-.01339-.0918.01765-.481237.410157-.992187.785015-1.021901 2.167743-1.836115 3.919921-.875l.185547.103515 16.740235 7.257813 11-17.025391.269531.06641 1.724609-2.990234c.175904-.304921.584863-.724755 1.070313-1.152344zm-11.589844 49.169922c.341473-.0023.742844.03711 1.09375.04102l-3.011719 9.085937 48.578125 16.128905 1.177735 2.85156-10.767579-3.35937.113282-1.11915-4.548828-.25781-.269532-.0762h-.855468c-15.314292-.97083-24.433241-3.06902-38.103516-10.22849-3.201749-2.14097-5.56972-4.31342-6.8125-6.029292-1.267233-1.749636-1.282047-2.635641-1.173828-3.041016.121679-.453448.762551-1.403609 3.28125-2.355469 2.520292-.952462 6.496208-1.607518 11.298828-1.640625zm51.650391.105469c2.662278.157526 4.978297.504494 6.824219 1.003906 3.69184.998824 4.8113 2.346822 4.95703 2.890625.11911.444502.0524 1.539246-1.57226 3.5625-1.36879 1.704613-3.877322 3.745402-6.958989 5.769532l-9.03711-3.00195 3.626953-1.203129-2.966796-8.943359c1.739455-.04296 3.594394-.168806 5.126953-.07813zm-20.589844 32.310543.09375.004.02539.002h-.0918z" fill="#592d0d"/><path d="m66.193582 4.5642345c-3.019351 0-5.818049 1.5740947-7.993787 4.4168011-1.864517 2.4351414-3.180736 5.7813424-3.520182 9.5543474 2.858224-1.263483 5.765965-2.028856 8.675503-2.308433v4.720745c-2.813324.35319-5.646658 1.284514-8.507191 2.829112.504936 3.202822 1.719809 6.028088 3.351613 8.160054 2.175739 2.842449 4.97418 4.416801 7.993531 4.416801 3.019352 0 5.826003-1.574352 8.001999-4.416801 1.582286-2.06733 2.766626-4.787947 3.295167-7.871243-3.096836-1.752357-6.207527-2.820649-9.340797-3.166144v-4.696891c3.252319.278807 6.470771 1.158321 9.581462 2.613146-.296342-3.887914-1.625647-7.339277-3.535575-9.8349493-2.176253-2.8424505-4.982648-4.4168011-8.002513-4.4168011zm-33.266006 102.1076255c14.284701 7.51446 24.471931 9.86675 40.273749 10.86091h.400767l.112379.0321c.108787.007.21116.0179.320716.0241l-.0082.0806 23.620879 7.36647-5.693354-13.77878-46.230347-15.349542 1.507366-4.545048 18.424506 6.116065 18.433486-6.115808 1.507367 4.544791-12.339622 4.096182 24.230241 8.0472c8.593681-5.14173 13.477291-10.892809 12.227271-15.557895-1.52661-5.696699-11.783119-8.235206-25.464873-7.125875-6.771475-8.519399-6.721186-17.033668-2.445142-25.553067l9.436756 12.424241 24.238459-11.302087c7.94093-4.536582-.32072-14.826806-7.85781-10.692403l-13.005176 5.634627-10.671896-16.527608h-.0159c-1.081969-1.858545-3.113514-3.487272-5.78059-4.71305-.05132.06926-.100577.140301-.152661.208528-2.891064 3.776853-7.089882 6.29997-11.802358 6.29997s-8.911292-2.523117-11.802356-6.300226c-.05208-.06797-.10109-.139275-.152405-.208272h-.000004c-2.679135 1.231164-4.718378 2.8681-5.796753 4.737417l-.096218-.024367-10.679851 16.527865-12.996961-5.635141c-7.536832-4.134146-15.7982254 6.155821-7.857291 10.69266l24.23845 11.30183 9.75747-12.841041c4.797915 8.644567 4.30273 17.29529-2.814605 25.945757-2.140846-.164669-4.2001-.24572-6.149285-.232383-10.342971.0713-17.688655 2.630075-18.958709 7.382112-1.135354 4.252903 2.824081 9.405838 10.042505 14.179168zm4.971137 7.7353-4.2899 10.38795 17.928294-5.58641c-4.521842-1.17319-8.962095-2.72754-13.638394-4.80154z" fill="#f6c155"/></g></svg>