<svg height="500" viewBox="0 0 132.29167 132.29167" width="500" xmlns="http://www.w3.org/2000/svg" xmlns:xlink="http://www.w3.org/1999/xlink"><radialGradient id="a" cx="66.145859" cy="66.145882" gradientTransform="matrix(-.00004147 1 -1 -.00004147 132.294459 .002719)" gradientUnits="userSpaceOnUse" r="66.14584"><stop offset="0" stop-color="#fa0"/><stop offset="1" stop-color="#ff8000"/></radialGradient><radialGradient id="b" cx="66.145828" cy="66.145836" gradientTransform="matrix(0 1.0000017 -1 .00000032 132.29167 -.000124)" gradientUnits="userSpaceOnUse" r="66.145836"><stop offset="0" stop-color="#d45500"/><stop offset="1" stop-color="#a40"/></radialGradient><circle cx="66.145836" cy="66.145836" fill="url(#b)" r="66.145836"/><path d="m80.94711 66.831282 51.34457-.683777-51.34457-.688083 51.06027-5.413135-51.18627 4.050967 50.34637-10.104804-50.59511 8.759867 49.19203-14.706028-49.56891 13.392317 47.62848-19.184491-48.12275 17.908467 45.65685-23.500353-46.26632 22.274941 43.29324-27.609469-44.0147 26.443283 40.56136-31.487072-41.38297 30.397338 37.47952-35.098701-38.40341 34.084343 34.08432-38.40236-35.09869 37.47953 30.39735-41.386203-31.48601 40.563519 26.44436-44.010396-27.60839 43.287855 22.2717-46.259858-23.49927 45.653612 17.90633-48.125974-19.17912 47.630643 13.39233-49.572134-14.70928 49.197402 8.75771-50.597258-10.10695 50.344207 4.06067-51.185196-5.42283 51.059209-.68593-51.34349-.67946 51.34349-5.42176-51.059209 4.05527 51.185196-10.10716-50.344207 8.76222 50.597258-14.70915-49.197402 13.3922 49.572134-19.18501-47.630643 17.91223 48.125974-23.49949-45.653612 22.27191 46.259858-27.61269-43.287855 26.45007 44.010396-31.48705-40.563519 30.39259 41.386203-35.09439-37.47953 34.08356 38.40236-38.40426-34.084343 37.48437 35.098701-41.38782-30.397338 40.56007 31.487072-44.01137-26.443283 43.29333 27.609469-46.26632-22.274941 45.65298 23.500353-48.1208-17.908467 47.62665 19.184491-49.57126-13.392317 49.19685 14.706028-50.59337-8.759867 50.34518 10.104804-51.19145-4.050967 51.06102 5.413135-51.34078.688083 51.34078.683777-51.06102 5.415287 51.19145-4.052042-50.34518 10.108037 50.59337-8.764177-49.19685 14.70818 49.57126-13.390162-47.62665 19.184487 48.1208-17.908464-45.65298 23.498204 46.26632-22.271714-43.29333 27.606232 44.01137-26.447582-40.56007 31.488142 41.38782-30.395178-37.48437 35.099768 38.40426-34.086488-34.08356 38.401278 35.09439-37.481681-30.39259 41.386201 31.48705-40.555977-26.45007 44.006087 27.61269-43.284624-22.27191 46.262004 23.49949-45.655758-17.91223 48.127048 19.18501-47.631714-13.3922 49.569974 14.70915-49.196319-8.76222 50.591869 10.10716-50.339895-4.05527 51.190575 5.42176-51.063511.67946 51.342411.68593-51.342411 5.42283 51.063511-4.06067-51.190575 10.10695 50.339895-8.75771-50.591869 14.70928 49.196319-13.39233-49.569974 19.17912 47.631714-17.90633-48.127048 23.49927 45.655758-22.2717-46.262004 27.60839 43.284624-26.44436-44.006087 31.48601 40.555977-30.39735-41.386201 35.09869 37.481681-34.08432-38.401278 38.40341 34.086488-37.47952-35.099768 41.38297 30.395178-40.56136-31.488142 44.0147 26.447582-43.29324-27.606232 46.26632 22.271714-45.65685-23.498204 48.12275 17.908464-47.62848-19.184487 49.56891 13.390162-49.19203-14.70818 50.59511 8.764177-50.34637-10.108037 51.18627 4.052042z" fill="url(#a)" fill-rule="evenodd"/><g stroke-width="1.05263" transform="matrix(.95000431 0 0 .95000431 3.30733 6.614583)"><path d="m66.193359 0c-4.390473.00068809-8.727533 2.9015585-11.617187 6.2070312-2.790724 3.1923062-3.817697 7.7258848-4.441406 11.9199218-.354232 2.381984.0092 4.842195.443348 7.210921.329233 1.796395.893094 3.608227 1.625 5.232421-2.029812.946912-3.764978 2.185896-5.28125 3.712891-4.533756 4.56582-10.990234 15.869141-10.990234 15.869141l-9.447266-4.095703c-4.248385-1.412796-11.991796-.410671-15.167969 3.501953-1.6223275 2.111878-2.6385802 4.886733-2.2031248 7.871094.4354555 2.98436 2.5072248 5.796847 5.4335938 7.46875 9.290264 4.368153 18.604924 8.692389 27.910156 13.03125l6.79298-8.939437c.478819 3.804231-.636778 7.554688-3.623047 11.701172-5.970654-.301342-13.161065.208296-18.277344 2.085938-4.055806 1.532759-7.724577 4.597446-8.873047 8.538109-1.031473 3.53922.368311 7.665657 2.601563 10.749047s5.976994 6.17214 9.52832 8.53028c1.009612.6704 2.239359 1.04096 3.286133 1.55566-2.738837 6.6322-5.477849 13.26433-8.216797 19.89649l35.695313-11.1211c3.603749.52426 7.379901.89717 11.474609 1.15625l32.738277 10.20899-8.019527-19.40625c.755208-.30599 1.510417-.61198 2.265625-.91797 4.613312-2.76021 8.368412-5.71164 11.021482-9.01563s4.4024-7.418089 3.27149-11.638673c-1.38088-5.152895-6.15213-7.922573-11.39063-9.339844-4.50531-1.218954-10.004507-1.484689-16.005858-1.203172-2.652039-3.888848-3.603313-7.480193-3.193359-11.134765l6.300781 8.294922 27.828126-12.984375c3.00845-1.718711 5.08021-4.53123 5.51562-7.515625.43541-2.984396-.58073-5.759238-2.20312-7.871094-3.24478-4.223712-9.76213-6.489577-15.54688-3.316406l-9.076168 3.910156s-5.90227-10.958509-10.184569-15.365235c-1.695554-1.74482-3.729555-3.159762-5.965821-4.205078.67951-1.511797 1.208064-3.190603 1.529297-4.857422.459016-2.38175.881126-4.852882.550781-7.255859-.592359-4.308914-1.611357-8.9766292-4.461938-12.2617188-2.879163-3.3180282-7.232903-6.2077197-11.625953-6.2070312z" fill="#592d0d"/><path d="m66.193582 4.5642345c-3.019351 0-5.818049 1.5740947-7.993787 4.4168011-1.864517 2.4351414-3.180736 5.7813424-3.520182 9.5543474 2.858224-1.263483 5.765965-2.028856 8.675503-2.308433v4.720745c-2.813324.35319-5.646658 1.284514-8.507191 2.829112.504936 3.202822 1.719809 6.028088 3.351613 8.160054 2.175739 2.842449 4.97418 4.416801 7.993531 4.416801 3.019352 0 5.826003-1.574352 8.001999-4.416801 1.582286-2.06733 2.766626-4.787947 3.295167-7.871243-3.096836-1.752357-6.207527-2.820649-9.340797-3.166144v-4.696891c3.252319.278807 6.470771 1.158321 9.581462 2.613146-.296342-3.887914-1.625647-7.339277-3.535575-9.8349493-2.176253-2.8424505-4.982648-4.4168011-8.002513-4.4168011zm-17.79962 34.7989815-10.72796 16.515682-12.996961-5.635141c-7.536832-4.134146-15.7982254 6.155821-7.857291 10.69266l24.23845 11.30183 9.75747-12.841041c4.797915 8.644567 4.30273 17.29529-2.814605 25.945757-2.140846-.164669-4.2001-.24572-6.149285-.232383-10.342971.0713-17.688655 2.630075-18.958709 7.382112-1.135354 4.252903 2.824081 9.405838 10.042505 14.179168 14.284701 7.51446 24.471931 9.86675 40.273749 10.86091h.400767l.112379.0321c.108787.007.21116.0179.320716.0241l-.0082.0806 23.620879 7.36647-5.693354-13.77878-46.230347-15.349542 1.507366-4.545048 18.424506 6.116065 18.433486-6.115808 1.507367 4.544791-12.339622 4.096182 24.230241 8.0472c8.593681-5.14173 13.477291-10.892809 12.227271-15.557895-1.52661-5.696699-11.783119-8.235206-25.464873-7.125875-6.771475-8.519399-6.721186-17.033668-2.445142-25.553067l9.436756 12.424241 24.238459-11.302087c7.94093-4.536582-.32072-14.826806-7.85781-10.692403l-13.005176 5.634627-10.679846-16.527608c-1.089919-1.858545-3.121464-3.487272-5.864871-4.608786-2.967394 3.881117-7.166212 6.404234-11.878688 6.404234s-8.911292-2.523117-11.87856-6.404362c-2.75534 1.127028-4.794583 2.763964-5.921067 4.621097zm-10.495249 75.043944-4.2899 10.38795 17.928294-5.58641c-4.521842-1.17319-8.962095-2.72754-13.638394-4.80154z" fill="#f6c155"/></g></svg>