<svg height="500" viewBox="0 0 500 500" width="500" xmlns="http://www.w3.org/2000/svg"><g transform="translate(-1000 -500)"><circle cx="1250" cy="750" fill="#8f29a3" r="250"/><path d="m1250.0521 500.09326-.061 248.75004-15.9199-248.2399a249.99917 250.18666 0 0 0 -31.6776 4.06945l45.0428 231.17052c-.102.0363-.2268.0547-.3789.0547l2.377 12.94521-.25-.53361-.5352-1.34279-3.3574-10.61339c-.1814.0698-.3456.12506-.5117.12506l-.1211.0782-83.1951-220.24831a249.99917 250.18666 0 0 0 -14.7401 6.13348l96.9 214.60543-.2187.11532 2.3047 4.43886 2.3437 5.21678.055.0488.416.7486.7461 1.26658v.0314l-.7461-1.29782-.4707-.79746-5.5273-9.21c-.1841.12151-.3808.23754-.5664.39678l-123.4077-200.53639a249.99917 250.18666 0 0 0 -34.1776 25.40763l164.5483 186.40079-.3984-.58052.832 1.02616v.0508l-.3262-.32448-.094-.12903v-.006-.002l-176.1809-175.46484a249.99917 250.18666 0 0 0 -21.0273 24.05115l186.5306 143.42536-.1425.18569 10.4687 8.26398-2.0957-1.07698-9.4082-5.66242c-.1395.18156-.2273.33335-.3066.47301l-208.0031-109.74966a249.99917 250.18666 0 0 0 -7 14.40723l214.5266 96.34337c-.074.17741-.1655.3791-.2578.59419l12.1758 4.73596-.037-.0253.5254.23653-.4863-.21109.3574.18179.2129.0802-.2129-.0508v-.0295l-12.8066-4.08117c-.056.14944-.1255.33501-.1758.5082l-224.9661-68.33223a249.99917 250.18666 0 0 0 -8.7656 41.69908l246.1613 30.77687h-1.2363l-246.3644-14.82161a249.99917 250.18666 0 0 0 -.4219 14.51082 249.99917 250.18666 0 0 0 .6113 17.47203l234.4934-16.18786h-.027l.3066-.0234-.2773.0234 12.9687-.73492-7.6699 1.8549-.3028.0508-4.789.9382.07.23845-228.2004 55.91086a249.99917 250.18666 0 0 0 4.2871 15.37279l224.173-70.26921c.093.36314.1859.69573.2793.95971l11.9648-4.46623-6.7285 3.52803-218.2141 100.03556a249.99917 250.18666 0 0 0 21.0155 36.99246l204.0072-139.70972-2.9414 2.38851-191.599 150.2058a249.99917 250.18666 0 0 0 21.2792 23.80097l164.7143-167.43742c.2793.26396.5666.50585.8359.80333l7.6309-8.62753v-.0314l.7578-.86587.1855-.23653.7754-.84633.02-.0645.057-.0272-.023.15832-.1035.11531.051-.18179-.068.18179-1.3203 1.73762.6133-1.0457-.1856.20916-.7578.89715-2.5996 3.67852-4.2753 5.57643.287.1818-133.9214 192.92518a249.99917 250.18666 0 0 0 13.3768 8.68037l121.3629-200.99764c.1115.0698.2562.1641.4043.23263l6.9082-11.76855-.2793.71929-100.1481 226.51466a249.99917 250.18666 0 0 0 40.1346 13.79743l59.6931-236.78211-1.5742 9.22563.2364.0566-42.7675 230.89101a249.99917 250.18666 0 0 0 31.6386 3.76263l12.9316-234.50119c.2415.0238.455.0234.6602.0234h.031v-12.36276l.055-.87175.3809 3.35211.6328 9.85892c.1939 0 .3385-.0234.5058-.0234l27.248 233.23258a249.99917 250.18666 0 0 0 15.7831-2.3455l-42.1484-231.0161c.254-.028.4739-.0916.707-.11531l-2.0644-10.71502-.055-.13878-.3203-1.79235.018.0295.3575 1.90182 74.3923 234.18055a249.99917 250.18666 0 0 0 39.205-16.19959l-111.1503-215.75097 4.1406 6.7179.2696-.18569 120.6715 201.44522a249.99917 250.18666 0 0 0 26.2108-18.10533l-145.5071-184.32505c.254-.18717.4204-.39029.6562-.60397l-8.457-9.554 3.3672 3.03156 5.8437 5.83834.2872-.30686 174.8256 156.82795a249.99917 250.18666 0 0 0 10.2715-12.18293l-184.478-145.35845c.1296-.15783.305-.33279.4082-.48083l-9.3632-7.21437 211.5852 126.78601a249.99917 250.18666 0 0 0 18.7245-38.19257l-229.6555-89.16613 11.0274 3.36579.012-.18569 223.9289 70.91228a249.99917 250.18666 0 0 0 7.6836-30.99187l-231.1887-41.80463c0-.16199.037-.30149.037-.44955l-7.3671-.90693-4.5508-.79941 12.0312.70755c.03-.32965.029-.62841.029-.96361l235.009 1.78454a249.99917 250.18666 0 0 0 .011-2.19892 249.99917 250.18666 0 0 0 -.3809-13.81303l-234.6691 13.37131v-.33226l-11.7754.81114-2.207.14075 2.1641-.14075h.043l242.6422-45.60435a249.99917 250.18666 0 0 0 -11.2772-41.04821l-231.0032 85.65376-.2598.0684 10.5078-4.79069c-.1716-.35894-.395-.80876-.6601-1.20402l208.1651-109.51534a249.99917 250.18666 0 0 0 -7.877-13.90491l-200.7337 122.63837-.2109-.32833-5.6211 3.9033-4.707 2.86542 9.6699-7.59747-.1446-.20719 183.392-147.45376a249.99917 250.18666 0 0 0 -29.3651-30.85701l-161.2514 182.96656-2.3184 2.37091 151.2905-195.53064a249.99917 250.18666 0 0 0 -26.4154-17.96062l-119.2496 202.94829-.094-.0664-7.0644 11.68841 5.539-12.45265c-.2748-.15364-.5655-.24794-.8711-.35962l83.404-220.18189a249.99917 250.18666 0 0 0 -15.121-5.19332l-69.2811 225.07807c-.1088-.0378-.2229-.0651-.3808-.11531l-1.8809 7.53882-1.1289 3.69807 2.1055-11.46558c-.2011-.0197-.4082-.0561-.6133-.0743l40.1268-232.08917a249.99917 250.18666 0 0 0 -42.4354-3.64138zm-1.9453 235.66215 1.0117 8.77021v.043l.8711 4.45646v.46128l.029-.16807.023.62741v.1036l-.057-.1036v-.43977l-.066.30686-.2383-.49451-.5625-4.74964zm-9.3652 5.00568 7.0859 6.37391-.025-.0197zm25.7675 6.02013-11.8261 2.9006h-.057zm-12.1504.11531-1.6269 2.78332-.3496.40069.1113-.44954-.092.20719-.02.18179-.051.10553v-.0253l.051-.0802v-.16221l.02-.0197v-.10556l.012-.0234.082-.12118v-.0234l.033-.0272.061-.1505v.0197l-.061.13096-.033.0508zm-6.5292.23849 3.3242 2.54682.3633.56682-.4493-.16807.2012.13878h-.022l-.2188-.13878h.037zm5.0331.24627-.2968 1.58908.2968-.84047-.3339 1.37603-.1016.1505.1387-.68606.2617-1.56758zm-.582.38505-.086 1.71808-.057.19351-.1172-.46715zm3.1445.7447-2.2754 1.58908h-.023l-.4121.27757-.2871.11728.2129-.27557.074-.0215.8867-.71342zm-4.0429.57856.1348.14075v.0469l-.084-.1251zm3.8633.31665h.029l-.1738.0802zm-3.5254.18179.1835.3577v.0392l-.1835-.35376zm.416.0938.02.26385v.0392l.039.0958.047.11728-.047.0215-.039-.1192.039-.0197-.039-.0605v-.0352l-.057-.26192zm2.2207.0644-.07.0272-1.0156.30686.1562-.0605zm-5.6387.0665 2.3692.40655.3457.21498.029.0606-.3124.0644zm2.1641.31271h.053l.094.0314zm.7265.19155h.02v.0196zm-.164.0606h.02l.074.0802zm.2148.1818h.024l-.024.0314zm-.3359.16808h.057l.2461.0352-.8125.32836zm-.3887.0352h.2168l-.9316.47886.2637-.0527-.025.0272-.2383.0253-2.0253.39287v.0234l-5.2422.93428 5.2422-.95774zm1.7774.0234.5078.043.7519.2228-.8457-.0841zm-.2188.16418.035.0178.1113.22088.3282.16611 1.4394 1.4034-1.3496-1.00858-.2344-.2971-.1855-.26385-.018-.0333-.092-.18766h-.035zm-1.0625.0802-.25.27364h-.029l-2.7812 1.26461 2.2988-1.41316zm1.5703.0997.1485.0253.031.0314zm.2207.0253 1.9356.60398-1.9063-.57074zm-1.1796.17201.031.1251.022-.0978-.022.13092v.006l.076.23066.125 1.89594-.2324-1.35256.031-.77402-.088.50819v-.0919l-.031-.18569.031.14272v-.26385zm.7226.0919.061.0664.088.14661-.037-.0314zm-1.1406.1818-.2442.52578-3.9492 12.85138 3.9219-12.85138h.027l.084-.28732.01-.0117zm-.088.10552-.065.11339.041-.0978zm1.4648.0802.033.0234.1152.18962-.092-.0919zm-.4375.21306.023.0295.029.22669zm-1.7304.26581v.0295l.051-.0295zm2.2929 1.35257 4.8828 10.7893-4.8828-10.73457z" fill="#aa40bf"/></g><g transform="translate(25.810055 -40.714073)"><path d="m204.25977 33.517578c-9.39931-.151032-21.02457 3.780573-28.1543 12.230469s-9.95609 18.751419-11.38086 30.929687c0 0-4.81857 41.197606-7.22852 61.796876-2.06772 17.67407-1.80015 33.05966-5.06836 45.04883-2.65797 9.75071-7.69402 19.91736-13.55859 30.49218-10.43784-16.55152-21.80966-30.56203-39.935546-40.96484-9.037553-5.18682-20.30659-8.53237-33.175782-4.41992-6.308803 2.01604-12.523023 5.98431-16.810546 10.45898-4.287524 4.47468-7.073235 8.89463-10.408204 13.96875l-7.164062 10.90039 8.126953 10.20118c38.130978 47.86746 46.644061 91.38473 53.628906 123.03515v.002c1.623494 7.35185 1.757238 15.7558 3.802735 25.95898-.0459 36.44493 17.062386 63.02328 38.615236 81.05273 22.32535 18.67565 52.66792 25.3397 78.61523 20.80274l.32422-.0566.32227-.0684c26.58262-5.65759 46.17493-16.15615 64.09179-31.51953l.11328-.0957.11133-.0996c14.08762-12.49027 35.57293-29.96069 54.11133-43.72851 25.66153-19.05784 53.15494-38.48211 78.41406-53.42383l.81836-.48437.76172-.56641c8.18271-6.08692 22.89974-13.10155 35.86328-22.15234 6.48177-4.5254 12.95253-9.59362 17.73828-17.86329 4.78576-8.26966 5.89904-21.14433 1.17774-31.00585-4.65812-9.72954-14.39564-16.2108-23.21875-18.33008-8.82312-2.11928-17.08223-1.34921-24.94727.29101-9.52239 1.98586-18.46155 5.45772-26.54883 9.58594l18.2461-22.86523 10.625-13.31446.36523-.5332c8.5085-12.39062 19.47537-25.20616 27.16407-39.52344 3.84434-7.15864 7.15765-14.99611 7.36328-24.5039s-4.20023-20.30373-11.78711-27.40039c-6.05603-5.66472-14.70715-9.21817-22.72071-9.26954-8.01355-.0514-14.82736 2.56832-20.70507 5.81641-11.75542 6.49619-21.19565 16.06505-30.65625 26.14844l-.38672.41015-.35742.4336c-1.18641 1.43457-10.67933 11.06855-20.92579 20.77734-10.24645 9.70879-22.0785 20.61754-31.18554 28.86328-1.27617 1.15547-2.01446 1.97252-3.18946 3.08594 11.49856-24.03661 22.64744-47.64709 35.11719-71.26953l-.17187.31836c7.43386-13.42248 13.69817-27.12715 15.62109-41.654298.96146-7.263575.82256-15.047124-2.20508-22.833985-3.02764-7.78686-9.49628-14.965648-17.38086-18.955078-8.18807-4.143007-18.21406-4.887917-26.36523-2.449218-8.15117 2.438698-14.42605 7.137821-19.69922 12.339843-10.54634 10.404046-17.9794 23.65315-24.44531 36.892578l-.30274.617188-.25195.638672c-9.582 24.123938-22.75813 45.964108-36.66211 69.339848-.16491.27725-.25768.45753-.41992.73242.0926-1.84563.22742-3.26997.28515-5.20703.73104-24.51561 8.02624-55.7938 4.84571-83.671879-1.18674-10.402317-3.9623-20.239817-9.94531-28.851562-5.98302-8.611745-16.84135-15.893996-28.9043-16.087891z" fill="#6a1f7a"/><path d="m374.15071 250.62813 33.54486-42.03552c18.32525-26.68643 42.96422-51.55344 25.28247-68.0927-12.98665-12.1475-30.5922 2.60714-48.66033 21.86469-6.33067 7.6549-35.47742 34.83186-53.90028 51.51237-9.64833 8.73584-17.75402 20.11581-29.64048 25.41817-6.31415 2.81664-15.38087 7.26928-20.56571 2.69547-1.6631-1.46708-.45472-4.49002.0349-6.65305 2.46648-10.90066 9.43188-20.26565 14.27552-30.33771 13.0462-27.12868 25.48591-53.89139 39.82386-81.05292 13.70743-24.749932 21.13589-49.816984 3.65456-58.662163-17.91241-9.063333-34.13916 13.907859-46.20942 38.622593-10.28539 25.89481-24.06869 48.61105-37.91984 71.89796-6.54914 11.01062-11.55182 23.68586-21.314 31.98184-2.48923 2.11539-5.84256 5.13002-8.92481 4.04802-2.29121-.80434-2.73101-4.13458-3.29782-6.49587-3.40362-14.17928-.49531-29.17059-.0609-43.74618.80722-27.07036 7.51871-58.61594 4.95402-81.096017-1.88703-16.540725-9.27697-28.789905-21.25577-28.982447-11.54237-.185468-18.96089 6.677592-21.36816 27.253853 0 0-4.81993 41.198561-7.22988 61.797831-1.85981 15.89689-1.37002 32.24885-5.57941 47.69069-3.36377 12.33989-9.27685 23.92616-15.49854 35.10101-4.74772 8.52743-16.53853 24.16185-16.53853 24.16185-15.91225-27.67323-25.86251-46.27691-47.783872-58.85802-5.480535-3.14538-12.716898-4.80843-18.735994-2.88498-7.819638 2.49884-11.076868 7.15721-17.656927 17.1687 40.701888 51.09484 50.227013 99.10213 57.127523 130.3704 2.21217 10.01763 2.27723 19.34532 4.12935 27.76088-.76151 32.65183 12.7116 52.97267 32.26159 69.32668 16.91375 14.14872 44.45969 20.28816 63.96422 16.87774 24.21495-5.15368 39.79351-13.57537 56.12339-27.57795 14.63576-12.97627 36.28482-30.57485 55.31926-44.71106 25.89527-19.23143 53.7779-38.9641 79.98275-54.46525 21.10534-15.69977 59.27236-27.95191 49.28799-48.80658-9.03883-18.87962-45.50981-5.31434-62.39693 7.05327-6.87236 5.03316-24.08898 18.91209-37.22201 15.84973-3.38691-.78976-6.73786-4.43461-6.80143-7.9119-.28129-15.38571 19.19656-24.05562 28.79488-36.08343z" fill="#eed9f2" stroke-width="35.9999"/></g><g opacity=".75" stroke-width="2.94451" transform="matrix(.9480094 .26702283 -.26702283 .9480094 76.40203 -41.859856)"><g transform="matrix(.34482727 0 0 .34481961 -143.17234 71.028956)"><path d="m665.375-66.25c-21.88411.645466-40.25734 10.202648-55.04297 24.988281v.002c-12.43519 12.436012-20.94329 27.471618-23.96875 44.9257816-3.02546 17.4541634.55857 40.0097444 16.65625 56.1074214l.002.002.002.002c11.98195 11.978953 26.3522 17.070083 40.53515 17.673828 15.7412 21.354946 35.30358 39.943318 57.30469 54.728518l1.78906 32.6582 12.75196 11.48828c114.81329 103.43452 230.02213 200.79825 317.31841 262.80078l81.1532 23.23831-22.7997-80.71682c-61.5037-89.42524-162.24725-205.98567-263.21107-317.861471l-11.48828-12.732422-32.61523-1.777343c-14.78964-22.014069-33.38387-41.6032044-54.76367-57.3593753-.60561-14.1556257-5.67341-28.5054417-17.63086-40.4628907-13.01937-13.019369-30.94263-18.14599-45.98438-17.705078h-.004zm37.79687 200.00586c.7433.48653 1.45254 1.02618 2.20118 1.50391l-1.92969-1.3086z" fill="#6a1f7a" stroke-width="2.94451"/><path d="m751.90433 76.348487c-16.8264-26.444699-41.75101-49.931999-68.87701-64.517399 6.1155-11.47319733 6.1164-23.780697-1.0692-30.966297-3.9168-3.9168-9.3537-5.7168-15.35625-5.54085-8.77275.25875-18.74205 4.70655-26.86005 12.82455-13.6728 13.6736997-16.9542 32.574597-7.3125 42.216297 7.191 7.1892 19.5444 7.2243 31.023 1.098 14.5503 27.044999 37.9386 51.918299 64.29421 68.736602l13.5558 9.7614 1.9404 35.4645c114.1587 102.8448 228.9897 199.7226 313.56447 259.7922-58.98597-85.7646-159.29097-202.1742-259.81827-313.566303l-35.073-1.9116z" fill="#eed9f2" stroke-width="106.002"/><path d="m833.56836 8.8300781c-6.37057-.00281-12.75151.072199-19.0929.7438667-4.17485.405467-8.33031.9997852-12.45788 1.7444142-.36098.07226-1.18018.221262-1.71662.322909-18.05157 3.464246-35.34519 10.188811-51.60383 18.673858-.60119.308757-.89889.468629-1.46946.774151-7.1174 3.789854-14.09472 7.853039-20.86048 12.240801-11.13263 7.445698-20.96537 16.822054-28.93946 27.582031-.15659.224329-.67857.928072-.97461 1.337891-3.73707 5.186495-6.94736 10.724417-10.20195 16.219541-5.28161 9.072296-10.08482 18.435959-14.10078 28.139839-.15539.36974-.45425 1.11144-.66456 1.62356-6.5934 16.30562-10.907 33.60012-12.00101 51.18051-.45721 6.85162-.27488 13.72227-.38258 20.58365-.0718 10.14419-.14368 20.28839-.21552 30.43259h100.23047c.031-13.58482-.008-27.17014.0691-40.75464.023-3.85534.2686-7.72049 1.07805-11.49823 2.3887-11.62211 7.86297-22.3257 13.98431-32.38984 1.70131-2.72376 3.29275-5.5904 5.73152-7.74176 2.66426-2.56426 6.01047-4.21179 9.15497-6.09008 8.59346-4.86779 17.60038-9.23954 27.24369-11.56889 5.04536-1.23273 10.25481-1.60812 15.43636-1.56134 12.98024-.17063 25.96045-.34444 38.94068-.51632 0-33.232418 0-66.46484 0-99.6972619-12.39583.072917-24.79167.1458334-37.1875.21875z" fill="#6a1f7a" stroke-width="2.94451"/><path d="m829.13672 45.826172c-15.72851-.03067-31.33462 3.447791-45.91115 9.249376-12.35822 4.888678-24.06721 11.286989-35.31564 18.333384-10.29971 6.675909-19.02318 15.750998-25.30269 26.296632-9.33064 15.065146-17.52595 31.038036-22.2027 48.203396-2.89445 10.50265-4.36092 21.39905-4.26218 32.29569-.008 1.08478-.0155 2.16956-.0232 3.25433h26.06445c.005-5.18545.0211-10.38585.69912-15.53656 1.67655-13.98636 6.68317-27.37192 13.20386-39.78737 3.16083-5.99318 6.58634-11.85282 10.31839-17.5082 5.1187-7.45799 12.02655-13.617842 19.8567-18.117529 13.75278-8.277295 28.44895-15.44095 44.26658-18.687668 6.60267-1.386702 13.35359-1.98337 20.09625-1.953519 1.05355-.01399 2.10711-.02797 3.16067-.04196 0-8.675781 0-17.351563 0-26.027344-1.54948.0091-3.09896.01823-4.64844.02734z" fill="#eed9f2" stroke-width="106.002"/></g><g transform="matrix(.10655748 .32795022 -.32794293 .10655512 286.07879 -186.60087)"><path d="m665.375-66.25c-21.88411.645466-40.25734 10.202648-55.04297 24.988281v.002c-12.43519 12.436012-20.94329 27.471618-23.96875 44.9257816-3.02546 17.4541634.55857 40.0097444 16.65625 56.1074214l.002.002.002.002c11.98195 11.978953 26.3522 17.070083 40.53515 17.673828 15.7412 21.354946 35.30358 39.943318 57.30469 54.728518l1.78906 32.6582 12.75196 11.48828c114.81329 103.43452 230.02213 200.79825 317.31841 262.80078l81.1532 23.23831-22.7997-80.71682c-61.5037-89.42524-162.24725-205.98567-263.21107-317.861471l-11.48828-12.732422-32.61523-1.777343c-14.78964-22.014069-33.38387-41.6032044-54.76367-57.3593753-.60561-14.1556257-5.67341-28.5054417-17.63086-40.4628907-13.01937-13.019369-30.94263-18.14599-45.98438-17.705078h-.004zm37.79687 200.00586c.7433.48653 1.45254 1.02618 2.20118 1.50391l-1.92969-1.3086z" fill="#6a1f7a" stroke-width="2.94451"/><path d="m751.90433 76.348487c-16.8264-26.444699-41.75101-49.931999-68.87701-64.517399 6.1155-11.47319733 6.1164-23.780697-1.0692-30.966297-3.9168-3.9168-9.3537-5.7168-15.35625-5.54085-8.77275.25875-18.74205 4.70655-26.86005 12.82455-13.6728 13.6736997-16.9542 32.574597-7.3125 42.216297 7.191 7.1892 19.5444 7.2243 31.023 1.098 14.5503 27.044999 37.9386 51.918299 64.29421 68.736602l13.5558 9.7614 1.9404 35.4645c114.1587 102.8448 228.9897 199.7226 313.56447 259.7922-58.98597-85.7646-159.29097-202.1742-259.81827-313.566303l-35.073-1.9116z" fill="#eed9f2" stroke-width="106.002"/><path d="m833.56836 8.8300781c-6.37057-.00281-12.75151.072199-19.0929.7438667-4.17485.405467-8.33031.9997852-12.45788 1.7444142-.36098.07226-1.18018.221262-1.71662.322909-18.05157 3.464246-35.34519 10.188811-51.60383 18.673858-.60119.308757-.89889.468629-1.46946.774151-7.1174 3.789854-14.09472 7.853039-20.86048 12.240801-11.13263 7.445698-20.96537 16.822054-28.93946 27.582031-.15659.224329-.67857.928072-.97461 1.337891-3.73707 5.186495-6.94736 10.724417-10.20195 16.219541-5.28161 9.072296-10.08482 18.435959-14.10078 28.139839-.15539.36974-.45425 1.11144-.66456 1.62356-6.5934 16.30562-10.907 33.60012-12.00101 51.18051-.45721 6.85162-.27488 13.72227-.38258 20.58365-.0718 10.14419-.14368 20.28839-.21552 30.43259h100.23047c.031-13.58482-.008-27.17014.0691-40.75464.023-3.85534.2686-7.72049 1.07805-11.49823 2.3887-11.62211 7.86297-22.3257 13.98431-32.38984 1.70131-2.72376 3.29275-5.5904 5.73152-7.74176 2.66426-2.56426 6.01047-4.21179 9.15497-6.09008 8.59346-4.86779 17.60038-9.23954 27.24369-11.56889 5.04536-1.23273 10.25481-1.60812 15.43636-1.56134 12.98024-.17063 25.96045-.34444 38.94068-.51632 0-33.232418 0-66.46484 0-99.6972619-12.39583.072917-24.79167.1458334-37.1875.21875z" fill="#6a1f7a" stroke-width="2.94451"/><path d="m829.13672 45.826172c-15.72851-.03067-31.33462 3.447791-45.91115 9.249376-12.35822 4.888678-24.06721 11.286989-35.31564 18.333384-10.29971 6.675909-19.02318 15.750998-25.30269 26.296632-9.33064 15.065146-17.52595 31.038036-22.2027 48.203396-2.89445 10.50265-4.36092 21.39905-4.26218 32.29569-.008 1.08478-.0155 2.16956-.0232 3.25433h26.06445c.005-5.18545.0211-10.38585.69912-15.53656 1.67655-13.98636 6.68317-27.37192 13.20386-39.78737 3.16083-5.99318 6.58634-11.85282 10.31839-17.5082 5.1187-7.45799 12.02655-13.617842 19.8567-18.117529 13.75278-8.277295 28.44895-15.44095 44.26658-18.687668 6.60267-1.386702 13.35359-1.98337 20.09625-1.953519 1.05355-.01399 2.10711-.02797 3.16067-.04196 0-8.675781 0-17.351563 0-26.027344-1.54948.0091-3.09896.01823-4.64844.02734z" fill="#eed9f2" stroke-width="106.002"/></g><g transform="matrix(-.27897112 .20268438 -.20267988 -.27896492 661.90209 141.29657)"><path d="m665.375-66.25c-21.88411.645466-40.25734 10.202648-55.04297 24.988281v.002c-12.43519 12.436012-20.94329 27.471618-23.96875 44.9257816-3.02546 17.4541634.55857 40.0097444 16.65625 56.1074214l.002.002.002.002c11.98195 11.978953 26.3522 17.070083 40.53515 17.673828 15.7412 21.354946 35.30358 39.943318 57.30469 54.728518l1.78906 32.6582 12.75196 11.48828c114.81329 103.43452 230.02213 200.79825 317.31841 262.80078l81.1532 23.23831-22.7997-80.71682c-61.5037-89.42524-162.24725-205.98567-263.21107-317.861471l-11.48828-12.732422-32.61523-1.777343c-14.78964-22.014069-33.38387-41.6032044-54.76367-57.3593753-.60561-14.1556257-5.67341-28.5054417-17.63086-40.4628907-13.01937-13.019369-30.94263-18.14599-45.98438-17.705078h-.004zm37.79687 200.00586c.7433.48653 1.45254 1.02618 2.20118 1.50391l-1.92969-1.3086z" fill="#6a1f7a" stroke-width="2.94451"/><path d="m751.90433 76.348487c-16.8264-26.444699-41.75101-49.931999-68.87701-64.517399 6.1155-11.47319733 6.1164-23.780697-1.0692-30.966297-3.9168-3.9168-9.3537-5.7168-15.35625-5.54085-8.77275.25875-18.74205 4.70655-26.86005 12.82455-13.6728 13.6736997-16.9542 32.574597-7.3125 42.216297 7.191 7.1892 19.5444 7.2243 31.023 1.098 14.5503 27.044999 37.9386 51.918299 64.29421 68.736602l13.5558 9.7614 1.9404 35.4645c114.1587 102.8448 228.9897 199.7226 313.56447 259.7922-58.98597-85.7646-159.29097-202.1742-259.81827-313.566303l-35.073-1.9116z" fill="#eed9f2" stroke-width="106.002"/><path d="m833.56836 8.8300781c-6.37057-.00281-12.75151.072199-19.0929.7438667-4.17485.405467-8.33031.9997852-12.45788 1.7444142-.36098.07226-1.18018.221262-1.71662.322909-18.05157 3.464246-35.34519 10.188811-51.60383 18.673858-.60119.308757-.89889.468629-1.46946.774151-7.1174 3.789854-14.09472 7.853039-20.86048 12.240801-11.13263 7.445698-20.96537 16.822054-28.93946 27.582031-.15659.224329-.67857.928072-.97461 1.337891-3.73707 5.186495-6.94736 10.724417-10.20195 16.219541-5.28161 9.072296-10.08482 18.435959-14.10078 28.139839-.15539.36974-.45425 1.11144-.66456 1.62356-6.5934 16.30562-10.907 33.60012-12.00101 51.18051-.45721 6.85162-.27488 13.72227-.38258 20.58365-.0718 10.14419-.14368 20.28839-.21552 30.43259h100.23047c.031-13.58482-.008-27.17014.0691-40.75464.023-3.85534.2686-7.72049 1.07805-11.49823 2.3887-11.62211 7.86297-22.3257 13.98431-32.38984 1.70131-2.72376 3.29275-5.5904 5.73152-7.74176 2.66426-2.56426 6.01047-4.21179 9.15497-6.09008 8.59346-4.86779 17.60038-9.23954 27.24369-11.56889 5.04536-1.23273 10.25481-1.60812 15.43636-1.56134 12.98024-.17063 25.96045-.34444 38.94068-.51632 0-33.232418 0-66.46484 0-99.6972619-12.39583.072917-24.79167.1458334-37.1875.21875z" fill="#6a1f7a" stroke-width="2.94451"/><path d="m829.13672 45.826172c-15.72851-.03067-31.33462 3.447791-45.91115 9.249376-12.35822 4.888678-24.06721 11.286989-35.31564 18.333384-10.29971 6.675909-19.02318 15.750998-25.30269 26.296632-9.33064 15.065146-17.52595 31.038036-22.2027 48.203396-2.89445 10.50265-4.36092 21.39905-4.26218 32.29569-.008 1.08478-.0155 2.16956-.0232 3.25433h26.06445c.005-5.18545.0211-10.38585.69912-15.53656 1.67655-13.98636 6.68317-27.37192 13.20386-39.78737 3.16083-5.99318 6.58634-11.85282 10.31839-17.5082 5.1187-7.45799 12.02655-13.617842 19.8567-18.117529 13.75278-8.277295 28.44895-15.44095 44.26658-18.687668 6.60267-1.386702 13.35359-1.98337 20.09625-1.953519 1.05355-.01399 2.10711-.02797 3.16067-.04196 0-8.675781 0-17.351563 0-26.027344-1.54948.0091-3.09896.01823-4.64844.02734z" fill="#eed9f2" stroke-width="106.002"/></g><g transform="matrix(-.27897112 -.20268438 .20267988 -.27896492 466.82521 603.0565)"><path d="m665.375-66.25c-21.88411.645466-40.25734 10.202648-55.04297 24.988281v.002c-12.43519 12.436012-20.94329 27.471618-23.96875 44.9257816-3.02546 17.4541634.55857 40.0097444 16.65625 56.1074214l.002.002.002.002c11.98195 11.978953 26.3522 17.070083 40.53515 17.673828 15.7412 21.354946 35.30358 39.943318 57.30469 54.728518l1.78906 32.6582 12.75196 11.48828c114.81329 103.43452 230.02213 200.79825 317.31841 262.80078l81.1532 23.23831-22.7997-80.71682c-61.5037-89.42524-162.24725-205.98567-263.21107-317.861471l-11.48828-12.732422-32.61523-1.777343c-14.78964-22.014069-33.38387-41.6032044-54.76367-57.3593753-.60561-14.1556257-5.67341-28.5054417-17.63086-40.4628907-13.01937-13.019369-30.94263-18.14599-45.98438-17.705078h-.004zm37.79687 200.00586c.7433.48653 1.45254 1.02618 2.20118 1.50391l-1.92969-1.3086z" fill="#6a1f7a" stroke-width="2.94451"/><path d="m751.90433 76.348487c-16.8264-26.444699-41.75101-49.931999-68.87701-64.517399 6.1155-11.47319733 6.1164-23.780697-1.0692-30.966297-3.9168-3.9168-9.3537-5.7168-15.35625-5.54085-8.77275.25875-18.74205 4.70655-26.86005 12.82455-13.6728 13.6736997-16.9542 32.574597-7.3125 42.216297 7.191 7.1892 19.5444 7.2243 31.023 1.098 14.5503 27.044999 37.9386 51.918299 64.29421 68.736602l13.5558 9.7614 1.9404 35.4645c114.1587 102.8448 228.9897 199.7226 313.56447 259.7922-58.98597-85.7646-159.29097-202.1742-259.81827-313.566303l-35.073-1.9116z" fill="#eed9f2" stroke-width="106.002"/><path d="m833.56836 8.8300781c-6.37057-.00281-12.75151.072199-19.0929.7438667-4.17485.405467-8.33031.9997852-12.45788 1.7444142-.36098.07226-1.18018.221262-1.71662.322909-18.05157 3.464246-35.34519 10.188811-51.60383 18.673858-.60119.308757-.89889.468629-1.46946.774151-7.1174 3.789854-14.09472 7.853039-20.86048 12.240801-11.13263 7.445698-20.96537 16.822054-28.93946 27.582031-.15659.224329-.67857.928072-.97461 1.337891-3.73707 5.186495-6.94736 10.724417-10.20195 16.219541-5.28161 9.072296-10.08482 18.435959-14.10078 28.139839-.15539.36974-.45425 1.11144-.66456 1.62356-6.5934 16.30562-10.907 33.60012-12.00101 51.18051-.45721 6.85162-.27488 13.72227-.38258 20.58365-.0718 10.14419-.14368 20.28839-.21552 30.43259h100.23047c.031-13.58482-.008-27.17014.0691-40.75464.023-3.85534.2686-7.72049 1.07805-11.49823 2.3887-11.62211 7.86297-22.3257 13.98431-32.38984 1.70131-2.72376 3.29275-5.5904 5.73152-7.74176 2.66426-2.56426 6.01047-4.21179 9.15497-6.09008 8.59346-4.86779 17.60038-9.23954 27.24369-11.56889 5.04536-1.23273 10.25481-1.60812 15.43636-1.56134 12.98024-.17063 25.96045-.34444 38.94068-.51632 0-33.232418 0-66.46484 0-99.6972619-12.39583.072917-24.79167.1458334-37.1875.21875z" fill="#6a1f7a" stroke-width="2.94451"/><path d="m829.13672 45.826172c-15.72851-.03067-31.33462 3.447791-45.91115 9.249376-12.35822 4.888678-24.06721 11.286989-35.31564 18.333384-10.29971 6.675909-19.02318 15.750998-25.30269 26.296632-9.33064 15.065146-17.52595 31.038036-22.2027 48.203396-2.89445 10.50265-4.36092 21.39905-4.26218 32.29569-.008 1.08478-.0155 2.16956-.0232 3.25433h26.06445c.005-5.18545.0211-10.38585.69912-15.53656 1.67655-13.98636 6.68317-27.37192 13.20386-39.78737 3.16083-5.99318 6.58634-11.85282 10.31839-17.5082 5.1187-7.45799 12.02655-13.617842 19.8567-18.117529 13.75278-8.277295 28.44895-15.44095 44.26658-18.687668 6.60267-1.386702 13.35359-1.98337 20.09625-1.953519 1.05355-.01399 2.10711-.02797 3.16067-.04196 0-8.675781 0-17.351563 0-26.027344-1.54948.0091-3.09896.01823-4.64844.02734z" fill="#eed9f2" stroke-width="106.002"/></g><g transform="matrix(.10655748 -.32795022 .32794293 .10655512 -30.609228 558.01311)"><path d="m665.375-66.25c-21.88411.645466-40.25734 10.202648-55.04297 24.988281v.002c-12.43519 12.436012-20.94329 27.471618-23.96875 44.9257816-3.02546 17.4541634.55857 40.0097444 16.65625 56.1074214l.002.002.002.002c11.98195 11.978953 26.3522 17.070083 40.53515 17.673828 15.7412 21.354946 35.30358 39.943318 57.30469 54.728518l1.78906 32.6582 12.75196 11.48828c114.81329 103.43452 230.02213 200.79825 317.31841 262.80078l81.1532 23.23831-22.7997-80.71682c-61.5037-89.42524-162.24725-205.98567-263.21107-317.861471l-11.48828-12.732422-32.61523-1.777343c-14.78964-22.014069-33.38387-41.6032044-54.76367-57.3593753-.60561-14.1556257-5.67341-28.5054417-17.63086-40.4628907-13.01937-13.019369-30.94263-18.14599-45.98438-17.705078h-.004zm37.79687 200.00586c.7433.48653 1.45254 1.02618 2.20118 1.50391l-1.92969-1.3086z" fill="#6a1f7a" stroke-width="2.94451"/><path d="m751.90433 76.348487c-16.8264-26.444699-41.75101-49.931999-68.87701-64.517399 6.1155-11.47319733 6.1164-23.780697-1.0692-30.966297-3.9168-3.9168-9.3537-5.7168-15.35625-5.54085-8.77275.25875-18.74205 4.70655-26.86005 12.82455-13.6728 13.6736997-16.9542 32.574597-7.3125 42.216297 7.191 7.1892 19.5444 7.2243 31.023 1.098 14.5503 27.044999 37.9386 51.918299 64.29421 68.736602l13.5558 9.7614 1.9404 35.4645c114.1587 102.8448 228.9897 199.7226 313.56447 259.7922-58.98597-85.7646-159.29097-202.1742-259.81827-313.566303l-35.073-1.9116z" fill="#eed9f2" stroke-width="106.002"/><path d="m833.56836 8.8300781c-6.37057-.00281-12.75151.072199-19.0929.7438667-4.17485.405467-8.33031.9997852-12.45788 1.7444142-.36098.07226-1.18018.221262-1.71662.322909-18.05157 3.464246-35.34519 10.188811-51.60383 18.673858-.60119.308757-.89889.468629-1.46946.774151-7.1174 3.789854-14.09472 7.853039-20.86048 12.240801-11.13263 7.445698-20.96537 16.822054-28.93946 27.582031-.15659.224329-.67857.928072-.97461 1.337891-3.73707 5.186495-6.94736 10.724417-10.20195 16.219541-5.28161 9.072296-10.08482 18.435959-14.10078 28.139839-.15539.36974-.45425 1.11144-.66456 1.62356-6.5934 16.30562-10.907 33.60012-12.00101 51.18051-.45721 6.85162-.27488 13.72227-.38258 20.58365-.0718 10.14419-.14368 20.28839-.21552 30.43259h100.23047c.031-13.58482-.008-27.17014.0691-40.75464.023-3.85534.2686-7.72049 1.07805-11.49823 2.3887-11.62211 7.86297-22.3257 13.98431-32.38984 1.70131-2.72376 3.29275-5.5904 5.73152-7.74176 2.66426-2.56426 6.01047-4.21179 9.15497-6.09008 8.59346-4.86779 17.60038-9.23954 27.24369-11.56889 5.04536-1.23273 10.25481-1.60812 15.43636-1.56134 12.98024-.17063 25.96045-.34444 38.94068-.51632 0-33.232418 0-66.46484 0-99.6972619-12.39583.072917-24.79167.1458334-37.1875.21875z" fill="#6a1f7a" stroke-width="2.94451"/><path d="m829.13672 45.826172c-15.72851-.03067-31.33462 3.447791-45.91115 9.249376-12.35822 4.888678-24.06721 11.286989-35.31564 18.333384-10.29971 6.675909-19.02318 15.750998-25.30269 26.296632-9.33064 15.065146-17.52595 31.038036-22.2027 48.203396-2.89445 10.50265-4.36092 21.39905-4.26218 32.29569-.008 1.08478-.0155 2.16956-.0232 3.25433h26.06445c.005-5.18545.0211-10.38585.69912-15.53656 1.67655-13.98636 6.68317-27.37192 13.20386-39.78737 3.16083-5.99318 6.58634-11.85282 10.31839-17.5082 5.1187-7.45799 12.02655-13.617842 19.8567-18.117529 13.75278-8.277295 28.44895-15.44095 44.26658-18.687668 6.60267-1.386702 13.35359-1.98337 20.09625-1.953519 1.05355-.01399 2.10711-.02797 3.16067-.04196 0-8.675781 0-17.351563 0-26.027344-1.54948.0091-3.09896.01823-4.64844.02734z" fill="#eed9f2" stroke-width="106.002"/></g></g></svg>