<svg height="500" viewBox="0 0 500 500" width="500" xmlns="http://www.w3.org/2000/svg" xmlns:xlink="http://www.w3.org/1999/xlink"><filter id="a" color-interpolation-filters="sRGB" height="1.0375" width="1.0375" x="-.01875" y="-.01875"><feGaussianBlur stdDeviation="3.6253588"/></filter><g transform="translate(.000015)"><circle cx="-249.99998" cy="250" fill="#e51a1a" r="250" transform="scale(-1 1)"/><path d="m181.33938 83.856939c97.52275-31.84694 203.27597 26.159281 217.12696 131.568651 10.04116 85.89723-45.79566 162.6049-131.11288 174.6444-76.26503 6.65-147.16573-45.4981-149.44603-126.3231.16679-50.89801 30.03241-87.97493 76.60677-108.40662 44.00125-16.48183 90.46555-3.00917 112.28155 39.63622 17.95322 40.0953 3.57775 87.31302-40.4313 103.80676-21.98685 8.23292-51.6578-5.55285-56.72562-31.5612 24.48155 21.7253 69.7211 11.74379 80.1808-21.06198 5.24648-24.88185-11.48198-41.52298-24.36368-55.64156-23.21161-15.22125-63.26956-13.16738-85.32502 12.05139-41.51846 46.43224-18.48961 112.52397 35.72777 131.08081 60.66482 17.11352 118.96473-29.63961 126.96137-92.39988 2.7637-54.83226-40.99398-106.19486-96.51046-114.27807-76.21988-10.3001-138.45939 50.84936-147.743191 124.09106-9.31956 73.21828 47.315731 138.67973 111.863041 158.33924 49.05305 9.49897 98.18701 2.07129 139.64056-27.40671 82.90715-58.95602 100.11901-177.97214 43.55644-260.39974-52.71171-79.885311-158.575-103.987181-249.15842-67.061741-86.705021 39.45169-149.0660905 134.549061-117.102931 229.167621 15.77888-74.65377 50.93986-153.5943 123.407351-187.514491 9.28724-4.60517 19.44718-8.7232 30.56692-12.33106zm-160.722321 286.075591c-52.57825-113.8254-.38403-260.89182 113.777041-317.643861 10.84604-5.32012 22.21219-9.7712 34.03518-13.36069 115.76394-28.75816 246.03978 34.00351 263.68455 158.897471 10.04526 85.91695-27.72044 168.80365-107.97396 206.83173-102.24035 46.26108-224.798841-11.43986-234.690511-131.24969-7.33455-123.78718 127.307171-194.136761 222.718561-137.24102-42.54074-27.89653-94.21826-33.44528-140.80825-12.98978-71.17376 32.62266-105.080851 118.0397-80.762351 190.63139 30.697281 88.13423 123.572931 132.04164 212.817841 105.59803 82.80488-25.06359 132.16266-100.33164 140.19255-180.04986 12.12434-145.020371-132.23823-245.3588802-265.59709-221.973611 7.92036-4.10499 20.5989-8.4277792 35.61563-11.7452592 60.06317-13.23825 124.63426-3.45807 179.45368 32.4903392 109.65077 71.904621 141.09454 217.803071 65.16008 333.599141-143.00482 218.07486-377.311781 117.06797-437.622951-1.79433" fill="#b21a1a"/></g><path d="m250.50306 18.000905c-59.72251-.165729-119.50449 22.505995-165.010462 68.013219-77.8677714 77.868246-88.0844128 197.005926-32.206792 286.642876-20.595112-57.12385-4.942593-133.0053 42.772438-199.37975-26.188919 52.91044-23.190217 116.51722 8.486246 167.32777-15.668116-43.45706-3.01235-101.57236 34.60985-151.65956-21.66162 39.77495-20.18957 88.71375 4.00184 127.51772-13.60529-37.73746 1.79571-90.49094 42.15339-130.84985 42.77342-42.77269 99.67563-57.8979 137.65755-39.73985-38.91293-27.2634-89.80798-30.08956-131.22925-8.50483 52.81555-38.091336 113.89118-49.071366 157.01555-28.46053-51.01107-35.733115-117.17942-40.554854-172.30542-14.489586 70.02689-48.309995 149.80053-61.699921 206.54579-34.578862-39.63238-27.764478-86.04499-41.708134-132.49171-41.838767zm132.49268 41.839742.008.0058v-.0019c-.003 0-.005-.0029-.008-.0039zm-34.24232 49.067473c0 .002.004.004.007.005v-.002c-.003 0-.005-.003-.008-.004zm91.41554 8.10609c27.12869 56.74755 13.73982 136.52948-34.57865 206.56362 26.06803-55.12731 21.25217-121.29899-14.48463-172.31329 20.61266 43.12658 9.62977 104.2094-28.46621 157.0282 21.5885-41.42054 18.7643-92.32078-8.49502-131.2359 18.15209 37.98119 3.02892 94.88179-39.74352 137.65254-40.35963 40.35988-93.11279 55.75902-130.851 42.1517 38.80959 24.19351 87.76076 25.66459 127.53839 3.99309-50.09176 37.63218-108.21451 50.29387-151.67813 34.62079 50.8083 31.67373 114.41469 34.67635 167.32383 8.49117-66.37405 47.71337-142.25309 63.36404-199.37269 42.76782 89.63641 55.87796 208.77531 45.66126 286.64113-32.20699 80.90157-80.90108 89.63739-206.91944 26.16748-297.51275zm-86.02354 60.04166-.004-.007h-.002zm36.96124-25.7923-.004-.007h-.002z" fill="#e51a1a" filter="url(#a)"/><path d="m250.50306 18.000905c-59.72251-.165729-119.50449 22.505995-165.010462 68.013219-77.8677714 77.868246-88.0844128 197.005926-32.206792 286.642876-20.595112-57.12385-4.942593-133.0053 42.772438-199.37975-26.188919 52.91044-23.190217 116.51722 8.486246 167.32777-15.668116-43.45706-3.01235-101.57236 34.60985-151.65956-21.66162 39.77495-20.18957 88.71375 4.00184 127.51772-13.60529-37.73746 1.79571-90.49094 42.15339-130.84985 42.77342-42.77269 99.67563-57.8979 137.65755-39.73985-38.91293-27.2634-89.80798-30.08956-131.22925-8.50483 52.81555-38.091336 113.89118-49.071366 157.01555-28.46053-51.01107-35.733115-117.17942-40.554854-172.30542-14.489586 70.02689-48.309995 149.80053-61.699921 206.54579-34.578862-39.63238-27.764478-86.04499-41.708134-132.49171-41.838767zm132.49268 41.839742.008.0058v-.0019c-.003 0-.005-.0029-.008-.0039zm-34.24232 49.067473c0 .002.004.004.007.005v-.002c-.003 0-.005-.003-.008-.004zm91.41554 8.10609c27.12869 56.74755 13.73982 136.52948-34.57865 206.56362 26.06803-55.12731 21.25217-121.29899-14.48463-172.31329 20.61266 43.12658 9.62977 104.2094-28.46621 157.0282 21.5885-41.42054 18.7643-92.32078-8.49502-131.2359 18.15209 37.98119 3.02892 94.88179-39.74352 137.65254-40.35963 40.35988-93.11279 55.75902-130.851 42.1517 38.80959 24.19351 87.76076 25.66459 127.53839 3.99309-50.09176 37.63218-108.21451 50.29387-151.67813 34.62079 50.8083 31.67373 114.41469 34.67635 167.32383 8.49117-66.37405 47.71337-142.25309 63.36404-199.37269 42.76782 89.63641 55.87796 208.77531 45.66126 286.64113-32.20699 80.90157-80.90108 89.63739-206.91944 26.16748-297.51275zm-86.02354 60.04166-.004-.007h-.002zm36.96124-25.7923-.004-.007h-.002z" fill="#ff8066" opacity=".75"/><path d="m128.03711 178.45117c-19.57112 22.38942-36.873698 46.7756-52.382814 75.16602l-7.591796 81.45312 79.21875-33.4707-2.61914-30.36719c91.79045 83.79341 202.35124 156.08899 309.65234 207.06445l45.68555 21.70313-21.70117-45.68555c-50.4803-106.26756-122.83276-217.06229-206.42188-308.84961l29.03907 2.47266 23.61914-55.443359v-23.25586l-19.50977 1.642578-52.14258 5.333985c-28.20978 17.110733-52.9047 34.711816-75.67773 54.039066-20.18117-30.477134-46.12023-55.098998-77.529299-71.644535l-1.429687-8.539063c-3.440497-20.540436-21.574907-36.205078-42.869141-36.205078-23.756213 0-43.478515 19.728497-43.478515 43.482422-.000001 21.274852 15.632181 39.402716 36.156249 42.865234l9.245118 1.45801c15.748952 33.56285 40.785176 58.3558 70.737305 76.78027z" fill="#861313"/><path d="m55.377866 31.865953c-14.157 0-25.479 11.3247-25.479 25.4817 0 12.6774 9.0828 23.0796 21.15 25.1154l3.5703-3.5721 23.5107-23.4846 2.3634-2.3625c-2.0232-12.0789-12.4254-21.1779-25.1154-21.1779zm30.348 39.7125-15.3 15.3c14.2965 35.432997 39.105004 60.015597 70.875004 78.665397 7.3503-7.7265 14.985-15.2082 22.8942-22.4424-20.2392-31.5927-46.3815-56.064597-78.469204-71.522997zm220.809604 17.2395-46.125 3.8826c-71.4204 43.320597-129.4902 97.289997-168.048004 167.876997l-3.879 46.323 39.739504-16.7904-2.646-30.6846-.225-2.7567 1.4634-2.3616c32.346-52.623 71.937-98.469 127.35-127.125l2.1654-1.125 2.4192.225 30.7125 2.6154 17.073-40.076997zm-56.1942 59.738397c-9.0072 5.2974-17.55 11.1042-25.7058 17.3817 42.0192 43.137 78.4872 97.7292 103.248 149.85l10.1232 21.3453-21.3462-10.152c-52.1955-24.7986-106.1262-60.813-149.1192-102.5163-6.4395 8.4636-12.6252 17.2566-18.5625 26.352 91.7262 85.419 204.345 159.5736 313.0605 211.221-51.3567-108.1125-126.0342-221.562-211.698-313.4826zm-38.727 28.098c-12.033 10.5327-23.148 22.122-33.5538 34.5924 35.424 34.6068 79.2765 65.547 123.0183 88.9596-23.4486-43.7697-54.6786-88.0623-89.4645-123.552z" fill="#ff8066" stroke-width="36"/></svg>