<svg height="500.00003" viewBox="0 0 500 500.00003" width="500" xmlns="http://www.w3.org/2000/svg" xmlns:xlink="http://www.w3.org/1999/xlink"><filter id="a" color-interpolation-filters="sRGB" height="1.091428" width="1.101053" x="-.050527" y="-.045714"><feGaussianBlur stdDeviation="8.7244104"/></filter><g transform="translate(-500)"><path d="m926.7767 73.223311c45.24113 45.241099 73.2233 107.741109 73.2233 176.776699 0 69.0356-27.98221 131.53559-73.2233 176.77669-45.2411 45.2411-107.74109 73.22332-176.77669 73.22332-69.03559 0-131.5356-27.98219-176.7767-73.22332-45.2411-45.2411-73.22331-107.74109-73.22331-176.77669 0-69.03559 27.9822-131.5356 73.22331-176.776699 45.2411-45.241105 107.74111-73.22330934 176.7767-73.22330934 69.0356 0 131.53559 27.98220534 176.77669 73.22330934z" fill="#3b2f4f"/><g clip-rule="evenodd"><path d="m730.6486 0c-128.19182 22.346591-234.17086 139.43202-223.06447 273.24395 5.6201 44.55936 16.72649 83.63245 44.55937 122.70552l50.17947 50.17947c33.45298 22.34661 72.52606 44.55938 111.46533 50.17946 39.07308 5.62012 78.01235 5.62012 111.46534-5.62008 39.07308-16.72649 72.52607-33.45297 100.35893-61.28587 33.45297-39.07306 55.79958-83.63245 66.90595-139.43201v-61.28587c-5.62008-27.83287-11.10637-50.17947-22.34657-78.01235-11.10641-22.34659-27.8329-44.55937-50.17947-61.285858-27.83289-27.832879-61.28586-44.559368-100.35895-55.799569-27.83288-5.620101-55.79957-11.10639-89.25255-5.620101-78.01235 11.106391-139.43202 61.28586-172.885 128.191818-11.10639 27.83288-16.72649 61.28586-22.34659 89.25255 0 33.45298 5.6201 66.90596 16.72649 94.73885 22.34659 44.55936 55.79957 89.25254 105.97904 111.46532 16.72649 5.62012 33.45298 11.1064 55.79957 16.72648 122.70553 22.34661 234.17085-55.79954 250.89734-178.37127 11.10641-78.01236-22.34657-139.43203-72.52604-189.6115-100.35895-89.25255-267.62385-44.559369-312.18322 78.01235-5.6201 27.83288-16.72649 55.79958-16.72649 83.63245 5.6201 78.01235 55.79957 150.53843 133.81192 172.885 61.28586 16.72649 122.70553 5.62012 172.885-33.45298 11.10639-11.10637 22.34659-22.34657 33.45299-33.45297 61.28584-83.63246 44.55935-195.09778-44.55937-256.51746-27.83288-16.726488-55.79958-22.346588-89.25256-27.832879-22.34659-5.620101-44.55937 5.620101-66.90596 11.106391-27.83288 16.726488-50.17947 22.346588-72.52606 50.179468-27.83288 33.45298-33.45298 66.90596-39.07308 105.97904 0 55.79958 27.83288 117.08544 83.63245 144.91833 78.01235 44.55934 183.99139 11.10637 223.06447-72.52607 22.3466-55.79958 11.1064-128.19183-39.07308-172.88501-33.45298-27.83288-66.90596-39.07308-111.46533-39.07308-66.90596 5.6201-111.46533 55.79957-122.70553 122.70553-11.10639 72.52606 33.45298 139.43202 105.97904 150.53843 100.35894 16.72649 183.99138-89.25257 139.43202-178.37131-11.10638-16.72649-27.83288-39.07308-50.17947-50.17947-27.83288-11.10639-55.79957-16.72649-83.63245-11.10639-33.45298 5.6201-55.79957 27.83288-72.52606 50.17947-16.72649 27.83288-16.72649 55.79957-11.10639 83.63245 11.10639 33.45298 39.07308 61.28586 72.52606 72.52607 44.55937 16.72649 89.25255-5.62011 111.46533-39.07309 33.45298-55.79957 5.6201-117.08543-50.17947-139.43202-50.17947-16.72649-122.70553 27.83288-105.97904 89.25255 5.6201 16.72649 11.10639 39.07309 27.83288 50.17947 22.34659 16.7265 50.17947 16.7265 72.52606 11.1064 22.34659-11.1064 39.07308-33.45299 39.07308-61.28587-5.6201-16.72649-5.6201-39.07308-22.34659-50.17947-13.91644-8.36324-29.2379-11.13984-43.17107-8.34651-13.93317 2.79332-26.47803 11.15656-34.84128 25.073-5.6201 16.72649-11.10639 33.45298 9.50065 44.827 41.74932-49.10898 35.32635.40143 29.84006-16.45887v5.6201c16.72649-5.6201 22.34659-22.34659 27.83288-33.45298 5.6201 5.6201 16.72649 11.10639 16.72649 22.34659 11.10639 39.07308-27.83288 72.52606-66.90596 61.28586-33.45298-11.10639-44.55937-50.17947-39.07309-83.63245 5.62011-22.34659 22.3466-39.07308 50.17948-44.55937 33.45298-5.6201 66.90596 11.10639 83.63245 39.07308 16.72649 27.83288 16.72649 50.17947 0 78.01235-33.45298 55.79958-105.97905 55.79958-150.53841 11.10639-33.45298-44.55937-22.3466-117.08543 27.83288-144.91831 16.72648-11.10639 39.07308-16.72649 61.28586-16.72649 11.10638 0 27.83288 5.6201 39.07308 11.10639 27.83288 11.10639 39.07308 39.07308 55.79957 61.28586 5.6201 16.72649 5.6201 27.83288 5.6201 44.55937-5.6201 72.52606-72.52606 122.70554-144.91831 105.97904-83.63246-22.34659-122.70554-122.70553-72.52606-195.09778 11.10638-16.72649 22.34659-27.83288 39.07308-39.07308 78.01235-44.559372 167.2649-5.6201 200.71788 66.90596 39.07309 94.73884-39.07308 206.33797-139.43202 200.71788-27.83288-5.62012-55.79958-5.62012-78.01235-22.3466-22.34659-11.10638-27.83288-27.83287-39.07309-39.07307-66.90596-78.01235-33.45298-195.09778 55.79958-239.79097 39.07308-16.726484 83.63245-16.726484 128.19182-5.6201 94.73883 33.45298 139.43201 144.91832 94.73883 234.17087-11.10637 27.83288-33.45297 44.55935-55.79956 66.90596-22.34659 16.72649-50.17947 27.83289-78.01235 33.45298-44.55937 5.62012-89.25256-5.62009-128.19182-27.83286-94.73884-66.90598-117.08544-211.82429-22.3466-289.97045 16.7265-11.1064 27.83288-33.452984 50.17948-39.073085 33.45298-11.106392 66.90596-22.346593 105.97904-16.726492 27.83288 5.6201 55.79957 16.726492 78.01235 27.832879 16.72649 16.726488 39.07309 22.346598 50.17946 44.559368 11.10641 16.72649 27.8329 33.45298 33.45298 55.79957 22.34661 66.90596 16.72649 139.43203-27.83286 195.09781-16.72649 22.34657-33.45298 44.55934-61.28587 55.79954-22.34659 5.62012-39.07308 22.34661-61.28586 22.34661-39.07308 0-83.63245 5.62008-122.70553-11.10641-117.08543-44.55934-167.26491-195.09777-105.97905-306.69691 16.7265-33.45298 44.55937-61.285864 78.01236-83.632457 44.55936-22.34659 89.25255-33.452979 139.43202-27.832879 61.28586 5.6201 111.46532 39.07308 156.1585 83.632456 22.34661 22.34659 27.8329 50.17947 39.0731 78.01234 11.10637 16.7265 5.62008 39.07309 11.10637 61.28586 11.10645 172.88502-195.09777 301.07685-351.25629 211.82429-27.83287-16.72649-50.17946-27.8329-66.90596-50.17947-61.28586-72.52608-78.01235-167.26492-50.17947-256.51747 16.72649-33.45298 39.07309-61.28586 61.28587-89.252546 39.07308-39.073083 94.73884-55.799574 144.9183-72.526064" fill="#221b35" opacity=".9"/><path d="m731.45148 15.388371c-120.56454 21.008472-220.12061 131.001869-209.68329 256.785079 5.21867 41.88313 15.78981 78.68141 41.88314 115.34586 15.7898 15.65602 31.4458 31.44582 47.23561 47.1018 31.4458 21.0085 68.11026 41.88314 104.77473 47.23563 36.66447 5.21866 73.32893 5.21866 104.77473-5.21866 36.66447-15.65601 68.11026-31.44582 94.33742-57.67295 31.44579-36.66448 52.45425-78.68141 62.89161-131.00187v-57.67294c-5.2187-26.22714-10.43736-47.23561-21.00851-73.32894-10.43731-21.00847-26.22712-41.88313-47.10179-57.672935-26.22713-26.227136-57.67292-41.88313-94.33739-52.454272-26.22714-5.218666-52.45427-10.43733-83.90008-5.218666-73.32893 10.437332-131.00187 57.672938-162.44767 120.564543-10.43733 26.22713-15.78981 57.67294-21.00847 83.90008 0 31.44579 5.21866 62.8916 15.78981 89.11874 21.00847 41.88313 52.45427 83.90006 99.55607 104.77473 15.7898 5.21866 31.4458 10.43732 52.45427 15.65601 115.34588 21.00847 220.12062-52.45428 235.91043-167.66635 10.43732-73.32894-21.00847-131.00188-68.11026-178.23748-94.33742-83.900079-251.56643-41.883137-293.44956 73.32893-5.21867 26.22713-15.78981 52.45427-15.78981 78.68141 5.21866 73.32893 52.45427 141.573 125.78321 162.44767 57.67293 15.78981 115.34587 5.21866 162.44767-31.44578 10.43733-10.43736 21.00849-21.00849 31.4458-31.44582 57.67295-78.68141 41.88314-183.45615-41.88313-241.12909-26.22714-15.7898-52.45428-21.008465-83.90008-26.227131-21.00847-5.218666-41.88313 5.218666-62.8916 10.437331-26.22714 15.7898-47.23561 21.00847-68.11027 47.1018-26.22713 31.4458-31.4458 62.8916-36.66447 99.55606 0 52.45428 26.22714 110.12722 78.68142 136.22052 73.32893 41.88314 173.01881 10.43736 209.68327-68.11025 21.00847-52.45427 10.43736-120.56454-36.66446-162.44767-31.4458-26.22714-62.8916-36.66447-104.77473-36.66447-62.89161 5.21867-104.77474 52.45428-115.34588 115.34588-10.43733 68.11027 31.4458 131.00187 99.55607 141.57302 94.3374 15.65599 173.01881-83.90008 131.00187-167.66635-10.43733-15.7898-26.22714-36.66446-47.1018-47.2356-26.22713-10.43733-52.45427-15.656-78.68141-10.43733-31.4458 5.21866-52.45427 26.22713-68.11027 47.23561-15.7898 26.22713-15.7898 52.45427-10.43732 78.6814 10.43732 31.44581 36.66446 57.67295 68.11026 68.11027 41.88314 15.78981 83.90008-5.21866 104.77474-36.66446 31.4458-52.45428 5.21866-110.12721-47.1018-131.00187-47.23561-15.78981-115.34588 26.22713-99.55607 83.90007 5.21867 15.65599 10.43733 36.66447 26.22714 47.23561 21.00847 15.78981 47.10179 15.78981 68.11027 10.43733 21.00847-10.43733 36.66446-31.4458 36.66446-57.67294-5.21866-15.7898-5.21866-36.66447-21.00847-47.23561-13.11356-7.8949-27.5318-10.50423-40.62864-7.86145-13.09684 2.64279-24.87229 10.53769-32.70029 23.65126-5.21867 15.656-10.43733 31.4458 8.9654 42.15076 39.20689-46.70036 33.05154-.26763 27.96669-16.05744v5.21867c15.78981-5.21867 21.00847-21.00847 26.22714-31.4458 5.21866 5.21866 15.65599 10.43733 15.65599 21.00847 10.43733 36.66447-26.22714 68.11027-62.8916 57.67294-31.4458-10.43733-41.88313-47.23561-36.66447-78.68141 5.21867-21.00848 21.00847-36.66447 47.1018-41.88314 31.4458-5.21866 62.8916 10.43734 78.68141 36.66447 15.65599 26.22714 15.65599 47.23561 0 73.32893-31.4458 52.45428-99.55607 52.45428-141.57302 10.43734-31.4458-41.88313-21.00847-110.12722 26.22714-136.22054 15.78981-10.43733 36.66447-15.656 57.67294-15.656 10.43733 0 26.22714 5.21867 36.66447 10.43733 26.22713 10.43733 36.66446 36.66447 52.45427 57.67294 5.21866 15.78981 5.21866 26.22714 5.21866 41.88314-5.21866 68.11026-68.11026 115.34586-136.22053 99.55606-78.68141-21.00847-115.34588-115.34587-68.11027-183.45614 10.43733-15.656 21.00847-26.22714 36.66447-36.66447 73.32893-41.88313 157.22901-5.21866 188.67481 62.8916 36.66448 89.11874-36.66447 193.89349-131.00188 188.67483-26.22713-5.21866-52.45427-5.21866-73.32893-21.00848-21.00847-10.43734-26.22713-26.22714-36.66447-36.66447-62.8916-73.32893-31.4458-183.45615 52.45428-225.33928 36.66446-15.789805 78.68141-15.789805 120.56454-5.21866 89.11872 31.4458 131.00186 136.22053 89.11872 220.12061-10.43731 26.22714-31.44578 41.88313-52.45425 62.89162-21.00847 15.78977-47.23561 26.22712-73.32894 31.44578-41.88313 5.21866-83.90007-5.21866-120.56454-26.22712-89.11874-62.89162-110.12721-199.11215-21.00847-272.5749 15.656-10.43733 26.22714-31.445801 47.1018-36.664467 31.4458-10.437328 62.8916-21.00847 99.55607-15.655994 26.22713 5.218666 52.45427 15.655994 73.32893 26.227136 15.65599 15.789805 36.66446 21.008475 47.10181 41.883135 10.43732 15.7898 26.22713 31.4458 31.44578 52.45427 21.00847 62.8916 15.78981 131.00187-26.22712 183.45615-15.78981 21.00846-31.44582 41.88313-57.67295 52.45428-21.00847 5.21866-36.66446 21.00847-57.67294 21.00847-36.66446 0-78.68141 5.21866-115.34587-10.43735-110.12721-41.8831-157.22901-183.45614-99.55607-288.23087 15.7898-31.4458 41.88313-57.672937 73.32893-78.681407 41.88313-21.008474 83.90008-31.445802 131.00187-26.22714 57.67294 5.218666 104.77473 36.664468 146.79166 78.681417 21.00851 21.00847 26.22717 47.10179 36.66448 73.32893 10.43732 15.78981 5.21866 36.66446 10.43732 57.67293 10.43735 162.44767-183.45613 283.01222-330.24781 199.11215-26.22713-15.65601-47.23561-26.22713-62.8916-47.23563-57.67294-68.11025-73.32893-157.22899-47.23561-241.12907 15.78981-31.4458 36.66447-57.67293 57.67294-83.900069 36.66447-36.664468 89.11874-52.454275 136.22054-68.11027" opacity=".9"/></g></g><g stroke-linecap="round" stroke-linejoin="round"><path d="m246.60742 21.140625c-7.32301-.78566-15.84762 2.501237-20.9082 7.501953s-7.68394 10.787762-9.58789 17.115234a18.0018 18.0018 0 0 0 -.74219 4.308594c-.76632 15.709597.43545 19.617672 1.18555 31.119141a18.0018 18.0018 0 0 0 2.61718 6.929687 18.0018 18.0018 0 0 0 -3.77734 14.458986c3.69734 15.40864 6.64991 26.83161 1.57813 39.63476a18.0018 18.0018 0 0 0 2.16601 15.94727 18.0018 18.0018 0 0 0 -3.48828 13.50586c4.73194 25.42255 9.94085 47.35915 3.96875 70.28906a18.0018 18.0018 0 0 0 2.52539 13.40039c-1.42564 1.54117-2.89644 3.06217-4.07031 4.73438a18.0018 18.0018 0 0 0 -3.02539 9.99609c-.47098-.37679-.98724-.69001-1.4668-1.05664a18.0018 18.0018 0 0 0 .63086-13.52539c-8.82709-23.67641-12.74101-47.79327-12.99609-75.59766a18.0018 18.0018 0 0 0 -6.37305-12.67578 18.0018 18.0018 0 0 0 .082-12.41797c-5.29924-14.0318-6.69709-28.2076-4.72851-44.5625a18.0018 18.0018 0 0 0 -3.97461-13.482418 18.0018 18.0018 0 0 0 1.21484-6.716797c-.30688-9.410984-1.23247-17.234502-3.97461-24.699219a18.0018 18.0018 0 0 0 -1.6875-3.419922c-5.58782-8.827502-12.55458-18.061364-27.16211-19.18164-7.30376-.560139-15.6196 2.885578-20.56445 7.9375s-7.51207 10.866785-9.34766 17.234375a18.0018 18.0018 0 0 0 -.70312 4.833984c-.0964 11.371416.71899 17.451031 1.50976 23.337891a18.0018 18.0018 0 0 0 3.48633 7.580076 18.0018 18.0018 0 0 0 3.62305 20.46875c-1.79658-1.74213-.70204-1.36642-.3418 1.88086s.23184 8.40101-.2168 13.73828-1.16035 10.7934-1.49609 16.10156c-.16787 2.65409-.31097 5.20538.0684 8.5918.31021 2.76936.47034 7.39035 5.05664 12.26758a18.0018 18.0018 0 0 0 -1.58398 15.20117c10.43569 27.17954 11.34744 50.23662 12.93554 75.82422-10.34315-16.82305-16.57399-34.38534-20.11914-55.23437a18.0018 18.0018 0 0 0 -4.44531-9.10547 18.0018 18.0018 0 0 0 -.8125-12.8086c-5.68444-11.93214-8.36438-24.58059-8.60156-39.52343a18.0018 18.0018 0 0 0 -5.17774-11.56836 18.0018 18.0018 0 0 0 .47461-8.50196c-1.7944-9.23132-4.07836-16.74183-7.77539-23.39648a18.0018 18.0018 0 0 0 -.43555-.74219c-7.025117-11.331297-20.754557-19.553428-34.351568-16.158202s-21.637307 16.355822-22.892578 29.201172a18.0018 18.0018 0 0 0 .138672 4.57617c1.627689 10.24487 3.198246 15.99186 4.783203 21.21289a18.0018 18.0018 0 0 0 4.412109 6.52735 18.0018 18.0018 0 0 0 .09375 13.48437c6.333278 13.59792 11.291759 23.9397 10.027344 35.86133a18.0018 18.0018 0 0 0 5.054687 13.53516 18.0018 18.0018 0 0 0 -.0293 15.44531c10.902247 20.22325 20.942334 50.46314 21.222657 57.51367a18.0018 18.0018 0 0 0 7.78125 13.23242c-.674486 1.86857-1.444166 3.71895-1.859375 5.62891a18.0018 18.0018 0 0 0 1.660156 12.20508c12.020293 22.84772 24.294253 44.17154 32.597663 66.83984a18.0018 18.0018 0 0 0 4.59961 5.76562c-1.60319 2.59636-3.05992 5.30042-4.24805 8.18165a18.0018 18.0018 0 0 0 -1.33594 5.93164c-1.04572 20.21718 6.1853 37.15551 14.54297 51.60937a18.0018 18.0018 0 0 0 1.48047 2.17578c12.51113 15.7749 33.37273 16.64191 53.11719 5.47071a18.0018 18.0018 0 0 0 1.89648-1.3086c1.36997 1.01364 2.73146 2.0691 4.14453 2.88477 8.31462 4.79946 17.15861 6.88426 25.69727 7.46679s16.78009-.26616 24.6875-3.22851c1.92713-.72196 3.96799-1.64618 5.98633-2.78711.0923.0949.18357.24393.27539.33398 3.47543 3.40848 6.71995 4.97228 9.85351 6.25196 6.26712 2.55934 12.58879 3.62045 19.55078 4.08789 13.924.93487 30.0061-.37057 44.50782-9.58594a18.0018 18.0018 0 0 0 8.30664-13.99414c.6419-9.62853 2.47114-23.2593-2.35157-38.00195a18.0018 18.0018 0 0 0 4.39453-2.39258c15.75746-16.65092 33.83757-29.02732 56.66407-39.72461a18.0018 18.0018 0 0 0 10.3457-17.09766c-.0562-1.26441-.26439-2.52882-.4082-3.79492a18.0018 18.0018 0 0 0 11.04492-10.48242c5.92604-18.02165 14.84328-34.82804 27.20312-51.98047a18.0018 18.0018 0 0 0 1.22266-18.99414 18.0018 18.0018 0 0 0 5.26758-9.17383c1.7425-9.02003 2.5985-16.73963 1.50976-24.67187a18.0018 18.0018 0 0 0 -.0566-.38477c-1.96284-12.31856-8.23458-25.62772-23.28515-29.17773-7.52529-1.77501-15.70462.35056-21.44727 4.20703s-9.75583 9.0243-13.03711 15.00781a18.0018 18.0018 0 0 0 -1.71289 4.42187c-1.47552 6.09882-2.22723 10.47072-2.76562 13.61133a18.0018 18.0018 0 0 0 .58398 5.58985 18.0018 18.0018 0 0 0 -7.11133 9.13476c-5.30455 17.77491-9.53938 34.00123-18.1289 47.32227a18.0018 18.0018 0 0 0 -2.23828 7.22851 18.0018 18.0018 0 0 0 -6.94141 4.79493c-11.8955 15.09608-23.51288 23.74271-36.48828 30.28515 4.86961-16.62144 10.71607-33.2904 17.85937-50.62695a18.0018 18.0018 0 0 0 .44141-12.49219c.0356-.0145.0838-.0264.11914-.041a18.0018 18.0018 0 0 0 11.13867-17.1504c-.73442-26.03124 4.24664-49.59403 14.9375-75.52148a18.0018 18.0018 0 0 0 -.9414-15.65625 18.0018 18.0018 0 0 0 4.00976-10.45117c.14803-13.76652 3.59575-26.82847 10.4668-40.72852a18.0018 18.0018 0 0 0 1.04101-13.30859 18.0018 18.0018 0 0 0 4.20508-6.29883c3.33524-11.117438 5.19678-20.443034 4.5918-29.820311a18.0018 18.0018 0 0 0 -.28906-2.25c-2.20966-11.455664-8.05544-23.468697-21.88672-27.695313-6.91564-2.113308-14.99326-.936687-20.98438 2.330078s-10.32162 8.026738-13.86914 13.525391a18.0018 18.0018 0 0 0 -2.08008 4.474609c-3.7453 12.196258-4.42864 17.983258-5.52734 24.998047a18.0018 18.0018 0 0 0 .92969 6.816409 18.0018 18.0018 0 0 0 -6.80078 12.38281c-.6535 15.68399-.88629 27.50964-8.51368 38.12695a18.0018 18.0018 0 0 0 -2.24414 14.52735 18.0018 18.0018 0 0 0 -8.02148 17.78125c1.81634 9.57182-.92191 21.86435-5.51758 35.24804-3.40913 9.92822-8.00844 19.77132-10.22656 31.01563a18.0018 18.0018 0 0 0 -.0762-2.7168c-5.85441-24.9843-6.56917-49.6281-3.00196-77.48633a18.0018 18.0018 0 0 0 -6.03515-15.85156 18.0018 18.0018 0 0 0 .75-11.0957c-3.51506-13.6115-3.66505-27.08227-.73828-42.4043a18.0018 18.0018 0 0 0 -2.70118-13.253905 18.0018 18.0018 0 0 0 2.33008-6.019531c1.19452-14.533237.8834-25.951482-2.41015-36.28125a18.0018 18.0018 0 0 0 -1.71289-3.792969c-5.45128-9.087527-12.10008-18.522431-26.7461-20.09375zm82.04883 122.835935c-.52339 0 .20984.01-.16797.0137-.0648.001-.12661-.0111-.19141-.01zm-42.74023 113.59961c-.13731 1.59785-.26294 3.2013-.27735 4.86524a18.0018 18.0018 0 0 0 1.33594 4.72656c-1.02157.65351-1.98198 1.35855-2.93555 2.08008a18.0018 18.0018 0 0 0 -1.54492-5.94141 18.0018 18.0018 0 0 0 3.42188-5.73047zm-135.6504 22.04102a18.0018 18.0018 0 0 0 4.54883 4.21289 18.0018 18.0018 0 0 0 -.13086 1.32031 18.0018 18.0018 0 0 0 -3.87695-3.03516c-.31326-.1511-.65475-.24939-.9707-.39648a18.0018 18.0018 0 0 0 .42968-2.10156zm125.0586 105.02539.0605.0918c-.0102-.0155-.023-.0294-.0332-.0449-.0101-.0152-.0172-.0316-.0273-.0469zm8.40039 15.66406c6.7574 4.08443 16.02848 15.08512 21.16211 26.85352 1.2012 3.10993 1.45307 8.38041 1.39453 14.36718-4.62259 1.02673-10.10441 1.67524-14.83789 1.35743-.26314-.0177-.44128-.073-.69922-.0957.68512-6.81699.78446-14.05294-.34961-21.72461a18.0018 18.0018 0 0 0 -.27148-1.42578c-1.46878-6.34513-3.60664-12.87673-6.39844-19.33203zm-55.52539 9.36133c.78515.7231 2.21115 2.30714 4.01172 4.47461 5.03044 7.89011 7.22401 15.01714 6.49804 23.49804-1.98898.42681-4.62527.78948-7.58007.5879-3.99383-.27247-7.94065-1.45103-10.15039-2.72657-2.20975-1.27553-2.52455-1.8788-2.81641-2.89843a18.0018 18.0018 0 0 0 -.26367-.83985c-2.63237-7.74227-2.59276-10.99437-2.31055-12.11328.26864-1.0651 1.25808-3.2674 7.16016-7.94531 1.22331-.71243 3.49036-1.52828 5.45117-2.03711zm-44.64649 32.84375c.006.0202.0176.0365.0234.0566.0865.2586.15055.52516.23828.7832zm89.96094 6.85937-.0273.14453c.007-.0334.007-.0662.0137-.0996.003-.016.0105-.0289.0137-.0449z" fill="#775fa0" filter="url(#a)"/><path d="m246.60742 21.140625c-7.32301-.78566-15.84762 2.501237-20.9082 7.501953s-7.68394 10.787762-9.58789 17.115234c-.42153 1.40071-.67076 2.847576-.74219 4.308594-.76632 15.709597.43545 19.617672 1.18555 31.119141.38258 2.466348 1.27384 4.826195 2.61718 6.929687-3.29466 4.044677-4.67273 9.319677-3.77734 14.458986 3.69734 15.40864 6.64991 26.83161 1.57813 39.63476-1.82662 5.36054-1.02423 11.26814 2.16601 15.94727-2.9306 3.8502-4.18787 8.71806-3.48828 13.50586 4.73194 25.42255 9.94085 47.35915 3.96875 70.28906-.94802 4.62514-.0411 9.43758 2.52539 13.40039-1.42564 1.54117-2.89644 3.06217-4.07031 4.73438-1.97409 2.95986-3.02687 6.43831-3.02539 9.99609-.47098-.37679-.98724-.69001-1.4668-1.05664 1.96241-4.25457 2.18872-9.10662.63086-13.52539-8.82709-23.67641-12.74101-47.79327-12.99609-75.59766-.29955-4.91953-2.60305-9.5011-6.37305-12.67578 1.49938-3.99857 1.52845-8.39995.082-12.41797-5.29924-14.0318-6.69709-28.2076-4.72851-44.5625.55691-4.84706-.87744-9.71258-3.97461-13.482418.8296-2.140969 1.24195-4.420878 1.21484-6.716797-.30688-9.410984-1.23247-17.234502-3.97461-24.699219-.43982-1.196508-1.0055-2.342913-1.6875-3.419922-5.58782-8.827502-12.55458-18.061364-27.16211-19.18164-7.30376-.560139-15.6196 2.885578-20.56445 7.9375s-7.51207 10.866785-9.34766 17.234375c-.45292 1.571897-.68947 3.198194-.70312 4.833984-.0964 11.371416.71899 17.451031 1.50976 23.337891.55247 2.764848 1.74665 5.361266 3.48633 7.580076-3.25154 6.90135-1.79984 15.10281 3.62305 20.46875-1.79658-1.74213-.70204-1.36642-.3418 1.88086s.23184 8.40101-.2168 13.73828-1.16035 10.7934-1.49609 16.10156c-.16787 2.65409-.31097 5.20538.0684 8.5918.31021 2.76936.47034 7.39035 5.05664 12.26758-2.7595 4.58031-3.33991 10.15035-1.58398 15.20117 10.43569 27.17954 11.34744 50.23662 12.93554 75.82422-10.34315-16.82305-16.57399-34.38534-20.11914-55.23437-.57939-3.39817-2.12229-6.55854-4.44531-9.10547 1.31203-4.22435 1.0228-8.7839-.8125-12.8086-5.68444-11.93214-8.36438-24.58059-8.60156-39.52343-.26651-4.35628-2.10655-8.46739-5.17774-11.56836.83584-2.75525.99859-5.6708.47461-8.50196-1.7944-9.23132-4.07836-16.74183-7.77539-23.39648-.13925-.25083-.28447-.4983-.43555-.74219-7.025117-11.331297-20.754557-19.553428-34.351568-16.158202s-21.637307 16.355822-22.892578 29.201172c-.148726 1.52508-.102125 3.0629.138672 4.57617 1.627689 10.24487 3.198246 15.99186 4.783203 21.21289.970696 2.47487 2.477481 4.70404 4.412109 6.52735-1.71698 4.33717-1.683369 9.17149.09375 13.48437 6.333278 13.59792 11.291759 23.9397 10.027344 35.86133-.278997 5.0196 1.553732 9.92718 5.054687 13.53516-2.330125 4.88248-2.340884 10.55402-.0293 15.44531 10.902247 20.22325 20.942334 50.46314 21.222657 57.51367.48889 5.35106 3.34262 10.20398 7.78125 13.23242-.674486 1.86857-1.444166 3.71895-1.859375 5.62891-.89899 4.13701-.311173 8.4585 1.660156 12.20508 12.020293 22.84772 24.294253 44.17154 32.597663 66.83984 1.11884 2.21873 2.68491 4.1818 4.59961 5.76562-1.60319 2.59636-3.05992 5.30042-4.24805 8.18165-.77842 1.88716-1.23017 3.89298-1.33594 5.93164-1.04572 20.21718 6.1853 37.15551 14.54297 51.60937.43974.76041.93456 1.48761 1.48047 2.17578 12.51113 15.7749 33.37273 16.64191 53.11719 5.47071.65946-.39525 1.29291-.83235 1.89648-1.3086 1.36997 1.01364 2.73146 2.0691 4.14453 2.88477 8.31462 4.79946 17.15861 6.88426 25.69727 7.46679s16.78009-.26616 24.6875-3.22851c1.92713-.72196 3.96799-1.64618 5.98633-2.78711.0923.0949.18357.24393.27539.33398 3.47543 3.40848 6.71995 4.97228 9.85351 6.25196 6.26712 2.55934 12.58879 3.62045 19.55078 4.08789 13.924.93487 30.0061-.37057 44.50782-9.58594 4.83966-3.0755 7.9246-8.27268 8.30664-13.99414.6419-9.62853 2.47114-23.2593-2.35157-38.00195 1.56908-.58907 3.04821-1.39437 4.39453-2.39258 15.75746-16.65092 33.83757-29.02732 56.66407-39.72461 6.58578-3.08604 10.66761-9.83181 10.3457-17.09766-.0562-1.26441-.26439-2.52882-.4082-3.79492 5.05095-1.68835 9.09509-5.52653 11.04492-10.48242 5.92604-18.02165 14.84328-34.82804 27.20312-51.98047 3.995-5.58065 4.4692-12.94735 1.22266-18.99414 2.635-2.46138 4.47011-5.65735 5.26758-9.17383 1.7425-9.02003 2.5985-16.73963 1.50976-24.67187-.0175-.12846-.0363-.25672-.0566-.38477-1.96284-12.31856-8.23458-25.62772-23.28515-29.17773-7.52529-1.77501-15.70462.35056-21.44727 4.20703s-9.75583 9.0243-13.03711 15.00781c-.76345 1.39198-1.33941 2.87883-1.71289 4.42187-1.47552 6.09882-2.22723 10.47072-2.76562 13.61133-.0992 1.88237.0979 3.76863.58398 5.58985-3.31155 2.17889-5.8113 5.38992-7.11133 9.13476-5.30455 17.77491-9.53938 34.00123-18.1289 47.32227-1.24981 2.22371-2.01275 4.68764-2.23828 7.22851-2.66095 1.02591-5.04008 2.66935-6.94141 4.79493-11.8955 15.09608-23.51288 23.74271-36.48828 30.28515 4.86961-16.62144 10.71607-33.2904 17.85937-50.62695 1.63453-3.97767 1.79111-8.40907.44141-12.49219.0356-.0145.0838-.0264.11914-.041 6.91483-2.84818 11.34858-9.67491 11.13867-17.1504-.73442-26.03124 4.24664-49.59403 14.9375-75.52148 2.09568-5.08832 1.74889-10.85571-.9414-15.65625 2.41328-2.96908 3.81779-6.62985 4.00976-10.45117.14803-13.76652 3.59575-26.82847 10.4668-40.72852 2.0398-4.13884 2.41245-8.90292 1.04101-13.30859 1.83249-1.77767 3.2659-3.92479 4.20508-6.29883 3.33524-11.117438 5.19678-20.443034 4.5918-29.820311-.0489-.755331-.1455-1.506823-.28906-2.25-2.20966-11.455664-8.05544-23.468697-21.88672-27.695313-6.91564-2.113308-14.99326-.936687-20.98438 2.330078s-10.32162 8.026738-13.86914 13.525391c-.89546 1.388987-1.5954 2.894665-2.08008 4.474609-3.7453 12.196258-4.42864 17.983258-5.52734 24.998047-.13118 2.310775.18448 4.625165.92969 6.816409-3.85951 3.02849-6.31585 7.50096-6.80078 12.38281-.6535 15.68399-.88629 27.50964-8.51368 38.12695-2.78113 4.30251-3.59733 9.58618-2.24414 14.52735-5.93171 3.83923-9.06896 10.79357-8.02148 17.78125 1.81634 9.57182-.92191 21.86435-5.51758 35.24804-3.40913 9.92822-8.00844 19.77132-10.22656 31.01563.0431-.90623.0176-1.81441-.0762-2.7168-5.85441-24.9843-6.56917-49.6281-3.00196-77.48633.75956-5.9599-1.50425-11.90589-6.03515-15.85156 1.4148-3.52671 1.67734-7.41067.75-11.0957-3.51506-13.6115-3.66505-27.08227-.73828-42.4043.85675-4.601128-.11211-9.355046-2.70118-13.253905 1.13302-1.849739 1.9224-3.889025 2.33008-6.019531 1.19452-14.533237.8834-25.951482-2.41015-36.28125-.4224-1.326293-.99721-2.59912-1.71289-3.792969-5.45128-9.087527-12.10008-18.522431-26.7461-20.09375zm82.04883 122.835935c-.52339 0 .20984.01-.16797.0137-.0648.001-.12661-.0111-.19141-.01zm-42.74023 113.59961c-.13731 1.59785-.26294 3.2013-.27735 4.86524.22727 1.62916.67677 3.21948 1.33594 4.72656-1.02157.65351-1.98198 1.35855-2.93555 2.08008-.17099-2.05432-.69356-4.064-1.54492-5.94141 1.48786-1.68016 2.64843-3.62371 3.42188-5.73047zm-135.6504 22.04102c1.26122 1.6568 2.80032 3.08224 4.54883 4.21289-.0598.43835-.10348.87875-.13086 1.32031-1.14721-1.18451-2.45172-2.20578-3.87695-3.03516-.31326-.1511-.65475-.24939-.9707-.39648.18487-.69136.32835-1.39312.42968-2.10156z"/><path d="m233.34719 50.944345c-.72 14.76.36 16.65 1.17 29.07 8.37-2.313 17.19-2.052 25.02-.18 1.08-13.14.36-23.13-1.62-29.34-7.92-13.203-19.17-17.496-24.57.45zm-91.35 21.96c-.09 10.62.54 14.76 1.35 20.79 9.09-3.303 17.55-4.329 26.1-3.06-.27-8.28-1.26-14.67-2.88-19.08-8.01-12.654-19.35-16.758-24.57 1.35zm208.08 1.62c-3.51 11.43-3.78 15.03-4.95 22.5 8.73-.153 18.27 2.763 25.02 6.479995 2.97-9.899995 4.23-17.909995 3.87-23.489995-2.88-14.931-14.4-20.277-23.94-5.49zm-117.18 23.85c3.6 15.002995 8.19 31.832995.81 50.462995 9.18-3.6 18.72-3.96 27.45-1.35-4.23-16.38-4.32-32.85-.99-50.282995-9-2.889-19.26-2.979-27.27 1.17zm-87.75 12.842995c11.88 11.52-.45 50.58 4.5 54.09 9.09-4.77 18.9-6.21 28.44-4.14-6.39-16.92-8.01-34.38-5.76-53.073-8.82-2.448-19.62-1.656-27.18 3.123zm-84.330003 10.44c1.53 9.63 2.7 13.77 4.23 18.81 7.83-4.5 16.83-6.39 25.641-6.03-1.557-8.01-3.591-14.04-5.841-18.09-8.604-13.878-22.563-9.702-24.03 5.31zm278.640003-7.47c-.63 15.12-.63 32.22-11.88 47.88.36 0 .72-.09 1.08-.09 9-.18 17.91 2.43 25.02 6.84.18-16.74 4.5-32.67 12.33-48.51-8.73-4.68-17.28-8.37-26.55-6.12zm-270.810003 43.92c6.12 13.14 13.5 27.54 11.61 45.36 7.866-4.41 16.641-5.94 25.155003-5.13-6.903003-14.49-10.080003-29.97-10.350003-46.98-8.64-.72-20.043 1.71-26.415 6.75zm164.700003 10.26c4.59 24.66 10.98 50.13 3.69 78.12 10.98-4.32 23.58-1.17 32.31 5.04-6.39-27.27-7.11-54.36-3.33-83.88-10.98-7.02-23.94-7.74-32.67.72zm-82.44 17.1c12.06 31.41 12.6 58.05 14.31 84.51 10.35-8.82 19.98-11.79 32.13-8.19-9.63-25.83-13.86-52.29-14.13-81.72-11.25-5.58-24.75-4.5-32.31 5.4zm169.47-4.95c5.67 29.88-16.56 61.29-16.74 82.08 10.08-1.26 20.34 3.51 26.91 9.99 1.89-.27 3.6-.81 5.13-1.44-.81-28.71 4.86-55.17 16.29-82.89-8.91-8.55-20.52-13.14-31.59-7.74zm-237.150003 41.49c11.79 21.87 22.770003 50.4 23.364003 65.34 6.966-6.57 16.056-9.54 24.876-9.09.36 0 .63.09.9.09-12.06-19.26-19.26-39.69-23.193-62.82-9.045-2.43-20.133003-.9-25.947003 6.48zm331.470003 15.21c-1.35 5.58-1.98 9.27-2.52 12.42 9.99.99 18.36 4.59 25.38 10.53 1.53-7.92 1.98-14.22 1.35-18.81-2.61-16.38-15.03-20.88-24.21-4.14zm-181.89 33.21c1.98 21.69 4.68 43.29 4.77 65.34 8.1-1.08 16.2-1.26 23.76-.81.18-20.7 1.8-41.94 4.77-64.26-12.42-12.87-23.76-13.86-33.3-.27zm172.35-3.96c-5.13 17.19-9.63 35.46-20.25 51.93 9 5.04 15.57 11.34 19.53 19.71 6.57-19.98 16.47-38.52 29.7-56.88-6.57-10.44-17.28-17.64-28.98-14.76zm-233.82 23.22c5.22 22.14 11.16 44.01 14.58 66.87 7.02-5.58 15.3-10.26 22.32-13.14-2.25-18.9-3.6-38.34-3.96-58.95-14.49-11.79-25.83-10.26-32.94 5.22zm121.95-5.04c-3.15 18.18-5.67 36.54-9.81 54.63 8.1 2.79 15.39 6.66 21.87 11.34 5.31-18.9 11.97-37.71 19.98-57.15-8.82-15.93-19.53-19.71-32.04-8.82zm-181.17 26.1c11.79 22.41 24.57 44.46 33.57 69.03 6.66-5.76 13.05-10.08 20.43-13.5-9.09-21.33-16.65-43.74-23.13-67.95-15.3-7.38-27.27-4.14-30.87 12.42zm262.62 21.06c-20.07 25.47-41.49 36.09-64.62 44.64 8.73 7.2 15.57 16.56 20.7 26.01 17.46-18.45 37.71-32.22 62.1-43.65-.54-12.15-7.38-23.76-18.18-27zm-119.79 19.26c-16.74.09-35.1 4.59-48.15 11.16 7.83 2.43 14.67 7.02 20.43 12.78 2.61-.09 5.31.09 7.92.54 26.46-12.33 52.11-16.92 74.16.27-18.45-16.47-32.22-24.75-54.36-24.75zm-87.12 32.49c-10.08 5.76-18.45 14.49-22.05 23.22-.81 15.66 4.5 28.44 12.15 41.67 4.14 5.22 16.47 8.73 30.15.99-4.68-12.42-9.27-28.98-5.94-39.33 6.48-13.68 14.49-23.13 26.1-29.61-12.87-7.38-28.8-3.42-40.41 3.06zm84.78 1.53c2.88 2.88 5.49 6.12 7.74 9.54 5.94 8.91 9.99 19.35 12.24 29.07 1.53 10.35.45 19.89-1.62 28.98-.9 8.37 34.65 12.96 52.92 1.35.72-10.8 1.89-23.22-2.34-33.75-7.29-16.92-20.43-35.1-37.08-39.06-10.44-2.43-22.95.27-31.86 3.87zm-23.58 6.12c-6.03.36-12.33 2.88-16.47 5.58-16.74 12.87-17.82 22.77-11.7 40.77 6.93 24.21 52.2 22.68 54.99 8.37 3.24-15.93-.81-29.88-9-42.39-5.04-6.21-10.08-12.33-17.82-12.33z" fill="#775fa0" stroke-width="36"/></g></svg>