<svg height="500" viewBox="0 0 500 500" width="500" xmlns="http://www.w3.org/2000/svg" xmlns:xlink="http://www.w3.org/1999/xlink"><radialGradient id="a" cx="1362.7291" cy="216.11429" gradientTransform="matrix(1.0000001 -.0000059 .0000001 1.0000003 -112.72927 33.893757)" gradientUnits="userSpaceOnUse" r="250"><stop offset="0" stop-color="#ff851a"/><stop offset=".42441937" stop-color="#f87000"/><stop offset=".86367416" stop-color="#f26900"/><stop offset="1" stop-color="#e55f00"/></radialGradient><g transform="translate(-1000)"><path d="m1500 250a250 250 0 0 1 -250 250 250 250 0 0 1 -250-250 250 250 0 0 1 250-250 250 250 0 0 1 250 250z" fill="url(#a)" stroke-linecap="round" stroke-linejoin="round" stroke-width="1.002"/><path d="m1309.2298 33.82789c128.5196 30.706851 207.8974 167.48127 169.5927 291.56949-31.3771 95.69524-112.8693 162.03793-212.5543 174.60263 153.1796-8.09118 266.0956-163.0043 218.7012-309.92978-36.4562-114.666588-154.6038-191.5214848-270.6514-169.822657-18.8526 4.215647-38.4387 10.498641-55.8829 18.694487-112.5353 47.459213-168.47522 196.206-99.9632 307.85319 57.6978 93.63045 168.5136 141.8489 267.9993 100.77239-134.92 68.97589-303.283-51.46877-311.488-201.30723-4.4167-117.68321 76.8182-219.674136 190.654-246.26040176-89.0147 9.18391126-152.6601 79.39239576-187.7408 157.21169176-38.45522 102.70317 5.2337 231.75078 109.038 294.08388 114.5107 66.1048 260.3537 29.37245 323.6836-83.60152 42.2104-77.69758 34.3514-177.62383-23.1776-249.88923-57.5404-72.257811-157.5429-102.460489-246.4118-71.877168-81.7429 30.682061-131.1298 101.133078-134.0478 190.176958.6692 92.68536 61.7912 168.55972 147.5399 198.52472 128.5549 37.82014 266.7725-70.33038 233.6823-209.88949-14.7104-64.39775-57.8855-122.14991-125.7378-141.121386-71.391-15.467036-138.9716 1.205-181.2869 64.641366-18.8995 29.2286-28.9384 85.21395-26.105 97.65297m0 0c13.5324-50.18833 30.6277-97.66354 72.2125-128.94941 53.182-38.308183 124.4576-37.093813 181.7444-.48035 50.1457 36.48017 75.4845 90.37713 72.3557 150.91678-6.6674 64.04407-38.4038 109.83277-91.6401 141.00844-63.9019 34.56125-135.3795 4.83213-189.1258-35.28385-78.8706-65.48566-79.7477-186.67235-8.9744-256.76104 63.7369-55.941605 167.0207-64.891564 238.7167-6.65053 78.8163 58.35315 90.3045 169.04089 40.972 246.62443-35.2274 56.41892-88.4571 87.60135-152.5581 93.63158-81.9488 2.18264-160.666-41.91503-196.8695-120.9383-36.2055-79.02511-22.5771-164.33167 26.8727-227.66064 49.4316-63.30896 138.3491-86.746364 220.4504-67.54202" fill="#c50"/></g><path d="m208.65039 105.61914c-12.37336-.044-22.68498 6.12557-30.27344 13.35156-5.13141 4.88632-9.40177 10.50274-13.2207 16.4961-.67996-1.61021-1.43632-3.21808-2.43359-4.8086-4.58166-7.30715-13.16449-12.37013-20.95118-13.89648-16.13982-3.19633-32.36106 5.91618-40.51953 17.35351-5.686895 7.97245-9.341892 16.97585-12.136716 26.53516-6.607847-4.20385-14.801311-6.10097-22.349609-5.88281h-.02344l-.02539.002c-7.644995.24193-12.858782 4.54505-15.595703 7.67578-2.736922 3.13074-4.128873 5.91533-5.382813 8.73242-2.50788 5.63419-4.11912 11.61796-5.642578 18.60547-3.046915 13.97502-5.275867 31.61927-6.699219 50.32617-1.423351 18.70691-1.996766 38.32708-1.40039 55.77735.557932 16.3254 1.680139 30.00603 5.75 41.98633 4.111388 24.7131 10.942657 53.44183 14.496093 77.78711 1.799677 12.32992 2.692751 23.5073 2.261719 31.56445-.431031 8.05715-2.646781 12.0893-2.572265 12.00781l-.101561.11323-51.830078 58.6543h234.70312l19.875-28.41992c10.13417-3.60211 18.32849-9.3835 23.83399-15.70703 6.80847-7.82011 10.27868-15.32122 13.52148-20.5625v-.002c19.30985-31.21631 69.60844-68.92773 106.75-81.73242l.0801-.0273.082-.0293c5.72695-2.03564 12.11949-6.83418 15.04688-13.61914 2.92739-6.78495 2.13261-13.56984.47265-18.52148-3.3199-9.90329-9.51956-16.07798-16.94921-21.75-14.85932-11.34405-38.20962-20.01162-61.00977-8.71875-25.99337 12.85587-45.00252 25.77406-59.00781 32.30664-14.00723 6.53347-19.79767 7.76633-30.99024 2.18554l-.008-.006-.01-.004c-19.21623-9.55655-26.34309-24.65749-29.00195-47.60352-2.65817-22.94009 1.33056-51.98496 6.37891-79.5332v-.004c2.04317-11.06756 10.95314-31.59592 16.22461-51.30664 2.63598-9.85626 4.79004-19.84652 2.60547-31.15429-2.18457-11.30778-12.47903-23.52909-25.24414-27.06641l-.39649-.11133-.40039-.0898c-2.63266-.60175-5.2197-.88481-7.84961-.90235h-.0293z" fill="#994100"/><path d="m208.58628 123.62c-25.29-.09-44.91 50.85-51.93 81.54-10.17 44.28-13.14 75.15-.81 119.7l-15.57 4.32c-13.95-50.31-7.47-85.23 2.07-128.07 9.45-42.84 13.05-63.36-4.05-66.69-37.89-7.56-40.770003 81.36-43.020003 121.32-1.26 23.22.72 51.3 5.940003 69.84l-15.210003 5.58c-12.96-48.06-6.03-88.2-1.53-135.72 2.25-14.04-1.62-23.13-17.19-22.68-14.22.45-24.3 129.06-11.97 161.19 7.83 47.7 28.17 117.45 9.9 137.43l-25.29 28.62h185.400003l18-25.74c20.7-4.5 25.56-17.91 33.3-30.42 22.77-36.81 74.16-74.79 116.19-89.28 18.99-6.75-19.71-43.74-48.42-29.52-49.5 24.48-73.53 50.67-106.02 34.47-50.31-25.02-42.57-90.54-32.31-146.52 5.58-30.24 36.36-80.64 6.48-88.92-1.26-.288-2.61-.441-3.96-.45z" fill="#ffa348" stroke-width="36"/><path d="m470.33594 37.03125s-17.58176 29.544517-26.68164 44.126953c-3.45184 5.53152-5.35679 12.55516-10.58789 16.447266-3.8262 2.846821-8.99928 3.521161-13.74805 3.960941-13.74148 1.2726-41.21094-3.960941-41.21094-3.960941l20.64844 26.658201s-10.89112 7.9344-16.48438 11.6875c-6.83601 4.58699-17.99338 12.36385-20.85546 13.22852-1.97069-6.08345 3.82965-36.06657 8.99804-53.341799 3.0753-10.279129 12.95703-29.464844 12.95703-29.464844l-31.88867 4.386719c-28.92642 3.979574-49.30565 24.200293-59.2168 46.763674-5.99313 13.64378-8.87908 28.28858-8.91406 42.61718-.33283-10.84224-1.47541-19.85057 1.01563-38.01171-9.11435 7.35625-19.5046 17.48068-25.4043 28.85742-12.61837 24.33275-23.00325 52.83399-19.14258 79.9707 2.87522 20.20993 15.7329 38.91893 30.30078 53.21875 10.33563 10.14545 24.20245 16.89289 38.15039 20.79297 10.83976 3.03098 22.47563 1.68866 33.73047 1.5625 15.09587-.16922 30.7135 1.1953 45.1836-3.10937 15.78008-4.69437 29.75583-14.47219 43.11523-24.09376 6.24596-4.4984 12.46762-9.38077 17.07227-15.54882 4.77924-6.40192 8.24501-13.89325 10.43554-21.57618.003-.012.003-.0247.004-.0371.00097-.0123.003-.0247.002-.0371-.87185-19.22912-3.94743-38.39127-8.23633-57.15625-.20402-.89265-.82826-2.61915-.82826-2.61915 14.97538-15.69426 21.66376-31.22988 26.55043-49.2192 3.93087-14.47074 2.2996-29.97733 1.60973-44.956586-.79081-17.170889-6.57422-51.146484-6.57422-51.146484zm-56.08789 108.11328c.42577 1.12461.79221 2.0844.84179 3.17969.36265 8.01207-2.25523 15.89954-4.03125 23.7207-1.48015 6.51822-2.37676 13.37578-5.50781 19.28125-.70902 1.33727-2.91406 3.48242-2.91406 3.48242-.55949-8.50432 4.78631-25.77716 8.09766-38.44921.99042-3.7902 3.51367-11.21485 3.51367-11.21485z" fill="#994100"/><path d="m353.93628 88.592c-44.55 6.129-59.4 58.968-49.68 94.068 12.42 44.73-41.85 48.78-29.97-22.23-15.75 25.56-20.16 48.33-16.74 67.41 3.33 19.17 13.23 33.93 26.82 44.64 8.55 6.75 18.54 11.97 29.25 15.3 24.48-22.59 28.08-62.55 16.38-88.56 17.37 10.89 27.27 31.86 26.01 56.25 10.71.63 24.48-6.12 32.76-16.02.36 17.1 2.07 31.23-8.01 47.16 25.65-9.81 57.87-32.58 59.13-46.08 1.26-14.13-1.35-30.78-7.47-50.13-15.39 60.12-69.66 35.64-38.34-40.86-55.53 48.24-62.55-9.99-40.14-60.948zm105.12 1.881c-7.2 11.907-14.4 31.383-41.31 29.025 18.45 19.953 18.36 30.402 10.62 57.492 33.48-28.71 34.02-60.606 30.69-86.517z" fill="#ffa348" stroke-width="36"/></svg>