<svg height="500" viewBox="0 0 500 500" width="500" xmlns="http://www.w3.org/2000/svg"><g transform="translate(.000015)"><circle cx="-249.99998" cy="250" fill="#e51a1a" r="250" transform="scale(-1 1)"/><path d="m181.33938 83.856939c97.52275-31.84694 203.27597 26.159281 217.12696 131.568651 10.04116 85.89723-45.79566 162.6049-131.11288 174.6444-76.26503 6.65-147.16573-45.4981-149.44603-126.3231.16679-50.89801 30.03241-87.97493 76.60677-108.40662 44.00125-16.48183 90.46555-3.00917 112.28155 39.63622 17.95322 40.0953 3.57775 87.31302-40.4313 103.80676-21.98685 8.23292-51.6578-5.55285-56.72562-31.5612 24.48155 21.7253 69.7211 11.74379 80.1808-21.06198 5.24648-24.88185-11.48198-41.52298-24.36368-55.64156-23.21161-15.22125-63.26956-13.16738-85.32502 12.05139-41.51846 46.43224-18.48961 112.52397 35.72777 131.08081 60.66482 17.11352 118.96473-29.63961 126.96137-92.39988 2.7637-54.83226-40.99398-106.19486-96.51046-114.27807-76.21988-10.3001-138.45939 50.84936-147.743191 124.09106-9.31956 73.21828 47.315731 138.67973 111.863041 158.33924 49.05305 9.49897 98.18701 2.07129 139.64056-27.40671 82.90715-58.95602 100.11901-177.97214 43.55644-260.39974-52.71171-79.885311-158.575-103.987181-249.15842-67.061741-86.705021 39.45169-149.0660905 134.549061-117.102931 229.167621 15.77888-74.65377 50.93986-153.5943 123.407351-187.514491 9.28724-4.60517 19.44718-8.7232 30.56692-12.33106zm-160.722321 286.075591c-52.57825-113.8254-.38403-260.89182 113.777041-317.643861 10.84604-5.32012 22.21219-9.7712 34.03518-13.36069 115.76394-28.75816 246.03978 34.00351 263.68455 158.897471 10.04526 85.91695-27.72044 168.80365-107.97396 206.83173-102.24035 46.26108-224.798841-11.43986-234.690511-131.24969-7.33455-123.78718 127.307171-194.136761 222.718561-137.24102-42.54074-27.89653-94.21826-33.44528-140.80825-12.98978-71.17376 32.62266-105.080851 118.0397-80.762351 190.63139 30.697281 88.13423 123.572931 132.04164 212.817841 105.59803 82.80488-25.06359 132.16266-100.33164 140.19255-180.04986 12.12434-145.020371-132.23823-245.3588802-265.59709-221.973611 7.92036-4.10499 20.5989-8.4277792 35.61563-11.7452592 60.06317-13.23825 124.63426-3.45807 179.45368 32.4903392 109.65077 71.904621 141.09454 217.803071 65.16008 333.599141-143.00482 218.07486-377.311781 117.06797-437.622951-1.79433" fill="#b21a1a"/></g><path d="m80.017578-53.714844-16.673828 12.710938c-4.348511 3.314605-8.604688 6.782762-12.748047 10.414062l-10.839844 9.501953 54.126953 100.917969-91.6972651-30.816406-15.7011719-5.644531-8.029297 10.136718c-3.56901 4.505254-6.930832 9.137139-10.066406 13.896485l-12.5625 19.066406 4.001953 1.447266-.091797.146484 20.716797 7.310547 12.6289062 4.566406.0507813-.091797 84.7265625 29.898434-52.710937 53.48633-56.580079-70.09375 1.035157 52.58985c.01933.9812.037425 2.3766.078125 3.8457-.07315 1.59086-.13813 3.18143-.179688 4.77344l-.005859.23437v.23633c0 5.43863.193105 10.80454.542968 16.0957l.376954 5.6836 101.292968 125.50195-69.5605465 39.19922 67.7265625 8.79297-29.585938 57.10547 62.312498-28.00977 28.47656 73.52539 15.22657-72.75977 29.15234 10.48047-5.08398 8.03516 10.99804-5.9082 22.87696 8.22461-8.26758-16.07227 78.3125-42.07031 38.80664 107.64062 25.27539-92.85937 61.9668 59.73047-15.92969-99.50977 69.19336-3.32226-53.92969-44.5 100.32422-66.04883-119.67383 6.28906-10.54492-66.53711 18.52148-27.21289 58.68555 27.43945-20.7539-52.63086 60.93554-16.533199-63.03125-27.490235 29.63086-49.189453-65.88281 19.396485-43.13672-47.50586-5.22656 52.482422-68.53516-13.769531 34.23633 40.132812-26.49609 5.861328-21-93.785156-14.72657.310547c-5.48671.115659-10.95129.41218-16.39062.898438l-20.44922 1.828124 6.67773 29.822266-7.53515 6.640625-25.79492 26.994141-30.70899-79.296875-14.16797 78.505859zm144.736332 120.496094 3.85547 17.216797-10.43946.353515zm74.01953 55.48437-6.84766 11.2129-2.07031-9.24024zm42.03711 7.28907 5.08984 22.84961-26.63477 53.65039-16.43164-23.89258-8.2539-36.83203zm-100.45899 6.94336 6.18164 27.60351-4.55859-6.01367-15.59961-15.13086zm-140.921872 40.16601 9.107422 27.35547-6.31055 74.69922-72.773435-90.1543zm103.894532 5.58008 21.1543 6.06641 28.7539 5.70312.79883 3.57031-1.16406 32.93164-45.04492-8.06835zm-42.10156 13.69531 34.91601 29.67383-37.93945-3.77344 2.00586-23.74218zm-3.72461 34.19727 26.42578 22.38281 32.08789 25.68164-11.75586 6.32813-43.56641 11.46484-4.81445-.04492-2.99609-11.14063zm67.74414 101.61328-12.5918 13.29883-12.15234-6.79492zm-42.83594 46.57227 13.19727.27148-7.20313 11.38281z" fill="#861313"/><path d="m243.3822-.97276039c-5.08925.10728033-10.14734.38259166-15.16908.83151597l22.24392 99.33137142-11.02193 2.454543-47.56864 1.60389 26.45195-70.591891-45.36459 47.471215-17.81149-45.992577-9.54329 52.881287-18.81349-17.387034-52.530863-96.317725c-4.035941 3.076354-7.971953 6.28553-11.794306 9.635497l48.644659 89.188953 6.51296 31.061825-28.306335-4.43418-93.8298819-33.027536c-3.0097192 4.154963-5.8749631 8.431715-8.6074081 12.815435l103.491471 36.520611 13.874834 13.55127-34.292205 34.79495 41.683655-7.08878 15.15342 45.51594-6.96352 82.41229-10.79752 25.80309-9.141459-5.58751-112.283144-139.10035c.0288 1.46203.02697 2.92293.08524 4.38546-.08237 1.68545-.14558 3.3718-.189614 5.05867 0 5.01096.178596 9.97968.504477 14.90815l100.461004 124.46706 8.11685 14.55328-38.453266 21.66986 39.554416 5.13522-17.635795 34.04171 32.488271-14.60371 13.37905 34.5427 7.01396-33.51636 34.41746 12.37358-14.75332-28.68208 51.2774 1.05244-44.88969-25.1003 11.3716-8.09075 59.26899-15.57963 29.50839-.12524-36.8981 58.31571 61.92359-33.26585 26.55111 73.64482 18.28639-67.18406 45.06539 43.4389-10.59574-66.18207 42.7848-2.05444-36.82154-30.38512 65.25313-42.9605-69.58815 3.65658-11.3716-71.74348-31.93856 64.32942-35.74648-51.98019-17.68625-78.93141 67.8364-15.005545-12.77716 20.918365 30.61127-10.44614 8.16729 36.67194 19.86419-29.18308 31.61327 14.78116-11.5473-29.283974 30.93658-8.393448-34.9202-15.229961 16.35721-27.152999-32.33866 9.520684-23.49816-25.877893-3.18342 31.962921-37.0216-7.438415 19.91464 23.345071-73.27083 16.209344zm-250.8176702 65.65496839c-3.2567368 4.111061-6.3096918 8.318858-9.1449368 12.622348l1.438625.520129c2.494983-4.442121 5.1843681-8.781335 8.1272869-12.991136zm261.1489902 49.113372 18.38729 82.11308-1.97964 55.98469-74.94951-13.42603 53.33184 42.68565-37.59914 20.23993-47.97047 12.62409-20.89227-.20005-7.36361-27.37916 7.8646-93.08455 12.42577-26.3528 31.53672 26.80335-4.05842-36.27184 46.99458 13.47648-34.42094-33.39112 44.99058-20.79138z" fill="#ff8066" stroke-width="36"/></svg>