<svg height="500" viewBox="0 0 500 500" width="500" xmlns="http://www.w3.org/2000/svg" xmlns:xlink="http://www.w3.org/1999/xlink"><radialGradient id="a" cx="1362.7291" cy="216.11429" gradientTransform="matrix(1.0000001 -.0000059 .0000001 1.0000003 -112.72927 33.893757)" gradientUnits="userSpaceOnUse" r="250"><stop offset="0" stop-color="#ff851a"/><stop offset=".42441937" stop-color="#f87000"/><stop offset=".86367416" stop-color="#f26900"/><stop offset="1" stop-color="#e55f00"/></radialGradient><g transform="translate(-1000)"><path d="m1500 250a250 250 0 0 1 -250 250 250 250 0 0 1 -250-250 250 250 0 0 1 250-250 250 250 0 0 1 250 250z" fill="url(#a)" stroke-linecap="round" stroke-linejoin="round" stroke-width="1.002"/><path d="m1309.2298 33.82789c128.5196 30.706851 207.8974 167.48127 169.5927 291.56949-31.3771 95.69524-112.8693 162.03793-212.5543 174.60263 153.1796-8.09118 266.0956-163.0043 218.7012-309.92978-36.4562-114.666588-154.6038-191.5214848-270.6514-169.822657-18.8526 4.215647-38.4387 10.498641-55.8829 18.694487-112.5353 47.459213-168.47522 196.206-99.9632 307.85319 57.6978 93.63045 168.5136 141.8489 267.9993 100.77239-134.92 68.97589-303.283-51.46877-311.488-201.30723-4.4167-117.68321 76.8182-219.674136 190.654-246.26040176-89.0147 9.18391126-152.6601 79.39239576-187.7408 157.21169176-38.45522 102.70317 5.2337 231.75078 109.038 294.08388 114.5107 66.1048 260.3537 29.37245 323.6836-83.60152 42.2104-77.69758 34.3514-177.62383-23.1776-249.88923-57.5404-72.257811-157.5429-102.460489-246.4118-71.877168-81.7429 30.682061-131.1298 101.133078-134.0478 190.176958.6692 92.68536 61.7912 168.55972 147.5399 198.52472 128.5549 37.82014 266.7725-70.33038 233.6823-209.88949-14.7104-64.39775-57.8855-122.14991-125.7378-141.121386-71.391-15.467036-138.9716 1.205-181.2869 64.641366-18.8995 29.2286-28.9384 85.21395-26.105 97.65297m0 0c13.5324-50.18833 30.6277-97.66354 72.2125-128.94941 53.182-38.308183 124.4576-37.093813 181.7444-.48035 50.1457 36.48017 75.4845 90.37713 72.3557 150.91678-6.6674 64.04407-38.4038 109.83277-91.6401 141.00844-63.9019 34.56125-135.3795 4.83213-189.1258-35.28385-78.8706-65.48566-79.7477-186.67235-8.9744-256.76104 63.7369-55.941605 167.0207-64.891564 238.7167-6.65053 78.8163 58.35315 90.3045 169.04089 40.972 246.62443-35.2274 56.41892-88.4571 87.60135-152.5581 93.63158-81.9488 2.18264-160.666-41.91503-196.8695-120.9383-36.2055-79.02511-22.5771-164.33167 26.8727-227.66064 49.4316-63.30896 138.3491-86.746364 220.4504-67.54202" fill="#c50"/></g><path d="m205.63672 0c-5.34761.55172807-10.56949 1.3976779-15.73242 2.3789062.24484.5483918.52616 1.1094514.77734 1.6601563 4.92452-1.4766255 9.89541-2.857379 14.95508-4.0390625zm44.36328 0a250 250 0 0 0 -57.78516 7.3164062c.64291 1.352815 1.21045 2.6780915 1.89258 4.0449218l-.30859-.65039 14.66406 32.58789c4.87826 14.040952 3.73862 19.80486 1.28125 25.451172-.13271.304921-.38074.643408-.5332.953125-13.76999-15.231974-32.9396-23.532443-51.80469-23.337891-30.21727.309935-60.408565 24.448633-62.560547 62.689456l34.123047 8.95508c8.15781-16.5886 19.32313-19.675638 27.35937-17.53907 8.03626 2.13658 17.86931 10.48972 17.5625 36.49805l.06836-1.36914c-.43361 4.91173-.47076 10.15982-.02343 15.73242l2.16015 26.93555 24.02344-12.37305c4.75881-2.45088 9.96222-4.17259 15.57422-4.99805.002-.0003.00386-.00195.00586-.00195 2.65862-.3875 5.25492-.5648 7.74414-.53906l-.00586-.00195c1.97939.0211 3.99757.17931 6.09375.46093l16.83594 2.26172 3.23242-16.67773c1.88258-9.71486 12.68969-20.53995 24.54492-38.13086 11.85523-17.590923 20.60359-44.855859 8.07617-77.781252l-.25586-.669922-13.79687-29.08007788a250 250 0 0 0 -18.16797-.73632812zm-12.64258 19.783203 11.36328 23.945313c8.71446 23.183122 4.09624 31.769054-4.42968 44.419922-6.6558 9.87593-18.11227 20.566942-25.17969 36.347652-2.42179.11215-4.83436.31599-7.23633.62891l9.70117-12.02344c6.1876-7.66813 15.19515-16.240107 21.17774-29.986326 5.98257-13.746218 6.72626-31.830968-.46094-52.214843l-.25195-.710938zm133.29688 326.060547-12.75 16.34961c-5.43429 6.96932-12.57898 12.3246-20.58985 15.65625l-27 11.22851 22.1875 19.04883c13.97665 11.99942 18.65045 25.02445 11.1211 51.58399-.002.006-.00191.01138-.00391.01758l-2.86523 9.76171c-2.53794 6.16468-4.57461 11.5428-6.38868 16.6211 27.77989-10.11459 53.16065-25.22481 75.16993-44.04492a250 250 0 0 0 6.35351-5.79297c-.34175-29.51459-12.19654-56.19601-30.83789-75.51172z" fill="#994100"/><path d="m352.43356 204.5743-11.06546-32.69439c-4.64645-13.72716-6.19705-24.73359-6.59202-34.65797 1.60768 5.19733 3.58575 10.36377 6.91683 15.17717 13.86584 20.03598 36.06908 31.30042 59.15108 32.53198l-40.78534 15.3843 34.17853 15.34651c20.78843 9.36452 28.45864 24.95807 27.66736 37.55906-.78562 12.51028-8.5053 24.82829-33.47691 29.99261-3.59331.084-7.19331.19083-10.88088.6939l-24.31595 3.31447 10.46752 22.19734c2.98131 6.32283 4.65922 13.22978 4.86467 20.26329l.4872 16.53543 16.51328.91536c18.87916 1.04381 29.87645 10.46802 35.09352 24.30118 5.21707 13.83314 3.77495 32.96961-10.2313 52.42616l-33.74645 42.05c18.40067-4.69287 31.32984-5.00855 58.12883-16.42008 31.89343-20.61732 46.68155-51.9558 45.40599-81.31888-.90194-20.76217-9.47557-40.18425-23.1939-55.40846 18.61712-18.46614 26.1747-44.80577 21.72492-68.97638-5.06892-27.53347-26.94996-52.54096-59.98523-60.18455 20.05161-3.95764 39.32342-16.01888 51.45177-36.90206 17.73071-30.53101 11.33775-65.209131-7.30809-89.121555-18.64581-23.912423-48.56187-39.677959-81.23029-40.209153-.87035-.01406-1.74516-.01111-2.62057 0-.002.000031-.004-.000032-.008 0-.0937.0012-.18671-.0015-.28044 0-.002.000039-.004-.00004-.008 0h.001c-29.44064.466515-63.31059 13.846217-87.1432 41.700293-23.83452 27.856312-34.91456 71.199555-16.98573 122.982285l5.11565 14.77116 26.12347 2.78558zm-161.51575-42.79283-30.17716 1.32136c-42.55562 1.85807-68.905929-16.96459-78.454728-38.64418-9.548794-21.67958-5.154803-48.044538 26.988188-71.375486 9.95038-9.050626 19.90075-18.101251 29.85113-27.151877-14.09256-2.083453-21.04451-7.548797-45.751718-4.605012-46.864433 14.520371-72.200371 51.464253-74.055117 89.224895-1.500557 30.54974 10.857518 61.27644 33.654035 84.16093-26.861051 29.40892-33.41585 79.25176-.981793 120.17716 23.055029 17.87471 38.513572 17.79127 38.513572 17.79127l-7.317703-34.64412c-6.36864-19.17937-4.528029-36.22154 1.0187-47.51723 5.546728-11.29568 13.389433-16.70046 23.540844-16.93405l93.15824 7.03792zm249.41282-56.66491c2.37105 2.95182-23.14574-8.968764-21.73318-5.542256 4.21769 10.231316 2.13959 18.569026.17726 20.462596-6.34148 6.11963-13.69848 9.75278-19.02312 10.60778-5.32467.85499-7.88421.21233-11.22784-3.22589v-.008c-6.70515-6.89396-5.53145-9.79333-2.42865-14.43898s10.68306-9.43902 21.66584-8.1939zm-313.40642 283.94592c-5.5704 9.84617-10.82955 23.58683-20.69882 28.47934-4.78006 2.28072-10.780498 3.36699-21.208166.24378-18.391445-5.51153-19.901638-25.90208-8.407974-35.1304 7.036783-10.94906 20.46032-17.64029 32.86948-25.00777-19.140217-6.61823-20.04384-10.40944-48.201665-6.61643-29.18737 9.1399-43.101897 36.94505-41.633857 62.79033 1.468041 25.84532 19.155384 52.80854 50.499508 60.76037 50.887184 12.90746 90.310994-12.97818 106.254924-45.502l11.48621-23.42272-17.16333-39.04712z" fill="#994100"/><path d="m247.96094.13867188a250 250 0 0 0 -37.55078 3.62500002l14.90625 33.1230471c12.26428 34.783165-3.86106 47.702322-17.74805 64.912111-8.15939-25.10368-29.55558-37.644194-49.97656-37.433596-22.11298.22681-43.069 15.378398-44.77539 45.701176 22.19037-45.123261 79.81751-35.894606 79.07421 27.11523-.3437 3.8934-.38282 8.11194-.01367 12.71094 6.471-3.3327 13.59289-5.68794 21.20508-6.80664 3.537-.5166 7.06567-.76647 10.54688-.73047 2.80348.0299 5.56554.25192 8.29882.61914 6.66541-34.39617 54.95353-49.620147 33.46875-106.087891zm124.13867 373.12304812c-7.38539 9.47158-17.05506 16.70792-27.87305 21.20703 18.76138 16.10727 25.53888 39.04093 16.70899 70.17187l-3.14258 10.70704c-.13752.33222-.22823.59168-.36328.91992 13.92525-6.79595 27.10106-14.87571 39.38672-24.07031l.01367-.07032c4.73592-31.25048-5.89364-59.34696-24.73047-78.86523z" fill="#ffa348"/><path d="m379.04919 35.3682c-47.57851.7506-119.97902 46.737-87.41341 140.7942 3.7671 62.79704 11.77056 92.82169 32.6808 1.4904-31.293-92.449797 37.404-124.845299 73.35-117.365399 36.63001 7.623001 52.36021 54.609299 33.6096 72.701999-17.13241 16.533-40.7655 22.2903-55.6596 6.975-23.3307-23.9877-.0423-56.950197 34.17298-53.0712-40.64938-21.472199-75.08428 23.7843-53.29798 55.2654 22.48648 32.4927 74.39398 36.4158 98.1567-4.5 28.1709-48.508198-19.57859-101.4174-73.2681-102.2904-.77851-.01259-1.5408-.01259-2.33371 0zm-280.350019 3.15c-81.768603 25.335-75.971702 117.0504-17.973003 156.177-31.784397 17.85781-47.774699 67.18501-14.624999 109.01341-15.371999-46.2933 6.812999-87.3234 41.231701-88.1154 13.1346-12.09241 30.6378-18.74521 48.6558-18.28171 1.179-5.66459 3.051-11.1042 5.5404-16.22699-96.777899 4.22549-137.518202-88.353909-62.829899-142.56631zm302.932809 160.7346c52.857 23.8104 52.48619 89.19631-10.12501 101.75581-3.744-.0396-7.59871.19528-11.53077.7317 4.02296 8.532 6.30266 17.8686 6.58166 27.4203 50.51071 2.7927 72.51304 57.933 38.47503 105.21629 54.68398-35.35019 43.46729-98.13599 3.15001-122.90669 52.93617-25.70671 43.54919-108.693-26.55001-112.21741zm-336.291312 169.36741c-38.239199 11.97182-38.781 76.33169 9.225003 88.5105 43.905599 11.1366 72.739799-9.59849 85.669199-35.97301-9.0207-.84061-17.838-3.48839-25.9317-7.7895-9.2817 17.28-26.7705 29.94751-54.450001 21.6567-31.031999-9.29968-37.0638-48.2967-14.510698-66.40469z" fill="#ffa348"/><g><path d="m221.06545 141.20816c-2.72133.0641-5.44447.29205-8.15699.68652h-.008l-.0147.008c-29.49659 4.33407-51.6479 26.83143-57.7559 54.30856-28.22082-.35422-55.138661 16.30988-66.134353 44.01821-10.998864 27.71795-2.824109 58.31918 17.989663 77.40649-14.147929 24.09714-13.388603 55.3844 4.99016 78.60974 18.40875 23.25812 48.8378 31.42186 75.6939 23.06842 13.80668 24.76532 41.91256 39.68724 71.47883 35.34448 29.31402-4.30703 51.31301-26.58206 57.53445-53.82875 28.22969.37837 55.18337-16.26062 66.18602-43.98867 10.99752-27.71394 2.80558-58.29867-17.98228-77.38435 14.39846-24.19447 13.66859-55.76816-4.8276-79.14142-18.52984-23.41315-49.24075-31.83761-76.29921-23.26033-6.98867-12.47751-17.34253-22.67304-30.1624-28.84104-9.1142-4.38568-19.2988-6.88149-29.88927-7.00542-.63901-.009-1.53409-.0283-2.64272 0z" fill="#994100"/><path d="m235.04917 259.83361c-15.0534.31048-29.088 9.4455-35.0163 24.3846-7.9047 19.9188 1.737 42.2424 21.6558 50.148 19.9197 7.902 42.24331-1.7388 50.14801-21.6576 7.9038-19.9197-1.73701-42.2424-21.65761-50.148-4.9788-1.97461-10.1124-2.83051-15.129-2.727zm-13.55698-100.63049c-1.9854.0468-3.99764.21607-5.99024.50586-24.4395 3.59101-42.03022 23.71135-44.01562 47.30664l-.75977 8.91407-8.85937-1.32227c-23.3757-3.4956-47.01447 9.26747-56.13867 32.25977-9.123302 22.9914-.68238 48.47698 18.73242 61.95898l7.33984 5.0918-5.51172 7.00195c-14.5305 18.5535-15.45151 44.87988-.19922 64.15429 15.2478 19.26448 41.43689 24.66716 62.80469 14.68165l8.12891-3.79884 3.26172 8.38284c8.5968 22.0374 31.7034 36.11712 56.25 32.51168 24.318-3.57297 41.70295-23.38976 43.84765-46.85544l.81446-8.85937 8.80273 1.29491c23.3757 3.49742 47.01252-9.23832 56.13672-32.23242 9.12421-22.9932.65503-48.47429-18.75977-61.95899l-7.36718-5.12109 5.56835-7.0293c14.73302-18.5373 15.69599-45.23281.36718-64.60351-15.3405-19.3833-41.87211-25.02765-63.22461-14.90625l-8.09961 3.85156-3.32031-8.32422c-4.9383-12.3912-13.99246-22.13448-25.50976-27.67578-6.79501-3.2697-14.44068-5.14212-22.33008-5.22852-.657-.009-1.30635-.0182-1.96875 0zm9.50781 47.64258 5.31445 36.22461c4.032.0215 8.10744.47221 12.14844 1.40821l4.58594-11.50196 15.63672 6.18555-4.58594 11.55859c3.519 2.0745 6.71394 4.51157 9.61914 7.23047l28.74414-22.7539 10.43359 13.1914-28.76953 22.7793c1.998 3.5343 3.6197 7.28431 4.8086 11.16601l12.43164-1.82812 2.44726 16.62109-12.46093 1.82813c-.0253 3.987-.4845 7.99257-1.4043 11.98047l34.14258 13.52929-6.21485 15.63672-34.14453-13.55664c-2.07 3.5253-4.48317 6.73874-7.20117 9.64844l7.84961 9.92773-13.19141 10.43555-7.875-9.95703c-3.5154 1.9944-7.22013 3.61429-11.08203 4.80859l5.34375 36.39452-16.62305 2.44729-5.34179-36.3672c-3.9663-.0136-7.95499-.44961-11.92578-1.34961l-4.64063 11.70118-15.63672-6.2168 4.61133-11.64453c-3.5694-2.0772-6.81571-4.51611-9.75781-7.25391l-28.77344 22.78125-10.43359-13.19141 28.77148-22.78125c-1.9854-3.49019-3.61249-7.19139-4.80859-11.02539l-12.29102 1.80078-2.44726-16.65039 12.23437-1.80078c.009-4.032.45536-8.08654 1.37695-12.12304l-34.00195-13.5 6.1875-15.63477 34.00195 13.5c2.0853-3.564 4.54106-6.82217 7.28516-9.75976l-7.65039-9.67579 13.19141-10.43554 7.67773 9.70507c3.5172-1.98899 7.24943-3.62074 11.11133-4.81054l-5.31641-36.22461z" fill="#ffa348"/></g></svg>