<svg height="500" viewBox="0 0 500 500" width="500" xmlns="http://www.w3.org/2000/svg" xmlns:xlink="http://www.w3.org/1999/xlink"><filter id="a" color-interpolation-filters="sRGB" height="1.096061" width="1.09594" x="-.04797" y="-.04803"><feGaussianBlur stdDeviation="8.448435"/></filter><filter id="b" color-interpolation-filters="sRGB" height="1.150082" width="1.149918" x="-.074959" y="-.075041"><feGaussianBlur stdDeviation="5.8510688"/></filter><g transform="translate(.000015)"><circle cx="-249.99998" cy="250" fill="#e51a1a" r="250" transform="scale(-1 1)"/><path d="m181.33938 83.856939c97.52275-31.84694 203.27597 26.159281 217.12696 131.568651 10.04116 85.89723-45.79566 162.6049-131.11288 174.6444-76.26503 6.65-147.16573-45.4981-149.44603-126.3231.16679-50.89801 30.03241-87.97493 76.60677-108.40662 44.00125-16.48183 90.46555-3.00917 112.28155 39.63622 17.95322 40.0953 3.57775 87.31302-40.4313 103.80676-21.98685 8.23292-51.6578-5.55285-56.72562-31.5612 24.48155 21.7253 69.7211 11.74379 80.1808-21.06198 5.24648-24.88185-11.48198-41.52298-24.36368-55.64156-23.21161-15.22125-63.26956-13.16738-85.32502 12.05139-41.51846 46.43224-18.48961 112.52397 35.72777 131.08081 60.66482 17.11352 118.96473-29.63961 126.96137-92.39988 2.7637-54.83226-40.99398-106.19486-96.51046-114.27807-76.21988-10.3001-138.45939 50.84936-147.743191 124.09106-9.31956 73.21828 47.315731 138.67973 111.863041 158.33924 49.05305 9.49897 98.18701 2.07129 139.64056-27.40671 82.90715-58.95602 100.11901-177.97214 43.55644-260.39974-52.71171-79.885311-158.575-103.987181-249.15842-67.061741-86.705021 39.45169-149.0660905 134.549061-117.102931 229.167621 15.77888-74.65377 50.93986-153.5943 123.407351-187.514491 9.28724-4.60517 19.44718-8.7232 30.56692-12.33106zm-160.722321 286.075591c-52.57825-113.8254-.38403-260.89182 113.777041-317.643861 10.84604-5.32012 22.21219-9.7712 34.03518-13.36069 115.76394-28.75816 246.03978 34.00351 263.68455 158.897471 10.04526 85.91695-27.72044 168.80365-107.97396 206.83173-102.24035 46.26108-224.798841-11.43986-234.690511-131.24969-7.33455-123.78718 127.307171-194.136761 222.718561-137.24102-42.54074-27.89653-94.21826-33.44528-140.80825-12.98978-71.17376 32.62266-105.080851 118.0397-80.762351 190.63139 30.697281 88.13423 123.572931 132.04164 212.817841 105.59803 82.80488-25.06359 132.16266-100.33164 140.19255-180.04986 12.12434-145.020371-132.23823-245.3588802-265.59709-221.973611 7.92036-4.10499 20.5989-8.4277792 35.61563-11.7452592 60.06317-13.23825 124.63426-3.45807 179.45368 32.4903392 109.65077 71.904621 141.09454 217.803071 65.16008 333.599141-143.00482 218.07486-377.311781 117.06797-437.622951-1.79433" fill="#b21a1a"/></g><path d="m0 0c25.679797 60.716319 70.04172 104.61684 111.7793 154.96484-36.246472-12.82413-74.182086-18.7316-111.7793-26.12202 34.981205 31.7446 72.314769 56.4251 111.48633 82.2607-36.85826-9.9587-74.291163-17.81879-111.48633-26.44478 64.4782 44.55254 132.63816 83.01681 200.33008 122.35298-45.35144-.61099-90.70287-1.22265-136.054305-1.83417 111.146555 49.70497 222.299645 99.39531 333.450785 149.09003 12.81628 6.59221 25.95436 12.53245 39.3711 17.70508h.002l1.625.62695 61.27534 27.40039-34.40234-77.00977-.0117-.0273c-3.32303-8.20955-6.94009-16.29013-10.82617-24.23242-49.35106-110.47125-98.70212-220.9425-148.05322-331.413735.37941 44.885965.7592 89.771915 1.13915 134.657875-37.85708-69.23015-80.14678-135.635831-122.74272-201.97465 9.59062 37.826585 16.63379 76.32182 27.2271 113.88871-23.97275-40.785049-53.89175-77.031251-83.2908-113.88871 6.3399 39.013205 15.3706 75.614008 26.57595 113.26957-47.86622-45.050986-98.11881-82.62635-155.61525-113.26957z" fill="#861313"/><g stroke-width="36"><path d="m41.66935 42.187627 122.076 147.260703-96.597-29.151 151.911 100.1934-123.6006-35.2386 173.259 100.683-117.4725-1.584 253.872 113.5044c12.5217 6.4782 25.3638 12.2742 38.4552 17.3214l2.0673.7965 18.7173 8.37-15.2055-34.038c-3.303-8.2035-6.921-16.2846-10.827-24.2334l-112.8906-252.7029.9846 116.4258-99.9486-172.088103 34.6338 122.841003-99.8352-151.393503 28.5156 95.820303z" fill="#e51a1a" filter="url(#a)"/><path d="m41.66935 42.187627 122.076 147.260703-96.597-29.151 151.911 100.1934-123.6006-35.2386 173.259 100.683-117.4725-1.584 253.872 113.5044c12.5217 6.4782 25.3638 12.2742 38.4552 17.3214l2.0673.7965 18.7173 8.37-15.2055-34.038c-3.303-8.2035-6.921-16.2846-10.827-24.2334l-112.8906-252.7029.9846 116.4258-99.9486-172.088103 34.6338 122.841003-99.8352-151.393503 28.5156 95.820303z" fill="#ff8066"/><path d="m244.30255 244.84783c84.8358 34.875 152.6472 104.5755 187.3368 187.1316-81.909-36.7443-151.9515-104.3172-187.3368-187.1316z" fill="#e51a1a" filter="url(#b)"/></g></svg>