<svg height="500" viewBox="0 0 500 500" width="500" xmlns="http://www.w3.org/2000/svg"><g transform="translate(.000015)"><circle cx="-249.99998" cy="250" fill="#e51a1a" r="250" transform="scale(-1 1)"/><path d="m181.33938 83.856939c97.52275-31.84694 203.27597 26.159281 217.12696 131.568651 10.04116 85.89723-45.79566 162.6049-131.11288 174.6444-76.26503 6.65-147.16573-45.4981-149.44603-126.3231.16679-50.89801 30.03241-87.97493 76.60677-108.40662 44.00125-16.48183 90.46555-3.00917 112.28155 39.63622 17.95322 40.0953 3.57775 87.31302-40.4313 103.80676-21.98685 8.23292-51.6578-5.55285-56.72562-31.5612 24.48155 21.7253 69.7211 11.74379 80.1808-21.06198 5.24648-24.88185-11.48198-41.52298-24.36368-55.64156-23.21161-15.22125-63.26956-13.16738-85.32502 12.05139-41.51846 46.43224-18.48961 112.52397 35.72777 131.08081 60.66482 17.11352 118.96473-29.63961 126.96137-92.39988 2.7637-54.83226-40.99398-106.19486-96.51046-114.27807-76.21988-10.3001-138.45939 50.84936-147.743191 124.09106-9.31956 73.21828 47.315731 138.67973 111.863041 158.33924 49.05305 9.49897 98.18701 2.07129 139.64056-27.40671 82.90715-58.95602 100.11901-177.97214 43.55644-260.39974-52.71171-79.885311-158.575-103.987181-249.15842-67.061741-86.705021 39.45169-149.0660905 134.549061-117.102931 229.167621 15.77888-74.65377 50.93986-153.5943 123.407351-187.514491 9.28724-4.60517 19.44718-8.7232 30.56692-12.33106zm-160.722321 286.075591c-52.57825-113.8254-.38403-260.89182 113.777041-317.643861 10.84604-5.32012 22.21219-9.7712 34.03518-13.36069 115.76394-28.75816 246.03978 34.00351 263.68455 158.897471 10.04526 85.91695-27.72044 168.80365-107.97396 206.83173-102.24035 46.26108-224.798841-11.43986-234.690511-131.24969-7.33455-123.78718 127.307171-194.136761 222.718561-137.24102-42.54074-27.89653-94.21826-33.44528-140.80825-12.98978-71.17376 32.62266-105.080851 118.0397-80.762351 190.63139 30.697281 88.13423 123.572931 132.04164 212.817841 105.59803 82.80488-25.06359 132.16266-100.33164 140.19255-180.04986 12.12434-145.020371-132.23823-245.3588802-265.59709-221.973611 7.92036-4.10499 20.5989-8.4277792 35.61563-11.7452592 60.06317-13.23825 124.63426-3.45807 179.45368 32.4903392 109.65077 71.904621 141.09454 217.803071 65.16008 333.599141-143.00482 218.07486-377.311781 117.06797-437.622951-1.79433" fill="#b21a1a"/></g><path d="m411.43555 167.57227-16.8125 6.42968-31.94532 12.2168 2.09961 5.48828-5.80468-.92578-8.23047 51.54883 5.80468.92578-3.70507 4.56445 40.52929 32.89844 3.70118-4.56055 2.0996 5.48828 48.75391-18.64648-2.09766-5.49023 5.80469.92773 8.23047-51.54688-5.80664-.92773 3.70313-4.56055-40.51954-32.90429-3.70507 4.56445z" fill="#861313"/><path d="m401.05264 190.814-15.1317 5.787 6.8067 17.7966-18.8181-3.0042-2.5542 15.9984 18.8163 3.0033-12.0096 14.7942 12.5775 10.2096 12.0087-14.7942 6.8067 17.7984 15.1308-5.787-6.804-17.7966 18.8136 3.0042 2.5542-15.9975-18.8136-3.0042 12.0069-14.7915-12.5748-10.2114-12.0096 14.7915z" fill="#ff8066" stroke-width="36"/><path d="m208.58785 301.30268 33.29588 12.03325 62.68064 22.64458 48.54978-46.44827 26.42283-25.2803-11.72756-62.2207-7.9424-42.13477-33.29492-12.02929-19.6211-7.08985-43.06428-15.55858-33.77739 32.31636-41.1914 39.41406 8.14942 43.22363z" fill="#861313"/><path d="m268.26758 145.93945-27.64453 26.45117 21.05468 22.59376c-4.16519 3.06899-7.75708 6.96201-10.58398 11.4746l-21.71875-23.30859-20.96094 20.05664 6.48438 34.39258 29.38476-6.4707c.0837 5.58989 1.15516 11.02025 3.00196 15.87304l-29.39454 6.47266 6.48243 34.39258 26.54883 9.59375 11.5625-30.65821c4.22099 2.9763 8.92603 5.06214 13.86523 6.14844l-11.18359 29.65821 35.01953 12.65039 27.64843-26.45118-21.05664-22.59375c4.1652-3.06899 7.75604-6.96291 10.58204-11.47461l21.71874 23.3086 20.9629-20.05469-6.48243-34.39453-29.38671 6.4707c-.0846-5.58989-1.15606-11.0183-3.00196-15.87109l29.39453-6.47461-6.48242-34.39258-26.55078-9.59375-11.56055 30.66016c-4.22099-2.9763-8.92604-5.06319-13.86523-6.15039l11.18359-29.6543zm10.64062 56.43946 25.27149 9.13281 5.31836 28.2207-19.95117 19.08594-25.26954-9.12891-5.32031-28.2207z" fill="#ff8066" stroke-width="36"/><path d="m376.71098 371.57812.0879-.0293.0859-.0312c5.72249-2.03273 12.11479-6.8146 15.05273-13.59961 6.18845-16.27047-5.41223-31.76085-16.48438-40.28711-14.87105-11.32988-38.20971-19.98026-61.01562-8.71875-26.00879 12.84339-45.01417 25.76983-59.01367 32.30664s-19.7761 7.77205-30.98242 2.1875c-19.19625-9.56599-26.32388-24.68357-28.97852-47.63867s1.33743-52.00828 6.38086-79.55664c2.01526-11.00797 10.92445-31.54796 16.19922-51.26953 4.60844-35.61307 1.86967-51.12311-31.34571-59.35356-20.98883 1.92183-33.49238 14.26663-43.48829 29.83008-4.00276-9.38653-14.44336-16.81902-23.32617-18.73438-16.15853-3.21734-32.396632 5.91908-40.556638 17.37305-5.692576 7.99051-9.352071 17.01672-12.146485 26.59961-6.612375-4.20402-14.810608-6.09594-22.363281-5.87405-18.567053 1.72265-23.656957 21.28586-26.673828 34.99314-3.050153 13.97381-5.278248 31.61558-6.699219 50.32031-1.42097 18.70473-1.9896078 38.32273-1.386718 55.77149.563763 16.31637 1.690784 29.99153 5.771484 41.9707 4.115344 24.73087 10.934928 53.47319 14.476562 77.82617.736659 14.48001 5.703201 29.9346-.380859 43.64553l-29.923828 35.0287v22.9588l212.72852.70296 19.85742-28.4082c20.17946-7.56297 27.06587-19.36952 37.38576-36.27344 19.30535-31.25366 69.59067-68.97313 106.73928-81.74024z" fill="#861313"/><path d="m186.62224 123.5885c-25.2603-.1044-44.9343 50.8797-51.9543 81.5472-10.134 44.271-13.0761 75.1635-.7452 119.7531l-15.6132 4.3182c-13.9167-50.3253-7.4205-85.275 2.0709-128.1069 9.4923-42.8328 13.068-63.3627-4.0131-66.7638-37.873804-7.5411-40.757404 81.4167-42.980404 121.4073-1.2564 23.2272.639 51.3153 5.886 69.7968l-15.2109 5.5764c-12.987-48.015-5.9913-88.1613-1.5237-135.693 2.2437-14.0238-1.6083-23.1093-17.1918-22.6494-14.2497.4203-24.3135 129.0258-11.9475 161.1369 7.8417 47.7549 28.1223 117.5148 9.8595 137.4894l-25.2846 28.5993h185.375704l17.9874-25.7328c20.772-4.5072 25.578-17.874 33.3207-30.4083 22.7619-36.8514 74.1456-74.8494 116.2026-89.3034 19.0278-6.759-19.7208-43.6914-48.4524-29.5038-49.5045 24.4458-73.4814 50.6682-105.9948 34.4655-50.2695-25.0506-42.5205-90.5832-32.2749-146.547 5.5269-30.1896 36.369-80.6418 6.4404-88.9416-1.3188-.1467-2.6376-.2934-3.9564-.4401z" fill="#ff8066" stroke-width="36"/><path d="m328.33203 50.943359-1.44726 5.697266-4.20899-4.099609-36.42187 37.390625 4.21093 4.101562-5.66015 1.597656 14.17773 50.238281 5.6543-1.5957-1.44727 5.69726 50.59375 12.84375 1.44727-5.69922 4.21289 4.10352 36.41992-37.39453-4.20898-4.09961 5.65625-1.5957-14.17383-50.238285-5.6582 1.595703 1.44726-5.697266z" fill="#861313"/><path d="m341.34844 72.819502-4.689 18.468-13.6485-13.2939-11.304 11.6046 13.6485 13.294798-18.3375 5.1732 4.4001 15.5916 18.3375-5.1732-4.689 18.468 15.7014 3.9861 4.6899-18.468 13.6494 13.2948 11.3031-11.6055-13.6512-13.2957 18.3393-5.1732-4.3983-15.589798-18.3375 5.1732 4.6881-18.468z" fill="#ff8066" stroke-width="36"/></svg>