<svg height="500.0004" viewBox="0 0 500 500.0004" width="500" xmlns="http://www.w3.org/2000/svg"><g transform="translate(-500 -500)"><path d="m999.99997 750a249.99997 250 0 0 1 -249.99997 250 249.99997 250 0 0 1 -249.99997-250 249.99997 250 0 0 1 249.99997-250 249.99997 250 0 0 1 249.99997 250z" fill="#ffe24c"/><path d="m1000 750.00632-194.05817-2.60063 192.98367-20.4591-193.45987 15.31075 190.28547-38.19139-191.22567 33.10816 185.92267-55.58184-187.34707 50.61663 180.01317-72.50831-181.88127 67.68555 172.56127-88.82024-174.86477 84.18876 163.62798-104.35075-166.35478 99.94311 153.30278-119.00625-156.40808 114.88758 141.65488-132.65651-145.14668 128.82271 128.82258-145.14278-132.65648 141.65492 114.88758-156.42029-119.00218 153.31093 99.94719-166.3385-104.34669 163.60764 84.17649-174.84041-88.81609 172.54909 67.67739-181.89345-72.48799 180.02133 50.6167-187.35925-55.5941 185.94294 33.1-191.23373-38.1995 190.27732 15.3474-193.45586-20.4957 192.97968-2.59249-194.05413-2.5681 194.05413-20.4916-192.97968 15.327 193.45586-38.2004-190.27732 33.1171 191.23373-55.5936-185.94294 50.6162 187.35925-72.51029-180.02133 67.69979 181.89345-88.81699-172.54909 84.17729 174.84041-104.36289-163.60764 99.96869 166.3385-119.00618-153.31093 114.86968 156.42029-132.64018-141.65492 128.81968 145.14278-145.14988-128.82271 141.67318 132.65651-156.42638-114.88758 153.29788 119.00625-166.34218-99.94311 163.62828 104.35075-174.86477-84.18876 172.54667 88.82024-181.87387-67.68555 180.00617 72.50831-187.35587-50.61663 185.94077 55.58184-191.21897-33.10816 190.28097 38.19139-193.47947-15.31075 192.98647 20.4591-194.04384 2.60063 194.04384 2.58435-192.98647 20.46723 193.47947-15.31481-190.28097 38.20361 191.21897-33.12445-185.94077 55.58997 187.35587-50.60849-180.00617 72.5083 181.87387-67.68553-172.54667 88.81211 174.86477-84.17656-163.62828 104.33851 166.34218-99.95936-153.29788 119.0103 156.42638-114.87941-141.67318 132.66054 145.14988-128.83082-128.81968 145.13868 132.64018-141.66304-114.86968 156.42028 119.00618-153.28243-99.96869 166.32222 104.36289-163.59543-84.17729 174.84852 88.81699-172.55719-67.69979 181.8975 72.51029-180.02538-50.6162 187.35108 55.5936-185.93884-33.1171 191.21336 38.2004-190.26101-15.327 193.47618 20.4916-192.99594 2.5681 194.05003 2.59249-194.05003 20.4957 192.99594-15.3474-193.47618 38.1995 190.26101-33.1-191.21336 55.5941 185.93884-50.6167-187.35108 72.48799 180.02538-67.67739-181.8975 88.81609 172.55719-84.17649-174.84852 104.34669 163.59543-99.94719-166.32222 119.00218 153.28243-114.88758-156.42028 132.65648 141.66304-128.82258-145.13868 145.14668 128.83082-141.65488-132.66054 156.40808 114.87941-153.30278-119.0103 166.35478 99.95936-163.62798-104.33851 174.86477 84.17656-172.56127-88.81211 181.88127 67.68553-180.01317-72.5083 187.34707 50.60849-185.92267-55.58997 191.22567 33.12445-190.28547-38.20361 193.45987 15.31481-192.98367-20.46723z" fill="#fffbb3" fill-rule="evenodd"/></g><g transform="translate(-637.20451 -68.550013)"><path d="m860.69468 552.88896-.67789 15.66145h64.81623l-1.64181-174.3745c-.7164-77.7463-1.34604-158.3547-2.09073-238.22847-.11939-13.13422-.18907-23.12532-.46521-33.84291-3.40313-15.91027-16.07207-23.085517-15.62231-22.655367-2.65284-2.53715-5.98881-6.017498-14.51665-5.895654-8.52784.121852-12.58964 3.493839-14.55247 6.185564-1.96286 2.691717-2.67973 4.853537-3.23951 6.694107-2.23905 7.3623-2.11933 12.52306-3.24604 21.1188l-.59644 19.15521s-3.22207 166.35952-4.80464 244.3335c6.6587 66.14364-1.046 108.19061-3.36253 161.84827z" fill="#f2c80d"/><path d="m890.02764 104.91626c-4.0472-.12858-3.62221 9.95394-5.65175 18.26709-.11572 5.42977-.34512 16.28916-.34512 16.28916l5.76123 4.54219-5.91523.36738s-3.22089 166.34889-4.84092 243.44121c6.80562 67.03467-1.0688 110.57967-3.33613 163.09755h33.97363l-1.45469-154.31191-6.26777-3.7332 4.94667-3.89278c-2.21629-.63312-4.06136-1.50817-5.07841-2.73496-.25529-.30793-.46212-.63498-.60674-.98896-2.87703-6.99896 2.10103-18.22828 6.68339-25.65372-.0332-3.78979-.0654-7.73491-.0983-11.55214-5.05542-2.89723-8.90076-6.11306-11.7748-9.57979-12.60806-15.20805-6.80324-35.16521-5.05245-53.43193 1.82342-19.04722 1.9553-44.99112 15.73623-65.10097-.28556-33.5569-.58002-66.88138-.90547-98.72949-1.82527-8.12862-7.72799-10.22894-11.16992-13.5208-1.98667-1.90004-3.4702-2.73793-4.60342-2.77393z" fill="#fffdcc"/><path d="m892.42858 123.60821c-7.62773 10.97246-.38595 24.63836 5.75752 35.15557.26775-6.41283-1.43616-12.99496-2.95762-19.33213-1.08028-4.52972.48771-12.01192-2.7999-15.82344zm13.43916 4.73887c-3.51525 6.34701-2.2186 13.74555-1.87217 20.71816.43747-2.25876 1.16813-4.51663 2.00576-6.77431-.0447-4.61622-.0878-9.37697-.13359-13.94385zm-1.87217 20.71816c-.45501 2.34937-.61014 4.70013-.2208 7.05078.35245-2.25622.34111-4.62936.2208-7.05078zm-13.44844 8.54629c-3.92553 6.7939-6.00177 14.63283-7.36064 22.06338-.11177 5.74886-.22594 11.64701-.38408 19.75517.11017 1.38625.00086 2.78279-.0816 4.17852-.0203 1.04291-.0274 1.34474-.0483 2.41582.0375 1.34377.22865 2.67977.83125 3.99483 3.48147-8.1681 2.10669-17.63962 2.76836-26.05079.6875-8.67957 5.33968-17.63508 4.275-26.35693zm6.91348 22.70908c-2.16272 7.1569-3.3721 15.1636-2.7832 22.57549.47678 5.94149 3.66383 10.04409 4.87617 15.95704.27421-7.17535-1.39156-14.54298-1.38418-21.85187-.00047-5.16153 1.72285-11.71914-.70879-16.68066zm-9.03613 39.07432c-4.04538 6.9487-5.05097 16.8392-5.64063 24.2417-.74221 9.42667-.35611 19.07438 2.78135 28.15674.60332-9.69691-.56836-19.53126.69394-29.34053.99613-7.74244 1.94445-15.25337 2.16534-23.05791zm18.28193.54551c-13.78099 20.1101-13.9128 46.05375-15.73623 65.10097-1.75079 18.26672-7.55561 38.22388 5.05245 53.43193h-.002c2.87449 3.46726 6.72035 6.68556 11.77666 9.5835-.36433-42.17763-.72358-84.93911-1.09102-128.1164zm-14.7417 123.74677c-1.40394 9.43303-3.01236 21.05965 4.01895 29.80625.004-9.02541 2.70088-21.966-4.01895-29.80625zm-9.92861 13.76943c-.17829 1.84871-.23977 3.79259-.22266 5.80206.11398-1.92729.20102-3.85908.22266-5.80206zm-.22266 5.80206c-.49473 8.36596-1.73455 16.58922-2.75908 24.75937 1.62987 16.11109 2.40946 30.85857 2.62549 44.70752.10572.2831.20119.56649.31171.8498.009-14.43655 1.41621-28.74263 1.41945-43.18603.004-8.65953-1.52405-18.49808-1.59757-27.13066zm26.08232-3.65713c-4.58267 7.42516-9.56265 18.65572-6.68525 25.65556.14494.35388.35145.68104.60675.98897h.008c1.01673 1.2264 2.86082 2.10186 5.07656 2.73496l1.23574-.97227c-.0841-9.12004-.15941-19.08792-.24121-28.40722zm-7.69833 31.66728c-4.56629 5.34464-5.32211 12.14272-6.16573 17.9294-.90938 6.21234 3.97441 4.71644 4.02452 10.93984.005-9.80332 1.77933-19.24056 2.14121-28.86924zm-4.93926 37.81816c-.003.56078-.0335 1.12557-.0779 1.69219.12296-.59333.16311-1.16252.0779-1.69219zm-.0779 1.69219c-.79399 3.83122-5.39691 8.77805-7.08232 12.14775-2.31069 4.63332-4.7878 9.44201-6.09893 14.16837-.22848.82563-.413 1.6052-.57706 2.36572-.10752 3.32252-.23469 6.61033-.38779 9.85996.50756 3.28779 1.60843 6.61319 3.02813 10.89902-.028-8.66127 1.95849-17.74326 4.36406-26.35322 2.07901-7.46184 6.16073-15.51591 6.75391-23.0876zm13.37978 2.03545c-.86459 1.52009-1.75082 3.02865-2.71269 4.50323.91718-1.06958 1.82151-2.19656 2.72383-3.34727zm-4.9708 13.50411c.4611 15.8508-2.83122 31.37677-4.01709 47.06395-.98723 13.01683 6.12609 21.71676 9.59834 33.91611.71525-5.21401-1.31834-10.87581-2.08554-16.07207-1.20162-8.12527-1.39247-16.17807-1.38418-24.38456-.00065-7.80639.005-15.61501.013-23.41973-.003-5.19061 1.93743-12.3496-2.12452-17.1037zm-12.58378 42.66093c.59083 11.10313.0202 24.26379.0167 36.20762-.007 9.51779 4.03685 13.49545 6.96729 22.27676.004-9.66653-.62438-19.42799-2.07442-29.00841-1.46137-9.6026-.87213-20.14675-4.90956-29.47597zm-11.31465 2.82773c-.24494 3.47008-.50453 6.9167-.76446 10.36279.0256.10449.0607.21641.0835.31915 1.798 8.10003 3.69595 18.39273 5.72968 26.47753-.0754-9.62554-1.05613-19.46199-2.62548-29.00654-.46607-2.8336-1.34151-5.52031-2.42324-8.15293z" fill="#ffe24c"/><path d="m778.08985 247.47016 239.12515 19.0796 1.0103-15.52128 1.7241-26.56786-3.5231-2.4834 1.9782-12.62561 6.2868-36.09086-242.70362-14.90311-31.47113 16.25948-.36989 3.54098-27.35076 15.75957-5.08018 3.95889 1.53271 6.3756 27.04927 24.21768z" fill="#f2c80d"/><path d="m1003.2402 250.05394 1.18-18.1645-4.2731-3.00888 3.4431-21.97925-10.81319-4.31345 11.69649-.75673 2.5777-14.80564-221.93513-13.38051-20.49998 10.59126-.41325 3.9739-25.77791 11.89633 15.0211 14.54262 22.74277 3.92684-16.19323.58513 22.9238 13.70166z" fill="#fffbb3"/><path d="m793.84938 174.17159c6.90804 3.27737 14.62411 5.97186 20.46768 10.02138-5.30877 4.16177-21.81251-.21534-28.25323-.69765-5.96389-.44447-12.03051-.62209-18.0704-1.00381l-3.37696 1.74414-.0909.86836c4.79631.68394 9.60221 1.33828 14.42812 1.93525 10.44402 1.28837 21.09541 3.49085 31.57637 3.87051 6.92934.2531 18.42713 1.9502 24.58495-1.47139-4.55258-6.90256-18.43757-10.99737-28.88593-14.52089zm-10.19023.22637-5.18418 2.67743c4.50286.66123 9.05314 1.23658 13.76758 1.66622-2.82593-1.49546-5.69765-2.9297-8.5834-4.34365zm62.20644 2.90937c6.19651 3.44066 12.32864 6.98973 18.40625 9.87852 8.68977 4.13308 21.62192 10.77369 31.25909 9.78574 1.01808-7.13394-15.78286-14.36024-22.46417-18.02402l-5.03017-.30244c.19997.11096.43439.2333.62529.3414 2.82422 1.60363 10.05958 4.5608 11.84346 7.47383 3.6172 5.9076-2.83001 4.3872-7.24375 2.77022-7.35772-2.69186-15.12896-7.56172-22.60146-11.6338zm44.5461 2.68672c19.36445 18.47753 42.79927 37.02555 59.39912 39.07432 11.96919 1.47868 23.06199-1.19462 34.50058-1.31924 5.68118-.0607 11.62259-.14969 17.60471-.16143l.7273-4.64609c-17.70407-1.01131-35.75249 1.96643-53.23894.66982-14.0175-1.03935-34.36247-17.13166-52.70274-33.23886zm27.53144 1.65879c16.34327 16.88593 36.20744 32.33012 52.18505 29.63554 11.0767-1.86949 22.01114-2.0701 33.05152-1.77382l.41-2.6125-5.13408-2.04844c-.15419-.0174-.3248-.0294-.475-.0483-11.54123-1.44863-20.85997-.49609-31.99384-.0483-11.83839.48187-21.1892-5.55967-30.77852-13.11444-2.29587-1.81096-6.31914-5.36298-10.98066-9.60948zm18.64746 1.12442c7.35394 8.35193 15.5958 16.16681 25.85781 17.84404 8.78858 1.43845 27.08025.53664 42.5144-1.59941l1.1132-6.39767c-10.07481.39265-20.69458 1.70111-25.7316 2.39171-6.9037.945-14.02679-.67686-20.59756-2.17091-7.06147-1.60761-11.83199-5.47167-16.41162-9.66142zm-182.98632 10.32382-3.68496 1.70147c20.48759 3.96687 40.99341 7.14028 62.34003 7.69277 14.8704.38786 29.43216-.90301 44.73535.38594 18.09335 1.52682 36.28984 7.12301 53.18516 13.46513 19.72936 7.40376 42.74077 11.84668 63.94687 12.27764 8.67328.17533 17.26624-1.31905 26.00258-1.77569.1138-.006.2275-.024.3414-.0315l.5956-3.80185c-19.473.0159-39.02014 1.15037-58.28401-1.36748-25.48238-3.32942-47.36351-14.32814-71.86973-19.88506-24.76953-5.61876-49.89527-1.82354-74.40058-3.36211-14.76837-.92724-28.87332-3.04938-42.90771-5.29922zm-12.73965 9.36826 2.33789 2.26182c3.46673.24457 6.96958.40617 10.47783.49727-4.24484-.83954-8.527-1.80625-12.81572-2.75909zm12.81572 2.75909c2.88229.57343 5.75086 1.08476 8.59268 1.46952 13.31786 1.80888 26.91972 2.57692 40.35087 3.00772 14.37101.46408 29.06613 1.34526 43.26026 2.43252 16.12726 1.23758 30.29896 6.60133 45.81337 10.35351 19.5675 4.73355 39.25188 9.9242 59.54014 12.18858 12.5707 1.4046 22.85956.73514 34.97373.43974 5.90951-.14599 12.04705.21921 18.01101-.17997l.1429-2.18389c-2.4723.38051-4.93245.74409-7.34766.83867-5.79514.22214-12.27952-.308-18.40439-.7626-13.99985-1.03809-27.78381-2.92022-41.59405-4.65165-13.07337-1.64022-26.04902-2.93683-38.51582-5.16378-12.64249-2.25768-23.4889-6.48657-35.73632-9.79872-24.39913-6.59929-50.43106-7.12156-75.86269-7.77999-9.94831-.25794-21.57587.0923-33.22403-.20966zm-2.02617 7.68534 1.79238 1.73486 7.31611 1.26358c.12031.003.23958.003.35997.006 12.89579.33425 25.95317 2.52179 38.92216 3.48272 24.25504 1.79934 48.12088.21986 71.88643 6.0414 25.46521 6.23417 51.78015 13.62204 77.99834 16.83096 11.71729 1.43407 23.56429 2.35079 35.30585 2.03545 6.1042-.16453 12.28671-.39545 18.40069-.33955l.08-1.2376c-2.9447-.36536-5.8553-.95553-8.71885-1.31738-9.99511-1.265-20.12579-1.37441-30.17178-1.65322-9.74645-.27378-20.34516-.0429-30.17177-1.66065-9.30783-1.53333-18.28944-6.26164-27.54443-8.88955-9.56049-2.71103-19.12289-3.99951-28.55567-6.76875-10.84552-3.1867-21.95456-5.82621-33.28339-6.66485-11.06132-.81986-22.14332-1.27517-33.07559-.5789-5.4771.3499-10.55407 1.70135-16.13145 1.58272-5.06744-.11135-9.69527-1.43012-14.75468-1.54746-9.89106-.23179-19.8905-1.55812-29.6541-2.31934zm14.63594 10.01026 6.72421 4.01894c10.58057 1.15518 21.21062 1.90772 31.88809 2.69971 25.71398 1.90656 51.05343.63061 76.25977 5.0877 9.94877 1.75953 19.95749 2.36829 29.99921 3.92432 7.47358 1.16099 14.76288 3.67508 22.09492 5.93935l6.60919.51582c-18.45992-3.00903-35.87102-11.02113-55.01465-12.44463-11.72783-.87102-22.08852-4.56906-33.46153-5.96719-11.69841-1.43662-24.03798-1.72366-35.53222-.29502-16.40042 2.04232-32.97743-1.51341-49.56699-3.479zm84.8246 11.89541c-3.5796-.007-7.11157.0997-10.55205.34697-4.13015.29571-8.09391.78598-12.04385 1.2543l84.03789 6.55723c-9.62413-2.34116-19.28396-4.50465-29.14569-5.76681-10.39108-1.32961-21.5575-2.37149-32.2963-2.39169zm109.20176 11.88614 42.92443 3.34912.091-1.39346c-14.16505-1.32923-28.72547-1.3999-43.01534-1.95566z" fill="#ffe24c"/><path d="m841.60156 180.61719c-2.49968-.0252-4.83881.36442-5.5332 1.85351l.006.0566c-.55533 3.45571-1.38915 7.51803 1.92969 10.26368 2.62895 2.17357 5.7627 3.48479 9.23437 4.20703 4.55908.95169 9.56574 1.64761 14.16602.77148 4.22925-.80969 10.51124-2.84782 5.93359-7.85742-2.59393-2.83485-5.06712-6.21568-9.3125-7.20508-3.29177-.76932-6.57674-1.0417-9.92578-1.45898-1.33823-.16666-3.99836-.60561-6.49805-.63086zm105.50586 2.79492c7.99724 6.97907 29.9282 16.86614 46.39063 4.73437l.88476-1.88476c-1.48342-.228-2.48178-.115-3.00195-.18164-18.71652-1.13086-33.60448-2.00482-44.27344-2.66797z" fill="#ffe24c"/><path d="m843.07617 183.87109c-3.51635-.007-7.62031 3.36437-1.80273 6.62696 7.1595 4.01738 20.80339 7.81578 20.88086 2.64257.0493-3.49554-8.75716-7.47006-11.5918-7.93359-2.31681-.38224-4.85304-1.17439-7.14648-1.32422-.11186-.007-.22642-.0115-.33985-.0117zm119.9375.15821c-1.65484-.006-3.27714.0118-4.85742.0488 6.00145 5.89283 17.63603 10.75648 27.24609 1.64258-7.45083-1.20446-15.21768-1.66645-22.38867-1.6914z" fill="#f2c80d"/><path d="m995.34358 275.9274-221.0459-3.94845.17752 15.57508.30146 27.11865 3.56052 2.37096-1.01029 14.52889-3.17759 37.46944 224.08834-.78218 28.52816-19.81833.086-3.76423 28.8377-19.57023-6.7222-11.85616 7.726.3696-29.8945-20.13811z" fill="#f2c80d"/><path d="m789.49057 287.38681.21443 19.1882 4.21966 2.81413-1.62771 23.38229 30.22361 3.32872-30.68246 2.07241-1.33821 15.77175 203.00208-.67664 18.42563-12.80336.098-4.21049 23.2727-14.6054-15.1209-14.06059-21.58007-2.27318 15.11977-1.93523-22.45948-12.53233z" fill="#fffbb3"/><path d="m855.15406 288.513c3.8391.75422 7.69621 1.51414 11.721 2.12079 14.56532 2.19916 30.87821 2.27013 45.7707 1.70703 8.61609-.326 17.14086-1.25925 25.63516-2.40282zm106.18477 1.8202c-6.3285 1.31917-12.65662 2.59124-19.03711 2.99474-10.81625.68007-21.51759.41201-32.25175 1.30439-27.1961 2.26004-54.06126-1.24346-81.58682-1.58643-13.0225-.16191-25.97523-.36722-38.90918.0352l.0352 3.21738c16.90317-.62975 33.87591-2.34681 50.26465.95928 12.11545 2.44128 25.27266 3.23715 37.84228 2.82217 12.22011-.40492 23.55323-3.20722 36.10742-3.05225 17.24983.21144 33.57897-4.35905 50.18115-6.64815zm33.61738 2.57725c-3.70091.0113-7.40153.067-11.09384.18741-28.16985.91923-56.78672 6.02186-84.40527 10.04179-25.77542 3.75509-51.04546.0776-77.00938-.24492-10.89086-.13619-21.90021.46849-32.78056.35625l.0204 1.84063c4.16926.0114 8.33654.0905 12.47246.33955 5.39455.32605 10.42827-.59072 15.83086-.25791 5.94592.3702 11.23831 2.17259 17.03877 3.004 11.57791 1.65734 23.40964 2.17155 35.2502 2.31933 12.12686.15242 24.17099-1.52127 35.97753-3.76659 10.26844-1.95049 20.55152-2.40339 30.95108-4.28429 10.06755-1.82431 20.01595-5.77985 30.04932-6.50156 10.59241-.76094 21.85393.4013 32.2499.98155.98132.0551 1.96592.11367 2.94832.1707zm-5.38271 7.8876c-1.61468-.0165-3.26161-.007-4.94854.0315-21.78039.49189-43.15806 3.97058-64.37548 7.00254-16.82252 2.40306-32.34834 6.54111-49.61523 6.36797-15.19701-.15435-30.91012-.55949-46.24385-1.35449-10.16156-.52892-20.4275-.8861-30.64864-.82383l-.18739 2.68486c4.78071.40596 9.43317.7911 13.75087 1.04093 27.12189 1.57018 54.87235 3.3293 81.38643-1.1504 13.30902-2.24821 25.2019-5.53872 38.84423-6.69453 13.45275-1.14037 27.37162-1.30119 41.42148-1.79981 10.3453-.36629 20.68393-.80172 31.07352-.97225l13.686-1.75158-1.8128-1.01122c-7.3737-.80396-14.48557-1.49024-22.3306-1.56973zm5.99688 7.71319c-18.89623.00056-38.59914 2.47821-56.15763 7.10644-18.50634 4.87992-38.33654 8.89674-57.71991 8.84131-16.39407-.0493-31.78392-2.61943-47.64287-3.53467-13.84266-.80152-27.43461-.60865-40.93906.15586l-.19854 2.85557c7.89984-.32552 15.88516-.47418 24.03388-.28574 26.20874.60606 52.63879 6.61607 79.46602 3.15244 26.54189-3.42471 50.73899-12.53862 78.13565-13.64326 18.31488-.73928 36.63088 1.40094 54.95528 3.10048l-5.6778-5.28067c-5.0951-.89559-10.1807-1.7409-15.3354-2.06699-4.2386-.26771-8.5571-.40091-12.91777-.40077zm-11.35547 7.81894c-.79432-.003-1.59344.009-2.39727.0353-18.9656.63704-47.69797 19.30241-70.59501 37.17617l6.62031-.0222c21.92125-15.50657 47.05022-31.91533 63.08964-31.71553 15.41401.19198 30.99452 3.3231 46.58342 4.72774l6.919-4.3418c-5.4408-.47706-10.8277-.9957-16.0071-1.4751-11.4038-1.05781-22.29837-4.336-34.21299-4.38447zm11.32207 8.89697c-16.56659.47871-36.75937 13.94936-53.53955 28.21241l6.59433-.0222c6.54228-4.78651 12.35952-8.91669 15.41709-10.82109 10.83065-6.73718 21.28186-11.97917 33.8419-10.45743 6.09775.736 11.67255 1.5578 17.34305 2.12636l7.7373-4.85575c-6.7264-.75301-13.4272-1.8199-20.1318-3.46045-2.3211-.56765-4.74968-.79438-7.26232-.72178zm-168.49512 7.04522c-9.44871-.10696-19.0747.81868-28.50928 1.18564l23.9875 2.64218-22.13945 1.49551c1.40926.0387 2.81563.0721 4.21749.089 6.89486.0811 24.82104-2.86096 30.12724 1.7794-7.85089 4.2518-18.41391 6.30334-27.02861 9.93417-3.49135 1.47298-6.96725 2.97212-10.41289 4.52364l5.81689-.0204c1.59793-.0641 3.19679-.12773 4.79268-.19112 2.92633-1.24274 5.89074-2.41082 8.92665-3.41963 10.52279-3.50289 33.52784-5.89532 40.4752-14.26484-6.27105-3.97235-18.64925-3.27723-26.04522-3.63115-1.39831-.0674-2.80074-.10652-4.2082-.12246zm91.18515 1.13554c-9.68755-.12638-21.69485 4.4741-30.08642 7.43487-10.42485 3.6753-21.10229 8.9658-31.89551 12.88252l3.38438-.0111c2.2819-.54713 4.52226-1.1567 6.66113-1.90185 10.15361-3.54377 21.37439-9.62536 31.5875-12.23125 4.8313-1.23488 11.81946-2.19465 7.48125 3.41406-2.13943 2.76562-10.08547 5.098-13.22392 6.45888-2.76687 1.19608-6.40728 2.57766-10.20508 4.18595l7.67979-.026c1.93944-1.14819 3.90202-2.22746 5.91523-3.16914 6.23721-2.9138 27.22035-8.96178 26.69463-16.6751-1.27192-.22955-2.60903-.34376-3.99298-.36181zm77.99835 2.46778c-.88712.014-1.71621.0478-2.48077.10205-11.89928.84164-21.89629 9.00599-30.91582 17.39131l7.01182-.0222c5.91392-4.37589 11.70335-8.67704 20.38418-9.8043 5.98405-.77553 12.39283-1.60184 18.60293-.92402l3.1005-2.1542.084-3.59033c-6.072-.68975-11.5807-1.0646-15.78634-.99824zm-185.44483 7.12129c-6.66276.023-13.04722.3283-19.41562.75517l-.56035 6.59619c6.71237-2.36278 13.42606-4.73197 19.97597-7.35136z" fill="#ffe24c"/></g></svg>