<svg height="500" viewBox="0 0 500 500" width="500" xmlns="http://www.w3.org/2000/svg" xmlns:xlink="http://www.w3.org/1999/xlink"><radialGradient id="a" cx="1362.7291" cy="216.11429" gradientTransform="matrix(1.0000001 -.0000059 .0000001 1.0000003 -112.72927 33.893757)" gradientUnits="userSpaceOnUse" r="250"><stop offset="0" stop-color="#ff851a"/><stop offset=".42441937" stop-color="#f87000"/><stop offset=".86367416" stop-color="#f26900"/><stop offset="1" stop-color="#e55f00"/></radialGradient><g transform="translate(-1000)"><path d="m1500 250a250 250 0 0 1 -250 250 250 250 0 0 1 -250-250 250 250 0 0 1 250-250 250 250 0 0 1 250 250z" fill="url(#a)" stroke-linecap="round" stroke-linejoin="round" stroke-width="1.002"/><path d="m1309.2298 33.82789c128.5196 30.706851 207.8974 167.48127 169.5927 291.56949-31.3771 95.69524-112.8693 162.03793-212.5543 174.60263 153.1796-8.09118 266.0956-163.0043 218.7012-309.92978-36.4562-114.666588-154.6038-191.5214848-270.6514-169.822657-18.8526 4.215647-38.4387 10.498641-55.8829 18.694487-112.5353 47.459213-168.47522 196.206-99.9632 307.85319 57.6978 93.63045 168.5136 141.8489 267.9993 100.77239-134.92 68.97589-303.283-51.46877-311.488-201.30723-4.4167-117.68321 76.8182-219.674136 190.654-246.26040176-89.0147 9.18391126-152.6601 79.39239576-187.7408 157.21169176-38.45522 102.70317 5.2337 231.75078 109.038 294.08388 114.5107 66.1048 260.3537 29.37245 323.6836-83.60152 42.2104-77.69758 34.3514-177.62383-23.1776-249.88923-57.5404-72.257811-157.5429-102.460489-246.4118-71.877168-81.7429 30.682061-131.1298 101.133078-134.0478 190.176958.6692 92.68536 61.7912 168.55972 147.5399 198.52472 128.5549 37.82014 266.7725-70.33038 233.6823-209.88949-14.7104-64.39775-57.8855-122.14991-125.7378-141.121386-71.391-15.467036-138.9716 1.205-181.2869 64.641366-18.8995 29.2286-28.9384 85.21395-26.105 97.65297m0 0c13.5324-50.18833 30.6277-97.66354 72.2125-128.94941 53.182-38.308183 124.4576-37.093813 181.7444-.48035 50.1457 36.48017 75.4845 90.37713 72.3557 150.91678-6.6674 64.04407-38.4038 109.83277-91.6401 141.00844-63.9019 34.56125-135.3795 4.83213-189.1258-35.28385-78.8706-65.48566-79.7477-186.67235-8.9744-256.76104 63.7369-55.941605 167.0207-64.891564 238.7167-6.65053 78.8163 58.35315 90.3045 169.04089 40.972 246.62443-35.2274 56.41892-88.4571 87.60135-152.5581 93.63158-81.9488 2.18264-160.666-41.91503-196.8695-120.9383-36.2055-79.02511-22.5771-164.33167 26.8727-227.66064 49.4316-63.30896 138.3491-86.746364 220.4504-67.54202" fill="#c50"/></g><g opacity=".8"><path d="m205.63672 0c-68.85383 7.1038527-122.451688 50.773684-159.468751 106.18164-2.234858 3.14543-4.366196 6.35918-6.451172 9.60156 69.696363 15.66361 145.293273 45.30321 204.189453 85.41992 24.06033 16.38853 45.02994 34.233 62.0332 53.34961-21.56214-17.56901-45.34099-28.97985-57.04297-31.82617 0 0-24.17512-5.67879-36.05664-3.51953-17.70935 3.21836-31.97807 6.95821-48.46093 23.82031-23.06477 29.12946-20.4719 66.86655-4.95118 100.57032 0 0 8.82884 29.2913 14.44532 43.5 5.49939 13.91254 18.80078 40.75195 18.80078 40.75195 27.2901 43.94331 80.23727 62.84553 131.56055 65.39648 51.32328 2.55097 103.07035-10.03301 133.94726-40.91406 44.46184-44.46698 50.17034-115.05289 28.51953-189.38086-21.65097-74.32853-70.7252-154.87289-142.09179-226.244139-9.81163-9.81093-19.83549-19.220309-29.99219-28.2285154-20.61732-5.5025415-42.26574-8.4785156-64.61719-8.4785156-41.89096.22254552-83.05452 10.968277-119.70898 31.25 22.77517-14.173791 48.11263-24.8897292 75.3457-31.25z" fill="#994100"/><path d="m250 0c-11.45038.06083007-22.83321.98063606-34.09766 2.59375 129.41018 80.224237 222.90457 195.65511 218.36914 276.94336-.37482 6.73424-1.86472 12.92817-3.53125 18.83008-11.11361-89.39842-122.06242-209.742748-263.86328-283.546878-12.56324 4.511271-24.82605 9.922687-36.58593 16.429688 10.8038-6.723588 22.20211-12.639398 34.08789-17.710938-1.68809-.86987-3.37178-1.745115-5.06836-2.601562-18.39028 6.883368-35.37424 16.513376-50.94922 28.212891 162.7194 63.828529 295.17697 180.175779 297.07812 260.980469.131 5.82634-.56963 11.34243-1.76562 16.47852-18.37211-80.05118-145.25815-186.25928-298.33985-245.402349-8.007413-3.093734-15.892067-5.9123-23.728511-8.636719-11.29859 11.41476-21.635365 23.925657-30.984375 37.214844 156.763226 36.921264 336.393046 140.815864 318.294926 283.128904-9.60218 75.51466-113.98614 76.85461-160.95118 35.43946 45.6703 73.53961 187.60028 71.14664 237.48828 21.25195 76.38418-76.39131 25.38116-251.20941-113.57031-390.171876-17.25773-17.257408-35.15219-33.28343-53.25976-47.7539065-9.39864-1.07196077-18.93751-1.6796875-28.62305-1.6796875zm-24.69922 237.90234c-21.7102.0353-35.53934 4.82062-45.55664 14.83985-18.80132 18.80409-18.81037 51.09287-3.9668 83.32617 1.36324-13.95319 6.24681-26.53107 15.86914-36.1543 27.87454-27.87614 81.07208-20.31817 118.58204 17.19532 23.44019 23.4444 35.15855 53.26193 33.9414 78.9121 15.14687-30.32475 1.19722-78.1586-36.14648-115.50781-27.55512-27.55968-61.01246-42.64664-82.72266-42.61133zm10.20313 64.32813c-12.90298.10075-22.99811 4.57927-26.61329 13.11523-6.42831 15.17549 10.05631 37.42867 36.81446 49.70508 26.76114 12.27743 53.66354 9.92643 60.08984-5.24805 6.42832-15.17548-10.05632-37.43061-36.81445-49.70703-11.70801-5.37087-23.44113-7.94283-33.47656-7.86523zm-41.33399 22.39648c-11.55688 19.2515-.91116 49.61291 27.58203 73.32032 32.81969 27.3078 76.60903 35.32544 97.87891 17.63281 14.34384-11.93381 14.35152-32.43087 3.02539-52.89258-1.03982 8.8574-4.76624 16.83972-12.10742 22.94922-21.26988 17.69465-61.85932 12.89914-90.48047-10.91406-17.88443-14.88529-26.82642-33.8138-25.89844-50.09571z" fill="#ffa348" stroke-width="36"/></g></svg>