<svg height="500" viewBox="0 0 500.00052 500" width="500.00052" xmlns="http://www.w3.org/2000/svg" xmlns:xlink="http://www.w3.org/1999/xlink"><radialGradient id="a" cx="249.99972820373" cy="749.99976820373" gradientUnits="userSpaceOnUse" r="249.99974820373"><stop offset="0" stop-color="#d5f6ff"/><stop offset=".09472227" stop-color="#d5f6ff"/><stop offset=".20889115" stop-color="#aef"/><stop offset=".41332352" stop-color="#80e5ff"/><stop offset=".54340753" stop-color="#5df"/><stop offset=".74956214" stop-color="#2ad4ff"/><stop offset="1" stop-color="#0cf"/></radialGradient><radialGradient id="b" cx="250.00002" cy="749.99994" gradientTransform="matrix(.0000002 -.99999765 .99999791 .00000003 -499.99869 999.99909)" gradientUnits="userSpaceOnUse" r="250.00026"><stop offset="0" stop-color="#d5f6ff"/><stop offset=".80876225" stop-color="#d5f6ff" stop-opacity=".498039"/><stop offset="1" stop-color="#d5f6ff" stop-opacity=".1"/></radialGradient><g transform="translate(0 -500)"><g><circle cx="249.99974" cy="749.99976" fill="url(#a)" r="249.99974"/><path d="m250.59514 750.55994c-.0408.006-.1266-.0175-.17105-.0361-.0445-.0186-.0476-.0324.0769-.007-.12491-.0254-.10839-.0312-.0548-.0267.0536.004.14433.0192.16778.0347-.0232-.0155.0811.0108.16055.0336.0795.0228.13397.0421.011.0128.12284.0293.0546.0293-.0341.0205-.0887-.009-.19795-.0265-.15713-.0326l.00037.0004zm-.0786.0862c-.017-.008-.002-.009.013-.007.0154.001.0314.005.0172.007.0132-.002.024.002.0271.005.003.003-.002.006-.0191.003.017.004-.002-.002-.0199-.007-.0183-.005-.0364-.001-.0186-.001h.00015zm.39012.51097c.18919.17747.0741.10822-.0693-.00052-.14334-.10874-.31494-.25696-.23878-.23744-.0762-.0193-.15024-.0749-.175-.10563-.0248-.0307-.00021-.0365.1209.0437-.12095-.0799-.20967-.16284-.22861-.19259-.0189-.0298.0319-.006.19011.12629-.15799-.13264-.24085-.20382-.24329-.20725-.002-.003.0756.0609.23929.19925-.16384-.1385-.24576-.20775-.24576-.20775s.0819.0693.24576.20775c-.16384-.1385-.2604-.23503-.27055-.25406-.0102-.019.0661.0394.24785.21096-.18141-.17161-.27698-.25742-.28041-.25742-.003 0 .0853.0858.27241.25742-.18727-.17161-.28091-.25938-.28091-.26036 0-.00099.0936.0848.28091.26036-.18727-.17554-.276-.26135-.27254-.26036.003.00098.0991.0888.28054.26036-.18141-.17161-.26239-.25452-.25564-.25206.007.002.10124.0902.27074.26006-.1697-.16969-.25455-.25453-.25455-.25453s.0849.0848.25455.25453c-.1697-.16969-.2643-.25746-.27106-.25992-.007-.002.0743.0804.25596.25192-.18141-.17161-.2536-.22524-.24103-.20279.0126.0224.10991.12097.26753.25369-.15798-.13264-.18728-.17361-.15374-.1561.0335.0175.12991.0935.22324.1948-.0935-.1014.084.0693.23753.22092.15356.15164.26962.0942.0939.10673h-.00007zm3.66289 1.60326c1.17612.62414-.0829-.0449-1.34871-.71678-1.26582-.67193-2.53847-1.34678-1.38967-.73434-1.1488-.61244-1.74564-.92744-1.76017-.93376-.0145-.006.55325.29602 1.73367.91826-1.18-.62219.0995.0566 1.37996.73482 1.28047.67827 2.56191 1.35605 1.38579.73191l-.00044-.00006zm-2.41463 2.46924c0 1.05323-.0439-.0868-.56366-1.22877-.51978-1.14197-1.03957-2.2859-.56366-1.24047-.47591-1.04543-.71387-1.57595-.71387-1.58136 0-.005.23796.51427.71387 1.56926-.47591-1.05519.0439.0917.56366 1.239.51979 1.14734 1.03958 2.29516.56366 1.24193v.0002zm-1.62663-4.26364c-.004.002-.0156-.0157-.0223-.0279-.007-.0122-.008-.019.007.005-.0151-.0232-.0161-.0309-.0118-.029.004.002.0138.0135.0198.029-.006-.0155.008.006.0189.0261.011.0201.0195.0386.004.017.0151.0216.009.0177.00093.008-.009-.01-.0198-.0256-.016-.0279h-.00025zm-.0896-.14045c.006.0155-.009-.006-.0211-.0261-.0121-.02-.0215-.0386-.005-.017-.0151-.0216-.0131-.0216-.007-.0142.006.007.0166.022.0182.0297-.002-.008.0115.0108.0216.0258.0101.0151.0168.0267.001.005.0151.0216.0161.0285.0118.026-.004-.002-.0138-.0142-.0198-.03l.00025.0003zm-.10167.30429c.008.0293 0-.0107-.008-.0478s-.0165-.0714-.0109-.0307c-.006-.0409-.005-.0575-.002-.0555s.008.0224.01.0555c-.002-.0331.005.009.01.0492.005.0405.009.0794.001.0404.008.0393.0113.0508.0113.0453 0-.006-.004-.0282-.0113-.0574l-.0002.0005zm.20674-.95957c-.28235.20633-.40371.25065-.38125.22195.0225-.0287.1805-.14171.43225-.28385-.25162.14238-.31209.19407-.26729.18087s.19489-.0913.36439-.20847c-.1697.11705-.30817.18923-.34518.19893-.037.01.0275-.0431.26358-.17593-.23604.13265-.21639.0897-.12171.0146.0947-.0751.26438-.18239.32845-.17852-.0643-.004.18737-.15612.38142-.25898.19406-.10286.33055-.15645.036.0366.29452-.19312.0887-.0439-.15313.12434-.24186.16824-.5198.3555-.36958.23845-.15023.11706-.22923.17558-.23166.17558-.002 0 .0717-.0585.22766-.17558-.15609.11706-.29849.21945-.3428.24967-.0443.0302.009-.0117.2457-.18337-.23601.17161-.39788.27497-.42808.28664-.0302.0117.0713-.0684.36198-.26354l-.00039.00029zm-.30425.0509c-.008.006-.0113.009-.0113.009s.004-.003.0113-.009c-.008.006-.008.004-.005.00054.003-.004.009-.009.0127-.009-.004 0 .003-.005.008-.009.006-.003.0105-.005.003.0005.008-.006.0113-.009.0113-.009s-.004.003-.0113.009c.008-.006.003-.004-.003-.00054-.006.004-.0123.009-.008.009-.004 0-.01.005-.0125.009-.003.004-.003.005.005-.0005zm.74505-1.20926c-.79969 1.13709-1.18099 1.67346-1.16841 1.651.0126-.0225.41905-.60372 1.19491-1.7019-.77626 1.09809-1.15757 1.63251-1.15316 1.62269.004-.01.39455-.56386 1.16116-1.64269-.76652 1.07858-1.15369 1.62372-1.15614 1.62765-.002.004.37981-.53337 1.15214-1.61965-.77236 1.08638-1.14392 1.61104-1.13424 1.59889.01-.0122.40058-.56111 1.15314-1.62199-.75286 1.06103-1.1293 1.58667-1.1293 1.58323 0-.003.37644-.53595 1.1293-1.59123-.75286 1.05518-1.12442 1.57789-1.12098 1.57446.003-.003.38187-.53303 1.12898-1.58246-.74702 1.04933-1.11176 1.54961-1.10548 1.53354.006-.0161.38356-.54848 1.12058-1.56454-.73725 1.01617-1.10587 1.52815-1.10588 1.5301.00001.002.36863-.50613 1.10588-1.5301-.73725 1.02397-1.11465 1.55644-1.12093 1.57055-.006.0141.35858-.49012 1.10583-1.53955-.74702 1.04933-1.12541 1.58375-1.12885 1.59056-.003.007.36808-.51398 1.12085-1.57506-.75286 1.06103-.84065 1.17318-.64268.88549s.68169-.97522 1.07181-1.51356c-.3901.53834-.57151.78799-.56232.77573.009-.0122.20897-.28642.58122-.79573-.37253.50909.37058-.56657 1.00691-1.47792.63633-.91134 1.16587-1.65837.3662-.49201.79967-1.16636.25648-.39984-.38912.52369-.64559.92353-1.39357 2.00407-1.00349 1.46575-.3901.53834-.83676 1.23853-1.00938 1.53451-.17262.29597-.0712.18772.63483-.89085-.70605 1.07857-1.11369 1.68028-1.15083 1.72324-.0371.043.29625-.47284 1.07223-1.62924-.77628 1.1566-1.14686 1.66371-1.13525 1.6154.0116-.0483.40543-.65205 1.15795-1.71714-.75286 1.06493-1.14392 1.6325-1.15359 1.65545-.01.0229.36203-.49875 1.13469-1.61235-.77237 1.11369-1.16146 1.69687-1.16342 1.71542-.002.0186.38322-.52752 1.15942-1.67232-.77626 1.1449-1.17219 1.7349-1.17751 1.74713-.005.0122.37999-.55332 1.16621-1.71953-.78601 1.16635-1.17901 1.74465-1.17901 1.74121 0-.003.393-.58861 1.17901-1.74921-.78601 1.1605-1.17122 1.72808-1.16591 1.71924.005-.009.40114-.5941 1.17721-1.73924-.77626 1.1449-1.16439 1.69199-1.16439 1.67487 0-.0171.38813-.59844 1.16439-1.71037-.77626 1.11174-1.16147 1.66664-1.15951 1.66515.002-.001.39109-.55936 1.16351-1.67315-.77237 1.11368-1.15855 1.65005-1.15855 1.63636 0-.0137.38618-.57744 1.15855-1.66396-.77237 1.08638-1.17999 1.67053-1.19449 1.69875-.0145.0282.36413-.4995 1.16429-1.63685l.00081.001zm-.84542.97128c0 .21651.006.32183.01.31936.004-.002.006-.11271-.002-.32736.008.21452.006.31204.002.30567-.004-.006-.01-.11666-.01-.31777v-.004-.004c0 .19506-.008.25065-.0146.22236-.006-.0283-.01-.14046-.00046-.28096-.009.14043-.008.20578-.004.20234.004-.003.0118-.0756.0155-.21034-.004.13457-.0237.12882-.0358.0786-.0121-.0502-.0168-.14485.009-.18807-.0255.0431-.0383.0744-.0383.0807 0 .006.0127-.0122.0383-.0686-.0255.0566-.0383.0701-.0383.0602 0-.01.0127-.0431.0383-.0802-.0255.037-.0383.0409-.0383.0311 0-.01.0127-.0333.0383-.0511-.0255.0178-.0383.046-.0383.0592s.0127.0112.0383-.0316c-.0255.0432.002-.1597.0297-.31384.0278-.15415.0561-.25959.0323-.0216.0232-.23796.0213-.0897.0116.0936-.01.18334-.0269.40178-.0343.30425.008.0975.003.17654-.003.19746-.006.0209-.0123-.0162-.008-.15106-.004.13457-.003.24282-.001.27063.002.0278.005-.0248.005-.21203v.004.004c0 .19505.006.30721.01.31702.004.01.006-.0827-.002-.29702.008.21452.0183.33836.0232.35011.005.0117.004-.0886-.0119-.32251.0151.23403.0161.35594.0114.3599-.005.004-.0151-.11003-.0227-.3478.008.23796.006.33842.002.32528-.004-.0131-.01-.13986-.01-.35628l-.00085.00019zm-.23811-1.19756c.19113 1.3887.27693 2.06843.27015 2.05823-.007-.0102-.10611-.71033-.28525-2.08133.17934 1.37114.26901 2.07915.26901 2.0948 0 .0156-.0897-.66105-.26901-2.0593.17934 1.39845.26901 2.10353.26901 2.10746 0 .004-.0897-.6933-.26901-2.09946.17934 1.40626.26901 2.10939.26901 2.10939s-.0897-.70313-.26901-2.10939c.17934 1.40626.26901 2.10354.26901 2.09961 0-.004-.0897-.70906-.26901-2.10761.17934 1.39845.26901 2.09768.26901 2.09768s-.0897-.69923-.26901-2.09768c.17934 1.39845.26901 2.07525.26901 2.0596 0-.0156-.0897-.72376-.26901-2.0951.17934 1.37114.26901 1.98748.26901 1.94014 0-.0473-.0897-.75835-.26901-2.04189.17934 1.28337.25833 1.97187.25158 2.00454-.007.0327-.0992-.59049-.26288-1.93044.16385 1.33994.20873 1.93482.18346 1.88265-.0253-.0522-.1207-.75138-.23746-1.99963.11698 1.24827.0887 1.13515.0292.6305-.0595-.50466-.15018-1.40087-.15812-1.71878.008.31791-.14654-.89039-.25472-1.82659-.10818-.93621-.17044-1.60032.0208-.19406-.19113-1.40627-.12867-.74897-.0204.18285.10826.93182.26232 2.13816.25438 1.82999.008.30817.0113.46909.0113.4735 0 .004-.004-.14767-.0113-.4655.008.3179.14601 1.16829.23773 1.64225.0917.47395.13671.57148-.0427-.61633.17934 1.1878.26901 1.85387.26901 1.90309 0 .0492-.0897-.51844-.26901-1.79806.17934 1.27948.2749 1.89289.27926 1.87433.004-.0186-.0825-.66907-.26796-1.91743.18519 1.24827.28173 1.96993.2842 2.03672.002.0668-.0891-.52126-.2802-1.89242.19113 1.37115.2867 2.07135.2867 2.08155s-.0956-.6696-.2867-2.05845l-.00052.00029zm.15988 2.16107c0 .0194.001.00083-.002-.0187-.003-.0195-.006-.0399-.002-.0244-.004-.0155-.001-.00085.002.0152.003.016.006.0335.002.0235.004.01.006.0208.006.0242 0 .003-.002-.00061-.006-.0202v.0002zm-.0465-.83474c.017.037-.003-.00002-.0232-.038-.0198-.038-.0391-.077-.0199-.0438-.0193-.0331-.0289-.0536-.0289-.0565 0-.003.01.0116.0289.0485-.0193-.0371.0004-.00098.0204.0366.02.0375.0404.0765.0227.0453.017.0309.0255.0514.0255.0549 0 .003-.008-.01-.0255-.0469zm-.0862.29258c-.002.002-.003-.002-.003-.005s.001-.006.003-.003c-.002-.004 0-.006.002-.006s.004.002.002.006c.002-.004.003-.006.003-.006s-.001.002-.003.006c.002-.004 0-.00097-.002.003-.002.004-.004.008-.002.005zm-.008.37839c.006.004-.005.0256-.0148.0392-.01.0137-.0181.0194-.008-.008-.009.0271-.005-.00026.002-.0285.007-.0282.0151-.0572.0132-.0334.002-.0232.0105-.0367.0157-.0382.005-.001.007.009-.004.0342.0113-.0254.0134-.0147.011.002-.002.0162-.009.0378-.015.034l.00015-.0003zm-.47591 1.48232c.36279-1.20537-.0683.1853-.48761 1.5506-.41936 1.36531-.82703 2.70525-.41748 1.39845-.40957 1.3068-.006-.0331.41107-1.39845.4169-1.3653.84695-2.75597.49001-1.5506.35694-1.20537.53931-1.80805.54176-1.80805.002 0-.17502.60268-.53776 1.80805.36279-1.20537.55782-1.85291.56747-1.88362.01-.0307-.16608.55539-.54477 1.81732.37838-1.26193.59293-1.92898.61042-1.95338.0175-.0244-.16208.59384-.57192 1.90248.40957-1.30873.57535-1.88216.5481-1.82707-.0273.0551-.24754.73871-.6101 1.94405l.0004.00011zm.42126-1.3692c.002-.008.006-.0147.008-.0167s.002.00086-.004.0127c.006-.0116-.002.002-.009.0155s-.0137.0271-.006.0155c-.008.0116-.004.00077.001-.0109.005-.0117.0124-.0242.01-.0167l-.0001.0003zm.0465-.59678c.002.002-.00083-.001-.004-.004-.003-.003-.006-.005-.004-.00046-.002-.004.00082-.006.004-.006.003 0 .006.002.004.006.002-.004.003-.002.003.0005 0 .002-.001.005-.003.003.002.002.003.003.003.003s-.001-.001-.003-.003zm-.0431.0464c.006.01-.004.00032-.013-.01-.009-.01-.0176-.0198-.01-.0105-.008-.01-.009-.015-.006-.015.002 0 .008.005.0142.015-.006-.01.00098-.00032.008.01.007.01.0132.0198.008.0105.006.01.008.015.008.015s-.003-.005-.008-.015h-.0002zm-.36283-.0276c.20678.0741-.0673-.006-.32618-.0853-.25893-.0795-.50275-.15849-.23553-.0824-.26722-.0761-.0332-.0498.21894-.006.2521.0434.52224.10379.3272.0961.19504.008.34523.0448.38139.0682.0361.0234-.0417.0331-.30279-.014.26133.047.39787.0802.4013.0865.003.006-.12623-.0141-.3973-.0744.27112.0605.35796.10046.32528.10684-.0327.006-.19578.001-.39178-.0947l-.00027-.00013zm.13644-.094c.0151.004-.0004.00012-.0162-.004-.0158-.004-.0318-.008-.0178-.004-.0132-.004-.0113-.006-.005-.006.006 0 .0166.002.0202.006-.004-.004.009-.00013.0185.004.01.004.0165.008.00041.004zm-1.67735-1.60323c.33155.31597.49247.47102.48903.46906-.003-.002-.17121-.16096-.49703-.47306.3257.31204-.60757-.51884-1.35848-1.19515s-1.31944-1.19804-.26425-.26768c-1.05519-.93036-.48176-.40569.27257.27258.75433.67826 1.68956 1.51012 1.35798 1.19415.33156.31597 1.01323.86891 1.36724 1.13953.35401.27063.38035.25894-.59875-.55436.97912.81332 1.52525 1.30873 1.56335 1.36919.0381.0605-.4318-.31403-1.48475-1.2405 1.05324.92644 1.50964 1.36334 1.46183 1.34574-.0478-.0176-.59986-.48971-1.5635-1.38124.96351.89134 1.47744 1.35944 1.49934 1.37453.0219.0151-.44823-.42284-1.45284-1.34353 1.00446.92059 1.54766 1.39064 1.57589 1.39746.0282.007-.45851-.44961-1.51389-1.38196 1.05518.9323 1.54182 1.3887 1.51359 1.38189-.0282-.007-.57133-.47685-1.57559-1.39739 1.00446.92059 1.5067 1.38089 1.5067 1.38089s-.50224-.4603-1.5067-1.38089c1.00446.92059 1.50279 1.38089 1.49984 1.38089-.003 0-.50718-.4603-1.50784-1.38089 1.00057.92059 1.46673 1.35846 1.44385 1.34337-.0229-.0151-.53479-.48314-1.49035-1.37437.95571.89134 1.43942 1.33701 1.44335 1.33701.004 0-.47193-.44567-1.43535-1.33701.96351.89134.94311.87974.5989.56626-.34421-.31347-1.01223-.92882-1.34396-1.24497l-.00009.00022zm1.88802 1.19755c.0132.01.0199.0216.0199.0264 0 .005-.007.003-.0199-.0143.0132.0177.007.007-.002-.006-.009-.0133-.0203-.029-.0165-.0213-.004-.008-.0148-.0205-.0206-.0268-.006-.006-.007-.006.009.0113-.0151-.0177-.00045-.005.0144.01.0149.0147.03.0313.0158.0213zm1.55252.10946c-.0151.01-.0226.015-.0226.015s.008-.005.0226-.015c-.0151.01-.00045.002.0149-.006.0154-.008.0314-.0172.0191-.009.0113-.008.021-.0116.024-.0116.003-.00001-.00069.004-.016.0116.0151-.008-.003.001-.0219.009-.0184.008-.0368.0161-.0213.006h.00055zm-.45245.15991c.0874-.0359-.0195.009-.12728.0408-.10775.0321-.21207.0623-.10667.0289-.10526.0331-.13351.04-.11707.0333.0164-.007.0776-.0272.15107-.0488-.0741.0215.0322-.01.13019-.0384.098-.0287.18765-.055.0803-.0235.10715-.0309.15005-.0417.1433-.0384-.007.003-.0632.0208-.1546.0464l.00036-.00015zm-1.47844.71775c.24967-.0975.37059-.1463.36763-.1463-.003 0-.1298.0488-.37563.1463.24576-.0975-.0643.0497-.36081.18431-.29647.13458-.57929.25649-.27895.10826-.30038.14823-.0927.003.15212-.14772.24478-.15067.52663-.3067.37452-.17993.15212-.12678.34618-.20869.4271-.22084.0809-.0121.0487.0455-.25173.19774.30038-.15215.41156-.18629.38531-.15799-.0263.0283-.18994.11901-.43931.21659l-.00013-.00021zm4.0023.0121c2.90418.46419 3.21332.55683 2.43071.46125-.78262-.0956-2.65698-.37937-4.11979-.66803 1.46281.28866 1.48633.30911 1.00172.22425-.48462-.0849-1.47738-.27502-2.04713-.40759.56953.13264 2.72184.30818 4.00084.38278 1.27899.0746 1.68468.0482-1.23903-.22287 2.93541.16968 4.40311.20773 4.4041.15702.001-.0507-1.46469-.19018-4.3961-.37551 2.9315.0819 76.25106.66804 125.46576 1.04204 49.21469.37399 74.32451.53587-19.16349-.23064 93.5095-2.39707 140.2262-5.18326 140.18521-6.85868-.041-1.67542-46.83966-2.24007-140.36091-.19407 93.33775-5.233 68.26593-3.76433 19.12875-.96595-49.13719 2.79838-122.33974 6.92646-125.26345 7.01228 2.92371-.12484 4.38556-.20675 4.38556-.22576 0-.019-1.46185.0249-4.38556.15166 2.92371-.15602 2.55802-.10726 1.30633-.0209-1.25168.0863-3.38936.21015-4.00959.20429.62023.006.58801.0323.35345.0478-.23455.0155-.67145.0202-.86055-.0168.18918.0371.54123-.0644.71775-.1463.17651-.0819.17748-.14436-.33549-.0293.51295-.11505.76943-.17258.76943-.17258s-.25648.0575-.76943.17258c.51295-.11505 2.61454-.62411 3.87842-.93325s1.69005-.41837-1.14783.26625c2.83788-.68459 2.42049-.57537 1.16246-.26623-1.25803.30912-3.3567.81817-3.88137.93323.52469-.11505.78703-.17258.78703-.17258s-.26234.0575-.78703.17258c.52469-.11505.77824-.17258.77243-.17258-.006 0-.27099.0575-.78373.17258.51295-.11505.51195-.0526.33543.0293s-.52856.18334-.71769.14631c.1892.0371.61927.0321.84943.0164.23016-.0156.26041-.0419-.35004-.0474.61046.006.92253.009.92695.009.004 0-.29882-.003-.91895-.009.62024.006 73.34689-13.58941 122.9473-22.90325 49.60039-9.31383 76.07455-14.34605-15.81021 2.78652 90.36341-25.30877 134.42751-42.02199 133.24946-46.29393-1.17804-4.27192-47.59825 3.89745-138.20345 28.35388 87.66396-32.41223 62.48486-23.04821 15.21668-5.53433-47.26818 17.51387-116.62546 43.17762-117.31787 43.36486.69241-.18726.99765-.2721.96985-.26576-.0278.006-.38867.10383-1.02845.28126.63974-.17747 2.59213-1.00835 3.71021-1.51742s1.40187-.69634-1.29558.41344c2.64089-1.22487 3.92719-1.90557 3.89109-1.97382-.0361-.0683-1.39464.47592-4.0434 1.70083 2.56675-1.34775 67.45652-35.45882 111.02226-58.36124 43.56576-22.90244 65.80748-34.59624-16.92189 8.89055 81.25877-46.2915 121.10698-70.81717 120.28387-72.27073-.82312-1.45356-42.31755 20.165-123.74406 66.16198 79.78231-48.69053 58.33739-35.58949 16.32615-9.94135-42.01123 25.64815-104.58877 63.84341-107.07167 65.34135 2.45949-1.53499 3.67754-2.32102 3.66588-2.34009-.0117-.0191-1.25304.72879-3.71238 2.26159 2.43999-1.56425 2.78717-1.74076 2.18936-1.3258s-2.14061 1.42139-3.48056 2.22301c1.33995-.80163 1.27948-.75773.77919-.45345s-1.4404.86893-1.85972 1.10882c.41936-.2399 2.12989-1.53692 3.15825-2.34294s1.37456-1.12102-.93475.60317c2.29564-1.75344 3.43567-2.64089 3.42752-2.65261-.008-.0117-1.16447.85226-3.46152 2.60171 2.28397-1.76514 59.45887-47.66459 97.83796-78.49747s57.96237-46.59918-14.93691 11.90199c67.56293-65.15604 98.41972-100.7894 95.34196-104.01151-3.07778-3.22211-40.09011 25.96704-108.26544 90.45604 61.89298-70.04773 44.4181-50.16993 11.25251-12.56662-33.16561 37.6033-82.02193 92.93211-82.89182 93.78641.86989-.8543.94397-.91475.69722-.66362s-.81433.81384-1.22775 1.20587c.41349-.39204 45.75512-58.87761 76.66943-98.80144 30.91431-39.92382 47.4013-61.2859-9.89449 12.56905 52.293-77.72851 75.822-118.36765 73.06604-120.23664-2.75596-1.869-31.79688 35.03214-84.64372 112.38422 47.43245-80.53713 34.71464-58.8464 9.75937-16.40798-24.95528 42.43841-62.14803 105.62452-63.66547 108.07817 1.50574-2.46145 2.25276-3.69997 2.24747-3.70581-.005-.006-.76289 1.22101-2.26637 3.69031 1.49792-2.46924 2.24688-3.70387 2.24688-3.70387s-.74896 1.23463-2.24688 3.70387c1.49792-2.46924 1.14977-1.88997.39788-.64754-.75189 1.24242-1.90752 3.14799-2.02455 3.33133.11697-.18333 1.03465-2.20689 1.6237-3.53075.58904-1.32386.84945-1.94801-.34811.66752 1.11175-2.66234 1.62276-4.00814 1.57548-4.02526-.0473-.0171-.65286 1.29442-1.77428 3.94676 1.02788-2.6877 27.02123-71.24724 44.4727-117.28566 17.45145-46.03841 26.361-69.55572-6.77872 17.84107 30.19652-88.52219 43.80079-133.30014 42.22729-133.84285-1.57349-.5427-18.32475 43.14984-48.83926 131.56865 27.50496-89.33552 20.09334-65.29452 5.59726-18.23359-14.49608 47.06094-36.07661 117.14182-36.90945 119.88607.79969-2.75986 1.18198-4.14272 1.16243-4.14806-.0195-.005-.44095 1.36685-1.24863 4.11706.75872-2.76961.84555-2.98319.64516-2.18108s-.688 2.61992-1.07818 3.91306c.39006-1.29314.40859-1.36432.28764-.97032-.12094.39401-.38136 1.25319-.54918 1.82075.16781-.56757.20485-.60464.17315-.43544-.0317.16919-.13213.54463-.23925.80209.10733-.25747.20779-.51591.23945-.60514.0317-.0892-.005-.009-.17335.41008.16781-.41935.19899-.41735.1628-.27153-.0362.14583-.13974.43548-.2414.59143.10148-.15602.13757-.20868.12789-.19213-.01.0165-.0651.10231-.14679.22313.082-.12091.14343-.28865.15741-.3618.014-.0731-.0195-.0517-.12721.20578.10734-.25747.20193-.62902.22914-.79579.0272-.16676-.013-.12872-.17514.43299.16195-.56171.24878-.84648.25313-.84893.004-.002-.0738.27742-.24183.84493.16781-.56757.57935-2.6321.80363-3.85112.22427-1.21902.26128-1.59253-.31997 1.22194.52074-2.82227.74798-4.2373.71336-4.24175-.0346-.004-.33108 1.40168-.85773 4.22175.46032-2.82617 12.94893-75.08764 21.34504-123.61383 8.39611-48.5262 12.69972-73.31712-3.20995 18.79776 7.65154-93.5504 7.26047-140.6991 2.82031-141.08773-4.44016-.38862-12.9294 45.98284-21.47422 139.47277.0215-93.48993.014-66.27558.002-15.61904-.012 50.65655-.0284 124.75531-.0247 125.03422-.004-.27892-4.74062-74.22165-7.98416-124.77141-3.24354-50.54975-4.994-77.70656.97432 15.58638-12.23856-92.897-21.50826-138.94079-24.82569-138.51462-3.31744.42617-.68261 47.3223 10.8879 140.30512-17.84701-91.7638-13.00701-67.07137-3.57995-18.73242 9.42706 48.33896 23.44118 120.32444 23.94244 123.14671-.53441-2.81447-.82113-4.21781-.84208-4.21392-.021.004.22385 1.415.75248 4.22942-.57538-2.81447-.86306-4.2217-.86306-4.2217s.28768 1.40723.86306 4.2217c-.57538-2.81447-.4944-2.21276-.2418-.83771.2526 1.37506.67682 3.52345.78794 3.80236-.11112-.27893-.20571-.50126-.23255-.55782-.0268-.0566.0141.0526.17395.43683-.15988-.38424-.32273-.78603-.3793-.92938-.0566-.14335-.007-.0283.25836.6212-.26527-.64948-.91964-2.62039-1.27657-3.74823s-.41642-1.4126.50807 1.3102c-.98107-2.6994-1.49597-4.04032-1.52281-4.03206-.0268.008.4344 1.36571 1.40565 4.06306-1.03372-2.67989-1.5535-4.01594-1.55874-4.0111-.005.005.50406 1.35056 1.52854 4.0342-1.04347-2.6838-26.98301-71.26382-44.39181-117.31736-17.4088-46.05353-26.28686-69.58059 6.79262 17.84155-36.0219-86.30844-55.48426-128.86487-57.01374-128.23341-1.52948.63145 14.87393 44.45078 50.58357 130.89381-38.55532-85.14796-28.23063-62.21091-7.95552-17.34031 20.2751 44.87061 50.50061 111.67477 51.74692 114.26104-1.26776-2.58042-1.91335-3.8599-1.92501-3.85066-.0117.009.61059 1.3072 1.87851 3.88166-1.29119-2.56677-1.57888-3.16166-1.33411-2.68965.24478.472 1.02201 2.0109 1.86067 3.71169-.8387-1.70078-.89426-1.74175-.64508-1.18832s.8031 1.70126 1.18336 2.37808c-.38034-.67679-.56173-1.00739-.55546-1.00198.006.005.20021.34684.57056 1.01408-.37059-.66704-.49152-.88451-.44758-.80503.0439.0795.25276.4559.54168.97666-.28866-.52075-.31786-.58414-.23884-.44907.079.13506.26624.46857.41043.74164-.14438-.27307-.21657-.4057-.21657-.40275 0 .003.0722.14148.21657.41075-.14438-.26915-.33162-.60461-.41059-.7426-.079-.13799-.0497-.0785.239.44228-.28866-.52075-.50614-.90499-.55641-.98983-.0503-.0849.0667.12969.4468.80648-.38034-.67679-1.42967-2.44193-2.01773-3.4191-.58805-.97716-.71484-1.16636.74993 1.30874-1.51938-2.43999-2.31126-3.64243-2.34346-3.62245-.0322.02.69527 1.26237 2.21458 3.71205-1.574-2.40294-40.06016-64.81766-65.88171-106.74505-25.82153-41.92741-38.97845-63.36751 10.10607 16.1788-56.36195-75.06227-87.944-110.06078-91.52732-107.39942-3.583333 2.66137 20.83204 42.98259 76.46494 118.55978-61.91249-70.04187-43.91042-49.64233-10.37659-11.68356 33.53382 37.95877 82.5994 93.47677 82.81395 93.67181-.21457-.19506-.38231-.38229-.4243-.44323-.042-.0609.0418.004.3302.31454-.28866-.31011-.30331-.30708-.21457-.19878.0887.1083.28089.32188.40581.43288-.12491-.1112-.18737-.15703-.18737-.15021 0 .007.0625.0663.18737.16571-.12491-.0995-.239-.19992-.27407-.23509-.0351-.0352.009-.005.19997.15659-.19114-.16188-.30426-.26624-.31587-.28238-.0116-.0162.0783.0559.29317.24688-.21456-.19113-.31892-.28279-.31695-.27984.002.003.11025.10051.32095.28784-.21064-.18726-52.7277-52.44316-88.62624-88.17063-35.89853-35.72748-55.17853-54.92652 11.08496 10.99994-70.73926-61.42948-108.192731-89.7491-110.388066-87.23226-2.195333 2.51685 30.867468 35.87018 101.160746 97.78655-74.125479-56.93693-54.19657-41.61826-15.1614-11.627 39.03516 29.99127 97.17659 74.65513 99.47615 76.40857-2.31712-1.73003-3.48055-2.58432-3.48676-2.57316-.006.0112 1.1448.88778 3.45656 2.61956-2.32687-1.71638-1.86462-1.29216-.75141-.41398 1.11319.87818 2.87735 2.21032 3.15431 2.30979-.27693-.0995-.74112-.31694-.96397-.43202-.22284-.11508-.20432-.12777.4842.18234-.68852-.31011-2.49364-1.34383-3.49421-1.94554s-1.19659-.7714 1.33312.64657c-2.57261-1.36335-3.87354-2.02064-3.88969-1.99432-.0162.0263 1.25247.73629 3.81899 2.10744-2.59238-1.3242-67.44418-35.49564-110.97603-58.44824-43.531847-22.95261-65.743729-34.68639 16.94374 8.86475-84.154193-40.76983-126.91999-59.73971-127.646765-58.24665-.726776 1.49306 40.58547 23.44903 124.587365 64.53093-85.290934-38.20306-62.385387-27.88821-17.48714-7.74028 44.89826 20.14794 111.78921 50.12896 114.46911 51.25826-2.70526-1.07273-4.07251-1.57692-4.08757-1.54327-.0151.0337 1.32206.60512 4.02557 1.68372-2.72865-1.01422-2.20398-.78505-.90938-.28088 1.29459.50418 3.35911 1.28335 3.71019 1.36916-.35108-.0858-.53248-.13361-.53682-.13705-.004-.003.16837.0375.52552.12905-.35694-.0917-.45349-.10135-.39742-.0759.0561.0254.26478.0859.51837.13454-.25355-.0487-.3745-.0672-.37058-.0633.004.004.13269.0302.37858.0713-.24575-.0409-.36862-.0613-.36862-.0613s.12287.0204.36862.0613c-.24575-.0409-.37448-.0672-.37841-.0711-.004-.004.11694.0145.37041.0631-.25355-.0487-.4564-.10425-.50814-.12625-.0517-.022.0476-.0104.39853.0753-.35108-.0858-.47006-.10129-.43196-.0822.0381.0191.2333.0728.51056.12529-.27695-.0525-.38324-.0652-.36077-.056.0225.009.17369.0405.41177.076-.23796-.0349-.38912-.0622-.41159-.0687-.0225-.006.0838.008.36059.0566-.27695-.0486-.41542-.0769-.41542-.0799s.13847.0194.41542.0719c-.27695-.0525-2.40291-.71079-3.76432-1.1443-1.36141-.43352-1.95826-.64229.82306.2042-2.80082-.80163-4.21196-1.17318-4.22213-1.14343-.0102.0298 1.38061.4608 4.18363 1.26441-2.82076-.75285-72.98143-21.99399-120.07134-36.28527-47.089907-14.29127-71.109054-21.63269 18.35324 5.41392-91.892722-19.02057-138.722042-24.40474-139.6482499-20.05772-.9262077 4.34702 44.0506969 18.42522 135.7704199 38.32935-92.765157-11.48218-65.846605-8.06502-15.64022-1.79244 50.2064 6.27258 123.70062 15.40059 124.08681 15.34013-.38619.0605-.77043.0907-.9011.0907-.13068 0-.008-.0302.62028-.0907-.62805.0605-74.49129-4.32992-124.86762-7.35798-50.376318-3.02805-77.265721-4.69372 16.05393.81624-93.700575.77822-140.53750048 4.34849-140.5226455 7.69981s46.8814905 6.48372 140.5880455 6.38621c-93.266221 6.48322-68.208075 4.77854-19.10441 1.39015 49.10367-3.38838 122.25287-8.46048 125.16876-8.71208-2.91589.25161-4.37676.37741-4.37922.37742-.002-.00001 1.45348-.12581 4.37122-.37742-2.91786.25161-4.32997.37352-4.29731.37107.0327-.002 1.51012-.12926 4.37141-.37507-2.86129.24575-4.33582.37252-4.36602.37497-.0302.002 1.38392-.11942 4.29992-.37097-2.91591.25161-2.36004.26434-.9806.18731 1.37944-.077 3.58244-.2438 3.96083-.35119-.37839.10726-1.78953.45541-2.62673.65728-.83722.20187-1.10052.25746.81675-.2204-1.91727.47785-2.75986.69532-2.68039.68016.0795-.0152 1.08101-.26296 2.85198-.71566-1.77099.45254-1.84214.52958-1.28429.42717.55784-.1024 1.74467-.38425 2.48966-.64952-.74506.26527-.69243.26225-.40086.17003.29157-.0922.82208-.27361 1.03279-.36509-.21063.0917-.31595.13751-.31595.13751s.10532-.0458.31595-.13751c-.21063.0917-.28084.13751-.25691.13751.0239 0 .142-.0458.30791-.13751-.16574.0917-.22328.13361-.20637.13066.0169-.003.10828-.0508.24037-.13866-.13266.0878-.19313.1317-.1892.1317.004 0 .0722-.0439.1972-.1317-.12492.0878-.18444.1317-.18248.1317.002 0 .0654-.0439.18648-.1317-.12095.0878-.18142.1317-.18142.1317s.0605-.0439.18142-.1317c-.12095.0878-.1425.13559-.11571.13854.0268.003.10191-.0389.17431-.13054-.0722.0917-.23504.1882-.3218.22226-.0868.0341-.0974.006.13472-.15256-.23209.15795-.26913.18227-.21498.14513.0541-.0371.19948-.13573.33214-.22363-.13266.0878-.22431.13559-.24122.13853-.0169.003.0409-.0389.20722-.13053-.16574.0917-.2486.13751-.2486.13751s.0829-.0458.2486-.13751c-.16574.0917-.39491.21259-.4949.26326-.1.0507-.0708.0311.28022-.15822-.35108.1892-.48469.27404-.4564.26764.0283-.006.21848-.10401.515-.27974-.29645.17554-.44956.26917-.45301.2731-.003.004.14277-.0818.44501-.2651-.30233.18333-.49056.27889-.51546.28134-.0249.002.1135-.0882.46446-.27734-.35108.1892-.84063.34425-1.05615.38568-.21551.0414-.15699-.0308.58809-.29608-.74508.26527-1.11761.4018-1.11761.40425 0 .002.37253-.12918 1.11761-.40025-.74508.27113-1.9319.55199-2.48972.65194-.55782.0999-.48663.019 1.28436-.43356-1.77099.45253-2.78619.70025-2.87494.71541-.0888.0152.74892-.20222 2.68369-.67991-1.93481.47786-3.64631.86112-4.15585.95961-.50955.0985.18286-.0878 3.05587-.74898-2.86713.68266-4.3007 1.03861-4.29881 1.0527.002.0141 1.43923-.31369 4.31391-.9985-2.86128.70802-74.07857 18.14973-121.87823 29.85377-47.799664 11.70405-72.181691 17.67041 18.62757-4.57227-90.072387 25.29707-134.684657 39.46216-134.239375 41.06106.445282 1.59891 45.948116-9.36836 136.105935-34.336-89.219075 27.97482-65.262727 20.48615-18.29945 5.77653 46.96327-14.7096 116.93346-36.64013 119.74209-37.54903-2.77937 1.02008-4.15638 1.58278-4.14229 1.6364.0141.0536 1.41928-.40181 4.20429-1.41802-2.75596 1.0981-2.27517.95474-1.00203.48126 1.27315-.47348 3.33864-1.27707 3.75212-1.49944-.41348.22237-1.66566.87967-2.38145 1.25317-.71581.3735-.89526.4632.83672-.44962-1.73198.91281-68.64975 31.62797-113.89118 52.35314-45.241429 20.72517-68.806514 31.46033 16.16688-7.58687-81.434333 46.79645-120.063954 73.87533-117.871089 77.74996s45.208217-15.45499 127.063839-61.47556c-77.148652 52.90949-54.82462 37.6893-13.11396 9.1452 41.71067-28.54409 102.80796-70.41211 103.20585-70.7983-.39791.38619-1.05325.95181-1.3658 1.20634-.31255.25454-.2823.19798.69097-.66021-.97327.8582-59.08856 46.4331-98.56002 77.35481-39.47147 30.92172-60.299135 47.19026 13.30285-10.56428-69.670699 62.78061-102.393736 96.54039-100.167713 99.03825 2.226022 2.49787 39.401103-26.26618 109.526643-88.53325-65.62648 66.69902-48.00845 48.82236-13.46644 13.73653s86.00799-87.38084 88.07741-89.51852c-1.98358 2.21959-2.92954 3.36742-2.88272 3.40936.0468.0419 1.08643-1.02202 3.07396-3.22601-1.90166 2.29566-1.66956 2.10549-.85867 1.18879.81088-.9167 2.20057-2.55993 2.61407-3.17043-.4135.61049-.62025.90987-.62025.90595 0-.004.20675-.31117.62025-.91395-.4135.60269-.50326.77043-.42332.67828.0799-.0922.32959-.44419.59491-.88109-.26527.43689-.36765.61729-.34714.59191.0205-.0254.16391-.25655.39024-.64281-.22624.38619-.22057.44957-.13873.36082.0818-.0888.23984-.32964.31826-.55199-.078.22237-.12775.36183-.13498.38081-.007.019.028-.0825.11988-.34211-.0917.25941-.34228.65925-.48223.84405-.13996.18479-.16925.15455.18176-.4462-.35108.60073-.43007.73823-.36474.62705.0653-.11118.27497-.47103.50118-.86501-.22625.39398-.3696.62315-.39011.64462-.0205.0215.0818-.16474.34701-.60152-.26527.43688-.51491.79479-.59487.89085-.08.0961.01-.0697.42328-.68021-.41348.61048-1.02493 1.48524-1.30188 1.87581s-.2194.29694.70513-1.02936c-.92451 1.32629-2.04893 2.85543-2.50289 3.44788-.45397.59244-.23747.24819 1.51987-2.17229-1.73198 2.43412-2.57944 3.6668-2.56191 3.67999.0175.0132.90004-1.1931 2.62801-3.63689-1.70076 2.45559-43.56478 62.71888-71.65633 103.15405-28.09155 40.43518-42.41064 61.04225 10.97846-15.8146-50.79113 78.67465-74.86781 118.85964-73.47506 119.76045 1.39276.90081 28.25494-37.48256 79.34156-115.94464-48.38956 80.10762-35.4113 58.63828-9.95044 16.49936 25.46086-42.13893 63.40432-104.94742 64.94515-107.51808-1.50377 2.59797-2.23421 3.91061-2.21135 3.92422.0229.0136.79903-1.27184 2.30845-3.87002-1.46474 2.61942-1.12439 2.10354-.39006.85331.73434-1.25022 1.86266-3.23478 1.97384-3.5527-.11112.3179-.20865.58804-.23696.66412-.0283.0761.0126-.0419.17836-.50024-.16573.45833-30.14363 68.25115-50.61978 114.52782s-31.45055 71.03718 6.3907-14.56907c-30.17685 88.99825-41.28055 134.87643-37.08796 136.32516 4.19259 1.44872 23.68147-41.532 54.6898-130.25154-22.84091 90.78114-16.31672 65.0503-4.02575 16.33697 12.29097-48.71334 30.34873-120.40916 30.57498-121.55796-.22625 1.1488-.58415 3.15482-.75137 4.13492-.16723.98009-.14378.93425.39269-2.02066-.51489 2.95491-.76064 4.43724-.74805 4.44162.0126.004.28354-1.46921.80205-4.42612-.49151 2.96271-13.84171 75.14126-22.81783 123.56407-8.97612 48.42282-13.57817 73.0899 3.42664-18.97033-10.81065 93.21293-13.07129 140.19965-9.75674 140.59949 3.31457.39984 12.20434-45.78719 23.69453-138.92176-5.1316 93.48951-3.73314 68.42835-1.01814 19.24585 2.715-49.18251 6.74654-122.48635 6.88112-125.48221-.0624 2.99977-.0604 4.49966-.0248 4.50066s.10475-1.49689.17672-4.49266c-.008 2.99586-.008 4.49379-.005 4.49379s.009-1.49793.0127-4.49379c-.004 2.99586-.006 2.57651-.006 1.26241 0-1.31411.002-3.52298.006-4.10615-.004.58317-.006.89232-.006.90497 0 .0127.002-.27119.006-.87397-.004.60268-.006.69631-.006.55393s.002-.52077.006-.86212c-.004.34135-.006.5081-.006.50563 0-.002.002-.17414.006-.50963-.004.33549-.006.4964-.006.49148 0-.005.002-.1757.006-.50358-.004.32769-.006.49836-.006.50329 0 .005.002-.1559.006-.49119-.004.33549-.006.49151-.006.48315 0-.008.002-.18111.006-.50315-.004.32183-.006.48761-.006.49104 0 .003.002-.15548.006-.48304-.004.32769-.006.43691-.006.39937 0-.0375.002-.22183.006-.48117-.004.25941-.006.39301-.006.39546 0 .002.002-.12625.006-.39146-.004.26527-.006.32279-.006.27156 0-.0512.002-.21124.006-.38101-.004.16968-.006.25452-.006.25452s.002-.0848.006-.25452c-.004.16968-.006.32573-.006.37446 0 .0487.002-.01.006-.26943-.004.25941.004.34621.0102.31702.007-.0292.0124-.17438.005-.37892.008.20478.0161.32669.0194.34033.003.0136.002-.081-.0114-.30933.0132.22817.0199.34226.0199.34226s-.007-.11409-.0199-.34226c.0132.22817.024.3257.0261.31397.002-.0117-.005-.13272-.0261-.34157.0215.20871.0323.31306.0323.31306s-.0108-.10435-.0323-.31306c.0215.20871.0282.33452.0261.34968-.002.0152-.0128-.0803-.0261-.31418.0132.23403.0329.38715.0413.41156.008.0244.006-.0799-.0262-.36066.031.28086.0661.71678.0797.91914.0136.20235.006.17114-.0495-.48225.0548.65339.0452.76847.0199.62366-.0253-.14482-.0662-.54952-.0739-.9357.008.38618.016.45933.0194.3774.003-.0819.002-.31892-.0114-.553.0132.23403.006.43102-.004.48563-.01.0546-.0222-.0332-.0185-.36865-.004.33548-.006.69729-.006.82942 0 .13214.002.0346.006-.54857-.004.58317.004.74019.0102.64804.007-.0921.0124-.43346.005-.84695.008.41349.071 1.13905.11197 1.49501.041.35595.0596.34229-.0224-.72264.082 1.06493.2205 3.1285.28729 4.17686.0668 1.04836.0619 1.08151-.14291-1.91436.26529 2.99587.42034 4.48893.44567 4.4855.0253-.003-.0791-1.50338-.33267-4.4935.30425 2.99001 8.80813 75.90496 14.52826 124.82324 5.72012 48.91828 8.6565 73.8399-2.17424-19.15677 13.97093 92.62412 22.5226 138.69997 24.1751 138.45124 1.65251-.24873-3.59413-46.82206-17.21983-139.49631 16.75415 92.1067 12.21647 67.42587 3.37079 18.97769s-21.99936-120.66371-22.47723-123.62642c.55782 2.95685.8699 4.42456.90698 4.41574.0371-.009-.20081-1.49414-.74295-4.44334.61633 2.94124.9245 4.41187.92449 4.41187.00001 0-.30816-1.47063-.92449-4.41187.61633 2.94124.60471 2.75011.38532 1.61156-.21938-1.13856-.64653-3.22454-.86124-4.073.21453.84843.31303 1.2512.30723 1.23659-.006-.0146-.11589-.44657-.31853-1.26759.20285.82113.25358.95376.21898.7636s-.15455-.70312-.29308-1.17317c.13852.47005.21165.70898.21409.71193.002.003-.0658-.23008-.21009-.70393.14438.47393.27211 1.0064.31009 1.20828.038.20187-.0138.0732-.22849-.77526.21453.84843 22.61521 71.40044 37.88512 119.43328 15.26991 48.03283 23.40907 73.54649-4.89943-15.68176 30.50855 88.52961 46.86387 132.41308 48.02293 132.01271 1.15905-.40038-12.87816-45.08462-43.15468-133.69044 38.17181 85.68252 60.03417 127.29104 62.95737 125.99791 2.9232-1.29312-13.09277-45.48789-50.67758-131.41193 42.91726 83.18129 30.87046 59.78774 7.92124 15.27754-22.9492-44.51021-56.80084-110.13707-57.49325-111.4224.69241 1.28533 1.68128 2.96856 2.12109 3.68193s.33058.45689-1.17322-2.13718c1.53303 2.57652 2.31223 3.85405 2.32683 3.84289.0146-.0112-.73539-1.31102-2.26073-3.88929 1.55256 2.56093 39.29141 65.49942 64.60798 107.73115 25.31658 42.23172 38.21085 63.75664-9.92575-16.50955 53.6134 76.97719 83.02977 113.65403 85.78037 111.74895 2.75059-1.90508-21.16458-42.39208-74.21428-119.74257 57.98429 73.45567 42.41304 53.77505 11.88979 15.13905-30.52325-38.63601-75.99848-96.22741-77.82214-98.59328 1.90167 2.31127 2.87786 3.43277 2.90906 3.39815.0312-.0346-.88259-1.22538-2.76091-3.5386 1.95238 2.2469 1.6169 1.89095.71823.87819-.89866-1.01276-2.36051-2.68233-2.66087-3.06266.30038.38032.97328 1.04054 1.33118 1.36187.35789.32133.40079.30378-.55883-.67144.95962.97521 2.3454 2.36782 2.96662 2.98758.62121.61975.47786.46664-1.6208-1.64958 2.12791 2.08696 3.2104 3.11288 3.22797 3.09539.0176-.0175-1.02975-1.07839-3.16147-3.16509 2.15522 2.05575 56.75555 51.05824 93.41532 83.91805 36.65979 32.85979 55.37902 49.57692-14.22796-12.93803 71.71727 60.15708 108.58919 89.02841 109.65805 87.75434s-33.66533-32.69354-105.16026-93.11802c73.44538 57.94901 53.69825 42.46358 15.02025 12.01109-38.67801-30.45249-96.28688-75.87204-98.56499-77.79126 2.31712 1.86656 3.50298 2.77351 3.5284 2.74722.0254-.0263-1.10962-.98584-3.4343-2.85225 2.35807 1.81974 2.08307 1.61103 1.08738.84402-.99568-.76702-2.71206-2.09234-3.23676-2.5058.5247.4135 64.01119 38.4731 107.3151 64.40012 43.30393 25.927 66.42528 39.72142-13.78028-8.39546 84.51206 40.91023 128.61906 57.57763 130.56657 53.59291 1.94752-3.98473-38.26447-28.62156-122.39038-70.3198 87.16661 33.86296 62.10359 24.16152 15.08557 5.91876s-115.99104-45.02684-116.64445-45.32915c.65341.30231.65541.35497.43308.28816-.22232-.0668-.66896-.25307-.91285-.42861.24382.17554.36083.25844.35738.25501-.003-.003-.12735-.0932-.36538-.26301.23796.16968.67194.35498.88746.42374.21552.0688.21259.021-.42326-.27547.63585.29645.9684.44761.97855.44908.0102.001-.3021-.14677-.95585-.44908.65339.30231 2.69158.97521 3.86379 1.33263 1.1722.35742 1.47842.39935-1.33215-.56025 2.81057.9362 4.21585 1.39455 4.21585 1.38524 0-.009-1.40528-.48629-4.21585-1.42074 2.81057.9206 72.71199 23.05418 119.62762 37.89846 46.91563 14.84429 70.84544 22.39927-18.28722-5.8373 91.03236 22.24465 137.31213 30.29115 138.11473 27.05392.8026-3.23721-43.87197-17.75817-134.74833-40.64842 92.00366 16.65277 67.29953 12.20286 18.8704 3.45178-48.42914-8.75109-120.58328-21.80337-123.47969-22.35534 2.89641.50323 4.35045.73143 4.35437.7066.004-.0248-1.44227-.30271-4.34637-.81163" fill="url(#b)"/></g><path d="m91.195218 501.42578-6.738274 16.67186c-3.080554 7.62179-4.296216 15.24602-4.312496 22.53513l-28.07419-.23437-.148436 17.99998c-.044 5.34343.537874 10.59735 1.423826 15.78124-6.493212.77244-12.721159 1.82873-18.294903 3.12108l-17.576154 4.07422 9.712881 41.4609c-6.960276 9.22068-12.465963 18.36198-17.2089667 25.46481l-9.9785053 14.94139 33.790981 22.65427c.906806 12.74371 5.486005 27.06022 20.099588 33.21677l.01367.006.01563.006c13.371725 5.60561 25.698879.34043 35.165979-6.94336l4.568356.88672-.814453 3.67383c-3.808555 1.81666-7.581986 4.14422-11.136707 7.29686l-13.472642 11.94921 32.394498 36.49215-1.171874 1.11914 28.082004 29.45114-25.35936.28125c-1.67777-5.1014-4.151123-10.23298-7.798814-15.11745l-32.423795-43.41402v45.17964l-10.857411 8.13475-5.955071-7.33397-41.1757393 33.63474 11.2988163 13.93162c3.713988 4.57923 7.934956 8.88106 12.50194 12.8535l-15.25389 26.80857 15.693343 8.88866c7.071553 4.00534 15.442343 8.00308 24.685522 11.18553-1.986396 9.42744-2.66701 19.62855-1.542968 30.56247l1.837889 17.86717 23.158179-2.33008c5.016544 11.94693 10.999217 22.21358 15.105454 30.21091l8.216788 16.00194 36.242147-18.58005c11.56511 5.36091 26.25939 8.2896 38.7109-1.50586l.041-.0332.043-.0332c12.9786-10.33616 13.1176-26.42924 10.11132-39.27144-.28114-1.20099-.75261-2.40211-1.09765-3.60352l28.7109-37.94527-16.10935-10.55663c-9.3154-6.10535-18.86496-14.87186-31.21872-21.62694v-22.68356l-17.80662-.19141c-2.12482-.0228-4.55179.2191-6.80468.29102.50278-4.69822.83257-9.31849.79101-13.72655l-.12891-13.70311 7.97656-7.59765c6.1643-5.87004 10.47218-12.56778 13.47069-19.45311l24.82615 11.50976 7.60741-16.22655c2.95745-6.30775 5.04618-12.87038 6.41991-19.53904 8.39733.68102 17.30015.24133 26.58397-1.47851l15.79294-2.92579-.86914 3.29102 17.42381 4.58593c5.74355 1.512 11.55753 2.19614 17.3574 2.46094l14.76171 37.58589 16.86522-6.83983c1.71967-.69741 4.64-1.76917 7.1621-2.70117.94022 3.07755 1.96992 6.09363 3.1582 8.98046l6.84179 16.61913 5.75-2.35743c-.29257 2.36723-.26647 4.67814-.23438 7.02148l-36.30465 27.23825 10.72655 14.38671c10.10293 13.55069 21.95123 26.91524 37.2695 37.49996l-4.42383 35.80269 17.93357 2.15235c4.01643.48214 8.19269.63286 12.42773.61914-.17271 2.08321-.38987 4.69144-.55078 6.22069l-1.8711 17.77343 31.67966 3.56054c1.44069 6.15077 3.73267 12.08589 6.90038 17.57224l8.99999 15.58593 37.23238-21.49022 3.01758 4.70508 44.91791-28.38085-9.78319-15.25388c-4.58838-7.15505-10.14125-13.89949-16.63085-19.79881l19.65232-27.0781-14.53904-10.57616c-5.55187-4.03916-11.48721-7.33212-17.66795-9.95507 2.21859-8.21968 3.52036-17.04283 3.63866-26.44919l.22656-18.02537-22.13279-.24609c-.21748-.85301-.31178-1.1614-.53515-2.04297-1.62207-6.40177-3.40537-13.52784-4.95117-19.53318-.57862-2.24795-.99774-3.93021-1.4375-5.6543l1.68946-3.08788c11.57624-2.80459 23.34531-9.10984 27.37692-22.9531l.0176-.0625.0176-.0625c4.28857-15.13444-3.83846-27.63746-13.12695-36.35348l3.69922-41.63668-18.97849-.66601c-.96223-.0338-1.92422-.15857-2.88477-.21094l35.68161-30.00388-3.30664-3.95116 22.03709-36.8984-17.55662-8.60547c-2.51619-1.23335-5.27016-2.66548-8.18945-4.10545l5.93164-37.66012-18.09569-2.56836c-9.33538-1.3248-18.78997-2.11852-28.33004-2.03125.40179-5.59574.58625-11.33401.33593-17.33592l-.75-17.99412-42.49605 1.79492c-7.67492-7.65269-15.3418-14.01357-21.11131-19.27537l-13.25389-12.08592-12.13475 13.21092-15.48046 16.85545c-12.69008-.96412-27.40446 1.47485-35.65816 14.87693l-.0137.0215-.0137.0215c-8.7067 14.22605-3.177 29.48576 4.15039 40.48239.64264.96444 1.45686 1.8636 2.15234 2.80859l-17.78514 40.5234 16.40234 7.26366c9.04924 4.0083 18.63021 7.36287 28.83981 9.52733l9.46483 13.74022-8.48437 10.60741-9.37109 11.71874c-7.61778-4.53033-15.72137-8.00188-23.8652-10.46288l-16.92967-5.11523-1.51172-2.47656c4.38971-11.92988 6.07358-26.70719-4.53906-38.3066-9.77517-10.73127-23.24308-11.10966-34.90816-8.41796l-33.88864-23.82224-10.33203 14.83202c-3.75411 5.38826-7.8984 10.55685-12.06833 15.80662l-2.16407-2.66406c-2.06168-2.53835-4.73258-5.61276-7.27342-8.57617 2.93689-1.74968 6.19865-3.69872 8.16991-4.81444l15.58982-8.82421-18.09764-32.33981c3.25158-3.83874 6.24837-8.1523 8.50585-13.29882l7.17968-16.36912-40.51167-18.11326.21875-.56446z" fill="#00b7e5" stroke-width=".999999"/><path d="m101.14503 524.84332c-4.992856 12.35311-3.525488 24.05807.50497 33.97106-3.573099 6.8819-4.34492 18.22465-1.55312 24.31543-1.229143 2.03026-2.439238 4.21302-3.61123 6.49111-6.650765-9.36016-9.509262-19.18737-9.413973-30.93046l-17.15098-.14299c-.09544 11.59058 2.467833 22.45675 7.613128 32.49365-13.158632-.50517-27.565453 1.27726-38.418201 3.79362l3.925658 16.75678c10.128605-2.38292 19.028063-3.52673 26.936566-3.71736-20.800316 11.15212-33.892213 33.74231-45.030827 50.42282l14.216247 9.53173c11.024273-14.10696 18.218143-30.31088 31.529213-40.03324-4.687935 6.00498-8.880373 13.34442-12.158129 21.25575-10.242945 24.68717-9.194835 48.6118 2.34395 53.47296 11.595973 4.8612 29.318654-11.24743 39.599738-35.93459 3.55404-8.48323 5.84084-17.25243 6.69841-25.35439 2.19151 18.96813-5.71699 38.98475-8.737478 54.42613l14.740298 2.85952 1.52455 16.68052c11.05284-1.04848 25.0595-2.76419 37.63688-1.33445-1.42927 1.62042-2.85849 3.14549-4.09718 4.76588-6.57457-.5719-14.10191 2.47825-20.00948 7.91133-1.04811.95319-2.00097 1.90635-2.8585 2.95484-2.47738-.0955-4.95471-.19057-7.52738-.19057-7.81321.0955-16.89371 1.7157-24.201956 8.19729l11.338736 12.77249c3.4302-2.95481 7.14622-3.71736 13.0538-3.81268h.57169c.38113 8.10197 6.47924 13.63035 13.6255 14.20225-.95282 4.95653-3.23961 9.62704-7.33681 13.53508l11.81512 12.39123c9.90946-9.43642 13.24439-21.25575 13.43496-32.31257l2.00093-1.7157c5.90757-5.62372 9.43304-12.96313 9.24246-19.63534 2.00094-1.33444 4.00191-2.76419 6.00283-4.3846 2.19155 11.24745.76229 21.35106-4.28772 32.02658l15.62647 7.24414c5.05-10.77084 7.14622-22.11363 6.47923-33.74231 10.86229 4.19395 24.10666 5.5284 39.54255 2.66887l-3.04908-16.7758c-4.28772.76254-8.19434 1.23913-11.71982 1.33445 19.05666-4.38462 36.8746-17.06182 50.88124-25.73566l-8.9566-14.67888c-16.10287 9.05514-28.96614 19.3494-45.25955 23.63869 6.76511-3.62207 13.62551-8.57854 19.81891-14.39291 19.53307-18.20559 28.48968-40.4145 20.00948-49.66027-8.48021-9.34109-31.34818-2.00167-50.97654 16.29924-6.66981 6.19561-12.38681 13.15377-16.484 20.11193 6.09812-18.11027 21.43875-32.97977 30.49065-45.75226l-14.10194-9.913c-13.14908 18.87281-26.86987 31.16872-32.8727 51.56661-.47641-3.05013-.85757-6.00498-1.04812-8.86448l-17.15097 1.33443c.76224 9.43641 2.47734 20.30257 6.28869 30.8828-11.71985-1.14381-23.91608.57191-35.15953 1.71572 5.81229-26.21227 13.24438-46.70547 5.90757-71.01137 6.76511 6.10031 12.38681 12.86783 17.72269 19.44471l13.33965-10.86616c-6.19342-7.62537-13.62552-16.68051-23.34442-24.68717 11.91043-4.86117 22.10574-11.61916 29.34726-15.71781l-8.3849-14.98387c-9.62361 5.44261-21.72459 12.79157-33.73029 16.7949.667-2.09699 1.23869-4.09864 1.71511-6.1003 8.9566-4.76587 14.67359-11.63824 16.67457-20.39789 2.00093-1.03896 4.00189-2.13511 6.00282-3.37424 6.38399-4.00332 12.4821-9.71283 16.10287-17.9673l-15.62646-6.98675c-2.00092 4.356-4.57359 7.05347-8.48021 9.68424-3.8113-6.13844-11.33869-7.91133-17.24626-5.89061-.85753-4.56569-.47641-9.39829 1.52456-14.56447zm244.52535 3.58393-11.62455 12.65812c12.86322 13.02988 26.86987 22.60926 35.06423 37.18326-5.33586-5.557-12.00569-10.81851-19.3425-15.2317-22.86799-13.78287-46.5935-16.28972-53.16806-5.61418-6.57453 10.74225 6.76514 30.69215 29.63309 44.54175 10.38588 6.19563 21.43873 10.38959 31.06236 11.72402-23.24912 6.29094-37.25576 1.90634-56.97939-6.6722l-6.8604 15.63203c19.15192 8.48323 37.25575 13.3444 61.26712 8.95982-6.28869 5.62371-12.95851 10.48489-19.34249 14.86948l9.71888 14.10696c9.62361-6.57689 20.29535-14.86949 29.91895-25.64035 3.33493 11.91466 8.86132 23.35273 13.43492 34.98143l16.00758-6.10031c-5.24054-13.43972-10.48113-24.21056-13.72078-36.98308 2.66797 1.42976 5.33588 2.66888 7.90855 3.71738 1.23864 6.48157 6.0981 12.96313 12.95851 17.15709 1.81037 1.14381 3.71603 2.00167 5.62167 2.76421 3.23964 7.62538 7.24155 14.48821 13.62553 22.1136l13.14907-11.05681c-3.43019-4.09863-5.90753-7.62538-7.90849-11.15211 4.19249-2.38293 6.76509-6.00499 7.43207-10.29426 3.04909 1.14381 6.47929 2.76419 10.29059 5.05181l8.76609-14.67885c-9.52835-4.67055-18.00854-9.53173-27.72745-9.53173-1.42921-1.23912-3.04901-2.38293-4.66886-3.43142-6.95567-4.19396-15.05474-5.52839-21.43871-3.52675-2.85851-2.38292-6.09814-4.76585-9.52833-7.05347 14.19719-4.19395 32.96799-4.28927 45.73594-2.19229l2.66792-16.93788c-16.3887-2.32574-32.01514-2.95484-47.1652.4194 2.85847-10.93289 4.28775-23.15257 3.71608-36.85918l-17.15099.72441c.38111 7.90179 0 15.13638-.95282 21.83718-8.95666-18.90141-27.34632-33.58026-40.40013-45.48538zm-15.62645 155.79601-10.67172 13.34443c9.14718 7.33942 14.95947 15.82265 18.10381 26.78413-2.47737-.47657-4.95472-.95316-7.3368-1.23912-2.85851-6.00496-9.24248-11.05678-17.0557-13.43971-1.23868-.38126-2.57266-.66722-3.81136-.85788-1.81038-1.62037-3.62072-3.05013-5.5264-4.4799-7.81321-5.71903-17.05571-10.10361-26.20289-12.86782l-4.95475 16.39457c5.24058 1.62038 10.57645 3.90798 15.34063 6.67219-3.04907 3.43143-4.09718 8.00664-3.23965 12.1053-5.52642.38128-10.86229-.0955-15.3406-1.23913l-4.38301 16.58519c10.86228 2.85952 22.77268 2.66891 34.11137.19058 1.42928.5719 2.85851 1.1438 4.28778 1.5251 7.71792 2.1923 15.72171 1.52506 21.34344-1.90636 1.90566.85788 3.81131 1.71572 5.90756 2.47826-10.67173 6.86284-23.9161 11.53339-34.30199 15.632l6.28871 16.01331c7.05097-2.85953 17.24626-6.10031 27.44157-11.24742.66698 9.81767 2.95377 19.25406 6.28869 27.35603l15.81703-6.48154c-2.85851-7.05348-4.76418-15.53672-5.05003-24.2106 6.66984 11.81933 14.7689 20.01662 23.53498 26.0216 9.71891 6.5769 19.81893 10.77086 29.91892 15.44138 7.52737 20.58854 13.05378 37.26905 11.52929 55.28402-2.09623-8.00664-5.81231-16.68051-10.86227-24.78249-14.10195-22.78081-34.20671-35.83927-44.87845-29.26239-10.67171 6.67222-7.9085 30.4062 6.19342 53.18702 5.90757 9.53171 13.1491 17.72901 20.58122 23.3527-22.58215-6.67215-33.92087-20.20722-48.49919-39.84257l-13.7208 10.29426c17.05569 22.87616 34.96894 41.74895 68.6992 48.70713-9.71888 2.8595-19.81889 3.62203-28.10854 2.66886l-2.09623 16.96646c9.52834 1.1438 20.20005.66723 30.96706-2.00167-2.09623 10.96149-2.57265 21.35109-3.3349 28.59517l16.96037 1.90637c1.2387-10.96148 2.19153-25.06845 6.09819-37.1737 1.33393 1.71569 2.57259 3.43142 3.9066 4.95646-1.81038 6.19563-.47642 13.91633 3.52547 20.68383-4.19246 12.67722-2.47738 26.59351 3.90661 37.65032l14.86418-8.57856c-2.66794-4.67053-3.90661-10.38956-3.62077-16.1086 7.05097 1.81103 13.24438.47659 17.15099-4.95652 3.8113 3.33614 7.52738 7.62538 10.76701 12.67723l14.48303-9.15046c-6.47924-10.10366-14.76887-18.96814-24.39248-24.11528-.76229-1.81103-1.61984-3.62206-2.66795-5.33776-4.28771-6.86283-10.86229-11.72402-17.43681-12.86783-.95288-2.19229-2.00096-4.47991-3.23967-6.76753 11.5293 0 21.1529 3.33613 30.68124 10.38957l10.10002-13.9163c-9.43304-6.86283-19.72363-11.05681-30.96707-12.77251 5.81227-10.4849 9.33775-23.2574 9.52836-38.41285l-17.15098-.19058c2.38202 15.15545-10.67177-40.70046-13.05384-47.18201l2.19152-4.00333c-17.24624-10.00833-35.25482-14.20225-47.92747-27.64201 6.76511 4.47989 15.15006 8.19729 24.01137 10.86617 25.72646 7.53006 49.35672 3.90799 52.88219-8.1973 3.43021-12.10526-14.48305-27.92795-40.11423-35.45802-8.19437-2.38289-16.484-3.71734-24.10668-3.90799 17.34159-3.62203 36.68407-.5719 50.97654.76255l1.52454-17.15712c-21.72458-.76254-38.78029-4.95648-57.74167 0 3.52551-1.62036 7.43211-3.05015 11.71987-4.28928l-4.76417-16.39456c-14.6736 4.19398-26.10761 10.96149-34.6831 19.06348-4.5736-10.19895-11.43399-18.96816-20.39061-26.11697zm-250.089916 114.76198-13.739838 10.29427c1.829438 2.47823 3.153872 6.57688 3.687471 11.05681-6.298239-.9532-12.491642 1.90633-15.2358 7.2441-4.154337-2.95483-8.327761-6.76751-12.120027-11.43806l-13.301527 10.86617c7.498787 9.24577 16.703131 17.06177 26.869871 20.96976 4.192439 8.00665 14.206704 15.34608 22.11524 15.91799.828942 1.4298 1.7151 2.95485 2.667924 4.38463-12.19627-.9532-24.821301-5.90968-35.359621-11.91466l-8.46115 14.8695c10.938526 6.19559 24.583073 12.2959 39.142378 14.10693-5.802777 10.86615-8.689832 24.68718-6.965226 41.46296l17.055694-1.71569c-.44782-4.38458-.571699-8.38793-.419224-12.00998 2.782257 19.44471 14.035211 38.41285 21.572101 53.09174l15.24534-7.81605c-7.14626-16.48988-17.62743-30.69214-19.72365-47.08669 2.95379 7.05344 7.4321 14.29759 12.67268 21.06511 16.57928 20.87447 38.01799 31.55001 47.83217 23.8293 9.81417-7.81601 4.38306-31.07343-12.19624-52.04323-8.09908-10.29427-17.91325-18.68217-27.06044-23.06679 6.76511.57193 12.38681 1.90637 17.6274 4.00336 10.29059 4.28927 20.10476 11.91467 34.20667 22.59018l10.38588-13.72568c-13.81607-9.05511-26.01232-20.39789-39.35197-25.16372v-16.3946c-8.86135-.0953-19.05666.6672-29.06138 3.14549 3.62073-12.20064 5.33583-24.3059 5.24057-34.40955l-17.15097.19056c.0954 9.81769-2.19155 23.35273-7.041429 36.31589-1.819933-2.00167-3.677965-3.90804-5.526453-5.71902.609837-13.7257-1.962829-15.82268-6.250556-26.21228.181147-8.76915-1.305385-18.58684-7.355888-26.68882z" fill="#e5f9ff" stroke-width="36"/></g></svg>