<svg height="500" viewBox="0 0 500 500" width="500" xmlns="http://www.w3.org/2000/svg" xmlns:xlink="http://www.w3.org/1999/xlink"><radialGradient id="a" cx="1362.7291" cy="216.11429" gradientTransform="matrix(1.0000001 -.0000059 .0000001 1.0000003 -112.72927 33.893757)" gradientUnits="userSpaceOnUse" r="250"><stop offset="0" stop-color="#ff851a"/><stop offset=".42441937" stop-color="#f87000"/><stop offset=".86367416" stop-color="#f26900"/><stop offset="1" stop-color="#e55f00"/></radialGradient><g transform="translate(-1000)"><path d="m1500 250a250 250 0 0 1 -250 250 250 250 0 0 1 -250-250 250 250 0 0 1 250-250 250 250 0 0 1 250 250z" fill="url(#a)" stroke-linecap="round" stroke-linejoin="round" stroke-width="1.002"/><path d="m1309.2298 33.82789c128.5196 30.706851 207.8974 167.48127 169.5927 291.56949-31.3771 95.69524-112.8693 162.03793-212.5543 174.60263 153.1796-8.09118 266.0956-163.0043 218.7012-309.92978-36.4562-114.666588-154.6038-191.5214848-270.6514-169.822657-18.8526 4.215647-38.4387 10.498641-55.8829 18.694487-112.5353 47.459213-168.47522 196.206-99.9632 307.85319 57.6978 93.63045 168.5136 141.8489 267.9993 100.77239-134.92 68.97589-303.283-51.46877-311.488-201.30723-4.4167-117.68321 76.8182-219.674136 190.654-246.26040176-89.0147 9.18391126-152.6601 79.39239576-187.7408 157.21169176-38.45522 102.70317 5.2337 231.75078 109.038 294.08388 114.5107 66.1048 260.3537 29.37245 323.6836-83.60152 42.2104-77.69758 34.3514-177.62383-23.1776-249.88923-57.5404-72.257811-157.5429-102.460489-246.4118-71.877168-81.7429 30.682061-131.1298 101.133078-134.0478 190.176958.6692 92.68536 61.7912 168.55972 147.5399 198.52472 128.5549 37.82014 266.7725-70.33038 233.6823-209.88949-14.7104-64.39775-57.8855-122.14991-125.7378-141.121386-71.391-15.467036-138.9716 1.205-181.2869 64.641366-18.8995 29.2286-28.9384 85.21395-26.105 97.65297m0 0c13.5324-50.18833 30.6277-97.66354 72.2125-128.94941 53.182-38.308183 124.4576-37.093813 181.7444-.48035 50.1457 36.48017 75.4845 90.37713 72.3557 150.91678-6.6674 64.04407-38.4038 109.83277-91.6401 141.00844-63.9019 34.56125-135.3795 4.83213-189.1258-35.28385-78.8706-65.48566-79.7477-186.67235-8.9744-256.76104 63.7369-55.941605 167.0207-64.891564 238.7167-6.65053 78.8163 58.35315 90.3045 169.04089 40.972 246.62443-35.2274 56.41892-88.4571 87.60135-152.5581 93.63158-81.9488 2.18264-160.666-41.91503-196.8695-120.9383-36.2055-79.02511-22.5771-164.33167 26.8727-227.66064 49.4316-63.30896 138.3491-86.746364 220.4504-67.54202" fill="#c50"/></g><g fill-rule="evenodd"><path d="m268.08385 212.19092-7.58709-14.31303c-25.80191 17.71658-30.0447 74.92965-30.53006 100.72009-.31954 25.27377 2.79172 68.77773-16.73646 87.89551l8.42578 13.83594c24.70138-19.22128 25.53043-76.58546 24.50295-101.89159 1.80888-24.71364 1.29317-68.32567 21.92488-86.24692z" fill="#994100"/><path d="m257.80032 187.70052-14.12553-7.9307c-12.11073 28.8608 15.28128 79.26928 28.28596 101.12425 6.43836 9.31792 15.33463 17.66373 19.93182 26.06882 4.5972 8.40599 6.19064 15.24082-1.78515 27.03711-6.45839 9.55169-16.09832 25.79814-14.45312 43.82421.82439 9.0126 5.08975 18.38676 13.65234 25.52735 8.56439 7.1406 20.94294 12.21855 38.29492 15.08594l2.64258-15.98437c-15.50338-2.5614-25.06801-6.96107-30.5625-11.54297s-7.40118-9.1739-7.89258-14.5586c-.9837-10.76939 6.17734-25.05045 11.74024-33.27734 10.80989-15.98849 8.98851-32.15778 2.57421-43.88476-6.41249-11.72609-16.12278-20.6373-20.64756-27.23952-11.27418-21.61838-35.30781-58.01426-27.65563-84.24942z" fill="#994100"/><path d="m343.52344 69.263672-77.39063 68.800778-58.47656 51.98633-.00391.00586c-38.8114 34.56892-77.69307 69.07048-116.615231 103.64258l8.138672-7.3125-5.800781-6.35938-.005859-.00586c-11.107098-12.20446-25.286189-15.83056-35.935547-18.23828-15.4106-3.4842-31.104743-3.09504-46.386719.08399l-.023437.00586-.025391.0039c-3.4077456.71865-6.7112721 1.62696-9.9609376 2.6211a250 250 0 0 0 8.6269531 53.80468c4.0013195-1.99073 8.5610385-3.71203 13.5546875-4.80664 4.001836-.87728 8.040828-1.33862 11.861328-1.38086 2.91111-.0315 5.57512.21901 7.958984.64454 4.774606.85227 8.425157 2.40906 10.695313 3.82226-.160652 1.91896-.063157 6.16666-1.236328 9.46875-.602527 1.69592-2.10923 3.67413-5.994141 7.22266-5.198888 3.52969-12.050963 6.53108-19.353515 8.13281-3.022493.66241-5.938974 1.00188-8.761719 1.17969a250 250 0 0 0 26.246094 49.18164c5.183057-1.33927 10.221988-2.79136 16.222656-4.33594l2.644531-.67969 189.691407-117.11133.07226-.04492c11.04842-6.96475 20.92243-13.92105 30.75782-21.70312 9.02346-7.13964 18.13879-14.83643 26.67773-23.63477 8.87449-9.14407 22.02039-19.67301 30.13672-37.0332 6.17566-13.20931 13.34989-29.94586 17.62305-47.10742 4.27314-17.16159 7.10633-35.8774-3.61914-52.892581z" fill="#994100"/><path d="m339.61523 96.822266-61.52148 54.693354-58.4707 51.98243c-38.83126 34.58597-77.72146 69.09678-116.64258 103.66797l-5.062501 4.54882-17.857422-19.57422c-6.732736-7.40073-17.000541-10.63096-26.597656-12.80078-12.598733-2.84846-25.550854-2.59539-38.75.15039-4.288851.90447-8.4032984 2.10381-12.3515629 3.51368a250 250 0 0 0 3.3730469 17.23632c4.2501411-1.78923 8.809995-3.26986 13.628906-4.32617 5.174634-1.13437 10.413248-1.74075 15.523438-1.79687 15.556433-.16805 28.69405 4.76229 35.353515 13.26758 3.491852 6.55007 1.975526 16.932-.78125 24.6914-2.152682 6.05909-6.303733 10.55469-11.691406 15.34375-7.527864 5.36529-16.854428 9.39731-26.763672 11.57031-1.708744.3745-3.40781.68719-5.091797.94336a250 250 0 0 0 8.625 15.79297c.152352-.03136.302641-.04598.455079-.07812 6.396137-1.37102 12.617268-3.39318 21.378906-5.64844l187.294926-115.63086c10.57496-6.66629 19.85165-13.20342 29.18945-20.5918 8.70081-6.88435 17.20064-14.09481 24.92773-22.05664 9.70374-9.99852 20.84897-19.49729 26.75-32.11914 11.87871-25.40763 26.98988-63.88835 15.08203-82.779294z" fill="#ffa348" stroke-width="36"/><path d="m218.14353 103.15894c21.08514 5.83847 42.78195 13.81824 62.05249 21.38985 26.33545 9.90341 52.26386 19.90854 74.48815 32.87539 37.87587 19.92128 82.47208 45.30208 110.30982 73.94879 21.44657 22.53972 30.95581 44.30464 23.55153 66.12884l15.33914 5.20324c9.85866-29.05896-3.63809-57.7834-27.15454-82.49874-23.51735-24.71522-57.5544-46.96349-93.25785-66.16473-12.58826-6.76946-25.38103-13.13448-37.98835-19.06238l-49.75378-21.67958c-24.78998-8.72909-49.43887-18.943737-74.87735-26.137324-28.94222-8.184386-88.14768-19.279881-88.14768-19.279881-21.17001-12.721997-35.067818-31.997271-45.319888-54.492899l-14.740848 6.721167c11.817413 25.929168 29.500486 49.520138 56.440856 64.223227 0 0 59.81657 10.728006 89.0583 18.82503z" fill="#994100" transform="matrix(.99116836 .1326095 -.1326095 .99116836 0 0)"/><path d="m125.31898 112.51978c-14.15164-7.43289-25.18438-21.401979-35.249763-30.686403l-.000259-.0019-10.926395 11.960827c15.534586 14.715416 26.426947 28.332556 44.976697 35.844416 0 0 28.4137 8.30194 42.92704 11.09098 14.92373 2.8679 30.46859 2.13246 45.22395 5.76868 36.46331 8.98579 73.07576 23.17635 105.5841 39.30466 4.07899 2.05908 8.11996 4.19097 12.12296 6.39416 22.2577 12.2732 42.58488 26.60439 56.50498 42.07971s21.28451 31.51555 19.73001 48.61176c-2.0141 22.15816 3.05312 38.13987 12.99215 48.13583 9.93915 9.99685 23.46192 13.22457 36.05765 13.61601 10.47387.32483 36.59059-.4002 53.91184 27.85262l13.81143-8.46882c-21.40836-34.91839-58.00469-35.28977-67.21764-35.57628-10.1803-.31598-19.15147-2.88809-25.07624-8.84653-5.92375-5.95766-10.08743-16.08399-8.34526-35.24563 2.06079-22.67108-8.01647-43.34457-23.81919-60.91251-15.80196-17.56895-37.47848-32.6153-60.72541-45.43443-4.80592-2.64481-9.66526-5.19251-14.57216-7.64488l-56.03774-23.93257c-21.32263-7.74107-34.7869-12.12599-52.73642-16.06257-15.02411-3.29499-30.63728-3.23024-45.71662-6.26241-14.68558-2.953-43.41971-11.58472-43.41971-11.58472z" fill="#994100" transform="matrix(.99116836 .1326095 -.1326095 .99116836 0 0)"/><path d="m239.36328.68164062-25.55273 2.00390628c-22.01832 1.7270008-40.72291 12.2908571-54.95313 26.4589841-14.23022 14.168126-24.66537 31.849941-32.8789 50.230469-16.42708 36.76106-24.00545 76.94-27.832036 99.56836l-.095703.57031-.060547.57227c-3.400829 32.76178-10.416957 66.16525-10.464843 102.21289-.03141 23.64792 3.584011 45.46416 6.371093 66.82226-3.62896 4.02349-6.893353 8.47707-9.505859 13.48633l-.335937.64453-.283204.66993c-5.032795 11.90276-7.623146 24.6195-8.826172 35.80468l-.001953.02149-.003906.01953c-1.04166 9.89085-.574063 20.94077 3.164063 40.31836 4.958601 25.70429 24.338044 48.75894 52.345704 52.59961l.05273.00586.05274.00781c27.09482 3.55503 51.92111-13.84095 65.85937-39.4668l.05274-.09765.05273-.09766s2.76651-4.66783 4.93945-10.58399c2.91805-7.94473 5.70135-16.69281 7.05274-26.49804l.00586-.03516.0039-.03515c2.97001-22.20123-.58765-43.46738-9.82031-60.76368-8.00511-14.99663-21.07623-27.38806-37.57422-32.18164-.20865-15.99528 1.3272-35.54179 4.00391-52.35156.99658-6.25859 7.4707-26.89844 7.4707-26.89844l.15821-.46875.13085-.47461zm-94.53711 374.14452938c2.02242.5951 3.72211 1.63195 5.6836 4.38672 2.47208 3.47186 4.81835 9.54952 5.52539 17.46289.0002.002-.00054.00386 0 .00586.57114 6.52166-.00683 13.31381-1.59375 19.70508l-.08008.33008-.07031.33008c-1.02853 4.93225-5.52244 13.20344-8.88086 18.50976h-.00196c-.22926.35951-5.67207 3.54676-6.89258 3.375-1.17822-.21404-3.9665-1.6379-6.8164-7.63867-2.78654-5.86737-4.54574-15.14353-3.64844-25.2832l5.54492-20.17969c3.7058-7.35073 7.07161-10.15329 11.23047-11.00391z" fill="#994100"/><path d="m155.53125 237.98047 59.6875-217.349611c-69.20273 5.427895-91.83622 117.034501-99.32422 161.314451-3.52349 33.94347-10.32446 66.73995-10.36914 100.37696-.0326 24.57526 4.49208 48.47514 7.38086 73.35547-5.07934 4.19189-9.51125 9.41461-12.55664 15.25391-4.0283 9.52711-6.461222 20.99005-7.50781 30.72069-.8798 8.354-.645649 16.45936 2.935546 35.02344 3.581191 18.5641 18.541344 35.62823 37.119144 38.17578 17.96839 2.3576 36.30354-9.25676 47.70507-30.21875 0 0 2.89522-5.48319 3.96094-8.38477 2.7074-7.3712 5.02839-14.85006 6.11719-22.75 5.01442-37.48352-12.72542-70.78769-39.74805-74.39257l-6.97656-.30664c-2.12999-20.00969-.32907-47.62899 3.39904-71.04168 1.61861-10.16496 8.17713-29.77668 8.17713-29.77668zm-9.77344 118.47461c16.0251 2.24718 26.34206 17.72439 28.20704 38.62695.75912 8.62894.00006 17.3707-2.05274 25.64063-1.98169 9.50305-7.80983 18.95711-11.29883 24.46875-4.48293 7.07396-14.88242 13.1198-24.93359 11.52734-17.09825-2.7829-28.38071-26.53936-25.48438-53.66016l6.58399-23.96679c6.40027-13.37697 16.22106-21.8107 28.97851-22.63672z" fill="#ffa348" stroke-width="36"/><path d="m142.03204 265.83523-.002.002.002.002z" fill="#ed333b" stroke-width="35.9999" transform="matrix(.99116836 .1326095 -.1326095 .99116836 0 0)"/></g></svg>