<svg height="500" viewBox="0 0 500 500" width="500" xmlns="http://www.w3.org/2000/svg"><g transform="translate(0 -1000)"><path d="m0 1250a250 250 0 0 1 -250 250 250 250 0 0 1 -250-250 250 250 0 0 1 250-250 250 250 0 0 1 250 250z" fill="#9db3df" stroke-linecap="round" stroke-linejoin="round" stroke-width="9.39799" transform="scale(-1 1)"/><g clip-rule="evenodd" fill-rule="evenodd"><path d="m263.85417 1289.4759c11.1612 3.7204 14.8816-7.4408 18.46913-11.0283 7.04219-8.7696 15.28021-26.0428 14.48299-54.6102-10.49685-61.1209-92.21278-68.5617-125.69638-20.1965-11.1612 18.602-11.1612 33.4836-14.8816 52.0856 0 29.7632 14.8816 52.0856 40.9244 70.6876 11.1612 11.1612 26.0428 11.1612 37.204 14.8816 70.6876 11.1612 130.214-48.3652 119.0528-119.0528-7.4408-29.7632-22.3224-59.5264-48.3652-78.1284-44.6448-29.7632-96.7304-29.7632-137.6548-3.7204-18.602 11.1612-29.7632 22.3224-40.9244 40.9244-63.2468 100.4508 26.0428 219.3708 133.9344 208.2096 22.3224 0 40.9244-11.1612 63.2468-18.602 22.3224-14.8816 44.6448-37.204 59.5264-59.5264 40.92441-78.1284 7.4408-171.0056-66.9672-215.6504-26.0428-11.1612-52.0856-22.3224-81.8488-22.3224-37.204 0-70.6876 11.1612-100.4508 33.4836-33.4836 26.0428-52.0856 59.5264-66.9672 96.7304-7.4408 14.8816-3.7204 33.4836-7.4408 52.0856 0 119.0528 126.4936 215.6504 241.69313 174.726 29.7632-14.8816 63.2468-26.0428 89.2896-52.0856 22.3224-29.7632 44.6448-59.5264 52.0856-96.7304 3.7204-26.0428 7.4408-44.6448 3.7204-70.6876-18.602-152.5364-189.60753-234.25236-319.82153-156.2568-22.3224 14.8816-44.6448 29.7632-59.5264 52.0856-29.7632 37.204-44.6448 74.408-52.0856 119.0528-18.602 137.6548 96.7304 260.2951 230.53193 260.2951 29.7632 0 63.2468-11.1612 93.01-18.602 37.204-14.8816 70.6876-33.4836 96.7304-66.9672 18.602-26.0428 29.7632-52.0856 44.6448-81.8488 11.1612-33.4836 18.602-70.6876 14.8816-104.1712-7.4408-44.6448-18.602-85.5692-44.6448-119.0528 96.59753 111.7449 44.51193 297.7649-81.8488 364.7321-22.3224 14.8816-48.3652 18.602-70.6876 26.0428-89.2896 22.3224-178.44633-14.8816-234.25233-78.1284-14.8816-14.8816-18.602-33.4836-29.7632-52.0856-48.3652-70.6876-33.4836-152.5364 3.7204-226.8116 52.0856-89.2896 159.9772-130.21396 264.01553-100.4508 63.2468 18.602 115.3324 63.2468 141.3752 126.4936 7.4408 29.7632 14.8816 59.5264 14.8816 89.2896 0 37.204-11.1612 70.6876-29.7632 104.1712-14.8816 22.3224-26.0428 40.9244-48.3652 55.806-18.602 11.1612-33.4836 18.602-52.0856 29.7632-33.4836 11.1612-70.6876 18.602-111.612 14.8816-122.7732-18.602-200.76873-148.816-156.2568-267.7359 14.8816-29.7632 29.7632-59.5264 55.806-78.1284 55.806-40.9244 119.0528-52.0856 185.88713-29.7632 100.4508 40.9244 148.816 156.2568 89.2896 245.4135-11.1612 18.602-18.602 33.4836-33.4836 48.3652-55.806 40.9244-130.214 55.806-189.60753 18.602-14.8816-14.8816-33.4836-18.602-44.6448-37.204-44.6448-66.9672-44.6448-156.2568 18.602-211.9299 63.2468-55.806 174.72593-40.9244 215.65033 37.204 7.4408 22.3224 18.602 40.9244 14.8816 66.9672 0 22.3224-11.1612 40.9244-14.8816 59.5264-26.0428 55.806-96.7304 74.408-152.5364 55.806-18.602-11.1612-40.9244-18.602-52.0856-37.204-48.3652-70.6876-7.4408-178.4463 85.5692-174.7259 22.3224 0 44.6448 14.8816 63.2468 26.0428 29.7632 22.3224 33.4836 55.806 29.7632 89.2896-11.1612 48.3652-63.2468 70.6876-111.612 59.5264-22.3224-7.4408-37.204-29.7632-44.6448-52.0856-3.7204-26.0428 3.7204-48.3652 22.3224-66.9672 33.4836-33.4836 89.2896-7.4408 96.7304 37.204-3.7204 18.602-14.8816 37.204-29.7632 52.0856" fill="#c6d2ec" opacity=".9"/><path d="m262.92407 1285.7555c10.2311 3.4546 13.68576-6.7765 17.00754-10.0982 6.37783-7.8395 13.9515-23.6512 13.15428-49.9597-9.56675-56.2046-84.77198-62.9811-115.59815-18.602-10.2311 17.1404-10.2311 30.6933-13.68576 47.8337 0 27.3715 13.68576 47.8337 37.60262 64.9741 10.2311 10.2311 23.91686 10.2311 34.14796 13.6858 64.97413 10.2311 119.58428-44.3791 109.35318-109.3532-6.77644-27.3715-20.4622-54.743-44.37905-71.7506-41.05728-27.3715-88.89099-27.3715-126.49361-3.4546-17.14041 10.2311-27.37151 20.4622-37.60261 37.6026-58.06482 92.3456 23.91686 201.6988 123.03894 191.3349 20.4622 0 37.60262-10.2311 58.06482-17.1405 20.4622-13.6857 41.05727-34.1479 54.74303-54.743 37.60261-71.7506 6.77644-157.1869-61.51947-198.2442-23.91686-10.2311-47.83372-20.4622-75.20523-20.4622-34.14796 0-64.97413 10.2311-92.21278 30.8262-30.6933 23.9169-47.83371 54.743-61.51947 88.891-6.77644 13.6858-3.45466 30.6933-6.77644 47.8337 0 109.3532 116.2625 198.2442 222.16103 160.6416 27.37151-13.6858 58.06481-23.9169 81.98167-47.8337 20.4622-27.3716 41.05727-54.7431 47.83372-88.891 3.45465-23.9169 6.77644-41.0573 3.45465-64.9742-17.14041-140.0464-174.32731-215.25168-293.9116-143.5011-20.4622 13.6858-41.05727 27.3715-54.74303 47.8337-27.37151 34.148-41.05727 68.2959-47.83371 109.3532-17.14042 126.4936 88.89098 239.3014 211.92993 239.3014 27.37151 0 58.06481-10.2311 85.43633-17.1404 34.14795-13.6857 64.97413-30.8261 88.89098-61.5194 17.14042-23.9169 27.37152-47.8338 41.05728-75.2053 10.2311-30.6933 17.14041-64.9741 13.68575-95.6674-6.77644-41.0573-17.14041-78.6599-41.05727-109.3532 88.89099 102.5768 41.05727 273.4494-75.20523 334.9689-20.4622 13.6857-44.37906 17.1404-64.97413 23.9168-81.98167 20.4622-164.09621-13.6857-215.25171-71.7505-13.68576-13.6858-17.14042-30.6933-27.37152-47.8337-44.37906-64.9742-30.6933-140.1794 3.45466-208.4753 47.83371-81.9817 146.9558-119.5843 242.62323-92.2128 58.06481 17.1404 105.89853 58.0648 129.81539 116.2625 6.77644 27.3715 13.68575 54.743 13.68575 81.9817 0 34.1479-10.2311 64.9741-27.37151 95.6674-13.68576 20.4622-23.91686 37.6026-44.37906 51.2884-17.14041 10.2311-30.6933 17.1404-47.83371 27.3715-30.82617 10.2311-64.97413 17.1404-102.57675 13.6858-112.80784-17.1405-184.55841-136.7247-143.50114-246.0779 13.68576-27.3715 27.37151-54.7431 51.28837-71.7506 51.28837-37.6026 109.35319-47.8337 170.87266-27.3715 92.21277 37.6026 136.7247 143.5011 81.98167 225.6157-10.2311 17.1404-17.14041 30.6933-30.82617 44.379-51.28837 37.6026-119.58429 51.2884-174.32732 17.1404-13.68575-13.6857-30.82617-17.1404-41.05727-34.1479-41.05727-61.5195-41.05727-143.5012 17.14042-194.7895 58.19768-51.5541 160.77443-37.8684 198.37704 33.8822 6.77644 20.4622 17.14042 37.6026 13.68576 61.5195 0 20.4622-10.2311 37.6026-13.68576 54.743-23.91686 51.2884-88.89099 68.2959-140.17936 51.2884-17.14041-10.2311-37.60261-17.1405-47.83371-34.148-44.37906-64.9741-6.77644-164.0962 78.65988-160.6416 20.4622 0 41.05728 13.6858 58.06482 23.9169 27.37151 20.4622 30.6933 51.2884 27.37151 81.9817-10.2311 44.379-58.06481 64.9741-102.57674 54.743-20.4622-6.7764-34.14796-27.3715-41.05727-47.8337-3.45466-23.9169 3.45466-44.3791 20.4622-61.5195 30.6933-30.8262 81.98167-6.7764 88.89099 34.148-3.45466 17.1404-13.68576 34.1479-27.37152 47.8337" fill="#ecf0f9" opacity=".9"/><path d="m226.91591 1287.6157c5.31486 10.4968 15.8117 5.3148 20.86082 5.3148 10.62971-1.0629 28.56735-7.4408 48.23233-28.3016 35.87528-50.624-16.7418-113.7379-74.54088-103.2411-20.99368 5.3149-31.49052 15.8117-47.30222 26.3086-20.99369 20.9937-26.30855 47.3022-20.99369 78.9256 0 15.8117 10.49684 26.3085 15.8117 36.8054 42.12024 57.7991 126.22786 57.7991 168.3481 0 15.8117-26.3086 26.30854-57.7991 20.99369-89.4225-10.49685-52.6171-47.30223-89.4225-94.60446-99.9193-20.99369-5.3149-36.80539-5.3149-57.79907 0-115.73102 26.3085-136.7247 173.5301-52.61709 241.9589 15.8117 15.8117 36.80539 20.9937 57.79907 31.4905 26.30855 5.3149 57.79907 5.3149 84.10762 0 84.10761-26.3085 126.22786-115.731 105.23417-199.8386-10.49684-26.3086-20.99369-52.6171-42.12024-73.6108-26.30855-26.3085-57.79907-42.1202-94.60446-47.3022-42.12024-5.3149-78.92563 5.3148-115.73102 20.9937-15.8117 5.3148-26.30854 20.9936-42.12024 31.4905-84.10761 84.1076-63.11393 241.9589 47.30223 294.5759 31.49053 10.4969 63.11393 26.3086 99.91931 26.3086 36.80539-5.3149 73.61078-10.4969 105.23418-31.6234 20.99368-15.8117 36.80538-26.3086 52.61708-47.3022 94.60446-120.913 31.49053-299.758-115.73101-336.5634-26.30855-5.3148-52.61709-10.4968-78.92563-5.3148-47.30223 5.3148-84.10762 20.9937-120.913 47.3022-110.41616 84.1076-115.73102 252.4557-20.99369 347.0602 20.99369 20.9937 52.61709 36.8054 78.92563 52.6171 36.80539 15.8117 73.61077 26.3085 115.73102 20.9936 31.49053-5.3148 57.79907-15.8117 89.42247-26.3085 31.49053-15.8117 63.11393-36.8054 84.10761-63.1139 26.30855-36.8054 47.30223-73.6108 52.61709-115.731-10.76259 147.4872-179.11069 242.2246-315.83539 200.1043-26.30854-5.3148-47.30223-20.9937-68.42879-31.4905-78.92562-47.3022-115.73101-136.7247-110.41615-220.8323 0-20.9937 10.49684-36.8054 15.8117-57.7991 15.8117-84.1076 84.10761-131.5427 163.03324-157.7184 99.91932-26.30852 205.15349 20.9937 257.77058 115.731 31.49052 57.7991 36.80538 126.2279 10.49684 189.3418-15.8117 26.3086-31.49053 52.6171-52.61709 73.6108-26.30854 26.3085-57.79907 42.1202-94.60446 52.6171-26.30854 5.3148-47.30223 10.4968-73.61077 5.3148-20.99368-5.3148-36.80538-10.4968-57.79907-15.8117-31.49053-15.8117-63.11393-36.8053-89.42247-68.4287-73.61078-99.9194-36.80539-247.1409 78.92563-299.758 31.49053-10.4968 63.11393-20.9937 94.60445-15.8117 68.42879 10.4969 120.91301 47.3022 152.53641 110.4162 42.12024 99.9193-5.31486 215.6503-110.41616 236.644-20.99369 5.3148-36.80539 10.4968-57.79907 10.4968-68.42879-10.4968-131.54272-52.6171-147.22155-120.913 0-20.9937-10.49684-36.8054-5.31486-57.799 15.8117-78.9257 78.92563-142.0396 163.03325-136.7247 84.10761 5.3148 152.5364 94.6044 126.22786 178.8449-10.49685 20.9937-15.8117 42.1202-36.80539 57.7991-15.8117 15.8117-36.80538 20.9937-52.61708 31.4905-57.79908 20.9937-120.91301-15.8117-147.22155-68.4288-5.31486-20.9937-15.8117-42.1202-10.49684-63.1139 15.8117-84.1076 120.913-131.5427 184.02693-63.1139 15.67883 15.6788 20.86081 41.9873 26.17567 62.981 5.31486 36.8054-15.8117 63.1139-42.12024 84.1076-42.12025 26.3086-94.60446 5.3149-120.913-36.8054-10.49685-20.9936-5.31486-47.3022 5.31485-68.4287 15.8117-20.9937 36.80539-31.4906 63.11393-31.4906 23.98451 0 41.23931 14.86 48.993 34.3086 7.53814 18.9078 6.09609 42.1526-6.87275 60.2959-15.81171 10.4968-36.80539 15.8117-57.79908 15.8117" fill="#fff" opacity=".9"/></g></g><path d="m250 500c35.36493 0 70.62741-1.93412 97.64062-5.93555 23.20093-3.38245 35.40503-6.29579 52.17969-19.66601-3.96928-55.56706-7.93858-111.13413-11.9082-166.70117 10.52303-2.27306 20.57438-4.74821 36.07845-9.39837s33.23092-12.32222 46.35388-21.62908 22.32168-20.59322 22.32168-34.85151-9.19758-25.54895-22.32057-34.85406c-13.123-9.30511-30.85147-16.97816-52.63847-23.51313-19.10713-5.73105-41.22719-10.36041-65.47266-13.85156l28.71094-110.806641.1211-.691407c.76773-4.328927-.13609-16.172029-1.87793-24.007812-1.18711-5.340293-5.77246-15.363281-5.77246-15.363281-5.48006-7.48661-12.83817-12.4425123-20.17974-15.3632315h-.002-.002c-8.7596-3.48296274-18.59682-4.5717541-28.23819-1.7910156s-18.66392 10.0464831-23.49023 19.6972651c-9.44624 13.934928-14.97481 32.979717-20.99319 54.963891-4.4674 16.324066-8.69299 33.580952-13.08108 49.251002-5.96118-1.0836-11.97771-1.82812-18.05283-1.82812-5.77955.00045-11.38616.63334-16.8751 1.57226-4.36304-15.60399-8.57024-32.758416-13.01367-48.994142-6.01603-21.982816-11.54547-41.026345-21.07226-55.125l.15234.302735.0117.02344c-6.74822-13.4978101-21.23494-21.32563847-34.47435-21.42192487-6.01718-.04390896-11.85948 1.17196667-17.33399 3.34765627h-.002l-.002.00195c-7.34578 2.9209377-14.70422 7.8776256-20.1835 15.3632846 0 0-4.27047 8.401118-5.71777 12.865234-1.464 4.515606-2.95215 13.931641-2.95215 13.931641-.0879 4.045371.25031 8.24673 1.08105 12.922851l28.77051 111.149415c-24.24649 3.49116-46.36561 8.12054-65.472651 13.85156-21.786503 6.53482-39.514291 14.20598-52.716797 23.56836h-.002v.002c-13.04152 9.25027-22.2402346 20.53859-22.2402346 34.79688 0 14.2583 9.1975626 25.54699 22.3205616 34.8521 13.123 9.30511 30.851464 16.97817 52.63847 23.51313 9.220365 2.76548 19.272001 5.24062 29.731441 8.39844-3.9476 55.26958-7.89631 110.53907-11.84472 165.80859 14.76836 13.83713 35.27787 17.1333 52.18068 19.67383 27.01231 4.00022 62.27436 5.9355 97.63963 5.9355z" fill="#7896d3"/><path d="m163.97475 18.017845c-3.46431-.02528-7.05993.685536-10.55633 2.075082-4.74422 1.886439-9.11596 4.906685-12.30892 9.268831 6.80414 2.310401 12.90024 6.7552 17.96054 12.234622 8.20757 8.885708 14.69271 20.690534 20.41825 33.800305 11.45111 26.218585 19.63241 57.924355 26.15255 80.567455l-16.81971 10.67684c-6.63589-23.04177-14.78703-59.99748-25.3745-84.240163-5.29372-12.121825-11.2556-22.45542-17.23695-28.930571-3.66952-3.97319-6.97239-6.402223-10.29956-7.551588-.0603 2.776176.16825 5.781836.74693 9.040318l33.50522 129.314374 10.80531-7.34058c-15.08464 20.27825-22.13873 47.05788-16.62131 74.2226 4.63918 1.73085 12.18831 3.62119 21.44528 5.10895a23.941886 23.937347 0 0 1 -.95214-6.66769c0-13.32175 10.98815-24.30783 24.31243-24.30783s24.31244 10.98608 24.31244 24.30783c0 3.71745-.85685 7.25112-2.37989 10.41722 5.81016.17892 11.7098.28102 17.63181.28102 6.75453 0 13.51686-.12641 20.16344-.35978a23.97398 23.969436 0 0 1 -2.34391-10.33846c0-13.32175 10.98815-24.30783 24.31243-24.30783s24.31244 10.98608 24.31244 24.30783c0 2.21315-.30928 4.35923-.87532 6.40416 8.97881-1.45177 16.42388-3.24097 21.39277-5.00684 5.50186-27.50018-2.17857-54.64156-18.03446-75.00439l12.19512 8.28476 33.50521-129.315344c.57772-3.25751.80627-6.264142.74597-9.040318-3.32718 1.149365-6.63004 3.578398-10.29957 7.551588-5.98134 6.476123-11.94323 16.808746-17.23695 28.930571-10.58745 24.242683-18.73861 61.198393-25.37449 84.240163l-16.82069-10.67684c6.52111-22.6431 14.70242-54.34887 26.15352-80.567455 5.72555-13.109771 12.21068-24.914597 20.41825-33.800305 5.06031-5.479422 11.15641-9.924221 17.96054-12.234622-3.19296-4.362146-7.56468-7.381419-12.30891-9.268831-11.1885-4.448688-23.39044-1.943809-29.06152 9.396214l-.28302.565932-.36083.518284c-6.39274 9.187149-13.05391 28.677753-19.00412 50.415548-5.94827 21.738765-11.58921 45.898795-18.14436 66.268435l-8.33108-2.67893.11768.0797a82.938302 82.92258 0 0 0 -22.13387-2.99885c-6.07276 0-11.97241.67095-17.65808 1.91561l-11.45013 3.68342c-6.55515-20.37059-12.19609-44.53062-18.14533-66.268412-5.94924-21.738768-12.61041-41.229372-19.00315-50.416521l-.35985-.518284-.28399-.565932c-3.89808-7.79663-10.8841-11.41587-18.50519-11.471296zm-11.17879 169.013205c-24.53321 3.42671-46.67777 8.06598-65.33177 13.66112-20.533982 6.15913-36.891726 13.50457-47.476262 21.01045-10.583564 7.50685-14.654765 14.38944-14.654765 20.11488 0 5.72543 4.071201 12.609 14.654765 20.11488 10.584536 7.50491 26.94228 14.85132 47.476262 21.01044 41.06699 12.31729 98.78837 20.13725 162.53581 20.13725 63.74745 0 121.46882-7.81996 162.53679-20.13725 20.533-6.15912 36.88977-13.50456 47.47528-21.01044 10.58357-7.50686 14.65477-14.38945 14.65477-20.11488 0-5.72544-4.0712-12.60899-14.65477-20.11488-10.58453-7.50491-26.94228-14.85132-47.47626-21.01045-18.654-5.59514-40.79954-10.23441-65.33177-13.66112l-.87338 3.37322a111.20036 111.17929 0 0 1 4.63141 13.1195c39.63536 7.76455 62.82836 19.65981 62.90325 32.26199-.0642 15.78482-36.27706 30.16162-93.13381 36.97517-4.62945.77402-9.53609 1.45372-14.76856 2.05855-17.24959 1.99728-37.29339 2.97551-57.24675 2.97551-19.95432 0-39.78319-.97823-56.6282-2.97843-6.55612-.77888-12.59192-1.63946-18.08601-2.70714-53.97501-7.07608-87.818682-21.06685-87.86731-36.32366.01653-12.59538 23.12784-24.49064 62.68929-32.26783a111.62343 111.60228 0 0 1 4.7238-13.58138zm-22.8808 123.7173-2.11244 29.58012c77.94219 18.6388 158.48309 22.02855 244.39456.005l-2.11244-29.58403c-35.35117 6.27289-76.31019 9.83088-120.08484 9.83088-43.77561 0-84.73367-3.55799-120.08386-9.83088zm-3.37484 47.2582-7.73197 108.2203c.91422.72929 3.09279 1.99923 6.29256 3.21763 6.5785 2.50586 17.11538 4.92031 29.89696 6.81453 25.56123 3.78551 60.31329 5.74099 95.00213 5.74099s69.4409-1.9545 95.0031-5.74099c12.78061-1.89325 23.31749-4.30867 29.89696-6.81453 3.19977-1.2184 5.3764-2.48834 6.2916-3.21763l-7.72809-108.17655c-86.708 21.6639-168.56383 18.31693-246.92325-.0437z" fill="#fff" stroke-width="36"/></svg>