<svg height="500" viewBox="0 0 500 500" width="500" xmlns="http://www.w3.org/2000/svg" xmlns:xlink="http://www.w3.org/1999/xlink"><radialGradient id="a" cx="1362.7291" cy="216.11429" gradientTransform="matrix(1.0000001 -.0000059 .0000001 1.0000003 -112.72927 33.893757)" gradientUnits="userSpaceOnUse" r="250"><stop offset="0" stop-color="#ff851a"/><stop offset=".42441937" stop-color="#f87000"/><stop offset=".86367416" stop-color="#f26900"/><stop offset="1" stop-color="#e55f00"/></radialGradient><g transform="translate(-1000)"><path d="m1500 250a250 250 0 0 1 -250 250 250 250 0 0 1 -250-250 250 250 0 0 1 250-250 250 250 0 0 1 250 250z" fill="url(#a)" stroke-linecap="round" stroke-linejoin="round" stroke-width="1.002"/><path d="m1309.2298 33.82789c128.5196 30.706851 207.8974 167.48127 169.5927 291.56949-31.3771 95.69524-112.8693 162.03793-212.5543 174.60263 153.1796-8.09118 266.0956-163.0043 218.7012-309.92978-36.4562-114.666588-154.6038-191.5214848-270.6514-169.822657-18.8526 4.215647-38.4387 10.498641-55.8829 18.694487-112.5353 47.459213-168.47522 196.206-99.9632 307.85319 57.6978 93.63045 168.5136 141.8489 267.9993 100.77239-134.92 68.97589-303.283-51.46877-311.488-201.30723-4.4167-117.68321 76.8182-219.674136 190.654-246.26040176-89.0147 9.18391126-152.6601 79.39239576-187.7408 157.21169176-38.45522 102.70317 5.2337 231.75078 109.038 294.08388 114.5107 66.1048 260.3537 29.37245 323.6836-83.60152 42.2104-77.69758 34.3514-177.62383-23.1776-249.88923-57.5404-72.257811-157.5429-102.460489-246.4118-71.877168-81.7429 30.682061-131.1298 101.133078-134.0478 190.176958.6692 92.68536 61.7912 168.55972 147.5399 198.52472 128.5549 37.82014 266.7725-70.33038 233.6823-209.88949-14.7104-64.39775-57.8855-122.14991-125.7378-141.121386-71.391-15.467036-138.9716 1.205-181.2869 64.641366-18.8995 29.2286-28.9384 85.21395-26.105 97.65297m0 0c13.5324-50.18833 30.6277-97.66354 72.2125-128.94941 53.182-38.308183 124.4576-37.093813 181.7444-.48035 50.1457 36.48017 75.4845 90.37713 72.3557 150.91678-6.6674 64.04407-38.4038 109.83277-91.6401 141.00844-63.9019 34.56125-135.3795 4.83213-189.1258-35.28385-78.8706-65.48566-79.7477-186.67235-8.9744-256.76104 63.7369-55.941605 167.0207-64.891564 238.7167-6.65053 78.8163 58.35315 90.3045 169.04089 40.972 246.62443-35.2274 56.41892-88.4571 87.60135-152.5581 93.63158-81.9488 2.18264-160.666-41.91503-196.8695-120.9383-36.2055-79.02511-22.5771-164.33167 26.8727-227.66064 49.4316-63.30896 138.3491-86.746364 220.4504-67.54202" fill="#c50"/></g><g transform="translate(-6 6)"><path d="m366.92188 90.404297c-7.94193-6.808164-17.7394-11.486045-29.41211-15.376953-8.64555-2.881844-18.09674-5.118498-28.56348-6.9375l-61.89063-4.273438c-21.30154.524212-41.79098 2.866313-60.14746 7.243164-4.04733 1.169299-7.70596 2.27418-11.375 3.481446-9.0688 2.984007-18.23365 6.53967-27.17774 12.143555-8.79759 6.051057-17.57627 13.443389-18.21874 28.795899l-27.63575 124.3457-28.624017 128.8086-1.920899 27.15527c2.443476 8.66462 6.27852 14.69668 10.711915 19.79785 11.440431 13.16426 27.414911 20.5073 41.783201 26.26367 25.60746 10.25913 52.30225 14.20846 77.53516 16.90235 35.27515 3.76599 71.10961 3.76599 106.38476 0 25.23394-2.694 51.92683-6.64437 77.53321-16.90039 16.4874-6.60365 31.89817-17.46095 40.88573-25.36817 10.2037-11.60369 14.89094-28.5437 10.80665-42.78223l-39.37207-177.21679-18.06641-81.28906c-.19103-2.8953-.84892-5.80857-2.08984-9.10254-2.58576-6.355253-6.60435-11.796719-11.14648-15.690433z" fill="#994100"/><path d="m245.2793 118.4375 118.43359-59.21875-118.43359-59.21875z" fill="#994100"/><path d="m263.27859 29.126096v60.186605l60.1857-30.093305-60.1857-30.0942zm-16.2 52.695005c-19.7991.4878-39.2463 2.7531-55.566 6.6339a11.3778 18.963 76.697 0 1 3.6873 4.8798 11.3778 18.963 76.697 0 1 -15.8355 15.437699 11.3778 18.963 76.697 0 1 -21.0726-6.7095 11.3778 18.963 76.697 0 1 -.0585-.3366c-1.1115.774-2.1636 1.5552-3.0834 2.3436-5.094 4.3668-7.0713 8.2494-7.0713 12.7494s1.9773 8.3826 7.0713 12.7494 13.23 8.5788 23.3901 11.9655c20.3193 6.7734 48.5136 10.3851 76.6386 10.3851s56.3193-3.6117 76.6386-10.386c10.1601-3.3858 18.2952-7.5978 23.3901-11.9646 5.094-4.3668 7.0713-8.2494 7.0713-12.7494s-1.9773-8.3826-7.0713-12.7494c-5.094-4.366799-13.23-8.578799-23.3901-11.965499-7.5438-2.5146-16.1847-4.5837-25.4934-6.201l-43.0452 21.520799v9.3951h-16.2zm-104.0517 58.621499-20.6406 92.8773a18.963 11.3778 10.04 0 1 1.0755-.0225 18.963 11.3778 10.04 0 1 5.0679.477 18.963 11.3778 10.04 0 1 16.6887 14.5098 18.963 11.3778 10.04 0 1 -20.655 7.8966 18.963 11.3778 10.04 0 1 -6.804-2.0394l-26.063996 117.2898a18.963 11.3778 18.4 0 1 1.4238-.0135 18.963 11.3778 18.4 0 1 8.553596 1.539 18.963 11.3778 18.4 0 1 14.4009 16.7823 18.963 11.3778 18.4 0 1 -21.585596 4.8114 18.963 11.3778 18.4 0 1 -4.7529-2.0358c1.0962 3.8871 3.2751 7.533 6.5196 11.2662 6.839096 7.8696 18.997196 15.3486 34.891196 21.3624 19.8252 7.5015 45.2484 12.7926 72.7515 15.7131.0828-14.8635.7173-36.378 5.6241-56.0025 2.88-11.5191 7.2-22.518 14.4909-31.158 7.29-8.6427 18.1161-14.5764 31.1661-14.5764s23.8752 5.9346 31.1661 14.5755c2.7648 3.2769 5.1003 6.894 7.0947 10.7496a18.963 11.3778 0 0 1 18.9441 11.3778 18.963 11.3778 0 0 1 -11.2311 10.3779c4.6062 19.2582 5.2263 40.131 5.3073 54.6561 27.5031-2.9205 52.9263-8.2116 72.7515-15.7131 1.35-.5103 2.6613-1.035 3.9555-1.566a11.3778 18.963 68.16 0 1 -4.1184-4.1625 11.3778 18.963 68.16 0 1 13.3695-17.6166 11.3778 18.963 68.16 0 1 10.6776-2.1375 11.3778 18.963 68.16 0 1 10.6011 4.5648c.1332-.1485.2772-.297.4059-.4446 6.8391-7.8696 9.0018-15.336 6.0876-25.5357l-.0657-.2322-37.0962-166.9347a11.3778 18.963 79.96 0 1 -5.4513 1.4877 11.3778 18.963 79.96 0 1 -20.6559-7.8966 11.3778 18.963 79.96 0 1 16.6887-14.5107 11.3778 18.963 79.96 0 1 4.6683-.4554l-10.9476-49.2606a44.6553 44.6553 0 0 1 -1.5804 1.4274c-7.506 6.4332-17.37 11.2212-28.8099 15.0345-22.8807 7.6266-52.2864 11.2149-81.7614 11.2149-5.1255 0-10.2474-.117-15.336-.3357a18.963 11.3778 0 0 1 -18.4014 8.6886 18.963 11.3778 0 0 1 -18.9621-11.3778 18.963 11.3778 0 0 1 .0936-1.1268c-10.4445-1.7685-20.2932-4.1094-29.1555-7.0632-11.4399-3.8133-21.3048-8.6013-28.8099-15.0345a44.6553 44.6553 0 0 1 -1.5804-1.4274zm195.6564 141.9273a18.963 11.3778 0 0 1 18.963 11.3787 18.963 11.3778 0 0 1 -18.963 11.3778 18.963 11.3778 0 0 1 -18.963-11.3778 18.963 11.3778 0 0 1 18.963-11.3787z" fill="#ffa348"/></g></svg>