<svg height="500" viewBox="0 0 500 500" width="500" xmlns="http://www.w3.org/2000/svg" xmlns:xlink="http://www.w3.org/1999/xlink"><radialGradient id="a" cx="1362.7291" cy="216.11429" gradientTransform="matrix(1.0000001 -.0000059 .0000001 1.0000003 -112.72927 33.893757)" gradientUnits="userSpaceOnUse" r="250"><stop offset="0" stop-color="#ff851a"/><stop offset=".42441937" stop-color="#f87000"/><stop offset=".86367416" stop-color="#f26900"/><stop offset="1" stop-color="#e55f00"/></radialGradient><g transform="translate(-1000)"><path d="m1500 250a250 250 0 0 1 -250 250 250 250 0 0 1 -250-250 250 250 0 0 1 250-250 250 250 0 0 1 250 250z" fill="url(#a)" stroke-linecap="round" stroke-linejoin="round" stroke-width="1.002"/><path d="m1309.2298 33.82789c128.5196 30.706851 207.8974 167.48127 169.5927 291.56949-31.3771 95.69524-112.8693 162.03793-212.5543 174.60263 153.1796-8.09118 266.0956-163.0043 218.7012-309.92978-36.4562-114.666588-154.6038-191.5214848-270.6514-169.822657-18.8526 4.215647-38.4387 10.498641-55.8829 18.694487-112.5353 47.459213-168.47522 196.206-99.9632 307.85319 57.6978 93.63045 168.5136 141.8489 267.9993 100.77239-134.92 68.97589-303.283-51.46877-311.488-201.30723-4.4167-117.68321 76.8182-219.674136 190.654-246.26040176-89.0147 9.18391126-152.6601 79.39239576-187.7408 157.21169176-38.45522 102.70317 5.2337 231.75078 109.038 294.08388 114.5107 66.1048 260.3537 29.37245 323.6836-83.60152 42.2104-77.69758 34.3514-177.62383-23.1776-249.88923-57.5404-72.257811-157.5429-102.460489-246.4118-71.877168-81.7429 30.682061-131.1298 101.133078-134.0478 190.176958.6692 92.68536 61.7912 168.55972 147.5399 198.52472 128.5549 37.82014 266.7725-70.33038 233.6823-209.88949-14.7104-64.39775-57.8855-122.14991-125.7378-141.121386-71.391-15.467036-138.9716 1.205-181.2869 64.641366-18.8995 29.2286-28.9384 85.21395-26.105 97.65297m0 0c13.5324-50.18833 30.6277-97.66354 72.2125-128.94941 53.182-38.308183 124.4576-37.093813 181.7444-.48035 50.1457 36.48017 75.4845 90.37713 72.3557 150.91678-6.6674 64.04407-38.4038 109.83277-91.6401 141.00844-63.9019 34.56125-135.3795 4.83213-189.1258-35.28385-78.8706-65.48566-79.7477-186.67235-8.9744-256.76104 63.7369-55.941605 167.0207-64.891564 238.7167-6.65053 78.8163 58.35315 90.3045 169.04089 40.972 246.62443-35.2274 56.41892-88.4571 87.60135-152.5581 93.63158-81.9488 2.18264-160.666-41.91503-196.8695-120.9383-36.2055-79.02511-22.5771-164.33167 26.8727-227.66064 49.4316-63.30896 138.3491-86.746364 220.4504-67.54202" fill="#c50"/></g><path d="m341.57227 459.07031c19.21802-9.18052 40.88957-14.70926 55.73762-31.02948 24.27335-24.68909 27.74316-60.64188 34.41423-93.01294 5.65774-34.28534 9.82969-69.82768 3.38672-104.28983-1.85709-10.37767-8.63671-19.54364-15.71712-26.68159-9.38172-1.98366-19.15047-7.1701-28.3884-1.19432-13.39363 8.34164-25.67486 18.49105-39.51718 26.24718-14.28648 5.8722-28.7429 12.6805-43.96892 16.47455-53.74802 13.97868-113.97587 11.96743-163.33625-15.32623-12.2369-6.36908-21.31642-17.4664-33.69902-23.34359-14.567-7.23097-32.330679 1.0366-38.582675 15.45507-12.44483 27.61203-10.582994 59.08369-9.189434 88.62375 2.3106 25.59632 6.362817 51.24613 13.91185 75.85133 6.173147 22.28055 20.924797 41.50435 40.959359 53.04899 10.24819 6.46789 22.05475 10.19346 33.13498 15.05264 26.24117 9.06519 52.7447 13.04999 80.03382 15.85821 37.17628 1.58992 75.08217-.56441 110.82042-11.73374z" fill="#994100"/><g fill="#ffa348" stroke-width="36"><path d="m247.05822 292.86901c-13.52035 50.57482-22.52645 107.0595-26.67088 158.33657 18.93449 1.86936 38.4709 2.22346 57.41063.93582-7.38904-53.90555-15.11347-107.40093-30.73899-159.27239z"/><path d="m312.65744 287.83817c-1.61855 53.38819-5.09596 107.25712-14.83272 162.28938 15.54168-2.09167 30.3235-5.38791 43.60805-9.94186-4.99341-51.74131-12.52469-103.30964-28.77458-152.34752z"/><path d="m141.24379 431.85712c15.96616 7.22434 35.18066 12.68561 55.86621 16.2364-16.45054-49.47435-16.55234-107.88006-10.36411-161.91696-23.60451 43.88913-36.96392 93.24525-45.5021 145.68056z"/><path d="m202.9823 268.91265c-7.76786 54.7103-9.42981 115.60888 4.86613 166.01012 5.22547-53.84949 15.4279-111.89124 30.52937-162.92275-11.9707-.20962-23.82759-1.22552-35.3955-3.08813z"/><path d="m299.36916 266.01168c-14.56846 3.15176-29.45659 5.07949-44.33421 5.75476 16.86152 49.85691 25.58238 100.78885 32.84714 151.67001 7.74838-52.99156 10.32743-105.22987 11.48707-157.42327z"/><path d="m132.04905 263.11146c-20.26257 30.43654-34.549539 64.47626-43.585569 99.14633 3.587452 15.33431 8.196068 28.86298 13.686549 38.50845 4.46785 7.84796 11.63979 14.89565 20.84502 21.07861-11.3643-54.87064-3.62191-106.77057 9.054-158.73339z"/><path d="m370.93351 257.37991c10.76766 56.40746 11.65627 113.83381-2.8538 170.64194 12.47456-7.55002 22.15741-16.88024 27.81631-28.12105 4.25752-8.4551 8.46187-21.66187 12.16535-37.15116-6.01905-39.40966-16.70955-76.56745-37.12634-105.37048z"/><path d="m148.96298 252.81847c-12.64672 48.95853-21.52328 96.26408-15.62702 145.32829 9.9314-47.60436 24.89663-92.82197 49.52674-133.42198-11.84342-3.02224-23.21293-6.98178-33.89972-11.90706z"/><path d="m354.55711 247.11012c-11.63979 5.67691-23.90995 10.40305-36.58959 14.15371 20.9019 53.20706 30.23366 109.18853 36.07528 164.90964 15.50726-59.3445 13.52784-119.49364.51505-179.06335z"/><path d="m98.829088 222.10045c-19.067761-.19764-22.868587 57.344-15.838888 109.79267 10.799822-31.59617 26.11243-62.17195 46.57861-89.57876-6.9638-4.40198-13.51285-9.29431-19.53415-14.69197-4.19834-3.76564-7.92806-5.48751-11.205572-5.5212z"/><path d="m403.80389 217.86467c-3.23411.14974-7.02369 1.84913-11.39426 5.38269-6.1635 4.98367-12.70133 9.59301-19.55736 13.8258 21.48885 24.52531 34.31524 55.44024 42.34512 88.6662 7.94301-52.03769 8.30985-108.78279-11.39426-107.87395z"/></g><path d="m80.232422 94.986328-2.898438 16.783202c-5.375342 31.12966 2.817029 60.0874 24.931646 77.07422 22.11461 16.98682 53.29644 22.38653 92.89257 21.2793l27.56641-.77149-11.79883-24.92383c-18.72444-39.55425-49.70526-80.02508-113.775389-87.474605z" fill="#994100"/><path d="m95.071735 114.83228c-9.348385 54.13832 24.579585 79.39497 99.584245 77.2976-17.80603-37.61416-41.63837-70.56015-99.584245-77.2976z" fill="#ffa348" stroke-width="36"/><path d="m126.08203 121.91016a37.182405 36.163708 0 0 0 -19.16015 31.63086 37.182405 36.163708 0 0 0 7.74414 22.09179c8.9174 6.41079 20.64636 10.94789 35.13671 13.64453a37.182405 36.163708 0 0 0 29.65821-24.54296c-12.36164-18.45402-28.64829-33.88376-53.37891-42.82422z" fill="#994100"/><path d="m411.76562 93.748047-16.91992 1.966797c-64.07012 7.449516-95.04899 47.920356-113.77343 87.474606l-11.79883 24.92383 27.56445.77149c39.59614 1.10723 70.77797-4.29248 92.89258-21.2793s30.30699-45.94457 24.93164-77.07422z" fill="#994100"/><path d="m396.92542 113.59404c9.34839 54.13831-24.57958 79.39497-99.58424 77.2976 17.80603-37.61416 41.63837-70.56016 99.58424-77.2976z" fill="#ffa348" stroke-width="36"/><path d="m365.91513 120.67191a37.182405 36.163708 0 0 1 19.16015 31.63086 37.182405 36.163708 0 0 1 -7.74414 22.09179c-8.9174 6.41079-20.64636 10.94789-35.13671 13.64453a37.182405 36.163708 0 0 1 -29.65821-24.54296c12.36164-18.45402 28.64829-33.88376 53.37891-42.82422z" fill="#994100"/></svg>