<svg height="500" viewBox="0 0 500 500" width="500" xmlns="http://www.w3.org/2000/svg" xmlns:xlink="http://www.w3.org/1999/xlink"><radialGradient id="a" cx="1362.7291" cy="216.11429" gradientTransform="matrix(1.0000001 -.0000059 .0000001 1.0000003 -112.72927 33.893757)" gradientUnits="userSpaceOnUse" r="250"><stop offset="0" stop-color="#ff851a"/><stop offset=".42441937" stop-color="#f87000"/><stop offset=".86367416" stop-color="#f26900"/><stop offset="1" stop-color="#e55f00"/></radialGradient><g transform="translate(-1000)"><path d="m1500 250a250 250 0 0 1 -250 250 250 250 0 0 1 -250-250 250 250 0 0 1 250-250 250 250 0 0 1 250 250z" fill="url(#a)" stroke-linecap="round" stroke-linejoin="round" stroke-width="1.002"/><path d="m1309.2298 33.82789c128.5196 30.706851 207.8974 167.48127 169.5927 291.56949-31.3771 95.69524-112.8693 162.03793-212.5543 174.60263 153.1796-8.09118 266.0956-163.0043 218.7012-309.92978-36.4562-114.666588-154.6038-191.5214848-270.6514-169.822657-18.8526 4.215647-38.4387 10.498641-55.8829 18.694487-112.5353 47.459213-168.47522 196.206-99.9632 307.85319 57.6978 93.63045 168.5136 141.8489 267.9993 100.77239-134.92 68.97589-303.283-51.46877-311.488-201.30723-4.4167-117.68321 76.8182-219.674136 190.654-246.26040176-89.0147 9.18391126-152.6601 79.39239576-187.7408 157.21169176-38.45522 102.70317 5.2337 231.75078 109.038 294.08388 114.5107 66.1048 260.3537 29.37245 323.6836-83.60152 42.2104-77.69758 34.3514-177.62383-23.1776-249.88923-57.5404-72.257811-157.5429-102.460489-246.4118-71.877168-81.7429 30.682061-131.1298 101.133078-134.0478 190.176958.6692 92.68536 61.7912 168.55972 147.5399 198.52472 128.5549 37.82014 266.7725-70.33038 233.6823-209.88949-14.7104-64.39775-57.8855-122.14991-125.7378-141.121386-71.391-15.467036-138.9716 1.205-181.2869 64.641366-18.8995 29.2286-28.9384 85.21395-26.105 97.65297m0 0c13.5324-50.18833 30.6277-97.66354 72.2125-128.94941 53.182-38.308183 124.4576-37.093813 181.7444-.48035 50.1457 36.48017 75.4845 90.37713 72.3557 150.91678-6.6674 64.04407-38.4038 109.83277-91.6401 141.00844-63.9019 34.56125-135.3795 4.83213-189.1258-35.28385-78.8706-65.48566-79.7477-186.67235-8.9744-256.76104 63.7369-55.941605 167.0207-64.891564 238.7167-6.65053 78.8163 58.35315 90.3045 169.04089 40.972 246.62443-35.2274 56.41892-88.4571 87.60135-152.5581 93.63158-81.9488 2.18264-160.666-41.91503-196.8695-120.9383-36.2055-79.02511-22.5771-164.33167 26.8727-227.66064 49.4316-63.30896 138.3491-86.746364 220.4504-67.54202" fill="#c50"/></g><path d="m41.28125 145.72271c16.194007 4.90118 35.4382 6.5602 57.005859 8.17968 17.049491 1.31379 34.098991 2.62759 51.148481 3.94138 52.54695 4.92771 103.14486 16.6948 123.76172 45.99805 19.44172 30.10061 11.37524 81.42252-3.76368 131.98828-5.17578 16.29826-10.35157 32.59653-15.52735 48.89479-6.58587 20.60061-12.26546 39.06186-13.79492 55.91211-1.50277 19.51086 4.83935 38.43352 23.26172 45.05664 19.91143 4.65186 34.00919-5.77531 45.60547-18.60742 11.55288-12.88061 22.38701-30.37962 33.09375-51.19141 7.50846-16.571 15.01693-33.14199 22.52539-49.71299 17.75592-43.99557 32.97963-93.82987 41.0664-138.04883 4.0705-22.2577 6.3635-43.05604 6.03711-61.4414-.32638-18.38537-2.67192-34.63755-11.76172-48.21875l-.0332-.0508-.0352-.0508c-9.18188-13.51939-23.36946-21.787581-40.291-28.984521s-37.06276-12.872251-59.22266-17.445313c-44.02467-9.085217-95.92861-13.657902-143.37109-13.697265l-54.53124 2.236318c-23.308505 2.120603-43.594 5.602934-59.867199 11.482432-16.875049 6.23603-32.9956528 18.081059-34.3515629 35.299829 1.149537 22.43272 14.2993909 32.70065 33.0449219 38.45999z" fill="#994100"/><path d="m156.02316 76.220298-4.90717 63.702102c53.8779 5.05252 110.53999 15.80898 137.02483 53.85151 25.33443 38.81864 14.05775 95.37786-1.46294 147.21878l60.89326 19.33855c34.93108-86.23171 60.29785-197.64964 37.40963-231.84729-23.12082-34.042662-135.92087-52.30634-228.95761-52.263652zm-33.38088.863011-4.63807 60.194901c4.83523.34013 9.74646.69497 14.72657 1.07428l4.78939-61.867145c-5.04287.141326-10.02703.340082-14.87789.597964zm158.5943 281.541051c-1.51589 4.7599-3.02831 9.44554-4.52632 14.05695l57.54152 18.27151c2.06112-4.40085 4.11288-8.9457 6.13513-13.56675zm-177.14992-280.2178c-44.786938 4.07469-76.938567 13.915168-77.881897 29.91457-1.187081 20.15355 30.817659 24.432 73.429359 27.63165zm166.96408 311.79911c-13.01199 40.70149-21.04916 71.97729-1.92085 78.4329 15.18562 5.12675 36.36426-20.98842 56.93721-60.97819z" fill="#ffa348" stroke-width="36"/></svg>