<svg height="500" viewBox="0 0 500 500" width="500" xmlns="http://www.w3.org/2000/svg"><g transform="translate(.000015)"><circle cx="-249.99998" cy="250" fill="#e51a1a" r="250" transform="scale(-1 1)"/><path d="m181.33938 83.856939c97.52275-31.84694 203.27597 26.159281 217.12696 131.568651 10.04116 85.89723-45.79566 162.6049-131.11288 174.6444-76.26503 6.65-147.16573-45.4981-149.44603-126.3231.16679-50.89801 30.03241-87.97493 76.60677-108.40662 44.00125-16.48183 90.46555-3.00917 112.28155 39.63622 17.95322 40.0953 3.57775 87.31302-40.4313 103.80676-21.98685 8.23292-51.6578-5.55285-56.72562-31.5612 24.48155 21.7253 69.7211 11.74379 80.1808-21.06198 5.24648-24.88185-11.48198-41.52298-24.36368-55.64156-23.21161-15.22125-63.26956-13.16738-85.32502 12.05139-41.51846 46.43224-18.48961 112.52397 35.72777 131.08081 60.66482 17.11352 118.96473-29.63961 126.96137-92.39988 2.7637-54.83226-40.99398-106.19486-96.51046-114.27807-76.21988-10.3001-138.45939 50.84936-147.743191 124.09106-9.31956 73.21828 47.315731 138.67973 111.863041 158.33924 49.05305 9.49897 98.18701 2.07129 139.64056-27.40671 82.90715-58.95602 100.11901-177.97214 43.55644-260.39974-52.71171-79.885311-158.575-103.987181-249.15842-67.061741-86.705021 39.45169-149.0660905 134.549061-117.102931 229.167621 15.77888-74.65377 50.93986-153.5943 123.407351-187.514491 9.28724-4.60517 19.44718-8.7232 30.56692-12.33106zm-160.722321 286.075591c-52.57825-113.8254-.38403-260.89182 113.777041-317.643861 10.84604-5.32012 22.21219-9.7712 34.03518-13.36069 115.76394-28.75816 246.03978 34.00351 263.68455 158.897471 10.04526 85.91695-27.72044 168.80365-107.97396 206.83173-102.24035 46.26108-224.798841-11.43986-234.690511-131.24969-7.33455-123.78718 127.307171-194.136761 222.718561-137.24102-42.54074-27.89653-94.21826-33.44528-140.80825-12.98978-71.17376 32.62266-105.080851 118.0397-80.762351 190.63139 30.697281 88.13423 123.572931 132.04164 212.817841 105.59803 82.80488-25.06359 132.16266-100.33164 140.19255-180.04986 12.12434-145.020371-132.23823-245.3588802-265.59709-221.973611 7.92036-4.10499 20.5989-8.4277792 35.61563-11.7452592 60.06317-13.23825 124.63426-3.45807 179.45368 32.4903392 109.65077 71.904621 141.09454 217.803071 65.16008 333.599141-143.00482 218.07486-377.311781 117.06797-437.622951-1.79433" fill="#b21a1a"/></g><path d="m370.58963 138.63121-13.91532 61.9233 20.1237-8.94833zm-51.84028 185.82201 62.04502-30.87703-21.5303-72.60675 85.19513-39.2761-59.63366 47.20209 15.9821 39.94275 16.12757-37.5408 53.85165-7.67655 13.6593-36.9182 15.55384 56.45899-69.75637 4.46872-25.47291 70.74554-46.2746 14.29759 32.31506 26.63432-58.83131-11.54486c-1.39247-8.90301-5.93253-17.2746-13.23052-23.30971z" fill="#ff8066" opacity=".75"/><path d="m117.00322 198.97833c6.02401-6.5755 14.38668-11.18586 23.96505-12.19787l-29.10522-69.92524-37.507206 32.07324-25.72138-46.55029 47.29128-27.59247-95.925744-74.7857 53.980424 70.295763-37.309941 17.692339 44.266341 114.501268 37.03927-31.2196z" fill="#ff8066" opacity=".75"/><path d="m208.65039 105.61914c-12.37336-.044-22.68498 6.12557-30.27344 13.35156-5.13141 4.88632-9.40177 10.50274-13.2207 16.4961-.67996-1.61021-1.43632-3.21808-2.43359-4.8086-4.58166-7.30715-13.16449-12.37013-20.95118-13.89648-16.13982-3.19633-32.36106 5.91618-40.51953 17.35351-5.686895 7.97245-9.341892 16.97585-12.136716 26.53516-6.607847-4.20385-14.801311-6.10097-22.349609-5.88281h-.02344l-.02539.002c-7.644995.24193-12.858782 4.54505-15.595703 7.67578-2.736922 3.13074-4.128873 5.91533-5.382813 8.73242-2.50788 5.63419-4.11912 11.61796-5.642578 18.60547-3.046915 13.97502-5.275867 31.61927-6.699219 50.32617-1.423351 18.70691-1.996766 38.32708-1.40039 55.77735.557932 16.3254 1.680139 30.00603 5.75 41.98633 4.111388 24.7131 10.942657 53.44183 14.496093 77.78711 1.799677 12.32992 2.692751 23.5073 2.261719 31.56445-.431031 8.05715-2.646781 12.0893-2.572265 12.00781l-.101561.11323-51.830078 58.6543h234.70312l19.875-28.41992c10.13417-3.60211 18.32849-9.3835 23.83399-15.70703 6.80847-7.82011 10.27868-15.32122 13.52148-20.5625v-.002c19.30985-31.21631 69.60844-68.92773 106.75-81.73242l.0801-.0273.082-.0293c5.72695-2.03564 12.11949-6.83418 15.04688-13.61914 2.92739-6.78495 2.13261-13.56984.47265-18.52148-3.3199-9.90329-9.51956-16.07798-16.94921-21.75-14.85932-11.34405-38.20962-20.01162-61.00977-8.71875-25.99337 12.85587-45.00252 25.77406-59.00781 32.30664-14.00723 6.53347-19.79767 7.76633-30.99024 2.18554l-.008-.006-.01-.004c-19.21623-9.55655-26.34309-24.65749-29.00195-47.60352-2.65817-22.94009 1.33056-51.98496 6.37891-79.5332v-.004c2.04317-11.06756 10.95314-31.59592 16.22461-51.30664 2.63598-9.85626 4.79004-19.84652 2.60547-31.15429-2.18457-11.30778-12.47903-23.52909-25.24414-27.06641l-.39649-.11133-.40039-.0898c-2.63266-.60175-5.2197-.88481-7.84961-.90235h-.0293z" fill="#861313"/><g fill="#ff8066"><path d="m208.58628 123.62c-25.29-.09-44.91 50.85-51.93 81.54-10.17 44.28-13.14 75.15-.81 119.7l-15.57 4.32c-13.95-50.31-7.47-85.23 2.07-128.07 9.45-42.84 13.05-63.36-4.05-66.69-37.89-7.56-40.770003 81.36-43.020003 121.32-1.26 23.22.72 51.3 5.940003 69.84l-15.210003 5.58c-12.96-48.06-6.03-88.2-1.53-135.72 2.25-14.04-1.62-23.13-17.19-22.68-14.22.45-24.3 129.06-11.97 161.19 7.83 47.7 28.17 117.45 9.9 137.43l-25.29 28.62h185.400003l18-25.74c20.7-4.5 25.56-17.91 33.3-30.42 22.77-36.81 74.16-74.79 116.19-89.28 18.99-6.75-19.71-43.74-48.42-29.52-49.5 24.48-73.53 50.67-106.02 34.47-50.31-25.02-42.57-90.54-32.31-146.52 5.58-30.24 36.36-80.64 6.48-88.92-1.26-.288-2.61-.441-3.96-.45z"/><path d="m193.06004 185.52271 50.67944-40.80861 41.28981 22.66407 22.92499-56.6481-33.10903 28.76324-32.43626-25.55361-36.23056 34.34181z" opacity=".75"/><path d="m293.78647 371.88838-20.6247 64.20636 25.77117-2.43127 9.43611 46.51637 21.00285-75.19681-24.66662 6.55006z" opacity=".75"/><path d="m178.78871 0-31.23783 59.766485 25.80942 1.984468 1.39235 47.443377 33.47854-70.532737-25.42102 2.262131z" opacity=".75"/></g><path d="m223.1875 132.1582-17.00977 16.12305-13.11718 37.24219 28.95117-23.3125c3.37142-11.96474 4.91946-22.8145 1.17578-30.05274zm70.59961 239.73047-20.625 64.20703 9.35742-.88281c6.13667-8.3717 13.56387-16.6987 21.9043-24.70312z" fill="#e51a1a" opacity=".2"/></svg>