<svg height="500" viewBox="0 0 500 500" width="500" xmlns="http://www.w3.org/2000/svg" xmlns:xlink="http://www.w3.org/1999/xlink"><radialGradient id="a" cx="1362.7291" cy="216.11429" gradientTransform="matrix(1.0000001 -.0000059 .0000001 1.0000003 -112.72927 33.893757)" gradientUnits="userSpaceOnUse" r="250"><stop offset="0" stop-color="#ff851a"/><stop offset=".42441937" stop-color="#f87000"/><stop offset=".86367416" stop-color="#f26900"/><stop offset="1" stop-color="#e55f00"/></radialGradient><filter id="b" color-interpolation-filters="sRGB" height="1.006843" width="1.012384" x="-.006192" y="-.003422"><feGaussianBlur stdDeviation=".46893626"/></filter><g transform="translate(-1000)"><path d="m1500 250a250 250 0 0 1 -250 250 250 250 0 0 1 -250-250 250 250 0 0 1 250-250 250 250 0 0 1 250 250z" fill="url(#a)" stroke-linecap="round" stroke-linejoin="round" stroke-width="1.002"/><path d="m1309.2298 33.82789c128.5196 30.706851 207.8974 167.48127 169.5927 291.56949-31.3771 95.69524-112.8693 162.03793-212.5543 174.60263 153.1796-8.09118 266.0956-163.0043 218.7012-309.92978-36.4562-114.666588-154.6038-191.5214848-270.6514-169.822657-18.8526 4.215647-38.4387 10.498641-55.8829 18.694487-112.5353 47.459213-168.47522 196.206-99.9632 307.85319 57.6978 93.63045 168.5136 141.8489 267.9993 100.77239-134.92 68.97589-303.283-51.46877-311.488-201.30723-4.4167-117.68321 76.8182-219.674136 190.654-246.26040176-89.0147 9.18391126-152.6601 79.39239576-187.7408 157.21169176-38.45522 102.70317 5.2337 231.75078 109.038 294.08388 114.5107 66.1048 260.3537 29.37245 323.6836-83.60152 42.2104-77.69758 34.3514-177.62383-23.1776-249.88923-57.5404-72.257811-157.5429-102.460489-246.4118-71.877168-81.7429 30.682061-131.1298 101.133078-134.0478 190.176958.6692 92.68536 61.7912 168.55972 147.5399 198.52472 128.5549 37.82014 266.7725-70.33038 233.6823-209.88949-14.7104-64.39775-57.8855-122.14991-125.7378-141.121386-71.391-15.467036-138.9716 1.205-181.2869 64.641366-18.8995 29.2286-28.9384 85.21395-26.105 97.65297m0 0c13.5324-50.18833 30.6277-97.66354 72.2125-128.94941 53.182-38.308183 124.4576-37.093813 181.7444-.48035 50.1457 36.48017 75.4845 90.37713 72.3557 150.91678-6.6674 64.04407-38.4038 109.83277-91.6401 141.00844-63.9019 34.56125-135.3795 4.83213-189.1258-35.28385-78.8706-65.48566-79.7477-186.67235-8.9744-256.76104 63.7369-55.941605 167.0207-64.891564 238.7167-6.65053 78.8163 58.35315 90.3045 169.04089 40.972 246.62443-35.2274 56.41892-88.4571 87.60135-152.5581 93.63158-81.9488 2.18264-160.666-41.91503-196.8695-120.9383-36.2055-79.02511-22.5771-164.33167 26.8727-227.66064 49.4316-63.30896 138.3491-86.746364 220.4504-67.54202" fill="#c50"/></g><path d="m250.01172 25.519531c-36.6105.0017-69.14265 22.146956-91.76953 55.763672-22.68774 33.704627-36.22657 79.263087-36.22656 129.468747-.00001 50.20567 13.53893 95.76525 36.22656 129.47071 22.62749 33.61513 55.16007 55.75976 91.77148 55.75976 36.61178 0 69.14213-22.14673 91.76953-55.76172 22.68366-33.69855 36.25391-79.2579 36.25391-129.4707 0-50.21303-13.57158-95.77067-36.25391-129.46875-22.62768-33.617419-55.16061-55.7634-91.77148-55.761719z" fill="#994100"/><path d="m173.17531 91.334048c-20.295 30.150002-33.1596 72.502202-33.1596 119.417402s12.8646 89.2683 33.1596 119.4192c20.295 30.15 47.4345 47.8125 76.8375 47.8125s56.5425-17.6634 76.8375-47.8134 33.1875-72.504 33.1875-119.4192-12.8934-89.2683-33.1875-119.418302c-20.295-30.1518-47.4354-47.8134-76.8375-47.81205-29.403.0014-56.5434 17.66295-76.8375 47.81385z" fill="#ffa348" stroke-width="36"/><g fill="#994100"><path d="m196.43401 165.72445c18.0585-.18 34.974 7.731 46.8 22.7817l-13.2462 10.377c-14.418-18.3456-34.9353-22.4676-58.1625-9.2808l-8.2962-14.625c10.818-6.1416 22.0707-9.144 32.904-9.252zm105.4413.477c.5625-.009 1.125-.004 1.6875 0 10.836.1098 22.0887 3.141 32.9067 9.2826l-8.298 14.625c-23.2254-13.1877-43.7427-9.0927-58.1616 9.252l-13.2174-10.377c11.457-14.58 27.666-22.4685 45.0846-22.7826zm-51.8625 60.021c37.9764 0 68.7375 30.789 68.7375 68.7645 0 37.9737-30.762 68.7375-68.7375 68.7375s-68.7654-30.762-68.7654-68.7375 30.789-68.7654 68.7654-68.7654z" stroke-width=".9"/><path d="m423.17731 127.55995c12.726 46.0818 13.3524 100.3995-1.35 155.277-21.8214 81.4374-71.9892 144.5202-129.771 173.6442 75.807-16.3152 139.8627-73.224 161.298-153.225 16.8012-62.7012 3.8988-126.027-30.177-175.698zm-48.7116 36.279c9.2727 33.579 9.729 73.1628-.9846 113.148-15.8994 59.337-52.4565 105.2865-94.5567 126.5067 55.233-11.889 101.916-53.3394 117.5346-111.6288 12.2427-45.684 2.8368-91.8342-21.9924-128.025z" filter="url(#b)" opacity=".9"/><path d="m76.84561 127.55995c-34.076702 49.6692-47.007002 112.995-30.205802 175.6962 21.434402 80.001 85.519802 136.9098 161.325002 153.225-57.7791-29.1249-107.9757-92.2068-129.7971-173.6442-14.7033-54.8775-14.0472-109.1952-1.3212-155.277zm48.6855 36.279c-24.8292 36.1908-34.236 82.341-21.9942 128.025 15.6195 58.2903 62.3025 99.7407 117.5346 111.6297-42.0984-21.2202-78.6564-67.1697-94.5558-126.5067-10.7145-39.9852-10.2573-79.569-.9846-113.148z" filter="url(#b)" opacity=".9"/></g></svg>