<svg height="500" viewBox="0 0 500 500" width="500" xmlns="http://www.w3.org/2000/svg" xmlns:xlink="http://www.w3.org/1999/xlink"><filter id="a" color-interpolation-filters="sRGB" height="1.038229" width="1.089757" x="-.044878" y="-.019114"><feGaussianBlur stdDeviation="3.4706479"/></filter><filter id="b" color-interpolation-filters="sRGB" height="1.038229" width="1.089757" x="-.044879" y="-.019114"><feGaussianBlur stdDeviation="3.4706479"/></filter><g transform="translate(.000015)"><circle cx="-249.99998" cy="250" fill="#e51a1a" r="250" transform="scale(-1 1)"/><path d="m181.33938 83.856939c97.52275-31.84694 203.27597 26.159281 217.12696 131.568651 10.04116 85.89723-45.79566 162.6049-131.11288 174.6444-76.26503 6.65-147.16573-45.4981-149.44603-126.3231.16679-50.89801 30.03241-87.97493 76.60677-108.40662 44.00125-16.48183 90.46555-3.00917 112.28155 39.63622 17.95322 40.0953 3.57775 87.31302-40.4313 103.80676-21.98685 8.23292-51.6578-5.55285-56.72562-31.5612 24.48155 21.7253 69.7211 11.74379 80.1808-21.06198 5.24648-24.88185-11.48198-41.52298-24.36368-55.64156-23.21161-15.22125-63.26956-13.16738-85.32502 12.05139-41.51846 46.43224-18.48961 112.52397 35.72777 131.08081 60.66482 17.11352 118.96473-29.63961 126.96137-92.39988 2.7637-54.83226-40.99398-106.19486-96.51046-114.27807-76.21988-10.3001-138.45939 50.84936-147.743191 124.09106-9.31956 73.21828 47.315731 138.67973 111.863041 158.33924 49.05305 9.49897 98.18701 2.07129 139.64056-27.40671 82.90715-58.95602 100.11901-177.97214 43.55644-260.39974-52.71171-79.885311-158.575-103.987181-249.15842-67.061741-86.705021 39.45169-149.0660905 134.549061-117.102931 229.167621 15.77888-74.65377 50.93986-153.5943 123.407351-187.514491 9.28724-4.60517 19.44718-8.7232 30.56692-12.33106zm-160.722321 286.075591c-52.57825-113.8254-.38403-260.89182 113.777041-317.643861 10.84604-5.32012 22.21219-9.7712 34.03518-13.36069 115.76394-28.75816 246.03978 34.00351 263.68455 158.897471 10.04526 85.91695-27.72044 168.80365-107.97396 206.83173-102.24035 46.26108-224.798841-11.43986-234.690511-131.24969-7.33455-123.78718 127.307171-194.136761 222.718561-137.24102-42.54074-27.89653-94.21826-33.44528-140.80825-12.98978-71.17376 32.62266-105.080851 118.0397-80.762351 190.63139 30.697281 88.13423 123.572931 132.04164 212.817841 105.59803 82.80488-25.06359 132.16266-100.33164 140.19255-180.04986 12.12434-145.020371-132.23823-245.3588802-265.59709-221.973611 7.92036-4.10499 20.5989-8.4277792 35.61563-11.7452592 60.06317-13.23825 124.63426-3.45807 179.45368 32.4903392 109.65077 71.904621 141.09454 217.803071 65.16008 333.599141-143.00482 218.07486-377.311781 117.06797-437.622951-1.79433" fill="#b21a1a"/></g><path d="m248.30664 261.43164c-16.16689-.002-30.96214 8.71815-40.87695 21.46875-10.08547 12.96727-15.94141 30.15138-15.94141 49.14648 0 14.49747 3.4306 27.92595 9.5293 39.24415-.99353.30813-2.0287.54387-3.00586.88671-.00058.00021-.001-.0002-.002 0-.001.00047-.003.001-.004.002-13.64923 4.78757-24.61914 13.03776-31.4707 23.22656-13.33982 19.82828-14.13495 44.63113-14.49414 76.31641l-.002.10156v46.17574h193.24805v-46.11133-.0391c-.13108-30.63473.6463-54.78943-11.28906-75.16602-6.04697-10.32636-16.61388-19.14286-29.90039-24.13086l-.004-.002c-2.50063-.93894-5.15045-1.74764-7.88477-2.49023 5.69185-11.05697 8.88282-24.0374 8.88282-38.01172 0-18.99497-5.85452-36.17881-15.93946-49.14649v-.002c-9.90131-12.72989-24.68018-21.46643-40.84375-21.46875z" fill="#861313"/><g fill="#ff8066"><path d="m221.63852 293.95028c-7.30504 9.39192-12.15074 22.93744-12.15074 38.09756 0 15.16011 4.84475 28.70467 12.14882 38.09659 7.30504 9.39288 16.63553 14.55057 26.66868 14.55057s19.33291-5.15769 26.63795-14.54961c7.30504-9.39096 12.14883-22.93552 12.14883-38.09563 0-15.16012-4.84475-28.70564-12.14883-38.09756-7.30504-9.39192-16.6048-14.51888-26.63795-14.52032-10.03315-.001-19.36364 5.12648-26.66676 14.5184zm26.6658 109.82133c-14.35762 0-27.3483-6.52558-37.19715-16.70848-2.55532.63356-4.94074 1.32854-7.13993 2.10032-11.00459 3.85891-17.65112 9.08091-22.49779 16.28995-8.82173 13.1126-11.07947 35.56527-11.42985 66.47298v28.07362h157.24746v-28.07362c-.12959-30.28567-1.10776-52.97833-8.81981-66.14468-4.24287-7.24745-10.17138-12.42721-20.69793-16.37826-3.32806-1.24983-7.13513-2.33935-11.42792-3.23928-9.94388 10.69406-23.26382 17.60745-38.03708 17.60745z" stroke-width="36"/><path d="m290.75226 200.20772c34.39032 28.41766 48.92168 80.57909 34.97683 132.56006-4.08928 15.24075-10.33648 29.02529-18.17908 41.24804 11.85029 5.16824 20.69025 12.96092 26.39797 22.70705 7.49703 12.7987 10.07443 27.95018 10.94988 45.56483l18.80688 22.31828c13.57336-11.33961 26.32406-24.19782 38.03708-38.39705l-56.09521-31.61613 8.8198-15.6276 58.40384 32.90627c10.59758-14.51121 20.16421-30.22808 28.46949-47.03639-7.10345-1.31894-14.5976-2.72235-22.28949-4.16992-25.71354-4.83803-51.02584-9.6895-51.02584-9.6895l3.35974-17.60792s25.31518 4.82555 50.99609 9.65685c9.40151 1.77011 18.42674 3.45382 26.69843 4.98202 6.18192-14.49968 11.46536-29.71356 15.71879-45.5677.79674-2.97097 1.5378-5.94194 2.25007-8.90812l-91.16325 7.52679-1.46868-17.87863 96.50139-7.97699c4.47326-24.46852 6.11473-48.67306 5.18936-72.14422l-104.78172 52.97449-8.09985-16.01829 111.53192-56.36495c-2.67148-26.30198-8.5971-51.46165-17.42843-74.75426l-108.29312 101.66099-12.29666-13.07803 113.17915-106.221605c-10.78573-23.335809-24.63939-44.422511-41.1266-62.424009z" filter="url(#a)" opacity=".75"/><path d="m50.078576 91.256085 113.182034 106.221605-12.26786 13.07899-108.294088-101.63124c-8.821723 23.28494-14.760787 48.43309-17.428422 74.72451l111.5012 56.36687-8.0989 16.01733-104.781714-52.97545c-.924409 23.4702.745862 47.6757 5.219119 72.14326l96.501385 7.97987-1.46868 17.87863-91.164202-7.52967c.713225 2.96618 1.454289 5.93715 2.251027 8.90812 4.252474 15.84838 9.541668 31.04402 15.718794 45.53698 8.406075-1.55028 17.094368-3.14279 26.698431-4.95034 25.68187-4.8313 50.96536-9.65685 50.96536-9.65685l3.35975 17.60696s-25.31134 4.85147-51.025844 9.6895c-7.690929 1.44757-15.163956 2.85098-22.258771 4.16992 8.303363 16.80543 17.873828 32.52902 28.468535 47.03639l58.40479-32.90627 8.79197 15.6276-56.066418 31.61805c11.713018 14.19731 24.460838 27.05648 38.036118 38.39705l16.46946-19.52874c1.3247-19.71401 4.76411-36.21322 13.79894-49.64739 6.08401-9.0473 14.82126-16.15172 26.0668-21.0579-7.93283-12.30818-14.22995-26.22231-18.35763-41.60609-13.94389-51.98001.55676-104.1424 34.94708-132.56006l-118.041184-171.375644c-16.485772 18.000538-30.344228 39.0882-41.12708 62.424009z" filter="url(#b)" opacity=".75"/></g></svg>