<svg height="500" viewBox="0 0 500 500" width="500" xmlns="http://www.w3.org/2000/svg"><g transform="translate(-1000 -500)"><circle cx="1250" cy="750" fill="#8f29a3" r="250"/><path d="m1250.0521 500.09326-.061 248.75004-15.9199-248.2399a249.99917 250.18666 0 0 0 -31.6776 4.06945l45.0428 231.17052c-.102.0363-.2268.0547-.3789.0547l2.377 12.94521-.25-.53361-.5352-1.34279-3.3574-10.61339c-.1814.0698-.3456.12506-.5117.12506l-.1211.0782-83.1951-220.24831a249.99917 250.18666 0 0 0 -14.7401 6.13348l96.9 214.60543-.2187.11532 2.3047 4.43886 2.3437 5.21678.055.0488.416.7486.7461 1.26658v.0314l-.7461-1.29782-.4707-.79746-5.5273-9.21c-.1841.12151-.3808.23754-.5664.39678l-123.4077-200.53639a249.99917 250.18666 0 0 0 -34.1776 25.40763l164.5483 186.40079-.3984-.58052.832 1.02616v.0508l-.3262-.32448-.094-.12903v-.006-.002l-176.1809-175.46484a249.99917 250.18666 0 0 0 -21.0273 24.05115l186.5306 143.42536-.1425.18569 10.4687 8.26398-2.0957-1.07698-9.4082-5.66242c-.1395.18156-.2273.33335-.3066.47301l-208.0031-109.74966a249.99917 250.18666 0 0 0 -7 14.40723l214.5266 96.34337c-.074.17741-.1655.3791-.2578.59419l12.1758 4.73596-.037-.0253.5254.23653-.4863-.21109.3574.18179.2129.0802-.2129-.0508v-.0295l-12.8066-4.08117c-.056.14944-.1255.33501-.1758.5082l-224.9661-68.33223a249.99917 250.18666 0 0 0 -8.7656 41.69908l246.1613 30.77687h-1.2363l-246.3644-14.82161a249.99917 250.18666 0 0 0 -.4219 14.51082 249.99917 250.18666 0 0 0 .6113 17.47203l234.4934-16.18786h-.027l.3066-.0234-.2773.0234 12.9687-.73492-7.6699 1.8549-.3028.0508-4.789.9382.07.23845-228.2004 55.91086a249.99917 250.18666 0 0 0 4.2871 15.37279l224.173-70.26921c.093.36314.1859.69573.2793.95971l11.9648-4.46623-6.7285 3.52803-218.2141 100.03556a249.99917 250.18666 0 0 0 21.0155 36.99246l204.0072-139.70972-2.9414 2.38851-191.599 150.2058a249.99917 250.18666 0 0 0 21.2792 23.80097l164.7143-167.43742c.2793.26396.5666.50585.8359.80333l7.6309-8.62753v-.0314l.7578-.86587.1855-.23653.7754-.84633.02-.0645.057-.0272-.023.15832-.1035.11531.051-.18179-.068.18179-1.3203 1.73762.6133-1.0457-.1856.20916-.7578.89715-2.5996 3.67852-4.2753 5.57643.287.1818-133.9214 192.92518a249.99917 250.18666 0 0 0 13.3768 8.68037l121.3629-200.99764c.1115.0698.2562.1641.4043.23263l6.9082-11.76855-.2793.71929-100.1481 226.51466a249.99917 250.18666 0 0 0 40.1346 13.79743l59.6931-236.78211-1.5742 9.22563.2364.0566-42.7675 230.89101a249.99917 250.18666 0 0 0 31.6386 3.76263l12.9316-234.50119c.2415.0238.455.0234.6602.0234h.031v-12.36276l.055-.87175.3809 3.35211.6328 9.85892c.1939 0 .3385-.0234.5058-.0234l27.248 233.23258a249.99917 250.18666 0 0 0 15.7831-2.3455l-42.1484-231.0161c.254-.028.4739-.0916.707-.11531l-2.0644-10.71502-.055-.13878-.3203-1.79235.018.0295.3575 1.90182 74.3923 234.18055a249.99917 250.18666 0 0 0 39.205-16.19959l-111.1503-215.75097 4.1406 6.7179.2696-.18569 120.6715 201.44522a249.99917 250.18666 0 0 0 26.2108-18.10533l-145.5071-184.32505c.254-.18717.4204-.39029.6562-.60397l-8.457-9.554 3.3672 3.03156 5.8437 5.83834.2872-.30686 174.8256 156.82795a249.99917 250.18666 0 0 0 10.2715-12.18293l-184.478-145.35845c.1296-.15783.305-.33279.4082-.48083l-9.3632-7.21437 211.5852 126.78601a249.99917 250.18666 0 0 0 18.7245-38.19257l-229.6555-89.16613 11.0274 3.36579.012-.18569 223.9289 70.91228a249.99917 250.18666 0 0 0 7.6836-30.99187l-231.1887-41.80463c0-.16199.037-.30149.037-.44955l-7.3671-.90693-4.5508-.79941 12.0312.70755c.03-.32965.029-.62841.029-.96361l235.009 1.78454a249.99917 250.18666 0 0 0 .011-2.19892 249.99917 250.18666 0 0 0 -.3809-13.81303l-234.6691 13.37131v-.33226l-11.7754.81114-2.207.14075 2.1641-.14075h.043l242.6422-45.60435a249.99917 250.18666 0 0 0 -11.2772-41.04821l-231.0032 85.65376-.2598.0684 10.5078-4.79069c-.1716-.35894-.395-.80876-.6601-1.20402l208.1651-109.51534a249.99917 250.18666 0 0 0 -7.877-13.90491l-200.7337 122.63837-.2109-.32833-5.6211 3.9033-4.707 2.86542 9.6699-7.59747-.1446-.20719 183.392-147.45376a249.99917 250.18666 0 0 0 -29.3651-30.85701l-161.2514 182.96656-2.3184 2.37091 151.2905-195.53064a249.99917 250.18666 0 0 0 -26.4154-17.96062l-119.2496 202.94829-.094-.0664-7.0644 11.68841 5.539-12.45265c-.2748-.15364-.5655-.24794-.8711-.35962l83.404-220.18189a249.99917 250.18666 0 0 0 -15.121-5.19332l-69.2811 225.07807c-.1088-.0378-.2229-.0651-.3808-.11531l-1.8809 7.53882-1.1289 3.69807 2.1055-11.46558c-.2011-.0197-.4082-.0561-.6133-.0743l40.1268-232.08917a249.99917 250.18666 0 0 0 -42.4354-3.64138zm-1.9453 235.66215 1.0117 8.77021v.043l.8711 4.45646v.46128l.029-.16807.023.62741v.1036l-.057-.1036v-.43977l-.066.30686-.2383-.49451-.5625-4.74964zm-9.3652 5.00568 7.0859 6.37391-.025-.0197zm25.7675 6.02013-11.8261 2.9006h-.057zm-12.1504.11531-1.6269 2.78332-.3496.40069.1113-.44954-.092.20719-.02.18179-.051.10553v-.0253l.051-.0802v-.16221l.02-.0197v-.10556l.012-.0234.082-.12118v-.0234l.033-.0272.061-.1505v.0197l-.061.13096-.033.0508zm-6.5292.23849 3.3242 2.54682.3633.56682-.4493-.16807.2012.13878h-.022l-.2188-.13878h.037zm5.0331.24627-.2968 1.58908.2968-.84047-.3339 1.37603-.1016.1505.1387-.68606.2617-1.56758zm-.582.38505-.086 1.71808-.057.19351-.1172-.46715zm3.1445.7447-2.2754 1.58908h-.023l-.4121.27757-.2871.11728.2129-.27557.074-.0215.8867-.71342zm-4.0429.57856.1348.14075v.0469l-.084-.1251zm3.8633.31665h.029l-.1738.0802zm-3.5254.18179.1835.3577v.0392l-.1835-.35376zm.416.0938.02.26385v.0392l.039.0958.047.11728-.047.0215-.039-.1192.039-.0197-.039-.0605v-.0352l-.057-.26192zm2.2207.0644-.07.0272-1.0156.30686.1562-.0605zm-5.6387.0665 2.3692.40655.3457.21498.029.0606-.3124.0644zm2.1641.31271h.053l.094.0314zm.7265.19155h.02v.0196zm-.164.0606h.02l.074.0802zm.2148.1818h.024l-.024.0314zm-.3359.16808h.057l.2461.0352-.8125.32836zm-.3887.0352h.2168l-.9316.47886.2637-.0527-.025.0272-.2383.0253-2.0253.39287v.0234l-5.2422.93428 5.2422-.95774zm1.7774.0234.5078.043.7519.2228-.8457-.0841zm-.2188.16418.035.0178.1113.22088.3282.16611 1.4394 1.4034-1.3496-1.00858-.2344-.2971-.1855-.26385-.018-.0333-.092-.18766h-.035zm-1.0625.0802-.25.27364h-.029l-2.7812 1.26461 2.2988-1.41316zm1.5703.0997.1485.0253.031.0314zm.2207.0253 1.9356.60398-1.9063-.57074zm-1.1796.17201.031.1251.022-.0978-.022.13092v.006l.076.23066.125 1.89594-.2324-1.35256.031-.77402-.088.50819v-.0919l-.031-.18569.031.14272v-.26385zm.7226.0919.061.0664.088.14661-.037-.0314zm-1.1406.1818-.2442.52578-3.9492 12.85138 3.9219-12.85138h.027l.084-.28732.01-.0117zm-.088.10552-.065.11339.041-.0978zm1.4648.0802.033.0234.1152.18962-.092-.0919zm-.4375.21306.023.0295.029.22669zm-1.7304.26581v.0295l.051-.0295zm2.2929 1.35257 4.8828 10.7893-4.8828-10.73457z" fill="#aa40bf"/></g><path d="m250.50306 18.000905c-59.72251-.165729-119.50449 22.505995-165.010462 68.013219-77.8677714 77.868246-88.0844128 197.005926-32.206792 286.642876-20.595112-57.12385-4.942593-133.0053 42.772438-199.37975-26.188919 52.91044-23.190217 116.51722 8.486246 167.32777-15.668116-43.45706-3.01235-101.57236 34.60985-151.65956-21.66162 39.77495-20.18957 88.71375 4.00184 127.51772-13.60529-37.73746 1.79571-90.49094 42.15339-130.84985 42.77342-42.77269 99.67563-57.8979 137.65755-39.73985-38.91293-27.2634-89.80798-30.08956-131.22925-8.50483 52.81555-38.091336 113.89118-49.071366 157.01555-28.46053-51.01107-35.733115-117.17942-40.554854-172.30542-14.489586 70.02689-48.309995 149.80053-61.699921 206.54579-34.578862-39.63238-27.764478-86.04499-41.708134-132.49171-41.838767zm132.49268 41.839742.008.0058v-.0019c-.003 0-.005-.0029-.008-.0039zm-34.24232 49.067473c0 .002.004.004.007.005v-.002c-.003 0-.005-.003-.008-.004zm91.41554 8.10609c27.12869 56.74755 13.73982 136.52948-34.57865 206.56362 26.06803-55.12731 21.25217-121.29899-14.48463-172.31329 20.61266 43.12658 9.62977 104.2094-28.46621 157.0282 21.5885-41.42054 18.7643-92.32078-8.49502-131.2359 18.15209 37.98119 3.02892 94.88179-39.74352 137.65254-40.35963 40.35988-93.11279 55.75902-130.851 42.1517 38.80959 24.19351 87.76076 25.66459 127.53839 3.99309-50.09176 37.63218-108.21451 50.29387-151.67813 34.62079 50.8083 31.67373 114.41469 34.67635 167.32383 8.49117-66.37405 47.71337-142.25309 63.36404-199.37269 42.76782 89.63641 55.87796 208.77531 45.66126 286.64113-32.20699 80.90157-80.90108 89.63739-206.91944 26.16748-297.51275zm-86.02354 60.04166-.004-.007h-.002zm36.96124-25.7923-.004-.007h-.002z" fill="#eed9f2" opacity=".75"/><path d="m305.29297-59.212891-5.38086 7.572266c.87486-1.231124-.50146.647818-1.67383 2.154297s-2.79383 3.579921-4.70508 6.019531c-3.82249 4.87922-8.81013 11.230798-13.80078 17.582031-4.99065 6.351234-9.9843 12.703806-13.83008 17.603516-1.28069 1.6316644-1.53342 1.9781641-2.40625 3.0820313l-2.79687-4.3066407-14.49805 7.5351563c-20.22659 10.5134004-40.91594 25.7718161-52.41406 53.2910151l-3.38086 8.089844 4.28906 7.650391c.70897 1.264744 1.51408 2.439688 2.24805 3.68164l-1.79102 1.771485c-16.16505 15.995101-33.09722 31.887398-50.30859 48.365238l-2.00781 1.92187-174.082034-116.2871081v33.6699221 36.140625l132.623044 87.632811c-19.836936 20.60924-39.4767 42.75486-58.068356 67.62695l-7.771485 10.39649 7.41211 10.65625c16.652925 23.94691 31.457463 44.23729 54.642578 67.93164l7.917973 8.08984 29.14648-9.87109c19.14311 54.33313 65.66328 94.57572 120.22266 115.05469 33.17498 12.45267 69.35357 17.60653 104.75195 14.15234l1.42383-.13867 1.38672-.36328c9.7047-2.54057 17.93551-9.23146 22.59375-17.00391 4.65823-7.77244 6.38068-16.25796 6.53711-24.58984.31285-16.66377-5.35054-33.62714-16.38282-47.74805l-.5-.64062-.55664-.5918c-15.81934-16.86455-29.88456-35.26295-41.96875-54.76367l-4.55469-7.34961-4.21875-7.63477c-3.83973-6.95-7.42973-14.01865-10.76562-21.1914l-3.4668-7.45313-.11328-.0332-4.18945-10.57227c-1.96377-4.95643-3.70555-9.96694-5.42188-14.98047 6.74754-1.39077 13.17007-3.13787 19.10157-5.27929l-1.58985.57421 289.66602 4.76368v-58.55274l-269.38867-3.8789 2.95898-2.87696c8.5043 1.41445 16.92052 2.27575 25.11914 2.47852l2.61719.0644 2.5293-.68359c16.49113-4.46272 29.76364-15.60326 41.49414-28.9043 8.51036-9.64987 15.64329-20.24143 21.26367-30.19726l5.02148-8.89454c8.73172-3.868381 21.84039-6.058891 35.98242-15.728511 24.49159-16.746124 51.81609-45.175505 74.21094-69.945313 22.39486-24.7698071 39.31836-45.810547 39.31836-45.810547l23.55664-29.28125z" fill="#6a1f7a"/><path d="m314.58391-41.213848c-1.4697 2.0682-39.9195 50.839403-41.4216 52.875203 34.2306 46.6596 93.3372 68.6016 155.8602 74.2266 11.799-5.751 24.55017-7.759013 35.0262-14.922 43.16671-29.515243 109.6646-112.179803 109.6646-112.179803zm-104.1876 99.472703c33.6465 60.022795 101.3472 92.579395 155.349 93.914995 10.6425-2.88 22.4793-11.8503 32.697-23.436 7.461-8.46 14.0067-18.1368 19.089-27.1395-65.0808-7.667999-127.7487-33.283795-163.02825-87.597445-18.75645 9.74925-34.47675 21.20985-44.10675 44.25795zm-223.643303-18.074671v26.46l186.413003 123.173066c51.7545 33.0318 105.6303 33.0552 139.266 20.9088l1.5084-.5445 274.67106 4.518v-22.5117l-274.02756-3.9465c-48.726 19.539-100.7172 4.8825-142.344-24.1524zm323.179703 131.855366.5697-.2394c3.132-3.2823 6.336-6.5214 9.6138-9.7083-41.6952-11.5632-83.6352-37.3977-112.3029-76.783045-16.3935 16.221145-33.3963 32.176345-50.5224 48.572545l24.5376 16.39035c38.9835 27.19215 85.4352 39.67515 128.1042 21.76785zm-252.206103 70.3206c16.5267 23.7654 30.4398 42.8382 52.731003 65.619l36.009-12.195 2.4147 8.5032c14.9355 52.5717 58.9464 92.6667 112.3227 112.7016 30.6567 11.5074 64.2033 16.2594 96.678 13.0905 21.0744-5.517 19.7334-39.5865 3.123-60.8472-16.6455-17.7453-31.4334-37.089-44.1414-57.5964-24.939 1.5804-38.4633 13.905-56.178 31.833l-11.9637-11.8206c16.4835-16.6815 33.5763-31.5126 58.914-35.7732-4.041-7.3143-7.821-14.7555-11.3328-22.3065-30.3813-8.694-48.5073-.4698-73.1808 12.5676l-7.857-14.8716c18.432-9.738 36.8154-17.9694 59.004-17.8524.7155.004 1.4346.0153 2.1582.036 3.78.1125 7.6725.4707 11.6928 1.1016-2.6316-6.642-5.067-13.3533-7.2828-20.1258-34.7274 2.934-76.4028-4.698-116.7453-30.44475l-46.7118-30.7395c-20.523603 21.13425-40.687203 43.74675-59.653803 69.12045z" fill="#eed9f2" stroke-width="36"/><path d="m250.50306 18.000905c-59.72251-.165729-119.50449 22.505995-165.010462 68.013219-77.8677714 77.868246-88.0844128 197.005926-32.206792 286.642876-20.595112-57.12385-4.942593-133.0053 42.772438-199.37975-26.188919 52.91044-23.190217 116.51722 8.486246 167.32777-15.668116-43.45706-3.01235-101.57236 34.60985-151.65956-21.66162 39.77495-20.18957 88.71375 4.00184 127.51772-13.60529-37.73746 1.79571-90.49094 42.15339-130.84985 42.77342-42.77269 99.67563-57.8979 137.65755-39.73985-38.91293-27.2634-89.80798-30.08956-131.22925-8.50483 52.81555-38.091336 113.89118-49.071366 157.01555-28.46053-51.01107-35.733115-117.17942-40.554854-172.30542-14.489586 70.02689-48.309995 149.80053-61.699921 206.54579-34.578862-39.63238-27.764478-86.04499-41.708134-132.49171-41.838767zm132.49268 41.839742.008.0058v-.0019c-.003 0-.005-.0029-.008-.0039zm-34.24232 49.067473c0 .002.004.004.007.005v-.002c-.003 0-.005-.003-.008-.004zm91.41554 8.10609c27.12869 56.74755 13.73982 136.52948-34.57865 206.56362 26.06803-55.12731 21.25217-121.29899-14.48463-172.31329 20.61266 43.12658 9.62977 104.2094-28.46621 157.0282 21.5885-41.42054 18.7643-92.32078-8.49502-131.2359 18.15209 37.98119 3.02892 94.88179-39.74352 137.65254-40.35963 40.35988-93.11279 55.75902-130.851 42.1517 38.80959 24.19351 87.76076 25.66459 127.53839 3.99309-50.09176 37.63218-108.21451 50.29387-151.67813 34.62079 50.8083 31.67373 114.41469 34.67635 167.32383 8.49117-66.37405 47.71337-142.25309 63.36404-199.37269 42.76782 89.63641 55.87796 208.77531 45.66126 286.64113-32.20699 80.90157-80.90108 89.63739-206.91944 26.16748-297.51275zm-86.02354 60.04166-.004-.007h-.002zm36.96124-25.7923-.004-.007h-.002z" fill="#8f29a3" opacity=".1"/></svg>