<svg height="500.0004" viewBox="0 0 500 500.0004" width="500" xmlns="http://www.w3.org/2000/svg"><g transform="translate(-500 -500)"><path d="m999.99997 750a249.99997 250 0 0 1 -249.99997 250 249.99997 250 0 0 1 -249.99997-250 249.99997 250 0 0 1 249.99997-250 249.99997 250 0 0 1 249.99997 250z" fill="#ffe24c"/><path d="m1000 750.00632-194.05817-2.60063 192.98367-20.4591-193.45987 15.31075 190.28547-38.19139-191.22567 33.10816 185.92267-55.58184-187.34707 50.61663 180.01317-72.50831-181.88127 67.68555 172.56127-88.82024-174.86477 84.18876 163.62798-104.35075-166.35478 99.94311 153.30278-119.00625-156.40808 114.88758 141.65488-132.65651-145.14668 128.82271 128.82258-145.14278-132.65648 141.65492 114.88758-156.42029-119.00218 153.31093 99.94719-166.3385-104.34669 163.60764 84.17649-174.84041-88.81609 172.54909 67.67739-181.89345-72.48799 180.02133 50.6167-187.35925-55.5941 185.94294 33.1-191.23373-38.1995 190.27732 15.3474-193.45586-20.4957 192.97968-2.59249-194.05413-2.5681 194.05413-20.4916-192.97968 15.327 193.45586-38.2004-190.27732 33.1171 191.23373-55.5936-185.94294 50.6162 187.35925-72.51029-180.02133 67.69979 181.89345-88.81699-172.54909 84.17729 174.84041-104.36289-163.60764 99.96869 166.3385-119.00618-153.31093 114.86968 156.42029-132.64018-141.65492 128.81968 145.14278-145.14988-128.82271 141.67318 132.65651-156.42638-114.88758 153.29788 119.00625-166.34218-99.94311 163.62828 104.35075-174.86477-84.18876 172.54667 88.82024-181.87387-67.68555 180.00617 72.50831-187.35587-50.61663 185.94077 55.58184-191.21897-33.10816 190.28097 38.19139-193.47947-15.31075 192.98647 20.4591-194.04384 2.60063 194.04384 2.58435-192.98647 20.46723 193.47947-15.31481-190.28097 38.20361 191.21897-33.12445-185.94077 55.58997 187.35587-50.60849-180.00617 72.5083 181.87387-67.68553-172.54667 88.81211 174.86477-84.17656-163.62828 104.33851 166.34218-99.95936-153.29788 119.0103 156.42638-114.87941-141.67318 132.66054 145.14988-128.83082-128.81968 145.13868 132.64018-141.66304-114.86968 156.42028 119.00618-153.28243-99.96869 166.32222 104.36289-163.59543-84.17729 174.84852 88.81699-172.55719-67.69979 181.8975 72.51029-180.02538-50.6162 187.35108 55.5936-185.93884-33.1171 191.21336 38.2004-190.26101-15.327 193.47618 20.4916-192.99594 2.5681 194.05003 2.59249-194.05003 20.4957 192.99594-15.3474-193.47618 38.1995 190.26101-33.1-191.21336 55.5941 185.93884-50.6167-187.35108 72.48799 180.02538-67.67739-181.8975 88.81609 172.55719-84.17649-174.84852 104.34669 163.59543-99.94719-166.32222 119.00218 153.28243-114.88758-156.42028 132.65648 141.66304-128.82258-145.13868 145.14668 128.83082-141.65488-132.66054 156.40808 114.87941-153.30278-119.0103 166.35478 99.95936-163.62798-104.33851 174.86477 84.17656-172.56127-88.81211 181.88127 67.68553-180.01317-72.5083 187.34707 50.60849-185.92267-55.58997 191.22567 33.12445-190.28547-38.20361 193.45987 15.31481-192.98367-20.46723z" fill="#fffbb3" fill-rule="evenodd"/></g><path d="m171.90039.03125c-63.14411.02451164-117.899626 36.792207-143.677734 90.076172l-.072265.148437-.070313.148438c-10.130372 21.956283-15.606848 46.261263-15.580078 68.843753v.00586c.000004.003-.000004.00676 0 .00976.04923 87.78194 71.725721 159.20842 159.65625 159.20117 25.46274-.002 49.56317-6.00844 70.90039-16.51562l7.36328-3.62695c22.9806 12.79866 49.39708 20.15245 77.5293 20.1289 87.9203-.0153 159.5313-71.40672 159.55078-159.17773v-.00196-.00195c0-43.89936-17.93794-83.867393-46.79297-112.634764-28.85334-28.765801-68.86473-46.56149641-112.82422-46.56054725h-.00976c-25.44196-.00958687-49.52532 5.97196485-70.86524 16.48046925l-7.375 3.630859c-23.70607-12.7727041-52.48789-20.66101785-77.73242-20.154297zm18.98047 76.740234c.18218-.004.35144.022372.5332.019532-14.64368 24.067124-23.106 52.321534-23.10351 82.468754.003 29.88646 8.46308 57.78497 22.89648 81.71679-.25138.008-.4976.02555-.75.03125-26.38851-6.27994-49.09588-18.97238-63.99609-34.25195-15.2784-15.66737-22.28104-32.99211-20.20117-50.57813v-.01171l.00195-.01368c2.73526-23.40817 14.32857-46.22387 26.80859-57.388668 16.09666-14.156839 38.16692-21.557271 57.81055-21.992188zm120.6582.644532c22.76178.01762 43.11783 9.135727 58.02539 23.998044 14.90759 14.86235 24.09575 35.21294 24.11719 57.8418-.01 45.29331-36.66529 81.86718-82.09375 81.82226h-.01953-.01953c-.98804.001-1.94626-.10927-2.92578-.14257 16.93897-29.71283 24.99683-60.06869 22.85156-90.95703-1.75516-25.92978-8.51876-50.14827-22.19141-72.142582-.0657-.108211-.13912-.210326-.20508-.31836.82429-.02348 1.62737-.101345 2.46094-.101562zm-61.67578 27.943364c14.24702 16.74757 20.70998 32.03816 20.75781 53.92968l.00196.02149v.02148c.0951 20.66951-7.78892 39.47848-20.67578 53.97852-12.74512-14.41954-20.52452-33.30001-20.50391-54.03711v-.00977-.00976c-.002-20.71089 7.74382-39.52723 20.41992-53.89453z" fill="#f2c80d"/><path d="m427.99772 59.382418c-25.60973-25.532026-60.99947-41.310643-100.12231-41.30743-22.63198-.0099-43.94756 5.287771-62.91545 14.62821 11.44118 8.569557 21.10411 17.84853 29.52231 28.132417 5.57195-.94616 11.26251-1.419482 17.07167-1.419965 27.59939.02136 52.57973 11.166873 70.71997 29.252054 18.14025 18.085196 29.38116 43.050976 29.40724 70.571096 0 55.08756-44.92368 99.89423-100.11068 99.83967-55.18689.0637-100.18188-44.79469-100.12718-99.82315-.002-26.24344 10.19148-50.24164 26.84686-68.034165-7.88433-5.732709-16.83553-10.164986-26.43864-12.883108-16.12145 22.934763-25.54419 50.774863-25.5417 80.919333.007 78.02103 63.31959 141.26007 141.62456 141.19452 78.24574-.007 141.54831-63.13775 141.56563-141.18241 0-39.01049-15.89247-74.355064-41.50228-99.887072zm-184.31784-22.008025c-21.10361-11.93784-49.99589-19.820299-71.57863-19.351583-56.25391-.054427-104.799098 32.635606-127.676116 79.922948-9.002565 19.511902-13.950356 41.766022-13.92503 61.294912.03614 78.05055 63.408531 141.23054 141.654226 141.22409 22.64383-.002 43.98312-5.32324 62.951-14.66368-11.08548-8.09672-21.0448-17.55299-29.64085-28.1324-5.45341.94616-11.14396 1.41948-16.95312 1.41996-60.70084-13.58959-105.755028-57.44313-100.127652-105.02459 3.216461-27.52631 15.852162-53.69985 32.744862-68.77348 26.18669-23.065639 63.27565-31.361384 92.61839-24.093662 9.54381 2.54081 31.2401 13.29646 45.46777 27.480929 19.08895 20.804033 29.34567 42.377193 29.40728 70.571133.12073 26.24341-10.25076 50.18253-26.96541 68.03417 7.9436 5.79181 16.8948 10.22409 26.49791 12.94221 19.08471-30.14605 27.44036-59.16819 25.36319-89.01695-1.60244-23.70171-7.53188-44.62504-19.56672-63.951977-12.68705-20.922781-30.88656-38.476007-50.2711-49.88203z" fill="#fffdcc" stroke-width="36"/><path d="m352.66211 518-35.77344-31.50781c-7.94459-7.4046-15.11353-14.85615-17.22656-24.73438 10.55468-.8593 21.76362-2.6925 30.39062-6.93945 10.04899-4.95629 15.30726-16.29826 14.02344-25.58984 10.37164-9.50638 26.78953-16.87662 34.71289-25.6875l11.17969 25.78906 15.86523-40.8418c1.07335-2.76308 7.17013-12.89389 6.97657-26.79297-1.42118-13.79488-7.67395-25.80273-13.20899-38.30469-3.49023-7.98233-10.87869-21.78947-26.85937-26.29492l7.42383-18.02734-2.17188-2.07813 27.20508-55.03515h-114.22852c-13.66677-12.04945-25.72885-18.91892-36.89648-22.13281l-24.60742-7.08204.88281 13.52344-13.07813-7.30078c-11.12593-6.21116-20.85673-9.93378-31.44921-9.76172-8.04011.1306-16.16016 3.88517-21.88282 9.06055l-8.79687 1.73437c-19.26597 3.79555-31.68208 22.65955-30.72656 40.94336.60809 11.63585 5.87731 23.14065 15.06054 32.73438l-15.24414 18.06445c-6.40152 7.58619-16.00214 22.79065-18 42.68555l-14.654331-6.63056c2.545687 20.04403 3.955279 43.92685 15.615271 58.69892 6.88012 8.53769 17.22443 16.38605 33.45898 23.5-15.1492 10.44142-24.63336 24.93898-30.73046 39.08398-6.85457 15.90225-10.398215 31.75929-14.902349 45.20703l-7.943359 23.7168h104.519528l-4.25195-21.49219c-1.76845-8.93866-3.61275-16.46666-4.99414-23.16015 14.4052 1.28233 29.91899-5.35027 39.64062-14.08399 11.77397-10.78855 18.74-23.47459 25.22071-34.87109 1.11078.5122 2.23877 1.0105 3.40722 1.70801-17.31046 23.4536-25.38384 38.90533-24.78613 55.06543.3393 9.17352 4.83343 17.32927 8.82617 22.02148 4.71886 4.85604 9.27398 9.68839 13.70118 14.8125zm-173.61328-185.49023c7.11341.89911 14.25925.66237 20.92187.51562.45598 3.02007.81079 6.7465 1.23047 10.97656-6.82693 5.50211-13.43072 11.9591-19.51367 19.60743-3.40956-10.08936-3.25575-22.53036-2.63867-31.09961zm156.7832 46.82421c1.87491 11.21453 2.61743 19.67932 3.81641 30.79883-3.4692-9.99914-8.69115-19.10535-15.74805-26.92773 4.08455-1.23638 8.01095-2.54214 11.93164-3.8711z" fill="#f2c80d"/><path d="m304.99106 499.99979h-48.39625c-10.51905-12.17381-28.66018-15.73833 15.33686-72.2533 7.37555-9.47448-28.5528-29.20078-34.76356-21.81303-17.50106 28.1025-30.86468 64.1779-73.61697 43.62545-4.26255 16.07026 2.72127 33.18937 6.13447 50.44149h-57.59859c9.77467-29.1837 14.10493-61.59939 43.28436-78.04793l24.87968 12.2696c-.81883-9.88451-1.32221-19.76779 1.02262-29.65169-73.46507-18.88551-63.75752-43.02323-68.84559-49.24802l14.31422 4.60056c-9.39026-28.2404 3.39735-47.27296 11.2476-56.57598 2.69993 5.97342 7.56348 27.01643 12.269 40.21712 2.7646-3.39551 2.60535-7.62144 10.56543-8.69104-1.99459 26.97982 2.77743 49.08512 28.28799 49.24863 9.01748-14.26602 19.77573-24.17859 31.35585-32.03739-2.61024-12.51732-.9482-36.75083-12.27022-37.14926-15.50401-.54548-22.71422 1.71332-33.39987-1.70416-9.86801-13.62781-9.14437-29.03727-7.77336-41.39717-33.36204-16.81404-29.52539-50.01559-8.40306-54.17685-2.45403 13.75288-5.63355 24.79607 9.70147 30.13675.5577-25.73937 1.81217-54.53074 40.17502-33.11431-12.29278 4.49196-25.28604 9.83875-22.01253 24.09136 28.43746-13.96279 34.09175 2.74568 38.4922 13.33675-10.46416-.28067-23.34573-12.08412-31.77562 3.86594-5.04416 9.54466 2.02142 26.34343 8.52081 36.12726 18.62677-15.64131 33.94106-36.48725 63.05153-29.31061-14.12324-15.22336-14.68397-30.44672-15.67793-45.67008 9.71245 2.79512 20.30352 8.58975 35.10464 22.83504h92.02109l-14.99515 30.33262-9.50865-12.36905-14.68948 15.09521-13.29222-16.01777-17.72255 20.44873 8.17973 9.8845 9.20235-11.58867 12.26899 13.29222 15.33685-12.95115 7.83927 7.49819-7.15712 17.38148c-19.75803 1.39604-39.03525-6.82458-59.98431 18.40471 5.73974 13.16775 16.01779 21.23094 32.03679 22.83443 37.6673-47.13994 53.59538-24.81133 59.37293-11.59782-11.41721-4.5127-25.10481-3.16061-29.89148 12.79067 57.418-8.1059 39.76378 28.4692 35.83683 38.57825-5.52617-12.74674-4.83243-30.86955-25.44223-23.41163 13.3569 30.49552.51619 33.99659-7.15711 39.53496-1.80911-16.7762-2.39486-42.94878-19.08564-38.17127-29.63765 8.48176-49.6727 20.92526-60.66646-21.47195-7.47134 7.90699-12.71929 17.40161-11.24698 31.69631 39.43673 11.6747 57.48572 30.73594 61.0655 63.39934.84384 7.7032-29.8506 12.69428-44.36557 9.19504-5.19119 28.46066 7.77032 43.98909 22.83504 57.25752z" fill="#fffdcc" stroke-width="36"/><path d="m147.50195 280.68945c.26014.19674.52486.38987.78907.58399-.0102.37851.0138.79368.008 1.17773z" fill="#a51d2d"/><path d="m306.62109 159.16602v.043c-.00001-.007-.002-.0129-.002-.0195-.00003-.008.002-.0155.002-.0234z" fill="#c01c28"/></svg>