<svg height="500" viewBox="0 0 500 500" width="500" xmlns="http://www.w3.org/2000/svg" xmlns:xlink="http://www.w3.org/1999/xlink"><filter id="a" color-interpolation-filters="sRGB" height="1.036867" width="1.038155" x="-.019078" y="-.018433"><feGaussianBlur stdDeviation="3.7612767"/></filter><filter id="b" color-interpolation-filters="sRGB" height="1.040618" width="1.034827" x="-.017413" y="-.020309"><feGaussianBlur stdDeviation="3.2468341"/></filter><g transform="translate(.000015)"><circle cx="-249.99998" cy="250" fill="#e51a1a" r="250" transform="scale(-1 1)"/><path d="m181.33938 83.856939c97.52275-31.84694 203.27597 26.159281 217.12696 131.568651 10.04116 85.89723-45.79566 162.6049-131.11288 174.6444-76.26503 6.65-147.16573-45.4981-149.44603-126.3231.16679-50.89801 30.03241-87.97493 76.60677-108.40662 44.00125-16.48183 90.46555-3.00917 112.28155 39.63622 17.95322 40.0953 3.57775 87.31302-40.4313 103.80676-21.98685 8.23292-51.6578-5.55285-56.72562-31.5612 24.48155 21.7253 69.7211 11.74379 80.1808-21.06198 5.24648-24.88185-11.48198-41.52298-24.36368-55.64156-23.21161-15.22125-63.26956-13.16738-85.32502 12.05139-41.51846 46.43224-18.48961 112.52397 35.72777 131.08081 60.66482 17.11352 118.96473-29.63961 126.96137-92.39988 2.7637-54.83226-40.99398-106.19486-96.51046-114.27807-76.21988-10.3001-138.45939 50.84936-147.743191 124.09106-9.31956 73.21828 47.315731 138.67973 111.863041 158.33924 49.05305 9.49897 98.18701 2.07129 139.64056-27.40671 82.90715-58.95602 100.11901-177.97214 43.55644-260.39974-52.71171-79.885311-158.575-103.987181-249.15842-67.061741-86.705021 39.45169-149.0660905 134.549061-117.102931 229.167621 15.77888-74.65377 50.93986-153.5943 123.407351-187.514491 9.28724-4.60517 19.44718-8.7232 30.56692-12.33106zm-160.722321 286.075591c-52.57825-113.8254-.38403-260.89182 113.777041-317.643861 10.84604-5.32012 22.21219-9.7712 34.03518-13.36069 115.76394-28.75816 246.03978 34.00351 263.68455 158.897471 10.04526 85.91695-27.72044 168.80365-107.97396 206.83173-102.24035 46.26108-224.798841-11.43986-234.690511-131.24969-7.33455-123.78718 127.307171-194.136761 222.718561-137.24102-42.54074-27.89653-94.21826-33.44528-140.80825-12.98978-71.17376 32.62266-105.080851 118.0397-80.762351 190.63139 30.697281 88.13423 123.572931 132.04164 212.817841 105.59803 82.80488-25.06359 132.16266-100.33164 140.19255-180.04986 12.12434-145.020371-132.23823-245.3588802-265.59709-221.973611 7.92036-4.10499 20.5989-8.4277792 35.61563-11.7452592 60.06317-13.23825 124.63426-3.45807 179.45368 32.4903392 109.65077 71.904621 141.09454 217.803071 65.16008 333.599141-143.00482 218.07486-377.311781 117.06797-437.622951-1.79433" fill="#b21a1a"/></g><path d="m295.4349 500.00002h13.89612c-46.58191-126.22712 136.89445-135.73237 165.22702-212.16609 27.29666-73.6425 7.49958-111.35413-52.91433-160.4627 49.08516 79.79175-20.21938 118.62985-39.20748 87.35443-38.76789-63.85029 71.42416-155.256738-105.79813-204.43857l.001.001c36.37555 37.0268 36.81616 96.35495-1.90797 114.76303-42.0791 20.0006-101.219-5.71882-74.15739-76.128449-75.47006 45.961199-90.803 122.091689-64.77526 195.503189-30.82565-23.92541-91.95085-68.68686-48.716793-119.43883-58.002242 11.54754-73.125564 60.9278-42.802602 92.12385 50.093585 51.53041 13.248933 120.97334-28.522857 47.53945-24.8717693 125.25838 156.420852 153.31926 158.074422 235.34664h18.85582" fill="#ff8066" filter="url(#a)" opacity=".75"/><path d="m279.67969 136.32617c-16.43055.27534-32.67418 3.59983-48.31609 8.49406-21.60589 6.74536-42.25193 16.11261-63.38489 24.14485-3.72317 1.42579-7.46878 2.79178-11.21699 4.15015.64463 9.78529 1.41697 19.57013 1.81516 29.33297.52562 12.29285.62754 24.66722.21804 37.00883-.21418 6.12565-.55432 12.46733-1.0614 18.58488-.83276 10.21687-2.09079 20.40717-4.02063 30.47762-.35615 1.81087-.7601 3.82016-1.1863 5.69825-1.94902 8.58388-4.4089 17.11658-8.22357 25.07433-1.32904 2.63-2.75903 5.28127-4.80888 7.42664-.48717.48919-1.3037 1.14599-1.92578.46875-1.4603-1.33315-2.34996-3.16949-3.16233-4.93991-5.67337-17.01383-9.21813-34.64775-11.99097-52.34079-3.22223-20.55951-5.78211-41.24923-10.37189-61.56701-.25007-1.14777-.50014-2.29554-.7502-3.44331-4.25575 4.11982-8.44297 8.32441-12.206919 12.90533-11.358882 13.60319-19.746609 29.4373-26.259627 45.85436-10.532944 26.57053-16.604242 54.58096-25.342309 81.73621-.2238.70387-.447714 1.40769-.671615 2.11153 13.017736 10.86636 26.161237 21.64575 39.15862 32.47515 11.118126 9.29995 22.25549 18.8333 32.74372 28.82172 13.24307 12.64959 25.72445 26.29434 35.53203 41.82279 6.19836 9.8232 11.16321 20.44781 14.44454 31.59909 1.60865 5.4769 2.87642 11.25868 3.70739 16.9833.8405 6.13077 1.54193 12.4648 2.32611 18.69893.0851.697.16901 1.39414.25361 2.0912 50.98828.001 101.97656.003 152.96484.004-5.56656-11.07259-11.21572-22.10406-16.73011-33.20258-3.75864-7.69746-7.2147-15.54881-10.17223-23.59039-.30756-.85155-.70386-1.97297-1.04688-2.92773-1.73356-5.0167-3.2976-10.23014-4.44336-15.33399-.30358-.72684-.10352-1.45076.094-2.17471 5.06637-21.86966 11.5093-43.62469 21.37468-63.89529 3.60272-7.41576 7.72878-14.70077 12.2872-21.4925 2.53223-3.73273 5.14988-7.42467 8.03677-10.88942 13.22031-13.08526 27.87187-24.808 44.00809-34.10949 5.94871-3.44436 12.17449-6.61623 18.36725-9.44054 18.79423-8.57438 38.70218-14.66766 58.12607-21.79138 11.94878-4.33686 23.74323-9.10311 35.27719-14.44956.28276-.26776 1.75351-.45437.94775-.79649-5.65065-3.63041-11.40837-7.10982-17.43676-10.08173-17.5811-8.81883-36.67874-14.19853-55.96339-17.75472-22.85464-4.22276-46.09847-6.13901-69.08953-9.0226-4.74143-.6005-9.42971-1.22346-14.12202-1.91848-.63038-.0678-1.4359-.0805-.51948-.61998 5.01768-4.58925 10.27224-9.06717 15.48915-13.32678 17.11735-13.91374 35.11496-26.69436 52.37889-40.42057 2.74466-2.17779 5.47533-4.37354 8.21486-6.55795-7.27115-.92566-14.56176-1.75296-21.89035-2.0357-18.01479-.8072-36.07334.99274-53.7399 4.49256-22.97414 4.53596-45.36145 11.55432-67.91486 17.69856-3.44349.94284-6.89345 1.86145-10.34551 2.77232 10.42414-11.86049 21.77235-22.86447 32.20125-34.72075 4.68491-5.28208 9.16167-10.74376 13.50578-16.30855-5.93495-.8289-11.89454-1.53717-17.88945-1.71577-2.42192-.0817-4.84569-.0983-7.26875-.0596zm-53.95703 128.70703c-.86255-8.18416-.1234-16.49648 1.76283-24.48967.9494-2.46707 1.96425-4.96012 2.99728-7.30341.39959-.9317.86509-1.95132 1.26528-2.83192 5.68365-12.45196 13.10499-24.07613 21.77343-34.6582 1.34328-1.656 2.70854-3.27152 4.12305-4.91016-10.64062 24.73112-21.28125 49.46224-31.92187 74.19336zm68.76367 18.77539c1.64489-6.9478 4.67938-13.49014 8.23007-19.65411 8.9664-12.0129 18.9701-23.2474 29.84024-33.56854-12.6901 17.74088-25.38021 35.48177-38.07031 53.22265z" fill="#e51a1a" filter="url(#b)"/><path d="m110.11177 208.86294c-37.867078 36.51415-45.264049 89.42192-60.984857 137.96323l9.369141 7.79102c29.812689 24.79514 57.706696 46.77891 78.380856 69.97265 20.67417 23.19375 34.19047 46.85048 37.94141 77.58789l1.93168 15.81836 147.94336.00391-13.19141-26.11523c-8.66264-17.14955-15.16434-33.51077-18.19922-47.86524 8.088-35.467 19.67824-70.38543 42.3418-98.66211 52.9965-52.48475 94.69186-52.04725 154.55719-79.52473-46.29203-29.75598-100.13797-28.78587-154.02399-36.8698l-44.82421 62.66211c.43909-8.99253 3.74035-18.21462 9.6289-28.49609 32.18836-43.08926 65.95523-62.41585 107.0686-95.51419-54.57642-6.95154-95.68333 9.67051-148.31469 23.42434l-34.89063 81.09375c-2.14522-9.68388-2.01116-20.49275.6836-32.07812 18.00847-47.08334 46.40339-63.30716 75.5523-100.42939-52.10062-7.31585-93.24803 17.31405-142.22223 34.85517l.92579 13.58008c3.13161 45.94389.14668 83.21291-5.66211 108.16601-2.9044 12.47655-6.60188 21.86202-9.77149 27.21289-4.45193 7.39108-7.44994 8.84468-11.74023-.24414-13.02081-39.07926-13.53208-74.30122-22.49956-114.33237z" fill="#861313"/><path d="m101.23627 248.91035c-1.66884 47.40615 15.26578 129.74389 79.84772 123.98539-14.68373-6.73335-26.5457-16.13887-36.18831-26.93543 21.10264-4.26774 39.30211-64.42929 32.84758-159.12355l89.67554-32.119c-65.59341 44.64138-79.48851 119.62403-40.12941 157.28071l45.50632-105.76759 87.00133-22.73587c-66.01571 42.07503-107.71424 97.34914-74.28358 147.23208l58.89263-82.32858 107.06807 16.06153c-127.47265 22.15787-159.96713 103.75787-176.6789 179.37957 3.16163 17.90234 10.90849 36.89553 20.63964 56.16041l-102.74843-.003c-8.52938-69.89479-63.57249-110.0588-122.679829-159.21824l30.781889-95.04838z" fill="#ff8066" stroke-width="36"/></svg>