<svg height="500.0004" viewBox="0 0 500 500.0004" width="500" xmlns="http://www.w3.org/2000/svg"><g transform="translate(-500 -500)"><path d="m999.99997 750a249.99997 250 0 0 1 -249.99997 250 249.99997 250 0 0 1 -249.99997-250 249.99997 250 0 0 1 249.99997-250 249.99997 250 0 0 1 249.99997 250z" fill="#ffe24c"/><path d="m1000 750.00632-194.05817-2.60063 192.98367-20.4591-193.45987 15.31075 190.28547-38.19139-191.22567 33.10816 185.92267-55.58184-187.34707 50.61663 180.01317-72.50831-181.88127 67.68555 172.56127-88.82024-174.86477 84.18876 163.62798-104.35075-166.35478 99.94311 153.30278-119.00625-156.40808 114.88758 141.65488-132.65651-145.14668 128.82271 128.82258-145.14278-132.65648 141.65492 114.88758-156.42029-119.00218 153.31093 99.94719-166.3385-104.34669 163.60764 84.17649-174.84041-88.81609 172.54909 67.67739-181.89345-72.48799 180.02133 50.6167-187.35925-55.5941 185.94294 33.1-191.23373-38.1995 190.27732 15.3474-193.45586-20.4957 192.97968-2.59249-194.05413-2.5681 194.05413-20.4916-192.97968 15.327 193.45586-38.2004-190.27732 33.1171 191.23373-55.5936-185.94294 50.6162 187.35925-72.51029-180.02133 67.69979 181.89345-88.81699-172.54909 84.17729 174.84041-104.36289-163.60764 99.96869 166.3385-119.00618-153.31093 114.86968 156.42029-132.64018-141.65492 128.81968 145.14278-145.14988-128.82271 141.67318 132.65651-156.42638-114.88758 153.29788 119.00625-166.34218-99.94311 163.62828 104.35075-174.86477-84.18876 172.54667 88.82024-181.87387-67.68555 180.00617 72.50831-187.35587-50.61663 185.94077 55.58184-191.21897-33.10816 190.28097 38.19139-193.47947-15.31075 192.98647 20.4591-194.04384 2.60063 194.04384 2.58435-192.98647 20.46723 193.47947-15.31481-190.28097 38.20361 191.21897-33.12445-185.94077 55.58997 187.35587-50.60849-180.00617 72.5083 181.87387-67.68553-172.54667 88.81211 174.86477-84.17656-163.62828 104.33851 166.34218-99.95936-153.29788 119.0103 156.42638-114.87941-141.67318 132.66054 145.14988-128.83082-128.81968 145.13868 132.64018-141.66304-114.86968 156.42028 119.00618-153.28243-99.96869 166.32222 104.36289-163.59543-84.17729 174.84852 88.81699-172.55719-67.69979 181.8975 72.51029-180.02538-50.6162 187.35108 55.5936-185.93884-33.1171 191.21336 38.2004-190.26101-15.327 193.47618 20.4916-192.99594 2.5681 194.05003 2.59249-194.05003 20.4957 192.99594-15.3474-193.47618 38.1995 190.26101-33.1-191.21336 55.5941 185.93884-50.6167-187.35108 72.48799 180.02538-67.67739-181.8975 88.81609 172.55719-84.17649-174.84852 104.34669 163.59543-99.94719-166.32222 119.00218 153.28243-114.88758-156.42028 132.65648 141.66304-128.82258-145.13868 145.14668 128.83082-141.65488-132.66054 156.40808 114.87941-153.30278-119.0103 166.35478 99.95936-163.62798-104.33851 174.86477 84.17656-172.56127-88.81211 181.88127 67.68553-180.01317-72.5083 187.34707 50.60849-185.92267-55.58997 191.22567 33.12445-190.28547-38.20361 193.45987 15.31481-192.98367-20.46723z" fill="#fffbb3" fill-rule="evenodd"/></g><path d="m249.99023 0a249.99997 250 0 0 0 -23 1.6464844l-.06054-.5722656.04492.5722656a249.99997 250 0 0 0 -22.8125 3.1308594l-.10547-.5234376.0918.5253907a249.99997 250 0 0 0 -22.52735 4.9003906l-.04101-.1367187.03711.1386718a249.99997 250 0 0 0 -21.69922 7.7734374l-.23242-.574219.21679.580079a249.99997 250 0 0 0 -21.13086 9.158203l-.20312-.392579.19141.398438a249.99997 250 0 0 0 -20.23829 11.052734l-.13867-.21875.13281.220704a249.99997 250 0 0 0 -18.777339 13.3125l-.392578-.50586.378906.515625a249.99997 250 0 0 0 -17.898437 14.519531l-.251953-.269531.246093.275391a249.99997 250 0 0 0 -16.294921 16.294922l-.28125-.25.273437.257812a249.99997 250 0 0 0 -14.509766 17.888672l-.515624-.378906.503906.392578a249.99997 250 0 0 0 -13.328125 18.804688l-.220703-.13281.21875.13867a249.99997 250 0 0 0 -11.042969 20.22265l-.412109-.19921.40625.20898a249.99997 250 0 0 0 -9.160157 21.13867l-.574219-.21289.56836.22852a249.99997 250 0 0 0 -7.7734376 21.70117l-.1445313-.03906.1445313.04297a249.99997 250 0 0 0 -4.9003906 22.52148l-.5214844-.08984.5195312.10351a249.99997 250 0 0 0 -3.1289062 22.82422l-.5898438-.04687.5878906.0625a249.99997 250 0 0 0 -1.6445312 22.99023 249.99997 250 0 0 0 0 .00586 249.99997 250 0 0 0 1.6445312 22.99023l-.5878906.0625.5898438-.04687a249.99997 250 0 0 0 3.1308594 22.83008l-.5214844.10547.5253906-.0918a249.99997 250 0 0 0 4.8964844 22.51367l-.1445313.04297.1445313-.03906a249.99997 250 0 0 0 7.7773436 21.70898l-.572266.23047.578126-.21484a249.99997 250 0 0 0 3.93164 9.07226c.171582-.00357.336221-.0002.507813-.0039 12.152653-.2626 24.247531-.86409 34.515625-1.90235 5.134045-.51913 9.79219-1.1361 14.042968-1.97656 4.250779-.84046 7.692467-1.27863 13.074219-4.46094l.001953-.00195c9.509323-5.62589 18.418544-16.70641 20.078124-29.45703.0952-.7307.10305-1.47911.16211-2.2168l40.64649-24.10937-56.662114-100.83008c9.824299 3.08456 19.472934 8.79901 30.123044 15.65429 18.00589 11.59007 39.01498 27.95598 66.64649 22.57032l12.91601-2.51758 1.51953-13.07227c3.07929-26.49272-9.82268-51.03497-27.16015-72.07226-14.52906-17.62955-32.92719-33.00935-52.03125-45.087893 9.18802-6.326022 19.35672-11.291526 30.25-14.759766l128.05468 75.960939 10.32227-18.36914h22.59961v-.00391h-22.59766l12.20118-21.71094c4.33729-.10011 8.57238-.90499 12.00781-2.49218l.0039-.00196c13.09217-6.0496 17.2031-16.327285 21.23243-27.427731 3.93784-10.84924 6.26621-22.352262 8.6582-32.091797v-.001953c1.20877-4.922549.80844-5.365228.99609-8.222656.18765-2.857427.36107-6.373738.53711-10.416015.1412-3.242184.28575-7.583121.42774-11.34961a249.99997 250 0 0 0 -4.19532-1.851562l.02344-.066407-.02539.064453a249.99997 250 0 0 0 -21.86523-7.3320308l.01953-.0703124-.02149.0683593a249.99997 250 0 0 0 -22.48242-5.3027343l.00977-.0546876-.01172.0527344a249.99997 250 0 0 0 -22.8418-3.2089844 249.99997 250 0 0 0 -23.07617-1.0976562 249.99997 250 0 0 0 -.00977 0z" fill="#f2c80d"/><path d="m249.99023 0a249.99997 250 0 0 0 -23 1.6464844l-.06054-.5722656.04492.5722656a249.99997 250 0 0 0 -22.8125 3.1308594l-.10547-.5234376.0918.5253907a249.99997 250 0 0 0 -22.52735 4.9003906l-.04101-.1367187.03711.1386718a249.99997 250 0 0 0 -21.69922 7.7734374l-.23242-.574219.21679.580079a249.99997 250 0 0 0 -21.13086 9.158203l-.20312-.392579.19141.398438a249.99997 250 0 0 0 -20.23829 11.052734l-.13867-.21875.13281.220704a249.99997 250 0 0 0 -18.777339 13.3125l-.392578-.50586.378906.515625a249.99997 250 0 0 0 -17.898437 14.519531l-.251953-.269531.246093.275391a249.99997 250 0 0 0 -16.294921 16.294922l-.28125-.25.273437.257812a249.99997 250 0 0 0 -14.509766 17.888672l-.515624-.378906.503906.392578a249.99997 250 0 0 0 -13.328125 18.804688l-.220703-.13281.21875.13867a249.99997 250 0 0 0 -11.042969 20.22265l-.412109-.19921.40625.20898a249.99997 250 0 0 0 -9.160157 21.13867l-.574219-.21289.56836.22852a249.99997 250 0 0 0 -7.7734376 21.70117l-.1445313-.03906.1445313.04297a249.99997 250 0 0 0 -4.9003906 22.52148l-.5214844-.08984.5195312.10351a249.99997 250 0 0 0 -3.1289062 22.82422l-.5898438-.04687.5878906.0625a249.99997 250 0 0 0 -1.6445312 22.99023 249.99997 250 0 0 0 0 .00586 249.99997 250 0 0 0 1.6445312 22.99023l-.5878906.0625.5898438-.04687a249.99997 250 0 0 0 3.1308594 22.83008l-.5214844.10547.5253906-.0918a249.99997 250 0 0 0 4.8964844 22.51367l-.1445313.04297.1445313-.03906a249.99997 250 0 0 0 4.6035156 12.84961c25.892756-.25396 53.647414-2.08113 60.089844-5.89063 6.408252-3.79123 10.41553-8.7599 11.394531-16.28906.980318-7.52851-1.390905-18.33594-10.378906-32.80078-42.864233-68.98045-28.35043-142.95877 15.86914-186.308596 44.218261-43.34916 118.298711-55.70667 190.675781-4.746094 12.04804 8.482573 18.69245 8.832806 23.13086 6.78125 4.43973-2.050897 8.60848-8.256414 11.86523-17.228516 3.25677-8.972765 5.60344-20.0903 8.09766-30.246093.55195-2.247752 1.10238-16.44419 1.67188-32.09961a249.99997 250 0 0 0 -8.29297-2.7812498l.01953-.0703124-.02149.0683593a249.99997 250 0 0 0 -22.48242-5.3027343l.00977-.0546876-.01172.0527344a249.99997 250 0 0 0 -22.8418-3.2089844 249.99997 250 0 0 0 -23.07617-1.0976562 249.99997 250 0 0 0 -.00977 0zm-64.64257 63.857422v.001953c-5.74243-.02369-11.37408.347693-16.8711 1.085937l102.9375 61.060548 13.83985-24.63281c-3.33703-1.563342-6.80613-3.603575-10.39844-6.132816-31.01489-21.838085-61.59639-31.268325-89.50781-31.382812zm-85.384769 34.761719v.001953l-.09961.09375c-17.716782 17.368496-30.335424 40.087506-35.482422 65.591796 49.673831-6.62709 80.078031 47.59993 116.705081 40.46094 4.39497-37.81232-39.14439-82.92992-81.123049-106.148439zm193.037109 33.894529v.00391zm-230.4375 43.60156c-3.154123 29.40475 3.488844 61.80863 23.267578 93.63868 5.135817 8.26543 8.59033 15.8664 10.533203 22.86523l23.751949-14.08984z" fill="#fffdcc" stroke-width="36"/><path d="m379.28125 171.05273c-41.40853-.25427-74.55332 20.63041-95.13477 51.49805-21.32669 31.98538-30.77136 74.34668-28.8789 118.71484l-.47656 2.16016.48828-1.60547c.00073.0163-.00074.0325 0 .0488-4.87831 13.26849-4.55952 26.94443-1.77539 39.41797 2.38997 10.70423 5.3459 18.92851 11.56054 26.28516l1.11914-5.57032c-.3954 1.97772-.63727 3.92833-.83984 5.86914 1.36865 1.59027 2.68712 3.18703 4.41602 4.70899l-.0117-.01-4.50586-3.97656c-1.52641 16.44249 3.59941 31.36329 11.60351 42.07422 9.37893 12.5496 20.76825 20.2014 35.2168 21.28906 9.98754.75245 21.31213-3.53936 27.50977-8.72266 7.21716-6.03263 11.61192-12.82696 16.79882-20.35351 10.19198-14.78927 21.31615-31.27963 45.58008-44.70313l.002-.002c51.61712-28.55781 74.02433-82.65337 70.88282-130.66797-.35104-5.36377 2.33636-15.40873 4.92968-27.43359 2.59333-12.02486 4.91204-28.93873-5.81835-43.66602-10.25825-14.07925-25.88721-18.17809-38.49024-20.05468-12.60303-1.8766-24.39481-1.95898-30.39453-3.00391l-.40234-.0703-14.50586-1.85547-.48243-.0352c-2.83276-.20815-5.63005-.31898-8.39062-.33594z" fill="#f2c80d"/><path d="m272.37196 347.2905c-3.47161 8.87173-3.52318 20.11415-1.29996 30.0747 2.2235 9.95862 7.01448 18.56421 10.5819 21.70463l2.95365 2.60497-.77214 3.84288c-2.81779 14.07135 1.00399 25.77683 7.42881 34.3744 6.42436 8.5962 15.69689 13.63038 22.14948 14.11612 6.67651.50388 10.41637-1.07234 14.61157-4.58093 4.19697-3.50703 8.45698-9.40748 13.52382-16.75981 10.13367-14.70466 23.8076-34.816 51.68932-50.24096 45.10841-24.95679 64.35854-72.12783 61.63575-113.74271-1.36175-20.80716 14.64167-45.04573 2.52511-61.6755-11.69774-16.05493-40.07486-12.90457-57.42585-15.92647l-13.62153-1.74145c-39.49651-2.90221-67.98971 14.34094-87.22884 43.1954-18.9319 28.39372-28.07421 68.35688-25.82509 110.54264zm152.77354-93.84384c1.5902 2.82454.5894 6.4034-2.23528 7.99336s-6.40346.58884-7.99316-2.23598c-13.58189-24.09613-41.27766-30.49185-66.3057-17.26064-12.96474 6.85303-25.17805 19.22635-33.66863 37.7353 9.56381-7.70484 20.42322-15.00926 31.88851-19.01857 10.27193-2.88048 19.04132-4.14088 28.28265-.94001 9.37404 3.28767 17.82991 10.80231 24.62819 22.90733 1.58363 2.82909.57386 6.40632-2.25532 7.98979s-6.40634.57353-7.98967-2.25573c-5.8136-10.35132-12.00644-15.37921-18.26326-17.57421-6.25552-2.19483-13.08182-1.65244-20.53154.95396-14.88786 5.20515-31.13565 18.90312-43.27204 30.06554-2.83799 11.93504-4.38757 25.58769-4.21939 41.04701 8.2424 1.45857 14.72943 4.49586 19.14691 9.01751 5.34747 5.47288 7.37952 12.7242 6.88831 19.53407-.98021 13.61804-10.62726 26.58021-24.29841 30.2764-3.12605.83426-6.33821-1.01616-7.18477-4.1389-.84657-3.12273.99118-6.34216 4.11056-7.20101 7.82218-2.11581 15.07487-11.6052 15.66395-19.77907.29408-4.086-.70758-7.54255-3.58272-10.48556-2.87587-2.94245-8.06359-5.59195-17.04789-6.32288-2.97444-.23895-5.29592-2.67207-5.39501-5.65444-2.08717-61.9657 21.83854-100.79374 51.61049-116.53251 12.21214-6.45588 25.42666-8.89312 39.13874-7.31137 18.19978 2.80673 33.55497 12.63986 42.88448 29.19061z" fill="#fffdcc" stroke-width="36"/></svg>