<svg height="500" viewBox="0 0 500 500" width="500" xmlns="http://www.w3.org/2000/svg" xmlns:xlink="http://www.w3.org/1999/xlink"><radialGradient id="a" cx="1362.7291" cy="216.11429" gradientTransform="matrix(1.0000001 -.0000059 .0000001 1.0000003 -112.72927 33.893757)" gradientUnits="userSpaceOnUse" r="250"><stop offset="0" stop-color="#ff851a"/><stop offset=".42441937" stop-color="#f87000"/><stop offset=".86367416" stop-color="#f26900"/><stop offset="1" stop-color="#e55f00"/></radialGradient><g transform="translate(-1000)"><path d="m1500 250a250 250 0 0 1 -250 250 250 250 0 0 1 -250-250 250 250 0 0 1 250-250 250 250 0 0 1 250 250z" fill="url(#a)" stroke-linecap="round" stroke-linejoin="round" stroke-width="1.002"/><path d="m1309.2298 33.82789c128.5196 30.706851 207.8974 167.48127 169.5927 291.56949-31.3771 95.69524-112.8693 162.03793-212.5543 174.60263 153.1796-8.09118 266.0956-163.0043 218.7012-309.92978-36.4562-114.666588-154.6038-191.5214848-270.6514-169.822657-18.8526 4.215647-38.4387 10.498641-55.8829 18.694487-112.5353 47.459213-168.47522 196.206-99.9632 307.85319 57.6978 93.63045 168.5136 141.8489 267.9993 100.77239-134.92 68.97589-303.283-51.46877-311.488-201.30723-4.4167-117.68321 76.8182-219.674136 190.654-246.26040176-89.0147 9.18391126-152.6601 79.39239576-187.7408 157.21169176-38.45522 102.70317 5.2337 231.75078 109.038 294.08388 114.5107 66.1048 260.3537 29.37245 323.6836-83.60152 42.2104-77.69758 34.3514-177.62383-23.1776-249.88923-57.5404-72.257811-157.5429-102.460489-246.4118-71.877168-81.7429 30.682061-131.1298 101.133078-134.0478 190.176958.6692 92.68536 61.7912 168.55972 147.5399 198.52472 128.5549 37.82014 266.7725-70.33038 233.6823-209.88949-14.7104-64.39775-57.8855-122.14991-125.7378-141.121386-71.391-15.467036-138.9716 1.205-181.2869 64.641366-18.8995 29.2286-28.9384 85.21395-26.105 97.65297m0 0c13.5324-50.18833 30.6277-97.66354 72.2125-128.94941 53.182-38.308183 124.4576-37.093813 181.7444-.48035 50.1457 36.48017 75.4845 90.37713 72.3557 150.91678-6.6674 64.04407-38.4038 109.83277-91.6401 141.00844-63.9019 34.56125-135.3795 4.83213-189.1258-35.28385-78.8706-65.48566-79.7477-186.67235-8.9744-256.76104 63.7369-55.941605 167.0207-64.891564 238.7167-6.65053 78.8163 58.35315 90.3045 169.04089 40.972 246.62443-35.2274 56.41892-88.4571 87.60135-152.5581 93.63158-81.9488 2.18264-160.666-41.91503-196.8695-120.9383-36.2055-79.02511-22.5771-164.33167 26.8727-227.66064 49.4316-63.30896 138.3491-86.746364 220.4504-67.54202" fill="#c50"/></g><g fill="#ffa348"><path d="m229.42961 2.3330098c-6.13769.1206904-11.86762 6.0689754-7.59921 14.9461792 7.70546 16.032496 13.16685 24.218945 20.76607 37.026862.19441-14.306963-.23596-25.750996-2.82541-41.787109v-.01443c-1.16904-7.2465279-5.86193-10.259543-10.34099-10.1713896zm30.37427 41.8300552c10.45627-12.46073 34.34204-20.537326 60.20876-18.860165 19.26974 1.25041 17.59617-21.1476153-5.1705-20.2145529-22.76668.9330623-49.005 18.9003989-55.03826 39.0747179zm-86.20434-13.731034c-3.50532.04342-7.06668.410474-10.62354 1.115694-26.10677 5.174342-20.92293 40.798894 4.15449 30.316404 28.80381-12.038499 46.41491-6.996617 59.57317 9.352327.8779-20.831167-24.5571-41.144723-53.10412-40.785333zm86.40144 43.468349c16.12833-19.20509 33.25573-16.468737 57.70884 15.609815 21.28867 27.930395 50.10057-8.592856 24.22797-31.248561-12.76991-11.182286-32.84253-19.342068-51.53294-17.604329s-27.97447 9.59147-30.40387 33.243075zm-66.96263 13.915008c-11.99509-.01196-22.51377.603054-36.54632 2.867901-17.17577 2.771163-10.58148 25.322891 4.77517 17.941561 16.03252-7.7059 24.22076-13.16594 37.02687-20.766967-1.78837-.02463-3.54149-.04068-5.25526-.04247zm36.74479 7.770099c-29.56373 4.253027-57.04434 21.923353-85.19941 55.561533-22.60644 27.00954 14.84674 52.85274 31.98362 21.23351 19.68293-36.32209 35.04412-56.38158 53.21714-76.795043zm42.52261 1.426716c15.48006 21.172477 21.8022 29.435777 26.7713 68.135267 4.32491 33.69107 46.131 17.05191 35.41569-14.43896-13.34496-39.21982-33.63275-47.32128-62.18699-53.696307z"/><path d="m9.0413695 143.08384 16.4206265-11.85702c18.229539 7.96643 31.618046-3.29288 32.756205-23.39423 4.184905 4.61191 8.216283 7.98864 12.130259 10.51344l-22.038339 32.99708c-13.368538-.77223-26.584729-3.11551-39.2687515-8.25927z"/><path d="m480.99204 143.02867-16.43132-11.84225c-18.22233 7.98284-31.621-3.26442-32.77728-23.36474-4.18077 4.61567-8.20907 7.99603-12.12077 10.52436l22.06804 32.97724c13.36784-.78427 26.58192-3.13944 39.26133-8.29461z"/></g><path d="m300.49857 208.80664c-5.96979 1.23357-12.03416 2.08453-18.11576 2.50195-24.88676 1.70814-49.94796 1.67664-74.83594-.0137-6.30638-.42832-12.592-1.3154-18.78906-2.56055-9.81963-1.97302-19.74275-4.00465-29.02903-7.75738-6.864-2.77385-9.70379-4.36579-19.41628-10.78363-20.95514-14.01335-35.99718-35.28123-48.708984-68.2168l-12.490235-32.365232-39.9375 59.792972-.503906 4.30273c-6.724713 57.45191 7.052119 101.75466 33.138672 125.87695l.002.002.002.002c12.941886 11.96024 29.701693 18.62092 46.677733 17.52539 12.38042-.73662 24.7849-5.46393 36.47656-13.75391 2.87593 10.4257 6.31938 20.19922 10.24805 29.22071l3.34179 11.94726-3.02343 11.61524c-12.58015 48.11059-32.26564 98.67407-48.80078 134.13086l-15.36915 32.95703 35.52735-7.76367c40.44056-8.83854 63.52257-8.58103 94.45312.28515l13.67383 5.64844 13.67188-5.64844c30.9305-8.86617 54.01455-9.12368 94.45507-.28515l35.52735 7.76367-15.36914-32.95703c-16.53346-35.45305-36.21665-86.00933-48.79697-134.1153l-.004-.0156-3.10938-11.93164 2.13672-8.75977c4.45904-9.81934 8.35957-20.53978 11.54492-32.08789 11.69005 8.28754 24.09418 13.0135 36.47266 13.75 16.97417 1.09479 33.71808-5.57333 46.66797-17.50976l.0117-.01.0117-.0117c26.07935-24.12624 39.83055-68.41997 33.14454-125.86328l-.50196-4.31836-40.01354-59.790825-12.46094 32.386715c-12.66578 32.92285-27.70624 54.18044-48.67968 68.19532-9.71347 6.41902-13.65035 7.92349-20.97168 10.78555-9.10344 3.55872-18.68618 5.85174-28.25827 7.82968z" fill="#994100"/><path d="m168.85363 222.42155c-13.40852-4.25752-27.13931-9.71693-38.5203-17.2459-24.75806-16.5462-41.995823-41.67268-55.521688-76.71743l-18.261583 27.34107c-6.250811 53.40317 7.599547 92.18505 27.481284 110.56974 10.041532 9.27988 21.352367 13.571 33.346187 12.7831 11.99381-.70037 25.03854-6.65385 37.99536-19.61067l10.41662-10.41833 2.88971 14.44511c3.23098 16.03062 7.95135 30.49321 13.60485 43.20239l4.91819 17.58747-4.25234 16.33794c-12.95682 49.55112-32.91734 100.76661-49.9013 137.18581 42.45987-9.27987 70.29818-9.01858 104.09099.78658l7.87915 3.25526 7.87916-3.25526c33.79281-9.80516 61.63282-10.06645 104.09269-.78658-16.98396-36.4192-36.94448-87.63469-49.9013-137.18581l-4.25699-16.33797 3.55781-14.59314c6.25904-13.41652 11.48235-28.89314 14.96989-46.19669l2.888-14.44511 10.41833 10.41833c12.95684 12.95682 26.00155 18.9103 37.99535 19.61067 11.99381.7879 23.28698-3.50322 33.35476-12.7831 19.873-18.38469 33.7056-57.16657 27.48983-110.56974l-18.2975-27.34107c-13.4821 35.04475-30.72904 60.17123-55.50459 76.71743-11.38102 7.52897-24.13009 13.09377-37.12948 17.2459-9.12773 2.91548-18.72071 4.37878-28.26347 5.24549-33.18073 3.0136-66.7947 3.02982-99.95161-.2353-8.62277-.84912-17.24784-2.38803-25.50601-5.01019z" fill="#ffa348" stroke-width="36"/><path d="m188.75781 208.73437c-9.93022-1.30721-29.02903-7.75741-29.02903-7.75741l10.32005 31.82187c4.6505 12.86314 11.84386 27.76205 21.05469 41.48437 7.37021 11.00747 15.52464 21.14545 24.4375 29.08008l.006.006.004.004c9.15993 8.14212 15.79185 13.91406 29.46875 13.91406 13.67691 0 20.30687-5.77194 29.4668-13.91406l.006-.004.006-.006c8.91286-7.93463 17.06534-18.0726 24.43554-29.08008 9.22529-13.74373 16.41248-28.69345 21.05664-41.53906l8.76609-31.76718s-18.57266 6.51586-28.25827 7.82968c-36.90891 5.00658-74.81242 4.78897-111.74076-.0723z" fill="#994100"/><path d="m188.1514 226.77822c4.11466 11.38102 9.68061 25.23385 17.90993 37.49032 6.74105 10.06781 14.27003 19.26014 21.4488 25.65101 7.09126 6.30332 13.8323 9.36743 17.50924 9.36743s10.41798-3.06411 17.50924-9.36743c7.17877-6.39087 14.70775-15.5832 21.44879-25.65101 8.22933-12.25647 15.34273-26.15567 19.45739-37.53669 0 0-19.73137 2.14704-29.63908 2.57253-19.14706.82227-38.34826.80747-57.4941-.0426-9.41058-.41782-28.15021-2.48358-28.15021-2.48358z" fill="#ffa348" stroke-width="36"/><path d="m244.96484 125.70508c-18.09161 0-33.93647 9.4832-43.52539 22.4375s-14.10547 29.04701-14.10547 45.65039c0 16.36157 4.39025 32.22164 13.68946 45.08398 9.57404 13.24255 25.5863 23.00586 43.9414 23.00586 18.23093.00002 34.2896-9.4847 43.88282-22.6582 9.23811-12.6859 13.53906-28.37363 13.53906-44.61719 0-16.55575-4.4061-32.71069-13.85156-45.85351-9.44547-13.14283-25.28057-23.04883-43.57032-23.04883z" fill="#994100"/><path d="m244.96431 143.70457c-24.64599 0-39.63122 23.69564-39.63122 50.08933 0 13.00465 3.63798 25.35429 10.27705 34.53723 6.83529 9.45438 16.85171 15.5521 29.35417 15.5521 12.55538.00001 22.54924-5.93822 29.33308-15.25386 6.53272-8.97082 10.08865-21.07366 10.08865-34.02165 0-26.39369-14.77571-50.90315-39.42173-50.90315z" fill="#ffa348" stroke-width="36"/></svg>