<svg height="500.0004" viewBox="0 0 500 500.0004" width="500" xmlns="http://www.w3.org/2000/svg"><g transform="translate(-500 -500)"><path d="m999.99997 750a249.99997 250 0 0 1 -249.99997 250 249.99997 250 0 0 1 -249.99997-250 249.99997 250 0 0 1 249.99997-250 249.99997 250 0 0 1 249.99997 250z" fill="#ffe24c"/><path d="m1000 750.00632-194.05817-2.60063 192.98367-20.4591-193.45987 15.31075 190.28547-38.19139-191.22567 33.10816 185.92267-55.58184-187.34707 50.61663 180.01317-72.50831-181.88127 67.68555 172.56127-88.82024-174.86477 84.18876 163.62798-104.35075-166.35478 99.94311 153.30278-119.00625-156.40808 114.88758 141.65488-132.65651-145.14668 128.82271 128.82258-145.14278-132.65648 141.65492 114.88758-156.42029-119.00218 153.31093 99.94719-166.3385-104.34669 163.60764 84.17649-174.84041-88.81609 172.54909 67.67739-181.89345-72.48799 180.02133 50.6167-187.35925-55.5941 185.94294 33.1-191.23373-38.1995 190.27732 15.3474-193.45586-20.4957 192.97968-2.59249-194.05413-2.5681 194.05413-20.4916-192.97968 15.327 193.45586-38.2004-190.27732 33.1171 191.23373-55.5936-185.94294 50.6162 187.35925-72.51029-180.02133 67.69979 181.89345-88.81699-172.54909 84.17729 174.84041-104.36289-163.60764 99.96869 166.3385-119.00618-153.31093 114.86968 156.42029-132.64018-141.65492 128.81968 145.14278-145.14988-128.82271 141.67318 132.65651-156.42638-114.88758 153.29788 119.00625-166.34218-99.94311 163.62828 104.35075-174.86477-84.18876 172.54667 88.82024-181.87387-67.68555 180.00617 72.50831-187.35587-50.61663 185.94077 55.58184-191.21897-33.10816 190.28097 38.19139-193.47947-15.31075 192.98647 20.4591-194.04384 2.60063 194.04384 2.58435-192.98647 20.46723 193.47947-15.31481-190.28097 38.20361 191.21897-33.12445-185.94077 55.58997 187.35587-50.60849-180.00617 72.5083 181.87387-67.68553-172.54667 88.81211 174.86477-84.17656-163.62828 104.33851 166.34218-99.95936-153.29788 119.0103 156.42638-114.87941-141.67318 132.66054 145.14988-128.83082-128.81968 145.13868 132.64018-141.66304-114.86968 156.42028 119.00618-153.28243-99.96869 166.32222 104.36289-163.59543-84.17729 174.84852 88.81699-172.55719-67.69979 181.8975 72.51029-180.02538-50.6162 187.35108 55.5936-185.93884-33.1171 191.21336 38.2004-190.26101-15.327 193.47618 20.4916-192.99594 2.5681 194.05003 2.59249-194.05003 20.4957 192.99594-15.3474-193.47618 38.1995 190.26101-33.1-191.21336 55.5941 185.93884-50.6167-187.35108 72.48799 180.02538-67.67739-181.8975 88.81609 172.55719-84.17649-174.84852 104.34669 163.59543-99.94719-166.32222 119.00218 153.28243-114.88758-156.42028 132.65648 141.66304-128.82258-145.13868 145.14668 128.83082-141.65488-132.66054 156.40808 114.87941-153.30278-119.0103 166.35478 99.95936-163.62798-104.33851 174.86477 84.17656-172.56127-88.81211 181.88127 67.68553-180.01317-72.5083 187.34707 50.60849-185.92267-55.58997 191.22567 33.12445-190.28547-38.20361 193.45987 15.31481-192.98367-20.46723z" fill="#fffbb3" fill-rule="evenodd"/></g><path d="m239.08008 137.23633-.93555.0762-.6875.0566h-.0156c-58.76967 4.87723-105.01954 54.43298-105.01954 114.2168 0 60.22232 46.94839 110.0603 106.30665 114.31836l.68554.0488 18.40821.47657 1.5-.10938c59.35634-4.26003 106.30271-54.09349 106.30271-114.31442 0-59.78384-46.24988-109.33956-105.01953-114.2168l-.002-.002-.91407-.0742zm1.14062 36.03515 17.5.4043c40.32636 3.39436 71.9043 37.06888 71.9043 78.33008 0 41.53749-32.00359 75.38464-72.72461 78.38867l-15.64648-.4043c-40.77281-2.9516-72.83203-36.82978-72.83204-78.40429 0-41.22473 31.5236-74.86963 71.79883-78.31446zm17.40821.39258c.01.00082.0194.003.0293.004l-.0254-.002z" fill="#f2c80d"/><path d="m239.60387 155.25348-.67388.0548c-49.5703 4.11378-88.50785 45.73994-88.50785 96.27837 0 50.90953 39.52061 92.7739 89.60167 96.36302l.29033.0216 17.09006.44146.61914-.0448c50.08114-3.58911 89.60171-45.45346 89.60171-96.36301 0-50.53844-38.93759-92.16458-88.50788-96.27837l-.37846-.0313z" fill="#fffdcc" stroke-width="36"/><path d="m145.20312 494.39453c49.58846 13.28481 100.20196 2.09181 142.95313-24.40625l14.47673-12.5534c82.64118-11.40097 157.12469-81.27136 182.81624-177.14191 32.62761-121.74507-24.08262-245.945362-130.79006-274.5332044-19.57515-6.19151932-40.53931-5.89363163-60.83585-5.89363163-17.73723.13386603-52.482 11.07692303-83.51667 30.68855403l-28.00586 14.933593c-76.87982 17.059731-143.560439 83.586589-167.729514 173.767579-32.627677 121.74684 23.852371 246.53004 130.631854 275.13867z" fill="#f2c80d"/><path d="m312.169 18.004732c-32.14617-.249726-63.74575 9.756121-92.24637 27.766418 16.7978-1.665869 34.09337-.553339 51.14005 4.013891 82.115 22.00079 129.60463 112.004549 105.65432 201.373959-23.9522 89.36746-110.24661 144.1801-192.3616 122.18031-16.61818-4.45209-31.89434-11.7138-45.35209-21.19178 21.87032 40.77326 56.1618 71.87536 100.3915 83.72286 95.51319 25.59111 198.1652-46.41109 228.66863-160.23766 30.50545-113.82655-22.54866-226.897761-118.06281-252.485955-12.59099-3.373722-25.25428-5.042529-37.83163-5.14108zm-92.19009 41.080915c-82.42731.525036-161.806449 67.012423-188.021156 164.830233-30.5044425 113.82753 22.390544 227.5009 117.903786 253.09105 44.23056 11.84942 89.48022 2.05916 128.81108-22.31893-16.39469 1.48142-33.25594.13178-49.87317-4.32032-82.11496-22.0008-129.440683-112.60962-105.48938-201.97807 23.94931-89.36745 110.0846-143.57503 192.20059-121.57619 17.04573 4.56722 32.58342 12.25149 46.29692 22.09154-21.81271-41.52473-56.56885-72.629733-101.34117-84.625549v-.003c-13.43047-3.59816-27.00046-5.277691-40.48849-5.191809z" fill="#fffdcc" stroke-width="36"/><path d="m270.50119 137.48918c11.70113-.12067 23.52841 1.32094 35.24636 4.46018 15.48286 4.14849 32.67635 7.82192 42.21411 20.15662 17.81816 23.04331 19.70426 73.62638 16.59281 85.7919-22.32818 83.30823-102.00869 133.35907-176.94311 113.28306-15.17529-4.06553-32.02212-7.31138-41.35629-19.32749-16.70502-21.50494-18.36676-67.87857-15.20239-80.26146 18.837-70.29084 76.26215-123.45117 139.44851-124.10281z" fill="#fff"/><path d="m132.42187 251.5508c0 60.19866 46.78818 109.78009 106.23047 114.04004l20.50977.49607c59.67472-4.27755 106.46289-53.85703 106.46289-114.05569 0-59.75988-46.09477-109.0577-104.99805-113.94628l-22.99902-.49802c-59.11132 4.90618-105.20606 54.20401-105.20606 113.96388z" fill="#f2c80d"/><path d="m238.64382 155.56515c-49.49541 4.1066-88.22115 45.41371-88.22115 95.98506 0 50.9422 39.29571 92.48645 89.31235 96.07095-12.37045-23.08794-20.24325-58.61574-20.24325-97.9281 0-37.96072 7.45703-71.42642 19.15012-94.12888z" fill="#fffdcc"/><path d="m259.40452 156.04529c49.49542 4.10661 88.22111 45.41371 88.22111 95.98506 0 50.94221-39.29571 92.48645-89.31235 96.07095 12.37045-23.08794 20.24329-58.61574 20.24329-97.9281 0-37.96072-7.45703-71.42642-19.15011-94.12889z" fill="#fffdcc"/><path d="m249.01426 141.39191c-5.19478 7.59718-11.59822 14.51278-14.55885 23.4084-15.0392 37.50995-17.3688 79.07513-12.97788 118.90913 3.331 25.59954 9.32919 51.84474 24.0733 73.47038 1.48796 1.20124 2.93712 7.60051 4.46083 4.01547 5.95798-8.97664 11.89202-18.05574 15.25194-28.39963 13.47389-37.62494 15.79493-78.62895 10.99506-118.08634-2.91964-20.50847-7.61068-41.2806-17.63958-59.5619-3.20164-4.58518-6.40323-9.17035-9.60482-13.75551z" fill="#f2c80d"/><ellipse cx="271.25302" cy="213.26073" fill="#fff" rx="24.401218" ry="24.397608"/></svg>