<svg height="500" viewBox="0 0 500 500" width="500" xmlns="http://www.w3.org/2000/svg" xmlns:xlink="http://www.w3.org/1999/xlink"><filter id="a" color-interpolation-filters="sRGB" height="1.331835" width="1.096901" x="-.048451" y="-.165917"><feGaussianBlur stdDeviation="12.805426"/></filter><filter id="b" color-interpolation-filters="sRGB" height="1.208011" width="1.062399" x="-.0312" y="-.104005"><feGaussianBlur stdDeviation="8.3245168"/></filter><g transform="translate(.000015)"><circle cx="-249.99998" cy="250" fill="#e51a1a" r="250" transform="scale(-1 1)"/><path d="m181.33938 83.856939c97.52275-31.84694 203.27597 26.159281 217.12696 131.568651 10.04116 85.89723-45.79566 162.6049-131.11288 174.6444-76.26503 6.65-147.16573-45.4981-149.44603-126.3231.16679-50.89801 30.03241-87.97493 76.60677-108.40662 44.00125-16.48183 90.46555-3.00917 112.28155 39.63622 17.95322 40.0953 3.57775 87.31302-40.4313 103.80676-21.98685 8.23292-51.6578-5.55285-56.72562-31.5612 24.48155 21.7253 69.7211 11.74379 80.1808-21.06198 5.24648-24.88185-11.48198-41.52298-24.36368-55.64156-23.21161-15.22125-63.26956-13.16738-85.32502 12.05139-41.51846 46.43224-18.48961 112.52397 35.72777 131.08081 60.66482 17.11352 118.96473-29.63961 126.96137-92.39988 2.7637-54.83226-40.99398-106.19486-96.51046-114.27807-76.21988-10.3001-138.45939 50.84936-147.743191 124.09106-9.31956 73.21828 47.315731 138.67973 111.863041 158.33924 49.05305 9.49897 98.18701 2.07129 139.64056-27.40671 82.90715-58.95602 100.11901-177.97214 43.55644-260.39974-52.71171-79.885311-158.575-103.987181-249.15842-67.061741-86.705021 39.45169-149.0660905 134.549061-117.102931 229.167621 15.77888-74.65377 50.93986-153.5943 123.407351-187.514491 9.28724-4.60517 19.44718-8.7232 30.56692-12.33106zm-160.722321 286.075591c-52.57825-113.8254-.38403-260.89182 113.777041-317.643861 10.84604-5.32012 22.21219-9.7712 34.03518-13.36069 115.76394-28.75816 246.03978 34.00351 263.68455 158.897471 10.04526 85.91695-27.72044 168.80365-107.97396 206.83173-102.24035 46.26108-224.798841-11.43986-234.690511-131.24969-7.33455-123.78718 127.307171-194.136761 222.718561-137.24102-42.54074-27.89653-94.21826-33.44528-140.80825-12.98978-71.17376 32.62266-105.080851 118.0397-80.762351 190.63139 30.697281 88.13423 123.572931 132.04164 212.817841 105.59803 82.80488-25.06359 132.16266-100.33164 140.19255-180.04986 12.12434-145.020371-132.23823-245.3588802-265.59709-221.973611 7.92036-4.10499 20.5989-8.4277792 35.61563-11.7452592 60.06317-13.23825 124.63426-3.45807 179.45368 32.4903392 109.65077 71.904621 141.09454 217.803071 65.16008 333.599141-143.00482 218.07486-377.311781 117.06797-437.622951-1.79433" fill="#b21a1a"/></g><path d="m84.951172 145.82227 5 19.33007s19.219958 75.95389 36.953128 115.65039c15.4394 34.56186 52.92578 90.15235 52.92578 90.15235l.78906 1.18554.96484 1.04688c11.37879 12.33962 24.59205 26.08696 42.99024 42.23633l-.0957-.0899c1.8577 1.79344 5.34746 4.5076 9.66992 5.77735 4.32244 1.26974 7.76695.94598 9.89258.71289l.008-.002h.008c7.31434-.80872 12.16947-3.33674 17.5918-7.11524 5.3036-3.69579 9.52664-7.9171 13.05273-12.97656 1.17134-1.67972 2.07935-3.28509 2.82617-4.79297.6726.16606 1.5114.49935 2.0293.55273 4.98227.51361 5.61316-.17603 7.17383-.48437h.002.004c6.8493-1.35592 10.94279-3.79963 16.1875-7.54883v-.002h.002c7.83673-5.60381 13.39943-11.90138 17.61133-19.00196l8.83203-1.98242c15.32409-3.43971 27.73238-12.75524 34.98047-25.27929l42.14258 40.67968c7.63264 7.36681 18.01258 11.26779 26.15039 11 8.82955-.2906 16.78249-4.36419 22.33398-10.27929l.002-.002.002-.002c4.78767-5.10503 9.30042-12.78295 9.38086-22.32812.0804-9.54518-4.78536-18.97446-11.98242-25.92188l-106.96551-103.25367c21.88038-3.6637 40.68737-10.04646 54.71485-18.85742 8.97953-5.64029 15.62899-11.5831 20.07812-19.74218 3.51715-6.44753 4.49842-18.81109 1.53711-25.73047l-.004-.01-.004-.0117c-2.94482-6.8581-7.52431-11.72765-13.76172-16.60547l-8.41211-6.57812-9.80469 4.22851c-23.283 10.04179-48.7511 12.08583-73.17383 9.44336l-40.27539-29.33398c-.87597.43455-1.74141.88905-2.625 1.30859-1.95636.92891-3.93012 1.82091-5.92187 2.67578-1.99175.85488-4.0009 1.67289-6.02539 2.45313-4.04899 1.56047-8.16202 2.97022-12.32617 4.22851-4.16415 1.2583-8.38047 2.36511-12.63868 3.31641-4.2582.9513-8.5575 1.74724-12.88867 2.38672-4.33116.63948-8.69315 1.12248-13.07617 1.44531s-8.7874.48497-13.20117.48633c-2.20689.00068-4.41634-.0385-6.62695-.11914-2.21062-.0806-4.42111-.20081-6.63282-.36328s-4.4246-.36638-6.63476-.61133c-2.21017-.24495-4.41902-.53134-6.625-.85937-2.20599-.32804-4.40826-.69766-6.60742-1.10938-2.19917-.41172-4.39428-.86532-6.58399-1.36133z" fill="#861313"/><path d="m309.88326 176.60866-51.19557-39.14266c-24.4202 89.35927-95.10323 33.55692-151.31006 23.17738 0 0 19.86333 76.77983 35.96212 112.81772 13.80503 30.90322 51.47725 87.52364 51.47725 87.52364 11.24233 12.19164 23.9116 25.38034 41.83585 41.09652l.16717.14926.16121.15324c1.61002 1.55431 2.6648 1.81402 5.09676 1.54734 2.42997-.26867 5.9376-1.66376 9.27906-3.99223 3.34145-2.32847 6.49981-5.51868 8.57753-8.49992 1.1513-1.64983 1.86078-3.20413 2.29264-4.37832l-39.47454-38.10333 12.91605-13.37876 45.33353 43.76132.002.002c.22389.21892.0915.42987 2.23693.006 2.15135-.42589 5.69679-2.02 9.21437-4.53455 5.97542-4.27284 11.74883-11.38861 14.17382-16.20178l-38.99492-37.64162 12.91605-13.37975 44.8758 43.31851c11.63241-2.61107 21.03187-10.78261 25.11266-20.22187l-49.75365-48.02621 12.91605-13.37975 105.29166 101.63975c5.0281 4.85297 9.33777 6.08288 13.05735 5.96048 3.71859-.12239 7.18841-1.82297 9.80147-4.60718 5.22413-5.57042 7.46305-13.8753-1.97522-22.98619l-145.99691-140.93245 12.91605-13.37876 23.06281 22.26277c25.68781-2.71954 47.30577-9.84426 60.69547-18.25462 7.07497-4.44399 11.72196-9.21437 13.85142-13.12103 2.12946-3.90367 2.31056-6.47793.79108-10.02835-1.11647-2.60012-3.74943-5.96247-8.31096-9.5297-28.39253 12.24548-58.87559 14.00377-87.00233 10.3031z" fill="#ff8066" stroke-width="36"/><path d="m378.39062 33.873047c-.44148 1.773807-1.00316 3.529687-1.37109 5.314453-.15775 5.47198-.69063 10.930929-1.56836 16.333984-.15844.865834-.33827 2.021316-.53264 2.994033-4.47384 23.542873-15.61749 45.693013-31.42439 63.662213-.58687.65334-1.35635 1.52677-2.0302 2.25068-2.20983 2.40404-4.51119 4.72271-6.87996 6.97003-.64495.59575-1.49275 1.39463-2.2302 2.05392-6.25597 5.65172-13.02552 10.73101-20.17214 15.20194-1.05067.65116-2.31803 1.42791-3.46929 2.0975-3.40634 1.9997-7.09255 3.96537-10.73371 5.7194-2.68368 1.28795-5.42797 2.51584-8.11654 3.61486-11.8563 4.88701-24.32564 8.26563-37.01249 10.12097-.74797.0963-1.83727.25606-2.60053.35272-2.40775.30236-4.78353.56082-7.14378.75348-8.02942.66587-16.181.71901-24.28108.16333-.88265-.0746-1.93699-.13924-2.84175-.2244-1.64546-.14236-3.2472-.3028-4.81446-.49934-1.40322-.15869-2.75876-.34585-4.10551-.53993-.67057-.10221-1.34115-.20443-2.01172-.30664 14.58584-8.07198 27.96883-18.71226 37.90147-32.19595 8.6688-11.75331 14.41407-25.72352 16.03429-40.266773.67729-5.934009.78896-11.950426.15603-17.891868-.61673-3.73724-1.23323-7.474516-1.8496-11.211815-1.71235 3.823085-3.55996 7.586924-5.19326 11.444338-3.24442 9.379075-8.48394 17.998729-14.94562 25.505338-6.40729 7.48272-14.09798 13.93628-22.20487 19.38431-9.28996 6.21816-19.37339 11.20896-29.8418 15.10937-7.64247 2.84236-15.67076 5.18653-23.697 6.9921-17.94097 4.04785-36.54169 5.7446-54.98971 5.68012-6.814481-.015-13.751459-.28157-20.473444-.71714-10.320748-.70841-20.580453-1.84509-30.826172-3.43164-10.115508-1.60401-20.307702-3.53575-30.252116-6.20997-14.294447-3.85667-28.1849874-9.19674-41.810885-14.83242-11.015752-4.60255-21.988608-9.30483-32.99364-13.93222 1.291496 5.57213 2.244079 11.30082 4.724684 16.50616 4.372916 9.66562 11.512372 17.81055 19.458246 24.72193 11.537227 9.98574 24.87850944 17.68921 38.744805 23.95355 7.117899 3.19084 14.446945 5.89511 21.889737 8.22228 20.130735 7.10414 41.622982 9.64395 62.893466 9.46327 16.878079-.1858 33.726969-2.13532 50.226559-5.68164 16.38659 10.22182 34.72491 17.22546 53.66265 20.93131 30.20454 5.87493 62.03243 3.1129 90.76553-7.90145 23.93675-9.15564 45.75208-24.10113 62.36041-43.67688 3.14231-3.68764 6.09422-7.53664 8.85008-11.52095 31.66248 11.08312 65.35997 16.08125 98.87115 15.40863 6.29649-.14053 12.59847-.41263 18.86476-1.04753 20.62548-3.6147 40.82223-10.81922 58.23254-22.59638 17.43357-11.7385 31.84685-28.05399 40.87238-47.069846 1.29993-2.693805 2.59975-5.387661 3.89941-8.081593-10.11222 3.394856-20.15339 7.007485-30.04012 11.013769-13.46788 5.33131-26.8843 10.94299-40.61027 15.44717-3.80111 1.23915-7.78571 2.44914-11.70612 3.51162-1.91582.5109-3.83832.99531-5.76654 1.45713-.95744.21541-2.17734.50052-3.2411.72846-7.80969 1.72654-15.84155 2.63036-23.85851 3.22271-8.20633.58798-16.36366.77948-24.60733.57406-5.9496-.13733-11.98593-.504-17.97264-1.05353-8.22927-.75491-16.61353-1.91004-24.74034-3.39748-6.77225-1.24065-13.50056-2.71842-20.16992-4.42774 7.00612-21.521808 8.34711-44.836794 3.93533-67.031889-.47888-2.345494-.94248-4.710275-1.63064-6.999359-1.44826-2.925613-2.8962-5.851382-4.34375-8.777343-.41276 1.547526-.82552 3.095052-1.23829 4.642578z" fill="#ff8066" filter="url(#a)" stroke-width=".814011" transform="matrix(1.1056367 0 0 1.1056367 -56.638803 -45.831616)"/><path d="m377.88086 28.763672c-4.36088 24.48375-6.74544 50.403656-20.94027 71.858598-29.03348 49.85312-90.07811 75.76564-146.44254 68.22539 35.65789-19.48726 59.43567-61.95253 48.29316-102.541102-4.97854-4.020656-11.16508 27.755604-20.83378 35.166892-38.17404 44.99557-102.71513 52.56931-158.136063 47.97345-46.693505-2.32284-90.181093-20.3738-132.295976-39.15002 4.851957 40.34921 44.5124321 62.8289 79.020061 75.56216 38.477061 14.82736 81.161678 14.95372 121.120568 6.57651 68.83358 43.65805 169.91592 25.78223 216.67382-41.9336 42.12941 13.69437 88.27591 20.22849 131.95122 10.79797 41.18798-9.695 76.4894-39.7717 91.59175-79.432732-44.98819 14.518703-88.25157 39.931332-137.08961 37.318112-20.32671-2.12777-55.39659.80234-65.54897-12.81125 6.50109-26.827637 8.18126-57.586766-6.12509-82.250953-.41275 1.54681-.82555 3.093933-1.23828 4.640575z" fill="#e51a1a" filter="url(#b)" stroke-width=".814011" transform="matrix(1.1056367 0 0 1.1056367 -56.638803 -45.831616)"/><g stroke-width=".9"><path d="m-106.23395 86.18315c7.162493 34.62802 56.19781 60.53965 88.422156 70.29666 37.21001 13.53035 83.992832 13.29955 125.555324 4.0827 3.29284 2.11008 6.6944 4.12373 10.23753 6.02352 78.49451 42.03128 178.68477 17.98952 225.85431-53.19306 41.48556 15.05162 86.99638 20.45864 130.60535 16.81601 69.30498-12.04406 97.09129-53.587473 107.25667-75.199744v-89.413043h-687.93134z" fill="#ff8066"/><path d="m341.44115 71.330903c-37.88807 60.866077-113.47648 88.304287-183.54709 72.432017 4.32684-2.04853 8.4875-4.19554 12.41018-6.45436 40.06276-23.08059 58.7601-56.88698 55.71346-94.055956-7.57761 22.375856-25.26556 42.383136-51.52203 57.513746-24.64494 14.19712-54.90949 22.32303-87.918965 25.0082-33.009472 2.68518-70.26515-.36646-104.388499-7.63621-30.65185-6.53018-57.919129-19.13304-88.422156-31.95519 7.162493 34.62802 56.19781 60.53965 88.422156 70.29666 37.21001 13.53035 83.992832 13.29955 125.555324 4.0827 3.29284 2.11008 6.6944 4.12373 10.23753 6.02352 78.49451 42.03128 178.68477 17.98952 225.85431-53.19306 41.48556 15.05162 86.99638 20.45864 130.60535 16.81601 69.30498-12.04406 97.09129-53.587473 107.25667-75.199744-34.31515 11.686672-69.90258 30.647364-107.25667 35.060034-37.94706 4.48271-77.13635.79397-114.25916-9.24763 9.74514-27.349977 10.75657-56.076589 4.02577-83.179352-.69397 24.977298-8.3598 50.54546-22.76618 73.688615z" fill="#861313"/></g></svg>