<svg height="500" viewBox="0 0 500 500" width="500" xmlns="http://www.w3.org/2000/svg"><g transform="translate(.000015)"><circle cx="-249.99998" cy="250" fill="#e51a1a" r="250" transform="scale(-1 1)"/><path d="m181.33938 83.856939c97.52275-31.84694 203.27597 26.159281 217.12696 131.568651 10.04116 85.89723-45.79566 162.6049-131.11288 174.6444-76.26503 6.65-147.16573-45.4981-149.44603-126.3231.16679-50.89801 30.03241-87.97493 76.60677-108.40662 44.00125-16.48183 90.46555-3.00917 112.28155 39.63622 17.95322 40.0953 3.57775 87.31302-40.4313 103.80676-21.98685 8.23292-51.6578-5.55285-56.72562-31.5612 24.48155 21.7253 69.7211 11.74379 80.1808-21.06198 5.24648-24.88185-11.48198-41.52298-24.36368-55.64156-23.21161-15.22125-63.26956-13.16738-85.32502 12.05139-41.51846 46.43224-18.48961 112.52397 35.72777 131.08081 60.66482 17.11352 118.96473-29.63961 126.96137-92.39988 2.7637-54.83226-40.99398-106.19486-96.51046-114.27807-76.21988-10.3001-138.45939 50.84936-147.743191 124.09106-9.31956 73.21828 47.315731 138.67973 111.863041 158.33924 49.05305 9.49897 98.18701 2.07129 139.64056-27.40671 82.90715-58.95602 100.11901-177.97214 43.55644-260.39974-52.71171-79.885311-158.575-103.987181-249.15842-67.061741-86.705021 39.45169-149.0660905 134.549061-117.102931 229.167621 15.77888-74.65377 50.93986-153.5943 123.407351-187.514491 9.28724-4.60517 19.44718-8.7232 30.56692-12.33106zm-160.722321 286.075591c-52.57825-113.8254-.38403-260.89182 113.777041-317.643861 10.84604-5.32012 22.21219-9.7712 34.03518-13.36069 115.76394-28.75816 246.03978 34.00351 263.68455 158.897471 10.04526 85.91695-27.72044 168.80365-107.97396 206.83173-102.24035 46.26108-224.798841-11.43986-234.690511-131.24969-7.33455-123.78718 127.307171-194.136761 222.718561-137.24102-42.54074-27.89653-94.21826-33.44528-140.80825-12.98978-71.17376 32.62266-105.080851 118.0397-80.762351 190.63139 30.697281 88.13423 123.572931 132.04164 212.817841 105.59803 82.80488-25.06359 132.16266-100.33164 140.19255-180.04986 12.12434-145.020371-132.23823-245.3588802-265.59709-221.973611 7.92036-4.10499 20.5989-8.4277792 35.61563-11.7452592 60.06317-13.23825 124.63426-3.45807 179.45368 32.4903392 109.65077 71.904621 141.09454 217.803071 65.16008 333.599141-143.00482 218.07486-377.311781 117.06797-437.622951-1.79433" fill="#b21a1a"/></g><path d="m237.08008 214.60156-126.87305 9.16016 23.77149-33.18164-131.66602 27.08398c-1.46961326 10.71726-2.24207024 21.51861-2.3125 32.33594.17104998 3.3306.40872776 6.65743.71289062 9.97852-2.25798542 37.40926 3.86159338 75.22266 19.90429738 109.95312 34.751153 68.48818 127.287802 130.87947 226.822262 129.88477.8532.0656 1.70672.12678 2.56055.18359 2.93641-.15787 5.86981-.36754 8.79883-.62891 2.52516-.14858 5.04927-.30989 7.58008-.54297 131.18615-8.61282 233.28727-117.35998 233.62109-248.82812-.006-3.82587-.0997-7.6511-.28125-11.47266.0691-4.94703-.0176-9.88105-.25391-14.79687l-26.04882-2.55469-72.0586-44.21094 10.25586 37.65625-56.40039-18.0957 3.11719 15.87695-49.49219-22.10742z" fill="#861313"/><path d="m204.16016 235.02539-130.937504 9.45313 19.345703-27.00391-91.58984338 18.83984c-.45131565 4.55204-.77761038 9.11561-.97851562 13.68555.17104998 3.3306.40872776 6.65743.71289062 9.97852-2.25798542 37.40926 3.86159338 75.22266 19.90429738 109.95312 34.751153 68.48818 127.287802 130.87947 226.822262 129.88477.8532.0656 1.70672.12678 2.56055.18359 2.93641-.15787 5.86981-.36754 8.79883-.62891 2.52516-.14858 5.04927-.30989 7.58008-.54297 131.18615-8.61282 233.28727-117.35998 233.62109-248.82812-.0221-2.71705-.0885-5.43356-.19922-8.14844l-32.26562-3.16601-36.87305-22.62305 7.03516 25.83008-58.94922-18.91211 3.92773 20.01367-67.03711-29.94726z" fill="#ff8066" stroke-width="36"/><g fill="#861313"><path d="m237.08008 214.60156-6.70816 35.76111 62.41574 6.82965 27.25286-3.10304-15.58663 8.0127 5.93541 3.59131 24.97753 4.12842 4.70777 6.49007c-10.88911-1.65638-22.02935-1.83222-32.87952-3.72983-4.39919-2.6528-8.79193-5.31633-13.18708-7.97582l-23.51057-1.75879-12.20057 11.56615 14.94267 15.75634 29.72092 8.09739 24.85329 5.02027-22.48205 6.00977 11.42782 9.94388-20.05052-4.59477-5.08594-1.34426c2.00384-2.94697 3.99684-5.90128 5.99114-8.85472l-27.34968-7.45068-5.49697 5.49658 26.11473 26.78439-47.30886-20.43282 7.78692-10.4182-11.24148-6.80297-35.32659 33.46579 12.07727-22.24144-28.87052-4.92261 34.65522-5.71681 10.3646-19.08956-33.44951-2.71143-18.95989 10.1372c-2.17088 8.2242-4.34061 16.44871-6.51179 24.67284-7.14643 3.7149-13.98505 8.06223-20.92284 12.16303l13.79541-17.07368 4.59269-17.39257h-17.87567l21.74035-8.11034 19.0421-10.17307 17.72404-32.83003" opacity=".9" stroke-width="36"/><path d="m44.999995 336 64.685855 4.87137 18.70309 34.78909 59.74765-.81616 22.29289 34.55876-39.21012-18.17506-53.21936 3.772-11.62807-47.80919z" fill-rule="evenodd" opacity=".9"/></g></svg>