<svg height="500" viewBox="0 0 500 500" width="500" xmlns="http://www.w3.org/2000/svg" xmlns:xlink="http://www.w3.org/1999/xlink"><radialGradient id="a" cx="1362.7291" cy="216.11429" gradientTransform="matrix(1.0000001 -.0000059 .0000001 1.0000003 -112.72927 33.893757)" gradientUnits="userSpaceOnUse" r="250"><stop offset="0" stop-color="#ff851a"/><stop offset=".42441937" stop-color="#f87000"/><stop offset=".86367416" stop-color="#f26900"/><stop offset="1" stop-color="#e55f00"/></radialGradient><filter id="b" color-interpolation-filters="sRGB" height="1.09066" width="1.091868" x="-.045934" y="-.04533"><feGaussianBlur stdDeviation="7.6717223"/></filter><filter id="c" color-interpolation-filters="sRGB" height="1.037254" width="1.03775" x="-.018875" y="-.018627"><feGaussianBlur stdDeviation="3.1524172"/></filter><g transform="translate(-1000)"><path d="m1500 250a250 250 0 0 1 -250 250 250 250 0 0 1 -250-250 250 250 0 0 1 250-250 250 250 0 0 1 250 250z" fill="url(#a)" stroke-linecap="round" stroke-linejoin="round" stroke-width="1.002"/><path d="m1309.2298 33.82789c128.5196 30.706851 207.8974 167.48127 169.5927 291.56949-31.3771 95.69524-112.8693 162.03793-212.5543 174.60263 153.1796-8.09118 266.0956-163.0043 218.7012-309.92978-36.4562-114.666588-154.6038-191.5214848-270.6514-169.822657-18.8526 4.215647-38.4387 10.498641-55.8829 18.694487-112.5353 47.459213-168.47522 196.206-99.9632 307.85319 57.6978 93.63045 168.5136 141.8489 267.9993 100.77239-134.92 68.97589-303.283-51.46877-311.488-201.30723-4.4167-117.68321 76.8182-219.674136 190.654-246.26040176-89.0147 9.18391126-152.6601 79.39239576-187.7408 157.21169176-38.45522 102.70317 5.2337 231.75078 109.038 294.08388 114.5107 66.1048 260.3537 29.37245 323.6836-83.60152 42.2104-77.69758 34.3514-177.62383-23.1776-249.88923-57.5404-72.257811-157.5429-102.460489-246.4118-71.877168-81.7429 30.682061-131.1298 101.133078-134.0478 190.176958.6692 92.68536 61.7912 168.55972 147.5399 198.52472 128.5549 37.82014 266.7725-70.33038 233.6823-209.88949-14.7104-64.39775-57.8855-122.14991-125.7378-141.121386-71.391-15.467036-138.9716 1.205-181.2869 64.641366-18.8995 29.2286-28.9384 85.21395-26.105 97.65297m0 0c13.5324-50.18833 30.6277-97.66354 72.2125-128.94941 53.182-38.308183 124.4576-37.093813 181.7444-.48035 50.1457 36.48017 75.4845 90.37713 72.3557 150.91678-6.6674 64.04407-38.4038 109.83277-91.6401 141.00844-63.9019 34.56125-135.3795 4.83213-189.1258-35.28385-78.8706-65.48566-79.7477-186.67235-8.9744-256.76104 63.7369-55.941605 167.0207-64.891564 238.7167-6.65053 78.8163 58.35315 90.3045 169.04089 40.972 246.62443-35.2274 56.41892-88.4571 87.60135-152.5581 93.63158-81.9488 2.18264-160.666-41.91503-196.8695-120.9383-36.2055-79.02511-22.5771-164.33167 26.8727-227.66064 49.4316-63.30896 138.3491-86.746364 220.4504-67.54202" fill="#c50"/></g><path d="m302.30762 25.632293c-10.86456 8.128271-20.7286 21.700938-26.26162 38.612728-5.5313 16.91266-5.57952 33.68411-1.61358 46.631659 3.96766 12.94668 11.51637 21.71987 21.50009 24.97032 9.982 3.24786 21.28827.61995 32.15369-7.50832 10.86457-8.12827 20.7286-21.72762 26.26163-38.639419 5.5313-16.91266 5.60707-33.68411 1.64027-46.63079-3.96679-12.948408-11.54133-21.69491-24.85296-23.918991s-21.18668.768914-28.82752 6.482813zm-111.07375 51.232218c-18.68105.0207-37.36383 1.89688-56.04746 6.10826-21.44843 25.679819-37.754749 51.882309-45.527329 84.787169l32.182119 15.33694c7.12335-26.46424 18.49937-46.33889 37.34747-66.30052 19.5507-6.75404 39.10657-5.37034 58.65813 1.29157-63.92337 56.08594-44.05925 103.90755-69.17914 195.00102-36.7258 15.3843-73.272509 17.67727-106.122792-.002l-18.593229 40.09295c51.161092 23.32573 108.263331 25.67466 164.323711 0 17.5376-37.4064 23.43226-76.29123 21.52592-114.43813 48.61931 61.94707 72.55613 99.43441 86.04858 185.84896h49.88847c-2.68643-12.66254-5.34704-24.44853-8.04639-35.49058-19.39227-79.33072-40.69518-120.22781-86.29311-170.83663 8.34775-31.10958 19.06594-51.37429 45.15277-63.9602 9.6152 17.02029 25.81561 31.58488 43.9921 42.1103l83.84345 1.34582.40469-35.32871-74.50724-1.82972c-6.93134-4.78397-12.85097-10.10006-17.86651-15.76919-12.81739 7.8183-27.57384 10.81732-41.46409 6.29683-15.86202-5.16369-26.81527-18.91029-31.91261-35.54569-2.99813-9.79009-4.08303-20.708149-3.17378-32.073949-21.54055-4.20535-43.09231-6.66966-64.632-6.64727z" fill="#ffa348" filter="url(#b)" opacity=".75" stroke-width="36"/><path d="m327.93589 54.13086c-10.86456 8.128271-20.7286 21.700938-26.26162 38.612728-5.5313 16.912662-5.57952 33.684112-1.61358 46.631662 3.96766 12.94668 11.51637 21.71987 21.50009 24.97032 9.982 3.24786 21.28827.61995 32.15369-7.50832 10.86457-8.12827 20.7286-21.72762 26.26163-38.63942 5.5313-16.91266 5.60707-33.684112 1.64027-46.630792-3.96679-12.948408-11.54133-21.69491-24.85296-23.918991s-21.18668.768914-28.82752 6.482813zm-111.07375 51.23222c-18.68105.0207-37.36383 1.89688-56.04746 6.10826-21.44843 25.67982-37.75475 51.88231-45.52733 84.78717l32.18212 15.33694c7.12335-26.46424 18.49937-46.33889 37.34747-66.30052 19.5507-6.75404 39.10657-5.37034 58.65813 1.29157-63.92337 56.08594-44.05925 103.90755-69.17914 195.00102-36.7258 15.3843-73.27251 17.67727-106.122797-.002l-18.593229 40.09295c51.161096 23.32573 108.263336 25.67466 164.323716 0 17.5376-37.4064 23.43226-76.29123 21.52592-114.43813 48.61931 61.94707 72.55613 99.43441 86.04858 185.84896h49.88847c-2.68643-12.66254-5.34704-24.44853-8.04639-35.49058-19.39227-79.33072-40.69518-120.22781-86.29311-170.83663 8.34775-31.10958 19.06594-51.37429 45.15277-63.9602 9.6152 17.02029 25.81561 31.58488 43.9921 42.1103l83.84345 1.34582.40469-35.32871-74.50724-1.82972c-6.93134-4.78397-12.85097-10.10006-17.86651-15.76919-12.81739 7.8183-27.57384 10.81732-41.46409 6.29683-15.86202-5.16369-26.81527-18.91029-31.91261-35.54569-2.99813-9.79009-4.08303-20.70815-3.17378-32.07395-21.54055-4.20535-43.09231-6.66966-64.632-6.64727z" fill="#ffa348" filter="url(#c)" opacity=".9" stroke-width="36"/><path d="m378.66992 58.089844c-12.03154.613357-22.65405 4.941491-30.13672 10.537109h-.002v.002c-14.37601 10.755338-25.9739 27.212034-32.58784 47.427687v.002c-.74067 2.26469-1.37439 4.52702-1.95899 6.78516-21.69861-4.11395-43.63-6.59527-65.76171-6.57227l-9.96875.01-.16211.26172c-16.54628.58877-33.18573 2.52142-49.85743 6.2793l-5.94921 1.34179-3.90821 4.67969c-22.4328 26.85839-40.65454 55.88173-49.23047 92.1875l-3.33984 14.13672 64.80469 30.88476 5.61719-20.86718c6.05712-22.50306 14.91906-38.32396 30.17187-55.25 4.06143-1.10205 8.10886-1.79893 12.17969-2.06836-17.18942 22.25394-25.7674 45.07855-30.50781 68.41992-6.14453 30.25508-7.66189 61.36147-17.53516 100.68945-30.09852 10.9089-57.34991 11.182-82.45703-2.33008l-16.822268-9.05468-34.251953 73.85937 16.484375 7.51563c55.346026 25.23375 118.639836 27.76276 179.285156-.0117l6.00195-2.74805 2.80078-5.97656c10.962-23.38113 17.58418-47.32837 20.91211-71.23633 27.8123 39.7538 42.57155 73.68194 52.58008 137.7832l2.37696 15.22236h87.51562l-4.61133-21.73633c-2.71657-12.80459-5.4149-24.7675-8.16797-36.0293-18.79186-76.87455-41.35023-121.91271-83.81836-170.92187 5.05228-16.76145 10.37347-27.3592 20.10547-35.33594 11.02505 13.55815 25.0262 24.71905 40.0586 33.42383l4.05078 2.3457 106.60547 1.71094.81445-71.17578-86.36523-2.12109c-3.22938-2.52196-6.17335-5.14894-8.78321-7.89844 10.20857-10.29128 18.44136-23.76051 23.60938-39.55664l.002-.002c6.60907-20.20809 7.00336-40.32684 1.74219-57.498042-5.18158-16.913737-19.31504-33.09515-39.09766-36.400391-4.25966-.711696-8.42699-.919296-12.4375-.714843z" fill="#994100"/><path d="m359.31348 83.041562c-10.86456 8.128271-20.7286 21.700938-26.26162 38.612728-5.5313 16.91266-5.57952 33.68411-1.61358 46.63166 3.96766 12.94668 11.51637 21.71987 21.50009 24.97032 9.982 3.24786 21.28827.61995 32.15369-7.50832 10.86457-8.12827 20.7286-21.72762 26.26163-38.63942 5.5313-16.91266 5.60707-33.68411 1.64027-46.63079-3.96679-12.948408-11.54133-21.69491-24.85296-23.918991s-21.18668.768914-28.82752 6.482813zm-111.07375 51.232218c-18.68105.0207-37.36383 1.89688-56.04746 6.10826-21.44843 25.67982-37.75475 51.88231-45.52733 84.78717l32.18212 15.33694c7.12335-26.46424 18.49937-46.33889 37.34747-66.30052 19.5507-6.75404 39.10657-5.37034 58.65813 1.29157-63.92337 56.08594-44.05925 103.90755-69.17914 195.00102-36.7258 15.3843-73.27251 17.67727-106.122793-.002l-18.593229 40.09295c51.161092 23.32573 108.263332 25.67466 164.323712 0 17.5376-37.4064 23.43226-76.29123 21.52592-114.43813 48.61931 61.94707 72.55613 99.43441 86.04858 185.84896h49.88847c-2.68643-12.66254-5.34704-24.44853-8.04639-35.49058-19.39227-79.33072-40.69518-120.22781-86.29311-170.83663 8.34775-31.10958 19.06594-51.37429 45.15277-63.9602 9.6152 17.02029 25.81561 31.58488 43.9921 42.1103l83.84345 1.34582.40469-35.32871-74.50724-1.82972c-6.93134-4.78397-12.85097-10.10006-17.86651-15.76919-12.81739 7.8183-27.57384 10.81732-41.46409 6.29683-15.86202-5.16369-26.81527-18.91029-31.91261-35.54569-2.99813-9.79009-4.08303-20.70815-3.17378-32.07395-21.54055-4.20535-43.09231-6.66966-64.632-6.64727z" fill="#ffa348" stroke-width="36"/></svg>