<svg height="500" viewBox="0 0 500 500" width="500" xmlns="http://www.w3.org/2000/svg" xmlns:xlink="http://www.w3.org/1999/xlink"><radialGradient id="a" cx="1362.7291" cy="216.11429" gradientTransform="matrix(1.0000001 -.0000059 .0000001 1.0000003 -112.72927 33.893757)" gradientUnits="userSpaceOnUse" r="250"><stop offset="0" stop-color="#ff851a"/><stop offset=".42441937" stop-color="#f87000"/><stop offset=".86367416" stop-color="#f26900"/><stop offset="1" stop-color="#e55f00"/></radialGradient><g transform="translate(-1000)"><path d="m1500 250a250 250 0 0 1 -250 250 250 250 0 0 1 -250-250 250 250 0 0 1 250-250 250 250 0 0 1 250 250z" fill="url(#a)" stroke-linecap="round" stroke-linejoin="round" stroke-width="1.002"/><path d="m1309.2298 33.82789c128.5196 30.706851 207.8974 167.48127 169.5927 291.56949-31.3771 95.69524-112.8693 162.03793-212.5543 174.60263 153.1796-8.09118 266.0956-163.0043 218.7012-309.92978-36.4562-114.666588-154.6038-191.5214848-270.6514-169.822657-18.8526 4.215647-38.4387 10.498641-55.8829 18.694487-112.5353 47.459213-168.47522 196.206-99.9632 307.85319 57.6978 93.63045 168.5136 141.8489 267.9993 100.77239-134.92 68.97589-303.283-51.46877-311.488-201.30723-4.4167-117.68321 76.8182-219.674136 190.654-246.26040176-89.0147 9.18391126-152.6601 79.39239576-187.7408 157.21169176-38.45522 102.70317 5.2337 231.75078 109.038 294.08388 114.5107 66.1048 260.3537 29.37245 323.6836-83.60152 42.2104-77.69758 34.3514-177.62383-23.1776-249.88923-57.5404-72.257811-157.5429-102.460489-246.4118-71.877168-81.7429 30.682061-131.1298 101.133078-134.0478 190.176958.6692 92.68536 61.7912 168.55972 147.5399 198.52472 128.5549 37.82014 266.7725-70.33038 233.6823-209.88949-14.7104-64.39775-57.8855-122.14991-125.7378-141.121386-71.391-15.467036-138.9716 1.205-181.2869 64.641366-18.8995 29.2286-28.9384 85.21395-26.105 97.65297m0 0c13.5324-50.18833 30.6277-97.66354 72.2125-128.94941 53.182-38.308183 124.4576-37.093813 181.7444-.48035 50.1457 36.48017 75.4845 90.37713 72.3557 150.91678-6.6674 64.04407-38.4038 109.83277-91.6401 141.00844-63.9019 34.56125-135.3795 4.83213-189.1258-35.28385-78.8706-65.48566-79.7477-186.67235-8.9744-256.76104 63.7369-55.941605 167.0207-64.891564 238.7167-6.65053 78.8163 58.35315 90.3045 169.04089 40.972 246.62443-35.2274 56.41892-88.4571 87.60135-152.5581 93.63158-81.9488 2.18264-160.666-41.91503-196.8695-120.9383-36.2055-79.02511-22.5771-164.33167 26.8727-227.66064 49.4316-63.30896 138.3491-86.746364 220.4504-67.54202" fill="#c50"/></g><g stroke-width="1.23365" transform="matrix(-.4965742 -.6342511 .66542728 -.47330902 257.79574 488.72811)"><path d="m84.634777 325.34371c19.674573-3.61178 37.675973-11.33799 62.177743-19.07715 22.10144-7.37739 31.70124-11.88407 40.63478-17.15918l19.5996-13.9668c8.08622-6.85238 15.15686-14.62421 20.69336-23.35158 28.4226-44.30926 55.59341-84.61728 110.69335-119.30667 0 0 14.1807-8.097 21.20899-12.24412 11.30644-6.67149 23.40583-12.28243 33.71679-20.330077 18.8086-14.679996 50.59424-50.407186 50.59424-50.407186 10.31285-13.607681 25.65996-39.45624 21.6792-69.215871-2.12814-16.665926-12.17332-32.177736-28.03711-40.75 0 0-11.09784-6.228526-17.15822-6.747967-15.14441-1.298044-43.97165 9.418753-43.97165 9.418753l18.21884-10.487522-37.06946 4.28166c-23.21141 5.232929-50.89953 14.770358-83.80468 28.800781l3.27929-6.714843-61.69922 34.2402339c-18.3323 10.1739366-37.25814 22.7422281-55.91015 37.1230471l.61416-8.848002-34.67471 37.336283c-23.06048 21.14837-44.847002 44.70655-63.154295 69.95508-.0038.005-.0079.0103-.01172.0156-.0027.004-.0051.008-.0078.0117-13.020832 17.90637-24.266455 36.72969-32.720703 56.2461l-42.271485-28.19727 5.0214846 47.125c.7915073 7.4272 2.1473677 14.62617 3.9277344 21.63867l-26.109375-7.98047 13.228516 40.59766c8.5329805 26.18769 25.340608 46.61903 49.417968 60.58594 16.568254 8.34165 34.625926 10.57834 51.894532 7.4082z" fill="#994100"/><g stroke-width="44.4113"><path d="m134.11635 286.85018 4.61667-57.24943 12.34248 52.17313c10.26971-3.76022 19.69145-8.27249 28.07681-13.53682l-19.50301-40.89244 30.90332 32.71397c7.53741-6.01639 13.75577-12.7848 18.46661-20.21122 28.64215-44.6527 58.6033-89.02337 117.58342-126.15561l-43.05736-15.22891 66.04645 1.97411c10.7408-5.45232 22.04689-12.12673 30.6207-18.42511l-46.8261-3.76022 70.38044-16.54499c5.46465-5.45234 10.55239-11.18668 15.16905-16.92102 16.29962-20.624848 27.32305-42.095743 24.68496-61.620719-1.22483-9.767187-7.06632-18.951539-16.58228-24.093649-2.35545-1.222074-4.8993-2.303139-7.06629-3.026982l-96.57295 28.023086 39.10026-26.40619c-24.68497 5.565137-55.87097 16.450992-95.06545 34.020652l-63.97367 66.546612 22.70642-46.485806c-21.95266 12.183138-45.22439 28.154696-67.64814 46.861826l-14.88637 60.44564-3.20339-44.7467c-22.1411 20.30522-42.963166 42.86658-60.204976 66.65001-18.11804 24.91151-32.278895 51.23309-39.373463 77.46068l-26.493972-17.67308c2.37428 22.27933 9.71384 41.64451 21.754816 59.41159l-31.675908-9.68258c7.198225 22.09133 18.965969 36.38017 38.864702 47.94286 12.171276 6.11087 23.803555 7.57246 37.325055 5.09021 17.89609-3.28529 37.769656-12.43985 53.491166-16.6529z" fill="#ffa348"/><path d="m80.236774 294.47711c52.536186-117.29437 160.772926-229.64349 266.826006-278.635499-150.91128 57.347719-253.004896 189.907489-286.156703 280.150529-6.76382 15.65193-12.944672 39.931-10.443274 60.51267 2.954178 24.30718 29.333616 68.41103 29.333616 68.41103 6.768328-9.91044 1.920946-16.94107 11.088757-24.50003 0 0-17.950315-27.75276-20.248403-43.30929-3.127921-21.17394 4.609841-50.69686 9.600001-62.62941z" fill="#994100"/></g></g></svg>