<svg height="500" viewBox="0 0 500 500" width="500" xmlns="http://www.w3.org/2000/svg"><g transform="translate(.000015)"><circle cx="-249.99998" cy="250" fill="#e51a1a" r="250" transform="scale(-1 1)"/><path d="m181.33938 83.856939c97.52275-31.84694 203.27597 26.159281 217.12696 131.568651 10.04116 85.89723-45.79566 162.6049-131.11288 174.6444-76.26503 6.65-147.16573-45.4981-149.44603-126.3231.16679-50.89801 30.03241-87.97493 76.60677-108.40662 44.00125-16.48183 90.46555-3.00917 112.28155 39.63622 17.95322 40.0953 3.57775 87.31302-40.4313 103.80676-21.98685 8.23292-51.6578-5.55285-56.72562-31.5612 24.48155 21.7253 69.7211 11.74379 80.1808-21.06198 5.24648-24.88185-11.48198-41.52298-24.36368-55.64156-23.21161-15.22125-63.26956-13.16738-85.32502 12.05139-41.51846 46.43224-18.48961 112.52397 35.72777 131.08081 60.66482 17.11352 118.96473-29.63961 126.96137-92.39988 2.7637-54.83226-40.99398-106.19486-96.51046-114.27807-76.21988-10.3001-138.45939 50.84936-147.743191 124.09106-9.31956 73.21828 47.315731 138.67973 111.863041 158.33924 49.05305 9.49897 98.18701 2.07129 139.64056-27.40671 82.90715-58.95602 100.11901-177.97214 43.55644-260.39974-52.71171-79.885311-158.575-103.987181-249.15842-67.061741-86.705021 39.45169-149.0660905 134.549061-117.102931 229.167621 15.77888-74.65377 50.93986-153.5943 123.407351-187.514491 9.28724-4.60517 19.44718-8.7232 30.56692-12.33106zm-160.722321 286.075591c-52.57825-113.8254-.38403-260.89182 113.777041-317.643861 10.84604-5.32012 22.21219-9.7712 34.03518-13.36069 115.76394-28.75816 246.03978 34.00351 263.68455 158.897471 10.04526 85.91695-27.72044 168.80365-107.97396 206.83173-102.24035 46.26108-224.798841-11.43986-234.690511-131.24969-7.33455-123.78718 127.307171-194.136761 222.718561-137.24102-42.54074-27.89653-94.21826-33.44528-140.80825-12.98978-71.17376 32.62266-105.080851 118.0397-80.762351 190.63139 30.697281 88.13423 123.572931 132.04164 212.817841 105.59803 82.80488-25.06359 132.16266-100.33164 140.19255-180.04986 12.12434-145.020371-132.23823-245.3588802-265.59709-221.973611 7.92036-4.10499 20.5989-8.4277792 35.61563-11.7452592 60.06317-13.23825 124.63426-3.45807 179.45368 32.4903392 109.65077 71.904621 141.09454 217.803071 65.16008 333.599141-143.00482 218.07486-377.311781 117.06797-437.622951-1.79433" fill="#b21a1a"/></g><g fill-rule="evenodd" transform="translate(.00081 -.00065)"><path d="m330.29997 166.653c-93.31534 0-169.69922 74.63801-169.69922 166.67382s76.38388 166.67383 169.69922 166.67383 169.69922-74.63802 169.69922-166.67383-76.38388-166.67382-169.69922-166.67382z" fill="#ff8066"/><g fill="#861313"><path d="m330.29997 166.653c-93.31534 0-169.69922 74.63801-169.69922 166.67382s76.38388 166.67383 169.69922 166.67383 169.69922-74.63802 169.69922-166.67383-76.38388-166.67382-169.69922-166.67382zm0 35.99999c74.24766 0 133.69922 58.49 133.69922 130.67383s-59.45156 130.67383-133.69922 130.67383-133.69922-58.49-133.69922-130.67383 59.45156-130.67383 133.69922-130.67383z"/><path d="m330.29997 227.34245c-59.11523 0-107.77539 47.46629-107.77539 105.98438s48.66016 105.98437 107.77539 105.98437 107.77539-47.46628 107.77539-105.98437-48.66016-105.98438-107.77539-105.98438zm0 36c40.04756 0 71.77539 31.31827 71.77539 69.98438s-31.72783 69.98437-71.77539 69.98437-71.77539-31.31826-71.77539-69.98437 31.72783-69.98437 71.77539-69.98438z"/><path d="m330.29997 297.7946c-19.41802 0-36.05859 15.83049-36.05859 35.5332s16.64057 35.53125 36.05859 35.53125 36.05859-15.82854 36.05859-35.53125-16.64057-35.5332-36.05859-35.5332z"/><path d="m330.29997 166.653c-93.31534 0-169.69922 74.63801-169.69922 166.67382s76.38388 166.67383 169.69922 166.67383 169.69922-74.63802 169.69922-166.67383-76.38388-166.67382-169.69922-166.67382zm0 35.99999c74.24766 0 133.69922 58.49 133.69922 130.67383s-59.45156 130.67383-133.69922 130.67383-133.69922-58.49-133.69922-130.67383 59.45156-130.67383 133.69922-130.67383z"/></g></g><path d="m359.11061 342.05065c-30.52446-68.68705-90.29593-203.67367-124.28639-282.312369-6.56906-15.197862-13.13938-30.654402-19.37899-45.734041 0 0-19.98804 54.944396-14.13664 66.060213-3.14957-17.259927-4.95601-34.568194-5.52734-51.734375v-28.330078c-16.96971 3.4768389-30.644 8.4070666-35.09961 25.826172-.39204-8.37446-.42793-18.1021421.24023-25.826172h-160.92187v127.23405c9.0934626 7.57566 12.337674 8.92754 24.763672 17.57259-4.118727-.64487-13.076811-2.30923-24.763672-10.43848.09368494 8.20549.8511653 26.84946 4.5483397 34.68214 17.9001623 25.55737 40.4767773 41.85043 69.4770513 54.43603-27.74029 4.6937-49.123371 20.80651-73.3676236 34.57102 17.7697096 2.1831 39.6387796 5.18608 53.1176236 6.51101 96.017189 11.12648 188.181039 30.91401 273.466799 86.91992 14.83483 5.22025 17.87685 5.92036 31.86842-9.43763z" fill="#861313"/><path d="m0 .00070459v103.49229541c39.314983 32.75521 83.952475 58.74207 130.08934 82.46931-48.545171-6.48932-78.25148-7.2897-112.537065-27.98435 17.920666 25.58665 42.655354 41.39913 75.172405 53.67176 3.763946-.1832 7.5293-.27127 11.29818-.25365 41.72258.20433 83.82917 12.70243 128.65408 35.93926-51.4636-7.26437-102.92932-11.55887-154.394339-6.35826l-22.4343 5.71145c97.134039 11.2559 192.634109 31.54471 281.274259 89.7534l-118.77003-269.443406c3.16081 62.053666 19.07056 120.422306 42.12773 177.807326-56.28234-65.29058-80.23645-142.18301-82.68914-215.876585-6.77468 38.173539-4.77011 82.479875 3.88514 127.342835-30.0848-55.73345-42.65618-110.398738-38.6879-156.27209h-74.293886c14.505493 71.526241 66.912556 149.79334 135.028556 213.69093-93.29681-55.22614-141.081025-135.759922-172.916029-213.69022541z" fill="#ff8066" stroke-width="36"/></svg>