<svg height="500" viewBox="0 0 500 500" width="500" xmlns="http://www.w3.org/2000/svg"><g transform="translate(.000015)"><circle cx="-249.99998" cy="250" fill="#e51a1a" r="250" transform="scale(-1 1)"/><path d="m181.33938 83.856939c97.52275-31.84694 203.27597 26.159281 217.12696 131.568651 10.04116 85.89723-45.79566 162.6049-131.11288 174.6444-76.26503 6.65-147.16573-45.4981-149.44603-126.3231.16679-50.89801 30.03241-87.97493 76.60677-108.40662 44.00125-16.48183 90.46555-3.00917 112.28155 39.63622 17.95322 40.0953 3.57775 87.31302-40.4313 103.80676-21.98685 8.23292-51.6578-5.55285-56.72562-31.5612 24.48155 21.7253 69.7211 11.74379 80.1808-21.06198 5.24648-24.88185-11.48198-41.52298-24.36368-55.64156-23.21161-15.22125-63.26956-13.16738-85.32502 12.05139-41.51846 46.43224-18.48961 112.52397 35.72777 131.08081 60.66482 17.11352 118.96473-29.63961 126.96137-92.39988 2.7637-54.83226-40.99398-106.19486-96.51046-114.27807-76.21988-10.3001-138.45939 50.84936-147.743191 124.09106-9.31956 73.21828 47.315731 138.67973 111.863041 158.33924 49.05305 9.49897 98.18701 2.07129 139.64056-27.40671 82.90715-58.95602 100.11901-177.97214 43.55644-260.39974-52.71171-79.885311-158.575-103.987181-249.15842-67.061741-86.705021 39.45169-149.0660905 134.549061-117.102931 229.167621 15.77888-74.65377 50.93986-153.5943 123.407351-187.514491 9.28724-4.60517 19.44718-8.7232 30.56692-12.33106zm-160.722321 286.075591c-52.57825-113.8254-.38403-260.89182 113.777041-317.643861 10.84604-5.32012 22.21219-9.7712 34.03518-13.36069 115.76394-28.75816 246.03978 34.00351 263.68455 158.897471 10.04526 85.91695-27.72044 168.80365-107.97396 206.83173-102.24035 46.26108-224.798841-11.43986-234.690511-131.24969-7.33455-123.78718 127.307171-194.136761 222.718561-137.24102-42.54074-27.89653-94.21826-33.44528-140.80825-12.98978-71.17376 32.62266-105.080851 118.0397-80.762351 190.63139 30.697281 88.13423 123.572931 132.04164 212.817841 105.59803 82.80488-25.06359 132.16266-100.33164 140.19255-180.04986 12.12434-145.020371-132.23823-245.3588802-265.59709-221.973611 7.92036-4.10499 20.5989-8.4277792 35.61563-11.7452592 60.06317-13.23825 124.63426-3.45807 179.45368 32.4903392 109.65077 71.904621 141.09454 217.803071 65.16008 333.599141-143.00482 218.07486-377.311781 117.06797-437.622951-1.79433" fill="#b21a1a"/></g><g fill="#ff8066"><path d="m389.12321 120.29688c-47.42681-25.339091 21.72106-105.615085-104.48505-109.971385 68.77634 21.42515 1.28795 98.903185 104.48442 109.970665z" opacity=".75"/><path d="m197.08117 451.43683c-46.08836-.6057-83.156-57.42331-93.31756-125.90397-28.532322 85.04211 46.3953 169.90784 93.31756 125.90397z" opacity=".75"/><path d="m323.52198 444.23778c-35.78035-28.14354-37.04143-66.59344 5.3078-50.11873-67.34898-43.87665-120.87465 1.81855-5.3078 50.11873z" opacity=".75"/><path d="m491.65971 318.71906c3.95848-4.70541 6.86498-10.9858 8.34029-18.93585-28.99595 22.16674-76.34409-2.87817-111.89358-50.00886 15.88823 67.65741 79.35995 97.70623 103.55329 68.94471z" opacity=".75"/><path d="m211.36523 3.2089844a250 249.99998 0 0 0 -185.189449 136.3749956c7.451068 36.05039-14.401247 63.7773-22.9082029 71.51368a250 249.99998 0 0 0 -.1992187.92187c43.7879846-19.27661 78.1959776 39.10558 49.9355466 48.75781 36.694144 20.32503 41.500447-31.89915 21.660156-57.16015 75.086748 62.38887 14.421722 140.95252 97.082028 217.26172-30.95086-63.01987 5.01501-100.38685 23.90821-106.9961-23.25584 73.40861 21.24589 156.74406 92.15039 128.94531-33.04136-4.0491-89.24009-78.04605-33.09766-85.46484 20.83342-2.75241 83.4013-7.18821 134.07031 84.54688l.00196-.00196c26.264-85.87539-103.51243-103.96855-74.92578-192.24218 13.68643 47.19423 55.9696 107.97438 133.67382 93.71289l-.00195-.00196c-95.64394-25.11137-39.32597-101.66169-157.13477-162.16406-1.90695-.87748-3.79727-1.80277-5.6582-2.83203 1.93128.93963 3.81649 1.8825 5.66016 2.83008 36.75552 16.88745 81.72524 8.01335 124.33789 71.32812-29.88928-167.351151-154.09261-84.93469-214.99414-185.222654 46.39014 23.203197 85.78567-41.915257 102.61523 20.746094 10.11608-97.4952023-96.46715-14.038403-90.98633-84.8535156z" opacity=".75"/></g><path d="m-76.599535-1.2056489 5 19.3300699s19.219959 75.953891 36.953129 115.650389c15.439399 34.56186 52.925779 90.15235 52.925779 90.15235l.78906 1.18554.96484 1.04688c11.37879 12.33962 24.59205 26.08696 42.99024 42.23633l-.0957-.0899c1.8577 1.79344 5.34746 4.5076 9.66992 5.77735 4.32244 1.26974 7.76695.94598 9.89258.71289l.008-.002h.008c7.31434-.80872 12.16947-3.33674 17.591797-7.11524 5.3036-3.69579 9.52664-7.9171 13.05273-12.97656 1.17134-1.67972 2.07935-3.28509 2.82617-4.79297.6726.16606 1.5114.49935 2.0293.55273 4.98227.51361 5.61316-.17603 7.17383-.48437h.002.004c6.8493-1.35592 10.94279-3.79963 16.1875-7.54883v-.002h.002c7.83673-5.60381 13.39943-11.90138 17.61133-19.00196l8.83203-1.98242c15.32409-3.43971 27.73238-12.75524 34.98047-25.27929l42.14258 40.67968c7.63264 7.36681 18.01258 11.26779 26.15039 11 8.82955-.2906 16.78249-4.36419 22.33398-10.27929l.002-.002.002-.002c4.78767-5.10503 9.30042-12.78295 9.38086-22.32812.0804-9.54518-4.78536-18.97446-11.98242-25.92188l-106.96551-103.253668c21.88038-3.6637 40.68737-10.046461 54.71485-18.857421 8.97953-5.64029 15.62899-11.5831 20.07812-19.74218 3.51715-6.44753 4.49842-18.81109 1.53711-25.73047l-.004-.01-.004-.0117c-2.94482-6.8581-7.52431-11.7276499-13.76172-16.6054699l-8.41211-6.57812-9.80469 4.22851c-23.283 10.0417899-48.7511 12.0858299-73.17383 9.4433599l-40.27539-29.33398c-.87597.43455-1.74141.88905-2.625 1.30859-1.95636.92891-3.93012 1.82091-5.92187 2.67578-1.99175.85488-4.0009 1.67289-6.02539 2.45313-4.048987 1.5604701-8.162017 2.9702201-12.326167 4.2285101-4.16415 1.2583-8.38047 2.36511-12.63868 3.31641-4.2582.9513-8.5575 1.74724-12.88867 2.38672003-4.33116.63948-8.69315 1.12248-13.07617 1.44531s-8.7874.48496997-13.20117.48632997c-2.20689.00068-4.41634-.0385-6.62695-.11914-2.21062-.0806-4.42111-.20080997-6.63282-.36327997s-4.4246-.36638-6.63476-.61133c-2.21017-.24495-4.41902-.53134-6.6249997-.85937-2.20599-.32804003-4.40826-.69766003-6.60742-1.10938003-2.19917004-.41172-4.39428-.86532-6.58399-1.36133z" fill="#861313"/><path d="m148.33255 29.580741-51.195567-39.1426599c-137.98284-66.7893591-101.2932891 25.0455879-151.310059 23.1773799 0 0 19.86333 76.779831 35.962119 112.817719 13.8050303 30.90322 51.47725 87.52364 51.47725 87.52364 11.24233 12.19164 23.9116 25.38034 41.83585 41.09652l.16717.14926.16121.15324c1.61002 1.55431 2.6648 1.81402 5.09676 1.54734 2.42997-.26867 5.9376-1.66376 9.27906-3.99223 3.34145-2.32847 6.49981-5.51868 8.57753-8.49992 1.1513-1.64983 1.860777-3.20413 2.292637-4.37832l-39.474537-38.10333 12.91605-13.37876 45.333527 43.76132.002.002c.22389.21892.0915.42987 2.23693.006 2.15135-.42589 5.69679-2.02 9.21437-4.53455 5.97542-4.27284 11.74883-11.38861 14.17382-16.20178l-38.99492-37.64162 12.91605-13.37975 44.8758 43.31851c11.63241-2.61107 21.03187-10.78261 25.11266-20.22187l-49.75365-48.02621 12.91605-13.37975 105.29166 101.63975c5.0281 4.85297 9.33777 6.08288 13.05735 5.96048 3.71859-.12239 7.18841-1.82297 9.80147-4.60718 5.22413-5.57042 7.46305-13.8753-1.97522-22.98619l-145.99691-140.932449 12.91605-13.37876 23.06281 22.26277c25.68781-2.71954 47.30577-9.84426 60.69547-18.25462 7.07497-4.44399 11.72196-9.21437 13.85142-13.12103 2.12946-3.90367 2.31056-6.47793.79108-10.02835-1.11647-2.60012-3.74943-5.96247-8.31096-9.5297-28.39253 12.24548-58.87559 14.00377-87.00233 10.3031z" fill="#ff8066" stroke-width="36"/></svg>