<svg height="500.0004" viewBox="0 0 500 500.0004" width="500" xmlns="http://www.w3.org/2000/svg"><g transform="translate(-500 -500)"><path d="m999.99997 750a249.99997 250 0 0 1 -249.99997 250 249.99997 250 0 0 1 -249.99997-250 249.99997 250 0 0 1 249.99997-250 249.99997 250 0 0 1 249.99997 250z" fill="#ffe24c"/><path d="m1000 750.00632-194.05817-2.60063 192.98367-20.4591-193.45987 15.31075 190.28547-38.19139-191.22567 33.10816 185.92267-55.58184-187.34707 50.61663 180.01317-72.50831-181.88127 67.68555 172.56127-88.82024-174.86477 84.18876 163.62798-104.35075-166.35478 99.94311 153.30278-119.00625-156.40808 114.88758 141.65488-132.65651-145.14668 128.82271 128.82258-145.14278-132.65648 141.65492 114.88758-156.42029-119.00218 153.31093 99.94719-166.3385-104.34669 163.60764 84.17649-174.84041-88.81609 172.54909 67.67739-181.89345-72.48799 180.02133 50.6167-187.35925-55.5941 185.94294 33.1-191.23373-38.1995 190.27732 15.3474-193.45586-20.4957 192.97968-2.59249-194.05413-2.5681 194.05413-20.4916-192.97968 15.327 193.45586-38.2004-190.27732 33.1171 191.23373-55.5936-185.94294 50.6162 187.35925-72.51029-180.02133 67.69979 181.89345-88.81699-172.54909 84.17729 174.84041-104.36289-163.60764 99.96869 166.3385-119.00618-153.31093 114.86968 156.42029-132.64018-141.65492 128.81968 145.14278-145.14988-128.82271 141.67318 132.65651-156.42638-114.88758 153.29788 119.00625-166.34218-99.94311 163.62828 104.35075-174.86477-84.18876 172.54667 88.82024-181.87387-67.68555 180.00617 72.50831-187.35587-50.61663 185.94077 55.58184-191.21897-33.10816 190.28097 38.19139-193.47947-15.31075 192.98647 20.4591-194.04384 2.60063 194.04384 2.58435-192.98647 20.46723 193.47947-15.31481-190.28097 38.20361 191.21897-33.12445-185.94077 55.58997 187.35587-50.60849-180.00617 72.5083 181.87387-67.68553-172.54667 88.81211 174.86477-84.17656-163.62828 104.33851 166.34218-99.95936-153.29788 119.0103 156.42638-114.87941-141.67318 132.66054 145.14988-128.83082-128.81968 145.13868 132.64018-141.66304-114.86968 156.42028 119.00618-153.28243-99.96869 166.32222 104.36289-163.59543-84.17729 174.84852 88.81699-172.55719-67.69979 181.8975 72.51029-180.02538-50.6162 187.35108 55.5936-185.93884-33.1171 191.21336 38.2004-190.26101-15.327 193.47618 20.4916-192.99594 2.5681 194.05003 2.59249-194.05003 20.4957 192.99594-15.3474-193.47618 38.1995 190.26101-33.1-191.21336 55.5941 185.93884-50.6167-187.35108 72.48799 180.02538-67.67739-181.8975 88.81609 172.55719-84.17649-174.84852 104.34669 163.59543-99.94719-166.32222 119.00218 153.28243-114.88758-156.42028 132.65648 141.66304-128.82258-145.13868 145.14668 128.83082-141.65488-132.66054 156.40808 114.87941-153.30278-119.0103 166.35478 99.95936-163.62798-104.33851 174.86477 84.17656-172.56127-88.81211 181.88127 67.68553-180.01317-72.5083 187.34707 50.60849-185.92267-55.58997 191.22567 33.12445-190.28547-38.20361 193.45987 15.31481-192.98367-20.46723z" fill="#fffbb3" fill-rule="evenodd"/></g><path d="m250.0332 0-31.36914 71.779297c-29.80361 4.925389-57.18625 17.067555-80.25 34.619143l-15.21875-15.218753-36.628904 36.632813 15.482424 15.48242c-16.439537 22.25999-27.91646 48.39435-32.83008 76.77149l-69.21679687 30.25586 68.91601587 30.11718c4.760808 29.30743 16.50389 56.28808 33.503911 79.14258l-15.853521 15.85742 36.626951 36.63086 15.7168-15.71679c23.24668 17.56451 50.84642 29.64904 80.86523 34.41796l30.25782 69.22852 30.5039-69.79492c27.98879-5.01137 53.76264-16.41599 75.75586-32.66016l14.52539 14.52539 36.62891-36.63281-14.25781-14.25781c17.35258-22.80262 29.42029-49.82353 34.45312-79.23633l72.35352-31.625-72.66407-31.75977c-5.17943-28.48077-16.97681-54.65678-33.76171-76.86914l13.875-13.875-36.62305-36.636716-14.01758 14.017576c-21.8121-16.224704-47.3735-27.669449-75.14258-32.82031z" fill="#f2c80d"/><path d="m231.16461 88.121709c-36.04548 3.77993-68.63745 19.264961-93.89787 42.585531l-14.07115-14.07115-11.17405 11.17574 14.1591 14.15909c-22.05721 24.66426-36.771875 56.02415-40.688796 90.62869l-40.542502 17.72085 40.350546 17.63376c3.62349 35.5415 18.620602 67.74701 41.296792 92.90849l-14.57429 14.57599 11.17405 11.17491 14.52778-14.52779c25.44984 23.31718 58.26505 38.71596 94.52363 42.27434l17.78682 40.69556 17.94748-41.06172c34.21386-4.08435 65.20929-18.73307 89.63762-40.57971l13.20016 13.20016 11.17405-11.17575-13.11052-13.11052c23.10746-25.03041 38.52146-57.25876 42.47982-92.91271l43.68991-19.09669-43.89371-19.18462c-4.24502-34.71533-19.36812-66.09974-41.84983-90.63716l12.68433-12.68433-11.17236-11.17658-12.73084 12.73168c-24.2406-21.84495-55.01786-36.563007-89.01524-40.852002l-19.04172-43.568561zm.72977 15.809751 18.14029 41.50144 17.97792-41.13106c30.12359 3.97273 57.37545 16.96656 78.95404 36.18923l-15.78269 15.78269c3.98795 3.45014 7.75435 7.15143 11.28229 11.06751l15.73364-15.7328c19.91271 21.94727 33.31497 49.9103 37.20399 80.8626l-40.83256 17.84686 41.02959 17.9331c-3.64125 31.82415-17.32849 60.56093-37.82721 82.96399l-14.75611-14.75779c-3.5051 3.94059-7.25121 7.65879-11.21548 11.13515l14.69691 14.69691c-21.27162 18.78634-47.98905 31.55269-77.50972 35.64466l-18.95292-43.36519-19.12628 43.75756c-31.43431-3.68692-59.83791-17.18304-82.071-37.35536l14.52102-14.51933c-3.91692-3.53047-7.61483-7.29772-11.06581-11.28482l-14.5743 14.57345c-19.48059-21.86779-32.5649-49.56191-36.34314-80.16497l44.05691-19.25482-43.84719-19.16433c4.00825-29.73883 16.81265-56.65667 35.71738-78.06191l15.53746 15.53746c3.4772-3.96596 7.19624-7.70869 11.13684-11.21294l-15.60173-15.60173c22.53329-20.61627 51.47471-34.34071 83.51871-37.88556zm19.07301 58.51704c-49.76486 0-89.93613 40.17043-89.93613 89.93444 0 49.76232 40.17212 89.93528 89.93613 89.93528 49.76485 0 89.93697-40.17296 89.93697-89.93613 0-49.76486-40.17212-89.93613-89.93613-89.93613zm-1.34962 34.86923c5.62593 0 11.0582.8583 16.17675 2.44384-7.80001 1.54495-14.32822 6.60684-17.87476 13.46569-20.61457 1.0528-37.15832 18.24684-37.15832 39.11002 0 21.53461 17.62615 39.16244 39.16076 39.16244 21.53545 0 39.16329-17.62783 39.16329-39.16245 0-2.82184-.30865-5.57265-.88367-8.23044 5.17013-4.71434 8.41393-11.50553 8.41393-19.05524 0-.41436-.0127-.82618-.0321-1.23461 5.05682 8.3057 7.97422 18.04557 7.97422 28.44165 0 30.24959-24.69217 54.94006-54.94007 54.94006-30.24959 0-54.94006-24.69046-54.94006-54.94006 0-30.24959 24.69047-54.94006 54.94006-54.94006zm-4.19766 32.09136c2.07177 12.16427 12.65727 21.42806 25.41094 21.42806.80588 0 1.6033-.0423 2.39057-.11501.0364.53275.0592 1.07141.0592 1.61514 0 12.99383-10.36394 23.35862-23.35777 23.35862-12.99382 0-23.35608-10.36479-23.35608-23.35862 0-11.45142 8.05032-20.85557 18.85399-22.92735z" fill="#fffdcc" stroke-width="36"/></svg>