<svg height="500" viewBox="0 0 500 500" width="500" xmlns="http://www.w3.org/2000/svg" xmlns:xlink="http://www.w3.org/1999/xlink"><filter id="a" color-interpolation-filters="sRGB" height="1.13917" width="1.162658" x="-.081329" y="-.069585"><feGaussianBlur stdDeviation="6.3070384"/></filter><filter id="b" color-interpolation-filters="sRGB" height="1.005567" width="1.006506" x="-.003253" y="-.002783"><feGaussianBlur stdDeviation=".25228154"/></filter><g transform="translate(0 -1000)"><path d="m0 1250a250 250 0 0 1 -250 250 250 250 0 0 1 -250-250 250 250 0 0 1 250-250 250 250 0 0 1 250 250z" fill="#9db3df" stroke-linecap="round" stroke-linejoin="round" stroke-width="9.39799" transform="scale(-1 1)"/><path d="m263.85417 1289.4759c11.1612 3.7204 14.8816-7.4408 18.46913-11.0283 7.04219-8.7696 15.28021-26.0428 14.48299-54.6102-10.49685-61.1209-92.21278-68.5617-125.69638-20.1965-11.1612 18.602-11.1612 33.4836-14.8816 52.0856 0 29.7632 14.8816 52.0856 40.9244 70.6876 11.1612 11.1612 26.0428 11.1612 37.204 14.8816 70.6876 11.1612 130.214-48.3652 119.0528-119.0528-7.4408-29.7632-22.3224-59.5264-48.3652-78.1284-44.6448-29.7632-96.7304-29.7632-137.6548-3.7204-18.602 11.1612-29.7632 22.3224-40.9244 40.9244-63.2468 100.4508 26.0428 219.3708 133.9344 208.2096 22.3224 0 40.9244-11.1612 63.2468-18.602 22.3224-14.8816 44.6448-37.204 59.5264-59.5264 40.92441-78.1284 7.4408-171.0056-66.9672-215.6504-26.0428-11.1612-52.0856-22.3224-81.8488-22.3224-37.204 0-70.6876 11.1612-100.4508 33.4836-33.4836 26.0428-52.0856 59.5264-66.9672 96.7304-7.4408 14.8816-3.7204 33.4836-7.4408 52.0856 0 119.0528 126.4936 215.6504 241.69313 174.726 29.7632-14.8816 63.2468-26.0428 89.2896-52.0856 22.3224-29.7632 44.6448-59.5264 52.0856-96.7304 3.7204-26.0428 7.4408-44.6448 3.7204-70.6876-18.602-152.5364-189.60753-234.25236-319.82153-156.2568-22.3224 14.8816-44.6448 29.7632-59.5264 52.0856-29.7632 37.204-44.6448 74.408-52.0856 119.0528-18.602 137.6548 96.7304 260.2951 230.53193 260.2951 29.7632 0 63.2468-11.1612 93.01-18.602 37.204-14.8816 70.6876-33.4836 96.7304-66.9672 18.602-26.0428 29.7632-52.0856 44.6448-81.8488 11.1612-33.4836 18.602-70.6876 14.8816-104.1712-7.4408-44.6448-18.602-85.5692-44.6448-119.0528 96.59753 111.7449 44.51193 297.7649-81.8488 364.7321-22.3224 14.8816-48.3652 18.602-70.6876 26.0428-89.2896 22.3224-178.44633-14.8816-234.25233-78.1284-14.8816-14.8816-18.602-33.4836-29.7632-52.0856-48.3652-70.6876-33.4836-152.5364 3.7204-226.8116 52.0856-89.2896 159.9772-130.21396 264.01553-100.4508 63.2468 18.602 115.3324 63.2468 141.3752 126.4936 7.4408 29.7632 14.8816 59.5264 14.8816 89.2896 0 37.204-11.1612 70.6876-29.7632 104.1712-14.8816 22.3224-26.0428 40.9244-48.3652 55.806-18.602 11.1612-33.4836 18.602-52.0856 29.7632-33.4836 11.1612-70.6876 18.602-111.612 14.8816-122.7732-18.602-200.76873-148.816-156.2568-267.7359 14.8816-29.7632 29.7632-59.5264 55.806-78.1284 55.806-40.9244 119.0528-52.0856 185.88713-29.7632 100.4508 40.9244 148.816 156.2568 89.2896 245.4135-11.1612 18.602-18.602 33.4836-33.4836 48.3652-55.806 40.9244-130.214 55.806-189.60753 18.602-14.8816-14.8816-33.4836-18.602-44.6448-37.204-44.6448-66.9672-44.6448-156.2568 18.602-211.9299 63.2468-55.806 174.72593-40.9244 215.65033 37.204 7.4408 22.3224 18.602 40.9244 14.8816 66.9672 0 22.3224-11.1612 40.9244-14.8816 59.5264-26.0428 55.806-96.7304 74.408-152.5364 55.806-18.602-11.1612-40.9244-18.602-52.0856-37.204-48.3652-70.6876-7.4408-178.4463 85.5692-174.7259 22.3224 0 44.6448 14.8816 63.2468 26.0428 29.7632 22.3224 33.4836 55.806 29.7632 89.2896-11.1612 48.3652-63.2468 70.6876-111.612 59.5264-22.3224-7.4408-37.204-29.7632-44.6448-52.0856-3.7204-26.0428 3.7204-48.3652 22.3224-66.9672 33.4836-33.4836 89.2896-7.4408 96.7304 37.204-3.7204 18.602-14.8816 37.204-29.7632 52.0856" fill="#c6d2ec" opacity=".9"/><path d="m262.92407 1285.7555c10.2311 3.4546 13.68576-6.7765 17.00754-10.0982 6.37783-7.8395 13.9515-23.6512 13.15428-49.9597-9.56675-56.2046-84.77198-62.9811-115.59815-18.602-10.2311 17.1404-10.2311 30.6933-13.68576 47.8337 0 27.3715 13.68576 47.8337 37.60262 64.9741 10.2311 10.2311 23.91686 10.2311 34.14796 13.6858 64.97413 10.2311 119.58428-44.3791 109.35318-109.3532-6.77644-27.3715-20.4622-54.743-44.37905-71.7506-41.05728-27.3715-88.89099-27.3715-126.49361-3.4546-17.14041 10.2311-27.37151 20.4622-37.60261 37.6026-58.06482 92.3456 23.91686 201.6988 123.03894 191.3349 20.4622 0 37.60262-10.2311 58.06482-17.1405 20.4622-13.6857 41.05727-34.1479 54.74303-54.743 37.60261-71.7506 6.77644-157.1869-61.51947-198.2442-23.91686-10.2311-47.83372-20.4622-75.20523-20.4622-34.14796 0-64.97413 10.2311-92.21278 30.8262-30.6933 23.9169-47.83371 54.743-61.51947 88.891-6.77644 13.6858-3.45466 30.6933-6.77644 47.8337 0 109.3532 116.2625 198.2442 222.16103 160.6416 27.37151-13.6858 58.06481-23.9169 81.98167-47.8337 20.4622-27.3716 41.05727-54.7431 47.83372-88.891 3.45465-23.9169 6.77644-41.0573 3.45465-64.9742-17.14041-140.0464-174.32731-215.25168-293.9116-143.5011-20.4622 13.6858-41.05727 27.3715-54.74303 47.8337-27.37151 34.148-41.05727 68.2959-47.83371 109.3532-17.14042 126.4936 88.89098 239.3014 211.92993 239.3014 27.37151 0 58.06481-10.2311 85.43633-17.1404 34.14795-13.6857 64.97413-30.8261 88.89098-61.5194 17.14042-23.9169 27.37152-47.8338 41.05728-75.2053 10.2311-30.6933 17.14041-64.9741 13.68575-95.6674-6.77644-41.0573-17.14041-78.6599-41.05727-109.3532 88.89099 102.5768 41.05727 273.4494-75.20523 334.9689-20.4622 13.6857-44.37906 17.1404-64.97413 23.9168-81.98167 20.4622-164.09621-13.6857-215.25171-71.7505-13.68576-13.6858-17.14042-30.6933-27.37152-47.8337-44.37906-64.9742-30.6933-140.1794 3.45466-208.4753 47.83371-81.9817 146.9558-119.5843 242.62323-92.2128 58.06481 17.1404 105.89853 58.0648 129.81539 116.2625 6.77644 27.3715 13.68575 54.743 13.68575 81.9817 0 34.1479-10.2311 64.9741-27.37151 95.6674-13.68576 20.4622-23.91686 37.6026-44.37906 51.2884-17.14041 10.2311-30.6933 17.1404-47.83371 27.3715-30.82617 10.2311-64.97413 17.1404-102.57675 13.6858-112.80784-17.1405-184.55841-136.7247-143.50114-246.0779 13.68576-27.3715 27.37151-54.7431 51.28837-71.7506 51.28837-37.6026 109.35319-47.8337 170.87266-27.3715 92.21277 37.6026 136.7247 143.5011 81.98167 225.6157-10.2311 17.1404-17.14041 30.6933-30.82617 44.379-51.28837 37.6026-119.58429 51.2884-174.32732 17.1404-13.68575-13.6857-30.82617-17.1404-41.05727-34.1479-41.05727-61.5195-41.05727-143.5012 17.14042-194.7895 58.19768-51.5541 160.77443-37.8684 198.37704 33.8822 6.77644 20.4622 17.14042 37.6026 13.68576 61.5195 0 20.4622-10.2311 37.6026-13.68576 54.743-23.91686 51.2884-88.89099 68.2959-140.17936 51.2884-17.14041-10.2311-37.60261-17.1405-47.83371-34.148-44.37906-64.9741-6.77644-164.0962 78.65988-160.6416 20.4622 0 41.05728 13.6858 58.06482 23.9169 27.37151 20.4622 30.6933 51.2884 27.37151 81.9817-10.2311 44.379-58.06481 64.9741-102.57674 54.743-20.4622-6.7764-34.14796-27.3715-41.05727-47.8337-3.45466-23.9169 3.45466-44.3791 20.4622-61.5195 30.6933-30.8262 81.98167-6.7764 88.89099 34.148-3.45466 17.1404-13.68576 34.1479-27.37152 47.8337" fill="#ecf0f9" opacity=".9"/><path d="m226.91591 1287.6157c5.31486 10.4968 15.8117 5.3148 20.86082 5.3148 10.62971-1.0629 28.56735-7.4408 48.23233-28.3016 35.87528-50.624-16.7418-113.7379-74.54088-103.2411-20.99368 5.3149-31.49052 15.8117-47.30222 26.3086-20.99369 20.9937-26.30855 47.3022-20.99369 78.9256 0 15.8117 10.49684 26.3085 15.8117 36.8054 42.12024 57.7991 126.22786 57.7991 168.3481 0 15.8117-26.3086 26.30854-57.7991 20.99369-89.4225-10.49685-52.6171-47.30223-89.4225-94.60446-99.9193-20.99369-5.3149-36.80539-5.3149-57.79907 0-115.73102 26.3085-136.7247 173.5301-52.61709 241.9589 15.8117 15.8117 36.80539 20.9937 57.79907 31.4905 26.30855 5.3149 57.79907 5.3149 84.10762 0 84.10761-26.3085 126.22786-115.731 105.23417-199.8386-10.49684-26.3086-20.99369-52.6171-42.12024-73.6108-26.30855-26.3085-57.79907-42.1202-94.60446-47.3022-42.12024-5.3149-78.92563 5.3148-115.73102 20.9937-15.8117 5.3148-26.30854 20.9936-42.12024 31.4905-84.10761 84.1076-63.11393 241.9589 47.30223 294.5759 31.49053 10.4969 63.11393 26.3086 99.91931 26.3086 36.80539-5.3149 73.61078-10.4969 105.23418-31.6234 20.99368-15.8117 36.80538-26.3086 52.61708-47.3022 94.60446-120.913 31.49053-299.758-115.73101-336.5634-26.30855-5.3148-52.61709-10.4968-78.92563-5.3148-47.30223 5.3148-84.10762 20.9937-120.913 47.3022-110.41616 84.1076-115.73102 252.4557-20.99369 347.0602 20.99369 20.9937 52.61709 36.8054 78.92563 52.6171 36.80539 15.8117 73.61077 26.3085 115.73102 20.9936 31.49053-5.3148 57.79907-15.8117 89.42247-26.3085 31.49053-15.8117 63.11393-36.8054 84.10761-63.1139 26.30855-36.8054 47.30223-73.6108 52.61709-115.731-10.76259 147.4872-179.11069 242.2246-315.83539 200.1043-26.30854-5.3148-47.30223-20.9937-68.42879-31.4905-78.92562-47.3022-115.73101-136.7247-110.41615-220.8323 0-20.9937 10.49684-36.8054 15.8117-57.7991 15.8117-84.1076 84.10761-131.5427 163.03324-157.7184 99.91932-26.30852 205.15349 20.9937 257.77058 115.731 31.49052 57.7991 36.80538 126.2279 10.49684 189.3418-15.8117 26.3086-31.49053 52.6171-52.61709 73.6108-26.30854 26.3085-57.79907 42.1202-94.60446 52.6171-26.30854 5.3148-47.30223 10.4968-73.61077 5.3148-20.99368-5.3148-36.80538-10.4968-57.79907-15.8117-31.49053-15.8117-63.11393-36.8053-89.42247-68.4287-73.61078-99.9194-36.80539-247.1409 78.92563-299.758 31.49053-10.4968 63.11393-20.9937 94.60445-15.8117 68.42879 10.4969 120.91301 47.3022 152.53641 110.4162 42.12024 99.9193-5.31486 215.6503-110.41616 236.644-20.99369 5.3148-36.80539 10.4968-57.79907 10.4968-68.42879-10.4968-131.54272-52.6171-147.22155-120.913 0-20.9937-10.49684-36.8054-5.31486-57.799 15.8117-78.9257 78.92563-142.0396 163.03325-136.7247 84.10761 5.3148 152.5364 94.6044 126.22786 178.8449-10.49685 20.9937-15.8117 42.1202-36.80539 57.7991-15.8117 15.8117-36.80538 20.9937-52.61708 31.4905-57.79908 20.9937-120.91301-15.8117-147.22155-68.4288-5.31486-20.9937-15.8117-42.1202-10.49684-63.1139 15.8117-84.1076 120.913-131.5427 184.02693-63.1139 15.67883 15.6788 20.86081 41.9873 26.17567 62.981 5.31486 36.8054-15.8117 63.1139-42.12024 84.1076-42.12025 26.3086-94.60446 5.3149-120.913-36.8054-10.49685-20.9936-5.31486-47.3022 5.31485-68.4287 15.8117-20.9937 36.80539-31.4906 63.11393-31.4906 23.98451 0 41.23931 14.86 48.993 34.3086 7.53814 18.9078 6.09609 42.1526-6.87275 60.2959-15.81171 10.4968-36.80539 15.8117-57.79908 15.8117" fill="#fff" opacity=".9"/></g><path d="m62.38805 191.04336c-19.46052-4.18506-35.51021-12.42699-46.63672-24.7793-11.4146-12.57193-16.21132-28.48092-15.7168-43.26172.69758-22.20807 12.43-41.576766 28.43916-54.24734 63.43227-19.424567 141.82247-22.395987 206.54305-15.957149 8.84211 1.478758 18.70088 2.883328 26.96875 4.629883l.01.002.0117.002c13.12556 2.798199 23.2682 11.844863 29.40234 20.86914 6.48667 9.542865 10.0124 19.636353 12.98438 28.087886l.004.008.002.008c8.24266 23.51032 14.72939 48.11349 17.36914 60.83984l19.39062 134.72461c1.93794 20.48608 3.47672 58.01146 4.47071 87.81836.50891 13.61393-2.93846 26.69362-8.67188 38.04101l-.0332.0664-.0352.0664c-3.06411 5.94061-6.66823 10.76589-10.5 14.63281-3.80999 3.84495-6.18811 7.24548-15.13281 9.17578-19.67369 3.51436-31.28018 4.45048-50.51758 6.40625l-1.47266-4.63086-2.22851 4.86524-10.63477.76367c-42.32648 2.59145-86.26928 3.45566-125.92773-2.40625-27.94216-4.34608-54.30465-14.25886-78.49219-27.51367-14.99989-13.1082-24.11124-30.7342-23.97656-47.64258s7.46139-32.11221 21.2207-41.1875l.0937-.0625.0937-.0606c9.34834-5.99968 20.5066-8.71212 33.07813-8.55859 11.04108.38846 23.68593 2.86379 34.83169 5.15039-3.03685-48.64267-6.71638-94.30205-13.47895-141.68031-10.818.71463-20.98785-1.91776-31.45821-4.1693z" fill="#7896d3"/><g fill="#fff"><path d="m321.34315 283.63c3.78 39.96 5.31 77.13 6.3 106.83.36 9.63-2.43 20.7-6.75 29.25-4.41 8.55-10.53 13.86-13.5 14.49-4.68 1.08-17.1 2.88-33.93 4.59l-11.16-35.1-17.19 37.53c-15.03 1.08-31.5 1.8-48.15 1.98-25.38.27-51.39-.81-73.8-4.23-14.22-2.07-26.64-5.4-36.63-9.36 10.62-4.59 19.44-9.54 26.19-14.94 9.99-8.01 16.38-17.37 15.57-27.81v.18c-4.86-86.76-9.72-169.92-27.27-257.4l-.09-.36-.09-.36c-4.77-16.11-16.11-35.874-32.49-50.247 12.51-1.854 25.74-3.6 39.33-5.094l20.07 22.77 1.98-24.93c17.1-1.476 34.56-2.439 51.66-2.628h5.13v-.036c15.84 0 31.14.63 45.63 2.187l14.94 38.808 4.41-36.036c2.25.414 4.5.846 6.75 1.323 8.19 1.746 13.59 6.498 18.27 13.383s8.01 15.75 10.89 23.94c7.92 22.59 14.22 46.44 19.26 70.74z"/><path d="m71.27739 349.69c.63 0 1.17.09 1.8.09 3.15.09 6.48.45 9.99 1.17l-3.06 15.84c-10.98-2.07-18-.36-22.05 2.25-3.96 2.61-5.67 6.12-5.76 11.25-.09 8.37 6.3 20.7 20.97 29.25-4.86 2.61-10.71 5.31-17.37 7.83-12.96-10.44-19.89-24.12-19.8-37.26.09-9.63 4.68-19.08 13.14-24.66 6.03-3.87 13.5-5.85 22.14-5.76z"/><path d="m41.87355 79.385168c4.23 3.321 8.28 7.227 11.97 11.457-10.89 7.362-19.26 21.042002-19.62 33.282002-.27 7.02 1.71 13.41 6.93 19.26 5.22 5.76 14.04 11.16 28.44 14.22l-3.42 15.84c-16.74-3.6-29.07-10.35-37.08-19.26-8.1-8.91-11.43-19.98-11.07-30.6.54-17.37 9.99-33.831002 23.85-44.199002z"/></g><path d="m185.71315 137.11-29.88 12.42-28.17-8.91-4.86 15.48 33.75 10.71 30.24-12.6 25.92 7.29 4.32-15.66zm104.85 59.85-27.63-15.84-30.42 23.49-46.71-17.73-54.9 22.05 6.12 15.03 48.96-19.62 49.23 18.63 28.98-22.41 13.41 7.65m-63.9 58.41-29.7 14.22-24.84-10.53-14.22 13.59-11.16-11.7 21.78-20.97 28.08 11.79 30.51-14.49 12.6 5.76 38.97 15.03-14.452 10.55225zm50.94055 49.77062 44.27929 15.29883-5.2207 15.30078-38.1582-13.14062-34.29102 16.01953-43.12996-2.87891-11.59074 7.65039-25.33984-16.86718 12.65429-14.41016 15.11328 8.43555 26.46289 1.6914 22.23047.17969z" fill="#9db3df" filter="url(#a)"/><path d="m185.71315 137.11-29.88 12.42-28.17-8.91-4.86 15.48 33.75 10.71 30.24-12.6 25.92 7.29 4.32-15.66zm104.85 59.85-27.63-15.84-30.42 23.49-46.71-17.73-54.9 22.05 6.12 15.03 48.96-19.62 49.23 18.63 28.98-22.41 13.41 7.65m-63.9 58.41-29.7 14.22-24.84-10.53-14.22 13.59-11.16-11.7 21.78-20.97 28.08 11.79 30.51-14.49 12.6 5.76 38.97 15.03-14.452 10.55225zm50.94055 49.77062 44.27929 15.29883-5.2207 15.30078-38.1582-13.14062-34.29102 16.01953-43.12996-2.87891-11.59074 7.65039-25.33984-16.86718 12.65429-14.41016 15.11328 8.43555 26.46289 1.6914 22.23047.17969z" fill="#9db3df" filter="url(#b)"/><path d="m500 64.257812c-.12639 9.719322-2.28492 20.348357-6.08594 32.351563l-.006.01563-.006.01758c-3.40887 10.696455-8.11774 22.076315-13.92773 33.830075l-9.36133 17.55664c-3.94452 6.86003-8.21985 13.71547-12.8164 20.48632l-10.74415 14.98633c-6.19807 8.06794-12.84027 15.98566-19.84375 23.42383l-14.56445 14.08984c-7.7975 7.01776-16.01724 13.4821-24.70898 19.00391l-18.48048 10.00781c-21.12716 9.62227-44.62479 13.02133-67.60938 6.40625l-91.20703 71.29104 19.15235-74.00977 3.48242-3.47461c44.05279-43.93211 99.27826-91.60489 154.12305-137.20509l3.17774-15.468754 3.59765 9.804684c25.98652-21.531868 51.78964-42.668141 76.16044-62.396481l24.48438-19.820312 5.18359 31.15625z" fill="#7896d3"/><path d="m481.658 58.965125c.216 1.449.342 3.087.342 5.058-.09 6.921-1.827 16.353-5.247 27.153-3.069 9.629995-7.443 20.249995-12.915 31.319995-9.567-4.77-18.531-9.9-25.569-16.29 3.978 11.25 9.135 22.23 16.74 32.85-3.726 6.48-7.767 12.96-12.105 19.35-9.576-4.77-18.648-11.7-26.568-23.49 2.97 14.4 7.623 27.54 16.443 37.62-5.877 7.65-12.15 15.12-18.675 22.05-7.83-8.37-14.04-18.9-18.63-31.41-3.42 16.65-2.34 31.77 5.13 44.46-7.2 6.48-14.67 12.33-22.32 17.19-5.49-12.6-8.01-27.54-7.65-44.73-8.28 21.33001-10.17 38.61-8.64 53.55-18.18 8.28-36.72 10.8-55.17 5.49l-3.78-1.17-62.37 45.54 5.31-20.51999c65.7-65.52001 157.86-141.03001 235.674-204.021005z" fill="#fff"/></svg>