<svg height="500" viewBox="0 0 500 500" width="500" xmlns="http://www.w3.org/2000/svg" xmlns:xlink="http://www.w3.org/1999/xlink"><radialGradient id="a" cx="1362.7291" cy="216.11429" gradientTransform="matrix(1.0000001 -.0000059 .0000001 1.0000003 -112.72927 33.893757)" gradientUnits="userSpaceOnUse" r="250"><stop offset="0" stop-color="#ff851a"/><stop offset=".42441937" stop-color="#f87000"/><stop offset=".86367416" stop-color="#f26900"/><stop offset="1" stop-color="#e55f00"/></radialGradient><g transform="translate(-1000)"><path d="m1500 250a250 250 0 0 1 -250 250 250 250 0 0 1 -250-250 250 250 0 0 1 250-250 250 250 0 0 1 250 250z" fill="url(#a)" stroke-linecap="round" stroke-linejoin="round" stroke-width="1.002"/><path d="m1309.2298 33.82789c128.5196 30.706851 207.8974 167.48127 169.5927 291.56949-31.3771 95.69524-112.8693 162.03793-212.5543 174.60263 153.1796-8.09118 266.0956-163.0043 218.7012-309.92978-36.4562-114.666588-154.6038-191.5214848-270.6514-169.822657-18.8526 4.215647-38.4387 10.498641-55.8829 18.694487-112.5353 47.459213-168.47522 196.206-99.9632 307.85319 57.6978 93.63045 168.5136 141.8489 267.9993 100.77239-134.92 68.97589-303.283-51.46877-311.488-201.30723-4.4167-117.68321 76.8182-219.674136 190.654-246.26040176-89.0147 9.18391126-152.6601 79.39239576-187.7408 157.21169176-38.45522 102.70317 5.2337 231.75078 109.038 294.08388 114.5107 66.1048 260.3537 29.37245 323.6836-83.60152 42.2104-77.69758 34.3514-177.62383-23.1776-249.88923-57.5404-72.257811-157.5429-102.460489-246.4118-71.877168-81.7429 30.682061-131.1298 101.133078-134.0478 190.176958.6692 92.68536 61.7912 168.55972 147.5399 198.52472 128.5549 37.82014 266.7725-70.33038 233.6823-209.88949-14.7104-64.39775-57.8855-122.14991-125.7378-141.121386-71.391-15.467036-138.9716 1.205-181.2869 64.641366-18.8995 29.2286-28.9384 85.21395-26.105 97.65297m0 0c13.5324-50.18833 30.6277-97.66354 72.2125-128.94941 53.182-38.308183 124.4576-37.093813 181.7444-.48035 50.1457 36.48017 75.4845 90.37713 72.3557 150.91678-6.6674 64.04407-38.4038 109.83277-91.6401 141.00844-63.9019 34.56125-135.3795 4.83213-189.1258-35.28385-78.8706-65.48566-79.7477-186.67235-8.9744-256.76104 63.7369-55.941605 167.0207-64.891564 238.7167-6.65053 78.8163 58.35315 90.3045 169.04089 40.972 246.62443-35.2274 56.41892-88.4571 87.60135-152.5581 93.63158-81.9488 2.18264-160.666-41.91503-196.8695-120.9383-36.2055-79.02511-22.5771-164.33167 26.8727-227.66064 49.4316-63.30896 138.3491-86.746364 220.4504-67.54202" fill="#c50"/></g><path d="m267.92188.7109375c-.66232.7811015-1.75258 2.0539422-2.36524 2.7773437-2.437 2.877514-4.46594 5.2825529-6.11328 7.2480468l-5.41797-5.1308592-11.78906 6.1269532c-21.90201 11.385036-43.99545 27.66285-56.35352 57.240234l-3.38086 8.097656c2.02101 4.390312 5.23469 8.765384 7.52344 12.535157-27.33688 24.159171-53.29859 51.292431-75.30273 73.234371-36.182046 36.5722-74.298652 78.22006-100.726566 113.2461 24.897462 36.12774 48.175445 65.46479 74.68164 92.53906l32.642576-11.05664c20.34465 59.38834 70.64283 103.6175 130.19531 125.9707 35.91357 13.4806 74.83844 16.46139 100.73047 15.61133 25.64351-3.45148 34.21701-10.42134 39.10547-18.57812 4.88848-8.1568 6.72842-17.13052 6.89453-25.99219.33223-17.72334-5.73737-35.92283-18.03906-51.60938-31.9311-33.48188-55.61273-72.55094-71.60937-109.51172-5.35328-12.25575-9.81452-23.72645-13.69922-35.62109 15.25845-22.7352 32.62354-49.05422 48.51367-64.5332 9.43611 1.60666 18.77725 2.68501 30.43164 2.59961 20.01393-5.02982 34.34645-16.97012 46.99023-31.30664 9.17662-10.40542 16.89738-21.86048 25.10157-36.23438l8.15429-10.38281c1.00175-1.12508 2.91571-2.81854 5.17188-4.70508-41.57102-63.495226-111.22644-106.8829363-191.33984-112.5644525z" fill="#994100"/><path d="m289.49609 3.1347656c-8.34466 9.8327464-18.16569 21.3910504-18.63086 22.0214844 37.28829 50.827715 101.67499 74.729922 169.78321 80.85742 2.07279-2.32798 4.96629-4.89816 8.16015-7.533201-38.10469-49.919981-94.55549-85.065082-159.3125-95.3457034zm-38.95898 24.5683594c-20.4315 10.620635-37.55467 23.105915-48.04492 48.212891 36.65211 65.384674 110.39882 100.849774 169.22461 102.304684 11.59323-3.13724 24.48863-12.90865 35.61914-25.52929 8.12741-9.21572 15.25859-19.7575 20.79492-29.56446-70.89453-8.35298-139.16115-36.256882-177.5918-95.421872zm-50.86133 77.679685c-17.85697 17.67068-33.53711 30.8125-33.53711 30.8125s-4.20229 4.25748 10.9375 21.75977c8.3693 9.67531 27.09819 26.90104 40.26563 33.92773 15.86319 8.46526 42.09362 32.27838 87.27929 20.5918 4.03575-3.37083 14.11813-20.26281 17.39063-23.44922-45.41982-12.59616-91.10639-40.73943-122.33399-83.64258zm-48.0293 46.12305-14.49218 14.41016s18.61953 32.84225 33.77539 43.71484c31.20095 22.38313 73.35556 49.31029 108.29492 39.28125l12.03516-18.42188c-33.40993 11.14319-61.91359-6.81185-85.86133-20.77148-20.38546-11.88312-25.82744-16.51745-35.47852-28.11719-7.7865-9.35871-18.27344-30.0957-18.27344-30.0957zm-28.98437 27.56445c-22.35698 23.02167-65.817636 69.75419-86.478516 97.39453 18.003044 25.88838 33.158911 46.66467 57.441406 71.48047l39.22461-13.28515 2.63281 9.26172c16.26972 57.2679 64.21116 100.94489 122.35547 122.76953 33.39527 12.53531 69.93883 17.71175 105.31445 14.25976 22.95702-6.00982 21.49461-43.12135 3.40039-66.28125-18.13245-19.33049-34.24075-40.40285-48.08398-62.74219-27.16679 1.72159-41.89816 15.14627-61.19531 34.67579l-13.03321-12.875c17.956-18.17167 36.57468-34.32758 64.17579-38.96875-4.40197-7.96774-8.51824-16.07331-12.34375-24.29883-33.09526-9.47066-52.8412-.51451-79.71875 13.6875l-8.5586-16.19922c20.07853-10.60792 40.10395-19.573 55.42383-19.42774 15.31988.14525 19.56005.53347 23.93945 1.22071-2.86668-7.23531-5.51987-14.54634-7.93359-21.92383-37.82959 3.19609-74.23243-14.71458-118.15234-42.74414 0 0-.03839-.0192-.05469-.0332-15.1285-13.01612-38.35547-45.97071-38.35547-45.97071z" fill="#ffa348"/></svg>