<svg height="500" viewBox="0 0 500 500" width="500" xmlns="http://www.w3.org/2000/svg"><g transform="translate(-1000 -500)"><circle cx="1250" cy="750" fill="#8f29a3" r="250"/><path d="m1250.0521 500.09326-.061 248.75004-15.9199-248.2399a249.99917 250.18666 0 0 0 -31.6776 4.06945l45.0428 231.17052c-.102.0363-.2268.0547-.3789.0547l2.377 12.94521-.25-.53361-.5352-1.34279-3.3574-10.61339c-.1814.0698-.3456.12506-.5117.12506l-.1211.0782-83.1951-220.24831a249.99917 250.18666 0 0 0 -14.7401 6.13348l96.9 214.60543-.2187.11532 2.3047 4.43886 2.3437 5.21678.055.0488.416.7486.7461 1.26658v.0314l-.7461-1.29782-.4707-.79746-5.5273-9.21c-.1841.12151-.3808.23754-.5664.39678l-123.4077-200.53639a249.99917 250.18666 0 0 0 -34.1776 25.40763l164.5483 186.40079-.3984-.58052.832 1.02616v.0508l-.3262-.32448-.094-.12903v-.006-.002l-176.1809-175.46484a249.99917 250.18666 0 0 0 -21.0273 24.05115l186.5306 143.42536-.1425.18569 10.4687 8.26398-2.0957-1.07698-9.4082-5.66242c-.1395.18156-.2273.33335-.3066.47301l-208.0031-109.74966a249.99917 250.18666 0 0 0 -7 14.40723l214.5266 96.34337c-.074.17741-.1655.3791-.2578.59419l12.1758 4.73596-.037-.0253.5254.23653-.4863-.21109.3574.18179.2129.0802-.2129-.0508v-.0295l-12.8066-4.08117c-.056.14944-.1255.33501-.1758.5082l-224.9661-68.33223a249.99917 250.18666 0 0 0 -8.7656 41.69908l246.1613 30.77687h-1.2363l-246.3644-14.82161a249.99917 250.18666 0 0 0 -.4219 14.51082 249.99917 250.18666 0 0 0 .6113 17.47203l234.4934-16.18786h-.027l.3066-.0234-.2773.0234 12.9687-.73492-7.6699 1.8549-.3028.0508-4.789.9382.07.23845-228.2004 55.91086a249.99917 250.18666 0 0 0 4.2871 15.37279l224.173-70.26921c.093.36314.1859.69573.2793.95971l11.9648-4.46623-6.7285 3.52803-218.2141 100.03556a249.99917 250.18666 0 0 0 21.0155 36.99246l204.0072-139.70972-2.9414 2.38851-191.599 150.2058a249.99917 250.18666 0 0 0 21.2792 23.80097l164.7143-167.43742c.2793.26396.5666.50585.8359.80333l7.6309-8.62753v-.0314l.7578-.86587.1855-.23653.7754-.84633.02-.0645.057-.0272-.023.15832-.1035.11531.051-.18179-.068.18179-1.3203 1.73762.6133-1.0457-.1856.20916-.7578.89715-2.5996 3.67852-4.2753 5.57643.287.1818-133.9214 192.92518a249.99917 250.18666 0 0 0 13.3768 8.68037l121.3629-200.99764c.1115.0698.2562.1641.4043.23263l6.9082-11.76855-.2793.71929-100.1481 226.51466a249.99917 250.18666 0 0 0 40.1346 13.79743l59.6931-236.78211-1.5742 9.22563.2364.0566-42.7675 230.89101a249.99917 250.18666 0 0 0 31.6386 3.76263l12.9316-234.50119c.2415.0238.455.0234.6602.0234h.031v-12.36276l.055-.87175.3809 3.35211.6328 9.85892c.1939 0 .3385-.0234.5058-.0234l27.248 233.23258a249.99917 250.18666 0 0 0 15.7831-2.3455l-42.1484-231.0161c.254-.028.4739-.0916.707-.11531l-2.0644-10.71502-.055-.13878-.3203-1.79235.018.0295.3575 1.90182 74.3923 234.18055a249.99917 250.18666 0 0 0 39.205-16.19959l-111.1503-215.75097 4.1406 6.7179.2696-.18569 120.6715 201.44522a249.99917 250.18666 0 0 0 26.2108-18.10533l-145.5071-184.32505c.254-.18717.4204-.39029.6562-.60397l-8.457-9.554 3.3672 3.03156 5.8437 5.83834.2872-.30686 174.8256 156.82795a249.99917 250.18666 0 0 0 10.2715-12.18293l-184.478-145.35845c.1296-.15783.305-.33279.4082-.48083l-9.3632-7.21437 211.5852 126.78601a249.99917 250.18666 0 0 0 18.7245-38.19257l-229.6555-89.16613 11.0274 3.36579.012-.18569 223.9289 70.91228a249.99917 250.18666 0 0 0 7.6836-30.99187l-231.1887-41.80463c0-.16199.037-.30149.037-.44955l-7.3671-.90693-4.5508-.79941 12.0312.70755c.03-.32965.029-.62841.029-.96361l235.009 1.78454a249.99917 250.18666 0 0 0 .011-2.19892 249.99917 250.18666 0 0 0 -.3809-13.81303l-234.6691 13.37131v-.33226l-11.7754.81114-2.207.14075 2.1641-.14075h.043l242.6422-45.60435a249.99917 250.18666 0 0 0 -11.2772-41.04821l-231.0032 85.65376-.2598.0684 10.5078-4.79069c-.1716-.35894-.395-.80876-.6601-1.20402l208.1651-109.51534a249.99917 250.18666 0 0 0 -7.877-13.90491l-200.7337 122.63837-.2109-.32833-5.6211 3.9033-4.707 2.86542 9.6699-7.59747-.1446-.20719 183.392-147.45376a249.99917 250.18666 0 0 0 -29.3651-30.85701l-161.2514 182.96656-2.3184 2.37091 151.2905-195.53064a249.99917 250.18666 0 0 0 -26.4154-17.96062l-119.2496 202.94829-.094-.0664-7.0644 11.68841 5.539-12.45265c-.2748-.15364-.5655-.24794-.8711-.35962l83.404-220.18189a249.99917 250.18666 0 0 0 -15.121-5.19332l-69.2811 225.07807c-.1088-.0378-.2229-.0651-.3808-.11531l-1.8809 7.53882-1.1289 3.69807 2.1055-11.46558c-.2011-.0197-.4082-.0561-.6133-.0743l40.1268-232.08917a249.99917 250.18666 0 0 0 -42.4354-3.64138zm-1.9453 235.66215 1.0117 8.77021v.043l.8711 4.45646v.46128l.029-.16807.023.62741v.1036l-.057-.1036v-.43977l-.066.30686-.2383-.49451-.5625-4.74964zm-9.3652 5.00568 7.0859 6.37391-.025-.0197zm25.7675 6.02013-11.8261 2.9006h-.057zm-12.1504.11531-1.6269 2.78332-.3496.40069.1113-.44954-.092.20719-.02.18179-.051.10553v-.0253l.051-.0802v-.16221l.02-.0197v-.10556l.012-.0234.082-.12118v-.0234l.033-.0272.061-.1505v.0197l-.061.13096-.033.0508zm-6.5292.23849 3.3242 2.54682.3633.56682-.4493-.16807.2012.13878h-.022l-.2188-.13878h.037zm5.0331.24627-.2968 1.58908.2968-.84047-.3339 1.37603-.1016.1505.1387-.68606.2617-1.56758zm-.582.38505-.086 1.71808-.057.19351-.1172-.46715zm3.1445.7447-2.2754 1.58908h-.023l-.4121.27757-.2871.11728.2129-.27557.074-.0215.8867-.71342zm-4.0429.57856.1348.14075v.0469l-.084-.1251zm3.8633.31665h.029l-.1738.0802zm-3.5254.18179.1835.3577v.0392l-.1835-.35376zm.416.0938.02.26385v.0392l.039.0958.047.11728-.047.0215-.039-.1192.039-.0197-.039-.0605v-.0352l-.057-.26192zm2.2207.0644-.07.0272-1.0156.30686.1562-.0605zm-5.6387.0665 2.3692.40655.3457.21498.029.0606-.3124.0644zm2.1641.31271h.053l.094.0314zm.7265.19155h.02v.0196zm-.164.0606h.02l.074.0802zm.2148.1818h.024l-.024.0314zm-.3359.16808h.057l.2461.0352-.8125.32836zm-.3887.0352h.2168l-.9316.47886.2637-.0527-.025.0272-.2383.0253-2.0253.39287v.0234l-5.2422.93428 5.2422-.95774zm1.7774.0234.5078.043.7519.2228-.8457-.0841zm-.2188.16418.035.0178.1113.22088.3282.16611 1.4394 1.4034-1.3496-1.00858-.2344-.2971-.1855-.26385-.018-.0333-.092-.18766h-.035zm-1.0625.0802-.25.27364h-.029l-2.7812 1.26461 2.2988-1.41316zm1.5703.0997.1485.0253.031.0314zm.2207.0253 1.9356.60398-1.9063-.57074zm-1.1796.17201.031.1251.022-.0978-.022.13092v.006l.076.23066.125 1.89594-.2324-1.35256.031-.77402-.088.50819v-.0919l-.031-.18569.031.14272v-.26385zm.7226.0919.061.0664.088.14661-.037-.0314zm-1.1406.1818-.2442.52578-3.9492 12.85138 3.9219-12.85138h.027l.084-.28732.01-.0117zm-.088.10552-.065.11339.041-.0978zm1.4648.0802.033.0234.1152.18962-.092-.0919zm-.4375.21306.023.0295.029.22669zm-1.7304.26581v.0295l.051-.0295zm2.2929 1.35257 4.8828 10.7893-4.8828-10.73457z" fill="#aa40bf"/></g><path d="m220.8977 23.253117-7.97566 52.406211c3.87071 30.163092 32.66869 25.559912 28.91318-3.711347l-20.93752-48.693904zm59.68011.191999-21.27161 48.556624c-4.06846 30.13814 24.94071 33.14485 28.88918 3.900467l-7.61853-52.458051zm-117.37591 15.063307 5.85886 52.686532c11.54684 28.133665 38.17235 16.233545 26.96822-11.065883l-32.82708-41.618729zm174.97186.569278-33.11604 41.39793c-11.72636 28.063579 15.51354 38.469949 26.89526 11.241562zm-226.74832 29.102297 19.29402 49.377422c18.43385 24.18712 41.07057 5.79838 23.18391-17.668736zm278.33182.909117-42.70065 31.414925c-18.58937 24.07672 5.03038 41.17426 23.06872 17.82234l19.63193-49.238225zm-320.669588 41.155055 31.413968 42.69777c24.06712 18.59129 41.17426-5.02751 17.8233-23.06872l-49.238228-19.63001zm362.730878 1.18079-49.37646 19.29594c-24.18808 18.43865-5.79838 41.07249 17.67065 23.18391zm-392.740372 50.40367 41.397934 33.11412c28.055898 11.73116 38.470908-15.51355 11.243481-26.89431l-52.641415-6.22077zm422.408112 1.37855-52.68846 5.85598c-28.13366 11.55356-16.22778 38.17139 11.06876 26.96918l41.62162-32.82516zm-385.592242 48.59983-52.450373 7.61949 48.554707 21.26873c29.241498 3.94558 34.038598-24.81592 3.895666-28.88918zm348.444212 1.11551c-30.16694 3.87647-25.55895 32.66869 3.70751 28.9151l48.70062-20.93752-52.40909-7.97758zm-347.058937 44.89233c-1.670394 0-3.451188.11232-5.337581.3552l-48.688146 20.93464 52.402373 7.97757c27.436701-3.51934 26.684071-29.25109 1.624314-29.26741zm345.384697 1.10591c-25.05783-.14784-25.98134 25.57431 1.43424 29.27606l52.45709-7.61661-48.55854-21.27065c-1.88448-.2544-3.66239-.3792-5.33279-.3888zm-330.736108 42.27825c-3.446389.1152-7.407335.9696-11.805079 2.77439l-41.611053 32.82517 52.681735-5.8579c23.030315-9.45117 19.350655-30.37045.734397-29.74262zm314.347048 1.104c-17.04954.5808-20.92792 20.06681 2.0064 29.66005l52.64045 6.20734-41.39505-33.10356c-4.25471-1.77791-8.14078-2.63231-11.56028-2.75999-.576-.0211-1.14048-.0221-1.6896-.004zm-290.12249 37.12787c-4.62431.0883-10.22109 2.06207-16.270026 6.67197l-31.699089 42.47409 49.372625-19.29401c17.60058-13.41595 12.47036-30.11701-1.40351-29.85205zm267.32065 1.01087c-13.93627-.40799-19.84793 15.74395-1.79711 29.6927l49.24111 19.61945-31.42261-42.69105c-5.8387-4.5091-11.37596-6.48478-16.02235-6.6211zm-235.8942 29.9711c-5.31839.16992-11.71964 3.50207-17.71194 11.25788l-19.62233 49.24303 42.69105-31.42069c11.83867-15.32539 6.21405-28.57718-4.30847-29.07446-.3456-.0144-.69408-.0173-1.04831-.005zm203.13336.81216c-10.65212.26207-16.71354 13.01947-4.61759 28.89589l42.48657 31.69429-19.30169-49.36494c-6.14974-8.06782-12.98875-11.3606-18.56825-11.22428zm-164.57606 21.05368c-6.11902-.1728-13.33147 4.60127-18.09882 16.00027l-6.20637 52.64045 33.10068-41.39505c6.75837-16.16635.14784-26.99031-8.79549-27.24471zm126.85395.52416c-9.03741-.0269-15.88122 10.36796-9.02781 27.07478l32.83669 41.61106-5.86558-52.67982c-4.55039-11.09084-11.75996-15.98874-17.94234-16.00698zm-85.10178 10.85756c-6.84669-.144-14.18203 6.30718-16.08954 20.43833l7.62621 52.45613 21.26009-48.55662c2.09759-15.53659-5.03615-24.17272-12.79676-24.33784zm43.23537.18432c-7.79229-.12288-15.02107 8.18493-12.96571 24.21112l20.94328 48.69102 7.97085-52.40333c-1.76159-13.71835-9.07388-20.39033-15.94938-20.49785z" fill="#eed9f2" opacity=".9" stroke-width=".9"/><path d="m116.62886 310.77344c0 21.94182 17.87249 40.09378 39.68945 40.70117l-22.66797 92.66797 231.44341.002-22.65625-92.58789c20.09076-.15434 36.84631-15.29756 39.85742-34.65039l5.04688-15.88086 26.43554-23.88672-83.83203-98.29883 20.8125-9.80859-73.18308-102.687241c-5.35496-5.216487-17.45691-10.754689-28.9302-10.474918h-.002c-11.81933.287784-22.51937 5.747386-28.88468 11.5192l-73.0411 101.605799 22.45898 10.64453-84.197264 98.73242 32.367184 24.33985c-.38851 2.63728-.71679 5.31351-.71679 8.0625z" fill="#6a1f7a"/><path d="m228.16834 83.440658-54.53936 78.388992 57.52744 27.26607-26.12357-23.67214c36.60858-76.304905 53.36249-74.92936 87.28608 0l-25.82121 23.41542 57.31846-27.01009-54.67794-78.575219c-7.18416-6.997918-13.63613-9.54646-20.05623-9.389541-6.36599.154693-13.37972 3.221105-20.91367 9.576508zm82.12287 100.091292-58.84733 27.72977-2.96438 1.39113-2.94214-1.39113-56.73817-26.89509-77.72373 91.14209 13.89551 10.4798 48.93444 11.17352 21.44728-87.70915 12.75941 6.05121-51.52828 210.63865h68.8521l11.55662-196.96111 11.55663 5.4725 13.15442-6.21295 11.60256 197.70305h68.85211l-51.69132-211.24334 12.78387-6.02821 21.65478 88.47558 53.12681-12.17141 10.69918-9.6674zm-174.20309 119.21982c-.93822 2.49587-1.45996 5.19947-1.45996 8.02179 0 12.601 10.20265 22.81446 22.78865 22.81446 2.78207 0 5.45668-.50155 7.9223-1.41413l5.25584-21.54055-34.50683-7.88305zm227.3766 0-35.24793 8.06853 5.11799 20.98188c2.705 1.13813 5.6805 1.78584 8.8005 1.78584 12.58675 0 22.78865-10.21346 22.78865-22.81446 0-2.82676-.52322-5.52592-1.45996-8.02253z" fill="#eed9f2" stroke-width="36"/></svg>