<svg height="500.00003" viewBox="0 0 500 500.00003" width="500" xmlns="http://www.w3.org/2000/svg" xmlns:xlink="http://www.w3.org/1999/xlink"><filter id="a" color-interpolation-filters="sRGB" height="1.005992" width="1.006008" x="-.003004" y="-.002996"><feGaussianBlur stdDeviation=".54026462"/></filter><filter id="b" color-interpolation-filters="sRGB" height="1.095868" width="1.096132" x="-.048066" y="-.047934"><feGaussianBlur stdDeviation="8.6442339"/></filter><g transform="translate(-500)"><path d="m926.7767 73.223311c45.24113 45.241099 73.2233 107.741109 73.2233 176.776699 0 69.0356-27.98221 131.53559-73.2233 176.77669-45.2411 45.2411-107.74109 73.22332-176.77669 73.22332-69.03559 0-131.5356-27.98219-176.7767-73.22332-45.2411-45.2411-73.22331-107.74109-73.22331-176.77669 0-69.03559 27.9822-131.5356 73.22331-176.776699 45.2411-45.241105 107.74111-73.22330934 176.7767-73.22330934 69.0356 0 131.53559 27.98220534 176.77669 73.22330934z" fill="#3b2f4f"/><g transform="translate(500)"><path d="m230.6486 0c-128.19182 22.346591-234.17086 139.43202-223.06447 273.24395 5.6201 44.55936 16.72649 83.63245 44.55937 122.70552l50.17947 50.17947c33.45298 22.34661 72.52606 44.55938 111.46533 50.17946 39.07308 5.62012 78.01235 5.62012 111.46534-5.62008 39.07308-16.72649 72.52607-33.45297 100.35893-61.28587 33.45297-39.07306 55.79958-83.63245 66.90595-139.43201v-61.28587c-5.62008-27.83287-11.10637-50.17947-22.34657-78.01235-11.10641-22.34659-27.8329-44.55937-50.17947-61.285858-27.83289-27.832879-61.28586-44.559368-100.35895-55.799569-27.83288-5.620101-55.79957-11.10639-89.25255-5.620101-78.01235 11.106391-139.43202 61.28586-172.885 128.191818-11.10639 27.83288-16.72649 61.28586-22.34659 89.25255 0 33.45298 5.6201 66.90596 16.72649 94.73885 22.34659 44.55936 55.79957 89.25254 105.97904 111.46532 16.72649 5.62012 33.45298 11.1064 55.79957 16.72648 122.70553 22.34661 234.17085-55.79954 250.89734-178.37127 11.10641-78.01236-22.34657-139.43203-72.52604-189.6115-100.35895-89.25255-267.62385-44.559369-312.18322 78.01235-5.6201 27.83288-16.72649 55.79958-16.72649 83.63245 5.6201 78.01235 55.79957 150.53843 133.81192 172.885 61.28586 16.72649 122.70553 5.62012 172.885-33.45298 11.10639-11.10637 22.34659-22.34657 33.45299-33.45297 61.28584-83.63246 44.55935-195.09778-44.55937-256.51746-27.83288-16.726488-55.79958-22.346588-89.25256-27.832879-22.34659-5.620101-44.55937 5.620101-66.90596 11.106391-27.83288 16.726488-50.17947 22.346588-72.52606 50.179468-27.83288 33.45298-33.45298 66.90596-39.07308 105.97904 0 55.79958 27.83288 117.08544 83.63245 144.91833 78.01235 44.55934 183.99139 11.10637 223.06447-72.52607 22.3466-55.79958 11.1064-128.19183-39.07308-172.88501-33.45298-27.83288-66.90596-39.07308-111.46533-39.07308-66.90596 5.6201-111.46533 55.79957-122.70553 122.70553-11.10639 72.52606 33.45298 139.43202 105.97904 150.53843 100.35894 16.72649 183.99138-89.25257 139.43202-178.37131-11.10638-16.72649-27.83288-39.07308-50.17947-50.17947-27.83288-11.10639-55.79957-16.72649-83.63245-11.10639-33.45298 5.6201-55.79957 27.83288-72.52606 50.17947-16.72649 27.83288-16.72649 55.79957-11.10639 83.63245 11.10639 33.45298 39.07308 61.28586 72.52606 72.52607 44.55937 16.72649 89.25255-5.62011 111.46533-39.07309 33.45298-55.79957 5.6201-117.08543-50.17947-139.43202-50.17947-16.72649-122.70553 27.83288-105.97904 89.25255 5.6201 16.72649 11.10639 39.07309 27.83288 50.17947 22.34659 16.7265 50.17947 16.7265 72.52606 11.1064 22.34659-11.1064 39.07308-33.45299 39.07308-61.28587-5.6201-16.72649-5.6201-39.07308-22.34659-50.17947-13.91644-8.36324-29.2379-11.13984-43.17107-8.34651-13.93317 2.79332-26.47803 11.15656-34.84128 25.073-5.6201 16.72649-11.10639 33.45298 9.50065 44.827 41.74932-49.10898 35.32635.40143 29.84006-16.45887v5.6201c16.72649-5.6201 22.34659-22.34659 27.83288-33.45298 5.6201 5.6201 16.72649 11.10639 16.72649 22.34659 11.10639 39.07308-27.83288 72.52606-66.90596 61.28586-33.45298-11.10639-44.55937-50.17947-39.07309-83.63245 5.62011-22.34659 22.3466-39.07308 50.17948-44.55937 33.45298-5.6201 66.90596 11.10639 83.63245 39.07308 16.72649 27.83288 16.72649 50.17947 0 78.01235-33.45298 55.79958-105.97905 55.79958-150.53841 11.10639-33.45298-44.55937-22.3466-117.08543 27.83288-144.91831 16.72648-11.10639 39.07308-16.72649 61.28586-16.72649 11.10638 0 27.83288 5.6201 39.07308 11.10639 27.83288 11.10639 39.07308 39.07308 55.79957 61.28586 5.6201 16.72649 5.6201 27.83288 5.6201 44.55937-5.6201 72.52606-72.52606 122.70554-144.91831 105.97904-83.63246-22.34659-122.70554-122.70553-72.52606-195.09778 11.10638-16.72649 22.34659-27.83288 39.07308-39.07308 78.01235-44.559372 167.2649-5.6201 200.71788 66.90596 39.07309 94.73884-39.07308 206.33797-139.43202 200.71788-27.83288-5.62012-55.79958-5.62012-78.01235-22.3466-22.34659-11.10638-27.83288-27.83287-39.07309-39.07307-66.90596-78.01235-33.45298-195.09778 55.79958-239.79097 39.07308-16.726484 83.63245-16.726484 128.19182-5.6201 94.73883 33.45298 139.43201 144.91832 94.73883 234.17087-11.10637 27.83288-33.45297 44.55935-55.79956 66.90596-22.34659 16.72649-50.17947 27.83289-78.01235 33.45298-44.55937 5.62012-89.25256-5.62009-128.19182-27.83286-94.73884-66.90598-117.08544-211.82429-22.3466-289.97045 16.7265-11.1064 27.83288-33.452984 50.17948-39.073085 33.45298-11.106392 66.90596-22.346593 105.97904-16.726492 27.83288 5.6201 55.79957 16.726492 78.01235 27.832879 16.72649 16.726488 39.07309 22.346598 50.17946 44.559368 11.10641 16.72649 27.8329 33.45298 33.45298 55.79957 22.34661 66.90596 16.72649 139.43203-27.83286 195.09781-16.72649 22.34657-33.45298 44.55934-61.28587 55.79954-22.34659 5.62012-39.07308 22.34661-61.28586 22.34661-39.07308 0-83.63245 5.62008-122.70553-11.10641-117.08543-44.55934-167.26491-195.09777-105.97905-306.69691 16.7265-33.45298 44.55937-61.285864 78.01236-83.632457 44.55936-22.34659 89.25255-33.452979 139.43202-27.832879 61.28586 5.6201 111.46532 39.07308 156.1585 83.632456 22.34661 22.34659 27.8329 50.17947 39.0731 78.01234 11.10637 16.7265 5.62008 39.07309 11.10637 61.28586 11.10645 172.88502-195.09777 301.07685-351.25629 211.82429-27.83287-16.72649-50.17946-27.8329-66.90596-50.17947-61.28586-72.52608-78.01235-167.26492-50.17947-256.51747 16.72649-33.45298 39.07309-61.28586 61.28587-89.252546 39.07308-39.073083 94.73884-55.799574 144.9183-72.526064" fill="#221b35" opacity=".9"/><path d="m231.45148 15.388371c-120.56454 21.008472-220.12061 131.001869-209.68329 256.785079 5.21867 41.88313 15.78981 78.68141 41.88314 115.34586 15.7898 15.65602 31.4458 31.44582 47.23561 47.1018 31.4458 21.0085 68.11026 41.88314 104.77473 47.23563 36.66447 5.21866 73.32893 5.21866 104.77473-5.21866 36.66447-15.65601 68.11026-31.44582 94.33742-57.67295 31.44579-36.66448 52.45425-78.68141 62.89161-131.00187v-57.67294c-5.2187-26.22714-10.43736-47.23561-21.00851-73.32894-10.43731-21.00847-26.22712-41.88313-47.10179-57.672935-26.22713-26.227136-57.67292-41.88313-94.33739-52.454272-26.22714-5.218666-52.45427-10.43733-83.90008-5.218666-73.32893 10.437332-131.00187 57.672938-162.44767 120.564543-10.43733 26.22713-15.78981 57.67294-21.00847 83.90008 0 31.44579 5.21866 62.8916 15.78981 89.11874 21.00847 41.88313 52.45427 83.90006 99.55607 104.77473 15.7898 5.21866 31.4458 10.43732 52.45427 15.65601 115.34588 21.00847 220.12062-52.45428 235.91043-167.66635 10.43732-73.32894-21.00847-131.00188-68.11026-178.23748-94.33742-83.900079-251.56643-41.883137-293.44956 73.32893-5.21867 26.22713-15.78981 52.45427-15.78981 78.68141 5.21866 73.32893 52.45427 141.573 125.78321 162.44767 57.67293 15.78981 115.34587 5.21866 162.44767-31.44578 10.43733-10.43736 21.00849-21.00849 31.4458-31.44582 57.67295-78.68141 41.88314-183.45615-41.88313-241.12909-26.22714-15.7898-52.45428-21.008465-83.90008-26.227131-21.00847-5.218666-41.88313 5.218666-62.8916 10.437331-26.22714 15.7898-47.23561 21.00847-68.11027 47.1018-26.22713 31.4458-31.4458 62.8916-36.66447 99.55606 0 52.45428 26.22714 110.12722 78.68142 136.22052 73.32893 41.88314 173.01881 10.43736 209.68327-68.11025 21.00847-52.45427 10.43736-120.56454-36.66446-162.44767-31.4458-26.22714-62.8916-36.66447-104.77473-36.66447-62.89161 5.21867-104.77474 52.45428-115.34588 115.34588-10.43733 68.11027 31.4458 131.00187 99.55607 141.57302 94.3374 15.65599 173.01881-83.90008 131.00187-167.66635-10.43733-15.7898-26.22714-36.66446-47.1018-47.2356-26.22713-10.43733-52.45427-15.656-78.68141-10.43733-31.4458 5.21866-52.45427 26.22713-68.11027 47.23561-15.7898 26.22713-15.7898 52.45427-10.43732 78.6814 10.43732 31.44581 36.66446 57.67295 68.11026 68.11027 41.88314 15.78981 83.90008-5.21866 104.77474-36.66446 31.4458-52.45428 5.21866-110.12721-47.1018-131.00187-47.23561-15.78981-115.34588 26.22713-99.55607 83.90007 5.21867 15.65599 10.43733 36.66447 26.22714 47.23561 21.00847 15.78981 47.10179 15.78981 68.11027 10.43733 21.00847-10.43733 36.66446-31.4458 36.66446-57.67294-5.21866-15.7898-5.21866-36.66447-21.00847-47.23561-13.11356-7.8949-27.5318-10.50423-40.62864-7.86145-13.09684 2.64279-24.87229 10.53769-32.70029 23.65126-5.21867 15.656-10.43733 31.4458 8.9654 42.15076 39.20689-46.70036 33.05154-.26763 27.96669-16.05744v5.21867c15.78981-5.21867 21.00847-21.00847 26.22714-31.4458 5.21866 5.21866 15.65599 10.43733 15.65599 21.00847 10.43733 36.66447-26.22714 68.11027-62.8916 57.67294-31.4458-10.43733-41.88313-47.23561-36.66447-78.68141 5.21867-21.00848 21.00847-36.66447 47.1018-41.88314 31.4458-5.21866 62.8916 10.43734 78.68141 36.66447 15.65599 26.22714 15.65599 47.23561 0 73.32893-31.4458 52.45428-99.55607 52.45428-141.57302 10.43734-31.4458-41.88313-21.00847-110.12722 26.22714-136.22054 15.78981-10.43733 36.66447-15.656 57.67294-15.656 10.43733 0 26.22714 5.21867 36.66447 10.43733 26.22713 10.43733 36.66446 36.66447 52.45427 57.67294 5.21866 15.78981 5.21866 26.22714 5.21866 41.88314-5.21866 68.11026-68.11026 115.34586-136.22053 99.55606-78.68141-21.00847-115.34588-115.34587-68.11027-183.45614 10.43733-15.656 21.00847-26.22714 36.66447-36.66447 73.32893-41.88313 157.22901-5.21866 188.67481 62.8916 36.66448 89.11874-36.66447 193.89349-131.00188 188.67483-26.22713-5.21866-52.45427-5.21866-73.32893-21.00848-21.00847-10.43734-26.22713-26.22714-36.66447-36.66447-62.8916-73.32893-31.4458-183.45615 52.45428-225.33928 36.66446-15.789805 78.68141-15.789805 120.56454-5.21866 89.11872 31.4458 131.00186 136.22053 89.11872 220.12061-10.43731 26.22714-31.44578 41.88313-52.45425 62.89162-21.00847 15.78977-47.23561 26.22712-73.32894 31.44578-41.88313 5.21866-83.90007-5.21866-120.56454-26.22712-89.11874-62.89162-110.12721-199.11215-21.00847-272.5749 15.656-10.43733 26.22714-31.445801 47.1018-36.664467 31.4458-10.437328 62.8916-21.00847 99.55607-15.655994 26.22713 5.218666 52.45427 15.655994 73.32893 26.227136 15.65599 15.789805 36.66446 21.008475 47.10181 41.883135 10.43732 15.7898 26.22713 31.4458 31.44578 52.45427 21.00847 62.8916 15.78981 131.00187-26.22712 183.45615-15.78981 21.00846-31.44582 41.88313-57.67295 52.45428-21.00847 5.21866-36.66446 21.00847-57.67294 21.00847-36.66446 0-78.68141 5.21866-115.34587-10.43735-110.12721-41.8831-157.22901-183.45614-99.55607-288.23087 15.7898-31.4458 41.88313-57.672937 73.32893-78.681407 41.88313-21.008474 83.90008-31.445802 131.00187-26.22714 57.67294 5.218666 104.77473 36.664468 146.79166 78.681417 21.00851 21.00847 26.22717 47.10179 36.66448 73.32893 10.43732 15.78981 5.21866 36.66446 10.43732 57.67293 10.43735 162.44767-183.45613 283.01222-330.24781 199.11215-26.22713-15.65601-47.23561-26.22713-62.8916-47.23563-57.67294-68.11025-73.32893-157.22899-47.23561-241.12907 15.78981-31.4458 36.66447-57.67293 57.67294-83.900069 36.66447-36.664468 89.11874-52.454275 136.22054-68.11027" opacity=".9"/></g></g><path d="m68.359766 46.448967c-.7002 0-1.3986.0405-2.1096.1125-11.3805 1.1592-19.665 11.3157-18.5067 22.698 1.1592 11.3796 11.3166 19.665 22.698 18.504 11.3787-1.1565 19.6641-11.3139 18.5049-22.6953-1.0872-10.6704-10.0872-18.6219-20.5875-18.6192zm109.068294 8.2125c-.414 0-.8433.0135-1.2645.0567-6.732.684-11.6262 6.7113-10.9404 13.4433.684 6.732 6.7104 11.6262 13.4424 10.9404 6.732-.684 11.6262-6.6825 10.9404-13.4145-.6426-6.3117-5.967-11.0268-12.177-11.025zm-68.22989 16.1442c-.414 0-.819.0126-1.2384.0558-6.732.6858-11.655004 6.7113-10.969204 13.4442.6858 6.732 6.711304 11.626203 13.444204 10.940403 6.73199-.6867 11.62619-6.684303 10.94039-13.416303-.6426-6.3117-5.967-11.0268-12.17699-11.025zm98.74619 10.6308c-.6723 0-1.3428.0153-2.025.0846-10.9224 1.1115-18.8874 10.8738-17.775 21.796203 1.1115 10.9215 10.8747 18.8865 21.7962 17.775 10.9215-1.1124 18.8595-10.8756 17.748-21.798-1.044-10.238403-9.6696-17.861403-19.746-17.858703zm-67.4172 21.460503c-1.1898 0-2.3886.045-3.6.1674-6.9093.7038-13.1454 3.3912-18.225 7.398-4.5792-3.762-10.59659-5.7672-16.95869-5.121-12.664804 1.2915-21.906004 12.591-20.615404 25.2576 1.2906 12.6657 12.6198 21.8772 25.285504 20.5875.4347-.045.8676-.1008 1.2942-.1692 4.032 10.2753 12.67379 18.0324 23.17499 21.0096-1.1718 3.1167-1.6542 6.534-1.2942 10.071 1.2465 12.2382 12.2013 21.159 24.4404 19.9116 12.24-1.2465 21.132-12.1734 19.8855-24.4125-.6228-6.12-3.654-11.4174-8.073-15.021 6.9363-7.2018 10.7964-17.2854 9.7038-28.0116-1.8477-18.1494-17.1558-31.6737-35.0154-31.6683zm97.9884 39.0645c-1.7847 0-3.5856.0684-5.4.252-29.025 2.9574-50.1498 28.8846-47.1933 57.9105.4446 4.3812 1.4148 8.577 2.8395 12.5442-15.255 6.9642-25.11 23.058-23.3154 40.6683 2.25 22.1076 21.9906 38.196 44.1 35.9442 3.7152-.378 7.2558-1.2645 10.575-2.5596.0423 1.2222.126 2.448.252 3.6828 2.799 27.4878 25.2144 48.2328 51.948 49.7538-4.4856 13.68-6.2505 28.4886-4.698 43.7346.045.441.09.882.1404 1.3212-.2808.0216-.5616.027-.8433.0567-17.7597 1.8072-30.6657 17.6778-28.8576 35.4366 1.809 17.757 17.6508 30.6927 35.4096 28.8846 7.1433-.729 13.5144-3.7287 18.45-8.2125 21.8358 25.956 55.71 41.0166 91.998 37.3212 58.2867-5.9346 100.7163-58.0077 94.779-116.2953-3.6306-35.6598-24.525-65.3823-53.55-81.7317 1.7163-6.7185 2.2914-13.851 1.548-21.15-3.393-33.327-33.1614-57.591-66.4875-54.198-22.7232 2.3148-41.2092 16.902-49.6125 36.5076-8.9505-7.308-20.151-11.8314-32.2317-12.4317 9.2205-10.6236 14.193-24.8652 12.6567-39.9645-2.772-27.2124-25.7328-47.4822-52.5096-47.475zm97.902 1.548c-.8946 0-1.7883.0468-2.6982.1395-14.562 1.4832-25.164 14.49-23.6817 29.052 1.4832 14.5638 14.49 25.1658 29.052 23.6826 14.5638-1.4832 25.1658-14.49 23.6826-29.052-1.3914-13.653-12.9204-23.8266-26.3547-23.823zm53.6076 23.7087c-.414 0-.846.0414-1.2654.0837-6.732.6867-11.6262 6.6843-10.9404 13.4163.684 6.732 6.7113 11.628 13.4433 10.9413 6.732-.6858 11.6262-6.6834 10.9404-13.4154-.6417-6.3117-5.967-11.0268-12.177-11.025zm-301.669194 47.8683c-.414 0-.8163.0135-1.2366.0567-6.732.684-11.655 6.6825-10.9692 13.4154.5715 5.616 4.869 9.9405 10.1817 10.827-.4995 2.3418-.6498 4.8042-.3942 7.3134 1.3185 12.9492 12.87 22.383 25.819204 21.0654 12.94829-1.3185 22.38299-12.897 21.06539-25.848-1.3194-12.9474-12.87-22.383-25.82099-21.0645-2.574.2637-5.0148.9378-7.254004 1.9413-1.8252-4.5855-6.3216-7.7076-11.3913-7.7058zm39.713394 68.3154c-.603 0-1.2168.0234-1.8288.0855-9.7947.9972-16.91639 9.7515-15.91829 19.548.9963 9.7938 9.75059 16.9155 19.54619 15.9174 9.7947-.9963 16.9155-9.7227 15.9183-19.5174-.936-9.1827-8.6832-16.0335-17.7192-16.0317zm43.902 33.525c-1.3203.002-2.6505.0612-3.9933.198-21.4857 2.187-37.1187 21.4038-34.929 42.8904 2.187 21.4866 21.375 37.1196 42.8616 34.9317 9.2025-.9387 17.3385-5.0058 23.4558-11.025 4.644 2.6658 10.1295 3.9573 15.8625 3.375 14.5638-1.485 25.1658-14.4918 23.6826-29.0547-1.4832-14.562-14.49-25.164-29.052-23.6808-1.6047.162-3.1455.4707-4.6422.9-6.966-11.2437-19.4256-18.5382-33.2433-18.5346z" fill="#775fa0" filter="url(#b)" opacity=".9" transform="matrix(1.0537061 0 0 1.0536932 -26.853047 -26.846595)"/><path d="m145.10352 23.261719c-5.16432 2.387641-10.24492 4.915536-15.20508 7.634765l110.48828 162.253906-154.501954-168.091796 89.076174 124.693356-89.294924-87.894528c-8.701186 7.600816-16.85205 15.788251-24.414063 24.5l266.917967 252.822268-284.328123-230.28321c-7.581482 11.05089-14.296213 22.717-20.044922 34.92579l302.707035 212.80078 100.6875 70.85156c.35026-.41755.68591-.84265 1.0332-1.26172l-95.41992-166.00195 15.01562 54.41797z"/><path d="m68.359766 46.448967c-.7002 0-1.3986.0405-2.1096.1125-11.3805 1.1592-19.665 11.3157-18.5067 22.698 1.1592 11.3796 11.3166 19.665 22.698 18.504 11.3787-1.1565 19.6641-11.3139 18.5049-22.6953-1.0872-10.6704-10.0872-18.6219-20.5875-18.6192zm109.068294 8.2125c-.414 0-.8433.0135-1.2645.0567-6.732.684-11.6262 6.7113-10.9404 13.4433.684 6.732 6.7104 11.6262 13.4424 10.9404 6.732-.684 11.6262-6.6825 10.9404-13.4145-.6426-6.3117-5.967-11.0268-12.177-11.025zm-68.22989 16.1442c-.414 0-.819.0126-1.2384.0558-6.732.6858-11.655004 6.7113-10.969204 13.4442.6858 6.732 6.711304 11.626203 13.444204 10.940403 6.73199-.6867 11.62619-6.684303 10.94039-13.416303-.6426-6.3117-5.967-11.0268-12.17699-11.025zm98.74619 10.6308c-.6723 0-1.3428.0153-2.025.0846-10.9224 1.1115-18.8874 10.8738-17.775 21.796203 1.1115 10.9215 10.8747 18.8865 21.7962 17.775 10.9215-1.1124 18.8595-10.8756 17.748-21.798-1.044-10.238403-9.6696-17.861403-19.746-17.858703zm-67.4172 21.460503c-1.1898 0-2.3886.045-3.6.1674-6.9093.7038-13.1454 3.3912-18.225 7.398-4.5792-3.762-10.59659-5.7672-16.95869-5.121-12.664804 1.2915-21.906004 12.591-20.615404 25.2576 1.2906 12.6657 12.6198 21.8772 25.285504 20.5875.4347-.045.8676-.1008 1.2942-.1692 4.032 10.2753 12.67379 18.0324 23.17499 21.0096-1.1718 3.1167-1.6542 6.534-1.2942 10.071 1.2465 12.2382 12.2013 21.159 24.4404 19.9116 12.24-1.2465 21.132-12.1734 19.8855-24.4125-.6228-6.12-3.654-11.4174-8.073-15.021 6.9363-7.2018 10.7964-17.2854 9.7038-28.0116-1.8477-18.1494-17.1558-31.6737-35.0154-31.6683zm97.9884 39.0645c-1.7847 0-3.5856.0684-5.4.252-29.025 2.9574-50.1498 28.8846-47.1933 57.9105.4446 4.3812 1.4148 8.577 2.8395 12.5442-15.255 6.9642-25.11 23.058-23.3154 40.6683 2.25 22.1076 21.9906 38.196 44.1 35.9442 3.7152-.378 7.2558-1.2645 10.575-2.5596.0423 1.2222.126 2.448.252 3.6828 2.799 27.4878 25.2144 48.2328 51.948 49.7538-4.4856 13.68-6.2505 28.4886-4.698 43.7346.045.441.09.882.1404 1.3212-.2808.0216-.5616.027-.8433.0567-17.7597 1.8072-30.6657 17.6778-28.8576 35.4366 1.809 17.757 17.6508 30.6927 35.4096 28.8846 7.1433-.729 13.5144-3.7287 18.45-8.2125 21.8358 25.956 55.71 41.0166 91.998 37.3212 58.2867-5.9346 100.7163-58.0077 94.779-116.2953-3.6306-35.6598-24.525-65.3823-53.55-81.7317 1.7163-6.7185 2.2914-13.851 1.548-21.15-3.393-33.327-33.1614-57.591-66.4875-54.198-22.7232 2.3148-41.2092 16.902-49.6125 36.5076-8.9505-7.308-20.151-11.8314-32.2317-12.4317 9.2205-10.6236 14.193-24.8652 12.6567-39.9645-2.772-27.2124-25.7328-47.4822-52.5096-47.475zm97.902 1.548c-.8946 0-1.7883.0468-2.6982.1395-14.562 1.4832-25.164 14.49-23.6817 29.052 1.4832 14.5638 14.49 25.1658 29.052 23.6826 14.5638-1.4832 25.1658-14.49 23.6826-29.052-1.3914-13.653-12.9204-23.8266-26.3547-23.823zm53.6076 23.7087c-.414 0-.846.0414-1.2654.0837-6.732.6867-11.6262 6.6843-10.9404 13.4163.684 6.732 6.7113 11.628 13.4433 10.9413 6.732-.6858 11.6262-6.6834 10.9404-13.4154-.6417-6.3117-5.967-11.0268-12.177-11.025zm-301.669194 47.8683c-.414 0-.8163.0135-1.2366.0567-6.732.684-11.655 6.6825-10.9692 13.4154.5715 5.616 4.869 9.9405 10.1817 10.827-.4995 2.3418-.6498 4.8042-.3942 7.3134 1.3185 12.9492 12.87 22.383 25.819204 21.0654 12.94829-1.3185 22.38299-12.897 21.06539-25.848-1.3194-12.9474-12.87-22.383-25.82099-21.0645-2.574.2637-5.0148.9378-7.254004 1.9413-1.8252-4.5855-6.3216-7.7076-11.3913-7.7058zm39.713394 68.3154c-.603 0-1.2168.0234-1.8288.0855-9.7947.9972-16.91639 9.7515-15.91829 19.548.9963 9.7938 9.75059 16.9155 19.54619 15.9174 9.7947-.9963 16.9155-9.7227 15.9183-19.5174-.936-9.1827-8.6832-16.0335-17.7192-16.0317zm43.902 33.525c-1.3203.002-2.6505.0612-3.9933.198-21.4857 2.187-37.1187 21.4038-34.929 42.8904 2.187 21.4866 21.375 37.1196 42.8616 34.9317 9.2025-.9387 17.3385-5.0058 23.4558-11.025 4.644 2.6658 10.1295 3.9573 15.8625 3.375 14.5638-1.485 25.1658-14.4918 23.6826-29.0547-1.4832-14.562-14.49-25.164-29.052-23.6808-1.6047.162-3.1455.4707-4.6422.9-6.966-11.2437-19.4256-18.5382-33.2433-18.5346z" fill="#775fa0" filter="url(#a)" opacity=".5" transform="matrix(1.0537061 0 0 1.0536932 -26.853047 -26.846595)"/></svg>