<svg height="500" viewBox="0 0 500 500" width="500" xmlns="http://www.w3.org/2000/svg" xmlns:xlink="http://www.w3.org/1999/xlink"><filter id="a" color-interpolation-filters="sRGB" height="1.054015" width="1.053986" x="-.026993" y="-.027007"><feGaussianBlur stdDeviation="5.7360718"/></filter><g transform="translate(.000015)"><circle cx="-249.99998" cy="250" fill="#e51a1a" r="250" transform="scale(-1 1)"/><path d="m181.33938 83.856939c97.52275-31.84694 203.27597 26.159281 217.12696 131.568651 10.04116 85.89723-45.79566 162.6049-131.11288 174.6444-76.26503 6.65-147.16573-45.4981-149.44603-126.3231.16679-50.89801 30.03241-87.97493 76.60677-108.40662 44.00125-16.48183 90.46555-3.00917 112.28155 39.63622 17.95322 40.0953 3.57775 87.31302-40.4313 103.80676-21.98685 8.23292-51.6578-5.55285-56.72562-31.5612 24.48155 21.7253 69.7211 11.74379 80.1808-21.06198 5.24648-24.88185-11.48198-41.52298-24.36368-55.64156-23.21161-15.22125-63.26956-13.16738-85.32502 12.05139-41.51846 46.43224-18.48961 112.52397 35.72777 131.08081 60.66482 17.11352 118.96473-29.63961 126.96137-92.39988 2.7637-54.83226-40.99398-106.19486-96.51046-114.27807-76.21988-10.3001-138.45939 50.84936-147.743191 124.09106-9.31956 73.21828 47.315731 138.67973 111.863041 158.33924 49.05305 9.49897 98.18701 2.07129 139.64056-27.40671 82.90715-58.95602 100.11901-177.97214 43.55644-260.39974-52.71171-79.885311-158.575-103.987181-249.15842-67.061741-86.705021 39.45169-149.0660905 134.549061-117.102931 229.167621 15.77888-74.65377 50.93986-153.5943 123.407351-187.514491 9.28724-4.60517 19.44718-8.7232 30.56692-12.33106zm-160.722321 286.075591c-52.57825-113.8254-.38403-260.89182 113.777041-317.643861 10.84604-5.32012 22.21219-9.7712 34.03518-13.36069 115.76394-28.75816 246.03978 34.00351 263.68455 158.897471 10.04526 85.91695-27.72044 168.80365-107.97396 206.83173-102.24035 46.26108-224.798841-11.43986-234.690511-131.24969-7.33455-123.78718 127.307171-194.136761 222.718561-137.24102-42.54074-27.89653-94.21826-33.44528-140.80825-12.98978-71.17376 32.62266-105.080851 118.0397-80.762351 190.63139 30.697281 88.13423 123.572931 132.04164 212.817841 105.59803 82.80488-25.06359 132.16266-100.33164 140.19255-180.04986 12.12434-145.020371-132.23823-245.3588802-265.59709-221.973611 7.92036-4.10499 20.5989-8.4277792 35.61563-11.7452592 60.06317-13.23825 124.63426-3.45807 179.45368 32.4903392 109.65077 71.904621 141.09454 217.803071 65.16008 333.599141-143.00482 218.07486-377.311781 117.06797-437.622951-1.79433" fill="#b21a1a"/></g><path d="m-1.6914062 1.0664062c18.6536932 29.5852568 37.3070052 59.1707538 55.9609372 88.7558598 23.819254 23.999744 47.642289 47.995744 71.460939 71.996094 11.5573.0921 23.11458.18778 34.67187.28125-4.69339 32.27473-9.3865 64.54951-14.08007 96.82422 30.56923-8.22052 61.13798-16.44285 91.70703-24.66406-9.95769 37.64648-19.91531 75.29298-29.87305 112.93945 27.55817-11.17588 55.11585-22.35296 82.67383-33.5293-1.83499 23.51305-3.67242 47.0259-5.50586 70.53906 19.10375-4.90267 38.2084-9.80182 57.3125-14.70312-1.50159 18.67646-3.00614 37.35269-4.50586 56.0293 20.92204 3.15101 41.84513 6.29504 62.76758 9.44336 14.90949 13.51173 29.81907 27.02337 44.72851 40.53515 19.70773 9.68087 39.41318 19.36639 59.1211 29.04688-12.51445-23.07801-25.02527-46.15798-37.53907-69.23633-15.86834-17.04566-31.73841-34.08972-47.60742-51.13477-7.60186-1.15359-15.20307-2.31152-22.80468-3.46679 2.27295-28.22134 4.54682-56.44261 6.81835-84.66407-19.18425 4.92378-38.36848 9.84767-57.55273 14.77149 2.1575-27.81185 4.31542-55.62368 6.47266-83.43555-20.4249 8.29356-40.8503 16.58585-61.27539 24.87891 8.57222-32.42579 17.14477-64.8515 25.71679-97.27735-34.56328 9.29052-69.12628 18.58212-103.68945 27.87305 3.63135-24.80797 7.26398-49.61574 10.89453-74.42383-27.37696-.21396-54.7539-.42983-82.13086-.64453-21.64513-21.083384-43.290666-42.166355-64.935546-63.249999-25.448854-15.463808-50.879595-30.958851-76.33901219-46.4043848-2.01264681-1.1073925-4.02529371-2.214785-6.03794061-3.3221774 1.1901042 2.0807291 2.3802084 4.1614583 3.5703126 6.2421874z" fill="#ff8066" filter="url(#a)" stroke-width="1.07946" transform="matrix(.9263879 0 0 .92638588 18.640964 18.68851)"/><path d="m0 0 55.843622 88.571263 70.726688 71.252957 36.14063.29492-13.97266 96.08398 92.10742-24.77148-29.73242 112.41016 81.96289-33.24219-5.54101 70.97656 57.32031-14.70508-4.58203 56.96485 61.52148 9.2539 44.96696 40.75278 53.23812 26.15738-34.42816-63.49914-46.95856-50.43836-23.96094-3.64258 3.54297-43.97656 3.20117-39.75-57.54492 14.76953 6.43946-82.99805-61.98829 25.16797 25.85743-97.80859-103.29297 27.76562 11.0039-75.16211-80.64062-.63281-65.347153-63.652539z" fill="#861313"/><path d="m25.658295 25.667304 104.880815 112.360966 3.7374 3.86718 3.69709.0349 45.52975.34603-10.8052 74.10173-2.21962 15.31662 14.26882-3.84968 81.45097-21.85221-23.51936 88.85918-4.96743 18.79411 17.33772-7.0231 58.22816-23.66262-4.68667 60.35962-1.14232 14.56696 13.17044-3.3779 44.20669-11.34807-4.49363 55.74095-.77208 9.62513 10.89289 1.63388 39.3814 5.93792 64.2361 57.97428-60.75837-68.08341-3.10922-3.01265-3.18118-.49103-31.66097-4.77062 4.89374-60.71782 1.17561-14.60018-13.21078 3.38837-44.26109 11.37606 4.84811-62.44082 1.28966-16.63245-13.75825 5.58491-54.65565 22.19994 22.8403-86.32535 4.29367-16.25674-16.25163 4.37741-83.45126 22.39567 10.24189-70.3202 1.69326-11.48443-12.58259-.10136-54.43633-.41939z" fill="#ff8066" stroke-width="36"/></svg>