<svg height="500" viewBox="0 0 500 500" width="500" xmlns="http://www.w3.org/2000/svg"><g transform="translate(.000015)"><circle cx="-249.99998" cy="250" fill="#e51a1a" r="250" transform="scale(-1 1)"/><path d="m181.33938 83.856939c97.52275-31.84694 203.27597 26.159281 217.12696 131.568651 10.04116 85.89723-45.79566 162.6049-131.11288 174.6444-76.26503 6.65-147.16573-45.4981-149.44603-126.3231.16679-50.89801 30.03241-87.97493 76.60677-108.40662 44.00125-16.48183 90.46555-3.00917 112.28155 39.63622 17.95322 40.0953 3.57775 87.31302-40.4313 103.80676-21.98685 8.23292-51.6578-5.55285-56.72562-31.5612 24.48155 21.7253 69.7211 11.74379 80.1808-21.06198 5.24648-24.88185-11.48198-41.52298-24.36368-55.64156-23.21161-15.22125-63.26956-13.16738-85.32502 12.05139-41.51846 46.43224-18.48961 112.52397 35.72777 131.08081 60.66482 17.11352 118.96473-29.63961 126.96137-92.39988 2.7637-54.83226-40.99398-106.19486-96.51046-114.27807-76.21988-10.3001-138.45939 50.84936-147.743191 124.09106-9.31956 73.21828 47.315731 138.67973 111.863041 158.33924 49.05305 9.49897 98.18701 2.07129 139.64056-27.40671 82.90715-58.95602 100.11901-177.97214 43.55644-260.39974-52.71171-79.885311-158.575-103.987181-249.15842-67.061741-86.705021 39.45169-149.0660905 134.549061-117.102931 229.167621 15.77888-74.65377 50.93986-153.5943 123.407351-187.514491 9.28724-4.60517 19.44718-8.7232 30.56692-12.33106zm-160.722321 286.075591c-52.57825-113.8254-.38403-260.89182 113.777041-317.643861 10.84604-5.32012 22.21219-9.7712 34.03518-13.36069 115.76394-28.75816 246.03978 34.00351 263.68455 158.897471 10.04526 85.91695-27.72044 168.80365-107.97396 206.83173-102.24035 46.26108-224.798841-11.43986-234.690511-131.24969-7.33455-123.78718 127.307171-194.136761 222.718561-137.24102-42.54074-27.89653-94.21826-33.44528-140.80825-12.98978-71.17376 32.62266-105.080851 118.0397-80.762351 190.63139 30.697281 88.13423 123.572931 132.04164 212.817841 105.59803 82.80488-25.06359 132.16266-100.33164 140.19255-180.04986 12.12434-145.020371-132.23823-245.3588802-265.59709-221.973611 7.92036-4.10499 20.5989-8.4277792 35.61563-11.7452592 60.06317-13.23825 124.63426-3.45807 179.45368 32.4903392 109.65077 71.904621 141.09454 217.803071 65.16008 333.599141-143.00482 218.07486-377.311781 117.06797-437.622951-1.79433" fill="#b21a1a"/></g><path d="m154.33594 19.537109a250 249.99998 0 0 0 -46.91602 25.705079c14.58005 17.603895 32.46398 33.132116 53.49219 46.710937 1.3148-26.130905-.81184-50.312652-6.57617-72.416016zm289.59765 63.535157c-27.57898 25.269034-51.56944 56.939284-71.60937 95.710934 42.46099-.91776 79.51189-10.64018 111.95117-27.69922-9.36153-24.56733-22.94182-47.55145-40.3418-68.011714zm-343.943356 242.636714v.00196c-8.369331.005-16.556977.58356-24.53125 1.38476-23.009828 2.33286-44.542634 8.17676-64.607422 17.50391 2.717828 8.58433 5.940436 17.05097 9.765626 25.33203 5.060123 9.97258 11.47443 19.77728 18.828124 29.31445 25.013041-18.89853 48.125474-42.98954 68.972658-73.33789-2.83019-.13635-5.63726-.19922-8.427736-.19922zm225.109376 68.79297c.69285 32.2368 7.49946 60.68652 19.3418 85.95899a250 249.99998 0 0 0 55.20507-31.29883c-20.12895-20.87542-44.8075-39.18402-74.54687-54.66016z" fill="#ff8066" opacity=".75"/><path d="m456.13937-.000005c-49.90145 22.25599-76.81125 61.910516-89.26597 112.497455 43.99546-25.373691 75.40556-61.462729 89.26597-112.497455zm-141.41861 13.118901c-28.73459 59.903355-52.12024 120.833354-70.96379 182.639004-13.62839-42.20174-30.64298-83.71557-51.47227-124.456521.25815 38.220991 3.67883 75.410071 9.87118 111.694171-40.70019-37.03704-83.56796-72.24728-128.855202-105.412619 31.272152 46.003199 65.048412 89.102619 101.000612 129.674709-27.69783-8.62428-59.4779-10.63878-92.054366-6.26057 20.531436 15.68815 44.629856 29.52644 70.223856 37.75223-50.60795 2.8912-101.424932 8.20377-152.470787 16.20201 43.38302 8.22683 86.588364 14.026 129.640087 17.66175-23.05853 9.33948-45.896541 19.77168-68.493127 31.40357 42.440327-.28839 83.606647-4.5093 123.669307-12.14049-17.49534 22.79395-33.07184 47.36018-47.02004 73.43649 26.89622-15.85594 52.23311-33.43171 75.82779-52.93388-13.06821 61.08311-22.27155 122.90763-28.31445 185.34039 22.62689-53.04922 42.89599-106.95731 60.48853-161.83963 11.79107 29.44255 25.28882 58.32721 40.29573 86.72108-2.5919-39.15536-7.31585-77.87866-14.41537-116.11958 48.94516 45.17684 100.85429 86.91613 155.17137 125.85861-40.59777-54.39468-83.85851-106.541-130.20549-156.08452 68.11061-2.61958 135.87319-10.0253 203.35568-21.30274-49.6433-7.14985-99.45173-12.38168-149.44201-15.49415 20.49171-9.05739 40.71796-18.93903 60.6986-29.57048-38.21594 2.54513-76.01905 7.13517-113.36126 14.01342 12.70868-17.12903 24.48408-35.29204 35.23629-54.58344-17.51102 8.6138-33.95915 18.21126-49.45204 28.6917 13.82487-60.36477 24.30954-121.94391 31.04013-184.889465zm-307.134225 100.818384c-1.342982-.0105-2.694325-.004-4.052984.0157 25.218797 37.35584 58.978332 57.81965 106.339089 51.42168-25.668202-35.86039-60.610815-51.12278-102.286105-51.43738zm390.959295 188.25465c-11.00201-.0314-22.39488 1.1137-34.13369 3.30332 36.50611 38.23882 80.5162 56.91149 134.98588 48.29454-27.26306-36.33233-61.56083-51.48251-100.85429-51.59786zm-238.2241 75.8002c-52.73163 24.27678-74.133653 67.2619-75.844516 122.00787 45.023866-27.62206 72.604646-66.77216 75.844516-122.00787z" fill="#ff8066" opacity=".75"/><path d="m73.875 28.996094-.376953.01563c-11.833048.494565-23.549582 4.210961-32.144531 12.667963-8.594949 8.457003-12.55536 20.741741-12.355469 32.867188l.08594 5.121094 27.703125 43.138671 12.753907-3.49219c.838275-.22953 1.608363-.54199 2.414062-.81054l21.572266 30.43945c-12.707279 17.294-23.662884 36.23998-32.642578 56.9375l-4.873047 11.23437 50.550778 50.55274 10.97266-22.9668c5.85436-12.25393 12.41994-23.61593 19.52343-34.33203l179.35547 253.07813 183.58594 36.55273-36.55273-183.58594-253.26368-179.49023c11.40465-7.69197 23.4255-14.74148 36.22071-21.01172l22.61718-11.08398-50.36718-50.35938-11.23243 4.873047c-21.42739 9.296023-40.96756 20.713907-58.73632 34.001953l-30.1875-21.396484c.25371-.750605.55091-1.46748.77148-2.244141l3.64844-12.847656-43.384767-27.859375z" fill="#861313"/><path d="m74.25015 46.99632c-17.442.729-27.5346 10.2213-27.2538 27.2547l17.7912 27.702c3.987-1.0917 8.424-3.4542 12.8232-6.6015l38.2266 53.9415c-15.3162 18.747-28.1322 39.996-38.439 63.7524l23.895 23.8968c10.1475-21.24 22.1706-40.3434 35.9262-57.4776l189.738 267.7275 150.1263 29.8917-29.8917-150.1272-267.795-189.7875c17.9163-14.4972 37.6578-26.919 59.0868-37.4202l-23.8977-23.895c-24.4854 10.6227-46.2978 23.9184-65.4615 39.8628l-53.7786-38.1141c3.0987-4.3407 5.4558-8.7615 6.6078-12.8178l-27.702-17.7885z" fill="#ff8066" stroke-width="36"/><path d="m164.15115 150.42502 200.0016 176.7312 23.0805 60.075-60.075-23.0805-176.7231-199.9917c4.419-4.7502 8.9955-9.324 13.7142-13.734z" fill="#861313"/></svg>