<svg height="500" viewBox="0 0 500 500" width="500" xmlns="http://www.w3.org/2000/svg"><g transform="translate(.000015)"><circle cx="-249.99998" cy="250" fill="#e51a1a" r="250" transform="scale(-1 1)"/><path d="m181.33938 83.856939c97.52275-31.84694 203.27597 26.159281 217.12696 131.568651 10.04116 85.89723-45.79566 162.6049-131.11288 174.6444-76.26503 6.65-147.16573-45.4981-149.44603-126.3231.16679-50.89801 30.03241-87.97493 76.60677-108.40662 44.00125-16.48183 90.46555-3.00917 112.28155 39.63622 17.95322 40.0953 3.57775 87.31302-40.4313 103.80676-21.98685 8.23292-51.6578-5.55285-56.72562-31.5612 24.48155 21.7253 69.7211 11.74379 80.1808-21.06198 5.24648-24.88185-11.48198-41.52298-24.36368-55.64156-23.21161-15.22125-63.26956-13.16738-85.32502 12.05139-41.51846 46.43224-18.48961 112.52397 35.72777 131.08081 60.66482 17.11352 118.96473-29.63961 126.96137-92.39988 2.7637-54.83226-40.99398-106.19486-96.51046-114.27807-76.21988-10.3001-138.45939 50.84936-147.743191 124.09106-9.31956 73.21828 47.315731 138.67973 111.863041 158.33924 49.05305 9.49897 98.18701 2.07129 139.64056-27.40671 82.90715-58.95602 100.11901-177.97214 43.55644-260.39974-52.71171-79.885311-158.575-103.987181-249.15842-67.061741-86.705021 39.45169-149.0660905 134.549061-117.102931 229.167621 15.77888-74.65377 50.93986-153.5943 123.407351-187.514491 9.28724-4.60517 19.44718-8.7232 30.56692-12.33106zm-160.722321 286.075591c-52.57825-113.8254-.38403-260.89182 113.777041-317.643861 10.84604-5.32012 22.21219-9.7712 34.03518-13.36069 115.76394-28.75816 246.03978 34.00351 263.68455 158.897471 10.04526 85.91695-27.72044 168.80365-107.97396 206.83173-102.24035 46.26108-224.798841-11.43986-234.690511-131.24969-7.33455-123.78718 127.307171-194.136761 222.718561-137.24102-42.54074-27.89653-94.21826-33.44528-140.80825-12.98978-71.17376 32.62266-105.080851 118.0397-80.762351 190.63139 30.697281 88.13423 123.572931 132.04164 212.817841 105.59803 82.80488-25.06359 132.16266-100.33164 140.19255-180.04986 12.12434-145.020371-132.23823-245.3588802-265.59709-221.973611 7.92036-4.10499 20.5989-8.4277792 35.61563-11.7452592 60.06317-13.23825 124.63426-3.45807 179.45368 32.4903392 109.65077 71.904621 141.09454 217.803071 65.16008 333.599141-143.00482 218.07486-377.311781 117.06797-437.622951-1.79433" fill="#b21a1a"/></g><path d="m0 0v81.699219c33.086243 24.824541 68.96035 58.205281 86.599609 81.742191 3.34838 4.46788 5.70257 8.27346 7.544922 11.58984-3.07119-.34589-6.684324-.86946-11.214843-1.94141l-63.9375-15.12695 47.300781 45.60156c30.530241 29.43499 59.356641 37.2841 84.228511 49.34766 24.87189 12.06356 49.13679 28.11992 81.60157 78.5957 12.57229 19.54741 12.42517 31.90115 8.73242 40.56836s-12.98419 16.16064-27.08594 19.93945c-16.27614 4.35975-40.65007-2.30841-50.11523-9.74023-2.12096-1.66533-3.04827-2.80631-3.54688-3.48047 13.77748-8.40176 29.86767-17.43808 45.64063-26.70117-32.19322-14.60894-76.86831-20.6168-102.93555 11.45898l5.85938-51.78711-39.789068 53.29493c-20.51457 27.47835-23.522381 59.44245-9.628906 83.54297 13.147755 22.80691 38.293188 37.39369 68.742184 43.16601l10.12696 8.22656 109.3164-.17968c.8532.0656 1.70672.12678 2.56055.18359 2.93641-.15787 5.86981-.36754 8.79883-.62891 2.52516-.14858 5.04927-.30989 7.58008-.54297 131.18602-8.61281 233.28727-117.36011 233.62109-248.82812-.006-3.82587-.0997-7.6511-.28125-11.47266l.11914-101.63476-1.25195-2.38477c-9.63977-38.354184-36.14402-65.195973-67.3125-68.775388-15.99771-1.837189-33.16604 3.711701-45.40235 16.300781-14.98373 20.788817-23.15761 40.506167-21.17578 63.193357l-22.29297 24.89258c-5.21239 5.82002-9.04289 12.37858-11.76953 19.37109-1.16307-4.36933-2.39862-8.72873-3.80273-13.03515-5.24463-16.08539-13.49658-33.13057-30.9668-42.43555l-34.64062-18.44922 8.61914 38.28907c1.29897 5.77108 1.55008 9.95712 1.58984 13.05468-11.22271-4.42551-35.62284-20.40387-60.99805-41.56836-47.91244-39.961931-102.34573-94.66389-134.937496-125.3457zm418.53516 186.21875c5.1838.16815 8.745 2.57433 12.375 8.90234 7.25997 12.65606 8.34566 38.31899 1.07422 51.71094-3.41859 6.29568-3.67737 5.55309-7.48829 5.30859-3.81089-.24447-11.84035-3.51007-19.89843-10.42578-9.04256-7.76058-17.51086-19.57602-23.30274-31.82031l18.19531-15.00976c8.21553-6.77691 13.86112-8.83416 19.04493-8.66602z" fill="#861313"/><path d="m0 0v59.357422c74.24595 52.462768 168.83364 152.555928 78.785156 131.249998 55.291434 53.3079 100.795004 25.93067 168.478514 131.16406 29.44823 45.7861 7.23381 77.96581-28.83398 87.63086-46.35048 12.41821-110.69971-29.47644-55.97266-52.57812-57.40179-1.40367-64.815528 46.44435-37.49023 77.67383-27.037783-9.32723-44.541093-33.21298-41.660159-58.66993-34.891609 46.73577-5.190559 90.30438 52.578129 99.15821l30.72656 24.96289 80.82812-.13281c.8532.0656 1.70672.12678 2.56055.18359 2.93641-.15787 5.86981-.36754 8.79883-.62891 2.52516-.14858 5.04927-.30989 7.58008-.54297 131.18602-8.61281 233.28727-117.36011 233.62109-248.82812-.006-3.82587-.0997-7.6511-.28125-11.47266l.07422-63.02539-17.9043-34.07812c-15.2488-68.063949-91.84571-84.960889-100.07031-3.39258 14.14329-35.25946 49.33271-19.96535 81.41406 18.0918-10.91966-7.25848-23.46707-11.12264-35.05469-10.74219-19.09972.62924-36.16578 11.69848-40.14062 35.61719 54.11621-44.63992 81.92442 33.60964 59.76758 74.42187-23.95357 44.12589-91.85861-19.8147-91.99414-73.29297-27.08038 30.2372-7.56319 104.83998 50.69726 118.63477-110.41151-11.98646-73.52168-126.57666-119.10547-150.85547 27.8103 123.55576-184.39969-102.219853-238.21484-149.90625z" fill="#ff8066" stroke-width="36"/></svg>