<svg height="500" viewBox="0 0 500 500" width="500" xmlns="http://www.w3.org/2000/svg" xmlns:xlink="http://www.w3.org/1999/xlink"><filter id="a" color-interpolation-filters="sRGB" height="1.098622" width="1.074687" x="-.037343" y="-.049311"><feGaussianBlur stdDeviation="1.6153201"/></filter><g transform="translate(-1000 -500)"><circle cx="1250" cy="750" fill="#8f29a3" r="250"/><path d="m1250.0521 500.09326-.061 248.75004-15.9199-248.2399a249.99917 250.18666 0 0 0 -31.6776 4.06945l45.0428 231.17052c-.102.0363-.2268.0547-.3789.0547l2.377 12.94521-.25-.53361-.5352-1.34279-3.3574-10.61339c-.1814.0698-.3456.12506-.5117.12506l-.1211.0782-83.1951-220.24831a249.99917 250.18666 0 0 0 -14.7401 6.13348l96.9 214.60543-.2187.11532 2.3047 4.43886 2.3437 5.21678.055.0488.416.7486.7461 1.26658v.0314l-.7461-1.29782-.4707-.79746-5.5273-9.21c-.1841.12151-.3808.23754-.5664.39678l-123.4077-200.53639a249.99917 250.18666 0 0 0 -34.1776 25.40763l164.5483 186.40079-.3984-.58052.832 1.02616v.0508l-.3262-.32448-.094-.12903v-.006-.002l-176.1809-175.46484a249.99917 250.18666 0 0 0 -21.0273 24.05115l186.5306 143.42536-.1425.18569 10.4687 8.26398-2.0957-1.07698-9.4082-5.66242c-.1395.18156-.2273.33335-.3066.47301l-208.0031-109.74966a249.99917 250.18666 0 0 0 -7 14.40723l214.5266 96.34337c-.074.17741-.1655.3791-.2578.59419l12.1758 4.73596-.037-.0253.5254.23653-.4863-.21109.3574.18179.2129.0802-.2129-.0508v-.0295l-12.8066-4.08117c-.056.14944-.1255.33501-.1758.5082l-224.9661-68.33223a249.99917 250.18666 0 0 0 -8.7656 41.69908l246.1613 30.77687h-1.2363l-246.3644-14.82161a249.99917 250.18666 0 0 0 -.4219 14.51082 249.99917 250.18666 0 0 0 .6113 17.47203l234.4934-16.18786h-.027l.3066-.0234-.2773.0234 12.9687-.73492-7.6699 1.8549-.3028.0508-4.789.9382.07.23845-228.2004 55.91086a249.99917 250.18666 0 0 0 4.2871 15.37279l224.173-70.26921c.093.36314.1859.69573.2793.95971l11.9648-4.46623-6.7285 3.52803-218.2141 100.03556a249.99917 250.18666 0 0 0 21.0155 36.99246l204.0072-139.70972-2.9414 2.38851-191.599 150.2058a249.99917 250.18666 0 0 0 21.2792 23.80097l164.7143-167.43742c.2793.26396.5666.50585.8359.80333l7.6309-8.62753v-.0314l.7578-.86587.1855-.23653.7754-.84633.02-.0645.057-.0272-.023.15832-.1035.11531.051-.18179-.068.18179-1.3203 1.73762.6133-1.0457-.1856.20916-.7578.89715-2.5996 3.67852-4.2753 5.57643.287.1818-133.9214 192.92518a249.99917 250.18666 0 0 0 13.3768 8.68037l121.3629-200.99764c.1115.0698.2562.1641.4043.23263l6.9082-11.76855-.2793.71929-100.1481 226.51466a249.99917 250.18666 0 0 0 40.1346 13.79743l59.6931-236.78211-1.5742 9.22563.2364.0566-42.7675 230.89101a249.99917 250.18666 0 0 0 31.6386 3.76263l12.9316-234.50119c.2415.0238.455.0234.6602.0234h.031v-12.36276l.055-.87175.3809 3.35211.6328 9.85892c.1939 0 .3385-.0234.5058-.0234l27.248 233.23258a249.99917 250.18666 0 0 0 15.7831-2.3455l-42.1484-231.0161c.254-.028.4739-.0916.707-.11531l-2.0644-10.71502-.055-.13878-.3203-1.79235.018.0295.3575 1.90182 74.3923 234.18055a249.99917 250.18666 0 0 0 39.205-16.19959l-111.1503-215.75097 4.1406 6.7179.2696-.18569 120.6715 201.44522a249.99917 250.18666 0 0 0 26.2108-18.10533l-145.5071-184.32505c.254-.18717.4204-.39029.6562-.60397l-8.457-9.554 3.3672 3.03156 5.8437 5.83834.2872-.30686 174.8256 156.82795a249.99917 250.18666 0 0 0 10.2715-12.18293l-184.478-145.35845c.1296-.15783.305-.33279.4082-.48083l-9.3632-7.21437 211.5852 126.78601a249.99917 250.18666 0 0 0 18.7245-38.19257l-229.6555-89.16613 11.0274 3.36579.012-.18569 223.9289 70.91228a249.99917 250.18666 0 0 0 7.6836-30.99187l-231.1887-41.80463c0-.16199.037-.30149.037-.44955l-7.3671-.90693-4.5508-.79941 12.0312.70755c.03-.32965.029-.62841.029-.96361l235.009 1.78454a249.99917 250.18666 0 0 0 .011-2.19892 249.99917 250.18666 0 0 0 -.3809-13.81303l-234.6691 13.37131v-.33226l-11.7754.81114-2.207.14075 2.1641-.14075h.043l242.6422-45.60435a249.99917 250.18666 0 0 0 -11.2772-41.04821l-231.0032 85.65376-.2598.0684 10.5078-4.79069c-.1716-.35894-.395-.80876-.6601-1.20402l208.1651-109.51534a249.99917 250.18666 0 0 0 -7.877-13.90491l-200.7337 122.63837-.2109-.32833-5.6211 3.9033-4.707 2.86542 9.6699-7.59747-.1446-.20719 183.392-147.45376a249.99917 250.18666 0 0 0 -29.3651-30.85701l-161.2514 182.96656-2.3184 2.37091 151.2905-195.53064a249.99917 250.18666 0 0 0 -26.4154-17.96062l-119.2496 202.94829-.094-.0664-7.0644 11.68841 5.539-12.45265c-.2748-.15364-.5655-.24794-.8711-.35962l83.404-220.18189a249.99917 250.18666 0 0 0 -15.121-5.19332l-69.2811 225.07807c-.1088-.0378-.2229-.0651-.3808-.11531l-1.8809 7.53882-1.1289 3.69807 2.1055-11.46558c-.2011-.0197-.4082-.0561-.6133-.0743l40.1268-232.08917a249.99917 250.18666 0 0 0 -42.4354-3.64138zm-1.9453 235.66215 1.0117 8.77021v.043l.8711 4.45646v.46128l.029-.16807.023.62741v.1036l-.057-.1036v-.43977l-.066.30686-.2383-.49451-.5625-4.74964zm-9.3652 5.00568 7.0859 6.37391-.025-.0197zm25.7675 6.02013-11.8261 2.9006h-.057zm-12.1504.11531-1.6269 2.78332-.3496.40069.1113-.44954-.092.20719-.02.18179-.051.10553v-.0253l.051-.0802v-.16221l.02-.0197v-.10556l.012-.0234.082-.12118v-.0234l.033-.0272.061-.1505v.0197l-.061.13096-.033.0508zm-6.5292.23849 3.3242 2.54682.3633.56682-.4493-.16807.2012.13878h-.022l-.2188-.13878h.037zm5.0331.24627-.2968 1.58908.2968-.84047-.3339 1.37603-.1016.1505.1387-.68606.2617-1.56758zm-.582.38505-.086 1.71808-.057.19351-.1172-.46715zm3.1445.7447-2.2754 1.58908h-.023l-.4121.27757-.2871.11728.2129-.27557.074-.0215.8867-.71342zm-4.0429.57856.1348.14075v.0469l-.084-.1251zm3.8633.31665h.029l-.1738.0802zm-3.5254.18179.1835.3577v.0392l-.1835-.35376zm.416.0938.02.26385v.0392l.039.0958.047.11728-.047.0215-.039-.1192.039-.0197-.039-.0605v-.0352l-.057-.26192zm2.2207.0644-.07.0272-1.0156.30686.1562-.0605zm-5.6387.0665 2.3692.40655.3457.21498.029.0606-.3124.0644zm2.1641.31271h.053l.094.0314zm.7265.19155h.02v.0196zm-.164.0606h.02l.074.0802zm.2148.1818h.024l-.024.0314zm-.3359.16808h.057l.2461.0352-.8125.32836zm-.3887.0352h.2168l-.9316.47886.2637-.0527-.025.0272-.2383.0253-2.0253.39287v.0234l-5.2422.93428 5.2422-.95774zm1.7774.0234.5078.043.7519.2228-.8457-.0841zm-.2188.16418.035.0178.1113.22088.3282.16611 1.4394 1.4034-1.3496-1.00858-.2344-.2971-.1855-.26385-.018-.0333-.092-.18766h-.035zm-1.0625.0802-.25.27364h-.029l-2.7812 1.26461 2.2988-1.41316zm1.5703.0997.1485.0253.031.0314zm.2207.0253 1.9356.60398-1.9063-.57074zm-1.1796.17201.031.1251.022-.0978-.022.13092v.006l.076.23066.125 1.89594-.2324-1.35256.031-.77402-.088.50819v-.0919l-.031-.18569.031.14272v-.26385zm.7226.0919.061.0664.088.14661-.037-.0314zm-1.1406.1818-.2442.52578-3.9492 12.85138 3.9219-12.85138h.027l.084-.28732.01-.0117zm-.088.10552-.065.11339.041-.0978zm1.4648.0802.033.0234.1152.18962-.092-.0919zm-.4375.21306.023.0295.029.22669zm-1.7304.26581v.0295l.051-.0295zm2.2929 1.35257 4.8828 10.7893-4.8828-10.73457z" fill="#aa40bf"/></g><path d="m140.23183 107.6348c-1.56605-12.430299 14.51988-20.601984 23.52229-29.315268 12.96366-12.547321 43.29747-32.477018 43.29747-32.477018s-38.45325-4.370879-56.84701.183049c-23.68691 5.864405-47.46308 16.834599-64.859691 33.946541-16.108071 15.844482-30.34124 37.029956-32.418663 59.528886-2.081594 22.5441 2.733382 46.64664 21.012468 64.58794 33.423406 24.35407 61.617786 31.04435 96.105656 34.74017 10.15009 14.59642 24.33636 26.23931 40.91881 35.47432v52.48713h8.4927v151.48241c2.76826 5.49223 5.5401 10.59398 10.1372 14.1212 5.6985 4.37229 11.74987 7.60584 20.16085 7.60584 12.73205 0 20.73376-7.07556 25.1061-12.62941h50.6723v-52.32462h-14.43445v-5.41121h14.43445v-52.32463h-45.02616l.0117-50.51958h8.02871v-54.50752c16.58301-7.21435 30.77039-18.85572 40.92077-33.45197 34.06994-4.46641 73.79305-13.60147 96.09-34.74996 18.27351-17.9427 24.6012-42.37493 20.99876-64.58794-3.49747-21.56582-15.52929-42.359782-30.85309-58.006014-16.36739-16.711767-38.62045-28.340423-61.2568-34.237014-18.68981-4.868546-34.74297.58344-57.94052 0 22.46932 15.110365 30.95931 19.454395 42.20026 33.448059 7.31666 9.108389 18.17588 20.182819 15.33691 31.515809-2.52794 10.09134-14.09102 13.50355-25.27344 18.31074-11.78766-15.75784-28.07198-27.99673-47.03775-34.599215l-31.9758-95.9255474-31.97583 95.9255474c-18.96935 6.603645-35.25553 18.847005-47.04362 34.609005-23.38052-9.80179-28.91529-10.28495-30.50458-22.89973z" fill="#6a1f7a"/><path d="m249.75561 57.054902-11.97576 35.926365c3.92426-.489856 7.92069-.743354 11.97576-.743354s8.0524.252596 11.97575.743354zm-96.82996 6.830917c-84.056731 17.192765-138.043708 140.175441 8.79214 155.905851-4.31037-10.6388-6.68477-22.23747-6.68477-34.38013 0-13.67807 3.0104-26.66872 8.40964-38.37113-51.05416-21.4039-55.04788-49.752382-10.51521-83.154591zm193.63105 0c44.52726 33.396797 40.54166 61.741671-10.49175 83.143761 5.40194 11.70602 8.41415 24.70028 8.41415 38.38106 0 12.14266-2.3726 23.74043-6.68297 34.38013 146.79977-15.74485 92.81369-138.711284 8.75967-155.904049zm-96.80109 44.590401c-43.52048 0-78.48518 34.42883-78.48518 76.93352 0 42.5083 34.9647 76.93533 78.48518 76.93533 43.52138 0 78.48518-34.42793 78.48518-76.93353 0-42.50649-34.9638-76.93532-78.48518-76.93532zm-20.74896 167.84733v32.42521h41.49791v-32.42521c-6.68206 1.47589-13.62574 2.25984-20.74895 2.25984s-14.06599-.78486-20.74896-2.25984zm8.49264 48.66352v148.77542c1.30267 2.44297 5.09252 8.19494 12.25542 8.19494 7.12411 0 11.22699-5.81602 12.68392-8.33206l.0379-148.6383h-24.97633zm41.1975 70.36602-.004 16.23832h28.79775v-16.23832zm-.007 28.86812-.005 16.23831h14.3709v-16.23831h-14.36459zm-.009 28.86811-.003 16.23831h28.81218v-16.23831h-28.80767z" fill="#eed9f2" stroke-width="36"/><path d="m239.63672 129.22461v5.3418c-10.03627 2.02098-19.17563 7.27559-26.81984 13.97586-8.75926 7.64841-15.77897 16.98104-23.14891 25.9089-3.55693 4.38573-7.72707 8.20712-11.67629 12.22708-.63179.44778.54004.89556.77796 1.34335 3.70886 3.75355 7.58729 7.35695 10.91395 11.46668 7.49058 9.08108 14.63219 18.57724 23.59571 26.29492 7.54707 6.50378 16.52378 11.59302 26.35742 13.57227v7.3418h20.23828c0-2.44662 0-4.89323 0-7.33985 9.82017-1.97879 18.78732-7.05618 26.32743-13.54875 8.4471-7.26965 15.35689-16.18614 22.32491-24.75203 2.63923-3.26445 5.4511-6.38617 8.47643-9.2979 1.60019-1.59938 3.19969-3.19946 4.80092-4.7978-3.96394-4.04056-8.16057-7.87022-11.75191-12.25913-7.45164-9.0016-14.593-18.54583-23.49689-26.28043-7.61423-6.64271-16.70627-11.84422-26.68089-13.85497 0-2.44727 0-4.89453 0-7.3418-6.74609 0-13.49219 0-20.23828 0z" fill="#aa40bf" filter="url(#a)"/><path d="m241.63645 129.22518h16.23832v6.99871c13.23061 2.2463 23.72327 9.75381 31.90197 17.93431 9.78809 9.78539 17.19457 20.80309 23.45534 27.06386l5.74295 5.73934-5.74295 5.74025c-6.26077 6.26078-13.66725 17.27757-23.45534 27.06386-8.1787 8.1796-18.67136 15.68801-31.90197 17.93431v6.99781h-16.23832v-6.99871c-13.23061-2.2463-23.72327-9.75381-31.90197-17.93431-9.78809-9.78539-17.19457-20.80309-23.45534-27.06386l-5.74205-5.73935 5.74205-5.74024c6.26077-6.26077 13.66725-17.27757 23.45534-27.06386 8.1787-8.1796 18.67136-15.68801 31.90197-17.93431z" fill="#6a1f7a"/><path d="m243.41016 149.05078c-3.17897.77687-6.35481 1.64928-9.30389 3.09805-8.05786 3.8433-14.54911 10.20074-20.38557 16.82383-5.33958 6.13035-10.23405 12.6339-15.61914 18.72656 7.97158 8.98275 14.82049 18.99432 23.75329 27.09562 5.58466 5.10203 12.19739 9.32969 19.63639 11.05547 1.47419.38942 2.9485.77837 4.42282 1.16727 0-4.82097 0-9.64193 0-14.46289-3.85722-1.06402-7.72095-2.44445-10.89858-4.94899-6.50948-4.84934-10.42108-13.01606-9.95282-21.13976.37257-8.41439 5.37823-16.4201 12.73797-20.49957 2.12225-1.2306 4.46096-2.0359 6.79138-2.74497 1.16479-.5118 1.51966-1.90722 1.30447-3.0671.0411-3.91623.006-7.83764.0176-11.75586-.83463.21745-1.66927.43489-2.5039.65234zm12.79296-.002c-1.3217-.009-2.34822 1.30783-2.11703 2.59005.0636 3.73096.009 7.47341.0272 11.20878 3.85548 1.06504 7.72032 2.44069 10.89646 4.94532 6.5572 4.88355 10.47599 13.13532 9.94524 21.3152-.43408 8.40652-5.48767 16.37322-12.86864 20.40525-2.08421 1.18904-4.37192 1.97102-6.65101 2.66556-1.16479.5118-1.51965 1.90722-1.30447 3.0671-.0411 3.90777-.006 7.82071-.0176 11.73047 4.85274-1.1699 9.79183-2.37218 14.13376-4.93083 7.89621-4.40915 14.21597-11.06471 20.00953-17.89781 3.74011-4.4317 7.29146-8.97671 11.00825-13.3557.88363-1.03109 1.76726-2.06217 2.6512-3.093-5.87819-6.69186-11.21552-13.84045-17.16517-20.4696-5.18366-5.71007-10.96274-11.07886-17.8778-14.61829-3.02333-1.5411-6.26436-2.60676-9.55724-3.39237-.35907-.10524-.73634-.19868-1.11269-.17013zm-8.20312 21.82622c-.68959.13157-1.33106.43253-2.04033.52053-5.77698 1.36194-10.63478 6.03685-12.12975 11.79393-1.69939 6.07968.27978 13.07479 5.11168 17.1923 4.95377 4.3779 12.55356 5.33935 18.47379 2.42285 5.34196-2.53861 9.05236-8.12046 9.34843-14.02564.44309-6.11253-2.72481-12.37262-8.04247-15.47379-2.97289-1.81606-6.51142-2.5099-9.96095-2.42069-.25197-.0203-.51027-.0609-.7604-.009z" fill="#aa40bf" filter="url(#a)" transform="matrix(1.002365 0 0 1.002365 -.84909 -1.1825)"/><path d="m249.75561 174.15298c-7.17012 0-12.81023 5.6383-12.81023 12.80842 0 7.17013 5.64011 12.81024 12.81023 12.81024 7.17192 0 12.81022-5.64011 12.81022-12.81024 0-7.17012-5.6383-12.81022-12.81022-12.81022zm8.11916-21.39849v6.33475c12.04161 3.54536 20.92938 14.74078 20.92938 27.87216 0 13.13139-8.88777 24.32681-20.92938 27.87217v6.33475c7.79799-1.94409 14.19589-6.65771 20.42148-12.8824 6.43759-6.43849 12.14084-14.28971 18.20946-21.32452-6.06862-7.0366-11.77277-14.88512-18.20946-21.32361-6.22469-6.22469-12.62349-10.93921-20.42148-12.8824zm-16.23832 0c-7.798 1.94409-14.19589 6.65771-20.42148 12.8824-6.43669 6.43849-12.14085 14.28971-18.20946 21.32451 6.06861 7.03661 11.77277 14.88513 18.20946 21.32362 6.22469 6.22469 12.62348 10.93921 20.42148 12.8824v-6.33295c-12.04161-3.54536-20.92938-14.74077-20.92938-27.87307 0-13.13138 8.88777-24.3268 20.92938-27.87216z" fill="#eed9f2"/></svg>