<svg height="500.0004" viewBox="0 0 500 500.0004" width="500" xmlns="http://www.w3.org/2000/svg"><g transform="translate(-500 -500)"><path d="m999.99997 750a249.99997 250 0 0 1 -249.99997 250 249.99997 250 0 0 1 -249.99997-250 249.99997 250 0 0 1 249.99997-250 249.99997 250 0 0 1 249.99997 250z" fill="#ffe24c"/><path d="m1000 750.00632-194.05817-2.60063 192.98367-20.4591-193.45987 15.31075 190.28547-38.19139-191.22567 33.10816 185.92267-55.58184-187.34707 50.61663 180.01317-72.50831-181.88127 67.68555 172.56127-88.82024-174.86477 84.18876 163.62798-104.35075-166.35478 99.94311 153.30278-119.00625-156.40808 114.88758 141.65488-132.65651-145.14668 128.82271 128.82258-145.14278-132.65648 141.65492 114.88758-156.42029-119.00218 153.31093 99.94719-166.3385-104.34669 163.60764 84.17649-174.84041-88.81609 172.54909 67.67739-181.89345-72.48799 180.02133 50.6167-187.35925-55.5941 185.94294 33.1-191.23373-38.1995 190.27732 15.3474-193.45586-20.4957 192.97968-2.59249-194.05413-2.5681 194.05413-20.4916-192.97968 15.327 193.45586-38.2004-190.27732 33.1171 191.23373-55.5936-185.94294 50.6162 187.35925-72.51029-180.02133 67.69979 181.89345-88.81699-172.54909 84.17729 174.84041-104.36289-163.60764 99.96869 166.3385-119.00618-153.31093 114.86968 156.42029-132.64018-141.65492 128.81968 145.14278-145.14988-128.82271 141.67318 132.65651-156.42638-114.88758 153.29788 119.00625-166.34218-99.94311 163.62828 104.35075-174.86477-84.18876 172.54667 88.82024-181.87387-67.68555 180.00617 72.50831-187.35587-50.61663 185.94077 55.58184-191.21897-33.10816 190.28097 38.19139-193.47947-15.31075 192.98647 20.4591-194.04384 2.60063 194.04384 2.58435-192.98647 20.46723 193.47947-15.31481-190.28097 38.20361 191.21897-33.12445-185.94077 55.58997 187.35587-50.60849-180.00617 72.5083 181.87387-67.68553-172.54667 88.81211 174.86477-84.17656-163.62828 104.33851 166.34218-99.95936-153.29788 119.0103 156.42638-114.87941-141.67318 132.66054 145.14988-128.83082-128.81968 145.13868 132.64018-141.66304-114.86968 156.42028 119.00618-153.28243-99.96869 166.32222 104.36289-163.59543-84.17729 174.84852 88.81699-172.55719-67.69979 181.8975 72.51029-180.02538-50.6162 187.35108 55.5936-185.93884-33.1171 191.21336 38.2004-190.26101-15.327 193.47618 20.4916-192.99594 2.5681 194.05003 2.59249-194.05003 20.4957 192.99594-15.3474-193.47618 38.1995 190.26101-33.1-191.21336 55.5941 185.93884-50.6167-187.35108 72.48799 180.02538-67.67739-181.8975 88.81609 172.55719-84.17649-174.84852 104.34669 163.59543-99.94719-166.32222 119.00218 153.28243-114.88758-156.42028 132.65648 141.66304-128.82258-145.13868 145.14668 128.83082-141.65488-132.66054 156.40808 114.87941-153.30278-119.0103 166.35478 99.95936-163.62798-104.33851 174.86477 84.17656-172.56127-88.81211 181.88127 67.68553-180.01317-72.5083 187.34707 50.60849-185.92267-55.58997 191.22567 33.12445-190.28547-38.20361 193.45987 15.31481-192.98367-20.46723z" fill="#fffbb3" fill-rule="evenodd"/></g><path d="m238.55859 288.3418 15.83403-53.10538 33.42974-112.08584-1.5293-29.408203-10.10133-9.910156-133.25889-83.832221-32.87425 2.46875-72.056637 39.404297 22.664063 72.414063-25.332032 21.38476-8.890625 143.17383 3.410157 14.7168 6.076171 34.55273 59.240235 21.23829 24.962888 1.72265 108.46094-50.04883z" fill="#f2c80d"/><path d="m128.0594 17.872859 6.61921 25.288381-20.48299-22.439389-54.606718 29.862015 21.828058 69.741114-28.594758 24.13952-7.594985 122.31611 60.506783 23.24658-5.53075-21.09861 21.42218 23.46029 89.19299-51.83247 19.15442-64.42289-36.72424-6.84956 41.70221-9.88912 19.9662-67.16844-126.85761-74.355573zm139.89131 69.717961-1.0678 3.55273-23.19319 78.05532 7.06167 15.27267 18.93318-63.48842-1.73444-33.39161zm-29.16464 98.04999-18.12319 60.95592.64599 36.60267 24.5371-82.30906-7.0605-15.24953zm-28.98118 69.73975-89.13814 51.83178-1.56689.91474-3.5214 25.22576 94.81638-43.75103-.58995-34.22057zm-163.987725 25.03247 6.029259 34.2866 52.560196 18.84378 4.05589-29.05346-62.645345-24.07624z" fill="#fffdcc" stroke-width="36"/><path d="m115.20974 55.30519 82.99855 67.95317-6.3791 10.37916-82.99855-67.95318zm-12.79478 21.481107 66.48001 54.427603 10.14003 8.29379-12.1311 3.08312c-15.03541 3.83383-26.76946 9.60735-35.63637 16.76046 18.39928 3.5051 29.67437 12.78371 33.82995 25.14001 4.94376 14.69893-1.00054 31.06941-12.33403 41.87733l-7.02333-9.80405c8.64274-8.24207 11.89925-19.04795 9.07045-27.45812-2.79635-8.31218-12.33699-16.87208-34.54911-18.33265-3.11846 4.24013-5.55258 8.76885-7.35546 13.50583-7.10179 18.65797-4.75793 41.79157 6.83926 66.14549l-9.6604 6.10498c-12.72517-26.72308-16.092-54.20708-7.2823-77.35565 7.70471-20.24378 24.47397-36.25218 50.12784-45.45049l-56.89455-46.57892 6.3797-10.358733z" fill="#ffe24c"/><path d="m171.37764 349.89062-23.58095 34.62227-9.64453 14.15821-6.25177 51.32617 5.02539 5.98828 36.93282 44.01485 33.46553-.26357 4.32821-11.86456 16.6543-38.33008-.93945-29.75-.008-22.4375-45.57138-48.72595z" fill="#f2c80d"/><path d="m156.16947 404.19522 31.04599 36.98653 18.71314-40.38954-27.45026-29.35122zm-5.45584 40.21938 33.47953 39.89951-.79289-29.37266-29.66316-35.34868zm43.675 8.25297.75514 28.03119 15.04366-34.62553-.81059-25.71342z" fill="#fffdcc" stroke-width="36"/><path d="m275.60937 426.79297 7.25977 41.28515 13.24023 1.61329 128.97461 15.7207 30.39844-4.65625 44.51758-125.74219-3.26563-42.56836-2.57617-21.68359-41.75-96.44531-8.22265-11.89844-86.77539-25.50195-71.56836 113.5664 7.30273 29.99414-56.06836 41.29297 24.63088 65.51285z" fill="#f2c80d"/><path d="m298.28724 451.82431 136.7613 16.66984-5.22009-29.68461-136.76111-16.66859zm-5.21878-41.04005 18.56999-15.12343-27.38314 5.13612-24.6671-53.25225 53.88028-39.68176-8.33463-34.23203 60.2526-95.6091 57.69391 16.95469-15.49945 12.61313 28.63441-5.36562 38.64311 89.2623-20.42272 58.94891-31.10433-15.70964 25.79888 31.0267-21.29646 61.45856-134.76648-16.42504zm142.18481 28.68647 5.24001 29.68709 41.26822-116.56205-2.97505-38.77243z" fill="#fffdcc" stroke-width="36"/><path d="m344.65883 385.5072 64.58897-3.32104 1.01721-12.14023-64.58898 3.32104zm45.70116-27.10785 13.08293-.6664-7.94063-9.67551c-9.83424-12.00206-15.85995-23.60863-18.75887-34.62613l-2.09007-15.72384c.003-5.26341.72798-10.35345 2.08486-15.23692 5.34395-19.23531 20.9478-36.47414 44.72653-49.20912l-4.15934-10.64397c-26.09179 13.97397-45.09884 34.10946-51.73006 57.97353-5.7987 20.86979-1.78684 43.70358 13.41729 66.32137l-73.43257 3.77405-1.00484 12.12396z" fill="#ffe24c"/></svg>