<svg height="500" viewBox="0 0 500 500" width="500" xmlns="http://www.w3.org/2000/svg" xmlns:xlink="http://www.w3.org/1999/xlink"><radialGradient id="a" cx="1362.7291" cy="216.11429" gradientTransform="matrix(1.0000001 -.0000059 .0000001 1.0000003 -112.72927 33.893757)" gradientUnits="userSpaceOnUse" r="250"><stop offset="0" stop-color="#ff851a"/><stop offset=".42441937" stop-color="#f87000"/><stop offset=".86367416" stop-color="#f26900"/><stop offset="1" stop-color="#e55f00"/></radialGradient><g transform="translate(-1000)"><path d="m1500 250a250 250 0 0 1 -250 250 250 250 0 0 1 -250-250 250 250 0 0 1 250-250 250 250 0 0 1 250 250z" fill="url(#a)" stroke-linecap="round" stroke-linejoin="round" stroke-width="1.002"/><path d="m1309.2298 33.82789c128.5196 30.706851 207.8974 167.48127 169.5927 291.56949-31.3771 95.69524-112.8693 162.03793-212.5543 174.60263 153.1796-8.09118 266.0956-163.0043 218.7012-309.92978-36.4562-114.666588-154.6038-191.5214848-270.6514-169.822657-18.8526 4.215647-38.4387 10.498641-55.8829 18.694487-112.5353 47.459213-168.47522 196.206-99.9632 307.85319 57.6978 93.63045 168.5136 141.8489 267.9993 100.77239-134.92 68.97589-303.283-51.46877-311.488-201.30723-4.4167-117.68321 76.8182-219.674136 190.654-246.26040176-89.0147 9.18391126-152.6601 79.39239576-187.7408 157.21169176-38.45522 102.70317 5.2337 231.75078 109.038 294.08388 114.5107 66.1048 260.3537 29.37245 323.6836-83.60152 42.2104-77.69758 34.3514-177.62383-23.1776-249.88923-57.5404-72.257811-157.5429-102.460489-246.4118-71.877168-81.7429 30.682061-131.1298 101.133078-134.0478 190.176958.6692 92.68536 61.7912 168.55972 147.5399 198.52472 128.5549 37.82014 266.7725-70.33038 233.6823-209.88949-14.7104-64.39775-57.8855-122.14991-125.7378-141.121386-71.391-15.467036-138.9716 1.205-181.2869 64.641366-18.8995 29.2286-28.9384 85.21395-26.105 97.65297m0 0c13.5324-50.18833 30.6277-97.66354 72.2125-128.94941 53.182-38.308183 124.4576-37.093813 181.7444-.48035 50.1457 36.48017 75.4845 90.37713 72.3557 150.91678-6.6674 64.04407-38.4038 109.83277-91.6401 141.00844-63.9019 34.56125-135.3795 4.83213-189.1258-35.28385-78.8706-65.48566-79.7477-186.67235-8.9744-256.76104 63.7369-55.941605 167.0207-64.891564 238.7167-6.65053 78.8163 58.35315 90.3045 169.04089 40.972 246.62443-35.2274 56.41892-88.4571 87.60135-152.5581 93.63158-81.9488 2.18264-160.666-41.91503-196.8695-120.9383-36.2055-79.02511-22.5771-164.33167 26.8727-227.66064 49.4316-63.30896 138.3491-86.746364 220.4504-67.54202" fill="#c50"/></g><path d="m189.20606 419.34043c3.73026 2.91427 21.25671 11.00567 25.97781 12.85137-1.15598 6.31425-.54397 12.72565 2.46744 16.99991 3.23483 4.56569 10.05421 6.11997 17.6022 6.11997 14.41589.0971 31.52269-5.34283 31.52269-5.34283s-18.66106-42.25692-35.90385-38.75979c-4.32281.97142-8.05308 4.17712-10.8605 8.54852-3.85653-3.01141-20.76128-12.17138-23.98642-16.05707z" fill="#994100"/><path d="m155.917 147.03336c.77711-6.11996-.38544-18.93746-.96829-24.96028-5.05142 1.06855-10.00566.58285-13.69705-1.84571-14.57135-9.82108 2.81712-52.719145 2.81712-52.719145s36.71978 19.77818 33.61124 35.874675c-.97144 5.13882-5.14853 9.98622-10.39422 13.58049 2.42853 5.88683 4.95113 18.41289 5.33969 24.33857" fill="#994100"/><path d="m132.59393 347.52081c-1.15541-22.85397-6.89613-45.91234-.33007-68.46667 6.51831-17.13611 4.89194-53.08392 24.84928-56.41801 15.97232-2.73387.81594 13.74807 1.64625 22.41818-17.25613 78.76841-32.18721 158.30641-57.91177 234.92515-.25803 12.56872 24.53631 16.97014 35.36683 19.40564 16.81519-.87845 43.1237 1.72951 54.39664-10.65963 17.63421-52.38795 32.90628-105.52121 46.86847-158.99567 9.27912-.25107 18.55823-.50216 27.83736-.75323 13.63294 55.34318 27.8992 111.12521 52.1476 162.93159 42.392 12.82547 86.93586 8.18911 129.88043 1.26932-34.83477-51.72073-61.53415-108.36366-82.63846-166.94973-5.31391-20.01366-19.99764-38.54523-18.002-59.73102.46212-10.3791.92425-20.7582 1.38637-31.1373 10.50203 18.71294 22.87177 36.91243 32.20961 55.94542-.27169 16.53113.38202 33.02822 1.83951 49.49576 12.79291 9.80783 38.37878 29.4235 38.37878 29.4235l15.85957-13.9427c5.11785-.59766 16.76461 10.90642 16.76461 10.90642l30.96044-18.49252s-6.64237-12.64366-5.54459-21.17499l21.44121-6.1729-9.52165-59.4484c-13.18138-6.74048-28.81094-10.02129-37.54608-23.11971-19.19049-21.37909-37.17965-44.05962-52.85892-68.13716-6.57086-11.82616-4.36335-25.88612-22.52398-32.56275-25.59837-10.97557-53.14422-18.85931-81.18872-18.34402-4.97864-32.540805-6.7729-66.006146-19.5404-96.785634-29.53535 7.628801-48.17043 2.213387-71.67473-8.591026-2.60452 37.28952-10.76501 73.794647-20.02801 109.91693-19.43923 9.62188-41.57771 11.63218-62.94447 12.05247-10.21573 1.60368-24.62154-5.92646-28.82089 8.08938-20.29208 43.17559-38.36102 87.42788-53.719005 132.53565l-30.9485162 62.40739c11.0145242 5.63121 22.0290482 11.26244 33.0435742 16.89365 1.004635 6.49402 2.085935 20.12975 2.085935 20.12975l47.747378 8.21429s36.223994-26.90652 41.032414-37.07742z" fill="#994100"/><path d="m417.8793 219.6698s-22.30853-26.8351-30.59989-42.06263c-4.00001-7.34623-7.1885-19.23418-9.03422-23.4113-16.80563-7.18853-33.31984-13.69707-51.97117-17.29134l-17.67987-2.42855c-9.13141-.77714-15.93137-.58286-24.86847-.38857-1.94282-10.87994-3.49712-22.53702-4.66283-32.12497l-2.91427-23.323872c-1.84571-12.958784-4.27424-25.655291-8.64566-38.176937-13.9885 3.67198-32.05697 3.866265-49.93115-4.351979-1.74856 17.116481-4.17712 31.124407-6.89714 43.694624l-5.05139 21.789024c-3.20568 12.38565-5.53709 22.29416-8.15995 33.56267-10.19993 4.85712-21.46845 9.13138-31.27982 11.65708l-34.19413 4.27427c-8.93706 0-17.19417-.48572-25.35413-.68-6.00341 13.3085-12.055363 26.51986-21.303319 47.55117-12.502209 29.19127-20.710739 50.56259-30.410402 80.96814l-26.786997 54.01114 15.581642 7.96567 29.03584-50.3683-11.511375 38.80836-6.013108 34.29125 17.213635 3.10855 5.741083-32.73697 16.455924-34.92267 5.206823 39.97408-13.930192 18.06847 13.852466 10.68566 17.94221-23.31416-3.73998-43.71405c6.16855-43.32549 13.16279-70.23391 27.83129-94.03379l28.2684 2.33142c7.96582.65697 17.77706 4.37141 13.98849 10.7828-3.78853 6.41139-6.99424 12.33708-8.2571 16.80562l-6.50854 26.71415c-3.30283 16.41705-6.60565 33.02839-12.09419 58.77111-4.90569 22.82845-7.9171 36.33123-11.12282 49.93116l-10.97708 43.61693c-5.5371 20.6913-11.55993 41.38262-18.26277 62.17107 17.58277 11.07423 39.14837 7.47996 61.19967 2.42857 0 0 14.63903-44.77002 21.33204-67.34708 9.58394-32.32887 26.94773-97.50333 26.94773-97.50333l50.31971-1.36013c7.32794 28.68779 13.36132 56.03995 21.85703 83.54242 8.54579 27.66451 16.90277 55.27398 29.23986 81.79382 38.66264 9.51996 67.22248 6.31428 95.19952 2.42857-18.94667-29.93084-33.30923-57.23799-46.91977-88.39952-10.64158-24.482-19.18401-47.13897-28.36556-71.01105-5.34284-14.27993-10.68568-28.36557-16.12566-42.54835l4.37142-98.11376 19.91419 37.98266 39.05119 66.15393.0973 29.33698 1.26286 17.97134 21.66278 16.61133 10.68564-13.79421-15.44562-11.9485 4.2257-17.5342 33.65981 44.92833 14.95991-8.93709-21.75986-54.54542 17.58273-2.8657 4.66283 29.53127 17.29136-2.71999-6.41139-40.02264-22.14853-10.05423c-17.67998-17.14562-27.78281-29.4827-37.30273-42.20835z" fill="#ffa348"/><g fill="#994100"><path d="m217.57227 36.109375c-.15893 1.555683-.35162 2.959264-.52149 4.464844.01037 1.544415.10923 3.086.10547 4.630859 1.48765-1.334107 2.35644-3.077886 2.98633-4.978516-.49855 13.663723-1.20468 27.296984-2.60742 40.851563.59296 18.372722-.36628 54.992875-.61719 14.416016-.13773-15.154168-.57907-30.302255-1.02149-45.451172-1.00335 7.369415-2.19468 13.856117-3.41406 20.21289.47714 13.559438.94689 27.117508 1.41406 40.669921-.90007-13.399455-1.56118-26.812964-1.49023-40.26953-.58308 3.022446-1.11473 6.293847-1.73242 9.148438l-2.76367 11.921874c.10425 8.110598.21194 16.221768.1914 24.335938 6.38529 51.38547 7.51078 103.08093 7.01563 154.83398 1.1055-4.35364 1.90192-8.91951 2.57031-13.57226-.08451 1.20007-.15488 2.40358-.24023 3.60351-3.75894 33.47657-4.91515 67.13492-5.31055 100.83204-.38981-64.08696-3.15533-128.16589-1.76758-192.27735.30199-23.83932-1.87674-47.55954-3.96094-71.279295l-.78515 3.390625c-2.57531 9.9501-4.50347 18.22075-6.55469 26.96289 1.26135 17.79773 2.10982 35.60656.75781 53.50195-1.08005 13.08504-1.93872 26.1857-2.75 39.28907.97914-17.29876 1.9567-34.60177 2.88281-51.89649-1.10047-11.4017-1.80355-22.82571-2.60742-34.24414-2.70919 1.28803-5.49343 2.5235-8.30468 3.70703 1.65503 13.43239 3.01 26.90053 1.64453 40.45117l-.28125-7.63867c-.35458-10.79802-1.9581-21.51697-2.68946-32.2832-1.02751.42403-2.05539.82909-3.08593 1.23437.09929 3.65112.18851 7.30237.30273 10.95313-.13865-3.6432-.23578-7.28654-.36133-10.92969-.78192.30722-1.5605.64021-2.34179.93555.52765 20.32408.89143 40.64871.39648 60.9707.03765 3.60384.19163 7.20218.25586 10.80469 1.93429 1.69369 2.71806 3.83456 1.17187 6.45117-.36503.61775-.62552 1.1519-.97851 1.75977 1.11424 48.32098 4.26068 96.54112 7.21875 144.78515-.00064.01367-.00132.02735-.00195.04102-3.04327-48.01723-6.04163-96.06177-7.59571-144.14258-3.02708 5.2551-5.61211 10.15379-6.75976 13.96875.21446 54.99139 4.45714 109.82801 5.32617 164.78711-.64138 22.10916.07196 44.18029.97265 66.24805 4.25441-13.10964 10.99376-34.08514 16.11133-51.10743.32962-4.96712.56804-9.93909.93555-14.90429 1.71484-40.65159 1.80189-81.35221 2.50977-121.88672.52675 8.46649.89856 16.617-.05665 22.47656.57634 37.21739-.77201 74.37184-2.51367 111.51367.03598-.12111.10509-.32739.14063-.44726 2.44964-8.26323 5.40486-18.67174 8.45117-29.58985.07149-22.13692.08857-44.27024-.10938-66.40429.27818 21.6033.43431 43.2062.54883 64.81054 6.03982-21.68334 10.25855-37.35033 13.58203-49.73046 1.56738-25.33589 3.97476-50.62545 7.01954-75.75391 1.07669-22.09661 2.54451-44.38016 3.23437-66.65039.03442 35.36795-1.0249 70.7016-5.32422 105.84766.1838 6.67239.08009 13.31875-.08789 19.95898l12.41211-.33594c.33851-4.01825.4942-8.03501.97656-12.05469 6.7572-61.15697-1.33605-122.35201.26953-183.62304-.18086-25.638176 1.06684-51.22848 2.42774-76.814456-1.39375-.108022-2.79697-.250064-4.21289-.441406-.97921 15.64736-.90544 31.329349-.69336 47.015625-.45441-15.881015-1.25378-31.729405-2.39258-47.529297-3.66361-.653433-7.37049-1.537021-11.10352-2.826172-.37616 27.904211-.23185 55.835665-.48828 83.730466-.84314 26.97182-3.50437 53.85143-4.55468 80.81641.03163-24.71867-2.18677-49.29824-4.14844-73.89063 9.30537 13.32346 5.53975-38.127325 6.00976-46.306636 1.17978-14.867842 1.85873-29.755331 2.41993-44.646485-2.00926-.718526-4.02084-1.503378-6.03125-2.427734zm49.92968 4.351563c-.65885.172948-1.36841.298075-2.04492.455078.49462 17.353082 1.97011 34.674461 4.95899 51.865234-1.14826 46.88993 7.69309 93.23321 6.04882 140.11719-1.05082-26.17976-3.1622-52.35953-5.26757-78.28906-4.88925-37.60945-7.0086-75.587372-6.48243-113.529302-2.57839.570157-5.24193 1.051274-8.03711 1.353516.08195 42.647542.63955 85.319946 4.80469 127.730466-4.3405-12.12366-1.03826 42.9351-2.14648 54.25391.25054 30.22895-3.41182 60.23051-5.80469 90.29883l4.9707-.13477c.11795-.86773.28712-1.72024.43164-2.58008 2.38044-26.74003 5.78179-53.43943 5.05664-80.36523 1.44881 27.44045 3.50123 55.07547 4.44922 82.67773l5.8086-.1582c1.05841-9.17905 1.89635-18.37794 2.34765-27.60742-.10796 9.19114-.32658 18.37671-.63281 27.56055l.67188-.01758c1.1998 4.69705 2.28866 9.19225 3.43554 13.82422.07685-4.11468.11995-8.23169.19727-12.34766-.23792-8.00193-.18972-15.97744.38281-23.89844.09882-6.06763.21824-12.127.29102-18.19531.04754-6.02596.05103-12.05195.19726-18.07617.02493-4.38913-.04989-8.77555-.05078-13.16406.00095-.04091-.03096.67666-.0293.61914.01886-.39499.0098-.78867.02735-1.1836-.00917-19.11342-.37669-38.2125-1.1211-57.29492-.59542-9.78554-1.11817-19.57458-1.82422-29.35547-1.301-12.50411-1.87974-25.05552-2.32617-37.61523-.12207-2.76756-.24088-5.53544-.32812-8.30469-.30117-8.93382-.77431-17.853758-1.3125-26.769532-.84698-8.947986-1.62405-17.907445-2.50391-26.914062-.06304-.456173-.14352-.911187-.20898-1.367188-1.13258-4.551163-2.38733-9.085996-3.95899-13.58789zm4.16797 14.955078c1.23583 8.942505 1.96111 17.922029 2.50391 26.914062.32856 3.471139.73915 6.972245 1.00586 10.427734.00012 5.451942.13514 10.898128.30664 16.341798.09334 2.76898.22971 5.53589.32812 8.30469.55355 12.54931 1.42155 25.08345 2.32617 37.61523.34727 3.33759.66527 6.67801 1.12891 10.00781.36553 6.44253.44376 12.89922.69531 19.34766 1.15989 19.0621 1.97213 38.13996 1.1211 57.29492.00009.18817.00191.37628.00195.56446-.02732 1.17233.49495-10.15152.8457-17.74415-.31817 10.30095-.54476 20.60273-.79492 30.90821-.03424 6.02792-.12497 12.04794-.19726 18.07617-.04117 5.21794-.24169 10.433-.16993 15.65234-.07458.84405-.05998 1.69753-.12109 2.54297-.12979 7.96948-.23317 15.93212-.38281 23.89844.15662 5.26745.39803 10.53726.66406 15.8125 1.49931 6.07958 3.03336 12.20255 4.52148 18.20117-.07822-11.30396-.30259-22.63285-.44531-33.98828-1.59332-60.56929 6.25901-121.06419-.09375-181.52148-.4199.00922-.75823.00629-1.1875.01562-1.94282-10.87993-3.49835-22.53706-4.66406-32.125l-2.91406-23.324218c-1.15328-8.097193-2.60085-16.082376-4.54102-23.996094.02498.257775.03732.515683.0625.773438zm-12.73633 256.585934c-.07638.85807-.16242 1.71605-.23632 2.57422l6.63085-.17773c-.68742-4.84948-1.6633-9.63503-3.41601-14.25-1.41621 3.82457-2.29869 7.80877-2.97852 11.85351zm-3.08984-269.486325c-1.35301.131105-2.74098.201378-4.13477.259766-1.83225 90.709859-.85714 181.475599-4.74218 272.119139l5.24023-.14258c3.7632-85.68959 1.57549-171.57891 3.41992-257.337888.01851-4.962735.17009-9.934029.2168-14.898437zm-9.18945.279297v74.492188c1.09065 19.23812-2.18327 41.13421 1.63672 58.70898 3.42637-43.69926 1.99772-87.569708.13671-131.306637l-.06445-1.861328c-.56609-.00143-1.1377-.018795-1.70898-.033203zm-14.57227 10.357422c.22248 1.202221.34407 2.402386.62891 3.605468.43877 9.017238.56005 18.041536.82812 27.0625-.50293-10.23313-.94113-20.446596-1.45703-30.667968zm12.01758 2.134765c-2.99226.401005 2.58712 16.139629-.80664 15.777344-2.34787 52.189667-5.31602 110.345387 2.66406 158.689457-.68602-57.88231-.50023-115.71638 0-173.607426-.82852-.660414-1.42996-.916661-1.85742-.859375zm-14.88477 21.017579c.33815.405839.82468 5.347768 1.52735 17.833984.19616 15.068888.51927 30.161038.80469 45.255858-.67413-10.0904-1.75615-20.14663-3.38477-30.15234.082-.39468.14291-1.47232.22851-1.75391.05164-11.011329.08031-32.076439.82422-31.183592zm32.98243 32.449222c6.58873 55.70599 11.92286 111.63522 10.94531 167.80078-4.14312-48.56254-4.62543-97.33798-10.41211-145.73438-.23105-7.35432-.39619-14.70982-.5332-22.0664zm-24.04883 4.15429c.62667 24.58152 1.39178 49.17705.17187 73.74024-.08632 7.47749.05776 14.96575.17774 22.45312-.48307-17.54696-.9116-35.09487-.11328-52.58398.15132-14.51409-.06278-29.06561-.23633-43.60938zm41.87109 18.90039c2.14306 19.17353 2.54129 38.3521 2.43555 57.53516-.77037-19.17508-1.5956-38.35467-2.43555-57.53516zm16.53516 2.13086c.50235 7.04783.95976 14.102 1.52539 21.14063 5.53381 59.23881-4.46824 118.25905-2.63867 177.4082 3.00289 21.05366 2.50087 42.12278 2.48437 63.1875.19901.65292.36467 1.30592.56641 1.95899 2.38351 7.71592 4.77416 15.42055 7.21875 23.10546-.76812-46.00521-7.58339-92.02948-5.23047-138.08007 4.69407-49.51294 2.92456-99.01199.45703-148.52539-1.42335-.04792-2.99459-.18357-4.38281-.19532zm-5.19336.04297c-1.85101.02339-3.70378.0348-5.68945.07813 1.13174 14.75998 2.39492 29.51188 3.54101 44.24414-1.53793 57.4635-6.41846 114.96815-1.99023 172.50586.24464 2.3994.24205 4.76899.33398 7.15039 1.36779 5.41465 2.77451 10.80477 4.2207 16.1875.57129-41.27839-4.7292-82.84805-1.17773-124.21875 5.47946-38.65844 3.35094-77.30288.76172-115.94727zm11.47656.23633c1.23424 38.04022 1.50342 76.1105.56445 114.19727-4.99966 58.10728 1.39916 116.19147 2.95899 174.30273 1.5783 4.93088 3.17067 9.85651 4.84179 14.75781-.18865-5.01797-.46984-10.03459-.81054-15.05078.76157 6.38336 1.46198 12.76591 2.2539 19.14649 2.1175 6.07202 4.29239 12.12614 6.65625 18.12695-.47738-7.58057-1.16829-15.14016-2.02929-22.68164-.49392-3.6962-.914-7.39641-1.23438-11.10352-2.63637-22.13639-1.46948-44.46999-2.77929-66.64258-.62354-9.10821-1.61265-18.19028-3.35352-27.2207-.00995-.04737-.01344-.09521-.02344-.14258.42892-43.45817-.19645-86.95121-.06054-130.43164-.01915-10.4898.0382-20.9791-.01563-31.46679-.50793-11.72574.32239-23.42733 1.26953-35.11915.00087-.02408.00109-.04818.00195-.07226l-2.48437-.3418c-.58756-.05-1.03993-.03004-1.60937-.07226-.19574 4.96825-.35775 9.93829-.49024 14.91015.07268-4.97601.16269-9.9531.14453-14.92578-1.33637-.09592-2.54027-.11195-3.80078-.16992zm8.23828.67187c-.79797 22.18743-1.18451 44.38373-1.2539 66.58594.07935 43.48081.00586 86.97365.0625 130.43164.00917.04737.01235.09521.02148.14258 1.89533 9.02569 2.81536 18.11082 3.35352 27.2207 1.5173 22.16383.86424 44.48351 2.77929 66.64258.24666 2.07104.42233 4.1458.74414 6.21289.19572 1.62319.30451 3.26388.49024 4.89063.41344 3.09401.78265 6.19101 1.34765 9.27539.57557 4.90975.96105 9.81888 1.22071 14.72461 2.43544 6.11994 5.00897 12.20066 7.80468 18.2207.1408-4.9186.32268-9.83668.41407-14.75586.11746 5.01668.11092 10.03288.15234 15.04883 1.51605.36985 2.93047.60997 4.41602.94141-.01942-13.17735-.23175-26.35513-.40625-39.53321-.13456-3.30004-.19211-6.59987-.37305-9.90039.8671-35.36483-1.30145-70.54862-4.41406-105.67578 4.44599 12.92512 1.09853-42.71748 2.21289-54.08789-.25502-44.08642 7.65392-87.7023 7.80273-131.74023-1.95436-.51334-3.96227-.95064-5.95898-1.40235-.5205 15.43714-.93679 30.87604-1.10157 46.31836-.35409 1.38639-.61975 1.67217-.94531 2.69727-.98027 16.22909-2.14995 32.449-3.83203 48.65039-.62321 17.87416-.50305 39.96827-1.70312 8.4414-3.44513-35.95654-3.56697-72.06269-3.65821-108.16211l-4.70898-.64648c.12523 13.33996.35676 23.36116.93555 32.3418-2.02545 13.15648-3.26138 26.38895-3.95899 39.66211.23198-24.03582.92787-48.05489 2.91016-72.01953l-4.34766-.59766c-.00195.02409-.00391.04817-.00586.07226zm18.36914 52.25782c.9858-16.32054 1.51738-32.67286 2.01367-49.02344-1.21608-.27485-2.39521-.60327-3.6289-.85352-.12239 6.29653-.36644 12.5911-.42383 18.88868-.25162 40.57987-1.2128 3.9529-.62109-14.41993-.15924-1.59146-.18256-3.1997-.32618-4.79296-.06338-.0123-.12211-.03075-.18554-.04297l-3.60156-.49414c.18243 2.74909.25855 5.502.46874 8.25-1.26855 8.26194-.62085 64.29477 6.30469 42.48828zm2.77735 253.79101c.53849 13.20726.81737 26.41174.78125 39.61328 1.00893.22331 2.00859.43643 3.0039.64258-.02168-10.25369.09498-20.50519.12305-30.75781.57104 10.33612.90727 20.69526 1.26367 31.05273 1.80902.36283 3.662.78151 5.42774 1.08985-.18037-3.64038-.43151-7.08959-.54883-11.52735-.2776-4.89283-.39727-9.78837-.63086-14.68164-.68043-9.38028-2.06583-16.15003-5.48047-13.32031.16523-43.65653.66229-87.33334 1.30469-130.99805-.01038-5.37736.07392-10.75293.125-16.1289-1.17931-3.10158-2.34706-6.22274-3.53321-9.32617-.20881 43.99636-.52628 87.99399-2.08984 131.97461.1742 7.45613.15517 14.9113.25391 22.36718zm5.24414-128.88672c.0715 37.06948 1.49915 74.16464 2.9375 111.1875.1567 11.04812.71118 22.08911 1.23828 33.13086.33322 4.5937.49689 9.6142.63086 14.68164.21842 3.84994.47503 7.70084.71094 11.55079 2.08374.36217 4.0747.60785 6.10156.89843-1.90718-28.28508-1.71306-56.71737-1.81641-85.12304.8223 24.27462 2.37518 48.5431 3.51172 72.80468 8.17462-7.43687 1.43782-27.72516 4.82031-39.94726 3.06817-24.63631 4.42169-49.37066 5.44336-74.125-3.59836-9.14257-7.10437-18.31214-10.65039-27.55078-.0246 1.67004-.09766 3.33968-.11719 5.00976.02073-1.71426.03943-3.4283.06641-5.14258-.65948-1.71817-1.31606-3.39407-1.98047-5.12304-.06585.8223-.09682 1.6445-.1582 2.46679.01963-.91143.03695-1.8229.05469-2.73437-.20632-.53682-.40831-1.05182-.61524-1.58984-1.13082-3.02238-2.28036-5.99813-3.41211-9.00586-.32396 14.96527-.76052 29.9305-1.40625 44.88671-.27226-16.72459-.58556-33.49331-.6289-50.25585-1.49772-3.96727-3.00675-7.9437-4.51172-11.90235-.0797 5.29388-.14088 10.58939-.21875 15.88281zm1.89258-172.06835c-.79966 14.02074-1.90656 28.02562-3.35743 42.01367l4.16407 7.9414c1.54438-16.19866 2.73988-32.41457 3.49218-48.65039-1.43555-.42913-2.84375-.90623-4.29882-1.30468zm4.44921 1.35156c-.68905 17.84768-1.15037 35.70244-1.03711 53.57422l6.28321 11.98242c.4121-18.36223 1.19322-36.71694 2.77343-55.05664.11725-2.61325.35048-5.2185.49219-7.83008-2.79544-.96305-5.65511-1.81356-8.51172-2.66992zm-161.9707.45898c-1.31305.493-2.59958.91172-3.90234 1.36719.06378 14.05704-.07637 27.91419-.76953 40.88086-.9229-13.34742-1.28504-26.72327-1.4629-40.10352-2.85958.95576-5.65915 1.81369-8.36718 2.53907.00824 20.81195.17156 41.61837.50781 62.41992l2.22461.18359c.64289.05302 1.30408.24914 1.96289.3418-.59202-17.80412-.78632-35.62646-.89258-53.45313.36972 17.95403 1.28086 35.89085 2.90821 53.80469 3.25685.65791 6.3363 1.69987 8.39257 3.29102-.6588-23.7476-1.02969-47.50104-.60156-71.27149zm170.63086 2.25586c-1.04414 21.52575-1.87076 43.05888-2.49219 64.59961l4.28321 8.17188c.72229-19.44235 1.29746-38.88567 1.38085-58.32813 1.43994 23.09859 3.16367 46.17284 4.87305 69.25l4.50781 7.63672c-.21619-3.6288-.41147-7.25949-.625-10.88867.22661 3.6887.49008 7.3747.72852 11.0625l7.35547 12.45898c-.14518-2.95621-.17806-5.90874-.39258-8.86719-1.26977-15.56518-2.04886-31.22867-2.66601-46.92773-3.05651-7.91502-1.88426-22.36174-1.02149-36.07031-.04099-2.02505-.06286-4.0577-.09961-6.08399-2.63919-1.07433-5.30885-2.08354-7.9668-3.09375.72375 15.87176 1.49033 31.73812 2.34571 47.60157-.88825-15.87749-1.67474-31.75604-2.44922-47.64063-2.57759-.97861-5.14879-1.97883-7.76172-2.88086zm15.93164 12.09766c.24381 12.04424.55018 24.08135 1.02149 36.07031.81728 2.11642 1.86988 3.86892 3.39648 4.87695.50468-14.89893.79839-29.8043 1.07226-44.70898-1.71264-.72027-3.42708-1.43704-5.14062-2.13672-.09314 1.91089-.22548 3.92609-.34961 5.89844zm-162.23437-10.56836c.61825 15.92112.74096 31.86069-.08204 47.83594.31653 29.8156.74712 59.63395 1.17774 89.45117-.27423-14.98272-.5727-29.96449-1.08008-44.94141-1.64876 1.08868-2.71507 3.08723-3.54492 5.45508.65444-19.58852 1.59275-39.12656 3.20508-58.56055.7362-13.10974.72242-26.18378.32422-39.24023zm-43.32227 1.65039-9.86328 1.23242c-.56757 9.42164-.93138 18.85772-.81641 28.33008-.62508 9.04897-1.62319 23.62268-2.30664 30.62109l6.29102.51953c.82509-12.31825 1.72909-24.63357 2.21679-36.96484-.17895 12.45689.44504 24.86477 1.32422 37.25781l5.16797.42578c-1.36339-20.43519-1.8253-40.9224-2.01367-61.42187zm-12.11914 1.51562-3.89453.48633c-.54445 9.04554-.9804 18.09161-1.25196 27.13672.04061-9.01619.19088-18.02753.43555-27.03516l-10.97851 1.37305c.15733 12.73533.6239 25.47233 1.77929 38.21289.25597 8.70481.24752 17.42394.27735 26.14063 1.48525-2.81904 3.03373-5.59243 4.70898-8.31055l1.50977.125c.00602-13.56528-.03706-27.12511-.02344-40.68945.2764 13.57528.32393 27.14076.04883 40.6914l5.89453.48633c-.02835-2.4323-.05353-4.93987.16211-12.51953-.16943-15.39681.44168-30.75491 1.33203-46.09766zm83.81445 0c.01833 21.55034.09791 43.09475-.0039 64.64453-.37968-21.56116-.9683-43.14103.0039-64.64453zm-127.90429 1.66211c-2.01239 4.4611-4.99879 11.20199-7.140629 15.93946-.716009 12.34565-1.326743 24.69528-2.140625 37.03711.01278-10.05296-.39929-20.08088-.96875-30.09766-1.506261 3.34367-3.037294 6.76931-4.732422 10.56641 1.403498 28.9671 1.794114 57.99021 1.496094 87.04101 1.102929-4.34276 1.898711-8.89659 2.566406-13.53711-.083605 1.1877-.1519 2.37885-.236328 3.56641-1.662238 14.64605-2.80262 29.33231-3.611328 44.04101l2.771484-5.88086 1.34375 10.31836c1.666295-37.32945 8.071028-74.33211 7.572268-111.84375 1.21373-17.58502 3.89376-57.42593 2.77343-18.04492.50545 45.48028-4.59699 90.68749-9.572261 135.82422l2.804688 21.52539c1.538393-26.95102 4.092083-53.85422 7.330073-80.57812 1.06037-21.75424 2.48504-43.68975 3.19141-65.61524.00099 26.75161-.5741 53.48746-2.83594 80.13477-4.09771 31.38929-2.14702 63.14121-5.57617 94.53515l5.16992-6.71679c.71523-6.42487 1.30558-12.85771 1.75586-19.30078-.0062.98046-.05468 1.95869-.05468 2.93945-.41393 5.36125-1.02083 10.78329-1.5625 16.17969l8.73828-11.35352c.04438-6.67491.1533-13.35144.5-20.03125l-2.24805-26.27344c2.02177-14.20013 4.16713-26.50102 6.60742-37.64258.87872-37.42739-1.63927-74.87298-2.24414-112.34374-3.95754-.13988-7.84439-.29694-11.69726-.38868zm27.50976.41016-2.1543.26953c-1.15615 0-2.2208-.05378-3.35546-.06836.41971 12.74742 1.31325 25.49615 3.12109 38.24609.62667 11.72783.78515 23.46015.81641 35.19336 1.32291-3.01918 2.70881-5.97453 4.20507-8.8457-.33783-21.60588-1.7478-43.20837-2.63281-64.79492zm-14.79687.00781c.09508 31.9727 1.06488 63.9427 3.4082 95.85547-.13427 3.16495-.4242 6.33254-.59375 9.49805 1.49287-6.11689 3.1358-11.82209 4.92773-17.23438-.09442-19.18656-.95515-38.37069-3.3457-57.54492-.52016-10.16999-.70879-20.33501-.75586-30.49805-1.19803-.03418-2.4598-.03562-3.64062-.07617zm254.54687 1.5625c-.42963 29.73844-.8582 59.47801-1.17383 89.21485.12226 2.37294.09173 4.73989.17383 7.11132l4.07422 6.9043c-.51618-33.90918-.0612-67.8091.59375-101.70703-1.22369-.52228-2.44609-1.00956-3.66797-1.52344zm-178.8125 1.98438c.29888 2.1328.51278 4.27371.85742 6.40234.18726 4.11882.02955 8.23798-.08007 12.35742-.04358-6.2628-.28217-12.51726-.77735-18.75976zm-80.89258 1.10156c.00214.23566.00158.47137.00391.70703-.00302-.17712-.00282-.35413-.00586-.53125.00155-.05864.00041-.11714.00195-.17578zm24.8125 3.05469c.45025 16.31959.89225 32.64219.55078 48.92968-.16151-16.31236-.36394-32.62208-.55078-48.92968zm18.22071.7207c-.37802 14.01657-.73729 28.09986-2.51954 41.35938-.19859 1.59017-.33915 3.95818-.51953 5.81054 1.24545-15.71242 2.16512-31.4413 3.03907-47.16992zm66.7539 3.39062c-1.14557 17.75838-2.38673 35.50331-3.53711 53.25586.38599-14.28804.72947-28.66256 2.54688-42.18164.37846-3.03102.67324-7.19465.99023-11.07422zm-121.97461.08399c-1.14255 17.71104-2.380131 35.40802-3.527341 53.11328.385255-14.26979.729098-28.6236 2.544921-42.125.37536-3.00762.66759-7.14371.98242-10.98828zm126.50196.52148c.11275 1.52861.06907 6.42229-.21094 16.26563.54562 49.15176-5.45228 97.98675-10.76758 146.75586l.02734-1.44531c.14245-42.58601 8.52591-84.59677 7.9668-127.26758.90992-13.1962 2.64612-38.89441 2.98438-34.3086zm154.67773 4.78907c.06475.67521.16177 1.34835.22852 2.02343-4.27255-11.59597-.99921 43.08052-2.10547 54.35547.07063 12.12082-.50565 24.20364-1.34375 36.27149l4.70312 7.96679c.22417-2.14642.33863-4.29774.58203-6.44336.7599-17.12121.52699-44.34448 1.80079-10.74804.77169 8.05457 1.26703 16.12166 1.74804 24.18945l1.99414 3.37891c-.29072-4.50956-.53639-9.02206-.80468-13.53321.36417 4.66644.71683 9.3334 1.08007 14l3.79297 6.42383.0957 29.33789.4043 5.74219c1.53493-11.44746 2.64554-22.93454 3.20899-34.46484-.18564 15.81854-.60489 31.63023-1.40235 47.41992l3.40039 2.60742c.10886-4.75467.35592-9.50626.42774-14.26172.23265-16.64171.28631-33.28712.24804-49.93359.04225 16.6464.00328 33.29265-.24804 49.93359-.06666 4.76816-.27595 9.53333-.37696 14.30078l6.61133 5.07032c-.20746-8.68961-.31136-17.38357-.25-26.08204-.93435-35.65582 1.37123-71.28474 2.16797-106.89648-2.87969-3.63551-4.53299-5.84205-8.01758-10.53516.02288 22.12471.02969 44.24893.10938 66.37891.0083 2.103.00379 4.20562.00976 6.30859-.00542-2.10319-.00219-4.20538-.00976-6.30859-.08755-22.181-.20038-44.35971-.22461-66.53516-1.10188-1.4855-2.17741-2.91528-3.25977-4.42187.74571 13.08669 1.15243 26.19133.68555 39.33984-.55748-13.89645-1.33804-27.77707-2.37695-41.63476-1.50301-2.13478-2.90878-4.20266-4.24024-6.24024 2.39305 30.4369 3.82094 60.93479 3.28907 91.50977-2.74332-31.96024-3.95354-64.00716-6.0586-95.98438-.58977-.98768-1.27458-2.05031-1.77148-2.96289-1.506-2.76584-2.85008-6.17274-4.09766-9.57226zm-77.01367 5.0664c-.25719 23.39125-.25988 46.79625-.21289 70.20508-1.16701-23.38353-.43126-46.80138.21289-70.20508zm-44.18945 1.53125c.58181 5.57232 1.13607 11.14691 1.85546 16.70899.08283 4.71218.38834 9.41045.5625 14.11718-.68956-10.28688-1.49548-20.56187-2.41796-30.82617zm122.02929.73242c.56958 5.32851 1.08871 10.66112 1.79688 15.98047.08265 4.70035.38896 9.38712.5625 14.08203-.67277-10.03185-1.46612-20.05204-2.35938-30.0625zm-269.58203 4.26368c.33676 11.87235.75277 23.74226 1.09375 35.60937-.43112-9.33521-.88907-19.11608-.94726-19.88086-.00309-5.24158-.10194-10.48559-.14649-15.72851zm203.11133 2.52929c1.36828 15.47502 2.41417 30.97522 3.34375 46.48438-1.23149-15.48733-2.39274-30.9788-3.34375-46.48438zm18.24219 2.14649c-.36143 3.40017-.59227 6.80712-.99219 10.20508-.08254 4.88125-.05117 9.76488-.11523 14.64648zm20.97461 2.14258c-.32136.05728-.68312 1.02243-1.09571 3.13085-.40159 9.19732-.77494 18.41141-1.20312 27.61329l1.34961 2.57617 4.28906 7.26367c-1.00999-15.61347-1.60501-40.89325-3.33984-40.58398zm-161.68555 4.05468c-.12321 1.81548-.21958 3.63577-.33984 5.44922-.83226 9.03629-1.43848 18.08763-2.0879 27.13672.55537-9.20407 1.06454-18.73814 1.8418-26.19727.30862-2.13539.37845-4.25851.58594-6.38867zm-107.472657 2.4043c-.914291 2.06769-1.280984 2.81795-2.263672 5.05273-.935669 2.18469-1.703754 4.08921-2.59375 6.19336.637793 39.17809.906283 78.36799 1.238281 117.55664l4.34375-9.21875c-.186872-39.86364-.188253-79.73319-.724609-119.58398zm26.949217 4.68945c.54007 16.40222-.06169 32.75171-.99414 49.08594.61302-16.35025.983-32.71087.99414-49.08594zm72.76367 11.83594c.75768 14.31247 1.62009 28.61225 2.60743 42.89258.55459-2.96309.99269-6.79319 1.38086-11-.7647 11.73372-1.49008 23.47142-2.29297 35.20312-.09376-22.36474-.81153-44.73089-1.69532-67.0957zm223.43164 1.26563c-4.03465 43.96417-3.70407 88.22784-1.73046 132.34179l3.41601 2.61914c-.1994-44.24535-.20162-88.4834.08789-132.73242-.58627-.72374-1.04969-1.32515-1.77344-2.22851zm-330.753902.03125c-.341041.8192-.709902 1.68395-1.044922 2.49414-5.607279 40.44717-4.353865 86.62991-2.453125 130.4375l1.69336-9.6543 1.583984-3.36328c-.194964-39.97069-.215574-79.93517.220703-119.91406zm335.699222 6.18554c.40465 21.9718.613 43.94728.27343 65.93555.01634 9.25687.30137 18.51889.40821 27.77734l.97851-4.0625 3.55469 4.74414c-.12039-29.40646-.2186-58.81484-.38672-88.2207-.86609-1.13606-1.78302-2.27941-2.63476-3.41797 0 0-1.85879-2.34957-2.19336-2.75586zm-99.83594 2.22266c4.22515 48.55642 4.52376 97.34343 10.41211 145.73242.23211 7.35408.39271 14.71013.5332 22.06641-6.60759-55.70447-11.91105-111.63429-10.94531-167.79883zm-239.554688.4668c-1.321942 3.25885-2.524055 6.41717-3.771484 9.60351-.086814 6.39118-.225943 12.78453-.152344 19.16797 1.217541 24.50724.459372 49.04666-.166016 73.57227.118663-10.04443.209786-20.08251.16211-30.11719l-3.837891 12.9414c-.042254 5.87117-.026385 11.74307-.115235 17.61329-.202751 14.47198-.697558 28.93811-1.267578 43.40234l4 .72266c.314031-6.85309.572642-13.71214.769532-20.57618-.092595 6.8995-.204337 13.8-.125 20.69336l.65039.11719 2.560547-14.60547c-.405059-12.17514-.693439-24.35352-.607422-36.54492-.839032-32.01542.945476-64.01099 1.900391-95.99023zm-7.88086 102.78125c.081784-5.83755.046689-11.67726.085938-17.51563l-3.197266 10.77734c-.534204 15.42593-1.263139 30.84201-2.447265 46.22071-.143386-14.24239-.352939-24.53456-.957031-33.92383.073035-.47402.108606-.95157.179687-1.42578l-.837891 2.82617-3.201172 18.25195c.02341 5.5242.109677 11.04616.123047 16.57032l8.951172 1.61523c.617161-14.46149 1.081765-28.92627 1.300781-43.39648zm336.720708-96.54883c-.12094 7.51539-.26616 15.03165-.17969 22.53711 1.22179 24.60105.45539 49.23416-.17188 73.85351.17508-14.58219.38806-29.17217.23633-43.72461-.79959-17.51672-.36898-35.09135.11524-52.66601zm-332.667973 3.51758c-1.284324 3.28249-2.622124 6.63407-3.851563 9.91015.044397 8.08063.008748 16.15751.039063 24.23828.047004 11.43766-.043403 22.87249-.095703 34.3086l3.8125-6.61524c-.021332-4.22779.112548-8.46601.068359-12.68945-.746486-16.34883-.411244-32.74948.027344-49.15234zm-3.8125 34.14843c-.032874-7.99935-.079057-15.99881-.126953-23.99804-2.097001 5.59373-4.139535 11.23345-6.173828 17.09179.053291 6.65401.291539 13.3003.175781 19.96094-.485206-5.65291-.797242-11.31479-1.195313-16.97266-1.170339 3.41274-2.371053 7.12365-3.558593 10.73438 1.074131 13.70224 2.052847 27.41142 2.923828 41.12695l4.009765-6.95898c.539725-5.97329.984445-11.95624 1.277344-17.94922-.063287 5.38652-.114413 10.77175-.24414 16.15625l2.792968-4.8418c.048998-11.45012.162101-22.89815.119141-34.34961zm357.037113-33.73437c.1697 13.70041.18366 27.40879.04297 41.12304 1.10271-4.3429 1.89687-8.89645 2.56445-13.5371-.08365 1.18832-.15186 2.38016-.23633 3.56836-2.05899 18.14619-3.20394 36.36052-4.00781 54.59765l4.20898 5.61719c.3959-27.16145 3.76215-54.1181 5.98633-81.16211-3.07891-3.51691-5.91605-6.90649-8.55859-10.20703zm10.75195 12.61523c-2.01693 26.4685-4.90012 52.88221-7.79492 79.26758l4.125 5.50586c1.57722-23.70181 3.85188-47.35861 6.70117-70.87305.16139-3.31106.36706-6.65199.54687-9.9707-1.22926-1.33069-2.43167-2.64674-3.57812-3.92969zm-201.95703.76172c.0044 9.3647-.1393 18.7359-.04688 28.09766-.55153 2.26779-.90334 4.54728-1.30468 6.82422 1.04101-11.60368 1.23082-23.26077 1.35156-34.92188zm-60.69336 1.76953-3.85547 15.82422c5.13573 45.47219 5.54482 91.14689 3.52148 136.8457.04555 1.71852-.00904 3.44127.02735 5.16016-.58487-46.37634-2.31025-92.71158-4.26172-139.03125-1.1364 5.64933-2.93184 14.14955-4.16016 20.2207.07139 2.90872.06933 5.82163.07032 8.73438-.15616-2.36011-.24278-4.72223-.41211-7.08203-.90771 4.47965-1.99066 9.68636-3.03711 14.75781.96935 12.55767 1.84962 25.10915 2.56445 37.66016-.8538-.13865-1.9725 3.42841-3.11133 8.52539.27024-13.47088-.18282-26.93076-.64453-40.39258-1.03359 4.96673-1.57305 7.82371-2.80469 13.62109.43933 5.18004.83993 10.36743 1.5 15.50586-.37541 2.926-.75967 5.87016-1.14257 8.80078.26421-6.84888-.28875-13.76341-1.11524-20.71484-1.56288 7.26483-2.36354 10.53285-3.60937 16.20312.04487.12505.06802.25393.11328.37891-.33694 2.31114-.88117 4.58803-1.46094 6.85938.03423-.47744.03407-.95856.05469-1.4375-1.9254 8.67143-4.2388 19.45129-5.95508 26.73242l-10.97656 43.61718c-.65744 2.45675-1.393 4.91614-2.06446 7.37305.09687 12.91903.43917 25.82839 1.0625 38.72656-.71373-12.63487-1.26016-25.26441-1.29882-37.88085-.36695 1.3394-.75372 2.67999-1.125 4.01953.46659 18.71218 1.12757 37.42864 1.04101 56.02148 2.51956.49114 5.08596.80973 7.69727.9668-.37242-5.76243-.59679-11.51095-.99414-17.28907.37786 5.76817.79856 11.53392 1.23828 17.29883 1.33381.07533 2.66684.15441 4.02148.1543-.73822-1.20925-3.64705-41.12947-1.9375-23.68164 1.10455 5.28889 2.22914 15.12035 3.07813 23.71875 1.64295-.02429 3.32091-.17381 4.99023-.29297-.39822-5.71319-.7669-11.42838-1.25781-17.13477-7.41016-33.31357 3.85487-66.49638 3.4082-99.93945 1.47872-3.38128 2.53789-6.79246 3.33985-10.2207-4.12818 31.8023-7.89929 63.84324-7.02149 96.04687 1.17791 10.37999 2.06007 20.77406 2.81445 31.17383 1.13047-.09541 2.26553-.20588 3.40625-.33789-.70318-15.5114-1.4648-31.01945-2.41406-46.51562 1.48767-16.66945 2.00869-33.38652 3.13672-50.02344-2.08766 32.16476-1.54304 64.33598-.52734 96.51172 2.65037-.31112 5.33354-.73616 8.02929-1.20703.07942-4.93642.30646-9.88344.48047-14.82618-.08299 4.92196-.13084 9.85259-.20703 14.77149 2.64226-.46569 5.31764-1.0442 7.99024-1.61328.29431-8.25897.83001-16.5235 1.67773-24.79688.10476-14.24397.00862-28.48196-.11719-42.71875.24485 22.39605.13853 44.80558-.0918 67.21875 1.53494-.33423 3.04116-.57085 4.58204-.92383 0 0 .61206-1.89194.6582-2.0332-.83549-72.89715 2.41359-145.96518-3.92969-218.60351-.40287-4.91363-.64941-9.8347-.9707-14.75196zm238.80664.45703v100.41993l3.19336 2.44921c.20102-7.25467.31825-14.51001.39844-21.76562l-3.07227-2.37695 3.09375-12.83594c-.11501-22.01396-.96997-44.00753-3.61328-65.89063zm-296.7793.20118c.04789 18.32233-.37075 36.64175-2.32617 54.95312.80104-18.31798 1.59503-36.63548 2.32617-54.95312zm325.57813 2.25195c-.41025 7.66475-.91699 15.32417-1.56641 22.97656-2.64929 20.29183-2.81962 40.73265-3.47851 61.13477l11.86328 15.83398c.07583-14.5621.66569-29.13203 2.38672-43.7207l-6.39844-16.03906 7.82422-1.27539c.6298-8.92964 1.06677-17.85952 1.23242-26.79102-1.71087-1.67935-3.21559-3.22998-4.78711-4.82227-.54817 9.49369-1.11008 18.99449-1.67773 28.4961.40748-9.65204.83345-19.30282 1.2246-28.95313-2.29101-2.32853-4.59259-4.66932-6.62304-6.83984zm-246.00196 3.75976c-1.93663 38.08671-3.30932 76.20882-5.07617 114.29688 1.05697-38.12655 2.97787-76.218 5.07617-114.29688zm-113.742183 7.43946c-3.819976 17.57479-.548023 39.47281-1.638672 58.71094v12.3789l3.666016-7.7793c.10958-21.1201-.375251-42.2361-2.027344-63.31054zm372.769533 2.09179c-.50273 8.49679-.97591 16.99356-1.61328 25.49219l5.44531-.88672c.4396-7.30664.87031-14.61305 1.1582-21.91992l-4.23242-1.92187c-.28037-.2719-.48123-.49418-.75781-.76368zm-141.85742 2.39844c1.06331 25.93631 3.1448 51.86994 5.23047 77.5586 5.1481 39.60345 7.1677 79.61417 6.31445 119.5625-.11896-5.93839-.35955-11.88116-.89649-17.83789-6.74799-46.46999-4.40552-93.59157-10.44531-140.17579-.01556-13.03116-.09267-26.06982-.20312-39.10742zm-67.36524 1.65821c-.30207-.09105-.69119.35303-1.1875 1.46874-1.72739 16.11751-3.06628 32.27575-4.11719 48.44532l5.14649-.13867c.29622-5.01207.5203-10.02506.91406-15.03516-.77528-7.1866 1.35866-34.10289-.75586-34.74023zm22.8125.31054c1.23016 15.76302 2.39318 31.53143 3.37891 47.31055-1.38215-15.75052-2.43999-31.52564-3.37891-47.31055zm196.32031.55078c-.36041 9.12285-.73646 18.24603-1.24218 27.36719l3.125 19.79102c.78806-15.12181 1.4864-30.24321 2.07031-45.36329zm5.22071 2.36914c-.2578 15.33877-.70593 30.66986-1.33789 45.9961l4.22656-.66602c.25373-11.67874.1194-23.37013-.08008-35.06445.02433 2.03841.01884 4.07894.04492 6.11719.1969 9.59432.55073 19.20017 1.05469 28.78711l4.1543-.6543c-1.18504-11.65557-2.38658-23.33197-1.53321-35.03906-.02624-2.17382.00093-4.34948-.02148-6.52344l-3.76562-1.70899c.00312.29161.00269.5834.00585.875-.00618-.29354-.0113-.5873-.01757-.88086zm-411.849612 2.13086c-.508275 1.54665-1.008938 2.99996-1.523437 4.5918.830355 13.76631 1.367212 27.54469 1.625 41.33594l2.875-4.98633c-1.180116-13.63253-2.14276-27.28184-2.976563-40.94141zm180.804692.40235c-.44948 11.30449-1.27467 22.58924-3.00391 33.82422-.04133-1.10148-.02344-2.20073-.07813-3.30274 1.64918-10.13894 2.53325-20.32036 3.08204-30.52148zm237.66796.47265c.33409 13.83769.75996 27.67026 1.59571 41.48633l5.96875-.93945-2.22852-13.9082c-.00148.3516-.0103.49732-.01172.85546-.57514-2.00507-.9551-5.18329-1.26172-8.80468l-2.91015-18.16602zm-170.55273 14.6543c-.06549 4.57919-.01571 9.16537-.12305 13.74219-.07272.60686-.07279 1.21008-.13476 1.8164.05868-5.18468.15247-10.37096.25781-15.55859zm-255.306641 2.14453-6.324218 12.75c-1.140405 12.88755-2.174686 25.78044-2.71875 38.69922l2.441406 1.24805 3.791015-6.57813c.082818-2.06795.215653-4.1337.306641-6.20117.250334-7.22851.512523-14.46555.753906-21.69141.165034-.27436.295453-.37755.453125-.61523.363534-5.87337.827057-11.74298 1.296875-17.61133zm-1.296875 17.61133c-.460032 7.43243-.879622 14.86715-1.207031 22.30664-.069627 2.01051-.138904 4.02251-.208984 6.0332l3.558593-6.17187c.160585-6.69713.301802-6.51529.435547-.75586l3.94336-6.83985c-.283561-12.38072-1.713626-21.81987-6.521485-14.57226zm275.480466-16.69531c.66516 10.01228 1.47225 20.01049 2.35157 30.00195-.65377-7.12699-1.28829-14.2552-1.9961-21.37891-.05239-2.8783-.26468-5.74702-.35547-8.62304zm-93.25781 4.68945c-.29458 4.59851-.3269 9.21405-.38281 13.82812-.0171-3.5825.16229-7.1534.00976-10.74414.15818-1.02601.22668-2.05725.37305-3.08398zm-120.69531.01367c-.55736 8.26734-1.07061 16.53706-1.42383 24.81445-.05585-2.16645-.04725-4.32912-.19141-6.50195.6937-6.09653 1.07037-12.20865 1.61524-18.3125zm332.58203.03321c-.55635 8.25496-1.06723 16.51235-1.41992 24.77734-.05587-2.16616-.04725-4.32747-.19141-6.5.69236-6.08481 1.06724-12.18525 1.61133-18.27734zm-399.906251 8.65039-4.28125 8.63281c-.528288 8.8333-.940125 17.67165-1.601562 26.50195l2.929687 1.49805c1.069066-12.20581 2.150141-24.41187 2.953125-36.63281zm408.240231 3.69921c-1.05224 14.18282-2.02852 28.36608-2.50586 42.55079l2.04688 2.73242 3.4707-2.07422c.4892-10.39386 1.0894-20.78835 1.78711-31.18164zm-412.564449 5.01954-7.160157 14.4375c-.200863 2.94035-.36807 5.88189-.570312 8.82226l6.123047 3.13281c.647518-8.79344 1.065195-17.59533 1.607422-26.39257zm157.992189 6.53125-.05078 3.60742c-.0917 18.50606-2.49537 92.71902-2.35547 78.21484.0119-27.29146.94515-54.57172 2.40625-81.82226zm219.71094 9.0332c.119 7.44015.17443 14.87954.32812 22.32031l.94727.72656 3.36914-4.34765c-.05921-5.07513-.11703-10.15049-.15625-15.22657zm44.32812 3.14648c-.33502 5.40079-.65091 10.80199-.97266 16.20313l4.84961-2.89649c.05321-1.07157.09644-2.14327.15039-3.21484zm-431.388671.15821-1.408203 2.83984 1.373046.70312c.022055-1.18042.020393-2.36215.035157-3.54296zm393.974611 2.04492c-.10622 3.62451-.27466 7.24491-.35156 10.87109l5.39843-6.96679zm-117.67188 1.38086c.87271 9.50095 1.82891 18.99633 2.51563 28.50195-1.31961-9.47495-2.08791-18.97866-2.51563-28.50195zm-138.59961.49804c1.59039 28.28308 1.70069 56.66002 1.37696 85.0254-.01275-28.37187-.31392-56.71525-1.37696-85.0254zm-50.24609 2.19922c-.15984 3.21227-.21536 6.42458-.33594 9.63672l1.04492-1.35937zm233.22266 2.65235c-.12552 13.99089.01707 27.98289.33789 41.97461-.43704-13.99079-.46186-27.98264-.33789-41.97461zm-250.845707.79297-9.068359 11.76171c-.047603 3.01551-.024118 6.02876-.056641 9.04493l8.074219 6.22851c.224993-9.01406.562013-18.02704 1.050781-27.03515zm65.476567 8.5957c.36163 11.42329.24907 22.86389-1.05079 34.35351.65195 13.73036.82607 27.44449.84375 41.14844-1.36733-25.29743-4.55612-50.57267.20704-75.50195zm-76.109379 5.19531-2.830079 3.66992 2.890626 2.22852c-.029979-1.96586-.034034-3.93247-.060547-5.89844zm268.066409 2.24414c-.54698 18.99335-2.88951 37.87717-4.64844 56.78321-.63235-8.81451-1.01124-17.63024-1.33984-26.44532 3.7555-9.7651 5.30219-19.95947 5.98828-30.33789zm5.47265 4.51367c-1.02817 18.49811-1.73975 37.0087-.88086 55.57227-4.53511 22.68714-4.92465 45.68298-5.51172 68.6582 2.40631.26378 4.72124.41181 7.05469.58399.40966-23.284.87878-46.59034 2.51758-69.96094.20572-14.09267.95429-28.16562 1.89258-42.22852-1.72646-4.23132-3.41417-8.43731-5.07227-12.625zm-306.527341.40625-.529297 3.01368.712891.1289c-.067151-1.04729-.112553-2.09543-.183594-3.14258zm311.712891 12.49805c-1.23646 19.71386-2.15348 39.43883-1.67773 59.21875-.31034 17.64037-.28183 35.27875-.16211 52.91406 1.73591.105 3.43726.16737 5.13671.22657-.06784-18.97617-.18831-37.95468-.08984-56.92383-1.53162-16.47283-1.41118-32.87364-.64062-49.24805-.85677-2.06186-1.73118-4.14202-2.56641-6.1875zm-219.99023.0293c-.70458 18.40197-4.9167 40.07068-5.61329 55.80273.20597-18.74114-.6505-38.22866 5.61329-55.80273zm161.41015 1.76758c.00305.96391.13589 1.92189.11914 2.88671-.31974 2.68693-.29866 5.38905-.4375 8.08399-.01293-3.65309.12267-7.31108.31836-10.9707zm64.68945 12.77929c-1.96219 32.5705-2.78628 65.17145-2.77343 97.78321 1.62106.05614 3.224.08972 4.81445.10742-.07242-1.02405-.10301-2.04824-.17969-3.07227.05135-2.13176.13965-4.2646.19336-6.39648-.35502-21.60167-.00397-43.19422 1.94727-64.75781.15-4.52752.25406-9.05473.4082-13.58204-.64997-1.46274-1.33039-2.84089-1.97656-4.32031-.84845-1.95194-1.61045-3.83144-2.4336-5.76172zm4.00196 23.66407c-.71522 21.58677-1.40353 43.17483-1.94727 64.75781.0519 3.15766.07925 6.31477.1543 9.47265 1.35669.01401 2.74981.07431 4.08594.0625.42271-26.40862 1.20098-52.81458 2.07422-79.22265-1.22915-2.66948-2.47014-5.32516-3.68165-8.04492-.04898 1.98648-.11714 3.96838-.16796 5.95507-.25271 2.33833-.30592 4.68045-.51758 7.01954zm-218.35938-5.3125c1.73318 21.73143 1.42099 44.13272.28125 65.74609-1.17309-21.89142-1.60326-43.85118-.28125-65.74609zm224.06641 3.3125c-1.05926 25.43371-2.43347 50.85653-3.22266 76.2871 1.37329-.01337 2.69557-.09041 4.04883-.1289.18033-6.27245.4718-12.54072.98828-18.80274.37775 6.24663.32817 12.50269.44336 18.75586 1.35307-.04709 2.73321-.05937 4.06836-.1289-.02854-5.47978-.15402-10.95966-.28516-16.43946-.51225-9.30629-.94356-18.60525-1.19726-27.9082-.10414-1.63405-.13664-3.26827-.25391-4.90234-.05604-2.07838-.05015-4.14035-.07422-6.21875-.08969-3.86945-.25032-7.73189-.33984-11.59766-1.41438-2.91966-2.79288-5.94941-4.17578-8.91601zm4.51562 20.51367c.08588 3.70488.22703 7.41388.32813 11.12109.59285 9.30247.97465 18.60607 1.19726 27.9082.30124 5.47262.69194 10.94278 1.14649 16.41211 1.3299-.07392 2.61756-.20121 3.93164-.29492-1.54761-19.70331-2.47644-39.43602-3.12891-59.18359-1.19508-2.38447-2.43863-4.74213-3.60742-7.15039.01765 3.72978.08952 7.44846.13281 11.1875zm-250.17578-19.78907c-.23285 13.19527.07048 26.36266.69141 39.51368-.73452-13.20221-1.16491-26.38885-.69141-39.51368zm254.04297 16.53125c.62947 19.47287 1.91292 38.9103 4.11328 58.29883 2.07412-.15868 4.16564-.29658 6.20703-.49609-1.20699-15.7128-3.94811-31.27009-4.87695-47.00977-1.88128-3.56331-3.63489-7.1973-5.44336-10.79297zm-261.12304 5.33985c-1.66036 5.92043-3.30394 11.84267-5.05665 17.76953.18041 7.06407.2581 14.1165.41016 21.16601-.1507-6.95585-.38534-13.90847-.50195-20.86523-1.07195 3.62156-2.23648 7.25355-3.34571 10.87891.27449 6.70972.65381 13.41776.83789 20.1289 2.81645 1.2159 5.72361 2.0991 8.69532 2.7461-.64959-17.26478-.9717-34.54039-1.03906-51.82422zm37.85937 3.87109c-.05204 3.60616-.08807 7.21592-.14063 10.82031-.91431 10.62631-1.4066 21.24759-1.6621 31.86524.14591-14.22607.65741-28.45352 1.80273-42.68555zm230.60742 5.07031c3.50758 14.19046 3.38618 30.28377 3.39844 43.47071 1.41609-.1403 2.77248-.35551 4.17578-.51172.02862-10.16952-.15409-20.34124-.6582-30.51563-2.34973-4.14841-4.69254-8.29729-6.91602-12.44336zm6.95703 12.51758c.62798 10.15138.83232 20.29107.75977 30.42383 2.04126-.228 4.05595-.48814 6.07617-.74219-.02083-6.08343-.07129-12.16633-.2168-18.24609-.53631-.90284-1.1311-1.83202-1.66015-2.73242.00562.1654.016.33068.02148.49609-.00899-.16793-.01615-.33599-.02539-.5039-1.70562-2.9029-3.31991-5.80937-4.95508-8.69532zm-284.23828 8.53516c-1.33189 4.3392-2.61508 8.67311-4.0039 13.01953.06433 1.17385.12542 2.34751.18554 3.52148 1.53564.90778 3.09942 1.71156 4.69141 2.41211-.24844-6.31926-.49425-12.63779-.87305-18.95312zm292.23633 5.16601c.27954 5.24657.52476 10.49479.79883 15.74024 1.28823-.16659 2.60189-.30149 3.88476-.47461-.14741-2.79565-.32838-5.58826-.5-8.38281-1.4165-2.30214-2.8169-4.60251-4.18359-6.88282zm5.56641 9.15625c.02842 1.99679.05892 3.99351.08398 5.99024 1.09299-.1487 2.22185-.25282 3.3125-.4043-1.19948-1.89487-2.23277-3.71045-3.39648-5.58594z" opacity=".25" stroke-width=".031305"/><path d="m218.40234 36.443359c.04037 2.169665.19359 4.335666.21875 6.50586.02013-2.120782.11255-4.240663.14258-6.361328-.12038-.05283-.24096-.090948-.36133-.144532zm2.83789 1.142579c-.23846 6.497108-.53762 12.992134-.80468 19.488281.14258-.921074.1942-1.950786.375-2.826172.39829-5.490622.59249-10.989111.87109-16.484375-.14718-.057278-.29421-.119365-.44141-.177734zm-.80468 19.488281c-1.06028 6.849336-1.13689 14.814353-.95117 23.039062.38818-7.676971.63545-15.359314.95117-23.039062zm-.95117 23.039062c-.15128 2.991786-.2051 5.987316-.3711 8.978516 1.54365 9.82419.08731 27.619413-1.48047 32.792973 3.20947-9.95651 2.2062-26.06604 1.85157-41.771489zm-1.85157 41.771489c-.17569.54502-.38666 1.03945-.58984 1.54492.19706-.19363.39063-.88753.58984-1.54492zm-.58984 1.54492c-.47335.4651-.89521-1.04257-1.24024-4.11328.08485 2.25159.14323 4.51062.23047 6.76171.436-.74092.66151-1.78207 1.00977-2.64843zm-1.24024-4.11328c-.24892-6.60582-.44212-13.2284-.67382-19.837894-.00699 2.066644.04368 4.132464.02148 6.199214.07495 6.84531.33378 10.80344.65234 13.63868zm-.67382-19.837894c.04525-13.391254-.18648-26.77893-.58985-40.166016-.20256 1.260499-.44652 2.321961-.65625 3.548828.39337 12.208274.81841 24.417215 1.2461 36.617188zm10.22656-60.353516c-.22161 12.921454-.17804 25.852911.31445 38.802734 1.01964 57.245096-4.37959 114.292746-8.36133 171.324216 2.12407-46.70196-1.47668-93.20373-5.89843-139.60547.30799-11.319055.23913-22.631028.03906-33.941402-.27035 1.310685-.4986 2.820461-.77539 4.09961l-.97852 4.21875c.17678 10.218326.22598 20.439812-.07031 30.667972 6.75005 51.58877 7.15672 103.56639 7.03711 155.52734 5.53658-76.72572 11.66201-153.47332 10.6582-230.482422 7.93762 67.981442 5.19247 136.601562 5.70703 204.951172-3.17968 23.48385-4.08287 47.10156-4.98632 70.71875l1.47265-.03906c1.73117-41.14236 7.18392-82.09127 5.03516-123.40039-.43416-50.63403 1.02496-101.392317-5.34961-151.708988-1.27872-.345367-2.55901-.709469-3.84375-1.132812zm42.14648 1.335938c-.27182.071354-.56887.118807-.84375.1875 2.13604 30.820185 7.13464 61.487192 5.69727 92.550782 8.07459 60.50946 4.33227 121.54586 4.65234 182.39648.61175 2.40572 1.16702 4.70367 1.76367 7.0918.35143-26.63596-1.13229-53.49247.09961-79.92383 2.52203-51.17006-6.36889-101.78926-6.00976-152.894529-2.53497-16.021778-4.193-32.199229-5.04883-48.410157-.11301-.331682-.19484-.666611-.31055-.998046zm-34.58203.699218c.3118 6.702223.81965 13.419735 1.45899 20.146485 1.56333 33.212644 1.84483 66.458529 1.79687 99.708979.07962-5.3028.18548-10.60577.44727-15.90039.54126-34.60769-.94863-69.319562-2.89844-103.796871-.26867-.054613-.53553-.100347-.80469-.158203zm3.25586 119.855464c-.1016 6.76672-.10736 13.53765-.01367 20.3125.03331-6.77228.0039-13.54031.01367-20.3125zm-.01367 20.3125c-.15106 30.70707-.47961 61.41672-.28125 92.09766-3.0893 13.83923-3.5441 27.8415-3.70313 41.86914l1.86915-.05078c.05442-5.71936.00513-11.44229-.25-17.17383 5.71799-38.62986 2.90473-77.72862 2.36523-116.74219zm26.46094-139.783198c-.22414.042682-.43635.095891-.66211.136719-.15369 14.63358-.07249 29.272034.30468 43.904297.81513 10.746638 1.85651 21.501992 2.83204 32.253902-1.85757-25.391472-2.69647-50.838446-2.47461-76.294918zm2.47461 76.294918c.72685 9.93559 1.5736 19.86356 2.60546 29.77735-.92389-9.92934-1.70506-19.85343-2.60546-29.77735zm2.60546 29.77735c4.93226 53.00827 9.47116 106.0962 5.26172 159.33984-2.47008-39.35315-6.42551-78.62336-7.10546-118.07422-6.44434-48.66634-6.55175-97.738769-6.86133-146.779294-.38033.053284-.75443.114299-1.13867.162109.40874 30.625925 1.08924 61.252645 1.79882 91.873045 6.6881 59.18681 7.75695 118.81754 13.0586 178.16406 4.17779-45.44086 1.55259-91.44355-1.76563-136.90625-1.2253-9.24615-2.2831-18.50843-3.24805-27.77929zm-27.40624-105.261721c-2.2894 39.179883-4.48473 78.363961-2.56836 117.683591.0496 49.13428 5.1632 98.20639-1.15821 147.26172-.28383 2.63122-.31533 5.25844-.54101 7.88867l1.08593-.02929c.37785-4.55509.58992-9.10786 1.1543-13.66602 6.77729-60.65072-1.51759-121.33384.23242-182.09961-.16332-25.690495 1.0688-51.33372 2.41407-76.972655-.2064-.021165-.41227-.043439-.61914-.066406zm13.58984.283203c-.35995.02555-.72127.047851-1.08399.068359-1.50825 90.726049-.78162 181.497759-4.57421 272.152349l1.7871-.04688c1.15929-21.64807 2.00606-43.30986 2.1504-64.99609-.56026-69.06118.6407-138.12061 1.7207-207.177738zm-7.72461.146484c.82129 43.788548 1.51644 87.576184 0 131.349614 2.66899-34.87526 2.45759-69.89333.96875-104.818364-.33383-8.843027-.66541-17.687027-.9668-26.53125-.00065-.000021-.0013.000021-.00195 0zm-.50195 15.914063c-.57096 6.210242-2.10891 36.637435-2.06641 37.904297-2.13429 44.136384-1.42523 88.348304 2.2207 132.382814-2.54467-55.42659-3.91803-110.99944 0-166.449221.119-5.288221.03603-5.907971-.15429-3.83789zm27.39257 2.130859c.26805 3.059718.55817 6.133883.79102 9.183594 5.03491 30.315808-.361 61.172898 6.36133 91.289058.10182 55.56489.28465 111.20633-.08985 166.79688.21285.85983.42697 1.70855.63868 2.56641.01465-13.73101-.20346-27.47809.19336-41.05079-2.52077-50.95752 4.66552-102.36031-2.82813-152.95507.84374-18.95256-.3036-37.82705-1.80469-56.69141l-.16601-1.330078c-.85334-5.991338-1.85879-11.920743-3.09571-17.808594zm-67.77734 42.195312c-.52971 2.0594-.89265 3.72814-1.38086 5.67383 7.50149 77.44061.89604 155.58579 5.91602 233.2168.21801 10.98208.27553 21.99464.33398 33.00586.20299-.73351.39301-1.43418.5957-2.16797-.20165-35.1339-.86675-70.26744-2.29492-105.39844-.44736-54.78968 1.65661-109.73028-3.16992-164.33008zm74.07227 1.11719c.35474 7.56747.71686 15.13609 1.51757 22.71094 6.75362 52.56153.58096 105.13899 1.13672 157.79296-1.62303 17.42311-.41392 35.13015.42969 52.77344.47273 1.92281.96598 3.87056 1.4375 5.78516.25798-9.22315.16941-18.4988-1.04297-27.87305-1.75001-60.76577 6.54487-121.44889-.23242-182.09961-.55624-4.4924-.76378-8.97934-1.13867-13.46875-.79874-5.47887-1.5008-10.71695-2.10742-15.62109zm-76.76954 9.97851c-.12736.51929-.25725 1.05914-.38281 1.57422 1.39389 22.50304 2.26497 45.01376 1.57813 67.55469.18344-3.12352.25175-6.24999.45312-9.37305.5965-19.96309-.36505-39.86507-1.64844-59.75586zm1.19532 69.12891c-.18937 3.22442-.29721 6.4509-.46875 9.67578.168-3.22556.3705-6.45161.46875-9.67578zm-.46875 9.67578c-.29488 5.6615-.56876 11.32186-1.10742 16.98828-5.12173 72.45919-3.21775 145.23037-7.41797 217.7168.33469-1.07843.68214-2.17078 1.0039-3.21484.43583-5.56555.81909-11.13412 1.39649-16.69141 2.54061-71.60155 2.31917-143.25313 6.125-214.79883zm-2.53516-71.36719c-.16278.68172-.35399 1.43802-.51562 2.11914 1.72742 28.8655 2.57003 57.7201-1.14649 86.58985-4.0307 71.85808-6.8919 143.74737-8.85156 215.66406-2.9354 39.56763-1.66554-7.09759-1.58008-24.06641.30134-58.57975-6.05321-116.98757-8.22656-175.50781-.33453.62088-.75085 1.30658-1.06055 1.9082.32849 18.29763.99876 36.58897 2.60938 54.86524 3.82466 55.11708 6.90856 110.2516 4.9707 165.5293-.0469 2.498.07021 1.89515.05664 3.77148 1.02341-3.19625 1.87801-6.06312 2.93555-9.39453.71724-7.89719 1.54412-16.35532 1.92773-21.09961 1.32794-86.79366 6.38652-173.51096 10.81445-260.16211-.24425-13.42046-1.02511-26.82078-1.93359-40.2168zm27.62305.86914c-5.30165 59.34653-6.37053 118.97726-13.0586 178.16407-.46627 20.12155-.9446 40.24594-1.3457 60.37109.33993-1.24136.69716-2.52125 1.03125-3.74414.44949-37.22856 1.62441-74.41887 6.51758-111.37109.68011-39.45085 4.63732-78.71913 7.10742-118.07227 4.19833 53.10308-.30774 106.05115-5.22461 158.91992.95435-9.13127 2.00209-18.25601 3.20899-27.36328 3.31803-45.46269 5.94128-91.46344 1.76367-136.9043zm-4.97266 164.26758c-1.05332 10.07827-1.91226 20.17065-2.65039 30.27149.91514-10.08852 1.71162-20.17736 2.65039-30.27149zm-2.65039 30.27149c-.85395 9.41392-1.74313 18.8304-2.48047 28.24023.50738-1.87381.54089-2.00328 1.00782-3.73242.38602-8.17485.87604-16.34357 1.47265-24.50781zm68.37695-182.95313c-.65028.01169-1.29002.01347-1.95703.02735 2.75689 34.88364 5.50536 69.7755.88282 104.70312-3.69408 41.17571.40901 82.63365.67187 123.77148.32581 1.27186.66235 2.54059.99219 3.81055-.56445-38.81443-4.37074-77.87518-1.36328-116.7539 5.46605-38.52954 3.35056-77.04268.77343-115.5586zm9.18164.00391c3.66061 59.09046 1.78683 118.36027-2.36718 177.38476 1.61131 30.61594 3.0253 61.19021 4.25586 91.78321.80679 2.61265 1.61971 5.22247 2.43164 7.83203-.12795-13.61243-.41069-27.23163-.95703-40.8711-9.64938-62.63787 2.53627-125.52229-.83008-188.39257-.8548-15.8948-1.61386-31.81562-2.39453-47.73047-.04422-.00083-.09449-.00507-.13868-.00586zm5.72071.25586c1.22592 38.11867 1.49283 76.26816.55273 114.43359-5.52911 59.01938 2.61825 118.07922 2.76758 177.08399.49629 1.5339 1.00316 3.0645 1.50781 4.5957.11293-40.43129-2.95811-80.91584-5.02148-121.3125 1.39467-58.2111 3.8279-116.4712 1.62305-174.73633-.49274-.03145-.94772-.03838-1.42969-.06445zm4.31836.19336c-1.00177 23.75882-1.67631 47.55483-1.30469 71.31445.26232 5.30625.36978 10.61913.44922 15.93359-.03623-29.07555.36512-58.14433 1.38476-87.19726l-.30273-.04102c-.08271-.00704-.14423-.00288-.22656-.00976zm-.85547 87.24804c.00743 5.96148-.00354 11.91933.02148 17.88086.0674-5.96352.06756-11.9239-.02148-17.88086zm.02148 17.88086c-.44987 39.80898-3.47923 79.71917 2.35547 119.14063-1.47093 28.96873 1.79467 57.74875 4.13086 86.58203.8089 2.26817 1.64427 4.52858 2.48633 6.78711-.44373-4.19106-.74968-8.38586-1.43359-12.56641-5.5214-35.03516-.23964-70.63319-7.26368-105.44336.17687-31.48229-.14316-62.99262-.27539-94.5zm3.73047-104.75195c-2.58773 39.16331-1.7886 78.51559-2.125 117.79297-2.73615 50.69995 6.73775 100.8351 5.64258 151.47266 3.22113 19.46344 5.23715 39.16712 5.875 58.90039.51725 1.27959 1.03654 2.55846 1.56836 3.83398-.12627-5.7089-.34941-11.42184-.7793-17.14063-6.62562-47.89313-4.6575-96.37583-10.7832-144.3496.42698-56.7337-1.30349-113.64825 2.60547-170.23438zm5.16211.70898c.83753 65.22292 5.90781 130.28427 10.60156 195.33008 1.02665-34.0119-.61136-68.09963 1.86133-102.06445 4.8921-29.82279 5.33199-59.88269 5.68945-89.95898-.79069-.19401-1.58904-.37855-2.38671-.5625-.16728 10.66873-.20455 21.33909.08593 32.01562-4.42347 46.40166-8.02171 92.90353-5.89843 139.60547-4.20829-57.96431-9.18763-115.96961-8.36329-174.14844zm-121.22656.62305c-.12535.05777-.25331.11235-.37891.16992 2.30707 15.87464 2.73213 31.80016 2.28711 47.75196.31339-6.25624.71214-12.51269.98633-18.76954-1.343-9.6932-2.20464-19.41736-2.89453-29.15234zm1.9082 47.92188c-.45579 9.0992-.93167 18.2-1.43359 27.29882.70835-9.10696 1.17993-18.20602 1.43359-27.29882zm-1.43359 27.29882c-2.10864 27.10964-5.49333 54.26377-6.00781 81.35938-.24698 30.64823-2.21718-11.18897-2.85352-23.69727-.18534-42.54518-2.49793-85.10765-3.98242-127.66015-.19752.07541-.39437.16169-.5918.23633.65146 24.55598 1.40409 49.11274 2.17383 73.66796.48597.99741.49322 2.12508.08008 3.34766.66539 21.53244 1.32377 43.06462 1.56054 64.58984 2.75817 34.11117 1.6877 68.37983 4.27735 102.50782-1.47024-58.21235 2.14052-116.28295 5.34375-174.35157zm128.51562-74.77929c.0302.48749.04733.97542.07813 1.46289.00727-.48116.02834-.96834.0332-1.44727zm.07813 1.46289c-.24806 16.41082-1.59419 33.75404 1.72461 44.30469-1.53973-6.255-2.87379-28.34119-1.3711-37.76954-.15025-2.17733-.21591-4.35739-.35351-6.53515zm1.72461 44.30469c.22983.93368.45697 1.68004.6875 1.80078-.23867-.58655-.48612-1.16059-.6875-1.80078zm.6875 1.80078c.33932.8339.5551 1.84406.97656 2.56054.06849-2.61933.20186-5.24356.27734-7.86328-.35719 4.06727-.79781 5.54162-1.2539 5.30274zm1.2539-5.30274c.2506-2.85344.46204-6.93896.60743-12.53711-.0183-1.70329.02546-3.40616.01757-5.10937-.19783 5.88085-.45559 11.76738-.625 17.64648zm.625-17.64648c.26456-7.86414.54026-15.73093.83594-23.59766-.23228-.04945-.45457-.11354-.6875-.16211-.14692 7.91904-.18512 15.8392-.14844 23.75977zm-136.44921-23.66992c-.53595.23615-1.05678.48683-1.59571.71875.54837 5.52711 1.06711 11.05515 2.00586 16.55664-.63569 27.88419-.42707 55.89211-1.94336 83.70703.44333-.33641.94971-2.22928 1.54688-6.6543.33361-31.46748 3.02448-63.04416-.01367-94.32812zm-1.53321 100.98242c-.06084.04617-.12538.22101-.18359.20312.02241.8957.06831 1.7898.08984 2.68555.05676-.96012.04139-1.92806.09375-2.88867zm-.18359.20312c-.82478-32.96214-2.28458-65.88249-3.98828-98.78125-.48515.1962-.96943.38812-1.45508.58008.48239 15.84375 1.25013 31.68084 2.71289 47.51172.21307 8.03325.61213 50.03858 2.73047 50.68945zm150.44531-98.34765c-1.74073 14.51401-2.91789 29.0575-3.77539 43.61718l1.19141 2.27149c.96172-14.5897 2.17543-29.16596 4.08203-43.70899.00941-.56806.0025-1.137.01172-1.70507-.50903-.14834-.99831-.3301-1.50977-.47461zm4.26367 1.33789c-.39515 18.23516-.87861 36.46541-1.5332 54.6875l1.63476 3.11719c.14917-19.12483.65975-38.23664 1.375-57.3418-.49166-.15494-.98288-.31132-1.47656-.46289zm-164.93554.64258c-.31026.11309-.61418.21128-.92383.32226.03337 22.84221-.09229 45.68635.03711 68.52539.26378.11145.48889.24566.74023.36524-.42515-18.01517-.45019-36.04208.42383-54.0918-.04449-5.04242-.20181-10.07966-.27734-15.12109zm168.67578.52929c-.19546 2.89547-.35879 5.79222-.5586 8.6875-1.30854 16.39779-2.00056 32.80493-2.41406 49.2168l1.05859 2.01562c.79603-19.84108 2.03025-39.66463 3.29102-59.48632-.45451-.15188-.92094-.28443-1.37695-.4336zm3.99218 1.25196c-.7717 22.17382-1.30583 44.357-1.77734 66.54492l1.05469 2.01172c.79521-20.85393 1.5014-41.70822 1.82031-62.57032.20416-3.48093.2595-2.97411.41602-5.42578-.50741-.17972-1.00469-.38395-1.51368-.56054zm-178.87695.38086c-.51141.16456-.99477.28791-1.50195.44531.26488 21.72223 1.30091 43.41964 3.30078 65.08203.46648.12078.90413.24766 1.35547.38867-1.78415-21.94064-2.76099-43.91876-3.1543-65.91601zm182.16602.8457c.03867.96901.05972.47354.10156 1.56445.85645 27.94351 4.24545 55.92805 6.10742 83.86719l.77344 1.31055c-1.23497-28.71501-3.99939-57.45869-5.57813-86.2168-.46887-.17279-.9343-.35509-1.40429-.52539zm-186.53516.43164c-.22878.06572-.45995.13517-.6875.19922.01901 21.00722.18955 42.00875.52539 63.00586l.64258.05273c.03585.00296.07345.01645.10937.01953-.50963-21.07488-.60032-42.17322-.58984-63.27734zm191.99609 1.61523c1.59573 30.07292 3.25958 60.13842 4.77344 90.20313l1.57422 2.66797c-.4692-7.37468-1.09987-14.74983-2.10352-22.12696-1.20077-23.43048-2.12213-46.87375-3.0996-70.31445-.37963-.14771-.76442-.28339-1.14454-.42969zm-200.71289.03711-1.16406.14649c-.16905 20.28227.49836 40.53106 1.78906 60.75195l1.8086.14844c-1.77991-20.29653-3.12976-40.61754-2.4336-61.04688zm-2.43359.30469-.70508.08789c-1.3765 19.9337-2.81018 39.88479-4.16211 59.85156l.62891.05274c1.2748-20.00766 2.76786-39.99981 4.23828-59.99219zm-2.47461.30859-1.25977.15821c-.64866 10.25911-1.11344 20.5319-1.09179 30.83984-.61611 6.9909-1.34339 18.10149-2.07813 28.46484l.76953.06446c1.27228-19.84227 2.42243-39.68895 3.66016-59.52735zm209.34375.74414c.7641 31.09237 1.91472 62.17064 3.66211 93.23243l.76172 1.29101c-1.00914-31.40236-2.5348-62.7905-3.59766-94.19336-.27478-.11007-.55122-.22067-.82617-.33008zm-216.33203.13086-.44727.05469c-1.17231 19.38015-1.7596 38.76885-1.55078 58.1582l.21875.01758c-.09413-19.43358.59878-38.84142 1.7793-58.23047zm-4.6543.58204-1.42578.17773c-.37395 19.02268-.19634 38.06995.02735 57.11719l1.55859.1289c-.24257-19.14962-.45713-38.29776-.16016-57.42382zm-2.91211.36328-.88086.10937c-.00521 19.58665.09595 39.16702.125 58.75781.25997-.43765.48696-.8927.75196-1.32812.00419-19.18473-.05877-38.35831.0039-57.53906zm-3.27929.41015-1.5293.19141c.14321 13.07297.61407 26.14775 1.78906 39.22656.07024 7.60041.08556 15.20167.12891 22.80469.33674-.60856.68356-1.21283 1.0293-1.81641-.13897-20.14463-.85705-40.27932-1.41797-60.40625zm-30.26563.12891c1.62564 45.41937-2.17929 90.73362-6.38672 135.98828.94776-9.04523 1.99-18.08382 3.18555-27.10547 2.6378-36.14019 4.67315-72.60828 3.36523-108.87695-.05412-.00149-.10994-.0044-.16406-.00586zm-6.38672 135.98828c-1.07109 10.22235-1.940668 20.4595-2.687498 30.70508.927766-10.23292 1.735588-20.46639 2.687498-30.70508zm-2.687498 30.70508c-.249223 2.74885-.482579 5.49761-.724609 8.24609l.097656.7461c.190264-2.9987.408485-5.99508.626953-8.99219zm12.205078-166.58985c.20993 31.37682-.17208 62.78369.06445 94.13477-5.08359 37.54514-4.34868 75.43649-7.09765 113.11328-.3106 1.84975-.49605 3.71283-.77344 5.56641l1.38086-1.79297c.91496-9.30167 1.7591-18.60479 2.25976-27.92188.33931-47.32141 8.21693-94.25582 5.75-141.68359-.11821-13.78596-.21071-27.57792-.24023-41.37109-.44671-.01559-.89831-.03013-1.34375-.04493zm3.15625.10547c.00406 3.45792.06288 6.91504.05859 10.37305.05156-3.45587.16804-6.90873.29297-10.36133-.11751-.00427-.23416-.00747-.35156-.01172zm.05859 10.37305c-.08901 5.96713-.08946 11.93839-.02148 17.91211.02505-5.97202.01408-11.94014.02148-17.91211zm-.02148 17.91211c-.13214 31.50262-.45 63.00683-.27344 94.48437-5.68055 27.30512-3.10568 55.11742-5.16601 82.71485l1.08593-1.41211c1.33152-19.52234 2.40042-39.05007 2.24024-58.61719 5.4984-38.7781 2.55877-78.02284 2.11328-117.16992zm1.18555-28.24414c.53814 35.0562 2.58102 70.08338 2.24218 105.1289-.77172 11.96269-1.53318 23.94145-2.26757 35.91993.95985-6.22244 1.9513-12.16128 2.99609-17.71875 1.89567-41.07458-1.23786-82.16807-1.88867-123.29492-.36376-.01325-.71948-.02192-1.08203-.03516zm254.53711.0332c.07761 7.22177.22372 14.43891.33984 21.6582-.03514-4.57581.09389-13.69868.25391-21.41015-.19797-.08175-.39577-.16659-.59375-.24805zm.33984 21.6582c.0053.68996.01329 1.13883.02539 1.59766-.00884-.53253-.01682-1.06511-.02539-1.59766zm.02539 1.59766c.12595 7.58755.16427 15.18003.35938 22.76367.52858-15.08146.83954-30.16841 1.11132-45.25586-.16401-.06822-.32817-.13704-.49218-.20507-.06534 2.61978-.05678 5.23958-.13282 7.85937-.5197 15.54193-.76254 17.99054-.8457 14.83789zm-249.51367-23.13281c.04037 31.23892 1.0874 62.47357 3.53516 93.6582-.04377 1.468-.19059 2.93627-.24415 4.4043.46725-1.69284.95617-3.36035 1.44922-4.99414.1712-18.32576-.51222-36.65046-3.17383-54.97266-.73437-12.69469-.9798-25.38992-1.04101-38.08398-.17168-.00544-.35407-.00615-.52539-.01172zm11.59961.18555-.3711.04687c-.59355 0-1.13492-.0311-1.72265-.03516.42721 12.8619 1.33726 25.72313 3.125 38.58594.4172 10.62753.48869 21.26987.55664 31.91016.31286-.67363.62943-1.34585.95117-2.01172-.23585-22.83677-1.62361-45.67331-2.53906-68.49609zm241.79687 1.45703c-.28668 32.71339.29335 65.46167-.11914 98.15625l.66797 1.13086c.15899-28.13312-.20136-56.29031.02735-84.41016.19584-4.81828.27139-9.63674.43945-14.45508-.33845-.14316-.67728-.2794-1.01563-.42187zm-269.40039 2.09961c-.2521.55765-.6352 1.42599-.88867 1.98632-3.26634 48.03824-5.095585 96.16485-10.501952 144.00782-.009654.41663-.01962.83336-.029297 1.25l1.300781-2.75782.148437 1.13282c.980635-18.16176 2.392092-36.29685 4.785157-54.36914.525414-30.48338 2.944784-60.86083 5.185544-91.25zm-2.42969 5.42187c-.25464.56266-.62364 1.40038-.88085 1.96875-1.691664 29.10774-3.996034 58.19059-6.107426 87.26172 1.097018-24.11225.63597-48.17037-.644532-72.18945-.51952 1.15653-1.029824 2.29897-1.570312 3.50586 1.37935 29.11886 1.689621 58.29588 1.525391 87.48437 1.427518-16.73495 4.357985-58.89547 5.986329-83.38867.72775-8.20713 1.18634-16.42632 1.6914-24.64258zm280.61524 7.36914c.06019 31.67056-.29533 63.33448-2.02344 94.91992l1.54492 2.6211c1.59085-26.43256 2.33581-52.90551 1.12891-79.44922 2.14224 30.69656 4.61833 61.40087 6.36133 92.13476l.72656 1.23243c-2.02871-36.93617-4.80019-73.84026-7.4707-110.73828-.08899-.24208-.18006-.47892-.26758-.72071zm-121.74805 1.54883c-.59462 1.67112-.76843 21.40174-.61328 35.38477 2.0415 37.00403-2.92848 73.62776-5.79687 110.36132l1.86914-.05078c3.95033-42.93358 6.93713-85.95341 4.97265-129.15039 2.77135 42.90816 6.83648 85.80061 7.88477 128.80274l.84961-.02344c-1.48943-41.27099-4.90607-82.53088-7.6211-123.6875-.67993-17.1412-1.18814-22.63939-1.54492-21.63672zm124.04492 4.23828c2.86004 36.14576 4.63492 72.38216 7.15625 108.57422l.83399 1.41211c-2.29612-31.3993-4.86145-62.78376-5.4043-94.2793-.5871-4.4337-1.00139-8.87825-1.48828-13.31836-.37368-.77546-.74047-1.55826-1.09766-2.38867zm-69.94531 9.91602c-4.1779 45.44064-1.55457 91.44183 1.76367 136.90429 1.20265 9.07494 2.24932 18.1649 3.20118 27.26368-4.91315-52.83524-9.41245-105.74908-5.2168-158.81836 2.47009 39.35314 6.42746 78.62141 7.10742 118.07226 7.70162 57.42907 6.35502 115.43076 7.23633 173.26758.36611.08729.70795.1435 1.07226.22852-.2009-39.58467-1.18829-79.17446-2.10546-118.75391-6.68814-59.18681-7.75695-118.81754-13.0586-178.16406zm4.96485 164.16797c.94567 10.16966 1.74631 20.33407 2.66796 30.49804-.74224-10.17625-1.60579-20.34469-2.66796-30.49804zm2.66796 30.49804c2.31979 31.80439 3.06133 63.69816 2.09375 95.58203.1548.35133.31268.70176.46875 1.05274.66336-21.51389.80691-43.05207.25196-64.58008-.8101-10.68029-1.84551-21.36919-2.81446-32.05469zm70.14649-190.84961c3.17131 39.95148 5.02924 79.95436 1.85937 120.04883-.00233-.03712-.00548-.0742-.00781-.11133l.00391 1.15625c3.29397-39.88143 1.57198-80.14089-1.18164-120.08984-.22914-.33739-.44948-.66939-.67383-1.00391zm-35.99805 6.55274c-1.38779 6.69821-1.95965 15.26774-2.33398 24.27929l.86914 1.65821c.59321-18.70637 1.64891-32.99519 2.41406-4.38282-.0497 2.86711.04764 5.73556.05273 8.60352l.74024 1.25195c-.6345-10.50686-1.30128-20.99279-1.74219-31.41015zm42.23633 2.23633c-.23386 46.29653.657 92.69271-1.26953 138.93164l1.71289 1.31445c1.07508-31.02354.81375-62.11961 1.08008-93.17969.79143-15.2151.36667-30.37293-.38086-45.51562-.38613-.52313-.75813-1.02431-1.14258-1.55078zm-313.408203.98242c-.24418.55452-.323523.71361-.572266 1.27929-.378292.88327-.678238 1.63449-1.048828 2.50391.699218 39.28042.981813 78.57223 1.287109 117.86523l.9375-1.99218c-.528007-39.88514-.815467-79.76999-.603515-119.65625zm316.384763 3.05469c.0659 17.8232.07598 35.64388.16406 53.47265.24225-17.27092.86487-34.55633 1.0586-51.8125-.40955-.54128-.81011-1.10982-1.22266-1.66015zm.16406 53.47265c-.09595 6.84143-.0909 13.67856.01172 20.51172-.00984-6.83861.02207-13.67301-.01172-20.51172zm.01172 20.51172c.03059 21.25311-.22847 42.50019-.72851 63.74219l.75.57422c.44489-16.14353.67797-32.29569.42578-48.41993-.26175-5.29386-.36764-10.59442-.44727-15.89648zm3.26368-69.31836c-.53762 23.41972-1.68728 46.84786-1.71094 70.29102-1.04971 21.53724-.77369 43.03026-.01563 64.50781l1.02149.7832c-.18344-8.21295-.28086-16.4296-.22852-24.65039-1.04996-36.4579 1.48152-72.88558 2.23828-109.29492-.67675-.86966-.59835-.71732-1.30468-1.63672zm-326.083989 7.14258c-.060484.1456-.125255.3-.185547.44531-3.186391 41.66321-3.818813 83.47161-1.83789 125.2168l.439453-2.50391c-1.289336-41.05652-.234689-82.14232 1.583984-123.1582zm332.054689.35937c-3.21557 41.99889-3.85129 84.14391-1.81641 126.22461-.00646.19137.23019 4.46254.28711 5.80078l.5918.45313c-1.79944-44.09109-.85058-88.22467 1.0957-132.2793-.0572-.07089-.09988-.12687-.1582-.19922zm5.38476 6.76954c.42359 29.61186.75592 59.22718.97657 88.8457l.92578 1.23633c-.37046-29.40309-.44056-58.80722-.43555-88.21094-.21812-.2903-.45445-.58241-.67187-.87305 0 0-.74881-.94239-.79493-.99804zm-342.77148 5.98046c-.517547 1.29899-1.0192 2.59328-1.525391 3.88282-.502419 15.38205-.986696 30.76725-1.001953 46.16015-.297602 6.10636-.340871 12.20437-.455078 18.30469l1.017578-1.76367c.170658-22.2037 1.224272-44.39812 1.964844-66.58399zm104.51758 4.67383c-.52374 1.05029-.98459 2.05003-1.41016 3.02539.15126 55.18057 4.11867 110.1851 5.41211 165.32227-.5776 21.73194.04974 43.43068.86719 65.125.71107-2.19892.74313-2.28303 1.55859-4.81641-.3647-9.85473-.69348-19.71112-1.03515-29.5664 1.73551-65.54367-6.03759-130.8073-5.14454-196.35743-.09693-.91002-.1541-1.82223-.24804-2.73242zm248.32226 2.19531c.01089 8.14862.06396 16.29613-.14062 24.45313.39063 24.35077 1.28095-.60875 2.58008-21.51953-.16336-.19607-.3283-.39251-.49024-.58789-.41896 5.12425-.72771 10.25465-1.17773 15.37695.24981-5.49136.17984-10.97107.27929-16.45703-.34266-.41734-.71393-.85093-1.05078-1.26563zm-356.515621 2.49219c-.152954.39847-.322459.80667-.47461 1.20508.03768 6.08459.026782 12.16511.056641 18.25.089227-6.48395.251405-12.96889.417969-19.45508zm-.417969 19.45508c-.092693 6.73583-.086676 13.46752.013672 20.19531-.00977-6.73312.019368-13.46209-.013672-20.19531zm.013672 20.19531c.010361 7.14077-.07103 14.27983-.103516 21.41992l.556641-.96289c-.016349-1.49988.017586-3.00256-.005859-4.50195-.262717-5.31337-.367892-10.63347-.447266-15.95508zm361.124998-37.08789c-1.40998 21.36885-2.99672 42.72367-5.40234 64.01172-.13092 5.65045-.25194 11.30226-.38477 16.95313l1.11524 1.48828c.87238-24.4546 2.25207-48.87883 5.4707-73.18555.04582-2.65825.20909-5.31011.2832-7.9668-.3813-.44375-.70882-.86126-1.08203-1.30078zm-227.01172 1.40235c-.19436 7.55761-.23175 15.12404-.35742 22.68554.08559-3.02328.32683-.4939.8418 14.91406 1.13053 38.9481.95305 77.89491.4082 116.8418.25484-.90221.47073-1.63072.72852-2.54687.18766-50.64302.15259-101.28752-1.6211-151.89453zm-.35742 22.68554c-.01359.48005-.02173.9928-.02734 1.74414.00933-.58137.01768-1.16278.02734-1.74414zm-.02734 1.74414c-.7639 47.5699-.61197 95.19514-2.36719 142.75586.36132-1.24734.76011-2.66152 1.13477-3.96679 1.57203-38.16355 2.64446-76.33959 1.52148-114.57618-.19531-8.14482-.32801-19.00285-.28906-24.21289zm-135.259768-23.38672c-.563584 1.50021-1.100598 3.07665-1.65625 4.58594.066139 19.10698.026868 38.20261-.269531 57.29492l1.501953-2.60351c.120949-18.51087.165533-37.02628.324218-55.53125.06503-1.25022.04863-2.49655.09961-3.7461zm369.050778 4.79688c-1.09848 14.28052-2.38221 28.55327-3.70898 42.82031.95306-9.11435 2.00036-18.22011 3.20508-27.31055.36339-4.97882.65348-9.98236.99218-14.97265-.16207-.17837-.32773-.35963-.48828-.53711zm-3.70898 42.82031c-1.05729 10.11111-1.9182 20.23727-2.6582 30.3711.91804-10.12196 1.71638-20.24349 2.6582-30.3711zm-2.6582 30.3711c-.22447 2.47484-.43359 4.94928-.65235 7.42382l.12305.16211c.16456-2.52932.34468-5.05775.5293-7.58593zm11.74609-67.28321c-3.41138 27.97503-4.01439 56.11542-5.27539 84.21485l1.38281 1.8457c.04231-.71416.13544-1.42631.17383-2.14063.19888-27.73798 2.84339-55.35049 4.62109-83-.28148-.29426-.62527-.62831-.90234-.91992zm-378.748048 1.25c-.036162.10154-.073225.20109-.109374.30274.29923 18.54404-.105439 37.10355-1.574219 55.68164-.88647-14.12302-1.983911-28.23388-3.033203-42.34766-.207439.61712-.418939 1.27113-.626954 1.89453.897369 14.12515 1.930632 28.24315 3.152344 42.34766l.50586-.87695c1.562955-18.93758 1.973442-37.96154 1.685546-57.00196zm107.738278.79492-.92382 3.79493c8.36451 67.47574 2.38025 135.46011 4.02343 203.26171-.02454 7.35651-.08171 14.71324-.13476 22.07032.60029-.13353 1.18788-.22502 1.78906-.36133-1.04783-61.72231 1.69251-123.46174-.59961-185.10352-1.93996-14.52721-3.17574-29.08822-4.1543-43.66211zm274.65235 1.63477c.07214 4.83274-.0173 9.67377.10742 14.50391-5.33293 23.77233-3.30193 47.9608-4.55664 71.99414l1.16992 1.5625c.93248-14.44274 1.56537-28.89715.91992-43.40039.36507-2.46686.54756-4.94352.84571-7.41407l-1.05469-2.64257 1.38086-.22461c1.23006-11.10588 1.91781-22.2423 2.15429-33.4043-.31343-.31918-.65862-.65866-.96679-.97461zm3.19531 3.21875c-.5903 10.24191-1.203 20.48939-1.81445 30.74023l1.92773-.3125c.72202-9.63876 1.21855-19.2791 1.38086-28.91992-.51761-.51403-.99009-1.00224-1.49414-1.50781zm-37.51172 3.9668c.72352 20.88462.92175 41.77277.86524 62.66211l1.13281-4.69532c.01462-19.33915-.52161-38.675-1.99805-57.96679zm-332.585936.0039c.785443 22.67196.958661 45.34801.847656 68.02539l1.083984-2.29882c.196128-21.92609-.257739-43.85452-1.93164-65.72657zm376.228516 1.69922c-.43543 8.01005-.95478 16.01954-1.55273 24.0293l1.79296-.29102c.56024-7.65899 1.05629-15.31914 1.4336-22.97851zm-210.42383 3.82813c-.09654.66167-.22268 2.28728-.38281 5.13086-1.69848 14.57013-2.97104 29.17466-3.93164 43.79297l1.96289-.05469c.32278-3.02094.5136-6.04025.96094-9.0625 1.25884-1.88797 2.06643-44.43834 1.39062-39.80664zm220.17383.59765c-.44482 11.33108-.95819 22.6613-1.60352 33.99024l.4668 2.95898c.63003-10.76532 1.13402-21.53699 1.88672-32.29492.11244-1.4074.10284-2.81522.19922-4.22266zm5.2832 2.39844c-.23204 15.01678-.69075 30.02442-1.31836 45.02734l1.24414-.19531c.75763-14.73301 1.24944-29.46995 1.44727-44.20898zm-303.0625.20703c-.46866 2.33231-1.22151 5.88226-1.70508 8.28321 1.42527 64.85405 6.86106 129.67909 2.36329 194.625-.30164 3.35669-.35054 6.70288-.53125 10.05468.9635-.19055 1.92738-.38116 2.89453-.58398 1.9082-58.1637 2.84212-116.39521-2.76563-174.40235.65138-12.69796.38749-25.34666-.25586-37.97656zm-110.183591.65625c-.15133.45954-.301318.9058-.453125 1.36914.848199 14.10793 1.543875 28.22193 1.966797 42.34571l.488281-.84766c-.575433-14.29318-1.173053-28.58467-2.001953-42.86719zm415.927731.35352c.22612 14.33947.69385 28.66079 1.34766 42.96875l.43555-.06836c-.61871-14.22487-1.05418-28.45581-1.31836-42.68945zm2.2461 1.01953c.01134 3.69326.10143 7.3923.08984 11.08398.74423 9.98138 1.88023 20.11221 2.87109 30.25782l1.49805-.23438c-.96924-11.36198-1.64163-22.74107-2.16406-34.12891l-1.02539-6.40234zm-140.81446 18.37695c.03828 5.3739.05513 10.74831.09375 16.1211-1.52407 58.22451-2.26811 116.46577-2.30078 174.70703.23021.05091.45606.09647.68555.14648-.20688-26.03884-.23353-52.07943.14844-78.12305 2.23052-37.05143 2.01515-74.20648 1.94336-111.3496-.1905-.49967-.37964-1.00223-.57032-1.50196zm-262.910152 2.20703-1.06836 3.59961c-.340318 22.77368.531706 45.5067 1.695313 68.23047l.482421-2.75586c-.608323-15.21509-1.016374-30.4358-.886718-45.67578-.224692-7.80089-.275885-15.60015-.222656-23.39844zm-23.947266.16016-2.332031 4.69922c-.746401 7.75088-1.364924 15.50936-2.376953 23.24414.199393 6.87715.202577 13.75059.173828 20.62305l1.705078-2.95704c-.034429-4.20659.022759-8.41122-.091797-12.61914 1.046869-10.99014 2.032008-21.98762 2.921875-32.99023zm114.808598.90625c-.09207.45061-.19572.94626-.28907 1.40234 1.17536 17.67049 2.64786 35.31291 3.22461 52.98438-.49389-18.14712-1.3456-36.27869-2.93554-54.38672zm2.93554 54.38672c.05661 2.07993.15629 4.15792.20313 6.23828-.03611-2.08044-.13527-4.15903-.20313-6.23828zm.20313 6.23828c.17439 10.04733-.00232 20.10911-.9043 30.20117 1.45433 33.09337-.43801 66.19996-1.39648 99.29688.21903-.03866.44282-.09525.66211-.13477.06506-17.75807.61815-35.51787 2.20898-53.28125-.05164-25.38318.00007-50.74706-.57031-76.08203zm281.27734-57.08008c-.9129 15.86158-1.68493 31.72959-2.11133 47.59375l.80078 1.06836c.13523-14.56217.77014-29.13181 2.58204-43.7207.05405-.48371.06894-.96747.12109-1.45117zm-376.923827.93945-.580078 1.95704c-.134764 22.21254-.530332 44.42001-1.455078 66.61328l.464844.08398c1.02851-22.86751 1.740915-45.76342 1.570312-68.6543zm267.917967 1.10938c-.16524 46.08094 2.8469 92.25559 2.94531 138.26758-.93337 15.23955-.49955 30.41032.26563 45.56445.29913.05374.57317.07668.87109.12891-.40072-15.16119.01155-30.36771.05078-45.50586-.40163-44.8005-2.70009-89.70478-2.65039-134.54297-.49319-1.30208-.98838-2.61078-1.48242-3.91211zm144.00977 6.33203c-.02139 2.39885.01311 4.79991.0039 7.19922l1.1211-.17578zm-414.384768.83594-1.767578 5.96094c-.405437 17.85957-.974374 35.71081-2.3125 53.51757l1.929687.34961c1.46879-19.90185 1.946532-39.8571 2.150391-59.82812zm46.253908 1.07617c-.80647 14.70598-1.48467 29.41715-1.75781 44.125l.91601-1.18945c.00042-11.64885.55054-23.30539 1.52539-34.96875zm-73.691408.56836-1.337891 2.69531c-.664836 9.1007-1.586908 18.18818-2.638672 27.26953l1.558594.79688c.895817-10.24847 1.638475-20.50559 2.417969-30.76172zm9.294922 1.24414c-.086987 2.24458-.143909 4.49711-.228516 6.74219.345169-3.05605.765542-4.56121 1.238281-4.09375-.34819-.86642-.57385-1.90745-1.009765-2.64844zm1.009765 2.64844c.201097.50039.409837.99013.583985 1.52929-.197434-.64871-.388673-1.33616-.583985-1.52929zm.583985 1.52929c.639221 2.10031 1.109372 6.63935 1.515625 11.6211l.46289-.80469c-.298984-4.13659-.976059-7.71278-1.978515-10.81641zm-1.822266 2.56446c-.320016 2.83335-.582803 6.79259-.658203 13.65625.008399.78197-.01398 1.56374-.007813 2.3457l.128907-.22461c.186767-5.25609.339119-10.52364.537109-15.77734zm402.990232-5.71289c-1.03092 13.67128-2.01124 27.34174-2.4414 41.01172l.5957.79492 1.5625-.9336c.22343-12.30469.98841-24.60191 1.86914-36.89843zm-191.10742.71679c-.39793-.30666-.78707 1.03151-1.1582 3.23047.78167-.58004 1.3515-.14706 1.80468.84375l.24805-.00586c-.29661-2.08376-.59596-3.83827-.89453-4.06836zm-1.1582 3.23047c-.17111.12698-.31474.12492-.50391.33789.0052.19015-.01075.37825-.00586.56836l.40235-.00976c.03769-.24751.06923-.67025.10742-.89649zm-101.31836-1.53906c-.09309.44327-.13992.68963-.23438 1.13867.36023 7.06503.65621 14.12873.66992 21.15235.20282-4.73944.33136-9.48244.29297-14.23243-.26697-1.67817-.47823-5.37484-.72851-8.05859zm.43554 22.29102c-.46336 10.82769-1.54972 21.63597-2.71679 32.44335 2.02339-10.75324 2.73802-21.57033 2.71679-32.44335zm-2.71679 32.44335c-.73079 3.88377-1.52582 7.76494-2.6543 11.63086-.63546 11.44006-1.37996 22.8805-2.04492 34.32032 1.19307-15.36694 3.04799-30.66042 4.69922-45.95118zm-4.69922 45.95118c-.5312 6.84196-.8183 13.70535-.94531 20.58203.23879-6.85989.54649-13.72075.94531-20.58203zm-.94531 20.58203c-.59641 17.13313-.58666 34.26129 1.21093 51.375.55527-.04939 1.1063-.08427 1.66407-.14258-.82588-13.49324-1.67304-26.98578-2.95118-40.45898-.08376-3.59996.00991-7.18544.07618-10.77344zm-114.443362-118.09571-.134766.27149c-.492476 7.02496-.977667 14.05054-1.433594 21.07812l.191406.09766c.591113-7.14455 1.029369-14.29484 1.376954-21.44727zm308.474612 1.18555c-.15081 17.98405-.55421 35.96519-1.52344 53.93945.9277 25.25557.7607 50.5878 1.24414 75.87305.03875-5.07895.23863-10.16772.6543-15.26953-2.03728-37.61827-.70719-75.22135.27343-112.83008-.21509-.57333-.4333-1.14007-.64843-1.71289zm-.2793 129.8125c-.00189.24768.01088.49456.00977.74219-.00486-.24728-.00504-.4949-.00977-.74219zm.00977.74219c.02634 1.34074.05931 2.68104.08984 4.02148-.01568-1.34133-.09589-2.67882-.08984-4.02148zm.08984 4.02148c.06633 5.67531.37903 11.33556.75 16.99219-.22917-5.66532-.62082-11.31966-.75-16.99219zm.75 16.99219c.20391 5.04081.35252 10.0862.66602 15.11914.19018.02961.3767.05303.5664.08203-.47371-5.06309-.8998-10.12923-1.23242-15.20117zm-311.748048-147.30273-.798828 1.61132c-.282779 4.29905-.503109 8.60352-.779296 12.90235l.601562.30664c.336667-4.94019.641056-9.88112.976562-14.82031zm313.761718 2.53906c-.63193 48.89218.12906 97.78343 4.00195 146.58984.4197-13.56314.46749-27.14451 1.53125-40.67968 3.11621-25.65816 4.49755-51.41644 5.56836-77.19141-.28542-.73145-.56704-1.47561-.85156-2.20703-1.24609 25.99243-3.21681 51.91065-6.02539 77.88281-1.7958 10.50555-4.6123-49.48367-4.16211-68.34961-.0515-11.59549.22111-23.18484.42774-34.77539-.16456-.42827-.3253-.84052-.49024-1.26953zm65.36914 1.00195c-.02282 7.29785-.17792 14.59631-.25781 21.89453l.96094.73633c.2052-7.26607.31332-14.5324.36914-21.80078zm-257.16992 2.56836c-.40465 1.87435-.60492 2.67342-.98437 4.42188.44732 2.16467.25649 1.80512-.16211.72656-2.11347 9.72914-3.9078 17.69669-5.54297 24.88086-.53471 3.20732-1.28019 6.41173-2.14063 9.60937-.24133 1.03675-.60003 2.74951-.84179 3.7793 5.85247-15.56923 15.0429-31.34841 3.73046-4.03516-3.69951 39.48799-11.51096 79.34483-2.80078 118.82813.53527-.01818 1.07915-.06558 1.61719-.09375-.99376-14.07638-2.19265-28.1371-3.88477-42.16016 1.16631-26.99895 4.5591-54.20036 8.20899-80.83984 5.12897-11.59885 4.58976-23.31202 2.80078-35.11719zm262.08398 1.23438c.05811 7.02425.11688 14.04821.1875 21.07226l1.11719-1.4414c-.09485-6.27733-.18275-12.55466-.27148-18.83203zm-67.41601 2.61133c.32248 14.73873.7587 29.48965.56836 44.26171 3.35883-6.10452 3.57277-19.28292 3.61328-33.44336-.14078-.36516-.28309-.73424-.42383-1.09961-.05247 10.57328-.3622 21.12567-2.29492 31.51563-.04911-12.45927.02667-24.89162.04492-37.33203-.50014-1.3022-1.00617-2.59539-1.50781-3.90234zm-290.117189 1.71289-1.113281 6.34961c.025886 6.02524.240223 12.04478.132812 18.07421-.096758 2.54365-.015751 5.08053-.082031 7.62305l1.761719.32031c-.102587-10.79381-.377131-21.5818-.699219-32.36718zm364.501949 1.0664c-.05456 2.37896-.10881 4.75772-.1621 7.13672l.89453-1.15625c.03655-1.75683.14899-3.50914.1914-5.26562zm37.13086.01953c-.23665 3.88713-.45947 7.77476-.68945 11.66211l.94531-.5664c.13345-3.23837.14726-6.47883.29492-9.7168zm-298.15625 8.86524c-.69013.94997-2.44138 9.81185-4.02343 20.26172.56725-3.20229 1.32293-6.37715 2.24218-9.52735.5859-3.12294 1.15765-6.24687 2.0625-9.35156.03012-1.25898-.07532-1.66627-.28125-1.38281zm-1.78125 10.73437c-.55178 2.94113-.97003 5.89049-1.2832 8.84571.68049-4.65999 1.55412-9.30753 2.82422-13.92579-.61722 1.67803-1.04612 3.38412-1.54102 5.08008zm-1.2832 8.84571c-5.20397 35.63681 4.79973 72.37245.0918 108.42968-.24175 4.46262-.30569 8.9209-.4375 13.38086.34891-.05449.69333-.09337 1.04297-.15039.14601-12.41605.46184-24.83558 1.24218-37.26172 1.63225-28.15042-4.88954-56.55957-1.93945-84.39843zm-.95898.68164c-.39903 2.2526-.62741 4.53167-.89063 6.80468.30125-2.31007.5558-4.59307.89063-6.80468zm-.89063 6.80468c-1.24837 9.57303-2.23058 19.35884-1.76758 25.57618-1.85774 29.73554-1.27771 59.47506-.28711 89.21875.35975-.04673.71944-.09271 1.08008-.14258-.7265-21.52253-1.36683-43.04512-1.51953-64.57227 1.65229-16.61542.58263-33.57335 2.49414-50.08008zm-61.980468-27.02929-.808593 1.04883c-.151514 1.9075-.357281 3.81726-.501953 5.7246-.134197 5.20647-.081776 10.41506-.154297 15.62305l.68164.52735c.165907-7.64425.429806-15.2856.783203-22.92383zm-4.142578 5.37304-.875 1.13477c-.093074 4.31592-.176284 8.63127-.261718 12.94726l.99414.76758c.050506-4.94992.062235-9.90131.142578-14.84961zm-6.074218 7.87696-1.158204 1.5039 1.19336.91993c-.012487-.80794-.022725-1.61589-.035156-2.42383zm276.326174 7.36718c-.89535 18.37635-1.48954 36.76699-.91016 55.21875-4.01669 21.95475-4.79791 44.13897-5.49023 66.32813.06501.00676.12645.01089.1914.01758.54191-21.68936 1.11272-43.38153 5.32422-64.80469-1.33829 21.65793-1.76341 43.36286-2.13086 65.06836.10973.00951.21855.01803.32813.02734 1.03962-38.86813 2.61821-77.71481 4.83008-116.52343-.16082-.39879-.3203-.79695-.48047-1.19532-1.08234 15.2093-1.95298 30.42764-1.92969 45.6875-.64502-16.34707-.23441-32.67816.59766-49-.10927-.27385-.22108-.55051-.33008-.82422zm3.74804 9.32813c-1.17541 37.64244-.38725 75.35198-.09375 113.05078.49537.02651.97641.03589 1.46875.05859-.11535-36.46853-.16218-72.93112.13672-109.38085-.51444-1.24967-1.00482-2.48445-1.51172-3.72852zm-224.57812 13.69726-3.56641 14.17383c-1.65453 28.26864-.30781 56.5563 2.13672 84.76758.5316.02619 1.06466.04846 1.59961.0625-3.39326-32.95947-4.56954-66.28918-.16992-99.00391zm231.9668 3.94336c-1.56725 31.84319-3.566 63.67201-3.50196 95.5254.76215.02552 1.51038.03391 2.26563.05078.22042-30.28636 1.96544-60.56403 3.27344-90.85352-.18346-.418-.37737-.80522-.56055-1.22461-.51506-1.18494-.97103-2.32131-1.47656-3.49805zm4.66601 10.46875c-.79648 25.03252-1.59632 50.05229-2.55469 75.06641.19705 3.37432.21434 6.75035.38282 10.125.23745.00106.48585.01537.72265.01563-.12089-27.88725 1.06653-55.77938 2.14844-83.67579-.23187-.51301-.46795-1.01636-.69922-1.53125zm5.04492 11.0293c-.75984 24.72721-1.98815 49.43877-3.15625 74.15625.47846-.00697.94003-.03486 1.41602-.04492.76573-24.47278 1.85999-48.9465 2.04687-73.44141-.10366-.21978-.20314-.44986-.30664-.66992zm-248.19921.47461-.94922 3.77148c-.16789.62738-.35856 1.25544-.52735 1.88282.03054 22.38122 1.08102 44.7385 2.5 67.08594.36307.04136.71132.13699 1.07617.17187-1.51109-24.29182-2.43395-48.59143-2.0996-72.91211zm248.83984.92383c.4804 22.43928.56313 44.88661 2.02734 67.29687-.01247 1.75999-.09272 3.51937-.11133 5.2793.13649-.0055.27581-.00794.41211-.01367-.47055-23.80521-1.25398-47.61389-1.80859-71.42774-.17641-.37105-.34362-.76295-.51953-1.13476zm3.59961 7.45117c.77404 21.65835 1.72563 43.30741 2.97656 64.94141.08907-.00531.17468-.01413.26367-.01953-1.36496-21.23966-1.97943-42.51531-2.66992-63.79102-.18636-.37927-.38459-.75096-.57031-1.13086zm-254.92188.875c-.17247.63455-.35977 1.26973-.5332 1.9043.39171 20.39768 1.3876 40.85416 1.23633 61.1289.15818.02607.31605.05342.47461.07813-.43471-20.99516-1.10385-42.07594-1.17774-63.11133zm259.2461 7.69531c.99104 18.67532 2.50743 37.3178 4.17187 55.94336.98126-.07937 1.97739-.13981 2.95117-.22851-.55557-9.53298-1.63323-19.05365-3.48632-28.53125-.65827-4.7681-1.30153-14.15692-1.84375-23.62696-.60825-1.17804-1.19244-2.37475-1.79297-3.55664zm-264.10938 9.67383c-.62146 2.17319-1.1922 4.34349-1.82617 6.51758.31969 12.57653.6162 25.12193.9668 37.65039.59707.18033 1.17976.41326 1.7832.57031-.53875-14.90514-.80453-29.82054-.92383-44.73828zm207.81055 3.36328c1.01127 13.27692 1.67212 26.56577 2.20898 39.85938.62526.12148 1.29015.29333 1.91016.4082-1.12786-13.44548-2.41848-26.87582-4.11914-40.26758zm64.66797 2.87696c1.85087 13.03156 2.34906 26.21578 2.45117 39.42578.5627-.05788 1.10339-.14272 1.66406-.20313-.06557-1.7284.00245-3.4493-.09765-5.17969.89566-10.3163-.32575-20.37595-1.98633-30.38476-.67526-1.21769-1.36683-2.44058-2.03125-3.6582zm-275.62891 4.73828c-.63679 2.1546-1.34043 4.31679-1.99023 6.47265.35887 8.53534.59603 17.07223.81836 25.60938.75813.29575 1.54495.48616 2.31445.74023-.26936-10.94484-.64428-21.88601-1.14258-32.82226zm281.1543 5.20703c.6562 9.65438 1.0359 19.31107 1.09765 28.9707.56376-.06455 1.1196-.13841 1.68165-.20508-.02045-8.50823-.3126-16.99139-.93165-25.44531-.64152-1.11016-1.21633-2.21235-1.84765-3.32031zm3.06836 5.48047c.20808 7.73214.35939 15.46639.36328 23.20508.15711-.01888.31371-.03762.4707-.05665-.03322-7.48533-.19802-14.96713-.4082-22.44726-.13494-.23078-.2913-.47053-.42578-.70117zm-289.67383 7.04297c-.32675 1.04728-.63477 2.09291-.96484 3.14062.12825 2.98046.17993 5.96227.27734 8.94336.44048.23772.88115.47429 1.32617.69531-.16821-4.26096-.40609-8.52015-.63867-12.77929zm295.54101 2.60742c.23952 4.26955.38459 8.54005.5879 12.81054.15713-.02068.31755-.0378.4746-.05859-.23003-4.0661-.46193-8.13185-.7246-12.19726-.1121-.18467-.22612-.37017-.3379-.55469zm5.12305 8.42383c.01806 1.27541.03007 2.55073.04688 3.82617.1526-.02095.31033-.03564.46289-.05664-.00904-.99673-.02574-1.99351-.03516-2.99024-.16489-.26306-.31041-.5166-.47461-.77929z" opacity=".5" stroke-width=".031305"/><path d="m340.44861 246.40109c-6.11995-1.06855-12.14279-2.62282-18.06851-5.82854-4.07998 4.85713-9.32567 8.4514-14.57135 8.83996-16.22276 1.36001-32.05698-37.20551-32.05698-37.20551s17.38847-4.95424 32.44557-4.85713c9.03422 0 17.29132 1.84572 20.30278 7.67426 2.13711 3.88571 1.94282 8.9371.38855 13.79423 6.31425 1.35997 12.82279 1.55427 19.33134 1.35997"/><path d="m268.66863 113.97894-17.67992 25.74271-8.83992-20.49703-9.90852 14.66849-13.69709-14.27992-7.0914 43.32549 16.31991-12.62851 17.09708 16.99992 16.9999-16.0285 15.59656 15.45544z"/><path d="m210.67463 79.804269c-27.72339 6.518175-15.76577 14.171384-5.05139 21.789031l32.54268-5.158263z"/><path d="m276.14858 78.63856-29.91981 18.14619 32.83408 5.17769c9.15388-4.780029 26.84399-7.035432-2.91427-23.32388"/></g></svg>