<svg height="500.0004" viewBox="0 0 500 500.0004" width="500" xmlns="http://www.w3.org/2000/svg"><g transform="translate(-500 -500)"><path d="m999.99997 750a249.99997 250 0 0 1 -249.99997 250 249.99997 250 0 0 1 -249.99997-250 249.99997 250 0 0 1 249.99997-250 249.99997 250 0 0 1 249.99997 250z" fill="#ffe24c"/><path d="m1000 750.00632-194.05817-2.60063 192.98367-20.4591-193.45987 15.31075 190.28547-38.19139-191.22567 33.10816 185.92267-55.58184-187.34707 50.61663 180.01317-72.50831-181.88127 67.68555 172.56127-88.82024-174.86477 84.18876 163.62798-104.35075-166.35478 99.94311 153.30278-119.00625-156.40808 114.88758 141.65488-132.65651-145.14668 128.82271 128.82258-145.14278-132.65648 141.65492 114.88758-156.42029-119.00218 153.31093 99.94719-166.3385-104.34669 163.60764 84.17649-174.84041-88.81609 172.54909 67.67739-181.89345-72.48799 180.02133 50.6167-187.35925-55.5941 185.94294 33.1-191.23373-38.1995 190.27732 15.3474-193.45586-20.4957 192.97968-2.59249-194.05413-2.5681 194.05413-20.4916-192.97968 15.327 193.45586-38.2004-190.27732 33.1171 191.23373-55.5936-185.94294 50.6162 187.35925-72.51029-180.02133 67.69979 181.89345-88.81699-172.54909 84.17729 174.84041-104.36289-163.60764 99.96869 166.3385-119.00618-153.31093 114.86968 156.42029-132.64018-141.65492 128.81968 145.14278-145.14988-128.82271 141.67318 132.65651-156.42638-114.88758 153.29788 119.00625-166.34218-99.94311 163.62828 104.35075-174.86477-84.18876 172.54667 88.82024-181.87387-67.68555 180.00617 72.50831-187.35587-50.61663 185.94077 55.58184-191.21897-33.10816 190.28097 38.19139-193.47947-15.31075 192.98647 20.4591-194.04384 2.60063 194.04384 2.58435-192.98647 20.46723 193.47947-15.31481-190.28097 38.20361 191.21897-33.12445-185.94077 55.58997 187.35587-50.60849-180.00617 72.5083 181.87387-67.68553-172.54667 88.81211 174.86477-84.17656-163.62828 104.33851 166.34218-99.95936-153.29788 119.0103 156.42638-114.87941-141.67318 132.66054 145.14988-128.83082-128.81968 145.13868 132.64018-141.66304-114.86968 156.42028 119.00618-153.28243-99.96869 166.32222 104.36289-163.59543-84.17729 174.84852 88.81699-172.55719-67.69979 181.8975 72.51029-180.02538-50.6162 187.35108 55.5936-185.93884-33.1171 191.21336 38.2004-190.26101-15.327 193.47618 20.4916-192.99594 2.5681 194.05003 2.59249-194.05003 20.4957 192.99594-15.3474-193.47618 38.1995 190.26101-33.1-191.21336 55.5941 185.93884-50.6167-187.35108 72.48799 180.02538-67.67739-181.8975 88.81609 172.55719-84.17649-174.84852 104.34669 163.59543-99.94719-166.32222 119.00218 153.28243-114.88758-156.42028 132.65648 141.66304-128.82258-145.13868 145.14668 128.83082-141.65488-132.66054 156.40808 114.87941-153.30278-119.0103 166.35478 99.95936-163.62798-104.33851 174.86477 84.17656-172.56127-88.81211 181.88127 67.68553-180.01317-72.5083 187.34707 50.60849-185.92267-55.58997 191.22567 33.12445-190.28547-38.20361 193.45987 15.31481-192.98367-20.46723z" fill="#fffbb3" fill-rule="evenodd"/></g><path d="m306.58398 80.5168c-1.26436-7.732565-3.94113-15.803177-6.61132-21.417969-3.45766-7.340603-8.06377-14.929235-13.17774-22.111328-9.42926-15.604622-21.98927-23.154754-36.7793-32.3984378-15.47095 8.0954158-27.39639 19.3015748-36.77929 32.3984378-5.11392 7.182055-9.72007 14.770696-13.17774 22.111328-3.57855 7.09801-5.10856 13.870149-6.61132 21.417969l12.75585 26.0166c-3.83541 2.93751-6.50113 5.82369-9.36523 9.10449l-22.99609-15.33398 29.82226-74.572266-49.81836-19.8105475-45.90234 114.7539035 54.56055 36.41602-49.73047-8.29102-63.861331-143.5703098-48.912109 21.7226568 75.507812 169.958983 72.863278 12.15039-5.50195 20.82617-53.121093 13.9043-89.44726575 232.56445 50.01171875 19.05469 79.36914-206.4043 25.60938-6.38281 4.02148 14.48828-42.12891 31.50391-37.753903 151.375 51.835933 13.10937 33.33204-133.02539 11.79687-8.875c2.18928 6.04959 4.30168 12.20429 6.62109 18.0332l.002.002.002.004c9.87484 24.79061 20.76955 47.05893 31.50781 63.70508l.0137.0234.0137.0215c5.31225 8.18179 10.34455 14.87287 16.1289 20.26954 5.62298 5.79323 12.93422 9.45708 19.33203 9.46289 6.39781.006 14.51122-4.85164 19.33204-9.46289 5.78431-5.39665 10.81665-12.08775 16.1289-20.26954l.0137-.0215.0156-.0234c10.73827-16.64616 21.63297-38.91448 31.50781-63.70508v-.004l.002-.002c2.31941-5.8289 4.43183-11.98361 6.6211-18.0332l11.79687 8.875 33.33203 133.02539 51.83594-13.10937-37.7539-151.375-42.12891-31.50391 4.02148-14.49023 25.60938 6.38476 79.36914 206.4043 50.01172-19.05469-89.44746-232.56445-52.92773-13.17578-5.69531-21.55274 72.90429-12.15234 75.43555-169.947264-48.85156-21.7480476-63.88867 143.5839816-49.73243 8.29102 54.56055-36.41602-45.90039-114.7539035-49.82031 19.8105475 29.82226 74.572266-22.99609 15.33398c-2.86406-3.28076-5.52988-6.16705-9.36524-9.10449z" fill="#f2c80d"/><path d="m250.01582 25.71784c-.0974 0 0 0 0 .09745 0 0 .0974-.09745 0-.09745zm0 .09745c-.38974.243607-4.09215 1.646785-7.98944 5.232686-4.48188 4.004903-9.54835 9.948922-14.12766 16.380154-4.5793 6.431234-8.76889 13.398403-11.59442 19.410631-2.4358 5.057289-3.60499 9.159635-3.99471 11.118239l11.98414 23.81504h51.44416l11.98416-23.815042c-.38974-1.958604-1.55892-6.06095-3.99473-11.118239-2.82553-6.012228-7.0151-12.979397-11.59442-19.410631-4.57931-6.431232-9.64578-12.375251-14.12765-16.380154-3.89728-3.585901-7.59971-4.989079-7.98943-5.232686zm-210.239031 3.166893-16.01784 7.113334 64.266225 144.654013 65.435406 10.91361c1.94865-5.4568 4.38445-11.01105 7.01512-16.66274l-60.21305-10.03662zm420.497531 0-60.50535 135.981597-60.21304 10.03662c2.63067 5.65169 5.06647 11.20594 7.01511 16.66274l65.47438-10.91361 64.20778-144.654013zm-296.3885.302073-33.80895 84.521994 46.57256 31.08428c3.11783-5.26191 6.33308-10.13406 9.54835-14.71387l-34.49098-22.99654 28.54762-71.386677zm172.25998 0-16.36859 6.509187 28.54761 71.386687-34.49097 22.99654c3.21526 4.5798 6.43052 9.45195 9.54835 14.71387l46.57255-31.08428zm-117.30827 89.978784c1.65636 0 .2923-.0974-1.75378 1.55911-2.04607 1.55908-4.77416 4.38492-7.89199 7.9903-6.0408 7.21078-13.15334 17.63718-19.77873 28.94055-10.13293 17.34486-18.80439 37.61297-22.40938 51.25498 3.60499-3.4105 7.59971-6.62612 11.98415-9.5494 18.70697-12.4727 43.64959-19.78092 71.02802-19.78092 27.37841 0 52.32104 7.30822 71.02801 19.78092 4.38445 2.92328 8.37916 6.1389 11.98414 9.5494-3.60498-13.64201-12.27644-33.91013-22.40938-51.25498-6.62538-11.30337-13.73793-21.72977-19.77872-28.94055-3.11782-3.60539-5.84593-6.43123-7.892-7.9903-2.04608-1.65653-3.41012-1.55911-1.75378-1.55911zm12.27645 79.31855c-16.56346 2.43607-31.27571 7.99032-42.38297 15.39598-15.19941 10.13407-23.48114 23.19142-23.48114 36.83343 0 13.642 8.28173 26.69936 23.48114 36.83343 11.10726 7.40566 25.81951 12.9599 42.38297 15.39597-21.33763-7.79543-36.63448-28.25844-36.63448-52.2294s15.29685-44.43398 36.63448-52.22941zm37.80366 0c21.33764 7.79543 36.63448 28.25845 36.63448 52.22941s-15.29684 44.43397-36.63448 52.22941c16.56346-2.43607 31.27571-7.99032 42.38298-15.39597 15.19941-10.13407 23.48113-23.19143 23.48113-36.83343 0-13.64201-8.28172-26.69936-23.48113-36.83343-11.10727-7.40566-25.81952-12.95991-42.38298-15.39599zm-15.29684 14.42156c12.08159 4.57981 20.75305 16.37041 20.75305 30.01241 0 17.63717-14.51739 32.15617-32.15261 32.15617-13.64049 0-25.42978-8.67242-30.00909-20.75534 1.75378 19.39113 18.02495 34.39735 37.80367 34.39735 21.04533 0 37.99852-16.95507 37.99852-38.00274 0-19.78091-15.00455-36.05388-34.39354-37.80785zm-105.81128 34.88456-44.62391 11.1085-79.602039 206.96877 16.368596 6.23634 76.289343-198.3938 33.61408-8.38008c-1.36404-4.67726-2.1435-9.54941-2.1435-14.61644 0-.97444 0-1.94886.0974-2.92329zm204.41258 0c.0974.97443.0974 1.94885.0974 2.92329 0 5.06703-.77945 9.93918-2.1435 14.61644l33.61408 8.38008 76.28935 198.3938 16.36859-6.23634-79.60204-206.96877zm-172.74714 54.56804c5.65106 20.36557 12.66617 41.02347 20.26588 60.12228 9.54835 23.97096 20.16845 45.50585 29.91166 60.6095 4.8716 7.50311 9.54834 13.44713 13.44564 17.05252 3.79985 3.70282 6.62538 4.48237 6.91768 4.48237.29229 0 3.11782-.77955 6.91768-4.48237 3.89728-3.60539 8.57402-9.54941 13.44563-17.05252 9.74321-15.10365 20.3633-36.63854 29.91166-60.6095 7.5997-19.09881 14.61482-39.75671 20.26588-60.12228-18.60954 12.2778-43.35729 19.48858-70.54085 19.48858-27.18357 0-51.93133-7.21078-70.54086-19.48858zm-14.71225 13.05735-31.66544 23.67863-31.8603 127.74768 16.95319 4.28748 30.49625-121.70621 21.62993-16.27297c-1.94865-5.84658-3.79985-11.79059-5.55363-17.73461zm170.50621 0c-1.75378 5.94402-3.60499 11.88803-5.55364 17.73461l21.62994 16.27297 30.49625 121.70621 16.95319-4.28748-31.86031-127.74768z" fill="#fffdcc" stroke-width="36"/></svg>