<svg height="500" viewBox="0 0 500 500" width="500" xmlns="http://www.w3.org/2000/svg" xmlns:xlink="http://www.w3.org/1999/xlink"><filter id="a" color-interpolation-filters="sRGB" height="1.02204" width="1.026343" x="-.013171" y="-.01102"><feGaussianBlur stdDeviation="2.4369838"/></filter><filter id="b" color-interpolation-filters="sRGB" height="1.023267" width="1.028139" x="-.014069" y="-.011634"><feGaussianBlur stdDeviation="2.4369838"/></filter><filter id="c" color-interpolation-filters="sRGB" height="1.024849" width="1.03051" x="-.015255" y="-.012425"><feGaussianBlur stdDeviation="2.4369838"/></filter><filter id="d" color-interpolation-filters="sRGB" height="1.044263" width="1.069229" x="-.034614" y="-.022132"><feGaussianBlur stdDeviation="4.1939092"/></filter><g transform="translate(0 -1000)"><path d="m0 1250a250 250 0 0 1 -250 250 250 250 0 0 1 -250-250 250 250 0 0 1 250-250 250 250 0 0 1 250 250z" fill="#9db3df" stroke-linecap="round" stroke-linejoin="round" stroke-width="9.39799" transform="scale(-1 1)"/><path d="m263.85417 1289.4759c11.1612 3.7204 14.8816-7.4408 18.46913-11.0283 7.04219-8.7696 15.28021-26.0428 14.48299-54.6102-10.49685-61.1209-92.21278-68.5617-125.69638-20.1965-11.1612 18.602-11.1612 33.4836-14.8816 52.0856 0 29.7632 14.8816 52.0856 40.9244 70.6876 11.1612 11.1612 26.0428 11.1612 37.204 14.8816 70.6876 11.1612 130.214-48.3652 119.0528-119.0528-7.4408-29.7632-22.3224-59.5264-48.3652-78.1284-44.6448-29.7632-96.7304-29.7632-137.6548-3.7204-18.602 11.1612-29.7632 22.3224-40.9244 40.9244-63.2468 100.4508 26.0428 219.3708 133.9344 208.2096 22.3224 0 40.9244-11.1612 63.2468-18.602 22.3224-14.8816 44.6448-37.204 59.5264-59.5264 40.92441-78.1284 7.4408-171.0056-66.9672-215.6504-26.0428-11.1612-52.0856-22.3224-81.8488-22.3224-37.204 0-70.6876 11.1612-100.4508 33.4836-33.4836 26.0428-52.0856 59.5264-66.9672 96.7304-7.4408 14.8816-3.7204 33.4836-7.4408 52.0856 0 119.0528 126.4936 215.6504 241.69313 174.726 29.7632-14.8816 63.2468-26.0428 89.2896-52.0856 22.3224-29.7632 44.6448-59.5264 52.0856-96.7304 3.7204-26.0428 7.4408-44.6448 3.7204-70.6876-18.602-152.5364-189.60753-234.25236-319.82153-156.2568-22.3224 14.8816-44.6448 29.7632-59.5264 52.0856-29.7632 37.204-44.6448 74.408-52.0856 119.0528-18.602 137.6548 96.7304 260.2951 230.53193 260.2951 29.7632 0 63.2468-11.1612 93.01-18.602 37.204-14.8816 70.6876-33.4836 96.7304-66.9672 18.602-26.0428 29.7632-52.0856 44.6448-81.8488 11.1612-33.4836 18.602-70.6876 14.8816-104.1712-7.4408-44.6448-18.602-85.5692-44.6448-119.0528 96.59753 111.7449 44.51193 297.7649-81.8488 364.7321-22.3224 14.8816-48.3652 18.602-70.6876 26.0428-89.2896 22.3224-178.44633-14.8816-234.25233-78.1284-14.8816-14.8816-18.602-33.4836-29.7632-52.0856-48.3652-70.6876-33.4836-152.5364 3.7204-226.8116 52.0856-89.2896 159.9772-130.21396 264.01553-100.4508 63.2468 18.602 115.3324 63.2468 141.3752 126.4936 7.4408 29.7632 14.8816 59.5264 14.8816 89.2896 0 37.204-11.1612 70.6876-29.7632 104.1712-14.8816 22.3224-26.0428 40.9244-48.3652 55.806-18.602 11.1612-33.4836 18.602-52.0856 29.7632-33.4836 11.1612-70.6876 18.602-111.612 14.8816-122.7732-18.602-200.76873-148.816-156.2568-267.7359 14.8816-29.7632 29.7632-59.5264 55.806-78.1284 55.806-40.9244 119.0528-52.0856 185.88713-29.7632 100.4508 40.9244 148.816 156.2568 89.2896 245.4135-11.1612 18.602-18.602 33.4836-33.4836 48.3652-55.806 40.9244-130.214 55.806-189.60753 18.602-14.8816-14.8816-33.4836-18.602-44.6448-37.204-44.6448-66.9672-44.6448-156.2568 18.602-211.9299 63.2468-55.806 174.72593-40.9244 215.65033 37.204 7.4408 22.3224 18.602 40.9244 14.8816 66.9672 0 22.3224-11.1612 40.9244-14.8816 59.5264-26.0428 55.806-96.7304 74.408-152.5364 55.806-18.602-11.1612-40.9244-18.602-52.0856-37.204-48.3652-70.6876-7.4408-178.4463 85.5692-174.7259 22.3224 0 44.6448 14.8816 63.2468 26.0428 29.7632 22.3224 33.4836 55.806 29.7632 89.2896-11.1612 48.3652-63.2468 70.6876-111.612 59.5264-22.3224-7.4408-37.204-29.7632-44.6448-52.0856-3.7204-26.0428 3.7204-48.3652 22.3224-66.9672 33.4836-33.4836 89.2896-7.4408 96.7304 37.204-3.7204 18.602-14.8816 37.204-29.7632 52.0856" fill="#c6d2ec" opacity=".9"/><path d="m262.92407 1285.7555c10.2311 3.4546 13.68576-6.7765 17.00754-10.0982 6.37783-7.8395 13.9515-23.6512 13.15428-49.9597-9.56675-56.2046-84.77198-62.9811-115.59815-18.602-10.2311 17.1404-10.2311 30.6933-13.68576 47.8337 0 27.3715 13.68576 47.8337 37.60262 64.9741 10.2311 10.2311 23.91686 10.2311 34.14796 13.6858 64.97413 10.2311 119.58428-44.3791 109.35318-109.3532-6.77644-27.3715-20.4622-54.743-44.37905-71.7506-41.05728-27.3715-88.89099-27.3715-126.49361-3.4546-17.14041 10.2311-27.37151 20.4622-37.60261 37.6026-58.06482 92.3456 23.91686 201.6988 123.03894 191.3349 20.4622 0 37.60262-10.2311 58.06482-17.1405 20.4622-13.6857 41.05727-34.1479 54.74303-54.743 37.60261-71.7506 6.77644-157.1869-61.51947-198.2442-23.91686-10.2311-47.83372-20.4622-75.20523-20.4622-34.14796 0-64.97413 10.2311-92.21278 30.8262-30.6933 23.9169-47.83371 54.743-61.51947 88.891-6.77644 13.6858-3.45466 30.6933-6.77644 47.8337 0 109.3532 116.2625 198.2442 222.16103 160.6416 27.37151-13.6858 58.06481-23.9169 81.98167-47.8337 20.4622-27.3716 41.05727-54.7431 47.83372-88.891 3.45465-23.9169 6.77644-41.0573 3.45465-64.9742-17.14041-140.0464-174.32731-215.25168-293.9116-143.5011-20.4622 13.6858-41.05727 27.3715-54.74303 47.8337-27.37151 34.148-41.05727 68.2959-47.83371 109.3532-17.14042 126.4936 88.89098 239.3014 211.92993 239.3014 27.37151 0 58.06481-10.2311 85.43633-17.1404 34.14795-13.6857 64.97413-30.8261 88.89098-61.5194 17.14042-23.9169 27.37152-47.8338 41.05728-75.2053 10.2311-30.6933 17.14041-64.9741 13.68575-95.6674-6.77644-41.0573-17.14041-78.6599-41.05727-109.3532 88.89099 102.5768 41.05727 273.4494-75.20523 334.9689-20.4622 13.6857-44.37906 17.1404-64.97413 23.9168-81.98167 20.4622-164.09621-13.6857-215.25171-71.7505-13.68576-13.6858-17.14042-30.6933-27.37152-47.8337-44.37906-64.9742-30.6933-140.1794 3.45466-208.4753 47.83371-81.9817 146.9558-119.5843 242.62323-92.2128 58.06481 17.1404 105.89853 58.0648 129.81539 116.2625 6.77644 27.3715 13.68575 54.743 13.68575 81.9817 0 34.1479-10.2311 64.9741-27.37151 95.6674-13.68576 20.4622-23.91686 37.6026-44.37906 51.2884-17.14041 10.2311-30.6933 17.1404-47.83371 27.3715-30.82617 10.2311-64.97413 17.1404-102.57675 13.6858-112.80784-17.1405-184.55841-136.7247-143.50114-246.0779 13.68576-27.3715 27.37151-54.7431 51.28837-71.7506 51.28837-37.6026 109.35319-47.8337 170.87266-27.3715 92.21277 37.6026 136.7247 143.5011 81.98167 225.6157-10.2311 17.1404-17.14041 30.6933-30.82617 44.379-51.28837 37.6026-119.58429 51.2884-174.32732 17.1404-13.68575-13.6857-30.82617-17.1404-41.05727-34.1479-41.05727-61.5195-41.05727-143.5012 17.14042-194.7895 58.19768-51.5541 160.77443-37.8684 198.37704 33.8822 6.77644 20.4622 17.14042 37.6026 13.68576 61.5195 0 20.4622-10.2311 37.6026-13.68576 54.743-23.91686 51.2884-88.89099 68.2959-140.17936 51.2884-17.14041-10.2311-37.60261-17.1405-47.83371-34.148-44.37906-64.9741-6.77644-164.0962 78.65988-160.6416 20.4622 0 41.05728 13.6858 58.06482 23.9169 27.37151 20.4622 30.6933 51.2884 27.37151 81.9817-10.2311 44.379-58.06481 64.9741-102.57674 54.743-20.4622-6.7764-34.14796-27.3715-41.05727-47.8337-3.45466-23.9169 3.45466-44.3791 20.4622-61.5195 30.6933-30.8262 81.98167-6.7764 88.89099 34.148-3.45466 17.1404-13.68576 34.1479-27.37152 47.8337" fill="#ecf0f9" opacity=".9"/><path d="m226.91591 1287.6157c5.31486 10.4968 15.8117 5.3148 20.86082 5.3148 10.62971-1.0629 28.56735-7.4408 48.23233-28.3016 35.87528-50.624-16.7418-113.7379-74.54088-103.2411-20.99368 5.3149-31.49052 15.8117-47.30222 26.3086-20.99369 20.9937-26.30855 47.3022-20.99369 78.9256 0 15.8117 10.49684 26.3085 15.8117 36.8054 42.12024 57.7991 126.22786 57.7991 168.3481 0 15.8117-26.3086 26.30854-57.7991 20.99369-89.4225-10.49685-52.6171-47.30223-89.4225-94.60446-99.9193-20.99369-5.3149-36.80539-5.3149-57.79907 0-115.73102 26.3085-136.7247 173.5301-52.61709 241.9589 15.8117 15.8117 36.80539 20.9937 57.79907 31.4905 26.30855 5.3149 57.79907 5.3149 84.10762 0 84.10761-26.3085 126.22786-115.731 105.23417-199.8386-10.49684-26.3086-20.99369-52.6171-42.12024-73.6108-26.30855-26.3085-57.79907-42.1202-94.60446-47.3022-42.12024-5.3149-78.92563 5.3148-115.73102 20.9937-15.8117 5.3148-26.30854 20.9936-42.12024 31.4905-84.10761 84.1076-63.11393 241.9589 47.30223 294.5759 31.49053 10.4969 63.11393 26.3086 99.91931 26.3086 36.80539-5.3149 73.61078-10.4969 105.23418-31.6234 20.99368-15.8117 36.80538-26.3086 52.61708-47.3022 94.60446-120.913 31.49053-299.758-115.73101-336.5634-26.30855-5.3148-52.61709-10.4968-78.92563-5.3148-47.30223 5.3148-84.10762 20.9937-120.913 47.3022-110.41616 84.1076-115.73102 252.4557-20.99369 347.0602 20.99369 20.9937 52.61709 36.8054 78.92563 52.6171 36.80539 15.8117 73.61077 26.3085 115.73102 20.9936 31.49053-5.3148 57.79907-15.8117 89.42247-26.3085 31.49053-15.8117 63.11393-36.8054 84.10761-63.1139 26.30855-36.8054 47.30223-73.6108 52.61709-115.731-10.76259 147.4872-179.11069 242.2246-315.83539 200.1043-26.30854-5.3148-47.30223-20.9937-68.42879-31.4905-78.92562-47.3022-115.73101-136.7247-110.41615-220.8323 0-20.9937 10.49684-36.8054 15.8117-57.7991 15.8117-84.1076 84.10761-131.5427 163.03324-157.7184 99.91932-26.30852 205.15349 20.9937 257.77058 115.731 31.49052 57.7991 36.80538 126.2279 10.49684 189.3418-15.8117 26.3086-31.49053 52.6171-52.61709 73.6108-26.30854 26.3085-57.79907 42.1202-94.60446 52.6171-26.30854 5.3148-47.30223 10.4968-73.61077 5.3148-20.99368-5.3148-36.80538-10.4968-57.79907-15.8117-31.49053-15.8117-63.11393-36.8053-89.42247-68.4287-73.61078-99.9194-36.80539-247.1409 78.92563-299.758 31.49053-10.4968 63.11393-20.9937 94.60445-15.8117 68.42879 10.4969 120.91301 47.3022 152.53641 110.4162 42.12024 99.9193-5.31486 215.6503-110.41616 236.644-20.99369 5.3148-36.80539 10.4968-57.79907 10.4968-68.42879-10.4968-131.54272-52.6171-147.22155-120.913 0-20.9937-10.49684-36.8054-5.31486-57.799 15.8117-78.9257 78.92563-142.0396 163.03325-136.7247 84.10761 5.3148 152.5364 94.6044 126.22786 178.8449-10.49685 20.9937-15.8117 42.1202-36.80539 57.7991-15.8117 15.8117-36.80538 20.9937-52.61708 31.4905-57.79908 20.9937-120.91301-15.8117-147.22155-68.4288-5.31486-20.9937-15.8117-42.1202-10.49684-63.1139 15.8117-84.1076 120.913-131.5427 184.02693-63.1139 15.67883 15.6788 20.86081 41.9873 26.17567 62.981 5.31486 36.8054-15.8117 63.1139-42.12024 84.1076-42.12025 26.3086-94.60446 5.3149-120.913-36.8054-10.49685-20.9936-5.31486-47.3022 5.31485-68.4287 15.8117-20.9937 36.80539-31.4906 63.11393-31.4906 23.98451 0 41.23931 14.86 48.993 34.3086 7.53814 18.9078 6.09609 42.1526-6.87275 60.2959-15.81171 10.4968-36.80539 15.8117-57.79908 15.8117" fill="#fff" opacity=".9"/></g><g fill="#7896d3"><path d="m248.01562 33.265625c-29.0139.326619-57.72552 10.635118-80.57065 28.472565-21.72965 16.871521-38.44145 39.81112-48.98216 65.14606-13.59643 32.72825-17.96123 69.05173-13.59272 104.15971 1.52973 12.03642 4.16196 23.93646 7.92288 35.47362-21.122054 13.48036-39.177898 31.83686-51.934858 53.43022-11.289951 18.88915-18.730212 39.88625-23.316516 61.3548-5.202146 23.9642-7.054019 48.50049-8.047961 72.95664-1.128346 29.14541-.945712 58.3193-1.337182 87.47939-.06453 7.42046-.128967 14.84091-.193562 22.26137h444.050779c-.91444-42.58973.0419-85.20751-1.56059-127.78392-1.05455-25.53305-3.66229-51.16523-10.43684-75.87405-5.05126-18.32821-12.66984-36.03868-23.35091-51.80856-12.87416-19.07626-30.19122-35.04492-49.96611-46.76785 9.5015-32.3544 10.43444-67.04071 3.61719-100.01367-5.65044-26.95902-17.0356-52.87325-34.14453-74.542966-15.66774-19.819801-36.31156-35.93606-59.94769-45.084235-15.31872-5.955119-31.76428-9.050562-48.20857-8.859124z" filter="url(#a)" opacity=".5"/><path d="m248.0957 47.265625c-25.35718.237438-50.41735 9.137993-70.61887 24.387701-20.55445 15.493349-36.25937 36.951654-46.12061 60.637964-11.50547 27.63256-15.81875 58.05279-13.55288 87.84256 1.37785 17.97495 5.39868 35.76213 12.0365 52.52826-19.32167 10.5639-36.534904 25.17818-49.444939 43.06954-12.610788 17.27776-21.237623 37.23042-26.610093 57.87284-6.185394 23.18483-8.576247 47.17326-9.871201 71.07185-1.535149 29.63602-1.285719 59.32241-1.686369 88.98614-.04713 5.44584-.09393 10.89168-.1413 16.33752h415.705082c-.57389-37.23418.12121-74.4878-1.23724-111.70842-1.03301-25.96669-3.59665-52.08088-10.84207-77.12571-5.85639-20.05168-15.16704-39.28262-28.57319-55.39461-12.90113-15.59398-29.21808-28.2802-47.32407-37.28298 10.88669-29.94855 13.45703-62.67558 8.59862-94.10098-4.18919-27.01011-14.32643-53.30842-30.72948-75.279878-12.79267-17.100584-29.44612-31.508859-48.82778-40.633277-15.79665-7.463417-33.27246-11.448534-50.76011-11.20852z" filter="url(#b)" opacity=".5"/><path d="m247.60938 63.265625c-22.35194.314743-44.35882 8.503028-61.92225 22.242753-18.156 14.080961-31.78943 33.500662-40.31188 54.739942-9.60689 23.76267-13.2978 49.72345-11.87578 75.25833 1.3113 22.44504 7.00948 44.71516 17.3228 64.73163-19.31069 8.25148-37.10158 20.47069-50.80517 36.46989-12.147346 14.04305-21.09824 30.68907-26.944938 48.27305-7.697612 22.64125-10.902564 46.51582-12.5731 70.2845-1.991398 28.19922-1.801871 56.48606-2.149646 84.73734-.04092 4.66564-.08217 9.33129-.122854 13.99694h383.402348c-.28739-29.21189.0788-58.43245-.77969-87.63691-.70519-23.80204-2.44597-47.71846-7.91649-70.95489-4.37104-18.54892-11.49702-36.65883-22.59759-52.24741-11.86294-16.74066-27.97227-30.36839-46.25901-39.62915-4.88207-2.51177-9.90397-4.75071-15.0273-6.72305 11.65994-24.43647 16.64756-51.81142 15.60053-78.80168-.89041-23.88945-6.41108-47.75106-17.24814-69.12485-9.5975-18.86331-23.45151-35.792951-41.02543-47.737644-16.75997-11.444078-36.94595-18.052676-57.29766-17.881705-.48959.000971-.97917.0019-1.46875.0029z" filter="url(#c)" opacity=".5"/><path d="m249.00781 79.253906c-27.79761.02366-53.59585 13.939116-71.60742 36.953124-18.23681 23.21195-28.22266 54.8427-28.22266 88.95313 0 32.09326 9.46466 61.10461 25.4336 83.5332-44.46255 13.08341-71.05964 40.32819-84.429689 75.96484-14.080936 36.75113-15.20592 82.27028-15.658204 135.1875l-.15625 18.1543h351.171873l-.0625-18.06055c-.18003-52.83813.22283-99.3436-12.67383-136.72461-12.55371-36.8742-39.58819-64.81639-87.30273-77.1914 14.74988-22.11333 23.29688-50.18207 23.29687-81.04297 0-34.12372-10.0919-65.66006-28.30468-88.75781-17.91323-23.098088-43.70587-37.170387-71.48438-36.968754z"/></g><path d="m249.0775 97.25c-22.05 0-42.3 10.62-57.51 30.06-15.21 19.35-24.39 47.34-24.39 77.85 0 32.4 10.89 60.75 27.9 80.55l12.15 13.5-17.64 4.14c-47.07 10.71-69.66 33.21-82.575 67.68-12.33 32.13-14.04 76.32-14.49 128.97h314.955c-.18-52.83-.45-98.37-11.7-130.95-12.06-35.46-34.11-57.87-84.6-67.86l-17.91-3.33 11.61-14.13c15.93-19.71 25.92-47.34 25.92-78.75 0-30.51-9.27-58.41-24.48-77.67-15.12-19.53-35.37-30.24-57.24-30.06z" fill="#fff" stroke-width="36"/><path d="m248.30859 109.25781c-12.79093.0998-25.33226 5.02884-35.19157 13.09559-6.51977 5.23566-12.03903 11.6519-16.5721 18.66222-.53391.8358-1.20158 1.89758-1.75776 2.84267-8.11557 13.68961-12.70627 29.25874-14.63005 44.99638-.80503 6.69224-1.08596 13.44333-.91102 20.18049.0215.64669.0459 1.69188.077 2.28565.10783 2.18288.26761 4.40031.48937 6.64599.14315 1.43788.34001 3.08957.54688 4.60547.26618 1.90699.60413 4.00775.97822 5.97518 3.24323 17.25029 10.26737 33.98057 21.43758 47.61551 4.16392 5.03092 8.70928 9.72356 13.0201 14.62568 4.63466 5.15312 9.26909 10.30645 13.90394 15.45941-15.09585 3.64035-30.26872 6.96318-45.31768 10.79636-8.96129 2.4492-17.7394 5.68329-25.94013 10.07278-1.14928.62717-2.50223 1.37383-3.70226 2.09892-1.65938.9864-3.27787 2.02943-4.80751 3.08077-9.93131 6.75769-18.08273 15.96834-24.01327 26.3849-1.92209 3.33712-3.60806 6.82874-5.13264 10.29542-6.07767 13.88274-9.50336 28.77209-11.60616 43.73583-1.11883 7.78628-1.92641 15.62417-2.52108 23.42529-.4087 5.36151-.72666 10.8227-.98385 16.18844-.56173 11.62187-.82533 99.20794-.99258 110.85542-.19225.75351.16827.96269.88786.81782h289.8461c-.0549-13.10184-.20741-102.20416-.59375-115.30078-.35765-10.23994-.87911-20.66338-1.82618-30.93945-.43615-4.63952-.93079-9.09461-1.57245-13.71571-.46728-3.36699-.9998-6.68293-1.59552-9.98156-2.45003-13.10875-6.2862-26.07408-12.58355-37.87801-4.70655-8.82767-11.08811-16.81535-18.99171-22.98529-7.72691-6.08021-16.62018-10.53397-25.84466-13.85545-.60942-.20726-1.48101-.52832-2.1116-.7387-6.04884-2.06241-12.28921-3.69987-18.47948-5.01372-6.13571-1.2844-12.45503-2.36943-18.6698-3.54979-7.33688-1.36339-14.67361-2.72761-22.0106-4.09037 8.88933-11.02769 18.07795-21.81312 26.84288-32.94153 1.2474-1.70012 2.41639-3.40622 3.51904-5.13012 1.4285-2.23762 2.69618-4.41002 3.95359-6.76443.94631-1.77619 1.7589-3.41099 2.62057-5.26991 1.44048-3.11762 2.74029-6.31552 3.85495-9.49707.85146-2.40664 1.57074-4.69587 2.26756-7.16256 4.92549-17.63359 5.77378-36.31808 3.08064-54.39939-2.31877-15.28997-7.31774-30.31985-15.67528-43.39559-1.88649-2.92064-3.92146-5.74613-6.12606-8.43549-.44204-.52091-1.07651-1.29273-1.60908-1.89516-7.26877-8.35911-16.4306-15.3008-26.98283-18.90147-5.95851-2.05979-12.27115-3.04316-18.57411-2.90064z" fill="#7896d3" filter="url(#d)" opacity=".15" stroke-width="36"/></svg>