<svg height="500" viewBox="0 0 500 500" width="500" xmlns="http://www.w3.org/2000/svg" xmlns:xlink="http://www.w3.org/1999/xlink"><filter id="a" color-interpolation-filters="sRGB" height="1.394996" width="1.436531" x="-.218266" y="-.197498"><feGaussianBlur stdDeviation="10.651919"/></filter><filter id="b" color-interpolation-filters="sRGB" height="1.048483" width="1.060934" x="-.030467" y="-.024241"><feGaussianBlur stdDeviation="3.6838302"/></filter><g transform="translate(.000015)"><circle cx="-249.99998" cy="250" fill="#e51a1a" r="250" transform="scale(-1 1)"/><path d="m181.33938 83.856939c97.52275-31.84694 203.27597 26.159281 217.12696 131.568651 10.04116 85.89723-45.79566 162.6049-131.11288 174.6444-76.26503 6.65-147.16573-45.4981-149.44603-126.3231.16679-50.89801 30.03241-87.97493 76.60677-108.40662 44.00125-16.48183 90.46555-3.00917 112.28155 39.63622 17.95322 40.0953 3.57775 87.31302-40.4313 103.80676-21.98685 8.23292-51.6578-5.55285-56.72562-31.5612 24.48155 21.7253 69.7211 11.74379 80.1808-21.06198 5.24648-24.88185-11.48198-41.52298-24.36368-55.64156-23.21161-15.22125-63.26956-13.16738-85.32502 12.05139-41.51846 46.43224-18.48961 112.52397 35.72777 131.08081 60.66482 17.11352 118.96473-29.63961 126.96137-92.39988 2.7637-54.83226-40.99398-106.19486-96.51046-114.27807-76.21988-10.3001-138.45939 50.84936-147.743191 124.09106-9.31956 73.21828 47.315731 138.67973 111.863041 158.33924 49.05305 9.49897 98.18701 2.07129 139.64056-27.40671 82.90715-58.95602 100.11901-177.97214 43.55644-260.39974-52.71171-79.885311-158.575-103.987181-249.15842-67.061741-86.705021 39.45169-149.0660905 134.549061-117.102931 229.167621 15.77888-74.65377 50.93986-153.5943 123.407351-187.514491 9.28724-4.60517 19.44718-8.7232 30.56692-12.33106zm-160.722321 286.075591c-52.57825-113.8254-.38403-260.89182 113.777041-317.643861 10.84604-5.32012 22.21219-9.7712 34.03518-13.36069 115.76394-28.75816 246.03978 34.00351 263.68455 158.897471 10.04526 85.91695-27.72044 168.80365-107.97396 206.83173-102.24035 46.26108-224.798841-11.43986-234.690511-131.24969-7.33455-123.78718 127.307171-194.136761 222.718561-137.24102-42.54074-27.89653-94.21826-33.44528-140.80825-12.98978-71.17376 32.62266-105.080851 118.0397-80.762351 190.63139 30.697281 88.13423 123.572931 132.04164 212.817841 105.59803 82.80488-25.06359 132.16266-100.33164 140.19255-180.04986 12.12434-145.020371-132.23823-245.3588802-265.59709-221.973611 7.92036-4.10499 20.5989-8.4277792 35.61563-11.7452592 60.06317-13.23825 124.63426-3.45807 179.45368 32.4903392 109.65077 71.904621 141.09454 217.803071 65.16008 333.599141-143.00482 218.07486-377.311781 117.06797-437.622951-1.79433" fill="#b21a1a"/></g><path d="m117.53124 261.49689c-6.3092 1.56611-18.111324 7.23242-18.111324 7.23242-13.28429 5.30544-25.038484 11.52964-34.933594 19.37305-7.94608 6.29793-15.184915 14.31291-17.43816 19.14571l-6.987621 31.24101c-8.293231 46.25941 26.068826 88.47224 64.443359 116.7539v-.002c38.30968 28.23705 89.4018 44.71289 145.22851 44.71289 55.82503 0 106.91868-16.47648 145.23047-44.71289 38.37091-28.28218 64.44141-69.75401 64.44141-116.75195l-1.14844-18c-3.58424-13.41116-12.62863-24.37138-22.74224-32.38677-10.79634-8.55816-23.88448-15.15749-38.69145-20.7481 0 0-25.69191-4.1079-38.58166-5.85727-37.81386-5.13202-75.5105-13.36787-113.67029-13.60514-42.58765-.2648-85.70489 3.34493-127.03897 13.60514z" fill="#861313"/><path d="m386.75725 282.74565c-.954 5.7177-2.223 11.2257-3.825 16.4808 13.2633 4.9023 23.8293 10.5093 30.9384 16.1442 8.118 6.4332 11.25 12.249 11.25 17.352 0 5.1057-3.132 10.9476-11.25 17.3817-8.118 6.435-20.7648 12.807-36.7596 18.1692-31.9896 10.7235-77.2074 17.577-127.125 17.577s-95.1066-6.8535-127.098-17.577c-15.993-5.3622-28.6398-11.736-36.7578-18.1692-8.118-6.435-11.25-12.276-11.25-17.3808s3.132-10.9197 11.25-17.352c6.1974-4.914 15.0354-9.7866 25.9875-14.2047-2.3058-5.031-4.3344-10.2663-6.021-15.7203-12.1374 4.8474-22.3902 10.3905-30.429 16.7625-9.675 7.668-16.497 17.091-17.4663 27.8712h-.1413v8.4096c0 40.365 22.3083 76.6044 57.123 102.2625 34.812 25.659 82.2924 41.202 134.55 41.202 52.2558 0 99.7353-15.543 134.55-41.202 34.812-25.659 57.1212-61.8966 57.1212-102.2625h-.0567c.3744-1.8792.5922-3.8016.5922-5.7654 0-11.8845-7.1505-22.23-17.6067-30.5154-9.5706-7.587-22.2867-14.004-37.575-19.4625z" fill="#ff8066" stroke-width="36"/><g transform="translate(0 9.045077)"><path d="m333.01953 17.484375c-23.42778 3.249193-46.86911 6.404897-70.28599 9.729752-19.01165 3.138146-37.11671 11.52001-51.81862 23.975065-15.87629 13.334284-27.9575 30.903716-35.65373 50.097608-1.61023 3.96403-3.05136 7.99638-4.33346 12.07843.1075-2.79234.21547-5.58466.32422-8.37695-5.84913 4.18062-11.97336 8.03249-17.3125 12.87695-9.76788 8.9213-18.36169 19.01073-26.88175 29.10136-1.53883 1.7247-2.84883 3.63195-3.965 5.65312-13.0616 21.90249-23.146939 45.85784-27.437875 71.09003-2.794235 16.58558-3.05538 33.69394.125544 50.24489.974213 4.73659 2.15347 9.42855 3.326111 14.11843.581694 2.07591 1.16339 4.15182 1.74508 6.22772.14436-.48534.26749-1.42366.46634-.48043 7.13606 19.72531 18.93215 37.71671 34.06478 52.23215 17.00968 16.40099 37.9372 28.4976 60.27066 36.05371 6.31908 2.05852 12.47869 4.56688 18.78544 6.66203 6.69856 2.27155 13.46756 4.38223 20.37986 5.90332 10.78466 2.18333 21.98952 1.67967 32.70148-.67283 9.13292-1.88584 18.1135-4.41614 27.09705-6.898 22.91692-5.48984 44.82725-16.2188 62.13225-32.36079 15.34271-14.28005 26.71978-32.69968 32.89769-52.71105 3.25667-10.4665 5.27877-21.33419 5.84359-32.28498.98183-23.20873-2.52781-46.41064-8.44577-68.80811-3.40626-12.78636-7.70302-25.31032-11.60498-37.94811-5.19613-16.45618-10.39226-32.91237-15.58839-49.36855 1.10571-6.96181 2.08457-13.942922 3.11719-20.916015-7.45474 4.772452-15.11321 9.341615-21.96833 14.940745-13.15013 10.28586-25.6448 21.42908-39.38597 30.94538-1.37012.93255-2.71162 1.82911-4.05298 2.67358-4.30264 2.67259-8.71764 5.26587-13.51013 6.96073-1.86654.64014-3.80132 1.10661-5.77009 1.27644-1.02561-2.4884-1.89337-5.05277-2.25738-7.72958-.702-4.67833-.74122-9.42903-.61957-14.14933.0191-.5677.0363-1.30999.0692-1.85065.60426-12.25525 2.73431-24.40186 5.77471-36.276508 2.28436-8.784075 5.11195-17.439595 8.62094-25.8112 1.33462-1.909047 2.87012-3.676847 4.34658-5.478822 9.67908-11.488267 21.05339-21.387013 32.66526-30.859152 4.37629-3.607764 8.75155-7.215681 13.12679-10.825227-2.32942.321615-4.65885.643229-6.98828.964844zm-164.24609 185.583985c.50294 1.72554.91584 3.47615 1.25 5.24219.0768.46691.20492 1.08551.27529 1.57981.40865 2.56331.64376 5.23429.5001 7.78933-.78298-1.72916-.81902-3.66319-1.15855-5.50674-.4141-2.85655-.75478-5.68234-1.0334-8.50182-.0672-.66437-.14325-1.32789-.19868-1.9934.12175.46355.24349.92709.36524 1.39063z" fill="#e51a1a" filter="url(#a)"/><path d="m257.05859 389.65134c11.81081-1.21181 34.70118-8.03125 34.70118-8.03125 21.1695-4.89888 41.09517-14.12657 57.45312-28.1836 21.64745-18.60241 37.02701-46.04295 40.11719-80.73632l.0254-.27344.0156-.27344c1.4427-24.667-2.38795-52.69935-12.39257-84.37891l-18.92578-59.92773-15.66992 60.86133c-3.73201 14.49441-8.24761 25.30653-12.31054 32.86133.0138-1.30618-.13514-2.30446-.006-3.78711 9.88403-43.30557 18.52263-67.7292 25.05667-112.9602-19.10195 12.05614-54.57096 48.5867-75.71097 50.60668-5.70293.36327-4.97101.63755-7.68164-6.22461-5.28254-13.37315-2.21076-52.655636 12.90234-88.611327 8.76354-11.746094 20.85561-23.492188 35.23842-35.238281l-53.04492 7.302734c-41.30634 5.68655-69.93959 34.121244-84.33594 66.90625-14.39634 32.785004-16.66874 70.335694-7.84179 102.156254 3.90679 14.08284 1.76974 22.60798-.0469 25.80859-1.81661 3.20061-1.31043 2.14025-1.81445 2.03125s-4.74129-1.69551-8.32031-11.58008c-6.0727-36.1197-1.07056-62.16091.321-101.1241-9.39722 6.4684-21.70912 20.22351-34.82686 35.99324-26.14057 42.63186-34.496621 82.72924-28.76758 117.49414l.002.0176.002.0156c.24766 1.48601.30367 1.6508.0918.46679l.0117.0625.0117.0625c6.28677 33.75085 24.54192 60.73609 48.43945 79.70703 15.41839 12.2399 33.20548 21.24899 51.94922 27.10352 0 0 24.01187 9.36909 36.63668 11.44337 6.15929 1.01199 12.51142 1.06677 18.7207.42969z" fill="#861313" filter="url(#b)"/><path d="m287.70145 364.08405c18.738-4.3362 35.9667-12.429 49.7808-24.3 18.414-15.8238 31.203-38.187 33.9192-68.6817 1.287-22.005-2.106-47.8836-11.5875-77.9067-24.066 93.4677-76.788 71.145-28.2096-47.727-86.274 74.934-97.2594-15.678-62.325-94.978803l.0009-.0009c-69.2973 9.54-92.4336 91.815303-77.2866 146.419203 19.314 69.6213-65.115 75.915-46.6884-34.65-24.4377 39.8547-31.275 75.285-26.352 105.1587.0144.0864.0387.1692.054.2547 5.4774 29.4057 20.9367 52.236 41.9355 68.9058 13.4946 10.7127 29.3148 18.7686 46.125 24.0192 0 0 25.84386 15.64797 40.31685 16.20271 14.08113.53973 40.31685-12.71521 40.31685-12.71521z" fill="#ff8066" stroke-width="36"/><path d="m245.77148 255.32227c-15.63184.57267-31.10056 7.49021-41.42171 19.33851-4.97304 5.67429-8.71076 12.38306-11.17204 19.50328-.25385.73782-.58967 1.75368-.84083 2.61158-2.41173 8.00485-3.13314 16.43853-2.78612 24.76733.0302.45923.0695 1.37001.10009 1.84208.66276 10.7908 3.29618 21.35453 6.70774 31.57926.5765 1.72651 1.18261 3.4594 1.28188 5.29391.11146 1.50735.40864 3.03505 1.29408 4.29415 1.56132 2.52515 4.2417 3.9895 6.80354 5.3066 3.30887 1.82644 6.89341 3.58104 10.42295 5.16477 6.0108 2.65027 12.11847 5.10845 18.37598 7.11487 5.12612 1.6052 10.47026 2.80488 15.87312 2.58209.55652-.0256 1.44282-.0925 2.12508-.15756 5.335-.55486 10.52627-2.00591 15.66157-3.49957 5.40248-1.66561 10.72523-3.58471 15.97116-5.69052 1.40864-.57101 3.01872-1.23551 4.47244-1.92263 1.13743-.51745 2.34948-1.14592 3.33042-1.69771 1.80415-.90761 3.43456-2.24084 4.36714-4.06463.80502-1.39165 1.01965-3.00425 1.07048-4.58162.46375-3.97327 2.38444-7.55836 3.42905-11.38201 1.37773-4.28314 2.54192-8.63525 3.475-13.03695.21652-1.06732.47949-2.39153.6868-3.56146 1.2401-6.96603 1.82862-14.06354 1.51047-21.13776-.0524-1.03168-.13101-2.31027-.23243-3.43555-.0438-.48078-.0994-1.09953-.16087-1.60629-.14945-1.37654-.35718-2.84068-.55592-4.03824-.20859-1.22652-.42702-2.38599-.71282-3.65781-2.06462-9.33503-6.17486-18.2776-12.33406-25.62539-.51367-.61882-1.23627-1.44263-1.85937-2.11719-9.50503-10.23684-22.9001-16.69753-36.8049-17.90835-2.68319-.26133-5.38339-.33141-8.07792-.27719z" fill="#e51a1a" filter="url(#a)"/></g><path d="m58.06015 338.48985c0 40.365 22.3083 76.6044 57.123 102.2625 34.812 25.659 82.2924 41.202 134.55 41.202 52.2558 0 99.7353-15.543 134.55-41.202 34.812-25.659 57.1212-61.8966 57.1212-102.2625l-16.2837-5.7672c0 5.1057-3.132 10.9476-11.25 17.3817-8.118 6.435-20.7648 12.807-36.7596 18.1692-31.9896 10.7235-77.2074 17.577-127.125 17.577s-95.1066-6.8535-127.098-17.577c-15.993-5.3622-28.6398-11.736-36.7578-18.1692-8.118-6.435-11.25-12.276-11.25-17.3808z" fill="#ff8066" stroke-width="36"/></svg>