<svg height="500" viewBox="0 0 500 500" width="500" xmlns="http://www.w3.org/2000/svg" xmlns:xlink="http://www.w3.org/1999/xlink"><filter id="a" color-interpolation-filters="sRGB" height="1.093494" width="1.098645" x="-.049322" y="-.046747"><feGaussianBlur stdDeviation="3.5437114"/></filter><filter id="b" color-interpolation-filters="sRGB" height="1.216087" width="1.215913" x="-.107957" y="-.108044"><feGaussianBlur stdDeviation="2.6104999"/></filter><g transform="translate(.000015)"><circle cx="-249.99998" cy="250" fill="#e51a1a" r="250" transform="scale(-1 1)"/><path d="m181.33938 83.856939c97.52275-31.84694 203.27597 26.159281 217.12696 131.568651 10.04116 85.89723-45.79566 162.6049-131.11288 174.6444-76.26503 6.65-147.16573-45.4981-149.44603-126.3231.16679-50.89801 30.03241-87.97493 76.60677-108.40662 44.00125-16.48183 90.46555-3.00917 112.28155 39.63622 17.95322 40.0953 3.57775 87.31302-40.4313 103.80676-21.98685 8.23292-51.6578-5.55285-56.72562-31.5612 24.48155 21.7253 69.7211 11.74379 80.1808-21.06198 5.24648-24.88185-11.48198-41.52298-24.36368-55.64156-23.21161-15.22125-63.26956-13.16738-85.32502 12.05139-41.51846 46.43224-18.48961 112.52397 35.72777 131.08081 60.66482 17.11352 118.96473-29.63961 126.96137-92.39988 2.7637-54.83226-40.99398-106.19486-96.51046-114.27807-76.21988-10.3001-138.45939 50.84936-147.743191 124.09106-9.31956 73.21828 47.315731 138.67973 111.863041 158.33924 49.05305 9.49897 98.18701 2.07129 139.64056-27.40671 82.90715-58.95602 100.11901-177.97214 43.55644-260.39974-52.71171-79.885311-158.575-103.987181-249.15842-67.061741-86.705021 39.45169-149.0660905 134.549061-117.102931 229.167621 15.77888-74.65377 50.93986-153.5943 123.407351-187.514491 9.28724-4.60517 19.44718-8.7232 30.56692-12.33106zm-160.722321 286.075591c-52.57825-113.8254-.38403-260.89182 113.777041-317.643861 10.84604-5.32012 22.21219-9.7712 34.03518-13.36069 115.76394-28.75816 246.03978 34.00351 263.68455 158.897471 10.04526 85.91695-27.72044 168.80365-107.97396 206.83173-102.24035 46.26108-224.798841-11.43986-234.690511-131.24969-7.33455-123.78718 127.307171-194.136761 222.718561-137.24102-42.54074-27.89653-94.21826-33.44528-140.80825-12.98978-71.17376 32.62266-105.080851 118.0397-80.762351 190.63139 30.697281 88.13423 123.572931 132.04164 212.817841 105.59803 82.80488-25.06359 132.16266-100.33164 140.19255-180.04986 12.12434-145.020371-132.23823-245.3588802-265.59709-221.973611 7.92036-4.10499 20.5989-8.4277792 35.61563-11.7452592 60.06317-13.23825 124.63426-3.45807 179.45368 32.4903392 109.65077 71.904621 141.09454 217.803071 65.16008 333.599141-143.00482 218.07486-377.311781 117.06797-437.622951-1.79433" fill="#b21a1a"/></g><path d="m163.29553 145.59313c3.03405-13.38254.92181-18.90174-8.20667-40.3402 3.33369-14.177186 12.84271-28.54946 30.45606-45.561524-46.33859 29.594741-73.64554 33.090911-86.938498-24.378906-5.065925 55.762129-17.765542 63.622717-80.399438 44.449219 63.218745 38.759761 54.815244 48.394471-5.097656 72.224611 65.374195-7.65181 76.957296 3.64188 52.712891 65.26172 13.265856-20.53401 24.213947-33.15226 34.541991-40.56934 17.54319-6.63548 31.58942 1.02149 44.47534-6.63548 8.77843-5.21625 16.19821-14.49156 18.45598-24.4501z" fill="#ff8066" filter="url(#a)"/><path d="m98.605595 35.313024c-5.06493 55.762185-17.76474 63.621331-80.398698 44.447814 63.218808 38.759802 54.815398 48.394622-5.097562 72.224782 65.37426-7.65182 76.95781 3.64319 52.71338 65.26309 13.26587-20.53403 24.21409-33.15301 34.482575-40.58279l.11928.0261a176.47177 176.47177 0 0 1 14.21883-27.01445l-.15976-.1135c-6.73167 2.05116-14.21213 1.69112-21.048105-1.60655-14.43192-6.96114-20.48804-24.2882-13.52613-38.72012 5.00289-10.370852 15.37572-16.418656 26.168955-16.414725h.001c4.22401.0015 8.51435.930066 12.57298 2.887128 10.80792 5.213967 16.9279 16.249507 16.39143 27.520857l.25648.15719a176.47177 176.47177 0 0 1 19.90283-17.95288l-.22851-.36378c3.44794-13.994582 12.95666-28.367082 30.57003-45.379163-46.33864 29.59477-73.64499 33.090837-86.936965-24.379037z" fill="#ff8066" stroke-width="5.00001"/><path d="m105.5003 92.787475c.51933-.0107 1.04136.0177 1.5625.0352.5193.0181 1.03855.0395 1.55859.0859.44952.0396.89836.0971 1.34766.15821.55955.0767 1.11779.17086 1.67578.28125.41665.082.83292.16454 1.24805.26562.62264.15217 1.24181.33775 1.85937.5332.34433.10879.69089.2037 1.03321.32618.96043.34404 1.9142.7287 2.85351 1.18164.81018.39078 1.58523.82552 2.3418 1.27929.22802.1368.44881.28159.67187.42383.55174.35179 1.08851.71783 1.60938 1.10156.20206.14888.40616.29574.60351.44922.6816.53008 1.34644 1.07816 1.97071 1.660165.003.002.005.005.008.008.00068.00063.001.001.002.002.62127.57976 1.20282 1.19179 1.76563 1.81836.17498.19475.34248.39478.51172.59375.40046.47103.78456.95384 1.15234 1.44727.15206.2039.30672.40578.45313.61328.97897 1.38838 1.83292 2.85354 2.55078 4.38085.0836.17758.16029.35794.24023.53711.28333.6359.54234 1.28143.7793 1.93555.0596.16422.12305.32692.17969.49218.56178 1.64247.97905 3.33477 1.24023 5.05664.0209.13753.0357.27618.0547.41407.10509.76721.18123 1.53827.22461 2.31445.006.11467.0164.22893.0215.34375.20342 4.63136-.69724 9.3797-2.85351 13.84961-3.66362 7.59457-10.21211 12.85564-17.69141 15.13477l-.004-.002c-1.67219.50952-3.39152.86839-5.13476 1.07227-.0293.003-.0586.006-.0879.01-.80905.0921-1.62396.14812-2.44141.17188-.0821.002-.16394.006-.24609.008-.51907.0107-1.03968-.0177-1.56055-.0352-.5193-.018-1.03855-.0395-1.55859-.0859-.44848-.0395-.89745-.0954-1.34571-.15625-.56123-.0769-1.12199-.17244-1.68164-.28321-.416019-.0819-.831589-.16469-1.246089-.26562-.62438-.1526-1.24401-.33902-1.86328-.53516-.3424-.10824-.68694-.20048-1.02735-.32226-.96071-.34412-1.91589-.73054-2.85546-1.1836-.81359-.39242-1.5901-.82922-2.34961-1.28515-.22254-.13361-.43844-.27331-.65625-.41211-.55111-.35116-1.0871-.71854-1.60743-1.10157-.20544-.15125-.41465-.29906-.61523-.45507-.68113-.52978-1.34293-1.07854-1.9668-1.66016-.003-.003-.005-.005-.008-.008-.00068-.00063-.001-.001-.002-.002-.62601-.58417-1.21266-1.20033-1.7793-1.83203-.16663-.18569-.32491-.37687-.48633-.5664-.4089-.48035-.80089-.9729-1.17578-1.47657-.14429-.19374-.29245-.38503-.43164-.58203-.97908-1.38662-1.83233-2.85146-2.55078-4.37695-.0901-.19115-.17385-.38514-.25977-.57812-.27973-.62916-.53712-1.26711-.77148-1.91407-.0594-.16364-.12325-.32555-.17969-.49023-.56143-1.64109-.97695-3.33233-1.23828-5.05274-.0226-.14799-.0403-.2969-.0606-.44531-.10212-.75047-.17566-1.50463-.21875-2.26367-.007-.12573-.0179-.25105-.0234-.37695-.20206-4.6289.7004-9.37439 2.85546-13.8418 3.66344-7.59419 10.21062-12.857405 17.68946-15.136715l.006.004c1.67218-.50952 3.389569-.86839 5.132809-1.07227.0293-.003.0586-.006.0879-.01.80904-.0921 1.62395-.14812 2.44141-.17188.0821-.002.16394-.006.24609-.008z" fill="#e51a1a" filter="url(#b)"/><path d="m262.84961 59.601562c-102.35766.27185-185.212638 83.336358-185.212891 185.470708.000192 49.96257 20.163164 97.82095 55.916011 132.7207l.37696.36914.41601.32031c41.09846 31.67304 78.93541 51.64638 128.68946 52.06055h.03711.03711c102.32555-.00062 185.47008-83.14516 185.4707-185.4707v-.00586-.00391c-.0566-48.99566-19.5037-95.9873-54.08594-130.69531l-.25195-.25391-20.77344-17.783202-.25195-.185547c-31.84368-23.63626-70.43958-36.444993-110.32032-36.542969h-.02343z" fill="#861313"/><path d="m266.67718 71.561722c-97.46259-.00049-176.47206 79.008108-176.47265 176.470698.00038 46.08105 18.02545 90.33408 50.22265 123.30078 14.80509 11.40973 28.93042 21.11757 43.21289 28.88477-41.09816-33.41463-65.01382-83.52251-65.14453-136.49023-.00049-97.46259 79.00809-176.472058 176.47068-176.472658 24.2787.0863 48.2785 5.18144 70.4981 14.966798-29.1275-19.857648-63.5349-30.536508-98.78714-30.660158z" fill="#ff8066"/></svg>