<svg height="500" viewBox="0 0 500 500" width="500" xmlns="http://www.w3.org/2000/svg" xmlns:xlink="http://www.w3.org/1999/xlink"><radialGradient id="a" cx="1362.7291" cy="216.11429" gradientTransform="matrix(1.0000001 -.0000059 .0000001 1.0000003 -112.72927 33.893757)" gradientUnits="userSpaceOnUse" r="250"><stop offset="0" stop-color="#ff851a"/><stop offset=".42441937" stop-color="#f87000"/><stop offset=".86367416" stop-color="#f26900"/><stop offset="1" stop-color="#e55f00"/></radialGradient><g transform="translate(-1000)"><path d="m1500 250a250 250 0 0 1 -250 250 250 250 0 0 1 -250-250 250 250 0 0 1 250-250 250 250 0 0 1 250 250z" fill="url(#a)" stroke-linecap="round" stroke-linejoin="round" stroke-width="1.002"/><path d="m1309.2298 33.82789c128.5196 30.706851 207.8974 167.48127 169.5927 291.56949-31.3771 95.69524-112.8693 162.03793-212.5543 174.60263 153.1796-8.09118 266.0956-163.0043 218.7012-309.92978-36.4562-114.666588-154.6038-191.5214848-270.6514-169.822657-18.8526 4.215647-38.4387 10.498641-55.8829 18.694487-112.5353 47.459213-168.47522 196.206-99.9632 307.85319 57.6978 93.63045 168.5136 141.8489 267.9993 100.77239-134.92 68.97589-303.283-51.46877-311.488-201.30723-4.4167-117.68321 76.8182-219.674136 190.654-246.26040176-89.0147 9.18391126-152.6601 79.39239576-187.7408 157.21169176-38.45522 102.70317 5.2337 231.75078 109.038 294.08388 114.5107 66.1048 260.3537 29.37245 323.6836-83.60152 42.2104-77.69758 34.3514-177.62383-23.1776-249.88923-57.5404-72.257811-157.5429-102.460489-246.4118-71.877168-81.7429 30.682061-131.1298 101.133078-134.0478 190.176958.6692 92.68536 61.7912 168.55972 147.5399 198.52472 128.5549 37.82014 266.7725-70.33038 233.6823-209.88949-14.7104-64.39775-57.8855-122.14991-125.7378-141.121386-71.391-15.467036-138.9716 1.205-181.2869 64.641366-18.8995 29.2286-28.9384 85.21395-26.105 97.65297m0 0c13.5324-50.18833 30.6277-97.66354 72.2125-128.94941 53.182-38.308183 124.4576-37.093813 181.7444-.48035 50.1457 36.48017 75.4845 90.37713 72.3557 150.91678-6.6674 64.04407-38.4038 109.83277-91.6401 141.00844-63.9019 34.56125-135.3795 4.83213-189.1258-35.28385-78.8706-65.48566-79.7477-186.67235-8.9744-256.76104 63.7369-55.941605 167.0207-64.891564 238.7167-6.65053 78.8163 58.35315 90.3045 169.04089 40.972 246.62443-35.2274 56.41892-88.4571 87.60135-152.5581 93.63158-81.9488 2.18264-160.666-41.91503-196.8695-120.9383-36.2055-79.02511-22.5771-164.33167 26.8727-227.66064 49.4316-63.30896 138.3491-86.746364 220.4504-67.54202" fill="#c50"/></g><path d="m244.16797 43.009766c-28.88317-1.403811-45.29147 8.279461-72.29857 19.802734 41.26774 18.266534 87.59458 38.97722 112.48021 70.31055 12.23553 15.79715 22.20268 32.43857 25.70898 48.86523 5.33306 24.98483 2.41733 55.47477-5.06836 81.7207-9.40082 32.96069-20.5612 68.72962-48.73046 90.54493-55.98328 37.37506-107.21977 33.78073-162.975893 23.77014 8.129863 12.87217 12.248753 24.94214 28.989563 39.5365 74.40082 53.9663 175.69643 52.39565 248.38672-3.85352l.004-.004.004-.002c90.26875-69.927 106.82746-200.33287 36.90039-290.60156l-.008-.01-.008-.01c-39.18805-50.449464-99.50247-80.008759-163.38458-80.069704z" fill="#994100"/><path d="m286.41443 351.27869c-5.00655 6.96348-12.34204 11.94522-19.13116 17.20464-38.1745 29.47372-86.78967 41.95198-134.44016 34.50733 67.99445 49.31947 160.36979 47.88581 226.80099-3.51995 82.57845-63.96968 97.66379-182.77044 33.69404-265.34884-35.79087-46.076383-90.84367-73.055758-149.18762-73.11142-9.61024-.0094-19.20722.713726-28.70756 2.163017 32.92207 10.992645 61.84879 31.493803 83.12763 58.914813 13.01374 16.79982 24.69131 35.52907 29.09114 56.14183 6.24726 29.26777 1.74888 60.51389-5.15845 89.63295-6.99245 29.47791-18.40347 58.81749-36.08885 83.41563z" fill="#ffa348" stroke-width="36"/><path d="m187.26346 173.69422c-29.59475 8.58753-56.75856 27.14011-79.52233 47.14397-29.292167 28.99825-45.051258 55.24063-58.596599 89.43134l12.460938 8.00391c89.853711 57.71357 167.453571 62.83544 227.025391 37.18359s99.47573-79.37264 122.27148-133.26758l6.70899-15.86523-15.55274-7.40039c-30.48775-14.50683-60.60281-24.46779-92.65039-28.85742-40.35606-5.52766-83.02549-7.72345-122.14474 3.62781z" fill="#994100"/><path d="m287.77895 185.44735c-15.80198 75.14164-48.28286 143.37801-68.72016 141.51336-9.59684-1.11662-18.4233-44.36515-22.44506-93.89032 5.71356 1.64819 12.15326 2.20956 18.62054 1.62322 19.55689-1.80432 34.51297-13.43959 33.40501-25.98784-1.10928-12.54762-17.86151-21.25599-37.41755-19.45089-6.34595.59351-12.47534 2.27026-17.74681 4.85481-55.17932 16.40998-100.045576 53.25069-122.140969 109.01961 172.839689 111.01595 279.971369 13.75545 322.990019-87.95153-35.23237-16.76444-71.47481-26.57377-106.54677-29.72878z" fill="#ffa348" stroke-width="36"/></svg>