<svg height="500" viewBox="0 0 500 500" width="500" xmlns="http://www.w3.org/2000/svg" xmlns:xlink="http://www.w3.org/1999/xlink"><radialGradient id="a" cx="1362.7291" cy="216.11429" gradientTransform="matrix(1.0000001 -.0000059 .0000001 1.0000003 -112.72927 33.893757)" gradientUnits="userSpaceOnUse" r="250"><stop offset="0" stop-color="#ff851a"/><stop offset=".42441937" stop-color="#f87000"/><stop offset=".86367416" stop-color="#f26900"/><stop offset="1" stop-color="#e55f00"/></radialGradient><g transform="translate(-1000)"><path d="m1500 250a250 250 0 0 1 -250 250 250 250 0 0 1 -250-250 250 250 0 0 1 250-250 250 250 0 0 1 250 250z" fill="url(#a)" stroke-linecap="round" stroke-linejoin="round" stroke-width="1.002"/><path d="m1309.2298 33.82789c128.5196 30.706851 207.8974 167.48127 169.5927 291.56949-31.3771 95.69524-112.8693 162.03793-212.5543 174.60263 153.1796-8.09118 266.0956-163.0043 218.7012-309.92978-36.4562-114.666588-154.6038-191.5214848-270.6514-169.822657-18.8526 4.215647-38.4387 10.498641-55.8829 18.694487-112.5353 47.459213-168.47522 196.206-99.9632 307.85319 57.6978 93.63045 168.5136 141.8489 267.9993 100.77239-134.92 68.97589-303.283-51.46877-311.488-201.30723-4.4167-117.68321 76.8182-219.674136 190.654-246.26040176-89.0147 9.18391126-152.6601 79.39239576-187.7408 157.21169176-38.45522 102.70317 5.2337 231.75078 109.038 294.08388 114.5107 66.1048 260.3537 29.37245 323.6836-83.60152 42.2104-77.69758 34.3514-177.62383-23.1776-249.88923-57.5404-72.257811-157.5429-102.460489-246.4118-71.877168-81.7429 30.682061-131.1298 101.133078-134.0478 190.176958.6692 92.68536 61.7912 168.55972 147.5399 198.52472 128.5549 37.82014 266.7725-70.33038 233.6823-209.88949-14.7104-64.39775-57.8855-122.14991-125.7378-141.121386-71.391-15.467036-138.9716 1.205-181.2869 64.641366-18.8995 29.2286-28.9384 85.21395-26.105 97.65297m0 0c13.5324-50.18833 30.6277-97.66354 72.2125-128.94941 53.182-38.308183 124.4576-37.093813 181.7444-.48035 50.1457 36.48017 75.4845 90.37713 72.3557 150.91678-6.6674 64.04407-38.4038 109.83277-91.6401 141.00844-63.9019 34.56125-135.3795 4.83213-189.1258-35.28385-78.8706-65.48566-79.7477-186.67235-8.9744-256.76104 63.7369-55.941605 167.0207-64.891564 238.7167-6.65053 78.8163 58.35315 90.3045 169.04089 40.972 246.62443-35.2274 56.41892-88.4571 87.60135-152.5581 93.63158-81.9488 2.18264-160.666-41.91503-196.8695-120.9383-36.2055-79.02511-22.5771-164.33167 26.8727-227.66064 49.4316-63.30896 138.3491-86.746364 220.4504-67.54202" fill="#c50"/></g><path d="m343.08008 0-35.32227 11.470703c-27.38334 8.892624-48.87747 29.788243-65.01172 54.064453-16.13423 24.276211-27.08974 52.383974-31.80078 79.013674-1.33889 7.56922-1.35717 14.94881-.6289 22.09765-4.01902-1.21447-8.08132-2.16064-12.20508-2.49609-12.50436-1.01716-26.62177 2.73776-35.54688 13.91211-8.92486 11.17388-9.46607 25.77587-5.70507 37.74414 2.38316 7.58371 6.5299 14.59786 11.87304 20.96875-4.81023 2.29694-9.43195 5.16545-13.64258 9.00195-29.05468 26.47217-43.03154 66.8174-49.59179 105.94727-6.560258 39.12987-5.604327 76.99178 1.13086 103.04297l11.67578 45.16015 21.6875-41.29492c6.21933-11.84236 12.39573-24.75684 18.7539-38.16601l2.23829-4.72071-.0137-.11132 8.61328-17.94141c.234-.48739.45214-.94082.65625-1.36328l2.29883-4.75781-.0488-.40235 9.5918-18.90039c.77291-1.52295 1.62181-3.00643 2.40625-4.52344l51-1.90234-1.74414-18.92969c-2.73358-29.66235-.66786-42.97456 10.95898-66.11718 1.46269-1.36049 2.92348-2.72666 4.40821-4.00196 16.14412 6.72014 22.79288 11.08316 27.23633 16.67383 4.37664 5.50664 9.49462 17.50698 17.51172 35.43359l-25.30665 31.80664-12.78515 55.50782 44.18554 13.625 22.44727-45.71875h.002c-1.42225 2.89694 1.46409-2.04221 4.58594-6.08008.7419-.95959 1.82793-2.31737 2.66211-3.38086l-.66016 2.17773 13.68165 52.97461 54.29687-14.79492-11.51563-39.67969c10.87473-21.1524 13.40071-42.17343 13.47852-63.50976l.0215-5.875-3.44921-4.75586c-13.49814-18.61582-27.16326-40.23495-43.33985-58.84375-8.87126-10.20509-18.8229-19.71934-30.20898-26.91406l4.47656-3.72657 56.93164-80.39843-36.16601 1.13671-29.42774.92383-13.80273 15.33008c.11752-1.14293.18023-2.25398.30859-3.40234l2.27344-20.3418 30.3164-44.701171-26.74023 12.708984.83984-7.515625 4.82422-3.341797 1.68946-6.43164c3.92631-14.937726 8.30744-28.907622 12.72265-40.84961zm-35.47656 87.84375-8.12696 10.1875-1.95117.925781-1.26172-2.46875c3.45058-2.894478 7.20841-5.753156 11.33985-8.644531z" fill="#994100"/><path d="m313.31793 28.590609c-43.83285 14.234532-76.16658 71.155299-84.64725 119.093381-2.15107 12.1608-.13812 24.49906 3.74676 36.60391 6.02339 4.67508 11.46338 10.10828 15.29223 16.73074 13.62219-7.9458 26.33256-16.12694 36.48037-25.50892.20284-10.40632.97074-21.22931 2.19744-32.20373-4.94641 6.20097-8.97327 12.66428-14.19593 18.78712 1.61306-15.87134 5.36754-26.45127 12.63792-37.17202l-21.77637 10.34941c7.61714-16.45005 17.74371-28.27422 29.78664-37.781597-10.4289 2.958217-19.90251 8.459897-29.89096 12.589047 9.25339-19.223081 23.10546-29.261908 37.12174-38.972794 4.06067-15.448875 8.59367-29.927432 13.24741-42.514547zm34.44424 121.852901-21.75416.68386-38.44309 42.69395-36.42724 24.78745.13329.0164a656.06324 655.12796 0 0 0 -11.60151.88158c-1.73187-9.37909-8.11651-19.15557-17.29746-26.48985-16.43007-13.11471-36.9102-14.78046-45.74341-3.72116-8.83419 11.0593-2.67557 30.65565 13.75451 43.77133 10.37191 8.26216 22.88716 12.2939 33.03691 10.63973-29.60021 32.47186-25.39755 62.90471-28.35806 105.63338l20.75734-.77452c-3.01169-32.6802.26756-51.77403 14.24037-78.77508 5.14249-4.96058 10.49264-9.54209 16.07655-13.65388 49.43994 19.06682 45.82069 25.48963 68.64024 75.38572l-29.59828 37.20095-8.11362 35.22463 13.50531 4.16388 15.67377-31.92112c3.10925-6.3331 33.20787-41.00602 33.44452-46.05244-3.69846-20.14903-11.7377-31.40027-20.33717-52.6151l37.76986 44.8381c-4.4113 19.2578-5.31152 41.22689-9.43981 54.86342l7.85765 30.42802 19.04382-5.18917-8.48742-29.24455c12.34042-20.31782 14.75423-38.94096 14.83633-61.45405-27.89926-38.47702-54.08789-84.97315-92.86229-90.45457-.0695-.3019-.13812-.60476-.20477-.90859l25.23915-21.01228zm-161.15383 98.78908c-7.71567 2.22421-14.50793 5.39751-19.39541 9.85074-48.32625 44.03079-54.52158 147.22102-43.15672 191.17947 5.99248-11.41039 12.08446-24.13736 18.42467-37.50864-2.15204-17.52551-2.39738-35.61044 2.16363-55.10841 1.09727 11.49719 2.65238 22.80245 8.71345 32.25773.22505-.46876.44818-.93559.6742-1.40339-2.04096-16.76353.34097-36.69071 8.99839-54.69945-1.69034 11.22713.48488 20.84542 3.00107 30.32192a693.68918 692.70026 0 0 1 12.58384-23.65027c-.0782-15.62538 1.89028-35.39535 6.87049-55.27335 2.61085-10.41885 6.0292-20.87821 10.52356-30.69712-3.32079-1.59051-6.45999-3.39708-9.40117-5.26923z" fill="#ffa348" stroke-width="36"/><g fill="#ffc"><path d="m385.24023 55.759766c-20.53444.344019-43.41267 4.581234-65.58789 11.939453-.73656 2.629335-1.46447 5.283653-2.17382 7.982422l-1.68946 6.43164-2.78906 1.931641c47.35262-13.855199 85.58233-10.32854 97.14453 12.863281 2.15869 4.329967 3.28665 9.143357 3.45899 14.337887l-2.99219 18.95703c-2.96039 9.23885-8.04318 19.14044-14.97071 29.33985l-16.65624 21.15039c-19.84843 22.23127-47.21471 44.6904-79.49805 63.85742-33.23556 19.73317-74.1553 38.17416-119.57227 42.04492-76.30389 11.20212-103.635978 13.29567-111.189451-6.61718-5.630665-53.50052 40.882671-127.67101 119.783201-185.837895-84.60346 50.616035-174.930154 142.684235-143.052732 206.624995 29.703218 59.57967 156.884912 45.04581 267.416012-26.41015 78.44911-50.71151 132.08588-118.21725 142.92774-173.15235-.48946-32.596006-31.20294-46.102691-70.5586-45.443354z" opacity=".25"/><path d="m354.10352 172.63676c40.24543-8.94348 71.76304-3.92853 82.06836 16.74219 2.15867 4.32996 3.28664 9.14141 3.45898 14.33593l-2.99219 18.95899c-2.96039 9.23883-8.04319 19.14044-14.9707 29.33984l-16.65625 21.14844c-19.8484 22.23125-47.21474 44.69042-79.49805 63.85742-33.23551 19.73315-74.15535 38.17417-119.57226 42.04492-76.30383 11.20211-103.63599 13.2976-111.189457-6.61523-4.2888-40.75062 21.739627-93.48081 69.224607-142.00977-1.29779-1.94735-2.48241-3.9462-3.53906-5.99414-63.670397 51.19464-113.969684 118.6159-88.955078 168.79102 29.703188 59.5796 156.885028 45.04573 267.416018-26.41016 78.44902-50.71146 132.08588-118.21731 142.92773-173.15234-.48946-32.59599-31.20102-46.10465-70.55664-45.44531v-.00004c-13.89952.23286-28.87929 2.24479-43.98437 5.79492z" opacity=".25"/></g></svg>