<svg height="500" viewBox="0 0 500 500" width="500" xmlns="http://www.w3.org/2000/svg" xmlns:xlink="http://www.w3.org/1999/xlink"><filter id="a" color-interpolation-filters="sRGB" height="1.103949" width="1.269306" x="-.134653" y="-.051975"><feGaussianBlur stdDeviation="3.3727673"/></filter><filter id="b" color-interpolation-filters="sRGB" height="1.109278" width="1.239098" x="-.119549" y="-.054639"><feGaussianBlur stdDeviation="3.4828927"/></filter><g transform="translate(.000015)"><circle cx="-249.99998" cy="250" fill="#e51a1a" r="250" transform="scale(-1 1)"/><path d="m181.33938 83.856939c97.52275-31.84694 203.27597 26.159281 217.12696 131.568651 10.04116 85.89723-45.79566 162.6049-131.11288 174.6444-76.26503 6.65-147.16573-45.4981-149.44603-126.3231.16679-50.89801 30.03241-87.97493 76.60677-108.40662 44.00125-16.48183 90.46555-3.00917 112.28155 39.63622 17.95322 40.0953 3.57775 87.31302-40.4313 103.80676-21.98685 8.23292-51.6578-5.55285-56.72562-31.5612 24.48155 21.7253 69.7211 11.74379 80.1808-21.06198 5.24648-24.88185-11.48198-41.52298-24.36368-55.64156-23.21161-15.22125-63.26956-13.16738-85.32502 12.05139-41.51846 46.43224-18.48961 112.52397 35.72777 131.08081 60.66482 17.11352 118.96473-29.63961 126.96137-92.39988 2.7637-54.83226-40.99398-106.19486-96.51046-114.27807-76.21988-10.3001-138.45939 50.84936-147.743191 124.09106-9.31956 73.21828 47.315731 138.67973 111.863041 158.33924 49.05305 9.49897 98.18701 2.07129 139.64056-27.40671 82.90715-58.95602 100.11901-177.97214 43.55644-260.39974-52.71171-79.885311-158.575-103.987181-249.15842-67.061741-86.705021 39.45169-149.0660905 134.549061-117.102931 229.167621 15.77888-74.65377 50.93986-153.5943 123.407351-187.514491 9.28724-4.60517 19.44718-8.7232 30.56692-12.33106zm-160.722321 286.075591c-52.57825-113.8254-.38403-260.89182 113.777041-317.643861 10.84604-5.32012 22.21219-9.7712 34.03518-13.36069 115.76394-28.75816 246.03978 34.00351 263.68455 158.897471 10.04526 85.91695-27.72044 168.80365-107.97396 206.83173-102.24035 46.26108-224.798841-11.43986-234.690511-131.24969-7.33455-123.78718 127.307171-194.136761 222.718561-137.24102-42.54074-27.89653-94.21826-33.44528-140.80825-12.98978-71.17376 32.62266-105.080851 118.0397-80.762351 190.63139 30.697281 88.13423 123.572931 132.04164 212.817841 105.59803 82.80488-25.06359 132.16266-100.33164 140.19255-180.04986 12.12434-145.020371-132.23823-245.3588802-265.59709-221.973611 7.92036-4.10499 20.5989-8.4277792 35.61563-11.7452592 60.06317-13.23825 124.63426-3.45807 179.45368 32.4903392 109.65077 71.904621 141.09454 217.803071 65.16008 333.599141-143.00482 218.07486-377.311781 117.06797-437.622951-1.79433" fill="#b21a1a"/></g><g fill="#ff8066"><path d="m296.07278 42.601547c7.33463 40.905622-14.74772 64.688203-33.47012 26.313963 19.23196 71.57018 82.56825 80.39897 33.47012-26.313963z" opacity=".75"/><path d="m107.86587 4.119532c-5.47489.13795-11.179989 1.924402-16.916119 5.671469 32.767439 6.32587 49.748219 53.18145 45.602819 105.255849 29.64201-51.063053 4.77652-111.772262-28.6867-110.927318z" opacity=".9"/><path d="m382.0957 165.83008 2.67774-2.67774c-.1079-1.43753-.16739-2.82711-.31641-4.30468-.71089 2.48488-1.54727 4.71178-2.36133 6.98242z" opacity=".9"/><path d="m354.11496 102.66891c32.64531-21.012187 43.11372-63.373609 18.85777-61.284455 26.14584-28.879919 46.71639 10.338925 37.03747 37.13571.59071 22.185435-4.44228 40.153115-17.20789 60.932615z" opacity=".75"/><path d="m250.69336 0c-68.92313 33.51316 7.76884 131.78822-64.15039 165.16602 18.92152-37.37404 26.66881-102.128139-34.21875-146.003911v.001953c49.49808 79.452093-34.12471 87.144628 9.20703 202.646488-14.70545-34.84956-50.31391-59.87302-41.27734-126.361331-53.822828 81.049071-10.67567 123.148521 17.22656 173.023441-23.38919-13.97927-48.018404-18.89088-30.30469-52.04688-42.017696 33.19685-12.953821 57.41765.16406 84.10547l29.19922 22.03125c10.70953-3.40858 16.13643-4.58903 18.97656-5.28516 1.47025 10.42427 1.44026 21.51567-.80273 33.57618l149.81055-144.3086c59.45978-28.10553 79.16478-107.807375 14.78711-139.025389 19.85872 24.688688 13.60914 106.706919-28.66211 73.285159-15.68576-12.40256-60.51132-51.934889-39.95508-140.80469z" opacity=".75"/><path d="m45.287275 180.33753c16.85835 47.08406-77.63394 48.3489 4.8455 136.02475-33.58479-59.14175 58.120055-59.85651-4.8455-136.02388z" opacity=".75"/></g><path d="m435.71093 65.187504-98.53906 24.591797-210.13672 210.400389-28.212885-28.24414-41.566406 41.54883 43.628901 43.67969c-26.664999 23.50609-57.132999 49.52851-84.962885 71.43164l-15.921875 12.53125 14.318359 14.33593 44.490234 44.53711 12.564453-15.76367c22.028041-27.63555 48.550364-57.68939 72.359374-84.18164l42.97461 42.99219 41.51757-41.5625-30.3457-30.38086 73.19922-73.29102.0254.0352 122.45313-122.59375-.0332-.043 14.24414-14.25976zm-52.125 50.113286-7.79687 26.7246-29.89453 29.92969.0332.043-70.19727 70.27734-.0273-.0371-119.36914 119.51954-2.96484-2.95508.0195-.0176-17.00391-17.02344 219.19727-219.47265zm-318.33593 319.7246c-3.173092 3.76512-6.182352 7.45761-9.273438 11.20118l-2.023437-2.02539c3.774439-3.05633 7.490531-6.04031 11.296875-9.17579z" fill="#861313"/><path d="m27.053272 442.74101c31.045177-24.43368 65.568723-53.97618 94.076298-79.31482l6.05932-5.4004-5.72637-5.73292-38.755349-38.79871 16.105863-16.09884 28.222886 28.25506 219.34093-219.61636 63.27162-15.790068-17.87039 61.243868-22.06869 22.09465.0328.0433-96.32595 96.43576-.0262-.0368-100.95205 101.07941 30.34493 30.37952-16.07969 16.09802-38.01499-38.03214-5.70022-5.68131-5.36889 5.96222c-25.51268 28.26407-55.662899 62.24959-80.322378 93.18644z" fill="#ff8066" stroke-width="36"/><g opacity=".75" transform="translate(-8.435562 2.811854)"><path d="m250.74805 135.69336c.44203 2.1867.74661 4.40947 1.27517 6.5735 2.08047 5.68139 2.47989 12.12247.29684 17.83727-2.4433 6.7212-7.14592 12.25643-11.62706 17.70696-5.71129 6.85889-11.60254 13.80674-15.112 22.11057-3.22589 7.50485-4.07144 15.9728-2.5149 23.98432 1.86035 10.04185 6.61073 19.28278 12.13004 27.77846 6.56807 10.08137 14.42222 19.24777 22.63003 28.01868 3.0532 1.954 6.10434 3.9112 9.15625 5.86719-.96747-3.46892-1.79359-6.97757-2.81257-10.43119-.85806-1.8035-1.90924-3.52888-2.72264-5.36286-1.79902-3.82028-3.21926-7.84014-3.97065-12.00282-.11835-.69375-.27504-1.68649-.35454-2.50745-.75595-6.4527.72088-13.01556 3.58247-18.80186 1.10946-2.31882 2.47097-4.69118 3.76231-6.79225 5.19106-8.3357 11.40249-16.16976 14.92335-25.43062 2.71552-6.86126 3.66042-14.41437 2.62197-21.72545-1.36803-9.97944-5.78667-19.24862-11.07156-27.71821-3.7017-5.90787-7.89837-11.50107-12.37806-16.83666-2.96737-2.71102-5.93482-5.42196-8.90234-8.13282.36263 1.95508.72526 3.91016 1.08789 5.86524z" fill="#e51a1a" filter="url(#a)" opacity="1"/><path d="m255.73607 140.76778c16.85835 47.08406-77.63394 48.3489 4.8455 136.02475-33.58479-59.14175 58.12006-59.85651-4.8455-136.02388z" fill="#ff8066" opacity="1"/></g><g opacity=".75" transform="translate(60.095292 -110.03364)"><path d="m378.91211 122.35352c3.31945 3.46932 6.78366 6.84038 9.51953 10.81054 4.79261 6.73235 8.04148 14.48753 9.89258 22.52344.14663.66761.36383 1.64419.51948 2.43313.41859 2.11728.74379 4.28017.98472 6.34404.36745 3.19163.55033 6.42958.57248 9.57204.0187 2.45331-.0508 4.74481-.20113 7.1962-.0603.99476-.14422 1.96099-.21896 2.87055-.11029 1.26993-.25898 2.45418-.40269 3.77545-.2346 1.82137-.51288 3.77108-.80934 5.46391-2.96365 17.17063-9.34059 33.63945-17.81175 48.8232-2.87553 5.14192-6.08639 10.30622-9.49847 15.19532-3.26209 4.68277-6.55721 9.34268-9.83356 14.01561 6.29821-2.94852 12.69234-5.69746 18.89062-8.85351 17.1021-8.91382 31.28836-23.24668 40.13311-40.37499 8.5377-16.43242 12.51521-35.39688 10.28721-53.847-1.4018-11.38344-5.38602-22.65337-12.62928-31.65454-5.91443-7.36851-14.12426-12.89348-23.2452-15.41372-4.46876-1.29461-9.11762-1.69723-13.72608-2.17023-2.07601-.22331-4.15197-.44694-6.22796-.67038 1.26823 1.32031 2.53646 2.64062 3.80469 3.96094z" fill="#e51a1a" filter="url(#b)" opacity="1"/><path d="m385.60233 123.54371c30.70767 31.43018 21.80817 90.30552-12.1853 137.99914 69.95531-31.48709 70.06136-132.61306 12.1853-137.99914z" fill="#ff8066" opacity="1"/></g></svg>