<svg height="500" viewBox="0 0 500 500" width="500" xmlns="http://www.w3.org/2000/svg" xmlns:xlink="http://www.w3.org/1999/xlink"><linearGradient id="a"><stop offset="0" stop-color="#ff851a"/><stop offset=".42441937" stop-color="#f87000"/><stop offset=".86367416" stop-color="#f26900"/><stop offset="1" stop-color="#e55f00"/></linearGradient><radialGradient id="b" cx="1362.7291" cy="216.11429" gradientTransform="matrix(1.0000001 -.0000059 .0000001 1.0000003 -112.72927 33.893757)" gradientUnits="userSpaceOnUse" r="250" xlink:href="#a"/><radialGradient id="c" cx="-2574.7058" cy="1016.7906" gradientTransform="matrix(.04353585 -.80110118 .80109076 .04373127 -440.99052 -1857.6221)" gradientUnits="userSpaceOnUse" r="250" xlink:href="#a"/><filter id="d" color-interpolation-filters="sRGB" height="1.151924" width="1.256345" x="-.128173" y="-.075962"><feGaussianBlur stdDeviation="3.7458236"/></filter><filter id="e" color-interpolation-filters="sRGB" height="1.195196" width="1.48997" x="-.244985" y="-.097598"><feGaussianBlur stdDeviation="3.7458236"/></filter><filter id="f" color-interpolation-filters="sRGB" height="1.023586" width="1.024588" x="-.012294" y="-.011793"><feGaussianBlur stdDeviation="1.6809515"/></filter><filter id="g" color-interpolation-filters="sRGB" height="1.640871" width="1.56403" x="-.282015" y="-.320435"><feGaussianBlur stdDeviation="10.125674"/></filter><filter id="h" color-interpolation-filters="sRGB" height="1.14697" width="1.153158" x="-.076579" y="-.073485"><feGaussianBlur stdDeviation="10.71926"/></filter><radialGradient id="i" cx="-1916.9937" cy="1454.9628" gradientTransform="matrix(-.79187033 .00007695 -.0000001 -.32333307 -1259.5745 724.35901)" gradientUnits="userSpaceOnUse" r="250"><stop offset="0" stop-color="#ff851a"/><stop offset=".22145858" stop-color="#ff851a"/><stop offset=".41487253" stop-color="#ff8c25" stop-opacity=".515723"/><stop offset=".6082865" stop-color="#ff9431" stop-opacity=".498039"/><stop offset=".80414325" stop-color="#ff9b3c" stop-opacity=".08805"/><stop offset="1" stop-color="#ffa348" stop-opacity="0"/></radialGradient><g transform="translate(-1000)"><path d="m1500 250a250 250 0 0 1 -250 250 250 250 0 0 1 -250-250 250 250 0 0 1 250-250 250 250 0 0 1 250 250z" fill="url(#b)" stroke-linecap="round" stroke-linejoin="round" stroke-width="1.002"/><path d="m1309.2298 33.82789c128.5196 30.706851 207.8974 167.48127 169.5927 291.56949-31.3771 95.69524-112.8693 162.03793-212.5543 174.60263 153.1796-8.09118 266.0956-163.0043 218.7012-309.92978-36.4562-114.666588-154.6038-191.5214848-270.6514-169.822657-18.8526 4.215647-38.4387 10.498641-55.8829 18.694487-112.5353 47.459213-168.47522 196.206-99.9632 307.85319 57.6978 93.63045 168.5136 141.8489 267.9993 100.77239-134.92 68.97589-303.283-51.46877-311.488-201.30723-4.4167-117.68321 76.8182-219.674136 190.654-246.26040176-89.0147 9.18391126-152.6601 79.39239576-187.7408 157.21169176-38.45522 102.70317 5.2337 231.75078 109.038 294.08388 114.5107 66.1048 260.3537 29.37245 323.6836-83.60152 42.2104-77.69758 34.3514-177.62383-23.1776-249.88923-57.5404-72.257811-157.5429-102.460489-246.4118-71.877168-81.7429 30.682061-131.1298 101.133078-134.0478 190.176958.6692 92.68536 61.7912 168.55972 147.5399 198.52472 128.5549 37.82014 266.7725-70.33038 233.6823-209.88949-14.7104-64.39775-57.8855-122.14991-125.7378-141.121386-71.391-15.467036-138.9716 1.205-181.2869 64.641366-18.8995 29.2286-28.9384 85.21395-26.105 97.65297m0 0c13.5324-50.18833 30.6277-97.66354 72.2125-128.94941 53.182-38.308183 124.4576-37.093813 181.7444-.48035 50.1457 36.48017 75.4845 90.37713 72.3557 150.91678-6.6674 64.04407-38.4038 109.83277-91.6401 141.00844-63.9019 34.56125-135.3795 4.83213-189.1258-35.28385-78.8706-65.48566-79.7477-186.67235-8.9744-256.76104 63.7369-55.941605 167.0207-64.891564 238.7167-6.65053 78.8163 58.35315 90.3045 169.04089 40.972 246.62443-35.2274 56.41892-88.4571 87.60135-152.5581 93.63158-81.9488 2.18264-160.666-41.91503-196.8695-120.9383-36.2055-79.02511-22.5771-164.33167 26.8727-227.66064 49.4316-63.30896 138.3491-86.746364 220.4504-67.54202" fill="#c50"/></g><path d="m409.94531-81.322266c-105.194-.0091-210.38802-.0013-315.582029-.0039-.874314.154498-1.757647.507932-2.466383 1.016839-.549463.608706-1.127152 1.197343-1.254204 2.041699-.423629 1.155618-.159518 2.412401.462996 3.439454 12.01436 26.364867 24.01339 52.737011 36.024 79.1033989 5.49991 11.5698891 13.89437 21.4667101 22.89068 30.4696171 12.26054 12.270176 25.56126 23.405445 37.47943 36.01915 4.01758 4.234411 7.907 8.628961 11.5212 13.144305 2.76625 3.437725 5.46984 7.095327 7.89306 10.683506 11.88407 17.550133 19.98976 37.511663 24.59765 58.162023.64585 2.84578 1.22873 5.6976 1.73955 8.50876 2.14862 11.71759 3.35083 23.7988 3.84461 35.71087.36294 8.51391.35169 17.1285.12679 25.68866-.0712 2.39899-.16602 4.98384-.27149 7.45312-.005 2.35852-.25705 4.86006-1.71635 6.8102-2.39424 3.41581-6.28618 5.29296-9.9712 6.98597-3.7279 1.61867-7.50878 3.3211-10.5943 6.02427-1.65462 1.49152-2.95426 3.78849-2.43494 6.06824.29108 1.1418.83326 2.27833 1.87924 2.90578 3.37584 2.46297 7.35435 3.93447 11.31098 5.17744 7.54581 2.27233 15.38559 3.41189 23.21835 4.11977 12.17656 1.03917 24.53127.68567 36.53543-1.7079 5.98073-1.24346 12.04778-3.05656 16.97787-6.79588 1.45953-1.19724 2.94255-2.56625 3.63079-4.36098.40802-1.31178.56097-2.94074-.49596-4.00576-1.22567-1.56585-2.96995-2.48823-4.54845-3.63703-4.59356-3.03976-9.58573-5.49208-14.2563-8.28333-2.01359-1.21088-3.99949-2.51853-5.70117-4.14844-1.44711-1.89292-1.79083-4.29412-2.52541-6.48936-.66888-2.40875-1.24262-4.93181-1.68988-7.29323-.54604-2.83984-.97691-5.85631-1.30034-8.63147-.3592-3.21434-.62994-6.48053-.78546-9.63869-.30987-6.16737-.29613-12.40956-.0297-18.51314.23472-5.50398.69522-10.99606 1.29959-16.47122.12809-1.02302.28098-2.31646.41861-3.44339 1.54796-12.22229 4.00197-24.33616 7.47787-36.15817.2147-.71574.52493-1.72198.7763-2.54925 1.24777-4.04562 2.72022-8.29455 4.30931-12.36411 4.28083-10.96607 9.69831-21.671394 16.58072-31.323833 3.57405-5.03976 7.57656-9.90984 11.64031-14.462029 6.77925-7.585423 14.19841-14.812279 21.59068-21.833185 10.94109-10.45153 22.20953-20.703279 31.45338-32.744613 2.72754-3.5616768 5.23369-7.3015914 7.37431-11.2412356 2.28368-3.8098782 4.72022-7.5279216 7.05851-11.3052603 13.82021-22.0008861 27.64041-44.0017731 41.46062-66.0026601.48104-1.392613.90509-3.204098-.2832-4.376953-.74385-1.089586-1.99123-1.875816-3.34726-1.725609-4.10616-.04209-8.21245-.03061-12.31876-.02244z" fill="#994100" filter="url(#h)"/><path d="m33.193359 133.14844-31.9140621 255.27539-1.2792969 19.1914v80.85938h500v-80.85938l-1.2793-19.18945-.0645-.51562-31.79688-254.76172z" fill="#994100"/><path d="m118.64321 180.79603c-4.82063 1.64714-7.26926 6.7129-7.09325 11.58238-.65461 12.1007-1.14238 24.21002-1.6689 36.3169-16.468395.20096-32.966626-.14247-49.41667.19917-5.93941.2864-9.809441 6.28768-9.324622 11.90279-.492311 10.05164-1.358857 20.0978-1.762275 30.01533-.03294 5.94129 5.956905 10.30611 11.641377 9.62052h46.50341c-.51561 14.82077-1.5268 29.62245-1.81376 44.44179.10436 5.94802 5.95611 10.35864 11.7071 9.65782 10.34916-.13853 20.74281.2761 31.06422-.20746 5.63303-.46068 9.18085-6.15582 8.97665-11.48651.63517-10.08659.90472-20.19232 1.37638-30.28732 73.33763-.0461 146.69009.0922 220.01846-.0692 5.79745-.87334 10.82901-4.31966 16.2879-6.3217 16.61293-7.43481 33.50548-14.27733 49.88684-22.21178 5.95355-2.61209 8.33298-10.91427 4.03396-15.97889-3.61263-4.08143-9.41006-5.01026-14.04799-7.53575-17.76131-7.70867-35.426-15.71166-53.27621-23.17078-5.54113-1.34127-11.3747-.29469-17.03753-.62552-67.46694 0-134.93388 0-202.40081 0 .24775-9.05393 1.15214-18.13556.94992-27.17636-.2934-5.96197-6.40059-9.95215-12.06831-9.17857-10.21024.13838-20.46493-.27598-30.64741.20746-.6295.10189-1.25899.20376-1.88848.30564z" fill="url(#i)" opacity=".675"/><path d="m240.66453 188.92261c.98782 14.57592.87383 29.13176.19609 43.36206-.30139 6.62752-5.22253 10.54379-8.63724 12.55213-3.3143 2.00834-6.52813 3.21335-9.34028 4.51877-2.71166 1.40584-4.82077 2.81168-5.82509 3.81585-.70303.80333-.90388 1.205-1.00431 2.20917.20079.10043.20079.20084.80343.6025 1.60696 1.10459 4.72038 2.71126 8.83812 4.01668 8.23547 2.61085 20.0866 4.41835 32.0381 4.7196 11.95149.30124 24.00346-1.00417 32.54025-3.61501 7.03029-2.20917 10.54544-4.92043 11.95151-7.33044-1.40607-1.30542-4.31862-3.21335-7.53245-5.12127-3.21386-1.90792-6.82945-3.71543-9.94287-5.62335-1.60691-.90376-3.01299-1.80751-4.51946-3.01251-1.40608-1.10459-3.31431-2.10876-4.61994-6.22586-3.89517-11.47509-5.71892-27.09246-5.3044-44.81719" fill="url(#c)" filter="url(#g)"/><path d="m49.084013 151.14771-29.878807 238.99254h461.589594l-29.82858-238.99254zm329.470227 75.31279 64.27708 28.11675-64.27708 28.11677h-110.67702c-3.51515.10043-7.03029.20086-10.54547.10043-.80345 0-1.50648-.10043-2.30996-.10043h-105.55497l-1.90823 42.17516h-32.1385l2.41039-54.2252h-58.65282l2.008671-32.13345h58.150669l2.10907-48.20017h32.13849l-1.60691 36.15013zm-360.554229 181.75482v62.25857h463.999979v-62.25857z" fill="#ffa348"/><path d="m94.36327-77.325983 35.21769 77.325983c5.42338 12.642502 14.36189 23.256583 25.61041 34.242207 14.26145 14.048343 31.93766 28.317603 47.30387 47.597671 36.0554 45.107332 40.77577 99.834612 38.36538 150.444792-.30139 6.62753-5.22253 10.54379-8.63724 12.55213-3.3143 2.00834-6.52813 3.21335-9.34028 4.51877-2.71166 1.40584-4.82077 2.81168-5.82509 3.81585-.70303.80333-.90388 1.205-1.00431 2.20917.20079.10043.20079.20084.80343.6025 1.60696 1.10459 4.72038 2.71126 8.83812 4.01668 8.23548 2.61085 20.08659 4.41835 32.0381 4.7196 11.9515.30124 24.00345-1.00417 32.54025-3.61501 7.0303-2.20917 10.54544-4.92043 11.95151-7.33044-1.40607-1.30542-4.31862-3.21335-7.53245-5.12127-3.21386-1.90792-6.82945-3.71543-9.94287-5.62335-1.60691-.90376-3.01299-1.80751-4.51946-3.01251-1.40608-1.10459-3.31431-2.10876-4.61994-6.22586-5.62422-16.56881-6.92985-41.77349-3.41471-69.48859s11.95151-57.63937 27.92036-81.438208c13.35754-19.842402 32.54025-36.401173 48.40863-51.825229 11.44935-11.176413 20.58874-21.7101624 25.40952-31.038903l48.574-77.325983z" fill="url(#c)" filter="url(#f)"/><g fill="#ffa348" stroke-width=".999999"><path d="m269.78529 38.750931 24.50562 5.854314c-19.98616 26.40968-21.79395 59.246045-33.54458 86.258225-5.12209-27.91593-5.22253-64.347227 9.03896-92.112539z" filter="url(#e)"/><path d="m212.1368 0c15.56708 26.329344 22.99913 68.845917 15.56708 71.225798-4.72033 1.52634-42.28221-71.225798-42.28221-71.225798l-24.9552-47.098553 30.40443 4.217781z" filter="url(#d)"/></g></svg>