<svg height="500" viewBox="0 0 500 500" width="500" xmlns="http://www.w3.org/2000/svg" xmlns:xlink="http://www.w3.org/1999/xlink"><radialGradient id="a" cx="1362.7291" cy="216.11429" gradientTransform="matrix(1.0000001 -.0000059 .0000001 1.0000003 -112.72927 33.893757)" gradientUnits="userSpaceOnUse" r="250"><stop offset="0" stop-color="#ff851a"/><stop offset=".42441937" stop-color="#f87000"/><stop offset=".86367416" stop-color="#f26900"/><stop offset="1" stop-color="#e55f00"/></radialGradient><filter id="b" color-interpolation-filters="sRGB" height="1.250382" width="1.093619" x="-.04681" y="-.125191"><feGaussianBlur stdDeviation="7.0744935"/></filter><filter id="c" color-interpolation-filters="sRGB" height="1.122511" width="1.077483" x="-.038741" y="-.061255"><feGaussianBlur stdDeviation="7.0744935"/></filter><g transform="translate(-1000)"><path d="m1500 250a250 250 0 0 1 -250 250 250 250 0 0 1 -250-250 250 250 0 0 1 250-250 250 250 0 0 1 250 250z" fill="url(#a)" stroke-linecap="round" stroke-linejoin="round" stroke-width="1.002"/><path d="m1309.2298 33.82789c128.5196 30.706851 207.8974 167.48127 169.5927 291.56949-31.3771 95.69524-112.8693 162.03793-212.5543 174.60263 153.1796-8.09118 266.0956-163.0043 218.7012-309.92978-36.4562-114.666588-154.6038-191.5214848-270.6514-169.822657-18.8526 4.215647-38.4387 10.498641-55.8829 18.694487-112.5353 47.459213-168.47522 196.206-99.9632 307.85319 57.6978 93.63045 168.5136 141.8489 267.9993 100.77239-134.92 68.97589-303.283-51.46877-311.488-201.30723-4.4167-117.68321 76.8182-219.674136 190.654-246.26040176-89.0147 9.18391126-152.6601 79.39239576-187.7408 157.21169176-38.45522 102.70317 5.2337 231.75078 109.038 294.08388 114.5107 66.1048 260.3537 29.37245 323.6836-83.60152 42.2104-77.69758 34.3514-177.62383-23.1776-249.88923-57.5404-72.257811-157.5429-102.460489-246.4118-71.877168-81.7429 30.682061-131.1298 101.133078-134.0478 190.176958.6692 92.68536 61.7912 168.55972 147.5399 198.52472 128.5549 37.82014 266.7725-70.33038 233.6823-209.88949-14.7104-64.39775-57.8855-122.14991-125.7378-141.121386-71.391-15.467036-138.9716 1.205-181.2869 64.641366-18.8995 29.2286-28.9384 85.21395-26.105 97.65297m0 0c13.5324-50.18833 30.6277-97.66354 72.2125-128.94941 53.182-38.308183 124.4576-37.093813 181.7444-.48035 50.1457 36.48017 75.4845 90.37713 72.3557 150.91678-6.6674 64.04407-38.4038 109.83277-91.6401 141.00844-63.9019 34.56125-135.3795 4.83213-189.1258-35.28385-78.8706-65.48566-79.7477-186.67235-8.9744-256.76104 63.7369-55.941605 167.0207-64.891564 238.7167-6.65053 78.8163 58.35315 90.3045 169.04089 40.972 246.62443-35.2274 56.41892-88.4571 87.60135-152.5581 93.63158-81.9488 2.18264-160.666-41.91503-196.8695-120.9383-36.2055-79.02511-22.5771-164.33167 26.8727-227.66064 49.4316-63.30896 138.3491-86.746364 220.4504-67.54202" fill="#c50"/></g><path d="m495.69995 380.95377.0391-206.66601-270.51367-94.111329-12.58985-4.38086-6.5918 3.13476-173.361357 72.912109v209.35547l283.103927 98.49195z" fill="#994100"/><path d="m234.33789 81.214844c-2.69892-.06227-4.89363 1.682034-7.0957 2.986328-5.05694 2.364643-10.28866 4.346974-15.55465 6.19543-21.45705 7.428995-43.79255 11.770698-65.83586 17.034338-17.47471 4.1492-34.96029 8.74125-51.439031 16.0029-13.611851 5.99302-26.511554 14.08494-36.669357 25.0561-6.889851 7.39086-12.472485 16.01083-16.239067 25.39461-5.885168 14.53068-8.168957 30.42166-7.240625 46.04155.884718 13.99366 4.418243 27.99916 11.519911 40.16872 3.04203 5.16444 6.758431 9.89279 10.52618 14.54046 18.376485 22.29779 42.096935 39.76663 67.755429 52.82018 26.25085 13.32802 54.66126 22.24658 83.68639 27.02972 27.48457 4.4853 55.65534 5.29385 83.26997 1.46599 21.94536-3.03044 43.33315-9.46648 63.70644-18.09272 19.91206-8.46491 38.9545-19.07393 56.34044-31.97368 15.41728-11.50071 29.61314-24.88022 40.77579-40.61084 9.11991-12.85933 16.09667-27.44974 18.97398-43.02006 1.22241-6.69331 1.77849-13.53426 1.37261-20.33275-.60595-8.77784-4.1395-17.19846-9.44517-24.16485-6.53356-8.66508-15.22738-15.41487-24.29905-21.23946-14.71648-9.36379-30.70383-16.44902-46.40486-23.95712-6.1996-2.92181-12.31701-6.01514-18.37179-9.22331-21.27146-10.87359-44.50932-17.05946-67.647-22.53192-11.51974-2.727669-23.14996-5.313192-34.58342-8.204851-8.40864-2.15254-16.79772-4.42096-25.03031-7.177854-3.95247-1.568001-7.64651-4.268876-12.07125-4.206911z" fill="#ffa348" filter="url(#c)" opacity=".5"/><path d="m322.37769 456.55576v-203.47894l-289.656257-98.54492-.03906 206.66601 270.513667 94.1118 12.59026 4.38015z" fill="#994100"/><path d="m315.7863 459.68986 6.59139-3.1341 173.36132-72.91253v-209.35547l-192.54297 81.32617v199.69578z" fill="#994100"/><g fill="#ffa348"><path d="m321.19669 267.55049v170.3124l156.5415-66.1536.0009-170.27955z" stroke-width="36"/><path d="m50.685485 348.40289 37.4355 13.0266v-169.0344l-37.404-12.7269zm54.256505-150.2874v169.1658l140.6538 48.933v-170.2476zm157.4721 223.9497 41.9634 14.598v-170.6967l-41.96385-14.2776z" stroke-width="36"/><path d="m140.67773 125.19336c-16.0466.20234-32.14259 1.48575-47.846706 4.89686-9.344341 2.44456-17.578383 7.67734-25.861992 12.45046-2.452012 1.38656-4.818025 2.84-7.490516 3.85971-3.639275.74786-7.460859 1.2444-10.667428 3.26922-3.661723 2.15692-5.903433 6.26669-6.139163 10.46369-.08678 2.10531.08387 4.21749.2812 6.31397 1.07136 9.50019 5.52216 18.56694 12.380086 25.22856 7.390348 7.41689 16.812866 12.41544 26.453902 16.269 14.22067 5.69664 29.221827 9.04751 44.141217 12.33387 10.26178 2.22725 20.59871 4.33912 30.76698 6.82872 4.92285 1.19983 9.92369 2.59056 14.76834 4.22798 8.89344 2.96868 17.72372 6.1218 26.62924 9.05388 24.60536 8.20103 49.65328 15.61369 75.46284 18.81732 15.05281 1.86627 30.32992 2.20568 45.4123.47377 16.84959-1.66711 33.87035-2.96048 50.25332-7.49636 9.00702-2.52036 17.92747-6.19493 25.06576-12.37932 6.26473-5.46664 10.56659-13.36733 10.98195-21.74306.45611-6.83837-.65835-13.77371-3.13234-20.15929-3.45761-8.7042-9.7041-16.1219-17.21957-21.63107-9.45985-7.06075-20.52642-11.58471-31.71279-15.12152-17.88752-5.61498-36.44244-8.61743-54.90148-11.6518-12.99092-2.10649-26.01963-4.04681-38.8972-6.78389-9.71925-2.21223-19.3556-4.77598-29.10389-6.86218-29.41845-6.48351-59.44017-10.85558-89.62406-10.65852z" fill-rule="evenodd" filter="url(#b)" opacity=".5"/></g><path d="m38.887448 119.55338-5.171875 16.71875 274.507817 93.45313 4.47461-.74805 180.10351-30.12305 2.67578-11.77148c8.47301-37.26461 5.07927-65.17727-10.50585-83.11328-7.35887-8.500759-14.03024-13.183529-24.13868-15.263669l-251.81445-85.570316c-6.28242-1.437093-13.59024-2.664455-21.67383-3.027343-8.08358-.362888-16.94267.138504-25.88186 2.263671-54.77026 13.023982-105.750872 62.797516-122.575172 117.181637z" fill="#994100"/><path d="m309.72837 211.22314 168.19702-28.13135c7.78461-34.23702 3.37432-55.91436-6.54582-67.32484-4.89133-5.65345-12.21492-9.40081-16.11561-9.94335l-250.71018-85.244392c-9.00856-2.060212-25.94289-3.782319-38.92725-.695122-46.25139 10.998445-95.088174 58.266113-109.542298 104.988704z" fill="#ffa348"/><path d="m308.65441 229.65237 184.14705-30.79821 2.67578-11.77148c8.47218-37.26094 5.07924-65.17121-10.50195-83.10742-8.13081-9.389699-18.42857-14.371209-28.57422-16.736329l-.0371-.008-.0371-.01c-6.29993-1.44076-12.87912-1.96354-19.74414-1.68359l.00003.00042c-6.86501.27994-14.01502 1.36291-21.45898 3.13281h-.002c-54.79212 13.029399-105.77889 62.891319-122.58985 117.232419z" fill="#994100"/><path d="m452.31405 104.76915c-9.00856-2.06021-20.04306-1.67344-33.02742 1.41376-46.25139 10.99844-95.1201 58.36914-109.55826 105.04023l168.19702-28.13135c7.78461-34.23702 3.37432-55.91436-6.54582-67.32484-4.89133-5.65345-12.21492-9.40081-19.06552-10.9978z" fill="#ffa348"/><path d="m377.57206 65.457875c-6.86501.27994-14.01503 1.36292-21.45999 3.13282-54.79302 13.029376-105.77985 62.891375-122.59079 117.232425 0 0 .92306 20.97914 8.59863 21.39795 6.0685.33111 8.59863-16.07764 8.59863-16.07764 14.43815-46.67104 63.30725-94.040629 109.5586-105.039059 8.11521-1.9295 14.6397-2.66327 22.04101-2.68556 3.68654-.0111 10.98633 1.2715 10.98633 1.2715l4.01174-17.548856c-7.0661-1.41544-13.21851-1.942339-19.74416-1.68358z" fill="#994100"/><path d="m242.08245 18.832303c-6.86501.27994-14.01503 1.36292-21.45999 3.13282-54.79302 13.029371-105.77985 62.847158-122.590797 117.188207 0 0 .756661 21.48104 8.598637 21.94181 6.06986.35664 8.59863-16.08719 8.59863-16.08719 14.43815-46.671039 63.30725-94.530726 109.5586-105.529156 8.11521-1.9295 14.65327-2.237143 22.04101-2.68556 8.15778-.495156 24.51838 0 24.51838 0l-9.77793-15.800313c-7.0661-1.41544-12.96089-2.419377-19.48654-2.160618z" fill="#994100"/><g transform="translate(.044649)"><path d="m142.00977 312.60937c-14.46299.61153-28.6226 4.89553-41.20704 13.31446-12.576551 8.41367-22.024277 20.16155-27.742183 33.4082l-4.058594 9.4043 93.785157 129.42187 9.60742-.35937c14.59313-.5458 29.09553-4.88013 41.66211-13.28711 40.27019-26.94058 45.1362-84.95087 14.27539-127.53906-21.21653-29.27901-54.5037-45.70864-86.32226-44.36329z" fill="#994100"/><path d="m204.04735 469.55117c30.8174-20.6167 35.69364-66.15832 9.70973-102.01635-25.98342-35.85736-72.12793-47.26632-102.94533-26.64963-9.6385 6.44812-16.81075 15.35634-21.224259 25.5811l82.133429 113.34488c11.50923-.43046 22.68898-3.81259 32.32643-10.26z" fill="#ffa348" stroke-width="36"/><g fill="#994100"><path d="m139.06752 417.64262c-5.42505-7.48662-3.66901-17.88407 4.12271-23.09669 5.84414-3.90971 13.46647-3.73465 19.13732-.30107l26.27853-33.86106 23.40397 32.2977-42.02516 12.12986c1.38426 6.3018-1.23446 13.0325-7.0779 16.94173-7.79102 5.21216-18.41313 3.37578-23.83818-4.11084z"/><path d="m.10175033 444.2441c2.37396347 33.0173 32.05872567 57.88864 66.36813167 55.61118l30.645785-2.03427-1.45265-20.20358-29.294554 1.94458c-22.749986 1.51014-42.478737-14.97357-44.047552-36.79281-1.568906-21.82047 16.128467-40.78812 38.36289-42.26404l29.294983-1.94461-1.45265-20.20358-30.64536 2.03424c-33.433465 2.21932-60.1489152 30.89222-57.77905239 63.85249z"/></g></g></svg>