<svg height="500" viewBox="0 0 500 500" width="500" xmlns="http://www.w3.org/2000/svg" xmlns:xlink="http://www.w3.org/1999/xlink"><radialGradient id="a" cx="1362.7291" cy="216.11429" gradientTransform="matrix(1.0000001 -.0000059 .0000001 1.0000003 -112.72927 33.893757)" gradientUnits="userSpaceOnUse" r="250"><stop offset="0" stop-color="#ff851a"/><stop offset=".42441937" stop-color="#f87000"/><stop offset=".86367416" stop-color="#f26900"/><stop offset="1" stop-color="#e55f00"/></radialGradient><filter id="b" color-interpolation-filters="sRGB" height="1.48645" width="1.088671" x="-.044336" y="-.243225"><feGaussianBlur stdDeviation="7.777553"/></filter><g transform="translate(-1000)"><path d="m1500 250a250 250 0 0 1 -250 250 250 250 0 0 1 -250-250 250 250 0 0 1 250-250 250 250 0 0 1 250 250z" fill="url(#a)" stroke-linecap="round" stroke-linejoin="round" stroke-width="1.002"/><path d="m1309.2298 33.82789c128.5196 30.706851 207.8974 167.48127 169.5927 291.56949-31.3771 95.69524-112.8693 162.03793-212.5543 174.60263 153.1796-8.09118 266.0956-163.0043 218.7012-309.92978-36.4562-114.666588-154.6038-191.5214848-270.6514-169.822657-18.8526 4.215647-38.4387 10.498641-55.8829 18.694487-112.5353 47.459213-168.47522 196.206-99.9632 307.85319 57.6978 93.63045 168.5136 141.8489 267.9993 100.77239-134.92 68.97589-303.283-51.46877-311.488-201.30723-4.4167-117.68321 76.8182-219.674136 190.654-246.26040176-89.0147 9.18391126-152.6601 79.39239576-187.7408 157.21169176-38.45522 102.70317 5.2337 231.75078 109.038 294.08388 114.5107 66.1048 260.3537 29.37245 323.6836-83.60152 42.2104-77.69758 34.3514-177.62383-23.1776-249.88923-57.5404-72.257811-157.5429-102.460489-246.4118-71.877168-81.7429 30.682061-131.1298 101.133078-134.0478 190.176958.6692 92.68536 61.7912 168.55972 147.5399 198.52472 128.5549 37.82014 266.7725-70.33038 233.6823-209.88949-14.7104-64.39775-57.8855-122.14991-125.7378-141.121386-71.391-15.467036-138.9716 1.205-181.2869 64.641366-18.8995 29.2286-28.9384 85.21395-26.105 97.65297m0 0c13.5324-50.18833 30.6277-97.66354 72.2125-128.94941 53.182-38.308183 124.4576-37.093813 181.7444-.48035 50.1457 36.48017 75.4845 90.37713 72.3557 150.91678-6.6674 64.04407-38.4038 109.83277-91.6401 141.00844-63.9019 34.56125-135.3795 4.83213-189.1258-35.28385-78.8706-65.48566-79.7477-186.67235-8.9744-256.76104 63.7369-55.941605 167.0207-64.891564 238.7167-6.65053 78.8163 58.35315 90.3045 169.04089 40.972 246.62443-35.2274 56.41892-88.4571 87.60135-152.5581 93.63158-81.9488 2.18264-160.666-41.91503-196.8695-120.9383-36.2055-79.02511-22.5771-164.33167 26.8727-227.66064 49.4316-63.30896 138.3491-86.746364 220.4504-67.54202" fill="#c50"/></g><path d="m121.05957 422.72287c-14.32107 3.41989-44.60373-4.24402-44.107682 2.36868 3.615063 3.40919-25.022909 6.71221-10.693045 9.47354 51.377977 2.96238 101.900547 6.56163 152.951117 9.76755 39.92117 2.59857 71.13165 9.04944 114.27298 9.98296 25.84342.98778 36.90475-3.25406 37.11472-7.30437 8.01335-2.42815 23.78708-7.46863-3.62488-7.33463-17.81697-.94174-17.55392-5.39343-15.74886-11.67372 3.57043-12.42241 23.55373-.13805 38.65773-3.02629-1.60156-5.09723 33.25783-2.6706 49.27853-4.73172 14.35851-1.3137 33.98872-2.17097 44.07356-4.16962-12.81499-4.63879-25.20423-9.61223-48.91435-12.70297-13.03614-2.05651 18.69549-5.83546-4.88304-7.90625-29.40132-4.63129-70.64334-3.54133-105.79662-5.20067-43.86491-1.65625-75.23552-9.3739-120.96119-9.80894-14.55322-.30397-23.84749 1.30354-24.77034 3.84287-20.97096 1.14258-37.0622-2.89142-56.16925-3.87732-11.34544-1.06376-24.664559-3.78905-38.104184-2.24081-1.471419 4.01558 2.750464 8.49773 7.849836 12.56569 6.727759 5.5277 27.776498 9.85189 49.562268 13.53656-4.29142 2.45639 7.83845 3.17768 7.35309 6.38798-1.48886 9.84764-17.65321 9.73817-27.34039 12.05148z" fill="#994100" filter="url(#b)" transform="matrix(.90668093 0 0 .90668093 25.450371 61.025133)"/><path d="m83.634766-.1484375.517578 25.8085935c.938257 46.811821 23.234786 87.576294 55.585936 112.273434l1.30859 1-9.12304 26.35547 57.03515 19.72266c-17.00421 20.3774-38.22363 36.23543-62.17187 49.09765l-11.45508 6.15235-29.212889-10.10156-23.542969 68.00976 17.017578 5.88281 279.23242 96.55469 23.54297-68.00976-24.44141-8.45118-6.09179-12.70312c-12.05382-25.13651-18.69589-50.40127-19.0918-76.71289l54.59961 18.8789 7.0625-20.40234 3.71484-.25c22.46201-1.51437 45.58785-9.2433 69.63868-21.37891l15.46484-7.80273-7.20313-15.75195c-11.70602-25.59938-26.96546-44.11599-45.01953-56.64649l-1.08398-.75195 8.91211-25.74805-255.41992-88.320309-5.50196 15.894531z" fill="#994100"/><path d="m194.53382 39.449296-39.70987 114.713074 221.39648 76.55531 39.70986-114.71307zm-92.38534-14.150087c.82711 41.266406 20.62568 77.037781 48.51307 98.327251l25.21273-72.834063zm294.76253 189.698151c19.10962-1.28836 40.1297-8.08056 62.74006-19.48933-10.65353-23.29772-23.66535-38.76018-38.91305-49.34291zm-261.60778 34.97038 200.30148 69.25908c-14.50045-30.23861-22.12632-61.59657-20.77286-94.52316l-105.45349-36.46401c-19.79599 26.65561-45.54924 46.40728-74.07513 61.72809zm-49.827949 37.07413 262.228199 90.67426 11.76648-33.99078-262.227807-90.67413z" fill="#ffa348" stroke-width="36"/></svg>