<svg height="500.0004" viewBox="0 0 500 500.0004" width="500" xmlns="http://www.w3.org/2000/svg"><g transform="translate(-500 -500)"><path d="m999.99997 750a249.99997 250 0 0 1 -249.99997 250 249.99997 250 0 0 1 -249.99997-250 249.99997 250 0 0 1 249.99997-250 249.99997 250 0 0 1 249.99997 250z" fill="#ffe24c"/><path d="m1000 750.00632-194.05817-2.60063 192.98367-20.4591-193.45987 15.31075 190.28547-38.19139-191.22567 33.10816 185.92267-55.58184-187.34707 50.61663 180.01317-72.50831-181.88127 67.68555 172.56127-88.82024-174.86477 84.18876 163.62798-104.35075-166.35478 99.94311 153.30278-119.00625-156.40808 114.88758 141.65488-132.65651-145.14668 128.82271 128.82258-145.14278-132.65648 141.65492 114.88758-156.42029-119.00218 153.31093 99.94719-166.3385-104.34669 163.60764 84.17649-174.84041-88.81609 172.54909 67.67739-181.89345-72.48799 180.02133 50.6167-187.35925-55.5941 185.94294 33.1-191.23373-38.1995 190.27732 15.3474-193.45586-20.4957 192.97968-2.59249-194.05413-2.5681 194.05413-20.4916-192.97968 15.327 193.45586-38.2004-190.27732 33.1171 191.23373-55.5936-185.94294 50.6162 187.35925-72.51029-180.02133 67.69979 181.89345-88.81699-172.54909 84.17729 174.84041-104.36289-163.60764 99.96869 166.3385-119.00618-153.31093 114.86968 156.42029-132.64018-141.65492 128.81968 145.14278-145.14988-128.82271 141.67318 132.65651-156.42638-114.88758 153.29788 119.00625-166.34218-99.94311 163.62828 104.35075-174.86477-84.18876 172.54667 88.82024-181.87387-67.68555 180.00617 72.50831-187.35587-50.61663 185.94077 55.58184-191.21897-33.10816 190.28097 38.19139-193.47947-15.31075 192.98647 20.4591-194.04384 2.60063 194.04384 2.58435-192.98647 20.46723 193.47947-15.31481-190.28097 38.20361 191.21897-33.12445-185.94077 55.58997 187.35587-50.60849-180.00617 72.5083 181.87387-67.68553-172.54667 88.81211 174.86477-84.17656-163.62828 104.33851 166.34218-99.95936-153.29788 119.0103 156.42638-114.87941-141.67318 132.66054 145.14988-128.83082-128.81968 145.13868 132.64018-141.66304-114.86968 156.42028 119.00618-153.28243-99.96869 166.32222 104.36289-163.59543-84.17729 174.84852 88.81699-172.55719-67.69979 181.8975 72.51029-180.02538-50.6162 187.35108 55.5936-185.93884-33.1171 191.21336 38.2004-190.26101-15.327 193.47618 20.4916-192.99594 2.5681 194.05003 2.59249-194.05003 20.4957 192.99594-15.3474-193.47618 38.1995 190.26101-33.1-191.21336 55.5941 185.93884-50.6167-187.35108 72.48799 180.02538-67.67739-181.8975 88.81609 172.55719-84.17649-174.84852 104.34669 163.59543-99.94719-166.32222 119.00218 153.28243-114.88758-156.42028 132.65648 141.66304-128.82258-145.13868 145.14668 128.83082-141.65488-132.66054 156.40808 114.87941-153.30278-119.0103 166.35478 99.95936-163.62798-104.33851 174.86477 84.17656-172.56127-88.81211 181.88127 67.68553-180.01317-72.5083 187.34707 50.60849-185.92267-55.58997 191.22567 33.12445-190.28547-38.20361 193.45987 15.31481-192.98367-20.46723z" fill="#fffbb3" fill-rule="evenodd"/></g><path d="m326.04492 4.5703125c-47.46202.3222681-97.50591 16.5951795-137.5039 28.8378905-2.95925-6.215679-6.02929-12.189356-9.25977-17.818359l-1.33594-4.6875c-6.08471 1.971654-12.11084 4.11998-18.02734 6.552734l-.23242-.574219.21679.580079c-7.18055 2.726507-14.23166 5.782486-21.13086 9.158203l-.20312-.392579.19141.398438c-6.91251 3.370987-13.66579 7.059168-20.23829 11.052734l-.13867-.21875.13281.220704c-6.46017 4.146845-12.72594 8.589064-18.777339 13.3125l-.392578-.50586.378906.515625c-6.186173 4.562116-12.158673 9.407116-17.898437 14.519531l-.251953-.269531.246093.275391c-5.679214 5.178275-11.116647 10.615697-16.294921 16.294922l-.28125-.25.273437.257812c-5.108855 5.736794-9.95059 11.706028-14.509766 17.888672l-.515624-.378906.503906.392578c-4.729446 6.059988-9.176889 12.334888-13.328125 18.804688l-.220703-.13281.21875.13867c-3.989836 6.56757-7.674742 13.31564-11.042969 20.22265l-.412109-.19921.40625.20898c-3.376597 6.90171-6.433229 13.95544-9.160157 21.13867l-.574219-.21289.56836.22852c-2.923437 7.11034-5.51734 14.35178-7.7734376 21.70117l-.1445313-.03906.1445313.04297c-1.978838 7.42782-3.6140419 14.94298-4.9003906 22.52148l-.5214844-.08984.5195312.10351c-1.3931486 7.55594-2.4372269 15.17212-3.1289062 22.82422l-.5898438-.04687.5878906.0625c-.90134905 7.63404-1.45009139 15.30562-1.6445312 22.99023v.00586c.19442981 7.68461.74319215 15.35619 1.6445312 22.99023l-.5878906.0625.5898438-.04687c.0825776.91318.2179377 1.82031.3105468 2.73242 18.1693318 1.56215 30.0897058 6.16124 47.9531248 11.03711 7.718679 7.4691 18.209861 12.66582 25.501953 18.36914 30.680691 24.14966 59.633041 64.78259 94.917971 125.76758l3.1582 5.45703 5.8711 2.29492c20.23624 7.90611 45.68399 11.04621 70.53906 11.63477l43.53711-3.37891c11.81842-.50515 27.73151-2.54385 37.10742-17.94726 8.01569-13.16816 3.88145-26.64321-.23633-35.54297-2.29751-4.96561-4.91305-9.14224-7.43359-12.78125l-23.98438-82.03907c-2.4645-5.56545-2.66886-10.82295-1.46094-16.2207 1.33866-5.97075 4.33858-12.40442 8.26563-19.5957 7.9499-14.55246 18.84561-29.28319 21.03516-49.08789l.01562-.13086.01172-.13086c2.13425-22.27985-4.88787-40.29597-12.9375-56.85156l5.50391-7.38868c24.24931-32.55054 50.91098-62.506273 90.09375-82.318355l47.32031-23.927734-52.10938-9.824219c-14.99008-2.826085-28.81701-4.169098-41.65625-4.265625l15.81641-20.1503908-32.5957-3.2558593c-6.63808-.6632714-13.3662-.9425227-20.14649-.8964844z" fill="#f2c80d"/><path d="m159.68555 16.880859.21679.580079c-7.18055 2.726507-14.23166 5.782486-21.13086 9.158203l-.20312-.392579.19141.398438c-6.91251 3.370987-13.66579 7.059168-20.23829 11.052734l-.13867-.21875.13281.220704c-6.46017 4.146845-12.72594 8.589064-18.777339 13.3125l-.392578-.50586.378906.515625c-6.186173 4.562116-12.158673 9.407116-17.898437 14.519531l-.251953-.269531.246093.275391c-5.679214 5.178275-11.116647 10.615697-16.294921 16.294922l-.28125-.25.273437.257812c-5.108855 5.736794-9.95059 11.706028-14.509766 17.888672l-.515624-.378906.503906.392578c-4.729446 6.059988-9.176889 12.334888-13.328125 18.804688l-.220703-.13281.21875.13867c-3.989836 6.56757-7.674742 13.31564-11.042969 20.22265l-.412109-.19921.40625.20898c-3.376597 6.90171-6.433229 13.95544-9.160157 21.13867l-.574219-.21289.56836.22852c-2.923437 7.11034-5.51734 14.35178-7.7734376 21.70117l-.1445313-.03906.1445313.04297c-1.978838 7.42782-3.6140419 14.94298-4.9003906 22.52148l-.5214844-.08984.5195312.10351c-1.3931486 7.55594-2.4372269 15.17212-3.1289062 22.82422l-.5898438-.04687.5878906.0625c-.90134905 7.63404-1.45009139 15.30562-1.6445312 22.99023v.00586c.06560125 2.59281.22879151 5.18063.375 7.76953 11.014541.90802 21.476486 2.68834 31.470703 5.41602-4.81999-7.28-8.92591-14.83582-11.253906-22.25782-3.255994-10.38198-2.619295-22.69922-1.779297-33.2832.841998-10.58298 2.316406-19.16992 2.316406-19.16992l17.740235 3.04101s-1.341282 7.85866-2.113282 17.55664c-.771998 9.7-.545277 21.50576 1.011719 26.46876 2.875994 9.16998 13.300692 24.35156 23.013672 36.18554 1.323374 1.60942 2.663684 3.20718 4.017578 4.79102 7.473986 4.12398 14.703155 8.94047 21.744141 14.48047 33.959931 26.72994 63.706251 69.26551 99.367191 130.90039 16.64996 6.50498 40.9761 9.85125 64.41406 10.40625-.96954-1.43181-1.83554-2.93128-2.5918-4.48633-4.57198-9.45798-4.28587-22.0706 3.70313-31.39258 7.56198-8.82598 17.96335-18.63544 30.61133-24.35742 5.53198-2.503 11.76936-4.0581 18.15234-4.1211.076-.00199.15056.00586.22656.00586l-18.23828-62.60546c-3.994-9.02-4.22117-18.42265-2.32617-26.89063 1.95-8.70198 5.86017-16.64503 10.03515-24.29101 8.34-15.26798 17.52341-29.61348 18.94141-42.43946 2.55-26.61994-12.78072-47.52676-24.2207-74.01172l-1.08008-2.5.49023-2.68359c7.444-40.79392 33.43306-74.835225 60.375-109.160157-49.5399-4.94999-111.12269 15.3527-158.05859 29.513672l-7.61133 2.296875-3.2168-7.269531c-4.08498-9.219982-8.41995-17.702249-13.00195-25.490235l-1.5332-5.380859c-.35164.142718-.7115.263878-1.0625.408203zm202.15625 29.962891c-4.41174-.0084-8.82273.161477-13.22071.509766-21.74997 28.593971-40.06252 56.130624-46.22851 85.808594.794 1.755 1.63414 3.51997 2.49414 5.29297 24.86497-33.37697 53.62029-65.992977 96.40625-87.626955-14.43799-2.721997-27.52923-3.960375-39.44922-3.984375zm-156.03125 130.76953h.00195l17.32227 4.88672c-2.18 7.72598.64003 20.58749 8.45703 32.10547 7.81598 11.51998 20.03591 21.36928 33.58789 24.86328l-4.49414 17.42773c-18.75496-4.83598-34.02326-17.49661-43.99024-32.18359-9.96498-14.68696-15.21976-31.72663-10.88476-47.09961zm97.4375 206.7461c6.19599 36.78596-13.18455 38.91894-33.76953 42.21093 8.92399 2.434 37.68141 6.20486 45.6914-6.95312 6.45172-10.59754-5.67764-27.31041-11.92187-35.25781z" fill="#fffdcc" stroke-width="36"/><path d="m500 276.42925c-32.76336 7.80304-75.25701 36.40635-73.23575 73.48019l-.28203.14101c-5.78177-15.7471-13.91385-22.75103-29.23789-29.70795-20.21269-8.77137-42.16462 0-73.80452-17.55684 21.0635 26.347 21.0635 61.50768 51.80559 70.29786 20.91778 6.95692 42.91671 2.86738 51.56587-3.52547 10.01232 34.22055 8.55513 68.11206-6.86292 102.2386-.61108-16.45219-5.2647-36.57087-11.70456-50.86077-2.63235 17.58035-.89312 43.90384-18.47345 61.48419.89311-8.79018-6.15783-26.32351-13.16176-35.11368 0 17.53333 1.73924 35.11368-9.68328 52.69401h113.33208c2.44432-8.22609 3.38445-16.45218 4.23056-17.48632-3.52547 2.20929-6.90992 5.21769-13.20876 6.39284 1.73923 0 1.08115-15.27703.18802-24.0672-7.00392 17.58035-17.53333 26.37052-28.95585 26.37052 12.26863-17.58035 10.52941-26.37052 8.79017-43.90385-6.11081 15.23003-11.56354 23.87918-25.00732 31.63521 17.72136-37.04093 19.69562-74.4579 9.0722-111.49883 11.79857 5.35871 25.10134 3.38444 40.04933-11.93959 17.39232-17.81537 4.41859-52.71752 24.58427-79.07393zm-15.51206 206.08482c.094 0 .14102-.047.18802-.094-.047 0-.094.047-.18802.094z" fill="#f2c80d"/><path d="m282.187 305.354c.112.25.215.503.333.753l-.49-1.293.158.54z" fill="#fffdcc"/></svg>