<svg height="500" viewBox="0 0 500 500" width="500" xmlns="http://www.w3.org/2000/svg" xmlns:xlink="http://www.w3.org/1999/xlink"><radialGradient id="a" cx="1362.7291" cy="216.11429" gradientTransform="matrix(1.0000001 -.0000059 .0000001 1.0000003 -112.72927 33.893757)" gradientUnits="userSpaceOnUse" r="250"><stop offset="0" stop-color="#ff851a"/><stop offset=".42441937" stop-color="#f87000"/><stop offset=".86367416" stop-color="#f26900"/><stop offset="1" stop-color="#e55f00"/></radialGradient><filter id="b" color-interpolation-filters="sRGB" height="1.006242" width="1.005776" x="-.002888" y="-.003121"><feGaussianBlur stdDeviation=".57222236"/></filter><filter id="c" color-interpolation-filters="sRGB" height="1.039012" width="1.036101" x="-.01805" y="-.019506"><feGaussianBlur stdDeviation="3.5763897"/></filter><g transform="translate(-1000)"><path d="m1500 250a250 250 0 0 1 -250 250 250 250 0 0 1 -250-250 250 250 0 0 1 250-250 250 250 0 0 1 250 250z" fill="url(#a)" stroke-linecap="round" stroke-linejoin="round" stroke-width="1.002"/><path d="m1309.2298 33.82789c128.5196 30.706851 207.8974 167.48127 169.5927 291.56949-31.3771 95.69524-112.8693 162.03793-212.5543 174.60263 153.1796-8.09118 266.0956-163.0043 218.7012-309.92978-36.4562-114.666588-154.6038-191.5214848-270.6514-169.822657-18.8526 4.215647-38.4387 10.498641-55.8829 18.694487-112.5353 47.459213-168.47522 196.206-99.9632 307.85319 57.6978 93.63045 168.5136 141.8489 267.9993 100.77239-134.92 68.97589-303.283-51.46877-311.488-201.30723-4.4167-117.68321 76.8182-219.674136 190.654-246.26040176-89.0147 9.18391126-152.6601 79.39239576-187.7408 157.21169176-38.45522 102.70317 5.2337 231.75078 109.038 294.08388 114.5107 66.1048 260.3537 29.37245 323.6836-83.60152 42.2104-77.69758 34.3514-177.62383-23.1776-249.88923-57.5404-72.257811-157.5429-102.460489-246.4118-71.877168-81.7429 30.682061-131.1298 101.133078-134.0478 190.176958.6692 92.68536 61.7912 168.55972 147.5399 198.52472 128.5549 37.82014 266.7725-70.33038 233.6823-209.88949-14.7104-64.39775-57.8855-122.14991-125.7378-141.121386-71.391-15.467036-138.9716 1.205-181.2869 64.641366-18.8995 29.2286-28.9384 85.21395-26.105 97.65297m0 0c13.5324-50.18833 30.6277-97.66354 72.2125-128.94941 53.182-38.308183 124.4576-37.093813 181.7444-.48035 50.1457 36.48017 75.4845 90.37713 72.3557 150.91678-6.6674 64.04407-38.4038 109.83277-91.6401 141.00844-63.9019 34.56125-135.3795 4.83213-189.1258-35.28385-78.8706-65.48566-79.7477-186.67235-8.9744-256.76104 63.7369-55.941605 167.0207-64.891564 238.7167-6.65053 78.8163 58.35315 90.3045 169.04089 40.972 246.62443-35.2274 56.41892-88.4571 87.60135-152.5581 93.63158-81.9488 2.18264-160.666-41.91503-196.8695-120.9383-36.2055-79.02511-22.5771-164.33167 26.8727-227.66064 49.4316-63.30896 138.3491-86.746364 220.4504-67.54202" fill="#c50"/></g><path d="m351.68044 35.25235c-30.699 30.3696-48.5163 22.8708-80.1846 4.3596 27.9468 25.0632 40.2327 36.6498 8.325 68.5116 29.313-23.5008 39.9798-26.298 76.8078-13.5-21.1707-23.2245-19.1907-33.192-4.95-59.373zm65.0125 333.37089c25.77328 31.9901 17.15342 43.99039 7.36331 70.24407 20.37913-14.67361 29.15845-15.55891 60.05188 11.44653-22.33867-31.01939-17.00865-49.74307-4.64468-80.86319-24.93464 16.73575-42.2269 13.28485-62.77051-.82741zm-359.560566-285.1468c38.842202-13.3758 47.201406-1.1925 68.569206 16.9326-6.8796-24.1515-4.7304-32.7096 31.1625-52.5942-36.76264 10.47506-52.56294-.89754-77.63367-23.09637 7.271887 29.1366-1.847136 44.2288-22.098036 58.75797zm-29.002838 363.44041c38.842202-13.3758 47.201402-1.1925 68.569202 16.9326-6.8796-24.1515-4.7304-32.7096 31.162502-52.5942-36.762647 10.47506-52.562937-.89754-77.633668-23.09637 7.271887 29.1366-1.847136 44.2288-22.098036 58.75797zm209.558704-39.6549c60.5925-32.1003 86.5863-30.843 117.873 6.4395-31.4145-47.8017-27.8577-67.788 12.6567-111.573-47.09327 32.92687-72.67471 22.7251-107.21395-10.0261 18.77139 48.98713 1.49009 92.01125-23.31575 115.1596zm-32.5395-323.3241c4.3785 32.8968-3.951 50.8428-21.5442 70.677 28.485-22.3767 35.973-20.349 64.0413-20.7-25.7256-12.105-32.589-18.3573-42.498-49.977zm-99.702 36.6174c-24.568202 54.162-52.700402 63.5958-96.8634041 63.1125 53.8020021 18.09 58.3974021 47.664 62.9154021 95.625 17.406-53.0613 32.571002-68.409 70.848002-52.3953-37.602-28.6542-41.1687-44.073-36.9-106.3413zm303.7194 98.2422c-6.8346 31.968-12.5127 40.0734-41.9895 58.779 32.2866-7.2936 46.1844-1.3617 67.0797 13.5288-20.2023-27.018-25.65-37.764-25.0875-72.3096zm-186.9174 161.9694c-27 38.799-49.8348 43.9785-88.7904 46.998 46.548 7.038 58.7718 12.7962 86.2875 36.9846-11.61-31.8537-13.8096-43.326 2.502-83.9817z" fill="#ffa348" filter="url(#b)" opacity=".75" stroke-width=".9"/><path d="m215.14453 134.51562c-1.53789 20.4597-9.97044 36.72987-20.62891 49.57618h-.002v.002c-12.72778 15.13981-31.31721 31.25316-53.26758 47.11523-42.620999 30.79455-97.621914 60.45528-146.9511681 83.08008l-26.6464289 124.35737c22.8722463-4.70317 77.844051-8.93231 99.439448-14.55664l.06445-.0176.06445-.0176c68.296919-18.33401 140.918179-45.56264 221.665739-100.28492s144.24399-139.16413 152.82841-257.785345c.4857-15.339085-.79802-30.617834-1.73975-45.913575l-33.16455 28.257325c-25.3693 21.307808-55.92186 41.854514-86.93555 57.330075-33.80868 16.74422-73.30391 26.7858-104.72656 28.85742z" fill="#994100"/><g fill="#ffa348"><path d="m62.550902 406.67065c67.058998-18.0018 138.035698-44.7354 199.124998-84.2625l14.9616-10.0683c81.369-57.1257 141.7734-138.0573 147.7395-255.123l.0009.0009c-27.5805 24.0507-61.659 47.1771-96.4692 64.5471 1.0368 55.3095-34.0218 106.038-89.2125 148.8654-59.9058 46.4886-144.195298 84.9978-236.8962 113.2866v37.098c22.534456-4.63373 39.278332-8.75187 60.750902-14.3442zm248.454898-276.9462c-27.7776 12.2463-55.4283 20.3382-80.0433 21.852-2.0502 14.868-10.4607 29.5803-22.671 44.1-14.1903 16.8795-33.8013 33.7167-56.502 50.121-44.1126 31.8726-99.865798 61.8624-149.9904 84.852v35.6625c89.397002-27.747 170.2296-65.2104 226.602-108.9576 50.1615-38.925 80.4258-81.8298 82.6038-127.6308z" stroke-width="36"/><path d="m351.68044 35.25235c-30.699 30.3696-48.5163 22.8708-80.1846 4.3596 27.9468 25.0632 40.2327 36.6498 8.325 68.5116 29.313-23.5008 39.9798-26.298 76.8078-13.5-21.1707-23.2245-19.1907-33.192-4.95-59.373zm65.0125 333.37089c25.77328 31.9901 17.15342 43.99039 7.36331 70.24407 20.37913-14.67361 29.15845-15.55891 60.05188 11.44653-22.33867-31.01939-17.00865-49.74307-4.64468-80.86319-24.93464 16.73575-42.2269 13.28485-62.77051-.82741zm-359.560566-285.1468c38.842202-13.3758 47.201406-1.1925 68.569206 16.9326-6.8796-24.1515-4.7304-32.7096 31.1625-52.5942-36.76264 10.47506-52.56294-.89754-77.63367-23.09637 7.271887 29.1366-1.847136 44.2288-22.098036 58.75797zm-29.002838 363.44041c38.842202-13.3758 47.201402-1.1925 68.569202 16.9326-6.8796-24.1515-4.7304-32.7096 31.162502-52.5942-36.762647 10.47506-52.562937-.89754-77.633668-23.09637 7.271887 29.1366-1.847136 44.2288-22.098036 58.75797zm209.558704-39.6549c60.5925-32.1003 86.5863-30.843 117.873 6.4395-31.4145-47.8017-27.8577-67.788 12.6567-111.573-47.09327 32.92687-72.67471 22.7251-107.21395-10.0261 18.77139 48.98713 1.49009 92.01125-23.31575 115.1596zm-32.5395-323.3241c4.3785 32.8968-3.951 50.8428-21.5442 70.677 28.485-22.3767 35.973-20.349 64.0413-20.7-25.7256-12.105-32.589-18.3573-42.498-49.977zm-99.702 36.6174c-24.568202 54.162-52.700402 63.5958-96.8634041 63.1125 53.8020021 18.09 58.3974021 47.664 62.9154021 95.625 17.406-53.0613 32.571002-68.409 70.848002-52.3953-37.602-28.6542-41.1687-44.073-36.9-106.3413zm303.7194 98.2422c-6.8346 31.968-12.5127 40.0734-41.9895 58.779 32.2866-7.2936 46.1844-1.3617 67.0797 13.5288-20.2023-27.018-25.65-37.764-25.0875-72.3096zm-186.9174 161.9694c-27 38.799-49.8348 43.9785-88.7904 46.998 46.548 7.038 58.7718 12.7962 86.2875 36.9846-11.61-31.8537-13.8096-43.326 2.502-83.9817z" filter="url(#c)" opacity=".75" stroke-width=".9"/></g></svg>