<svg height="500" viewBox="0 0 500 500" width="500" xmlns="http://www.w3.org/2000/svg" xmlns:xlink="http://www.w3.org/1999/xlink"><filter id="a" color-interpolation-filters="sRGB" height="1.118608" width="1.072219" x="-.036109" y="-.059304"><feGaussianBlur stdDeviation="5.7361584"/></filter><g transform="translate(0 -1000)"><path d="m0 1250a250 250 0 0 1 -250 250 250 250 0 0 1 -250-250 250 250 0 0 1 250-250 250 250 0 0 1 250 250z" fill="#9db3df" stroke-linecap="round" stroke-linejoin="round" stroke-width="9.39799" transform="scale(-1 1)"/><path d="m263.85417 1289.4759c11.1612 3.7204 14.8816-7.4408 18.46913-11.0283 7.04219-8.7696 15.28021-26.0428 14.48299-54.6102-10.49685-61.1209-92.21278-68.5617-125.69638-20.1965-11.1612 18.602-11.1612 33.4836-14.8816 52.0856 0 29.7632 14.8816 52.0856 40.9244 70.6876 11.1612 11.1612 26.0428 11.1612 37.204 14.8816 70.6876 11.1612 130.214-48.3652 119.0528-119.0528-7.4408-29.7632-22.3224-59.5264-48.3652-78.1284-44.6448-29.7632-96.7304-29.7632-137.6548-3.7204-18.602 11.1612-29.7632 22.3224-40.9244 40.9244-63.2468 100.4508 26.0428 219.3708 133.9344 208.2096 22.3224 0 40.9244-11.1612 63.2468-18.602 22.3224-14.8816 44.6448-37.204 59.5264-59.5264 40.92441-78.1284 7.4408-171.0056-66.9672-215.6504-26.0428-11.1612-52.0856-22.3224-81.8488-22.3224-37.204 0-70.6876 11.1612-100.4508 33.4836-33.4836 26.0428-52.0856 59.5264-66.9672 96.7304-7.4408 14.8816-3.7204 33.4836-7.4408 52.0856 0 119.0528 126.4936 215.6504 241.69313 174.726 29.7632-14.8816 63.2468-26.0428 89.2896-52.0856 22.3224-29.7632 44.6448-59.5264 52.0856-96.7304 3.7204-26.0428 7.4408-44.6448 3.7204-70.6876-18.602-152.5364-189.60753-234.25236-319.82153-156.2568-22.3224 14.8816-44.6448 29.7632-59.5264 52.0856-29.7632 37.204-44.6448 74.408-52.0856 119.0528-18.602 137.6548 96.7304 260.2951 230.53193 260.2951 29.7632 0 63.2468-11.1612 93.01-18.602 37.204-14.8816 70.6876-33.4836 96.7304-66.9672 18.602-26.0428 29.7632-52.0856 44.6448-81.8488 11.1612-33.4836 18.602-70.6876 14.8816-104.1712-7.4408-44.6448-18.602-85.5692-44.6448-119.0528 96.59753 111.7449 44.51193 297.7649-81.8488 364.7321-22.3224 14.8816-48.3652 18.602-70.6876 26.0428-89.2896 22.3224-178.44633-14.8816-234.25233-78.1284-14.8816-14.8816-18.602-33.4836-29.7632-52.0856-48.3652-70.6876-33.4836-152.5364 3.7204-226.8116 52.0856-89.2896 159.9772-130.21396 264.01553-100.4508 63.2468 18.602 115.3324 63.2468 141.3752 126.4936 7.4408 29.7632 14.8816 59.5264 14.8816 89.2896 0 37.204-11.1612 70.6876-29.7632 104.1712-14.8816 22.3224-26.0428 40.9244-48.3652 55.806-18.602 11.1612-33.4836 18.602-52.0856 29.7632-33.4836 11.1612-70.6876 18.602-111.612 14.8816-122.7732-18.602-200.76873-148.816-156.2568-267.7359 14.8816-29.7632 29.7632-59.5264 55.806-78.1284 55.806-40.9244 119.0528-52.0856 185.88713-29.7632 100.4508 40.9244 148.816 156.2568 89.2896 245.4135-11.1612 18.602-18.602 33.4836-33.4836 48.3652-55.806 40.9244-130.214 55.806-189.60753 18.602-14.8816-14.8816-33.4836-18.602-44.6448-37.204-44.6448-66.9672-44.6448-156.2568 18.602-211.9299 63.2468-55.806 174.72593-40.9244 215.65033 37.204 7.4408 22.3224 18.602 40.9244 14.8816 66.9672 0 22.3224-11.1612 40.9244-14.8816 59.5264-26.0428 55.806-96.7304 74.408-152.5364 55.806-18.602-11.1612-40.9244-18.602-52.0856-37.204-48.3652-70.6876-7.4408-178.4463 85.5692-174.7259 22.3224 0 44.6448 14.8816 63.2468 26.0428 29.7632 22.3224 33.4836 55.806 29.7632 89.2896-11.1612 48.3652-63.2468 70.6876-111.612 59.5264-22.3224-7.4408-37.204-29.7632-44.6448-52.0856-3.7204-26.0428 3.7204-48.3652 22.3224-66.9672 33.4836-33.4836 89.2896-7.4408 96.7304 37.204-3.7204 18.602-14.8816 37.204-29.7632 52.0856" fill="#c6d2ec" opacity=".9"/><path d="m262.92407 1285.7555c10.2311 3.4546 13.68576-6.7765 17.00754-10.0982 6.37783-7.8395 13.9515-23.6512 13.15428-49.9597-9.56675-56.2046-84.77198-62.9811-115.59815-18.602-10.2311 17.1404-10.2311 30.6933-13.68576 47.8337 0 27.3715 13.68576 47.8337 37.60262 64.9741 10.2311 10.2311 23.91686 10.2311 34.14796 13.6858 64.97413 10.2311 119.58428-44.3791 109.35318-109.3532-6.77644-27.3715-20.4622-54.743-44.37905-71.7506-41.05728-27.3715-88.89099-27.3715-126.49361-3.4546-17.14041 10.2311-27.37151 20.4622-37.60261 37.6026-58.06482 92.3456 23.91686 201.6988 123.03894 191.3349 20.4622 0 37.60262-10.2311 58.06482-17.1405 20.4622-13.6857 41.05727-34.1479 54.74303-54.743 37.60261-71.7506 6.77644-157.1869-61.51947-198.2442-23.91686-10.2311-47.83372-20.4622-75.20523-20.4622-34.14796 0-64.97413 10.2311-92.21278 30.8262-30.6933 23.9169-47.83371 54.743-61.51947 88.891-6.77644 13.6858-3.45466 30.6933-6.77644 47.8337 0 109.3532 116.2625 198.2442 222.16103 160.6416 27.37151-13.6858 58.06481-23.9169 81.98167-47.8337 20.4622-27.3716 41.05727-54.7431 47.83372-88.891 3.45465-23.9169 6.77644-41.0573 3.45465-64.9742-17.14041-140.0464-174.32731-215.25168-293.9116-143.5011-20.4622 13.6858-41.05727 27.3715-54.74303 47.8337-27.37151 34.148-41.05727 68.2959-47.83371 109.3532-17.14042 126.4936 88.89098 239.3014 211.92993 239.3014 27.37151 0 58.06481-10.2311 85.43633-17.1404 34.14795-13.6857 64.97413-30.8261 88.89098-61.5194 17.14042-23.9169 27.37152-47.8338 41.05728-75.2053 10.2311-30.6933 17.14041-64.9741 13.68575-95.6674-6.77644-41.0573-17.14041-78.6599-41.05727-109.3532 88.89099 102.5768 41.05727 273.4494-75.20523 334.9689-20.4622 13.6857-44.37906 17.1404-64.97413 23.9168-81.98167 20.4622-164.09621-13.6857-215.25171-71.7505-13.68576-13.6858-17.14042-30.6933-27.37152-47.8337-44.37906-64.9742-30.6933-140.1794 3.45466-208.4753 47.83371-81.9817 146.9558-119.5843 242.62323-92.2128 58.06481 17.1404 105.89853 58.0648 129.81539 116.2625 6.77644 27.3715 13.68575 54.743 13.68575 81.9817 0 34.1479-10.2311 64.9741-27.37151 95.6674-13.68576 20.4622-23.91686 37.6026-44.37906 51.2884-17.14041 10.2311-30.6933 17.1404-47.83371 27.3715-30.82617 10.2311-64.97413 17.1404-102.57675 13.6858-112.80784-17.1405-184.55841-136.7247-143.50114-246.0779 13.68576-27.3715 27.37151-54.7431 51.28837-71.7506 51.28837-37.6026 109.35319-47.8337 170.87266-27.3715 92.21277 37.6026 136.7247 143.5011 81.98167 225.6157-10.2311 17.1404-17.14041 30.6933-30.82617 44.379-51.28837 37.6026-119.58429 51.2884-174.32732 17.1404-13.68575-13.6857-30.82617-17.1404-41.05727-34.1479-41.05727-61.5195-41.05727-143.5012 17.14042-194.7895 58.19768-51.5541 160.77443-37.8684 198.37704 33.8822 6.77644 20.4622 17.14042 37.6026 13.68576 61.5195 0 20.4622-10.2311 37.6026-13.68576 54.743-23.91686 51.2884-88.89099 68.2959-140.17936 51.2884-17.14041-10.2311-37.60261-17.1405-47.83371-34.148-44.37906-64.9741-6.77644-164.0962 78.65988-160.6416 20.4622 0 41.05728 13.6858 58.06482 23.9169 27.37151 20.4622 30.6933 51.2884 27.37151 81.9817-10.2311 44.379-58.06481 64.9741-102.57674 54.743-20.4622-6.7764-34.14796-27.3715-41.05727-47.8337-3.45466-23.9169 3.45466-44.3791 20.4622-61.5195 30.6933-30.8262 81.98167-6.7764 88.89099 34.148-3.45466 17.1404-13.68576 34.1479-27.37152 47.8337" fill="#ecf0f9" opacity=".9"/><path d="m226.91591 1287.6157c5.31486 10.4968 15.8117 5.3148 20.86082 5.3148 10.62971-1.0629 28.56735-7.4408 48.23233-28.3016 35.87528-50.624-16.7418-113.7379-74.54088-103.2411-20.99368 5.3149-31.49052 15.8117-47.30222 26.3086-20.99369 20.9937-26.30855 47.3022-20.99369 78.9256 0 15.8117 10.49684 26.3085 15.8117 36.8054 42.12024 57.7991 126.22786 57.7991 168.3481 0 15.8117-26.3086 26.30854-57.7991 20.99369-89.4225-10.49685-52.6171-47.30223-89.4225-94.60446-99.9193-20.99369-5.3149-36.80539-5.3149-57.79907 0-115.73102 26.3085-136.7247 173.5301-52.61709 241.9589 15.8117 15.8117 36.80539 20.9937 57.79907 31.4905 26.30855 5.3149 57.79907 5.3149 84.10762 0 84.10761-26.3085 126.22786-115.731 105.23417-199.8386-10.49684-26.3086-20.99369-52.6171-42.12024-73.6108-26.30855-26.3085-57.79907-42.1202-94.60446-47.3022-42.12024-5.3149-78.92563 5.3148-115.73102 20.9937-15.8117 5.3148-26.30854 20.9936-42.12024 31.4905-84.10761 84.1076-63.11393 241.9589 47.30223 294.5759 31.49053 10.4969 63.11393 26.3086 99.91931 26.3086 36.80539-5.3149 73.61078-10.4969 105.23418-31.6234 20.99368-15.8117 36.80538-26.3086 52.61708-47.3022 94.60446-120.913 31.49053-299.758-115.73101-336.5634-26.30855-5.3148-52.61709-10.4968-78.92563-5.3148-47.30223 5.3148-84.10762 20.9937-120.913 47.3022-110.41616 84.1076-115.73102 252.4557-20.99369 347.0602 20.99369 20.9937 52.61709 36.8054 78.92563 52.6171 36.80539 15.8117 73.61077 26.3085 115.73102 20.9936 31.49053-5.3148 57.79907-15.8117 89.42247-26.3085 31.49053-15.8117 63.11393-36.8054 84.10761-63.1139 26.30855-36.8054 47.30223-73.6108 52.61709-115.731-10.76259 147.4872-179.11069 242.2246-315.83539 200.1043-26.30854-5.3148-47.30223-20.9937-68.42879-31.4905-78.92562-47.3022-115.73101-136.7247-110.41615-220.8323 0-20.9937 10.49684-36.8054 15.8117-57.7991 15.8117-84.1076 84.10761-131.5427 163.03324-157.7184 99.91932-26.30852 205.15349 20.9937 257.77058 115.731 31.49052 57.7991 36.80538 126.2279 10.49684 189.3418-15.8117 26.3086-31.49053 52.6171-52.61709 73.6108-26.30854 26.3085-57.79907 42.1202-94.60446 52.6171-26.30854 5.3148-47.30223 10.4968-73.61077 5.3148-20.99368-5.3148-36.80538-10.4968-57.79907-15.8117-31.49053-15.8117-63.11393-36.8053-89.42247-68.4287-73.61078-99.9194-36.80539-247.1409 78.92563-299.758 31.49053-10.4968 63.11393-20.9937 94.60445-15.8117 68.42879 10.4969 120.91301 47.3022 152.53641 110.4162 42.12024 99.9193-5.31486 215.6503-110.41616 236.644-20.99369 5.3148-36.80539 10.4968-57.79907 10.4968-68.42879-10.4968-131.54272-52.6171-147.22155-120.913 0-20.9937-10.49684-36.8054-5.31486-57.799 15.8117-78.9257 78.92563-142.0396 163.03325-136.7247 84.10761 5.3148 152.5364 94.6044 126.22786 178.8449-10.49685 20.9937-15.8117 42.1202-36.80539 57.7991-15.8117 15.8117-36.80538 20.9937-52.61708 31.4905-57.79908 20.9937-120.91301-15.8117-147.22155-68.4288-5.31486-20.9937-15.8117-42.1202-10.49684-63.1139 15.8117-84.1076 120.913-131.5427 184.02693-63.1139 15.67883 15.6788 20.86081 41.9873 26.17567 62.981 5.31486 36.8054-15.8117 63.1139-42.12024 84.1076-42.12025 26.3086-94.60446 5.3149-120.913-36.8054-10.49685-20.9936-5.31486-47.3022 5.31485-68.4287 15.8117-20.9937 36.80539-31.4906 63.11393-31.4906 23.98451 0 41.23931 14.86 48.993 34.3086 7.53814 18.9078 6.09609 42.1526-6.87275 60.2959-15.81171 10.4968-36.80539 15.8117-57.79908 15.8117" fill="#fff" opacity=".9"/></g><g opacity=".9"><path d="m250 0a250 250 0 0 0 -166.408203 63.755859c-26.182392 20.71228-46.997237 46.570561-59.072266 78.861331a250 250 0 0 0 -21.2656248 68.54687c-1.6214091 5.9669-2.74999995 12.10237-2.74999995 18.78516-.38435885 6.08249-.44785241 12.19601-.37890625 18.3164a250 250 0 0 0 -.125 1.73438 250 250 0 0 0 .34179688 4.78711c.21445687 6.18579.66341382 12.36857 1.32617192 18.54297a250 250 0 0 0 248.3320312 226.66992 250 250 0 0 0 250-250 250 250 0 0 0 -.21289-8.7168c1.44072-52.24444-13.79683-104.17407-49.7793-145.798825 12.59107 16.188485 21.65164 34.147955 28.54688 53.394535a250 250 0 0 0 -228.55469-148.87891z" fill="#7896d3"/><path d="m250 0a250 250 0 0 0 -70.86133 10.435547l.61914 11.822265 41.68946-2.160156 10.6914-14.0390622 16.56055 12.5996092 41.9043-2.25v-12.7714842a250 250 0 0 0 -40.60352-3.6367188zm53.43555 6.4609375-.6836 14.1777345 47.30469.636719a250 250 0 0 0 -46.62109-14.8144535zm-51.11914 17.9804685-3.59961 74.41211 113.07617 2.964844 2.69922-70.291016-91.42188-3.964844-4.10351-3.121094zm-23.12891 3.150391-87.57031 9.630859-5.84961 57.689453 99.6289 3.580079zm-103.77539 6.615234a250 250 0 0 0 -41.820313 29.548828c-11.687875 9.246006-22.227921 19.58278-31.476563 30.994141l67.541016-2.087891zm252.36914 1.564453-1.49805.076172 4.94922 62.09961 65.96094-.585938a250 250 0 0 0 -69.41211-61.589844zm72.22656 59.712891c.47067.605148.90241 1.229772 1.36328 1.839844l.14453-.001953c-.51281-.607596-.98629-1.234594-1.50781-1.837891zm-357.800779 12.388675-19.439453 39.41992 1.888672 37.79883 115.83008-1.70899-6.83985-71.73047zm-36.179687 1.25976-14.960938.70508c-6.558214 10.12087-12.146639 21.01229-16.546875 32.7793a250 250 0 0 0 -14.089843 37.72851l50.546874 2.67578zm354.005856 2.58594-1.89062 37.79883 19.43945 39.41992 67.19336-2.77734c-5.60079-26.01658-15.94051-51.0176-31.61133-73.65821l-1.72265-.02539c6.88074 11.49602 12.53805 23.63157 17.11328 36.40235a250 250 0 0 0 -20.3086-36.44922zm-121.67578.20313-79.24023 2.60937-6.75 68.2207 85.99023-4.67968zm107.9961 1.86523-92.83985 5.94141-7.20117 62.54882 95.08984 5.40039zm-322.867192 81.58789-67.4179686 3.70703a250 250 0 0 0 -2.8144532 12.08203c-1.6214091 5.9669-2.74999995 12.10237-2.74999995 18.78516-.38435885 6.08249-.44785241 12.19601-.37890625 18.3164a250 250 0 0 0 -.125 1.73438 250 250 0 0 0 .34179688 4.78711c.09125834 2.63226.38986446 5.25987.56445312 7.89062l78.791016-2.89062zm104.310552.25195-83.60938.47657 2.699219 64.76367 87.119141-.81055zm133.05664 6.89649-109.44922 1.25-3.3125 30.07031 1.91601 36.53906 41.68946-2.16015 10.6914-14.03907 16.56055 12.59961 41.9043-2.25zm15.29882.99023-3.15039 65.25 100.16993 1.34961 6.21093-64.43945zm171.8125 1.25781-56.70312.27149 8.01172 55.89062 49.65429 4.05664a250 250 0 0 0 1.07227-14.99023 250 250 0 0 0 -.21289-8.7168c.33732-12.23231-.2788-24.44216-1.82227-36.51172zm-225.39843 67.79493-3.59961 67.95117 113.07617 9.42578 2.69922-70.29102-91.42188-3.96484-4.10351-3.12109zm-23.12891 3.15039-87.57031 9.63086-5.84961 57.68945 99.6289-2.88086zm-219.419922.63086-3.601562 67.94922 113.490234-3.50977 6.30078-63.99023zm-27.4296874 2.42968a250 250 0 0 0 1.0019532 5.94336l-.5722657-5.94336zm490.6953094.33594-96.75 4.85938 4.94922 62.09961 79.08985-.70313a250 250 0 0 0 12.33789-38.90039zm-380.82617 76.88477-19.439452 39.41992 1.888672 37.79883 115.83008-1.70899-6.83985-71.73047zm-36.179686 1.25976-49.646485 2.3418a250 250 0 0 0 51.966797 71.4082l2.628906.13867zm354.005856 2.58594-1.89062 37.79883 8.79101 17.82617a250 250 0 0 0 36.60352-54.98242zm-121.67578.20313-79.24023 2.60937-6.75 68.2207 85.99023-4.67968zm107.9961 1.86523-92.83985 5.94141-7.20117 62.54882 95.08984 5.40039zm-131.22071 85.17187-55.23633.94727.00977.33203-22.1875.51367-2.36523 46.58203a250 250 0 0 0 44.39648 4.54102 250 250 0 0 0 86.83398-16.24414l3.26954-33.91211zm-187.365232.1211a250 250 0 0 0 86.771482 43.52148l-.58398-42.92968zm259.271482 1.10742 1.40235 26.45508a250 250 0 0 0 40.61523-25.04492z" fill="#fff" stroke-width="36"/></g><path d="m188.83984 133.93164c-13.33985.21087-26.32355 5.11115-37.20519 12.68258-10.13176 6.92047-18.69885 15.7852-28.22449 23.4639-.48171.36371-1.21765.94814-1.81281 1.37653-3.8595 2.85185-8.12183 5.08803-12.22768 7.55431-11.249245 6.55802-22.582135 13.10534-32.748235 21.29572-5.575094 4.45303-11.003332 9.13268-15.842138 14.38673-2.221229 3.0293-2.92216 7.23206-1.363076 10.71008 5.934484 18.93432 15.844652 36.41136 27.613861 52.30639 14.045258 19.06194 30.219468 36.41555 44.744238 55.09823 7.64804 9.52128 17.72384 16.9603 28.83276 21.96544 13.6483 6.19813 28.57027 8.98743 43.42408 10.29255 17.68985 1.51576 35.45837.8484 53.18758.88593 19.03049-.0338 38.22147-.65398 56.86656-4.79476 13.56036-3.02083 26.89402-8.15596 37.94953-16.72658 5.37225-4.13765 10.05389-9.10464 14.17642-14.47455 2.5221-3.24028 5.09064-6.29297 7.73199-9.46463 15.81357-18.85413 32.75347-36.91147 46.1979-57.61151 7.97105-12.24264 14.82016-25.31905 19.30878-39.25341 1.09224-3.97783-.19176-8.68086-3.62623-11.1262-13.59512-11.29357-28.74005-20.55462-44.29933-28.86679-7.21373-3.93246-14.56283-7.68869-21.49953-12.01318-5.98073-3.87548-11.01591-8.9794-16.18485-13.83742-6.52501-6.22313-13.48448-12.11762-21.45392-16.41856-9.70259-5.3687-20.93324-8.0042-32.01301-7.23353-8.52744.50632-16.7803 3.21062-24.40721 6.96015-7.53693 3.62694-14.53506 8.28623-22.15922 11.73734-1.52701.63506-3.05886 1.32883-4.67381 1.69313-1.58055-.0415-3.04941-.75339-4.54386-1.20222-1.07463-.4059-2.40203-.93114-3.54979-1.44779-10.64932-4.78663-20.57404-11.22388-31.75966-14.78014-6.59188-2.10972-13.5103-3.25943-20.43966-3.15774z" fill="#9db3df" filter="url(#a)"/><path d="m412.73266 207.1813c-41.18468 28.5001-106.13008 41.28964-163.20917 41.30754-58.38019.0184-124.14677-6.9905-161.564157-39.91408l-26.973282 22.99612c15.997744 27.90603 48.510699 56.41014 77.871729 94.08365 14.06054 18.04018 34.8599 25.09582 54.46872 28.08854 19.60881 2.99272 39.36488 2.26421 55.42012 2.23018 16.03432-.034 35.72731.21657 55.0278-2.99486 19.30041-3.21144 39.4994-9.92988 53.05598-27.32386 26.40256-33.87825 63.02073-65.82044 80.75805-93.40412z" fill="#7896d3" stroke-width=".999997"/><path d="m152.7808 314.3132c20.10533 25.79585 63.05006 23.53026 95.92842 23.46058 32.31746-.0685 75.49832.5327 94.19761-23.45983 27.84337-35.72696 65.31944-69.5328 79.80576-92.06078-46.08357 31.89018-113.66548 44.41566-173.18377 44.43432-59.50915.0187-129.34574-5.74583-173.183703-44.31888 12.790946 22.31219 45.965483 52.84789 76.435683 91.94459z" fill="#fff" stroke-width="36"/><path d="m189.25008 143.92724c-2.11702.0241-4.29212.18691-6.52709.51252-15.46133 2.25258-26.84467 10.80868-35.80847 18.49972-8.96379 7.69104-16.27897 14.92825-23.17875 19.17762-17.57899 10.82639-35.571743 18.93576-51.239623 22.48197l-59.291558 13.4204 56.994666 21.4291c14.81073 5.56883 41.539745 15.05347 69.432165 22.37225 25.07889 6.58053 50.02887 12.20165 72.09265 9.58717 6.20276 3.8112 11.12169 6.86981 16.23679 9.21221 6.58901 3.01733 14.29319 4.26715 21.56747 4.26715 7.12174 0 14.78458-1.21299 21.18457-4.19346 4.78161-2.22681 9.49943-5.10956 15.50003-8.70461 21.55845 4.72065 45.20304.0799 69.15984-6.33032 27.06904-7.2429 54.12464-17.95895 74.25662-26.63612l57.16603-24.63846-61.24885-10.09806c-18.96868-3.12729-40.40805-11.99496-59.3172-23.19425-7.56804-4.4823-13.83508-11.03317-21.8285-18.42604s-18.77228-16.12034-33.85275-18.23773c-17.21943-2.41772-30.46045 5.5099-40.28849 11.08542-9.82804 5.57553-17.03458 8.99702-20.97315 9.05174-4.97196.0691-13.0765-3.56999-23.84352-9.23349-9.42113-4.95556-21.37378-11.57316-36.19288-11.40473z" fill="#7896d3" stroke-width=".999997"/><path d="m76.345117 222.36861c28.856763 10.85013 105.354053 37.31384 139.070343 30.09978 19.65656 11.8197 21.83333 14.2191 34.11336 14.2191s13.15892-2.07683 34.11337-14.2191c33.20627 11.54204 99.69967-13.24585 139.0704-30.21522-21.98154-3.62401-45.04731-13.35517-65.40818-25.41425s-29.50397-31.61851-49.17892-34.381c-20.43214-2.8688-37.9746 20.01952-58.59667 20.30604-22.42885.31162-42.08768-23.54171-64.29422-20.30641-20.67573 3.01227-33.55252 23.69582-52.31229 35.24941-18.75976 11.55359-38.230341 20.5091-56.577193 24.66165z" fill="#fff" stroke-width="36"/></svg>