<svg height="500" viewBox="0 0 500 500" width="500" xmlns="http://www.w3.org/2000/svg" xmlns:xlink="http://www.w3.org/1999/xlink"><radialGradient id="a" cx="1362.7291" cy="216.11429" gradientTransform="matrix(1.0000001 -.0000059 .0000001 1.0000003 -112.72927 33.893757)" gradientUnits="userSpaceOnUse" r="250"><stop offset="0" stop-color="#ff851a"/><stop offset=".42441937" stop-color="#f87000"/><stop offset=".86367416" stop-color="#f26900"/><stop offset="1" stop-color="#e55f00"/></radialGradient><g transform="translate(-1000)"><path d="m1500 250a250 250 0 0 1 -250 250 250 250 0 0 1 -250-250 250 250 0 0 1 250-250 250 250 0 0 1 250 250z" fill="url(#a)" stroke-linecap="round" stroke-linejoin="round" stroke-width="1.002"/><path d="m1309.2298 33.82789c128.5196 30.706851 207.8974 167.48127 169.5927 291.56949-31.3771 95.69524-112.8693 162.03793-212.5543 174.60263 153.1796-8.09118 266.0956-163.0043 218.7012-309.92978-36.4562-114.666588-154.6038-191.5214848-270.6514-169.822657-18.8526 4.215647-38.4387 10.498641-55.8829 18.694487-112.5353 47.459213-168.47522 196.206-99.9632 307.85319 57.6978 93.63045 168.5136 141.8489 267.9993 100.77239-134.92 68.97589-303.283-51.46877-311.488-201.30723-4.4167-117.68321 76.8182-219.674136 190.654-246.26040176-89.0147 9.18391126-152.6601 79.39239576-187.7408 157.21169176-38.45522 102.70317 5.2337 231.75078 109.038 294.08388 114.5107 66.1048 260.3537 29.37245 323.6836-83.60152 42.2104-77.69758 34.3514-177.62383-23.1776-249.88923-57.5404-72.257811-157.5429-102.460489-246.4118-71.877168-81.7429 30.682061-131.1298 101.133078-134.0478 190.176958.6692 92.68536 61.7912 168.55972 147.5399 198.52472 128.5549 37.82014 266.7725-70.33038 233.6823-209.88949-14.7104-64.39775-57.8855-122.14991-125.7378-141.121386-71.391-15.467036-138.9716 1.205-181.2869 64.641366-18.8995 29.2286-28.9384 85.21395-26.105 97.65297m0 0c13.5324-50.18833 30.6277-97.66354 72.2125-128.94941 53.182-38.308183 124.4576-37.093813 181.7444-.48035 50.1457 36.48017 75.4845 90.37713 72.3557 150.91678-6.6674 64.04407-38.4038 109.83277-91.6401 141.00844-63.9019 34.56125-135.3795 4.83213-189.1258-35.28385-78.8706-65.48566-79.7477-186.67235-8.9744-256.76104 63.7369-55.941605 167.0207-64.891564 238.7167-6.65053 78.8163 58.35315 90.3045 169.04089 40.972 246.62443-35.2274 56.41892-88.4571 87.60135-152.5581 93.63158-81.9488 2.18264-160.666-41.91503-196.8695-120.9383-36.2055-79.02511-22.5771-164.33167 26.8727-227.66064 49.4316-63.30896 138.3491-86.746364 220.4504-67.54202" fill="#c50"/></g><path d="m-.00000027 173.91407 7.70104697 56.37618 16.6053573-.94898c36.639016-2.09286 64.447537-7.48421 104.168676-22.60457l.10568-.0403-2.62134 1.0344 14.62737 2.04562 58.34997 8.07371.003.00044 28.78828 3.96939 5.42444-12.56761c9.34022-21.64499 14.8048-45.35368 8.58538-69.87005-4.43528-17.58699-16.42077-30.39539-29.65396-40.385372l-.0302-.02117-.0286-.02096c-8.07723-6.046897-16.78779-11.2977-25.34628-16.244983l-.977-.564986-18.97916-7.997155 1.67324 2.164281-.12274-.152648c-27.21819-33.632874-52.32414-52.002039-79.880884-70.0464116l-9.334871-6.11289791-47.581233 27.90782251 19.089497 16.432964c18.198829 15.666755 36.0854 30.28856 51.509171 47.17243-7.726601-.315794-15.215338.769013-22.139031 3.669232-10.195647 4.112245-19.123477 12.698114-21.873691 23.758404-.395699 1.56344-.62847 2.95775-.769027 4.36609-1.028657 9.99978 2.885741 19.62542 9.119099 26.97153 3.244149 3.89722 7.151399 7.17231 11.478032 9.96554-19.687786 6.58617-39.166736 11.65101-58.347667 12.65129z" fill="#994100"/><path d="m201.39735 200.01633 15.2316 2.10032c8.49896-19.69546 12.61249-38.83079 7.66362-58.32151-3.07822-12.21974-11.46111-21.67893-23.05019-30.42775-7.07523-5.29677-15.23254-10.25191-23.5671-15.06979l-22.29242-9.393174-1.09769-1.418506c-25.88745-31.988009-48.62541-48.550492-75.748715-66.310995l-16.231435 9.51998c27.130117 23.355509 56.21427 45.921051 76.80852 79.951865.8433.90659 1.68659 1.81319 2.51988 2.79843 6.67628 7.80327 10.17199 17.99838 7.70139 27.99282-2.4706 9.99445-10.28272 17.39039-19.72844 21.30165-4.63424 1.88701-9.7287 2.99613-14.96891 3.36744-30.342638 11.79795-61.665098 23.07149-94.156958 24.76593l2.799703 20.49558c35.514352-2.02862 60.255455-6.78833 98.793025-21.45815l1.68245-.66473 19.30964 2.69979zm-126.201843-74.89641c-.456236 4.33727 1.150846 9.09723 4.982095 13.58114 4.362227 5.27081 11.537563 9.78117 20.369718 11.9453 8.83215 2.16412 17.30712 1.48567 23.63381-1.14471 6.22806-2.48312 10.11056-6.62363 11.29154-11.5079 1.17097-4.80563-.36961-10.27634-4.67324-15.37985-4.36223-5.2708-11.61618-9.79118-20.44833-11.95531-8.75354-2.1541-17.307127-1.48567-23.555203 1.15473-6.267365 2.47811-10.086975 6.62663-11.283671 11.50887-.1587.61911-.262369 1.24524-.316719 1.79773z" fill="#ffa348"/><path d="m183.20795 109.52979.99014 53.85283 21.38325-4.61012c18.99529-4.09548 37.54279-6.79114 55.45011-6.9141l.43561-.003c3.33843 5.91289 6.03112 11.28117 6.88969 16.45516l-.00022.002.002.002c.95043 5.72039.22402 12.39832-5.65255 21.70082l-4.64258 7.3516 2.86999 8.20811c1.5343 4.38824 5.66905 9.21951 8.15469 11.16198l.003.002.003.004c4.56501 3.56374 8.57918 4.96934 13.18562 6.27573 6.72724 1.90797 13.13611 2.71426 19.0874 3.78274l4.72402.8481 2.14622 1.40419c6.36937 4.16592 12.76587 9.07932 21.3427 12.77448 4.69019 2.02104 10.63891 4.06768 17.70939 3.84825.28758-.009.56978-.0819.85693-.0989 1.13851 5.28535 3.25377 10.33912 5.8734 13.58377 4.86167 6.02218 10.83419 9.3893 17.18598 11.80095l.002.00022c11.10258 4.21442 22.04173 4.79345 31.07987 4.68102l9.61327-.11935 5.24599-8.06036c14.68144-22.56068 27.91607-47.37134 32.76478-77.50061l.3437-2.14143-.17402-2.16055c-1.47861-18.42528-9.3296-32.29637-18.4224-38.7533-8.13049-5.77411-15.54049-7.29901-22.1917-9.34642l-2.48752-.76608c-5.5196-11.18805-11.01008-22.1451-22.05447-30.55503l-.002-.00022c-5.08394-3.87152-12.59666-7.624813-20.9908-8.184089-5.69547-.379474-11.32292.56576-17.05827 2.355019-6.54555-10.6113-15.3579-20.203069-27.77511-25.290052l-.002-.000223-.002-.000223c-12.38219-5.069735-27.86026-5.007143-44.71616.810233l-5.59984-2.314835c-16.92246-6.99564-32.2266-12.481407-49.17446-9.017116l-.002-.000222c-8.17584 1.671737-17.15058 6.798411-23.04431 13.954467-6.13038 7.442375-10.12457 16.887735-12.85898 28.831591z" fill="#994100"/><path d="m263.85352 130.25195c-23.3194-.17285-46.71448 3.51131-70.0625 8.89844l-1.88477.43359-1.74805.82618c-20.97766 9.89787-36.48861 27.66691-43.23437 50.43164-1.47823 4.98891-2.5783 10.22006-3.32617 15.68164-.0208.15177-.01691.32053-.03711.47265l-.01953-.00195-.00196.00391.02149.00195c-2.58012 19.40622-.87332 41.6865 4.89843 67.37695l1.35547 6.03711 70.78321 58.13672-9.06446 74.65039-.01172.11133c-.82633 7.59606-1.41471 11.22243-2.35937 15.93359l-7.07031-4.50195-2.21485-3.74414-.70117.16406-8.0664-13.63476-75.68165 17.6582-31.373042 11.51953a250 250 0 0 0 165.945312 63.29297 250 250 0 0 0 29.2207-2.08984c-4.29659.75527-8.58393 1.53913-12.95312 2.08984 54.74474-2.8917 104.28822-24.60237 143.26758-57.93359a250 250 0 0 0 9.10742-8.30274l-22.53125-5.42578-42.01172-17.37109-6.99414 6.61523-4.05274-7.98633 6.02149-44.50781c22.74562-6.58119 38.75998-23.02036 48.64648-40.63281 9.24226-16.46276 14.11242-34.20725 17.0625-48.97266l4.16602-20.84961-21.25195-.66797c-6.31526-.19832-13.27498-1.23273-18.77735-3.32031l-.0039-.00195c-3.89085-1.47832-6.4561-3.23543-7.98633-5.13086l-.00196-.00195v-.00196c-.94779-1.17336-1.79915-2.9841-1.96875-5.49414l-1.30859-19.36719-19.21289 2.76368c-3.39702.48868-6.92989-.10696-10.25781-1.54102-6.13167-2.64242-12.86668-7.65292-21.01563-12.89453l-3.11914-2.00781-3.6582-.60938c-.0356-.006.23433.05834.21289.05274-8.6862-1.93681-16.59124-2.65679-22.39063-4.30078h-.00195c-3.01327-.85477-4.70144-1.68753-5.74023-2.49805-.0836-.0653-.18446-.24623-.28711-.35352 6.86372-11.84136 9.30665-24.33084 7.61719-34.5039v-.00196c-1.7495-10.53348-6.38243-18.38752-10.48829-25.5l-5.15039-8.92383z" fill="#994100"/><path d="m324.85768 451.5827-9.648 9.126-27.081-.963-23.211-6.993-3.15-.954-3.258.423-31.68 4.131-4.401-2.808c7.299-34.092 5.4598-24.24063 6.98771-38.28564l9.76806-80.45955c.29412-2.42228-.66966-4.82696-2.55511-6.37518l-70.60808-57.99208c-5.48626-24.41969-6.85645-44.89218-4.58887-61.46962l-.00033.003c.63544-4.6405 1.55585-8.97777 2.7506-13.00997 5.53219-18.6693 16.46069-31.15367 33.65547-39.26667 22.51562-5.19507 44.56865-8.59502 65.88197-8.43704 3.89604 6.74901 7.27113 13.14074 8.31906 19.45018 1.14965 6.92256.0306 14.29532-6.24928 24.18966l-54.24524 13.98728c-7.51994 1.93628-6.96992 12.79699.70716 13.96356 34.49694 5.25479 51.75688 21.94171 61.49465 38.33042 4.86736 8.19377 7.73203 16.36095 9.45816 22.91582 1.72791 6.55349 2.11004 10.64354 2.80825 13.7757l13.92318-3.10428c-.10011-.44989-.96427-6.82862-2.93609-14.30905-1.97093-7.48112-5.25666-16.91587-10.99189-26.56999-8.47459-14.26184-22.62371-28.86382-44.87901-37.89584l24.39506-6.29023c1.47069 2.85657 3.53216 5.28333 5.86485 7.10452 3.63136 2.83454 7.74975 4.44768 11.90894 5.62728 8.3177 2.35831 17.21116 3.08056 24.10968 4.68187.006.002.0134.003.0194.004 7.19178 4.62594 14.7885 10.47664 23.62926 14.28653 5.94536 2.56195 12.82287 3.85131 19.94377 2.82693.40861 6.04737 2.56758 11.43627 5.9245 15.59203 4.15167 5.14249 9.76281 8.43464 15.60486 10.65337 8.12701 3.08443 16.91055 4.24341 24.60291 4.48498-2.72551 13.64131-7.30756 29.79203-15.10806 43.68665-9.40433 16.75348-22.82512 29.96963-43.94797 33.63753-3.06467.53159-5.43151 2.98847-5.84919 6.07167l-10.04262 74.23025c.621 8.577 1.93521 14.82703 2.67321 22.00003zm-123.06804-310.40935c19.75283-4.2588 39.50584-7.18218 59.11797-7.31684 5.85261-19.51076 2.95793-28.64715.99836-43.604611-15.5924-6.445791-29.32607-9.932832-38.69752-8.017208-5.05693 1.03399-9.03832 3.246314-12.7596 7.764593-3.63236 4.40976-6.89691 11.314986-9.20647 21.403066zm74.98712-47.00344c1.78316 12.37047 3.50449 24.65553-2.28332 44.02749 4.70899 7.94423 9.86613 16.61045 11.61758 27.16516 1.69767 10.2178-.35453 21.86467-8.19063 34.26911.43341 1.23957 1.09121 2.01545 2.24583 2.91776 1.46067 1.14029 3.87981 2.25724 7.02119 3.14813 4.75754 1.34933 10.9977 2.24182 17.35869 3.38386 13.30221-32.0859 23.09414-64.51193 28.206-97.43989-5.42191-9.37288-12.06533-16.417551-20.47401-19.862326-8.70734-3.565137-19.89322-3.826631-35.50044 2.390019zm41.30916 119.81475c6.7829 4.43639 12.94809 8.86761 18.61329 11.30836 7.19882 3.10203 12.64379 3.75816 20.719-1.46811 18.3024-22.14903 26.69802-49.11006 34.20428-77.507-5.46638-11.06955-11.1255-20.82585-17.59959-25.75514-6.67858-5.08641-14.03347-6.83058-28.14977-.62138-5.48936 31.91449-15.05344 63.22834-27.78711 94.04248zm47.04463 21.93116c.12218.63237.15819 1.2784.10706 1.92044-.33759 4.72319.76443 7.51361 2.78376 10.01412 2.01785 2.49953 5.32576 4.66792 9.57057 6.27959 7.31379 2.77624 16.94464 3.60522 24.47115 3.5116 14.08745-21.6479 25.79782-43.93988 30.07879-70.54124-1.25325-15.61707-5.42358-21.62343-10.90114-25.51312-4.251-3.01898-10.19749-4.70599-17.06741-6.82071-7.44074 27.60613-16.56168 55.45133-36.52593 79.13881-.41785.49563-.90129.93197-1.43697 1.29698-.35876.24518-.71869.48063-1.07938.70959z" fill="#ffa348" stroke-width="36"/></svg>