<svg height="500" viewBox="0 0 500 500" width="500" xmlns="http://www.w3.org/2000/svg" xmlns:xlink="http://www.w3.org/1999/xlink"><filter id="a" color-interpolation-filters="sRGB" height="1.031813" width="1.045663" x="-.022831" y="-.015906"><feGaussianBlur stdDeviation="2.9483707"/></filter><filter id="b" color-interpolation-filters="sRGB" height="1.00509" width="1.007306" x="-.003653" y="-.002545"><feGaussianBlur stdDeviation=".47173931"/></filter><g transform="translate(.000015)"><circle cx="-249.99998" cy="250" fill="#e51a1a" r="250" transform="scale(-1 1)"/><path d="m181.33938 83.856939c97.52275-31.84694 203.27597 26.159281 217.12696 131.568651 10.04116 85.89723-45.79566 162.6049-131.11288 174.6444-76.26503 6.65-147.16573-45.4981-149.44603-126.3231.16679-50.89801 30.03241-87.97493 76.60677-108.40662 44.00125-16.48183 90.46555-3.00917 112.28155 39.63622 17.95322 40.0953 3.57775 87.31302-40.4313 103.80676-21.98685 8.23292-51.6578-5.55285-56.72562-31.5612 24.48155 21.7253 69.7211 11.74379 80.1808-21.06198 5.24648-24.88185-11.48198-41.52298-24.36368-55.64156-23.21161-15.22125-63.26956-13.16738-85.32502 12.05139-41.51846 46.43224-18.48961 112.52397 35.72777 131.08081 60.66482 17.11352 118.96473-29.63961 126.96137-92.39988 2.7637-54.83226-40.99398-106.19486-96.51046-114.27807-76.21988-10.3001-138.45939 50.84936-147.743191 124.09106-9.31956 73.21828 47.315731 138.67973 111.863041 158.33924 49.05305 9.49897 98.18701 2.07129 139.64056-27.40671 82.90715-58.95602 100.11901-177.97214 43.55644-260.39974-52.71171-79.885311-158.575-103.987181-249.15842-67.061741-86.705021 39.45169-149.0660905 134.549061-117.102931 229.167621 15.77888-74.65377 50.93986-153.5943 123.407351-187.514491 9.28724-4.60517 19.44718-8.7232 30.56692-12.33106zm-160.722321 286.075591c-52.57825-113.8254-.38403-260.89182 113.777041-317.643861 10.84604-5.32012 22.21219-9.7712 34.03518-13.36069 115.76394-28.75816 246.03978 34.00351 263.68455 158.897471 10.04526 85.91695-27.72044 168.80365-107.97396 206.83173-102.24035 46.26108-224.798841-11.43986-234.690511-131.24969-7.33455-123.78718 127.307171-194.136761 222.718561-137.24102-42.54074-27.89653-94.21826-33.44528-140.80825-12.98978-71.17376 32.62266-105.080851 118.0397-80.762351 190.63139 30.697281 88.13423 123.572931 132.04164 212.817841 105.59803 82.80488-25.06359 132.16266-100.33164 140.19255-180.04986 12.12434-145.020371-132.23823-245.3588802-265.59709-221.973611 7.92036-4.10499 20.5989-8.4277792 35.61563-11.7452592 60.06317-13.23825 124.63426-3.45807 179.45368 32.4903392 109.65077 71.904621 141.09454 217.803071 65.16008 333.599141-143.00482 218.07486-377.311781 117.06797-437.622951-1.79433" fill="#b21a1a"/></g><g opacity=".75"><path d="m368.8125 59.189453c-18.73583 0-34.63119 13.46011-38.54883 31.117188-18.14763 4.590213-33.35742 16.827639-41.62305 33.234379 0 0-8.65971 16.58479-9.0957 25.64453-.43616 9.06342 6.59375 26.41211 6.59375 26.41211 1.15667 2.97501 2.56894 5.82446 4.16016 8.5664-2.47716-1.05192-4.99699-2.01484-7.58789-2.80468l-27.48242-8.37891 4.45117 28.38476c2.48039 15.8165 7.547 30.98185 17.46289 43.54688l1.83008 2.32031 2.47656 1.61133c7.3147 4.76369 12.32185 11.04636 14.46875 16.08203 2.1469 5.03569 1.65059 7.70191.69141 9.36328-1.39978 2.4226-6.59133 5.56305-17.56836 3.74414l-1.45118-.24023-1.4707-.00195c-6.99334-.008-13.68331.68048-20.05469 1.85546-8.20387-16.93606-25.29832-28.84179-45.00586-28.84179-27.52672 0-50.23046 22.70372-50.23047 50.23047 0 16.75081 8.43364 31.5923 21.20704 40.74609-4.40131 11.30711-6.83399 23.60142-6.83399 36.40039 0 12.905 2.45859 25.33202 6.94727 36.73047l4.81836 9.61523c-9.12375-9.84071-22.34451-15.99804-36.74024-15.99804-24.44989 0-45.06447 18.02962-49.24414 41.37695l.54688 5.73047c41.475 26.99535 92.64181 44.71202 145.91015 44.17969a250 249.99998 0 0 0 2.56055.18359 250 249.99998 0 0 0 8.79883-.62891c2.52516-.14858 5.04927-.30989 7.58008-.54297a250 249.99998 0 0 0 233.62109-248.82812 250 249.99998 0 0 0 -.28125-11.47266c.6076-43.46951-10.70727-85.95947-32.61328-123.03515l-68.80859-43.037112c-7.17057-8.064885-17.82978-13.265625-29.48438-13.265625z" fill="#861313" opacity="1"/><path d="m368.8125 77.189453c-11.87458 0-21.51367 9.641947-21.51367 21.515625 0 2.694602.49874 5.245262 1.40234 7.623042-.9234-.0558-1.84345-.0859-2.78125-.0859-18.02426 0-33.61628 10.33517-41.20508 25.39843 1.7163-.48598 3.52841-.75976 5.40039-.75976 10.91698 0 19.77344 8.8545 19.77344 19.77148 0 10.91428-8.85646 19.77149-19.77344 19.77149-2.53618 0-4.97083-.47931-7.19921-1.34961 6.30538 16.21796 21.51471 27.993 41.35742 29.24805 29.60679-.44685 22.93544 27.35125-6.25782 19.01367-2.25898-.2844-4.55602-.47852-6.89062-.47852-8.59498 0-16.72635 1.97225-23.99023 5.45703-5.949-12.26336-15.3979-19.38678-29.67188-23.73828 2.1627 13.79068 6.4751 25.89037 13.81055 35.18555 20.07851 13.07608 29.48551 34.69808 20.92383 49.52734-6.2154 10.76398-20.2541 15.12724-36.09766 12.50196-11.94298-.0135-22.88009 2.32695-32.79492 5.90625.0148-18.47248-14.43512-32.89258-32.2461-32.89258-17.81096 0-32.23047 14.41949-32.23047 32.23047 0 16.32596 12.13209 29.81367 27.87305 31.95117-8.53018 12.97798-13.5 28.50305-13.5 45.19531 0 10.62898 2.01613 20.79384 5.69531 30.13672 23.03996 21.38846-6.50898 55.54262-25.13086 28.44726-5.84098-6.29998-14.20338-10.23632-23.53906-10.23632-17.80196 0-32.0643 14.25872-32.0625 32.0625 0 .0893-1.12205 5.39209-1.30468 6.32812 38.46754 21.66616 83.70251 35.36496 130.58007 34.89649.8532.0656 1.70672.12678 2.56055.18359 2.93641-.15787 5.86981-.36754 8.79883-.62891 2.52516-.14858 5.04927-.30989 7.58008-.54297 131.18615-8.61285 233.28727-117.36001 233.62109-248.82815-.006-3.82587-.0997-7.6511-.28125-11.47266.76582-54.7895-17.35044-108.04435-51.85156-150.816402-.36563 4.014466-4.94621 10.552782-9.42115 13.927762-6.34085 4.78224-14.71989 7.94101-22.64424 7.41108-10.85019-.72559-21.8333-6.35378-29.37776-14.185393-3.11167-3.230099-5.39419-12.326667-5.39419-12.326667s-5.82827-5.348267-12.21735-5.348267z" fill="#ff8066" opacity="1"/></g><path d="m93.70523 9.909439c-4.533605.112163-9.860798 3.552221-11.057396 7.926499-3.264319 11.933017 4.948872 20.083772 14.957635 33.966796-38.856879 29.921493-68.572414 71.056986-84.529297 118.513676l266.462888 187.31836c-5.92064 2.11557-11.91872 6.09279-15.07226 11.51171-3.6903 6.34128-3.01734 16.80078-.0859 21.97852.2053.36262.41123.60579.61719.93945-3.43805 2.0722-6.6979 5.17857-8.69336 8.67578-7.0242 12.31055-2.2961 25.28345 2.58593 32.83985 4.88205 7.55639 10.80608 12.9165 16.9043 17.02539 15.8995 10.71284 33.47988 11.32945 48.20313 10.95703 14.72325-.37243 27.77708-1.53643 36.98828.16992 35.14377 6.51029 109.6289 29.22461 109.6289 29.22461l29.38473 9.04297-6.49609-30.04883s-14.12194-65.43766-19.6836-97.33203c-2.30901-13.24148.77012-34.88483 1.47657-56.89062.35322-11.00289.0531-22.34294-3.29883-33.70118-3.35197-11.35822-10.60284-22.9152-22.17188-30.34375-11.56569-7.4264-24.28211-5.99473-33.98437-2.64257-9.70225 3.35216-17.8641 8.77851-24.33985 16.07226-3.35085 3.77414-5.29517 7.84863-6.42187 11.79688-5.2882-3.4563-16.14708-4.86291-22.53125-1.44141-1.17448.62944-2.27284 1.48919-3.33008 2.4375l-184.43555-266.287109c-16.45694 5.18848-32.21841 11.940267-47.00976 20.246093-13.86734-6.013829-20.56227-22.2899382-34.06821-21.955795z" fill="#861313"/><path d="m157.19531 17.835938c-5.93465 2.374512-11.74536 4.980915-17.44531 7.787109l131.74414 193.468753-133.13159-144.839188s-19.17019-20.855814-28.75513-31.283862c-1.51694-1.650376-2.72936-6.257804-4.55078-4.951172-4.07923 2.92632 4.47534 9.015839 7.23767 13.207863 7.51292 11.401396 25.24357 32.259638 25.24357 32.259638l63.47774 88.856721-113.542964-112.201175-.037109-.044922c-9.080596 7.780635-17.540191 16.249603-25.421875 25.240235l.140625.142578 303.904293 290.923824-324.822262-263.08007c-.133078-.12488-.234457-.21344-.367187-.33789-8.262048 12.58498-15.373805 25.9816-21.28711 40.00976l.59375.31055 344.089839 241.88867s-28.08074-5.66374-42.12109-8.49609c-14.04034-2.83236-34.91684-20.87756-42.12109-8.49805-3.33324 5.7277 8.69629 10.00131 13.04492 15.00195 4.34864 5.00065 15.66531 8.9142 13.04687 15.00195-4.50536 10.47478-28.52677-8.4468-34.17773 1.45704-4.87389 8.54193 5.76002 20.5222 13.91602 26.01757 21.79886 14.68775 52.56646 3.5696 78.4121 8.35743 37.86655 7.01466 111.64454 29.71875 111.64454 29.71875s-14.09458-65.19642-19.82227-98.04297c-6.30155-36.13749 14.87904-89.06078-15.98828-108.88086-10.26541-6.59149-27.0391 1.10973-35.13867 10.23242-10.04453 11.31334 7.11905 40.66522-7.44141 44.77344-6.47794 1.82775-8.82292-10.1683-13.23437-15.25196-4.41145-5.08364-7.3018-18.42946-13.23438-15.25-8.93325 4.78764 5.39193 19.54038 8.08789 29.31055l8.08789 29.31055z" fill="#ff8066" stroke-width="36"/><g fill="#861313"><path d="m48.982422 396.01367c-15.735366.0664-28.109706 9.32127-37.138672 19.81836l-11.84375 13.76758 13.873047 11.7207c9.844402 8.31584 21.924205 14.82547 35.580078 13.05469s23.702093-10.67192 32.224609-21.49023l10.865235-13.79297-13.519532-11.20508c-8.810698-7.30117-19.298816-11.87305-29.964843-11.87305h-.03906z"/><path d="m107.2207 336.89258c-21.617357.002-39.513669 17.89843-39.513669 39.51562 0 21.61687 17.925722 39.48828 39.515629 39.48828 21.58974 0 39.48632-17.89945 39.48632-39.48828 0-21.58825-17.86944-39.51726-39.48828-39.51562z"/><path d="m87.451172 243.63281c-27.545494-.002-50.261719 22.71223-50.261719 50.25781 0 27.54498 22.731962 50.23243 50.259766 50.23243 9.137723 0 17.805321-2.47873 25.267581-6.81055 14.98969 7.28933 32.7632 9.35035 50.51367 4.10352l24.30664-7.18555-14.79297-20.58203c-9.52575-13.25286-21.8926-23.26242-35.9707-29.04297-4.41651-23.16576-24.95202-40.97081-49.322268-40.97266z"/><path d="m83.792969 106.24023c-21.619296-.00081-39.515625 17.89965-39.515625 39.51758 0 21.61901 17.926794 39.48633 39.515625 39.48633 21.588081 0 39.488281-17.89626 39.488281-39.48633 0-21.5899-17.87138-39.51676-39.488281-39.51758z"/><path d="m273.72461 154.41992c6.89544-10.25598 10.96484-22.72214 10.96484-35.97461 0-35.451003-29.12395-64.576076-64.57617-64.574216-35.45059.0019-64.57226 29.126699-64.57226 64.578126 0 7.16096 1.22753 14.07721 3.4082 20.57226-9.82941 9.20966-16.03516 22.21511-16.03516 36.60352 0 27.52497 22.68293 50.25977 50.22852 50.25977 21.47968 0 40.05028-13.64248 47.14844-32.86133l7.21484-19.53321z"/><path d="m310.48437 32.328125-.43554.02148c-20.91723 1.010097-38.09961 18.513793-38.09961 39.466797 0 21.617351 17.92663 39.488288 39.51562 39.488288 21.58809 0 39.48828-17.897177 39.48828-39.486335 0-21.58792-18.32594-39.485136-40.0332-39.488281z"/><path d="m15.853174 9.2448969-2.070312 17.4355471c-1.62299 13.670373-.824733 27.060532 7.576174 37.970703 8.4009 10.910172 21.54582 14.843263 34.38281 15.923829l18.09766 1.523437 1.36132-18.111328c.87302-11.611983-.31449-23.85388-7.55468-34.568359-7.2402-10.71448-20.31204-17.227013-34.3125-18.53711z"/></g><path d="m25.489439 427.56956c15.9687 13.4892 27.7452 12.3327 42.048001-5.823-6.498-5.3847-12.64315-7.7337-18.479251-7.7337-8.52885.036-16.37325 5.1912-23.56875 13.5567z" fill="#ff8066"/><path d="m85.70664 376.40906c0 11.8728 9.6408 21.4866 21.5154 21.4866 11.8737 0 21.4866-9.6138 21.4866-21.4875 0-11.8755-9.612-21.5172-21.4866-21.5163s-21.5154 9.6426-21.5154 21.5172z" fill="#ff8066"/><path d="m55.19034 293.88986c0 17.811 14.4477 32.2326 32.2596 32.2326 9.504 0 18.0603-4.0896 23.9625-10.6317 13.257 10.3356 28.5777 14.0247 46.7154 8.6634-10.3878-14.4522-23.3388-23.058-38.727-26.1.1773-1.368.2817-2.745.2817-4.1625 0-17.811-14.4198-32.2578-32.23215-32.25915-17.81145-.001-32.26005 14.44635-32.26005 32.25735z" fill="#ff8066"/><path d="m62.27694 145.75706c0 11.8746 9.6426 21.4875 21.5163 21.4875 11.8746 0 21.4884-9.612 21.4884-21.4875 0-11.8746-9.6138-21.5154-21.48885-21.51585-11.87415-.00045-21.51585 9.64215-21.51585 21.51585z" fill="#ff8066"/><path d="m173.54034 118.44836c0 10.0134 3.1446 19.2906 8.523 26.8866-12.3498 4.5207-21.15 16.3746-21.15 30.2895 0 17.811 14.418 32.2596 32.229 32.2596 13.8852 0 25.7175-8.7876 30.2634-21.096-14.1327-2.9916-24.75-15.525-24.75-30.5424 0-17.244 14.0022-31.2192 31.248-31.2192 13.041 0 24.2127 7.9956 28.8837 19.35 4.9824-7.4106 7.902-16.326 7.902-25.9308 0-25.7283-20.8458-46.575002-46.57455-46.573652-25.72785.0014-46.57455 20.848052-46.57455 46.576352z" fill="#ff8066"/><path d="m289.94994 71.816658c0 11.8755 9.6408 21.488402 21.5154 21.488402s21.4875-9.612002 21.4875-21.487502c0-11.8737-9.612-21.4866-22.03515-21.4884-11.90925.5751-20.96775 9.9837-20.96775 21.4875z" fill="#ff8066"/><path d="m57.250936 62.637668c1.3932-18.531-4.9104-31.8996-25.59375-33.83505-2.72475 22.95045 4.76595 32.08185 25.59375 33.83505z" fill="#ff8066"/><path d="m431.11362 435.43286c0 8.0397-6.5286 14.5692-14.5692 14.5692-8.0397 0-14.5683-6.5295-14.5683-14.5692s6.5286-14.5683 14.56875-14.56785 14.56875 6.52815 14.56875 14.56785zm-170.5186-279.51699c0 17.48062-13.98975 31.67762-31.21948 31.67762-17.2278 0-31.21755-14.197-31.21755-31.67762 0-17.4806 13.98975-31.67566 31.21852-31.67466 17.22876.00097 31.21851 14.19406 31.21851 31.67466zm194.47792-8.50101c-8.7855-.47152-17.8605-9.306-17.8605-19.4337 0-10.1268 9.20425-18.43574 17.8596-18.9 9.69047-.51978 19.97141 9.71917 20.03536 18.9.0648 9.30359-10.22798 19.96002-20.03446 19.4337zm-236.2797 317.4768c.75653-11.96217 13.2255-23.652 27.0846-23.652 13.86 0 25.45008 11.7778 27.0855 23.652 1.90796 13.85299-11.52862 24.74399-22.96308 25.61833-13.41931 1.02612-32.19529-9.9919-31.20702-25.61833zm193.3038-342.1143c6.4647 0 11.7 5.2353 11.7 11.7 0 6.4665-5.2353 11.7-11.7 11.7-6.4665 0-11.7-5.2335-11.7-11.7 0-6.4638 5.2335-11.7 11.7-11.7zm-13.5855 88.4268c0 8.0397-6.5286 14.5692-14.5692 14.5692-8.0397 0-14.5683-6.5295-14.5683-14.5692s6.5286-14.5683 14.56875-14.56785 14.56875 6.52815 14.56875 14.56785zm79.21345 214.27357c0 15.1218-12.2445 27.3942-27.3663 27.3942-15.12 0-27.3924-12.2724-27.3924-27.3942 0-15.12 12.2724-27.3654 27.3924-27.3654 15.1218 0 27.3663 12.2445 27.3663 27.3654zm-166.68085-77.78497c0 15.1218-12.2445 27.3942-27.3663 27.3942-15.12 0-27.3924-12.2724-27.3924-27.3942 0-15.12 12.2724-27.3654 27.3924-27.3654 15.1218 0 27.3663 12.2445 27.3663 27.3654zm.4212 58.8096c-18.4176 8.6625-29.205 4.59-38.0808-16.0875 4.5954-2.1087 8.8092-3.1842 13.16205-3.3597 11.43225.006 19.21905 7.6023 24.91875 19.4472zm-102.0642 20.06697c0 11.1088-9.32165 20.1309-20.80217 20.1309-11.47922 0-20.80087-9.0221-20.80087-20.1309 0-11.10882 9.32165-20.12966 20.80152-20.12904s20.80152 9.02022 20.80152 20.12904zm120.48723-275.91627c0 10.94431-9.32381 19.83281-20.80697 19.83281-11.48187 0-20.80568-8.8885-20.80568-19.83281s9.32381-19.83158 20.80632-19.83097c11.48252.00061 20.80633 8.88666 20.80633 19.83097zm121.15302-73.26957c0 17.474356-15.79121 31.66629-35.23959 31.66629-19.44622 0-35.23743-14.191934-35.23743-31.66629 0-17.474357 15.79121-31.664325 35.2385-31.663347 19.44731.000977 35.23852 14.18899 35.23852 31.663347zm-22.9102 276.52985c0 8.0397-6.5286 14.5692-14.5692 14.5692-8.0397 0-14.5683-6.5295-14.5683-14.5692s6.5286-14.5683 14.56875-14.56785 14.56875 6.52815 14.56875 14.56785z" fill="#861313" filter="url(#a)" opacity=".75"/><path d="m431.11362 435.43286c0 8.0397-6.5286 14.5692-14.5692 14.5692-8.0397 0-14.5683-6.5295-14.5683-14.5692s6.5286-14.5683 14.56875-14.56785 14.56875 6.52815 14.56875 14.56785zm-170.5186-279.51699c0 17.48062-13.98975 31.67762-31.21948 31.67762-17.2278 0-31.21755-14.197-31.21755-31.67762 0-17.4806 13.98975-31.67566 31.21852-31.67466 17.22876.00097 31.21851 14.19406 31.21851 31.67466zm194.47792-8.50101c-8.7855-.47152-17.8605-9.306-17.8605-19.4337 0-10.1268 9.20425-18.43574 17.8596-18.9 9.69047-.51978 19.97141 9.71917 20.03536 18.9.0648 9.30359-10.22798 19.96002-20.03446 19.4337zm-236.2797 317.4768c.75653-11.96217 13.2255-23.652 27.0846-23.652 13.86 0 25.45008 11.7778 27.0855 23.652 1.90796 13.85299-11.52862 24.74399-22.96308 25.61833-13.41931 1.02612-32.19529-9.9919-31.20702-25.61833zm193.3038-342.1143c6.4647 0 11.7 5.2353 11.7 11.7 0 6.4665-5.2353 11.7-11.7 11.7-6.4665 0-11.7-5.2335-11.7-11.7 0-6.4638 5.2335-11.7 11.7-11.7zm-13.5855 88.4268c0 8.0397-6.5286 14.5692-14.5692 14.5692-8.0397 0-14.5683-6.5295-14.5683-14.5692s6.5286-14.5683 14.56875-14.56785 14.56875 6.52815 14.56875 14.56785zm79.21345 214.27357c0 15.1218-12.2445 27.3942-27.3663 27.3942-15.12 0-27.3924-12.2724-27.3924-27.3942 0-15.12 12.2724-27.3654 27.3924-27.3654 15.1218 0 27.3663 12.2445 27.3663 27.3654zm-166.68085-77.78497c0 15.1218-12.2445 27.3942-27.3663 27.3942-15.12 0-27.3924-12.2724-27.3924-27.3942 0-15.12 12.2724-27.3654 27.3924-27.3654 15.1218 0 27.3663 12.2445 27.3663 27.3654zm.4212 58.8096c-18.4176 8.6625-29.205 4.59-38.0808-16.0875 4.5954-2.1087 8.8092-3.1842 13.16205-3.3597 11.43225.006 19.21905 7.6023 24.91875 19.4472zm-102.0642 20.06697c0 11.1088-9.32165 20.1309-20.80217 20.1309-11.47922 0-20.80087-9.0221-20.80087-20.1309 0-11.10882 9.32165-20.12966 20.80152-20.12904s20.80152 9.02022 20.80152 20.12904zm120.48723-275.91627c0 10.94431-9.32381 19.83281-20.80697 19.83281-11.48187 0-20.80568-8.8885-20.80568-19.83281s9.32381-19.83158 20.80632-19.83097c11.48252.00061 20.80633 8.88666 20.80633 19.83097zm121.15302-73.26957c0 17.474356-15.79121 31.66629-35.23959 31.66629-19.44622 0-35.23743-14.191934-35.23743-31.66629 0-17.474357 15.79121-31.664325 35.2385-31.663347 19.44731.000977 35.23852 14.18899 35.23852 31.663347zm-22.9102 276.52985c0 8.0397-6.5286 14.5692-14.5692 14.5692-8.0397 0-14.5683-6.5295-14.5683-14.5692s6.5286-14.5683 14.56875-14.56785 14.56875 6.52815 14.56875 14.56785z" fill="#861313" filter="url(#b)" opacity=".5"/></svg>