<svg height="500.0004" viewBox="0 0 500 500.0004" width="500" xmlns="http://www.w3.org/2000/svg" xmlns:xlink="http://www.w3.org/1999/xlink"><filter id="a" color-interpolation-filters="sRGB" height="1.090076" width="1.038557" x="-.019279" y="-.045038"><feGaussianBlur stdDeviation="3.4340659"/></filter><g transform="translate(-500 -500)"><path d="m999.99997 750a249.99997 250 0 0 1 -249.99997 250 249.99997 250 0 0 1 -249.99997-250 249.99997 250 0 0 1 249.99997-250 249.99997 250 0 0 1 249.99997 250z" fill="#ffe24c"/><path d="m1000 750.00632-194.05817-2.60063 192.98367-20.4591-193.45987 15.31075 190.28547-38.19139-191.22567 33.10816 185.92267-55.58184-187.34707 50.61663 180.01317-72.50831-181.88127 67.68555 172.56127-88.82024-174.86477 84.18876 163.62798-104.35075-166.35478 99.94311 153.30278-119.00625-156.40808 114.88758 141.65488-132.65651-145.14668 128.82271 128.82258-145.14278-132.65648 141.65492 114.88758-156.42029-119.00218 153.31093 99.94719-166.3385-104.34669 163.60764 84.17649-174.84041-88.81609 172.54909 67.67739-181.89345-72.48799 180.02133 50.6167-187.35925-55.5941 185.94294 33.1-191.23373-38.1995 190.27732 15.3474-193.45586-20.4957 192.97968-2.59249-194.05413-2.5681 194.05413-20.4916-192.97968 15.327 193.45586-38.2004-190.27732 33.1171 191.23373-55.5936-185.94294 50.6162 187.35925-72.51029-180.02133 67.69979 181.89345-88.81699-172.54909 84.17729 174.84041-104.36289-163.60764 99.96869 166.3385-119.00618-153.31093 114.86968 156.42029-132.64018-141.65492 128.81968 145.14278-145.14988-128.82271 141.67318 132.65651-156.42638-114.88758 153.29788 119.00625-166.34218-99.94311 163.62828 104.35075-174.86477-84.18876 172.54667 88.82024-181.87387-67.68555 180.00617 72.50831-187.35587-50.61663 185.94077 55.58184-191.21897-33.10816 190.28097 38.19139-193.47947-15.31075 192.98647 20.4591-194.04384 2.60063 194.04384 2.58435-192.98647 20.46723 193.47947-15.31481-190.28097 38.20361 191.21897-33.12445-185.94077 55.58997 187.35587-50.60849-180.00617 72.5083 181.87387-67.68553-172.54667 88.81211 174.86477-84.17656-163.62828 104.33851 166.34218-99.95936-153.29788 119.0103 156.42638-114.87941-141.67318 132.66054 145.14988-128.83082-128.81968 145.13868 132.64018-141.66304-114.86968 156.42028 119.00618-153.28243-99.96869 166.32222 104.36289-163.59543-84.17729 174.84852 88.81699-172.55719-67.69979 181.8975 72.51029-180.02538-50.6162 187.35108 55.5936-185.93884-33.1171 191.21336 38.2004-190.26101-15.327 193.47618 20.4916-192.99594 2.5681 194.05003 2.59249-194.05003 20.4957 192.99594-15.3474-193.47618 38.1995 190.26101-33.1-191.21336 55.5941 185.93884-50.6167-187.35108 72.48799 180.02538-67.67739-181.8975 88.81609 172.55719-84.17649-174.84852 104.34669 163.59543-99.94719-166.32222 119.00218 153.28243-114.88758-156.42028 132.65648 141.66304-128.82258-145.13868 145.14668 128.83082-141.65488-132.66054 156.40808 114.87941-153.30278-119.0103 166.35478 99.95936-163.62798-104.33851 174.86477 84.17656-172.56127-88.81211 181.88127 67.68553-180.01317-72.5083 187.34707 50.60849-185.92267-55.58997 191.22567 33.12445-190.28547-38.20361 193.45987 15.31481-192.98367-20.46723z" fill="#fffbb3" fill-rule="evenodd"/></g><path d="m314.13305 254.37915c50.60003 15.40709 101.20006 30.81419 151.80008 46.22128-32.87151-30.7209-65.74302-61.44179-98.61453-92.16269 47.81005-4.19435 90.82768-10.32899 132.6814-32.50402-40.56679-26.41038-85.30933-25.47489-132.67969-32.50208 33.02482-30.86704 66.04964-61.73409 99.07446-92.601136-45.19461 14.045446-90.46473 27.84327-135.73852 41.630433-20.91349-20.188975-49.42978-32.667968-80.65625-32.667968-31.22516 0-59.74621 12.476663-80.6582 32.667968-45.09401-13.731412-90.188018-27.462823-135.282027-41.194234 32.873955 30.721646 65.747911 61.443287 98.621867 92.164937-47.810742 4.1932-90.827916 10.32698-132.68164 32.50293 40.567083 26.41153 85.310535 25.47677 132.68164 32.50488-32.875842 30.72342-65.751686 61.44683-98.627529 92.17025 50.603707-15.41026 101.207409-30.82053 151.811119-46.23079 0 0 41.84864-18.88867 64.13477-18.88855 22.28561.00012 64.13305 18.88879 64.13305 18.88879z" fill="#f2c80d" opacity=".5"/><path d="m325.9654 239.166c23.86762 6.51722 71.0055 21.6207 71.0055 21.6207l-54.7533-51.1713c1.9197-5.2416 3.4056-10.692 4.4118-16.3044l117.1233-17.3772-117.1323-17.3763c-1.008-5.6088-2.493-11.0547-4.4154-16.2927l54.765-51.183004-71.775 21.857404c-18.0279-21.468604-45.0459-35.146804-75.1959-35.146804s-57.1725 13.6773-75.195 35.147704l-71.775-21.856504 54.765 51.180304c-1.9206 5.238-3.4065 10.6848-4.4145 16.2945l-117.1323 17.3763 117.1233 17.3772c1.0062 5.6142 2.4912 11.0637 4.4118 16.3062l-54.7533 51.1695s47.13959-15.10499 71.0082-21.6225c25.13276-6.8627 49.91117-18.39129 75.96405-18.39115 26.05295.00015 50.83121 11.52935 75.96405 18.39205z" fill="#fffdcc" filter="url(#a)" opacity=".75" stroke-width="36"/><path d="m208.95898 120.99414c-9.94672 11.92133-16.13263 27.31912-18.13476 44.32813l-.29107 20.5039c.89331 10.12361 3.28087 19.71489 7.01172 28.41602-7.80365 4.33927-14.5318 10.34309-19.76758 17.27929-8.96972 11.88098-14.67306 26.37935-18.69336 42.33204-7.33049 29.08607-8.624 62.39708-8.84375 91.86132l-.13476 18.13477h37.3125l9.28911 134.15039h106.58594l9.28906-134.15039h37.31445l-.13476-18.13477c-.21975-29.46462-1.51445-62.77602-8.84375-91.86232-4.02159-15.95387-9.72721-30.45134-18.69436-42.33208-5.23703-6.9359-11.96528-12.93714-19.76858-17.27639 3.73144-8.70174 6.11834-18.29503 7.01172-28.41992l-.28902-20.5c-2.0021-17.00938-8.19035-32.40866-18.13671-44.33008-9.94637-11.92141-24.52809-20.53711-41.03907-20.53707-16.51134.00005-31.09624 8.61583-41.04297 20.53716z" fill="#f2c80d"/><path d="m250.0011 118.4562c-20.79 0-38.0313 21.1932-41.301 48.9708h32.8896v16.8174h-33.1254c1.5282 17.3187 8.4627 32.2902 18.3672 41.5197h-9.2862c-10.7523 2.1528-18.7083 7.7355-25.4007 16.6014-6.804 9.0117-11.9736 21.474-15.606 35.8875-6.6285 26.3007-8.082 58.635-8.298 87.597h35.9748l9.288 134.1504h72.9927l9.2898-134.1513h35.9757c-.216-28.962-1.6704-61.2963-8.298-87.597-3.6333-14.4126-8.8038-26.874-15.606-35.8866-6.6933-8.865-14.6502-14.4486-25.4034-16.6023h-9.2844c9.9045-9.2304 16.839-24.201 18.3672-41.5206h-33.129v-16.8147h32.8923c-3.2697-27.7785-20.511-48.9717-41.2992-48.9717z" fill="#fffdcc" stroke-width="36"/></svg>