<svg height="500" viewBox="0 0 500 500" width="500" xmlns="http://www.w3.org/2000/svg" xmlns:xlink="http://www.w3.org/1999/xlink"><filter id="a" color-interpolation-filters="sRGB" height="1.188532" width="1.188135" x="-.094067" y="-.094266"><feGaussianBlur stdDeviation="5.3731164"/></filter><filter id="b" color-interpolation-filters="sRGB" height="1.45221" width="1.455878" x="-.227939" y="-.226105"><feGaussianBlur stdDeviation="5.3731164"/></filter><filter id="c" color-interpolation-filters="sRGB" height="1.392107" width="1.389585" x="-.194792" y="-.196053"><feGaussianBlur stdDeviation="5.3731164"/></filter><filter id="d" color-interpolation-filters="sRGB" height="1.392107" width="1.389584" x="-.194792" y="-.196053"><feGaussianBlur stdDeviation="5.3731164"/></filter><filter id="e" color-interpolation-filters="sRGB" height="1.196479" width="1.196024" x="-.098012" y="-.09824"><feGaussianBlur stdDeviation="5.3731164"/></filter><filter id="f" color-interpolation-filters="sRGB" height="1.13152" width="1.131263" x="-.065632" y="-.06576"><feGaussianBlur stdDeviation="5.3731164"/></filter><filter id="g" color-interpolation-filters="sRGB" height="1.332435" width="1.330389" x="-.165194" y="-.166217"><feGaussianBlur stdDeviation="5.3731164"/></filter><filter id="h" color-interpolation-filters="sRGB" height="1.488494" width="1.485995" x="-.242998" y="-.244247"><feGaussianBlur stdDeviation="5.3731164"/></filter><filter id="i" color-interpolation-filters="sRGB" height="1.320183" width="1.318622" x="-.159311" y="-.160091"><feGaussianBlur stdDeviation="5.3731164"/></filter><filter id="j" color-interpolation-filters="sRGB" height="1.148197" width="1.147824" x="-.073912" y="-.074099"><feGaussianBlur stdDeviation="5.3731164"/></filter><filter id="k" color-interpolation-filters="sRGB" height="1.334024" width="1.333341" x="-.166671" y="-.167012"><feGaussianBlur stdDeviation="5.3731164"/></filter><filter id="l" color-interpolation-filters="sRGB" height="1.392235" width="1.389619" x="-.19481" y="-.196117"><feGaussianBlur stdDeviation="5.3731164"/></filter><g transform="translate(.000015)"><circle cx="-249.99998" cy="250" fill="#e51a1a" r="250" transform="scale(-1 1)"/><path d="m181.33938 83.856939c97.52275-31.84694 203.27597 26.159281 217.12696 131.568651 10.04116 85.89723-45.79566 162.6049-131.11288 174.6444-76.26503 6.65-147.16573-45.4981-149.44603-126.3231.16679-50.89801 30.03241-87.97493 76.60677-108.40662 44.00125-16.48183 90.46555-3.00917 112.28155 39.63622 17.95322 40.0953 3.57775 87.31302-40.4313 103.80676-21.98685 8.23292-51.6578-5.55285-56.72562-31.5612 24.48155 21.7253 69.7211 11.74379 80.1808-21.06198 5.24648-24.88185-11.48198-41.52298-24.36368-55.64156-23.21161-15.22125-63.26956-13.16738-85.32502 12.05139-41.51846 46.43224-18.48961 112.52397 35.72777 131.08081 60.66482 17.11352 118.96473-29.63961 126.96137-92.39988 2.7637-54.83226-40.99398-106.19486-96.51046-114.27807-76.21988-10.3001-138.45939 50.84936-147.743191 124.09106-9.31956 73.21828 47.315731 138.67973 111.863041 158.33924 49.05305 9.49897 98.18701 2.07129 139.64056-27.40671 82.90715-58.95602 100.11901-177.97214 43.55644-260.39974-52.71171-79.885311-158.575-103.987181-249.15842-67.061741-86.705021 39.45169-149.0660905 134.549061-117.102931 229.167621 15.77888-74.65377 50.93986-153.5943 123.407351-187.514491 9.28724-4.60517 19.44718-8.7232 30.56692-12.33106zm-160.722321 286.075591c-52.57825-113.8254-.38403-260.89182 113.777041-317.643861 10.84604-5.32012 22.21219-9.7712 34.03518-13.36069 115.76394-28.75816 246.03978 34.00351 263.68455 158.897471 10.04526 85.91695-27.72044 168.80365-107.97396 206.83173-102.24035 46.26108-224.798841-11.43986-234.690511-131.24969-7.33455-123.78718 127.307171-194.136761 222.718561-137.24102-42.54074-27.89653-94.21826-33.44528-140.80825-12.98978-71.17376 32.62266-105.080851 118.0397-80.762351 190.63139 30.697281 88.13423 123.572931 132.04164 212.817841 105.59803 82.80488-25.06359 132.16266-100.33164 140.19255-180.04986 12.12434-145.020371-132.23823-245.3588802-265.59709-221.973611 7.92036-4.10499 20.5989-8.4277792 35.61563-11.7452592 60.06317-13.23825 124.63426-3.45807 179.45368 32.4903392 109.65077 71.904621 141.09454 217.803071 65.16008 333.599141-143.00482 218.07486-377.311781 117.06797-437.622951-1.79433" fill="#b21a1a"/></g><g><path d="m252.82617 55.455078c-57.34904.0011-103.21875 50.217092-103.21875 110.841792 0 11.0947 1.56799 21.82697 4.42969 31.98047l-2.68164 1.8086c-72.371545 48.81629-107.219199 122.75554-112.710939 214.2207l-.02734.44531-.0039.44532c-.24105 23.05112 18.360308 42.99953 40.519531 43.14843h.05469l46.253908.0234.44531 2.29883 11.08983 57.33207h228.43164l10.63282-59.62695 44.76953-.0234.0547-.002c22.161-.14734 40.85486-20.4121 40.33594-43.71289l-.01-.35743-.0215-.35742c-5.571-89.6803-38.5513-162.26178-107.88867-210.9414l-2.55078-1.79102c3.41979-11.00849 5.34375-22.72057 5.34375-34.89063 0-60.63192-45.89653-110.842895-103.24805-110.841792z" fill="#861313"/><path d="m167.6077 166.2971c0 51.7095 38.4138 92.8395 85.2183 92.8395 46.8063 0 85.248-41.13 85.248-92.8404 0-51.7113-38.4417-92.841297-85.24845-92.840397-46.80405.0009-85.21785 41.130897-85.21785 92.841297zm32.3154 34.5924c11.9484 3.303 23.7546 5.4414 35.4375 6.498v16.875c-13.2066-1.089-26.5176-3.465-39.9375-7.173zm105.6375 0 4.4154 16.227c-13.0068 3.5442-26.172 5.9247-39.4866 7.0605v-16.8462c11.7765-1.1007 23.4495-3.2742 35.073-6.4404zm137.6442 214.14625c-5.3469-86.07285-35.4573-151.82415-100.2663-197.32455-17.1234 34.5195-50.9328 58.248-90.1125 58.248-40.1958 0-74.7423-24.966-91.404-60.948l-.0009-.002c-67.7772 45.7173-99.5436 112.6872-104.8086 200.376-.1548 14.8032 9.9162 24.876 22.6404 24.9615l161.7894.0835v-111.065c-23.022 4.338-40.698 25.641-40.698 56.3346v8.4096h-90.3348v-16.8192h11.4462c3.2976-31.6602 23.8698-70.1982 40.8087-91.2096l13.077 10.548c-14.0562 17.4357-32.9427 55.4976-36.8145 80.6616h45.423c3.636-37.872 31.6512-65.5875 65.898-65.5875 31.482 0 61.7877 26.0622 66.5145 65.5884h50.175c-4.8708-25.4745-23.877-63.288-37.8846-80.6625l13.1076-10.5453c16.9965 21.0816 37.4787 59.8365 41.9058 91.2087h9.5067v16.8192h-92.8161l-.225-8.1846c-.918-32.0904-21.213-52.4106-42.273-56.5875v111.0942l162.8874-.0846c12.7251-.0846 22.7961-10.1583 22.4586-25.31295zm-299.6451 42.21425 8.2692 42.75h198.5058l7.623-42.75z" fill="#ff8066" stroke-width="36"/></g><g opacity=".9" transform="matrix(.8966005 .44284031 -.44284031 .8966005 286.145034 -89.445712)"><path d="m260.0078 431.15528c-.7879 5.37229-2.17117 10.75235-4.91211 15.48242-.17485.30566-.56329.93944-.84913 1.35411-2.79368 4.29725-7.16114 7.5305-12.11043 8.88438-2.84302.84476-5.82969 1.05999-8.77135 1.12323-1.55129.55325-3.10257 1.10651-4.65386 1.65976 1.53315.75631 3.03956 1.59716 4.58923 2.30124 1.72035.24133 3.50959.50205 5.1178.75541 1.14624.18947 2.12929.36312 3.30102.61113 4.73905.97388 9.63737 2.68933 12.91142 6.43269 3.50544 3.96292 4.7469 9.35115 5.18014 14.49329.0319.40474.0788 1.05928.0997 1.56792.0493.80125.0634 1.7532.0741 2.67231.67969 1.33594 1.35937 2.67187 2.03906 4.00781.63875-1.38561 1.39527-2.74459 1.9603-4.14687-.0636-5.8055.74159-11.91251 4.01289-16.85291 2.74724-4.22695 7.34311-6.91717 12.14497-8.17054 3.39225-.91714 6.90967-1.2777 10.41504-1.36679 1.44987-.65429 2.89974-1.30859 4.34961-1.96289-1.47591-.66685-2.92664-1.43391-4.41822-2.03845-5.91789-.28422-12.06004-1.20008-17.17162-4.39319-3.95496-2.43272-6.74864-6.47153-8.01827-10.90263-1.1106-3.64648-1.34068-7.49489-1.34589-11.27605-.5251-1.54786-1.0502-3.09572-1.57529-4.64358-.78972 1.4694-1.57943 2.9388-2.36914 4.4082z" fill="#e51a1a" filter="url(#l)"/><path d="m261.98342 431.46606c-2.7 18.8-12 28.6-28.5 28.5 14.1 2 28.4 3.6 28.5 28.5-.3-20.5 10.9-28.1 28.5-28.5-16.9-.7-28.9-7.3-28.5-28.5z" fill="#ff8066"/></g><g opacity=".9" transform="translate(-30.22743 18.277051)"><path d="m256.41795 346.50294c-2.47848 2.34517-5.19074 4.67341-7.99023 6.76757-.87449.64873-1.9736 1.43507-2.96094 2.09961-6.88339 4.63567-14.85502 8.09718-23.25303 8.33378-2.37742.0749-4.76145-.10744-7.10049-.53886-.34091-.0621-1.1425-.22515-1.65351-.34759-6.52022-1.52872-12.45889-4.93599-17.6336-9.1192-1.57291-.53646-3.14583-1.07292-4.71875-1.60938.70756 1.53607 1.33962 3.12259 2.09427 4.62719 3.98058 4.19235 8.0121 8.3624 11.49753 12.98609.64483.87378 1.43148 1.96326 2.07463 2.96146 3.37025 5.08841 5.68819 11.07024 5.53429 17.24593-.11358 7.32864-3.19852 14.24137-7.05223 20.34226-1.54938 2.45491-3.2589 4.80573-5.05278 7.08707-.30209 1.46875-.60417 2.9375-.90625 4.40625 1.36345-.68505 2.80224-1.27596 4.11854-2.01994 1.1205-1.4525 2.44318-3.02457 3.57091-4.29256 5.24936-5.83781 11.64981-10.98899 19.2793-13.25586 4.82824-1.45155 10.00795-1.58532 14.9375-.58008.36724.0735 1.16103.24703 1.68606.38029 3.46459.86002 6.79467 2.20595 9.96823 3.83065.38044.19622.97095.50449 1.40162.7457 3.37079 1.84171 6.56677 3.99063 9.62378 6.3129 1.5319.38802 3.0638.77604 4.5957 1.16406-.72593-1.43504-1.36705-2.93457-2.14532-4.32981-6.41473-5.56845-12.4236-11.93413-16.03875-19.716-2.73172-5.79615-3.67288-12.44597-2.41468-18.7463 1.57325-8.1229 6.03334-15.35765 11.19769-21.6913.60336-.79665.71905-1.86563 1.12112-2.77469.26193-.74665.52386-1.4933.7858-2.23995-1.52214.6569-3.04427 1.3138-4.56641 1.97071z" fill="#e51a1a" filter="url(#k)"/><path d="m257.78342 347.96606c-21.8 20.6-43 23.6-63.2 7.3 15.5 16.3 31.6 32.4 7.2 63.3 19.8-25.6 41.2-24.1 63.3-7.3-20.2-17.4-28.6-37.5-7.3-63.3z" fill="#ff8066"/></g><g opacity=".9" transform="translate(-40.771882 16.16816)"><path d="m174.53514 235.73145c2.87628 6.80615 4.9354 14.24808 4.05078 21.69336-.65517 5.76929-3.46265 11.16537-7.51054 15.28594-4.83499 4.98957-10.96998 8.47459-17.23751 11.34297-1.07487 1.16796-2.14974 2.33593-3.22461 3.5039 1.61521.0374 3.24655.17764 4.85174.15123 3.20566-1.19788 6.64192-2.24374 9.89826-2.91099 6.83274-1.43536 14.25721-1.47703 20.76004 1.60922 6.17892 2.87915 10.79234 8.28109 14.02714 14.16139 1.38388 2.48416 2.54566 5.0858 3.57415 7.73525 1.11133 1.0039 2.22266 2.00781 3.33399 3.01172.10247-1.5211.32483-3.0594.35234-4.56973-2.62098-6.67056-4.65822-13.81926-4.06719-21.05527.40147-5.15927 2.60942-10.11393 6.09065-13.93148 4.72214-5.25088 10.94567-8.78557 16.98732-12.29037.9186-.56088 1.97635-.95292 2.57764-1.89879.85308-.98518 1.70616-1.97036 2.55924-2.95554-1.69728.0874-3.41309.0859-5.09897.22789-6.72932 2.73666-14.24824 4.12892-21.43424 2.53383-7.01399-1.50141-13.1351-5.76835-17.93079-10.98519-2.17899-2.34124-4.18412-4.96359-5.92468-7.53434-1.11246-1.61219-2.0937-3.32401-3.13926-4.96838-1.2472-1.04114-2.4944-2.08228-3.7416-3.12342.082 1.6556.16407 3.3112.2461 4.9668z" fill="#e51a1a" filter="url(#i)"/><path d="m176.38342 234.96606c11.4 26.8-.5 41.3-21.7 50.9 22.7-8.5 40.8-4.5 50.9 21.7-12.7-31.8 4.8-41.2 21.7-50.9-21 8.5-37.8.9-50.9-21.7z" fill="#ff8066"/></g><g opacity=".9"><path d="m37.417952 235.60645c3.105 5.71894 5.61808 12.03323 5.57088 18.63552.005 5.15271-2.03601 10.20356-5.43232 14.05333-1.54595 1.8364-3.40669 3.38415-5.26572 4.87716-.90488 1.37773-1.80976 2.75547-2.71464 4.13321 1.68101-.32294 3.39157-.56269 5.05429-.9371 4.54253-2.48854 9.08464-5.17396 14.16056-6.42032.42393-.0987 1.18543-.26013 1.75527-.3382 4.13909-.69659 8.45813.35907 11.94126 2.66126 3.73138 2.38659 6.74203 5.72081 9.41284 9.216 1.3444.6569 2.68881 1.3138 4.03321 1.9707-.32061-1.48833-.53019-3.02658-.92009-4.48375-3.53791-4.59261-6.55796-9.94167-6.93046-15.84465-.21237-3.23036.51716-6.48641 1.93844-9.38449.16089-.31897.5083-1.01259.77673-1.45792 2.39626-4.12458 5.86678-7.50638 9.56116-10.47176.76172-1.39779 1.52343-2.79558 2.28515-4.19336-1.58045.36008-3.20128.6252-4.75659 1.0444-.58519.39163-1.09475.7543-1.60307 1.07618-4.80344 3.1031-10.2246 5.75124-16.05322 5.85544-4.82748.12732-9.47633-1.96897-13.08025-5.0856-2.46252-2.0534-4.51261-4.55391-6.44107-7.08931-1.35136-.92068-2.70272-1.84137-4.05408-2.76205.25391 1.64844.50781 3.29687.76172 4.94531z" fill="#e51a1a" filter="url(#h)"/><path d="m39.183422 234.66606c9.16 16.7 7.63 30.1-5.61 40 12.46-6.9 24.85-14.3 39.91 5.6-12.57-16.2-8.2-29 5.61-40-13.92 9.7-27.47 11.6-39.91-5.6z" fill="#ff8066"/></g><g opacity=".9" transform="translate(-64.67264 35.148174)"><path d="m430.88084 150.11817c-1.32724 2.185-2.79536 4.39107-4.27197 6.35702-3.19111 4.25939-6.90065 8.19707-11.32373 11.19376-.28254.19451-.92384.60854-1.35156.87109-5.26175 3.26699-11.57565 4.80225-17.74812 4.21153-4.3309-.36939-8.54737-1.61752-12.52923-3.32871-1.65625-.0911-3.3125-.18229-4.96875-.27344 1.09341 1.28698 2.12738 2.64332 3.25779 3.88711 2.33504 1.39078 4.66458 2.76494 6.86812 4.17123 5.33742 3.42249 10.68392 7.34863 13.87576 12.96596 2.79884 4.83405 3.3665 10.65402 2.5434 16.10274-.69054 4.77798-2.23409 9.38944-4.0978 13.82804.10351 1.49218.20703 2.98437.31055 4.47656 1.1287-1.02146 2.35615-1.97171 3.42324-3.03761.87507-2.13632 1.8571-4.22982 2.96543-6.25536.23175-.42185.64842-1.1514.9674-1.68121 3.31901-5.58765 8.03163-10.62156 14.15158-13.09695 6.32227-2.62011 13.44973-2.29309 19.98613-.69982 1.61109.38839 3.0124.79461 4.59479 1.31095 1.53509.46252 3.01987 1.11876 4.53289 1.61042 1.56107-.0299 3.12215-.0599 4.68322-.0899-1.09889-1.19457-2.13577-2.47077-3.27334-3.61442-6.77395-3.28227-13.44494-7.34015-18.14438-13.34622-3.40865-4.31721-5.32366-9.76671-5.34488-15.26879-.0804-6.40211 1.8619-12.64284 4.42862-18.4444.11588-1.65625.23177-3.3125.34765-4.96875-1.29427 1.03971-2.58854 2.07943-3.88281 3.11914z" fill="#e51a1a" filter="url(#g)"/><path d="m432.58342 151.16606c-13.1 21.6-29.5 28.8-49.7 20.1 16.3 9.7 33 19.1 20.1 49.6 10.3-25.2 27.9-28.7 49.7-20-20.3-9.7-31.6-23.9-20.1-49.7z" fill="#ff8066"/></g><g opacity=".9" transform="translate(93.151402 -76.998369)"><path d="m293.80467 112.57129c-2.32691 16.09512-6.29702 32.1299-13.58799 46.7416-5.47196 10.95348-13.00528 21.01721-22.7156 28.56229-9.65438 7.5931-21.28427 12.4474-33.30769 14.74892-7.24524 1.41931-14.64077 1.97365-22.01763 1.94134-1.56836.55924-3.13671 1.11848-4.70507 1.67773 1.51428.76156 3.0012 1.60868 4.53261 2.3167 14.69832 2.10271 29.56501 3.92903 43.70957 8.64619 9.83507 3.29316 19.29578 8.24386 26.73186 15.5756 7.55603 7.33916 12.74178 16.82878 15.91896 26.8077 3.61823 11.33014 4.99425 23.25098 5.34332 35.10108.0442 1.79143.0775 3.73354.0762 5.58398.67187 1.33203 1.34375 2.66406 2.01562 3.99609.64624-1.37343 1.41236-2.71902 1.98406-4.10976-.0292-3.00637.0156-6.01292.13117-9.01719.0339-.5627.0766-1.46505.11387-2.15799.0356-.85625.10717-1.66738.17142-2.5984.30433-4.09925.7936-8.23859 1.4868-12.22044.39775-2.30283.89065-4.69109 1.4369-6.92551 1.87119-7.70768 4.69898-15.21763 8.74219-22.05664.54582-.90935 1.23452-2.03219 1.88329-2.99605.75376-1.12863 1.43236-2.09394 2.265-3.19644 4.40323-5.85278 9.84405-10.90912 15.95132-14.94619 1.15662-.77361 2.53871-1.62191 3.82288-2.36079 11.56821-6.64948 24.70042-10.07085 37.8529-11.78178.68994-.0791 1.66957-.20125 2.4707-.29688.9993-.10379 2.26526-.2473 3.37106-.33963 4.04569-.37601 8.105-.58698 12.16605-.70334 1.4349-.6569 2.86979-1.3138 4.30469-1.9707-1.46303-.66336-2.90027-1.43053-4.3792-2.02988-2.37522-.0984-4.68341-.22415-7.00276-.3951-2.40605-.17705-4.67006-.37907-7.08732-.65264-6.49154-.72366-12.94638-1.82358-19.27877-3.4341-.50578-.13211-1.3531-.36106-1.98979-.53028-11.6644-3.19983-22.97355-8.43081-32.05894-16.53432-3.58786-3.18546-6.80225-6.78833-9.57822-10.70102-.44927-.64948-1.06756-1.53958-1.55589-2.30334-3.48942-5.39626-6.15844-11.29811-8.13552-17.40565-.4234-1.33472-.89631-2.89526-1.27745-4.33714-.62685-2.34111-1.15649-4.66729-1.60332-6.98995-.50358-2.62014-.90848-5.24645-1.22348-7.83178-.41957-3.42096-.69317-6.86591-.84959-10.24711-.16511-3.41451-.18813-6.85667-.14967-10.32058-.54493-1.56966-1.08985-3.13932-1.63477-4.70899-.78125 1.4668-1.5625 2.9336-2.34375 4.40039z" fill="#e51a1a" filter="url(#f)"/><path d="m295.78342 112.86606c-8.8 61.6-39.3 94-93.6 93.7 46.2 6.5 93.6 11.7 93.6 93.7-.8-67.3 35.9-92.2 93.8-93.7-55.5-2.2-94.9-23.9-93.8-93.7z" fill="#ff8066"/></g><g opacity=".9" transform="translate(-11.924812 251.82811)"><path d="m106.86912 107.28418c-2.88427 9.67579-6.67405 19.25731-12.720228 27.42467-4.59303 6.25959-10.80368 11.44827-18.10496 14.21886-4.26748 1.66464-8.80613 2.55258-13.36231 2.92288-.43141.0304-1.23361.0952-1.80992.11876-3.00963.16345-6.10914.11113-9.02915-.0509-7.42062-.42378-14.77252-1.57043-22.12186-2.63033-1.63347.32227-3.26693.64453-4.9004.9668 1.38523.97594 2.73075 2.03259 4.14082 2.95806 10.06887 2.87527 19.82249 7.63277 27.31461 15.07444 6.44325 6.32541 10.89056 14.50871 13.24184 23.19208 2.3055 8.39377 2.8785 17.17437 2.51172 25.84378-.056 1.15811-.13226 2.56664-.22915 3.81848-.14721 1.92568-.33117 3.82691-.56747 5.79926-.11915 1.22553-.34078 2.31685-.43101 3.55437.33239 1.59367.66477 3.18734.99716 4.78101.96176-1.39115 2.00527-2.74305 2.91604-4.15868 2.80102-10.06178 6.82422-19.99207 13.37892-28.22429 5.08812-6.44228 11.931568-11.53474 19.704638-14.2417 9.54253-3.38554 19.91711-3.48318 29.85799-2.1731 4.10662.5403 8.25132 1.34438 12.20501 2.28205.94143.19975 1.8725.62156 2.83529.29314 1.2313-.19468 2.4626-.38937 3.69391-.58406-1.23238-1.03311-2.41221-2.15884-3.67702-3.13479-10.39298-3.3795-20.61616-7.89682-29.12351-14.87427-6.54382-5.3311-11.80172-12.35633-14.514-20.38903-3.2597-9.47109-3.12715-19.77396-1.35256-29.53177.48838-2.72839 1.11668-5.43003 1.82529-8.1092.19746-.68048.4552-1.66851.69513-2.46172.22445-.79914.61531-1.58836.30337-2.41951-.20198-1.17956-.40395-2.35913-.60592-3.53869-1.02409 1.09114-2.04818 2.18229-3.07227 3.27343z" fill="#e51a1a" filter="url(#e)"/><path d="m108.78342 107.86606c-15.799998 53.7-47.759998 48-79.349998 43.4 35.65 10.2 49.35 37.3 43.33 79.4 12.66-46 42.619998-52.6 79.419998-43.4-37.6-12.1-56.899998-35.4-43.4-79.4z" fill="#ff8066"/></g><g opacity=".9" transform="translate(34.692364 -40.13089)"><path d="m417.5078 57.43458c-.96891 6.5503-2.81266 13.23338-6.98438 18.50976-3.17096 4.07019-7.91001 6.76908-12.958 7.71223-1.23386.24903-2.53008.41035-3.67677.4948-1.03427.11095-2.10093.007-3.11806.16094-1.51989.54205-3.03978 1.08411-4.55967 1.62617 1.53315.75631 3.03956 1.59716 4.58923 2.30123 5.72085.85762 11.67667 1.47068 16.85137 4.26048 3.73819 1.97696 6.5298 5.47832 7.90587 9.44979 1.01631 2.75701 1.50328 5.67919 1.75314 8.59788.032.40871.0787 1.05818.0997 1.56793.0494.80719.0635 1.7584.0742 2.67816.67969 1.33594 1.35937 2.67188 2.03906 4.00781.63875-1.38561 1.39527-2.74459 1.9603-4.14687-.0634-5.80821.74198-11.91712 4.01289-16.86072 2.73563-4.21266 7.30535-6.90768 12.08961-8.16534 3.40977-.9304 6.9471-1.29309 10.47236-1.38566 1.45117-.65495 2.90234-1.3099 4.35351-1.96484-1.47784-.66625-2.93063-1.43244-4.42408-2.03647-5.95145-.28123-12.13281-1.21161-17.25908-4.44816-3.91201-2.43607-6.66942-6.45026-7.93081-10.84769-1.11087-3.64646-1.3407-7.49487-1.34589-11.27605-.5251-1.54787-1.0502-3.09573-1.57529-4.64359-.78972 1.4694-1.57943 2.93881-2.36914 4.40821z" fill="#e51a1a" filter="url(#d)"/><path d="m419.48342 57.74605c-2.7 18.8-12 28.6-28.5 28.5 14.1 2 28.4 3.6 28.5 28.52001-.3-20.5 10.9-28.12 28.5-28.52001-16.9-.7-28.9-7.29999-28.5-28.5z" fill="#ff8066"/></g><g opacity=".9" transform="translate(177.84976 -8.435563)"><path d="m46.187482 32.84473c-.96441 6.52191-2.79412 13.17416-6.92978 18.44021-3.15204 4.07997-7.87329 6.80036-12.91445 7.76259-1.26248.25857-2.59566.42721-3.771.514-1.03559.11083-2.10353.007-3.12197.16093-1.51989.54206-3.03978 1.08412-4.55967 1.62618 1.53315.75631 3.03955 1.59715 4.58923 2.30123 5.6878.85176 11.60339 1.46472 16.75999 4.21006 3.72076 1.94134 6.52888 5.3844 7.92977 9.31654.94441 2.50226 1.45011 5.14968 1.73077 7.80303.034.43909.10355 1.02315.13009 1.53015.0386.48727.0629 1.13267.0878 1.56004.11917.95755-.20197 2.01635.40853 2.84744.55876 1.09826 1.11753 2.19653 1.67629 3.29479.63875-1.38561 1.39527-2.74459 1.9603-4.14687-.0627-5.80715.74127-11.91849 4.01308-16.86059 2.75478-4.24101 7.36612-6.94186 12.18588-8.19187 3.38046-.91044 6.88377-1.26765 10.3759-1.35926 1.45117-.65495 2.90234-1.3099 4.35352-1.96485-1.47785-.66625-2.93064-1.43242-4.42409-2.03647-5.91848-.27941-12.0599-1.20131-17.17162-4.39322-3.91504-2.40725-6.69431-6.39048-7.97851-10.76953-1.10999-3.65737-1.42141-7.50785-1.35352-11.31445-.5358-1.57943-1.07161-3.15885-1.60742-4.73828-.78971 1.4694-1.57942 2.9388-2.36914 4.4082z" fill="#e51a1a" filter="url(#c)"/><path d="m48.163422 33.15605c-2.7 18.80001-12 28.60001-28.5 28.5 14.1 2 28.4 3.6 28.5 28.52-.3-20.5 10.9-28.12 28.5-28.52-16.9-.69999-28.9-7.3-28.5-28.5z" fill="#ff8066"/></g><g opacity=".9"><path d="m352.0117 22.68067c-3.23289 4.9949-7.11408 9.87642-12.4668 12.70508-4.06796 2.18452-8.93701 2.57471-13.38223 1.45062-3.72309-.86683-7.17266-2.61575-10.45211-4.51733-1.59884-.32347-3.19768-.64693-4.79652-.9704.90347 1.43354 1.73924 2.92632 2.68503 4.32283 5.08991 4.07024 9.85278 8.95111 12.30315 15.09748 1.93998 4.76153 1.92758 10.19238.24815 15.02695-.7187 2.22317-1.81714 4.30387-2.92492 6.34239-.30823 1.62154-.61646 3.24309-.92469 4.86464 1.42931-.9445 2.9175-1.82384 4.31034-2.80869 3.624-4.4891 7.15736-9.2929 12.14099-12.37304 3.58203-2.25229 8.01167-2.9373 12.14396-2.14053 4.31027.76694 8.33059 2.64989 12.10198 4.81641 1.49674.0879 2.99349.17578 4.49023.26367-.87376-1.25114-1.6652-2.5903-2.59051-3.78632-.94183-.53672-1.90342-1.11841-2.71406-1.65584-1.49711-.98203-3.15667-2.22058-4.55871-3.50706-3.62616-3.24976-6.41352-7.6496-6.96794-12.55792-.71809-5.90268 1.3048-11.74023 3.9411-16.93433.41392-.83753 1.01779-1.61164.95298-2.59414.13074-1.2518.26148-2.5036.39222-3.75541-1.31054.90365-2.62109 1.80729-3.93164 2.71094z" fill="#e51a1a" filter="url(#b)"/><path d="m353.68342 23.77606c-9.1 14.25-20.8 21.29-38.9 10.28 14.9 11.78999 18.6 24.76 10.2 38.97 8.9-11.18001 17.5-22.73001 39-10.27-17.8-10.06-18.8-23.57001-10.3-38.98z" fill="#ff8066"/></g><g opacity=".9" transform="translate(192.75689 338.80666)"><path d="m223.90623 11.89747c-.34585 2.33148-.72538 4.64702-1.19141 7.01086-.18657.95078-.4037 1.99858-.61144 2.93795-2.48201 11.22558-6.517 22.33872-13.4823 31.59611-5.35562 7.15993-12.62968 12.88917-20.9302 16.2437-8.12279 3.33961-16.97549 4.55588-25.71629 4.5102-1.57161.5586-3.14323 1.11719-4.71484 1.67579 1.51705.76177 3.00624 1.61045 4.5404 2.31881 8.60031 1.23329 17.41771 2.3846 25.7096 4.67923 7.97255 2.19679 15.80795 5.70936 21.79153 11.54861 6.01796 5.77397 9.77095 13.52861 11.83529 21.52752.87232 3.33802 1.48306 6.74048 1.91615 10.16215.048.4009.13508 1.19306.19803 1.74372.44091 4.12977.61628 8.28387.63205 12.43597l2.02929 4.00977c.64207-1.38306 1.40196-2.73913 1.97033-4.13906-.0204-2.04126.006-4.08271.0824-6.12266.0268-.45244.0791-1.47147.0996-1.93555.61795-10.07853 2.73613-20.29918 7.88729-29.09271 4.19488-7.26747 10.60193-13.16363 18.05546-16.97994.45205-.24432.9161-.45682 1.47403-.73894 9.75997-4.66437 20.62638-6.42999 31.35001-6.9738 1.09839-.0816 2.2225-.0371 3.30655-.16248 1.40329-.64238 2.80657-1.28475 4.20986-1.92713-1.4611-.66393-2.89627-1.43207-4.37334-2.0318-2.29896-.0892-4.59589-.24347-6.79072-.42914-5.35164-.48135-10.6837-1.28302-15.89454-2.60937-.59844-.16555-1.51969-.39829-2.23593-.61264-3.47118-.99227-6.86561-2.26028-10.11563-3.83463-.31088-.16816-1.0432-.51709-1.51043-.77272-7.16553-3.72734-13.34822-9.38728-17.4575-16.36209-4.19445-7.02831-6.38868-15.07518-7.3934-23.15034-.0479-.40091-.13486-1.19308-.19771-1.74375-.42179-4.14066-.56019-8.30661-.49564-12.46719-.54232-1.57096-1.08464-3.1419296-1.62696-4.7128896-.7832 1.46614-1.5664 2.9322896-2.34961 4.3984396z" fill="#e51a1a" filter="url(#a)"/><path d="m225.88342 12.19605c-6.1 42.1-26.8 64.20001-63.9 64.00001 31.6 4.5 63.8 8 63.9 64.07-.6-46.10001 24.5-63.07 64.1-64.07-38-1.5-64.9-16.3-64.1-64.00001z" fill="#ff8066"/></g><g opacity=".9" transform="translate(-23.745132 -269.61331)"><path d="m86.490222 287.47559c2.884 10.68427 4.98242 21.61341 5.6875 32.66992.0255.56227.077 1.46503.11248 2.15786.0557 1.26208.10215 2.83426.11469 4.22005.13848 12.92092-2.01089 26.04417-7.63729 37.75682-5.07936 10.73988-13.06507 19.97642-22.58616 27.02842-6.72413 5.02639-14.15771 9.04625-21.87482 12.32318-1.222 1.13281-2.44401 2.26563-3.66601 3.39844 1.69321.10194 3.39498.29288 5.08285.33908 11.29663-3.05071 22.59042-6.25957 34.17691-8.02853 1.1338-.16377 2.52451-.36002 3.76018-.50874 10.39993-1.25866 21.179628-1.02257 31.190238 2.32589 9.49988 3.10706 17.91081 9.00825 24.70615 16.27137 4.8272 5.11315 9.00636 10.95526 12.59343 16.90757 3.7265 6.1973 6.93519 12.69428 9.80078 19.33008 1.14454.95768 2.28907 1.91536 3.4336 2.87304.049-1.51804.21877-3.05797.19254-4.5624-4.63138-10.4563-8.32382-21.41277-9.96989-32.75986-.27823-1.92265-.51333-4.05347-.65699-6.06894-.32218-4.47165-.2696-8.97395.22731-13.43106.11669-.98359.27503-2.22712.45752-3.30569.3045-1.86147.69236-3.70918 1.16162-5.53611.28469-1.09155.66219-2.41643 1.04176-3.58315.86917-2.68277 1.93618-5.33538 3.1341-7.80486 5.2644-10.94005 13.73191-20.05554 23.32591-27.3647 8.51184-6.51005 17.92835-11.74842 27.63495-16.24729 1.05924-1.17122 2.11849-2.34245 3.17773-3.51367-1.60645-.0308-3.23019-.16684-4.82598-.13266-5.94379 2.27578-11.98706 4.30051-18.13691 5.94516-1.00935.25422-2.27259.59428-3.38736.85123-12.24405 2.94346-25.09475 4.27677-37.57212 2.03644-2.04518-.36107-4.24399-.8711-6.13427-1.4072-8.26721-2.31684-15.99271-6.45419-22.59375-11.9336-.74525-.61597-1.68268-1.42081-2.47402-2.14383-3.88954-3.52593-7.45334-7.57687-10.53379-11.72726-3.36788-4.52557-6.317788-9.35078-8.966798-14.32812-.21801-.43635-.61203-1.18516-.89747-1.74123-.3785-.71443-.65705-1.29425-1.03659-2.06836-1.54286-3.12203-2.9494-6.30945-4.28664-9.5244-1.12044-1.22656-2.24089-2.45312-3.36133-3.67969-.13802 1.6556-.27604 3.3112-.41406 4.9668z" fill="#e51a1a" filter="url(#j)"/><path d="m88.423422 286.96606c15.659998 57.8.86 98.1-47.32 118.5 43.46-11.8 87.379998-25.2 118.679998 47.4-26.4-59.3-3.4-95.4 47.3-118.8-50 19.2-93.1 15-118.659998-47.1z" fill="#ff8066"/></g><g opacity=".9" transform="translate(-8.435562 -135.67195)"><path d="m429.70701 395.15528c-.95047 6.4257-2.73819 12.97087-6.74437 18.20436-3.07435 4.08005-7.69383 6.87844-12.68145 7.90885-2.36446.55175-4.80829.65999-7.21719.73093-1.55129.55325-3.10258 1.10651-4.65386 1.65976 1.53315.75631 3.03956 1.59716 4.58923 2.30124 1.71895.24135 3.5173.50278 5.1178.75541 1.22972.20149 2.33269.40301 3.59481.67185 4.64759.98403 9.4356 2.7126 12.63701 6.39434 3.27501 3.65727 4.58573 8.8233 5.06505 13.45138.0832.85796.14268 1.49538.18621 2.38387.0547.91249.0726 1.87016.0833 2.8759.67968 1.33594 1.35937 2.67187 2.03906 4.00781.63875-1.38561 1.39527-2.74459 1.9603-4.14687-.0634-5.83629.7508-11.98023 4.06731-16.9316 2.77808-4.23089 7.41202-6.89157 12.23403-8.13135 3.349-.88593 6.81531-1.24032 10.27156-1.32729 1.44987-.65429 2.89974-1.30859 4.34961-1.96289-1.47591-.66685-2.92664-1.43391-4.41822-2.03845-5.87165-.2838-11.96315-1.18276-17.05089-4.32074-3.96245-2.39099-6.78512-6.39175-8.08418-10.79974-1.15688-3.69683-1.39416-7.60994-1.40071-11.45139-.5251-1.54786-1.0502-3.09572-1.5753-4.64358-.78971 1.4694-1.57942 2.9388-2.36914 4.4082z" fill="#e51a1a" filter="url(#l)"/><path d="m431.68342 395.46606c-2.7 18.8-12 28.6-28.5 28.5 14.1 2 28.4 3.6 28.5 28.5-.3-20.5 10.9-28.1 28.5-28.5-16.9-.7-28.9-7.3-28.5-28.5z" fill="#ff8066"/></g></svg>