<svg height="500" viewBox="0 0 500 500" width="500" xmlns="http://www.w3.org/2000/svg" xmlns:xlink="http://www.w3.org/1999/xlink"><linearGradient id="a"><stop offset="0" stop-color="#ff851a"/><stop offset=".42441937" stop-color="#f87000"/><stop offset=".86367416" stop-color="#f26900"/><stop offset="1" stop-color="#e55f00"/></linearGradient><radialGradient id="b" cx="1362.7291" cy="216.11429" gradientTransform="matrix(1.0000001 -.0000059 .0000001 1.0000003 -112.72927 33.893757)" gradientUnits="userSpaceOnUse" r="250" xlink:href="#a"/><radialGradient id="c" cx="1012.7292" cy="16.112209" gradientTransform="matrix(.19999997 -.00000014 .00000007 .2 697.45421 46.777699)" gradientUnits="userSpaceOnUse" r="250" xlink:href="#a"/><filter id="d" color-interpolation-filters="sRGB" height="1.053914" width="1.054086" x="-.027043" y="-.026957"><feGaussianBlur stdDeviation="4.7066047"/></filter><filter id="e" color-interpolation-filters="sRGB" height="1.049561" width="1.052593" x="-.026297" y="-.024781"><feGaussianBlur stdDeviation="5.7795931"/></filter><filter id="f" color-interpolation-filters="sRGB" height="1.028884" width="1.026217" x="-.013108" y="-.014442"><feGaussianBlur stdDeviation=".34915585"/></filter><filter id="g" color-interpolation-filters="sRGB" height="1.050976" width="1.050976" x="-.025488" y="-.025488"><feGaussianBlur stdDeviation=".34915585"/></filter><filter id="h" color-interpolation-filters="sRGB" height="1.032193" width="1.032194" x="-.016097" y="-.016097"><feGaussianBlur stdDeviation=".34915585"/></filter><filter id="i" color-interpolation-filters="sRGB" height="1.050976" width="1.051018" x="-.025509" y="-.025488"><feGaussianBlur stdDeviation=".34915585"/></filter><g transform="translate(-1000)"><path d="m1500 250a250 250 0 0 1 -250 250 250 250 0 0 1 -250-250 250 250 0 0 1 250-250 250 250 0 0 1 250 250z" fill="url(#b)" stroke-linecap="round" stroke-linejoin="round" stroke-width="1.002"/><path d="m1309.2298 33.82789c128.5196 30.706851 207.8974 167.48127 169.5927 291.56949-31.3771 95.69524-112.8693 162.03793-212.5543 174.60263 153.1796-8.09118 266.0956-163.0043 218.7012-309.92978-36.4562-114.666588-154.6038-191.5214848-270.6514-169.822657-18.8526 4.215647-38.4387 10.498641-55.8829 18.694487-112.5353 47.459213-168.47522 196.206-99.9632 307.85319 57.6978 93.63045 168.5136 141.8489 267.9993 100.77239-134.92 68.97589-303.283-51.46877-311.488-201.30723-4.4167-117.68321 76.8182-219.674136 190.654-246.26040176-89.0147 9.18391126-152.6601 79.39239576-187.7408 157.21169176-38.45522 102.70317 5.2337 231.75078 109.038 294.08388 114.5107 66.1048 260.3537 29.37245 323.6836-83.60152 42.2104-77.69758 34.3514-177.62383-23.1776-249.88923-57.5404-72.257811-157.5429-102.460489-246.4118-71.877168-81.7429 30.682061-131.1298 101.133078-134.0478 190.176958.6692 92.68536 61.7912 168.55972 147.5399 198.52472 128.5549 37.82014 266.7725-70.33038 233.6823-209.88949-14.7104-64.39775-57.8855-122.14991-125.7378-141.121386-71.391-15.467036-138.9716 1.205-181.2869 64.641366-18.8995 29.2286-28.9384 85.21395-26.105 97.65297m0 0c13.5324-50.18833 30.6277-97.66354 72.2125-128.94941 53.182-38.308183 124.4576-37.093813 181.7444-.48035 50.1457 36.48017 75.4845 90.37713 72.3557 150.91678-6.6674 64.04407-38.4038 109.83277-91.6401 141.00844-63.9019 34.56125-135.3795 4.83213-189.1258-35.28385-78.8706-65.48566-79.7477-186.67235-8.9744-256.76104 63.7369-55.941605 167.0207-64.891564 238.7167-6.65053 78.8163 58.35315 90.3045 169.04089 40.972 246.62443-35.2274 56.41892-88.4571 87.60135-152.5581 93.63158-81.9488 2.18264-160.666-41.91503-196.8695-120.9383-36.2055-79.02511-22.5771-164.33167 26.8727-227.66064 49.4316-63.30896 138.3491-86.746364 220.4504-67.54202" fill="#c50"/></g><g opacity=".9"><path d="m276.76953 19.082031c-82.89958.400911-137.86434 20.045994-170.10742 56.328125-31.495357 35.440744-38.171515 83.448964-33.123048 134.150394-30.129798 13.50414-51.19251 44.76353-50.373046 81.43554.789641 35.33783 28.470709 61.47041 61.341796 74.36524 32.871088 12.89482 73.290398 14.67378 109.910158.15234l2.54101-1.00781.14649.15234c3.93861 4.09416 5.9316 9.60861 6.22656 17.89258.29496 8.28398-1.56239 18.61129-4.50976 28.39453-5.89475 19.56649-15.41407 36.11328-15.41407 36.11328l-19.70703 33.86133 38.52735-7.10547c14.0908-2.59869 33.81733-8.51395 52.36718-19.01953 18.54986-10.50558 37.66055-26.49433 40.93164-51.4082 2.65344-20.20817 4.42272-34.69344 6.89063-40.33203 1.23395-2.8193 1.84783-3.41434 3.30859-4.3418 1.46077-.92746 4.63247-2.23785 11.09375-2.79492 24.97792-2.15299 40.65706-21.06548 48.69922-37.61524 4.27162-8.79046 7.31445-17.45706 9.64844-24.69531 21.95103 3.12836 42.66898-2.17877 58.73047-13.17578 20.38199-13.95519 33.93412-35.65015 39.79101-59.10742s4.02359-49.39835-9.13281-71.3457c-10.6166-17.71048-28.89363-31.68854-53.16602-38.76172l-.26953-5.61524c-1.11009-23.173121-16.09333-44.361194-39.29492-60.251951-23.20159-15.890756-55.52373-26.458854-95.05664-26.267578z" fill="#994100"/><path d="m276.85627 37.082556c72.5445-.351 114.8247 38.8701 116.2863 69.381004-30.0996-3.1689-73.9683-2.2977-78.3612 34.81199 20.7288-19.12409 49.4064-19.59749 75.9564-16.15679 117.207 15.1902 66.573 180.65699-27.4392 147.222-7.5897 17.02439-13.6512 62.6814-48.024 65.64419-33.3 2.871-32.4279 23.7141-37.5939 63.0576-4.2768 32.5737-54.7011 50.6412-78.7158 55.0701 0 0 41.877-71.9541 11.1123-103.9338-79.7868-108.9693 24.498-166.7268 87.5286-148.5648 42.885 12.357 32.2983 38.4075 3.9501 66.5334 40.9662-14.895 44.9937-34.0965 43.8228-53.6445-1.8927-31.5828-61.4403-55.449-100.008-47.1393-97.2045 20.943-119.7963 91.9359-57.5883 179.4177-63.5373 25.1955-145.460696-6.2712-146.620796-58.1877-.7236-32.382 19.3068-58.536 46.3014-67.1868 24.497996-6.5088 35.063996 4.7601 43.379996 21.3399 2.3994-18.1386-15.8751-49.1157-39.122996-33.5655-10.8918-98.81459 24.903896-173.323794 185.136296-174.098694z" fill="#c50" filter="url(#d)" stroke-width="36"/></g><g fill="#ffa348"><path d="m-438.15771 186.28532 46.0859 36.13477c40.5503 34.77815 67.3225 73.29252 76.252 111.18554 9.8508-40.54427 6.1371-77.85456-4.1172-111.18554-2.9906-12.9769-6.8579-25.35394-12.3965-36.13477zm347.126898 0-14.869098 36.13477c-27.0397 68.0265-65.7451 129.68137-113.418 173.48437 46.368-18.477 90.1848-41.9183 122.824198-67.625l24.9844-19.65039v-116.61718l-1.7168-5.72657zm-480.478498 1.03125v74.86133l47.2754 3.54883c66.7143 5.9283 133.3811 21.71081 188.7383 55.01171-35.1999-46.49759-88.0449-77.81635-139.7032-98.31835zm111.7559 106.96484c23.1253 36.05946 51.91 69.9973 84.9609 100.90625-60.471 43.2261-112.021 95.85282-149.4727 154.10352 76.8977-20.457 150.6059-55.63188 214.4825-101.08008 63.5463 45.2115 136.8215 80.25581 213.288998 100.75781-28.798398-60.81427-103.494798-121.3194-148.283198-153.78125 33.0516-30.9105 61.8344-64.84685 84.959-100.90625-52.3782 13.653-102.9901 34.11194-149.9746 59.99414-46.9795-25.881-97.5843-46.34114-149.9609-59.99414zm50.6777 106.8086c-43.7617 7.0623-81.9698 20.65453-115.1582 35.70703l-47.2754 21.08008v108.66211l47.2754-48.11133c31.626-46.3293 71.5469-88.46229 115.1582-117.33789zm98.459 74.89648c-16.731 63.7956-12.9541 122.27801.4199 174.16211l20.1504 36.13672h116.7168l-32.6641-36.13672c-57.4201-54.117-94.3026-114.64601-104.6211-174.16211zm13.4941.33789c49.698 82.5894 124.9493 137.48597 191.0606 173.82617l34.552698 13.03516v-90.84961l-24.9824-3.94922c-80.299798-17.415-151.147098-49.605-200.630898-92.0625z" stroke="#994100" stroke-width="36"/><path d="m110.51141 245.1596c-9.0783 0-16.425004 7.344-16.425004 16.425 0 9.0765 7.346704 16.452 16.425004 16.452s16.425-7.3737 16.425-16.452c0-9.081-7.3467-16.425-16.425-16.425z" filter="url(#i)" opacity=".75" stroke-width=".9"/><path d="m143.98241 195.7145c0 14.3748 11.6415 26.0163 26.0154 26.0163 14.373 0 26.0424-11.6397 26.0424-26.0154 0-14.373-11.6703-26.0424-26.0424-26.0433-14.3739-.0009-26.0154 11.6676-26.0154 26.0424z" filter="url(#h)" opacity=".75" stroke-width=".9"/><path d="m439.85831 162.4712c-9.0783 0-16.425 7.3458-16.425 16.425 0 9.0774 7.3467 16.452 16.425 16.452 9.0774 0 16.452-7.3728 16.452-16.452s-7.3746-16.425-16.452-16.425z" filter="url(#g)" opacity=".75" stroke-width=".9"/><path d="m124.37861 93.5096c-9.0765 0-16.452 7.344-16.452 16.425 0 9.0765 7.3755 16.452 16.452 16.452 9.0792 0 16.425-7.3737 16.425-16.452 0-9.081-7.3458-16.425-16.425-16.425z" filter="url(#g)" opacity=".75" stroke-width=".9"/><path d="m378.68441 104.8991c0 .6507.0315 1.2753.0846 1.9125-.3357-.0207-.6723-.0567-1.0125-.0567-9.0783 0-16.425 7.3467-16.425 16.425s7.3467 16.4538 16.425 16.4538c7.8714 0 14.4495-5.5485 16.0587-12.9384 2.538.9486 5.2884 1.4904 8.1567 1.4904 12.8592 0 23.2866-10.4256 23.2866-23.2875 0-12.861-10.4274-23.2875-23.2875-23.28705-12.861.00045-23.2866 10.42605-23.2866 23.28795z" filter="url(#f)" opacity=".75" stroke-width=".9"/><path d="m76.762306 75.6212c-13.711675 14.038304-18.702 31.896-27.1125 52.2558-10.675041 40.6768-15.132306 70.22129-20.821321 101.97112l20.821321-52.16152c14.0634-45.2403 20.904792-75.8927 47.8692-102.0654 11.421934-11.086568 27.902374-18.803328 43.819074-18.980014 16.78085-.186279 35.01242 6.870442 46.63093 18.980014 49.52983 51.62321 52.4718 100.2996 72.6183 201.9654l-24.9192-18.3375c9.306 38.3778 8.541 78.0606 4.7538 116.6904-8.712-4.5576-16.551-9.2178-23.7663-14.0328 6.5727-2.151 11.3337-8.3457 11.3337-15.6375 0-9.0792-7.3746-16.425-16.452-16.425-8.829 0-16.0083 6.9606-16.398 15.6933-17.0928-14.832-30.9177-31.6332-46.1808-52.1154 19.674 49.9356 33.8184 99.855 38.898 149.7933-19.3212-9.4518-37.9908-24.7365-56.1672-43.0866-30.0411-53.4222-49.442542-83.95497-73.603942-110.89917-16.867831-20.72676-40.885278-29.86334-48.2438792-37.12074 16.1430612 18.09991 30.3385602 39.49565 48.2438792 62.88234 20.7036 25.128 35.523138 51.41997 60.471142 96.13287l21.4587 63.1125c-20.4993 3.996-40.981504-3.69-61.480804-11.5596l25.733704 37.323h350.9442l21.9375-58.0239c-17.199 9.189-53.8587 20.556-75.9096 24.8904 13.041-45.63 24.2217-85.8825 45.45-130.8654-19.287 21.177-50.3046 42.2487-73.9404 54.027 12.0168-48.42 26.505-82.0152 41.373-102.0357 11.4255-15.3882 22.5846-22.4667 32.625-23.9346 9.8928-1.449 19.9737 2.1087 30.825 11.8962l43.67038 42.44954 16.08152-10.44194-59.7519-52.9326c-8.676-5.265-17.919-8.1738-27.3105-8.073-1.9737.0216-3.951.189-5.9346.4788-15.8625 2.3193-30.6126 12.9114-43.704 30.5442-14.1426 19.044-26.946 46.6776-37.8855 83.952-7.776-65.7513-6.633-134.9694.675-197.802-13.0203 38.7738-20.331 70.524-45.198 96.6933-9.8748-17.3916-17.4627-34.7256-23.5953-52.0596 2.3922.9927 5.0112 1.548 7.7625 1.548 11.2167 0 20.3058-9.1152 20.3058-20.3346 0-11.2185-9.09-20.3058-20.3067-20.3058-4.8132 0-9.2313 1.674-12.7125 4.473l-8.2125-174.1433c6.37954-27.858211 3.97838-50.551298-21.36002-59.751896-13.58674 15.8346-40.62317 26.289323-10.13998 59.751896 10.2798 50.9085 15.6906 180.7736 18.45 233.1761-17.1027-72.4608-23.21984-114.99901-59.9067-157.5549-16.26231-18.863893-34.87393-35.796191-65.16579-36.554101-27.63745-.691496-48.882686 18.443699-66.571714 36.554101z" filter="url(#e)" stroke-width=".9"/><path d="m76.762306 75.6212c-13.711675 14.038304-18.702 31.896-27.1125 52.2558-10.675041 40.6768-15.132306 70.22129-20.821321 101.97112l20.821321-52.16152c14.0634-45.2403 20.904792-75.8927 47.8692-102.0654 11.421934-11.086568 27.902374-18.803328 43.819074-18.980014 16.78085-.186279 35.01242 6.870442 46.63093 18.980014 49.52983 51.62321 52.4718 100.2996 72.6183 201.9654l-24.9192-18.3375c9.306 38.3778 8.541 78.0606 4.7538 116.6904-8.712-4.5576-16.551-9.2178-23.7663-14.0328 6.5727-2.151 11.3337-8.3457 11.3337-15.6375 0-9.0792-7.3746-16.425-16.452-16.425-8.829 0-16.0083 6.9606-16.398 15.6933-17.0928-14.832-30.9177-31.6332-46.1808-52.1154 19.674 49.9356 33.8184 99.855 38.898 149.7933-19.3212-9.4518-37.9908-24.7365-56.1672-43.0866-30.0411-53.4222-49.442542-83.95497-73.603942-110.89917-16.867831-20.72676-40.885278-29.86334-48.2438792-37.12074 16.1430612 18.09991 30.3385602 39.49565 48.2438792 62.88234 20.7036 25.128 35.523138 51.41997 60.471142 96.13287l21.4587 63.1125c-20.4993 3.996-40.981504-3.69-61.480804-11.5596l25.733704 37.323h350.9442l21.9375-58.0239c-17.199 9.189-53.8587 20.556-75.9096 24.8904 13.041-45.63 24.2217-85.8825 45.45-130.8654-19.287 21.177-50.3046 42.2487-73.9404 54.027 12.0168-48.42 26.505-82.0152 41.373-102.0357 11.4255-15.3882 22.5846-22.4667 32.625-23.9346 9.8928-1.449 19.9737 2.1087 30.825 11.8962l43.67038 42.44954 16.08152-10.44194-59.7519-52.9326c-8.676-5.265-17.919-8.1738-27.3105-8.073-1.9737.0216-3.951.189-5.9346.4788-15.8625 2.3193-30.6126 12.9114-43.704 30.5442-14.1426 19.044-26.946 46.6776-37.8855 83.952-7.776-65.7513-6.633-134.9694.675-197.802-13.0203 38.7738-20.331 70.524-45.198 96.6933-9.8748-17.3916-17.4627-34.7256-23.5953-52.0596 2.3922.9927 5.0112 1.548 7.7625 1.548 11.2167 0 20.3058-9.1152 20.3058-20.3346 0-11.2185-9.09-20.3058-20.3067-20.3058-4.8132 0-9.2313 1.674-12.7125 4.473l-8.2125-174.1433h-31.5c10.2798 50.9085 15.6906 180.7736 18.45 233.1761-17.1027-72.4608-23.21984-114.99901-59.9067-157.5549-16.26231-18.863893-34.87393-35.796191-65.16579-36.554101-27.63745-.691496-48.882686 18.443699-66.571714 36.554101z" stroke-width=".9"/></g><path d="m-150 0h50v50h-50z" fill="#c50"/><path d="m900 0h50v50h-50z" fill="url(#c)" transform="translate(-1000)"/><path d="m-150 50h50v50h-50z" fill="#ffa348"/><path d="m-100 50h50v50h-50z" fill="#994100"/></svg>