<svg height="500.00003" viewBox="0 0 500 500.00003" width="500" xmlns="http://www.w3.org/2000/svg" xmlns:xlink="http://www.w3.org/1999/xlink"><filter id="a" color-interpolation-filters="sRGB" height="1.005997" width="1.006003" x="-.003002" y="-.002998"><feGaussianBlur stdDeviation=".53026763"/></filter><g transform="translate(-500)"><path d="m926.7767 73.223311c45.24113 45.241099 73.2233 107.741109 73.2233 176.776699 0 69.0356-27.98221 131.53559-73.2233 176.77669-45.2411 45.2411-107.74109 73.22332-176.77669 73.22332-69.03559 0-131.5356-27.98219-176.7767-73.22332-45.2411-45.2411-73.22331-107.74109-73.22331-176.77669 0-69.03559 27.9822-131.5356 73.22331-176.776699 45.2411-45.241105 107.74111-73.22330934 176.7767-73.22330934 69.0356 0 131.53559 27.98220534 176.77669 73.22330934z" fill="#3b2f4f"/><g transform="translate(500)"><path d="m230.6486 0c-128.19182 22.346591-234.17086 139.43202-223.06447 273.24395 5.6201 44.55936 16.72649 83.63245 44.55937 122.70552l50.17947 50.17947c33.45298 22.34661 72.52606 44.55938 111.46533 50.17946 39.07308 5.62012 78.01235 5.62012 111.46534-5.62008 39.07308-16.72649 72.52607-33.45297 100.35893-61.28587 33.45297-39.07306 55.79958-83.63245 66.90595-139.43201v-61.28587c-5.62008-27.83287-11.10637-50.17947-22.34657-78.01235-11.10641-22.34659-27.8329-44.55937-50.17947-61.285858-27.83289-27.832879-61.28586-44.559368-100.35895-55.799569-27.83288-5.620101-55.79957-11.10639-89.25255-5.620101-78.01235 11.106391-139.43202 61.28586-172.885 128.191818-11.10639 27.83288-16.72649 61.28586-22.34659 89.25255 0 33.45298 5.6201 66.90596 16.72649 94.73885 22.34659 44.55936 55.79957 89.25254 105.97904 111.46532 16.72649 5.62012 33.45298 11.1064 55.79957 16.72648 122.70553 22.34661 234.17085-55.79954 250.89734-178.37127 11.10641-78.01236-22.34657-139.43203-72.52604-189.6115-100.35895-89.25255-267.62385-44.559369-312.18322 78.01235-5.6201 27.83288-16.72649 55.79958-16.72649 83.63245 5.6201 78.01235 55.79957 150.53843 133.81192 172.885 61.28586 16.72649 122.70553 5.62012 172.885-33.45298 11.10639-11.10637 22.34659-22.34657 33.45299-33.45297 61.28584-83.63246 44.55935-195.09778-44.55937-256.51746-27.83288-16.726488-55.79958-22.346588-89.25256-27.832879-22.34659-5.620101-44.55937 5.620101-66.90596 11.106391-27.83288 16.726488-50.17947 22.346588-72.52606 50.179468-27.83288 33.45298-33.45298 66.90596-39.07308 105.97904 0 55.79958 27.83288 117.08544 83.63245 144.91833 78.01235 44.55934 183.99139 11.10637 223.06447-72.52607 22.3466-55.79958 11.1064-128.19183-39.07308-172.88501-33.45298-27.83288-66.90596-39.07308-111.46533-39.07308-66.90596 5.6201-111.46533 55.79957-122.70553 122.70553-11.10639 72.52606 33.45298 139.43202 105.97904 150.53843 100.35894 16.72649 183.99138-89.25257 139.43202-178.37131-11.10638-16.72649-27.83288-39.07308-50.17947-50.17947-27.83288-11.10639-55.79957-16.72649-83.63245-11.10639-33.45298 5.6201-55.79957 27.83288-72.52606 50.17947-16.72649 27.83288-16.72649 55.79957-11.10639 83.63245 11.10639 33.45298 39.07308 61.28586 72.52606 72.52607 44.55937 16.72649 89.25255-5.62011 111.46533-39.07309 33.45298-55.79957 5.6201-117.08543-50.17947-139.43202-50.17947-16.72649-122.70553 27.83288-105.97904 89.25255 5.6201 16.72649 11.10639 39.07309 27.83288 50.17947 22.34659 16.7265 50.17947 16.7265 72.52606 11.1064 22.34659-11.1064 39.07308-33.45299 39.07308-61.28587-5.6201-16.72649-5.6201-39.07308-22.34659-50.17947-13.91644-8.36324-29.2379-11.13984-43.17107-8.34651-13.93317 2.79332-26.47803 11.15656-34.84128 25.073-5.6201 16.72649-11.10639 33.45298 9.50065 44.827 41.74932-49.10898 35.32635.40143 29.84006-16.45887v5.6201c16.72649-5.6201 22.34659-22.34659 27.83288-33.45298 5.6201 5.6201 16.72649 11.10639 16.72649 22.34659 11.10639 39.07308-27.83288 72.52606-66.90596 61.28586-33.45298-11.10639-44.55937-50.17947-39.07309-83.63245 5.62011-22.34659 22.3466-39.07308 50.17948-44.55937 33.45298-5.6201 66.90596 11.10639 83.63245 39.07308 16.72649 27.83288 16.72649 50.17947 0 78.01235-33.45298 55.79958-105.97905 55.79958-150.53841 11.10639-33.45298-44.55937-22.3466-117.08543 27.83288-144.91831 16.72648-11.10639 39.07308-16.72649 61.28586-16.72649 11.10638 0 27.83288 5.6201 39.07308 11.10639 27.83288 11.10639 39.07308 39.07308 55.79957 61.28586 5.6201 16.72649 5.6201 27.83288 5.6201 44.55937-5.6201 72.52606-72.52606 122.70554-144.91831 105.97904-83.63246-22.34659-122.70554-122.70553-72.52606-195.09778 11.10638-16.72649 22.34659-27.83288 39.07308-39.07308 78.01235-44.559372 167.2649-5.6201 200.71788 66.90596 39.07309 94.73884-39.07308 206.33797-139.43202 200.71788-27.83288-5.62012-55.79958-5.62012-78.01235-22.3466-22.34659-11.10638-27.83288-27.83287-39.07309-39.07307-66.90596-78.01235-33.45298-195.09778 55.79958-239.79097 39.07308-16.726484 83.63245-16.726484 128.19182-5.6201 94.73883 33.45298 139.43201 144.91832 94.73883 234.17087-11.10637 27.83288-33.45297 44.55935-55.79956 66.90596-22.34659 16.72649-50.17947 27.83289-78.01235 33.45298-44.55937 5.62012-89.25256-5.62009-128.19182-27.83286-94.73884-66.90598-117.08544-211.82429-22.3466-289.97045 16.7265-11.1064 27.83288-33.452984 50.17948-39.073085 33.45298-11.106392 66.90596-22.346593 105.97904-16.726492 27.83288 5.6201 55.79957 16.726492 78.01235 27.832879 16.72649 16.726488 39.07309 22.346598 50.17946 44.559368 11.10641 16.72649 27.8329 33.45298 33.45298 55.79957 22.34661 66.90596 16.72649 139.43203-27.83286 195.09781-16.72649 22.34657-33.45298 44.55934-61.28587 55.79954-22.34659 5.62012-39.07308 22.34661-61.28586 22.34661-39.07308 0-83.63245 5.62008-122.70553-11.10641-117.08543-44.55934-167.26491-195.09777-105.97905-306.69691 16.7265-33.45298 44.55937-61.285864 78.01236-83.632457 44.55936-22.34659 89.25255-33.452979 139.43202-27.832879 61.28586 5.6201 111.46532 39.07308 156.1585 83.632456 22.34661 22.34659 27.8329 50.17947 39.0731 78.01234 11.10637 16.7265 5.62008 39.07309 11.10637 61.28586 11.10645 172.88502-195.09777 301.07685-351.25629 211.82429-27.83287-16.72649-50.17946-27.8329-66.90596-50.17947-61.28586-72.52608-78.01235-167.26492-50.17947-256.51747 16.72649-33.45298 39.07309-61.28586 61.28587-89.252546 39.07308-39.073083 94.73884-55.799574 144.9183-72.526064" fill="#221b35" opacity=".9"/><path d="m231.45148 15.388371c-120.56454 21.008472-220.12061 131.001869-209.68329 256.785079 5.21867 41.88313 15.78981 78.68141 41.88314 115.34586 15.7898 15.65602 31.4458 31.44582 47.23561 47.1018 31.4458 21.0085 68.11026 41.88314 104.77473 47.23563 36.66447 5.21866 73.32893 5.21866 104.77473-5.21866 36.66447-15.65601 68.11026-31.44582 94.33742-57.67295 31.44579-36.66448 52.45425-78.68141 62.89161-131.00187v-57.67294c-5.2187-26.22714-10.43736-47.23561-21.00851-73.32894-10.43731-21.00847-26.22712-41.88313-47.10179-57.672935-26.22713-26.227136-57.67292-41.88313-94.33739-52.454272-26.22714-5.218666-52.45427-10.43733-83.90008-5.218666-73.32893 10.437332-131.00187 57.672938-162.44767 120.564543-10.43733 26.22713-15.78981 57.67294-21.00847 83.90008 0 31.44579 5.21866 62.8916 15.78981 89.11874 21.00847 41.88313 52.45427 83.90006 99.55607 104.77473 15.7898 5.21866 31.4458 10.43732 52.45427 15.65601 115.34588 21.00847 220.12062-52.45428 235.91043-167.66635 10.43732-73.32894-21.00847-131.00188-68.11026-178.23748-94.33742-83.900079-251.56643-41.883137-293.44956 73.32893-5.21867 26.22713-15.78981 52.45427-15.78981 78.68141 5.21866 73.32893 52.45427 141.573 125.78321 162.44767 57.67293 15.78981 115.34587 5.21866 162.44767-31.44578 10.43733-10.43736 21.00849-21.00849 31.4458-31.44582 57.67295-78.68141 41.88314-183.45615-41.88313-241.12909-26.22714-15.7898-52.45428-21.008465-83.90008-26.227131-21.00847-5.218666-41.88313 5.218666-62.8916 10.437331-26.22714 15.7898-47.23561 21.00847-68.11027 47.1018-26.22713 31.4458-31.4458 62.8916-36.66447 99.55606 0 52.45428 26.22714 110.12722 78.68142 136.22052 73.32893 41.88314 173.01881 10.43736 209.68327-68.11025 21.00847-52.45427 10.43736-120.56454-36.66446-162.44767-31.4458-26.22714-62.8916-36.66447-104.77473-36.66447-62.89161 5.21867-104.77474 52.45428-115.34588 115.34588-10.43733 68.11027 31.4458 131.00187 99.55607 141.57302 94.3374 15.65599 173.01881-83.90008 131.00187-167.66635-10.43733-15.7898-26.22714-36.66446-47.1018-47.2356-26.22713-10.43733-52.45427-15.656-78.68141-10.43733-31.4458 5.21866-52.45427 26.22713-68.11027 47.23561-15.7898 26.22713-15.7898 52.45427-10.43732 78.6814 10.43732 31.44581 36.66446 57.67295 68.11026 68.11027 41.88314 15.78981 83.90008-5.21866 104.77474-36.66446 31.4458-52.45428 5.21866-110.12721-47.1018-131.00187-47.23561-15.78981-115.34588 26.22713-99.55607 83.90007 5.21867 15.65599 10.43733 36.66447 26.22714 47.23561 21.00847 15.78981 47.10179 15.78981 68.11027 10.43733 21.00847-10.43733 36.66446-31.4458 36.66446-57.67294-5.21866-15.7898-5.21866-36.66447-21.00847-47.23561-13.11356-7.8949-27.5318-10.50423-40.62864-7.86145-13.09684 2.64279-24.87229 10.53769-32.70029 23.65126-5.21867 15.656-10.43733 31.4458 8.9654 42.15076 39.20689-46.70036 33.05154-.26763 27.96669-16.05744v5.21867c15.78981-5.21867 21.00847-21.00847 26.22714-31.4458 5.21866 5.21866 15.65599 10.43733 15.65599 21.00847 10.43733 36.66447-26.22714 68.11027-62.8916 57.67294-31.4458-10.43733-41.88313-47.23561-36.66447-78.68141 5.21867-21.00848 21.00847-36.66447 47.1018-41.88314 31.4458-5.21866 62.8916 10.43734 78.68141 36.66447 15.65599 26.22714 15.65599 47.23561 0 73.32893-31.4458 52.45428-99.55607 52.45428-141.57302 10.43734-31.4458-41.88313-21.00847-110.12722 26.22714-136.22054 15.78981-10.43733 36.66447-15.656 57.67294-15.656 10.43733 0 26.22714 5.21867 36.66447 10.43733 26.22713 10.43733 36.66446 36.66447 52.45427 57.67294 5.21866 15.78981 5.21866 26.22714 5.21866 41.88314-5.21866 68.11026-68.11026 115.34586-136.22053 99.55606-78.68141-21.00847-115.34588-115.34587-68.11027-183.45614 10.43733-15.656 21.00847-26.22714 36.66447-36.66447 73.32893-41.88313 157.22901-5.21866 188.67481 62.8916 36.66448 89.11874-36.66447 193.89349-131.00188 188.67483-26.22713-5.21866-52.45427-5.21866-73.32893-21.00848-21.00847-10.43734-26.22713-26.22714-36.66447-36.66447-62.8916-73.32893-31.4458-183.45615 52.45428-225.33928 36.66446-15.789805 78.68141-15.789805 120.56454-5.21866 89.11872 31.4458 131.00186 136.22053 89.11872 220.12061-10.43731 26.22714-31.44578 41.88313-52.45425 62.89162-21.00847 15.78977-47.23561 26.22712-73.32894 31.44578-41.88313 5.21866-83.90007-5.21866-120.56454-26.22712-89.11874-62.89162-110.12721-199.11215-21.00847-272.5749 15.656-10.43733 26.22714-31.445801 47.1018-36.664467 31.4458-10.437328 62.8916-21.00847 99.55607-15.655994 26.22713 5.218666 52.45427 15.655994 73.32893 26.227136 15.65599 15.789805 36.66446 21.008475 47.10181 41.883135 10.43732 15.7898 26.22713 31.4458 31.44578 52.45427 21.00847 62.8916 15.78981 131.00187-26.22712 183.45615-15.78981 21.00846-31.44582 41.88313-57.67295 52.45428-21.00847 5.21866-36.66446 21.00847-57.67294 21.00847-36.66446 0-78.68141 5.21866-115.34587-10.43735-110.12721-41.8831-157.22901-183.45614-99.55607-288.23087 15.7898-31.4458 41.88313-57.672937 73.32893-78.681407 41.88313-21.008474 83.90008-31.445802 131.00187-26.22714 57.67294 5.218666 104.77473 36.664468 146.79166 78.681417 21.00851 21.00847 26.22717 47.10179 36.66448 73.32893 10.43732 15.78981 5.21866 36.66446 10.43732 57.67293 10.43735 162.44767-183.45613 283.01222-330.24781 199.11215-26.22713-15.65601-47.23561-26.22713-62.8916-47.23563-57.67294-68.11025-73.32893-157.22899-47.23561-241.12907 15.78981-31.4458 36.66447-57.67293 57.67294-83.900069 36.66447-36.664468 89.11874-52.454275 136.22054-68.11027" opacity=".9"/></g></g><path d="m362.34969 417.48281-72.7686-141.0246-24.57-28.314 15.0147 54.4176-215.347496-309.5207936h-20.133005l128.048401 188.0414936-154.503005-168.090293 89.077505 124.692293-146.949305-144.6434936h-21.855595v29.0609996l322.0137 305.009994-322.0137-260.806492v53.047792l320.3478 225.2016z" fill="#775fa0" filter="url(#a)" opacity=".9"/><path d="m196.90255 127.88317a17.997626 18.006002 0 0 0 -15.05784 6.92119l-55.99923 71.94604h8.79368a17.997626 18.006002 0 0 0 -.0101.003c-13.77268.005-24.32098 10.68322-28.29879 19.51923-3.97882 8.83824-4.80466 17.17403-4.03212 25.2129.78157 8.1328 3.87205 14.6593 8.66763 20.57186 4.79557 5.91256 12.16819 11.93683 23.04812 12.31555 12.28739.42771 21.36756-6.39401 27.07017-12.857 5.7026-6.46299 9.25107-13.46181 11.49128-20.4962 1.26396-3.96888 1.31092-6.79361 1.04375-9.16603l34.28226-50.15171 33.08053 21.25626c-.62545 3.18108-1.12063 6.53606-1.18997 10.24893-.21149 11.32375.20235 24.04967 4.17666 36.39341-2.62637 4.67062-4.06538 9.52196-5.54143 14.3132-2.73842 8.88888-4.31937 18.03101-5.18344 25.83506-.62252 5.62239-1.33543 13.02932-.91769 20.86446.27636 5.18329.21218 11.34865 3.46739 17.51148l-10.45763 65.88411-67.02999 21.53371c-11.64807 2.45741-16.51851 10.06843-20.40599 16.83046-4.17483 7.26184-7.19715 15.19513-5.80195 25.6854 1.18434 8.90486 5.27581 15.63163 10.74671 21.20412 5.47091 5.57249 12.9269 10.484 23.19436 10.72818 11.6386.27677 20.93494-4.13364 28.97445-10.78871 5.05004-4.1804 10.03875-10.04873 12.55857-17.36687l56.01436-27.63094a17.997626 18.006002 0 0 0 9.33824-11.17882l17.98571-62.67576 33.45029 52.53611a17.997626 18.006002 0 0 0 3.55815 4.07604l62.14237 52.57311c4.22032 7.69045 10.86712 13.19523 17.75377 16.37308 8.38503 3.86928 17.411 5.07158 26.59954 2.92755 9.76948-2.27959 16.59922-7.64181 22.09179-14.54526s10.34228-16.70024 7.35328-28.75252c-4.86194-19.60429-24.14213-31.88289-44.61047-29.40495l-53.28312-35.51521-28.39963-62.40503c.68279-2.3903 1.31728-4.7935 1.80512-7.37015 1.20048-6.34068 2.01304-13.04931 1.66058-20.02033-.41158-8.1403-2.15214-16.35918-4.38844-24.00051-.77262-2.64001-1.72225-5.03933-2.64718-7.47441 6.55559-11.35609 9.65-23.89253 11.72659-35.24996.88455-4.83781 1.04141-9.33307.89752-13.49935l53.96049-28.90217 25.45496 33.23885c-.14453 1.95405-.15386 3.82702-.0353 5.50533.41938 5.93686 1.92971 10.8774 4.44894 15.69207 3.00358 5.74027 7.06555 11.10303 12.82749 15.75595 5.76194 4.65293 13.97225 9.01035 24.2465 8.13526 9.61155-.81865 16.55374-5.24231 22.13548-10.87616 5.58175-5.63384 10.40788-13.19118 10.33494-23.67093-.0727-10.45462-4.38454-19.29784-10.9669-26.29916-4.6244-4.91874-10.83218-9.00127-18.08655-11.02244l-48.98381-60.93545a17.997626 18.006002 0 0 0 -22.1943-4.75706l-81.95001 41.78608c-3.7864.42389-17.38989 1.92535-20.78752 1.69499-3.70851-.25144-18.74989-4.04803-21.61277-4.77387l-70.32931-40.87133a17.997626 18.006002 0 0 0 -8.18021-2.41468z" stroke-linecap="round" stroke-linejoin="round" stroke-width=".999995"/><path d="m268.5563 188.00479-72.51261-42.13847-61.40285 78.88825h-.002v.002c-11.5755 0-15.34882 15.4256-14.42816 25.00578.70187 7.30342 7.09891 16.36207 14.42816 16.6172 9.80014.34113 17.81229-11.47646 20.7892-20.8241.73879-2.31984-.67197-5.92137-1.22006-7.20152l48.70797-71.25206 58.9187 37.8597c-2.01514 6.10177-3.93222 12.24394-4.05061 18.58262-.24774 13.26513 1.38334 29.02839 7.01882 39.17802-7.76037 5.67188-12.15649 25.31406-13.67291 39.00987-1.15993 10.47617-2.28994 26.84987 3.67748 31.40598l-13.43423 84.62816-78.14144 25.10359c-7.06598.91922-14.45701 14.08864-13.29641 22.81503 1.02066 7.67421 8.79444 16.12291 16.53051 16.30689 11.03734.26247 26.27703-10.65051 24.663-22.11826l64.49878-31.81628 25.09865-87.46154c5.84304.65819 8.09523-.66783 12.00559-.89625l46.80721 73.51491 65.07866 55.05675c3.70322 10.54621 16.35306 15.21493 25.70876 13.03189 8.69193-2.02815 18.21601-12.76291 16.06667-21.42948-2.73135-11.01335-16.5556-19.58138-30.77323-14.52503l-63.90548-42.5949-33.6419-73.92689c2.53375-3.27259 5.45051-17.92291 4.98679-27.09453-.59513-11.77049-5.94697-29.8495-9.87441-33.94846 7.57683-8.76815 12.45003-23.87701 14.83599-36.92645 1.22898-6.72166.45367-13.6648-.41683-20.49536l77.96161-41.75841 40.43717 52.80179c-3.46041 3.71189-2.14096 11.53886.39029 16.37648 3.75087 7.16848 11.54487 14.98944 19.60327 14.30308 7.62791-.64969 16.0547-8.8235 16.00139-16.48238-.0682-9.80999-9.21283-20.82318-20.78752-20.82409l-53.27727-66.27508-84.87368 43.27687s-18.16105 2.74252-27.25167 2.12618c-9.27297-.6287-27.25168-5.90122-27.25168-5.90122z" fill="#775fa0" stroke-linecap="round" stroke-linejoin="round" stroke-width="36"/><path d="m298.71399 88.185557c-14.73374-.000817-27.70977 7.836057-36.02015 18.525443-8.31038 10.68938-12.79724 24.39317-12.79724 39.15448 0 14.76187 4.487 28.46474 12.79724 39.15448 8.31023 10.68974 21.28495 18.5288 36.01848 18.5288 14.73316 0 27.70716-7.83303 36.02351-18.52039 8.31635-10.68737 12.81236-24.3941 12.81236-39.16121 0-14.76655-4.49634-28.4721-12.81236-39.15952-8.31602-10.687426-21.28833-18.521286-36.02184-18.522083z" stroke-width=".999995"/><path d="m267.89227 145.86539c0 22.03403 13.74285 39.67837 30.81999 39.67837 17.07716 0 30.84026-17.64334 30.84026-39.67652 0-22.03147-13.7631-39.67651-30.84026-39.67744-17.07714-.00094-30.81999 17.64327-30.81999 39.67559z" fill="#775fa0" stroke-width="36"/></svg>