<svg height="500" viewBox="0 0 500 500" width="500" xmlns="http://www.w3.org/2000/svg" xmlns:xlink="http://www.w3.org/1999/xlink"><filter id="a" color-interpolation-filters="sRGB" height="1.05433" width="1.053674" x="-.026837" y="-.027165"><feGaussianBlur stdDeviation="5.3997353"/></filter><filter id="b" color-interpolation-filters="sRGB" height="1.054324" width="1.05368" x="-.02684" y="-.027162"><feGaussianBlur stdDeviation="1.8418803"/></filter><filter id="c" color-interpolation-filters="sRGB" height="1.006037" width="1.005963" x="-.002982" y="-.003019"><feGaussianBlur stdDeviation=".1996543"/></filter><filter id="d" color-interpolation-filters="sRGB" height="1.149865" width="1.150136" x="-.075068" y="-.074932"><feGaussianBlur stdDeviation="5.6965816"/></filter><g transform="translate(.000015)"><circle cx="-249.99998" cy="250" fill="#e51a1a" r="250" transform="scale(-1 1)"/><path d="m181.33938 83.856939c97.52275-31.84694 203.27597 26.159281 217.12696 131.568651 10.04116 85.89723-45.79566 162.6049-131.11288 174.6444-76.26503 6.65-147.16573-45.4981-149.44603-126.3231.16679-50.89801 30.03241-87.97493 76.60677-108.40662 44.00125-16.48183 90.46555-3.00917 112.28155 39.63622 17.95322 40.0953 3.57775 87.31302-40.4313 103.80676-21.98685 8.23292-51.6578-5.55285-56.72562-31.5612 24.48155 21.7253 69.7211 11.74379 80.1808-21.06198 5.24648-24.88185-11.48198-41.52298-24.36368-55.64156-23.21161-15.22125-63.26956-13.16738-85.32502 12.05139-41.51846 46.43224-18.48961 112.52397 35.72777 131.08081 60.66482 17.11352 118.96473-29.63961 126.96137-92.39988 2.7637-54.83226-40.99398-106.19486-96.51046-114.27807-76.21988-10.3001-138.45939 50.84936-147.743191 124.09106-9.31956 73.21828 47.315731 138.67973 111.863041 158.33924 49.05305 9.49897 98.18701 2.07129 139.64056-27.40671 82.90715-58.95602 100.11901-177.97214 43.55644-260.39974-52.71171-79.885311-158.575-103.987181-249.15842-67.061741-86.705021 39.45169-149.0660905 134.549061-117.102931 229.167621 15.77888-74.65377 50.93986-153.5943 123.407351-187.514491 9.28724-4.60517 19.44718-8.7232 30.56692-12.33106zm-160.722321 286.075591c-52.57825-113.8254-.38403-260.89182 113.777041-317.643861 10.84604-5.32012 22.21219-9.7712 34.03518-13.36069 115.76394-28.75816 246.03978 34.00351 263.68455 158.897471 10.04526 85.91695-27.72044 168.80365-107.97396 206.83173-102.24035 46.26108-224.798841-11.43986-234.690511-131.24969-7.33455-123.78718 127.307171-194.136761 222.718561-137.24102-42.54074-27.89653-94.21826-33.44528-140.80825-12.98978-71.17376 32.62266-105.080851 118.0397-80.762351 190.63139 30.697281 88.13423 123.572931 132.04164 212.817841 105.59803 82.80488-25.06359 132.16266-100.33164 140.19255-180.04986 12.12434-145.020371-132.23823-245.3588802-265.59709-221.973611 7.92036-4.10499 20.5989-8.4277792 35.61563-11.7452592 60.06317-13.23825 124.63426-3.45807 179.45368 32.4903392 109.65077 71.904621 141.09454 217.803071 65.16008 333.599141-143.00482 218.07486-377.311781 117.06797-437.622951-1.79433" fill="#b21a1a"/></g><path d="m-18-18v18.00195313 46.89062487l5.566406 5.318359c76.102489 72.694753 150.543534 152.413283 184.591794 211.792973 9.39123 16.38157 27.04626 51.67525 39.08985 86.73828-40.68359-12.94016-69.70677-30.15953-108.7898-48.80173 16.66168 40.39986 40.61204 78.0638 67.90894 105.65134 44.47803 44.48028 97.74663 72.16891 149.23633 80.69726 51.49009 8.52842 102.2917-2.58734 137.11328-37.41015 34.82234-34.82359 45.93529-85.62474 37.40625-137.11524s-36.21774-104.76018-80.69727-149.24023c-33.15437-33.6014-60.97552-46.52008-103.04823-65.31484 15.45362 39.06994 40.68126 78.48938 48.83143 115.9789-38.99525-13.54122-79.76067-32.05601-97.01367-41.87891-59.90806-34.10876-140.33737-108.963418-213.482419-185.726559l-5.320313-5.582031z" fill="#861313"/><g stroke-width="36"><path d="m-2 0v40.048828c16.955372 16.197976 33.726694 32.589742 50.224609 49.253906 16.209221 16.397366 32.256456 33.128316 47.809539 50.163046 14.912792 16.34177 29.462362 33.02367 43.358432 50.24125 9.3717 11.61471 18.53537 23.60633 27.08984 35.80859 9.18531 13.11164 17.76107 26.66901 25.23935 40.83154 7.74985 14.53851 14.85428 29.39834 21.39054 44.5778 5.69764 13.28152 10.96201 26.88221 15.43275 40.72588 1.23837 3.82955 2.47269 7.85953 3.57335 11.76666.72023 2.55008 1.42673 5.16294 2.07625 7.74391.28116.68435-.91865.0522-1.30017.1472-28.52898-3.72331-56.10892-13.45031-81.28707-27.26112-4.92478-2.64623-9.63776-5.65903-14.54466-8.33644-.68954-.38741-1.37908-.77481-2.06862-1.16222 2.52906 4.42691 5.12211 8.81693 7.9023 13.09163 12.18078 19.00255 26.34481 36.78564 42.64132 52.42806 25.37935 24.48896 55.04528 44.73764 87.68471 58.2412 23.31532 9.62043 48.22272 15.79211 73.48917 16.65296 21.22986.7175 42.78612-2.48306 62.37265-10.90636 15.73073-6.7302 30.00177-16.91527 41.28782-29.79203 11.61552-13.15186 19.97576-29.03677 24.82846-45.86844 6.97885-24.09476 7.10744-49.7833 2.73261-74.36336-5.15485-28.85473-16.35427-56.43457-31.38295-81.52697-13.71947-22.84287-30.66104-43.72377-49.98872-62.05409-15.3882-14.49933-32.48836-27.12704-50.57245-38.05534-1.86744-1.08321-3.73489-2.16641-5.60234-3.24961 2.01185 3.61642 4.05108 7.21667 6.18853 10.76039 8.43295 14.42399 15.54761 29.63285 21.01264 45.42711.3137.94595.72187 2.14876 1.07187 3.19341 5.28678 16.11378 8.836 32.84006 9.98282 49.77534-7.87856-2.28782-15.84292-4.8574-23.70817-7.55361-5.85471-2.01471-11.82286-4.16166-17.63515-6.34174-17.8066-6.68164-35.43722-14.02201-52.67817-21.95426-12.93656-5.99409-25.78477-12.25377-37.95065-19.71461-6.80183-4.10717-13.45571-8.45523-20.01419-12.93968-2.52534-1.73752-5.16804-3.57506-7.66606-5.36245-12.12023-8.63154-23.85372-17.70367-35.40692-27.09228-28.98673-23.61255-56.58418-48.958869-83.45498-74.989589-18.121589-17.594854-35.90712-35.540067-53.436493-53.7543432-3.39562-3.5160379-6.764935-7.0592512-10.156641-10.6001678-12.845052 0-25.690104 0-38.535156 0zm365.35938 267.36719c15.26068-.0129 30.50977 3.94397 43.79651 11.46175 15.84179 8.90386 28.82859 22.7785 36.64907 39.18332 3.22801 6.74348 5.60282 13.89576 7.03488 21.23383-9.60835-13.44647-23.79886-23.55726-39.68358-28.14733-17.25373-5.06664-36.33953-3.62297-52.59608 4.0859-15.30545 7.15746-28.00215 19.69993-35.36439 34.90669-7.37334 15.06198-9.37355 32.6594-5.63944 49.00042.70517 1.89584 1.41035 3.79169 2.11553 5.68753.59644-2.10403 1.34255-4.17466 1.84309-6.30008.29318-2.06914.75387-4.11318 1.35612-6.11399.10673-.35497.34805-1.10313.52312-1.60117 3.81023-11.02483 12.48343-20.23138 23.25114-24.71168.63251-.2678 1.49181-.59764 1.99394-.77686 10.56606-3.84861 22.69951-3.07424 32.68755 2.09499 2.10977 1.08163 4.12845 2.34238 6.02472 3.76621.34364.25583.98052.74812 1.41932 1.11193 8.53416 6.93893 14.16546 17.36353 15.10684 28.3391.95694 10.01878-1.96428 20.32521-7.99435 28.37842-6.57083 8.90995-16.80097 15.05362-27.79642 16.4829-3.39129.4799-6.83627.44924-10.23805.12464-2.4462.11655-4.87888-.30697-7.30007-.60301.29093.28562 1.67966.89413.62909.78517-.61737.0198-1.48711.23404-.94404-.64054-.0631-.42411-1.09736-.23158-1.54562-.42836-17.4878-2.81351-34.03841-11.05345-46.8618-23.26651-1.6422-1.54743-3.2092-3.17255-4.73271-4.83648-.26832-.29779-.79677-.89823-1.16466-1.31186-11.39382-13.03851-18.85126-29.4697-21.09755-46.64296-2.39475-17.73103.5928-36.18151 8.67944-52.15959 8.36665-16.72333 22.16115-30.65467 38.79064-39.20286 12.63133-6.53837 26.83986-9.92593 41.05776-9.89952z" fill="#e51a1a" filter="url(#a)"/><path d="m.00000029.00200536v39.19268064c76.57564671 73.146724 151.63183971 152.826214 187.77319971 215.856234 12.62037 22.01433 38.17564 73.09262 49.13535 118.75297-31.47484-3.39359-64.86675-14.65718-96.51586-33.92899 11.62377 19.05645 25.61136 37.90055 42.70095 54.98876 84.03069 84.03568 200.87236 103.3125 260.89429 43.28844 60.02393-60.02607 40.7438-176.86589-43.28991-260.90059-17.08959-17.09119-35.93002-31.07928-54.98378-42.70346 21.35047 35.06788 33.32381 72.06593 35.09667 106.4657-47.37649-13.45821-103.92781-38.62875-127.52191-52.06191-63.58769-36.20376-143.9875-111.689331-217.608379-188.95183795h-35.68062071z" fill="#ff8066"/><g opacity=".9" transform="translate(-23.01878 -16.154182)"><path d="m147.67578-17.103516v14.0039066c8.96964 8.582477 17.81297 17.3009774 26.36328 26.3027344 7.00684 7.392467 13.96018 15.096373 20.39164 22.971681 7.44415 9.155676 14.47942 18.745199 19.76825 29.331474 1.37264 2.658556 2.72391 5.488325 3.93972 8.122626 2.66675 5.864323 5.13947 11.96827 7.08008 18.029294.45348 1.42608.87989 2.86058 1.2793 4.30274-10.37014-1.57921-20.2736-5.57297-29.20255-11.020881-1.96308-1.105019-3.92617-2.210039-5.88925-3.315059 2.42553 4.216587 4.8013 8.47171 7.64063 12.42969 7.71735 11.08707 17.83274 20.45886 29.33789 27.51562 11.13506 6.77169 23.80432 11.391 36.89681 12.00924 9.59215.44798 19.48524-1.47774 27.69622-6.61199 7.63186-4.69108 13.48746-12.08916 16.50006-20.50857 3.63261-9.98814 3.58948-21.00267 1.30882-31.290543-3.33178-14.95906-11.14528-28.682-21.30628-40.056498-7.30949-8.229658-16.1001-15.086681-25.68646-20.469876-1.14551-.663243-2.29101-1.326486-3.43652-1.989729 1.89299 3.422469 3.86332 6.800464 5.79095 10.202663 2.21571 4.062537 4.11294 8.301234 5.62311 12.676243.41537 1.206411.87687 2.652075 1.24732 3.971802 1.0731 3.769393 1.83616 7.629938 2.2312 11.530151-6.26578-1.921435-12.42-4.19017-18.49609-6.642578-1.62046-.668849-3.43985-1.416975-5.12378-2.146242-5.5668-2.421102-11.17715-4.9548-16.50764-7.994198-4.08379-2.356246-8.00914-4.976835-11.84124-7.720888-1.09087-.79044-2.37563-1.72363-3.5224-2.593827-3.24936-2.436072-6.42134-4.966452-9.51125-7.518022-12.52996-10.386412-24.49661-21.8052858-36.0268-33.4414773-3.94641-3.9872657-7.842-8.0245297-11.71885-12.0794867-4.94205 0-9.88411 0-14.82617 0v2z" fill="#e51a1a" filter="url(#b)"/><path d="m149.67513-17.102914v13.1518822c25.69648 24.5458358 50.88307 51.2838708 63.01103 72.4348478 4.23501 7.387343 12.81059 24.527681 16.48834 39.849914-10.56201-1.13879-21.76733-4.9185-32.38781-11.385547 3.90058 6.394777 8.59439 12.718287 14.32915 18.452577 28.19817 28.19984 67.40671 34.66856 87.54827 14.52629 20.14221-20.14294 13.67239-59.350858-14.5268-87.550373-5.73475-5.735289-12.05703-10.42927-18.4509-14.329995 7.16458 11.767724 11.18247 24.183156 11.77739 35.726678-15.89813-4.51617-34.87505-12.962642-42.79252-17.470405-21.33811-12.148891-48.31786-37.4795728-73.02281-63.406541h-11.97334zm121.90636 89.048137c16.00905 0 29.09289 12.199973 30.4945 27.836828-4.10899-7.630025-12.16964-12.817436-21.44299-12.817436-13.44282 0-24.34127 10.898169-24.34127 24.342135 0 1.83592.20502 3.62343.59089 5.34338.95287-7.11912 7.0913-12.66316 14.45888-12.66316 8.02167 0 14.592 6.57124 14.592 14.59251 0 8.02195-6.57033 14.59218-14.592 14.59218-.53441 0-1.0611-.0312-1.58073-.0881.0383.0192.0756.0404.11427.0591-16.15088-.88166-28.91509-14.19791-28.91509-30.5739 0-16.950088 13.67206-30.623303 30.6212-30.623303z" fill="#ff8066" filter="url(#c)"/></g><g opacity=".9" transform="translate(-164.01364 339.95683)"><path d="m147.67578-17.103516v14.0039066c8.96964 8.582477 17.81297 17.3009774 26.36328 26.3027344 7.00684 7.392467 13.96018 15.096373 20.39164 22.971681 7.44415 9.155676 14.47942 18.745199 19.76825 29.331474 1.37264 2.658556 2.72391 5.488325 3.93972 8.122626 2.66675 5.864323 5.13947 11.96827 7.08008 18.029294.45348 1.42608.87989 2.86058 1.2793 4.30274-10.37014-1.57921-20.2736-5.57297-29.20255-11.020881-1.96308-1.105019-3.92617-2.210039-5.88925-3.315059 2.42553 4.216587 4.8013 8.47171 7.64063 12.42969 7.71735 11.08707 17.83274 20.45886 29.33789 27.51562 11.13506 6.77169 23.80432 11.391 36.89681 12.00924 9.59215.44798 19.48524-1.47774 27.69622-6.61199 7.63186-4.69108 13.48746-12.08916 16.50006-20.50857 3.63261-9.98814 3.58948-21.00267 1.30882-31.290543-3.33178-14.95906-11.14528-28.682-21.30628-40.056498-7.30949-8.229658-16.1001-15.086681-25.68646-20.469876-1.14551-.663243-2.29101-1.326486-3.43652-1.989729 1.89299 3.422469 3.86332 6.800464 5.79095 10.202663 2.21571 4.062537 4.11294 8.301234 5.62311 12.676243.41537 1.206411.87687 2.652075 1.24732 3.971802 1.0731 3.769393 1.83616 7.629938 2.2312 11.530151-6.26578-1.921435-12.42-4.19017-18.49609-6.642578-1.62046-.668849-3.43985-1.416975-5.12378-2.146242-5.5668-2.421102-11.17715-4.9548-16.50764-7.994198-4.08379-2.356246-8.00914-4.976835-11.84124-7.720888-1.09087-.79044-2.37563-1.72363-3.5224-2.593827-3.24936-2.436072-6.42134-4.966452-9.51125-7.518022-12.52996-10.386412-24.49661-21.8052858-36.0268-33.4414773-3.94641-3.9872657-7.842-8.0245297-11.71885-12.0794867-4.94205 0-9.88411 0-14.82617 0v2z" fill="#e51a1a" filter="url(#b)"/><path d="m149.67513-17.102914v13.1518822c25.69648 24.5458358 50.88307 51.2838708 63.01103 72.4348478 4.23501 7.387343 12.81059 24.527681 16.48834 39.849914-10.56201-1.13879-21.76733-4.9185-32.38781-11.385547 3.90058 6.394777 8.59439 12.718287 14.32915 18.452577 28.19817 28.19984 67.40671 34.66856 87.54827 14.52629 20.14221-20.14294 13.67239-59.350858-14.5268-87.550373-5.73475-5.735289-12.05703-10.42927-18.4509-14.329995 7.16458 11.767724 11.18247 24.183156 11.77739 35.726678-15.89813-4.51617-34.87505-12.962642-42.79252-17.470405-21.33811-12.148891-48.31786-37.4795728-73.02281-63.406541h-11.97334zm121.90636 89.048137c16.00905 0 29.09289 12.199973 30.4945 27.836828-4.10899-7.630025-12.16964-12.817436-21.44299-12.817436-13.44282 0-24.34127 10.898169-24.34127 24.342135 0 1.83592.20502 3.62343.59089 5.34338.95287-7.11912 7.0913-12.66316 14.45888-12.66316 8.02167 0 14.592 6.57124 14.592 14.59251 0 8.02195-6.57033 14.59218-14.592 14.59218-.53441 0-1.0611-.0312-1.58073-.0881.0383.0192.0756.0404.11427.0591-16.15088-.88166-28.91509-14.19791-28.91509-30.5739 0-16.950088 13.67206-30.623303 30.6212-30.623303z" fill="#ff8066" filter="url(#c)"/></g><path d="m363.28161 265.36594c47.70704 0 86.69699 36.35599 90.87375 82.9539-12.24478-22.73752-36.26557-38.19604-63.90019-38.19604-40.05969 0-72.53713 32.47661-72.53713 72.53972 0 5.47104.61098 10.79782 1.76085 15.92328 2.83958-21.21502 21.13212-37.73628 43.08757-37.73628 23.9046 0 43.48422 19.58232 43.48422 43.48577 0 23.90545-19.57962 43.48476-43.48422 43.48476-1.59258 0-3.16211-.0931-4.71061-.26243.11419.0571.22537.12019.34055.17629-48.12973-2.62734-86.16715-42.30982-86.16715-91.11037 0-50.51135 40.74281-91.2576 91.25135-91.2576z" fill="#e51a1a" filter="url(#d)"/></g></svg>