<svg height="500" viewBox="0 0 500 500" width="500" xmlns="http://www.w3.org/2000/svg" xmlns:xlink="http://www.w3.org/1999/xlink"><radialGradient id="a" cx="1362.7291" cy="216.11429" gradientTransform="matrix(1.0000001 -.0000059 .0000001 1.0000003 -112.72927 33.893757)" gradientUnits="userSpaceOnUse" r="250"><stop offset="0" stop-color="#ff851a"/><stop offset=".42441937" stop-color="#f87000"/><stop offset=".86367416" stop-color="#f26900"/><stop offset="1" stop-color="#e55f00"/></radialGradient><g transform="translate(-1000)"><path d="m1500 250a250 250 0 0 1 -250 250 250 250 0 0 1 -250-250 250 250 0 0 1 250-250 250 250 0 0 1 250 250z" fill="url(#a)" stroke-linecap="round" stroke-linejoin="round" stroke-width="1.002"/><path d="m1309.2298 33.82789c128.5196 30.706851 207.8974 167.48127 169.5927 291.56949-31.3771 95.69524-112.8693 162.03793-212.5543 174.60263 153.1796-8.09118 266.0956-163.0043 218.7012-309.92978-36.4562-114.666588-154.6038-191.5214848-270.6514-169.822657-18.8526 4.215647-38.4387 10.498641-55.8829 18.694487-112.5353 47.459213-168.47522 196.206-99.9632 307.85319 57.6978 93.63045 168.5136 141.8489 267.9993 100.77239-134.92 68.97589-303.283-51.46877-311.488-201.30723-4.4167-117.68321 76.8182-219.674136 190.654-246.26040176-89.0147 9.18391126-152.6601 79.39239576-187.7408 157.21169176-38.45522 102.70317 5.2337 231.75078 109.038 294.08388 114.5107 66.1048 260.3537 29.37245 323.6836-83.60152 42.2104-77.69758 34.3514-177.62383-23.1776-249.88923-57.5404-72.257811-157.5429-102.460489-246.4118-71.877168-81.7429 30.682061-131.1298 101.133078-134.0478 190.176958.6692 92.68536 61.7912 168.55972 147.5399 198.52472 128.5549 37.82014 266.7725-70.33038 233.6823-209.88949-14.7104-64.39775-57.8855-122.14991-125.7378-141.121386-71.391-15.467036-138.9716 1.205-181.2869 64.641366-18.8995 29.2286-28.9384 85.21395-26.105 97.65297m0 0c13.5324-50.18833 30.6277-97.66354 72.2125-128.94941 53.182-38.308183 124.4576-37.093813 181.7444-.48035 50.1457 36.48017 75.4845 90.37713 72.3557 150.91678-6.6674 64.04407-38.4038 109.83277-91.6401 141.00844-63.9019 34.56125-135.3795 4.83213-189.1258-35.28385-78.8706-65.48566-79.7477-186.67235-8.9744-256.76104 63.7369-55.941605 167.0207-64.891564 238.7167-6.65053 78.8163 58.35315 90.3045 169.04089 40.972 246.62443-35.2274 56.41892-88.4571 87.60135-152.5581 93.63158-81.9488 2.18264-160.666-41.91503-196.8695-120.9383-36.2055-79.02511-22.5771-164.33167 26.8727-227.66064 49.4316-63.30896 138.3491-86.746364 220.4504-67.54202" fill="#c50"/></g><path d="m451.32131 326.18949c.73469 7.91415-1.71831 15.8336-3.41304 23.599-.75785 3.47255-3.00934 10.22939-3.00934 10.22939s7.08339.95602 10.46794 2.04437c11.62179 3.73715 24.46195 6.82411 33.29922 15.2464 5.95148 5.67202 11.73384 13.69441 11.33361 21.90609-.50921 10.44782-8.61761 20.16369-17.06194 26.33699-12.89642 9.42804-30.28947 11.61287-46.23249 12.62564-8.8777.56395-17.73113-1.84074-26.42674-3.71634-1.68778-.36405-4.9706-1.45718-4.9706-1.45718s-2.45225 2.50926-3.97864 3.31589c-28.18119 14.89243-60.19943 23.55721-91.96414 26.19683-14.92669 1.24039-29.89398-2.46403-44.65443-5.00838-2.66909-.46009-7.91194-1.85007-7.91194-1.85007s-7.39244 15.83345-14.00212 21.0704c-17.18851 13.6187-39.80875 21.16802-61.66861 22.91745-16.28397 1.3032-32.97206-3.30737-48.06891-9.54843-8.88708-3.67393-18.08357-8.42422-24.0056-16.00099-2.53639-3.24511-4.16687-11.63243-4.16687-11.63243s-5.420023 9.06028-9.509226 12.20157c-7.128342 5.47593-15.850533 10.00905-24.824039 10.53369-14.206224.83057-28.693361-4.79525-40.975238-11.98289-7.487022-4.38158-13.783337-10.98662-18.602443-18.1998-4.7537945-7.11542-8.3557342-15.35299-9.5614999-23.82494-1.14623336-8.05366-1.73191894-17.28356 2.4095838-24.28522 4.9308725-8.33618 14.8979841-13.01597 23.9579761-16.4397 14.393437-5.43922 30.489909-4.28355 45.821926-5.58177 3.877446-.32832 11.66067-.55696 11.66067-.55696l-2.6661-11.366c-.8063-3.43246-1.22403-6.87032-1.27368-10.31358.0248-19.57476 11.86251-37.96975 33.00563-52.10223 21.16255-14.14758 51.27109-23.31269 84.70524-23.31485 22.10918.0302 43.77688 4.13839 62.38127 11.7114l8.90714 3.62675s4.35973-22.73068 11.96634-30.61828c19.43967-20.15778 49.09053-33.9818 77.08869-33.39861 27.50755.57297 56.07017 15.33638 74.30579 35.93869 12.06797 13.63419 15.95356 33.56817 17.63661 51.6981z" fill="#ffa348" opacity=".755365" stroke-width="36"/><path d="m376.20721 91.508478c-40.32798 15.345902-78.36957 36.484572-113.18595 61.931182-30.73201 22.46333-59.01298 48.24494-84.4361 76.56735-22.34022 24.95149-42.53816 51.86679-59.80514 80.5769-12.14821 20.28853-22.859685 41.49772-31.082576 63.69215-8.305288 19.29333-13.188176 39.83573-17.156314 60.39865-2.982386 18.04289-6.931436 32.0813-9.081604 48.80314 0 0 3.864208-5.63094 6.612266-7.57159 2.306179-1.84422 4.612592-3.68814 6.918621-5.53255 3.474165-11.55175 10.460542-17.50718 20.855469-21.13281 1.686546-11.46403 3.583027-22.86278 6.179688-34.16406.43864-1.87013.92904-3.93946 1.41802-5.87834 2.91936-11.52199 6.54499-22.88624 11.197-33.83044 5.83669-13.14154 12.33184-25.91927 19.31684-38.50332 13.16059-23.65387 28.13701-46.38119 44.46199-68.01106 14.8054-19.60774 30.84338-38.46158 47.821-56.22801 21.34096-22.31721 44.30657-43.16462 68.84896-61.97032 6.55209-5.01822 13.41054-10.03183 20.20178-14.72628 20.43356-14.1577 41.92886-26.84322 64.5098-37.270201 2.09111-2.334089 4.18069-4.669538 6.27149-7.003907-3.17273-.06833-6.34211-.272624-9.51563-.28125-.11653.04492-.23307.08984-.34961.134766z" fill="#994100" stroke-width="36"/><path d="m121.82457 384.05078c21.01313-3.8575 40.97091-13.0478 54.08008-16.70508l3.00538-5.82422h16.30322c11.0997-4.06412 21.46053-9.01455 30.92968-14.90429l4.89667-6.6001 8.77716-3.12061c8.87087-7.095 16.4724-15.29427 22.35156-24.5625 28.47065-44.38289 56.16996-85.43262 111.97266-120.56445l7.42695-4.73566 6.68164 1.73975 7.43828-9.44159s23.36208-12.79253 33.13086-19.96875l38.91016-28.58398-6.63281-.53321c3.43553-3.7482 6.74973-7.52872 9.85934-11.39157 17.65718-22.341848 32.18796-47.364011 28.45511-75.192409-1.96046-15.354672-11.20776-29.661619-25.86523-37.582031l-.13477-.07227-.13281-.07031c-3.20615-1.663439-6.3942-3.032119-9.6543-4.121094l-5.32617-1.779297-43.13457 12.51746 5.58672-12.554569-24.25879 2.945313c-25.26758 5.696483-55.9582 16.460105-93.47656 33.019531l2.3789-4.873047-50.01172 27.755859c-20.15922 11.187825-41.08939 25.392686-61.57617 41.710934l-2.17038-4.061098-25.42337 27.383368c-22.88649 20.98881-44.49009 44.35879-62.5957 69.33008-.002.003-.004.007-.006.01-.003.004-.007.008-.01.0117-13.913777 19.13367-25.77592 39.26845-34.24805 60.08594l-39.015624-26.02539 4.070312 38.19922c1.048966 9.84309 3.032959 19.28375 5.837891 28.3457l-25.697191-7.85569 10.722656 32.9082c8.280183 25.41186 24.132483 44.67936 47.418946 58.19141 15.736002 7.91964 32.57683 10.0086 49.13574 6.96875z" fill="#994100"/><g stroke-width="36"><path d="m172.06521 349.69439 4.61667-57.24943 12.34248 52.17313c10.26971-3.76022 19.69145-8.27249 28.07681-13.53682l-19.50301-40.89244 30.90332 32.71397c7.53741-6.01639 13.75577-12.7848 18.46661-20.21122 28.64215-44.6527 58.6033-89.02337 117.58342-126.15561l-43.05736-15.22891 66.04645 1.97411c10.7408-5.45232 22.04689-12.12673 30.6207-18.42511l-46.8261-3.76022 70.38044-16.54499c5.46465-5.45234 10.55239-11.18668 15.16905-16.92102 16.29962-20.624848 27.32305-42.095743 24.68496-61.620719-1.22483-9.767187-7.06632-18.951539-16.58228-24.093649-2.35545-1.222074-4.8993-2.303139-7.06629-3.026982l-96.57295 28.023086 39.10026-26.40619c-24.68497 5.565137-55.87097 16.450992-95.06545 34.020652l-63.97367 66.546612 22.70642-46.485806c-21.95266 12.183138-45.22439 28.154696-67.64814 46.861826l-14.88637 60.44564-3.20339-44.7467c-22.1411 20.30522-42.96317 42.86658-60.20498 66.65001-18.11804 24.91151-32.278895 51.23309-39.373463 77.46068l-26.493972-17.67308c2.37428 22.27933 9.71384 41.64451 21.754816 59.41159l-31.675908-9.68258c7.198225 22.09133 18.965969 36.38017 38.864702 47.94286 12.171276 6.11087 23.803555 7.57246 37.325055 5.09021 17.89609-3.28529 37.76966-12.43985 53.49117-16.6529z" fill="#ffa348"/><path d="m118.18563 357.32132c52.53619-117.29437 160.77293-229.64349 266.82601-278.635499-150.91128 57.347719-253.0049 189.907489-286.156707 280.150529-13.527641 31.30386-17.213495 63.21898-24.028743 95.83898l3.929208-3.14204c1.104433-4.29042 4.493756-16.94971 19.17486-21.94518 3.705542-25.20455 10.275052-48.4017 20.255372-72.26679z" fill="#994100"/><path d="m411.64844 279.45898c-1.76914.1075-3.58135 1.56499-3.39649 3.46133.1298.87777.16297 1.52461.21063 2.42281.11069 2.08796.0633 4.43872-.0536 6.63337-.15997 2.73855-.37128 5.48556-.76159 8.19802-.72471 2.3098-1.29297 4.75689-2.71335 6.75892-.80508 1.27205-2.47796 1.02972-3.77002 1.0529-4.47173.075-8.5762 2.28974-11.98471 5.03442-2.31151 1.82073-4.43028 3.8731-6.45474 6.00464-1.92115-.71102-4.17825-.36171-5.90234.69922-2.84427 2.0142-5.0858 4.734-7.39026 7.3174-.43764.47309-.93982 1.17743-1.32263 1.50682-.1162-3.57815-1.39634-7.21676-4.05704-9.69566-1.5606-1.60982-3.92173-2.6878-6.16327-1.99966-1.92485.37389-3.85127.96216-5.40621 2.20499-3.87604 2.89289-6.19192 7.25441-8.63334 11.31299-.41417.70382-.83743 1.40215-1.23624 2.11484-2.32702-2.13478-5.52034-3.05513-8.63164-3.03795-3.42989-.084-6.78311 1.15594-9.53427 3.16294-3.46486 2.33831-6.54648 5.27863-8.89268 8.74806.0605-.87656-.71686-1.51342-1.41602-1.90235-1.65924-.69141-3.99564-.61281-5.072 1.02205-1.13584 1.74371-1.38025 3.86764-1.97878 5.81584-.60854 1.22513-1.2031 2.57036-2.25195 3.4707-1.70812-.0301-3.26449-.89052-4.95622-1.07409-3.63184-.56094-7.33566-.85415-10.99609-.39207-8.7051.90416-17.18216 4.92215-22.97386 11.54959-3.11916 3.58849-5.24365 8.07078-5.91368 12.78376-.067 1.5032 1.26967 2.68118 2.70118 2.79492 1.73656.26521 3.6013-.96202 3.80863-2.75739.80523-3.88464 3.18265-7.2911 6.23833-9.76305 5.67654-4.89502 13.18626-7.21219 20.58975-7.52057-4.86774 3.51664-9.42965 7.91987-11.64038 13.62175-1.11804 2.85576-1.17987 6.38975.80054 8.88801 1.26596 1.57311 3.56828 1.76942 5.3457 1.04102 3.88293-1.47156 6.47496-4.90482 9.03298-7.99602 2.05563-2.56828 4.0964-5.14827 6.10179-7.75593-1.02691 3.30689-2.27061 6.71384-3.48047 9.84765-4.65202 11.93216-10.29169 23.50174-17.11251 34.34862-1.34469 2.04664-2.7002 4.12394-4.28863 5.97857-16.02911 9.17437-32.6142 17.58758-49.29768 25.61208-.38796.0945-1.44056.87902-1.39719.52577 5.55944-12.98295 9.89403-26.57527 11.80516-40.60103 1.1359-8.06296 1.96347-16.2504 1.21122-24.38869-.56295-4.7781-1.42229-9.55176-2.94369-14.12495-1.181-3.43705-3.01107-6.91395-6.15246-8.92459-2.26726-1.46128-5.27016-1.3455-7.57504-.033-2.92134 1.63384-5.10935 4.30081-6.94254 7.04474-2.80796 4.4016-4.91425 9.21496-6.53561 14.16904-1.36588 3.7347-2.85157 7.33912-4.53686 10.9717-.47086 1.01581-.94907 2.02839-1.44315 3.03309-1.14929-1.56265-3.10096-2.86577-5.11133-2.31445-.57944.19396-1.16027.38379-1.74024.57617.0842.60451-.71866.80619-.97461 1.28906-1.85631 2.18845-2.88865 4.90964-4.18274 7.43746-1.22814 2.74806-2.45629 5.49612-3.68444 8.24418-.67935-2.43674-2.36783-4.88521-4.979-5.44377-2.00948-.45935-4.1599-.28912-6.11475.32854-3.79163 1.4392-6.873 4.20063-9.84766 6.87305-1.00413.93247-1.98655 1.88808-2.95312 2.85937-1.54957-2.46648-4.33828-4.1944-7.29883-4.08203-3.46884.0744-6.69206 1.79951-9.20313 4.10742.63516-1.21328 1.4517-2.61951.84766-4.00976-.76281-1.88066-3.0686-2.44108-4.91211-2.3086-3.52221.30131-6.71068 2.15454-9.25666 4.5254-3.03813 2.82531-6.0037 6.1571-6.88644 10.33277-.36346 1.75726-.25465 3.61249.33841 5.30785-2.28159 2.16411-12.42728 11.87297-18.74537 17.6975-8.94929 8.25017-18.180152 16.19112-27.139959 24.42987-6.819523 6.2707-20.25797 19.02796-20.25797 19.02796s19.76578-12.94521 29.222188-20.0137c5.927846-4.43095 11.671071-9.1182 17.218401-14.01717 7.50715-6.62972 19.8432-19.02816 21.70508-20.777.62056-.52984 1.25598-1.05098 1.97029-1.45098.56138 1.16038 1.07569 2.41189 1.2207 3.68945-.25463.94443-1.04078 1.56789-1.63468 2.28974-1.71572 1.35325-2.32693 3.99586-1.12588 5.88524 1.3793 2.51533 4.52087 3.62179 7.2508 3.06135 3.52186-.45934 6.89606-2.28488 8.95339-5.22 2.2025-2.92343 2.9186-7.23261.86497-10.42427-.86543-1.34665-2.11955-2.38807-3.42188-3.29323 1.89392-3.12896 4.03696-6.15653 6.68777-8.69259 1.13792-.91369 2.2667-1.94304 3.6487-2.46348.45645.005-.007 1.07197.0249 1.49844-.36119 2.46205-1.09604 4.85035-1.53132 7.29435-.22529 1.61575.26657 3.36231 1.5 4.47071-2.15347 1.05366-4.05228 3.35166-3.5864 5.87662.26617 1.30519 1.0293 2.56734 2.10433 3.34394 1.81267 1.05598 4.01449 1.8452 6.09924 1.14555 2.55685-.39395 4.94043-2.26968 5.51564-4.85049.36237-1.81835-.47596-3.7376-1.78516-4.9707-.919-.34147.0264-.64599.37891-1.03711 2.27703-2.14045 3.12266-5.38723 3.2025-8.42062.0164-.5469-.005-1.09435-.0404-1.63993 3.21265-2.86245 6.77851-5.33509 10.61719-7.2832.47951 2.76912.72746 5.58828 1.55486 8.28808.39009 1.18863.61321 2.47724 1.26936 3.54786.93002 1.41755 2.8041 1.693 4.34961 1.3457 1.48535-.2647 2.49393-1.47206 3.30078-2.65039 1.73493-2.12193 3.63073-4.16286 4.81981-6.66346 1.12125-2.08862 2.20754-4.19603 3.23878-6.33068-.44896 2.70079-1.00348 5.38642-1.5922 7.99138-3.47472 15.40159-9.44619 30.43382-17.71523 43.97305-1.6063 2.6044-3.18346 5.23901-4.47577 8.01604-4.02139 1.23119-8.06563 2.48424-12.23421 3.10623-.64725.0601-1.32083.15405-1.95915.0285-1.34487-1.54762-3.71036-1.66365-5.45308-.76384-1.60331.67204-2.9393 2.45187-2.36528 4.23454.4878 1.61812 2.09702 2.56847 3.56836 3.18555 2.67894 1.01439 5.56547.25517 8.24917-.32381 2.24245-.58644 4.42905-1.36046 6.65991-1.98971 1.31791-.38666 2.63255-.84568 3.93467-1.24507 2.03034 1.83603 5.15148 2.0987 7.64844 1.16015 1.96525-.8273 3.39974-2.48796 4.87772-3.9647.83198-.84879 1.53765-1.84582 2.34607-2.68939 7.69596-3.13517 15.40558-6.25418 22.94806-9.7472.55575-.26087 1.11687-.56444 1.66604-.80574 1.75177.65069 3.71892.66515 5.54101.31055 2.85669-.58017 4.80871-3.02948 6.06037-5.49909.26556-.76209 1.23898-.79877 1.8491-1.20777 14.66381-6.90123 29.2425-14.06388 43.67452-21.39275.24144 2.22551 2.31559 3.73347 4.38986 4.12449 3.69224.93779 7.54907-.43762 10.55953-2.57695 5.13917-3.69969 9.05998-8.81512 12.42945-14.11497.59443-.86437 1.0541-1.86413 1.68398-2.67888 5.8065-3.13561 11.7158-6.07481 17.56526-9.12731 3.87631-2.13459 7.81821-4.30624 11.05404-7.36656 1.46571-1.46999 3.04353-3.38773 2.65772-5.61138-.50998-2.25821-2.84954-3.624-5.01534-3.88981-2.58297-.33845-4.79447 1.33447-6.77958 2.74332-3.49121 2.62512-6.83335 5.44607-10.4043 7.9668-.807.57586-1.60809 1.16035-2.42187 1.72656 5.20886-12.56753 8.80134-25.86318 10.00742-39.43518.16045-1.39878.17297-2.83856.36073-4.21558 3.19305-5.04294 6.89123-9.89795 11.67365-13.53634 1.15082-.78591 2.42335-1.71108 3.87421-1.67423.5816.523.70301 1.44515.75586 2.19454-.0674 3.46037-.75184 6.88589-1.61347 10.22712-.2179.63403-.39606 1.37409-.85723 1.85959-.71674.0207-.32907-1.00302-.75781-1.33203-.65745-1.35672-2.4851-1.54717-3.67188-.79492-2.01325 1.02252-3.15338 3.5857-2.27148 5.7207 1.04191 2.84019 4.25197 4.36818 7.1582 4.12305 2.94427-.16759 5.89492-.85068 8.43903-2.38908 4.00546-2.18699 6.95451-6.07455 8.18028-10.45073.79146-2.69692.95305-5.61276.34944-8.36527 2.37112-3.76763 4.85351-7.478 7.60433-10.98033.44734-.76271.70888-.68682.75895.18541.6935 3.04678.25221 6.18361.62447 9.26348.25302 2.51003.58875 5.03398 1.11651 7.49215.93421 1.97952 3.90188 2.71612 5.50365 1.11522 1.63861-2.01847 3.32789-4.00897 5.0782-5.93785.99903-1.12462 2.00982-2.23848 3.02873-3.34511-.58606 1.85538.30279 3.92857 1.9259 4.94234 2.526 1.84795 6.13918 1.3569 8.52393-.48969 3.17877-2.30909 4.82363-6.12873 5.68347-9.84989.51072-2.48426.73626-5.10847.0562-7.58323 3.31936-4.14901 7.68686-7.76088 12.96951-8.96669 2.1891-.62312 4.51228-.48555 6.68869-1.15245-1.65067 8.53764-3.8047 17.00175-6.84551 25.15631-1.76929 4.57328-4.06146 8.94498-6.81855 12.99994-.49377-.26234-1.20708-.0926-1.68094.11834-1.25314.82499-1.3515 2.47802-2.2711 3.57797-1.1797 1.12904-2.50871 2.49917-2.4176 4.27082.10351 1.13173.62245 2.20364 1.15753 3.19225 1.38348 2.07819 4.11441 2.77622 6.47949 2.57979 4.47505-.41168 8.36531-3.18494 11.1749-6.55569 5.35924-6.30655 8.58826-14.09573 11.01868-21.92541 3.6573-12.12718 5.30735-24.90196 4.50421-37.55617-.3983-4.88041-.88741-9.85234-2.68396-14.44849-.88198-2.072-2.16944-4.35331-4.45699-5.06591-.46028-.13259-.9467-.18681-1.42383-.14258zm-185.58203 80.38086c1.16595 1.90619 1.31908 4.2267 1.54153 6.399.21266 2.75938.16491 5.53119.0581 8.29436-.049.87983-.10306 2.04837-.17578 3.0373-.46736 7.24832-1.60445 14.46734-3.04673 21.5296-2.04695 10.07003-4.81681 19.99974-8.48453 29.60302-.69027 1.82056-1.48336 3.81555-2.26266 5.68455-1.13862 2.88094-2.57721 5.63757-3.63822 8.54804-.60406 1.67361-.91095 3.44578-.92333 5.22249-1.49043.98485-3.20163 1.58013-4.76434 2.30002-3.91105 1.6788-7.8415 3.31194-11.75324 4.98905 6.38201-11.64557 10.78497-24.31218 13.62879-37.2627 1.54442-7.40886 2.51434-15.07073 1.50442-22.62046-.0911-.59671-.30851-1.20104.1388-1.70969 3.26939-6.34253 6.37643-12.77096 9.14741-19.34805 1.71923-3.75794 3.36926-7.58976 5.71054-11.01323.98839-1.2933 1.89712-2.79865 3.31926-3.6533zm-86.74414 58.12891c-.24127.50767-.17288.006 0 0zm-.91602 8.69141c-.69596.48893-1.39193.97786-2.08789 1.46679.20768-.82487.41536-1.64974.62305-2.47461z" fill="#994100" opacity=".5"/></g></svg>