<svg height="500" viewBox="0 0 500 500" width="500" xmlns="http://www.w3.org/2000/svg" xmlns:xlink="http://www.w3.org/1999/xlink"><filter id="a" color-interpolation-filters="sRGB" height="1.150934" width="1.149078" x="-.074539" y="-.075467"><feGaussianBlur stdDeviation="2.0031739"/></filter><filter id="b" color-interpolation-filters="sRGB" height="1.043268" width="1.088261" x="-.044131" y="-.021634"><feGaussianBlur stdDeviation="2.8255427"/></filter><filter id="c" color-interpolation-filters="sRGB" height="1.104879" width="1.050605" x="-.025302" y="-.05244"><feGaussianBlur stdDeviation="2.8255427"/></filter><filter id="d" color-interpolation-filters="sRGB" height="1.042079" width="1.043408" x="-.021704" y="-.021039"><feGaussianBlur stdDeviation="2.8255427"/></filter><g transform="translate(.000015)"><circle cx="-249.99998" cy="250" fill="#e51a1a" r="250" transform="scale(-1 1)"/><path d="m181.33938 83.856939c97.52275-31.84694 203.27597 26.159281 217.12696 131.568651 10.04116 85.89723-45.79566 162.6049-131.11288 174.6444-76.26503 6.65-147.16573-45.4981-149.44603-126.3231.16679-50.89801 30.03241-87.97493 76.60677-108.40662 44.00125-16.48183 90.46555-3.00917 112.28155 39.63622 17.95322 40.0953 3.57775 87.31302-40.4313 103.80676-21.98685 8.23292-51.6578-5.55285-56.72562-31.5612 24.48155 21.7253 69.7211 11.74379 80.1808-21.06198 5.24648-24.88185-11.48198-41.52298-24.36368-55.64156-23.21161-15.22125-63.26956-13.16738-85.32502 12.05139-41.51846 46.43224-18.48961 112.52397 35.72777 131.08081 60.66482 17.11352 118.96473-29.63961 126.96137-92.39988 2.7637-54.83226-40.99398-106.19486-96.51046-114.27807-76.21988-10.3001-138.45939 50.84936-147.743191 124.09106-9.31956 73.21828 47.315731 138.67973 111.863041 158.33924 49.05305 9.49897 98.18701 2.07129 139.64056-27.40671 82.90715-58.95602 100.11901-177.97214 43.55644-260.39974-52.71171-79.885311-158.575-103.987181-249.15842-67.061741-86.705021 39.45169-149.0660905 134.549061-117.102931 229.167621 15.77888-74.65377 50.93986-153.5943 123.407351-187.514491 9.28724-4.60517 19.44718-8.7232 30.56692-12.33106zm-160.722321 286.075591c-52.57825-113.8254-.38403-260.89182 113.777041-317.643861 10.84604-5.32012 22.21219-9.7712 34.03518-13.36069 115.76394-28.75816 246.03978 34.00351 263.68455 158.897471 10.04526 85.91695-27.72044 168.80365-107.97396 206.83173-102.24035 46.26108-224.798841-11.43986-234.690511-131.24969-7.33455-123.78718 127.307171-194.136761 222.718561-137.24102-42.54074-27.89653-94.21826-33.44528-140.80825-12.98978-71.17376 32.62266-105.080851 118.0397-80.762351 190.63139 30.697281 88.13423 123.572931 132.04164 212.817841 105.59803 82.80488-25.06359 132.16266-100.33164 140.19255-180.04986 12.12434-145.020371-132.23823-245.3588802-265.59709-221.973611 7.92036-4.10499 20.5989-8.4277792 35.61563-11.7452592 60.06317-13.23825 124.63426-3.45807 179.45368 32.4903392 109.65077 71.904621 141.09454 217.803071 65.16008 333.599141-143.00482 218.07486-377.311781 117.06797-437.622951-1.79433" fill="#b21a1a"/></g><path d="m84.393734 70.90709 187.484786 216.27236-74.22775-59.01768 120.57929 165.05823c3.2192-18.53498 11.94388-35.07302 24.35932-47.98551l-81.5162-101.34388 110.31817 81.04319c7.97689-3.59385 16.51744-6.0941 25.4467-7.29l-312.444316-246.737733z" fill="#fff" filter="url(#d)" opacity=".5"/><path d="m109.07119 43.507703 247.10389 129.316157c-2.18909-5.28591-3.76034-10.92579-4.57255-16.847-.23527-1.73707-.40611-3.45983-.50942-5.18054l-110.57391-69.309216 126.2372 21.611176c3.07291-3.713543 6.52636-7.122222 10.32557-10.132959l-268.01078-49.456594z" fill="#fff" filter="url(#c)" opacity=".5"/><path d="m25.574566 41.144541 27.266519 108.695259 73.907525 165.15133-43.95578-45.77989 21.45109 85.39099c12.49831-17.41579 32.87732-28.58609 55.30328-28.70885 2.30878-.0133 4.65439.0921 7 .31919 4.37409.4225 8.62134 1.26649 12.69164 2.46137z" fill="#fff" filter="url(#b)" opacity=".5"/><g opacity=".75" stroke-width=".9" transform="translate(613 -142)"><path d="m172.44436 133.76133c-.51823 3.47266-1.03646 6.94531-1.55469 10.41797-3.09563-2.48186-6.19231-4.96242-9.28711-7.44531-4.19549 5.23917-8.38693 10.4816-12.58008 15.72265 3.4007 2.72407 6.7994 5.45063 10.19922 8.17578-4.07738 1.59399-8.15594 3.18496-12.23242 4.78125 2.46581 6.27839 4.93418 12.55576 7.40039 18.83399 3.65872-1.41337 7.31637-2.82953 10.97461-4.24414-.61777 4.11004-1.23657 8.21992-1.85352 12.33008 6.65504 1.04567 13.30953 2.09478 19.96485 3.13867.7052-4.58797 1.41151-9.17577 2.11718-13.76367 3.75987 3.02397 7.51862 6.04932 11.2793 9.07226 4.1966-5.23946 8.38817-10.48295 12.58203-15.72461-3.40069-2.72407-6.79939-5.45062-10.19922-8.17578 4.07739-1.59398 8.15595-3.18496 12.23243-4.78125-2.46745-6.28034-4.93523-12.56056-7.4004-18.8418-4.46817 1.74162-8.93482 3.48718-13.40234 5.23047.6769-4.52672 1.35605-9.0531 2.03125-13.58007-6.65751-1.04716-13.31497-2.0946-19.97265-3.14063-.0996.66471-.19922 1.32943-.29883 1.99414z" fill="#fff" filter="url(#a)"/><path d="m174.42384 134.05607-2.07 13.86-10.44-8.37-10.08 12.6 11.34 9.09-13.59 5.31 5.94 15.12 12.33-4.77-2.07 13.77 16.02 2.52 2.34-15.21 12.42 9.99 10.08-12.6-11.34-9.09 13.59-5.31-5.94-15.12-14.76 5.76 2.25-15.03z" fill="#ff8066"/></g><path d="m160.23633 328.49609c-7.63904-.32672-15.38656.5507-22.95117 2.7461-26.29625 7.63166-42.391893 31.44884-44.431644 56.96289-2.110734 26.40181 10.106794 54.42635 36.681644 66.14062 14.91067 6.57267 31.15777 6.47598 46.1289 2.65625 14.97114-3.81973 29.12884-11.4666 39.24024-23.86523 17.07871-20.942 18.07883-49.96866 3.24804-72.23242-13.0615-19.60775-34.99889-31.42802-57.91601-32.40821z" fill="#861313"/><path d="m110.79587 389.63945c-1.45562 18.20742 9.28537 40.86848 25.99912 48.23595 20.17735 8.89424 50.22313.97367 64.15925-16.11486 10.72816-13.15492 11.62809-36.74889 2.21729-50.87625-11.98318-17.98898-40.11098-28.37919-60.86926-22.35474-16.5807 4.81203-30.13053 23.89995-31.5064 41.1099z" fill="#ff8066" stroke-width="36"/><path d="m396.95741 324.07272c-8.17904-.1351-17.28859-.55969-24.25586 3.72656-27.68461 17.03152-55.46629 46.86999-56.67383 79.35156-1.26189 33.9436 23.46515 70.14785 52.90429 87.0918 17.85536 10.2768 41.96136 6.79069 61.79297 1.21094 19.71256-5.54626 41.4125-15.39699 51.78321-33.05469 15.49103-26.37581 18.13437-63.76932 5.44922-91.60352-8.88254-19.49039-31.36368-30.45147-50.91407-39.20117-12.40908-5.55364-26.49263-7.29694-40.08593-7.52148z" fill="#861313"/><path d="m334.01577 407.81214c-.99332 27.0325 16.42148 59.71531 41.56135 69.7018 29.9223 11.88625 72.71996-1.32457 92.91133-26.40316 14.77108-18.34635 17.17243-50.75963 4.36372-70.52603-18.35988-28.33298-62.57489-45.57781-94.82553-35.59085-24.4229 7.56296-43.07203 37.26839-44.01087 62.81824z" fill="#ff8066" stroke-width="36"/><path d="m416.25195 80.226562c-8.9711.541786-17.86541 2.866645-26.10156 6.886719-22.41237 10.939499-35.10871 33.292609-37.73437 56.089839-2.03577 17.67549 5.66749 32.46021 15.26562 43.31836 12.15603 13.75187 30.74984 29.83367 56.03711 26.9375 28.76955-3.29499 54.05511-23.76296 61.30469-52.61914 6.67703-26.57717-5.37497-52.77245-25.9668-68.050778-12.68833-9.414234-27.85286-13.465475-42.80469-12.5625z" fill="#861313"/><path d="m381.16731 174.60081c10.06972 11.39167 25.39806 22.70587 40.50356 20.97583 19.97193-2.2874 40.99697-19.62662 45.89513-39.12323 4.29121-17.08068-5.09056-38.71502-19.23413-49.20899-13.50297-10.018667-35.17617-11.32992-50.28612-3.95474-15.07213 7.35672-25.8292 25.31047-27.74819 41.97204-1.1933 10.36081 3.96246 21.52502 10.86975 29.33909z" fill="#ff8066" stroke-width="36"/><g stroke-width=".9"><g opacity=".75" transform="translate(172.86625 131.84143)"><path d="m172.44436 133.76133c-.51823 3.47266-1.03646 6.94531-1.55469 10.41797-3.09563-2.48186-6.19231-4.96242-9.28711-7.44531-4.19549 5.23917-8.38693 10.4816-12.58008 15.72265 3.4007 2.72407 6.7994 5.45063 10.19922 8.17578-4.07738 1.59399-8.15594 3.18496-12.23242 4.78125 2.46581 6.27839 4.93418 12.55576 7.40039 18.83399 3.65872-1.41337 7.31637-2.82953 10.97461-4.24414-.61777 4.11004-1.23657 8.21992-1.85352 12.33008 6.65504 1.04567 13.30953 2.09478 19.96485 3.13867.7052-4.58797 1.41151-9.17577 2.11718-13.76367 3.75987 3.02397 7.51862 6.04932 11.2793 9.07226 4.1966-5.23946 8.38817-10.48295 12.58203-15.72461-3.40069-2.72407-6.79939-5.45062-10.19922-8.17578 4.07739-1.59398 8.15595-3.18496 12.23243-4.78125-2.46745-6.28034-4.93523-12.56056-7.4004-18.8418-4.46817 1.74162-8.93482 3.48718-13.40234 5.23047.6769-4.52672 1.35605-9.0531 2.03125-13.58007-6.65751-1.04716-13.31497-2.0946-19.97265-3.14063-.0996.66471-.19922 1.32943-.29883 1.99414z" fill="#fff" filter="url(#a)"/><path d="m174.42384 134.05607-2.07 13.86-10.44-8.37-10.08 12.6 11.34 9.09-13.59 5.31 5.94 15.12 12.33-4.77-2.07 13.77 16.02 2.52 2.34-15.21 12.42 9.99 10.08-12.6-11.34-9.09 13.59-5.31-5.94-15.12-14.76 5.76 2.25-15.03z" fill="#ff8066"/></g><g opacity=".75" transform="translate(89.02709 153.56352)"><path d="m172.44436 133.76133c-.51823 3.47266-1.03646 6.94531-1.55469 10.41797-3.09563-2.48186-6.19231-4.96242-9.28711-7.44531-4.19549 5.23917-8.38693 10.4816-12.58008 15.72265 3.4007 2.72407 6.7994 5.45063 10.19922 8.17578-4.07738 1.59399-8.15594 3.18496-12.23242 4.78125 2.46581 6.27839 4.93418 12.55576 7.40039 18.83399 3.65872-1.41337 7.31637-2.82953 10.97461-4.24414-.61777 4.11004-1.23657 8.21992-1.85352 12.33008 6.65504 1.04567 13.30953 2.09478 19.96485 3.13867.7052-4.58797 1.41151-9.17577 2.11718-13.76367 3.75987 3.02397 7.51862 6.04932 11.2793 9.07226 4.1966-5.23946 8.38817-10.48295 12.58203-15.72461-3.40069-2.72407-6.79939-5.45062-10.19922-8.17578 4.07739-1.59398 8.15595-3.18496 12.23243-4.78125-2.46745-6.28034-4.93523-12.56056-7.4004-18.8418-4.46817 1.74162-8.93482 3.48718-13.40234 5.23047.6769-4.52672 1.35605-9.0531 2.03125-13.58007-6.65751-1.04716-13.31497-2.0946-19.97265-3.14063-.0996.66471-.19922 1.32943-.29883 1.99414z" fill="#fff" filter="url(#a)"/><path d="m174.42384 134.05607-2.07 13.86-10.44-8.37-10.08 12.6 11.34 9.09-13.59 5.31 5.94 15.12 12.33-4.77-2.07 13.77 16.02 2.52 2.34-15.21 12.42 9.99 10.08-12.6-11.34-9.09 13.59-5.31-5.94-15.12-14.76 5.76 2.25-15.03z" fill="#ff8066"/></g><g opacity=".75" transform="translate(136.76169 -23.61973)"><path d="m172.44436 133.76133c-.51823 3.47266-1.03646 6.94531-1.55469 10.41797-3.09563-2.48186-6.19231-4.96242-9.28711-7.44531-4.19549 5.23917-8.38693 10.4816-12.58008 15.72265 3.4007 2.72407 6.7994 5.45063 10.19922 8.17578-4.07738 1.59399-8.15594 3.18496-12.23242 4.78125 2.46581 6.27839 4.93418 12.55576 7.40039 18.83399 3.65872-1.41337 7.31637-2.82953 10.97461-4.24414-.61777 4.11004-1.23657 8.21992-1.85352 12.33008 6.65504 1.04567 13.30953 2.09478 19.96485 3.13867.7052-4.58797 1.41151-9.17577 2.11718-13.76367 3.75987 3.02397 7.51862 6.04932 11.2793 9.07226 4.1966-5.23946 8.38817-10.48295 12.58203-15.72461-3.40069-2.72407-6.79939-5.45062-10.19922-8.17578 4.07739-1.59398 8.15595-3.18496 12.23243-4.78125-2.46745-6.28034-4.93523-12.56056-7.4004-18.8418-4.46817 1.74162-8.93482 3.48718-13.40234 5.23047.6769-4.52672 1.35605-9.0531 2.03125-13.58007-6.65751-1.04716-13.31497-2.0946-19.97265-3.14063-.0996.66471-.19922 1.32943-.29883 1.99414z" fill="#fff" filter="url(#a)"/><path d="m174.42384 134.05607-2.07 13.86-10.44-8.37-10.08 12.6 11.34 9.09-13.59 5.31 5.94 15.12 12.33-4.77-2.07 13.77 16.02 2.52 2.34-15.21 12.42 9.99 10.08-12.6-11.34-9.09 13.59-5.31-5.94-15.12-14.76 5.76 2.25-15.03z" fill="#ff8066"/></g><g opacity=".75" transform="matrix(.90424757 0 0 .90424757 66.47356 -82.117708)"><path d="m172.44436 133.76133c-.51823 3.47266-1.03646 6.94531-1.55469 10.41797-3.09563-2.48186-6.19231-4.96242-9.28711-7.44531-4.19549 5.23917-8.38693 10.4816-12.58008 15.72265 3.4007 2.72407 6.7994 5.45063 10.19922 8.17578-4.07738 1.59399-8.15594 3.18496-12.23242 4.78125 2.46581 6.27839 4.93418 12.55576 7.40039 18.83399 3.65872-1.41337 7.31637-2.82953 10.97461-4.24414-.61777 4.11004-1.23657 8.21992-1.85352 12.33008 6.65504 1.04567 13.30953 2.09478 19.96485 3.13867.7052-4.58797 1.41151-9.17577 2.11718-13.76367 3.75987 3.02397 7.51862 6.04932 11.2793 9.07226 4.1966-5.23946 8.38817-10.48295 12.58203-15.72461-3.40069-2.72407-6.79939-5.45062-10.19922-8.17578 4.07739-1.59398 8.15595-3.18496 12.23243-4.78125-2.46745-6.28034-4.93523-12.56056-7.4004-18.8418-4.46817 1.74162-8.93482 3.48718-13.40234 5.23047.6769-4.52672 1.35605-9.0531 2.03125-13.58007-6.65751-1.04716-13.31497-2.0946-19.97265-3.14063-.0996.66471-.19922 1.32943-.29883 1.99414z" fill="#fff" filter="url(#a)"/><path d="m174.42384 134.05607-2.07 13.86-10.44-8.37-10.08 12.6 11.34 9.09-13.59 5.31 5.94 15.12 12.33-4.77-2.07 13.77 16.02 2.52 2.34-15.21 12.42 9.99 10.08-12.6-11.34-9.09 13.59-5.31-5.94-15.12-14.76 5.76 2.25-15.03z" fill="#ff8066"/></g><g opacity=".75" transform="matrix(.90424757 0 0 .90424757 137.12618 -68.641737)"><path d="m172.44436 133.76133c-.51823 3.47266-1.03646 6.94531-1.55469 10.41797-3.09563-2.48186-6.19231-4.96242-9.28711-7.44531-4.19549 5.23917-8.38693 10.4816-12.58008 15.72265 3.4007 2.72407 6.7994 5.45063 10.19922 8.17578-4.07738 1.59399-8.15594 3.18496-12.23242 4.78125 2.46581 6.27839 4.93418 12.55576 7.40039 18.83399 3.65872-1.41337 7.31637-2.82953 10.97461-4.24414-.61777 4.11004-1.23657 8.21992-1.85352 12.33008 6.65504 1.04567 13.30953 2.09478 19.96485 3.13867.7052-4.58797 1.41151-9.17577 2.11718-13.76367 3.75987 3.02397 7.51862 6.04932 11.2793 9.07226 4.1966-5.23946 8.38817-10.48295 12.58203-15.72461-3.40069-2.72407-6.79939-5.45062-10.19922-8.17578 4.07739-1.59398 8.15595-3.18496 12.23243-4.78125-2.46745-6.28034-4.93523-12.56056-7.4004-18.8418-4.46817 1.74162-8.93482 3.48718-13.40234 5.23047.6769-4.52672 1.35605-9.0531 2.03125-13.58007-6.65751-1.04716-13.31497-2.0946-19.97265-3.14063-.0996.66471-.19922 1.32943-.29883 1.99414z" fill="#fff" filter="url(#a)"/><path d="m174.42384 134.05607-2.07 13.86-10.44-8.37-10.08 12.6 11.34 9.09-13.59 5.31 5.94 15.12 12.33-4.77-2.07 13.77 16.02 2.52 2.34-15.21 12.42 9.99 10.08-12.6-11.34-9.09 13.59-5.31-5.94-15.12-14.76 5.76 2.25-15.03z" fill="#ff8066"/></g><g opacity=".75" transform="matrix(.60430137 0 0 .60430137 30.50995 -58.28795)"><path d="m172.44436 133.76133c-.51823 3.47266-1.03646 6.94531-1.55469 10.41797-3.09563-2.48186-6.19231-4.96242-9.28711-7.44531-4.19549 5.23917-8.38693 10.4816-12.58008 15.72265 3.4007 2.72407 6.7994 5.45063 10.19922 8.17578-4.07738 1.59399-8.15594 3.18496-12.23242 4.78125 2.46581 6.27839 4.93418 12.55576 7.40039 18.83399 3.65872-1.41337 7.31637-2.82953 10.97461-4.24414-.61777 4.11004-1.23657 8.21992-1.85352 12.33008 6.65504 1.04567 13.30953 2.09478 19.96485 3.13867.7052-4.58797 1.41151-9.17577 2.11718-13.76367 3.75987 3.02397 7.51862 6.04932 11.2793 9.07226 4.1966-5.23946 8.38817-10.48295 12.58203-15.72461-3.40069-2.72407-6.79939-5.45062-10.19922-8.17578 4.07739-1.59398 8.15595-3.18496 12.23243-4.78125-2.46745-6.28034-4.93523-12.56056-7.4004-18.8418-4.46817 1.74162-8.93482 3.48718-13.40234 5.23047.6769-4.52672 1.35605-9.0531 2.03125-13.58007-6.65751-1.04716-13.31497-2.0946-19.97265-3.14063-.0996.66471-.19922 1.32943-.29883 1.99414z" fill="#fff" filter="url(#a)"/><path d="m174.42384 134.05607-2.07 13.86-10.44-8.37-10.08 12.6 11.34 9.09-13.59 5.31 5.94 15.12 12.33-4.77-2.07 13.77 16.02 2.52 2.34-15.21 12.42 9.99 10.08-12.6-11.34-9.09 13.59-5.31-5.94-15.12-14.76 5.76 2.25-15.03z" fill="#ff8066"/></g><g opacity=".75" transform="translate(-68.55523 148.71506)"><path d="m172.44436 133.76133c-.51823 3.47266-1.03646 6.94531-1.55469 10.41797-3.09563-2.48186-6.19231-4.96242-9.28711-7.44531-4.19549 5.23917-8.38693 10.4816-12.58008 15.72265 3.4007 2.72407 6.7994 5.45063 10.19922 8.17578-4.07738 1.59399-8.15594 3.18496-12.23242 4.78125 2.46581 6.27839 4.93418 12.55576 7.40039 18.83399 3.65872-1.41337 7.31637-2.82953 10.97461-4.24414-.61777 4.11004-1.23657 8.21992-1.85352 12.33008 6.65504 1.04567 13.30953 2.09478 19.96485 3.13867.7052-4.58797 1.41151-9.17577 2.11718-13.76367 3.75987 3.02397 7.51862 6.04932 11.2793 9.07226 4.1966-5.23946 8.38817-10.48295 12.58203-15.72461-3.40069-2.72407-6.79939-5.45062-10.19922-8.17578 4.07739-1.59398 8.15595-3.18496 12.23243-4.78125-2.46745-6.28034-4.93523-12.56056-7.4004-18.8418-4.46817 1.74162-8.93482 3.48718-13.40234 5.23047.6769-4.52672 1.35605-9.0531 2.03125-13.58007-6.65751-1.04716-13.31497-2.0946-19.97265-3.14063-.0996.66471-.19922 1.32943-.29883 1.99414z" fill="#fff" filter="url(#a)"/><path d="m174.42384 134.05607-2.07 13.86-10.44-8.37-10.08 12.6 11.34 9.09-13.59 5.31 5.94 15.12 12.33-4.77-2.07 13.77 16.02 2.52 2.34-15.21 12.42 9.99 10.08-12.6-11.34-9.09 13.59-5.31-5.94-15.12-14.76 5.76 2.25-15.03z" fill="#ff8066"/></g><g opacity=".75" transform="translate(-68.2383 61.38027)"><path d="m172.44436 133.76133c-.51823 3.47266-1.03646 6.94531-1.55469 10.41797-3.09563-2.48186-6.19231-4.96242-9.28711-7.44531-4.19549 5.23917-8.38693 10.4816-12.58008 15.72265 3.4007 2.72407 6.7994 5.45063 10.19922 8.17578-4.07738 1.59399-8.15594 3.18496-12.23242 4.78125 2.46581 6.27839 4.93418 12.55576 7.40039 18.83399 3.65872-1.41337 7.31637-2.82953 10.97461-4.24414-.61777 4.11004-1.23657 8.21992-1.85352 12.33008 6.65504 1.04567 13.30953 2.09478 19.96485 3.13867.7052-4.58797 1.41151-9.17577 2.11718-13.76367 3.75987 3.02397 7.51862 6.04932 11.2793 9.07226 4.1966-5.23946 8.38817-10.48295 12.58203-15.72461-3.40069-2.72407-6.79939-5.45062-10.19922-8.17578 4.07739-1.59398 8.15595-3.18496 12.23243-4.78125-2.46745-6.28034-4.93523-12.56056-7.4004-18.8418-4.46817 1.74162-8.93482 3.48718-13.40234 5.23047.6769-4.52672 1.35605-9.0531 2.03125-13.58007-6.65751-1.04716-13.31497-2.0946-19.97265-3.14063-.0996.66471-.19922 1.32943-.29883 1.99414z" fill="#fff" filter="url(#a)"/><path d="m174.42384 134.05607-2.07 13.86-10.44-8.37-10.08 12.6 11.34 9.09-13.59 5.31 5.94 15.12 12.33-4.77-2.07 13.77 16.02 2.52 2.34-15.21 12.42 9.99 10.08-12.6-11.34-9.09 13.59-5.31-5.94-15.12-14.76 5.76 2.25-15.03z" fill="#ff8066"/></g><g opacity=".75" transform="matrix(.8011787 0 0 .8011787 -89.850937 30.244325)"><path d="m172.44436 133.76133c-.51823 3.47266-1.03646 6.94531-1.55469 10.41797-3.09563-2.48186-6.19231-4.96242-9.28711-7.44531-4.19549 5.23917-8.38693 10.4816-12.58008 15.72265 3.4007 2.72407 6.7994 5.45063 10.19922 8.17578-4.07738 1.59399-8.15594 3.18496-12.23242 4.78125 2.46581 6.27839 4.93418 12.55576 7.40039 18.83399 3.65872-1.41337 7.31637-2.82953 10.97461-4.24414-.61777 4.11004-1.23657 8.21992-1.85352 12.33008 6.65504 1.04567 13.30953 2.09478 19.96485 3.13867.7052-4.58797 1.41151-9.17577 2.11718-13.76367 3.75987 3.02397 7.51862 6.04932 11.2793 9.07226 4.1966-5.23946 8.38817-10.48295 12.58203-15.72461-3.40069-2.72407-6.79939-5.45062-10.19922-8.17578 4.07739-1.59398 8.15595-3.18496 12.23243-4.78125-2.46745-6.28034-4.93523-12.56056-7.4004-18.8418-4.46817 1.74162-8.93482 3.48718-13.40234 5.23047.6769-4.52672 1.35605-9.0531 2.03125-13.58007-6.65751-1.04716-13.31497-2.0946-19.97265-3.14063-.0996.66471-.19922 1.32943-.29883 1.99414z" fill="#fff" filter="url(#a)"/><path d="m174.42384 134.05607-2.07 13.86-10.44-8.37-10.08 12.6 11.34 9.09-13.59 5.31 5.94 15.12 12.33-4.77-2.07 13.77 16.02 2.52 2.34-15.21 12.42 9.99 10.08-12.6-11.34-9.09 13.59-5.31-5.94-15.12-14.76 5.76 2.25-15.03z" fill="#ff8066"/></g><g opacity=".75" transform="translate(81.83488 80.27088)"><path d="m172.44436 133.76133c-.51823 3.47266-1.03646 6.94531-1.55469 10.41797-3.09563-2.48186-6.19231-4.96242-9.28711-7.44531-4.19549 5.23917-8.38693 10.4816-12.58008 15.72265 3.4007 2.72407 6.7994 5.45063 10.19922 8.17578-4.07738 1.59399-8.15594 3.18496-12.23242 4.78125 2.46581 6.27839 4.93418 12.55576 7.40039 18.83399 3.65872-1.41337 7.31637-2.82953 10.97461-4.24414-.61777 4.11004-1.23657 8.21992-1.85352 12.33008 6.65504 1.04567 13.30953 2.09478 19.96485 3.13867.7052-4.58797 1.41151-9.17577 2.11718-13.76367 3.75987 3.02397 7.51862 6.04932 11.2793 9.07226 4.1966-5.23946 8.38817-10.48295 12.58203-15.72461-3.40069-2.72407-6.79939-5.45062-10.19922-8.17578 4.07739-1.59398 8.15595-3.18496 12.23243-4.78125-2.46745-6.28034-4.93523-12.56056-7.4004-18.8418-4.46817 1.74162-8.93482 3.48718-13.40234 5.23047.6769-4.52672 1.35605-9.0531 2.03125-13.58007-6.65751-1.04716-13.31497-2.0946-19.97265-3.14063-.0996.66471-.19922 1.32943-.29883 1.99414z" fill="#fff" filter="url(#a)"/><path d="m174.42384 134.05607-2.07 13.86-10.44-8.37-10.08 12.6 11.34 9.09-13.59 5.31 5.94 15.12 12.33-4.77-2.07 13.77 16.02 2.52 2.34-15.21 12.42 9.99 10.08-12.6-11.34-9.09 13.59-5.31-5.94-15.12-14.76 5.76 2.25-15.03z" fill="#ff8066"/></g><g opacity=".75" transform="matrix(.84441658 0 0 .84441658 37.630794 24.881056)"><path d="m172.44436 133.76133c-.51823 3.47266-1.03646 6.94531-1.55469 10.41797-3.09563-2.48186-6.19231-4.96242-9.28711-7.44531-4.19549 5.23917-8.38693 10.4816-12.58008 15.72265 3.4007 2.72407 6.7994 5.45063 10.19922 8.17578-4.07738 1.59399-8.15594 3.18496-12.23242 4.78125 2.46581 6.27839 4.93418 12.55576 7.40039 18.83399 3.65872-1.41337 7.31637-2.82953 10.97461-4.24414-.61777 4.11004-1.23657 8.21992-1.85352 12.33008 6.65504 1.04567 13.30953 2.09478 19.96485 3.13867.7052-4.58797 1.41151-9.17577 2.11718-13.76367 3.75987 3.02397 7.51862 6.04932 11.2793 9.07226 4.1966-5.23946 8.38817-10.48295 12.58203-15.72461-3.40069-2.72407-6.79939-5.45062-10.19922-8.17578 4.07739-1.59398 8.15595-3.18496 12.23243-4.78125-2.46745-6.28034-4.93523-12.56056-7.4004-18.8418-4.46817 1.74162-8.93482 3.48718-13.40234 5.23047.6769-4.52672 1.35605-9.0531 2.03125-13.58007-6.65751-1.04716-13.31497-2.0946-19.97265-3.14063-.0996.66471-.19922 1.32943-.29883 1.99414z" fill="#fff" filter="url(#a)"/><path d="m174.42384 134.05607-2.07 13.86-10.44-8.37-10.08 12.6 11.34 9.09-13.59 5.31 5.94 15.12 12.33-4.77-2.07 13.77 16.02 2.52 2.34-15.21 12.42 9.99 10.08-12.6-11.34-9.09 13.59-5.31-5.94-15.12-14.76 5.76 2.25-15.03z" fill="#ff8066"/></g><g opacity=".75" transform="matrix(.68768276 0 0 .68768276 1.324712 2.150671)"><path d="m172.44436 133.76133c-.51823 3.47266-1.03646 6.94531-1.55469 10.41797-3.09563-2.48186-6.19231-4.96242-9.28711-7.44531-4.19549 5.23917-8.38693 10.4816-12.58008 15.72265 3.4007 2.72407 6.7994 5.45063 10.19922 8.17578-4.07738 1.59399-8.15594 3.18496-12.23242 4.78125 2.46581 6.27839 4.93418 12.55576 7.40039 18.83399 3.65872-1.41337 7.31637-2.82953 10.97461-4.24414-.61777 4.11004-1.23657 8.21992-1.85352 12.33008 6.65504 1.04567 13.30953 2.09478 19.96485 3.13867.7052-4.58797 1.41151-9.17577 2.11718-13.76367 3.75987 3.02397 7.51862 6.04932 11.2793 9.07226 4.1966-5.23946 8.38817-10.48295 12.58203-15.72461-3.40069-2.72407-6.79939-5.45062-10.19922-8.17578 4.07739-1.59398 8.15595-3.18496 12.23243-4.78125-2.46745-6.28034-4.93523-12.56056-7.4004-18.8418-4.46817 1.74162-8.93482 3.48718-13.40234 5.23047.6769-4.52672 1.35605-9.0531 2.03125-13.58007-6.65751-1.04716-13.31497-2.0946-19.97265-3.14063-.0996.66471-.19922 1.32943-.29883 1.99414z" fill="#fff" filter="url(#a)"/><path d="m174.42384 134.05607-2.07 13.86-10.44-8.37-10.08 12.6 11.34 9.09-13.59 5.31 5.94 15.12 12.33-4.77-2.07 13.77 16.02 2.52 2.34-15.21 12.42 9.99 10.08-12.6-11.34-9.09 13.59-5.31-5.94-15.12-14.76 5.76 2.25-15.03z" fill="#ff8066"/></g><g opacity=".75" transform="matrix(.48911459 0 0 .48911459 -44.459576 5.767782)"><path d="m172.44436 133.76133c-.51823 3.47266-1.03646 6.94531-1.55469 10.41797-3.09563-2.48186-6.19231-4.96242-9.28711-7.44531-4.19549 5.23917-8.38693 10.4816-12.58008 15.72265 3.4007 2.72407 6.7994 5.45063 10.19922 8.17578-4.07738 1.59399-8.15594 3.18496-12.23242 4.78125 2.46581 6.27839 4.93418 12.55576 7.40039 18.83399 3.65872-1.41337 7.31637-2.82953 10.97461-4.24414-.61777 4.11004-1.23657 8.21992-1.85352 12.33008 6.65504 1.04567 13.30953 2.09478 19.96485 3.13867.7052-4.58797 1.41151-9.17577 2.11718-13.76367 3.75987 3.02397 7.51862 6.04932 11.2793 9.07226 4.1966-5.23946 8.38817-10.48295 12.58203-15.72461-3.40069-2.72407-6.79939-5.45062-10.19922-8.17578 4.07739-1.59398 8.15595-3.18496 12.23243-4.78125-2.46745-6.28034-4.93523-12.56056-7.4004-18.8418-4.46817 1.74162-8.93482 3.48718-13.40234 5.23047.6769-4.52672 1.35605-9.0531 2.03125-13.58007-6.65751-1.04716-13.31497-2.0946-19.97265-3.14063-.0996.66471-.19922 1.32943-.29883 1.99414z" fill="#fff" filter="url(#a)"/><path d="m174.42384 134.05607-2.07 13.86-10.44-8.37-10.08 12.6 11.34 9.09-13.59 5.31 5.94 15.12 12.33-4.77-2.07 13.77 16.02 2.52 2.34-15.21 12.42 9.99 10.08-12.6-11.34-9.09 13.59-5.31-5.94-15.12-14.76 5.76 2.25-15.03z" fill="#ff8066"/></g><g opacity=".75" transform="matrix(.90424757 0 0 .90424757 167.9242 236.04726)"><path d="m172.44436 133.76133c-.51823 3.47266-1.03646 6.94531-1.55469 10.41797-3.09563-2.48186-6.19231-4.96242-9.28711-7.44531-4.19549 5.23917-8.38693 10.4816-12.58008 15.72265 3.4007 2.72407 6.7994 5.45063 10.19922 8.17578-4.07738 1.59399-8.15594 3.18496-12.23242 4.78125 2.46581 6.27839 4.93418 12.55576 7.40039 18.83399 3.65872-1.41337 7.31637-2.82953 10.97461-4.24414-.61777 4.11004-1.23657 8.21992-1.85352 12.33008 6.65504 1.04567 13.30953 2.09478 19.96485 3.13867.7052-4.58797 1.41151-9.17577 2.11718-13.76367 3.75987 3.02397 7.51862 6.04932 11.2793 9.07226 4.1966-5.23946 8.38817-10.48295 12.58203-15.72461-3.40069-2.72407-6.79939-5.45062-10.19922-8.17578 4.07739-1.59398 8.15595-3.18496 12.23243-4.78125-2.46745-6.28034-4.93523-12.56056-7.4004-18.8418-4.46817 1.74162-8.93482 3.48718-13.40234 5.23047.6769-4.52672 1.35605-9.0531 2.03125-13.58007-6.65751-1.04716-13.31497-2.0946-19.97265-3.14063-.0996.66471-.19922 1.32943-.29883 1.99414z" fill="#fff" filter="url(#a)"/><path d="m174.42384 134.05607-2.07 13.86-10.44-8.37-10.08 12.6 11.34 9.09-13.59 5.31 5.94 15.12 12.33-4.77-2.07 13.77 16.02 2.52 2.34-15.21 12.42 9.99 10.08-12.6-11.34-9.09 13.59-5.31-5.94-15.12-14.76 5.76 2.25-15.03z" fill="#ff8066"/></g></g></svg>