<svg height="500" viewBox="0 0 500 500" width="500" xmlns="http://www.w3.org/2000/svg" xmlns:xlink="http://www.w3.org/1999/xlink"><radialGradient id="a" cx="1362.7291" cy="216.11429" gradientTransform="matrix(1.0000001 -.0000059 .0000001 1.0000003 -112.72927 33.893757)" gradientUnits="userSpaceOnUse" r="250"><stop offset="0" stop-color="#ff851a"/><stop offset=".42441937" stop-color="#f87000"/><stop offset=".86367416" stop-color="#f26900"/><stop offset="1" stop-color="#e55f00"/></radialGradient><g transform="translate(-1000)"><path d="m1500 250a250 250 0 0 1 -250 250 250 250 0 0 1 -250-250 250 250 0 0 1 250-250 250 250 0 0 1 250 250z" fill="url(#a)" stroke-linecap="round" stroke-linejoin="round" stroke-width="1.002"/><path d="m1309.2298 33.82789c128.5196 30.706851 207.8974 167.48127 169.5927 291.56949-31.3771 95.69524-112.8693 162.03793-212.5543 174.60263 153.1796-8.09118 266.0956-163.0043 218.7012-309.92978-36.4562-114.666588-154.6038-191.5214848-270.6514-169.822657-18.8526 4.215647-38.4387 10.498641-55.8829 18.694487-112.5353 47.459213-168.47522 196.206-99.9632 307.85319 57.6978 93.63045 168.5136 141.8489 267.9993 100.77239-134.92 68.97589-303.283-51.46877-311.488-201.30723-4.4167-117.68321 76.8182-219.674136 190.654-246.26040176-89.0147 9.18391126-152.6601 79.39239576-187.7408 157.21169176-38.45522 102.70317 5.2337 231.75078 109.038 294.08388 114.5107 66.1048 260.3537 29.37245 323.6836-83.60152 42.2104-77.69758 34.3514-177.62383-23.1776-249.88923-57.5404-72.257811-157.5429-102.460489-246.4118-71.877168-81.7429 30.682061-131.1298 101.133078-134.0478 190.176958.6692 92.68536 61.7912 168.55972 147.5399 198.52472 128.5549 37.82014 266.7725-70.33038 233.6823-209.88949-14.7104-64.39775-57.8855-122.14991-125.7378-141.121386-71.391-15.467036-138.9716 1.205-181.2869 64.641366-18.8995 29.2286-28.9384 85.21395-26.105 97.65297m0 0c13.5324-50.18833 30.6277-97.66354 72.2125-128.94941 53.182-38.308183 124.4576-37.093813 181.7444-.48035 50.1457 36.48017 75.4845 90.37713 72.3557 150.91678-6.6674 64.04407-38.4038 109.83277-91.6401 141.00844-63.9019 34.56125-135.3795 4.83213-189.1258-35.28385-78.8706-65.48566-79.7477-186.67235-8.9744-256.76104 63.7369-55.941605 167.0207-64.891564 238.7167-6.65053 78.8163 58.35315 90.3045 169.04089 40.972 246.62443-35.2274 56.41892-88.4571 87.60135-152.5581 93.63158-81.9488 2.18264-160.666-41.91503-196.8695-120.9383-36.2055-79.02511-22.5771-164.33167 26.8727-227.66064 49.4316-63.30896 138.3491-86.746364 220.4504-67.54202" fill="#c50"/></g><path d="m226.78516 1.578125a250 250 0 0 0 -17.07813 2.3222656l4.02149 26.5664064c-25.02358 26.733252-53.08171 44.220536-96.44141 39.980469l-18.671876-23.560547c-4.401281 3.691474-8.722424 7.490523-12.875 11.5l16.863286 21.279297c-2.51288 44.809324-21.898209 79.114894-48.310551 110.689454l-43.21875-11.3457a250 250 0 0 0 -4.6777346 16.58593l44.0605466 11.57227c14.155069 41.55688 8.379952 83.75545 1.677735 127.52734l-31.236328 14.61719a250 250 0 0 0 7.648437 15.44531l28.017578-13.10937c6.008758 9.87351 12.596647 24.94215 17.578125 38.11328 3.949586 10.44801 6.890738 19.34987 8.53125 24.46875l-10.519531 10.57617a250 250 0 0 0 12.185547 12.18555l12.166015-12.23047c8.548371-.33475 38.517951-1.35813 76.261721-.69141 43.10518.76078 94.6251 3.96375 128.22656 12.60157l17.55078 54.54101c5.54629-1.58811 11.0219-3.33871 16.39453-5.31055l-18.00976-55.96484c33.14222-38.27862 66.31535-74.25626 121.48047-94.37305l39.41992 15.59766a250 250 0 0 0 6.40234-16l-37.7168-14.92383c-5.87781-36.15766 11.76205-70.69765 28.23633-107.59766l21.64063-4.52343a250 250 0 0 0 -3.44141-16.88672l-12.6289 2.64062-5.02539-2.58398c-51.72179-26.58662-70.39184-71.92003-86.03711-122.371094l12.68945-17.359375a250 250 0 0 0 -14.01563-10.03125l-14.87304 20.349609c-53.7367 1.156382-103.71814-2.270712-142.42188-34.847656zm7.48242 49.412109c37.44636 24.25505 81.60883 28.485632 126.10742 28.242188l-30.56055 41.810548c-33.73977.36518-64.41694-2.79653-88.38281-22.718751zm-17.36914.402344 7.64453 50.511722c-16.42818 17.16682-34.39011 27.83076-62.70117 24.76367l-30.50196-38.488282c35.5887-.682395 63.03774-15.809944 85.5586-36.78711zm159.83008 34.666016h.00195c14.32658 43.310816 34.16642 85.475786 77.96875 113.169926l-47.73828 9.97656-.75391-.38477c-34.36868-17.65464-46.51773-47.61913-57.11328-81.91406l-.66016-2.13477zm-258.88282 12.83789 31.71485 40.017576c-2.3266 27.2801-14.20523 48.56003-30.56055 68.42969l-46.480469-12.20313c21.867226-27.45529 39.320529-58.456 45.326169-96.244136zm127.11524 22.765626c22.07268 12.62798 47.07617 16.04544 72.30078 16.55078l-30.34766 41.52149c-13.8858-5.86859-24.10321-16.36958-35.56836-27.9629l-2.16015-2.18554zm-17.31641.74609 5.1582 34.07813c-10.306 6.91615-22.53514 11.20527-36.00781 14.28711l-21.11914-26.64844c20.94212-1.28641 37.89576-9.84867 51.96875-21.7168zm108.24414 19.52539c8.98731 26.88541 21.3442 53.49964 46.64258 72.37891l-51.57422 10.78125c-11.98524-10.31153-18.42281-22.80898-25.04297-36.78516l-1.53906-3.25586zm-171.92187 15.16211h.00195l17.65234 22.27539-.07226.6543c-1.77976 16.01321-8.18561 27.32364-15.35352 39.71094l-29.08203-7.63672c12.18351-16.00491 22.07676-33.96127 26.85352-55.00391zm71.6289 17.84766 5.54492 36.64844c-3.33543.63628-6.50776 1.72892-9.45312 3.20898l-23.2168-29.29492c9.39676-2.53593 18.56372-5.85122 27.125-10.5625zm17.85352 2.80469c6.78245 6.06593 14.31117 11.73249 23.19336 16.03711l-14.60156 19.97656c-1.08446-.45463-2.19193-.86823-3.32618-1.2168zm-57.86524 19.24023 22.97071 28.98438c-1.46899 2.02596-2.72891 4.21046-3.76172 6.51953l-31.27539-8.20899c4.56927-8.0753 9.06572-16.83308 12.0664-27.29492zm97.31055 3.76563c4.72144 9.60423 10.23955 19.45214 18.12305 28.50586l-28.71875 6.00195c-1.45701-4.14601-3.63556-7.95292-6.39649-11.25977zm-222.951171 11.52929 45.068361 11.83203c8.50871 26.01859 5.34276 52.63666 1.10547 80.64063l-45.251956 21.17383c5.486819-37.02173 9.489247-75.07646-.921875-113.64649zm383.746091 4.76172c-13.77019 30.09381-27.7691 61.53852-25.29687 96.02344l-40.33399-15.96094c-3.31974-23.06861 8.09251-45.59568 19.11133-70.33984zm-319.5957 12.08008 25.46484 6.68359.51758 1.29102c5.62515 13.95497 4.96354 29.29814 2.67383 45.83789l-27.95703 13.08008c2.9638-21.68169 4.58841-44.08955-.69922-66.89258zm252.01953 2.04297c-8.33904 18.27433-16.41077 37.62683-15.9082 58.87695l-33.73828-13.34961c-.004-12.12448 1.28651-21.06182 8.41015-31.27929l4.5918-6.5879zm-206.89258 9.80078 32.49219 8.5332c.20288 3.35295.86661 6.57923 1.91602 9.62696l-32.52344 15.21679c.96826-10.97363.85495-22.17554-1.88477-33.37695zm146.76758 2.76758h.00195c-4.26496 8.69868-5.88442 17.41923-6.4082 26.27929l-36.2207-14.33007c.2453-1.03742.43504-2.09714.59179-3.16407zm-50.52734 27.35156 33.66015 13.32031c-8.21639 4.22347-15.96787 9.7142-22.75586 14.90039-3.60285 2.75355-6.55256 5.16638-9.11523 7.32422l-9.31641-28.95312c2.80335-1.84431 5.33631-4.06509 7.52735-6.5918zm-53.59961 3.21289h.00195l-34.72461 34.91016c-2.35888-5.71736-5.5497-10.27906-8.84179-14.04883l.08007-.51172zm16.35156 7.99805c3.11411.86682 6.39048 1.34179 9.78125 1.34179 1.24491 0 2.47786-.06291 3.69141-.18554l9.6582 30.00781c-12.27756-.14754-34.68515.0698-56.89063 2.77539zm95.42969 11.8125 23.38867 9.25195c-27.11133 13.75855-46.45279 33.10248-63.85937 52.74805l-10.18555-31.64649c3.27733-2.92691 8.05066-7.03736 13.84179-11.46093 10.531-8.04765 24.16895-16.32261 32.90821-18.09961zm-171.97852 8.36133 1.39844 1.40429c5.39275 5.41766 9.19692 9.50103 10.34961 19.13477l-28.71875 28.87109c-.32276-2.0933-.68139-4.26948-1.10742-6.58593-1.85353-10.09759-4.10227-21.15725-8.59961-30.34376zm217.5625 9.67382 36.16406 14.31055c-45.57562 20.74848-76.46115 52.27155-104.61914 84.34961l-11.46679-35.63867c22.22668-25.67094 43.96247-49.44174 79.92187-63.01953zm-260.03515 10.19727c2.7683 6.30476 5.73758 16.75438 7.44726 26.06445 1.45885 7.93975 2.30542 14.82956 2.74805 18.85938l-33.089845 33.26562c-1.549219-4.59232-3.481929-10.10584-6.039063-16.86523-4.955657-13.10935-11.059934-27.6773-18.083984-39.32227zm139.11914 8.43555c3.65911-.005 6.2825.02639 8.62109.05859l9.58789 29.78711c-24.213-3.82695-54.06994-3.86426-80.28125-2.9375-14.36255.50719-25.82417 1.22375-34.91016 1.9043l22.23243-22.34961.875-.21289c21.89747-5.33928 55.20138-6.22049 73.875-6.25zm-38.90821 43.69922v.00195c22.98378-.0489 46.44496 1.16677 63.08985 4.70508l12.38281 38.47851c-35.69474-7.58933-82.05604-10.12246-121.80273-10.82422-25.10289-.44448-45.40457-.17273-58.89844.16016l28.40234-28.55273c7.16052-.69807 28.31929-2.62048 54.27149-3.53711 7.28501-.2582 14.89342-.41597 22.55468-.43164z" fill="#ffa348" opacity=".5" stroke-width=".9"/><path d="m186.67969.01757813c-13.32096.25832595-26.39906 3.35740697-38.10157 9.31249997l-43.80078 22.2890629 33.08399 7.794921c-31.47512 5.993113-58.02111 27.374008-69.220705 55.351563l-18.263672 45.623045 12.580078-6.66601c-8.150272 13.85442-13.704313 27.83717-15.755859 42.94726-1.36315 10.03991 2.481321 30.29462 2.481321 30.29462l23.659304-20.0954c-15.902377 30.91932-17.67412 65.70558-1.992188 91.14453l33.392581 54.16992-.0762-63.60351c-.0171-14.40618 3.0865-31.84726 12.92382-48.21289 9.70102 8.40166 20.75979 15.43137 33.18555 20.08789 1.96748 3.22706 3.4442 5.5609 5.50738 8.08665 4.6009 5.63243 9.63536 10.97388 15.2194 15.63338 7.16086 5.97525 15.04716 11.1164 23.21853 15.612 8.9906 4.94631 18.39626 9.30094 28.18383 12.38322 6.33539 1.99513 12.94786 3.10481 19.54407 3.88433 2.94681.34824 5.44665.37657 8.89515.34772 10.50038 8.08348 22.28995 13.75859 34.52344 17.5625-8.69546 17.00637-21.85374 28.85327-34.09766 36.45508l-53.93359 33.48242 63.51367-.18554c29.87344-.0881 58.46174-19.967 76.30664-49.82032l-15.47266 39.23438s26.89689-12.70984 37.92579-22.40234c11.45013-10.06269 20.66995-21.81994 28.12304-36.06055l.98438 14.18945 29.06445-39.59765c17.83416-24.29684 21.96348-58.16065 10.41992-88.08399l24.09766 24.00977-4.20508-48.96875c-2.07398-24.15739-15.08625-46.66082-24.91617-54.60287 0 0-15.76262-13.48141-24.88852-18.21549-9.66613-5.01433-19.78952-8.786616-30.95505-10.439496h-.004-.004c-19.33459-2.852881-38.86518 10.815446-38.9414 28.968746-.68685 10.85691-2.92804 20.76708-6.70118 29.27344-7.58402-15.63188-19.29353-29.04083-35.05078-37.80664-15.75756-8.76599-33.31883-11.63755-50.58789-9.83008 5.22318-7.694067 12.44173-14.830677 21.28516-21.142575 15.373-9.640943 16.67387-33.473806 4.0332-48.400391-7.29628-8.615285-15.79799-15.599174-25-20.947265-15.5282-9.0249058-33.05645-13.38877425-50.1834-13.05664087zm2.34375 48.49804687c8.90125 2.692476 16.8393 6.646826 23.36328 12.285156-2.62231 2.767229-5.29796 5.489862-7.7207 8.4375-1.27377-.615244-2.54719-1.231215-3.82227-1.84375-1.78515-7.953117-6.91454-13.18435-11.82031-18.878906zm-39.96485 44.724609c-.4898 2.525346-.97905 5.050803-1.46875 7.576176-2.63744-2.02796-5.37786-3.912397-8.12109-5.792972 3.49578-.712323 6.17512-1.22075 9.58984-1.783204zm222.67188 56.080076c9.01884 2.31568 15.59706 8.0409 22.26367 13.2168-7.56171-1.54506-15.42886-2.2068-22.33594-.0703-1.18031-.74277-2.35813-1.4895-3.53711-2.23438zm-254.60742 1.29492c.90198 2.5066 1.83205 5.00287 2.75976 7.5-4.3331-1.11212-9.19862-1.52381-13.13476-2.03515 3.73741-2.01459 6.96253-3.76027 10.375-5.46485zm260.00586 69.5c1.2819 2.98851 2.3872 6.046 3.53906 9.08594-3.04189-1.33343-6.08611-2.66118-9.19141-3.84179 1.99217-1.84829 3.81039-3.53509 5.65235-5.24415zm-31.83594 57.4375c.42703 3.89157.5821 7.80476.84961 11.70899-2.70937-3.5799-5.78564-7.12635-8.6543-10.09961 2.80193-.55937 5.25151-1.06731 7.80469-1.60938z" fill="#994100"/><g stroke-width="36"><path d="m98.397665 180.37399c-21.214502 29.01295-24.375207 67.69309-11.730025 88.2059-.02651-22.32081 6.32978-51.33128 29.02031-75.40254.0519-.0549.0948-.11206.14606-.16737 12.58215 15.087 28.64211 27.30743 47.28425 32.62728 2.0503 4.42773 4.78821 8.67927 8.09364 12.75112l8.68018 9.10484c6.64918 6.03814 14.60823 11.58324 23.56386 16.56529 9.90799 5.51185 19.75555 9.62774 29.23926 12.02334l10.39594 1.92905c4.9125.56594 9.69278.61506 14.27966.0528 14.355 13.02728 33.19982 20.22171 52.6403 22.94995-.022.0781-.0502.14902-.0707.22793-8.45846 31.98861-29.70388 52.70131-48.66546 64.47386 24.07719-.071 55.23184-23.17705 68.65827-56.5365 4.6842-11.64158-.87954-18.73158-7.44181-19.15371l.004-.0742c-18.62137-.91674-36.60478-5.82729-50.66536-15.84502 6.3323-2.82254 12.32541-7.13467 17.92868-13.30817 21.77621 7.7962 45.52019 4.81236 66.85894-3.90945 11.01332 31.54861 2.64111 57.43833-8.65013 80.53831 21.20248-19.35375 39.01732-46.09546 32.45651-81.69021-2.32169-12.56844-12.2618-16.76934-18.93238-14.44321l-.036-.0694c-.45245.23253-.91249.44686-1.36722.67346-.053.0283-.10863.0513-.16089.08-20.12186 10.00498-42.2345 14.38802-62.33324 8.54374 1.22629-1.89259 2.4296-3.8948 3.60939-6.01906 1.63811-2.94948 3.11055-5.93619 4.43409-8.94333 30.27627.31393 55.17829-17.61683 72.19113-40.93835 24.29167 22.09925 24.17968 58.62674 25.93963 83.97634 18.03266-24.56724 18.23437-65.89639-5.241-93.45466-9.54958-11.20327-23.00965-9.62496-26.42669-3.49424l-.1256-.0792c-14.65789 22.78035-35.96362 40.15093-61.82042 41.68655 2.05547-6.93193 3.32164-13.89881 3.83319-20.75843 27.40067-14.09727 40.72398-41.871 44.31379-70.70147.58941.0392 1.20159.0576 1.83724.0471 33.86922-.49022 52.14101 27.5815 70.52204 45.89444-1.95617-22.78528-17.65417-46.07843-40.48177-58.53913l.00079-.001c-7.60978-4.1542-16.01128-7.10432-24.96135-8.42923-12.59829-1.85892-18.99865 5.51659-18.34259 12.04706-1.62623 26.59842-11.50662 51.67241-32.90853 65.59432-1.97752-25.2397-14.48164-47.5532-35.57029-59.28489-21.08722-11.7309-46.62439-10.57619-69.08769 1.06792.51463-25.53972 16.57137-47.174983 38.27995-62.596867 5.89407-2.88568 8.77989-12.22193.54341-21.947886-23.39664-27.626223-64.22026-34.090775-91.37718-20.271354 25.26063 5.951108 58.7116 6.666924 76.17601 35.714237.32636.544725.66481 1.054269 1.00854 1.534162-22.56723 18.271399-39.09949 44.257188-36.59492 74.988058-5.55389 4.05641-10.79757 8.81245-15.59632 14.22015-12.35271-22.79079-8.85012-50.08022 2.73098-74.569408l-.12496-.0602c3.39531-6.144075-2.37663-18.411911-16.93174-20.612592-35.77826-5.404738-70.744543 16.587542-82.071827 44.88407 22.449057-11.896934 53.389547-31.279065 84.964537-22.283649-10.79749 26.768889-12.87799 57.402799 3.3774 82.973669-1.85304 2.71072-3.6075 5.53588-5.24561 8.48537-1.1786 2.12212-2.24233 4.20012-3.20201 6.24009-15.56774-14.00084-23.5242-35.10491-25.77787-58.33499-1.67122-7.74142-10.48567-13.96911-22.37999-9.30163-33.663117 13.20405-46.957352 42.4755-52.187469 70.71473 13.646753-21.80357 31.196982-42.58659 63.783099-49.88067 3.8651 22.74188 13.87092 44.49247 31.98133 58.88908-2.28201 8.02764-2.77868 15.40398-1.82677 22.28248-15.93125-6.66125-29.60122-19.35679-40.23619-34.69034-3.84825-5.33577-12.79954-6.31961-20.204405 3.80566z" fill="#ffa348"/><path d="m275.44578 210.6325c13.83702 7.69758 18.83968 25.16194 11.15329 39.00161-7.68086 13.8297-25.13687 18.81326-38.98456 11.10973-13.83703-7.69758-18.84048-25.16052-11.15329-39.00161 7.68086-13.8297 25.13686-18.81326 38.98456-11.10973z" fill="#994100"/><path d="m210.7876 174.66291c13.8477 7.70352 18.83968 25.16194 11.15329 39.00161-7.68087 13.82971-25.13687 18.81326-38.98457 11.10974-13.83702-7.69759-18.84047-25.16052-11.15328-39.00161 7.68086-13.82971 25.13686-18.81327 38.98456-11.10974z" fill="#994100"/><path d="m268.9314 248.35397c-3.45925-1.9244-7.82592-.67999-9.74614 2.77743-1.92021 3.45743-.67164 7.82561 2.78761 9.75001 3.45926 1.9244 7.82735.68078 9.74757-2.77664 1.92021-3.45743.67022-7.8264-2.78904-9.7508z" fill="#ffa348"/><path d="m204.27322 212.38438c-3.45925-1.9244-7.82521-.6796-9.74543 2.77783-1.92021 3.45743-.67164 7.82561 2.78761 9.75001 3.45926 1.92439 7.82735.68078 9.74757-2.77664 1.92021-3.45743.67022-7.82641-2.78904-9.7508z" fill="#ffa348"/><path d="m267.51426 214.57306c-6.91851-3.84879-15.65185-1.35999-19.49228 5.55487-3.84043 6.91485-1.34187 15.65201 5.57664 19.5008 6.91851 3.8488 15.65185 1.35999 19.49228-5.55487 3.84044-6.91485 1.34187-15.65201-5.57664-19.5008z" fill="#ffa348"/><path d="m202.85465 178.60268c-6.91851-3.84879-15.65185-1.35999-19.49228 5.55487-3.84043 6.91485-1.34186 15.65201 5.57665 19.5008 6.91851 3.8488 15.65185 1.35999 19.49228-5.55487 3.84043-6.91485 1.34187-15.65201-5.57665-19.5008z" fill="#ffa348"/></g></svg>