<svg height="500" viewBox="0 0 500 500" width="500" xmlns="http://www.w3.org/2000/svg" xmlns:xlink="http://www.w3.org/1999/xlink"><radialGradient id="a" cx="1362.7291" cy="216.11429" gradientTransform="matrix(1.0000001 -.0000059 .0000001 1.0000003 -112.72927 33.893757)" gradientUnits="userSpaceOnUse" r="250"><stop offset="0" stop-color="#ff851a"/><stop offset=".42441937" stop-color="#f87000"/><stop offset=".86367416" stop-color="#f26900"/><stop offset="1" stop-color="#e55f00"/></radialGradient><g transform="translate(-1000)"><path d="m1500 250a250 250 0 0 1 -250 250 250 250 0 0 1 -250-250 250 250 0 0 1 250-250 250 250 0 0 1 250 250z" fill="url(#a)" stroke-linecap="round" stroke-linejoin="round" stroke-width="1.002"/><path d="m1309.2298 33.82789c128.5196 30.706851 207.8974 167.48127 169.5927 291.56949-31.3771 95.69524-112.8693 162.03793-212.5543 174.60263 153.1796-8.09118 266.0956-163.0043 218.7012-309.92978-36.4562-114.666588-154.6038-191.5214848-270.6514-169.822657-18.8526 4.215647-38.4387 10.498641-55.8829 18.694487-112.5353 47.459213-168.47522 196.206-99.9632 307.85319 57.6978 93.63045 168.5136 141.8489 267.9993 100.77239-134.92 68.97589-303.283-51.46877-311.488-201.30723-4.4167-117.68321 76.8182-219.674136 190.654-246.26040176-89.0147 9.18391126-152.6601 79.39239576-187.7408 157.21169176-38.45522 102.70317 5.2337 231.75078 109.038 294.08388 114.5107 66.1048 260.3537 29.37245 323.6836-83.60152 42.2104-77.69758 34.3514-177.62383-23.1776-249.88923-57.5404-72.257811-157.5429-102.460489-246.4118-71.877168-81.7429 30.682061-131.1298 101.133078-134.0478 190.176958.6692 92.68536 61.7912 168.55972 147.5399 198.52472 128.5549 37.82014 266.7725-70.33038 233.6823-209.88949-14.7104-64.39775-57.8855-122.14991-125.7378-141.121386-71.391-15.467036-138.9716 1.205-181.2869 64.641366-18.8995 29.2286-28.9384 85.21395-26.105 97.65297m0 0c13.5324-50.18833 30.6277-97.66354 72.2125-128.94941 53.182-38.308183 124.4576-37.093813 181.7444-.48035 50.1457 36.48017 75.4845 90.37713 72.3557 150.91678-6.6674 64.04407-38.4038 109.83277-91.6401 141.00844-63.9019 34.56125-135.3795 4.83213-189.1258-35.28385-78.8706-65.48566-79.7477-186.67235-8.9744-256.76104 63.7369-55.941605 167.0207-64.891564 238.7167-6.65053 78.8163 58.35315 90.3045 169.04089 40.972 246.62443-35.2274 56.41892-88.4571 87.60135-152.5581 93.63158-81.9488 2.18264-160.666-41.91503-196.8695-120.9383-36.2055-79.02511-22.5771-164.33167 26.8727-227.66064 49.4316-63.30896 138.3491-86.746364 220.4504-67.54202" fill="#c50"/></g><path d="m177.66406 0-14.17968 30.90625c-6.5128 14.194676-12.09467 34.794992-12.45899 55.017578v.002.002c-.0378 2.124665-.5427 9.760049 2.04102 20.167962l.41406 1.66016.7168 1.55273c2.68318 5.80664 9.53918 14.59069 19 17.27735l.67382.1914.6875.13868c4.5166.91053 10.88688 2.0104 17.89844.48437 4.36088-.94915 8.30559-2.39882 12.27344-4.39453 3.96784-1.99571 7.93064-3.58106 12.45898-10.09375l.10938-.1582.10742-.16211c3.97921-5.99504 5.53368-12.08936 6.02344-19.080077l.17383-2.492188-.50977-2.445312c-4.54088-21.742542-18.92352-44.70813-27.84375-59.470797zm159.75196 2.1835938-28.0254 19.2480472c-17.27976 11.86866-39.82787 33.078854-49.79101 58.548828l-.0293.07617-.0293.07813c-.51585 1.355266-2.79888 8.521987-1.88282 14.992187 1.72165 12.160254 7.18446 14.959204 11.91602 18.943354 4.73155 3.98417 9.78216 7.29757 16.8125 9.33399 5.80112 1.68036 11.77505 2.46538 18.68945 1.92578 3.45721-.2698 7.15826-.83791 11.41602-2.70899 4.25775-1.87107 9.65802-5.66496 12.55859-12.15625 2.50026-5.59541 2.45339-5.61861 2.79297-6.42187l.23437-.55664.19727-.57031c7.86592-22.748979 5.39413-48.824864 5.30664-66.734376zm-290.083989 88.4628902 12.074219 31.794926c6.511276 17.14612 19.417527 39.63058 38.958984 53.34961l9.138676 6.41601 9.80664-5.33594c9.06901-4.93464 14.89519-12.24355 19.12109-20.40429 4.22593-8.1608 7.04338-17.48468 5.13281-28.30664l-1.36718-7.7461-6.61329-4.25976c-17.52563-11.28397-39.389711-14.32405-53.171871-17.613284zm61.564449 101.523436-4.48437 1.64649c-18.967029 6.96428-36.00758 21.98813-47.66211 31.60351l-26.230469 21.64063 32.644531 9.52343c17.58017 5.12906 44.359508 9.21495 67.888668 1.62696l11.59375-3.73828.83985-12.1543c.81522-11.81033-1.79245-22.42996-6.52735-30.96484-4.7349-8.53496-11.03709-16.31249-23.3496-18.38868z" fill="#994100"/><path d="m68.204574 239.30397c12.77176 3.72619 42.404696 6.58684 57.324086 1.77544.57699-8.35897-1.34143-15.64526-4.30898-20.99442-2.96754-5.34916-6.98423-8.76115-10.60376-9.37149-13.055746 4.79379-30.960086 19.14279-42.411346 28.59047zm8.02873-123.25369c4.72333 12.43793 19.64491 36.00251 32.474706 45.00963 4.64447-2.52716 8.88758-7.36271 11.73943-12.87 2.85186-5.5073 4.31245-11.68639 3.3919-16.90063-11.6938-7.52911-33.165516-11.79265-47.606036-15.239zm101.881626-6.77913c4.13157.83292 7.08461 1.28752 10.51346.54125 5.06079-1.10149 11.71606-4.20497 13.78162-7.17567 1.53847-2.31784 2.75683-6.003585 3.06359-10.382229-3.20485-15.345258-16.97492-39.518507-25.62969-53.841847-5.08092 11.073895-10.52255 31.293838-10.82054 47.834767-.0679 3.816866-.65875 6.759831 1.51376 15.511299 1.78359 3.85982 3.81475 6.44381 7.5778 7.51243zm97.36627-16.667977c.62987 4.448867 9.2288 11.576267 15.91262 13.512307 6.86244 1.98778 18.81728 2.39186 21.22359-2.99331 2.46771-5.522586 2.1152-4.832267 2.64626-6.088478 5.71629-16.532047 4.40926-42.095107 4.31806-60.764474-13.79271 9.473563-36.03703 31.908474-43.21894 50.268448-.62417 1.639866-1.28142 3.241473-.88159 6.065507z" fill="#ffa348" stroke-width="36"/><path d="m240.17578 81.123047c-8.51962-.04575-17.10626.406902-25.6543 1.388672-20.35541 2.337451-40.68687 7.769873-59.32031 16.708984v-.001953c-10.73627 5.15049-20.79074 11.44025-30.12305 19.08984-17.28332 14.16809-25.462842 34.9531-27.029292 55.42969-.6842 8.94413-.162013 17.94886 1.388672 26.75391 3.67732 20.88164 12.94398 40.8376 27.84766 55.70312 2.53131 2.52485 5.33408 4.81623 8.25 6.98242-25.32744 3.40682-48.333834 10.47691-68.205082 21.98047-21.620845 12.51645-38.875225 30.63402-50.412109 53.48438a250 250 0 0 0 233.082031 161.35742 250 250 0 0 0 6.27148-.44922c-20.2911-10.41629-35.6103-20.96077-44.70898-31.24609-9.47729-10.71332-13.08648-20.08961-12.0957-33.5.28344-3.83664 2.92594-8.63244 9.19922-13.66797 6.26888-5.03204 15.55486-9.38378 23.84765-11.48633 13.47166-3.38607 28.98425-4.55719 45.96289-5.78125h.01367l.01172-.00195c15.27845-1.12285 33.7571-1.70042 50.94532-9.41797l.09765-.04297.09375-.04297c17.99526-8.33331 31.82593-20.98486 44.05078-33.36328l.37696-.38281.35547-.4043c15.85626-18.10122 26.9011-38.97939 33.01757-60.43164l.00391-.01367.00391-.01367c5.42472-19.13993 6.33909-37.77787 5.95703-55.76172l-.01368-.72071-.07421-.71679c-2.66037-26.20166-8.14955-53.99386-21.94532-77.76953l-.00976-.01563-.00977-.01758c-6.30959-10.82118-14.67948-21.37743-24.16406-32.05859-11.83589-14.38909-26.90809-25.39467-41.5332-32.68555l-.03711-.019529-.03711-.017578c-18.0007-8.869256-38.51572-14.61485-60.15235-17.25-8.27917-1.008347-16.73233-1.551902-25.25195-1.597656zm2.88086 92.382813c2.23993-.02997 4.55231.04301 6.94336.23242 19.12843.46632 34.0567 8.28974 47.25586 32.73047 3.7783 6.99623 4.7777 13.7726 3.27344 19.71289-1.50427 5.94029-5.60901 12.56388-12.86719 18.70313-13.82981 11.69771-38.80881 20.50625-69.13672 18.35351 12.23979-7.92056 27.01979-20.30888 36.24805-34.0918 9.5336-14.23895 14.54269-31.86965 18.29883-48.04101-13.22794 8.21652-26.74644 15.12167-40.91016 20.9707-11.42206 4.71685-30.28882 11.76983-35.31055 11.29492-5.02171-.47491-3.69383-.43382-4.39062-2.34765-.69679-1.91384-.8345-7.40346 1.375-12.88282 2.20926-5.47875 6.34416-10.44005 10.37109-12.76562 11.02171-6.36305 23.17009-11.65937 38.84961-11.86914z" fill="#994100"/><path d="m240.08008 99.126953c-7.82089-.042005-15.69666.370888-23.50391 1.267577-18.54438 2.12949-37.01724 7.10517-53.58789 15.05469-9.55145 4.5821-18.31321 10.07222-26.49805 16.78125-12.77814 10.47494-19.20994 26.11945-20.49218 42.88086-.55994 7.31974-.13658 14.85232 1.16797 22.25976 3.09304 17.56389 11.1463 34.42425 22.83203 46.08008 22.93002 22.87125 59.84496 25.70243 100.70312-25.52734-80.11513 43.16993-78.46115-29.10155-45.49219-48.13672 36.28782-20.94966 87.11678-24.3302 117.96094 29.09375 24.38264 42.22684-27.72371 89.76829-101.0332 81.98633-92.13517-9.77867-162.693625 13.89054-185.558595 80.28711a250 250 0 0 0 191.449215 136.55859c-24.91706-17.79543-38.45166-37.95011-36.50976-64.23437 1.52889-20.6948 25.29204-35.88906 46.5957-41.28321 15.59447-3.92137 32.12593-5.05771 49.07031-6.27929 15.33369-1.12691 32.48673-2.31646 44.89258-7.88672 14.79545-6.85179 27.1111-17.8353 38.80664-29.67774 14.05795-16.04829 23.85747-34.59957 29.24805-53.50586 4.73234-16.69698 5.64252-33.37568 5.2793-50.47265-2.52522-24.87064-7.92002-50.41059-19.60743-70.55274-5.42934-9.31112-13.23598-19.27748-22.41992-29.58984-9.82399-11.98001-23.30155-21.90363-35.75781-28.11328-15.87288-7.82084-34.52041-13.10947-54.37305-15.52735-7.58492-.923787-15.35098-1.420882-23.17187-1.462887z" fill="#ffa348" stroke-width="36"/><path d="m378.7832 146.83008c.002.00094.008.009.01.01-.001.00075-.005.003-.006.004-.0361-.005-.0849.002-.11524-.006-.23569-.0589-.20615-.18182.11133-.008z" fill="#994100"/><path d="m462.74414 86.683594-39.76367 8.933593c-16.07972 3.612479-34.37724 9.204403-49.75195 17.587893-9.44654 5.15097-16.69214 10.58425-22.19922 17.70703l-.0645.082-.0625.082c-5.18208 6.86455-6.97884 15.83851-5.9414 23.00781 1.03744 7.16931 4.08998 12.74612 7.70703 17.20313 5.3723 6.61987 11.71428 9.08644 17.2793 10.47656s10.61118 1.74245 16.51171.52735c12.06855-2.48472 19.6269-8.96554 27.92969-18.125l.002-.004c11.05926-12.19581 19.88766-27.52928 28.17383-42.06836zm-67.14062 149.990236c-9.75741.0459-19.5504 6.39059-23.77149 12.92578-4.22108 6.53519-5.10641 12.38451-5.62695 16.81055-.7391 6.28675-.0354 12.68657 2.81054 19.17968 2.84628 6.49378 8.53468 13.27376 16.79297 16.64844l.0254.0117.0274.0117c4.29292 1.73833 9.95117 3.13362 16.08008 3.49219 5.73166.33549 8.42002-.45402 9.08203-.48633h.002c16.44468-.8045 33.53098-5.40357 49.67188-9.82422l39.30262-10.76363-34.42578-21.80469c-13.92666-8.82019-30.81966-17.80358-47.61524-22.74805l-.002-.002c-1.73075-.50928-4.4784-1.56493-8.62109-2.38477l-.28907-.0566-.28906-.0469c-5.28596-.86786-9.80904-.97868-13.15429-.96289zm-47.4336 97.87304c-2.13523-.13156-4.17164-.011-5.97851.375-7.22751 1.54399-11.19631 4.72258-13.48438 6.26172-4.11584 2.76865-8.879 6.57007-12.66601 12.92969-3.78701 6.35963-5.74633 16.15494-3.06446 24.99024l.0332.10742.0332.10742c2.00752 6.32981 4.8701 10.43894 7.65625 14.27148 5.09468 7.00806 10.51531 11.65072 15.9375 17.08008h.002c14.45617 14.47462 32.48457 27.31998 48.42383 37.60938l40.30664 26.01953-13.24414-46.10938c-5.16223-17.97405-13.39646-39.88466-24.34961-58.60937l-.0762-.13281-.0801-.13086c-3.61972-5.95284-7.04491-12.42784-13.05273-19.11719l-.004-.004-.006-.006c-2.69135-2.99245-5.55029-5.85674-8.01562-8.11328-4.75326-4.49383-12.00102-7.1368-18.3711-7.5293zm-92.03711 25.60352c-2.77887.0185-5.0216.38613-6.71094.59961-5.26139.66484-11.24245 2.40331-16.84375 6.61133-5.60129 4.20801-10.24904 11.19882-11.93359 18.85547v.002c-.63882 2.90464-.99211 6.93373-.98828 13.10156v.002c.006 8.63648 1.88975 16.19501 4.2168 24.90039l-.002-.002c5.28115 19.76487 14.4714 39.90468 23.13086 56.78516l21.89649 42.68555 11.58593-46.55274c4.51591-18.14478 8.34441-41.23446 8.22266-62.92969v-.002c-.0427-7.50396-.57388-14.34898-1.61133-20.89453-.60463-3.8148-1.36008-7.76067-2.51758-11.74805-2.40511-9.10527-10.90439-17.56536-18.51562-19.91601-3.83692-1.185-7.15081-1.51653-9.92969-1.49805z" fill="#994100"/><path d="m366.64516 159.94517c3.54066 4.36288 11.50276 5.67915 16.18355 4.71523 4.68191-.96393 11.79991-5.49714 18.22617-12.58679 9.03313-9.96068 17.69309-24.54416 25.87106-38.89338-14.90177 3.34784-32.21444 8.81226-45.07949 15.82728-7.73706 4.21883-13.57452 9.03053-16.57715 12.91409-4.68606 6.20748-2.42097 13.34503 1.37586 18.02357zm25.97207 125.63153c2.86081 1.15843 5.85985 1.94409 10.37547 2.20827 2.16856.12704 4.66732-.37412 7.15334-.49545 13.43302-.65716 29.86781-4.84461 45.7967-9.2072-12.9044-8.17276-29.0116-16.55076-43.06654-20.68841-2.33413-.68683-4.87858-1.56848-7.03538-1.99531-4.02144-.66025-7.18364-.73841-10.1527-.7244-8.52273.0401-10.90354 7.85845-11.60673 13.8375-.74292 6.31669 1.68499 14.26546 8.53584 17.065zm-62.41618 88.29942c.90399 2.85032 2.91437 6.18032 5.05793 9.12893 3.47498 4.78006 8.33497 9.15831 14.11479 14.94577 12.86098 12.87739 30.11042 25.30393 45.45063 35.20662-4.80525-16.73111-12.79353-37.74915-22.58534-54.48852-3.84149-6.31756-6.80702-11.70076-11.06497-16.44173-2.23745-2.48777-5.25046-5.50485-6.97514-7.07191-5.67596-5.42317-11.16565-1.91504-15.44602.96429-5.45103 3.66681-11.02034 9.62434-8.55188 17.75655zm-88.93933 45.69806c4.69845 17.5841 13.42267 36.97175 21.75613 53.21672 4.20405-16.89175 7.7976-39.08621 7.68876-58.4811-.0383-6.73427-.50358-12.59177-1.38914-18.17901-.55141-3.47901-1.28941-7.17268-2.11651-9.9321-2.21502-8.76304-9.80843-8.31215-15.52262-7.59005-5.84819.73899-11.77045 3.82029-13.45476 11.47583-.42081 1.91336-.5706 3.36586-.56696 9.22507.004 5.85917 1.36418 11.88147 3.6051 20.26464z" fill="#ffa348" stroke-width="36"/></svg>