<svg height="500" viewBox="0 0 500.00009 500" width="500.00009" xmlns="http://www.w3.org/2000/svg" xmlns:xlink="http://www.w3.org/1999/xlink"><radialGradient id="a" cx="1249.9998" cy="1250.0005" gradientTransform="matrix(0 -1 1 0 -.0005 2499.9997)" gradientUnits="userSpaceOnUse" r="250"><stop offset="0" stop-color="#393"/><stop offset=".7379747" stop-color="#393" stop-opacity=".9"/><stop offset="1" stop-color="#393" stop-opacity=".1"/></radialGradient><filter id="b" color-interpolation-filters="sRGB" height="1.214379" width="1.115358" x="-.057679" y="-.107189"><feGaussianBlur stdDeviation="7.1691526"/></filter><g transform="translate(-1000 -1000)"><circle cx="1250" cy="1250" fill="#2ad52a" r="250"/><path d="m1258.9184 1271.0417c17.1144 30.6662 44.2259 53.4982 76.3129 67.0503 47.0888 19.252 101.3032 18.539 148.3503-.7179 3.5837-7.846 5.7089-15.6928 7.8759-23.5354-44.255 22.8273-95.5943 29.9536-144.8083 16.402-20.669-5.7007-39.2545-15.6936-56.3481-29.2453-11.4138-9.2678-21.4025-19.2524-29.245-31.383.7122 0 1.4251-.7126 1.4251-.7126 21.3984 24.9615 47.7889 42.0844 79.1674 50.6396 47.0888 12.1307 94.8859 6.4216 137.6825-16.402 1.4168-.7125 2.8336-.7125 4.2505-1.4293 4.2922-2.8504 7.8759-4.9882 12.1264-7.1343 1.4168-8.551 2.1668-16.4062 3.5837-24.9614-2.8753 1.4294-5.0006 3.5671-7.8342 5.7091-2.8753 1.4251-5.0006 2.8461-7.8759 4.9881-54.1729 34.9543-120.5139 44.2305-178.3122 16.4103-2.1251-1.4293-4.2921-2.8586-6.4173-3.5712-.7087-.7126-2.1252-1.421-2.8336-2.1336-1.4585-.7209-2.167-.7209-3.5797-1.4294-10.697-7.1342-19.2605-12.8391-27.8198-22.111 0 0 .717-1.4335 1.4252-1.4335 2.1461.7125 3.5712 3.5712 4.9964 5.0006 38.5211 29.9537 85.6097 37.8046 132.6569 27.8159 10.0011-2.1378 18.5438-4.2839 27.8364-7.8426 16.4187-7.1342 31.3787-13.5559 46.3387-24.2614 5.0005-4.2713 10.0012-7.1258 15.0017-10.6888 2.1253-2.1461 4.2505-4.2797 7.1258-6.4258-.7087-8.5594-.7087-16.3978-1.4168-24.9614-2.1669 2.1378-4.2922 4.9923-6.4174 7.1301-5.0006 4.2838-9.2928 7.8509-13.5849 12.1265-5.6674 4.9922-12.0847 8.5593-17.7937 13.5516-5.0005 3.5671-10.0012 5.7091-15.0017 8.5552-55.6313 33.5292-123.3892 37.0963-178.308-1.421 0 0 .7123-.7167.7123-1.4251 77.0421 44.9388 176.8869 9.2719 227.5177-58.4906-2.1252-7.8468-4.2504-16.4103-5.709-24.2488-28.5033 44.9347-72.0083 79.8848-126.9312 91.2946-32.1286 5.709-64.2156 3.5713-93.4523-10.6972 0-.7126.7122-1.4251.7122-1.4251 30.6494 10.7013 62.7781 11.4139 94.1567 2.8545 17.8355-4.9965 33.5039-12.8433 49.9224-22.8237 8.5844-5.7048 15.0017-11.4139 22.836-17.8313 12.1264-11.4098 22.0858-22.1153 32.087-36.3795 5.0005-7.8468 10.0011-14.981 14.2516-23.5446-3.5421-7.8385-5.709-15.6853-9.9594-22.8153-4.2922 11.4056-10.0012 22.1069-16.4186 32.8082-7.1259 11.4139-14.2517 21.3985-23.5444 31.3789-14.2516 14.9851-29.2533 27.8201-47.7971 37.8046-35.6291 19.2607-76.3004 26.395-114.8215 16.4062 0-.7084.717-2.1377.717-2.1377 33.5121 6.4174 66.3492 0 96.2694-14.981 30.6701-15.6895 54.9646-39.2299 73.4667-69.1836 10.0012-16.4062 17.127-32.0956 22.8359-49.2186-5.0005-7.1342-8.5426-14.26-14.2516-20.6817-3.5838 17.8314-9.2927 34.2334-17.8354 50.6354-.7088 1.4377-.7088 2.8587-1.4168 4.2839-15.7101 29.2453-35.6708 52.7773-64.2158 72.0422-6.4172 4.2797-13.5431 7.1301-19.9605 11.4139-6.4175 3.563-13.5433 4.9965-20.6691 7.1301-17.127 5.7048-34.9706 9.2761-53.5144 6.4174v-1.421c22.8443-.7125 45.6385-6.4174 66.3493-16.4103 2.1251-1.421 4.2504-2.1336 6.4173-3.5671 14.9602-8.5594 27.0865-18.5398 39.2129-30.6705 3.5837-4.2797 7.1258-7.8426 10.7095-12.1265 1.4169-2.1378 2.8337-4.2797 5.0006-6.4174 20.669-30.6747 33.5039-62.0494 37.796-96.9995-5.709-6.4258-11.418-12.8432-17.8354-17.8314-.7087 42.0761-12.8348 81.3101-38.5044 116.9686-27.1281 36.3753-65.6326 59.9241-109.1458 64.908 0-.7125 0-2.1377 0-2.1377 24.2611-4.9923 45.6385-14.2601 64.9324-29.9537 19.9607-16.4104 34.9207-34.9543 46.3387-57.0612 16.4185-33.525 23.5443-69.9087 21.4191-106.284-6.4591-4.9964-12.8765-9.9804-20.0024-14.2601 2.167 17.8314 2.8754 35.6628 1.4169 54.2109-1.4169 9.9804-2.8336 19.2565-4.9589 29.2369-3.5838 14.981-8.5843 28.5285-15.7101 42.0927-19.9606 37.7922-53.5062 68.471-94.1441 79.8849 0-.7126 0-1.4335 0-1.4335 30.6785-12.8391 55.6396-33.5167 74.1835-62.7661 2.8335-4.2756 5.0005-9.272 7.1258-13.5517 7.8342-13.5516 12.1264-27.0992 14.9601-42.0843 0-1.421 1.4584-2.142 1.4584-3.5672 5.7091-31.3872 5.7091-62.0534-2.1668-92.0113-7.1258-4.2797-14.2517-7.8468-22.086-10.6971 12.1265 34.2417 14.9602 70.6128 8.5427 107.7049-3.5421 15.6936-7.8342 30.6704-14.96 44.9347-4.2923 7.8468-8.5844 14.9769-13.585 22.8237-14.96 20.6817-32.7912 35.6627-54.1895 47.0724-.7122 0-1.4251-2.1336-1.4251-2.1336 12.8347-7.1342 23.5276-16.4103 33.5288-27.1033 16.3768-17.8355 27.0864-39.234 34.2539-62.0618 13.5432-46.3599 7.8342-94.8617-10.7096-138.3713-7.8759-2.1377-15.7101-4.9922-24.2527-6.4174 14.2516 27.1075 24.9611 57.0612 27.0864 88.4484 2.1253 31.3789-2.8337 62.7619-17.127 91.2946-1.4168 2.1419-2.8336 4.2797-3.5421 6.4216-.7087.7168-1.4585 2.1378-2.1668 2.8504-.7088 1.4293-.7088 2.1377-1.4169 3.5671-10.7095 14.981-20.6774 29.2411-36.3708 39.2256 0 0-.7087-.7084-1.421-1.421 12.839-9.2761 21.3941-22.1194 29.2492-35.6669 36.3791-60.6241 27.0865-131.9579-8.5676-190.4401-2.1336-2.8545-3.5672-4.9965-4.9923-7.851-8.5593-.7125-16.406-1.421-24.9653-2.1336 6.4174 8.5552 12.1263 17.1146 18.5437 26.3866 6.4216 10.7013 10.7012 20.6859 15.6935 31.3872 4.9964 12.1223 7.83 23.5362 10.7054 36.3795 9.251 50.6396-2.167 103.4169-37.1001 140.509 0-.7084-.7087-1.421-.7087-1.421 19.2563-25.6824 29.2242-53.4983 31.391-84.1687 3.5421-54.9193-20.694-109.1302-58.4983-148.36-8.5594 0-16.402.7084-24.9612 2.1336 29.9534 25.6823 52.7769 57.7738 64.9032 95.5826.717 2.8545.717 4.9923 2.1461 7.8426.7123 1.4336.7123 2.8546.7123 4.2839.7123 1.4252 1.4209 2.1419 1.4209 3.5671 8.5594 41.3676 4.9964 81.31-19.2563 117.6854 0 0-.7123-.7127-1.4252-.7127 7.8468-14.9768 12.839-30.6704 15.6935-47.785 2.1377-14.9852 2.1377-29.9537 0-44.9389-7.8467-54.2025-40.6588-101.2833-84.168-131.9538-7.8468 2.1378-15.6935 4.2797-23.5361 7.1301 52.0685 29.2411 92.0106 80.6057 99.8574 141.2299 2.8503 25.6781.7123 51.3605-9.9846 74.8925-.7122 0-1.4293-.7125-1.4293-.7125 0-2.1419 1.4293-4.2797 2.142-6.4216 7.1341-27.8159 6.4174-56.3445-2.142-83.4478-6.4132-19.2566-14.2682-36.3837-26.3946-52.7857-2.1378-2.1336-3.5588-4.2797-4.9881-6.4174-21.3983-25.6824-46.3595-44.9347-75.6046-59.199-7.8467 2.8503-14.9808 6.4174-22.1066 10.693 7.1258 2.8545 14.2599 4.9923 20.6774 9.272 1.4292.7167 2.8544.7167 4.2796 1.4251 29.9534 14.981 54.2104 34.9502 74.1835 62.7703 26.3863 37.092 37.0876 79.1764 27.8156 123.3985 0 0-1.4293 0-2.1377 0 2.8462-13.5558 1.4211-26.3907 0-39.9507-2.1377-17.8272-7.8508-33.5167-16.4102-49.2061-9.2677-18.544-22.1067-34.9543-37.8043-49.9353-12.8347-11.4056-26.3864-20.6859-41.363-29.2411-1.4336-.7126-2.8545-.7126-4.2839-1.4294-13.5557-7.1259-27.8157-12.1181-42.084-17.1146-7.1299 4.9965-13.5515 9.272-19.9689 14.9727 27.8198 5.0006 53.4936 14.9852 78.4548 29.2536 1.4335.7084 1.4335 2.1378 2.8586 2.8462 48.5014 29.962 81.3093 82.7435 78.4632 139.088h-1.4335c-2.1378-42.797-23.536-81.3101-55.6272-109.8469-2.1419-1.421-4.2839-2.8504-6.4174-4.984-.717-.7167-2.1502-1.4335-3.5754-2.1419-.717-.7168-1.4252-2.1378-2.8462-2.8503-32.1036-22.8279-67.0493-34.9544-104.862-37.8089-7.1258 4.9923-12.1222 12.1265-17.827 17.8356 44.9343-.7126 87.735 10.6971 125.5352 38.5172 34.2373 24.9614 57.0649 60.6241 63.4822 101.2792-.7087 0-2.1418 0-2.1418 0-11.4097-48.4977-45.6469-84.1646-88.4435-105.5631-4.9923-2.1336-9.9844-4.2838-14.9726-5.7048-30.6785-12.1265-63.4906-15.6895-95.586-12.8391-4.2796 7.1342-9.9843 13.5475-13.5515 21.3985 27.8199-6.4175 55.6356-5.7049 84.1638-.7084 1.4336 0 2.1461 1.421 3.5755 1.421 37.0876 7.8468 69.1828 24.9614 93.4356 53.4982.7123.7126 2.1377 1.4252 2.8504 2.1378 11.4138 14.981 21.3982 29.2494 26.3864 47.0766 0 0-.7123.7126-1.4252.7126-22.1109-50.6438-71.3249-84.1646-126.2436-92.7281-14.2684-2.1378-28.5325-2.8504-42.7966-2.1378-16.4102.7125-32.8121 3.5671-49.2223 7.8468-2.842 7.8426-7.1217 14.9769-9.2636 22.8278 54.2062-20.6859 116.9676-22.111 169.036 8.5552 24.257 14.2685 42.8008 32.8166 56.3523 56.3487-.7123 0-2.1418.7125-2.1418.7125-23.532-34.9502-56.3399-54.9193-96.2861-64.1913-46.3636-9.9887-92.7315-2.1419-133.3778 17.8314-1.4293 7.8468-5.0006 15.6894-5.0006 24.2488 12.1264-8.5594 26.3947-14.2642 40.6588-19.9774 16.4061-6.4133 32.8038-9.2637 49.9266-11.4014 53.4979-5.7091 108.4166 13.5475 142.6539 54.9151-.7123 0-1.4252.7167-1.4252.7167-32.8121-32.0997-77.7464-47.7934-122.6766-45.6514-40.6672 2.1377-79.1799 17.8313-111.9836 41.3717-.7168 8.5594-.7168 16.4104-.7168 24.9615 9.9887-9.272 20.6857-17.1146 32.8121-24.2489 1.421-.7125 2.1377-2.1419 3.5629-2.8545 54.2104-31.383 121.2556-39.2298 176.8912-6.4174 4.2796 2.8503 7.8467 5.7048 12.1263 7.8426 2.8545 1.4293 4.9881 4.2797 7.8467 6.4258 0 0-.717.7084-.717 1.421-7.8425-5.7049-16.406-9.272-24.9653-14.2684-5.7007-2.1336-11.4096-4.2756-17.1145-6.4175-32.0953-9.9846-65.6241-8.551-98.4321.7127-26.3947 7.8468-49.2181 21.4026-71.3248 38.5172-1.4252.7127-1.4252 2.8587-2.8587 3.5671-6.4174 4.9965-11.4096 9.9887-17.1103 15.6936 0 4.9881.7084 9.9887 2.1336 14.9769v3.5712c.7126 2.1336.7126 3.563 1.4252 5.7091 7.8467-11.4139 17.8353-19.9775 27.8198-29.9621 5.7091-4.9922 11.418-8.5552 17.1145-13.5558 28.5325-20.6775 59.211-32.8124 93.4482-35.6586 30.666-2.1419 62.0488 3.5671 88.4393 19.2524-.717.7168-1.4293 1.4335-1.4293 1.4335-10.6971-5.7048-21.3942-8.5635-33.5205-10.7013-14.9725-3.5671-29.2451-3.5671-44.2218-2.8545-59.9152 4.9923-111.271 43.5095-143.3622 92.0114 2.8461 7.8509 4.988 15.6894 7.8425 23.5358 21.3984-40.6588 54.9188-74.8964 97.007-94.1487 12.8348-5.7091 25.6696-9.2762 39.9379-12.1265h4.2797c24.2569-4.9923 48.5055-1.421 71.329 6.4174 0 .7126-.7123 1.4294-.7123 1.4294-41.3713-9.9846-82.0344-3.563-118.4053 17.1187-25.6737 14.9769-45.651 34.2334-63.4822 59.199-1.4251 2.8545-2.8461 4.9964-4.9922 7.8468-6.4174 10.7005-12.1222 21.4035-17.1228 32.0998 2.1418 3.5663 3.5754 7.8426 5.7131 11.4089 2.8546 2.8554 4.2755 7.143 6.4174 10.698 4.2797-14.9773 10.6971-28.5289 17.8354-42.0752 3.563-6.4225 7.13-12.1315 11.4054-18.5489 19.2606-26.395 40.6631-47.0767 69.1914-60.6284 14.9767-7.1342 29.9576-12.839 46.3678-14.9726 15.6851-2.1461 30.6618-2.1461 46.3553 0v2.1336c-40.6546-3.5671-81.3177 10.6971-113.4088 37.8005-34.954 29.2494-56.3481 69.1914-66.3368 112.701 4.9964 6.417 9.2719 13.5483 15.6976 19.2569 7.8426-84.1646 75.6004-165.4746 163.3354-167.6207v2.1461c-53.4936 5.7049-99.1447 39.9425-124.8227 87.0195-.7123 1.416-.7123 2.8454-1.4293 4.2743-15.6893 27.8159-21.3982 57.7742-23.5402 88.4455 6.4257 4.9923 11.418 12.1252 19.2688 16.4066-2.146-19.975.7088-38.519 4.2714-58.4872 5.7132-29.2453 17.1186-54.2109 34.9624-77.7471 23.5318-29.9579 53.4894-50.6438 91.2896-57.778 0 0 .7123.7126.7123 1.4252-9.9846 2.8545-19.9732 7.1342-29.9619 12.1223-2.1335 1.4335-4.2755 2.1461-6.4215 3.5755-16.4019 9.9804-29.2367 22.1069-41.3631 37.0837-17.1186 22.1153-27.8157 44.9385-34.2372 72.0464-2.1336 11.4143-4.2796 22.8236-4.9923 34.2375-.7123 14.9761 0 30.6663 1.4252 45.644 3.5671 1.4289 7.1383 4.2826 10.7012 6.4216 3.5671 2.1403 7.8467 3.5663 11.4097 5.7003-11.4097-44.2192-8.5551-92.0034 10.7011-134.0886 16.4061-36.3787 46.3554-65.6239 83.4554-80.5966v2.1419c-79.8882 39.2257-104.8536 141.9342-76.3212 221.1106 7.1341 3.5634 14.9767 5.6957 22.8193 8.5557-14.9725-34.9506-22.1067-72.0385-17.1144-110.5558 6.4215-47.7892 31.3869-92.0071 72.0374-116.9769 0 .7125.7123 1.4294.7123 1.4294-26.3864 19.9691-44.2218 46.364-53.498 76.3227-17.1102 52.0685-8.5509 107.7004 17.127 154.7766 8.5551 2.1369 16.4061 3.5629 24.9612 4.9922-48.5055-68.4705-55.6397-174.0339 12.8349-233.9538 0 0 .717.7168 1.4334.7168-20.6857 22.8195-34.2372 49.927-39.2295 81.3059-2.8628 19.9733-2.146 39.2302.7171 59.2064 0 1.426 1.421 2.139 1.421 3.5634 3.5628 23.5366 12.8347 43.5095 24.2486 64.1908.717 1.4344 2.1376 2.147 2.8544 3.5763 4.2798 8.546 9.9887 15.689 15.6935 22.8203h24.9612c-23.5361-24.2496-42.0798-52.7815-52.0685-85.5901-.7088-2.8504-.7088-4.9973-2.1418-7.851-.7123-1.421-.7123-2.8516-.7123-4.2759-.7088-1.4294-1.4252-2.1424-1.4252-3.5717-9.9886-47.0729-2.8503-94.1487 27.1073-131.2366 0 0 .7123.7125 1.4252.7125-20.6816 29.9578-27.1073 67.0462-22.8234 102.7164 6.4173 49.9232 32.8079 94.8588 70.6122 126.954 7.8468-1.426 16.3893-2.847 24.2652-4.276-12.1263-9.2719-23.5526-18.5439-34.2456-29.9582-7.1382-7.846-12.8431-14.9806-19.2647-23.5367-9.2635-12.8432-14.9767-25.6769-21.3941-39.9462-2.1419-4.9922-2.8586-9.9849-4.9922-14.9755-11.4139-38.5223-9.276-79.8899 9.2677-115.5526 0 0 1.4293.7168 2.1419.7168-19.2605 44.2179-13.5515 94.8658 9.2678 137.659 18.5521 34.2376 46.3845 60.6325 78.4714 79.8845 7.8343-2.8504 15.6685-5.7053 22.836-9.2767-14.2933-5.7006-25.7113-13.5466-38.5461-22.8186-17.8354-13.5516-32.7996-27.1046-44.2092-45.6518-13.5516-15.6886-20.6858-35.662-27.1073-55.6319-4.2796-17.1196-5.7048-34.2375-4.9922-51.3563.7123-9.9888 2.8504-18.5481 4.9922-28.5327.7123-1.4252-.7123-2.8545 2.8503-2.8545-9.9803 45.6514 2.1503 92.7285 31.387 130.5327 2.1377 2.1373 3.5629 4.2759 4.9922 6.4166 24.2528 28.529 54.2145 48.5068 88.4268 61.3455 3.5838-2.1423 7.8759-3.5667 11.418-5.7036 2.1668-2.1423 5.0005-3.5717 7.8759-5.0006.7087-.7101 1.4168-1.4214 2.1253-2.1345-36.3792-9.2765-69.1747-27.8159-97.007-54.9234-3.5671-4.2797-7.13-7.8459-10.6971-12.1273-27.8157-33.5246-41.3714-75.6085-36.3708-117.6887.7041 0 2.1377.7127 2.1377.7127-1.4334 32.0956 7.8385 62.0539 26.3905 89.8732 4.9881 7.8509 9.9804 14.2726 16.402 21.3993 5.7173 5.7036 11.4262 10.6963 17.0936 16.4015 15.7101 12.8433 32.1287 22.8283 50.6724 30.6742 15.6684 6.4171 31.3787 10.698 47.7972 14.2647 6.4174-5.7057 12.8348-11.4093 18.5437-17.1196-24.2528-1.4293-47.0887-7.138-69.2162-16.4099-2.8337-1.4244-4.9589-2.1374-7.8342-3.5634-23.5443-11.4093-43.505-25.6736-60.6236-45.6468-3.5671-4.9957-7.8468-9.2721-11.4138-14.9757-2.8545-4.2847-4.9923-8.5689-7.8426-12.8436-2.1419-4.2801-4.2838-9.2724-6.4216-13.5521-6.4216-15.6894-10.7012-31.3872-11.4138-48.5018h1.4294c7.1299 42.7969 29.9576 78.4588 65.6159 104.1458 37.0875 26.3819 78.4672 37.0845 121.2638 37.0845 5.7089-6.4216 10.7095-12.8399 15.6684-19.9729-16.3768 2.8533-33.5038 1.4289-49.9223 0-15.6685-1.431-30.6702-5.7057-45.6303-10.703-5.0005-2.1373-10.0011-4.2747-15.0017-6.4086-43.5049-19.9813-77.7297-58.4986-89.8561-104.8584h2.1378c11.4138 34.2333 34.2372 62.0535 65.6325 81.3137 5.0005 2.8504 9.251 4.9928 13.5431 7.8477 40.6714 19.9683 86.3016 24.961 129.8065 16.4016 5.0007-7.1263 8.5843-14.9772 12.1265-22.1119-67.0494 19.262-147.6419 8.5606-195.4265-48.5051-.7123-.7127-2.142-1.421-2.8587-2.1378-8.5551-10.7013-15.6893-21.3943-20.6816-33.525 0 0 .7123-.7084 1.4294-.7084" fill="url(#a)" fill-rule="evenodd"/></g><path d="m42.355469 17.218765c-12.037118.26887-23.726312 4.194961-34.2866205 9.80213-4.1572257 2.183474-8.14682129 4.668891-12.0688485 7.246698v53.390625c5.7269035-4.933665 11.2394703-10.194913 17.691767-14.195952 8.63746-5.531609 18.606126-9.1612 28.89075-9.721164.716215-.04616 1.175483-.05329 1.921389-.07702 3.975705-.09747 7.957836.230915 11.871094.933594.976192.180536 2.21332.424605 3.280854.677543 10.529141 2.439906 20.467552 7.465028 29.295318 13.424019 5.687388 3.855879 11.010728 8.12064 16.101558 12.716797 4.29258 3.904314 8.5855 8.102002 12.5293 12.460935 11.17818 14.28622 22.2667 28.80358 35.71489 41.06916 11.89053 10.911 25.6409 19.91023 40.73208 25.71866 6.82942 2.64567 13.86902 4.83683 21.09737 6.07364 16.48232 2.73426 33.99109-.20958 48.34433-8.87904 11.28641-6.78435 20.43061-17.18326 25.35686-29.42708 3.16181-7.80862 4.78225-16.18409 5.33542-24.5705.7073-11.76279-1.15415-23.878448-6.61713-34.408529-4.85435-9.349987-12.66933-17.200264-22.19599-21.762163-12.05313-5.900548-26.67445-6.435104-39.02772-1.111657-8.73826 3.706696-16.22418 10.544716-20.19457 19.219875-3.11437 6.649484-4.09467 14.300341-2.55332 21.495061 1.49208 7.363913 5.63166 14.238753 11.74687 18.668663 6.23763 4.587 14.50761 6.48777 22.06169 4.56039 6.99769-1.6693 13.24773-6.69817 15.86328-13.46875 1.20347-3.29179 2.25876-6.63606 3.4227-9.942544.58957-1.726181 1.17914-3.452362 1.76871-5.178543-3.9888 3.404357-7.90972 6.888235-11.91607 10.271257-3.10111 2.63352-7.60513 4.0288-11.5351 2.56272-3.62546-1.3425-5.85854-4.977935-6.63086-8.623039-.51253-2.419462-.74302-4.931866-.48489-7.39505.68864-4.133745 3.86789-7.492457 7.64003-9.109708 2.17983-1.017392 4.77287-1.614662 7.02259-1.792117 5.90304-.502134 11.93862 1.322313 16.596 4.978096 4.70389 3.563365 7.46952 9.086484 8.91572 14.697055 1.92377 7.562213 1.72499 15.548123.23837 23.169053-1.08364 5.6888-3.15181 11.2492-6.56586 15.96304-4.57694 6.53326-11.36923 11.37241-18.8968 13.92776-5.52026 1.90739-11.41218 2.65519-17.2386 2.38804-.87738-.0453-2.03607-.12329-3.01905-.23066-6.62639-.69872-13.02295-2.74862-19.23913-5.06932-1.19029-.45301-2.35162-.93138-3.5758-1.45197-1.42591-.60881-3.03847-1.35087-4.50681-2.07418-8.75673-4.27661-16.80714-9.91963-24.05179-16.42192-.65442-.59383-1.5244-1.37793-2.24434-2.06372-5.26053-4.93464-10.18719-10.32191-14.78105-15.80542-.60285-1.16526-1.50444-2.15258-2.21282-3.25833-12.47467-17.710193-25.39404-35.1853-40.10161-51.125226-9.58688-10.312418-20.019278-20.022884-32.078726-27.392699-9.590116-5.843619-20.41665-9.968757-31.689812-10.720637-1.905223-.130991-3.816113-.175311-5.725623-.137873z" fill="#83fc83" filter="url(#b)" stroke-width=".9"/><path d="m340.44809 0c-24.7446 51.410703-44.883 103.7025-61.11 156.7458-11.736-36.2187-26.388-71.846999-44.325-106.811997.2223 32.802298 3.168 64.718997 8.5005 95.858997-35.0487-31.7862-71.964-62.004599-110.9628-90.467995 26.9298 39.481196 56.016 76.470295 86.976 111.290395-23.8518-7.4016-51.219-9.1305-79.272-5.373 17.6805 13.464 38.4327 25.3404 60.4728 32.4-43.5807 2.4813-87.3414 7.0407-131.299195 13.905 37.358995 7.0605 74.564995 12.0375 111.638695 15.1578-19.8567 8.0154-39.5235 16.9686-58.9824 26.9514 36.5472-.2475 71.9973-3.87 106.497-10.4193-15.066 19.5624-28.4796 40.6458-40.491 63.0252 23.1615-13.608 44.9802-28.692 65.2986-45.4293-11.2536 52.4232-19.179 105.4827-24.3828 159.0642 19.485-45.5283 36.9396-91.7937 52.0893-138.8952 10.1538 25.2684 21.7773 50.058 34.7004 74.4264-2.232-33.6042-6.3-66.8376-12.4137-99.657 42.1488 38.772 86.85 74.5938 133.6248 108.0153-34.9605-46.683-72.2142-91.4364-112.1256-133.956 58.653-2.2482 117.0063-8.604 175.1184-18.2826-42.75-6.1362-85.6422-10.6263-128.691-13.2975 17.6463-7.7733 35.064-16.254 52.2702-25.3782-32.9094 2.1843-65.4633 6.1236-97.6203 12.0267 10.944-14.7006 21.0843-30.2886 30.3435-46.845-15.0795 7.3926-29.2437 15.6294-42.5853 24.624 11.9052-51.8067 20.934-104.655597 26.73-158.6772z" fill="#83fc83" opacity=".9"/><path d="m610.21442 237.08545.909.5184c.0243-.1008.054-.198.0774-.2988z" fill="#dc8add" stroke-width=".9"/><path d="m43.6905 21.202499c-13.7007.027-28.0044 4.9734-43.6905 15.2415v42.4215c38.844-34.641 81.7146-19.5606 120.384 22.104001 21.213 26.964 43.6428 58.4307 88.5042 70.3494 33.9174 9.0126 69.534-7.8255 78.5934-41.346 3.465-12.8205 4.0365-26.964.0963-39.900601-3.9384-12.9348-13.0284-24.7608-27.5265-30.3156h-.002c-9.5022-3.6396-20.0772-3.8007-29.5992-.4986-9.5238 3.3012-18.1782 10.5264-21.915 21.2274-2.3544 6.7428-2.2374 14.0886.369 20.764801 2.6073 6.678 8.2287 12.825 16.209 15.138h.002c4.797 1.3896 9.7848 1.1556 14.49-.8064 4.3227-1.8036 8.5635-5.6448 10.269-10.9494-10.3428 9.2736-25.587 4.9122-26.073-12.895201-.1845-1.9548.018-4.0005.612-5.706v-.002c1.9053-5.454 5.976-8.9496 11.547-10.881 5.5692-1.9314 12.456-1.836 18.072.315h.003c9.5058 3.6414 14.6826 10.4067 17.4546 19.5093 2.772 9.104401 2.502 20.446201-.243 30.613501-6.5646 24.2856-31.7115 36.4752-58.0392 29.4804-29.205-7.758-47.169-24.678-63.3357-44.0865l.135-.2007c-40.2165-57.570301-71.3025-89.644501-106.3161-89.577001z" fill="#2e852e" stroke-width=".9"/><path d="m250 188.73633c-17.66795 0-33.73148 9.62656-44.54297 23.79101l-.02344.03125-.02343.03125c-10.87924 14.38047-17.26563 33.42316-17.26563 54.4668 0 14.03813 2.89557 27.14432 8.01758 38.61133-9.41036 4.36323-17.32419 11.08427-23.3125 19.01953-9.40273 12.42746-15.01277 27.6784-18.75586 44.37305l-.00391.01172-.00195.01171c-7.47546 33.55387-7 72.56769-7 104.28711v3.83399a250 250 0 0 0 4.67383 2.29687c.062.1729.10176.35465.16406.52735 7.13409 3.56339 14.97577 5.69664 22.81836 8.55664-.085-.1984-.15378-.40101-.23828-.59961a250 250 0 0 0 19.17383 4.95703c.1142.2109.21518.42817.33008.63867 8.55509 2.1369 16.40584 3.56289 24.96093 4.99219-.1904-.2688-.35191-.56213-.54101-.83203a250 250 0 0 0 19.86914 1.41992c.2195.2746.42493.56339.64453.83789h11.05664 13.9043c-.2954-.3043-.56753-.62789-.86133-.93359a250 250 0 0 0 20.54297-1.46875c.099.085.19347.17526.29297.25976 7.84679-1.426 16.38973-2.84639 24.26562-4.27539-.3515-.2687-.68876-.54175-1.03906-.81055a250 250 0 0 0 19.70117-5.27539c.1998.1206.38974.25696.58984.37696 6.9744-2.5375 13.88088-5.15212 20.38477-8.19922a250 250 0 0 0 5.13086-2.53125v-3.77149c0-31.79757-.84257-70.51004-9.01172-103.66992l-.00195-.00586c-4.01567-16.4944-9.66889-31.63212-18.93946-44.05469-5.65001-7.79908-12.93616-14.43266-21.60742-18.91601 5.42581-11.71416 8.50586-25.1949 8.50586-39.66797 0-21.04364-6.38637-40.08633-17.26562-54.4668l-.05469-.07226-.05469-.07031c-10.84043-14.03712-26.81446-23.71094-44.48242-23.71094z" fill="#2e852e"/><path d="m250 206.73633c-11.39887 0-22.02527 5.95534-30.23633 16.71289-8.21105 10.85359-13.61914 26.31851-13.61914 43.60742s5.40809 32.75187 13.61914 43.60547c8.21106 10.75754 18.83746 16.71289 30.23633 16.71289 11.39888 0 21.92868-5.95535 30.23633-16.71289 8.21106-10.8536 13.62109-26.31656 13.62109-43.60547s-5.41003-32.75383-13.62109-43.60742c-8.30765-10.75755-18.83745-16.71289-30.23633-16.71289zm-44.82227 114.49219c-7.24504 2.97753-13.04212 7.77917-17.96875 14.31054-7.05185 9.3168-12.17171 22.37921-15.55273 37.45899-6.76204 30.35164-6.56836 68.58067-6.56836 100.37304v11.89453c3.19329 1.08682 6.41264 2.13745 9.65625 3.32032-.085-.1984-.15378-.40101-.23828-.59961a250 250 0 0 0 11.83398 3.05859v-72.42187h18.06446v77.25976c4.79264.97377 9.57397 1.85732 14.5664 2.69141-.1904-.2688-.35191-.56213-.54101-.83203a250 250 0 0 0 19.86914 1.41992c.2195.2746.42493.56339.64453.83789h11.05664 13.9043c-.2954-.3043-.56753-.62789-.86133-.93359a250 250 0 0 0 20.54297-1.46875c.099.085.19347.17526.29297.25976 3.53874-.64309 7.24649-1.28561 10.94336-1.92773v-77.30664h18.06445v72.59961a250 250 0 0 0 13.91992-3.72657c.1998.1206.38974.25696.58984.37696 2.52748-.91957 5.02194-1.8753 7.51563-2.83203v-11.66993c0-31.40818-1.06176-69.25257-8.5-99.41211-3.67083-15.07977-8.8876-28.23949-15.93945-37.65234-4.63683-6.43531-9.94964-11.14126-16.42188-14.21484-10.91587 13.92717-26.56606 23.24414-44.05078 23.24414-17.38811-.096-36.1282-11.42889-44.82227-24.10742z" fill="#83fc83" stroke-width="36"/><path d="m232.32244 245.54072c5.50624 0 9.85328 10.08521 9.85328 22.47561 0 12.39039-4.34704 22.4756-9.85328 22.4756-5.40964 0-9.85327-10.08521-9.85327-22.4756 0-12.3904 4.44363-22.47561 9.85327-22.47561zm35.93547 0c5.40964 0 9.85328 10.08521 9.85328 22.47561 0 12.39039-4.44364 22.4756-9.85328 22.4756s-9.85327-10.08521-9.85327-22.4756c0-12.3904 4.44363-22.47561 9.85327-22.47561z" fill="#2e852e"/></svg>